<?xml version="1.0" encoding="UTF-8"?>
<svg xmlns="http://www.w3.org/2000/svg" width="1180" height="980" viewBox="0 0 1180 980">
<style>
text { font-family: -apple-system, BlinkMacSystemFont, 'Segoe UI', Roboto, Helvetica, Arial, sans-serif; fill: #111; }
.small { font-size: 12px; fill: #222; }
.title { font-size: 18px; font-weight: 700; }
.axis { stroke: #111; stroke-width: 1.4; }
.grid { stroke: #E6E6E6; stroke-width: 1; }
.event { fill: #FFEB3B; fill-opacity: 0.18; }
.eventline { stroke: #F9A825; stroke-width: 1.2; stroke-dasharray: 4 3; }
.series { fill: none; stroke-width: 1.8; }
</style>
<text class="title" x="90" y="34">basculamento — 2025-12-12T11:18:55-03:00 → 2025-12-12T11:20:03-03:00 (span 68s, dur 48s)</text>
<text class="small" x="90" y="54">GPS: -11.694069,-47.166261  hotspot: -11.694,-47.166</text>
<text class="small" x="90" y="70">Janela: -3.00 → 4.13 min (relativo ao início do evento)</text>
<text x="90" y="79.00" font-size="14" font-weight="700">Velocidade (km/h)</text>
<rect class="event" x="443.33" y="85.00" width="100.11" height="192.75" />
<line class="eventline" x1="443.33" y1="85.00" x2="443.33" y2="277.75" />
<line class="eventline" x1="543.44" y1="85.00" x2="543.44" y2="277.75" />
<line class="grid" x1="90" y1="277.75" x2="1150" y2="277.75" />
<text class="small" x="80" y="281.75" text-anchor="end">0.00</text>
<line class="grid" x1="90" y1="239.20" x2="1150" y2="239.20" />
<text class="small" x="80" y="243.20" text-anchor="end">2.00</text>
<line class="grid" x1="90" y1="200.65" x2="1150" y2="200.65" />
<text class="small" x="80" y="204.65" text-anchor="end">4.00</text>
<line class="grid" x1="90" y1="162.10" x2="1150" y2="162.10" />
<text class="small" x="80" y="166.10" text-anchor="end">6.00</text>
<line class="grid" x1="90" y1="123.55" x2="1150" y2="123.55" />
<text class="small" x="80" y="127.55" text-anchor="end">8.00</text>
<line class="grid" x1="90" y1="85.00" x2="1150" y2="85.00" />
<text class="small" x="80" y="89.00" text-anchor="end">10.0</text>
<line class="grid" x1="90.00" y1="85.00" x2="90.00" y2="277.75" />
<line class="grid" x1="266.67" y1="85.00" x2="266.67" y2="277.75" />
<line class="grid" x1="443.33" y1="85.00" x2="443.33" y2="277.75" />
<line class="grid" x1="620.00" y1="85.00" x2="620.00" y2="277.75" />
<line class="grid" x1="796.67" y1="85.00" x2="796.67" y2="277.75" />
<line class="grid" x1="973.33" y1="85.00" x2="973.33" y2="277.75" />
<line class="grid" x1="1150.00" y1="85.00" x2="1150.00" y2="277.75" />
<line class="axis" x1="90" y1="85.00" x2="90" y2="277.75" />
<line class="axis" x1="90" y1="277.75" x2="1150" y2="277.75" />
<path class="series" d="M 433.03 245.83 L 434.50 220.16 L 435.97 202.11 L 437.44 178.52 L 438.92 253.46 L 440.39 198.65 L 441.86 211.83 L 443.33 277.75 L 444.81 277.75 L 446.28 277.75 L 447.75 277.75 L 449.22 277.75 L 450.69 277.75 L 452.17 277.75 L 453.64 277.75 L 455.11 277.75 L 456.58 277.75 L 458.06 277.75 L 459.53 277.75 L 461.00 277.75 L 462.47 277.75 L 463.94 277.75 L 465.42 277.75 L 466.89 277.75 L 468.36 277.75 L 469.83 277.75 L 471.31 277.75 L 472.78 277.75 L 474.25 277.75 L 475.72 277.75 L 477.19 277.75 L 478.67 277.75 L 480.14 277.75 L 481.61 277.75 L 483.08 277.75 L 484.56 277.75 L 486.03 277.75 L 487.50 277.75 L 488.97 258.32 L 490.44 179.91 L 491.92 194.48 L 493.39 185.46 L 494.86 188.24 L 497.81 177.83 L 499.28 154.93 L 500.75 145.91 L 502.22 238.89 L 503.69 215.99 L 505.17 145.22 L 506.64 145.22 L 508.11 217.38 L 509.58 207.67 L 511.06 211.83 L 512.53 240.97 L 514.00 265.26 L 515.47 277.75 L 516.94 240.54 L 518.42 264.34 L 519.89 269.42 L 521.36 270.58 L 522.83 273.05 L 524.31 273.55 L 525.78 271.31 L 527.25 273.33 L 528.72 272.46 L 530.19 270.77 L 531.67 272.08 L 533.14 271.77 L 534.61 273.53 L 536.08 270.79 L 537.56 273.15 L 539.03 273.41 L 540.50 273.41 L 541.97 275.07 L 543.44 275.10 L 547.86 262.08 L 549.33 262.31 L 550.81 263.11 L 552.28 264.30 L 553.75 265.70 L 555.22 267.12 L 556.69 268.48 L 558.17 269.77 L 559.64 270.93 L 561.11 270.44 L 731.89 261.10 L 733.36 277.75 L 734.83 277.75 L 736.31 277.75 L 737.78 277.75 L 739.25 277.75 L 740.72 277.75 L 742.19 277.75 L 743.67 277.75 L 745.14 277.75 L 746.61 277.75 L 748.08 277.75 L 749.56 277.75 L 751.03 277.75 L 752.50 277.75 L 753.97 277.75 L 755.44 277.75 L 756.92 277.75 L 758.39 277.75 L 759.86 277.75 L 761.33 277.75 L 762.81 277.75 L 764.28 277.75 L 765.75 277.75 L 767.22 277.75 L 768.69 277.75 L 770.17 277.75 L 771.64 277.75 L 773.11 277.75 L 774.58 277.75 L 776.06 277.75 L 777.53 277.75 L 779.00 277.75 L 780.47 277.75 L 781.94 277.75 L 783.42 277.75 L 784.89 277.75 L 786.36 277.75 L 787.83 277.75 L 789.31 277.75 L 790.78 277.75 L 792.25 277.75 L 793.72 277.75 L 795.19 277.75 L 796.67 277.75 L 798.14 277.75 L 799.61 277.75 L 801.08 277.75 L 802.56 277.75 L 804.03 277.75 L 805.50 277.75 L 806.97 277.75 L 808.44 277.75" stroke="#1976D2" />
<text x="90" y="289.75" font-size="14" font-weight="700">Inclinação (graus)</text>
<rect class="event" x="443.33" y="295.75" width="100.11" height="192.75" />
<line class="eventline" x1="443.33" y1="295.75" x2="443.33" y2="488.50" />
<line class="eventline" x1="543.44" y1="295.75" x2="543.44" y2="488.50" />
<line class="grid" x1="90" y1="488.50" x2="1150" y2="488.50" />
<text class="small" x="80" y="492.50" text-anchor="end">-50.0</text>
<line class="grid" x1="90" y1="449.95" x2="1150" y2="449.95" />
<text class="small" x="80" y="453.95" text-anchor="end">0.00</text>
<line class="grid" x1="90" y1="411.40" x2="1150" y2="411.40" />
<text class="small" x="80" y="415.40" text-anchor="end">50.0</text>
<line class="grid" x1="90" y1="372.85" x2="1150" y2="372.85" />
<text class="small" x="80" y="376.85" text-anchor="end">100</text>
<line class="grid" x1="90" y1="334.30" x2="1150" y2="334.30" />
<text class="small" x="80" y="338.30" text-anchor="end">150</text>
<line class="grid" x1="90" y1="295.75" x2="1150" y2="295.75" />
<text class="small" x="80" y="299.75" text-anchor="end">200</text>
<line class="grid" x1="90.00" y1="295.75" x2="90.00" y2="488.50" />
<line class="grid" x1="266.67" y1="295.75" x2="266.67" y2="488.50" />
<line class="grid" x1="443.33" y1="295.75" x2="443.33" y2="488.50" />
<line class="grid" x1="620.00" y1="295.75" x2="620.00" y2="488.50" />
<line class="grid" x1="796.67" y1="295.75" x2="796.67" y2="488.50" />
<line class="grid" x1="973.33" y1="295.75" x2="973.33" y2="488.50" />
<line class="grid" x1="1150.00" y1="295.75" x2="1150.00" y2="488.50" />
<line class="axis" x1="90" y1="295.75" x2="90" y2="488.50" />
<line class="axis" x1="90" y1="488.50" x2="1150" y2="488.50" />
<path class="series" d="M 433.03 467.69 L 434.50 472.24 L 435.97 472.38 L 437.44 471.60 L 438.92 473.41 L 440.39 474.95 L 441.86 467.90 L 443.33 470.92 L 444.81 473.38 L 446.28 473.19 L 447.75 470.73 L 449.22 470.99 L 450.69 470.05 L 452.17 470.04 L 453.64 470.22 L 455.11 469.85 L 456.58 469.63 L 458.06 469.65 L 459.53 470.25 L 461.00 470.43 L 462.47 470.15 L 463.94 469.97 L 465.42 470.65 L 466.89 470.52 L 468.36 469.98 L 469.83 469.92 L 471.31 469.55 L 472.78 469.80 L 474.25 470.14 L 475.72 470.25 L 477.19 470.10 L 478.67 470.77 L 480.14 471.23 L 481.61 470.91 L 483.08 470.65 L 484.56 470.07 L 486.03 471.00 L 487.50 471.23 L 488.97 471.29 L 490.44 475.11 L 491.92 472.66 L 493.39 472.64 L 494.86 470.55 L 497.81 465.21 L 499.28 466.04 L 500.75 468.14 L 502.22 466.47 L 503.69 468.81 L 505.17 470.39 L 506.64 470.29 L 508.11 468.94 L 509.58 465.86 L 511.06 467.09 L 512.53 469.60 L 514.00 467.80 L 515.47 469.38 L 516.94 469.35 L 518.42 469.19 L 519.89 468.85 L 521.36 468.62 L 522.83 468.16 L 524.31 468.41 L 525.78 466.94 L 527.25 466.00 L 528.72 466.58 L 530.19 466.87 L 531.67 466.78 L 533.14 466.72 L 534.61 466.87 L 536.08 466.87 L 537.56 466.98 L 539.03 465.45 L 540.50 465.64 L 541.97 468.01 L 543.44 460.25 L 547.86 460.62 L 549.33 461.68 L 550.81 462.03 L 552.28 461.18 L 553.75 461.70 L 555.22 461.42 L 556.69 460.40 L 558.17 460.74 L 559.64 460.60 L 561.11 444.33 L 731.89 453.09 L 733.36 450.43 L 734.83 439.24 L 736.31 437.74 L 737.78 441.37 L 739.25 442.55 L 740.72 442.02 L 742.19 442.14 L 743.67 442.12 L 745.14 442.11 L 746.61 442.10 L 748.08 442.10 L 749.56 442.10 L 751.03 442.09 L 752.50 442.09 L 753.97 442.09 L 755.44 442.09 L 756.92 442.08 L 758.39 442.08 L 759.86 442.08 L 761.33 442.08 L 762.81 442.09 L 764.28 442.08 L 765.75 442.09 L 767.22 442.09 L 768.69 442.09 L 770.17 442.08 L 771.64 442.09 L 773.11 442.09 L 774.58 442.09 L 776.06 442.09 L 777.53 442.09 L 779.00 442.09 L 780.47 442.08 L 781.94 442.09 L 783.42 442.05 L 784.89 442.08 L 786.36 442.09 L 787.83 442.08 L 789.31 442.08 L 790.78 442.06 L 792.25 442.05 L 793.72 442.05 L 795.19 442.05 L 796.67 442.05 L 798.14 442.05 L 799.61 442.04 L 801.08 442.04 L 802.56 442.04 L 804.03 442.04 L 805.50 442.04 L 806.97 442.04 L 808.44 442.04" stroke="#2E7D32" />
<path class="series" d="M 433.03 383.62 L 434.50 389.23 L 435.97 385.05 L 437.44 389.61 L 438.92 389.49 L 440.39 389.38 L 441.86 391.76 L 443.33 392.11 L 444.81 388.77 L 446.28 390.00 L 447.75 387.07 L 449.22 386.86 L 450.69 387.28 L 452.17 387.08 L 453.64 387.00 L 455.11 387.55 L 456.58 387.65 L 458.06 387.30 L 459.53 386.93 L 461.00 386.67 L 462.47 386.69 L 463.94 386.94 L 465.42 387.12 L 466.89 386.55 L 468.36 385.90 L 469.83 385.60 L 471.31 386.07 L 472.78 385.77 L 474.25 386.22 L 475.72 385.59 L 477.19 386.29 L 478.67 385.58 L 480.14 384.88 L 481.61 384.36 L 483.08 384.68 L 484.56 384.70 L 486.03 385.17 L 487.50 384.24 L 488.97 389.42 L 490.44 390.36 L 491.92 389.99 L 493.39 387.99 L 494.86 386.53 L 497.81 381.43 L 499.28 381.09 L 500.75 385.47 L 502.22 383.56 L 503.69 385.47 L 505.17 384.71 L 506.64 386.44 L 508.11 385.32 L 509.58 384.32 L 511.06 384.10 L 512.53 386.76 L 514.00 386.27 L 515.47 387.42 L 516.94 387.86 L 518.42 387.82 L 519.89 388.24 L 521.36 389.08 L 522.83 388.83 L 524.31 387.43 L 525.78 391.09 L 527.25 391.70 L 528.72 390.49 L 530.19 390.56 L 531.67 390.61 L 533.14 390.71 L 534.61 390.57 L 536.08 390.07 L 537.56 390.12 L 539.03 389.25 L 540.50 387.15 L 541.97 389.42 L 543.44 382.23 L 547.86 383.69 L 549.33 383.31 L 550.81 384.01 L 552.28 382.76 L 553.75 381.69 L 555.22 382.18 L 556.69 382.37 L 558.17 383.30 L 559.64 382.60 L 561.11 382.00 L 731.89 463.35 L 733.36 457.19 L 734.83 462.59 L 736.31 455.03 L 737.78 450.48 L 739.25 450.18 L 740.72 450.27 L 742.19 450.21 L 743.67 450.20 L 745.14 450.19 L 746.61 450.19 L 748.08 450.20 L 749.56 450.19 L 751.03 450.19 L 752.50 450.19 L 753.97 450.19 L 755.44 450.18 L 756.92 450.19 L 758.39 450.19 L 759.86 450.18 L 761.33 450.19 L 762.81 450.18 L 764.28 450.19 L 765.75 450.18 L 767.22 450.19 L 768.69 450.18 L 770.17 450.18 L 771.64 450.19 L 773.11 450.18 L 774.58 450.17 L 776.06 450.19 L 777.53 450.17 L 779.00 450.19 L 780.47 450.18 L 781.94 450.18 L 783.42 450.18 L 784.89 450.19 L 786.36 450.19 L 787.83 450.19 L 789.31 450.18 L 790.78 450.17 L 792.25 450.17 L 793.72 450.17 L 795.19 450.15 L 796.67 450.16 L 798.14 450.17 L 799.61 450.16 L 801.08 450.16 L 802.56 450.15 L 804.03 450.16 L 805.50 450.16 L 806.97 450.16 L 808.44 450.15" stroke="#6A1B9A" />
<line x1="900.00" y1="307.75" x2="918.00" y2="307.75" stroke="#2E7D32" stroke-width="3" />
<text class="small" x="924.00" y="311.75">pitch</text>
<line x1="900.00" y1="323.75" x2="918.00" y2="323.75" stroke="#6A1B9A" stroke-width="3" />
<text class="small" x="924.00" y="327.75">roll</text>
<text x="90" y="500.50" font-size="14" font-weight="700">Aceleração (magnitude) (u.a.)</text>
<rect class="event" x="443.33" y="506.50" width="100.11" height="192.75" />
<line class="eventline" x1="443.33" y1="506.50" x2="443.33" y2="699.25" />
<line class="eventline" x1="543.44" y1="506.50" x2="543.44" y2="699.25" />
<line class="grid" x1="90" y1="699.25" x2="1150" y2="699.25" />
<text class="small" x="80" y="703.25" text-anchor="end">0.00</text>
<line class="grid" x1="90" y1="660.70" x2="1150" y2="660.70" />
<text class="small" x="80" y="664.70" text-anchor="end">0.50</text>
<line class="grid" x1="90" y1="622.15" x2="1150" y2="622.15" />
<text class="small" x="80" y="626.15" text-anchor="end">1.00</text>
<line class="grid" x1="90" y1="583.60" x2="1150" y2="583.60" />
<text class="small" x="80" y="587.60" text-anchor="end">1.50</text>
<line class="grid" x1="90" y1="545.05" x2="1150" y2="545.05" />
<text class="small" x="80" y="549.05" text-anchor="end">2.00</text>
<line class="grid" x1="90" y1="506.50" x2="1150" y2="506.50" />
<text class="small" x="80" y="510.50" text-anchor="end">2.50</text>
<line class="grid" x1="90.00" y1="506.50" x2="90.00" y2="699.25" />
<line class="grid" x1="266.67" y1="506.50" x2="266.67" y2="699.25" />
<line class="grid" x1="443.33" y1="506.50" x2="443.33" y2="699.25" />
<line class="grid" x1="620.00" y1="506.50" x2="620.00" y2="699.25" />
<line class="grid" x1="796.67" y1="506.50" x2="796.67" y2="699.25" />
<line class="grid" x1="973.33" y1="506.50" x2="973.33" y2="699.25" />
<line class="grid" x1="1150.00" y1="506.50" x2="1150.00" y2="699.25" />
<line class="axis" x1="90" y1="506.50" x2="90" y2="699.25" />
<line class="axis" x1="90" y1="699.25" x2="1150" y2="699.25" />
<path class="series" d="M 433.03 642.01 L 434.50 628.05 L 435.97 620.33 L 437.44 610.69 L 438.92 657.87 L 440.39 606.65 L 441.86 616.88 L 443.33 671.86 L 444.81 670.77 L 446.28 688.02 L 447.75 687.87 L 449.22 696.96 L 450.69 696.81 L 452.17 697.05 L 453.64 692.87 L 455.11 694.48 L 456.58 697.39 L 458.06 691.47 L 459.53 688.78 L 461.00 695.20 L 462.47 696.82 L 463.94 697.25 L 465.42 697.50 L 466.89 696.34 L 468.36 697.58 L 469.83 696.48 L 471.31 697.12 L 472.78 696.86 L 474.25 696.57 L 475.72 697.41 L 477.19 696.45 L 478.67 695.49 L 480.14 696.95 L 481.61 697.55 L 483.08 696.52 L 484.56 697.76 L 486.03 695.84 L 487.50 676.95 L 488.97 589.61 L 490.44 616.61 L 491.92 626.42 L 493.39 588.49 L 494.86 601.58 L 497.81 587.17 L 499.28 579.41 L 500.75 598.92 L 502.22 597.68 L 503.69 609.07 L 505.17 614.83 L 506.64 614.06 L 508.11 670.43 L 509.58 645.89 L 511.06 652.80 L 512.53 647.12 L 514.00 671.90 L 515.47 695.33 L 516.94 694.79 L 518.42 697.45 L 519.89 698.08 L 521.36 695.62 L 522.83 696.33 L 524.31 689.12 L 525.78 666.80 L 527.25 686.97 L 528.72 695.85 L 530.19 698.10 L 531.67 698.68 L 533.14 698.60 L 534.61 696.59 L 536.08 698.19 L 537.56 698.50 L 539.03 693.63 L 540.50 666.82 L 541.97 685.04 L 543.44 644.36 L 547.86 685.46 L 549.33 682.88 L 550.81 694.88 L 552.28 694.00 L 553.75 694.97 L 555.22 696.59 L 556.69 694.36 L 558.17 694.36 L 559.64 681.06 L 561.11 664.42 L 731.89 660.18 L 733.36 662.14 L 734.83 672.80 L 736.31 690.70 L 737.78 693.11 L 739.25 697.95 L 740.72 698.36 L 742.19 698.58 L 743.67 698.47 L 745.14 698.48 L 746.61 698.55 L 748.08 698.44 L 749.56 698.42 L 751.03 698.39 L 752.50 698.61 L 753.97 699.11 L 755.44 699.10 L 756.92 699.13 L 758.39 699.12 L 759.86 699.12 L 761.33 699.12 L 762.81 699.17 L 764.28 699.21 L 765.75 699.22 L 767.22 699.16 L 768.69 699.15 L 770.17 699.06 L 771.64 699.12 L 773.11 699.12 L 774.58 699.12 L 776.06 699.11 L 777.53 699.00 L 779.00 699.09 L 780.47 698.87 L 781.94 698.98 L 783.42 698.89 L 784.89 698.98 L 786.36 698.97 L 787.83 698.99 L 789.31 699.16 L 790.78 699.11 L 792.25 699.08 L 793.72 698.94 L 795.19 699.06 L 796.67 699.13 L 798.14 698.98 L 799.61 699.09 L 801.08 699.04 L 802.56 699.12 L 804.03 699.21 L 805.50 699.10 L 806.97 699.22 L 808.44 699.12" stroke="#FB8C00" />
<text x="90" y="711.25" font-size="14" font-weight="700">Giroscópio (magnitude) (u.a.)</text>
<rect class="event" x="443.33" y="717.25" width="100.11" height="192.75" />
<line class="eventline" x1="443.33" y1="717.25" x2="443.33" y2="910.00" />
<line class="eventline" x1="543.44" y1="717.25" x2="543.44" y2="910.00" />
<line class="grid" x1="90" y1="910.00" x2="1150" y2="910.00" />
<text class="small" x="80" y="914.00" text-anchor="end">0.00</text>
<line class="grid" x1="90" y1="871.45" x2="1150" y2="871.45" />
<text class="small" x="80" y="875.45" text-anchor="end">0.50</text>
<line class="grid" x1="90" y1="832.90" x2="1150" y2="832.90" />
<text class="small" x="80" y="836.90" text-anchor="end">1.00</text>
<line class="grid" x1="90" y1="794.35" x2="1150" y2="794.35" />
<text class="small" x="80" y="798.35" text-anchor="end">1.50</text>
<line class="grid" x1="90" y1="755.80" x2="1150" y2="755.80" />
<text class="small" x="80" y="759.80" text-anchor="end">2.00</text>
<line class="grid" x1="90" y1="717.25" x2="1150" y2="717.25" />
<text class="small" x="80" y="721.25" text-anchor="end">2.50</text>
<line class="grid" x1="90.00" y1="717.25" x2="90.00" y2="910.00" />
<line class="grid" x1="266.67" y1="717.25" x2="266.67" y2="910.00" />
<line class="grid" x1="443.33" y1="717.25" x2="443.33" y2="910.00" />
<line class="grid" x1="620.00" y1="717.25" x2="620.00" y2="910.00" />
<line class="grid" x1="796.67" y1="717.25" x2="796.67" y2="910.00" />
<line class="grid" x1="973.33" y1="717.25" x2="973.33" y2="910.00" />
<line class="grid" x1="1150.00" y1="717.25" x2="1150.00" y2="910.00" />
<line class="axis" x1="90" y1="717.25" x2="90" y2="910.00" />
<line class="axis" x1="90" y1="910.00" x2="1150" y2="910.00" />
<path class="series" d="M 433.03 850.20 L 434.50 865.27 L 435.97 900.26 L 437.44 887.43 L 438.92 899.04 L 440.39 874.90 L 441.86 803.76 L 443.33 896.97 L 444.81 896.11 L 446.28 899.19 L 447.75 902.21 L 449.22 905.36 L 450.69 906.38 L 452.17 908.53 L 453.64 904.33 L 455.11 903.22 L 456.58 907.58 L 458.06 904.72 L 459.53 902.82 L 461.00 905.24 L 462.47 908.83 L 463.94 907.32 L 465.42 909.38 L 466.89 907.00 L 468.36 908.49 L 469.83 908.56 L 471.31 909.34 L 472.78 908.86 L 474.25 908.49 L 475.72 909.29 L 477.19 908.35 L 478.67 907.29 L 480.14 908.49 L 481.61 908.42 L 483.08 906.56 L 484.56 905.94 L 486.03 904.88 L 487.50 899.29 L 488.97 891.68 L 490.44 904.32 L 491.92 898.31 L 493.39 898.42 L 494.86 877.42 L 497.81 871.03 L 499.28 880.53 L 500.75 877.47 L 502.22 904.99 L 503.69 877.81 L 505.17 899.71 L 506.64 894.81 L 508.11 889.87 L 509.58 888.20 L 511.06 883.96 L 512.53 870.76 L 514.00 907.37 L 515.47 904.79 L 516.94 904.11 L 518.42 907.74 L 519.89 907.05 L 521.36 907.34 L 522.83 907.18 L 524.31 902.43 L 525.78 888.64 L 527.25 906.69 L 528.72 907.88 L 530.19 907.78 L 531.67 909.49 L 533.14 908.84 L 534.61 908.38 L 536.08 908.95 L 537.56 907.51 L 539.03 890.28 L 540.50 888.85 L 541.97 905.21 L 543.44 824.81 L 547.86 893.19 L 549.33 903.43 L 550.81 907.07 L 552.28 906.33 L 553.75 909.26 L 555.22 907.70 L 556.69 900.87 L 558.17 900.87 L 559.64 893.35 L 561.11 870.42 L 731.89 800.57 L 733.36 861.24 L 734.83 793.39 L 736.31 868.16 L 737.78 903.68 L 739.25 907.46 L 740.72 906.97 L 742.19 908.78 L 743.67 909.81 L 745.14 909.82 L 746.61 909.83 L 748.08 909.83 L 749.56 909.83 L 751.03 909.83 L 752.50 909.95 L 753.97 909.99 L 755.44 909.99 L 756.92 909.99 L 758.39 909.99 L 759.86 909.98 L 761.33 909.98 L 762.81 909.99 L 764.28 909.98 L 765.75 909.99 L 767.22 909.99 L 768.69 909.99 L 770.17 909.98 L 771.64 909.98 L 773.11 909.98 L 774.58 909.98 L 776.06 909.97 L 777.53 909.98 L 779.00 909.96 L 780.47 909.97 L 781.94 909.98 L 783.42 909.97 L 784.89 909.97 L 786.36 909.97 L 787.83 909.96 L 789.31 909.97 L 790.78 909.92 L 792.25 909.96 L 793.72 909.97 L 795.19 909.97 L 796.67 909.95 L 798.14 909.96 L 799.61 909.98 L 801.08 909.99 L 802.56 909.98 L 804.03 909.98 L 805.50 909.99 L 806.97 909.98 L 808.44 909.99" stroke="#E53935" />
<text x="620.00" y="952" font-size="15" text-anchor="middle">minutos (relativo ao início do evento)</text>
<text class="small" x="90.00" y="936" text-anchor="middle">-4.00</text>
<text class="small" x="266.67" y="936" text-anchor="middle">-2.00</text>
<text class="small" x="443.33" y="936" text-anchor="middle">0.00</text>
<text class="small" x="620.00" y="936" text-anchor="middle">2.00</text>
<text class="small" x="796.67" y="936" text-anchor="middle">4.00</text>
<text class="small" x="973.33" y="936" text-anchor="middle">6.00</text>
<text class="small" x="1150.00" y="936" text-anchor="middle">8.00</text>
</svg>