<?xml version="1.0" encoding="UTF-8"?>
<svg xmlns="http://www.w3.org/2000/svg" width="1180" height="980" viewBox="0 0 1180 980">
<style>
text { font-family: -apple-system, BlinkMacSystemFont, 'Segoe UI', Roboto, Helvetica, Arial, sans-serif; fill: #111; }
.small { font-size: 12px; fill: #222; }
.title { font-size: 18px; font-weight: 700; }
.axis { stroke: #111; stroke-width: 1.4; }
.grid { stroke: #E6E6E6; stroke-width: 1; }
.event { fill: #FFEB3B; fill-opacity: 0.18; }
.eventline { stroke: #F9A825; stroke-width: 1.2; stroke-dasharray: 4 3; }
.series { fill: none; stroke-width: 1.8; }
</style>
<text class="title" x="90" y="34">espera_basculamento — 2025-12-12T11:19:47-03:00 → 2025-12-12T11:20:03-03:00 (span 16s, dur 17s)</text>
<text class="small" x="90" y="54">GPS: -11.694138,-47.166175  hotspot: -11.694,-47.166</text>
<text class="small" x="90" y="70">Janela: -3.00 → 3.27 min (relativo ao início do evento)</text>
<text x="90" y="79.00" font-size="14" font-weight="700">Velocidade (km/h)</text>
<rect class="event" x="443.33" y="85.00" width="23.56" height="192.75" />
<line class="eventline" x1="443.33" y1="85.00" x2="443.33" y2="277.75" />
<line class="eventline" x1="466.89" y1="85.00" x2="466.89" y2="277.75" />
<line class="grid" x1="90" y1="277.75" x2="1150" y2="277.75" />
<text class="small" x="80" y="281.75" text-anchor="end">0.00</text>
<line class="grid" x1="90" y1="239.20" x2="1150" y2="239.20" />
<text class="small" x="80" y="243.20" text-anchor="end">2.00</text>
<line class="grid" x1="90" y1="200.65" x2="1150" y2="200.65" />
<text class="small" x="80" y="204.65" text-anchor="end">4.00</text>
<line class="grid" x1="90" y1="162.10" x2="1150" y2="162.10" />
<text class="small" x="80" y="166.10" text-anchor="end">6.00</text>
<line class="grid" x1="90" y1="123.55" x2="1150" y2="123.55" />
<text class="small" x="80" y="127.55" text-anchor="end">8.00</text>
<line class="grid" x1="90" y1="85.00" x2="1150" y2="85.00" />
<text class="small" x="80" y="89.00" text-anchor="end">10.0</text>
<line class="grid" x1="90.00" y1="85.00" x2="90.00" y2="277.75" />
<line class="grid" x1="266.67" y1="85.00" x2="266.67" y2="277.75" />
<line class="grid" x1="443.33" y1="85.00" x2="443.33" y2="277.75" />
<line class="grid" x1="620.00" y1="85.00" x2="620.00" y2="277.75" />
<line class="grid" x1="796.67" y1="85.00" x2="796.67" y2="277.75" />
<line class="grid" x1="973.33" y1="85.00" x2="973.33" y2="277.75" />
<line class="grid" x1="1150.00" y1="85.00" x2="1150.00" y2="277.75" />
<line class="axis" x1="90" y1="85.00" x2="90" y2="277.75" />
<line class="axis" x1="90" y1="277.75" x2="1150" y2="277.75" />
<path class="series" d="M 356.47 245.83 L 357.94 220.16 L 359.42 202.11 L 360.89 178.52 L 362.36 253.46 L 363.83 198.65 L 365.31 211.83 L 366.78 277.75 L 368.25 277.75 L 369.72 277.75 L 371.19 277.75 L 372.67 277.75 L 374.14 277.75 L 375.61 277.75 L 377.08 277.75 L 378.56 277.75 L 380.03 277.75 L 381.50 277.75 L 382.97 277.75 L 384.44 277.75 L 385.92 277.75 L 387.39 277.75 L 388.86 277.75 L 390.33 277.75 L 391.81 277.75 L 393.28 277.75 L 394.75 277.75 L 396.22 277.75 L 397.69 277.75 L 399.17 277.75 L 400.64 277.75 L 402.11 277.75 L 403.58 277.75 L 405.06 277.75 L 406.53 277.75 L 408.00 277.75 L 409.47 277.75 L 410.94 277.75 L 412.42 258.32 L 413.89 179.91 L 415.36 194.48 L 416.83 185.46 L 418.31 188.24 L 421.25 177.83 L 422.72 154.93 L 424.19 145.91 L 425.67 238.89 L 427.14 215.99 L 428.61 145.22 L 430.08 145.22 L 431.56 217.38 L 433.03 207.67 L 434.50 211.83 L 435.97 240.97 L 437.44 265.26 L 438.92 277.75 L 440.39 240.54 L 441.86 264.34 L 443.33 269.42 L 444.81 270.58 L 446.28 273.05 L 447.75 273.55 L 449.22 271.31 L 450.69 273.33 L 452.17 272.46 L 453.64 270.77 L 455.11 272.08 L 456.58 271.77 L 458.06 273.53 L 459.53 270.79 L 461.00 273.15 L 462.47 273.41 L 463.94 273.41 L 465.42 275.07 L 466.89 275.10 L 471.31 262.08 L 472.78 262.31 L 474.25 263.11 L 475.72 264.30 L 477.19 265.70 L 478.67 267.12 L 480.14 268.48 L 481.61 269.77 L 483.08 270.93 L 484.56 270.44 L 655.33 261.10 L 656.81 277.75 L 658.28 277.75 L 659.75 277.75 L 661.22 277.75 L 662.69 277.75 L 664.17 277.75 L 665.64 277.75 L 667.11 277.75 L 668.58 277.75 L 670.06 277.75 L 671.53 277.75 L 673.00 277.75 L 674.47 277.75 L 675.94 277.75 L 677.42 277.75 L 678.89 277.75 L 680.36 277.75 L 681.83 277.75 L 683.31 277.75 L 684.78 277.75 L 686.25 277.75 L 687.72 277.75 L 689.19 277.75 L 690.67 277.75 L 692.14 277.75 L 693.61 277.75 L 695.08 277.75 L 696.56 277.75 L 698.03 277.75 L 699.50 277.75 L 700.97 277.75 L 702.44 277.75 L 703.92 277.75 L 705.39 277.75 L 706.86 277.75 L 708.33 277.75 L 709.81 277.75 L 711.28 277.75 L 712.75 277.75 L 714.22 277.75 L 715.69 277.75 L 717.17 277.75 L 718.64 277.75 L 720.11 277.75 L 721.58 277.75 L 723.06 277.75 L 724.53 277.75 L 726.00 277.75 L 727.47 277.75 L 728.94 277.75 L 730.42 277.75 L 731.89 277.75" stroke="#1976D2" />
<text x="90" y="289.75" font-size="14" font-weight="700">Inclinação (graus)</text>
<rect class="event" x="443.33" y="295.75" width="23.56" height="192.75" />
<line class="eventline" x1="443.33" y1="295.75" x2="443.33" y2="488.50" />
<line class="eventline" x1="466.89" y1="295.75" x2="466.89" y2="488.50" />
<line class="grid" x1="90" y1="488.50" x2="1150" y2="488.50" />
<text class="small" x="80" y="492.50" text-anchor="end">-50.0</text>
<line class="grid" x1="90" y1="449.95" x2="1150" y2="449.95" />
<text class="small" x="80" y="453.95" text-anchor="end">0.00</text>
<line class="grid" x1="90" y1="411.40" x2="1150" y2="411.40" />
<text class="small" x="80" y="415.40" text-anchor="end">50.0</text>
<line class="grid" x1="90" y1="372.85" x2="1150" y2="372.85" />
<text class="small" x="80" y="376.85" text-anchor="end">100</text>
<line class="grid" x1="90" y1="334.30" x2="1150" y2="334.30" />
<text class="small" x="80" y="338.30" text-anchor="end">150</text>
<line class="grid" x1="90" y1="295.75" x2="1150" y2="295.75" />
<text class="small" x="80" y="299.75" text-anchor="end">200</text>
<line class="grid" x1="90.00" y1="295.75" x2="90.00" y2="488.50" />
<line class="grid" x1="266.67" y1="295.75" x2="266.67" y2="488.50" />
<line class="grid" x1="443.33" y1="295.75" x2="443.33" y2="488.50" />
<line class="grid" x1="620.00" y1="295.75" x2="620.00" y2="488.50" />
<line class="grid" x1="796.67" y1="295.75" x2="796.67" y2="488.50" />
<line class="grid" x1="973.33" y1="295.75" x2="973.33" y2="488.50" />
<line class="grid" x1="1150.00" y1="295.75" x2="1150.00" y2="488.50" />
<line class="axis" x1="90" y1="295.75" x2="90" y2="488.50" />
<line class="axis" x1="90" y1="488.50" x2="1150" y2="488.50" />
<path class="series" d="M 356.47 467.69 L 357.94 472.24 L 359.42 472.38 L 360.89 471.60 L 362.36 473.41 L 363.83 474.95 L 365.31 467.90 L 366.78 470.92 L 368.25 473.38 L 369.72 473.19 L 371.19 470.73 L 372.67 470.99 L 374.14 470.05 L 375.61 470.04 L 377.08 470.22 L 378.56 469.85 L 380.03 469.63 L 381.50 469.65 L 382.97 470.25 L 384.44 470.43 L 385.92 470.15 L 387.39 469.97 L 388.86 470.65 L 390.33 470.52 L 391.81 469.98 L 393.28 469.92 L 394.75 469.55 L 396.22 469.80 L 397.69 470.14 L 399.17 470.25 L 400.64 470.10 L 402.11 470.77 L 403.58 471.23 L 405.06 470.91 L 406.53 470.65 L 408.00 470.07 L 409.47 471.00 L 410.94 471.23 L 412.42 471.29 L 413.89 475.11 L 415.36 472.66 L 416.83 472.64 L 418.31 470.55 L 421.25 465.21 L 422.72 466.04 L 424.19 468.14 L 425.67 466.47 L 427.14 468.81 L 428.61 470.39 L 430.08 470.29 L 431.56 468.94 L 433.03 465.86 L 434.50 467.09 L 435.97 469.60 L 437.44 467.80 L 438.92 469.38 L 440.39 469.35 L 441.86 469.19 L 443.33 468.85 L 444.81 468.62 L 446.28 468.16 L 447.75 468.41 L 449.22 466.94 L 450.69 466.00 L 452.17 466.58 L 453.64 466.87 L 455.11 466.78 L 456.58 466.72 L 458.06 466.87 L 459.53 466.87 L 461.00 466.98 L 462.47 465.45 L 463.94 465.64 L 465.42 468.01 L 466.89 460.25 L 471.31 460.62 L 472.78 461.68 L 474.25 462.03 L 475.72 461.18 L 477.19 461.70 L 478.67 461.42 L 480.14 460.40 L 481.61 460.74 L 483.08 460.60 L 484.56 444.33 L 655.33 453.09 L 656.81 450.43 L 658.28 439.24 L 659.75 437.74 L 661.22 441.37 L 662.69 442.55 L 664.17 442.02 L 665.64 442.14 L 667.11 442.12 L 668.58 442.11 L 670.06 442.10 L 671.53 442.10 L 673.00 442.10 L 674.47 442.09 L 675.94 442.09 L 677.42 442.09 L 678.89 442.09 L 680.36 442.08 L 681.83 442.08 L 683.31 442.08 L 684.78 442.08 L 686.25 442.09 L 687.72 442.08 L 689.19 442.09 L 690.67 442.09 L 692.14 442.09 L 693.61 442.08 L 695.08 442.09 L 696.56 442.09 L 698.03 442.09 L 699.50 442.09 L 700.97 442.09 L 702.44 442.09 L 703.92 442.08 L 705.39 442.09 L 706.86 442.05 L 708.33 442.08 L 709.81 442.09 L 711.28 442.08 L 712.75 442.08 L 714.22 442.06 L 715.69 442.05 L 717.17 442.05 L 718.64 442.05 L 720.11 442.05 L 721.58 442.05 L 723.06 442.04 L 724.53 442.04 L 726.00 442.04 L 727.47 442.04 L 728.94 442.04 L 730.42 442.04 L 731.89 442.04" stroke="#2E7D32" />
<path class="series" d="M 356.47 383.62 L 357.94 389.23 L 359.42 385.05 L 360.89 389.61 L 362.36 389.49 L 363.83 389.38 L 365.31 391.76 L 366.78 392.11 L 368.25 388.77 L 369.72 390.00 L 371.19 387.07 L 372.67 386.86 L 374.14 387.28 L 375.61 387.08 L 377.08 387.00 L 378.56 387.55 L 380.03 387.65 L 381.50 387.30 L 382.97 386.93 L 384.44 386.67 L 385.92 386.69 L 387.39 386.94 L 388.86 387.12 L 390.33 386.55 L 391.81 385.90 L 393.28 385.60 L 394.75 386.07 L 396.22 385.77 L 397.69 386.22 L 399.17 385.59 L 400.64 386.29 L 402.11 385.58 L 403.58 384.88 L 405.06 384.36 L 406.53 384.68 L 408.00 384.70 L 409.47 385.17 L 410.94 384.24 L 412.42 389.42 L 413.89 390.36 L 415.36 389.99 L 416.83 387.99 L 418.31 386.53 L 421.25 381.43 L 422.72 381.09 L 424.19 385.47 L 425.67 383.56 L 427.14 385.47 L 428.61 384.71 L 430.08 386.44 L 431.56 385.32 L 433.03 384.32 L 434.50 384.10 L 435.97 386.76 L 437.44 386.27 L 438.92 387.42 L 440.39 387.86 L 441.86 387.82 L 443.33 388.24 L 444.81 389.08 L 446.28 388.83 L 447.75 387.43 L 449.22 391.09 L 450.69 391.70 L 452.17 390.49 L 453.64 390.56 L 455.11 390.61 L 456.58 390.71 L 458.06 390.57 L 459.53 390.07 L 461.00 390.12 L 462.47 389.25 L 463.94 387.15 L 465.42 389.42 L 466.89 382.23 L 471.31 383.69 L 472.78 383.31 L 474.25 384.01 L 475.72 382.76 L 477.19 381.69 L 478.67 382.18 L 480.14 382.37 L 481.61 383.30 L 483.08 382.60 L 484.56 382.00 L 655.33 463.35 L 656.81 457.19 L 658.28 462.59 L 659.75 455.03 L 661.22 450.48 L 662.69 450.18 L 664.17 450.27 L 665.64 450.21 L 667.11 450.20 L 668.58 450.19 L 670.06 450.19 L 671.53 450.20 L 673.00 450.19 L 674.47 450.19 L 675.94 450.19 L 677.42 450.19 L 678.89 450.18 L 680.36 450.19 L 681.83 450.19 L 683.31 450.18 L 684.78 450.19 L 686.25 450.18 L 687.72 450.19 L 689.19 450.18 L 690.67 450.19 L 692.14 450.18 L 693.61 450.18 L 695.08 450.19 L 696.56 450.18 L 698.03 450.17 L 699.50 450.19 L 700.97 450.17 L 702.44 450.19 L 703.92 450.18 L 705.39 450.18 L 706.86 450.18 L 708.33 450.19 L 709.81 450.19 L 711.28 450.19 L 712.75 450.18 L 714.22 450.17 L 715.69 450.17 L 717.17 450.17 L 718.64 450.15 L 720.11 450.16 L 721.58 450.17 L 723.06 450.16 L 724.53 450.16 L 726.00 450.15 L 727.47 450.16 L 728.94 450.16 L 730.42 450.16 L 731.89 450.15" stroke="#6A1B9A" />
<line x1="900.00" y1="307.75" x2="918.00" y2="307.75" stroke="#2E7D32" stroke-width="3" />
<text class="small" x="924.00" y="311.75">pitch</text>
<line x1="900.00" y1="323.75" x2="918.00" y2="323.75" stroke="#6A1B9A" stroke-width="3" />
<text class="small" x="924.00" y="327.75">roll</text>
<text x="90" y="500.50" font-size="14" font-weight="700">Aceleração (magnitude) (u.a.)</text>
<rect class="event" x="443.33" y="506.50" width="23.56" height="192.75" />
<line class="eventline" x1="443.33" y1="506.50" x2="443.33" y2="699.25" />
<line class="eventline" x1="466.89" y1="506.50" x2="466.89" y2="699.25" />
<line class="grid" x1="90" y1="699.25" x2="1150" y2="699.25" />
<text class="small" x="80" y="703.25" text-anchor="end">0.00</text>
<line class="grid" x1="90" y1="660.70" x2="1150" y2="660.70" />
<text class="small" x="80" y="664.70" text-anchor="end">0.50</text>
<line class="grid" x1="90" y1="622.15" x2="1150" y2="622.15" />
<text class="small" x="80" y="626.15" text-anchor="end">1.00</text>
<line class="grid" x1="90" y1="583.60" x2="1150" y2="583.60" />
<text class="small" x="80" y="587.60" text-anchor="end">1.50</text>
<line class="grid" x1="90" y1="545.05" x2="1150" y2="545.05" />
<text class="small" x="80" y="549.05" text-anchor="end">2.00</text>
<line class="grid" x1="90" y1="506.50" x2="1150" y2="506.50" />
<text class="small" x="80" y="510.50" text-anchor="end">2.50</text>
<line class="grid" x1="90.00" y1="506.50" x2="90.00" y2="699.25" />
<line class="grid" x1="266.67" y1="506.50" x2="266.67" y2="699.25" />
<line class="grid" x1="443.33" y1="506.50" x2="443.33" y2="699.25" />
<line class="grid" x1="620.00" y1="506.50" x2="620.00" y2="699.25" />
<line class="grid" x1="796.67" y1="506.50" x2="796.67" y2="699.25" />
<line class="grid" x1="973.33" y1="506.50" x2="973.33" y2="699.25" />
<line class="grid" x1="1150.00" y1="506.50" x2="1150.00" y2="699.25" />
<line class="axis" x1="90" y1="506.50" x2="90" y2="699.25" />
<line class="axis" x1="90" y1="699.25" x2="1150" y2="699.25" />
<path class="series" d="M 356.47 642.01 L 357.94 628.05 L 359.42 620.33 L 360.89 610.69 L 362.36 657.87 L 363.83 606.65 L 365.31 616.88 L 366.78 671.86 L 368.25 670.77 L 369.72 688.02 L 371.19 687.87 L 372.67 696.96 L 374.14 696.81 L 375.61 697.05 L 377.08 692.87 L 378.56 694.48 L 380.03 697.39 L 381.50 691.47 L 382.97 688.78 L 384.44 695.20 L 385.92 696.82 L 387.39 697.25 L 388.86 697.50 L 390.33 696.34 L 391.81 697.58 L 393.28 696.48 L 394.75 697.12 L 396.22 696.86 L 397.69 696.57 L 399.17 697.41 L 400.64 696.45 L 402.11 695.49 L 403.58 696.95 L 405.06 697.55 L 406.53 696.52 L 408.00 697.76 L 409.47 695.84 L 410.94 676.95 L 412.42 589.61 L 413.89 616.61 L 415.36 626.42 L 416.83 588.49 L 418.31 601.58 L 421.25 587.17 L 422.72 579.41 L 424.19 598.92 L 425.67 597.68 L 427.14 609.07 L 428.61 614.83 L 430.08 614.06 L 431.56 670.43 L 433.03 645.89 L 434.50 652.80 L 435.97 647.12 L 437.44 671.90 L 438.92 695.33 L 440.39 694.79 L 441.86 697.45 L 443.33 698.08 L 444.81 695.62 L 446.28 696.33 L 447.75 689.12 L 449.22 666.80 L 450.69 686.97 L 452.17 695.85 L 453.64 698.10 L 455.11 698.68 L 456.58 698.60 L 458.06 696.59 L 459.53 698.19 L 461.00 698.50 L 462.47 693.63 L 463.94 666.82 L 465.42 685.04 L 466.89 644.36 L 471.31 685.46 L 472.78 682.88 L 474.25 694.88 L 475.72 694.00 L 477.19 694.97 L 478.67 696.59 L 480.14 694.36 L 481.61 694.36 L 483.08 681.06 L 484.56 664.42 L 655.33 660.18 L 656.81 662.14 L 658.28 672.80 L 659.75 690.70 L 661.22 693.11 L 662.69 697.95 L 664.17 698.36 L 665.64 698.58 L 667.11 698.47 L 668.58 698.48 L 670.06 698.55 L 671.53 698.44 L 673.00 698.42 L 674.47 698.39 L 675.94 698.61 L 677.42 699.11 L 678.89 699.10 L 680.36 699.13 L 681.83 699.12 L 683.31 699.12 L 684.78 699.12 L 686.25 699.17 L 687.72 699.21 L 689.19 699.22 L 690.67 699.16 L 692.14 699.15 L 693.61 699.06 L 695.08 699.12 L 696.56 699.12 L 698.03 699.12 L 699.50 699.11 L 700.97 699.00 L 702.44 699.09 L 703.92 698.87 L 705.39 698.98 L 706.86 698.89 L 708.33 698.98 L 709.81 698.97 L 711.28 698.99 L 712.75 699.16 L 714.22 699.11 L 715.69 699.08 L 717.17 698.94 L 718.64 699.06 L 720.11 699.13 L 721.58 698.98 L 723.06 699.09 L 724.53 699.04 L 726.00 699.12 L 727.47 699.21 L 728.94 699.10 L 730.42 699.22 L 731.89 699.12" stroke="#FB8C00" />
<text x="90" y="711.25" font-size="14" font-weight="700">Giroscópio (magnitude) (u.a.)</text>
<rect class="event" x="443.33" y="717.25" width="23.56" height="192.75" />
<line class="eventline" x1="443.33" y1="717.25" x2="443.33" y2="910.00" />
<line class="eventline" x1="466.89" y1="717.25" x2="466.89" y2="910.00" />
<line class="grid" x1="90" y1="910.00" x2="1150" y2="910.00" />
<text class="small" x="80" y="914.00" text-anchor="end">0.00</text>
<line class="grid" x1="90" y1="871.45" x2="1150" y2="871.45" />
<text class="small" x="80" y="875.45" text-anchor="end">0.50</text>
<line class="grid" x1="90" y1="832.90" x2="1150" y2="832.90" />
<text class="small" x="80" y="836.90" text-anchor="end">1.00</text>
<line class="grid" x1="90" y1="794.35" x2="1150" y2="794.35" />
<text class="small" x="80" y="798.35" text-anchor="end">1.50</text>
<line class="grid" x1="90" y1="755.80" x2="1150" y2="755.80" />
<text class="small" x="80" y="759.80" text-anchor="end">2.00</text>
<line class="grid" x1="90" y1="717.25" x2="1150" y2="717.25" />
<text class="small" x="80" y="721.25" text-anchor="end">2.50</text>
<line class="grid" x1="90.00" y1="717.25" x2="90.00" y2="910.00" />
<line class="grid" x1="266.67" y1="717.25" x2="266.67" y2="910.00" />
<line class="grid" x1="443.33" y1="717.25" x2="443.33" y2="910.00" />
<line class="grid" x1="620.00" y1="717.25" x2="620.00" y2="910.00" />
<line class="grid" x1="796.67" y1="717.25" x2="796.67" y2="910.00" />
<line class="grid" x1="973.33" y1="717.25" x2="973.33" y2="910.00" />
<line class="grid" x1="1150.00" y1="717.25" x2="1150.00" y2="910.00" />
<line class="axis" x1="90" y1="717.25" x2="90" y2="910.00" />
<line class="axis" x1="90" y1="910.00" x2="1150" y2="910.00" />
<path class="series" d="M 356.47 850.20 L 357.94 865.27 L 359.42 900.26 L 360.89 887.43 L 362.36 899.04 L 363.83 874.90 L 365.31 803.76 L 366.78 896.97 L 368.25 896.11 L 369.72 899.19 L 371.19 902.21 L 372.67 905.36 L 374.14 906.38 L 375.61 908.53 L 377.08 904.33 L 378.56 903.22 L 380.03 907.58 L 381.50 904.72 L 382.97 902.82 L 384.44 905.24 L 385.92 908.83 L 387.39 907.32 L 388.86 909.38 L 390.33 907.00 L 391.81 908.49 L 393.28 908.56 L 394.75 909.34 L 396.22 908.86 L 397.69 908.49 L 399.17 909.29 L 400.64 908.35 L 402.11 907.29 L 403.58 908.49 L 405.06 908.42 L 406.53 906.56 L 408.00 905.94 L 409.47 904.88 L 410.94 899.29 L 412.42 891.68 L 413.89 904.32 L 415.36 898.31 L 416.83 898.42 L 418.31 877.42 L 421.25 871.03 L 422.72 880.53 L 424.19 877.47 L 425.67 904.99 L 427.14 877.81 L 428.61 899.71 L 430.08 894.81 L 431.56 889.87 L 433.03 888.20 L 434.50 883.96 L 435.97 870.76 L 437.44 907.37 L 438.92 904.79 L 440.39 904.11 L 441.86 907.74 L 443.33 907.05 L 444.81 907.34 L 446.28 907.18 L 447.75 902.43 L 449.22 888.64 L 450.69 906.69 L 452.17 907.88 L 453.64 907.78 L 455.11 909.49 L 456.58 908.84 L 458.06 908.38 L 459.53 908.95 L 461.00 907.51 L 462.47 890.28 L 463.94 888.85 L 465.42 905.21 L 466.89 824.81 L 471.31 893.19 L 472.78 903.43 L 474.25 907.07 L 475.72 906.33 L 477.19 909.26 L 478.67 907.70 L 480.14 900.87 L 481.61 900.87 L 483.08 893.35 L 484.56 870.42 L 655.33 800.57 L 656.81 861.24 L 658.28 793.39 L 659.75 868.16 L 661.22 903.68 L 662.69 907.46 L 664.17 906.97 L 665.64 908.78 L 667.11 909.81 L 668.58 909.82 L 670.06 909.83 L 671.53 909.83 L 673.00 909.83 L 674.47 909.83 L 675.94 909.95 L 677.42 909.99 L 678.89 909.99 L 680.36 909.99 L 681.83 909.99 L 683.31 909.98 L 684.78 909.98 L 686.25 909.99 L 687.72 909.98 L 689.19 909.99 L 690.67 909.99 L 692.14 909.99 L 693.61 909.98 L 695.08 909.98 L 696.56 909.98 L 698.03 909.98 L 699.50 909.97 L 700.97 909.98 L 702.44 909.96 L 703.92 909.97 L 705.39 909.98 L 706.86 909.97 L 708.33 909.97 L 709.81 909.97 L 711.28 909.96 L 712.75 909.97 L 714.22 909.92 L 715.69 909.96 L 717.17 909.97 L 718.64 909.97 L 720.11 909.95 L 721.58 909.96 L 723.06 909.98 L 724.53 909.99 L 726.00 909.98 L 727.47 909.98 L 728.94 909.99 L 730.42 909.98 L 731.89 909.99" stroke="#E53935" />
<text x="620.00" y="952" font-size="15" text-anchor="middle">minutos (relativo ao início do evento)</text>
<text class="small" x="90.00" y="936" text-anchor="middle">-4.00</text>
<text class="small" x="266.67" y="936" text-anchor="middle">-2.00</text>
<text class="small" x="443.33" y="936" text-anchor="middle">0.00</text>
<text class="small" x="620.00" y="936" text-anchor="middle">2.00</text>
<text class="small" x="796.67" y="936" text-anchor="middle">4.00</text>
<text class="small" x="973.33" y="936" text-anchor="middle">6.00</text>
<text class="small" x="1150.00" y="936" text-anchor="middle">8.00</text>
</svg>