<?xml version="1.0" encoding="UTF-8"?>
<svg xmlns="http://www.w3.org/2000/svg" width="1180" height="980" viewBox="0 0 1180 980">
<style>
text { font-family: -apple-system, BlinkMacSystemFont, 'Segoe UI', Roboto, Helvetica, Arial, sans-serif; fill: #111; }
.small { font-size: 12px; fill: #222; }
.title { font-size: 18px; font-weight: 700; }
.axis { stroke: #111; stroke-width: 1.4; }
.grid { stroke: #E6E6E6; stroke-width: 1; }
.event { fill: #FFEB3B; fill-opacity: 0.18; }
.eventline { stroke: #F9A825; stroke-width: 1.2; stroke-dasharray: 4 3; }
.series { fill: none; stroke-width: 1.8; }
</style>
<text class="title" x="90" y="34">ciclo 1 — basculamento — 2025-12-12T13:35:33-03:00 → 2025-12-12T13:37:30-03:00 (span 117s, dur 98s)</text>
<text class="small" x="90" y="54">GPS: -11.693859,-47.165799  hotspot: -11.694,-47.166</text>
<text class="small" x="90" y="70">Janela: -3.00 → 4.95 min (relativo ao início do evento)</text>
<text x="90" y="79.00" font-size="14" font-weight="700">Velocidade (km/h)</text>
<rect class="event" x="443.33" y="85.00" width="172.25" height="192.75" />
<line class="eventline" x1="443.33" y1="85.00" x2="443.33" y2="277.75" />
<line class="eventline" x1="615.58" y1="85.00" x2="615.58" y2="277.75" />
<line class="grid" x1="90" y1="277.75" x2="1150" y2="277.75" />
<text class="small" x="80" y="281.75" text-anchor="end">0.00</text>
<line class="grid" x1="90" y1="239.20" x2="1150" y2="239.20" />
<text class="small" x="80" y="243.20" text-anchor="end">10.0</text>
<line class="grid" x1="90" y1="200.65" x2="1150" y2="200.65" />
<text class="small" x="80" y="204.65" text-anchor="end">20.0</text>
<line class="grid" x1="90" y1="162.10" x2="1150" y2="162.10" />
<text class="small" x="80" y="166.10" text-anchor="end">30.0</text>
<line class="grid" x1="90" y1="123.55" x2="1150" y2="123.55" />
<text class="small" x="80" y="127.55" text-anchor="end">40.0</text>
<line class="grid" x1="90" y1="85.00" x2="1150" y2="85.00" />
<text class="small" x="80" y="89.00" text-anchor="end">50.0</text>
<line class="grid" x1="90.00" y1="85.00" x2="90.00" y2="277.75" />
<line class="grid" x1="266.67" y1="85.00" x2="266.67" y2="277.75" />
<line class="grid" x1="443.33" y1="85.00" x2="443.33" y2="277.75" />
<line class="grid" x1="620.00" y1="85.00" x2="620.00" y2="277.75" />
<line class="grid" x1="796.67" y1="85.00" x2="796.67" y2="277.75" />
<line class="grid" x1="973.33" y1="85.00" x2="973.33" y2="277.75" />
<line class="grid" x1="1150.00" y1="85.00" x2="1150.00" y2="277.75" />
<line class="axis" x1="90" y1="85.00" x2="90" y2="277.75" />
<line class="axis" x1="90" y1="277.75" x2="1150" y2="277.75" />
<path class="series" d="M 178.33 243.47 L 179.81 245.00 L 181.28 244.44 L 182.75 244.30 L 184.22 246.52 L 185.69 245.41 L 187.17 245.97 L 188.64 243.61 L 190.11 244.17 L 191.58 243.19 L 193.06 243.47 L 194.53 243.47 L 196.00 245.41 L 197.47 246.39 L 198.94 246.25 L 200.42 247.36 L 201.89 247.36 L 203.36 247.22 L 204.83 245.41 L 206.31 245.14 L 207.78 244.72 L 209.25 245.55 L 210.72 245.41 L 212.19 242.64 L 213.67 243.61 L 215.14 242.22 L 216.61 242.64 L 218.08 243.89 L 219.56 243.06 L 221.03 243.19 L 222.50 244.03 L 223.97 244.17 L 225.44 244.58 L 226.92 243.61 L 228.39 243.33 L 229.86 244.86 L 231.33 245.28 L 232.81 245.14 L 234.28 245.28 L 235.75 244.44 L 237.22 243.89 L 238.69 243.33 L 240.17 245.00 L 241.64 245.97 L 243.11 245.28 L 244.58 245.14 L 246.06 242.78 L 247.53 240.70 L 249.00 241.11 L 250.47 240.83 L 251.94 240.42 L 253.42 239.59 L 254.89 240.97 L 256.36 242.22 L 257.83 236.53 L 259.31 228.76 L 260.78 221.13 L 262.25 222.65 L 263.72 226.96 L 265.19 227.65 L 266.67 231.68 L 268.14 236.12 L 269.61 239.03 L 271.08 242.08 L 272.56 251.52 L 274.03 253.88 L 275.50 253.74 L 276.97 259.57 L 278.44 259.71 L 279.92 256.66 L 281.39 257.77 L 282.86 256.93 L 284.33 255.82 L 285.81 253.88 L 287.28 254.57 L 288.75 258.88 L 290.22 259.29 L 291.69 260.12 L 293.17 257.77 L 294.64 252.91 L 296.11 255.27 L 297.58 260.40 L 299.06 258.18 L 300.53 260.26 L 302.00 257.77 L 303.47 251.52 L 304.94 249.99 L 306.42 246.39 L 307.89 246.11 L 309.36 242.22 L 310.83 245.41 L 312.31 244.86 L 313.78 240.00 L 315.25 235.28 L 316.72 239.45 L 318.19 239.03 L 319.67 238.48 L 321.14 241.39 L 322.61 245.28 L 324.08 243.75 L 325.56 246.52 L 327.03 242.08 L 328.50 236.95 L 329.97 235.42 L 331.44 237.92 L 332.92 240.28 L 334.39 240.83 L 335.86 239.45 L 337.33 239.17 L 338.81 242.50 L 340.28 241.11 L 341.75 243.06 L 343.22 246.25 L 344.69 246.39 L 346.17 246.39 L 347.64 247.91 L 349.11 245.69 L 350.58 245.41 L 352.06 245.00 L 353.53 245.00 L 355.00 259.57 L 356.47 257.77 L 357.94 259.29 L 359.42 258.46 L 360.89 261.79 L 362.36 258.46 L 363.83 258.32 L 365.31 268.73 L 366.78 251.94 L 368.25 255.55 L 369.72 258.04 L 371.19 254.99 L 372.67 255.41 L 374.14 257.77 L 375.61 256.79 L 377.08 256.38 L 378.56 258.46 L 380.03 257.90 L 381.50 255.55 L 382.97 254.99 L 384.44 256.38 L 385.92 259.01 L 387.39 270.95 L 388.86 277.75 L 390.33 277.75 L 391.81 277.75 L 393.28 277.75 L 394.75 271.09 L 396.22 270.12 L 397.69 270.12 L 399.17 268.04 L 400.64 267.06 L 402.11 267.90 L 403.58 268.73 L 405.06 267.90 L 406.53 267.20 L 408.00 269.28 L 409.47 269.98 L 410.94 270.39 L 412.42 269.42 L 413.89 269.84 L 415.36 271.09 L 416.83 271.50 L 418.31 269.70 L 419.78 269.01 L 421.25 269.84 L 422.72 271.92 L 424.19 272.34 L 425.67 273.31 L 427.14 273.31 L 428.61 271.23 L 430.08 273.03 L 431.56 274.56 L 433.03 274.70 L 434.50 274.97 L 435.97 277.75 L 437.44 277.75 L 438.92 277.75 L 440.39 274.84 L 441.86 271.78 L 443.33 277.75 L 444.81 277.75 L 446.28 277.75 L 447.75 277.75 L 449.22 277.75 L 450.69 277.75 L 452.17 277.75 L 453.64 277.75 L 455.11 277.75 L 456.58 277.75 L 458.06 277.75 L 459.53 277.75 L 461.00 277.75 L 462.47 277.75 L 463.94 277.75 L 465.42 277.75 L 466.89 277.75 L 468.36 277.75 L 469.83 277.75 L 471.31 277.75 L 472.78 277.75 L 474.25 277.75 L 475.72 277.75 L 477.19 277.75 L 478.67 277.75 L 480.14 277.75 L 481.61 277.75 L 483.08 277.75 L 484.56 277.75 L 486.03 277.75 L 487.50 277.75 L 488.97 277.75 L 490.44 277.75 L 491.92 277.75 L 493.39 277.75 L 494.86 277.75 L 496.33 277.75 L 497.81 277.75 L 499.28 277.75 L 500.75 277.75 L 502.22 277.75 L 503.69 277.75 L 505.17 277.75 L 506.64 277.75 L 508.11 277.75 L 509.58 277.75 L 511.06 277.75 L 512.53 277.75 L 514.00 277.75 L 515.47 277.75 L 516.94 277.75 L 518.42 277.75 L 519.89 277.75 L 521.36 277.75 L 522.83 277.75 L 524.31 274.56 L 525.78 277.75 L 527.25 272.20 L 528.72 270.95 L 530.19 277.75 L 531.67 277.75 L 533.14 277.75 L 534.61 277.75 L 536.08 277.75 L 537.56 277.75 L 539.03 277.75 L 540.50 277.75 L 541.97 277.75 L 543.44 277.75 L 544.92 277.75 L 546.39 277.75 L 547.86 277.75 L 549.33 277.75 L 550.81 274.28 L 552.28 270.67 L 553.75 270.81 L 555.22 273.45 L 556.69 272.34 L 558.17 272.48 L 559.64 274.84 L 561.11 274.28 L 562.58 275.53 L 564.06 271.50 L 565.53 269.15 L 567.00 270.81 L 568.47 272.20 L 569.94 270.81 L 571.42 267.76 L 572.89 269.98 L 574.36 277.75 L 575.83 277.75 L 577.31 277.75 L 578.78 277.75 L 580.25 277.75 L 581.72 277.75 L 583.19 277.75 L 584.67 277.75 L 586.14 277.75 L 587.61 277.75 L 589.08 277.75 L 590.56 277.75 L 592.03 277.75 L 593.50 277.75 L 594.97 277.75 L 596.44 277.75 L 597.92 277.75 L 599.39 277.75 L 600.86 277.75 L 602.33 277.75 L 603.81 277.75 L 605.28 277.75 L 606.75 277.75 L 608.22 277.75 L 609.69 277.75 L 611.17 277.75 L 612.64 277.75 L 614.11 277.75 L 615.58 277.75 L 617.06 270.95 L 618.53 265.40 L 620.00 261.93 L 621.47 259.15 L 622.94 251.80 L 624.42 248.47 L 625.89 250.41 L 627.36 247.77 L 628.83 245.00 L 630.31 246.80 L 631.78 246.39 L 633.25 240.83 L 634.72 245.00 L 636.19 242.92 L 637.67 241.53 L 639.14 242.92 L 640.61 246.39 L 642.08 241.67 L 643.56 237.64 L 645.03 242.36 L 646.50 243.75 L 647.97 240.28 L 649.44 231.81 L 650.92 238.61 L 652.39 225.57 L 653.86 225.15 L 655.33 223.90 L 656.81 219.88 L 658.28 221.96 L 659.75 222.24 L 661.22 220.99 L 662.69 216.27 L 664.17 215.99 L 665.64 214.19 L 667.11 211.14 L 668.58 211.83 L 670.06 212.94 L 671.53 205.72 L 673.00 204.06 L 674.47 194.34 L 675.94 210.58 L 677.42 216.27 L 678.89 210.86 L 680.36 208.50 L 681.83 201.98 L 683.31 201.14 L 684.78 202.25 L 686.25 198.65 L 687.72 192.96 L 689.19 186.43 L 690.67 192.82 L 692.14 186.43 L 693.61 190.04 L 695.08 195.31 L 696.56 200.59 L 698.03 201.56 L 699.50 208.78 L 700.97 202.81 L 702.44 198.09 L 703.92 193.79 L 705.39 189.90 L 706.86 183.10 L 708.33 183.52 L 709.81 174.91 L 711.28 179.77 L 712.75 176.02 L 714.22 173.25 L 715.69 177.13 L 717.17 171.31 L 718.64 170.75 L 720.11 176.16 L 721.58 178.66 L 723.06 183.52 L 724.53 185.74 L 726.00 182.82 L 727.47 176.72 L 728.94 174.50 L 730.42 173.53 L 731.89 172.28 L 733.36 172.55 L 734.83 172.14 L 736.31 170.20 L 737.78 167.56 L 739.25 171.31 L 740.72 171.72 L 742.19 170.89 L 743.67 166.31 L 745.14 166.31 L 746.61 165.75 L 748.08 163.40 L 749.56 164.64 L 751.03 164.78 L 752.50 166.17 L 753.97 165.62 L 755.44 164.64 L 756.92 167.28 L 758.39 165.48 L 759.86 167.00 L 761.33 164.92 L 762.81 165.62 L 764.28 167.28 L 765.75 166.31 L 767.22 166.31 L 768.69 165.89 L 770.17 163.67 L 771.64 163.53 L 773.11 163.81 L 774.58 163.95 L 776.06 166.86 L 777.53 165.62 L 779.00 163.95 L 780.47 163.95 L 781.94 158.54 L 783.42 155.90 L 784.89 156.18 L 786.36 156.18 L 787.83 154.51 L 789.31 157.57 L 790.78 154.24 L 792.25 153.54 L 793.72 152.43 L 795.19 151.18 L 796.67 150.63 L 798.14 150.63 L 799.61 155.62 L 801.08 158.40 L 802.56 163.12 L 804.03 159.09 L 805.50 169.22 L 806.97 175.33 L 808.44 169.36 L 809.92 181.44 L 811.39 180.19 L 812.86 189.35 L 814.33 191.85 L 815.81 189.35 L 817.28 196.29 L 818.75 194.90 L 820.22 194.62 L 821.69 195.04 L 823.17 190.18 L 824.64 181.44 L 826.11 180.74 L 827.58 176.58 L 829.06 174.36 L 830.53 170.47 L 832.00 166.73 L 833.47 163.12 L 834.94 160.48 L 836.42 160.34 L 837.89 158.26 L 839.36 160.34 L 840.83 156.04 L 842.31 154.51 L 843.78 151.74 L 845.25 152.02 L 846.72 152.43 L 848.19 153.82 L 849.67 148.55 L 851.14 148.96 L 852.61 146.05 L 854.08 143.97 L 855.56 138.41 L 857.03 132.86 L 858.50 137.30 L 859.97 146.88 L 861.44 168.39 L 862.92 159.51 L 864.39 170.33 L 865.86 168.67 L 867.33 163.67 L 868.81 164.23 L 870.28 164.23 L 871.75 157.71 L 873.22 156.73 L 874.69 156.73 L 876.17 157.71 L 877.64 157.71 L 879.11 163.40 L 880.58 165.34" stroke="#1976D2" />
<text x="90" y="289.75" font-size="14" font-weight="700">Inclinação (graus)</text>
<rect class="event" x="443.33" y="295.75" width="172.25" height="192.75" />
<line class="eventline" x1="443.33" y1="295.75" x2="443.33" y2="488.50" />
<line class="eventline" x1="615.58" y1="295.75" x2="615.58" y2="488.50" />
<line class="grid" x1="90" y1="488.50" x2="1150" y2="488.50" />
<text class="small" x="80" y="492.50" text-anchor="end">-20.0</text>
<line class="grid" x1="90" y1="449.95" x2="1150" y2="449.95" />
<text class="small" x="80" y="453.95" text-anchor="end">-10.0</text>
<line class="grid" x1="90" y1="411.40" x2="1150" y2="411.40" />
<text class="small" x="80" y="415.40" text-anchor="end">0.00</text>
<line class="grid" x1="90" y1="372.85" x2="1150" y2="372.85" />
<text class="small" x="80" y="376.85" text-anchor="end">10.0</text>
<line class="grid" x1="90" y1="334.30" x2="1150" y2="334.30" />
<text class="small" x="80" y="338.30" text-anchor="end">20.0</text>
<line class="grid" x1="90" y1="295.75" x2="1150" y2="295.75" />
<text class="small" x="80" y="299.75" text-anchor="end">30.0</text>
<line class="grid" x1="90.00" y1="295.75" x2="90.00" y2="488.50" />
<line class="grid" x1="266.67" y1="295.75" x2="266.67" y2="488.50" />
<line class="grid" x1="443.33" y1="295.75" x2="443.33" y2="488.50" />
<line class="grid" x1="620.00" y1="295.75" x2="620.00" y2="488.50" />
<line class="grid" x1="796.67" y1="295.75" x2="796.67" y2="488.50" />
<line class="grid" x1="973.33" y1="295.75" x2="973.33" y2="488.50" />
<line class="grid" x1="1150.00" y1="295.75" x2="1150.00" y2="488.50" />
<line class="axis" x1="90" y1="295.75" x2="90" y2="488.50" />
<line class="axis" x1="90" y1="488.50" x2="1150" y2="488.50" />
<path class="series" d="M 178.33 390.34 L 179.81 387.62 L 181.28 386.05 L 182.75 386.23 L 184.22 384.68 L 185.69 388.36 L 187.17 388.50 L 188.64 389.10 L 190.11 388.79 L 191.58 390.45 L 193.06 391.97 L 194.53 393.28 L 196.00 395.40 L 197.47 396.59 L 198.94 397.49 L 200.42 396.44 L 201.89 395.09 L 203.36 395.00 L 204.83 394.38 L 206.31 392.53 L 207.78 392.26 L 209.25 391.46 L 210.72 392.27 L 212.19 390.70 L 213.67 391.35 L 215.14 390.10 L 216.61 388.37 L 218.08 388.24 L 219.56 387.28 L 221.03 390.08 L 222.50 391.05 L 223.97 392.65 L 225.44 393.77 L 226.92 394.48 L 228.39 394.51 L 229.86 395.67 L 231.33 393.76 L 232.81 395.33 L 234.28 392.94 L 235.75 395.37 L 237.22 390.53 L 238.69 383.89 L 240.17 384.20 L 241.64 391.32 L 243.11 389.77 L 244.58 385.34 L 246.06 386.02 L 247.53 377.11 L 249.00 374.54 L 250.47 370.44 L 251.94 366.97 L 253.42 362.78 L 254.89 367.65 L 256.36 376.65 L 257.83 378.29 L 259.31 375.22 L 260.78 367.14 L 262.25 363.86 L 263.72 360.99 L 265.19 364.20 L 266.67 362.26 L 268.14 362.75 L 269.61 367.92 L 271.08 359.17 L 272.56 372.74 L 274.03 367.64 L 275.50 364.89 L 276.97 369.87 L 278.44 377.05 L 279.92 370.69 L 281.39 374.65 L 282.86 373.18 L 284.33 378.03 L 285.81 374.88 L 287.28 371.83 L 288.75 376.47 L 290.22 373.65 L 291.69 379.81 L 293.17 383.45 L 294.64 371.44 L 296.11 363.37 L 297.58 379.74 L 299.06 362.99 L 300.53 378.27 L 302.00 375.09 L 303.47 370.06 L 304.94 368.47 L 306.42 370.69 L 307.89 380.13 L 309.36 376.47 L 310.83 377.82 L 312.31 390.50 L 313.78 388.84 L 315.25 386.22 L 316.72 385.63 L 318.19 383.78 L 319.67 383.33 L 321.14 380.96 L 322.61 391.32 L 324.08 389.02 L 325.56 388.00 L 327.03 390.11 L 328.50 388.88 L 329.97 384.04 L 331.44 381.85 L 332.92 384.60 L 334.39 383.71 L 335.86 380.47 L 337.33 376.52 L 338.81 378.71 L 340.28 378.71 L 341.75 372.92 L 343.22 372.15 L 344.69 364.98 L 346.17 357.64 L 347.64 349.92 L 349.11 363.25 L 350.58 356.49 L 352.06 344.75 L 353.53 350.86 L 355.00 342.22 L 356.47 358.82 L 357.94 347.81 L 359.42 359.42 L 360.89 352.48 L 362.36 366.39 L 363.83 359.85 L 365.31 371.46 L 366.78 358.37 L 368.25 354.21 L 369.72 363.03 L 371.19 370.17 L 372.67 358.73 L 374.14 355.13 L 375.61 364.47 L 377.08 357.21 L 378.56 357.99 L 380.03 366.65 L 381.50 366.26 L 382.97 366.90 L 384.44 360.18 L 385.92 352.85 L 387.39 358.62 L 388.86 368.02 L 390.33 369.84 L 391.81 368.47 L 393.28 364.39 L 394.75 365.14 L 396.22 372.34 L 397.69 363.14 L 399.17 367.93 L 400.64 370.28 L 402.11 374.05 L 403.58 368.22 L 405.06 369.73 L 406.53 372.83 L 408.00 372.08 L 409.47 370.76 L 410.94 371.40 L 412.42 370.10 L 413.89 371.05 L 415.36 371.63 L 416.83 367.93 L 418.31 369.51 L 419.78 371.23 L 421.25 376.09 L 422.72 369.04 L 424.19 371.36 L 425.67 368.07 L 427.14 364.64 L 428.61 369.85 L 430.08 371.54 L 431.56 369.41 L 433.03 365.31 L 434.50 377.29 L 435.97 369.63 L 437.44 368.03 L 438.92 371.72 L 440.39 375.10 L 441.86 361.40 L 443.33 368.59 L 444.81 368.26 L 446.28 368.40 L 447.75 368.88 L 449.22 368.83 L 450.69 368.88 L 452.17 368.81 L 453.64 368.83 L 455.11 368.83 L 456.58 368.92 L 458.06 368.94 L 459.53 369.02 L 461.00 369.07 L 462.47 369.04 L 463.94 369.25 L 465.42 369.25 L 466.89 369.91 L 468.36 368.67 L 469.83 369.10 L 471.31 369.06 L 472.78 369.39 L 474.25 368.38 L 475.72 369.82 L 477.19 369.37 L 478.67 369.63 L 480.14 369.28 L 481.61 369.35 L 483.08 369.74 L 484.56 369.64 L 486.03 369.52 L 487.50 370.55 L 488.97 369.56 L 490.44 370.14 L 491.92 370.19 L 493.39 371.11 L 494.86 369.81 L 496.33 370.93 L 497.81 370.95 L 499.28 371.37 L 500.75 371.38 L 502.22 371.60 L 503.69 371.28 L 505.17 371.16 L 506.64 371.48 L 508.11 371.58 L 509.58 371.64 L 511.06 371.93 L 512.53 372.11 L 514.00 371.99 L 515.47 372.39 L 516.94 372.31 L 518.42 372.39 L 519.89 372.53 L 521.36 372.26 L 522.83 379.92 L 524.31 369.42 L 525.78 385.48 L 527.25 374.74 L 528.72 367.45 L 530.19 377.00 L 531.67 376.37 L 533.14 376.38 L 534.61 375.97 L 536.08 375.80 L 537.56 375.52 L 539.03 375.37 L 540.50 375.56 L 541.97 375.49 L 543.44 375.58 L 544.92 375.48 L 546.39 375.68 L 547.86 375.65 L 549.33 386.76 L 550.81 380.11 L 552.28 376.81 L 553.75 372.73 L 555.22 383.44 L 556.69 383.44 L 558.17 372.07 L 559.64 370.83 L 561.11 379.04 L 562.58 371.11 L 564.06 382.04 L 565.53 373.25 L 567.00 374.43 L 568.47 372.61 L 569.94 385.17 L 571.42 375.16 L 572.89 371.02 L 574.36 368.77 L 575.83 374.27 L 577.31 375.24 L 578.78 375.62 L 580.25 374.88 L 581.72 375.45 L 583.19 374.96 L 584.67 374.81 L 586.14 374.36 L 587.61 374.61 L 589.08 374.46 L 590.56 374.32 L 592.03 374.29 L 593.50 373.93 L 594.97 374.14 L 596.44 374.07 L 597.92 374.10 L 599.39 374.06 L 600.86 374.06 L 602.33 374.02 L 603.81 374.08 L 605.28 374.07 L 606.75 374.04 L 608.22 374.07 L 609.69 374.04 L 611.17 374.09 L 612.64 373.98 L 614.11 374.41 L 615.58 381.34 L 617.06 381.41 L 618.53 380.45 L 620.00 378.95 L 621.47 380.16 L 622.94 388.76 L 624.42 376.02 L 625.89 384.96 L 627.36 378.83 L 628.83 374.41 L 630.31 370.42 L 631.78 382.46 L 633.25 377.17 L 634.72 361.93 L 636.19 365.44 L 637.67 374.49 L 639.14 368.03 L 640.61 377.34 L 642.08 375.77 L 643.56 370.92 L 645.03 364.25 L 646.50 380.32 L 647.97 385.88 L 649.44 380.13 L 650.92 378.86 L 652.39 374.72 L 653.86 369.26 L 655.33 364.81 L 656.81 356.92 L 658.28 352.49 L 659.75 354.55 L 661.22 351.45 L 662.69 349.76 L 664.17 346.71 L 665.64 351.19 L 667.11 353.08 L 668.58 348.31 L 670.06 352.07 L 671.53 363.23 L 673.00 349.93 L 674.47 361.70 L 675.94 359.53 L 677.42 359.41 L 678.89 369.83 L 680.36 373.42 L 681.83 357.87 L 683.31 364.63 L 684.78 374.76 L 686.25 373.36 L 687.72 372.29 L 689.19 364.90 L 690.67 366.00 L 692.14 366.84 L 693.61 366.27 L 695.08 364.09 L 696.56 363.70 L 698.03 356.59 L 699.50 360.62 L 700.97 359.72 L 702.44 358.88 L 703.92 354.74 L 705.39 355.59 L 706.86 356.96 L 708.33 353.79 L 709.81 339.16 L 711.28 354.23 L 712.75 349.65 L 714.22 339.03 L 715.69 349.54 L 717.17 341.82 L 718.64 338.43 L 720.11 343.75 L 721.58 343.76 L 723.06 348.31 L 724.53 350.59 L 726.00 353.93 L 727.47 351.04 L 728.94 346.78 L 730.42 345.71 L 731.89 346.15 L 733.36 351.52 L 734.83 343.92 L 736.31 346.19 L 737.78 341.85 L 739.25 346.01 L 740.72 344.92 L 742.19 354.35 L 743.67 344.00 L 745.14 345.25 L 746.61 344.83 L 748.08 342.56 L 749.56 343.62 L 751.03 344.94 L 752.50 343.62 L 753.97 343.97 L 755.44 349.61 L 756.92 346.37 L 758.39 345.29 L 759.86 344.21 L 761.33 346.56 L 762.81 345.89 L 764.28 345.96 L 765.75 344.03 L 767.22 345.02 L 768.69 344.18 L 770.17 345.60 L 771.64 346.14 L 773.11 346.14 L 774.58 345.71 L 776.06 345.05 L 777.53 348.74 L 779.00 352.35 L 780.47 356.54 L 781.94 350.51 L 783.42 346.02 L 784.89 345.95 L 786.36 344.28 L 787.83 344.26 L 789.31 344.51 L 790.78 344.18 L 792.25 343.95 L 793.72 342.29 L 795.19 344.16 L 796.67 342.85 L 798.14 339.05 L 799.61 343.14 L 801.08 340.27 L 802.56 338.24 L 804.03 343.26 L 805.50 347.18 L 806.97 353.48 L 808.44 350.11 L 809.92 342.35 L 811.39 348.58 L 812.86 348.74 L 814.33 353.53 L 815.81 356.34 L 817.28 357.77 L 818.75 366.06 L 820.22 365.56 L 821.69 371.80 L 823.17 379.62 L 824.64 380.63 L 826.11 379.54 L 827.58 379.65 L 829.06 374.66 L 830.53 382.48 L 832.00 379.78 L 833.47 378.97 L 834.94 375.95 L 836.42 370.82 L 837.89 368.53 L 839.36 367.79 L 840.83 366.76 L 842.31 370.50 L 843.78 368.88 L 845.25 359.36 L 846.72 361.03 L 848.19 360.71 L 849.67 359.58 L 851.14 361.16 L 852.61 362.68 L 854.08 366.94 L 855.56 367.49 L 857.03 364.63 L 858.50 354.53 L 859.97 327.61 L 861.44 346.79 L 862.92 360.67 L 864.39 367.31 L 865.86 371.84 L 867.33 372.58 L 868.81 371.17 L 870.28 369.58 L 871.75 366.39 L 873.22 366.88 L 874.69 361.44 L 876.17 362.91 L 877.64 364.35 L 879.11 369.75 L 880.58 367.46" stroke="#2E7D32" />
<path class="series" d="M 178.33 402.49 L 179.81 402.24 L 181.28 401.14 L 182.75 400.22 L 184.22 399.26 L 185.69 401.38 L 187.17 401.04 L 188.64 406.80 L 190.11 401.63 L 191.58 403.20 L 193.06 402.99 L 194.53 403.37 L 196.00 404.38 L 197.47 403.89 L 198.94 404.51 L 200.42 400.17 L 201.89 401.29 L 203.36 399.85 L 204.83 397.55 L 206.31 399.99 L 207.78 403.88 L 209.25 404.92 L 210.72 403.57 L 212.19 399.76 L 213.67 399.13 L 215.14 399.78 L 216.61 401.30 L 218.08 404.08 L 219.56 401.02 L 221.03 401.49 L 222.50 400.53 L 223.97 402.36 L 225.44 400.65 L 226.92 405.18 L 228.39 405.60 L 229.86 406.15 L 231.33 406.44 L 232.81 410.58 L 234.28 413.72 L 235.75 412.00 L 237.22 407.35 L 238.69 412.56 L 240.17 418.21 L 241.64 412.20 L 243.11 413.19 L 244.58 412.86 L 246.06 411.13 L 247.53 410.94 L 249.00 404.05 L 250.47 402.45 L 251.94 408.73 L 253.42 404.03 L 254.89 407.55 L 256.36 407.22 L 257.83 407.11 L 259.31 406.00 L 260.78 413.56 L 262.25 419.13 L 263.72 415.46 L 265.19 412.98 L 266.67 410.20 L 268.14 400.11 L 269.61 409.29 L 271.08 412.45 L 272.56 406.07 L 274.03 407.37 L 275.50 414.92 L 276.97 417.46 L 278.44 412.70 L 279.92 409.82 L 281.39 411.25 L 282.86 412.50 L 284.33 411.65 L 285.81 415.28 L 287.28 414.70 L 288.75 410.77 L 290.22 410.57 L 291.69 413.04 L 293.17 414.19 L 294.64 410.68 L 296.11 408.32 L 297.58 419.40 L 299.06 413.18 L 300.53 410.48 L 302.00 413.05 L 303.47 411.14 L 304.94 412.58 L 306.42 416.88 L 307.89 414.44 L 309.36 414.47 L 310.83 416.14 L 312.31 417.69 L 313.78 417.75 L 315.25 417.43 L 316.72 422.44 L 318.19 416.47 L 319.67 416.43 L 321.14 404.01 L 322.61 407.54 L 324.08 398.70 L 325.56 408.19 L 327.03 404.68 L 328.50 402.57 L 329.97 404.71 L 331.44 414.14 L 332.92 403.95 L 334.39 403.18 L 335.86 397.33 L 337.33 403.49 L 338.81 393.33 L 340.28 393.33 L 341.75 390.17 L 343.22 389.04 L 344.69 403.48 L 346.17 396.88 L 347.64 398.38 L 349.11 410.24 L 350.58 408.21 L 352.06 409.17 L 353.53 399.49 L 355.00 396.32 L 356.47 401.13 L 357.94 398.71 L 359.42 401.41 L 360.89 396.45 L 362.36 400.07 L 363.83 403.56 L 365.31 401.37 L 366.78 392.62 L 368.25 406.01 L 369.72 410.39 L 371.19 389.85 L 372.67 393.76 L 374.14 405.16 L 375.61 394.24 L 377.08 397.79 L 378.56 405.26 L 380.03 392.10 L 381.50 394.56 L 382.97 396.34 L 384.44 393.76 L 385.92 411.81 L 387.39 411.46 L 388.86 399.99 L 390.33 400.23 L 391.81 406.35 L 393.28 404.86 L 394.75 398.12 L 396.22 401.27 L 397.69 399.37 L 399.17 403.09 L 400.64 402.01 L 402.11 404.76 L 403.58 400.55 L 405.06 401.52 L 406.53 399.78 L 408.00 404.45 L 409.47 404.15 L 410.94 401.68 L 412.42 405.63 L 413.89 407.18 L 415.36 407.74 L 416.83 404.70 L 418.31 406.70 L 419.78 406.91 L 421.25 405.38 L 422.72 404.84 L 424.19 406.64 L 425.67 407.96 L 427.14 409.94 L 428.61 407.77 L 430.08 407.60 L 431.56 406.77 L 433.03 407.42 L 434.50 411.46 L 435.97 410.80 L 437.44 409.80 L 438.92 408.66 L 440.39 407.87 L 441.86 409.28 L 443.33 407.44 L 444.81 406.72 L 446.28 407.52 L 447.75 406.29 L 449.22 408.23 L 450.69 407.85 L 452.17 407.60 L 453.64 407.61 L 455.11 407.06 L 456.58 407.57 L 458.06 407.44 L 459.53 407.67 L 461.00 407.57 L 462.47 407.42 L 463.94 407.71 L 465.42 407.32 L 466.89 408.03 L 468.36 407.14 L 469.83 407.51 L 471.31 407.47 L 472.78 408.16 L 474.25 406.47 L 475.72 407.76 L 477.19 407.39 L 478.67 407.71 L 480.14 407.68 L 481.61 407.41 L 483.08 407.73 L 484.56 407.38 L 486.03 407.34 L 487.50 408.42 L 488.97 407.20 L 490.44 408.31 L 491.92 407.62 L 493.39 407.70 L 494.86 408.33 L 496.33 408.21 L 497.81 408.33 L 499.28 407.15 L 500.75 408.10 L 502.22 408.44 L 503.69 407.68 L 505.17 407.88 L 506.64 408.06 L 508.11 407.98 L 509.58 408.24 L 511.06 407.78 L 512.53 408.00 L 514.00 407.94 L 515.47 407.91 L 516.94 408.02 L 518.42 408.00 L 519.89 408.11 L 521.36 407.88 L 522.83 410.77 L 524.31 405.81 L 525.78 408.37 L 527.25 411.02 L 528.72 408.12 L 530.19 408.46 L 531.67 407.93 L 533.14 408.38 L 534.61 408.16 L 536.08 408.98 L 537.56 408.51 L 539.03 409.09 L 540.50 408.72 L 541.97 408.88 L 543.44 408.87 L 544.92 408.85 L 546.39 408.81 L 547.86 408.74 L 549.33 408.99 L 550.81 406.56 L 552.28 406.38 L 553.75 406.09 L 555.22 404.83 L 556.69 404.83 L 558.17 405.07 L 559.64 405.64 L 561.11 402.06 L 562.58 408.36 L 564.06 401.82 L 565.53 404.32 L 567.00 410.67 L 568.47 406.12 L 569.94 399.78 L 571.42 408.75 L 572.89 410.97 L 574.36 410.47 L 575.83 405.91 L 577.31 406.65 L 578.78 406.34 L 580.25 406.63 L 581.72 407.43 L 583.19 407.05 L 584.67 406.65 L 586.14 407.00 L 587.61 406.89 L 589.08 406.99 L 590.56 406.93 L 592.03 406.97 L 593.50 407.06 L 594.97 407.06 L 596.44 407.07 L 597.92 406.87 L 599.39 407.09 L 600.86 407.13 L 602.33 406.96 L 603.81 407.05 L 605.28 407.05 L 606.75 407.02 L 608.22 407.07 L 609.69 407.09 L 611.17 407.14 L 612.64 407.12 L 614.11 406.74 L 615.58 401.74 L 617.06 401.92 L 618.53 408.62 L 620.00 402.40 L 621.47 405.87 L 622.94 400.31 L 624.42 406.96 L 625.89 407.06 L 627.36 402.02 L 628.83 409.96 L 630.31 414.16 L 631.78 403.76 L 633.25 400.90 L 634.72 405.89 L 636.19 405.50 L 637.67 405.91 L 639.14 411.13 L 640.61 397.65 L 642.08 402.50 L 643.56 394.64 L 645.03 420.61 L 646.50 388.30 L 647.97 404.92 L 649.44 410.22 L 650.92 412.46 L 652.39 413.03 L 653.86 406.18 L 655.33 405.00 L 656.81 412.33 L 658.28 413.06 L 659.75 411.08 L 661.22 412.80 L 662.69 403.48 L 664.17 405.96 L 665.64 401.64 L 667.11 397.96 L 668.58 401.06 L 670.06 402.03 L 671.53 402.23 L 673.00 398.38 L 674.47 396.54 L 675.94 399.50 L 677.42 399.39 L 678.89 398.07 L 680.36 397.30 L 681.83 408.76 L 683.31 412.28 L 684.78 406.95 L 686.25 409.18 L 687.72 412.68 L 689.19 399.53 L 690.67 394.71 L 692.14 411.24 L 693.61 406.92 L 695.08 410.54 L 696.56 410.99 L 698.03 404.45 L 699.50 399.56 L 700.97 401.86 L 702.44 408.24 L 703.92 397.76 L 705.39 405.64 L 706.86 404.02 L 708.33 410.76 L 709.81 411.08 L 711.28 410.57 L 712.75 406.93 L 714.22 413.35 L 715.69 401.56 L 717.17 409.05 L 718.64 407.37 L 720.11 409.56 L 721.58 409.89 L 723.06 416.51 L 724.53 415.62 L 726.00 414.70 L 727.47 413.71 L 728.94 405.41 L 730.42 401.18 L 731.89 412.42 L 733.36 412.73 L 734.83 411.27 L 736.31 415.51 L 737.78 418.19 L 739.25 420.10 L 740.72 416.09 L 742.19 418.44 L 743.67 405.23 L 745.14 407.15 L 746.61 401.90 L 748.08 405.27 L 749.56 409.94 L 751.03 400.01 L 752.50 407.36 L 753.97 404.72 L 755.44 406.42 L 756.92 406.06 L 758.39 414.03 L 759.86 414.93 L 761.33 414.65 L 762.81 416.22 L 764.28 413.34 L 765.75 414.16 L 767.22 411.52 L 768.69 403.36 L 770.17 411.14 L 771.64 408.39 L 773.11 408.39 L 774.58 412.70 L 776.06 412.54 L 777.53 388.34 L 779.00 400.47 L 780.47 408.65 L 781.94 406.70 L 783.42 405.39 L 784.89 400.06 L 786.36 402.35 L 787.83 403.61 L 789.31 399.33 L 790.78 400.39 L 792.25 409.15 L 793.72 413.19 L 795.19 415.67 L 796.67 419.15 L 798.14 421.02 L 799.61 420.88 L 801.08 434.20 L 802.56 430.01 L 804.03 441.40 L 805.50 435.37 L 806.97 428.80 L 808.44 442.23 L 809.92 441.32 L 811.39 438.49 L 812.86 395.55 L 814.33 364.83 L 815.81 361.23 L 817.28 376.93 L 818.75 370.45 L 820.22 377.50 L 821.69 395.68 L 823.17 409.33 L 824.64 410.46 L 826.11 418.76 L 827.58 426.32 L 829.06 425.89 L 830.53 420.98 L 832.00 423.15 L 833.47 423.86 L 834.94 419.01 L 836.42 414.16 L 837.89 407.54 L 839.36 396.04 L 840.83 400.14 L 842.31 410.17 L 843.78 405.65 L 845.25 397.78 L 846.72 395.45 L 848.19 395.54 L 849.67 397.76 L 851.14 397.98 L 852.61 398.51 L 854.08 405.45 L 855.56 404.94 L 857.03 394.88 L 858.50 396.31 L 859.97 398.13 L 861.44 396.68 L 862.92 404.88 L 864.39 410.81 L 865.86 411.40 L 867.33 411.56 L 868.81 411.62 L 870.28 409.22 L 871.75 408.93 L 873.22 408.53 L 874.69 397.98 L 876.17 402.11 L 877.64 403.85 L 879.11 401.47 L 880.58 399.38" stroke="#6A1B9A" />
<line x1="900.00" y1="307.75" x2="918.00" y2="307.75" stroke="#2E7D32" stroke-width="3" />
<text class="small" x="924.00" y="311.75">pitch</text>
<line x1="900.00" y1="323.75" x2="918.00" y2="323.75" stroke="#6A1B9A" stroke-width="3" />
<text class="small" x="924.00" y="327.75">roll</text>
<text x="90" y="500.50" font-size="14" font-weight="700">Aceleração (magnitude) (u.a.)</text>
<rect class="event" x="443.33" y="506.50" width="172.25" height="192.75" />
<line class="eventline" x1="443.33" y1="506.50" x2="443.33" y2="699.25" />
<line class="eventline" x1="615.58" y1="506.50" x2="615.58" y2="699.25" />
<line class="grid" x1="90" y1="699.25" x2="1150" y2="699.25" />
<text class="small" x="80" y="703.25" text-anchor="end">0.00</text>
<line class="grid" x1="90" y1="660.70" x2="1150" y2="660.70" />
<text class="small" x="80" y="664.70" text-anchor="end">0.50</text>
<line class="grid" x1="90" y1="622.15" x2="1150" y2="622.15" />
<text class="small" x="80" y="626.15" text-anchor="end">1.00</text>
<line class="grid" x1="90" y1="583.60" x2="1150" y2="583.60" />
<text class="small" x="80" y="587.60" text-anchor="end">1.50</text>
<line class="grid" x1="90" y1="545.05" x2="1150" y2="545.05" />
<text class="small" x="80" y="549.05" text-anchor="end">2.00</text>
<line class="grid" x1="90" y1="506.50" x2="1150" y2="506.50" />
<text class="small" x="80" y="510.50" text-anchor="end">2.50</text>
<line class="grid" x1="90.00" y1="506.50" x2="90.00" y2="699.25" />
<line class="grid" x1="266.67" y1="506.50" x2="266.67" y2="699.25" />
<line class="grid" x1="443.33" y1="506.50" x2="443.33" y2="699.25" />
<line class="grid" x1="620.00" y1="506.50" x2="620.00" y2="699.25" />
<line class="grid" x1="796.67" y1="506.50" x2="796.67" y2="699.25" />
<line class="grid" x1="973.33" y1="506.50" x2="973.33" y2="699.25" />
<line class="grid" x1="1150.00" y1="506.50" x2="1150.00" y2="699.25" />
<line class="axis" x1="90" y1="506.50" x2="90" y2="699.25" />
<line class="axis" x1="90" y1="699.25" x2="1150" y2="699.25" />
<path class="series" d="M 178.33 692.72 L 179.81 695.55 L 181.28 691.44 L 182.75 684.34 L 184.22 683.01 L 185.69 692.45 L 187.17 688.06 L 188.64 689.99 L 190.11 691.26 L 191.58 692.35 L 193.06 694.92 L 194.53 695.90 L 196.00 695.74 L 197.47 695.74 L 198.94 691.27 L 200.42 688.55 L 201.89 697.82 L 203.36 694.46 L 204.83 691.99 L 206.31 697.40 L 207.78 689.75 L 209.25 689.18 L 210.72 693.76 L 212.19 687.43 L 213.67 691.05 L 215.14 696.57 L 216.61 688.49 L 218.08 692.32 L 219.56 695.96 L 221.03 693.57 L 222.50 694.62 L 223.97 695.68 L 225.44 697.18 L 226.92 696.25 L 228.39 695.20 L 229.86 687.04 L 231.33 688.85 L 232.81 693.97 L 234.28 696.86 L 235.75 684.42 L 237.22 687.27 L 238.69 661.33 L 240.17 686.63 L 241.64 682.60 L 243.11 695.39 L 244.58 697.53 L 246.06 677.91 L 247.53 683.75 L 249.00 678.41 L 250.47 682.66 L 251.94 688.41 L 253.42 673.67 L 254.89 673.33 L 256.36 684.90 L 257.83 672.60 L 259.31 673.94 L 260.78 681.97 L 262.25 664.01 L 263.72 652.66 L 265.19 658.86 L 266.67 665.26 L 268.14 661.29 L 269.61 673.84 L 271.08 654.46 L 272.56 678.33 L 274.03 686.46 L 275.50 685.36 L 276.97 688.28 L 278.44 675.18 L 279.92 683.07 L 281.39 685.47 L 282.86 694.40 L 284.33 684.17 L 285.81 689.55 L 287.28 679.69 L 288.75 694.10 L 290.22 689.32 L 291.69 682.12 L 293.17 675.68 L 294.64 673.96 L 296.11 654.46 L 297.58 654.12 L 299.06 660.16 L 300.53 665.93 L 302.00 681.82 L 303.47 689.82 L 304.94 682.00 L 306.42 680.89 L 307.89 673.28 L 309.36 677.84 L 310.83 678.06 L 312.31 676.75 L 313.78 687.46 L 315.25 677.80 L 316.72 692.77 L 318.19 672.49 L 319.67 668.08 L 321.14 668.08 L 322.61 658.74 L 324.08 660.65 L 325.56 669.51 L 327.03 695.78 L 328.50 685.23 L 329.97 695.52 L 331.44 684.02 L 332.92 665.55 L 334.39 683.43 L 335.86 680.24 L 337.33 668.12 L 338.81 665.03 L 340.28 667.58 L 341.75 681.74 L 343.22 680.11 L 344.69 657.39 L 346.17 631.90 L 347.64 665.99 L 349.11 661.55 L 350.58 652.23 L 352.06 623.02 L 353.53 615.87 L 355.00 645.12 L 356.47 688.56 L 357.94 665.99 L 359.42 686.24 L 360.89 662.95 L 362.36 663.70 L 363.83 686.32 L 365.31 655.60 L 366.78 663.42 L 368.25 641.61 L 369.72 678.63 L 371.19 680.45 L 372.67 657.48 L 374.14 681.82 L 375.61 692.57 L 377.08 664.13 L 378.56 672.83 L 380.03 688.33 L 381.50 682.42 L 382.97 684.05 L 384.44 650.31 L 385.92 642.61 L 387.39 667.54 L 388.86 677.73 L 390.33 693.88 L 391.81 676.91 L 393.28 676.83 L 394.75 683.67 L 396.22 693.65 L 397.69 676.89 L 399.17 694.73 L 400.64 694.90 L 402.11 693.05 L 403.58 672.92 L 405.06 687.97 L 406.53 690.36 L 408.00 689.02 L 409.47 689.16 L 410.94 685.52 L 412.42 695.33 L 413.89 689.48 L 415.36 695.27 L 416.83 694.02 L 418.31 695.82 L 419.78 678.48 L 421.25 692.47 L 422.72 695.54 L 424.19 688.24 L 425.67 690.96 L 427.14 694.00 L 428.61 684.42 L 430.08 691.25 L 431.56 692.12 L 433.03 669.21 L 434.50 689.60 L 435.97 688.02 L 437.44 690.54 L 438.92 681.20 L 440.39 690.95 L 441.86 653.29 L 443.33 653.29 L 444.81 692.39 L 446.28 692.95 L 447.75 693.34 L 449.22 697.08 L 450.69 695.75 L 452.17 698.58 L 453.64 697.29 L 455.11 698.48 L 456.58 698.96 L 458.06 698.87 L 459.53 698.44 L 461.00 698.30 L 462.47 698.97 L 463.94 697.19 L 465.42 698.89 L 466.89 698.13 L 468.36 696.24 L 469.83 697.33 L 471.31 697.51 L 472.78 696.98 L 474.25 697.28 L 475.72 693.92 L 477.19 695.75 L 478.67 697.12 L 480.14 697.17 L 481.61 697.83 L 483.08 696.58 L 484.56 694.86 L 486.03 694.88 L 487.50 694.31 L 488.97 698.62 L 490.44 696.90 L 491.92 698.72 L 493.39 696.83 L 494.86 692.39 L 496.33 697.75 L 497.81 697.85 L 499.28 696.01 L 500.75 694.15 L 502.22 696.52 L 503.69 698.08 L 505.17 697.90 L 506.64 699.03 L 508.11 697.40 L 509.58 696.93 L 511.06 697.32 L 512.53 698.36 L 514.00 693.59 L 515.47 693.62 L 516.94 698.45 L 518.42 698.31 L 519.89 698.33 L 521.36 695.52 L 522.83 676.33 L 524.31 670.62 L 525.78 675.38 L 527.25 692.87 L 528.72 659.47 L 530.19 697.50 L 531.67 698.15 L 533.14 696.77 L 534.61 696.63 L 536.08 697.07 L 537.56 698.07 L 539.03 694.90 L 540.50 695.49 L 541.97 697.80 L 543.44 697.88 L 544.92 698.52 L 546.39 698.72 L 547.86 697.86 L 549.33 673.67 L 550.81 685.64 L 552.28 685.10 L 553.75 672.88 L 555.22 678.13 L 556.69 679.23 L 558.17 685.81 L 559.64 682.06 L 561.11 662.77 L 562.58 686.28 L 564.06 681.92 L 565.53 679.53 L 567.00 691.35 L 568.47 691.35 L 569.94 662.80 L 571.42 684.46 L 572.89 677.53 L 574.36 677.32 L 575.83 687.37 L 577.31 694.12 L 578.78 694.95 L 580.25 697.13 L 581.72 696.67 L 583.19 698.58 L 584.67 697.71 L 586.14 697.39 L 587.61 698.18 L 589.08 698.27 L 590.56 698.32 L 592.03 698.17 L 593.50 697.43 L 594.97 695.25 L 596.44 698.17 L 597.92 698.11 L 599.39 698.70 L 600.86 698.73 L 602.33 698.45 L 603.81 698.50 L 605.28 698.71 L 606.75 698.66 L 608.22 698.78 L 609.69 699.10 L 611.17 699.16 L 612.64 698.87 L 614.11 696.48 L 615.58 680.67 L 617.06 689.63 L 618.53 690.28 L 620.00 687.07 L 621.47 680.12 L 622.94 664.41 L 624.42 667.46 L 625.89 683.10 L 627.36 674.06 L 628.83 675.24 L 630.31 683.61 L 631.78 669.82 L 633.25 670.50 L 634.72 649.36 L 636.19 669.68 L 637.67 689.16 L 639.14 676.58 L 640.61 664.10 L 642.08 660.69 L 643.56 658.04 L 645.03 679.86 L 646.50 649.28 L 647.97 672.30 L 649.44 675.47 L 650.92 664.88 L 652.39 668.57 L 653.86 678.89 L 655.33 661.39 L 656.81 641.72 L 658.28 681.90 L 659.75 667.73 L 661.22 670.50 L 662.69 674.70 L 664.17 668.64 L 665.64 669.75 L 667.11 669.14 L 668.58 672.89 L 670.06 688.69 L 671.53 677.20 L 673.00 666.67 L 674.47 657.12 L 675.94 661.40 L 677.42 677.71 L 678.89 679.71 L 680.36 666.12 L 681.83 665.10 L 683.31 666.34 L 684.78 669.22 L 686.25 677.30 L 687.72 678.87 L 689.19 655.74 L 690.67 664.83 L 692.14 664.83 L 693.61 676.76 L 695.08 661.70 L 696.56 639.48 L 698.03 663.90 L 699.50 687.19 L 700.97 666.83 L 702.44 653.64 L 703.92 652.53 L 705.39 673.39 L 706.86 667.10 L 708.33 681.81 L 709.81 678.82 L 711.28 660.28 L 712.75 662.26 L 714.22 674.54 L 715.69 674.04 L 717.17 686.82 L 718.64 673.55 L 720.11 672.20 L 721.58 667.93 L 723.06 654.14 L 724.53 693.03 L 726.00 663.65 L 727.47 670.63 L 728.94 688.96 L 730.42 678.80 L 731.89 679.41 L 733.36 676.73 L 734.83 682.46 L 736.31 678.27 L 737.78 689.80 L 739.25 652.11 L 740.72 677.55 L 742.19 679.25 L 743.67 669.03 L 745.14 675.06 L 746.61 670.82 L 748.08 686.91 L 749.56 685.92 L 751.03 684.13 L 752.50 692.44 L 753.97 689.69 L 755.44 688.17 L 756.92 682.24 L 758.39 680.34 L 759.86 690.89 L 761.33 685.94 L 762.81 685.94 L 764.28 688.54 L 765.75 691.25 L 767.22 684.25 L 768.69 679.48 L 770.17 686.39 L 771.64 683.64 L 773.11 682.80 L 774.58 681.82 L 776.06 650.61 L 777.53 654.86 L 779.00 669.89 L 780.47 692.01 L 781.94 685.67 L 783.42 679.73 L 784.89 691.54 L 786.36 692.73 L 787.83 694.61 L 789.31 687.89 L 790.78 679.44 L 792.25 683.87 L 793.72 669.21 L 795.19 677.87 L 796.67 655.53 L 798.14 671.14 L 799.61 658.22 L 801.08 638.82 L 802.56 650.11 L 804.03 628.89 L 805.50 658.91 L 806.97 645.31 L 808.44 647.15 L 809.92 638.67 L 811.39 586.79 L 812.86 549.20 L 814.33 529.12 L 815.81 606.40 L 817.28 606.40 L 818.75 629.09 L 820.22 652.23 L 821.69 665.50 L 823.17 645.75 L 824.64 621.76 L 826.11 629.39 L 827.58 631.44 L 829.06 633.16 L 830.53 682.97 L 832.00 692.80 L 833.47 680.49 L 834.94 690.42 L 836.42 681.64 L 837.89 674.40 L 839.36 649.23 L 840.83 665.39 L 842.31 683.82 L 843.78 674.60 L 845.25 673.13 L 846.72 682.59 L 848.19 680.61 L 849.67 689.57 L 851.14 687.04 L 852.61 682.35 L 854.08 672.39 L 855.56 684.45 L 857.03 675.65 L 858.50 664.88 L 859.97 585.79 L 861.44 662.74 L 862.92 681.62 L 864.39 666.64 L 865.86 662.71 L 867.33 673.42 L 868.81 683.13 L 870.28 691.10 L 871.75 688.39 L 873.22 673.28 L 874.69 671.29 L 876.17 687.02 L 877.64 691.15 L 879.11 687.41 L 880.58 682.54" stroke="#FB8C00" />
<text x="90" y="711.25" font-size="14" font-weight="700">Giroscópio (magnitude) (u.a.)</text>
<rect class="event" x="443.33" y="717.25" width="172.25" height="192.75" />
<line class="eventline" x1="443.33" y1="717.25" x2="443.33" y2="910.00" />
<line class="eventline" x1="615.58" y1="717.25" x2="615.58" y2="910.00" />
<line class="grid" x1="90" y1="910.00" x2="1150" y2="910.00" />
<text class="small" x="80" y="914.00" text-anchor="end">0.00</text>
<line class="grid" x1="90" y1="871.45" x2="1150" y2="871.45" />
<text class="small" x="80" y="875.45" text-anchor="end">0.10</text>
<line class="grid" x1="90" y1="832.90" x2="1150" y2="832.90" />
<text class="small" x="80" y="836.90" text-anchor="end">0.20</text>
<line class="grid" x1="90" y1="794.35" x2="1150" y2="794.35" />
<text class="small" x="80" y="798.35" text-anchor="end">0.30</text>
<line class="grid" x1="90" y1="755.80" x2="1150" y2="755.80" />
<text class="small" x="80" y="759.80" text-anchor="end">0.40</text>
<line class="grid" x1="90" y1="717.25" x2="1150" y2="717.25" />
<text class="small" x="80" y="721.25" text-anchor="end">0.50</text>
<line class="grid" x1="90.00" y1="717.25" x2="90.00" y2="910.00" />
<line class="grid" x1="266.67" y1="717.25" x2="266.67" y2="910.00" />
<line class="grid" x1="443.33" y1="717.25" x2="443.33" y2="910.00" />
<line class="grid" x1="620.00" y1="717.25" x2="620.00" y2="910.00" />
<line class="grid" x1="796.67" y1="717.25" x2="796.67" y2="910.00" />
<line class="grid" x1="973.33" y1="717.25" x2="973.33" y2="910.00" />
<line class="grid" x1="1150.00" y1="717.25" x2="1150.00" y2="910.00" />
<line class="axis" x1="90" y1="717.25" x2="90" y2="910.00" />
<line class="axis" x1="90" y1="910.00" x2="1150" y2="910.00" />
<path class="series" d="M 178.33 904.80 L 179.81 904.70 L 181.28 903.50 L 182.75 904.22 L 184.22 903.67 L 185.69 906.12 L 187.17 902.87 L 188.64 902.94 L 190.11 901.81 L 191.58 903.69 L 193.06 903.31 L 194.53 902.34 L 196.00 905.12 L 197.47 905.12 L 198.94 908.17 L 200.42 904.23 L 201.89 906.08 L 203.36 904.99 L 204.83 906.94 L 206.31 905.55 L 207.78 907.42 L 209.25 908.18 L 210.72 906.58 L 212.19 903.84 L 213.67 906.59 L 215.14 902.81 L 216.61 901.06 L 218.08 902.92 L 219.56 903.46 L 221.03 902.86 L 222.50 902.98 L 223.97 903.16 L 225.44 903.36 L 226.92 904.10 L 228.39 903.97 L 229.86 905.14 L 231.33 902.82 L 232.81 904.36 L 234.28 905.38 L 235.75 903.25 L 237.22 900.71 L 238.69 906.12 L 240.17 898.63 L 241.64 889.22 L 243.11 892.16 L 244.58 887.65 L 246.06 888.76 L 247.53 893.33 L 249.00 900.99 L 250.47 901.45 L 251.94 886.09 L 253.42 887.45 L 254.89 902.21 L 256.36 901.32 L 257.83 897.11 L 259.31 898.82 L 260.78 903.43 L 262.25 891.67 L 263.72 894.53 L 265.19 893.61 L 266.67 898.54 L 268.14 895.05 L 269.61 893.22 L 271.08 905.04 L 272.56 909.01 L 274.03 904.08 L 275.50 898.66 L 276.97 898.50 L 278.44 903.50 L 279.92 901.32 L 281.39 900.69 L 282.86 900.93 L 284.33 898.97 L 285.81 905.74 L 287.28 906.02 L 288.75 906.09 L 290.22 906.11 L 291.69 904.05 L 293.17 903.75 L 294.64 903.26 L 296.11 900.55 L 297.58 893.76 L 299.06 894.36 L 300.53 889.11 L 302.00 889.38 L 303.47 887.36 L 304.94 889.39 L 306.42 891.87 L 307.89 888.46 L 309.36 883.61 L 310.83 883.57 L 312.31 888.48 L 313.78 885.61 L 315.25 878.04 L 316.72 875.40 L 318.19 878.75 L 319.67 880.58 L 321.14 880.58 L 322.61 880.71 L 324.08 884.41 L 325.56 887.45 L 327.03 894.25 L 328.50 898.13 L 329.97 897.02 L 331.44 892.49 L 332.92 879.42 L 334.39 874.62 L 335.86 874.44 L 337.33 868.88 L 338.81 862.01 L 340.28 853.36 L 341.75 860.60 L 343.22 851.05 L 344.69 837.95 L 346.17 839.46 L 347.64 835.00 L 349.11 828.46 L 350.58 836.15 L 352.06 843.48 L 353.53 855.39 L 355.00 863.87 L 356.47 865.65 L 357.94 870.77 L 359.42 872.28 L 360.89 878.05 L 362.36 888.63 L 363.83 901.27 L 365.31 900.01 L 366.78 895.63 L 368.25 899.92 L 369.72 889.62 L 371.19 869.84 L 372.67 871.69 L 374.14 859.92 L 375.61 846.26 L 377.08 854.69 L 378.56 855.15 L 380.03 859.42 L 381.50 858.44 L 382.97 849.87 L 384.44 854.88 L 385.92 876.20 L 387.39 903.95 L 388.86 905.24 L 390.33 908.08 L 391.81 906.38 L 393.28 904.15 L 394.75 908.08 L 396.22 907.38 L 397.69 905.47 L 399.17 903.37 L 400.64 901.64 L 402.11 903.81 L 403.58 903.21 L 405.06 901.23 L 406.53 896.42 L 408.00 897.39 L 409.47 893.59 L 410.94 890.95 L 412.42 891.54 L 413.89 895.96 L 415.36 900.75 L 416.83 905.70 L 418.31 906.65 L 419.78 902.90 L 421.25 906.61 L 422.72 906.66 L 424.19 906.88 L 425.67 907.65 L 427.14 906.40 L 428.61 907.31 L 430.08 909.49 L 431.56 907.70 L 433.03 903.17 L 434.50 907.88 L 435.97 908.41 L 437.44 908.86 L 438.92 908.55 L 440.39 908.55 L 441.86 907.55 L 443.33 907.55 L 444.81 908.89 L 446.28 909.57 L 447.75 909.20 L 449.22 909.37 L 450.69 909.53 L 452.17 909.47 L 453.64 909.54 L 455.11 909.53 L 456.58 909.46 L 458.06 909.35 L 459.53 909.37 L 461.00 909.48 L 462.47 909.44 L 463.94 909.37 L 465.42 909.52 L 466.89 909.29 L 468.36 909.62 L 469.83 909.39 L 471.31 909.59 L 472.78 909.57 L 474.25 908.96 L 475.72 909.19 L 477.19 909.49 L 478.67 909.57 L 480.14 909.34 L 481.61 909.40 L 483.08 909.59 L 484.56 908.74 L 486.03 909.52 L 487.50 907.93 L 488.97 909.60 L 490.44 909.29 L 491.92 909.29 L 493.39 908.83 L 494.86 909.41 L 496.33 909.29 L 497.81 909.01 L 499.28 908.64 L 500.75 909.66 L 502.22 909.35 L 503.69 909.48 L 505.17 909.55 L 506.64 908.99 L 508.11 909.47 L 509.58 908.89 L 511.06 909.42 L 512.53 909.10 L 514.00 909.01 L 515.47 909.31 L 516.94 909.34 L 518.42 909.40 L 519.89 909.37 L 521.36 909.00 L 522.83 905.15 L 524.31 907.55 L 525.78 906.83 L 527.25 905.92 L 528.72 907.99 L 530.19 909.03 L 531.67 909.52 L 533.14 909.33 L 534.61 909.31 L 536.08 909.18 L 537.56 909.42 L 539.03 909.32 L 540.50 909.03 L 541.97 909.37 L 543.44 909.38 L 544.92 909.39 L 546.39 909.39 L 547.86 909.57 L 549.33 906.26 L 550.81 906.52 L 552.28 907.58 L 553.75 906.77 L 555.22 903.51 L 556.69 901.82 L 558.17 903.98 L 559.64 902.37 L 561.11 904.88 L 562.58 897.58 L 564.06 889.89 L 565.53 891.43 L 567.00 897.67 L 568.47 897.67 L 569.94 893.35 L 571.42 887.30 L 572.89 886.99 L 574.36 908.24 L 575.83 909.46 L 577.31 909.77 L 578.78 909.57 L 580.25 909.54 L 581.72 909.42 L 583.19 909.80 L 584.67 909.55 L 586.14 909.69 L 587.61 909.53 L 589.08 909.56 L 590.56 909.59 L 592.03 909.64 L 593.50 909.57 L 594.97 909.44 L 596.44 909.33 L 597.92 909.44 L 599.39 909.44 L 600.86 909.46 L 602.33 909.45 L 603.81 909.43 L 605.28 909.47 L 606.75 909.43 L 608.22 909.91 L 609.69 909.88 L 611.17 909.91 L 612.64 909.58 L 614.11 909.52 L 615.58 900.87 L 617.06 893.72 L 618.53 889.55 L 620.00 888.93 L 621.47 892.15 L 622.94 883.68 L 624.42 881.57 L 625.89 880.96 L 627.36 875.73 L 628.83 874.40 L 630.31 875.09 L 631.78 870.51 L 633.25 861.37 L 634.72 864.01 L 636.19 869.28 L 637.67 863.07 L 639.14 857.67 L 640.61 858.22 L 642.08 857.08 L 643.56 853.80 L 645.03 856.89 L 646.50 850.04 L 647.97 852.16 L 649.44 857.34 L 650.92 864.81 L 652.39 860.70 L 653.86 853.27 L 655.33 856.15 L 656.81 853.96 L 658.28 853.90 L 659.75 855.53 L 661.22 851.37 L 662.69 852.56 L 664.17 851.99 L 665.64 865.35 L 667.11 883.28 L 668.58 885.91 L 670.06 894.44 L 671.53 897.79 L 673.00 891.29 L 674.47 874.34 L 675.94 880.74 L 677.42 881.54 L 678.89 877.71 L 680.36 875.81 L 681.83 885.17 L 683.31 893.45 L 684.78 889.56 L 686.25 894.03 L 687.72 890.39 L 689.19 886.68 L 690.67 889.80 L 692.14 889.80 L 693.61 892.18 L 695.08 890.25 L 696.56 895.44 L 698.03 892.57 L 699.50 899.37 L 700.97 895.10 L 702.44 902.95 L 703.92 899.66 L 705.39 893.45 L 706.86 902.50 L 708.33 900.55 L 709.81 902.31 L 711.28 899.74 L 712.75 898.14 L 714.22 901.90 L 715.69 894.90 L 717.17 895.57 L 718.64 896.38 L 720.11 904.14 L 721.58 904.26 L 723.06 900.22 L 724.53 903.20 L 726.00 906.97 L 727.47 908.64 L 728.94 898.61 L 730.42 907.08 L 731.89 906.72 L 733.36 903.04 L 734.83 904.66 L 736.31 901.23 L 737.78 897.11 L 739.25 890.99 L 740.72 895.93 L 742.19 899.55 L 743.67 900.70 L 745.14 900.15 L 746.61 891.82 L 748.08 897.73 L 749.56 899.26 L 751.03 901.21 L 752.50 906.27 L 753.97 907.57 L 755.44 907.90 L 756.92 906.39 L 758.39 899.54 L 759.86 904.19 L 761.33 901.50 L 762.81 903.77 L 764.28 902.52 L 765.75 904.83 L 767.22 903.33 L 768.69 897.91 L 770.17 907.96 L 771.64 901.78 L 773.11 896.79 L 774.58 893.70 L 776.06 901.52 L 777.53 887.09 L 779.00 897.31 L 780.47 905.07 L 781.94 901.08 L 783.42 897.61 L 784.89 895.83 L 786.36 900.41 L 787.83 903.49 L 789.31 903.04 L 790.78 901.33 L 792.25 905.47 L 793.72 897.55 L 795.19 895.37 L 796.67 890.91 L 798.14 885.36 L 799.61 878.16 L 801.08 861.22 L 802.56 853.80 L 804.03 848.14 L 805.50 853.72 L 806.97 832.10 L 808.44 828.11 L 809.92 833.16 L 811.39 866.06 L 812.86 892.31 L 814.33 834.11 L 815.81 812.27 L 817.28 812.27 L 818.75 816.30 L 820.22 816.46 L 821.69 839.77 L 823.17 879.16 L 824.64 896.48 L 826.11 880.83 L 827.58 859.26 L 829.06 859.75 L 830.53 872.51 L 832.00 880.66 L 833.47 884.27 L 834.94 885.74 L 836.42 890.12 L 837.89 900.65 L 839.36 893.05 L 840.83 902.51 L 842.31 901.03 L 843.78 900.00 L 845.25 905.41 L 846.72 906.62 L 848.19 903.90 L 849.67 906.51 L 851.14 906.74 L 852.61 905.13 L 854.08 901.06 L 855.56 900.43 L 857.03 905.93 L 858.50 902.68 L 859.97 906.83 L 861.44 903.90 L 862.92 903.34 L 864.39 902.70 L 865.86 905.62 L 867.33 905.31 L 868.81 904.84 L 870.28 905.67 L 871.75 904.31 L 873.22 900.61 L 874.69 903.96 L 876.17 904.36 L 877.64 906.60 L 879.11 904.53 L 880.58 901.21" stroke="#E53935" />
<text x="620.00" y="952" font-size="15" text-anchor="middle">minutos (relativo ao início do evento)</text>
<text class="small" x="90.00" y="936" text-anchor="middle">-4.00</text>
<text class="small" x="266.67" y="936" text-anchor="middle">-2.00</text>
<text class="small" x="443.33" y="936" text-anchor="middle">0.00</text>
<text class="small" x="620.00" y="936" text-anchor="middle">2.00</text>
<text class="small" x="796.67" y="936" text-anchor="middle">4.00</text>
<text class="small" x="973.33" y="936" text-anchor="middle">6.00</text>
<text class="small" x="1150.00" y="936" text-anchor="middle">8.00</text>
</svg>