<?xml version="1.0" encoding="UTF-8"?>
<svg xmlns="http://www.w3.org/2000/svg" width="1180" height="980" viewBox="0 0 1180 980">
<style>
text { font-family: -apple-system, BlinkMacSystemFont, 'Segoe UI', Roboto, Helvetica, Arial, sans-serif; fill: #111; }
.small { font-size: 12px; fill: #222; }
.title { font-size: 18px; font-weight: 700; }
.axis { stroke: #111; stroke-width: 1.4; }
.grid { stroke: #E6E6E6; stroke-width: 1; }
.event { fill: #FFEB3B; fill-opacity: 0.18; }
.eventline { stroke: #F9A825; stroke-width: 1.2; stroke-dasharray: 4 3; }
.series { fill: none; stroke-width: 1.8; }
</style>
<text class="title" x="90" y="34">ciclo 2 — carregamento — 2025-12-12T13:49:13-03:00 → 2025-12-12T13:51:48-03:00 (span 155s, dur 156s)</text>
<text class="small" x="90" y="54">GPS: -11.698018,-47.155192  hotspot: -11.698,-47.155</text>
<text class="small" x="90" y="70">Janela: -3.00 → 5.58 min (relativo ao início do evento)</text>
<text x="90" y="79.00" font-size="14" font-weight="700">Velocidade (km/h)</text>
<rect class="event" x="443.33" y="85.00" width="228.19" height="192.75" />
<line class="eventline" x1="443.33" y1="85.00" x2="443.33" y2="277.75" />
<line class="eventline" x1="671.53" y1="85.00" x2="671.53" y2="277.75" />
<line class="grid" x1="90" y1="277.75" x2="1150" y2="277.75" />
<text class="small" x="80" y="281.75" text-anchor="end">0.00</text>
<line class="grid" x1="90" y1="239.20" x2="1150" y2="239.20" />
<text class="small" x="80" y="243.20" text-anchor="end">5.00</text>
<line class="grid" x1="90" y1="200.65" x2="1150" y2="200.65" />
<text class="small" x="80" y="204.65" text-anchor="end">10.0</text>
<line class="grid" x1="90" y1="162.10" x2="1150" y2="162.10" />
<text class="small" x="80" y="166.10" text-anchor="end">15.0</text>
<line class="grid" x1="90" y1="123.55" x2="1150" y2="123.55" />
<text class="small" x="80" y="127.55" text-anchor="end">20.0</text>
<line class="grid" x1="90" y1="85.00" x2="1150" y2="85.00" />
<text class="small" x="80" y="89.00" text-anchor="end">25.0</text>
<line class="grid" x1="90.00" y1="85.00" x2="90.00" y2="277.75" />
<line class="grid" x1="266.67" y1="85.00" x2="266.67" y2="277.75" />
<line class="grid" x1="443.33" y1="85.00" x2="443.33" y2="277.75" />
<line class="grid" x1="620.00" y1="85.00" x2="620.00" y2="277.75" />
<line class="grid" x1="796.67" y1="85.00" x2="796.67" y2="277.75" />
<line class="grid" x1="973.33" y1="85.00" x2="973.33" y2="277.75" />
<line class="grid" x1="1150.00" y1="85.00" x2="1150.00" y2="277.75" />
<line class="axis" x1="90" y1="85.00" x2="90" y2="277.75" />
<line class="axis" x1="90" y1="277.75" x2="1150" y2="277.75" />
<path class="series" d="M 178.33 145.08 L 179.81 137.03 L 181.28 134.81 L 182.75 140.91 L 184.22 147.85 L 185.69 150.91 L 187.17 150.07 L 188.64 154.79 L 190.11 160.34 L 191.58 153.96 L 193.06 150.91 L 194.53 156.46 L 196.00 155.90 L 197.47 153.13 L 198.94 158.68 L 200.42 167.28 L 201.89 167.00 L 203.36 168.11 L 204.83 175.61 L 206.31 175.61 L 207.78 195.31 L 209.25 206.97 L 210.72 217.24 L 212.19 195.59 L 213.67 211.69 L 215.14 221.96 L 216.61 228.34 L 218.08 223.90 L 219.56 210.58 L 221.03 201.14 L 222.50 198.37 L 223.97 205.58 L 225.44 218.91 L 226.92 220.02 L 228.39 211.69 L 229.86 222.24 L 231.33 216.69 L 232.81 211.41 L 234.28 218.63 L 235.75 226.68 L 237.22 245.28 L 238.69 244.44 L 240.17 211.69 L 241.64 198.92 L 243.11 181.44 L 244.58 167.00 L 246.06 149.52 L 247.53 126.48 L 249.00 124.26 L 250.47 139.53 L 251.94 147.85 L 253.42 152.85 L 254.89 153.96 L 256.36 152.02 L 257.83 162.01 L 259.31 170.06 L 260.78 156.73 L 262.25 132.59 L 263.72 131.48 L 265.19 165.62 L 266.67 158.68 L 268.14 178.94 L 269.61 183.10 L 271.08 188.10 L 272.56 196.70 L 274.03 195.31 L 275.50 176.16 L 276.97 174.50 L 278.44 188.65 L 279.92 173.11 L 281.39 178.94 L 282.86 252.77 L 284.33 232.79 L 285.81 249.44 L 287.28 268.59 L 288.75 277.75 L 290.22 277.75 L 291.69 277.75 L 293.17 277.75 L 294.64 277.75 L 296.11 269.42 L 297.58 265.54 L 299.06 260.54 L 300.53 252.21 L 302.00 254.99 L 303.47 256.93 L 304.94 250.83 L 306.42 246.39 L 307.89 252.49 L 309.36 252.49 L 310.83 249.72 L 312.31 249.44 L 313.78 250.55 L 315.25 252.49 L 316.72 255.82 L 318.19 259.43 L 319.67 260.26 L 321.14 261.10 L 322.61 251.94 L 324.08 257.49 L 325.56 259.99 L 327.03 263.32 L 328.50 264.70 L 329.97 261.37 L 331.44 261.93 L 332.92 267.20 L 334.39 277.75 L 335.86 277.75 L 337.33 277.75 L 338.81 277.75 L 340.28 266.37 L 341.75 264.98 L 343.22 277.75 L 344.69 277.75 L 346.17 277.75 L 347.64 277.75 L 349.11 277.75 L 350.58 277.75 L 352.06 277.75 L 353.53 277.75 L 355.00 277.75 L 356.47 277.75 L 357.94 277.75 L 359.42 277.75 L 360.89 277.75 L 362.36 277.75 L 363.83 277.75 L 365.31 277.75 L 366.78 277.75 L 368.25 277.75 L 369.72 277.75 L 371.19 277.75 L 372.67 277.75 L 374.14 277.75 L 375.61 277.75 L 377.08 277.75 L 378.56 277.75 L 380.03 277.75 L 381.50 277.75 L 382.97 277.75 L 384.44 277.75 L 385.92 277.75 L 387.39 277.75 L 388.86 277.75 L 390.33 277.75 L 391.81 277.75 L 393.28 277.75 L 394.75 277.75 L 396.22 277.75 L 397.69 277.75 L 399.17 277.75 L 400.64 277.75 L 402.11 277.75 L 403.58 277.75 L 405.06 277.75 L 406.53 277.75 L 408.00 277.75 L 409.47 277.75 L 410.94 277.75 L 412.42 277.75 L 413.89 277.75 L 415.36 277.75 L 416.83 277.75 L 418.31 277.75 L 419.78 277.75 L 421.25 277.75 L 422.72 277.75 L 424.19 277.75 L 425.67 277.75 L 427.14 277.75 L 428.61 277.75 L 430.08 277.75 L 431.56 277.75 L 433.03 277.75 L 434.50 277.75 L 435.97 277.75 L 437.44 277.75 L 438.92 277.75 L 440.39 277.75 L 441.86 271.92 L 443.33 277.75 L 444.81 277.75 L 446.28 277.75 L 447.75 277.75 L 449.22 277.75 L 450.69 277.75 L 452.17 277.75 L 453.64 277.75 L 455.11 277.75 L 456.58 277.75 L 458.06 277.75 L 459.53 277.75 L 461.00 277.75 L 462.47 277.75 L 463.94 277.75 L 465.42 277.75 L 466.89 277.75 L 468.36 277.75 L 469.83 277.75 L 471.31 277.75 L 472.78 277.75 L 474.25 277.75 L 475.72 277.75 L 477.19 277.75 L 478.67 277.75 L 480.14 277.75 L 481.61 277.75 L 483.08 277.75 L 484.56 277.75 L 486.03 277.75 L 487.50 277.75 L 488.97 277.75 L 490.44 277.75 L 491.92 277.75 L 493.39 277.75 L 494.86 277.75 L 496.33 277.75 L 497.81 277.75 L 499.28 277.75 L 500.75 277.75 L 502.22 277.75 L 503.69 277.75 L 505.17 277.75 L 506.64 277.75 L 508.11 277.75 L 509.58 277.75 L 511.06 277.75 L 512.53 277.75 L 514.00 277.75 L 515.47 277.75 L 516.94 277.75 L 518.42 277.75 L 519.89 277.75 L 521.36 277.75 L 522.83 277.75 L 524.31 277.75 L 525.78 277.75 L 527.25 277.75 L 528.72 277.75 L 530.19 277.75 L 531.67 277.75 L 533.14 277.75 L 534.61 277.75 L 536.08 277.75 L 537.56 277.75 L 539.03 277.75 L 540.50 277.75 L 541.97 277.75 L 543.44 277.75 L 544.92 277.75 L 546.39 277.75 L 547.86 277.75 L 549.33 277.75 L 550.81 277.75 L 552.28 277.75 L 553.75 277.75 L 555.22 277.75 L 556.69 277.75 L 558.17 277.75 L 559.64 277.75 L 561.11 277.75 L 562.58 277.75 L 564.06 277.75 L 565.53 277.75 L 567.00 277.75 L 568.47 277.75 L 569.94 277.75 L 571.42 277.75 L 572.89 277.75 L 574.36 277.75 L 575.83 277.75 L 577.31 277.75 L 578.78 277.75 L 580.25 277.75 L 581.72 277.75 L 583.19 277.75 L 584.67 277.75 L 586.14 277.75 L 587.61 277.75 L 589.08 277.75 L 590.56 277.75 L 592.03 277.75 L 593.50 277.75 L 594.97 277.75 L 596.44 277.75 L 597.92 277.75 L 599.39 277.75 L 600.86 277.75 L 602.33 277.75 L 603.81 277.75 L 605.28 277.75 L 606.75 277.75 L 608.22 277.75 L 609.69 277.75 L 611.17 277.75 L 612.64 277.75 L 614.11 277.75 L 615.58 277.75 L 617.06 277.75 L 618.53 277.75 L 620.00 277.75 L 621.47 277.75 L 622.94 277.75 L 624.42 277.75 L 625.89 277.75 L 627.36 277.75 L 628.83 277.75 L 630.31 277.75 L 631.78 277.75 L 633.25 277.75 L 634.72 277.75 L 636.19 277.75 L 637.67 277.75 L 639.14 277.75 L 640.61 277.75 L 642.08 277.75 L 643.56 277.75 L 645.03 277.75 L 646.50 277.75 L 647.97 277.75 L 649.44 277.75 L 650.92 277.75 L 652.39 277.75 L 653.86 277.75 L 655.33 277.75 L 656.81 277.75 L 658.28 277.75 L 659.75 277.75 L 661.22 277.75 L 662.69 277.75 L 664.17 277.75 L 665.64 277.75 L 667.11 277.75 L 668.58 277.75 L 670.06 277.75 L 671.53 277.75 L 673.00 269.98 L 674.47 264.15 L 675.94 261.65 L 677.42 248.88 L 678.89 234.45 L 680.36 247.77 L 681.83 260.26 L 683.31 259.99 L 684.78 263.04 L 686.25 266.65 L 687.72 268.59 L 689.19 267.20 L 690.67 266.65 L 692.14 266.37 L 693.61 268.04 L 695.08 268.04 L 696.56 268.31 L 698.03 264.43 L 699.50 266.65 L 700.97 266.37 L 702.44 266.65 L 703.92 261.10 L 705.39 250.83 L 706.86 245.00 L 708.33 241.67 L 709.81 235.01 L 711.28 237.23 L 712.75 242.50 L 714.22 241.11 L 715.69 240.00 L 717.17 242.50 L 718.64 229.73 L 720.11 233.06 L 721.58 226.68 L 723.06 226.12 L 724.53 232.23 L 726.00 236.12 L 727.47 240.00 L 728.94 233.06 L 730.42 224.46 L 731.89 233.62 L 733.36 234.17 L 734.83 221.68 L 736.31 220.02 L 737.78 216.41 L 739.25 204.47 L 740.72 204.75 L 742.19 190.87 L 743.67 197.54 L 745.14 197.54 L 746.61 193.09 L 748.08 186.99 L 749.56 186.16 L 751.03 187.54 L 752.50 201.70 L 753.97 209.47 L 755.44 217.80 L 756.92 224.18 L 758.39 218.35 L 759.86 201.98 L 761.33 191.15 L 762.81 180.60 L 764.28 185.04 L 765.75 191.71 L 767.22 200.03 L 768.69 208.92 L 770.17 225.29 L 771.64 237.23 L 773.11 241.11 L 774.58 240.56 L 776.06 245.55 L 777.53 246.11 L 779.00 243.61 L 780.47 245.28 L 781.94 243.33 L 783.42 238.89 L 784.89 236.67 L 786.36 236.67 L 787.83 230.29 L 789.31 229.73 L 790.78 243.61 L 792.25 242.22 L 793.72 233.90 L 795.19 236.12 L 796.67 237.78 L 798.14 257.77 L 799.61 236.39 L 801.08 233.90 L 802.56 240.83 L 804.03 243.33 L 805.50 243.06 L 806.97 251.66 L 808.44 246.11 L 809.92 224.74 L 811.39 221.68 L 812.86 218.07 L 814.33 230.84 L 815.81 227.51 L 817.28 227.23 L 818.75 236.39 L 820.22 233.06 L 821.69 231.95 L 823.17 232.79 L 824.64 233.90 L 826.11 234.45 L 827.58 235.84 L 829.06 231.40 L 830.53 236.12 L 832.00 240.56 L 833.47 223.63 L 834.94 213.63 L 836.42 212.80 L 837.89 213.63 L 839.36 201.98 L 840.83 206.69 L 842.31 216.41 L 843.78 216.69 L 845.25 216.69 L 846.72 218.07 L 848.19 230.29 L 849.67 230.29 L 851.14 227.23 L 852.61 227.23 L 854.08 215.30 L 855.56 229.45 L 857.03 229.45 L 858.50 239.45 L 859.97 239.17 L 861.44 277.75 L 862.92 236.12 L 864.39 231.68 L 865.86 230.01 L 867.33 233.34 L 868.81 230.01 L 870.28 228.34 L 871.75 221.41 L 873.22 222.79 L 874.69 220.57 L 876.17 224.46 L 877.64 222.24 L 879.11 222.79 L 880.58 222.52 L 882.06 224.18 L 883.53 221.96 L 885.00 220.02 L 886.47 220.85 L 887.94 221.41 L 889.42 222.79 L 890.89 219.18 L 892.36 220.02 L 893.83 221.13 L 895.31 222.24 L 896.78 222.52 L 898.25 229.18 L 899.72 226.68 L 901.19 224.46 L 902.67 219.18 L 904.14 221.41 L 905.61 222.52 L 907.08 219.18 L 908.56 217.24 L 910.03 218.07 L 911.50 216.13 L 912.97 219.46 L 914.44 225.01 L 915.92 212.80 L 917.39 215.58 L 918.86 212.80 L 920.33 217.80 L 921.81 215.30 L 923.28 211.97 L 924.75 214.47 L 926.22 215.30 L 927.69 205.31 L 929.17 191.71 L 930.64 188.65 L 932.11 191.98 L 933.58 179.49 L 935.06 179.22 L 936.53 183.10" stroke="#1976D2" />
<text x="90" y="289.75" font-size="14" font-weight="700">Inclinação (graus)</text>
<rect class="event" x="443.33" y="295.75" width="228.19" height="192.75" />
<line class="eventline" x1="443.33" y1="295.75" x2="443.33" y2="488.50" />
<line class="eventline" x1="671.53" y1="295.75" x2="671.53" y2="488.50" />
<line class="grid" x1="90" y1="488.50" x2="1150" y2="488.50" />
<text class="small" x="80" y="492.50" text-anchor="end">-20.0</text>
<line class="grid" x1="90" y1="449.95" x2="1150" y2="449.95" />
<text class="small" x="80" y="453.95" text-anchor="end">-10.0</text>
<line class="grid" x1="90" y1="411.40" x2="1150" y2="411.40" />
<text class="small" x="80" y="415.40" text-anchor="end">0.00</text>
<line class="grid" x1="90" y1="372.85" x2="1150" y2="372.85" />
<text class="small" x="80" y="376.85" text-anchor="end">10.0</text>
<line class="grid" x1="90" y1="334.30" x2="1150" y2="334.30" />
<text class="small" x="80" y="338.30" text-anchor="end">20.0</text>
<line class="grid" x1="90" y1="295.75" x2="1150" y2="295.75" />
<text class="small" x="80" y="299.75" text-anchor="end">30.0</text>
<line class="grid" x1="90.00" y1="295.75" x2="90.00" y2="488.50" />
<line class="grid" x1="266.67" y1="295.75" x2="266.67" y2="488.50" />
<line class="grid" x1="443.33" y1="295.75" x2="443.33" y2="488.50" />
<line class="grid" x1="620.00" y1="295.75" x2="620.00" y2="488.50" />
<line class="grid" x1="796.67" y1="295.75" x2="796.67" y2="488.50" />
<line class="grid" x1="973.33" y1="295.75" x2="973.33" y2="488.50" />
<line class="grid" x1="1150.00" y1="295.75" x2="1150.00" y2="488.50" />
<line class="axis" x1="90" y1="295.75" x2="90" y2="488.50" />
<line class="axis" x1="90" y1="488.50" x2="1150" y2="488.50" />
<path class="series" d="M 178.33 350.37 L 179.81 341.81 L 181.28 333.43 L 182.75 342.12 L 184.22 341.86 L 185.69 346.82 L 187.17 335.22 L 188.64 337.34 L 190.11 352.68 L 191.58 340.68 L 193.06 327.81 L 194.53 343.36 L 196.00 333.03 L 197.47 336.15 L 198.94 336.15 L 200.42 332.55 L 201.89 349.42 L 203.36 343.20 L 204.83 334.85 L 206.31 342.37 L 207.78 345.33 L 209.25 359.84 L 210.72 347.86 L 212.19 337.18 L 213.67 334.38 L 215.14 325.02 L 216.61 351.31 L 218.08 346.81 L 219.56 326.09 L 221.03 332.81 L 222.50 327.22 L 223.97 336.34 L 225.44 331.72 L 226.92 336.32 L 228.39 333.53 L 229.86 338.10 L 231.33 339.98 L 232.81 349.05 L 234.28 344.13 L 235.75 352.95 L 237.22 351.94 L 238.69 362.34 L 240.17 364.46 L 241.64 369.43 L 243.11 381.02 L 244.58 379.84 L 246.06 388.05 L 247.53 379.93 L 249.00 366.37 L 250.47 364.16 L 251.94 352.34 L 253.42 351.78 L 254.89 362.59 L 256.36 383.54 L 257.83 379.07 L 259.31 379.83 L 260.78 381.46 L 262.25 368.14 L 263.72 348.21 L 265.19 353.16 L 266.67 368.81 L 268.14 342.74 L 269.61 331.21 L 271.08 323.53 L 272.56 344.94 L 274.03 365.63 L 275.50 349.27 L 276.97 342.12 L 278.44 375.07 L 279.92 364.37 L 281.39 350.07 L 282.86 351.92 L 284.33 361.79 L 285.81 350.18 L 287.28 366.65 L 288.75 376.74 L 290.22 375.03 L 291.69 384.93 L 293.17 380.40 L 294.64 373.22 L 296.11 375.99 L 297.58 378.44 L 299.06 373.83 L 300.53 388.75 L 302.00 382.82 L 303.47 377.72 L 304.94 377.75 L 306.42 375.75 L 307.89 373.67 L 309.36 376.88 L 310.83 377.28 L 312.31 382.18 L 313.78 380.35 L 315.25 383.03 L 316.72 382.92 L 318.19 376.93 L 319.67 370.95 L 321.14 374.44 L 322.61 379.03 L 324.08 379.22 L 325.56 378.95 L 327.03 376.97 L 328.50 373.59 L 329.97 375.24 L 331.44 382.24 L 332.92 384.34 L 334.39 381.26 L 335.86 378.06 L 337.33 377.32 L 338.81 364.34 L 340.28 379.48 L 341.75 387.64 L 343.22 383.67 L 344.69 380.10 L 346.17 380.07 L 347.64 380.43 L 349.11 379.66 L 350.58 379.98 L 352.06 379.95 L 353.53 380.05 L 355.00 380.10 L 356.47 380.06 L 357.94 379.82 L 359.42 379.90 L 360.89 379.88 L 362.36 379.81 L 363.83 379.92 L 365.31 379.87 L 366.78 379.88 L 368.25 379.89 L 369.72 379.92 L 371.19 379.87 L 372.67 379.88 L 374.14 379.91 L 375.61 379.88 L 377.08 379.93 L 378.56 379.86 L 380.03 379.92 L 381.50 379.96 L 382.97 379.90 L 384.44 379.92 L 385.92 379.95 L 387.39 379.91 L 388.86 379.89 L 390.33 379.94 L 391.81 379.93 L 393.28 379.90 L 394.75 379.91 L 396.22 379.84 L 397.69 379.88 L 399.17 379.97 L 400.64 379.87 L 402.11 379.93 L 403.58 379.90 L 405.06 379.87 L 406.53 379.87 L 408.00 379.93 L 409.47 379.90 L 410.94 379.90 L 412.42 379.86 L 413.89 379.90 L 415.36 379.92 L 416.83 379.88 L 418.31 379.91 L 419.78 379.90 L 421.25 379.87 L 422.72 379.97 L 424.19 379.87 L 425.67 379.84 L 427.14 379.89 L 428.61 379.85 L 430.08 379.85 L 431.56 379.96 L 433.03 380.20 L 434.50 378.98 L 435.97 379.02 L 437.44 379.10 L 438.92 378.83 L 440.39 379.64 L 441.86 368.20 L 443.33 390.97 L 444.81 381.82 L 446.28 382.52 L 447.75 380.48 L 449.22 381.83 L 450.69 380.64 L 452.17 380.56 L 453.64 381.00 L 455.11 380.97 L 456.58 380.94 L 458.06 380.91 L 459.53 380.99 L 461.00 380.96 L 462.47 380.98 L 463.94 380.93 L 465.42 380.98 L 466.89 380.92 L 468.36 380.88 L 469.83 381.06 L 471.31 380.85 L 472.78 379.20 L 474.25 379.56 L 475.72 379.63 L 477.19 379.72 L 478.67 379.74 L 480.14 379.65 L 481.61 379.66 L 483.08 379.68 L 484.56 379.64 L 486.03 379.64 L 487.50 379.69 L 488.97 379.54 L 490.44 379.63 L 491.92 379.68 L 493.39 379.63 L 494.86 379.66 L 496.33 379.59 L 497.81 379.65 L 499.28 379.61 L 500.75 379.35 L 502.22 379.72 L 503.69 378.73 L 505.17 379.48 L 506.64 379.80 L 508.11 379.10 L 509.58 379.31 L 511.06 379.24 L 512.53 379.20 L 514.00 379.20 L 515.47 379.14 L 516.94 379.18 L 518.42 379.18 L 519.89 379.22 L 521.36 379.18 L 522.83 379.21 L 524.31 379.15 L 525.78 379.15 L 527.25 379.16 L 528.72 379.20 L 530.19 379.16 L 531.67 379.20 L 533.14 379.33 L 534.61 379.66 L 536.08 376.84 L 537.56 377.95 L 539.03 378.39 L 540.50 378.01 L 541.97 378.05 L 543.44 378.00 L 544.92 378.04 L 546.39 378.02 L 547.86 378.01 L 549.33 378.04 L 550.81 378.03 L 552.28 378.02 L 553.75 378.04 L 555.22 377.98 L 556.69 377.95 L 558.17 377.94 L 559.64 377.91 L 561.11 377.92 L 562.58 377.93 L 564.06 377.90 L 565.53 377.92 L 567.00 377.90 L 568.47 377.92 L 569.94 377.96 L 571.42 378.29 L 572.89 377.98 L 574.36 377.27 L 575.83 377.00 L 577.31 377.28 L 578.78 377.61 L 580.25 377.48 L 581.72 377.38 L 583.19 377.56 L 584.67 377.44 L 586.14 377.42 L 587.61 377.38 L 589.08 377.46 L 590.56 377.40 L 592.03 377.38 L 593.50 377.38 L 594.97 377.37 L 596.44 377.37 L 597.92 377.42 L 599.39 377.38 L 600.86 377.36 L 602.33 377.35 L 603.81 377.39 L 605.28 377.33 L 606.75 377.41 L 608.22 377.30 L 609.69 377.89 L 611.17 379.22 L 612.64 378.42 L 614.11 378.54 L 615.58 378.54 L 617.06 378.56 L 618.53 378.63 L 620.00 378.71 L 621.47 378.63 L 622.94 378.59 L 624.42 378.59 L 625.89 378.65 L 627.36 378.66 L 628.83 378.55 L 630.31 378.65 L 631.78 378.65 L 633.25 378.66 L 634.72 378.63 L 636.19 378.61 L 637.67 378.62 L 639.14 378.59 L 640.61 378.68 L 642.08 378.68 L 643.56 378.60 L 645.03 378.81 L 646.50 380.88 L 647.97 378.76 L 649.44 380.04 L 650.92 380.17 L 652.39 380.25 L 653.86 380.22 L 655.33 380.17 L 656.81 380.09 L 658.28 380.02 L 659.75 380.06 L 661.22 380.04 L 662.69 380.11 L 664.17 380.75 L 665.64 380.24 L 667.11 379.97 L 668.58 380.68 L 670.06 380.22 L 671.53 383.57 L 673.00 390.49 L 674.47 378.72 L 675.94 386.65 L 677.42 383.67 L 678.89 384.39 L 680.36 361.36 L 681.83 370.20 L 683.31 376.54 L 684.78 373.84 L 686.25 374.68 L 687.72 376.62 L 689.19 376.59 L 690.67 375.47 L 692.14 373.31 L 693.61 372.22 L 695.08 372.10 L 696.56 374.02 L 698.03 371.72 L 699.50 368.23 L 700.97 369.49 L 702.44 371.47 L 703.92 377.43 L 705.39 377.58 L 706.86 377.48 L 708.33 380.57 L 709.81 376.43 L 711.28 375.61 L 712.75 378.26 L 714.22 381.33 L 715.69 384.81 L 717.17 387.49 L 718.64 385.80 L 720.11 402.54 L 721.58 407.67 L 723.06 403.43 L 724.53 393.04 L 726.00 397.69 L 727.47 392.72 L 728.94 383.73 L 730.42 379.90 L 731.89 372.80 L 733.36 374.25 L 734.83 368.85 L 736.31 373.49 L 737.78 380.16 L 739.25 383.90 L 740.72 379.28 L 742.19 369.45 L 743.67 370.11 L 745.14 369.35 L 746.61 363.98 L 748.08 359.14 L 749.56 354.71 L 751.03 356.09 L 752.50 373.28 L 753.97 382.46 L 755.44 367.18 L 756.92 368.91 L 758.39 361.28 L 759.86 360.72 L 761.33 373.00 L 762.81 365.04 L 764.28 362.62 L 765.75 358.12 L 767.22 354.82 L 768.69 354.79 L 770.17 362.33 L 771.64 369.45 L 773.11 371.75 L 774.58 371.71 L 776.06 369.15 L 777.53 378.94 L 779.00 380.40 L 780.47 383.07 L 781.94 381.80 L 783.42 385.63 L 784.89 381.04 L 786.36 382.35 L 787.83 382.87 L 789.31 384.94 L 790.78 385.65 L 792.25 392.18 L 793.72 379.96 L 795.19 395.49 L 796.67 389.15 L 798.14 398.56 L 799.61 403.27 L 801.08 402.08 L 802.56 403.35 L 804.03 390.34 L 805.50 390.74 L 806.97 396.65 L 808.44 405.56 L 809.92 405.44 L 811.39 406.76 L 812.86 403.19 L 814.33 407.63 L 815.81 411.15 L 817.28 406.19 L 818.75 399.55 L 820.22 396.04 L 821.69 386.66 L 823.17 380.82 L 824.64 380.11 L 826.11 386.98 L 827.58 391.45 L 829.06 390.57 L 830.53 396.39 L 832.00 399.89 L 833.47 397.53 L 834.94 396.88 L 836.42 394.46 L 837.89 398.36 L 839.36 397.60 L 840.83 396.19 L 842.31 399.00 L 843.78 402.29 L 845.25 402.55 L 846.72 398.28 L 848.19 399.72 L 849.67 399.72 L 851.14 402.86 L 852.61 406.49 L 854.08 406.13 L 855.56 395.44 L 857.03 396.88 L 858.50 393.92 L 859.97 392.30 L 861.44 393.73 L 862.92 401.91 L 864.39 399.06 L 865.86 405.77 L 867.33 400.32 L 868.81 398.60 L 870.28 396.51 L 871.75 396.39 L 873.22 393.81 L 874.69 392.51 L 876.17 391.83 L 877.64 392.11 L 879.11 393.30 L 880.58 393.34 L 882.06 395.49 L 883.53 400.12 L 885.00 401.18 L 886.47 399.84 L 887.94 399.53 L 889.42 397.89 L 890.89 396.52 L 892.36 397.74 L 893.83 399.42 L 895.31 402.26 L 896.78 400.70 L 898.25 401.07 L 899.72 400.79 L 901.19 400.22 L 902.67 397.53 L 904.14 398.72 L 905.61 401.23 L 907.08 398.66 L 908.56 395.14 L 910.03 392.05 L 911.50 391.38 L 912.97 394.40 L 914.44 397.02 L 915.92 395.62 L 917.39 397.67 L 918.86 396.17 L 920.33 393.86 L 921.81 389.32 L 923.28 375.87 L 924.75 373.31 L 926.22 375.70 L 927.69 384.44 L 929.17 372.49 L 930.64 363.62 L 932.11 368.63 L 933.58 369.64 L 935.06 357.94 L 936.53 359.71" stroke="#2E7D32" />
<path class="series" d="M 178.33 402.38 L 179.81 403.26 L 181.28 405.86 L 182.75 404.80 L 184.22 409.36 L 185.69 414.24 L 187.17 429.16 L 188.64 429.47 L 190.11 412.30 L 191.58 422.63 L 193.06 415.90 L 194.53 409.50 L 196.00 410.95 L 197.47 415.65 L 198.94 415.65 L 200.42 414.28 L 201.89 406.94 L 203.36 403.23 L 204.83 406.40 L 206.31 413.24 L 207.78 412.24 L 209.25 424.57 L 210.72 430.19 L 212.19 434.24 L 213.67 406.62 L 215.14 392.55 L 216.61 403.99 L 218.08 415.06 L 219.56 417.66 L 221.03 410.36 L 222.50 415.78 L 223.97 424.54 L 225.44 435.53 L 226.92 440.41 L 228.39 435.23 L 229.86 438.73 L 231.33 429.26 L 232.81 431.69 L 234.28 428.99 L 235.75 427.24 L 237.22 422.11 L 238.69 423.94 L 240.17 416.27 L 241.64 411.49 L 243.11 419.18 L 244.58 411.89 L 246.06 417.22 L 247.53 413.32 L 249.00 404.34 L 250.47 407.29 L 251.94 414.61 L 253.42 412.51 L 254.89 409.85 L 256.36 400.97 L 257.83 406.22 L 259.31 405.80 L 260.78 399.68 L 262.25 397.11 L 263.72 394.82 L 265.19 392.17 L 266.67 404.47 L 268.14 410.79 L 269.61 408.51 L 271.08 410.97 L 272.56 415.86 L 274.03 417.79 L 275.50 446.35 L 276.97 441.84 L 278.44 442.29 L 279.92 438.95 L 281.39 440.07 L 282.86 432.31 L 284.33 427.37 L 285.81 405.54 L 287.28 418.40 L 288.75 416.90 L 290.22 420.01 L 291.69 421.89 L 293.17 420.25 L 294.64 420.90 L 296.11 421.07 L 297.58 424.31 L 299.06 424.52 L 300.53 420.04 L 302.00 421.52 L 303.47 421.04 L 304.94 420.97 L 306.42 415.13 L 307.89 416.97 L 309.36 427.40 L 310.83 420.98 L 312.31 424.18 L 313.78 420.85 L 315.25 420.83 L 316.72 416.76 L 318.19 419.98 L 319.67 424.52 L 321.14 411.01 L 322.61 418.86 L 324.08 417.74 L 325.56 406.91 L 327.03 410.30 L 328.50 413.05 L 329.97 415.10 L 331.44 407.38 L 332.92 410.57 L 334.39 413.39 L 335.86 410.99 L 337.33 412.48 L 338.81 409.98 L 340.28 410.55 L 341.75 414.06 L 343.22 414.00 L 344.69 413.43 L 346.17 413.60 L 347.64 413.77 L 349.11 413.41 L 350.58 413.59 L 352.06 413.51 L 353.53 413.57 L 355.00 413.58 L 356.47 413.68 L 357.94 413.58 L 359.42 413.58 L 360.89 413.55 L 362.36 413.58 L 363.83 413.57 L 365.31 413.58 L 366.78 413.60 L 368.25 413.60 L 369.72 413.60 L 371.19 413.61 L 372.67 413.53 L 374.14 413.57 L 375.61 413.60 L 377.08 413.62 L 378.56 413.62 L 380.03 413.60 L 381.50 413.60 L 382.97 413.62 L 384.44 413.62 L 385.92 413.61 L 387.39 413.56 L 388.86 413.67 L 390.33 413.65 L 391.81 413.62 L 393.28 413.64 L 394.75 413.60 L 396.22 413.66 L 397.69 413.65 L 399.17 413.63 L 400.64 413.55 L 402.11 413.70 L 403.58 413.64 L 405.06 413.62 L 406.53 413.59 L 408.00 413.59 L 409.47 413.63 L 410.94 413.63 L 412.42 413.63 L 413.89 413.59 L 415.36 413.60 L 416.83 413.64 L 418.31 413.68 L 419.78 413.62 L 421.25 413.60 L 422.72 413.63 L 424.19 413.64 L 425.67 413.66 L 427.14 413.61 L 428.61 413.61 L 430.08 413.64 L 431.56 413.68 L 433.03 413.36 L 434.50 413.95 L 435.97 413.32 L 437.44 413.70 L 438.92 413.19 L 440.39 414.69 L 441.86 411.15 L 443.33 415.74 L 444.81 414.38 L 446.28 415.97 L 447.75 413.91 L 449.22 414.78 L 450.69 414.58 L 452.17 414.65 L 453.64 414.74 L 455.11 414.68 L 456.58 414.75 L 458.06 414.56 L 459.53 414.67 L 461.00 414.74 L 462.47 414.60 L 463.94 414.67 L 465.42 414.63 L 466.89 414.70 L 468.36 414.75 L 469.83 414.49 L 471.31 415.92 L 472.78 415.79 L 474.25 414.49 L 475.72 415.71 L 477.19 415.20 L 478.67 415.40 L 480.14 415.40 L 481.61 415.36 L 483.08 415.41 L 484.56 415.29 L 486.03 415.44 L 487.50 415.50 L 488.97 415.29 L 490.44 415.33 L 491.92 415.46 L 493.39 415.38 L 494.86 415.47 L 496.33 415.40 L 497.81 415.44 L 499.28 415.37 L 500.75 415.34 L 502.22 415.84 L 503.69 416.23 L 505.17 415.77 L 506.64 414.11 L 508.11 415.15 L 509.58 416.04 L 511.06 414.91 L 512.53 414.90 L 514.00 415.60 L 515.47 415.22 L 516.94 415.08 L 518.42 415.27 L 519.89 415.33 L 521.36 415.16 L 522.83 415.28 L 524.31 415.22 L 525.78 415.20 L 527.25 415.27 L 528.72 415.30 L 530.19 415.17 L 531.67 415.23 L 533.14 415.20 L 534.61 414.67 L 536.08 415.41 L 537.56 415.33 L 539.03 415.14 L 540.50 414.74 L 541.97 414.87 L 543.44 414.91 L 544.92 414.99 L 546.39 414.96 L 547.86 414.92 L 549.33 414.91 L 550.81 414.92 L 552.28 414.96 L 553.75 415.01 L 555.22 414.92 L 556.69 414.88 L 558.17 414.96 L 559.64 414.95 L 561.11 414.94 L 562.58 414.94 L 564.06 414.94 L 565.53 414.92 L 567.00 414.96 L 568.47 414.92 L 569.94 415.09 L 571.42 415.82 L 572.89 414.43 L 574.36 414.10 L 575.83 414.44 L 577.31 414.40 L 578.78 414.38 L 580.25 414.37 L 581.72 414.35 L 583.19 414.33 L 584.67 414.36 L 586.14 414.39 L 587.61 414.36 L 589.08 414.40 L 590.56 414.32 L 592.03 414.38 L 593.50 414.36 L 594.97 414.40 L 596.44 414.32 L 597.92 414.37 L 599.39 414.34 L 600.86 414.35 L 602.33 414.37 L 603.81 414.35 L 605.28 414.33 L 606.75 414.35 L 608.22 414.44 L 609.69 415.61 L 611.17 412.86 L 612.64 414.65 L 614.11 413.81 L 615.58 414.13 L 617.06 414.19 L 618.53 413.95 L 620.00 414.17 L 621.47 414.12 L 622.94 414.07 L 624.42 414.02 L 625.89 414.09 L 627.36 414.08 L 628.83 414.08 L 630.31 414.05 L 631.78 414.05 L 633.25 414.06 L 634.72 414.08 L 636.19 414.04 L 637.67 414.10 L 639.14 414.01 L 640.61 414.10 L 642.08 414.06 L 643.56 414.05 L 645.03 413.87 L 646.50 415.00 L 647.97 413.80 L 649.44 415.11 L 650.92 414.55 L 652.39 414.67 L 653.86 414.56 L 655.33 414.52 L 656.81 414.49 L 658.28 414.50 L 659.75 414.43 L 661.22 414.43 L 662.69 414.51 L 664.17 414.15 L 665.64 414.96 L 667.11 414.43 L 668.58 415.04 L 670.06 414.45 L 671.53 414.91 L 673.00 414.34 L 674.47 412.17 L 675.94 411.49 L 677.42 411.68 L 678.89 415.69 L 680.36 413.13 L 681.83 420.15 L 683.31 416.54 L 684.78 417.74 L 686.25 416.87 L 687.72 415.67 L 689.19 416.52 L 690.67 417.81 L 692.14 416.18 L 693.61 416.35 L 695.08 416.84 L 696.56 417.59 L 698.03 416.31 L 699.50 414.85 L 700.97 413.74 L 702.44 411.35 L 703.92 412.73 L 705.39 404.96 L 706.86 412.76 L 708.33 403.90 L 709.81 413.72 L 711.28 414.92 L 712.75 400.09 L 714.22 399.93 L 715.69 412.64 L 717.17 408.25 L 718.64 403.77 L 720.11 411.02 L 721.58 418.30 L 723.06 418.00 L 724.53 418.12 L 726.00 419.39 L 727.47 413.87 L 728.94 407.79 L 730.42 406.41 L 731.89 411.05 L 733.36 405.94 L 734.83 408.29 L 736.31 411.09 L 737.78 417.31 L 739.25 422.25 L 740.72 416.39 L 742.19 412.21 L 743.67 416.45 L 745.14 411.85 L 746.61 405.62 L 748.08 407.94 L 749.56 411.10 L 751.03 411.91 L 752.50 406.52 L 753.97 409.80 L 755.44 406.21 L 756.92 399.50 L 758.39 405.60 L 759.86 404.97 L 761.33 410.62 L 762.81 412.99 L 764.28 404.99 L 765.75 402.25 L 767.22 402.16 L 768.69 399.62 L 770.17 401.77 L 771.64 399.89 L 773.11 400.08 L 774.58 402.68 L 776.06 400.69 L 777.53 394.89 L 779.00 404.04 L 780.47 402.74 L 781.94 403.01 L 783.42 409.49 L 784.89 406.90 L 786.36 395.80 L 787.83 402.81 L 789.31 405.63 L 790.78 397.70 L 792.25 398.70 L 793.72 391.27 L 795.19 395.36 L 796.67 390.88 L 798.14 386.03 L 799.61 394.06 L 801.08 404.05 L 802.56 410.42 L 804.03 400.15 L 805.50 402.39 L 806.97 402.84 L 808.44 416.21 L 809.92 411.13 L 811.39 403.83 L 812.86 409.44 L 814.33 402.98 L 815.81 404.98 L 817.28 414.94 L 818.75 405.61 L 820.22 415.98 L 821.69 409.46 L 823.17 407.27 L 824.64 409.52 L 826.11 401.18 L 827.58 400.98 L 829.06 408.92 L 830.53 410.38 L 832.00 406.09 L 833.47 412.94 L 834.94 415.84 L 836.42 415.65 L 837.89 411.55 L 839.36 409.27 L 840.83 406.57 L 842.31 406.51 L 843.78 406.98 L 845.25 408.96 L 846.72 406.35 L 848.19 406.23 L 849.67 406.23 L 851.14 404.70 L 852.61 406.00 L 854.08 407.37 L 855.56 402.71 L 857.03 407.20 L 858.50 408.47 L 859.97 405.21 L 861.44 400.92 L 862.92 399.17 L 864.39 395.51 L 865.86 398.94 L 867.33 389.13 L 868.81 387.24 L 870.28 391.77 L 871.75 393.01 L 873.22 393.59 L 874.69 394.78 L 876.17 397.53 L 877.64 406.23 L 879.11 407.01 L 880.58 413.35 L 882.06 415.10 L 883.53 414.73 L 885.00 413.32 L 886.47 415.24 L 887.94 416.75 L 889.42 416.79 L 890.89 418.71 L 892.36 417.22 L 893.83 419.82 L 895.31 417.21 L 896.78 417.16 L 898.25 413.72 L 899.72 409.70 L 901.19 406.09 L 902.67 410.56 L 904.14 415.54 L 905.61 421.54 L 907.08 425.45 L 908.56 425.95 L 910.03 428.44 L 911.50 426.02 L 912.97 419.00 L 914.44 418.62 L 915.92 414.17 L 917.39 416.53 L 918.86 417.32 L 920.33 426.80 L 921.81 429.73 L 923.28 435.11 L 924.75 438.46 L 926.22 427.47 L 927.69 403.76 L 929.17 404.76 L 930.64 403.91 L 932.11 399.26 L 933.58 408.60 L 935.06 398.48 L 936.53 403.19" stroke="#6A1B9A" />
<line x1="900.00" y1="307.75" x2="918.00" y2="307.75" stroke="#2E7D32" stroke-width="3" />
<text class="small" x="924.00" y="311.75">pitch</text>
<line x1="900.00" y1="323.75" x2="918.00" y2="323.75" stroke="#6A1B9A" stroke-width="3" />
<text class="small" x="924.00" y="327.75">roll</text>
<text x="90" y="500.50" font-size="14" font-weight="700">Aceleração (magnitude) (u.a.)</text>
<rect class="event" x="443.33" y="506.50" width="228.19" height="192.75" />
<line class="eventline" x1="443.33" y1="506.50" x2="443.33" y2="699.25" />
<line class="eventline" x1="671.53" y1="506.50" x2="671.53" y2="699.25" />
<line class="grid" x1="90" y1="699.25" x2="1150" y2="699.25" />
<text class="small" x="80" y="703.25" text-anchor="end">0.00</text>
<line class="grid" x1="90" y1="660.70" x2="1150" y2="660.70" />
<text class="small" x="80" y="664.70" text-anchor="end">0.50</text>
<line class="grid" x1="90" y1="622.15" x2="1150" y2="622.15" />
<text class="small" x="80" y="626.15" text-anchor="end">1.00</text>
<line class="grid" x1="90" y1="583.60" x2="1150" y2="583.60" />
<text class="small" x="80" y="587.60" text-anchor="end">1.50</text>
<line class="grid" x1="90" y1="545.05" x2="1150" y2="545.05" />
<text class="small" x="80" y="549.05" text-anchor="end">2.00</text>
<line class="grid" x1="90" y1="506.50" x2="1150" y2="506.50" />
<text class="small" x="80" y="510.50" text-anchor="end">2.50</text>
<line class="grid" x1="90.00" y1="506.50" x2="90.00" y2="699.25" />
<line class="grid" x1="266.67" y1="506.50" x2="266.67" y2="699.25" />
<line class="grid" x1="443.33" y1="506.50" x2="443.33" y2="699.25" />
<line class="grid" x1="620.00" y1="506.50" x2="620.00" y2="699.25" />
<line class="grid" x1="796.67" y1="506.50" x2="796.67" y2="699.25" />
<line class="grid" x1="973.33" y1="506.50" x2="973.33" y2="699.25" />
<line class="grid" x1="1150.00" y1="506.50" x2="1150.00" y2="699.25" />
<line class="axis" x1="90" y1="506.50" x2="90" y2="699.25" />
<line class="axis" x1="90" y1="699.25" x2="1150" y2="699.25" />
<path class="series" d="M 178.33 676.13 L 179.81 693.00 L 181.28 667.82 L 182.75 667.13 L 184.22 665.21 L 185.69 688.55 L 187.17 653.72 L 188.64 645.52 L 190.11 663.60 L 191.58 676.00 L 193.06 682.52 L 194.53 686.63 L 196.00 681.78 L 197.47 680.30 L 198.94 686.25 L 200.42 685.38 L 201.89 681.00 L 203.36 679.97 L 204.83 660.84 L 206.31 667.24 L 207.78 656.10 L 209.25 657.43 L 210.72 663.26 L 212.19 662.54 L 213.67 619.16 L 215.14 667.22 L 216.61 666.80 L 218.08 648.72 L 219.56 642.60 L 221.03 632.69 L 222.50 679.03 L 223.97 683.42 L 225.44 695.21 L 226.92 695.21 L 228.39 671.84 L 229.86 667.21 L 231.33 661.81 L 232.81 671.88 L 234.28 681.94 L 235.75 674.83 L 237.22 677.57 L 238.69 660.95 L 240.17 675.04 L 241.64 679.51 L 243.11 664.96 L 244.58 669.77 L 246.06 679.53 L 247.53 678.69 L 249.00 644.39 L 250.47 622.42 L 251.94 618.97 L 253.42 666.74 L 254.89 680.49 L 256.36 660.94 L 257.83 684.26 L 259.31 681.36 L 260.78 682.37 L 262.25 676.03 L 263.72 645.43 L 265.19 655.39 L 266.67 681.36 L 268.14 656.60 L 269.61 674.70 L 271.08 626.45 L 272.56 649.53 L 274.03 649.36 L 275.50 612.30 L 276.97 618.88 L 278.44 642.82 L 279.92 660.80 L 281.39 619.92 L 282.86 622.29 L 284.33 620.44 L 285.81 567.08 L 287.28 661.28 L 288.75 672.73 L 290.22 683.62 L 291.69 668.09 L 293.17 689.72 L 294.64 674.51 L 296.11 694.62 L 297.58 689.97 L 299.06 670.45 L 300.53 670.36 L 302.00 688.27 L 303.47 691.81 L 304.94 693.38 L 306.42 667.55 L 307.89 688.32 L 309.36 694.47 L 310.83 694.17 L 312.31 690.73 L 313.78 692.34 L 315.25 689.46 L 316.72 696.08 L 318.19 696.69 L 319.67 681.98 L 321.14 658.75 L 322.61 692.13 L 324.08 679.19 L 325.56 694.27 L 327.03 694.21 L 328.50 697.26 L 329.97 689.36 L 331.44 690.56 L 332.92 686.72 L 334.39 691.51 L 335.86 697.30 L 337.33 688.63 L 338.81 685.13 L 340.28 682.14 L 341.75 679.97 L 343.22 692.54 L 344.69 696.71 L 346.17 698.65 L 347.64 698.15 L 349.11 698.15 L 350.58 698.43 L 352.06 699.02 L 353.53 698.94 L 355.00 698.86 L 356.47 699.05 L 357.94 698.71 L 359.42 698.83 L 360.89 698.91 L 362.36 698.75 L 363.83 698.93 L 365.31 699.20 L 366.78 698.89 L 368.25 699.00 L 369.72 699.00 L 371.19 698.96 L 372.67 698.98 L 374.14 699.01 L 375.61 699.05 L 377.08 698.97 L 378.56 699.01 L 380.03 699.21 L 381.50 699.16 L 382.97 698.92 L 384.44 698.83 L 385.92 698.94 L 387.39 698.94 L 388.86 699.12 L 390.33 699.10 L 391.81 699.12 L 393.28 699.05 L 394.75 699.09 L 396.22 699.07 L 397.69 699.13 L 399.17 699.07 L 400.64 699.15 L 402.11 699.12 L 403.58 699.03 L 405.06 699.10 L 406.53 699.07 L 408.00 699.10 L 409.47 699.18 L 410.94 699.10 L 412.42 699.09 L 413.89 699.08 L 415.36 699.14 L 416.83 699.10 L 418.31 699.21 L 419.78 699.13 L 421.25 699.02 L 422.72 699.08 L 424.19 699.01 L 425.67 699.09 L 427.14 699.09 L 428.61 699.08 L 430.08 698.81 L 431.56 699.07 L 433.03 698.03 L 434.50 697.33 L 435.97 698.89 L 437.44 698.80 L 438.92 696.45 L 440.39 664.47 L 441.86 652.16 L 443.33 686.79 L 444.81 690.27 L 446.28 698.00 L 447.75 698.06 L 449.22 693.40 L 450.69 698.29 L 452.17 698.70 L 453.64 698.78 L 455.11 698.27 L 456.58 698.77 L 458.06 699.00 L 459.53 698.86 L 461.00 699.05 L 462.47 698.85 L 463.94 698.97 L 465.42 698.92 L 466.89 698.92 L 468.36 698.37 L 469.83 690.83 L 471.31 690.83 L 472.78 689.15 L 474.25 695.41 L 475.72 697.48 L 477.19 698.68 L 478.67 698.47 L 480.14 698.90 L 481.61 698.74 L 483.08 698.80 L 484.56 698.91 L 486.03 699.09 L 487.50 698.70 L 488.97 698.64 L 490.44 698.96 L 491.92 698.94 L 493.39 699.00 L 494.86 698.94 L 496.33 698.96 L 497.81 698.98 L 499.28 698.99 L 500.75 693.32 L 502.22 691.30 L 503.69 689.11 L 505.17 690.47 L 506.64 696.91 L 508.11 695.73 L 509.58 697.13 L 511.06 697.94 L 512.53 697.56 L 514.00 698.78 L 515.47 698.45 L 516.94 698.51 L 518.42 698.85 L 519.89 698.81 L 521.36 698.89 L 522.83 698.94 L 524.31 699.07 L 525.78 698.80 L 527.25 698.94 L 528.72 699.02 L 530.19 699.02 L 531.67 699.14 L 533.14 698.53 L 534.61 697.32 L 536.08 689.94 L 537.56 697.20 L 539.03 696.75 L 540.50 697.97 L 541.97 698.78 L 543.44 699.00 L 544.92 698.88 L 546.39 699.02 L 547.86 698.99 L 549.33 699.04 L 550.81 699.04 L 552.28 699.11 L 553.75 699.05 L 555.22 699.18 L 556.69 698.93 L 558.17 699.08 L 559.64 699.13 L 561.11 699.09 L 562.58 699.03 L 564.06 699.16 L 565.53 699.12 L 567.00 699.11 L 568.47 699.18 L 569.94 696.75 L 571.42 690.09 L 572.89 695.25 L 574.36 695.16 L 575.83 696.87 L 577.31 698.83 L 578.78 698.61 L 580.25 698.82 L 581.72 699.05 L 583.19 699.03 L 584.67 699.00 L 586.14 699.08 L 587.61 698.91 L 589.08 699.02 L 590.56 699.07 L 592.03 699.14 L 593.50 699.14 L 594.97 698.99 L 596.44 699.04 L 597.92 699.03 L 599.39 699.09 L 600.86 698.98 L 602.33 698.89 L 603.81 699.04 L 605.28 698.81 L 606.75 698.74 L 608.22 698.84 L 609.69 698.07 L 611.17 695.36 L 612.64 694.02 L 614.11 694.63 L 615.58 697.24 L 617.06 698.74 L 618.53 699.05 L 620.00 698.85 L 621.47 699.03 L 622.94 699.03 L 624.42 698.98 L 625.89 698.95 L 627.36 698.92 L 628.83 699.12 L 630.31 699.15 L 631.78 699.14 L 633.25 699.03 L 634.72 698.86 L 636.19 699.12 L 637.67 699.04 L 639.14 699.03 L 640.61 699.16 L 642.08 699.05 L 643.56 698.90 L 645.03 697.54 L 646.50 685.36 L 647.97 693.09 L 649.44 696.85 L 650.92 698.39 L 652.39 698.37 L 653.86 698.74 L 655.33 698.79 L 656.81 698.96 L 658.28 698.98 L 659.75 698.97 L 661.22 698.99 L 662.69 698.61 L 664.17 696.95 L 665.64 697.37 L 667.11 697.44 L 668.58 697.10 L 670.06 697.30 L 671.53 683.47 L 673.00 696.23 L 674.47 690.56 L 675.94 681.47 L 677.42 669.99 L 678.89 668.84 L 680.36 649.79 L 681.83 680.61 L 683.31 686.00 L 684.78 694.80 L 686.25 695.83 L 687.72 690.63 L 689.19 695.95 L 690.67 694.20 L 692.14 695.65 L 693.61 696.64 L 695.08 695.36 L 696.56 695.87 L 698.03 692.80 L 699.50 694.47 L 700.97 693.71 L 702.44 684.66 L 703.92 679.55 L 705.39 683.42 L 706.86 685.92 L 708.33 670.63 L 709.81 658.74 L 711.28 655.99 L 712.75 678.05 L 714.22 674.47 L 715.69 683.54 L 717.17 691.48 L 718.64 691.48 L 720.11 684.46 L 721.58 691.67 L 723.06 664.92 L 724.53 664.57 L 726.00 674.85 L 727.47 687.60 L 728.94 687.40 L 730.42 682.43 L 731.89 687.97 L 733.36 674.30 L 734.83 676.96 L 736.31 680.39 L 737.78 678.20 L 739.25 678.24 L 740.72 673.32 L 742.19 680.93 L 743.67 690.43 L 745.14 679.05 L 746.61 696.76 L 748.08 682.79 L 749.56 670.91 L 751.03 655.13 L 752.50 661.71 L 753.97 642.65 L 755.44 663.54 L 756.92 664.02 L 758.39 654.02 L 759.86 671.83 L 761.33 659.96 L 762.81 674.83 L 764.28 656.40 L 765.75 668.45 L 767.22 672.38 L 768.69 670.64 L 770.17 665.62 L 771.64 676.93 L 773.11 682.72 L 774.58 692.02 L 776.06 668.76 L 777.53 682.29 L 779.00 692.48 L 780.47 696.01 L 781.94 692.42 L 783.42 693.75 L 784.89 683.82 L 786.36 672.25 L 787.83 690.39 L 789.31 693.31 L 790.78 690.23 L 792.25 685.54 L 793.72 660.90 L 795.19 688.67 L 796.67 675.83 L 798.14 689.60 L 799.61 687.10 L 801.08 689.74 L 802.56 674.65 L 804.03 660.89 L 805.50 682.30 L 806.97 695.76 L 808.44 668.08 L 809.92 683.71 L 811.39 676.42 L 812.86 686.87 L 814.33 690.51 L 815.81 688.74 L 817.28 682.89 L 818.75 666.31 L 820.22 688.28 L 821.69 685.75 L 823.17 692.29 L 824.64 675.85 L 826.11 692.80 L 827.58 684.45 L 829.06 687.11 L 830.53 680.35 L 832.00 673.11 L 833.47 694.10 L 834.94 691.80 L 836.42 683.05 L 837.89 688.49 L 839.36 685.77 L 840.83 686.22 L 842.31 692.25 L 843.78 694.01 L 845.25 694.01 L 846.72 692.14 L 848.19 683.39 L 849.67 694.82 L 851.14 690.84 L 852.61 688.58 L 854.08 678.89 L 855.56 673.09 L 857.03 686.08 L 858.50 689.89 L 859.97 675.24 L 861.44 677.21 L 862.92 686.83 L 864.39 689.78 L 865.86 689.88 L 867.33 686.29 L 868.81 692.18 L 870.28 688.52 L 871.75 684.82 L 873.22 687.31 L 874.69 688.14 L 876.17 690.08 L 877.64 692.69 L 879.11 692.06 L 880.58 690.42 L 882.06 696.67 L 883.53 688.70 L 885.00 694.45 L 886.47 691.14 L 887.94 692.69 L 889.42 692.43 L 890.89 695.91 L 892.36 694.92 L 893.83 692.13 L 895.31 687.80 L 896.78 690.54 L 898.25 697.12 L 899.72 689.18 L 901.19 692.21 L 902.67 693.93 L 904.14 684.24 L 905.61 683.24 L 907.08 682.48 L 908.56 696.94 L 910.03 697.02 L 911.50 693.33 L 912.97 696.64 L 914.44 691.59 L 915.92 686.68 L 917.39 692.81 L 918.86 681.13 L 920.33 694.56 L 921.81 688.82 L 923.28 679.73 L 924.75 687.02 L 926.22 657.14 L 927.69 666.11 L 929.17 680.07 L 930.64 677.06 L 932.11 688.81 L 933.58 678.05 L 935.06 669.34 L 936.53 689.13" stroke="#FB8C00" />
<text x="90" y="711.25" font-size="14" font-weight="700">Giroscópio (magnitude) (u.a.)</text>
<rect class="event" x="443.33" y="717.25" width="228.19" height="192.75" />
<line class="eventline" x1="443.33" y1="717.25" x2="443.33" y2="910.00" />
<line class="eventline" x1="671.53" y1="717.25" x2="671.53" y2="910.00" />
<line class="grid" x1="90" y1="910.00" x2="1150" y2="910.00" />
<text class="small" x="80" y="914.00" text-anchor="end">0.00</text>
<line class="grid" x1="90" y1="871.45" x2="1150" y2="871.45" />
<text class="small" x="80" y="875.45" text-anchor="end">0.10</text>
<line class="grid" x1="90" y1="832.90" x2="1150" y2="832.90" />
<text class="small" x="80" y="836.90" text-anchor="end">0.20</text>
<line class="grid" x1="90" y1="794.35" x2="1150" y2="794.35" />
<text class="small" x="80" y="798.35" text-anchor="end">0.30</text>
<line class="grid" x1="90" y1="755.80" x2="1150" y2="755.80" />
<text class="small" x="80" y="759.80" text-anchor="end">0.40</text>
<line class="grid" x1="90" y1="717.25" x2="1150" y2="717.25" />
<text class="small" x="80" y="721.25" text-anchor="end">0.50</text>
<line class="grid" x1="90.00" y1="717.25" x2="90.00" y2="910.00" />
<line class="grid" x1="266.67" y1="717.25" x2="266.67" y2="910.00" />
<line class="grid" x1="443.33" y1="717.25" x2="443.33" y2="910.00" />
<line class="grid" x1="620.00" y1="717.25" x2="620.00" y2="910.00" />
<line class="grid" x1="796.67" y1="717.25" x2="796.67" y2="910.00" />
<line class="grid" x1="973.33" y1="717.25" x2="973.33" y2="910.00" />
<line class="grid" x1="1150.00" y1="717.25" x2="1150.00" y2="910.00" />
<line class="axis" x1="90" y1="717.25" x2="90" y2="910.00" />
<line class="axis" x1="90" y1="910.00" x2="1150" y2="910.00" />
<path class="series" d="M 178.33 900.61 L 179.81 898.34 L 181.28 896.60 L 182.75 897.24 L 184.22 895.25 L 185.69 895.38 L 187.17 893.49 L 188.64 899.23 L 190.11 884.82 L 191.58 890.65 L 193.06 896.88 L 194.53 898.01 L 196.00 903.84 L 197.47 901.25 L 198.94 905.45 L 200.42 895.70 L 201.89 906.36 L 203.36 900.45 L 204.83 888.78 L 206.31 888.15 L 207.78 878.10 L 209.25 871.34 L 210.72 849.23 L 212.19 831.59 L 213.67 844.82 L 215.14 859.01 L 216.61 843.50 L 218.08 822.67 L 219.56 821.54 L 221.03 834.21 L 222.50 849.67 L 223.97 862.00 L 225.44 854.56 L 226.92 854.56 L 228.39 837.27 L 229.86 843.71 L 231.33 854.86 L 232.81 868.97 L 234.28 869.66 L 235.75 873.08 L 237.22 885.73 L 238.69 894.73 L 240.17 887.36 L 241.64 890.66 L 243.11 887.37 L 244.58 899.69 L 246.06 897.52 L 247.53 900.41 L 249.00 888.83 L 250.47 886.99 L 251.94 864.92 L 253.42 887.78 L 254.89 869.89 L 256.36 895.21 L 257.83 887.29 L 259.31 886.08 L 260.78 878.81 L 262.25 871.77 L 263.72 878.27 L 265.19 867.12 L 266.67 872.85 L 268.14 861.67 L 269.61 860.76 L 271.08 888.84 L 272.56 887.26 L 274.03 878.68 L 275.50 874.05 L 276.97 846.95 L 278.44 820.51 L 279.92 805.18 L 281.39 792.05 L 282.86 801.48 L 284.33 823.48 L 285.81 864.82 L 287.28 907.76 L 288.75 908.20 L 290.22 903.84 L 291.69 908.38 L 293.17 909.52 L 294.64 907.97 L 296.11 905.54 L 297.58 905.56 L 299.06 899.13 L 300.53 898.51 L 302.00 896.00 L 303.47 894.09 L 304.94 878.56 L 306.42 883.56 L 307.89 894.37 L 309.36 897.62 L 310.83 894.23 L 312.31 885.88 L 313.78 886.08 L 315.25 876.51 L 316.72 887.13 L 318.19 886.39 L 319.67 881.45 L 321.14 876.11 L 322.61 881.66 L 324.08 886.13 L 325.56 891.05 L 327.03 893.74 L 328.50 898.95 L 329.97 901.87 L 331.44 908.33 L 332.92 908.09 L 334.39 909.24 L 335.86 909.69 L 337.33 907.69 L 338.81 907.23 L 340.28 903.51 L 341.75 908.34 L 343.22 909.45 L 344.69 909.82 L 346.17 909.79 L 347.64 909.60 L 349.11 909.60 L 350.58 909.81 L 352.06 909.83 L 353.53 909.80 L 355.00 909.83 L 356.47 909.80 L 357.94 909.82 L 359.42 909.79 L 360.89 909.78 L 362.36 909.78 L 363.83 909.83 L 365.31 909.76 L 366.78 909.77 L 368.25 909.82 L 369.72 909.81 L 371.19 909.83 L 372.67 909.81 L 374.14 909.77 L 375.61 909.74 L 377.08 909.84 L 378.56 909.93 L 380.03 909.96 L 381.50 909.97 L 382.97 909.96 L 384.44 909.93 L 385.92 909.95 L 387.39 909.98 L 388.86 909.92 L 390.33 909.83 L 391.81 909.85 L 393.28 909.86 L 394.75 909.85 L 396.22 909.84 L 397.69 909.88 L 399.17 909.97 L 400.64 909.93 L 402.11 909.86 L 403.58 909.93 L 405.06 909.93 L 406.53 909.94 L 408.00 909.89 L 409.47 909.94 L 410.94 909.92 L 412.42 909.92 L 413.89 909.94 L 415.36 909.87 L 416.83 909.89 L 418.31 909.87 L 419.78 909.88 L 421.25 909.87 L 422.72 909.89 L 424.19 909.93 L 425.67 909.95 L 427.14 909.89 L 428.61 909.90 L 430.08 909.74 L 431.56 909.83 L 433.03 908.75 L 434.50 909.76 L 435.97 909.84 L 437.44 909.82 L 438.92 908.18 L 440.39 907.91 L 441.86 903.76 L 443.33 908.38 L 444.81 909.56 L 446.28 909.31 L 447.75 909.88 L 449.22 909.43 L 450.69 909.57 L 452.17 909.83 L 453.64 909.78 L 455.11 909.85 L 456.58 909.75 L 458.06 909.79 L 459.53 909.79 L 461.00 909.80 L 462.47 909.82 L 463.94 909.81 L 465.42 909.76 L 466.89 909.85 L 468.36 909.68 L 469.83 907.86 L 471.31 907.86 L 472.78 908.62 L 474.25 909.12 L 475.72 909.79 L 477.19 909.77 L 478.67 909.82 L 480.14 909.79 L 481.61 909.86 L 483.08 909.77 L 484.56 909.83 L 486.03 909.75 L 487.50 909.83 L 488.97 909.83 L 490.44 909.85 L 491.92 909.78 L 493.39 909.80 L 494.86 909.82 L 496.33 909.78 L 497.81 909.83 L 499.28 909.81 L 500.75 909.24 L 502.22 909.38 L 503.69 908.97 L 505.17 909.63 L 506.64 909.40 L 508.11 909.83 L 509.58 909.73 L 511.06 909.78 L 512.53 909.93 L 514.00 909.88 L 515.47 909.85 L 516.94 909.80 L 518.42 909.91 L 519.89 909.93 L 521.36 909.87 L 522.83 909.91 L 524.31 909.94 L 525.78 909.96 L 527.25 909.92 L 528.72 909.93 L 530.19 909.92 L 531.67 909.98 L 533.14 909.94 L 534.61 909.00 L 536.08 909.09 L 537.56 909.93 L 539.03 909.89 L 540.50 909.86 L 541.97 909.87 L 543.44 909.97 L 544.92 909.88 L 546.39 909.89 L 547.86 909.89 L 549.33 909.89 L 550.81 909.92 L 552.28 909.89 L 553.75 909.95 L 555.22 909.90 L 556.69 909.94 L 558.17 909.92 L 559.64 909.93 L 561.11 909.93 L 562.58 909.89 L 564.06 909.96 L 565.53 909.94 L 567.00 909.93 L 568.47 909.85 L 569.94 909.76 L 571.42 908.93 L 572.89 909.32 L 574.36 909.69 L 575.83 909.89 L 577.31 909.87 L 578.78 909.93 L 580.25 909.90 L 581.72 909.95 L 583.19 909.90 L 584.67 909.90 L 586.14 909.90 L 587.61 909.90 L 589.08 909.95 L 590.56 909.89 L 592.03 909.91 L 593.50 909.91 L 594.97 909.95 L 596.44 909.91 L 597.92 909.95 L 599.39 909.95 L 600.86 909.91 L 602.33 909.92 L 603.81 909.98 L 605.28 909.95 L 606.75 909.90 L 608.22 909.92 L 609.69 908.86 L 611.17 908.58 L 612.64 909.57 L 614.11 909.86 L 615.58 909.95 L 617.06 909.93 L 618.53 909.80 L 620.00 909.91 L 621.47 909.78 L 622.94 909.82 L 624.42 909.78 L 625.89 909.94 L 627.36 909.94 L 628.83 909.87 L 630.31 909.88 L 631.78 909.87 L 633.25 909.89 L 634.72 909.88 L 636.19 909.89 L 637.67 909.89 L 639.14 909.92 L 640.61 909.92 L 642.08 909.89 L 643.56 909.88 L 645.03 907.87 L 646.50 909.56 L 647.97 909.32 L 649.44 909.89 L 650.92 909.86 L 652.39 909.89 L 653.86 909.91 L 655.33 909.91 L 656.81 909.91 L 658.28 909.82 L 659.75 909.97 L 661.22 909.91 L 662.69 909.83 L 664.17 909.69 L 665.64 909.60 L 667.11 909.77 L 668.58 909.69 L 670.06 909.65 L 671.53 907.86 L 673.00 904.24 L 674.47 906.56 L 675.94 902.18 L 677.42 905.60 L 678.89 903.43 L 680.36 904.27 L 681.83 906.28 L 683.31 905.14 L 684.78 909.03 L 686.25 908.25 L 687.72 909.40 L 689.19 908.00 L 690.67 907.57 L 692.14 908.26 L 693.61 907.69 L 695.08 908.62 L 696.56 906.88 L 698.03 905.82 L 699.50 908.55 L 700.97 908.12 L 702.44 906.01 L 703.92 900.44 L 705.39 903.47 L 706.86 896.35 L 708.33 894.73 L 709.81 885.16 L 711.28 890.82 L 712.75 898.10 L 714.22 897.77 L 715.69 893.69 L 717.17 893.68 L 718.64 893.68 L 720.11 884.07 L 721.58 895.70 L 723.06 899.69 L 724.53 897.92 L 726.00 899.22 L 727.47 896.62 L 728.94 893.85 L 730.42 892.71 L 731.89 893.67 L 733.36 892.55 L 734.83 887.85 L 736.31 890.96 L 737.78 887.39 L 739.25 882.43 L 740.72 886.44 L 742.19 888.25 L 743.67 896.75 L 745.14 896.11 L 746.61 896.09 L 748.08 893.45 L 749.56 892.32 L 751.03 888.96 L 752.50 878.16 L 753.97 900.56 L 755.44 885.18 L 756.92 886.72 L 758.39 898.53 L 759.86 896.81 L 761.33 887.99 L 762.81 890.24 L 764.28 892.47 L 765.75 892.48 L 767.22 894.97 L 768.69 894.88 L 770.17 898.45 L 771.64 903.08 L 773.11 906.21 L 774.58 907.25 L 776.06 902.91 L 777.53 900.41 L 779.00 897.34 L 780.47 898.67 L 781.94 898.03 L 783.42 895.03 L 784.89 895.83 L 786.36 883.63 L 787.83 866.61 L 789.31 863.43 L 790.78 867.52 L 792.25 866.82 L 793.72 864.12 L 795.19 867.24 L 796.67 862.90 L 798.14 864.97 L 799.61 856.24 L 801.08 866.40 L 802.56 875.48 L 804.03 870.79 L 805.50 865.63 L 806.97 851.37 L 808.44 852.86 L 809.92 870.70 L 811.39 873.62 L 812.86 868.86 L 814.33 866.34 L 815.81 871.38 L 817.28 871.03 L 818.75 872.35 L 820.22 868.94 L 821.69 866.81 L 823.17 874.65 L 824.64 881.66 L 826.11 887.74 L 827.58 891.62 L 829.06 897.66 L 830.53 896.90 L 832.00 897.04 L 833.47 896.39 L 834.94 896.69 L 836.42 900.92 L 837.89 903.62 L 839.36 903.04 L 840.83 904.80 L 842.31 904.81 L 843.78 906.89 L 845.25 906.89 L 846.72 908.03 L 848.19 906.16 L 849.67 908.65 L 851.14 905.69 L 852.61 907.34 L 854.08 904.67 L 855.56 904.17 L 857.03 901.70 L 858.50 905.83 L 859.97 904.19 L 861.44 903.14 L 862.92 900.00 L 864.39 903.81 L 865.86 902.78 L 867.33 901.19 L 868.81 900.26 L 870.28 903.91 L 871.75 903.70 L 873.22 904.85 L 874.69 903.41 L 876.17 902.15 L 877.64 902.67 L 879.11 900.29 L 880.58 906.67 L 882.06 903.79 L 883.53 903.83 L 885.00 904.43 L 886.47 904.76 L 887.94 903.86 L 889.42 903.72 L 890.89 904.14 L 892.36 901.40 L 893.83 899.98 L 895.31 904.08 L 896.78 900.60 L 898.25 893.00 L 899.72 894.81 L 901.19 896.91 L 902.67 900.11 L 904.14 901.65 L 905.61 899.13 L 907.08 903.45 L 908.56 899.74 L 910.03 903.45 L 911.50 898.70 L 912.97 903.11 L 914.44 906.75 L 915.92 904.22 L 917.39 901.57 L 918.86 897.51 L 920.33 896.49 L 921.81 893.19 L 923.28 893.94 L 924.75 888.72 L 926.22 880.80 L 927.69 888.25 L 929.17 879.56 L 930.64 875.38 L 932.11 875.38 L 933.58 866.86 L 935.06 869.49 L 936.53 871.84" stroke="#E53935" />
<text x="620.00" y="952" font-size="15" text-anchor="middle">minutos (relativo ao início do evento)</text>
<text class="small" x="90.00" y="936" text-anchor="middle">-4.00</text>
<text class="small" x="266.67" y="936" text-anchor="middle">-2.00</text>
<text class="small" x="443.33" y="936" text-anchor="middle">0.00</text>
<text class="small" x="620.00" y="936" text-anchor="middle">2.00</text>
<text class="small" x="796.67" y="936" text-anchor="middle">4.00</text>
<text class="small" x="973.33" y="936" text-anchor="middle">6.00</text>
<text class="small" x="1150.00" y="936" text-anchor="middle">8.00</text>
</svg>