<?xml version="1.0" encoding="UTF-8"?>
<svg xmlns="http://www.w3.org/2000/svg" width="1180" height="980" viewBox="0 0 1180 980">
<style>
text { font-family: -apple-system, BlinkMacSystemFont, 'Segoe UI', Roboto, Helvetica, Arial, sans-serif; fill: #111; }
.small { font-size: 12px; fill: #222; }
.title { font-size: 18px; font-weight: 700; }
.axis { stroke: #111; stroke-width: 1.4; }
.grid { stroke: #E6E6E6; stroke-width: 1; }
.event { fill: #FFEB3B; fill-opacity: 0.18; }
.eventline { stroke: #F9A825; stroke-width: 1.2; stroke-dasharray: 4 3; }
.series { fill: none; stroke-width: 1.8; }
</style>
<text class="title" x="90" y="34">ciclo 2 — espera_carregamento — 2025-12-12T13:02:54-03:00 → 2025-12-12T13:08:10-03:00 (span 316s, dur 317s)</text>
<text class="small" x="90" y="54">GPS: -11.698725,-47.155164  hotspot: -11.699,-47.155</text>
<text class="small" x="90" y="70">Janela: -3.00 → 8.27 min (relativo ao início do evento)</text>
<text x="90" y="79.00" font-size="14" font-weight="700">Velocidade (km/h)</text>
<rect class="event" x="392.86" y="85.00" width="398.76" height="192.75" />
<line class="eventline" x1="392.86" y1="85.00" x2="392.86" y2="277.75" />
<line class="eventline" x1="791.62" y1="85.00" x2="791.62" y2="277.75" />
<line class="grid" x1="90" y1="277.75" x2="1150" y2="277.75" />
<text class="small" x="80" y="281.75" text-anchor="end">0.00</text>
<line class="grid" x1="90" y1="239.20" x2="1150" y2="239.20" />
<text class="small" x="80" y="243.20" text-anchor="end">10.0</text>
<line class="grid" x1="90" y1="200.65" x2="1150" y2="200.65" />
<text class="small" x="80" y="204.65" text-anchor="end">20.0</text>
<line class="grid" x1="90" y1="162.10" x2="1150" y2="162.10" />
<text class="small" x="80" y="166.10" text-anchor="end">30.0</text>
<line class="grid" x1="90" y1="123.55" x2="1150" y2="123.55" />
<text class="small" x="80" y="127.55" text-anchor="end">40.0</text>
<line class="grid" x1="90" y1="85.00" x2="1150" y2="85.00" />
<text class="small" x="80" y="89.00" text-anchor="end">50.0</text>
<line class="grid" x1="90.00" y1="85.00" x2="90.00" y2="277.75" />
<line class="grid" x1="241.43" y1="85.00" x2="241.43" y2="277.75" />
<line class="grid" x1="392.86" y1="85.00" x2="392.86" y2="277.75" />
<line class="grid" x1="544.29" y1="85.00" x2="544.29" y2="277.75" />
<line class="grid" x1="695.71" y1="85.00" x2="695.71" y2="277.75" />
<line class="grid" x1="847.14" y1="85.00" x2="847.14" y2="277.75" />
<line class="grid" x1="998.57" y1="85.00" x2="998.57" y2="277.75" />
<line class="grid" x1="1150.00" y1="85.00" x2="1150.00" y2="277.75" />
<line class="axis" x1="90" y1="85.00" x2="90" y2="277.75" />
<line class="axis" x1="90" y1="277.75" x2="1150" y2="277.75" />
<path class="series" d="M 165.71 206.97 L 166.98 206.69 L 168.24 205.17 L 169.50 204.34 L 170.76 202.67 L 172.02 204.20 L 173.29 205.17 L 174.55 210.44 L 175.81 216.41 L 177.07 221.41 L 178.33 228.76 L 179.60 219.88 L 180.86 221.27 L 182.12 229.45 L 183.38 214.05 L 184.64 213.08 L 185.90 214.33 L 187.17 217.52 L 188.43 216.55 L 189.69 218.91 L 190.95 221.27 L 192.21 218.77 L 193.48 210.58 L 194.74 204.75 L 196.00 211.83 L 197.26 208.64 L 198.52 208.92 L 199.79 209.33 L 201.05 210.44 L 202.31 208.92 L 203.57 199.20 L 204.83 177.97 L 206.10 184.07 L 207.36 178.80 L 208.62 183.10 L 209.88 193.93 L 211.14 196.98 L 212.40 198.78 L 213.67 217.10 L 214.93 220.30 L 216.19 237.09 L 217.45 231.26 L 218.71 232.09 L 219.98 229.59 L 221.24 222.38 L 222.50 225.99 L 223.76 224.60 L 225.02 236.12 L 226.29 221.54 L 227.55 238.75 L 228.81 233.76 L 230.07 241.53 L 231.33 248.61 L 232.60 244.17 L 233.86 243.61 L 235.12 240.70 L 236.38 236.39 L 237.64 235.28 L 238.90 233.48 L 240.17 235.14 L 241.43 237.23 L 242.69 236.81 L 243.95 235.28 L 245.21 233.20 L 246.48 233.34 L 247.74 234.03 L 249.00 230.56 L 250.26 229.45 L 251.52 230.29 L 252.79 232.09 L 254.05 231.12 L 255.31 229.04 L 256.57 221.13 L 257.83 213.36 L 259.10 212.80 L 260.36 219.05 L 261.62 215.02 L 262.88 215.44 L 264.14 217.80 L 265.40 216.96 L 266.67 219.74 L 267.93 224.60 L 269.19 225.29 L 270.45 226.96 L 271.71 220.30 L 272.98 224.46 L 274.24 221.96 L 275.50 233.76 L 276.76 230.98 L 278.02 235.14 L 279.29 233.34 L 280.55 233.34 L 281.81 235.84 L 283.07 240.97 L 284.33 241.25 L 285.60 253.88 L 286.86 247.63 L 288.12 249.02 L 289.38 245.83 L 290.64 249.58 L 291.90 246.94 L 293.17 246.39 L 294.43 248.74 L 295.69 256.93 L 296.95 256.24 L 298.21 253.60 L 299.48 255.82 L 300.74 260.96 L 302.00 264.01 L 303.26 266.09 L 304.52 262.21 L 305.79 264.98 L 307.05 265.12 L 308.31 268.73 L 309.57 267.90 L 310.83 267.76 L 312.10 265.81 L 313.36 266.09 L 314.62 265.54 L 315.88 264.70 L 317.14 266.65 L 318.40 266.93 L 319.67 268.31 L 320.93 267.90 L 322.19 267.90 L 323.45 267.34 L 324.71 265.81 L 325.98 267.62 L 327.24 267.34 L 328.50 267.76 L 329.76 268.45 L 331.02 269.01 L 332.29 269.01 L 333.55 270.95 L 334.81 268.31 L 336.07 269.84 L 337.33 268.87 L 338.60 270.95 L 339.86 272.75 L 341.12 270.53 L 342.38 269.98 L 343.64 269.01 L 344.90 270.53 L 346.17 271.64 L 347.43 272.34 L 348.69 271.09 L 349.95 272.62 L 351.21 272.48 L 352.48 270.26 L 353.74 269.98 L 355.00 270.26 L 356.26 271.92 L 357.52 269.70 L 358.79 269.70 L 360.05 270.39 L 361.31 270.67 L 362.57 270.95 L 363.83 268.45 L 365.10 269.28 L 366.36 268.04 L 367.62 268.73 L 368.88 270.53 L 370.14 270.67 L 371.40 268.17 L 372.67 264.43 L 373.93 266.23 L 375.19 277.75 L 376.45 277.75 L 377.71 277.75 L 378.98 277.75 L 380.24 277.75 L 381.50 277.75 L 382.76 270.53 L 384.02 273.03 L 385.29 270.81 L 386.55 270.53 L 387.81 272.06 L 389.07 273.17 L 390.33 272.75 L 391.60 275.25 L 392.86 277.75 L 394.12 277.75 L 395.38 277.75 L 396.64 277.75 L 397.90 277.75 L 399.17 277.75 L 400.43 277.75 L 401.69 277.75 L 402.95 277.75 L 404.21 277.75 L 405.48 277.75 L 406.74 277.75 L 408.00 277.75 L 409.26 277.75 L 410.52 277.75 L 411.79 277.75 L 413.05 277.75 L 414.31 277.75 L 415.57 277.75 L 416.83 277.75 L 418.10 277.75 L 419.36 277.75 L 420.62 277.75 L 421.88 277.75 L 423.14 277.75 L 424.40 277.75 L 425.67 277.75 L 426.93 277.75 L 428.19 277.75 L 429.45 277.75 L 430.71 277.75 L 431.98 277.75 L 433.24 277.75 L 434.50 277.75 L 435.76 277.75 L 437.02 277.75 L 438.29 277.75 L 439.55 277.75 L 440.81 277.75 L 442.07 277.75 L 443.33 277.75 L 444.60 277.75 L 445.86 277.75 L 447.12 277.75 L 448.38 277.75 L 449.64 277.75 L 450.90 277.75 L 452.17 277.75 L 453.43 277.75 L 454.69 277.75 L 455.95 277.75 L 457.21 277.75 L 458.48 277.75 L 459.74 277.75 L 461.00 277.75 L 462.26 277.75 L 463.52 277.75 L 464.79 277.75 L 466.05 277.75 L 467.31 277.75 L 468.57 277.75 L 469.83 277.75 L 471.10 277.75 L 472.36 277.75 L 473.62 277.75 L 474.88 277.75 L 476.14 277.75 L 477.40 277.75 L 478.67 277.75 L 479.93 277.75 L 481.19 277.75 L 482.45 277.75 L 483.71 277.75 L 484.98 277.75 L 486.24 277.75 L 487.50 277.75 L 488.76 277.75 L 490.02 277.75 L 491.29 277.75 L 492.55 277.75 L 493.81 277.75 L 495.07 277.75 L 496.33 277.75 L 497.60 277.75 L 498.86 277.75 L 500.12 277.75 L 501.38 277.75 L 502.64 277.75 L 503.90 277.75 L 505.17 277.75 L 506.43 277.75 L 507.69 277.75 L 508.95 277.75 L 510.21 277.75 L 511.48 277.75 L 512.74 277.75 L 514.00 277.75 L 515.26 277.75 L 516.52 277.75 L 517.79 277.75 L 519.05 277.75 L 520.31 277.75 L 521.57 277.75 L 522.83 277.75 L 524.10 277.75 L 525.36 277.75 L 526.62 277.75 L 527.88 277.75 L 529.14 277.75 L 530.40 277.75 L 531.67 277.75 L 532.93 277.75 L 534.19 277.75 L 535.45 277.75 L 536.71 277.75 L 537.98 277.75 L 539.24 277.75 L 540.50 277.75 L 541.76 277.75 L 543.02 277.75 L 544.29 277.75 L 545.55 277.75 L 546.81 277.75 L 548.07 277.75 L 549.33 277.75 L 550.60 277.75 L 551.86 277.75 L 553.12 277.75 L 554.38 277.75 L 555.64 277.75 L 556.90 277.75 L 558.17 277.75 L 559.43 277.75 L 560.69 277.75 L 561.95 277.75 L 563.21 277.75 L 564.48 277.75 L 565.74 277.75 L 567.00 277.75 L 568.26 277.75 L 569.52 277.75 L 570.79 277.75 L 572.05 277.75 L 573.31 277.75 L 574.57 277.75 L 575.83 277.75 L 577.10 277.75 L 578.36 277.75 L 579.62 277.75 L 580.88 277.75 L 582.14 277.75 L 583.40 277.75 L 584.67 277.75 L 585.93 277.75 L 587.19 277.75 L 588.45 277.75 L 589.71 277.75 L 590.98 277.75 L 592.24 277.75 L 593.50 277.75 L 594.76 277.75 L 596.02 277.75 L 597.29 277.75 L 598.55 277.75 L 599.81 277.75 L 601.07 277.75 L 602.33 277.75 L 603.60 277.75 L 604.86 277.75 L 606.12 277.75 L 607.38 277.75 L 608.64 277.75 L 609.90 277.75 L 611.17 277.75 L 612.43 277.75 L 613.69 277.75 L 614.95 277.75 L 616.21 277.75 L 617.48 277.75 L 618.74 277.75 L 620.00 277.75 L 621.26 277.75 L 622.52 277.75 L 623.79 277.75 L 625.05 277.75 L 626.31 277.75 L 627.57 277.75 L 628.83 277.75 L 630.10 277.75 L 631.36 277.75 L 632.62 277.75 L 633.88 277.75 L 635.14 277.75 L 636.40 277.75 L 637.67 277.75 L 638.93 277.75 L 640.19 277.75 L 641.45 277.75 L 642.71 277.75 L 643.98 277.75 L 645.24 277.75 L 646.50 277.75 L 647.76 277.75 L 649.02 277.75 L 650.29 277.75 L 651.55 277.75 L 652.81 277.75 L 654.07 277.75 L 655.33 277.75 L 656.60 277.75 L 657.86 277.75 L 659.12 277.75 L 660.38 277.75 L 661.64 277.75 L 662.90 277.75 L 664.17 277.75 L 665.43 277.75 L 666.69 277.75 L 667.95 277.75 L 669.21 277.75 L 670.48 277.75 L 671.74 277.75 L 673.00 277.75 L 674.26 277.75 L 675.52 277.75 L 676.79 277.75 L 678.05 277.75 L 679.31 277.75 L 680.57 277.75 L 681.83 277.75 L 683.10 277.75 L 684.36 277.75 L 685.62 277.75 L 686.88 277.75 L 688.14 277.75 L 689.40 277.75 L 690.67 277.75 L 691.93 277.75 L 693.19 277.75 L 694.45 277.75 L 695.71 277.75 L 696.98 277.75 L 698.24 277.75 L 699.50 277.75 L 700.76 277.75 L 702.02 277.75 L 703.29 277.75 L 704.55 277.75 L 705.81 277.75 L 707.07 277.75 L 708.33 277.75 L 709.60 277.75 L 710.86 277.75 L 712.12 277.75 L 713.38 277.75 L 714.64 277.75 L 715.90 277.75 L 717.17 277.75 L 718.43 277.75 L 719.69 277.75 L 720.95 277.75 L 722.21 277.75 L 723.48 277.75 L 724.74 277.75 L 726.00 277.75 L 727.26 277.75 L 728.52 277.75 L 729.79 277.75 L 731.05 277.75 L 732.31 277.75 L 733.57 277.75 L 734.83 277.75 L 736.10 277.75 L 737.36 277.75 L 738.62 277.75 L 739.88 277.75 L 741.14 277.75 L 742.40 277.75 L 743.67 277.75 L 744.93 277.75 L 746.19 277.75 L 747.45 277.75 L 748.71 277.75 L 749.98 277.75 L 751.24 277.75 L 752.50 277.75 L 753.76 277.75 L 755.02 277.75 L 756.29 277.75 L 757.55 277.75 L 758.81 277.75 L 760.07 277.75 L 761.33 277.75 L 762.60 277.75 L 763.86 277.75 L 765.12 277.75 L 766.38 277.75 L 767.64 277.75 L 768.90 277.75 L 770.17 277.75 L 771.43 277.75 L 772.69 277.75 L 773.95 277.75 L 775.21 277.75 L 776.48 277.75 L 777.74 277.75 L 779.00 277.75 L 780.26 277.75 L 781.52 277.75 L 782.79 277.75 L 784.05 277.75 L 785.31 277.75 L 786.57 277.75 L 787.83 277.75 L 789.10 277.75 L 790.36 277.75 L 791.62 277.75 L 792.88 273.86 L 794.14 268.73 L 795.40 268.73 L 796.67 265.81 L 797.93 265.95 L 799.19 264.57 L 800.45 263.04 L 801.71 264.43 L 802.98 264.43 L 804.24 264.01 L 805.50 264.29 L 806.76 262.76 L 808.02 262.76 L 809.29 262.76 L 810.55 263.32 L 811.81 258.46 L 813.07 265.81 L 814.33 264.01 L 815.60 265.26 L 816.86 265.68 L 818.12 264.43 L 819.38 265.26 L 820.64 264.57 L 821.90 266.23 L 823.17 266.09 L 824.43 267.90 L 825.69 266.79 L 826.95 267.62 L 828.21 267.34 L 829.48 267.62 L 830.74 268.04 L 832.00 267.62 L 833.26 267.48 L 834.52 265.95 L 835.79 267.34 L 837.05 269.01 L 838.31 268.45 L 839.57 269.01 L 840.83 269.98 L 842.10 270.12 L 843.36 269.84 L 844.62 269.84 L 845.88 270.95 L 847.14 275.53 L 848.40 277.75 L 849.67 277.75 L 850.93 277.75 L 852.19 277.75 L 853.45 277.75 L 854.71 277.75 L 855.98 277.75 L 857.24 277.75 L 858.50 277.75 L 859.76 277.75 L 861.02 277.75 L 862.29 277.75 L 863.55 277.75 L 864.81 274.70 L 866.07 274.14 L 867.33 273.73 L 868.60 277.75 L 869.86 274.28 L 871.12 273.17 L 872.38 274.00 L 873.64 277.75 L 874.90 277.75 L 876.17 277.75 L 877.43 271.23 L 878.69 269.15 L 879.95 258.04 L 881.21 260.26 L 882.48 259.01 L 883.74 261.37 L 885.00 261.65 L 886.26 260.12 L 887.52 257.77 L 888.79 261.24 L 890.05 260.96 L 891.31 259.57 L 892.57 263.73 L 893.83 263.73 L 895.10 264.70 L 896.36 265.95 L 897.62 266.65 L 898.88 266.51 L 900.14 269.70 L 901.40 270.12 L 902.67 270.81 L 903.93 269.70 L 905.19 270.26 L 906.45 269.84 L 907.71 268.87 L 908.98 269.15 L 910.24 269.70 L 911.50 268.87 L 912.76 270.26 L 914.02 270.95 L 915.29 271.64 L 916.55 277.75 L 917.81 277.75 L 919.07 277.75 L 920.33 272.06 L 921.60 272.06 L 922.86 272.89 L 924.12 271.09 L 925.38 270.67 L 926.64 270.26 L 927.90 272.20 L 929.17 271.50 L 930.43 271.92 L 931.69 272.75 L 932.95 270.67 L 934.21 270.81 L 935.48 271.23 L 936.74 272.20 L 938.00 270.12 L 939.26 273.86 L 940.52 274.28 L 941.79 277.75 L 943.05 277.75 L 944.31 277.75 L 945.57 277.75 L 946.83 277.75 L 948.10 277.75 L 949.36 277.75 L 950.62 277.75 L 951.88 277.75 L 953.14 277.75 L 954.40 277.75 L 955.67 277.75 L 956.93 277.75 L 958.19 277.75 L 959.45 277.75 L 960.71 277.75 L 961.98 277.75 L 963.24 277.75 L 964.50 277.75 L 965.76 277.75 L 967.02 277.75 L 968.29 277.75 L 969.55 277.75 L 970.81 277.75 L 972.07 277.75 L 973.33 277.75 L 974.60 277.75 L 975.86 277.75 L 977.12 277.75 L 978.38 277.75 L 979.64 277.75 L 980.90 277.75 L 982.17 277.75 L 983.43 277.75 L 984.69 277.75 L 985.95 277.75 L 987.21 277.75 L 988.48 277.75 L 989.74 277.75 L 991.00 277.75 L 992.26 277.75 L 993.52 277.75 L 994.79 277.75 L 996.05 277.75 L 997.31 277.75 L 998.57 277.75 L 999.83 277.75 L 1001.10 277.75 L 1002.36 277.75 L 1003.62 277.75 L 1004.88 277.75 L 1006.14 277.75 L 1007.40 277.75 L 1008.67 277.75 L 1009.93 277.75 L 1011.19 277.75 L 1012.45 277.75 L 1013.71 277.75 L 1014.98 277.75 L 1016.24 277.75 L 1017.50 277.75 L 1018.76 277.75" stroke="#1976D2" />
<text x="90" y="289.75" font-size="14" font-weight="700">Inclinação (graus)</text>
<rect class="event" x="392.86" y="295.75" width="398.76" height="192.75" />
<line class="eventline" x1="392.86" y1="295.75" x2="392.86" y2="488.50" />
<line class="eventline" x1="791.62" y1="295.75" x2="791.62" y2="488.50" />
<line class="grid" x1="90" y1="488.50" x2="1150" y2="488.50" />
<text class="small" x="80" y="492.50" text-anchor="end">-20.0</text>
<line class="grid" x1="90" y1="449.95" x2="1150" y2="449.95" />
<text class="small" x="80" y="453.95" text-anchor="end">-10.0</text>
<line class="grid" x1="90" y1="411.40" x2="1150" y2="411.40" />
<text class="small" x="80" y="415.40" text-anchor="end">0.00</text>
<line class="grid" x1="90" y1="372.85" x2="1150" y2="372.85" />
<text class="small" x="80" y="376.85" text-anchor="end">10.0</text>
<line class="grid" x1="90" y1="334.30" x2="1150" y2="334.30" />
<text class="small" x="80" y="338.30" text-anchor="end">20.0</text>
<line class="grid" x1="90" y1="295.75" x2="1150" y2="295.75" />
<text class="small" x="80" y="299.75" text-anchor="end">30.0</text>
<line class="grid" x1="90.00" y1="295.75" x2="90.00" y2="488.50" />
<line class="grid" x1="241.43" y1="295.75" x2="241.43" y2="488.50" />
<line class="grid" x1="392.86" y1="295.75" x2="392.86" y2="488.50" />
<line class="grid" x1="544.29" y1="295.75" x2="544.29" y2="488.50" />
<line class="grid" x1="695.71" y1="295.75" x2="695.71" y2="488.50" />
<line class="grid" x1="847.14" y1="295.75" x2="847.14" y2="488.50" />
<line class="grid" x1="998.57" y1="295.75" x2="998.57" y2="488.50" />
<line class="grid" x1="1150.00" y1="295.75" x2="1150.00" y2="488.50" />
<line class="axis" x1="90" y1="295.75" x2="90" y2="488.50" />
<line class="axis" x1="90" y1="488.50" x2="1150" y2="488.50" />
<path class="series" d="M 165.71 335.00 L 166.98 332.69 L 168.24 330.62 L 169.50 325.88 L 170.76 328.55 L 172.02 328.58 L 173.29 330.53 L 174.55 334.27 L 175.81 336.32 L 177.07 341.75 L 178.33 352.60 L 179.60 351.28 L 180.86 353.58 L 182.12 342.30 L 183.38 337.96 L 184.64 335.47 L 185.90 335.22 L 187.17 339.64 L 188.43 337.87 L 189.69 336.75 L 190.95 338.11 L 192.21 349.68 L 193.48 345.66 L 194.74 331.29 L 196.00 334.56 L 197.26 330.32 L 198.52 335.06 L 199.79 334.86 L 201.05 342.73 L 202.31 349.69 L 203.57 353.12 L 204.83 351.49 L 206.10 355.43 L 207.36 352.78 L 208.62 358.13 L 209.88 358.76 L 211.14 361.16 L 212.40 353.58 L 213.67 367.83 L 214.93 355.85 L 216.19 370.19 L 217.45 368.57 L 218.71 375.04 L 219.98 382.46 L 221.24 374.59 L 222.50 372.23 L 223.76 366.32 L 225.02 375.53 L 226.29 358.10 L 227.55 365.15 L 228.81 364.28 L 230.07 363.19 L 231.33 349.10 L 232.60 350.46 L 233.86 346.09 L 235.12 345.17 L 236.38 342.45 L 237.64 343.85 L 238.90 344.22 L 240.17 348.15 L 241.43 343.85 L 242.69 337.82 L 243.95 342.71 L 245.21 341.81 L 246.48 339.83 L 247.74 339.92 L 249.00 340.76 L 250.26 343.50 L 251.52 336.43 L 252.79 339.11 L 254.05 340.22 L 255.31 354.20 L 256.57 345.39 L 257.83 347.54 L 259.10 345.71 L 260.36 345.78 L 261.62 339.96 L 262.88 332.46 L 264.14 345.27 L 265.40 337.80 L 266.67 328.31 L 267.93 339.23 L 269.19 334.77 L 270.45 341.59 L 271.71 338.75 L 272.98 344.97 L 274.24 338.58 L 275.50 335.87 L 276.76 332.40 L 278.02 354.46 L 279.29 357.95 L 280.55 357.95 L 281.81 341.77 L 283.07 336.54 L 284.33 320.24 L 285.60 349.90 L 286.86 336.08 L 288.12 333.39 L 289.38 333.00 L 290.64 334.86 L 291.90 341.51 L 293.17 330.56 L 294.43 337.80 L 295.69 336.56 L 296.95 326.95 L 298.21 333.83 L 299.48 334.51 L 300.74 339.30 L 302.00 342.41 L 303.26 343.96 L 304.52 343.59 L 305.79 343.87 L 307.05 346.75 L 308.31 347.81 L 309.57 349.52 L 310.83 352.69 L 312.10 351.96 L 313.36 353.85 L 314.62 353.04 L 315.88 354.06 L 317.14 352.03 L 318.40 352.39 L 319.67 356.74 L 320.93 357.03 L 322.19 356.28 L 323.45 360.96 L 324.71 360.42 L 325.98 361.62 L 327.24 362.68 L 328.50 364.15 L 329.76 364.16 L 331.02 364.71 L 332.29 363.75 L 333.55 365.16 L 334.81 365.84 L 336.07 367.06 L 337.33 367.78 L 338.60 369.20 L 339.86 370.53 L 341.12 371.07 L 342.38 373.59 L 343.64 374.18 L 344.90 373.59 L 346.17 373.59 L 347.43 374.34 L 348.69 372.41 L 349.95 373.63 L 351.21 371.47 L 352.48 370.59 L 353.74 368.12 L 355.00 368.44 L 356.26 368.15 L 357.52 369.25 L 358.79 369.18 L 360.05 370.01 L 361.31 367.20 L 362.57 370.51 L 363.83 373.37 L 365.10 371.96 L 366.36 368.67 L 367.62 369.16 L 368.88 370.29 L 370.14 376.74 L 371.40 374.29 L 372.67 368.04 L 373.93 364.57 L 375.19 366.54 L 376.45 370.66 L 377.71 371.60 L 378.98 371.00 L 380.24 371.59 L 381.50 358.86 L 382.76 371.22 L 384.02 372.38 L 385.29 368.45 L 386.55 369.55 L 387.81 369.96 L 389.07 371.92 L 390.33 369.43 L 391.60 374.68 L 392.86 366.41 L 394.12 371.12 L 395.38 369.61 L 396.64 369.61 L 397.90 367.66 L 399.17 366.96 L 400.43 368.54 L 401.69 368.48 L 402.95 367.87 L 404.21 367.90 L 405.48 367.90 L 406.74 367.92 L 408.00 367.93 L 409.26 367.98 L 410.52 367.95 L 411.79 367.94 L 413.05 367.92 L 414.31 367.89 L 415.57 367.95 L 416.83 367.92 L 418.10 367.90 L 419.36 367.90 L 420.62 367.96 L 421.88 367.90 L 423.14 367.84 L 424.40 367.91 L 425.67 367.87 L 426.93 367.91 L 428.19 367.92 L 429.45 367.89 L 430.71 367.85 L 431.98 367.90 L 433.24 367.86 L 434.50 367.80 L 435.76 367.93 L 437.02 367.85 L 438.29 367.91 L 439.55 367.93 L 440.81 367.87 L 442.07 367.90 L 443.33 367.92 L 444.60 367.92 L 445.86 367.84 L 447.12 367.99 L 448.38 367.94 L 449.64 367.91 L 450.90 367.94 L 452.17 367.90 L 453.43 367.89 L 454.69 367.97 L 455.95 367.87 L 457.21 367.88 L 458.48 367.94 L 459.74 367.90 L 461.00 367.91 L 462.26 367.93 L 463.52 367.91 L 464.79 367.90 L 466.05 367.90 L 467.31 367.92 L 468.57 367.83 L 469.83 367.93 L 471.10 367.89 L 472.36 367.92 L 473.62 367.90 L 474.88 367.84 L 476.14 367.93 L 477.40 367.96 L 478.67 367.89 L 479.93 367.87 L 481.19 367.91 L 482.45 367.85 L 483.71 367.94 L 484.98 367.89 L 486.24 367.90 L 487.50 367.91 L 488.76 367.94 L 490.02 367.89 L 491.29 367.80 L 492.55 367.87 L 493.81 367.89 L 495.07 367.89 L 496.33 367.82 L 497.60 367.86 L 498.86 367.88 L 500.12 367.86 L 501.38 367.90 L 502.64 367.80 L 503.90 367.90 L 505.17 367.82 L 506.43 367.89 L 507.69 367.87 L 508.95 367.94 L 510.21 367.88 L 511.48 367.86 L 512.74 367.93 L 514.00 367.86 L 515.26 367.86 L 516.52 367.90 L 517.79 367.91 L 519.05 367.94 L 520.31 367.88 L 521.57 367.92 L 522.83 367.87 L 524.10 367.94 L 525.36 367.95 L 526.62 367.88 L 527.88 367.95 L 529.14 367.92 L 530.40 367.93 L 531.67 367.88 L 532.93 367.88 L 534.19 367.87 L 535.45 367.86 L 536.71 367.90 L 537.98 367.95 L 539.24 367.90 L 540.50 367.89 L 541.76 367.92 L 543.02 367.88 L 544.29 367.87 L 545.55 367.90 L 546.81 367.84 L 548.07 367.89 L 549.33 367.92 L 550.60 367.89 L 551.86 367.90 L 553.12 367.93 L 554.38 367.92 L 555.64 367.88 L 556.90 367.94 L 558.17 367.82 L 559.43 367.86 L 560.69 367.98 L 561.95 367.91 L 563.21 367.86 L 564.48 367.86 L 565.74 367.93 L 567.00 367.82 L 568.26 367.91 L 569.52 367.81 L 570.79 367.84 L 572.05 367.90 L 573.31 367.87 L 574.57 367.86 L 575.83 367.86 L 577.10 367.85 L 578.36 367.87 L 579.62 367.90 L 580.88 367.82 L 582.14 367.89 L 583.40 367.89 L 584.67 367.87 L 585.93 367.86 L 587.19 367.84 L 588.45 367.89 L 589.71 367.88 L 590.98 367.94 L 592.24 367.91 L 593.50 367.89 L 594.76 367.93 L 596.02 367.92 L 597.29 367.90 L 598.55 367.95 L 599.81 367.90 L 601.07 367.94 L 602.33 367.92 L 603.60 367.83 L 604.86 367.88 L 606.12 367.91 L 607.38 367.89 L 608.64 367.84 L 609.90 367.88 L 611.17 367.90 L 612.43 367.87 L 613.69 367.89 L 614.95 367.83 L 616.21 367.82 L 617.48 367.86 L 618.74 367.91 L 620.00 367.81 L 621.26 367.88 L 622.52 367.86 L 623.79 367.85 L 625.05 367.83 L 626.31 367.82 L 627.57 367.91 L 628.83 367.84 L 630.10 367.88 L 631.36 367.79 L 632.62 367.81 L 633.88 367.83 L 635.14 367.86 L 636.40 367.82 L 637.67 367.90 L 638.93 367.83 L 640.19 367.87 L 641.45 367.88 L 642.71 367.78 L 643.98 367.86 L 645.24 367.84 L 646.50 367.86 L 647.76 367.77 L 649.02 367.86 L 650.29 367.85 L 651.55 367.84 L 652.81 367.88 L 654.07 367.82 L 655.33 367.83 L 656.60 367.85 L 657.86 367.90 L 659.12 367.83 L 660.38 367.84 L 661.64 367.85 L 662.90 367.86 L 664.17 367.87 L 665.43 367.87 L 666.69 367.84 L 667.95 367.85 L 669.21 367.91 L 670.48 367.81 L 671.74 367.84 L 673.00 367.83 L 674.26 367.91 L 675.52 367.84 L 676.79 367.90 L 678.05 367.85 L 679.31 367.86 L 680.57 367.87 L 681.83 367.89 L 683.10 367.86 L 684.36 367.86 L 685.62 367.91 L 686.88 367.86 L 688.14 367.91 L 689.40 367.82 L 690.67 367.87 L 691.93 367.88 L 693.19 367.86 L 694.45 367.83 L 695.71 367.84 L 696.98 367.91 L 698.24 367.84 L 699.50 367.88 L 700.76 367.84 L 702.02 367.92 L 703.29 367.85 L 704.55 367.92 L 705.81 367.89 L 707.07 367.80 L 708.33 367.85 L 709.60 367.84 L 710.86 367.86 L 712.12 367.85 L 713.38 367.85 L 714.64 367.85 L 715.90 367.90 L 717.17 367.80 L 718.43 367.86 L 719.69 367.90 L 720.95 367.86 L 722.21 367.86 L 723.48 367.86 L 724.74 367.87 L 726.00 367.90 L 727.26 367.88 L 728.52 367.90 L 729.79 367.91 L 731.05 367.88 L 732.31 367.88 L 733.57 367.93 L 734.83 367.82 L 736.10 367.83 L 737.36 367.89 L 738.62 367.89 L 739.88 367.90 L 741.14 367.86 L 742.40 367.86 L 743.67 367.83 L 744.93 367.90 L 746.19 367.82 L 747.45 367.82 L 748.71 367.82 L 749.98 367.89 L 751.24 367.87 L 752.50 367.86 L 753.76 367.84 L 755.02 367.87 L 756.29 367.90 L 757.55 367.81 L 758.81 367.89 L 760.07 367.81 L 761.33 367.89 L 762.60 367.86 L 763.86 367.81 L 765.12 367.79 L 766.38 367.84 L 767.64 367.89 L 768.90 367.84 L 770.17 367.87 L 771.43 367.84 L 772.69 367.83 L 773.95 367.82 L 775.21 367.83 L 776.48 367.81 L 777.74 367.80 L 779.00 367.83 L 780.26 367.78 L 781.52 367.79 L 782.79 367.80 L 784.05 367.84 L 785.31 367.78 L 786.57 367.89 L 787.83 367.79 L 789.10 368.18 L 790.36 367.39 L 791.62 370.27 L 792.88 377.39 L 794.14 370.56 L 795.40 374.93 L 796.67 373.17 L 797.93 370.05 L 799.19 377.38 L 800.45 375.96 L 801.71 381.34 L 802.98 384.96 L 804.24 388.00 L 805.50 384.98 L 806.76 385.74 L 808.02 381.97 L 809.29 373.29 L 810.55 363.76 L 811.81 352.10 L 813.07 349.60 L 814.33 344.97 L 815.60 347.87 L 816.86 352.36 L 818.12 358.23 L 819.38 363.48 L 820.64 372.23 L 821.90 371.58 L 823.17 371.10 L 824.43 377.31 L 825.69 373.15 L 826.95 373.53 L 828.21 375.00 L 829.48 373.94 L 830.74 374.85 L 832.00 374.87 L 833.26 373.19 L 834.52 371.84 L 835.79 373.76 L 837.05 374.30 L 838.31 374.67 L 839.57 372.97 L 840.83 376.45 L 842.10 376.46 L 843.36 373.75 L 844.62 374.03 L 845.88 370.15 L 847.14 372.15 L 848.40 374.75 L 849.67 375.06 L 850.93 375.08 L 852.19 375.03 L 853.45 375.03 L 854.71 375.05 L 855.98 374.97 L 857.24 375.21 L 858.50 375.68 L 859.76 374.04 L 861.02 374.99 L 862.29 375.55 L 863.55 367.04 L 864.81 377.04 L 866.07 374.46 L 867.33 375.74 L 868.60 378.23 L 869.86 375.89 L 871.12 377.39 L 872.38 384.74 L 873.64 375.84 L 874.90 382.48 L 876.17 382.45 L 877.43 383.05 L 878.69 383.40 L 879.95 374.38 L 881.21 379.95 L 882.48 370.58 L 883.74 371.28 L 885.00 371.52 L 886.26 370.17 L 887.52 365.36 L 888.79 364.83 L 890.05 356.47 L 891.31 356.71 L 892.57 359.25 L 893.83 359.31 L 895.10 358.42 L 896.36 365.21 L 897.62 364.62 L 898.88 365.53 L 900.14 365.26 L 901.40 367.05 L 902.67 367.00 L 903.93 366.82 L 905.19 366.77 L 906.45 365.38 L 907.71 364.11 L 908.98 362.40 L 910.24 360.69 L 911.50 355.72 L 912.76 355.37 L 914.02 355.71 L 915.29 355.71 L 916.55 356.45 L 917.81 351.79 L 919.07 349.57 L 920.33 349.82 L 921.60 348.84 L 922.86 347.18 L 924.12 349.32 L 925.38 347.38 L 926.64 343.15 L 927.90 340.19 L 929.17 340.68 L 930.43 340.80 L 931.69 339.97 L 932.95 337.66 L 934.21 335.53 L 935.48 333.87 L 936.74 337.64 L 938.00 336.74 L 939.26 332.89 L 940.52 334.08 L 941.79 333.35 L 943.05 337.53 L 944.31 337.56 L 945.57 337.43 L 946.83 337.38 L 948.10 337.50 L 949.36 337.40 L 950.62 337.54 L 951.88 337.50 L 953.14 337.49 L 954.40 337.39 L 955.67 337.54 L 956.93 337.41 L 958.19 337.52 L 959.45 337.50 L 960.71 337.48 L 961.98 337.47 L 963.24 337.45 L 964.50 337.48 L 965.76 337.47 L 967.02 337.50 L 968.29 337.49 L 969.55 337.44 L 970.81 337.46 L 972.07 337.38 L 973.33 337.45 L 974.60 337.40 L 975.86 337.42 L 977.12 337.40 L 978.38 337.44 L 979.64 337.40 L 980.90 337.42 L 982.17 337.40 L 983.43 337.42 L 984.69 337.44 L 985.95 337.32 L 987.21 337.40 L 988.48 337.43 L 989.74 337.43 L 991.00 337.36 L 992.26 337.36 L 993.52 337.38 L 994.79 337.41 L 996.05 337.41 L 997.31 337.44 L 998.57 337.40 L 999.83 337.41 L 1001.10 337.46 L 1002.36 337.44 L 1003.62 337.42 L 1004.88 337.44 L 1006.14 337.42 L 1007.40 337.48 L 1008.67 337.50 L 1009.93 337.44 L 1011.19 337.42 L 1012.45 337.43 L 1013.71 337.49 L 1014.98 337.42 L 1016.24 337.42 L 1017.50 337.43 L 1018.76 337.42" stroke="#2E7D32" />
<path class="series" d="M 165.71 430.00 L 166.98 424.66 L 168.24 430.11 L 169.50 418.37 L 170.76 421.20 L 172.02 417.50 L 173.29 421.39 L 174.55 410.29 L 175.81 411.11 L 177.07 410.51 L 178.33 410.94 L 179.60 411.52 L 180.86 415.08 L 182.12 405.98 L 183.38 399.24 L 184.64 410.56 L 185.90 419.68 L 187.17 411.31 L 188.43 406.83 L 189.69 402.95 L 190.95 406.72 L 192.21 404.70 L 193.48 395.66 L 194.74 399.48 L 196.00 412.07 L 197.26 414.67 L 198.52 415.62 L 199.79 422.45 L 201.05 421.37 L 202.31 424.34 L 203.57 427.21 L 204.83 431.83 L 206.10 436.69 L 207.36 440.61 L 208.62 419.93 L 209.88 420.33 L 211.14 422.75 L 212.40 405.12 L 213.67 401.78 L 214.93 406.56 L 216.19 413.31 L 217.45 414.77 L 218.71 412.77 L 219.98 415.70 L 221.24 417.09 L 222.50 417.27 L 223.76 415.18 L 225.02 415.63 L 226.29 427.24 L 227.55 412.05 L 228.81 400.60 L 230.07 396.31 L 231.33 391.90 L 232.60 395.77 L 233.86 389.94 L 235.12 394.03 L 236.38 397.27 L 237.64 399.44 L 238.90 402.60 L 240.17 397.89 L 241.43 393.25 L 242.69 390.71 L 243.95 397.77 L 245.21 405.09 L 246.48 409.38 L 247.74 408.37 L 249.00 404.52 L 250.26 396.63 L 251.52 393.92 L 252.79 401.48 L 254.05 402.50 L 255.31 400.73 L 256.57 402.58 L 257.83 401.25 L 259.10 411.04 L 260.36 423.36 L 261.62 426.13 L 262.88 431.17 L 264.14 412.80 L 265.40 420.65 L 266.67 409.66 L 267.93 416.68 L 269.19 414.79 L 270.45 413.02 L 271.71 413.92 L 272.98 413.18 L 274.24 405.94 L 275.50 404.69 L 276.76 402.92 L 278.02 409.86 L 279.29 430.94 L 280.55 430.94 L 281.81 427.70 L 283.07 407.35 L 284.33 391.69 L 285.60 407.06 L 286.86 399.67 L 288.12 401.57 L 289.38 404.73 L 290.64 409.95 L 291.90 415.33 L 293.17 414.10 L 294.43 424.19 L 295.69 419.64 L 296.95 417.85 L 298.21 425.31 L 299.48 417.11 L 300.74 420.89 L 302.00 420.99 L 303.26 422.20 L 304.52 424.29 L 305.79 422.72 L 307.05 421.43 L 308.31 424.00 L 309.57 424.11 L 310.83 419.73 L 312.10 420.17 L 313.36 418.73 L 314.62 419.49 L 315.88 419.03 L 317.14 416.92 L 318.40 414.21 L 319.67 414.86 L 320.93 413.72 L 322.19 414.68 L 323.45 414.46 L 324.71 410.73 L 325.98 412.83 L 327.24 412.29 L 328.50 412.62 L 329.76 414.25 L 331.02 416.07 L 332.29 413.67 L 333.55 414.55 L 334.81 416.76 L 336.07 416.25 L 337.33 417.15 L 338.60 415.90 L 339.86 417.23 L 341.12 416.94 L 342.38 416.71 L 343.64 417.49 L 344.90 416.56 L 346.17 416.56 L 347.43 417.08 L 348.69 416.52 L 349.95 418.19 L 351.21 416.95 L 352.48 415.82 L 353.74 413.60 L 355.00 414.95 L 356.26 413.59 L 357.52 414.94 L 358.79 416.57 L 360.05 412.22 L 361.31 412.15 L 362.57 411.40 L 363.83 412.07 L 365.10 413.26 L 366.36 413.22 L 367.62 414.86 L 368.88 416.22 L 370.14 415.65 L 371.40 418.39 L 372.67 416.23 L 373.93 422.25 L 375.19 417.11 L 376.45 415.69 L 377.71 417.55 L 378.98 416.10 L 380.24 417.72 L 381.50 418.92 L 382.76 413.66 L 384.02 416.38 L 385.29 419.64 L 386.55 418.48 L 387.81 417.64 L 389.07 418.66 L 390.33 415.69 L 391.60 415.24 L 392.86 417.86 L 394.12 418.31 L 395.38 417.61 L 396.64 418.88 L 397.90 416.64 L 399.17 417.50 L 400.43 417.81 L 401.69 417.59 L 402.95 417.74 L 404.21 417.39 L 405.48 417.67 L 406.74 417.71 L 408.00 417.57 L 409.26 417.60 L 410.52 417.61 L 411.79 417.64 L 413.05 417.63 L 414.31 417.57 L 415.57 417.59 L 416.83 417.62 L 418.10 417.68 L 419.36 417.60 L 420.62 417.57 L 421.88 417.58 L 423.14 417.64 L 424.40 417.63 L 425.67 417.57 L 426.93 417.61 L 428.19 417.63 L 429.45 417.65 L 430.71 417.61 L 431.98 417.56 L 433.24 417.54 L 434.50 417.62 L 435.76 417.62 L 437.02 417.55 L 438.29 417.57 L 439.55 417.61 L 440.81 417.64 L 442.07 417.63 L 443.33 417.61 L 444.60 417.55 L 445.86 417.63 L 447.12 417.60 L 448.38 417.53 L 449.64 417.59 L 450.90 417.59 L 452.17 417.57 L 453.43 417.62 L 454.69 417.59 L 455.95 417.55 L 457.21 417.69 L 458.48 417.63 L 459.74 417.58 L 461.00 417.60 L 462.26 417.63 L 463.52 417.65 L 464.79 417.61 L 466.05 417.62 L 467.31 417.57 L 468.57 417.66 L 469.83 417.65 L 471.10 417.59 L 472.36 417.61 L 473.62 417.58 L 474.88 417.68 L 476.14 417.63 L 477.40 417.61 L 478.67 417.56 L 479.93 417.69 L 481.19 417.64 L 482.45 417.61 L 483.71 417.59 L 484.98 417.59 L 486.24 417.68 L 487.50 417.65 L 488.76 417.66 L 490.02 417.58 L 491.29 417.65 L 492.55 417.65 L 493.81 417.60 L 495.07 417.58 L 496.33 417.66 L 497.60 417.64 L 498.86 417.65 L 500.12 417.66 L 501.38 417.59 L 502.64 417.66 L 503.90 417.70 L 505.17 417.60 L 506.43 417.63 L 507.69 417.59 L 508.95 417.68 L 510.21 417.66 L 511.48 417.67 L 512.74 417.58 L 514.00 417.56 L 515.26 417.68 L 516.52 417.63 L 517.79 417.68 L 519.05 417.70 L 520.31 417.68 L 521.57 417.72 L 522.83 417.65 L 524.10 417.62 L 525.36 417.59 L 526.62 417.71 L 527.88 417.65 L 529.14 417.68 L 530.40 417.58 L 531.67 417.60 L 532.93 417.60 L 534.19 417.64 L 535.45 417.64 L 536.71 417.69 L 537.98 417.58 L 539.24 417.64 L 540.50 417.66 L 541.76 417.72 L 543.02 417.59 L 544.29 417.61 L 545.55 417.66 L 546.81 417.65 L 548.07 417.66 L 549.33 417.58 L 550.60 417.65 L 551.86 417.70 L 553.12 417.72 L 554.38 417.60 L 555.64 417.63 L 556.90 417.66 L 558.17 417.64 L 559.43 417.71 L 560.69 417.65 L 561.95 417.63 L 563.21 417.65 L 564.48 417.67 L 565.74 417.69 L 567.00 417.63 L 568.26 417.68 L 569.52 417.67 L 570.79 417.73 L 572.05 417.64 L 573.31 417.67 L 574.57 417.73 L 575.83 417.71 L 577.10 417.60 L 578.36 417.67 L 579.62 417.72 L 580.88 417.73 L 582.14 417.65 L 583.40 417.63 L 584.67 417.63 L 585.93 417.66 L 587.19 417.72 L 588.45 417.61 L 589.71 417.66 L 590.98 417.65 L 592.24 417.74 L 593.50 417.67 L 594.76 417.67 L 596.02 417.65 L 597.29 417.70 L 598.55 417.76 L 599.81 417.65 L 601.07 417.67 L 602.33 417.71 L 603.60 417.76 L 604.86 417.69 L 606.12 417.64 L 607.38 417.64 L 608.64 417.68 L 609.90 417.72 L 611.17 417.66 L 612.43 417.66 L 613.69 417.65 L 614.95 417.72 L 616.21 417.67 L 617.48 417.66 L 618.74 417.60 L 620.00 417.65 L 621.26 417.77 L 622.52 417.71 L 623.79 417.70 L 625.05 417.66 L 626.31 417.75 L 627.57 417.69 L 628.83 417.65 L 630.10 417.61 L 631.36 417.67 L 632.62 417.74 L 633.88 417.66 L 635.14 417.66 L 636.40 417.69 L 637.67 417.74 L 638.93 417.73 L 640.19 417.72 L 641.45 417.63 L 642.71 417.73 L 643.98 417.73 L 645.24 417.72 L 646.50 417.67 L 647.76 417.68 L 649.02 417.72 L 650.29 417.71 L 651.55 417.71 L 652.81 417.60 L 654.07 417.73 L 655.33 417.72 L 656.60 417.71 L 657.86 417.64 L 659.12 417.68 L 660.38 417.72 L 661.64 417.68 L 662.90 417.73 L 664.17 417.63 L 665.43 417.72 L 666.69 417.73 L 667.95 417.71 L 669.21 417.68 L 670.48 417.70 L 671.74 417.72 L 673.00 417.74 L 674.26 417.68 L 675.52 417.66 L 676.79 417.72 L 678.05 417.75 L 679.31 417.70 L 680.57 417.69 L 681.83 417.72 L 683.10 417.73 L 684.36 417.78 L 685.62 417.67 L 686.88 417.72 L 688.14 417.72 L 689.40 417.72 L 690.67 417.70 L 691.93 417.66 L 693.19 417.72 L 694.45 417.72 L 695.71 417.76 L 696.98 417.68 L 698.24 417.66 L 699.50 417.71 L 700.76 417.76 L 702.02 417.72 L 703.29 417.68 L 704.55 417.73 L 705.81 417.71 L 707.07 417.79 L 708.33 417.68 L 709.60 417.68 L 710.86 417.73 L 712.12 417.79 L 713.38 417.69 L 714.64 417.72 L 715.90 417.77 L 717.17 417.78 L 718.43 417.81 L 719.69 417.72 L 720.95 417.69 L 722.21 417.76 L 723.48 417.76 L 724.74 417.78 L 726.00 417.73 L 727.26 417.70 L 728.52 417.75 L 729.79 417.76 L 731.05 417.76 L 732.31 417.76 L 733.57 417.72 L 734.83 417.70 L 736.10 417.81 L 737.36 417.75 L 738.62 417.73 L 739.88 417.74 L 741.14 417.79 L 742.40 417.77 L 743.67 417.73 L 744.93 417.71 L 746.19 417.72 L 747.45 417.80 L 748.71 417.71 L 749.98 417.75 L 751.24 417.69 L 752.50 417.76 L 753.76 417.78 L 755.02 417.78 L 756.29 417.70 L 757.55 417.80 L 758.81 417.73 L 760.07 417.74 L 761.33 417.73 L 762.60 417.70 L 763.86 417.81 L 765.12 417.76 L 766.38 417.76 L 767.64 417.70 L 768.90 417.77 L 770.17 417.85 L 771.43 417.76 L 772.69 417.77 L 773.95 417.79 L 775.21 417.83 L 776.48 417.81 L 777.74 417.76 L 779.00 417.70 L 780.26 417.74 L 781.52 417.83 L 782.79 417.87 L 784.05 417.75 L 785.31 417.78 L 786.57 417.79 L 787.83 417.86 L 789.10 418.02 L 790.36 417.27 L 791.62 416.83 L 792.88 410.30 L 794.14 417.46 L 795.40 414.80 L 796.67 413.16 L 797.93 419.97 L 799.19 414.15 L 800.45 412.78 L 801.71 413.15 L 802.98 414.26 L 804.24 414.14 L 805.50 412.89 L 806.76 414.37 L 808.02 414.04 L 809.29 416.77 L 810.55 414.64 L 811.81 414.55 L 813.07 414.70 L 814.33 414.48 L 815.60 414.97 L 816.86 409.73 L 818.12 409.33 L 819.38 411.80 L 820.64 414.51 L 821.90 409.43 L 823.17 414.80 L 824.43 403.89 L 825.69 407.53 L 826.95 403.25 L 828.21 403.68 L 829.48 404.02 L 830.74 402.98 L 832.00 403.63 L 833.26 400.65 L 834.52 403.19 L 835.79 404.00 L 837.05 402.94 L 838.31 405.21 L 839.57 404.85 L 840.83 407.27 L 842.10 403.42 L 843.36 404.11 L 844.62 403.83 L 845.88 409.91 L 847.14 408.00 L 848.40 407.53 L 849.67 407.02 L 850.93 407.14 L 852.19 407.08 L 853.45 407.04 L 854.71 407.12 L 855.98 406.97 L 857.24 406.96 L 858.50 407.25 L 859.76 407.52 L 861.02 407.08 L 862.29 407.94 L 863.55 407.59 L 864.81 406.36 L 866.07 409.10 L 867.33 406.60 L 868.60 405.76 L 869.86 405.65 L 871.12 405.82 L 872.38 407.44 L 873.64 406.05 L 874.90 406.24 L 876.17 406.47 L 877.43 401.71 L 878.69 403.38 L 879.95 406.30 L 881.21 410.79 L 882.48 409.38 L 883.74 414.54 L 885.00 412.82 L 886.26 413.01 L 887.52 409.73 L 888.79 407.08 L 890.05 409.57 L 891.31 405.25 L 892.57 406.25 L 893.83 405.98 L 895.10 403.51 L 896.36 406.73 L 897.62 408.11 L 898.88 405.45 L 900.14 406.03 L 901.40 406.76 L 902.67 405.66 L 903.93 405.12 L 905.19 406.80 L 906.45 406.08 L 907.71 407.36 L 908.98 405.29 L 910.24 405.66 L 911.50 403.76 L 912.76 402.18 L 914.02 402.13 L 915.29 402.13 L 916.55 400.72 L 917.81 401.14 L 919.07 401.16 L 920.33 399.82 L 921.60 400.23 L 922.86 401.50 L 924.12 399.52 L 925.38 401.72 L 926.64 399.72 L 927.90 401.75 L 929.17 402.92 L 930.43 402.20 L 931.69 405.66 L 932.95 408.16 L 934.21 404.92 L 935.48 404.61 L 936.74 409.63 L 938.00 409.76 L 939.26 409.17 L 940.52 409.89 L 941.79 410.03 L 943.05 409.81 L 944.31 409.89 L 945.57 409.91 L 946.83 409.78 L 948.10 409.92 L 949.36 409.52 L 950.62 409.99 L 951.88 409.74 L 953.14 409.79 L 954.40 409.87 L 955.67 409.71 L 956.93 409.77 L 958.19 409.81 L 959.45 409.78 L 960.71 409.79 L 961.98 409.74 L 963.24 409.76 L 964.50 409.81 L 965.76 409.81 L 967.02 409.77 L 968.29 409.77 L 969.55 409.80 L 970.81 409.78 L 972.07 409.68 L 973.33 409.80 L 974.60 409.78 L 975.86 409.79 L 977.12 409.80 L 978.38 409.73 L 979.64 409.73 L 980.90 409.82 L 982.17 409.77 L 983.43 409.77 L 984.69 409.78 L 985.95 409.76 L 987.21 409.79 L 988.48 409.77 L 989.74 409.77 L 991.00 409.71 L 992.26 409.78 L 993.52 409.79 L 994.79 409.70 L 996.05 409.79 L 997.31 409.76 L 998.57 409.83 L 999.83 409.76 L 1001.10 409.76 L 1002.36 409.75 L 1003.62 409.80 L 1004.88 409.82 L 1006.14 409.76 L 1007.40 409.78 L 1008.67 409.81 L 1009.93 409.77 L 1011.19 409.83 L 1012.45 409.81 L 1013.71 409.77 L 1014.98 409.77 L 1016.24 409.86 L 1017.50 409.75 L 1018.76 409.76" stroke="#6A1B9A" />
<line x1="900.00" y1="307.75" x2="918.00" y2="307.75" stroke="#2E7D32" stroke-width="3" />
<text class="small" x="924.00" y="311.75">pitch</text>
<line x1="900.00" y1="323.75" x2="918.00" y2="323.75" stroke="#6A1B9A" stroke-width="3" />
<text class="small" x="924.00" y="327.75">roll</text>
<text x="90" y="500.50" font-size="14" font-weight="700">Aceleração (magnitude) (u.a.)</text>
<rect class="event" x="392.86" y="506.50" width="398.76" height="192.75" />
<line class="eventline" x1="392.86" y1="506.50" x2="392.86" y2="699.25" />
<line class="eventline" x1="791.62" y1="506.50" x2="791.62" y2="699.25" />
<line class="grid" x1="90" y1="699.25" x2="1150" y2="699.25" />
<text class="small" x="80" y="703.25" text-anchor="end">0.00</text>
<line class="grid" x1="90" y1="660.70" x2="1150" y2="660.70" />
<text class="small" x="80" y="664.70" text-anchor="end">0.50</text>
<line class="grid" x1="90" y1="622.15" x2="1150" y2="622.15" />
<text class="small" x="80" y="626.15" text-anchor="end">1.00</text>
<line class="grid" x1="90" y1="583.60" x2="1150" y2="583.60" />
<text class="small" x="80" y="587.60" text-anchor="end">1.50</text>
<line class="grid" x1="90" y1="545.05" x2="1150" y2="545.05" />
<text class="small" x="80" y="549.05" text-anchor="end">2.00</text>
<line class="grid" x1="90" y1="506.50" x2="1150" y2="506.50" />
<text class="small" x="80" y="510.50" text-anchor="end">2.50</text>
<line class="grid" x1="90.00" y1="506.50" x2="90.00" y2="699.25" />
<line class="grid" x1="241.43" y1="506.50" x2="241.43" y2="699.25" />
<line class="grid" x1="392.86" y1="506.50" x2="392.86" y2="699.25" />
<line class="grid" x1="544.29" y1="506.50" x2="544.29" y2="699.25" />
<line class="grid" x1="695.71" y1="506.50" x2="695.71" y2="699.25" />
<line class="grid" x1="847.14" y1="506.50" x2="847.14" y2="699.25" />
<line class="grid" x1="998.57" y1="506.50" x2="998.57" y2="699.25" />
<line class="grid" x1="1150.00" y1="506.50" x2="1150.00" y2="699.25" />
<line class="axis" x1="90" y1="506.50" x2="90" y2="699.25" />
<line class="axis" x1="90" y1="699.25" x2="1150" y2="699.25" />
<path class="series" d="M 165.71 674.05 L 166.98 661.98 L 168.24 645.13 L 169.50 673.53 L 170.76 686.97 L 172.02 654.53 L 173.29 658.36 L 174.55 660.31 L 175.81 661.62 L 177.07 666.35 L 178.33 670.19 L 179.60 682.76 L 180.86 657.59 L 182.12 670.39 L 183.38 671.78 L 184.64 674.47 L 185.90 670.98 L 187.17 686.98 L 188.43 683.42 L 189.69 690.55 L 190.95 664.00 L 192.21 665.00 L 193.48 680.83 L 194.74 669.00 L 196.00 666.73 L 197.26 683.34 L 198.52 677.23 L 199.79 677.30 L 201.05 664.85 L 202.31 649.47 L 203.57 664.94 L 204.83 614.25 L 206.10 629.55 L 207.36 629.55 L 208.62 629.42 L 209.88 652.08 L 211.14 637.13 L 212.40 654.74 L 213.67 659.69 L 214.93 641.80 L 216.19 674.57 L 217.45 679.44 L 218.71 653.11 L 219.98 663.58 L 221.24 686.39 L 222.50 686.39 L 223.76 661.61 L 225.02 672.84 L 226.29 666.66 L 227.55 637.06 L 228.81 684.02 L 230.07 669.50 L 231.33 654.40 L 232.60 668.53 L 233.86 674.32 L 235.12 678.51 L 236.38 678.52 L 237.64 688.52 L 238.90 681.62 L 240.17 683.88 L 241.43 685.65 L 242.69 670.22 L 243.95 685.20 L 245.21 682.50 L 246.48 687.95 L 247.74 686.38 L 249.00 678.76 L 250.26 669.69 L 251.52 676.97 L 252.79 688.27 L 254.05 689.95 L 255.31 657.76 L 256.57 680.21 L 257.83 679.27 L 259.10 678.16 L 260.36 680.69 L 261.62 677.56 L 262.88 670.88 L 264.14 670.61 L 265.40 676.73 L 266.67 677.98 L 267.93 685.94 L 269.19 681.22 L 270.45 681.41 L 271.71 690.36 L 272.98 694.65 L 274.24 668.97 L 275.50 660.60 L 276.76 626.54 L 278.02 649.80 L 279.29 618.62 L 280.55 644.09 L 281.81 664.26 L 283.07 681.77 L 284.33 630.90 L 285.60 654.98 L 286.86 681.64 L 288.12 687.20 L 289.38 679.96 L 290.64 674.58 L 291.90 672.70 L 293.17 639.93 L 294.43 688.44 L 295.69 682.67 L 296.95 671.40 L 298.21 682.26 L 299.48 685.40 L 300.74 691.57 L 302.00 694.81 L 303.26 698.21 L 304.52 693.70 L 305.79 690.14 L 307.05 694.55 L 308.31 692.69 L 309.57 693.81 L 310.83 697.90 L 312.10 694.11 L 313.36 693.25 L 314.62 694.98 L 315.88 695.98 L 317.14 695.98 L 318.40 697.05 L 319.67 695.94 L 320.93 696.86 L 322.19 695.74 L 323.45 697.92 L 324.71 696.44 L 325.98 692.88 L 327.24 696.23 L 328.50 696.58 L 329.76 696.96 L 331.02 694.83 L 332.29 692.77 L 333.55 698.43 L 334.81 697.74 L 336.07 697.00 L 337.33 698.53 L 338.60 696.76 L 339.86 695.69 L 341.12 696.63 L 342.38 695.75 L 343.64 694.21 L 344.90 697.50 L 346.17 696.48 L 347.43 698.04 L 348.69 692.88 L 349.95 689.33 L 351.21 689.85 L 352.48 690.54 L 353.74 691.67 L 355.00 691.93 L 356.26 695.38 L 357.52 698.30 L 358.79 692.30 L 360.05 694.30 L 361.31 694.73 L 362.57 690.60 L 363.83 697.24 L 365.10 695.59 L 366.36 694.17 L 367.62 693.61 L 368.88 689.72 L 370.14 694.29 L 371.40 680.45 L 372.67 675.30 L 373.93 661.91 L 375.19 694.52 L 376.45 693.37 L 377.71 695.40 L 378.98 696.82 L 380.24 695.05 L 381.50 669.07 L 382.76 671.19 L 384.02 691.18 L 385.29 695.11 L 386.55 694.79 L 387.81 692.39 L 389.07 693.36 L 390.33 691.43 L 391.60 692.79 L 392.86 693.17 L 394.12 681.72 L 395.38 694.95 L 396.64 692.10 L 397.90 694.21 L 399.17 688.88 L 400.43 690.17 L 401.69 698.25 L 402.95 698.47 L 404.21 698.39 L 405.48 698.39 L 406.74 698.61 L 408.00 698.43 L 409.26 698.54 L 410.52 698.62 L 411.79 698.56 L 413.05 699.05 L 414.31 699.15 L 415.57 698.96 L 416.83 699.07 L 418.10 699.06 L 419.36 699.05 L 420.62 699.16 L 421.88 698.91 L 423.14 699.16 L 424.40 699.16 L 425.67 699.09 L 426.93 698.98 L 428.19 699.17 L 429.45 699.02 L 430.71 699.06 L 431.98 699.12 L 433.24 699.09 L 434.50 699.06 L 435.76 698.99 L 437.02 699.08 L 438.29 699.05 L 439.55 698.96 L 440.81 699.05 L 442.07 698.96 L 443.33 699.00 L 444.60 699.02 L 445.86 698.95 L 447.12 699.01 L 448.38 699.23 L 449.64 699.09 L 450.90 699.02 L 452.17 699.19 L 453.43 699.06 L 454.69 699.11 L 455.95 699.04 L 457.21 699.07 L 458.48 699.11 L 459.74 699.16 L 461.00 699.06 L 462.26 698.99 L 463.52 699.06 L 464.79 699.17 L 466.05 698.85 L 467.31 698.94 L 468.57 698.99 L 469.83 698.96 L 471.10 699.00 L 472.36 698.93 L 473.62 698.99 L 474.88 699.07 L 476.14 699.15 L 477.40 699.01 L 478.67 698.99 L 479.93 699.00 L 481.19 698.99 L 482.45 698.96 L 483.71 698.99 L 484.98 699.05 L 486.24 699.08 L 487.50 699.08 L 488.76 698.82 L 490.02 699.02 L 491.29 698.84 L 492.55 699.08 L 493.81 699.11 L 495.07 699.01 L 496.33 698.91 L 497.60 698.94 L 498.86 699.00 L 500.12 698.94 L 501.38 699.16 L 502.64 698.91 L 503.90 699.05 L 505.17 699.00 L 506.43 699.05 L 507.69 699.12 L 508.95 699.08 L 510.21 699.00 L 511.48 699.02 L 512.74 699.06 L 514.00 699.18 L 515.26 699.01 L 516.52 699.11 L 517.79 699.08 L 519.05 698.97 L 520.31 699.07 L 521.57 698.99 L 522.83 698.96 L 524.10 699.09 L 525.36 698.89 L 526.62 699.12 L 527.88 698.99 L 529.14 698.99 L 530.40 698.99 L 531.67 699.09 L 532.93 698.92 L 534.19 699.02 L 535.45 699.03 L 536.71 699.05 L 537.98 699.13 L 539.24 699.13 L 540.50 699.20 L 541.76 699.09 L 543.02 699.06 L 544.29 699.09 L 545.55 699.04 L 546.81 699.17 L 548.07 699.08 L 549.33 699.09 L 550.60 698.97 L 551.86 699.00 L 553.12 699.17 L 554.38 699.07 L 555.64 699.23 L 556.90 699.03 L 558.17 699.06 L 559.43 699.13 L 560.69 699.02 L 561.95 699.13 L 563.21 699.08 L 564.48 699.06 L 565.74 698.80 L 567.00 699.11 L 568.26 699.13 L 569.52 699.04 L 570.79 699.04 L 572.05 699.16 L 573.31 699.16 L 574.57 699.05 L 575.83 698.86 L 577.10 698.86 L 578.36 699.11 L 579.62 698.91 L 580.88 699.06 L 582.14 698.99 L 583.40 698.91 L 584.67 699.17 L 585.93 699.04 L 587.19 698.85 L 588.45 698.95 L 589.71 699.00 L 590.98 699.11 L 592.24 699.07 L 593.50 699.09 L 594.76 699.10 L 596.02 699.12 L 597.29 698.98 L 598.55 699.03 L 599.81 699.13 L 601.07 698.89 L 602.33 698.94 L 603.60 699.16 L 604.86 699.14 L 606.12 699.10 L 607.38 699.14 L 608.64 699.08 L 609.90 698.99 L 611.17 699.08 L 612.43 699.07 L 613.69 699.15 L 614.95 699.03 L 616.21 699.07 L 617.48 699.02 L 618.74 698.89 L 620.00 699.08 L 621.26 699.01 L 622.52 698.89 L 623.79 699.10 L 625.05 699.02 L 626.31 699.09 L 627.57 699.15 L 628.83 699.09 L 630.10 699.10 L 631.36 698.79 L 632.62 698.97 L 633.88 698.94 L 635.14 698.94 L 636.40 698.81 L 637.67 699.07 L 638.93 699.13 L 640.19 699.14 L 641.45 699.00 L 642.71 699.03 L 643.98 699.00 L 645.24 699.13 L 646.50 698.92 L 647.76 699.02 L 649.02 699.10 L 650.29 699.01 L 651.55 699.00 L 652.81 698.92 L 654.07 699.13 L 655.33 699.03 L 656.60 699.08 L 657.86 699.00 L 659.12 699.03 L 660.38 699.06 L 661.64 699.06 L 662.90 699.03 L 664.17 699.03 L 665.43 698.99 L 666.69 699.08 L 667.95 699.02 L 669.21 699.00 L 670.48 698.90 L 671.74 699.05 L 673.00 699.13 L 674.26 699.06 L 675.52 698.94 L 676.79 699.20 L 678.05 699.09 L 679.31 699.13 L 680.57 699.18 L 681.83 699.12 L 683.10 699.16 L 684.36 699.07 L 685.62 699.09 L 686.88 698.94 L 688.14 698.87 L 689.40 699.03 L 690.67 699.07 L 691.93 699.06 L 693.19 699.16 L 694.45 698.95 L 695.71 698.95 L 696.98 699.06 L 698.24 699.03 L 699.50 698.93 L 700.76 698.97 L 702.02 699.14 L 703.29 699.14 L 704.55 699.11 L 705.81 699.14 L 707.07 698.85 L 708.33 699.08 L 709.60 699.01 L 710.86 699.10 L 712.12 699.13 L 713.38 699.04 L 714.64 699.00 L 715.90 698.88 L 717.17 699.07 L 718.43 699.07 L 719.69 699.00 L 720.95 698.97 L 722.21 699.11 L 723.48 699.07 L 724.74 699.12 L 726.00 699.05 L 727.26 698.91 L 728.52 698.99 L 729.79 698.97 L 731.05 698.96 L 732.31 699.01 L 733.57 698.98 L 734.83 699.00 L 736.10 699.01 L 737.36 699.17 L 738.62 699.03 L 739.88 699.03 L 741.14 698.97 L 742.40 699.04 L 743.67 699.00 L 744.93 699.11 L 746.19 699.11 L 747.45 699.12 L 748.71 699.06 L 749.98 699.11 L 751.24 698.89 L 752.50 699.07 L 753.76 699.07 L 755.02 699.04 L 756.29 699.09 L 757.55 699.06 L 758.81 699.03 L 760.07 699.02 L 761.33 699.05 L 762.60 699.11 L 763.86 699.09 L 765.12 699.01 L 766.38 698.94 L 767.64 699.12 L 768.90 699.14 L 770.17 699.08 L 771.43 698.96 L 772.69 699.00 L 773.95 699.01 L 775.21 698.80 L 776.48 698.84 L 777.74 698.96 L 779.00 699.02 L 780.26 699.18 L 781.52 699.03 L 782.79 698.87 L 784.05 699.02 L 785.31 699.03 L 786.57 699.08 L 787.83 699.12 L 789.10 697.42 L 790.36 696.93 L 791.62 684.78 L 792.88 683.56 L 794.14 688.54 L 795.40 675.66 L 796.67 690.30 L 797.93 683.93 L 799.19 689.13 L 800.45 682.20 L 801.71 695.21 L 802.98 693.16 L 804.24 695.08 L 805.50 688.34 L 806.76 695.40 L 808.02 694.94 L 809.29 696.69 L 810.55 697.62 L 811.81 693.11 L 813.07 684.21 L 814.33 690.43 L 815.60 689.62 L 816.86 683.52 L 818.12 685.38 L 819.38 690.47 L 820.64 683.68 L 821.90 693.37 L 823.17 697.52 L 824.43 690.98 L 825.69 690.47 L 826.95 693.83 L 828.21 697.34 L 829.48 694.50 L 830.74 688.97 L 832.00 693.54 L 833.26 696.50 L 834.52 698.25 L 835.79 695.66 L 837.05 691.86 L 838.31 693.04 L 839.57 690.98 L 840.83 689.96 L 842.10 694.00 L 843.36 690.21 L 844.62 687.97 L 845.88 687.97 L 847.14 693.76 L 848.40 690.41 L 849.67 694.26 L 850.93 698.32 L 852.19 699.07 L 853.45 698.98 L 854.71 698.99 L 855.98 698.98 L 857.24 698.98 L 858.50 698.35 L 859.76 697.51 L 861.02 697.32 L 862.29 698.30 L 863.55 691.30 L 864.81 693.12 L 866.07 682.05 L 867.33 694.67 L 868.60 694.79 L 869.86 697.87 L 871.12 697.72 L 872.38 692.29 L 873.64 695.36 L 874.90 689.33 L 876.17 679.57 L 877.43 680.03 L 878.69 676.89 L 879.95 685.90 L 881.21 680.72 L 882.48 680.27 L 883.74 684.03 L 885.00 690.42 L 886.26 698.20 L 887.52 691.35 L 888.79 693.03 L 890.05 691.80 L 891.31 692.21 L 892.57 693.95 L 893.83 696.96 L 895.10 693.22 L 896.36 687.54 L 897.62 690.50 L 898.88 694.23 L 900.14 694.89 L 901.40 693.76 L 902.67 696.12 L 903.93 694.41 L 905.19 697.68 L 906.45 695.95 L 907.71 696.46 L 908.98 695.98 L 910.24 692.63 L 911.50 694.28 L 912.76 689.67 L 914.02 697.83 L 915.29 695.76 L 916.55 695.72 L 917.81 690.08 L 919.07 696.19 L 920.33 697.58 L 921.60 696.92 L 922.86 693.75 L 924.12 693.84 L 925.38 695.11 L 926.64 695.36 L 927.90 696.64 L 929.17 697.61 L 930.43 697.26 L 931.69 693.92 L 932.95 697.74 L 934.21 691.83 L 935.48 695.26 L 936.74 695.89 L 938.00 690.58 L 939.26 697.33 L 940.52 690.65 L 941.79 687.66 L 943.05 697.29 L 944.31 698.44 L 945.57 699.11 L 946.83 698.96 L 948.10 698.64 L 949.36 698.92 L 950.62 699.02 L 951.88 698.95 L 953.14 698.95 L 954.40 698.81 L 955.67 699.04 L 956.93 698.97 L 958.19 699.07 L 959.45 698.98 L 960.71 699.02 L 961.98 699.02 L 963.24 699.06 L 964.50 699.09 L 965.76 699.13 L 967.02 699.07 L 968.29 699.10 L 969.55 699.07 L 970.81 698.87 L 972.07 699.09 L 973.33 699.15 L 974.60 699.11 L 975.86 699.07 L 977.12 699.12 L 978.38 699.14 L 979.64 699.11 L 980.90 699.08 L 982.17 699.11 L 983.43 699.05 L 984.69 699.01 L 985.95 698.91 L 987.21 698.91 L 988.48 699.14 L 989.74 699.12 L 991.00 699.04 L 992.26 699.12 L 993.52 699.15 L 994.79 699.09 L 996.05 699.13 L 997.31 699.01 L 998.57 699.06 L 999.83 699.16 L 1001.10 699.06 L 1002.36 699.20 L 1003.62 699.21 L 1004.88 699.03 L 1006.14 699.07 L 1007.40 699.13 L 1008.67 699.09 L 1009.93 699.11 L 1011.19 699.07 L 1012.45 699.17 L 1013.71 699.18 L 1014.98 699.12 L 1016.24 699.02 L 1017.50 699.06 L 1018.76 699.17" stroke="#FB8C00" />
<text x="90" y="711.25" font-size="14" font-weight="700">Giroscópio (magnitude) (u.a.)</text>
<rect class="event" x="392.86" y="717.25" width="398.76" height="192.75" />
<line class="eventline" x1="392.86" y1="717.25" x2="392.86" y2="910.00" />
<line class="eventline" x1="791.62" y1="717.25" x2="791.62" y2="910.00" />
<line class="grid" x1="90" y1="910.00" x2="1150" y2="910.00" />
<text class="small" x="80" y="914.00" text-anchor="end">0.00</text>
<line class="grid" x1="90" y1="871.45" x2="1150" y2="871.45" />
<text class="small" x="80" y="875.45" text-anchor="end">0.05</text>
<line class="grid" x1="90" y1="832.90" x2="1150" y2="832.90" />
<text class="small" x="80" y="836.90" text-anchor="end">0.10</text>
<line class="grid" x1="90" y1="794.35" x2="1150" y2="794.35" />
<text class="small" x="80" y="798.35" text-anchor="end">0.15</text>
<line class="grid" x1="90" y1="755.80" x2="1150" y2="755.80" />
<text class="small" x="80" y="759.80" text-anchor="end">0.20</text>
<line class="grid" x1="90" y1="717.25" x2="1150" y2="717.25" />
<text class="small" x="80" y="721.25" text-anchor="end">0.25</text>
<line class="grid" x1="90.00" y1="717.25" x2="90.00" y2="910.00" />
<line class="grid" x1="241.43" y1="717.25" x2="241.43" y2="910.00" />
<line class="grid" x1="392.86" y1="717.25" x2="392.86" y2="910.00" />
<line class="grid" x1="544.29" y1="717.25" x2="544.29" y2="910.00" />
<line class="grid" x1="695.71" y1="717.25" x2="695.71" y2="910.00" />
<line class="grid" x1="847.14" y1="717.25" x2="847.14" y2="910.00" />
<line class="grid" x1="998.57" y1="717.25" x2="998.57" y2="910.00" />
<line class="grid" x1="1150.00" y1="717.25" x2="1150.00" y2="910.00" />
<line class="axis" x1="90" y1="717.25" x2="90" y2="910.00" />
<line class="axis" x1="90" y1="910.00" x2="1150" y2="910.00" />
<path class="series" d="M 165.71 872.34 L 166.98 870.37 L 168.24 873.93 L 169.50 871.35 L 170.76 885.37 L 172.02 870.35 L 173.29 877.08 L 174.55 896.95 L 175.81 891.90 L 177.07 895.61 L 178.33 900.02 L 179.60 903.83 L 180.86 855.23 L 182.12 873.71 L 183.38 869.99 L 184.64 882.95 L 185.90 878.69 L 187.17 878.29 L 188.43 882.28 L 189.69 883.39 L 190.95 880.04 L 192.21 875.43 L 193.48 887.07 L 194.74 864.25 L 196.00 873.06 L 197.26 892.96 L 198.52 874.84 L 199.79 845.57 L 201.05 841.56 L 202.31 829.63 L 203.57 807.12 L 204.83 781.34 L 206.10 790.94 L 207.36 790.94 L 208.62 838.71 L 209.88 857.76 L 211.14 856.95 L 212.40 858.59 L 213.67 872.15 L 214.93 866.54 L 216.19 870.91 L 217.45 876.69 L 218.71 880.41 L 219.98 859.30 L 221.24 843.87 L 222.50 847.37 L 223.76 852.98 L 225.02 822.06 L 226.29 823.96 L 227.55 834.92 L 228.81 830.44 L 230.07 833.14 L 231.33 845.79 L 232.60 855.57 L 233.86 867.48 L 235.12 886.53 L 236.38 885.13 L 237.64 894.09 L 238.90 894.85 L 240.17 896.85 L 241.43 875.51 L 242.69 893.92 L 243.95 895.23 L 245.21 877.84 L 246.48 891.59 L 247.74 882.63 L 249.00 868.44 L 250.26 871.49 L 251.52 869.68 L 252.79 865.38 L 254.05 870.51 L 255.31 878.97 L 256.57 895.90 L 257.83 892.18 L 259.10 874.82 L 260.36 881.52 L 261.62 882.13 L 262.88 882.85 L 264.14 887.77 L 265.40 868.16 L 266.67 886.40 L 267.93 884.06 L 269.19 894.73 L 270.45 887.40 L 271.71 897.07 L 272.98 884.49 L 274.24 890.28 L 275.50 900.66 L 276.76 891.80 L 278.02 894.76 L 279.29 851.54 L 280.55 802.16 L 281.81 794.48 L 283.07 803.17 L 284.33 801.21 L 285.60 816.24 L 286.86 786.50 L 288.12 779.77 L 289.38 785.64 L 290.64 781.20 L 291.90 788.76 L 293.17 792.14 L 294.43 830.77 L 295.69 824.79 L 296.95 837.99 L 298.21 826.81 L 299.48 843.91 L 300.74 847.85 L 302.00 849.14 L 303.26 853.86 L 304.52 859.86 L 305.79 858.34 L 307.05 865.80 L 308.31 865.38 L 309.57 863.21 L 310.83 863.36 L 312.10 870.44 L 313.36 872.36 L 314.62 873.14 L 315.88 877.48 L 317.14 877.48 L 318.40 877.73 L 319.67 885.55 L 320.93 885.57 L 322.19 880.81 L 323.45 880.23 L 324.71 878.65 L 325.98 880.18 L 327.24 887.12 L 328.50 889.08 L 329.76 889.30 L 331.02 891.36 L 332.29 893.46 L 333.55 896.57 L 334.81 897.91 L 336.07 898.15 L 337.33 897.83 L 338.60 897.67 L 339.86 901.21 L 341.12 901.74 L 342.38 903.90 L 343.64 905.44 L 344.90 904.83 L 346.17 903.99 L 347.43 904.08 L 348.69 903.44 L 349.95 902.00 L 351.21 903.06 L 352.48 901.56 L 353.74 904.87 L 355.00 909.09 L 356.26 906.10 L 357.52 906.73 L 358.79 905.86 L 360.05 903.91 L 361.31 895.01 L 362.57 887.79 L 363.83 881.92 L 365.10 877.58 L 366.36 880.49 L 367.62 884.08 L 368.88 880.90 L 370.14 877.33 L 371.40 867.68 L 372.67 873.98 L 373.93 893.68 L 375.19 904.89 L 376.45 907.68 L 377.71 909.11 L 378.98 908.65 L 380.24 907.66 L 381.50 903.22 L 382.76 907.87 L 384.02 904.49 L 385.29 905.02 L 386.55 906.95 L 387.81 905.47 L 389.07 900.17 L 390.33 899.35 L 391.60 905.38 L 392.86 905.72 L 394.12 909.09 L 395.38 908.47 L 396.64 907.21 L 397.90 908.69 L 399.17 908.35 L 400.43 908.99 L 401.69 908.57 L 402.95 908.71 L 404.21 908.62 L 405.48 908.64 L 406.74 908.67 L 408.00 908.54 L 409.26 908.55 L 410.52 908.69 L 411.79 909.49 L 413.05 909.94 L 414.31 909.89 L 415.57 909.81 L 416.83 909.84 L 418.10 909.82 L 419.36 909.84 L 420.62 909.87 L 421.88 909.85 L 423.14 909.87 L 424.40 909.87 L 425.67 909.86 L 426.93 909.79 L 428.19 909.82 L 429.45 909.77 L 430.71 909.69 L 431.98 909.56 L 433.24 909.79 L 434.50 909.75 L 435.76 909.79 L 437.02 909.82 L 438.29 909.71 L 439.55 909.98 L 440.81 909.71 L 442.07 909.78 L 443.33 909.65 L 444.60 909.89 L 445.86 909.79 L 447.12 909.93 L 448.38 909.67 L 449.64 909.88 L 450.90 909.75 L 452.17 909.83 L 453.43 909.82 L 454.69 909.88 L 455.95 909.73 L 457.21 909.86 L 458.48 909.79 L 459.74 909.78 L 461.00 909.75 L 462.26 909.91 L 463.52 909.67 L 464.79 909.88 L 466.05 909.74 L 467.31 909.68 L 468.57 909.84 L 469.83 909.83 L 471.10 909.84 L 472.36 909.87 L 473.62 909.81 L 474.88 909.86 L 476.14 909.86 L 477.40 909.69 L 478.67 909.54 L 479.93 909.63 L 481.19 909.62 L 482.45 909.55 L 483.71 909.75 L 484.98 909.72 L 486.24 909.75 L 487.50 909.65 L 488.76 909.75 L 490.02 909.60 L 491.29 909.74 L 492.55 909.48 L 493.81 909.54 L 495.07 909.59 L 496.33 909.61 L 497.60 909.61 L 498.86 909.74 L 500.12 909.60 L 501.38 909.69 L 502.64 909.64 L 503.90 909.61 L 505.17 909.74 L 506.43 909.65 L 507.69 909.71 L 508.95 909.80 L 510.21 909.63 L 511.48 909.72 L 512.74 909.78 L 514.00 909.63 L 515.26 909.64 L 516.52 909.66 L 517.79 909.56 L 519.05 909.66 L 520.31 909.57 L 521.57 909.36 L 522.83 909.43 L 524.10 909.39 L 525.36 909.57 L 526.62 909.86 L 527.88 909.96 L 529.14 909.96 L 530.40 909.94 L 531.67 909.87 L 532.93 909.90 L 534.19 909.87 L 535.45 909.94 L 536.71 909.95 L 537.98 909.89 L 539.24 909.96 L 540.50 909.87 L 541.76 909.75 L 543.02 909.77 L 544.29 909.87 L 545.55 909.93 L 546.81 909.89 L 548.07 909.89 L 549.33 909.88 L 550.60 909.80 L 551.86 909.70 L 553.12 909.60 L 554.38 909.69 L 555.64 909.61 L 556.90 909.65 L 558.17 909.68 L 559.43 909.80 L 560.69 909.89 L 561.95 909.88 L 563.21 909.80 L 564.48 909.80 L 565.74 909.91 L 567.00 909.85 L 568.26 909.74 L 569.52 909.89 L 570.79 909.76 L 572.05 909.92 L 573.31 909.78 L 574.57 909.83 L 575.83 909.79 L 577.10 909.82 L 578.36 909.79 L 579.62 909.80 L 580.88 909.82 L 582.14 909.73 L 583.40 909.90 L 584.67 909.85 L 585.93 909.84 L 587.19 909.72 L 588.45 909.80 L 589.71 909.75 L 590.98 909.91 L 592.24 909.84 L 593.50 909.75 L 594.76 909.62 L 596.02 909.73 L 597.29 909.64 L 598.55 909.82 L 599.81 909.64 L 601.07 909.77 L 602.33 909.91 L 603.60 909.96 L 604.86 909.84 L 606.12 909.86 L 607.38 909.88 L 608.64 909.79 L 609.90 909.82 L 611.17 909.80 L 612.43 909.82 L 613.69 909.92 L 614.95 909.83 L 616.21 909.89 L 617.48 909.84 L 618.74 909.78 L 620.00 909.73 L 621.26 909.75 L 622.52 909.87 L 623.79 909.82 L 625.05 909.83 L 626.31 909.71 L 627.57 909.82 L 628.83 909.79 L 630.10 909.85 L 631.36 909.86 L 632.62 909.80 L 633.88 909.84 L 635.14 909.84 L 636.40 909.78 L 637.67 909.78 L 638.93 909.83 L 640.19 909.83 L 641.45 909.89 L 642.71 909.82 L 643.98 909.63 L 645.24 909.74 L 646.50 909.81 L 647.76 909.73 L 649.02 909.82 L 650.29 909.71 L 651.55 909.88 L 652.81 909.74 L 654.07 909.80 L 655.33 909.73 L 656.60 909.77 L 657.86 909.73 L 659.12 909.67 L 660.38 909.80 L 661.64 909.81 L 662.90 909.81 L 664.17 909.78 L 665.43 909.78 L 666.69 909.76 L 667.95 909.77 L 669.21 909.67 L 670.48 909.69 L 671.74 909.69 L 673.00 909.86 L 674.26 909.76 L 675.52 909.78 L 676.79 909.69 L 678.05 909.88 L 679.31 909.86 L 680.57 909.80 L 681.83 909.72 L 683.10 909.70 L 684.36 909.61 L 685.62 909.82 L 686.88 909.81 L 688.14 909.91 L 689.40 909.75 L 690.67 909.88 L 691.93 909.81 L 693.19 909.79 L 694.45 909.74 L 695.71 909.88 L 696.98 909.71 L 698.24 909.80 L 699.50 909.80 L 700.76 909.84 L 702.02 909.91 L 703.29 909.85 L 704.55 909.69 L 705.81 909.69 L 707.07 909.70 L 708.33 909.64 L 709.60 909.68 L 710.86 909.83 L 712.12 909.75 L 713.38 909.89 L 714.64 909.83 L 715.90 909.84 L 717.17 909.87 L 718.43 909.66 L 719.69 909.90 L 720.95 909.81 L 722.21 909.92 L 723.48 909.83 L 724.74 909.73 L 726.00 909.89 L 727.26 909.86 L 728.52 909.90 L 729.79 909.87 L 731.05 909.86 L 732.31 909.77 L 733.57 909.81 L 734.83 909.69 L 736.10 909.79 L 737.36 909.74 L 738.62 909.69 L 739.88 909.69 L 741.14 909.62 L 742.40 909.79 L 743.67 909.75 L 744.93 909.80 L 746.19 909.78 L 747.45 909.74 L 748.71 909.80 L 749.98 909.80 L 751.24 909.77 L 752.50 909.84 L 753.76 909.94 L 755.02 909.93 L 756.29 909.89 L 757.55 909.82 L 758.81 909.78 L 760.07 909.88 L 761.33 909.79 L 762.60 909.74 L 763.86 909.96 L 765.12 909.82 L 766.38 909.78 L 767.64 909.72 L 768.90 909.74 L 770.17 909.75 L 771.43 909.84 L 772.69 909.78 L 773.95 909.75 L 775.21 909.80 L 776.48 909.74 L 777.74 909.86 L 779.00 909.85 L 780.26 909.78 L 781.52 909.84 L 782.79 909.84 L 784.05 909.75 L 785.31 909.85 L 786.57 909.88 L 787.83 909.86 L 789.10 909.44 L 790.36 909.71 L 791.62 906.20 L 792.88 884.53 L 794.14 885.40 L 795.40 885.69 L 796.67 876.85 L 797.93 880.41 L 799.19 895.00 L 800.45 901.32 L 801.71 891.80 L 802.98 897.58 L 804.24 896.35 L 805.50 897.03 L 806.76 889.46 L 808.02 878.28 L 809.29 875.12 L 810.55 875.52 L 811.81 883.02 L 813.07 888.03 L 814.33 900.00 L 815.60 891.39 L 816.86 885.55 L 818.12 881.99 L 819.38 886.55 L 820.64 893.45 L 821.90 889.19 L 823.17 888.85 L 824.43 892.58 L 825.69 895.26 L 826.95 902.42 L 828.21 907.23 L 829.48 907.67 L 830.74 898.75 L 832.00 894.84 L 833.26 886.87 L 834.52 880.82 L 835.79 876.45 L 837.05 879.43 L 838.31 878.00 L 839.57 878.05 L 840.83 881.72 L 842.10 876.02 L 843.36 883.28 L 844.62 884.77 L 845.88 884.77 L 847.14 902.13 L 848.40 908.63 L 849.67 909.70 L 850.93 909.57 L 852.19 909.58 L 853.45 909.67 L 854.71 909.70 L 855.98 909.59 L 857.24 909.78 L 858.50 908.82 L 859.76 909.64 L 861.02 909.90 L 862.29 909.69 L 863.55 908.16 L 864.81 907.63 L 866.07 906.37 L 867.33 905.56 L 868.60 906.31 L 869.86 907.95 L 871.12 908.68 L 872.38 907.97 L 873.64 909.22 L 874.90 908.56 L 876.17 907.30 L 877.43 906.83 L 878.69 892.46 L 879.95 877.06 L 881.21 881.29 L 882.48 881.84 L 883.74 895.40 L 885.00 902.91 L 886.26 897.72 L 887.52 891.53 L 888.79 893.49 L 890.05 887.13 L 891.31 889.22 L 892.57 888.48 L 893.83 890.37 L 895.10 887.20 L 896.36 892.22 L 897.62 896.22 L 898.88 897.95 L 900.14 898.90 L 901.40 900.02 L 902.67 903.75 L 903.93 905.75 L 905.19 906.30 L 906.45 906.06 L 907.71 905.32 L 908.98 901.94 L 910.24 901.14 L 911.50 901.24 L 912.76 900.11 L 914.02 902.32 L 915.29 900.68 L 916.55 897.69 L 917.81 898.36 L 919.07 900.46 L 920.33 901.68 L 921.60 902.79 L 922.86 905.12 L 924.12 904.02 L 925.38 902.99 L 926.64 900.73 L 927.90 906.18 L 929.17 903.81 L 930.43 900.29 L 931.69 903.28 L 932.95 901.25 L 934.21 904.96 L 935.48 904.37 L 936.74 904.70 L 938.00 907.32 L 939.26 908.34 L 940.52 909.05 L 941.79 909.29 L 943.05 909.54 L 944.31 909.50 L 945.57 909.51 L 946.83 909.46 L 948.10 909.79 L 949.36 909.43 L 950.62 909.61 L 951.88 909.57 L 953.14 909.57 L 954.40 909.54 L 955.67 909.44 L 956.93 909.50 L 958.19 909.46 L 959.45 909.44 L 960.71 909.43 L 961.98 909.62 L 963.24 909.84 L 964.50 909.79 L 965.76 909.88 L 967.02 909.86 L 968.29 909.79 L 969.55 909.81 L 970.81 909.89 L 972.07 909.89 L 973.33 909.81 L 974.60 909.85 L 975.86 909.88 L 977.12 909.85 L 978.38 909.87 L 979.64 909.91 L 980.90 909.89 L 982.17 909.86 L 983.43 909.86 L 984.69 909.91 L 985.95 909.91 L 987.21 909.84 L 988.48 909.85 L 989.74 909.92 L 991.00 909.87 L 992.26 909.82 L 993.52 909.89 L 994.79 909.91 L 996.05 909.88 L 997.31 909.86 L 998.57 909.80 L 999.83 909.92 L 1001.10 909.79 L 1002.36 909.91 L 1003.62 909.77 L 1004.88 909.93 L 1006.14 909.83 L 1007.40 909.90 L 1008.67 909.78 L 1009.93 909.78 L 1011.19 909.85 L 1012.45 909.90 L 1013.71 909.77 L 1014.98 909.93 L 1016.24 909.87 L 1017.50 909.81 L 1018.76 909.72" stroke="#E53935" />
<text x="620.00" y="952" font-size="15" text-anchor="middle">minutos (relativo ao início do evento)</text>
<text class="small" x="90.00" y="936" text-anchor="middle">-4.00</text>
<text class="small" x="241.43" y="936" text-anchor="middle">-2.00</text>
<text class="small" x="392.86" y="936" text-anchor="middle">0.00</text>
<text class="small" x="544.29" y="936" text-anchor="middle">2.00</text>
<text class="small" x="695.71" y="936" text-anchor="middle">4.00</text>
<text class="small" x="847.14" y="936" text-anchor="middle">6.00</text>
<text class="small" x="998.57" y="936" text-anchor="middle">8.00</text>
<text class="small" x="1150.00" y="936" text-anchor="middle">10.0</text>
</svg>