<?xml version="1.0" encoding="UTF-8"?>
<svg xmlns="http://www.w3.org/2000/svg" width="1180" height="980" viewBox="0 0 1180 980">
<style>
text { font-family: -apple-system, BlinkMacSystemFont, 'Segoe UI', Roboto, Helvetica, Arial, sans-serif; fill: #111; }
.small { font-size: 12px; fill: #222; }
.title { font-size: 18px; font-weight: 700; }
.axis { stroke: #111; stroke-width: 1.4; }
.grid { stroke: #E6E6E6; stroke-width: 1; }
.event { fill: #FFEB3B; fill-opacity: 0.18; }
.eventline { stroke: #F9A825; stroke-width: 1.2; stroke-dasharray: 4 3; }
.series { fill: none; stroke-width: 1.8; }
</style>
<text class="title" x="90" y="34">ciclo 2 — espera_carregamento — 2025-12-12T13:12:19-03:00 → 2025-12-12T13:12:55-03:00 (span 36s, dur 37s)</text>
<text class="small" x="90" y="54">GPS: -11.698011,-47.154951  hotspot: -11.698,-47.155</text>
<text class="small" x="90" y="70">Janela: -3.00 → 3.60 min (relativo ao início do evento)</text>
<text x="90" y="79.00" font-size="14" font-weight="700">Velocidade (km/h)</text>
<rect class="event" x="443.33" y="85.00" width="53.00" height="192.75" />
<line class="eventline" x1="443.33" y1="85.00" x2="443.33" y2="277.75" />
<line class="eventline" x1="496.33" y1="85.00" x2="496.33" y2="277.75" />
<line class="grid" x1="90" y1="277.75" x2="1150" y2="277.75" />
<text class="small" x="80" y="281.75" text-anchor="end">0.00</text>
<line class="grid" x1="90" y1="239.20" x2="1150" y2="239.20" />
<text class="small" x="80" y="243.20" text-anchor="end">2.00</text>
<line class="grid" x1="90" y1="200.65" x2="1150" y2="200.65" />
<text class="small" x="80" y="204.65" text-anchor="end">4.00</text>
<line class="grid" x1="90" y1="162.10" x2="1150" y2="162.10" />
<text class="small" x="80" y="166.10" text-anchor="end">6.00</text>
<line class="grid" x1="90" y1="123.55" x2="1150" y2="123.55" />
<text class="small" x="80" y="127.55" text-anchor="end">8.00</text>
<line class="grid" x1="90" y1="85.00" x2="1150" y2="85.00" />
<text class="small" x="80" y="89.00" text-anchor="end">10.0</text>
<line class="grid" x1="90.00" y1="85.00" x2="90.00" y2="277.75" />
<line class="grid" x1="266.67" y1="85.00" x2="266.67" y2="277.75" />
<line class="grid" x1="443.33" y1="85.00" x2="443.33" y2="277.75" />
<line class="grid" x1="620.00" y1="85.00" x2="620.00" y2="277.75" />
<line class="grid" x1="796.67" y1="85.00" x2="796.67" y2="277.75" />
<line class="grid" x1="973.33" y1="85.00" x2="973.33" y2="277.75" />
<line class="grid" x1="1150.00" y1="85.00" x2="1150.00" y2="277.75" />
<line class="axis" x1="90" y1="85.00" x2="90" y2="277.75" />
<line class="axis" x1="90" y1="277.75" x2="1150" y2="277.75" />
<path class="series" d="M 178.33 234.73 L 179.81 179.22 L 181.28 190.32 L 182.75 184.07 L 184.22 195.87 L 185.69 197.26 L 187.17 189.62 L 188.64 177.83 L 190.11 195.18 L 191.58 193.79 L 193.06 186.85 L 194.53 207.67 L 196.00 207.67 L 197.47 212.52 L 198.94 218.77 L 200.42 222.24 L 201.89 221.54 L 203.36 237.50 L 204.83 239.59 L 206.31 243.06 L 207.78 237.50 L 209.25 240.28 L 210.72 238.20 L 212.19 233.34 L 213.67 234.73 L 215.14 237.50 L 216.61 233.34 L 218.08 240.28 L 219.56 243.75 L 221.03 247.22 L 222.50 277.75 L 223.97 277.75 L 225.44 277.75 L 226.92 249.30 L 228.39 249.30 L 229.86 253.46 L 231.33 244.44 L 232.81 242.36 L 234.28 240.28 L 235.75 249.99 L 237.22 246.52 L 238.69 248.61 L 240.17 252.77 L 241.64 242.36 L 243.11 243.06 L 244.58 245.14 L 246.06 249.99 L 247.53 239.59 L 249.00 258.32 L 250.47 260.40 L 251.94 277.75 L 253.42 277.75 L 254.89 277.75 L 256.36 277.75 L 257.83 277.75 L 259.31 277.75 L 260.78 277.75 L 262.25 277.75 L 263.72 277.75 L 265.19 277.75 L 266.67 277.75 L 268.14 277.75 L 269.61 277.75 L 271.08 277.75 L 272.56 277.75 L 274.03 277.75 L 275.50 277.75 L 276.97 277.75 L 278.44 277.75 L 279.92 277.75 L 281.39 277.75 L 282.86 277.75 L 284.33 277.75 L 285.81 277.75 L 287.28 277.75 L 288.75 277.75 L 290.22 277.75 L 291.69 277.75 L 293.17 277.75 L 294.64 277.75 L 296.11 277.75 L 297.58 277.75 L 299.06 277.75 L 300.53 277.75 L 302.00 277.75 L 303.47 277.75 L 304.94 277.75 L 306.42 277.75 L 307.89 277.75 L 309.36 277.75 L 310.83 277.75 L 312.31 277.75 L 313.78 277.75 L 315.25 277.75 L 316.72 277.75 L 318.19 277.75 L 319.67 277.75 L 321.14 277.75 L 322.61 277.75 L 324.08 277.75 L 325.56 277.75 L 327.03 277.75 L 328.50 277.75 L 329.97 277.75 L 331.44 277.75 L 332.92 277.75 L 334.39 277.75 L 335.86 277.75 L 337.33 277.75 L 338.81 277.75 L 340.28 277.75 L 341.75 277.75 L 343.22 277.75 L 344.69 277.75 L 346.17 277.75 L 347.64 277.75 L 349.11 277.75 L 350.58 277.75 L 352.06 277.75 L 353.53 277.75 L 355.00 277.75 L 356.47 277.75 L 357.94 277.75 L 359.42 277.75 L 360.89 277.75 L 362.36 277.75 L 363.83 277.75 L 365.31 277.75 L 366.78 277.75 L 368.25 277.75 L 369.72 277.75 L 371.19 277.75 L 372.67 277.75 L 374.14 277.75 L 375.61 277.75 L 377.08 277.75 L 378.56 277.75 L 380.03 277.75 L 381.50 277.75 L 382.97 277.75 L 384.44 277.75 L 385.92 165.34 L 387.39 175.05 L 388.86 168.81 L 390.33 180.60 L 391.81 172.28 L 393.28 172.97 L 394.75 194.48 L 396.22 218.77 L 397.69 225.01 L 399.17 168.11 L 400.64 161.17 L 402.11 167.42 L 403.58 130.64 L 405.06 156.32 L 406.53 172.97 L 408.00 143.13 L 409.47 147.99 L 410.94 213.91 L 412.42 165.34 L 413.89 192.40 L 415.36 226.40 L 416.83 218.07 L 418.31 223.63 L 419.78 238.20 L 421.25 236.81 L 422.72 236.12 L 424.19 235.42 L 425.67 252.77 L 427.14 277.75 L 428.61 277.75 L 430.08 277.75 L 431.56 277.75 L 433.03 277.75 L 434.50 253.46 L 435.97 261.10 L 437.44 277.75 L 438.92 252.08 L 440.39 260.40 L 441.86 250.69 L 443.33 277.75 L 444.81 277.75 L 446.28 277.75 L 447.75 277.75 L 449.22 277.75 L 450.69 277.75 L 452.17 277.75 L 453.64 277.75 L 455.11 277.75 L 456.58 277.75 L 458.06 277.75 L 459.53 277.75 L 461.00 277.75 L 462.47 277.75 L 463.94 277.75 L 465.42 277.75 L 466.89 277.75 L 468.36 277.75 L 469.83 277.75 L 471.31 277.75 L 472.78 277.75 L 474.25 277.75 L 475.72 277.75 L 477.19 277.75 L 478.67 277.75 L 480.14 277.75 L 481.61 277.75 L 483.08 277.75 L 484.56 277.75 L 486.03 277.75 L 487.50 277.75 L 488.97 277.75 L 490.44 277.75 L 491.92 277.75 L 493.39 277.75 L 494.86 277.75 L 496.33 277.75 L 497.81 157.01 L 499.28 185.46 L 500.75 213.22 L 502.22 202.11 L 503.69 220.85 L 505.17 199.34 L 506.64 215.30 L 508.11 227.79 L 509.58 236.12 L 511.06 227.10 L 512.53 218.07 L 514.00 246.52 L 515.47 248.61 L 516.94 262.48 L 518.42 259.71 L 519.89 277.75 L 521.36 277.75 L 522.83 277.75 L 524.31 277.75 L 525.78 277.75 L 527.25 277.75 L 528.72 277.75 L 530.19 277.75 L 531.67 277.75 L 533.14 277.75 L 534.61 277.75 L 536.08 277.75 L 537.56 277.75 L 539.03 277.75 L 540.50 277.75 L 541.97 277.75 L 543.44 277.75 L 544.92 277.75 L 546.39 277.75 L 547.86 277.75 L 549.33 277.75 L 550.81 277.75 L 552.28 277.75 L 553.75 277.75 L 555.22 277.75 L 556.69 277.75 L 558.17 277.75 L 559.64 277.75 L 561.11 277.75 L 562.58 277.75 L 564.06 277.75 L 565.53 277.75 L 567.00 277.75 L 568.47 277.75 L 569.94 277.75 L 571.42 277.75 L 572.89 277.75 L 574.36 277.75 L 575.83 277.75 L 577.31 277.75 L 578.78 277.75 L 580.25 277.75 L 581.72 277.75 L 583.19 277.75 L 584.67 277.75 L 586.14 277.75 L 587.61 277.75 L 589.08 277.75 L 590.56 277.75 L 592.03 277.75 L 593.50 277.75 L 594.97 277.75 L 596.44 277.75 L 597.92 277.75 L 599.39 277.75 L 600.86 277.75 L 602.33 277.75 L 603.81 277.75 L 605.28 277.75 L 606.75 277.75 L 608.22 277.75 L 609.69 277.75 L 611.17 277.75 L 612.64 277.75 L 614.11 277.75 L 615.58 277.75 L 617.06 277.75 L 618.53 277.75 L 620.00 277.75 L 621.47 277.75 L 622.94 277.75 L 624.42 277.75 L 625.89 277.75 L 627.36 277.75 L 628.83 277.75 L 630.31 277.75 L 631.78 277.75 L 633.25 277.75 L 634.72 277.75 L 636.19 277.75 L 637.67 277.75 L 639.14 277.75 L 640.61 277.75 L 642.08 277.75 L 643.56 277.75 L 645.03 277.75 L 646.50 277.75 L 647.97 277.75 L 649.44 277.75 L 650.92 277.75 L 652.39 277.75 L 653.86 277.75 L 655.33 277.75 L 656.81 277.75 L 658.28 277.75 L 659.75 277.75 L 661.22 277.75 L 662.69 277.75 L 664.17 277.75 L 665.64 277.75 L 667.11 277.75 L 668.58 277.75 L 670.06 277.75 L 671.53 277.75 L 673.00 277.75 L 674.47 277.75 L 675.94 277.75 L 677.42 277.75 L 678.89 277.75 L 680.36 277.75 L 681.83 277.75 L 683.31 277.75 L 684.78 277.75 L 686.25 277.75 L 687.72 277.75 L 689.19 277.75 L 690.67 277.75 L 692.14 277.75 L 693.61 277.75 L 695.08 277.75 L 696.56 277.75 L 698.03 277.75 L 699.50 277.75 L 700.97 277.75 L 702.44 277.75 L 703.92 277.75 L 705.39 277.75 L 706.86 277.75 L 708.33 277.75 L 709.81 277.75 L 711.28 277.75 L 712.75 277.75 L 714.22 277.75 L 715.69 277.75 L 717.17 277.75 L 718.64 277.75 L 720.11 277.75 L 721.58 277.75 L 723.06 277.75 L 724.53 277.75 L 726.00 277.75 L 727.47 277.75 L 728.94 277.75 L 730.42 277.75 L 731.89 277.75 L 733.36 277.75 L 734.83 277.75 L 736.31 277.75 L 737.78 277.75 L 739.25 277.75 L 740.72 277.75 L 742.19 277.75 L 743.67 277.75 L 745.14 277.75 L 746.61 277.75 L 748.08 277.75 L 749.56 277.75 L 751.03 277.75 L 752.50 277.75 L 753.97 277.75 L 755.44 277.75 L 756.92 277.75 L 758.39 277.75 L 759.86 277.75 L 761.33 277.75" stroke="#1976D2" />
<text x="90" y="289.75" font-size="14" font-weight="700">Inclinação (graus)</text>
<rect class="event" x="443.33" y="295.75" width="53.00" height="192.75" />
<line class="eventline" x1="443.33" y1="295.75" x2="443.33" y2="488.50" />
<line class="eventline" x1="496.33" y1="295.75" x2="496.33" y2="488.50" />
<line class="grid" x1="90" y1="488.50" x2="1150" y2="488.50" />
<text class="small" x="80" y="492.50" text-anchor="end">-10.0</text>
<line class="grid" x1="90" y1="449.95" x2="1150" y2="449.95" />
<text class="small" x="80" y="453.95" text-anchor="end">0.00</text>
<line class="grid" x1="90" y1="411.40" x2="1150" y2="411.40" />
<text class="small" x="80" y="415.40" text-anchor="end">10.0</text>
<line class="grid" x1="90" y1="372.85" x2="1150" y2="372.85" />
<text class="small" x="80" y="376.85" text-anchor="end">20.0</text>
<line class="grid" x1="90" y1="334.30" x2="1150" y2="334.30" />
<text class="small" x="80" y="338.30" text-anchor="end">30.0</text>
<line class="grid" x1="90" y1="295.75" x2="1150" y2="295.75" />
<text class="small" x="80" y="299.75" text-anchor="end">40.0</text>
<line class="grid" x1="90.00" y1="295.75" x2="90.00" y2="488.50" />
<line class="grid" x1="266.67" y1="295.75" x2="266.67" y2="488.50" />
<line class="grid" x1="443.33" y1="295.75" x2="443.33" y2="488.50" />
<line class="grid" x1="620.00" y1="295.75" x2="620.00" y2="488.50" />
<line class="grid" x1="796.67" y1="295.75" x2="796.67" y2="488.50" />
<line class="grid" x1="973.33" y1="295.75" x2="973.33" y2="488.50" />
<line class="grid" x1="1150.00" y1="295.75" x2="1150.00" y2="488.50" />
<line class="axis" x1="90" y1="295.75" x2="90" y2="488.50" />
<line class="axis" x1="90" y1="488.50" x2="1150" y2="488.50" />
<path class="series" d="M 178.33 421.95 L 179.81 412.93 L 181.28 418.50 L 182.75 409.13 L 184.22 409.83 L 185.69 410.07 L 187.17 408.72 L 188.64 403.91 L 190.11 403.38 L 191.58 395.02 L 193.06 395.26 L 194.53 397.80 L 196.00 397.86 L 197.47 396.97 L 198.94 403.76 L 200.42 403.17 L 201.89 404.08 L 203.36 403.81 L 204.83 405.60 L 206.31 405.55 L 207.78 405.37 L 209.25 405.32 L 210.72 403.93 L 212.19 402.66 L 213.67 400.95 L 215.14 399.24 L 216.61 394.27 L 218.08 393.92 L 219.56 394.26 L 221.03 394.26 L 222.50 395.00 L 223.97 390.34 L 225.44 388.12 L 226.92 388.37 L 228.39 387.39 L 229.86 385.73 L 231.33 387.87 L 232.81 385.93 L 234.28 381.70 L 235.75 378.74 L 237.22 379.23 L 238.69 379.35 L 240.17 378.52 L 241.64 376.21 L 243.11 374.08 L 244.58 372.42 L 246.06 376.19 L 247.53 375.29 L 249.00 371.44 L 250.47 372.63 L 251.94 371.90 L 253.42 376.08 L 254.89 376.11 L 256.36 375.98 L 257.83 375.93 L 259.31 376.05 L 260.78 375.95 L 262.25 376.09 L 263.72 376.05 L 265.19 376.04 L 266.67 375.94 L 268.14 376.09 L 269.61 375.96 L 271.08 376.07 L 272.56 376.05 L 274.03 376.03 L 275.50 376.02 L 276.97 376.00 L 278.44 376.03 L 279.92 376.02 L 281.39 376.05 L 282.86 376.04 L 284.33 375.99 L 285.81 376.01 L 287.28 375.93 L 288.75 376.00 L 290.22 375.95 L 291.69 375.97 L 293.17 375.95 L 294.64 375.99 L 296.11 375.95 L 297.58 375.97 L 299.06 375.95 L 300.53 375.97 L 302.00 375.99 L 303.47 375.87 L 304.94 375.95 L 306.42 375.98 L 307.89 375.98 L 309.36 375.91 L 310.83 375.91 L 312.31 375.93 L 313.78 375.96 L 315.25 375.96 L 316.72 375.99 L 318.19 375.95 L 319.67 375.96 L 321.14 376.01 L 322.61 375.99 L 324.08 375.97 L 325.56 375.99 L 327.03 375.97 L 328.50 376.03 L 329.97 376.05 L 331.44 375.99 L 332.92 375.97 L 334.39 375.98 L 335.86 376.04 L 337.33 375.97 L 338.81 375.97 L 340.28 375.98 L 341.75 375.97 L 343.22 376.00 L 344.69 375.92 L 346.17 375.93 L 347.64 376.03 L 349.11 376.01 L 350.58 375.96 L 352.06 375.97 L 353.53 375.97 L 355.00 376.01 L 356.47 375.97 L 357.94 375.98 L 359.42 375.98 L 360.89 376.03 L 362.36 376.01 L 363.83 375.88 L 365.31 376.04 L 366.78 375.92 L 368.25 375.78 L 369.72 375.88 L 371.19 375.87 L 372.67 375.86 L 374.14 375.84 L 375.61 375.81 L 377.08 375.79 L 378.56 375.87 L 380.03 375.84 L 381.50 391.30 L 382.97 382.55 L 384.44 379.01 L 385.92 391.80 L 387.39 384.85 L 388.86 397.73 L 390.33 392.28 L 391.81 413.74 L 393.28 400.34 L 394.75 398.73 L 396.22 395.82 L 397.69 415.71 L 399.17 407.52 L 400.64 394.51 L 402.11 399.44 L 403.58 399.04 L 405.06 400.86 L 406.53 392.88 L 408.00 403.38 L 409.47 411.53 L 410.94 405.56 L 412.42 403.73 L 413.89 400.38 L 415.36 420.12 L 416.83 400.76 L 418.31 409.46 L 419.78 412.93 L 421.25 408.78 L 422.72 411.12 L 424.19 404.51 L 425.67 404.40 L 427.14 410.08 L 428.61 411.15 L 430.08 407.09 L 431.56 410.47 L 433.03 404.57 L 434.50 420.96 L 435.97 414.14 L 437.44 406.44 L 438.92 422.13 L 440.39 409.15 L 441.86 409.15 L 443.33 420.79 L 444.81 415.21 L 446.28 415.73 L 447.75 412.63 L 449.22 413.37 L 450.69 413.77 L 452.17 413.71 L 453.64 413.71 L 455.11 413.73 L 456.58 413.70 L 458.06 413.74 L 459.53 413.80 L 461.00 413.52 L 462.47 413.94 L 463.94 413.60 L 465.42 412.99 L 466.89 412.83 L 468.36 413.31 L 469.83 412.61 L 471.31 412.70 L 472.78 412.66 L 474.25 412.02 L 475.72 401.27 L 477.19 408.64 L 478.67 413.97 L 480.14 407.70 L 481.61 400.82 L 483.08 411.54 L 484.56 406.18 L 486.03 420.25 L 487.50 420.33 L 488.97 426.27 L 490.44 412.99 L 491.92 412.91 L 493.39 412.50 L 494.86 404.99 L 496.33 418.81 L 497.81 414.88 L 499.28 417.25 L 500.75 418.85 L 502.22 415.84 L 503.69 422.32 L 505.17 411.70 L 506.64 415.56 L 508.11 416.78 L 509.58 417.71 L 511.06 411.17 L 512.53 417.02 L 514.00 428.84 L 515.47 411.04 L 516.94 418.66 L 518.42 412.17 L 519.89 415.68 L 521.36 422.24 L 522.83 409.17 L 524.31 421.01 L 525.78 420.18 L 527.25 414.28 L 528.72 415.17 L 530.19 417.35 L 531.67 412.75 L 533.14 414.06 L 534.61 414.77 L 536.08 414.76 L 537.56 414.70 L 539.03 414.71 L 540.50 414.69 L 541.97 414.81 L 543.44 414.66 L 544.92 414.70 L 546.39 414.73 L 547.86 414.67 L 549.33 414.69 L 550.81 414.78 L 552.28 414.70 L 553.75 414.72 L 555.22 414.75 L 556.69 414.71 L 558.17 414.66 L 559.64 414.75 L 561.11 414.69 L 562.58 414.68 L 564.06 414.76 L 565.53 414.64 L 567.00 414.66 L 568.47 414.76 L 569.94 414.70 L 571.42 414.65 L 572.89 414.74 L 574.36 414.69 L 575.83 414.69 L 577.31 414.71 L 578.78 414.69 L 580.25 414.68 L 581.72 414.82 L 583.19 414.71 L 584.67 414.74 L 586.14 414.73 L 587.61 414.74 L 589.08 414.72 L 590.56 414.73 L 592.03 414.66 L 593.50 414.70 L 594.97 414.78 L 596.44 414.79 L 597.92 414.70 L 599.39 414.82 L 600.86 414.76 L 602.33 414.77 L 603.81 414.76 L 605.28 414.72 L 606.75 414.85 L 608.22 414.82 L 609.69 414.83 L 611.17 414.74 L 612.64 414.79 L 614.11 414.79 L 615.58 414.75 L 617.06 414.75 L 618.53 414.80 L 620.00 414.67 L 621.47 414.94 L 622.94 414.42 L 624.42 413.32 L 625.89 414.37 L 627.36 413.66 L 628.83 406.91 L 630.31 417.48 L 631.78 412.42 L 633.25 410.69 L 634.72 411.15 L 636.19 411.10 L 637.67 414.33 L 639.14 408.79 L 640.61 410.67 L 642.08 411.41 L 643.56 411.33 L 645.03 411.33 L 646.50 411.36 L 647.97 411.33 L 649.44 411.29 L 650.92 411.33 L 652.39 411.33 L 653.86 411.33 L 655.33 411.33 L 656.81 411.33 L 658.28 411.33 L 659.75 411.30 L 661.22 411.29 L 662.69 411.29 L 664.17 411.29 L 665.64 411.28 L 667.11 411.26 L 668.58 411.26 L 670.06 411.28 L 671.53 411.27 L 673.00 411.26 L 674.47 411.29 L 675.94 411.28 L 677.42 411.18 L 678.89 411.60 L 680.36 411.20 L 681.83 410.49 L 683.31 409.74 L 684.78 411.14 L 686.25 410.63 L 687.72 410.46 L 689.19 410.55 L 690.67 410.60 L 692.14 410.58 L 693.61 410.60 L 695.08 410.62 L 696.56 410.58 L 698.03 410.56 L 699.50 410.54 L 700.97 410.61 L 702.44 410.57 L 703.92 410.58 L 705.39 410.58 L 706.86 410.57 L 708.33 410.56 L 709.81 410.55 L 711.28 410.60 L 712.75 410.07 L 714.22 409.27 L 715.69 410.33 L 717.17 410.58 L 718.64 409.81 L 720.11 409.83 L 721.58 410.02 L 723.06 409.80 L 724.53 409.95 L 726.00 409.84 L 727.47 409.86 L 728.94 409.92 L 730.42 409.82 L 731.89 409.86 L 733.36 409.86 L 734.83 409.85 L 736.31 409.85 L 737.78 409.90 L 739.25 409.88 L 740.72 409.81 L 742.19 409.87 L 743.67 409.78 L 745.14 409.89 L 746.61 409.86 L 748.08 409.83 L 749.56 409.82 L 751.03 410.03 L 752.50 409.51 L 753.97 410.12 L 755.44 408.67 L 756.92 410.02 L 758.39 409.74 L 759.86 409.67 L 761.33 409.65" stroke="#2E7D32" />
<path class="series" d="M 178.33 441.93 L 179.81 444.85 L 181.28 449.34 L 182.75 447.93 L 184.22 453.09 L 185.69 451.37 L 187.17 451.56 L 188.64 448.28 L 190.11 445.63 L 191.58 448.12 L 193.06 443.80 L 194.53 444.80 L 196.00 444.53 L 197.47 442.06 L 198.94 445.28 L 200.42 446.66 L 201.89 444.00 L 203.36 444.58 L 204.83 445.31 L 206.31 444.21 L 207.78 443.67 L 209.25 445.35 L 210.72 444.63 L 212.19 445.91 L 213.67 443.84 L 215.14 444.21 L 216.61 442.31 L 218.08 440.73 L 219.56 440.68 L 221.03 440.68 L 222.50 439.27 L 223.97 439.69 L 225.44 439.71 L 226.92 438.37 L 228.39 438.78 L 229.86 440.05 L 231.33 438.07 L 232.81 440.27 L 234.28 438.27 L 235.75 440.30 L 237.22 441.47 L 238.69 440.75 L 240.17 444.21 L 241.64 446.71 L 243.11 443.47 L 244.58 443.16 L 246.06 448.18 L 247.53 448.31 L 249.00 447.72 L 250.47 448.44 L 251.94 448.58 L 253.42 448.36 L 254.89 448.44 L 256.36 448.46 L 257.83 448.33 L 259.31 448.47 L 260.78 448.07 L 262.25 448.54 L 263.72 448.29 L 265.19 448.34 L 266.67 448.42 L 268.14 448.26 L 269.61 448.32 L 271.08 448.36 L 272.56 448.33 L 274.03 448.34 L 275.50 448.29 L 276.97 448.31 L 278.44 448.36 L 279.92 448.36 L 281.39 448.32 L 282.86 448.32 L 284.33 448.35 L 285.81 448.33 L 287.28 448.23 L 288.75 448.35 L 290.22 448.33 L 291.69 448.34 L 293.17 448.35 L 294.64 448.28 L 296.11 448.28 L 297.58 448.37 L 299.06 448.32 L 300.53 448.32 L 302.00 448.33 L 303.47 448.31 L 304.94 448.34 L 306.42 448.32 L 307.89 448.32 L 309.36 448.26 L 310.83 448.33 L 312.31 448.34 L 313.78 448.25 L 315.25 448.34 L 316.72 448.31 L 318.19 448.38 L 319.67 448.31 L 321.14 448.31 L 322.61 448.30 L 324.08 448.35 L 325.56 448.37 L 327.03 448.31 L 328.50 448.33 L 329.97 448.36 L 331.44 448.32 L 332.92 448.38 L 334.39 448.36 L 335.86 448.32 L 337.33 448.32 L 338.81 448.41 L 340.28 448.30 L 341.75 448.31 L 343.22 448.34 L 344.69 448.32 L 346.17 448.37 L 347.64 448.37 L 349.11 448.29 L 350.58 448.33 L 352.06 448.34 L 353.53 448.33 L 355.00 448.32 L 356.47 448.34 L 357.94 448.33 L 359.42 448.42 L 360.89 448.32 L 362.36 448.33 L 363.83 448.31 L 365.31 448.46 L 366.78 448.30 L 368.25 448.32 L 369.72 448.30 L 371.19 448.32 L 372.67 448.34 L 374.14 448.35 L 375.61 448.28 L 377.08 448.32 L 378.56 448.34 L 380.03 448.40 L 381.50 443.88 L 382.97 443.01 L 384.44 441.28 L 385.92 435.66 L 387.39 446.19 L 388.86 440.61 L 390.33 459.27 L 391.81 457.98 L 393.28 452.55 L 394.75 459.27 L 396.22 462.09 L 397.69 473.92 L 399.17 471.56 L 400.64 476.35 L 402.11 474.55 L 403.58 470.00 L 405.06 475.83 L 406.53 468.50 L 408.00 466.11 L 409.47 466.74 L 410.94 467.29 L 412.42 463.65 L 413.89 446.25 L 415.36 460.26 L 416.83 449.49 L 418.31 455.68 L 419.78 455.15 L 421.25 460.61 L 422.72 459.08 L 424.19 451.33 L 425.67 451.10 L 427.14 454.91 L 428.61 453.39 L 430.08 452.28 L 431.56 453.14 L 433.03 456.51 L 434.50 457.28 L 435.97 456.71 L 437.44 463.25 L 438.92 451.96 L 440.39 453.26 L 441.86 453.26 L 443.33 448.36 L 444.81 451.63 L 446.28 449.87 L 447.75 452.27 L 449.22 450.42 L 450.69 451.41 L 452.17 451.24 L 453.64 451.02 L 455.11 451.29 L 456.58 451.07 L 458.06 451.11 L 459.53 451.27 L 461.00 450.73 L 462.47 451.77 L 463.94 452.36 L 465.42 453.30 L 466.89 452.48 L 468.36 453.00 L 469.83 452.99 L 471.31 453.34 L 472.78 453.13 L 474.25 453.70 L 475.72 453.24 L 477.19 443.88 L 478.67 450.39 L 480.14 448.81 L 481.61 448.13 L 483.08 452.41 L 484.56 461.80 L 486.03 466.46 L 487.50 461.14 L 488.97 468.20 L 490.44 457.96 L 491.92 462.51 L 493.39 455.64 L 494.86 438.41 L 496.33 456.31 L 497.81 450.61 L 499.28 458.46 L 500.75 459.05 L 502.22 453.75 L 503.69 457.08 L 505.17 464.33 L 506.64 452.87 L 508.11 452.31 L 509.58 457.85 L 511.06 461.64 L 512.53 451.91 L 514.00 445.63 L 515.47 455.83 L 516.94 449.10 L 518.42 450.26 L 519.89 452.18 L 521.36 451.22 L 522.83 450.58 L 524.31 450.60 L 525.78 454.19 L 527.25 451.35 L 528.72 452.42 L 530.19 451.98 L 531.67 452.05 L 533.14 451.34 L 534.61 451.90 L 536.08 452.04 L 537.56 451.74 L 539.03 451.83 L 540.50 451.91 L 541.97 451.84 L 543.44 451.79 L 544.92 451.85 L 546.39 451.81 L 547.86 451.78 L 549.33 451.78 L 550.81 451.91 L 552.28 451.83 L 553.75 451.82 L 555.22 451.79 L 556.69 451.75 L 558.17 451.83 L 559.64 451.86 L 561.11 451.79 L 562.58 451.77 L 564.06 451.79 L 565.53 451.82 L 567.00 451.78 L 568.47 451.74 L 569.94 451.72 L 571.42 451.78 L 572.89 451.82 L 574.36 451.73 L 575.83 451.75 L 577.31 451.76 L 578.78 451.78 L 580.25 451.79 L 581.72 451.76 L 583.19 451.80 L 584.67 451.80 L 586.14 451.80 L 587.61 451.78 L 589.08 451.74 L 590.56 451.79 L 592.03 451.79 L 593.50 451.77 L 594.97 451.71 L 596.44 451.74 L 597.92 451.78 L 599.39 451.86 L 600.86 451.75 L 602.33 451.76 L 603.81 451.76 L 605.28 451.77 L 606.75 451.84 L 608.22 451.77 L 609.69 451.76 L 611.17 451.78 L 612.64 451.82 L 614.11 451.75 L 615.58 451.76 L 617.06 451.77 L 618.53 451.77 L 620.00 451.71 L 621.47 451.74 L 622.94 452.42 L 624.42 451.89 L 625.89 451.06 L 627.36 451.41 L 628.83 450.48 L 630.31 455.74 L 631.78 455.25 L 633.25 453.81 L 634.72 454.63 L 636.19 454.47 L 637.67 453.93 L 639.14 454.99 L 640.61 452.78 L 642.08 454.41 L 643.56 453.54 L 645.03 453.87 L 646.50 453.87 L 647.97 453.78 L 649.44 453.95 L 650.92 453.76 L 652.39 453.90 L 653.86 453.90 L 655.33 453.90 L 656.81 453.90 L 658.28 453.90 L 659.75 453.85 L 661.22 453.89 L 662.69 453.88 L 664.17 453.84 L 665.64 453.81 L 667.11 453.87 L 668.58 453.87 L 670.06 453.92 L 671.53 453.85 L 673.00 453.83 L 674.47 453.85 L 675.94 453.83 L 677.42 453.89 L 678.89 452.95 L 680.36 454.14 L 681.83 453.83 L 683.31 454.03 L 684.78 453.79 L 686.25 453.76 L 687.72 453.88 L 689.19 453.83 L 690.67 453.77 L 692.14 453.84 L 693.61 453.76 L 695.08 453.86 L 696.56 453.86 L 698.03 453.88 L 699.50 453.82 L 700.97 453.84 L 702.44 453.86 L 703.92 453.88 L 705.39 453.86 L 706.86 453.86 L 708.33 453.86 L 709.81 453.89 L 711.28 453.93 L 712.75 453.69 L 714.22 453.88 L 715.69 452.94 L 717.17 453.16 L 718.64 453.64 L 720.11 453.73 L 721.58 453.59 L 723.06 453.41 L 724.53 453.31 L 726.00 453.39 L 727.47 453.53 L 728.94 453.61 L 730.42 453.54 L 731.89 453.42 L 733.36 453.41 L 734.83 453.45 L 736.31 453.54 L 737.78 453.49 L 739.25 453.51 L 740.72 453.43 L 742.19 453.47 L 743.67 453.48 L 745.14 453.48 L 746.61 453.43 L 748.08 453.51 L 749.56 453.47 L 751.03 453.44 L 752.50 452.33 L 753.97 453.76 L 755.44 454.28 L 756.92 453.82 L 758.39 453.67 L 759.86 453.63 L 761.33 453.67" stroke="#6A1B9A" />
<line x1="900.00" y1="307.75" x2="918.00" y2="307.75" stroke="#2E7D32" stroke-width="3" />
<text class="small" x="924.00" y="311.75">pitch</text>
<line x1="900.00" y1="323.75" x2="918.00" y2="323.75" stroke="#6A1B9A" stroke-width="3" />
<text class="small" x="924.00" y="327.75">roll</text>
<text x="90" y="500.50" font-size="14" font-weight="700">Aceleração (magnitude) (u.a.)</text>
<rect class="event" x="443.33" y="506.50" width="53.00" height="192.75" />
<line class="eventline" x1="443.33" y1="506.50" x2="443.33" y2="699.25" />
<line class="eventline" x1="496.33" y1="506.50" x2="496.33" y2="699.25" />
<line class="grid" x1="90" y1="699.25" x2="1150" y2="699.25" />
<text class="small" x="80" y="703.25" text-anchor="end">0.00</text>
<line class="grid" x1="90" y1="660.70" x2="1150" y2="660.70" />
<text class="small" x="80" y="664.70" text-anchor="end">0.50</text>
<line class="grid" x1="90" y1="622.15" x2="1150" y2="622.15" />
<text class="small" x="80" y="626.15" text-anchor="end">1.00</text>
<line class="grid" x1="90" y1="583.60" x2="1150" y2="583.60" />
<text class="small" x="80" y="587.60" text-anchor="end">1.50</text>
<line class="grid" x1="90" y1="545.05" x2="1150" y2="545.05" />
<text class="small" x="80" y="549.05" text-anchor="end">2.00</text>
<line class="grid" x1="90" y1="506.50" x2="1150" y2="506.50" />
<text class="small" x="80" y="510.50" text-anchor="end">2.50</text>
<line class="grid" x1="90.00" y1="506.50" x2="90.00" y2="699.25" />
<line class="grid" x1="266.67" y1="506.50" x2="266.67" y2="699.25" />
<line class="grid" x1="443.33" y1="506.50" x2="443.33" y2="699.25" />
<line class="grid" x1="620.00" y1="506.50" x2="620.00" y2="699.25" />
<line class="grid" x1="796.67" y1="506.50" x2="796.67" y2="699.25" />
<line class="grid" x1="973.33" y1="506.50" x2="973.33" y2="699.25" />
<line class="grid" x1="1150.00" y1="506.50" x2="1150.00" y2="699.25" />
<line class="axis" x1="90" y1="506.50" x2="90" y2="699.25" />
<line class="axis" x1="90" y1="699.25" x2="1150" y2="699.25" />
<path class="series" d="M 178.33 676.89 L 179.81 685.90 L 181.28 680.72 L 182.75 680.27 L 184.22 684.03 L 185.69 690.42 L 187.17 698.20 L 188.64 691.35 L 190.11 693.03 L 191.58 691.80 L 193.06 692.21 L 194.53 693.95 L 196.00 696.96 L 197.47 693.22 L 198.94 687.54 L 200.42 690.50 L 201.89 694.23 L 203.36 694.89 L 204.83 693.76 L 206.31 696.12 L 207.78 694.41 L 209.25 697.68 L 210.72 695.95 L 212.19 696.46 L 213.67 695.98 L 215.14 692.63 L 216.61 694.28 L 218.08 689.67 L 219.56 697.83 L 221.03 695.76 L 222.50 695.72 L 223.97 690.08 L 225.44 696.19 L 226.92 697.58 L 228.39 696.92 L 229.86 693.75 L 231.33 693.84 L 232.81 695.11 L 234.28 695.36 L 235.75 696.64 L 237.22 697.61 L 238.69 697.26 L 240.17 693.92 L 241.64 697.74 L 243.11 691.83 L 244.58 695.26 L 246.06 695.89 L 247.53 690.58 L 249.00 697.33 L 250.47 690.65 L 251.94 687.66 L 253.42 697.29 L 254.89 698.44 L 256.36 699.11 L 257.83 698.96 L 259.31 698.64 L 260.78 698.92 L 262.25 699.02 L 263.72 698.95 L 265.19 698.95 L 266.67 698.81 L 268.14 699.04 L 269.61 698.97 L 271.08 699.07 L 272.56 698.98 L 274.03 699.02 L 275.50 699.02 L 276.97 699.06 L 278.44 699.09 L 279.92 699.13 L 281.39 699.07 L 282.86 699.10 L 284.33 699.07 L 285.81 698.87 L 287.28 699.09 L 288.75 699.15 L 290.22 699.11 L 291.69 699.07 L 293.17 699.12 L 294.64 699.14 L 296.11 699.11 L 297.58 699.08 L 299.06 699.11 L 300.53 699.05 L 302.00 699.01 L 303.47 698.91 L 304.94 698.91 L 306.42 699.14 L 307.89 699.12 L 309.36 699.04 L 310.83 699.12 L 312.31 699.15 L 313.78 699.09 L 315.25 699.13 L 316.72 699.01 L 318.19 699.06 L 319.67 699.16 L 321.14 699.06 L 322.61 699.20 L 324.08 699.21 L 325.56 699.03 L 327.03 699.07 L 328.50 699.13 L 329.97 699.09 L 331.44 699.11 L 332.92 699.07 L 334.39 699.17 L 335.86 699.18 L 337.33 699.12 L 338.81 699.02 L 340.28 699.06 L 341.75 699.17 L 343.22 699.19 L 344.69 699.14 L 346.17 699.15 L 347.64 699.16 L 349.11 699.13 L 350.58 699.11 L 352.06 699.11 L 353.53 699.12 L 355.00 699.15 L 356.47 699.06 L 357.94 699.16 L 359.42 699.07 L 360.89 699.21 L 362.36 698.99 L 363.83 699.15 L 365.31 697.41 L 366.78 698.07 L 368.25 698.96 L 369.72 698.96 L 371.19 698.79 L 372.67 699.11 L 374.14 698.74 L 375.61 698.96 L 377.08 699.01 L 378.56 698.93 L 380.03 698.34 L 381.50 646.36 L 382.97 684.15 L 384.44 693.76 L 385.92 687.46 L 387.39 670.63 L 388.86 678.87 L 390.33 612.53 L 391.81 672.39 L 393.28 672.39 L 394.75 663.03 L 396.22 683.37 L 397.69 691.46 L 399.17 651.23 L 400.64 664.98 L 402.11 665.71 L 403.58 679.65 L 405.06 683.18 L 406.53 692.16 L 408.00 669.14 L 409.47 692.05 L 410.94 682.92 L 412.42 682.36 L 413.89 664.42 L 415.36 678.22 L 416.83 681.11 L 418.31 684.50 L 419.78 690.71 L 421.25 696.29 L 422.72 693.52 L 424.19 687.25 L 425.67 672.15 L 427.14 655.71 L 428.61 671.79 L 430.08 677.35 L 431.56 686.94 L 433.03 675.52 L 434.50 684.09 L 435.97 693.87 L 437.44 677.72 L 438.92 684.56 L 440.39 684.30 L 441.86 654.00 L 443.33 681.75 L 444.81 697.68 L 446.28 696.35 L 447.75 692.34 L 449.22 698.15 L 450.69 698.97 L 452.17 698.59 L 453.64 698.66 L 455.11 699.00 L 456.58 698.92 L 458.06 698.85 L 459.53 699.12 L 461.00 697.91 L 462.47 697.51 L 463.94 698.85 L 465.42 696.47 L 466.89 698.02 L 468.36 696.81 L 469.83 698.69 L 471.31 698.88 L 472.78 698.76 L 474.25 679.22 L 475.72 680.70 L 477.19 680.38 L 478.67 685.44 L 480.14 679.09 L 481.61 680.22 L 483.08 670.97 L 484.56 681.65 L 486.03 675.47 L 487.50 677.73 L 488.97 671.39 L 490.44 687.22 L 491.92 681.90 L 493.39 694.65 L 494.86 656.21 L 496.33 691.40 L 497.81 679.82 L 499.28 679.61 L 500.75 680.17 L 502.22 657.15 L 503.69 681.73 L 505.17 675.29 L 506.64 680.78 L 508.11 694.93 L 509.58 686.06 L 511.06 693.60 L 512.53 650.49 L 514.00 685.72 L 515.47 686.39 L 516.94 694.36 L 518.42 694.44 L 519.89 694.44 L 521.36 674.57 L 522.83 667.80 L 524.31 690.26 L 525.78 686.48 L 527.25 683.52 L 528.72 694.08 L 530.19 698.81 L 531.67 695.03 L 533.14 697.18 L 534.61 697.78 L 536.08 698.49 L 537.56 698.87 L 539.03 698.89 L 540.50 699.00 L 541.97 699.03 L 543.44 699.01 L 544.92 699.12 L 546.39 698.90 L 547.86 699.06 L 549.33 698.97 L 550.81 698.85 L 552.28 699.02 L 553.75 699.09 L 555.22 699.12 L 556.69 699.03 L 558.17 699.14 L 559.64 698.98 L 561.11 699.03 L 562.58 699.09 L 564.06 698.98 L 565.53 699.09 L 567.00 698.98 L 568.47 699.13 L 569.94 699.02 L 571.42 699.11 L 572.89 699.14 L 574.36 698.96 L 575.83 699.08 L 577.31 699.13 L 578.78 699.18 L 580.25 699.13 L 581.72 698.90 L 583.19 699.08 L 584.67 699.08 L 586.14 699.04 L 587.61 699.05 L 589.08 699.07 L 590.56 699.08 L 592.03 699.14 L 593.50 699.12 L 594.97 699.04 L 596.44 699.11 L 597.92 699.14 L 599.39 699.07 L 600.86 699.14 L 602.33 698.99 L 603.81 699.05 L 605.28 699.04 L 606.75 698.96 L 608.22 699.16 L 609.69 698.96 L 611.17 699.04 L 612.64 698.97 L 614.11 699.15 L 615.58 699.09 L 617.06 699.04 L 618.53 699.17 L 620.00 698.86 L 621.47 698.48 L 622.94 696.43 L 624.42 695.95 L 625.89 696.22 L 627.36 698.21 L 628.83 687.34 L 630.31 672.28 L 631.78 696.93 L 633.25 696.28 L 634.72 697.62 L 636.19 698.38 L 637.67 691.88 L 639.14 680.73 L 640.61 695.71 L 642.08 696.26 L 643.56 697.41 L 645.03 697.41 L 646.50 697.90 L 647.97 698.31 L 649.44 698.60 L 650.92 698.83 L 652.39 698.78 L 653.86 698.98 L 655.33 698.75 L 656.81 698.98 L 658.28 699.01 L 659.75 699.14 L 661.22 699.03 L 662.69 699.02 L 664.17 699.02 L 665.64 699.12 L 667.11 699.10 L 668.58 699.06 L 670.06 699.04 L 671.53 699.09 L 673.00 699.09 L 674.47 699.09 L 675.94 698.99 L 677.42 699.04 L 678.89 691.34 L 680.36 684.88 L 681.83 691.63 L 683.31 694.06 L 684.78 695.71 L 686.25 699.02 L 687.72 698.60 L 689.19 699.17 L 690.67 698.91 L 692.14 699.07 L 693.61 698.96 L 695.08 699.07 L 696.56 699.08 L 698.03 699.07 L 699.50 699.02 L 700.97 698.97 L 702.44 699.10 L 703.92 699.15 L 705.39 699.07 L 706.86 699.12 L 708.33 699.10 L 709.81 699.00 L 711.28 698.86 L 712.75 696.41 L 714.22 692.71 L 715.69 690.16 L 717.17 697.39 L 718.64 698.97 L 720.11 698.27 L 721.58 698.47 L 723.06 698.97 L 724.53 698.64 L 726.00 698.88 L 727.47 698.94 L 728.94 698.80 L 730.42 699.03 L 731.89 699.07 L 733.36 699.18 L 734.83 699.15 L 736.31 699.11 L 737.78 699.15 L 739.25 698.99 L 740.72 699.10 L 742.19 699.07 L 743.67 699.14 L 745.14 699.17 L 746.61 699.13 L 748.08 699.02 L 749.56 696.97 L 751.03 692.31 L 752.50 684.74 L 753.97 691.12 L 755.44 696.79 L 756.92 697.09 L 758.39 697.95 L 759.86 698.26 L 761.33 698.55" stroke="#FB8C00" />
<text x="90" y="711.25" font-size="14" font-weight="700">Giroscópio (magnitude) (u.a.)</text>
<rect class="event" x="443.33" y="717.25" width="53.00" height="192.75" />
<line class="eventline" x1="443.33" y1="717.25" x2="443.33" y2="910.00" />
<line class="eventline" x1="496.33" y1="717.25" x2="496.33" y2="910.00" />
<line class="grid" x1="90" y1="910.00" x2="1150" y2="910.00" />
<text class="small" x="80" y="914.00" text-anchor="end">0.00</text>
<line class="grid" x1="90" y1="871.45" x2="1150" y2="871.45" />
<text class="small" x="80" y="875.45" text-anchor="end">0.05</text>
<line class="grid" x1="90" y1="832.90" x2="1150" y2="832.90" />
<text class="small" x="80" y="836.90" text-anchor="end">0.10</text>
<line class="grid" x1="90" y1="794.35" x2="1150" y2="794.35" />
<text class="small" x="80" y="798.35" text-anchor="end">0.15</text>
<line class="grid" x1="90" y1="755.80" x2="1150" y2="755.80" />
<text class="small" x="80" y="759.80" text-anchor="end">0.20</text>
<line class="grid" x1="90" y1="717.25" x2="1150" y2="717.25" />
<text class="small" x="80" y="721.25" text-anchor="end">0.25</text>
<line class="grid" x1="90.00" y1="717.25" x2="90.00" y2="910.00" />
<line class="grid" x1="266.67" y1="717.25" x2="266.67" y2="910.00" />
<line class="grid" x1="443.33" y1="717.25" x2="443.33" y2="910.00" />
<line class="grid" x1="620.00" y1="717.25" x2="620.00" y2="910.00" />
<line class="grid" x1="796.67" y1="717.25" x2="796.67" y2="910.00" />
<line class="grid" x1="973.33" y1="717.25" x2="973.33" y2="910.00" />
<line class="grid" x1="1150.00" y1="717.25" x2="1150.00" y2="910.00" />
<line class="axis" x1="90" y1="717.25" x2="90" y2="910.00" />
<line class="axis" x1="90" y1="910.00" x2="1150" y2="910.00" />
<path class="series" d="M 178.33 892.46 L 179.81 877.06 L 181.28 881.29 L 182.75 881.84 L 184.22 895.40 L 185.69 902.91 L 187.17 897.72 L 188.64 891.53 L 190.11 893.49 L 191.58 887.13 L 193.06 889.22 L 194.53 888.48 L 196.00 890.37 L 197.47 887.20 L 198.94 892.22 L 200.42 896.22 L 201.89 897.95 L 203.36 898.90 L 204.83 900.02 L 206.31 903.75 L 207.78 905.75 L 209.25 906.30 L 210.72 906.06 L 212.19 905.32 L 213.67 901.94 L 215.14 901.14 L 216.61 901.24 L 218.08 900.11 L 219.56 902.32 L 221.03 900.68 L 222.50 897.69 L 223.97 898.36 L 225.44 900.46 L 226.92 901.68 L 228.39 902.79 L 229.86 905.12 L 231.33 904.02 L 232.81 902.99 L 234.28 900.73 L 235.75 906.18 L 237.22 903.81 L 238.69 900.29 L 240.17 903.28 L 241.64 901.25 L 243.11 904.96 L 244.58 904.37 L 246.06 904.70 L 247.53 907.32 L 249.00 908.34 L 250.47 909.05 L 251.94 909.29 L 253.42 909.54 L 254.89 909.50 L 256.36 909.51 L 257.83 909.46 L 259.31 909.79 L 260.78 909.43 L 262.25 909.61 L 263.72 909.57 L 265.19 909.57 L 266.67 909.54 L 268.14 909.44 L 269.61 909.50 L 271.08 909.46 L 272.56 909.44 L 274.03 909.43 L 275.50 909.62 L 276.97 909.84 L 278.44 909.79 L 279.92 909.88 L 281.39 909.86 L 282.86 909.79 L 284.33 909.81 L 285.81 909.89 L 287.28 909.89 L 288.75 909.81 L 290.22 909.85 L 291.69 909.88 L 293.17 909.85 L 294.64 909.87 L 296.11 909.91 L 297.58 909.89 L 299.06 909.86 L 300.53 909.86 L 302.00 909.91 L 303.47 909.91 L 304.94 909.84 L 306.42 909.85 L 307.89 909.92 L 309.36 909.87 L 310.83 909.82 L 312.31 909.89 L 313.78 909.91 L 315.25 909.88 L 316.72 909.86 L 318.19 909.80 L 319.67 909.92 L 321.14 909.79 L 322.61 909.91 L 324.08 909.77 L 325.56 909.93 L 327.03 909.83 L 328.50 909.90 L 329.97 909.78 L 331.44 909.78 L 332.92 909.85 L 334.39 909.90 L 335.86 909.77 L 337.33 909.93 L 338.81 909.87 L 340.28 909.81 L 341.75 909.72 L 343.22 909.87 L 344.69 909.80 L 346.17 909.86 L 347.64 909.72 L 349.11 909.94 L 350.58 909.80 L 352.06 909.84 L 353.53 909.86 L 355.00 909.86 L 356.47 909.89 L 357.94 909.77 L 359.42 909.77 L 360.89 909.94 L 362.36 909.81 L 363.83 909.87 L 365.31 909.06 L 366.78 909.80 L 368.25 909.67 L 369.72 909.83 L 371.19 909.83 L 372.67 909.80 L 374.14 909.95 L 375.61 909.94 L 377.08 909.77 L 378.56 909.78 L 380.03 908.88 L 381.50 899.09 L 382.97 871.92 L 384.44 842.90 L 385.92 794.60 L 387.39 784.06 L 388.86 790.88 L 390.33 833.19 L 391.81 880.32 L 393.28 880.32 L 394.75 886.48 L 396.22 891.07 L 397.69 882.71 L 399.17 855.49 L 400.64 824.30 L 402.11 791.22 L 403.58 780.73 L 405.06 796.10 L 406.53 797.06 L 408.00 801.64 L 409.47 818.00 L 410.94 820.71 L 412.42 814.42 L 413.89 832.75 L 415.36 867.25 L 416.83 843.48 L 418.31 861.49 L 419.78 872.83 L 421.25 865.14 L 422.72 867.18 L 424.19 867.80 L 425.67 886.54 L 427.14 904.24 L 428.61 908.45 L 430.08 907.31 L 431.56 904.18 L 433.03 906.03 L 434.50 898.56 L 435.97 906.76 L 437.44 907.30 L 438.92 884.47 L 440.39 893.86 L 441.86 888.49 L 443.33 907.68 L 444.81 908.89 L 446.28 906.32 L 447.75 908.78 L 449.22 909.66 L 450.69 909.63 L 452.17 909.66 L 453.64 909.83 L 455.11 909.70 L 456.58 909.61 L 458.06 909.79 L 459.53 909.74 L 461.00 908.06 L 462.47 906.72 L 463.94 908.24 L 465.42 909.35 L 466.89 909.66 L 468.36 908.36 L 469.83 909.81 L 471.31 909.80 L 472.78 909.88 L 474.25 903.18 L 475.72 900.31 L 477.19 896.71 L 478.67 897.65 L 480.14 892.72 L 481.61 873.15 L 483.08 874.29 L 484.56 881.13 L 486.03 895.52 L 487.50 903.86 L 488.97 877.74 L 490.44 853.67 L 491.92 816.32 L 493.39 791.72 L 494.86 823.36 L 496.33 840.40 L 497.81 845.40 L 499.28 846.08 L 500.75 832.05 L 502.22 859.43 L 503.69 871.28 L 505.17 854.35 L 506.64 865.90 L 508.11 881.12 L 509.58 879.56 L 511.06 859.87 L 512.53 885.65 L 514.00 895.83 L 515.47 886.14 L 516.94 895.83 L 518.42 905.16 L 519.89 905.16 L 521.36 903.80 L 522.83 906.69 L 524.31 903.23 L 525.78 903.03 L 527.25 908.24 L 528.72 908.82 L 530.19 909.36 L 531.67 909.60 L 533.14 909.03 L 534.61 909.47 L 536.08 909.53 L 537.56 909.48 L 539.03 909.67 L 540.50 909.56 L 541.97 909.62 L 543.44 909.62 L 544.92 909.47 L 546.39 909.55 L 547.86 909.58 L 549.33 909.68 L 550.81 909.54 L 552.28 909.62 L 553.75 909.54 L 555.22 909.51 L 556.69 909.31 L 558.17 909.45 L 559.64 909.49 L 561.11 909.41 L 562.58 909.39 L 564.06 909.40 L 565.53 909.79 L 567.00 909.91 L 568.47 909.85 L 569.94 909.76 L 571.42 909.59 L 572.89 909.50 L 574.36 909.45 L 575.83 909.57 L 577.31 909.58 L 578.78 909.66 L 580.25 909.64 L 581.72 909.64 L 583.19 909.66 L 584.67 909.65 L 586.14 909.60 L 587.61 909.65 L 589.08 909.58 L 590.56 909.90 L 592.03 909.85 L 593.50 909.78 L 594.97 909.78 L 596.44 909.83 L 597.92 909.84 L 599.39 909.76 L 600.86 909.86 L 602.33 909.89 L 603.81 909.72 L 605.28 909.67 L 606.75 909.58 L 608.22 909.60 L 609.69 909.65 L 611.17 909.78 L 612.64 909.75 L 614.11 909.63 L 615.58 909.69 L 617.06 909.62 L 618.53 909.65 L 620.00 909.66 L 621.47 909.13 L 622.94 908.11 L 624.42 906.30 L 625.89 907.53 L 627.36 909.28 L 628.83 903.50 L 630.31 899.12 L 631.78 907.02 L 633.25 909.39 L 634.72 909.69 L 636.19 908.45 L 637.67 906.32 L 639.14 909.45 L 640.61 908.89 L 642.08 909.58 L 643.56 909.71 L 645.03 909.71 L 646.50 909.64 L 647.97 909.73 L 649.44 909.63 L 650.92 909.76 L 652.39 909.61 L 653.86 909.60 L 655.33 909.51 L 656.81 909.58 L 658.28 909.63 L 659.75 909.93 L 661.22 909.86 L 662.69 909.89 L 664.17 909.80 L 665.64 909.93 L 667.11 909.83 L 668.58 909.91 L 670.06 909.85 L 671.53 909.80 L 673.00 909.84 L 674.47 909.88 L 675.94 909.90 L 677.42 909.85 L 678.89 907.02 L 680.36 906.34 L 681.83 908.27 L 683.31 909.73 L 684.78 909.76 L 686.25 909.88 L 687.72 909.89 L 689.19 909.88 L 690.67 909.89 L 692.14 909.85 L 693.61 909.92 L 695.08 909.93 L 696.56 909.94 L 698.03 909.75 L 699.50 909.65 L 700.97 909.69 L 702.44 909.61 L 703.92 909.57 L 705.39 909.75 L 706.86 909.67 L 708.33 909.63 L 709.81 909.74 L 711.28 909.77 L 712.75 907.67 L 714.22 908.67 L 715.69 908.13 L 717.17 909.52 L 718.64 909.51 L 720.11 909.57 L 721.58 909.67 L 723.06 909.57 L 724.53 909.60 L 726.00 909.60 L 727.47 909.75 L 728.94 909.95 L 730.42 909.83 L 731.89 909.82 L 733.36 909.79 L 734.83 909.74 L 736.31 909.84 L 737.78 909.75 L 739.25 909.91 L 740.72 909.90 L 742.19 909.81 L 743.67 909.84 L 745.14 909.88 L 746.61 909.82 L 748.08 909.64 L 749.56 909.57 L 751.03 906.52 L 752.50 906.19 L 753.97 909.30 L 755.44 909.70 L 756.92 909.84 L 758.39 909.82 L 759.86 909.78 L 761.33 909.64" stroke="#E53935" />
<text x="620.00" y="952" font-size="15" text-anchor="middle">minutos (relativo ao início do evento)</text>
<text class="small" x="90.00" y="936" text-anchor="middle">-4.00</text>
<text class="small" x="266.67" y="936" text-anchor="middle">-2.00</text>
<text class="small" x="443.33" y="936" text-anchor="middle">0.00</text>
<text class="small" x="620.00" y="936" text-anchor="middle">2.00</text>
<text class="small" x="796.67" y="936" text-anchor="middle">4.00</text>
<text class="small" x="973.33" y="936" text-anchor="middle">6.00</text>
<text class="small" x="1150.00" y="936" text-anchor="middle">8.00</text>
</svg>