<?xml version="1.0" encoding="UTF-8"?>
<svg xmlns="http://www.w3.org/2000/svg" width="1180" height="980" viewBox="0 0 1180 980">
<style>
text { font-family: -apple-system, BlinkMacSystemFont, 'Segoe UI', Roboto, Helvetica, Arial, sans-serif; fill: #111; }
.small { font-size: 12px; fill: #222; }
.title { font-size: 18px; font-weight: 700; }
.axis { stroke: #111; stroke-width: 1.4; }
.grid { stroke: #E6E6E6; stroke-width: 1; }
.event { fill: #FFEB3B; fill-opacity: 0.18; }
.eventline { stroke: #F9A825; stroke-width: 1.2; stroke-dasharray: 4 3; }
.series { fill: none; stroke-width: 1.8; }
</style>
<text class="title" x="90" y="34">ciclo 4 — carregamento — 2025-12-12T14:57:29-03:00 → 2025-12-12T15:01:02-03:00 (span 213s, dur 214s)</text>
<text class="small" x="90" y="54">GPS: -11.699181,-47.157536  hotspot: -11.699,-47.158</text>
<text class="small" x="90" y="70">Janela: -3.00 → 6.55 min (relativo ao início do evento)</text>
<text x="90" y="79.00" font-size="14" font-weight="700">Velocidade (km/h)</text>
<rect class="event" x="443.33" y="85.00" width="313.58" height="192.75" />
<line class="eventline" x1="443.33" y1="85.00" x2="443.33" y2="277.75" />
<line class="eventline" x1="756.92" y1="85.00" x2="756.92" y2="277.75" />
<line class="grid" x1="90" y1="277.75" x2="1150" y2="277.75" />
<text class="small" x="80" y="281.75" text-anchor="end">0.00</text>
<line class="grid" x1="90" y1="239.20" x2="1150" y2="239.20" />
<text class="small" x="80" y="243.20" text-anchor="end">10.0</text>
<line class="grid" x1="90" y1="200.65" x2="1150" y2="200.65" />
<text class="small" x="80" y="204.65" text-anchor="end">20.0</text>
<line class="grid" x1="90" y1="162.10" x2="1150" y2="162.10" />
<text class="small" x="80" y="166.10" text-anchor="end">30.0</text>
<line class="grid" x1="90" y1="123.55" x2="1150" y2="123.55" />
<text class="small" x="80" y="127.55" text-anchor="end">40.0</text>
<line class="grid" x1="90" y1="85.00" x2="1150" y2="85.00" />
<text class="small" x="80" y="89.00" text-anchor="end">50.0</text>
<line class="grid" x1="90.00" y1="85.00" x2="90.00" y2="277.75" />
<line class="grid" x1="266.67" y1="85.00" x2="266.67" y2="277.75" />
<line class="grid" x1="443.33" y1="85.00" x2="443.33" y2="277.75" />
<line class="grid" x1="620.00" y1="85.00" x2="620.00" y2="277.75" />
<line class="grid" x1="796.67" y1="85.00" x2="796.67" y2="277.75" />
<line class="grid" x1="973.33" y1="85.00" x2="973.33" y2="277.75" />
<line class="grid" x1="1150.00" y1="85.00" x2="1150.00" y2="277.75" />
<line class="axis" x1="90" y1="85.00" x2="90" y2="277.75" />
<line class="axis" x1="90" y1="277.75" x2="1150" y2="277.75" />
<path class="series" d="M 178.33 162.15 L 179.81 163.40 L 181.28 163.81 L 182.75 170.47 L 184.22 169.64 L 185.69 166.17 L 187.17 169.09 L 188.64 170.89 L 190.11 165.89 L 191.58 169.36 L 193.06 168.67 L 194.53 166.31 L 196.00 161.87 L 197.47 167.70 L 198.94 167.14 L 200.42 169.92 L 201.89 170.47 L 203.36 175.19 L 204.83 178.38 L 206.31 178.94 L 207.78 179.22 L 209.25 190.73 L 210.72 188.24 L 212.19 183.24 L 213.67 183.66 L 215.14 184.35 L 216.61 185.18 L 218.08 187.54 L 219.56 195.73 L 221.03 199.76 L 222.50 200.59 L 223.97 202.39 L 225.44 200.87 L 226.92 200.31 L 228.39 196.42 L 229.86 191.71 L 231.33 187.27 L 232.81 182.27 L 234.28 180.74 L 235.75 180.88 L 237.22 177.55 L 238.69 174.08 L 240.17 175.33 L 241.64 176.58 L 243.11 174.36 L 244.58 170.20 L 246.06 172.00 L 247.53 173.25 L 249.00 177.97 L 250.47 178.94 L 251.94 181.58 L 253.42 182.96 L 254.89 188.65 L 256.36 188.65 L 257.83 190.60 L 259.31 194.62 L 260.78 202.25 L 262.25 201.28 L 263.72 190.73 L 265.19 189.90 L 266.67 191.57 L 268.14 191.85 L 269.61 193.09 L 271.08 188.24 L 272.56 184.21 L 274.03 175.61 L 275.50 171.72 L 276.97 174.64 L 278.44 175.33 L 279.92 182.41 L 281.39 188.79 L 282.86 189.76 L 284.33 186.99 L 285.81 182.82 L 287.28 180.33 L 288.75 178.52 L 290.22 178.66 L 291.69 178.66 L 293.17 181.02 L 294.64 178.52 L 296.11 174.08 L 297.58 170.33 L 299.06 170.20 L 300.53 177.41 L 302.00 178.66 L 303.47 179.91 L 304.94 186.43 L 306.42 186.57 L 307.89 185.04 L 309.36 184.07 L 310.83 187.40 L 312.31 189.35 L 313.78 190.73 L 315.25 190.60 L 316.72 200.31 L 318.19 204.20 L 319.67 211.55 L 321.14 234.17 L 322.61 236.81 L 324.08 235.14 L 325.56 231.26 L 327.03 232.65 L 328.50 222.65 L 329.97 239.86 L 331.44 239.72 L 332.92 241.39 L 334.39 242.36 L 335.86 243.75 L 337.33 238.48 L 338.81 243.47 L 340.28 238.48 L 341.75 242.92 L 343.22 242.08 L 344.69 241.67 L 346.17 241.11 L 347.64 248.33 L 349.11 240.00 L 350.58 236.95 L 352.06 234.73 L 353.53 234.59 L 355.00 231.95 L 356.47 239.45 L 357.94 242.78 L 359.42 257.77 L 360.89 254.71 L 362.36 260.68 L 363.83 274.84 L 365.31 277.75 L 366.78 277.75 L 368.25 277.75 L 369.72 277.75 L 371.19 264.01 L 372.67 258.88 L 374.14 260.40 L 375.61 259.43 L 377.08 258.74 L 378.56 256.66 L 380.03 258.18 L 381.50 259.29 L 382.97 260.68 L 384.44 260.96 L 385.92 259.71 L 387.39 260.26 L 388.86 263.18 L 390.33 266.93 L 391.81 269.15 L 393.28 271.50 L 394.75 270.67 L 396.22 271.50 L 397.69 271.09 L 399.17 271.50 L 400.64 271.64 L 402.11 270.67 L 403.58 271.64 L 405.06 277.75 L 406.53 277.75 L 408.00 277.75 L 409.47 277.75 L 410.94 277.75 L 412.42 277.75 L 413.89 277.75 L 415.36 277.75 L 416.83 277.75 L 418.31 277.75 L 419.78 277.75 L 421.25 277.75 L 422.72 277.75 L 424.19 277.75 L 425.67 277.75 L 427.14 269.98 L 428.61 272.06 L 430.08 272.89 L 431.56 270.81 L 433.03 270.81 L 434.50 268.73 L 435.97 267.34 L 437.44 268.87 L 438.92 269.15 L 440.39 269.70 L 441.86 271.23 L 443.33 277.75 L 444.81 277.75 L 446.28 277.75 L 447.75 277.75 L 449.22 277.75 L 450.69 277.75 L 452.17 277.75 L 453.64 277.75 L 455.11 277.75 L 456.58 277.75 L 458.06 277.75 L 459.53 277.75 L 461.00 277.75 L 462.47 277.75 L 463.94 277.75 L 465.42 277.75 L 466.89 277.75 L 468.36 277.75 L 469.83 277.75 L 471.31 277.75 L 472.78 277.75 L 474.25 277.75 L 475.72 277.75 L 477.19 277.75 L 478.67 277.75 L 480.14 277.75 L 481.61 277.75 L 483.08 277.75 L 484.56 277.75 L 486.03 277.75 L 487.50 277.75 L 488.97 277.75 L 490.44 277.75 L 491.92 277.75 L 493.39 277.75 L 494.86 277.75 L 496.33 277.75 L 497.81 277.75 L 499.28 277.75 L 500.75 277.75 L 502.22 277.75 L 503.69 277.75 L 505.17 277.75 L 506.64 277.75 L 508.11 277.75 L 509.58 277.75 L 511.06 277.75 L 512.53 277.75 L 514.00 277.75 L 515.47 277.75 L 516.94 277.75 L 518.42 277.75 L 519.89 277.75 L 521.36 277.75 L 522.83 277.75 L 524.31 277.75 L 525.78 277.75 L 527.25 277.75 L 528.72 277.75 L 530.19 277.75 L 531.67 277.75 L 533.14 277.75 L 534.61 277.75 L 536.08 277.75 L 537.56 277.75 L 539.03 277.75 L 540.50 277.75 L 541.97 277.75 L 543.44 277.75 L 544.92 277.75 L 546.39 277.75 L 547.86 277.75 L 549.33 277.75 L 550.81 277.75 L 552.28 277.75 L 553.75 277.75 L 555.22 277.75 L 556.69 277.75 L 558.17 277.75 L 559.64 277.75 L 561.11 277.75 L 562.58 277.75 L 564.06 277.75 L 565.53 277.75 L 567.00 277.75 L 568.47 277.75 L 569.94 277.75 L 571.42 277.75 L 572.89 277.75 L 574.36 277.75 L 575.83 277.75 L 577.31 277.75 L 578.78 277.75 L 580.25 277.75 L 581.72 277.75 L 583.19 277.75 L 584.67 277.75 L 586.14 277.75 L 587.61 277.75 L 589.08 277.75 L 590.56 277.75 L 592.03 277.75 L 593.50 277.75 L 594.97 277.75 L 596.44 277.75 L 597.92 277.75 L 599.39 277.75 L 600.86 277.75 L 602.33 277.75 L 603.81 277.75 L 605.28 277.75 L 606.75 277.75 L 608.22 277.75 L 609.69 277.75 L 611.17 277.75 L 612.64 277.75 L 614.11 277.75 L 615.58 277.75 L 617.06 277.75 L 618.53 277.75 L 620.00 277.75 L 621.47 277.75 L 622.94 277.75 L 624.42 277.75 L 625.89 277.75 L 627.36 277.75 L 628.83 277.75 L 630.31 277.75 L 631.78 277.75 L 633.25 277.75 L 634.72 277.75 L 636.19 277.75 L 637.67 277.75 L 639.14 277.75 L 640.61 277.75 L 642.08 277.75 L 643.56 277.75 L 645.03 277.75 L 646.50 277.75 L 647.97 277.75 L 649.44 277.75 L 650.92 277.75 L 652.39 277.75 L 653.86 277.75 L 655.33 277.75 L 656.81 277.75 L 658.28 277.75 L 659.75 277.75 L 661.22 277.75 L 662.69 277.75 L 664.17 277.75 L 665.64 277.75 L 667.11 277.75 L 668.58 277.75 L 670.06 277.75 L 671.53 277.75 L 673.00 277.75 L 674.47 277.75 L 675.94 277.75 L 677.42 277.75 L 678.89 277.75 L 680.36 277.75 L 681.83 277.75 L 683.31 277.75 L 684.78 277.75 L 686.25 277.75 L 687.72 277.75 L 689.19 277.75 L 690.67 277.75 L 692.14 277.75 L 693.61 277.75 L 695.08 277.75 L 696.56 277.75 L 698.03 277.75 L 699.50 277.75 L 700.97 277.75 L 702.44 277.75 L 703.92 277.75 L 705.39 277.75 L 706.86 277.75 L 708.33 277.75 L 709.81 277.75 L 711.28 277.75 L 712.75 277.75 L 714.22 277.75 L 715.69 277.75 L 717.17 277.75 L 718.64 277.75 L 720.11 277.75 L 721.58 277.75 L 723.06 277.75 L 724.53 277.75 L 726.00 277.75 L 727.47 277.75 L 728.94 277.75 L 730.42 277.75 L 731.89 277.75 L 733.36 277.75 L 734.83 277.75 L 736.31 277.75 L 737.78 277.75 L 739.25 277.75 L 740.72 277.75 L 742.19 277.75 L 743.67 277.75 L 745.14 277.75 L 746.61 277.75 L 748.08 277.75 L 749.56 277.75 L 751.03 277.75 L 752.50 277.75 L 753.97 277.75 L 755.44 277.75 L 756.92 277.75 L 758.39 272.20 L 759.86 270.95 L 761.33 270.12 L 762.81 266.79 L 764.28 265.12 L 765.75 265.81 L 767.22 265.68 L 768.69 260.26 L 770.17 255.27 L 771.64 259.85 L 773.11 258.32 L 774.58 254.16 L 776.06 255.82 L 777.53 251.52 L 779.00 250.41 L 780.47 248.05 L 781.94 247.08 L 783.42 246.66 L 784.89 247.22 L 786.36 245.97 L 787.83 245.28 L 789.31 243.19 L 790.78 240.56 L 792.25 240.56 L 793.72 240.56 L 795.19 236.53 L 796.67 234.87 L 798.14 232.23 L 799.61 227.79 L 801.08 233.34 L 802.56 229.32 L 804.03 230.84 L 805.50 233.06 L 806.97 233.06 L 808.44 236.39 L 809.92 235.98 L 811.39 225.99 L 812.86 228.07 L 814.33 227.79 L 815.81 231.54 L 817.28 234.17 L 818.75 236.67 L 820.22 235.56 L 821.69 220.85 L 823.17 221.54 L 824.64 221.68 L 826.11 217.24 L 827.58 217.24 L 829.06 211.27 L 830.53 212.66 L 832.00 209.33 L 833.47 207.80 L 834.94 207.53 L 836.42 206.97 L 837.89 210.16 L 839.36 211.83 L 840.83 213.63 L 842.31 216.96 L 843.78 215.16 L 845.25 209.89 L 846.72 210.58 L 848.19 210.16 L 849.67 208.64 L 851.14 205.45 L 852.61 209.05 L 854.08 213.91 L 855.56 214.61 L 857.03 215.72 L 858.50 215.72 L 859.97 221.68 L 861.44 220.71 L 862.92 222.79 L 864.39 225.29 L 865.86 227.37 L 867.33 226.82 L 868.81 225.57 L 870.28 226.12 L 871.75 228.76 L 873.22 236.25 L 874.69 240.56 L 876.17 241.11 L 877.64 237.09 L 879.11 234.03 L 880.58 229.59 L 882.06 226.12 L 883.53 224.04 L 885.00 227.51 L 886.47 233.20 L 887.94 239.45 L 889.42 249.02 L 890.89 253.05 L 892.36 256.66 L 893.83 259.01 L 895.31 257.35 L 896.78 256.79 L 898.25 253.88 L 899.72 253.05 L 901.19 251.52 L 902.67 249.44 L 904.14 244.17 L 905.61 243.19 L 907.08 240.83 L 908.56 233.76 L 910.03 227.65 L 911.50 230.98 L 912.97 230.15 L 914.44 229.73 L 915.92 228.21 L 917.39 224.46 L 918.86 216.27 L 920.33 213.91 L 921.81 214.88 L 923.28 220.57 L 924.75 226.12 L 926.22 227.37 L 927.69 233.20 L 929.17 231.40 L 930.64 231.40 L 932.11 229.04 L 933.58 229.45 L 935.06 228.48 L 936.53 231.95 L 938.00 231.40 L 939.47 234.17 L 940.94 230.70 L 942.42 229.87 L 943.89 230.56 L 945.36 229.59 L 946.83 229.73 L 948.31 234.03 L 949.78 234.45 L 951.25 234.17 L 952.72 238.89 L 954.19 238.75 L 955.67 246.11 L 957.14 244.17 L 958.61 245.97 L 960.08 253.74 L 961.56 253.32 L 963.03 254.99 L 964.50 250.13 L 965.97 253.74 L 967.44 257.90 L 968.92 255.55 L 970.39 260.68 L 971.86 255.82 L 973.33 253.60 L 974.81 256.93 L 976.28 253.19 L 977.75 253.46 L 979.22 252.21 L 980.69 253.19 L 982.17 257.49 L 983.64 256.24 L 985.11 254.02 L 986.58 251.52 L 988.06 249.72 L 989.53 247.08 L 991.00 246.94 L 992.47 245.97 L 993.94 245.55 L 995.42 245.97 L 996.89 246.80 L 998.36 247.36 L 999.83 246.39 L 1001.31 246.39 L 1002.78 245.41 L 1004.25 245.41 L 1005.72 246.11 L 1007.19 242.50 L 1008.67 242.64 L 1010.14 243.19 L 1011.61 241.94 L 1013.08 237.50 L 1014.56 230.70 L 1016.03 237.37 L 1017.50 230.70 L 1018.97 230.84 L 1020.44 228.90 L 1021.92 223.35" stroke="#1976D2" />
<text x="90" y="289.75" font-size="14" font-weight="700">Inclinação (graus)</text>
<rect class="event" x="443.33" y="295.75" width="313.58" height="192.75" />
<line class="eventline" x1="443.33" y1="295.75" x2="443.33" y2="488.50" />
<line class="eventline" x1="756.92" y1="295.75" x2="756.92" y2="488.50" />
<line class="grid" x1="90" y1="488.50" x2="1150" y2="488.50" />
<text class="small" x="80" y="492.50" text-anchor="end">-10.0</text>
<line class="grid" x1="90" y1="449.95" x2="1150" y2="449.95" />
<text class="small" x="80" y="453.95" text-anchor="end">0.00</text>
<line class="grid" x1="90" y1="411.40" x2="1150" y2="411.40" />
<text class="small" x="80" y="415.40" text-anchor="end">10.0</text>
<line class="grid" x1="90" y1="372.85" x2="1150" y2="372.85" />
<text class="small" x="80" y="376.85" text-anchor="end">20.0</text>
<line class="grid" x1="90" y1="334.30" x2="1150" y2="334.30" />
<text class="small" x="80" y="338.30" text-anchor="end">30.0</text>
<line class="grid" x1="90" y1="295.75" x2="1150" y2="295.75" />
<text class="small" x="80" y="299.75" text-anchor="end">40.0</text>
<line class="grid" x1="90.00" y1="295.75" x2="90.00" y2="488.50" />
<line class="grid" x1="266.67" y1="295.75" x2="266.67" y2="488.50" />
<line class="grid" x1="443.33" y1="295.75" x2="443.33" y2="488.50" />
<line class="grid" x1="620.00" y1="295.75" x2="620.00" y2="488.50" />
<line class="grid" x1="796.67" y1="295.75" x2="796.67" y2="488.50" />
<line class="grid" x1="973.33" y1="295.75" x2="973.33" y2="488.50" />
<line class="grid" x1="1150.00" y1="295.75" x2="1150.00" y2="488.50" />
<line class="axis" x1="90" y1="295.75" x2="90" y2="488.50" />
<line class="axis" x1="90" y1="488.50" x2="1150" y2="488.50" />
<path class="series" d="M 178.33 403.88 L 179.81 403.28 L 181.28 403.06 L 182.75 401.04 L 184.22 400.93 L 185.69 405.09 L 187.17 406.28 L 188.64 410.68 L 190.11 410.77 L 191.58 409.51 L 193.06 411.33 L 194.53 413.32 L 196.00 406.12 L 197.47 411.95 L 198.94 409.16 L 200.42 405.72 L 201.89 403.82 L 203.36 399.56 L 204.83 409.94 L 206.31 403.68 L 207.78 405.15 L 209.25 405.38 L 210.72 405.48 L 212.19 400.94 L 213.67 402.71 L 215.14 399.86 L 216.61 398.06 L 218.08 394.30 L 219.56 393.66 L 221.03 399.84 L 222.50 394.66 L 223.97 393.45 L 225.44 397.16 L 226.92 393.30 L 228.39 390.58 L 229.86 389.66 L 231.33 387.84 L 232.81 387.51 L 234.28 382.33 L 235.75 379.73 L 237.22 377.25 L 238.69 377.12 L 240.17 379.57 L 241.64 381.29 L 243.11 388.06 L 244.58 388.72 L 246.06 382.46 L 247.53 381.51 L 249.00 385.05 L 250.47 384.55 L 251.94 385.74 L 253.42 386.39 L 254.89 384.10 L 256.36 384.39 L 257.83 392.18 L 259.31 385.82 L 260.78 407.08 L 262.25 411.43 L 263.72 395.80 L 265.19 395.49 L 266.67 406.29 L 268.14 403.13 L 269.61 390.57 L 271.08 390.39 L 272.56 384.34 L 274.03 396.76 L 275.50 396.41 L 276.97 397.77 L 278.44 395.55 L 279.92 406.52 L 281.39 412.84 L 282.86 415.65 L 284.33 415.04 L 285.81 413.64 L 287.28 400.95 L 288.75 409.05 L 290.22 393.91 L 291.69 413.26 L 293.17 414.98 L 294.64 415.16 L 296.11 405.70 L 297.58 407.67 L 299.06 403.75 L 300.53 406.09 L 302.00 393.87 L 303.47 398.01 L 304.94 399.34 L 306.42 406.13 L 307.89 403.53 L 309.36 401.15 L 310.83 397.21 L 312.31 397.21 L 313.78 393.33 L 315.25 383.41 L 316.72 394.15 L 318.19 380.29 L 319.67 383.96 L 321.14 389.73 L 322.61 405.69 L 324.08 413.54 L 325.56 416.93 L 327.03 403.44 L 328.50 407.48 L 329.97 397.26 L 331.44 396.89 L 332.92 411.13 L 334.39 401.40 L 335.86 410.89 L 337.33 420.19 L 338.81 408.80 L 340.28 401.57 L 341.75 397.12 L 343.22 407.13 L 344.69 406.73 L 346.17 389.03 L 347.64 405.10 L 349.11 407.46 L 350.58 411.63 L 352.06 427.01 L 353.53 440.78 L 355.00 405.90 L 356.47 393.32 L 357.94 384.69 L 359.42 377.46 L 360.89 394.64 L 362.36 385.88 L 363.83 377.03 L 365.31 396.23 L 366.78 395.97 L 368.25 386.65 L 369.72 385.76 L 371.19 393.80 L 372.67 390.58 L 374.14 397.13 L 375.61 395.86 L 377.08 402.52 L 378.56 405.03 L 380.03 405.46 L 381.50 407.07 L 382.97 407.31 L 384.44 405.11 L 385.92 405.91 L 387.39 407.67 L 388.86 413.05 L 390.33 408.70 L 391.81 410.53 L 393.28 409.70 L 394.75 406.43 L 396.22 407.57 L 397.69 407.67 L 399.17 407.74 L 400.64 405.82 L 402.11 405.59 L 403.58 407.57 L 405.06 408.31 L 406.53 405.81 L 408.00 406.78 L 409.47 407.09 L 410.94 411.13 L 412.42 398.06 L 413.89 404.84 L 415.36 405.90 L 416.83 403.67 L 418.31 401.31 L 419.78 397.79 L 421.25 402.82 L 422.72 398.22 L 424.19 398.55 L 425.67 390.07 L 427.14 394.64 L 428.61 402.83 L 430.08 380.63 L 431.56 398.13 L 433.03 383.30 L 434.50 383.71 L 435.97 382.77 L 437.44 378.20 L 438.92 372.64 L 440.39 391.86 L 441.86 383.37 L 443.33 390.51 L 444.81 396.14 L 446.28 402.81 L 447.75 405.13 L 449.22 404.46 L 450.69 401.72 L 452.17 400.55 L 453.64 400.97 L 455.11 400.18 L 456.58 401.94 L 458.06 401.00 L 459.53 401.16 L 461.00 401.08 L 462.47 401.09 L 463.94 401.15 L 465.42 401.12 L 466.89 401.07 L 468.36 401.13 L 469.83 401.10 L 471.31 401.16 L 472.78 401.09 L 474.25 401.06 L 475.72 401.14 L 477.19 401.05 L 478.67 401.17 L 480.14 401.05 L 481.61 401.10 L 483.08 401.32 L 484.56 401.05 L 486.03 400.87 L 487.50 400.38 L 488.97 400.71 L 490.44 400.76 L 491.92 400.76 L 493.39 400.72 L 494.86 400.68 L 496.33 400.71 L 497.81 400.71 L 499.28 400.69 L 500.75 400.72 L 502.22 400.69 L 503.69 400.68 L 505.17 400.69 L 506.64 400.69 L 508.11 400.71 L 509.58 400.68 L 511.06 400.70 L 512.53 400.66 L 514.00 400.69 L 515.47 400.92 L 516.94 399.69 L 518.42 400.51 L 519.89 400.26 L 521.36 400.39 L 522.83 400.03 L 524.31 400.18 L 525.78 400.13 L 527.25 400.20 L 528.72 400.15 L 530.19 400.17 L 531.67 400.17 L 533.14 400.20 L 534.61 400.10 L 536.08 400.21 L 537.56 400.16 L 539.03 400.12 L 540.50 400.16 L 541.97 400.14 L 543.44 400.12 L 544.92 400.16 L 546.39 400.16 L 547.86 400.09 L 549.33 400.05 L 550.81 400.19 L 552.28 399.38 L 553.75 399.80 L 555.22 399.71 L 556.69 399.66 L 558.17 399.66 L 559.64 399.62 L 561.11 399.64 L 562.58 399.64 L 564.06 399.63 L 565.53 399.60 L 567.00 399.64 L 568.47 399.66 L 569.94 399.60 L 571.42 399.64 L 572.89 399.60 L 574.36 399.57 L 575.83 399.61 L 577.31 399.62 L 578.78 399.64 L 580.25 399.66 L 581.72 399.55 L 583.19 399.30 L 584.67 399.35 L 586.14 398.70 L 587.61 398.77 L 589.08 399.27 L 590.56 398.78 L 592.03 399.16 L 593.50 398.88 L 594.97 399.04 L 596.44 398.97 L 597.92 399.04 L 599.39 399.00 L 600.86 399.01 L 602.33 398.97 L 603.81 399.01 L 605.28 398.97 L 606.75 399.00 L 608.22 399.01 L 609.69 398.93 L 611.17 399.03 L 612.64 399.10 L 614.11 398.86 L 615.58 397.40 L 617.06 399.41 L 618.53 398.65 L 620.00 398.26 L 621.47 398.53 L 622.94 398.56 L 624.42 398.39 L 625.89 398.58 L 627.36 398.43 L 628.83 398.53 L 630.31 398.52 L 631.78 398.48 L 633.25 398.50 L 634.72 398.47 L 636.19 398.45 L 637.67 398.45 L 639.14 398.48 L 640.61 398.44 L 642.08 398.46 L 643.56 398.42 L 645.03 398.55 L 646.50 398.45 L 647.97 398.46 L 649.44 398.56 L 650.92 398.50 L 652.39 398.61 L 653.86 398.51 L 655.33 398.55 L 656.81 398.54 L 658.28 398.54 L 659.75 398.52 L 661.22 398.53 L 662.69 398.52 L 664.17 398.56 L 665.64 398.53 L 667.11 398.51 L 668.58 398.56 L 670.06 398.52 L 671.53 398.49 L 673.00 398.75 L 674.47 398.75 L 675.94 399.78 L 677.42 399.12 L 678.89 399.34 L 680.36 399.33 L 681.83 399.38 L 683.31 399.41 L 684.78 399.40 L 686.25 399.38 L 687.72 399.37 L 689.19 399.40 L 690.67 399.40 L 692.14 399.42 L 693.61 399.35 L 695.08 399.37 L 696.56 399.45 L 698.03 399.44 L 699.50 399.40 L 700.97 399.42 L 702.44 399.37 L 703.92 399.43 L 705.39 399.44 L 706.86 399.35 L 708.33 399.45 L 709.81 399.20 L 711.28 400.84 L 712.75 399.88 L 714.22 400.21 L 715.69 400.29 L 717.17 400.29 L 718.64 400.46 L 720.11 400.25 L 721.58 400.10 L 723.06 400.23 L 724.53 400.25 L 726.00 400.23 L 727.47 400.32 L 728.94 400.24 L 730.42 400.27 L 731.89 400.32 L 733.36 400.24 L 734.83 400.27 L 736.31 400.29 L 737.78 400.25 L 739.25 400.26 L 740.72 400.29 L 742.19 400.22 L 743.67 400.26 L 745.14 400.26 L 746.61 399.95 L 748.08 400.92 L 749.56 400.82 L 751.03 400.98 L 752.50 400.88 L 753.97 400.88 L 755.44 400.98 L 756.92 401.36 L 758.39 412.81 L 759.86 398.74 L 761.33 396.92 L 762.81 392.67 L 764.28 380.74 L 765.75 372.21 L 767.22 382.82 L 768.69 392.38 L 770.17 393.22 L 771.64 397.12 L 773.11 396.30 L 774.58 407.04 L 776.06 402.67 L 777.53 412.90 L 779.00 411.59 L 780.47 410.73 L 781.94 408.36 L 783.42 406.27 L 784.89 405.82 L 786.36 407.07 L 787.83 409.91 L 789.31 401.06 L 790.78 403.01 L 792.25 397.26 L 793.72 398.86 L 795.19 393.82 L 796.67 395.23 L 798.14 398.22 L 799.61 399.60 L 801.08 397.13 L 802.56 399.97 L 804.03 399.54 L 805.50 406.12 L 806.97 403.50 L 808.44 407.07 L 809.92 413.51 L 811.39 412.65 L 812.86 415.94 L 814.33 412.05 L 815.81 413.43 L 817.28 414.47 L 818.75 418.26 L 820.22 413.91 L 821.69 417.58 L 823.17 415.65 L 824.64 419.70 L 826.11 412.84 L 827.58 409.84 L 829.06 414.95 L 830.53 408.75 L 832.00 415.13 L 833.47 412.40 L 834.94 413.23 L 836.42 405.51 L 837.89 403.26 L 839.36 401.26 L 840.83 399.70 L 842.31 402.42 L 843.78 406.22 L 845.25 409.19 L 846.72 408.38 L 848.19 400.37 L 849.67 403.77 L 851.14 403.43 L 852.61 399.24 L 854.08 413.82 L 855.56 405.01 L 857.03 403.67 L 858.50 404.65 L 859.97 403.42 L 861.44 400.81 L 862.92 405.49 L 864.39 398.45 L 865.86 397.36 L 867.33 401.17 L 868.81 398.56 L 870.28 399.29 L 871.75 385.79 L 873.22 392.63 L 874.69 401.29 L 876.17 415.91 L 877.64 406.88 L 879.11 413.21 L 880.58 417.46 L 882.06 411.88 L 883.53 408.59 L 885.00 425.41 L 886.47 430.79 L 887.94 428.87 L 889.42 441.72 L 890.89 438.12 L 892.36 437.91 L 893.83 445.23 L 895.31 438.51 L 896.78 440.79 L 898.25 432.21 L 899.72 430.76 L 901.19 423.85 L 902.67 425.09 L 904.14 404.51 L 905.61 409.90 L 907.08 418.71 L 908.56 415.28 L 910.03 410.17 L 911.50 416.31 L 912.97 418.36 L 914.44 416.64 L 915.92 418.08 L 917.39 419.46 L 918.86 416.16 L 920.33 416.19 L 921.81 411.27 L 923.28 411.67 L 924.75 423.76 L 926.22 417.09 L 927.69 422.43 L 929.17 422.57 L 930.64 425.16 L 932.11 423.70 L 933.58 424.82 L 935.06 424.56 L 936.53 424.93 L 938.00 424.97 L 939.47 424.52 L 940.94 425.19 L 942.42 424.92 L 943.89 423.18 L 945.36 423.76 L 946.83 423.93 L 948.31 427.08 L 949.78 427.60 L 951.25 427.55 L 952.72 428.82 L 954.19 426.72 L 955.67 428.30 L 957.14 429.39 L 958.61 421.41 L 960.08 431.09 L 961.56 439.42 L 963.03 439.70 L 964.50 441.57 L 965.97 435.32 L 967.44 441.08 L 968.92 440.14 L 970.39 443.47 L 971.86 442.44 L 973.33 444.39 L 974.81 444.39 L 976.28 440.55 L 977.75 439.41 L 979.22 437.59 L 980.69 431.54 L 982.17 437.48 L 983.64 438.84 L 985.11 439.65 L 986.58 438.69 L 988.06 438.56 L 989.53 436.07 L 991.00 435.47 L 992.47 435.81 L 993.94 436.34 L 995.42 435.77 L 996.89 436.16 L 998.36 435.71 L 999.83 435.60 L 1001.31 435.20 L 1002.78 435.10 L 1004.25 432.93 L 1005.72 432.32 L 1007.19 427.41 L 1008.67 425.67 L 1010.14 427.59 L 1011.61 426.88 L 1013.08 424.48 L 1014.56 421.81 L 1016.03 422.69 L 1017.50 419.97 L 1018.97 415.76 L 1020.44 416.64 L 1021.92 418.04" stroke="#2E7D32" />
<path class="series" d="M 178.33 440.84 L 179.81 441.48 L 181.28 440.94 L 182.75 433.92 L 184.22 432.51 L 185.69 430.54 L 187.17 431.91 L 188.64 438.59 L 190.11 433.62 L 191.58 433.36 L 193.06 432.50 L 194.53 432.23 L 196.00 440.56 L 197.47 439.22 L 198.94 439.24 L 200.42 433.61 L 201.89 428.27 L 203.36 429.38 L 204.83 426.96 L 206.31 426.34 L 207.78 426.71 L 209.25 426.49 L 210.72 420.70 L 212.19 427.58 L 213.67 421.10 L 215.14 427.79 L 216.61 430.40 L 218.08 427.53 L 219.56 425.13 L 221.03 431.76 L 222.50 428.31 L 223.97 423.11 L 225.44 432.46 L 226.92 437.73 L 228.39 434.01 L 229.86 436.03 L 231.33 430.67 L 232.81 433.32 L 234.28 433.72 L 235.75 433.51 L 237.22 433.16 L 238.69 441.11 L 240.17 442.55 L 241.64 435.70 L 243.11 445.71 L 244.58 450.64 L 246.06 448.37 L 247.53 446.02 L 249.00 443.74 L 250.47 444.46 L 251.94 442.40 L 253.42 437.08 L 254.89 430.85 L 256.36 434.05 L 257.83 438.69 L 259.31 423.47 L 260.78 424.48 L 262.25 431.49 L 263.72 424.83 L 265.19 415.17 L 266.67 415.89 L 268.14 431.50 L 269.61 442.54 L 271.08 441.25 L 272.56 435.81 L 274.03 443.11 L 275.50 444.91 L 276.97 443.85 L 278.44 439.85 L 279.92 447.84 L 281.39 443.06 L 282.86 429.89 L 284.33 422.32 L 285.81 455.49 L 287.28 446.64 L 288.75 453.16 L 290.22 447.71 L 291.69 436.59 L 293.17 442.64 L 294.64 449.64 L 296.11 440.92 L 297.58 445.85 L 299.06 452.52 L 300.53 444.44 L 302.00 445.89 L 303.47 441.92 L 304.94 446.71 L 306.42 444.56 L 307.89 441.41 L 309.36 439.03 L 310.83 433.74 L 312.31 433.74 L 313.78 428.10 L 315.25 433.67 L 316.72 438.30 L 318.19 435.25 L 319.67 439.96 L 321.14 451.10 L 322.61 463.69 L 324.08 449.42 L 325.56 442.53 L 327.03 444.50 L 328.50 441.94 L 329.97 441.73 L 331.44 443.75 L 332.92 449.62 L 334.39 446.56 L 335.86 442.35 L 337.33 451.18 L 338.81 438.33 L 340.28 449.76 L 341.75 451.99 L 343.22 446.18 L 344.69 437.45 L 346.17 436.39 L 347.64 433.11 L 349.11 432.54 L 350.58 414.91 L 352.06 422.70 L 353.53 439.77 L 355.00 442.19 L 356.47 439.99 L 357.94 447.82 L 359.42 460.60 L 360.89 444.69 L 362.36 458.25 L 363.83 460.07 L 365.31 447.60 L 366.78 448.81 L 368.25 449.88 L 369.72 447.57 L 371.19 446.63 L 372.67 447.20 L 374.14 451.35 L 375.61 454.81 L 377.08 450.29 L 378.56 449.19 L 380.03 445.93 L 381.50 444.91 L 382.97 444.75 L 384.44 446.32 L 385.92 445.56 L 387.39 439.34 L 388.86 447.69 L 390.33 448.85 L 391.81 449.31 L 393.28 448.81 L 394.75 452.66 L 396.22 450.57 L 397.69 452.49 L 399.17 452.54 L 400.64 452.42 L 402.11 450.97 L 403.58 452.19 L 405.06 448.68 L 406.53 448.74 L 408.00 448.54 L 409.47 448.07 L 410.94 446.64 L 412.42 447.31 L 413.89 444.54 L 415.36 447.40 L 416.83 447.39 L 418.31 444.77 L 419.78 445.01 L 421.25 450.08 L 422.72 447.63 L 424.19 449.21 L 425.67 453.09 L 427.14 458.40 L 428.61 461.60 L 430.08 450.40 L 431.56 471.77 L 433.03 459.24 L 434.50 460.03 L 435.97 456.87 L 437.44 457.80 L 438.92 454.93 L 440.39 464.89 L 441.86 457.94 L 443.33 457.78 L 444.81 455.75 L 446.28 456.56 L 447.75 454.19 L 449.22 450.68 L 450.69 450.54 L 452.17 451.85 L 453.64 452.56 L 455.11 452.74 L 456.58 451.62 L 458.06 452.79 L 459.53 453.16 L 461.00 452.41 L 462.47 452.93 L 463.94 452.64 L 465.42 452.78 L 466.89 452.82 L 468.36 452.71 L 469.83 452.79 L 471.31 452.76 L 472.78 452.80 L 474.25 452.77 L 475.72 452.75 L 477.19 452.73 L 478.67 452.78 L 480.14 452.78 L 481.61 452.74 L 483.08 451.78 L 484.56 453.59 L 486.03 451.46 L 487.50 452.22 L 488.97 450.42 L 490.44 451.99 L 491.92 452.41 L 493.39 451.25 L 494.86 451.60 L 496.33 452.11 L 497.81 451.50 L 499.28 451.63 L 500.75 451.87 L 502.22 451.59 L 503.69 451.67 L 505.17 451.79 L 506.64 451.71 L 508.11 451.65 L 509.58 451.74 L 511.06 451.72 L 512.53 451.72 L 514.00 451.77 L 515.47 452.39 L 516.94 448.89 L 518.42 451.93 L 519.89 452.21 L 521.36 451.20 L 522.83 450.76 L 524.31 451.04 L 525.78 451.70 L 527.25 451.64 L 528.72 451.21 L 530.19 451.15 L 531.67 451.15 L 533.14 451.49 L 534.61 451.55 L 536.08 451.33 L 537.56 451.28 L 539.03 451.40 L 540.50 451.50 L 541.97 451.36 L 543.44 451.37 L 544.92 451.35 L 546.39 451.45 L 547.86 451.45 L 549.33 450.88 L 550.81 450.24 L 552.28 451.57 L 553.75 451.71 L 555.22 451.24 L 556.69 450.94 L 558.17 450.79 L 559.64 450.95 L 561.11 451.26 L 562.58 451.34 L 564.06 451.24 L 565.53 451.09 L 567.00 451.04 L 568.47 451.19 L 569.94 451.16 L 571.42 451.17 L 572.89 451.15 L 574.36 451.14 L 575.83 451.13 L 577.31 451.08 L 578.78 451.19 L 580.25 451.24 L 581.72 450.84 L 583.19 451.16 L 584.67 451.75 L 586.14 451.43 L 587.61 451.45 L 589.08 451.34 L 590.56 451.37 L 592.03 451.39 L 593.50 451.53 L 594.97 451.48 L 596.44 451.48 L 597.92 451.43 L 599.39 451.46 L 600.86 451.48 L 602.33 451.42 L 603.81 451.47 L 605.28 451.45 L 606.75 451.51 L 608.22 451.53 L 609.69 451.48 L 611.17 451.50 L 612.64 451.99 L 614.11 450.81 L 615.58 451.12 L 617.06 451.43 L 618.53 451.28 L 620.00 451.47 L 621.47 451.49 L 622.94 451.41 L 624.42 451.42 L 625.89 451.37 L 627.36 451.42 L 628.83 451.45 L 630.31 451.43 L 631.78 451.43 L 633.25 451.39 L 634.72 451.47 L 636.19 451.44 L 637.67 451.40 L 639.14 451.44 L 640.61 451.46 L 642.08 451.47 L 643.56 451.40 L 645.03 451.32 L 646.50 451.48 L 647.97 451.25 L 649.44 451.84 L 650.92 451.74 L 652.39 451.76 L 653.86 451.79 L 655.33 451.82 L 656.81 451.68 L 658.28 451.73 L 659.75 451.74 L 661.22 451.79 L 662.69 451.75 L 664.17 451.73 L 665.64 451.75 L 667.11 451.80 L 668.58 451.80 L 670.06 451.74 L 671.53 451.55 L 673.00 452.37 L 674.47 451.49 L 675.94 452.83 L 677.42 452.69 L 678.89 452.50 L 680.36 452.66 L 681.83 452.54 L 683.31 452.65 L 684.78 452.62 L 686.25 452.63 L 687.72 452.67 L 689.19 452.66 L 690.67 452.65 L 692.14 452.75 L 693.61 452.64 L 695.08 452.66 L 696.56 452.76 L 698.03 452.70 L 699.50 452.68 L 700.97 452.73 L 702.44 452.72 L 703.92 452.69 L 705.39 452.73 L 706.86 452.72 L 708.33 452.72 L 709.81 452.67 L 711.28 451.99 L 712.75 452.44 L 714.22 452.55 L 715.69 452.67 L 717.17 452.63 L 718.64 452.59 L 720.11 452.52 L 721.58 452.48 L 723.06 452.53 L 724.53 452.47 L 726.00 452.46 L 727.47 452.52 L 728.94 452.50 L 730.42 452.54 L 731.89 452.57 L 733.36 452.54 L 734.83 452.52 L 736.31 452.60 L 737.78 452.50 L 739.25 452.48 L 740.72 452.54 L 742.19 452.50 L 743.67 452.49 L 745.14 452.58 L 746.61 452.58 L 748.08 452.38 L 749.56 452.37 L 751.03 452.91 L 752.50 452.65 L 753.97 452.65 L 755.44 452.93 L 756.92 452.76 L 758.39 451.43 L 759.86 460.20 L 761.33 455.41 L 762.81 456.61 L 764.28 467.86 L 765.75 456.49 L 767.22 447.62 L 768.69 462.77 L 770.17 453.83 L 771.64 471.18 L 773.11 446.02 L 774.58 436.51 L 776.06 445.65 L 777.53 449.49 L 779.00 448.58 L 780.47 445.79 L 781.94 450.82 L 783.42 441.16 L 784.89 449.18 L 786.36 445.49 L 787.83 446.41 L 789.31 446.83 L 790.78 449.37 L 792.25 440.76 L 793.72 447.26 L 795.19 443.95 L 796.67 440.12 L 798.14 445.60 L 799.61 438.39 L 801.08 446.05 L 802.56 440.84 L 804.03 452.89 L 805.50 467.93 L 806.97 447.20 L 808.44 478.31 L 809.92 460.65 L 811.39 458.89 L 812.86 456.55 L 814.33 464.57 L 815.81 465.15 L 817.28 457.20 L 818.75 457.26 L 820.22 455.57 L 821.69 444.35 L 823.17 433.49 L 824.64 446.58 L 826.11 433.94 L 827.58 436.00 L 829.06 439.64 L 830.53 446.60 L 832.00 451.58 L 833.47 452.19 L 834.94 447.05 L 836.42 439.33 L 837.89 444.31 L 839.36 453.66 L 840.83 446.37 L 842.31 456.55 L 843.78 465.79 L 845.25 457.58 L 846.72 449.14 L 848.19 441.21 L 849.67 453.26 L 851.14 452.95 L 852.61 462.54 L 854.08 463.85 L 855.56 446.42 L 857.03 452.95 L 858.50 452.07 L 859.97 451.18 L 861.44 448.01 L 862.92 445.95 L 864.39 449.88 L 865.86 458.46 L 867.33 463.15 L 868.81 460.85 L 870.28 457.93 L 871.75 463.46 L 873.22 458.53 L 874.69 460.97 L 876.17 467.17 L 877.64 452.07 L 879.11 457.56 L 880.58 454.74 L 882.06 456.72 L 883.53 451.41 L 885.00 441.85 L 886.47 452.39 L 887.94 455.04 L 889.42 454.58 L 890.89 453.43 L 892.36 452.97 L 893.83 448.71 L 895.31 445.19 L 896.78 445.19 L 898.25 446.82 L 899.72 444.47 L 901.19 437.78 L 902.67 444.92 L 904.14 449.85 L 905.61 454.10 L 907.08 460.28 L 908.56 472.85 L 910.03 472.27 L 911.50 477.96 L 912.97 470.57 L 914.44 463.91 L 915.92 468.80 L 917.39 463.71 L 918.86 461.41 L 920.33 462.80 L 921.81 466.99 L 923.28 446.30 L 924.75 454.00 L 926.22 453.45 L 927.69 452.78 L 929.17 448.14 L 930.64 445.04 L 932.11 446.32 L 933.58 444.28 L 935.06 448.41 L 936.53 448.37 L 938.00 451.57 L 939.47 452.00 L 940.94 449.96 L 942.42 446.86 L 943.89 445.31 L 945.36 447.24 L 946.83 444.44 L 948.31 445.91 L 949.78 446.68 L 951.25 442.49 L 952.72 443.64 L 954.19 439.80 L 955.67 438.43 L 957.14 432.61 L 958.61 438.57 L 960.08 434.35 L 961.56 440.91 L 963.03 442.28 L 964.50 445.44 L 965.97 443.46 L 967.44 440.75 L 968.92 443.39 L 970.39 449.46 L 971.86 449.16 L 973.33 448.53 L 974.81 448.53 L 976.28 452.54 L 977.75 452.11 L 979.22 452.77 L 980.69 456.89 L 982.17 453.96 L 983.64 453.92 L 985.11 454.31 L 986.58 454.17 L 988.06 454.17 L 989.53 455.16 L 991.00 454.92 L 992.47 453.84 L 993.94 451.98 L 995.42 452.17 L 996.89 454.66 L 998.36 449.38 L 999.83 448.64 L 1001.31 454.07 L 1002.78 453.92 L 1004.25 455.30 L 1005.72 451.25 L 1007.19 455.16 L 1008.67 454.11 L 1010.14 457.44 L 1011.61 455.03 L 1013.08 455.39 L 1014.56 456.51 L 1016.03 451.68 L 1017.50 458.49 L 1018.97 445.81 L 1020.44 457.16 L 1021.92 459.99" stroke="#6A1B9A" />
<line x1="900.00" y1="307.75" x2="918.00" y2="307.75" stroke="#2E7D32" stroke-width="3" />
<text class="small" x="924.00" y="311.75">pitch</text>
<line x1="900.00" y1="323.75" x2="918.00" y2="323.75" stroke="#6A1B9A" stroke-width="3" />
<text class="small" x="924.00" y="327.75">roll</text>
<text x="90" y="500.50" font-size="14" font-weight="700">Aceleração (magnitude) (u.a.)</text>
<rect class="event" x="443.33" y="506.50" width="313.58" height="192.75" />
<line class="eventline" x1="443.33" y1="506.50" x2="443.33" y2="699.25" />
<line class="eventline" x1="756.92" y1="506.50" x2="756.92" y2="699.25" />
<line class="grid" x1="90" y1="699.25" x2="1150" y2="699.25" />
<text class="small" x="80" y="703.25" text-anchor="end">0.00</text>
<line class="grid" x1="90" y1="660.70" x2="1150" y2="660.70" />
<text class="small" x="80" y="664.70" text-anchor="end">0.50</text>
<line class="grid" x1="90" y1="622.15" x2="1150" y2="622.15" />
<text class="small" x="80" y="626.15" text-anchor="end">1.00</text>
<line class="grid" x1="90" y1="583.60" x2="1150" y2="583.60" />
<text class="small" x="80" y="587.60" text-anchor="end">1.50</text>
<line class="grid" x1="90" y1="545.05" x2="1150" y2="545.05" />
<text class="small" x="80" y="549.05" text-anchor="end">2.00</text>
<line class="grid" x1="90" y1="506.50" x2="1150" y2="506.50" />
<text class="small" x="80" y="510.50" text-anchor="end">2.50</text>
<line class="grid" x1="90.00" y1="506.50" x2="90.00" y2="699.25" />
<line class="grid" x1="266.67" y1="506.50" x2="266.67" y2="699.25" />
<line class="grid" x1="443.33" y1="506.50" x2="443.33" y2="699.25" />
<line class="grid" x1="620.00" y1="506.50" x2="620.00" y2="699.25" />
<line class="grid" x1="796.67" y1="506.50" x2="796.67" y2="699.25" />
<line class="grid" x1="973.33" y1="506.50" x2="973.33" y2="699.25" />
<line class="grid" x1="1150.00" y1="506.50" x2="1150.00" y2="699.25" />
<line class="axis" x1="90" y1="506.50" x2="90" y2="699.25" />
<line class="axis" x1="90" y1="699.25" x2="1150" y2="699.25" />
<path class="series" d="M 178.33 678.27 L 179.81 697.50 L 181.28 693.11 L 182.75 671.79 L 184.22 668.24 L 185.69 673.88 L 187.17 676.47 L 188.64 680.78 L 190.11 678.72 L 191.58 675.93 L 193.06 677.19 L 194.53 685.16 L 196.00 664.25 L 197.47 681.04 L 198.94 681.53 L 200.42 673.31 L 201.89 673.85 L 203.36 682.42 L 204.83 676.86 L 206.31 682.90 L 207.78 688.34 L 209.25 691.09 L 210.72 675.29 L 212.19 689.00 L 213.67 679.00 L 215.14 682.73 L 216.61 680.87 L 218.08 682.63 L 219.56 669.56 L 221.03 677.75 L 222.50 670.91 L 223.97 686.98 L 225.44 687.13 L 226.92 660.54 L 228.39 669.17 L 229.86 683.94 L 231.33 685.94 L 232.81 686.41 L 234.28 679.44 L 235.75 687.89 L 237.22 683.44 L 238.69 684.65 L 240.17 686.20 L 241.64 675.29 L 243.11 693.32 L 244.58 687.76 L 246.06 673.47 L 247.53 672.44 L 249.00 683.75 L 250.47 690.13 L 251.94 688.58 L 253.42 686.50 L 254.89 665.62 L 256.36 653.20 L 257.83 677.99 L 259.31 635.62 L 260.78 661.06 L 262.25 665.77 L 263.72 680.68 L 265.19 668.54 L 266.67 690.41 L 268.14 647.65 L 269.61 691.18 L 271.08 645.55 L 272.56 626.11 L 274.03 655.52 L 275.50 636.48 L 276.97 602.31 L 278.44 632.29 L 279.92 650.75 L 281.39 668.05 L 282.86 678.31 L 284.33 667.65 L 285.81 672.72 L 287.28 674.62 L 288.75 681.91 L 290.22 658.20 L 291.69 683.96 L 293.17 662.24 L 294.64 675.59 L 296.11 675.59 L 297.58 653.04 L 299.06 656.04 L 300.53 679.49 L 302.00 669.43 L 303.47 683.69 L 304.94 695.61 L 306.42 671.22 L 307.89 681.53 L 309.36 682.13 L 310.83 678.58 L 312.31 655.39 L 313.78 652.58 L 315.25 623.71 L 316.72 608.77 L 318.19 564.12 L 319.67 633.70 L 321.14 647.03 L 322.61 672.18 L 324.08 642.12 L 325.56 666.96 L 327.03 678.71 L 328.50 692.31 L 329.97 662.78 L 331.44 659.58 L 332.92 664.65 L 334.39 670.72 L 335.86 664.33 L 337.33 652.77 L 338.81 662.27 L 340.28 663.46 L 341.75 688.94 L 343.22 657.98 L 344.69 645.72 L 346.17 664.93 L 347.64 658.68 L 349.11 625.82 L 350.58 624.86 L 352.06 647.21 L 353.53 631.11 L 355.00 619.15 L 356.47 635.91 L 357.94 615.02 L 359.42 629.24 L 360.89 673.79 L 362.36 633.24 L 363.83 688.36 L 365.31 674.44 L 366.78 680.84 L 368.25 681.63 L 369.72 686.81 L 371.19 686.11 L 372.67 685.07 L 374.14 667.72 L 375.61 683.03 L 377.08 686.80 L 378.56 692.56 L 380.03 672.22 L 381.50 690.97 L 382.97 696.28 L 384.44 690.25 L 385.92 688.35 L 387.39 675.84 L 388.86 687.71 L 390.33 692.11 L 391.81 686.31 L 393.28 691.25 L 394.75 692.64 L 396.22 697.74 L 397.69 697.90 L 399.17 696.41 L 400.64 697.07 L 402.11 696.38 L 403.58 697.99 L 405.06 693.76 L 406.53 694.08 L 408.00 693.70 L 409.47 686.94 L 410.94 687.82 L 412.42 697.61 L 413.89 694.64 L 415.36 694.50 L 416.83 694.96 L 418.31 696.31 L 419.78 692.97 L 421.25 692.08 L 422.72 692.08 L 424.19 686.40 L 425.67 688.63 L 427.14 691.68 L 428.61 691.27 L 430.08 689.96 L 431.56 660.67 L 433.03 680.59 L 434.50 689.79 L 435.97 687.61 L 437.44 680.29 L 438.92 679.90 L 440.39 664.63 L 441.86 680.90 L 443.33 682.98 L 444.81 695.81 L 446.28 691.41 L 447.75 688.23 L 449.22 683.40 L 450.69 679.53 L 452.17 686.67 L 453.64 695.20 L 455.11 695.37 L 456.58 690.93 L 458.06 697.04 L 459.53 697.66 L 461.00 698.30 L 462.47 698.04 L 463.94 698.73 L 465.42 698.95 L 466.89 698.59 L 468.36 699.02 L 469.83 698.50 L 471.31 699.14 L 472.78 698.80 L 474.25 698.89 L 475.72 698.90 L 477.19 698.90 L 478.67 698.77 L 480.14 699.01 L 481.61 698.90 L 483.08 696.88 L 484.56 693.47 L 486.03 694.06 L 487.50 693.65 L 488.97 697.50 L 490.44 695.50 L 491.92 698.95 L 493.39 697.58 L 494.86 697.58 L 496.33 698.77 L 497.81 698.47 L 499.28 698.16 L 500.75 698.92 L 502.22 698.98 L 503.69 698.61 L 505.17 698.93 L 506.64 698.89 L 508.11 698.73 L 509.58 699.20 L 511.06 699.16 L 512.53 698.99 L 514.00 699.07 L 515.47 692.94 L 516.94 684.73 L 518.42 682.95 L 519.89 694.95 L 521.36 697.41 L 522.83 698.55 L 524.31 697.47 L 525.78 699.16 L 527.25 698.20 L 528.72 698.97 L 530.19 698.45 L 531.67 698.81 L 533.14 698.81 L 534.61 699.09 L 536.08 698.84 L 537.56 699.19 L 539.03 698.89 L 540.50 699.01 L 541.97 698.93 L 543.44 698.96 L 544.92 699.09 L 546.39 698.95 L 547.86 698.95 L 549.33 691.18 L 550.81 688.37 L 552.28 696.17 L 553.75 698.20 L 555.22 698.64 L 556.69 698.70 L 558.17 698.10 L 559.64 698.84 L 561.11 698.92 L 562.58 698.66 L 564.06 698.89 L 565.53 699.07 L 567.00 698.85 L 568.47 699.12 L 569.94 699.03 L 571.42 699.08 L 572.89 699.16 L 574.36 698.98 L 575.83 699.00 L 577.31 699.04 L 578.78 699.06 L 580.25 698.64 L 581.72 697.99 L 583.19 695.95 L 584.67 696.31 L 586.14 696.10 L 587.61 698.80 L 589.08 698.85 L 590.56 698.69 L 592.03 698.58 L 593.50 698.63 L 594.97 698.86 L 596.44 698.87 L 597.92 698.84 L 599.39 698.86 L 600.86 698.97 L 602.33 699.16 L 603.81 699.19 L 605.28 699.08 L 606.75 699.18 L 608.22 699.08 L 609.69 699.14 L 611.17 699.19 L 612.64 695.34 L 614.11 692.99 L 615.58 695.67 L 617.06 694.78 L 618.53 697.12 L 620.00 698.75 L 621.47 698.21 L 622.94 698.51 L 624.42 698.87 L 625.89 699.14 L 627.36 699.03 L 628.83 698.83 L 630.31 699.02 L 631.78 698.98 L 633.25 698.90 L 634.72 699.08 L 636.19 699.09 L 637.67 699.11 L 639.14 699.10 L 640.61 699.17 L 642.08 699.22 L 643.56 698.91 L 645.03 697.12 L 646.50 691.58 L 647.97 697.73 L 649.44 698.19 L 650.92 698.66 L 652.39 699.06 L 653.86 699.08 L 655.33 699.00 L 656.81 699.11 L 658.28 699.05 L 659.75 698.88 L 661.22 698.91 L 662.69 699.14 L 664.17 699.18 L 665.64 699.12 L 667.11 699.10 L 668.58 698.97 L 670.06 699.15 L 671.53 695.81 L 673.00 695.81 L 674.47 692.05 L 675.94 697.86 L 677.42 698.09 L 678.89 699.15 L 680.36 698.66 L 681.83 699.06 L 683.31 698.86 L 684.78 698.71 L 686.25 698.94 L 687.72 698.95 L 689.19 698.83 L 690.67 698.92 L 692.14 698.99 L 693.61 698.85 L 695.08 699.06 L 696.56 699.05 L 698.03 699.02 L 699.50 699.06 L 700.97 699.05 L 702.44 698.92 L 703.92 698.94 L 705.39 699.02 L 706.86 698.97 L 708.33 698.40 L 709.81 698.00 L 711.28 690.25 L 712.75 696.97 L 714.22 692.76 L 715.69 698.61 L 717.17 698.56 L 718.64 697.98 L 720.11 698.77 L 721.58 698.86 L 723.06 698.46 L 724.53 698.93 L 726.00 698.90 L 727.47 698.86 L 728.94 698.87 L 730.42 698.98 L 731.89 699.11 L 733.36 699.11 L 734.83 698.94 L 736.31 698.98 L 737.78 699.13 L 739.25 698.89 L 740.72 698.97 L 742.19 699.09 L 743.67 699.13 L 745.14 699.13 L 746.61 698.91 L 748.08 691.81 L 749.56 698.24 L 751.03 696.44 L 752.50 698.05 L 753.97 697.99 L 755.44 698.04 L 756.92 669.30 L 758.39 691.63 L 759.86 697.49 L 761.33 686.73 L 762.81 690.24 L 764.28 676.62 L 765.75 682.04 L 767.22 675.71 L 768.69 681.78 L 770.17 663.55 L 771.64 665.11 L 773.11 683.55 L 774.58 670.43 L 776.06 679.14 L 777.53 682.98 L 779.00 679.72 L 780.47 688.87 L 781.94 672.07 L 783.42 687.99 L 784.89 691.96 L 786.36 687.93 L 787.83 689.44 L 789.31 677.91 L 790.78 649.75 L 792.25 691.65 L 793.72 658.66 L 795.19 669.78 L 796.67 688.21 L 798.14 688.21 L 799.61 672.60 L 801.08 682.37 L 802.56 671.92 L 804.03 667.80 L 805.50 656.76 L 806.97 637.30 L 808.44 647.42 L 809.92 678.75 L 811.39 661.35 L 812.86 663.21 L 814.33 666.75 L 815.81 678.90 L 817.28 681.62 L 818.75 687.18 L 820.22 660.33 L 821.69 659.76 L 823.17 690.23 L 824.64 665.54 L 826.11 662.95 L 827.58 675.73 L 829.06 686.57 L 830.53 687.16 L 832.00 679.37 L 833.47 691.42 L 834.94 675.85 L 836.42 676.55 L 837.89 633.20 L 839.36 663.40 L 840.83 654.86 L 842.31 665.41 L 843.78 684.86 L 845.25 649.91 L 846.72 636.31 L 848.19 659.34 L 849.67 677.86 L 851.14 658.36 L 852.61 666.38 L 854.08 662.75 L 855.56 656.19 L 857.03 668.56 L 858.50 669.01 L 859.97 644.89 L 861.44 635.25 L 862.92 672.00 L 864.39 671.30 L 865.86 649.87 L 867.33 630.76 L 868.81 675.81 L 870.28 613.92 L 871.75 623.24 L 873.22 652.72 L 874.69 679.40 L 876.17 653.17 L 877.64 665.07 L 879.11 675.39 L 880.58 675.20 L 882.06 682.76 L 883.53 662.21 L 885.00 652.74 L 886.47 665.26 L 887.94 648.45 L 889.42 689.27 L 890.89 693.44 L 892.36 692.38 L 893.83 661.68 L 895.31 679.64 L 896.78 677.30 L 898.25 694.96 L 899.72 688.20 L 901.19 676.42 L 902.67 676.06 L 904.14 670.80 L 905.61 684.13 L 907.08 682.57 L 908.56 682.44 L 910.03 658.75 L 911.50 677.23 L 912.97 692.76 L 914.44 691.88 L 915.92 692.23 L 917.39 683.39 L 918.86 693.55 L 920.33 663.28 L 921.81 663.28 L 923.28 633.96 L 924.75 659.16 L 926.22 655.91 L 927.69 651.64 L 929.17 683.28 L 930.64 682.02 L 932.11 685.43 L 933.58 690.64 L 935.06 690.60 L 936.53 693.12 L 938.00 693.75 L 939.47 693.04 L 940.94 696.83 L 942.42 690.40 L 943.89 689.87 L 945.36 689.87 L 946.83 693.99 L 948.31 691.77 L 949.78 692.63 L 951.25 687.89 L 952.72 688.32 L 954.19 691.84 L 955.67 691.94 L 957.14 686.49 L 958.61 680.38 L 960.08 690.90 L 961.56 688.50 L 963.03 684.22 L 964.50 688.72 L 965.97 686.95 L 967.44 690.55 L 968.92 687.09 L 970.39 667.36 L 971.86 690.45 L 973.33 690.84 L 974.81 687.67 L 976.28 694.86 L 977.75 694.30 L 979.22 696.91 L 980.69 674.23 L 982.17 685.95 L 983.64 690.08 L 985.11 691.17 L 986.58 696.99 L 988.06 689.94 L 989.53 696.70 L 991.00 695.57 L 992.47 694.20 L 993.94 692.70 L 995.42 692.89 L 996.89 694.05 L 998.36 691.19 L 999.83 691.37 L 1001.31 697.23 L 1002.78 690.57 L 1004.25 689.82 L 1005.72 689.96 L 1007.19 690.96 L 1008.67 680.76 L 1010.14 694.19 L 1011.61 687.50 L 1013.08 666.90 L 1014.56 668.97 L 1016.03 679.14 L 1017.50 669.32 L 1018.97 675.55 L 1020.44 683.18 L 1021.92 676.74" stroke="#FB8C00" />
<text x="90" y="711.25" font-size="14" font-weight="700">Giroscópio (magnitude) (u.a.)</text>
<rect class="event" x="443.33" y="717.25" width="313.58" height="192.75" />
<line class="eventline" x1="443.33" y1="717.25" x2="443.33" y2="910.00" />
<line class="eventline" x1="756.92" y1="717.25" x2="756.92" y2="910.00" />
<line class="grid" x1="90" y1="910.00" x2="1150" y2="910.00" />
<text class="small" x="80" y="914.00" text-anchor="end">0.00</text>
<line class="grid" x1="90" y1="871.45" x2="1150" y2="871.45" />
<text class="small" x="80" y="875.45" text-anchor="end">0.10</text>
<line class="grid" x1="90" y1="832.90" x2="1150" y2="832.90" />
<text class="small" x="80" y="836.90" text-anchor="end">0.20</text>
<line class="grid" x1="90" y1="794.35" x2="1150" y2="794.35" />
<text class="small" x="80" y="798.35" text-anchor="end">0.30</text>
<line class="grid" x1="90" y1="755.80" x2="1150" y2="755.80" />
<text class="small" x="80" y="759.80" text-anchor="end">0.40</text>
<line class="grid" x1="90" y1="717.25" x2="1150" y2="717.25" />
<text class="small" x="80" y="721.25" text-anchor="end">0.50</text>
<line class="grid" x1="90.00" y1="717.25" x2="90.00" y2="910.00" />
<line class="grid" x1="266.67" y1="717.25" x2="266.67" y2="910.00" />
<line class="grid" x1="443.33" y1="717.25" x2="443.33" y2="910.00" />
<line class="grid" x1="620.00" y1="717.25" x2="620.00" y2="910.00" />
<line class="grid" x1="796.67" y1="717.25" x2="796.67" y2="910.00" />
<line class="grid" x1="973.33" y1="717.25" x2="973.33" y2="910.00" />
<line class="grid" x1="1150.00" y1="717.25" x2="1150.00" y2="910.00" />
<line class="axis" x1="90" y1="717.25" x2="90" y2="910.00" />
<line class="axis" x1="90" y1="910.00" x2="1150" y2="910.00" />
<path class="series" d="M 178.33 903.30 L 179.81 903.76 L 181.28 904.87 L 182.75 899.49 L 184.22 888.79 L 185.69 884.05 L 187.17 885.09 L 188.64 887.80 L 190.11 883.97 L 191.58 881.38 L 193.06 878.31 L 194.53 875.23 L 196.00 888.92 L 197.47 899.16 L 198.94 901.97 L 200.42 899.24 L 201.89 890.12 L 203.36 896.56 L 204.83 900.44 L 206.31 900.11 L 207.78 898.10 L 209.25 893.84 L 210.72 889.14 L 212.19 885.55 L 213.67 883.54 L 215.14 882.25 L 216.61 882.68 L 218.08 879.02 L 219.56 885.39 L 221.03 883.03 L 222.50 888.45 L 223.97 888.89 L 225.44 892.48 L 226.92 888.95 L 228.39 899.57 L 229.86 899.05 L 231.33 899.96 L 232.81 897.85 L 234.28 898.43 L 235.75 898.20 L 237.22 896.65 L 238.69 892.37 L 240.17 894.96 L 241.64 894.30 L 243.11 895.32 L 244.58 900.57 L 246.06 904.03 L 247.53 904.41 L 249.00 904.80 L 250.47 904.86 L 251.94 905.86 L 253.42 901.41 L 254.89 895.98 L 256.36 891.82 L 257.83 892.77 L 259.31 879.65 L 260.78 865.69 L 262.25 885.54 L 263.72 882.96 L 265.19 865.27 L 266.67 870.21 L 268.14 872.00 L 269.61 870.84 L 271.08 873.32 L 272.56 890.35 L 274.03 854.38 L 275.50 892.33 L 276.97 898.82 L 278.44 884.25 L 279.92 886.30 L 281.39 887.89 L 282.86 892.02 L 284.33 877.75 L 285.81 878.38 L 287.28 889.64 L 288.75 897.36 L 290.22 890.00 L 291.69 888.36 L 293.17 894.95 L 294.64 897.96 L 296.11 897.96 L 297.58 895.68 L 299.06 901.14 L 300.53 894.28 L 302.00 883.10 L 303.47 893.90 L 304.94 895.74 L 306.42 888.66 L 307.89 888.88 L 309.36 889.30 L 310.83 897.90 L 312.31 887.90 L 313.78 906.57 L 315.25 887.53 L 316.72 888.51 L 318.19 886.09 L 319.67 882.79 L 321.14 889.45 L 322.61 898.18 L 324.08 879.98 L 325.56 867.79 L 327.03 870.55 L 328.50 871.68 L 329.97 871.04 L 331.44 874.23 L 332.92 877.11 L 334.39 883.04 L 335.86 887.80 L 337.33 889.39 L 338.81 894.69 L 340.28 890.40 L 341.75 895.38 L 343.22 902.73 L 344.69 885.01 L 346.17 874.03 L 347.64 869.01 L 349.11 845.84 L 350.58 800.26 L 352.06 786.84 L 353.53 794.27 L 355.00 791.40 L 356.47 796.88 L 357.94 819.56 L 359.42 841.63 L 360.89 857.75 L 362.36 878.66 L 363.83 905.15 L 365.31 908.28 L 366.78 908.73 L 368.25 907.73 L 369.72 908.31 L 371.19 903.49 L 372.67 895.08 L 374.14 899.23 L 375.61 901.74 L 377.08 904.06 L 378.56 902.04 L 380.03 901.87 L 381.50 902.27 L 382.97 900.58 L 384.44 902.38 L 385.92 903.91 L 387.39 904.72 L 388.86 907.89 L 390.33 906.86 L 391.81 908.15 L 393.28 907.58 L 394.75 906.11 L 396.22 905.66 L 397.69 907.43 L 399.17 906.26 L 400.64 905.82 L 402.11 904.94 L 403.58 905.20 L 405.06 905.53 L 406.53 905.63 L 408.00 905.97 L 409.47 907.25 L 410.94 907.45 L 412.42 908.38 L 413.89 907.01 L 415.36 905.89 L 416.83 906.41 L 418.31 907.93 L 419.78 904.92 L 421.25 904.28 L 422.72 904.28 L 424.19 905.77 L 425.67 903.80 L 427.14 899.83 L 428.61 896.22 L 430.08 892.87 L 431.56 878.34 L 433.03 889.60 L 434.50 889.59 L 435.97 888.65 L 437.44 893.13 L 438.92 904.14 L 440.39 895.60 L 441.86 904.27 L 443.33 902.69 L 444.81 897.59 L 446.28 900.31 L 447.75 904.13 L 449.22 904.87 L 450.69 909.31 L 452.17 909.18 L 453.64 909.71 L 455.11 907.98 L 456.58 909.21 L 458.06 909.62 L 459.53 909.53 L 461.00 909.61 L 462.47 909.65 L 463.94 909.65 L 465.42 909.67 L 466.89 909.62 L 468.36 909.68 L 469.83 909.70 L 471.31 909.63 L 472.78 909.72 L 474.25 909.64 L 475.72 909.73 L 477.19 909.63 L 478.67 909.65 L 480.14 909.70 L 481.61 909.70 L 483.08 909.19 L 484.56 909.02 L 486.03 908.28 L 487.50 908.94 L 488.97 909.69 L 490.44 909.77 L 491.92 909.43 L 493.39 909.65 L 494.86 909.75 L 496.33 909.53 L 497.81 909.69 L 499.28 909.71 L 500.75 909.66 L 502.22 909.72 L 503.69 909.72 L 505.17 909.65 L 506.64 909.65 L 508.11 909.71 L 509.58 909.94 L 511.06 909.92 L 512.53 909.90 L 514.00 909.94 L 515.47 908.54 L 516.94 909.23 L 518.42 908.88 L 519.89 909.63 L 521.36 909.81 L 522.83 909.66 L 524.31 909.87 L 525.78 909.83 L 527.25 909.91 L 528.72 909.89 L 530.19 909.96 L 531.67 909.92 L 533.14 909.91 L 534.61 909.95 L 536.08 909.95 L 537.56 909.92 L 539.03 909.94 L 540.50 909.89 L 541.97 909.89 L 543.44 909.90 L 544.92 909.93 L 546.39 909.90 L 547.86 909.90 L 549.33 908.33 L 550.81 909.37 L 552.28 908.80 L 553.75 909.77 L 555.22 909.77 L 556.69 909.83 L 558.17 909.91 L 559.64 909.96 L 561.11 909.95 L 562.58 909.94 L 564.06 909.92 L 565.53 909.91 L 567.00 909.95 L 568.47 909.94 L 569.94 909.94 L 571.42 909.93 L 572.89 909.92 L 574.36 909.87 L 575.83 909.98 L 577.31 909.94 L 578.78 909.98 L 580.25 909.98 L 581.72 909.83 L 583.19 908.38 L 584.67 909.58 L 586.14 909.65 L 587.61 909.84 L 589.08 909.86 L 590.56 909.93 L 592.03 909.91 L 593.50 909.91 L 594.97 909.92 L 596.44 909.89 L 597.92 909.86 L 599.39 909.95 L 600.86 909.91 L 602.33 909.95 L 603.81 909.91 L 605.28 909.98 L 606.75 909.95 L 608.22 909.88 L 609.69 909.93 L 611.17 909.98 L 612.64 909.57 L 614.11 908.95 L 615.58 909.44 L 617.06 909.67 L 618.53 909.78 L 620.00 909.93 L 621.47 909.89 L 622.94 909.88 L 624.42 909.91 L 625.89 909.92 L 627.36 909.90 L 628.83 909.83 L 630.31 909.84 L 631.78 909.87 L 633.25 909.90 L 634.72 909.93 L 636.19 909.94 L 637.67 909.96 L 639.14 909.95 L 640.61 909.91 L 642.08 909.94 L 643.56 909.92 L 645.03 909.86 L 646.50 909.66 L 647.97 909.61 L 649.44 909.96 L 650.92 909.93 L 652.39 909.86 L 653.86 909.91 L 655.33 909.92 L 656.81 909.95 L 658.28 909.93 L 659.75 909.88 L 661.22 909.90 L 662.69 909.96 L 664.17 909.93 L 665.64 909.90 L 667.11 909.94 L 668.58 909.97 L 670.06 909.90 L 671.53 909.18 L 673.00 909.18 L 674.47 909.30 L 675.94 908.43 L 677.42 909.81 L 678.89 909.92 L 680.36 909.91 L 681.83 909.95 L 683.31 909.89 L 684.78 909.94 L 686.25 909.99 L 687.72 909.89 L 689.19 909.95 L 690.67 909.95 L 692.14 909.88 L 693.61 909.95 L 695.08 909.85 L 696.56 909.88 L 698.03 909.86 L 699.50 909.94 L 700.97 909.94 L 702.44 909.91 L 703.92 909.96 L 705.39 909.92 L 706.86 909.88 L 708.33 909.90 L 709.81 909.74 L 711.28 907.94 L 712.75 909.43 L 714.22 909.63 L 715.69 909.78 L 717.17 909.74 L 718.64 909.82 L 720.11 909.91 L 721.58 909.87 L 723.06 909.81 L 724.53 909.85 L 726.00 909.87 L 727.47 909.91 L 728.94 909.83 L 730.42 909.95 L 731.89 909.87 L 733.36 909.88 L 734.83 909.88 L 736.31 909.91 L 737.78 909.83 L 739.25 909.90 L 740.72 909.86 L 742.19 909.84 L 743.67 909.84 L 745.14 909.92 L 746.61 909.82 L 748.08 909.26 L 749.56 909.76 L 751.03 909.80 L 752.50 909.79 L 753.97 909.85 L 755.44 909.74 L 756.92 905.49 L 758.39 899.04 L 759.86 899.68 L 761.33 898.56 L 762.81 894.48 L 764.28 896.30 L 765.75 891.88 L 767.22 900.84 L 768.69 889.46 L 770.17 892.96 L 771.64 899.21 L 773.11 896.03 L 774.58 900.71 L 776.06 895.78 L 777.53 898.88 L 779.00 907.29 L 780.47 906.37 L 781.94 906.34 L 783.42 905.34 L 784.89 903.86 L 786.36 906.50 L 787.83 902.80 L 789.31 898.61 L 790.78 902.59 L 792.25 903.89 L 793.72 903.25 L 795.19 895.58 L 796.67 890.38 L 798.14 890.38 L 799.61 888.01 L 801.08 884.50 L 802.56 887.90 L 804.03 883.63 L 805.50 892.29 L 806.97 896.24 L 808.44 900.70 L 809.92 899.89 L 811.39 886.79 L 812.86 880.29 L 814.33 893.44 L 815.81 885.03 L 817.28 886.20 L 818.75 882.97 L 820.22 877.90 L 821.69 883.28 L 823.17 891.57 L 824.64 892.70 L 826.11 904.06 L 827.58 898.48 L 829.06 892.82 L 830.53 898.85 L 832.00 900.34 L 833.47 908.44 L 834.94 901.96 L 836.42 891.14 L 837.89 895.10 L 839.36 899.86 L 840.83 895.24 L 842.31 897.27 L 843.78 909.36 L 845.25 898.37 L 846.72 897.40 L 848.19 892.25 L 849.67 888.47 L 851.14 888.46 L 852.61 896.49 L 854.08 891.10 L 855.56 899.52 L 857.03 895.69 L 858.50 897.39 L 859.97 900.36 L 861.44 901.01 L 862.92 893.39 L 864.39 894.87 L 865.86 893.85 L 867.33 900.89 L 868.81 902.23 L 870.28 896.69 L 871.75 902.31 L 873.22 902.48 L 874.69 894.59 L 876.17 895.19 L 877.64 902.42 L 879.11 891.91 L 880.58 903.09 L 882.06 886.71 L 883.53 875.94 L 885.00 880.75 L 886.47 897.76 L 887.94 902.98 L 889.42 905.37 L 890.89 905.04 L 892.36 902.71 L 893.83 906.61 L 895.31 904.18 L 896.78 901.40 L 898.25 901.78 L 899.72 894.95 L 901.19 893.65 L 902.67 885.84 L 904.14 888.11 L 905.61 885.58 L 907.08 881.10 L 908.56 885.49 L 910.03 879.62 L 911.50 888.24 L 912.97 885.67 L 914.44 882.35 L 915.92 880.04 L 917.39 879.94 L 918.86 879.89 L 920.33 883.70 L 921.81 883.70 L 923.28 882.09 L 924.75 889.76 L 926.22 900.15 L 927.69 903.19 L 929.17 901.58 L 930.64 905.44 L 932.11 905.26 L 933.58 907.23 L 935.06 906.20 L 936.53 906.37 L 938.00 907.70 L 939.47 906.31 L 940.94 908.56 L 942.42 905.95 L 943.89 902.33 L 945.36 903.39 L 946.83 905.83 L 948.31 904.27 L 949.78 906.23 L 951.25 902.60 L 952.72 902.90 L 954.19 903.86 L 955.67 905.99 L 957.14 899.20 L 958.61 903.89 L 960.08 906.53 L 961.56 901.97 L 963.03 902.40 L 964.50 901.11 L 965.97 902.99 L 967.44 905.48 L 968.92 902.06 L 970.39 902.05 L 971.86 904.43 L 973.33 906.20 L 974.81 903.55 L 976.28 902.50 L 977.75 901.45 L 979.22 900.75 L 980.69 902.40 L 982.17 903.73 L 983.64 903.87 L 985.11 902.70 L 986.58 901.17 L 988.06 900.99 L 989.53 900.79 L 991.00 900.82 L 992.47 901.16 L 993.94 900.69 L 995.42 899.62 L 996.89 899.47 L 998.36 904.45 L 999.83 906.02 L 1001.31 907.80 L 1002.78 905.50 L 1004.25 903.81 L 1005.72 901.74 L 1007.19 907.36 L 1008.67 902.22 L 1010.14 906.65 L 1011.61 902.17 L 1013.08 901.04 L 1014.56 904.36 L 1016.03 903.22 L 1017.50 895.17 L 1018.97 891.48 L 1020.44 898.30 L 1021.92 891.92" stroke="#E53935" />
<text x="620.00" y="952" font-size="15" text-anchor="middle">minutos (relativo ao início do evento)</text>
<text class="small" x="90.00" y="936" text-anchor="middle">-4.00</text>
<text class="small" x="266.67" y="936" text-anchor="middle">-2.00</text>
<text class="small" x="443.33" y="936" text-anchor="middle">0.00</text>
<text class="small" x="620.00" y="936" text-anchor="middle">2.00</text>
<text class="small" x="796.67" y="936" text-anchor="middle">4.00</text>
<text class="small" x="973.33" y="936" text-anchor="middle">6.00</text>
<text class="small" x="1150.00" y="936" text-anchor="middle">8.00</text>
</svg>