<?xml version="1.0" encoding="UTF-8"?>
<svg xmlns="http://www.w3.org/2000/svg" width="1180" height="980" viewBox="0 0 1180 980">
<style>
text { font-family: -apple-system, BlinkMacSystemFont, 'Segoe UI', Roboto, Helvetica, Arial, sans-serif; fill: #111; }
.small { font-size: 12px; fill: #222; }
.title { font-size: 18px; font-weight: 700; }
.axis { stroke: #111; stroke-width: 1.4; }
.grid { stroke: #E6E6E6; stroke-width: 1; }
.event { fill: #FFEB3B; fill-opacity: 0.18; }
.eventline { stroke: #F9A825; stroke-width: 1.2; stroke-dasharray: 4 3; }
.series { fill: none; stroke-width: 1.8; }
</style>
<text class="title" x="90" y="34">ciclo 2 — carregamento — 2025-12-12T13:13:11-03:00 → 2025-12-12T13:18:07-03:00 (span 296s, dur 297s)</text>
<text class="small" x="90" y="54">GPS: -11.698043,-47.155153  hotspot: -11.698,-47.155</text>
<text class="small" x="90" y="70">Janela: -3.00 → 7.93 min (relativo ao início do evento)</text>
<text x="90" y="79.00" font-size="14" font-weight="700">Velocidade (km/h)</text>
<rect class="event" x="443.33" y="85.00" width="435.78" height="192.75" />
<line class="eventline" x1="443.33" y1="85.00" x2="443.33" y2="277.75" />
<line class="eventline" x1="879.11" y1="85.00" x2="879.11" y2="277.75" />
<line class="grid" x1="90" y1="277.75" x2="1150" y2="277.75" />
<text class="small" x="80" y="281.75" text-anchor="end">0.00</text>
<line class="grid" x1="90" y1="239.20" x2="1150" y2="239.20" />
<text class="small" x="80" y="243.20" text-anchor="end">5.00</text>
<line class="grid" x1="90" y1="200.65" x2="1150" y2="200.65" />
<text class="small" x="80" y="204.65" text-anchor="end">10.0</text>
<line class="grid" x1="90" y1="162.10" x2="1150" y2="162.10" />
<text class="small" x="80" y="166.10" text-anchor="end">15.0</text>
<line class="grid" x1="90" y1="123.55" x2="1150" y2="123.55" />
<text class="small" x="80" y="127.55" text-anchor="end">20.0</text>
<line class="grid" x1="90" y1="85.00" x2="1150" y2="85.00" />
<text class="small" x="80" y="89.00" text-anchor="end">25.0</text>
<line class="grid" x1="90.00" y1="85.00" x2="90.00" y2="277.75" />
<line class="grid" x1="266.67" y1="85.00" x2="266.67" y2="277.75" />
<line class="grid" x1="443.33" y1="85.00" x2="443.33" y2="277.75" />
<line class="grid" x1="620.00" y1="85.00" x2="620.00" y2="277.75" />
<line class="grid" x1="796.67" y1="85.00" x2="796.67" y2="277.75" />
<line class="grid" x1="973.33" y1="85.00" x2="973.33" y2="277.75" />
<line class="grid" x1="1150.00" y1="85.00" x2="1150.00" y2="277.75" />
<line class="axis" x1="90" y1="85.00" x2="90" y2="277.75" />
<line class="axis" x1="90" y1="277.75" x2="1150" y2="277.75" />
<path class="series" d="M 178.33 277.75 L 179.81 277.75 L 181.28 277.75 L 182.75 277.75 L 184.22 277.75 L 185.69 277.75 L 187.17 277.75 L 188.64 277.75 L 190.11 277.75 L 191.58 277.75 L 193.06 277.75 L 194.53 277.75 L 196.00 277.75 L 197.47 277.75 L 198.94 277.75 L 200.42 277.75 L 201.89 277.75 L 203.36 277.75 L 204.83 277.75 L 206.31 277.75 L 207.78 277.75 L 209.25 277.75 L 210.72 277.75 L 212.19 277.75 L 213.67 277.75 L 215.14 277.75 L 216.61 277.75 L 218.08 277.75 L 219.56 277.75 L 221.03 277.75 L 222.50 277.75 L 223.97 277.75 L 225.44 277.75 L 226.92 277.75 L 228.39 277.75 L 229.86 277.75 L 231.33 277.75 L 232.81 277.75 L 234.28 277.75 L 235.75 277.75 L 237.22 277.75 L 238.69 277.75 L 240.17 277.75 L 241.64 277.75 L 243.11 277.75 L 244.58 277.75 L 246.06 277.75 L 247.53 277.75 L 249.00 277.75 L 250.47 277.75 L 251.94 277.75 L 253.42 277.75 L 254.89 277.75 L 256.36 277.75 L 257.83 277.75 L 259.31 277.75 L 260.78 277.75 L 262.25 277.75 L 263.72 277.75 L 265.19 277.75 L 266.67 277.75 L 268.14 277.75 L 269.61 277.75 L 271.08 277.75 L 272.56 277.75 L 274.03 277.75 L 275.50 277.75 L 276.97 277.75 L 278.44 277.75 L 279.92 277.75 L 281.39 277.75 L 282.86 277.75 L 284.33 277.75 L 285.81 277.75 L 287.28 277.75 L 288.75 277.75 L 290.22 277.75 L 291.69 277.75 L 293.17 277.75 L 294.64 277.75 L 296.11 277.75 L 297.58 277.75 L 299.06 277.75 L 300.53 277.75 L 302.00 277.75 L 303.47 277.75 L 304.94 277.75 L 306.42 277.75 L 307.89 277.75 L 309.36 232.79 L 310.83 236.67 L 312.31 234.17 L 313.78 238.89 L 315.25 235.56 L 316.72 235.84 L 318.19 244.44 L 319.67 254.16 L 321.14 256.66 L 322.61 233.90 L 324.08 231.12 L 325.56 233.62 L 327.03 218.91 L 328.50 229.18 L 329.97 235.84 L 331.44 223.90 L 332.92 225.85 L 334.39 252.21 L 335.86 232.79 L 337.33 243.61 L 338.81 257.21 L 340.28 253.88 L 341.75 256.10 L 343.22 261.93 L 344.69 261.37 L 346.17 261.10 L 347.64 260.82 L 349.11 267.76 L 350.58 277.75 L 352.06 277.75 L 353.53 277.75 L 355.00 277.75 L 356.47 277.75 L 357.94 268.04 L 359.42 271.09 L 360.89 277.75 L 362.36 267.48 L 363.83 270.81 L 365.31 266.93 L 366.78 277.75 L 368.25 277.75 L 369.72 277.75 L 371.19 277.75 L 372.67 277.75 L 374.14 277.75 L 375.61 277.75 L 377.08 277.75 L 378.56 277.75 L 380.03 277.75 L 381.50 277.75 L 382.97 277.75 L 384.44 277.75 L 385.92 277.75 L 387.39 277.75 L 388.86 277.75 L 390.33 277.75 L 391.81 277.75 L 393.28 277.75 L 394.75 277.75 L 396.22 277.75 L 397.69 277.75 L 399.17 277.75 L 400.64 277.75 L 402.11 277.75 L 403.58 277.75 L 405.06 277.75 L 406.53 277.75 L 408.00 277.75 L 409.47 277.75 L 410.94 277.75 L 412.42 277.75 L 413.89 277.75 L 415.36 277.75 L 416.83 277.75 L 418.31 277.75 L 419.78 277.75 L 421.25 229.45 L 422.72 240.83 L 424.19 251.94 L 425.67 247.50 L 427.14 254.99 L 428.61 246.39 L 430.08 252.77 L 431.56 257.77 L 433.03 261.10 L 434.50 257.49 L 435.97 253.88 L 437.44 265.26 L 438.92 266.09 L 440.39 271.64 L 441.86 270.53 L 443.33 277.75 L 444.81 277.75 L 446.28 277.75 L 447.75 277.75 L 449.22 277.75 L 450.69 277.75 L 452.17 277.75 L 453.64 277.75 L 455.11 277.75 L 456.58 277.75 L 458.06 277.75 L 459.53 277.75 L 461.00 277.75 L 462.47 277.75 L 463.94 277.75 L 465.42 277.75 L 466.89 277.75 L 468.36 277.75 L 469.83 277.75 L 471.31 277.75 L 472.78 277.75 L 474.25 277.75 L 475.72 277.75 L 477.19 277.75 L 478.67 277.75 L 480.14 277.75 L 481.61 277.75 L 483.08 277.75 L 484.56 277.75 L 486.03 277.75 L 487.50 277.75 L 488.97 277.75 L 490.44 277.75 L 491.92 277.75 L 493.39 277.75 L 494.86 277.75 L 496.33 277.75 L 497.81 277.75 L 499.28 277.75 L 500.75 277.75 L 502.22 277.75 L 503.69 277.75 L 505.17 277.75 L 506.64 277.75 L 508.11 277.75 L 509.58 277.75 L 511.06 277.75 L 512.53 277.75 L 514.00 277.75 L 515.47 277.75 L 516.94 277.75 L 518.42 277.75 L 519.89 277.75 L 521.36 277.75 L 522.83 277.75 L 524.31 277.75 L 525.78 277.75 L 527.25 277.75 L 528.72 277.75 L 530.19 277.75 L 531.67 277.75 L 533.14 277.75 L 534.61 277.75 L 536.08 277.75 L 537.56 277.75 L 539.03 277.75 L 540.50 277.75 L 541.97 277.75 L 543.44 277.75 L 544.92 277.75 L 546.39 277.75 L 547.86 277.75 L 549.33 277.75 L 550.81 277.75 L 552.28 277.75 L 553.75 277.75 L 555.22 277.75 L 556.69 277.75 L 558.17 277.75 L 559.64 277.75 L 561.11 277.75 L 562.58 277.75 L 564.06 277.75 L 565.53 277.75 L 567.00 277.75 L 568.47 277.75 L 569.94 277.75 L 571.42 277.75 L 572.89 277.75 L 574.36 277.75 L 575.83 277.75 L 577.31 277.75 L 578.78 277.75 L 580.25 277.75 L 581.72 277.75 L 583.19 277.75 L 584.67 277.75 L 586.14 277.75 L 587.61 277.75 L 589.08 277.75 L 590.56 277.75 L 592.03 277.75 L 593.50 277.75 L 594.97 277.75 L 596.44 277.75 L 597.92 277.75 L 599.39 277.75 L 600.86 277.75 L 602.33 277.75 L 603.81 277.75 L 605.28 277.75 L 606.75 277.75 L 608.22 277.75 L 609.69 277.75 L 611.17 277.75 L 612.64 277.75 L 614.11 277.75 L 615.58 277.75 L 617.06 277.75 L 618.53 277.75 L 620.00 277.75 L 621.47 277.75 L 622.94 277.75 L 624.42 277.75 L 625.89 277.75 L 627.36 277.75 L 628.83 277.75 L 630.31 277.75 L 631.78 277.75 L 633.25 277.75 L 634.72 277.75 L 636.19 277.75 L 637.67 277.75 L 639.14 277.75 L 640.61 277.75 L 642.08 277.75 L 643.56 277.75 L 645.03 277.75 L 646.50 277.75 L 647.97 277.75 L 649.44 277.75 L 650.92 277.75 L 652.39 277.75 L 653.86 277.75 L 655.33 277.75 L 656.81 277.75 L 658.28 277.75 L 659.75 277.75 L 661.22 277.75 L 662.69 277.75 L 664.17 277.75 L 665.64 277.75 L 667.11 277.75 L 668.58 277.75 L 670.06 277.75 L 671.53 277.75 L 673.00 277.75 L 674.47 277.75 L 675.94 277.75 L 677.42 277.75 L 678.89 277.75 L 680.36 277.75 L 681.83 277.75 L 683.31 277.75 L 684.78 277.75 L 686.25 277.75 L 687.72 277.75 L 689.19 277.75 L 690.67 277.75 L 692.14 277.75 L 693.61 277.75 L 695.08 277.75 L 696.56 277.75 L 698.03 277.75 L 699.50 277.75 L 700.97 277.75 L 702.44 277.75 L 703.92 277.75 L 705.39 277.75 L 706.86 277.75 L 708.33 277.75 L 709.81 277.75 L 711.28 277.75 L 712.75 277.75 L 714.22 277.75 L 715.69 277.75 L 717.17 277.75 L 718.64 277.75 L 720.11 277.75 L 721.58 277.75 L 723.06 277.75 L 724.53 277.75 L 726.00 277.75 L 727.47 277.75 L 728.94 277.75 L 730.42 277.75 L 731.89 277.75 L 733.36 277.75 L 734.83 277.75 L 736.31 277.75 L 737.78 277.75 L 739.25 277.75 L 740.72 277.75 L 742.19 277.75 L 743.67 277.75 L 745.14 277.75 L 746.61 277.75 L 748.08 277.75 L 749.56 277.75 L 751.03 277.75 L 752.50 277.75 L 753.97 277.75 L 755.44 277.75 L 756.92 277.75 L 758.39 277.75 L 759.86 277.75 L 761.33 277.75 L 762.81 277.75 L 764.28 277.75 L 765.75 277.75 L 767.22 277.75 L 768.69 277.75 L 770.17 277.75 L 771.64 277.75 L 773.11 277.75 L 774.58 277.75 L 776.06 277.75 L 777.53 277.75 L 779.00 277.75 L 780.47 277.75 L 781.94 277.75 L 783.42 277.75 L 784.89 277.75 L 786.36 277.75 L 787.83 277.75 L 789.31 277.75 L 790.78 277.75 L 792.25 277.75 L 793.72 277.75 L 795.19 277.75 L 796.67 277.75 L 798.14 277.75 L 799.61 277.75 L 801.08 277.75 L 802.56 277.75 L 804.03 277.75 L 805.50 277.75 L 806.97 277.75 L 808.44 277.75 L 809.92 277.75 L 811.39 277.75 L 812.86 277.75 L 814.33 277.75 L 815.81 277.75 L 817.28 277.75 L 818.75 277.75 L 820.22 277.75 L 821.69 277.75 L 823.17 277.75 L 824.64 277.75 L 826.11 277.75 L 827.58 277.75 L 829.06 277.75 L 830.53 277.75 L 832.00 277.75 L 833.47 277.75 L 834.94 277.75 L 836.42 277.75 L 837.89 277.75 L 839.36 277.75 L 840.83 277.75 L 842.31 277.75 L 843.78 277.75 L 845.25 277.75 L 846.72 277.75 L 848.19 277.75 L 849.67 277.75 L 851.14 277.75 L 852.61 277.75 L 854.08 277.75 L 855.56 277.75 L 857.03 277.75 L 858.50 277.75 L 859.97 277.75 L 861.44 277.75 L 862.92 277.75 L 864.39 277.75 L 865.86 277.75 L 867.33 277.75 L 868.81 277.75 L 870.28 277.75 L 871.75 277.75 L 873.22 277.75 L 874.69 277.75 L 876.17 277.75 L 877.64 277.75 L 879.11 277.75 L 880.58 173.94 L 882.06 196.42 L 883.53 196.15 L 885.00 201.42 L 886.47 194.48 L 887.94 173.11 L 889.42 189.49 L 890.89 205.86 L 892.36 203.92 L 893.83 204.75 L 895.31 230.84 L 896.78 212.80 L 898.25 225.57 L 899.72 212.52 L 901.19 190.87 L 902.67 199.48 L 904.14 190.87 L 905.61 191.98 L 907.08 197.26 L 908.56 209.47 L 910.03 212.52 L 911.50 228.34 L 912.97 215.58 L 914.44 226.68 L 915.92 228.62 L 917.39 232.51 L 918.86 231.40 L 920.33 231.95 L 921.81 229.18 L 923.28 240.83 L 924.75 235.28 L 926.22 234.17 L 927.69 233.62 L 929.17 235.01 L 930.64 235.84 L 932.11 235.28 L 933.58 241.67 L 935.06 251.38 L 936.53 252.77 L 938.00 244.17 L 939.47 245.83 L 940.94 233.62 L 942.42 242.22 L 943.89 246.94 L 945.36 233.90 L 946.83 257.21 L 948.31 252.21 L 949.78 233.62 L 951.25 241.94 L 952.72 237.78 L 954.19 252.49 L 955.67 237.23 L 957.14 243.61 L 958.61 231.95 L 960.08 230.56 L 961.56 215.30 L 963.03 222.79 L 964.50 235.56 L 965.97 228.34 L 967.44 228.62 L 968.92 217.80 L 970.39 231.95 L 971.86 229.73 L 973.33 209.19 L 974.81 211.97 L 976.28 210.58 L 977.75 197.26 L 979.22 229.45 L 980.69 224.74 L 982.17 231.68 L 983.64 231.95 L 985.11 225.29 L 986.58 222.24 L 988.06 224.74 L 989.53 225.01 L 991.00 216.13 L 992.47 235.01 L 993.94 228.34 L 995.42 224.46 L 996.89 228.90 L 998.36 208.64 L 999.83 204.75 L 1001.31 211.14 L 1002.78 241.67 L 1004.25 210.86 L 1005.72 240.56 L 1007.19 200.59 L 1008.67 228.90 L 1010.14 213.91 L 1011.61 229.18 L 1013.08 217.24 L 1014.56 237.50 L 1016.03 223.35 L 1017.50 218.91 L 1018.97 214.19 L 1020.44 239.45 L 1021.92 243.33 L 1023.39 209.47 L 1024.86 208.08 L 1026.33 191.98 L 1027.81 198.65 L 1029.28 215.58 L 1030.75 211.41 L 1032.22 200.03 L 1033.69 215.02 L 1035.17 244.44 L 1036.64 221.13 L 1038.11 236.39 L 1039.58 230.84 L 1041.06 203.36 L 1042.53 207.53 L 1044.00 214.19 L 1045.47 205.86 L 1046.94 241.11 L 1048.42 235.84 L 1049.89 234.73 L 1051.36 226.68 L 1052.83 246.66 L 1054.31 236.95 L 1055.78 183.10 L 1057.25 192.54 L 1058.72 194.48 L 1060.19 169.22 L 1061.67 198.09 L 1063.14 168.95 L 1064.61 177.55 L 1066.08 181.71 L 1067.56 184.21 L 1069.03 175.89 L 1070.50 177.83 L 1071.97 174.78 L 1073.44 177.27 L 1074.92 180.88 L 1076.39 179.22 L 1077.86 181.99 L 1079.33 203.92 L 1080.81 191.71 L 1082.28 184.49 L 1083.75 174.78 L 1085.22 178.94 L 1086.69 181.16 L 1088.17 180.88 L 1089.64 188.10 L 1091.11 182.27 L 1092.58 183.93 L 1094.06 222.52 L 1095.53 226.96 L 1097.00 230.29 L 1098.47 224.18 L 1099.94 220.85 L 1101.42 222.79 L 1102.89 219.46 L 1104.36 218.35 L 1105.83 216.96 L 1107.31 220.02 L 1108.78 220.85 L 1110.25 222.24 L 1111.72 224.18 L 1113.19 221.68 L 1114.67 225.29 L 1116.14 220.02 L 1117.61 233.06 L 1119.08 230.01 L 1120.56 215.58 L 1122.03 226.68 L 1123.50 225.85 L 1124.97 243.89 L 1126.44 254.71 L 1127.92 259.71 L 1129.39 258.32 L 1130.86 233.06 L 1132.33 232.23 L 1133.81 240.83 L 1135.28 235.01 L 1136.75 232.23 L 1138.22 235.01 L 1139.69 240.00 L 1141.17 231.68 L 1142.64 235.28 L 1144.11 214.47" stroke="#1976D2" />
<text x="90" y="289.75" font-size="14" font-weight="700">Inclinação (graus)</text>
<rect class="event" x="443.33" y="295.75" width="435.78" height="192.75" />
<line class="eventline" x1="443.33" y1="295.75" x2="443.33" y2="488.50" />
<line class="eventline" x1="879.11" y1="295.75" x2="879.11" y2="488.50" />
<line class="grid" x1="90" y1="488.50" x2="1150" y2="488.50" />
<text class="small" x="80" y="492.50" text-anchor="end">-10.0</text>
<line class="grid" x1="90" y1="449.95" x2="1150" y2="449.95" />
<text class="small" x="80" y="453.95" text-anchor="end">0.00</text>
<line class="grid" x1="90" y1="411.40" x2="1150" y2="411.40" />
<text class="small" x="80" y="415.40" text-anchor="end">10.0</text>
<line class="grid" x1="90" y1="372.85" x2="1150" y2="372.85" />
<text class="small" x="80" y="376.85" text-anchor="end">20.0</text>
<line class="grid" x1="90" y1="334.30" x2="1150" y2="334.30" />
<text class="small" x="80" y="338.30" text-anchor="end">30.0</text>
<line class="grid" x1="90" y1="295.75" x2="1150" y2="295.75" />
<text class="small" x="80" y="299.75" text-anchor="end">40.0</text>
<line class="grid" x1="90.00" y1="295.75" x2="90.00" y2="488.50" />
<line class="grid" x1="266.67" y1="295.75" x2="266.67" y2="488.50" />
<line class="grid" x1="443.33" y1="295.75" x2="443.33" y2="488.50" />
<line class="grid" x1="620.00" y1="295.75" x2="620.00" y2="488.50" />
<line class="grid" x1="796.67" y1="295.75" x2="796.67" y2="488.50" />
<line class="grid" x1="973.33" y1="295.75" x2="973.33" y2="488.50" />
<line class="grid" x1="1150.00" y1="295.75" x2="1150.00" y2="488.50" />
<line class="axis" x1="90" y1="295.75" x2="90" y2="488.50" />
<line class="axis" x1="90" y1="488.50" x2="1150" y2="488.50" />
<path class="series" d="M 178.33 376.11 L 179.81 375.98 L 181.28 375.93 L 182.75 376.05 L 184.22 375.95 L 185.69 376.09 L 187.17 376.05 L 188.64 376.04 L 190.11 375.94 L 191.58 376.09 L 193.06 375.96 L 194.53 376.07 L 196.00 376.05 L 197.47 376.03 L 198.94 376.02 L 200.42 376.00 L 201.89 376.03 L 203.36 376.02 L 204.83 376.05 L 206.31 376.04 L 207.78 375.99 L 209.25 376.01 L 210.72 375.93 L 212.19 376.00 L 213.67 375.95 L 215.14 375.97 L 216.61 375.95 L 218.08 375.99 L 219.56 375.95 L 221.03 375.97 L 222.50 375.95 L 223.97 375.97 L 225.44 375.99 L 226.92 375.87 L 228.39 375.95 L 229.86 375.98 L 231.33 375.98 L 232.81 375.91 L 234.28 375.91 L 235.75 375.93 L 237.22 375.96 L 238.69 375.96 L 240.17 375.99 L 241.64 375.95 L 243.11 375.96 L 244.58 376.01 L 246.06 375.99 L 247.53 375.97 L 249.00 375.99 L 250.47 375.97 L 251.94 376.03 L 253.42 376.05 L 254.89 375.99 L 256.36 375.97 L 257.83 375.98 L 259.31 376.04 L 260.78 375.97 L 262.25 375.97 L 263.72 375.98 L 265.19 375.97 L 266.67 376.00 L 268.14 375.92 L 269.61 375.93 L 271.08 376.03 L 272.56 376.01 L 274.03 375.96 L 275.50 375.97 L 276.97 375.97 L 278.44 376.01 L 279.92 375.97 L 281.39 375.98 L 282.86 375.98 L 284.33 376.03 L 285.81 376.01 L 287.28 375.88 L 288.75 376.04 L 290.22 375.92 L 291.69 375.78 L 293.17 375.88 L 294.64 375.87 L 296.11 375.86 L 297.58 375.84 L 299.06 375.81 L 300.53 375.79 L 302.00 375.87 L 303.47 375.84 L 304.94 391.30 L 306.42 382.55 L 307.89 379.01 L 309.36 391.80 L 310.83 384.85 L 312.31 397.73 L 313.78 392.28 L 315.25 413.74 L 316.72 400.34 L 318.19 398.73 L 319.67 395.82 L 321.14 415.71 L 322.61 407.52 L 324.08 394.51 L 325.56 399.44 L 327.03 399.04 L 328.50 400.86 L 329.97 392.88 L 331.44 403.38 L 332.92 411.53 L 334.39 405.56 L 335.86 403.73 L 337.33 400.38 L 338.81 420.12 L 340.28 400.76 L 341.75 409.46 L 343.22 412.93 L 344.69 408.78 L 346.17 411.12 L 347.64 404.51 L 349.11 404.40 L 350.58 410.08 L 352.06 411.15 L 353.53 407.09 L 355.00 410.47 L 356.47 404.57 L 357.94 420.96 L 359.42 414.14 L 360.89 406.44 L 362.36 422.13 L 363.83 409.15 L 365.31 409.15 L 366.78 420.79 L 368.25 415.21 L 369.72 415.73 L 371.19 412.63 L 372.67 413.37 L 374.14 413.77 L 375.61 413.71 L 377.08 413.71 L 378.56 413.73 L 380.03 413.70 L 381.50 413.74 L 382.97 413.80 L 384.44 413.52 L 385.92 413.94 L 387.39 413.60 L 388.86 412.99 L 390.33 412.83 L 391.81 413.31 L 393.28 412.61 L 394.75 412.70 L 396.22 412.66 L 397.69 412.02 L 399.17 401.27 L 400.64 408.64 L 402.11 413.97 L 403.58 407.70 L 405.06 400.82 L 406.53 411.54 L 408.00 406.18 L 409.47 420.25 L 410.94 420.33 L 412.42 426.27 L 413.89 412.99 L 415.36 412.91 L 416.83 412.50 L 418.31 404.99 L 419.78 418.81 L 421.25 414.88 L 422.72 417.25 L 424.19 418.85 L 425.67 415.84 L 427.14 422.32 L 428.61 411.70 L 430.08 415.56 L 431.56 416.78 L 433.03 417.71 L 434.50 411.17 L 435.97 417.02 L 437.44 428.84 L 438.92 411.04 L 440.39 418.66 L 441.86 412.17 L 443.33 415.68 L 444.81 422.24 L 446.28 409.17 L 447.75 421.01 L 449.22 420.18 L 450.69 414.28 L 452.17 415.17 L 453.64 417.35 L 455.11 412.75 L 456.58 414.06 L 458.06 414.77 L 459.53 414.76 L 461.00 414.70 L 462.47 414.71 L 463.94 414.69 L 465.42 414.81 L 466.89 414.66 L 468.36 414.70 L 469.83 414.73 L 471.31 414.67 L 472.78 414.69 L 474.25 414.78 L 475.72 414.70 L 477.19 414.72 L 478.67 414.75 L 480.14 414.71 L 481.61 414.66 L 483.08 414.75 L 484.56 414.69 L 486.03 414.68 L 487.50 414.76 L 488.97 414.64 L 490.44 414.66 L 491.92 414.76 L 493.39 414.70 L 494.86 414.65 L 496.33 414.74 L 497.81 414.69 L 499.28 414.69 L 500.75 414.71 L 502.22 414.69 L 503.69 414.68 L 505.17 414.82 L 506.64 414.71 L 508.11 414.74 L 509.58 414.73 L 511.06 414.74 L 512.53 414.72 L 514.00 414.73 L 515.47 414.66 L 516.94 414.70 L 518.42 414.78 L 519.89 414.79 L 521.36 414.70 L 522.83 414.82 L 524.31 414.76 L 525.78 414.77 L 527.25 414.76 L 528.72 414.72 L 530.19 414.85 L 531.67 414.82 L 533.14 414.83 L 534.61 414.74 L 536.08 414.79 L 537.56 414.79 L 539.03 414.75 L 540.50 414.75 L 541.97 414.80 L 543.44 414.67 L 544.92 414.94 L 546.39 414.42 L 547.86 413.32 L 549.33 414.37 L 550.81 413.66 L 552.28 406.91 L 553.75 417.48 L 555.22 412.42 L 556.69 410.69 L 558.17 411.15 L 559.64 411.10 L 561.11 414.33 L 562.58 408.79 L 564.06 410.67 L 565.53 411.41 L 567.00 411.33 L 568.47 411.33 L 569.94 411.36 L 571.42 411.33 L 572.89 411.29 L 574.36 411.33 L 575.83 411.33 L 577.31 411.33 L 578.78 411.33 L 580.25 411.33 L 581.72 411.33 L 583.19 411.30 L 584.67 411.29 L 586.14 411.29 L 587.61 411.29 L 589.08 411.28 L 590.56 411.26 L 592.03 411.26 L 593.50 411.28 L 594.97 411.27 L 596.44 411.26 L 597.92 411.29 L 599.39 411.28 L 600.86 411.18 L 602.33 411.60 L 603.81 411.20 L 605.28 410.49 L 606.75 409.74 L 608.22 411.14 L 609.69 410.63 L 611.17 410.46 L 612.64 410.55 L 614.11 410.60 L 615.58 410.58 L 617.06 410.60 L 618.53 410.62 L 620.00 410.58 L 621.47 410.56 L 622.94 410.54 L 624.42 410.61 L 625.89 410.57 L 627.36 410.58 L 628.83 410.58 L 630.31 410.57 L 631.78 410.56 L 633.25 410.55 L 634.72 410.60 L 636.19 410.07 L 637.67 409.27 L 639.14 410.33 L 640.61 410.58 L 642.08 409.81 L 643.56 409.83 L 645.03 410.02 L 646.50 409.80 L 647.97 409.95 L 649.44 409.84 L 650.92 409.86 L 652.39 409.92 L 653.86 409.82 L 655.33 409.86 L 656.81 409.86 L 658.28 409.85 L 659.75 409.85 L 661.22 409.90 L 662.69 409.88 L 664.17 409.81 L 665.64 409.87 L 667.11 409.78 L 668.58 409.89 L 670.06 409.86 L 671.53 409.83 L 673.00 409.82 L 674.47 410.03 L 675.94 409.51 L 677.42 410.12 L 678.89 408.67 L 680.36 410.02 L 681.83 409.74 L 683.31 409.67 L 684.78 409.65 L 686.25 409.66 L 687.72 409.63 L 689.19 409.71 L 690.67 409.67 L 692.14 409.66 L 693.61 409.63 L 695.08 409.69 L 696.56 409.64 L 698.03 409.64 L 699.50 409.63 L 700.97 409.69 L 702.44 409.63 L 703.92 409.68 L 705.39 409.63 L 706.86 409.70 L 708.33 409.67 L 709.81 409.72 L 711.28 409.66 L 712.75 409.72 L 714.22 409.69 L 715.69 409.73 L 717.17 409.67 L 718.64 409.64 L 720.11 409.50 L 721.58 410.19 L 723.06 411.07 L 724.53 410.62 L 726.00 410.53 L 727.47 410.55 L 728.94 410.49 L 730.42 410.59 L 731.89 410.53 L 733.36 410.54 L 734.83 410.54 L 736.31 410.50 L 737.78 410.48 L 739.25 410.50 L 740.72 410.51 L 742.19 410.52 L 743.67 410.51 L 745.14 410.55 L 746.61 410.47 L 748.08 410.53 L 749.56 410.55 L 751.03 410.56 L 752.50 410.25 L 753.97 412.57 L 755.44 410.25 L 756.92 411.45 L 758.39 412.35 L 759.86 411.26 L 761.33 411.28 L 762.81 411.46 L 764.28 411.31 L 765.75 411.39 L 767.22 411.30 L 768.69 411.31 L 770.17 411.36 L 771.64 411.31 L 773.11 411.34 L 774.58 411.29 L 776.06 411.41 L 777.53 411.32 L 779.00 411.34 L 780.47 411.37 L 781.94 411.36 L 783.42 411.33 L 784.89 411.40 L 786.36 411.34 L 787.83 411.38 L 789.31 411.43 L 790.78 411.34 L 792.25 411.86 L 793.72 411.12 L 795.19 412.23 L 796.67 412.98 L 798.14 412.23 L 799.61 412.12 L 801.08 412.40 L 802.56 416.44 L 804.03 419.00 L 805.50 412.88 L 806.97 417.79 L 808.44 413.87 L 809.92 420.61 L 811.39 414.64 L 812.86 414.64 L 814.33 407.86 L 815.81 421.05 L 817.28 416.16 L 818.75 413.22 L 820.22 412.78 L 821.69 412.66 L 823.17 416.62 L 824.64 414.18 L 826.11 413.00 L 827.58 417.31 L 829.06 416.02 L 830.53 415.15 L 832.00 416.25 L 833.47 416.08 L 834.94 414.12 L 836.42 407.39 L 837.89 406.81 L 839.36 407.53 L 840.83 414.95 L 842.31 411.28 L 843.78 409.77 L 845.25 412.02 L 846.72 415.97 L 848.19 410.71 L 849.67 416.85 L 851.14 421.54 L 852.61 421.83 L 854.08 420.92 L 855.56 423.20 L 857.03 422.78 L 858.50 422.14 L 859.97 428.05 L 861.44 441.21 L 862.92 426.79 L 864.39 436.62 L 865.86 438.11 L 867.33 451.97 L 868.81 445.11 L 870.28 438.53 L 871.75 423.54 L 873.22 411.47 L 874.69 405.13 L 876.17 410.82 L 877.64 410.58 L 879.11 416.10 L 880.58 420.80 L 882.06 420.72 L 883.53 418.38 L 885.00 406.46 L 886.47 399.26 L 887.94 398.67 L 889.42 397.69 L 890.89 391.65 L 892.36 395.46 L 893.83 390.79 L 895.31 416.03 L 896.78 429.26 L 898.25 423.63 L 899.72 409.61 L 901.19 402.42 L 902.67 395.63 L 904.14 400.53 L 905.61 395.63 L 907.08 403.27 L 908.56 397.71 L 910.03 396.88 L 911.50 404.63 L 912.97 401.72 L 914.44 405.48 L 915.92 404.30 L 917.39 412.05 L 918.86 412.26 L 920.33 414.61 L 921.81 416.08 L 923.28 420.01 L 924.75 422.90 L 926.22 417.80 L 927.69 420.91 L 929.17 418.98 L 930.64 420.15 L 932.11 420.73 L 933.58 422.77 L 935.06 424.18 L 936.53 432.97 L 938.00 437.25 L 939.47 435.69 L 940.94 445.94 L 942.42 441.49 L 943.89 444.33 L 945.36 435.96 L 946.83 431.64 L 948.31 432.36 L 949.78 442.55 L 951.25 440.29 L 952.72 449.25 L 954.19 441.44 L 955.67 442.94 L 957.14 449.08 L 958.61 444.83 L 960.08 441.39 L 961.56 434.23 L 963.03 424.19 L 964.50 421.13 L 965.97 422.96 L 967.44 434.82 L 968.92 431.56 L 970.39 432.08 L 971.86 432.69 L 973.33 428.98 L 974.81 431.80 L 976.28 436.76 L 977.75 435.90 L 979.22 435.97 L 980.69 436.18 L 982.17 440.11 L 983.64 441.07 L 985.11 437.68 L 986.58 438.18 L 988.06 442.43 L 989.53 442.16 L 991.00 442.54 L 992.47 439.60 L 993.94 436.09 L 995.42 436.21 L 996.89 434.97 L 998.36 441.41 L 999.83 437.52 L 1001.31 434.59 L 1002.78 433.49 L 1004.25 429.70 L 1005.72 433.01 L 1007.19 431.52 L 1008.67 430.70 L 1010.14 430.26 L 1011.61 431.60 L 1013.08 433.70 L 1014.56 438.14 L 1016.03 436.61 L 1017.50 436.59 L 1018.97 436.39 L 1020.44 433.58 L 1021.92 434.50 L 1023.39 440.09 L 1024.86 441.47 L 1026.33 439.64 L 1027.81 438.48 L 1029.28 437.33 L 1030.75 433.60 L 1032.22 433.60 L 1033.69 435.57 L 1035.17 436.06 L 1036.64 435.42 L 1038.11 431.80 L 1039.58 430.87 L 1041.06 431.80 L 1042.53 436.30 L 1044.00 435.28 L 1045.47 433.27 L 1046.94 438.02 L 1048.42 428.51 L 1049.89 427.54 L 1051.36 420.60 L 1052.83 408.82 L 1054.31 416.26 L 1055.78 421.26 L 1057.25 411.24 L 1058.72 402.63 L 1060.19 410.23 L 1061.67 404.24 L 1063.14 399.13 L 1064.61 400.26 L 1066.08 402.61 L 1067.56 397.27 L 1069.03 395.71 L 1070.50 397.29 L 1071.97 396.88 L 1073.44 404.08 L 1074.92 399.26 L 1076.39 401.24 L 1077.86 403.12 L 1079.33 403.81 L 1080.81 406.12 L 1082.28 415.80 L 1083.75 416.79 L 1085.22 408.88 L 1086.69 419.41 L 1088.17 424.48 L 1089.64 430.24 L 1091.11 430.20 L 1092.58 432.96 L 1094.06 433.02 L 1095.53 429.15 L 1097.00 443.65 L 1098.47 441.51 L 1099.94 438.07 L 1101.42 436.03 L 1102.89 438.04 L 1104.36 439.04 L 1105.83 439.50 L 1107.31 440.80 L 1108.78 440.29 L 1110.25 441.15 L 1111.72 441.32 L 1113.19 440.57 L 1114.67 438.49 L 1116.14 437.29 L 1117.61 439.95 L 1119.08 443.99 L 1120.56 444.67 L 1122.03 445.42 L 1123.50 442.15 L 1124.97 440.20 L 1126.44 450.39 L 1127.92 443.73 L 1129.39 446.27 L 1130.86 438.25 L 1132.33 437.67 L 1133.81 436.64 L 1135.28 435.34 L 1136.75 435.26 L 1138.22 434.75 L 1139.69 436.49 L 1141.17 436.20 L 1142.64 432.84 L 1144.11 433.60" stroke="#2E7D32" />
<path class="series" d="M 178.33 448.44 L 179.81 448.46 L 181.28 448.33 L 182.75 448.47 L 184.22 448.07 L 185.69 448.54 L 187.17 448.29 L 188.64 448.34 L 190.11 448.42 L 191.58 448.26 L 193.06 448.32 L 194.53 448.36 L 196.00 448.33 L 197.47 448.34 L 198.94 448.29 L 200.42 448.31 L 201.89 448.36 L 203.36 448.36 L 204.83 448.32 L 206.31 448.32 L 207.78 448.35 L 209.25 448.33 L 210.72 448.23 L 212.19 448.35 L 213.67 448.33 L 215.14 448.34 L 216.61 448.35 L 218.08 448.28 L 219.56 448.28 L 221.03 448.37 L 222.50 448.32 L 223.97 448.32 L 225.44 448.33 L 226.92 448.31 L 228.39 448.34 L 229.86 448.32 L 231.33 448.32 L 232.81 448.26 L 234.28 448.33 L 235.75 448.34 L 237.22 448.25 L 238.69 448.34 L 240.17 448.31 L 241.64 448.38 L 243.11 448.31 L 244.58 448.31 L 246.06 448.30 L 247.53 448.35 L 249.00 448.37 L 250.47 448.31 L 251.94 448.33 L 253.42 448.36 L 254.89 448.32 L 256.36 448.38 L 257.83 448.36 L 259.31 448.32 L 260.78 448.32 L 262.25 448.41 L 263.72 448.30 L 265.19 448.31 L 266.67 448.34 L 268.14 448.32 L 269.61 448.37 L 271.08 448.37 L 272.56 448.29 L 274.03 448.33 L 275.50 448.34 L 276.97 448.33 L 278.44 448.32 L 279.92 448.34 L 281.39 448.33 L 282.86 448.42 L 284.33 448.32 L 285.81 448.33 L 287.28 448.31 L 288.75 448.46 L 290.22 448.30 L 291.69 448.32 L 293.17 448.30 L 294.64 448.32 L 296.11 448.34 L 297.58 448.35 L 299.06 448.28 L 300.53 448.32 L 302.00 448.34 L 303.47 448.40 L 304.94 443.88 L 306.42 443.01 L 307.89 441.28 L 309.36 435.66 L 310.83 446.19 L 312.31 440.61 L 313.78 459.27 L 315.25 457.98 L 316.72 452.55 L 318.19 459.27 L 319.67 462.09 L 321.14 473.92 L 322.61 471.56 L 324.08 476.35 L 325.56 474.55 L 327.03 470.00 L 328.50 475.83 L 329.97 468.50 L 331.44 466.11 L 332.92 466.74 L 334.39 467.29 L 335.86 463.65 L 337.33 446.25 L 338.81 460.26 L 340.28 449.49 L 341.75 455.68 L 343.22 455.15 L 344.69 460.61 L 346.17 459.08 L 347.64 451.33 L 349.11 451.10 L 350.58 454.91 L 352.06 453.39 L 353.53 452.28 L 355.00 453.14 L 356.47 456.51 L 357.94 457.28 L 359.42 456.71 L 360.89 463.25 L 362.36 451.96 L 363.83 453.26 L 365.31 453.26 L 366.78 448.36 L 368.25 451.63 L 369.72 449.87 L 371.19 452.27 L 372.67 450.42 L 374.14 451.41 L 375.61 451.24 L 377.08 451.02 L 378.56 451.29 L 380.03 451.07 L 381.50 451.11 L 382.97 451.27 L 384.44 450.73 L 385.92 451.77 L 387.39 452.36 L 388.86 453.30 L 390.33 452.48 L 391.81 453.00 L 393.28 452.99 L 394.75 453.34 L 396.22 453.13 L 397.69 453.70 L 399.17 453.24 L 400.64 443.88 L 402.11 450.39 L 403.58 448.81 L 405.06 448.13 L 406.53 452.41 L 408.00 461.80 L 409.47 466.46 L 410.94 461.14 L 412.42 468.20 L 413.89 457.96 L 415.36 462.51 L 416.83 455.64 L 418.31 438.41 L 419.78 456.31 L 421.25 450.61 L 422.72 458.46 L 424.19 459.05 L 425.67 453.75 L 427.14 457.08 L 428.61 464.33 L 430.08 452.87 L 431.56 452.31 L 433.03 457.85 L 434.50 461.64 L 435.97 451.91 L 437.44 445.63 L 438.92 455.83 L 440.39 449.10 L 441.86 450.26 L 443.33 452.18 L 444.81 451.22 L 446.28 450.58 L 447.75 450.60 L 449.22 454.19 L 450.69 451.35 L 452.17 452.42 L 453.64 451.98 L 455.11 452.05 L 456.58 451.34 L 458.06 451.90 L 459.53 452.04 L 461.00 451.74 L 462.47 451.83 L 463.94 451.91 L 465.42 451.84 L 466.89 451.79 L 468.36 451.85 L 469.83 451.81 L 471.31 451.78 L 472.78 451.78 L 474.25 451.91 L 475.72 451.83 L 477.19 451.82 L 478.67 451.79 L 480.14 451.75 L 481.61 451.83 L 483.08 451.86 L 484.56 451.79 L 486.03 451.77 L 487.50 451.79 L 488.97 451.82 L 490.44 451.78 L 491.92 451.74 L 493.39 451.72 L 494.86 451.78 L 496.33 451.82 L 497.81 451.73 L 499.28 451.75 L 500.75 451.76 L 502.22 451.78 L 503.69 451.79 L 505.17 451.76 L 506.64 451.80 L 508.11 451.80 L 509.58 451.80 L 511.06 451.78 L 512.53 451.74 L 514.00 451.79 L 515.47 451.79 L 516.94 451.77 L 518.42 451.71 L 519.89 451.74 L 521.36 451.78 L 522.83 451.86 L 524.31 451.75 L 525.78 451.76 L 527.25 451.76 L 528.72 451.77 L 530.19 451.84 L 531.67 451.77 L 533.14 451.76 L 534.61 451.78 L 536.08 451.82 L 537.56 451.75 L 539.03 451.76 L 540.50 451.77 L 541.97 451.77 L 543.44 451.71 L 544.92 451.74 L 546.39 452.42 L 547.86 451.89 L 549.33 451.06 L 550.81 451.41 L 552.28 450.48 L 553.75 455.74 L 555.22 455.25 L 556.69 453.81 L 558.17 454.63 L 559.64 454.47 L 561.11 453.93 L 562.58 454.99 L 564.06 452.78 L 565.53 454.41 L 567.00 453.54 L 568.47 453.87 L 569.94 453.87 L 571.42 453.78 L 572.89 453.95 L 574.36 453.76 L 575.83 453.90 L 577.31 453.90 L 578.78 453.90 L 580.25 453.90 L 581.72 453.90 L 583.19 453.85 L 584.67 453.89 L 586.14 453.88 L 587.61 453.84 L 589.08 453.81 L 590.56 453.87 L 592.03 453.87 L 593.50 453.92 L 594.97 453.85 L 596.44 453.83 L 597.92 453.85 L 599.39 453.83 L 600.86 453.89 L 602.33 452.95 L 603.81 454.14 L 605.28 453.83 L 606.75 454.03 L 608.22 453.79 L 609.69 453.76 L 611.17 453.88 L 612.64 453.83 L 614.11 453.77 L 615.58 453.84 L 617.06 453.76 L 618.53 453.86 L 620.00 453.86 L 621.47 453.88 L 622.94 453.82 L 624.42 453.84 L 625.89 453.86 L 627.36 453.88 L 628.83 453.86 L 630.31 453.86 L 631.78 453.86 L 633.25 453.89 L 634.72 453.93 L 636.19 453.69 L 637.67 453.88 L 639.14 452.94 L 640.61 453.16 L 642.08 453.64 L 643.56 453.73 L 645.03 453.59 L 646.50 453.41 L 647.97 453.31 L 649.44 453.39 L 650.92 453.53 L 652.39 453.61 L 653.86 453.54 L 655.33 453.42 L 656.81 453.41 L 658.28 453.45 L 659.75 453.54 L 661.22 453.49 L 662.69 453.51 L 664.17 453.43 L 665.64 453.47 L 667.11 453.48 L 668.58 453.48 L 670.06 453.43 L 671.53 453.51 L 673.00 453.47 L 674.47 453.44 L 675.94 452.33 L 677.42 453.76 L 678.89 454.28 L 680.36 453.82 L 681.83 453.67 L 683.31 453.63 L 684.78 453.67 L 686.25 453.62 L 687.72 453.60 L 689.19 453.54 L 690.67 453.67 L 692.14 453.59 L 693.61 453.64 L 695.08 453.53 L 696.56 453.60 L 698.03 453.58 L 699.50 453.57 L 700.97 453.66 L 702.44 453.49 L 703.92 453.61 L 705.39 453.64 L 706.86 453.61 L 708.33 453.64 L 709.81 453.62 L 711.28 453.66 L 712.75 453.69 L 714.22 453.61 L 715.69 453.62 L 717.17 453.59 L 718.64 453.61 L 720.11 453.38 L 721.58 454.35 L 723.06 453.28 L 724.53 453.73 L 726.00 454.09 L 727.47 453.89 L 728.94 453.73 L 730.42 453.69 L 731.89 453.88 L 733.36 453.87 L 734.83 453.81 L 736.31 453.72 L 737.78 453.74 L 739.25 453.83 L 740.72 453.82 L 742.19 453.77 L 743.67 453.76 L 745.14 453.79 L 746.61 453.77 L 748.08 453.76 L 749.56 453.78 L 751.03 453.77 L 752.50 453.91 L 753.97 454.42 L 755.44 454.98 L 756.92 453.44 L 758.39 456.70 L 759.86 454.03 L 761.33 454.03 L 762.81 454.35 L 764.28 454.19 L 765.75 454.23 L 767.22 454.30 L 768.69 454.19 L 770.17 454.16 L 771.64 454.25 L 773.11 454.25 L 774.58 454.22 L 776.06 454.21 L 777.53 454.19 L 779.00 454.30 L 780.47 454.25 L 781.94 454.21 L 783.42 454.21 L 784.89 454.24 L 786.36 454.27 L 787.83 454.26 L 789.31 454.21 L 790.78 454.22 L 792.25 454.45 L 793.72 453.25 L 795.19 455.69 L 796.67 453.86 L 798.14 454.85 L 799.61 454.28 L 801.08 454.77 L 802.56 453.44 L 804.03 451.27 L 805.50 453.95 L 806.97 450.02 L 808.44 451.08 L 809.92 451.19 L 811.39 450.69 L 812.86 450.69 L 814.33 455.98 L 815.81 453.92 L 817.28 461.81 L 818.75 456.40 L 820.22 455.76 L 821.69 457.65 L 823.17 457.77 L 824.64 459.39 L 826.11 457.72 L 827.58 457.93 L 829.06 458.12 L 830.53 457.02 L 832.00 460.03 L 833.47 460.58 L 834.94 457.66 L 836.42 454.90 L 837.89 454.77 L 839.36 454.12 L 840.83 453.16 L 842.31 447.36 L 843.78 448.01 L 845.25 445.71 L 846.72 446.38 L 848.19 442.57 L 849.67 447.91 L 851.14 439.59 L 852.61 448.58 L 854.08 441.48 L 855.56 442.60 L 857.03 441.62 L 858.50 446.15 L 859.97 456.64 L 861.44 457.01 L 862.92 466.52 L 864.39 464.27 L 865.86 464.88 L 867.33 464.60 L 868.81 468.87 L 870.28 465.75 L 871.75 452.55 L 873.22 456.88 L 874.69 452.09 L 876.17 447.80 L 877.64 449.86 L 879.11 453.11 L 880.58 454.10 L 882.06 456.33 L 883.53 457.22 L 885.00 457.95 L 886.47 452.16 L 887.94 445.71 L 889.42 445.24 L 890.89 438.36 L 892.36 440.47 L 893.83 442.96 L 895.31 442.73 L 896.78 448.80 L 898.25 446.20 L 899.72 444.66 L 901.19 442.38 L 902.67 445.64 L 904.14 451.90 L 905.61 447.81 L 907.08 448.41 L 908.56 445.94 L 910.03 438.87 L 911.50 439.45 L 912.97 441.81 L 914.44 438.17 L 915.92 438.69 L 917.39 437.60 L 918.86 436.21 L 920.33 439.23 L 921.81 434.74 L 923.28 441.07 L 924.75 442.95 L 926.22 445.51 L 927.69 446.76 L 929.17 450.28 L 930.64 443.18 L 932.11 437.49 L 933.58 444.98 L 935.06 443.76 L 936.53 434.22 L 938.00 429.98 L 939.47 435.38 L 940.94 438.36 L 942.42 445.82 L 943.89 450.07 L 945.36 443.87 L 946.83 443.80 L 948.31 448.71 L 949.78 447.03 L 951.25 445.25 L 952.72 446.06 L 954.19 444.70 L 955.67 441.68 L 957.14 446.50 L 958.61 450.19 L 960.08 445.64 L 961.56 451.68 L 963.03 450.11 L 964.50 443.06 L 965.97 449.34 L 967.44 440.34 L 968.92 446.66 L 970.39 446.43 L 971.86 449.09 L 973.33 449.63 L 974.81 450.53 L 976.28 451.99 L 977.75 450.02 L 979.22 448.13 L 980.69 447.25 L 982.17 445.06 L 983.64 448.25 L 985.11 446.03 L 986.58 446.43 L 988.06 443.75 L 989.53 443.94 L 991.00 445.39 L 992.47 444.58 L 993.94 450.62 L 995.42 446.58 L 996.89 440.72 L 998.36 433.89 L 999.83 433.65 L 1001.31 427.22 L 1002.78 429.91 L 1004.25 429.68 L 1005.72 434.12 L 1007.19 438.83 L 1008.67 450.24 L 1010.14 450.68 L 1011.61 451.69 L 1013.08 451.61 L 1014.56 455.65 L 1016.03 456.60 L 1017.50 456.25 L 1018.97 456.66 L 1020.44 452.22 L 1021.92 459.61 L 1023.39 455.54 L 1024.86 455.95 L 1026.33 455.66 L 1027.81 456.14 L 1029.28 455.81 L 1030.75 458.71 L 1032.22 458.71 L 1033.69 470.51 L 1035.17 468.74 L 1036.64 471.36 L 1038.11 470.42 L 1039.58 464.12 L 1041.06 463.88 L 1042.53 465.87 L 1044.00 463.07 L 1045.47 461.48 L 1046.94 458.78 L 1048.42 465.29 L 1049.89 453.66 L 1051.36 451.94 L 1052.83 451.74 L 1054.31 451.98 L 1055.78 453.19 L 1057.25 447.90 L 1058.72 445.11 L 1060.19 443.54 L 1061.67 437.54 L 1063.14 438.76 L 1064.61 440.37 L 1066.08 446.50 L 1067.56 439.68 L 1069.03 439.47 L 1070.50 448.53 L 1071.97 452.93 L 1073.44 469.04 L 1074.92 454.37 L 1076.39 449.13 L 1077.86 443.96 L 1079.33 448.71 L 1080.81 447.08 L 1082.28 437.57 L 1083.75 443.75 L 1085.22 431.74 L 1086.69 435.44 L 1088.17 429.64 L 1089.64 438.45 L 1091.11 442.37 L 1092.58 442.85 L 1094.06 440.88 L 1095.53 445.66 L 1097.00 443.99 L 1098.47 447.78 L 1099.94 443.82 L 1101.42 441.35 L 1102.89 442.35 L 1104.36 450.74 L 1105.83 449.95 L 1107.31 446.94 L 1108.78 445.89 L 1110.25 443.35 L 1111.72 439.78 L 1113.19 440.84 L 1114.67 440.22 L 1116.14 444.85 L 1117.61 447.25 L 1119.08 454.41 L 1120.56 456.23 L 1122.03 460.56 L 1123.50 461.96 L 1124.97 458.19 L 1126.44 459.59 L 1127.92 460.78 L 1129.39 460.51 L 1130.86 457.97 L 1132.33 457.34 L 1133.81 454.50 L 1135.28 456.13 L 1136.75 457.56 L 1138.22 456.86 L 1139.69 458.21 L 1141.17 455.14 L 1142.64 455.88 L 1144.11 452.84" stroke="#6A1B9A" />
<line x1="900.00" y1="307.75" x2="918.00" y2="307.75" stroke="#2E7D32" stroke-width="3" />
<text class="small" x="924.00" y="311.75">pitch</text>
<line x1="900.00" y1="323.75" x2="918.00" y2="323.75" stroke="#6A1B9A" stroke-width="3" />
<text class="small" x="924.00" y="327.75">roll</text>
<text x="90" y="500.50" font-size="14" font-weight="700">Aceleração (magnitude) (u.a.)</text>
<rect class="event" x="443.33" y="506.50" width="435.78" height="192.75" />
<line class="eventline" x1="443.33" y1="506.50" x2="443.33" y2="699.25" />
<line class="eventline" x1="879.11" y1="506.50" x2="879.11" y2="699.25" />
<line class="grid" x1="90" y1="699.25" x2="1150" y2="699.25" />
<text class="small" x="80" y="703.25" text-anchor="end">0.00</text>
<line class="grid" x1="90" y1="660.70" x2="1150" y2="660.70" />
<text class="small" x="80" y="664.70" text-anchor="end">0.50</text>
<line class="grid" x1="90" y1="622.15" x2="1150" y2="622.15" />
<text class="small" x="80" y="626.15" text-anchor="end">1.00</text>
<line class="grid" x1="90" y1="583.60" x2="1150" y2="583.60" />
<text class="small" x="80" y="587.60" text-anchor="end">1.50</text>
<line class="grid" x1="90" y1="545.05" x2="1150" y2="545.05" />
<text class="small" x="80" y="549.05" text-anchor="end">2.00</text>
<line class="grid" x1="90" y1="506.50" x2="1150" y2="506.50" />
<text class="small" x="80" y="510.50" text-anchor="end">2.50</text>
<line class="grid" x1="90.00" y1="506.50" x2="90.00" y2="699.25" />
<line class="grid" x1="266.67" y1="506.50" x2="266.67" y2="699.25" />
<line class="grid" x1="443.33" y1="506.50" x2="443.33" y2="699.25" />
<line class="grid" x1="620.00" y1="506.50" x2="620.00" y2="699.25" />
<line class="grid" x1="796.67" y1="506.50" x2="796.67" y2="699.25" />
<line class="grid" x1="973.33" y1="506.50" x2="973.33" y2="699.25" />
<line class="grid" x1="1150.00" y1="506.50" x2="1150.00" y2="699.25" />
<line class="axis" x1="90" y1="506.50" x2="90" y2="699.25" />
<line class="axis" x1="90" y1="699.25" x2="1150" y2="699.25" />
<path class="series" d="M 178.33 698.44 L 179.81 699.11 L 181.28 698.96 L 182.75 698.64 L 184.22 698.92 L 185.69 699.02 L 187.17 698.95 L 188.64 698.95 L 190.11 698.81 L 191.58 699.04 L 193.06 698.97 L 194.53 699.07 L 196.00 698.98 L 197.47 699.02 L 198.94 699.02 L 200.42 699.06 L 201.89 699.09 L 203.36 699.13 L 204.83 699.07 L 206.31 699.10 L 207.78 699.07 L 209.25 698.87 L 210.72 699.09 L 212.19 699.15 L 213.67 699.11 L 215.14 699.07 L 216.61 699.12 L 218.08 699.14 L 219.56 699.11 L 221.03 699.08 L 222.50 699.11 L 223.97 699.05 L 225.44 699.01 L 226.92 698.91 L 228.39 698.91 L 229.86 699.14 L 231.33 699.12 L 232.81 699.04 L 234.28 699.12 L 235.75 699.15 L 237.22 699.09 L 238.69 699.13 L 240.17 699.01 L 241.64 699.06 L 243.11 699.16 L 244.58 699.06 L 246.06 699.20 L 247.53 699.21 L 249.00 699.03 L 250.47 699.07 L 251.94 699.13 L 253.42 699.09 L 254.89 699.11 L 256.36 699.07 L 257.83 699.17 L 259.31 699.18 L 260.78 699.12 L 262.25 699.02 L 263.72 699.06 L 265.19 699.17 L 266.67 699.19 L 268.14 699.14 L 269.61 699.15 L 271.08 699.16 L 272.56 699.13 L 274.03 699.11 L 275.50 699.11 L 276.97 699.12 L 278.44 699.15 L 279.92 699.06 L 281.39 699.16 L 282.86 699.07 L 284.33 699.21 L 285.81 698.99 L 287.28 699.15 L 288.75 697.41 L 290.22 698.07 L 291.69 698.96 L 293.17 698.96 L 294.64 698.79 L 296.11 699.11 L 297.58 698.74 L 299.06 698.96 L 300.53 699.01 L 302.00 698.93 L 303.47 698.34 L 304.94 646.36 L 306.42 684.15 L 307.89 693.76 L 309.36 687.46 L 310.83 670.63 L 312.31 678.87 L 313.78 612.53 L 315.25 672.39 L 316.72 672.39 L 318.19 663.03 L 319.67 683.37 L 321.14 691.46 L 322.61 651.23 L 324.08 664.98 L 325.56 665.71 L 327.03 679.65 L 328.50 683.18 L 329.97 692.16 L 331.44 669.14 L 332.92 692.05 L 334.39 682.92 L 335.86 682.36 L 337.33 664.42 L 338.81 678.22 L 340.28 681.11 L 341.75 684.50 L 343.22 690.71 L 344.69 696.29 L 346.17 693.52 L 347.64 687.25 L 349.11 672.15 L 350.58 655.71 L 352.06 671.79 L 353.53 677.35 L 355.00 686.94 L 356.47 675.52 L 357.94 684.09 L 359.42 693.87 L 360.89 677.72 L 362.36 684.56 L 363.83 684.30 L 365.31 654.00 L 366.78 681.75 L 368.25 697.68 L 369.72 696.35 L 371.19 692.34 L 372.67 698.15 L 374.14 698.97 L 375.61 698.59 L 377.08 698.66 L 378.56 699.00 L 380.03 698.92 L 381.50 698.85 L 382.97 699.12 L 384.44 697.91 L 385.92 697.51 L 387.39 698.85 L 388.86 696.47 L 390.33 698.02 L 391.81 696.81 L 393.28 698.69 L 394.75 698.88 L 396.22 698.76 L 397.69 679.22 L 399.17 680.70 L 400.64 680.38 L 402.11 685.44 L 403.58 679.09 L 405.06 680.22 L 406.53 670.97 L 408.00 681.65 L 409.47 675.47 L 410.94 677.73 L 412.42 671.39 L 413.89 687.22 L 415.36 681.90 L 416.83 694.65 L 418.31 656.21 L 419.78 691.40 L 421.25 679.82 L 422.72 679.61 L 424.19 680.17 L 425.67 657.15 L 427.14 681.73 L 428.61 675.29 L 430.08 680.78 L 431.56 694.93 L 433.03 686.06 L 434.50 693.60 L 435.97 650.49 L 437.44 685.72 L 438.92 686.39 L 440.39 694.36 L 441.86 694.44 L 443.33 694.44 L 444.81 674.57 L 446.28 667.80 L 447.75 690.26 L 449.22 686.48 L 450.69 683.52 L 452.17 694.08 L 453.64 698.81 L 455.11 695.03 L 456.58 697.18 L 458.06 697.78 L 459.53 698.49 L 461.00 698.87 L 462.47 698.89 L 463.94 699.00 L 465.42 699.03 L 466.89 699.01 L 468.36 699.12 L 469.83 698.90 L 471.31 699.06 L 472.78 698.97 L 474.25 698.85 L 475.72 699.02 L 477.19 699.09 L 478.67 699.12 L 480.14 699.03 L 481.61 699.14 L 483.08 698.98 L 484.56 699.03 L 486.03 699.09 L 487.50 698.98 L 488.97 699.09 L 490.44 698.98 L 491.92 699.13 L 493.39 699.02 L 494.86 699.11 L 496.33 699.14 L 497.81 698.96 L 499.28 699.08 L 500.75 699.13 L 502.22 699.18 L 503.69 699.13 L 505.17 698.90 L 506.64 699.08 L 508.11 699.08 L 509.58 699.04 L 511.06 699.05 L 512.53 699.07 L 514.00 699.08 L 515.47 699.14 L 516.94 699.12 L 518.42 699.04 L 519.89 699.11 L 521.36 699.14 L 522.83 699.07 L 524.31 699.14 L 525.78 698.99 L 527.25 699.05 L 528.72 699.04 L 530.19 698.96 L 531.67 699.16 L 533.14 698.96 L 534.61 699.04 L 536.08 698.97 L 537.56 699.15 L 539.03 699.09 L 540.50 699.04 L 541.97 699.17 L 543.44 698.86 L 544.92 698.48 L 546.39 696.43 L 547.86 695.95 L 549.33 696.22 L 550.81 698.21 L 552.28 687.34 L 553.75 672.28 L 555.22 696.93 L 556.69 696.28 L 558.17 697.62 L 559.64 698.38 L 561.11 691.88 L 562.58 680.73 L 564.06 695.71 L 565.53 696.26 L 567.00 697.41 L 568.47 697.41 L 569.94 697.90 L 571.42 698.31 L 572.89 698.60 L 574.36 698.83 L 575.83 698.78 L 577.31 698.98 L 578.78 698.75 L 580.25 698.98 L 581.72 699.01 L 583.19 699.14 L 584.67 699.03 L 586.14 699.02 L 587.61 699.02 L 589.08 699.12 L 590.56 699.10 L 592.03 699.06 L 593.50 699.04 L 594.97 699.09 L 596.44 699.09 L 597.92 699.09 L 599.39 698.99 L 600.86 699.04 L 602.33 691.34 L 603.81 684.88 L 605.28 691.63 L 606.75 694.06 L 608.22 695.71 L 609.69 699.02 L 611.17 698.60 L 612.64 699.17 L 614.11 698.91 L 615.58 699.07 L 617.06 698.96 L 618.53 699.07 L 620.00 699.08 L 621.47 699.07 L 622.94 699.02 L 624.42 698.97 L 625.89 699.10 L 627.36 699.15 L 628.83 699.07 L 630.31 699.12 L 631.78 699.10 L 633.25 699.00 L 634.72 698.86 L 636.19 696.41 L 637.67 692.71 L 639.14 690.16 L 640.61 697.39 L 642.08 698.97 L 643.56 698.27 L 645.03 698.47 L 646.50 698.97 L 647.97 698.64 L 649.44 698.88 L 650.92 698.94 L 652.39 698.80 L 653.86 699.03 L 655.33 699.07 L 656.81 699.18 L 658.28 699.15 L 659.75 699.11 L 661.22 699.15 L 662.69 698.99 L 664.17 699.10 L 665.64 699.07 L 667.11 699.14 L 668.58 699.17 L 670.06 699.13 L 671.53 699.02 L 673.00 696.97 L 674.47 692.31 L 675.94 684.74 L 677.42 691.12 L 678.89 696.79 L 680.36 697.09 L 681.83 697.95 L 683.31 698.26 L 684.78 698.55 L 686.25 698.72 L 687.72 698.86 L 689.19 698.89 L 690.67 698.99 L 692.14 699.16 L 693.61 699.16 L 695.08 699.10 L 696.56 699.04 L 698.03 698.99 L 699.50 699.00 L 700.97 699.06 L 702.44 699.14 L 703.92 699.05 L 705.39 699.18 L 706.86 699.01 L 708.33 698.98 L 709.81 698.99 L 711.28 699.09 L 712.75 699.17 L 714.22 698.95 L 715.69 699.08 L 717.17 699.13 L 718.64 698.97 L 720.11 698.94 L 721.58 690.13 L 723.06 690.31 L 724.53 696.22 L 726.00 697.67 L 727.47 698.71 L 728.94 698.53 L 730.42 698.78 L 731.89 698.81 L 733.36 698.89 L 734.83 699.06 L 736.31 699.12 L 737.78 699.00 L 739.25 699.13 L 740.72 699.18 L 742.19 698.98 L 743.67 699.00 L 745.14 699.10 L 746.61 699.18 L 748.08 699.12 L 749.56 698.98 L 751.03 699.13 L 752.50 698.77 L 753.97 692.81 L 755.44 692.61 L 756.92 696.96 L 758.39 698.28 L 759.86 698.81 L 761.33 698.58 L 762.81 698.99 L 764.28 699.00 L 765.75 698.92 L 767.22 699.05 L 768.69 698.94 L 770.17 699.14 L 771.64 699.01 L 773.11 699.02 L 774.58 699.13 L 776.06 699.13 L 777.53 699.13 L 779.00 699.00 L 780.47 699.16 L 781.94 699.21 L 783.42 699.15 L 784.89 699.05 L 786.36 699.11 L 787.83 699.07 L 789.31 699.04 L 790.78 699.11 L 792.25 698.59 L 793.72 693.25 L 795.19 688.73 L 796.67 694.41 L 798.14 697.99 L 799.61 698.26 L 801.08 697.92 L 802.56 688.58 L 804.03 684.34 L 805.50 688.13 L 806.97 682.56 L 808.44 691.76 L 809.92 680.21 L 811.39 691.18 L 812.86 682.89 L 814.33 677.14 L 815.81 686.81 L 817.28 690.65 L 818.75 696.21 L 820.22 696.21 L 821.69 694.80 L 823.17 687.75 L 824.64 695.42 L 826.11 697.64 L 827.58 687.76 L 829.06 693.30 L 830.53 693.18 L 832.00 692.98 L 833.47 691.10 L 834.94 697.31 L 836.42 685.31 L 837.89 691.16 L 839.36 696.58 L 840.83 684.94 L 842.31 688.30 L 843.78 693.53 L 845.25 695.20 L 846.72 685.20 L 848.19 683.79 L 849.67 668.51 L 851.14 680.35 L 852.61 679.19 L 854.08 685.77 L 855.56 686.12 L 857.03 682.48 L 858.50 686.53 L 859.97 678.48 L 861.44 675.14 L 862.92 636.66 L 864.39 664.07 L 865.86 684.64 L 867.33 667.16 L 868.81 686.26 L 870.28 697.38 L 871.75 675.80 L 873.22 670.54 L 874.69 691.45 L 876.17 677.91 L 877.64 686.98 L 879.11 683.69 L 880.58 694.77 L 882.06 682.50 L 883.53 684.35 L 885.00 677.87 L 886.47 682.11 L 887.94 683.20 L 889.42 682.34 L 890.89 669.14 L 892.36 672.93 L 893.83 644.14 L 895.31 673.66 L 896.78 662.88 L 898.25 680.25 L 899.72 678.77 L 901.19 666.13 L 902.67 668.14 L 904.14 678.42 L 905.61 650.25 L 907.08 690.58 L 908.56 675.94 L 910.03 672.89 L 911.50 673.47 L 912.97 688.56 L 914.44 697.47 L 915.92 694.16 L 917.39 690.78 L 918.86 687.98 L 920.33 674.77 L 921.81 679.13 L 923.28 689.94 L 924.75 687.84 L 926.22 682.35 L 927.69 693.75 L 929.17 688.10 L 930.64 683.58 L 932.11 683.31 L 933.58 676.28 L 935.06 684.50 L 936.53 677.27 L 938.00 688.12 L 939.47 671.02 L 940.94 687.86 L 942.42 674.88 L 943.89 681.36 L 945.36 686.88 L 946.83 663.35 L 948.31 663.35 L 949.78 687.95 L 951.25 677.72 L 952.72 684.91 L 954.19 681.75 L 955.67 675.19 L 957.14 687.98 L 958.61 687.72 L 960.08 686.39 L 961.56 680.64 L 963.03 693.24 L 964.50 682.81 L 965.97 684.17 L 967.44 681.02 L 968.92 685.83 L 970.39 680.03 L 971.86 678.82 L 973.33 668.13 L 974.81 697.59 L 976.28 686.19 L 977.75 686.15 L 979.22 685.39 L 980.69 693.32 L 982.17 691.25 L 983.64 688.31 L 985.11 691.50 L 986.58 694.92 L 988.06 692.19 L 989.53 696.81 L 991.00 675.96 L 992.47 679.13 L 993.94 688.14 L 995.42 694.83 L 996.89 697.61 L 998.36 676.75 L 999.83 688.39 L 1001.31 673.41 L 1002.78 684.64 L 1004.25 688.33 L 1005.72 684.40 L 1007.19 683.71 L 1008.67 689.50 L 1010.14 688.08 L 1011.61 693.36 L 1013.08 694.55 L 1014.56 690.35 L 1016.03 693.84 L 1017.50 691.17 L 1018.97 697.69 L 1020.44 683.55 L 1021.92 683.65 L 1023.39 683.27 L 1024.86 684.02 L 1026.33 685.51 L 1027.81 695.29 L 1029.28 690.14 L 1030.75 688.82 L 1032.22 682.30 L 1033.69 689.95 L 1035.17 689.41 L 1036.64 685.92 L 1038.11 692.38 L 1039.58 679.90 L 1041.06 687.13 L 1042.53 689.98 L 1044.00 695.95 L 1045.47 675.07 L 1046.94 676.70 L 1048.42 665.64 L 1049.89 685.36 L 1051.36 673.73 L 1052.83 685.66 L 1054.31 659.02 L 1055.78 684.82 L 1057.25 654.70 L 1058.72 683.58 L 1060.19 672.60 L 1061.67 660.48 L 1063.14 675.27 L 1064.61 667.66 L 1066.08 680.93 L 1067.56 670.15 L 1069.03 691.87 L 1070.50 691.87 L 1071.97 687.57 L 1073.44 651.69 L 1074.92 678.63 L 1076.39 679.48 L 1077.86 668.11 L 1079.33 679.92 L 1080.81 692.65 L 1082.28 674.49 L 1083.75 678.95 L 1085.22 654.75 L 1086.69 690.24 L 1088.17 673.76 L 1089.64 671.68 L 1091.11 667.80 L 1092.58 675.17 L 1094.06 678.65 L 1095.53 665.23 L 1097.00 676.92 L 1098.47 683.60 L 1099.94 691.39 L 1101.42 692.48 L 1102.89 689.02 L 1104.36 684.00 L 1105.83 686.91 L 1107.31 690.54 L 1108.78 689.51 L 1110.25 692.86 L 1111.72 689.96 L 1113.19 689.04 L 1114.67 692.21 L 1116.14 683.88 L 1117.61 679.64 L 1119.08 687.47 L 1120.56 682.49 L 1122.03 685.18 L 1123.50 684.12 L 1124.97 680.37 L 1126.44 674.83 L 1127.92 694.40 L 1129.39 682.69 L 1130.86 690.27 L 1132.33 696.08 L 1133.81 688.01 L 1135.28 694.74 L 1136.75 692.53 L 1138.22 693.80 L 1139.69 695.42 L 1141.17 697.64 L 1142.64 689.68 L 1144.11 695.47" stroke="#FB8C00" />
<text x="90" y="711.25" font-size="14" font-weight="700">Giroscópio (magnitude) (u.a.)</text>
<rect class="event" x="443.33" y="717.25" width="435.78" height="192.75" />
<line class="eventline" x1="443.33" y1="717.25" x2="443.33" y2="910.00" />
<line class="eventline" x1="879.11" y1="717.25" x2="879.11" y2="910.00" />
<line class="grid" x1="90" y1="910.00" x2="1150" y2="910.00" />
<text class="small" x="80" y="914.00" text-anchor="end">0.00</text>
<line class="grid" x1="90" y1="871.45" x2="1150" y2="871.45" />
<text class="small" x="80" y="875.45" text-anchor="end">0.05</text>
<line class="grid" x1="90" y1="832.90" x2="1150" y2="832.90" />
<text class="small" x="80" y="836.90" text-anchor="end">0.10</text>
<line class="grid" x1="90" y1="794.35" x2="1150" y2="794.35" />
<text class="small" x="80" y="798.35" text-anchor="end">0.15</text>
<line class="grid" x1="90" y1="755.80" x2="1150" y2="755.80" />
<text class="small" x="80" y="759.80" text-anchor="end">0.20</text>
<line class="grid" x1="90" y1="717.25" x2="1150" y2="717.25" />
<text class="small" x="80" y="721.25" text-anchor="end">0.25</text>
<line class="grid" x1="90.00" y1="717.25" x2="90.00" y2="910.00" />
<line class="grid" x1="266.67" y1="717.25" x2="266.67" y2="910.00" />
<line class="grid" x1="443.33" y1="717.25" x2="443.33" y2="910.00" />
<line class="grid" x1="620.00" y1="717.25" x2="620.00" y2="910.00" />
<line class="grid" x1="796.67" y1="717.25" x2="796.67" y2="910.00" />
<line class="grid" x1="973.33" y1="717.25" x2="973.33" y2="910.00" />
<line class="grid" x1="1150.00" y1="717.25" x2="1150.00" y2="910.00" />
<line class="axis" x1="90" y1="717.25" x2="90" y2="910.00" />
<line class="axis" x1="90" y1="910.00" x2="1150" y2="910.00" />
<path class="series" d="M 178.33 909.50 L 179.81 909.51 L 181.28 909.46 L 182.75 909.79 L 184.22 909.43 L 185.69 909.61 L 187.17 909.57 L 188.64 909.57 L 190.11 909.54 L 191.58 909.44 L 193.06 909.50 L 194.53 909.46 L 196.00 909.44 L 197.47 909.43 L 198.94 909.62 L 200.42 909.84 L 201.89 909.79 L 203.36 909.88 L 204.83 909.86 L 206.31 909.79 L 207.78 909.81 L 209.25 909.89 L 210.72 909.89 L 212.19 909.81 L 213.67 909.85 L 215.14 909.88 L 216.61 909.85 L 218.08 909.87 L 219.56 909.91 L 221.03 909.89 L 222.50 909.86 L 223.97 909.86 L 225.44 909.91 L 226.92 909.91 L 228.39 909.84 L 229.86 909.85 L 231.33 909.92 L 232.81 909.87 L 234.28 909.82 L 235.75 909.89 L 237.22 909.91 L 238.69 909.88 L 240.17 909.86 L 241.64 909.80 L 243.11 909.92 L 244.58 909.79 L 246.06 909.91 L 247.53 909.77 L 249.00 909.93 L 250.47 909.83 L 251.94 909.90 L 253.42 909.78 L 254.89 909.78 L 256.36 909.85 L 257.83 909.90 L 259.31 909.77 L 260.78 909.93 L 262.25 909.87 L 263.72 909.81 L 265.19 909.72 L 266.67 909.87 L 268.14 909.80 L 269.61 909.86 L 271.08 909.72 L 272.56 909.94 L 274.03 909.80 L 275.50 909.84 L 276.97 909.86 L 278.44 909.86 L 279.92 909.89 L 281.39 909.77 L 282.86 909.77 L 284.33 909.94 L 285.81 909.81 L 287.28 909.87 L 288.75 909.06 L 290.22 909.80 L 291.69 909.67 L 293.17 909.83 L 294.64 909.83 L 296.11 909.80 L 297.58 909.95 L 299.06 909.94 L 300.53 909.77 L 302.00 909.78 L 303.47 908.88 L 304.94 899.09 L 306.42 871.92 L 307.89 842.90 L 309.36 794.60 L 310.83 784.06 L 312.31 790.88 L 313.78 833.19 L 315.25 880.32 L 316.72 880.32 L 318.19 886.48 L 319.67 891.07 L 321.14 882.71 L 322.61 855.49 L 324.08 824.30 L 325.56 791.22 L 327.03 780.73 L 328.50 796.10 L 329.97 797.06 L 331.44 801.64 L 332.92 818.00 L 334.39 820.71 L 335.86 814.42 L 337.33 832.75 L 338.81 867.25 L 340.28 843.48 L 341.75 861.49 L 343.22 872.83 L 344.69 865.14 L 346.17 867.18 L 347.64 867.80 L 349.11 886.54 L 350.58 904.24 L 352.06 908.45 L 353.53 907.31 L 355.00 904.18 L 356.47 906.03 L 357.94 898.56 L 359.42 906.76 L 360.89 907.30 L 362.36 884.47 L 363.83 893.86 L 365.31 888.49 L 366.78 907.68 L 368.25 908.89 L 369.72 906.32 L 371.19 908.78 L 372.67 909.66 L 374.14 909.63 L 375.61 909.66 L 377.08 909.83 L 378.56 909.70 L 380.03 909.61 L 381.50 909.79 L 382.97 909.74 L 384.44 908.06 L 385.92 906.72 L 387.39 908.24 L 388.86 909.35 L 390.33 909.66 L 391.81 908.36 L 393.28 909.81 L 394.75 909.80 L 396.22 909.88 L 397.69 903.18 L 399.17 900.31 L 400.64 896.71 L 402.11 897.65 L 403.58 892.72 L 405.06 873.15 L 406.53 874.29 L 408.00 881.13 L 409.47 895.52 L 410.94 903.86 L 412.42 877.74 L 413.89 853.67 L 415.36 816.32 L 416.83 791.72 L 418.31 823.36 L 419.78 840.40 L 421.25 845.40 L 422.72 846.08 L 424.19 832.05 L 425.67 859.43 L 427.14 871.28 L 428.61 854.35 L 430.08 865.90 L 431.56 881.12 L 433.03 879.56 L 434.50 859.87 L 435.97 885.65 L 437.44 895.83 L 438.92 886.14 L 440.39 895.83 L 441.86 905.16 L 443.33 905.16 L 444.81 903.80 L 446.28 906.69 L 447.75 903.23 L 449.22 903.03 L 450.69 908.24 L 452.17 908.82 L 453.64 909.36 L 455.11 909.60 L 456.58 909.03 L 458.06 909.47 L 459.53 909.53 L 461.00 909.48 L 462.47 909.67 L 463.94 909.56 L 465.42 909.62 L 466.89 909.62 L 468.36 909.47 L 469.83 909.55 L 471.31 909.58 L 472.78 909.68 L 474.25 909.54 L 475.72 909.62 L 477.19 909.54 L 478.67 909.51 L 480.14 909.31 L 481.61 909.45 L 483.08 909.49 L 484.56 909.41 L 486.03 909.39 L 487.50 909.40 L 488.97 909.79 L 490.44 909.91 L 491.92 909.85 L 493.39 909.76 L 494.86 909.59 L 496.33 909.50 L 497.81 909.45 L 499.28 909.57 L 500.75 909.58 L 502.22 909.66 L 503.69 909.64 L 505.17 909.64 L 506.64 909.66 L 508.11 909.65 L 509.58 909.60 L 511.06 909.65 L 512.53 909.58 L 514.00 909.90 L 515.47 909.85 L 516.94 909.78 L 518.42 909.78 L 519.89 909.83 L 521.36 909.84 L 522.83 909.76 L 524.31 909.86 L 525.78 909.89 L 527.25 909.72 L 528.72 909.67 L 530.19 909.58 L 531.67 909.60 L 533.14 909.65 L 534.61 909.78 L 536.08 909.75 L 537.56 909.63 L 539.03 909.69 L 540.50 909.62 L 541.97 909.65 L 543.44 909.66 L 544.92 909.13 L 546.39 908.11 L 547.86 906.30 L 549.33 907.53 L 550.81 909.28 L 552.28 903.50 L 553.75 899.12 L 555.22 907.02 L 556.69 909.39 L 558.17 909.69 L 559.64 908.45 L 561.11 906.32 L 562.58 909.45 L 564.06 908.89 L 565.53 909.58 L 567.00 909.71 L 568.47 909.71 L 569.94 909.64 L 571.42 909.73 L 572.89 909.63 L 574.36 909.76 L 575.83 909.61 L 577.31 909.60 L 578.78 909.51 L 580.25 909.58 L 581.72 909.63 L 583.19 909.93 L 584.67 909.86 L 586.14 909.89 L 587.61 909.80 L 589.08 909.93 L 590.56 909.83 L 592.03 909.91 L 593.50 909.85 L 594.97 909.80 L 596.44 909.84 L 597.92 909.88 L 599.39 909.90 L 600.86 909.85 L 602.33 907.02 L 603.81 906.34 L 605.28 908.27 L 606.75 909.73 L 608.22 909.76 L 609.69 909.88 L 611.17 909.89 L 612.64 909.88 L 614.11 909.89 L 615.58 909.85 L 617.06 909.92 L 618.53 909.93 L 620.00 909.94 L 621.47 909.75 L 622.94 909.65 L 624.42 909.69 L 625.89 909.61 L 627.36 909.57 L 628.83 909.75 L 630.31 909.67 L 631.78 909.63 L 633.25 909.74 L 634.72 909.77 L 636.19 907.67 L 637.67 908.67 L 639.14 908.13 L 640.61 909.52 L 642.08 909.51 L 643.56 909.57 L 645.03 909.67 L 646.50 909.57 L 647.97 909.60 L 649.44 909.60 L 650.92 909.75 L 652.39 909.95 L 653.86 909.83 L 655.33 909.82 L 656.81 909.79 L 658.28 909.74 L 659.75 909.84 L 661.22 909.75 L 662.69 909.91 L 664.17 909.90 L 665.64 909.81 L 667.11 909.84 L 668.58 909.88 L 670.06 909.82 L 671.53 909.64 L 673.00 909.57 L 674.47 906.52 L 675.94 906.19 L 677.42 909.30 L 678.89 909.70 L 680.36 909.84 L 681.83 909.82 L 683.31 909.78 L 684.78 909.64 L 686.25 909.85 L 687.72 909.79 L 689.19 909.82 L 690.67 909.78 L 692.14 909.72 L 693.61 909.72 L 695.08 909.91 L 696.56 909.92 L 698.03 909.98 L 699.50 909.78 L 700.97 909.90 L 702.44 909.91 L 703.92 909.83 L 705.39 909.75 L 706.86 909.62 L 708.33 909.77 L 709.81 909.79 L 711.28 909.85 L 712.75 909.89 L 714.22 909.89 L 715.69 909.82 L 717.17 909.70 L 718.64 909.78 L 720.11 909.70 L 721.58 907.92 L 723.06 908.19 L 724.53 909.40 L 726.00 909.71 L 727.47 909.61 L 728.94 909.86 L 730.42 909.93 L 731.89 909.81 L 733.36 909.82 L 734.83 909.78 L 736.31 909.89 L 737.78 909.76 L 739.25 909.90 L 740.72 909.87 L 742.19 909.96 L 743.67 909.87 L 745.14 909.80 L 746.61 909.72 L 748.08 909.84 L 749.56 909.64 L 751.03 909.89 L 752.50 909.77 L 753.97 906.66 L 755.44 909.64 L 756.92 909.61 L 758.39 909.36 L 759.86 909.68 L 761.33 909.82 L 762.81 909.69 L 764.28 909.93 L 765.75 909.82 L 767.22 909.82 L 768.69 909.84 L 770.17 909.83 L 771.64 909.64 L 773.11 909.80 L 774.58 909.86 L 776.06 909.92 L 777.53 909.92 L 779.00 909.78 L 780.47 909.94 L 781.94 909.96 L 783.42 909.91 L 784.89 909.88 L 786.36 909.95 L 787.83 909.90 L 789.31 909.89 L 790.78 909.83 L 792.25 909.66 L 793.72 905.86 L 795.19 906.96 L 796.67 908.47 L 798.14 909.59 L 799.61 909.84 L 801.08 909.72 L 802.56 905.16 L 804.03 901.16 L 805.50 904.00 L 806.97 895.41 L 808.44 892.73 L 809.92 888.26 L 811.39 880.34 L 812.86 894.02 L 814.33 896.57 L 815.81 888.09 L 817.28 896.39 L 818.75 907.14 L 820.22 907.14 L 821.69 905.07 L 823.17 902.84 L 824.64 905.70 L 826.11 902.99 L 827.58 903.15 L 829.06 900.55 L 830.53 900.95 L 832.00 903.37 L 833.47 897.06 L 834.94 890.85 L 836.42 894.92 L 837.89 896.47 L 839.36 897.74 L 840.83 894.16 L 842.31 889.31 L 843.78 890.33 L 845.25 886.94 L 846.72 879.79 L 848.19 874.39 L 849.67 890.73 L 851.14 877.62 L 852.61 891.24 L 854.08 889.88 L 855.56 896.20 L 857.03 894.20 L 858.50 878.56 L 859.97 856.15 L 861.44 882.06 L 862.92 876.29 L 864.39 884.79 L 865.86 902.57 L 867.33 891.70 L 868.81 873.42 L 870.28 845.31 L 871.75 849.14 L 873.22 843.49 L 874.69 868.24 L 876.17 878.57 L 877.64 878.37 L 879.11 875.98 L 880.58 870.24 L 882.06 881.60 L 883.53 874.45 L 885.00 873.41 L 886.47 878.00 L 887.94 882.21 L 889.42 887.01 L 890.89 896.21 L 892.36 899.27 L 893.83 872.49 L 895.31 861.76 L 896.78 881.35 L 898.25 852.03 L 899.72 854.15 L 901.19 878.25 L 902.67 860.31 L 904.14 852.90 L 905.61 864.04 L 907.08 874.63 L 908.56 874.89 L 910.03 883.67 L 911.50 879.37 L 912.97 879.37 L 914.44 901.81 L 915.92 903.57 L 917.39 897.47 L 918.86 888.81 L 920.33 890.39 L 921.81 870.45 L 923.28 861.67 L 924.75 856.52 L 926.22 841.60 L 927.69 836.04 L 929.17 832.51 L 930.64 813.58 L 932.11 822.38 L 933.58 833.06 L 935.06 844.13 L 936.53 844.05 L 938.00 815.19 L 939.47 811.21 L 940.94 838.38 L 942.42 852.65 L 943.89 850.42 L 945.36 840.20 L 946.83 820.01 L 948.31 820.01 L 949.78 801.62 L 951.25 805.05 L 952.72 812.51 L 954.19 826.66 L 955.67 816.51 L 957.14 809.13 L 958.61 826.55 L 960.08 839.24 L 961.56 823.55 L 963.03 822.48 L 964.50 817.84 L 965.97 832.80 L 967.44 850.15 L 968.92 867.26 L 970.39 885.88 L 971.86 883.49 L 973.33 882.39 L 974.81 880.78 L 976.28 880.00 L 977.75 886.87 L 979.22 896.15 L 980.69 901.54 L 982.17 900.33 L 983.64 905.06 L 985.11 900.25 L 986.58 906.99 L 988.06 899.17 L 989.53 898.41 L 991.00 907.27 L 992.47 896.55 L 993.94 892.34 L 995.42 895.95 L 996.89 886.95 L 998.36 887.56 L 999.83 893.55 L 1001.31 884.06 L 1002.78 890.37 L 1004.25 900.23 L 1005.72 900.56 L 1007.19 893.21 L 1008.67 882.57 L 1010.14 893.08 L 1011.61 899.76 L 1013.08 895.18 L 1014.56 895.01 L 1016.03 899.60 L 1017.50 899.69 L 1018.97 898.07 L 1020.44 889.45 L 1021.92 865.67 L 1023.39 870.27 L 1024.86 876.01 L 1026.33 874.99 L 1027.81 882.73 L 1029.28 890.02 L 1030.75 888.33 L 1032.22 889.29 L 1033.69 900.56 L 1035.17 905.74 L 1036.64 892.16 L 1038.11 893.77 L 1039.58 893.31 L 1041.06 901.22 L 1042.53 901.92 L 1044.00 899.01 L 1045.47 897.88 L 1046.94 891.91 L 1048.42 877.64 L 1049.89 894.93 L 1051.36 866.67 L 1052.83 864.51 L 1054.31 841.64 L 1055.78 841.44 L 1057.25 836.56 L 1058.72 839.92 L 1060.19 832.09 L 1061.67 829.65 L 1063.14 846.49 L 1064.61 844.90 L 1066.08 840.95 L 1067.56 837.15 L 1069.03 832.29 L 1070.50 832.29 L 1071.97 844.43 L 1073.44 863.12 L 1074.92 889.79 L 1076.39 898.09 L 1077.86 892.07 L 1079.33 885.82 L 1080.81 887.68 L 1082.28 879.22 L 1083.75 888.96 L 1085.22 868.49 L 1086.69 846.43 L 1088.17 833.53 L 1089.64 854.62 L 1091.11 863.11 L 1092.58 875.60 L 1094.06 880.16 L 1095.53 883.77 L 1097.00 887.12 L 1098.47 884.25 L 1099.94 873.59 L 1101.42 870.22 L 1102.89 866.46 L 1104.36 871.22 L 1105.83 900.75 L 1107.31 896.29 L 1108.78 901.09 L 1110.25 900.31 L 1111.72 897.61 L 1113.19 895.08 L 1114.67 892.66 L 1116.14 892.32 L 1117.61 878.57 L 1119.08 880.73 L 1120.56 891.85 L 1122.03 895.59 L 1123.50 902.95 L 1124.97 906.14 L 1126.44 899.58 L 1127.92 906.21 L 1129.39 905.17 L 1130.86 901.96 L 1132.33 906.53 L 1133.81 904.56 L 1135.28 895.55 L 1136.75 895.71 L 1138.22 896.35 L 1139.69 895.11 L 1141.17 899.01 L 1142.64 893.48 L 1144.11 891.74" stroke="#E53935" />
<text x="620.00" y="952" font-size="15" text-anchor="middle">minutos (relativo ao início do evento)</text>
<text class="small" x="90.00" y="936" text-anchor="middle">-4.00</text>
<text class="small" x="266.67" y="936" text-anchor="middle">-2.00</text>
<text class="small" x="443.33" y="936" text-anchor="middle">0.00</text>
<text class="small" x="620.00" y="936" text-anchor="middle">2.00</text>
<text class="small" x="796.67" y="936" text-anchor="middle">4.00</text>
<text class="small" x="973.33" y="936" text-anchor="middle">6.00</text>
<text class="small" x="1150.00" y="936" text-anchor="middle">8.00</text>
</svg>