<?xml version="1.0" encoding="UTF-8"?>
<svg xmlns="http://www.w3.org/2000/svg" width="1180" height="980" viewBox="0 0 1180 980">
<style>
text { font-family: -apple-system, BlinkMacSystemFont, 'Segoe UI', Roboto, Helvetica, Arial, sans-serif; fill: #111; }
.small { font-size: 12px; fill: #222; }
.title { font-size: 18px; font-weight: 700; }
.axis { stroke: #111; stroke-width: 1.4; }
.grid { stroke: #E6E6E6; stroke-width: 1; }
.event { fill: #FFEB3B; fill-opacity: 0.18; }
.eventline { stroke: #F9A825; stroke-width: 1.2; stroke-dasharray: 4 3; }
.series { fill: none; stroke-width: 1.8; }
</style>
<text class="title" x="90" y="34">ciclo 2 — espera_basculamento — 2025-12-12T13:35:33-03:00 → 2025-12-12T13:36:27-03:00 (span 54s, dur 55s)</text>
<text class="small" x="90" y="54">GPS: -11.693874,-47.165829  hotspot: -11.694,-47.166</text>
<text class="small" x="90" y="70">Janela: -3.00 → 3.90 min (relativo ao início do evento)</text>
<text x="90" y="79.00" font-size="14" font-weight="700">Velocidade (km/h)</text>
<rect class="event" x="443.33" y="85.00" width="79.50" height="192.75" />
<line class="eventline" x1="443.33" y1="85.00" x2="443.33" y2="277.75" />
<line class="eventline" x1="522.83" y1="85.00" x2="522.83" y2="277.75" />
<line class="grid" x1="90" y1="277.75" x2="1150" y2="277.75" />
<text class="small" x="80" y="281.75" text-anchor="end">0.00</text>
<line class="grid" x1="90" y1="239.20" x2="1150" y2="239.20" />
<text class="small" x="80" y="243.20" text-anchor="end">10.0</text>
<line class="grid" x1="90" y1="200.65" x2="1150" y2="200.65" />
<text class="small" x="80" y="204.65" text-anchor="end">20.0</text>
<line class="grid" x1="90" y1="162.10" x2="1150" y2="162.10" />
<text class="small" x="80" y="166.10" text-anchor="end">30.0</text>
<line class="grid" x1="90" y1="123.55" x2="1150" y2="123.55" />
<text class="small" x="80" y="127.55" text-anchor="end">40.0</text>
<line class="grid" x1="90" y1="85.00" x2="1150" y2="85.00" />
<text class="small" x="80" y="89.00" text-anchor="end">50.0</text>
<line class="grid" x1="90.00" y1="85.00" x2="90.00" y2="277.75" />
<line class="grid" x1="266.67" y1="85.00" x2="266.67" y2="277.75" />
<line class="grid" x1="443.33" y1="85.00" x2="443.33" y2="277.75" />
<line class="grid" x1="620.00" y1="85.00" x2="620.00" y2="277.75" />
<line class="grid" x1="796.67" y1="85.00" x2="796.67" y2="277.75" />
<line class="grid" x1="973.33" y1="85.00" x2="973.33" y2="277.75" />
<line class="grid" x1="1150.00" y1="85.00" x2="1150.00" y2="277.75" />
<line class="axis" x1="90" y1="85.00" x2="90" y2="277.75" />
<line class="axis" x1="90" y1="277.75" x2="1150" y2="277.75" />
<path class="series" d="M 178.33 243.47 L 179.81 245.00 L 181.28 244.44 L 182.75 244.30 L 184.22 246.52 L 185.69 245.41 L 187.17 245.97 L 188.64 243.61 L 190.11 244.17 L 191.58 243.19 L 193.06 243.47 L 194.53 243.47 L 196.00 245.41 L 197.47 246.39 L 198.94 246.25 L 200.42 247.36 L 201.89 247.36 L 203.36 247.22 L 204.83 245.41 L 206.31 245.14 L 207.78 244.72 L 209.25 245.55 L 210.72 245.41 L 212.19 242.64 L 213.67 243.61 L 215.14 242.22 L 216.61 242.64 L 218.08 243.89 L 219.56 243.06 L 221.03 243.19 L 222.50 244.03 L 223.97 244.17 L 225.44 244.58 L 226.92 243.61 L 228.39 243.33 L 229.86 244.86 L 231.33 245.28 L 232.81 245.14 L 234.28 245.28 L 235.75 244.44 L 237.22 243.89 L 238.69 243.33 L 240.17 245.00 L 241.64 245.97 L 243.11 245.28 L 244.58 245.14 L 246.06 242.78 L 247.53 240.70 L 249.00 241.11 L 250.47 240.83 L 251.94 240.42 L 253.42 239.59 L 254.89 240.97 L 256.36 242.22 L 257.83 236.53 L 259.31 228.76 L 260.78 221.13 L 262.25 222.65 L 263.72 226.96 L 265.19 227.65 L 266.67 231.68 L 268.14 236.12 L 269.61 239.03 L 271.08 242.08 L 272.56 251.52 L 274.03 253.88 L 275.50 253.74 L 276.97 259.57 L 278.44 259.71 L 279.92 256.66 L 281.39 257.77 L 282.86 256.93 L 284.33 255.82 L 285.81 253.88 L 287.28 254.57 L 288.75 258.88 L 290.22 259.29 L 291.69 260.12 L 293.17 257.77 L 294.64 252.91 L 296.11 255.27 L 297.58 260.40 L 299.06 258.18 L 300.53 260.26 L 302.00 257.77 L 303.47 251.52 L 304.94 249.99 L 306.42 246.39 L 307.89 246.11 L 309.36 242.22 L 310.83 245.41 L 312.31 244.86 L 313.78 240.00 L 315.25 235.28 L 316.72 239.45 L 318.19 239.03 L 319.67 238.48 L 321.14 241.39 L 322.61 245.28 L 324.08 243.75 L 325.56 246.52 L 327.03 242.08 L 328.50 236.95 L 329.97 235.42 L 331.44 237.92 L 332.92 240.28 L 334.39 240.83 L 335.86 239.45 L 337.33 239.17 L 338.81 242.50 L 340.28 241.11 L 341.75 243.06 L 343.22 246.25 L 344.69 246.39 L 346.17 246.39 L 347.64 247.91 L 349.11 245.69 L 350.58 245.41 L 352.06 245.00 L 353.53 245.00 L 355.00 259.57 L 356.47 257.77 L 357.94 259.29 L 359.42 258.46 L 360.89 261.79 L 362.36 258.46 L 363.83 258.32 L 365.31 268.73 L 366.78 251.94 L 368.25 255.55 L 369.72 258.04 L 371.19 254.99 L 372.67 255.41 L 374.14 257.77 L 375.61 256.79 L 377.08 256.38 L 378.56 258.46 L 380.03 257.90 L 381.50 255.55 L 382.97 254.99 L 384.44 256.38 L 385.92 259.01 L 387.39 270.95 L 388.86 277.75 L 390.33 277.75 L 391.81 277.75 L 393.28 277.75 L 394.75 271.09 L 396.22 270.12 L 397.69 270.12 L 399.17 268.04 L 400.64 267.06 L 402.11 267.90 L 403.58 268.73 L 405.06 267.90 L 406.53 267.20 L 408.00 269.28 L 409.47 269.98 L 410.94 270.39 L 412.42 269.42 L 413.89 269.84 L 415.36 271.09 L 416.83 271.50 L 418.31 269.70 L 419.78 269.01 L 421.25 269.84 L 422.72 271.92 L 424.19 272.34 L 425.67 273.31 L 427.14 273.31 L 428.61 271.23 L 430.08 273.03 L 431.56 274.56 L 433.03 274.70 L 434.50 274.97 L 435.97 277.75 L 437.44 277.75 L 438.92 277.75 L 440.39 274.84 L 441.86 271.78 L 443.33 277.75 L 444.81 277.75 L 446.28 277.75 L 447.75 277.75 L 449.22 277.75 L 450.69 277.75 L 452.17 277.75 L 453.64 277.75 L 455.11 277.75 L 456.58 277.75 L 458.06 277.75 L 459.53 277.75 L 461.00 277.75 L 462.47 277.75 L 463.94 277.75 L 465.42 277.75 L 466.89 277.75 L 468.36 277.75 L 469.83 277.75 L 471.31 277.75 L 472.78 277.75 L 474.25 277.75 L 475.72 277.75 L 477.19 277.75 L 478.67 277.75 L 480.14 277.75 L 481.61 277.75 L 483.08 277.75 L 484.56 277.75 L 486.03 277.75 L 487.50 277.75 L 488.97 277.75 L 490.44 277.75 L 491.92 277.75 L 493.39 277.75 L 494.86 277.75 L 496.33 277.75 L 497.81 277.75 L 499.28 277.75 L 500.75 277.75 L 502.22 277.75 L 503.69 277.75 L 505.17 277.75 L 506.64 277.75 L 508.11 277.75 L 509.58 277.75 L 511.06 277.75 L 512.53 277.75 L 514.00 277.75 L 515.47 277.75 L 516.94 277.75 L 518.42 277.75 L 519.89 277.75 L 521.36 277.75 L 522.83 277.75 L 524.31 274.56 L 525.78 277.75 L 527.25 272.20 L 528.72 270.95 L 530.19 277.75 L 531.67 277.75 L 533.14 277.75 L 534.61 277.75 L 536.08 277.75 L 537.56 277.75 L 539.03 277.75 L 540.50 277.75 L 541.97 277.75 L 543.44 277.75 L 544.92 277.75 L 546.39 277.75 L 547.86 277.75 L 549.33 277.75 L 550.81 274.28 L 552.28 270.67 L 553.75 270.81 L 555.22 273.45 L 556.69 272.34 L 558.17 272.48 L 559.64 274.84 L 561.11 274.28 L 562.58 275.53 L 564.06 271.50 L 565.53 269.15 L 567.00 270.81 L 568.47 272.20 L 569.94 270.81 L 571.42 267.76 L 572.89 269.98 L 574.36 277.75 L 575.83 277.75 L 577.31 277.75 L 578.78 277.75 L 580.25 277.75 L 581.72 277.75 L 583.19 277.75 L 584.67 277.75 L 586.14 277.75 L 587.61 277.75 L 589.08 277.75 L 590.56 277.75 L 592.03 277.75 L 593.50 277.75 L 594.97 277.75 L 596.44 277.75 L 597.92 277.75 L 599.39 277.75 L 600.86 277.75 L 602.33 277.75 L 603.81 277.75 L 605.28 277.75 L 606.75 277.75 L 608.22 277.75 L 609.69 277.75 L 611.17 277.75 L 612.64 277.75 L 614.11 277.75 L 615.58 277.75 L 617.06 270.95 L 618.53 265.40 L 620.00 261.93 L 621.47 259.15 L 622.94 251.80 L 624.42 248.47 L 625.89 250.41 L 627.36 247.77 L 628.83 245.00 L 630.31 246.80 L 631.78 246.39 L 633.25 240.83 L 634.72 245.00 L 636.19 242.92 L 637.67 241.53 L 639.14 242.92 L 640.61 246.39 L 642.08 241.67 L 643.56 237.64 L 645.03 242.36 L 646.50 243.75 L 647.97 240.28 L 649.44 231.81 L 650.92 238.61 L 652.39 225.57 L 653.86 225.15 L 655.33 223.90 L 656.81 219.88 L 658.28 221.96 L 659.75 222.24 L 661.22 220.99 L 662.69 216.27 L 664.17 215.99 L 665.64 214.19 L 667.11 211.14 L 668.58 211.83 L 670.06 212.94 L 671.53 205.72 L 673.00 204.06 L 674.47 194.34 L 675.94 210.58 L 677.42 216.27 L 678.89 210.86 L 680.36 208.50 L 681.83 201.98 L 683.31 201.14 L 684.78 202.25 L 686.25 198.65 L 687.72 192.96 L 689.19 186.43 L 690.67 192.82 L 692.14 186.43 L 693.61 190.04 L 695.08 195.31 L 696.56 200.59 L 698.03 201.56 L 699.50 208.78 L 700.97 202.81 L 702.44 198.09 L 703.92 193.79 L 705.39 189.90 L 706.86 183.10 L 708.33 183.52 L 709.81 174.91 L 711.28 179.77 L 712.75 176.02 L 714.22 173.25 L 715.69 177.13 L 717.17 171.31 L 718.64 170.75 L 720.11 176.16 L 721.58 178.66 L 723.06 183.52 L 724.53 185.74 L 726.00 182.82 L 727.47 176.72 L 728.94 174.50 L 730.42 173.53 L 731.89 172.28 L 733.36 172.55 L 734.83 172.14 L 736.31 170.20 L 737.78 167.56 L 739.25 171.31 L 740.72 171.72 L 742.19 170.89 L 743.67 166.31 L 745.14 166.31 L 746.61 165.75 L 748.08 163.40 L 749.56 164.64 L 751.03 164.78 L 752.50 166.17 L 753.97 165.62 L 755.44 164.64 L 756.92 167.28 L 758.39 165.48 L 759.86 167.00 L 761.33 164.92 L 762.81 165.62 L 764.28 167.28 L 765.75 166.31 L 767.22 166.31 L 768.69 165.89 L 770.17 163.67 L 771.64 163.53 L 773.11 163.81 L 774.58 163.95 L 776.06 166.86 L 777.53 165.62 L 779.00 163.95 L 780.47 163.95 L 781.94 158.54 L 783.42 155.90 L 784.89 156.18 L 786.36 156.18 L 787.83 154.51" stroke="#1976D2" />
<text x="90" y="289.75" font-size="14" font-weight="700">Inclinação (graus)</text>
<rect class="event" x="443.33" y="295.75" width="79.50" height="192.75" />
<line class="eventline" x1="443.33" y1="295.75" x2="443.33" y2="488.50" />
<line class="eventline" x1="522.83" y1="295.75" x2="522.83" y2="488.50" />
<line class="grid" x1="90" y1="488.50" x2="1150" y2="488.50" />
<text class="small" x="80" y="492.50" text-anchor="end">-10.0</text>
<line class="grid" x1="90" y1="449.95" x2="1150" y2="449.95" />
<text class="small" x="80" y="453.95" text-anchor="end">0.00</text>
<line class="grid" x1="90" y1="411.40" x2="1150" y2="411.40" />
<text class="small" x="80" y="415.40" text-anchor="end">10.0</text>
<line class="grid" x1="90" y1="372.85" x2="1150" y2="372.85" />
<text class="small" x="80" y="376.85" text-anchor="end">20.0</text>
<line class="grid" x1="90" y1="334.30" x2="1150" y2="334.30" />
<text class="small" x="80" y="338.30" text-anchor="end">30.0</text>
<line class="grid" x1="90" y1="295.75" x2="1150" y2="295.75" />
<text class="small" x="80" y="299.75" text-anchor="end">40.0</text>
<line class="grid" x1="90.00" y1="295.75" x2="90.00" y2="488.50" />
<line class="grid" x1="266.67" y1="295.75" x2="266.67" y2="488.50" />
<line class="grid" x1="443.33" y1="295.75" x2="443.33" y2="488.50" />
<line class="grid" x1="620.00" y1="295.75" x2="620.00" y2="488.50" />
<line class="grid" x1="796.67" y1="295.75" x2="796.67" y2="488.50" />
<line class="grid" x1="973.33" y1="295.75" x2="973.33" y2="488.50" />
<line class="grid" x1="1150.00" y1="295.75" x2="1150.00" y2="488.50" />
<line class="axis" x1="90" y1="295.75" x2="90" y2="488.50" />
<line class="axis" x1="90" y1="488.50" x2="1150" y2="488.50" />
<path class="series" d="M 178.33 428.89 L 179.81 426.17 L 181.28 424.60 L 182.75 424.78 L 184.22 423.23 L 185.69 426.91 L 187.17 427.05 L 188.64 427.65 L 190.11 427.34 L 191.58 429.00 L 193.06 430.52 L 194.53 431.83 L 196.00 433.95 L 197.47 435.14 L 198.94 436.04 L 200.42 434.99 L 201.89 433.64 L 203.36 433.55 L 204.83 432.93 L 206.31 431.08 L 207.78 430.81 L 209.25 430.01 L 210.72 430.82 L 212.19 429.25 L 213.67 429.90 L 215.14 428.65 L 216.61 426.92 L 218.08 426.79 L 219.56 425.83 L 221.03 428.63 L 222.50 429.60 L 223.97 431.20 L 225.44 432.32 L 226.92 433.03 L 228.39 433.06 L 229.86 434.22 L 231.33 432.31 L 232.81 433.88 L 234.28 431.49 L 235.75 433.92 L 237.22 429.08 L 238.69 422.44 L 240.17 422.75 L 241.64 429.87 L 243.11 428.32 L 244.58 423.89 L 246.06 424.57 L 247.53 415.66 L 249.00 413.09 L 250.47 408.99 L 251.94 405.52 L 253.42 401.33 L 254.89 406.20 L 256.36 415.20 L 257.83 416.84 L 259.31 413.77 L 260.78 405.69 L 262.25 402.41 L 263.72 399.54 L 265.19 402.75 L 266.67 400.81 L 268.14 401.30 L 269.61 406.47 L 271.08 397.72 L 272.56 411.29 L 274.03 406.19 L 275.50 403.44 L 276.97 408.42 L 278.44 415.60 L 279.92 409.24 L 281.39 413.20 L 282.86 411.73 L 284.33 416.58 L 285.81 413.43 L 287.28 410.38 L 288.75 415.02 L 290.22 412.20 L 291.69 418.36 L 293.17 422.00 L 294.64 409.99 L 296.11 401.92 L 297.58 418.29 L 299.06 401.54 L 300.53 416.82 L 302.00 413.64 L 303.47 408.61 L 304.94 407.02 L 306.42 409.24 L 307.89 418.68 L 309.36 415.02 L 310.83 416.37 L 312.31 429.05 L 313.78 427.39 L 315.25 424.77 L 316.72 424.18 L 318.19 422.33 L 319.67 421.88 L 321.14 419.51 L 322.61 429.87 L 324.08 427.57 L 325.56 426.55 L 327.03 428.66 L 328.50 427.43 L 329.97 422.59 L 331.44 420.40 L 332.92 423.15 L 334.39 422.26 L 335.86 419.02 L 337.33 415.07 L 338.81 417.26 L 340.28 417.26 L 341.75 411.47 L 343.22 410.70 L 344.69 403.53 L 346.17 396.19 L 347.64 388.47 L 349.11 401.80 L 350.58 395.04 L 352.06 383.30 L 353.53 389.41 L 355.00 380.77 L 356.47 397.37 L 357.94 386.36 L 359.42 397.97 L 360.89 391.03 L 362.36 404.94 L 363.83 398.40 L 365.31 410.01 L 366.78 396.92 L 368.25 392.76 L 369.72 401.58 L 371.19 408.72 L 372.67 397.28 L 374.14 393.68 L 375.61 403.02 L 377.08 395.76 L 378.56 396.54 L 380.03 405.20 L 381.50 404.81 L 382.97 405.45 L 384.44 398.73 L 385.92 391.40 L 387.39 397.17 L 388.86 406.57 L 390.33 408.39 L 391.81 407.02 L 393.28 402.94 L 394.75 403.69 L 396.22 410.89 L 397.69 401.69 L 399.17 406.48 L 400.64 408.83 L 402.11 412.60 L 403.58 406.77 L 405.06 408.28 L 406.53 411.38 L 408.00 410.63 L 409.47 409.31 L 410.94 409.95 L 412.42 408.65 L 413.89 409.60 L 415.36 410.18 L 416.83 406.48 L 418.31 408.06 L 419.78 409.78 L 421.25 414.64 L 422.72 407.59 L 424.19 409.91 L 425.67 406.62 L 427.14 403.19 L 428.61 408.40 L 430.08 410.09 L 431.56 407.96 L 433.03 403.86 L 434.50 415.84 L 435.97 408.18 L 437.44 406.58 L 438.92 410.27 L 440.39 413.65 L 441.86 399.95 L 443.33 407.14 L 444.81 406.81 L 446.28 406.95 L 447.75 407.43 L 449.22 407.38 L 450.69 407.43 L 452.17 407.36 L 453.64 407.38 L 455.11 407.38 L 456.58 407.47 L 458.06 407.49 L 459.53 407.57 L 461.00 407.62 L 462.47 407.59 L 463.94 407.80 L 465.42 407.80 L 466.89 408.46 L 468.36 407.22 L 469.83 407.65 L 471.31 407.61 L 472.78 407.94 L 474.25 406.93 L 475.72 408.37 L 477.19 407.92 L 478.67 408.18 L 480.14 407.83 L 481.61 407.90 L 483.08 408.29 L 484.56 408.19 L 486.03 408.07 L 487.50 409.10 L 488.97 408.11 L 490.44 408.69 L 491.92 408.74 L 493.39 409.66 L 494.86 408.36 L 496.33 409.48 L 497.81 409.50 L 499.28 409.92 L 500.75 409.93 L 502.22 410.15 L 503.69 409.83 L 505.17 409.71 L 506.64 410.03 L 508.11 410.13 L 509.58 410.19 L 511.06 410.48 L 512.53 410.66 L 514.00 410.54 L 515.47 410.94 L 516.94 410.86 L 518.42 410.94 L 519.89 411.08 L 521.36 410.81 L 522.83 418.47 L 524.31 407.97 L 525.78 424.03 L 527.25 413.29 L 528.72 406.00 L 530.19 415.55 L 531.67 414.92 L 533.14 414.93 L 534.61 414.52 L 536.08 414.35 L 537.56 414.07 L 539.03 413.92 L 540.50 414.11 L 541.97 414.04 L 543.44 414.13 L 544.92 414.03 L 546.39 414.23 L 547.86 414.20 L 549.33 425.31 L 550.81 418.66 L 552.28 415.36 L 553.75 411.28 L 555.22 421.99 L 556.69 421.99 L 558.17 410.62 L 559.64 409.38 L 561.11 417.59 L 562.58 409.66 L 564.06 420.59 L 565.53 411.80 L 567.00 412.98 L 568.47 411.16 L 569.94 423.72 L 571.42 413.71 L 572.89 409.57 L 574.36 407.32 L 575.83 412.82 L 577.31 413.79 L 578.78 414.17 L 580.25 413.43 L 581.72 414.00 L 583.19 413.51 L 584.67 413.36 L 586.14 412.91 L 587.61 413.16 L 589.08 413.01 L 590.56 412.87 L 592.03 412.84 L 593.50 412.48 L 594.97 412.69 L 596.44 412.62 L 597.92 412.65 L 599.39 412.61 L 600.86 412.61 L 602.33 412.57 L 603.81 412.63 L 605.28 412.62 L 606.75 412.59 L 608.22 412.62 L 609.69 412.59 L 611.17 412.64 L 612.64 412.53 L 614.11 412.96 L 615.58 419.89 L 617.06 419.96 L 618.53 419.00 L 620.00 417.50 L 621.47 418.71 L 622.94 427.31 L 624.42 414.57 L 625.89 423.51 L 627.36 417.38 L 628.83 412.96 L 630.31 408.97 L 631.78 421.01 L 633.25 415.72 L 634.72 400.48 L 636.19 403.99 L 637.67 413.04 L 639.14 406.58 L 640.61 415.89 L 642.08 414.32 L 643.56 409.47 L 645.03 402.80 L 646.50 418.87 L 647.97 424.43 L 649.44 418.68 L 650.92 417.41 L 652.39 413.27 L 653.86 407.81 L 655.33 403.36 L 656.81 395.47 L 658.28 391.04 L 659.75 393.10 L 661.22 390.00 L 662.69 388.31 L 664.17 385.26 L 665.64 389.74 L 667.11 391.63 L 668.58 386.86 L 670.06 390.62 L 671.53 401.78 L 673.00 388.48 L 674.47 400.25 L 675.94 398.08 L 677.42 397.96 L 678.89 408.38 L 680.36 411.97 L 681.83 396.42 L 683.31 403.18 L 684.78 413.31 L 686.25 411.91 L 687.72 410.84 L 689.19 403.45 L 690.67 404.55 L 692.14 405.39 L 693.61 404.82 L 695.08 402.64 L 696.56 402.25 L 698.03 395.14 L 699.50 399.17 L 700.97 398.27 L 702.44 397.43 L 703.92 393.29 L 705.39 394.14 L 706.86 395.51 L 708.33 392.34 L 709.81 377.71 L 711.28 392.78 L 712.75 388.20 L 714.22 377.58 L 715.69 388.09 L 717.17 380.37 L 718.64 376.98 L 720.11 382.30 L 721.58 382.31 L 723.06 386.86 L 724.53 389.14 L 726.00 392.48 L 727.47 389.59 L 728.94 385.33 L 730.42 384.26 L 731.89 384.70 L 733.36 390.07 L 734.83 382.47 L 736.31 384.74 L 737.78 380.40 L 739.25 384.56 L 740.72 383.47 L 742.19 392.90 L 743.67 382.55 L 745.14 383.80 L 746.61 383.38 L 748.08 381.11 L 749.56 382.17 L 751.03 383.49 L 752.50 382.17 L 753.97 382.52 L 755.44 388.16 L 756.92 384.92 L 758.39 383.84 L 759.86 382.76 L 761.33 385.11 L 762.81 384.44 L 764.28 384.51 L 765.75 382.58 L 767.22 383.57 L 768.69 382.73 L 770.17 384.15 L 771.64 384.69 L 773.11 384.69 L 774.58 384.26 L 776.06 383.60 L 777.53 387.29 L 779.00 390.90 L 780.47 395.09 L 781.94 389.06 L 783.42 384.57 L 784.89 384.50 L 786.36 382.83 L 787.83 382.81" stroke="#2E7D32" />
<path class="series" d="M 178.33 441.04 L 179.81 440.79 L 181.28 439.69 L 182.75 438.77 L 184.22 437.81 L 185.69 439.93 L 187.17 439.59 L 188.64 445.35 L 190.11 440.18 L 191.58 441.75 L 193.06 441.54 L 194.53 441.92 L 196.00 442.93 L 197.47 442.44 L 198.94 443.06 L 200.42 438.72 L 201.89 439.84 L 203.36 438.40 L 204.83 436.10 L 206.31 438.54 L 207.78 442.43 L 209.25 443.47 L 210.72 442.12 L 212.19 438.31 L 213.67 437.68 L 215.14 438.33 L 216.61 439.85 L 218.08 442.63 L 219.56 439.57 L 221.03 440.04 L 222.50 439.08 L 223.97 440.91 L 225.44 439.20 L 226.92 443.73 L 228.39 444.15 L 229.86 444.70 L 231.33 444.99 L 232.81 449.13 L 234.28 452.27 L 235.75 450.55 L 237.22 445.90 L 238.69 451.11 L 240.17 456.76 L 241.64 450.75 L 243.11 451.74 L 244.58 451.41 L 246.06 449.68 L 247.53 449.49 L 249.00 442.60 L 250.47 441.00 L 251.94 447.28 L 253.42 442.58 L 254.89 446.10 L 256.36 445.77 L 257.83 445.66 L 259.31 444.55 L 260.78 452.11 L 262.25 457.68 L 263.72 454.01 L 265.19 451.53 L 266.67 448.75 L 268.14 438.66 L 269.61 447.84 L 271.08 451.00 L 272.56 444.62 L 274.03 445.92 L 275.50 453.47 L 276.97 456.01 L 278.44 451.25 L 279.92 448.37 L 281.39 449.80 L 282.86 451.05 L 284.33 450.20 L 285.81 453.83 L 287.28 453.25 L 288.75 449.32 L 290.22 449.12 L 291.69 451.59 L 293.17 452.74 L 294.64 449.23 L 296.11 446.87 L 297.58 457.95 L 299.06 451.73 L 300.53 449.03 L 302.00 451.60 L 303.47 449.69 L 304.94 451.13 L 306.42 455.43 L 307.89 452.99 L 309.36 453.02 L 310.83 454.69 L 312.31 456.24 L 313.78 456.30 L 315.25 455.98 L 316.72 460.99 L 318.19 455.02 L 319.67 454.98 L 321.14 442.56 L 322.61 446.09 L 324.08 437.25 L 325.56 446.74 L 327.03 443.23 L 328.50 441.12 L 329.97 443.26 L 331.44 452.69 L 332.92 442.50 L 334.39 441.73 L 335.86 435.88 L 337.33 442.04 L 338.81 431.88 L 340.28 431.88 L 341.75 428.72 L 343.22 427.59 L 344.69 442.03 L 346.17 435.43 L 347.64 436.93 L 349.11 448.79 L 350.58 446.76 L 352.06 447.72 L 353.53 438.04 L 355.00 434.87 L 356.47 439.68 L 357.94 437.26 L 359.42 439.96 L 360.89 435.00 L 362.36 438.62 L 363.83 442.11 L 365.31 439.92 L 366.78 431.17 L 368.25 444.56 L 369.72 448.94 L 371.19 428.40 L 372.67 432.31 L 374.14 443.71 L 375.61 432.79 L 377.08 436.34 L 378.56 443.81 L 380.03 430.65 L 381.50 433.11 L 382.97 434.89 L 384.44 432.31 L 385.92 450.36 L 387.39 450.01 L 388.86 438.54 L 390.33 438.78 L 391.81 444.90 L 393.28 443.41 L 394.75 436.67 L 396.22 439.82 L 397.69 437.92 L 399.17 441.64 L 400.64 440.56 L 402.11 443.31 L 403.58 439.10 L 405.06 440.07 L 406.53 438.33 L 408.00 443.00 L 409.47 442.70 L 410.94 440.23 L 412.42 444.18 L 413.89 445.73 L 415.36 446.29 L 416.83 443.25 L 418.31 445.25 L 419.78 445.46 L 421.25 443.93 L 422.72 443.39 L 424.19 445.19 L 425.67 446.51 L 427.14 448.49 L 428.61 446.32 L 430.08 446.15 L 431.56 445.32 L 433.03 445.97 L 434.50 450.01 L 435.97 449.35 L 437.44 448.35 L 438.92 447.21 L 440.39 446.42 L 441.86 447.83 L 443.33 445.99 L 444.81 445.27 L 446.28 446.07 L 447.75 444.84 L 449.22 446.78 L 450.69 446.40 L 452.17 446.15 L 453.64 446.16 L 455.11 445.61 L 456.58 446.12 L 458.06 445.99 L 459.53 446.22 L 461.00 446.12 L 462.47 445.97 L 463.94 446.26 L 465.42 445.87 L 466.89 446.58 L 468.36 445.69 L 469.83 446.06 L 471.31 446.02 L 472.78 446.71 L 474.25 445.02 L 475.72 446.31 L 477.19 445.94 L 478.67 446.26 L 480.14 446.23 L 481.61 445.96 L 483.08 446.28 L 484.56 445.93 L 486.03 445.89 L 487.50 446.97 L 488.97 445.75 L 490.44 446.86 L 491.92 446.17 L 493.39 446.25 L 494.86 446.88 L 496.33 446.76 L 497.81 446.88 L 499.28 445.70 L 500.75 446.65 L 502.22 446.99 L 503.69 446.23 L 505.17 446.43 L 506.64 446.61 L 508.11 446.53 L 509.58 446.79 L 511.06 446.33 L 512.53 446.55 L 514.00 446.49 L 515.47 446.46 L 516.94 446.57 L 518.42 446.55 L 519.89 446.66 L 521.36 446.43 L 522.83 449.32 L 524.31 444.36 L 525.78 446.92 L 527.25 449.57 L 528.72 446.67 L 530.19 447.01 L 531.67 446.48 L 533.14 446.93 L 534.61 446.71 L 536.08 447.53 L 537.56 447.06 L 539.03 447.64 L 540.50 447.27 L 541.97 447.43 L 543.44 447.42 L 544.92 447.40 L 546.39 447.36 L 547.86 447.29 L 549.33 447.54 L 550.81 445.11 L 552.28 444.93 L 553.75 444.64 L 555.22 443.38 L 556.69 443.38 L 558.17 443.62 L 559.64 444.19 L 561.11 440.61 L 562.58 446.91 L 564.06 440.37 L 565.53 442.87 L 567.00 449.22 L 568.47 444.67 L 569.94 438.33 L 571.42 447.30 L 572.89 449.52 L 574.36 449.02 L 575.83 444.46 L 577.31 445.20 L 578.78 444.89 L 580.25 445.18 L 581.72 445.98 L 583.19 445.60 L 584.67 445.20 L 586.14 445.55 L 587.61 445.44 L 589.08 445.54 L 590.56 445.48 L 592.03 445.52 L 593.50 445.61 L 594.97 445.61 L 596.44 445.62 L 597.92 445.42 L 599.39 445.64 L 600.86 445.68 L 602.33 445.51 L 603.81 445.60 L 605.28 445.60 L 606.75 445.57 L 608.22 445.62 L 609.69 445.64 L 611.17 445.69 L 612.64 445.67 L 614.11 445.29 L 615.58 440.29 L 617.06 440.47 L 618.53 447.17 L 620.00 440.95 L 621.47 444.42 L 622.94 438.86 L 624.42 445.51 L 625.89 445.61 L 627.36 440.57 L 628.83 448.51 L 630.31 452.71 L 631.78 442.31 L 633.25 439.45 L 634.72 444.44 L 636.19 444.05 L 637.67 444.46 L 639.14 449.68 L 640.61 436.20 L 642.08 441.05 L 643.56 433.19 L 645.03 459.16 L 646.50 426.85 L 647.97 443.47 L 649.44 448.77 L 650.92 451.01 L 652.39 451.58 L 653.86 444.73 L 655.33 443.55 L 656.81 450.88 L 658.28 451.61 L 659.75 449.63 L 661.22 451.35 L 662.69 442.03 L 664.17 444.51 L 665.64 440.19 L 667.11 436.51 L 668.58 439.61 L 670.06 440.58 L 671.53 440.78 L 673.00 436.93 L 674.47 435.09 L 675.94 438.05 L 677.42 437.94 L 678.89 436.62 L 680.36 435.85 L 681.83 447.31 L 683.31 450.83 L 684.78 445.50 L 686.25 447.73 L 687.72 451.23 L 689.19 438.08 L 690.67 433.26 L 692.14 449.79 L 693.61 445.47 L 695.08 449.09 L 696.56 449.54 L 698.03 443.00 L 699.50 438.11 L 700.97 440.41 L 702.44 446.79 L 703.92 436.31 L 705.39 444.19 L 706.86 442.57 L 708.33 449.31 L 709.81 449.63 L 711.28 449.12 L 712.75 445.48 L 714.22 451.90 L 715.69 440.11 L 717.17 447.60 L 718.64 445.92 L 720.11 448.11 L 721.58 448.44 L 723.06 455.06 L 724.53 454.17 L 726.00 453.25 L 727.47 452.26 L 728.94 443.96 L 730.42 439.73 L 731.89 450.97 L 733.36 451.28 L 734.83 449.82 L 736.31 454.06 L 737.78 456.74 L 739.25 458.65 L 740.72 454.64 L 742.19 456.99 L 743.67 443.78 L 745.14 445.70 L 746.61 440.45 L 748.08 443.82 L 749.56 448.49 L 751.03 438.56 L 752.50 445.91 L 753.97 443.27 L 755.44 444.97 L 756.92 444.61 L 758.39 452.58 L 759.86 453.48 L 761.33 453.20 L 762.81 454.77 L 764.28 451.89 L 765.75 452.71 L 767.22 450.07 L 768.69 441.91 L 770.17 449.69 L 771.64 446.94 L 773.11 446.94 L 774.58 451.25 L 776.06 451.09 L 777.53 426.89 L 779.00 439.02 L 780.47 447.20 L 781.94 445.25 L 783.42 443.94 L 784.89 438.61 L 786.36 440.90 L 787.83 442.16" stroke="#6A1B9A" />
<line x1="900.00" y1="307.75" x2="918.00" y2="307.75" stroke="#2E7D32" stroke-width="3" />
<text class="small" x="924.00" y="311.75">pitch</text>
<line x1="900.00" y1="323.75" x2="918.00" y2="323.75" stroke="#6A1B9A" stroke-width="3" />
<text class="small" x="924.00" y="327.75">roll</text>
<text x="90" y="500.50" font-size="14" font-weight="700">Aceleração (magnitude) (u.a.)</text>
<rect class="event" x="443.33" y="506.50" width="79.50" height="192.75" />
<line class="eventline" x1="443.33" y1="506.50" x2="443.33" y2="699.25" />
<line class="eventline" x1="522.83" y1="506.50" x2="522.83" y2="699.25" />
<line class="grid" x1="90" y1="699.25" x2="1150" y2="699.25" />
<text class="small" x="80" y="703.25" text-anchor="end">0.00</text>
<line class="grid" x1="90" y1="660.70" x2="1150" y2="660.70" />
<text class="small" x="80" y="664.70" text-anchor="end">0.50</text>
<line class="grid" x1="90" y1="622.15" x2="1150" y2="622.15" />
<text class="small" x="80" y="626.15" text-anchor="end">1.00</text>
<line class="grid" x1="90" y1="583.60" x2="1150" y2="583.60" />
<text class="small" x="80" y="587.60" text-anchor="end">1.50</text>
<line class="grid" x1="90" y1="545.05" x2="1150" y2="545.05" />
<text class="small" x="80" y="549.05" text-anchor="end">2.00</text>
<line class="grid" x1="90" y1="506.50" x2="1150" y2="506.50" />
<text class="small" x="80" y="510.50" text-anchor="end">2.50</text>
<line class="grid" x1="90.00" y1="506.50" x2="90.00" y2="699.25" />
<line class="grid" x1="266.67" y1="506.50" x2="266.67" y2="699.25" />
<line class="grid" x1="443.33" y1="506.50" x2="443.33" y2="699.25" />
<line class="grid" x1="620.00" y1="506.50" x2="620.00" y2="699.25" />
<line class="grid" x1="796.67" y1="506.50" x2="796.67" y2="699.25" />
<line class="grid" x1="973.33" y1="506.50" x2="973.33" y2="699.25" />
<line class="grid" x1="1150.00" y1="506.50" x2="1150.00" y2="699.25" />
<line class="axis" x1="90" y1="506.50" x2="90" y2="699.25" />
<line class="axis" x1="90" y1="699.25" x2="1150" y2="699.25" />
<path class="series" d="M 178.33 692.72 L 179.81 695.55 L 181.28 691.44 L 182.75 684.34 L 184.22 683.01 L 185.69 692.45 L 187.17 688.06 L 188.64 689.99 L 190.11 691.26 L 191.58 692.35 L 193.06 694.92 L 194.53 695.90 L 196.00 695.74 L 197.47 695.74 L 198.94 691.27 L 200.42 688.55 L 201.89 697.82 L 203.36 694.46 L 204.83 691.99 L 206.31 697.40 L 207.78 689.75 L 209.25 689.18 L 210.72 693.76 L 212.19 687.43 L 213.67 691.05 L 215.14 696.57 L 216.61 688.49 L 218.08 692.32 L 219.56 695.96 L 221.03 693.57 L 222.50 694.62 L 223.97 695.68 L 225.44 697.18 L 226.92 696.25 L 228.39 695.20 L 229.86 687.04 L 231.33 688.85 L 232.81 693.97 L 234.28 696.86 L 235.75 684.42 L 237.22 687.27 L 238.69 661.33 L 240.17 686.63 L 241.64 682.60 L 243.11 695.39 L 244.58 697.53 L 246.06 677.91 L 247.53 683.75 L 249.00 678.41 L 250.47 682.66 L 251.94 688.41 L 253.42 673.67 L 254.89 673.33 L 256.36 684.90 L 257.83 672.60 L 259.31 673.94 L 260.78 681.97 L 262.25 664.01 L 263.72 652.66 L 265.19 658.86 L 266.67 665.26 L 268.14 661.29 L 269.61 673.84 L 271.08 654.46 L 272.56 678.33 L 274.03 686.46 L 275.50 685.36 L 276.97 688.28 L 278.44 675.18 L 279.92 683.07 L 281.39 685.47 L 282.86 694.40 L 284.33 684.17 L 285.81 689.55 L 287.28 679.69 L 288.75 694.10 L 290.22 689.32 L 291.69 682.12 L 293.17 675.68 L 294.64 673.96 L 296.11 654.46 L 297.58 654.12 L 299.06 660.16 L 300.53 665.93 L 302.00 681.82 L 303.47 689.82 L 304.94 682.00 L 306.42 680.89 L 307.89 673.28 L 309.36 677.84 L 310.83 678.06 L 312.31 676.75 L 313.78 687.46 L 315.25 677.80 L 316.72 692.77 L 318.19 672.49 L 319.67 668.08 L 321.14 668.08 L 322.61 658.74 L 324.08 660.65 L 325.56 669.51 L 327.03 695.78 L 328.50 685.23 L 329.97 695.52 L 331.44 684.02 L 332.92 665.55 L 334.39 683.43 L 335.86 680.24 L 337.33 668.12 L 338.81 665.03 L 340.28 667.58 L 341.75 681.74 L 343.22 680.11 L 344.69 657.39 L 346.17 631.90 L 347.64 665.99 L 349.11 661.55 L 350.58 652.23 L 352.06 623.02 L 353.53 615.87 L 355.00 645.12 L 356.47 688.56 L 357.94 665.99 L 359.42 686.24 L 360.89 662.95 L 362.36 663.70 L 363.83 686.32 L 365.31 655.60 L 366.78 663.42 L 368.25 641.61 L 369.72 678.63 L 371.19 680.45 L 372.67 657.48 L 374.14 681.82 L 375.61 692.57 L 377.08 664.13 L 378.56 672.83 L 380.03 688.33 L 381.50 682.42 L 382.97 684.05 L 384.44 650.31 L 385.92 642.61 L 387.39 667.54 L 388.86 677.73 L 390.33 693.88 L 391.81 676.91 L 393.28 676.83 L 394.75 683.67 L 396.22 693.65 L 397.69 676.89 L 399.17 694.73 L 400.64 694.90 L 402.11 693.05 L 403.58 672.92 L 405.06 687.97 L 406.53 690.36 L 408.00 689.02 L 409.47 689.16 L 410.94 685.52 L 412.42 695.33 L 413.89 689.48 L 415.36 695.27 L 416.83 694.02 L 418.31 695.82 L 419.78 678.48 L 421.25 692.47 L 422.72 695.54 L 424.19 688.24 L 425.67 690.96 L 427.14 694.00 L 428.61 684.42 L 430.08 691.25 L 431.56 692.12 L 433.03 669.21 L 434.50 689.60 L 435.97 688.02 L 437.44 690.54 L 438.92 681.20 L 440.39 690.95 L 441.86 653.29 L 443.33 653.29 L 444.81 692.39 L 446.28 692.95 L 447.75 693.34 L 449.22 697.08 L 450.69 695.75 L 452.17 698.58 L 453.64 697.29 L 455.11 698.48 L 456.58 698.96 L 458.06 698.87 L 459.53 698.44 L 461.00 698.30 L 462.47 698.97 L 463.94 697.19 L 465.42 698.89 L 466.89 698.13 L 468.36 696.24 L 469.83 697.33 L 471.31 697.51 L 472.78 696.98 L 474.25 697.28 L 475.72 693.92 L 477.19 695.75 L 478.67 697.12 L 480.14 697.17 L 481.61 697.83 L 483.08 696.58 L 484.56 694.86 L 486.03 694.88 L 487.50 694.31 L 488.97 698.62 L 490.44 696.90 L 491.92 698.72 L 493.39 696.83 L 494.86 692.39 L 496.33 697.75 L 497.81 697.85 L 499.28 696.01 L 500.75 694.15 L 502.22 696.52 L 503.69 698.08 L 505.17 697.90 L 506.64 699.03 L 508.11 697.40 L 509.58 696.93 L 511.06 697.32 L 512.53 698.36 L 514.00 693.59 L 515.47 693.62 L 516.94 698.45 L 518.42 698.31 L 519.89 698.33 L 521.36 695.52 L 522.83 676.33 L 524.31 670.62 L 525.78 675.38 L 527.25 692.87 L 528.72 659.47 L 530.19 697.50 L 531.67 698.15 L 533.14 696.77 L 534.61 696.63 L 536.08 697.07 L 537.56 698.07 L 539.03 694.90 L 540.50 695.49 L 541.97 697.80 L 543.44 697.88 L 544.92 698.52 L 546.39 698.72 L 547.86 697.86 L 549.33 673.67 L 550.81 685.64 L 552.28 685.10 L 553.75 672.88 L 555.22 678.13 L 556.69 679.23 L 558.17 685.81 L 559.64 682.06 L 561.11 662.77 L 562.58 686.28 L 564.06 681.92 L 565.53 679.53 L 567.00 691.35 L 568.47 691.35 L 569.94 662.80 L 571.42 684.46 L 572.89 677.53 L 574.36 677.32 L 575.83 687.37 L 577.31 694.12 L 578.78 694.95 L 580.25 697.13 L 581.72 696.67 L 583.19 698.58 L 584.67 697.71 L 586.14 697.39 L 587.61 698.18 L 589.08 698.27 L 590.56 698.32 L 592.03 698.17 L 593.50 697.43 L 594.97 695.25 L 596.44 698.17 L 597.92 698.11 L 599.39 698.70 L 600.86 698.73 L 602.33 698.45 L 603.81 698.50 L 605.28 698.71 L 606.75 698.66 L 608.22 698.78 L 609.69 699.10 L 611.17 699.16 L 612.64 698.87 L 614.11 696.48 L 615.58 680.67 L 617.06 689.63 L 618.53 690.28 L 620.00 687.07 L 621.47 680.12 L 622.94 664.41 L 624.42 667.46 L 625.89 683.10 L 627.36 674.06 L 628.83 675.24 L 630.31 683.61 L 631.78 669.82 L 633.25 670.50 L 634.72 649.36 L 636.19 669.68 L 637.67 689.16 L 639.14 676.58 L 640.61 664.10 L 642.08 660.69 L 643.56 658.04 L 645.03 679.86 L 646.50 649.28 L 647.97 672.30 L 649.44 675.47 L 650.92 664.88 L 652.39 668.57 L 653.86 678.89 L 655.33 661.39 L 656.81 641.72 L 658.28 681.90 L 659.75 667.73 L 661.22 670.50 L 662.69 674.70 L 664.17 668.64 L 665.64 669.75 L 667.11 669.14 L 668.58 672.89 L 670.06 688.69 L 671.53 677.20 L 673.00 666.67 L 674.47 657.12 L 675.94 661.40 L 677.42 677.71 L 678.89 679.71 L 680.36 666.12 L 681.83 665.10 L 683.31 666.34 L 684.78 669.22 L 686.25 677.30 L 687.72 678.87 L 689.19 655.74 L 690.67 664.83 L 692.14 664.83 L 693.61 676.76 L 695.08 661.70 L 696.56 639.48 L 698.03 663.90 L 699.50 687.19 L 700.97 666.83 L 702.44 653.64 L 703.92 652.53 L 705.39 673.39 L 706.86 667.10 L 708.33 681.81 L 709.81 678.82 L 711.28 660.28 L 712.75 662.26 L 714.22 674.54 L 715.69 674.04 L 717.17 686.82 L 718.64 673.55 L 720.11 672.20 L 721.58 667.93 L 723.06 654.14 L 724.53 693.03 L 726.00 663.65 L 727.47 670.63 L 728.94 688.96 L 730.42 678.80 L 731.89 679.41 L 733.36 676.73 L 734.83 682.46 L 736.31 678.27 L 737.78 689.80 L 739.25 652.11 L 740.72 677.55 L 742.19 679.25 L 743.67 669.03 L 745.14 675.06 L 746.61 670.82 L 748.08 686.91 L 749.56 685.92 L 751.03 684.13 L 752.50 692.44 L 753.97 689.69 L 755.44 688.17 L 756.92 682.24 L 758.39 680.34 L 759.86 690.89 L 761.33 685.94 L 762.81 685.94 L 764.28 688.54 L 765.75 691.25 L 767.22 684.25 L 768.69 679.48 L 770.17 686.39 L 771.64 683.64 L 773.11 682.80 L 774.58 681.82 L 776.06 650.61 L 777.53 654.86 L 779.00 669.89 L 780.47 692.01 L 781.94 685.67 L 783.42 679.73 L 784.89 691.54 L 786.36 692.73 L 787.83 694.61" stroke="#FB8C00" />
<text x="90" y="711.25" font-size="14" font-weight="700">Giroscópio (magnitude) (u.a.)</text>
<rect class="event" x="443.33" y="717.25" width="79.50" height="192.75" />
<line class="eventline" x1="443.33" y1="717.25" x2="443.33" y2="910.00" />
<line class="eventline" x1="522.83" y1="717.25" x2="522.83" y2="910.00" />
<line class="grid" x1="90" y1="910.00" x2="1150" y2="910.00" />
<text class="small" x="80" y="914.00" text-anchor="end">0.00</text>
<line class="grid" x1="90" y1="871.45" x2="1150" y2="871.45" />
<text class="small" x="80" y="875.45" text-anchor="end">0.05</text>
<line class="grid" x1="90" y1="832.90" x2="1150" y2="832.90" />
<text class="small" x="80" y="836.90" text-anchor="end">0.10</text>
<line class="grid" x1="90" y1="794.35" x2="1150" y2="794.35" />
<text class="small" x="80" y="798.35" text-anchor="end">0.15</text>
<line class="grid" x1="90" y1="755.80" x2="1150" y2="755.80" />
<text class="small" x="80" y="759.80" text-anchor="end">0.20</text>
<line class="grid" x1="90" y1="717.25" x2="1150" y2="717.25" />
<text class="small" x="80" y="721.25" text-anchor="end">0.25</text>
<line class="grid" x1="90.00" y1="717.25" x2="90.00" y2="910.00" />
<line class="grid" x1="266.67" y1="717.25" x2="266.67" y2="910.00" />
<line class="grid" x1="443.33" y1="717.25" x2="443.33" y2="910.00" />
<line class="grid" x1="620.00" y1="717.25" x2="620.00" y2="910.00" />
<line class="grid" x1="796.67" y1="717.25" x2="796.67" y2="910.00" />
<line class="grid" x1="973.33" y1="717.25" x2="973.33" y2="910.00" />
<line class="grid" x1="1150.00" y1="717.25" x2="1150.00" y2="910.00" />
<line class="axis" x1="90" y1="717.25" x2="90" y2="910.00" />
<line class="axis" x1="90" y1="910.00" x2="1150" y2="910.00" />
<path class="series" d="M 178.33 899.60 L 179.81 899.39 L 181.28 897.00 L 182.75 898.44 L 184.22 897.34 L 185.69 902.24 L 187.17 895.73 L 188.64 895.89 L 190.11 893.63 L 191.58 897.38 L 193.06 896.62 L 194.53 894.68 L 196.00 900.23 L 197.47 900.23 L 198.94 906.33 L 200.42 898.45 L 201.89 902.17 L 203.36 899.98 L 204.83 903.89 L 206.31 901.11 L 207.78 904.84 L 209.25 906.36 L 210.72 903.17 L 212.19 897.67 L 213.67 903.17 L 215.14 895.61 L 216.61 892.13 L 218.08 895.84 L 219.56 896.92 L 221.03 895.72 L 222.50 895.96 L 223.97 896.32 L 225.44 896.72 L 226.92 898.21 L 228.39 897.94 L 229.86 900.27 L 231.33 895.64 L 232.81 898.71 L 234.28 900.76 L 235.75 896.49 L 237.22 891.41 L 238.69 902.24 L 240.17 887.25 L 241.64 868.43 L 243.11 874.32 L 244.58 865.30 L 246.06 867.52 L 247.53 876.65 L 249.00 891.98 L 250.47 892.91 L 251.94 862.18 L 253.42 864.89 L 254.89 894.43 L 256.36 892.65 L 257.83 884.22 L 259.31 887.64 L 260.78 896.87 L 262.25 873.33 L 263.72 879.05 L 265.19 877.21 L 266.67 887.08 L 268.14 880.09 L 269.61 876.43 L 271.08 900.07 L 272.56 908.01 L 274.03 898.15 L 275.50 887.32 L 276.97 887.01 L 278.44 896.99 L 279.92 892.65 L 281.39 891.37 L 282.86 891.86 L 284.33 887.95 L 285.81 901.48 L 287.28 902.03 L 288.75 902.18 L 290.22 902.22 L 291.69 898.10 L 293.17 897.49 L 294.64 896.52 L 296.11 891.10 L 297.58 877.53 L 299.06 878.72 L 300.53 868.21 L 302.00 868.76 L 303.47 864.71 L 304.94 868.78 L 306.42 873.74 L 307.89 866.92 L 309.36 857.22 L 310.83 857.13 L 312.31 866.95 L 313.78 861.22 L 315.25 846.07 L 316.72 840.79 L 318.19 847.51 L 319.67 851.16 L 321.14 851.16 L 322.61 851.43 L 324.08 858.83 L 325.56 864.90 L 327.03 878.51 L 328.50 886.25 L 329.97 884.05 L 331.44 874.99 L 332.92 848.85 L 334.39 839.24 L 335.86 838.87 L 337.33 827.76 L 338.81 814.03 L 340.28 796.72 L 341.75 811.20 L 343.22 792.10 L 344.69 765.90 L 346.17 768.92 L 347.64 760.00 L 349.11 746.91 L 350.58 762.29 L 352.06 776.96 L 353.53 800.79 L 355.00 817.73 L 356.47 821.30 L 357.94 831.54 L 359.42 834.56 L 360.89 846.11 L 362.36 867.25 L 363.83 892.55 L 365.31 890.02 L 366.78 881.25 L 368.25 889.84 L 369.72 869.24 L 371.19 829.68 L 372.67 833.39 L 374.14 809.85 L 375.61 782.53 L 377.08 799.37 L 378.56 800.29 L 380.03 808.84 L 381.50 806.87 L 382.97 789.74 L 384.44 799.75 L 385.92 842.40 L 387.39 897.90 L 388.86 900.49 L 390.33 906.16 L 391.81 902.76 L 393.28 898.29 L 394.75 906.17 L 396.22 904.75 L 397.69 900.94 L 399.17 896.75 L 400.64 893.27 L 402.11 897.62 L 403.58 896.41 L 405.06 892.46 L 406.53 882.85 L 408.00 884.77 L 409.47 877.18 L 410.94 871.89 L 412.42 873.08 L 413.89 881.92 L 415.36 891.51 L 416.83 901.39 L 418.31 903.30 L 419.78 895.80 L 421.25 903.23 L 422.72 903.31 L 424.19 903.75 L 425.67 905.29 L 427.14 902.80 L 428.61 904.62 L 430.08 908.99 L 431.56 905.40 L 433.03 896.34 L 434.50 905.76 L 435.97 906.82 L 437.44 907.72 L 438.92 907.09 L 440.39 907.11 L 441.86 905.09 L 443.33 905.09 L 444.81 907.78 L 446.28 909.14 L 447.75 908.41 L 449.22 908.73 L 450.69 909.06 L 452.17 908.94 L 453.64 909.07 L 455.11 909.07 L 456.58 908.93 L 458.06 908.71 L 459.53 908.74 L 461.00 908.95 L 462.47 908.88 L 463.94 908.74 L 465.42 909.03 L 466.89 908.58 L 468.36 909.23 L 469.83 908.77 L 471.31 909.18 L 472.78 909.14 L 474.25 907.93 L 475.72 908.38 L 477.19 908.99 L 478.67 909.14 L 480.14 908.69 L 481.61 908.79 L 483.08 909.17 L 484.56 907.48 L 486.03 909.04 L 487.50 905.86 L 488.97 909.20 L 490.44 908.58 L 491.92 908.57 L 493.39 907.67 L 494.86 908.82 L 496.33 908.57 L 497.81 908.01 L 499.28 907.28 L 500.75 909.31 L 502.22 908.71 L 503.69 908.96 L 505.17 909.10 L 506.64 907.99 L 508.11 908.95 L 509.58 907.79 L 511.06 908.85 L 512.53 908.20 L 514.00 908.02 L 515.47 908.61 L 516.94 908.67 L 518.42 908.81 L 519.89 908.74 L 521.36 908.01 L 522.83 900.30 L 524.31 905.10 L 525.78 903.66 L 527.25 901.84 L 528.72 905.98 L 530.19 908.07 L 531.67 909.03 L 533.14 908.65 L 534.61 908.62 L 536.08 908.37 L 537.56 908.84 L 539.03 908.63 L 540.50 908.06 L 541.97 908.75 L 543.44 908.77 L 544.92 908.77 L 546.39 908.78 L 547.86 909.15 L 549.33 902.52 L 550.81 903.04 L 552.28 905.16 L 553.75 903.54 L 555.22 897.02 L 556.69 893.64 L 558.17 897.95 L 559.64 894.73 L 561.11 899.75 L 562.58 885.16 L 564.06 869.79 L 565.53 872.85 L 567.00 885.35 L 568.47 885.35 L 569.94 876.71 L 571.42 864.60 L 572.89 863.97 L 574.36 906.48 L 575.83 908.92 L 577.31 909.54 L 578.78 909.13 L 580.25 909.08 L 581.72 908.84 L 583.19 909.60 L 584.67 909.10 L 586.14 909.38 L 587.61 909.06 L 589.08 909.12 L 590.56 909.17 L 592.03 909.28 L 593.50 909.15 L 594.97 908.88 L 596.44 908.66 L 597.92 908.87 L 599.39 908.88 L 600.86 908.93 L 602.33 908.90 L 603.81 908.87 L 605.28 908.95 L 606.75 908.86 L 608.22 909.82 L 609.69 909.76 L 611.17 909.81 L 612.64 909.17 L 614.11 909.05 L 615.58 891.75 L 617.06 877.44 L 618.53 869.10 L 620.00 867.85 L 621.47 874.30 L 622.94 857.37 L 624.42 853.14 L 625.89 851.92 L 627.36 841.45 L 628.83 838.81 L 630.31 840.18 L 631.78 831.03 L 633.25 812.74 L 634.72 818.02 L 636.19 828.55 L 637.67 816.14 L 639.14 805.34 L 640.61 806.43 L 642.08 804.15 L 643.56 797.59 L 645.03 803.79 L 646.50 790.07 L 647.97 794.31 L 649.44 804.68 L 650.92 819.61 L 652.39 811.41 L 653.86 796.55 L 655.33 802.31 L 656.81 797.91 L 658.28 797.80 L 659.75 801.05 L 661.22 792.75 L 662.69 795.11 L 664.17 793.99 L 665.64 820.70 L 667.11 856.57 L 668.58 861.83 L 670.06 878.89 L 671.53 885.58 L 673.00 872.58 L 674.47 838.68 L 675.94 851.48 L 677.42 853.07 L 678.89 845.42 L 680.36 841.63 L 681.83 860.34 L 683.31 876.89 L 684.78 869.13 L 686.25 878.05 L 687.72 870.78 L 689.19 863.37 L 690.67 869.60 L 692.14 869.60 L 693.61 874.37 L 695.08 870.50 L 696.56 880.89 L 698.03 875.14 L 699.50 888.74 L 700.97 880.21 L 702.44 895.90 L 703.92 889.32 L 705.39 876.90 L 706.86 895.00 L 708.33 891.10 L 709.81 894.61 L 711.28 889.48 L 712.75 886.28 L 714.22 893.80 L 715.69 879.81 L 717.17 881.15 L 718.64 882.75 L 720.11 898.27 L 721.58 898.53 L 723.06 890.44 L 724.53 896.39 L 726.00 903.94 L 727.47 907.28 L 728.94 887.22 L 730.42 904.15 L 731.89 903.44 L 733.36 896.08 L 734.83 899.32 L 736.31 892.45 L 737.78 884.22 L 739.25 871.99 L 740.72 881.86 L 742.19 889.09 L 743.67 891.40 L 745.14 890.31 L 746.61 873.65 L 748.08 885.47 L 749.56 888.52 L 751.03 892.42 L 752.50 902.53 L 753.97 905.15 L 755.44 905.79 L 756.92 902.77 L 758.39 889.07 L 759.86 898.39 L 761.33 892.99 L 762.81 897.54 L 764.28 895.04 L 765.75 899.66 L 767.22 896.66 L 768.69 885.81 L 770.17 905.92 L 771.64 893.56 L 773.11 883.59 L 774.58 877.41 L 776.06 893.04 L 777.53 864.18 L 779.00 884.62 L 780.47 900.14 L 781.94 892.15 L 783.42 885.23 L 784.89 881.66 L 786.36 890.82 L 787.83 896.99" stroke="#E53935" />
<text x="620.00" y="952" font-size="15" text-anchor="middle">minutos (relativo ao início do evento)</text>
<text class="small" x="90.00" y="936" text-anchor="middle">-4.00</text>
<text class="small" x="266.67" y="936" text-anchor="middle">-2.00</text>
<text class="small" x="443.33" y="936" text-anchor="middle">0.00</text>
<text class="small" x="620.00" y="936" text-anchor="middle">2.00</text>
<text class="small" x="796.67" y="936" text-anchor="middle">4.00</text>
<text class="small" x="973.33" y="936" text-anchor="middle">6.00</text>
<text class="small" x="1150.00" y="936" text-anchor="middle">8.00</text>
</svg>