<?xml version="1.0" encoding="UTF-8"?>
<svg xmlns="http://www.w3.org/2000/svg" width="1180" height="980" viewBox="0 0 1180 980">
<style>
text { font-family: -apple-system, BlinkMacSystemFont, 'Segoe UI', Roboto, Helvetica, Arial, sans-serif; fill: #111; }
.small { font-size: 12px; fill: #222; }
.title { font-size: 18px; font-weight: 700; }
.axis { stroke: #111; stroke-width: 1.4; }
.grid { stroke: #E6E6E6; stroke-width: 1; }
.event { fill: #FFEB3B; fill-opacity: 0.18; }
.eventline { stroke: #F9A825; stroke-width: 1.2; stroke-dasharray: 4 3; }
.series { fill: none; stroke-width: 1.8; }
</style>
<text class="title" x="90" y="34">ciclo 2 — espera_basculamento — 2025-12-12T13:37:02-03:00 → 2025-12-12T13:37:30-03:00 (span 28s, dur 29s)</text>
<text class="small" x="90" y="54">GPS: -11.693824,-47.165738  hotspot: -11.694,-47.166</text>
<text class="small" x="90" y="70">Janela: -3.00 → 3.47 min (relativo ao início do evento)</text>
<text x="90" y="79.00" font-size="14" font-weight="700">Velocidade (km/h)</text>
<rect class="event" x="443.33" y="85.00" width="41.22" height="192.75" />
<line class="eventline" x1="443.33" y1="85.00" x2="443.33" y2="277.75" />
<line class="eventline" x1="484.56" y1="85.00" x2="484.56" y2="277.75" />
<line class="grid" x1="90" y1="277.75" x2="1150" y2="277.75" />
<text class="small" x="80" y="281.75" text-anchor="end">0.00</text>
<line class="grid" x1="90" y1="239.20" x2="1150" y2="239.20" />
<text class="small" x="80" y="243.20" text-anchor="end">10.0</text>
<line class="grid" x1="90" y1="200.65" x2="1150" y2="200.65" />
<text class="small" x="80" y="204.65" text-anchor="end">20.0</text>
<line class="grid" x1="90" y1="162.10" x2="1150" y2="162.10" />
<text class="small" x="80" y="166.10" text-anchor="end">30.0</text>
<line class="grid" x1="90" y1="123.55" x2="1150" y2="123.55" />
<text class="small" x="80" y="127.55" text-anchor="end">40.0</text>
<line class="grid" x1="90" y1="85.00" x2="1150" y2="85.00" />
<text class="small" x="80" y="89.00" text-anchor="end">50.0</text>
<line class="grid" x1="90.00" y1="85.00" x2="90.00" y2="277.75" />
<line class="grid" x1="266.67" y1="85.00" x2="266.67" y2="277.75" />
<line class="grid" x1="443.33" y1="85.00" x2="443.33" y2="277.75" />
<line class="grid" x1="620.00" y1="85.00" x2="620.00" y2="277.75" />
<line class="grid" x1="796.67" y1="85.00" x2="796.67" y2="277.75" />
<line class="grid" x1="973.33" y1="85.00" x2="973.33" y2="277.75" />
<line class="grid" x1="1150.00" y1="85.00" x2="1150.00" y2="277.75" />
<line class="axis" x1="90" y1="85.00" x2="90" y2="277.75" />
<line class="axis" x1="90" y1="277.75" x2="1150" y2="277.75" />
<path class="series" d="M 178.33 242.22 L 179.81 245.41 L 181.28 244.86 L 182.75 240.00 L 184.22 235.28 L 185.69 239.45 L 187.17 239.03 L 188.64 238.48 L 190.11 241.39 L 191.58 245.28 L 193.06 243.75 L 194.53 246.52 L 196.00 242.08 L 197.47 236.95 L 198.94 235.42 L 200.42 237.92 L 201.89 240.28 L 203.36 240.83 L 204.83 239.45 L 206.31 239.17 L 207.78 242.50 L 209.25 241.11 L 210.72 243.06 L 212.19 246.25 L 213.67 246.39 L 215.14 246.39 L 216.61 247.91 L 218.08 245.69 L 219.56 245.41 L 221.03 245.00 L 222.50 245.00 L 223.97 259.57 L 225.44 257.77 L 226.92 259.29 L 228.39 258.46 L 229.86 261.79 L 231.33 258.46 L 232.81 258.32 L 234.28 268.73 L 235.75 251.94 L 237.22 255.55 L 238.69 258.04 L 240.17 254.99 L 241.64 255.41 L 243.11 257.77 L 244.58 256.79 L 246.06 256.38 L 247.53 258.46 L 249.00 257.90 L 250.47 255.55 L 251.94 254.99 L 253.42 256.38 L 254.89 259.01 L 256.36 270.95 L 257.83 277.75 L 259.31 277.75 L 260.78 277.75 L 262.25 277.75 L 263.72 271.09 L 265.19 270.12 L 266.67 270.12 L 268.14 268.04 L 269.61 267.06 L 271.08 267.90 L 272.56 268.73 L 274.03 267.90 L 275.50 267.20 L 276.97 269.28 L 278.44 269.98 L 279.92 270.39 L 281.39 269.42 L 282.86 269.84 L 284.33 271.09 L 285.81 271.50 L 287.28 269.70 L 288.75 269.01 L 290.22 269.84 L 291.69 271.92 L 293.17 272.34 L 294.64 273.31 L 296.11 273.31 L 297.58 271.23 L 299.06 273.03 L 300.53 274.56 L 302.00 274.70 L 303.47 274.97 L 304.94 277.75 L 306.42 277.75 L 307.89 277.75 L 309.36 274.84 L 310.83 271.78 L 312.31 277.75 L 313.78 277.75 L 315.25 277.75 L 316.72 277.75 L 318.19 277.75 L 319.67 277.75 L 321.14 277.75 L 322.61 277.75 L 324.08 277.75 L 325.56 277.75 L 327.03 277.75 L 328.50 277.75 L 329.97 277.75 L 331.44 277.75 L 332.92 277.75 L 334.39 277.75 L 335.86 277.75 L 337.33 277.75 L 338.81 277.75 L 340.28 277.75 L 341.75 277.75 L 343.22 277.75 L 344.69 277.75 L 346.17 277.75 L 347.64 277.75 L 349.11 277.75 L 350.58 277.75 L 352.06 277.75 L 353.53 277.75 L 355.00 277.75 L 356.47 277.75 L 357.94 277.75 L 359.42 277.75 L 360.89 277.75 L 362.36 277.75 L 363.83 277.75 L 365.31 277.75 L 366.78 277.75 L 368.25 277.75 L 369.72 277.75 L 371.19 277.75 L 372.67 277.75 L 374.14 277.75 L 375.61 277.75 L 377.08 277.75 L 378.56 277.75 L 380.03 277.75 L 381.50 277.75 L 382.97 277.75 L 384.44 277.75 L 385.92 277.75 L 387.39 277.75 L 388.86 277.75 L 390.33 277.75 L 391.81 277.75 L 393.28 274.56 L 394.75 277.75 L 396.22 272.20 L 397.69 270.95 L 399.17 277.75 L 400.64 277.75 L 402.11 277.75 L 403.58 277.75 L 405.06 277.75 L 406.53 277.75 L 408.00 277.75 L 409.47 277.75 L 410.94 277.75 L 412.42 277.75 L 413.89 277.75 L 415.36 277.75 L 416.83 277.75 L 418.31 277.75 L 419.78 274.28 L 421.25 270.67 L 422.72 270.81 L 424.19 273.45 L 425.67 272.34 L 427.14 272.48 L 428.61 274.84 L 430.08 274.28 L 431.56 275.53 L 433.03 271.50 L 434.50 269.15 L 435.97 270.81 L 437.44 272.20 L 438.92 270.81 L 440.39 267.76 L 441.86 269.98 L 443.33 277.75 L 444.81 277.75 L 446.28 277.75 L 447.75 277.75 L 449.22 277.75 L 450.69 277.75 L 452.17 277.75 L 453.64 277.75 L 455.11 277.75 L 456.58 277.75 L 458.06 277.75 L 459.53 277.75 L 461.00 277.75 L 462.47 277.75 L 463.94 277.75 L 465.42 277.75 L 466.89 277.75 L 468.36 277.75 L 469.83 277.75 L 471.31 277.75 L 472.78 277.75 L 474.25 277.75 L 475.72 277.75 L 477.19 277.75 L 478.67 277.75 L 480.14 277.75 L 481.61 277.75 L 483.08 277.75 L 484.56 277.75 L 486.03 270.95 L 487.50 265.40 L 488.97 261.93 L 490.44 259.15 L 491.92 251.80 L 493.39 248.47 L 494.86 250.41 L 496.33 247.77 L 497.81 245.00 L 499.28 246.80 L 500.75 246.39 L 502.22 240.83 L 503.69 245.00 L 505.17 242.92 L 506.64 241.53 L 508.11 242.92 L 509.58 246.39 L 511.06 241.67 L 512.53 237.64 L 514.00 242.36 L 515.47 243.75 L 516.94 240.28 L 518.42 231.81 L 519.89 238.61 L 521.36 225.57 L 522.83 225.15 L 524.31 223.90 L 525.78 219.88 L 527.25 221.96 L 528.72 222.24 L 530.19 220.99 L 531.67 216.27 L 533.14 215.99 L 534.61 214.19 L 536.08 211.14 L 537.56 211.83 L 539.03 212.94 L 540.50 205.72 L 541.97 204.06 L 543.44 194.34 L 544.92 210.58 L 546.39 216.27 L 547.86 210.86 L 549.33 208.50 L 550.81 201.98 L 552.28 201.14 L 553.75 202.25 L 555.22 198.65 L 556.69 192.96 L 558.17 186.43 L 559.64 192.82 L 561.11 186.43 L 562.58 190.04 L 564.06 195.31 L 565.53 200.59 L 567.00 201.56 L 568.47 208.78 L 569.94 202.81 L 571.42 198.09 L 572.89 193.79 L 574.36 189.90 L 575.83 183.10 L 577.31 183.52 L 578.78 174.91 L 580.25 179.77 L 581.72 176.02 L 583.19 173.25 L 584.67 177.13 L 586.14 171.31 L 587.61 170.75 L 589.08 176.16 L 590.56 178.66 L 592.03 183.52 L 593.50 185.74 L 594.97 182.82 L 596.44 176.72 L 597.92 174.50 L 599.39 173.53 L 600.86 172.28 L 602.33 172.55 L 603.81 172.14 L 605.28 170.20 L 606.75 167.56 L 608.22 171.31 L 609.69 171.72 L 611.17 170.89 L 612.64 166.31 L 614.11 166.31 L 615.58 165.75 L 617.06 163.40 L 618.53 164.64 L 620.00 164.78 L 621.47 166.17 L 622.94 165.62 L 624.42 164.64 L 625.89 167.28 L 627.36 165.48 L 628.83 167.00 L 630.31 164.92 L 631.78 165.62 L 633.25 167.28 L 634.72 166.31 L 636.19 166.31 L 637.67 165.89 L 639.14 163.67 L 640.61 163.53 L 642.08 163.81 L 643.56 163.95 L 645.03 166.86 L 646.50 165.62 L 647.97 163.95 L 649.44 163.95 L 650.92 158.54 L 652.39 155.90 L 653.86 156.18 L 655.33 156.18 L 656.81 154.51 L 658.28 157.57 L 659.75 154.24 L 661.22 153.54 L 662.69 152.43 L 664.17 151.18 L 665.64 150.63 L 667.11 150.63 L 668.58 155.62 L 670.06 158.40 L 671.53 163.12 L 673.00 159.09 L 674.47 169.22 L 675.94 175.33 L 677.42 169.36 L 678.89 181.44 L 680.36 180.19 L 681.83 189.35 L 683.31 191.85 L 684.78 189.35 L 686.25 196.29 L 687.72 194.90 L 689.19 194.62 L 690.67 195.04 L 692.14 190.18 L 693.61 181.44 L 695.08 180.74 L 696.56 176.58 L 698.03 174.36 L 699.50 170.47 L 700.97 166.73 L 702.44 163.12 L 703.92 160.48 L 705.39 160.34 L 706.86 158.26 L 708.33 160.34 L 709.81 156.04 L 711.28 154.51 L 712.75 151.74 L 714.22 152.02 L 715.69 152.43 L 717.17 153.82 L 718.64 148.55 L 720.11 148.96 L 721.58 146.05 L 723.06 143.97 L 724.53 138.41 L 726.00 132.86 L 727.47 137.30 L 728.94 146.88 L 730.42 168.39 L 731.89 159.51 L 733.36 170.33 L 734.83 168.67 L 736.31 163.67 L 737.78 164.23 L 739.25 164.23 L 740.72 157.71 L 742.19 156.73 L 743.67 156.73 L 745.14 157.71 L 746.61 157.71 L 748.08 163.40 L 749.56 165.34" stroke="#1976D2" />
<text x="90" y="289.75" font-size="14" font-weight="700">Inclinação (graus)</text>
<rect class="event" x="443.33" y="295.75" width="41.22" height="192.75" />
<line class="eventline" x1="443.33" y1="295.75" x2="443.33" y2="488.50" />
<line class="eventline" x1="484.56" y1="295.75" x2="484.56" y2="488.50" />
<line class="grid" x1="90" y1="488.50" x2="1150" y2="488.50" />
<text class="small" x="80" y="492.50" text-anchor="end">-20.0</text>
<line class="grid" x1="90" y1="449.95" x2="1150" y2="449.95" />
<text class="small" x="80" y="453.95" text-anchor="end">-10.0</text>
<line class="grid" x1="90" y1="411.40" x2="1150" y2="411.40" />
<text class="small" x="80" y="415.40" text-anchor="end">0.00</text>
<line class="grid" x1="90" y1="372.85" x2="1150" y2="372.85" />
<text class="small" x="80" y="376.85" text-anchor="end">10.0</text>
<line class="grid" x1="90" y1="334.30" x2="1150" y2="334.30" />
<text class="small" x="80" y="338.30" text-anchor="end">20.0</text>
<line class="grid" x1="90" y1="295.75" x2="1150" y2="295.75" />
<text class="small" x="80" y="299.75" text-anchor="end">30.0</text>
<line class="grid" x1="90.00" y1="295.75" x2="90.00" y2="488.50" />
<line class="grid" x1="266.67" y1="295.75" x2="266.67" y2="488.50" />
<line class="grid" x1="443.33" y1="295.75" x2="443.33" y2="488.50" />
<line class="grid" x1="620.00" y1="295.75" x2="620.00" y2="488.50" />
<line class="grid" x1="796.67" y1="295.75" x2="796.67" y2="488.50" />
<line class="grid" x1="973.33" y1="295.75" x2="973.33" y2="488.50" />
<line class="grid" x1="1150.00" y1="295.75" x2="1150.00" y2="488.50" />
<line class="axis" x1="90" y1="295.75" x2="90" y2="488.50" />
<line class="axis" x1="90" y1="488.50" x2="1150" y2="488.50" />
<path class="series" d="M 178.33 376.47 L 179.81 377.82 L 181.28 390.50 L 182.75 388.84 L 184.22 386.22 L 185.69 385.63 L 187.17 383.78 L 188.64 383.33 L 190.11 380.96 L 191.58 391.32 L 193.06 389.02 L 194.53 388.00 L 196.00 390.11 L 197.47 388.88 L 198.94 384.04 L 200.42 381.85 L 201.89 384.60 L 203.36 383.71 L 204.83 380.47 L 206.31 376.52 L 207.78 378.71 L 209.25 378.71 L 210.72 372.92 L 212.19 372.15 L 213.67 364.98 L 215.14 357.64 L 216.61 349.92 L 218.08 363.25 L 219.56 356.49 L 221.03 344.75 L 222.50 350.86 L 223.97 342.22 L 225.44 358.82 L 226.92 347.81 L 228.39 359.42 L 229.86 352.48 L 231.33 366.39 L 232.81 359.85 L 234.28 371.46 L 235.75 358.37 L 237.22 354.21 L 238.69 363.03 L 240.17 370.17 L 241.64 358.73 L 243.11 355.13 L 244.58 364.47 L 246.06 357.21 L 247.53 357.99 L 249.00 366.65 L 250.47 366.26 L 251.94 366.90 L 253.42 360.18 L 254.89 352.85 L 256.36 358.62 L 257.83 368.02 L 259.31 369.84 L 260.78 368.47 L 262.25 364.39 L 263.72 365.14 L 265.19 372.34 L 266.67 363.14 L 268.14 367.93 L 269.61 370.28 L 271.08 374.05 L 272.56 368.22 L 274.03 369.73 L 275.50 372.83 L 276.97 372.08 L 278.44 370.76 L 279.92 371.40 L 281.39 370.10 L 282.86 371.05 L 284.33 371.63 L 285.81 367.93 L 287.28 369.51 L 288.75 371.23 L 290.22 376.09 L 291.69 369.04 L 293.17 371.36 L 294.64 368.07 L 296.11 364.64 L 297.58 369.85 L 299.06 371.54 L 300.53 369.41 L 302.00 365.31 L 303.47 377.29 L 304.94 369.63 L 306.42 368.03 L 307.89 371.72 L 309.36 375.10 L 310.83 361.40 L 312.31 368.59 L 313.78 368.26 L 315.25 368.40 L 316.72 368.88 L 318.19 368.83 L 319.67 368.88 L 321.14 368.81 L 322.61 368.83 L 324.08 368.83 L 325.56 368.92 L 327.03 368.94 L 328.50 369.02 L 329.97 369.07 L 331.44 369.04 L 332.92 369.25 L 334.39 369.25 L 335.86 369.91 L 337.33 368.67 L 338.81 369.10 L 340.28 369.06 L 341.75 369.39 L 343.22 368.38 L 344.69 369.82 L 346.17 369.37 L 347.64 369.63 L 349.11 369.28 L 350.58 369.35 L 352.06 369.74 L 353.53 369.64 L 355.00 369.52 L 356.47 370.55 L 357.94 369.56 L 359.42 370.14 L 360.89 370.19 L 362.36 371.11 L 363.83 369.81 L 365.31 370.93 L 366.78 370.95 L 368.25 371.37 L 369.72 371.38 L 371.19 371.60 L 372.67 371.28 L 374.14 371.16 L 375.61 371.48 L 377.08 371.58 L 378.56 371.64 L 380.03 371.93 L 381.50 372.11 L 382.97 371.99 L 384.44 372.39 L 385.92 372.31 L 387.39 372.39 L 388.86 372.53 L 390.33 372.26 L 391.81 379.92 L 393.28 369.42 L 394.75 385.48 L 396.22 374.74 L 397.69 367.45 L 399.17 377.00 L 400.64 376.37 L 402.11 376.38 L 403.58 375.97 L 405.06 375.80 L 406.53 375.52 L 408.00 375.37 L 409.47 375.56 L 410.94 375.49 L 412.42 375.58 L 413.89 375.48 L 415.36 375.68 L 416.83 375.65 L 418.31 386.76 L 419.78 380.11 L 421.25 376.81 L 422.72 372.73 L 424.19 383.44 L 425.67 383.44 L 427.14 372.07 L 428.61 370.83 L 430.08 379.04 L 431.56 371.11 L 433.03 382.04 L 434.50 373.25 L 435.97 374.43 L 437.44 372.61 L 438.92 385.17 L 440.39 375.16 L 441.86 371.02 L 443.33 368.77 L 444.81 374.27 L 446.28 375.24 L 447.75 375.62 L 449.22 374.88 L 450.69 375.45 L 452.17 374.96 L 453.64 374.81 L 455.11 374.36 L 456.58 374.61 L 458.06 374.46 L 459.53 374.32 L 461.00 374.29 L 462.47 373.93 L 463.94 374.14 L 465.42 374.07 L 466.89 374.10 L 468.36 374.06 L 469.83 374.06 L 471.31 374.02 L 472.78 374.08 L 474.25 374.07 L 475.72 374.04 L 477.19 374.07 L 478.67 374.04 L 480.14 374.09 L 481.61 373.98 L 483.08 374.41 L 484.56 381.34 L 486.03 381.41 L 487.50 380.45 L 488.97 378.95 L 490.44 380.16 L 491.92 388.76 L 493.39 376.02 L 494.86 384.96 L 496.33 378.83 L 497.81 374.41 L 499.28 370.42 L 500.75 382.46 L 502.22 377.17 L 503.69 361.93 L 505.17 365.44 L 506.64 374.49 L 508.11 368.03 L 509.58 377.34 L 511.06 375.77 L 512.53 370.92 L 514.00 364.25 L 515.47 380.32 L 516.94 385.88 L 518.42 380.13 L 519.89 378.86 L 521.36 374.72 L 522.83 369.26 L 524.31 364.81 L 525.78 356.92 L 527.25 352.49 L 528.72 354.55 L 530.19 351.45 L 531.67 349.76 L 533.14 346.71 L 534.61 351.19 L 536.08 353.08 L 537.56 348.31 L 539.03 352.07 L 540.50 363.23 L 541.97 349.93 L 543.44 361.70 L 544.92 359.53 L 546.39 359.41 L 547.86 369.83 L 549.33 373.42 L 550.81 357.87 L 552.28 364.63 L 553.75 374.76 L 555.22 373.36 L 556.69 372.29 L 558.17 364.90 L 559.64 366.00 L 561.11 366.84 L 562.58 366.27 L 564.06 364.09 L 565.53 363.70 L 567.00 356.59 L 568.47 360.62 L 569.94 359.72 L 571.42 358.88 L 572.89 354.74 L 574.36 355.59 L 575.83 356.96 L 577.31 353.79 L 578.78 339.16 L 580.25 354.23 L 581.72 349.65 L 583.19 339.03 L 584.67 349.54 L 586.14 341.82 L 587.61 338.43 L 589.08 343.75 L 590.56 343.76 L 592.03 348.31 L 593.50 350.59 L 594.97 353.93 L 596.44 351.04 L 597.92 346.78 L 599.39 345.71 L 600.86 346.15 L 602.33 351.52 L 603.81 343.92 L 605.28 346.19 L 606.75 341.85 L 608.22 346.01 L 609.69 344.92 L 611.17 354.35 L 612.64 344.00 L 614.11 345.25 L 615.58 344.83 L 617.06 342.56 L 618.53 343.62 L 620.00 344.94 L 621.47 343.62 L 622.94 343.97 L 624.42 349.61 L 625.89 346.37 L 627.36 345.29 L 628.83 344.21 L 630.31 346.56 L 631.78 345.89 L 633.25 345.96 L 634.72 344.03 L 636.19 345.02 L 637.67 344.18 L 639.14 345.60 L 640.61 346.14 L 642.08 346.14 L 643.56 345.71 L 645.03 345.05 L 646.50 348.74 L 647.97 352.35 L 649.44 356.54 L 650.92 350.51 L 652.39 346.02 L 653.86 345.95 L 655.33 344.28 L 656.81 344.26 L 658.28 344.51 L 659.75 344.18 L 661.22 343.95 L 662.69 342.29 L 664.17 344.16 L 665.64 342.85 L 667.11 339.05 L 668.58 343.14 L 670.06 340.27 L 671.53 338.24 L 673.00 343.26 L 674.47 347.18 L 675.94 353.48 L 677.42 350.11 L 678.89 342.35 L 680.36 348.58 L 681.83 348.74 L 683.31 353.53 L 684.78 356.34 L 686.25 357.77 L 687.72 366.06 L 689.19 365.56 L 690.67 371.80 L 692.14 379.62 L 693.61 380.63 L 695.08 379.54 L 696.56 379.65 L 698.03 374.66 L 699.50 382.48 L 700.97 379.78 L 702.44 378.97 L 703.92 375.95 L 705.39 370.82 L 706.86 368.53 L 708.33 367.79 L 709.81 366.76 L 711.28 370.50 L 712.75 368.88 L 714.22 359.36 L 715.69 361.03 L 717.17 360.71 L 718.64 359.58 L 720.11 361.16 L 721.58 362.68 L 723.06 366.94 L 724.53 367.49 L 726.00 364.63 L 727.47 354.53 L 728.94 327.61 L 730.42 346.79 L 731.89 360.67 L 733.36 367.31 L 734.83 371.84 L 736.31 372.58 L 737.78 371.17 L 739.25 369.58 L 740.72 366.39 L 742.19 366.88 L 743.67 361.44 L 745.14 362.91 L 746.61 364.35 L 748.08 369.75 L 749.56 367.46" stroke="#2E7D32" />
<path class="series" d="M 178.33 414.47 L 179.81 416.14 L 181.28 417.69 L 182.75 417.75 L 184.22 417.43 L 185.69 422.44 L 187.17 416.47 L 188.64 416.43 L 190.11 404.01 L 191.58 407.54 L 193.06 398.70 L 194.53 408.19 L 196.00 404.68 L 197.47 402.57 L 198.94 404.71 L 200.42 414.14 L 201.89 403.95 L 203.36 403.18 L 204.83 397.33 L 206.31 403.49 L 207.78 393.33 L 209.25 393.33 L 210.72 390.17 L 212.19 389.04 L 213.67 403.48 L 215.14 396.88 L 216.61 398.38 L 218.08 410.24 L 219.56 408.21 L 221.03 409.17 L 222.50 399.49 L 223.97 396.32 L 225.44 401.13 L 226.92 398.71 L 228.39 401.41 L 229.86 396.45 L 231.33 400.07 L 232.81 403.56 L 234.28 401.37 L 235.75 392.62 L 237.22 406.01 L 238.69 410.39 L 240.17 389.85 L 241.64 393.76 L 243.11 405.16 L 244.58 394.24 L 246.06 397.79 L 247.53 405.26 L 249.00 392.10 L 250.47 394.56 L 251.94 396.34 L 253.42 393.76 L 254.89 411.81 L 256.36 411.46 L 257.83 399.99 L 259.31 400.23 L 260.78 406.35 L 262.25 404.86 L 263.72 398.12 L 265.19 401.27 L 266.67 399.37 L 268.14 403.09 L 269.61 402.01 L 271.08 404.76 L 272.56 400.55 L 274.03 401.52 L 275.50 399.78 L 276.97 404.45 L 278.44 404.15 L 279.92 401.68 L 281.39 405.63 L 282.86 407.18 L 284.33 407.74 L 285.81 404.70 L 287.28 406.70 L 288.75 406.91 L 290.22 405.38 L 291.69 404.84 L 293.17 406.64 L 294.64 407.96 L 296.11 409.94 L 297.58 407.77 L 299.06 407.60 L 300.53 406.77 L 302.00 407.42 L 303.47 411.46 L 304.94 410.80 L 306.42 409.80 L 307.89 408.66 L 309.36 407.87 L 310.83 409.28 L 312.31 407.44 L 313.78 406.72 L 315.25 407.52 L 316.72 406.29 L 318.19 408.23 L 319.67 407.85 L 321.14 407.60 L 322.61 407.61 L 324.08 407.06 L 325.56 407.57 L 327.03 407.44 L 328.50 407.67 L 329.97 407.57 L 331.44 407.42 L 332.92 407.71 L 334.39 407.32 L 335.86 408.03 L 337.33 407.14 L 338.81 407.51 L 340.28 407.47 L 341.75 408.16 L 343.22 406.47 L 344.69 407.76 L 346.17 407.39 L 347.64 407.71 L 349.11 407.68 L 350.58 407.41 L 352.06 407.73 L 353.53 407.38 L 355.00 407.34 L 356.47 408.42 L 357.94 407.20 L 359.42 408.31 L 360.89 407.62 L 362.36 407.70 L 363.83 408.33 L 365.31 408.21 L 366.78 408.33 L 368.25 407.15 L 369.72 408.10 L 371.19 408.44 L 372.67 407.68 L 374.14 407.88 L 375.61 408.06 L 377.08 407.98 L 378.56 408.24 L 380.03 407.78 L 381.50 408.00 L 382.97 407.94 L 384.44 407.91 L 385.92 408.02 L 387.39 408.00 L 388.86 408.11 L 390.33 407.88 L 391.81 410.77 L 393.28 405.81 L 394.75 408.37 L 396.22 411.02 L 397.69 408.12 L 399.17 408.46 L 400.64 407.93 L 402.11 408.38 L 403.58 408.16 L 405.06 408.98 L 406.53 408.51 L 408.00 409.09 L 409.47 408.72 L 410.94 408.88 L 412.42 408.87 L 413.89 408.85 L 415.36 408.81 L 416.83 408.74 L 418.31 408.99 L 419.78 406.56 L 421.25 406.38 L 422.72 406.09 L 424.19 404.83 L 425.67 404.83 L 427.14 405.07 L 428.61 405.64 L 430.08 402.06 L 431.56 408.36 L 433.03 401.82 L 434.50 404.32 L 435.97 410.67 L 437.44 406.12 L 438.92 399.78 L 440.39 408.75 L 441.86 410.97 L 443.33 410.47 L 444.81 405.91 L 446.28 406.65 L 447.75 406.34 L 449.22 406.63 L 450.69 407.43 L 452.17 407.05 L 453.64 406.65 L 455.11 407.00 L 456.58 406.89 L 458.06 406.99 L 459.53 406.93 L 461.00 406.97 L 462.47 407.06 L 463.94 407.06 L 465.42 407.07 L 466.89 406.87 L 468.36 407.09 L 469.83 407.13 L 471.31 406.96 L 472.78 407.05 L 474.25 407.05 L 475.72 407.02 L 477.19 407.07 L 478.67 407.09 L 480.14 407.14 L 481.61 407.12 L 483.08 406.74 L 484.56 401.74 L 486.03 401.92 L 487.50 408.62 L 488.97 402.40 L 490.44 405.87 L 491.92 400.31 L 493.39 406.96 L 494.86 407.06 L 496.33 402.02 L 497.81 409.96 L 499.28 414.16 L 500.75 403.76 L 502.22 400.90 L 503.69 405.89 L 505.17 405.50 L 506.64 405.91 L 508.11 411.13 L 509.58 397.65 L 511.06 402.50 L 512.53 394.64 L 514.00 420.61 L 515.47 388.30 L 516.94 404.92 L 518.42 410.22 L 519.89 412.46 L 521.36 413.03 L 522.83 406.18 L 524.31 405.00 L 525.78 412.33 L 527.25 413.06 L 528.72 411.08 L 530.19 412.80 L 531.67 403.48 L 533.14 405.96 L 534.61 401.64 L 536.08 397.96 L 537.56 401.06 L 539.03 402.03 L 540.50 402.23 L 541.97 398.38 L 543.44 396.54 L 544.92 399.50 L 546.39 399.39 L 547.86 398.07 L 549.33 397.30 L 550.81 408.76 L 552.28 412.28 L 553.75 406.95 L 555.22 409.18 L 556.69 412.68 L 558.17 399.53 L 559.64 394.71 L 561.11 411.24 L 562.58 406.92 L 564.06 410.54 L 565.53 410.99 L 567.00 404.45 L 568.47 399.56 L 569.94 401.86 L 571.42 408.24 L 572.89 397.76 L 574.36 405.64 L 575.83 404.02 L 577.31 410.76 L 578.78 411.08 L 580.25 410.57 L 581.72 406.93 L 583.19 413.35 L 584.67 401.56 L 586.14 409.05 L 587.61 407.37 L 589.08 409.56 L 590.56 409.89 L 592.03 416.51 L 593.50 415.62 L 594.97 414.70 L 596.44 413.71 L 597.92 405.41 L 599.39 401.18 L 600.86 412.42 L 602.33 412.73 L 603.81 411.27 L 605.28 415.51 L 606.75 418.19 L 608.22 420.10 L 609.69 416.09 L 611.17 418.44 L 612.64 405.23 L 614.11 407.15 L 615.58 401.90 L 617.06 405.27 L 618.53 409.94 L 620.00 400.01 L 621.47 407.36 L 622.94 404.72 L 624.42 406.42 L 625.89 406.06 L 627.36 414.03 L 628.83 414.93 L 630.31 414.65 L 631.78 416.22 L 633.25 413.34 L 634.72 414.16 L 636.19 411.52 L 637.67 403.36 L 639.14 411.14 L 640.61 408.39 L 642.08 408.39 L 643.56 412.70 L 645.03 412.54 L 646.50 388.34 L 647.97 400.47 L 649.44 408.65 L 650.92 406.70 L 652.39 405.39 L 653.86 400.06 L 655.33 402.35 L 656.81 403.61 L 658.28 399.33 L 659.75 400.39 L 661.22 409.15 L 662.69 413.19 L 664.17 415.67 L 665.64 419.15 L 667.11 421.02 L 668.58 420.88 L 670.06 434.20 L 671.53 430.01 L 673.00 441.40 L 674.47 435.37 L 675.94 428.80 L 677.42 442.23 L 678.89 441.32 L 680.36 438.49 L 681.83 395.55 L 683.31 364.83 L 684.78 361.23 L 686.25 376.93 L 687.72 370.45 L 689.19 377.50 L 690.67 395.68 L 692.14 409.33 L 693.61 410.46 L 695.08 418.76 L 696.56 426.32 L 698.03 425.89 L 699.50 420.98 L 700.97 423.15 L 702.44 423.86 L 703.92 419.01 L 705.39 414.16 L 706.86 407.54 L 708.33 396.04 L 709.81 400.14 L 711.28 410.17 L 712.75 405.65 L 714.22 397.78 L 715.69 395.45 L 717.17 395.54 L 718.64 397.76 L 720.11 397.98 L 721.58 398.51 L 723.06 405.45 L 724.53 404.94 L 726.00 394.88 L 727.47 396.31 L 728.94 398.13 L 730.42 396.68 L 731.89 404.88 L 733.36 410.81 L 734.83 411.40 L 736.31 411.56 L 737.78 411.62 L 739.25 409.22 L 740.72 408.93 L 742.19 408.53 L 743.67 397.98 L 745.14 402.11 L 746.61 403.85 L 748.08 401.47 L 749.56 399.38" stroke="#6A1B9A" />
<line x1="900.00" y1="307.75" x2="918.00" y2="307.75" stroke="#2E7D32" stroke-width="3" />
<text class="small" x="924.00" y="311.75">pitch</text>
<line x1="900.00" y1="323.75" x2="918.00" y2="323.75" stroke="#6A1B9A" stroke-width="3" />
<text class="small" x="924.00" y="327.75">roll</text>
<text x="90" y="500.50" font-size="14" font-weight="700">Aceleração (magnitude) (u.a.)</text>
<rect class="event" x="443.33" y="506.50" width="41.22" height="192.75" />
<line class="eventline" x1="443.33" y1="506.50" x2="443.33" y2="699.25" />
<line class="eventline" x1="484.56" y1="506.50" x2="484.56" y2="699.25" />
<line class="grid" x1="90" y1="699.25" x2="1150" y2="699.25" />
<text class="small" x="80" y="703.25" text-anchor="end">0.00</text>
<line class="grid" x1="90" y1="660.70" x2="1150" y2="660.70" />
<text class="small" x="80" y="664.70" text-anchor="end">0.50</text>
<line class="grid" x1="90" y1="622.15" x2="1150" y2="622.15" />
<text class="small" x="80" y="626.15" text-anchor="end">1.00</text>
<line class="grid" x1="90" y1="583.60" x2="1150" y2="583.60" />
<text class="small" x="80" y="587.60" text-anchor="end">1.50</text>
<line class="grid" x1="90" y1="545.05" x2="1150" y2="545.05" />
<text class="small" x="80" y="549.05" text-anchor="end">2.00</text>
<line class="grid" x1="90" y1="506.50" x2="1150" y2="506.50" />
<text class="small" x="80" y="510.50" text-anchor="end">2.50</text>
<line class="grid" x1="90.00" y1="506.50" x2="90.00" y2="699.25" />
<line class="grid" x1="266.67" y1="506.50" x2="266.67" y2="699.25" />
<line class="grid" x1="443.33" y1="506.50" x2="443.33" y2="699.25" />
<line class="grid" x1="620.00" y1="506.50" x2="620.00" y2="699.25" />
<line class="grid" x1="796.67" y1="506.50" x2="796.67" y2="699.25" />
<line class="grid" x1="973.33" y1="506.50" x2="973.33" y2="699.25" />
<line class="grid" x1="1150.00" y1="506.50" x2="1150.00" y2="699.25" />
<line class="axis" x1="90" y1="506.50" x2="90" y2="699.25" />
<line class="axis" x1="90" y1="699.25" x2="1150" y2="699.25" />
<path class="series" d="M 178.33 677.84 L 179.81 678.06 L 181.28 676.75 L 182.75 687.46 L 184.22 677.80 L 185.69 692.77 L 187.17 672.49 L 188.64 668.08 L 190.11 668.08 L 191.58 658.74 L 193.06 660.65 L 194.53 669.51 L 196.00 695.78 L 197.47 685.23 L 198.94 695.52 L 200.42 684.02 L 201.89 665.55 L 203.36 683.43 L 204.83 680.24 L 206.31 668.12 L 207.78 665.03 L 209.25 667.58 L 210.72 681.74 L 212.19 680.11 L 213.67 657.39 L 215.14 631.90 L 216.61 665.99 L 218.08 661.55 L 219.56 652.23 L 221.03 623.02 L 222.50 615.87 L 223.97 645.12 L 225.44 688.56 L 226.92 665.99 L 228.39 686.24 L 229.86 662.95 L 231.33 663.70 L 232.81 686.32 L 234.28 655.60 L 235.75 663.42 L 237.22 641.61 L 238.69 678.63 L 240.17 680.45 L 241.64 657.48 L 243.11 681.82 L 244.58 692.57 L 246.06 664.13 L 247.53 672.83 L 249.00 688.33 L 250.47 682.42 L 251.94 684.05 L 253.42 650.31 L 254.89 642.61 L 256.36 667.54 L 257.83 677.73 L 259.31 693.88 L 260.78 676.91 L 262.25 676.83 L 263.72 683.67 L 265.19 693.65 L 266.67 676.89 L 268.14 694.73 L 269.61 694.90 L 271.08 693.05 L 272.56 672.92 L 274.03 687.97 L 275.50 690.36 L 276.97 689.02 L 278.44 689.16 L 279.92 685.52 L 281.39 695.33 L 282.86 689.48 L 284.33 695.27 L 285.81 694.02 L 287.28 695.82 L 288.75 678.48 L 290.22 692.47 L 291.69 695.54 L 293.17 688.24 L 294.64 690.96 L 296.11 694.00 L 297.58 684.42 L 299.06 691.25 L 300.53 692.12 L 302.00 669.21 L 303.47 689.60 L 304.94 688.02 L 306.42 690.54 L 307.89 681.20 L 309.36 690.95 L 310.83 653.29 L 312.31 653.29 L 313.78 692.39 L 315.25 692.95 L 316.72 693.34 L 318.19 697.08 L 319.67 695.75 L 321.14 698.58 L 322.61 697.29 L 324.08 698.48 L 325.56 698.96 L 327.03 698.87 L 328.50 698.44 L 329.97 698.30 L 331.44 698.97 L 332.92 697.19 L 334.39 698.89 L 335.86 698.13 L 337.33 696.24 L 338.81 697.33 L 340.28 697.51 L 341.75 696.98 L 343.22 697.28 L 344.69 693.92 L 346.17 695.75 L 347.64 697.12 L 349.11 697.17 L 350.58 697.83 L 352.06 696.58 L 353.53 694.86 L 355.00 694.88 L 356.47 694.31 L 357.94 698.62 L 359.42 696.90 L 360.89 698.72 L 362.36 696.83 L 363.83 692.39 L 365.31 697.75 L 366.78 697.85 L 368.25 696.01 L 369.72 694.15 L 371.19 696.52 L 372.67 698.08 L 374.14 697.90 L 375.61 699.03 L 377.08 697.40 L 378.56 696.93 L 380.03 697.32 L 381.50 698.36 L 382.97 693.59 L 384.44 693.62 L 385.92 698.45 L 387.39 698.31 L 388.86 698.33 L 390.33 695.52 L 391.81 676.33 L 393.28 670.62 L 394.75 675.38 L 396.22 692.87 L 397.69 659.47 L 399.17 697.50 L 400.64 698.15 L 402.11 696.77 L 403.58 696.63 L 405.06 697.07 L 406.53 698.07 L 408.00 694.90 L 409.47 695.49 L 410.94 697.80 L 412.42 697.88 L 413.89 698.52 L 415.36 698.72 L 416.83 697.86 L 418.31 673.67 L 419.78 685.64 L 421.25 685.10 L 422.72 672.88 L 424.19 678.13 L 425.67 679.23 L 427.14 685.81 L 428.61 682.06 L 430.08 662.77 L 431.56 686.28 L 433.03 681.92 L 434.50 679.53 L 435.97 691.35 L 437.44 691.35 L 438.92 662.80 L 440.39 684.46 L 441.86 677.53 L 443.33 677.32 L 444.81 687.37 L 446.28 694.12 L 447.75 694.95 L 449.22 697.13 L 450.69 696.67 L 452.17 698.58 L 453.64 697.71 L 455.11 697.39 L 456.58 698.18 L 458.06 698.27 L 459.53 698.32 L 461.00 698.17 L 462.47 697.43 L 463.94 695.25 L 465.42 698.17 L 466.89 698.11 L 468.36 698.70 L 469.83 698.73 L 471.31 698.45 L 472.78 698.50 L 474.25 698.71 L 475.72 698.66 L 477.19 698.78 L 478.67 699.10 L 480.14 699.16 L 481.61 698.87 L 483.08 696.48 L 484.56 680.67 L 486.03 689.63 L 487.50 690.28 L 488.97 687.07 L 490.44 680.12 L 491.92 664.41 L 493.39 667.46 L 494.86 683.10 L 496.33 674.06 L 497.81 675.24 L 499.28 683.61 L 500.75 669.82 L 502.22 670.50 L 503.69 649.36 L 505.17 669.68 L 506.64 689.16 L 508.11 676.58 L 509.58 664.10 L 511.06 660.69 L 512.53 658.04 L 514.00 679.86 L 515.47 649.28 L 516.94 672.30 L 518.42 675.47 L 519.89 664.88 L 521.36 668.57 L 522.83 678.89 L 524.31 661.39 L 525.78 641.72 L 527.25 681.90 L 528.72 667.73 L 530.19 670.50 L 531.67 674.70 L 533.14 668.64 L 534.61 669.75 L 536.08 669.14 L 537.56 672.89 L 539.03 688.69 L 540.50 677.20 L 541.97 666.67 L 543.44 657.12 L 544.92 661.40 L 546.39 677.71 L 547.86 679.71 L 549.33 666.12 L 550.81 665.10 L 552.28 666.34 L 553.75 669.22 L 555.22 677.30 L 556.69 678.87 L 558.17 655.74 L 559.64 664.83 L 561.11 664.83 L 562.58 676.76 L 564.06 661.70 L 565.53 639.48 L 567.00 663.90 L 568.47 687.19 L 569.94 666.83 L 571.42 653.64 L 572.89 652.53 L 574.36 673.39 L 575.83 667.10 L 577.31 681.81 L 578.78 678.82 L 580.25 660.28 L 581.72 662.26 L 583.19 674.54 L 584.67 674.04 L 586.14 686.82 L 587.61 673.55 L 589.08 672.20 L 590.56 667.93 L 592.03 654.14 L 593.50 693.03 L 594.97 663.65 L 596.44 670.63 L 597.92 688.96 L 599.39 678.80 L 600.86 679.41 L 602.33 676.73 L 603.81 682.46 L 605.28 678.27 L 606.75 689.80 L 608.22 652.11 L 609.69 677.55 L 611.17 679.25 L 612.64 669.03 L 614.11 675.06 L 615.58 670.82 L 617.06 686.91 L 618.53 685.92 L 620.00 684.13 L 621.47 692.44 L 622.94 689.69 L 624.42 688.17 L 625.89 682.24 L 627.36 680.34 L 628.83 690.89 L 630.31 685.94 L 631.78 685.94 L 633.25 688.54 L 634.72 691.25 L 636.19 684.25 L 637.67 679.48 L 639.14 686.39 L 640.61 683.64 L 642.08 682.80 L 643.56 681.82 L 645.03 650.61 L 646.50 654.86 L 647.97 669.89 L 649.44 692.01 L 650.92 685.67 L 652.39 679.73 L 653.86 691.54 L 655.33 692.73 L 656.81 694.61 L 658.28 687.89 L 659.75 679.44 L 661.22 683.87 L 662.69 669.21 L 664.17 677.87 L 665.64 655.53 L 667.11 671.14 L 668.58 658.22 L 670.06 638.82 L 671.53 650.11 L 673.00 628.89 L 674.47 658.91 L 675.94 645.31 L 677.42 647.15 L 678.89 638.67 L 680.36 586.79 L 681.83 549.20 L 683.31 529.12 L 684.78 606.40 L 686.25 606.40 L 687.72 629.09 L 689.19 652.23 L 690.67 665.50 L 692.14 645.75 L 693.61 621.76 L 695.08 629.39 L 696.56 631.44 L 698.03 633.16 L 699.50 682.97 L 700.97 692.80 L 702.44 680.49 L 703.92 690.42 L 705.39 681.64 L 706.86 674.40 L 708.33 649.23 L 709.81 665.39 L 711.28 683.82 L 712.75 674.60 L 714.22 673.13 L 715.69 682.59 L 717.17 680.61 L 718.64 689.57 L 720.11 687.04 L 721.58 682.35 L 723.06 672.39 L 724.53 684.45 L 726.00 675.65 L 727.47 664.88 L 728.94 585.79 L 730.42 662.74 L 731.89 681.62 L 733.36 666.64 L 734.83 662.71 L 736.31 673.42 L 737.78 683.13 L 739.25 691.10 L 740.72 688.39 L 742.19 673.28 L 743.67 671.29 L 745.14 687.02 L 746.61 691.15 L 748.08 687.41 L 749.56 682.54" stroke="#FB8C00" />
<text x="90" y="711.25" font-size="14" font-weight="700">Giroscópio (magnitude) (u.a.)</text>
<rect class="event" x="443.33" y="717.25" width="41.22" height="192.75" />
<line class="eventline" x1="443.33" y1="717.25" x2="443.33" y2="910.00" />
<line class="eventline" x1="484.56" y1="717.25" x2="484.56" y2="910.00" />
<line class="grid" x1="90" y1="910.00" x2="1150" y2="910.00" />
<text class="small" x="80" y="914.00" text-anchor="end">0.00</text>
<line class="grid" x1="90" y1="871.45" x2="1150" y2="871.45" />
<text class="small" x="80" y="875.45" text-anchor="end">0.10</text>
<line class="grid" x1="90" y1="832.90" x2="1150" y2="832.90" />
<text class="small" x="80" y="836.90" text-anchor="end">0.20</text>
<line class="grid" x1="90" y1="794.35" x2="1150" y2="794.35" />
<text class="small" x="80" y="798.35" text-anchor="end">0.30</text>
<line class="grid" x1="90" y1="755.80" x2="1150" y2="755.80" />
<text class="small" x="80" y="759.80" text-anchor="end">0.40</text>
<line class="grid" x1="90" y1="717.25" x2="1150" y2="717.25" />
<text class="small" x="80" y="721.25" text-anchor="end">0.50</text>
<line class="grid" x1="90.00" y1="717.25" x2="90.00" y2="910.00" />
<line class="grid" x1="266.67" y1="717.25" x2="266.67" y2="910.00" />
<line class="grid" x1="443.33" y1="717.25" x2="443.33" y2="910.00" />
<line class="grid" x1="620.00" y1="717.25" x2="620.00" y2="910.00" />
<line class="grid" x1="796.67" y1="717.25" x2="796.67" y2="910.00" />
<line class="grid" x1="973.33" y1="717.25" x2="973.33" y2="910.00" />
<line class="grid" x1="1150.00" y1="717.25" x2="1150.00" y2="910.00" />
<line class="axis" x1="90" y1="717.25" x2="90" y2="910.00" />
<line class="axis" x1="90" y1="910.00" x2="1150" y2="910.00" />
<path class="series" d="M 178.33 883.61 L 179.81 883.57 L 181.28 888.48 L 182.75 885.61 L 184.22 878.04 L 185.69 875.40 L 187.17 878.75 L 188.64 880.58 L 190.11 880.58 L 191.58 880.71 L 193.06 884.41 L 194.53 887.45 L 196.00 894.25 L 197.47 898.13 L 198.94 897.02 L 200.42 892.49 L 201.89 879.42 L 203.36 874.62 L 204.83 874.44 L 206.31 868.88 L 207.78 862.01 L 209.25 853.36 L 210.72 860.60 L 212.19 851.05 L 213.67 837.95 L 215.14 839.46 L 216.61 835.00 L 218.08 828.46 L 219.56 836.15 L 221.03 843.48 L 222.50 855.39 L 223.97 863.87 L 225.44 865.65 L 226.92 870.77 L 228.39 872.28 L 229.86 878.05 L 231.33 888.63 L 232.81 901.27 L 234.28 900.01 L 235.75 895.63 L 237.22 899.92 L 238.69 889.62 L 240.17 869.84 L 241.64 871.69 L 243.11 859.92 L 244.58 846.26 L 246.06 854.69 L 247.53 855.15 L 249.00 859.42 L 250.47 858.44 L 251.94 849.87 L 253.42 854.88 L 254.89 876.20 L 256.36 903.95 L 257.83 905.24 L 259.31 908.08 L 260.78 906.38 L 262.25 904.15 L 263.72 908.08 L 265.19 907.38 L 266.67 905.47 L 268.14 903.37 L 269.61 901.64 L 271.08 903.81 L 272.56 903.21 L 274.03 901.23 L 275.50 896.42 L 276.97 897.39 L 278.44 893.59 L 279.92 890.95 L 281.39 891.54 L 282.86 895.96 L 284.33 900.75 L 285.81 905.70 L 287.28 906.65 L 288.75 902.90 L 290.22 906.61 L 291.69 906.66 L 293.17 906.88 L 294.64 907.65 L 296.11 906.40 L 297.58 907.31 L 299.06 909.49 L 300.53 907.70 L 302.00 903.17 L 303.47 907.88 L 304.94 908.41 L 306.42 908.86 L 307.89 908.55 L 309.36 908.55 L 310.83 907.55 L 312.31 907.55 L 313.78 908.89 L 315.25 909.57 L 316.72 909.20 L 318.19 909.37 L 319.67 909.53 L 321.14 909.47 L 322.61 909.54 L 324.08 909.53 L 325.56 909.46 L 327.03 909.35 L 328.50 909.37 L 329.97 909.48 L 331.44 909.44 L 332.92 909.37 L 334.39 909.52 L 335.86 909.29 L 337.33 909.62 L 338.81 909.39 L 340.28 909.59 L 341.75 909.57 L 343.22 908.96 L 344.69 909.19 L 346.17 909.49 L 347.64 909.57 L 349.11 909.34 L 350.58 909.40 L 352.06 909.59 L 353.53 908.74 L 355.00 909.52 L 356.47 907.93 L 357.94 909.60 L 359.42 909.29 L 360.89 909.29 L 362.36 908.83 L 363.83 909.41 L 365.31 909.29 L 366.78 909.01 L 368.25 908.64 L 369.72 909.66 L 371.19 909.35 L 372.67 909.48 L 374.14 909.55 L 375.61 908.99 L 377.08 909.47 L 378.56 908.89 L 380.03 909.42 L 381.50 909.10 L 382.97 909.01 L 384.44 909.31 L 385.92 909.34 L 387.39 909.40 L 388.86 909.37 L 390.33 909.00 L 391.81 905.15 L 393.28 907.55 L 394.75 906.83 L 396.22 905.92 L 397.69 907.99 L 399.17 909.03 L 400.64 909.52 L 402.11 909.33 L 403.58 909.31 L 405.06 909.18 L 406.53 909.42 L 408.00 909.32 L 409.47 909.03 L 410.94 909.37 L 412.42 909.38 L 413.89 909.39 L 415.36 909.39 L 416.83 909.57 L 418.31 906.26 L 419.78 906.52 L 421.25 907.58 L 422.72 906.77 L 424.19 903.51 L 425.67 901.82 L 427.14 903.98 L 428.61 902.37 L 430.08 904.88 L 431.56 897.58 L 433.03 889.89 L 434.50 891.43 L 435.97 897.67 L 437.44 897.67 L 438.92 893.35 L 440.39 887.30 L 441.86 886.99 L 443.33 908.24 L 444.81 909.46 L 446.28 909.77 L 447.75 909.57 L 449.22 909.54 L 450.69 909.42 L 452.17 909.80 L 453.64 909.55 L 455.11 909.69 L 456.58 909.53 L 458.06 909.56 L 459.53 909.59 L 461.00 909.64 L 462.47 909.57 L 463.94 909.44 L 465.42 909.33 L 466.89 909.44 L 468.36 909.44 L 469.83 909.46 L 471.31 909.45 L 472.78 909.43 L 474.25 909.47 L 475.72 909.43 L 477.19 909.91 L 478.67 909.88 L 480.14 909.91 L 481.61 909.58 L 483.08 909.52 L 484.56 900.87 L 486.03 893.72 L 487.50 889.55 L 488.97 888.93 L 490.44 892.15 L 491.92 883.68 L 493.39 881.57 L 494.86 880.96 L 496.33 875.73 L 497.81 874.40 L 499.28 875.09 L 500.75 870.51 L 502.22 861.37 L 503.69 864.01 L 505.17 869.28 L 506.64 863.07 L 508.11 857.67 L 509.58 858.22 L 511.06 857.08 L 512.53 853.80 L 514.00 856.89 L 515.47 850.04 L 516.94 852.16 L 518.42 857.34 L 519.89 864.81 L 521.36 860.70 L 522.83 853.27 L 524.31 856.15 L 525.78 853.96 L 527.25 853.90 L 528.72 855.53 L 530.19 851.37 L 531.67 852.56 L 533.14 851.99 L 534.61 865.35 L 536.08 883.28 L 537.56 885.91 L 539.03 894.44 L 540.50 897.79 L 541.97 891.29 L 543.44 874.34 L 544.92 880.74 L 546.39 881.54 L 547.86 877.71 L 549.33 875.81 L 550.81 885.17 L 552.28 893.45 L 553.75 889.56 L 555.22 894.03 L 556.69 890.39 L 558.17 886.68 L 559.64 889.80 L 561.11 889.80 L 562.58 892.18 L 564.06 890.25 L 565.53 895.44 L 567.00 892.57 L 568.47 899.37 L 569.94 895.10 L 571.42 902.95 L 572.89 899.66 L 574.36 893.45 L 575.83 902.50 L 577.31 900.55 L 578.78 902.31 L 580.25 899.74 L 581.72 898.14 L 583.19 901.90 L 584.67 894.90 L 586.14 895.57 L 587.61 896.38 L 589.08 904.14 L 590.56 904.26 L 592.03 900.22 L 593.50 903.20 L 594.97 906.97 L 596.44 908.64 L 597.92 898.61 L 599.39 907.08 L 600.86 906.72 L 602.33 903.04 L 603.81 904.66 L 605.28 901.23 L 606.75 897.11 L 608.22 890.99 L 609.69 895.93 L 611.17 899.55 L 612.64 900.70 L 614.11 900.15 L 615.58 891.82 L 617.06 897.73 L 618.53 899.26 L 620.00 901.21 L 621.47 906.27 L 622.94 907.57 L 624.42 907.90 L 625.89 906.39 L 627.36 899.54 L 628.83 904.19 L 630.31 901.50 L 631.78 903.77 L 633.25 902.52 L 634.72 904.83 L 636.19 903.33 L 637.67 897.91 L 639.14 907.96 L 640.61 901.78 L 642.08 896.79 L 643.56 893.70 L 645.03 901.52 L 646.50 887.09 L 647.97 897.31 L 649.44 905.07 L 650.92 901.08 L 652.39 897.61 L 653.86 895.83 L 655.33 900.41 L 656.81 903.49 L 658.28 903.04 L 659.75 901.33 L 661.22 905.47 L 662.69 897.55 L 664.17 895.37 L 665.64 890.91 L 667.11 885.36 L 668.58 878.16 L 670.06 861.22 L 671.53 853.80 L 673.00 848.14 L 674.47 853.72 L 675.94 832.10 L 677.42 828.11 L 678.89 833.16 L 680.36 866.06 L 681.83 892.31 L 683.31 834.11 L 684.78 812.27 L 686.25 812.27 L 687.72 816.30 L 689.19 816.46 L 690.67 839.77 L 692.14 879.16 L 693.61 896.48 L 695.08 880.83 L 696.56 859.26 L 698.03 859.75 L 699.50 872.51 L 700.97 880.66 L 702.44 884.27 L 703.92 885.74 L 705.39 890.12 L 706.86 900.65 L 708.33 893.05 L 709.81 902.51 L 711.28 901.03 L 712.75 900.00 L 714.22 905.41 L 715.69 906.62 L 717.17 903.90 L 718.64 906.51 L 720.11 906.74 L 721.58 905.13 L 723.06 901.06 L 724.53 900.43 L 726.00 905.93 L 727.47 902.68 L 728.94 906.83 L 730.42 903.90 L 731.89 903.34 L 733.36 902.70 L 734.83 905.62 L 736.31 905.31 L 737.78 904.84 L 739.25 905.67 L 740.72 904.31 L 742.19 900.61 L 743.67 903.96 L 745.14 904.36 L 746.61 906.60 L 748.08 904.53 L 749.56 901.21" stroke="#E53935" />
<text x="620.00" y="952" font-size="15" text-anchor="middle">minutos (relativo ao início do evento)</text>
<text class="small" x="90.00" y="936" text-anchor="middle">-4.00</text>
<text class="small" x="266.67" y="936" text-anchor="middle">-2.00</text>
<text class="small" x="443.33" y="936" text-anchor="middle">0.00</text>
<text class="small" x="620.00" y="936" text-anchor="middle">2.00</text>
<text class="small" x="796.67" y="936" text-anchor="middle">4.00</text>
<text class="small" x="973.33" y="936" text-anchor="middle">6.00</text>
<text class="small" x="1150.00" y="936" text-anchor="middle">8.00</text>
</svg>