<?xml version="1.0" encoding="UTF-8"?>
<svg xmlns="http://www.w3.org/2000/svg" width="1180" height="980" viewBox="0 0 1180 980">
<style>
text { font-family: -apple-system, BlinkMacSystemFont, 'Segoe UI', Roboto, Helvetica, Arial, sans-serif; fill: #111; }
.small { font-size: 12px; fill: #222; }
.title { font-size: 18px; font-weight: 700; }
.axis { stroke: #111; stroke-width: 1.4; }
.grid { stroke: #E6E6E6; stroke-width: 1; }
.event { fill: #FFEB3B; fill-opacity: 0.18; }
.eventline { stroke: #F9A825; stroke-width: 1.2; stroke-dasharray: 4 3; }
.series { fill: none; stroke-width: 1.8; }
</style>
<text class="title" x="90" y="34">ciclo 2 — espera_carregamento — 2025-12-12T13:48:05-03:00 → 2025-12-12T13:49:11-03:00 (span 66s, dur 67s)</text>
<text class="small" x="90" y="54">GPS: -11.697981,-47.155190  hotspot: -11.698,-47.155</text>
<text class="small" x="90" y="70">Janela: -3.00 → 4.10 min (relativo ao início do evento)</text>
<text x="90" y="79.00" font-size="14" font-weight="700">Velocidade (km/h)</text>
<rect class="event" x="443.33" y="85.00" width="97.17" height="192.75" />
<line class="eventline" x1="443.33" y1="85.00" x2="443.33" y2="277.75" />
<line class="eventline" x1="540.50" y1="85.00" x2="540.50" y2="277.75" />
<line class="grid" x1="90" y1="277.75" x2="1150" y2="277.75" />
<text class="small" x="80" y="281.75" text-anchor="end">0.00</text>
<line class="grid" x1="90" y1="239.20" x2="1150" y2="239.20" />
<text class="small" x="80" y="243.20" text-anchor="end">5.00</text>
<line class="grid" x1="90" y1="200.65" x2="1150" y2="200.65" />
<text class="small" x="80" y="204.65" text-anchor="end">10.0</text>
<line class="grid" x1="90" y1="162.10" x2="1150" y2="162.10" />
<text class="small" x="80" y="166.10" text-anchor="end">15.0</text>
<line class="grid" x1="90" y1="123.55" x2="1150" y2="123.55" />
<text class="small" x="80" y="127.55" text-anchor="end">20.0</text>
<line class="grid" x1="90" y1="85.00" x2="1150" y2="85.00" />
<text class="small" x="80" y="89.00" text-anchor="end">25.0</text>
<line class="grid" x1="90.00" y1="85.00" x2="90.00" y2="277.75" />
<line class="grid" x1="266.67" y1="85.00" x2="266.67" y2="277.75" />
<line class="grid" x1="443.33" y1="85.00" x2="443.33" y2="277.75" />
<line class="grid" x1="620.00" y1="85.00" x2="620.00" y2="277.75" />
<line class="grid" x1="796.67" y1="85.00" x2="796.67" y2="277.75" />
<line class="grid" x1="973.33" y1="85.00" x2="973.33" y2="277.75" />
<line class="grid" x1="1150.00" y1="85.00" x2="1150.00" y2="277.75" />
<line class="axis" x1="90" y1="85.00" x2="90" y2="277.75" />
<line class="axis" x1="90" y1="277.75" x2="1150" y2="277.75" />
<path class="series" d="M 178.33 277.75 L 179.81 277.75 L 181.28 277.75 L 182.75 277.75 L 184.22 277.75 L 185.69 277.75 L 187.17 277.75 L 188.64 277.75 L 190.11 277.75 L 191.58 277.75 L 193.06 277.75 L 194.53 277.75 L 196.00 277.75 L 197.47 277.75 L 198.94 277.75 L 200.42 277.75 L 201.89 277.75 L 203.36 277.75 L 204.83 277.75 L 206.31 277.75 L 207.78 277.75 L 209.25 277.75 L 210.72 277.75 L 212.19 277.75 L 213.67 277.75 L 215.14 277.75 L 216.61 277.75 L 218.08 277.75 L 219.56 277.75 L 221.03 277.75 L 222.50 277.75 L 223.97 277.75 L 225.44 277.75 L 226.92 277.75 L 228.39 277.75 L 229.86 277.75 L 231.33 277.75 L 232.81 277.75 L 234.28 277.75 L 235.75 277.75 L 237.22 277.75 L 238.69 277.75 L 240.17 277.75 L 241.64 277.75 L 243.11 277.75 L 244.58 277.75 L 246.06 277.75 L 247.53 277.75 L 249.00 277.75 L 250.47 277.75 L 251.94 277.75 L 253.42 277.75 L 254.89 277.75 L 256.36 277.75 L 257.83 277.75 L 259.31 277.75 L 260.78 254.43 L 262.25 243.33 L 263.72 242.78 L 265.19 237.78 L 266.67 224.74 L 268.14 207.53 L 269.61 196.42 L 271.08 189.49 L 272.56 179.49 L 274.03 167.56 L 275.50 157.29 L 276.97 151.18 L 278.44 145.08 L 279.92 137.03 L 281.39 134.81 L 282.86 140.91 L 284.33 147.85 L 285.81 150.91 L 287.28 150.07 L 288.75 154.79 L 290.22 160.34 L 291.69 153.96 L 293.17 150.91 L 294.64 156.46 L 296.11 155.90 L 297.58 153.13 L 299.06 158.68 L 300.53 167.28 L 302.00 167.00 L 303.47 168.11 L 304.94 175.61 L 306.42 175.61 L 307.89 195.31 L 309.36 206.97 L 310.83 217.24 L 312.31 195.59 L 313.78 211.69 L 315.25 221.96 L 316.72 228.34 L 318.19 223.90 L 319.67 210.58 L 321.14 201.14 L 322.61 198.37 L 324.08 205.58 L 325.56 218.91 L 327.03 220.02 L 328.50 211.69 L 329.97 222.24 L 331.44 216.69 L 332.92 211.41 L 334.39 218.63 L 335.86 226.68 L 337.33 245.28 L 338.81 244.44 L 340.28 211.69 L 341.75 198.92 L 343.22 181.44 L 344.69 167.00 L 346.17 149.52 L 347.64 126.48 L 349.11 124.26 L 350.58 139.53 L 352.06 147.85 L 353.53 152.85 L 355.00 153.96 L 356.47 152.02 L 357.94 162.01 L 359.42 170.06 L 360.89 156.73 L 362.36 132.59 L 363.83 131.48 L 365.31 165.62 L 366.78 158.68 L 368.25 178.94 L 369.72 183.10 L 371.19 188.10 L 372.67 196.70 L 374.14 195.31 L 375.61 176.16 L 377.08 174.50 L 378.56 188.65 L 380.03 173.11 L 381.50 178.94 L 382.97 252.77 L 384.44 232.79 L 385.92 249.44 L 387.39 268.59 L 388.86 277.75 L 390.33 277.75 L 391.81 277.75 L 393.28 277.75 L 394.75 277.75 L 396.22 269.42 L 397.69 265.54 L 399.17 260.54 L 400.64 252.21 L 402.11 254.99 L 403.58 256.93 L 405.06 250.83 L 406.53 246.39 L 408.00 252.49 L 409.47 252.49 L 410.94 249.72 L 412.42 249.44 L 413.89 250.55 L 415.36 252.49 L 416.83 255.82 L 418.31 259.43 L 419.78 260.26 L 421.25 261.10 L 422.72 251.94 L 424.19 257.49 L 425.67 259.99 L 427.14 263.32 L 428.61 264.70 L 430.08 261.37 L 431.56 261.93 L 433.03 267.20 L 434.50 277.75 L 435.97 277.75 L 437.44 277.75 L 438.92 277.75 L 440.39 266.37 L 441.86 264.98 L 443.33 277.75 L 444.81 277.75 L 446.28 277.75 L 447.75 277.75 L 449.22 277.75 L 450.69 277.75 L 452.17 277.75 L 453.64 277.75 L 455.11 277.75 L 456.58 277.75 L 458.06 277.75 L 459.53 277.75 L 461.00 277.75 L 462.47 277.75 L 463.94 277.75 L 465.42 277.75 L 466.89 277.75 L 468.36 277.75 L 469.83 277.75 L 471.31 277.75 L 472.78 277.75 L 474.25 277.75 L 475.72 277.75 L 477.19 277.75 L 478.67 277.75 L 480.14 277.75 L 481.61 277.75 L 483.08 277.75 L 484.56 277.75 L 486.03 277.75 L 487.50 277.75 L 488.97 277.75 L 490.44 277.75 L 491.92 277.75 L 493.39 277.75 L 494.86 277.75 L 496.33 277.75 L 497.81 277.75 L 499.28 277.75 L 500.75 277.75 L 502.22 277.75 L 503.69 277.75 L 505.17 277.75 L 506.64 277.75 L 508.11 277.75 L 509.58 277.75 L 511.06 277.75 L 512.53 277.75 L 514.00 277.75 L 515.47 277.75 L 516.94 277.75 L 518.42 277.75 L 519.89 277.75 L 521.36 277.75 L 522.83 277.75 L 524.31 277.75 L 525.78 277.75 L 527.25 277.75 L 528.72 277.75 L 530.19 277.75 L 531.67 277.75 L 533.14 277.75 L 534.61 277.75 L 536.08 277.75 L 537.56 277.75 L 539.03 277.75 L 540.50 277.75 L 541.97 271.92 L 543.44 277.75 L 544.92 277.75 L 546.39 277.75 L 547.86 277.75 L 549.33 277.75 L 550.81 277.75 L 552.28 277.75 L 553.75 277.75 L 555.22 277.75 L 556.69 277.75 L 558.17 277.75 L 559.64 277.75 L 561.11 277.75 L 562.58 277.75 L 564.06 277.75 L 565.53 277.75 L 567.00 277.75 L 568.47 277.75 L 569.94 277.75 L 571.42 277.75 L 572.89 277.75 L 574.36 277.75 L 575.83 277.75 L 577.31 277.75 L 578.78 277.75 L 580.25 277.75 L 581.72 277.75 L 583.19 277.75 L 584.67 277.75 L 586.14 277.75 L 587.61 277.75 L 589.08 277.75 L 590.56 277.75 L 592.03 277.75 L 593.50 277.75 L 594.97 277.75 L 596.44 277.75 L 597.92 277.75 L 599.39 277.75 L 600.86 277.75 L 602.33 277.75 L 603.81 277.75 L 605.28 277.75 L 606.75 277.75 L 608.22 277.75 L 609.69 277.75 L 611.17 277.75 L 612.64 277.75 L 614.11 277.75 L 615.58 277.75 L 617.06 277.75 L 618.53 277.75 L 620.00 277.75 L 621.47 277.75 L 622.94 277.75 L 624.42 277.75 L 625.89 277.75 L 627.36 277.75 L 628.83 277.75 L 630.31 277.75 L 631.78 277.75 L 633.25 277.75 L 634.72 277.75 L 636.19 277.75 L 637.67 277.75 L 639.14 277.75 L 640.61 277.75 L 642.08 277.75 L 643.56 277.75 L 645.03 277.75 L 646.50 277.75 L 647.97 277.75 L 649.44 277.75 L 650.92 277.75 L 652.39 277.75 L 653.86 277.75 L 655.33 277.75 L 656.81 277.75 L 658.28 277.75 L 659.75 277.75 L 661.22 277.75 L 662.69 277.75 L 664.17 277.75 L 665.64 277.75 L 667.11 277.75 L 668.58 277.75 L 670.06 277.75 L 671.53 277.75 L 673.00 277.75 L 674.47 277.75 L 675.94 277.75 L 677.42 277.75 L 678.89 277.75 L 680.36 277.75 L 681.83 277.75 L 683.31 277.75 L 684.78 277.75 L 686.25 277.75 L 687.72 277.75 L 689.19 277.75 L 690.67 277.75 L 692.14 277.75 L 693.61 277.75 L 695.08 277.75 L 696.56 277.75 L 698.03 277.75 L 699.50 277.75 L 700.97 277.75 L 702.44 277.75 L 703.92 277.75 L 705.39 277.75 L 706.86 277.75 L 708.33 277.75 L 709.81 277.75 L 711.28 277.75 L 712.75 277.75 L 714.22 277.75 L 715.69 277.75 L 717.17 277.75 L 718.64 277.75 L 720.11 277.75 L 721.58 277.75 L 723.06 277.75 L 724.53 277.75 L 726.00 277.75 L 727.47 277.75 L 728.94 277.75 L 730.42 277.75 L 731.89 277.75 L 733.36 277.75 L 734.83 277.75 L 736.31 277.75 L 737.78 277.75 L 739.25 277.75 L 740.72 277.75 L 742.19 277.75 L 743.67 277.75 L 745.14 277.75 L 746.61 277.75 L 748.08 277.75 L 749.56 277.75 L 751.03 277.75 L 752.50 277.75 L 753.97 277.75 L 755.44 277.75 L 756.92 277.75 L 758.39 277.75 L 759.86 277.75 L 761.33 277.75 L 762.81 277.75 L 764.28 277.75 L 765.75 277.75 L 767.22 277.75 L 768.69 277.75 L 770.17 277.75 L 771.64 277.75 L 773.11 269.98 L 774.58 264.15 L 776.06 261.65 L 777.53 248.88 L 779.00 234.45 L 780.47 247.77 L 781.94 260.26 L 783.42 259.99 L 784.89 263.04 L 786.36 266.65 L 787.83 268.59 L 789.31 267.20 L 790.78 266.65 L 792.25 266.37 L 793.72 268.04 L 795.19 268.04 L 796.67 268.31 L 798.14 264.43 L 799.61 266.65 L 801.08 266.37 L 802.56 266.65 L 804.03 261.10 L 805.50 250.83" stroke="#1976D2" />
<text x="90" y="289.75" font-size="14" font-weight="700">Inclinação (graus)</text>
<rect class="event" x="443.33" y="295.75" width="97.17" height="192.75" />
<line class="eventline" x1="443.33" y1="295.75" x2="443.33" y2="488.50" />
<line class="eventline" x1="540.50" y1="295.75" x2="540.50" y2="488.50" />
<line class="grid" x1="90" y1="488.50" x2="1150" y2="488.50" />
<text class="small" x="80" y="492.50" text-anchor="end">-20.0</text>
<line class="grid" x1="90" y1="449.95" x2="1150" y2="449.95" />
<text class="small" x="80" y="453.95" text-anchor="end">-10.0</text>
<line class="grid" x1="90" y1="411.40" x2="1150" y2="411.40" />
<text class="small" x="80" y="415.40" text-anchor="end">0.00</text>
<line class="grid" x1="90" y1="372.85" x2="1150" y2="372.85" />
<text class="small" x="80" y="376.85" text-anchor="end">10.0</text>
<line class="grid" x1="90" y1="334.30" x2="1150" y2="334.30" />
<text class="small" x="80" y="338.30" text-anchor="end">20.0</text>
<line class="grid" x1="90" y1="295.75" x2="1150" y2="295.75" />
<text class="small" x="80" y="299.75" text-anchor="end">30.0</text>
<line class="grid" x1="90.00" y1="295.75" x2="90.00" y2="488.50" />
<line class="grid" x1="266.67" y1="295.75" x2="266.67" y2="488.50" />
<line class="grid" x1="443.33" y1="295.75" x2="443.33" y2="488.50" />
<line class="grid" x1="620.00" y1="295.75" x2="620.00" y2="488.50" />
<line class="grid" x1="796.67" y1="295.75" x2="796.67" y2="488.50" />
<line class="grid" x1="973.33" y1="295.75" x2="973.33" y2="488.50" />
<line class="grid" x1="1150.00" y1="295.75" x2="1150.00" y2="488.50" />
<line class="axis" x1="90" y1="295.75" x2="90" y2="488.50" />
<line class="axis" x1="90" y1="488.50" x2="1150" y2="488.50" />
<path class="series" d="M 178.33 344.18 L 179.81 342.29 L 181.28 342.93 L 182.75 343.12 L 184.22 342.98 L 185.69 342.97 L 187.17 343.02 L 188.64 343.01 L 190.11 343.01 L 191.58 343.06 L 193.06 343.09 L 194.53 342.99 L 196.00 343.13 L 197.47 343.08 L 198.94 343.07 L 200.42 343.12 L 201.89 343.09 L 203.36 343.07 L 204.83 343.04 L 206.31 343.08 L 207.78 343.04 L 209.25 343.15 L 210.72 343.18 L 212.19 343.06 L 213.67 343.16 L 215.14 343.10 L 216.61 343.08 L 218.08 343.09 L 219.56 343.01 L 221.03 343.02 L 222.50 343.16 L 223.97 343.08 L 225.44 343.12 L 226.92 343.11 L 228.39 343.06 L 229.86 343.04 L 231.33 343.10 L 232.81 343.08 L 234.28 343.08 L 235.75 343.17 L 237.22 343.12 L 238.69 343.04 L 240.17 343.12 L 241.64 343.11 L 243.11 343.05 L 244.58 343.14 L 246.06 343.09 L 247.53 343.06 L 249.00 343.14 L 250.47 343.13 L 251.94 343.07 L 253.42 343.11 L 254.89 343.15 L 256.36 343.40 L 257.83 343.16 L 259.31 363.35 L 260.78 342.39 L 262.25 352.37 L 263.72 347.82 L 265.19 358.10 L 266.67 367.53 L 268.14 363.19 L 269.61 343.05 L 271.08 343.33 L 272.56 346.48 L 274.03 343.46 L 275.50 340.54 L 276.97 344.89 L 278.44 350.37 L 279.92 341.81 L 281.39 333.43 L 282.86 342.12 L 284.33 341.86 L 285.81 346.82 L 287.28 335.22 L 288.75 337.34 L 290.22 352.68 L 291.69 340.68 L 293.17 327.81 L 294.64 343.36 L 296.11 333.03 L 297.58 336.15 L 299.06 336.15 L 300.53 332.55 L 302.00 349.42 L 303.47 343.20 L 304.94 334.85 L 306.42 342.37 L 307.89 345.33 L 309.36 359.84 L 310.83 347.86 L 312.31 337.18 L 313.78 334.38 L 315.25 325.02 L 316.72 351.31 L 318.19 346.81 L 319.67 326.09 L 321.14 332.81 L 322.61 327.22 L 324.08 336.34 L 325.56 331.72 L 327.03 336.32 L 328.50 333.53 L 329.97 338.10 L 331.44 339.98 L 332.92 349.05 L 334.39 344.13 L 335.86 352.95 L 337.33 351.94 L 338.81 362.34 L 340.28 364.46 L 341.75 369.43 L 343.22 381.02 L 344.69 379.84 L 346.17 388.05 L 347.64 379.93 L 349.11 366.37 L 350.58 364.16 L 352.06 352.34 L 353.53 351.78 L 355.00 362.59 L 356.47 383.54 L 357.94 379.07 L 359.42 379.83 L 360.89 381.46 L 362.36 368.14 L 363.83 348.21 L 365.31 353.16 L 366.78 368.81 L 368.25 342.74 L 369.72 331.21 L 371.19 323.53 L 372.67 344.94 L 374.14 365.63 L 375.61 349.27 L 377.08 342.12 L 378.56 375.07 L 380.03 364.37 L 381.50 350.07 L 382.97 351.92 L 384.44 361.79 L 385.92 350.18 L 387.39 366.65 L 388.86 376.74 L 390.33 375.03 L 391.81 384.93 L 393.28 380.40 L 394.75 373.22 L 396.22 375.99 L 397.69 378.44 L 399.17 373.83 L 400.64 388.75 L 402.11 382.82 L 403.58 377.72 L 405.06 377.75 L 406.53 375.75 L 408.00 373.67 L 409.47 376.88 L 410.94 377.28 L 412.42 382.18 L 413.89 380.35 L 415.36 383.03 L 416.83 382.92 L 418.31 376.93 L 419.78 370.95 L 421.25 374.44 L 422.72 379.03 L 424.19 379.22 L 425.67 378.95 L 427.14 376.97 L 428.61 373.59 L 430.08 375.24 L 431.56 382.24 L 433.03 384.34 L 434.50 381.26 L 435.97 378.06 L 437.44 377.32 L 438.92 364.34 L 440.39 379.48 L 441.86 387.64 L 443.33 383.67 L 444.81 380.10 L 446.28 380.07 L 447.75 380.43 L 449.22 379.66 L 450.69 379.98 L 452.17 379.95 L 453.64 380.05 L 455.11 380.10 L 456.58 380.06 L 458.06 379.82 L 459.53 379.90 L 461.00 379.88 L 462.47 379.81 L 463.94 379.92 L 465.42 379.87 L 466.89 379.88 L 468.36 379.89 L 469.83 379.92 L 471.31 379.87 L 472.78 379.88 L 474.25 379.91 L 475.72 379.88 L 477.19 379.93 L 478.67 379.86 L 480.14 379.92 L 481.61 379.96 L 483.08 379.90 L 484.56 379.92 L 486.03 379.95 L 487.50 379.91 L 488.97 379.89 L 490.44 379.94 L 491.92 379.93 L 493.39 379.90 L 494.86 379.91 L 496.33 379.84 L 497.81 379.88 L 499.28 379.97 L 500.75 379.87 L 502.22 379.93 L 503.69 379.90 L 505.17 379.87 L 506.64 379.87 L 508.11 379.93 L 509.58 379.90 L 511.06 379.90 L 512.53 379.86 L 514.00 379.90 L 515.47 379.92 L 516.94 379.88 L 518.42 379.91 L 519.89 379.90 L 521.36 379.87 L 522.83 379.97 L 524.31 379.87 L 525.78 379.84 L 527.25 379.89 L 528.72 379.85 L 530.19 379.85 L 531.67 379.96 L 533.14 380.20 L 534.61 378.98 L 536.08 379.02 L 537.56 379.10 L 539.03 378.83 L 540.50 379.64 L 541.97 368.20 L 543.44 390.97 L 544.92 381.82 L 546.39 382.52 L 547.86 380.48 L 549.33 381.83 L 550.81 380.64 L 552.28 380.56 L 553.75 381.00 L 555.22 380.97 L 556.69 380.94 L 558.17 380.91 L 559.64 380.99 L 561.11 380.96 L 562.58 380.98 L 564.06 380.93 L 565.53 380.98 L 567.00 380.92 L 568.47 380.88 L 569.94 381.06 L 571.42 380.85 L 572.89 379.20 L 574.36 379.56 L 575.83 379.63 L 577.31 379.72 L 578.78 379.74 L 580.25 379.65 L 581.72 379.66 L 583.19 379.68 L 584.67 379.64 L 586.14 379.64 L 587.61 379.69 L 589.08 379.54 L 590.56 379.63 L 592.03 379.68 L 593.50 379.63 L 594.97 379.66 L 596.44 379.59 L 597.92 379.65 L 599.39 379.61 L 600.86 379.35 L 602.33 379.72 L 603.81 378.73 L 605.28 379.48 L 606.75 379.80 L 608.22 379.10 L 609.69 379.31 L 611.17 379.24 L 612.64 379.20 L 614.11 379.20 L 615.58 379.14 L 617.06 379.18 L 618.53 379.18 L 620.00 379.22 L 621.47 379.18 L 622.94 379.21 L 624.42 379.15 L 625.89 379.15 L 627.36 379.16 L 628.83 379.20 L 630.31 379.16 L 631.78 379.20 L 633.25 379.33 L 634.72 379.66 L 636.19 376.84 L 637.67 377.95 L 639.14 378.39 L 640.61 378.01 L 642.08 378.05 L 643.56 378.00 L 645.03 378.04 L 646.50 378.02 L 647.97 378.01 L 649.44 378.04 L 650.92 378.03 L 652.39 378.02 L 653.86 378.04 L 655.33 377.98 L 656.81 377.95 L 658.28 377.94 L 659.75 377.91 L 661.22 377.92 L 662.69 377.93 L 664.17 377.90 L 665.64 377.92 L 667.11 377.90 L 668.58 377.92 L 670.06 377.96 L 671.53 378.29 L 673.00 377.98 L 674.47 377.27 L 675.94 377.00 L 677.42 377.28 L 678.89 377.61 L 680.36 377.48 L 681.83 377.38 L 683.31 377.56 L 684.78 377.44 L 686.25 377.42 L 687.72 377.38 L 689.19 377.46 L 690.67 377.40 L 692.14 377.38 L 693.61 377.38 L 695.08 377.37 L 696.56 377.37 L 698.03 377.42 L 699.50 377.38 L 700.97 377.36 L 702.44 377.35 L 703.92 377.39 L 705.39 377.33 L 706.86 377.41 L 708.33 377.30 L 709.81 377.89 L 711.28 379.22 L 712.75 378.42 L 714.22 378.54 L 715.69 378.54 L 717.17 378.56 L 718.64 378.63 L 720.11 378.71 L 721.58 378.63 L 723.06 378.59 L 724.53 378.59 L 726.00 378.65 L 727.47 378.66 L 728.94 378.55 L 730.42 378.65 L 731.89 378.65 L 733.36 378.66 L 734.83 378.63 L 736.31 378.61 L 737.78 378.62 L 739.25 378.59 L 740.72 378.68 L 742.19 378.68 L 743.67 378.60 L 745.14 378.81 L 746.61 380.88 L 748.08 378.76 L 749.56 380.04 L 751.03 380.17 L 752.50 380.25 L 753.97 380.22 L 755.44 380.17 L 756.92 380.09 L 758.39 380.02 L 759.86 380.06 L 761.33 380.04 L 762.81 380.11 L 764.28 380.75 L 765.75 380.24 L 767.22 379.97 L 768.69 380.68 L 770.17 380.22 L 771.64 383.57 L 773.11 390.49 L 774.58 378.72 L 776.06 386.65 L 777.53 383.67 L 779.00 384.39 L 780.47 361.36 L 781.94 370.20 L 783.42 376.54 L 784.89 373.84 L 786.36 374.68 L 787.83 376.62 L 789.31 376.59 L 790.78 375.47 L 792.25 373.31 L 793.72 372.22 L 795.19 372.10 L 796.67 374.02 L 798.14 371.72 L 799.61 368.23 L 801.08 369.49 L 802.56 371.47 L 804.03 377.43 L 805.50 377.58" stroke="#2E7D32" />
<path class="series" d="M 178.33 392.42 L 179.81 392.46 L 181.28 392.08 L 182.75 392.46 L 184.22 392.03 L 185.69 392.25 L 187.17 392.31 L 188.64 392.17 L 190.11 392.21 L 191.58 392.27 L 193.06 392.24 L 194.53 392.29 L 196.00 392.29 L 197.47 392.20 L 198.94 392.30 L 200.42 392.32 L 201.89 392.25 L 203.36 392.25 L 204.83 392.21 L 206.31 392.23 L 207.78 392.25 L 209.25 392.24 L 210.72 392.23 L 212.19 392.23 L 213.67 392.30 L 215.14 392.20 L 216.61 392.17 L 218.08 392.23 L 219.56 392.23 L 221.03 392.24 L 222.50 392.25 L 223.97 392.17 L 225.44 392.28 L 226.92 392.27 L 228.39 392.19 L 229.86 392.18 L 231.33 392.24 L 232.81 392.29 L 234.28 392.28 L 235.75 392.27 L 237.22 392.27 L 238.69 392.23 L 240.17 392.30 L 241.64 392.20 L 243.11 392.19 L 244.58 392.26 L 246.06 392.20 L 247.53 392.26 L 249.00 392.20 L 250.47 392.19 L 251.94 392.23 L 253.42 392.26 L 254.89 392.25 L 256.36 392.43 L 257.83 390.95 L 259.31 402.80 L 260.78 393.25 L 262.25 395.26 L 263.72 397.12 L 265.19 402.16 L 266.67 401.49 L 268.14 404.70 L 269.61 401.60 L 271.08 402.22 L 272.56 406.16 L 274.03 413.33 L 275.50 408.29 L 276.97 401.55 L 278.44 402.38 L 279.92 403.26 L 281.39 405.86 L 282.86 404.80 L 284.33 409.36 L 285.81 414.24 L 287.28 429.16 L 288.75 429.47 L 290.22 412.30 L 291.69 422.63 L 293.17 415.90 L 294.64 409.50 L 296.11 410.95 L 297.58 415.65 L 299.06 415.65 L 300.53 414.28 L 302.00 406.94 L 303.47 403.23 L 304.94 406.40 L 306.42 413.24 L 307.89 412.24 L 309.36 424.57 L 310.83 430.19 L 312.31 434.24 L 313.78 406.62 L 315.25 392.55 L 316.72 403.99 L 318.19 415.06 L 319.67 417.66 L 321.14 410.36 L 322.61 415.78 L 324.08 424.54 L 325.56 435.53 L 327.03 440.41 L 328.50 435.23 L 329.97 438.73 L 331.44 429.26 L 332.92 431.69 L 334.39 428.99 L 335.86 427.24 L 337.33 422.11 L 338.81 423.94 L 340.28 416.27 L 341.75 411.49 L 343.22 419.18 L 344.69 411.89 L 346.17 417.22 L 347.64 413.32 L 349.11 404.34 L 350.58 407.29 L 352.06 414.61 L 353.53 412.51 L 355.00 409.85 L 356.47 400.97 L 357.94 406.22 L 359.42 405.80 L 360.89 399.68 L 362.36 397.11 L 363.83 394.82 L 365.31 392.17 L 366.78 404.47 L 368.25 410.79 L 369.72 408.51 L 371.19 410.97 L 372.67 415.86 L 374.14 417.79 L 375.61 446.35 L 377.08 441.84 L 378.56 442.29 L 380.03 438.95 L 381.50 440.07 L 382.97 432.31 L 384.44 427.37 L 385.92 405.54 L 387.39 418.40 L 388.86 416.90 L 390.33 420.01 L 391.81 421.89 L 393.28 420.25 L 394.75 420.90 L 396.22 421.07 L 397.69 424.31 L 399.17 424.52 L 400.64 420.04 L 402.11 421.52 L 403.58 421.04 L 405.06 420.97 L 406.53 415.13 L 408.00 416.97 L 409.47 427.40 L 410.94 420.98 L 412.42 424.18 L 413.89 420.85 L 415.36 420.83 L 416.83 416.76 L 418.31 419.98 L 419.78 424.52 L 421.25 411.01 L 422.72 418.86 L 424.19 417.74 L 425.67 406.91 L 427.14 410.30 L 428.61 413.05 L 430.08 415.10 L 431.56 407.38 L 433.03 410.57 L 434.50 413.39 L 435.97 410.99 L 437.44 412.48 L 438.92 409.98 L 440.39 410.55 L 441.86 414.06 L 443.33 414.00 L 444.81 413.43 L 446.28 413.60 L 447.75 413.77 L 449.22 413.41 L 450.69 413.59 L 452.17 413.51 L 453.64 413.57 L 455.11 413.58 L 456.58 413.68 L 458.06 413.58 L 459.53 413.58 L 461.00 413.55 L 462.47 413.58 L 463.94 413.57 L 465.42 413.58 L 466.89 413.60 L 468.36 413.60 L 469.83 413.60 L 471.31 413.61 L 472.78 413.53 L 474.25 413.57 L 475.72 413.60 L 477.19 413.62 L 478.67 413.62 L 480.14 413.60 L 481.61 413.60 L 483.08 413.62 L 484.56 413.62 L 486.03 413.61 L 487.50 413.56 L 488.97 413.67 L 490.44 413.65 L 491.92 413.62 L 493.39 413.64 L 494.86 413.60 L 496.33 413.66 L 497.81 413.65 L 499.28 413.63 L 500.75 413.55 L 502.22 413.70 L 503.69 413.64 L 505.17 413.62 L 506.64 413.59 L 508.11 413.59 L 509.58 413.63 L 511.06 413.63 L 512.53 413.63 L 514.00 413.59 L 515.47 413.60 L 516.94 413.64 L 518.42 413.68 L 519.89 413.62 L 521.36 413.60 L 522.83 413.63 L 524.31 413.64 L 525.78 413.66 L 527.25 413.61 L 528.72 413.61 L 530.19 413.64 L 531.67 413.68 L 533.14 413.36 L 534.61 413.95 L 536.08 413.32 L 537.56 413.70 L 539.03 413.19 L 540.50 414.69 L 541.97 411.15 L 543.44 415.74 L 544.92 414.38 L 546.39 415.97 L 547.86 413.91 L 549.33 414.78 L 550.81 414.58 L 552.28 414.65 L 553.75 414.74 L 555.22 414.68 L 556.69 414.75 L 558.17 414.56 L 559.64 414.67 L 561.11 414.74 L 562.58 414.60 L 564.06 414.67 L 565.53 414.63 L 567.00 414.70 L 568.47 414.75 L 569.94 414.49 L 571.42 415.92 L 572.89 415.79 L 574.36 414.49 L 575.83 415.71 L 577.31 415.20 L 578.78 415.40 L 580.25 415.40 L 581.72 415.36 L 583.19 415.41 L 584.67 415.29 L 586.14 415.44 L 587.61 415.50 L 589.08 415.29 L 590.56 415.33 L 592.03 415.46 L 593.50 415.38 L 594.97 415.47 L 596.44 415.40 L 597.92 415.44 L 599.39 415.37 L 600.86 415.34 L 602.33 415.84 L 603.81 416.23 L 605.28 415.77 L 606.75 414.11 L 608.22 415.15 L 609.69 416.04 L 611.17 414.91 L 612.64 414.90 L 614.11 415.60 L 615.58 415.22 L 617.06 415.08 L 618.53 415.27 L 620.00 415.33 L 621.47 415.16 L 622.94 415.28 L 624.42 415.22 L 625.89 415.20 L 627.36 415.27 L 628.83 415.30 L 630.31 415.17 L 631.78 415.23 L 633.25 415.20 L 634.72 414.67 L 636.19 415.41 L 637.67 415.33 L 639.14 415.14 L 640.61 414.74 L 642.08 414.87 L 643.56 414.91 L 645.03 414.99 L 646.50 414.96 L 647.97 414.92 L 649.44 414.91 L 650.92 414.92 L 652.39 414.96 L 653.86 415.01 L 655.33 414.92 L 656.81 414.88 L 658.28 414.96 L 659.75 414.95 L 661.22 414.94 L 662.69 414.94 L 664.17 414.94 L 665.64 414.92 L 667.11 414.96 L 668.58 414.92 L 670.06 415.09 L 671.53 415.82 L 673.00 414.43 L 674.47 414.10 L 675.94 414.44 L 677.42 414.40 L 678.89 414.38 L 680.36 414.37 L 681.83 414.35 L 683.31 414.33 L 684.78 414.36 L 686.25 414.39 L 687.72 414.36 L 689.19 414.40 L 690.67 414.32 L 692.14 414.38 L 693.61 414.36 L 695.08 414.40 L 696.56 414.32 L 698.03 414.37 L 699.50 414.34 L 700.97 414.35 L 702.44 414.37 L 703.92 414.35 L 705.39 414.33 L 706.86 414.35 L 708.33 414.44 L 709.81 415.61 L 711.28 412.86 L 712.75 414.65 L 714.22 413.81 L 715.69 414.13 L 717.17 414.19 L 718.64 413.95 L 720.11 414.17 L 721.58 414.12 L 723.06 414.07 L 724.53 414.02 L 726.00 414.09 L 727.47 414.08 L 728.94 414.08 L 730.42 414.05 L 731.89 414.05 L 733.36 414.06 L 734.83 414.08 L 736.31 414.04 L 737.78 414.10 L 739.25 414.01 L 740.72 414.10 L 742.19 414.06 L 743.67 414.05 L 745.14 413.87 L 746.61 415.00 L 748.08 413.80 L 749.56 415.11 L 751.03 414.55 L 752.50 414.67 L 753.97 414.56 L 755.44 414.52 L 756.92 414.49 L 758.39 414.50 L 759.86 414.43 L 761.33 414.43 L 762.81 414.51 L 764.28 414.15 L 765.75 414.96 L 767.22 414.43 L 768.69 415.04 L 770.17 414.45 L 771.64 414.91 L 773.11 414.34 L 774.58 412.17 L 776.06 411.49 L 777.53 411.68 L 779.00 415.69 L 780.47 413.13 L 781.94 420.15 L 783.42 416.54 L 784.89 417.74 L 786.36 416.87 L 787.83 415.67 L 789.31 416.52 L 790.78 417.81 L 792.25 416.18 L 793.72 416.35 L 795.19 416.84 L 796.67 417.59 L 798.14 416.31 L 799.61 414.85 L 801.08 413.74 L 802.56 411.35 L 804.03 412.73 L 805.50 404.96" stroke="#6A1B9A" />
<line x1="900.00" y1="307.75" x2="918.00" y2="307.75" stroke="#2E7D32" stroke-width="3" />
<text class="small" x="924.00" y="311.75">pitch</text>
<line x1="900.00" y1="323.75" x2="918.00" y2="323.75" stroke="#6A1B9A" stroke-width="3" />
<text class="small" x="924.00" y="327.75">roll</text>
<text x="90" y="500.50" font-size="14" font-weight="700">Aceleração (magnitude) (u.a.)</text>
<rect class="event" x="443.33" y="506.50" width="97.17" height="192.75" />
<line class="eventline" x1="443.33" y1="506.50" x2="443.33" y2="699.25" />
<line class="eventline" x1="540.50" y1="506.50" x2="540.50" y2="699.25" />
<line class="grid" x1="90" y1="699.25" x2="1150" y2="699.25" />
<text class="small" x="80" y="703.25" text-anchor="end">0.00</text>
<line class="grid" x1="90" y1="660.70" x2="1150" y2="660.70" />
<text class="small" x="80" y="664.70" text-anchor="end">0.50</text>
<line class="grid" x1="90" y1="622.15" x2="1150" y2="622.15" />
<text class="small" x="80" y="626.15" text-anchor="end">1.00</text>
<line class="grid" x1="90" y1="583.60" x2="1150" y2="583.60" />
<text class="small" x="80" y="587.60" text-anchor="end">1.50</text>
<line class="grid" x1="90" y1="545.05" x2="1150" y2="545.05" />
<text class="small" x="80" y="549.05" text-anchor="end">2.00</text>
<line class="grid" x1="90" y1="506.50" x2="1150" y2="506.50" />
<text class="small" x="80" y="510.50" text-anchor="end">2.50</text>
<line class="grid" x1="90.00" y1="506.50" x2="90.00" y2="699.25" />
<line class="grid" x1="266.67" y1="506.50" x2="266.67" y2="699.25" />
<line class="grid" x1="443.33" y1="506.50" x2="443.33" y2="699.25" />
<line class="grid" x1="620.00" y1="506.50" x2="620.00" y2="699.25" />
<line class="grid" x1="796.67" y1="506.50" x2="796.67" y2="699.25" />
<line class="grid" x1="973.33" y1="506.50" x2="973.33" y2="699.25" />
<line class="grid" x1="1150.00" y1="506.50" x2="1150.00" y2="699.25" />
<line class="axis" x1="90" y1="506.50" x2="90" y2="699.25" />
<line class="axis" x1="90" y1="699.25" x2="1150" y2="699.25" />
<path class="series" d="M 178.33 697.65 L 179.81 691.78 L 181.28 698.40 L 182.75 698.27 L 184.22 698.74 L 185.69 698.63 L 187.17 698.75 L 188.64 699.06 L 190.11 699.02 L 191.58 698.86 L 193.06 698.98 L 194.53 699.00 L 196.00 698.81 L 197.47 698.98 L 198.94 699.11 L 200.42 698.93 L 201.89 699.00 L 203.36 699.00 L 204.83 699.01 L 206.31 699.01 L 207.78 698.92 L 209.25 699.09 L 210.72 699.20 L 212.19 699.03 L 213.67 699.08 L 215.14 698.88 L 216.61 698.84 L 218.08 698.68 L 219.56 699.03 L 221.03 699.04 L 222.50 698.87 L 223.97 699.02 L 225.44 698.98 L 226.92 698.95 L 228.39 698.94 L 229.86 698.96 L 231.33 699.04 L 232.81 698.87 L 234.28 698.81 L 235.75 698.75 L 237.22 698.88 L 238.69 698.96 L 240.17 698.84 L 241.64 698.75 L 243.11 698.89 L 244.58 698.90 L 246.06 698.64 L 247.53 698.80 L 249.00 698.87 L 250.47 699.04 L 251.94 698.99 L 253.42 699.10 L 254.89 699.02 L 256.36 699.15 L 257.83 690.80 L 259.31 642.85 L 260.78 680.90 L 262.25 690.22 L 263.72 684.18 L 265.19 673.11 L 266.67 673.83 L 268.14 663.85 L 269.61 689.39 L 271.08 687.41 L 272.56 693.37 L 274.03 690.15 L 275.50 691.24 L 276.97 683.94 L 278.44 676.13 L 279.92 693.00 L 281.39 667.82 L 282.86 667.13 L 284.33 665.21 L 285.81 688.55 L 287.28 653.72 L 288.75 645.52 L 290.22 663.60 L 291.69 676.00 L 293.17 682.52 L 294.64 686.63 L 296.11 681.78 L 297.58 680.30 L 299.06 686.25 L 300.53 685.38 L 302.00 681.00 L 303.47 679.97 L 304.94 660.84 L 306.42 667.24 L 307.89 656.10 L 309.36 657.43 L 310.83 663.26 L 312.31 662.54 L 313.78 619.16 L 315.25 667.22 L 316.72 666.80 L 318.19 648.72 L 319.67 642.60 L 321.14 632.69 L 322.61 679.03 L 324.08 683.42 L 325.56 695.21 L 327.03 695.21 L 328.50 671.84 L 329.97 667.21 L 331.44 661.81 L 332.92 671.88 L 334.39 681.94 L 335.86 674.83 L 337.33 677.57 L 338.81 660.95 L 340.28 675.04 L 341.75 679.51 L 343.22 664.96 L 344.69 669.77 L 346.17 679.53 L 347.64 678.69 L 349.11 644.39 L 350.58 622.42 L 352.06 618.97 L 353.53 666.74 L 355.00 680.49 L 356.47 660.94 L 357.94 684.26 L 359.42 681.36 L 360.89 682.37 L 362.36 676.03 L 363.83 645.43 L 365.31 655.39 L 366.78 681.36 L 368.25 656.60 L 369.72 674.70 L 371.19 626.45 L 372.67 649.53 L 374.14 649.36 L 375.61 612.30 L 377.08 618.88 L 378.56 642.82 L 380.03 660.80 L 381.50 619.92 L 382.97 622.29 L 384.44 620.44 L 385.92 567.08 L 387.39 661.28 L 388.86 672.73 L 390.33 683.62 L 391.81 668.09 L 393.28 689.72 L 394.75 674.51 L 396.22 694.62 L 397.69 689.97 L 399.17 670.45 L 400.64 670.36 L 402.11 688.27 L 403.58 691.81 L 405.06 693.38 L 406.53 667.55 L 408.00 688.32 L 409.47 694.47 L 410.94 694.17 L 412.42 690.73 L 413.89 692.34 L 415.36 689.46 L 416.83 696.08 L 418.31 696.69 L 419.78 681.98 L 421.25 658.75 L 422.72 692.13 L 424.19 679.19 L 425.67 694.27 L 427.14 694.21 L 428.61 697.26 L 430.08 689.36 L 431.56 690.56 L 433.03 686.72 L 434.50 691.51 L 435.97 697.30 L 437.44 688.63 L 438.92 685.13 L 440.39 682.14 L 441.86 679.97 L 443.33 692.54 L 444.81 696.71 L 446.28 698.65 L 447.75 698.15 L 449.22 698.15 L 450.69 698.43 L 452.17 699.02 L 453.64 698.94 L 455.11 698.86 L 456.58 699.05 L 458.06 698.71 L 459.53 698.83 L 461.00 698.91 L 462.47 698.75 L 463.94 698.93 L 465.42 699.20 L 466.89 698.89 L 468.36 699.00 L 469.83 699.00 L 471.31 698.96 L 472.78 698.98 L 474.25 699.01 L 475.72 699.05 L 477.19 698.97 L 478.67 699.01 L 480.14 699.21 L 481.61 699.16 L 483.08 698.92 L 484.56 698.83 L 486.03 698.94 L 487.50 698.94 L 488.97 699.12 L 490.44 699.10 L 491.92 699.12 L 493.39 699.05 L 494.86 699.09 L 496.33 699.07 L 497.81 699.13 L 499.28 699.07 L 500.75 699.15 L 502.22 699.12 L 503.69 699.03 L 505.17 699.10 L 506.64 699.07 L 508.11 699.10 L 509.58 699.18 L 511.06 699.10 L 512.53 699.09 L 514.00 699.08 L 515.47 699.14 L 516.94 699.10 L 518.42 699.21 L 519.89 699.13 L 521.36 699.02 L 522.83 699.08 L 524.31 699.01 L 525.78 699.09 L 527.25 699.09 L 528.72 699.08 L 530.19 698.81 L 531.67 699.07 L 533.14 698.03 L 534.61 697.33 L 536.08 698.89 L 537.56 698.80 L 539.03 696.45 L 540.50 664.47 L 541.97 652.16 L 543.44 686.79 L 544.92 690.27 L 546.39 698.00 L 547.86 698.06 L 549.33 693.40 L 550.81 698.29 L 552.28 698.70 L 553.75 698.78 L 555.22 698.27 L 556.69 698.77 L 558.17 699.00 L 559.64 698.86 L 561.11 699.05 L 562.58 698.85 L 564.06 698.97 L 565.53 698.92 L 567.00 698.92 L 568.47 698.37 L 569.94 690.83 L 571.42 690.83 L 572.89 689.15 L 574.36 695.41 L 575.83 697.48 L 577.31 698.68 L 578.78 698.47 L 580.25 698.90 L 581.72 698.74 L 583.19 698.80 L 584.67 698.91 L 586.14 699.09 L 587.61 698.70 L 589.08 698.64 L 590.56 698.96 L 592.03 698.94 L 593.50 699.00 L 594.97 698.94 L 596.44 698.96 L 597.92 698.98 L 599.39 698.99 L 600.86 693.32 L 602.33 691.30 L 603.81 689.11 L 605.28 690.47 L 606.75 696.91 L 608.22 695.73 L 609.69 697.13 L 611.17 697.94 L 612.64 697.56 L 614.11 698.78 L 615.58 698.45 L 617.06 698.51 L 618.53 698.85 L 620.00 698.81 L 621.47 698.89 L 622.94 698.94 L 624.42 699.07 L 625.89 698.80 L 627.36 698.94 L 628.83 699.02 L 630.31 699.02 L 631.78 699.14 L 633.25 698.53 L 634.72 697.32 L 636.19 689.94 L 637.67 697.20 L 639.14 696.75 L 640.61 697.97 L 642.08 698.78 L 643.56 699.00 L 645.03 698.88 L 646.50 699.02 L 647.97 698.99 L 649.44 699.04 L 650.92 699.04 L 652.39 699.11 L 653.86 699.05 L 655.33 699.18 L 656.81 698.93 L 658.28 699.08 L 659.75 699.13 L 661.22 699.09 L 662.69 699.03 L 664.17 699.16 L 665.64 699.12 L 667.11 699.11 L 668.58 699.18 L 670.06 696.75 L 671.53 690.09 L 673.00 695.25 L 674.47 695.16 L 675.94 696.87 L 677.42 698.83 L 678.89 698.61 L 680.36 698.82 L 681.83 699.05 L 683.31 699.03 L 684.78 699.00 L 686.25 699.08 L 687.72 698.91 L 689.19 699.02 L 690.67 699.07 L 692.14 699.14 L 693.61 699.14 L 695.08 698.99 L 696.56 699.04 L 698.03 699.03 L 699.50 699.09 L 700.97 698.98 L 702.44 698.89 L 703.92 699.04 L 705.39 698.81 L 706.86 698.74 L 708.33 698.84 L 709.81 698.07 L 711.28 695.36 L 712.75 694.02 L 714.22 694.63 L 715.69 697.24 L 717.17 698.74 L 718.64 699.05 L 720.11 698.85 L 721.58 699.03 L 723.06 699.03 L 724.53 698.98 L 726.00 698.95 L 727.47 698.92 L 728.94 699.12 L 730.42 699.15 L 731.89 699.14 L 733.36 699.03 L 734.83 698.86 L 736.31 699.12 L 737.78 699.04 L 739.25 699.03 L 740.72 699.16 L 742.19 699.05 L 743.67 698.90 L 745.14 697.54 L 746.61 685.36 L 748.08 693.09 L 749.56 696.85 L 751.03 698.39 L 752.50 698.37 L 753.97 698.74 L 755.44 698.79 L 756.92 698.96 L 758.39 698.98 L 759.86 698.97 L 761.33 698.99 L 762.81 698.61 L 764.28 696.95 L 765.75 697.37 L 767.22 697.44 L 768.69 697.10 L 770.17 697.30 L 771.64 683.47 L 773.11 696.23 L 774.58 690.56 L 776.06 681.47 L 777.53 669.99 L 779.00 668.84 L 780.47 649.79 L 781.94 680.61 L 783.42 686.00 L 784.89 694.80 L 786.36 695.83 L 787.83 690.63 L 789.31 695.95 L 790.78 694.20 L 792.25 695.65 L 793.72 696.64 L 795.19 695.36 L 796.67 695.87 L 798.14 692.80 L 799.61 694.47 L 801.08 693.71 L 802.56 684.66 L 804.03 679.55 L 805.50 683.42" stroke="#FB8C00" />
<text x="90" y="711.25" font-size="14" font-weight="700">Giroscópio (magnitude) (u.a.)</text>
<rect class="event" x="443.33" y="717.25" width="97.17" height="192.75" />
<line class="eventline" x1="443.33" y1="717.25" x2="443.33" y2="910.00" />
<line class="eventline" x1="540.50" y1="717.25" x2="540.50" y2="910.00" />
<line class="grid" x1="90" y1="910.00" x2="1150" y2="910.00" />
<text class="small" x="80" y="914.00" text-anchor="end">0.00</text>
<line class="grid" x1="90" y1="871.45" x2="1150" y2="871.45" />
<text class="small" x="80" y="875.45" text-anchor="end">0.10</text>
<line class="grid" x1="90" y1="832.90" x2="1150" y2="832.90" />
<text class="small" x="80" y="836.90" text-anchor="end">0.20</text>
<line class="grid" x1="90" y1="794.35" x2="1150" y2="794.35" />
<text class="small" x="80" y="798.35" text-anchor="end">0.30</text>
<line class="grid" x1="90" y1="755.80" x2="1150" y2="755.80" />
<text class="small" x="80" y="759.80" text-anchor="end">0.40</text>
<line class="grid" x1="90" y1="717.25" x2="1150" y2="717.25" />
<text class="small" x="80" y="721.25" text-anchor="end">0.50</text>
<line class="grid" x1="90.00" y1="717.25" x2="90.00" y2="910.00" />
<line class="grid" x1="266.67" y1="717.25" x2="266.67" y2="910.00" />
<line class="grid" x1="443.33" y1="717.25" x2="443.33" y2="910.00" />
<line class="grid" x1="620.00" y1="717.25" x2="620.00" y2="910.00" />
<line class="grid" x1="796.67" y1="717.25" x2="796.67" y2="910.00" />
<line class="grid" x1="973.33" y1="717.25" x2="973.33" y2="910.00" />
<line class="grid" x1="1150.00" y1="717.25" x2="1150.00" y2="910.00" />
<line class="axis" x1="90" y1="717.25" x2="90" y2="910.00" />
<line class="axis" x1="90" y1="910.00" x2="1150" y2="910.00" />
<path class="series" d="M 178.33 909.47 L 179.81 909.83 L 181.28 909.87 L 182.75 909.88 L 184.22 909.88 L 185.69 909.85 L 187.17 909.86 L 188.64 909.86 L 190.11 909.88 L 191.58 909.88 L 193.06 909.89 L 194.53 909.84 L 196.00 909.90 L 197.47 909.83 L 198.94 909.82 L 200.42 909.84 L 201.89 909.85 L 203.36 909.85 L 204.83 909.84 L 206.31 909.92 L 207.78 909.88 L 209.25 909.87 L 210.72 909.83 L 212.19 909.86 L 213.67 909.87 L 215.14 909.87 L 216.61 909.86 L 218.08 909.86 L 219.56 909.84 L 221.03 909.80 L 222.50 909.78 L 223.97 909.83 L 225.44 909.81 L 226.92 909.87 L 228.39 909.86 L 229.86 909.86 L 231.33 909.83 L 232.81 909.81 L 234.28 909.83 L 235.75 909.83 L 237.22 909.78 L 238.69 909.80 L 240.17 909.80 L 241.64 909.81 L 243.11 909.88 L 244.58 909.83 L 246.06 909.85 L 247.53 909.77 L 249.00 909.84 L 250.47 909.72 L 251.94 909.82 L 253.42 909.81 L 254.89 909.75 L 256.36 909.83 L 257.83 908.29 L 259.31 901.30 L 260.78 890.95 L 262.25 893.53 L 263.72 901.27 L 265.19 898.68 L 266.67 896.52 L 268.14 894.13 L 269.61 887.45 L 271.08 899.55 L 272.56 894.01 L 274.03 898.84 L 275.50 898.72 L 276.97 894.90 L 278.44 900.61 L 279.92 898.34 L 281.39 896.60 L 282.86 897.24 L 284.33 895.25 L 285.81 895.38 L 287.28 893.49 L 288.75 899.23 L 290.22 884.82 L 291.69 890.65 L 293.17 896.88 L 294.64 898.01 L 296.11 903.84 L 297.58 901.25 L 299.06 905.45 L 300.53 895.70 L 302.00 906.36 L 303.47 900.45 L 304.94 888.78 L 306.42 888.15 L 307.89 878.10 L 309.36 871.34 L 310.83 849.23 L 312.31 831.59 L 313.78 844.82 L 315.25 859.01 L 316.72 843.50 L 318.19 822.67 L 319.67 821.54 L 321.14 834.21 L 322.61 849.67 L 324.08 862.00 L 325.56 854.56 L 327.03 854.56 L 328.50 837.27 L 329.97 843.71 L 331.44 854.86 L 332.92 868.97 L 334.39 869.66 L 335.86 873.08 L 337.33 885.73 L 338.81 894.73 L 340.28 887.36 L 341.75 890.66 L 343.22 887.37 L 344.69 899.69 L 346.17 897.52 L 347.64 900.41 L 349.11 888.83 L 350.58 886.99 L 352.06 864.92 L 353.53 887.78 L 355.00 869.89 L 356.47 895.21 L 357.94 887.29 L 359.42 886.08 L 360.89 878.81 L 362.36 871.77 L 363.83 878.27 L 365.31 867.12 L 366.78 872.85 L 368.25 861.67 L 369.72 860.76 L 371.19 888.84 L 372.67 887.26 L 374.14 878.68 L 375.61 874.05 L 377.08 846.95 L 378.56 820.51 L 380.03 805.18 L 381.50 792.05 L 382.97 801.48 L 384.44 823.48 L 385.92 864.82 L 387.39 907.76 L 388.86 908.20 L 390.33 903.84 L 391.81 908.38 L 393.28 909.52 L 394.75 907.97 L 396.22 905.54 L 397.69 905.56 L 399.17 899.13 L 400.64 898.51 L 402.11 896.00 L 403.58 894.09 L 405.06 878.56 L 406.53 883.56 L 408.00 894.37 L 409.47 897.62 L 410.94 894.23 L 412.42 885.88 L 413.89 886.08 L 415.36 876.51 L 416.83 887.13 L 418.31 886.39 L 419.78 881.45 L 421.25 876.11 L 422.72 881.66 L 424.19 886.13 L 425.67 891.05 L 427.14 893.74 L 428.61 898.95 L 430.08 901.87 L 431.56 908.33 L 433.03 908.09 L 434.50 909.24 L 435.97 909.69 L 437.44 907.69 L 438.92 907.23 L 440.39 903.51 L 441.86 908.34 L 443.33 909.45 L 444.81 909.82 L 446.28 909.79 L 447.75 909.60 L 449.22 909.60 L 450.69 909.81 L 452.17 909.83 L 453.64 909.80 L 455.11 909.83 L 456.58 909.80 L 458.06 909.82 L 459.53 909.79 L 461.00 909.78 L 462.47 909.78 L 463.94 909.83 L 465.42 909.76 L 466.89 909.77 L 468.36 909.82 L 469.83 909.81 L 471.31 909.83 L 472.78 909.81 L 474.25 909.77 L 475.72 909.74 L 477.19 909.84 L 478.67 909.93 L 480.14 909.96 L 481.61 909.97 L 483.08 909.96 L 484.56 909.93 L 486.03 909.95 L 487.50 909.98 L 488.97 909.92 L 490.44 909.83 L 491.92 909.85 L 493.39 909.86 L 494.86 909.85 L 496.33 909.84 L 497.81 909.88 L 499.28 909.97 L 500.75 909.93 L 502.22 909.86 L 503.69 909.93 L 505.17 909.93 L 506.64 909.94 L 508.11 909.89 L 509.58 909.94 L 511.06 909.92 L 512.53 909.92 L 514.00 909.94 L 515.47 909.87 L 516.94 909.89 L 518.42 909.87 L 519.89 909.88 L 521.36 909.87 L 522.83 909.89 L 524.31 909.93 L 525.78 909.95 L 527.25 909.89 L 528.72 909.90 L 530.19 909.74 L 531.67 909.83 L 533.14 908.75 L 534.61 909.76 L 536.08 909.84 L 537.56 909.82 L 539.03 908.18 L 540.50 907.91 L 541.97 903.76 L 543.44 908.38 L 544.92 909.56 L 546.39 909.31 L 547.86 909.88 L 549.33 909.43 L 550.81 909.57 L 552.28 909.83 L 553.75 909.78 L 555.22 909.85 L 556.69 909.75 L 558.17 909.79 L 559.64 909.79 L 561.11 909.80 L 562.58 909.82 L 564.06 909.81 L 565.53 909.76 L 567.00 909.85 L 568.47 909.68 L 569.94 907.86 L 571.42 907.86 L 572.89 908.62 L 574.36 909.12 L 575.83 909.79 L 577.31 909.77 L 578.78 909.82 L 580.25 909.79 L 581.72 909.86 L 583.19 909.77 L 584.67 909.83 L 586.14 909.75 L 587.61 909.83 L 589.08 909.83 L 590.56 909.85 L 592.03 909.78 L 593.50 909.80 L 594.97 909.82 L 596.44 909.78 L 597.92 909.83 L 599.39 909.81 L 600.86 909.24 L 602.33 909.38 L 603.81 908.97 L 605.28 909.63 L 606.75 909.40 L 608.22 909.83 L 609.69 909.73 L 611.17 909.78 L 612.64 909.93 L 614.11 909.88 L 615.58 909.85 L 617.06 909.80 L 618.53 909.91 L 620.00 909.93 L 621.47 909.87 L 622.94 909.91 L 624.42 909.94 L 625.89 909.96 L 627.36 909.92 L 628.83 909.93 L 630.31 909.92 L 631.78 909.98 L 633.25 909.94 L 634.72 909.00 L 636.19 909.09 L 637.67 909.93 L 639.14 909.89 L 640.61 909.86 L 642.08 909.87 L 643.56 909.97 L 645.03 909.88 L 646.50 909.89 L 647.97 909.89 L 649.44 909.89 L 650.92 909.92 L 652.39 909.89 L 653.86 909.95 L 655.33 909.90 L 656.81 909.94 L 658.28 909.92 L 659.75 909.93 L 661.22 909.93 L 662.69 909.89 L 664.17 909.96 L 665.64 909.94 L 667.11 909.93 L 668.58 909.85 L 670.06 909.76 L 671.53 908.93 L 673.00 909.32 L 674.47 909.69 L 675.94 909.89 L 677.42 909.87 L 678.89 909.93 L 680.36 909.90 L 681.83 909.95 L 683.31 909.90 L 684.78 909.90 L 686.25 909.90 L 687.72 909.90 L 689.19 909.95 L 690.67 909.89 L 692.14 909.91 L 693.61 909.91 L 695.08 909.95 L 696.56 909.91 L 698.03 909.95 L 699.50 909.95 L 700.97 909.91 L 702.44 909.92 L 703.92 909.98 L 705.39 909.95 L 706.86 909.90 L 708.33 909.92 L 709.81 908.86 L 711.28 908.58 L 712.75 909.57 L 714.22 909.86 L 715.69 909.95 L 717.17 909.93 L 718.64 909.80 L 720.11 909.91 L 721.58 909.78 L 723.06 909.82 L 724.53 909.78 L 726.00 909.94 L 727.47 909.94 L 728.94 909.87 L 730.42 909.88 L 731.89 909.87 L 733.36 909.89 L 734.83 909.88 L 736.31 909.89 L 737.78 909.89 L 739.25 909.92 L 740.72 909.92 L 742.19 909.89 L 743.67 909.88 L 745.14 907.87 L 746.61 909.56 L 748.08 909.32 L 749.56 909.89 L 751.03 909.86 L 752.50 909.89 L 753.97 909.91 L 755.44 909.91 L 756.92 909.91 L 758.39 909.82 L 759.86 909.97 L 761.33 909.91 L 762.81 909.83 L 764.28 909.69 L 765.75 909.60 L 767.22 909.77 L 768.69 909.69 L 770.17 909.65 L 771.64 907.86 L 773.11 904.24 L 774.58 906.56 L 776.06 902.18 L 777.53 905.60 L 779.00 903.43 L 780.47 904.27 L 781.94 906.28 L 783.42 905.14 L 784.89 909.03 L 786.36 908.25 L 787.83 909.40 L 789.31 908.00 L 790.78 907.57 L 792.25 908.26 L 793.72 907.69 L 795.19 908.62 L 796.67 906.88 L 798.14 905.82 L 799.61 908.55 L 801.08 908.12 L 802.56 906.01 L 804.03 900.44 L 805.50 903.47" stroke="#E53935" />
<text x="620.00" y="952" font-size="15" text-anchor="middle">minutos (relativo ao início do evento)</text>
<text class="small" x="90.00" y="936" text-anchor="middle">-4.00</text>
<text class="small" x="266.67" y="936" text-anchor="middle">-2.00</text>
<text class="small" x="443.33" y="936" text-anchor="middle">0.00</text>
<text class="small" x="620.00" y="936" text-anchor="middle">2.00</text>
<text class="small" x="796.67" y="936" text-anchor="middle">4.00</text>
<text class="small" x="973.33" y="936" text-anchor="middle">6.00</text>
<text class="small" x="1150.00" y="936" text-anchor="middle">8.00</text>
</svg>