<?xml version="1.0" encoding="UTF-8"?>
<svg xmlns="http://www.w3.org/2000/svg" width="1180" height="980" viewBox="0 0 1180 980">
<style>
text { font-family: -apple-system, BlinkMacSystemFont, 'Segoe UI', Roboto, Helvetica, Arial, sans-serif; fill: #111; }
.small { font-size: 12px; fill: #222; }
.title { font-size: 18px; font-weight: 700; }
.axis { stroke: #111; stroke-width: 1.4; }
.grid { stroke: #E6E6E6; stroke-width: 1; }
.event { fill: #FFEB3B; fill-opacity: 0.18; }
.eventline { stroke: #F9A825; stroke-width: 1.2; stroke-dasharray: 4 3; }
.series { fill: none; stroke-width: 1.8; }
</style>
<text class="title" x="90" y="34">ciclo 6 — basculamento — 2025-12-12T16:56:34-03:00 → 2025-12-12T16:57:15-03:00 (span 41s, dur 42s)</text>
<text class="small" x="90" y="54">GPS: -11.692837,-47.164457  hotspot: -11.693,-47.164</text>
<text class="small" x="90" y="70">Janela: -3.00 → 3.68 min (relativo ao início do evento)</text>
<text x="90" y="79.00" font-size="14" font-weight="700">Velocidade (km/h)</text>
<rect class="event" x="443.33" y="85.00" width="60.36" height="192.75" />
<line class="eventline" x1="443.33" y1="85.00" x2="443.33" y2="277.75" />
<line class="eventline" x1="503.69" y1="85.00" x2="503.69" y2="277.75" />
<line class="grid" x1="90" y1="277.75" x2="1150" y2="277.75" />
<text class="small" x="80" y="281.75" text-anchor="end">0.00</text>
<line class="grid" x1="90" y1="239.20" x2="1150" y2="239.20" />
<text class="small" x="80" y="243.20" text-anchor="end">10.0</text>
<line class="grid" x1="90" y1="200.65" x2="1150" y2="200.65" />
<text class="small" x="80" y="204.65" text-anchor="end">20.0</text>
<line class="grid" x1="90" y1="162.10" x2="1150" y2="162.10" />
<text class="small" x="80" y="166.10" text-anchor="end">30.0</text>
<line class="grid" x1="90" y1="123.55" x2="1150" y2="123.55" />
<text class="small" x="80" y="127.55" text-anchor="end">40.0</text>
<line class="grid" x1="90" y1="85.00" x2="1150" y2="85.00" />
<text class="small" x="80" y="89.00" text-anchor="end">50.0</text>
<line class="grid" x1="90.00" y1="85.00" x2="90.00" y2="277.75" />
<line class="grid" x1="266.67" y1="85.00" x2="266.67" y2="277.75" />
<line class="grid" x1="443.33" y1="85.00" x2="443.33" y2="277.75" />
<line class="grid" x1="620.00" y1="85.00" x2="620.00" y2="277.75" />
<line class="grid" x1="796.67" y1="85.00" x2="796.67" y2="277.75" />
<line class="grid" x1="973.33" y1="85.00" x2="973.33" y2="277.75" />
<line class="grid" x1="1150.00" y1="85.00" x2="1150.00" y2="277.75" />
<line class="axis" x1="90" y1="85.00" x2="90" y2="277.75" />
<line class="axis" x1="90" y1="277.75" x2="1150" y2="277.75" />
<path class="series" d="M 178.33 252.77 L 179.81 250.13 L 181.28 248.61 L 182.75 248.61 L 184.22 244.03 L 185.69 247.08 L 187.17 247.36 L 188.64 245.14 L 190.11 246.66 L 191.58 245.55 L 193.06 246.66 L 194.53 242.64 L 196.00 247.63 L 197.47 241.11 L 198.94 243.47 L 200.42 244.58 L 201.89 243.33 L 203.36 245.97 L 204.83 243.75 L 206.31 246.39 L 207.78 246.39 L 209.25 241.94 L 210.72 251.10 L 212.19 249.58 L 213.67 253.19 L 215.14 254.99 L 216.61 257.49 L 218.08 256.93 L 219.56 252.08 L 221.03 252.35 L 222.50 252.21 L 223.97 251.80 L 225.44 245.00 L 226.92 246.66 L 228.39 247.08 L 229.86 245.55 L 231.33 247.77 L 232.81 246.80 L 234.28 248.88 L 235.75 244.72 L 237.22 243.47 L 238.69 244.58 L 240.17 245.14 L 241.64 245.83 L 243.11 245.00 L 244.58 247.22 L 246.06 246.80 L 247.53 248.19 L 249.00 248.19 L 250.47 246.94 L 251.94 245.97 L 253.42 245.55 L 254.89 246.66 L 256.36 246.11 L 257.83 246.52 L 259.31 245.28 L 260.78 245.28 L 262.25 244.58 L 263.72 246.11 L 265.19 244.72 L 266.67 240.42 L 268.14 238.89 L 269.61 233.06 L 271.08 228.07 L 272.56 221.82 L 274.03 221.54 L 275.50 215.85 L 276.97 214.05 L 278.44 205.31 L 279.92 204.75 L 281.39 210.86 L 282.86 214.19 L 284.33 217.94 L 285.81 244.44 L 287.28 261.10 L 288.75 261.10 L 290.22 259.57 L 291.69 254.16 L 293.17 248.05 L 294.64 247.77 L 296.11 236.25 L 297.58 231.68 L 299.06 229.04 L 300.53 224.74 L 302.00 223.49 L 303.47 220.99 L 304.94 220.43 L 306.42 222.65 L 307.89 226.68 L 309.36 225.85 L 310.83 227.79 L 312.31 229.32 L 313.78 236.53 L 315.25 236.67 L 316.72 236.25 L 318.19 234.87 L 319.67 236.67 L 321.14 238.61 L 322.61 238.20 L 324.08 245.41 L 325.56 236.95 L 327.03 238.20 L 328.50 237.09 L 329.97 236.81 L 331.44 236.95 L 332.92 237.78 L 334.39 238.20 L 335.86 238.75 L 337.33 238.34 L 338.81 237.64 L 340.28 237.64 L 341.75 230.29 L 343.22 225.85 L 344.69 224.18 L 346.17 226.12 L 347.64 227.37 L 349.11 227.37 L 350.58 227.93 L 352.06 226.96 L 353.53 226.68 L 355.00 222.52 L 356.47 220.71 L 357.94 224.74 L 359.42 229.45 L 360.89 233.90 L 362.36 234.31 L 363.83 236.39 L 365.31 236.25 L 366.78 235.14 L 368.25 233.76 L 369.72 231.40 L 371.19 229.04 L 372.67 226.26 L 374.14 222.93 L 375.61 219.88 L 377.08 224.46 L 378.56 223.49 L 380.03 223.63 L 381.50 221.82 L 382.97 219.46 L 384.44 214.61 L 385.92 218.21 L 387.39 219.18 L 388.86 220.57 L 390.33 222.52 L 391.81 226.26 L 393.28 230.56 L 394.75 227.93 L 396.22 233.76 L 397.69 233.76 L 399.17 232.92 L 400.64 230.01 L 402.11 236.25 L 403.58 237.78 L 405.06 232.92 L 406.53 241.11 L 408.00 245.97 L 409.47 256.10 L 410.94 259.57 L 412.42 269.56 L 413.89 277.75 L 415.36 277.75 L 416.83 273.45 L 418.31 271.92 L 419.78 266.65 L 421.25 263.46 L 422.72 265.68 L 424.19 265.68 L 425.67 263.87 L 427.14 264.57 L 428.61 266.93 L 430.08 267.90 L 431.56 268.87 L 433.03 270.81 L 434.50 272.75 L 435.97 273.03 L 437.44 271.78 L 438.92 270.81 L 440.39 272.62 L 441.86 274.56 L 443.33 277.75 L 444.81 277.75 L 446.28 277.75 L 447.75 277.75 L 449.22 277.75 L 450.69 277.75 L 452.17 277.75 L 453.64 277.75 L 455.11 277.75 L 456.58 277.75 L 458.06 277.75 L 459.53 277.75 L 461.00 277.75 L 462.47 277.75 L 463.94 277.75 L 465.42 277.75 L 466.89 277.75 L 468.36 277.75 L 469.83 277.75 L 471.31 277.75 L 472.78 277.75 L 474.25 277.75 L 475.72 277.75 L 477.19 277.75 L 478.67 277.75 L 480.14 277.75 L 481.61 277.75 L 483.08 277.75 L 484.56 277.75 L 486.03 277.75 L 487.50 277.75 L 488.97 277.75 L 490.44 277.75 L 491.92 277.75 L 493.39 277.75 L 494.86 277.75 L 496.33 277.75 L 497.81 277.75 L 499.28 277.75 L 500.75 277.75 L 502.22 277.75 L 503.69 277.75 L 505.17 271.92 L 506.64 267.20 L 508.11 267.20 L 509.58 274.00 L 511.06 273.73 L 512.53 273.17 L 514.00 274.70 L 515.47 274.56 L 516.94 272.48 L 518.42 267.62 L 519.89 266.37 L 521.36 272.75 L 522.83 274.84 L 524.31 273.59 L 525.78 270.39 L 527.25 269.70 L 528.72 269.84 L 530.19 269.42 L 531.67 269.98 L 533.14 272.34 L 534.61 277.75 L 536.08 277.75 L 537.56 273.03 L 539.03 272.06 L 540.50 268.87 L 541.97 269.42 L 543.44 264.98 L 544.92 260.82 L 546.39 258.32 L 547.86 255.41 L 549.33 247.08 L 550.81 240.56 L 552.28 246.80 L 553.75 216.55 L 555.22 213.08 L 556.69 209.33 L 558.17 211.27 L 559.64 207.80 L 561.11 203.78 L 562.58 197.12 L 564.06 189.49 L 565.53 184.63 L 567.00 183.66 L 568.47 183.24 L 569.94 187.96 L 571.42 186.85 L 572.89 182.13 L 574.36 178.24 L 575.83 177.97 L 577.31 174.50 L 578.78 170.61 L 580.25 170.20 L 581.72 172.28 L 583.19 182.13 L 584.67 191.01 L 586.14 195.73 L 587.61 192.82 L 589.08 184.91 L 590.56 176.86 L 592.03 182.41 L 593.50 182.55 L 594.97 177.00 L 596.44 176.72 L 597.92 175.33 L 599.39 173.66 L 600.86 170.89 L 602.33 169.50 L 603.81 167.00 L 605.28 168.81 L 606.75 170.75 L 608.22 171.31 L 609.69 172.00 L 611.17 171.86 L 612.64 171.86 L 614.11 176.44 L 615.58 183.38 L 617.06 188.93 L 618.53 196.15 L 620.00 193.51 L 621.47 191.29 L 622.94 191.01 L 624.42 188.24 L 625.89 184.35 L 627.36 184.77 L 628.83 183.24 L 630.31 180.74 L 631.78 175.75 L 633.25 172.83 L 634.72 184.49 L 636.19 182.96 L 637.67 179.91 L 639.14 175.19 L 640.61 173.80 L 642.08 172.00 L 643.56 169.78 L 645.03 162.29 L 646.50 162.98 L 647.97 159.37 L 649.44 157.01 L 650.92 152.99 L 652.39 159.09 L 653.86 161.04 L 655.33 164.23 L 656.81 166.86 L 658.28 167.00 L 659.75 166.45 L 661.22 166.03 L 662.69 171.86 L 664.17 170.33 L 665.64 163.95 L 667.11 162.15 L 668.58 156.73 L 670.06 153.13 L 671.53 153.13 L 673.00 148.13 L 674.47 147.02 L 675.94 150.35 L 677.42 153.13 L 678.89 158.40 L 680.36 161.45 L 681.83 162.98 L 683.31 165.89 L 684.78 169.92 L 686.25 174.36 L 687.72 177.83 L 689.19 179.35 L 690.67 179.63 L 692.14 180.74 L 693.61 182.55 L 695.08 178.80 L 696.56 180.88 L 698.03 177.41 L 699.50 180.33 L 700.97 181.30 L 702.44 180.47 L 703.92 177.69 L 705.39 171.86 L 706.86 165.48 L 708.33 165.48 L 709.81 161.17 L 711.28 160.48 L 712.75 163.95 L 714.22 162.70 L 715.69 162.42 L 717.17 162.84 L 718.64 161.17 L 720.11 161.17 L 721.58 161.31 L 723.06 163.67 L 724.53 167.84 L 726.00 168.25 L 727.47 172.28 L 728.94 176.58 L 730.42 188.38 L 731.89 192.54 L 733.36 191.15 L 734.83 192.26 L 736.31 193.09 L 737.78 194.07 L 739.25 194.76 L 740.72 202.81 L 742.19 206.69 L 743.67 197.54 L 745.14 198.09 L 746.61 193.09 L 748.08 192.68 L 749.56 188.79 L 751.03 186.16 L 752.50 181.85 L 753.97 180.19 L 755.44 178.94 L 756.92 177.00 L 758.39 177.41 L 759.86 177.13 L 761.33 171.17 L 762.81 162.56 L 764.28 159.23 L 765.75 155.07 L 767.22 156.32 L 768.69 159.51" stroke="#1976D2" />
<text x="90" y="289.75" font-size="14" font-weight="700">Inclinação (graus)</text>
<rect class="event" x="443.33" y="295.75" width="60.36" height="192.75" />
<line class="eventline" x1="443.33" y1="295.75" x2="443.33" y2="488.50" />
<line class="eventline" x1="503.69" y1="295.75" x2="503.69" y2="488.50" />
<line class="grid" x1="90" y1="488.50" x2="1150" y2="488.50" />
<text class="small" x="80" y="492.50" text-anchor="end">-20.0</text>
<line class="grid" x1="90" y1="449.95" x2="1150" y2="449.95" />
<text class="small" x="80" y="453.95" text-anchor="end">-10.0</text>
<line class="grid" x1="90" y1="411.40" x2="1150" y2="411.40" />
<text class="small" x="80" y="415.40" text-anchor="end">0.00</text>
<line class="grid" x1="90" y1="372.85" x2="1150" y2="372.85" />
<text class="small" x="80" y="376.85" text-anchor="end">10.0</text>
<line class="grid" x1="90" y1="334.30" x2="1150" y2="334.30" />
<text class="small" x="80" y="338.30" text-anchor="end">20.0</text>
<line class="grid" x1="90" y1="295.75" x2="1150" y2="295.75" />
<text class="small" x="80" y="299.75" text-anchor="end">30.0</text>
<line class="grid" x1="90.00" y1="295.75" x2="90.00" y2="488.50" />
<line class="grid" x1="266.67" y1="295.75" x2="266.67" y2="488.50" />
<line class="grid" x1="443.33" y1="295.75" x2="443.33" y2="488.50" />
<line class="grid" x1="620.00" y1="295.75" x2="620.00" y2="488.50" />
<line class="grid" x1="796.67" y1="295.75" x2="796.67" y2="488.50" />
<line class="grid" x1="973.33" y1="295.75" x2="973.33" y2="488.50" />
<line class="grid" x1="1150.00" y1="295.75" x2="1150.00" y2="488.50" />
<line class="axis" x1="90" y1="295.75" x2="90" y2="488.50" />
<line class="axis" x1="90" y1="488.50" x2="1150" y2="488.50" />
<path class="series" d="M 178.33 394.33 L 179.81 392.25 L 181.28 393.56 L 182.75 392.33 L 184.22 392.38 L 185.69 392.13 L 187.17 391.78 L 188.64 391.69 L 190.11 391.40 L 191.58 390.50 L 193.06 389.17 L 194.53 387.39 L 196.00 386.44 L 197.47 384.75 L 198.94 387.03 L 200.42 387.70 L 201.89 388.30 L 203.36 388.47 L 204.83 389.46 L 206.31 388.72 L 207.78 389.27 L 209.25 390.34 L 210.72 387.55 L 212.19 401.36 L 213.67 399.69 L 215.14 398.07 L 216.61 396.72 L 218.08 396.72 L 219.56 396.25 L 221.03 396.56 L 222.50 394.08 L 223.97 394.00 L 225.44 393.67 L 226.92 392.97 L 228.39 393.02 L 229.86 387.20 L 231.33 390.64 L 232.81 392.01 L 234.28 389.39 L 235.75 388.59 L 237.22 388.01 L 238.69 388.80 L 240.17 389.43 L 241.64 390.40 L 243.11 390.88 L 244.58 392.62 L 246.06 392.83 L 247.53 391.35 L 249.00 393.27 L 250.47 390.88 L 251.94 392.12 L 253.42 394.25 L 254.89 396.84 L 256.36 389.48 L 257.83 387.35 L 259.31 387.92 L 260.78 389.16 L 262.25 386.73 L 263.72 386.63 L 265.19 386.76 L 266.67 385.62 L 268.14 384.97 L 269.61 382.49 L 271.08 376.66 L 272.56 372.87 L 274.03 369.60 L 275.50 374.57 L 276.97 369.86 L 278.44 376.07 L 279.92 362.10 L 281.39 361.69 L 282.86 365.04 L 284.33 316.90 L 285.81 348.39 L 287.28 375.15 L 288.75 376.46 L 290.22 381.32 L 291.69 381.30 L 293.17 382.74 L 294.64 378.51 L 296.11 383.20 L 297.58 380.13 L 299.06 379.51 L 300.53 375.06 L 302.00 374.52 L 303.47 376.08 L 304.94 360.65 L 306.42 365.21 L 307.89 373.95 L 309.36 378.01 L 310.83 380.41 L 312.31 378.96 L 313.78 384.99 L 315.25 386.91 L 316.72 388.25 L 318.19 385.20 L 319.67 386.45 L 321.14 383.89 L 322.61 387.17 L 324.08 386.74 L 325.56 386.47 L 327.03 385.24 L 328.50 387.97 L 329.97 386.33 L 331.44 385.74 L 332.92 387.46 L 334.39 383.22 L 335.86 380.89 L 337.33 378.94 L 338.81 380.17 L 340.28 377.89 L 341.75 375.40 L 343.22 369.91 L 344.69 360.44 L 346.17 363.64 L 347.64 363.46 L 349.11 359.75 L 350.58 360.91 L 352.06 364.69 L 353.53 363.64 L 355.00 364.58 L 356.47 364.53 L 357.94 362.10 L 359.42 367.20 L 360.89 372.97 L 362.36 370.24 L 363.83 373.74 L 365.31 374.84 L 366.78 376.60 L 368.25 375.67 L 369.72 375.84 L 371.19 379.21 L 372.67 377.94 L 374.14 371.18 L 375.61 362.53 L 377.08 372.94 L 378.56 370.54 L 380.03 369.40 L 381.50 372.14 L 382.97 369.41 L 384.44 363.33 L 385.92 363.33 L 387.39 362.05 L 388.86 363.00 L 390.33 362.98 L 391.81 366.29 L 393.28 360.04 L 394.75 361.11 L 396.22 359.32 L 397.69 362.98 L 399.17 372.22 L 400.64 362.10 L 402.11 373.08 L 403.58 364.57 L 405.06 366.42 L 406.53 355.71 L 408.00 350.99 L 409.47 358.88 L 410.94 355.29 L 412.42 342.06 L 413.89 370.38 L 415.36 363.33 L 416.83 359.42 L 418.31 365.00 L 419.78 357.01 L 421.25 374.73 L 422.72 373.70 L 424.19 367.29 L 425.67 372.25 L 427.14 375.46 L 428.61 371.67 L 430.08 371.64 L 431.56 373.15 L 433.03 372.93 L 434.50 372.94 L 435.97 367.15 L 437.44 367.82 L 438.92 373.50 L 440.39 372.21 L 441.86 381.67 L 443.33 370.73 L 444.81 373.56 L 446.28 373.22 L 447.75 372.31 L 449.22 371.93 L 450.69 372.19 L 452.17 372.15 L 453.64 372.26 L 455.11 372.47 L 456.58 372.26 L 458.06 372.40 L 459.53 372.05 L 461.00 371.98 L 462.47 372.26 L 463.94 372.30 L 465.42 372.39 L 466.89 372.64 L 468.36 372.73 L 469.83 372.62 L 471.31 373.20 L 472.78 373.07 L 474.25 372.98 L 475.72 373.09 L 477.19 372.93 L 478.67 373.41 L 480.14 372.60 L 481.61 375.56 L 483.08 374.21 L 484.56 375.17 L 486.03 375.47 L 487.50 375.26 L 488.97 376.18 L 490.44 376.77 L 491.92 377.60 L 493.39 376.92 L 494.86 378.39 L 496.33 377.85 L 497.81 377.69 L 499.28 377.98 L 500.75 377.80 L 502.22 377.70 L 503.69 386.97 L 505.17 385.17 L 506.64 376.12 L 508.11 364.69 L 509.58 375.07 L 511.06 376.04 L 512.53 371.84 L 514.00 373.22 L 515.47 379.27 L 516.94 381.10 L 518.42 378.65 L 519.89 365.25 L 521.36 371.70 L 522.83 376.69 L 524.31 381.24 L 525.78 377.06 L 527.25 374.47 L 528.72 373.99 L 530.19 371.76 L 531.67 368.25 L 533.14 364.19 L 534.61 369.41 L 536.08 373.13 L 537.56 372.36 L 539.03 375.06 L 540.50 366.77 L 541.97 377.76 L 543.44 374.29 L 544.92 371.44 L 546.39 370.47 L 547.86 375.21 L 549.33 382.17 L 550.81 385.63 L 552.28 374.31 L 553.75 358.62 L 555.22 363.38 L 556.69 357.52 L 558.17 368.87 L 559.64 374.39 L 561.11 383.18 L 562.58 379.92 L 564.06 379.39 L 565.53 370.22 L 567.00 374.48 L 568.47 361.11 L 569.94 376.71 L 571.42 372.96 L 572.89 374.31 L 574.36 364.73 L 575.83 374.01 L 577.31 368.57 L 578.78 356.81 L 580.25 358.93 L 581.72 353.32 L 583.19 352.41 L 584.67 378.06 L 586.14 370.61 L 587.61 383.52 L 589.08 381.70 L 590.56 356.50 L 592.03 359.70 L 593.50 359.86 L 594.97 352.67 L 596.44 350.33 L 597.92 346.07 L 599.39 352.74 L 600.86 348.42 L 602.33 349.50 L 603.81 350.51 L 605.28 365.00 L 606.75 363.38 L 608.22 360.95 L 609.69 360.57 L 611.17 361.93 L 612.64 358.05 L 614.11 356.63 L 615.58 357.70 L 617.06 357.38 L 618.53 372.23 L 620.00 376.45 L 621.47 370.45 L 622.94 363.92 L 624.42 363.09 L 625.89 356.32 L 627.36 355.29 L 628.83 351.82 L 630.31 352.92 L 631.78 344.85 L 633.25 329.34 L 634.72 351.57 L 636.19 354.87 L 637.67 352.37 L 639.14 343.22 L 640.61 347.40 L 642.08 349.27 L 643.56 354.02 L 645.03 354.02 L 646.50 351.23 L 647.97 355.27 L 649.44 351.46 L 650.92 351.09 L 652.39 325.94 L 653.86 350.08 L 655.33 339.91 L 656.81 348.04 L 658.28 340.16 L 659.75 349.65 L 661.22 339.24 L 662.69 342.36 L 664.17 352.07 L 665.64 353.40 L 667.11 350.21 L 668.58 348.53 L 670.06 349.75 L 671.53 350.92 L 673.00 350.97 L 674.47 335.01 L 675.94 345.63 L 677.42 335.11 L 678.89 340.30 L 680.36 340.76 L 681.83 339.07 L 683.31 341.10 L 684.78 340.85 L 686.25 342.06 L 687.72 340.18 L 689.19 339.87 L 690.67 339.60 L 692.14 341.52 L 693.61 351.82 L 695.08 344.20 L 696.56 349.70 L 698.03 344.81 L 699.50 345.42 L 700.97 349.45 L 702.44 350.66 L 703.92 356.06 L 705.39 360.36 L 706.86 357.60 L 708.33 344.13 L 709.81 346.45 L 711.28 343.09 L 712.75 338.37 L 714.22 343.94 L 715.69 344.23 L 717.17 341.58 L 718.64 342.56 L 720.11 342.39 L 721.58 341.04 L 723.06 339.26 L 724.53 336.75 L 726.00 339.63 L 727.47 339.08 L 728.94 343.09 L 730.42 340.02 L 731.89 358.15 L 733.36 350.96 L 734.83 349.09 L 736.31 347.23 L 737.78 350.27 L 739.25 355.44 L 740.72 353.95 L 742.19 368.25 L 743.67 353.42 L 745.14 364.92 L 746.61 365.34 L 748.08 372.55 L 749.56 372.34 L 751.03 377.39 L 752.50 380.90 L 753.97 377.04 L 755.44 376.66 L 756.92 379.87 L 758.39 372.25 L 759.86 379.12 L 761.33 382.34 L 762.81 380.74 L 764.28 371.67 L 765.75 366.99 L 767.22 364.90 L 768.69 363.28" stroke="#2E7D32" />
<path class="series" d="M 178.33 404.12 L 179.81 405.31 L 181.28 411.00 L 182.75 407.89 L 184.22 406.61 L 185.69 404.27 L 187.17 404.62 L 188.64 401.96 L 190.11 402.56 L 191.58 403.43 L 193.06 403.14 L 194.53 401.88 L 196.00 403.67 L 197.47 401.81 L 198.94 406.64 L 200.42 407.32 L 201.89 410.80 L 203.36 410.61 L 204.83 413.33 L 206.31 409.90 L 207.78 410.84 L 209.25 410.64 L 210.72 408.07 L 212.19 412.12 L 213.67 410.66 L 215.14 406.91 L 216.61 406.64 L 218.08 409.47 L 219.56 408.39 L 221.03 408.04 L 222.50 411.29 L 223.97 411.60 L 225.44 410.00 L 226.92 406.83 L 228.39 404.51 L 229.86 405.82 L 231.33 405.33 L 232.81 403.14 L 234.28 406.88 L 235.75 407.26 L 237.22 406.45 L 238.69 404.21 L 240.17 405.15 L 241.64 404.71 L 243.11 407.82 L 244.58 402.62 L 246.06 406.77 L 247.53 404.38 L 249.00 406.82 L 250.47 407.78 L 251.94 401.49 L 253.42 407.52 L 254.89 408.26 L 256.36 406.66 L 257.83 417.29 L 259.31 413.19 L 260.78 412.13 L 262.25 414.53 L 263.72 417.72 L 265.19 414.27 L 266.67 414.58 L 268.14 410.11 L 269.61 413.41 L 271.08 412.67 L 272.56 405.30 L 274.03 407.02 L 275.50 412.94 L 276.97 418.53 L 278.44 407.08 L 279.92 410.70 L 281.39 412.57 L 282.86 412.56 L 284.33 407.80 L 285.81 405.92 L 287.28 404.10 L 288.75 402.54 L 290.22 405.22 L 291.69 398.33 L 293.17 401.64 L 294.64 407.77 L 296.11 403.81 L 297.58 409.02 L 299.06 422.73 L 300.53 417.94 L 302.00 418.97 L 303.47 419.00 L 304.94 416.74 L 306.42 418.76 L 307.89 414.12 L 309.36 422.48 L 310.83 409.88 L 312.31 420.26 L 313.78 421.27 L 315.25 406.73 L 316.72 410.80 L 318.19 404.31 L 319.67 407.57 L 321.14 414.90 L 322.61 408.51 L 324.08 407.57 L 325.56 403.97 L 327.03 401.48 L 328.50 400.49 L 329.97 406.84 L 331.44 393.26 L 332.92 398.06 L 334.39 398.26 L 335.86 398.24 L 337.33 406.83 L 338.81 408.15 L 340.28 407.57 L 341.75 411.59 L 343.22 405.00 L 344.69 409.67 L 346.17 416.82 L 347.64 409.57 L 349.11 416.91 L 350.58 411.22 L 352.06 412.14 L 353.53 412.00 L 355.00 403.57 L 356.47 406.36 L 357.94 404.65 L 359.42 408.80 L 360.89 400.99 L 362.36 402.22 L 363.83 410.42 L 365.31 411.29 L 366.78 417.39 L 368.25 411.38 L 369.72 409.89 L 371.19 414.90 L 372.67 409.35 L 374.14 417.94 L 375.61 414.68 L 377.08 410.76 L 378.56 410.76 L 380.03 411.53 L 381.50 417.89 L 382.97 416.18 L 384.44 411.03 L 385.92 411.03 L 387.39 408.09 L 388.86 407.75 L 390.33 410.56 L 391.81 407.55 L 393.28 410.38 L 394.75 420.07 L 396.22 415.66 L 397.69 422.64 L 399.17 430.25 L 400.64 435.62 L 402.11 433.42 L 403.58 432.05 L 405.06 432.63 L 406.53 434.04 L 408.00 419.33 L 409.47 417.43 L 410.94 412.44 L 412.42 402.89 L 413.89 416.11 L 415.36 414.56 L 416.83 409.78 L 418.31 417.11 L 419.78 419.46 L 421.25 415.95 L 422.72 416.76 L 424.19 408.78 L 425.67 410.66 L 427.14 408.51 L 428.61 406.59 L 430.08 410.15 L 431.56 405.88 L 433.03 407.09 L 434.50 408.23 L 435.97 408.22 L 437.44 406.71 L 438.92 406.98 L 440.39 403.92 L 441.86 406.07 L 443.33 406.80 L 444.81 408.66 L 446.28 407.38 L 447.75 406.60 L 449.22 407.04 L 450.69 407.88 L 452.17 407.34 L 453.64 407.11 L 455.11 407.60 L 456.58 407.52 L 458.06 407.16 L 459.53 407.41 L 461.00 407.71 L 462.47 407.16 L 463.94 407.43 L 465.42 407.42 L 466.89 407.51 L 468.36 407.46 L 469.83 407.22 L 471.31 407.78 L 472.78 407.44 L 474.25 407.52 L 475.72 407.55 L 477.19 407.70 L 478.67 407.58 L 480.14 407.68 L 481.61 407.71 L 483.08 407.70 L 484.56 407.67 L 486.03 407.79 L 487.50 407.59 L 488.97 407.75 L 490.44 407.58 L 491.92 407.66 L 493.39 407.40 L 494.86 407.66 L 496.33 407.32 L 497.81 407.60 L 499.28 407.40 L 500.75 407.39 L 502.22 407.44 L 503.69 405.47 L 505.17 402.72 L 506.64 406.73 L 508.11 411.86 L 509.58 406.35 L 511.06 407.60 L 512.53 406.99 L 514.00 407.23 L 515.47 408.67 L 516.94 407.82 L 518.42 410.35 L 519.89 411.43 L 521.36 412.10 L 522.83 409.90 L 524.31 412.04 L 525.78 409.76 L 527.25 410.00 L 528.72 410.54 L 530.19 413.11 L 531.67 413.46 L 533.14 411.58 L 534.61 411.49 L 536.08 412.52 L 537.56 412.57 L 539.03 411.25 L 540.50 409.61 L 541.97 411.97 L 543.44 411.88 L 544.92 411.06 L 546.39 413.59 L 547.86 419.07 L 549.33 425.64 L 550.81 442.68 L 552.28 442.72 L 553.75 445.15 L 555.22 438.72 L 556.69 442.87 L 558.17 428.39 L 559.64 418.48 L 561.11 408.52 L 562.58 422.51 L 564.06 412.71 L 565.53 415.18 L 567.00 407.52 L 568.47 426.41 L 569.94 426.97 L 571.42 427.10 L 572.89 435.30 L 574.36 412.97 L 575.83 406.17 L 577.31 394.59 L 578.78 387.84 L 580.25 382.03 L 581.72 394.42 L 583.19 404.62 L 584.67 421.64 L 586.14 425.99 L 587.61 415.60 L 589.08 397.05 L 590.56 390.70 L 592.03 400.60 L 593.50 392.62 L 594.97 400.91 L 596.44 395.06 L 597.92 393.58 L 599.39 396.93 L 600.86 377.70 L 602.33 396.35 L 603.81 397.27 L 605.28 390.96 L 606.75 385.76 L 608.22 396.84 L 609.69 400.60 L 611.17 410.22 L 612.64 410.95 L 614.11 417.50 L 615.58 421.87 L 617.06 414.24 L 618.53 395.81 L 620.00 402.77 L 621.47 399.55 L 622.94 402.93 L 624.42 398.31 L 625.89 392.91 L 627.36 407.61 L 628.83 408.77 L 630.31 403.31 L 631.78 404.54 L 633.25 410.13 L 634.72 408.72 L 636.19 416.75 L 637.67 407.51 L 639.14 414.97 L 640.61 414.22 L 642.08 408.07 L 643.56 410.84 L 645.03 410.84 L 646.50 403.59 L 647.97 409.25 L 649.44 410.34 L 650.92 408.37 L 652.39 408.44 L 653.86 406.62 L 655.33 417.86 L 656.81 414.49 L 658.28 417.86 L 659.75 414.09 L 661.22 421.58 L 662.69 422.73 L 664.17 417.20 L 665.64 413.49 L 667.11 412.67 L 668.58 412.02 L 670.06 403.03 L 671.53 405.00 L 673.00 409.13 L 674.47 405.84 L 675.94 411.19 L 677.42 406.50 L 678.89 408.40 L 680.36 410.10 L 681.83 415.37 L 683.31 415.60 L 684.78 418.10 L 686.25 414.26 L 687.72 419.61 L 689.19 416.84 L 690.67 406.09 L 692.14 414.19 L 693.61 412.34 L 695.08 409.94 L 696.56 409.98 L 698.03 412.20 L 699.50 406.86 L 700.97 407.18 L 702.44 405.91 L 703.92 403.01 L 705.39 402.96 L 706.86 402.25 L 708.33 405.31 L 709.81 408.10 L 711.28 404.41 L 712.75 403.83 L 714.22 407.44 L 715.69 407.57 L 717.17 407.50 L 718.64 409.66 L 720.11 413.79 L 721.58 417.28 L 723.06 418.90 L 724.53 414.44 L 726.00 417.13 L 727.47 423.17 L 728.94 432.34 L 730.42 450.28 L 731.89 419.58 L 733.36 439.59 L 734.83 431.17 L 736.31 431.25 L 737.78 423.88 L 739.25 414.24 L 740.72 386.54 L 742.19 372.09 L 743.67 366.85 L 745.14 373.63 L 746.61 385.41 L 748.08 387.00 L 749.56 397.46 L 751.03 406.00 L 752.50 416.87 L 753.97 418.62 L 755.44 425.28 L 756.92 425.57 L 758.39 428.92 L 759.86 427.92 L 761.33 417.10 L 762.81 415.19 L 764.28 413.18 L 765.75 413.07 L 767.22 401.86 L 768.69 402.93" stroke="#6A1B9A" />
<line x1="900.00" y1="307.75" x2="918.00" y2="307.75" stroke="#2E7D32" stroke-width="3" />
<text class="small" x="924.00" y="311.75">pitch</text>
<line x1="900.00" y1="323.75" x2="918.00" y2="323.75" stroke="#6A1B9A" stroke-width="3" />
<text class="small" x="924.00" y="327.75">roll</text>
<text x="90" y="500.50" font-size="14" font-weight="700">Aceleração (magnitude) (u.a.)</text>
<rect class="event" x="443.33" y="506.50" width="60.36" height="192.75" />
<line class="eventline" x1="443.33" y1="506.50" x2="443.33" y2="699.25" />
<line class="eventline" x1="503.69" y1="506.50" x2="503.69" y2="699.25" />
<line class="grid" x1="90" y1="699.25" x2="1150" y2="699.25" />
<text class="small" x="80" y="703.25" text-anchor="end">0.00</text>
<line class="grid" x1="90" y1="660.70" x2="1150" y2="660.70" />
<text class="small" x="80" y="664.70" text-anchor="end">1.00</text>
<line class="grid" x1="90" y1="622.15" x2="1150" y2="622.15" />
<text class="small" x="80" y="626.15" text-anchor="end">2.00</text>
<line class="grid" x1="90" y1="583.60" x2="1150" y2="583.60" />
<text class="small" x="80" y="587.60" text-anchor="end">3.00</text>
<line class="grid" x1="90" y1="545.05" x2="1150" y2="545.05" />
<text class="small" x="80" y="549.05" text-anchor="end">4.00</text>
<line class="grid" x1="90" y1="506.50" x2="1150" y2="506.50" />
<text class="small" x="80" y="510.50" text-anchor="end">5.00</text>
<line class="grid" x1="90.00" y1="506.50" x2="90.00" y2="699.25" />
<line class="grid" x1="266.67" y1="506.50" x2="266.67" y2="699.25" />
<line class="grid" x1="443.33" y1="506.50" x2="443.33" y2="699.25" />
<line class="grid" x1="620.00" y1="506.50" x2="620.00" y2="699.25" />
<line class="grid" x1="796.67" y1="506.50" x2="796.67" y2="699.25" />
<line class="grid" x1="973.33" y1="506.50" x2="973.33" y2="699.25" />
<line class="grid" x1="1150.00" y1="506.50" x2="1150.00" y2="699.25" />
<line class="axis" x1="90" y1="506.50" x2="90" y2="699.25" />
<line class="axis" x1="90" y1="699.25" x2="1150" y2="699.25" />
<path class="series" d="M 178.33 696.67 L 179.81 691.76 L 181.28 693.51 L 182.75 694.66 L 184.22 694.29 L 185.69 694.30 L 187.17 695.11 L 188.64 696.31 L 190.11 696.37 L 191.58 696.56 L 193.06 695.76 L 194.53 694.11 L 196.00 693.63 L 197.47 694.88 L 198.94 698.26 L 200.42 695.24 L 201.89 693.96 L 203.36 697.61 L 204.83 695.71 L 206.31 694.53 L 207.78 694.76 L 209.25 693.16 L 210.72 685.47 L 212.19 688.59 L 213.67 693.70 L 215.14 692.23 L 216.61 693.07 L 218.08 694.30 L 219.56 693.86 L 221.03 691.39 L 222.50 696.40 L 223.97 698.17 L 225.44 698.03 L 226.92 696.95 L 228.39 696.70 L 229.86 692.20 L 231.33 695.57 L 232.81 689.79 L 234.28 696.38 L 235.75 695.87 L 237.22 697.05 L 238.69 695.20 L 240.17 695.68 L 241.64 694.87 L 243.11 694.74 L 244.58 694.49 L 246.06 695.06 L 247.53 693.53 L 249.00 692.67 L 250.47 695.90 L 251.94 692.08 L 253.42 697.38 L 254.89 690.80 L 256.36 687.82 L 257.83 692.40 L 259.31 692.21 L 260.78 686.69 L 262.25 695.42 L 263.72 697.57 L 265.19 690.92 L 266.67 691.96 L 268.14 689.05 L 269.61 687.06 L 271.08 687.78 L 272.56 690.73 L 274.03 688.35 L 275.50 687.80 L 276.97 669.86 L 278.44 666.97 L 279.92 675.67 L 281.39 670.67 L 282.86 634.28 L 284.33 602.07 L 285.81 655.05 L 287.28 671.59 L 288.75 675.14 L 290.22 679.15 L 291.69 680.18 L 293.17 680.93 L 294.64 682.07 L 296.11 683.39 L 297.58 695.26 L 299.06 682.03 L 300.53 692.43 L 302.00 693.50 L 303.47 692.10 L 304.94 678.15 L 306.42 685.23 L 307.89 693.50 L 309.36 690.85 L 310.83 687.40 L 312.31 679.21 L 313.78 679.21 L 315.25 682.30 L 316.72 693.29 L 318.19 682.53 L 319.67 684.78 L 321.14 681.45 L 322.61 683.85 L 324.08 689.67 L 325.56 683.25 L 327.03 689.19 L 328.50 691.27 L 329.97 692.30 L 331.44 696.03 L 332.92 690.44 L 334.39 691.86 L 335.86 696.17 L 337.33 683.50 L 338.81 694.29 L 340.28 687.77 L 341.75 687.23 L 343.22 679.10 L 344.69 681.84 L 346.17 684.10 L 347.64 691.69 L 349.11 689.35 L 350.58 675.06 L 352.06 676.47 L 353.53 686.29 L 355.00 674.42 L 356.47 671.58 L 357.94 678.77 L 359.42 672.33 L 360.89 675.65 L 362.36 690.61 L 363.83 688.00 L 365.31 693.31 L 366.78 691.36 L 368.25 689.77 L 369.72 689.48 L 371.19 685.54 L 372.67 690.97 L 374.14 687.33 L 375.61 683.48 L 377.08 685.06 L 378.56 694.89 L 380.03 696.97 L 381.50 694.61 L 382.97 687.76 L 384.44 684.52 L 385.92 689.25 L 387.39 694.79 L 388.86 690.38 L 390.33 689.78 L 391.81 687.27 L 393.28 689.35 L 394.75 671.67 L 396.22 687.78 L 397.69 674.18 L 399.17 681.81 L 400.64 681.92 L 402.11 669.91 L 403.58 674.59 L 405.06 677.78 L 406.53 670.61 L 408.00 664.97 L 409.47 673.14 L 410.94 669.57 L 412.42 688.74 L 413.89 686.26 L 415.36 692.21 L 416.83 692.88 L 418.31 688.18 L 419.78 685.48 L 421.25 691.87 L 422.72 691.26 L 424.19 690.01 L 425.67 694.74 L 427.14 692.02 L 428.61 696.69 L 430.08 697.17 L 431.56 697.62 L 433.03 696.32 L 434.50 695.48 L 435.97 696.46 L 437.44 696.27 L 438.92 696.15 L 440.39 694.22 L 441.86 695.57 L 443.33 694.91 L 444.81 697.70 L 446.28 698.80 L 447.75 698.50 L 449.22 698.75 L 450.69 698.88 L 452.17 698.62 L 453.64 698.87 L 455.11 698.72 L 456.58 698.45 L 458.06 699.19 L 459.53 698.82 L 461.00 698.64 L 462.47 698.60 L 463.94 699.09 L 465.42 697.61 L 466.89 694.90 L 468.36 696.67 L 469.83 697.58 L 471.31 697.58 L 472.78 698.69 L 474.25 698.12 L 475.72 698.67 L 477.19 698.99 L 478.67 698.56 L 480.14 698.63 L 481.61 698.37 L 483.08 696.45 L 484.56 698.09 L 486.03 698.86 L 487.50 698.64 L 488.97 698.89 L 490.44 698.68 L 491.92 698.64 L 493.39 697.46 L 494.86 698.52 L 496.33 698.71 L 497.81 698.68 L 499.28 698.60 L 500.75 697.73 L 502.22 697.97 L 503.69 693.82 L 505.17 695.15 L 506.64 693.53 L 508.11 680.37 L 509.58 691.91 L 511.06 696.44 L 512.53 696.00 L 514.00 696.88 L 515.47 690.44 L 516.94 696.22 L 518.42 688.97 L 519.89 683.36 L 521.36 693.95 L 522.83 693.42 L 524.31 683.62 L 525.78 697.94 L 527.25 694.31 L 528.72 698.26 L 530.19 697.79 L 531.67 695.04 L 533.14 689.08 L 534.61 695.86 L 536.08 695.60 L 537.56 696.81 L 539.03 693.53 L 540.50 693.60 L 541.97 691.94 L 543.44 696.08 L 544.92 693.18 L 546.39 695.50 L 547.86 682.91 L 549.33 683.26 L 550.81 665.35 L 552.28 672.74 L 553.75 655.54 L 555.22 666.21 L 556.69 659.80 L 558.17 682.56 L 559.64 683.40 L 561.11 670.83 L 562.58 695.88 L 564.06 678.92 L 565.53 678.21 L 567.00 683.45 L 568.47 674.18 L 569.94 684.86 L 571.42 687.31 L 572.89 678.31 L 574.36 669.28 L 575.83 665.27 L 577.31 661.92 L 578.78 652.73 L 580.25 666.12 L 581.72 649.16 L 583.19 663.72 L 584.67 669.63 L 586.14 675.23 L 587.61 676.21 L 589.08 662.51 L 590.56 662.44 L 592.03 681.90 L 593.50 671.72 L 594.97 678.60 L 596.44 676.50 L 597.92 678.00 L 599.39 683.06 L 600.86 666.35 L 602.33 678.09 L 603.81 667.75 L 605.28 683.61 L 606.75 676.32 L 608.22 688.86 L 609.69 685.63 L 611.17 683.90 L 612.64 683.64 L 614.11 670.95 L 615.58 669.97 L 617.06 682.05 L 618.53 675.52 L 620.00 680.80 L 621.47 686.17 L 622.94 686.85 L 624.42 689.73 L 625.89 689.73 L 627.36 689.62 L 628.83 689.66 L 630.31 690.25 L 631.78 688.27 L 633.25 688.19 L 634.72 675.72 L 636.19 686.27 L 637.67 683.30 L 639.14 690.33 L 640.61 688.05 L 642.08 679.94 L 643.56 676.28 L 645.03 688.61 L 646.50 684.97 L 647.97 683.28 L 649.44 689.96 L 650.92 689.44 L 652.39 662.68 L 653.86 688.66 L 655.33 685.41 L 656.81 693.60 L 658.28 693.44 L 659.75 689.68 L 661.22 687.82 L 662.69 692.93 L 664.17 679.58 L 665.64 680.93 L 667.11 684.32 L 668.58 685.88 L 670.06 684.85 L 671.53 684.72 L 673.00 690.95 L 674.47 674.17 L 675.94 691.92 L 677.42 681.29 L 678.89 691.22 L 680.36 693.34 L 681.83 692.93 L 683.31 694.38 L 684.78 694.11 L 686.25 689.67 L 687.72 692.10 L 689.19 688.53 L 690.67 690.77 L 692.14 691.91 L 693.61 690.10 L 695.08 693.49 L 696.56 691.45 L 698.03 686.28 L 699.50 686.32 L 700.97 683.29 L 702.44 682.14 L 703.92 681.45 L 705.39 682.59 L 706.86 694.10 L 708.33 695.20 L 709.81 694.11 L 711.28 689.65 L 712.75 692.18 L 714.22 697.06 L 715.69 690.67 L 717.17 694.46 L 718.64 694.20 L 720.11 692.57 L 721.58 688.98 L 723.06 688.60 L 724.53 693.32 L 726.00 685.45 L 727.47 688.43 L 728.94 652.76 L 730.42 673.07 L 731.89 689.89 L 733.36 675.18 L 734.83 682.96 L 736.31 676.37 L 737.78 660.37 L 739.25 672.08 L 740.72 630.32 L 742.19 624.46 L 743.67 641.63 L 745.14 674.34 L 746.61 691.35 L 748.08 691.68 L 749.56 682.99 L 751.03 671.67 L 752.50 665.56 L 753.97 669.72 L 755.44 676.96 L 756.92 681.72 L 758.39 691.93 L 759.86 691.33 L 761.33 688.52 L 762.81 689.80 L 764.28 689.01 L 765.75 675.66 L 767.22 678.93 L 768.69 687.44" stroke="#FB8C00" />
<text x="90" y="711.25" font-size="14" font-weight="700">Giroscópio (magnitude) (u.a.)</text>
<rect class="event" x="443.33" y="717.25" width="60.36" height="192.75" />
<line class="eventline" x1="443.33" y1="717.25" x2="443.33" y2="910.00" />
<line class="eventline" x1="503.69" y1="717.25" x2="503.69" y2="910.00" />
<line class="grid" x1="90" y1="910.00" x2="1150" y2="910.00" />
<text class="small" x="80" y="914.00" text-anchor="end">0.00</text>
<line class="grid" x1="90" y1="871.45" x2="1150" y2="871.45" />
<text class="small" x="80" y="875.45" text-anchor="end">0.10</text>
<line class="grid" x1="90" y1="832.90" x2="1150" y2="832.90" />
<text class="small" x="80" y="836.90" text-anchor="end">0.20</text>
<line class="grid" x1="90" y1="794.35" x2="1150" y2="794.35" />
<text class="small" x="80" y="798.35" text-anchor="end">0.30</text>
<line class="grid" x1="90" y1="755.80" x2="1150" y2="755.80" />
<text class="small" x="80" y="759.80" text-anchor="end">0.40</text>
<line class="grid" x1="90" y1="717.25" x2="1150" y2="717.25" />
<text class="small" x="80" y="721.25" text-anchor="end">0.50</text>
<line class="grid" x1="90.00" y1="717.25" x2="90.00" y2="910.00" />
<line class="grid" x1="266.67" y1="717.25" x2="266.67" y2="910.00" />
<line class="grid" x1="443.33" y1="717.25" x2="443.33" y2="910.00" />
<line class="grid" x1="620.00" y1="717.25" x2="620.00" y2="910.00" />
<line class="grid" x1="796.67" y1="717.25" x2="796.67" y2="910.00" />
<line class="grid" x1="973.33" y1="717.25" x2="973.33" y2="910.00" />
<line class="grid" x1="1150.00" y1="717.25" x2="1150.00" y2="910.00" />
<line class="axis" x1="90" y1="717.25" x2="90" y2="910.00" />
<line class="axis" x1="90" y1="910.00" x2="1150" y2="910.00" />
<path class="series" d="M 178.33 903.66 L 179.81 900.48 L 181.28 906.96 L 182.75 905.00 L 184.22 905.28 L 185.69 906.79 L 187.17 907.38 L 188.64 907.77 L 190.11 907.49 L 191.58 906.88 L 193.06 906.71 L 194.53 905.89 L 196.00 907.93 L 197.47 906.59 L 198.94 901.07 L 200.42 907.84 L 201.89 906.75 L 203.36 906.51 L 204.83 905.54 L 206.31 902.87 L 207.78 902.48 L 209.25 903.84 L 210.72 904.65 L 212.19 905.74 L 213.67 908.98 L 215.14 908.18 L 216.61 904.25 L 218.08 906.92 L 219.56 904.36 L 221.03 904.13 L 222.50 907.58 L 223.97 906.98 L 225.44 906.68 L 226.92 904.58 L 228.39 906.22 L 229.86 904.78 L 231.33 904.74 L 232.81 904.84 L 234.28 905.96 L 235.75 904.72 L 237.22 902.94 L 238.69 903.93 L 240.17 903.20 L 241.64 903.07 L 243.11 904.33 L 244.58 903.24 L 246.06 902.83 L 247.53 903.43 L 249.00 902.81 L 250.47 903.74 L 251.94 906.84 L 253.42 904.08 L 254.89 902.71 L 256.36 899.69 L 257.83 898.20 L 259.31 899.11 L 260.78 902.92 L 262.25 905.46 L 263.72 902.52 L 265.19 905.97 L 266.67 903.98 L 268.14 907.83 L 269.61 897.01 L 271.08 897.79 L 272.56 895.44 L 274.03 898.35 L 275.50 893.46 L 276.97 893.18 L 278.44 898.74 L 279.92 902.33 L 281.39 902.00 L 282.86 896.55 L 284.33 891.51 L 285.81 907.62 L 287.28 907.48 L 288.75 907.53 L 290.22 903.19 L 291.69 904.24 L 293.17 904.37 L 294.64 906.23 L 296.11 899.04 L 297.58 898.33 L 299.06 880.43 L 300.53 875.27 L 302.00 872.26 L 303.47 875.51 L 304.94 874.71 L 306.42 878.31 L 307.89 878.04 L 309.36 878.62 L 310.83 876.83 L 312.31 877.45 L 313.78 877.45 L 315.25 886.57 L 316.72 892.97 L 318.19 892.97 L 319.67 888.83 L 321.14 890.00 L 322.61 894.79 L 324.08 897.98 L 325.56 896.81 L 327.03 896.05 L 328.50 893.50 L 329.97 892.30 L 331.44 893.57 L 332.92 897.24 L 334.39 895.73 L 335.86 895.22 L 337.33 893.45 L 338.81 892.08 L 340.28 893.66 L 341.75 894.26 L 343.22 892.76 L 344.69 889.92 L 346.17 890.52 L 347.64 895.25 L 349.11 888.01 L 350.58 895.14 L 352.06 896.35 L 353.53 893.18 L 355.00 894.41 L 356.47 895.55 L 357.94 886.06 L 359.42 892.24 L 360.89 882.33 L 362.36 880.72 L 363.83 885.73 L 365.31 891.75 L 366.78 900.70 L 368.25 906.15 L 369.72 901.62 L 371.19 902.23 L 372.67 898.09 L 374.14 894.33 L 375.61 896.48 L 377.08 899.05 L 378.56 900.25 L 380.03 898.25 L 381.50 892.61 L 382.97 896.85 L 384.44 897.79 L 385.92 900.70 L 387.39 908.52 L 388.86 903.67 L 390.33 902.27 L 391.81 906.36 L 393.28 886.43 L 394.75 901.36 L 396.22 905.87 L 397.69 894.40 L 399.17 885.32 L 400.64 878.32 L 402.11 867.44 L 403.58 850.32 L 405.06 832.77 L 406.53 828.88 L 408.00 845.22 L 409.47 862.28 L 410.94 882.24 L 412.42 905.00 L 413.89 909.10 L 415.36 906.73 L 416.83 901.32 L 418.31 904.96 L 419.78 903.40 L 421.25 897.18 L 422.72 890.74 L 424.19 890.24 L 425.67 891.75 L 427.14 897.27 L 428.61 901.41 L 430.08 901.86 L 431.56 904.18 L 433.03 908.32 L 434.50 905.84 L 435.97 905.89 L 437.44 905.47 L 438.92 906.07 L 440.39 906.74 L 441.86 907.56 L 443.33 908.39 L 444.81 909.13 L 446.28 908.76 L 447.75 908.75 L 449.22 908.99 L 450.69 909.12 L 452.17 909.30 L 453.64 909.08 L 455.11 909.02 L 456.58 909.07 L 458.06 909.11 L 459.53 909.07 L 461.00 909.20 L 462.47 909.23 L 463.94 909.09 L 465.42 909.38 L 466.89 908.89 L 468.36 908.94 L 469.83 909.18 L 471.31 909.18 L 472.78 909.15 L 474.25 909.04 L 475.72 909.13 L 477.19 909.14 L 478.67 908.89 L 480.14 909.04 L 481.61 908.62 L 483.08 909.12 L 484.56 909.06 L 486.03 909.02 L 487.50 909.16 L 488.97 908.84 L 490.44 908.55 L 491.92 909.13 L 493.39 909.13 L 494.86 908.98 L 496.33 909.19 L 497.81 909.14 L 499.28 909.22 L 500.75 909.23 L 502.22 909.08 L 503.69 909.57 L 505.17 905.68 L 506.64 903.60 L 508.11 904.50 L 509.58 907.34 L 511.06 907.20 L 512.53 907.10 L 514.00 907.26 L 515.47 905.19 L 516.94 905.58 L 518.42 905.07 L 519.89 904.19 L 521.36 907.89 L 522.83 907.77 L 524.31 908.03 L 525.78 907.44 L 527.25 906.92 L 528.72 906.60 L 530.19 907.06 L 531.67 906.39 L 533.14 907.40 L 534.61 908.79 L 536.08 908.32 L 537.56 908.88 L 539.03 909.02 L 540.50 906.22 L 541.97 906.22 L 543.44 902.44 L 544.92 896.82 L 546.39 891.34 L 547.86 886.67 L 549.33 877.91 L 550.81 848.63 L 552.28 819.70 L 553.75 806.66 L 555.22 805.29 L 556.69 801.28 L 558.17 819.96 L 559.64 848.53 L 561.11 896.54 L 562.58 897.16 L 564.06 896.76 L 565.53 904.71 L 567.00 904.76 L 568.47 899.27 L 569.94 890.83 L 571.42 881.66 L 572.89 860.81 L 574.36 881.31 L 575.83 898.22 L 577.31 893.38 L 578.78 869.38 L 580.25 856.00 L 581.72 854.70 L 583.19 878.58 L 584.67 893.38 L 586.14 882.75 L 587.61 887.77 L 589.08 903.92 L 590.56 871.68 L 592.03 869.25 L 593.50 864.78 L 594.97 861.70 L 596.44 852.60 L 597.92 847.52 L 599.39 876.30 L 600.86 859.57 L 602.33 859.84 L 603.81 860.80 L 605.28 862.80 L 606.75 864.28 L 608.22 871.31 L 609.69 877.89 L 611.17 879.08 L 612.64 895.14 L 614.11 899.78 L 615.58 889.08 L 617.06 897.14 L 618.53 889.33 L 620.00 887.04 L 621.47 877.95 L 622.94 886.42 L 624.42 899.06 L 625.89 899.06 L 627.36 896.16 L 628.83 889.97 L 630.31 896.08 L 631.78 894.26 L 633.25 895.40 L 634.72 899.67 L 636.19 898.15 L 637.67 903.27 L 639.14 893.33 L 640.61 899.62 L 642.08 897.27 L 643.56 893.12 L 645.03 901.94 L 646.50 896.80 L 647.97 895.79 L 649.44 897.86 L 650.92 902.11 L 652.39 898.32 L 653.86 905.19 L 655.33 897.48 L 656.81 898.27 L 658.28 901.68 L 659.75 899.07 L 661.22 894.22 L 662.69 890.99 L 664.17 900.47 L 665.64 905.06 L 667.11 905.85 L 668.58 896.91 L 670.06 901.52 L 671.53 900.31 L 673.00 904.22 L 674.47 905.48 L 675.94 908.09 L 677.42 906.89 L 678.89 904.11 L 680.36 898.78 L 681.83 905.87 L 683.31 901.92 L 684.78 906.22 L 686.25 904.35 L 687.72 903.70 L 689.19 904.70 L 690.67 900.88 L 692.14 899.89 L 693.61 899.48 L 695.08 899.99 L 696.56 898.52 L 698.03 900.11 L 699.50 903.99 L 700.97 896.93 L 702.44 895.03 L 703.92 895.98 L 705.39 895.76 L 706.86 895.44 L 708.33 901.24 L 709.81 904.24 L 711.28 905.31 L 712.75 905.41 L 714.22 906.25 L 715.69 904.40 L 717.17 905.11 L 718.64 903.47 L 720.11 896.31 L 721.58 896.18 L 723.06 894.28 L 724.53 894.59 L 726.00 887.67 L 727.47 874.96 L 728.94 856.57 L 730.42 848.60 L 731.89 858.08 L 733.36 821.47 L 734.83 832.97 L 736.31 839.68 L 737.78 869.02 L 739.25 883.31 L 740.72 897.79 L 742.19 841.62 L 743.67 806.04 L 745.14 812.94 L 746.61 837.34 L 748.08 847.04 L 749.56 876.42 L 751.03 901.27 L 752.50 878.04 L 753.97 861.04 L 755.44 864.78 L 756.92 868.53 L 758.39 872.73 L 759.86 882.08 L 761.33 891.71 L 762.81 893.72 L 764.28 896.40 L 765.75 896.90 L 767.22 904.39 L 768.69 904.42" stroke="#E53935" />
<text x="620.00" y="952" font-size="15" text-anchor="middle">minutos (relativo ao início do evento)</text>
<text class="small" x="90.00" y="936" text-anchor="middle">-4.00</text>
<text class="small" x="266.67" y="936" text-anchor="middle">-2.00</text>
<text class="small" x="443.33" y="936" text-anchor="middle">0.00</text>
<text class="small" x="620.00" y="936" text-anchor="middle">2.00</text>
<text class="small" x="796.67" y="936" text-anchor="middle">4.00</text>
<text class="small" x="973.33" y="936" text-anchor="middle">6.00</text>
<text class="small" x="1150.00" y="936" text-anchor="middle">8.00</text>
</svg>