<?xml version="1.0" encoding="UTF-8"?>
<svg xmlns="http://www.w3.org/2000/svg" width="1180" height="980" viewBox="0 0 1180 980">
<style>
text { font-family: -apple-system, BlinkMacSystemFont, 'Segoe UI', Roboto, Helvetica, Arial, sans-serif; fill: #111; }
.small { font-size: 12px; fill: #222; }
.title { font-size: 18px; font-weight: 700; }
.axis { stroke: #111; stroke-width: 1.4; }
.grid { stroke: #E6E6E6; stroke-width: 1; }
.event { fill: #FFEB3B; fill-opacity: 0.18; }
.eventline { stroke: #F9A825; stroke-width: 1.2; stroke-dasharray: 4 3; }
.series { fill: none; stroke-width: 1.8; }
</style>
<text class="title" x="90" y="34">ciclo 2 — espera_basculamento — 2025-12-12T14:08:50-03:00 → 2025-12-12T14:09:52-03:00 (span 62s, dur 63s)</text>
<text class="small" x="90" y="54">GPS: -11.694150,-47.165527  hotspot: -11.694,-47.166</text>
<text class="small" x="90" y="70">Janela: -3.00 → 4.03 min (relativo ao início do evento)</text>
<text x="90" y="79.00" font-size="14" font-weight="700">Velocidade (km/h)</text>
<rect class="event" x="443.33" y="85.00" width="91.28" height="192.75" />
<line class="eventline" x1="443.33" y1="85.00" x2="443.33" y2="277.75" />
<line class="eventline" x1="534.61" y1="85.00" x2="534.61" y2="277.75" />
<line class="grid" x1="90" y1="277.75" x2="1150" y2="277.75" />
<text class="small" x="80" y="281.75" text-anchor="end">0.00</text>
<line class="grid" x1="90" y1="239.20" x2="1150" y2="239.20" />
<text class="small" x="80" y="243.20" text-anchor="end">10.0</text>
<line class="grid" x1="90" y1="200.65" x2="1150" y2="200.65" />
<text class="small" x="80" y="204.65" text-anchor="end">20.0</text>
<line class="grid" x1="90" y1="162.10" x2="1150" y2="162.10" />
<text class="small" x="80" y="166.10" text-anchor="end">30.0</text>
<line class="grid" x1="90" y1="123.55" x2="1150" y2="123.55" />
<text class="small" x="80" y="127.55" text-anchor="end">40.0</text>
<line class="grid" x1="90" y1="85.00" x2="1150" y2="85.00" />
<text class="small" x="80" y="89.00" text-anchor="end">50.0</text>
<line class="grid" x1="90.00" y1="85.00" x2="90.00" y2="277.75" />
<line class="grid" x1="266.67" y1="85.00" x2="266.67" y2="277.75" />
<line class="grid" x1="443.33" y1="85.00" x2="443.33" y2="277.75" />
<line class="grid" x1="620.00" y1="85.00" x2="620.00" y2="277.75" />
<line class="grid" x1="796.67" y1="85.00" x2="796.67" y2="277.75" />
<line class="grid" x1="973.33" y1="85.00" x2="973.33" y2="277.75" />
<line class="grid" x1="1150.00" y1="85.00" x2="1150.00" y2="277.75" />
<line class="axis" x1="90" y1="85.00" x2="90" y2="277.75" />
<line class="axis" x1="90" y1="277.75" x2="1150" y2="277.75" />
<path class="series" d="M 178.33 244.72 L 179.81 247.22 L 181.28 245.55 L 182.75 244.72 L 184.22 245.97 L 185.69 245.55 L 187.17 244.58 L 188.64 244.86 L 190.11 243.75 L 191.58 244.30 L 193.06 244.44 L 194.53 244.86 L 196.00 245.41 L 197.47 245.14 L 198.94 244.58 L 200.42 244.86 L 201.89 245.00 L 203.36 245.55 L 204.83 246.80 L 206.31 245.41 L 207.78 246.25 L 209.25 245.14 L 210.72 244.86 L 212.19 244.17 L 213.67 243.19 L 215.14 241.81 L 216.61 240.83 L 218.08 240.14 L 219.56 237.64 L 221.03 239.17 L 222.50 238.34 L 223.97 238.48 L 225.44 239.17 L 226.92 241.67 L 228.39 244.30 L 229.86 248.33 L 231.33 253.19 L 232.81 252.21 L 234.28 250.13 L 235.75 249.16 L 237.22 247.63 L 238.69 246.66 L 240.17 245.97 L 241.64 244.72 L 243.11 244.30 L 244.58 244.86 L 246.06 244.44 L 247.53 243.61 L 249.00 244.03 L 250.47 243.47 L 251.94 243.75 L 253.42 242.78 L 254.89 244.30 L 256.36 244.58 L 257.83 245.00 L 259.31 245.69 L 260.78 244.58 L 262.25 247.50 L 263.72 247.22 L 265.19 246.94 L 266.67 245.69 L 268.14 246.80 L 269.61 244.86 L 271.08 243.19 L 272.56 242.64 L 274.03 243.06 L 275.50 243.19 L 276.97 245.28 L 278.44 245.28 L 279.92 240.70 L 281.39 236.95 L 282.86 230.29 L 284.33 223.21 L 285.81 224.04 L 287.28 224.87 L 288.75 224.87 L 290.22 224.74 L 291.69 228.62 L 293.17 225.01 L 294.64 225.99 L 296.11 223.21 L 297.58 222.65 L 299.06 223.49 L 300.53 224.32 L 302.00 222.24 L 303.47 220.02 L 304.94 216.13 L 306.42 219.18 L 307.89 218.21 L 309.36 218.63 L 310.83 219.05 L 312.31 220.02 L 313.78 221.27 L 315.25 227.37 L 316.72 224.74 L 318.19 227.51 L 319.67 225.99 L 321.14 226.68 L 322.61 228.62 L 324.08 230.56 L 325.56 235.84 L 327.03 237.37 L 328.50 238.89 L 329.97 236.81 L 331.44 235.56 L 332.92 236.12 L 334.39 233.76 L 335.86 234.73 L 337.33 234.31 L 338.81 236.67 L 340.28 234.73 L 341.75 235.56 L 343.22 234.87 L 344.69 235.42 L 346.17 233.06 L 347.64 230.84 L 349.11 230.43 L 350.58 232.92 L 352.06 229.32 L 353.53 230.43 L 355.00 233.76 L 356.47 234.87 L 357.94 235.56 L 359.42 241.67 L 360.89 241.67 L 362.36 240.97 L 363.83 237.64 L 365.31 250.97 L 366.78 243.47 L 368.25 241.25 L 369.72 249.72 L 371.19 247.63 L 372.67 248.88 L 374.14 248.88 L 375.61 252.91 L 377.08 246.80 L 378.56 240.28 L 380.03 239.03 L 381.50 248.61 L 382.97 250.27 L 384.44 249.72 L 385.92 249.30 L 387.39 246.52 L 388.86 246.94 L 390.33 247.36 L 391.81 253.74 L 393.28 260.68 L 394.75 265.81 L 396.22 270.26 L 397.69 267.76 L 399.17 267.76 L 400.64 277.75 L 402.11 277.75 L 403.58 277.75 L 405.06 277.75 L 406.53 277.75 L 408.00 277.75 L 409.47 277.75 L 410.94 277.75 L 412.42 277.75 L 413.89 277.75 L 415.36 262.21 L 416.83 266.09 L 418.31 265.54 L 419.78 263.73 L 421.25 264.57 L 422.72 263.73 L 424.19 270.81 L 425.67 270.81 L 427.14 270.81 L 428.61 269.42 L 430.08 270.26 L 431.56 271.37 L 433.03 270.67 L 434.50 267.76 L 435.97 272.48 L 437.44 273.59 L 438.92 270.39 L 440.39 269.28 L 441.86 270.95 L 443.33 277.75 L 444.81 277.75 L 446.28 277.75 L 447.75 277.75 L 449.22 277.75 L 450.69 277.75 L 452.17 277.75 L 453.64 277.75 L 455.11 277.75 L 456.58 277.75 L 458.06 277.75 L 459.53 277.75 L 461.00 277.75 L 462.47 277.75 L 463.94 277.75 L 465.42 277.75 L 466.89 277.75 L 468.36 277.75 L 469.83 277.75 L 471.31 277.75 L 472.78 277.75 L 474.25 277.75 L 475.72 277.75 L 477.19 277.75 L 478.67 277.75 L 480.14 277.75 L 481.61 277.75 L 483.08 277.75 L 484.56 277.75 L 486.03 277.75 L 487.50 277.75 L 488.97 277.75 L 490.44 277.75 L 491.92 277.75 L 493.39 277.75 L 494.86 277.75 L 496.33 277.75 L 497.81 277.75 L 499.28 277.75 L 500.75 277.75 L 502.22 277.75 L 503.69 277.75 L 505.17 277.75 L 506.64 277.75 L 508.11 277.75 L 509.58 277.75 L 511.06 277.75 L 512.53 277.75 L 514.00 277.75 L 515.47 277.75 L 516.94 277.75 L 518.42 277.75 L 519.89 277.75 L 521.36 277.75 L 522.83 277.75 L 524.31 277.75 L 525.78 277.75 L 527.25 277.75 L 528.72 277.75 L 530.19 277.75 L 531.67 277.75 L 533.14 277.75 L 534.61 277.75 L 536.08 268.04 L 537.56 269.01 L 539.03 271.64 L 540.50 273.03 L 541.97 272.06 L 543.44 277.75 L 544.92 277.75 L 546.39 269.56 L 547.86 277.75 L 549.33 277.75 L 550.81 277.75 L 552.28 271.50 L 553.75 267.62 L 555.22 272.62 L 556.69 271.37 L 558.17 273.73 L 559.64 277.75 L 561.11 277.75 L 562.58 277.75 L 564.06 277.75 L 565.53 277.75 L 567.00 277.75 L 568.47 277.75 L 569.94 277.75 L 571.42 277.75 L 572.89 277.75 L 574.36 277.75 L 575.83 277.75 L 577.31 277.75 L 578.78 277.75 L 580.25 277.75 L 581.72 277.75 L 583.19 277.75 L 584.67 277.75 L 586.14 277.75 L 587.61 277.75 L 589.08 277.75 L 590.56 277.75 L 592.03 277.75 L 593.50 277.75 L 594.97 277.75 L 596.44 277.75 L 597.92 277.75 L 599.39 265.12 L 600.86 257.49 L 602.33 246.80 L 603.81 233.62 L 605.28 224.74 L 606.75 211.97 L 608.22 205.86 L 609.69 196.15 L 611.17 194.76 L 612.64 211.69 L 614.11 212.11 L 615.58 209.47 L 617.06 200.59 L 618.53 201.98 L 620.00 217.66 L 621.47 223.35 L 622.94 219.05 L 624.42 219.74 L 625.89 214.61 L 627.36 217.52 L 628.83 208.50 L 630.31 200.73 L 631.78 197.54 L 633.25 210.30 L 634.72 203.78 L 636.19 203.64 L 637.67 189.76 L 639.14 195.45 L 640.61 197.67 L 642.08 197.95 L 643.56 197.26 L 645.03 199.20 L 646.50 199.62 L 647.97 204.06 L 649.44 210.58 L 650.92 209.75 L 652.39 205.03 L 653.86 209.89 L 655.33 214.33 L 656.81 217.10 L 658.28 223.07 L 659.75 222.38 L 661.22 221.68 L 662.69 211.97 L 664.17 206.42 L 665.64 209.05 L 667.11 212.94 L 668.58 213.08 L 670.06 214.88 L 671.53 213.36 L 673.00 208.78 L 674.47 210.03 L 675.94 206.42 L 677.42 203.09 L 678.89 200.59 L 680.36 195.59 L 681.83 190.32 L 683.31 184.77 L 684.78 179.35 L 686.25 172.55 L 687.72 170.33 L 689.19 165.75 L 690.67 167.70 L 692.14 170.20 L 693.61 166.73 L 695.08 170.89 L 696.56 176.44 L 698.03 178.94 L 699.50 174.50 L 700.97 168.81 L 702.44 163.40 L 703.92 163.12 L 705.39 159.23 L 706.86 155.62 L 708.33 152.29 L 709.81 145.35 L 711.28 144.66 L 712.75 149.38 L 714.22 156.04 L 715.69 152.02 L 717.17 146.33 L 718.64 161.87 L 720.11 163.95 L 721.58 167.56 L 723.06 164.64 L 724.53 158.95 L 726.00 154.65 L 727.47 153.26 L 728.94 158.26 L 730.42 161.17 L 731.89 161.59 L 733.36 169.22 L 734.83 176.02 L 736.31 170.47 L 737.78 167.70 L 739.25 160.90 L 740.72 166.03 L 742.19 160.34 L 743.67 161.87 L 745.14 159.09 L 746.61 166.86 L 748.08 173.66 L 749.56 170.47 L 751.03 172.55 L 752.50 175.75 L 753.97 177.55 L 755.44 180.88 L 756.92 176.72 L 758.39 173.39 L 759.86 174.64 L 761.33 175.05 L 762.81 176.16 L 764.28 175.05 L 765.75 173.80 L 767.22 176.58 L 768.69 175.47 L 770.17 165.89 L 771.64 162.42 L 773.11 169.64 L 774.58 169.22 L 776.06 161.45 L 777.53 151.60 L 779.00 171.17 L 780.47 173.66 L 781.94 187.27 L 783.42 191.01 L 784.89 185.04 L 786.36 204.34 L 787.83 214.47 L 789.31 268.59 L 790.78 277.75 L 792.25 277.75 L 793.72 277.75 L 795.19 277.75 L 796.67 277.75 L 798.14 248.74 L 799.61 236.67" stroke="#1976D2" />
<text x="90" y="289.75" font-size="14" font-weight="700">Inclinação (graus)</text>
<rect class="event" x="443.33" y="295.75" width="91.28" height="192.75" />
<line class="eventline" x1="443.33" y1="295.75" x2="443.33" y2="488.50" />
<line class="eventline" x1="534.61" y1="295.75" x2="534.61" y2="488.50" />
<line class="grid" x1="90" y1="488.50" x2="1150" y2="488.50" />
<text class="small" x="80" y="492.50" text-anchor="end">-20.0</text>
<line class="grid" x1="90" y1="456.38" x2="1150" y2="456.38" />
<text class="small" x="80" y="460.38" text-anchor="end">-10.0</text>
<line class="grid" x1="90" y1="424.25" x2="1150" y2="424.25" />
<text class="small" x="80" y="428.25" text-anchor="end">0.00</text>
<line class="grid" x1="90" y1="392.12" x2="1150" y2="392.12" />
<text class="small" x="80" y="396.12" text-anchor="end">10.0</text>
<line class="grid" x1="90" y1="360.00" x2="1150" y2="360.00" />
<text class="small" x="80" y="364.00" text-anchor="end">20.0</text>
<line class="grid" x1="90" y1="327.88" x2="1150" y2="327.88" />
<text class="small" x="80" y="331.88" text-anchor="end">30.0</text>
<line class="grid" x1="90" y1="295.75" x2="1150" y2="295.75" />
<text class="small" x="80" y="299.75" text-anchor="end">40.0</text>
<line class="grid" x1="90.00" y1="295.75" x2="90.00" y2="488.50" />
<line class="grid" x1="266.67" y1="295.75" x2="266.67" y2="488.50" />
<line class="grid" x1="443.33" y1="295.75" x2="443.33" y2="488.50" />
<line class="grid" x1="620.00" y1="295.75" x2="620.00" y2="488.50" />
<line class="grid" x1="796.67" y1="295.75" x2="796.67" y2="488.50" />
<line class="grid" x1="973.33" y1="295.75" x2="973.33" y2="488.50" />
<line class="grid" x1="1150.00" y1="295.75" x2="1150.00" y2="488.50" />
<line class="axis" x1="90" y1="295.75" x2="90" y2="488.50" />
<line class="axis" x1="90" y1="488.50" x2="1150" y2="488.50" />
<path class="series" d="M 178.33 408.40 L 179.81 408.18 L 181.28 408.39 L 182.75 410.21 L 184.22 408.40 L 185.69 409.17 L 187.17 407.39 L 188.64 405.81 L 190.11 407.92 L 191.58 407.62 L 193.06 407.11 L 194.53 407.95 L 196.00 408.02 L 197.47 408.58 L 198.94 409.44 L 200.42 408.92 L 201.89 409.60 L 203.36 409.36 L 204.83 409.03 L 206.31 408.71 L 207.78 407.19 L 209.25 407.02 L 210.72 407.02 L 212.19 405.15 L 213.67 402.59 L 215.14 402.01 L 216.61 404.15 L 218.08 405.66 L 219.56 405.85 L 221.03 405.81 L 222.50 406.68 L 223.97 406.13 L 225.44 407.09 L 226.92 407.21 L 228.39 409.36 L 229.86 409.12 L 231.33 410.12 L 232.81 414.02 L 234.28 411.45 L 235.75 411.05 L 237.22 410.48 L 238.69 409.58 L 240.17 409.50 L 241.64 407.24 L 243.11 407.94 L 244.58 407.47 L 246.06 407.01 L 247.53 406.35 L 249.00 404.76 L 250.47 404.38 L 251.94 404.82 L 253.42 406.15 L 254.89 406.77 L 256.36 408.38 L 257.83 409.10 L 259.31 408.98 L 260.78 411.63 L 262.25 409.58 L 263.72 409.08 L 265.19 409.42 L 266.67 408.91 L 268.14 411.06 L 269.61 408.04 L 271.08 405.13 L 272.56 402.14 L 274.03 404.42 L 275.50 405.17 L 276.97 403.61 L 278.44 404.38 L 279.92 403.98 L 281.39 403.09 L 282.86 399.68 L 284.33 393.27 L 285.81 386.09 L 287.28 388.96 L 288.75 383.91 L 290.22 378.65 L 291.69 384.35 L 293.17 392.60 L 294.64 389.21 L 296.11 388.37 L 297.58 388.81 L 299.06 391.28 L 300.53 392.86 L 302.00 395.16 L 303.47 391.98 L 304.94 395.07 L 306.42 395.35 L 307.89 392.40 L 309.36 393.28 L 310.83 391.64 L 312.31 385.07 L 313.78 388.47 L 315.25 386.34 L 316.72 395.01 L 318.19 399.53 L 319.67 397.84 L 321.14 399.37 L 322.61 400.07 L 324.08 403.29 L 325.56 397.22 L 327.03 404.18 L 328.50 404.27 L 329.97 402.53 L 331.44 404.61 L 332.92 402.13 L 334.39 400.33 L 335.86 399.60 L 337.33 397.20 L 338.81 399.31 L 340.28 395.49 L 341.75 394.80 L 343.22 387.34 L 344.69 378.52 L 346.17 384.46 L 347.64 380.91 L 349.11 381.36 L 350.58 383.45 L 352.06 382.94 L 353.53 379.95 L 355.00 382.20 L 356.47 383.75 L 357.94 381.91 L 359.42 384.33 L 360.89 381.04 L 362.36 382.22 L 363.83 381.32 L 365.31 380.01 L 366.78 382.07 L 368.25 381.79 L 369.72 381.30 L 371.19 381.89 L 372.67 379.40 L 374.14 386.67 L 375.61 389.66 L 377.08 393.00 L 378.56 384.96 L 380.03 375.84 L 381.50 382.62 L 382.97 386.41 L 384.44 386.26 L 385.92 383.96 L 387.39 379.72 L 388.86 379.69 L 390.33 381.37 L 391.81 378.09 L 393.28 385.26 L 394.75 386.96 L 396.22 396.43 L 397.69 389.75 L 399.17 380.72 L 400.64 394.41 L 402.11 393.93 L 403.58 386.28 L 405.06 390.36 L 406.53 390.43 L 408.00 390.80 L 409.47 394.23 L 410.94 381.12 L 412.42 394.43 L 413.89 388.19 L 415.36 398.74 L 416.83 392.98 L 418.31 389.95 L 419.78 394.20 L 421.25 392.42 L 422.72 391.96 L 424.19 388.46 L 425.67 388.46 L 427.14 391.24 L 428.61 391.17 L 430.08 389.70 L 431.56 391.23 L 433.03 385.67 L 434.50 387.96 L 435.97 394.15 L 437.44 390.63 L 438.92 387.33 L 440.39 390.09 L 441.86 393.65 L 443.33 394.29 L 444.81 396.60 L 446.28 393.34 L 447.75 393.13 L 449.22 392.85 L 450.69 392.83 L 452.17 392.34 L 453.64 392.54 L 455.11 393.95 L 456.58 395.20 L 458.06 394.55 L 459.53 383.27 L 461.00 392.48 L 462.47 393.06 L 463.94 392.07 L 465.42 391.61 L 466.89 391.61 L 468.36 391.45 L 469.83 391.47 L 471.31 391.30 L 472.78 391.24 L 474.25 391.37 L 475.72 391.47 L 477.19 391.53 L 478.67 391.57 L 480.14 391.63 L 481.61 391.75 L 483.08 391.80 L 484.56 391.99 L 486.03 391.39 L 487.50 391.49 L 488.97 391.46 L 490.44 392.39 L 491.92 391.06 L 493.39 390.83 L 494.86 391.59 L 496.33 391.91 L 497.81 391.38 L 499.28 391.45 L 500.75 391.76 L 502.22 391.63 L 503.69 391.90 L 505.17 391.94 L 506.64 392.37 L 508.11 391.35 L 509.58 393.89 L 511.06 392.60 L 512.53 393.09 L 514.00 393.56 L 515.47 393.56 L 516.94 393.90 L 518.42 394.11 L 519.89 394.25 L 521.36 394.38 L 522.83 395.28 L 524.31 395.75 L 525.78 395.72 L 527.25 395.72 L 528.72 395.73 L 530.19 395.87 L 531.67 395.75 L 533.14 398.03 L 534.61 407.21 L 536.08 397.16 L 537.56 391.69 L 539.03 391.62 L 540.50 397.03 L 541.97 392.31 L 543.44 389.81 L 544.92 403.69 L 546.39 389.12 L 547.86 386.44 L 549.33 391.58 L 550.81 396.64 L 552.28 400.37 L 553.75 385.82 L 555.22 392.39 L 556.69 398.37 L 558.17 381.08 L 559.64 391.60 L 561.11 392.05 L 562.58 391.65 L 564.06 391.49 L 565.53 391.71 L 567.00 391.44 L 568.47 391.39 L 569.94 391.42 L 571.42 391.03 L 572.89 391.11 L 574.36 391.17 L 575.83 391.09 L 577.31 390.86 L 578.78 391.05 L 580.25 391.02 L 581.72 391.01 L 583.19 391.05 L 584.67 391.00 L 586.14 390.97 L 587.61 390.98 L 589.08 390.96 L 590.56 390.93 L 592.03 391.02 L 593.50 390.95 L 594.97 391.07 L 596.44 399.00 L 597.92 401.96 L 599.39 400.41 L 600.86 406.74 L 602.33 411.11 L 603.81 405.46 L 605.28 412.51 L 606.75 401.51 L 608.22 404.01 L 609.69 390.18 L 611.17 370.58 L 612.64 388.20 L 614.11 394.04 L 615.58 400.95 L 617.06 385.45 L 618.53 368.24 L 620.00 380.77 L 621.47 389.87 L 622.94 373.50 L 624.42 401.06 L 625.89 381.24 L 627.36 393.66 L 628.83 392.36 L 630.31 373.43 L 631.78 368.54 L 633.25 379.68 L 634.72 384.34 L 636.19 368.81 L 637.67 372.93 L 639.14 371.19 L 640.61 370.02 L 642.08 380.25 L 643.56 378.31 L 645.03 377.49 L 646.50 377.49 L 647.97 383.27 L 649.44 385.85 L 650.92 387.90 L 652.39 381.39 L 653.86 380.09 L 655.33 376.73 L 656.81 379.08 L 658.28 378.41 L 659.75 378.37 L 661.22 389.75 L 662.69 393.66 L 664.17 390.95 L 665.64 384.82 L 667.11 388.33 L 668.58 388.51 L 670.06 395.50 L 671.53 396.41 L 673.00 386.49 L 674.47 381.02 L 675.94 388.24 L 677.42 380.47 L 678.89 378.59 L 680.36 380.70 L 681.83 376.69 L 683.31 377.00 L 684.78 376.42 L 686.25 377.72 L 687.72 376.39 L 689.19 372.50 L 690.67 363.73 L 692.14 370.98 L 693.61 368.95 L 695.08 353.88 L 696.56 367.18 L 698.03 377.75 L 699.50 379.99 L 700.97 379.42 L 702.44 370.86 L 703.92 372.24 L 705.39 376.30 L 706.86 374.64 L 708.33 374.57 L 709.81 375.54 L 711.28 374.93 L 712.75 348.16 L 714.22 369.76 L 715.69 378.85 L 717.17 360.49 L 718.64 351.95 L 720.11 370.30 L 721.58 363.08 L 723.06 374.25 L 724.53 375.24 L 726.00 375.19 L 727.47 361.77 L 728.94 364.84 L 730.42 370.32 L 731.89 366.19 L 733.36 354.34 L 734.83 371.18 L 736.31 377.41 L 737.78 374.97 L 739.25 369.15 L 740.72 364.92 L 742.19 371.07 L 743.67 370.85 L 745.14 368.30 L 746.61 356.57 L 748.08 370.47 L 749.56 372.85 L 751.03 367.15 L 752.50 366.87 L 753.97 367.81 L 755.44 370.47 L 756.92 373.51 L 758.39 370.62 L 759.86 366.99 L 761.33 366.35 L 762.81 365.91 L 764.28 366.48 L 765.75 366.26 L 767.22 366.12 L 768.69 377.12 L 770.17 375.58 L 771.64 358.70 L 773.11 364.53 L 774.58 374.88 L 776.06 371.02 L 777.53 358.59 L 779.00 370.62 L 780.47 359.84 L 781.94 374.30 L 783.42 369.05 L 784.89 365.16 L 786.36 323.15 L 787.83 330.32 L 789.31 355.43 L 790.78 374.80 L 792.25 377.44 L 793.72 393.71 L 795.19 374.88 L 796.67 392.77 L 798.14 401.39 L 799.61 393.25" stroke="#2E7D32" />
<path class="series" d="M 178.33 414.89 L 179.81 417.39 L 181.28 416.44 L 182.75 421.02 L 184.22 417.75 L 185.69 424.18 L 187.17 425.37 L 188.64 422.20 L 190.11 427.07 L 191.58 427.86 L 193.06 425.37 L 194.53 422.50 L 196.00 424.29 L 197.47 427.41 L 198.94 423.11 L 200.42 421.72 L 201.89 420.49 L 203.36 418.44 L 204.83 418.63 L 206.31 417.06 L 207.78 416.63 L 209.25 413.61 L 210.72 413.61 L 212.19 413.62 L 213.67 410.82 L 215.14 413.14 L 216.61 411.81 L 218.08 416.64 L 219.56 414.66 L 221.03 418.67 L 222.50 417.99 L 223.97 416.70 L 225.44 415.69 L 226.92 419.35 L 228.39 420.88 L 229.86 420.47 L 231.33 420.41 L 232.81 418.85 L 234.28 415.80 L 235.75 416.16 L 237.22 419.91 L 238.69 419.48 L 240.17 416.99 L 241.64 419.18 L 243.11 415.29 L 244.58 414.19 L 246.06 409.18 L 247.53 409.77 L 249.00 410.75 L 250.47 415.07 L 251.94 414.97 L 253.42 413.20 L 254.89 415.75 L 256.36 413.77 L 257.83 417.57 L 259.31 418.54 L 260.78 417.10 L 262.25 418.83 L 263.72 419.78 L 265.19 423.18 L 266.67 422.74 L 268.14 425.94 L 269.61 425.24 L 271.08 431.08 L 272.56 425.54 L 274.03 426.97 L 275.50 425.21 L 276.97 426.07 L 278.44 425.06 L 279.92 422.73 L 281.39 425.52 L 282.86 418.19 L 284.33 414.22 L 285.81 422.48 L 287.28 413.59 L 288.75 416.29 L 290.22 415.15 L 291.69 412.86 L 293.17 420.17 L 294.64 422.09 L 296.11 416.78 L 297.58 416.47 L 299.06 421.26 L 300.53 422.90 L 302.00 427.74 L 303.47 427.07 L 304.94 424.03 L 306.42 426.68 L 307.89 426.11 L 309.36 429.39 L 310.83 430.04 L 312.31 435.10 L 313.78 431.19 L 315.25 432.35 L 316.72 433.13 L 318.19 419.69 L 319.67 418.47 L 321.14 421.11 L 322.61 425.30 L 324.08 419.36 L 325.56 417.74 L 327.03 420.05 L 328.50 418.16 L 329.97 413.48 L 331.44 425.11 L 332.92 416.43 L 334.39 418.57 L 335.86 415.78 L 337.33 417.95 L 338.81 411.10 L 340.28 414.83 L 341.75 407.06 L 343.22 415.67 L 344.69 419.66 L 346.17 424.45 L 347.64 427.09 L 349.11 429.83 L 350.58 431.73 L 352.06 429.23 L 353.53 424.27 L 355.00 419.58 L 356.47 421.15 L 357.94 414.72 L 359.42 417.84 L 360.89 410.87 L 362.36 412.75 L 363.83 405.36 L 365.31 404.87 L 366.78 407.20 L 368.25 408.34 L 369.72 414.17 L 371.19 424.67 L 372.67 418.57 L 374.14 417.20 L 375.61 422.55 L 377.08 412.32 L 378.56 415.61 L 380.03 413.59 L 381.50 408.61 L 382.97 407.80 L 384.44 404.93 L 385.92 403.99 L 387.39 404.16 L 388.86 405.71 L 390.33 406.85 L 391.81 418.47 L 393.28 417.22 L 394.75 416.37 L 396.22 412.16 L 397.69 419.60 L 399.17 418.77 L 400.64 414.18 L 402.11 414.92 L 403.58 418.27 L 405.06 415.20 L 406.53 414.21 L 408.00 415.98 L 409.47 414.81 L 410.94 413.16 L 412.42 413.54 L 413.89 413.31 L 415.36 417.25 L 416.83 416.70 L 418.31 418.62 L 419.78 417.58 L 421.25 413.45 L 422.72 418.67 L 424.19 416.34 L 425.67 416.34 L 427.14 421.04 L 428.61 417.61 L 430.08 419.39 L 431.56 418.18 L 433.03 416.36 L 434.50 416.17 L 435.97 417.18 L 437.44 420.49 L 438.92 419.05 L 440.39 419.81 L 441.86 422.52 L 443.33 423.73 L 444.81 423.09 L 446.28 423.06 L 447.75 422.35 L 449.22 423.24 L 450.69 422.23 L 452.17 422.03 L 453.64 422.78 L 455.11 423.40 L 456.58 423.04 L 458.06 422.15 L 459.53 421.51 L 461.00 422.98 L 462.47 423.40 L 463.94 421.88 L 465.42 421.87 L 466.89 422.17 L 468.36 422.60 L 469.83 422.82 L 471.31 422.66 L 472.78 422.20 L 474.25 422.23 L 475.72 422.60 L 477.19 422.66 L 478.67 422.56 L 480.14 422.43 L 481.61 422.71 L 483.08 422.81 L 484.56 422.52 L 486.03 422.69 L 487.50 422.84 L 488.97 422.27 L 490.44 423.31 L 491.92 422.39 L 493.39 422.55 L 494.86 422.35 L 496.33 423.16 L 497.81 422.84 L 499.28 422.60 L 500.75 422.88 L 502.22 422.91 L 503.69 422.90 L 505.17 422.85 L 506.64 423.02 L 508.11 422.77 L 509.58 423.29 L 511.06 423.32 L 512.53 423.16 L 514.00 423.41 L 515.47 423.21 L 516.94 423.54 L 518.42 423.70 L 519.89 423.68 L 521.36 423.90 L 522.83 424.05 L 524.31 424.58 L 525.78 424.41 L 527.25 424.42 L 528.72 424.41 L 530.19 424.42 L 531.67 424.30 L 533.14 424.91 L 534.61 423.71 L 536.08 419.52 L 537.56 418.46 L 539.03 420.40 L 540.50 417.42 L 541.97 419.37 L 543.44 418.94 L 544.92 414.84 L 546.39 419.91 L 547.86 419.39 L 549.33 418.19 L 550.81 417.20 L 552.28 415.91 L 553.75 422.15 L 555.22 417.89 L 556.69 419.83 L 558.17 421.34 L 559.64 420.29 L 561.11 420.05 L 562.58 419.97 L 564.06 420.16 L 565.53 420.02 L 567.00 420.07 L 568.47 420.15 L 569.94 419.89 L 571.42 420.12 L 572.89 420.00 L 574.36 420.00 L 575.83 420.33 L 577.31 419.81 L 578.78 420.11 L 580.25 420.24 L 581.72 419.79 L 583.19 420.24 L 584.67 420.07 L 586.14 420.03 L 587.61 420.10 L 589.08 420.08 L 590.56 420.08 L 592.03 420.11 L 593.50 420.10 L 594.97 420.13 L 596.44 418.88 L 597.92 416.98 L 599.39 413.81 L 600.86 409.03 L 602.33 415.31 L 603.81 412.32 L 605.28 407.19 L 606.75 419.45 L 608.22 413.24 L 609.69 420.22 L 611.17 430.26 L 612.64 423.78 L 614.11 419.06 L 615.58 420.48 L 617.06 413.48 L 618.53 413.02 L 620.00 407.62 L 621.47 411.82 L 622.94 408.89 L 624.42 417.69 L 625.89 425.33 L 627.36 418.07 L 628.83 428.65 L 630.31 427.45 L 631.78 433.48 L 633.25 413.35 L 634.72 414.03 L 636.19 403.26 L 637.67 415.55 L 639.14 414.20 L 640.61 425.87 L 642.08 427.57 L 643.56 419.90 L 645.03 412.66 L 646.50 412.66 L 647.97 417.33 L 649.44 408.98 L 650.92 408.73 L 652.39 411.51 L 653.86 412.17 L 655.33 412.25 L 656.81 410.46 L 658.28 413.45 L 659.75 419.64 L 661.22 427.56 L 662.69 435.14 L 664.17 431.46 L 665.64 430.76 L 667.11 428.05 L 668.58 424.21 L 670.06 422.66 L 671.53 411.84 L 673.00 411.65 L 674.47 421.92 L 675.94 411.10 L 677.42 414.34 L 678.89 422.57 L 680.36 425.95 L 681.83 411.97 L 683.31 414.05 L 684.78 418.98 L 686.25 422.65 L 687.72 424.23 L 689.19 423.55 L 690.67 431.67 L 692.14 420.93 L 693.61 423.17 L 695.08 425.46 L 696.56 422.95 L 698.03 422.82 L 699.50 425.86 L 700.97 425.22 L 702.44 427.57 L 703.92 416.47 L 705.39 414.34 L 706.86 422.45 L 708.33 428.93 L 709.81 424.70 L 711.28 426.22 L 712.75 432.16 L 714.22 428.53 L 715.69 421.80 L 717.17 431.12 L 718.64 417.16 L 720.11 419.35 L 721.58 421.64 L 723.06 423.14 L 724.53 416.20 L 726.00 418.41 L 727.47 420.40 L 728.94 420.61 L 730.42 421.81 L 731.89 423.83 L 733.36 425.25 L 734.83 427.28 L 736.31 427.87 L 737.78 425.64 L 739.25 431.08 L 740.72 422.13 L 742.19 422.38 L 743.67 421.27 L 745.14 421.02 L 746.61 422.56 L 748.08 422.04 L 749.56 419.70 L 751.03 417.23 L 752.50 417.01 L 753.97 415.13 L 755.44 416.61 L 756.92 415.22 L 758.39 418.37 L 759.86 417.95 L 761.33 419.27 L 762.81 422.87 L 764.28 421.55 L 765.75 424.60 L 767.22 425.24 L 768.69 417.75 L 770.17 414.39 L 771.64 417.66 L 773.11 418.67 L 774.58 418.48 L 776.06 438.16 L 777.53 444.82 L 779.00 448.52 L 780.47 441.23 L 781.94 441.56 L 783.42 433.73 L 784.89 442.30 L 786.36 427.63 L 787.83 419.00 L 789.31 420.83 L 790.78 425.79 L 792.25 424.23 L 793.72 428.11 L 795.19 425.04 L 796.67 428.33 L 798.14 428.16 L 799.61 422.25" stroke="#6A1B9A" />
<line x1="900.00" y1="307.75" x2="918.00" y2="307.75" stroke="#2E7D32" stroke-width="3" />
<text class="small" x="924.00" y="311.75">pitch</text>
<line x1="900.00" y1="323.75" x2="918.00" y2="323.75" stroke="#6A1B9A" stroke-width="3" />
<text class="small" x="924.00" y="327.75">roll</text>
<text x="90" y="500.50" font-size="14" font-weight="700">Aceleração (magnitude) (u.a.)</text>
<rect class="event" x="443.33" y="506.50" width="91.28" height="192.75" />
<line class="eventline" x1="443.33" y1="506.50" x2="443.33" y2="699.25" />
<line class="eventline" x1="534.61" y1="506.50" x2="534.61" y2="699.25" />
<line class="grid" x1="90" y1="699.25" x2="1150" y2="699.25" />
<text class="small" x="80" y="703.25" text-anchor="end">0.00</text>
<line class="grid" x1="90" y1="660.70" x2="1150" y2="660.70" />
<text class="small" x="80" y="664.70" text-anchor="end">1.00</text>
<line class="grid" x1="90" y1="622.15" x2="1150" y2="622.15" />
<text class="small" x="80" y="626.15" text-anchor="end">2.00</text>
<line class="grid" x1="90" y1="583.60" x2="1150" y2="583.60" />
<text class="small" x="80" y="587.60" text-anchor="end">3.00</text>
<line class="grid" x1="90" y1="545.05" x2="1150" y2="545.05" />
<text class="small" x="80" y="549.05" text-anchor="end">4.00</text>
<line class="grid" x1="90" y1="506.50" x2="1150" y2="506.50" />
<text class="small" x="80" y="510.50" text-anchor="end">5.00</text>
<line class="grid" x1="90.00" y1="506.50" x2="90.00" y2="699.25" />
<line class="grid" x1="266.67" y1="506.50" x2="266.67" y2="699.25" />
<line class="grid" x1="443.33" y1="506.50" x2="443.33" y2="699.25" />
<line class="grid" x1="620.00" y1="506.50" x2="620.00" y2="699.25" />
<line class="grid" x1="796.67" y1="506.50" x2="796.67" y2="699.25" />
<line class="grid" x1="973.33" y1="506.50" x2="973.33" y2="699.25" />
<line class="grid" x1="1150.00" y1="506.50" x2="1150.00" y2="699.25" />
<line class="axis" x1="90" y1="506.50" x2="90" y2="699.25" />
<line class="axis" x1="90" y1="699.25" x2="1150" y2="699.25" />
<path class="series" d="M 178.33 697.32 L 179.81 697.05 L 181.28 691.94 L 182.75 694.48 L 184.22 691.75 L 185.69 695.77 L 187.17 693.37 L 188.64 693.84 L 190.11 693.96 L 191.58 692.67 L 193.06 693.47 L 194.53 696.51 L 196.00 696.10 L 197.47 696.12 L 198.94 698.22 L 200.42 696.77 L 201.89 697.98 L 203.36 696.89 L 204.83 698.68 L 206.31 697.60 L 207.78 696.59 L 209.25 693.97 L 210.72 695.88 L 212.19 694.29 L 213.67 697.30 L 215.14 693.85 L 216.61 695.23 L 218.08 692.65 L 219.56 695.10 L 221.03 695.42 L 222.50 695.42 L 223.97 694.30 L 225.44 692.60 L 226.92 688.18 L 228.39 692.51 L 229.86 688.06 L 231.33 684.47 L 232.81 692.16 L 234.28 690.37 L 235.75 695.44 L 237.22 694.75 L 238.69 696.82 L 240.17 695.06 L 241.64 692.85 L 243.11 696.28 L 244.58 695.17 L 246.06 695.71 L 247.53 692.13 L 249.00 694.95 L 250.47 696.63 L 251.94 695.81 L 253.42 695.52 L 254.89 697.02 L 256.36 695.07 L 257.83 696.93 L 259.31 695.28 L 260.78 690.04 L 262.25 698.11 L 263.72 697.66 L 265.19 695.61 L 266.67 689.49 L 268.14 680.96 L 269.61 693.08 L 271.08 691.31 L 272.56 697.36 L 274.03 693.95 L 275.50 692.60 L 276.97 697.48 L 278.44 692.63 L 279.92 688.89 L 281.39 679.75 L 282.86 681.01 L 284.33 683.48 L 285.81 680.88 L 287.28 682.03 L 288.75 685.89 L 290.22 690.23 L 291.69 690.52 L 293.17 696.36 L 294.64 685.02 L 296.11 688.71 L 297.58 683.90 L 299.06 683.88 L 300.53 694.72 L 302.00 692.36 L 303.47 677.85 L 304.94 692.16 L 306.42 692.47 L 307.89 691.32 L 309.36 693.49 L 310.83 679.29 L 312.31 684.59 L 313.78 690.99 L 315.25 690.97 L 316.72 681.33 L 318.19 672.22 L 319.67 686.36 L 321.14 690.85 L 322.61 691.06 L 324.08 682.54 L 325.56 689.50 L 327.03 690.20 L 328.50 686.24 L 329.97 685.96 L 331.44 680.56 L 332.92 690.21 L 334.39 690.56 L 335.86 689.73 L 337.33 689.93 L 338.81 690.16 L 340.28 687.83 L 341.75 686.61 L 343.22 686.33 L 344.69 671.30 L 346.17 671.30 L 347.64 657.99 L 349.11 679.36 L 350.58 693.48 L 352.06 684.07 L 353.53 683.09 L 355.00 681.36 L 356.47 686.81 L 357.94 687.76 L 359.42 683.24 L 360.89 681.62 L 362.36 681.77 L 363.83 690.23 L 365.31 684.81 L 366.78 677.88 L 368.25 675.82 L 369.72 690.04 L 371.19 682.07 L 372.67 696.99 L 374.14 682.13 L 375.61 685.18 L 377.08 680.19 L 378.56 692.23 L 380.03 675.85 L 381.50 662.64 L 382.97 677.89 L 384.44 687.54 L 385.92 687.76 L 387.39 686.76 L 388.86 682.60 L 390.33 682.56 L 391.81 672.63 L 393.28 679.52 L 394.75 681.91 L 396.22 693.63 L 397.69 691.64 L 399.17 679.02 L 400.64 686.03 L 402.11 692.84 L 403.58 693.09 L 405.06 690.35 L 406.53 692.38 L 408.00 694.67 L 409.47 695.27 L 410.94 685.27 L 412.42 691.09 L 413.89 694.25 L 415.36 696.13 L 416.83 689.43 L 418.31 690.62 L 419.78 693.16 L 421.25 692.08 L 422.72 688.55 L 424.19 686.99 L 425.67 694.14 L 427.14 697.39 L 428.61 697.20 L 430.08 696.96 L 431.56 695.33 L 433.03 695.81 L 434.50 692.90 L 435.97 695.99 L 437.44 690.82 L 438.92 692.91 L 440.39 696.00 L 441.86 696.34 L 443.33 694.35 L 444.81 696.94 L 446.28 696.62 L 447.75 696.21 L 449.22 697.72 L 450.69 697.92 L 452.17 698.63 L 453.64 694.77 L 455.11 690.44 L 456.58 694.00 L 458.06 681.01 L 459.53 697.91 L 461.00 695.73 L 462.47 696.22 L 463.94 697.47 L 465.42 698.47 L 466.89 698.40 L 468.36 698.65 L 469.83 698.53 L 471.31 698.53 L 472.78 697.87 L 474.25 698.38 L 475.72 699.02 L 477.19 698.91 L 478.67 698.80 L 480.14 698.87 L 481.61 699.08 L 483.08 698.95 L 484.56 697.76 L 486.03 698.46 L 487.50 697.66 L 488.97 698.06 L 490.44 697.73 L 491.92 698.58 L 493.39 697.28 L 494.86 696.11 L 496.33 697.97 L 497.81 697.78 L 499.28 698.18 L 500.75 698.63 L 502.22 698.79 L 503.69 698.73 L 505.17 698.81 L 506.64 698.50 L 508.11 693.75 L 509.58 693.23 L 511.06 697.84 L 512.53 698.73 L 514.00 698.88 L 515.47 698.70 L 516.94 698.37 L 518.42 699.01 L 519.89 697.57 L 521.36 698.63 L 522.83 697.95 L 524.31 698.40 L 525.78 698.74 L 527.25 698.53 L 528.72 698.83 L 530.19 699.14 L 531.67 698.71 L 533.14 695.71 L 534.61 683.28 L 536.08 690.02 L 537.56 685.90 L 539.03 690.09 L 540.50 694.43 L 541.97 691.52 L 543.44 696.46 L 544.92 678.37 L 546.39 682.36 L 547.86 686.47 L 549.33 696.99 L 550.81 689.34 L 552.28 689.23 L 553.75 672.84 L 555.22 692.52 L 556.69 696.47 L 558.17 675.10 L 559.64 696.37 L 561.11 697.05 L 562.58 696.91 L 564.06 697.17 L 565.53 696.58 L 567.00 697.33 L 568.47 696.91 L 569.94 697.22 L 571.42 696.98 L 572.89 698.20 L 574.36 697.79 L 575.83 697.80 L 577.31 698.11 L 578.78 696.60 L 580.25 698.36 L 581.72 698.60 L 583.19 698.72 L 584.67 698.97 L 586.14 698.66 L 587.61 698.61 L 589.08 698.89 L 590.56 698.95 L 592.03 698.92 L 593.50 699.16 L 594.97 696.84 L 596.44 687.55 L 597.92 687.55 L 599.39 682.10 L 600.86 688.95 L 602.33 675.56 L 603.81 688.26 L 605.28 680.21 L 606.75 669.52 L 608.22 689.25 L 609.69 681.16 L 611.17 660.74 L 612.64 648.82 L 614.11 688.08 L 615.58 683.10 L 617.06 685.70 L 618.53 665.49 L 620.00 654.39 L 621.47 686.03 L 622.94 669.29 L 624.42 671.13 L 625.89 673.17 L 627.36 680.49 L 628.83 681.22 L 630.31 696.33 L 631.78 663.10 L 633.25 671.84 L 634.72 668.85 L 636.19 685.06 L 637.67 667.78 L 639.14 678.29 L 640.61 673.45 L 642.08 688.80 L 643.56 669.82 L 645.03 676.45 L 646.50 676.04 L 647.97 682.70 L 649.44 682.87 L 650.92 688.77 L 652.39 681.77 L 653.86 684.05 L 655.33 688.52 L 656.81 683.74 L 658.28 690.13 L 659.75 680.04 L 661.22 662.71 L 662.69 680.98 L 664.17 674.08 L 665.64 680.72 L 667.11 691.81 L 668.58 690.19 L 670.06 692.98 L 671.53 675.83 L 673.00 689.98 L 674.47 678.87 L 675.94 696.21 L 677.42 688.78 L 678.89 686.69 L 680.36 689.51 L 681.83 692.52 L 683.31 691.60 L 684.78 687.44 L 686.25 694.70 L 687.72 692.72 L 689.19 680.61 L 690.67 690.04 L 692.14 688.82 L 693.61 687.28 L 695.08 679.80 L 696.56 688.23 L 698.03 683.76 L 699.50 682.06 L 700.97 685.79 L 702.44 691.37 L 703.92 692.31 L 705.39 697.53 L 706.86 684.38 L 708.33 689.75 L 709.81 693.80 L 711.28 676.30 L 712.75 672.28 L 714.22 681.93 L 715.69 682.44 L 717.17 653.42 L 718.64 688.17 L 720.11 690.29 L 721.58 690.29 L 723.06 681.69 L 724.53 684.24 L 726.00 685.86 L 727.47 692.01 L 728.94 680.47 L 730.42 694.30 L 731.89 694.18 L 733.36 675.13 L 734.83 690.97 L 736.31 682.13 L 737.78 680.54 L 739.25 682.76 L 740.72 674.59 L 742.19 688.10 L 743.67 693.91 L 745.14 689.95 L 746.61 664.06 L 748.08 697.56 L 749.56 683.30 L 751.03 692.43 L 752.50 685.52 L 753.97 692.71 L 755.44 695.53 L 756.92 688.28 L 758.39 691.57 L 759.86 692.10 L 761.33 693.02 L 762.81 686.69 L 764.28 688.46 L 765.75 690.89 L 767.22 694.91 L 768.69 678.25 L 770.17 677.17 L 771.64 679.73 L 773.11 681.62 L 774.58 682.75 L 776.06 666.78 L 777.53 641.77 L 779.00 669.22 L 780.47 635.65 L 781.94 672.29 L 783.42 676.11 L 784.89 684.26 L 786.36 600.22 L 787.83 621.25 L 789.31 661.81 L 790.78 659.16 L 792.25 671.17 L 793.72 647.83 L 795.19 687.74 L 796.67 677.95 L 798.14 674.58 L 799.61 692.96" stroke="#FB8C00" />
<text x="90" y="711.25" font-size="14" font-weight="700">Giroscópio (magnitude) (u.a.)</text>
<rect class="event" x="443.33" y="717.25" width="91.28" height="192.75" />
<line class="eventline" x1="443.33" y1="717.25" x2="443.33" y2="910.00" />
<line class="eventline" x1="534.61" y1="717.25" x2="534.61" y2="910.00" />
<line class="grid" x1="90" y1="910.00" x2="1150" y2="910.00" />
<text class="small" x="80" y="914.00" text-anchor="end">0.00</text>
<line class="grid" x1="90" y1="871.45" x2="1150" y2="871.45" />
<text class="small" x="80" y="875.45" text-anchor="end">0.05</text>
<line class="grid" x1="90" y1="832.90" x2="1150" y2="832.90" />
<text class="small" x="80" y="836.90" text-anchor="end">0.10</text>
<line class="grid" x1="90" y1="794.35" x2="1150" y2="794.35" />
<text class="small" x="80" y="798.35" text-anchor="end">0.15</text>
<line class="grid" x1="90" y1="755.80" x2="1150" y2="755.80" />
<text class="small" x="80" y="759.80" text-anchor="end">0.20</text>
<line class="grid" x1="90" y1="717.25" x2="1150" y2="717.25" />
<text class="small" x="80" y="721.25" text-anchor="end">0.25</text>
<line class="grid" x1="90.00" y1="717.25" x2="90.00" y2="910.00" />
<line class="grid" x1="266.67" y1="717.25" x2="266.67" y2="910.00" />
<line class="grid" x1="443.33" y1="717.25" x2="443.33" y2="910.00" />
<line class="grid" x1="620.00" y1="717.25" x2="620.00" y2="910.00" />
<line class="grid" x1="796.67" y1="717.25" x2="796.67" y2="910.00" />
<line class="grid" x1="973.33" y1="717.25" x2="973.33" y2="910.00" />
<line class="grid" x1="1150.00" y1="717.25" x2="1150.00" y2="910.00" />
<line class="axis" x1="90" y1="717.25" x2="90" y2="910.00" />
<line class="axis" x1="90" y1="910.00" x2="1150" y2="910.00" />
<path class="series" d="M 178.33 902.09 L 179.81 899.21 L 181.28 897.01 L 182.75 893.05 L 184.22 891.32 L 185.69 893.24 L 187.17 890.38 L 188.64 895.56 L 190.11 886.44 L 191.58 880.37 L 193.06 904.13 L 194.53 892.17 L 196.00 888.08 L 197.47 892.67 L 198.94 886.14 L 200.42 887.99 L 201.89 887.30 L 203.36 886.76 L 204.83 884.99 L 206.31 885.99 L 207.78 887.04 L 209.25 893.71 L 210.72 899.14 L 212.19 900.89 L 213.67 902.88 L 215.14 897.87 L 216.61 893.02 L 218.08 896.48 L 219.56 895.61 L 221.03 900.61 L 222.50 900.61 L 223.97 897.94 L 225.44 898.74 L 226.92 897.00 L 228.39 895.80 L 229.86 907.26 L 231.33 900.56 L 232.81 904.68 L 234.28 902.58 L 235.75 901.40 L 237.22 894.94 L 238.69 893.12 L 240.17 892.88 L 241.64 892.87 L 243.11 898.79 L 244.58 896.64 L 246.06 904.30 L 247.53 902.34 L 249.00 899.87 L 250.47 903.01 L 251.94 903.82 L 253.42 903.36 L 254.89 901.91 L 256.36 904.48 L 257.83 904.37 L 259.31 902.21 L 260.78 902.56 L 262.25 905.75 L 263.72 904.29 L 265.19 889.51 L 266.67 883.13 L 268.14 878.31 L 269.61 876.71 L 271.08 869.27 L 272.56 869.32 L 274.03 866.19 L 275.50 878.54 L 276.97 881.87 L 278.44 882.12 L 279.92 882.66 L 281.39 882.19 L 282.86 881.34 L 284.33 879.53 L 285.81 883.87 L 287.28 881.20 L 288.75 868.78 L 290.22 868.86 L 291.69 864.44 L 293.17 873.85 L 294.64 872.81 L 296.11 863.64 L 297.58 876.65 L 299.06 888.76 L 300.53 884.83 L 302.00 874.71 L 303.47 857.25 L 304.94 841.12 L 306.42 843.64 L 307.89 841.75 L 309.36 838.45 L 310.83 827.77 L 312.31 817.86 L 313.78 798.06 L 315.25 805.91 L 316.72 805.19 L 318.19 850.58 L 319.67 883.39 L 321.14 888.78 L 322.61 866.19 L 324.08 865.38 L 325.56 875.68 L 327.03 872.44 L 328.50 866.34 L 329.97 858.00 L 331.44 870.41 L 332.92 865.27 L 334.39 847.04 L 335.86 817.00 L 337.33 810.29 L 338.81 798.55 L 340.28 781.81 L 341.75 765.81 L 343.22 769.85 L 344.69 771.70 L 346.17 771.70 L 347.64 767.39 L 349.11 774.70 L 350.58 775.10 L 352.06 782.97 L 353.53 803.87 L 355.00 819.09 L 356.47 828.10 L 357.94 849.96 L 359.42 857.58 L 360.89 867.67 L 362.36 894.78 L 363.83 905.71 L 365.31 873.13 L 366.78 848.54 L 368.25 850.40 L 369.72 844.43 L 371.19 856.24 L 372.67 873.26 L 374.14 854.02 L 375.61 866.40 L 377.08 867.89 L 378.56 854.18 L 380.03 853.39 L 381.50 852.92 L 382.97 837.43 L 384.44 824.35 L 385.92 786.07 L 387.39 759.28 L 388.86 759.92 L 390.33 770.22 L 391.81 789.96 L 393.28 837.37 L 394.75 860.58 L 396.22 875.30 L 397.69 861.44 L 399.17 889.24 L 400.64 899.75 L 402.11 907.32 L 403.58 904.57 L 405.06 898.05 L 406.53 897.80 L 408.00 904.80 L 409.47 904.43 L 410.94 900.43 L 412.42 893.70 L 413.89 895.44 L 415.36 891.87 L 416.83 897.12 L 418.31 895.60 L 419.78 899.61 L 421.25 892.00 L 422.72 890.21 L 424.19 884.20 L 425.67 882.43 L 427.14 891.93 L 428.61 891.82 L 430.08 898.42 L 431.56 905.23 L 433.03 896.97 L 434.50 897.22 L 435.97 899.21 L 437.44 904.67 L 438.92 896.23 L 440.39 895.67 L 441.86 903.11 L 443.33 900.90 L 444.81 907.44 L 446.28 907.54 L 447.75 907.54 L 449.22 909.10 L 450.69 909.07 L 452.17 909.17 L 453.64 909.10 L 455.11 904.32 L 456.58 902.81 L 458.06 902.23 L 459.53 905.76 L 461.00 906.16 L 462.47 908.50 L 463.94 909.10 L 465.42 909.39 L 466.89 909.18 L 468.36 908.45 L 469.83 908.85 L 471.31 908.85 L 472.78 908.68 L 474.25 908.81 L 475.72 908.52 L 477.19 908.39 L 478.67 908.33 L 480.14 908.60 L 481.61 908.50 L 483.08 908.59 L 484.56 909.06 L 486.03 909.04 L 487.50 908.65 L 488.97 908.92 L 490.44 908.78 L 491.92 908.14 L 493.39 908.73 L 494.86 908.78 L 496.33 908.89 L 497.81 908.48 L 499.28 908.29 L 500.75 908.31 L 502.22 908.27 L 503.69 908.09 L 505.17 908.49 L 506.64 907.28 L 508.11 909.17 L 509.58 906.75 L 511.06 907.89 L 512.53 906.71 L 514.00 907.82 L 515.47 907.74 L 516.94 907.83 L 518.42 907.93 L 519.89 907.44 L 521.36 907.02 L 522.83 904.70 L 524.31 908.43 L 525.78 908.64 L 527.25 908.44 L 528.72 908.57 L 530.19 908.73 L 531.67 908.50 L 533.14 905.35 L 534.61 898.05 L 536.08 895.14 L 537.56 904.00 L 539.03 900.66 L 540.50 905.01 L 541.97 903.97 L 543.44 909.51 L 544.92 901.05 L 546.39 895.80 L 547.86 907.84 L 549.33 908.50 L 550.81 903.50 L 552.28 895.45 L 553.75 889.35 L 555.22 898.32 L 556.69 892.06 L 558.17 905.71 L 559.64 908.75 L 561.11 908.46 L 562.58 908.88 L 564.06 908.80 L 565.53 908.88 L 567.00 908.74 L 568.47 908.77 L 569.94 908.97 L 571.42 908.70 L 572.89 908.47 L 574.36 908.63 L 575.83 908.84 L 577.31 908.84 L 578.78 908.20 L 580.25 908.76 L 581.72 908.39 L 583.19 908.42 L 584.67 908.39 L 586.14 908.46 L 587.61 908.42 L 589.08 908.50 L 590.56 908.46 L 592.03 909.48 L 593.50 909.70 L 594.97 908.60 L 596.44 902.36 L 597.92 902.36 L 599.39 884.72 L 600.86 868.70 L 602.33 846.44 L 603.81 829.90 L 605.28 816.67 L 606.75 796.01 L 608.22 803.85 L 609.69 821.69 L 611.17 841.76 L 612.64 906.45 L 614.11 890.09 L 615.58 898.15 L 617.06 885.68 L 618.53 856.20 L 620.00 833.64 L 621.47 786.35 L 622.94 756.16 L 624.42 752.27 L 625.89 764.64 L 627.36 764.53 L 628.83 756.18 L 630.31 767.59 L 631.78 790.39 L 633.25 833.40 L 634.72 814.20 L 636.19 778.94 L 637.67 775.29 L 639.14 820.49 L 640.61 840.43 L 642.08 845.95 L 643.56 887.68 L 645.03 851.90 L 646.50 835.77 L 647.97 845.42 L 649.44 835.53 L 650.92 824.50 L 652.39 818.95 L 653.86 820.69 L 655.33 824.66 L 656.81 830.22 L 658.28 827.92 L 659.75 858.33 L 661.22 892.27 L 662.69 873.03 L 664.17 854.89 L 665.64 857.51 L 667.11 873.74 L 668.58 890.62 L 670.06 908.50 L 671.53 859.35 L 673.00 844.94 L 674.47 888.02 L 675.94 882.75 L 677.42 884.90 L 678.89 886.83 L 680.36 869.18 L 681.83 888.60 L 683.31 882.58 L 684.78 890.03 L 686.25 892.04 L 687.72 894.77 L 689.19 893.50 L 690.67 889.32 L 692.14 884.48 L 693.61 886.64 L 695.08 890.06 L 696.56 898.03 L 698.03 890.07 L 699.50 889.69 L 700.97 895.05 L 702.44 889.09 L 703.92 889.76 L 705.39 894.38 L 706.86 901.28 L 708.33 896.15 L 709.81 884.18 L 711.28 889.80 L 712.75 894.29 L 714.22 895.76 L 715.69 888.99 L 717.17 900.75 L 718.64 888.93 L 720.11 898.61 L 721.58 898.61 L 723.06 893.86 L 724.53 887.75 L 726.00 896.95 L 727.47 904.26 L 728.94 904.01 L 730.42 894.35 L 731.89 898.09 L 733.36 896.19 L 734.83 896.62 L 736.31 906.22 L 737.78 896.22 L 739.25 897.48 L 740.72 884.71 L 742.19 896.31 L 743.67 894.82 L 745.14 900.81 L 746.61 884.77 L 748.08 893.38 L 749.56 895.72 L 751.03 887.00 L 752.50 882.69 L 753.97 883.20 L 755.44 876.77 L 756.92 879.96 L 758.39 884.36 L 759.86 895.56 L 761.33 900.40 L 762.81 899.89 L 764.28 886.33 L 765.75 887.96 L 767.22 884.91 L 768.69 894.13 L 770.17 893.12 L 771.64 897.02 L 773.11 897.19 L 774.58 893.20 L 776.06 879.48 L 777.53 793.98 L 779.00 777.41 L 780.47 754.34 L 781.94 770.05 L 783.42 783.14 L 784.89 780.81 L 786.36 791.03 L 787.83 854.52 L 789.31 896.16 L 790.78 908.33 L 792.25 903.31 L 793.72 896.89 L 795.19 887.33 L 796.67 885.32 L 798.14 877.51 L 799.61 869.83" stroke="#E53935" />
<text x="620.00" y="952" font-size="15" text-anchor="middle">minutos (relativo ao início do evento)</text>
<text class="small" x="90.00" y="936" text-anchor="middle">-4.00</text>
<text class="small" x="266.67" y="936" text-anchor="middle">-2.00</text>
<text class="small" x="443.33" y="936" text-anchor="middle">0.00</text>
<text class="small" x="620.00" y="936" text-anchor="middle">2.00</text>
<text class="small" x="796.67" y="936" text-anchor="middle">4.00</text>
<text class="small" x="973.33" y="936" text-anchor="middle">6.00</text>
<text class="small" x="1150.00" y="936" text-anchor="middle">8.00</text>
</svg>