<?xml version="1.0" encoding="UTF-8"?>
<svg xmlns="http://www.w3.org/2000/svg" width="1180" height="980" viewBox="0 0 1180 980">
<style>
text { font-family: -apple-system, BlinkMacSystemFont, 'Segoe UI', Roboto, Helvetica, Arial, sans-serif; fill: #111; }
.small { font-size: 12px; fill: #222; }
.title { font-size: 18px; font-weight: 700; }
.axis { stroke: #111; stroke-width: 1.4; }
.grid { stroke: #E6E6E6; stroke-width: 1; }
.event { fill: #FFEB3B; fill-opacity: 0.18; }
.eventline { stroke: #F9A825; stroke-width: 1.2; stroke-dasharray: 4 3; }
.series { fill: none; stroke-width: 1.8; }
</style>
<text class="title" x="90" y="34">ciclo 7 — basculamento — 2025-12-12T17:16:02-03:00 → 2025-12-12T17:17:08-03:00 (span 66s, dur 60s)</text>
<text class="small" x="90" y="54">GPS: -11.692533,-47.165116  hotspot: -11.693,-47.165</text>
<text class="small" x="90" y="70">Janela: -3.00 → 4.10 min (relativo ao início do evento)</text>
<text x="90" y="79.00" font-size="14" font-weight="700">Velocidade (km/h)</text>
<rect class="event" x="443.33" y="85.00" width="97.17" height="192.75" />
<line class="eventline" x1="443.33" y1="85.00" x2="443.33" y2="277.75" />
<line class="eventline" x1="540.50" y1="85.00" x2="540.50" y2="277.75" />
<line class="grid" x1="90" y1="277.75" x2="1150" y2="277.75" />
<text class="small" x="80" y="281.75" text-anchor="end">0.00</text>
<line class="grid" x1="90" y1="239.20" x2="1150" y2="239.20" />
<text class="small" x="80" y="243.20" text-anchor="end">10.0</text>
<line class="grid" x1="90" y1="200.65" x2="1150" y2="200.65" />
<text class="small" x="80" y="204.65" text-anchor="end">20.0</text>
<line class="grid" x1="90" y1="162.10" x2="1150" y2="162.10" />
<text class="small" x="80" y="166.10" text-anchor="end">30.0</text>
<line class="grid" x1="90" y1="123.55" x2="1150" y2="123.55" />
<text class="small" x="80" y="127.55" text-anchor="end">40.0</text>
<line class="grid" x1="90" y1="85.00" x2="1150" y2="85.00" />
<text class="small" x="80" y="89.00" text-anchor="end">50.0</text>
<line class="grid" x1="90.00" y1="85.00" x2="90.00" y2="277.75" />
<line class="grid" x1="266.67" y1="85.00" x2="266.67" y2="277.75" />
<line class="grid" x1="443.33" y1="85.00" x2="443.33" y2="277.75" />
<line class="grid" x1="620.00" y1="85.00" x2="620.00" y2="277.75" />
<line class="grid" x1="796.67" y1="85.00" x2="796.67" y2="277.75" />
<line class="grid" x1="973.33" y1="85.00" x2="973.33" y2="277.75" />
<line class="grid" x1="1150.00" y1="85.00" x2="1150.00" y2="277.75" />
<line class="axis" x1="90" y1="85.00" x2="90" y2="277.75" />
<line class="axis" x1="90" y1="277.75" x2="1150" y2="277.75" />
<path class="series" d="M 178.33 244.30 L 179.81 242.50 L 181.28 246.25 L 182.75 245.69 L 184.22 246.25 L 185.69 245.41 L 187.17 245.14 L 188.64 245.83 L 190.11 244.58 L 191.58 245.41 L 193.06 244.72 L 194.53 244.30 L 196.00 242.78 L 197.47 243.61 L 198.94 242.78 L 200.42 241.53 L 201.89 241.39 L 203.36 241.11 L 204.83 241.25 L 206.31 241.11 L 207.78 242.50 L 209.25 243.75 L 210.72 245.28 L 212.19 247.63 L 213.67 253.60 L 215.14 252.63 L 216.61 251.94 L 218.08 250.97 L 219.56 250.27 L 221.03 249.44 L 222.50 247.50 L 223.97 247.77 L 225.44 247.50 L 226.92 245.28 L 228.39 245.14 L 229.86 244.30 L 231.33 244.30 L 232.81 244.44 L 234.28 244.44 L 235.75 244.58 L 237.22 244.58 L 238.69 244.86 L 240.17 244.03 L 241.64 245.69 L 243.11 245.41 L 244.58 245.55 L 246.06 247.91 L 247.53 246.66 L 249.00 247.50 L 250.47 246.11 L 251.94 245.83 L 253.42 245.41 L 254.89 245.97 L 256.36 246.94 L 257.83 244.58 L 259.31 245.55 L 260.78 245.00 L 262.25 244.58 L 263.72 244.72 L 265.19 243.75 L 266.67 241.94 L 268.14 238.34 L 269.61 234.17 L 271.08 228.62 L 272.56 222.65 L 274.03 220.99 L 275.50 215.44 L 276.97 215.16 L 278.44 215.16 L 279.92 212.66 L 281.39 216.69 L 282.86 217.38 L 284.33 218.77 L 285.81 231.54 L 287.28 244.58 L 288.75 244.17 L 290.22 245.69 L 291.69 241.94 L 293.17 235.28 L 294.64 231.95 L 296.11 228.07 L 297.58 225.15 L 299.06 218.91 L 300.53 217.10 L 302.00 209.19 L 303.47 209.33 L 304.94 214.47 L 306.42 221.27 L 307.89 225.29 L 309.36 227.93 L 310.83 230.70 L 312.31 234.45 L 313.78 239.72 L 315.25 238.75 L 316.72 240.00 L 318.19 238.20 L 319.67 236.53 L 321.14 237.78 L 322.61 234.17 L 324.08 233.06 L 325.56 232.51 L 327.03 235.42 L 328.50 232.65 L 329.97 235.28 L 331.44 231.68 L 332.92 224.87 L 334.39 225.01 L 335.86 224.04 L 337.33 230.70 L 338.81 223.07 L 340.28 227.93 L 341.75 226.96 L 343.22 224.04 L 344.69 222.10 L 346.17 223.35 L 347.64 225.57 L 349.11 233.48 L 350.58 222.93 L 352.06 230.15 L 353.53 232.79 L 355.00 232.23 L 356.47 235.56 L 357.94 233.20 L 359.42 232.92 L 360.89 229.18 L 362.36 232.65 L 363.83 239.72 L 365.31 245.41 L 366.78 241.39 L 368.25 239.03 L 369.72 233.06 L 371.19 233.20 L 372.67 229.45 L 374.14 227.79 L 375.61 228.62 L 377.08 227.37 L 378.56 226.68 L 380.03 232.51 L 381.50 233.90 L 382.97 241.39 L 384.44 246.11 L 385.92 245.97 L 387.39 244.58 L 388.86 250.97 L 390.33 248.05 L 391.81 252.63 L 393.28 248.74 L 394.75 250.27 L 396.22 253.19 L 397.69 270.26 L 399.17 277.75 L 400.64 277.75 L 402.11 277.75 L 403.58 257.90 L 405.06 257.90 L 406.53 259.15 L 408.00 262.35 L 409.47 257.07 L 410.94 263.32 L 412.42 262.07 L 413.89 261.79 L 415.36 264.57 L 416.83 260.12 L 418.31 277.75 L 419.78 277.75 L 421.25 277.75 L 422.72 277.75 L 424.19 260.68 L 425.67 265.54 L 427.14 263.73 L 428.61 261.65 L 430.08 261.51 L 431.56 263.73 L 433.03 265.12 L 434.50 267.48 L 435.97 262.62 L 437.44 261.24 L 438.92 265.95 L 440.39 264.57 L 441.86 269.70 L 443.33 277.75 L 444.81 277.75 L 446.28 277.75 L 447.75 277.75 L 449.22 277.75 L 450.69 277.75 L 452.17 277.75 L 453.64 277.75 L 455.11 277.75 L 456.58 277.75 L 458.06 277.75 L 459.53 277.75 L 461.00 277.75 L 462.47 277.75 L 463.94 277.75 L 465.42 277.75 L 466.89 277.75 L 468.36 277.75 L 469.83 277.75 L 471.31 277.75 L 472.78 277.75 L 474.25 277.75 L 475.72 277.75 L 477.19 277.75 L 478.67 277.75 L 480.14 277.75 L 481.61 277.75 L 483.08 277.75 L 484.56 277.75 L 486.03 277.75 L 487.50 277.75 L 488.97 277.75 L 490.44 277.75 L 491.92 277.75 L 493.39 277.75 L 494.86 277.75 L 496.33 277.75 L 497.81 277.75 L 499.28 277.75 L 500.75 267.90 L 502.22 268.04 L 503.69 269.15 L 505.17 268.17 L 506.64 263.32 L 508.11 259.99 L 509.58 273.73 L 511.06 277.75 L 512.53 277.75 L 514.00 277.75 L 515.47 277.75 L 516.94 277.75 L 518.42 277.75 L 519.89 277.75 L 521.36 277.75 L 522.83 277.75 L 524.31 277.75 L 525.78 277.75 L 527.25 277.75 L 528.72 277.75 L 530.19 277.75 L 531.67 277.75 L 533.14 277.75 L 534.61 277.75 L 536.08 277.75 L 537.56 277.75 L 539.03 277.75 L 540.50 277.75 L 541.97 260.12 L 543.44 255.82 L 544.92 245.69 L 546.39 237.92 L 547.86 233.34 L 549.33 226.54 L 550.81 219.32 L 552.28 205.31 L 553.75 193.79 L 555.22 189.07 L 556.69 181.71 L 558.17 202.95 L 559.64 190.87 L 561.11 188.38 L 562.58 184.77 L 564.06 183.38 L 565.53 186.85 L 567.00 178.52 L 568.47 183.52 L 569.94 192.26 L 571.42 192.82 L 572.89 197.81 L 574.36 202.81 L 575.83 200.17 L 577.31 202.25 L 578.78 204.75 L 580.25 204.06 L 581.72 212.25 L 583.19 229.45 L 584.67 215.02 L 586.14 202.39 L 587.61 205.86 L 589.08 212.80 L 590.56 213.77 L 592.03 197.95 L 593.50 200.31 L 594.97 211.00 L 596.44 211.00 L 597.92 206.14 L 599.39 193.93 L 600.86 194.07 L 602.33 196.15 L 603.81 201.14 L 605.28 197.26 L 606.75 200.59 L 608.22 214.19 L 609.69 210.58 L 611.17 208.50 L 612.64 201.00 L 614.11 198.78 L 615.58 196.70 L 617.06 201.28 L 618.53 210.16 L 620.00 211.55 L 621.47 203.64 L 622.94 196.29 L 624.42 190.87 L 625.89 189.07 L 627.36 188.79 L 628.83 189.76 L 630.31 187.68 L 631.78 186.16 L 633.25 183.10 L 634.72 176.44 L 636.19 177.69 L 637.67 171.44 L 639.14 173.94 L 640.61 170.75 L 642.08 165.89 L 643.56 160.76 L 645.03 154.51 L 646.50 154.10 L 647.97 152.15 L 649.44 151.32 L 650.92 153.96 L 652.39 155.76 L 653.86 151.74 L 655.33 151.46 L 656.81 150.35 L 658.28 148.96 L 659.75 146.05 L 661.22 156.32 L 662.69 151.74 L 664.17 153.68 L 665.64 158.68 L 667.11 160.06 L 668.58 154.65 L 670.06 158.26 L 671.53 159.37 L 673.00 156.04 L 674.47 152.57 L 675.94 166.59 L 677.42 175.33 L 678.89 185.18 L 680.36 180.47 L 681.83 174.36 L 683.31 169.09 L 684.78 170.33 L 686.25 169.78 L 687.72 166.73 L 689.19 167.00 L 690.67 165.34 L 692.14 162.29 L 693.61 164.09 L 695.08 164.09 L 696.56 166.31 L 698.03 167.84 L 699.50 168.11 L 700.97 166.86 L 702.44 167.84 L 703.92 164.92 L 705.39 159.93 L 706.86 156.32 L 708.33 155.48 L 709.81 159.09 L 711.28 158.54 L 712.75 157.29 L 714.22 155.48 L 715.69 159.51 L 717.17 162.70 L 718.64 165.89 L 720.11 165.75 L 721.58 164.92 L 723.06 164.78 L 724.53 167.70 L 726.00 171.72 L 727.47 188.10 L 728.94 190.18 L 730.42 191.85 L 731.89 189.07 L 733.36 184.63 L 734.83 182.96 L 736.31 189.07 L 737.78 199.34 L 739.25 205.31 L 740.72 197.54 L 742.19 210.86 L 743.67 202.25 L 745.14 198.51 L 746.61 194.07 L 748.08 197.95 L 749.56 202.11 L 751.03 191.29 L 752.50 188.79 L 753.97 186.02 L 755.44 177.27 L 756.92 167.42 L 758.39 165.75 L 759.86 161.04 L 761.33 161.04 L 762.81 158.54 L 764.28 153.40 L 765.75 151.04 L 767.22 150.07 L 768.69 148.82 L 770.17 145.35 L 771.64 141.05 L 773.11 141.61 L 774.58 144.24 L 776.06 152.02 L 777.53 153.54 L 779.00 148.68 L 780.47 146.60 L 781.94 145.91 L 783.42 145.63 L 784.89 146.46 L 786.36 148.13 L 787.83 147.85 L 789.31 149.52 L 790.78 150.91 L 792.25 151.60 L 793.72 156.04 L 795.19 158.54 L 796.67 162.29 L 798.14 160.76 L 799.61 163.81 L 801.08 162.56 L 802.56 163.12 L 804.03 159.51 L 805.50 153.82" stroke="#1976D2" />
<text x="90" y="289.75" font-size="14" font-weight="700">Inclinação (graus)</text>
<rect class="event" x="443.33" y="295.75" width="97.17" height="192.75" />
<line class="eventline" x1="443.33" y1="295.75" x2="443.33" y2="488.50" />
<line class="eventline" x1="540.50" y1="295.75" x2="540.50" y2="488.50" />
<line class="grid" x1="90" y1="488.50" x2="1150" y2="488.50" />
<text class="small" x="80" y="492.50" text-anchor="end">-20.0</text>
<line class="grid" x1="90" y1="449.95" x2="1150" y2="449.95" />
<text class="small" x="80" y="453.95" text-anchor="end">-10.0</text>
<line class="grid" x1="90" y1="411.40" x2="1150" y2="411.40" />
<text class="small" x="80" y="415.40" text-anchor="end">0.00</text>
<line class="grid" x1="90" y1="372.85" x2="1150" y2="372.85" />
<text class="small" x="80" y="376.85" text-anchor="end">10.0</text>
<line class="grid" x1="90" y1="334.30" x2="1150" y2="334.30" />
<text class="small" x="80" y="338.30" text-anchor="end">20.0</text>
<line class="grid" x1="90" y1="295.75" x2="1150" y2="295.75" />
<text class="small" x="80" y="299.75" text-anchor="end">30.0</text>
<line class="grid" x1="90.00" y1="295.75" x2="90.00" y2="488.50" />
<line class="grid" x1="266.67" y1="295.75" x2="266.67" y2="488.50" />
<line class="grid" x1="443.33" y1="295.75" x2="443.33" y2="488.50" />
<line class="grid" x1="620.00" y1="295.75" x2="620.00" y2="488.50" />
<line class="grid" x1="796.67" y1="295.75" x2="796.67" y2="488.50" />
<line class="grid" x1="973.33" y1="295.75" x2="973.33" y2="488.50" />
<line class="grid" x1="1150.00" y1="295.75" x2="1150.00" y2="488.50" />
<line class="axis" x1="90" y1="295.75" x2="90" y2="488.50" />
<line class="axis" x1="90" y1="488.50" x2="1150" y2="488.50" />
<path class="series" d="M 178.33 389.84 L 179.81 393.54 L 181.28 393.70 L 182.75 392.73 L 184.22 392.73 L 185.69 393.23 L 187.17 391.36 L 188.64 392.22 L 190.11 391.64 L 191.58 392.05 L 193.06 390.16 L 194.53 390.43 L 196.00 387.74 L 197.47 384.82 L 198.94 386.22 L 200.42 388.95 L 201.89 390.26 L 203.36 388.62 L 204.83 388.00 L 206.31 390.25 L 207.78 390.31 L 209.25 391.64 L 210.72 390.64 L 212.19 387.83 L 213.67 400.52 L 215.14 400.76 L 216.61 398.21 L 218.08 397.14 L 219.56 395.96 L 221.03 396.42 L 222.50 395.19 L 223.97 393.43 L 225.44 392.96 L 226.92 392.68 L 228.39 392.16 L 229.86 390.96 L 231.33 392.73 L 232.81 390.57 L 234.28 389.18 L 235.75 388.61 L 237.22 389.67 L 238.69 390.13 L 240.17 391.45 L 241.64 392.12 L 243.11 393.57 L 244.58 393.66 L 246.06 395.39 L 247.53 392.41 L 249.00 395.40 L 250.47 393.12 L 251.94 394.06 L 253.42 392.47 L 254.89 395.65 L 256.36 391.37 L 257.83 382.88 L 259.31 387.84 L 260.78 393.75 L 262.25 387.59 L 263.72 386.82 L 265.19 387.88 L 266.67 385.70 L 268.14 384.88 L 269.61 379.85 L 271.08 378.52 L 272.56 371.79 L 274.03 371.27 L 275.50 365.27 L 276.97 372.31 L 278.44 366.32 L 279.92 365.34 L 281.39 368.61 L 282.86 366.89 L 284.33 347.37 L 285.81 356.09 L 287.28 372.42 L 288.75 371.28 L 290.22 376.63 L 291.69 383.09 L 293.17 382.13 L 294.64 382.30 L 296.11 379.10 L 297.58 380.46 L 299.06 378.44 L 300.53 378.79 L 302.00 369.70 L 303.47 372.11 L 304.94 380.29 L 306.42 372.44 L 307.89 379.05 L 309.36 381.51 L 310.83 378.99 L 312.31 391.15 L 313.78 384.45 L 315.25 386.16 L 316.72 387.03 L 318.19 387.07 L 319.67 385.22 L 321.14 386.25 L 322.61 383.68 L 324.08 385.26 L 325.56 382.77 L 327.03 388.27 L 328.50 378.97 L 329.97 382.98 L 331.44 378.38 L 332.92 372.66 L 334.39 370.86 L 335.86 379.20 L 337.33 368.01 L 338.81 368.01 L 340.28 358.68 L 341.75 362.26 L 343.22 358.17 L 344.69 360.12 L 346.17 364.69 L 347.64 362.14 L 349.11 364.57 L 350.58 368.00 L 352.06 374.30 L 353.53 371.16 L 355.00 373.66 L 356.47 376.68 L 357.94 375.66 L 359.42 372.57 L 360.89 376.12 L 362.36 366.61 L 363.83 362.68 L 365.31 363.60 L 366.78 373.38 L 368.25 377.78 L 369.72 377.09 L 371.19 362.56 L 372.67 373.55 L 374.14 364.73 L 375.61 358.56 L 377.08 354.58 L 378.56 355.76 L 380.03 358.58 L 381.50 355.04 L 382.97 359.34 L 384.44 359.10 L 385.92 357.84 L 387.39 365.56 L 388.86 369.32 L 390.33 368.73 L 391.81 366.77 L 393.28 368.75 L 394.75 367.04 L 396.22 357.08 L 397.69 345.49 L 399.17 369.09 L 400.64 365.66 L 402.11 358.89 L 403.58 366.12 L 405.06 376.65 L 406.53 376.65 L 408.00 373.19 L 409.47 377.26 L 410.94 374.10 L 412.42 384.94 L 413.89 379.87 L 415.36 381.23 L 416.83 374.98 L 418.31 390.56 L 419.78 387.37 L 421.25 374.71 L 422.72 382.72 L 424.19 381.48 L 425.67 373.32 L 427.14 383.76 L 428.61 376.27 L 430.08 381.34 L 431.56 386.74 L 433.03 377.61 L 434.50 375.64 L 435.97 367.84 L 437.44 378.39 L 438.92 366.32 L 440.39 381.64 L 441.86 378.57 L 443.33 377.08 L 444.81 371.12 L 446.28 369.55 L 447.75 370.10 L 449.22 370.74 L 450.69 368.45 L 452.17 369.33 L 453.64 369.21 L 455.11 369.47 L 456.58 369.79 L 458.06 369.46 L 459.53 369.04 L 461.00 369.17 L 462.47 369.22 L 463.94 369.40 L 465.42 370.51 L 466.89 368.76 L 468.36 370.06 L 469.83 369.93 L 471.31 369.82 L 472.78 369.91 L 474.25 369.91 L 475.72 370.03 L 477.19 368.75 L 478.67 371.05 L 480.14 369.57 L 481.61 370.12 L 483.08 370.10 L 484.56 369.83 L 486.03 369.43 L 487.50 368.85 L 488.97 367.06 L 490.44 366.18 L 491.92 365.09 L 493.39 365.73 L 494.86 365.87 L 496.33 376.09 L 497.81 373.95 L 499.28 383.42 L 500.75 374.18 L 502.22 377.58 L 503.69 380.50 L 505.17 385.95 L 506.64 386.22 L 508.11 364.02 L 509.58 365.21 L 511.06 382.66 L 512.53 380.55 L 514.00 380.31 L 515.47 380.42 L 516.94 380.16 L 518.42 380.22 L 519.89 380.23 L 521.36 379.62 L 522.83 379.89 L 524.31 379.81 L 525.78 379.70 L 527.25 379.46 L 528.72 379.77 L 530.19 379.57 L 531.67 379.56 L 533.14 379.65 L 534.61 378.91 L 536.08 380.29 L 537.56 381.91 L 539.03 400.22 L 540.50 385.96 L 541.97 392.38 L 543.44 393.85 L 544.92 397.11 L 546.39 390.94 L 547.86 391.26 L 549.33 391.62 L 550.81 388.45 L 552.28 384.89 L 553.75 383.54 L 555.22 381.25 L 556.69 358.69 L 558.17 353.98 L 559.64 369.24 L 561.11 374.43 L 562.58 363.57 L 564.06 356.17 L 565.53 364.74 L 567.00 362.65 L 568.47 359.74 L 569.94 374.59 L 571.42 360.12 L 572.89 366.09 L 574.36 369.28 L 575.83 364.73 L 577.31 361.34 L 578.78 350.48 L 580.25 326.92 L 581.72 336.93 L 583.19 378.06 L 584.67 367.35 L 586.14 345.85 L 587.61 335.26 L 589.08 357.97 L 590.56 360.23 L 592.03 346.61 L 593.50 334.60 L 594.97 357.51 L 596.44 362.51 L 597.92 373.29 L 599.39 365.58 L 600.86 362.60 L 602.33 356.77 L 603.81 371.20 L 605.28 358.84 L 606.75 331.94 L 608.22 366.56 L 609.69 365.65 L 611.17 370.90 L 612.64 368.44 L 614.11 361.70 L 615.58 366.08 L 617.06 366.08 L 618.53 353.84 L 620.00 373.69 L 621.47 387.98 L 622.94 390.94 L 624.42 366.88 L 625.89 360.54 L 627.36 356.25 L 628.83 350.41 L 630.31 348.89 L 631.78 349.64 L 633.25 348.50 L 634.72 350.24 L 636.19 351.14 L 637.67 349.83 L 639.14 351.24 L 640.61 350.20 L 642.08 352.24 L 643.56 348.72 L 645.03 353.74 L 646.50 353.21 L 647.97 353.79 L 649.44 345.26 L 650.92 337.65 L 652.39 345.02 L 653.86 350.89 L 655.33 343.28 L 656.81 347.69 L 658.28 351.31 L 659.75 337.79 L 661.22 339.35 L 662.69 351.02 L 664.17 337.82 L 665.64 338.84 L 667.11 348.78 L 668.58 351.25 L 670.06 329.16 L 671.53 351.26 L 673.00 351.25 L 674.47 341.20 L 675.94 323.10 L 677.42 324.69 L 678.89 342.19 L 680.36 350.89 L 681.83 351.66 L 683.31 356.15 L 684.78 347.69 L 686.25 346.65 L 687.72 345.33 L 689.19 345.08 L 690.67 343.35 L 692.14 344.82 L 693.61 352.00 L 695.08 347.10 L 696.56 344.56 L 698.03 346.37 L 699.50 342.69 L 700.97 344.04 L 702.44 355.27 L 703.92 353.77 L 705.39 350.91 L 706.86 346.54 L 708.33 344.96 L 709.81 342.49 L 711.28 342.78 L 712.75 343.84 L 714.22 340.86 L 715.69 338.57 L 717.17 331.07 L 718.64 342.75 L 720.11 343.55 L 721.58 343.27 L 723.06 342.48 L 724.53 338.96 L 726.00 344.47 L 727.47 342.26 L 728.94 345.28 L 730.42 355.00 L 731.89 348.76 L 733.36 352.43 L 734.83 357.73 L 736.31 348.25 L 737.78 350.66 L 739.25 350.20 L 740.72 353.51 L 742.19 371.60 L 743.67 368.44 L 745.14 374.86 L 746.61 360.65 L 748.08 379.10 L 749.56 382.38 L 751.03 381.60 L 752.50 387.16 L 753.97 383.98 L 755.44 385.72 L 756.92 380.08 L 758.39 377.00 L 759.86 376.33 L 761.33 372.86 L 762.81 372.66 L 764.28 372.94 L 765.75 370.38 L 767.22 369.56 L 768.69 371.25 L 770.17 365.77 L 771.64 361.38 L 773.11 359.34 L 774.58 340.97 L 776.06 362.63 L 777.53 359.43 L 779.00 361.32 L 780.47 361.99 L 781.94 360.54 L 783.42 361.13 L 784.89 361.45 L 786.36 360.97 L 787.83 360.94 L 789.31 360.90 L 790.78 362.24 L 792.25 361.87 L 793.72 362.78 L 795.19 362.05 L 796.67 365.38 L 798.14 362.89 L 799.61 366.72 L 801.08 365.73 L 802.56 371.50 L 804.03 371.90 L 805.50 366.03" stroke="#2E7D32" />
<path class="series" d="M 178.33 399.28 L 179.81 399.97 L 181.28 404.47 L 182.75 411.67 L 184.22 412.00 L 185.69 408.11 L 187.17 405.17 L 188.64 402.56 L 190.11 399.95 L 191.58 399.54 L 193.06 400.76 L 194.53 404.04 L 196.00 403.58 L 197.47 403.14 L 198.94 400.83 L 200.42 400.83 L 201.89 399.79 L 203.36 397.92 L 204.83 399.17 L 206.31 404.46 L 207.78 404.82 L 209.25 407.02 L 210.72 408.13 L 212.19 408.92 L 213.67 407.33 L 215.14 407.57 L 216.61 405.02 L 218.08 403.33 L 219.56 402.12 L 221.03 399.36 L 222.50 397.79 L 223.97 401.01 L 225.44 400.29 L 226.92 403.81 L 228.39 404.30 L 229.86 401.03 L 231.33 400.06 L 232.81 401.09 L 234.28 398.68 L 235.75 402.93 L 237.22 404.24 L 238.69 402.91 L 240.17 404.03 L 241.64 404.11 L 243.11 407.20 L 244.58 408.01 L 246.06 413.40 L 247.53 413.97 L 249.00 411.06 L 250.47 409.89 L 251.94 409.59 L 253.42 410.49 L 254.89 418.04 L 256.36 415.27 L 257.83 412.36 L 259.31 423.01 L 260.78 419.50 L 262.25 414.70 L 263.72 410.22 L 265.19 411.82 L 266.67 412.05 L 268.14 409.63 L 269.61 409.30 L 271.08 408.85 L 272.56 398.22 L 274.03 408.77 L 275.50 416.39 L 276.97 414.51 L 278.44 413.68 L 279.92 415.46 L 281.39 413.18 L 282.86 410.96 L 284.33 409.54 L 285.81 405.25 L 287.28 412.48 L 288.75 398.93 L 290.22 408.01 L 291.69 403.49 L 293.17 407.21 L 294.64 408.98 L 296.11 412.01 L 297.58 417.37 L 299.06 424.44 L 300.53 425.37 L 302.00 424.77 L 303.47 426.87 L 304.94 425.03 L 306.42 423.26 L 307.89 420.65 L 309.36 417.45 L 310.83 408.72 L 312.31 410.91 L 313.78 403.87 L 315.25 416.17 L 316.72 404.20 L 318.19 407.53 L 319.67 407.65 L 321.14 400.53 L 322.61 408.01 L 324.08 389.56 L 325.56 398.29 L 327.03 387.59 L 328.50 393.29 L 329.97 385.09 L 331.44 406.93 L 332.92 387.92 L 334.39 395.63 L 335.86 385.61 L 337.33 386.97 L 338.81 386.97 L 340.28 395.41 L 341.75 390.95 L 343.22 385.17 L 344.69 392.53 L 346.17 392.40 L 347.64 399.26 L 349.11 408.23 L 350.58 409.67 L 352.06 402.59 L 353.53 400.58 L 355.00 401.35 L 356.47 404.19 L 357.94 397.73 L 359.42 406.80 L 360.89 410.71 L 362.36 414.26 L 363.83 413.17 L 365.31 408.24 L 366.78 412.80 L 368.25 407.38 L 369.72 409.02 L 371.19 411.24 L 372.67 422.18 L 374.14 437.18 L 375.61 437.79 L 377.08 434.38 L 378.56 439.06 L 380.03 432.23 L 381.50 438.04 L 382.97 441.62 L 384.44 436.46 L 385.92 428.22 L 387.39 426.35 L 388.86 432.01 L 390.33 426.07 L 391.81 426.21 L 393.28 421.87 L 394.75 424.42 L 396.22 414.57 L 397.69 395.59 L 399.17 414.12 L 400.64 412.94 L 402.11 411.61 L 403.58 415.59 L 405.06 410.46 L 406.53 410.46 L 408.00 415.71 L 409.47 414.82 L 410.94 414.58 L 412.42 413.41 L 413.89 417.89 L 415.36 409.63 L 416.83 419.19 L 418.31 409.21 L 419.78 420.01 L 421.25 408.12 L 422.72 428.78 L 424.19 412.11 L 425.67 419.53 L 427.14 409.22 L 428.61 419.88 L 430.08 414.46 L 431.56 415.74 L 433.03 412.08 L 434.50 410.96 L 435.97 411.91 L 437.44 411.26 L 438.92 419.40 L 440.39 407.64 L 441.86 407.87 L 443.33 412.97 L 444.81 410.09 L 446.28 409.40 L 447.75 409.04 L 449.22 409.43 L 450.69 410.18 L 452.17 410.06 L 453.64 408.83 L 455.11 409.56 L 456.58 410.16 L 458.06 409.46 L 459.53 409.30 L 461.00 409.63 L 462.47 409.62 L 463.94 409.52 L 465.42 409.99 L 466.89 409.16 L 468.36 409.62 L 469.83 409.80 L 471.31 409.69 L 472.78 409.64 L 474.25 409.72 L 475.72 409.63 L 477.19 409.34 L 478.67 409.50 L 480.14 409.24 L 481.61 409.11 L 483.08 409.14 L 484.56 408.41 L 486.03 408.13 L 487.50 407.53 L 488.97 405.77 L 490.44 403.42 L 491.92 403.72 L 493.39 403.65 L 494.86 403.66 L 496.33 405.00 L 497.81 403.81 L 499.28 406.94 L 500.75 409.91 L 502.22 410.93 L 503.69 408.79 L 505.17 413.34 L 506.64 412.88 L 508.11 410.62 L 509.58 413.69 L 511.06 414.58 L 512.53 413.79 L 514.00 413.40 L 515.47 412.47 L 516.94 413.59 L 518.42 413.15 L 519.89 413.52 L 521.36 413.23 L 522.83 413.35 L 524.31 413.25 L 525.78 413.39 L 527.25 413.21 L 528.72 413.37 L 530.19 413.41 L 531.67 413.41 L 533.14 413.31 L 534.61 413.48 L 536.08 413.25 L 537.56 413.51 L 539.03 414.27 L 540.50 415.06 L 541.97 419.10 L 543.44 422.08 L 544.92 415.94 L 546.39 434.52 L 547.86 419.42 L 549.33 426.07 L 550.81 430.83 L 552.28 423.03 L 553.75 400.70 L 555.22 398.25 L 556.69 383.32 L 558.17 396.05 L 559.64 409.52 L 561.11 407.94 L 562.58 431.26 L 564.06 457.56 L 565.53 446.95 L 567.00 442.67 L 568.47 426.67 L 569.94 420.68 L 571.42 423.99 L 572.89 419.77 L 574.36 398.31 L 575.83 392.04 L 577.31 388.55 L 578.78 370.34 L 580.25 402.52 L 581.72 421.04 L 583.19 426.47 L 584.67 422.47 L 586.14 417.52 L 587.61 406.81 L 589.08 393.91 L 590.56 394.02 L 592.03 403.09 L 593.50 424.03 L 594.97 426.16 L 596.44 422.34 L 597.92 388.74 L 599.39 390.58 L 600.86 398.89 L 602.33 401.29 L 603.81 396.67 L 605.28 406.67 L 606.75 375.63 L 608.22 390.23 L 609.69 386.33 L 611.17 418.83 L 612.64 418.77 L 614.11 418.32 L 615.58 416.23 L 617.06 416.23 L 618.53 419.95 L 620.00 413.54 L 621.47 412.98 L 622.94 421.36 L 624.42 421.48 L 625.89 409.32 L 627.36 405.97 L 628.83 404.28 L 630.31 399.82 L 631.78 408.07 L 633.25 400.52 L 634.72 411.90 L 636.19 408.75 L 637.67 406.12 L 639.14 411.75 L 640.61 411.60 L 642.08 410.49 L 643.56 406.01 L 645.03 412.51 L 646.50 410.87 L 647.97 415.69 L 649.44 407.64 L 650.92 405.98 L 652.39 397.33 L 653.86 406.44 L 655.33 413.10 L 656.81 411.38 L 658.28 410.06 L 659.75 424.67 L 661.22 429.49 L 662.69 416.14 L 664.17 411.08 L 665.64 416.02 L 667.11 412.71 L 668.58 406.31 L 670.06 399.51 L 671.53 403.77 L 673.00 402.21 L 674.47 411.32 L 675.94 413.22 L 677.42 410.25 L 678.89 407.78 L 680.36 410.41 L 681.83 414.78 L 683.31 411.28 L 684.78 414.14 L 686.25 417.76 L 687.72 419.21 L 689.19 410.49 L 690.67 409.36 L 692.14 414.20 L 693.61 410.14 L 695.08 406.85 L 696.56 410.16 L 698.03 416.46 L 699.50 402.00 L 700.97 404.61 L 702.44 405.66 L 703.92 404.05 L 705.39 407.27 L 706.86 408.00 L 708.33 410.31 L 709.81 406.20 L 711.28 409.22 L 712.75 410.44 L 714.22 408.46 L 715.69 413.33 L 717.17 407.38 L 718.64 408.73 L 720.11 410.02 L 721.58 415.81 L 723.06 417.35 L 724.53 436.54 L 726.00 443.38 L 727.47 441.44 L 728.94 436.26 L 730.42 434.03 L 731.89 434.79 L 733.36 436.54 L 734.83 413.07 L 736.31 393.90 L 737.78 368.45 L 739.25 382.16 L 740.72 385.33 L 742.19 381.68 L 743.67 390.65 L 745.14 395.73 L 746.61 395.57 L 748.08 405.65 L 749.56 409.04 L 751.03 414.79 L 752.50 418.18 L 753.97 424.77 L 755.44 429.49 L 756.92 429.50 L 758.39 434.13 L 759.86 420.75 L 761.33 423.15 L 762.81 417.64 L 764.28 401.36 L 765.75 400.37 L 767.22 409.11 L 768.69 401.97 L 770.17 403.21 L 771.64 398.88 L 773.11 403.89 L 774.58 412.70 L 776.06 410.00 L 777.53 413.47 L 779.00 412.73 L 780.47 411.47 L 781.94 407.81 L 783.42 409.44 L 784.89 405.52 L 786.36 404.40 L 787.83 407.74 L 789.31 409.37 L 790.78 409.66 L 792.25 408.88 L 793.72 409.28 L 795.19 413.00 L 796.67 414.46 L 798.14 408.28 L 799.61 404.32 L 801.08 406.67 L 802.56 406.56 L 804.03 407.75 L 805.50 406.19" stroke="#6A1B9A" />
<line x1="900.00" y1="307.75" x2="918.00" y2="307.75" stroke="#2E7D32" stroke-width="3" />
<text class="small" x="924.00" y="311.75">pitch</text>
<line x1="900.00" y1="323.75" x2="918.00" y2="323.75" stroke="#6A1B9A" stroke-width="3" />
<text class="small" x="924.00" y="327.75">roll</text>
<text x="90" y="500.50" font-size="14" font-weight="700">Aceleração (magnitude) (u.a.)</text>
<rect class="event" x="443.33" y="506.50" width="97.17" height="192.75" />
<line class="eventline" x1="443.33" y1="506.50" x2="443.33" y2="699.25" />
<line class="eventline" x1="540.50" y1="506.50" x2="540.50" y2="699.25" />
<line class="grid" x1="90" y1="699.25" x2="1150" y2="699.25" />
<text class="small" x="80" y="703.25" text-anchor="end">0.00</text>
<line class="grid" x1="90" y1="660.70" x2="1150" y2="660.70" />
<text class="small" x="80" y="664.70" text-anchor="end">0.50</text>
<line class="grid" x1="90" y1="622.15" x2="1150" y2="622.15" />
<text class="small" x="80" y="626.15" text-anchor="end">1.00</text>
<line class="grid" x1="90" y1="583.60" x2="1150" y2="583.60" />
<text class="small" x="80" y="587.60" text-anchor="end">1.50</text>
<line class="grid" x1="90" y1="545.05" x2="1150" y2="545.05" />
<text class="small" x="80" y="549.05" text-anchor="end">2.00</text>
<line class="grid" x1="90" y1="506.50" x2="1150" y2="506.50" />
<text class="small" x="80" y="510.50" text-anchor="end">2.50</text>
<line class="grid" x1="90.00" y1="506.50" x2="90.00" y2="699.25" />
<line class="grid" x1="266.67" y1="506.50" x2="266.67" y2="699.25" />
<line class="grid" x1="443.33" y1="506.50" x2="443.33" y2="699.25" />
<line class="grid" x1="620.00" y1="506.50" x2="620.00" y2="699.25" />
<line class="grid" x1="796.67" y1="506.50" x2="796.67" y2="699.25" />
<line class="grid" x1="973.33" y1="506.50" x2="973.33" y2="699.25" />
<line class="grid" x1="1150.00" y1="506.50" x2="1150.00" y2="699.25" />
<line class="axis" x1="90" y1="506.50" x2="90" y2="699.25" />
<line class="axis" x1="90" y1="699.25" x2="1150" y2="699.25" />
<path class="series" d="M 178.33 693.89 L 179.81 686.05 L 181.28 693.62 L 182.75 690.44 L 184.22 690.27 L 185.69 687.29 L 187.17 693.08 L 188.64 688.36 L 190.11 690.72 L 191.58 692.31 L 193.06 696.16 L 194.53 695.68 L 196.00 694.59 L 197.47 693.17 L 198.94 692.44 L 200.42 693.55 L 201.89 692.88 L 203.36 684.81 L 204.83 691.75 L 206.31 688.88 L 207.78 686.78 L 209.25 689.09 L 210.72 687.06 L 212.19 674.91 L 213.67 690.35 L 215.14 687.05 L 216.61 687.05 L 218.08 683.09 L 219.56 689.09 L 221.03 692.81 L 222.50 691.48 L 223.97 694.85 L 225.44 695.64 L 226.92 694.31 L 228.39 694.93 L 229.86 693.85 L 231.33 684.97 L 232.81 697.40 L 234.28 693.66 L 235.75 686.82 L 237.22 692.33 L 238.69 688.76 L 240.17 697.61 L 241.64 695.20 L 243.11 693.75 L 244.58 695.06 L 246.06 691.87 L 247.53 682.48 L 249.00 683.42 L 250.47 687.34 L 251.94 694.56 L 253.42 688.11 L 254.89 675.64 L 256.36 677.31 L 257.83 671.81 L 259.31 687.61 L 260.78 676.50 L 262.25 684.09 L 263.72 684.89 L 265.19 685.69 L 266.67 682.50 L 268.14 685.24 L 269.61 659.70 L 271.08 691.99 L 272.56 683.57 L 274.03 683.67 L 275.50 676.35 L 276.97 680.49 L 278.44 651.34 L 279.92 634.66 L 281.39 651.30 L 282.86 622.81 L 284.33 668.71 L 285.81 577.52 L 287.28 680.92 L 288.75 670.02 L 290.22 666.33 L 291.69 660.23 L 293.17 662.11 L 294.64 668.21 L 296.11 682.32 L 297.58 673.99 L 299.06 661.99 L 300.53 678.81 L 302.00 640.34 L 303.47 666.93 L 304.94 666.25 L 306.42 655.40 L 307.89 660.91 L 309.36 666.69 L 310.83 684.09 L 312.31 655.53 L 313.78 675.86 L 315.25 682.67 L 316.72 682.72 L 318.19 687.35 L 319.67 682.99 L 321.14 690.98 L 322.61 696.25 L 324.08 678.57 L 325.56 688.93 L 327.03 675.31 L 328.50 681.45 L 329.97 684.32 L 331.44 677.79 L 332.92 666.23 L 334.39 681.74 L 335.86 656.02 L 337.33 644.12 L 338.81 630.42 L 340.28 661.74 L 341.75 638.77 L 343.22 646.79 L 344.69 680.12 L 346.17 636.31 L 347.64 666.37 L 349.11 670.88 L 350.58 678.10 L 352.06 690.13 L 353.53 692.04 L 355.00 677.12 L 356.47 687.52 L 357.94 653.07 L 359.42 681.07 L 360.89 632.86 L 362.36 668.88 L 363.83 661.93 L 365.31 688.24 L 366.78 666.24 L 368.25 659.38 L 369.72 679.31 L 371.19 660.37 L 372.67 655.57 L 374.14 642.76 L 375.61 654.16 L 377.08 658.77 L 378.56 669.72 L 380.03 661.65 L 381.50 660.88 L 382.97 656.56 L 384.44 645.73 L 385.92 655.81 L 387.39 655.81 L 388.86 676.70 L 390.33 673.85 L 391.81 672.12 L 393.28 668.46 L 394.75 670.49 L 396.22 651.88 L 397.69 629.19 L 399.17 674.80 L 400.64 655.80 L 402.11 689.75 L 403.58 681.96 L 405.06 667.77 L 406.53 681.44 L 408.00 673.20 L 409.47 687.25 L 410.94 675.12 L 412.42 677.23 L 413.89 685.78 L 415.36 678.97 L 416.83 666.47 L 418.31 672.03 L 419.78 678.41 L 421.25 670.57 L 422.72 662.00 L 424.19 678.56 L 425.67 687.37 L 427.14 673.92 L 428.61 671.78 L 430.08 681.11 L 431.56 665.97 L 433.03 684.15 L 434.50 689.40 L 435.97 676.17 L 437.44 679.89 L 438.92 682.06 L 440.39 668.48 L 441.86 676.97 L 443.33 696.53 L 444.81 678.42 L 446.28 688.46 L 447.75 695.83 L 449.22 694.89 L 450.69 697.34 L 452.17 696.08 L 453.64 695.35 L 455.11 697.71 L 456.58 697.84 L 458.06 696.25 L 459.53 694.29 L 461.00 694.97 L 462.47 696.90 L 463.94 697.70 L 465.42 694.25 L 466.89 693.61 L 468.36 694.72 L 469.83 695.97 L 471.31 696.85 L 472.78 695.70 L 474.25 697.96 L 475.72 697.93 L 477.19 691.94 L 478.67 689.34 L 480.14 697.30 L 481.61 697.57 L 483.08 696.24 L 484.56 696.34 L 486.03 698.10 L 487.50 697.94 L 488.97 697.16 L 490.44 692.39 L 491.92 697.76 L 493.39 697.10 L 494.86 697.21 L 496.33 671.82 L 497.81 679.90 L 499.28 686.08 L 500.75 692.25 L 502.22 693.11 L 503.69 695.04 L 505.17 667.18 L 506.64 674.83 L 508.11 634.49 L 509.58 670.90 L 511.06 682.76 L 512.53 693.35 L 514.00 696.10 L 515.47 696.22 L 516.94 697.86 L 518.42 697.85 L 519.89 695.75 L 521.36 696.64 L 522.83 698.34 L 524.31 698.43 L 525.78 698.52 L 527.25 698.38 L 528.72 698.08 L 530.19 697.42 L 531.67 697.86 L 533.14 698.50 L 534.61 697.02 L 536.08 696.31 L 537.56 685.49 L 539.03 662.09 L 540.50 666.80 L 541.97 690.20 L 543.44 681.83 L 544.92 680.64 L 546.39 662.14 L 547.86 667.56 L 549.33 667.56 L 550.81 665.10 L 552.28 671.77 L 553.75 664.29 L 555.22 640.88 L 556.69 653.58 L 558.17 579.93 L 559.64 651.84 L 561.11 667.11 L 562.58 644.56 L 564.06 599.45 L 565.53 607.92 L 567.00 648.33 L 568.47 633.63 L 569.94 631.11 L 571.42 653.20 L 572.89 641.06 L 574.36 642.66 L 575.83 624.40 L 577.31 607.20 L 578.78 605.87 L 580.25 556.60 L 581.72 601.43 L 583.19 612.24 L 584.67 613.43 L 586.14 681.06 L 587.61 651.16 L 589.08 666.40 L 590.56 655.50 L 592.03 645.85 L 593.50 647.87 L 594.97 657.57 L 596.44 676.89 L 597.92 648.74 L 599.39 609.52 L 600.86 662.29 L 602.33 672.22 L 603.81 665.09 L 605.28 675.36 L 606.75 625.07 L 608.22 592.72 L 609.69 643.00 L 611.17 638.14 L 612.64 634.85 L 614.11 671.82 L 615.58 653.34 L 617.06 643.28 L 618.53 665.69 L 620.00 662.32 L 621.47 654.09 L 622.94 660.08 L 624.42 675.99 L 625.89 671.46 L 627.36 662.20 L 628.83 665.74 L 630.31 647.65 L 631.78 669.43 L 633.25 685.22 L 634.72 678.82 L 636.19 675.66 L 637.67 682.30 L 639.14 661.49 L 640.61 655.77 L 642.08 659.72 L 643.56 681.89 L 645.03 692.42 L 646.50 672.10 L 647.97 679.68 L 649.44 667.90 L 650.92 660.33 L 652.39 680.14 L 653.86 696.41 L 655.33 692.63 L 656.81 681.57 L 658.28 671.57 L 659.75 621.33 L 661.22 659.49 L 662.69 648.02 L 664.17 667.96 L 665.64 676.19 L 667.11 670.58 L 668.58 680.10 L 670.06 684.10 L 671.53 673.12 L 673.00 672.62 L 674.47 627.01 L 675.94 655.33 L 677.42 669.44 L 678.89 653.45 L 680.36 651.09 L 681.83 663.94 L 683.31 682.26 L 684.78 688.13 L 686.25 693.44 L 687.72 680.62 L 689.19 681.93 L 690.67 692.25 L 692.14 685.40 L 693.61 684.73 L 695.08 685.34 L 696.56 666.32 L 698.03 666.60 L 699.50 666.80 L 700.97 672.03 L 702.44 657.41 L 703.92 678.34 L 705.39 688.15 L 706.86 688.15 L 708.33 690.41 L 709.81 692.61 L 711.28 690.65 L 712.75 693.18 L 714.22 689.75 L 715.69 686.31 L 717.17 651.87 L 718.64 682.58 L 720.11 691.50 L 721.58 688.94 L 723.06 675.04 L 724.53 621.02 L 726.00 654.15 L 727.47 612.69 L 728.94 635.37 L 730.42 659.10 L 731.89 665.85 L 733.36 645.70 L 734.83 617.64 L 736.31 628.56 L 737.78 524.89 L 739.25 577.51 L 740.72 625.45 L 742.19 641.91 L 743.67 654.98 L 745.14 677.08 L 746.61 662.54 L 748.08 646.48 L 749.56 644.80 L 751.03 653.96 L 752.50 648.13 L 753.97 663.03 L 755.44 672.38 L 756.92 674.38 L 758.39 672.20 L 759.86 685.48 L 761.33 686.92 L 762.81 672.10 L 764.28 653.02 L 765.75 665.16 L 767.22 679.86 L 768.69 676.14 L 770.17 675.22 L 771.64 682.07 L 773.11 680.55 L 774.58 638.94 L 776.06 682.98 L 777.53 678.39 L 779.00 686.17 L 780.47 696.48 L 781.94 690.21 L 783.42 687.97 L 784.89 688.53 L 786.36 675.37 L 787.83 685.08 L 789.31 685.33 L 790.78 678.92 L 792.25 691.32 L 793.72 687.59 L 795.19 693.56 L 796.67 684.66 L 798.14 681.03 L 799.61 686.75 L 801.08 687.98 L 802.56 676.11 L 804.03 669.84 L 805.50 677.37" stroke="#FB8C00" />
<text x="90" y="711.25" font-size="14" font-weight="700">Giroscópio (magnitude) (u.a.)</text>
<rect class="event" x="443.33" y="717.25" width="97.17" height="192.75" />
<line class="eventline" x1="443.33" y1="717.25" x2="443.33" y2="910.00" />
<line class="eventline" x1="540.50" y1="717.25" x2="540.50" y2="910.00" />
<line class="grid" x1="90" y1="910.00" x2="1150" y2="910.00" />
<text class="small" x="80" y="914.00" text-anchor="end">0.00</text>
<line class="grid" x1="90" y1="871.45" x2="1150" y2="871.45" />
<text class="small" x="80" y="875.45" text-anchor="end">0.10</text>
<line class="grid" x1="90" y1="832.90" x2="1150" y2="832.90" />
<text class="small" x="80" y="836.90" text-anchor="end">0.20</text>
<line class="grid" x1="90" y1="794.35" x2="1150" y2="794.35" />
<text class="small" x="80" y="798.35" text-anchor="end">0.30</text>
<line class="grid" x1="90" y1="755.80" x2="1150" y2="755.80" />
<text class="small" x="80" y="759.80" text-anchor="end">0.40</text>
<line class="grid" x1="90" y1="717.25" x2="1150" y2="717.25" />
<text class="small" x="80" y="721.25" text-anchor="end">0.50</text>
<line class="grid" x1="90.00" y1="717.25" x2="90.00" y2="910.00" />
<line class="grid" x1="266.67" y1="717.25" x2="266.67" y2="910.00" />
<line class="grid" x1="443.33" y1="717.25" x2="443.33" y2="910.00" />
<line class="grid" x1="620.00" y1="717.25" x2="620.00" y2="910.00" />
<line class="grid" x1="796.67" y1="717.25" x2="796.67" y2="910.00" />
<line class="grid" x1="973.33" y1="717.25" x2="973.33" y2="910.00" />
<line class="grid" x1="1150.00" y1="717.25" x2="1150.00" y2="910.00" />
<line class="axis" x1="90" y1="717.25" x2="90" y2="910.00" />
<line class="axis" x1="90" y1="910.00" x2="1150" y2="910.00" />
<path class="series" d="M 178.33 898.96 L 179.81 903.60 L 181.28 898.07 L 182.75 902.30 L 184.22 903.54 L 185.69 903.46 L 187.17 904.15 L 188.64 906.04 L 190.11 908.15 L 191.58 904.54 L 193.06 903.49 L 194.53 903.27 L 196.00 903.75 L 197.47 902.68 L 198.94 901.82 L 200.42 902.81 L 201.89 906.18 L 203.36 904.69 L 204.83 905.40 L 206.31 904.17 L 207.78 904.91 L 209.25 905.20 L 210.72 901.42 L 212.19 900.73 L 213.67 904.42 L 215.14 902.70 L 216.61 902.70 L 218.08 903.65 L 219.56 904.95 L 221.03 905.89 L 222.50 906.94 L 223.97 906.02 L 225.44 907.34 L 226.92 906.61 L 228.39 908.55 L 229.86 905.81 L 231.33 907.14 L 232.81 906.83 L 234.28 905.07 L 235.75 904.13 L 237.22 904.29 L 238.69 905.43 L 240.17 905.12 L 241.64 906.03 L 243.11 904.49 L 244.58 906.96 L 246.06 906.38 L 247.53 901.62 L 249.00 897.95 L 250.47 897.50 L 251.94 897.78 L 253.42 895.35 L 254.89 898.40 L 256.36 894.71 L 257.83 891.06 L 259.31 895.22 L 260.78 890.12 L 262.25 897.60 L 263.72 900.18 L 265.19 906.04 L 266.67 905.13 L 268.14 904.30 L 269.61 897.32 L 271.08 898.65 L 272.56 897.92 L 274.03 898.83 L 275.50 899.68 L 276.97 905.03 L 278.44 897.18 L 279.92 896.85 L 281.39 895.36 L 282.86 896.98 L 284.33 895.54 L 285.81 897.47 L 287.28 901.02 L 288.75 899.49 L 290.22 902.76 L 291.69 905.90 L 293.17 899.47 L 294.64 904.44 L 296.11 899.65 L 297.58 889.18 L 299.06 880.97 L 300.53 877.69 L 302.00 873.75 L 303.47 865.93 L 304.94 872.10 L 306.42 874.71 L 307.89 872.03 L 309.36 880.54 L 310.83 879.07 L 312.31 884.12 L 313.78 880.04 L 315.25 882.29 L 316.72 887.09 L 318.19 884.26 L 319.67 887.55 L 321.14 886.76 L 322.61 888.24 L 324.08 886.75 L 325.56 886.78 L 327.03 887.24 L 328.50 886.96 L 329.97 893.17 L 331.44 879.49 L 332.92 898.22 L 334.39 905.92 L 335.86 904.03 L 337.33 896.56 L 338.81 892.49 L 340.28 892.15 L 341.75 891.41 L 343.22 892.65 L 344.69 883.41 L 346.17 874.32 L 347.64 881.67 L 349.11 880.55 L 350.58 884.94 L 352.06 880.57 L 353.53 887.95 L 355.00 892.70 L 356.47 891.91 L 357.94 888.48 L 359.42 892.16 L 360.89 891.39 L 362.36 896.06 L 363.83 892.67 L 365.31 881.46 L 366.78 885.85 L 368.25 887.02 L 369.72 879.12 L 371.19 902.09 L 372.67 885.72 L 374.14 865.13 L 375.61 837.56 L 377.08 836.60 L 378.56 840.11 L 380.03 835.32 L 381.50 828.58 L 382.97 817.81 L 384.44 824.13 L 385.92 839.45 L 387.39 839.45 L 388.86 845.25 L 390.33 841.15 L 391.81 841.87 L 393.28 844.12 L 394.75 853.70 L 396.22 848.92 L 397.69 881.87 L 399.17 904.81 L 400.64 905.29 L 402.11 903.16 L 403.58 905.43 L 405.06 908.08 L 406.53 898.45 L 408.00 890.03 L 409.47 875.20 L 410.94 879.08 L 412.42 879.09 L 413.89 883.36 L 415.36 890.04 L 416.83 894.48 L 418.31 904.15 L 419.78 902.90 L 421.25 906.20 L 422.72 905.81 L 424.19 902.04 L 425.67 899.31 L 427.14 902.43 L 428.61 903.60 L 430.08 898.21 L 431.56 893.99 L 433.03 898.79 L 434.50 904.94 L 435.97 901.07 L 437.44 897.85 L 438.92 902.15 L 440.39 902.92 L 441.86 905.64 L 443.33 907.11 L 444.81 907.00 L 446.28 908.71 L 447.75 908.27 L 449.22 909.04 L 450.69 908.68 L 452.17 908.51 L 453.64 908.98 L 455.11 909.23 L 456.58 908.79 L 458.06 908.70 L 459.53 909.08 L 461.00 908.98 L 462.47 908.82 L 463.94 908.95 L 465.42 908.97 L 466.89 908.78 L 468.36 908.99 L 469.83 908.95 L 471.31 908.61 L 472.78 909.24 L 474.25 908.75 L 475.72 909.09 L 477.19 908.92 L 478.67 909.27 L 480.14 909.00 L 481.61 909.08 L 483.08 908.74 L 484.56 909.07 L 486.03 908.81 L 487.50 907.27 L 488.97 906.06 L 490.44 908.09 L 491.92 908.92 L 493.39 909.06 L 494.86 909.09 L 496.33 904.52 L 497.81 892.26 L 499.28 905.91 L 500.75 902.00 L 502.22 906.90 L 503.69 903.50 L 505.17 903.40 L 506.64 906.94 L 508.11 901.32 L 509.58 909.45 L 511.06 908.66 L 512.53 908.97 L 514.00 909.03 L 515.47 909.07 L 516.94 909.08 L 518.42 908.91 L 519.89 908.89 L 521.36 909.07 L 522.83 909.04 L 524.31 909.05 L 525.78 908.98 L 527.25 908.94 L 528.72 908.99 L 530.19 909.02 L 531.67 909.06 L 533.14 908.94 L 534.61 909.01 L 536.08 908.91 L 537.56 906.99 L 539.03 901.40 L 540.50 901.64 L 541.97 899.76 L 543.44 891.13 L 544.92 893.25 L 546.39 883.11 L 547.86 869.92 L 549.33 869.92 L 550.81 858.49 L 552.28 849.27 L 553.75 852.15 L 555.22 885.98 L 556.69 902.53 L 558.17 864.45 L 559.64 871.36 L 561.11 894.80 L 562.58 886.64 L 564.06 870.36 L 565.53 835.75 L 567.00 829.91 L 568.47 849.41 L 569.94 872.24 L 571.42 864.38 L 572.89 873.41 L 574.36 892.53 L 575.83 902.93 L 577.31 876.84 L 578.78 858.00 L 580.25 820.08 L 581.72 836.08 L 583.19 893.56 L 584.67 897.65 L 586.14 906.94 L 587.61 903.58 L 589.08 876.94 L 590.56 865.84 L 592.03 864.34 L 593.50 879.48 L 594.97 900.30 L 596.44 900.63 L 597.92 896.34 L 599.39 862.91 L 600.86 862.65 L 602.33 873.25 L 603.81 878.05 L 605.28 880.71 L 606.75 875.64 L 608.22 842.03 L 609.69 836.35 L 611.17 845.08 L 612.64 895.26 L 614.11 902.33 L 615.58 890.69 L 617.06 891.53 L 618.53 894.46 L 620.00 901.36 L 621.47 904.77 L 622.94 889.74 L 624.42 890.41 L 625.89 890.68 L 627.36 898.62 L 628.83 904.03 L 630.31 894.46 L 631.78 894.17 L 633.25 894.00 L 634.72 895.00 L 636.19 893.23 L 637.67 895.05 L 639.14 902.11 L 640.61 902.47 L 642.08 903.44 L 643.56 895.51 L 645.03 903.20 L 646.50 898.77 L 647.97 896.17 L 649.44 895.98 L 650.92 898.71 L 652.39 900.31 L 653.86 904.42 L 655.33 904.99 L 656.81 906.22 L 658.28 896.56 L 659.75 886.54 L 661.22 892.70 L 662.69 901.99 L 664.17 904.52 L 665.64 901.74 L 667.11 899.19 L 668.58 896.74 L 670.06 902.24 L 671.53 904.92 L 673.00 908.61 L 674.47 898.49 L 675.94 901.13 L 677.42 904.45 L 678.89 901.11 L 680.36 904.93 L 681.83 900.27 L 683.31 905.71 L 684.78 900.53 L 686.25 906.85 L 687.72 898.54 L 689.19 904.59 L 690.67 902.29 L 692.14 903.86 L 693.61 903.95 L 695.08 900.50 L 696.56 902.01 L 698.03 906.68 L 699.50 901.99 L 700.97 895.04 L 702.44 892.63 L 703.92 895.84 L 705.39 901.63 L 706.86 901.63 L 708.33 902.24 L 709.81 905.82 L 711.28 905.27 L 712.75 905.62 L 714.22 900.39 L 715.69 902.54 L 717.17 902.94 L 718.64 907.21 L 720.11 905.15 L 721.58 903.57 L 723.06 889.97 L 724.53 870.33 L 726.00 855.23 L 727.47 844.02 L 728.94 848.24 L 730.42 823.34 L 731.89 823.40 L 733.36 834.74 L 734.83 862.33 L 736.31 885.64 L 737.78 880.28 L 739.25 836.89 L 740.72 833.62 L 742.19 827.43 L 743.67 839.82 L 745.14 840.73 L 746.61 864.67 L 748.08 891.81 L 749.56 904.53 L 751.03 885.11 L 752.50 866.22 L 753.97 867.15 L 755.44 870.57 L 756.92 873.37 L 758.39 876.93 L 759.86 880.87 L 761.33 887.13 L 762.81 893.25 L 764.28 894.31 L 765.75 905.85 L 767.22 902.26 L 768.69 902.71 L 770.17 905.22 L 771.64 907.81 L 773.11 899.51 L 774.58 902.17 L 776.06 905.91 L 777.53 903.75 L 779.00 901.35 L 780.47 902.86 L 781.94 903.76 L 783.42 902.52 L 784.89 904.79 L 786.36 907.48 L 787.83 903.75 L 789.31 904.80 L 790.78 905.56 L 792.25 906.15 L 793.72 906.74 L 795.19 908.32 L 796.67 898.96 L 798.14 897.94 L 799.61 905.63 L 801.08 904.19 L 802.56 906.74 L 804.03 904.36 L 805.50 906.72" stroke="#E53935" />
<text x="620.00" y="952" font-size="15" text-anchor="middle">minutos (relativo ao início do evento)</text>
<text class="small" x="90.00" y="936" text-anchor="middle">-4.00</text>
<text class="small" x="266.67" y="936" text-anchor="middle">-2.00</text>
<text class="small" x="443.33" y="936" text-anchor="middle">0.00</text>
<text class="small" x="620.00" y="936" text-anchor="middle">2.00</text>
<text class="small" x="796.67" y="936" text-anchor="middle">4.00</text>
<text class="small" x="973.33" y="936" text-anchor="middle">6.00</text>
<text class="small" x="1150.00" y="936" text-anchor="middle">8.00</text>
</svg>