<?xml version="1.0" encoding="UTF-8"?>
<svg xmlns="http://www.w3.org/2000/svg" width="1180" height="980" viewBox="0 0 1180 980">
<style>
text { font-family: -apple-system, BlinkMacSystemFont, 'Segoe UI', Roboto, Helvetica, Arial, sans-serif; fill: #111; }
.small { font-size: 12px; fill: #222; }
.title { font-size: 18px; font-weight: 700; }
.axis { stroke: #111; stroke-width: 1.4; }
.grid { stroke: #E6E6E6; stroke-width: 1; }
.event { fill: #FFEB3B; fill-opacity: 0.18; }
.eventline { stroke: #F9A825; stroke-width: 1.2; stroke-dasharray: 4 3; }
.series { fill: none; stroke-width: 1.8; }
</style>
<text class="title" x="90" y="34">ciclo 3 — espera_basculamento — 2025-12-12T14:49:42-03:00 → 2025-12-12T14:50:28-03:00 (span 46s, dur 47s)</text>
<text class="small" x="90" y="54">GPS: -11.692388,-47.164855  hotspot: -11.692,-47.165</text>
<text class="small" x="90" y="70">Janela: -3.00 → 3.77 min (relativo ao início do evento)</text>
<text x="90" y="79.00" font-size="14" font-weight="700">Velocidade (km/h)</text>
<rect class="event" x="443.33" y="85.00" width="67.72" height="192.75" />
<line class="eventline" x1="443.33" y1="85.00" x2="443.33" y2="277.75" />
<line class="eventline" x1="511.06" y1="85.00" x2="511.06" y2="277.75" />
<line class="grid" x1="90" y1="277.75" x2="1150" y2="277.75" />
<text class="small" x="80" y="281.75" text-anchor="end">0.00</text>
<line class="grid" x1="90" y1="239.20" x2="1150" y2="239.20" />
<text class="small" x="80" y="243.20" text-anchor="end">10.0</text>
<line class="grid" x1="90" y1="200.65" x2="1150" y2="200.65" />
<text class="small" x="80" y="204.65" text-anchor="end">20.0</text>
<line class="grid" x1="90" y1="162.10" x2="1150" y2="162.10" />
<text class="small" x="80" y="166.10" text-anchor="end">30.0</text>
<line class="grid" x1="90" y1="123.55" x2="1150" y2="123.55" />
<text class="small" x="80" y="127.55" text-anchor="end">40.0</text>
<line class="grid" x1="90" y1="85.00" x2="1150" y2="85.00" />
<text class="small" x="80" y="89.00" text-anchor="end">50.0</text>
<line class="grid" x1="90.00" y1="85.00" x2="90.00" y2="277.75" />
<line class="grid" x1="266.67" y1="85.00" x2="266.67" y2="277.75" />
<line class="grid" x1="443.33" y1="85.00" x2="443.33" y2="277.75" />
<line class="grid" x1="620.00" y1="85.00" x2="620.00" y2="277.75" />
<line class="grid" x1="796.67" y1="85.00" x2="796.67" y2="277.75" />
<line class="grid" x1="973.33" y1="85.00" x2="973.33" y2="277.75" />
<line class="grid" x1="1150.00" y1="85.00" x2="1150.00" y2="277.75" />
<line class="axis" x1="90" y1="85.00" x2="90" y2="277.75" />
<line class="axis" x1="90" y1="277.75" x2="1150" y2="277.75" />
<path class="series" d="M 178.33 249.02 L 179.81 248.47 L 181.28 249.02 L 182.75 248.19 L 184.22 248.19 L 185.69 248.19 L 187.17 247.77 L 188.64 245.14 L 190.11 245.00 L 191.58 246.52 L 193.06 245.28 L 194.53 244.30 L 196.00 243.33 L 197.47 242.36 L 198.94 240.97 L 200.42 242.64 L 201.89 234.17 L 203.36 231.81 L 204.83 227.93 L 206.31 221.82 L 207.78 221.82 L 209.25 221.13 L 210.72 215.72 L 212.19 219.05 L 213.67 216.13 L 215.14 219.88 L 216.61 223.76 L 218.08 220.43 L 219.56 220.30 L 221.03 224.04 L 222.50 225.57 L 223.97 225.15 L 225.44 225.15 L 226.92 226.96 L 228.39 222.65 L 229.86 220.99 L 231.33 217.66 L 232.81 215.58 L 234.28 213.91 L 235.75 214.47 L 237.22 217.10 L 238.69 221.68 L 240.17 223.63 L 241.64 225.29 L 243.11 227.65 L 244.58 230.43 L 246.06 236.12 L 247.53 234.73 L 249.00 234.87 L 250.47 232.79 L 251.94 232.79 L 253.42 233.34 L 254.89 233.62 L 256.36 234.31 L 257.83 233.20 L 259.31 233.76 L 260.78 233.76 L 262.25 231.54 L 263.72 231.95 L 265.19 229.59 L 266.67 225.57 L 268.14 222.79 L 269.61 219.46 L 271.08 221.41 L 272.56 218.77 L 274.03 215.16 L 275.50 217.10 L 276.97 219.32 L 278.44 220.85 L 279.92 224.46 L 281.39 227.79 L 282.86 228.90 L 284.33 228.21 L 285.81 226.96 L 287.28 232.37 L 288.75 223.49 L 290.22 229.04 L 291.69 238.34 L 293.17 246.11 L 294.64 245.41 L 296.11 242.22 L 297.58 235.14 L 299.06 230.43 L 300.53 227.51 L 302.00 228.90 L 303.47 229.87 L 304.94 229.87 L 306.42 229.59 L 307.89 231.26 L 309.36 233.76 L 310.83 235.28 L 312.31 239.86 L 313.78 240.28 L 315.25 243.19 L 316.72 243.19 L 318.19 243.75 L 319.67 245.83 L 321.14 250.83 L 322.61 246.39 L 324.08 249.30 L 325.56 240.83 L 327.03 242.08 L 328.50 244.03 L 329.97 248.33 L 331.44 257.49 L 332.92 269.42 L 334.39 269.42 L 335.86 270.39 L 337.33 277.75 L 338.81 277.75 L 340.28 277.75 L 341.75 277.75 L 343.22 277.75 L 344.69 277.75 L 346.17 277.75 L 347.64 277.75 L 349.11 277.75 L 350.58 277.75 L 352.06 266.79 L 353.53 267.34 L 355.00 267.20 L 356.47 266.79 L 357.94 266.79 L 359.42 271.64 L 360.89 271.78 L 362.36 277.75 L 363.83 277.75 L 365.31 277.75 L 366.78 277.75 L 368.25 267.06 L 369.72 265.95 L 371.19 267.34 L 372.67 261.10 L 374.14 259.43 L 375.61 257.07 L 377.08 257.35 L 378.56 260.26 L 380.03 260.54 L 381.50 257.21 L 382.97 263.59 L 384.44 263.59 L 385.92 265.12 L 387.39 268.31 L 388.86 273.73 L 390.33 277.75 L 391.81 277.75 L 393.28 277.75 L 394.75 277.75 L 396.22 277.75 L 397.69 277.75 L 399.17 277.75 L 400.64 257.77 L 402.11 261.51 L 403.58 259.43 L 405.06 260.82 L 406.53 265.26 L 408.00 262.48 L 409.47 262.21 L 410.94 262.76 L 412.42 265.54 L 413.89 264.98 L 415.36 264.15 L 416.83 265.40 L 418.31 265.40 L 419.78 265.26 L 421.25 265.26 L 422.72 264.70 L 424.19 262.76 L 425.67 264.84 L 427.14 266.93 L 428.61 267.06 L 430.08 266.51 L 431.56 266.23 L 433.03 267.34 L 434.50 270.39 L 435.97 272.20 L 437.44 269.56 L 438.92 266.65 L 440.39 271.23 L 441.86 272.89 L 443.33 277.75 L 444.81 277.75 L 446.28 277.75 L 447.75 277.75 L 449.22 277.75 L 450.69 277.75 L 452.17 277.75 L 453.64 277.75 L 455.11 277.75 L 456.58 277.75 L 458.06 277.75 L 459.53 277.75 L 461.00 277.75 L 462.47 277.75 L 463.94 277.75 L 465.42 277.75 L 466.89 277.75 L 468.36 277.75 L 469.83 277.75 L 471.31 277.75 L 472.78 277.75 L 474.25 277.75 L 475.72 277.75 L 477.19 277.75 L 478.67 277.75 L 480.14 277.75 L 481.61 277.75 L 483.08 277.75 L 484.56 277.75 L 486.03 277.75 L 487.50 277.75 L 488.97 277.75 L 490.44 277.75 L 491.92 277.75 L 493.39 277.75 L 494.86 277.75 L 496.33 277.75 L 497.81 277.75 L 499.28 277.75 L 500.75 277.75 L 502.22 277.75 L 503.69 277.75 L 505.17 277.75 L 506.64 277.75 L 508.11 277.75 L 509.58 277.75 L 511.06 277.75 L 512.53 270.81 L 514.00 264.98 L 515.47 264.57 L 516.94 267.62 L 518.42 270.53 L 519.89 271.09 L 521.36 270.81 L 522.83 269.70 L 524.31 269.98 L 525.78 275.53 L 527.25 271.92 L 528.72 265.95 L 530.19 266.65 L 531.67 265.81 L 533.14 265.54 L 534.61 263.32 L 536.08 262.35 L 537.56 263.04 L 539.03 262.90 L 540.50 264.98 L 541.97 265.40 L 543.44 264.98 L 544.92 263.46 L 546.39 263.59 L 547.86 264.98 L 549.33 263.59 L 550.81 254.85 L 552.28 256.38 L 553.75 258.60 L 555.22 264.70 L 556.69 268.04 L 558.17 270.67 L 559.64 270.39 L 561.11 270.12 L 562.58 261.93 L 564.06 267.34 L 565.53 270.26 L 567.00 270.39 L 568.47 266.65 L 569.94 256.93 L 571.42 259.01 L 572.89 253.60 L 574.36 264.43 L 575.83 259.85 L 577.31 260.40 L 578.78 252.91 L 580.25 252.35 L 581.72 250.55 L 583.19 251.10 L 584.67 243.89 L 586.14 243.89 L 587.61 244.17 L 589.08 236.53 L 590.56 238.89 L 592.03 238.89 L 593.50 244.03 L 594.97 237.78 L 596.44 237.23 L 597.92 235.42 L 599.39 236.81 L 600.86 235.70 L 602.33 234.45 L 603.81 236.81 L 605.28 233.34 L 606.75 232.09 L 608.22 228.34 L 609.69 231.26 L 611.17 232.92 L 612.64 228.90 L 614.11 230.70 L 615.58 231.40 L 617.06 221.13 L 618.53 217.24 L 620.00 224.46 L 621.47 223.76 L 622.94 220.43 L 624.42 220.02 L 625.89 220.16 L 627.36 227.93 L 628.83 219.05 L 630.31 219.05 L 631.78 216.96 L 633.25 214.61 L 634.72 215.99 L 636.19 213.91 L 637.67 210.30 L 639.14 199.76 L 640.61 200.31 L 642.08 205.86 L 643.56 192.82 L 645.03 187.96 L 646.50 184.07 L 647.97 179.77 L 649.44 174.78 L 650.92 172.14 L 652.39 170.89 L 653.86 176.58 L 655.33 176.16 L 656.81 174.36 L 658.28 184.63 L 659.75 184.91 L 661.22 185.46 L 662.69 183.24 L 664.17 189.21 L 665.64 192.26 L 667.11 195.18 L 668.58 200.17 L 670.06 199.34 L 671.53 199.34 L 673.00 201.70 L 674.47 199.62 L 675.94 193.51 L 677.42 193.51 L 678.89 185.74 L 680.36 172.97 L 681.83 169.50 L 683.31 169.50 L 684.78 163.26 L 686.25 161.31 L 687.72 162.84 L 689.19 162.84 L 690.67 167.14 L 692.14 167.14 L 693.61 167.56 L 695.08 173.94 L 696.56 170.89 L 698.03 173.25 L 699.50 166.03 L 700.97 165.89 L 702.44 166.31 L 703.92 172.55 L 705.39 186.85 L 706.86 186.99 L 708.33 180.47 L 709.81 176.02 L 711.28 175.47 L 712.75 175.05 L 714.22 177.27 L 715.69 177.97 L 717.17 179.22 L 718.64 174.78 L 720.11 175.33 L 721.58 177.13 L 723.06 165.62 L 724.53 170.06 L 726.00 166.17 L 727.47 167.56 L 728.94 177.97 L 730.42 180.05 L 731.89 183.38 L 733.36 183.38 L 734.83 183.52 L 736.31 180.05 L 737.78 178.52 L 739.25 175.89 L 740.72 181.99 L 742.19 178.11 L 743.67 174.22 L 745.14 171.72 L 746.61 172.00 L 748.08 178.11 L 749.56 178.80 L 751.03 180.19 L 752.50 179.77 L 753.97 180.47 L 755.44 178.66 L 756.92 178.52 L 758.39 177.27 L 759.86 175.61 L 761.33 176.02 L 762.81 175.33 L 764.28 173.39 L 765.75 173.25 L 767.22 169.36 L 768.69 161.17 L 770.17 156.04 L 771.64 158.40 L 773.11 160.62 L 774.58 166.03 L 776.06 162.01" stroke="#1976D2" />
<text x="90" y="289.75" font-size="14" font-weight="700">Inclinação (graus)</text>
<rect class="event" x="443.33" y="295.75" width="67.72" height="192.75" />
<line class="eventline" x1="443.33" y1="295.75" x2="443.33" y2="488.50" />
<line class="eventline" x1="511.06" y1="295.75" x2="511.06" y2="488.50" />
<line class="grid" x1="90" y1="488.50" x2="1150" y2="488.50" />
<text class="small" x="80" y="492.50" text-anchor="end">-10.0</text>
<line class="grid" x1="90" y1="449.95" x2="1150" y2="449.95" />
<text class="small" x="80" y="453.95" text-anchor="end">0.00</text>
<line class="grid" x1="90" y1="411.40" x2="1150" y2="411.40" />
<text class="small" x="80" y="415.40" text-anchor="end">10.0</text>
<line class="grid" x1="90" y1="372.85" x2="1150" y2="372.85" />
<text class="small" x="80" y="376.85" text-anchor="end">20.0</text>
<line class="grid" x1="90" y1="334.30" x2="1150" y2="334.30" />
<text class="small" x="80" y="338.30" text-anchor="end">30.0</text>
<line class="grid" x1="90" y1="295.75" x2="1150" y2="295.75" />
<text class="small" x="80" y="299.75" text-anchor="end">40.0</text>
<line class="grid" x1="90.00" y1="295.75" x2="90.00" y2="488.50" />
<line class="grid" x1="266.67" y1="295.75" x2="266.67" y2="488.50" />
<line class="grid" x1="443.33" y1="295.75" x2="443.33" y2="488.50" />
<line class="grid" x1="620.00" y1="295.75" x2="620.00" y2="488.50" />
<line class="grid" x1="796.67" y1="295.75" x2="796.67" y2="488.50" />
<line class="grid" x1="973.33" y1="295.75" x2="973.33" y2="488.50" />
<line class="grid" x1="1150.00" y1="295.75" x2="1150.00" y2="488.50" />
<line class="axis" x1="90" y1="295.75" x2="90" y2="488.50" />
<line class="axis" x1="90" y1="488.50" x2="1150" y2="488.50" />
<path class="series" d="M 178.33 431.36 L 179.81 430.49 L 181.28 431.79 L 182.75 430.59 L 184.22 431.38 L 185.69 432.30 L 187.17 435.93 L 188.64 428.82 L 190.11 426.69 L 191.58 421.92 L 193.06 426.98 L 194.53 429.26 L 196.00 426.81 L 197.47 422.87 L 198.94 416.63 L 200.42 422.78 L 201.89 420.73 L 203.36 411.21 L 204.83 411.50 L 206.31 410.79 L 207.78 407.98 L 209.25 400.06 L 210.72 401.87 L 212.19 408.05 L 213.67 406.43 L 215.14 405.19 L 216.61 405.18 L 218.08 406.76 L 219.56 412.04 L 221.03 409.36 L 222.50 410.58 L 223.97 414.55 L 225.44 415.55 L 226.92 413.45 L 228.39 410.87 L 229.86 409.07 L 231.33 410.45 L 232.81 410.91 L 234.28 410.45 L 235.75 413.11 L 237.22 419.47 L 238.69 417.04 L 240.17 421.63 L 241.64 420.83 L 243.11 423.10 L 244.58 415.92 L 246.06 426.25 L 247.53 423.01 L 249.00 425.94 L 250.47 421.91 L 251.94 426.49 L 253.42 423.48 L 254.89 423.71 L 256.36 425.49 L 257.83 422.77 L 259.31 419.76 L 260.78 413.60 L 262.25 405.87 L 263.72 412.91 L 265.19 414.03 L 266.67 411.77 L 268.14 413.49 L 269.61 406.33 L 271.08 400.51 L 272.56 398.71 L 274.03 393.36 L 275.50 397.71 L 276.97 400.05 L 278.44 406.54 L 279.92 408.29 L 281.39 407.46 L 282.86 413.64 L 284.33 413.06 L 285.81 411.24 L 287.28 412.87 L 288.75 394.63 L 290.22 388.00 L 291.69 404.92 L 293.17 403.86 L 294.64 412.55 L 296.11 416.28 L 297.58 405.67 L 299.06 405.04 L 300.53 398.36 L 302.00 396.19 L 303.47 400.20 L 304.94 398.97 L 306.42 397.65 L 307.89 399.72 L 309.36 399.10 L 310.83 399.75 L 312.31 398.85 L 313.78 391.83 L 315.25 395.41 L 316.72 393.68 L 318.19 386.66 L 319.67 393.51 L 321.14 400.41 L 322.61 403.85 L 324.08 404.54 L 325.56 401.38 L 327.03 398.91 L 328.50 398.15 L 329.97 386.52 L 331.44 389.48 L 332.92 399.09 L 334.39 399.77 L 335.86 401.77 L 337.33 408.54 L 338.81 408.61 L 340.28 408.42 L 341.75 408.42 L 343.22 408.29 L 344.69 408.12 L 346.17 406.97 L 347.64 404.57 L 349.11 403.62 L 350.58 402.96 L 352.06 398.91 L 353.53 403.94 L 355.00 400.90 L 356.47 398.34 L 357.94 407.91 L 359.42 408.27 L 360.89 409.32 L 362.36 403.76 L 363.83 403.01 L 365.31 408.71 L 366.78 409.78 L 368.25 410.77 L 369.72 404.44 L 371.19 404.03 L 372.67 406.43 L 374.14 410.75 L 375.61 410.18 L 377.08 403.26 L 378.56 407.54 L 380.03 411.12 L 381.50 406.26 L 382.97 395.96 L 384.44 412.50 L 385.92 398.36 L 387.39 405.79 L 388.86 395.85 L 390.33 409.90 L 391.81 409.46 L 393.28 397.45 L 394.75 407.53 L 396.22 397.94 L 397.69 405.64 L 399.17 405.06 L 400.64 408.50 L 402.11 404.94 L 403.58 406.88 L 405.06 404.73 L 406.53 412.84 L 408.00 401.16 L 409.47 410.20 L 410.94 403.78 L 412.42 407.37 L 413.89 401.13 L 415.36 404.95 L 416.83 402.30 L 418.31 402.26 L 419.78 404.27 L 421.25 403.53 L 422.72 405.87 L 424.19 405.73 L 425.67 407.22 L 427.14 410.71 L 428.61 405.87 L 430.08 404.06 L 431.56 407.19 L 433.03 411.27 L 434.50 411.38 L 435.97 404.87 L 437.44 403.76 L 438.92 408.59 L 440.39 408.11 L 441.86 410.97 L 443.33 413.41 L 444.81 406.97 L 446.28 405.50 L 447.75 405.02 L 449.22 405.60 L 450.69 405.56 L 452.17 405.63 L 453.64 405.70 L 455.11 405.73 L 456.58 405.96 L 458.06 406.13 L 459.53 405.48 L 461.00 405.96 L 462.47 405.62 L 463.94 405.95 L 465.42 405.45 L 466.89 406.69 L 468.36 405.95 L 469.83 405.81 L 471.31 406.33 L 472.78 406.21 L 474.25 406.20 L 475.72 406.25 L 477.19 406.22 L 478.67 406.22 L 480.14 406.67 L 481.61 406.51 L 483.08 406.43 L 484.56 406.29 L 486.03 406.53 L 487.50 406.71 L 488.97 406.54 L 490.44 407.01 L 491.92 406.02 L 493.39 406.72 L 494.86 407.70 L 496.33 406.15 L 497.81 409.11 L 499.28 405.79 L 500.75 405.37 L 502.22 403.30 L 503.69 404.24 L 505.17 404.15 L 506.64 404.20 L 508.11 404.76 L 509.58 411.19 L 511.06 413.55 L 512.53 424.04 L 514.00 414.80 L 515.47 404.47 L 516.94 407.73 L 518.42 411.20 L 519.89 411.66 L 521.36 411.86 L 522.83 410.74 L 524.31 398.38 L 525.78 420.88 L 527.25 412.90 L 528.72 408.52 L 530.19 415.47 L 531.67 409.86 L 533.14 409.11 L 534.61 410.21 L 536.08 403.89 L 537.56 405.37 L 539.03 404.81 L 540.50 399.99 L 541.97 404.10 L 543.44 406.71 L 544.92 405.24 L 546.39 411.94 L 547.86 414.56 L 549.33 420.80 L 550.81 411.81 L 552.28 399.11 L 553.75 397.90 L 555.22 401.84 L 556.69 402.01 L 558.17 407.45 L 559.64 409.09 L 561.11 416.80 L 562.58 405.20 L 564.06 409.46 L 565.53 412.94 L 567.00 412.94 L 568.47 422.31 L 569.94 424.84 L 571.42 427.52 L 572.89 412.65 L 574.36 419.28 L 575.83 429.23 L 577.31 426.14 L 578.78 421.26 L 580.25 422.55 L 581.72 421.60 L 583.19 419.60 L 584.67 417.64 L 586.14 409.90 L 587.61 409.89 L 589.08 417.66 L 590.56 407.42 L 592.03 416.81 L 593.50 409.77 L 594.97 406.32 L 596.44 410.08 L 597.92 416.22 L 599.39 411.79 L 600.86 408.00 L 602.33 408.65 L 603.81 405.46 L 605.28 405.20 L 606.75 410.88 L 608.22 402.99 L 609.69 411.26 L 611.17 392.96 L 612.64 406.36 L 614.11 394.70 L 615.58 405.38 L 617.06 407.12 L 618.53 403.30 L 620.00 395.71 L 621.47 408.65 L 622.94 416.18 L 624.42 405.43 L 625.89 412.40 L 627.36 421.15 L 628.83 412.70 L 630.31 413.16 L 631.78 410.21 L 633.25 406.53 L 634.72 410.61 L 636.19 405.23 L 637.67 401.22 L 639.14 409.92 L 640.61 391.04 L 642.08 393.53 L 643.56 391.03 L 645.03 393.58 L 646.50 395.56 L 647.97 390.56 L 649.44 398.90 L 650.92 389.83 L 652.39 400.35 L 653.86 400.62 L 655.33 396.10 L 656.81 397.95 L 658.28 398.92 L 659.75 397.78 L 661.22 399.43 L 662.69 399.92 L 664.17 399.80 L 665.64 405.58 L 667.11 401.73 L 668.58 405.13 L 670.06 411.03 L 671.53 401.05 L 673.00 400.40 L 674.47 399.07 L 675.94 393.12 L 677.42 400.71 L 678.89 395.93 L 680.36 396.89 L 681.83 391.18 L 683.31 389.77 L 684.78 388.37 L 686.25 385.36 L 687.72 378.37 L 689.19 374.95 L 690.67 389.54 L 692.14 376.74 L 693.61 383.97 L 695.08 386.06 L 696.56 381.97 L 698.03 392.85 L 699.50 391.20 L 700.97 377.70 L 702.44 373.23 L 703.92 368.62 L 705.39 382.46 L 706.86 389.14 L 708.33 389.79 L 709.81 385.19 L 711.28 381.70 L 712.75 381.60 L 714.22 381.32 L 715.69 379.52 L 717.17 381.22 L 718.64 386.59 L 720.11 389.84 L 721.58 391.94 L 723.06 376.14 L 724.53 391.07 L 726.00 378.22 L 727.47 366.46 L 728.94 382.39 L 730.42 381.17 L 731.89 381.90 L 733.36 390.37 L 734.83 385.16 L 736.31 390.91 L 737.78 386.71 L 739.25 371.52 L 740.72 386.34 L 742.19 387.93 L 743.67 385.26 L 745.14 377.16 L 746.61 383.23 L 748.08 381.87 L 749.56 386.27 L 751.03 381.80 L 752.50 385.07 L 753.97 387.80 L 755.44 391.44 L 756.92 385.82 L 758.39 384.53 L 759.86 385.37 L 761.33 383.77 L 762.81 383.50 L 764.28 382.78 L 765.75 386.63 L 767.22 396.89 L 768.69 387.56 L 770.17 376.81 L 771.64 373.41 L 773.11 374.88 L 774.58 385.34 L 776.06 370.99" stroke="#2E7D32" />
<path class="series" d="M 178.33 440.75 L 179.81 445.68 L 181.28 439.02 L 182.75 444.97 L 184.22 441.30 L 185.69 445.47 L 187.17 451.52 L 188.64 443.84 L 190.11 456.32 L 191.58 443.72 L 193.06 454.83 L 194.53 452.00 L 196.00 456.12 L 197.47 453.88 L 198.94 456.03 L 200.42 452.43 L 201.89 447.06 L 203.36 450.31 L 204.83 439.25 L 206.31 444.99 L 207.78 450.25 L 209.25 451.24 L 210.72 451.50 L 212.19 440.89 L 213.67 445.01 L 215.14 446.11 L 216.61 442.09 L 218.08 442.39 L 219.56 447.11 L 221.03 437.91 L 222.50 445.21 L 223.97 450.51 L 225.44 454.47 L 226.92 465.34 L 228.39 459.08 L 229.86 459.35 L 231.33 458.42 L 232.81 456.14 L 234.28 455.51 L 235.75 458.19 L 237.22 451.85 L 238.69 459.46 L 240.17 451.59 L 241.64 438.47 L 243.11 447.95 L 244.58 445.55 L 246.06 450.40 L 247.53 443.86 L 249.00 438.33 L 250.47 447.92 L 251.94 441.31 L 253.42 442.67 L 254.89 429.16 L 256.36 439.69 L 257.83 432.78 L 259.31 444.28 L 260.78 442.26 L 262.25 429.58 L 263.72 435.49 L 265.19 430.50 L 266.67 439.88 L 268.14 435.24 L 269.61 438.45 L 271.08 446.90 L 272.56 447.77 L 274.03 443.59 L 275.50 427.40 L 276.97 435.99 L 278.44 427.91 L 279.92 433.20 L 281.39 431.19 L 282.86 435.57 L 284.33 427.96 L 285.81 438.81 L 287.28 439.20 L 288.75 449.26 L 290.22 448.83 L 291.69 451.59 L 293.17 449.91 L 294.64 451.61 L 296.11 452.40 L 297.58 456.72 L 299.06 463.87 L 300.53 463.10 L 302.00 461.26 L 303.47 460.29 L 304.94 461.78 L 306.42 457.89 L 307.89 459.45 L 309.36 452.18 L 310.83 451.39 L 312.31 452.66 L 313.78 451.08 L 315.25 452.93 L 316.72 456.93 L 318.19 455.18 L 319.67 463.70 L 321.14 457.07 L 322.61 461.90 L 324.08 455.15 L 325.56 460.25 L 327.03 455.11 L 328.50 442.12 L 329.97 448.26 L 331.44 441.38 L 332.92 447.69 L 334.39 445.97 L 335.86 443.89 L 337.33 445.24 L 338.81 447.58 L 340.28 446.20 L 341.75 446.20 L 343.22 446.87 L 344.69 446.39 L 346.17 445.75 L 347.64 446.16 L 349.11 446.56 L 350.58 445.54 L 352.06 449.53 L 353.53 447.02 L 355.00 450.01 L 356.47 445.91 L 357.94 447.83 L 359.42 442.96 L 360.89 440.98 L 362.36 449.83 L 363.83 448.25 L 365.31 446.34 L 366.78 448.51 L 368.25 449.68 L 369.72 450.33 L 371.19 442.26 L 372.67 453.16 L 374.14 448.28 L 375.61 468.76 L 377.08 444.19 L 378.56 450.59 L 380.03 452.17 L 381.50 450.37 L 382.97 445.86 L 384.44 452.95 L 385.92 445.16 L 387.39 452.40 L 388.86 439.11 L 390.33 448.69 L 391.81 449.08 L 393.28 445.79 L 394.75 450.66 L 396.22 451.98 L 397.69 448.45 L 399.17 451.83 L 400.64 450.19 L 402.11 433.88 L 403.58 447.09 L 405.06 432.28 L 406.53 427.00 L 408.00 443.29 L 409.47 440.06 L 410.94 432.04 L 412.42 440.89 L 413.89 435.30 L 415.36 447.91 L 416.83 442.33 L 418.31 443.09 L 419.78 445.48 L 421.25 448.96 L 422.72 443.69 L 424.19 443.79 L 425.67 443.24 L 427.14 447.42 L 428.61 443.12 L 430.08 447.02 L 431.56 447.18 L 433.03 449.63 L 434.50 451.01 L 435.97 448.44 L 437.44 448.34 L 438.92 450.32 L 440.39 449.45 L 441.86 444.97 L 443.33 447.27 L 444.81 447.18 L 446.28 445.62 L 447.75 445.24 L 449.22 446.64 L 450.69 446.35 L 452.17 446.30 L 453.64 446.49 L 455.11 446.11 L 456.58 446.38 L 458.06 446.20 L 459.53 446.42 L 461.00 446.79 L 462.47 445.75 L 463.94 447.08 L 465.42 445.67 L 466.89 446.43 L 468.36 446.39 L 469.83 446.24 L 471.31 446.36 L 472.78 446.45 L 474.25 446.35 L 475.72 446.53 L 477.19 446.39 L 478.67 446.68 L 480.14 446.42 L 481.61 446.58 L 483.08 446.56 L 484.56 446.11 L 486.03 446.53 L 487.50 446.29 L 488.97 446.48 L 490.44 445.93 L 491.92 446.29 L 493.39 446.48 L 494.86 446.46 L 496.33 445.64 L 497.81 446.03 L 499.28 445.34 L 500.75 444.67 L 502.22 444.21 L 503.69 444.64 L 505.17 444.16 L 506.64 444.31 L 508.11 444.44 L 509.58 443.55 L 511.06 445.02 L 512.53 450.58 L 514.00 446.78 L 515.47 449.25 L 516.94 450.39 L 518.42 446.98 L 519.89 449.12 L 521.36 451.78 L 522.83 450.64 L 524.31 445.92 L 525.78 452.39 L 527.25 452.91 L 528.72 450.97 L 530.19 451.85 L 531.67 450.80 L 533.14 447.78 L 534.61 448.03 L 536.08 441.00 L 537.56 448.46 L 539.03 449.70 L 540.50 448.74 L 541.97 449.51 L 543.44 450.05 L 544.92 446.75 L 546.39 449.81 L 547.86 447.56 L 549.33 442.74 L 550.81 447.59 L 552.28 445.79 L 553.75 452.65 L 555.22 448.72 L 556.69 449.42 L 558.17 448.42 L 559.64 448.31 L 561.11 441.75 L 562.58 456.91 L 564.06 449.69 L 565.53 447.99 L 567.00 447.99 L 568.47 446.07 L 569.94 448.01 L 571.42 448.49 L 572.89 450.13 L 574.36 441.23 L 575.83 444.67 L 577.31 438.38 L 578.78 443.06 L 580.25 443.58 L 581.72 453.81 L 583.19 447.72 L 584.67 443.49 L 586.14 442.78 L 587.61 444.09 L 589.08 439.80 L 590.56 445.60 L 592.03 447.68 L 593.50 436.44 L 594.97 442.31 L 596.44 437.65 L 597.92 442.33 L 599.39 436.40 L 600.86 438.14 L 602.33 440.97 L 603.81 443.80 L 605.28 453.43 L 606.75 449.37 L 608.22 445.95 L 609.69 447.17 L 611.17 444.22 L 612.64 454.37 L 614.11 468.59 L 615.58 466.06 L 617.06 467.17 L 618.53 466.42 L 620.00 466.10 L 621.47 451.97 L 622.94 453.13 L 624.42 458.22 L 625.89 447.55 L 627.36 449.07 L 628.83 447.10 L 630.31 451.83 L 631.78 433.81 L 633.25 441.46 L 634.72 440.79 L 636.19 441.12 L 637.67 443.40 L 639.14 430.80 L 640.61 447.69 L 642.08 439.53 L 643.56 436.62 L 645.03 439.24 L 646.50 436.31 L 647.97 432.61 L 649.44 428.00 L 650.92 429.68 L 652.39 431.91 L 653.86 429.05 L 655.33 430.62 L 656.81 437.93 L 658.28 438.36 L 659.75 438.24 L 661.22 446.17 L 662.69 435.19 L 664.17 445.61 L 665.64 452.47 L 667.11 455.74 L 668.58 451.38 L 670.06 454.84 L 671.53 453.78 L 673.00 436.94 L 674.47 432.50 L 675.94 442.35 L 677.42 439.86 L 678.89 433.97 L 680.36 440.03 L 681.83 448.23 L 683.31 450.96 L 684.78 445.25 L 686.25 457.10 L 687.72 446.24 L 689.19 453.34 L 690.67 449.32 L 692.14 449.25 L 693.61 444.48 L 695.08 450.13 L 696.56 448.54 L 698.03 449.92 L 699.50 442.78 L 700.97 443.77 L 702.44 449.54 L 703.92 450.55 L 705.39 447.62 L 706.86 446.64 L 708.33 454.84 L 709.81 464.05 L 711.28 450.53 L 712.75 458.91 L 714.22 456.20 L 715.69 454.90 L 717.17 450.91 L 718.64 444.12 L 720.11 446.03 L 721.58 440.92 L 723.06 448.12 L 724.53 444.28 L 726.00 446.08 L 727.47 441.79 L 728.94 442.65 L 730.42 450.36 L 731.89 442.77 L 733.36 468.09 L 734.83 452.20 L 736.31 453.31 L 737.78 451.63 L 739.25 450.28 L 740.72 449.65 L 742.19 447.43 L 743.67 443.87 L 745.14 446.36 L 746.61 451.52 L 748.08 454.03 L 749.56 443.88 L 751.03 447.12 L 752.50 445.79 L 753.97 437.99 L 755.44 438.53 L 756.92 439.62 L 758.39 446.57 L 759.86 449.63 L 761.33 446.77 L 762.81 443.27 L 764.28 439.83 L 765.75 443.52 L 767.22 446.91 L 768.69 440.92 L 770.17 443.49 L 771.64 442.60 L 773.11 443.55 L 774.58 451.54 L 776.06 449.25" stroke="#6A1B9A" />
<line x1="900.00" y1="307.75" x2="918.00" y2="307.75" stroke="#2E7D32" stroke-width="3" />
<text class="small" x="924.00" y="311.75">pitch</text>
<line x1="900.00" y1="323.75" x2="918.00" y2="323.75" stroke="#6A1B9A" stroke-width="3" />
<text class="small" x="924.00" y="327.75">roll</text>
<text x="90" y="500.50" font-size="14" font-weight="700">Aceleração (magnitude) (u.a.)</text>
<rect class="event" x="443.33" y="506.50" width="67.72" height="192.75" />
<line class="eventline" x1="443.33" y1="506.50" x2="443.33" y2="699.25" />
<line class="eventline" x1="511.06" y1="506.50" x2="511.06" y2="699.25" />
<line class="grid" x1="90" y1="699.25" x2="1150" y2="699.25" />
<text class="small" x="80" y="703.25" text-anchor="end">0.00</text>
<line class="grid" x1="90" y1="660.70" x2="1150" y2="660.70" />
<text class="small" x="80" y="664.70" text-anchor="end">0.50</text>
<line class="grid" x1="90" y1="622.15" x2="1150" y2="622.15" />
<text class="small" x="80" y="626.15" text-anchor="end">1.00</text>
<line class="grid" x1="90" y1="583.60" x2="1150" y2="583.60" />
<text class="small" x="80" y="587.60" text-anchor="end">1.50</text>
<line class="grid" x1="90" y1="545.05" x2="1150" y2="545.05" />
<text class="small" x="80" y="549.05" text-anchor="end">2.00</text>
<line class="grid" x1="90" y1="506.50" x2="1150" y2="506.50" />
<text class="small" x="80" y="510.50" text-anchor="end">2.50</text>
<line class="grid" x1="90.00" y1="506.50" x2="90.00" y2="699.25" />
<line class="grid" x1="266.67" y1="506.50" x2="266.67" y2="699.25" />
<line class="grid" x1="443.33" y1="506.50" x2="443.33" y2="699.25" />
<line class="grid" x1="620.00" y1="506.50" x2="620.00" y2="699.25" />
<line class="grid" x1="796.67" y1="506.50" x2="796.67" y2="699.25" />
<line class="grid" x1="973.33" y1="506.50" x2="973.33" y2="699.25" />
<line class="grid" x1="1150.00" y1="506.50" x2="1150.00" y2="699.25" />
<line class="axis" x1="90" y1="506.50" x2="90" y2="699.25" />
<line class="axis" x1="90" y1="699.25" x2="1150" y2="699.25" />
<path class="series" d="M 178.33 688.52 L 179.81 695.21 L 181.28 693.57 L 182.75 696.25 L 184.22 688.95 L 185.69 683.22 L 187.17 675.56 L 188.64 687.19 L 190.11 673.84 L 191.58 692.63 L 193.06 691.52 L 194.53 684.28 L 196.00 682.19 L 197.47 693.08 L 198.94 688.34 L 200.42 674.25 L 201.89 684.21 L 203.36 681.64 L 204.83 680.93 L 206.31 679.25 L 207.78 677.78 L 209.25 645.30 L 210.72 647.64 L 212.19 675.40 L 213.67 682.63 L 215.14 639.20 L 216.61 670.21 L 218.08 662.39 L 219.56 669.97 L 221.03 691.94 L 222.50 680.54 L 223.97 660.07 L 225.44 666.08 L 226.92 657.50 L 228.39 657.50 L 229.86 660.12 L 231.33 678.05 L 232.81 678.20 L 234.28 641.62 L 235.75 670.85 L 237.22 644.93 L 238.69 668.41 L 240.17 663.78 L 241.64 675.31 L 243.11 650.68 L 244.58 673.65 L 246.06 672.61 L 247.53 673.91 L 249.00 686.96 L 250.47 687.34 L 251.94 683.18 L 253.42 672.69 L 254.89 673.57 L 256.36 690.53 L 257.83 685.63 L 259.31 679.76 L 260.78 681.54 L 262.25 677.42 L 263.72 663.91 L 265.19 662.82 L 266.67 676.07 L 268.14 683.24 L 269.61 684.52 L 271.08 666.39 L 272.56 657.10 L 274.03 670.91 L 275.50 612.87 L 276.97 679.85 L 278.44 658.71 L 279.92 668.50 L 281.39 692.32 L 282.86 683.46 L 284.33 691.68 L 285.81 678.21 L 287.28 621.74 L 288.75 635.16 L 290.22 632.68 L 291.69 624.62 L 293.17 664.30 L 294.64 678.07 L 296.11 649.01 L 297.58 663.24 L 299.06 666.07 L 300.53 666.46 L 302.00 678.69 L 303.47 689.46 L 304.94 677.08 L 306.42 685.33 L 307.89 675.56 L 309.36 674.51 L 310.83 681.18 L 312.31 673.36 L 313.78 670.35 L 315.25 681.71 L 316.72 692.09 L 318.19 671.88 L 319.67 653.99 L 321.14 674.22 L 322.61 689.27 L 324.08 685.87 L 325.56 680.58 L 327.03 671.62 L 328.50 655.20 L 329.97 649.98 L 331.44 648.31 L 332.92 672.92 L 334.39 685.01 L 335.86 692.03 L 337.33 668.17 L 338.81 683.52 L 340.28 694.73 L 341.75 696.58 L 343.22 698.55 L 344.69 693.90 L 346.17 693.18 L 347.64 688.32 L 349.11 689.38 L 350.58 696.03 L 352.06 696.03 L 353.53 679.62 L 355.00 693.38 L 356.47 685.97 L 357.94 683.58 L 359.42 690.52 L 360.89 685.01 L 362.36 674.29 L 363.83 693.95 L 365.31 686.01 L 366.78 690.81 L 368.25 695.72 L 369.72 679.01 L 371.19 674.61 L 372.67 667.13 L 374.14 689.76 L 375.61 657.15 L 377.08 659.31 L 378.56 687.45 L 380.03 687.17 L 381.50 688.92 L 382.97 678.50 L 384.44 655.64 L 385.92 677.89 L 387.39 685.32 L 388.86 670.41 L 390.33 659.81 L 391.81 672.26 L 393.28 693.40 L 394.75 684.85 L 396.22 684.49 L 397.69 686.90 L 399.17 686.07 L 400.64 688.94 L 402.11 655.73 L 403.58 672.96 L 405.06 692.22 L 406.53 673.59 L 408.00 681.59 L 409.47 668.83 L 410.94 680.74 L 412.42 679.14 L 413.89 686.78 L 415.36 685.41 L 416.83 677.51 L 418.31 693.38 L 419.78 690.30 L 421.25 692.75 L 422.72 690.97 L 424.19 681.04 L 425.67 683.41 L 427.14 695.35 L 428.61 692.88 L 430.08 692.72 L 431.56 692.05 L 433.03 688.61 L 434.50 695.45 L 435.97 684.65 L 437.44 691.59 L 438.92 685.63 L 440.39 692.61 L 441.86 680.97 L 443.33 690.35 L 444.81 693.04 L 446.28 691.59 L 447.75 698.46 L 449.22 697.13 L 450.69 698.11 L 452.17 698.92 L 453.64 698.65 L 455.11 699.09 L 456.58 698.58 L 458.06 698.30 L 459.53 694.92 L 461.00 698.15 L 462.47 698.48 L 463.94 697.02 L 465.42 696.72 L 466.89 695.00 L 468.36 698.79 L 469.83 697.55 L 471.31 697.73 L 472.78 697.32 L 474.25 698.80 L 475.72 698.17 L 477.19 698.17 L 478.67 697.93 L 480.14 698.38 L 481.61 698.17 L 483.08 698.31 L 484.56 698.71 L 486.03 697.38 L 487.50 698.68 L 488.97 698.68 L 490.44 698.65 L 491.92 698.53 L 493.39 698.48 L 494.86 695.62 L 496.33 694.50 L 497.81 695.53 L 499.28 696.32 L 500.75 696.90 L 502.22 696.76 L 503.69 686.76 L 505.17 695.96 L 506.64 698.47 L 508.11 698.76 L 509.58 697.58 L 511.06 651.90 L 512.53 679.30 L 514.00 692.27 L 515.47 660.78 L 516.94 683.76 L 518.42 683.29 L 519.89 697.73 L 521.36 696.38 L 522.83 695.35 L 524.31 666.60 L 525.78 686.45 L 527.25 661.99 L 528.72 691.45 L 530.19 684.21 L 531.67 683.28 L 533.14 692.24 L 534.61 691.92 L 536.08 675.58 L 537.56 684.63 L 539.03 689.77 L 540.50 682.12 L 541.97 694.68 L 543.44 690.05 L 544.92 689.44 L 546.39 691.33 L 547.86 688.84 L 549.33 675.06 L 550.81 682.45 L 552.28 683.63 L 553.75 665.86 L 555.22 692.31 L 556.69 689.00 L 558.17 681.42 L 559.64 688.11 L 561.11 661.59 L 562.58 682.29 L 564.06 695.08 L 565.53 690.43 L 567.00 680.68 L 568.47 681.42 L 569.94 691.98 L 571.42 680.13 L 572.89 635.53 L 574.36 683.36 L 575.83 681.31 L 577.31 679.45 L 578.78 685.18 L 580.25 683.84 L 581.72 680.49 L 583.19 688.87 L 584.67 680.69 L 586.14 683.10 L 587.61 682.40 L 589.08 675.61 L 590.56 685.85 L 592.03 682.19 L 593.50 664.91 L 594.97 671.73 L 596.44 689.01 L 597.92 675.05 L 599.39 674.05 L 600.86 681.10 L 602.33 672.95 L 603.81 672.95 L 605.28 681.12 L 606.75 685.20 L 608.22 682.89 L 609.69 682.28 L 611.17 671.16 L 612.64 673.73 L 614.11 658.19 L 615.58 677.26 L 617.06 677.97 L 618.53 686.86 L 620.00 660.43 L 621.47 631.04 L 622.94 654.81 L 624.42 642.06 L 625.89 664.58 L 627.36 669.01 L 628.83 680.76 L 630.31 676.39 L 631.78 627.67 L 633.25 675.76 L 634.72 671.86 L 636.19 670.72 L 637.67 676.66 L 639.14 638.65 L 640.61 672.18 L 642.08 654.13 L 643.56 670.74 L 645.03 671.13 L 646.50 678.85 L 647.97 662.65 L 649.44 645.42 L 650.92 631.87 L 652.39 655.41 L 653.86 651.31 L 655.33 655.82 L 656.81 666.19 L 658.28 666.65 L 659.75 678.46 L 661.22 668.53 L 662.69 672.58 L 664.17 650.25 L 665.64 672.83 L 667.11 655.97 L 668.58 678.61 L 670.06 665.79 L 671.53 687.58 L 673.00 679.00 L 674.47 658.92 L 675.94 656.77 L 677.42 660.71 L 678.89 668.03 L 680.36 679.43 L 681.83 683.76 L 683.31 677.64 L 684.78 681.68 L 686.25 675.46 L 687.72 674.00 L 689.19 656.25 L 690.67 671.23 L 692.14 652.59 L 693.61 656.65 L 695.08 688.27 L 696.56 686.42 L 698.03 667.09 L 699.50 679.30 L 700.97 655.43 L 702.44 653.68 L 703.92 658.15 L 705.39 669.19 L 706.86 671.78 L 708.33 669.63 L 709.81 659.74 L 711.28 674.82 L 712.75 681.51 L 714.22 679.20 L 715.69 683.01 L 717.17 682.16 L 718.64 666.52 L 720.11 672.00 L 721.58 682.22 L 723.06 683.48 L 724.53 684.50 L 726.00 647.14 L 727.47 667.61 L 728.94 667.61 L 730.42 675.79 L 731.89 681.28 L 733.36 672.83 L 734.83 639.60 L 736.31 666.60 L 737.78 679.50 L 739.25 677.37 L 740.72 677.40 L 742.19 664.92 L 743.67 676.82 L 745.14 672.33 L 746.61 665.07 L 748.08 671.16 L 749.56 686.09 L 751.03 655.70 L 752.50 671.56 L 753.97 674.76 L 755.44 663.54 L 756.92 683.25 L 758.39 689.14 L 759.86 685.86 L 761.33 686.71 L 762.81 692.62 L 764.28 691.11 L 765.75 688.78 L 767.22 671.89 L 768.69 674.93 L 770.17 675.88 L 771.64 690.09 L 773.11 637.49 L 774.58 691.84 L 776.06 665.43" stroke="#FB8C00" />
<text x="90" y="711.25" font-size="14" font-weight="700">Giroscópio (magnitude) (u.a.)</text>
<rect class="event" x="443.33" y="717.25" width="67.72" height="192.75" />
<line class="eventline" x1="443.33" y1="717.25" x2="443.33" y2="910.00" />
<line class="eventline" x1="511.06" y1="717.25" x2="511.06" y2="910.00" />
<line class="grid" x1="90" y1="910.00" x2="1150" y2="910.00" />
<text class="small" x="80" y="914.00" text-anchor="end">0.00</text>
<line class="grid" x1="90" y1="871.45" x2="1150" y2="871.45" />
<text class="small" x="80" y="875.45" text-anchor="end">0.05</text>
<line class="grid" x1="90" y1="832.90" x2="1150" y2="832.90" />
<text class="small" x="80" y="836.90" text-anchor="end">0.10</text>
<line class="grid" x1="90" y1="794.35" x2="1150" y2="794.35" />
<text class="small" x="80" y="798.35" text-anchor="end">0.15</text>
<line class="grid" x1="90" y1="755.80" x2="1150" y2="755.80" />
<text class="small" x="80" y="759.80" text-anchor="end">0.20</text>
<line class="grid" x1="90" y1="717.25" x2="1150" y2="717.25" />
<text class="small" x="80" y="721.25" text-anchor="end">0.25</text>
<line class="grid" x1="90.00" y1="717.25" x2="90.00" y2="910.00" />
<line class="grid" x1="266.67" y1="717.25" x2="266.67" y2="910.00" />
<line class="grid" x1="443.33" y1="717.25" x2="443.33" y2="910.00" />
<line class="grid" x1="620.00" y1="717.25" x2="620.00" y2="910.00" />
<line class="grid" x1="796.67" y1="717.25" x2="796.67" y2="910.00" />
<line class="grid" x1="973.33" y1="717.25" x2="973.33" y2="910.00" />
<line class="grid" x1="1150.00" y1="717.25" x2="1150.00" y2="910.00" />
<line class="axis" x1="90" y1="717.25" x2="90" y2="910.00" />
<line class="axis" x1="90" y1="910.00" x2="1150" y2="910.00" />
<path class="series" d="M 178.33 891.95 L 179.81 892.37 L 181.28 901.05 L 182.75 896.86 L 184.22 893.99 L 185.69 898.33 L 187.17 895.62 L 188.64 888.84 L 190.11 897.14 L 191.58 883.87 L 193.06 896.38 L 194.53 897.25 L 196.00 891.20 L 197.47 884.38 L 198.94 887.74 L 200.42 881.67 L 201.89 882.33 L 203.36 873.38 L 204.83 884.33 L 206.31 881.70 L 207.78 890.36 L 209.25 885.71 L 210.72 886.68 L 212.19 896.07 L 213.67 895.36 L 215.14 896.45 L 216.61 884.30 L 218.08 897.39 L 219.56 884.11 L 221.03 895.62 L 222.50 898.57 L 223.97 866.44 L 225.44 831.99 L 226.92 812.72 L 228.39 812.72 L 229.86 801.84 L 231.33 816.07 L 232.81 832.71 L 234.28 838.27 L 235.75 831.24 L 237.22 852.21 L 238.69 856.56 L 240.17 854.14 L 241.64 861.06 L 243.11 863.67 L 244.58 857.50 L 246.06 875.09 L 247.53 873.32 L 249.00 871.55 L 250.47 869.87 L 251.94 866.07 L 253.42 875.26 L 254.89 866.19 L 256.36 859.22 L 257.83 871.77 L 259.31 850.96 L 260.78 875.41 L 262.25 875.99 L 263.72 885.16 L 265.19 893.64 L 266.67 884.49 L 268.14 900.71 L 269.61 885.46 L 271.08 891.08 L 272.56 888.81 L 274.03 881.96 L 275.50 871.99 L 276.97 840.47 L 278.44 832.19 L 279.92 829.47 L 281.39 835.59 L 282.86 833.62 L 284.33 824.18 L 285.81 830.37 L 287.28 835.17 L 288.75 840.47 L 290.22 850.07 L 291.69 865.24 L 293.17 878.92 L 294.64 892.03 L 296.11 906.45 L 297.58 880.30 L 299.06 853.90 L 300.53 834.87 L 302.00 845.13 L 303.47 838.62 L 304.94 843.10 L 306.42 850.17 L 307.89 859.73 L 309.36 865.69 L 310.83 876.38 L 312.31 887.04 L 313.78 890.55 L 315.25 896.50 L 316.72 895.20 L 318.19 881.91 L 319.67 865.49 L 321.14 841.33 L 322.61 824.34 L 324.08 797.08 L 325.56 787.77 L 327.03 767.06 L 328.50 795.63 L 329.97 831.96 L 331.44 862.11 L 332.92 888.95 L 334.39 874.32 L 335.86 901.40 L 337.33 908.84 L 338.81 909.19 L 340.28 908.95 L 341.75 909.05 L 343.22 908.87 L 344.69 908.64 L 346.17 908.35 L 347.64 891.90 L 349.11 895.99 L 350.58 903.82 L 352.06 903.82 L 353.53 904.66 L 355.00 894.01 L 356.47 875.94 L 357.94 880.57 L 359.42 889.26 L 360.89 901.26 L 362.36 905.42 L 363.83 906.63 L 365.31 906.22 L 366.78 904.03 L 368.25 892.85 L 369.72 893.76 L 371.19 883.05 L 372.67 880.57 L 374.14 860.31 L 375.61 824.59 L 377.08 816.72 L 378.56 832.20 L 380.03 827.42 L 381.50 817.65 L 382.97 834.35 L 384.44 848.57 L 385.92 846.04 L 387.39 871.04 L 388.86 888.22 L 390.33 906.12 L 391.81 908.64 L 393.28 898.57 L 394.75 901.41 L 396.22 902.83 L 397.69 890.68 L 399.17 874.43 L 400.64 839.47 L 402.11 832.67 L 403.58 833.03 L 405.06 841.12 L 406.53 868.53 L 408.00 861.46 L 409.47 866.88 L 410.94 865.69 L 412.42 882.56 L 413.89 879.89 L 415.36 887.51 L 416.83 892.60 L 418.31 888.12 L 419.78 894.53 L 421.25 890.27 L 422.72 893.13 L 424.19 889.67 L 425.67 908.42 L 427.14 907.90 L 428.61 897.32 L 430.08 892.66 L 431.56 887.47 L 433.03 890.82 L 434.50 898.89 L 435.97 898.96 L 437.44 896.25 L 438.92 899.09 L 440.39 900.56 L 441.86 903.49 L 443.33 906.56 L 444.81 907.32 L 446.28 909.03 L 447.75 908.35 L 449.22 909.18 L 450.69 909.24 L 452.17 909.19 L 453.64 909.09 L 455.11 908.83 L 456.58 909.35 L 458.06 909.06 L 459.53 909.28 L 461.00 909.42 L 462.47 909.08 L 463.94 909.11 L 465.42 909.38 L 466.89 909.15 L 468.36 909.25 L 469.83 909.12 L 471.31 909.04 L 472.78 909.20 L 474.25 909.28 L 475.72 909.47 L 477.19 909.47 L 478.67 909.15 L 480.14 908.92 L 481.61 909.32 L 483.08 909.57 L 484.56 909.22 L 486.03 909.38 L 487.50 908.82 L 488.97 909.26 L 490.44 909.75 L 491.92 909.30 L 493.39 908.85 L 494.86 906.76 L 496.33 909.05 L 497.81 908.22 L 499.28 906.53 L 500.75 906.04 L 502.22 906.11 L 503.69 909.08 L 505.17 909.39 L 506.64 909.36 L 508.11 909.42 L 509.58 909.24 L 511.06 888.17 L 512.53 890.59 L 514.00 904.80 L 515.47 895.65 L 516.94 905.55 L 518.42 903.65 L 519.89 905.97 L 521.36 904.77 L 522.83 898.43 L 524.31 889.17 L 525.78 903.68 L 527.25 883.62 L 528.72 873.58 L 530.19 868.64 L 531.67 846.60 L 533.14 850.40 L 534.61 852.17 L 536.08 857.81 L 537.56 889.26 L 539.03 877.98 L 540.50 877.86 L 541.97 885.12 L 543.44 897.07 L 544.92 900.83 L 546.39 896.99 L 547.86 894.15 L 549.33 882.93 L 550.81 864.47 L 552.28 861.74 L 553.75 869.61 L 555.22 883.76 L 556.69 889.55 L 558.17 894.97 L 559.64 891.48 L 561.11 884.56 L 562.58 871.01 L 564.06 885.45 L 565.53 887.55 L 567.00 883.74 L 568.47 869.38 L 569.94 871.83 L 571.42 876.04 L 572.89 872.24 L 574.36 881.17 L 575.83 886.16 L 577.31 885.08 L 578.78 893.28 L 580.25 888.18 L 581.72 894.60 L 583.19 894.25 L 584.67 899.04 L 586.14 898.04 L 587.61 894.28 L 589.08 884.40 L 590.56 892.02 L 592.03 891.84 L 593.50 900.92 L 594.97 866.84 L 596.44 867.58 L 597.92 869.37 L 599.39 864.62 L 600.86 861.38 L 602.33 878.50 L 603.81 878.50 L 605.28 895.50 L 606.75 898.15 L 608.22 888.36 L 609.69 889.31 L 611.17 877.29 L 612.64 878.72 L 614.11 856.18 L 615.58 823.71 L 617.06 802.70 L 618.53 803.30 L 620.00 802.57 L 621.47 805.99 L 622.94 820.08 L 624.42 843.97 L 625.89 866.27 L 627.36 877.50 L 628.83 876.19 L 630.31 891.59 L 631.78 883.98 L 633.25 854.11 L 634.72 857.61 L 636.19 857.73 L 637.67 854.62 L 639.14 827.82 L 640.61 815.03 L 642.08 807.15 L 643.56 814.49 L 645.03 808.56 L 646.50 863.56 L 647.97 840.26 L 649.44 821.01 L 650.92 821.82 L 652.39 811.66 L 653.86 834.28 L 655.33 838.30 L 656.81 836.58 L 658.28 837.88 L 659.75 846.71 L 661.22 846.49 L 662.69 848.22 L 664.17 870.90 L 665.64 890.42 L 667.11 896.63 L 668.58 895.89 L 670.06 876.62 L 671.53 875.64 L 673.00 891.25 L 674.47 876.70 L 675.94 886.77 L 677.42 855.05 L 678.89 866.18 L 680.36 881.15 L 681.83 884.89 L 683.31 894.91 L 684.78 892.97 L 686.25 903.74 L 687.72 890.36 L 689.19 887.87 L 690.67 884.15 L 692.14 900.27 L 693.61 881.23 L 695.08 881.54 L 696.56 889.99 L 698.03 894.00 L 699.50 886.80 L 700.97 901.99 L 702.44 891.72 L 703.92 905.61 L 705.39 900.31 L 706.86 905.70 L 708.33 881.77 L 709.81 866.41 L 711.28 883.40 L 712.75 890.59 L 714.22 888.94 L 715.69 901.29 L 717.17 889.70 L 718.64 900.20 L 720.11 893.01 L 721.58 884.68 L 723.06 896.47 L 724.53 900.76 L 726.00 901.35 L 727.47 896.47 L 728.94 896.47 L 730.42 898.93 L 731.89 900.49 L 733.36 899.53 L 734.83 862.40 L 736.31 894.21 L 737.78 901.19 L 739.25 892.83 L 740.72 892.00 L 742.19 891.67 L 743.67 881.16 L 745.14 886.96 L 746.61 888.46 L 748.08 863.11 L 749.56 860.46 L 751.03 900.81 L 752.50 896.28 L 753.97 886.88 L 755.44 871.01 L 756.92 875.61 L 758.39 880.78 L 759.86 897.04 L 761.33 903.09 L 762.81 902.14 L 764.28 902.63 L 765.75 898.29 L 767.22 899.56 L 768.69 897.01 L 770.17 896.26 L 771.64 897.83 L 773.11 901.85 L 774.58 899.82 L 776.06 886.64" stroke="#E53935" />
<text x="620.00" y="952" font-size="15" text-anchor="middle">minutos (relativo ao início do evento)</text>
<text class="small" x="90.00" y="936" text-anchor="middle">-4.00</text>
<text class="small" x="266.67" y="936" text-anchor="middle">-2.00</text>
<text class="small" x="443.33" y="936" text-anchor="middle">0.00</text>
<text class="small" x="620.00" y="936" text-anchor="middle">2.00</text>
<text class="small" x="796.67" y="936" text-anchor="middle">4.00</text>
<text class="small" x="973.33" y="936" text-anchor="middle">6.00</text>
<text class="small" x="1150.00" y="936" text-anchor="middle">8.00</text>
</svg>