<?xml version="1.0" encoding="UTF-8"?>
<svg xmlns="http://www.w3.org/2000/svg" width="1180" height="980" viewBox="0 0 1180 980">
<style>
text { font-family: -apple-system, BlinkMacSystemFont, 'Segoe UI', Roboto, Helvetica, Arial, sans-serif; fill: #111; }
.small { font-size: 12px; fill: #222; }
.title { font-size: 18px; font-weight: 700; }
.axis { stroke: #111; stroke-width: 1.4; }
.grid { stroke: #E6E6E6; stroke-width: 1; }
.event { fill: #FFEB3B; fill-opacity: 0.18; }
.eventline { stroke: #F9A825; stroke-width: 1.2; stroke-dasharray: 4 3; }
.series { fill: none; stroke-width: 1.8; }
</style>
<text class="title" x="90" y="34">ciclo 9 — basculamento — 2025-12-12T17:55:20-03:00 → 2025-12-12T17:55:55-03:00 (span 35s, dur 36s)</text>
<text class="small" x="90" y="54">GPS: -11.692605,-47.164912  hotspot: -11.693,-47.165</text>
<text class="small" x="90" y="70">Janela: -3.00 → 3.58 min (relativo ao início do evento)</text>
<text x="90" y="79.00" font-size="14" font-weight="700">Velocidade (km/h)</text>
<rect class="event" x="443.33" y="85.00" width="51.53" height="192.75" />
<line class="eventline" x1="443.33" y1="85.00" x2="443.33" y2="277.75" />
<line class="eventline" x1="494.86" y1="85.00" x2="494.86" y2="277.75" />
<line class="grid" x1="90" y1="277.75" x2="1150" y2="277.75" />
<text class="small" x="80" y="281.75" text-anchor="end">0.00</text>
<line class="grid" x1="90" y1="239.20" x2="1150" y2="239.20" />
<text class="small" x="80" y="243.20" text-anchor="end">10.0</text>
<line class="grid" x1="90" y1="200.65" x2="1150" y2="200.65" />
<text class="small" x="80" y="204.65" text-anchor="end">20.0</text>
<line class="grid" x1="90" y1="162.10" x2="1150" y2="162.10" />
<text class="small" x="80" y="166.10" text-anchor="end">30.0</text>
<line class="grid" x1="90" y1="123.55" x2="1150" y2="123.55" />
<text class="small" x="80" y="127.55" text-anchor="end">40.0</text>
<line class="grid" x1="90" y1="85.00" x2="1150" y2="85.00" />
<text class="small" x="80" y="89.00" text-anchor="end">50.0</text>
<line class="grid" x1="90.00" y1="85.00" x2="90.00" y2="277.75" />
<line class="grid" x1="266.67" y1="85.00" x2="266.67" y2="277.75" />
<line class="grid" x1="443.33" y1="85.00" x2="443.33" y2="277.75" />
<line class="grid" x1="620.00" y1="85.00" x2="620.00" y2="277.75" />
<line class="grid" x1="796.67" y1="85.00" x2="796.67" y2="277.75" />
<line class="grid" x1="973.33" y1="85.00" x2="973.33" y2="277.75" />
<line class="grid" x1="1150.00" y1="85.00" x2="1150.00" y2="277.75" />
<line class="axis" x1="90" y1="85.00" x2="90" y2="277.75" />
<line class="axis" x1="90" y1="277.75" x2="1150" y2="277.75" />
<path class="series" d="M 178.33 244.86 L 179.81 244.58 L 181.28 242.92 L 182.75 241.81 L 184.22 242.64 L 185.69 239.17 L 187.17 237.92 L 188.64 236.53 L 190.11 237.64 L 191.58 239.17 L 193.06 239.59 L 194.53 240.97 L 196.00 243.19 L 197.47 247.08 L 198.94 251.10 L 200.42 250.13 L 201.89 251.10 L 203.36 249.99 L 204.83 248.19 L 206.31 246.52 L 207.78 245.69 L 209.25 245.55 L 210.72 245.28 L 212.19 244.30 L 213.67 245.55 L 215.14 244.58 L 216.61 244.72 L 218.08 243.06 L 219.56 244.44 L 221.03 243.19 L 222.50 244.17 L 223.97 243.89 L 225.44 245.28 L 226.92 244.03 L 228.39 243.61 L 229.86 246.11 L 231.33 245.97 L 232.81 244.03 L 234.28 246.25 L 235.75 244.30 L 237.22 244.17 L 238.69 245.28 L 240.17 242.92 L 241.64 242.36 L 243.11 249.58 L 244.58 240.83 L 246.06 241.67 L 247.53 241.67 L 249.00 241.11 L 250.47 241.81 L 251.94 237.92 L 253.42 230.98 L 254.89 225.29 L 256.36 226.26 L 257.83 224.04 L 259.31 216.55 L 260.78 223.35 L 262.25 225.71 L 263.72 223.21 L 265.19 226.82 L 266.67 222.65 L 268.14 221.54 L 269.61 224.32 L 271.08 215.58 L 272.56 217.66 L 274.03 214.33 L 275.50 215.44 L 276.97 215.30 L 278.44 217.94 L 279.92 218.63 L 281.39 216.83 L 282.86 216.96 L 284.33 222.52 L 285.81 229.45 L 287.28 231.12 L 288.75 235.84 L 290.22 239.45 L 291.69 242.36 L 293.17 243.89 L 294.64 242.78 L 296.11 238.89 L 297.58 240.83 L 299.06 240.42 L 300.53 238.89 L 302.00 240.56 L 303.47 238.89 L 304.94 234.59 L 306.42 236.12 L 307.89 235.42 L 309.36 233.90 L 310.83 234.03 L 312.31 233.20 L 313.78 233.76 L 315.25 232.79 L 316.72 227.65 L 318.19 224.04 L 319.67 225.43 L 321.14 220.30 L 322.61 215.30 L 324.08 217.66 L 325.56 214.74 L 327.03 212.94 L 328.50 210.86 L 329.97 211.97 L 331.44 219.32 L 332.92 233.20 L 334.39 249.16 L 335.86 245.69 L 337.33 248.61 L 338.81 242.36 L 340.28 243.33 L 341.75 241.94 L 343.22 237.64 L 344.69 234.59 L 346.17 232.92 L 347.64 230.01 L 349.11 228.62 L 350.58 232.23 L 352.06 235.70 L 353.53 239.31 L 355.00 242.08 L 356.47 243.75 L 357.94 239.17 L 359.42 241.81 L 360.89 236.67 L 362.36 232.92 L 363.83 229.18 L 365.31 234.87 L 366.78 229.04 L 368.25 236.53 L 369.72 237.78 L 371.19 251.94 L 372.67 258.32 L 374.14 266.09 L 375.61 277.75 L 377.08 277.75 L 378.56 277.75 L 380.03 277.75 L 381.50 277.75 L 382.97 255.82 L 384.44 255.96 L 385.92 257.63 L 387.39 256.52 L 388.86 257.35 L 390.33 257.77 L 391.81 256.24 L 393.28 254.43 L 394.75 255.96 L 396.22 257.49 L 397.69 257.77 L 399.17 260.54 L 400.64 267.06 L 402.11 266.09 L 403.58 257.77 L 405.06 260.82 L 406.53 258.46 L 408.00 264.15 L 409.47 262.62 L 410.94 262.76 L 412.42 265.12 L 413.89 267.06 L 415.36 277.75 L 416.83 265.95 L 418.31 267.76 L 419.78 266.37 L 421.25 265.26 L 422.72 265.26 L 424.19 267.62 L 425.67 269.15 L 427.14 269.98 L 428.61 269.84 L 430.08 271.37 L 431.56 270.26 L 433.03 269.28 L 434.50 268.87 L 435.97 269.42 L 437.44 272.34 L 438.92 270.81 L 440.39 272.20 L 441.86 273.59 L 443.33 277.75 L 444.81 277.75 L 446.28 277.75 L 447.75 277.75 L 449.22 277.75 L 450.69 277.75 L 452.17 277.75 L 453.64 277.75 L 455.11 277.75 L 456.58 277.75 L 458.06 277.75 L 459.53 277.75 L 461.00 277.75 L 462.47 277.75 L 463.94 277.75 L 465.42 277.75 L 466.89 277.75 L 468.36 277.75 L 469.83 277.75 L 471.31 277.75 L 472.78 277.75 L 474.25 277.75 L 475.72 277.75 L 477.19 277.75 L 478.67 277.75 L 480.14 277.75 L 481.61 277.75 L 483.08 277.75 L 484.56 277.75 L 486.03 277.75 L 487.50 277.75 L 488.97 277.75 L 490.44 277.75 L 491.92 277.75 L 493.39 277.75 L 494.86 277.75 L 496.33 270.67 L 497.81 269.56 L 499.28 269.28 L 500.75 270.39 L 502.22 270.81 L 503.69 271.23 L 505.17 271.37 L 506.64 270.53 L 508.11 271.64 L 509.58 268.87 L 511.06 267.20 L 512.53 269.56 L 514.00 277.75 L 515.47 277.75 L 516.94 277.75 L 518.42 277.75 L 519.89 277.75 L 521.36 277.75 L 522.83 268.45 L 524.31 261.93 L 525.78 261.24 L 527.25 262.35 L 528.72 263.73 L 530.19 259.85 L 531.67 258.60 L 533.14 254.16 L 534.61 252.63 L 536.08 250.83 L 537.56 250.97 L 539.03 251.24 L 540.50 247.36 L 541.97 239.03 L 543.44 241.39 L 544.92 229.45 L 546.39 222.93 L 547.86 216.27 L 549.33 218.21 L 550.81 202.81 L 552.28 215.44 L 553.75 215.99 L 555.22 220.30 L 556.69 223.49 L 558.17 228.34 L 559.64 221.13 L 561.11 216.96 L 562.58 205.31 L 564.06 202.67 L 565.53 196.98 L 567.00 189.90 L 568.47 189.76 L 569.94 183.93 L 571.42 184.77 L 572.89 191.01 L 574.36 193.93 L 575.83 194.34 L 577.31 194.20 L 578.78 198.92 L 580.25 191.57 L 581.72 192.96 L 583.19 187.27 L 584.67 182.13 L 586.14 185.74 L 587.61 175.75 L 589.08 168.25 L 590.56 171.86 L 592.03 169.64 L 593.50 168.53 L 594.97 176.30 L 596.44 176.16 L 597.92 176.86 L 599.39 181.16 L 600.86 183.93 L 602.33 183.52 L 603.81 184.49 L 605.28 192.26 L 606.75 195.59 L 608.22 202.11 L 609.69 204.61 L 611.17 208.36 L 612.64 204.06 L 614.11 199.89 L 615.58 198.65 L 617.06 194.62 L 618.53 188.51 L 620.00 186.43 L 621.47 188.10 L 622.94 195.59 L 624.42 194.34 L 625.89 197.81 L 627.36 196.01 L 628.83 197.26 L 630.31 193.93 L 631.78 199.62 L 633.25 203.78 L 634.72 201.70 L 636.19 202.11 L 637.67 215.85 L 639.14 222.24 L 640.61 224.04 L 642.08 222.52 L 643.56 224.18 L 645.03 226.40 L 646.50 227.10 L 647.97 226.26 L 649.44 223.35 L 650.92 222.65 L 652.39 220.57 L 653.86 221.41 L 655.33 217.66 L 656.81 217.38 L 658.28 216.69 L 659.75 213.22 L 661.22 207.25 L 662.69 203.09 L 664.17 198.51 L 665.64 209.05 L 667.11 218.49 L 668.58 220.85 L 670.06 220.85 L 671.53 225.43 L 673.00 226.82 L 674.47 225.57 L 675.94 222.38 L 677.42 220.85 L 678.89 217.38 L 680.36 221.96 L 681.83 221.27 L 683.31 216.55 L 684.78 213.22 L 686.25 215.16 L 687.72 212.52 L 689.19 210.16 L 690.67 205.86 L 692.14 201.56 L 693.61 197.67 L 695.08 195.45 L 696.56 202.95 L 698.03 205.31 L 699.50 209.19 L 700.97 205.86 L 702.44 201.70 L 703.92 196.15 L 705.39 189.62 L 706.86 186.85 L 708.33 188.79 L 709.81 191.71 L 711.28 199.48 L 712.75 201.84 L 714.22 199.76 L 715.69 191.01 L 717.17 190.32 L 718.64 186.29 L 720.11 184.49 L 721.58 183.10 L 723.06 179.49 L 724.53 177.69 L 726.00 176.72 L 727.47 175.33 L 728.94 173.66 L 730.42 168.25 L 731.89 171.72 L 733.36 170.06 L 734.83 169.78 L 736.31 170.75 L 737.78 172.14 L 739.25 169.22 L 740.72 169.22 L 742.19 170.47 L 743.67 172.28 L 745.14 172.69 L 746.61 168.11 L 748.08 165.48 L 749.56 168.67 L 751.03 172.97 L 752.50 170.75 L 753.97 172.97 L 755.44 177.00 L 756.92 182.55 L 758.39 179.91 L 759.86 194.07" stroke="#1976D2" />
<text x="90" y="289.75" font-size="14" font-weight="700">Inclinação (graus)</text>
<rect class="event" x="443.33" y="295.75" width="51.53" height="192.75" />
<line class="eventline" x1="443.33" y1="295.75" x2="443.33" y2="488.50" />
<line class="eventline" x1="494.86" y1="295.75" x2="494.86" y2="488.50" />
<line class="grid" x1="90" y1="488.50" x2="1150" y2="488.50" />
<text class="small" x="80" y="492.50" text-anchor="end">-20.0</text>
<line class="grid" x1="90" y1="449.95" x2="1150" y2="449.95" />
<text class="small" x="80" y="453.95" text-anchor="end">-10.0</text>
<line class="grid" x1="90" y1="411.40" x2="1150" y2="411.40" />
<text class="small" x="80" y="415.40" text-anchor="end">0.00</text>
<line class="grid" x1="90" y1="372.85" x2="1150" y2="372.85" />
<text class="small" x="80" y="376.85" text-anchor="end">10.0</text>
<line class="grid" x1="90" y1="334.30" x2="1150" y2="334.30" />
<text class="small" x="80" y="338.30" text-anchor="end">20.0</text>
<line class="grid" x1="90" y1="295.75" x2="1150" y2="295.75" />
<text class="small" x="80" y="299.75" text-anchor="end">30.0</text>
<line class="grid" x1="90.00" y1="295.75" x2="90.00" y2="488.50" />
<line class="grid" x1="266.67" y1="295.75" x2="266.67" y2="488.50" />
<line class="grid" x1="443.33" y1="295.75" x2="443.33" y2="488.50" />
<line class="grid" x1="620.00" y1="295.75" x2="620.00" y2="488.50" />
<line class="grid" x1="796.67" y1="295.75" x2="796.67" y2="488.50" />
<line class="grid" x1="973.33" y1="295.75" x2="973.33" y2="488.50" />
<line class="grid" x1="1150.00" y1="295.75" x2="1150.00" y2="488.50" />
<line class="axis" x1="90" y1="295.75" x2="90" y2="488.50" />
<line class="axis" x1="90" y1="488.50" x2="1150" y2="488.50" />
<path class="series" d="M 178.33 391.20 L 179.81 389.50 L 181.28 387.38 L 182.75 382.53 L 184.22 388.87 L 185.69 390.49 L 187.17 389.75 L 188.64 388.54 L 190.11 387.86 L 191.58 388.91 L 193.06 389.60 L 194.53 389.85 L 196.00 394.20 L 197.47 389.49 L 198.94 399.72 L 200.42 396.71 L 201.89 396.58 L 203.36 396.96 L 204.83 394.82 L 206.31 393.77 L 207.78 393.45 L 209.25 393.15 L 210.72 393.15 L 212.19 392.92 L 213.67 391.48 L 215.14 392.63 L 216.61 390.00 L 218.08 388.59 L 219.56 388.07 L 221.03 388.74 L 222.50 388.76 L 223.97 390.51 L 225.44 390.96 L 226.92 391.72 L 228.39 392.57 L 229.86 392.87 L 231.33 392.04 L 232.81 393.63 L 234.28 392.65 L 235.75 392.10 L 237.22 392.36 L 238.69 392.38 L 240.17 389.47 L 241.64 386.75 L 243.11 383.47 L 244.58 390.26 L 246.06 388.38 L 247.53 384.65 L 249.00 377.78 L 250.47 380.08 L 251.94 387.36 L 253.42 384.64 L 254.89 373.85 L 256.36 373.61 L 257.83 366.93 L 259.31 363.12 L 260.78 361.93 L 262.25 363.35 L 263.72 359.23 L 265.19 376.37 L 266.67 374.58 L 268.14 375.48 L 269.61 378.29 L 271.08 377.13 L 272.56 375.45 L 274.03 374.54 L 275.50 370.13 L 276.97 368.56 L 278.44 372.69 L 279.92 373.42 L 281.39 366.81 L 282.86 361.97 L 284.33 364.79 L 285.81 368.66 L 287.28 377.39 L 288.75 375.97 L 290.22 375.92 L 291.69 386.14 L 293.17 388.76 L 294.64 391.49 L 296.11 387.67 L 297.58 390.70 L 299.06 388.63 L 300.53 386.88 L 302.00 386.68 L 303.47 387.55 L 304.94 385.86 L 306.42 385.57 L 307.89 387.65 L 309.36 382.93 L 310.83 385.03 L 312.31 385.68 L 313.78 383.95 L 315.25 378.51 L 316.72 380.67 L 318.19 370.28 L 319.67 371.07 L 321.14 374.91 L 322.61 372.24 L 324.08 361.57 L 325.56 369.69 L 327.03 365.85 L 328.50 359.45 L 329.97 363.13 L 331.44 355.05 L 332.92 338.80 L 334.39 366.64 L 335.86 368.99 L 337.33 376.28 L 338.81 382.32 L 340.28 371.38 L 341.75 379.00 L 343.22 379.89 L 344.69 378.98 L 346.17 381.11 L 347.64 374.13 L 349.11 364.64 L 350.58 364.04 L 352.06 368.88 L 353.53 361.30 L 355.00 362.22 L 356.47 370.67 L 357.94 362.95 L 359.42 368.20 L 360.89 363.46 L 362.36 357.49 L 363.83 357.89 L 365.31 350.89 L 366.78 347.06 L 368.25 341.25 L 369.72 339.91 L 371.19 346.10 L 372.67 347.89 L 374.14 345.15 L 375.61 356.05 L 377.08 356.94 L 378.56 350.79 L 380.03 354.61 L 381.50 352.25 L 382.97 354.00 L 384.44 364.19 L 385.92 359.39 L 387.39 360.28 L 388.86 359.93 L 390.33 359.73 L 391.81 361.98 L 393.28 363.50 L 394.75 363.89 L 396.22 361.59 L 397.69 370.10 L 399.17 368.81 L 400.64 368.25 L 402.11 357.11 L 403.58 369.89 L 405.06 366.24 L 406.53 383.37 L 408.00 381.62 L 409.47 383.22 L 410.94 386.26 L 412.42 392.13 L 413.89 386.65 L 415.36 386.39 L 416.83 386.32 L 418.31 382.72 L 419.78 383.96 L 421.25 383.73 L 422.72 388.29 L 424.19 388.36 L 425.67 385.94 L 427.14 382.81 L 428.61 387.87 L 430.08 379.64 L 431.56 378.96 L 433.03 379.75 L 434.50 375.61 L 435.97 379.33 L 437.44 377.00 L 438.92 370.01 L 440.39 376.70 L 441.86 382.66 L 443.33 372.75 L 444.81 372.30 L 446.28 374.26 L 447.75 371.57 L 449.22 372.72 L 450.69 372.88 L 452.17 372.81 L 453.64 372.90 L 455.11 373.11 L 456.58 372.76 L 458.06 372.07 L 459.53 372.76 L 461.00 372.54 L 462.47 372.37 L 463.94 372.35 L 465.42 372.11 L 466.89 372.59 L 468.36 372.52 L 469.83 372.31 L 471.31 372.56 L 472.78 372.50 L 474.25 372.31 L 475.72 372.67 L 477.19 372.63 L 478.67 372.83 L 480.14 372.96 L 481.61 373.13 L 483.08 372.59 L 484.56 374.19 L 486.03 373.75 L 487.50 373.49 L 488.97 374.30 L 490.44 374.30 L 491.92 374.17 L 493.39 374.35 L 494.86 380.29 L 496.33 383.17 L 497.81 382.13 L 499.28 379.78 L 500.75 381.71 L 502.22 382.80 L 503.69 384.51 L 505.17 388.74 L 506.64 388.91 L 508.11 385.91 L 509.58 392.31 L 511.06 390.11 L 512.53 382.26 L 514.00 378.89 L 515.47 383.27 L 516.94 385.38 L 518.42 386.60 L 519.89 386.33 L 521.36 396.97 L 522.83 396.11 L 524.31 391.32 L 525.78 385.85 L 527.25 388.32 L 528.72 386.51 L 530.19 395.22 L 531.67 395.45 L 533.14 377.98 L 534.61 384.73 L 536.08 372.35 L 537.56 373.21 L 539.03 369.88 L 540.50 368.71 L 541.97 378.66 L 543.44 375.22 L 544.92 382.87 L 546.39 382.39 L 547.86 378.64 L 549.33 363.70 L 550.81 362.14 L 552.28 355.96 L 553.75 358.16 L 555.22 367.07 L 556.69 351.30 L 558.17 366.42 L 559.64 371.88 L 561.11 373.22 L 562.58 373.64 L 564.06 366.92 L 565.53 367.39 L 567.00 384.87 L 568.47 375.72 L 569.94 371.76 L 571.42 375.33 L 572.89 363.76 L 574.36 352.21 L 575.83 364.13 L 577.31 353.32 L 578.78 360.87 L 580.25 356.82 L 581.72 353.85 L 583.19 349.13 L 584.67 351.11 L 586.14 355.10 L 587.61 359.73 L 589.08 358.34 L 590.56 354.34 L 592.03 359.85 L 593.50 360.02 L 594.97 362.09 L 596.44 357.90 L 597.92 358.17 L 599.39 356.07 L 600.86 359.71 L 602.33 353.71 L 603.81 369.01 L 605.28 360.20 L 606.75 362.61 L 608.22 366.37 L 609.69 354.41 L 611.17 359.27 L 612.64 368.00 L 614.11 361.68 L 615.58 357.79 L 617.06 355.94 L 618.53 354.34 L 620.00 337.80 L 621.47 340.39 L 622.94 343.94 L 624.42 339.65 L 625.89 350.87 L 627.36 343.91 L 628.83 347.42 L 630.31 342.27 L 631.78 331.58 L 633.25 335.68 L 634.72 345.54 L 636.19 331.22 L 637.67 333.63 L 639.14 342.54 L 640.61 355.45 L 642.08 352.61 L 643.56 340.16 L 645.03 345.02 L 646.50 343.09 L 647.97 350.30 L 649.44 347.16 L 650.92 342.57 L 652.39 348.78 L 653.86 345.68 L 655.33 349.05 L 656.81 352.39 L 658.28 348.28 L 659.75 350.35 L 661.22 353.61 L 662.69 351.78 L 664.17 332.04 L 665.64 326.69 L 667.11 338.59 L 668.58 345.75 L 670.06 338.69 L 671.53 346.47 L 673.00 349.35 L 674.47 347.77 L 675.94 349.13 L 677.42 346.09 L 678.89 338.34 L 680.36 347.29 L 681.83 349.07 L 683.31 349.14 L 684.78 345.90 L 686.25 346.55 L 687.72 346.21 L 689.19 350.90 L 690.67 350.51 L 692.14 351.08 L 693.61 348.34 L 695.08 332.89 L 696.56 334.82 L 698.03 343.65 L 699.50 351.13 L 700.97 354.17 L 702.44 356.35 L 703.92 355.59 L 705.39 350.78 L 706.86 344.59 L 708.33 344.93 L 709.81 333.48 L 711.28 339.08 L 712.75 346.29 L 714.22 352.74 L 715.69 342.93 L 717.17 350.97 L 718.64 347.28 L 720.11 346.27 L 721.58 353.38 L 723.06 349.93 L 724.53 351.05 L 726.00 349.04 L 727.47 350.77 L 728.94 349.72 L 730.42 348.67 L 731.89 348.91 L 733.36 343.97 L 734.83 342.90 L 736.31 342.85 L 737.78 345.00 L 739.25 340.51 L 740.72 341.43 L 742.19 339.22 L 743.67 338.31 L 745.14 346.44 L 746.61 347.01 L 748.08 342.01 L 749.56 341.07 L 751.03 340.10 L 752.50 340.10 L 753.97 338.49 L 755.44 343.20 L 756.92 341.47 L 758.39 351.04 L 759.86 350.80" stroke="#2E7D32" />
<path class="series" d="M 178.33 405.28 L 179.81 405.01 L 181.28 404.78 L 182.75 403.02 L 184.22 406.41 L 185.69 406.65 L 187.17 409.15 L 188.64 411.37 L 190.11 409.25 L 191.58 409.92 L 193.06 409.43 L 194.53 408.56 L 196.00 409.36 L 197.47 408.03 L 198.94 408.51 L 200.42 405.07 L 201.89 405.49 L 203.36 407.58 L 204.83 407.36 L 206.31 407.36 L 207.78 409.52 L 209.25 410.98 L 210.72 410.98 L 212.19 407.86 L 213.67 405.71 L 215.14 408.04 L 216.61 408.78 L 218.08 409.99 L 219.56 408.54 L 221.03 408.59 L 222.50 407.10 L 223.97 407.33 L 225.44 408.94 L 226.92 407.80 L 228.39 407.33 L 229.86 411.34 L 231.33 409.59 L 232.81 413.33 L 234.28 413.91 L 235.75 411.47 L 237.22 413.58 L 238.69 414.17 L 240.17 414.78 L 241.64 416.46 L 243.11 410.28 L 244.58 412.00 L 246.06 415.25 L 247.53 415.91 L 249.00 415.67 L 250.47 421.28 L 251.94 421.81 L 253.42 413.47 L 254.89 411.87 L 256.36 406.96 L 257.83 405.33 L 259.31 408.00 L 260.78 409.24 L 262.25 403.93 L 263.72 413.80 L 265.19 410.68 L 266.67 417.38 L 268.14 414.67 L 269.61 412.40 L 271.08 407.52 L 272.56 416.80 L 274.03 419.96 L 275.50 414.32 L 276.97 414.01 L 278.44 419.97 L 279.92 413.12 L 281.39 416.47 L 282.86 412.71 L 284.33 417.92 L 285.81 415.60 L 287.28 418.28 L 288.75 410.68 L 290.22 414.57 L 291.69 414.41 L 293.17 413.89 L 294.64 408.03 L 296.11 401.20 L 297.58 410.63 L 299.06 413.30 L 300.53 421.68 L 302.00 417.13 L 303.47 413.98 L 304.94 407.02 L 306.42 405.65 L 307.89 402.18 L 309.36 404.38 L 310.83 392.77 L 312.31 393.42 L 313.78 389.45 L 315.25 389.85 L 316.72 390.75 L 318.19 399.49 L 319.67 396.41 L 321.14 391.69 L 322.61 387.10 L 324.08 394.96 L 325.56 396.49 L 327.03 407.08 L 328.50 391.41 L 329.97 402.96 L 331.44 409.21 L 332.92 407.91 L 334.39 401.05 L 335.86 407.77 L 337.33 404.36 L 338.81 398.62 L 340.28 402.39 L 341.75 399.34 L 343.22 399.55 L 344.69 405.65 L 346.17 415.40 L 347.64 420.87 L 349.11 422.17 L 350.58 414.43 L 352.06 419.07 L 353.53 415.32 L 355.00 419.64 L 356.47 417.33 L 357.94 417.78 L 359.42 412.11 L 360.89 399.87 L 362.36 395.50 L 363.83 392.93 L 365.31 390.39 L 366.78 387.07 L 368.25 394.77 L 369.72 405.11 L 371.19 406.87 L 372.67 409.03 L 374.14 418.66 L 375.61 405.38 L 377.08 406.76 L 378.56 409.34 L 380.03 402.65 L 381.50 402.58 L 382.97 407.81 L 384.44 408.58 L 385.92 407.49 L 387.39 407.64 L 388.86 407.08 L 390.33 401.69 L 391.81 405.47 L 393.28 407.08 L 394.75 411.67 L 396.22 411.60 L 397.69 408.56 L 399.17 410.42 L 400.64 407.60 L 402.11 389.29 L 403.58 417.14 L 405.06 402.97 L 406.53 390.59 L 408.00 411.92 L 409.47 401.59 L 410.94 411.89 L 412.42 400.74 L 413.89 410.64 L 415.36 400.71 L 416.83 404.70 L 418.31 408.76 L 419.78 399.18 L 421.25 408.34 L 422.72 405.69 L 424.19 411.00 L 425.67 413.61 L 427.14 407.29 L 428.61 410.57 L 430.08 410.66 L 431.56 409.43 L 433.03 407.80 L 434.50 411.93 L 435.97 408.55 L 437.44 411.65 L 438.92 410.73 L 440.39 409.43 L 441.86 408.15 L 443.33 409.49 L 444.81 409.47 L 446.28 409.55 L 447.75 409.39 L 449.22 409.41 L 450.69 409.69 L 452.17 409.68 L 453.64 409.62 L 455.11 409.36 L 456.58 409.55 L 458.06 409.74 L 459.53 409.47 L 461.00 409.73 L 462.47 409.46 L 463.94 409.64 L 465.42 409.57 L 466.89 409.30 L 468.36 409.83 L 469.83 409.60 L 471.31 409.76 L 472.78 409.58 L 474.25 409.60 L 475.72 409.65 L 477.19 409.61 L 478.67 409.76 L 480.14 409.66 L 481.61 409.59 L 483.08 410.29 L 484.56 409.26 L 486.03 409.55 L 487.50 409.56 L 488.97 409.98 L 490.44 409.98 L 491.92 409.89 L 493.39 409.51 L 494.86 408.41 L 496.33 411.43 L 497.81 411.39 L 499.28 408.90 L 500.75 410.95 L 502.22 407.52 L 503.69 409.83 L 505.17 413.36 L 506.64 408.62 L 508.11 411.54 L 509.58 409.70 L 511.06 414.17 L 512.53 407.81 L 514.00 409.55 L 515.47 410.09 L 516.94 410.16 L 518.42 410.92 L 519.89 411.88 L 521.36 410.93 L 522.83 416.00 L 524.31 409.37 L 525.78 408.97 L 527.25 408.28 L 528.72 409.53 L 530.19 407.56 L 531.67 409.74 L 533.14 413.76 L 534.61 413.23 L 536.08 404.70 L 537.56 412.29 L 539.03 411.23 L 540.50 409.32 L 541.97 412.92 L 543.44 412.82 L 544.92 408.49 L 546.39 392.78 L 547.86 377.61 L 549.33 380.08 L 550.81 384.01 L 552.28 393.94 L 553.75 395.91 L 555.22 423.22 L 556.69 414.17 L 558.17 409.21 L 559.64 424.51 L 561.11 444.80 L 562.58 440.75 L 564.06 434.10 L 565.53 435.92 L 567.00 433.56 L 568.47 424.83 L 569.94 403.32 L 571.42 405.94 L 572.89 403.86 L 574.36 399.63 L 575.83 402.89 L 577.31 394.20 L 578.78 398.56 L 580.25 401.31 L 581.72 390.04 L 583.19 388.53 L 584.67 387.03 L 586.14 400.33 L 587.61 419.16 L 589.08 407.76 L 590.56 406.79 L 592.03 393.45 L 593.50 388.41 L 594.97 390.20 L 596.44 395.60 L 597.92 393.55 L 599.39 391.04 L 600.86 405.29 L 602.33 413.41 L 603.81 412.60 L 605.28 413.70 L 606.75 412.88 L 608.22 413.33 L 609.69 409.20 L 611.17 405.56 L 612.64 408.15 L 614.11 405.90 L 615.58 406.45 L 617.06 407.79 L 618.53 406.97 L 620.00 409.31 L 621.47 407.65 L 622.94 404.25 L 624.42 406.23 L 625.89 410.50 L 627.36 407.03 L 628.83 413.34 L 630.31 418.28 L 631.78 407.79 L 633.25 398.98 L 634.72 413.39 L 636.19 417.63 L 637.67 412.61 L 639.14 409.60 L 640.61 410.33 L 642.08 412.66 L 643.56 413.86 L 645.03 411.87 L 646.50 410.68 L 647.97 412.58 L 649.44 415.25 L 650.92 414.08 L 652.39 412.29 L 653.86 408.73 L 655.33 410.39 L 656.81 408.91 L 658.28 409.37 L 659.75 412.44 L 661.22 416.54 L 662.69 417.48 L 664.17 425.58 L 665.64 432.41 L 667.11 426.63 L 668.58 420.83 L 670.06 419.86 L 671.53 416.75 L 673.00 419.74 L 674.47 418.79 L 675.94 418.82 L 677.42 421.06 L 678.89 422.91 L 680.36 418.03 L 681.83 418.38 L 683.31 411.98 L 684.78 410.12 L 686.25 408.75 L 687.72 410.64 L 689.19 408.58 L 690.67 414.14 L 692.14 409.37 L 693.61 406.43 L 695.08 410.17 L 696.56 406.65 L 698.03 406.00 L 699.50 405.84 L 700.97 407.12 L 702.44 413.81 L 703.92 406.24 L 705.39 424.20 L 706.86 422.93 L 708.33 420.79 L 709.81 420.33 L 711.28 419.72 L 712.75 415.19 L 714.22 412.51 L 715.69 412.13 L 717.17 409.15 L 718.64 407.05 L 720.11 406.83 L 721.58 413.30 L 723.06 413.22 L 724.53 410.35 L 726.00 414.50 L 727.47 412.52 L 728.94 402.51 L 730.42 404.03 L 731.89 401.42 L 733.36 407.49 L 734.83 401.98 L 736.31 404.71 L 737.78 402.65 L 739.25 402.29 L 740.72 408.74 L 742.19 402.57 L 743.67 397.23 L 745.14 400.26 L 746.61 406.90 L 748.08 409.39 L 749.56 417.77 L 751.03 422.69 L 752.50 424.67 L 753.97 425.75 L 755.44 435.05 L 756.92 444.55 L 758.39 426.82 L 759.86 422.82" stroke="#6A1B9A" />
<line x1="900.00" y1="307.75" x2="918.00" y2="307.75" stroke="#2E7D32" stroke-width="3" />
<text class="small" x="924.00" y="311.75">pitch</text>
<line x1="900.00" y1="323.75" x2="918.00" y2="323.75" stroke="#6A1B9A" stroke-width="3" />
<text class="small" x="924.00" y="327.75">roll</text>
<text x="90" y="500.50" font-size="14" font-weight="700">Aceleração (magnitude) (u.a.)</text>
<rect class="event" x="443.33" y="506.50" width="51.53" height="192.75" />
<line class="eventline" x1="443.33" y1="506.50" x2="443.33" y2="699.25" />
<line class="eventline" x1="494.86" y1="506.50" x2="494.86" y2="699.25" />
<line class="grid" x1="90" y1="699.25" x2="1150" y2="699.25" />
<text class="small" x="80" y="703.25" text-anchor="end">0.00</text>
<line class="grid" x1="90" y1="660.70" x2="1150" y2="660.70" />
<text class="small" x="80" y="664.70" text-anchor="end">0.50</text>
<line class="grid" x1="90" y1="622.15" x2="1150" y2="622.15" />
<text class="small" x="80" y="626.15" text-anchor="end">1.00</text>
<line class="grid" x1="90" y1="583.60" x2="1150" y2="583.60" />
<text class="small" x="80" y="587.60" text-anchor="end">1.50</text>
<line class="grid" x1="90" y1="545.05" x2="1150" y2="545.05" />
<text class="small" x="80" y="549.05" text-anchor="end">2.00</text>
<line class="grid" x1="90" y1="506.50" x2="1150" y2="506.50" />
<text class="small" x="80" y="510.50" text-anchor="end">2.50</text>
<line class="grid" x1="90.00" y1="506.50" x2="90.00" y2="699.25" />
<line class="grid" x1="266.67" y1="506.50" x2="266.67" y2="699.25" />
<line class="grid" x1="443.33" y1="506.50" x2="443.33" y2="699.25" />
<line class="grid" x1="620.00" y1="506.50" x2="620.00" y2="699.25" />
<line class="grid" x1="796.67" y1="506.50" x2="796.67" y2="699.25" />
<line class="grid" x1="973.33" y1="506.50" x2="973.33" y2="699.25" />
<line class="grid" x1="1150.00" y1="506.50" x2="1150.00" y2="699.25" />
<line class="axis" x1="90" y1="506.50" x2="90" y2="699.25" />
<line class="axis" x1="90" y1="699.25" x2="1150" y2="699.25" />
<path class="series" d="M 178.33 690.11 L 179.81 694.06 L 181.28 694.81 L 182.75 696.14 L 184.22 689.29 L 185.69 685.38 L 187.17 686.13 L 188.64 691.03 L 190.11 693.79 L 191.58 684.20 L 193.06 690.69 L 194.53 678.25 L 196.00 691.57 L 197.47 682.19 L 198.94 670.57 L 200.42 675.78 L 201.89 682.86 L 203.36 684.26 L 204.83 688.72 L 206.31 690.79 L 207.78 692.16 L 209.25 692.75 L 210.72 689.89 L 212.19 698.18 L 213.67 695.49 L 215.14 695.27 L 216.61 684.88 L 218.08 696.59 L 219.56 685.35 L 221.03 694.98 L 222.50 694.00 L 223.97 683.52 L 225.44 696.43 L 226.92 694.56 L 228.39 691.80 L 229.86 691.01 L 231.33 691.37 L 232.81 694.29 L 234.28 691.31 L 235.75 681.72 L 237.22 693.38 L 238.69 682.88 L 240.17 687.35 L 241.64 694.52 L 243.11 691.68 L 244.58 687.42 L 246.06 690.19 L 247.53 676.90 L 249.00 677.72 L 250.47 683.96 L 251.94 672.88 L 253.42 674.34 L 254.89 685.52 L 256.36 659.56 L 257.83 683.50 L 259.31 665.04 L 260.78 680.05 L 262.25 665.93 L 263.72 682.46 L 265.19 688.57 L 266.67 684.32 L 268.14 679.06 L 269.61 673.18 L 271.08 678.15 L 272.56 687.59 L 274.03 681.59 L 275.50 679.10 L 276.97 676.35 L 278.44 676.69 L 279.92 675.36 L 281.39 657.61 L 282.86 652.78 L 284.33 663.65 L 285.81 666.12 L 287.28 662.82 L 288.75 670.51 L 290.22 667.36 L 291.69 669.59 L 293.17 673.24 L 294.64 666.08 L 296.11 676.96 L 297.58 677.47 L 299.06 690.89 L 300.53 669.12 L 302.00 679.02 L 303.47 671.46 L 304.94 682.15 L 306.42 682.41 L 307.89 688.28 L 309.36 685.35 L 310.83 682.86 L 312.31 670.64 L 313.78 690.24 L 315.25 655.53 L 316.72 680.38 L 318.19 666.63 L 319.67 674.19 L 321.14 663.81 L 322.61 671.79 L 324.08 665.95 L 325.56 679.62 L 327.03 679.88 L 328.50 636.25 L 329.97 657.21 L 331.44 607.36 L 332.92 639.27 L 334.39 672.68 L 335.86 686.43 L 337.33 655.96 L 338.81 677.22 L 340.28 677.22 L 341.75 680.93 L 343.22 680.22 L 344.69 683.64 L 346.17 668.13 L 347.64 662.64 L 349.11 673.30 L 350.58 644.76 L 352.06 661.73 L 353.53 673.89 L 355.00 667.66 L 356.47 678.30 L 357.94 674.20 L 359.42 672.78 L 360.89 656.26 L 362.36 644.08 L 363.83 651.15 L 365.31 648.07 L 366.78 652.59 L 368.25 643.45 L 369.72 636.30 L 371.19 638.41 L 372.67 644.06 L 374.14 655.37 L 375.61 673.21 L 377.08 651.26 L 378.56 695.32 L 380.03 685.41 L 381.50 680.67 L 382.97 689.60 L 384.44 667.63 L 385.92 682.91 L 387.39 690.67 L 388.86 685.20 L 390.33 683.96 L 391.81 691.43 L 393.28 693.80 L 394.75 677.57 L 396.22 686.89 L 397.69 676.87 L 399.17 670.12 L 400.64 678.63 L 402.11 653.30 L 403.58 682.14 L 405.06 667.12 L 406.53 658.39 L 408.00 679.89 L 409.47 668.88 L 410.94 684.83 L 412.42 677.43 L 413.89 686.65 L 415.36 679.82 L 416.83 692.35 L 418.31 685.86 L 419.78 673.60 L 421.25 684.02 L 422.72 690.28 L 424.19 680.01 L 425.67 694.24 L 427.14 689.68 L 428.61 690.05 L 430.08 687.78 L 431.56 695.14 L 433.03 692.47 L 434.50 694.25 L 435.97 691.35 L 437.44 690.69 L 438.92 673.57 L 440.39 694.06 L 441.86 678.97 L 443.33 692.08 L 444.81 696.31 L 446.28 694.05 L 447.75 697.43 L 449.22 696.58 L 450.69 698.22 L 452.17 698.25 L 453.64 698.30 L 455.11 698.09 L 456.58 698.02 L 458.06 696.77 L 459.53 697.32 L 461.00 697.84 L 462.47 698.15 L 463.94 698.89 L 465.42 698.25 L 466.89 696.74 L 468.36 693.19 L 469.83 698.21 L 471.31 697.89 L 472.78 698.97 L 474.25 697.71 L 475.72 698.22 L 477.19 698.46 L 478.67 698.55 L 480.14 698.67 L 481.61 698.30 L 483.08 683.61 L 484.56 685.45 L 486.03 697.13 L 487.50 692.26 L 488.97 696.06 L 490.44 697.85 L 491.92 696.86 L 493.39 686.63 L 494.86 679.04 L 496.33 692.32 L 497.81 697.78 L 499.28 692.36 L 500.75 693.12 L 502.22 695.02 L 503.69 693.36 L 505.17 692.57 L 506.64 692.57 L 508.11 692.64 L 509.58 675.18 L 511.06 694.99 L 512.53 673.12 L 514.00 673.65 L 515.47 693.27 L 516.94 691.75 L 518.42 693.17 L 519.89 695.65 L 521.36 665.96 L 522.83 675.00 L 524.31 691.00 L 525.78 683.44 L 527.25 685.46 L 528.72 689.07 L 530.19 684.98 L 531.67 674.68 L 533.14 672.02 L 534.61 685.73 L 536.08 672.43 L 537.56 683.42 L 539.03 688.16 L 540.50 692.14 L 541.97 663.63 L 543.44 680.64 L 544.92 674.00 L 546.39 648.03 L 547.86 617.85 L 549.33 615.39 L 550.81 615.03 L 552.28 657.75 L 553.75 674.87 L 555.22 616.13 L 556.69 624.45 L 558.17 682.54 L 559.64 642.14 L 561.11 628.60 L 562.58 658.36 L 564.06 677.21 L 565.53 633.67 L 567.00 655.27 L 568.47 668.75 L 569.94 607.19 L 571.42 655.11 L 572.89 641.20 L 574.36 643.23 L 575.83 652.79 L 577.31 631.38 L 578.78 653.96 L 580.25 650.26 L 581.72 626.15 L 583.19 648.92 L 584.67 648.47 L 586.14 660.12 L 587.61 663.73 L 589.08 691.48 L 590.56 671.88 L 592.03 615.49 L 593.50 655.49 L 594.97 654.25 L 596.44 656.31 L 597.92 669.76 L 599.39 669.70 L 600.86 674.22 L 602.33 627.93 L 603.81 634.28 L 605.28 673.01 L 606.75 660.82 L 608.22 667.21 L 609.69 676.73 L 611.17 665.86 L 612.64 659.96 L 614.11 673.72 L 615.58 672.64 L 617.06 670.95 L 618.53 677.52 L 620.00 662.54 L 621.47 667.79 L 622.94 682.09 L 624.42 676.68 L 625.89 685.16 L 627.36 685.07 L 628.83 668.06 L 630.31 669.73 L 631.78 648.79 L 633.25 679.66 L 634.72 681.37 L 636.19 635.47 L 637.67 684.00 L 639.14 677.96 L 640.61 671.30 L 642.08 685.20 L 643.56 686.04 L 645.03 676.68 L 646.50 687.88 L 647.97 669.03 L 649.44 687.90 L 650.92 685.93 L 652.39 684.46 L 653.86 670.09 L 655.33 670.14 L 656.81 690.91 L 658.28 685.33 L 659.75 671.63 L 661.22 676.91 L 662.69 684.91 L 664.17 624.89 L 665.64 654.28 L 667.11 677.16 L 668.58 676.63 L 670.06 664.26 L 671.53 661.63 L 673.00 661.63 L 674.47 673.37 L 675.94 672.97 L 677.42 677.41 L 678.89 681.08 L 680.36 670.96 L 681.83 680.01 L 683.31 675.96 L 684.78 669.38 L 686.25 685.14 L 687.72 667.17 L 689.19 682.83 L 690.67 675.58 L 692.14 684.75 L 693.61 671.71 L 695.08 666.66 L 696.56 641.75 L 698.03 684.41 L 699.50 685.88 L 700.97 670.32 L 702.44 672.15 L 703.92 656.32 L 705.39 664.12 L 706.86 680.45 L 708.33 675.69 L 709.81 678.99 L 711.28 650.45 L 712.75 677.82 L 714.22 659.51 L 715.69 647.83 L 717.17 672.53 L 718.64 676.38 L 720.11 682.45 L 721.58 672.67 L 723.06 679.99 L 724.53 689.98 L 726.00 688.03 L 727.47 684.72 L 728.94 656.24 L 730.42 669.61 L 731.89 678.58 L 733.36 691.69 L 734.83 686.98 L 736.31 689.25 L 737.78 679.33 L 739.25 685.72 L 740.72 690.53 L 742.19 687.18 L 743.67 688.03 L 745.14 683.59 L 746.61 676.35 L 748.08 677.91 L 749.56 682.61 L 751.03 660.64 L 752.50 687.04 L 753.97 643.50 L 755.44 663.57 L 756.92 616.91 L 758.39 637.42 L 759.86 667.88" stroke="#FB8C00" />
<text x="90" y="711.25" font-size="14" font-weight="700">Giroscópio (magnitude) (u.a.)</text>
<rect class="event" x="443.33" y="717.25" width="51.53" height="192.75" />
<line class="eventline" x1="443.33" y1="717.25" x2="443.33" y2="910.00" />
<line class="eventline" x1="494.86" y1="717.25" x2="494.86" y2="910.00" />
<line class="grid" x1="90" y1="910.00" x2="1150" y2="910.00" />
<text class="small" x="80" y="914.00" text-anchor="end">0.00</text>
<line class="grid" x1="90" y1="871.45" x2="1150" y2="871.45" />
<text class="small" x="80" y="875.45" text-anchor="end">0.10</text>
<line class="grid" x1="90" y1="832.90" x2="1150" y2="832.90" />
<text class="small" x="80" y="836.90" text-anchor="end">0.20</text>
<line class="grid" x1="90" y1="794.35" x2="1150" y2="794.35" />
<text class="small" x="80" y="798.35" text-anchor="end">0.30</text>
<line class="grid" x1="90" y1="755.80" x2="1150" y2="755.80" />
<text class="small" x="80" y="759.80" text-anchor="end">0.40</text>
<line class="grid" x1="90" y1="717.25" x2="1150" y2="717.25" />
<text class="small" x="80" y="721.25" text-anchor="end">0.50</text>
<line class="grid" x1="90.00" y1="717.25" x2="90.00" y2="910.00" />
<line class="grid" x1="266.67" y1="717.25" x2="266.67" y2="910.00" />
<line class="grid" x1="443.33" y1="717.25" x2="443.33" y2="910.00" />
<line class="grid" x1="620.00" y1="717.25" x2="620.00" y2="910.00" />
<line class="grid" x1="796.67" y1="717.25" x2="796.67" y2="910.00" />
<line class="grid" x1="973.33" y1="717.25" x2="973.33" y2="910.00" />
<line class="grid" x1="1150.00" y1="717.25" x2="1150.00" y2="910.00" />
<line class="axis" x1="90" y1="717.25" x2="90" y2="910.00" />
<line class="axis" x1="90" y1="910.00" x2="1150" y2="910.00" />
<path class="series" d="M 178.33 905.67 L 179.81 905.52 L 181.28 905.22 L 182.75 903.88 L 184.22 905.30 L 185.69 905.08 L 187.17 900.71 L 188.64 907.69 L 190.11 908.28 L 191.58 907.64 L 193.06 908.83 L 194.53 905.09 L 196.00 903.20 L 197.47 906.10 L 198.94 906.56 L 200.42 905.69 L 201.89 905.94 L 203.36 907.12 L 204.83 905.99 L 206.31 905.26 L 207.78 905.91 L 209.25 906.32 L 210.72 905.59 L 212.19 907.06 L 213.67 906.85 L 215.14 903.78 L 216.61 904.77 L 218.08 904.79 L 219.56 904.50 L 221.03 903.33 L 222.50 904.09 L 223.97 904.17 L 225.44 902.27 L 226.92 905.61 L 228.39 904.42 L 229.86 903.31 L 231.33 903.16 L 232.81 902.82 L 234.28 905.15 L 235.75 905.34 L 237.22 903.21 L 238.69 900.52 L 240.17 900.22 L 241.64 900.37 L 243.11 902.22 L 244.58 901.22 L 246.06 899.78 L 247.53 902.32 L 249.00 903.70 L 250.47 906.04 L 251.94 901.94 L 253.42 898.74 L 254.89 894.71 L 256.36 907.99 L 257.83 907.19 L 259.31 903.57 L 260.78 902.81 L 262.25 900.34 L 263.72 901.75 L 265.19 893.81 L 266.67 898.86 L 268.14 899.70 L 269.61 894.51 L 271.08 892.01 L 272.56 875.88 L 274.03 877.60 L 275.50 876.79 L 276.97 873.44 L 278.44 880.19 L 279.92 878.81 L 281.39 887.74 L 282.86 887.22 L 284.33 891.92 L 285.81 883.35 L 287.28 891.57 L 288.75 895.14 L 290.22 895.78 L 291.69 897.24 L 293.17 898.95 L 294.64 896.55 L 296.11 897.21 L 297.58 893.86 L 299.06 877.35 L 300.53 879.80 L 302.00 879.52 L 303.47 880.89 L 304.94 879.19 L 306.42 870.81 L 307.89 880.07 L 309.36 880.29 L 310.83 879.99 L 312.31 897.28 L 313.78 895.40 L 315.25 897.04 L 316.72 900.77 L 318.19 907.92 L 319.67 905.57 L 321.14 896.75 L 322.61 891.34 L 324.08 891.53 L 325.56 892.10 L 327.03 886.53 L 328.50 892.12 L 329.97 891.76 L 331.44 899.86 L 332.92 886.09 L 334.39 883.00 L 335.86 884.13 L 337.33 884.95 L 338.81 885.87 L 340.28 885.87 L 341.75 888.88 L 343.22 876.17 L 344.69 876.93 L 346.17 892.83 L 347.64 901.95 L 349.11 896.47 L 350.58 890.14 L 352.06 891.85 L 353.53 897.31 L 355.00 896.18 L 356.47 894.14 L 357.94 890.37 L 359.42 894.83 L 360.89 901.38 L 362.36 868.87 L 363.83 845.03 L 365.31 824.48 L 366.78 811.56 L 368.25 805.59 L 369.72 815.30 L 371.19 839.44 L 372.67 860.42 L 374.14 880.83 L 375.61 906.69 L 377.08 909.07 L 378.56 901.80 L 380.03 896.16 L 381.50 904.30 L 382.97 906.53 L 384.44 904.49 L 385.92 905.36 L 387.39 903.91 L 388.86 898.93 L 390.33 889.58 L 391.81 875.82 L 393.28 861.79 L 394.75 856.60 L 396.22 863.65 L 397.69 863.30 L 399.17 868.79 L 400.64 886.81 L 402.11 881.68 L 403.58 869.30 L 405.06 878.15 L 406.53 880.26 L 408.00 878.11 L 409.47 879.43 L 410.94 891.58 L 412.42 896.50 L 413.89 902.36 L 415.36 904.42 L 416.83 900.77 L 418.31 905.89 L 419.78 901.37 L 421.25 901.58 L 422.72 900.09 L 424.19 902.08 L 425.67 906.23 L 427.14 905.34 L 428.61 905.84 L 430.08 906.89 L 431.56 906.12 L 433.03 905.95 L 434.50 906.43 L 435.97 906.72 L 437.44 906.94 L 438.92 906.50 L 440.39 907.08 L 441.86 908.53 L 443.33 908.48 L 444.81 907.86 L 446.28 908.83 L 447.75 908.41 L 449.22 909.39 L 450.69 909.10 L 452.17 909.00 L 453.64 909.01 L 455.11 909.20 L 456.58 908.99 L 458.06 909.07 L 459.53 908.91 L 461.00 909.11 L 462.47 908.96 L 463.94 909.11 L 465.42 909.11 L 466.89 908.89 L 468.36 909.13 L 469.83 909.09 L 471.31 909.14 L 472.78 909.10 L 474.25 909.02 L 475.72 909.08 L 477.19 909.14 L 478.67 909.17 L 480.14 909.19 L 481.61 909.23 L 483.08 909.20 L 484.56 908.72 L 486.03 909.10 L 487.50 909.26 L 488.97 909.04 L 490.44 909.13 L 491.92 908.96 L 493.39 907.59 L 494.86 903.76 L 496.33 904.58 L 497.81 905.31 L 499.28 905.69 L 500.75 906.39 L 502.22 905.33 L 503.69 905.71 L 505.17 906.59 L 506.64 906.59 L 508.11 906.88 L 509.58 907.94 L 511.06 906.64 L 512.53 906.25 L 514.00 904.36 L 515.47 908.72 L 516.94 908.85 L 518.42 908.78 L 519.89 909.04 L 521.36 906.71 L 522.83 899.82 L 524.31 893.33 L 525.78 897.13 L 527.25 895.96 L 528.72 902.28 L 530.19 897.33 L 531.67 896.00 L 533.14 890.44 L 534.61 891.81 L 536.08 892.63 L 537.56 890.86 L 539.03 891.29 L 540.50 888.71 L 541.97 887.05 L 543.44 882.93 L 544.92 883.13 L 546.39 902.60 L 547.86 873.62 L 549.33 840.02 L 550.81 835.16 L 552.28 846.19 L 553.75 859.64 L 555.22 901.33 L 556.69 900.81 L 558.17 888.23 L 559.64 882.99 L 561.11 854.48 L 562.58 831.27 L 564.06 841.80 L 565.53 855.29 L 567.00 857.77 L 568.47 857.74 L 569.94 886.44 L 571.42 897.47 L 572.89 894.76 L 574.36 886.57 L 575.83 887.57 L 577.31 877.20 L 578.78 865.11 L 580.25 860.21 L 581.72 848.80 L 583.19 848.33 L 584.67 841.80 L 586.14 862.15 L 587.61 896.58 L 589.08 897.16 L 590.56 880.35 L 592.03 878.34 L 593.50 878.66 L 594.97 863.54 L 596.44 863.51 L 597.92 859.31 L 599.39 865.14 L 600.86 874.08 L 602.33 885.13 L 603.81 903.35 L 605.28 904.20 L 606.75 893.79 L 608.22 891.77 L 609.69 891.40 L 611.17 904.58 L 612.64 904.38 L 614.11 902.65 L 615.58 897.06 L 617.06 897.57 L 618.53 890.81 L 620.00 893.17 L 621.47 891.82 L 622.94 892.48 L 624.42 898.30 L 625.89 905.75 L 627.36 905.29 L 628.83 903.65 L 630.31 895.39 L 631.78 896.66 L 633.25 892.90 L 634.72 902.37 L 636.19 901.38 L 637.67 906.73 L 639.14 900.84 L 640.61 904.22 L 642.08 897.38 L 643.56 897.34 L 645.03 897.02 L 646.50 898.00 L 647.97 903.06 L 649.44 908.19 L 650.92 904.80 L 652.39 905.07 L 653.86 902.85 L 655.33 905.75 L 656.81 901.55 L 658.28 898.99 L 659.75 898.96 L 661.22 899.60 L 662.69 901.87 L 664.17 898.08 L 665.64 895.76 L 667.11 892.81 L 668.58 886.90 L 670.06 891.75 L 671.53 891.79 L 673.00 891.79 L 674.47 890.95 L 675.94 898.59 L 677.42 904.38 L 678.89 904.19 L 680.36 907.33 L 681.83 899.60 L 683.31 901.36 L 684.78 897.66 L 686.25 899.85 L 687.72 899.90 L 689.19 900.32 L 690.67 900.52 L 692.14 900.43 L 693.61 902.26 L 695.08 903.69 L 696.56 903.88 L 698.03 905.61 L 699.50 906.55 L 700.97 906.52 L 702.44 904.61 L 703.92 901.80 L 705.39 903.16 L 706.86 890.07 L 708.33 896.49 L 709.81 901.26 L 711.28 906.47 L 712.75 903.24 L 714.22 904.99 L 715.69 898.33 L 717.17 896.31 L 718.64 896.33 L 720.11 901.82 L 721.58 895.21 L 723.06 891.37 L 724.53 892.01 L 726.00 904.71 L 727.47 906.06 L 728.94 903.24 L 730.42 892.86 L 731.89 892.52 L 733.36 893.37 L 734.83 903.15 L 736.31 904.35 L 737.78 907.41 L 739.25 906.24 L 740.72 903.64 L 742.19 905.59 L 743.67 899.79 L 745.14 901.76 L 746.61 902.69 L 748.08 902.27 L 749.56 897.24 L 751.03 889.63 L 752.50 885.17 L 753.97 870.39 L 755.44 865.24 L 756.92 850.26 L 758.39 853.93 L 759.86 860.38" stroke="#E53935" />
<text x="620.00" y="952" font-size="15" text-anchor="middle">minutos (relativo ao início do evento)</text>
<text class="small" x="90.00" y="936" text-anchor="middle">-4.00</text>
<text class="small" x="266.67" y="936" text-anchor="middle">-2.00</text>
<text class="small" x="443.33" y="936" text-anchor="middle">0.00</text>
<text class="small" x="620.00" y="936" text-anchor="middle">2.00</text>
<text class="small" x="796.67" y="936" text-anchor="middle">4.00</text>
<text class="small" x="973.33" y="936" text-anchor="middle">6.00</text>
<text class="small" x="1150.00" y="936" text-anchor="middle">8.00</text>
</svg>