<?xml version="1.0" encoding="UTF-8"?>
<svg xmlns="http://www.w3.org/2000/svg" width="1180" height="980" viewBox="0 0 1180 980">
<style>
text { font-family: -apple-system, BlinkMacSystemFont, 'Segoe UI', Roboto, Helvetica, Arial, sans-serif; fill: #111; }
.small { font-size: 12px; fill: #222; }
.title { font-size: 18px; font-weight: 700; }
.axis { stroke: #111; stroke-width: 1.4; }
.grid { stroke: #E6E6E6; stroke-width: 1; }
.event { fill: #FFEB3B; fill-opacity: 0.18; }
.eventline { stroke: #F9A825; stroke-width: 1.2; stroke-dasharray: 4 3; }
.series { fill: none; stroke-width: 1.8; }
</style>
<text class="title" x="90" y="34">ciclo 3 — espera_carregamento — 2025-12-12T14:57:03-03:00 → 2025-12-12T14:57:17-03:00 (span 14s, dur 15s)</text>
<text class="small" x="90" y="54">GPS: -11.699268,-47.157556  hotspot: -11.699,-47.158</text>
<text class="small" x="90" y="70">Janela: -3.00 → 3.23 min (relativo ao início do evento)</text>
<text x="90" y="79.00" font-size="14" font-weight="700">Velocidade (km/h)</text>
<rect class="event" x="443.33" y="85.00" width="20.61" height="192.75" />
<line class="eventline" x1="443.33" y1="85.00" x2="443.33" y2="277.75" />
<line class="eventline" x1="463.94" y1="85.00" x2="463.94" y2="277.75" />
<line class="grid" x1="90" y1="277.75" x2="1150" y2="277.75" />
<text class="small" x="80" y="281.75" text-anchor="end">0.00</text>
<line class="grid" x1="90" y1="239.20" x2="1150" y2="239.20" />
<text class="small" x="80" y="243.20" text-anchor="end">10.0</text>
<line class="grid" x1="90" y1="200.65" x2="1150" y2="200.65" />
<text class="small" x="80" y="204.65" text-anchor="end">20.0</text>
<line class="grid" x1="90" y1="162.10" x2="1150" y2="162.10" />
<text class="small" x="80" y="166.10" text-anchor="end">30.0</text>
<line class="grid" x1="90" y1="123.55" x2="1150" y2="123.55" />
<text class="small" x="80" y="127.55" text-anchor="end">40.0</text>
<line class="grid" x1="90" y1="85.00" x2="1150" y2="85.00" />
<text class="small" x="80" y="89.00" text-anchor="end">50.0</text>
<line class="grid" x1="90.00" y1="85.00" x2="90.00" y2="277.75" />
<line class="grid" x1="266.67" y1="85.00" x2="266.67" y2="277.75" />
<line class="grid" x1="443.33" y1="85.00" x2="443.33" y2="277.75" />
<line class="grid" x1="620.00" y1="85.00" x2="620.00" y2="277.75" />
<line class="grid" x1="796.67" y1="85.00" x2="796.67" y2="277.75" />
<line class="grid" x1="973.33" y1="85.00" x2="973.33" y2="277.75" />
<line class="grid" x1="1150.00" y1="85.00" x2="1150.00" y2="277.75" />
<line class="axis" x1="90" y1="85.00" x2="90" y2="277.75" />
<line class="axis" x1="90" y1="277.75" x2="1150" y2="277.75" />
<path class="series" d="M 178.33 162.29 L 179.81 162.84 L 181.28 161.31 L 182.75 158.54 L 184.22 155.21 L 185.69 150.91 L 187.17 147.99 L 188.64 145.35 L 190.11 146.19 L 191.58 142.86 L 193.06 146.46 L 194.53 147.16 L 196.00 148.68 L 197.47 150.07 L 198.94 152.29 L 200.42 154.79 L 201.89 152.29 L 203.36 150.21 L 204.83 152.57 L 206.31 153.82 L 207.78 153.68 L 209.25 152.99 L 210.72 154.37 L 212.19 157.29 L 213.67 159.09 L 215.14 162.01 L 216.61 162.15 L 218.08 163.40 L 219.56 163.81 L 221.03 170.47 L 222.50 169.64 L 223.97 166.17 L 225.44 169.09 L 226.92 170.89 L 228.39 165.89 L 229.86 169.36 L 231.33 168.67 L 232.81 166.31 L 234.28 161.87 L 235.75 167.70 L 237.22 167.14 L 238.69 169.92 L 240.17 170.47 L 241.64 175.19 L 243.11 178.38 L 244.58 178.94 L 246.06 179.22 L 247.53 190.73 L 249.00 188.24 L 250.47 183.24 L 251.94 183.66 L 253.42 184.35 L 254.89 185.18 L 256.36 187.54 L 257.83 195.73 L 259.31 199.76 L 260.78 200.59 L 262.25 202.39 L 263.72 200.87 L 265.19 200.31 L 266.67 196.42 L 268.14 191.71 L 269.61 187.27 L 271.08 182.27 L 272.56 180.74 L 274.03 180.88 L 275.50 177.55 L 276.97 174.08 L 278.44 175.33 L 279.92 176.58 L 281.39 174.36 L 282.86 170.20 L 284.33 172.00 L 285.81 173.25 L 287.28 177.97 L 288.75 178.94 L 290.22 181.58 L 291.69 182.96 L 293.17 188.65 L 294.64 188.65 L 296.11 190.60 L 297.58 194.62 L 299.06 202.25 L 300.53 201.28 L 302.00 190.73 L 303.47 189.90 L 304.94 191.57 L 306.42 191.85 L 307.89 193.09 L 309.36 188.24 L 310.83 184.21 L 312.31 175.61 L 313.78 171.72 L 315.25 174.64 L 316.72 175.33 L 318.19 182.41 L 319.67 188.79 L 321.14 189.76 L 322.61 186.99 L 324.08 182.82 L 325.56 180.33 L 327.03 178.52 L 328.50 178.66 L 329.97 178.66 L 331.44 181.02 L 332.92 178.52 L 334.39 174.08 L 335.86 170.33 L 337.33 170.20 L 338.81 177.41 L 340.28 178.66 L 341.75 179.91 L 343.22 186.43 L 344.69 186.57 L 346.17 185.04 L 347.64 184.07 L 349.11 187.40 L 350.58 189.35 L 352.06 190.73 L 353.53 190.60 L 355.00 200.31 L 356.47 204.20 L 357.94 211.55 L 359.42 234.17 L 360.89 236.81 L 362.36 235.14 L 363.83 231.26 L 365.31 232.65 L 366.78 222.65 L 368.25 239.86 L 369.72 239.72 L 371.19 241.39 L 372.67 242.36 L 374.14 243.75 L 375.61 238.48 L 377.08 243.47 L 378.56 238.48 L 380.03 242.92 L 381.50 242.08 L 382.97 241.67 L 384.44 241.11 L 385.92 248.33 L 387.39 240.00 L 388.86 236.95 L 390.33 234.73 L 391.81 234.59 L 393.28 231.95 L 394.75 239.45 L 396.22 242.78 L 397.69 257.77 L 399.17 254.71 L 400.64 260.68 L 402.11 274.84 L 403.58 277.75 L 405.06 277.75 L 406.53 277.75 L 408.00 277.75 L 409.47 264.01 L 410.94 258.88 L 412.42 260.40 L 413.89 259.43 L 415.36 258.74 L 416.83 256.66 L 418.31 258.18 L 419.78 259.29 L 421.25 260.68 L 422.72 260.96 L 424.19 259.71 L 425.67 260.26 L 427.14 263.18 L 428.61 266.93 L 430.08 269.15 L 431.56 271.50 L 433.03 270.67 L 434.50 271.50 L 435.97 271.09 L 437.44 271.50 L 438.92 271.64 L 440.39 270.67 L 441.86 271.64 L 443.33 277.75 L 444.81 277.75 L 446.28 277.75 L 447.75 277.75 L 449.22 277.75 L 450.69 277.75 L 452.17 277.75 L 453.64 277.75 L 455.11 277.75 L 456.58 277.75 L 458.06 277.75 L 459.53 277.75 L 461.00 277.75 L 462.47 277.75 L 463.94 277.75 L 465.42 269.98 L 466.89 272.06 L 468.36 272.89 L 469.83 270.81 L 471.31 270.81 L 472.78 268.73 L 474.25 267.34 L 475.72 268.87 L 477.19 269.15 L 478.67 269.70 L 480.14 271.23 L 481.61 277.75 L 483.08 277.75 L 484.56 277.75 L 486.03 277.75 L 487.50 277.75 L 488.97 277.75 L 490.44 277.75 L 491.92 277.75 L 493.39 277.75 L 494.86 277.75 L 496.33 277.75 L 497.81 277.75 L 499.28 277.75 L 500.75 277.75 L 502.22 277.75 L 503.69 277.75 L 505.17 277.75 L 506.64 277.75 L 508.11 277.75 L 509.58 277.75 L 511.06 277.75 L 512.53 277.75 L 514.00 277.75 L 515.47 277.75 L 516.94 277.75 L 518.42 277.75 L 519.89 277.75 L 521.36 277.75 L 522.83 277.75 L 524.31 277.75 L 525.78 277.75 L 527.25 277.75 L 528.72 277.75 L 530.19 277.75 L 531.67 277.75 L 533.14 277.75 L 534.61 277.75 L 536.08 277.75 L 537.56 277.75 L 539.03 277.75 L 540.50 277.75 L 541.97 277.75 L 543.44 277.75 L 544.92 277.75 L 546.39 277.75 L 547.86 277.75 L 549.33 277.75 L 550.81 277.75 L 552.28 277.75 L 553.75 277.75 L 555.22 277.75 L 556.69 277.75 L 558.17 277.75 L 559.64 277.75 L 561.11 277.75 L 562.58 277.75 L 564.06 277.75 L 565.53 277.75 L 567.00 277.75 L 568.47 277.75 L 569.94 277.75 L 571.42 277.75 L 572.89 277.75 L 574.36 277.75 L 575.83 277.75 L 577.31 277.75 L 578.78 277.75 L 580.25 277.75 L 581.72 277.75 L 583.19 277.75 L 584.67 277.75 L 586.14 277.75 L 587.61 277.75 L 589.08 277.75 L 590.56 277.75 L 592.03 277.75 L 593.50 277.75 L 594.97 277.75 L 596.44 277.75 L 597.92 277.75 L 599.39 277.75 L 600.86 277.75 L 602.33 277.75 L 603.81 277.75 L 605.28 277.75 L 606.75 277.75 L 608.22 277.75 L 609.69 277.75 L 611.17 277.75 L 612.64 277.75 L 614.11 277.75 L 615.58 277.75 L 617.06 277.75 L 618.53 277.75 L 620.00 277.75 L 621.47 277.75 L 622.94 277.75 L 624.42 277.75 L 625.89 277.75 L 627.36 277.75 L 628.83 277.75 L 630.31 277.75 L 631.78 277.75 L 633.25 277.75 L 634.72 277.75 L 636.19 277.75 L 637.67 277.75 L 639.14 277.75 L 640.61 277.75 L 642.08 277.75 L 643.56 277.75 L 645.03 277.75 L 646.50 277.75 L 647.97 277.75 L 649.44 277.75 L 650.92 277.75 L 652.39 277.75 L 653.86 277.75 L 655.33 277.75 L 656.81 277.75 L 658.28 277.75 L 659.75 277.75 L 661.22 277.75 L 662.69 277.75 L 664.17 277.75 L 665.64 277.75 L 667.11 277.75 L 668.58 277.75 L 670.06 277.75 L 671.53 277.75 L 673.00 277.75 L 674.47 277.75 L 675.94 277.75 L 677.42 277.75 L 678.89 277.75 L 680.36 277.75 L 681.83 277.75 L 683.31 277.75 L 684.78 277.75 L 686.25 277.75 L 687.72 277.75 L 689.19 277.75 L 690.67 277.75 L 692.14 277.75 L 693.61 277.75 L 695.08 277.75 L 696.56 277.75 L 698.03 277.75 L 699.50 277.75 L 700.97 277.75 L 702.44 277.75 L 703.92 277.75 L 705.39 277.75 L 706.86 277.75 L 708.33 277.75 L 709.81 277.75 L 711.28 277.75 L 712.75 277.75 L 714.22 277.75 L 715.69 277.75 L 717.17 277.75 L 718.64 277.75 L 720.11 277.75 L 721.58 277.75 L 723.06 277.75 L 724.53 277.75 L 726.00 277.75 L 727.47 277.75 L 728.94 277.75" stroke="#1976D2" />
<text x="90" y="289.75" font-size="14" font-weight="700">Inclinação (graus)</text>
<rect class="event" x="443.33" y="295.75" width="20.61" height="192.75" />
<line class="eventline" x1="443.33" y1="295.75" x2="443.33" y2="488.50" />
<line class="eventline" x1="463.94" y1="295.75" x2="463.94" y2="488.50" />
<line class="grid" x1="90" y1="488.50" x2="1150" y2="488.50" />
<text class="small" x="80" y="492.50" text-anchor="end">-10.0</text>
<line class="grid" x1="90" y1="449.95" x2="1150" y2="449.95" />
<text class="small" x="80" y="453.95" text-anchor="end">0.00</text>
<line class="grid" x1="90" y1="411.40" x2="1150" y2="411.40" />
<text class="small" x="80" y="415.40" text-anchor="end">10.0</text>
<line class="grid" x1="90" y1="372.85" x2="1150" y2="372.85" />
<text class="small" x="80" y="376.85" text-anchor="end">20.0</text>
<line class="grid" x1="90" y1="334.30" x2="1150" y2="334.30" />
<text class="small" x="80" y="338.30" text-anchor="end">30.0</text>
<line class="grid" x1="90" y1="295.75" x2="1150" y2="295.75" />
<text class="small" x="80" y="299.75" text-anchor="end">40.0</text>
<line class="grid" x1="90.00" y1="295.75" x2="90.00" y2="488.50" />
<line class="grid" x1="266.67" y1="295.75" x2="266.67" y2="488.50" />
<line class="grid" x1="443.33" y1="295.75" x2="443.33" y2="488.50" />
<line class="grid" x1="620.00" y1="295.75" x2="620.00" y2="488.50" />
<line class="grid" x1="796.67" y1="295.75" x2="796.67" y2="488.50" />
<line class="grid" x1="973.33" y1="295.75" x2="973.33" y2="488.50" />
<line class="grid" x1="1150.00" y1="295.75" x2="1150.00" y2="488.50" />
<line class="axis" x1="90" y1="295.75" x2="90" y2="488.50" />
<line class="axis" x1="90" y1="488.50" x2="1150" y2="488.50" />
<path class="series" d="M 178.33 405.73 L 179.81 398.69 L 181.28 402.41 L 182.75 404.31 L 184.22 405.23 L 185.69 403.92 L 187.17 397.71 L 188.64 397.17 L 190.11 399.37 L 191.58 399.02 L 193.06 399.53 L 194.53 398.55 L 196.00 398.71 L 197.47 399.23 L 198.94 398.97 L 200.42 404.63 L 201.89 405.12 L 203.36 404.41 L 204.83 403.44 L 206.31 405.15 L 207.78 402.63 L 209.25 404.74 L 210.72 403.11 L 212.19 401.63 L 213.67 402.41 L 215.14 400.24 L 216.61 403.88 L 218.08 403.28 L 219.56 403.06 L 221.03 401.04 L 222.50 400.93 L 223.97 405.09 L 225.44 406.28 L 226.92 410.68 L 228.39 410.77 L 229.86 409.51 L 231.33 411.33 L 232.81 413.32 L 234.28 406.12 L 235.75 411.95 L 237.22 409.16 L 238.69 405.72 L 240.17 403.82 L 241.64 399.56 L 243.11 409.94 L 244.58 403.68 L 246.06 405.15 L 247.53 405.38 L 249.00 405.48 L 250.47 400.94 L 251.94 402.71 L 253.42 399.86 L 254.89 398.06 L 256.36 394.30 L 257.83 393.66 L 259.31 399.84 L 260.78 394.66 L 262.25 393.45 L 263.72 397.16 L 265.19 393.30 L 266.67 390.58 L 268.14 389.66 L 269.61 387.84 L 271.08 387.51 L 272.56 382.33 L 274.03 379.73 L 275.50 377.25 L 276.97 377.12 L 278.44 379.57 L 279.92 381.29 L 281.39 388.06 L 282.86 388.72 L 284.33 382.46 L 285.81 381.51 L 287.28 385.05 L 288.75 384.55 L 290.22 385.74 L 291.69 386.39 L 293.17 384.10 L 294.64 384.39 L 296.11 392.18 L 297.58 385.82 L 299.06 407.08 L 300.53 411.43 L 302.00 395.80 L 303.47 395.49 L 304.94 406.29 L 306.42 403.13 L 307.89 390.57 L 309.36 390.39 L 310.83 384.34 L 312.31 396.76 L 313.78 396.41 L 315.25 397.77 L 316.72 395.55 L 318.19 406.52 L 319.67 412.84 L 321.14 415.65 L 322.61 415.04 L 324.08 413.64 L 325.56 400.95 L 327.03 409.05 L 328.50 393.91 L 329.97 413.26 L 331.44 414.98 L 332.92 415.16 L 334.39 405.70 L 335.86 407.67 L 337.33 403.75 L 338.81 406.09 L 340.28 393.87 L 341.75 398.01 L 343.22 399.34 L 344.69 406.13 L 346.17 403.53 L 347.64 401.15 L 349.11 397.21 L 350.58 397.21 L 352.06 393.33 L 353.53 383.41 L 355.00 394.15 L 356.47 380.29 L 357.94 383.96 L 359.42 389.73 L 360.89 405.69 L 362.36 413.54 L 363.83 416.93 L 365.31 403.44 L 366.78 407.48 L 368.25 397.26 L 369.72 396.89 L 371.19 411.13 L 372.67 401.40 L 374.14 410.89 L 375.61 420.19 L 377.08 408.80 L 378.56 401.57 L 380.03 397.12 L 381.50 407.13 L 382.97 406.73 L 384.44 389.03 L 385.92 405.10 L 387.39 407.46 L 388.86 411.63 L 390.33 427.01 L 391.81 440.78 L 393.28 405.90 L 394.75 393.32 L 396.22 384.69 L 397.69 377.46 L 399.17 394.64 L 400.64 385.88 L 402.11 377.03 L 403.58 396.23 L 405.06 395.97 L 406.53 386.65 L 408.00 385.76 L 409.47 393.80 L 410.94 390.58 L 412.42 397.13 L 413.89 395.86 L 415.36 402.52 L 416.83 405.03 L 418.31 405.46 L 419.78 407.07 L 421.25 407.31 L 422.72 405.11 L 424.19 405.91 L 425.67 407.67 L 427.14 413.05 L 428.61 408.70 L 430.08 410.53 L 431.56 409.70 L 433.03 406.43 L 434.50 407.57 L 435.97 407.67 L 437.44 407.74 L 438.92 405.82 L 440.39 405.59 L 441.86 407.57 L 443.33 408.31 L 444.81 405.81 L 446.28 406.78 L 447.75 407.09 L 449.22 411.13 L 450.69 398.06 L 452.17 404.84 L 453.64 405.90 L 455.11 403.67 L 456.58 401.31 L 458.06 397.79 L 459.53 402.82 L 461.00 398.22 L 462.47 398.55 L 463.94 390.07 L 465.42 394.64 L 466.89 402.83 L 468.36 380.63 L 469.83 398.13 L 471.31 383.30 L 472.78 383.71 L 474.25 382.77 L 475.72 378.20 L 477.19 372.64 L 478.67 391.86 L 480.14 383.37 L 481.61 390.51 L 483.08 396.14 L 484.56 402.81 L 486.03 405.13 L 487.50 404.46 L 488.97 401.72 L 490.44 400.55 L 491.92 400.97 L 493.39 400.18 L 494.86 401.94 L 496.33 401.00 L 497.81 401.16 L 499.28 401.08 L 500.75 401.09 L 502.22 401.15 L 503.69 401.12 L 505.17 401.07 L 506.64 401.13 L 508.11 401.10 L 509.58 401.16 L 511.06 401.09 L 512.53 401.06 L 514.00 401.14 L 515.47 401.05 L 516.94 401.17 L 518.42 401.05 L 519.89 401.10 L 521.36 401.32 L 522.83 401.05 L 524.31 400.87 L 525.78 400.38 L 527.25 400.71 L 528.72 400.76 L 530.19 400.76 L 531.67 400.72 L 533.14 400.68 L 534.61 400.71 L 536.08 400.71 L 537.56 400.69 L 539.03 400.72 L 540.50 400.69 L 541.97 400.68 L 543.44 400.69 L 544.92 400.69 L 546.39 400.71 L 547.86 400.68 L 549.33 400.70 L 550.81 400.66 L 552.28 400.69 L 553.75 400.92 L 555.22 399.69 L 556.69 400.51 L 558.17 400.26 L 559.64 400.39 L 561.11 400.03 L 562.58 400.18 L 564.06 400.13 L 565.53 400.20 L 567.00 400.15 L 568.47 400.17 L 569.94 400.17 L 571.42 400.20 L 572.89 400.10 L 574.36 400.21 L 575.83 400.16 L 577.31 400.12 L 578.78 400.16 L 580.25 400.14 L 581.72 400.12 L 583.19 400.16 L 584.67 400.16 L 586.14 400.09 L 587.61 400.05 L 589.08 400.19 L 590.56 399.38 L 592.03 399.80 L 593.50 399.71 L 594.97 399.66 L 596.44 399.66 L 597.92 399.62 L 599.39 399.64 L 600.86 399.64 L 602.33 399.63 L 603.81 399.60 L 605.28 399.64 L 606.75 399.66 L 608.22 399.60 L 609.69 399.64 L 611.17 399.60 L 612.64 399.57 L 614.11 399.61 L 615.58 399.62 L 617.06 399.64 L 618.53 399.66 L 620.00 399.55 L 621.47 399.30 L 622.94 399.35 L 624.42 398.70 L 625.89 398.77 L 627.36 399.27 L 628.83 398.78 L 630.31 399.16 L 631.78 398.88 L 633.25 399.04 L 634.72 398.97 L 636.19 399.04 L 637.67 399.00 L 639.14 399.01 L 640.61 398.97 L 642.08 399.01 L 643.56 398.97 L 645.03 399.00 L 646.50 399.01 L 647.97 398.93 L 649.44 399.03 L 650.92 399.10 L 652.39 398.86 L 653.86 397.40 L 655.33 399.41 L 656.81 398.65 L 658.28 398.26 L 659.75 398.53 L 661.22 398.56 L 662.69 398.39 L 664.17 398.58 L 665.64 398.43 L 667.11 398.53 L 668.58 398.52 L 670.06 398.48 L 671.53 398.50 L 673.00 398.47 L 674.47 398.45 L 675.94 398.45 L 677.42 398.48 L 678.89 398.44 L 680.36 398.46 L 681.83 398.42 L 683.31 398.55 L 684.78 398.45 L 686.25 398.46 L 687.72 398.56 L 689.19 398.50 L 690.67 398.61 L 692.14 398.51 L 693.61 398.55 L 695.08 398.54 L 696.56 398.54 L 698.03 398.52 L 699.50 398.53 L 700.97 398.52 L 702.44 398.56 L 703.92 398.53 L 705.39 398.51 L 706.86 398.56 L 708.33 398.52 L 709.81 398.49 L 711.28 398.75 L 712.75 398.75 L 714.22 399.78 L 715.69 399.12 L 717.17 399.34 L 718.64 399.33 L 720.11 399.38 L 721.58 399.41 L 723.06 399.40 L 724.53 399.38 L 726.00 399.37 L 727.47 399.40 L 728.94 399.40" stroke="#2E7D32" />
<path class="series" d="M 178.33 444.09 L 179.81 443.86 L 181.28 436.02 L 182.75 442.40 L 184.22 442.55 L 185.69 444.34 L 187.17 444.02 L 188.64 444.47 L 190.11 446.14 L 191.58 446.40 L 193.06 445.67 L 194.53 446.34 L 196.00 443.67 L 197.47 444.47 L 198.94 446.69 L 200.42 447.50 L 201.89 447.09 L 203.36 447.37 L 204.83 448.32 L 206.31 447.60 L 207.78 445.17 L 209.25 443.91 L 210.72 442.95 L 212.19 442.32 L 213.67 443.98 L 215.14 443.61 L 216.61 440.84 L 218.08 441.48 L 219.56 440.94 L 221.03 433.92 L 222.50 432.51 L 223.97 430.54 L 225.44 431.91 L 226.92 438.59 L 228.39 433.62 L 229.86 433.36 L 231.33 432.50 L 232.81 432.23 L 234.28 440.56 L 235.75 439.22 L 237.22 439.24 L 238.69 433.61 L 240.17 428.27 L 241.64 429.38 L 243.11 426.96 L 244.58 426.34 L 246.06 426.71 L 247.53 426.49 L 249.00 420.70 L 250.47 427.58 L 251.94 421.10 L 253.42 427.79 L 254.89 430.40 L 256.36 427.53 L 257.83 425.13 L 259.31 431.76 L 260.78 428.31 L 262.25 423.11 L 263.72 432.46 L 265.19 437.73 L 266.67 434.01 L 268.14 436.03 L 269.61 430.67 L 271.08 433.32 L 272.56 433.72 L 274.03 433.51 L 275.50 433.16 L 276.97 441.11 L 278.44 442.55 L 279.92 435.70 L 281.39 445.71 L 282.86 450.64 L 284.33 448.37 L 285.81 446.02 L 287.28 443.74 L 288.75 444.46 L 290.22 442.40 L 291.69 437.08 L 293.17 430.85 L 294.64 434.05 L 296.11 438.69 L 297.58 423.47 L 299.06 424.48 L 300.53 431.49 L 302.00 424.83 L 303.47 415.17 L 304.94 415.89 L 306.42 431.50 L 307.89 442.54 L 309.36 441.25 L 310.83 435.81 L 312.31 443.11 L 313.78 444.91 L 315.25 443.85 L 316.72 439.85 L 318.19 447.84 L 319.67 443.06 L 321.14 429.89 L 322.61 422.32 L 324.08 455.49 L 325.56 446.64 L 327.03 453.16 L 328.50 447.71 L 329.97 436.59 L 331.44 442.64 L 332.92 449.64 L 334.39 440.92 L 335.86 445.85 L 337.33 452.52 L 338.81 444.44 L 340.28 445.89 L 341.75 441.92 L 343.22 446.71 L 344.69 444.56 L 346.17 441.41 L 347.64 439.03 L 349.11 433.74 L 350.58 433.74 L 352.06 428.10 L 353.53 433.67 L 355.00 438.30 L 356.47 435.25 L 357.94 439.96 L 359.42 451.10 L 360.89 463.69 L 362.36 449.42 L 363.83 442.53 L 365.31 444.50 L 366.78 441.94 L 368.25 441.73 L 369.72 443.75 L 371.19 449.62 L 372.67 446.56 L 374.14 442.35 L 375.61 451.18 L 377.08 438.33 L 378.56 449.76 L 380.03 451.99 L 381.50 446.18 L 382.97 437.45 L 384.44 436.39 L 385.92 433.11 L 387.39 432.54 L 388.86 414.91 L 390.33 422.70 L 391.81 439.77 L 393.28 442.19 L 394.75 439.99 L 396.22 447.82 L 397.69 460.60 L 399.17 444.69 L 400.64 458.25 L 402.11 460.07 L 403.58 447.60 L 405.06 448.81 L 406.53 449.88 L 408.00 447.57 L 409.47 446.63 L 410.94 447.20 L 412.42 451.35 L 413.89 454.81 L 415.36 450.29 L 416.83 449.19 L 418.31 445.93 L 419.78 444.91 L 421.25 444.75 L 422.72 446.32 L 424.19 445.56 L 425.67 439.34 L 427.14 447.69 L 428.61 448.85 L 430.08 449.31 L 431.56 448.81 L 433.03 452.66 L 434.50 450.57 L 435.97 452.49 L 437.44 452.54 L 438.92 452.42 L 440.39 450.97 L 441.86 452.19 L 443.33 448.68 L 444.81 448.74 L 446.28 448.54 L 447.75 448.07 L 449.22 446.64 L 450.69 447.31 L 452.17 444.54 L 453.64 447.40 L 455.11 447.39 L 456.58 444.77 L 458.06 445.01 L 459.53 450.08 L 461.00 447.63 L 462.47 449.21 L 463.94 453.09 L 465.42 458.40 L 466.89 461.60 L 468.36 450.40 L 469.83 471.77 L 471.31 459.24 L 472.78 460.03 L 474.25 456.87 L 475.72 457.80 L 477.19 454.93 L 478.67 464.89 L 480.14 457.94 L 481.61 457.78 L 483.08 455.75 L 484.56 456.56 L 486.03 454.19 L 487.50 450.68 L 488.97 450.54 L 490.44 451.85 L 491.92 452.56 L 493.39 452.74 L 494.86 451.62 L 496.33 452.79 L 497.81 453.16 L 499.28 452.41 L 500.75 452.93 L 502.22 452.64 L 503.69 452.78 L 505.17 452.82 L 506.64 452.71 L 508.11 452.79 L 509.58 452.76 L 511.06 452.80 L 512.53 452.77 L 514.00 452.75 L 515.47 452.73 L 516.94 452.78 L 518.42 452.78 L 519.89 452.74 L 521.36 451.78 L 522.83 453.59 L 524.31 451.46 L 525.78 452.22 L 527.25 450.42 L 528.72 451.99 L 530.19 452.41 L 531.67 451.25 L 533.14 451.60 L 534.61 452.11 L 536.08 451.50 L 537.56 451.63 L 539.03 451.87 L 540.50 451.59 L 541.97 451.67 L 543.44 451.79 L 544.92 451.71 L 546.39 451.65 L 547.86 451.74 L 549.33 451.72 L 550.81 451.72 L 552.28 451.77 L 553.75 452.39 L 555.22 448.89 L 556.69 451.93 L 558.17 452.21 L 559.64 451.20 L 561.11 450.76 L 562.58 451.04 L 564.06 451.70 L 565.53 451.64 L 567.00 451.21 L 568.47 451.15 L 569.94 451.15 L 571.42 451.49 L 572.89 451.55 L 574.36 451.33 L 575.83 451.28 L 577.31 451.40 L 578.78 451.50 L 580.25 451.36 L 581.72 451.37 L 583.19 451.35 L 584.67 451.45 L 586.14 451.45 L 587.61 450.88 L 589.08 450.24 L 590.56 451.57 L 592.03 451.71 L 593.50 451.24 L 594.97 450.94 L 596.44 450.79 L 597.92 450.95 L 599.39 451.26 L 600.86 451.34 L 602.33 451.24 L 603.81 451.09 L 605.28 451.04 L 606.75 451.19 L 608.22 451.16 L 609.69 451.17 L 611.17 451.15 L 612.64 451.14 L 614.11 451.13 L 615.58 451.08 L 617.06 451.19 L 618.53 451.24 L 620.00 450.84 L 621.47 451.16 L 622.94 451.75 L 624.42 451.43 L 625.89 451.45 L 627.36 451.34 L 628.83 451.37 L 630.31 451.39 L 631.78 451.53 L 633.25 451.48 L 634.72 451.48 L 636.19 451.43 L 637.67 451.46 L 639.14 451.48 L 640.61 451.42 L 642.08 451.47 L 643.56 451.45 L 645.03 451.51 L 646.50 451.53 L 647.97 451.48 L 649.44 451.50 L 650.92 451.99 L 652.39 450.81 L 653.86 451.12 L 655.33 451.43 L 656.81 451.28 L 658.28 451.47 L 659.75 451.49 L 661.22 451.41 L 662.69 451.42 L 664.17 451.37 L 665.64 451.42 L 667.11 451.45 L 668.58 451.43 L 670.06 451.43 L 671.53 451.39 L 673.00 451.47 L 674.47 451.44 L 675.94 451.40 L 677.42 451.44 L 678.89 451.46 L 680.36 451.47 L 681.83 451.40 L 683.31 451.32 L 684.78 451.48 L 686.25 451.25 L 687.72 451.84 L 689.19 451.74 L 690.67 451.76 L 692.14 451.79 L 693.61 451.82 L 695.08 451.68 L 696.56 451.73 L 698.03 451.74 L 699.50 451.79 L 700.97 451.75 L 702.44 451.73 L 703.92 451.75 L 705.39 451.80 L 706.86 451.80 L 708.33 451.74 L 709.81 451.55 L 711.28 452.37 L 712.75 451.49 L 714.22 452.83 L 715.69 452.69 L 717.17 452.50 L 718.64 452.66 L 720.11 452.54 L 721.58 452.65 L 723.06 452.62 L 724.53 452.63 L 726.00 452.67 L 727.47 452.66 L 728.94 452.65" stroke="#6A1B9A" />
<line x1="900.00" y1="307.75" x2="918.00" y2="307.75" stroke="#2E7D32" stroke-width="3" />
<text class="small" x="924.00" y="311.75">pitch</text>
<line x1="900.00" y1="323.75" x2="918.00" y2="323.75" stroke="#6A1B9A" stroke-width="3" />
<text class="small" x="924.00" y="327.75">roll</text>
<text x="90" y="500.50" font-size="14" font-weight="700">Aceleração (magnitude) (u.a.)</text>
<rect class="event" x="443.33" y="506.50" width="20.61" height="192.75" />
<line class="eventline" x1="443.33" y1="506.50" x2="443.33" y2="699.25" />
<line class="eventline" x1="463.94" y1="506.50" x2="463.94" y2="699.25" />
<line class="grid" x1="90" y1="699.25" x2="1150" y2="699.25" />
<text class="small" x="80" y="703.25" text-anchor="end">0.00</text>
<line class="grid" x1="90" y1="660.70" x2="1150" y2="660.70" />
<text class="small" x="80" y="664.70" text-anchor="end">0.50</text>
<line class="grid" x1="90" y1="622.15" x2="1150" y2="622.15" />
<text class="small" x="80" y="626.15" text-anchor="end">1.00</text>
<line class="grid" x1="90" y1="583.60" x2="1150" y2="583.60" />
<text class="small" x="80" y="587.60" text-anchor="end">1.50</text>
<line class="grid" x1="90" y1="545.05" x2="1150" y2="545.05" />
<text class="small" x="80" y="549.05" text-anchor="end">2.00</text>
<line class="grid" x1="90" y1="506.50" x2="1150" y2="506.50" />
<text class="small" x="80" y="510.50" text-anchor="end">2.50</text>
<line class="grid" x1="90.00" y1="506.50" x2="90.00" y2="699.25" />
<line class="grid" x1="266.67" y1="506.50" x2="266.67" y2="699.25" />
<line class="grid" x1="443.33" y1="506.50" x2="443.33" y2="699.25" />
<line class="grid" x1="620.00" y1="506.50" x2="620.00" y2="699.25" />
<line class="grid" x1="796.67" y1="506.50" x2="796.67" y2="699.25" />
<line class="grid" x1="973.33" y1="506.50" x2="973.33" y2="699.25" />
<line class="grid" x1="1150.00" y1="506.50" x2="1150.00" y2="699.25" />
<line class="axis" x1="90" y1="506.50" x2="90" y2="699.25" />
<line class="axis" x1="90" y1="699.25" x2="1150" y2="699.25" />
<path class="series" d="M 178.33 685.08 L 179.81 679.61 L 181.28 684.16 L 182.75 680.20 L 184.22 692.65 L 185.69 682.23 L 187.17 679.14 L 188.64 680.83 L 190.11 683.03 L 191.58 689.08 L 193.06 686.70 L 194.53 682.01 L 196.00 676.51 L 197.47 683.14 L 198.94 687.51 L 200.42 693.03 L 201.89 689.32 L 203.36 692.23 L 204.83 686.27 L 206.31 686.27 L 207.78 668.82 L 209.25 684.04 L 210.72 683.18 L 212.19 676.84 L 213.67 687.83 L 215.14 686.15 L 216.61 678.27 L 218.08 697.50 L 219.56 693.11 L 221.03 671.79 L 222.50 668.24 L 223.97 673.88 L 225.44 676.47 L 226.92 680.78 L 228.39 678.72 L 229.86 675.93 L 231.33 677.19 L 232.81 685.16 L 234.28 664.25 L 235.75 681.04 L 237.22 681.53 L 238.69 673.31 L 240.17 673.85 L 241.64 682.42 L 243.11 676.86 L 244.58 682.90 L 246.06 688.34 L 247.53 691.09 L 249.00 675.29 L 250.47 689.00 L 251.94 679.00 L 253.42 682.73 L 254.89 680.87 L 256.36 682.63 L 257.83 669.56 L 259.31 677.75 L 260.78 670.91 L 262.25 686.98 L 263.72 687.13 L 265.19 660.54 L 266.67 669.17 L 268.14 683.94 L 269.61 685.94 L 271.08 686.41 L 272.56 679.44 L 274.03 687.89 L 275.50 683.44 L 276.97 684.65 L 278.44 686.20 L 279.92 675.29 L 281.39 693.32 L 282.86 687.76 L 284.33 673.47 L 285.81 672.44 L 287.28 683.75 L 288.75 690.13 L 290.22 688.58 L 291.69 686.50 L 293.17 665.62 L 294.64 653.20 L 296.11 677.99 L 297.58 635.62 L 299.06 661.06 L 300.53 665.77 L 302.00 680.68 L 303.47 668.54 L 304.94 690.41 L 306.42 647.65 L 307.89 691.18 L 309.36 645.55 L 310.83 626.11 L 312.31 655.52 L 313.78 636.48 L 315.25 602.31 L 316.72 632.29 L 318.19 650.75 L 319.67 668.05 L 321.14 678.31 L 322.61 667.65 L 324.08 672.72 L 325.56 674.62 L 327.03 681.91 L 328.50 658.20 L 329.97 683.96 L 331.44 662.24 L 332.92 675.59 L 334.39 675.59 L 335.86 653.04 L 337.33 656.04 L 338.81 679.49 L 340.28 669.43 L 341.75 683.69 L 343.22 695.61 L 344.69 671.22 L 346.17 681.53 L 347.64 682.13 L 349.11 678.58 L 350.58 655.39 L 352.06 652.58 L 353.53 623.71 L 355.00 608.77 L 356.47 564.12 L 357.94 633.70 L 359.42 647.03 L 360.89 672.18 L 362.36 642.12 L 363.83 666.96 L 365.31 678.71 L 366.78 692.31 L 368.25 662.78 L 369.72 659.58 L 371.19 664.65 L 372.67 670.72 L 374.14 664.33 L 375.61 652.77 L 377.08 662.27 L 378.56 663.46 L 380.03 688.94 L 381.50 657.98 L 382.97 645.72 L 384.44 664.93 L 385.92 658.68 L 387.39 625.82 L 388.86 624.86 L 390.33 647.21 L 391.81 631.11 L 393.28 619.15 L 394.75 635.91 L 396.22 615.02 L 397.69 629.24 L 399.17 673.79 L 400.64 633.24 L 402.11 688.36 L 403.58 674.44 L 405.06 680.84 L 406.53 681.63 L 408.00 686.81 L 409.47 686.11 L 410.94 685.07 L 412.42 667.72 L 413.89 683.03 L 415.36 686.80 L 416.83 692.56 L 418.31 672.22 L 419.78 690.97 L 421.25 696.28 L 422.72 690.25 L 424.19 688.35 L 425.67 675.84 L 427.14 687.71 L 428.61 692.11 L 430.08 686.31 L 431.56 691.25 L 433.03 692.64 L 434.50 697.74 L 435.97 697.90 L 437.44 696.41 L 438.92 697.07 L 440.39 696.38 L 441.86 697.99 L 443.33 693.76 L 444.81 694.08 L 446.28 693.70 L 447.75 686.94 L 449.22 687.82 L 450.69 697.61 L 452.17 694.64 L 453.64 694.50 L 455.11 694.96 L 456.58 696.31 L 458.06 692.97 L 459.53 692.08 L 461.00 692.08 L 462.47 686.40 L 463.94 688.63 L 465.42 691.68 L 466.89 691.27 L 468.36 689.96 L 469.83 660.67 L 471.31 680.59 L 472.78 689.79 L 474.25 687.61 L 475.72 680.29 L 477.19 679.90 L 478.67 664.63 L 480.14 680.90 L 481.61 682.98 L 483.08 695.81 L 484.56 691.41 L 486.03 688.23 L 487.50 683.40 L 488.97 679.53 L 490.44 686.67 L 491.92 695.20 L 493.39 695.37 L 494.86 690.93 L 496.33 697.04 L 497.81 697.66 L 499.28 698.30 L 500.75 698.04 L 502.22 698.73 L 503.69 698.95 L 505.17 698.59 L 506.64 699.02 L 508.11 698.50 L 509.58 699.14 L 511.06 698.80 L 512.53 698.89 L 514.00 698.90 L 515.47 698.90 L 516.94 698.77 L 518.42 699.01 L 519.89 698.90 L 521.36 696.88 L 522.83 693.47 L 524.31 694.06 L 525.78 693.65 L 527.25 697.50 L 528.72 695.50 L 530.19 698.95 L 531.67 697.58 L 533.14 697.58 L 534.61 698.77 L 536.08 698.47 L 537.56 698.16 L 539.03 698.92 L 540.50 698.98 L 541.97 698.61 L 543.44 698.93 L 544.92 698.89 L 546.39 698.73 L 547.86 699.20 L 549.33 699.16 L 550.81 698.99 L 552.28 699.07 L 553.75 692.94 L 555.22 684.73 L 556.69 682.95 L 558.17 694.95 L 559.64 697.41 L 561.11 698.55 L 562.58 697.47 L 564.06 699.16 L 565.53 698.20 L 567.00 698.97 L 568.47 698.45 L 569.94 698.81 L 571.42 698.81 L 572.89 699.09 L 574.36 698.84 L 575.83 699.19 L 577.31 698.89 L 578.78 699.01 L 580.25 698.93 L 581.72 698.96 L 583.19 699.09 L 584.67 698.95 L 586.14 698.95 L 587.61 691.18 L 589.08 688.37 L 590.56 696.17 L 592.03 698.20 L 593.50 698.64 L 594.97 698.70 L 596.44 698.10 L 597.92 698.84 L 599.39 698.92 L 600.86 698.66 L 602.33 698.89 L 603.81 699.07 L 605.28 698.85 L 606.75 699.12 L 608.22 699.03 L 609.69 699.08 L 611.17 699.16 L 612.64 698.98 L 614.11 699.00 L 615.58 699.04 L 617.06 699.06 L 618.53 698.64 L 620.00 697.99 L 621.47 695.95 L 622.94 696.31 L 624.42 696.10 L 625.89 698.80 L 627.36 698.85 L 628.83 698.69 L 630.31 698.58 L 631.78 698.63 L 633.25 698.86 L 634.72 698.87 L 636.19 698.84 L 637.67 698.86 L 639.14 698.97 L 640.61 699.16 L 642.08 699.19 L 643.56 699.08 L 645.03 699.18 L 646.50 699.08 L 647.97 699.14 L 649.44 699.19 L 650.92 695.34 L 652.39 692.99 L 653.86 695.67 L 655.33 694.78 L 656.81 697.12 L 658.28 698.75 L 659.75 698.21 L 661.22 698.51 L 662.69 698.87 L 664.17 699.14 L 665.64 699.03 L 667.11 698.83 L 668.58 699.02 L 670.06 698.98 L 671.53 698.90 L 673.00 699.08 L 674.47 699.09 L 675.94 699.11 L 677.42 699.10 L 678.89 699.17 L 680.36 699.22 L 681.83 698.91 L 683.31 697.12 L 684.78 691.58 L 686.25 697.73 L 687.72 698.19 L 689.19 698.66 L 690.67 699.06 L 692.14 699.08 L 693.61 699.00 L 695.08 699.11 L 696.56 699.05 L 698.03 698.88 L 699.50 698.91 L 700.97 699.14 L 702.44 699.18 L 703.92 699.12 L 705.39 699.10 L 706.86 698.97 L 708.33 699.15 L 709.81 695.81 L 711.28 695.81 L 712.75 692.05 L 714.22 697.86 L 715.69 698.09 L 717.17 699.15 L 718.64 698.66 L 720.11 699.06 L 721.58 698.86 L 723.06 698.71 L 724.53 698.94 L 726.00 698.95 L 727.47 698.83 L 728.94 698.92" stroke="#FB8C00" />
<text x="90" y="711.25" font-size="14" font-weight="700">Giroscópio (magnitude) (u.a.)</text>
<rect class="event" x="443.33" y="717.25" width="20.61" height="192.75" />
<line class="eventline" x1="443.33" y1="717.25" x2="443.33" y2="910.00" />
<line class="eventline" x1="463.94" y1="717.25" x2="463.94" y2="910.00" />
<line class="grid" x1="90" y1="910.00" x2="1150" y2="910.00" />
<text class="small" x="80" y="914.00" text-anchor="end">0.00</text>
<line class="grid" x1="90" y1="871.45" x2="1150" y2="871.45" />
<text class="small" x="80" y="875.45" text-anchor="end">0.10</text>
<line class="grid" x1="90" y1="832.90" x2="1150" y2="832.90" />
<text class="small" x="80" y="836.90" text-anchor="end">0.20</text>
<line class="grid" x1="90" y1="794.35" x2="1150" y2="794.35" />
<text class="small" x="80" y="798.35" text-anchor="end">0.30</text>
<line class="grid" x1="90" y1="755.80" x2="1150" y2="755.80" />
<text class="small" x="80" y="759.80" text-anchor="end">0.40</text>
<line class="grid" x1="90" y1="717.25" x2="1150" y2="717.25" />
<text class="small" x="80" y="721.25" text-anchor="end">0.50</text>
<line class="grid" x1="90.00" y1="717.25" x2="90.00" y2="910.00" />
<line class="grid" x1="266.67" y1="717.25" x2="266.67" y2="910.00" />
<line class="grid" x1="443.33" y1="717.25" x2="443.33" y2="910.00" />
<line class="grid" x1="620.00" y1="717.25" x2="620.00" y2="910.00" />
<line class="grid" x1="796.67" y1="717.25" x2="796.67" y2="910.00" />
<line class="grid" x1="973.33" y1="717.25" x2="973.33" y2="910.00" />
<line class="grid" x1="1150.00" y1="717.25" x2="1150.00" y2="910.00" />
<line class="axis" x1="90" y1="717.25" x2="90" y2="910.00" />
<line class="axis" x1="90" y1="910.00" x2="1150" y2="910.00" />
<path class="series" d="M 178.33 903.36 L 179.81 905.55 L 181.28 902.67 L 182.75 906.02 L 184.22 906.13 L 185.69 900.88 L 187.17 906.08 L 188.64 903.73 L 190.11 904.37 L 191.58 902.68 L 193.06 903.36 L 194.53 903.39 L 196.00 904.55 L 197.47 905.84 L 198.94 905.21 L 200.42 906.83 L 201.89 907.01 L 203.36 908.15 L 204.83 903.14 L 206.31 903.14 L 207.78 901.00 L 209.25 907.72 L 210.72 904.29 L 212.19 906.39 L 213.67 905.08 L 215.14 905.82 L 216.61 903.30 L 218.08 903.76 L 219.56 904.87 L 221.03 899.49 L 222.50 888.79 L 223.97 884.05 L 225.44 885.09 L 226.92 887.80 L 228.39 883.97 L 229.86 881.38 L 231.33 878.31 L 232.81 875.23 L 234.28 888.92 L 235.75 899.16 L 237.22 901.97 L 238.69 899.24 L 240.17 890.12 L 241.64 896.56 L 243.11 900.44 L 244.58 900.11 L 246.06 898.10 L 247.53 893.84 L 249.00 889.14 L 250.47 885.55 L 251.94 883.54 L 253.42 882.25 L 254.89 882.68 L 256.36 879.02 L 257.83 885.39 L 259.31 883.03 L 260.78 888.45 L 262.25 888.89 L 263.72 892.48 L 265.19 888.95 L 266.67 899.57 L 268.14 899.05 L 269.61 899.96 L 271.08 897.85 L 272.56 898.43 L 274.03 898.20 L 275.50 896.65 L 276.97 892.37 L 278.44 894.96 L 279.92 894.30 L 281.39 895.32 L 282.86 900.57 L 284.33 904.03 L 285.81 904.41 L 287.28 904.80 L 288.75 904.86 L 290.22 905.86 L 291.69 901.41 L 293.17 895.98 L 294.64 891.82 L 296.11 892.77 L 297.58 879.65 L 299.06 865.69 L 300.53 885.54 L 302.00 882.96 L 303.47 865.27 L 304.94 870.21 L 306.42 872.00 L 307.89 870.84 L 309.36 873.32 L 310.83 890.35 L 312.31 854.38 L 313.78 892.33 L 315.25 898.82 L 316.72 884.25 L 318.19 886.30 L 319.67 887.89 L 321.14 892.02 L 322.61 877.75 L 324.08 878.38 L 325.56 889.64 L 327.03 897.36 L 328.50 890.00 L 329.97 888.36 L 331.44 894.95 L 332.92 897.96 L 334.39 897.96 L 335.86 895.68 L 337.33 901.14 L 338.81 894.28 L 340.28 883.10 L 341.75 893.90 L 343.22 895.74 L 344.69 888.66 L 346.17 888.88 L 347.64 889.30 L 349.11 897.90 L 350.58 887.90 L 352.06 906.57 L 353.53 887.53 L 355.00 888.51 L 356.47 886.09 L 357.94 882.79 L 359.42 889.45 L 360.89 898.18 L 362.36 879.98 L 363.83 867.79 L 365.31 870.55 L 366.78 871.68 L 368.25 871.04 L 369.72 874.23 L 371.19 877.11 L 372.67 883.04 L 374.14 887.80 L 375.61 889.39 L 377.08 894.69 L 378.56 890.40 L 380.03 895.38 L 381.50 902.73 L 382.97 885.01 L 384.44 874.03 L 385.92 869.01 L 387.39 845.84 L 388.86 800.26 L 390.33 786.84 L 391.81 794.27 L 393.28 791.40 L 394.75 796.88 L 396.22 819.56 L 397.69 841.63 L 399.17 857.75 L 400.64 878.66 L 402.11 905.15 L 403.58 908.28 L 405.06 908.73 L 406.53 907.73 L 408.00 908.31 L 409.47 903.49 L 410.94 895.08 L 412.42 899.23 L 413.89 901.74 L 415.36 904.06 L 416.83 902.04 L 418.31 901.87 L 419.78 902.27 L 421.25 900.58 L 422.72 902.38 L 424.19 903.91 L 425.67 904.72 L 427.14 907.89 L 428.61 906.86 L 430.08 908.15 L 431.56 907.58 L 433.03 906.11 L 434.50 905.66 L 435.97 907.43 L 437.44 906.26 L 438.92 905.82 L 440.39 904.94 L 441.86 905.20 L 443.33 905.53 L 444.81 905.63 L 446.28 905.97 L 447.75 907.25 L 449.22 907.45 L 450.69 908.38 L 452.17 907.01 L 453.64 905.89 L 455.11 906.41 L 456.58 907.93 L 458.06 904.92 L 459.53 904.28 L 461.00 904.28 L 462.47 905.77 L 463.94 903.80 L 465.42 899.83 L 466.89 896.22 L 468.36 892.87 L 469.83 878.34 L 471.31 889.60 L 472.78 889.59 L 474.25 888.65 L 475.72 893.13 L 477.19 904.14 L 478.67 895.60 L 480.14 904.27 L 481.61 902.69 L 483.08 897.59 L 484.56 900.31 L 486.03 904.13 L 487.50 904.87 L 488.97 909.31 L 490.44 909.18 L 491.92 909.71 L 493.39 907.98 L 494.86 909.21 L 496.33 909.62 L 497.81 909.53 L 499.28 909.61 L 500.75 909.65 L 502.22 909.65 L 503.69 909.67 L 505.17 909.62 L 506.64 909.68 L 508.11 909.70 L 509.58 909.63 L 511.06 909.72 L 512.53 909.64 L 514.00 909.73 L 515.47 909.63 L 516.94 909.65 L 518.42 909.70 L 519.89 909.70 L 521.36 909.19 L 522.83 909.02 L 524.31 908.28 L 525.78 908.94 L 527.25 909.69 L 528.72 909.77 L 530.19 909.43 L 531.67 909.65 L 533.14 909.75 L 534.61 909.53 L 536.08 909.69 L 537.56 909.71 L 539.03 909.66 L 540.50 909.72 L 541.97 909.72 L 543.44 909.65 L 544.92 909.65 L 546.39 909.71 L 547.86 909.94 L 549.33 909.92 L 550.81 909.90 L 552.28 909.94 L 553.75 908.54 L 555.22 909.23 L 556.69 908.88 L 558.17 909.63 L 559.64 909.81 L 561.11 909.66 L 562.58 909.87 L 564.06 909.83 L 565.53 909.91 L 567.00 909.89 L 568.47 909.96 L 569.94 909.92 L 571.42 909.91 L 572.89 909.95 L 574.36 909.95 L 575.83 909.92 L 577.31 909.94 L 578.78 909.89 L 580.25 909.89 L 581.72 909.90 L 583.19 909.93 L 584.67 909.90 L 586.14 909.90 L 587.61 908.33 L 589.08 909.37 L 590.56 908.80 L 592.03 909.77 L 593.50 909.77 L 594.97 909.83 L 596.44 909.91 L 597.92 909.96 L 599.39 909.95 L 600.86 909.94 L 602.33 909.92 L 603.81 909.91 L 605.28 909.95 L 606.75 909.94 L 608.22 909.94 L 609.69 909.93 L 611.17 909.92 L 612.64 909.87 L 614.11 909.98 L 615.58 909.94 L 617.06 909.98 L 618.53 909.98 L 620.00 909.83 L 621.47 908.38 L 622.94 909.58 L 624.42 909.65 L 625.89 909.84 L 627.36 909.86 L 628.83 909.93 L 630.31 909.91 L 631.78 909.91 L 633.25 909.92 L 634.72 909.89 L 636.19 909.86 L 637.67 909.95 L 639.14 909.91 L 640.61 909.95 L 642.08 909.91 L 643.56 909.98 L 645.03 909.95 L 646.50 909.88 L 647.97 909.93 L 649.44 909.98 L 650.92 909.57 L 652.39 908.95 L 653.86 909.44 L 655.33 909.67 L 656.81 909.78 L 658.28 909.93 L 659.75 909.89 L 661.22 909.88 L 662.69 909.91 L 664.17 909.92 L 665.64 909.90 L 667.11 909.83 L 668.58 909.84 L 670.06 909.87 L 671.53 909.90 L 673.00 909.93 L 674.47 909.94 L 675.94 909.96 L 677.42 909.95 L 678.89 909.91 L 680.36 909.94 L 681.83 909.92 L 683.31 909.86 L 684.78 909.66 L 686.25 909.61 L 687.72 909.96 L 689.19 909.93 L 690.67 909.86 L 692.14 909.91 L 693.61 909.92 L 695.08 909.95 L 696.56 909.93 L 698.03 909.88 L 699.50 909.90 L 700.97 909.96 L 702.44 909.93 L 703.92 909.90 L 705.39 909.94 L 706.86 909.97 L 708.33 909.90 L 709.81 909.18 L 711.28 909.18 L 712.75 909.30 L 714.22 908.43 L 715.69 909.81 L 717.17 909.92 L 718.64 909.91 L 720.11 909.95 L 721.58 909.89 L 723.06 909.94 L 724.53 909.99 L 726.00 909.89 L 727.47 909.95 L 728.94 909.95" stroke="#E53935" />
<text x="620.00" y="952" font-size="15" text-anchor="middle">minutos (relativo ao início do evento)</text>
<text class="small" x="90.00" y="936" text-anchor="middle">-4.00</text>
<text class="small" x="266.67" y="936" text-anchor="middle">-2.00</text>
<text class="small" x="443.33" y="936" text-anchor="middle">0.00</text>
<text class="small" x="620.00" y="936" text-anchor="middle">2.00</text>
<text class="small" x="796.67" y="936" text-anchor="middle">4.00</text>
<text class="small" x="973.33" y="936" text-anchor="middle">6.00</text>
<text class="small" x="1150.00" y="936" text-anchor="middle">8.00</text>
</svg>