<?xml version="1.0" encoding="UTF-8"?>
<svg xmlns="http://www.w3.org/2000/svg" width="1180" height="980" viewBox="0 0 1180 980">
<style>
text { font-family: -apple-system, BlinkMacSystemFont, 'Segoe UI', Roboto, Helvetica, Arial, sans-serif; fill: #111; }
.small { font-size: 12px; fill: #222; }
.title { font-size: 18px; font-weight: 700; }
.axis { stroke: #111; stroke-width: 1.4; }
.grid { stroke: #E6E6E6; stroke-width: 1; }
.event { fill: #FFEB3B; fill-opacity: 0.18; }
.eventline { stroke: #F9A825; stroke-width: 1.2; stroke-dasharray: 4 3; }
.series { fill: none; stroke-width: 1.8; }
</style>
<text class="title" x="90" y="34">ciclo 11 — carregamento — 2025-12-12T19:32:33-03:00 → 2025-12-12T19:35:21-03:00 (span 168s, dur 169s)</text>
<text class="small" x="90" y="54">GPS: -11.699027,-47.157382  hotspot: -11.699,-47.157</text>
<text class="small" x="90" y="70">Janela: -3.00 → 5.80 min (relativo ao início do evento)</text>
<text x="90" y="79.00" font-size="14" font-weight="700">Velocidade (km/h)</text>
<rect class="event" x="443.33" y="85.00" width="247.33" height="192.75" />
<line class="eventline" x1="443.33" y1="85.00" x2="443.33" y2="277.75" />
<line class="eventline" x1="690.67" y1="85.00" x2="690.67" y2="277.75" />
<line class="grid" x1="90" y1="277.75" x2="1150" y2="277.75" />
<text class="small" x="80" y="281.75" text-anchor="end">0.00</text>
<line class="grid" x1="90" y1="239.20" x2="1150" y2="239.20" />
<text class="small" x="80" y="243.20" text-anchor="end">10.0</text>
<line class="grid" x1="90" y1="200.65" x2="1150" y2="200.65" />
<text class="small" x="80" y="204.65" text-anchor="end">20.0</text>
<line class="grid" x1="90" y1="162.10" x2="1150" y2="162.10" />
<text class="small" x="80" y="166.10" text-anchor="end">30.0</text>
<line class="grid" x1="90" y1="123.55" x2="1150" y2="123.55" />
<text class="small" x="80" y="127.55" text-anchor="end">40.0</text>
<line class="grid" x1="90" y1="85.00" x2="1150" y2="85.00" />
<text class="small" x="80" y="89.00" text-anchor="end">50.0</text>
<line class="grid" x1="90.00" y1="85.00" x2="90.00" y2="277.75" />
<line class="grid" x1="266.67" y1="85.00" x2="266.67" y2="277.75" />
<line class="grid" x1="443.33" y1="85.00" x2="443.33" y2="277.75" />
<line class="grid" x1="620.00" y1="85.00" x2="620.00" y2="277.75" />
<line class="grid" x1="796.67" y1="85.00" x2="796.67" y2="277.75" />
<line class="grid" x1="973.33" y1="85.00" x2="973.33" y2="277.75" />
<line class="grid" x1="1150.00" y1="85.00" x2="1150.00" y2="277.75" />
<line class="axis" x1="90" y1="85.00" x2="90" y2="277.75" />
<line class="axis" x1="90" y1="277.75" x2="1150" y2="277.75" />
<path class="series" d="M 178.33 211.41 L 179.81 213.36 L 181.28 211.27 L 182.75 211.55 L 184.22 218.63 L 185.69 219.60 L 187.17 221.41 L 188.64 216.55 L 190.11 213.22 L 191.58 209.47 L 193.06 202.53 L 194.53 197.67 L 196.00 193.23 L 197.47 191.01 L 198.94 188.65 L 200.42 187.13 L 201.89 180.60 L 203.36 180.88 L 204.83 180.05 L 206.31 179.35 L 207.78 180.60 L 209.25 182.96 L 210.72 181.30 L 212.19 187.13 L 213.67 192.26 L 215.14 191.85 L 216.61 183.52 L 218.08 174.08 L 219.56 169.09 L 221.03 157.71 L 222.50 155.35 L 223.97 160.62 L 225.44 171.17 L 226.92 178.38 L 228.39 186.71 L 229.86 194.62 L 231.33 203.64 L 232.81 208.22 L 234.28 207.94 L 235.75 211.83 L 237.22 216.69 L 238.69 220.43 L 240.17 224.04 L 241.64 231.81 L 243.11 229.45 L 244.58 221.96 L 246.06 216.55 L 247.53 208.92 L 249.00 202.39 L 250.47 195.45 L 251.94 190.87 L 253.42 193.93 L 254.89 198.09 L 256.36 198.09 L 257.83 192.12 L 259.31 190.18 L 260.78 191.71 L 262.25 191.29 L 263.72 195.87 L 265.19 197.26 L 266.67 202.25 L 268.14 203.78 L 269.61 202.95 L 271.08 206.83 L 272.56 214.47 L 274.03 213.49 L 275.50 217.38 L 276.97 224.18 L 278.44 228.62 L 279.92 235.56 L 281.39 243.06 L 282.86 242.22 L 284.33 238.06 L 285.81 231.68 L 287.28 233.48 L 288.75 233.62 L 290.22 233.20 L 291.69 232.79 L 293.17 227.10 L 294.64 229.04 L 296.11 229.18 L 297.58 230.01 L 299.06 232.65 L 300.53 233.76 L 302.00 239.59 L 303.47 242.08 L 304.94 239.17 L 306.42 239.59 L 307.89 239.86 L 309.36 237.78 L 310.83 242.78 L 312.31 245.55 L 313.78 247.22 L 315.25 250.69 L 316.72 248.33 L 318.19 249.72 L 319.67 247.22 L 321.14 253.32 L 322.61 259.43 L 324.08 256.52 L 325.56 253.19 L 327.03 253.60 L 328.50 255.41 L 329.97 261.51 L 331.44 262.90 L 332.92 262.90 L 334.39 264.98 L 335.86 277.75 L 337.33 277.75 L 338.81 277.75 L 340.28 277.75 L 341.75 277.75 L 343.22 277.75 L 344.69 277.75 L 346.17 277.75 L 347.64 277.75 L 349.11 277.75 L 350.58 277.75 L 352.06 277.75 L 353.53 277.75 L 355.00 277.75 L 356.47 277.75 L 357.94 277.75 L 359.42 277.75 L 360.89 277.75 L 362.36 277.75 L 363.83 277.75 L 365.31 277.75 L 366.78 277.75 L 368.25 277.75 L 369.72 277.75 L 371.19 277.75 L 372.67 277.75 L 374.14 277.75 L 375.61 277.75 L 377.08 277.75 L 378.56 277.75 L 380.03 277.75 L 381.50 277.75 L 382.97 277.75 L 384.44 277.75 L 385.92 277.75 L 387.39 277.75 L 388.86 277.75 L 390.33 277.75 L 391.81 277.75 L 393.28 268.87 L 394.75 268.45 L 396.22 267.20 L 397.69 264.29 L 399.17 265.12 L 400.64 267.34 L 402.11 277.75 L 403.58 277.75 L 405.06 267.20 L 406.53 267.76 L 408.00 267.48 L 409.47 267.20 L 410.94 269.28 L 412.42 273.73 L 413.89 273.17 L 415.36 263.73 L 416.83 268.45 L 418.31 266.93 L 419.78 266.51 L 421.25 266.23 L 422.72 269.15 L 424.19 269.42 L 425.67 267.06 L 427.14 265.54 L 428.61 266.51 L 430.08 266.93 L 431.56 268.59 L 433.03 269.42 L 434.50 270.95 L 435.97 267.20 L 437.44 273.17 L 438.92 277.75 L 440.39 272.62 L 441.86 272.20 L 443.33 277.75 L 444.81 277.75 L 446.28 277.75 L 447.75 277.75 L 449.22 277.75 L 450.69 277.75 L 452.17 277.75 L 453.64 277.75 L 455.11 277.75 L 456.58 277.75 L 458.06 277.75 L 459.53 277.75 L 461.00 277.75 L 462.47 277.75 L 463.94 277.75 L 465.42 277.75 L 466.89 277.75 L 468.36 277.75 L 469.83 277.75 L 471.31 277.75 L 472.78 277.75 L 474.25 277.75 L 475.72 277.75 L 477.19 277.75 L 478.67 277.75 L 480.14 277.75 L 481.61 277.75 L 483.08 277.75 L 484.56 277.75 L 486.03 277.75 L 487.50 277.75 L 488.97 277.75 L 490.44 277.75 L 491.92 277.75 L 493.39 277.75 L 494.86 277.75 L 496.33 277.75 L 497.81 277.75 L 499.28 277.75 L 500.75 277.75 L 502.22 277.75 L 503.69 277.75 L 505.17 277.75 L 506.64 277.75 L 508.11 277.75 L 509.58 277.75 L 511.06 277.75 L 512.53 277.75 L 514.00 277.75 L 515.47 277.75 L 516.94 277.75 L 518.42 277.75 L 519.89 277.75 L 521.36 277.75 L 522.83 277.75 L 524.31 277.75 L 525.78 277.75 L 527.25 277.75 L 528.72 277.75 L 530.19 277.75 L 531.67 277.75 L 533.14 277.75 L 534.61 277.75 L 536.08 277.75 L 537.56 277.75 L 539.03 277.75 L 540.50 277.75 L 541.97 277.75 L 543.44 277.75 L 544.92 277.75 L 546.39 277.75 L 547.86 277.75 L 549.33 277.75 L 550.81 277.75 L 552.28 277.75 L 553.75 277.75 L 555.22 277.75 L 556.69 277.75 L 558.17 277.75 L 559.64 277.75 L 561.11 277.75 L 562.58 277.75 L 564.06 277.75 L 565.53 277.75 L 567.00 277.75 L 568.47 277.75 L 569.94 277.75 L 571.42 277.75 L 572.89 277.75 L 574.36 277.75 L 575.83 277.75 L 577.31 277.75 L 578.78 277.75 L 580.25 277.75 L 581.72 277.75 L 583.19 277.75 L 584.67 277.75 L 586.14 277.75 L 587.61 277.75 L 589.08 277.75 L 590.56 277.75 L 592.03 277.75 L 593.50 277.75 L 594.97 277.75 L 596.44 277.75 L 597.92 277.75 L 599.39 277.75 L 600.86 277.75 L 602.33 277.75 L 603.81 277.75 L 605.28 277.75 L 606.75 277.75 L 608.22 277.75 L 609.69 277.75 L 611.17 277.75 L 612.64 277.75 L 614.11 277.75 L 615.58 277.75 L 617.06 277.75 L 618.53 277.75 L 620.00 277.75 L 621.47 277.75 L 622.94 277.75 L 624.42 277.75 L 625.89 277.75 L 627.36 277.75 L 628.83 277.75 L 630.31 277.75 L 631.78 277.75 L 633.25 277.75 L 634.72 277.75 L 636.19 277.75 L 637.67 277.75 L 639.14 277.75 L 640.61 277.75 L 642.08 277.75 L 643.56 277.75 L 645.03 277.75 L 646.50 277.75 L 647.97 277.75 L 649.44 277.75 L 650.92 277.75 L 652.39 277.75 L 653.86 277.75 L 655.33 277.75 L 656.81 277.75 L 658.28 277.75 L 659.75 277.75 L 661.22 277.75 L 662.69 277.75 L 664.17 277.75 L 665.64 277.75 L 667.11 277.75 L 668.58 277.75 L 670.06 277.75 L 671.53 277.75 L 673.00 277.75 L 674.47 277.75 L 675.94 277.75 L 677.42 277.75 L 678.89 277.75 L 680.36 277.75 L 681.83 277.75 L 683.31 277.75 L 684.78 277.75 L 686.25 277.75 L 687.72 277.75 L 689.19 277.75 L 690.67 277.75 L 692.14 266.79 L 693.61 264.84 L 695.08 262.21 L 696.56 257.07 L 698.03 260.12 L 699.50 259.29 L 700.97 260.26 L 702.44 264.84 L 703.92 254.16 L 705.39 256.24 L 706.86 253.32 L 708.33 253.05 L 709.81 254.43 L 711.28 254.57 L 712.75 256.38 L 714.22 249.16 L 715.69 252.77 L 717.17 251.80 L 718.64 254.57 L 720.11 249.58 L 721.58 248.88 L 723.06 246.39 L 724.53 243.75 L 726.00 242.36 L 727.47 240.56 L 728.94 241.11 L 730.42 240.97 L 731.89 241.53 L 733.36 226.54 L 734.83 228.07 L 736.31 226.54 L 737.78 225.43 L 739.25 224.87 L 740.72 221.54 L 742.19 224.74 L 743.67 225.01 L 745.14 233.06 L 746.61 223.07 L 748.08 224.18 L 749.56 231.12 L 751.03 227.65 L 752.50 221.41 L 753.97 220.71 L 755.44 220.30 L 756.92 223.90 L 758.39 224.60 L 759.86 231.81 L 761.33 228.62 L 762.81 221.96 L 764.28 222.79 L 765.75 222.24 L 767.22 219.05 L 768.69 209.61 L 770.17 211.00 L 771.64 211.83 L 773.11 205.58 L 774.58 205.58 L 776.06 203.64 L 777.53 206.14 L 779.00 209.89 L 780.47 208.92 L 781.94 209.33 L 783.42 212.80 L 784.89 215.85 L 786.36 210.44 L 787.83 209.47 L 789.31 204.34 L 790.78 198.92 L 792.25 201.42 L 793.72 200.59 L 795.19 201.56 L 796.67 206.97 L 798.14 204.89 L 799.61 209.75 L 801.08 205.31 L 802.56 204.47 L 804.03 200.31 L 805.50 202.67 L 806.97 211.41 L 808.44 216.55 L 809.92 208.36 L 811.39 210.03 L 812.86 203.64 L 814.33 182.13 L 815.81 205.86 L 817.28 205.72 L 818.75 217.24 L 820.22 225.43 L 821.69 244.58 L 823.17 259.57 L 824.64 277.75 L 826.11 277.75 L 827.58 277.75 L 829.06 277.75 L 830.53 277.75 L 832.00 259.99 L 833.47 259.71 L 834.94 257.21 L 836.42 258.46 L 837.89 253.32 L 839.36 252.08 L 840.83 245.14 L 842.31 245.00 L 843.78 242.50 L 845.25 235.28 L 846.72 233.20 L 848.19 229.18 L 849.67 222.24 L 851.14 226.26 L 852.61 230.29 L 854.08 233.90 L 855.56 230.56 L 857.03 235.01 L 858.50 235.01 L 859.97 232.37 L 861.44 233.76 L 862.92 237.23 L 864.39 244.44 L 865.86 245.69 L 867.33 248.61 L 868.81 248.88 L 870.28 249.16 L 871.75 253.74 L 873.22 248.19 L 874.69 246.25 L 876.17 246.39 L 877.64 246.39 L 879.11 246.94 L 880.58 247.36 L 882.06 247.08 L 883.53 246.66 L 885.00 246.80 L 886.47 247.63 L 887.94 248.05 L 889.42 247.63 L 890.89 246.52 L 892.36 246.94 L 893.83 246.80 L 895.31 248.05 L 896.78 247.50 L 898.25 247.91 L 899.72 249.30 L 901.19 249.16 L 902.67 247.77 L 904.14 248.88 L 905.61 248.47 L 907.08 248.74 L 908.56 249.16 L 910.03 249.02 L 911.50 248.47 L 912.97 248.74 L 914.44 248.88 L 915.92 249.16 L 917.39 248.47 L 918.86 248.88 L 920.33 248.61 L 921.81 248.47 L 923.28 249.16 L 924.75 248.74 L 926.22 251.10 L 927.69 251.66 L 929.17 252.77 L 930.64 252.08 L 932.11 251.38 L 933.58 249.86 L 935.06 250.27 L 936.53 251.10 L 938.00 250.27 L 939.47 248.88 L 940.94 248.61 L 942.42 247.91 L 943.89 247.22 L 945.36 246.94 L 946.83 246.94 L 948.31 246.25 L 949.78 246.39 L 951.25 247.08 L 952.72 248.19 L 954.19 247.36 L 955.67 247.08" stroke="#1976D2" />
<text x="90" y="289.75" font-size="14" font-weight="700">Inclinação (graus)</text>
<rect class="event" x="443.33" y="295.75" width="247.33" height="192.75" />
<line class="eventline" x1="443.33" y1="295.75" x2="443.33" y2="488.50" />
<line class="eventline" x1="690.67" y1="295.75" x2="690.67" y2="488.50" />
<line class="grid" x1="90" y1="488.50" x2="1150" y2="488.50" />
<text class="small" x="80" y="492.50" text-anchor="end">-10.0</text>
<line class="grid" x1="90" y1="449.95" x2="1150" y2="449.95" />
<text class="small" x="80" y="453.95" text-anchor="end">0.00</text>
<line class="grid" x1="90" y1="411.40" x2="1150" y2="411.40" />
<text class="small" x="80" y="415.40" text-anchor="end">10.0</text>
<line class="grid" x1="90" y1="372.85" x2="1150" y2="372.85" />
<text class="small" x="80" y="376.85" text-anchor="end">20.0</text>
<line class="grid" x1="90" y1="334.30" x2="1150" y2="334.30" />
<text class="small" x="80" y="338.30" text-anchor="end">30.0</text>
<line class="grid" x1="90" y1="295.75" x2="1150" y2="295.75" />
<text class="small" x="80" y="299.75" text-anchor="end">40.0</text>
<line class="grid" x1="90.00" y1="295.75" x2="90.00" y2="488.50" />
<line class="grid" x1="266.67" y1="295.75" x2="266.67" y2="488.50" />
<line class="grid" x1="443.33" y1="295.75" x2="443.33" y2="488.50" />
<line class="grid" x1="620.00" y1="295.75" x2="620.00" y2="488.50" />
<line class="grid" x1="796.67" y1="295.75" x2="796.67" y2="488.50" />
<line class="grid" x1="973.33" y1="295.75" x2="973.33" y2="488.50" />
<line class="grid" x1="1150.00" y1="295.75" x2="1150.00" y2="488.50" />
<line class="axis" x1="90" y1="295.75" x2="90" y2="488.50" />
<line class="axis" x1="90" y1="488.50" x2="1150" y2="488.50" />
<path class="series" d="M 178.33 373.16 L 179.81 374.94 L 181.28 374.33 L 182.75 374.58 L 184.22 375.39 L 185.69 375.23 L 187.17 382.14 L 188.64 392.34 L 190.11 389.53 L 191.58 396.10 L 193.06 395.93 L 194.53 392.56 L 196.00 392.13 L 197.47 387.68 L 198.94 388.48 L 200.42 394.23 L 201.89 394.66 L 203.36 392.58 L 204.83 389.44 L 206.31 394.22 L 207.78 397.98 L 209.25 393.56 L 210.72 393.95 L 212.19 395.13 L 213.67 393.92 L 215.14 415.94 L 216.61 402.80 L 218.08 385.81 L 219.56 386.45 L 221.03 402.69 L 222.50 391.35 L 223.97 397.35 L 225.44 394.97 L 226.92 396.03 L 228.39 402.38 L 229.86 394.53 L 231.33 394.43 L 232.81 398.48 L 234.28 401.82 L 235.75 391.74 L 237.22 396.12 L 238.69 400.21 L 240.17 394.99 L 241.64 399.41 L 243.11 418.62 L 244.58 418.31 L 246.06 423.55 L 247.53 416.79 L 249.00 420.60 L 250.47 419.65 L 251.94 402.15 L 253.42 403.38 L 254.89 404.49 L 256.36 406.97 L 257.83 407.25 L 259.31 397.78 L 260.78 403.84 L 262.25 392.96 L 263.72 397.80 L 265.19 396.70 L 266.67 398.20 L 268.14 393.44 L 269.61 392.81 L 271.08 392.90 L 272.56 395.94 L 274.03 395.53 L 275.50 397.84 L 276.97 398.81 L 278.44 390.85 L 279.92 385.42 L 281.39 401.24 L 282.86 410.91 L 284.33 420.62 L 285.81 403.26 L 287.28 402.68 L 288.75 410.01 L 290.22 409.21 L 291.69 413.93 L 293.17 402.97 L 294.64 400.58 L 296.11 401.01 L 297.58 396.45 L 299.06 397.55 L 300.53 397.46 L 302.00 407.54 L 303.47 410.23 L 304.94 412.97 L 306.42 410.38 L 307.89 426.53 L 309.36 411.82 L 310.83 404.60 L 312.31 406.80 L 313.78 409.12 L 315.25 408.33 L 316.72 403.51 L 318.19 417.39 L 319.67 406.29 L 321.14 406.81 L 322.61 403.63 L 324.08 396.47 L 325.56 387.08 L 327.03 390.60 L 328.50 387.50 L 329.97 387.50 L 331.44 398.65 L 332.92 395.83 L 334.39 390.59 L 335.86 381.09 L 337.33 395.40 L 338.81 397.52 L 340.28 396.78 L 341.75 396.67 L 343.22 397.95 L 344.69 396.73 L 346.17 397.56 L 347.64 397.49 L 349.11 397.42 L 350.58 397.41 L 352.06 397.41 L 353.53 397.46 L 355.00 397.42 L 356.47 397.43 L 357.94 397.41 L 359.42 397.38 L 360.89 397.42 L 362.36 397.42 L 363.83 397.39 L 365.31 397.39 L 366.78 397.38 L 368.25 397.38 L 369.72 397.41 L 371.19 397.44 L 372.67 397.44 L 374.14 397.43 L 375.61 397.35 L 377.08 397.43 L 378.56 397.38 L 380.03 397.38 L 381.50 397.36 L 382.97 397.36 L 384.44 397.41 L 385.92 397.39 L 387.39 397.38 L 388.86 397.76 L 390.33 397.07 L 391.81 388.03 L 393.28 391.86 L 394.75 396.18 L 396.22 390.88 L 397.69 398.06 L 399.17 399.21 L 400.64 398.08 L 402.11 397.58 L 403.58 393.24 L 405.06 389.31 L 406.53 394.69 L 408.00 392.41 L 409.47 390.40 L 410.94 402.02 L 412.42 394.81 L 413.89 382.61 L 415.36 394.74 L 416.83 394.85 L 418.31 391.98 L 419.78 399.26 L 421.25 400.45 L 422.72 402.70 L 424.19 401.36 L 425.67 403.86 L 427.14 404.85 L 428.61 403.72 L 430.08 414.09 L 431.56 406.19 L 433.03 408.74 L 434.50 407.60 L 435.97 398.20 L 437.44 414.93 L 438.92 391.08 L 440.39 408.90 L 441.86 391.45 L 443.33 402.54 L 444.81 391.25 L 446.28 392.49 L 447.75 398.43 L 449.22 389.83 L 450.69 389.73 L 452.17 389.29 L 453.64 389.66 L 455.11 389.26 L 456.58 389.49 L 458.06 389.37 L 459.53 389.44 L 461.00 389.44 L 462.47 389.40 L 463.94 389.32 L 465.42 389.38 L 466.89 389.35 L 468.36 389.35 L 469.83 389.33 L 471.31 389.29 L 472.78 389.31 L 474.25 389.28 L 475.72 389.30 L 477.19 389.26 L 478.67 389.27 L 480.14 389.28 L 481.61 389.28 L 483.08 389.25 L 484.56 389.31 L 486.03 388.78 L 487.50 387.98 L 488.97 388.68 L 490.44 388.33 L 491.92 388.31 L 493.39 388.37 L 494.86 388.31 L 496.33 388.34 L 497.81 388.31 L 499.28 388.31 L 500.75 388.32 L 502.22 388.33 L 503.69 388.34 L 505.17 388.28 L 506.64 388.29 L 508.11 388.32 L 509.58 388.27 L 511.06 388.32 L 512.53 388.28 L 514.00 388.31 L 515.47 388.26 L 516.94 388.29 L 518.42 388.24 L 519.89 388.26 L 521.36 388.26 L 522.83 388.25 L 524.31 388.15 L 525.78 388.40 L 527.25 387.98 L 528.72 387.63 L 530.19 387.42 L 531.67 387.43 L 533.14 387.66 L 534.61 387.52 L 536.08 387.61 L 537.56 387.56 L 539.03 387.57 L 540.50 387.50 L 541.97 387.54 L 543.44 387.52 L 544.92 387.49 L 546.39 387.53 L 547.86 387.56 L 549.33 387.48 L 550.81 387.55 L 552.28 387.49 L 553.75 387.51 L 555.22 387.56 L 556.69 387.53 L 558.17 387.55 L 559.64 387.51 L 561.11 387.56 L 562.58 387.60 L 564.06 387.53 L 565.53 387.41 L 567.00 387.15 L 568.47 387.22 L 569.94 387.20 L 571.42 387.25 L 572.89 387.24 L 574.36 387.22 L 575.83 387.22 L 577.31 387.20 L 578.78 387.19 L 580.25 387.25 L 581.72 387.19 L 583.19 387.17 L 584.67 387.17 L 586.14 387.19 L 587.61 387.25 L 589.08 387.21 L 590.56 387.19 L 592.03 387.19 L 593.50 387.17 L 594.97 387.19 L 596.44 387.18 L 597.92 387.19 L 599.39 387.34 L 600.86 387.01 L 602.33 388.15 L 603.81 387.81 L 605.28 387.86 L 606.75 387.90 L 608.22 387.89 L 609.69 387.86 L 611.17 387.93 L 612.64 387.91 L 614.11 387.90 L 615.58 387.90 L 617.06 387.92 L 618.53 387.92 L 620.00 387.87 L 621.47 387.93 L 622.94 387.93 L 624.42 387.85 L 625.89 387.85 L 627.36 387.88 L 628.83 387.87 L 630.31 387.88 L 631.78 387.90 L 633.25 387.92 L 634.72 387.85 L 636.19 387.86 L 637.67 387.82 L 639.14 387.92 L 640.61 388.93 L 642.08 388.67 L 643.56 389.04 L 645.03 389.07 L 646.50 388.96 L 647.97 389.00 L 649.44 388.99 L 650.92 389.03 L 652.39 389.01 L 653.86 389.04 L 655.33 388.98 L 656.81 389.03 L 658.28 389.03 L 659.75 389.04 L 661.22 389.07 L 662.69 389.09 L 664.17 389.08 L 665.64 389.11 L 667.11 389.12 L 668.58 389.13 L 670.06 388.97 L 671.53 389.60 L 673.00 388.66 L 674.47 389.38 L 675.94 389.01 L 677.42 389.07 L 678.89 388.97 L 680.36 388.83 L 681.83 388.96 L 683.31 389.04 L 684.78 388.98 L 686.25 388.94 L 687.72 388.93 L 689.19 396.26 L 690.67 400.02 L 692.14 395.01 L 693.61 413.01 L 695.08 406.04 L 696.56 410.39 L 698.03 398.01 L 699.50 403.23 L 700.97 408.82 L 702.44 404.03 L 703.92 394.17 L 705.39 384.61 L 706.86 389.12 L 708.33 392.20 L 709.81 393.65 L 711.28 398.96 L 712.75 404.24 L 714.22 411.61 L 715.69 399.00 L 717.17 395.07 L 718.64 396.35 L 720.11 397.41 L 721.58 401.37 L 723.06 393.25 L 724.53 402.81 L 726.00 404.89 L 727.47 405.69 L 728.94 404.25 L 730.42 410.96 L 731.89 411.64 L 733.36 408.15 L 734.83 405.97 L 736.31 412.38 L 737.78 411.49 L 739.25 408.94 L 740.72 404.78 L 742.19 394.97 L 743.67 409.69 L 745.14 406.68 L 746.61 404.88 L 748.08 407.19 L 749.56 409.21 L 751.03 409.74 L 752.50 404.75 L 753.97 404.07 L 755.44 405.94 L 756.92 407.93 L 758.39 410.30 L 759.86 411.15 L 761.33 414.83 L 762.81 417.16 L 764.28 418.22 L 765.75 415.07 L 767.22 417.03 L 768.69 413.54 L 770.17 404.29 L 771.64 411.19 L 773.11 414.22 L 774.58 411.88 L 776.06 409.37 L 777.53 400.59 L 779.00 406.34 L 780.47 404.44 L 781.94 399.32 L 783.42 398.33 L 784.89 401.16 L 786.36 410.45 L 787.83 409.45 L 789.31 413.30 L 790.78 395.76 L 792.25 409.94 L 793.72 402.56 L 795.19 399.48 L 796.67 405.38 L 798.14 408.25 L 799.61 406.69 L 801.08 409.60 L 802.56 407.33 L 804.03 397.44 L 805.50 391.26 L 806.97 405.04 L 808.44 394.73 L 809.92 400.28 L 811.39 396.83 L 812.86 398.46 L 814.33 404.34 L 815.81 405.99 L 817.28 404.52 L 818.75 417.71 L 820.22 412.66 L 821.69 417.50 L 823.17 425.03 L 824.64 426.90 L 826.11 455.17 L 827.58 451.98 L 829.06 446.00 L 830.53 444.29 L 832.00 442.41 L 833.47 436.14 L 834.94 436.79 L 836.42 436.43 L 837.89 431.92 L 839.36 429.93 L 840.83 418.50 L 842.31 412.69 L 843.78 412.79 L 845.25 411.64 L 846.72 417.34 L 848.19 409.61 L 849.67 407.95 L 851.14 406.47 L 852.61 411.75 L 854.08 409.54 L 855.56 397.00 L 857.03 403.35 L 858.50 407.23 L 859.97 406.06 L 861.44 404.48 L 862.92 401.50 L 864.39 413.97 L 865.86 417.51 L 867.33 424.05 L 868.81 427.39 L 870.28 419.17 L 871.75 433.08 L 873.22 425.62 L 874.69 422.48 L 876.17 422.07 L 877.64 423.13 L 879.11 423.96 L 880.58 425.23 L 882.06 425.49 L 883.53 423.73 L 885.00 423.14 L 886.47 424.03 L 887.94 424.38 L 889.42 424.98 L 890.89 423.94 L 892.36 421.95 L 893.83 421.95 L 895.31 422.01 L 896.78 425.05 L 898.25 423.62 L 899.72 423.37 L 901.19 424.11 L 902.67 424.60 L 904.14 425.31 L 905.61 425.57 L 907.08 426.31 L 908.56 427.94 L 910.03 428.28 L 911.50 429.34 L 912.97 428.72 L 914.44 429.98 L 915.92 430.35 L 917.39 431.19 L 918.86 431.87 L 920.33 433.17 L 921.81 432.85 L 923.28 429.14 L 924.75 433.60 L 926.22 435.92 L 927.69 436.00 L 929.17 438.61 L 930.64 437.42 L 932.11 438.87 L 933.58 439.12 L 935.06 438.61 L 936.53 437.60 L 938.00 436.65 L 939.47 436.88 L 940.94 435.95 L 942.42 435.63 L 943.89 435.37 L 945.36 434.47 L 946.83 433.10 L 948.31 433.56 L 949.78 431.60 L 951.25 431.02 L 952.72 434.58 L 954.19 434.73 L 955.67 434.63" stroke="#2E7D32" />
<path class="series" d="M 178.33 435.12 L 179.81 432.34 L 181.28 439.14 L 182.75 442.10 L 184.22 442.41 L 185.69 438.82 L 187.17 430.13 L 188.64 427.26 L 190.11 435.44 L 191.58 438.89 L 193.06 441.67 L 194.53 444.11 L 196.00 445.15 L 197.47 441.50 L 198.94 436.94 L 200.42 439.59 L 201.89 433.89 L 203.36 435.73 L 204.83 443.94 L 206.31 432.07 L 207.78 424.82 L 209.25 423.30 L 210.72 431.71 L 212.19 416.70 L 213.67 417.12 L 215.14 431.42 L 216.61 442.56 L 218.08 434.39 L 219.56 425.78 L 221.03 443.53 L 222.50 444.42 L 223.97 457.43 L 225.44 460.99 L 226.92 431.37 L 228.39 448.58 L 229.86 452.47 L 231.33 465.35 L 232.81 452.81 L 234.28 448.28 L 235.75 447.48 L 237.22 447.00 L 238.69 443.61 L 240.17 443.49 L 241.64 436.65 L 243.11 433.57 L 244.58 432.70 L 246.06 434.34 L 247.53 445.10 L 249.00 441.43 L 250.47 443.87 L 251.94 436.37 L 253.42 453.54 L 254.89 448.36 L 256.36 465.30 L 257.83 459.56 L 259.31 453.10 L 260.78 449.69 L 262.25 432.95 L 263.72 434.12 L 265.19 442.70 L 266.67 460.70 L 268.14 448.23 L 269.61 447.13 L 271.08 457.34 L 272.56 450.66 L 274.03 451.51 L 275.50 452.58 L 276.97 458.22 L 278.44 452.64 L 279.92 451.79 L 281.39 457.20 L 282.86 462.93 L 284.33 454.61 L 285.81 444.38 L 287.28 452.92 L 288.75 451.37 L 290.22 455.09 L 291.69 457.68 L 293.17 457.93 L 294.64 448.89 L 296.11 454.31 L 297.58 457.15 L 299.06 455.15 L 300.53 452.64 L 302.00 459.43 L 303.47 438.16 L 304.94 454.38 L 306.42 452.41 L 307.89 452.32 L 309.36 448.93 L 310.83 454.01 L 312.31 456.24 L 313.78 444.18 L 315.25 440.12 L 316.72 442.91 L 318.19 433.60 L 319.67 439.70 L 321.14 426.53 L 322.61 442.77 L 324.08 455.15 L 325.56 454.25 L 327.03 447.90 L 328.50 441.28 L 329.97 441.28 L 331.44 443.16 L 332.92 452.92 L 334.39 448.96 L 335.86 451.46 L 337.33 451.06 L 338.81 452.59 L 340.28 450.54 L 341.75 451.39 L 343.22 451.38 L 344.69 452.28 L 346.17 451.42 L 347.64 451.93 L 349.11 451.65 L 350.58 451.62 L 352.06 451.76 L 353.53 451.58 L 355.00 451.66 L 356.47 451.70 L 357.94 451.65 L 359.42 451.71 L 360.89 451.72 L 362.36 451.68 L 363.83 451.66 L 365.31 451.69 L 366.78 451.65 L 368.25 451.67 L 369.72 451.68 L 371.19 451.79 L 372.67 451.75 L 374.14 451.56 L 375.61 451.84 L 377.08 451.80 L 378.56 451.54 L 380.03 451.80 L 381.50 451.75 L 382.97 451.68 L 384.44 451.71 L 385.92 451.78 L 387.39 451.90 L 388.86 451.34 L 390.33 451.43 L 391.81 454.79 L 393.28 453.24 L 394.75 452.86 L 396.22 454.86 L 397.69 446.46 L 399.17 452.13 L 400.64 446.85 L 402.11 447.78 L 403.58 457.74 L 405.06 455.34 L 406.53 449.42 L 408.00 455.09 L 409.47 447.15 L 410.94 447.79 L 412.42 456.04 L 413.89 468.87 L 415.36 441.27 L 416.83 457.48 L 418.31 449.46 L 419.78 441.82 L 421.25 444.95 L 422.72 447.85 L 424.19 449.74 L 425.67 453.55 L 427.14 450.77 L 428.61 450.18 L 430.08 445.46 L 431.56 458.05 L 433.03 450.32 L 434.50 452.32 L 435.97 457.43 L 437.44 453.21 L 438.92 451.93 L 440.39 457.70 L 441.86 460.56 L 443.33 453.83 L 444.81 452.28 L 446.28 451.32 L 447.75 450.55 L 449.22 450.05 L 450.69 449.89 L 452.17 450.11 L 453.64 450.86 L 455.11 450.62 L 456.58 450.49 L 458.06 450.22 L 459.53 450.52 L 461.00 450.52 L 462.47 450.41 L 463.94 450.52 L 465.42 450.48 L 466.89 450.40 L 468.36 450.54 L 469.83 450.45 L 471.31 450.42 L 472.78 450.43 L 474.25 450.44 L 475.72 450.48 L 477.19 450.45 L 478.67 450.44 L 480.14 450.46 L 481.61 450.40 L 483.08 450.45 L 484.56 450.35 L 486.03 450.17 L 487.50 450.14 L 488.97 450.55 L 490.44 450.32 L 491.92 449.86 L 493.39 449.99 L 494.86 450.23 L 496.33 450.29 L 497.81 450.18 L 499.28 450.09 L 500.75 450.16 L 502.22 450.18 L 503.69 450.21 L 505.17 450.14 L 506.64 450.13 L 508.11 450.15 L 509.58 450.18 L 511.06 450.15 L 512.53 450.21 L 514.00 450.19 L 515.47 450.13 L 516.94 450.15 L 518.42 450.15 L 519.89 450.21 L 521.36 450.21 L 522.83 450.14 L 524.31 450.20 L 525.78 450.37 L 527.25 450.20 L 528.72 450.36 L 530.19 450.29 L 531.67 450.53 L 533.14 450.56 L 534.61 450.60 L 536.08 450.47 L 537.56 450.44 L 539.03 450.39 L 540.50 450.34 L 541.97 450.41 L 543.44 450.39 L 544.92 450.43 L 546.39 450.44 L 547.86 450.42 L 549.33 450.43 L 550.81 450.43 L 552.28 450.39 L 553.75 450.45 L 555.22 450.41 L 556.69 450.42 L 558.17 450.47 L 559.64 450.47 L 561.11 450.45 L 562.58 450.46 L 564.06 450.47 L 565.53 450.29 L 567.00 449.51 L 568.47 449.40 L 569.94 449.48 L 571.42 449.65 L 572.89 449.60 L 574.36 449.54 L 575.83 449.61 L 577.31 449.48 L 578.78 449.54 L 580.25 449.53 L 581.72 449.53 L 583.19 449.52 L 584.67 449.47 L 586.14 449.50 L 587.61 449.55 L 589.08 449.54 L 590.56 449.49 L 592.03 449.51 L 593.50 449.54 L 594.97 449.48 L 596.44 449.53 L 597.92 449.49 L 599.39 449.74 L 600.86 448.73 L 602.33 448.57 L 603.81 448.73 L 605.28 448.36 L 606.75 448.68 L 608.22 448.50 L 609.69 448.48 L 611.17 448.56 L 612.64 448.58 L 614.11 448.56 L 615.58 448.56 L 617.06 448.48 L 618.53 448.58 L 620.00 448.52 L 621.47 448.47 L 622.94 448.55 L 624.42 448.47 L 625.89 448.55 L 627.36 448.48 L 628.83 448.55 L 630.31 448.53 L 631.78 448.49 L 633.25 448.48 L 634.72 448.51 L 636.19 448.52 L 637.67 448.36 L 639.14 448.84 L 640.61 448.99 L 642.08 449.16 L 643.56 448.56 L 645.03 448.86 L 646.50 448.91 L 647.97 448.99 L 649.44 448.96 L 650.92 448.92 L 652.39 448.90 L 653.86 448.85 L 655.33 448.82 L 656.81 448.86 L 658.28 448.76 L 659.75 448.82 L 661.22 448.83 L 662.69 448.87 L 664.17 448.83 L 665.64 448.87 L 667.11 448.89 L 668.58 448.85 L 670.06 448.85 L 671.53 449.28 L 673.00 448.82 L 674.47 449.17 L 675.94 448.69 L 677.42 448.98 L 678.89 448.91 L 680.36 448.86 L 681.83 448.84 L 683.31 448.85 L 684.78 448.83 L 686.25 448.81 L 687.72 448.84 L 689.19 449.15 L 690.67 453.01 L 692.14 451.84 L 693.61 455.75 L 695.08 450.47 L 696.56 466.32 L 698.03 452.68 L 699.50 440.28 L 700.97 453.73 L 702.44 449.56 L 703.92 451.73 L 705.39 446.19 L 706.86 447.57 L 708.33 452.32 L 709.81 450.47 L 711.28 456.26 L 712.75 456.60 L 714.22 447.50 L 715.69 453.57 L 717.17 453.16 L 718.64 460.99 L 720.11 446.80 L 721.58 428.85 L 723.06 443.79 L 724.53 438.79 L 726.00 456.42 L 727.47 448.38 L 728.94 449.63 L 730.42 441.36 L 731.89 427.58 L 733.36 438.12 L 734.83 440.44 L 736.31 446.18 L 737.78 444.59 L 739.25 439.17 L 740.72 439.44 L 742.19 445.89 L 743.67 450.39 L 745.14 447.50 L 746.61 449.16 L 748.08 435.24 L 749.56 428.93 L 751.03 450.39 L 752.50 436.73 L 753.97 453.63 L 755.44 455.91 L 756.92 452.36 L 758.39 445.50 L 759.86 447.80 L 761.33 439.69 L 762.81 449.32 L 764.28 445.56 L 765.75 451.91 L 767.22 456.58 L 768.69 453.00 L 770.17 449.32 L 771.64 442.33 L 773.11 444.47 L 774.58 442.36 L 776.06 443.13 L 777.53 440.14 L 779.00 438.50 L 780.47 450.29 L 781.94 453.71 L 783.42 450.84 L 784.89 460.75 L 786.36 462.85 L 787.83 465.77 L 789.31 459.68 L 790.78 442.10 L 792.25 454.34 L 793.72 456.10 L 795.19 455.08 L 796.67 462.26 L 798.14 462.93 L 799.61 453.43 L 801.08 453.07 L 802.56 455.53 L 804.03 428.17 L 805.50 445.66 L 806.97 448.33 L 808.44 448.19 L 809.92 459.17 L 811.39 457.06 L 812.86 465.20 L 814.33 461.31 L 815.81 462.96 L 817.28 449.49 L 818.75 452.86 L 820.22 457.43 L 821.69 454.85 L 823.17 453.51 L 824.64 452.17 L 826.11 451.27 L 827.58 452.61 L 829.06 450.33 L 830.53 450.02 L 832.00 447.68 L 833.47 447.97 L 834.94 441.73 L 836.42 440.03 L 837.89 443.87 L 839.36 442.03 L 840.83 446.21 L 842.31 447.93 L 843.78 455.00 L 845.25 458.00 L 846.72 465.97 L 848.19 449.26 L 849.67 450.66 L 851.14 467.49 L 852.61 464.97 L 854.08 470.43 L 855.56 464.49 L 857.03 473.47 L 858.50 474.26 L 859.97 477.86 L 861.44 472.13 L 862.92 467.90 L 864.39 460.24 L 865.86 465.56 L 867.33 451.89 L 868.81 464.10 L 870.28 456.56 L 871.75 463.30 L 873.22 458.83 L 874.69 458.78 L 876.17 458.16 L 877.64 456.83 L 879.11 456.43 L 880.58 456.04 L 882.06 455.15 L 883.53 452.94 L 885.00 453.23 L 886.47 453.01 L 887.94 453.05 L 889.42 452.25 L 890.89 452.15 L 892.36 447.59 L 893.83 447.59 L 895.31 448.84 L 896.78 448.70 L 898.25 446.61 L 899.72 448.18 L 901.19 446.75 L 902.67 447.28 L 904.14 446.62 L 905.61 445.90 L 907.08 444.73 L 908.56 444.31 L 910.03 444.39 L 911.50 445.00 L 912.97 446.44 L 914.44 446.84 L 915.92 448.07 L 917.39 448.85 L 918.86 447.16 L 920.33 450.58 L 921.81 449.29 L 923.28 447.87 L 924.75 449.68 L 926.22 445.75 L 927.69 445.43 L 929.17 447.95 L 930.64 450.71 L 932.11 451.40 L 933.58 450.51 L 935.06 452.09 L 936.53 451.80 L 938.00 453.28 L 939.47 455.51 L 940.94 450.88 L 942.42 453.53 L 943.89 452.11 L 945.36 450.98 L 946.83 452.55 L 948.31 452.83 L 949.78 453.72 L 951.25 450.90 L 952.72 451.17 L 954.19 452.51 L 955.67 454.56" stroke="#6A1B9A" />
<line x1="900.00" y1="307.75" x2="918.00" y2="307.75" stroke="#2E7D32" stroke-width="3" />
<text class="small" x="924.00" y="311.75">pitch</text>
<line x1="900.00" y1="323.75" x2="918.00" y2="323.75" stroke="#6A1B9A" stroke-width="3" />
<text class="small" x="924.00" y="327.75">roll</text>
<text x="90" y="500.50" font-size="14" font-weight="700">Aceleração (magnitude) (u.a.)</text>
<rect class="event" x="443.33" y="506.50" width="247.33" height="192.75" />
<line class="eventline" x1="443.33" y1="506.50" x2="443.33" y2="699.25" />
<line class="eventline" x1="690.67" y1="506.50" x2="690.67" y2="699.25" />
<line class="grid" x1="90" y1="699.25" x2="1150" y2="699.25" />
<text class="small" x="80" y="703.25" text-anchor="end">0.00</text>
<line class="grid" x1="90" y1="660.70" x2="1150" y2="660.70" />
<text class="small" x="80" y="664.70" text-anchor="end">0.50</text>
<line class="grid" x1="90" y1="622.15" x2="1150" y2="622.15" />
<text class="small" x="80" y="626.15" text-anchor="end">1.00</text>
<line class="grid" x1="90" y1="583.60" x2="1150" y2="583.60" />
<text class="small" x="80" y="587.60" text-anchor="end">1.50</text>
<line class="grid" x1="90" y1="545.05" x2="1150" y2="545.05" />
<text class="small" x="80" y="549.05" text-anchor="end">2.00</text>
<line class="grid" x1="90" y1="506.50" x2="1150" y2="506.50" />
<text class="small" x="80" y="510.50" text-anchor="end">2.50</text>
<line class="grid" x1="90.00" y1="506.50" x2="90.00" y2="699.25" />
<line class="grid" x1="266.67" y1="506.50" x2="266.67" y2="699.25" />
<line class="grid" x1="443.33" y1="506.50" x2="443.33" y2="699.25" />
<line class="grid" x1="620.00" y1="506.50" x2="620.00" y2="699.25" />
<line class="grid" x1="796.67" y1="506.50" x2="796.67" y2="699.25" />
<line class="grid" x1="973.33" y1="506.50" x2="973.33" y2="699.25" />
<line class="grid" x1="1150.00" y1="506.50" x2="1150.00" y2="699.25" />
<line class="axis" x1="90" y1="506.50" x2="90" y2="699.25" />
<line class="axis" x1="90" y1="699.25" x2="1150" y2="699.25" />
<path class="series" d="M 178.33 683.94 L 179.81 682.61 L 181.28 688.96 L 182.75 683.44 L 184.22 689.84 L 185.69 693.06 L 187.17 676.14 L 188.64 670.17 L 190.11 684.20 L 191.58 672.22 L 193.06 679.60 L 194.53 682.06 L 196.00 683.42 L 197.47 674.51 L 198.94 687.94 L 200.42 689.70 L 201.89 697.59 L 203.36 679.26 L 204.83 661.09 L 206.31 644.43 L 207.78 660.69 L 209.25 671.82 L 210.72 683.28 L 212.19 680.38 L 213.67 686.37 L 215.14 633.12 L 216.61 658.21 L 218.08 662.58 L 219.56 589.23 L 221.03 620.90 L 222.50 650.15 L 223.97 591.47 L 225.44 623.61 L 226.92 604.26 L 228.39 641.62 L 229.86 631.78 L 231.33 658.08 L 232.81 674.03 L 234.28 657.49 L 235.75 643.63 L 237.22 693.46 L 238.69 669.82 L 240.17 681.95 L 241.64 654.95 L 243.11 636.22 L 244.58 678.56 L 246.06 649.94 L 247.53 649.94 L 249.00 665.67 L 250.47 669.76 L 251.94 673.67 L 253.42 654.27 L 254.89 670.38 L 256.36 671.82 L 257.83 669.48 L 259.31 677.68 L 260.78 670.78 L 262.25 680.62 L 263.72 634.22 L 265.19 664.55 L 266.67 651.92 L 268.14 660.23 L 269.61 661.81 L 271.08 636.01 L 272.56 667.83 L 274.03 609.83 L 275.50 662.03 L 276.97 666.70 L 278.44 666.41 L 279.92 673.22 L 281.39 665.73 L 282.86 648.20 L 284.33 673.11 L 285.81 671.09 L 287.28 659.09 L 288.75 691.28 L 290.22 656.99 L 291.69 685.47 L 293.17 680.12 L 294.64 686.91 L 296.11 688.06 L 297.58 687.10 L 299.06 676.44 L 300.53 659.89 L 302.00 663.29 L 303.47 688.59 L 304.94 674.31 L 306.42 691.78 L 307.89 682.84 L 309.36 651.39 L 310.83 637.78 L 312.31 676.77 L 313.78 660.41 L 315.25 669.56 L 316.72 686.58 L 318.19 646.29 L 319.67 653.22 L 321.14 674.08 L 322.61 647.14 L 324.08 663.19 L 325.56 677.68 L 327.03 684.75 L 328.50 665.05 L 329.97 660.62 L 331.44 677.82 L 332.92 685.11 L 334.39 650.44 L 335.86 693.43 L 337.33 686.15 L 338.81 695.36 L 340.28 697.81 L 341.75 695.07 L 343.22 692.87 L 344.69 697.67 L 346.17 698.79 L 347.64 698.54 L 349.11 698.81 L 350.58 698.92 L 352.06 699.05 L 353.53 698.99 L 355.00 699.10 L 356.47 699.12 L 357.94 699.18 L 359.42 699.08 L 360.89 699.09 L 362.36 699.11 L 363.83 699.16 L 365.31 699.17 L 366.78 699.19 L 368.25 699.10 L 369.72 699.11 L 371.19 699.10 L 372.67 699.12 L 374.14 699.16 L 375.61 699.08 L 377.08 699.08 L 378.56 698.81 L 380.03 698.90 L 381.50 698.98 L 382.97 699.00 L 384.44 698.92 L 385.92 698.98 L 387.39 697.51 L 388.86 697.08 L 390.33 688.66 L 391.81 693.49 L 393.28 687.86 L 394.75 697.48 L 396.22 684.79 L 397.69 684.35 L 399.17 676.35 L 400.64 675.56 L 402.11 697.06 L 403.58 688.13 L 405.06 677.79 L 406.53 685.16 L 408.00 663.09 L 409.47 665.24 L 410.94 695.08 L 412.42 668.80 L 413.89 688.82 L 415.36 665.74 L 416.83 678.79 L 418.31 684.28 L 419.78 684.28 L 421.25 683.69 L 422.72 680.48 L 424.19 677.97 L 425.67 694.86 L 427.14 684.13 L 428.61 689.06 L 430.08 676.83 L 431.56 675.97 L 433.03 688.56 L 434.50 684.85 L 435.97 675.77 L 437.44 681.24 L 438.92 672.75 L 440.39 686.36 L 441.86 680.23 L 443.33 673.69 L 444.81 691.66 L 446.28 691.71 L 447.75 668.26 L 449.22 685.65 L 450.69 695.15 L 452.17 686.52 L 453.64 691.88 L 455.11 696.59 L 456.58 698.04 L 458.06 698.74 L 459.53 698.84 L 461.00 698.91 L 462.47 699.07 L 463.94 698.98 L 465.42 699.13 L 466.89 699.14 L 468.36 699.15 L 469.83 699.09 L 471.31 699.03 L 472.78 699.15 L 474.25 699.17 L 475.72 698.98 L 477.19 699.06 L 478.67 699.12 L 480.14 699.14 L 481.61 699.14 L 483.08 699.15 L 484.56 698.95 L 486.03 697.19 L 487.50 691.51 L 488.97 694.41 L 490.44 696.84 L 491.92 698.68 L 493.39 698.41 L 494.86 698.89 L 496.33 698.78 L 497.81 698.95 L 499.28 699.01 L 500.75 699.12 L 502.22 699.10 L 503.69 699.02 L 505.17 699.22 L 506.64 699.07 L 508.11 699.12 L 509.58 699.05 L 511.06 699.10 L 512.53 699.09 L 514.00 699.06 L 515.47 699.10 L 516.94 699.11 L 518.42 698.93 L 519.89 699.01 L 521.36 699.04 L 522.83 698.94 L 524.31 698.24 L 525.78 698.26 L 527.25 695.45 L 528.72 693.21 L 530.19 698.03 L 531.67 698.09 L 533.14 698.61 L 534.61 698.66 L 536.08 698.97 L 537.56 699.18 L 539.03 699.05 L 540.50 698.97 L 541.97 699.10 L 543.44 699.10 L 544.92 699.07 L 546.39 699.17 L 547.86 699.02 L 549.33 699.12 L 550.81 699.19 L 552.28 699.11 L 553.75 699.16 L 555.22 699.00 L 556.69 699.10 L 558.17 699.03 L 559.64 698.93 L 561.11 699.04 L 562.58 699.10 L 564.06 698.21 L 565.53 698.88 L 567.00 696.62 L 568.47 697.69 L 569.94 698.69 L 571.42 699.14 L 572.89 699.21 L 574.36 699.18 L 575.83 699.10 L 577.31 699.05 L 578.78 699.16 L 580.25 699.18 L 581.72 698.96 L 583.19 698.88 L 584.67 698.97 L 586.14 699.13 L 587.61 699.14 L 589.08 699.14 L 590.56 699.02 L 592.03 699.09 L 593.50 699.08 L 594.97 699.15 L 596.44 699.08 L 597.92 699.01 L 599.39 698.92 L 600.86 698.60 L 602.33 696.78 L 603.81 695.88 L 605.28 696.58 L 606.75 698.59 L 608.22 698.78 L 609.69 698.85 L 611.17 698.99 L 612.64 699.05 L 614.11 699.10 L 615.58 699.05 L 617.06 699.05 L 618.53 699.04 L 620.00 699.12 L 621.47 699.08 L 622.94 699.16 L 624.42 698.97 L 625.89 699.20 L 627.36 698.98 L 628.83 699.16 L 630.31 699.03 L 631.78 699.05 L 633.25 699.08 L 634.72 698.95 L 636.19 699.10 L 637.67 698.73 L 639.14 697.20 L 640.61 697.65 L 642.08 698.01 L 643.56 698.49 L 645.03 698.32 L 646.50 698.85 L 647.97 698.92 L 649.44 698.99 L 650.92 699.13 L 652.39 698.92 L 653.86 699.03 L 655.33 699.07 L 656.81 698.97 L 658.28 699.06 L 659.75 699.13 L 661.22 699.03 L 662.69 699.12 L 664.17 699.10 L 665.64 699.18 L 667.11 699.08 L 668.58 698.47 L 670.06 698.40 L 671.53 697.99 L 673.00 697.77 L 674.47 698.63 L 675.94 699.04 L 677.42 698.52 L 678.89 698.86 L 680.36 699.00 L 681.83 698.76 L 683.31 698.90 L 684.78 699.01 L 686.25 698.94 L 687.72 698.94 L 689.19 677.17 L 690.67 671.18 L 692.14 672.62 L 693.61 677.05 L 695.08 684.87 L 696.56 647.29 L 698.03 659.24 L 699.50 663.85 L 700.97 682.66 L 702.44 681.92 L 703.92 677.63 L 705.39 684.82 L 706.86 685.68 L 708.33 686.14 L 709.81 683.04 L 711.28 693.94 L 712.75 680.06 L 714.22 692.02 L 715.69 673.93 L 717.17 671.54 L 718.64 683.43 L 720.11 665.20 L 721.58 658.73 L 723.06 681.71 L 724.53 679.41 L 726.00 679.00 L 727.47 676.02 L 728.94 672.03 L 730.42 670.60 L 731.89 647.21 L 733.36 692.22 L 734.83 661.04 L 736.31 688.32 L 737.78 686.57 L 739.25 692.24 L 740.72 670.43 L 742.19 681.09 L 743.67 668.40 L 745.14 661.36 L 746.61 661.92 L 748.08 688.37 L 749.56 667.45 L 751.03 679.50 L 752.50 663.59 L 753.97 663.59 L 755.44 679.48 L 756.92 673.58 L 758.39 664.61 L 759.86 674.73 L 761.33 682.73 L 762.81 652.45 L 764.28 673.17 L 765.75 660.88 L 767.22 679.89 L 768.69 679.48 L 770.17 673.75 L 771.64 653.35 L 773.11 670.40 L 774.58 660.10 L 776.06 663.57 L 777.53 646.65 L 779.00 676.53 L 780.47 682.43 L 781.94 667.94 L 783.42 658.30 L 784.89 689.34 L 786.36 670.51 L 787.83 675.66 L 789.31 680.12 L 790.78 676.35 L 792.25 674.84 L 793.72 642.07 L 795.19 592.69 L 796.67 624.92 L 798.14 676.40 L 799.61 669.97 L 801.08 682.47 L 802.56 658.58 L 804.03 623.59 L 805.50 658.70 L 806.97 652.57 L 808.44 627.84 L 809.92 603.08 L 811.39 567.51 L 812.86 645.74 L 814.33 692.27 L 815.81 687.10 L 817.28 671.25 L 818.75 639.19 L 820.22 617.68 L 821.69 635.72 L 823.17 660.89 L 824.64 689.75 L 826.11 649.28 L 827.58 640.14 L 829.06 675.39 L 830.53 694.53 L 832.00 695.36 L 833.47 682.99 L 834.94 686.20 L 836.42 693.17 L 837.89 687.16 L 839.36 687.95 L 840.83 694.97 L 842.31 688.78 L 843.78 670.61 L 845.25 676.18 L 846.72 679.38 L 848.19 617.88 L 849.67 654.36 L 851.14 650.62 L 852.61 676.75 L 854.08 657.14 L 855.56 666.63 L 857.03 670.01 L 858.50 670.91 L 859.97 669.17 L 861.44 678.45 L 862.92 657.88 L 864.39 672.40 L 865.86 672.79 L 867.33 663.39 L 868.81 677.51 L 870.28 680.37 L 871.75 664.97 L 873.22 685.52 L 874.69 687.76 L 876.17 691.46 L 877.64 696.97 L 879.11 697.02 L 880.58 697.16 L 882.06 694.14 L 883.53 697.06 L 885.00 697.68 L 886.47 696.65 L 887.94 697.86 L 889.42 695.04 L 890.89 690.80 L 892.36 690.01 L 893.83 690.86 L 895.31 690.75 L 896.78 694.08 L 898.25 693.12 L 899.72 693.34 L 901.19 694.77 L 902.67 696.27 L 904.14 694.53 L 905.61 694.53 L 907.08 695.62 L 908.56 695.99 L 910.03 694.88 L 911.50 697.12 L 912.97 691.21 L 914.44 692.04 L 915.92 694.45 L 917.39 692.74 L 918.86 696.74 L 920.33 688.75 L 921.81 684.49 L 923.28 684.15 L 924.75 689.64 L 926.22 690.47 L 927.69 687.22 L 929.17 694.30 L 930.64 688.63 L 932.11 693.61 L 933.58 694.05 L 935.06 695.48 L 936.53 694.21 L 938.00 696.37 L 939.47 683.21 L 940.94 691.93 L 942.42 691.09 L 943.89 695.00 L 945.36 692.50 L 946.83 686.21 L 948.31 690.41 L 949.78 691.97 L 951.25 691.34 L 952.72 693.74 L 954.19 694.33 L 955.67 697.27" stroke="#FB8C00" />
<text x="90" y="711.25" font-size="14" font-weight="700">Giroscópio (magnitude) (u.a.)</text>
<rect class="event" x="443.33" y="717.25" width="247.33" height="192.75" />
<line class="eventline" x1="443.33" y1="717.25" x2="443.33" y2="910.00" />
<line class="eventline" x1="690.67" y1="717.25" x2="690.67" y2="910.00" />
<line class="grid" x1="90" y1="910.00" x2="1150" y2="910.00" />
<text class="small" x="80" y="914.00" text-anchor="end">0.00</text>
<line class="grid" x1="90" y1="871.45" x2="1150" y2="871.45" />
<text class="small" x="80" y="875.45" text-anchor="end">0.05</text>
<line class="grid" x1="90" y1="832.90" x2="1150" y2="832.90" />
<text class="small" x="80" y="836.90" text-anchor="end">0.10</text>
<line class="grid" x1="90" y1="794.35" x2="1150" y2="794.35" />
<text class="small" x="80" y="798.35" text-anchor="end">0.15</text>
<line class="grid" x1="90" y1="755.80" x2="1150" y2="755.80" />
<text class="small" x="80" y="759.80" text-anchor="end">0.20</text>
<line class="grid" x1="90" y1="717.25" x2="1150" y2="717.25" />
<text class="small" x="80" y="721.25" text-anchor="end">0.25</text>
<line class="grid" x1="90.00" y1="717.25" x2="90.00" y2="910.00" />
<line class="grid" x1="266.67" y1="717.25" x2="266.67" y2="910.00" />
<line class="grid" x1="443.33" y1="717.25" x2="443.33" y2="910.00" />
<line class="grid" x1="620.00" y1="717.25" x2="620.00" y2="910.00" />
<line class="grid" x1="796.67" y1="717.25" x2="796.67" y2="910.00" />
<line class="grid" x1="973.33" y1="717.25" x2="973.33" y2="910.00" />
<line class="grid" x1="1150.00" y1="717.25" x2="1150.00" y2="910.00" />
<line class="axis" x1="90" y1="717.25" x2="90" y2="910.00" />
<line class="axis" x1="90" y1="910.00" x2="1150" y2="910.00" />
<path class="series" d="M 178.33 886.29 L 179.81 882.38 L 181.28 878.22 L 182.75 882.71 L 184.22 876.71 L 185.69 876.02 L 187.17 875.71 L 188.64 884.86 L 190.11 890.73 L 191.58 889.29 L 193.06 890.45 L 194.53 887.80 L 196.00 884.80 L 197.47 884.98 L 198.94 884.82 L 200.42 878.61 L 201.89 885.51 L 203.36 887.66 L 204.83 871.79 L 206.31 886.14 L 207.78 859.06 L 209.25 837.13 L 210.72 848.93 L 212.19 820.42 L 213.67 826.15 L 215.14 821.54 L 216.61 818.06 L 218.08 812.30 L 219.56 822.16 L 221.03 848.98 L 222.50 869.00 L 223.97 858.45 L 225.44 847.23 L 226.92 879.76 L 228.39 881.45 L 229.86 850.80 L 231.33 863.64 L 232.81 888.32 L 234.28 884.57 L 235.75 887.71 L 237.22 877.41 L 238.69 887.41 L 240.17 876.74 L 241.64 884.07 L 243.11 895.12 L 244.58 881.74 L 246.06 877.15 L 247.53 877.15 L 249.00 898.39 L 250.47 895.30 L 251.94 894.12 L 253.42 870.36 L 254.89 894.35 L 256.36 882.56 L 257.83 883.98 L 259.31 869.23 L 260.78 860.44 L 262.25 872.60 L 263.72 877.42 L 265.19 849.15 L 266.67 867.96 L 268.14 877.28 L 269.61 883.96 L 271.08 884.53 L 272.56 886.57 L 274.03 888.80 L 275.50 888.83 L 276.97 890.79 L 278.44 884.44 L 279.92 894.42 L 281.39 882.85 L 282.86 883.96 L 284.33 879.49 L 285.81 895.88 L 287.28 883.91 L 288.75 879.32 L 290.22 892.45 L 291.69 885.57 L 293.17 880.75 L 294.64 894.75 L 296.11 895.86 L 297.58 890.35 L 299.06 891.95 L 300.53 882.91 L 302.00 881.51 L 303.47 890.06 L 304.94 882.00 L 306.42 893.86 L 307.89 873.70 L 309.36 878.10 L 310.83 869.29 L 312.31 881.73 L 313.78 856.91 L 315.25 838.22 L 316.72 812.34 L 318.19 799.71 L 319.67 805.65 L 321.14 826.28 L 322.61 867.85 L 324.08 845.97 L 325.56 810.04 L 327.03 805.58 L 328.50 802.81 L 329.97 861.25 L 331.44 879.56 L 332.92 903.80 L 334.39 902.68 L 335.86 906.44 L 337.33 908.57 L 338.81 909.49 L 340.28 909.45 L 341.75 906.87 L 343.22 908.47 L 344.69 909.43 L 346.17 909.75 L 347.64 909.74 L 349.11 909.71 L 350.58 909.74 L 352.06 909.85 L 353.53 909.81 L 355.00 909.72 L 356.47 909.77 L 357.94 909.82 L 359.42 909.82 L 360.89 909.87 L 362.36 909.91 L 363.83 909.88 L 365.31 909.97 L 366.78 909.88 L 368.25 909.92 L 369.72 909.87 L 371.19 909.88 L 372.67 909.82 L 374.14 909.90 L 375.61 909.86 L 377.08 909.84 L 378.56 909.80 L 380.03 909.57 L 381.50 909.54 L 382.97 909.70 L 384.44 909.69 L 385.92 909.84 L 387.39 908.91 L 388.86 909.11 L 390.33 907.14 L 391.81 898.31 L 393.28 887.38 L 394.75 887.92 L 396.22 893.93 L 397.69 902.56 L 399.17 891.04 L 400.64 889.78 L 402.11 889.28 L 403.58 879.46 L 405.06 857.04 L 406.53 846.05 L 408.00 842.44 L 409.47 852.27 L 410.94 881.62 L 412.42 886.28 L 413.89 845.40 L 415.36 874.67 L 416.83 885.64 L 418.31 894.04 L 419.78 894.04 L 421.25 884.10 L 422.72 898.13 L 424.19 897.32 L 425.67 896.50 L 427.14 898.92 L 428.61 894.51 L 430.08 890.39 L 431.56 883.06 L 433.03 875.40 L 434.50 885.10 L 435.97 896.02 L 437.44 902.32 L 438.92 902.50 L 440.39 904.39 L 441.86 901.82 L 443.33 896.63 L 444.81 897.76 L 446.28 902.38 L 447.75 899.07 L 449.22 905.99 L 450.69 907.43 L 452.17 909.35 L 453.64 907.16 L 455.11 909.57 L 456.58 909.68 L 458.06 909.73 L 459.53 909.75 L 461.00 909.72 L 462.47 909.77 L 463.94 909.72 L 465.42 909.71 L 466.89 909.71 L 468.36 909.51 L 469.83 909.90 L 471.31 909.85 L 472.78 909.92 L 474.25 909.92 L 475.72 909.85 L 477.19 909.73 L 478.67 909.92 L 480.14 909.87 L 481.61 909.86 L 483.08 909.87 L 484.56 909.75 L 486.03 908.33 L 487.50 907.65 L 488.97 909.24 L 490.44 909.87 L 491.92 909.55 L 493.39 909.85 L 494.86 909.84 L 496.33 909.86 L 497.81 909.82 L 499.28 909.81 L 500.75 909.83 L 502.22 909.84 L 503.69 909.90 L 505.17 909.85 L 506.64 909.83 L 508.11 909.95 L 509.58 909.87 L 511.06 909.86 L 512.53 909.87 L 514.00 909.79 L 515.47 909.92 L 516.94 909.78 L 518.42 909.82 L 519.89 909.84 L 521.36 909.84 L 522.83 909.94 L 524.31 909.67 L 525.78 909.66 L 527.25 907.13 L 528.72 908.71 L 530.19 909.61 L 531.67 909.67 L 533.14 909.70 L 534.61 909.75 L 536.08 909.93 L 537.56 909.81 L 539.03 909.89 L 540.50 909.86 L 541.97 909.76 L 543.44 909.82 L 544.92 909.83 L 546.39 909.95 L 547.86 909.97 L 549.33 909.90 L 550.81 909.94 L 552.28 909.83 L 553.75 909.87 L 555.22 909.89 L 556.69 909.85 L 558.17 909.81 L 559.64 909.76 L 561.11 909.89 L 562.58 909.85 L 564.06 909.59 L 565.53 907.24 L 567.00 909.87 L 568.47 909.74 L 569.94 909.84 L 571.42 909.93 L 572.89 909.97 L 574.36 909.82 L 575.83 909.77 L 577.31 909.92 L 578.78 909.77 L 580.25 909.82 L 581.72 909.93 L 583.19 909.72 L 584.67 909.81 L 586.14 909.80 L 587.61 909.87 L 589.08 909.87 L 590.56 909.93 L 592.03 909.91 L 593.50 909.90 L 594.97 909.92 L 596.44 909.90 L 597.92 909.87 L 599.39 909.89 L 600.86 909.27 L 602.33 906.69 L 603.81 909.03 L 605.28 909.77 L 606.75 909.74 L 608.22 909.78 L 609.69 909.71 L 611.17 909.74 L 612.64 909.75 L 614.11 909.81 L 615.58 909.78 L 617.06 909.80 L 618.53 909.79 L 620.00 909.84 L 621.47 909.95 L 622.94 909.91 L 624.42 909.92 L 625.89 909.89 L 627.36 909.83 L 628.83 909.92 L 630.31 909.81 L 631.78 909.91 L 633.25 909.97 L 634.72 909.80 L 636.19 909.78 L 637.67 909.29 L 639.14 908.62 L 640.61 908.20 L 642.08 908.64 L 643.56 909.67 L 645.03 909.80 L 646.50 909.83 L 647.97 909.84 L 649.44 909.83 L 650.92 909.93 L 652.39 909.84 L 653.86 909.82 L 655.33 909.86 L 656.81 909.95 L 658.28 909.84 L 659.75 909.85 L 661.22 909.91 L 662.69 909.88 L 664.17 909.84 L 665.64 909.87 L 667.11 909.82 L 668.58 909.60 L 670.06 908.86 L 671.53 909.10 L 673.00 909.69 L 674.47 909.19 L 675.94 909.82 L 677.42 909.83 L 678.89 909.93 L 680.36 909.86 L 681.83 909.82 L 683.31 909.88 L 684.78 909.81 L 686.25 909.87 L 687.72 909.80 L 689.19 904.23 L 690.67 887.24 L 692.14 888.70 L 693.61 886.60 L 695.08 876.55 L 696.56 859.83 L 698.03 867.39 L 699.50 856.01 L 700.97 864.44 L 702.44 847.23 L 703.92 849.67 L 705.39 853.84 L 706.86 825.54 L 708.33 831.76 L 709.81 838.58 L 711.28 854.03 L 712.75 855.82 L 714.22 855.81 L 715.69 848.11 L 717.17 857.86 L 718.64 870.43 L 720.11 868.89 L 721.58 903.80 L 723.06 891.01 L 724.53 876.05 L 726.00 886.43 L 727.47 886.61 L 728.94 875.62 L 730.42 890.51 L 731.89 888.17 L 733.36 889.58 L 734.83 890.33 L 736.31 900.43 L 737.78 892.38 L 739.25 889.50 L 740.72 870.89 L 742.19 894.49 L 743.67 889.17 L 745.14 884.81 L 746.61 878.83 L 748.08 890.44 L 749.56 862.11 L 751.03 865.28 L 752.50 868.00 L 753.97 868.00 L 755.44 884.45 L 756.92 887.64 L 758.39 886.19 L 759.86 894.16 L 761.33 884.30 L 762.81 878.68 L 764.28 900.50 L 765.75 878.16 L 767.22 880.56 L 768.69 885.02 L 770.17 887.70 L 771.64 893.38 L 773.11 890.63 L 774.58 866.42 L 776.06 867.95 L 777.53 864.42 L 779.00 871.73 L 780.47 887.99 L 781.94 880.24 L 783.42 888.03 L 784.89 880.81 L 786.36 887.52 L 787.83 898.60 L 789.31 879.92 L 790.78 879.32 L 792.25 873.54 L 793.72 860.90 L 795.19 848.49 L 796.67 861.31 L 798.14 889.37 L 799.61 867.90 L 801.08 902.57 L 802.56 892.01 L 804.03 886.67 L 805.50 857.36 L 806.97 872.87 L 808.44 865.57 L 809.92 875.75 L 811.39 894.44 L 812.86 899.77 L 814.33 885.95 L 815.81 894.41 L 817.28 874.49 L 818.75 812.17 L 820.22 886.95 L 821.69 906.27 L 823.17 906.33 L 824.64 905.16 L 826.11 898.26 L 827.58 905.03 L 829.06 901.41 L 830.53 900.53 L 832.00 898.73 L 833.47 897.83 L 834.94 899.78 L 836.42 898.06 L 837.89 891.62 L 839.36 887.22 L 840.83 877.05 L 842.31 861.11 L 843.78 846.42 L 845.25 831.41 L 846.72 840.09 L 848.19 878.25 L 849.67 838.64 L 851.14 835.86 L 852.61 889.27 L 854.08 883.10 L 855.56 834.89 L 857.03 824.42 L 858.50 848.40 L 859.97 841.61 L 861.44 833.80 L 862.92 855.70 L 864.39 867.32 L 865.86 868.05 L 867.33 881.07 L 868.81 902.11 L 870.28 892.26 L 871.75 902.43 L 873.22 896.54 L 874.69 899.52 L 876.17 900.40 L 877.64 902.76 L 879.11 902.92 L 880.58 902.82 L 882.06 903.29 L 883.53 902.45 L 885.00 902.99 L 886.47 903.05 L 887.94 902.97 L 889.42 902.77 L 890.89 904.04 L 892.36 902.70 L 893.83 908.22 L 895.31 907.61 L 896.78 908.67 L 898.25 906.32 L 899.72 906.09 L 901.19 907.48 L 902.67 906.94 L 904.14 902.47 L 905.61 902.47 L 907.08 902.77 L 908.56 903.71 L 910.03 905.01 L 911.50 904.39 L 912.97 903.07 L 914.44 907.05 L 915.92 905.96 L 917.39 907.26 L 918.86 907.26 L 920.33 906.39 L 921.81 903.22 L 923.28 898.62 L 924.75 890.03 L 926.22 887.46 L 927.69 893.29 L 929.17 900.23 L 930.64 897.17 L 932.11 890.48 L 933.58 889.64 L 935.06 892.46 L 936.53 892.95 L 938.00 895.50 L 939.47 900.67 L 940.94 903.51 L 942.42 900.37 L 943.89 901.91 L 945.36 898.91 L 946.83 903.72 L 948.31 903.43 L 949.78 903.30 L 951.25 905.46 L 952.72 907.98 L 954.19 905.84 L 955.67 903.83" stroke="#E53935" />
<text x="620.00" y="952" font-size="15" text-anchor="middle">minutos (relativo ao início do evento)</text>
<text class="small" x="90.00" y="936" text-anchor="middle">-4.00</text>
<text class="small" x="266.67" y="936" text-anchor="middle">-2.00</text>
<text class="small" x="443.33" y="936" text-anchor="middle">0.00</text>
<text class="small" x="620.00" y="936" text-anchor="middle">2.00</text>
<text class="small" x="796.67" y="936" text-anchor="middle">4.00</text>
<text class="small" x="973.33" y="936" text-anchor="middle">6.00</text>
<text class="small" x="1150.00" y="936" text-anchor="middle">8.00</text>
</svg>