<?xml version="1.0" encoding="UTF-8"?>
<svg xmlns="http://www.w3.org/2000/svg" width="1180" height="980" viewBox="0 0 1180 980">
<style>
text { font-family: -apple-system, BlinkMacSystemFont, 'Segoe UI', Roboto, Helvetica, Arial, sans-serif; fill: #111; }
.small { font-size: 12px; fill: #222; }
.title { font-size: 18px; font-weight: 700; }
.axis { stroke: #111; stroke-width: 1.4; }
.grid { stroke: #E6E6E6; stroke-width: 1; }
.event { fill: #FFEB3B; fill-opacity: 0.18; }
.eventline { stroke: #F9A825; stroke-width: 1.2; stroke-dasharray: 4 3; }
.series { fill: none; stroke-width: 1.8; }
</style>
<text class="title" x="90" y="34">ciclo 3 — espera_carregamento — 2025-12-12T15:21:17-03:00 → 2025-12-12T15:23:37-03:00 (span 140s, dur 141s)</text>
<text class="small" x="90" y="54">GPS: -11.699057,-47.157287  hotspot: -11.699,-47.157</text>
<text class="small" x="90" y="70">Janela: -3.00 → 5.33 min (relativo ao início do evento)</text>
<text x="90" y="79.00" font-size="14" font-weight="700">Velocidade (km/h)</text>
<rect class="event" x="443.33" y="85.00" width="206.11" height="192.75" />
<line class="eventline" x1="443.33" y1="85.00" x2="443.33" y2="277.75" />
<line class="eventline" x1="649.44" y1="85.00" x2="649.44" y2="277.75" />
<line class="grid" x1="90" y1="277.75" x2="1150" y2="277.75" />
<text class="small" x="80" y="281.75" text-anchor="end">0.00</text>
<line class="grid" x1="90" y1="239.20" x2="1150" y2="239.20" />
<text class="small" x="80" y="243.20" text-anchor="end">10.0</text>
<line class="grid" x1="90" y1="200.65" x2="1150" y2="200.65" />
<text class="small" x="80" y="204.65" text-anchor="end">20.0</text>
<line class="grid" x1="90" y1="162.10" x2="1150" y2="162.10" />
<text class="small" x="80" y="166.10" text-anchor="end">30.0</text>
<line class="grid" x1="90" y1="123.55" x2="1150" y2="123.55" />
<text class="small" x="80" y="127.55" text-anchor="end">40.0</text>
<line class="grid" x1="90" y1="85.00" x2="1150" y2="85.00" />
<text class="small" x="80" y="89.00" text-anchor="end">50.0</text>
<line class="grid" x1="90.00" y1="85.00" x2="90.00" y2="277.75" />
<line class="grid" x1="266.67" y1="85.00" x2="266.67" y2="277.75" />
<line class="grid" x1="443.33" y1="85.00" x2="443.33" y2="277.75" />
<line class="grid" x1="620.00" y1="85.00" x2="620.00" y2="277.75" />
<line class="grid" x1="796.67" y1="85.00" x2="796.67" y2="277.75" />
<line class="grid" x1="973.33" y1="85.00" x2="973.33" y2="277.75" />
<line class="grid" x1="1150.00" y1="85.00" x2="1150.00" y2="277.75" />
<line class="axis" x1="90" y1="85.00" x2="90" y2="277.75" />
<line class="axis" x1="90" y1="277.75" x2="1150" y2="277.75" />
<path class="series" d="M 178.33 177.41 L 179.81 187.96 L 181.28 186.85 L 182.75 194.48 L 184.22 194.76 L 185.69 195.87 L 187.17 195.59 L 188.64 188.51 L 190.11 176.58 L 191.58 166.17 L 193.06 165.34 L 194.53 166.45 L 196.00 172.83 L 197.47 172.97 L 198.94 182.69 L 200.42 180.19 L 201.89 177.13 L 203.36 175.75 L 204.83 178.94 L 206.31 177.83 L 207.78 173.11 L 209.25 176.02 L 210.72 178.52 L 212.19 181.02 L 213.67 186.29 L 215.14 191.29 L 216.61 196.56 L 218.08 202.39 L 219.56 207.80 L 221.03 204.20 L 222.50 204.61 L 223.97 212.80 L 225.44 218.49 L 226.92 212.38 L 228.39 215.58 L 229.86 218.07 L 231.33 214.61 L 232.81 213.36 L 234.28 212.11 L 235.75 210.16 L 237.22 215.85 L 238.69 216.41 L 240.17 225.71 L 241.64 234.17 L 243.11 239.45 L 244.58 237.37 L 246.06 237.09 L 247.53 246.52 L 249.00 245.00 L 250.47 249.16 L 251.94 243.06 L 253.42 237.64 L 254.89 242.08 L 256.36 241.81 L 257.83 241.81 L 259.31 251.80 L 260.78 259.01 L 262.25 267.48 L 263.72 277.75 L 265.19 277.75 L 266.67 277.75 L 268.14 277.75 L 269.61 277.75 L 271.08 266.23 L 272.56 263.04 L 274.03 261.93 L 275.50 262.76 L 276.97 262.76 L 278.44 263.04 L 279.92 264.29 L 281.39 266.09 L 282.86 277.75 L 284.33 277.75 L 285.81 277.75 L 287.28 277.75 L 288.75 277.75 L 290.22 277.75 L 291.69 277.75 L 293.17 277.75 L 294.64 277.75 L 296.11 277.75 L 297.58 277.75 L 299.06 277.75 L 300.53 277.75 L 302.00 277.75 L 303.47 277.75 L 304.94 277.75 L 306.42 277.75 L 307.89 277.75 L 309.36 277.75 L 310.83 277.75 L 312.31 277.75 L 313.78 277.75 L 315.25 277.75 L 316.72 277.75 L 318.19 277.75 L 319.67 277.75 L 321.14 277.75 L 322.61 277.75 L 324.08 277.75 L 325.56 277.75 L 327.03 277.75 L 328.50 277.75 L 329.97 277.75 L 331.44 277.75 L 332.92 277.75 L 334.39 277.75 L 335.86 277.75 L 337.33 277.75 L 338.81 277.75 L 340.28 277.75 L 341.75 277.75 L 343.22 277.75 L 344.69 277.75 L 346.17 277.75 L 347.64 277.75 L 349.11 277.75 L 350.58 277.75 L 352.06 277.75 L 353.53 277.75 L 355.00 277.75 L 356.47 277.75 L 357.94 277.75 L 359.42 277.75 L 360.89 277.75 L 362.36 277.75 L 363.83 277.75 L 365.31 277.75 L 366.78 277.75 L 368.25 277.75 L 369.72 277.75 L 371.19 277.75 L 372.67 277.75 L 374.14 277.75 L 375.61 277.75 L 377.08 277.75 L 378.56 277.75 L 380.03 277.75 L 381.50 277.75 L 382.97 277.75 L 384.44 277.75 L 385.92 277.75 L 387.39 277.75 L 388.86 277.75 L 390.33 277.75 L 391.81 277.75 L 393.28 277.75 L 394.75 277.75 L 396.22 277.75 L 397.69 277.75 L 399.17 277.75 L 400.64 277.75 L 402.11 277.75 L 403.58 277.75 L 405.06 277.75 L 406.53 277.75 L 408.00 277.75 L 409.47 277.75 L 410.94 277.75 L 412.42 277.75 L 413.89 277.75 L 415.36 277.75 L 416.83 277.75 L 418.31 277.75 L 419.78 277.75 L 421.25 277.75 L 422.72 277.75 L 424.19 277.75 L 425.67 277.75 L 427.14 277.75 L 428.61 277.75 L 430.08 277.75 L 431.56 277.75 L 433.03 277.75 L 434.50 277.75 L 435.97 277.75 L 437.44 277.75 L 438.92 277.75 L 440.39 277.75 L 441.86 268.31 L 443.33 277.75 L 444.81 277.75 L 446.28 277.75 L 447.75 277.75 L 449.22 277.75 L 450.69 277.75 L 452.17 277.75 L 453.64 277.75 L 455.11 277.75 L 456.58 277.75 L 458.06 277.75 L 459.53 277.75 L 461.00 277.75 L 462.47 277.75 L 463.94 277.75 L 465.42 277.75 L 466.89 277.75 L 468.36 277.75 L 469.83 277.75 L 471.31 277.75 L 472.78 277.75 L 474.25 277.75 L 475.72 277.75 L 477.19 277.75 L 478.67 277.75 L 480.14 277.75 L 481.61 277.75 L 483.08 277.75 L 484.56 277.75 L 486.03 277.75 L 487.50 277.75 L 488.97 277.75 L 490.44 277.75 L 491.92 277.75 L 493.39 277.75 L 494.86 277.75 L 496.33 277.75 L 497.81 277.75 L 499.28 277.75 L 500.75 277.75 L 502.22 277.75 L 503.69 277.75 L 505.17 277.75 L 506.64 277.75 L 508.11 277.75 L 509.58 277.75 L 511.06 277.75 L 512.53 277.75 L 514.00 277.75 L 515.47 277.75 L 516.94 277.75 L 518.42 277.75 L 519.89 277.75 L 521.36 277.75 L 522.83 277.75 L 524.31 277.75 L 525.78 277.75 L 527.25 277.75 L 528.72 277.75 L 530.19 277.75 L 531.67 277.75 L 533.14 277.75 L 534.61 277.75 L 536.08 277.75 L 537.56 277.75 L 539.03 277.75 L 540.50 277.75 L 541.97 277.75 L 543.44 277.75 L 544.92 277.75 L 546.39 277.75 L 547.86 277.75 L 549.33 277.75 L 550.81 277.75 L 552.28 277.75 L 553.75 277.75 L 555.22 277.75 L 556.69 277.75 L 558.17 277.75 L 559.64 277.75 L 561.11 277.75 L 562.58 277.75 L 564.06 277.75 L 565.53 277.75 L 567.00 277.75 L 568.47 277.75 L 569.94 277.75 L 571.42 277.75 L 572.89 277.75 L 574.36 277.75 L 575.83 277.75 L 577.31 277.75 L 578.78 277.75 L 580.25 277.75 L 581.72 277.75 L 583.19 277.75 L 584.67 277.75 L 586.14 277.75 L 587.61 277.75 L 589.08 277.75 L 590.56 277.75 L 592.03 277.75 L 593.50 277.75 L 594.97 277.75 L 596.44 277.75 L 597.92 277.75 L 599.39 277.75 L 600.86 277.75 L 602.33 277.75 L 603.81 277.75 L 605.28 277.75 L 606.75 277.75 L 608.22 277.75 L 609.69 277.75 L 611.17 277.75 L 612.64 277.75 L 614.11 277.75 L 615.58 277.75 L 617.06 277.75 L 618.53 277.75 L 620.00 277.75 L 621.47 277.75 L 622.94 277.75 L 624.42 277.75 L 625.89 277.75 L 627.36 277.75 L 628.83 277.75 L 630.31 277.75 L 631.78 277.75 L 633.25 277.75 L 634.72 277.75 L 636.19 277.75 L 637.67 277.75 L 639.14 277.75 L 640.61 277.75 L 642.08 277.75 L 643.56 277.75 L 645.03 277.75 L 646.50 277.75 L 647.97 277.75 L 649.44 277.75 L 650.92 259.71 L 652.39 263.32 L 653.86 259.71 L 655.33 255.13 L 656.81 252.77 L 658.28 247.50 L 659.75 245.55 L 661.22 245.28 L 662.69 244.17 L 664.17 239.59 L 665.64 243.19 L 667.11 242.36 L 668.58 252.21 L 670.06 252.35 L 671.53 250.13 L 673.00 245.28 L 674.47 245.55 L 675.94 247.22 L 677.42 246.25 L 678.89 254.57 L 680.36 262.62 L 681.83 277.75 L 683.31 277.75 L 684.78 277.75 L 686.25 277.75 L 687.72 277.75 L 689.19 277.75 L 690.67 277.75 L 692.14 277.75 L 693.61 277.75 L 695.08 277.75 L 696.56 277.75 L 698.03 277.75 L 699.50 277.75 L 700.97 277.75 L 702.44 262.21 L 703.92 261.93 L 705.39 259.43 L 706.86 258.04 L 708.33 256.24 L 709.81 255.13 L 711.28 250.83 L 712.75 247.36 L 714.22 246.66 L 715.69 243.33 L 717.17 240.70 L 718.64 239.59 L 720.11 235.84 L 721.58 234.59 L 723.06 233.06 L 724.53 234.87 L 726.00 232.92 L 727.47 235.56 L 728.94 233.90 L 730.42 233.90 L 731.89 225.85 L 733.36 230.98 L 734.83 230.15 L 736.31 228.07 L 737.78 227.10 L 739.25 228.90 L 740.72 228.48 L 742.19 228.07 L 743.67 226.40 L 745.14 224.46 L 746.61 225.71 L 748.08 222.65 L 749.56 217.94 L 751.03 213.49 L 752.50 208.92 L 753.97 208.64 L 755.44 208.64 L 756.92 209.75 L 758.39 211.27 L 759.86 208.36 L 761.33 206.42 L 762.81 204.61 L 764.28 209.61 L 765.75 211.41 L 767.22 214.05 L 768.69 212.25 L 770.17 214.05 L 771.64 215.72 L 773.11 214.19 L 774.58 212.80 L 776.06 213.91 L 777.53 213.77 L 779.00 215.44 L 780.47 217.66 L 781.94 220.57 L 783.42 216.83 L 784.89 215.85 L 786.36 220.99 L 787.83 222.24 L 789.31 231.54 L 790.78 230.84 L 792.25 230.01 L 793.72 225.15 L 795.19 226.96 L 796.67 227.37 L 798.14 229.45 L 799.61 224.04 L 801.08 226.26 L 802.56 223.07 L 804.03 223.07 L 805.50 221.68 L 806.97 222.79 L 808.44 229.59 L 809.92 242.36 L 811.39 251.94 L 812.86 261.65 L 814.33 263.73 L 815.81 263.32 L 817.28 261.37 L 818.75 259.29 L 820.22 256.38 L 821.69 255.68 L 823.17 253.32 L 824.64 251.66 L 826.11 251.52 L 827.58 251.80 L 829.06 249.99 L 830.53 243.61 L 832.00 237.92 L 833.47 235.01 L 834.94 234.17 L 836.42 237.23 L 837.89 234.59 L 839.36 235.28 L 840.83 232.79 L 842.31 230.29 L 843.78 225.85 L 845.25 220.43 L 846.72 217.66 L 848.19 222.24 L 849.67 225.29 L 851.14 230.56 L 852.61 236.39 L 854.08 237.50 L 855.56 235.70 L 857.03 233.48 L 858.50 231.95 L 859.97 232.09 L 861.44 232.79 L 862.92 233.90 L 864.39 233.62 L 865.86 232.92 L 867.33 235.28 L 868.81 235.56 L 870.28 237.37 L 871.75 233.48 L 873.22 233.90 L 874.69 232.23 L 876.17 235.70 L 877.64 236.95 L 879.11 236.25 L 880.58 239.59 L 882.06 243.06 L 883.53 250.69 L 885.00 249.02 L 886.47 249.44 L 887.94 249.58 L 889.42 249.16 L 890.89 251.94 L 892.36 253.05 L 893.83 254.99 L 895.31 259.85 L 896.78 263.32 L 898.25 259.57 L 899.72 258.46 L 901.19 256.93 L 902.67 253.46 L 904.14 256.79 L 905.61 261.93 L 907.08 257.77 L 908.56 257.21 L 910.03 251.80 L 911.50 254.02 L 912.97 252.63 L 914.44 254.30" stroke="#1976D2" />
<text x="90" y="289.75" font-size="14" font-weight="700">Inclinação (graus)</text>
<rect class="event" x="443.33" y="295.75" width="206.11" height="192.75" />
<line class="eventline" x1="443.33" y1="295.75" x2="443.33" y2="488.50" />
<line class="eventline" x1="649.44" y1="295.75" x2="649.44" y2="488.50" />
<line class="grid" x1="90" y1="488.50" x2="1150" y2="488.50" />
<text class="small" x="80" y="492.50" text-anchor="end">-20.0</text>
<line class="grid" x1="90" y1="449.95" x2="1150" y2="449.95" />
<text class="small" x="80" y="453.95" text-anchor="end">-10.0</text>
<line class="grid" x1="90" y1="411.40" x2="1150" y2="411.40" />
<text class="small" x="80" y="415.40" text-anchor="end">0.00</text>
<line class="grid" x1="90" y1="372.85" x2="1150" y2="372.85" />
<text class="small" x="80" y="376.85" text-anchor="end">10.0</text>
<line class="grid" x1="90" y1="334.30" x2="1150" y2="334.30" />
<text class="small" x="80" y="338.30" text-anchor="end">20.0</text>
<line class="grid" x1="90" y1="295.75" x2="1150" y2="295.75" />
<text class="small" x="80" y="299.75" text-anchor="end">30.0</text>
<line class="grid" x1="90.00" y1="295.75" x2="90.00" y2="488.50" />
<line class="grid" x1="266.67" y1="295.75" x2="266.67" y2="488.50" />
<line class="grid" x1="443.33" y1="295.75" x2="443.33" y2="488.50" />
<line class="grid" x1="620.00" y1="295.75" x2="620.00" y2="488.50" />
<line class="grid" x1="796.67" y1="295.75" x2="796.67" y2="488.50" />
<line class="grid" x1="973.33" y1="295.75" x2="973.33" y2="488.50" />
<line class="grid" x1="1150.00" y1="295.75" x2="1150.00" y2="488.50" />
<line class="axis" x1="90" y1="295.75" x2="90" y2="488.50" />
<line class="axis" x1="90" y1="488.50" x2="1150" y2="488.50" />
<path class="series" d="M 178.33 356.19 L 179.81 368.05 L 181.28 361.55 L 182.75 367.33 L 184.22 378.23 L 185.69 372.29 L 187.17 380.02 L 188.64 386.78 L 190.11 379.75 L 191.58 373.21 L 193.06 360.16 L 194.53 360.10 L 196.00 358.02 L 197.47 373.91 L 198.94 373.24 L 200.42 371.75 L 201.89 370.83 L 203.36 354.54 L 204.83 372.47 L 206.31 369.42 L 207.78 369.42 L 209.25 359.29 L 210.72 362.89 L 212.19 359.67 L 213.67 351.76 L 215.14 352.87 L 216.61 351.48 L 218.08 354.03 L 219.56 360.19 L 221.03 364.40 L 222.50 362.54 L 223.97 356.23 L 225.44 366.32 L 226.92 376.72 L 228.39 361.35 L 229.86 372.80 L 231.33 370.57 L 232.81 372.29 L 234.28 369.85 L 235.75 363.14 L 237.22 362.08 L 238.69 350.61 L 240.17 362.57 L 241.64 353.90 L 243.11 378.95 L 244.58 390.59 L 246.06 374.56 L 247.53 366.35 L 249.00 356.66 L 250.47 369.19 L 251.94 373.73 L 253.42 362.68 L 254.89 360.17 L 256.36 357.46 L 257.83 341.47 L 259.31 346.71 L 260.78 332.41 L 262.25 341.52 L 263.72 348.48 L 265.19 352.64 L 266.67 348.15 L 268.14 353.03 L 269.61 349.56 L 271.08 349.30 L 272.56 353.51 L 274.03 354.89 L 275.50 355.24 L 276.97 355.96 L 278.44 356.74 L 279.92 362.71 L 281.39 361.57 L 282.86 354.78 L 284.33 363.84 L 285.81 358.99 L 287.28 363.85 L 288.75 368.58 L 290.22 368.31 L 291.69 364.67 L 293.17 364.44 L 294.64 364.35 L 296.11 364.46 L 297.58 364.47 L 299.06 364.51 L 300.53 364.50 L 302.00 364.55 L 303.47 364.47 L 304.94 364.56 L 306.42 364.52 L 307.89 364.02 L 309.36 352.93 L 310.83 365.54 L 312.31 368.21 L 313.78 366.66 L 315.25 366.20 L 316.72 363.52 L 318.19 364.58 L 319.67 364.51 L 321.14 364.31 L 322.61 362.73 L 324.08 360.36 L 325.56 361.02 L 327.03 366.81 L 328.50 365.02 L 329.97 361.42 L 331.44 359.96 L 332.92 360.54 L 334.39 360.82 L 335.86 360.46 L 337.33 360.82 L 338.81 359.83 L 340.28 359.68 L 341.75 360.77 L 343.22 360.22 L 344.69 360.19 L 346.17 360.21 L 347.64 360.21 L 349.11 360.16 L 350.58 360.23 L 352.06 360.24 L 353.53 360.19 L 355.00 360.26 L 356.47 360.21 L 357.94 360.17 L 359.42 360.24 L 360.89 360.19 L 362.36 360.14 L 363.83 360.20 L 365.31 360.23 L 366.78 360.20 L 368.25 360.24 L 369.72 360.22 L 371.19 360.17 L 372.67 360.28 L 374.14 360.23 L 375.61 360.17 L 377.08 360.28 L 378.56 360.19 L 380.03 360.16 L 381.50 360.22 L 382.97 360.24 L 384.44 360.22 L 385.92 360.22 L 387.39 360.20 L 388.86 360.20 L 390.33 360.25 L 391.81 360.22 L 393.28 360.23 L 394.75 360.24 L 396.22 360.18 L 397.69 360.18 L 399.17 360.26 L 400.64 360.18 L 402.11 360.20 L 403.58 360.24 L 405.06 360.18 L 406.53 360.18 L 408.00 360.21 L 409.47 360.20 L 410.94 360.18 L 412.42 360.25 L 413.89 360.25 L 415.36 360.23 L 416.83 360.21 L 418.31 360.20 L 419.78 360.18 L 421.25 360.29 L 422.72 360.19 L 424.19 360.18 L 425.67 360.40 L 427.14 360.24 L 428.61 360.15 L 430.08 359.94 L 431.56 359.94 L 433.03 359.70 L 434.50 361.02 L 435.97 350.46 L 437.44 350.32 L 438.92 370.14 L 440.39 369.13 L 441.86 360.22 L 443.33 380.26 L 444.81 378.13 L 446.28 367.86 L 447.75 370.29 L 449.22 370.40 L 450.69 369.70 L 452.17 371.45 L 453.64 369.58 L 455.11 370.01 L 456.58 369.93 L 458.06 369.99 L 459.53 370.20 L 461.00 370.18 L 462.47 370.14 L 463.94 370.10 L 465.42 370.16 L 466.89 370.03 L 468.36 370.16 L 469.83 370.13 L 471.31 370.09 L 472.78 370.11 L 474.25 370.12 L 475.72 370.12 L 477.19 370.13 L 478.67 370.14 L 480.14 370.07 L 481.61 370.26 L 483.08 370.68 L 484.56 370.91 L 486.03 369.32 L 487.50 369.86 L 488.97 370.29 L 490.44 370.20 L 491.92 369.99 L 493.39 370.10 L 494.86 370.08 L 496.33 370.08 L 497.81 370.11 L 499.28 370.11 L 500.75 370.12 L 502.22 370.07 L 503.69 370.09 L 505.17 370.10 L 506.64 370.07 L 508.11 370.12 L 509.58 370.06 L 511.06 370.08 L 512.53 370.11 L 514.00 370.14 L 515.47 370.08 L 516.94 370.14 L 518.42 370.07 L 519.89 370.14 L 521.36 370.12 L 522.83 370.13 L 524.31 370.12 L 525.78 369.85 L 527.25 368.77 L 528.72 368.94 L 530.19 369.53 L 531.67 369.07 L 533.14 369.28 L 534.61 369.18 L 536.08 369.16 L 537.56 369.28 L 539.03 369.17 L 540.50 369.21 L 541.97 369.12 L 543.44 369.18 L 544.92 369.17 L 546.39 369.13 L 547.86 369.21 L 549.33 369.20 L 550.81 369.19 L 552.28 369.15 L 553.75 369.22 L 555.22 369.08 L 556.69 369.19 L 558.17 369.13 L 559.64 369.11 L 561.11 369.18 L 562.58 369.23 L 564.06 368.83 L 565.53 370.55 L 567.00 370.35 L 568.47 370.62 L 569.94 370.58 L 571.42 370.51 L 572.89 370.51 L 574.36 370.57 L 575.83 370.54 L 577.31 370.58 L 578.78 370.61 L 580.25 370.57 L 581.72 370.53 L 583.19 370.60 L 584.67 370.55 L 586.14 370.63 L 587.61 370.60 L 589.08 370.65 L 590.56 370.60 L 592.03 370.57 L 593.50 370.60 L 594.97 370.57 L 596.44 370.56 L 597.92 370.56 L 599.39 370.60 L 600.86 370.52 L 602.33 370.59 L 603.81 370.51 L 605.28 370.99 L 606.75 372.15 L 608.22 372.00 L 609.69 372.11 L 611.17 371.84 L 612.64 371.86 L 614.11 371.91 L 615.58 372.11 L 617.06 372.08 L 618.53 372.03 L 620.00 372.00 L 621.47 372.08 L 622.94 372.07 L 624.42 372.01 L 625.89 372.05 L 627.36 372.04 L 628.83 372.04 L 630.31 372.06 L 631.78 372.09 L 633.25 372.03 L 634.72 372.02 L 636.19 372.87 L 637.67 372.02 L 639.14 372.00 L 640.61 371.81 L 642.08 371.85 L 643.56 372.09 L 645.03 372.18 L 646.50 372.11 L 647.97 383.02 L 649.44 380.93 L 650.92 371.83 L 652.39 369.69 L 653.86 369.88 L 655.33 373.90 L 656.81 376.96 L 658.28 375.03 L 659.75 375.03 L 661.22 350.05 L 662.69 355.38 L 664.17 364.91 L 665.64 361.89 L 667.11 365.16 L 668.58 354.67 L 670.06 363.90 L 671.53 362.98 L 673.00 363.35 L 674.47 356.99 L 675.94 355.37 L 677.42 356.68 L 678.89 355.70 L 680.36 343.61 L 681.83 348.40 L 683.31 368.23 L 684.78 366.35 L 686.25 365.51 L 687.72 365.91 L 689.19 366.36 L 690.67 366.60 L 692.14 366.70 L 693.61 366.68 L 695.08 366.58 L 696.56 366.53 L 698.03 368.38 L 699.50 377.91 L 700.97 379.62 L 702.44 368.11 L 703.92 374.85 L 705.39 371.32 L 706.86 371.67 L 708.33 373.43 L 709.81 376.46 L 711.28 378.42 L 712.75 377.02 L 714.22 376.84 L 715.69 370.22 L 717.17 374.43 L 718.64 378.93 L 720.11 371.07 L 721.58 364.23 L 723.06 367.37 L 724.53 366.89 L 726.00 367.59 L 727.47 369.76 L 728.94 374.56 L 730.42 375.25 L 731.89 374.67 L 733.36 367.35 L 734.83 368.52 L 736.31 373.04 L 737.78 372.96 L 739.25 373.80 L 740.72 374.64 L 742.19 375.02 L 743.67 375.67 L 745.14 379.70 L 746.61 378.79 L 748.08 374.82 L 749.56 378.10 L 751.03 379.11 L 752.50 376.79 L 753.97 372.07 L 755.44 370.08 L 756.92 375.84 L 758.39 374.73 L 759.86 373.72 L 761.33 370.19 L 762.81 361.11 L 764.28 365.34 L 765.75 358.94 L 767.22 360.99 L 768.69 367.06 L 770.17 363.92 L 771.64 362.18 L 773.11 363.65 L 774.58 368.72 L 776.06 373.65 L 777.53 372.16 L 779.00 368.03 L 780.47 374.35 L 781.94 364.49 L 783.42 369.35 L 784.89 364.38 L 786.36 363.88 L 787.83 357.46 L 789.31 351.38 L 790.78 356.02 L 792.25 367.60 L 793.72 357.76 L 795.19 367.04 L 796.67 358.46 L 798.14 374.09 L 799.61 363.49 L 801.08 370.01 L 802.56 373.45 L 804.03 373.28 L 805.50 379.31 L 806.97 384.34 L 808.44 382.44 L 809.92 391.42 L 811.39 389.57 L 812.86 406.46 L 814.33 406.44 L 815.81 408.04 L 817.28 405.89 L 818.75 402.90 L 820.22 400.09 L 821.69 395.22 L 823.17 391.25 L 824.64 380.93 L 826.11 375.24 L 827.58 374.57 L 829.06 377.16 L 830.53 374.49 L 832.00 373.61 L 833.47 372.30 L 834.94 375.04 L 836.42 377.66 L 837.89 378.80 L 839.36 377.22 L 840.83 379.45 L 842.31 381.75 L 843.78 379.36 L 845.25 375.56 L 846.72 378.82 L 848.19 376.46 L 849.67 377.62 L 851.14 377.86 L 852.61 384.79 L 854.08 385.67 L 855.56 384.85 L 857.03 385.59 L 858.50 385.92 L 859.97 386.08 L 861.44 386.21 L 862.92 387.12 L 864.39 387.30 L 865.86 386.73 L 867.33 385.85 L 868.81 387.19 L 870.28 386.58 L 871.75 386.70 L 873.22 386.05 L 874.69 387.09 L 876.17 387.41 L 877.64 388.79 L 879.11 389.13 L 880.58 389.13 L 882.06 389.74 L 883.53 381.38 L 885.00 394.66 L 886.47 394.47 L 887.94 393.97 L 889.42 394.67 L 890.89 395.43 L 892.36 396.63 L 893.83 398.72 L 895.31 395.80 L 896.78 400.57 L 898.25 406.46 L 899.72 405.55 L 901.19 404.23 L 902.67 405.39 L 904.14 403.17 L 905.61 403.86 L 907.08 402.71 L 908.56 400.49 L 910.03 399.51 L 911.50 397.41 L 912.97 397.51 L 914.44 399.89" stroke="#2E7D32" />
<path class="series" d="M 178.33 415.68 L 179.81 401.71 L 181.28 402.29 L 182.75 403.18 L 184.22 400.05 L 185.69 401.42 L 187.17 422.86 L 188.64 410.25 L 190.11 416.14 L 191.58 409.89 L 193.06 403.16 L 194.53 401.82 L 196.00 401.60 L 197.47 398.65 L 198.94 396.35 L 200.42 409.39 L 201.89 413.62 L 203.36 421.79 L 204.83 406.47 L 206.31 408.58 L 207.78 408.58 L 209.25 400.89 L 210.72 414.68 L 212.19 406.89 L 213.67 405.79 L 215.14 407.48 L 216.61 418.42 L 218.08 411.63 L 219.56 416.59 L 221.03 413.71 L 222.50 401.13 L 223.97 418.22 L 225.44 418.21 L 226.92 415.68 L 228.39 409.01 L 229.86 410.60 L 231.33 412.22 L 232.81 419.42 L 234.28 411.82 L 235.75 415.57 L 237.22 405.90 L 238.69 407.59 L 240.17 410.23 L 241.64 415.61 L 243.11 411.80 L 244.58 424.70 L 246.06 422.03 L 247.53 412.09 L 249.00 419.77 L 250.47 411.35 L 251.94 416.25 L 253.42 416.52 L 254.89 399.30 L 256.36 406.83 L 257.83 404.49 L 259.31 403.97 L 260.78 384.20 L 262.25 403.16 L 263.72 410.96 L 265.19 409.50 L 266.67 403.88 L 268.14 404.58 L 269.61 403.55 L 271.08 411.39 L 272.56 405.33 L 274.03 407.54 L 275.50 407.04 L 276.97 416.55 L 278.44 407.97 L 279.92 414.27 L 281.39 412.61 L 282.86 420.28 L 284.33 424.58 L 285.81 423.85 L 287.28 418.11 L 288.75 418.21 L 290.22 422.82 L 291.69 421.79 L 293.17 422.64 L 294.64 422.01 L 296.11 422.35 L 297.58 422.11 L 299.06 422.34 L 300.53 422.18 L 302.00 422.20 L 303.47 422.14 L 304.94 422.20 L 306.42 422.15 L 307.89 422.91 L 309.36 423.48 L 310.83 425.53 L 312.31 421.58 L 313.78 429.41 L 315.25 423.32 L 316.72 419.06 L 318.19 423.19 L 319.67 427.09 L 321.14 425.24 L 322.61 425.94 L 324.08 426.25 L 325.56 422.30 L 327.03 427.13 L 328.50 428.24 L 329.97 432.52 L 331.44 431.75 L 332.92 432.00 L 334.39 431.36 L 335.86 431.59 L 337.33 432.07 L 338.81 431.13 L 340.28 431.37 L 341.75 432.07 L 343.22 431.62 L 344.69 431.75 L 346.17 431.56 L 347.64 431.70 L 349.11 431.75 L 350.58 431.70 L 352.06 431.71 L 353.53 431.66 L 355.00 431.76 L 356.47 431.71 L 357.94 431.72 L 359.42 431.66 L 360.89 431.66 L 362.36 431.78 L 363.83 431.69 L 365.31 431.68 L 366.78 431.70 L 368.25 431.71 L 369.72 431.78 L 371.19 431.76 L 372.67 431.70 L 374.14 431.73 L 375.61 431.77 L 377.08 431.76 L 378.56 431.72 L 380.03 431.72 L 381.50 431.74 L 382.97 431.78 L 384.44 431.75 L 385.92 431.66 L 387.39 431.69 L 388.86 431.77 L 390.33 431.74 L 391.81 431.73 L 393.28 431.71 L 394.75 431.68 L 396.22 431.76 L 397.69 431.75 L 399.17 431.75 L 400.64 431.74 L 402.11 431.76 L 403.58 431.77 L 405.06 431.69 L 406.53 431.72 L 408.00 431.71 L 409.47 431.77 L 410.94 431.75 L 412.42 431.69 L 413.89 431.73 L 415.36 431.77 L 416.83 431.72 L 418.31 431.75 L 419.78 431.70 L 421.25 431.73 L 422.72 431.78 L 424.19 431.71 L 425.67 431.79 L 427.14 431.74 L 428.61 431.54 L 430.08 432.14 L 431.56 432.14 L 433.03 431.05 L 434.50 431.67 L 435.97 433.71 L 437.44 438.09 L 438.92 431.89 L 440.39 432.39 L 441.86 429.12 L 443.33 434.40 L 444.81 438.67 L 446.28 437.77 L 447.75 438.87 L 449.22 437.79 L 450.69 438.04 L 452.17 438.20 L 453.64 438.72 L 455.11 437.13 L 456.58 438.22 L 458.06 437.73 L 459.53 438.06 L 461.00 437.70 L 462.47 438.03 L 463.94 437.89 L 465.42 438.05 L 466.89 437.95 L 468.36 437.94 L 469.83 437.97 L 471.31 438.07 L 472.78 437.99 L 474.25 437.99 L 475.72 437.99 L 477.19 438.05 L 478.67 438.04 L 480.14 438.05 L 481.61 437.11 L 483.08 439.98 L 484.56 439.92 L 486.03 438.77 L 487.50 438.94 L 488.97 439.67 L 490.44 439.73 L 491.92 439.08 L 493.39 439.36 L 494.86 439.57 L 496.33 439.28 L 497.81 439.35 L 499.28 439.57 L 500.75 439.43 L 502.22 439.34 L 503.69 439.46 L 505.17 439.52 L 506.64 439.40 L 508.11 439.43 L 509.58 439.43 L 511.06 439.51 L 512.53 439.46 L 514.00 439.46 L 515.47 439.46 L 516.94 439.47 L 518.42 439.50 L 519.89 439.41 L 521.36 439.36 L 522.83 439.17 L 524.31 440.23 L 525.78 439.31 L 527.25 439.34 L 528.72 439.73 L 530.19 439.53 L 531.67 439.57 L 533.14 439.45 L 534.61 439.42 L 536.08 439.50 L 537.56 439.49 L 539.03 439.53 L 540.50 439.47 L 541.97 439.49 L 543.44 439.46 L 544.92 439.50 L 546.39 439.54 L 547.86 439.45 L 549.33 439.46 L 550.81 439.54 L 552.28 439.53 L 553.75 439.47 L 555.22 439.49 L 556.69 439.48 L 558.17 439.50 L 559.64 439.56 L 561.11 439.49 L 562.58 439.47 L 564.06 438.48 L 565.53 440.67 L 567.00 440.29 L 568.47 440.06 L 569.94 440.68 L 571.42 440.37 L 572.89 440.35 L 574.36 440.41 L 575.83 440.33 L 577.31 440.41 L 578.78 440.38 L 580.25 440.32 L 581.72 440.27 L 583.19 440.36 L 584.67 440.40 L 586.14 440.38 L 587.61 440.34 L 589.08 440.36 L 590.56 440.45 L 592.03 440.34 L 593.50 440.32 L 594.97 440.29 L 596.44 440.41 L 597.92 440.35 L 599.39 440.40 L 600.86 440.31 L 602.33 440.35 L 603.81 440.29 L 605.28 440.99 L 606.75 440.37 L 608.22 440.97 L 609.69 441.29 L 611.17 440.79 L 612.64 441.23 L 614.11 440.86 L 615.58 440.94 L 617.06 440.94 L 618.53 440.98 L 620.00 440.91 L 621.47 440.87 L 622.94 440.97 L 624.42 440.93 L 625.89 440.94 L 627.36 440.86 L 628.83 440.93 L 630.31 440.98 L 631.78 440.92 L 633.25 440.88 L 634.72 440.96 L 636.19 440.92 L 637.67 441.33 L 639.14 441.15 L 640.61 441.28 L 642.08 440.77 L 643.56 441.18 L 645.03 440.98 L 646.50 441.04 L 647.97 441.38 L 649.44 435.52 L 650.92 440.12 L 652.39 432.16 L 653.86 431.70 L 655.33 433.00 L 656.81 414.53 L 658.28 430.78 L 659.75 430.78 L 661.22 426.75 L 662.69 412.43 L 664.17 418.77 L 665.64 417.16 L 667.11 410.21 L 668.58 418.81 L 670.06 420.62 L 671.53 425.02 L 673.00 411.54 L 674.47 397.34 L 675.94 405.19 L 677.42 414.35 L 678.89 412.59 L 680.36 406.73 L 681.83 404.87 L 683.31 414.59 L 684.78 412.74 L 686.25 411.65 L 687.72 411.96 L 689.19 411.56 L 690.67 412.24 L 692.14 412.21 L 693.61 411.89 L 695.08 411.89 L 696.56 411.78 L 698.03 412.07 L 699.50 412.37 L 700.97 409.66 L 702.44 410.03 L 703.92 406.14 L 705.39 403.35 L 706.86 399.31 L 708.33 398.48 L 709.81 405.26 L 711.28 408.52 L 712.75 407.60 L 714.22 410.29 L 715.69 406.95 L 717.17 402.69 L 718.64 411.21 L 720.11 392.16 L 721.58 399.65 L 723.06 405.90 L 724.53 407.61 L 726.00 393.12 L 727.47 404.67 L 728.94 405.47 L 730.42 399.55 L 731.89 411.34 L 733.36 411.32 L 734.83 417.15 L 736.31 412.36 L 737.78 412.89 L 739.25 402.97 L 740.72 395.78 L 742.19 402.10 L 743.67 407.99 L 745.14 397.00 L 746.61 406.16 L 748.08 398.41 L 749.56 405.15 L 751.03 407.74 L 752.50 405.53 L 753.97 420.72 L 755.44 417.66 L 756.92 416.88 L 758.39 413.98 L 759.86 406.06 L 761.33 395.68 L 762.81 410.07 L 764.28 408.45 L 765.75 416.55 L 767.22 420.48 L 768.69 410.19 L 770.17 413.44 L 771.64 424.62 L 773.11 415.63 L 774.58 424.58 L 776.06 435.46 L 777.53 424.46 L 779.00 407.28 L 780.47 414.92 L 781.94 413.63 L 783.42 413.05 L 784.89 411.59 L 786.36 407.13 L 787.83 396.38 L 789.31 413.82 L 790.78 406.10 L 792.25 414.74 L 793.72 414.89 L 795.19 416.63 L 796.67 425.04 L 798.14 428.14 L 799.61 414.94 L 801.08 424.77 L 802.56 413.92 L 804.03 412.44 L 805.50 416.57 L 806.97 408.20 L 808.44 416.38 L 809.92 416.47 L 811.39 415.03 L 812.86 413.32 L 814.33 412.05 L 815.81 412.52 L 817.28 411.10 L 818.75 406.19 L 820.22 405.48 L 821.69 409.66 L 823.17 404.62 L 824.64 400.11 L 826.11 405.96 L 827.58 410.06 L 829.06 411.32 L 830.53 421.64 L 832.00 428.70 L 833.47 436.85 L 834.94 443.10 L 836.42 434.65 L 837.89 423.80 L 839.36 425.96 L 840.83 424.45 L 842.31 426.25 L 843.78 419.16 L 845.25 425.52 L 846.72 435.86 L 848.19 415.78 L 849.67 419.87 L 851.14 414.45 L 852.61 409.68 L 854.08 408.82 L 855.56 404.62 L 857.03 405.71 L 858.50 404.13 L 859.97 408.03 L 861.44 409.43 L 862.92 411.84 L 864.39 416.66 L 865.86 413.90 L 867.33 412.18 L 868.81 410.73 L 870.28 409.52 L 871.75 407.43 L 873.22 403.28 L 874.69 406.78 L 876.17 403.25 L 877.64 403.77 L 879.11 406.43 L 880.58 406.43 L 882.06 410.87 L 883.53 402.28 L 885.00 406.76 L 886.47 397.11 L 887.94 392.48 L 889.42 395.17 L 890.89 405.44 L 892.36 396.67 L 893.83 402.17 L 895.31 404.30 L 896.78 400.67 L 898.25 397.12 L 899.72 400.77 L 901.19 402.16 L 902.67 401.28 L 904.14 403.91 L 905.61 403.14 L 907.08 405.84 L 908.56 407.38 L 910.03 408.80 L 911.50 403.87 L 912.97 409.78 L 914.44 409.00" stroke="#6A1B9A" />
<line x1="900.00" y1="307.75" x2="918.00" y2="307.75" stroke="#2E7D32" stroke-width="3" />
<text class="small" x="924.00" y="311.75">pitch</text>
<line x1="900.00" y1="323.75" x2="918.00" y2="323.75" stroke="#6A1B9A" stroke-width="3" />
<text class="small" x="924.00" y="327.75">roll</text>
<text x="90" y="500.50" font-size="14" font-weight="700">Aceleração (magnitude) (u.a.)</text>
<rect class="event" x="443.33" y="506.50" width="206.11" height="192.75" />
<line class="eventline" x1="443.33" y1="506.50" x2="443.33" y2="699.25" />
<line class="eventline" x1="649.44" y1="506.50" x2="649.44" y2="699.25" />
<line class="grid" x1="90" y1="699.25" x2="1150" y2="699.25" />
<text class="small" x="80" y="703.25" text-anchor="end">0.00</text>
<line class="grid" x1="90" y1="660.70" x2="1150" y2="660.70" />
<text class="small" x="80" y="664.70" text-anchor="end">0.50</text>
<line class="grid" x1="90" y1="622.15" x2="1150" y2="622.15" />
<text class="small" x="80" y="626.15" text-anchor="end">1.00</text>
<line class="grid" x1="90" y1="583.60" x2="1150" y2="583.60" />
<text class="small" x="80" y="587.60" text-anchor="end">1.50</text>
<line class="grid" x1="90" y1="545.05" x2="1150" y2="545.05" />
<text class="small" x="80" y="549.05" text-anchor="end">2.00</text>
<line class="grid" x1="90" y1="506.50" x2="1150" y2="506.50" />
<text class="small" x="80" y="510.50" text-anchor="end">2.50</text>
<line class="grid" x1="90.00" y1="506.50" x2="90.00" y2="699.25" />
<line class="grid" x1="266.67" y1="506.50" x2="266.67" y2="699.25" />
<line class="grid" x1="443.33" y1="506.50" x2="443.33" y2="699.25" />
<line class="grid" x1="620.00" y1="506.50" x2="620.00" y2="699.25" />
<line class="grid" x1="796.67" y1="506.50" x2="796.67" y2="699.25" />
<line class="grid" x1="973.33" y1="506.50" x2="973.33" y2="699.25" />
<line class="grid" x1="1150.00" y1="506.50" x2="1150.00" y2="699.25" />
<line class="axis" x1="90" y1="506.50" x2="90" y2="699.25" />
<line class="axis" x1="90" y1="699.25" x2="1150" y2="699.25" />
<path class="series" d="M 178.33 627.17 L 179.81 613.71 L 181.28 661.41 L 182.75 686.13 L 184.22 687.67 L 185.69 653.88 L 187.17 645.39 L 188.64 655.65 L 190.11 666.96 L 191.58 670.03 L 193.06 652.99 L 194.53 658.83 L 196.00 650.78 L 197.47 666.25 L 198.94 682.40 L 200.42 679.93 L 201.89 676.58 L 203.36 667.69 L 204.83 667.69 L 206.31 657.09 L 207.78 685.20 L 209.25 670.95 L 210.72 680.08 L 212.19 672.97 L 213.67 672.97 L 215.14 676.97 L 216.61 677.96 L 218.08 690.90 L 219.56 689.21 L 221.03 664.56 L 222.50 626.30 L 223.97 653.37 L 225.44 675.45 L 226.92 657.58 L 228.39 678.85 L 229.86 664.45 L 231.33 669.26 L 232.81 675.99 L 234.28 685.64 L 235.75 675.39 L 237.22 669.91 L 238.69 655.27 L 240.17 663.55 L 241.64 658.01 L 243.11 680.68 L 244.58 644.79 L 246.06 686.08 L 247.53 685.69 L 249.00 646.32 L 250.47 669.21 L 251.94 679.12 L 253.42 648.14 L 254.89 667.45 L 256.36 663.38 L 257.83 637.98 L 259.31 665.96 L 260.78 594.09 L 262.25 655.50 L 263.72 683.43 L 265.19 687.46 L 266.67 678.26 L 268.14 694.88 L 269.61 695.69 L 271.08 687.91 L 272.56 694.71 L 274.03 690.69 L 275.50 686.43 L 276.97 684.53 L 278.44 672.35 L 279.92 669.57 L 281.39 691.35 L 282.86 686.13 L 284.33 697.07 L 285.81 692.27 L 287.28 691.88 L 288.75 689.85 L 290.22 685.06 L 291.69 692.00 L 293.17 697.45 L 294.64 698.76 L 296.11 698.37 L 297.58 698.92 L 299.06 698.63 L 300.53 698.90 L 302.00 698.60 L 303.47 698.80 L 304.94 698.72 L 306.42 698.83 L 307.89 684.14 L 309.36 682.08 L 310.83 681.80 L 312.31 691.39 L 313.78 693.41 L 315.25 692.08 L 316.72 693.15 L 318.19 696.15 L 319.67 692.81 L 321.14 694.15 L 322.61 691.42 L 324.08 692.21 L 325.56 681.36 L 327.03 688.93 L 328.50 681.76 L 329.97 694.80 L 331.44 697.22 L 332.92 697.22 L 334.39 697.65 L 335.86 698.05 L 337.33 698.59 L 338.81 696.59 L 340.28 694.40 L 341.75 694.29 L 343.22 697.50 L 344.69 698.63 L 346.17 698.47 L 347.64 698.60 L 349.11 698.73 L 350.58 698.68 L 352.06 698.78 L 353.53 698.50 L 355.00 698.66 L 356.47 698.80 L 357.94 698.54 L 359.42 698.78 L 360.89 698.56 L 362.36 698.47 L 363.83 698.73 L 365.31 698.70 L 366.78 698.57 L 368.25 698.67 L 369.72 698.67 L 371.19 698.63 L 372.67 698.78 L 374.14 698.77 L 375.61 698.72 L 377.08 698.45 L 378.56 698.67 L 380.03 698.57 L 381.50 698.67 L 382.97 698.62 L 384.44 698.63 L 385.92 698.70 L 387.39 698.77 L 388.86 698.55 L 390.33 698.70 L 391.81 698.73 L 393.28 698.65 L 394.75 698.66 L 396.22 698.75 L 397.69 698.54 L 399.17 698.70 L 400.64 698.68 L 402.11 698.62 L 403.58 698.63 L 405.06 698.81 L 406.53 698.65 L 408.00 698.65 L 409.47 698.60 L 410.94 698.58 L 412.42 698.67 L 413.89 698.81 L 415.36 698.75 L 416.83 698.72 L 418.31 698.75 L 419.78 698.68 L 421.25 698.90 L 422.72 698.72 L 424.19 698.75 L 425.67 698.72 L 427.14 698.00 L 428.61 698.89 L 430.08 698.02 L 431.56 693.89 L 433.03 697.84 L 434.50 689.40 L 435.97 667.92 L 437.44 671.93 L 438.92 668.18 L 440.39 674.30 L 441.86 665.40 L 443.33 690.61 L 444.81 689.16 L 446.28 687.39 L 447.75 694.70 L 449.22 694.80 L 450.69 697.20 L 452.17 696.20 L 453.64 695.54 L 455.11 699.13 L 456.58 698.67 L 458.06 698.67 L 459.53 698.56 L 461.00 698.74 L 462.47 698.59 L 463.94 698.77 L 465.42 698.62 L 466.89 698.62 L 468.36 698.77 L 469.83 698.74 L 471.31 698.82 L 472.78 698.69 L 474.25 698.80 L 475.72 698.67 L 477.19 698.71 L 478.67 698.59 L 480.14 698.83 L 481.61 695.65 L 483.08 693.03 L 484.56 698.16 L 486.03 696.17 L 487.50 698.74 L 488.97 697.96 L 490.44 698.74 L 491.92 697.58 L 493.39 698.82 L 494.86 698.94 L 496.33 698.31 L 497.81 698.51 L 499.28 699.06 L 500.75 698.70 L 502.22 698.67 L 503.69 698.82 L 505.17 698.69 L 506.64 698.69 L 508.11 698.87 L 509.58 698.84 L 511.06 698.84 L 512.53 698.76 L 514.00 698.81 L 515.47 698.49 L 516.94 698.71 L 518.42 698.91 L 519.89 698.70 L 521.36 698.90 L 522.83 695.26 L 524.31 693.67 L 525.78 695.51 L 527.25 696.67 L 528.72 698.29 L 530.19 698.57 L 531.67 698.39 L 533.14 698.50 L 534.61 698.60 L 536.08 698.81 L 537.56 698.91 L 539.03 699.03 L 540.50 699.13 L 541.97 699.05 L 543.44 699.22 L 544.92 699.08 L 546.39 698.97 L 547.86 699.04 L 549.33 699.07 L 550.81 698.97 L 552.28 698.97 L 553.75 699.05 L 555.22 699.01 L 556.69 699.11 L 558.17 698.92 L 559.64 699.03 L 561.11 699.07 L 562.58 697.54 L 564.06 697.27 L 565.53 695.19 L 567.00 697.52 L 568.47 698.07 L 569.94 698.61 L 571.42 699.04 L 572.89 698.76 L 574.36 698.81 L 575.83 698.97 L 577.31 699.05 L 578.78 699.17 L 580.25 699.13 L 581.72 698.93 L 583.19 699.12 L 584.67 699.12 L 586.14 699.11 L 587.61 698.99 L 589.08 699.10 L 590.56 699.07 L 592.03 699.06 L 593.50 699.13 L 594.97 699.12 L 596.44 699.09 L 597.92 699.17 L 599.39 699.10 L 600.86 699.15 L 602.33 699.14 L 603.81 698.71 L 605.28 696.07 L 606.75 695.83 L 608.22 696.84 L 609.69 697.31 L 611.17 698.67 L 612.64 698.68 L 614.11 698.30 L 615.58 698.62 L 617.06 698.55 L 618.53 698.94 L 620.00 698.87 L 621.47 699.03 L 622.94 698.91 L 624.42 699.18 L 625.89 698.93 L 627.36 699.14 L 628.83 699.17 L 630.31 699.17 L 631.78 699.03 L 633.25 699.12 L 634.72 699.09 L 636.19 698.83 L 637.67 697.86 L 639.14 697.37 L 640.61 697.64 L 642.08 698.10 L 643.56 698.30 L 645.03 698.25 L 646.50 697.70 L 647.97 689.97 L 649.44 671.76 L 650.92 681.68 L 652.39 682.77 L 653.86 683.07 L 655.33 682.70 L 656.81 679.73 L 658.28 641.87 L 659.75 644.89 L 661.22 687.83 L 662.69 683.08 L 664.17 682.28 L 665.64 647.24 L 667.11 671.26 L 668.58 688.62 L 670.06 672.74 L 671.53 657.60 L 673.00 670.91 L 674.47 660.31 L 675.94 667.33 L 677.42 674.20 L 678.89 652.81 L 680.36 650.56 L 681.83 682.27 L 683.31 682.49 L 684.78 695.98 L 686.25 696.16 L 687.72 696.50 L 689.19 697.32 L 690.67 698.20 L 692.14 698.68 L 693.61 698.71 L 695.08 698.97 L 696.56 695.19 L 698.03 685.03 L 699.50 691.16 L 700.97 684.18 L 702.44 686.84 L 703.92 683.60 L 705.39 677.54 L 706.86 677.54 L 708.33 688.56 L 709.81 689.81 L 711.28 690.99 L 712.75 682.37 L 714.22 676.01 L 715.69 666.14 L 717.17 684.84 L 718.64 680.07 L 720.11 650.65 L 721.58 685.65 L 723.06 665.07 L 724.53 671.36 L 726.00 664.79 L 727.47 669.15 L 728.94 669.65 L 730.42 687.73 L 731.89 670.08 L 733.36 664.11 L 734.83 665.87 L 736.31 692.29 L 737.78 697.09 L 739.25 686.51 L 740.72 670.23 L 742.19 675.69 L 743.67 665.65 L 745.14 685.67 L 746.61 656.44 L 748.08 674.51 L 749.56 672.24 L 751.03 648.60 L 752.50 663.42 L 753.97 682.92 L 755.44 680.59 L 756.92 692.41 L 758.39 683.05 L 759.86 671.54 L 761.33 669.32 L 762.81 659.61 L 764.28 671.96 L 765.75 641.89 L 767.22 673.21 L 768.69 633.22 L 770.17 629.60 L 771.64 670.31 L 773.11 692.11 L 774.58 680.31 L 776.06 687.07 L 777.53 619.53 L 779.00 610.57 L 780.47 643.98 L 781.94 690.39 L 783.42 661.02 L 784.89 653.71 L 786.36 619.12 L 787.83 637.59 L 789.31 656.53 L 790.78 656.90 L 792.25 658.16 L 793.72 613.96 L 795.19 649.78 L 796.67 689.10 L 798.14 666.25 L 799.61 681.18 L 801.08 675.46 L 802.56 676.78 L 804.03 689.25 L 805.50 679.51 L 806.97 642.78 L 808.44 635.28 L 809.92 667.87 L 811.39 681.92 L 812.86 674.56 L 814.33 669.89 L 815.81 681.03 L 817.28 684.50 L 818.75 688.79 L 820.22 696.04 L 821.69 687.54 L 823.17 692.79 L 824.64 687.40 L 826.11 684.78 L 827.58 666.30 L 829.06 668.27 L 830.53 681.78 L 832.00 683.89 L 833.47 668.57 L 834.94 668.57 L 836.42 671.71 L 837.89 692.05 L 839.36 681.06 L 840.83 679.09 L 842.31 690.10 L 843.78 684.02 L 845.25 696.03 L 846.72 669.66 L 848.19 660.34 L 849.67 645.03 L 851.14 673.64 L 852.61 655.25 L 854.08 674.67 L 855.56 684.95 L 857.03 680.93 L 858.50 682.26 L 859.97 679.87 L 861.44 687.77 L 862.92 684.83 L 864.39 692.24 L 865.86 694.41 L 867.33 697.88 L 868.81 695.06 L 870.28 694.61 L 871.75 694.87 L 873.22 691.48 L 874.69 686.07 L 876.17 691.45 L 877.64 688.09 L 879.11 685.83 L 880.58 684.00 L 882.06 683.11 L 883.53 683.47 L 885.00 691.13 L 886.47 687.30 L 887.94 689.42 L 889.42 678.02 L 890.89 679.37 L 892.36 693.69 L 893.83 665.00 L 895.31 670.53 L 896.78 676.81 L 898.25 688.54 L 899.72 687.68 L 901.19 688.06 L 902.67 687.69 L 904.14 695.16 L 905.61 695.24 L 907.08 691.82 L 908.56 689.39 L 910.03 689.12 L 911.50 696.88 L 912.97 687.31 L 914.44 693.76" stroke="#FB8C00" />
<text x="90" y="711.25" font-size="14" font-weight="700">Giroscópio (magnitude) (u.a.)</text>
<rect class="event" x="443.33" y="717.25" width="206.11" height="192.75" />
<line class="eventline" x1="443.33" y1="717.25" x2="443.33" y2="910.00" />
<line class="eventline" x1="649.44" y1="717.25" x2="649.44" y2="910.00" />
<line class="grid" x1="90" y1="910.00" x2="1150" y2="910.00" />
<text class="small" x="80" y="914.00" text-anchor="end">0.00</text>
<line class="grid" x1="90" y1="871.45" x2="1150" y2="871.45" />
<text class="small" x="80" y="875.45" text-anchor="end">0.10</text>
<line class="grid" x1="90" y1="832.90" x2="1150" y2="832.90" />
<text class="small" x="80" y="836.90" text-anchor="end">0.20</text>
<line class="grid" x1="90" y1="794.35" x2="1150" y2="794.35" />
<text class="small" x="80" y="798.35" text-anchor="end">0.30</text>
<line class="grid" x1="90" y1="755.80" x2="1150" y2="755.80" />
<text class="small" x="80" y="759.80" text-anchor="end">0.40</text>
<line class="grid" x1="90" y1="717.25" x2="1150" y2="717.25" />
<text class="small" x="80" y="721.25" text-anchor="end">0.50</text>
<line class="grid" x1="90.00" y1="717.25" x2="90.00" y2="910.00" />
<line class="grid" x1="266.67" y1="717.25" x2="266.67" y2="910.00" />
<line class="grid" x1="443.33" y1="717.25" x2="443.33" y2="910.00" />
<line class="grid" x1="620.00" y1="717.25" x2="620.00" y2="910.00" />
<line class="grid" x1="796.67" y1="717.25" x2="796.67" y2="910.00" />
<line class="grid" x1="973.33" y1="717.25" x2="973.33" y2="910.00" />
<line class="grid" x1="1150.00" y1="717.25" x2="1150.00" y2="910.00" />
<line class="axis" x1="90" y1="717.25" x2="90" y2="910.00" />
<line class="axis" x1="90" y1="910.00" x2="1150" y2="910.00" />
<path class="series" d="M 178.33 891.67 L 179.81 877.75 L 181.28 893.56 L 182.75 890.12 L 184.22 888.34 L 185.69 883.58 L 187.17 903.57 L 188.64 896.00 L 190.11 887.30 L 191.58 882.64 L 193.06 892.61 L 194.53 895.97 L 196.00 894.90 L 197.47 901.50 L 198.94 899.89 L 200.42 888.37 L 201.89 895.41 L 203.36 898.10 L 204.83 898.10 L 206.31 897.12 L 207.78 901.79 L 209.25 902.34 L 210.72 900.45 L 212.19 903.11 L 213.67 892.58 L 215.14 895.78 L 216.61 900.14 L 218.08 900.05 L 219.56 894.77 L 221.03 894.70 L 222.50 893.04 L 223.97 897.01 L 225.44 895.35 L 226.92 906.60 L 228.39 902.07 L 229.86 902.42 L 231.33 894.19 L 232.81 894.81 L 234.28 901.63 L 235.75 904.19 L 237.22 889.38 L 238.69 873.29 L 240.17 895.12 L 241.64 901.19 L 243.11 894.33 L 244.58 897.50 L 246.06 882.45 L 247.53 883.23 L 249.00 864.84 L 250.47 839.74 L 251.94 814.72 L 253.42 814.48 L 254.89 825.73 L 256.36 811.18 L 257.83 829.24 L 259.31 843.50 L 260.78 871.15 L 262.25 892.22 L 263.72 907.55 L 265.19 907.94 L 266.67 900.75 L 268.14 905.92 L 269.61 908.59 L 271.08 897.95 L 272.56 885.98 L 274.03 876.67 L 275.50 867.01 L 276.97 862.87 L 278.44 872.74 L 279.92 885.19 L 281.39 896.88 L 282.86 894.32 L 284.33 898.42 L 285.81 898.08 L 287.28 900.58 L 288.75 904.89 L 290.22 909.68 L 291.69 909.52 L 293.17 909.60 L 294.64 909.61 L 296.11 909.55 L 297.58 909.60 L 299.06 909.57 L 300.53 909.54 L 302.00 909.57 L 303.47 909.58 L 304.94 909.58 L 306.42 909.57 L 307.89 906.69 L 309.36 899.40 L 310.83 897.17 L 312.31 898.89 L 313.78 902.42 L 315.25 901.89 L 316.72 905.44 L 318.19 905.49 L 319.67 904.04 L 321.14 903.65 L 322.61 903.02 L 324.08 896.91 L 325.56 892.64 L 327.03 899.87 L 328.50 907.66 L 329.97 909.26 L 331.44 909.67 L 332.92 909.67 L 334.39 909.35 L 335.86 909.53 L 337.33 909.56 L 338.81 909.07 L 340.28 909.48 L 341.75 909.34 L 343.22 909.56 L 344.69 909.56 L 346.17 909.55 L 347.64 909.60 L 349.11 909.51 L 350.58 909.51 L 352.06 909.56 L 353.53 909.51 L 355.00 909.49 L 356.47 909.51 L 357.94 909.56 L 359.42 909.54 L 360.89 909.56 L 362.36 909.50 L 363.83 909.54 L 365.31 909.55 L 366.78 909.48 L 368.25 909.46 L 369.72 909.50 L 371.19 909.58 L 372.67 909.52 L 374.14 909.51 L 375.61 909.57 L 377.08 909.46 L 378.56 909.57 L 380.03 909.55 L 381.50 909.57 L 382.97 909.55 L 384.44 909.58 L 385.92 909.48 L 387.39 909.57 L 388.86 909.50 L 390.33 909.55 L 391.81 909.53 L 393.28 909.46 L 394.75 909.50 L 396.22 909.49 L 397.69 909.55 L 399.17 909.52 L 400.64 909.59 L 402.11 909.51 L 403.58 909.54 L 405.06 909.51 L 406.53 909.59 L 408.00 909.52 L 409.47 909.59 L 410.94 909.49 L 412.42 909.54 L 413.89 909.57 L 415.36 909.55 L 416.83 909.53 L 418.31 909.59 L 419.78 909.54 L 421.25 909.58 L 422.72 909.45 L 424.19 909.58 L 425.67 909.50 L 427.14 909.29 L 428.61 909.60 L 430.08 909.38 L 431.56 909.60 L 433.03 909.22 L 434.50 908.07 L 435.97 902.70 L 437.44 897.39 L 438.92 899.63 L 440.39 896.68 L 441.86 902.91 L 443.33 908.21 L 444.81 908.20 L 446.28 908.89 L 447.75 909.64 L 449.22 909.00 L 450.69 909.48 L 452.17 909.64 L 453.64 909.50 L 455.11 909.45 L 456.58 909.61 L 458.06 909.61 L 459.53 909.45 L 461.00 909.56 L 462.47 909.49 L 463.94 909.51 L 465.42 909.51 L 466.89 909.57 L 468.36 909.47 L 469.83 909.57 L 471.31 909.48 L 472.78 909.52 L 474.25 909.49 L 475.72 909.55 L 477.19 909.55 L 478.67 909.54 L 480.14 909.50 L 481.61 908.54 L 483.08 908.41 L 484.56 909.21 L 486.03 909.40 L 487.50 909.31 L 488.97 909.43 L 490.44 909.52 L 491.92 909.58 L 493.39 909.44 L 494.86 909.50 L 496.33 909.54 L 497.81 909.54 L 499.28 909.49 L 500.75 909.47 L 502.22 909.53 L 503.69 909.51 L 505.17 909.57 L 506.64 909.51 L 508.11 909.55 L 509.58 909.54 L 511.06 909.55 L 512.53 909.53 L 514.00 909.50 L 515.47 909.49 L 516.94 909.52 L 518.42 909.51 L 519.89 909.61 L 521.36 909.88 L 522.83 909.47 L 524.31 908.89 L 525.78 908.83 L 527.25 909.71 L 528.72 909.84 L 530.19 909.87 L 531.67 909.94 L 533.14 909.99 L 534.61 909.92 L 536.08 909.91 L 537.56 909.90 L 539.03 909.92 L 540.50 909.96 L 541.97 909.88 L 543.44 909.94 L 544.92 909.91 L 546.39 909.94 L 547.86 909.88 L 549.33 909.93 L 550.81 909.92 L 552.28 909.89 L 553.75 909.92 L 555.22 909.92 L 556.69 909.98 L 558.17 909.87 L 559.64 909.90 L 561.11 909.87 L 562.58 909.74 L 564.06 909.04 L 565.53 908.99 L 567.00 909.15 L 568.47 909.78 L 569.94 909.84 L 571.42 909.91 L 572.89 909.90 L 574.36 909.93 L 575.83 909.91 L 577.31 909.84 L 578.78 909.94 L 580.25 909.95 L 581.72 909.94 L 583.19 909.97 L 584.67 909.97 L 586.14 909.90 L 587.61 909.95 L 589.08 909.89 L 590.56 909.88 L 592.03 909.84 L 593.50 909.87 L 594.97 909.85 L 596.44 909.93 L 597.92 909.97 L 599.39 909.95 L 600.86 909.95 L 602.33 909.95 L 603.81 909.96 L 605.28 908.80 L 606.75 909.08 L 608.22 909.63 L 609.69 909.62 L 611.17 909.80 L 612.64 909.84 L 614.11 909.95 L 615.58 909.85 L 617.06 909.95 L 618.53 909.90 L 620.00 909.92 L 621.47 909.86 L 622.94 909.97 L 624.42 909.97 L 625.89 909.91 L 627.36 909.92 L 628.83 909.91 L 630.31 909.92 L 631.78 909.90 L 633.25 909.90 L 634.72 909.89 L 636.19 909.43 L 637.67 909.74 L 639.14 909.64 L 640.61 909.72 L 642.08 909.86 L 643.56 909.95 L 645.03 909.95 L 646.50 909.56 L 647.97 907.87 L 649.44 904.63 L 650.92 897.70 L 652.39 905.08 L 653.86 897.22 L 655.33 903.62 L 656.81 893.80 L 658.28 894.60 L 659.75 890.32 L 661.22 890.52 L 662.69 888.63 L 664.17 893.45 L 665.64 893.54 L 667.11 883.85 L 668.58 890.59 L 670.06 900.44 L 671.53 888.77 L 673.00 897.67 L 674.47 897.41 L 675.94 894.93 L 677.42 890.80 L 678.89 900.62 L 680.36 903.73 L 681.83 905.55 L 683.31 908.54 L 684.78 909.11 L 686.25 909.28 L 687.72 909.84 L 689.19 909.77 L 690.67 909.76 L 692.14 909.89 L 693.61 909.90 L 695.08 909.86 L 696.56 909.27 L 698.03 908.13 L 699.50 906.31 L 700.97 906.89 L 702.44 903.82 L 703.92 901.87 L 705.39 898.20 L 706.86 898.20 L 708.33 896.91 L 709.81 893.14 L 711.28 892.53 L 712.75 901.89 L 714.22 902.45 L 715.69 897.64 L 717.17 896.33 L 718.64 902.23 L 720.11 897.88 L 721.58 899.74 L 723.06 890.94 L 724.53 896.81 L 726.00 894.48 L 727.47 893.74 L 728.94 898.53 L 730.42 904.11 L 731.89 892.86 L 733.36 899.91 L 734.83 900.17 L 736.31 893.07 L 737.78 900.81 L 739.25 890.76 L 740.72 897.57 L 742.19 895.17 L 743.67 892.31 L 745.14 896.50 L 746.61 892.36 L 748.08 889.20 L 749.56 899.09 L 751.03 903.67 L 752.50 901.90 L 753.97 889.37 L 755.44 902.19 L 756.92 903.88 L 758.39 902.73 L 759.86 894.31 L 761.33 898.41 L 762.81 893.50 L 764.28 900.22 L 765.75 897.65 L 767.22 901.46 L 768.69 896.47 L 770.17 899.27 L 771.64 901.71 L 773.11 906.20 L 774.58 886.68 L 776.06 895.87 L 777.53 874.31 L 779.00 901.42 L 780.47 898.42 L 781.94 896.28 L 783.42 896.50 L 784.89 903.89 L 786.36 894.51 L 787.83 885.98 L 789.31 888.85 L 790.78 889.82 L 792.25 893.06 L 793.72 889.97 L 795.19 893.05 L 796.67 895.74 L 798.14 897.56 L 799.61 895.55 L 801.08 888.12 L 802.56 898.73 L 804.03 887.55 L 805.50 873.70 L 806.97 884.13 L 808.44 903.53 L 809.92 906.09 L 811.39 906.47 L 812.86 906.99 L 814.33 908.09 L 815.81 904.15 L 817.28 906.18 L 818.75 903.31 L 820.22 903.25 L 821.69 901.74 L 823.17 895.81 L 824.64 893.18 L 826.11 891.10 L 827.58 892.08 L 829.06 886.30 L 830.53 878.58 L 832.00 881.65 L 833.47 877.53 L 834.94 877.53 L 836.42 883.15 L 837.89 885.63 L 839.36 888.88 L 840.83 887.99 L 842.31 887.75 L 843.78 887.30 L 845.25 884.01 L 846.72 874.67 L 848.19 882.53 L 849.67 886.29 L 851.14 885.12 L 852.61 895.30 L 854.08 902.85 L 855.56 905.08 L 857.03 906.59 L 858.50 903.50 L 859.97 897.63 L 861.44 896.24 L 862.92 897.65 L 864.39 900.26 L 865.86 907.62 L 867.33 907.16 L 868.81 907.86 L 870.28 906.39 L 871.75 907.90 L 873.22 905.99 L 874.69 905.33 L 876.17 904.72 L 877.64 906.28 L 879.11 906.12 L 880.58 906.09 L 882.06 898.43 L 883.53 900.42 L 885.00 896.34 L 886.47 900.38 L 887.94 901.84 L 889.42 899.87 L 890.89 900.81 L 892.36 900.28 L 893.83 899.81 L 895.31 904.21 L 896.78 905.56 L 898.25 906.76 L 899.72 905.86 L 901.19 906.07 L 902.67 905.68 L 904.14 906.51 L 905.61 904.92 L 907.08 900.25 L 908.56 904.17 L 910.03 904.03 L 911.50 902.39 L 912.97 903.67 L 914.44 905.58" stroke="#E53935" />
<text x="620.00" y="952" font-size="15" text-anchor="middle">minutos (relativo ao início do evento)</text>
<text class="small" x="90.00" y="936" text-anchor="middle">-4.00</text>
<text class="small" x="266.67" y="936" text-anchor="middle">-2.00</text>
<text class="small" x="443.33" y="936" text-anchor="middle">0.00</text>
<text class="small" x="620.00" y="936" text-anchor="middle">2.00</text>
<text class="small" x="796.67" y="936" text-anchor="middle">4.00</text>
<text class="small" x="973.33" y="936" text-anchor="middle">6.00</text>
<text class="small" x="1150.00" y="936" text-anchor="middle">8.00</text>
</svg>