<?xml version="1.0" encoding="UTF-8"?>
<svg xmlns="http://www.w3.org/2000/svg" width="1180" height="980" viewBox="0 0 1180 980">
<style>
text { font-family: -apple-system, BlinkMacSystemFont, 'Segoe UI', Roboto, Helvetica, Arial, sans-serif; fill: #111; }
.small { font-size: 12px; fill: #222; }
.title { font-size: 18px; font-weight: 700; }
.axis { stroke: #111; stroke-width: 1.4; }
.grid { stroke: #E6E6E6; stroke-width: 1; }
.event { fill: #FFEB3B; fill-opacity: 0.18; }
.eventline { stroke: #F9A825; stroke-width: 1.2; stroke-dasharray: 4 3; }
.series { fill: none; stroke-width: 1.8; }
</style>
<text class="title" x="90" y="34">ciclo 3 — espera_basculamento — 2025-12-12T15:34:59-03:00 → 2025-12-12T15:35:53-03:00 (span 54s, dur 55s)</text>
<text class="small" x="90" y="54">GPS: -11.692571,-47.164776  hotspot: -11.693,-47.165</text>
<text class="small" x="90" y="70">Janela: -3.00 → 3.90 min (relativo ao início do evento)</text>
<text x="90" y="79.00" font-size="14" font-weight="700">Velocidade (km/h)</text>
<rect class="event" x="443.33" y="85.00" width="79.50" height="192.75" />
<line class="eventline" x1="443.33" y1="85.00" x2="443.33" y2="277.75" />
<line class="eventline" x1="522.83" y1="85.00" x2="522.83" y2="277.75" />
<line class="grid" x1="90" y1="277.75" x2="1150" y2="277.75" />
<text class="small" x="80" y="281.75" text-anchor="end">0.00</text>
<line class="grid" x1="90" y1="239.20" x2="1150" y2="239.20" />
<text class="small" x="80" y="243.20" text-anchor="end">10.0</text>
<line class="grid" x1="90" y1="200.65" x2="1150" y2="200.65" />
<text class="small" x="80" y="204.65" text-anchor="end">20.0</text>
<line class="grid" x1="90" y1="162.10" x2="1150" y2="162.10" />
<text class="small" x="80" y="166.10" text-anchor="end">30.0</text>
<line class="grid" x1="90" y1="123.55" x2="1150" y2="123.55" />
<text class="small" x="80" y="127.55" text-anchor="end">40.0</text>
<line class="grid" x1="90" y1="85.00" x2="1150" y2="85.00" />
<text class="small" x="80" y="89.00" text-anchor="end">50.0</text>
<line class="grid" x1="90.00" y1="85.00" x2="90.00" y2="277.75" />
<line class="grid" x1="266.67" y1="85.00" x2="266.67" y2="277.75" />
<line class="grid" x1="443.33" y1="85.00" x2="443.33" y2="277.75" />
<line class="grid" x1="620.00" y1="85.00" x2="620.00" y2="277.75" />
<line class="grid" x1="796.67" y1="85.00" x2="796.67" y2="277.75" />
<line class="grid" x1="973.33" y1="85.00" x2="973.33" y2="277.75" />
<line class="grid" x1="1150.00" y1="85.00" x2="1150.00" y2="277.75" />
<line class="axis" x1="90" y1="85.00" x2="90" y2="277.75" />
<line class="axis" x1="90" y1="277.75" x2="1150" y2="277.75" />
<path class="series" d="M 178.33 253.05 L 179.81 254.57 L 181.28 254.71 L 182.75 252.63 L 184.22 251.10 L 185.69 249.16 L 187.17 249.30 L 188.64 249.02 L 190.11 248.19 L 191.58 247.36 L 193.06 246.11 L 194.53 245.97 L 196.00 246.11 L 197.47 246.80 L 198.94 246.80 L 200.42 247.50 L 201.89 245.14 L 203.36 246.11 L 204.83 245.97 L 206.31 247.08 L 207.78 246.66 L 209.25 247.91 L 210.72 246.80 L 212.19 247.50 L 213.67 247.36 L 215.14 247.50 L 216.61 248.47 L 218.08 247.50 L 219.56 248.05 L 221.03 246.25 L 222.50 246.39 L 223.97 247.50 L 225.44 247.36 L 226.92 246.25 L 228.39 244.17 L 229.86 248.05 L 231.33 248.05 L 232.81 245.28 L 234.28 246.25 L 235.75 242.92 L 237.22 238.06 L 238.69 234.17 L 240.17 230.56 L 241.64 223.90 L 243.11 217.52 L 244.58 213.22 L 246.06 213.49 L 247.53 214.19 L 249.00 218.77 L 250.47 221.13 L 251.94 220.30 L 253.42 223.35 L 254.89 223.63 L 256.36 220.85 L 257.83 218.21 L 259.31 219.32 L 260.78 218.21 L 262.25 216.41 L 263.72 215.16 L 265.19 209.61 L 266.67 215.02 L 268.14 212.66 L 269.61 216.96 L 271.08 216.96 L 272.56 222.79 L 274.03 222.38 L 275.50 225.01 L 276.97 228.34 L 278.44 232.09 L 279.92 236.25 L 281.39 237.64 L 282.86 236.39 L 284.33 235.84 L 285.81 236.39 L 287.28 236.53 L 288.75 237.37 L 290.22 238.34 L 291.69 238.48 L 293.17 239.31 L 294.64 237.50 L 296.11 235.14 L 297.58 234.45 L 299.06 231.54 L 300.53 225.99 L 302.00 226.82 L 303.47 229.45 L 304.94 217.38 L 306.42 215.99 L 307.89 215.30 L 309.36 212.94 L 310.83 217.80 L 312.31 211.97 L 313.78 215.85 L 315.25 223.07 L 316.72 229.45 L 318.19 233.48 L 319.67 237.09 L 321.14 242.64 L 322.61 245.28 L 324.08 245.28 L 325.56 241.53 L 327.03 237.64 L 328.50 235.14 L 329.97 236.39 L 331.44 238.20 L 332.92 241.11 L 334.39 242.36 L 335.86 245.83 L 337.33 243.75 L 338.81 244.86 L 340.28 243.61 L 341.75 246.11 L 343.22 249.44 L 344.69 251.66 L 346.17 249.72 L 347.64 242.92 L 349.11 234.73 L 350.58 239.45 L 352.06 238.34 L 353.53 237.50 L 355.00 243.33 L 356.47 234.87 L 357.94 239.45 L 359.42 240.70 L 360.89 247.50 L 362.36 250.69 L 363.83 260.96 L 365.31 262.21 L 366.78 259.15 L 368.25 265.95 L 369.72 274.28 L 371.19 277.75 L 372.67 277.75 L 374.14 277.75 L 375.61 265.68 L 377.08 257.21 L 378.56 259.71 L 380.03 257.77 L 381.50 256.38 L 382.97 259.57 L 384.44 257.21 L 385.92 259.15 L 387.39 256.38 L 388.86 254.71 L 390.33 255.13 L 391.81 261.51 L 393.28 256.24 L 394.75 266.09 L 396.22 259.57 L 397.69 264.84 L 399.17 259.85 L 400.64 264.98 L 402.11 259.85 L 403.58 259.57 L 405.06 261.51 L 406.53 258.04 L 408.00 259.01 L 409.47 259.01 L 410.94 261.24 L 412.42 260.54 L 413.89 258.46 L 415.36 263.73 L 416.83 259.43 L 418.31 258.88 L 419.78 259.29 L 421.25 260.96 L 422.72 262.07 L 424.19 261.65 L 425.67 263.32 L 427.14 264.15 L 428.61 263.87 L 430.08 263.87 L 431.56 269.98 L 433.03 267.20 L 434.50 267.06 L 435.97 268.04 L 437.44 268.17 L 438.92 268.87 L 440.39 270.81 L 441.86 272.75 L 443.33 277.75 L 444.81 277.75 L 446.28 277.75 L 447.75 277.75 L 449.22 277.75 L 450.69 277.75 L 452.17 277.75 L 453.64 277.75 L 455.11 277.75 L 456.58 277.75 L 458.06 277.75 L 459.53 277.75 L 461.00 277.75 L 462.47 277.75 L 463.94 277.75 L 465.42 277.75 L 466.89 277.75 L 468.36 277.75 L 469.83 277.75 L 471.31 277.75 L 472.78 277.75 L 474.25 277.75 L 475.72 277.75 L 477.19 277.75 L 478.67 277.75 L 480.14 277.75 L 481.61 277.75 L 483.08 277.75 L 484.56 277.75 L 486.03 277.75 L 487.50 277.75 L 488.97 277.75 L 490.44 277.75 L 491.92 277.75 L 493.39 277.75 L 494.86 277.75 L 496.33 277.75 L 497.81 277.75 L 499.28 277.75 L 500.75 277.75 L 502.22 277.75 L 503.69 277.75 L 505.17 277.75 L 506.64 277.75 L 508.11 277.75 L 509.58 277.75 L 511.06 277.75 L 512.53 277.75 L 514.00 277.75 L 515.47 277.75 L 516.94 277.75 L 518.42 277.75 L 519.89 277.75 L 521.36 277.75 L 522.83 277.75 L 524.31 265.40 L 525.78 270.39 L 527.25 264.84 L 528.72 264.70 L 530.19 267.06 L 531.67 270.12 L 533.14 266.65 L 534.61 257.49 L 536.08 264.84 L 537.56 266.23 L 539.03 272.75 L 540.50 277.75 L 541.97 277.75 L 543.44 277.75 L 544.92 277.75 L 546.39 277.75 L 547.86 277.75 L 549.33 277.75 L 550.81 277.75 L 552.28 277.75 L 553.75 277.75 L 555.22 277.75 L 556.69 277.75 L 558.17 277.75 L 559.64 277.75 L 561.11 277.75 L 562.58 277.75 L 564.06 277.75 L 565.53 277.75 L 567.00 277.75 L 568.47 247.77 L 569.94 241.94 L 571.42 232.65 L 572.89 230.84 L 574.36 224.04 L 575.83 217.38 L 577.31 223.63 L 578.78 214.61 L 580.25 215.16 L 581.72 211.41 L 583.19 201.70 L 584.67 205.17 L 586.14 204.89 L 587.61 201.28 L 589.08 201.42 L 590.56 208.78 L 592.03 216.27 L 593.50 217.38 L 594.97 213.91 L 596.44 216.13 L 597.92 208.50 L 599.39 206.42 L 600.86 196.15 L 602.33 192.96 L 603.81 195.04 L 605.28 192.26 L 606.75 192.82 L 608.22 199.89 L 609.69 200.03 L 611.17 194.34 L 612.64 189.76 L 614.11 192.54 L 615.58 198.37 L 617.06 199.89 L 618.53 202.67 L 620.00 194.48 L 621.47 192.96 L 622.94 180.47 L 624.42 170.47 L 625.89 166.17 L 627.36 165.89 L 628.83 168.53 L 630.31 173.80 L 631.78 165.20 L 633.25 172.42 L 634.72 165.06 L 636.19 164.92 L 637.67 168.11 L 639.14 165.75 L 640.61 173.25 L 642.08 180.33 L 643.56 189.07 L 645.03 189.90 L 646.50 187.96 L 647.97 188.93 L 649.44 186.16 L 650.92 185.46 L 652.39 181.30 L 653.86 177.83 L 655.33 174.08 L 656.81 171.17 L 658.28 169.22 L 659.75 169.64 L 661.22 174.36 L 662.69 182.41 L 664.17 173.94 L 665.64 177.83 L 667.11 173.39 L 668.58 174.22 L 670.06 172.97 L 671.53 173.53 L 673.00 170.33 L 674.47 169.22 L 675.94 168.67 L 677.42 168.53 L 678.89 169.36 L 680.36 171.03 L 681.83 169.78 L 683.31 173.80 L 684.78 166.73 L 686.25 172.42 L 687.72 175.33 L 689.19 166.03 L 690.67 160.06 L 692.14 160.34 L 693.61 159.09 L 695.08 159.65 L 696.56 155.35 L 698.03 158.54 L 699.50 158.54 L 700.97 159.65 L 702.44 160.90 L 703.92 161.87 L 705.39 160.76 L 706.86 162.01 L 708.33 161.87 L 709.81 161.59 L 711.28 164.37 L 712.75 163.12 L 714.22 160.62 L 715.69 163.95 L 717.17 170.20 L 718.64 169.36 L 720.11 165.89 L 721.58 164.37 L 723.06 166.73 L 724.53 167.14 L 726.00 167.00 L 727.47 173.25 L 728.94 169.22 L 730.42 170.61 L 731.89 164.51 L 733.36 160.90 L 734.83 159.93 L 736.31 157.01 L 737.78 156.87 L 739.25 156.04 L 740.72 156.32 L 742.19 154.10 L 743.67 160.34 L 745.14 161.73 L 746.61 162.98 L 748.08 157.57 L 749.56 170.75 L 751.03 175.61 L 752.50 178.80 L 753.97 183.38 L 755.44 181.44 L 756.92 183.24 L 758.39 193.23 L 759.86 188.79 L 761.33 194.20 L 762.81 200.45 L 764.28 201.42 L 765.75 205.45 L 767.22 223.21 L 768.69 214.61 L 770.17 224.18 L 771.64 219.18 L 773.11 216.83 L 774.58 212.25 L 776.06 208.22 L 777.53 207.25 L 779.00 205.58 L 780.47 206.00 L 781.94 205.03 L 783.42 207.67 L 784.89 206.42 L 786.36 202.95 L 787.83 200.87" stroke="#1976D2" />
<text x="90" y="289.75" font-size="14" font-weight="700">Inclinação (graus)</text>
<rect class="event" x="443.33" y="295.75" width="79.50" height="192.75" />
<line class="eventline" x1="443.33" y1="295.75" x2="443.33" y2="488.50" />
<line class="eventline" x1="522.83" y1="295.75" x2="522.83" y2="488.50" />
<line class="grid" x1="90" y1="488.50" x2="1150" y2="488.50" />
<text class="small" x="80" y="492.50" text-anchor="end">-20.0</text>
<line class="grid" x1="90" y1="449.95" x2="1150" y2="449.95" />
<text class="small" x="80" y="453.95" text-anchor="end">-10.0</text>
<line class="grid" x1="90" y1="411.40" x2="1150" y2="411.40" />
<text class="small" x="80" y="415.40" text-anchor="end">0.00</text>
<line class="grid" x1="90" y1="372.85" x2="1150" y2="372.85" />
<text class="small" x="80" y="376.85" text-anchor="end">10.0</text>
<line class="grid" x1="90" y1="334.30" x2="1150" y2="334.30" />
<text class="small" x="80" y="338.30" text-anchor="end">20.0</text>
<line class="grid" x1="90" y1="295.75" x2="1150" y2="295.75" />
<text class="small" x="80" y="299.75" text-anchor="end">30.0</text>
<line class="grid" x1="90.00" y1="295.75" x2="90.00" y2="488.50" />
<line class="grid" x1="266.67" y1="295.75" x2="266.67" y2="488.50" />
<line class="grid" x1="443.33" y1="295.75" x2="443.33" y2="488.50" />
<line class="grid" x1="620.00" y1="295.75" x2="620.00" y2="488.50" />
<line class="grid" x1="796.67" y1="295.75" x2="796.67" y2="488.50" />
<line class="grid" x1="973.33" y1="295.75" x2="973.33" y2="488.50" />
<line class="grid" x1="1150.00" y1="295.75" x2="1150.00" y2="488.50" />
<line class="axis" x1="90" y1="295.75" x2="90" y2="488.50" />
<line class="axis" x1="90" y1="488.50" x2="1150" y2="488.50" />
<path class="series" d="M 178.33 396.77 L 179.81 397.89 L 181.28 396.82 L 182.75 396.81 L 184.22 396.34 L 185.69 395.56 L 187.17 394.54 L 188.64 393.24 L 190.11 393.62 L 191.58 392.24 L 193.06 392.24 L 194.53 391.88 L 196.00 390.22 L 197.47 389.34 L 198.94 388.60 L 200.42 387.17 L 201.89 387.55 L 203.36 388.57 L 204.83 389.09 L 206.31 390.26 L 207.78 391.61 L 209.25 393.11 L 210.72 392.66 L 212.19 393.46 L 213.67 393.02 L 215.14 394.49 L 216.61 392.56 L 218.08 392.47 L 219.56 393.15 L 221.03 396.37 L 222.50 388.79 L 223.97 387.00 L 225.44 385.98 L 226.92 388.97 L 228.39 387.19 L 229.86 386.46 L 231.33 384.82 L 232.81 382.15 L 234.28 380.29 L 235.75 384.96 L 237.22 378.47 L 238.69 379.20 L 240.17 371.91 L 241.64 376.10 L 243.11 372.90 L 244.58 359.43 L 246.06 363.30 L 247.53 362.84 L 249.00 364.42 L 250.47 371.69 L 251.94 370.85 L 253.42 370.74 L 254.89 373.35 L 256.36 375.10 L 257.83 374.60 L 259.31 375.03 L 260.78 376.21 L 262.25 376.20 L 263.72 370.44 L 265.19 370.80 L 266.67 362.66 L 268.14 369.96 L 269.61 382.05 L 271.08 380.73 L 272.56 378.97 L 274.03 379.01 L 275.50 380.30 L 276.97 384.68 L 278.44 379.59 L 279.92 384.78 L 281.39 388.32 L 282.86 388.53 L 284.33 386.15 L 285.81 386.73 L 287.28 385.17 L 288.75 385.84 L 290.22 388.30 L 291.69 384.34 L 293.17 378.88 L 294.64 378.74 L 296.11 378.47 L 297.58 377.83 L 299.06 374.32 L 300.53 371.91 L 302.00 375.44 L 303.47 367.47 L 304.94 365.58 L 306.42 357.19 L 307.89 367.96 L 309.36 358.57 L 310.83 362.46 L 312.31 362.60 L 313.78 357.42 L 315.25 362.23 L 316.72 362.10 L 318.19 365.83 L 319.67 362.82 L 321.14 371.28 L 322.61 374.35 L 324.08 377.64 L 325.56 375.87 L 327.03 373.10 L 328.50 365.33 L 329.97 371.06 L 331.44 358.19 L 332.92 361.34 L 334.39 361.52 L 335.86 361.94 L 337.33 361.86 L 338.81 354.20 L 340.28 359.43 L 341.75 358.28 L 343.22 369.12 L 344.69 367.64 L 346.17 378.38 L 347.64 364.07 L 349.11 362.34 L 350.58 360.33 L 352.06 360.33 L 353.53 356.93 L 355.00 355.15 L 356.47 354.80 L 357.94 345.29 L 359.42 346.36 L 360.89 348.60 L 362.36 349.94 L 363.83 345.71 L 365.31 363.44 L 366.78 364.50 L 368.25 353.50 L 369.72 352.91 L 371.19 359.80 L 372.67 361.49 L 374.14 358.90 L 375.61 356.97 L 377.08 358.55 L 378.56 363.52 L 380.03 363.66 L 381.50 361.59 L 382.97 367.24 L 384.44 367.97 L 385.92 366.90 L 387.39 365.27 L 388.86 369.37 L 390.33 374.91 L 391.81 371.93 L 393.28 377.32 L 394.75 390.25 L 396.22 376.31 L 397.69 381.03 L 399.17 378.57 L 400.64 373.93 L 402.11 368.18 L 403.58 370.88 L 405.06 370.08 L 406.53 371.56 L 408.00 371.24 L 409.47 372.56 L 410.94 371.53 L 412.42 370.46 L 413.89 366.08 L 415.36 361.79 L 416.83 362.12 L 418.31 361.47 L 419.78 362.82 L 421.25 363.28 L 422.72 364.72 L 424.19 368.10 L 425.67 374.13 L 427.14 372.01 L 428.61 372.12 L 430.08 377.94 L 431.56 373.62 L 433.03 374.80 L 434.50 373.87 L 435.97 373.12 L 437.44 372.30 L 438.92 371.91 L 440.39 373.81 L 441.86 367.07 L 443.33 371.70 L 444.81 366.61 L 446.28 368.38 L 447.75 368.67 L 449.22 362.77 L 450.69 361.60 L 452.17 368.66 L 453.64 367.59 L 455.11 365.69 L 456.58 366.95 L 458.06 363.50 L 459.53 364.10 L 461.00 363.80 L 462.47 363.87 L 463.94 363.43 L 465.42 363.42 L 466.89 363.12 L 468.36 363.38 L 469.83 363.29 L 471.31 363.45 L 472.78 363.55 L 474.25 363.63 L 475.72 363.53 L 477.19 363.86 L 478.67 363.14 L 480.14 363.31 L 481.61 363.27 L 483.08 363.32 L 484.56 364.37 L 486.03 362.36 L 487.50 363.48 L 488.97 363.67 L 490.44 363.56 L 491.92 363.45 L 493.39 363.57 L 494.86 362.89 L 496.33 364.02 L 497.81 363.36 L 499.28 363.22 L 500.75 363.04 L 502.22 362.53 L 503.69 362.20 L 505.17 361.88 L 506.64 362.26 L 508.11 361.44 L 509.58 361.29 L 511.06 360.22 L 512.53 360.65 L 514.00 360.68 L 515.47 360.68 L 516.94 360.58 L 518.42 360.83 L 519.89 360.77 L 521.36 363.30 L 522.83 380.16 L 524.31 369.98 L 525.78 379.18 L 527.25 377.04 L 528.72 372.85 L 530.19 371.62 L 531.67 381.72 L 533.14 387.87 L 534.61 369.56 L 536.08 374.43 L 537.56 365.61 L 539.03 368.94 L 540.50 374.57 L 541.97 374.57 L 543.44 375.31 L 544.92 375.62 L 546.39 374.41 L 547.86 374.99 L 549.33 375.00 L 550.81 374.76 L 552.28 374.59 L 553.75 375.01 L 555.22 374.55 L 556.69 374.80 L 558.17 374.76 L 559.64 374.71 L 561.11 374.73 L 562.58 381.54 L 564.06 391.57 L 565.53 385.39 L 567.00 377.97 L 568.47 381.89 L 569.94 379.24 L 571.42 370.93 L 572.89 380.72 L 574.36 392.33 L 575.83 378.80 L 577.31 387.51 L 578.78 378.11 L 580.25 378.11 L 581.72 380.67 L 583.19 374.44 L 584.67 362.51 L 586.14 369.59 L 587.61 369.04 L 589.08 358.27 L 590.56 356.40 L 592.03 356.56 L 593.50 365.34 L 594.97 356.61 L 596.44 381.68 L 597.92 370.05 L 599.39 371.43 L 600.86 360.78 L 602.33 366.85 L 603.81 357.33 L 605.28 384.25 L 606.75 365.10 L 608.22 369.07 L 609.69 372.67 L 611.17 380.02 L 612.64 370.42 L 614.11 355.52 L 615.58 362.55 L 617.06 351.79 L 618.53 364.70 L 620.00 356.36 L 621.47 352.89 L 622.94 352.09 L 624.42 359.56 L 625.89 354.35 L 627.36 352.93 L 628.83 351.52 L 630.31 362.46 L 631.78 367.77 L 633.25 364.63 L 634.72 362.02 L 636.19 360.97 L 637.67 362.19 L 639.14 352.57 L 640.61 360.90 L 642.08 363.29 L 643.56 362.07 L 645.03 363.88 L 646.50 366.34 L 647.97 356.26 L 649.44 360.25 L 650.92 354.55 L 652.39 355.30 L 653.86 349.80 L 655.33 354.32 L 656.81 350.44 L 658.28 348.43 L 659.75 339.44 L 661.22 334.43 L 662.69 342.92 L 664.17 343.55 L 665.64 344.17 L 667.11 346.80 L 668.58 353.37 L 670.06 353.26 L 671.53 351.76 L 673.00 346.17 L 674.47 344.98 L 675.94 345.97 L 677.42 343.39 L 678.89 346.54 L 680.36 344.96 L 681.83 343.83 L 683.31 346.04 L 684.78 338.29 L 686.25 350.99 L 687.72 348.65 L 689.19 352.76 L 690.67 346.34 L 692.14 345.86 L 693.61 344.38 L 695.08 343.54 L 696.56 345.25 L 698.03 343.09 L 699.50 344.14 L 700.97 345.98 L 702.44 343.41 L 703.92 345.72 L 705.39 343.23 L 706.86 344.45 L 708.33 346.29 L 709.81 344.81 L 711.28 344.56 L 712.75 341.85 L 714.22 344.44 L 715.69 332.07 L 717.17 344.59 L 718.64 352.57 L 720.11 349.27 L 721.58 347.01 L 723.06 344.75 L 724.53 345.74 L 726.00 345.25 L 727.47 345.46 L 728.94 344.48 L 730.42 352.52 L 731.89 352.35 L 733.36 346.52 L 734.83 345.58 L 736.31 344.29 L 737.78 344.45 L 739.25 341.65 L 740.72 344.57 L 742.19 333.36 L 743.67 341.82 L 745.14 341.92 L 746.61 329.69 L 748.08 345.80 L 749.56 342.94 L 751.03 344.81 L 752.50 352.69 L 753.97 353.67 L 755.44 346.73 L 756.92 334.93 L 758.39 360.20 L 759.86 355.12 L 761.33 351.55 L 762.81 353.92 L 764.28 350.36 L 765.75 349.05 L 767.22 359.90 L 768.69 357.58 L 770.17 377.19 L 771.64 374.68 L 773.11 376.45 L 774.58 385.14 L 776.06 372.16 L 777.53 372.53 L 779.00 376.74 L 780.47 372.11 L 781.94 370.88 L 783.42 377.86 L 784.89 376.01 L 786.36 376.94 L 787.83 374.60" stroke="#2E7D32" />
<path class="series" d="M 178.33 407.13 L 179.81 404.26 L 181.28 400.23 L 182.75 401.51 L 184.22 400.98 L 185.69 401.96 L 187.17 400.94 L 188.64 404.20 L 190.11 407.18 L 191.58 404.00 L 193.06 405.33 L 194.53 402.76 L 196.00 398.61 L 197.47 398.82 L 198.94 397.79 L 200.42 397.68 L 201.89 399.61 L 203.36 402.17 L 204.83 400.02 L 206.31 401.98 L 207.78 405.15 L 209.25 405.81 L 210.72 404.16 L 212.19 405.26 L 213.67 408.64 L 215.14 408.06 L 216.61 408.37 L 218.08 407.71 L 219.56 410.81 L 221.03 415.24 L 222.50 409.85 L 223.97 416.85 L 225.44 411.04 L 226.92 418.26 L 228.39 413.23 L 229.86 416.19 L 231.33 414.85 L 232.81 412.62 L 234.28 413.05 L 235.75 414.37 L 237.22 404.97 L 238.69 416.03 L 240.17 401.26 L 241.64 407.25 L 243.11 416.23 L 244.58 411.87 L 246.06 406.15 L 247.53 408.00 L 249.00 405.74 L 250.47 404.06 L 251.94 407.28 L 253.42 403.00 L 254.89 406.95 L 256.36 401.00 L 257.83 406.68 L 259.31 413.91 L 260.78 425.80 L 262.25 421.68 L 263.72 424.64 L 265.19 428.47 L 266.67 414.02 L 268.14 415.57 L 269.61 416.34 L 271.08 412.13 L 272.56 415.21 L 274.03 412.03 L 275.50 411.17 L 276.97 404.87 L 278.44 408.34 L 279.92 415.41 L 281.39 411.67 L 282.86 407.96 L 284.33 401.68 L 285.81 399.07 L 287.28 395.78 L 288.75 412.53 L 290.22 396.99 L 291.69 401.26 L 293.17 397.32 L 294.64 405.48 L 296.11 405.53 L 297.58 408.20 L 299.06 411.62 L 300.53 404.68 L 302.00 406.52 L 303.47 407.88 L 304.94 407.11 L 306.42 410.25 L 307.89 399.04 L 309.36 412.37 L 310.83 386.45 L 312.31 393.57 L 313.78 382.49 L 315.25 390.24 L 316.72 390.67 L 318.19 393.50 L 319.67 394.59 L 321.14 404.29 L 322.61 406.64 L 324.08 402.43 L 325.56 407.05 L 327.03 401.60 L 328.50 412.91 L 329.97 419.67 L 331.44 416.99 L 332.92 422.44 L 334.39 423.06 L 335.86 425.06 L 337.33 422.77 L 338.81 426.16 L 340.28 424.38 L 341.75 414.88 L 343.22 407.60 L 344.69 412.57 L 346.17 406.16 L 347.64 398.36 L 349.11 391.69 L 350.58 400.36 L 352.06 400.36 L 353.53 397.23 L 355.00 399.94 L 356.47 392.59 L 357.94 398.52 L 359.42 391.85 L 360.89 391.16 L 362.36 389.14 L 363.83 392.76 L 365.31 398.63 L 366.78 387.91 L 368.25 401.41 L 369.72 404.91 L 371.19 395.38 L 372.67 397.99 L 374.14 398.12 L 375.61 394.98 L 377.08 398.22 L 378.56 387.49 L 380.03 393.81 L 381.50 399.39 L 382.97 393.33 L 384.44 387.49 L 385.92 394.35 L 387.39 390.79 L 388.86 395.38 L 390.33 390.62 L 391.81 391.36 L 393.28 390.70 L 394.75 400.14 L 396.22 390.05 L 397.69 399.38 L 399.17 391.35 L 400.64 390.96 L 402.11 398.31 L 403.58 392.16 L 405.06 404.81 L 406.53 399.43 L 408.00 397.85 L 409.47 405.71 L 410.94 403.08 L 412.42 410.08 L 413.89 404.92 L 415.36 407.19 L 416.83 405.74 L 418.31 405.12 L 419.78 405.68 L 421.25 410.59 L 422.72 403.32 L 424.19 401.03 L 425.67 401.87 L 427.14 403.75 L 428.61 401.99 L 430.08 405.24 L 431.56 395.36 L 433.03 397.79 L 434.50 395.70 L 435.97 394.32 L 437.44 394.12 L 438.92 389.80 L 440.39 394.46 L 441.86 393.18 L 443.33 393.65 L 444.81 396.29 L 446.28 397.77 L 447.75 397.03 L 449.22 397.69 L 450.69 398.43 L 452.17 402.66 L 453.64 400.30 L 455.11 402.91 L 456.58 404.26 L 458.06 403.09 L 459.53 404.17 L 461.00 403.74 L 462.47 403.71 L 463.94 402.87 L 465.42 403.00 L 466.89 402.63 L 468.36 402.79 L 469.83 403.05 L 471.31 402.67 L 472.78 403.08 L 474.25 403.26 L 475.72 403.06 L 477.19 403.07 L 478.67 403.18 L 480.14 402.79 L 481.61 403.09 L 483.08 403.02 L 484.56 403.09 L 486.03 403.19 L 487.50 403.02 L 488.97 403.29 L 490.44 403.40 L 491.92 403.05 L 493.39 403.36 L 494.86 403.21 L 496.33 403.59 L 497.81 403.21 L 499.28 403.59 L 500.75 402.93 L 502.22 402.99 L 503.69 403.10 L 505.17 403.34 L 506.64 403.48 L 508.11 403.48 L 509.58 404.00 L 511.06 405.27 L 512.53 404.14 L 514.00 404.68 L 515.47 404.58 L 516.94 404.85 L 518.42 404.84 L 519.89 404.89 L 521.36 404.47 L 522.83 402.97 L 524.31 407.88 L 525.78 393.97 L 527.25 393.18 L 528.72 397.15 L 530.19 400.03 L 531.67 398.63 L 533.14 403.55 L 534.61 398.37 L 536.08 400.66 L 537.56 400.87 L 539.03 400.98 L 540.50 401.60 L 541.97 401.78 L 543.44 400.98 L 544.92 401.07 L 546.39 401.83 L 547.86 400.99 L 549.33 401.41 L 550.81 401.26 L 552.28 401.31 L 553.75 401.07 L 555.22 401.87 L 556.69 401.27 L 558.17 401.51 L 559.64 401.46 L 561.11 401.40 L 562.58 401.76 L 564.06 403.34 L 565.53 408.22 L 567.00 404.38 L 568.47 408.68 L 569.94 408.76 L 571.42 407.40 L 572.89 416.57 L 574.36 404.74 L 575.83 383.84 L 577.31 395.71 L 578.78 387.72 L 580.25 387.72 L 581.72 397.95 L 583.19 373.95 L 584.67 378.21 L 586.14 386.15 L 587.61 384.25 L 589.08 378.97 L 590.56 389.56 L 592.03 410.17 L 593.50 401.95 L 594.97 419.61 L 596.44 413.66 L 597.92 422.96 L 599.39 439.73 L 600.86 446.81 L 602.33 443.33 L 603.81 426.83 L 605.28 428.04 L 606.75 432.47 L 608.22 423.17 L 609.69 400.88 L 611.17 395.81 L 612.64 389.55 L 614.11 387.11 L 615.58 392.95 L 617.06 392.05 L 618.53 395.07 L 620.00 383.69 L 621.47 399.79 L 622.94 387.75 L 624.42 396.62 L 625.89 386.55 L 627.36 378.83 L 628.83 416.62 L 630.31 393.22 L 631.78 391.11 L 633.25 396.19 L 634.72 400.76 L 636.19 391.69 L 637.67 408.90 L 639.14 399.12 L 640.61 413.05 L 642.08 397.08 L 643.56 408.48 L 645.03 404.93 L 646.50 397.15 L 647.97 399.05 L 649.44 401.02 L 650.92 404.29 L 652.39 410.91 L 653.86 406.58 L 655.33 402.46 L 656.81 410.01 L 658.28 408.27 L 659.75 403.87 L 661.22 418.56 L 662.69 406.92 L 664.17 408.37 L 665.64 413.46 L 667.11 408.56 L 668.58 405.90 L 670.06 413.29 L 671.53 414.40 L 673.00 409.65 L 674.47 412.61 L 675.94 406.76 L 677.42 405.68 L 678.89 412.12 L 680.36 415.86 L 681.83 409.69 L 683.31 410.51 L 684.78 419.76 L 686.25 419.46 L 687.72 414.11 L 689.19 414.85 L 690.67 408.43 L 692.14 411.12 L 693.61 405.07 L 695.08 404.50 L 696.56 404.60 L 698.03 403.98 L 699.50 407.09 L 700.97 405.65 L 702.44 407.21 L 703.92 412.01 L 705.39 411.61 L 706.86 416.07 L 708.33 416.77 L 709.81 409.69 L 711.28 419.92 L 712.75 409.91 L 714.22 408.87 L 715.69 413.66 L 717.17 412.43 L 718.64 406.04 L 720.11 410.03 L 721.58 401.31 L 723.06 405.27 L 724.53 402.65 L 726.00 406.18 L 727.47 406.81 L 728.94 402.30 L 730.42 408.40 L 731.89 408.29 L 733.36 407.39 L 734.83 406.26 L 736.31 405.73 L 737.78 416.98 L 739.25 412.72 L 740.72 421.28 L 742.19 420.57 L 743.67 417.37 L 745.14 429.30 L 746.61 427.84 L 748.08 423.80 L 749.56 424.48 L 751.03 429.70 L 752.50 429.77 L 753.97 435.45 L 755.44 440.72 L 756.92 420.34 L 758.39 427.96 L 759.86 413.20 L 761.33 375.48 L 762.81 366.82 L 764.28 379.63 L 765.75 383.76 L 767.22 394.48 L 768.69 400.26 L 770.17 404.48 L 771.64 401.06 L 773.11 409.71 L 774.58 402.72 L 776.06 407.99 L 777.53 408.73 L 779.00 413.56 L 780.47 420.00 L 781.94 419.13 L 783.42 422.08 L 784.89 416.07 L 786.36 414.90 L 787.83 413.70" stroke="#6A1B9A" />
<line x1="900.00" y1="307.75" x2="918.00" y2="307.75" stroke="#2E7D32" stroke-width="3" />
<text class="small" x="924.00" y="311.75">pitch</text>
<line x1="900.00" y1="323.75" x2="918.00" y2="323.75" stroke="#6A1B9A" stroke-width="3" />
<text class="small" x="924.00" y="327.75">roll</text>
<text x="90" y="500.50" font-size="14" font-weight="700">Aceleração (magnitude) (u.a.)</text>
<rect class="event" x="443.33" y="506.50" width="79.50" height="192.75" />
<line class="eventline" x1="443.33" y1="506.50" x2="443.33" y2="699.25" />
<line class="eventline" x1="522.83" y1="506.50" x2="522.83" y2="699.25" />
<line class="grid" x1="90" y1="699.25" x2="1150" y2="699.25" />
<text class="small" x="80" y="703.25" text-anchor="end">0.00</text>
<line class="grid" x1="90" y1="660.70" x2="1150" y2="660.70" />
<text class="small" x="80" y="664.70" text-anchor="end">0.50</text>
<line class="grid" x1="90" y1="622.15" x2="1150" y2="622.15" />
<text class="small" x="80" y="626.15" text-anchor="end">1.00</text>
<line class="grid" x1="90" y1="583.60" x2="1150" y2="583.60" />
<text class="small" x="80" y="587.60" text-anchor="end">1.50</text>
<line class="grid" x1="90" y1="545.05" x2="1150" y2="545.05" />
<text class="small" x="80" y="549.05" text-anchor="end">2.00</text>
<line class="grid" x1="90" y1="506.50" x2="1150" y2="506.50" />
<text class="small" x="80" y="510.50" text-anchor="end">2.50</text>
<line class="grid" x1="90.00" y1="506.50" x2="90.00" y2="699.25" />
<line class="grid" x1="266.67" y1="506.50" x2="266.67" y2="699.25" />
<line class="grid" x1="443.33" y1="506.50" x2="443.33" y2="699.25" />
<line class="grid" x1="620.00" y1="506.50" x2="620.00" y2="699.25" />
<line class="grid" x1="796.67" y1="506.50" x2="796.67" y2="699.25" />
<line class="grid" x1="973.33" y1="506.50" x2="973.33" y2="699.25" />
<line class="grid" x1="1150.00" y1="506.50" x2="1150.00" y2="699.25" />
<line class="axis" x1="90" y1="506.50" x2="90" y2="699.25" />
<line class="axis" x1="90" y1="699.25" x2="1150" y2="699.25" />
<path class="series" d="M 178.33 672.22 L 179.81 687.30 L 181.28 688.52 L 182.75 690.20 L 184.22 692.14 L 185.69 693.15 L 187.17 695.08 L 188.64 697.59 L 190.11 692.12 L 191.58 694.97 L 193.06 696.02 L 194.53 691.08 L 196.00 685.55 L 197.47 693.16 L 198.94 691.72 L 200.42 696.24 L 201.89 683.04 L 203.36 688.33 L 204.83 688.76 L 206.31 695.33 L 207.78 688.18 L 209.25 688.94 L 210.72 693.03 L 212.19 693.06 L 213.67 689.97 L 215.14 694.21 L 216.61 692.11 L 218.08 678.60 L 219.56 679.54 L 221.03 672.83 L 222.50 690.84 L 223.97 661.56 L 225.44 696.16 L 226.92 681.46 L 228.39 688.60 L 229.86 693.09 L 231.33 687.85 L 232.81 689.13 L 234.28 682.29 L 235.75 679.51 L 237.22 674.59 L 238.69 687.17 L 240.17 679.04 L 241.64 676.10 L 243.11 664.49 L 244.58 677.10 L 246.06 654.04 L 247.53 663.15 L 249.00 664.52 L 250.47 693.85 L 251.94 645.40 L 253.42 682.31 L 254.89 682.31 L 256.36 674.90 L 257.83 684.79 L 259.31 670.15 L 260.78 660.95 L 262.25 646.98 L 263.72 682.62 L 265.19 655.90 L 266.67 664.58 L 268.14 666.48 L 269.61 665.92 L 271.08 653.18 L 272.56 643.69 L 274.03 645.76 L 275.50 658.58 L 276.97 645.07 L 278.44 649.74 L 279.92 674.73 L 281.39 678.35 L 282.86 683.98 L 284.33 688.86 L 285.81 680.99 L 287.28 680.23 L 288.75 690.40 L 290.22 683.50 L 291.69 686.02 L 293.17 686.83 L 294.64 667.68 L 296.11 692.61 L 297.58 683.42 L 299.06 683.45 L 300.53 692.13 L 302.00 681.98 L 303.47 684.93 L 304.94 669.36 L 306.42 659.62 L 307.89 630.16 L 309.36 672.40 L 310.83 647.07 L 312.31 655.62 L 313.78 621.83 L 315.25 634.34 L 316.72 671.45 L 318.19 679.80 L 319.67 678.84 L 321.14 655.17 L 322.61 680.43 L 324.08 676.71 L 325.56 680.30 L 327.03 685.34 L 328.50 675.36 L 329.97 685.45 L 331.44 660.60 L 332.92 673.95 L 334.39 682.87 L 335.86 670.17 L 337.33 679.17 L 338.81 670.73 L 340.28 666.59 L 341.75 663.22 L 343.22 664.69 L 344.69 655.98 L 346.17 641.29 L 347.64 626.62 L 349.11 651.16 L 350.58 663.67 L 352.06 651.28 L 353.53 658.77 L 355.00 676.02 L 356.47 650.70 L 357.94 657.95 L 359.42 663.01 L 360.89 666.44 L 362.36 655.36 L 363.83 665.71 L 365.31 686.06 L 366.78 658.43 L 368.25 658.41 L 369.72 688.10 L 371.19 690.69 L 372.67 693.39 L 374.14 689.56 L 375.61 693.38 L 377.08 681.32 L 378.56 687.85 L 380.03 685.23 L 381.50 678.38 L 382.97 678.38 L 384.44 690.90 L 385.92 694.44 L 387.39 687.89 L 388.86 681.01 L 390.33 674.00 L 391.81 686.23 L 393.28 682.65 L 394.75 657.04 L 396.22 665.94 L 397.69 684.81 L 399.17 673.06 L 400.64 677.75 L 402.11 680.80 L 403.58 668.29 L 405.06 687.23 L 406.53 684.06 L 408.00 671.73 L 409.47 688.55 L 410.94 689.42 L 412.42 695.59 L 413.89 696.48 L 415.36 682.32 L 416.83 690.59 L 418.31 697.92 L 419.78 695.71 L 421.25 688.64 L 422.72 687.62 L 424.19 681.90 L 425.67 692.89 L 427.14 690.66 L 428.61 689.72 L 430.08 691.98 L 431.56 691.65 L 433.03 694.53 L 434.50 694.14 L 435.97 696.74 L 437.44 696.21 L 438.92 692.63 L 440.39 695.52 L 441.86 691.50 L 443.33 685.72 L 444.81 692.34 L 446.28 693.38 L 447.75 697.85 L 449.22 690.57 L 450.69 695.01 L 452.17 685.21 L 453.64 694.98 L 455.11 697.03 L 456.58 697.48 L 458.06 695.99 L 459.53 698.12 L 461.00 694.52 L 462.47 697.82 L 463.94 698.84 L 465.42 698.29 L 466.89 696.70 L 468.36 698.21 L 469.83 699.08 L 471.31 698.38 L 472.78 698.73 L 474.25 698.90 L 475.72 697.76 L 477.19 698.28 L 478.67 697.48 L 480.14 699.12 L 481.61 698.77 L 483.08 692.01 L 484.56 692.03 L 486.03 693.57 L 487.50 697.93 L 488.97 698.32 L 490.44 698.44 L 491.92 698.58 L 493.39 698.20 L 494.86 698.36 L 496.33 698.38 L 497.81 698.01 L 499.28 685.82 L 500.75 687.02 L 502.22 696.21 L 503.69 697.91 L 505.17 698.17 L 506.64 698.83 L 508.11 698.83 L 509.58 698.10 L 511.06 697.47 L 512.53 697.35 L 514.00 695.65 L 515.47 696.08 L 516.94 695.35 L 518.42 695.91 L 519.89 695.36 L 521.36 698.00 L 522.83 676.17 L 524.31 679.10 L 525.78 654.28 L 527.25 688.63 L 528.72 664.66 L 530.19 675.00 L 531.67 693.47 L 533.14 680.41 L 534.61 687.18 L 536.08 665.68 L 537.56 667.38 L 539.03 653.43 L 540.50 685.87 L 541.97 691.03 L 543.44 692.83 L 544.92 696.42 L 546.39 694.02 L 547.86 693.56 L 549.33 695.17 L 550.81 693.79 L 552.28 694.65 L 553.75 693.13 L 555.22 694.63 L 556.69 695.61 L 558.17 697.50 L 559.64 698.47 L 561.11 698.16 L 562.58 697.88 L 564.06 668.83 L 565.53 682.87 L 567.00 692.05 L 568.47 673.19 L 569.94 645.21 L 571.42 668.17 L 572.89 688.97 L 574.36 668.43 L 575.83 670.71 L 577.31 670.38 L 578.78 640.74 L 580.25 677.67 L 581.72 657.16 L 583.19 609.86 L 584.67 642.58 L 586.14 634.75 L 587.61 646.90 L 589.08 639.83 L 590.56 622.26 L 592.03 630.01 L 593.50 682.08 L 594.97 627.43 L 596.44 666.28 L 597.92 658.69 L 599.39 637.66 L 600.86 610.35 L 602.33 632.67 L 603.81 609.91 L 605.28 649.32 L 606.75 623.12 L 608.22 661.93 L 609.69 591.61 L 611.17 641.87 L 612.64 606.58 L 614.11 635.70 L 615.58 651.25 L 617.06 633.03 L 618.53 669.09 L 620.00 653.35 L 621.47 650.17 L 622.94 668.04 L 624.42 663.17 L 625.89 661.73 L 627.36 627.78 L 628.83 653.01 L 630.31 658.33 L 631.78 655.52 L 633.25 652.14 L 634.72 665.20 L 636.19 665.20 L 637.67 663.39 L 639.14 658.04 L 640.61 650.38 L 642.08 645.13 L 643.56 675.57 L 645.03 676.61 L 646.50 677.95 L 647.97 689.59 L 649.44 683.68 L 650.92 672.37 L 652.39 693.29 L 653.86 688.52 L 655.33 676.50 L 656.81 687.94 L 658.28 677.84 L 659.75 669.40 L 661.22 654.28 L 662.69 682.31 L 664.17 663.15 L 665.64 647.53 L 667.11 683.29 L 668.58 673.20 L 670.06 677.25 L 671.53 680.36 L 673.00 690.03 L 674.47 681.71 L 675.94 683.61 L 677.42 684.74 L 678.89 692.48 L 680.36 690.63 L 681.83 691.90 L 683.31 691.09 L 684.78 679.40 L 686.25 677.20 L 687.72 677.71 L 689.19 678.21 L 690.67 675.14 L 692.14 675.90 L 693.61 681.86 L 695.08 676.34 L 696.56 690.13 L 698.03 688.74 L 699.50 688.56 L 700.97 686.63 L 702.44 688.47 L 703.92 684.85 L 705.39 691.94 L 706.86 676.53 L 708.33 679.65 L 709.81 675.09 L 711.28 692.66 L 712.75 687.69 L 714.22 688.78 L 715.69 657.90 L 717.17 695.75 L 718.64 673.10 L 720.11 682.58 L 721.58 659.26 L 723.06 675.64 L 724.53 669.24 L 726.00 680.96 L 727.47 674.61 L 728.94 686.44 L 730.42 675.56 L 731.89 687.19 L 733.36 687.51 L 734.83 692.14 L 736.31 686.33 L 737.78 685.86 L 739.25 680.05 L 740.72 680.55 L 742.19 650.49 L 743.67 686.13 L 745.14 654.58 L 746.61 651.79 L 748.08 690.74 L 749.56 634.72 L 751.03 645.59 L 752.50 659.82 L 753.97 656.57 L 755.44 641.42 L 756.92 632.17 L 758.39 664.12 L 759.86 632.69 L 761.33 632.69 L 762.81 546.15 L 764.28 578.85 L 765.75 606.35 L 767.22 642.66 L 768.69 645.35 L 770.17 666.64 L 771.64 661.57 L 773.11 670.94 L 774.58 661.40 L 776.06 670.21 L 777.53 661.05 L 779.00 653.02 L 780.47 669.51 L 781.94 672.94 L 783.42 677.40 L 784.89 691.36 L 786.36 686.63 L 787.83 678.21" stroke="#FB8C00" />
<text x="90" y="711.25" font-size="14" font-weight="700">Giroscópio (magnitude) (u.a.)</text>
<rect class="event" x="443.33" y="717.25" width="79.50" height="192.75" />
<line class="eventline" x1="443.33" y1="717.25" x2="443.33" y2="910.00" />
<line class="eventline" x1="522.83" y1="717.25" x2="522.83" y2="910.00" />
<line class="grid" x1="90" y1="910.00" x2="1150" y2="910.00" />
<text class="small" x="80" y="914.00" text-anchor="end">0.00</text>
<line class="grid" x1="90" y1="871.45" x2="1150" y2="871.45" />
<text class="small" x="80" y="875.45" text-anchor="end">0.10</text>
<line class="grid" x1="90" y1="832.90" x2="1150" y2="832.90" />
<text class="small" x="80" y="836.90" text-anchor="end">0.20</text>
<line class="grid" x1="90" y1="794.35" x2="1150" y2="794.35" />
<text class="small" x="80" y="798.35" text-anchor="end">0.30</text>
<line class="grid" x1="90" y1="755.80" x2="1150" y2="755.80" />
<text class="small" x="80" y="759.80" text-anchor="end">0.40</text>
<line class="grid" x1="90" y1="717.25" x2="1150" y2="717.25" />
<text class="small" x="80" y="721.25" text-anchor="end">0.50</text>
<line class="grid" x1="90.00" y1="717.25" x2="90.00" y2="910.00" />
<line class="grid" x1="266.67" y1="717.25" x2="266.67" y2="910.00" />
<line class="grid" x1="443.33" y1="717.25" x2="443.33" y2="910.00" />
<line class="grid" x1="620.00" y1="717.25" x2="620.00" y2="910.00" />
<line class="grid" x1="796.67" y1="717.25" x2="796.67" y2="910.00" />
<line class="grid" x1="973.33" y1="717.25" x2="973.33" y2="910.00" />
<line class="grid" x1="1150.00" y1="717.25" x2="1150.00" y2="910.00" />
<line class="axis" x1="90" y1="717.25" x2="90" y2="910.00" />
<line class="axis" x1="90" y1="910.00" x2="1150" y2="910.00" />
<path class="series" d="M 178.33 906.65 L 179.81 904.75 L 181.28 906.68 L 182.75 905.78 L 184.22 904.68 L 185.69 905.78 L 187.17 907.29 L 188.64 902.60 L 190.11 903.30 L 191.58 902.17 L 193.06 902.19 L 194.53 903.00 L 196.00 902.77 L 197.47 903.01 L 198.94 904.90 L 200.42 903.57 L 201.89 908.27 L 203.36 906.01 L 204.83 905.33 L 206.31 905.78 L 207.78 907.08 L 209.25 906.54 L 210.72 904.49 L 212.19 903.37 L 213.67 905.05 L 215.14 905.67 L 216.61 903.70 L 218.08 900.48 L 219.56 902.31 L 221.03 902.04 L 222.50 899.40 L 223.97 899.35 L 225.44 898.91 L 226.92 901.87 L 228.39 905.16 L 229.86 903.06 L 231.33 905.07 L 232.81 903.68 L 234.28 904.76 L 235.75 899.99 L 237.22 898.51 L 238.69 893.21 L 240.17 899.55 L 241.64 894.40 L 243.11 897.13 L 244.58 894.32 L 246.06 907.48 L 247.53 902.63 L 249.00 903.45 L 250.47 904.09 L 251.94 898.72 L 253.42 904.11 L 254.89 904.11 L 256.36 897.22 L 257.83 904.45 L 259.31 894.13 L 260.78 887.34 L 262.25 868.46 L 263.72 858.67 L 265.19 858.05 L 266.67 857.38 L 268.14 866.59 L 269.61 868.08 L 271.08 876.08 L 272.56 877.48 L 274.03 887.58 L 275.50 895.64 L 276.97 896.99 L 278.44 894.72 L 279.92 891.59 L 281.39 896.37 L 282.86 897.14 L 284.33 898.01 L 285.81 898.47 L 287.28 890.20 L 288.75 879.54 L 290.22 884.20 L 291.69 885.58 L 293.17 887.32 L 294.64 888.60 L 296.11 891.45 L 297.58 888.81 L 299.06 890.18 L 300.53 894.81 L 302.00 899.01 L 303.47 898.76 L 304.94 901.06 L 306.42 901.44 L 307.89 901.23 L 309.36 890.94 L 310.83 874.74 L 312.31 880.59 L 313.78 868.42 L 315.25 857.50 L 316.72 863.79 L 318.19 866.38 L 319.67 864.45 L 321.14 876.10 L 322.61 890.06 L 324.08 892.49 L 325.56 888.26 L 327.03 884.42 L 328.50 884.09 L 329.97 894.98 L 331.44 901.36 L 332.92 889.48 L 334.39 880.38 L 335.86 865.66 L 337.33 854.13 L 338.81 848.44 L 340.28 844.72 L 341.75 849.80 L 343.22 872.77 L 344.69 892.56 L 346.17 904.15 L 347.64 880.84 L 349.11 856.66 L 350.58 840.33 L 352.06 832.91 L 353.53 828.50 L 355.00 826.15 L 356.47 825.64 L 357.94 830.49 L 359.42 837.72 L 360.89 848.60 L 362.36 860.36 L 363.83 874.21 L 365.31 875.13 L 366.78 872.74 L 368.25 895.78 L 369.72 908.29 L 371.19 909.31 L 372.67 903.70 L 374.14 904.13 L 375.61 903.47 L 377.08 907.60 L 378.56 906.86 L 380.03 904.62 L 381.50 903.77 L 382.97 903.77 L 384.44 898.16 L 385.92 897.80 L 387.39 883.07 L 388.86 880.22 L 390.33 881.01 L 391.81 882.67 L 393.28 876.60 L 394.75 891.57 L 396.22 900.23 L 397.69 902.14 L 399.17 902.34 L 400.64 897.02 L 402.11 894.82 L 403.58 908.49 L 405.06 904.07 L 406.53 896.83 L 408.00 904.37 L 409.47 896.64 L 410.94 890.92 L 412.42 895.71 L 413.89 893.16 L 415.36 898.77 L 416.83 887.53 L 418.31 882.10 L 419.78 880.75 L 421.25 888.96 L 422.72 898.67 L 424.19 897.70 L 425.67 889.42 L 427.14 893.72 L 428.61 892.52 L 430.08 901.80 L 431.56 906.38 L 433.03 908.43 L 434.50 905.92 L 435.97 907.75 L 437.44 906.75 L 438.92 907.12 L 440.39 908.27 L 441.86 906.28 L 443.33 906.38 L 444.81 907.61 L 446.28 907.73 L 447.75 907.37 L 449.22 908.15 L 450.69 908.35 L 452.17 906.16 L 453.64 907.39 L 455.11 908.20 L 456.58 908.38 L 458.06 909.26 L 459.53 909.44 L 461.00 909.20 L 462.47 909.40 L 463.94 909.31 L 465.42 909.78 L 466.89 909.64 L 468.36 909.57 L 469.83 909.26 L 471.31 909.41 L 472.78 909.56 L 474.25 909.38 L 475.72 909.53 L 477.19 909.63 L 478.67 909.54 L 480.14 909.54 L 481.61 909.56 L 483.08 909.09 L 484.56 909.53 L 486.03 909.65 L 487.50 909.37 L 488.97 909.36 L 490.44 909.48 L 491.92 909.38 L 493.39 909.53 L 494.86 909.26 L 496.33 909.58 L 497.81 909.51 L 499.28 908.94 L 500.75 909.63 L 502.22 909.24 L 503.69 909.22 L 505.17 908.95 L 506.64 909.22 L 508.11 909.22 L 509.58 908.50 L 511.06 908.27 L 512.53 909.28 L 514.00 908.70 L 515.47 908.84 L 516.94 909.05 L 518.42 908.98 L 519.89 909.11 L 521.36 908.99 L 522.83 905.74 L 524.31 893.02 L 525.78 897.67 L 527.25 902.96 L 528.72 905.94 L 530.19 904.14 L 531.67 908.19 L 533.14 901.13 L 534.61 897.02 L 536.08 899.34 L 537.56 902.74 L 539.03 904.34 L 540.50 907.70 L 541.97 909.12 L 543.44 908.90 L 544.92 909.21 L 546.39 909.34 L 547.86 909.21 L 549.33 909.03 L 550.81 909.25 L 552.28 909.05 L 553.75 909.12 L 555.22 908.96 L 556.69 909.16 L 558.17 909.15 L 559.64 909.08 L 561.11 909.11 L 562.58 909.09 L 564.06 906.56 L 565.53 898.78 L 567.00 897.97 L 568.47 895.01 L 569.94 895.28 L 571.42 892.93 L 572.89 881.00 L 574.36 871.11 L 575.83 887.35 L 577.31 902.22 L 578.78 899.94 L 580.25 885.99 L 581.72 890.16 L 583.19 845.88 L 584.67 846.63 L 586.14 841.11 L 587.61 846.33 L 589.08 839.19 L 590.56 865.49 L 592.03 895.47 L 593.50 904.57 L 594.97 892.50 L 596.44 869.28 L 597.92 863.88 L 599.39 845.28 L 600.86 828.99 L 602.33 843.31 L 603.81 845.44 L 605.28 848.77 L 606.75 858.49 L 608.22 872.04 L 609.69 900.89 L 611.17 880.25 L 612.64 858.71 L 614.11 862.49 L 615.58 864.40 L 617.06 858.95 L 618.53 854.21 L 620.00 850.91 L 621.47 852.08 L 622.94 873.36 L 624.42 871.32 L 625.89 866.61 L 627.36 872.10 L 628.83 878.64 L 630.31 879.83 L 631.78 877.98 L 633.25 875.32 L 634.72 875.19 L 636.19 875.19 L 637.67 880.62 L 639.14 890.36 L 640.61 884.23 L 642.08 895.14 L 643.56 891.11 L 645.03 882.58 L 646.50 888.51 L 647.97 898.88 L 649.44 898.45 L 650.92 895.92 L 652.39 901.87 L 653.86 904.91 L 655.33 900.17 L 656.81 897.15 L 658.28 896.48 L 659.75 899.41 L 661.22 895.68 L 662.69 900.14 L 664.17 897.93 L 665.64 896.73 L 667.11 902.64 L 668.58 902.56 L 670.06 896.30 L 671.53 896.85 L 673.00 902.24 L 674.47 904.92 L 675.94 901.17 L 677.42 905.88 L 678.89 903.25 L 680.36 904.28 L 681.83 906.08 L 683.31 901.93 L 684.78 896.83 L 686.25 893.61 L 687.72 898.74 L 689.19 900.77 L 690.67 906.00 L 692.14 898.37 L 693.61 902.18 L 695.08 901.77 L 696.56 901.02 L 698.03 906.54 L 699.50 909.32 L 700.97 906.94 L 702.44 904.71 L 703.92 899.28 L 705.39 903.13 L 706.86 899.88 L 708.33 905.70 L 709.81 903.20 L 711.28 906.64 L 712.75 896.34 L 714.22 904.43 L 715.69 897.25 L 717.17 901.33 L 718.64 903.95 L 720.11 898.34 L 721.58 903.47 L 723.06 898.20 L 724.53 896.64 L 726.00 894.49 L 727.47 894.64 L 728.94 895.22 L 730.42 896.69 L 731.89 899.61 L 733.36 904.25 L 734.83 906.50 L 736.31 899.18 L 737.78 900.23 L 739.25 904.62 L 740.72 898.14 L 742.19 895.25 L 743.67 893.62 L 745.14 878.99 L 746.61 874.56 L 748.08 877.42 L 749.56 865.41 L 751.03 856.89 L 752.50 851.98 L 753.97 836.52 L 755.44 825.90 L 756.92 854.26 L 758.39 866.43 L 759.86 874.92 L 761.33 874.92 L 762.81 889.38 L 764.28 844.08 L 765.75 817.56 L 767.22 822.84 L 768.69 842.57 L 770.17 850.28 L 771.64 870.86 L 773.11 882.79 L 774.58 902.09 L 776.06 902.12 L 777.53 889.31 L 779.00 878.66 L 780.47 873.14 L 781.94 873.76 L 783.42 873.83 L 784.89 875.87 L 786.36 886.23 L 787.83 890.69" stroke="#E53935" />
<text x="620.00" y="952" font-size="15" text-anchor="middle">minutos (relativo ao início do evento)</text>
<text class="small" x="90.00" y="936" text-anchor="middle">-4.00</text>
<text class="small" x="266.67" y="936" text-anchor="middle">-2.00</text>
<text class="small" x="443.33" y="936" text-anchor="middle">0.00</text>
<text class="small" x="620.00" y="936" text-anchor="middle">2.00</text>
<text class="small" x="796.67" y="936" text-anchor="middle">4.00</text>
<text class="small" x="973.33" y="936" text-anchor="middle">6.00</text>
<text class="small" x="1150.00" y="936" text-anchor="middle">8.00</text>
</svg>