<?xml version="1.0" encoding="UTF-8"?>
<svg xmlns="http://www.w3.org/2000/svg" width="1180" height="980" viewBox="0 0 1180 980">
<style>
text { font-family: -apple-system, BlinkMacSystemFont, 'Segoe UI', Roboto, Helvetica, Arial, sans-serif; fill: #111; }
.small { font-size: 12px; fill: #222; }
.title { font-size: 18px; font-weight: 700; }
.axis { stroke: #111; stroke-width: 1.4; }
.grid { stroke: #E6E6E6; stroke-width: 1; }
.event { fill: #FFEB3B; fill-opacity: 0.18; }
.eventline { stroke: #F9A825; stroke-width: 1.2; stroke-dasharray: 4 3; }
.series { fill: none; stroke-width: 1.8; }
</style>
<text class="title" x="90" y="34">ciclo 12 — basculamento — 2025-12-12T20:25:07-03:00 → 2025-12-12T20:26:05-03:00 (span 58s, dur 49s)</text>
<text class="small" x="90" y="54">GPS: -11.692777,-47.165374  hotspot: -11.693,-47.165</text>
<text class="small" x="90" y="70">Janela: -3.00 → 3.97 min (relativo ao início do evento)</text>
<text x="90" y="79.00" font-size="14" font-weight="700">Velocidade (km/h)</text>
<rect class="event" x="443.33" y="85.00" width="85.39" height="192.75" />
<line class="eventline" x1="443.33" y1="85.00" x2="443.33" y2="277.75" />
<line class="eventline" x1="528.72" y1="85.00" x2="528.72" y2="277.75" />
<line class="grid" x1="90" y1="277.75" x2="1150" y2="277.75" />
<text class="small" x="80" y="281.75" text-anchor="end">0.00</text>
<line class="grid" x1="90" y1="239.20" x2="1150" y2="239.20" />
<text class="small" x="80" y="243.20" text-anchor="end">10.0</text>
<line class="grid" x1="90" y1="200.65" x2="1150" y2="200.65" />
<text class="small" x="80" y="204.65" text-anchor="end">20.0</text>
<line class="grid" x1="90" y1="162.10" x2="1150" y2="162.10" />
<text class="small" x="80" y="166.10" text-anchor="end">30.0</text>
<line class="grid" x1="90" y1="123.55" x2="1150" y2="123.55" />
<text class="small" x="80" y="127.55" text-anchor="end">40.0</text>
<line class="grid" x1="90" y1="85.00" x2="1150" y2="85.00" />
<text class="small" x="80" y="89.00" text-anchor="end">50.0</text>
<line class="grid" x1="90.00" y1="85.00" x2="90.00" y2="277.75" />
<line class="grid" x1="266.67" y1="85.00" x2="266.67" y2="277.75" />
<line class="grid" x1="443.33" y1="85.00" x2="443.33" y2="277.75" />
<line class="grid" x1="620.00" y1="85.00" x2="620.00" y2="277.75" />
<line class="grid" x1="796.67" y1="85.00" x2="796.67" y2="277.75" />
<line class="grid" x1="973.33" y1="85.00" x2="973.33" y2="277.75" />
<line class="grid" x1="1150.00" y1="85.00" x2="1150.00" y2="277.75" />
<line class="axis" x1="90" y1="85.00" x2="90" y2="277.75" />
<line class="axis" x1="90" y1="277.75" x2="1150" y2="277.75" />
<path class="series" d="M 178.33 245.97 L 179.81 246.25 L 181.28 245.83 L 182.75 245.97 L 184.22 245.14 L 185.69 245.69 L 187.17 245.97 L 188.64 247.22 L 190.11 246.94 L 191.58 248.88 L 193.06 247.22 L 194.53 247.77 L 196.00 248.19 L 197.47 248.19 L 198.94 249.44 L 200.42 250.41 L 201.89 254.71 L 203.36 247.36 L 204.83 246.25 L 206.31 243.19 L 207.78 243.19 L 209.25 248.61 L 210.72 246.52 L 212.19 245.28 L 213.67 242.36 L 215.14 240.70 L 216.61 235.70 L 218.08 225.71 L 219.56 231.68 L 221.03 225.71 L 222.50 219.46 L 223.97 218.35 L 225.44 221.13 L 226.92 218.35 L 228.39 217.10 L 229.86 210.03 L 231.33 217.24 L 232.81 213.91 L 234.28 211.97 L 235.75 212.38 L 237.22 213.36 L 238.69 213.77 L 240.17 215.30 L 241.64 216.27 L 243.11 215.58 L 244.58 214.61 L 246.06 211.55 L 247.53 211.83 L 249.00 217.10 L 250.47 215.02 L 251.94 220.71 L 253.42 222.93 L 254.89 224.46 L 256.36 229.87 L 257.83 235.42 L 259.31 237.92 L 260.78 237.37 L 262.25 237.09 L 263.72 225.01 L 265.19 240.28 L 266.67 242.92 L 268.14 245.00 L 269.61 245.97 L 271.08 245.41 L 272.56 244.58 L 274.03 245.00 L 275.50 244.86 L 276.97 241.94 L 278.44 240.42 L 279.92 236.81 L 281.39 236.67 L 282.86 236.81 L 284.33 234.45 L 285.81 234.87 L 287.28 238.20 L 288.75 245.00 L 290.22 253.19 L 291.69 248.33 L 293.17 244.86 L 294.64 246.25 L 296.11 245.41 L 297.58 244.58 L 299.06 241.25 L 300.53 242.78 L 302.00 251.10 L 303.47 255.41 L 304.94 263.18 L 306.42 273.31 L 307.89 277.75 L 309.36 277.75 L 310.83 277.75 L 312.31 277.75 L 313.78 273.73 L 315.25 269.01 L 316.72 265.81 L 318.19 263.59 L 319.67 268.73 L 321.14 277.75 L 322.61 277.75 L 324.08 277.75 L 325.56 277.75 L 327.03 277.75 L 328.50 277.75 L 329.97 277.75 L 331.44 277.75 L 332.92 267.34 L 334.39 263.87 L 335.86 266.51 L 337.33 263.18 L 338.81 257.90 L 340.28 253.46 L 341.75 249.72 L 343.22 243.75 L 344.69 236.25 L 346.17 229.04 L 347.64 218.77 L 349.11 221.54 L 350.58 227.51 L 352.06 232.51 L 353.53 245.00 L 355.00 254.57 L 356.47 254.71 L 357.94 262.21 L 359.42 264.57 L 360.89 255.68 L 362.36 252.63 L 363.83 249.72 L 365.31 242.36 L 366.78 237.78 L 368.25 234.73 L 369.72 235.56 L 371.19 236.53 L 372.67 235.70 L 374.14 235.56 L 375.61 238.20 L 377.08 234.87 L 378.56 242.22 L 380.03 245.69 L 381.50 249.72 L 382.97 249.99 L 384.44 260.68 L 385.92 257.07 L 387.39 257.49 L 388.86 258.74 L 390.33 261.24 L 391.81 261.24 L 393.28 260.40 L 394.75 251.38 L 396.22 247.36 L 397.69 248.47 L 399.17 245.83 L 400.64 244.72 L 402.11 247.50 L 403.58 250.97 L 405.06 262.35 L 406.53 268.59 L 408.00 267.20 L 409.47 269.98 L 410.94 263.46 L 412.42 268.17 L 413.89 274.97 L 415.36 277.75 L 416.83 277.75 L 418.31 277.75 L 419.78 277.75 L 421.25 277.75 L 422.72 265.12 L 424.19 263.18 L 425.67 263.59 L 427.14 262.21 L 428.61 260.26 L 430.08 260.40 L 431.56 265.26 L 433.03 266.51 L 434.50 268.04 L 435.97 270.81 L 437.44 272.62 L 438.92 277.75 L 440.39 277.75 L 441.86 272.20 L 443.33 277.75 L 444.81 277.75 L 446.28 277.75 L 447.75 277.75 L 449.22 277.75 L 450.69 277.75 L 452.17 277.75 L 453.64 277.75 L 455.11 277.75 L 456.58 277.75 L 458.06 277.75 L 459.53 277.75 L 461.00 277.75 L 462.47 277.75 L 463.94 277.75 L 465.42 277.75 L 466.89 277.75 L 468.36 277.75 L 469.83 277.75 L 471.31 277.75 L 472.78 277.75 L 474.25 277.75 L 475.72 277.75 L 477.19 277.75 L 478.67 277.75 L 480.14 277.75 L 481.61 277.75 L 483.08 277.75 L 484.56 277.75 L 486.03 277.75 L 487.50 277.75 L 488.97 277.75 L 490.44 277.75 L 491.92 273.31 L 493.39 265.95 L 494.86 256.24 L 496.33 263.32 L 497.81 266.93 L 499.28 277.75 L 500.75 277.75 L 502.22 277.75 L 503.69 269.01 L 505.17 261.65 L 506.64 277.75 L 508.11 277.75 L 509.58 277.75 L 511.06 277.75 L 512.53 277.75 L 514.00 277.75 L 515.47 277.75 L 516.94 277.75 L 518.42 277.75 L 519.89 277.75 L 521.36 277.75 L 522.83 277.75 L 524.31 277.75 L 525.78 277.75 L 527.25 277.75 L 528.72 277.75 L 530.19 266.93 L 531.67 260.40 L 533.14 258.88 L 534.61 260.68 L 536.08 256.79 L 537.56 262.35 L 539.03 277.75 L 540.50 277.75 L 541.97 277.75 L 543.44 277.75 L 544.92 277.75 L 546.39 268.59 L 547.86 277.75 L 549.33 277.75 L 550.81 277.75 L 552.28 270.81 L 553.75 270.67 L 555.22 269.70 L 556.69 268.31 L 558.17 266.65 L 559.64 262.35 L 561.11 259.01 L 562.58 257.63 L 564.06 250.27 L 565.53 255.13 L 567.00 256.52 L 568.47 257.63 L 569.94 260.54 L 571.42 261.10 L 572.89 260.82 L 574.36 259.01 L 575.83 258.04 L 577.31 262.90 L 578.78 261.93 L 580.25 261.10 L 581.72 264.01 L 583.19 268.87 L 584.67 266.65 L 586.14 263.32 L 587.61 260.26 L 589.08 254.43 L 590.56 246.80 L 592.03 239.03 L 593.50 233.76 L 594.97 223.63 L 596.44 227.79 L 597.92 232.23 L 599.39 231.12 L 600.86 225.01 L 602.33 219.05 L 603.81 215.30 L 605.28 207.39 L 606.75 203.36 L 608.22 192.68 L 609.69 186.71 L 611.17 188.79 L 612.64 193.09 L 614.11 204.34 L 615.58 195.45 L 617.06 190.87 L 618.53 187.82 L 620.00 184.77 L 621.47 178.66 L 622.94 174.36 L 624.42 175.33 L 625.89 163.40 L 627.36 163.81 L 628.83 164.23 L 630.31 167.14 L 631.78 172.42 L 633.25 173.53 L 634.72 176.30 L 636.19 178.66 L 637.67 180.33 L 639.14 183.10 L 640.61 185.74 L 642.08 191.98 L 643.56 198.23 L 645.03 201.28 L 646.50 208.22 L 647.97 209.75 L 649.44 197.40 L 650.92 196.84 L 652.39 197.81 L 653.86 191.85 L 655.33 185.74 L 656.81 182.13 L 658.28 180.19 L 659.75 179.08 L 661.22 178.66 L 662.69 178.80 L 664.17 179.22 L 665.64 178.66 L 667.11 176.86 L 668.58 173.53 L 670.06 172.83 L 671.53 175.19 L 673.00 177.83 L 674.47 178.11 L 675.94 179.22 L 677.42 178.66 L 678.89 177.41 L 680.36 176.16 L 681.83 177.27 L 683.31 178.11 L 684.78 177.13 L 686.25 177.69 L 687.72 177.13 L 689.19 174.91 L 690.67 175.61 L 692.14 178.24 L 693.61 179.08 L 695.08 175.47 L 696.56 175.47 L 698.03 174.78 L 699.50 175.19 L 700.97 174.64 L 702.44 173.53 L 703.92 173.11 L 705.39 173.39 L 706.86 172.83 L 708.33 172.83 L 709.81 174.50 L 711.28 173.94 L 712.75 168.39 L 714.22 167.42 L 715.69 167.98 L 717.17 167.98 L 718.64 167.98 L 720.11 166.03 L 721.58 166.59 L 723.06 167.14 L 724.53 166.31 L 726.00 167.42 L 727.47 169.36 L 728.94 170.33 L 730.42 171.86 L 731.89 173.39 L 733.36 174.91 L 734.83 176.44 L 736.31 177.69 L 737.78 176.86 L 739.25 177.27 L 740.72 174.36 L 742.19 173.11 L 743.67 172.97 L 745.14 173.80 L 746.61 171.58 L 748.08 168.67 L 749.56 167.98 L 751.03 168.39 L 752.50 165.89 L 753.97 167.56 L 755.44 166.59 L 756.92 167.28 L 758.39 172.42 L 759.86 178.38 L 761.33 187.96 L 762.81 196.98 L 764.28 191.01 L 765.75 191.01 L 767.22 192.96 L 768.69 208.50 L 770.17 216.83 L 771.64 218.77 L 773.11 211.41 L 774.58 202.81 L 776.06 190.73 L 777.53 191.29 L 779.00 186.99 L 780.47 193.23 L 781.94 181.02 L 783.42 181.16 L 784.89 178.66 L 786.36 177.69 L 787.83 173.66 L 789.31 170.75 L 790.78 168.67 L 792.25 169.22 L 793.72 165.89" stroke="#1976D2" />
<text x="90" y="289.75" font-size="14" font-weight="700">Inclinação (graus)</text>
<rect class="event" x="443.33" y="295.75" width="85.39" height="192.75" />
<line class="eventline" x1="443.33" y1="295.75" x2="443.33" y2="488.50" />
<line class="eventline" x1="528.72" y1="295.75" x2="528.72" y2="488.50" />
<line class="grid" x1="90" y1="488.50" x2="1150" y2="488.50" />
<text class="small" x="80" y="492.50" text-anchor="end">-20.0</text>
<line class="grid" x1="90" y1="449.95" x2="1150" y2="449.95" />
<text class="small" x="80" y="453.95" text-anchor="end">-10.0</text>
<line class="grid" x1="90" y1="411.40" x2="1150" y2="411.40" />
<text class="small" x="80" y="415.40" text-anchor="end">0.00</text>
<line class="grid" x1="90" y1="372.85" x2="1150" y2="372.85" />
<text class="small" x="80" y="376.85" text-anchor="end">10.0</text>
<line class="grid" x1="90" y1="334.30" x2="1150" y2="334.30" />
<text class="small" x="80" y="338.30" text-anchor="end">20.0</text>
<line class="grid" x1="90" y1="295.75" x2="1150" y2="295.75" />
<text class="small" x="80" y="299.75" text-anchor="end">30.0</text>
<line class="grid" x1="90.00" y1="295.75" x2="90.00" y2="488.50" />
<line class="grid" x1="266.67" y1="295.75" x2="266.67" y2="488.50" />
<line class="grid" x1="443.33" y1="295.75" x2="443.33" y2="488.50" />
<line class="grid" x1="620.00" y1="295.75" x2="620.00" y2="488.50" />
<line class="grid" x1="796.67" y1="295.75" x2="796.67" y2="488.50" />
<line class="grid" x1="973.33" y1="295.75" x2="973.33" y2="488.50" />
<line class="grid" x1="1150.00" y1="295.75" x2="1150.00" y2="488.50" />
<line class="axis" x1="90" y1="295.75" x2="90" y2="488.50" />
<line class="axis" x1="90" y1="488.50" x2="1150" y2="488.50" />
<path class="series" d="M 178.33 388.51 L 179.81 388.87 L 181.28 387.43 L 182.75 386.10 L 184.22 386.60 L 185.69 387.47 L 187.17 388.90 L 188.64 391.48 L 190.11 390.60 L 191.58 391.54 L 193.06 392.58 L 194.53 392.58 L 196.00 391.13 L 197.47 392.39 L 198.94 391.67 L 200.42 394.05 L 201.89 393.56 L 203.36 395.88 L 204.83 389.21 L 206.31 385.83 L 207.78 386.00 L 209.25 385.70 L 210.72 387.83 L 212.19 384.01 L 213.67 385.27 L 215.14 384.77 L 216.61 381.17 L 218.08 371.38 L 219.56 374.04 L 221.03 375.33 L 222.50 373.37 L 223.97 359.79 L 225.44 362.80 L 226.92 366.51 L 228.39 367.68 L 229.86 372.46 L 231.33 369.04 L 232.81 370.62 L 234.28 369.43 L 235.75 372.29 L 237.22 369.96 L 238.69 374.56 L 240.17 373.09 L 241.64 372.71 L 243.11 370.10 L 244.58 369.61 L 246.06 368.29 L 247.53 375.65 L 249.00 381.02 L 250.47 376.46 L 251.94 379.87 L 253.42 378.42 L 254.89 377.55 L 256.36 382.64 L 257.83 377.34 L 259.31 383.24 L 260.78 383.05 L 262.25 382.86 L 263.72 378.30 L 265.19 377.71 L 266.67 388.74 L 268.14 381.31 L 269.61 388.15 L 271.08 383.15 L 272.56 378.04 L 274.03 384.08 L 275.50 378.79 L 276.97 373.96 L 278.44 373.50 L 279.92 373.08 L 281.39 370.57 L 282.86 373.04 L 284.33 380.57 L 285.81 382.72 L 287.28 384.16 L 288.75 386.65 L 290.22 380.38 L 291.69 383.42 L 293.17 382.00 L 294.64 378.32 L 296.11 372.45 L 297.58 370.87 L 299.06 359.21 L 300.53 347.37 L 302.00 350.86 L 303.47 344.88 L 304.94 341.17 L 306.42 339.24 L 307.89 360.26 L 309.36 358.68 L 310.83 353.42 L 312.31 357.72 L 313.78 344.66 L 315.25 352.83 L 316.72 352.83 L 318.19 353.60 L 319.67 363.45 L 321.14 357.64 L 322.61 352.33 L 324.08 348.99 L 325.56 351.81 L 327.03 354.85 L 328.50 357.58 L 329.97 354.01 L 331.44 354.48 L 332.92 365.90 L 334.39 346.70 L 335.86 356.24 L 337.33 361.31 L 338.81 356.02 L 340.28 359.03 L 341.75 357.81 L 343.22 347.67 L 344.69 358.46 L 346.17 358.34 L 347.64 353.25 L 349.11 362.72 L 350.58 350.49 L 352.06 338.29 L 353.53 335.18 L 355.00 355.33 L 356.47 339.20 L 357.94 359.17 L 359.42 368.14 L 360.89 363.19 L 362.36 374.08 L 363.83 374.66 L 365.31 371.36 L 366.78 371.30 L 368.25 373.40 L 369.72 369.99 L 371.19 370.12 L 372.67 372.33 L 374.14 373.35 L 375.61 369.83 L 377.08 355.43 L 378.56 360.41 L 380.03 364.81 L 381.50 366.40 L 382.97 355.81 L 384.44 370.77 L 385.92 368.50 L 387.39 376.70 L 388.86 356.20 L 390.33 359.44 L 391.81 371.75 L 393.28 369.82 L 394.75 367.79 L 396.22 361.70 L 397.69 363.51 L 399.17 362.71 L 400.64 355.35 L 402.11 350.36 L 403.58 349.52 L 405.06 348.12 L 406.53 354.69 L 408.00 367.67 L 409.47 370.01 L 410.94 358.94 L 412.42 354.33 L 413.89 360.84 L 415.36 364.14 L 416.83 366.19 L 418.31 365.96 L 419.78 354.31 L 421.25 355.62 L 422.72 364.67 L 424.19 367.74 L 425.67 364.54 L 427.14 366.58 L 428.61 364.83 L 430.08 373.55 L 431.56 369.89 L 433.03 373.48 L 434.50 373.66 L 435.97 371.76 L 437.44 376.87 L 438.92 369.23 L 440.39 364.96 L 441.86 382.37 L 443.33 366.09 L 444.81 368.56 L 446.28 369.92 L 447.75 369.78 L 449.22 369.30 L 450.69 369.04 L 452.17 368.92 L 453.64 369.11 L 455.11 369.13 L 456.58 369.28 L 458.06 369.29 L 459.53 369.46 L 461.00 369.34 L 462.47 368.88 L 463.94 369.06 L 465.42 369.09 L 466.89 368.37 L 468.36 370.61 L 469.83 369.09 L 471.31 369.13 L 472.78 369.32 L 474.25 369.45 L 475.72 369.61 L 477.19 369.61 L 478.67 369.53 L 480.14 369.60 L 481.61 369.64 L 483.08 369.68 L 484.56 369.83 L 486.03 370.97 L 487.50 368.92 L 488.97 370.80 L 490.44 372.24 L 491.92 376.05 L 493.39 388.47 L 494.86 384.77 L 496.33 368.12 L 497.81 365.09 L 499.28 359.75 L 500.75 372.34 L 502.22 375.60 L 503.69 391.04 L 505.17 380.23 L 506.64 341.92 L 508.11 373.63 L 509.58 375.00 L 511.06 372.70 L 512.53 372.38 L 514.00 371.52 L 515.47 372.05 L 516.94 371.61 L 518.42 371.58 L 519.89 371.48 L 521.36 371.19 L 522.83 371.28 L 524.31 371.31 L 525.78 371.22 L 527.25 376.55 L 528.72 383.42 L 530.19 371.92 L 531.67 377.97 L 533.14 373.23 L 534.61 372.74 L 536.08 364.34 L 537.56 355.44 L 539.03 358.65 L 540.50 372.99 L 541.97 362.89 L 543.44 367.45 L 544.92 367.47 L 546.39 379.43 L 547.86 388.63 L 549.33 374.09 L 550.81 375.60 L 552.28 380.72 L 553.75 376.29 L 555.22 371.75 L 556.69 378.59 L 558.17 375.23 L 559.64 380.07 L 561.11 373.74 L 562.58 375.68 L 564.06 373.31 L 565.53 368.94 L 567.00 368.32 L 568.47 364.77 L 569.94 361.87 L 571.42 367.39 L 572.89 364.87 L 574.36 367.00 L 575.83 358.29 L 577.31 357.80 L 578.78 368.37 L 580.25 359.34 L 581.72 357.68 L 583.19 359.23 L 584.67 368.47 L 586.14 370.55 L 587.61 372.30 L 589.08 378.20 L 590.56 380.44 L 592.03 375.28 L 593.50 370.93 L 594.97 359.14 L 596.44 357.66 L 597.92 353.26 L 599.39 367.10 L 600.86 371.21 L 602.33 375.40 L 603.81 383.20 L 605.28 378.86 L 606.75 392.20 L 608.22 384.33 L 609.69 371.85 L 611.17 361.53 L 612.64 354.77 L 614.11 359.80 L 615.58 360.08 L 617.06 353.26 L 618.53 352.08 L 620.00 353.97 L 621.47 352.16 L 622.94 356.39 L 624.42 356.62 L 625.89 353.28 L 627.36 357.18 L 628.83 359.57 L 630.31 357.40 L 631.78 355.85 L 633.25 356.22 L 634.72 357.28 L 636.19 356.07 L 637.67 362.59 L 639.14 356.52 L 640.61 360.28 L 642.08 361.16 L 643.56 363.69 L 645.03 354.28 L 646.50 357.28 L 647.97 369.20 L 649.44 364.75 L 650.92 358.05 L 652.39 356.00 L 653.86 354.32 L 655.33 350.61 L 656.81 347.35 L 658.28 347.67 L 659.75 346.36 L 661.22 346.33 L 662.69 346.89 L 664.17 341.93 L 665.64 347.65 L 667.11 341.91 L 668.58 345.77 L 670.06 344.18 L 671.53 347.15 L 673.00 344.39 L 674.47 344.79 L 675.94 344.58 L 677.42 343.52 L 678.89 345.44 L 680.36 345.79 L 681.83 344.42 L 683.31 344.96 L 684.78 342.47 L 686.25 347.42 L 687.72 340.66 L 689.19 344.83 L 690.67 342.44 L 692.14 342.51 L 693.61 344.07 L 695.08 345.84 L 696.56 343.98 L 698.03 344.63 L 699.50 344.04 L 700.97 342.93 L 702.44 344.68 L 703.92 344.67 L 705.39 342.98 L 706.86 342.92 L 708.33 344.81 L 709.81 345.35 L 711.28 351.86 L 712.75 347.89 L 714.22 346.50 L 715.69 345.00 L 717.17 344.29 L 718.64 342.07 L 720.11 343.85 L 721.58 343.90 L 723.06 342.86 L 724.53 343.40 L 726.00 343.44 L 727.47 343.99 L 728.94 342.60 L 730.42 344.92 L 731.89 344.08 L 733.36 344.46 L 734.83 344.42 L 736.31 344.55 L 737.78 344.59 L 739.25 342.40 L 740.72 343.75 L 742.19 343.06 L 743.67 343.39 L 745.14 343.11 L 746.61 341.68 L 748.08 343.41 L 749.56 342.88 L 751.03 343.89 L 752.50 343.12 L 753.97 340.83 L 755.44 337.94 L 756.92 337.94 L 758.39 337.71 L 759.86 340.46 L 761.33 345.16 L 762.81 351.13 L 764.28 350.86 L 765.75 345.95 L 767.22 336.62 L 768.69 333.82 L 770.17 341.57 L 771.64 362.04 L 773.11 369.10 L 774.58 375.47 L 776.06 371.93 L 777.53 369.71 L 779.00 363.04 L 780.47 363.14 L 781.94 378.54 L 783.42 374.04 L 784.89 375.64 L 786.36 375.66 L 787.83 377.21 L 789.31 378.45 L 790.78 373.43 L 792.25 371.35 L 793.72 372.88" stroke="#2E7D32" />
<path class="series" d="M 178.33 401.38 L 179.81 403.06 L 181.28 402.01 L 182.75 407.79 L 184.22 404.57 L 185.69 405.75 L 187.17 405.67 L 188.64 406.99 L 190.11 409.00 L 191.58 406.09 L 193.06 407.78 L 194.53 407.78 L 196.00 408.21 L 197.47 408.02 L 198.94 406.88 L 200.42 408.42 L 201.89 415.57 L 203.36 410.50 L 204.83 415.93 L 206.31 410.97 L 207.78 409.79 L 209.25 419.40 L 210.72 414.62 L 212.19 411.18 L 213.67 412.70 L 215.14 410.25 L 216.61 410.94 L 218.08 416.18 L 219.56 406.13 L 221.03 412.67 L 222.50 405.21 L 223.97 414.70 L 225.44 418.98 L 226.92 414.54 L 228.39 414.33 L 229.86 415.06 L 231.33 411.74 L 232.81 415.62 L 234.28 413.52 L 235.75 413.10 L 237.22 409.26 L 238.69 416.09 L 240.17 419.61 L 241.64 418.80 L 243.11 419.11 L 244.58 420.88 L 246.06 424.32 L 247.53 429.93 L 249.00 438.67 L 250.47 422.86 L 251.94 420.62 L 253.42 417.79 L 254.89 407.69 L 256.36 414.24 L 257.83 418.27 L 259.31 415.70 L 260.78 406.55 L 262.25 386.27 L 263.72 384.16 L 265.19 389.43 L 266.67 415.36 L 268.14 413.23 L 269.61 416.18 L 271.08 414.27 L 272.56 413.44 L 274.03 423.19 L 275.50 401.02 L 276.97 406.99 L 278.44 409.54 L 279.92 412.18 L 281.39 409.77 L 282.86 414.28 L 284.33 413.80 L 285.81 429.16 L 287.28 421.61 L 288.75 419.34 L 290.22 412.19 L 291.69 415.96 L 293.17 425.70 L 294.64 410.52 L 296.11 404.53 L 297.58 411.57 L 299.06 412.88 L 300.53 402.46 L 302.00 396.06 L 303.47 389.49 L 304.94 386.85 L 306.42 389.32 L 307.89 395.77 L 309.36 392.88 L 310.83 392.60 L 312.31 394.66 L 313.78 394.92 L 315.25 398.19 L 316.72 401.22 L 318.19 396.00 L 319.67 384.38 L 321.14 398.26 L 322.61 399.22 L 324.08 400.60 L 325.56 399.63 L 327.03 397.05 L 328.50 397.12 L 329.97 401.26 L 331.44 395.10 L 332.92 400.22 L 334.39 393.61 L 335.86 391.71 L 337.33 396.44 L 338.81 391.93 L 340.28 391.52 L 341.75 411.11 L 343.22 408.93 L 344.69 403.56 L 346.17 387.21 L 347.64 384.18 L 349.11 407.04 L 350.58 414.68 L 352.06 410.03 L 353.53 418.30 L 355.00 404.52 L 356.47 408.98 L 357.94 415.38 L 359.42 403.94 L 360.89 395.25 L 362.36 406.95 L 363.83 398.80 L 365.31 395.89 L 366.78 389.21 L 368.25 391.48 L 369.72 394.49 L 371.19 394.99 L 372.67 397.21 L 374.14 397.82 L 375.61 403.29 L 377.08 403.81 L 378.56 413.08 L 380.03 412.43 L 381.50 412.40 L 382.97 415.24 L 384.44 411.21 L 385.92 415.32 L 387.39 419.91 L 388.86 409.50 L 390.33 413.99 L 391.81 417.71 L 393.28 417.45 L 394.75 418.06 L 396.22 419.49 L 397.69 427.82 L 399.17 424.94 L 400.64 434.01 L 402.11 430.04 L 403.58 422.63 L 405.06 416.20 L 406.53 415.75 L 408.00 421.10 L 409.47 422.90 L 410.94 421.35 L 412.42 412.25 L 413.89 418.19 L 415.36 418.93 L 416.83 421.30 L 418.31 418.84 L 419.78 416.36 L 421.25 423.75 L 422.72 424.31 L 424.19 422.55 L 425.67 422.55 L 427.14 422.86 L 428.61 415.88 L 430.08 415.65 L 431.56 418.26 L 433.03 417.95 L 434.50 419.57 L 435.97 419.77 L 437.44 419.75 L 438.92 421.13 L 440.39 419.50 L 441.86 420.52 L 443.33 419.11 L 444.81 421.03 L 446.28 419.66 L 447.75 420.07 L 449.22 421.27 L 450.69 420.19 L 452.17 420.09 L 453.64 420.77 L 455.11 420.30 L 456.58 420.38 L 458.06 420.62 L 459.53 419.85 L 461.00 421.12 L 462.47 420.24 L 463.94 420.83 L 465.42 420.33 L 466.89 420.46 L 468.36 421.08 L 469.83 420.81 L 471.31 420.53 L 472.78 420.73 L 474.25 420.62 L 475.72 420.66 L 477.19 420.66 L 478.67 420.79 L 480.14 420.68 L 481.61 420.53 L 483.08 420.66 L 484.56 420.82 L 486.03 420.79 L 487.50 420.46 L 488.97 420.33 L 490.44 420.75 L 491.92 421.15 L 493.39 420.54 L 494.86 427.74 L 496.33 421.29 L 497.81 422.57 L 499.28 419.92 L 500.75 420.99 L 502.22 421.73 L 503.69 427.02 L 505.17 428.03 L 506.64 412.78 L 508.11 418.10 L 509.58 421.55 L 511.06 420.60 L 512.53 420.98 L 514.00 420.84 L 515.47 420.46 L 516.94 420.45 L 518.42 420.83 L 519.89 420.44 L 521.36 420.77 L 522.83 420.64 L 524.31 420.59 L 525.78 420.66 L 527.25 423.17 L 528.72 428.19 L 530.19 421.79 L 531.67 424.66 L 533.14 420.79 L 534.61 424.89 L 536.08 417.36 L 537.56 406.64 L 539.03 406.15 L 540.50 413.79 L 541.97 410.34 L 543.44 420.70 L 544.92 415.23 L 546.39 411.74 L 547.86 409.12 L 549.33 416.16 L 550.81 412.87 L 552.28 414.37 L 553.75 416.23 L 555.22 415.86 L 556.69 419.91 L 558.17 416.25 L 559.64 418.38 L 561.11 413.62 L 562.58 423.13 L 564.06 414.97 L 565.53 402.12 L 567.00 405.93 L 568.47 404.65 L 569.94 410.56 L 571.42 410.07 L 572.89 408.12 L 574.36 408.84 L 575.83 410.43 L 577.31 408.65 L 578.78 410.06 L 580.25 411.46 L 581.72 408.21 L 583.19 409.98 L 584.67 408.86 L 586.14 411.34 L 587.61 410.66 L 589.08 408.42 L 590.56 409.11 L 592.03 409.66 L 593.50 422.99 L 594.97 421.41 L 596.44 424.08 L 597.92 418.40 L 599.39 424.23 L 600.86 430.49 L 602.33 435.36 L 603.81 414.19 L 605.28 418.40 L 606.75 417.89 L 608.22 423.27 L 609.69 410.40 L 611.17 400.90 L 612.64 391.49 L 614.11 404.51 L 615.58 396.89 L 617.06 398.46 L 618.53 400.02 L 620.00 395.66 L 621.47 383.66 L 622.94 406.03 L 624.42 396.52 L 625.89 387.49 L 627.36 404.18 L 628.83 393.00 L 630.31 397.21 L 631.78 396.81 L 633.25 399.21 L 634.72 400.22 L 636.19 409.10 L 637.67 405.01 L 639.14 406.34 L 640.61 411.86 L 642.08 417.63 L 643.56 408.90 L 645.03 406.73 L 646.50 408.01 L 647.97 408.56 L 649.44 413.72 L 650.92 387.16 L 652.39 403.51 L 653.86 405.94 L 655.33 408.98 L 656.81 404.99 L 658.28 411.36 L 659.75 404.92 L 661.22 408.00 L 662.69 406.01 L 664.17 409.18 L 665.64 416.80 L 667.11 405.01 L 668.58 420.54 L 670.06 408.51 L 671.53 408.84 L 673.00 411.19 L 674.47 417.06 L 675.94 414.74 L 677.42 411.45 L 678.89 404.33 L 680.36 410.27 L 681.83 414.41 L 683.31 414.01 L 684.78 411.72 L 686.25 424.38 L 687.72 410.70 L 689.19 412.79 L 690.67 433.58 L 692.14 404.83 L 693.61 409.45 L 695.08 416.70 L 696.56 409.56 L 698.03 416.98 L 699.50 409.05 L 700.97 409.98 L 702.44 408.43 L 703.92 412.55 L 705.39 407.93 L 706.86 403.02 L 708.33 408.99 L 709.81 409.65 L 711.28 409.86 L 712.75 420.10 L 714.22 414.05 L 715.69 417.15 L 717.17 418.17 L 718.64 422.35 L 720.11 414.16 L 721.58 411.86 L 723.06 412.30 L 724.53 409.66 L 726.00 410.82 L 727.47 407.38 L 728.94 410.98 L 730.42 405.62 L 731.89 403.88 L 733.36 406.76 L 734.83 411.90 L 736.31 406.84 L 737.78 406.81 L 739.25 401.81 L 740.72 401.42 L 742.19 401.22 L 743.67 406.19 L 745.14 402.13 L 746.61 403.97 L 748.08 409.11 L 749.56 407.34 L 751.03 414.31 L 752.50 417.07 L 753.97 417.19 L 755.44 418.29 L 756.92 418.29 L 758.39 428.21 L 759.86 432.95 L 761.33 450.29 L 762.81 431.78 L 764.28 430.00 L 765.75 442.77 L 767.22 443.06 L 768.69 420.44 L 770.17 401.39 L 771.64 395.51 L 773.11 384.40 L 774.58 377.46 L 776.06 377.24 L 777.53 375.83 L 779.00 372.89 L 780.47 369.92 L 781.94 417.54 L 783.42 413.35 L 784.89 415.96 L 786.36 428.80 L 787.83 431.84 L 789.31 435.07 L 790.78 422.60 L 792.25 421.03 L 793.72 415.39" stroke="#6A1B9A" />
<line x1="900.00" y1="307.75" x2="918.00" y2="307.75" stroke="#2E7D32" stroke-width="3" />
<text class="small" x="924.00" y="311.75">pitch</text>
<line x1="900.00" y1="323.75" x2="918.00" y2="323.75" stroke="#6A1B9A" stroke-width="3" />
<text class="small" x="924.00" y="327.75">roll</text>
<text x="90" y="500.50" font-size="14" font-weight="700">Aceleração (magnitude) (u.a.)</text>
<rect class="event" x="443.33" y="506.50" width="85.39" height="192.75" />
<line class="eventline" x1="443.33" y1="506.50" x2="443.33" y2="699.25" />
<line class="eventline" x1="528.72" y1="506.50" x2="528.72" y2="699.25" />
<line class="grid" x1="90" y1="699.25" x2="1150" y2="699.25" />
<text class="small" x="80" y="703.25" text-anchor="end">0.00</text>
<line class="grid" x1="90" y1="660.70" x2="1150" y2="660.70" />
<text class="small" x="80" y="664.70" text-anchor="end">0.50</text>
<line class="grid" x1="90" y1="622.15" x2="1150" y2="622.15" />
<text class="small" x="80" y="626.15" text-anchor="end">1.00</text>
<line class="grid" x1="90" y1="583.60" x2="1150" y2="583.60" />
<text class="small" x="80" y="587.60" text-anchor="end">1.50</text>
<line class="grid" x1="90" y1="545.05" x2="1150" y2="545.05" />
<text class="small" x="80" y="549.05" text-anchor="end">2.00</text>
<line class="grid" x1="90" y1="506.50" x2="1150" y2="506.50" />
<text class="small" x="80" y="510.50" text-anchor="end">2.50</text>
<line class="grid" x1="90.00" y1="506.50" x2="90.00" y2="699.25" />
<line class="grid" x1="266.67" y1="506.50" x2="266.67" y2="699.25" />
<line class="grid" x1="443.33" y1="506.50" x2="443.33" y2="699.25" />
<line class="grid" x1="620.00" y1="506.50" x2="620.00" y2="699.25" />
<line class="grid" x1="796.67" y1="506.50" x2="796.67" y2="699.25" />
<line class="grid" x1="973.33" y1="506.50" x2="973.33" y2="699.25" />
<line class="grid" x1="1150.00" y1="506.50" x2="1150.00" y2="699.25" />
<line class="axis" x1="90" y1="506.50" x2="90" y2="699.25" />
<line class="axis" x1="90" y1="699.25" x2="1150" y2="699.25" />
<path class="series" d="M 178.33 693.04 L 179.81 694.71 L 181.28 692.15 L 182.75 693.63 L 184.22 696.20 L 185.69 693.14 L 187.17 695.06 L 188.64 691.66 L 190.11 690.63 L 191.58 696.44 L 193.06 691.43 L 194.53 693.97 L 196.00 693.58 L 197.47 687.54 L 198.94 691.49 L 200.42 685.93 L 201.89 685.93 L 203.36 681.21 L 204.83 686.82 L 206.31 677.09 L 207.78 690.61 L 209.25 679.76 L 210.72 692.69 L 212.19 692.94 L 213.67 684.29 L 215.14 677.64 L 216.61 680.43 L 218.08 657.35 L 219.56 658.36 L 221.03 680.61 L 222.50 680.02 L 223.97 657.79 L 225.44 668.44 L 226.92 671.87 L 228.39 671.13 L 229.86 633.90 L 231.33 673.68 L 232.81 671.67 L 234.28 676.70 L 235.75 693.10 L 237.22 686.76 L 238.69 688.69 L 240.17 678.37 L 241.64 680.43 L 243.11 684.09 L 244.58 676.40 L 246.06 657.61 L 247.53 673.47 L 249.00 644.88 L 250.47 659.22 L 251.94 651.53 L 253.42 668.99 L 254.89 662.81 L 256.36 672.47 L 257.83 675.49 L 259.31 685.51 L 260.78 659.02 L 262.25 632.34 L 263.72 649.08 L 265.19 678.70 L 266.67 642.06 L 268.14 674.00 L 269.61 675.93 L 271.08 681.92 L 272.56 686.53 L 274.03 671.96 L 275.50 674.77 L 276.97 664.49 L 278.44 681.21 L 279.92 671.93 L 281.39 687.65 L 282.86 668.91 L 284.33 690.10 L 285.81 643.17 L 287.28 635.25 L 288.75 632.80 L 290.22 628.31 L 291.69 678.75 L 293.17 654.68 L 294.64 681.76 L 296.11 679.06 L 297.58 689.37 L 299.06 659.94 L 300.53 656.01 L 302.00 662.03 L 303.47 666.56 L 304.94 683.57 L 306.42 685.87 L 307.89 683.47 L 309.36 683.59 L 310.83 684.33 L 312.31 693.87 L 313.78 687.30 L 315.25 690.09 L 316.72 687.19 L 318.19 663.49 L 319.67 679.71 L 321.14 689.92 L 322.61 690.58 L 324.08 693.03 L 325.56 695.21 L 327.03 685.64 L 328.50 692.15 L 329.97 673.48 L 331.44 673.13 L 332.92 681.56 L 334.39 667.04 L 335.86 684.14 L 337.33 675.37 L 338.81 683.21 L 340.28 650.91 L 341.75 651.76 L 343.22 674.82 L 344.69 649.87 L 346.17 640.81 L 347.64 635.90 L 349.11 654.19 L 350.58 640.19 L 352.06 629.65 L 353.53 672.27 L 355.00 669.49 L 356.47 676.08 L 357.94 669.53 L 359.42 661.51 L 360.89 683.79 L 362.36 651.31 L 363.83 651.31 L 365.31 683.36 L 366.78 684.58 L 368.25 664.00 L 369.72 681.26 L 371.19 661.92 L 372.67 667.21 L 374.14 656.81 L 375.61 683.70 L 377.08 650.53 L 378.56 653.43 L 380.03 687.66 L 381.50 666.51 L 382.97 664.70 L 384.44 668.47 L 385.92 672.30 L 387.39 665.79 L 388.86 687.06 L 390.33 668.72 L 391.81 671.41 L 393.28 671.26 L 394.75 668.16 L 396.22 671.97 L 397.69 683.18 L 399.17 685.25 L 400.64 673.41 L 402.11 660.72 L 403.58 657.15 L 405.06 653.10 L 406.53 662.89 L 408.00 681.93 L 409.47 685.43 L 410.94 689.20 L 412.42 677.32 L 413.89 681.28 L 415.36 659.99 L 416.83 685.82 L 418.31 697.03 L 419.78 686.23 L 421.25 679.29 L 422.72 690.02 L 424.19 683.94 L 425.67 685.00 L 427.14 689.60 L 428.61 659.98 L 430.08 680.21 L 431.56 691.73 L 433.03 691.36 L 434.50 691.04 L 435.97 696.99 L 437.44 691.73 L 438.92 690.76 L 440.39 675.94 L 441.86 675.51 L 443.33 693.72 L 444.81 680.37 L 446.28 685.95 L 447.75 689.02 L 449.22 690.28 L 450.69 691.31 L 452.17 694.77 L 453.64 697.51 L 455.11 698.88 L 456.58 698.66 L 458.06 698.15 L 459.53 696.74 L 461.00 695.90 L 462.47 695.69 L 463.94 697.61 L 465.42 698.49 L 466.89 689.24 L 468.36 685.10 L 469.83 698.30 L 471.31 697.79 L 472.78 698.17 L 474.25 698.51 L 475.72 697.93 L 477.19 698.80 L 478.67 698.99 L 480.14 698.41 L 481.61 698.27 L 483.08 698.15 L 484.56 690.19 L 486.03 688.65 L 487.50 698.09 L 488.97 697.35 L 490.44 693.45 L 491.92 677.08 L 493.39 665.81 L 494.86 636.39 L 496.33 664.05 L 497.81 652.37 L 499.28 686.21 L 500.75 696.67 L 502.22 656.80 L 503.69 664.92 L 505.17 605.60 L 506.64 685.47 L 508.11 692.08 L 509.58 693.48 L 511.06 692.46 L 512.53 697.63 L 514.00 696.78 L 515.47 698.75 L 516.94 698.54 L 518.42 696.97 L 519.89 697.33 L 521.36 698.70 L 522.83 698.86 L 524.31 698.89 L 525.78 691.45 L 527.25 650.26 L 528.72 690.26 L 530.19 677.60 L 531.67 686.16 L 533.14 690.81 L 534.61 686.08 L 536.08 686.08 L 537.56 645.29 L 539.03 664.65 L 540.50 656.43 L 541.97 693.16 L 543.44 669.37 L 544.92 694.40 L 546.39 679.10 L 547.86 674.90 L 549.33 660.89 L 550.81 688.14 L 552.28 680.42 L 553.75 687.12 L 555.22 690.35 L 556.69 692.20 L 558.17 689.87 L 559.64 676.64 L 561.11 677.92 L 562.58 667.53 L 564.06 676.61 L 565.53 652.34 L 567.00 680.00 L 568.47 687.13 L 569.94 679.22 L 571.42 691.80 L 572.89 687.50 L 574.36 684.80 L 575.83 689.14 L 577.31 689.24 L 578.78 679.05 L 580.25 684.78 L 581.72 680.38 L 583.19 695.14 L 584.67 670.36 L 586.14 683.87 L 587.61 676.29 L 589.08 671.69 L 590.56 671.19 L 592.03 687.23 L 593.50 678.73 L 594.97 663.77 L 596.44 661.02 L 597.92 666.52 L 599.39 673.01 L 600.86 663.18 L 602.33 653.76 L 603.81 662.90 L 605.28 646.11 L 606.75 662.19 L 608.22 678.31 L 609.69 663.56 L 611.17 625.16 L 612.64 623.96 L 614.11 681.47 L 615.58 664.08 L 617.06 657.18 L 618.53 657.50 L 620.00 664.65 L 621.47 654.64 L 622.94 653.48 L 624.42 687.11 L 625.89 654.91 L 627.36 634.45 L 628.83 645.54 L 630.31 656.78 L 631.78 658.46 L 633.25 668.62 L 634.72 665.53 L 636.19 669.21 L 637.67 671.37 L 639.14 662.29 L 640.61 661.78 L 642.08 644.86 L 643.56 649.68 L 645.03 668.80 L 646.50 683.01 L 647.97 640.12 L 649.44 665.71 L 650.92 661.80 L 652.39 668.23 L 653.86 686.50 L 655.33 683.11 L 656.81 688.06 L 658.28 683.85 L 659.75 687.24 L 661.22 676.54 L 662.69 685.51 L 664.17 683.73 L 665.64 665.89 L 667.11 662.40 L 668.58 695.17 L 670.06 667.88 L 671.53 662.74 L 673.00 680.57 L 674.47 670.21 L 675.94 682.97 L 677.42 679.09 L 678.89 688.13 L 680.36 684.68 L 681.83 682.21 L 683.31 685.80 L 684.78 683.64 L 686.25 663.46 L 687.72 656.82 L 689.19 656.62 L 690.67 663.47 L 692.14 671.39 L 693.61 679.25 L 695.08 682.81 L 696.56 678.91 L 698.03 683.20 L 699.50 680.66 L 700.97 680.66 L 702.44 694.84 L 703.92 688.55 L 705.39 681.23 L 706.86 685.29 L 708.33 686.89 L 709.81 677.53 L 711.28 677.24 L 712.75 665.95 L 714.22 689.59 L 715.69 686.19 L 717.17 689.83 L 718.64 684.27 L 720.11 678.70 L 721.58 690.66 L 723.06 685.98 L 724.53 696.40 L 726.00 685.88 L 727.47 676.90 L 728.94 683.17 L 730.42 675.91 L 731.89 679.64 L 733.36 686.50 L 734.83 689.15 L 736.31 689.33 L 737.78 690.42 L 739.25 688.13 L 740.72 686.61 L 742.19 683.92 L 743.67 692.35 L 745.14 691.06 L 746.61 689.12 L 748.08 677.56 L 749.56 684.25 L 751.03 689.73 L 752.50 680.71 L 753.97 684.65 L 755.44 682.59 L 756.92 655.90 L 758.39 654.41 L 759.86 614.57 L 761.33 620.85 L 762.81 654.75 L 764.28 656.07 L 765.75 646.09 L 767.22 600.20 L 768.69 600.13 L 770.17 613.17 L 771.64 608.70 L 773.11 622.79 L 774.58 599.46 L 776.06 626.05 L 777.53 599.39 L 779.00 609.12 L 780.47 671.30 L 781.94 604.85 L 783.42 620.91 L 784.89 618.97 L 786.36 640.75 L 787.83 655.47 L 789.31 668.93 L 790.78 679.06 L 792.25 667.81 L 793.72 682.94" stroke="#FB8C00" />
<text x="90" y="711.25" font-size="14" font-weight="700">Giroscópio (magnitude) (u.a.)</text>
<rect class="event" x="443.33" y="717.25" width="85.39" height="192.75" />
<line class="eventline" x1="443.33" y1="717.25" x2="443.33" y2="910.00" />
<line class="eventline" x1="528.72" y1="717.25" x2="528.72" y2="910.00" />
<line class="grid" x1="90" y1="910.00" x2="1150" y2="910.00" />
<text class="small" x="80" y="914.00" text-anchor="end">0.00</text>
<line class="grid" x1="90" y1="871.45" x2="1150" y2="871.45" />
<text class="small" x="80" y="875.45" text-anchor="end">0.10</text>
<line class="grid" x1="90" y1="832.90" x2="1150" y2="832.90" />
<text class="small" x="80" y="836.90" text-anchor="end">0.20</text>
<line class="grid" x1="90" y1="794.35" x2="1150" y2="794.35" />
<text class="small" x="80" y="798.35" text-anchor="end">0.30</text>
<line class="grid" x1="90" y1="755.80" x2="1150" y2="755.80" />
<text class="small" x="80" y="759.80" text-anchor="end">0.40</text>
<line class="grid" x1="90" y1="717.25" x2="1150" y2="717.25" />
<text class="small" x="80" y="721.25" text-anchor="end">0.50</text>
<line class="grid" x1="90.00" y1="717.25" x2="90.00" y2="910.00" />
<line class="grid" x1="266.67" y1="717.25" x2="266.67" y2="910.00" />
<line class="grid" x1="443.33" y1="717.25" x2="443.33" y2="910.00" />
<line class="grid" x1="620.00" y1="717.25" x2="620.00" y2="910.00" />
<line class="grid" x1="796.67" y1="717.25" x2="796.67" y2="910.00" />
<line class="grid" x1="973.33" y1="717.25" x2="973.33" y2="910.00" />
<line class="grid" x1="1150.00" y1="717.25" x2="1150.00" y2="910.00" />
<line class="axis" x1="90" y1="717.25" x2="90" y2="910.00" />
<line class="axis" x1="90" y1="910.00" x2="1150" y2="910.00" />
<path class="series" d="M 178.33 908.38 L 179.81 906.24 L 181.28 905.30 L 182.75 905.99 L 184.22 903.45 L 185.69 903.51 L 187.17 904.50 L 188.64 902.36 L 190.11 898.09 L 191.58 897.94 L 193.06 897.49 L 194.53 898.55 L 196.00 897.82 L 197.47 899.92 L 198.94 902.16 L 200.42 906.15 L 201.89 906.15 L 203.36 904.97 L 204.83 900.11 L 206.31 902.05 L 207.78 904.74 L 209.25 899.28 L 210.72 901.56 L 212.19 901.44 L 213.67 903.37 L 215.14 902.49 L 216.61 901.59 L 218.08 902.88 L 219.56 903.39 L 221.03 904.30 L 222.50 900.48 L 223.97 899.72 L 225.44 908.08 L 226.92 897.83 L 228.39 900.01 L 229.86 898.89 L 231.33 903.29 L 232.81 893.29 L 234.28 892.35 L 235.75 892.66 L 237.22 895.77 L 238.69 892.82 L 240.17 891.05 L 241.64 885.13 L 243.11 883.59 L 244.58 877.20 L 246.06 879.41 L 247.53 867.56 L 249.00 859.34 L 250.47 874.90 L 251.94 876.82 L 253.42 886.45 L 254.89 886.85 L 256.36 889.69 L 257.83 878.34 L 259.31 888.83 L 260.78 894.37 L 262.25 884.42 L 263.72 851.38 L 265.19 836.98 L 266.67 874.36 L 268.14 899.02 L 269.61 900.84 L 271.08 904.05 L 272.56 905.50 L 274.03 895.79 L 275.50 897.09 L 276.97 901.97 L 278.44 904.75 L 279.92 902.08 L 281.39 901.48 L 282.86 892.48 L 284.33 880.92 L 285.81 882.00 L 287.28 882.33 L 288.75 877.30 L 290.22 883.75 L 291.69 863.00 L 293.17 835.38 L 294.64 831.76 L 296.11 831.38 L 297.58 829.75 L 299.06 821.37 L 300.53 833.71 L 302.00 848.53 L 303.47 879.49 L 304.94 898.33 L 306.42 906.68 L 307.89 907.96 L 309.36 908.98 L 310.83 909.12 L 312.31 907.85 L 313.78 906.28 L 315.25 895.62 L 316.72 881.98 L 318.19 876.01 L 319.67 900.24 L 321.14 908.49 L 322.61 905.37 L 324.08 908.75 L 325.56 909.28 L 327.03 907.66 L 328.50 902.27 L 329.97 906.00 L 331.44 907.41 L 332.92 899.29 L 334.39 901.56 L 335.86 900.28 L 337.33 898.08 L 338.81 893.63 L 340.28 882.11 L 341.75 883.41 L 343.22 890.97 L 344.69 888.62 L 346.17 879.95 L 347.64 851.69 L 349.11 861.67 L 350.58 860.18 L 352.06 876.72 L 353.53 888.15 L 355.00 884.60 L 356.47 892.92 L 357.94 893.60 L 359.42 890.53 L 360.89 880.80 L 362.36 879.38 L 363.83 879.38 L 365.31 862.30 L 366.78 858.14 L 368.25 852.26 L 369.72 854.29 L 371.19 859.45 L 372.67 858.05 L 374.14 864.15 L 375.61 878.59 L 377.08 877.07 L 378.56 877.10 L 380.03 880.01 L 381.50 873.29 L 382.97 872.46 L 384.44 888.63 L 385.92 890.54 L 387.39 900.51 L 388.86 897.93 L 390.33 905.06 L 391.81 904.82 L 393.28 900.79 L 394.75 899.28 L 396.22 890.30 L 397.69 878.97 L 399.17 873.03 L 400.64 867.86 L 402.11 852.87 L 403.58 847.35 L 405.06 855.88 L 406.53 874.55 L 408.00 889.75 L 409.47 887.54 L 410.94 879.62 L 412.42 883.63 L 413.89 903.49 L 415.36 909.36 L 416.83 908.93 L 418.31 909.58 L 419.78 908.88 L 421.25 903.25 L 422.72 907.97 L 424.19 898.97 L 425.67 889.05 L 427.14 873.55 L 428.61 870.17 L 430.08 881.66 L 431.56 894.25 L 433.03 900.57 L 434.50 906.19 L 435.97 908.86 L 437.44 909.01 L 438.92 909.39 L 440.39 907.87 L 441.86 908.28 L 443.33 906.42 L 444.81 908.94 L 446.28 908.89 L 447.75 909.36 L 449.22 909.79 L 450.69 909.76 L 452.17 909.85 L 453.64 909.84 L 455.11 909.89 L 456.58 909.77 L 458.06 909.96 L 459.53 909.89 L 461.00 909.51 L 462.47 909.81 L 463.94 909.87 L 465.42 909.93 L 466.89 909.54 L 468.36 909.62 L 469.83 909.76 L 471.31 909.78 L 472.78 909.90 L 474.25 909.90 L 475.72 909.42 L 477.19 909.67 L 478.67 909.85 L 480.14 909.67 L 481.61 909.84 L 483.08 909.73 L 484.56 909.69 L 486.03 909.79 L 487.50 909.45 L 488.97 908.76 L 490.44 907.95 L 491.92 903.81 L 493.39 903.55 L 494.86 896.02 L 496.33 896.56 L 497.81 897.77 L 499.28 908.63 L 500.75 909.55 L 502.22 905.15 L 503.69 889.25 L 505.17 884.51 L 506.64 904.95 L 508.11 908.65 L 509.58 909.62 L 511.06 909.47 L 512.53 909.20 L 514.00 909.87 L 515.47 909.79 L 516.94 909.73 L 518.42 909.52 L 519.89 909.94 L 521.36 909.87 L 522.83 909.88 L 524.31 909.75 L 525.78 909.19 L 527.25 897.83 L 528.72 883.86 L 530.19 875.04 L 531.67 865.28 L 533.14 859.63 L 534.61 856.44 L 536.08 856.44 L 537.56 870.57 L 539.03 900.57 L 540.50 908.05 L 541.97 908.38 L 543.44 907.90 L 544.92 900.98 L 546.39 895.30 L 547.86 905.32 L 549.33 908.33 L 550.81 907.39 L 552.28 907.91 L 553.75 906.26 L 555.22 900.78 L 556.69 891.89 L 558.17 875.21 L 559.64 871.02 L 561.11 866.88 L 562.58 855.96 L 564.06 846.23 L 565.53 865.96 L 567.00 887.97 L 568.47 897.69 L 569.94 903.04 L 571.42 905.73 L 572.89 906.41 L 574.36 907.13 L 575.83 904.04 L 577.31 906.56 L 578.78 905.81 L 580.25 905.42 L 581.72 905.08 L 583.19 907.48 L 584.67 908.15 L 586.14 908.32 L 587.61 904.95 L 589.08 902.81 L 590.56 896.48 L 592.03 890.44 L 593.50 885.96 L 594.97 884.91 L 596.44 889.45 L 597.92 884.58 L 599.39 886.13 L 600.86 874.61 L 602.33 858.53 L 603.81 847.59 L 605.28 888.68 L 606.75 882.91 L 608.22 879.36 L 609.69 895.74 L 611.17 898.34 L 612.64 873.06 L 614.11 871.98 L 615.58 862.20 L 617.06 858.11 L 618.53 855.57 L 620.00 850.55 L 621.47 838.85 L 622.94 877.79 L 624.42 884.53 L 625.89 870.00 L 627.36 863.76 L 628.83 874.01 L 630.31 878.06 L 631.78 879.71 L 633.25 872.56 L 634.72 872.88 L 636.19 878.89 L 637.67 882.32 L 639.14 878.74 L 640.61 892.45 L 642.08 900.42 L 643.56 900.26 L 645.03 891.85 L 646.50 895.27 L 647.97 902.97 L 649.44 891.39 L 650.92 894.92 L 652.39 882.87 L 653.86 886.61 L 655.33 893.29 L 656.81 892.16 L 658.28 896.49 L 659.75 902.07 L 661.22 903.41 L 662.69 902.23 L 664.17 904.02 L 665.64 895.44 L 667.11 899.22 L 668.58 895.74 L 670.06 903.40 L 671.53 900.37 L 673.00 891.29 L 674.47 904.83 L 675.94 904.39 L 677.42 897.57 L 678.89 905.15 L 680.36 904.09 L 681.83 905.76 L 683.31 904.14 L 684.78 906.14 L 686.25 888.97 L 687.72 904.52 L 689.19 899.63 L 690.67 888.88 L 692.14 903.09 L 693.61 901.70 L 695.08 904.06 L 696.56 900.99 L 698.03 902.44 L 699.50 905.77 L 700.97 905.77 L 702.44 902.50 L 703.92 907.48 L 705.39 904.74 L 706.86 907.69 L 708.33 904.94 L 709.81 901.83 L 711.28 901.49 L 712.75 903.35 L 714.22 901.28 L 715.69 904.54 L 717.17 903.63 L 718.64 902.14 L 720.11 900.17 L 721.58 898.62 L 723.06 900.08 L 724.53 898.62 L 726.00 896.73 L 727.47 902.55 L 728.94 902.00 L 730.42 899.84 L 731.89 896.09 L 733.36 895.79 L 734.83 899.26 L 736.31 905.68 L 737.78 905.61 L 739.25 903.81 L 740.72 903.06 L 742.19 902.87 L 743.67 901.57 L 745.14 903.06 L 746.61 898.22 L 748.08 906.98 L 749.56 901.78 L 751.03 901.95 L 752.50 895.29 L 753.97 895.42 L 755.44 892.09 L 756.92 883.64 L 758.39 867.41 L 759.86 859.05 L 761.33 854.15 L 762.81 835.59 L 764.28 823.82 L 765.75 820.86 L 767.22 824.50 L 768.69 870.24 L 770.17 899.57 L 771.64 893.82 L 773.11 869.90 L 774.58 844.99 L 776.06 826.95 L 777.53 811.51 L 779.00 805.77 L 780.47 826.85 L 781.94 907.35 L 783.42 886.00 L 784.89 863.12 L 786.36 854.90 L 787.83 860.42 L 789.31 861.27 L 790.78 881.61 L 792.25 895.08 L 793.72 896.79" stroke="#E53935" />
<text x="620.00" y="952" font-size="15" text-anchor="middle">minutos (relativo ao início do evento)</text>
<text class="small" x="90.00" y="936" text-anchor="middle">-4.00</text>
<text class="small" x="266.67" y="936" text-anchor="middle">-2.00</text>
<text class="small" x="443.33" y="936" text-anchor="middle">0.00</text>
<text class="small" x="620.00" y="936" text-anchor="middle">2.00</text>
<text class="small" x="796.67" y="936" text-anchor="middle">4.00</text>
<text class="small" x="973.33" y="936" text-anchor="middle">6.00</text>
<text class="small" x="1150.00" y="936" text-anchor="middle">8.00</text>
</svg>