<?xml version="1.0" encoding="UTF-8"?>
<svg xmlns="http://www.w3.org/2000/svg" width="1180" height="980" viewBox="0 0 1180 980">
<style>
text { font-family: -apple-system, BlinkMacSystemFont, 'Segoe UI', Roboto, Helvetica, Arial, sans-serif; fill: #111; }
.small { font-size: 12px; fill: #222; }
.title { font-size: 18px; font-weight: 700; }
.axis { stroke: #111; stroke-width: 1.4; }
.grid { stroke: #E6E6E6; stroke-width: 1; }
.event { fill: #FFEB3B; fill-opacity: 0.18; }
.eventline { stroke: #F9A825; stroke-width: 1.2; stroke-dasharray: 4 3; }
.series { fill: none; stroke-width: 1.8; }
</style>
<text class="title" x="90" y="34">ciclo 4 — espera_carregamento — 2025-12-12T15:41:51-03:00 → 2025-12-12T15:43:22-03:00 (span 91s, dur 92s)</text>
<text class="small" x="90" y="54">GPS: -11.699038,-47.157277  hotspot: -11.699,-47.157</text>
<text class="small" x="90" y="70">Janela: -3.00 → 4.52 min (relativo ao início do evento)</text>
<text x="90" y="79.00" font-size="14" font-weight="700">Velocidade (km/h)</text>
<rect class="event" x="443.33" y="85.00" width="133.97" height="192.75" />
<line class="eventline" x1="443.33" y1="85.00" x2="443.33" y2="277.75" />
<line class="eventline" x1="577.31" y1="85.00" x2="577.31" y2="277.75" />
<line class="grid" x1="90" y1="277.75" x2="1150" y2="277.75" />
<text class="small" x="80" y="281.75" text-anchor="end">0.00</text>
<line class="grid" x1="90" y1="239.20" x2="1150" y2="239.20" />
<text class="small" x="80" y="243.20" text-anchor="end">10.0</text>
<line class="grid" x1="90" y1="200.65" x2="1150" y2="200.65" />
<text class="small" x="80" y="204.65" text-anchor="end">20.0</text>
<line class="grid" x1="90" y1="162.10" x2="1150" y2="162.10" />
<text class="small" x="80" y="166.10" text-anchor="end">30.0</text>
<line class="grid" x1="90" y1="123.55" x2="1150" y2="123.55" />
<text class="small" x="80" y="127.55" text-anchor="end">40.0</text>
<line class="grid" x1="90" y1="85.00" x2="1150" y2="85.00" />
<text class="small" x="80" y="89.00" text-anchor="end">50.0</text>
<line class="grid" x1="90.00" y1="85.00" x2="90.00" y2="277.75" />
<line class="grid" x1="266.67" y1="85.00" x2="266.67" y2="277.75" />
<line class="grid" x1="443.33" y1="85.00" x2="443.33" y2="277.75" />
<line class="grid" x1="620.00" y1="85.00" x2="620.00" y2="277.75" />
<line class="grid" x1="796.67" y1="85.00" x2="796.67" y2="277.75" />
<line class="grid" x1="973.33" y1="85.00" x2="973.33" y2="277.75" />
<line class="grid" x1="1150.00" y1="85.00" x2="1150.00" y2="277.75" />
<line class="axis" x1="90" y1="85.00" x2="90" y2="277.75" />
<line class="axis" x1="90" y1="277.75" x2="1150" y2="277.75" />
<path class="series" d="M 178.33 206.42 L 179.81 202.95 L 181.28 200.87 L 182.75 201.28 L 184.22 196.98 L 185.69 195.45 L 187.17 192.12 L 188.64 189.21 L 190.11 188.24 L 191.58 189.21 L 193.06 184.91 L 194.53 184.91 L 196.00 186.71 L 197.47 185.46 L 198.94 182.82 L 200.42 178.24 L 201.89 178.38 L 203.36 175.19 L 204.83 176.16 L 206.31 174.22 L 207.78 171.31 L 209.25 168.53 L 210.72 166.31 L 212.19 167.14 L 213.67 167.98 L 215.14 165.89 L 216.61 166.17 L 218.08 167.98 L 219.56 167.14 L 221.03 168.67 L 222.50 168.53 L 223.97 169.09 L 225.44 169.36 L 226.92 171.17 L 228.39 170.20 L 229.86 173.11 L 231.33 172.69 L 232.81 170.89 L 234.28 170.61 L 235.75 171.44 L 237.22 172.14 L 238.69 171.72 L 240.17 171.31 L 241.64 171.58 L 243.11 172.14 L 244.58 177.00 L 246.06 174.22 L 247.53 177.83 L 249.00 180.74 L 250.47 172.69 L 251.94 177.27 L 253.42 170.20 L 254.89 167.28 L 256.36 156.18 L 257.83 161.59 L 259.31 159.51 L 260.78 157.15 L 262.25 157.84 L 263.72 154.79 L 265.19 155.35 L 266.67 159.23 L 268.14 165.75 L 269.61 168.67 L 271.08 178.94 L 272.56 179.22 L 274.03 192.26 L 275.50 201.84 L 276.97 203.36 L 278.44 201.42 L 279.92 194.62 L 281.39 191.85 L 282.86 197.54 L 284.33 196.98 L 285.81 197.40 L 287.28 193.65 L 288.75 195.31 L 290.22 201.00 L 291.69 199.20 L 293.17 198.51 L 294.64 187.96 L 296.11 182.55 L 297.58 183.66 L 299.06 177.27 L 300.53 183.10 L 302.00 172.69 L 303.47 173.39 L 304.94 183.38 L 306.42 179.49 L 307.89 176.02 L 309.36 178.66 L 310.83 176.16 L 312.31 177.41 L 313.78 179.63 L 315.25 176.44 L 316.72 175.75 L 318.19 172.14 L 319.67 171.58 L 321.14 178.94 L 322.61 181.30 L 324.08 179.35 L 325.56 186.16 L 327.03 175.47 L 328.50 172.14 L 329.97 169.92 L 331.44 176.72 L 332.92 176.16 L 334.39 167.70 L 335.86 163.95 L 337.33 159.51 L 338.81 165.06 L 340.28 170.20 L 341.75 171.17 L 343.22 171.17 L 344.69 172.69 L 346.17 170.20 L 347.64 173.80 L 349.11 167.56 L 350.58 159.37 L 352.06 161.31 L 353.53 160.90 L 355.00 156.60 L 356.47 163.53 L 357.94 159.65 L 359.42 160.20 L 360.89 156.46 L 362.36 154.93 L 363.83 150.35 L 365.31 149.52 L 366.78 151.04 L 368.25 153.54 L 369.72 154.24 L 371.19 157.15 L 372.67 161.87 L 374.14 167.98 L 375.61 168.25 L 377.08 173.53 L 378.56 175.75 L 380.03 183.80 L 381.50 182.96 L 382.97 183.10 L 384.44 185.74 L 385.92 194.48 L 387.39 203.64 L 388.86 212.52 L 390.33 212.52 L 391.81 230.43 L 393.28 237.23 L 394.75 233.90 L 396.22 232.92 L 397.69 232.23 L 399.17 226.12 L 400.64 245.97 L 402.11 249.58 L 403.58 248.05 L 405.06 251.80 L 406.53 260.96 L 408.00 265.12 L 409.47 274.56 L 410.94 277.75 L 412.42 277.75 L 413.89 277.75 L 415.36 277.75 L 416.83 277.75 L 418.31 266.09 L 419.78 259.29 L 421.25 254.57 L 422.72 251.94 L 424.19 255.13 L 425.67 255.41 L 427.14 257.90 L 428.61 251.52 L 430.08 258.46 L 431.56 260.12 L 433.03 262.07 L 434.50 264.43 L 435.97 266.93 L 437.44 266.23 L 438.92 270.81 L 440.39 268.59 L 441.86 268.17 L 443.33 277.75 L 444.81 277.75 L 446.28 277.75 L 447.75 277.75 L 449.22 277.75 L 450.69 277.75 L 452.17 277.75 L 453.64 277.75 L 455.11 277.75 L 456.58 277.75 L 458.06 277.75 L 459.53 277.75 L 461.00 277.75 L 462.47 277.75 L 463.94 277.75 L 465.42 277.75 L 466.89 277.75 L 468.36 277.75 L 469.83 277.75 L 471.31 277.75 L 472.78 277.75 L 474.25 277.75 L 475.72 277.75 L 477.19 277.75 L 478.67 277.75 L 480.14 277.75 L 481.61 277.75 L 483.08 277.75 L 484.56 277.75 L 486.03 277.75 L 487.50 277.75 L 488.97 277.75 L 490.44 277.75 L 491.92 277.75 L 493.39 277.75 L 494.86 277.75 L 496.33 277.75 L 497.81 277.75 L 499.28 277.75 L 500.75 277.75 L 502.22 277.75 L 503.69 277.75 L 505.17 277.75 L 506.64 277.75 L 508.11 277.75 L 509.58 277.75 L 511.06 277.75 L 512.53 277.75 L 514.00 277.75 L 515.47 277.75 L 516.94 277.75 L 518.42 277.75 L 519.89 277.75 L 521.36 277.75 L 522.83 277.75 L 524.31 277.75 L 525.78 277.75 L 527.25 277.75 L 528.72 277.75 L 530.19 277.75 L 531.67 277.75 L 533.14 277.75 L 534.61 277.75 L 536.08 277.75 L 537.56 277.75 L 539.03 277.75 L 540.50 277.75 L 541.97 277.75 L 543.44 277.75 L 544.92 277.75 L 546.39 277.75 L 547.86 277.75 L 549.33 277.75 L 550.81 277.75 L 552.28 277.75 L 553.75 277.75 L 555.22 277.75 L 556.69 277.75 L 558.17 277.75 L 559.64 277.75 L 561.11 277.75 L 562.58 277.75 L 564.06 277.75 L 565.53 277.75 L 567.00 277.75 L 568.47 277.75 L 569.94 277.75 L 571.42 277.75 L 572.89 277.75 L 574.36 277.75 L 575.83 277.75 L 577.31 277.75 L 578.78 275.67 L 580.25 277.75 L 581.72 277.75 L 583.19 277.75 L 584.67 277.75 L 586.14 277.75 L 587.61 277.75 L 589.08 277.75 L 590.56 277.75 L 592.03 277.75 L 593.50 277.75 L 594.97 277.75 L 596.44 277.75 L 597.92 277.75 L 599.39 277.75 L 600.86 277.75 L 602.33 277.75 L 603.81 277.75 L 605.28 277.75 L 606.75 277.75 L 608.22 277.75 L 609.69 277.75 L 611.17 277.75 L 612.64 277.75 L 614.11 277.75 L 615.58 277.75 L 617.06 277.75 L 618.53 277.75 L 620.00 277.75 L 621.47 277.75 L 622.94 277.75 L 624.42 277.75 L 625.89 277.75 L 627.36 277.75 L 628.83 277.75 L 630.31 277.75 L 631.78 277.75 L 633.25 277.75 L 634.72 277.75 L 636.19 277.75 L 637.67 277.75 L 639.14 277.75 L 640.61 256.79 L 642.08 258.46 L 643.56 251.38 L 645.03 249.99 L 646.50 245.69 L 647.97 239.72 L 649.44 244.30 L 650.92 241.25 L 652.39 244.72 L 653.86 239.59 L 655.33 239.17 L 656.81 239.31 L 658.28 241.53 L 659.75 239.31 L 661.22 237.78 L 662.69 239.59 L 664.17 239.86 L 665.64 239.72 L 667.11 239.59 L 668.58 238.75 L 670.06 237.09 L 671.53 235.14 L 673.00 233.06 L 674.47 229.87 L 675.94 224.32 L 677.42 227.79 L 678.89 226.26 L 680.36 223.49 L 681.83 221.41 L 683.31 220.71 L 684.78 221.82 L 686.25 220.99 L 687.72 220.99 L 689.19 221.68 L 690.67 224.46 L 692.14 228.07 L 693.61 229.45 L 695.08 230.98 L 696.56 231.68 L 698.03 229.87 L 699.50 230.01 L 700.97 228.76 L 702.44 226.82 L 703.92 220.99 L 705.39 214.88 L 706.86 211.83 L 708.33 211.55 L 709.81 210.16 L 711.28 206.00 L 712.75 205.58 L 714.22 205.31 L 715.69 206.14 L 717.17 206.97 L 718.64 208.50 L 720.11 212.25 L 721.58 213.91 L 723.06 212.11 L 724.53 211.27 L 726.00 209.05 L 727.47 206.14 L 728.94 203.78 L 730.42 204.89 L 731.89 208.08 L 733.36 206.14 L 734.83 209.75 L 736.31 210.30 L 737.78 207.94 L 739.25 211.27 L 740.72 208.78 L 742.19 211.27 L 743.67 213.63 L 745.14 212.80 L 746.61 210.72 L 748.08 215.58 L 749.56 214.74 L 751.03 217.66 L 752.50 215.44 L 753.97 215.44 L 755.44 220.16 L 756.92 226.26 L 758.39 240.00 L 759.86 255.55 L 761.33 261.24 L 762.81 277.75 L 764.28 277.75 L 765.75 274.14 L 767.22 266.79 L 768.69 263.04 L 770.17 260.54 L 771.64 258.74 L 773.11 256.52 L 774.58 254.99 L 776.06 254.02 L 777.53 253.32 L 779.00 252.49 L 780.47 251.52 L 781.94 252.21 L 783.42 246.66 L 784.89 243.75 L 786.36 242.08 L 787.83 236.12 L 789.31 233.62 L 790.78 233.06 L 792.25 233.20 L 793.72 231.54 L 795.19 230.29 L 796.67 229.59 L 798.14 230.43 L 799.61 228.48 L 801.08 225.29 L 802.56 228.21 L 804.03 230.84 L 805.50 236.25 L 806.97 235.42 L 808.44 237.37 L 809.92 237.92 L 811.39 234.03 L 812.86 235.70 L 814.33 237.09 L 815.81 245.55 L 817.28 248.88 L 818.75 249.30 L 820.22 250.69 L 821.69 254.99 L 823.17 255.96 L 824.64 256.52 L 826.11 256.24 L 827.58 256.93 L 829.06 258.60 L 830.53 255.68 L 832.00 259.15 L 833.47 259.15 L 834.94 261.37 L 836.42 260.96 L 837.89 259.57 L 839.36 259.57 L 840.83 259.99 L 842.31 263.04" stroke="#1976D2" />
<text x="90" y="289.75" font-size="14" font-weight="700">Inclinação (graus)</text>
<rect class="event" x="443.33" y="295.75" width="133.97" height="192.75" />
<line class="eventline" x1="443.33" y1="295.75" x2="443.33" y2="488.50" />
<line class="eventline" x1="577.31" y1="295.75" x2="577.31" y2="488.50" />
<line class="grid" x1="90" y1="488.50" x2="1150" y2="488.50" />
<text class="small" x="80" y="492.50" text-anchor="end">-10.0</text>
<line class="grid" x1="90" y1="449.95" x2="1150" y2="449.95" />
<text class="small" x="80" y="453.95" text-anchor="end">0.00</text>
<line class="grid" x1="90" y1="411.40" x2="1150" y2="411.40" />
<text class="small" x="80" y="415.40" text-anchor="end">10.0</text>
<line class="grid" x1="90" y1="372.85" x2="1150" y2="372.85" />
<text class="small" x="80" y="376.85" text-anchor="end">20.0</text>
<line class="grid" x1="90" y1="334.30" x2="1150" y2="334.30" />
<text class="small" x="80" y="338.30" text-anchor="end">30.0</text>
<line class="grid" x1="90" y1="295.75" x2="1150" y2="295.75" />
<text class="small" x="80" y="299.75" text-anchor="end">40.0</text>
<line class="grid" x1="90.00" y1="295.75" x2="90.00" y2="488.50" />
<line class="grid" x1="266.67" y1="295.75" x2="266.67" y2="488.50" />
<line class="grid" x1="443.33" y1="295.75" x2="443.33" y2="488.50" />
<line class="grid" x1="620.00" y1="295.75" x2="620.00" y2="488.50" />
<line class="grid" x1="796.67" y1="295.75" x2="796.67" y2="488.50" />
<line class="grid" x1="973.33" y1="295.75" x2="973.33" y2="488.50" />
<line class="grid" x1="1150.00" y1="295.75" x2="1150.00" y2="488.50" />
<line class="axis" x1="90" y1="295.75" x2="90" y2="488.50" />
<line class="axis" x1="90" y1="488.50" x2="1150" y2="488.50" />
<path class="series" d="M 178.33 414.56 L 179.81 415.49 L 181.28 413.15 L 182.75 413.64 L 184.22 411.22 L 185.69 409.12 L 187.17 409.35 L 188.64 406.49 L 190.11 405.11 L 191.58 410.45 L 193.06 405.97 L 194.53 401.90 L 196.00 401.90 L 197.47 401.80 L 198.94 401.62 L 200.42 406.68 L 201.89 401.15 L 203.36 399.20 L 204.83 397.97 L 206.31 402.55 L 207.78 396.29 L 209.25 399.52 L 210.72 396.97 L 212.19 399.27 L 213.67 399.01 L 215.14 403.15 L 216.61 400.67 L 218.08 400.94 L 219.56 401.53 L 221.03 401.19 L 222.50 403.24 L 223.97 402.64 L 225.44 401.68 L 226.92 402.33 L 228.39 403.35 L 229.86 403.33 L 231.33 405.40 L 232.81 405.80 L 234.28 403.35 L 235.75 405.65 L 237.22 406.65 L 238.69 407.73 L 240.17 403.13 L 241.64 405.54 L 243.11 400.54 L 244.58 397.46 L 246.06 405.22 L 247.53 401.96 L 249.00 400.63 L 250.47 406.67 L 251.94 414.92 L 253.42 414.08 L 254.89 414.46 L 256.36 414.33 L 257.83 413.27 L 259.31 417.71 L 260.78 411.35 L 262.25 410.34 L 263.72 411.28 L 265.19 408.74 L 266.67 399.57 L 268.14 397.87 L 269.61 397.17 L 271.08 394.73 L 272.56 393.13 L 274.03 391.45 L 275.50 397.80 L 276.97 404.32 L 278.44 402.46 L 279.92 403.57 L 281.39 403.84 L 282.86 395.23 L 284.33 405.29 L 285.81 409.45 L 287.28 403.32 L 288.75 393.38 L 290.22 395.69 L 291.69 396.98 L 293.17 390.33 L 294.64 393.85 L 296.11 378.41 L 297.58 392.28 L 299.06 374.65 L 300.53 377.99 L 302.00 389.53 L 303.47 363.55 L 304.94 376.02 L 306.42 388.13 L 307.89 376.36 L 309.36 392.93 L 310.83 388.96 L 312.31 373.87 L 313.78 389.05 L 315.25 392.25 L 316.72 391.81 L 318.19 392.77 L 319.67 373.26 L 321.14 383.60 L 322.61 391.45 L 324.08 399.41 L 325.56 409.88 L 327.03 407.70 L 328.50 394.12 L 329.97 406.16 L 331.44 402.22 L 332.92 404.51 L 334.39 386.21 L 335.86 375.53 L 337.33 384.08 L 338.81 390.45 L 340.28 408.34 L 341.75 403.83 L 343.22 414.76 L 344.69 411.09 L 346.17 414.73 L 347.64 411.28 L 349.11 420.86 L 350.58 401.88 L 352.06 412.20 L 353.53 402.59 L 355.00 412.26 L 356.47 412.60 L 357.94 403.54 L 359.42 415.14 L 360.89 414.60 L 362.36 405.50 L 363.83 405.35 L 365.31 402.45 L 366.78 400.29 L 368.25 400.34 L 369.72 393.13 L 371.19 396.20 L 372.67 394.21 L 374.14 405.64 L 375.61 393.58 L 377.08 397.03 L 378.56 397.54 L 380.03 407.74 L 381.50 397.99 L 382.97 402.41 L 384.44 390.48 L 385.92 390.44 L 387.39 394.06 L 388.86 398.01 L 390.33 408.48 L 391.81 408.18 L 393.28 419.24 L 394.75 412.61 L 396.22 404.97 L 397.69 391.73 L 399.17 381.44 L 400.64 378.30 L 402.11 380.48 L 403.58 381.59 L 405.06 382.29 L 406.53 386.30 L 408.00 375.88 L 409.47 384.71 L 410.94 388.98 L 412.42 390.16 L 413.89 380.59 L 415.36 390.79 L 416.83 378.76 L 418.31 385.34 L 419.78 385.34 L 421.25 388.99 L 422.72 393.55 L 424.19 394.91 L 425.67 396.90 L 427.14 403.18 L 428.61 406.59 L 430.08 409.23 L 431.56 417.89 L 433.03 411.58 L 434.50 414.06 L 435.97 416.23 L 437.44 414.32 L 438.92 411.25 L 440.39 405.66 L 441.86 410.08 L 443.33 413.82 L 444.81 405.44 L 446.28 406.15 L 447.75 405.45 L 449.22 405.88 L 450.69 405.27 L 452.17 405.52 L 453.64 405.42 L 455.11 405.48 L 456.58 405.46 L 458.06 405.44 L 459.53 405.46 L 461.00 405.45 L 462.47 405.49 L 463.94 405.44 L 465.42 405.47 L 466.89 405.46 L 468.36 405.43 L 469.83 405.46 L 471.31 405.42 L 472.78 405.43 L 474.25 405.43 L 475.72 405.44 L 477.19 405.40 L 478.67 405.44 L 480.14 405.43 L 481.61 405.34 L 483.08 405.43 L 484.56 405.39 L 486.03 405.37 L 487.50 405.42 L 488.97 405.37 L 490.44 404.96 L 491.92 404.66 L 493.39 404.69 L 494.86 403.64 L 496.33 404.44 L 497.81 403.76 L 499.28 404.19 L 500.75 404.12 L 502.22 404.12 L 503.69 404.11 L 505.17 404.13 L 506.64 404.11 L 508.11 404.07 L 509.58 404.05 L 511.06 404.07 L 512.53 404.01 L 514.00 404.03 L 515.47 404.03 L 516.94 404.01 L 518.42 403.98 L 519.89 404.02 L 521.36 404.06 L 522.83 404.01 L 524.31 404.03 L 525.78 404.06 L 527.25 404.02 L 528.72 404.11 L 530.19 403.64 L 531.67 402.34 L 533.14 403.31 L 534.61 403.47 L 536.08 403.01 L 537.56 403.21 L 539.03 403.09 L 540.50 403.04 L 541.97 403.05 L 543.44 403.05 L 544.92 403.00 L 546.39 403.08 L 547.86 403.10 L 549.33 402.99 L 550.81 403.05 L 552.28 403.01 L 553.75 403.02 L 555.22 403.01 L 556.69 403.00 L 558.17 403.02 L 559.64 402.98 L 561.11 402.95 L 562.58 403.33 L 564.06 403.23 L 565.53 403.09 L 567.00 402.99 L 568.47 402.98 L 569.94 403.16 L 571.42 403.02 L 572.89 403.08 L 574.36 403.03 L 575.83 403.14 L 577.31 403.10 L 578.78 403.14 L 580.25 403.00 L 581.72 403.07 L 583.19 403.05 L 584.67 403.07 L 586.14 403.10 L 587.61 403.07 L 589.08 403.07 L 590.56 403.12 L 592.03 403.09 L 593.50 403.10 L 594.97 403.40 L 596.44 403.46 L 597.92 403.38 L 599.39 404.78 L 600.86 404.59 L 602.33 404.39 L 603.81 404.33 L 605.28 404.46 L 606.75 404.53 L 608.22 404.47 L 609.69 404.42 L 611.17 404.43 L 612.64 404.49 L 614.11 404.49 L 615.58 404.47 L 617.06 404.50 L 618.53 404.49 L 620.00 404.48 L 621.47 404.49 L 622.94 404.48 L 624.42 404.44 L 625.89 405.05 L 627.36 405.18 L 628.83 405.39 L 630.31 405.35 L 631.78 405.58 L 633.25 406.46 L 634.72 414.17 L 636.19 410.90 L 637.67 412.62 L 639.14 421.49 L 640.61 421.49 L 642.08 418.53 L 643.56 426.47 L 645.03 419.95 L 646.50 416.47 L 647.97 414.13 L 649.44 395.19 L 650.92 397.21 L 652.39 409.07 L 653.86 410.18 L 655.33 405.86 L 656.81 396.42 L 658.28 400.90 L 659.75 400.41 L 661.22 397.11 L 662.69 397.13 L 664.17 405.03 L 665.64 407.40 L 667.11 408.92 L 668.58 409.63 L 670.06 408.10 L 671.53 409.35 L 673.00 414.01 L 674.47 413.90 L 675.94 412.32 L 677.42 402.69 L 678.89 410.19 L 680.36 413.94 L 681.83 407.38 L 683.31 410.91 L 684.78 411.37 L 686.25 407.90 L 687.72 406.80 L 689.19 404.54 L 690.67 403.91 L 692.14 404.67 L 693.61 411.42 L 695.08 409.77 L 696.56 411.29 L 698.03 413.85 L 699.50 421.41 L 700.97 415.57 L 702.44 417.06 L 703.92 417.26 L 705.39 417.15 L 706.86 417.59 L 708.33 409.79 L 709.81 412.74 L 711.28 413.91 L 712.75 412.53 L 714.22 412.34 L 715.69 406.71 L 717.17 398.86 L 718.64 402.21 L 720.11 401.31 L 721.58 401.68 L 723.06 403.71 L 724.53 410.39 L 726.00 407.86 L 727.47 407.17 L 728.94 405.56 L 730.42 403.82 L 731.89 410.47 L 733.36 408.14 L 734.83 408.39 L 736.31 408.97 L 737.78 404.16 L 739.25 408.60 L 740.72 399.21 L 742.19 397.99 L 743.67 395.38 L 745.14 397.14 L 746.61 403.50 L 748.08 399.26 L 749.56 401.38 L 751.03 406.00 L 752.50 410.38 L 753.97 406.10 L 755.44 409.99 L 756.92 416.66 L 758.39 417.33 L 759.86 423.66 L 761.33 431.85 L 762.81 447.43 L 764.28 455.64 L 765.75 462.32 L 767.22 454.70 L 768.69 449.71 L 770.17 449.08 L 771.64 446.50 L 773.11 441.80 L 774.58 438.70 L 776.06 435.62 L 777.53 431.06 L 779.00 426.43 L 780.47 418.30 L 781.94 422.22 L 783.42 411.63 L 784.89 408.77 L 786.36 417.46 L 787.83 415.66 L 789.31 412.91 L 790.78 416.53 L 792.25 417.97 L 793.72 416.20 L 795.19 412.37 L 796.67 411.32 L 798.14 413.33 L 799.61 415.24 L 801.08 415.45 L 802.56 411.49 L 804.03 413.74 L 805.50 423.32 L 806.97 424.61 L 808.44 425.75 L 809.92 425.84 L 811.39 425.86 L 812.86 421.48 L 814.33 411.72 L 815.81 417.41 L 817.28 424.20 L 818.75 424.17 L 820.22 418.10 L 821.69 421.93 L 823.17 423.84 L 824.64 426.41 L 826.11 424.86 L 827.58 424.26 L 829.06 426.18 L 830.53 425.44 L 832.00 424.60 L 833.47 419.21 L 834.94 427.31 L 836.42 427.61 L 837.89 425.68 L 839.36 423.48 L 840.83 421.50 L 842.31 415.86" stroke="#2E7D32" />
<path class="series" d="M 178.33 454.62 L 179.81 453.45 L 181.28 452.25 L 182.75 445.68 L 184.22 442.55 L 185.69 443.59 L 187.17 448.38 L 188.64 447.36 L 190.11 438.46 L 191.58 440.73 L 193.06 442.13 L 194.53 440.19 L 196.00 440.19 L 197.47 437.13 L 198.94 438.56 L 200.42 430.48 L 201.89 435.60 L 203.36 434.04 L 204.83 438.25 L 206.31 435.84 L 207.78 441.86 L 209.25 441.65 L 210.72 440.85 L 212.19 443.97 L 213.67 442.08 L 215.14 442.11 L 216.61 439.23 L 218.08 440.97 L 219.56 441.58 L 221.03 444.38 L 222.50 446.21 L 223.97 447.38 L 225.44 443.61 L 226.92 442.22 L 228.39 443.13 L 229.86 443.78 L 231.33 445.72 L 232.81 439.11 L 234.28 443.14 L 235.75 445.35 L 237.22 443.39 L 238.69 444.76 L 240.17 443.02 L 241.64 445.09 L 243.11 436.37 L 244.58 438.48 L 246.06 438.85 L 247.53 433.79 L 249.00 429.62 L 250.47 432.86 L 251.94 425.63 L 253.42 424.60 L 254.89 427.52 L 256.36 431.55 L 257.83 435.64 L 259.31 435.19 L 260.78 428.34 L 262.25 432.41 L 263.72 424.47 L 265.19 432.38 L 266.67 427.55 L 268.14 427.64 L 269.61 428.57 L 271.08 426.08 L 272.56 426.59 L 274.03 440.51 L 275.50 436.29 L 276.97 433.71 L 278.44 423.40 L 279.92 418.74 L 281.39 411.04 L 282.86 420.15 L 284.33 420.91 L 285.81 442.82 L 287.28 432.14 L 288.75 437.55 L 290.22 443.33 L 291.69 437.34 L 293.17 441.13 L 294.64 436.19 L 296.11 435.59 L 297.58 432.07 L 299.06 437.09 L 300.53 428.11 L 302.00 430.73 L 303.47 434.11 L 304.94 444.83 L 306.42 442.60 L 307.89 442.28 L 309.36 443.56 L 310.83 438.94 L 312.31 437.33 L 313.78 439.33 L 315.25 434.18 L 316.72 431.52 L 318.19 425.53 L 319.67 429.11 L 321.14 411.21 L 322.61 422.21 L 324.08 421.38 L 325.56 413.90 L 327.03 418.75 L 328.50 426.53 L 329.97 415.06 L 331.44 414.36 L 332.92 408.71 L 334.39 428.94 L 335.86 429.67 L 337.33 429.05 L 338.81 457.09 L 340.28 448.66 L 341.75 442.36 L 343.22 446.94 L 344.69 435.46 L 346.17 420.95 L 347.64 433.76 L 349.11 445.85 L 350.58 454.41 L 352.06 455.85 L 353.53 449.10 L 355.00 458.68 L 356.47 434.71 L 357.94 428.87 L 359.42 449.11 L 360.89 453.80 L 362.36 453.24 L 363.83 438.96 L 365.31 442.62 L 366.78 460.11 L 368.25 446.96 L 369.72 452.63 L 371.19 467.31 L 372.67 437.72 L 374.14 447.12 L 375.61 444.91 L 377.08 454.78 L 378.56 453.72 L 380.03 448.60 L 381.50 445.48 L 382.97 449.61 L 384.44 449.98 L 385.92 447.93 L 387.39 446.09 L 388.86 452.22 L 390.33 458.59 L 391.81 450.55 L 393.28 451.85 L 394.75 458.47 L 396.22 463.19 L 397.69 463.82 L 399.17 457.80 L 400.64 454.88 L 402.11 446.82 L 403.58 450.10 L 405.06 444.92 L 406.53 442.21 L 408.00 443.34 L 409.47 451.58 L 410.94 449.73 L 412.42 450.70 L 413.89 447.91 L 415.36 451.25 L 416.83 451.36 L 418.31 459.95 L 419.78 459.95 L 421.25 466.67 L 422.72 450.11 L 424.19 445.31 L 425.67 452.59 L 427.14 459.53 L 428.61 456.59 L 430.08 452.95 L 431.56 459.44 L 433.03 456.67 L 434.50 464.31 L 435.97 459.81 L 437.44 465.69 L 438.92 464.35 L 440.39 462.97 L 441.86 467.47 L 443.33 473.02 L 444.81 469.07 L 446.28 471.23 L 447.75 469.14 L 449.22 470.65 L 450.69 469.29 L 452.17 469.77 L 453.64 469.60 L 455.11 469.81 L 456.58 469.59 L 458.06 469.74 L 459.53 469.75 L 461.00 469.77 L 462.47 469.76 L 463.94 469.77 L 465.42 469.83 L 466.89 469.80 L 468.36 469.73 L 469.83 469.75 L 471.31 469.77 L 472.78 469.79 L 474.25 469.80 L 475.72 469.76 L 477.19 469.81 L 478.67 469.83 L 480.14 469.85 L 481.61 469.88 L 483.08 469.82 L 484.56 469.83 L 486.03 469.84 L 487.50 469.86 L 488.97 469.86 L 490.44 468.23 L 491.92 470.31 L 493.39 466.25 L 494.86 470.20 L 496.33 468.31 L 497.81 467.92 L 499.28 468.42 L 500.75 468.94 L 502.22 468.45 L 503.69 468.24 L 505.17 468.64 L 506.64 468.59 L 508.11 468.47 L 509.58 468.40 L 511.06 468.58 L 512.53 468.53 L 514.00 468.51 L 515.47 468.51 L 516.94 468.54 L 518.42 468.50 L 519.89 468.47 L 521.36 468.53 L 522.83 468.51 L 524.31 468.48 L 525.78 468.56 L 527.25 468.48 L 528.72 468.58 L 530.19 468.47 L 531.67 466.51 L 533.14 468.93 L 534.61 468.40 L 536.08 468.51 L 537.56 468.30 L 539.03 468.24 L 540.50 468.18 L 541.97 468.15 L 543.44 468.17 L 544.92 468.25 L 546.39 468.29 L 547.86 468.36 L 549.33 468.35 L 550.81 468.27 L 552.28 468.24 L 553.75 468.19 L 555.22 468.29 L 556.69 468.28 L 558.17 468.24 L 559.64 468.24 L 561.11 468.55 L 562.58 467.87 L 564.06 468.48 L 565.53 470.21 L 567.00 469.34 L 568.47 469.29 L 569.94 469.25 L 571.42 469.25 L 572.89 469.33 L 574.36 469.35 L 575.83 469.07 L 577.31 469.21 L 578.78 469.17 L 580.25 469.13 L 581.72 469.15 L 583.19 469.21 L 584.67 469.12 L 586.14 469.11 L 587.61 469.10 L 589.08 469.14 L 590.56 469.15 L 592.03 469.17 L 593.50 469.11 L 594.97 469.24 L 596.44 468.42 L 597.92 469.27 L 599.39 470.34 L 600.86 470.21 L 602.33 470.40 L 603.81 470.25 L 605.28 470.23 L 606.75 470.08 L 608.22 470.14 L 609.69 470.20 L 611.17 470.14 L 612.64 470.14 L 614.11 470.19 L 615.58 470.18 L 617.06 470.20 L 618.53 470.22 L 620.00 470.15 L 621.47 470.22 L 622.94 470.27 L 624.42 470.16 L 625.89 470.81 L 627.36 470.20 L 628.83 471.30 L 630.31 471.07 L 631.78 471.02 L 633.25 470.82 L 634.72 474.60 L 636.19 466.83 L 637.67 466.02 L 639.14 463.86 L 640.61 463.86 L 642.08 463.96 L 643.56 462.27 L 645.03 470.66 L 646.50 462.99 L 647.97 477.63 L 649.44 461.29 L 650.92 471.39 L 652.39 451.83 L 653.86 450.73 L 655.33 462.25 L 656.81 463.53 L 658.28 457.23 L 659.75 436.54 L 661.22 442.34 L 662.69 436.53 L 664.17 449.24 L 665.64 440.84 L 667.11 443.46 L 668.58 432.31 L 670.06 437.48 L 671.53 434.62 L 673.00 444.03 L 674.47 452.58 L 675.94 444.92 L 677.42 434.28 L 678.89 442.50 L 680.36 445.10 L 681.83 437.56 L 683.31 443.64 L 684.78 440.71 L 686.25 442.55 L 687.72 449.33 L 689.19 449.93 L 690.67 449.07 L 692.14 450.35 L 693.61 438.27 L 695.08 452.25 L 696.56 432.68 L 698.03 453.18 L 699.50 441.04 L 700.97 445.89 L 702.44 451.52 L 703.92 449.56 L 705.39 447.02 L 706.86 443.46 L 708.33 454.13 L 709.81 455.12 L 711.28 451.15 L 712.75 447.91 L 714.22 444.95 L 715.69 433.24 L 717.17 444.39 L 718.64 448.74 L 720.11 452.79 L 721.58 467.42 L 723.06 456.27 L 724.53 450.42 L 726.00 466.56 L 727.47 457.78 L 728.94 460.34 L 730.42 465.88 L 731.89 459.96 L 733.36 436.74 L 734.83 448.67 L 736.31 450.45 L 737.78 453.00 L 739.25 446.06 L 740.72 453.78 L 742.19 468.04 L 743.67 462.58 L 745.14 455.76 L 746.61 460.84 L 748.08 451.13 L 749.56 460.59 L 751.03 467.04 L 752.50 455.58 L 753.97 447.91 L 755.44 455.33 L 756.92 456.08 L 758.39 451.55 L 759.86 454.28 L 761.33 452.99 L 762.81 449.80 L 764.28 451.01 L 765.75 453.09 L 767.22 451.38 L 768.69 450.68 L 770.17 447.43 L 771.64 449.59 L 773.11 447.58 L 774.58 441.17 L 776.06 442.73 L 777.53 445.70 L 779.00 443.79 L 780.47 441.44 L 781.94 441.16 L 783.42 450.49 L 784.89 455.14 L 786.36 462.92 L 787.83 469.76 L 789.31 470.52 L 790.78 479.09 L 792.25 462.59 L 793.72 463.30 L 795.19 464.39 L 796.67 466.43 L 798.14 456.00 L 799.61 465.62 L 801.08 465.34 L 802.56 463.55 L 804.03 465.13 L 805.50 465.43 L 806.97 462.67 L 808.44 459.23 L 809.92 459.52 L 811.39 457.87 L 812.86 453.73 L 814.33 452.01 L 815.81 450.18 L 817.28 445.72 L 818.75 442.18 L 820.22 445.58 L 821.69 445.70 L 823.17 449.13 L 824.64 452.13 L 826.11 451.82 L 827.58 451.48 L 829.06 453.14 L 830.53 454.75 L 832.00 455.56 L 833.47 455.13 L 834.94 453.60 L 836.42 453.96 L 837.89 453.96 L 839.36 453.99 L 840.83 457.57 L 842.31 455.52" stroke="#6A1B9A" />
<line x1="900.00" y1="307.75" x2="918.00" y2="307.75" stroke="#2E7D32" stroke-width="3" />
<text class="small" x="924.00" y="311.75">pitch</text>
<line x1="900.00" y1="323.75" x2="918.00" y2="323.75" stroke="#6A1B9A" stroke-width="3" />
<text class="small" x="924.00" y="327.75">roll</text>
<text x="90" y="500.50" font-size="14" font-weight="700">Aceleração (magnitude) (u.a.)</text>
<rect class="event" x="443.33" y="506.50" width="133.97" height="192.75" />
<line class="eventline" x1="443.33" y1="506.50" x2="443.33" y2="699.25" />
<line class="eventline" x1="577.31" y1="506.50" x2="577.31" y2="699.25" />
<line class="grid" x1="90" y1="699.25" x2="1150" y2="699.25" />
<text class="small" x="80" y="703.25" text-anchor="end">0.00</text>
<line class="grid" x1="90" y1="660.70" x2="1150" y2="660.70" />
<text class="small" x="80" y="664.70" text-anchor="end">0.50</text>
<line class="grid" x1="90" y1="622.15" x2="1150" y2="622.15" />
<text class="small" x="80" y="626.15" text-anchor="end">1.00</text>
<line class="grid" x1="90" y1="583.60" x2="1150" y2="583.60" />
<text class="small" x="80" y="587.60" text-anchor="end">1.50</text>
<line class="grid" x1="90" y1="545.05" x2="1150" y2="545.05" />
<text class="small" x="80" y="549.05" text-anchor="end">2.00</text>
<line class="grid" x1="90" y1="506.50" x2="1150" y2="506.50" />
<text class="small" x="80" y="510.50" text-anchor="end">2.50</text>
<line class="grid" x1="90.00" y1="506.50" x2="90.00" y2="699.25" />
<line class="grid" x1="266.67" y1="506.50" x2="266.67" y2="699.25" />
<line class="grid" x1="443.33" y1="506.50" x2="443.33" y2="699.25" />
<line class="grid" x1="620.00" y1="506.50" x2="620.00" y2="699.25" />
<line class="grid" x1="796.67" y1="506.50" x2="796.67" y2="699.25" />
<line class="grid" x1="973.33" y1="506.50" x2="973.33" y2="699.25" />
<line class="grid" x1="1150.00" y1="506.50" x2="1150.00" y2="699.25" />
<line class="axis" x1="90" y1="506.50" x2="90" y2="699.25" />
<line class="axis" x1="90" y1="699.25" x2="1150" y2="699.25" />
<path class="series" d="M 178.33 691.36 L 179.81 686.63 L 181.28 678.21 L 182.75 678.12 L 184.22 680.41 L 185.69 671.47 L 187.17 680.47 L 188.64 692.26 L 190.11 671.09 L 191.58 686.95 L 193.06 689.85 L 194.53 684.50 L 196.00 676.58 L 197.47 684.87 L 198.94 679.11 L 200.42 683.32 L 201.89 687.70 L 203.36 687.13 L 204.83 685.76 L 206.31 687.05 L 207.78 690.88 L 209.25 687.78 L 210.72 680.43 L 212.19 692.25 L 213.67 694.96 L 215.14 687.71 L 216.61 683.74 L 218.08 683.68 L 219.56 687.13 L 221.03 691.74 L 222.50 691.65 L 223.97 682.08 L 225.44 687.24 L 226.92 690.51 L 228.39 691.31 L 229.86 685.74 L 231.33 693.86 L 232.81 686.13 L 234.28 689.62 L 235.75 691.63 L 237.22 687.35 L 238.69 689.16 L 240.17 690.82 L 241.64 672.99 L 243.11 676.03 L 244.58 681.62 L 246.06 681.57 L 247.53 683.71 L 249.00 682.05 L 250.47 670.30 L 251.94 655.61 L 253.42 670.78 L 254.89 678.75 L 256.36 685.86 L 257.83 695.14 L 259.31 690.18 L 260.78 680.00 L 262.25 682.79 L 263.72 677.57 L 265.19 661.52 L 266.67 654.91 L 268.14 660.64 L 269.61 664.66 L 271.08 672.51 L 272.56 668.55 L 274.03 673.18 L 275.50 666.91 L 276.97 666.91 L 278.44 658.96 L 279.92 646.76 L 281.39 650.79 L 282.86 665.25 L 284.33 681.34 L 285.81 693.60 L 287.28 672.58 L 288.75 652.61 L 290.22 643.87 L 291.69 664.88 L 293.17 676.77 L 294.64 671.31 L 296.11 676.47 L 297.58 674.04 L 299.06 685.00 L 300.53 663.68 L 302.00 662.60 L 303.47 657.91 L 304.94 658.80 L 306.42 657.31 L 307.89 672.44 L 309.36 687.46 L 310.83 683.09 L 312.31 643.35 L 313.78 688.54 L 315.25 676.25 L 316.72 677.70 L 318.19 666.80 L 319.67 653.28 L 321.14 647.45 L 322.61 683.11 L 324.08 669.05 L 325.56 657.64 L 327.03 656.45 L 328.50 666.68 L 329.97 674.20 L 331.44 660.92 L 332.92 616.66 L 334.39 675.79 L 335.86 675.43 L 337.33 610.27 L 338.81 631.43 L 340.28 645.29 L 341.75 664.51 L 343.22 653.52 L 344.69 690.99 L 346.17 627.08 L 347.64 651.76 L 349.11 648.28 L 350.58 684.87 L 352.06 654.66 L 353.53 638.74 L 355.00 670.66 L 356.47 652.35 L 357.94 649.43 L 359.42 690.06 L 360.89 657.31 L 362.36 671.82 L 363.83 661.52 L 365.31 680.61 L 366.78 675.40 L 368.25 648.20 L 369.72 648.97 L 371.19 651.26 L 372.67 648.37 L 374.14 650.57 L 375.61 652.60 L 377.08 655.33 L 378.56 678.99 L 380.03 673.74 L 381.50 665.32 L 382.97 684.64 L 384.44 663.97 L 385.92 665.37 L 387.39 669.70 L 388.86 652.30 L 390.33 651.04 L 391.81 678.92 L 393.28 632.60 L 394.75 629.69 L 396.22 657.84 L 397.69 604.96 L 399.17 630.87 L 400.64 630.87 L 402.11 612.64 L 403.58 625.89 L 405.06 634.52 L 406.53 632.44 L 408.00 660.56 L 409.47 632.19 L 410.94 675.56 L 412.42 684.11 L 413.89 692.78 L 415.36 678.37 L 416.83 684.83 L 418.31 685.06 L 419.78 676.14 L 421.25 675.67 L 422.72 671.52 L 424.19 659.87 L 425.67 656.70 L 427.14 675.61 L 428.61 660.08 L 430.08 673.26 L 431.56 667.87 L 433.03 664.91 L 434.50 684.78 L 435.97 675.18 L 437.44 684.02 L 438.92 689.86 L 440.39 695.77 L 441.86 679.69 L 443.33 691.22 L 444.81 682.20 L 446.28 678.77 L 447.75 688.62 L 449.22 691.95 L 450.69 696.41 L 452.17 698.09 L 453.64 698.81 L 455.11 698.43 L 456.58 698.68 L 458.06 698.61 L 459.53 698.84 L 461.00 698.67 L 462.47 698.70 L 463.94 698.83 L 465.42 699.09 L 466.89 699.11 L 468.36 699.18 L 469.83 699.13 L 471.31 699.14 L 472.78 699.16 L 474.25 699.05 L 475.72 699.10 L 477.19 699.01 L 478.67 699.05 L 480.14 699.04 L 481.61 699.13 L 483.08 699.11 L 484.56 699.12 L 486.03 699.11 L 487.50 699.02 L 488.97 699.10 L 490.44 696.38 L 491.92 691.51 L 493.39 686.76 L 494.86 694.32 L 496.33 697.46 L 497.81 697.35 L 499.28 698.79 L 500.75 697.91 L 502.22 698.89 L 503.69 698.71 L 505.17 698.79 L 506.64 698.94 L 508.11 698.79 L 509.58 699.11 L 511.06 698.96 L 512.53 699.06 L 514.00 698.96 L 515.47 699.14 L 516.94 699.04 L 518.42 699.09 L 519.89 699.20 L 521.36 699.09 L 522.83 699.12 L 524.31 699.07 L 525.78 699.10 L 527.25 699.10 L 528.72 698.16 L 530.19 698.04 L 531.67 693.28 L 533.14 691.24 L 534.61 697.01 L 536.08 698.54 L 537.56 698.61 L 539.03 699.10 L 540.50 698.90 L 541.97 698.85 L 543.44 698.94 L 544.92 699.09 L 546.39 698.87 L 547.86 699.22 L 549.33 699.19 L 550.81 699.05 L 552.28 699.13 L 553.75 699.13 L 555.22 699.07 L 556.69 699.07 L 558.17 699.08 L 559.64 699.17 L 561.11 696.72 L 562.58 697.89 L 564.06 694.83 L 565.53 698.03 L 567.00 697.69 L 568.47 698.65 L 569.94 698.51 L 571.42 699.05 L 572.89 698.16 L 574.36 698.13 L 575.83 698.67 L 577.31 699.15 L 578.78 698.82 L 580.25 699.09 L 581.72 699.10 L 583.19 699.04 L 584.67 698.75 L 586.14 699.10 L 587.61 699.00 L 589.08 699.21 L 590.56 699.01 L 592.03 698.95 L 593.50 699.17 L 594.97 696.78 L 596.44 692.95 L 597.92 697.64 L 599.39 696.90 L 600.86 697.70 L 602.33 698.87 L 603.81 698.90 L 605.28 698.89 L 606.75 698.75 L 608.22 698.78 L 609.69 698.85 L 611.17 698.95 L 612.64 698.99 L 614.11 698.99 L 615.58 698.89 L 617.06 699.02 L 618.53 698.94 L 620.00 698.99 L 621.47 698.95 L 622.94 699.12 L 624.42 698.28 L 625.89 697.89 L 627.36 697.17 L 628.83 696.84 L 630.31 698.02 L 631.78 698.59 L 633.25 696.76 L 634.72 683.03 L 636.19 689.65 L 637.67 697.17 L 639.14 678.36 L 640.61 696.47 L 642.08 664.28 L 643.56 678.17 L 645.03 688.79 L 646.50 662.18 L 647.97 662.87 L 649.44 681.97 L 650.92 683.93 L 652.39 683.93 L 653.86 609.14 L 655.33 650.26 L 656.81 626.66 L 658.28 640.89 L 659.75 664.56 L 661.22 694.41 L 662.69 661.77 L 664.17 691.48 L 665.64 675.18 L 667.11 657.03 L 668.58 680.48 L 670.06 659.28 L 671.53 687.31 L 673.00 684.75 L 674.47 676.22 L 675.94 668.66 L 677.42 686.84 L 678.89 681.53 L 680.36 664.82 L 681.83 665.12 L 683.31 687.11 L 684.78 659.49 L 686.25 667.02 L 687.72 687.56 L 689.19 658.10 L 690.67 673.51 L 692.14 655.26 L 693.61 671.51 L 695.08 673.69 L 696.56 665.03 L 698.03 649.09 L 699.50 656.29 L 700.97 686.74 L 702.44 669.38 L 703.92 670.97 L 705.39 679.05 L 706.86 664.60 L 708.33 674.06 L 709.81 694.24 L 711.28 685.71 L 712.75 685.32 L 714.22 672.96 L 715.69 666.50 L 717.17 634.42 L 718.64 667.79 L 720.11 664.00 L 721.58 667.29 L 723.06 657.46 L 724.53 649.73 L 726.00 675.70 L 727.47 665.90 L 728.94 677.69 L 730.42 673.62 L 731.89 688.65 L 733.36 651.83 L 734.83 667.99 L 736.31 690.75 L 737.78 688.04 L 739.25 655.78 L 740.72 642.58 L 742.19 660.03 L 743.67 671.21 L 745.14 621.13 L 746.61 619.57 L 748.08 685.94 L 749.56 665.91 L 751.03 660.24 L 752.50 655.14 L 753.97 637.08 L 755.44 669.27 L 756.92 621.22 L 758.39 646.44 L 759.86 677.56 L 761.33 695.40 L 762.81 640.69 L 764.28 657.84 L 765.75 635.77 L 767.22 683.26 L 768.69 686.26 L 770.17 684.16 L 771.64 691.47 L 773.11 686.24 L 774.58 682.24 L 776.06 689.23 L 777.53 689.65 L 779.00 685.46 L 780.47 685.46 L 781.94 686.22 L 783.42 675.82 L 784.89 685.10 L 786.36 663.81 L 787.83 687.89 L 789.31 685.48 L 790.78 671.42 L 792.25 689.44 L 793.72 680.56 L 795.19 684.23 L 796.67 694.51 L 798.14 688.00 L 799.61 673.84 L 801.08 692.70 L 802.56 676.94 L 804.03 678.27 L 805.50 673.51 L 806.97 665.85 L 808.44 693.80 L 809.92 687.23 L 811.39 689.20 L 812.86 689.73 L 814.33 674.30 L 815.81 678.54 L 817.28 683.47 L 818.75 680.15 L 820.22 683.94 L 821.69 694.59 L 823.17 693.68 L 824.64 689.78 L 826.11 690.35 L 827.58 693.18 L 829.06 692.17 L 830.53 694.32 L 832.00 694.20 L 833.47 687.48 L 834.94 690.20 L 836.42 691.79 L 837.89 694.13 L 839.36 689.69 L 840.83 687.77 L 842.31 675.67" stroke="#FB8C00" />
<text x="90" y="711.25" font-size="14" font-weight="700">Giroscópio (magnitude) (u.a.)</text>
<rect class="event" x="443.33" y="717.25" width="133.97" height="192.75" />
<line class="eventline" x1="443.33" y1="717.25" x2="443.33" y2="910.00" />
<line class="eventline" x1="577.31" y1="717.25" x2="577.31" y2="910.00" />
<line class="grid" x1="90" y1="910.00" x2="1150" y2="910.00" />
<text class="small" x="80" y="914.00" text-anchor="end">0.00</text>
<line class="grid" x1="90" y1="871.45" x2="1150" y2="871.45" />
<text class="small" x="80" y="875.45" text-anchor="end">0.10</text>
<line class="grid" x1="90" y1="832.90" x2="1150" y2="832.90" />
<text class="small" x="80" y="836.90" text-anchor="end">0.20</text>
<line class="grid" x1="90" y1="794.35" x2="1150" y2="794.35" />
<text class="small" x="80" y="798.35" text-anchor="end">0.30</text>
<line class="grid" x1="90" y1="755.80" x2="1150" y2="755.80" />
<text class="small" x="80" y="759.80" text-anchor="end">0.40</text>
<line class="grid" x1="90" y1="717.25" x2="1150" y2="717.25" />
<text class="small" x="80" y="721.25" text-anchor="end">0.50</text>
<line class="grid" x1="90.00" y1="717.25" x2="90.00" y2="910.00" />
<line class="grid" x1="266.67" y1="717.25" x2="266.67" y2="910.00" />
<line class="grid" x1="443.33" y1="717.25" x2="443.33" y2="910.00" />
<line class="grid" x1="620.00" y1="717.25" x2="620.00" y2="910.00" />
<line class="grid" x1="796.67" y1="717.25" x2="796.67" y2="910.00" />
<line class="grid" x1="973.33" y1="717.25" x2="973.33" y2="910.00" />
<line class="grid" x1="1150.00" y1="717.25" x2="1150.00" y2="910.00" />
<line class="axis" x1="90" y1="717.25" x2="90" y2="910.00" />
<line class="axis" x1="90" y1="910.00" x2="1150" y2="910.00" />
<path class="series" d="M 178.33 875.87 L 179.81 886.23 L 181.28 890.69 L 182.75 894.91 L 184.22 903.94 L 185.69 907.76 L 187.17 905.11 L 188.64 905.86 L 190.11 903.67 L 191.58 906.21 L 193.06 905.77 L 194.53 904.43 L 196.00 903.75 L 197.47 906.85 L 198.94 905.60 L 200.42 907.38 L 201.89 905.26 L 203.36 905.95 L 204.83 907.48 L 206.31 902.60 L 207.78 907.40 L 209.25 901.62 L 210.72 905.25 L 212.19 905.22 L 213.67 904.74 L 215.14 905.88 L 216.61 907.36 L 218.08 907.25 L 219.56 904.75 L 221.03 905.05 L 222.50 908.51 L 223.97 907.39 L 225.44 904.07 L 226.92 905.65 L 228.39 906.24 L 229.86 905.49 L 231.33 901.36 L 232.81 904.47 L 234.28 904.02 L 235.75 908.24 L 237.22 908.62 L 238.69 904.14 L 240.17 904.25 L 241.64 905.79 L 243.11 901.13 L 244.58 900.70 L 246.06 897.73 L 247.53 896.80 L 249.00 891.64 L 250.47 885.87 L 251.94 881.64 L 253.42 871.74 L 254.89 872.27 L 256.36 886.74 L 257.83 889.32 L 259.31 887.67 L 260.78 889.02 L 262.25 886.94 L 263.72 891.00 L 265.19 897.01 L 266.67 904.61 L 268.14 902.12 L 269.61 902.83 L 271.08 897.31 L 272.56 898.84 L 274.03 903.63 L 275.50 901.40 L 276.97 901.40 L 278.44 899.43 L 279.92 879.33 L 281.39 861.56 L 282.86 854.09 L 284.33 855.67 L 285.81 858.08 L 287.28 881.44 L 288.75 877.67 L 290.22 902.15 L 291.69 892.85 L 293.17 882.72 L 294.64 908.03 L 296.11 902.87 L 297.58 898.82 L 299.06 897.84 L 300.53 897.96 L 302.00 892.27 L 303.47 894.23 L 304.94 896.44 L 306.42 903.35 L 307.89 899.51 L 309.36 904.09 L 310.83 906.14 L 312.31 903.06 L 313.78 898.35 L 315.25 895.50 L 316.72 897.48 L 318.19 886.72 L 319.67 888.25 L 321.14 873.25 L 322.61 872.99 L 324.08 880.11 L 325.56 878.16 L 327.03 876.28 L 328.50 876.10 L 329.97 884.10 L 331.44 887.56 L 332.92 849.78 L 334.39 862.19 L 335.86 883.15 L 337.33 852.77 L 338.81 898.59 L 340.28 889.14 L 341.75 890.08 L 343.22 887.16 L 344.69 889.59 L 346.17 888.89 L 347.64 872.21 L 349.11 897.74 L 350.58 897.69 L 352.06 888.49 L 353.53 883.45 L 355.00 871.80 L 356.47 889.36 L 357.94 898.23 L 359.42 887.08 L 360.89 892.38 L 362.36 893.52 L 363.83 900.74 L 365.31 903.38 L 366.78 896.64 L 368.25 893.93 L 369.72 898.75 L 371.19 896.23 L 372.67 887.48 L 374.14 898.87 L 375.61 895.40 L 377.08 896.03 L 378.56 902.61 L 380.03 891.43 L 381.50 880.91 L 382.97 894.31 L 384.44 892.60 L 385.92 890.71 L 387.39 895.30 L 388.86 895.60 L 390.33 903.57 L 391.81 886.91 L 393.28 889.38 L 394.75 860.75 L 396.22 797.58 L 397.69 783.49 L 399.17 793.49 L 400.64 793.49 L 402.11 805.21 L 403.58 829.94 L 405.06 842.84 L 406.53 866.87 L 408.00 877.07 L 409.47 889.73 L 410.94 908.06 L 412.42 909.22 L 413.89 909.14 L 415.36 906.79 L 416.83 905.21 L 418.31 905.27 L 419.78 889.80 L 421.25 859.91 L 422.72 843.51 L 424.19 841.38 L 425.67 846.37 L 427.14 849.14 L 428.61 848.35 L 430.08 870.52 L 431.56 886.28 L 433.03 904.77 L 434.50 904.55 L 435.97 900.27 L 437.44 900.49 L 438.92 901.00 L 440.39 895.24 L 441.86 896.10 L 443.33 909.35 L 444.81 908.17 L 446.28 909.42 L 447.75 908.89 L 449.22 909.32 L 450.69 909.46 L 452.17 909.42 L 453.64 909.41 L 455.11 909.45 L 456.58 909.46 L 458.06 909.42 L 459.53 909.42 L 461.00 909.44 L 462.47 909.47 L 463.94 909.90 L 465.42 909.93 L 466.89 909.92 L 468.36 909.92 L 469.83 909.90 L 471.31 909.90 L 472.78 909.93 L 474.25 909.94 L 475.72 909.97 L 477.19 909.96 L 478.67 909.96 L 480.14 909.96 L 481.61 909.99 L 483.08 909.96 L 484.56 909.97 L 486.03 909.95 L 487.50 909.93 L 488.97 909.88 L 490.44 907.81 L 491.92 907.21 L 493.39 908.37 L 494.86 909.76 L 496.33 909.56 L 497.81 909.90 L 499.28 909.88 L 500.75 909.93 L 502.22 909.80 L 503.69 909.92 L 505.17 909.89 L 506.64 909.94 L 508.11 909.83 L 509.58 909.91 L 511.06 909.92 L 512.53 909.90 L 514.00 909.83 L 515.47 909.92 L 516.94 909.96 L 518.42 909.92 L 519.89 909.88 L 521.36 909.97 L 522.83 909.92 L 524.31 909.92 L 525.78 909.96 L 527.25 909.96 L 528.72 909.69 L 530.19 909.07 L 531.67 908.30 L 533.14 908.81 L 534.61 909.78 L 536.08 909.89 L 537.56 909.94 L 539.03 909.89 L 540.50 909.90 L 541.97 909.92 L 543.44 909.94 L 544.92 909.95 L 546.39 909.83 L 547.86 909.88 L 549.33 909.92 L 550.81 909.90 L 552.28 909.96 L 553.75 909.94 L 555.22 909.95 L 556.69 909.94 L 558.17 909.97 L 559.64 909.91 L 561.11 909.75 L 562.58 909.71 L 564.06 909.37 L 565.53 908.36 L 567.00 909.89 L 568.47 909.83 L 569.94 909.92 L 571.42 909.96 L 572.89 909.92 L 574.36 909.85 L 575.83 909.82 L 577.31 909.88 L 578.78 909.91 L 580.25 909.96 L 581.72 909.88 L 583.19 909.90 L 584.67 909.91 L 586.14 909.91 L 587.61 909.92 L 589.08 909.93 L 590.56 909.95 L 592.03 909.86 L 593.50 909.99 L 594.97 909.64 L 596.44 909.76 L 597.92 907.92 L 599.39 908.96 L 600.86 909.79 L 602.33 909.80 L 603.81 909.95 L 605.28 909.87 L 606.75 909.98 L 608.22 909.84 L 609.69 909.90 L 611.17 909.86 L 612.64 909.91 L 614.11 909.96 L 615.58 909.89 L 617.06 909.87 L 618.53 909.91 L 620.00 909.89 L 621.47 909.95 L 622.94 909.92 L 624.42 909.88 L 625.89 908.73 L 627.36 909.48 L 628.83 908.96 L 630.31 909.64 L 631.78 909.86 L 633.25 909.79 L 634.72 906.05 L 636.19 899.67 L 637.67 904.45 L 639.14 902.97 L 640.61 902.82 L 642.08 902.10 L 643.56 907.33 L 645.03 888.89 L 646.50 883.09 L 647.97 885.99 L 649.44 897.47 L 650.92 895.70 L 652.39 895.70 L 653.86 898.30 L 655.33 893.47 L 656.81 891.61 L 658.28 890.83 L 659.75 887.28 L 661.22 894.72 L 662.69 896.64 L 664.17 894.16 L 665.64 902.73 L 667.11 898.57 L 668.58 903.39 L 670.06 899.92 L 671.53 898.22 L 673.00 900.63 L 674.47 903.02 L 675.94 896.84 L 677.42 900.83 L 678.89 886.42 L 680.36 901.59 L 681.83 903.64 L 683.31 898.00 L 684.78 903.33 L 686.25 893.49 L 687.72 903.42 L 689.19 903.71 L 690.67 895.98 L 692.14 891.17 L 693.61 902.80 L 695.08 903.28 L 696.56 904.10 L 698.03 898.06 L 699.50 900.48 L 700.97 897.56 L 702.44 901.09 L 703.92 904.52 L 705.39 903.29 L 706.86 904.99 L 708.33 893.13 L 709.81 904.27 L 711.28 904.98 L 712.75 901.22 L 714.22 888.09 L 715.69 894.93 L 717.17 895.93 L 718.64 900.89 L 720.11 894.42 L 721.58 904.30 L 723.06 898.60 L 724.53 900.64 L 726.00 896.98 L 727.47 902.55 L 728.94 899.98 L 730.42 906.31 L 731.89 874.64 L 733.36 891.22 L 734.83 892.56 L 736.31 903.00 L 737.78 899.97 L 739.25 895.52 L 740.72 892.30 L 742.19 905.34 L 743.67 904.37 L 745.14 891.72 L 746.61 893.07 L 748.08 889.75 L 749.56 892.11 L 751.03 890.23 L 752.50 898.71 L 753.97 894.97 L 755.44 870.34 L 756.92 898.03 L 758.39 905.36 L 759.86 906.22 L 761.33 908.94 L 762.81 904.65 L 764.28 909.40 L 765.75 907.74 L 767.22 907.69 L 768.69 905.18 L 770.17 903.71 L 771.64 902.73 L 773.11 902.66 L 774.58 904.24 L 776.06 902.90 L 777.53 897.51 L 779.00 896.03 L 780.47 896.03 L 781.94 896.78 L 783.42 888.64 L 784.89 882.95 L 786.36 881.26 L 787.83 878.51 L 789.31 887.51 L 790.78 888.32 L 792.25 886.56 L 793.72 893.57 L 795.19 890.28 L 796.67 891.21 L 798.14 891.79 L 799.61 893.04 L 801.08 885.28 L 802.56 896.20 L 804.03 892.70 L 805.50 889.26 L 806.97 895.43 L 808.44 895.62 L 809.92 896.23 L 811.39 897.23 L 812.86 897.20 L 814.33 897.22 L 815.81 898.51 L 817.28 902.18 L 818.75 907.27 L 820.22 903.79 L 821.69 903.55 L 823.17 902.14 L 824.64 901.70 L 826.11 901.94 L 827.58 902.52 L 829.06 902.23 L 830.53 902.69 L 832.00 902.84 L 833.47 902.89 L 834.94 903.27 L 836.42 902.82 L 837.89 902.47 L 839.36 902.76 L 840.83 904.10 L 842.31 907.28" stroke="#E53935" />
<text x="620.00" y="952" font-size="15" text-anchor="middle">minutos (relativo ao início do evento)</text>
<text class="small" x="90.00" y="936" text-anchor="middle">-4.00</text>
<text class="small" x="266.67" y="936" text-anchor="middle">-2.00</text>
<text class="small" x="443.33" y="936" text-anchor="middle">0.00</text>
<text class="small" x="620.00" y="936" text-anchor="middle">2.00</text>
<text class="small" x="796.67" y="936" text-anchor="middle">4.00</text>
<text class="small" x="973.33" y="936" text-anchor="middle">6.00</text>
<text class="small" x="1150.00" y="936" text-anchor="middle">8.00</text>
</svg>