<?xml version="1.0" encoding="UTF-8"?>
<svg xmlns="http://www.w3.org/2000/svg" width="1180" height="980" viewBox="0 0 1180 980">
<style>
text { font-family: -apple-system, BlinkMacSystemFont, 'Segoe UI', Roboto, Helvetica, Arial, sans-serif; fill: #111; }
.small { font-size: 12px; fill: #222; }
.title { font-size: 18px; font-weight: 700; }
.axis { stroke: #111; stroke-width: 1.4; }
.grid { stroke: #E6E6E6; stroke-width: 1; }
.event { fill: #FFEB3B; fill-opacity: 0.18; }
.eventline { stroke: #F9A825; stroke-width: 1.2; stroke-dasharray: 4 3; }
.series { fill: none; stroke-width: 1.8; }
</style>
<text class="title" x="90" y="34">ciclo 4 — espera_carregamento — 2025-12-12T15:43:24-03:00 → 2025-12-12T15:44:04-03:00 (span 40s, dur 41s)</text>
<text class="small" x="90" y="54">GPS: -11.699035,-47.157277  hotspot: -11.699,-47.157</text>
<text class="small" x="90" y="70">Janela: -3.00 → 3.67 min (relativo ao início do evento)</text>
<text x="90" y="79.00" font-size="14" font-weight="700">Velocidade (km/h)</text>
<rect class="event" x="443.33" y="85.00" width="58.89" height="192.75" />
<line class="eventline" x1="443.33" y1="85.00" x2="443.33" y2="277.75" />
<line class="eventline" x1="502.22" y1="85.00" x2="502.22" y2="277.75" />
<line class="grid" x1="90" y1="277.75" x2="1150" y2="277.75" />
<text class="small" x="80" y="281.75" text-anchor="end">0.00</text>
<line class="grid" x1="90" y1="239.20" x2="1150" y2="239.20" />
<text class="small" x="80" y="243.20" text-anchor="end">10.0</text>
<line class="grid" x1="90" y1="200.65" x2="1150" y2="200.65" />
<text class="small" x="80" y="204.65" text-anchor="end">20.0</text>
<line class="grid" x1="90" y1="162.10" x2="1150" y2="162.10" />
<text class="small" x="80" y="166.10" text-anchor="end">30.0</text>
<line class="grid" x1="90" y1="123.55" x2="1150" y2="123.55" />
<text class="small" x="80" y="127.55" text-anchor="end">40.0</text>
<line class="grid" x1="90" y1="85.00" x2="1150" y2="85.00" />
<text class="small" x="80" y="89.00" text-anchor="end">50.0</text>
<line class="grid" x1="90.00" y1="85.00" x2="90.00" y2="277.75" />
<line class="grid" x1="266.67" y1="85.00" x2="266.67" y2="277.75" />
<line class="grid" x1="443.33" y1="85.00" x2="443.33" y2="277.75" />
<line class="grid" x1="620.00" y1="85.00" x2="620.00" y2="277.75" />
<line class="grid" x1="796.67" y1="85.00" x2="796.67" y2="277.75" />
<line class="grid" x1="973.33" y1="85.00" x2="973.33" y2="277.75" />
<line class="grid" x1="1150.00" y1="85.00" x2="1150.00" y2="277.75" />
<line class="axis" x1="90" y1="85.00" x2="90" y2="277.75" />
<line class="axis" x1="90" y1="277.75" x2="1150" y2="277.75" />
<path class="series" d="M 178.33 176.44 L 179.81 175.75 L 181.28 172.14 L 182.75 171.58 L 184.22 178.94 L 185.69 181.30 L 187.17 179.35 L 188.64 186.16 L 190.11 175.47 L 191.58 172.14 L 193.06 169.92 L 194.53 176.72 L 196.00 176.16 L 197.47 167.70 L 198.94 163.95 L 200.42 159.51 L 201.89 165.06 L 203.36 170.20 L 204.83 171.17 L 206.31 171.17 L 207.78 172.69 L 209.25 170.20 L 210.72 173.80 L 212.19 167.56 L 213.67 159.37 L 215.14 161.31 L 216.61 160.90 L 218.08 156.60 L 219.56 163.53 L 221.03 159.65 L 222.50 160.20 L 223.97 156.46 L 225.44 154.93 L 226.92 150.35 L 228.39 149.52 L 229.86 151.04 L 231.33 153.54 L 232.81 154.24 L 234.28 157.15 L 235.75 161.87 L 237.22 167.98 L 238.69 168.25 L 240.17 173.53 L 241.64 175.75 L 243.11 183.80 L 244.58 182.96 L 246.06 183.10 L 247.53 185.74 L 249.00 194.48 L 250.47 203.64 L 251.94 212.52 L 253.42 212.52 L 254.89 230.43 L 256.36 237.23 L 257.83 233.90 L 259.31 232.92 L 260.78 232.23 L 262.25 226.12 L 263.72 245.97 L 265.19 249.58 L 266.67 248.05 L 268.14 251.80 L 269.61 260.96 L 271.08 265.12 L 272.56 274.56 L 274.03 277.75 L 275.50 277.75 L 276.97 277.75 L 278.44 277.75 L 279.92 277.75 L 281.39 266.09 L 282.86 259.29 L 284.33 254.57 L 285.81 251.94 L 287.28 255.13 L 288.75 255.41 L 290.22 257.90 L 291.69 251.52 L 293.17 258.46 L 294.64 260.12 L 296.11 262.07 L 297.58 264.43 L 299.06 266.93 L 300.53 266.23 L 302.00 270.81 L 303.47 268.59 L 304.94 268.17 L 306.42 277.75 L 307.89 277.75 L 309.36 277.75 L 310.83 277.75 L 312.31 277.75 L 313.78 277.75 L 315.25 277.75 L 316.72 277.75 L 318.19 277.75 L 319.67 277.75 L 321.14 277.75 L 322.61 277.75 L 324.08 277.75 L 325.56 277.75 L 327.03 277.75 L 328.50 277.75 L 329.97 277.75 L 331.44 277.75 L 332.92 277.75 L 334.39 277.75 L 335.86 277.75 L 337.33 277.75 L 338.81 277.75 L 340.28 277.75 L 341.75 277.75 L 343.22 277.75 L 344.69 277.75 L 346.17 277.75 L 347.64 277.75 L 349.11 277.75 L 350.58 277.75 L 352.06 277.75 L 353.53 277.75 L 355.00 277.75 L 356.47 277.75 L 357.94 277.75 L 359.42 277.75 L 360.89 277.75 L 362.36 277.75 L 363.83 277.75 L 365.31 277.75 L 366.78 277.75 L 368.25 277.75 L 369.72 277.75 L 371.19 277.75 L 372.67 277.75 L 374.14 277.75 L 375.61 277.75 L 377.08 277.75 L 378.56 277.75 L 380.03 277.75 L 381.50 277.75 L 382.97 277.75 L 384.44 277.75 L 385.92 277.75 L 387.39 277.75 L 388.86 277.75 L 390.33 277.75 L 391.81 277.75 L 393.28 277.75 L 394.75 277.75 L 396.22 277.75 L 397.69 277.75 L 399.17 277.75 L 400.64 277.75 L 402.11 277.75 L 403.58 277.75 L 405.06 277.75 L 406.53 277.75 L 408.00 277.75 L 409.47 277.75 L 410.94 277.75 L 412.42 277.75 L 413.89 277.75 L 415.36 277.75 L 416.83 277.75 L 418.31 277.75 L 419.78 277.75 L 421.25 277.75 L 422.72 277.75 L 424.19 277.75 L 425.67 277.75 L 427.14 277.75 L 428.61 277.75 L 430.08 277.75 L 431.56 277.75 L 433.03 277.75 L 434.50 277.75 L 435.97 277.75 L 437.44 277.75 L 438.92 277.75 L 440.39 277.75 L 441.86 275.67 L 443.33 277.75 L 444.81 277.75 L 446.28 277.75 L 447.75 277.75 L 449.22 277.75 L 450.69 277.75 L 452.17 277.75 L 453.64 277.75 L 455.11 277.75 L 456.58 277.75 L 458.06 277.75 L 459.53 277.75 L 461.00 277.75 L 462.47 277.75 L 463.94 277.75 L 465.42 277.75 L 466.89 277.75 L 468.36 277.75 L 469.83 277.75 L 471.31 277.75 L 472.78 277.75 L 474.25 277.75 L 475.72 277.75 L 477.19 277.75 L 478.67 277.75 L 480.14 277.75 L 481.61 277.75 L 483.08 277.75 L 484.56 277.75 L 486.03 277.75 L 487.50 277.75 L 488.97 277.75 L 490.44 277.75 L 491.92 277.75 L 493.39 277.75 L 494.86 277.75 L 496.33 277.75 L 497.81 277.75 L 499.28 277.75 L 500.75 277.75 L 502.22 277.75 L 503.69 256.79 L 505.17 258.46 L 506.64 251.38 L 508.11 249.99 L 509.58 245.69 L 511.06 239.72 L 512.53 244.30 L 514.00 241.25 L 515.47 244.72 L 516.94 239.59 L 518.42 239.17 L 519.89 239.31 L 521.36 241.53 L 522.83 239.31 L 524.31 237.78 L 525.78 239.59 L 527.25 239.86 L 528.72 239.72 L 530.19 239.59 L 531.67 238.75 L 533.14 237.09 L 534.61 235.14 L 536.08 233.06 L 537.56 229.87 L 539.03 224.32 L 540.50 227.79 L 541.97 226.26 L 543.44 223.49 L 544.92 221.41 L 546.39 220.71 L 547.86 221.82 L 549.33 220.99 L 550.81 220.99 L 552.28 221.68 L 553.75 224.46 L 555.22 228.07 L 556.69 229.45 L 558.17 230.98 L 559.64 231.68 L 561.11 229.87 L 562.58 230.01 L 564.06 228.76 L 565.53 226.82 L 567.00 220.99 L 568.47 214.88 L 569.94 211.83 L 571.42 211.55 L 572.89 210.16 L 574.36 206.00 L 575.83 205.58 L 577.31 205.31 L 578.78 206.14 L 580.25 206.97 L 581.72 208.50 L 583.19 212.25 L 584.67 213.91 L 586.14 212.11 L 587.61 211.27 L 589.08 209.05 L 590.56 206.14 L 592.03 203.78 L 593.50 204.89 L 594.97 208.08 L 596.44 206.14 L 597.92 209.75 L 599.39 210.30 L 600.86 207.94 L 602.33 211.27 L 603.81 208.78 L 605.28 211.27 L 606.75 213.63 L 608.22 212.80 L 609.69 210.72 L 611.17 215.58 L 612.64 214.74 L 614.11 217.66 L 615.58 215.44 L 617.06 215.44 L 618.53 220.16 L 620.00 226.26 L 621.47 240.00 L 622.94 255.55 L 624.42 261.24 L 625.89 277.75 L 627.36 277.75 L 628.83 274.14 L 630.31 266.79 L 631.78 263.04 L 633.25 260.54 L 634.72 258.74 L 636.19 256.52 L 637.67 254.99 L 639.14 254.02 L 640.61 253.32 L 642.08 252.49 L 643.56 251.52 L 645.03 252.21 L 646.50 246.66 L 647.97 243.75 L 649.44 242.08 L 650.92 236.12 L 652.39 233.62 L 653.86 233.06 L 655.33 233.20 L 656.81 231.54 L 658.28 230.29 L 659.75 229.59 L 661.22 230.43 L 662.69 228.48 L 664.17 225.29 L 665.64 228.21 L 667.11 230.84 L 668.58 236.25 L 670.06 235.42 L 671.53 237.37 L 673.00 237.92 L 674.47 234.03 L 675.94 235.70 L 677.42 237.09 L 678.89 245.55 L 680.36 248.88 L 681.83 249.30 L 683.31 250.69 L 684.78 254.99 L 686.25 255.96 L 687.72 256.52 L 689.19 256.24 L 690.67 256.93 L 692.14 258.60 L 693.61 255.68 L 695.08 259.15 L 696.56 259.15 L 698.03 261.37 L 699.50 260.96 L 700.97 259.57 L 702.44 259.57 L 703.92 259.99 L 705.39 263.04 L 706.86 277.75 L 708.33 269.98 L 709.81 268.17 L 711.28 265.95 L 712.75 260.68 L 714.22 258.88 L 715.69 260.68 L 717.17 259.85 L 718.64 259.99 L 720.11 263.73 L 721.58 264.43 L 723.06 264.43 L 724.53 263.46 L 726.00 263.04 L 727.47 260.82 L 728.94 261.10 L 730.42 260.96 L 731.89 263.73 L 733.36 264.70 L 734.83 266.65 L 736.31 266.09 L 737.78 261.37 L 739.25 257.07 L 740.72 261.24 L 742.19 266.93 L 743.67 268.59 L 745.14 268.87 L 746.61 267.90 L 748.08 266.93 L 749.56 261.93 L 751.03 258.18 L 752.50 258.60 L 753.97 258.88 L 755.44 258.74 L 756.92 259.29 L 758.39 257.90 L 759.86 256.79 L 761.33 254.85 L 762.81 254.30 L 764.28 252.91 L 765.75 254.43 L 767.22 254.43" stroke="#1976D2" />
<text x="90" y="289.75" font-size="14" font-weight="700">Inclinação (graus)</text>
<rect class="event" x="443.33" y="295.75" width="58.89" height="192.75" />
<line class="eventline" x1="443.33" y1="295.75" x2="443.33" y2="488.50" />
<line class="eventline" x1="502.22" y1="295.75" x2="502.22" y2="488.50" />
<line class="grid" x1="90" y1="488.50" x2="1150" y2="488.50" />
<text class="small" x="80" y="492.50" text-anchor="end">-10.0</text>
<line class="grid" x1="90" y1="449.95" x2="1150" y2="449.95" />
<text class="small" x="80" y="453.95" text-anchor="end">0.00</text>
<line class="grid" x1="90" y1="411.40" x2="1150" y2="411.40" />
<text class="small" x="80" y="415.40" text-anchor="end">10.0</text>
<line class="grid" x1="90" y1="372.85" x2="1150" y2="372.85" />
<text class="small" x="80" y="376.85" text-anchor="end">20.0</text>
<line class="grid" x1="90" y1="334.30" x2="1150" y2="334.30" />
<text class="small" x="80" y="338.30" text-anchor="end">30.0</text>
<line class="grid" x1="90" y1="295.75" x2="1150" y2="295.75" />
<text class="small" x="80" y="299.75" text-anchor="end">40.0</text>
<line class="grid" x1="90.00" y1="295.75" x2="90.00" y2="488.50" />
<line class="grid" x1="266.67" y1="295.75" x2="266.67" y2="488.50" />
<line class="grid" x1="443.33" y1="295.75" x2="443.33" y2="488.50" />
<line class="grid" x1="620.00" y1="295.75" x2="620.00" y2="488.50" />
<line class="grid" x1="796.67" y1="295.75" x2="796.67" y2="488.50" />
<line class="grid" x1="973.33" y1="295.75" x2="973.33" y2="488.50" />
<line class="grid" x1="1150.00" y1="295.75" x2="1150.00" y2="488.50" />
<line class="axis" x1="90" y1="295.75" x2="90" y2="488.50" />
<line class="axis" x1="90" y1="488.50" x2="1150" y2="488.50" />
<path class="series" d="M 178.33 392.25 L 179.81 391.81 L 181.28 392.77 L 182.75 373.26 L 184.22 383.60 L 185.69 391.45 L 187.17 399.41 L 188.64 409.88 L 190.11 407.70 L 191.58 394.12 L 193.06 406.16 L 194.53 402.22 L 196.00 404.51 L 197.47 386.21 L 198.94 375.53 L 200.42 384.08 L 201.89 390.45 L 203.36 408.34 L 204.83 403.83 L 206.31 414.76 L 207.78 411.09 L 209.25 414.73 L 210.72 411.28 L 212.19 420.86 L 213.67 401.88 L 215.14 412.20 L 216.61 402.59 L 218.08 412.26 L 219.56 412.60 L 221.03 403.54 L 222.50 415.14 L 223.97 414.60 L 225.44 405.50 L 226.92 405.35 L 228.39 402.45 L 229.86 400.29 L 231.33 400.34 L 232.81 393.13 L 234.28 396.20 L 235.75 394.21 L 237.22 405.64 L 238.69 393.58 L 240.17 397.03 L 241.64 397.54 L 243.11 407.74 L 244.58 397.99 L 246.06 402.41 L 247.53 390.48 L 249.00 390.44 L 250.47 394.06 L 251.94 398.01 L 253.42 408.48 L 254.89 408.18 L 256.36 419.24 L 257.83 412.61 L 259.31 404.97 L 260.78 391.73 L 262.25 381.44 L 263.72 378.30 L 265.19 380.48 L 266.67 381.59 L 268.14 382.29 L 269.61 386.30 L 271.08 375.88 L 272.56 384.71 L 274.03 388.98 L 275.50 390.16 L 276.97 380.59 L 278.44 390.79 L 279.92 378.76 L 281.39 385.34 L 282.86 385.34 L 284.33 388.99 L 285.81 393.55 L 287.28 394.91 L 288.75 396.90 L 290.22 403.18 L 291.69 406.59 L 293.17 409.23 L 294.64 417.89 L 296.11 411.58 L 297.58 414.06 L 299.06 416.23 L 300.53 414.32 L 302.00 411.25 L 303.47 405.66 L 304.94 410.08 L 306.42 413.82 L 307.89 405.44 L 309.36 406.15 L 310.83 405.45 L 312.31 405.88 L 313.78 405.27 L 315.25 405.52 L 316.72 405.42 L 318.19 405.48 L 319.67 405.46 L 321.14 405.44 L 322.61 405.46 L 324.08 405.45 L 325.56 405.49 L 327.03 405.44 L 328.50 405.47 L 329.97 405.46 L 331.44 405.43 L 332.92 405.46 L 334.39 405.42 L 335.86 405.43 L 337.33 405.43 L 338.81 405.44 L 340.28 405.40 L 341.75 405.44 L 343.22 405.43 L 344.69 405.34 L 346.17 405.43 L 347.64 405.39 L 349.11 405.37 L 350.58 405.42 L 352.06 405.37 L 353.53 404.96 L 355.00 404.66 L 356.47 404.69 L 357.94 403.64 L 359.42 404.44 L 360.89 403.76 L 362.36 404.19 L 363.83 404.12 L 365.31 404.12 L 366.78 404.11 L 368.25 404.13 L 369.72 404.11 L 371.19 404.07 L 372.67 404.05 L 374.14 404.07 L 375.61 404.01 L 377.08 404.03 L 378.56 404.03 L 380.03 404.01 L 381.50 403.98 L 382.97 404.02 L 384.44 404.06 L 385.92 404.01 L 387.39 404.03 L 388.86 404.06 L 390.33 404.02 L 391.81 404.11 L 393.28 403.64 L 394.75 402.34 L 396.22 403.31 L 397.69 403.47 L 399.17 403.01 L 400.64 403.21 L 402.11 403.09 L 403.58 403.04 L 405.06 403.05 L 406.53 403.05 L 408.00 403.00 L 409.47 403.08 L 410.94 403.10 L 412.42 402.99 L 413.89 403.05 L 415.36 403.01 L 416.83 403.02 L 418.31 403.01 L 419.78 403.00 L 421.25 403.02 L 422.72 402.98 L 424.19 402.95 L 425.67 403.33 L 427.14 403.23 L 428.61 403.09 L 430.08 402.99 L 431.56 402.98 L 433.03 403.16 L 434.50 403.02 L 435.97 403.08 L 437.44 403.03 L 438.92 403.14 L 440.39 403.10 L 441.86 403.14 L 443.33 403.00 L 444.81 403.07 L 446.28 403.05 L 447.75 403.07 L 449.22 403.10 L 450.69 403.07 L 452.17 403.07 L 453.64 403.12 L 455.11 403.09 L 456.58 403.10 L 458.06 403.40 L 459.53 403.46 L 461.00 403.38 L 462.47 404.78 L 463.94 404.59 L 465.42 404.39 L 466.89 404.33 L 468.36 404.46 L 469.83 404.53 L 471.31 404.47 L 472.78 404.42 L 474.25 404.43 L 475.72 404.49 L 477.19 404.49 L 478.67 404.47 L 480.14 404.50 L 481.61 404.49 L 483.08 404.48 L 484.56 404.49 L 486.03 404.48 L 487.50 404.44 L 488.97 405.05 L 490.44 405.18 L 491.92 405.39 L 493.39 405.35 L 494.86 405.58 L 496.33 406.46 L 497.81 414.17 L 499.28 410.90 L 500.75 412.62 L 502.22 421.49 L 503.69 421.49 L 505.17 418.53 L 506.64 426.47 L 508.11 419.95 L 509.58 416.47 L 511.06 414.13 L 512.53 395.19 L 514.00 397.21 L 515.47 409.07 L 516.94 410.18 L 518.42 405.86 L 519.89 396.42 L 521.36 400.90 L 522.83 400.41 L 524.31 397.11 L 525.78 397.13 L 527.25 405.03 L 528.72 407.40 L 530.19 408.92 L 531.67 409.63 L 533.14 408.10 L 534.61 409.35 L 536.08 414.01 L 537.56 413.90 L 539.03 412.32 L 540.50 402.69 L 541.97 410.19 L 543.44 413.94 L 544.92 407.38 L 546.39 410.91 L 547.86 411.37 L 549.33 407.90 L 550.81 406.80 L 552.28 404.54 L 553.75 403.91 L 555.22 404.67 L 556.69 411.42 L 558.17 409.77 L 559.64 411.29 L 561.11 413.85 L 562.58 421.41 L 564.06 415.57 L 565.53 417.06 L 567.00 417.26 L 568.47 417.15 L 569.94 417.59 L 571.42 409.79 L 572.89 412.74 L 574.36 413.91 L 575.83 412.53 L 577.31 412.34 L 578.78 406.71 L 580.25 398.86 L 581.72 402.21 L 583.19 401.31 L 584.67 401.68 L 586.14 403.71 L 587.61 410.39 L 589.08 407.86 L 590.56 407.17 L 592.03 405.56 L 593.50 403.82 L 594.97 410.47 L 596.44 408.14 L 597.92 408.39 L 599.39 408.97 L 600.86 404.16 L 602.33 408.60 L 603.81 399.21 L 605.28 397.99 L 606.75 395.38 L 608.22 397.14 L 609.69 403.50 L 611.17 399.26 L 612.64 401.38 L 614.11 406.00 L 615.58 410.38 L 617.06 406.10 L 618.53 409.99 L 620.00 416.66 L 621.47 417.33 L 622.94 423.66 L 624.42 431.85 L 625.89 447.43 L 627.36 455.64 L 628.83 462.32 L 630.31 454.70 L 631.78 449.71 L 633.25 449.08 L 634.72 446.50 L 636.19 441.80 L 637.67 438.70 L 639.14 435.62 L 640.61 431.06 L 642.08 426.43 L 643.56 418.30 L 645.03 422.22 L 646.50 411.63 L 647.97 408.77 L 649.44 417.46 L 650.92 415.66 L 652.39 412.91 L 653.86 416.53 L 655.33 417.97 L 656.81 416.20 L 658.28 412.37 L 659.75 411.32 L 661.22 413.33 L 662.69 415.24 L 664.17 415.45 L 665.64 411.49 L 667.11 413.74 L 668.58 423.32 L 670.06 424.61 L 671.53 425.75 L 673.00 425.84 L 674.47 425.86 L 675.94 421.48 L 677.42 411.72 L 678.89 417.41 L 680.36 424.20 L 681.83 424.17 L 683.31 418.10 L 684.78 421.93 L 686.25 423.84 L 687.72 426.41 L 689.19 424.86 L 690.67 424.26 L 692.14 426.18 L 693.61 425.44 L 695.08 424.60 L 696.56 419.21 L 698.03 427.31 L 699.50 427.61 L 700.97 425.68 L 702.44 423.48 L 703.92 421.50 L 705.39 415.86 L 706.86 422.62 L 708.33 430.79 L 709.81 434.09 L 711.28 429.93 L 712.75 426.67 L 714.22 430.43 L 715.69 427.18 L 717.17 427.03 L 718.64 425.39 L 720.11 427.11 L 721.58 437.22 L 723.06 430.30 L 724.53 434.31 L 726.00 432.65 L 727.47 430.50 L 728.94 430.98 L 730.42 426.82 L 731.89 426.82 L 733.36 429.00 L 734.83 431.84 L 736.31 435.80 L 737.78 440.84 L 739.25 439.24 L 740.72 420.34 L 742.19 426.53 L 743.67 432.33 L 745.14 435.04 L 746.61 437.65 L 748.08 444.34 L 749.56 432.60 L 751.03 440.58 L 752.50 435.02 L 753.97 436.45 L 755.44 433.81 L 756.92 434.81 L 758.39 444.16 L 759.86 439.78 L 761.33 440.60 L 762.81 439.48 L 764.28 436.41 L 765.75 437.15 L 767.22 436.66" stroke="#2E7D32" />
<path class="series" d="M 178.33 434.18 L 179.81 431.52 L 181.28 425.53 L 182.75 429.11 L 184.22 411.21 L 185.69 422.21 L 187.17 421.38 L 188.64 413.90 L 190.11 418.75 L 191.58 426.53 L 193.06 415.06 L 194.53 414.36 L 196.00 408.71 L 197.47 428.94 L 198.94 429.67 L 200.42 429.05 L 201.89 457.09 L 203.36 448.66 L 204.83 442.36 L 206.31 446.94 L 207.78 435.46 L 209.25 420.95 L 210.72 433.76 L 212.19 445.85 L 213.67 454.41 L 215.14 455.85 L 216.61 449.10 L 218.08 458.68 L 219.56 434.71 L 221.03 428.87 L 222.50 449.11 L 223.97 453.80 L 225.44 453.24 L 226.92 438.96 L 228.39 442.62 L 229.86 460.11 L 231.33 446.96 L 232.81 452.63 L 234.28 467.31 L 235.75 437.72 L 237.22 447.12 L 238.69 444.91 L 240.17 454.78 L 241.64 453.72 L 243.11 448.60 L 244.58 445.48 L 246.06 449.61 L 247.53 449.98 L 249.00 447.93 L 250.47 446.09 L 251.94 452.22 L 253.42 458.59 L 254.89 450.55 L 256.36 451.85 L 257.83 458.47 L 259.31 463.19 L 260.78 463.82 L 262.25 457.80 L 263.72 454.88 L 265.19 446.82 L 266.67 450.10 L 268.14 444.92 L 269.61 442.21 L 271.08 443.34 L 272.56 451.58 L 274.03 449.73 L 275.50 450.70 L 276.97 447.91 L 278.44 451.25 L 279.92 451.36 L 281.39 459.95 L 282.86 459.95 L 284.33 466.67 L 285.81 450.11 L 287.28 445.31 L 288.75 452.59 L 290.22 459.53 L 291.69 456.59 L 293.17 452.95 L 294.64 459.44 L 296.11 456.67 L 297.58 464.31 L 299.06 459.81 L 300.53 465.69 L 302.00 464.35 L 303.47 462.97 L 304.94 467.47 L 306.42 473.02 L 307.89 469.07 L 309.36 471.23 L 310.83 469.14 L 312.31 470.65 L 313.78 469.29 L 315.25 469.77 L 316.72 469.60 L 318.19 469.81 L 319.67 469.59 L 321.14 469.74 L 322.61 469.75 L 324.08 469.77 L 325.56 469.76 L 327.03 469.77 L 328.50 469.83 L 329.97 469.80 L 331.44 469.73 L 332.92 469.75 L 334.39 469.77 L 335.86 469.79 L 337.33 469.80 L 338.81 469.76 L 340.28 469.81 L 341.75 469.83 L 343.22 469.85 L 344.69 469.88 L 346.17 469.82 L 347.64 469.83 L 349.11 469.84 L 350.58 469.86 L 352.06 469.86 L 353.53 468.23 L 355.00 470.31 L 356.47 466.25 L 357.94 470.20 L 359.42 468.31 L 360.89 467.92 L 362.36 468.42 L 363.83 468.94 L 365.31 468.45 L 366.78 468.24 L 368.25 468.64 L 369.72 468.59 L 371.19 468.47 L 372.67 468.40 L 374.14 468.58 L 375.61 468.53 L 377.08 468.51 L 378.56 468.51 L 380.03 468.54 L 381.50 468.50 L 382.97 468.47 L 384.44 468.53 L 385.92 468.51 L 387.39 468.48 L 388.86 468.56 L 390.33 468.48 L 391.81 468.58 L 393.28 468.47 L 394.75 466.51 L 396.22 468.93 L 397.69 468.40 L 399.17 468.51 L 400.64 468.30 L 402.11 468.24 L 403.58 468.18 L 405.06 468.15 L 406.53 468.17 L 408.00 468.25 L 409.47 468.29 L 410.94 468.36 L 412.42 468.35 L 413.89 468.27 L 415.36 468.24 L 416.83 468.19 L 418.31 468.29 L 419.78 468.28 L 421.25 468.24 L 422.72 468.24 L 424.19 468.55 L 425.67 467.87 L 427.14 468.48 L 428.61 470.21 L 430.08 469.34 L 431.56 469.29 L 433.03 469.25 L 434.50 469.25 L 435.97 469.33 L 437.44 469.35 L 438.92 469.07 L 440.39 469.21 L 441.86 469.17 L 443.33 469.13 L 444.81 469.15 L 446.28 469.21 L 447.75 469.12 L 449.22 469.11 L 450.69 469.10 L 452.17 469.14 L 453.64 469.15 L 455.11 469.17 L 456.58 469.11 L 458.06 469.24 L 459.53 468.42 L 461.00 469.27 L 462.47 470.34 L 463.94 470.21 L 465.42 470.40 L 466.89 470.25 L 468.36 470.23 L 469.83 470.08 L 471.31 470.14 L 472.78 470.20 L 474.25 470.14 L 475.72 470.14 L 477.19 470.19 L 478.67 470.18 L 480.14 470.20 L 481.61 470.22 L 483.08 470.15 L 484.56 470.22 L 486.03 470.27 L 487.50 470.16 L 488.97 470.81 L 490.44 470.20 L 491.92 471.30 L 493.39 471.07 L 494.86 471.02 L 496.33 470.82 L 497.81 474.60 L 499.28 466.83 L 500.75 466.02 L 502.22 463.86 L 503.69 463.86 L 505.17 463.96 L 506.64 462.27 L 508.11 470.66 L 509.58 462.99 L 511.06 477.63 L 512.53 461.29 L 514.00 471.39 L 515.47 451.83 L 516.94 450.73 L 518.42 462.25 L 519.89 463.53 L 521.36 457.23 L 522.83 436.54 L 524.31 442.34 L 525.78 436.53 L 527.25 449.24 L 528.72 440.84 L 530.19 443.46 L 531.67 432.31 L 533.14 437.48 L 534.61 434.62 L 536.08 444.03 L 537.56 452.58 L 539.03 444.92 L 540.50 434.28 L 541.97 442.50 L 543.44 445.10 L 544.92 437.56 L 546.39 443.64 L 547.86 440.71 L 549.33 442.55 L 550.81 449.33 L 552.28 449.93 L 553.75 449.07 L 555.22 450.35 L 556.69 438.27 L 558.17 452.25 L 559.64 432.68 L 561.11 453.18 L 562.58 441.04 L 564.06 445.89 L 565.53 451.52 L 567.00 449.56 L 568.47 447.02 L 569.94 443.46 L 571.42 454.13 L 572.89 455.12 L 574.36 451.15 L 575.83 447.91 L 577.31 444.95 L 578.78 433.24 L 580.25 444.39 L 581.72 448.74 L 583.19 452.79 L 584.67 467.42 L 586.14 456.27 L 587.61 450.42 L 589.08 466.56 L 590.56 457.78 L 592.03 460.34 L 593.50 465.88 L 594.97 459.96 L 596.44 436.74 L 597.92 448.67 L 599.39 450.45 L 600.86 453.00 L 602.33 446.06 L 603.81 453.78 L 605.28 468.04 L 606.75 462.58 L 608.22 455.76 L 609.69 460.84 L 611.17 451.13 L 612.64 460.59 L 614.11 467.04 L 615.58 455.58 L 617.06 447.91 L 618.53 455.33 L 620.00 456.08 L 621.47 451.55 L 622.94 454.28 L 624.42 452.99 L 625.89 449.80 L 627.36 451.01 L 628.83 453.09 L 630.31 451.38 L 631.78 450.68 L 633.25 447.43 L 634.72 449.59 L 636.19 447.58 L 637.67 441.17 L 639.14 442.73 L 640.61 445.70 L 642.08 443.79 L 643.56 441.44 L 645.03 441.16 L 646.50 450.49 L 647.97 455.14 L 649.44 462.92 L 650.92 469.76 L 652.39 470.52 L 653.86 479.09 L 655.33 462.59 L 656.81 463.30 L 658.28 464.39 L 659.75 466.43 L 661.22 456.00 L 662.69 465.62 L 664.17 465.34 L 665.64 463.55 L 667.11 465.13 L 668.58 465.43 L 670.06 462.67 L 671.53 459.23 L 673.00 459.52 L 674.47 457.87 L 675.94 453.73 L 677.42 452.01 L 678.89 450.18 L 680.36 445.72 L 681.83 442.18 L 683.31 445.58 L 684.78 445.70 L 686.25 449.13 L 687.72 452.13 L 689.19 451.82 L 690.67 451.48 L 692.14 453.14 L 693.61 454.75 L 695.08 455.56 L 696.56 455.13 L 698.03 453.60 L 699.50 453.96 L 700.97 453.96 L 702.44 453.99 L 703.92 457.57 L 705.39 455.52 L 706.86 455.49 L 708.33 456.08 L 709.81 455.93 L 711.28 455.89 L 712.75 455.41 L 714.22 456.49 L 715.69 452.16 L 717.17 452.91 L 718.64 452.99 L 720.11 450.30 L 721.58 451.54 L 723.06 450.91 L 724.53 451.91 L 726.00 449.77 L 727.47 448.88 L 728.94 450.81 L 730.42 451.27 L 731.89 451.27 L 733.36 451.91 L 734.83 449.79 L 736.31 451.37 L 737.78 452.22 L 739.25 450.96 L 740.72 456.12 L 742.19 453.08 L 743.67 454.37 L 745.14 454.91 L 746.61 454.03 L 748.08 450.84 L 749.56 452.06 L 751.03 451.23 L 752.50 451.80 L 753.97 447.03 L 755.44 448.30 L 756.92 456.82 L 758.39 454.93 L 759.86 450.45 L 761.33 455.72 L 762.81 461.57 L 764.28 462.43 L 765.75 459.18 L 767.22 461.25" stroke="#6A1B9A" />
<line x1="900.00" y1="307.75" x2="918.00" y2="307.75" stroke="#2E7D32" stroke-width="3" />
<text class="small" x="924.00" y="311.75">pitch</text>
<line x1="900.00" y1="323.75" x2="918.00" y2="323.75" stroke="#6A1B9A" stroke-width="3" />
<text class="small" x="924.00" y="327.75">roll</text>
<text x="90" y="500.50" font-size="14" font-weight="700">Aceleração (magnitude) (u.a.)</text>
<rect class="event" x="443.33" y="506.50" width="58.89" height="192.75" />
<line class="eventline" x1="443.33" y1="506.50" x2="443.33" y2="699.25" />
<line class="eventline" x1="502.22" y1="506.50" x2="502.22" y2="699.25" />
<line class="grid" x1="90" y1="699.25" x2="1150" y2="699.25" />
<text class="small" x="80" y="703.25" text-anchor="end">0.00</text>
<line class="grid" x1="90" y1="660.70" x2="1150" y2="660.70" />
<text class="small" x="80" y="664.70" text-anchor="end">0.50</text>
<line class="grid" x1="90" y1="622.15" x2="1150" y2="622.15" />
<text class="small" x="80" y="626.15" text-anchor="end">1.00</text>
<line class="grid" x1="90" y1="583.60" x2="1150" y2="583.60" />
<text class="small" x="80" y="587.60" text-anchor="end">1.50</text>
<line class="grid" x1="90" y1="545.05" x2="1150" y2="545.05" />
<text class="small" x="80" y="549.05" text-anchor="end">2.00</text>
<line class="grid" x1="90" y1="506.50" x2="1150" y2="506.50" />
<text class="small" x="80" y="510.50" text-anchor="end">2.50</text>
<line class="grid" x1="90.00" y1="506.50" x2="90.00" y2="699.25" />
<line class="grid" x1="266.67" y1="506.50" x2="266.67" y2="699.25" />
<line class="grid" x1="443.33" y1="506.50" x2="443.33" y2="699.25" />
<line class="grid" x1="620.00" y1="506.50" x2="620.00" y2="699.25" />
<line class="grid" x1="796.67" y1="506.50" x2="796.67" y2="699.25" />
<line class="grid" x1="973.33" y1="506.50" x2="973.33" y2="699.25" />
<line class="grid" x1="1150.00" y1="506.50" x2="1150.00" y2="699.25" />
<line class="axis" x1="90" y1="506.50" x2="90" y2="699.25" />
<line class="axis" x1="90" y1="699.25" x2="1150" y2="699.25" />
<path class="series" d="M 178.33 676.25 L 179.81 677.70 L 181.28 666.80 L 182.75 653.28 L 184.22 647.45 L 185.69 683.11 L 187.17 669.05 L 188.64 657.64 L 190.11 656.45 L 191.58 666.68 L 193.06 674.20 L 194.53 660.92 L 196.00 616.66 L 197.47 675.79 L 198.94 675.43 L 200.42 610.27 L 201.89 631.43 L 203.36 645.29 L 204.83 664.51 L 206.31 653.52 L 207.78 690.99 L 209.25 627.08 L 210.72 651.76 L 212.19 648.28 L 213.67 684.87 L 215.14 654.66 L 216.61 638.74 L 218.08 670.66 L 219.56 652.35 L 221.03 649.43 L 222.50 690.06 L 223.97 657.31 L 225.44 671.82 L 226.92 661.52 L 228.39 680.61 L 229.86 675.40 L 231.33 648.20 L 232.81 648.97 L 234.28 651.26 L 235.75 648.37 L 237.22 650.57 L 238.69 652.60 L 240.17 655.33 L 241.64 678.99 L 243.11 673.74 L 244.58 665.32 L 246.06 684.64 L 247.53 663.97 L 249.00 665.37 L 250.47 669.70 L 251.94 652.30 L 253.42 651.04 L 254.89 678.92 L 256.36 632.60 L 257.83 629.69 L 259.31 657.84 L 260.78 604.96 L 262.25 630.87 L 263.72 630.87 L 265.19 612.64 L 266.67 625.89 L 268.14 634.52 L 269.61 632.44 L 271.08 660.56 L 272.56 632.19 L 274.03 675.56 L 275.50 684.11 L 276.97 692.78 L 278.44 678.37 L 279.92 684.83 L 281.39 685.06 L 282.86 676.14 L 284.33 675.67 L 285.81 671.52 L 287.28 659.87 L 288.75 656.70 L 290.22 675.61 L 291.69 660.08 L 293.17 673.26 L 294.64 667.87 L 296.11 664.91 L 297.58 684.78 L 299.06 675.18 L 300.53 684.02 L 302.00 689.86 L 303.47 695.77 L 304.94 679.69 L 306.42 691.22 L 307.89 682.20 L 309.36 678.77 L 310.83 688.62 L 312.31 691.95 L 313.78 696.41 L 315.25 698.09 L 316.72 698.81 L 318.19 698.43 L 319.67 698.68 L 321.14 698.61 L 322.61 698.84 L 324.08 698.67 L 325.56 698.70 L 327.03 698.83 L 328.50 699.09 L 329.97 699.11 L 331.44 699.18 L 332.92 699.13 L 334.39 699.14 L 335.86 699.16 L 337.33 699.05 L 338.81 699.10 L 340.28 699.01 L 341.75 699.05 L 343.22 699.04 L 344.69 699.13 L 346.17 699.11 L 347.64 699.12 L 349.11 699.11 L 350.58 699.02 L 352.06 699.10 L 353.53 696.38 L 355.00 691.51 L 356.47 686.76 L 357.94 694.32 L 359.42 697.46 L 360.89 697.35 L 362.36 698.79 L 363.83 697.91 L 365.31 698.89 L 366.78 698.71 L 368.25 698.79 L 369.72 698.94 L 371.19 698.79 L 372.67 699.11 L 374.14 698.96 L 375.61 699.06 L 377.08 698.96 L 378.56 699.14 L 380.03 699.04 L 381.50 699.09 L 382.97 699.20 L 384.44 699.09 L 385.92 699.12 L 387.39 699.07 L 388.86 699.10 L 390.33 699.10 L 391.81 698.16 L 393.28 698.04 L 394.75 693.28 L 396.22 691.24 L 397.69 697.01 L 399.17 698.54 L 400.64 698.61 L 402.11 699.10 L 403.58 698.90 L 405.06 698.85 L 406.53 698.94 L 408.00 699.09 L 409.47 698.87 L 410.94 699.22 L 412.42 699.19 L 413.89 699.05 L 415.36 699.13 L 416.83 699.13 L 418.31 699.07 L 419.78 699.07 L 421.25 699.08 L 422.72 699.17 L 424.19 696.72 L 425.67 697.89 L 427.14 694.83 L 428.61 698.03 L 430.08 697.69 L 431.56 698.65 L 433.03 698.51 L 434.50 699.05 L 435.97 698.16 L 437.44 698.13 L 438.92 698.67 L 440.39 699.15 L 441.86 698.82 L 443.33 699.09 L 444.81 699.10 L 446.28 699.04 L 447.75 698.75 L 449.22 699.10 L 450.69 699.00 L 452.17 699.21 L 453.64 699.01 L 455.11 698.95 L 456.58 699.17 L 458.06 696.78 L 459.53 692.95 L 461.00 697.64 L 462.47 696.90 L 463.94 697.70 L 465.42 698.87 L 466.89 698.90 L 468.36 698.89 L 469.83 698.75 L 471.31 698.78 L 472.78 698.85 L 474.25 698.95 L 475.72 698.99 L 477.19 698.99 L 478.67 698.89 L 480.14 699.02 L 481.61 698.94 L 483.08 698.99 L 484.56 698.95 L 486.03 699.12 L 487.50 698.28 L 488.97 697.89 L 490.44 697.17 L 491.92 696.84 L 493.39 698.02 L 494.86 698.59 L 496.33 696.76 L 497.81 683.03 L 499.28 689.65 L 500.75 697.17 L 502.22 678.36 L 503.69 696.47 L 505.17 664.28 L 506.64 678.17 L 508.11 688.79 L 509.58 662.18 L 511.06 662.87 L 512.53 681.97 L 514.00 683.93 L 515.47 683.93 L 516.94 609.14 L 518.42 650.26 L 519.89 626.66 L 521.36 640.89 L 522.83 664.56 L 524.31 694.41 L 525.78 661.77 L 527.25 691.48 L 528.72 675.18 L 530.19 657.03 L 531.67 680.48 L 533.14 659.28 L 534.61 687.31 L 536.08 684.75 L 537.56 676.22 L 539.03 668.66 L 540.50 686.84 L 541.97 681.53 L 543.44 664.82 L 544.92 665.12 L 546.39 687.11 L 547.86 659.49 L 549.33 667.02 L 550.81 687.56 L 552.28 658.10 L 553.75 673.51 L 555.22 655.26 L 556.69 671.51 L 558.17 673.69 L 559.64 665.03 L 561.11 649.09 L 562.58 656.29 L 564.06 686.74 L 565.53 669.38 L 567.00 670.97 L 568.47 679.05 L 569.94 664.60 L 571.42 674.06 L 572.89 694.24 L 574.36 685.71 L 575.83 685.32 L 577.31 672.96 L 578.78 666.50 L 580.25 634.42 L 581.72 667.79 L 583.19 664.00 L 584.67 667.29 L 586.14 657.46 L 587.61 649.73 L 589.08 675.70 L 590.56 665.90 L 592.03 677.69 L 593.50 673.62 L 594.97 688.65 L 596.44 651.83 L 597.92 667.99 L 599.39 690.75 L 600.86 688.04 L 602.33 655.78 L 603.81 642.58 L 605.28 660.03 L 606.75 671.21 L 608.22 621.13 L 609.69 619.57 L 611.17 685.94 L 612.64 665.91 L 614.11 660.24 L 615.58 655.14 L 617.06 637.08 L 618.53 669.27 L 620.00 621.22 L 621.47 646.44 L 622.94 677.56 L 624.42 695.40 L 625.89 640.69 L 627.36 657.84 L 628.83 635.77 L 630.31 683.26 L 631.78 686.26 L 633.25 684.16 L 634.72 691.47 L 636.19 686.24 L 637.67 682.24 L 639.14 689.23 L 640.61 689.65 L 642.08 685.46 L 643.56 685.46 L 645.03 686.22 L 646.50 675.82 L 647.97 685.10 L 649.44 663.81 L 650.92 687.89 L 652.39 685.48 L 653.86 671.42 L 655.33 689.44 L 656.81 680.56 L 658.28 684.23 L 659.75 694.51 L 661.22 688.00 L 662.69 673.84 L 664.17 692.70 L 665.64 676.94 L 667.11 678.27 L 668.58 673.51 L 670.06 665.85 L 671.53 693.80 L 673.00 687.23 L 674.47 689.20 L 675.94 689.73 L 677.42 674.30 L 678.89 678.54 L 680.36 683.47 L 681.83 680.15 L 683.31 683.94 L 684.78 694.59 L 686.25 693.68 L 687.72 689.78 L 689.19 690.35 L 690.67 693.18 L 692.14 692.17 L 693.61 694.32 L 695.08 694.20 L 696.56 687.48 L 698.03 690.20 L 699.50 691.79 L 700.97 694.13 L 702.44 689.69 L 703.92 687.77 L 705.39 675.67 L 706.86 682.72 L 708.33 684.47 L 709.81 686.62 L 711.28 684.54 L 712.75 697.93 L 714.22 689.55 L 715.69 690.03 L 717.17 687.06 L 718.64 677.58 L 720.11 686.11 L 721.58 685.77 L 723.06 689.15 L 724.53 692.43 L 726.00 687.78 L 727.47 689.10 L 728.94 694.33 L 730.42 690.15 L 731.89 685.80 L 733.36 694.17 L 734.83 690.77 L 736.31 685.64 L 737.78 682.12 L 739.25 649.19 L 740.72 667.22 L 742.19 687.41 L 743.67 696.29 L 745.14 691.47 L 746.61 682.09 L 748.08 687.99 L 749.56 686.85 L 751.03 682.72 L 752.50 679.83 L 753.97 674.83 L 755.44 682.96 L 756.92 684.63 L 758.39 683.70 L 759.86 691.65 L 761.33 687.15 L 762.81 688.06 L 764.28 687.36 L 765.75 691.71 L 767.22 683.50" stroke="#FB8C00" />
<text x="90" y="711.25" font-size="14" font-weight="700">Giroscópio (magnitude) (u.a.)</text>
<rect class="event" x="443.33" y="717.25" width="58.89" height="192.75" />
<line class="eventline" x1="443.33" y1="717.25" x2="443.33" y2="910.00" />
<line class="eventline" x1="502.22" y1="717.25" x2="502.22" y2="910.00" />
<line class="grid" x1="90" y1="910.00" x2="1150" y2="910.00" />
<text class="small" x="80" y="914.00" text-anchor="end">0.00</text>
<line class="grid" x1="90" y1="871.45" x2="1150" y2="871.45" />
<text class="small" x="80" y="875.45" text-anchor="end">0.10</text>
<line class="grid" x1="90" y1="832.90" x2="1150" y2="832.90" />
<text class="small" x="80" y="836.90" text-anchor="end">0.20</text>
<line class="grid" x1="90" y1="794.35" x2="1150" y2="794.35" />
<text class="small" x="80" y="798.35" text-anchor="end">0.30</text>
<line class="grid" x1="90" y1="755.80" x2="1150" y2="755.80" />
<text class="small" x="80" y="759.80" text-anchor="end">0.40</text>
<line class="grid" x1="90" y1="717.25" x2="1150" y2="717.25" />
<text class="small" x="80" y="721.25" text-anchor="end">0.50</text>
<line class="grid" x1="90.00" y1="717.25" x2="90.00" y2="910.00" />
<line class="grid" x1="266.67" y1="717.25" x2="266.67" y2="910.00" />
<line class="grid" x1="443.33" y1="717.25" x2="443.33" y2="910.00" />
<line class="grid" x1="620.00" y1="717.25" x2="620.00" y2="910.00" />
<line class="grid" x1="796.67" y1="717.25" x2="796.67" y2="910.00" />
<line class="grid" x1="973.33" y1="717.25" x2="973.33" y2="910.00" />
<line class="grid" x1="1150.00" y1="717.25" x2="1150.00" y2="910.00" />
<line class="axis" x1="90" y1="717.25" x2="90" y2="910.00" />
<line class="axis" x1="90" y1="910.00" x2="1150" y2="910.00" />
<path class="series" d="M 178.33 895.50 L 179.81 897.48 L 181.28 886.72 L 182.75 888.25 L 184.22 873.25 L 185.69 872.99 L 187.17 880.11 L 188.64 878.16 L 190.11 876.28 L 191.58 876.10 L 193.06 884.10 L 194.53 887.56 L 196.00 849.78 L 197.47 862.19 L 198.94 883.15 L 200.42 852.77 L 201.89 898.59 L 203.36 889.14 L 204.83 890.08 L 206.31 887.16 L 207.78 889.59 L 209.25 888.89 L 210.72 872.21 L 212.19 897.74 L 213.67 897.69 L 215.14 888.49 L 216.61 883.45 L 218.08 871.80 L 219.56 889.36 L 221.03 898.23 L 222.50 887.08 L 223.97 892.38 L 225.44 893.52 L 226.92 900.74 L 228.39 903.38 L 229.86 896.64 L 231.33 893.93 L 232.81 898.75 L 234.28 896.23 L 235.75 887.48 L 237.22 898.87 L 238.69 895.40 L 240.17 896.03 L 241.64 902.61 L 243.11 891.43 L 244.58 880.91 L 246.06 894.31 L 247.53 892.60 L 249.00 890.71 L 250.47 895.30 L 251.94 895.60 L 253.42 903.57 L 254.89 886.91 L 256.36 889.38 L 257.83 860.75 L 259.31 797.58 L 260.78 783.49 L 262.25 793.49 L 263.72 793.49 L 265.19 805.21 L 266.67 829.94 L 268.14 842.84 L 269.61 866.87 L 271.08 877.07 L 272.56 889.73 L 274.03 908.06 L 275.50 909.22 L 276.97 909.14 L 278.44 906.79 L 279.92 905.21 L 281.39 905.27 L 282.86 889.80 L 284.33 859.91 L 285.81 843.51 L 287.28 841.38 L 288.75 846.37 L 290.22 849.14 L 291.69 848.35 L 293.17 870.52 L 294.64 886.28 L 296.11 904.77 L 297.58 904.55 L 299.06 900.27 L 300.53 900.49 L 302.00 901.00 L 303.47 895.24 L 304.94 896.10 L 306.42 909.35 L 307.89 908.17 L 309.36 909.42 L 310.83 908.89 L 312.31 909.32 L 313.78 909.46 L 315.25 909.42 L 316.72 909.41 L 318.19 909.45 L 319.67 909.46 L 321.14 909.42 L 322.61 909.42 L 324.08 909.44 L 325.56 909.47 L 327.03 909.90 L 328.50 909.93 L 329.97 909.92 L 331.44 909.92 L 332.92 909.90 L 334.39 909.90 L 335.86 909.93 L 337.33 909.94 L 338.81 909.97 L 340.28 909.96 L 341.75 909.96 L 343.22 909.96 L 344.69 909.99 L 346.17 909.96 L 347.64 909.97 L 349.11 909.95 L 350.58 909.93 L 352.06 909.88 L 353.53 907.81 L 355.00 907.21 L 356.47 908.37 L 357.94 909.76 L 359.42 909.56 L 360.89 909.90 L 362.36 909.88 L 363.83 909.93 L 365.31 909.80 L 366.78 909.92 L 368.25 909.89 L 369.72 909.94 L 371.19 909.83 L 372.67 909.91 L 374.14 909.92 L 375.61 909.90 L 377.08 909.83 L 378.56 909.92 L 380.03 909.96 L 381.50 909.92 L 382.97 909.88 L 384.44 909.97 L 385.92 909.92 L 387.39 909.92 L 388.86 909.96 L 390.33 909.96 L 391.81 909.69 L 393.28 909.07 L 394.75 908.30 L 396.22 908.81 L 397.69 909.78 L 399.17 909.89 L 400.64 909.94 L 402.11 909.89 L 403.58 909.90 L 405.06 909.92 L 406.53 909.94 L 408.00 909.95 L 409.47 909.83 L 410.94 909.88 L 412.42 909.92 L 413.89 909.90 L 415.36 909.96 L 416.83 909.94 L 418.31 909.95 L 419.78 909.94 L 421.25 909.97 L 422.72 909.91 L 424.19 909.75 L 425.67 909.71 L 427.14 909.37 L 428.61 908.36 L 430.08 909.89 L 431.56 909.83 L 433.03 909.92 L 434.50 909.96 L 435.97 909.92 L 437.44 909.85 L 438.92 909.82 L 440.39 909.88 L 441.86 909.91 L 443.33 909.96 L 444.81 909.88 L 446.28 909.90 L 447.75 909.91 L 449.22 909.91 L 450.69 909.92 L 452.17 909.93 L 453.64 909.95 L 455.11 909.86 L 456.58 909.99 L 458.06 909.64 L 459.53 909.76 L 461.00 907.92 L 462.47 908.96 L 463.94 909.79 L 465.42 909.80 L 466.89 909.95 L 468.36 909.87 L 469.83 909.98 L 471.31 909.84 L 472.78 909.90 L 474.25 909.86 L 475.72 909.91 L 477.19 909.96 L 478.67 909.89 L 480.14 909.87 L 481.61 909.91 L 483.08 909.89 L 484.56 909.95 L 486.03 909.92 L 487.50 909.88 L 488.97 908.73 L 490.44 909.48 L 491.92 908.96 L 493.39 909.64 L 494.86 909.86 L 496.33 909.79 L 497.81 906.05 L 499.28 899.67 L 500.75 904.45 L 502.22 902.97 L 503.69 902.82 L 505.17 902.10 L 506.64 907.33 L 508.11 888.89 L 509.58 883.09 L 511.06 885.99 L 512.53 897.47 L 514.00 895.70 L 515.47 895.70 L 516.94 898.30 L 518.42 893.47 L 519.89 891.61 L 521.36 890.83 L 522.83 887.28 L 524.31 894.72 L 525.78 896.64 L 527.25 894.16 L 528.72 902.73 L 530.19 898.57 L 531.67 903.39 L 533.14 899.92 L 534.61 898.22 L 536.08 900.63 L 537.56 903.02 L 539.03 896.84 L 540.50 900.83 L 541.97 886.42 L 543.44 901.59 L 544.92 903.64 L 546.39 898.00 L 547.86 903.33 L 549.33 893.49 L 550.81 903.42 L 552.28 903.71 L 553.75 895.98 L 555.22 891.17 L 556.69 902.80 L 558.17 903.28 L 559.64 904.10 L 561.11 898.06 L 562.58 900.48 L 564.06 897.56 L 565.53 901.09 L 567.00 904.52 L 568.47 903.29 L 569.94 904.99 L 571.42 893.13 L 572.89 904.27 L 574.36 904.98 L 575.83 901.22 L 577.31 888.09 L 578.78 894.93 L 580.25 895.93 L 581.72 900.89 L 583.19 894.42 L 584.67 904.30 L 586.14 898.60 L 587.61 900.64 L 589.08 896.98 L 590.56 902.55 L 592.03 899.98 L 593.50 906.31 L 594.97 874.64 L 596.44 891.22 L 597.92 892.56 L 599.39 903.00 L 600.86 899.97 L 602.33 895.52 L 603.81 892.30 L 605.28 905.34 L 606.75 904.37 L 608.22 891.72 L 609.69 893.07 L 611.17 889.75 L 612.64 892.11 L 614.11 890.23 L 615.58 898.71 L 617.06 894.97 L 618.53 870.34 L 620.00 898.03 L 621.47 905.36 L 622.94 906.22 L 624.42 908.94 L 625.89 904.65 L 627.36 909.40 L 628.83 907.74 L 630.31 907.69 L 631.78 905.18 L 633.25 903.71 L 634.72 902.73 L 636.19 902.66 L 637.67 904.24 L 639.14 902.90 L 640.61 897.51 L 642.08 896.03 L 643.56 896.03 L 645.03 896.78 L 646.50 888.64 L 647.97 882.95 L 649.44 881.26 L 650.92 878.51 L 652.39 887.51 L 653.86 888.32 L 655.33 886.56 L 656.81 893.57 L 658.28 890.28 L 659.75 891.21 L 661.22 891.79 L 662.69 893.04 L 664.17 885.28 L 665.64 896.20 L 667.11 892.70 L 668.58 889.26 L 670.06 895.43 L 671.53 895.62 L 673.00 896.23 L 674.47 897.23 L 675.94 897.20 L 677.42 897.22 L 678.89 898.51 L 680.36 902.18 L 681.83 907.27 L 683.31 903.79 L 684.78 903.55 L 686.25 902.14 L 687.72 901.70 L 689.19 901.94 L 690.67 902.52 L 692.14 902.23 L 693.61 902.69 L 695.08 902.84 L 696.56 902.89 L 698.03 903.27 L 699.50 902.82 L 700.97 902.47 L 702.44 902.76 L 703.92 904.10 L 705.39 907.28 L 706.86 906.63 L 708.33 907.50 L 709.81 908.17 L 711.28 908.72 L 712.75 906.90 L 714.22 906.86 L 715.69 905.09 L 717.17 906.25 L 718.64 904.79 L 720.11 906.32 L 721.58 905.82 L 723.06 905.39 L 724.53 904.55 L 726.00 904.26 L 727.47 904.43 L 728.94 904.35 L 730.42 904.50 L 731.89 904.81 L 733.36 906.14 L 734.83 905.39 L 736.31 905.62 L 737.78 908.03 L 739.25 906.94 L 740.72 904.39 L 742.19 905.00 L 743.67 905.67 L 745.14 905.39 L 746.61 906.72 L 748.08 906.63 L 749.56 904.97 L 751.03 903.62 L 752.50 902.28 L 753.97 905.67 L 755.44 903.85 L 756.92 898.76 L 758.39 904.11 L 759.86 909.10 L 761.33 905.18 L 762.81 905.51 L 764.28 906.48 L 765.75 906.49 L 767.22 904.39" stroke="#E53935" />
<text x="620.00" y="952" font-size="15" text-anchor="middle">minutos (relativo ao início do evento)</text>
<text class="small" x="90.00" y="936" text-anchor="middle">-4.00</text>
<text class="small" x="266.67" y="936" text-anchor="middle">-2.00</text>
<text class="small" x="443.33" y="936" text-anchor="middle">0.00</text>
<text class="small" x="620.00" y="936" text-anchor="middle">2.00</text>
<text class="small" x="796.67" y="936" text-anchor="middle">4.00</text>
<text class="small" x="973.33" y="936" text-anchor="middle">6.00</text>
<text class="small" x="1150.00" y="936" text-anchor="middle">8.00</text>
</svg>