<?xml version="1.0" encoding="UTF-8"?>
<svg xmlns="http://www.w3.org/2000/svg" width="1180" height="980" viewBox="0 0 1180 980">
<style>
text { font-family: -apple-system, BlinkMacSystemFont, 'Segoe UI', Roboto, Helvetica, Arial, sans-serif; fill: #111; }
.small { font-size: 12px; fill: #222; }
.title { font-size: 18px; font-weight: 700; }
.axis { stroke: #111; stroke-width: 1.4; }
.grid { stroke: #E6E6E6; stroke-width: 1; }
.event { fill: #FFEB3B; fill-opacity: 0.18; }
.eventline { stroke: #F9A825; stroke-width: 1.2; stroke-dasharray: 4 3; }
.series { fill: none; stroke-width: 1.8; }
</style>
<text class="title" x="90" y="34">ciclo 3 — espera_basculamento — 2025-12-12T16:16:23-03:00 → 2025-12-12T16:17:03-03:00 (span 40s, dur 41s)</text>
<text class="small" x="90" y="54">GPS: -11.692660,-47.165403  hotspot: -11.693,-47.165</text>
<text class="small" x="90" y="70">Janela: -3.00 → 3.67 min (relativo ao início do evento)</text>
<text x="90" y="79.00" font-size="14" font-weight="700">Velocidade (km/h)</text>
<rect class="event" x="443.33" y="85.00" width="58.89" height="192.75" />
<line class="eventline" x1="443.33" y1="85.00" x2="443.33" y2="277.75" />
<line class="eventline" x1="502.22" y1="85.00" x2="502.22" y2="277.75" />
<line class="grid" x1="90" y1="277.75" x2="1150" y2="277.75" />
<text class="small" x="80" y="281.75" text-anchor="end">0.00</text>
<line class="grid" x1="90" y1="239.20" x2="1150" y2="239.20" />
<text class="small" x="80" y="243.20" text-anchor="end">10.0</text>
<line class="grid" x1="90" y1="200.65" x2="1150" y2="200.65" />
<text class="small" x="80" y="204.65" text-anchor="end">20.0</text>
<line class="grid" x1="90" y1="162.10" x2="1150" y2="162.10" />
<text class="small" x="80" y="166.10" text-anchor="end">30.0</text>
<line class="grid" x1="90" y1="123.55" x2="1150" y2="123.55" />
<text class="small" x="80" y="127.55" text-anchor="end">40.0</text>
<line class="grid" x1="90" y1="85.00" x2="1150" y2="85.00" />
<text class="small" x="80" y="89.00" text-anchor="end">50.0</text>
<line class="grid" x1="90.00" y1="85.00" x2="90.00" y2="277.75" />
<line class="grid" x1="266.67" y1="85.00" x2="266.67" y2="277.75" />
<line class="grid" x1="443.33" y1="85.00" x2="443.33" y2="277.75" />
<line class="grid" x1="620.00" y1="85.00" x2="620.00" y2="277.75" />
<line class="grid" x1="796.67" y1="85.00" x2="796.67" y2="277.75" />
<line class="grid" x1="973.33" y1="85.00" x2="973.33" y2="277.75" />
<line class="grid" x1="1150.00" y1="85.00" x2="1150.00" y2="277.75" />
<line class="axis" x1="90" y1="85.00" x2="90" y2="277.75" />
<line class="axis" x1="90" y1="277.75" x2="1150" y2="277.75" />
<path class="series" d="M 178.33 246.66 L 179.81 246.80 L 181.28 245.69 L 182.75 246.25 L 184.22 245.41 L 185.69 245.41 L 187.17 244.58 L 188.64 244.03 L 190.11 244.72 L 191.58 244.58 L 193.06 244.86 L 194.53 245.83 L 196.00 245.83 L 197.47 246.11 L 198.94 245.55 L 200.42 245.69 L 201.89 245.28 L 203.36 246.11 L 204.83 246.39 L 206.31 245.41 L 207.78 245.55 L 209.25 245.28 L 210.72 244.86 L 212.19 245.55 L 213.67 243.33 L 215.14 242.36 L 216.61 243.61 L 218.08 243.89 L 219.56 243.47 L 221.03 243.61 L 222.50 245.00 L 223.97 243.47 L 225.44 244.58 L 226.92 245.14 L 228.39 245.28 L 229.86 246.25 L 231.33 248.47 L 232.81 249.02 L 234.28 250.97 L 235.75 251.10 L 237.22 250.55 L 238.69 250.13 L 240.17 248.74 L 241.64 247.50 L 243.11 246.80 L 244.58 246.94 L 246.06 246.94 L 247.53 248.33 L 249.00 245.97 L 250.47 245.41 L 251.94 243.89 L 253.42 243.89 L 254.89 244.72 L 256.36 244.86 L 257.83 245.00 L 259.31 244.03 L 260.78 245.28 L 262.25 246.25 L 263.72 247.08 L 265.19 248.33 L 266.67 248.88 L 268.14 247.77 L 269.61 248.19 L 271.08 249.44 L 272.56 249.16 L 274.03 247.22 L 275.50 247.22 L 276.97 246.80 L 278.44 244.86 L 279.92 244.86 L 281.39 244.17 L 282.86 243.75 L 284.33 243.06 L 285.81 241.53 L 287.28 241.67 L 288.75 240.70 L 290.22 240.83 L 291.69 235.14 L 293.17 230.43 L 294.64 223.90 L 296.11 218.21 L 297.58 214.33 L 299.06 216.96 L 300.53 213.08 L 302.00 209.05 L 303.47 211.55 L 304.94 208.64 L 306.42 205.86 L 307.89 205.31 L 309.36 204.75 L 310.83 203.50 L 312.31 205.58 L 313.78 204.61 L 315.25 205.31 L 316.72 203.23 L 318.19 204.61 L 319.67 209.75 L 321.14 215.58 L 322.61 220.71 L 324.08 222.52 L 325.56 226.26 L 327.03 225.71 L 328.50 234.17 L 329.97 236.53 L 331.44 235.14 L 332.92 236.67 L 334.39 237.64 L 335.86 238.06 L 337.33 237.23 L 338.81 235.70 L 340.28 237.50 L 341.75 237.50 L 343.22 236.95 L 344.69 232.23 L 346.17 228.21 L 347.64 225.43 L 349.11 223.35 L 350.58 218.35 L 352.06 212.52 L 353.53 213.36 L 355.00 210.72 L 356.47 208.92 L 357.94 210.44 L 359.42 212.38 L 360.89 212.66 L 362.36 226.82 L 363.83 229.18 L 365.31 232.79 L 366.78 238.34 L 368.25 239.31 L 369.72 243.75 L 371.19 243.06 L 372.67 236.25 L 374.14 233.62 L 375.61 239.59 L 377.08 240.28 L 378.56 243.61 L 380.03 240.42 L 381.50 234.31 L 382.97 230.84 L 384.44 229.04 L 385.92 228.07 L 387.39 230.56 L 388.86 236.81 L 390.33 238.75 L 391.81 241.25 L 393.28 245.28 L 394.75 245.28 L 396.22 248.47 L 397.69 244.86 L 399.17 247.22 L 400.64 258.46 L 402.11 269.70 L 403.58 269.01 L 405.06 268.59 L 406.53 277.75 L 408.00 277.75 L 409.47 277.75 L 410.94 277.75 L 412.42 266.79 L 413.89 262.62 L 415.36 260.68 L 416.83 261.51 L 418.31 260.40 L 419.78 263.59 L 421.25 262.48 L 422.72 262.21 L 424.19 264.43 L 425.67 263.04 L 427.14 268.87 L 428.61 267.62 L 430.08 268.45 L 431.56 269.84 L 433.03 270.53 L 434.50 268.73 L 435.97 268.87 L 437.44 270.39 L 438.92 271.23 L 440.39 271.37 L 441.86 271.37 L 443.33 277.75 L 444.81 277.75 L 446.28 277.75 L 447.75 277.75 L 449.22 277.75 L 450.69 277.75 L 452.17 277.75 L 453.64 277.75 L 455.11 277.75 L 456.58 277.75 L 458.06 277.75 L 459.53 277.75 L 461.00 277.75 L 462.47 277.75 L 463.94 277.75 L 465.42 277.75 L 466.89 277.75 L 468.36 277.75 L 469.83 277.75 L 471.31 277.75 L 472.78 277.75 L 474.25 277.75 L 475.72 277.75 L 477.19 277.75 L 478.67 277.75 L 480.14 277.75 L 481.61 277.75 L 483.08 277.75 L 484.56 277.75 L 486.03 277.75 L 487.50 277.75 L 488.97 277.75 L 490.44 277.75 L 491.92 277.75 L 493.39 277.75 L 494.86 277.75 L 496.33 277.75 L 497.81 277.75 L 499.28 277.75 L 500.75 277.75 L 502.22 277.75 L 503.69 266.23 L 505.17 268.45 L 506.64 271.64 L 508.11 277.75 L 509.58 277.75 L 511.06 277.75 L 512.53 277.75 L 514.00 277.75 L 515.47 271.09 L 516.94 277.75 L 518.42 277.75 L 519.89 277.75 L 521.36 277.75 L 522.83 277.75 L 524.31 277.75 L 525.78 277.75 L 527.25 277.75 L 528.72 277.75 L 530.19 277.75 L 531.67 277.75 L 533.14 277.75 L 534.61 277.75 L 536.08 277.75 L 537.56 277.75 L 539.03 277.75 L 540.50 277.75 L 541.97 277.75 L 543.44 277.75 L 544.92 277.75 L 546.39 277.75 L 547.86 277.75 L 549.33 277.75 L 550.81 277.75 L 552.28 277.75 L 553.75 262.76 L 555.22 255.68 L 556.69 245.00 L 558.17 233.48 L 559.64 230.56 L 561.11 218.07 L 562.58 216.83 L 564.06 215.85 L 565.53 221.41 L 567.00 216.83 L 568.47 215.85 L 569.94 217.94 L 571.42 218.77 L 572.89 212.66 L 574.36 214.88 L 575.83 205.03 L 577.31 206.14 L 578.78 201.70 L 580.25 205.17 L 581.72 199.06 L 583.19 197.54 L 584.67 198.09 L 586.14 199.20 L 587.61 203.36 L 589.08 207.11 L 590.56 204.89 L 592.03 202.81 L 593.50 200.45 L 594.97 200.87 L 596.44 194.90 L 597.92 189.62 L 599.39 178.38 L 600.86 174.78 L 602.33 170.06 L 603.81 164.78 L 605.28 163.53 L 606.75 161.87 L 608.22 169.50 L 609.69 162.56 L 611.17 169.64 L 612.64 178.52 L 614.11 180.05 L 615.58 182.69 L 617.06 186.29 L 618.53 188.65 L 620.00 193.93 L 621.47 188.65 L 622.94 192.26 L 624.42 197.26 L 625.89 200.17 L 627.36 202.53 L 628.83 198.51 L 630.31 201.70 L 631.78 193.51 L 633.25 189.07 L 634.72 190.46 L 636.19 183.24 L 637.67 179.22 L 639.14 175.89 L 640.61 184.35 L 642.08 186.43 L 643.56 188.65 L 645.03 190.32 L 646.50 200.73 L 647.97 207.25 L 649.44 210.86 L 650.92 205.45 L 652.39 203.23 L 653.86 194.48 L 655.33 191.15 L 656.81 187.68 L 658.28 186.71 L 659.75 179.49 L 661.22 173.53 L 662.69 170.61 L 664.17 169.50 L 665.64 170.47 L 667.11 173.66 L 668.58 180.33 L 670.06 180.60 L 671.53 179.08 L 673.00 181.02 L 674.47 180.33 L 675.94 180.19 L 677.42 178.80 L 678.89 177.55 L 680.36 174.64 L 681.83 173.94 L 683.31 173.94 L 684.78 170.61 L 686.25 170.20 L 687.72 169.50 L 689.19 169.78 L 690.67 167.00 L 692.14 172.55 L 693.61 171.58 L 695.08 169.78 L 696.56 172.55 L 698.03 174.08 L 699.50 175.61 L 700.97 175.19 L 702.44 175.05 L 703.92 171.31 L 705.39 166.45 L 706.86 165.06 L 708.33 165.48 L 709.81 168.67 L 711.28 170.47 L 712.75 168.95 L 714.22 167.14 L 715.69 164.51 L 717.17 163.67 L 718.64 162.42 L 720.11 162.56 L 721.58 160.76 L 723.06 160.90 L 724.53 156.87 L 726.00 158.40 L 727.47 158.54 L 728.94 157.15 L 730.42 158.26 L 731.89 158.68 L 733.36 156.04 L 734.83 158.12 L 736.31 163.81 L 737.78 167.14 L 739.25 173.25 L 740.72 172.83 L 742.19 183.24 L 743.67 192.40 L 745.14 191.71 L 746.61 199.06 L 748.08 195.59 L 749.56 186.02 L 751.03 192.82 L 752.50 205.17 L 753.97 220.16 L 755.44 215.58 L 756.92 218.07 L 758.39 208.36 L 759.86 211.14 L 761.33 204.75 L 762.81 201.00 L 764.28 191.15 L 765.75 191.71 L 767.22 188.10" stroke="#1976D2" />
<text x="90" y="289.75" font-size="14" font-weight="700">Inclinação (graus)</text>
<rect class="event" x="443.33" y="295.75" width="58.89" height="192.75" />
<line class="eventline" x1="443.33" y1="295.75" x2="443.33" y2="488.50" />
<line class="eventline" x1="502.22" y1="295.75" x2="502.22" y2="488.50" />
<line class="grid" x1="90" y1="488.50" x2="1150" y2="488.50" />
<text class="small" x="80" y="492.50" text-anchor="end">-20.0</text>
<line class="grid" x1="90" y1="449.95" x2="1150" y2="449.95" />
<text class="small" x="80" y="453.95" text-anchor="end">-10.0</text>
<line class="grid" x1="90" y1="411.40" x2="1150" y2="411.40" />
<text class="small" x="80" y="415.40" text-anchor="end">0.00</text>
<line class="grid" x1="90" y1="372.85" x2="1150" y2="372.85" />
<text class="small" x="80" y="376.85" text-anchor="end">10.0</text>
<line class="grid" x1="90" y1="334.30" x2="1150" y2="334.30" />
<text class="small" x="80" y="338.30" text-anchor="end">20.0</text>
<line class="grid" x1="90" y1="295.75" x2="1150" y2="295.75" />
<text class="small" x="80" y="299.75" text-anchor="end">30.0</text>
<line class="grid" x1="90.00" y1="295.75" x2="90.00" y2="488.50" />
<line class="grid" x1="266.67" y1="295.75" x2="266.67" y2="488.50" />
<line class="grid" x1="443.33" y1="295.75" x2="443.33" y2="488.50" />
<line class="grid" x1="620.00" y1="295.75" x2="620.00" y2="488.50" />
<line class="grid" x1="796.67" y1="295.75" x2="796.67" y2="488.50" />
<line class="grid" x1="973.33" y1="295.75" x2="973.33" y2="488.50" />
<line class="grid" x1="1150.00" y1="295.75" x2="1150.00" y2="488.50" />
<line class="axis" x1="90" y1="295.75" x2="90" y2="488.50" />
<line class="axis" x1="90" y1="488.50" x2="1150" y2="488.50" />
<path class="series" d="M 178.33 393.51 L 179.81 392.94 L 181.28 394.12 L 182.75 392.17 L 184.22 392.43 L 185.69 391.92 L 187.17 392.41 L 188.64 393.38 L 190.11 389.53 L 191.58 392.56 L 193.06 390.40 L 194.53 391.14 L 196.00 392.23 L 197.47 393.33 L 198.94 392.85 L 200.42 393.81 L 201.89 393.35 L 203.36 393.85 L 204.83 393.57 L 206.31 393.61 L 207.78 393.04 L 209.25 392.72 L 210.72 391.39 L 212.19 390.88 L 213.67 389.13 L 215.14 385.57 L 216.61 383.39 L 218.08 386.77 L 219.56 386.91 L 221.03 387.64 L 222.50 389.28 L 223.97 388.84 L 225.44 390.26 L 226.92 391.76 L 228.39 393.87 L 229.86 395.00 L 231.33 397.26 L 232.81 397.36 L 234.28 398.56 L 235.75 395.32 L 237.22 396.47 L 238.69 395.27 L 240.17 394.13 L 241.64 394.58 L 243.11 394.03 L 244.58 394.32 L 246.06 392.91 L 247.53 392.16 L 249.00 391.45 L 250.47 390.93 L 251.94 388.61 L 253.42 387.16 L 254.89 386.82 L 256.36 387.38 L 257.83 389.77 L 259.31 391.05 L 260.78 392.79 L 262.25 392.86 L 263.72 394.97 L 265.19 392.86 L 266.67 394.64 L 268.14 395.61 L 269.61 395.72 L 271.08 393.64 L 272.56 397.92 L 274.03 391.13 L 275.50 391.42 L 276.97 388.37 L 278.44 390.09 L 279.92 389.13 L 281.39 387.41 L 282.86 386.55 L 284.33 379.72 L 285.81 375.34 L 287.28 375.07 L 288.75 368.76 L 290.22 376.39 L 291.69 378.16 L 293.17 378.48 L 294.64 372.92 L 296.11 367.35 L 297.58 365.86 L 299.06 373.09 L 300.53 373.94 L 302.00 371.33 L 303.47 376.96 L 304.94 376.08 L 306.42 375.20 L 307.89 375.74 L 309.36 375.30 L 310.83 373.17 L 312.31 372.89 L 313.78 368.78 L 315.25 373.53 L 316.72 376.06 L 318.19 379.14 L 319.67 371.38 L 321.14 378.86 L 322.61 383.33 L 324.08 381.36 L 325.56 379.38 L 327.03 379.48 L 328.50 384.54 L 329.97 387.92 L 331.44 386.74 L 332.92 387.10 L 334.39 387.30 L 335.86 385.96 L 337.33 387.32 L 338.81 381.54 L 340.28 383.99 L 341.75 377.07 L 343.22 381.73 L 344.69 375.24 L 346.17 373.63 L 347.64 370.08 L 349.11 370.08 L 350.58 375.39 L 352.06 371.05 L 353.53 364.32 L 355.00 367.52 L 356.47 355.07 L 357.94 365.65 L 359.42 356.07 L 360.89 359.33 L 362.36 362.43 L 363.83 365.97 L 365.31 365.09 L 366.78 368.92 L 368.25 369.71 L 369.72 369.86 L 371.19 376.82 L 372.67 379.54 L 374.14 373.39 L 375.61 358.99 L 377.08 367.00 L 378.56 374.91 L 380.03 372.59 L 381.50 378.13 L 382.97 369.70 L 384.44 366.03 L 385.92 363.07 L 387.39 355.44 L 388.86 349.98 L 390.33 356.15 L 391.81 352.01 L 393.28 355.60 L 394.75 363.08 L 396.22 361.90 L 397.69 358.95 L 399.17 354.03 L 400.64 350.48 L 402.11 354.71 L 403.58 373.45 L 405.06 364.21 L 406.53 356.41 L 408.00 367.51 L 409.47 352.91 L 410.94 368.17 L 412.42 364.99 L 413.89 367.69 L 415.36 365.74 L 416.83 366.90 L 418.31 371.60 L 419.78 370.64 L 421.25 369.75 L 422.72 372.86 L 424.19 376.76 L 425.67 373.08 L 427.14 379.71 L 428.61 372.60 L 430.08 377.74 L 431.56 372.86 L 433.03 368.52 L 434.50 368.08 L 435.97 371.57 L 437.44 367.64 L 438.92 366.56 L 440.39 364.15 L 441.86 366.46 L 443.33 369.61 L 444.81 363.89 L 446.28 363.23 L 447.75 364.71 L 449.22 361.82 L 450.69 362.01 L 452.17 362.22 L 453.64 362.18 L 455.11 362.13 L 456.58 362.68 L 458.06 362.19 L 459.53 362.09 L 461.00 362.02 L 462.47 362.02 L 463.94 362.14 L 465.42 362.17 L 466.89 362.69 L 468.36 362.50 L 469.83 362.45 L 471.31 361.50 L 472.78 362.65 L 474.25 362.46 L 475.72 362.52 L 477.19 362.40 L 478.67 363.13 L 480.14 363.15 L 481.61 363.22 L 483.08 363.30 L 484.56 363.35 L 486.03 363.81 L 487.50 363.45 L 488.97 364.88 L 490.44 365.00 L 491.92 364.80 L 493.39 366.10 L 494.86 365.68 L 496.33 365.93 L 497.81 365.91 L 499.28 366.24 L 500.75 371.43 L 502.22 381.22 L 503.69 370.39 L 505.17 365.47 L 506.64 377.85 L 508.11 367.49 L 509.58 375.50 L 511.06 381.39 L 512.53 382.78 L 514.00 371.08 L 515.47 365.73 L 516.94 377.11 L 518.42 377.54 L 519.89 377.91 L 521.36 377.64 L 522.83 377.54 L 524.31 377.48 L 525.78 377.33 L 527.25 377.21 L 528.72 377.05 L 530.19 377.08 L 531.67 376.81 L 533.14 376.90 L 534.61 377.67 L 536.08 375.89 L 537.56 376.72 L 539.03 376.75 L 540.50 376.68 L 541.97 376.71 L 543.44 376.76 L 544.92 376.69 L 546.39 376.79 L 547.86 376.74 L 549.33 379.75 L 550.81 386.20 L 552.28 390.94 L 553.75 386.40 L 555.22 397.90 L 556.69 384.96 L 558.17 379.70 L 559.64 386.02 L 561.11 372.80 L 562.58 368.97 L 564.06 368.15 L 565.53 377.71 L 567.00 365.24 L 568.47 366.59 L 569.94 367.22 L 571.42 366.73 L 572.89 369.45 L 574.36 378.37 L 575.83 365.29 L 577.31 360.02 L 578.78 358.00 L 580.25 369.55 L 581.72 375.22 L 583.19 373.69 L 584.67 373.69 L 586.14 368.46 L 587.61 367.76 L 589.08 362.98 L 590.56 368.02 L 592.03 370.85 L 593.50 371.10 L 594.97 368.99 L 596.44 367.73 L 597.92 361.81 L 599.39 356.99 L 600.86 354.25 L 602.33 358.27 L 603.81 353.51 L 605.28 355.92 L 606.75 347.24 L 608.22 359.40 L 609.69 360.20 L 611.17 355.95 L 612.64 357.79 L 614.11 357.19 L 615.58 362.50 L 617.06 354.30 L 618.53 359.46 L 620.00 352.70 L 621.47 374.37 L 622.94 369.85 L 624.42 362.20 L 625.89 365.02 L 627.36 364.47 L 628.83 358.77 L 630.31 361.22 L 631.78 366.48 L 633.25 357.34 L 634.72 353.42 L 636.19 354.26 L 637.67 349.90 L 639.14 340.02 L 640.61 344.69 L 642.08 343.44 L 643.56 343.34 L 645.03 333.29 L 646.50 327.98 L 647.97 334.45 L 649.44 339.91 L 650.92 348.53 L 652.39 354.83 L 653.86 358.99 L 655.33 357.31 L 656.81 359.00 L 658.28 354.45 L 659.75 354.24 L 661.22 350.72 L 662.69 350.02 L 664.17 341.08 L 665.64 341.99 L 667.11 341.42 L 668.58 342.42 L 670.06 346.64 L 671.53 342.82 L 673.00 339.24 L 674.47 352.83 L 675.94 343.72 L 677.42 352.74 L 678.89 343.17 L 680.36 342.38 L 681.83 343.54 L 683.31 346.63 L 684.78 353.37 L 686.25 342.37 L 687.72 348.97 L 689.19 346.23 L 690.67 342.05 L 692.14 344.69 L 693.61 346.53 L 695.08 344.11 L 696.56 345.39 L 698.03 346.15 L 699.50 347.66 L 700.97 346.78 L 702.44 344.43 L 703.92 349.25 L 705.39 347.52 L 706.86 345.37 L 708.33 344.84 L 709.81 344.08 L 711.28 344.59 L 712.75 355.75 L 714.22 350.11 L 715.69 348.96 L 717.17 353.19 L 718.64 345.45 L 720.11 351.23 L 721.58 345.36 L 723.06 343.41 L 724.53 342.85 L 726.00 342.61 L 727.47 343.99 L 728.94 340.87 L 730.42 341.83 L 731.89 342.47 L 733.36 340.88 L 734.83 338.71 L 736.31 336.57 L 737.78 338.49 L 739.25 339.50 L 740.72 340.04 L 742.19 342.05 L 743.67 356.99 L 745.14 353.43 L 746.61 355.04 L 748.08 349.29 L 749.56 353.94 L 751.03 341.72 L 752.50 345.88 L 753.97 349.94 L 755.44 363.84 L 756.92 360.52 L 758.39 368.61 L 759.86 373.38 L 761.33 373.42 L 762.81 378.36 L 764.28 378.24 L 765.75 381.73 L 767.22 379.35" stroke="#2E7D32" />
<path class="series" d="M 178.33 407.50 L 179.81 407.78 L 181.28 407.24 L 182.75 405.13 L 184.22 406.91 L 185.69 407.93 L 187.17 406.49 L 188.64 410.42 L 190.11 410.24 L 191.58 415.94 L 193.06 410.18 L 194.53 410.24 L 196.00 406.87 L 197.47 410.20 L 198.94 411.50 L 200.42 409.47 L 201.89 409.25 L 203.36 407.18 L 204.83 406.15 L 206.31 405.43 L 207.78 404.87 L 209.25 404.26 L 210.72 404.01 L 212.19 402.97 L 213.67 403.10 L 215.14 400.63 L 216.61 405.90 L 218.08 403.00 L 219.56 410.05 L 221.03 409.74 L 222.50 412.27 L 223.97 410.29 L 225.44 410.24 L 226.92 411.66 L 228.39 411.14 L 229.86 410.66 L 231.33 411.72 L 232.81 408.86 L 234.28 407.65 L 235.75 409.38 L 237.22 404.95 L 238.69 410.39 L 240.17 412.96 L 241.64 409.32 L 243.11 409.95 L 244.58 409.78 L 246.06 405.72 L 247.53 402.97 L 249.00 405.42 L 250.47 404.28 L 251.94 406.24 L 253.42 406.45 L 254.89 401.96 L 256.36 398.02 L 257.83 399.87 L 259.31 396.86 L 260.78 400.99 L 262.25 399.02 L 263.72 403.12 L 265.19 403.50 L 266.67 407.78 L 268.14 406.09 L 269.61 411.01 L 271.08 416.19 L 272.56 415.39 L 274.03 415.27 L 275.50 407.55 L 276.97 412.93 L 278.44 417.59 L 279.92 414.02 L 281.39 413.73 L 282.86 414.84 L 284.33 409.05 L 285.81 403.52 L 287.28 411.64 L 288.75 410.22 L 290.22 408.69 L 291.69 411.39 L 293.17 405.60 L 294.64 414.17 L 296.11 410.39 L 297.58 410.64 L 299.06 410.50 L 300.53 410.66 L 302.00 409.49 L 303.47 418.46 L 304.94 416.27 L 306.42 406.29 L 307.89 415.95 L 309.36 414.37 L 310.83 421.62 L 312.31 425.47 L 313.78 425.65 L 315.25 428.36 L 316.72 428.90 L 318.19 426.38 L 319.67 422.12 L 321.14 420.60 L 322.61 414.76 L 324.08 408.69 L 325.56 412.26 L 327.03 416.49 L 328.50 415.34 L 329.97 408.59 L 331.44 403.37 L 332.92 395.86 L 334.39 404.31 L 335.86 399.24 L 337.33 397.93 L 338.81 395.55 L 340.28 399.95 L 341.75 402.63 L 343.22 405.71 L 344.69 403.54 L 346.17 404.38 L 347.64 403.05 L 349.11 403.05 L 350.58 405.15 L 352.06 402.18 L 353.53 400.08 L 355.00 399.14 L 356.47 400.22 L 357.94 390.01 L 359.42 382.50 L 360.89 399.15 L 362.36 405.98 L 363.83 395.74 L 365.31 403.50 L 366.78 398.71 L 368.25 396.58 L 369.72 407.65 L 371.19 407.29 L 372.67 405.88 L 374.14 413.50 L 375.61 414.02 L 377.08 411.16 L 378.56 412.76 L 380.03 409.26 L 381.50 408.11 L 382.97 418.95 L 384.44 414.19 L 385.92 417.22 L 387.39 425.32 L 388.86 421.40 L 390.33 432.90 L 391.81 414.04 L 393.28 424.56 L 394.75 429.19 L 396.22 416.47 L 397.69 422.42 L 399.17 424.69 L 400.64 407.49 L 402.11 408.23 L 403.58 415.62 L 405.06 409.56 L 406.53 407.16 L 408.00 410.43 L 409.47 410.24 L 410.94 415.71 L 412.42 418.39 L 413.89 417.31 L 415.36 413.10 L 416.83 412.84 L 418.31 409.26 L 419.78 414.50 L 421.25 416.33 L 422.72 413.08 L 424.19 413.36 L 425.67 411.10 L 427.14 409.17 L 428.61 410.95 L 430.08 408.56 L 431.56 406.61 L 433.03 407.05 L 434.50 403.39 L 435.97 406.96 L 437.44 403.26 L 438.92 406.22 L 440.39 408.76 L 441.86 406.72 L 443.33 405.40 L 444.81 406.98 L 446.28 407.05 L 447.75 407.50 L 449.22 406.93 L 450.69 407.74 L 452.17 407.43 L 453.64 407.02 L 455.11 407.63 L 456.58 407.35 L 458.06 407.20 L 459.53 407.41 L 461.00 407.20 L 462.47 407.29 L 463.94 407.18 L 465.42 407.31 L 466.89 407.49 L 468.36 407.00 L 469.83 407.06 L 471.31 406.97 L 472.78 407.34 L 474.25 406.98 L 475.72 407.19 L 477.19 407.14 L 478.67 406.94 L 480.14 407.99 L 481.61 406.09 L 483.08 407.10 L 484.56 406.97 L 486.03 406.87 L 487.50 406.53 L 488.97 407.39 L 490.44 405.92 L 491.92 406.40 L 493.39 406.19 L 494.86 405.96 L 496.33 406.04 L 497.81 405.99 L 499.28 406.29 L 500.75 403.38 L 502.22 405.72 L 503.69 408.90 L 505.17 405.34 L 506.64 406.15 L 508.11 403.05 L 509.58 401.93 L 511.06 404.68 L 512.53 404.52 L 514.00 412.79 L 515.47 415.09 L 516.94 412.43 L 518.42 413.18 L 519.89 412.97 L 521.36 412.99 L 522.83 413.33 L 524.31 413.06 L 525.78 413.21 L 527.25 413.23 L 528.72 413.19 L 530.19 413.07 L 531.67 413.14 L 533.14 413.10 L 534.61 413.31 L 536.08 412.66 L 537.56 413.34 L 539.03 413.16 L 540.50 412.88 L 541.97 413.02 L 543.44 413.15 L 544.92 413.09 L 546.39 413.06 L 547.86 413.07 L 549.33 412.17 L 550.81 413.07 L 552.28 413.20 L 553.75 417.23 L 555.22 418.57 L 556.69 422.87 L 558.17 430.29 L 559.64 443.24 L 561.11 435.67 L 562.58 431.81 L 564.06 421.80 L 565.53 412.17 L 567.00 407.81 L 568.47 415.37 L 569.94 413.60 L 571.42 403.64 L 572.89 401.50 L 574.36 414.72 L 575.83 426.50 L 577.31 429.34 L 578.78 424.26 L 580.25 431.91 L 581.72 423.21 L 583.19 444.29 L 584.67 444.29 L 586.14 415.96 L 587.61 430.81 L 589.08 421.44 L 590.56 403.33 L 592.03 405.28 L 593.50 399.18 L 594.97 399.22 L 596.44 399.46 L 597.92 397.32 L 599.39 402.49 L 600.86 397.48 L 602.33 391.71 L 603.81 395.65 L 605.28 400.84 L 606.75 398.99 L 608.22 387.51 L 609.69 388.83 L 611.17 401.71 L 612.64 390.75 L 614.11 401.62 L 615.58 396.71 L 617.06 388.04 L 618.53 392.09 L 620.00 399.30 L 621.47 414.69 L 622.94 414.59 L 624.42 416.74 L 625.89 406.19 L 627.36 407.44 L 628.83 408.10 L 630.31 404.19 L 631.78 392.96 L 633.25 408.18 L 634.72 407.59 L 636.19 410.47 L 637.67 400.73 L 639.14 400.97 L 640.61 402.07 L 642.08 403.54 L 643.56 406.05 L 645.03 412.10 L 646.50 406.27 L 647.97 409.11 L 649.44 406.34 L 650.92 409.09 L 652.39 408.91 L 653.86 411.42 L 655.33 408.80 L 656.81 416.76 L 658.28 416.07 L 659.75 411.22 L 661.22 415.73 L 662.69 406.40 L 664.17 408.37 L 665.64 414.40 L 667.11 417.79 L 668.58 411.15 L 670.06 413.85 L 671.53 414.10 L 673.00 421.44 L 674.47 416.64 L 675.94 419.19 L 677.42 417.85 L 678.89 419.11 L 680.36 408.85 L 681.83 394.93 L 683.31 409.45 L 684.78 410.56 L 686.25 404.19 L 687.72 404.60 L 689.19 406.79 L 690.67 404.51 L 692.14 406.37 L 693.61 415.39 L 695.08 411.75 L 696.56 418.30 L 698.03 418.49 L 699.50 419.58 L 700.97 413.03 L 702.44 414.37 L 703.92 416.15 L 705.39 408.57 L 706.86 405.43 L 708.33 403.01 L 709.81 409.01 L 711.28 409.11 L 712.75 407.92 L 714.22 405.61 L 715.69 406.62 L 717.17 408.40 L 718.64 406.38 L 720.11 404.31 L 721.58 406.63 L 723.06 403.97 L 724.53 402.52 L 726.00 404.62 L 727.47 406.07 L 728.94 403.08 L 730.42 406.93 L 731.89 411.76 L 733.36 415.65 L 734.83 418.82 L 736.31 417.10 L 737.78 422.72 L 739.25 425.93 L 740.72 436.17 L 742.19 434.81 L 743.67 422.49 L 745.14 427.61 L 746.61 431.50 L 748.08 429.05 L 749.56 428.09 L 751.03 422.77 L 752.50 381.18 L 753.97 387.64 L 755.44 377.36 L 756.92 381.26 L 758.39 383.06 L 759.86 390.08 L 761.33 396.07 L 762.81 397.40 L 764.28 405.84 L 765.75 408.73 L 767.22 414.81" stroke="#6A1B9A" />
<line x1="900.00" y1="307.75" x2="918.00" y2="307.75" stroke="#2E7D32" stroke-width="3" />
<text class="small" x="924.00" y="311.75">pitch</text>
<line x1="900.00" y1="323.75" x2="918.00" y2="323.75" stroke="#6A1B9A" stroke-width="3" />
<text class="small" x="924.00" y="327.75">roll</text>
<text x="90" y="500.50" font-size="14" font-weight="700">Aceleração (magnitude) (u.a.)</text>
<rect class="event" x="443.33" y="506.50" width="58.89" height="192.75" />
<line class="eventline" x1="443.33" y1="506.50" x2="443.33" y2="699.25" />
<line class="eventline" x1="502.22" y1="506.50" x2="502.22" y2="699.25" />
<line class="grid" x1="90" y1="699.25" x2="1150" y2="699.25" />
<text class="small" x="80" y="703.25" text-anchor="end">0.00</text>
<line class="grid" x1="90" y1="660.70" x2="1150" y2="660.70" />
<text class="small" x="80" y="664.70" text-anchor="end">0.50</text>
<line class="grid" x1="90" y1="622.15" x2="1150" y2="622.15" />
<text class="small" x="80" y="626.15" text-anchor="end">1.00</text>
<line class="grid" x1="90" y1="583.60" x2="1150" y2="583.60" />
<text class="small" x="80" y="587.60" text-anchor="end">1.50</text>
<line class="grid" x1="90" y1="545.05" x2="1150" y2="545.05" />
<text class="small" x="80" y="549.05" text-anchor="end">2.00</text>
<line class="grid" x1="90" y1="506.50" x2="1150" y2="506.50" />
<text class="small" x="80" y="510.50" text-anchor="end">2.50</text>
<line class="grid" x1="90.00" y1="506.50" x2="90.00" y2="699.25" />
<line class="grid" x1="266.67" y1="506.50" x2="266.67" y2="699.25" />
<line class="grid" x1="443.33" y1="506.50" x2="443.33" y2="699.25" />
<line class="grid" x1="620.00" y1="506.50" x2="620.00" y2="699.25" />
<line class="grid" x1="796.67" y1="506.50" x2="796.67" y2="699.25" />
<line class="grid" x1="973.33" y1="506.50" x2="973.33" y2="699.25" />
<line class="grid" x1="1150.00" y1="506.50" x2="1150.00" y2="699.25" />
<line class="axis" x1="90" y1="506.50" x2="90" y2="699.25" />
<line class="axis" x1="90" y1="699.25" x2="1150" y2="699.25" />
<path class="series" d="M 178.33 693.31 L 179.81 693.95 L 181.28 696.31 L 182.75 690.71 L 184.22 692.85 L 185.69 694.04 L 187.17 690.06 L 188.64 690.60 L 190.11 682.36 L 191.58 689.89 L 193.06 685.28 L 194.53 693.76 L 196.00 690.58 L 197.47 692.84 L 198.94 691.21 L 200.42 694.25 L 201.89 692.17 L 203.36 691.77 L 204.83 695.93 L 206.31 695.49 L 207.78 695.54 L 209.25 694.82 L 210.72 692.22 L 212.19 692.88 L 213.67 694.40 L 215.14 690.59 L 216.61 689.92 L 218.08 692.11 L 219.56 690.06 L 221.03 693.26 L 222.50 688.08 L 223.97 692.28 L 225.44 691.84 L 226.92 690.85 L 228.39 694.33 L 229.86 687.51 L 231.33 687.21 L 232.81 687.32 L 234.28 681.11 L 235.75 684.10 L 237.22 686.58 L 238.69 696.65 L 240.17 690.71 L 241.64 695.94 L 243.11 693.71 L 244.58 692.72 L 246.06 696.32 L 247.53 690.78 L 249.00 691.96 L 250.47 690.80 L 251.94 692.27 L 253.42 685.37 L 254.89 689.42 L 256.36 685.06 L 257.83 688.90 L 259.31 688.34 L 260.78 688.93 L 262.25 691.16 L 263.72 692.21 L 265.19 691.00 L 266.67 692.27 L 268.14 692.60 L 269.61 685.16 L 271.08 679.67 L 272.56 687.96 L 274.03 685.05 L 275.50 670.99 L 276.97 682.78 L 278.44 674.88 L 279.92 691.33 L 281.39 691.33 L 282.86 688.51 L 284.33 680.21 L 285.81 689.04 L 287.28 691.99 L 288.75 688.33 L 290.22 690.22 L 291.69 668.98 L 293.17 674.50 L 294.64 677.86 L 296.11 650.37 L 297.58 636.33 L 299.06 678.23 L 300.53 653.20 L 302.00 678.20 L 303.47 685.70 L 304.94 669.19 L 306.42 664.57 L 307.89 658.53 L 309.36 670.21 L 310.83 634.66 L 312.31 656.96 L 313.78 642.40 L 315.25 678.66 L 316.72 666.51 L 318.19 658.96 L 319.67 653.64 L 321.14 658.83 L 322.61 669.48 L 324.08 665.81 L 325.56 677.18 L 327.03 682.81 L 328.50 662.84 L 329.97 680.07 L 331.44 679.80 L 332.92 694.19 L 334.39 688.36 L 335.86 694.77 L 337.33 685.61 L 338.81 687.98 L 340.28 681.71 L 341.75 678.54 L 343.22 677.84 L 344.69 680.85 L 346.17 684.50 L 347.64 685.95 L 349.11 672.76 L 350.58 678.41 L 352.06 668.42 L 353.53 667.52 L 355.00 665.61 L 356.47 635.08 L 357.94 601.07 L 359.42 609.03 L 360.89 644.39 L 362.36 662.98 L 363.83 679.28 L 365.31 671.44 L 366.78 658.91 L 368.25 669.75 L 369.72 679.28 L 371.19 663.75 L 372.67 687.12 L 374.14 647.94 L 375.61 671.17 L 377.08 675.11 L 378.56 687.34 L 380.03 670.35 L 381.50 670.63 L 382.97 676.78 L 384.44 667.93 L 385.92 661.14 L 387.39 650.83 L 388.86 671.87 L 390.33 666.84 L 391.81 671.47 L 393.28 683.57 L 394.75 674.93 L 396.22 682.40 L 397.69 653.09 L 399.17 647.47 L 400.64 640.90 L 402.11 678.21 L 403.58 684.63 L 405.06 659.45 L 406.53 671.46 L 408.00 673.72 L 409.47 678.91 L 410.94 678.91 L 412.42 687.30 L 413.89 685.76 L 415.36 688.20 L 416.83 694.11 L 418.31 693.26 L 419.78 694.08 L 421.25 693.28 L 422.72 696.61 L 424.19 692.76 L 425.67 678.55 L 427.14 689.45 L 428.61 681.35 L 430.08 691.87 L 431.56 689.97 L 433.03 690.54 L 434.50 694.68 L 435.97 693.43 L 437.44 694.55 L 438.92 696.16 L 440.39 694.90 L 441.86 695.79 L 443.33 692.98 L 444.81 690.80 L 446.28 695.73 L 447.75 697.10 L 449.22 693.65 L 450.69 698.94 L 452.17 697.09 L 453.64 697.54 L 455.11 698.41 L 456.58 698.70 L 458.06 698.47 L 459.53 697.23 L 461.00 698.62 L 462.47 698.31 L 463.94 698.54 L 465.42 698.26 L 466.89 696.63 L 468.36 695.70 L 469.83 696.73 L 471.31 696.38 L 472.78 698.27 L 474.25 697.98 L 475.72 698.45 L 477.19 697.90 L 478.67 697.71 L 480.14 696.49 L 481.61 694.29 L 483.08 698.62 L 484.56 698.34 L 486.03 698.27 L 487.50 694.90 L 488.97 697.05 L 490.44 691.59 L 491.92 698.06 L 493.39 685.20 L 494.86 696.73 L 496.33 698.48 L 497.81 698.33 L 499.28 698.89 L 500.75 677.73 L 502.22 671.54 L 503.69 683.25 L 505.17 690.72 L 506.64 680.33 L 508.11 676.62 L 509.58 689.93 L 511.06 693.10 L 512.53 679.06 L 514.00 656.09 L 515.47 653.41 L 516.94 687.50 L 518.42 694.76 L 519.89 696.62 L 521.36 697.69 L 522.83 697.31 L 524.31 697.66 L 525.78 697.50 L 527.25 696.32 L 528.72 697.80 L 530.19 698.33 L 531.67 698.06 L 533.14 696.25 L 534.61 697.05 L 536.08 697.43 L 537.56 697.48 L 539.03 698.45 L 540.50 698.45 L 541.97 698.45 L 543.44 698.36 L 544.92 698.29 L 546.39 698.47 L 547.86 698.39 L 549.33 698.36 L 550.81 684.58 L 552.28 690.53 L 553.75 687.33 L 555.22 690.51 L 556.69 660.35 L 558.17 682.01 L 559.64 619.66 L 561.11 620.63 L 562.58 615.16 L 564.06 622.19 L 565.53 641.38 L 567.00 671.50 L 568.47 655.25 L 569.94 670.56 L 571.42 661.35 L 572.89 682.97 L 574.36 667.32 L 575.83 669.52 L 577.31 652.03 L 578.78 661.55 L 580.25 664.74 L 581.72 660.00 L 583.19 652.06 L 584.67 640.88 L 586.14 642.31 L 587.61 639.65 L 589.08 613.63 L 590.56 646.91 L 592.03 645.42 L 593.50 634.95 L 594.97 641.96 L 596.44 655.41 L 597.92 645.05 L 599.39 667.29 L 600.86 660.12 L 602.33 658.57 L 603.81 660.17 L 605.28 662.95 L 606.75 647.53 L 608.22 629.74 L 609.69 653.26 L 611.17 636.07 L 612.64 656.43 L 614.11 663.97 L 615.58 664.17 L 617.06 655.92 L 618.53 659.15 L 620.00 676.95 L 621.47 649.69 L 622.94 657.68 L 624.42 669.11 L 625.89 660.22 L 627.36 677.03 L 628.83 682.57 L 630.31 659.93 L 631.78 679.25 L 633.25 687.30 L 634.72 682.79 L 636.19 672.65 L 637.67 685.11 L 639.14 660.75 L 640.61 677.55 L 642.08 676.50 L 643.56 683.09 L 645.03 636.75 L 646.50 678.59 L 647.97 676.66 L 649.44 651.82 L 650.92 677.67 L 652.39 664.54 L 653.86 683.88 L 655.33 685.18 L 656.81 687.38 L 658.28 688.12 L 659.75 688.99 L 661.22 678.78 L 662.69 665.98 L 664.17 655.96 L 665.64 671.95 L 667.11 678.51 L 668.58 675.10 L 670.06 676.55 L 671.53 676.55 L 673.00 663.05 L 674.47 669.33 L 675.94 677.69 L 677.42 681.47 L 678.89 681.53 L 680.36 679.96 L 681.83 667.39 L 683.31 670.20 L 684.78 676.70 L 686.25 681.90 L 687.72 680.58 L 689.19 687.88 L 690.67 677.60 L 692.14 684.37 L 693.61 680.68 L 695.08 683.95 L 696.56 688.05 L 698.03 683.86 L 699.50 683.38 L 700.97 675.60 L 702.44 689.14 L 703.92 681.42 L 705.39 677.17 L 706.86 673.14 L 708.33 676.55 L 709.81 678.50 L 711.28 679.25 L 712.75 667.09 L 714.22 683.07 L 715.69 681.06 L 717.17 688.01 L 718.64 672.52 L 720.11 679.69 L 721.58 684.31 L 723.06 686.52 L 724.53 691.33 L 726.00 686.29 L 727.47 684.93 L 728.94 687.16 L 730.42 688.98 L 731.89 677.48 L 733.36 675.38 L 734.83 665.21 L 736.31 668.86 L 737.78 675.85 L 739.25 638.59 L 740.72 641.98 L 742.19 638.81 L 743.67 685.22 L 745.14 650.78 L 746.61 678.38 L 748.08 680.28 L 749.56 648.86 L 751.03 620.23 L 752.50 568.40 L 753.97 608.53 L 755.44 597.10 L 756.92 619.19 L 758.39 643.12 L 759.86 654.19 L 761.33 689.84 L 762.81 683.37 L 764.28 662.88 L 765.75 649.18 L 767.22 640.79" stroke="#FB8C00" />
<text x="90" y="711.25" font-size="14" font-weight="700">Giroscópio (magnitude) (u.a.)</text>
<rect class="event" x="443.33" y="717.25" width="58.89" height="192.75" />
<line class="eventline" x1="443.33" y1="717.25" x2="443.33" y2="910.00" />
<line class="eventline" x1="502.22" y1="717.25" x2="502.22" y2="910.00" />
<line class="grid" x1="90" y1="910.00" x2="1150" y2="910.00" />
<text class="small" x="80" y="914.00" text-anchor="end">0.00</text>
<line class="grid" x1="90" y1="871.45" x2="1150" y2="871.45" />
<text class="small" x="80" y="875.45" text-anchor="end">0.10</text>
<line class="grid" x1="90" y1="832.90" x2="1150" y2="832.90" />
<text class="small" x="80" y="836.90" text-anchor="end">0.20</text>
<line class="grid" x1="90" y1="794.35" x2="1150" y2="794.35" />
<text class="small" x="80" y="798.35" text-anchor="end">0.30</text>
<line class="grid" x1="90" y1="755.80" x2="1150" y2="755.80" />
<text class="small" x="80" y="759.80" text-anchor="end">0.40</text>
<line class="grid" x1="90" y1="717.25" x2="1150" y2="717.25" />
<text class="small" x="80" y="721.25" text-anchor="end">0.50</text>
<line class="grid" x1="90.00" y1="717.25" x2="90.00" y2="910.00" />
<line class="grid" x1="266.67" y1="717.25" x2="266.67" y2="910.00" />
<line class="grid" x1="443.33" y1="717.25" x2="443.33" y2="910.00" />
<line class="grid" x1="620.00" y1="717.25" x2="620.00" y2="910.00" />
<line class="grid" x1="796.67" y1="717.25" x2="796.67" y2="910.00" />
<line class="grid" x1="973.33" y1="717.25" x2="973.33" y2="910.00" />
<line class="grid" x1="1150.00" y1="717.25" x2="1150.00" y2="910.00" />
<line class="axis" x1="90" y1="717.25" x2="90" y2="910.00" />
<line class="axis" x1="90" y1="910.00" x2="1150" y2="910.00" />
<path class="series" d="M 178.33 909.24 L 179.81 908.56 L 181.28 908.25 L 182.75 908.35 L 184.22 905.96 L 185.69 907.28 L 187.17 905.16 L 188.64 906.29 L 190.11 903.43 L 191.58 903.99 L 193.06 904.51 L 194.53 906.20 L 196.00 907.52 L 197.47 905.87 L 198.94 907.55 L 200.42 907.13 L 201.89 906.93 L 203.36 906.94 L 204.83 908.47 L 206.31 907.91 L 207.78 908.54 L 209.25 908.56 L 210.72 907.79 L 212.19 907.88 L 213.67 906.41 L 215.14 905.84 L 216.61 906.58 L 218.08 902.65 L 219.56 904.03 L 221.03 907.06 L 222.50 907.75 L 223.97 906.44 L 225.44 906.56 L 226.92 906.53 L 228.39 905.83 L 229.86 904.47 L 231.33 905.27 L 232.81 907.94 L 234.28 906.55 L 235.75 907.83 L 237.22 905.22 L 238.69 905.78 L 240.17 908.01 L 241.64 907.95 L 243.11 907.15 L 244.58 902.85 L 246.06 901.49 L 247.53 900.52 L 249.00 898.89 L 250.47 899.74 L 251.94 899.48 L 253.42 898.07 L 254.89 898.29 L 256.36 901.64 L 257.83 904.22 L 259.31 905.79 L 260.78 906.54 L 262.25 905.63 L 263.72 907.10 L 265.19 905.26 L 266.67 907.26 L 268.14 902.46 L 269.61 903.52 L 271.08 908.67 L 272.56 903.24 L 274.03 902.07 L 275.50 904.40 L 276.97 902.06 L 278.44 897.61 L 279.92 900.51 L 281.39 900.51 L 282.86 896.23 L 284.33 896.70 L 285.81 901.18 L 287.28 904.87 L 288.75 902.58 L 290.22 904.76 L 291.69 905.00 L 293.17 899.97 L 294.64 897.84 L 296.11 895.52 L 297.58 899.46 L 299.06 897.53 L 300.53 906.83 L 302.00 903.23 L 303.47 901.23 L 304.94 889.96 L 306.42 889.73 L 307.89 887.43 L 309.36 884.79 L 310.83 885.06 L 312.31 872.26 L 313.78 870.12 L 315.25 866.42 L 316.72 869.19 L 318.19 864.56 L 319.67 876.08 L 321.14 872.92 L 322.61 886.77 L 324.08 885.56 L 325.56 887.67 L 327.03 881.55 L 328.50 885.77 L 329.97 889.83 L 331.44 888.88 L 332.92 890.40 L 334.39 882.96 L 335.86 887.60 L 337.33 891.22 L 338.81 890.58 L 340.28 885.03 L 341.75 886.82 L 343.22 885.96 L 344.69 891.78 L 346.17 887.10 L 347.64 892.87 L 349.11 897.51 L 350.58 904.63 L 352.06 901.61 L 353.53 901.93 L 355.00 890.89 L 356.47 870.80 L 357.94 869.05 L 359.42 857.82 L 360.89 859.54 L 362.36 859.28 L 363.83 865.70 L 365.31 868.10 L 366.78 867.31 L 368.25 870.79 L 369.72 878.54 L 371.19 882.04 L 372.67 887.06 L 374.14 892.22 L 375.61 898.12 L 377.08 896.92 L 378.56 896.58 L 380.03 897.27 L 381.50 904.87 L 382.97 906.36 L 384.44 906.16 L 385.92 892.47 L 387.39 875.80 L 388.86 869.77 L 390.33 851.99 L 391.81 853.99 L 393.28 850.18 L 394.75 843.41 L 396.22 857.40 L 397.69 851.30 L 399.17 853.18 L 400.64 880.40 L 402.11 894.19 L 403.58 888.32 L 405.06 901.23 L 406.53 906.89 L 408.00 905.07 L 409.47 904.92 L 410.94 904.92 L 412.42 901.80 L 413.89 888.56 L 415.36 879.84 L 416.83 878.02 L 418.31 880.11 L 419.78 884.65 L 421.25 882.01 L 422.72 876.94 L 424.19 880.05 L 425.67 882.44 L 427.14 890.55 L 428.61 900.04 L 430.08 898.87 L 431.56 899.63 L 433.03 902.98 L 434.50 902.71 L 435.97 903.63 L 437.44 901.45 L 438.92 904.11 L 440.39 903.59 L 441.86 906.00 L 443.33 907.23 L 444.81 909.50 L 446.28 909.24 L 447.75 908.49 L 449.22 908.95 L 450.69 909.10 L 452.17 909.30 L 453.64 909.16 L 455.11 909.16 L 456.58 909.25 L 458.06 909.44 L 459.53 909.41 L 461.00 909.29 L 462.47 909.20 L 463.94 909.19 L 465.42 909.11 L 466.89 909.09 L 468.36 909.06 L 469.83 909.24 L 471.31 909.19 L 472.78 909.34 L 474.25 909.32 L 475.72 909.17 L 477.19 909.10 L 478.67 908.73 L 480.14 908.99 L 481.61 909.28 L 483.08 909.06 L 484.56 908.92 L 486.03 908.86 L 487.50 908.43 L 488.97 908.29 L 490.44 908.96 L 491.92 909.23 L 493.39 907.96 L 494.86 909.14 L 496.33 909.11 L 497.81 909.17 L 499.28 909.01 L 500.75 905.72 L 502.22 902.93 L 503.69 902.60 L 505.17 904.52 L 506.64 903.94 L 508.11 906.53 L 509.58 905.33 L 511.06 903.14 L 512.53 897.97 L 514.00 901.49 L 515.47 905.14 L 516.94 907.10 L 518.42 909.49 L 519.89 909.20 L 521.36 909.24 L 522.83 909.20 L 524.31 909.30 L 525.78 909.16 L 527.25 909.34 L 528.72 909.21 L 530.19 909.18 L 531.67 909.28 L 533.14 909.40 L 534.61 909.40 L 536.08 908.96 L 537.56 909.19 L 539.03 909.11 L 540.50 909.15 L 541.97 909.15 L 543.44 909.07 L 544.92 909.12 L 546.39 909.05 L 547.86 909.15 L 549.33 909.12 L 550.81 907.21 L 552.28 906.90 L 553.75 908.07 L 555.22 903.50 L 556.69 891.52 L 558.17 874.37 L 559.64 851.69 L 561.11 825.19 L 562.58 813.75 L 564.06 819.09 L 565.53 835.60 L 567.00 870.66 L 568.47 875.08 L 569.94 880.27 L 571.42 889.08 L 572.89 903.24 L 574.36 901.89 L 575.83 886.91 L 577.31 872.91 L 578.78 871.83 L 580.25 870.20 L 581.72 872.36 L 583.19 854.26 L 584.67 857.00 L 586.14 853.61 L 587.61 858.17 L 589.08 890.55 L 590.56 896.68 L 592.03 890.02 L 593.50 869.13 L 594.97 868.55 L 596.44 858.71 L 597.92 856.63 L 599.39 850.18 L 600.86 860.93 L 602.33 868.80 L 603.81 882.52 L 605.28 876.71 L 606.75 870.94 L 608.22 856.10 L 609.69 879.83 L 611.17 875.93 L 612.64 870.55 L 614.11 875.44 L 615.58 884.12 L 617.06 864.49 L 618.53 866.40 L 620.00 866.81 L 621.47 894.51 L 622.94 903.33 L 624.42 898.53 L 625.89 892.93 L 627.36 903.82 L 628.83 902.79 L 630.31 902.41 L 631.78 896.65 L 633.25 891.98 L 634.72 898.55 L 636.19 896.22 L 637.67 889.99 L 639.14 892.14 L 640.61 895.75 L 642.08 899.10 L 643.56 903.98 L 645.03 903.20 L 646.50 907.05 L 647.97 900.84 L 649.44 899.42 L 650.92 899.45 L 652.39 903.14 L 653.86 903.22 L 655.33 900.27 L 656.81 900.58 L 658.28 904.44 L 659.75 907.02 L 661.22 901.56 L 662.69 903.37 L 664.17 899.96 L 665.64 899.91 L 667.11 903.45 L 668.58 904.15 L 670.06 899.48 L 671.53 899.48 L 673.00 900.15 L 674.47 893.37 L 675.94 898.04 L 677.42 901.82 L 678.89 902.31 L 680.36 906.94 L 681.83 891.73 L 683.31 894.78 L 684.78 900.84 L 686.25 902.06 L 687.72 902.39 L 689.19 906.81 L 690.67 904.94 L 692.14 906.45 L 693.61 901.31 L 695.08 899.34 L 696.56 898.45 L 698.03 898.33 L 699.50 903.25 L 700.97 906.25 L 702.44 903.17 L 703.92 909.10 L 705.39 897.87 L 706.86 902.75 L 708.33 903.30 L 709.81 900.23 L 711.28 899.67 L 712.75 908.35 L 714.22 907.29 L 715.69 905.30 L 717.17 905.26 L 718.64 900.61 L 720.11 900.02 L 721.58 899.38 L 723.06 899.97 L 724.53 903.98 L 726.00 904.23 L 727.47 907.16 L 728.94 901.73 L 730.42 905.37 L 731.89 902.84 L 733.36 897.65 L 734.83 894.50 L 736.31 889.19 L 737.78 887.93 L 739.25 869.34 L 740.72 852.53 L 742.19 853.11 L 743.67 862.98 L 745.14 847.44 L 746.61 834.85 L 748.08 843.77 L 749.56 851.60 L 751.03 856.15 L 752.50 893.05 L 753.97 877.17 L 755.44 858.86 L 756.92 822.94 L 758.39 819.44 L 759.86 834.66 L 761.33 836.00 L 762.81 867.46 L 764.28 887.26 L 765.75 903.66 L 767.22 876.14" stroke="#E53935" />
<text x="620.00" y="952" font-size="15" text-anchor="middle">minutos (relativo ao início do evento)</text>
<text class="small" x="90.00" y="936" text-anchor="middle">-4.00</text>
<text class="small" x="266.67" y="936" text-anchor="middle">-2.00</text>
<text class="small" x="443.33" y="936" text-anchor="middle">0.00</text>
<text class="small" x="620.00" y="936" text-anchor="middle">2.00</text>
<text class="small" x="796.67" y="936" text-anchor="middle">4.00</text>
<text class="small" x="973.33" y="936" text-anchor="middle">6.00</text>
<text class="small" x="1150.00" y="936" text-anchor="middle">8.00</text>
</svg>