<?xml version="1.0" encoding="UTF-8"?>
<svg xmlns="http://www.w3.org/2000/svg" width="1180" height="980" viewBox="0 0 1180 980">
<style>
text { font-family: -apple-system, BlinkMacSystemFont, 'Segoe UI', Roboto, Helvetica, Arial, sans-serif; fill: #111; }
.small { font-size: 12px; fill: #222; }
.title { font-size: 18px; font-weight: 700; }
.axis { stroke: #111; stroke-width: 1.4; }
.grid { stroke: #E6E6E6; stroke-width: 1; }
.event { fill: #FFEB3B; fill-opacity: 0.18; }
.eventline { stroke: #F9A825; stroke-width: 1.2; stroke-dasharray: 4 3; }
.series { fill: none; stroke-width: 1.8; }
</style>
<text class="title" x="90" y="34">ciclo 3 — espera_basculamento — 2025-12-12T16:36:11-03:00 → 2025-12-12T16:36:56-03:00 (span 45s, dur 46s)</text>
<text class="small" x="90" y="54">GPS: -11.692794,-47.164350  hotspot: -11.693,-47.164</text>
<text class="small" x="90" y="70">Janela: -3.00 → 3.75 min (relativo ao início do evento)</text>
<text x="90" y="79.00" font-size="14" font-weight="700">Velocidade (km/h)</text>
<rect class="event" x="443.33" y="85.00" width="66.25" height="192.75" />
<line class="eventline" x1="443.33" y1="85.00" x2="443.33" y2="277.75" />
<line class="eventline" x1="509.58" y1="85.00" x2="509.58" y2="277.75" />
<line class="grid" x1="90" y1="277.75" x2="1150" y2="277.75" />
<text class="small" x="80" y="281.75" text-anchor="end">0.00</text>
<line class="grid" x1="90" y1="239.20" x2="1150" y2="239.20" />
<text class="small" x="80" y="243.20" text-anchor="end">10.0</text>
<line class="grid" x1="90" y1="200.65" x2="1150" y2="200.65" />
<text class="small" x="80" y="204.65" text-anchor="end">20.0</text>
<line class="grid" x1="90" y1="162.10" x2="1150" y2="162.10" />
<text class="small" x="80" y="166.10" text-anchor="end">30.0</text>
<line class="grid" x1="90" y1="123.55" x2="1150" y2="123.55" />
<text class="small" x="80" y="127.55" text-anchor="end">40.0</text>
<line class="grid" x1="90" y1="85.00" x2="1150" y2="85.00" />
<text class="small" x="80" y="89.00" text-anchor="end">50.0</text>
<line class="grid" x1="90.00" y1="85.00" x2="90.00" y2="277.75" />
<line class="grid" x1="266.67" y1="85.00" x2="266.67" y2="277.75" />
<line class="grid" x1="443.33" y1="85.00" x2="443.33" y2="277.75" />
<line class="grid" x1="620.00" y1="85.00" x2="620.00" y2="277.75" />
<line class="grid" x1="796.67" y1="85.00" x2="796.67" y2="277.75" />
<line class="grid" x1="973.33" y1="85.00" x2="973.33" y2="277.75" />
<line class="grid" x1="1150.00" y1="85.00" x2="1150.00" y2="277.75" />
<line class="axis" x1="90" y1="85.00" x2="90" y2="277.75" />
<line class="axis" x1="90" y1="277.75" x2="1150" y2="277.75" />
<path class="series" d="M 178.33 245.69 L 179.81 245.14 L 181.28 245.41 L 182.75 246.52 L 184.22 246.11 L 185.69 245.97 L 187.17 246.25 L 188.64 246.11 L 190.11 245.97 L 191.58 244.58 L 193.06 245.41 L 194.53 245.69 L 196.00 246.11 L 197.47 248.19 L 198.94 248.05 L 200.42 247.91 L 201.89 247.63 L 203.36 247.08 L 204.83 247.22 L 206.31 247.22 L 207.78 246.94 L 209.25 247.63 L 210.72 249.02 L 212.19 248.88 L 213.67 247.77 L 215.14 247.08 L 216.61 246.11 L 218.08 245.28 L 219.56 245.14 L 221.03 245.28 L 222.50 245.00 L 223.97 243.75 L 225.44 242.50 L 226.92 241.39 L 228.39 241.94 L 229.86 241.94 L 231.33 241.94 L 232.81 243.06 L 234.28 244.17 L 235.75 247.50 L 237.22 250.97 L 238.69 253.74 L 240.17 253.46 L 241.64 252.21 L 243.11 250.97 L 244.58 249.86 L 246.06 249.16 L 247.53 246.94 L 249.00 246.52 L 250.47 245.83 L 251.94 245.69 L 253.42 246.52 L 254.89 246.39 L 256.36 247.08 L 257.83 246.52 L 259.31 245.55 L 260.78 245.69 L 262.25 246.39 L 263.72 247.36 L 265.19 249.30 L 266.67 247.22 L 268.14 247.36 L 269.61 247.50 L 271.08 248.19 L 272.56 248.61 L 274.03 247.77 L 275.50 247.77 L 276.97 248.33 L 278.44 248.33 L 279.92 245.97 L 281.39 246.11 L 282.86 244.58 L 284.33 243.75 L 285.81 244.17 L 287.28 243.89 L 288.75 240.70 L 290.22 240.70 L 291.69 242.08 L 293.17 243.75 L 294.64 243.06 L 296.11 237.09 L 297.58 233.48 L 299.06 227.51 L 300.53 220.57 L 302.00 212.80 L 303.47 211.69 L 304.94 203.92 L 306.42 207.80 L 307.89 206.00 L 309.36 207.67 L 310.83 207.25 L 312.31 209.47 L 313.78 217.24 L 315.25 218.35 L 316.72 221.96 L 318.19 222.38 L 319.67 224.04 L 321.14 224.04 L 322.61 219.60 L 324.08 219.60 L 325.56 209.89 L 327.03 211.27 L 328.50 217.52 L 329.97 219.74 L 331.44 222.65 L 332.92 225.15 L 334.39 228.90 L 335.86 235.28 L 337.33 236.67 L 338.81 235.84 L 340.28 234.73 L 341.75 234.17 L 343.22 236.81 L 344.69 233.34 L 346.17 232.92 L 347.64 232.65 L 349.11 232.23 L 350.58 232.09 L 352.06 228.07 L 353.53 225.57 L 355.00 224.04 L 356.47 218.63 L 357.94 215.58 L 359.42 216.13 L 360.89 215.30 L 362.36 221.27 L 363.83 211.97 L 365.31 206.56 L 366.78 207.25 L 368.25 208.78 L 369.72 210.72 L 371.19 210.72 L 372.67 210.72 L 374.14 212.52 L 375.61 211.41 L 377.08 214.74 L 378.56 220.57 L 380.03 228.48 L 381.50 232.09 L 382.97 228.90 L 384.44 231.95 L 385.92 221.54 L 387.39 217.52 L 388.86 211.41 L 390.33 207.53 L 391.81 205.86 L 393.28 204.34 L 394.75 208.92 L 396.22 210.58 L 397.69 214.33 L 399.17 218.35 L 400.64 218.35 L 402.11 221.82 L 403.58 222.79 L 405.06 224.46 L 406.53 228.90 L 408.00 234.87 L 409.47 240.14 L 410.94 248.33 L 412.42 249.58 L 413.89 245.28 L 415.36 250.83 L 416.83 263.59 L 418.31 277.75 L 419.78 277.75 L 421.25 272.48 L 422.72 277.75 L 424.19 268.59 L 425.67 264.15 L 427.14 261.51 L 428.61 259.15 L 430.08 258.46 L 431.56 261.10 L 433.03 265.68 L 434.50 267.90 L 435.97 270.81 L 437.44 271.37 L 438.92 272.06 L 440.39 272.06 L 441.86 272.34 L 443.33 277.75 L 444.81 277.75 L 446.28 277.75 L 447.75 277.75 L 449.22 277.75 L 450.69 277.75 L 452.17 277.75 L 453.64 277.75 L 455.11 277.75 L 456.58 277.75 L 458.06 277.75 L 459.53 277.75 L 461.00 277.75 L 462.47 277.75 L 463.94 277.75 L 465.42 277.75 L 466.89 277.75 L 468.36 277.75 L 469.83 277.75 L 471.31 277.75 L 472.78 277.75 L 474.25 277.75 L 475.72 277.75 L 477.19 277.75 L 478.67 277.75 L 480.14 277.75 L 481.61 277.75 L 483.08 277.75 L 484.56 277.75 L 486.03 277.75 L 487.50 277.75 L 488.97 277.75 L 490.44 277.75 L 491.92 277.75 L 493.39 277.75 L 494.86 277.75 L 496.33 277.75 L 497.81 277.75 L 499.28 277.75 L 500.75 277.75 L 502.22 277.75 L 503.69 277.75 L 505.17 277.75 L 506.64 277.75 L 508.11 277.75 L 509.58 277.75 L 511.06 271.50 L 512.53 263.87 L 514.00 263.04 L 515.47 272.75 L 516.94 272.48 L 518.42 272.20 L 519.89 273.86 L 521.36 266.23 L 522.83 266.51 L 524.31 271.23 L 525.78 274.28 L 527.25 273.31 L 528.72 271.78 L 530.19 268.59 L 531.67 268.45 L 533.14 269.56 L 534.61 270.39 L 536.08 269.98 L 537.56 272.20 L 539.03 277.75 L 540.50 277.75 L 541.97 272.20 L 543.44 267.06 L 544.92 268.31 L 546.39 267.34 L 547.86 259.15 L 549.33 252.77 L 550.81 248.05 L 552.28 238.48 L 553.75 227.79 L 555.22 221.82 L 556.69 211.69 L 558.17 199.06 L 559.64 192.82 L 561.11 189.07 L 562.58 188.51 L 564.06 183.93 L 565.53 185.88 L 567.00 183.52 L 568.47 181.85 L 569.94 183.52 L 571.42 182.55 L 572.89 179.91 L 574.36 178.80 L 575.83 176.30 L 577.31 171.72 L 578.78 169.92 L 580.25 169.92 L 581.72 176.72 L 583.19 175.61 L 584.67 185.60 L 586.14 191.85 L 587.61 190.18 L 589.08 186.99 L 590.56 184.49 L 592.03 171.44 L 593.50 182.13 L 594.97 179.08 L 596.44 178.80 L 597.92 171.72 L 599.39 175.05 L 600.86 174.50 L 602.33 164.23 L 603.81 169.78 L 605.28 171.44 L 606.75 168.39 L 608.22 167.98 L 609.69 168.81 L 611.17 170.33 L 612.64 167.42 L 614.11 168.81 L 615.58 172.14 L 617.06 175.61 L 618.53 177.13 L 620.00 179.22 L 621.47 184.49 L 622.94 186.71 L 624.42 188.10 L 625.89 188.10 L 627.36 184.91 L 628.83 180.47 L 630.31 187.40 L 631.78 191.71 L 633.25 180.47 L 634.72 175.47 L 636.19 172.42 L 637.67 169.09 L 639.14 164.51 L 640.61 160.90 L 642.08 156.04 L 643.56 154.37 L 645.03 161.87 L 646.50 170.20 L 647.97 174.50 L 649.44 177.55 L 650.92 178.66 L 652.39 178.11 L 653.86 181.16 L 655.33 179.91 L 656.81 181.44 L 658.28 182.55 L 659.75 180.60 L 661.22 180.88 L 662.69 178.52 L 664.17 181.30 L 665.64 183.10 L 667.11 180.19 L 668.58 174.91 L 670.06 174.78 L 671.53 172.83 L 673.00 171.03 L 674.47 173.53 L 675.94 171.58 L 677.42 171.72 L 678.89 172.69 L 680.36 172.97 L 681.83 173.80 L 683.31 176.30 L 684.78 175.89 L 686.25 176.44 L 687.72 178.24 L 689.19 177.55 L 690.67 179.91 L 692.14 180.74 L 693.61 180.05 L 695.08 177.55 L 696.56 176.16 L 698.03 177.55 L 699.50 176.86 L 700.97 176.86 L 702.44 178.24 L 703.92 177.69 L 705.39 182.69 L 706.86 183.93 L 708.33 182.55 L 709.81 184.35 L 711.28 180.74 L 712.75 181.16 L 714.22 175.47 L 715.69 170.61 L 717.17 171.86 L 718.64 169.36 L 720.11 166.45 L 721.58 166.31 L 723.06 169.22 L 724.53 168.39 L 726.00 166.86 L 727.47 163.81 L 728.94 162.42 L 730.42 163.26 L 731.89 160.62 L 733.36 163.81 L 734.83 179.08 L 736.31 191.29 L 737.78 190.04 L 739.25 190.87 L 740.72 194.20 L 742.19 193.79 L 743.67 197.67 L 745.14 185.60 L 746.61 186.85 L 748.08 188.51 L 749.56 205.45 L 751.03 198.92 L 752.50 203.50 L 753.97 204.20 L 755.44 199.06 L 756.92 195.04 L 758.39 190.60 L 759.86 192.40 L 761.33 193.23 L 762.81 190.60 L 764.28 187.54 L 765.75 185.18 L 767.22 181.44 L 768.69 177.55 L 770.17 174.50 L 771.64 169.64 L 773.11 161.31 L 774.58 156.46" stroke="#1976D2" />
<text x="90" y="289.75" font-size="14" font-weight="700">Inclinação (graus)</text>
<rect class="event" x="443.33" y="295.75" width="66.25" height="192.75" />
<line class="eventline" x1="443.33" y1="295.75" x2="443.33" y2="488.50" />
<line class="eventline" x1="509.58" y1="295.75" x2="509.58" y2="488.50" />
<line class="grid" x1="90" y1="488.50" x2="1150" y2="488.50" />
<text class="small" x="80" y="492.50" text-anchor="end">-20.0</text>
<line class="grid" x1="90" y1="449.95" x2="1150" y2="449.95" />
<text class="small" x="80" y="453.95" text-anchor="end">-10.0</text>
<line class="grid" x1="90" y1="411.40" x2="1150" y2="411.40" />
<text class="small" x="80" y="415.40" text-anchor="end">0.00</text>
<line class="grid" x1="90" y1="372.85" x2="1150" y2="372.85" />
<text class="small" x="80" y="376.85" text-anchor="end">10.0</text>
<line class="grid" x1="90" y1="334.30" x2="1150" y2="334.30" />
<text class="small" x="80" y="338.30" text-anchor="end">20.0</text>
<line class="grid" x1="90" y1="295.75" x2="1150" y2="295.75" />
<text class="small" x="80" y="299.75" text-anchor="end">30.0</text>
<line class="grid" x1="90.00" y1="295.75" x2="90.00" y2="488.50" />
<line class="grid" x1="266.67" y1="295.75" x2="266.67" y2="488.50" />
<line class="grid" x1="443.33" y1="295.75" x2="443.33" y2="488.50" />
<line class="grid" x1="620.00" y1="295.75" x2="620.00" y2="488.50" />
<line class="grid" x1="796.67" y1="295.75" x2="796.67" y2="488.50" />
<line class="grid" x1="973.33" y1="295.75" x2="973.33" y2="488.50" />
<line class="grid" x1="1150.00" y1="295.75" x2="1150.00" y2="488.50" />
<line class="axis" x1="90" y1="295.75" x2="90" y2="488.50" />
<line class="axis" x1="90" y1="488.50" x2="1150" y2="488.50" />
<path class="series" d="M 178.33 392.72 L 179.81 392.62 L 181.28 391.88 L 182.75 392.04 L 184.22 391.97 L 185.69 390.24 L 187.17 392.19 L 188.64 391.53 L 190.11 391.31 L 191.58 392.02 L 193.06 391.03 L 194.53 389.73 L 196.00 386.51 L 197.47 391.04 L 198.94 390.57 L 200.42 391.28 L 201.89 392.58 L 203.36 392.16 L 204.83 393.05 L 206.31 392.40 L 207.78 393.18 L 209.25 392.56 L 210.72 393.24 L 212.19 391.99 L 213.67 391.68 L 215.14 390.27 L 216.61 388.80 L 218.08 386.99 L 219.56 382.80 L 221.03 381.97 L 222.50 388.29 L 223.97 388.28 L 225.44 388.16 L 226.92 387.05 L 228.39 387.05 L 229.86 388.62 L 231.33 389.20 L 232.81 388.43 L 234.28 390.12 L 235.75 391.33 L 237.22 387.50 L 238.69 397.20 L 240.17 397.90 L 241.64 397.10 L 243.11 396.17 L 244.58 394.92 L 246.06 394.10 L 247.53 392.43 L 249.00 390.87 L 250.47 390.74 L 251.94 391.51 L 253.42 390.31 L 254.89 390.41 L 256.36 390.28 L 257.83 389.74 L 259.31 388.36 L 260.78 387.44 L 262.25 388.76 L 263.72 388.41 L 265.19 390.41 L 266.67 391.93 L 268.14 393.31 L 269.61 392.31 L 271.08 388.25 L 272.56 393.38 L 274.03 393.12 L 275.50 391.95 L 276.97 392.74 L 278.44 392.20 L 279.92 397.43 L 281.39 388.27 L 282.86 383.32 L 284.33 387.09 L 285.81 388.58 L 287.28 389.47 L 288.75 385.92 L 290.22 385.16 L 291.69 377.90 L 293.17 373.33 L 294.64 375.09 L 296.11 376.80 L 297.58 378.02 L 299.06 374.92 L 300.53 375.99 L 302.00 372.81 L 303.47 372.14 L 304.94 366.06 L 306.42 373.82 L 307.89 368.18 L 309.36 371.85 L 310.83 371.83 L 312.31 362.92 L 313.78 363.00 L 315.25 368.86 L 316.72 365.29 L 318.19 371.91 L 319.67 373.34 L 321.14 369.89 L 322.61 377.08 L 324.08 374.40 L 325.56 378.20 L 327.03 376.13 L 328.50 378.44 L 329.97 380.06 L 331.44 380.75 L 332.92 380.78 L 334.39 377.75 L 335.86 383.15 L 337.33 384.24 L 338.81 385.28 L 340.28 383.63 L 341.75 384.09 L 343.22 385.25 L 344.69 382.70 L 346.17 382.61 L 347.64 384.48 L 349.11 378.43 L 350.58 379.34 L 352.06 375.75 L 353.53 368.56 L 355.00 374.34 L 356.47 377.06 L 357.94 369.84 L 359.42 363.30 L 360.89 359.04 L 362.36 365.27 L 363.83 372.28 L 365.31 365.86 L 366.78 368.43 L 368.25 372.19 L 369.72 371.66 L 371.19 373.22 L 372.67 372.88 L 374.14 365.55 L 375.61 369.17 L 377.08 362.35 L 378.56 354.43 L 380.03 368.42 L 381.50 372.09 L 382.97 372.31 L 384.44 375.30 L 385.92 376.83 L 387.39 374.04 L 388.86 368.58 L 390.33 369.49 L 391.81 365.65 L 393.28 363.15 L 394.75 361.51 L 396.22 364.27 L 397.69 364.51 L 399.17 360.06 L 400.64 350.85 L 402.11 350.85 L 403.58 363.23 L 405.06 355.61 L 406.53 357.64 L 408.00 357.13 L 409.47 350.08 L 410.94 350.34 L 412.42 348.28 L 413.89 346.17 L 415.36 335.39 L 416.83 351.86 L 418.31 358.13 L 419.78 358.21 L 421.25 360.94 L 422.72 354.20 L 424.19 356.54 L 425.67 356.35 L 427.14 357.75 L 428.61 358.71 L 430.08 360.43 L 431.56 365.65 L 433.03 365.63 L 434.50 365.06 L 435.97 363.45 L 437.44 366.04 L 438.92 363.54 L 440.39 369.24 L 441.86 369.36 L 443.33 366.28 L 444.81 368.01 L 446.28 364.20 L 447.75 363.87 L 449.22 364.09 L 450.69 364.14 L 452.17 364.47 L 453.64 364.54 L 455.11 364.79 L 456.58 364.46 L 458.06 364.40 L 459.53 364.24 L 461.00 364.24 L 462.47 364.30 L 463.94 364.39 L 465.42 364.42 L 466.89 364.53 L 468.36 363.71 L 469.83 366.01 L 471.31 364.33 L 472.78 365.15 L 474.25 364.42 L 475.72 364.70 L 477.19 364.70 L 478.67 364.76 L 480.14 365.15 L 481.61 365.09 L 483.08 365.21 L 484.56 366.60 L 486.03 363.86 L 487.50 365.54 L 488.97 365.67 L 490.44 365.94 L 491.92 366.28 L 493.39 366.52 L 494.86 366.45 L 496.33 366.79 L 497.81 366.60 L 499.28 367.15 L 500.75 367.05 L 502.22 367.14 L 503.69 368.62 L 505.17 368.35 L 506.64 368.36 L 508.11 368.55 L 509.58 372.43 L 511.06 387.39 L 512.53 377.28 L 514.00 356.58 L 515.47 363.92 L 516.94 370.41 L 518.42 363.17 L 519.89 375.15 L 521.36 373.86 L 522.83 361.31 L 524.31 358.50 L 525.78 368.22 L 527.25 369.07 L 528.72 374.49 L 530.19 368.63 L 531.67 367.44 L 533.14 368.19 L 534.61 370.79 L 536.08 363.49 L 537.56 366.44 L 539.03 369.65 L 540.50 368.80 L 541.97 376.85 L 543.44 367.00 L 544.92 362.67 L 546.39 382.54 L 547.86 375.92 L 549.33 371.05 L 550.81 378.87 L 552.28 391.95 L 553.75 386.30 L 555.22 378.98 L 556.69 370.54 L 558.17 382.04 L 559.64 372.11 L 561.11 372.18 L 562.58 376.41 L 564.06 364.49 L 565.53 371.31 L 567.00 375.03 L 568.47 368.62 L 569.94 372.28 L 571.42 375.88 L 572.89 367.25 L 574.36 369.94 L 575.83 372.97 L 577.31 369.29 L 578.78 362.46 L 580.25 362.11 L 581.72 349.86 L 583.19 356.74 L 584.67 368.33 L 586.14 372.94 L 587.61 374.28 L 589.08 377.81 L 590.56 367.93 L 592.03 369.27 L 593.50 357.59 L 594.97 350.22 L 596.44 356.35 L 597.92 353.36 L 599.39 355.39 L 600.86 350.10 L 602.33 336.21 L 603.81 355.36 L 605.28 356.16 L 606.75 364.76 L 608.22 367.39 L 609.69 361.78 L 611.17 362.71 L 612.64 364.56 L 614.11 356.39 L 615.58 359.12 L 617.06 363.62 L 618.53 363.47 L 620.00 362.98 L 621.47 368.86 L 622.94 358.08 L 624.42 361.02 L 625.89 360.42 L 627.36 358.39 L 628.83 337.55 L 630.31 352.04 L 631.78 352.40 L 633.25 351.42 L 634.72 354.21 L 636.19 353.54 L 637.67 353.83 L 639.14 351.30 L 640.61 348.74 L 642.08 346.30 L 643.56 336.59 L 645.03 337.02 L 646.50 341.26 L 647.97 340.77 L 649.44 340.07 L 650.92 340.81 L 652.39 345.85 L 653.86 345.61 L 655.33 346.10 L 656.81 345.13 L 658.28 344.85 L 659.75 344.18 L 661.22 346.05 L 662.69 341.57 L 664.17 345.83 L 665.64 353.09 L 667.11 351.77 L 668.58 346.35 L 670.06 346.05 L 671.53 344.82 L 673.00 342.41 L 674.47 343.33 L 675.94 344.59 L 677.42 344.14 L 678.89 343.18 L 680.36 345.04 L 681.83 343.02 L 683.31 345.30 L 684.78 343.59 L 686.25 344.55 L 687.72 346.97 L 689.19 345.17 L 690.67 345.69 L 692.14 344.51 L 693.61 343.64 L 695.08 343.64 L 696.56 343.89 L 698.03 344.86 L 699.50 344.89 L 700.97 344.68 L 702.44 344.79 L 703.92 345.95 L 705.39 344.85 L 706.86 346.18 L 708.33 353.86 L 709.81 346.89 L 711.28 347.22 L 712.75 348.70 L 714.22 351.82 L 715.69 346.13 L 717.17 346.01 L 718.64 344.10 L 720.11 343.75 L 721.58 344.69 L 723.06 342.93 L 724.53 342.34 L 726.00 344.55 L 727.47 345.29 L 728.94 344.71 L 730.42 344.86 L 731.89 343.63 L 733.36 332.34 L 734.83 326.50 L 736.31 343.47 L 737.78 356.99 L 739.25 355.30 L 740.72 354.35 L 742.19 350.88 L 743.67 354.18 L 745.14 359.58 L 746.61 357.88 L 748.08 355.53 L 749.56 348.73 L 751.03 347.49 L 752.50 362.44 L 753.97 366.77 L 755.44 377.93 L 756.92 378.82 L 758.39 380.57 L 759.86 361.41 L 761.33 374.94 L 762.81 381.11 L 764.28 382.19 L 765.75 377.18 L 767.22 379.29 L 768.69 375.07 L 770.17 374.02 L 771.64 378.98 L 773.11 377.86 L 774.58 370.55" stroke="#2E7D32" />
<path class="series" d="M 178.33 404.84 L 179.81 407.18 L 181.28 405.26 L 182.75 406.24 L 184.22 405.40 L 185.69 404.30 L 187.17 404.15 L 188.64 407.59 L 190.11 407.17 L 191.58 410.98 L 193.06 413.06 L 194.53 414.77 L 196.00 416.03 L 197.47 411.93 L 198.94 409.11 L 200.42 409.85 L 201.89 413.08 L 203.36 413.02 L 204.83 412.13 L 206.31 408.37 L 207.78 409.37 L 209.25 406.83 L 210.72 408.24 L 212.19 404.93 L 213.67 406.38 L 215.14 404.11 L 216.61 404.30 L 218.08 402.18 L 219.56 402.42 L 221.03 399.14 L 222.50 401.11 L 223.97 404.80 L 225.44 404.54 L 226.92 406.57 L 228.39 406.57 L 229.86 403.95 L 231.33 406.74 L 232.81 404.26 L 234.28 406.55 L 235.75 407.12 L 237.22 406.25 L 238.69 406.69 L 240.17 406.90 L 241.64 402.47 L 243.11 401.44 L 244.58 400.30 L 246.06 398.77 L 247.53 396.43 L 249.00 404.16 L 250.47 402.58 L 251.94 405.10 L 253.42 402.67 L 254.89 398.10 L 256.36 402.38 L 257.83 403.35 L 259.31 403.85 L 260.78 405.44 L 262.25 403.28 L 263.72 404.38 L 265.19 405.32 L 266.67 405.75 L 268.14 407.02 L 269.61 406.93 L 271.08 404.97 L 272.56 410.28 L 274.03 409.92 L 275.50 408.23 L 276.97 406.89 L 278.44 411.25 L 279.92 414.04 L 281.39 410.16 L 282.86 417.30 L 284.33 414.95 L 285.81 410.69 L 287.28 411.95 L 288.75 413.42 L 290.22 413.71 L 291.69 410.58 L 293.17 415.07 L 294.64 403.94 L 296.11 411.85 L 297.58 401.89 L 299.06 403.64 L 300.53 416.48 L 302.00 415.82 L 303.47 412.17 L 304.94 414.81 L 306.42 410.89 L 307.89 412.57 L 309.36 409.89 L 310.83 414.13 L 312.31 411.48 L 313.78 410.34 L 315.25 408.82 L 316.72 407.92 L 318.19 408.99 L 319.67 413.97 L 321.14 422.65 L 322.61 418.47 L 324.08 432.08 L 325.56 427.92 L 327.03 410.26 L 328.50 414.32 L 329.97 423.91 L 331.44 407.01 L 332.92 417.99 L 334.39 419.10 L 335.86 418.61 L 337.33 414.35 L 338.81 409.17 L 340.28 404.74 L 341.75 404.05 L 343.22 403.14 L 344.69 395.90 L 346.17 396.26 L 347.64 383.67 L 349.11 393.35 L 350.58 383.71 L 352.06 402.89 L 353.53 387.42 L 355.00 391.00 L 356.47 385.82 L 357.94 391.22 L 359.42 393.87 L 360.89 392.19 L 362.36 387.68 L 363.83 395.53 L 365.31 411.11 L 366.78 406.56 L 368.25 406.61 L 369.72 409.52 L 371.19 403.93 L 372.67 409.23 L 374.14 415.70 L 375.61 414.50 L 377.08 416.04 L 378.56 406.85 L 380.03 419.47 L 381.50 411.04 L 382.97 414.30 L 384.44 414.32 L 385.92 408.46 L 387.39 419.68 L 388.86 415.51 L 390.33 402.53 L 391.81 409.79 L 393.28 413.33 L 394.75 410.92 L 396.22 407.89 L 397.69 410.52 L 399.17 409.97 L 400.64 391.78 L 402.11 391.78 L 403.58 411.71 L 405.06 423.51 L 406.53 417.75 L 408.00 426.65 L 409.47 424.81 L 410.94 423.80 L 412.42 422.70 L 413.89 419.28 L 415.36 404.11 L 416.83 408.08 L 418.31 410.47 L 419.78 415.06 L 421.25 416.68 L 422.72 415.99 L 424.19 419.28 L 425.67 425.73 L 427.14 412.97 L 428.61 416.89 L 430.08 409.13 L 431.56 412.53 L 433.03 412.29 L 434.50 417.58 L 435.97 415.54 L 437.44 415.84 L 438.92 417.52 L 440.39 419.40 L 441.86 415.59 L 443.33 416.11 L 444.81 419.05 L 446.28 415.55 L 447.75 416.42 L 449.22 415.85 L 450.69 416.41 L 452.17 416.89 L 453.64 416.22 L 455.11 416.36 L 456.58 416.83 L 458.06 416.41 L 459.53 416.29 L 461.00 416.29 L 462.47 416.72 L 463.94 416.26 L 465.42 416.46 L 466.89 416.66 L 468.36 416.07 L 469.83 417.15 L 471.31 416.40 L 472.78 416.48 L 474.25 416.30 L 475.72 416.68 L 477.19 416.20 L 478.67 416.58 L 480.14 416.40 L 481.61 416.54 L 483.08 416.60 L 484.56 416.93 L 486.03 416.17 L 487.50 416.55 L 488.97 416.53 L 490.44 416.57 L 491.92 416.38 L 493.39 416.65 L 494.86 416.64 L 496.33 416.70 L 497.81 416.62 L 499.28 416.54 L 500.75 416.76 L 502.22 416.54 L 503.69 416.54 L 505.17 416.52 L 506.64 416.60 L 508.11 416.67 L 509.58 416.41 L 511.06 422.62 L 512.53 416.38 L 514.00 420.34 L 515.47 415.17 L 516.94 419.96 L 518.42 420.49 L 519.89 419.29 L 521.36 419.19 L 522.83 423.32 L 524.31 421.24 L 525.78 422.53 L 527.25 422.80 L 528.72 423.57 L 530.19 425.06 L 531.67 422.15 L 533.14 423.96 L 534.61 424.88 L 536.08 419.98 L 537.56 420.58 L 539.03 423.53 L 540.50 421.83 L 541.97 424.55 L 543.44 425.30 L 544.92 419.96 L 546.39 431.41 L 547.86 425.71 L 549.33 430.88 L 550.81 429.76 L 552.28 433.42 L 553.75 444.61 L 555.22 448.80 L 556.69 433.11 L 558.17 427.92 L 559.64 422.67 L 561.11 425.75 L 562.58 427.00 L 564.06 407.42 L 565.53 400.23 L 567.00 410.62 L 568.47 419.67 L 569.94 443.34 L 571.42 428.69 L 572.89 424.59 L 574.36 430.95 L 575.83 401.27 L 577.31 417.61 L 578.78 406.06 L 580.25 402.22 L 581.72 375.47 L 583.19 387.96 L 584.67 416.29 L 586.14 418.81 L 587.61 405.06 L 589.08 414.21 L 590.56 394.51 L 592.03 390.40 L 593.50 392.49 L 594.97 384.26 L 596.44 398.21 L 597.92 394.68 L 599.39 391.36 L 600.86 391.07 L 602.33 402.21 L 603.81 400.00 L 605.28 396.34 L 606.75 386.10 L 608.22 395.08 L 609.69 387.86 L 611.17 399.11 L 612.64 398.97 L 614.11 396.89 L 615.58 404.91 L 617.06 402.27 L 618.53 397.26 L 620.00 404.93 L 621.47 423.20 L 622.94 414.00 L 624.42 408.37 L 625.89 403.84 L 627.36 404.64 L 628.83 404.35 L 630.31 405.85 L 631.78 402.11 L 633.25 407.50 L 634.72 407.47 L 636.19 411.72 L 637.67 406.31 L 639.14 416.46 L 640.61 406.69 L 642.08 410.45 L 643.56 408.21 L 645.03 409.56 L 646.50 416.52 L 647.97 412.01 L 649.44 408.75 L 650.92 407.62 L 652.39 404.06 L 653.86 408.84 L 655.33 411.19 L 656.81 411.93 L 658.28 410.77 L 659.75 413.98 L 661.22 418.94 L 662.69 420.57 L 664.17 413.44 L 665.64 419.61 L 667.11 411.75 L 668.58 417.94 L 670.06 408.90 L 671.53 408.43 L 673.00 410.28 L 674.47 405.15 L 675.94 406.02 L 677.42 408.07 L 678.89 408.97 L 680.36 406.28 L 681.83 404.96 L 683.31 413.35 L 684.78 412.25 L 686.25 415.67 L 687.72 415.94 L 689.19 420.04 L 690.67 410.65 L 692.14 416.30 L 693.61 411.82 L 695.08 411.82 L 696.56 408.89 L 698.03 407.45 L 699.50 409.14 L 700.97 411.12 L 702.44 411.25 L 703.92 413.13 L 705.39 406.99 L 706.86 406.61 L 708.33 406.22 L 709.81 405.85 L 711.28 404.88 L 712.75 406.89 L 714.22 405.62 L 715.69 410.55 L 717.17 404.58 L 718.64 403.56 L 720.11 406.09 L 721.58 407.28 L 723.06 403.28 L 724.53 403.31 L 726.00 403.37 L 727.47 414.86 L 728.94 419.02 L 730.42 418.70 L 731.89 418.58 L 733.36 419.59 L 734.83 420.26 L 736.31 438.48 L 737.78 441.26 L 739.25 431.97 L 740.72 433.59 L 742.19 431.71 L 743.67 431.56 L 745.14 411.79 L 746.61 384.77 L 748.08 373.75 L 749.56 359.87 L 751.03 384.22 L 752.50 385.86 L 753.97 384.89 L 755.44 399.95 L 756.92 402.75 L 758.39 414.78 L 759.86 422.98 L 761.33 419.36 L 762.81 414.66 L 764.28 420.44 L 765.75 419.59 L 767.22 419.36 L 768.69 408.70 L 770.17 410.24 L 771.64 405.59 L 773.11 408.51 L 774.58 407.38" stroke="#6A1B9A" />
<line x1="900.00" y1="307.75" x2="918.00" y2="307.75" stroke="#2E7D32" stroke-width="3" />
<text class="small" x="924.00" y="311.75">pitch</text>
<line x1="900.00" y1="323.75" x2="918.00" y2="323.75" stroke="#6A1B9A" stroke-width="3" />
<text class="small" x="924.00" y="327.75">roll</text>
<text x="90" y="500.50" font-size="14" font-weight="700">Aceleração (magnitude) (u.a.)</text>
<rect class="event" x="443.33" y="506.50" width="66.25" height="192.75" />
<line class="eventline" x1="443.33" y1="506.50" x2="443.33" y2="699.25" />
<line class="eventline" x1="509.58" y1="506.50" x2="509.58" y2="699.25" />
<line class="grid" x1="90" y1="699.25" x2="1150" y2="699.25" />
<text class="small" x="80" y="703.25" text-anchor="end">0.00</text>
<line class="grid" x1="90" y1="660.70" x2="1150" y2="660.70" />
<text class="small" x="80" y="664.70" text-anchor="end">0.50</text>
<line class="grid" x1="90" y1="622.15" x2="1150" y2="622.15" />
<text class="small" x="80" y="626.15" text-anchor="end">1.00</text>
<line class="grid" x1="90" y1="583.60" x2="1150" y2="583.60" />
<text class="small" x="80" y="587.60" text-anchor="end">1.50</text>
<line class="grid" x1="90" y1="545.05" x2="1150" y2="545.05" />
<text class="small" x="80" y="549.05" text-anchor="end">2.00</text>
<line class="grid" x1="90" y1="506.50" x2="1150" y2="506.50" />
<text class="small" x="80" y="510.50" text-anchor="end">2.50</text>
<line class="grid" x1="90.00" y1="506.50" x2="90.00" y2="699.25" />
<line class="grid" x1="266.67" y1="506.50" x2="266.67" y2="699.25" />
<line class="grid" x1="443.33" y1="506.50" x2="443.33" y2="699.25" />
<line class="grid" x1="620.00" y1="506.50" x2="620.00" y2="699.25" />
<line class="grid" x1="796.67" y1="506.50" x2="796.67" y2="699.25" />
<line class="grid" x1="973.33" y1="506.50" x2="973.33" y2="699.25" />
<line class="grid" x1="1150.00" y1="506.50" x2="1150.00" y2="699.25" />
<line class="axis" x1="90" y1="506.50" x2="90" y2="699.25" />
<line class="axis" x1="90" y1="699.25" x2="1150" y2="699.25" />
<path class="series" d="M 178.33 696.30 L 179.81 691.23 L 181.28 697.99 L 182.75 696.07 L 184.22 693.77 L 185.69 689.37 L 187.17 690.46 L 188.64 691.31 L 190.11 690.10 L 191.58 694.42 L 193.06 690.66 L 194.53 693.73 L 196.00 673.76 L 197.47 686.40 L 198.94 692.72 L 200.42 687.80 L 201.89 687.80 L 203.36 695.30 L 204.83 693.51 L 206.31 693.51 L 207.78 695.06 L 209.25 691.75 L 210.72 692.93 L 212.19 694.59 L 213.67 694.83 L 215.14 692.93 L 216.61 692.52 L 218.08 694.21 L 219.56 690.27 L 221.03 690.41 L 222.50 681.44 L 223.97 677.87 L 225.44 686.21 L 226.92 687.86 L 228.39 695.30 L 229.86 694.55 L 231.33 688.80 L 232.81 683.18 L 234.28 692.88 L 235.75 690.66 L 237.22 672.97 L 238.69 680.59 L 240.17 684.55 L 241.64 685.74 L 243.11 685.50 L 244.58 685.97 L 246.06 687.73 L 247.53 683.89 L 249.00 697.09 L 250.47 693.06 L 251.94 688.34 L 253.42 693.32 L 254.89 688.82 L 256.36 692.23 L 257.83 693.81 L 259.31 691.38 L 260.78 696.17 L 262.25 688.74 L 263.72 694.95 L 265.19 689.79 L 266.67 691.40 L 268.14 695.50 L 269.61 692.06 L 271.08 688.61 L 272.56 683.93 L 274.03 689.82 L 275.50 690.21 L 276.97 690.30 L 278.44 686.82 L 279.92 687.24 L 281.39 692.30 L 282.86 678.69 L 284.33 693.20 L 285.81 684.80 L 287.28 681.86 L 288.75 685.22 L 290.22 684.16 L 291.69 688.13 L 293.17 691.78 L 294.64 675.63 L 296.11 661.95 L 297.58 681.87 L 299.06 671.12 L 300.53 670.77 L 302.00 665.76 L 303.47 618.73 L 304.94 626.65 L 306.42 648.91 L 307.89 674.23 L 309.36 682.26 L 310.83 670.68 L 312.31 659.75 L 313.78 651.27 L 315.25 669.21 L 316.72 679.55 L 318.19 678.64 L 319.67 670.85 L 321.14 668.55 L 322.61 663.16 L 324.08 672.05 L 325.56 651.47 L 327.03 633.93 L 328.50 664.63 L 329.97 665.45 L 331.44 688.48 L 332.92 669.19 L 334.39 669.19 L 335.86 682.03 L 337.33 684.06 L 338.81 688.90 L 340.28 680.11 L 341.75 682.89 L 343.22 663.89 L 344.69 686.86 L 346.17 669.96 L 347.64 685.60 L 349.11 665.34 L 350.58 681.45 L 352.06 675.11 L 353.53 667.53 L 355.00 643.26 L 356.47 673.77 L 357.94 663.00 L 359.42 662.39 L 360.89 662.02 L 362.36 681.76 L 363.83 649.64 L 365.31 586.78 L 366.78 619.24 L 368.25 684.00 L 369.72 659.55 L 371.19 648.49 L 372.67 641.87 L 374.14 637.12 L 375.61 653.47 L 377.08 575.77 L 378.56 609.05 L 380.03 682.28 L 381.50 672.42 L 382.97 656.42 L 384.44 666.04 L 385.92 655.92 L 387.39 679.46 L 388.86 662.29 L 390.33 681.21 L 391.81 667.37 L 393.28 638.08 L 394.75 652.69 L 396.22 657.28 L 397.69 615.21 L 399.17 629.64 L 400.64 670.49 L 402.11 676.73 L 403.58 696.47 L 405.06 654.62 L 406.53 665.49 L 408.00 667.80 L 409.47 666.18 L 410.94 678.19 L 412.42 687.59 L 413.89 661.05 L 415.36 602.87 L 416.83 634.19 L 418.31 660.22 L 419.78 685.41 L 421.25 690.57 L 422.72 683.72 L 424.19 688.53 L 425.67 685.27 L 427.14 673.20 L 428.61 677.49 L 430.08 660.10 L 431.56 686.41 L 433.03 688.30 L 434.50 684.61 L 435.97 695.53 L 437.44 694.78 L 438.92 694.01 L 440.39 687.07 L 441.86 680.08 L 443.33 694.82 L 444.81 694.37 L 446.28 696.40 L 447.75 696.64 L 449.22 693.53 L 450.69 695.78 L 452.17 698.62 L 453.64 697.73 L 455.11 697.33 L 456.58 698.25 L 458.06 698.35 L 459.53 697.39 L 461.00 698.87 L 462.47 698.32 L 463.94 698.32 L 465.42 698.03 L 466.89 698.51 L 468.36 695.45 L 469.83 690.40 L 471.31 695.82 L 472.78 696.27 L 474.25 697.13 L 475.72 698.83 L 477.19 698.08 L 478.67 698.26 L 480.14 697.43 L 481.61 698.47 L 483.08 698.40 L 484.56 694.55 L 486.03 698.23 L 487.50 695.91 L 488.97 695.18 L 490.44 695.79 L 491.92 697.78 L 493.39 698.06 L 494.86 698.57 L 496.33 698.33 L 497.81 698.25 L 499.28 697.94 L 500.75 696.93 L 502.22 688.98 L 503.69 675.20 L 505.17 697.00 L 506.64 698.29 L 508.11 698.47 L 509.58 675.17 L 511.06 653.31 L 512.53 687.52 L 514.00 662.45 L 515.47 674.01 L 516.94 694.69 L 518.42 691.43 L 519.89 655.99 L 521.36 692.06 L 522.83 671.29 L 524.31 682.80 L 525.78 688.68 L 527.25 690.22 L 528.72 691.44 L 530.19 680.78 L 531.67 687.94 L 533.14 696.48 L 534.61 691.38 L 536.08 673.35 L 537.56 693.31 L 539.03 695.32 L 540.50 691.71 L 541.97 691.33 L 543.44 673.59 L 544.92 687.65 L 546.39 672.75 L 547.86 691.24 L 549.33 678.86 L 550.81 676.21 L 552.28 654.61 L 553.75 631.28 L 555.22 619.97 L 556.69 681.05 L 558.17 658.12 L 559.64 650.63 L 561.11 650.09 L 562.58 659.38 L 564.06 594.90 L 565.53 641.23 L 567.00 660.66 L 568.47 663.82 L 569.94 631.27 L 571.42 674.00 L 572.89 669.92 L 574.36 671.12 L 575.83 663.16 L 577.31 683.79 L 578.78 639.59 L 580.25 588.98 L 581.72 630.93 L 583.19 660.65 L 584.67 650.61 L 586.14 638.88 L 587.61 674.95 L 589.08 674.95 L 590.56 656.39 L 592.03 642.96 L 593.50 650.85 L 594.97 643.97 L 596.44 652.93 L 597.92 667.07 L 599.39 661.96 L 600.86 664.50 L 602.33 622.27 L 603.81 642.96 L 605.28 641.71 L 606.75 637.63 L 608.22 649.23 L 609.69 685.14 L 611.17 669.91 L 612.64 688.75 L 614.11 666.64 L 615.58 673.63 L 617.06 653.63 L 618.53 679.06 L 620.00 667.87 L 621.47 638.67 L 622.94 664.01 L 624.42 653.14 L 625.89 660.01 L 627.36 664.23 L 628.83 669.52 L 630.31 652.52 L 631.78 669.51 L 633.25 673.47 L 634.72 683.66 L 636.19 677.87 L 637.67 686.76 L 639.14 679.93 L 640.61 683.08 L 642.08 687.17 L 643.56 669.30 L 645.03 628.91 L 646.50 657.90 L 647.97 689.20 L 649.44 690.33 L 650.92 687.53 L 652.39 678.79 L 653.86 691.01 L 655.33 689.82 L 656.81 680.70 L 658.28 682.82 L 659.75 684.28 L 661.22 688.01 L 662.69 681.94 L 664.17 681.69 L 665.64 681.15 L 667.11 660.81 L 668.58 673.10 L 670.06 689.39 L 671.53 681.03 L 673.00 685.87 L 674.47 666.86 L 675.94 690.40 L 677.42 695.82 L 678.89 691.09 L 680.36 688.80 L 681.83 683.96 L 683.31 681.06 L 684.78 685.84 L 686.25 688.73 L 687.72 681.79 L 689.19 695.17 L 690.67 679.86 L 692.14 683.69 L 693.61 676.22 L 695.08 679.11 L 696.56 695.86 L 698.03 693.31 L 699.50 688.71 L 700.97 695.86 L 702.44 679.51 L 703.92 671.41 L 705.39 681.49 L 706.86 662.08 L 708.33 678.87 L 709.81 681.94 L 711.28 680.29 L 712.75 674.64 L 714.22 689.82 L 715.69 691.36 L 717.17 689.89 L 718.64 689.89 L 720.11 695.27 L 721.58 694.66 L 723.06 685.35 L 724.53 680.80 L 726.00 690.80 L 727.47 678.27 L 728.94 675.36 L 730.42 680.99 L 731.89 678.95 L 733.36 654.13 L 734.83 618.01 L 736.31 646.41 L 737.78 658.27 L 739.25 670.12 L 740.72 671.84 L 742.19 676.21 L 743.67 658.36 L 745.14 624.41 L 746.61 585.09 L 748.08 579.67 L 749.56 543.18 L 751.03 618.80 L 752.50 660.49 L 753.97 674.06 L 755.44 659.23 L 756.92 649.34 L 758.39 628.71 L 759.86 606.78 L 761.33 655.14 L 762.81 683.29 L 764.28 676.69 L 765.75 694.90 L 767.22 691.78 L 768.69 665.85 L 770.17 678.32 L 771.64 666.59 L 773.11 680.09 L 774.58 687.32" stroke="#FB8C00" />
<text x="90" y="711.25" font-size="14" font-weight="700">Giroscópio (magnitude) (u.a.)</text>
<rect class="event" x="443.33" y="717.25" width="66.25" height="192.75" />
<line class="eventline" x1="443.33" y1="717.25" x2="443.33" y2="910.00" />
<line class="eventline" x1="509.58" y1="717.25" x2="509.58" y2="910.00" />
<line class="grid" x1="90" y1="910.00" x2="1150" y2="910.00" />
<text class="small" x="80" y="914.00" text-anchor="end">0.00</text>
<line class="grid" x1="90" y1="871.45" x2="1150" y2="871.45" />
<text class="small" x="80" y="875.45" text-anchor="end">0.10</text>
<line class="grid" x1="90" y1="832.90" x2="1150" y2="832.90" />
<text class="small" x="80" y="836.90" text-anchor="end">0.20</text>
<line class="grid" x1="90" y1="794.35" x2="1150" y2="794.35" />
<text class="small" x="80" y="798.35" text-anchor="end">0.30</text>
<line class="grid" x1="90" y1="755.80" x2="1150" y2="755.80" />
<text class="small" x="80" y="759.80" text-anchor="end">0.40</text>
<line class="grid" x1="90" y1="717.25" x2="1150" y2="717.25" />
<text class="small" x="80" y="721.25" text-anchor="end">0.50</text>
<line class="grid" x1="90.00" y1="717.25" x2="90.00" y2="910.00" />
<line class="grid" x1="266.67" y1="717.25" x2="266.67" y2="910.00" />
<line class="grid" x1="443.33" y1="717.25" x2="443.33" y2="910.00" />
<line class="grid" x1="620.00" y1="717.25" x2="620.00" y2="910.00" />
<line class="grid" x1="796.67" y1="717.25" x2="796.67" y2="910.00" />
<line class="grid" x1="973.33" y1="717.25" x2="973.33" y2="910.00" />
<line class="grid" x1="1150.00" y1="717.25" x2="1150.00" y2="910.00" />
<line class="axis" x1="90" y1="717.25" x2="90" y2="910.00" />
<line class="axis" x1="90" y1="910.00" x2="1150" y2="910.00" />
<path class="series" d="M 178.33 902.55 L 179.81 904.60 L 181.28 907.81 L 182.75 909.58 L 184.22 908.46 L 185.69 908.67 L 187.17 905.88 L 188.64 907.97 L 190.11 906.17 L 191.58 905.38 L 193.06 903.07 L 194.53 907.50 L 196.00 905.08 L 197.47 905.17 L 198.94 907.25 L 200.42 905.51 L 201.89 905.51 L 203.36 906.49 L 204.83 907.22 L 206.31 906.85 L 207.78 906.48 L 209.25 904.99 L 210.72 902.58 L 212.19 902.24 L 213.67 902.86 L 215.14 903.15 L 216.61 903.49 L 218.08 903.23 L 219.56 901.95 L 221.03 902.36 L 222.50 907.24 L 223.97 903.80 L 225.44 905.59 L 226.92 906.96 L 228.39 906.99 L 229.86 905.69 L 231.33 906.25 L 232.81 906.37 L 234.28 906.60 L 235.75 904.82 L 237.22 907.05 L 238.69 907.59 L 240.17 904.33 L 241.64 906.33 L 243.11 906.63 L 244.58 906.37 L 246.06 907.96 L 247.53 902.33 L 249.00 903.69 L 250.47 904.24 L 251.94 905.53 L 253.42 902.24 L 254.89 906.49 L 256.36 905.80 L 257.83 905.51 L 259.31 905.53 L 260.78 905.02 L 262.25 905.77 L 263.72 903.35 L 265.19 905.72 L 266.67 905.45 L 268.14 905.02 L 269.61 903.86 L 271.08 900.39 L 272.56 900.00 L 274.03 898.97 L 275.50 900.70 L 276.97 898.77 L 278.44 896.07 L 279.92 896.81 L 281.39 895.18 L 282.86 896.89 L 284.33 895.97 L 285.81 908.09 L 287.28 901.77 L 288.75 902.81 L 290.22 900.36 L 291.69 901.16 L 293.17 900.84 L 294.64 900.05 L 296.11 893.82 L 297.58 900.21 L 299.06 901.74 L 300.53 892.41 L 302.00 895.75 L 303.47 891.62 L 304.94 895.54 L 306.42 894.27 L 307.89 895.15 L 309.36 887.41 L 310.83 895.19 L 312.31 896.71 L 313.78 891.25 L 315.25 895.33 L 316.72 896.24 L 318.19 895.02 L 319.67 894.16 L 321.14 891.36 L 322.61 876.72 L 324.08 852.10 L 325.56 852.73 L 327.03 867.42 L 328.50 883.04 L 329.97 892.05 L 331.44 893.01 L 332.92 883.45 L 334.39 883.45 L 335.86 877.47 L 337.33 876.69 L 338.81 879.43 L 340.28 879.88 L 341.75 879.68 L 343.22 873.14 L 344.69 879.57 L 346.17 879.37 L 347.64 885.04 L 349.11 897.14 L 350.58 899.89 L 352.06 882.46 L 353.53 893.74 L 355.00 899.65 L 356.47 901.82 L 357.94 892.31 L 359.42 897.27 L 360.89 899.75 L 362.36 901.10 L 363.83 893.06 L 365.31 889.91 L 366.78 895.44 L 368.25 899.20 L 369.72 898.52 L 371.19 901.88 L 372.67 903.07 L 374.14 905.79 L 375.61 894.75 L 377.08 895.05 L 378.56 897.64 L 380.03 889.88 L 381.50 892.69 L 382.97 895.54 L 384.44 891.09 L 385.92 896.91 L 387.39 889.22 L 388.86 900.66 L 390.33 895.64 L 391.81 900.33 L 393.28 899.17 L 394.75 902.19 L 396.22 894.06 L 397.69 892.18 L 399.17 894.44 L 400.64 891.82 L 402.11 887.50 L 403.58 891.87 L 405.06 906.18 L 406.53 902.22 L 408.00 890.93 L 409.47 862.46 L 410.94 842.88 L 412.42 835.66 L 413.89 838.08 L 415.36 864.77 L 416.83 900.37 L 418.31 907.68 L 419.78 902.81 L 421.25 904.93 L 422.72 907.76 L 424.19 902.06 L 425.67 884.04 L 427.14 863.90 L 428.61 863.44 L 430.08 868.78 L 431.56 876.96 L 433.03 887.91 L 434.50 901.53 L 435.97 907.86 L 437.44 908.05 L 438.92 904.96 L 440.39 902.69 L 441.86 906.80 L 443.33 909.13 L 444.81 908.37 L 446.28 908.53 L 447.75 908.58 L 449.22 909.04 L 450.69 909.17 L 452.17 908.68 L 453.64 909.02 L 455.11 909.16 L 456.58 908.98 L 458.06 908.80 L 459.53 909.13 L 461.00 909.05 L 462.47 908.93 L 463.94 908.93 L 465.42 909.10 L 466.89 909.06 L 468.36 908.77 L 469.83 909.22 L 471.31 908.96 L 472.78 909.10 L 474.25 909.15 L 475.72 909.05 L 477.19 908.97 L 478.67 909.05 L 480.14 908.83 L 481.61 909.07 L 483.08 909.03 L 484.56 908.94 L 486.03 909.02 L 487.50 909.00 L 488.97 909.11 L 490.44 909.01 L 491.92 909.04 L 493.39 909.05 L 494.86 908.96 L 496.33 909.13 L 497.81 909.05 L 499.28 908.89 L 500.75 909.12 L 502.22 908.12 L 503.69 909.06 L 505.17 908.94 L 506.64 909.12 L 508.11 909.18 L 509.58 905.15 L 511.06 898.84 L 512.53 899.13 L 514.00 900.77 L 515.47 907.77 L 516.94 908.21 L 518.42 906.50 L 519.89 907.21 L 521.36 904.97 L 522.83 904.03 L 524.31 906.21 L 525.78 906.86 L 527.25 906.36 L 528.72 903.96 L 530.19 902.05 L 531.67 902.07 L 533.14 900.06 L 534.61 898.77 L 536.08 901.36 L 537.56 904.55 L 539.03 902.53 L 540.50 902.90 L 541.97 898.48 L 543.44 895.55 L 544.92 898.33 L 546.39 886.50 L 547.86 878.68 L 549.33 871.28 L 550.81 862.88 L 552.28 850.05 L 553.75 829.47 L 555.22 803.28 L 556.69 829.99 L 558.17 849.46 L 559.64 859.70 L 561.11 879.11 L 562.58 890.91 L 564.06 890.20 L 565.53 889.75 L 567.00 896.67 L 568.47 903.18 L 569.94 874.06 L 571.42 872.62 L 572.89 870.93 L 574.36 876.54 L 575.83 891.26 L 577.31 894.69 L 578.78 901.42 L 580.25 878.28 L 581.72 853.17 L 583.19 863.85 L 584.67 897.52 L 586.14 891.46 L 587.61 901.79 L 589.08 901.79 L 590.56 906.85 L 592.03 877.95 L 593.50 870.48 L 594.97 859.23 L 596.44 850.56 L 597.92 850.28 L 599.39 846.96 L 600.86 873.17 L 602.33 870.78 L 603.81 881.94 L 605.28 875.08 L 606.75 857.53 L 608.22 870.63 L 609.69 876.99 L 611.17 876.61 L 612.64 878.41 L 614.11 873.87 L 615.58 880.05 L 617.06 880.09 L 618.53 881.25 L 620.00 882.34 L 621.47 891.28 L 622.94 885.26 L 624.42 894.59 L 625.89 892.89 L 627.36 898.62 L 628.83 895.87 L 630.31 890.14 L 631.78 886.82 L 633.25 890.61 L 634.72 898.15 L 636.19 901.68 L 637.67 906.12 L 639.14 905.00 L 640.61 899.73 L 642.08 904.84 L 643.56 903.86 L 645.03 900.41 L 646.50 899.23 L 647.97 900.27 L 649.44 904.43 L 650.92 906.10 L 652.39 902.00 L 653.86 906.59 L 655.33 904.76 L 656.81 903.72 L 658.28 903.88 L 659.75 904.33 L 661.22 893.13 L 662.69 893.86 L 664.17 896.04 L 665.64 902.35 L 667.11 904.66 L 668.58 904.91 L 670.06 902.55 L 671.53 903.92 L 673.00 904.82 L 674.47 900.38 L 675.94 901.16 L 677.42 906.59 L 678.89 906.66 L 680.36 907.82 L 681.83 906.84 L 683.31 902.51 L 684.78 902.59 L 686.25 904.63 L 687.72 902.80 L 689.19 905.61 L 690.67 904.17 L 692.14 903.49 L 693.61 905.78 L 695.08 900.22 L 696.56 905.51 L 698.03 906.45 L 699.50 901.11 L 700.97 897.86 L 702.44 895.00 L 703.92 903.15 L 705.39 905.83 L 706.86 904.13 L 708.33 899.09 L 709.81 896.71 L 711.28 897.76 L 712.75 897.54 L 714.22 903.15 L 715.69 904.51 L 717.17 906.12 L 718.64 906.12 L 720.11 903.70 L 721.58 906.54 L 723.06 898.71 L 724.53 904.59 L 726.00 905.85 L 727.47 902.87 L 728.94 893.47 L 730.42 889.39 L 731.89 887.67 L 733.36 881.06 L 734.83 878.83 L 736.31 856.71 L 737.78 851.13 L 739.25 828.15 L 740.72 826.03 L 742.19 836.16 L 743.67 844.35 L 745.14 878.90 L 746.61 901.61 L 748.08 862.83 L 749.56 823.98 L 751.03 813.86 L 752.50 836.89 L 753.97 835.87 L 755.44 858.06 L 756.92 882.56 L 758.39 899.03 L 759.86 859.92 L 761.33 856.71 L 762.81 867.04 L 764.28 878.98 L 765.75 880.22 L 767.22 879.50 L 768.69 896.29 L 770.17 900.52 L 771.64 907.95 L 773.11 907.17 L 774.58 902.48" stroke="#E53935" />
<text x="620.00" y="952" font-size="15" text-anchor="middle">minutos (relativo ao início do evento)</text>
<text class="small" x="90.00" y="936" text-anchor="middle">-4.00</text>
<text class="small" x="266.67" y="936" text-anchor="middle">-2.00</text>
<text class="small" x="443.33" y="936" text-anchor="middle">0.00</text>
<text class="small" x="620.00" y="936" text-anchor="middle">2.00</text>
<text class="small" x="796.67" y="936" text-anchor="middle">4.00</text>
<text class="small" x="973.33" y="936" text-anchor="middle">6.00</text>
<text class="small" x="1150.00" y="936" text-anchor="middle">8.00</text>
</svg>