<?xml version="1.0" encoding="UTF-8"?>
<svg xmlns="http://www.w3.org/2000/svg" width="1180" height="980" viewBox="0 0 1180 980">
<style>
text { font-family: -apple-system, BlinkMacSystemFont, 'Segoe UI', Roboto, Helvetica, Arial, sans-serif; fill: #111; }
.small { font-size: 12px; fill: #222; }
.title { font-size: 18px; font-weight: 700; }
.axis { stroke: #111; stroke-width: 1.4; }
.grid { stroke: #E6E6E6; stroke-width: 1; }
.event { fill: #FFEB3B; fill-opacity: 0.18; }
.eventline { stroke: #F9A825; stroke-width: 1.2; stroke-dasharray: 4 3; }
.series { fill: none; stroke-width: 1.8; }
</style>
<text class="title" x="90" y="34">ciclo 17 — carregamento — 2025-12-12T22:16:50-03:00 → 2025-12-12T22:19:57-03:00 (span 187s, dur 188s)</text>
<text class="small" x="90" y="54">GPS: -11.699055,-47.157400  hotspot: -11.699,-47.157</text>
<text class="small" x="90" y="70">Janela: -3.00 → 6.12 min (relativo ao início do evento)</text>
<text x="90" y="79.00" font-size="14" font-weight="700">Velocidade (km/h)</text>
<rect class="event" x="443.33" y="85.00" width="275.31" height="192.75" />
<line class="eventline" x1="443.33" y1="85.00" x2="443.33" y2="277.75" />
<line class="eventline" x1="718.64" y1="85.00" x2="718.64" y2="277.75" />
<line class="grid" x1="90" y1="277.75" x2="1150" y2="277.75" />
<text class="small" x="80" y="281.75" text-anchor="end">0.00</text>
<line class="grid" x1="90" y1="239.20" x2="1150" y2="239.20" />
<text class="small" x="80" y="243.20" text-anchor="end">10.0</text>
<line class="grid" x1="90" y1="200.65" x2="1150" y2="200.65" />
<text class="small" x="80" y="204.65" text-anchor="end">20.0</text>
<line class="grid" x1="90" y1="162.10" x2="1150" y2="162.10" />
<text class="small" x="80" y="166.10" text-anchor="end">30.0</text>
<line class="grid" x1="90" y1="123.55" x2="1150" y2="123.55" />
<text class="small" x="80" y="127.55" text-anchor="end">40.0</text>
<line class="grid" x1="90" y1="85.00" x2="1150" y2="85.00" />
<text class="small" x="80" y="89.00" text-anchor="end">50.0</text>
<line class="grid" x1="90.00" y1="85.00" x2="90.00" y2="277.75" />
<line class="grid" x1="266.67" y1="85.00" x2="266.67" y2="277.75" />
<line class="grid" x1="443.33" y1="85.00" x2="443.33" y2="277.75" />
<line class="grid" x1="620.00" y1="85.00" x2="620.00" y2="277.75" />
<line class="grid" x1="796.67" y1="85.00" x2="796.67" y2="277.75" />
<line class="grid" x1="973.33" y1="85.00" x2="973.33" y2="277.75" />
<line class="grid" x1="1150.00" y1="85.00" x2="1150.00" y2="277.75" />
<line class="axis" x1="90" y1="85.00" x2="90" y2="277.75" />
<line class="axis" x1="90" y1="277.75" x2="1150" y2="277.75" />
<path class="series" d="M 178.33 199.76 L 179.81 209.89 L 181.28 216.96 L 182.75 221.41 L 184.22 218.35 L 185.69 217.66 L 187.17 213.49 L 188.64 212.38 L 190.11 208.78 L 191.58 204.61 L 193.06 203.50 L 194.53 198.09 L 196.00 195.04 L 197.47 193.51 L 198.94 194.07 L 200.42 196.15 L 201.89 197.26 L 203.36 195.87 L 204.83 194.76 L 206.31 200.17 L 207.78 198.92 L 209.25 191.57 L 210.72 174.36 L 212.19 174.08 L 213.67 172.28 L 215.14 174.36 L 216.61 185.46 L 218.08 191.85 L 219.56 204.89 L 221.03 197.54 L 222.50 197.67 L 223.97 194.34 L 225.44 190.04 L 226.92 188.79 L 228.39 193.51 L 229.86 195.87 L 231.33 195.31 L 232.81 191.29 L 234.28 188.93 L 235.75 186.71 L 237.22 186.85 L 238.69 183.10 L 240.17 187.27 L 241.64 188.93 L 243.11 189.90 L 244.58 183.52 L 246.06 186.57 L 247.53 188.79 L 249.00 190.04 L 250.47 191.01 L 251.94 192.26 L 253.42 195.59 L 254.89 196.15 L 256.36 198.23 L 257.83 199.06 L 259.31 207.25 L 260.78 206.42 L 262.25 209.05 L 263.72 208.64 L 265.19 206.69 L 266.67 201.14 L 268.14 208.08 L 269.61 210.44 L 271.08 208.36 L 272.56 207.94 L 274.03 206.97 L 275.50 216.55 L 276.97 217.24 L 278.44 221.27 L 279.92 233.20 L 281.39 237.23 L 282.86 251.10 L 284.33 245.69 L 285.81 248.74 L 287.28 250.83 L 288.75 250.27 L 290.22 251.38 L 291.69 250.97 L 293.17 254.71 L 294.64 252.63 L 296.11 256.66 L 297.58 261.10 L 299.06 255.55 L 300.53 251.80 L 302.00 256.52 L 303.47 262.21 L 304.94 269.98 L 306.42 277.75 L 307.89 277.75 L 309.36 277.75 L 310.83 277.75 L 312.31 277.75 L 313.78 277.75 L 315.25 277.75 L 316.72 277.75 L 318.19 277.75 L 319.67 277.75 L 321.14 277.75 L 322.61 277.75 L 324.08 277.75 L 325.56 277.75 L 327.03 277.75 L 328.50 277.75 L 329.97 277.75 L 331.44 277.75 L 332.92 277.75 L 334.39 277.75 L 335.86 277.75 L 337.33 277.75 L 338.81 277.75 L 340.28 277.75 L 341.75 277.75 L 343.22 277.75 L 344.69 277.75 L 346.17 277.75 L 347.64 277.75 L 349.11 277.75 L 350.58 277.75 L 352.06 277.75 L 353.53 277.75 L 355.00 277.75 L 356.47 277.75 L 357.94 277.75 L 359.42 277.75 L 360.89 277.75 L 362.36 277.75 L 363.83 277.75 L 365.31 277.75 L 366.78 277.75 L 368.25 277.75 L 369.72 277.75 L 371.19 277.75 L 372.67 277.75 L 374.14 277.75 L 375.61 271.37 L 377.08 271.23 L 378.56 269.98 L 380.03 271.92 L 381.50 271.09 L 382.97 271.23 L 384.44 271.23 L 385.92 273.45 L 387.39 277.75 L 388.86 277.75 L 390.33 277.75 L 391.81 277.75 L 393.28 277.75 L 394.75 277.75 L 396.22 270.26 L 397.69 270.12 L 399.17 269.56 L 400.64 267.34 L 402.11 256.24 L 403.58 259.85 L 405.06 261.51 L 406.53 261.24 L 408.00 261.37 L 409.47 263.73 L 410.94 263.87 L 412.42 259.85 L 413.89 262.48 L 415.36 263.73 L 416.83 264.98 L 418.31 277.75 L 419.78 277.75 L 421.25 266.51 L 422.72 268.31 L 424.19 270.12 L 425.67 277.75 L 427.14 277.75 L 428.61 277.75 L 430.08 277.75 L 431.56 267.20 L 433.03 270.26 L 434.50 269.28 L 435.97 268.59 L 437.44 277.75 L 438.92 277.75 L 440.39 269.42 L 441.86 270.95 L 443.33 277.75 L 444.81 277.75 L 446.28 277.75 L 447.75 277.75 L 449.22 277.75 L 450.69 277.75 L 452.17 277.75 L 453.64 277.75 L 455.11 277.75 L 456.58 277.75 L 458.06 277.75 L 459.53 277.75 L 461.00 277.75 L 462.47 277.75 L 463.94 277.75 L 465.42 277.75 L 466.89 277.75 L 468.36 277.75 L 469.83 277.75 L 471.31 277.75 L 472.78 277.75 L 474.25 277.75 L 475.72 277.75 L 477.19 277.75 L 478.67 277.75 L 480.14 277.75 L 481.61 277.75 L 483.08 277.75 L 484.56 277.75 L 486.03 277.75 L 487.50 277.75 L 488.97 277.75 L 490.44 277.75 L 491.92 277.75 L 493.39 277.75 L 494.86 277.75 L 496.33 277.75 L 497.81 277.75 L 499.28 277.75 L 500.75 277.75 L 502.22 277.75 L 503.69 277.75 L 505.17 277.75 L 506.64 277.75 L 508.11 277.75 L 509.58 277.75 L 511.06 277.75 L 512.53 277.75 L 514.00 277.75 L 515.47 277.75 L 516.94 277.75 L 518.42 277.75 L 519.89 277.75 L 521.36 277.75 L 522.83 277.75 L 524.31 277.75 L 525.78 277.75 L 527.25 277.75 L 528.72 277.75 L 530.19 277.75 L 531.67 277.75 L 533.14 277.75 L 534.61 277.75 L 536.08 277.75 L 537.56 277.75 L 539.03 277.75 L 540.50 277.75 L 541.97 277.75 L 543.44 277.75 L 544.92 277.75 L 546.39 277.75 L 547.86 277.75 L 549.33 277.75 L 550.81 277.75 L 552.28 277.75 L 553.75 277.75 L 555.22 277.75 L 556.69 277.75 L 558.17 277.75 L 559.64 277.75 L 561.11 277.75 L 562.58 277.75 L 564.06 277.75 L 565.53 277.75 L 567.00 277.75 L 568.47 277.75 L 569.94 277.75 L 571.42 277.75 L 572.89 277.75 L 574.36 277.75 L 575.83 277.75 L 577.31 277.75 L 578.78 277.75 L 580.25 277.75 L 581.72 277.75 L 583.19 277.75 L 584.67 277.75 L 586.14 277.75 L 587.61 277.75 L 589.08 277.75 L 590.56 277.75 L 592.03 277.75 L 593.50 277.75 L 594.97 277.75 L 596.44 277.75 L 597.92 277.75 L 599.39 277.75 L 600.86 277.75 L 602.33 277.75 L 603.81 277.75 L 605.28 277.75 L 606.75 277.75 L 608.22 277.75 L 609.69 277.75 L 611.17 277.75 L 612.64 277.75 L 614.11 277.75 L 615.58 277.75 L 617.06 277.75 L 618.53 277.75 L 620.00 277.75 L 621.47 277.75 L 622.94 277.75 L 624.42 277.75 L 625.89 277.75 L 627.36 277.75 L 628.83 277.75 L 630.31 277.75 L 631.78 277.75 L 633.25 277.75 L 634.72 277.75 L 636.19 277.75 L 637.67 277.75 L 639.14 277.75 L 640.61 277.75 L 642.08 277.75 L 643.56 277.75 L 645.03 277.75 L 646.50 277.75 L 647.97 277.75 L 649.44 277.75 L 650.92 277.75 L 652.39 277.75 L 653.86 277.75 L 655.33 277.75 L 656.81 277.75 L 658.28 277.75 L 659.75 277.75 L 661.22 277.75 L 662.69 277.75 L 664.17 277.75 L 665.64 277.75 L 667.11 277.75 L 668.58 277.75 L 670.06 277.75 L 671.53 277.75 L 673.00 277.75 L 674.47 277.75 L 675.94 277.75 L 677.42 277.75 L 678.89 277.75 L 680.36 277.75 L 681.83 277.75 L 683.31 277.75 L 684.78 277.75 L 686.25 277.75 L 687.72 277.75 L 689.19 277.75 L 690.67 277.75 L 692.14 277.75 L 693.61 277.75 L 695.08 277.75 L 696.56 277.75 L 698.03 277.75 L 699.50 277.75 L 700.97 277.75 L 702.44 277.75 L 703.92 277.75 L 705.39 277.75 L 706.86 277.75 L 708.33 277.75 L 709.81 277.75 L 711.28 277.75 L 712.75 277.75 L 714.22 277.75 L 715.69 277.75 L 717.17 277.75 L 718.64 277.75 L 720.11 264.43 L 721.58 263.46 L 723.06 267.62 L 724.53 263.04 L 726.00 259.15 L 727.47 261.65 L 728.94 256.66 L 730.42 257.90 L 731.89 256.52 L 733.36 254.43 L 734.83 255.55 L 736.31 255.27 L 737.78 254.02 L 739.25 252.08 L 740.72 251.52 L 742.19 250.69 L 743.67 249.86 L 745.14 259.01 L 746.61 250.13 L 748.08 244.03 L 749.56 240.70 L 751.03 239.17 L 752.50 231.68 L 753.97 229.04 L 755.44 225.85 L 756.92 231.54 L 758.39 229.87 L 759.86 220.99 L 761.33 221.41 L 762.81 225.85 L 764.28 221.41 L 765.75 219.46 L 767.22 216.55 L 768.69 215.99 L 770.17 218.63 L 771.64 218.21 L 773.11 215.99 L 774.58 213.77 L 776.06 210.72 L 777.53 212.94 L 779.00 213.63 L 780.47 214.61 L 781.94 213.77 L 783.42 214.88 L 784.89 215.02 L 786.36 206.83 L 787.83 207.53 L 789.31 206.56 L 790.78 209.47 L 792.25 208.78 L 793.72 208.50 L 795.19 208.92 L 796.67 209.75 L 798.14 208.08 L 799.61 203.50 L 801.08 202.11 L 802.56 206.83 L 804.03 206.00 L 805.50 209.61 L 806.97 210.30 L 808.44 208.92 L 809.92 207.11 L 811.39 207.39 L 812.86 215.72 L 814.33 215.85 L 815.81 219.18 L 817.28 219.74 L 818.75 222.93 L 820.22 225.85 L 821.69 228.48 L 823.17 233.34 L 824.64 235.70 L 826.11 240.14 L 827.58 242.50 L 829.06 240.42 L 830.53 238.75 L 832.00 240.56 L 833.47 244.44 L 834.94 248.88 L 836.42 255.68 L 837.89 253.19 L 839.36 252.77 L 840.83 248.47 L 842.31 248.88 L 843.78 248.05 L 845.25 248.47 L 846.72 249.16 L 848.19 248.61 L 849.67 247.50 L 851.14 245.55 L 852.61 241.81 L 854.08 243.61 L 855.56 245.28 L 857.03 244.44 L 858.50 246.80 L 859.97 248.61 L 861.44 250.13 L 862.92 254.71 L 864.39 257.21 L 865.86 261.10 L 867.33 257.35 L 868.81 254.71 L 870.28 253.60 L 871.75 252.21 L 873.22 252.77 L 874.69 248.33 L 876.17 243.47 L 877.64 239.17 L 879.11 238.20 L 880.58 227.65 L 882.06 221.27 L 883.53 220.71 L 885.00 216.96 L 886.47 213.22 L 887.94 210.72 L 889.42 207.67 L 890.89 206.42 L 892.36 206.28 L 893.83 211.27 L 895.31 214.19 L 896.78 217.80 L 898.25 218.35 L 899.72 219.74 L 901.19 221.27 L 902.67 222.52 L 904.14 222.65 L 905.61 226.82 L 907.08 228.90 L 908.56 230.70 L 910.03 232.51 L 911.50 235.14 L 912.97 239.59 L 914.44 237.23 L 915.92 237.78 L 917.39 237.64 L 918.86 238.06 L 920.33 239.03 L 921.81 240.28 L 923.28 241.94 L 924.75 243.89 L 926.22 245.97 L 927.69 248.33 L 929.17 252.77 L 930.64 253.32 L 932.11 251.24 L 933.58 250.83 L 935.06 251.52 L 936.53 254.71 L 938.00 255.96 L 939.47 255.68 L 940.94 256.24 L 942.42 258.04 L 943.89 256.79 L 945.36 258.60 L 946.83 258.32 L 948.31 256.38 L 949.78 252.08 L 951.25 253.19 L 952.72 255.27 L 954.19 253.74 L 955.67 251.94 L 957.14 249.58 L 958.61 248.33 L 960.08 248.61 L 961.56 246.66 L 963.03 247.63 L 964.50 246.11 L 965.97 247.36 L 967.44 245.97 L 968.92 246.52 L 970.39 245.55 L 971.86 247.63 L 973.33 244.58 L 974.81 244.44 L 976.28 243.06 L 977.75 242.92 L 979.22 240.28 L 980.69 240.28 L 982.17 237.92 L 983.64 236.53" stroke="#1976D2" />
<text x="90" y="289.75" font-size="14" font-weight="700">Inclinação (graus)</text>
<rect class="event" x="443.33" y="295.75" width="275.31" height="192.75" />
<line class="eventline" x1="443.33" y1="295.75" x2="443.33" y2="488.50" />
<line class="eventline" x1="718.64" y1="295.75" x2="718.64" y2="488.50" />
<line class="grid" x1="90" y1="488.50" x2="1150" y2="488.50" />
<text class="small" x="80" y="492.50" text-anchor="end">-20.0</text>
<line class="grid" x1="90" y1="449.95" x2="1150" y2="449.95" />
<text class="small" x="80" y="453.95" text-anchor="end">-10.0</text>
<line class="grid" x1="90" y1="411.40" x2="1150" y2="411.40" />
<text class="small" x="80" y="415.40" text-anchor="end">0.00</text>
<line class="grid" x1="90" y1="372.85" x2="1150" y2="372.85" />
<text class="small" x="80" y="376.85" text-anchor="end">10.0</text>
<line class="grid" x1="90" y1="334.30" x2="1150" y2="334.30" />
<text class="small" x="80" y="338.30" text-anchor="end">20.0</text>
<line class="grid" x1="90" y1="295.75" x2="1150" y2="295.75" />
<text class="small" x="80" y="299.75" text-anchor="end">30.0</text>
<line class="grid" x1="90.00" y1="295.75" x2="90.00" y2="488.50" />
<line class="grid" x1="266.67" y1="295.75" x2="266.67" y2="488.50" />
<line class="grid" x1="443.33" y1="295.75" x2="443.33" y2="488.50" />
<line class="grid" x1="620.00" y1="295.75" x2="620.00" y2="488.50" />
<line class="grid" x1="796.67" y1="295.75" x2="796.67" y2="488.50" />
<line class="grid" x1="973.33" y1="295.75" x2="973.33" y2="488.50" />
<line class="grid" x1="1150.00" y1="295.75" x2="1150.00" y2="488.50" />
<line class="axis" x1="90" y1="295.75" x2="90" y2="488.50" />
<line class="axis" x1="90" y1="488.50" x2="1150" y2="488.50" />
<path class="series" d="M 178.33 329.56 L 179.81 334.09 L 181.28 339.04 L 182.75 350.95 L 184.22 353.24 L 185.69 350.19 L 187.17 348.97 L 188.64 354.45 L 190.11 350.20 L 191.58 348.43 L 193.06 368.02 L 194.53 364.43 L 196.00 363.60 L 197.47 371.38 L 198.94 357.79 L 200.42 359.30 L 201.89 367.08 L 203.36 360.80 L 204.83 364.41 L 206.31 349.56 L 207.78 352.53 L 209.25 344.16 L 210.72 352.26 L 212.19 361.15 L 213.67 359.53 L 215.14 350.16 L 216.61 360.64 L 218.08 362.47 L 219.56 371.61 L 221.03 373.28 L 222.50 373.13 L 223.97 376.51 L 225.44 371.59 L 226.92 356.37 L 228.39 356.50 L 229.86 366.88 L 231.33 376.05 L 232.81 381.89 L 234.28 370.18 L 235.75 368.85 L 237.22 371.44 L 238.69 370.56 L 240.17 367.20 L 241.64 361.76 L 243.11 370.55 L 244.58 358.16 L 246.06 360.71 L 247.53 362.77 L 249.00 362.44 L 250.47 362.42 L 251.94 358.91 L 253.42 356.16 L 254.89 359.12 L 256.36 357.15 L 257.83 354.38 L 259.31 364.85 L 260.78 362.09 L 262.25 364.91 L 263.72 366.08 L 265.19 370.20 L 266.67 360.17 L 268.14 367.36 L 269.61 368.38 L 271.08 369.22 L 272.56 359.45 L 274.03 359.45 L 275.50 359.22 L 276.97 349.78 L 278.44 353.91 L 279.92 366.90 L 281.39 358.92 L 282.86 370.78 L 284.33 389.63 L 285.81 368.66 L 287.28 373.06 L 288.75 362.69 L 290.22 365.19 L 291.69 362.98 L 293.17 364.29 L 294.64 363.36 L 296.11 362.93 L 297.58 367.64 L 299.06 371.28 L 300.53 365.33 L 302.00 352.81 L 303.47 349.27 L 304.94 343.92 L 306.42 351.77 L 307.89 354.09 L 309.36 357.03 L 310.83 357.03 L 312.31 357.07 L 313.78 357.52 L 315.25 356.54 L 316.72 356.98 L 318.19 356.97 L 319.67 356.96 L 321.14 356.99 L 322.61 356.94 L 324.08 357.01 L 325.56 357.01 L 327.03 356.96 L 328.50 356.90 L 329.97 357.00 L 331.44 356.90 L 332.92 357.01 L 334.39 356.90 L 335.86 356.92 L 337.33 356.85 L 338.81 356.91 L 340.28 356.94 L 341.75 356.90 L 343.22 356.93 L 344.69 356.85 L 346.17 357.03 L 347.64 356.95 L 349.11 356.93 L 350.58 357.72 L 352.06 356.55 L 353.53 357.30 L 355.00 357.30 L 356.47 357.28 L 357.94 357.28 L 359.42 357.22 L 360.89 357.16 L 362.36 357.42 L 363.83 357.06 L 365.31 358.87 L 366.78 346.12 L 368.25 361.44 L 369.72 354.24 L 371.19 356.34 L 372.67 359.36 L 374.14 360.61 L 375.61 361.72 L 377.08 360.32 L 378.56 360.34 L 380.03 361.93 L 381.50 361.49 L 382.97 359.53 L 384.44 364.02 L 385.92 365.97 L 387.39 367.22 L 388.86 362.93 L 390.33 362.80 L 391.81 362.82 L 393.28 362.82 L 394.75 354.45 L 396.22 358.34 L 397.69 363.20 L 399.17 357.74 L 400.64 352.94 L 402.11 352.67 L 403.58 356.92 L 405.06 352.70 L 406.53 351.87 L 408.00 352.94 L 409.47 352.36 L 410.94 351.07 L 412.42 366.77 L 413.89 361.76 L 415.36 368.13 L 416.83 366.43 L 418.31 362.68 L 419.78 359.64 L 421.25 358.27 L 422.72 355.50 L 424.19 352.05 L 425.67 349.68 L 427.14 356.89 L 428.61 349.26 L 430.08 351.46 L 431.56 354.95 L 433.03 355.85 L 434.50 353.04 L 435.97 358.28 L 437.44 358.16 L 438.92 351.72 L 440.39 358.29 L 441.86 364.53 L 443.33 353.83 L 444.81 357.96 L 446.28 362.19 L 447.75 362.01 L 449.22 359.43 L 450.69 359.84 L 452.17 365.75 L 453.64 356.00 L 455.11 360.18 L 456.58 355.17 L 458.06 356.97 L 459.53 357.21 L 461.00 357.21 L 462.47 357.13 L 463.94 357.18 L 465.42 357.25 L 466.89 357.13 L 468.36 357.12 L 469.83 357.18 L 471.31 357.07 L 472.78 357.12 L 474.25 357.05 L 475.72 357.11 L 477.19 357.10 L 478.67 357.07 L 480.14 357.07 L 481.61 357.01 L 483.08 357.07 L 484.56 357.05 L 486.03 357.06 L 487.50 357.05 L 488.97 357.03 L 490.44 357.11 L 491.92 357.13 L 493.39 356.86 L 494.86 355.77 L 496.33 355.85 L 497.81 356.21 L 499.28 356.01 L 500.75 356.10 L 502.22 356.08 L 503.69 356.07 L 505.17 356.08 L 506.64 356.07 L 508.11 356.05 L 509.58 356.07 L 511.06 356.07 L 512.53 356.04 L 514.00 356.05 L 515.47 356.04 L 516.94 356.04 L 518.42 356.04 L 519.89 356.04 L 521.36 356.02 L 522.83 355.99 L 524.31 355.98 L 525.78 356.01 L 527.25 356.08 L 528.72 356.01 L 530.19 355.63 L 531.67 355.16 L 533.14 355.26 L 534.61 355.41 L 536.08 355.30 L 537.56 355.40 L 539.03 355.38 L 540.50 355.35 L 541.97 355.37 L 543.44 355.36 L 544.92 355.39 L 546.39 355.38 L 547.86 355.35 L 549.33 355.31 L 550.81 355.32 L 552.28 355.34 L 553.75 355.34 L 555.22 355.33 L 556.69 355.33 L 558.17 355.42 L 559.64 355.38 L 561.11 355.82 L 562.58 356.47 L 564.06 355.84 L 565.53 356.09 L 567.00 356.06 L 568.47 356.11 L 569.94 356.05 L 571.42 356.15 L 572.89 356.09 L 574.36 356.14 L 575.83 356.08 L 577.31 356.11 L 578.78 356.13 L 580.25 356.06 L 581.72 356.12 L 583.19 356.10 L 584.67 356.13 L 586.14 356.15 L 587.61 356.02 L 589.08 356.11 L 590.56 356.12 L 592.03 355.14 L 593.50 355.76 L 594.97 355.52 L 596.44 355.62 L 597.92 355.66 L 599.39 355.60 L 600.86 355.71 L 602.33 355.62 L 603.81 355.65 L 605.28 355.66 L 606.75 355.63 L 608.22 355.63 L 609.69 355.63 L 611.17 355.61 L 612.64 355.67 L 614.11 355.67 L 615.58 355.68 L 617.06 355.53 L 618.53 355.89 L 620.00 355.93 L 621.47 356.16 L 622.94 356.49 L 624.42 356.23 L 625.89 356.36 L 627.36 356.26 L 628.83 356.28 L 630.31 356.25 L 631.78 356.26 L 633.25 356.31 L 634.72 356.26 L 636.19 356.30 L 637.67 356.28 L 639.14 356.29 L 640.61 356.25 L 642.08 356.28 L 643.56 356.31 L 645.03 356.27 L 646.50 356.30 L 647.97 356.27 L 649.44 356.31 L 650.92 356.33 L 652.39 356.26 L 653.86 356.32 L 655.33 356.30 L 656.81 356.24 L 658.28 356.47 L 659.75 357.16 L 661.22 357.25 L 662.69 357.43 L 664.17 357.43 L 665.64 357.33 L 667.11 357.27 L 668.58 357.25 L 670.06 357.30 L 671.53 357.37 L 673.00 357.32 L 674.47 357.36 L 675.94 357.33 L 677.42 357.35 L 678.89 357.36 L 680.36 357.34 L 681.83 357.35 L 683.31 357.41 L 684.78 357.40 L 686.25 357.40 L 687.72 357.40 L 689.19 357.41 L 690.67 357.34 L 692.14 357.40 L 693.61 357.39 L 695.08 357.39 L 696.56 357.87 L 698.03 357.94 L 699.50 357.29 L 700.97 356.72 L 702.44 358.05 L 703.92 364.41 L 705.39 359.42 L 706.86 357.32 L 708.33 352.37 L 709.81 368.24 L 711.28 359.04 L 712.75 361.51 L 714.22 363.52 L 715.69 371.11 L 717.17 366.89 L 718.64 359.49 L 720.11 362.64 L 721.58 350.75 L 723.06 361.26 L 724.53 360.66 L 726.00 358.22 L 727.47 356.34 L 728.94 363.79 L 730.42 360.09 L 731.89 361.59 L 733.36 357.22 L 734.83 357.62 L 736.31 350.21 L 737.78 350.57 L 739.25 354.64 L 740.72 359.25 L 742.19 358.48 L 743.67 349.92 L 745.14 352.62 L 746.61 364.51 L 748.08 365.77 L 749.56 369.80 L 751.03 366.07 L 752.50 367.98 L 753.97 372.16 L 755.44 366.27 L 756.92 369.82 L 758.39 367.99 L 759.86 373.63 L 761.33 371.93 L 762.81 374.00 L 764.28 372.07 L 765.75 369.82 L 767.22 366.24 L 768.69 364.93 L 770.17 370.28 L 771.64 370.98 L 773.11 370.32 L 774.58 367.34 L 776.06 370.23 L 777.53 372.52 L 779.00 369.29 L 780.47 375.12 L 781.94 376.76 L 783.42 374.08 L 784.89 374.99 L 786.36 370.78 L 787.83 367.56 L 789.31 367.22 L 790.78 368.49 L 792.25 371.08 L 793.72 371.96 L 795.19 374.58 L 796.67 370.90 L 798.14 371.03 L 799.61 361.60 L 801.08 358.30 L 802.56 363.67 L 804.03 361.90 L 805.50 362.73 L 806.97 362.01 L 808.44 358.63 L 809.92 363.91 L 811.39 364.43 L 812.86 365.71 L 814.33 364.25 L 815.81 371.24 L 817.28 360.87 L 818.75 359.34 L 820.22 362.80 L 821.69 360.92 L 823.17 357.98 L 824.64 356.42 L 826.11 357.37 L 827.58 360.89 L 829.06 359.88 L 830.53 357.71 L 832.00 349.31 L 833.47 353.48 L 834.94 352.82 L 836.42 371.25 L 837.89 366.00 L 839.36 364.72 L 840.83 364.60 L 842.31 364.60 L 843.78 367.22 L 845.25 362.87 L 846.72 361.28 L 848.19 365.71 L 849.67 372.98 L 851.14 373.73 L 852.61 371.31 L 854.08 368.65 L 855.56 378.34 L 857.03 386.91 L 858.50 398.54 L 859.97 399.69 L 861.44 403.02 L 862.92 401.11 L 864.39 400.07 L 865.86 398.57 L 867.33 404.78 L 868.81 399.17 L 870.28 398.82 L 871.75 392.57 L 873.22 387.19 L 874.69 393.69 L 876.17 385.13 L 877.64 371.37 L 879.11 378.55 L 880.58 378.76 L 882.06 380.45 L 883.53 378.34 L 885.00 379.04 L 886.47 378.09 L 887.94 378.23 L 889.42 375.07 L 890.89 374.59 L 892.36 374.46 L 893.83 374.58 L 895.31 380.41 L 896.78 379.98 L 898.25 379.55 L 899.72 381.54 L 901.19 382.18 L 902.67 381.71 L 904.14 381.36 L 905.61 381.82 L 907.08 381.76 L 908.56 382.17 L 910.03 382.12 L 911.50 380.79 L 912.97 382.28 L 914.44 389.25 L 915.92 388.20 L 917.39 388.37 L 918.86 388.93 L 920.33 389.38 L 921.81 389.15 L 923.28 388.52 L 924.75 388.51 L 926.22 389.98 L 927.69 387.21 L 929.17 384.41 L 930.64 396.28 L 932.11 399.75 L 933.58 399.98 L 935.06 398.63 L 936.53 400.58 L 938.00 398.72 L 939.47 399.92 L 940.94 399.70 L 942.42 398.07 L 943.89 396.89 L 945.36 405.19 L 946.83 400.29 L 948.31 400.42 L 949.78 396.57 L 951.25 396.04 L 952.72 397.69 L 954.19 399.03 L 955.67 398.16 L 957.14 396.45 L 958.61 395.55 L 960.08 395.78 L 961.56 395.04 L 963.03 396.26 L 964.50 394.85 L 965.97 394.94 L 967.44 395.60 L 968.92 395.11 L 970.39 394.92 L 971.86 394.75 L 973.33 392.48 L 974.81 389.79 L 976.28 386.78 L 977.75 386.11 L 979.22 384.73 L 980.69 385.51 L 982.17 384.43 L 983.64 383.12" stroke="#2E7D32" />
<path class="series" d="M 178.33 411.16 L 179.81 408.87 L 181.28 406.47 L 182.75 404.84 L 184.22 404.13 L 185.69 400.89 L 187.17 391.53 L 188.64 395.14 L 190.11 379.49 L 191.58 381.88 L 193.06 387.87 L 194.53 392.92 L 196.00 376.52 L 197.47 392.15 L 198.94 401.46 L 200.42 393.80 L 201.89 379.84 L 203.36 389.96 L 204.83 394.98 L 206.31 400.55 L 207.78 395.71 L 209.25 393.74 L 210.72 397.90 L 212.19 421.83 L 213.67 409.13 L 215.14 406.64 L 216.61 404.82 L 218.08 417.50 L 219.56 395.97 L 221.03 386.42 L 222.50 395.63 L 223.97 405.56 L 225.44 406.09 L 226.92 407.08 L 228.39 411.18 L 229.86 406.15 L 231.33 402.16 L 232.81 405.26 L 234.28 413.39 L 235.75 409.02 L 237.22 401.55 L 238.69 403.95 L 240.17 409.46 L 241.64 420.44 L 243.11 410.17 L 244.58 416.59 L 246.06 404.54 L 247.53 403.35 L 249.00 406.74 L 250.47 405.13 L 251.94 408.50 L 253.42 415.86 L 254.89 406.00 L 256.36 416.44 L 257.83 417.04 L 259.31 420.61 L 260.78 394.80 L 262.25 410.47 L 263.72 413.05 L 265.19 412.93 L 266.67 413.35 L 268.14 413.18 L 269.61 421.25 L 271.08 416.64 L 272.56 417.60 L 274.03 417.60 L 275.50 417.85 L 276.97 410.34 L 278.44 405.84 L 279.92 404.33 L 281.39 420.89 L 282.86 413.78 L 284.33 417.55 L 285.81 431.29 L 287.28 418.16 L 288.75 420.23 L 290.22 425.27 L 291.69 414.69 L 293.17 424.04 L 294.64 413.90 L 296.11 404.72 L 297.58 407.92 L 299.06 413.26 L 300.53 413.68 L 302.00 407.73 L 303.47 401.87 L 304.94 395.46 L 306.42 402.90 L 307.89 403.58 L 309.36 403.55 L 310.83 403.89 L 312.31 404.09 L 313.78 403.77 L 315.25 403.53 L 316.72 404.02 L 318.19 403.70 L 319.67 403.72 L 321.14 403.85 L 322.61 403.83 L 324.08 403.81 L 325.56 403.83 L 327.03 403.78 L 328.50 403.80 L 329.97 403.81 L 331.44 403.82 L 332.92 403.81 L 334.39 403.77 L 335.86 403.74 L 337.33 403.73 L 338.81 403.77 L 340.28 403.75 L 341.75 403.75 L 343.22 403.71 L 344.69 403.76 L 346.17 403.69 L 347.64 403.75 L 349.11 403.72 L 350.58 404.12 L 352.06 403.24 L 353.53 403.82 L 355.00 403.98 L 356.47 403.67 L 357.94 403.83 L 359.42 403.79 L 360.89 403.82 L 362.36 403.81 L 363.83 403.91 L 365.31 403.76 L 366.78 400.35 L 368.25 407.18 L 369.72 404.16 L 371.19 406.64 L 372.67 404.20 L 374.14 405.33 L 375.61 406.82 L 377.08 404.98 L 378.56 401.30 L 380.03 400.85 L 381.50 403.65 L 382.97 400.52 L 384.44 397.91 L 385.92 398.60 L 387.39 399.95 L 388.86 399.46 L 390.33 399.81 L 391.81 399.66 L 393.28 399.66 L 394.75 400.61 L 396.22 402.79 L 397.69 403.24 L 399.17 398.96 L 400.64 408.98 L 402.11 401.40 L 403.58 392.01 L 405.06 404.57 L 406.53 414.09 L 408.00 408.16 L 409.47 412.93 L 410.94 415.05 L 412.42 414.39 L 413.89 414.12 L 415.36 418.22 L 416.83 414.19 L 418.31 421.52 L 419.78 426.83 L 421.25 421.09 L 422.72 427.61 L 424.19 424.43 L 425.67 418.35 L 427.14 424.05 L 428.61 422.36 L 430.08 418.39 L 431.56 414.98 L 433.03 420.95 L 434.50 419.38 L 435.97 421.06 L 437.44 418.32 L 438.92 417.88 L 440.39 423.14 L 441.86 429.99 L 443.33 422.83 L 444.81 428.89 L 446.28 425.15 L 447.75 425.94 L 449.22 421.01 L 450.69 418.80 L 452.17 422.88 L 453.64 423.48 L 455.11 421.44 L 456.58 420.94 L 458.06 422.35 L 459.53 422.56 L 461.00 421.69 L 462.47 422.04 L 463.94 422.18 L 465.42 421.88 L 466.89 422.03 L 468.36 422.08 L 469.83 421.99 L 471.31 422.05 L 472.78 422.01 L 474.25 421.98 L 475.72 422.10 L 477.19 421.99 L 478.67 421.98 L 480.14 422.09 L 481.61 422.00 L 483.08 422.06 L 484.56 422.00 L 486.03 422.09 L 487.50 422.07 L 488.97 422.04 L 490.44 422.12 L 491.92 421.87 L 493.39 422.87 L 494.86 420.55 L 496.33 421.17 L 497.81 421.38 L 499.28 421.25 L 500.75 421.08 L 502.22 421.09 L 503.69 421.20 L 505.17 421.31 L 506.64 421.18 L 508.11 421.21 L 509.58 421.19 L 511.06 421.27 L 512.53 421.27 L 514.00 421.23 L 515.47 421.23 L 516.94 421.18 L 518.42 421.31 L 519.89 421.19 L 521.36 421.10 L 522.83 421.27 L 524.31 421.19 L 525.78 421.24 L 527.25 421.15 L 528.72 420.93 L 530.19 421.45 L 531.67 420.65 L 533.14 420.57 L 534.61 420.02 L 536.08 419.96 L 537.56 420.04 L 539.03 420.14 L 540.50 420.31 L 541.97 420.40 L 543.44 420.33 L 544.92 420.25 L 546.39 420.20 L 547.86 420.21 L 549.33 420.23 L 550.81 420.26 L 552.28 420.31 L 553.75 420.31 L 555.22 420.27 L 556.69 420.27 L 558.17 420.53 L 559.64 420.40 L 561.11 420.76 L 562.58 420.93 L 564.06 420.80 L 565.53 420.76 L 567.00 420.86 L 568.47 420.96 L 569.94 420.84 L 571.42 420.82 L 572.89 420.78 L 574.36 420.81 L 575.83 420.79 L 577.31 420.74 L 578.78 420.84 L 580.25 420.82 L 581.72 420.84 L 583.19 420.78 L 584.67 420.80 L 586.14 420.81 L 587.61 420.90 L 589.08 420.72 L 590.56 422.44 L 592.03 420.72 L 593.50 421.06 L 594.97 420.67 L 596.44 420.81 L 597.92 420.94 L 599.39 420.99 L 600.86 420.91 L 602.33 420.91 L 603.81 421.02 L 605.28 420.98 L 606.75 420.95 L 608.22 420.99 L 609.69 420.98 L 611.17 421.01 L 612.64 421.00 L 614.11 420.95 L 615.58 420.99 L 617.06 421.04 L 618.53 421.05 L 620.00 420.72 L 621.47 419.26 L 622.94 420.20 L 624.42 419.96 L 625.89 420.47 L 627.36 420.16 L 628.83 420.23 L 630.31 420.13 L 631.78 420.01 L 633.25 420.02 L 634.72 420.01 L 636.19 419.97 L 637.67 419.94 L 639.14 419.94 L 640.61 419.97 L 642.08 419.98 L 643.56 419.97 L 645.03 419.95 L 646.50 419.98 L 647.97 420.01 L 649.44 419.96 L 650.92 419.98 L 652.39 419.98 L 653.86 420.04 L 655.33 419.98 L 656.81 419.92 L 658.28 420.15 L 659.75 421.99 L 661.22 418.73 L 662.69 418.49 L 664.17 419.31 L 665.64 419.80 L 667.11 420.02 L 668.58 419.74 L 670.06 419.57 L 671.53 419.51 L 673.00 419.42 L 674.47 419.47 L 675.94 419.51 L 677.42 419.61 L 678.89 419.63 L 680.36 419.62 L 681.83 419.64 L 683.31 419.58 L 684.78 419.58 L 686.25 419.60 L 687.72 419.52 L 689.19 419.54 L 690.67 419.58 L 692.14 419.62 L 693.61 419.53 L 695.08 419.71 L 696.56 419.48 L 698.03 420.16 L 699.50 420.45 L 700.97 419.63 L 702.44 419.03 L 703.92 420.43 L 705.39 417.57 L 706.86 423.44 L 708.33 421.41 L 709.81 425.15 L 711.28 423.07 L 712.75 422.07 L 714.22 422.62 L 715.69 427.88 L 717.17 430.26 L 718.64 426.29 L 720.11 423.35 L 721.58 427.53 L 723.06 422.44 L 724.53 413.63 L 726.00 442.87 L 727.47 432.45 L 728.94 439.13 L 730.42 439.43 L 731.89 441.18 L 733.36 420.96 L 734.83 423.60 L 736.31 424.28 L 737.78 421.60 L 739.25 420.69 L 740.72 424.81 L 742.19 413.19 L 743.67 408.75 L 745.14 403.41 L 746.61 405.91 L 748.08 412.11 L 749.56 416.57 L 751.03 415.32 L 752.50 407.43 L 753.97 410.50 L 755.44 400.82 L 756.92 406.72 L 758.39 401.00 L 759.86 409.51 L 761.33 405.70 L 762.81 405.52 L 764.28 398.57 L 765.75 414.87 L 767.22 411.40 L 768.69 409.75 L 770.17 406.26 L 771.64 407.89 L 773.11 418.17 L 774.58 405.14 L 776.06 413.92 L 777.53 410.05 L 779.00 399.46 L 780.47 398.68 L 781.94 412.84 L 783.42 412.83 L 784.89 414.34 L 786.36 413.02 L 787.83 409.33 L 789.31 414.69 L 790.78 423.25 L 792.25 412.60 L 793.72 412.88 L 795.19 412.64 L 796.67 408.82 L 798.14 407.16 L 799.61 417.34 L 801.08 411.76 L 802.56 416.00 L 804.03 414.65 L 805.50 408.98 L 806.97 412.04 L 808.44 422.42 L 809.92 431.53 L 811.39 431.60 L 812.86 423.00 L 814.33 402.39 L 815.81 399.29 L 817.28 394.58 L 818.75 406.80 L 820.22 416.26 L 821.69 412.15 L 823.17 422.60 L 824.64 420.20 L 826.11 424.00 L 827.58 431.21 L 829.06 435.64 L 830.53 422.01 L 832.00 416.29 L 833.47 422.00 L 834.94 421.15 L 836.42 422.79 L 837.89 418.55 L 839.36 428.21 L 840.83 418.06 L 842.31 418.06 L 843.78 425.55 L 845.25 417.46 L 846.72 424.34 L 848.19 422.01 L 849.67 415.63 L 851.14 419.91 L 852.61 416.84 L 854.08 406.62 L 855.56 416.19 L 857.03 407.83 L 858.50 416.78 L 859.97 414.46 L 861.44 414.07 L 862.92 415.29 L 864.39 411.68 L 865.86 409.40 L 867.33 408.65 L 868.81 409.57 L 870.28 400.47 L 871.75 400.58 L 873.22 398.74 L 874.69 407.57 L 876.17 405.96 L 877.64 404.04 L 879.11 415.70 L 880.58 422.42 L 882.06 424.51 L 883.53 448.26 L 885.00 429.93 L 886.47 427.29 L 887.94 416.18 L 889.42 417.86 L 890.89 424.36 L 892.36 429.60 L 893.83 429.83 L 895.31 429.20 L 896.78 425.29 L 898.25 430.54 L 899.72 419.72 L 901.19 412.98 L 902.67 414.47 L 904.14 413.32 L 905.61 412.59 L 907.08 414.16 L 908.56 416.11 L 910.03 414.54 L 911.50 413.70 L 912.97 412.93 L 914.44 412.59 L 915.92 410.71 L 917.39 408.12 L 918.86 407.86 L 920.33 408.96 L 921.81 407.48 L 923.28 407.54 L 924.75 404.93 L 926.22 401.60 L 927.69 400.98 L 929.17 397.93 L 930.64 402.19 L 932.11 402.00 L 933.58 402.47 L 935.06 401.55 L 936.53 401.84 L 938.00 401.93 L 939.47 409.98 L 940.94 409.70 L 942.42 406.50 L 943.89 407.75 L 945.36 410.32 L 946.83 411.71 L 948.31 410.85 L 949.78 411.77 L 951.25 413.18 L 952.72 414.54 L 954.19 411.18 L 955.67 411.17 L 957.14 412.90 L 958.61 414.60 L 960.08 414.33 L 961.56 412.38 L 963.03 413.74 L 964.50 412.24 L 965.97 414.60 L 967.44 418.66 L 968.92 416.56 L 970.39 415.51 L 971.86 417.87 L 973.33 413.69 L 974.81 418.69 L 976.28 420.03 L 977.75 421.18 L 979.22 414.91 L 980.69 413.40 L 982.17 412.55 L 983.64 418.97" stroke="#6A1B9A" />
<line x1="900.00" y1="307.75" x2="918.00" y2="307.75" stroke="#2E7D32" stroke-width="3" />
<text class="small" x="924.00" y="311.75">pitch</text>
<line x1="900.00" y1="323.75" x2="918.00" y2="323.75" stroke="#6A1B9A" stroke-width="3" />
<text class="small" x="924.00" y="327.75">roll</text>
<text x="90" y="500.50" font-size="14" font-weight="700">Aceleração (magnitude) (u.a.)</text>
<rect class="event" x="443.33" y="506.50" width="275.31" height="192.75" />
<line class="eventline" x1="443.33" y1="506.50" x2="443.33" y2="699.25" />
<line class="eventline" x1="718.64" y1="506.50" x2="718.64" y2="699.25" />
<line class="grid" x1="90" y1="699.25" x2="1150" y2="699.25" />
<text class="small" x="80" y="703.25" text-anchor="end">0.00</text>
<line class="grid" x1="90" y1="660.70" x2="1150" y2="660.70" />
<text class="small" x="80" y="664.70" text-anchor="end">0.50</text>
<line class="grid" x1="90" y1="622.15" x2="1150" y2="622.15" />
<text class="small" x="80" y="626.15" text-anchor="end">1.00</text>
<line class="grid" x1="90" y1="583.60" x2="1150" y2="583.60" />
<text class="small" x="80" y="587.60" text-anchor="end">1.50</text>
<line class="grid" x1="90" y1="545.05" x2="1150" y2="545.05" />
<text class="small" x="80" y="549.05" text-anchor="end">2.00</text>
<line class="grid" x1="90" y1="506.50" x2="1150" y2="506.50" />
<text class="small" x="80" y="510.50" text-anchor="end">2.50</text>
<line class="grid" x1="90.00" y1="506.50" x2="90.00" y2="699.25" />
<line class="grid" x1="266.67" y1="506.50" x2="266.67" y2="699.25" />
<line class="grid" x1="443.33" y1="506.50" x2="443.33" y2="699.25" />
<line class="grid" x1="620.00" y1="506.50" x2="620.00" y2="699.25" />
<line class="grid" x1="796.67" y1="506.50" x2="796.67" y2="699.25" />
<line class="grid" x1="973.33" y1="506.50" x2="973.33" y2="699.25" />
<line class="grid" x1="1150.00" y1="506.50" x2="1150.00" y2="699.25" />
<line class="axis" x1="90" y1="506.50" x2="90" y2="699.25" />
<line class="axis" x1="90" y1="699.25" x2="1150" y2="699.25" />
<path class="series" d="M 178.33 645.96 L 179.81 681.01 L 181.28 679.44 L 182.75 665.75 L 184.22 658.89 L 185.69 673.34 L 187.17 674.22 L 188.64 657.39 L 190.11 671.04 L 191.58 679.71 L 193.06 663.41 L 194.53 664.22 L 196.00 685.04 L 197.47 677.13 L 198.94 668.13 L 200.42 677.86 L 201.89 676.45 L 203.36 673.09 L 204.83 655.78 L 206.31 668.91 L 207.78 669.64 L 209.25 648.65 L 210.72 641.84 L 212.19 661.76 L 213.67 620.97 L 215.14 641.43 L 216.61 650.34 L 218.08 644.18 L 219.56 659.35 L 221.03 680.36 L 222.50 657.65 L 223.97 672.17 L 225.44 657.82 L 226.92 658.18 L 228.39 657.30 L 229.86 661.59 L 231.33 669.51 L 232.81 684.07 L 234.28 688.57 L 235.75 653.88 L 237.22 652.74 L 238.69 670.60 L 240.17 665.19 L 241.64 655.87 L 243.11 667.03 L 244.58 689.80 L 246.06 678.79 L 247.53 676.35 L 249.00 690.78 L 250.47 669.67 L 251.94 646.39 L 253.42 651.17 L 254.89 673.96 L 256.36 641.56 L 257.83 641.85 L 259.31 676.63 L 260.78 667.79 L 262.25 669.15 L 263.72 664.39 L 265.19 674.53 L 266.67 681.08 L 268.14 683.62 L 269.61 685.77 L 271.08 669.13 L 272.56 690.27 L 274.03 658.07 L 275.50 614.55 L 276.97 663.83 L 278.44 660.85 L 279.92 654.22 L 281.39 636.70 L 282.86 642.89 L 284.33 687.73 L 285.81 669.58 L 287.28 681.41 L 288.75 678.54 L 290.22 690.28 L 291.69 691.83 L 293.17 681.24 L 294.64 658.84 L 296.11 666.62 L 297.58 679.40 L 299.06 688.96 L 300.53 664.16 L 302.00 661.10 L 303.47 666.41 L 304.94 681.99 L 306.42 688.08 L 307.89 692.41 L 309.36 697.17 L 310.83 697.81 L 312.31 698.11 L 313.78 696.69 L 315.25 696.96 L 316.72 698.21 L 318.19 698.78 L 319.67 698.34 L 321.14 698.49 L 322.61 698.58 L 324.08 698.39 L 325.56 698.42 L 327.03 698.45 L 328.50 698.84 L 329.97 698.86 L 331.44 698.86 L 332.92 698.96 L 334.39 698.82 L 335.86 699.06 L 337.33 698.90 L 338.81 699.08 L 340.28 698.81 L 341.75 699.16 L 343.22 698.92 L 344.69 699.14 L 346.17 698.92 L 347.64 698.59 L 349.11 699.01 L 350.58 696.00 L 352.06 696.20 L 353.53 698.78 L 355.00 698.63 L 356.47 698.86 L 357.94 699.12 L 359.42 698.95 L 360.89 699.04 L 362.36 698.82 L 363.83 698.80 L 365.31 687.48 L 366.78 672.97 L 368.25 679.84 L 369.72 686.43 L 371.19 690.57 L 372.67 692.77 L 374.14 693.03 L 375.61 696.82 L 377.08 696.21 L 378.56 693.19 L 380.03 695.92 L 381.50 695.10 L 382.97 694.21 L 384.44 691.59 L 385.92 694.49 L 387.39 694.89 L 388.86 694.26 L 390.33 698.17 L 391.81 698.97 L 393.28 698.92 L 394.75 678.26 L 396.22 692.74 L 397.69 695.63 L 399.17 692.96 L 400.64 673.84 L 402.11 685.55 L 403.58 651.33 L 405.06 688.54 L 406.53 680.46 L 408.00 691.07 L 409.47 682.32 L 410.94 680.60 L 412.42 672.91 L 413.89 682.44 L 415.36 691.48 L 416.83 679.79 L 418.31 689.79 L 419.78 696.12 L 421.25 680.77 L 422.72 692.62 L 424.19 691.79 L 425.67 684.01 L 427.14 686.27 L 428.61 684.19 L 430.08 695.61 L 431.56 688.20 L 433.03 693.75 L 434.50 694.88 L 435.97 681.80 L 437.44 697.03 L 438.92 684.85 L 440.39 686.34 L 441.86 680.99 L 443.33 686.76 L 444.81 683.30 L 446.28 687.40 L 447.75 695.70 L 449.22 691.98 L 450.69 694.34 L 452.17 686.27 L 453.64 680.05 L 455.11 687.43 L 456.58 686.41 L 458.06 694.44 L 459.53 698.83 L 461.00 698.34 L 462.47 698.39 L 463.94 699.07 L 465.42 698.90 L 466.89 698.79 L 468.36 698.78 L 469.83 699.13 L 471.31 699.23 L 472.78 698.96 L 474.25 698.74 L 475.72 698.96 L 477.19 698.89 L 478.67 699.17 L 480.14 698.91 L 481.61 699.06 L 483.08 699.12 L 484.56 699.07 L 486.03 699.09 L 487.50 699.14 L 488.97 699.05 L 490.44 698.51 L 491.92 697.36 L 493.39 693.87 L 494.86 693.87 L 496.33 694.47 L 497.81 698.85 L 499.28 698.48 L 500.75 698.71 L 502.22 699.10 L 503.69 698.87 L 505.17 698.93 L 506.64 699.10 L 508.11 698.99 L 509.58 699.02 L 511.06 699.18 L 512.53 699.12 L 514.00 699.17 L 515.47 699.23 L 516.94 699.16 L 518.42 699.09 L 519.89 699.05 L 521.36 699.14 L 522.83 699.04 L 524.31 699.13 L 525.78 698.98 L 527.25 699.16 L 528.72 698.97 L 530.19 696.58 L 531.67 692.63 L 533.14 695.56 L 534.61 697.80 L 536.08 698.43 L 537.56 698.72 L 539.03 698.59 L 540.50 698.69 L 541.97 699.03 L 543.44 698.92 L 544.92 698.79 L 546.39 699.13 L 547.86 699.14 L 549.33 699.05 L 550.81 699.12 L 552.28 699.08 L 553.75 699.14 L 555.22 699.08 L 556.69 699.22 L 558.17 698.75 L 559.64 696.56 L 561.11 693.86 L 562.58 697.96 L 564.06 698.69 L 565.53 698.87 L 567.00 698.81 L 568.47 698.93 L 569.94 698.92 L 571.42 699.13 L 572.89 699.11 L 574.36 699.08 L 575.83 699.07 L 577.31 699.13 L 578.78 699.07 L 580.25 699.11 L 581.72 699.09 L 583.19 699.09 L 584.67 699.02 L 586.14 699.00 L 587.61 698.35 L 589.08 698.29 L 590.56 697.34 L 592.03 696.98 L 593.50 698.43 L 594.97 698.58 L 596.44 698.65 L 597.92 698.78 L 599.39 699.05 L 600.86 699.06 L 602.33 698.98 L 603.81 699.17 L 605.28 699.10 L 606.75 699.13 L 608.22 699.14 L 609.69 699.03 L 611.17 699.17 L 612.64 699.10 L 614.11 699.10 L 615.58 698.16 L 617.06 696.80 L 618.53 698.42 L 620.00 692.45 L 621.47 697.39 L 622.94 697.48 L 624.42 698.73 L 625.89 699.02 L 627.36 698.27 L 628.83 698.80 L 630.31 699.03 L 631.78 698.92 L 633.25 699.16 L 634.72 699.12 L 636.19 699.15 L 637.67 699.04 L 639.14 699.14 L 640.61 699.12 L 642.08 699.06 L 643.56 699.08 L 645.03 698.97 L 646.50 699.06 L 647.97 699.08 L 649.44 699.19 L 650.92 699.11 L 652.39 699.20 L 653.86 699.19 L 655.33 697.90 L 656.81 698.04 L 658.28 695.56 L 659.75 694.38 L 661.22 698.06 L 662.69 698.06 L 664.17 697.11 L 665.64 697.87 L 667.11 698.94 L 668.58 698.43 L 670.06 698.49 L 671.53 698.93 L 673.00 698.96 L 674.47 698.91 L 675.94 699.00 L 677.42 698.84 L 678.89 699.00 L 680.36 699.04 L 681.83 699.10 L 683.31 698.99 L 684.78 699.08 L 686.25 699.16 L 687.72 698.98 L 689.19 698.86 L 690.67 699.05 L 692.14 699.10 L 693.61 699.02 L 695.08 698.76 L 696.56 697.00 L 698.03 696.06 L 699.50 695.08 L 700.97 698.44 L 702.44 695.64 L 703.92 687.55 L 705.39 690.50 L 706.86 682.68 L 708.33 683.84 L 709.81 692.21 L 711.28 691.55 L 712.75 696.95 L 714.22 694.09 L 715.69 663.78 L 717.17 673.94 L 718.64 676.20 L 720.11 669.73 L 721.58 669.24 L 723.06 669.17 L 724.53 689.00 L 726.00 682.61 L 727.47 667.25 L 728.94 667.16 L 730.42 680.27 L 731.89 679.85 L 733.36 677.63 L 734.83 683.65 L 736.31 682.64 L 737.78 690.36 L 739.25 691.02 L 740.72 682.25 L 742.19 674.67 L 743.67 683.48 L 745.14 685.21 L 746.61 673.98 L 748.08 680.85 L 749.56 673.39 L 751.03 677.46 L 752.50 671.39 L 753.97 673.64 L 755.44 651.58 L 756.92 683.14 L 758.39 668.79 L 759.86 691.56 L 761.33 681.92 L 762.81 672.98 L 764.28 680.87 L 765.75 674.79 L 767.22 681.40 L 768.69 681.39 L 770.17 655.32 L 771.64 692.29 L 773.11 671.88 L 774.58 673.15 L 776.06 685.13 L 777.53 679.63 L 779.00 667.77 L 780.47 674.58 L 781.94 668.75 L 783.42 686.45 L 784.89 674.74 L 786.36 677.17 L 787.83 670.69 L 789.31 683.85 L 790.78 664.10 L 792.25 681.05 L 793.72 691.48 L 795.19 675.05 L 796.67 691.21 L 798.14 641.04 L 799.61 627.32 L 801.08 648.42 L 802.56 684.19 L 804.03 637.06 L 805.50 647.69 L 806.97 683.94 L 808.44 656.18 L 809.92 649.69 L 811.39 670.33 L 812.86 643.62 L 814.33 647.34 L 815.81 666.93 L 817.28 644.75 L 818.75 667.81 L 820.22 677.74 L 821.69 685.68 L 823.17 662.77 L 824.64 679.54 L 826.11 684.42 L 827.58 663.63 L 829.06 677.85 L 830.53 673.26 L 832.00 665.71 L 833.47 691.22 L 834.94 691.22 L 836.42 673.28 L 837.89 659.86 L 839.36 677.55 L 840.83 674.25 L 842.31 680.67 L 843.78 682.11 L 845.25 697.63 L 846.72 675.33 L 848.19 682.32 L 849.67 692.20 L 851.14 696.63 L 852.61 684.32 L 854.08 692.87 L 855.56 693.72 L 857.03 678.93 L 858.50 687.37 L 859.97 690.01 L 861.44 693.39 L 862.92 684.61 L 864.39 695.60 L 865.86 689.36 L 867.33 679.11 L 868.81 685.03 L 870.28 691.28 L 871.75 690.65 L 873.22 681.54 L 874.69 667.82 L 876.17 672.89 L 877.64 682.31 L 879.11 666.65 L 880.58 685.36 L 882.06 683.20 L 883.53 654.33 L 885.00 684.22 L 886.47 675.93 L 887.94 662.23 L 889.42 650.98 L 890.89 685.33 L 892.36 661.23 L 893.83 639.15 L 895.31 656.80 L 896.78 682.63 L 898.25 669.23 L 899.72 689.23 L 901.19 675.22 L 902.67 681.12 L 904.14 693.78 L 905.61 686.17 L 907.08 691.01 L 908.56 695.37 L 910.03 694.19 L 911.50 688.80 L 912.97 689.06 L 914.44 688.82 L 915.92 690.88 L 917.39 693.68 L 918.86 696.45 L 920.33 693.39 L 921.81 692.24 L 923.28 693.61 L 924.75 691.34 L 926.22 695.37 L 927.69 689.44 L 929.17 691.23 L 930.64 678.51 L 932.11 684.83 L 933.58 692.24 L 935.06 690.60 L 936.53 693.03 L 938.00 687.23 L 939.47 695.27 L 940.94 689.60 L 942.42 694.65 L 943.89 677.87 L 945.36 664.17 L 946.83 686.44 L 948.31 679.17 L 949.78 692.54 L 951.25 691.94 L 952.72 692.52 L 954.19 696.77 L 955.67 694.69 L 957.14 686.62 L 958.61 692.49 L 960.08 694.17 L 961.56 685.63 L 963.03 695.25 L 964.50 689.48 L 965.97 689.05 L 967.44 694.76 L 968.92 693.31 L 970.39 693.95 L 971.86 689.46 L 973.33 696.52 L 974.81 687.00 L 976.28 688.32 L 977.75 691.33 L 979.22 688.98 L 980.69 690.42 L 982.17 679.89 L 983.64 683.41" stroke="#FB8C00" />
<text x="90" y="711.25" font-size="14" font-weight="700">Giroscópio (magnitude) (u.a.)</text>
<rect class="event" x="443.33" y="717.25" width="275.31" height="192.75" />
<line class="eventline" x1="443.33" y1="717.25" x2="443.33" y2="910.00" />
<line class="eventline" x1="718.64" y1="717.25" x2="718.64" y2="910.00" />
<line class="grid" x1="90" y1="910.00" x2="1150" y2="910.00" />
<text class="small" x="80" y="914.00" text-anchor="end">0.00</text>
<line class="grid" x1="90" y1="871.45" x2="1150" y2="871.45" />
<text class="small" x="80" y="875.45" text-anchor="end">0.05</text>
<line class="grid" x1="90" y1="832.90" x2="1150" y2="832.90" />
<text class="small" x="80" y="836.90" text-anchor="end">0.10</text>
<line class="grid" x1="90" y1="794.35" x2="1150" y2="794.35" />
<text class="small" x="80" y="798.35" text-anchor="end">0.15</text>
<line class="grid" x1="90" y1="755.80" x2="1150" y2="755.80" />
<text class="small" x="80" y="759.80" text-anchor="end">0.20</text>
<line class="grid" x1="90" y1="717.25" x2="1150" y2="717.25" />
<text class="small" x="80" y="721.25" text-anchor="end">0.25</text>
<line class="grid" x1="90.00" y1="717.25" x2="90.00" y2="910.00" />
<line class="grid" x1="266.67" y1="717.25" x2="266.67" y2="910.00" />
<line class="grid" x1="443.33" y1="717.25" x2="443.33" y2="910.00" />
<line class="grid" x1="620.00" y1="717.25" x2="620.00" y2="910.00" />
<line class="grid" x1="796.67" y1="717.25" x2="796.67" y2="910.00" />
<line class="grid" x1="973.33" y1="717.25" x2="973.33" y2="910.00" />
<line class="grid" x1="1150.00" y1="717.25" x2="1150.00" y2="910.00" />
<line class="axis" x1="90" y1="717.25" x2="90" y2="910.00" />
<line class="axis" x1="90" y1="910.00" x2="1150" y2="910.00" />
<path class="series" d="M 178.33 889.90 L 179.81 900.73 L 181.28 892.90 L 182.75 904.01 L 184.22 905.14 L 185.69 903.03 L 187.17 903.01 L 188.64 861.46 L 190.11 843.18 L 191.58 818.45 L 193.06 843.80 L 194.53 860.38 L 196.00 848.54 L 197.47 846.55 L 198.94 859.93 L 200.42 871.08 L 201.89 859.64 L 203.36 879.26 L 204.83 872.34 L 206.31 839.23 L 207.78 832.76 L 209.25 840.99 L 210.72 847.72 L 212.19 813.17 L 213.67 884.46 L 215.14 885.51 L 216.61 864.43 L 218.08 860.49 L 219.56 863.51 L 221.03 871.98 L 222.50 881.01 L 223.97 839.40 L 225.44 889.98 L 226.92 878.14 L 228.39 895.82 L 229.86 894.60 L 231.33 865.19 L 232.81 882.59 L 234.28 877.24 L 235.75 888.10 L 237.22 874.71 L 238.69 883.85 L 240.17 895.49 L 241.64 871.97 L 243.11 882.62 L 244.58 875.34 L 246.06 870.91 L 247.53 895.00 L 249.00 882.42 L 250.47 899.00 L 251.94 884.43 L 253.42 887.46 L 254.89 892.20 L 256.36 881.03 L 257.83 882.10 L 259.31 867.77 L 260.78 893.62 L 262.25 882.90 L 263.72 886.57 L 265.19 880.90 L 266.67 893.29 L 268.14 895.37 L 269.61 877.74 L 271.08 872.91 L 272.56 893.98 L 274.03 882.43 L 275.50 876.74 L 276.97 874.43 L 278.44 859.97 L 279.92 875.22 L 281.39 886.09 L 282.86 883.38 L 284.33 892.23 L 285.81 847.66 L 287.28 843.74 L 288.75 835.92 L 290.22 815.17 L 291.69 799.30 L 293.17 783.34 L 294.64 788.45 L 296.11 813.19 L 297.58 820.18 L 299.06 795.43 L 300.53 790.52 L 302.00 820.87 L 303.47 860.84 L 304.94 895.61 L 306.42 905.99 L 307.89 908.09 L 309.36 908.05 L 310.83 907.93 L 312.31 908.13 L 313.78 907.26 L 315.25 908.28 L 316.72 908.54 L 318.19 908.08 L 319.67 908.13 L 321.14 907.93 L 322.61 907.87 L 324.08 908.11 L 325.56 908.08 L 327.03 908.20 L 328.50 909.27 L 329.97 909.74 L 331.44 909.74 L 332.92 909.72 L 334.39 909.75 L 335.86 909.62 L 337.33 909.78 L 338.81 909.66 L 340.28 909.61 L 341.75 909.70 L 343.22 909.63 L 344.69 909.84 L 346.17 909.50 L 347.64 909.55 L 349.11 909.51 L 350.58 906.60 L 352.06 909.33 L 353.53 909.47 L 355.00 909.38 L 356.47 909.55 L 357.94 909.35 L 359.42 909.49 L 360.89 909.53 L 362.36 909.59 L 363.83 909.49 L 365.31 906.67 L 366.78 902.80 L 368.25 891.75 L 369.72 901.25 L 371.19 900.72 L 372.67 903.07 L 374.14 903.85 L 375.61 906.22 L 377.08 901.73 L 378.56 899.10 L 380.03 906.59 L 381.50 902.33 L 382.97 903.82 L 384.44 902.74 L 385.92 904.74 L 387.39 908.97 L 388.86 909.60 L 390.33 909.52 L 391.81 909.51 L 393.28 909.38 L 394.75 903.53 L 396.22 897.04 L 397.69 889.24 L 399.17 881.90 L 400.64 863.55 L 402.11 813.68 L 403.58 829.70 L 405.06 865.93 L 406.53 900.79 L 408.00 890.77 L 409.47 886.37 L 410.94 886.00 L 412.42 885.70 L 413.89 888.52 L 415.36 887.01 L 416.83 899.45 L 418.31 889.27 L 419.78 892.56 L 421.25 894.06 L 422.72 899.12 L 424.19 898.52 L 425.67 895.95 L 427.14 898.15 L 428.61 901.86 L 430.08 898.46 L 431.56 894.68 L 433.03 902.69 L 434.50 898.05 L 435.97 896.20 L 437.44 907.12 L 438.92 899.44 L 440.39 882.68 L 441.86 901.32 L 443.33 904.70 L 444.81 902.24 L 446.28 898.23 L 447.75 904.41 L 449.22 893.56 L 450.69 904.24 L 452.17 905.83 L 453.64 907.48 L 455.11 906.48 L 456.58 909.56 L 458.06 909.41 L 459.53 909.57 L 461.00 909.85 L 462.47 909.71 L 463.94 909.79 L 465.42 909.61 L 466.89 909.84 L 468.36 909.78 L 469.83 909.71 L 471.31 909.78 L 472.78 909.58 L 474.25 909.72 L 475.72 909.69 L 477.19 909.66 L 478.67 909.74 L 480.14 909.75 L 481.61 909.86 L 483.08 909.88 L 484.56 909.88 L 486.03 909.81 L 487.50 909.85 L 488.97 909.86 L 490.44 909.82 L 491.92 908.86 L 493.39 906.74 L 494.86 906.74 L 496.33 908.53 L 497.81 909.62 L 499.28 909.61 L 500.75 909.83 L 502.22 909.90 L 503.69 909.93 L 505.17 909.87 L 506.64 909.66 L 508.11 909.83 L 509.58 909.85 L 511.06 909.68 L 512.53 909.75 L 514.00 909.66 L 515.47 909.71 L 516.94 909.56 L 518.42 909.59 L 519.89 909.54 L 521.36 909.67 L 522.83 909.69 L 524.31 909.59 L 525.78 909.70 L 527.25 909.67 L 528.72 909.53 L 530.19 908.64 L 531.67 905.58 L 533.14 909.22 L 534.61 909.71 L 536.08 909.58 L 537.56 909.62 L 539.03 909.62 L 540.50 909.59 L 541.97 909.61 L 543.44 909.66 L 544.92 909.60 L 546.39 909.76 L 547.86 909.74 L 549.33 909.78 L 550.81 909.85 L 552.28 909.86 L 553.75 909.97 L 555.22 909.96 L 556.69 909.87 L 558.17 909.82 L 559.64 908.09 L 561.11 908.16 L 562.58 909.56 L 564.06 909.51 L 565.53 909.82 L 567.00 909.91 L 568.47 909.87 L 569.94 909.92 L 571.42 909.88 L 572.89 909.88 L 574.36 909.86 L 575.83 909.89 L 577.31 909.79 L 578.78 909.85 L 580.25 909.85 L 581.72 909.96 L 583.19 909.82 L 584.67 909.95 L 586.14 909.78 L 587.61 909.48 L 589.08 907.86 L 590.56 907.90 L 592.03 909.79 L 593.50 909.69 L 594.97 909.75 L 596.44 909.88 L 597.92 909.78 L 599.39 909.88 L 600.86 909.88 L 602.33 909.83 L 603.81 909.83 L 605.28 909.81 L 606.75 909.85 L 608.22 909.88 L 609.69 909.88 L 611.17 909.83 L 612.64 909.90 L 614.11 909.85 L 615.58 909.79 L 617.06 909.74 L 618.53 908.54 L 620.00 906.02 L 621.47 909.26 L 622.94 909.21 L 624.42 909.64 L 625.89 909.92 L 627.36 909.89 L 628.83 909.76 L 630.31 909.71 L 631.78 909.52 L 633.25 909.57 L 634.72 909.58 L 636.19 909.54 L 637.67 909.56 L 639.14 909.70 L 640.61 909.56 L 642.08 909.61 L 643.56 909.59 L 645.03 909.55 L 646.50 909.69 L 647.97 909.78 L 649.44 909.82 L 650.92 909.85 L 652.39 909.97 L 653.86 909.89 L 655.33 909.87 L 656.81 909.19 L 658.28 906.29 L 659.75 906.00 L 661.22 908.57 L 662.69 908.57 L 664.17 909.59 L 665.64 909.16 L 667.11 909.52 L 668.58 909.83 L 670.06 909.85 L 671.53 909.76 L 673.00 909.88 L 674.47 909.74 L 675.94 909.72 L 677.42 909.66 L 678.89 909.57 L 680.36 909.70 L 681.83 909.57 L 683.31 909.60 L 684.78 909.63 L 686.25 909.66 L 687.72 909.72 L 689.19 909.88 L 690.67 909.88 L 692.14 909.85 L 693.61 909.90 L 695.08 909.46 L 696.56 909.22 L 698.03 907.98 L 699.50 909.54 L 700.97 907.63 L 702.44 909.37 L 703.92 906.41 L 705.39 900.42 L 706.86 898.32 L 708.33 902.25 L 709.81 902.60 L 711.28 904.90 L 712.75 907.10 L 714.22 907.90 L 715.69 902.10 L 717.17 882.96 L 718.64 882.87 L 720.11 863.69 L 721.58 864.92 L 723.06 887.88 L 724.53 886.14 L 726.00 873.74 L 727.47 870.01 L 728.94 878.24 L 730.42 874.54 L 731.89 880.20 L 733.36 848.92 L 734.83 856.43 L 736.31 855.78 L 737.78 857.23 L 739.25 857.38 L 740.72 847.70 L 742.19 848.59 L 743.67 846.35 L 745.14 853.37 L 746.61 837.18 L 748.08 837.13 L 749.56 833.91 L 751.03 825.53 L 752.50 866.75 L 753.97 873.03 L 755.44 894.87 L 756.92 902.33 L 758.39 893.27 L 759.86 897.60 L 761.33 887.15 L 762.81 881.06 L 764.28 869.26 L 765.75 894.65 L 767.22 897.10 L 768.69 884.42 L 770.17 889.53 L 771.64 878.97 L 773.11 887.85 L 774.58 885.15 L 776.06 893.04 L 777.53 868.53 L 779.00 878.83 L 780.47 890.47 L 781.94 899.87 L 783.42 868.45 L 784.89 893.63 L 786.36 898.80 L 787.83 905.85 L 789.31 888.30 L 790.78 902.56 L 792.25 885.52 L 793.72 892.04 L 795.19 897.87 L 796.67 867.58 L 798.14 885.63 L 799.61 892.71 L 801.08 893.46 L 802.56 884.23 L 804.03 880.46 L 805.50 905.34 L 806.97 885.80 L 808.44 877.75 L 809.92 839.12 L 811.39 864.67 L 812.86 866.10 L 814.33 885.28 L 815.81 874.83 L 817.28 842.74 L 818.75 839.39 L 820.22 868.69 L 821.69 889.42 L 823.17 880.40 L 824.64 888.76 L 826.11 884.28 L 827.58 887.90 L 829.06 882.94 L 830.53 898.73 L 832.00 888.27 L 833.47 885.60 L 834.94 885.60 L 836.42 882.03 L 837.89 886.96 L 839.36 886.96 L 840.83 881.41 L 842.31 872.89 L 843.78 889.17 L 845.25 895.94 L 846.72 903.09 L 848.19 888.08 L 849.67 891.62 L 851.14 904.60 L 852.61 872.25 L 854.08 886.63 L 855.56 859.18 L 857.03 859.77 L 858.50 891.45 L 859.97 896.16 L 861.44 901.71 L 862.92 902.86 L 864.39 901.69 L 865.86 900.50 L 867.33 892.75 L 868.81 897.60 L 870.28 898.12 L 871.75 893.84 L 873.22 891.20 L 874.69 880.62 L 876.17 876.04 L 877.64 857.29 L 879.11 861.39 L 880.58 846.64 L 882.06 854.04 L 883.53 859.97 L 885.00 850.98 L 886.47 846.54 L 887.94 874.17 L 889.42 877.72 L 890.89 868.13 L 892.36 882.25 L 893.83 852.77 L 895.31 870.24 L 896.78 874.71 L 898.25 866.01 L 899.72 878.30 L 901.19 890.50 L 902.67 901.25 L 904.14 905.61 L 905.61 906.84 L 907.08 900.06 L 908.56 902.36 L 910.03 903.07 L 911.50 901.87 L 912.97 901.39 L 914.44 903.41 L 915.92 902.14 L 917.39 902.20 L 918.86 905.01 L 920.33 901.55 L 921.81 900.60 L 923.28 900.79 L 924.75 899.33 L 926.22 901.67 L 927.69 901.75 L 929.17 895.40 L 930.64 892.14 L 932.11 898.42 L 933.58 905.94 L 935.06 904.77 L 936.53 902.71 L 938.00 901.79 L 939.47 905.40 L 940.94 904.15 L 942.42 899.61 L 943.89 897.33 L 945.36 897.59 L 946.83 898.91 L 948.31 893.42 L 949.78 892.44 L 951.25 892.85 L 952.72 895.39 L 954.19 901.64 L 955.67 899.10 L 957.14 899.10 L 958.61 898.99 L 960.08 897.91 L 961.56 898.75 L 963.03 903.77 L 964.50 900.51 L 965.97 904.13 L 967.44 904.89 L 968.92 905.43 L 970.39 905.84 L 971.86 905.24 L 973.33 899.83 L 974.81 894.46 L 976.28 892.63 L 977.75 896.94 L 979.22 901.34 L 980.69 897.01 L 982.17 906.46 L 983.64 901.18" stroke="#E53935" />
<text x="620.00" y="952" font-size="15" text-anchor="middle">minutos (relativo ao início do evento)</text>
<text class="small" x="90.00" y="936" text-anchor="middle">-4.00</text>
<text class="small" x="266.67" y="936" text-anchor="middle">-2.00</text>
<text class="small" x="443.33" y="936" text-anchor="middle">0.00</text>
<text class="small" x="620.00" y="936" text-anchor="middle">2.00</text>
<text class="small" x="796.67" y="936" text-anchor="middle">4.00</text>
<text class="small" x="973.33" y="936" text-anchor="middle">6.00</text>
<text class="small" x="1150.00" y="936" text-anchor="middle">8.00</text>
</svg>