<?xml version="1.0" encoding="UTF-8"?>
<svg xmlns="http://www.w3.org/2000/svg" width="1180" height="980" viewBox="0 0 1180 980">
<style>
text { font-family: -apple-system, BlinkMacSystemFont, 'Segoe UI', Roboto, Helvetica, Arial, sans-serif; fill: #111; }
.small { font-size: 12px; fill: #222; }
.title { font-size: 18px; font-weight: 700; }
.axis { stroke: #111; stroke-width: 1.4; }
.grid { stroke: #E6E6E6; stroke-width: 1; }
.event { fill: #FFEB3B; fill-opacity: 0.18; }
.eventline { stroke: #F9A825; stroke-width: 1.2; stroke-dasharray: 4 3; }
.series { fill: none; stroke-width: 1.8; }
</style>
<text class="title" x="90" y="34">ciclo 4 — basculamento — 2025-12-12T17:16:03-03:00 → 2025-12-12T17:16:40-03:00 (span 37s, dur 38s)</text>
<text class="small" x="90" y="54">GPS: -11.692511,-47.165118  hotspot: -11.693,-47.165</text>
<text class="small" x="90" y="70">Janela: -3.00 → 3.62 min (relativo ao início do evento)</text>
<text x="90" y="79.00" font-size="14" font-weight="700">Velocidade (km/h)</text>
<rect class="event" x="443.33" y="85.00" width="54.47" height="192.75" />
<line class="eventline" x1="443.33" y1="85.00" x2="443.33" y2="277.75" />
<line class="eventline" x1="497.81" y1="85.00" x2="497.81" y2="277.75" />
<line class="grid" x1="90" y1="277.75" x2="1150" y2="277.75" />
<text class="small" x="80" y="281.75" text-anchor="end">0.00</text>
<line class="grid" x1="90" y1="239.20" x2="1150" y2="239.20" />
<text class="small" x="80" y="243.20" text-anchor="end">10.0</text>
<line class="grid" x1="90" y1="200.65" x2="1150" y2="200.65" />
<text class="small" x="80" y="204.65" text-anchor="end">20.0</text>
<line class="grid" x1="90" y1="162.10" x2="1150" y2="162.10" />
<text class="small" x="80" y="166.10" text-anchor="end">30.0</text>
<line class="grid" x1="90" y1="123.55" x2="1150" y2="123.55" />
<text class="small" x="80" y="127.55" text-anchor="end">40.0</text>
<line class="grid" x1="90" y1="85.00" x2="1150" y2="85.00" />
<text class="small" x="80" y="89.00" text-anchor="end">50.0</text>
<line class="grid" x1="90.00" y1="85.00" x2="90.00" y2="277.75" />
<line class="grid" x1="266.67" y1="85.00" x2="266.67" y2="277.75" />
<line class="grid" x1="443.33" y1="85.00" x2="443.33" y2="277.75" />
<line class="grid" x1="620.00" y1="85.00" x2="620.00" y2="277.75" />
<line class="grid" x1="796.67" y1="85.00" x2="796.67" y2="277.75" />
<line class="grid" x1="973.33" y1="85.00" x2="973.33" y2="277.75" />
<line class="grid" x1="1150.00" y1="85.00" x2="1150.00" y2="277.75" />
<line class="axis" x1="90" y1="85.00" x2="90" y2="277.75" />
<line class="axis" x1="90" y1="277.75" x2="1150" y2="277.75" />
<path class="series" d="M 178.33 242.50 L 179.81 246.25 L 181.28 245.69 L 182.75 246.25 L 184.22 245.41 L 185.69 245.14 L 187.17 245.83 L 188.64 244.58 L 190.11 245.41 L 191.58 244.72 L 193.06 244.30 L 194.53 242.78 L 196.00 243.61 L 197.47 242.78 L 198.94 241.53 L 200.42 241.39 L 201.89 241.11 L 203.36 241.25 L 204.83 241.11 L 206.31 242.50 L 207.78 243.75 L 209.25 245.28 L 210.72 247.63 L 212.19 253.60 L 213.67 252.63 L 215.14 251.94 L 216.61 250.97 L 218.08 250.27 L 219.56 249.44 L 221.03 247.50 L 222.50 247.77 L 223.97 247.50 L 225.44 245.28 L 226.92 245.14 L 228.39 244.30 L 229.86 244.30 L 231.33 244.44 L 232.81 244.44 L 234.28 244.58 L 235.75 244.58 L 237.22 244.86 L 238.69 244.03 L 240.17 245.69 L 241.64 245.41 L 243.11 245.55 L 244.58 247.91 L 246.06 246.66 L 247.53 247.50 L 249.00 246.11 L 250.47 245.83 L 251.94 245.41 L 253.42 245.97 L 254.89 246.94 L 256.36 244.58 L 257.83 245.55 L 259.31 245.00 L 260.78 244.58 L 262.25 244.72 L 263.72 243.75 L 265.19 241.94 L 266.67 238.34 L 268.14 234.17 L 269.61 228.62 L 271.08 222.65 L 272.56 220.99 L 274.03 215.44 L 275.50 215.16 L 276.97 215.16 L 278.44 212.66 L 279.92 216.69 L 281.39 217.38 L 282.86 218.77 L 284.33 231.54 L 285.81 244.58 L 287.28 244.17 L 288.75 245.69 L 290.22 241.94 L 291.69 235.28 L 293.17 231.95 L 294.64 228.07 L 296.11 225.15 L 297.58 218.91 L 299.06 217.10 L 300.53 209.19 L 302.00 209.33 L 303.47 214.47 L 304.94 221.27 L 306.42 225.29 L 307.89 227.93 L 309.36 230.70 L 310.83 234.45 L 312.31 239.72 L 313.78 238.75 L 315.25 240.00 L 316.72 238.20 L 318.19 236.53 L 319.67 237.78 L 321.14 234.17 L 322.61 233.06 L 324.08 232.51 L 325.56 235.42 L 327.03 232.65 L 328.50 235.28 L 329.97 231.68 L 331.44 224.87 L 332.92 225.01 L 334.39 224.04 L 335.86 230.70 L 337.33 223.07 L 338.81 227.93 L 340.28 226.96 L 341.75 224.04 L 343.22 222.10 L 344.69 223.35 L 346.17 225.57 L 347.64 233.48 L 349.11 222.93 L 350.58 230.15 L 352.06 232.79 L 353.53 232.23 L 355.00 235.56 L 356.47 233.20 L 357.94 232.92 L 359.42 229.18 L 360.89 232.65 L 362.36 239.72 L 363.83 245.41 L 365.31 241.39 L 366.78 239.03 L 368.25 233.06 L 369.72 233.20 L 371.19 229.45 L 372.67 227.79 L 374.14 228.62 L 375.61 227.37 L 377.08 226.68 L 378.56 232.51 L 380.03 233.90 L 381.50 241.39 L 382.97 246.11 L 384.44 245.97 L 385.92 244.58 L 387.39 250.97 L 388.86 248.05 L 390.33 252.63 L 391.81 248.74 L 393.28 250.27 L 394.75 253.19 L 396.22 270.26 L 397.69 277.75 L 399.17 277.75 L 400.64 277.75 L 402.11 257.90 L 403.58 257.90 L 405.06 259.15 L 406.53 262.35 L 408.00 257.07 L 409.47 263.32 L 410.94 262.07 L 412.42 261.79 L 413.89 264.57 L 415.36 260.12 L 416.83 277.75 L 418.31 277.75 L 419.78 277.75 L 421.25 277.75 L 422.72 260.68 L 424.19 265.54 L 425.67 263.73 L 427.14 261.65 L 428.61 261.51 L 430.08 263.73 L 431.56 265.12 L 433.03 267.48 L 434.50 262.62 L 435.97 261.24 L 437.44 265.95 L 438.92 264.57 L 440.39 269.70 L 441.86 277.75 L 443.33 277.75 L 444.81 277.75 L 446.28 277.75 L 447.75 277.75 L 449.22 277.75 L 450.69 277.75 L 452.17 277.75 L 453.64 277.75 L 455.11 277.75 L 456.58 277.75 L 458.06 277.75 L 459.53 277.75 L 461.00 277.75 L 462.47 277.75 L 463.94 277.75 L 465.42 277.75 L 466.89 277.75 L 468.36 277.75 L 469.83 277.75 L 471.31 277.75 L 472.78 277.75 L 474.25 277.75 L 475.72 277.75 L 477.19 277.75 L 478.67 277.75 L 480.14 277.75 L 481.61 277.75 L 483.08 277.75 L 484.56 277.75 L 486.03 277.75 L 487.50 277.75 L 488.97 277.75 L 490.44 277.75 L 491.92 277.75 L 493.39 277.75 L 494.86 277.75 L 496.33 277.75 L 497.81 277.75 L 499.28 267.90 L 500.75 268.04 L 502.22 269.15 L 503.69 268.17 L 505.17 263.32 L 506.64 259.99 L 508.11 273.73 L 509.58 277.75 L 511.06 277.75 L 512.53 277.75 L 514.00 277.75 L 515.47 277.75 L 516.94 277.75 L 518.42 277.75 L 519.89 277.75 L 521.36 277.75 L 522.83 277.75 L 524.31 277.75 L 525.78 277.75 L 527.25 277.75 L 528.72 277.75 L 530.19 277.75 L 531.67 277.75 L 533.14 277.75 L 534.61 277.75 L 536.08 277.75 L 537.56 277.75 L 539.03 277.75 L 540.50 260.12 L 541.97 255.82 L 543.44 245.69 L 544.92 237.92 L 546.39 233.34 L 547.86 226.54 L 549.33 219.32 L 550.81 205.31 L 552.28 193.79 L 553.75 189.07 L 555.22 181.71 L 556.69 202.95 L 558.17 190.87 L 559.64 188.38 L 561.11 184.77 L 562.58 183.38 L 564.06 186.85 L 565.53 178.52 L 567.00 183.52 L 568.47 192.26 L 569.94 192.82 L 571.42 197.81 L 572.89 202.81 L 574.36 200.17 L 575.83 202.25 L 577.31 204.75 L 578.78 204.06 L 580.25 212.25 L 581.72 229.45 L 583.19 215.02 L 584.67 202.39 L 586.14 205.86 L 587.61 212.80 L 589.08 213.77 L 590.56 197.95 L 592.03 200.31 L 593.50 211.00 L 594.97 211.00 L 596.44 206.14 L 597.92 193.93 L 599.39 194.07 L 600.86 196.15 L 602.33 201.14 L 603.81 197.26 L 605.28 200.59 L 606.75 214.19 L 608.22 210.58 L 609.69 208.50 L 611.17 201.00 L 612.64 198.78 L 614.11 196.70 L 615.58 201.28 L 617.06 210.16 L 618.53 211.55 L 620.00 203.64 L 621.47 196.29 L 622.94 190.87 L 624.42 189.07 L 625.89 188.79 L 627.36 189.76 L 628.83 187.68 L 630.31 186.16 L 631.78 183.10 L 633.25 176.44 L 634.72 177.69 L 636.19 171.44 L 637.67 173.94 L 639.14 170.75 L 640.61 165.89 L 642.08 160.76 L 643.56 154.51 L 645.03 154.10 L 646.50 152.15 L 647.97 151.32 L 649.44 153.96 L 650.92 155.76 L 652.39 151.74 L 653.86 151.46 L 655.33 150.35 L 656.81 148.96 L 658.28 146.05 L 659.75 156.32 L 661.22 151.74 L 662.69 153.68 L 664.17 158.68 L 665.64 160.06 L 667.11 154.65 L 668.58 158.26 L 670.06 159.37 L 671.53 156.04 L 673.00 152.57 L 674.47 166.59 L 675.94 175.33 L 677.42 185.18 L 678.89 180.47 L 680.36 174.36 L 681.83 169.09 L 683.31 170.33 L 684.78 169.78 L 686.25 166.73 L 687.72 167.00 L 689.19 165.34 L 690.67 162.29 L 692.14 164.09 L 693.61 164.09 L 695.08 166.31 L 696.56 167.84 L 698.03 168.11 L 699.50 166.86 L 700.97 167.84 L 702.44 164.92 L 703.92 159.93 L 705.39 156.32 L 706.86 155.48 L 708.33 159.09 L 709.81 158.54 L 711.28 157.29 L 712.75 155.48 L 714.22 159.51 L 715.69 162.70 L 717.17 165.89 L 718.64 165.75 L 720.11 164.92 L 721.58 164.78 L 723.06 167.70 L 724.53 171.72 L 726.00 188.10 L 727.47 190.18 L 728.94 191.85 L 730.42 189.07 L 731.89 184.63 L 733.36 182.96 L 734.83 189.07 L 736.31 199.34 L 737.78 205.31 L 739.25 197.54 L 740.72 210.86 L 742.19 202.25 L 743.67 198.51 L 745.14 194.07 L 746.61 197.95 L 748.08 202.11 L 749.56 191.29 L 751.03 188.79 L 752.50 186.02 L 753.97 177.27 L 755.44 167.42 L 756.92 165.75 L 758.39 161.04 L 759.86 161.04 L 761.33 158.54 L 762.81 153.40" stroke="#1976D2" />
<text x="90" y="289.75" font-size="14" font-weight="700">Inclinação (graus)</text>
<rect class="event" x="443.33" y="295.75" width="54.47" height="192.75" />
<line class="eventline" x1="443.33" y1="295.75" x2="443.33" y2="488.50" />
<line class="eventline" x1="497.81" y1="295.75" x2="497.81" y2="488.50" />
<line class="grid" x1="90" y1="488.50" x2="1150" y2="488.50" />
<text class="small" x="80" y="492.50" text-anchor="end">-20.0</text>
<line class="grid" x1="90" y1="449.95" x2="1150" y2="449.95" />
<text class="small" x="80" y="453.95" text-anchor="end">-10.0</text>
<line class="grid" x1="90" y1="411.40" x2="1150" y2="411.40" />
<text class="small" x="80" y="415.40" text-anchor="end">0.00</text>
<line class="grid" x1="90" y1="372.85" x2="1150" y2="372.85" />
<text class="small" x="80" y="376.85" text-anchor="end">10.0</text>
<line class="grid" x1="90" y1="334.30" x2="1150" y2="334.30" />
<text class="small" x="80" y="338.30" text-anchor="end">20.0</text>
<line class="grid" x1="90" y1="295.75" x2="1150" y2="295.75" />
<text class="small" x="80" y="299.75" text-anchor="end">30.0</text>
<line class="grid" x1="90.00" y1="295.75" x2="90.00" y2="488.50" />
<line class="grid" x1="266.67" y1="295.75" x2="266.67" y2="488.50" />
<line class="grid" x1="443.33" y1="295.75" x2="443.33" y2="488.50" />
<line class="grid" x1="620.00" y1="295.75" x2="620.00" y2="488.50" />
<line class="grid" x1="796.67" y1="295.75" x2="796.67" y2="488.50" />
<line class="grid" x1="973.33" y1="295.75" x2="973.33" y2="488.50" />
<line class="grid" x1="1150.00" y1="295.75" x2="1150.00" y2="488.50" />
<line class="axis" x1="90" y1="295.75" x2="90" y2="488.50" />
<line class="axis" x1="90" y1="488.50" x2="1150" y2="488.50" />
<path class="series" d="M 178.33 393.54 L 179.81 393.70 L 181.28 392.73 L 182.75 392.73 L 184.22 393.23 L 185.69 391.36 L 187.17 392.22 L 188.64 391.64 L 190.11 392.05 L 191.58 390.16 L 193.06 390.43 L 194.53 387.74 L 196.00 384.82 L 197.47 386.22 L 198.94 388.95 L 200.42 390.26 L 201.89 388.62 L 203.36 388.00 L 204.83 390.25 L 206.31 390.31 L 207.78 391.64 L 209.25 390.64 L 210.72 387.83 L 212.19 400.52 L 213.67 400.76 L 215.14 398.21 L 216.61 397.14 L 218.08 395.96 L 219.56 396.42 L 221.03 395.19 L 222.50 393.43 L 223.97 392.96 L 225.44 392.68 L 226.92 392.16 L 228.39 390.96 L 229.86 392.73 L 231.33 390.57 L 232.81 389.18 L 234.28 388.61 L 235.75 389.67 L 237.22 390.13 L 238.69 391.45 L 240.17 392.12 L 241.64 393.57 L 243.11 393.66 L 244.58 395.39 L 246.06 392.41 L 247.53 395.40 L 249.00 393.12 L 250.47 394.06 L 251.94 392.47 L 253.42 395.65 L 254.89 391.37 L 256.36 382.88 L 257.83 387.84 L 259.31 393.75 L 260.78 387.59 L 262.25 386.82 L 263.72 387.88 L 265.19 385.70 L 266.67 384.88 L 268.14 379.85 L 269.61 378.52 L 271.08 371.79 L 272.56 371.27 L 274.03 365.27 L 275.50 372.31 L 276.97 366.32 L 278.44 365.34 L 279.92 368.61 L 281.39 366.89 L 282.86 347.37 L 284.33 356.09 L 285.81 372.42 L 287.28 371.28 L 288.75 376.63 L 290.22 383.09 L 291.69 382.13 L 293.17 382.30 L 294.64 379.10 L 296.11 380.46 L 297.58 378.44 L 299.06 378.79 L 300.53 369.70 L 302.00 372.11 L 303.47 380.29 L 304.94 372.44 L 306.42 379.05 L 307.89 381.51 L 309.36 378.99 L 310.83 391.15 L 312.31 384.45 L 313.78 386.16 L 315.25 387.03 L 316.72 387.07 L 318.19 385.22 L 319.67 386.25 L 321.14 383.68 L 322.61 385.26 L 324.08 382.77 L 325.56 388.27 L 327.03 378.97 L 328.50 382.98 L 329.97 378.38 L 331.44 372.66 L 332.92 370.86 L 334.39 379.20 L 335.86 368.01 L 337.33 368.01 L 338.81 358.68 L 340.28 362.26 L 341.75 358.17 L 343.22 360.12 L 344.69 364.69 L 346.17 362.14 L 347.64 364.57 L 349.11 368.00 L 350.58 374.30 L 352.06 371.16 L 353.53 373.66 L 355.00 376.68 L 356.47 375.66 L 357.94 372.57 L 359.42 376.12 L 360.89 366.61 L 362.36 362.68 L 363.83 363.60 L 365.31 373.38 L 366.78 377.78 L 368.25 377.09 L 369.72 362.56 L 371.19 373.55 L 372.67 364.73 L 374.14 358.56 L 375.61 354.58 L 377.08 355.76 L 378.56 358.58 L 380.03 355.04 L 381.50 359.34 L 382.97 359.10 L 384.44 357.84 L 385.92 365.56 L 387.39 369.32 L 388.86 368.73 L 390.33 366.77 L 391.81 368.75 L 393.28 367.04 L 394.75 357.08 L 396.22 345.49 L 397.69 369.09 L 399.17 365.66 L 400.64 358.89 L 402.11 366.12 L 403.58 376.65 L 405.06 376.65 L 406.53 373.19 L 408.00 377.26 L 409.47 374.10 L 410.94 384.94 L 412.42 379.87 L 413.89 381.23 L 415.36 374.98 L 416.83 390.56 L 418.31 387.37 L 419.78 374.71 L 421.25 382.72 L 422.72 381.48 L 424.19 373.32 L 425.67 383.76 L 427.14 376.27 L 428.61 381.34 L 430.08 386.74 L 431.56 377.61 L 433.03 375.64 L 434.50 367.84 L 435.97 378.39 L 437.44 366.32 L 438.92 381.64 L 440.39 378.57 L 441.86 377.08 L 443.33 371.12 L 444.81 369.55 L 446.28 370.10 L 447.75 370.74 L 449.22 368.45 L 450.69 369.33 L 452.17 369.21 L 453.64 369.47 L 455.11 369.79 L 456.58 369.46 L 458.06 369.04 L 459.53 369.17 L 461.00 369.22 L 462.47 369.40 L 463.94 370.51 L 465.42 368.76 L 466.89 370.06 L 468.36 369.93 L 469.83 369.82 L 471.31 369.91 L 472.78 369.91 L 474.25 370.03 L 475.72 368.75 L 477.19 371.05 L 478.67 369.57 L 480.14 370.12 L 481.61 370.10 L 483.08 369.83 L 484.56 369.43 L 486.03 368.85 L 487.50 367.06 L 488.97 366.18 L 490.44 365.09 L 491.92 365.73 L 493.39 365.87 L 494.86 376.09 L 496.33 373.95 L 497.81 383.42 L 499.28 374.18 L 500.75 377.58 L 502.22 380.50 L 503.69 385.95 L 505.17 386.22 L 506.64 364.02 L 508.11 365.21 L 509.58 382.66 L 511.06 380.55 L 512.53 380.31 L 514.00 380.42 L 515.47 380.16 L 516.94 380.22 L 518.42 380.23 L 519.89 379.62 L 521.36 379.89 L 522.83 379.81 L 524.31 379.70 L 525.78 379.46 L 527.25 379.77 L 528.72 379.57 L 530.19 379.56 L 531.67 379.65 L 533.14 378.91 L 534.61 380.29 L 536.08 381.91 L 537.56 400.22 L 539.03 385.96 L 540.50 392.38 L 541.97 393.85 L 543.44 397.11 L 544.92 390.94 L 546.39 391.26 L 547.86 391.62 L 549.33 388.45 L 550.81 384.89 L 552.28 383.54 L 553.75 381.25 L 555.22 358.69 L 556.69 353.98 L 558.17 369.24 L 559.64 374.43 L 561.11 363.57 L 562.58 356.17 L 564.06 364.74 L 565.53 362.65 L 567.00 359.74 L 568.47 374.59 L 569.94 360.12 L 571.42 366.09 L 572.89 369.28 L 574.36 364.73 L 575.83 361.34 L 577.31 350.48 L 578.78 326.92 L 580.25 336.93 L 581.72 378.06 L 583.19 367.35 L 584.67 345.85 L 586.14 335.26 L 587.61 357.97 L 589.08 360.23 L 590.56 346.61 L 592.03 334.60 L 593.50 357.51 L 594.97 362.51 L 596.44 373.29 L 597.92 365.58 L 599.39 362.60 L 600.86 356.77 L 602.33 371.20 L 603.81 358.84 L 605.28 331.94 L 606.75 366.56 L 608.22 365.65 L 609.69 370.90 L 611.17 368.44 L 612.64 361.70 L 614.11 366.08 L 615.58 366.08 L 617.06 353.84 L 618.53 373.69 L 620.00 387.98 L 621.47 390.94 L 622.94 366.88 L 624.42 360.54 L 625.89 356.25 L 627.36 350.41 L 628.83 348.89 L 630.31 349.64 L 631.78 348.50 L 633.25 350.24 L 634.72 351.14 L 636.19 349.83 L 637.67 351.24 L 639.14 350.20 L 640.61 352.24 L 642.08 348.72 L 643.56 353.74 L 645.03 353.21 L 646.50 353.79 L 647.97 345.26 L 649.44 337.65 L 650.92 345.02 L 652.39 350.89 L 653.86 343.28 L 655.33 347.69 L 656.81 351.31 L 658.28 337.79 L 659.75 339.35 L 661.22 351.02 L 662.69 337.82 L 664.17 338.84 L 665.64 348.78 L 667.11 351.25 L 668.58 329.16 L 670.06 351.26 L 671.53 351.25 L 673.00 341.20 L 674.47 323.10 L 675.94 324.69 L 677.42 342.19 L 678.89 350.89 L 680.36 351.66 L 681.83 356.15 L 683.31 347.69 L 684.78 346.65 L 686.25 345.33 L 687.72 345.08 L 689.19 343.35 L 690.67 344.82 L 692.14 352.00 L 693.61 347.10 L 695.08 344.56 L 696.56 346.37 L 698.03 342.69 L 699.50 344.04 L 700.97 355.27 L 702.44 353.77 L 703.92 350.91 L 705.39 346.54 L 706.86 344.96 L 708.33 342.49 L 709.81 342.78 L 711.28 343.84 L 712.75 340.86 L 714.22 338.57 L 715.69 331.07 L 717.17 342.75 L 718.64 343.55 L 720.11 343.27 L 721.58 342.48 L 723.06 338.96 L 724.53 344.47 L 726.00 342.26 L 727.47 345.28 L 728.94 355.00 L 730.42 348.76 L 731.89 352.43 L 733.36 357.73 L 734.83 348.25 L 736.31 350.66 L 737.78 350.20 L 739.25 353.51 L 740.72 371.60 L 742.19 368.44 L 743.67 374.86 L 745.14 360.65 L 746.61 379.10 L 748.08 382.38 L 749.56 381.60 L 751.03 387.16 L 752.50 383.98 L 753.97 385.72 L 755.44 380.08 L 756.92 377.00 L 758.39 376.33 L 759.86 372.86 L 761.33 372.66 L 762.81 372.94" stroke="#2E7D32" />
<path class="series" d="M 178.33 399.97 L 179.81 404.47 L 181.28 411.67 L 182.75 412.00 L 184.22 408.11 L 185.69 405.17 L 187.17 402.56 L 188.64 399.95 L 190.11 399.54 L 191.58 400.76 L 193.06 404.04 L 194.53 403.58 L 196.00 403.14 L 197.47 400.83 L 198.94 400.83 L 200.42 399.79 L 201.89 397.92 L 203.36 399.17 L 204.83 404.46 L 206.31 404.82 L 207.78 407.02 L 209.25 408.13 L 210.72 408.92 L 212.19 407.33 L 213.67 407.57 L 215.14 405.02 L 216.61 403.33 L 218.08 402.12 L 219.56 399.36 L 221.03 397.79 L 222.50 401.01 L 223.97 400.29 L 225.44 403.81 L 226.92 404.30 L 228.39 401.03 L 229.86 400.06 L 231.33 401.09 L 232.81 398.68 L 234.28 402.93 L 235.75 404.24 L 237.22 402.91 L 238.69 404.03 L 240.17 404.11 L 241.64 407.20 L 243.11 408.01 L 244.58 413.40 L 246.06 413.97 L 247.53 411.06 L 249.00 409.89 L 250.47 409.59 L 251.94 410.49 L 253.42 418.04 L 254.89 415.27 L 256.36 412.36 L 257.83 423.01 L 259.31 419.50 L 260.78 414.70 L 262.25 410.22 L 263.72 411.82 L 265.19 412.05 L 266.67 409.63 L 268.14 409.30 L 269.61 408.85 L 271.08 398.22 L 272.56 408.77 L 274.03 416.39 L 275.50 414.51 L 276.97 413.68 L 278.44 415.46 L 279.92 413.18 L 281.39 410.96 L 282.86 409.54 L 284.33 405.25 L 285.81 412.48 L 287.28 398.93 L 288.75 408.01 L 290.22 403.49 L 291.69 407.21 L 293.17 408.98 L 294.64 412.01 L 296.11 417.37 L 297.58 424.44 L 299.06 425.37 L 300.53 424.77 L 302.00 426.87 L 303.47 425.03 L 304.94 423.26 L 306.42 420.65 L 307.89 417.45 L 309.36 408.72 L 310.83 410.91 L 312.31 403.87 L 313.78 416.17 L 315.25 404.20 L 316.72 407.53 L 318.19 407.65 L 319.67 400.53 L 321.14 408.01 L 322.61 389.56 L 324.08 398.29 L 325.56 387.59 L 327.03 393.29 L 328.50 385.09 L 329.97 406.93 L 331.44 387.92 L 332.92 395.63 L 334.39 385.61 L 335.86 386.97 L 337.33 386.97 L 338.81 395.41 L 340.28 390.95 L 341.75 385.17 L 343.22 392.53 L 344.69 392.40 L 346.17 399.26 L 347.64 408.23 L 349.11 409.67 L 350.58 402.59 L 352.06 400.58 L 353.53 401.35 L 355.00 404.19 L 356.47 397.73 L 357.94 406.80 L 359.42 410.71 L 360.89 414.26 L 362.36 413.17 L 363.83 408.24 L 365.31 412.80 L 366.78 407.38 L 368.25 409.02 L 369.72 411.24 L 371.19 422.18 L 372.67 437.18 L 374.14 437.79 L 375.61 434.38 L 377.08 439.06 L 378.56 432.23 L 380.03 438.04 L 381.50 441.62 L 382.97 436.46 L 384.44 428.22 L 385.92 426.35 L 387.39 432.01 L 388.86 426.07 L 390.33 426.21 L 391.81 421.87 L 393.28 424.42 L 394.75 414.57 L 396.22 395.59 L 397.69 414.12 L 399.17 412.94 L 400.64 411.61 L 402.11 415.59 L 403.58 410.46 L 405.06 410.46 L 406.53 415.71 L 408.00 414.82 L 409.47 414.58 L 410.94 413.41 L 412.42 417.89 L 413.89 409.63 L 415.36 419.19 L 416.83 409.21 L 418.31 420.01 L 419.78 408.12 L 421.25 428.78 L 422.72 412.11 L 424.19 419.53 L 425.67 409.22 L 427.14 419.88 L 428.61 414.46 L 430.08 415.74 L 431.56 412.08 L 433.03 410.96 L 434.50 411.91 L 435.97 411.26 L 437.44 419.40 L 438.92 407.64 L 440.39 407.87 L 441.86 412.97 L 443.33 410.09 L 444.81 409.40 L 446.28 409.04 L 447.75 409.43 L 449.22 410.18 L 450.69 410.06 L 452.17 408.83 L 453.64 409.56 L 455.11 410.16 L 456.58 409.46 L 458.06 409.30 L 459.53 409.63 L 461.00 409.62 L 462.47 409.52 L 463.94 409.99 L 465.42 409.16 L 466.89 409.62 L 468.36 409.80 L 469.83 409.69 L 471.31 409.64 L 472.78 409.72 L 474.25 409.63 L 475.72 409.34 L 477.19 409.50 L 478.67 409.24 L 480.14 409.11 L 481.61 409.14 L 483.08 408.41 L 484.56 408.13 L 486.03 407.53 L 487.50 405.77 L 488.97 403.42 L 490.44 403.72 L 491.92 403.65 L 493.39 403.66 L 494.86 405.00 L 496.33 403.81 L 497.81 406.94 L 499.28 409.91 L 500.75 410.93 L 502.22 408.79 L 503.69 413.34 L 505.17 412.88 L 506.64 410.62 L 508.11 413.69 L 509.58 414.58 L 511.06 413.79 L 512.53 413.40 L 514.00 412.47 L 515.47 413.59 L 516.94 413.15 L 518.42 413.52 L 519.89 413.23 L 521.36 413.35 L 522.83 413.25 L 524.31 413.39 L 525.78 413.21 L 527.25 413.37 L 528.72 413.41 L 530.19 413.41 L 531.67 413.31 L 533.14 413.48 L 534.61 413.25 L 536.08 413.51 L 537.56 414.27 L 539.03 415.06 L 540.50 419.10 L 541.97 422.08 L 543.44 415.94 L 544.92 434.52 L 546.39 419.42 L 547.86 426.07 L 549.33 430.83 L 550.81 423.03 L 552.28 400.70 L 553.75 398.25 L 555.22 383.32 L 556.69 396.05 L 558.17 409.52 L 559.64 407.94 L 561.11 431.26 L 562.58 457.56 L 564.06 446.95 L 565.53 442.67 L 567.00 426.67 L 568.47 420.68 L 569.94 423.99 L 571.42 419.77 L 572.89 398.31 L 574.36 392.04 L 575.83 388.55 L 577.31 370.34 L 578.78 402.52 L 580.25 421.04 L 581.72 426.47 L 583.19 422.47 L 584.67 417.52 L 586.14 406.81 L 587.61 393.91 L 589.08 394.02 L 590.56 403.09 L 592.03 424.03 L 593.50 426.16 L 594.97 422.34 L 596.44 388.74 L 597.92 390.58 L 599.39 398.89 L 600.86 401.29 L 602.33 396.67 L 603.81 406.67 L 605.28 375.63 L 606.75 390.23 L 608.22 386.33 L 609.69 418.83 L 611.17 418.77 L 612.64 418.32 L 614.11 416.23 L 615.58 416.23 L 617.06 419.95 L 618.53 413.54 L 620.00 412.98 L 621.47 421.36 L 622.94 421.48 L 624.42 409.32 L 625.89 405.97 L 627.36 404.28 L 628.83 399.82 L 630.31 408.07 L 631.78 400.52 L 633.25 411.90 L 634.72 408.75 L 636.19 406.12 L 637.67 411.75 L 639.14 411.60 L 640.61 410.49 L 642.08 406.01 L 643.56 412.51 L 645.03 410.87 L 646.50 415.69 L 647.97 407.64 L 649.44 405.98 L 650.92 397.33 L 652.39 406.44 L 653.86 413.10 L 655.33 411.38 L 656.81 410.06 L 658.28 424.67 L 659.75 429.49 L 661.22 416.14 L 662.69 411.08 L 664.17 416.02 L 665.64 412.71 L 667.11 406.31 L 668.58 399.51 L 670.06 403.77 L 671.53 402.21 L 673.00 411.32 L 674.47 413.22 L 675.94 410.25 L 677.42 407.78 L 678.89 410.41 L 680.36 414.78 L 681.83 411.28 L 683.31 414.14 L 684.78 417.76 L 686.25 419.21 L 687.72 410.49 L 689.19 409.36 L 690.67 414.20 L 692.14 410.14 L 693.61 406.85 L 695.08 410.16 L 696.56 416.46 L 698.03 402.00 L 699.50 404.61 L 700.97 405.66 L 702.44 404.05 L 703.92 407.27 L 705.39 408.00 L 706.86 410.31 L 708.33 406.20 L 709.81 409.22 L 711.28 410.44 L 712.75 408.46 L 714.22 413.33 L 715.69 407.38 L 717.17 408.73 L 718.64 410.02 L 720.11 415.81 L 721.58 417.35 L 723.06 436.54 L 724.53 443.38 L 726.00 441.44 L 727.47 436.26 L 728.94 434.03 L 730.42 434.79 L 731.89 436.54 L 733.36 413.07 L 734.83 393.90 L 736.31 368.45 L 737.78 382.16 L 739.25 385.33 L 740.72 381.68 L 742.19 390.65 L 743.67 395.73 L 745.14 395.57 L 746.61 405.65 L 748.08 409.04 L 749.56 414.79 L 751.03 418.18 L 752.50 424.77 L 753.97 429.49 L 755.44 429.50 L 756.92 434.13 L 758.39 420.75 L 759.86 423.15 L 761.33 417.64 L 762.81 401.36" stroke="#6A1B9A" />
<line x1="900.00" y1="307.75" x2="918.00" y2="307.75" stroke="#2E7D32" stroke-width="3" />
<text class="small" x="924.00" y="311.75">pitch</text>
<line x1="900.00" y1="323.75" x2="918.00" y2="323.75" stroke="#6A1B9A" stroke-width="3" />
<text class="small" x="924.00" y="327.75">roll</text>
<text x="90" y="500.50" font-size="14" font-weight="700">Aceleração (magnitude) (u.a.)</text>
<rect class="event" x="443.33" y="506.50" width="54.47" height="192.75" />
<line class="eventline" x1="443.33" y1="506.50" x2="443.33" y2="699.25" />
<line class="eventline" x1="497.81" y1="506.50" x2="497.81" y2="699.25" />
<line class="grid" x1="90" y1="699.25" x2="1150" y2="699.25" />
<text class="small" x="80" y="703.25" text-anchor="end">0.00</text>
<line class="grid" x1="90" y1="660.70" x2="1150" y2="660.70" />
<text class="small" x="80" y="664.70" text-anchor="end">0.50</text>
<line class="grid" x1="90" y1="622.15" x2="1150" y2="622.15" />
<text class="small" x="80" y="626.15" text-anchor="end">1.00</text>
<line class="grid" x1="90" y1="583.60" x2="1150" y2="583.60" />
<text class="small" x="80" y="587.60" text-anchor="end">1.50</text>
<line class="grid" x1="90" y1="545.05" x2="1150" y2="545.05" />
<text class="small" x="80" y="549.05" text-anchor="end">2.00</text>
<line class="grid" x1="90" y1="506.50" x2="1150" y2="506.50" />
<text class="small" x="80" y="510.50" text-anchor="end">2.50</text>
<line class="grid" x1="90.00" y1="506.50" x2="90.00" y2="699.25" />
<line class="grid" x1="266.67" y1="506.50" x2="266.67" y2="699.25" />
<line class="grid" x1="443.33" y1="506.50" x2="443.33" y2="699.25" />
<line class="grid" x1="620.00" y1="506.50" x2="620.00" y2="699.25" />
<line class="grid" x1="796.67" y1="506.50" x2="796.67" y2="699.25" />
<line class="grid" x1="973.33" y1="506.50" x2="973.33" y2="699.25" />
<line class="grid" x1="1150.00" y1="506.50" x2="1150.00" y2="699.25" />
<line class="axis" x1="90" y1="506.50" x2="90" y2="699.25" />
<line class="axis" x1="90" y1="699.25" x2="1150" y2="699.25" />
<path class="series" d="M 178.33 686.05 L 179.81 693.62 L 181.28 690.44 L 182.75 690.27 L 184.22 687.29 L 185.69 693.08 L 187.17 688.36 L 188.64 690.72 L 190.11 692.31 L 191.58 696.16 L 193.06 695.68 L 194.53 694.59 L 196.00 693.17 L 197.47 692.44 L 198.94 693.55 L 200.42 692.88 L 201.89 684.81 L 203.36 691.75 L 204.83 688.88 L 206.31 686.78 L 207.78 689.09 L 209.25 687.06 L 210.72 674.91 L 212.19 690.35 L 213.67 687.05 L 215.14 687.05 L 216.61 683.09 L 218.08 689.09 L 219.56 692.81 L 221.03 691.48 L 222.50 694.85 L 223.97 695.64 L 225.44 694.31 L 226.92 694.93 L 228.39 693.85 L 229.86 684.97 L 231.33 697.40 L 232.81 693.66 L 234.28 686.82 L 235.75 692.33 L 237.22 688.76 L 238.69 697.61 L 240.17 695.20 L 241.64 693.75 L 243.11 695.06 L 244.58 691.87 L 246.06 682.48 L 247.53 683.42 L 249.00 687.34 L 250.47 694.56 L 251.94 688.11 L 253.42 675.64 L 254.89 677.31 L 256.36 671.81 L 257.83 687.61 L 259.31 676.50 L 260.78 684.09 L 262.25 684.89 L 263.72 685.69 L 265.19 682.50 L 266.67 685.24 L 268.14 659.70 L 269.61 691.99 L 271.08 683.57 L 272.56 683.67 L 274.03 676.35 L 275.50 680.49 L 276.97 651.34 L 278.44 634.66 L 279.92 651.30 L 281.39 622.81 L 282.86 668.71 L 284.33 577.52 L 285.81 680.92 L 287.28 670.02 L 288.75 666.33 L 290.22 660.23 L 291.69 662.11 L 293.17 668.21 L 294.64 682.32 L 296.11 673.99 L 297.58 661.99 L 299.06 678.81 L 300.53 640.34 L 302.00 666.93 L 303.47 666.25 L 304.94 655.40 L 306.42 660.91 L 307.89 666.69 L 309.36 684.09 L 310.83 655.53 L 312.31 675.86 L 313.78 682.67 L 315.25 682.72 L 316.72 687.35 L 318.19 682.99 L 319.67 690.98 L 321.14 696.25 L 322.61 678.57 L 324.08 688.93 L 325.56 675.31 L 327.03 681.45 L 328.50 684.32 L 329.97 677.79 L 331.44 666.23 L 332.92 681.74 L 334.39 656.02 L 335.86 644.12 L 337.33 630.42 L 338.81 661.74 L 340.28 638.77 L 341.75 646.79 L 343.22 680.12 L 344.69 636.31 L 346.17 666.37 L 347.64 670.88 L 349.11 678.10 L 350.58 690.13 L 352.06 692.04 L 353.53 677.12 L 355.00 687.52 L 356.47 653.07 L 357.94 681.07 L 359.42 632.86 L 360.89 668.88 L 362.36 661.93 L 363.83 688.24 L 365.31 666.24 L 366.78 659.38 L 368.25 679.31 L 369.72 660.37 L 371.19 655.57 L 372.67 642.76 L 374.14 654.16 L 375.61 658.77 L 377.08 669.72 L 378.56 661.65 L 380.03 660.88 L 381.50 656.56 L 382.97 645.73 L 384.44 655.81 L 385.92 655.81 L 387.39 676.70 L 388.86 673.85 L 390.33 672.12 L 391.81 668.46 L 393.28 670.49 L 394.75 651.88 L 396.22 629.19 L 397.69 674.80 L 399.17 655.80 L 400.64 689.75 L 402.11 681.96 L 403.58 667.77 L 405.06 681.44 L 406.53 673.20 L 408.00 687.25 L 409.47 675.12 L 410.94 677.23 L 412.42 685.78 L 413.89 678.97 L 415.36 666.47 L 416.83 672.03 L 418.31 678.41 L 419.78 670.57 L 421.25 662.00 L 422.72 678.56 L 424.19 687.37 L 425.67 673.92 L 427.14 671.78 L 428.61 681.11 L 430.08 665.97 L 431.56 684.15 L 433.03 689.40 L 434.50 676.17 L 435.97 679.89 L 437.44 682.06 L 438.92 668.48 L 440.39 676.97 L 441.86 696.53 L 443.33 678.42 L 444.81 688.46 L 446.28 695.83 L 447.75 694.89 L 449.22 697.34 L 450.69 696.08 L 452.17 695.35 L 453.64 697.71 L 455.11 697.84 L 456.58 696.25 L 458.06 694.29 L 459.53 694.97 L 461.00 696.90 L 462.47 697.70 L 463.94 694.25 L 465.42 693.61 L 466.89 694.72 L 468.36 695.97 L 469.83 696.85 L 471.31 695.70 L 472.78 697.96 L 474.25 697.93 L 475.72 691.94 L 477.19 689.34 L 478.67 697.30 L 480.14 697.57 L 481.61 696.24 L 483.08 696.34 L 484.56 698.10 L 486.03 697.94 L 487.50 697.16 L 488.97 692.39 L 490.44 697.76 L 491.92 697.10 L 493.39 697.21 L 494.86 671.82 L 496.33 679.90 L 497.81 686.08 L 499.28 692.25 L 500.75 693.11 L 502.22 695.04 L 503.69 667.18 L 505.17 674.83 L 506.64 634.49 L 508.11 670.90 L 509.58 682.76 L 511.06 693.35 L 512.53 696.10 L 514.00 696.22 L 515.47 697.86 L 516.94 697.85 L 518.42 695.75 L 519.89 696.64 L 521.36 698.34 L 522.83 698.43 L 524.31 698.52 L 525.78 698.38 L 527.25 698.08 L 528.72 697.42 L 530.19 697.86 L 531.67 698.50 L 533.14 697.02 L 534.61 696.31 L 536.08 685.49 L 537.56 662.09 L 539.03 666.80 L 540.50 690.20 L 541.97 681.83 L 543.44 680.64 L 544.92 662.14 L 546.39 667.56 L 547.86 667.56 L 549.33 665.10 L 550.81 671.77 L 552.28 664.29 L 553.75 640.88 L 555.22 653.58 L 556.69 579.93 L 558.17 651.84 L 559.64 667.11 L 561.11 644.56 L 562.58 599.45 L 564.06 607.92 L 565.53 648.33 L 567.00 633.63 L 568.47 631.11 L 569.94 653.20 L 571.42 641.06 L 572.89 642.66 L 574.36 624.40 L 575.83 607.20 L 577.31 605.87 L 578.78 556.60 L 580.25 601.43 L 581.72 612.24 L 583.19 613.43 L 584.67 681.06 L 586.14 651.16 L 587.61 666.40 L 589.08 655.50 L 590.56 645.85 L 592.03 647.87 L 593.50 657.57 L 594.97 676.89 L 596.44 648.74 L 597.92 609.52 L 599.39 662.29 L 600.86 672.22 L 602.33 665.09 L 603.81 675.36 L 605.28 625.07 L 606.75 592.72 L 608.22 643.00 L 609.69 638.14 L 611.17 634.85 L 612.64 671.82 L 614.11 653.34 L 615.58 643.28 L 617.06 665.69 L 618.53 662.32 L 620.00 654.09 L 621.47 660.08 L 622.94 675.99 L 624.42 671.46 L 625.89 662.20 L 627.36 665.74 L 628.83 647.65 L 630.31 669.43 L 631.78 685.22 L 633.25 678.82 L 634.72 675.66 L 636.19 682.30 L 637.67 661.49 L 639.14 655.77 L 640.61 659.72 L 642.08 681.89 L 643.56 692.42 L 645.03 672.10 L 646.50 679.68 L 647.97 667.90 L 649.44 660.33 L 650.92 680.14 L 652.39 696.41 L 653.86 692.63 L 655.33 681.57 L 656.81 671.57 L 658.28 621.33 L 659.75 659.49 L 661.22 648.02 L 662.69 667.96 L 664.17 676.19 L 665.64 670.58 L 667.11 680.10 L 668.58 684.10 L 670.06 673.12 L 671.53 672.62 L 673.00 627.01 L 674.47 655.33 L 675.94 669.44 L 677.42 653.45 L 678.89 651.09 L 680.36 663.94 L 681.83 682.26 L 683.31 688.13 L 684.78 693.44 L 686.25 680.62 L 687.72 681.93 L 689.19 692.25 L 690.67 685.40 L 692.14 684.73 L 693.61 685.34 L 695.08 666.32 L 696.56 666.60 L 698.03 666.80 L 699.50 672.03 L 700.97 657.41 L 702.44 678.34 L 703.92 688.15 L 705.39 688.15 L 706.86 690.41 L 708.33 692.61 L 709.81 690.65 L 711.28 693.18 L 712.75 689.75 L 714.22 686.31 L 715.69 651.87 L 717.17 682.58 L 718.64 691.50 L 720.11 688.94 L 721.58 675.04 L 723.06 621.02 L 724.53 654.15 L 726.00 612.69 L 727.47 635.37 L 728.94 659.10 L 730.42 665.85 L 731.89 645.70 L 733.36 617.64 L 734.83 628.56 L 736.31 524.89 L 737.78 577.51 L 739.25 625.45 L 740.72 641.91 L 742.19 654.98 L 743.67 677.08 L 745.14 662.54 L 746.61 646.48 L 748.08 644.80 L 749.56 653.96 L 751.03 648.13 L 752.50 663.03 L 753.97 672.38 L 755.44 674.38 L 756.92 672.20 L 758.39 685.48 L 759.86 686.92 L 761.33 672.10 L 762.81 653.02" stroke="#FB8C00" />
<text x="90" y="711.25" font-size="14" font-weight="700">Giroscópio (magnitude) (u.a.)</text>
<rect class="event" x="443.33" y="717.25" width="54.47" height="192.75" />
<line class="eventline" x1="443.33" y1="717.25" x2="443.33" y2="910.00" />
<line class="eventline" x1="497.81" y1="717.25" x2="497.81" y2="910.00" />
<line class="grid" x1="90" y1="910.00" x2="1150" y2="910.00" />
<text class="small" x="80" y="914.00" text-anchor="end">0.00</text>
<line class="grid" x1="90" y1="871.45" x2="1150" y2="871.45" />
<text class="small" x="80" y="875.45" text-anchor="end">0.10</text>
<line class="grid" x1="90" y1="832.90" x2="1150" y2="832.90" />
<text class="small" x="80" y="836.90" text-anchor="end">0.20</text>
<line class="grid" x1="90" y1="794.35" x2="1150" y2="794.35" />
<text class="small" x="80" y="798.35" text-anchor="end">0.30</text>
<line class="grid" x1="90" y1="755.80" x2="1150" y2="755.80" />
<text class="small" x="80" y="759.80" text-anchor="end">0.40</text>
<line class="grid" x1="90" y1="717.25" x2="1150" y2="717.25" />
<text class="small" x="80" y="721.25" text-anchor="end">0.50</text>
<line class="grid" x1="90.00" y1="717.25" x2="90.00" y2="910.00" />
<line class="grid" x1="266.67" y1="717.25" x2="266.67" y2="910.00" />
<line class="grid" x1="443.33" y1="717.25" x2="443.33" y2="910.00" />
<line class="grid" x1="620.00" y1="717.25" x2="620.00" y2="910.00" />
<line class="grid" x1="796.67" y1="717.25" x2="796.67" y2="910.00" />
<line class="grid" x1="973.33" y1="717.25" x2="973.33" y2="910.00" />
<line class="grid" x1="1150.00" y1="717.25" x2="1150.00" y2="910.00" />
<line class="axis" x1="90" y1="717.25" x2="90" y2="910.00" />
<line class="axis" x1="90" y1="910.00" x2="1150" y2="910.00" />
<path class="series" d="M 178.33 903.60 L 179.81 898.07 L 181.28 902.30 L 182.75 903.54 L 184.22 903.46 L 185.69 904.15 L 187.17 906.04 L 188.64 908.15 L 190.11 904.54 L 191.58 903.49 L 193.06 903.27 L 194.53 903.75 L 196.00 902.68 L 197.47 901.82 L 198.94 902.81 L 200.42 906.18 L 201.89 904.69 L 203.36 905.40 L 204.83 904.17 L 206.31 904.91 L 207.78 905.20 L 209.25 901.42 L 210.72 900.73 L 212.19 904.42 L 213.67 902.70 L 215.14 902.70 L 216.61 903.65 L 218.08 904.95 L 219.56 905.89 L 221.03 906.94 L 222.50 906.02 L 223.97 907.34 L 225.44 906.61 L 226.92 908.55 L 228.39 905.81 L 229.86 907.14 L 231.33 906.83 L 232.81 905.07 L 234.28 904.13 L 235.75 904.29 L 237.22 905.43 L 238.69 905.12 L 240.17 906.03 L 241.64 904.49 L 243.11 906.96 L 244.58 906.38 L 246.06 901.62 L 247.53 897.95 L 249.00 897.50 L 250.47 897.78 L 251.94 895.35 L 253.42 898.40 L 254.89 894.71 L 256.36 891.06 L 257.83 895.22 L 259.31 890.12 L 260.78 897.60 L 262.25 900.18 L 263.72 906.04 L 265.19 905.13 L 266.67 904.30 L 268.14 897.32 L 269.61 898.65 L 271.08 897.92 L 272.56 898.83 L 274.03 899.68 L 275.50 905.03 L 276.97 897.18 L 278.44 896.85 L 279.92 895.36 L 281.39 896.98 L 282.86 895.54 L 284.33 897.47 L 285.81 901.02 L 287.28 899.49 L 288.75 902.76 L 290.22 905.90 L 291.69 899.47 L 293.17 904.44 L 294.64 899.65 L 296.11 889.18 L 297.58 880.97 L 299.06 877.69 L 300.53 873.75 L 302.00 865.93 L 303.47 872.10 L 304.94 874.71 L 306.42 872.03 L 307.89 880.54 L 309.36 879.07 L 310.83 884.12 L 312.31 880.04 L 313.78 882.29 L 315.25 887.09 L 316.72 884.26 L 318.19 887.55 L 319.67 886.76 L 321.14 888.24 L 322.61 886.75 L 324.08 886.78 L 325.56 887.24 L 327.03 886.96 L 328.50 893.17 L 329.97 879.49 L 331.44 898.22 L 332.92 905.92 L 334.39 904.03 L 335.86 896.56 L 337.33 892.49 L 338.81 892.15 L 340.28 891.41 L 341.75 892.65 L 343.22 883.41 L 344.69 874.32 L 346.17 881.67 L 347.64 880.55 L 349.11 884.94 L 350.58 880.57 L 352.06 887.95 L 353.53 892.70 L 355.00 891.91 L 356.47 888.48 L 357.94 892.16 L 359.42 891.39 L 360.89 896.06 L 362.36 892.67 L 363.83 881.46 L 365.31 885.85 L 366.78 887.02 L 368.25 879.12 L 369.72 902.09 L 371.19 885.72 L 372.67 865.13 L 374.14 837.56 L 375.61 836.60 L 377.08 840.11 L 378.56 835.32 L 380.03 828.58 L 381.50 817.81 L 382.97 824.13 L 384.44 839.45 L 385.92 839.45 L 387.39 845.25 L 388.86 841.15 L 390.33 841.87 L 391.81 844.12 L 393.28 853.70 L 394.75 848.92 L 396.22 881.87 L 397.69 904.81 L 399.17 905.29 L 400.64 903.16 L 402.11 905.43 L 403.58 908.08 L 405.06 898.45 L 406.53 890.03 L 408.00 875.20 L 409.47 879.08 L 410.94 879.09 L 412.42 883.36 L 413.89 890.04 L 415.36 894.48 L 416.83 904.15 L 418.31 902.90 L 419.78 906.20 L 421.25 905.81 L 422.72 902.04 L 424.19 899.31 L 425.67 902.43 L 427.14 903.60 L 428.61 898.21 L 430.08 893.99 L 431.56 898.79 L 433.03 904.94 L 434.50 901.07 L 435.97 897.85 L 437.44 902.15 L 438.92 902.92 L 440.39 905.64 L 441.86 907.11 L 443.33 907.00 L 444.81 908.71 L 446.28 908.27 L 447.75 909.04 L 449.22 908.68 L 450.69 908.51 L 452.17 908.98 L 453.64 909.23 L 455.11 908.79 L 456.58 908.70 L 458.06 909.08 L 459.53 908.98 L 461.00 908.82 L 462.47 908.95 L 463.94 908.97 L 465.42 908.78 L 466.89 908.99 L 468.36 908.95 L 469.83 908.61 L 471.31 909.24 L 472.78 908.75 L 474.25 909.09 L 475.72 908.92 L 477.19 909.27 L 478.67 909.00 L 480.14 909.08 L 481.61 908.74 L 483.08 909.07 L 484.56 908.81 L 486.03 907.27 L 487.50 906.06 L 488.97 908.09 L 490.44 908.92 L 491.92 909.06 L 493.39 909.09 L 494.86 904.52 L 496.33 892.26 L 497.81 905.91 L 499.28 902.00 L 500.75 906.90 L 502.22 903.50 L 503.69 903.40 L 505.17 906.94 L 506.64 901.32 L 508.11 909.45 L 509.58 908.66 L 511.06 908.97 L 512.53 909.03 L 514.00 909.07 L 515.47 909.08 L 516.94 908.91 L 518.42 908.89 L 519.89 909.07 L 521.36 909.04 L 522.83 909.05 L 524.31 908.98 L 525.78 908.94 L 527.25 908.99 L 528.72 909.02 L 530.19 909.06 L 531.67 908.94 L 533.14 909.01 L 534.61 908.91 L 536.08 906.99 L 537.56 901.40 L 539.03 901.64 L 540.50 899.76 L 541.97 891.13 L 543.44 893.25 L 544.92 883.11 L 546.39 869.92 L 547.86 869.92 L 549.33 858.49 L 550.81 849.27 L 552.28 852.15 L 553.75 885.98 L 555.22 902.53 L 556.69 864.45 L 558.17 871.36 L 559.64 894.80 L 561.11 886.64 L 562.58 870.36 L 564.06 835.75 L 565.53 829.91 L 567.00 849.41 L 568.47 872.24 L 569.94 864.38 L 571.42 873.41 L 572.89 892.53 L 574.36 902.93 L 575.83 876.84 L 577.31 858.00 L 578.78 820.08 L 580.25 836.08 L 581.72 893.56 L 583.19 897.65 L 584.67 906.94 L 586.14 903.58 L 587.61 876.94 L 589.08 865.84 L 590.56 864.34 L 592.03 879.48 L 593.50 900.30 L 594.97 900.63 L 596.44 896.34 L 597.92 862.91 L 599.39 862.65 L 600.86 873.25 L 602.33 878.05 L 603.81 880.71 L 605.28 875.64 L 606.75 842.03 L 608.22 836.35 L 609.69 845.08 L 611.17 895.26 L 612.64 902.33 L 614.11 890.69 L 615.58 891.53 L 617.06 894.46 L 618.53 901.36 L 620.00 904.77 L 621.47 889.74 L 622.94 890.41 L 624.42 890.68 L 625.89 898.62 L 627.36 904.03 L 628.83 894.46 L 630.31 894.17 L 631.78 894.00 L 633.25 895.00 L 634.72 893.23 L 636.19 895.05 L 637.67 902.11 L 639.14 902.47 L 640.61 903.44 L 642.08 895.51 L 643.56 903.20 L 645.03 898.77 L 646.50 896.17 L 647.97 895.98 L 649.44 898.71 L 650.92 900.31 L 652.39 904.42 L 653.86 904.99 L 655.33 906.22 L 656.81 896.56 L 658.28 886.54 L 659.75 892.70 L 661.22 901.99 L 662.69 904.52 L 664.17 901.74 L 665.64 899.19 L 667.11 896.74 L 668.58 902.24 L 670.06 904.92 L 671.53 908.61 L 673.00 898.49 L 674.47 901.13 L 675.94 904.45 L 677.42 901.11 L 678.89 904.93 L 680.36 900.27 L 681.83 905.71 L 683.31 900.53 L 684.78 906.85 L 686.25 898.54 L 687.72 904.59 L 689.19 902.29 L 690.67 903.86 L 692.14 903.95 L 693.61 900.50 L 695.08 902.01 L 696.56 906.68 L 698.03 901.99 L 699.50 895.04 L 700.97 892.63 L 702.44 895.84 L 703.92 901.63 L 705.39 901.63 L 706.86 902.24 L 708.33 905.82 L 709.81 905.27 L 711.28 905.62 L 712.75 900.39 L 714.22 902.54 L 715.69 902.94 L 717.17 907.21 L 718.64 905.15 L 720.11 903.57 L 721.58 889.97 L 723.06 870.33 L 724.53 855.23 L 726.00 844.02 L 727.47 848.24 L 728.94 823.34 L 730.42 823.40 L 731.89 834.74 L 733.36 862.33 L 734.83 885.64 L 736.31 880.28 L 737.78 836.89 L 739.25 833.62 L 740.72 827.43 L 742.19 839.82 L 743.67 840.73 L 745.14 864.67 L 746.61 891.81 L 748.08 904.53 L 749.56 885.11 L 751.03 866.22 L 752.50 867.15 L 753.97 870.57 L 755.44 873.37 L 756.92 876.93 L 758.39 880.87 L 759.86 887.13 L 761.33 893.25 L 762.81 894.31" stroke="#E53935" />
<text x="620.00" y="952" font-size="15" text-anchor="middle">minutos (relativo ao início do evento)</text>
<text class="small" x="90.00" y="936" text-anchor="middle">-4.00</text>
<text class="small" x="266.67" y="936" text-anchor="middle">-2.00</text>
<text class="small" x="443.33" y="936" text-anchor="middle">0.00</text>
<text class="small" x="620.00" y="936" text-anchor="middle">2.00</text>
<text class="small" x="796.67" y="936" text-anchor="middle">4.00</text>
<text class="small" x="973.33" y="936" text-anchor="middle">6.00</text>
<text class="small" x="1150.00" y="936" text-anchor="middle">8.00</text>
</svg>