<?xml version="1.0" encoding="UTF-8"?>
<svg xmlns="http://www.w3.org/2000/svg" width="1180" height="980" viewBox="0 0 1180 980">
<style>
text { font-family: -apple-system, BlinkMacSystemFont, 'Segoe UI', Roboto, Helvetica, Arial, sans-serif; fill: #111; }
.small { font-size: 12px; fill: #222; }
.title { font-size: 18px; font-weight: 700; }
.axis { stroke: #111; stroke-width: 1.4; }
.grid { stroke: #E6E6E6; stroke-width: 1; }
.event { fill: #FFEB3B; fill-opacity: 0.18; }
.eventline { stroke: #F9A825; stroke-width: 1.2; stroke-dasharray: 4 3; }
.series { fill: none; stroke-width: 1.8; }
</style>
<text class="title" x="90" y="34">ciclo 18 — basculamento — 2025-12-12T22:52:17-03:00 → 2025-12-12T22:52:54-03:00 (span 37s, dur 38s)</text>
<text class="small" x="90" y="54">GPS: -11.692708,-47.165101  hotspot: -11.693,-47.165</text>
<text class="small" x="90" y="70">Janela: -3.00 → 3.62 min (relativo ao início do evento)</text>
<text x="90" y="79.00" font-size="14" font-weight="700">Velocidade (km/h)</text>
<rect class="event" x="443.33" y="85.00" width="54.47" height="192.75" />
<line class="eventline" x1="443.33" y1="85.00" x2="443.33" y2="277.75" />
<line class="eventline" x1="497.81" y1="85.00" x2="497.81" y2="277.75" />
<line class="grid" x1="90" y1="277.75" x2="1150" y2="277.75" />
<text class="small" x="80" y="281.75" text-anchor="end">0.00</text>
<line class="grid" x1="90" y1="239.20" x2="1150" y2="239.20" />
<text class="small" x="80" y="243.20" text-anchor="end">5.00</text>
<line class="grid" x1="90" y1="200.65" x2="1150" y2="200.65" />
<text class="small" x="80" y="204.65" text-anchor="end">10.0</text>
<line class="grid" x1="90" y1="162.10" x2="1150" y2="162.10" />
<text class="small" x="80" y="166.10" text-anchor="end">15.0</text>
<line class="grid" x1="90" y1="123.55" x2="1150" y2="123.55" />
<text class="small" x="80" y="127.55" text-anchor="end">20.0</text>
<line class="grid" x1="90" y1="85.00" x2="1150" y2="85.00" />
<text class="small" x="80" y="89.00" text-anchor="end">25.0</text>
<line class="grid" x1="90.00" y1="85.00" x2="90.00" y2="277.75" />
<line class="grid" x1="266.67" y1="85.00" x2="266.67" y2="277.75" />
<line class="grid" x1="443.33" y1="85.00" x2="443.33" y2="277.75" />
<line class="grid" x1="620.00" y1="85.00" x2="620.00" y2="277.75" />
<line class="grid" x1="796.67" y1="85.00" x2="796.67" y2="277.75" />
<line class="grid" x1="973.33" y1="85.00" x2="973.33" y2="277.75" />
<line class="grid" x1="1150.00" y1="85.00" x2="1150.00" y2="277.75" />
<line class="axis" x1="90" y1="85.00" x2="90" y2="277.75" />
<line class="axis" x1="90" y1="277.75" x2="1150" y2="277.75" />
<path class="series" d="M 178.33 219.18 L 179.81 220.30 L 181.28 221.41 L 182.75 219.74 L 184.22 219.74 L 185.69 220.02 L 187.17 221.68 L 188.64 220.02 L 190.11 219.18 L 191.58 218.91 L 193.06 219.74 L 194.53 216.69 L 196.00 217.24 L 197.47 216.69 L 198.94 218.35 L 200.42 218.63 L 201.89 220.30 L 203.36 218.63 L 204.83 219.18 L 206.31 218.91 L 207.78 218.63 L 209.25 217.52 L 210.72 216.96 L 212.19 218.91 L 213.67 220.30 L 215.14 223.07 L 216.61 223.07 L 218.08 222.79 L 219.56 221.13 L 221.03 216.13 L 222.50 215.85 L 223.97 215.02 L 225.44 213.91 L 226.92 213.36 L 228.39 215.02 L 229.86 215.85 L 231.33 216.13 L 232.81 215.02 L 234.28 213.91 L 235.75 211.41 L 237.22 210.86 L 238.69 210.58 L 240.17 212.80 L 241.64 214.19 L 243.11 214.19 L 244.58 217.52 L 246.06 221.13 L 247.53 212.80 L 249.00 213.63 L 250.47 215.30 L 251.94 216.96 L 253.42 216.41 L 254.89 212.80 L 256.36 211.97 L 257.83 207.25 L 259.31 209.47 L 260.78 214.19 L 262.25 214.74 L 263.72 215.58 L 265.19 210.30 L 266.67 202.25 L 268.14 192.54 L 269.61 182.27 L 271.08 180.33 L 272.56 168.67 L 274.03 169.50 L 275.50 161.45 L 276.97 157.57 L 278.44 151.74 L 279.92 145.35 L 281.39 136.47 L 282.86 128.42 L 284.33 125.37 L 285.81 125.92 L 287.28 117.60 L 288.75 118.71 L 290.22 130.09 L 291.69 117.04 L 293.17 112.60 L 294.64 111.77 L 296.11 113.16 L 297.58 117.04 L 299.06 135.36 L 300.53 149.79 L 302.00 153.13 L 303.47 162.01 L 304.94 169.22 L 306.42 168.39 L 307.89 178.38 L 309.36 189.49 L 310.83 191.15 L 312.31 195.59 L 313.78 194.48 L 315.25 193.09 L 316.72 198.65 L 318.19 195.87 L 319.67 191.15 L 321.14 187.27 L 322.61 190.87 L 324.08 188.65 L 325.56 180.33 L 327.03 174.50 L 328.50 173.94 L 329.97 180.88 L 331.44 178.94 L 332.92 178.66 L 334.39 171.72 L 335.86 161.17 L 337.33 164.23 L 338.81 161.73 L 340.28 166.17 L 341.75 184.49 L 343.22 186.16 L 344.69 180.05 L 346.17 185.88 L 347.64 202.25 L 349.11 187.54 L 350.58 188.93 L 352.06 193.09 L 353.53 192.26 L 355.00 205.31 L 356.47 277.75 L 357.94 247.22 L 359.42 225.29 L 360.89 249.44 L 362.36 277.75 L 363.83 277.75 L 365.31 277.75 L 366.78 277.75 L 368.25 254.99 L 369.72 251.94 L 371.19 251.94 L 372.67 250.27 L 374.14 249.99 L 375.61 245.83 L 377.08 277.75 L 378.56 245.55 L 380.03 245.00 L 381.50 277.75 L 382.97 277.75 L 384.44 277.75 L 385.92 277.75 L 387.39 247.50 L 388.86 246.66 L 390.33 277.75 L 391.81 277.75 L 393.28 277.75 L 394.75 277.75 L 396.22 248.61 L 397.69 277.75 L 399.17 277.75 L 400.64 277.75 L 402.11 277.75 L 403.58 277.75 L 405.06 277.75 L 406.53 277.75 L 408.00 249.16 L 409.47 247.77 L 410.94 248.33 L 412.42 248.88 L 413.89 248.05 L 415.36 248.05 L 416.83 249.72 L 418.31 249.16 L 419.78 248.05 L 421.25 250.27 L 422.72 248.61 L 424.19 248.33 L 425.67 249.44 L 427.14 249.16 L 428.61 250.27 L 430.08 249.99 L 431.56 253.88 L 433.03 257.77 L 434.50 259.43 L 435.97 259.99 L 437.44 263.32 L 438.92 264.70 L 440.39 264.70 L 441.86 267.76 L 443.33 277.75 L 444.81 277.75 L 446.28 277.75 L 447.75 277.75 L 449.22 277.75 L 450.69 277.75 L 452.17 277.75 L 453.64 277.75 L 455.11 277.75 L 456.58 277.75 L 458.06 277.75 L 459.53 277.75 L 461.00 277.75 L 462.47 277.75 L 463.94 277.75 L 465.42 277.75 L 466.89 277.75 L 468.36 277.75 L 469.83 277.75 L 471.31 277.75 L 472.78 277.75 L 474.25 277.75 L 475.72 277.75 L 477.19 277.75 L 478.67 277.75 L 480.14 277.75 L 481.61 277.75 L 483.08 277.75 L 484.56 277.75 L 486.03 277.75 L 487.50 277.75 L 488.97 277.75 L 490.44 277.75 L 491.92 277.75 L 493.39 277.75 L 494.86 277.75 L 496.33 277.75 L 497.81 277.75 L 499.28 273.31 L 500.75 263.59 L 502.22 240.83 L 503.69 225.29 L 505.17 233.34 L 506.64 253.88 L 508.11 272.75 L 509.58 277.75 L 511.06 277.75 L 512.53 277.75 L 514.00 267.76 L 515.47 250.83 L 516.94 277.75 L 518.42 277.75 L 519.89 277.75 L 521.36 277.75 L 522.83 277.75 L 524.31 277.75 L 525.78 277.75 L 527.25 277.75 L 528.72 277.75 L 530.19 277.75 L 531.67 277.75 L 533.14 277.75 L 534.61 277.75 L 536.08 277.75 L 537.56 277.75 L 539.03 277.75 L 540.50 277.75 L 541.97 277.75 L 543.44 277.75 L 544.92 277.75 L 546.39 277.75 L 547.86 277.75 L 549.33 277.75 L 550.81 277.75 L 552.28 277.75 L 553.75 277.75 L 555.22 277.75 L 556.69 277.75 L 558.17 277.75 L 559.64 277.75 L 561.11 277.75 L 562.58 277.75 L 564.06 277.75 L 565.53 277.75 L 567.00 277.75 L 568.47 277.75 L 569.94 277.75 L 571.42 277.75 L 572.89 277.75 L 574.36 277.75 L 575.83 277.75 L 577.31 277.75 L 578.78 277.75 L 580.25 277.75 L 581.72 277.75 L 583.19 277.75 L 584.67 277.75 L 586.14 277.75 L 587.61 277.75 L 589.08 277.75 L 590.56 277.75 L 592.03 277.75 L 593.50 277.75 L 594.97 277.75 L 596.44 277.75 L 597.92 277.75 L 599.39 277.75 L 600.86 277.75 L 602.33 277.75 L 603.81 277.75 L 605.28 277.75 L 606.75 277.75 L 608.22 277.75 L 609.69 277.75 L 611.17 277.75 L 612.64 277.75 L 614.11 277.75 L 615.58 277.75 L 617.06 277.75 L 618.53 277.75 L 620.00 277.75 L 621.47 277.75 L 622.94 277.75 L 624.42 277.75 L 625.89 277.75 L 627.36 277.75 L 628.83 277.75 L 630.31 277.75 L 631.78 277.75 L 633.25 277.75 L 634.72 277.75 L 636.19 277.75 L 637.67 277.75 L 639.14 277.75 L 640.61 277.75 L 642.08 277.75 L 643.56 277.75 L 645.03 277.75 L 646.50 277.75 L 647.97 277.75 L 649.44 277.75 L 650.92 277.75 L 652.39 277.75 L 653.86 277.75 L 655.33 277.75 L 656.81 277.75 L 658.28 277.75 L 659.75 277.75 L 661.22 277.75 L 662.69 277.75 L 664.17 277.75 L 665.64 277.75 L 667.11 277.75 L 668.58 277.75 L 670.06 277.75 L 671.53 277.75 L 673.00 277.75 L 674.47 277.75 L 675.94 277.75 L 677.42 277.75 L 678.89 277.75 L 680.36 277.75 L 681.83 277.75 L 683.31 277.75 L 684.78 277.75 L 686.25 277.75 L 687.72 277.75 L 689.19 277.75 L 690.67 277.75 L 692.14 277.75 L 693.61 277.75 L 695.08 277.75 L 696.56 277.75 L 698.03 277.75 L 699.50 277.75 L 700.97 277.75 L 702.44 277.75 L 703.92 277.75 L 705.39 277.75 L 706.86 277.75 L 708.33 277.75 L 709.81 277.75 L 711.28 277.75 L 712.75 277.75 L 714.22 277.75 L 715.69 277.75 L 717.17 277.75 L 718.64 277.75 L 720.11 277.75 L 721.58 277.75 L 723.06 277.75 L 724.53 277.75 L 726.00 277.75 L 727.47 277.75 L 728.94 277.75 L 730.42 277.75 L 731.89 277.75 L 733.36 277.75 L 734.83 277.75 L 736.31 277.75 L 737.78 277.75 L 739.25 277.75 L 740.72 277.75 L 742.19 277.75 L 743.67 277.75 L 745.14 277.75 L 746.61 277.75 L 748.08 277.75 L 749.56 277.75 L 751.03 277.75 L 752.50 277.75 L 753.97 277.75 L 755.44 277.75 L 756.92 277.75 L 758.39 277.75 L 759.86 277.75 L 761.33 277.75 L 762.81 277.75" stroke="#1976D2" />
<text x="90" y="289.75" font-size="14" font-weight="700">Inclinação (graus)</text>
<rect class="event" x="443.33" y="295.75" width="54.47" height="192.75" />
<line class="eventline" x1="443.33" y1="295.75" x2="443.33" y2="488.50" />
<line class="eventline" x1="497.81" y1="295.75" x2="497.81" y2="488.50" />
<line class="grid" x1="90" y1="488.50" x2="1150" y2="488.50" />
<text class="small" x="80" y="492.50" text-anchor="end">-10.0</text>
<line class="grid" x1="90" y1="449.95" x2="1150" y2="449.95" />
<text class="small" x="80" y="453.95" text-anchor="end">0.00</text>
<line class="grid" x1="90" y1="411.40" x2="1150" y2="411.40" />
<text class="small" x="80" y="415.40" text-anchor="end">10.0</text>
<line class="grid" x1="90" y1="372.85" x2="1150" y2="372.85" />
<text class="small" x="80" y="376.85" text-anchor="end">20.0</text>
<line class="grid" x1="90" y1="334.30" x2="1150" y2="334.30" />
<text class="small" x="80" y="338.30" text-anchor="end">30.0</text>
<line class="grid" x1="90" y1="295.75" x2="1150" y2="295.75" />
<text class="small" x="80" y="299.75" text-anchor="end">40.0</text>
<line class="grid" x1="90.00" y1="295.75" x2="90.00" y2="488.50" />
<line class="grid" x1="266.67" y1="295.75" x2="266.67" y2="488.50" />
<line class="grid" x1="443.33" y1="295.75" x2="443.33" y2="488.50" />
<line class="grid" x1="620.00" y1="295.75" x2="620.00" y2="488.50" />
<line class="grid" x1="796.67" y1="295.75" x2="796.67" y2="488.50" />
<line class="grid" x1="973.33" y1="295.75" x2="973.33" y2="488.50" />
<line class="grid" x1="1150.00" y1="295.75" x2="1150.00" y2="488.50" />
<line class="axis" x1="90" y1="295.75" x2="90" y2="488.50" />
<line class="axis" x1="90" y1="488.50" x2="1150" y2="488.50" />
<path class="series" d="M 178.33 430.03 L 179.81 429.00 L 181.28 430.53 L 182.75 428.60 L 184.22 430.39 L 185.69 428.35 L 187.17 428.48 L 188.64 428.02 L 190.11 427.67 L 191.58 427.01 L 193.06 426.03 L 194.53 422.45 L 196.00 422.68 L 197.47 421.13 L 198.94 424.10 L 200.42 425.88 L 201.89 424.78 L 203.36 426.11 L 204.83 428.34 L 206.31 427.41 L 207.78 429.05 L 209.25 429.94 L 210.72 431.56 L 212.19 434.14 L 213.67 433.04 L 215.14 435.57 L 216.61 435.38 L 218.08 434.84 L 219.56 433.66 L 221.03 432.60 L 222.50 431.30 L 223.97 430.85 L 225.44 426.83 L 226.92 426.62 L 228.39 429.94 L 229.86 428.85 L 231.33 428.62 L 232.81 427.55 L 234.28 426.95 L 235.75 426.66 L 237.22 426.56 L 238.69 425.95 L 240.17 428.37 L 241.64 430.58 L 243.11 431.97 L 244.58 430.71 L 246.06 431.30 L 247.53 432.30 L 249.00 430.34 L 250.47 431.13 L 251.94 432.23 L 253.42 434.28 L 254.89 428.55 L 256.36 424.95 L 257.83 424.37 L 259.31 423.63 L 260.78 427.57 L 262.25 422.69 L 263.72 424.54 L 265.19 424.54 L 266.67 424.04 L 268.14 422.36 L 269.61 414.45 L 271.08 410.74 L 272.56 409.85 L 274.03 406.63 L 275.50 405.42 L 276.97 406.27 L 278.44 409.53 L 279.92 412.63 L 281.39 408.63 L 282.86 411.05 L 284.33 414.98 L 285.81 416.60 L 287.28 409.98 L 288.75 416.60 L 290.22 411.14 L 291.69 411.64 L 293.17 407.35 L 294.64 415.85 L 296.11 412.12 L 297.58 413.11 L 299.06 411.09 L 300.53 417.28 L 302.00 419.03 L 303.47 417.76 L 304.94 417.82 L 306.42 421.33 L 307.89 417.54 L 309.36 421.38 L 310.83 424.94 L 312.31 423.09 L 313.78 425.52 L 315.25 418.04 L 316.72 414.39 L 318.19 413.99 L 319.67 413.21 L 321.14 406.64 L 322.61 405.14 L 324.08 415.36 L 325.56 410.10 L 327.03 403.30 L 328.50 397.54 L 329.97 401.52 L 331.44 397.01 L 332.92 399.78 L 334.39 404.66 L 335.86 403.79 L 337.33 406.14 L 338.81 400.96 L 340.28 404.44 L 341.75 401.29 L 343.22 405.86 L 344.69 406.87 L 346.17 414.04 L 347.64 406.93 L 349.11 404.84 L 350.58 403.14 L 352.06 402.66 L 353.53 399.78 L 355.00 396.99 L 356.47 393.15 L 357.94 386.83 L 359.42 382.20 L 360.89 380.13 L 362.36 397.18 L 363.83 403.20 L 365.31 401.66 L 366.78 393.93 L 368.25 392.82 L 369.72 403.67 L 371.19 401.13 L 372.67 400.49 L 374.14 398.04 L 375.61 401.82 L 377.08 401.29 L 378.56 402.62 L 380.03 402.62 L 381.50 401.37 L 382.97 398.32 L 384.44 400.40 L 385.92 398.59 L 387.39 400.45 L 388.86 401.55 L 390.33 402.78 L 391.81 405.29 L 393.28 403.68 L 394.75 405.83 L 396.22 406.06 L 397.69 407.23 L 399.17 406.18 L 400.64 409.26 L 402.11 406.26 L 403.58 409.63 L 405.06 407.07 L 406.53 410.47 L 408.00 407.62 L 409.47 408.38 L 410.94 408.18 L 412.42 405.59 L 413.89 408.72 L 415.36 408.68 L 416.83 406.99 L 418.31 407.44 L 419.78 411.54 L 421.25 405.60 L 422.72 408.06 L 424.19 407.46 L 425.67 407.19 L 427.14 404.01 L 428.61 404.05 L 430.08 404.23 L 431.56 405.20 L 433.03 403.46 L 434.50 401.29 L 435.97 405.74 L 437.44 404.05 L 438.92 402.40 L 440.39 404.61 L 441.86 412.23 L 443.33 400.77 L 444.81 402.37 L 446.28 402.18 L 447.75 402.21 L 449.22 403.19 L 450.69 400.56 L 452.17 402.09 L 453.64 402.10 L 455.11 401.70 L 456.58 401.44 L 458.06 401.38 L 459.53 401.53 L 461.00 401.45 L 462.47 401.59 L 463.94 401.65 L 465.42 401.52 L 466.89 401.75 L 468.36 401.28 L 469.83 401.40 L 471.31 401.47 L 472.78 401.45 L 474.25 401.56 L 475.72 403.30 L 477.19 400.42 L 478.67 401.70 L 480.14 402.07 L 481.61 402.20 L 483.08 402.42 L 484.56 401.47 L 486.03 404.50 L 487.50 403.12 L 488.97 400.19 L 490.44 400.98 L 491.92 404.03 L 493.39 401.68 L 494.86 402.79 L 496.33 404.55 L 497.81 406.68 L 499.28 416.10 L 500.75 428.65 L 502.22 411.32 L 503.69 388.20 L 505.17 392.52 L 506.64 392.56 L 508.11 408.43 L 509.58 406.85 L 511.06 404.97 L 512.53 420.04 L 514.00 412.88 L 515.47 389.76 L 516.94 409.06 L 518.42 410.47 L 519.89 407.85 L 521.36 408.59 L 522.83 408.32 L 524.31 408.13 L 525.78 407.45 L 527.25 407.75 L 528.72 407.62 L 530.19 407.52 L 531.67 407.16 L 533.14 407.19 L 534.61 407.16 L 536.08 407.12 L 537.56 406.77 L 539.03 407.34 L 540.50 406.99 L 541.97 407.16 L 543.44 407.12 L 544.92 407.19 L 546.39 406.62 L 547.86 407.37 L 549.33 407.10 L 550.81 406.99 L 552.28 407.10 L 553.75 406.99 L 555.22 407.05 L 556.69 407.06 L 558.17 406.98 L 559.64 406.98 L 561.11 407.04 L 562.58 407.03 L 564.06 407.00 L 565.53 406.99 L 567.00 407.03 L 568.47 407.03 L 569.94 407.09 L 571.42 407.06 L 572.89 407.01 L 574.36 407.09 L 575.83 407.05 L 577.31 407.06 L 578.78 407.04 L 580.25 407.02 L 581.72 407.05 L 583.19 407.03 L 584.67 406.99 L 586.14 407.04 L 587.61 407.05 L 589.08 406.96 L 590.56 407.03 L 592.03 406.98 L 593.50 407.06 L 594.97 406.99 L 596.44 406.97 L 597.92 407.02 L 599.39 407.00 L 600.86 406.97 L 602.33 407.02 L 603.81 407.03 L 605.28 407.00 L 606.75 406.99 L 608.22 406.92 L 609.69 407.04 L 611.17 406.99 L 612.64 406.96 L 614.11 406.97 L 615.58 406.96 L 617.06 407.03 L 618.53 406.99 L 620.00 406.95 L 621.47 406.99 L 622.94 407.00 L 624.42 406.96 L 625.89 407.01 L 627.36 407.03 L 628.83 406.96 L 630.31 406.98 L 631.78 407.00 L 633.25 407.02 L 634.72 407.05 L 636.19 407.00 L 637.67 406.98 L 639.14 407.01 L 640.61 407.02 L 642.08 407.00 L 643.56 406.99 L 645.03 406.98 L 646.50 407.00 L 647.97 407.05 L 649.44 406.98 L 650.92 407.05 L 652.39 407.04 L 653.86 407.04 L 655.33 407.02 L 656.81 407.02 L 658.28 407.02 L 659.75 407.04 L 661.22 407.03 L 662.69 407.04 L 664.17 407.01 L 665.64 407.03 L 667.11 407.06 L 668.58 406.96 L 670.06 407.00 L 671.53 407.04 L 673.00 407.02 L 674.47 407.01 L 675.94 407.00 L 677.42 407.03 L 678.89 407.02 L 680.36 407.04 L 681.83 406.99 L 683.31 407.05 L 684.78 407.05 L 686.25 406.99 L 687.72 407.02 L 689.19 407.04 L 690.67 407.03 L 692.14 407.00 L 693.61 407.01 L 695.08 406.99 L 696.56 407.01 L 698.03 406.98 L 699.50 407.00 L 700.97 407.04 L 702.44 407.02 L 703.92 407.05 L 705.39 407.02 L 706.86 407.03 L 708.33 407.02 L 709.81 407.04 L 711.28 407.00 L 712.75 406.99 L 714.22 407.03 L 715.69 407.01 L 717.17 407.05 L 718.64 406.95 L 720.11 407.03 L 721.58 407.04 L 723.06 406.98 L 724.53 406.99 L 726.00 406.99 L 727.47 407.01 L 728.94 407.01 L 730.42 406.99 L 731.89 407.00 L 733.36 407.07 L 734.83 406.98 L 736.31 407.07 L 737.78 406.99 L 739.25 407.02 L 740.72 407.03 L 742.19 406.97 L 743.67 407.03 L 745.14 407.05 L 746.61 407.04 L 748.08 407.02 L 749.56 407.03 L 751.03 407.05 L 752.50 407.00 L 753.97 407.03 L 755.44 406.99 L 756.92 406.99 L 758.39 407.06 L 759.86 407.03 L 761.33 407.03 L 762.81 406.97" stroke="#2E7D32" />
<path class="series" d="M 178.33 450.32 L 179.81 451.91 L 181.28 447.08 L 182.75 445.98 L 184.22 444.33 L 185.69 445.56 L 187.17 444.22 L 188.64 442.46 L 190.11 441.65 L 191.58 444.09 L 193.06 444.20 L 194.53 441.28 L 196.00 441.78 L 197.47 440.77 L 198.94 437.40 L 200.42 437.52 L 201.89 438.16 L 203.36 439.55 L 204.83 441.60 L 206.31 439.36 L 207.78 439.69 L 209.25 440.69 L 210.72 442.00 L 212.19 444.93 L 213.67 442.86 L 215.14 444.03 L 216.61 444.69 L 218.08 444.12 L 219.56 441.52 L 221.03 440.42 L 222.50 442.33 L 223.97 446.82 L 225.44 444.96 L 226.92 443.07 L 228.39 443.54 L 229.86 437.99 L 231.33 441.47 L 232.81 442.15 L 234.28 444.65 L 235.75 445.03 L 237.22 441.07 L 238.69 444.82 L 240.17 442.73 L 241.64 446.09 L 243.11 446.89 L 244.58 445.78 L 246.06 446.43 L 247.53 447.22 L 249.00 445.61 L 250.47 444.51 L 251.94 449.74 L 253.42 447.55 L 254.89 452.76 L 256.36 447.91 L 257.83 448.59 L 259.31 455.40 L 260.78 456.27 L 262.25 445.76 L 263.72 447.81 L 265.19 447.81 L 266.67 446.84 L 268.14 448.17 L 269.61 452.95 L 271.08 443.69 L 272.56 453.35 L 274.03 451.32 L 275.50 457.98 L 276.97 458.06 L 278.44 461.52 L 279.92 447.45 L 281.39 444.63 L 282.86 438.30 L 284.33 444.51 L 285.81 454.79 L 287.28 460.87 L 288.75 471.63 L 290.22 460.77 L 291.69 466.73 L 293.17 460.46 L 294.64 477.23 L 296.11 470.73 L 297.58 475.90 L 299.06 459.03 L 300.53 457.35 L 302.00 451.44 L 303.47 458.12 L 304.94 455.65 L 306.42 460.08 L 307.89 446.06 L 309.36 445.88 L 310.83 442.41 L 312.31 441.66 L 313.78 446.31 L 315.25 449.69 L 316.72 449.48 L 318.19 441.40 L 319.67 445.81 L 321.14 450.85 L 322.61 456.27 L 324.08 459.44 L 325.56 456.00 L 327.03 455.00 L 328.50 453.30 L 329.97 454.63 L 331.44 451.60 L 332.92 437.66 L 334.39 442.19 L 335.86 444.14 L 337.33 435.45 L 338.81 431.28 L 340.28 424.38 L 341.75 425.72 L 343.22 439.35 L 344.69 447.96 L 346.17 454.95 L 347.64 470.14 L 349.11 473.09 L 350.58 469.68 L 352.06 465.68 L 353.53 475.53 L 355.00 463.69 L 356.47 456.34 L 357.94 448.56 L 359.42 441.71 L 360.89 437.20 L 362.36 446.13 L 363.83 447.93 L 365.31 448.88 L 366.78 448.67 L 368.25 447.89 L 369.72 447.54 L 371.19 448.62 L 372.67 445.18 L 374.14 443.38 L 375.61 447.13 L 377.08 445.03 L 378.56 446.12 L 380.03 446.72 L 381.50 445.76 L 382.97 439.36 L 384.44 440.70 L 385.92 435.97 L 387.39 448.82 L 388.86 445.45 L 390.33 442.97 L 391.81 448.95 L 393.28 445.46 L 394.75 448.92 L 396.22 443.03 L 397.69 444.08 L 399.17 443.96 L 400.64 444.82 L 402.11 440.36 L 403.58 445.27 L 405.06 434.05 L 406.53 444.47 L 408.00 451.52 L 409.47 441.41 L 410.94 443.67 L 412.42 444.18 L 413.89 447.34 L 415.36 442.37 L 416.83 440.72 L 418.31 443.70 L 419.78 453.34 L 421.25 444.90 L 422.72 446.47 L 424.19 445.13 L 425.67 447.89 L 427.14 444.30 L 428.61 447.87 L 430.08 441.97 L 431.56 445.62 L 433.03 444.60 L 434.50 443.49 L 435.97 443.27 L 437.44 444.27 L 438.92 444.14 L 440.39 442.13 L 441.86 445.81 L 443.33 445.07 L 444.81 445.30 L 446.28 443.46 L 447.75 445.45 L 449.22 443.93 L 450.69 444.94 L 452.17 444.86 L 453.64 444.45 L 455.11 444.81 L 456.58 444.41 L 458.06 444.35 L 459.53 444.69 L 461.00 444.41 L 462.47 444.49 L 463.94 444.55 L 465.42 444.25 L 466.89 444.63 L 468.36 444.20 L 469.83 444.14 L 471.31 444.57 L 472.78 444.24 L 474.25 444.30 L 475.72 444.46 L 477.19 444.31 L 478.67 443.99 L 480.14 444.43 L 481.61 444.16 L 483.08 444.42 L 484.56 444.52 L 486.03 444.26 L 487.50 443.89 L 488.97 443.38 L 490.44 443.73 L 491.92 443.85 L 493.39 442.74 L 494.86 443.68 L 496.33 442.70 L 497.81 443.11 L 499.28 439.75 L 500.75 438.25 L 502.22 435.28 L 503.69 439.43 L 505.17 454.38 L 506.64 457.20 L 508.11 443.76 L 509.58 445.71 L 511.06 447.21 L 512.53 435.99 L 514.00 435.65 L 515.47 461.04 L 516.94 444.10 L 518.42 447.02 L 519.89 445.79 L 521.36 445.70 L 522.83 445.50 L 524.31 444.88 L 525.78 445.53 L 527.25 445.89 L 528.72 445.28 L 530.19 445.63 L 531.67 445.49 L 533.14 445.33 L 534.61 445.51 L 536.08 445.41 L 537.56 445.37 L 539.03 445.56 L 540.50 445.59 L 541.97 446.16 L 543.44 445.42 L 544.92 445.54 L 546.39 445.51 L 547.86 446.16 L 549.33 445.46 L 550.81 445.75 L 552.28 445.95 L 553.75 445.61 L 555.22 445.65 L 556.69 445.75 L 558.17 445.72 L 559.64 445.72 L 561.11 445.69 L 562.58 445.70 L 564.06 445.74 L 565.53 445.71 L 567.00 445.76 L 568.47 445.72 L 569.94 445.73 L 571.42 445.78 L 572.89 445.80 L 574.36 445.80 L 575.83 445.70 L 577.31 445.80 L 578.78 445.81 L 580.25 445.73 L 581.72 445.73 L 583.19 445.78 L 584.67 445.78 L 586.14 445.75 L 587.61 445.74 L 589.08 445.77 L 590.56 445.77 L 592.03 445.68 L 593.50 445.73 L 594.97 445.72 L 596.44 445.74 L 597.92 445.63 L 599.39 445.78 L 600.86 445.75 L 602.33 445.70 L 603.81 445.74 L 605.28 445.69 L 606.75 445.77 L 608.22 445.75 L 609.69 445.71 L 611.17 445.69 L 612.64 445.73 L 614.11 445.76 L 615.58 445.70 L 617.06 445.74 L 618.53 445.70 L 620.00 445.75 L 621.47 445.77 L 622.94 445.67 L 624.42 445.72 L 625.89 445.74 L 627.36 445.74 L 628.83 445.68 L 630.31 445.81 L 631.78 445.69 L 633.25 445.75 L 634.72 445.71 L 636.19 445.70 L 637.67 445.78 L 639.14 445.69 L 640.61 445.74 L 642.08 445.69 L 643.56 445.74 L 645.03 445.76 L 646.50 445.71 L 647.97 445.73 L 649.44 445.79 L 650.92 445.82 L 652.39 445.73 L 653.86 445.76 L 655.33 445.77 L 656.81 445.80 L 658.28 445.81 L 659.75 445.72 L 661.22 445.76 L 662.69 445.79 L 664.17 445.73 L 665.64 445.79 L 667.11 445.73 L 668.58 445.81 L 670.06 445.79 L 671.53 445.74 L 673.00 445.77 L 674.47 445.76 L 675.94 445.75 L 677.42 445.77 L 678.89 445.70 L 680.36 445.77 L 681.83 445.75 L 683.31 445.79 L 684.78 445.72 L 686.25 445.73 L 687.72 445.83 L 689.19 445.74 L 690.67 445.71 L 692.14 445.74 L 693.61 445.79 L 695.08 445.80 L 696.56 445.68 L 698.03 445.71 L 699.50 445.79 L 700.97 445.70 L 702.44 445.79 L 703.92 445.76 L 705.39 445.78 L 706.86 445.81 L 708.33 445.74 L 709.81 445.75 L 711.28 445.79 L 712.75 445.78 L 714.22 445.73 L 715.69 445.78 L 717.17 445.76 L 718.64 445.81 L 720.11 445.79 L 721.58 445.74 L 723.06 445.74 L 724.53 445.81 L 726.00 445.78 L 727.47 445.77 L 728.94 445.75 L 730.42 445.81 L 731.89 445.78 L 733.36 445.74 L 734.83 445.82 L 736.31 445.79 L 737.78 445.78 L 739.25 445.74 L 740.72 445.78 L 742.19 445.76 L 743.67 445.81 L 745.14 445.70 L 746.61 445.78 L 748.08 445.81 L 749.56 445.79 L 751.03 445.79 L 752.50 445.73 L 753.97 445.77 L 755.44 445.80 L 756.92 445.77 L 758.39 445.73 L 759.86 445.78 L 761.33 445.77 L 762.81 445.76" stroke="#6A1B9A" />
<line x1="900.00" y1="307.75" x2="918.00" y2="307.75" stroke="#2E7D32" stroke-width="3" />
<text class="small" x="924.00" y="311.75">pitch</text>
<line x1="900.00" y1="323.75" x2="918.00" y2="323.75" stroke="#6A1B9A" stroke-width="3" />
<text class="small" x="924.00" y="327.75">roll</text>
<text x="90" y="500.50" font-size="14" font-weight="700">Aceleração (magnitude) (u.a.)</text>
<rect class="event" x="443.33" y="506.50" width="54.47" height="192.75" />
<line class="eventline" x1="443.33" y1="506.50" x2="443.33" y2="699.25" />
<line class="eventline" x1="497.81" y1="506.50" x2="497.81" y2="699.25" />
<line class="grid" x1="90" y1="699.25" x2="1150" y2="699.25" />
<text class="small" x="80" y="703.25" text-anchor="end">0.00</text>
<line class="grid" x1="90" y1="660.70" x2="1150" y2="660.70" />
<text class="small" x="80" y="664.70" text-anchor="end">0.50</text>
<line class="grid" x1="90" y1="622.15" x2="1150" y2="622.15" />
<text class="small" x="80" y="626.15" text-anchor="end">1.00</text>
<line class="grid" x1="90" y1="583.60" x2="1150" y2="583.60" />
<text class="small" x="80" y="587.60" text-anchor="end">1.50</text>
<line class="grid" x1="90" y1="545.05" x2="1150" y2="545.05" />
<text class="small" x="80" y="549.05" text-anchor="end">2.00</text>
<line class="grid" x1="90" y1="506.50" x2="1150" y2="506.50" />
<text class="small" x="80" y="510.50" text-anchor="end">2.50</text>
<line class="grid" x1="90.00" y1="506.50" x2="90.00" y2="699.25" />
<line class="grid" x1="266.67" y1="506.50" x2="266.67" y2="699.25" />
<line class="grid" x1="443.33" y1="506.50" x2="443.33" y2="699.25" />
<line class="grid" x1="620.00" y1="506.50" x2="620.00" y2="699.25" />
<line class="grid" x1="796.67" y1="506.50" x2="796.67" y2="699.25" />
<line class="grid" x1="973.33" y1="506.50" x2="973.33" y2="699.25" />
<line class="grid" x1="1150.00" y1="506.50" x2="1150.00" y2="699.25" />
<line class="axis" x1="90" y1="506.50" x2="90" y2="699.25" />
<line class="axis" x1="90" y1="699.25" x2="1150" y2="699.25" />
<path class="series" d="M 178.33 689.67 L 179.81 691.50 L 181.28 693.34 L 182.75 697.22 L 184.22 691.26 L 185.69 691.81 L 187.17 696.92 L 188.64 696.05 L 190.11 696.18 L 191.58 695.25 L 193.06 692.65 L 194.53 689.62 L 196.00 691.64 L 197.47 694.94 L 198.94 694.94 L 200.42 694.31 L 201.89 690.21 L 203.36 694.51 L 204.83 691.70 L 206.31 694.24 L 207.78 685.97 L 209.25 696.43 L 210.72 682.40 L 212.19 693.62 L 213.67 675.35 L 215.14 688.54 L 216.61 680.50 L 218.08 684.26 L 219.56 690.33 L 221.03 694.17 L 222.50 690.15 L 223.97 690.92 L 225.44 695.21 L 226.92 691.87 L 228.39 694.62 L 229.86 695.33 L 231.33 693.45 L 232.81 695.12 L 234.28 694.14 L 235.75 689.38 L 237.22 693.95 L 238.69 692.11 L 240.17 689.72 L 241.64 692.63 L 243.11 694.38 L 244.58 690.24 L 246.06 692.94 L 247.53 689.89 L 249.00 693.73 L 250.47 693.98 L 251.94 689.33 L 253.42 690.98 L 254.89 686.22 L 256.36 695.73 L 257.83 680.72 L 259.31 689.33 L 260.78 684.50 L 262.25 686.90 L 263.72 689.18 L 265.19 682.42 L 266.67 681.96 L 268.14 668.91 L 269.61 676.95 L 271.08 651.10 L 272.56 653.54 L 274.03 678.43 L 275.50 663.54 L 276.97 677.62 L 278.44 670.73 L 279.92 673.86 L 281.39 662.95 L 282.86 632.59 L 284.33 669.34 L 285.81 650.88 L 287.28 637.79 L 288.75 640.78 L 290.22 664.10 L 291.69 668.46 L 293.17 653.79 L 294.64 617.04 L 296.11 654.17 L 297.58 649.37 L 299.06 664.72 L 300.53 661.95 L 302.00 664.06 L 303.47 693.60 L 304.94 660.10 L 306.42 673.07 L 307.89 658.75 L 309.36 687.10 L 310.83 674.47 L 312.31 693.27 L 313.78 680.38 L 315.25 689.09 L 316.72 675.29 L 318.19 671.02 L 319.67 684.60 L 321.14 685.23 L 322.61 687.41 L 324.08 669.64 L 325.56 678.66 L 327.03 676.33 L 328.50 678.75 L 329.97 665.46 L 331.44 649.98 L 332.92 651.88 L 334.39 661.78 L 335.86 686.80 L 337.33 653.77 L 338.81 646.74 L 340.28 664.52 L 341.75 655.50 L 343.22 652.48 L 344.69 637.07 L 346.17 628.04 L 347.64 659.90 L 349.11 656.67 L 350.58 664.40 L 352.06 657.77 L 353.53 653.25 L 355.00 658.59 L 356.47 626.05 L 357.94 619.54 L 359.42 626.80 L 360.89 687.09 L 362.36 662.03 L 363.83 685.70 L 365.31 679.03 L 366.78 675.51 L 368.25 687.18 L 369.72 697.52 L 371.19 694.95 L 372.67 694.95 L 374.14 693.46 L 375.61 689.88 L 377.08 695.94 L 378.56 693.39 L 380.03 692.56 L 381.50 689.19 L 382.97 687.21 L 384.44 687.64 L 385.92 675.98 L 387.39 683.75 L 388.86 690.54 L 390.33 690.75 L 391.81 684.35 L 393.28 680.83 L 394.75 695.57 L 396.22 680.83 L 397.69 695.14 L 399.17 693.13 L 400.64 693.96 L 402.11 690.00 L 403.58 695.15 L 405.06 687.64 L 406.53 680.30 L 408.00 686.92 L 409.47 675.83 L 410.94 681.09 L 412.42 695.85 L 413.89 689.17 L 415.36 691.26 L 416.83 686.32 L 418.31 686.63 L 419.78 665.46 L 421.25 667.71 L 422.72 693.99 L 424.19 686.55 L 425.67 691.15 L 427.14 683.11 L 428.61 690.59 L 430.08 677.92 L 431.56 685.14 L 433.03 696.29 L 434.50 693.20 L 435.97 691.89 L 437.44 696.89 L 438.92 696.18 L 440.39 693.60 L 441.86 679.26 L 443.33 684.07 L 444.81 693.22 L 446.28 694.42 L 447.75 697.48 L 449.22 696.52 L 450.69 694.08 L 452.17 696.59 L 453.64 697.69 L 455.11 698.30 L 456.58 697.97 L 458.06 698.15 L 459.53 698.44 L 461.00 698.73 L 462.47 698.51 L 463.94 698.24 L 465.42 698.22 L 466.89 698.45 L 468.36 697.17 L 469.83 698.48 L 471.31 696.88 L 472.78 698.57 L 474.25 698.75 L 475.72 691.42 L 477.19 693.03 L 478.67 696.38 L 480.14 697.42 L 481.61 695.41 L 483.08 697.39 L 484.56 696.38 L 486.03 695.93 L 487.50 695.76 L 488.97 694.26 L 490.44 697.77 L 491.92 692.86 L 493.39 689.02 L 494.86 697.94 L 496.33 696.06 L 497.81 695.36 L 499.28 678.88 L 500.75 672.61 L 502.22 654.98 L 503.69 604.96 L 505.17 629.49 L 506.64 643.98 L 508.11 662.53 L 509.58 681.82 L 511.06 697.19 L 512.53 662.04 L 514.00 679.87 L 515.47 614.60 L 516.94 694.60 L 518.42 688.77 L 519.89 691.23 L 521.36 695.49 L 522.83 696.65 L 524.31 697.18 L 525.78 697.44 L 527.25 698.39 L 528.72 698.09 L 530.19 697.97 L 531.67 697.97 L 533.14 698.86 L 534.61 698.57 L 536.08 699.06 L 537.56 698.84 L 539.03 698.61 L 540.50 695.81 L 541.97 698.44 L 543.44 698.18 L 544.92 698.57 L 546.39 698.74 L 547.86 698.77 L 549.33 698.68 L 550.81 698.56 L 552.28 698.84 L 553.75 699.04 L 555.22 699.07 L 556.69 699.15 L 558.17 699.00 L 559.64 699.05 L 561.11 699.07 L 562.58 699.08 L 564.06 699.08 L 565.53 699.08 L 567.00 699.14 L 568.47 699.21 L 569.94 699.12 L 571.42 699.19 L 572.89 699.06 L 574.36 699.11 L 575.83 699.00 L 577.31 699.10 L 578.78 699.15 L 580.25 699.15 L 581.72 699.11 L 583.19 699.00 L 584.67 699.15 L 586.14 699.16 L 587.61 698.97 L 589.08 699.03 L 590.56 699.10 L 592.03 699.10 L 593.50 699.06 L 594.97 699.17 L 596.44 699.10 L 597.92 699.19 L 599.39 699.19 L 600.86 699.05 L 602.33 699.22 L 603.81 699.12 L 605.28 699.04 L 606.75 699.07 L 608.22 699.19 L 609.69 699.16 L 611.17 699.14 L 612.64 699.03 L 614.11 699.08 L 615.58 699.02 L 617.06 698.96 L 618.53 698.99 L 620.00 699.16 L 621.47 699.06 L 622.94 699.11 L 624.42 699.14 L 625.89 699.13 L 627.36 699.14 L 628.83 698.99 L 630.31 699.12 L 631.78 699.20 L 633.25 698.98 L 634.72 699.06 L 636.19 699.12 L 637.67 699.20 L 639.14 699.12 L 640.61 699.05 L 642.08 699.18 L 643.56 699.11 L 645.03 698.97 L 646.50 699.10 L 647.97 699.08 L 649.44 699.12 L 650.92 699.14 L 652.39 699.12 L 653.86 699.17 L 655.33 698.97 L 656.81 699.09 L 658.28 699.17 L 659.75 699.16 L 661.22 699.04 L 662.69 699.07 L 664.17 699.18 L 665.64 699.12 L 667.11 699.10 L 668.58 699.10 L 670.06 699.10 L 671.53 699.10 L 673.00 699.14 L 674.47 699.08 L 675.94 699.08 L 677.42 699.11 L 678.89 699.16 L 680.36 699.13 L 681.83 699.11 L 683.31 699.17 L 684.78 699.20 L 686.25 699.19 L 687.72 699.10 L 689.19 698.98 L 690.67 698.95 L 692.14 699.08 L 693.61 699.20 L 695.08 699.13 L 696.56 699.21 L 698.03 699.13 L 699.50 699.06 L 700.97 699.04 L 702.44 699.01 L 703.92 699.11 L 705.39 699.11 L 706.86 699.08 L 708.33 699.19 L 709.81 699.13 L 711.28 699.10 L 712.75 699.12 L 714.22 699.06 L 715.69 699.12 L 717.17 699.15 L 718.64 699.11 L 720.11 699.07 L 721.58 699.14 L 723.06 699.18 L 724.53 699.13 L 726.00 699.09 L 727.47 699.10 L 728.94 699.11 L 730.42 699.12 L 731.89 699.11 L 733.36 699.14 L 734.83 699.12 L 736.31 698.95 L 737.78 699.02 L 739.25 699.13 L 740.72 699.17 L 742.19 699.14 L 743.67 699.09 L 745.14 699.23 L 746.61 699.08 L 748.08 698.92 L 749.56 699.06 L 751.03 699.03 L 752.50 699.10 L 753.97 699.12 L 755.44 699.07 L 756.92 699.12 L 758.39 699.16 L 759.86 699.00 L 761.33 699.04 L 762.81 699.18" stroke="#FB8C00" />
<text x="90" y="711.25" font-size="14" font-weight="700">Giroscópio (magnitude) (u.a.)</text>
<rect class="event" x="443.33" y="717.25" width="54.47" height="192.75" />
<line class="eventline" x1="443.33" y1="717.25" x2="443.33" y2="910.00" />
<line class="eventline" x1="497.81" y1="717.25" x2="497.81" y2="910.00" />
<line class="grid" x1="90" y1="910.00" x2="1150" y2="910.00" />
<text class="small" x="80" y="914.00" text-anchor="end">0.00</text>
<line class="grid" x1="90" y1="871.45" x2="1150" y2="871.45" />
<text class="small" x="80" y="875.45" text-anchor="end">0.10</text>
<line class="grid" x1="90" y1="832.90" x2="1150" y2="832.90" />
<text class="small" x="80" y="836.90" text-anchor="end">0.20</text>
<line class="grid" x1="90" y1="794.35" x2="1150" y2="794.35" />
<text class="small" x="80" y="798.35" text-anchor="end">0.30</text>
<line class="grid" x1="90" y1="755.80" x2="1150" y2="755.80" />
<text class="small" x="80" y="759.80" text-anchor="end">0.40</text>
<line class="grid" x1="90" y1="717.25" x2="1150" y2="717.25" />
<text class="small" x="80" y="721.25" text-anchor="end">0.50</text>
<line class="grid" x1="90.00" y1="717.25" x2="90.00" y2="910.00" />
<line class="grid" x1="266.67" y1="717.25" x2="266.67" y2="910.00" />
<line class="grid" x1="443.33" y1="717.25" x2="443.33" y2="910.00" />
<line class="grid" x1="620.00" y1="717.25" x2="620.00" y2="910.00" />
<line class="grid" x1="796.67" y1="717.25" x2="796.67" y2="910.00" />
<line class="grid" x1="973.33" y1="717.25" x2="973.33" y2="910.00" />
<line class="grid" x1="1150.00" y1="717.25" x2="1150.00" y2="910.00" />
<line class="axis" x1="90" y1="717.25" x2="90" y2="910.00" />
<line class="axis" x1="90" y1="910.00" x2="1150" y2="910.00" />
<path class="series" d="M 178.33 904.03 L 179.81 905.78 L 181.28 907.13 L 182.75 907.06 L 184.22 906.12 L 185.69 908.12 L 187.17 907.21 L 188.64 908.59 L 190.11 907.63 L 191.58 906.49 L 193.06 905.76 L 194.53 907.06 L 196.00 907.41 L 197.47 905.44 L 198.94 905.44 L 200.42 906.95 L 201.89 908.08 L 203.36 907.37 L 204.83 907.77 L 206.31 908.36 L 207.78 905.87 L 209.25 905.25 L 210.72 903.75 L 212.19 903.80 L 213.67 904.56 L 215.14 904.94 L 216.61 907.56 L 218.08 906.79 L 219.56 905.99 L 221.03 906.43 L 222.50 906.69 L 223.97 904.16 L 225.44 906.07 L 226.92 907.82 L 228.39 907.12 L 229.86 903.35 L 231.33 907.84 L 232.81 905.76 L 234.28 904.13 L 235.75 906.53 L 237.22 905.71 L 238.69 906.04 L 240.17 903.59 L 241.64 903.15 L 243.11 898.50 L 244.58 895.48 L 246.06 895.44 L 247.53 895.57 L 249.00 895.36 L 250.47 892.89 L 251.94 898.05 L 253.42 907.39 L 254.89 899.62 L 256.36 901.65 L 257.83 906.54 L 259.31 904.00 L 260.78 905.36 L 262.25 899.75 L 263.72 903.69 L 265.19 901.65 L 266.67 900.97 L 268.14 904.55 L 269.61 892.84 L 271.08 898.67 L 272.56 903.49 L 274.03 892.02 L 275.50 898.52 L 276.97 889.30 L 278.44 891.42 L 279.92 897.69 L 281.39 897.18 L 282.86 890.73 L 284.33 895.88 L 285.81 899.11 L 287.28 873.75 L 288.75 864.84 L 290.22 872.67 L 291.69 871.28 L 293.17 865.77 L 294.64 859.28 L 296.11 857.71 L 297.58 879.60 L 299.06 882.83 L 300.53 887.62 L 302.00 887.55 L 303.47 888.05 L 304.94 890.01 L 306.42 886.61 L 307.89 888.78 L 309.36 889.19 L 310.83 885.05 L 312.31 884.29 L 313.78 883.69 L 315.25 880.47 L 316.72 889.32 L 318.19 902.18 L 319.67 903.37 L 321.14 901.06 L 322.61 899.65 L 324.08 894.89 L 325.56 885.94 L 327.03 889.79 L 328.50 888.60 L 329.97 886.75 L 331.44 891.06 L 332.92 902.34 L 334.39 890.93 L 335.86 876.97 L 337.33 869.29 L 338.81 857.67 L 340.28 851.94 L 341.75 849.72 L 343.22 867.63 L 344.69 899.10 L 346.17 885.47 L 347.64 860.75 L 349.11 846.58 L 350.58 838.78 L 352.06 830.77 L 353.53 809.72 L 355.00 816.02 L 356.47 829.98 L 357.94 862.34 L 359.42 882.86 L 360.89 905.86 L 362.36 909.38 L 363.83 908.52 L 365.31 907.02 L 366.78 906.07 L 368.25 906.44 L 369.72 904.29 L 371.19 898.28 L 372.67 898.28 L 374.14 894.32 L 375.61 893.72 L 377.08 890.59 L 378.56 892.13 L 380.03 887.91 L 381.50 883.65 L 382.97 878.97 L 384.44 876.91 L 385.92 880.52 L 387.39 875.12 L 388.86 875.02 L 390.33 874.08 L 391.81 877.18 L 393.28 874.58 L 394.75 876.32 L 396.22 875.25 L 397.69 876.15 L 399.17 876.48 L 400.64 878.93 L 402.11 879.73 L 403.58 884.61 L 405.06 896.08 L 406.53 903.06 L 408.00 901.71 L 409.47 901.90 L 410.94 903.79 L 412.42 902.50 L 413.89 899.08 L 415.36 902.26 L 416.83 905.33 L 418.31 903.67 L 419.78 906.64 L 421.25 904.28 L 422.72 893.21 L 424.19 884.22 L 425.67 876.81 L 427.14 876.28 L 428.61 878.13 L 430.08 877.69 L 431.56 882.67 L 433.03 888.09 L 434.50 892.59 L 435.97 896.61 L 437.44 905.16 L 438.92 904.22 L 440.39 907.57 L 441.86 907.58 L 443.33 907.76 L 444.81 909.14 L 446.28 909.51 L 447.75 909.72 L 449.22 909.52 L 450.69 909.52 L 452.17 909.92 L 453.64 909.70 L 455.11 909.23 L 456.58 909.69 L 458.06 909.79 L 459.53 909.86 L 461.00 909.93 L 462.47 909.84 L 463.94 909.91 L 465.42 909.69 L 466.89 909.79 L 468.36 909.91 L 469.83 909.86 L 471.31 909.88 L 472.78 909.90 L 474.25 909.90 L 475.72 909.57 L 477.19 909.79 L 478.67 909.84 L 480.14 909.91 L 481.61 909.61 L 483.08 909.75 L 484.56 909.82 L 486.03 909.34 L 487.50 908.85 L 488.97 909.08 L 490.44 909.56 L 491.92 909.53 L 493.39 909.28 L 494.86 909.16 L 496.33 909.11 L 497.81 907.34 L 499.28 903.95 L 500.75 887.29 L 502.22 877.24 L 503.69 853.75 L 505.17 872.85 L 506.64 897.60 L 508.11 908.07 L 509.58 909.89 L 511.06 907.75 L 512.53 903.04 L 514.00 878.36 L 515.47 904.09 L 516.94 909.11 L 518.42 909.35 L 519.89 908.29 L 521.36 909.76 L 522.83 909.39 L 524.31 909.37 L 525.78 909.78 L 527.25 909.86 L 528.72 909.67 L 530.19 909.67 L 531.67 909.67 L 533.14 909.77 L 534.61 909.86 L 536.08 909.75 L 537.56 909.91 L 539.03 909.75 L 540.50 909.33 L 541.97 909.80 L 543.44 909.76 L 544.92 909.84 L 546.39 909.85 L 547.86 909.66 L 549.33 909.88 L 550.81 909.87 L 552.28 909.84 L 553.75 909.92 L 555.22 909.88 L 556.69 909.93 L 558.17 909.88 L 559.64 909.92 L 561.11 909.82 L 562.58 909.84 L 564.06 909.94 L 565.53 909.95 L 567.00 909.96 L 568.47 909.93 L 569.94 909.93 L 571.42 909.97 L 572.89 909.93 L 574.36 909.95 L 575.83 909.93 L 577.31 909.98 L 578.78 909.96 L 580.25 909.98 L 581.72 909.93 L 583.19 909.90 L 584.67 909.94 L 586.14 909.93 L 587.61 909.92 L 589.08 909.95 L 590.56 909.88 L 592.03 909.92 L 593.50 909.94 L 594.97 909.94 L 596.44 909.87 L 597.92 909.90 L 599.39 909.95 L 600.86 909.98 L 602.33 909.94 L 603.81 909.94 L 605.28 909.87 L 606.75 909.90 L 608.22 909.95 L 609.69 909.94 L 611.17 909.93 L 612.64 909.93 L 614.11 909.97 L 615.58 909.94 L 617.06 909.90 L 618.53 909.93 L 620.00 909.95 L 621.47 909.91 L 622.94 909.98 L 624.42 909.98 L 625.89 909.92 L 627.36 909.97 L 628.83 909.95 L 630.31 909.98 L 631.78 909.96 L 633.25 909.94 L 634.72 909.97 L 636.19 909.97 L 637.67 909.92 L 639.14 909.97 L 640.61 909.97 L 642.08 909.95 L 643.56 909.97 L 645.03 909.95 L 646.50 909.91 L 647.97 909.98 L 649.44 909.96 L 650.92 909.95 L 652.39 909.93 L 653.86 909.94 L 655.33 909.95 L 656.81 909.97 L 658.28 909.93 L 659.75 909.93 L 661.22 909.94 L 662.69 909.93 L 664.17 909.97 L 665.64 909.95 L 667.11 909.96 L 668.58 909.97 L 670.06 909.96 L 671.53 909.95 L 673.00 909.97 L 674.47 909.95 L 675.94 909.95 L 677.42 909.96 L 678.89 909.97 L 680.36 909.94 L 681.83 909.97 L 683.31 909.93 L 684.78 909.94 L 686.25 909.93 L 687.72 909.94 L 689.19 909.95 L 690.67 909.97 L 692.14 909.91 L 693.61 909.94 L 695.08 909.94 L 696.56 909.94 L 698.03 909.95 L 699.50 909.95 L 700.97 909.98 L 702.44 909.94 L 703.92 909.95 L 705.39 909.95 L 706.86 909.97 L 708.33 909.96 L 709.81 909.98 L 711.28 909.95 L 712.75 909.93 L 714.22 909.92 L 715.69 909.96 L 717.17 909.93 L 718.64 909.91 L 720.11 909.94 L 721.58 909.98 L 723.06 909.95 L 724.53 909.96 L 726.00 909.98 L 727.47 909.96 L 728.94 909.92 L 730.42 909.92 L 731.89 909.97 L 733.36 909.89 L 734.83 909.98 L 736.31 909.98 L 737.78 909.97 L 739.25 909.98 L 740.72 909.99 L 742.19 909.95 L 743.67 909.95 L 745.14 909.96 L 746.61 909.97 L 748.08 909.98 L 749.56 909.93 L 751.03 909.95 L 752.50 909.98 L 753.97 909.93 L 755.44 909.99 L 756.92 909.94 L 758.39 909.91 L 759.86 909.93 L 761.33 909.98 L 762.81 909.96" stroke="#E53935" />
<text x="620.00" y="952" font-size="15" text-anchor="middle">minutos (relativo ao início do evento)</text>
<text class="small" x="90.00" y="936" text-anchor="middle">-4.00</text>
<text class="small" x="266.67" y="936" text-anchor="middle">-2.00</text>
<text class="small" x="443.33" y="936" text-anchor="middle">0.00</text>
<text class="small" x="620.00" y="936" text-anchor="middle">2.00</text>
<text class="small" x="796.67" y="936" text-anchor="middle">4.00</text>
<text class="small" x="973.33" y="936" text-anchor="middle">6.00</text>
<text class="small" x="1150.00" y="936" text-anchor="middle">8.00</text>
</svg>