<?xml version="1.0" encoding="UTF-8"?>
<svg xmlns="http://www.w3.org/2000/svg" width="1180" height="980" viewBox="0 0 1180 980">
<style>
text { font-family: -apple-system, BlinkMacSystemFont, 'Segoe UI', Roboto, Helvetica, Arial, sans-serif; fill: #111; }
.small { font-size: 12px; fill: #222; }
.title { font-size: 18px; font-weight: 700; }
.axis { stroke: #111; stroke-width: 1.4; }
.grid { stroke: #E6E6E6; stroke-width: 1; }
.event { fill: #FFEB3B; fill-opacity: 0.18; }
.eventline { stroke: #F9A825; stroke-width: 1.2; stroke-dasharray: 4 3; }
.series { fill: none; stroke-width: 1.8; }
</style>
<text class="title" x="90" y="34">ciclo 19 — carregamento — 2025-12-13T00:18:51-03:00 → 2025-12-13T00:21:26-03:00 (span 155s, dur 156s)</text>
<text class="small" x="90" y="54">GPS: -11.698992,-47.157455  hotspot: -11.699,-47.157</text>
<text class="small" x="90" y="70">Janela: -3.00 → 5.58 min (relativo ao início do evento)</text>
<text x="90" y="79.00" font-size="14" font-weight="700">Velocidade (km/h)</text>
<rect class="event" x="443.33" y="85.00" width="228.19" height="192.75" />
<line class="eventline" x1="443.33" y1="85.00" x2="443.33" y2="277.75" />
<line class="eventline" x1="671.53" y1="85.00" x2="671.53" y2="277.75" />
<line class="grid" x1="90" y1="277.75" x2="1150" y2="277.75" />
<text class="small" x="80" y="281.75" text-anchor="end">0.00</text>
<line class="grid" x1="90" y1="239.20" x2="1150" y2="239.20" />
<text class="small" x="80" y="243.20" text-anchor="end">10.0</text>
<line class="grid" x1="90" y1="200.65" x2="1150" y2="200.65" />
<text class="small" x="80" y="204.65" text-anchor="end">20.0</text>
<line class="grid" x1="90" y1="162.10" x2="1150" y2="162.10" />
<text class="small" x="80" y="166.10" text-anchor="end">30.0</text>
<line class="grid" x1="90" y1="123.55" x2="1150" y2="123.55" />
<text class="small" x="80" y="127.55" text-anchor="end">40.0</text>
<line class="grid" x1="90" y1="85.00" x2="1150" y2="85.00" />
<text class="small" x="80" y="89.00" text-anchor="end">50.0</text>
<line class="grid" x1="90.00" y1="85.00" x2="90.00" y2="277.75" />
<line class="grid" x1="266.67" y1="85.00" x2="266.67" y2="277.75" />
<line class="grid" x1="443.33" y1="85.00" x2="443.33" y2="277.75" />
<line class="grid" x1="620.00" y1="85.00" x2="620.00" y2="277.75" />
<line class="grid" x1="796.67" y1="85.00" x2="796.67" y2="277.75" />
<line class="grid" x1="973.33" y1="85.00" x2="973.33" y2="277.75" />
<line class="grid" x1="1150.00" y1="85.00" x2="1150.00" y2="277.75" />
<line class="axis" x1="90" y1="85.00" x2="90" y2="277.75" />
<line class="axis" x1="90" y1="277.75" x2="1150" y2="277.75" />
<path class="series" d="M 178.33 159.51 L 179.81 159.23 L 181.28 156.46 L 182.75 157.57 L 184.22 157.29 L 185.69 155.62 L 187.17 155.21 L 188.64 154.37 L 190.11 153.54 L 191.58 150.77 L 193.06 151.74 L 194.53 156.32 L 196.00 154.51 L 197.47 154.10 L 198.94 155.07 L 200.42 158.54 L 201.89 162.84 L 203.36 162.84 L 204.83 161.59 L 206.31 160.76 L 207.78 162.15 L 209.25 162.84 L 210.72 164.37 L 212.19 164.92 L 213.67 159.37 L 215.14 160.48 L 216.61 162.29 L 218.08 161.31 L 219.56 162.29 L 221.03 162.56 L 222.50 163.67 L 223.97 165.34 L 225.44 163.81 L 226.92 164.64 L 228.39 165.06 L 229.86 165.34 L 231.33 165.75 L 232.81 172.69 L 234.28 177.83 L 235.75 181.02 L 237.22 181.58 L 238.69 185.04 L 240.17 186.85 L 241.64 197.95 L 243.11 205.45 L 244.58 216.83 L 246.06 217.10 L 247.53 218.35 L 249.00 216.27 L 250.47 216.55 L 251.94 213.63 L 253.42 212.52 L 254.89 213.36 L 256.36 212.52 L 257.83 208.22 L 259.31 197.67 L 260.78 190.73 L 262.25 188.24 L 263.72 182.96 L 265.19 178.52 L 266.67 175.61 L 268.14 173.11 L 269.61 172.14 L 271.08 172.83 L 272.56 174.50 L 274.03 176.86 L 275.50 178.38 L 276.97 178.52 L 278.44 180.47 L 279.92 182.55 L 281.39 185.60 L 282.86 185.46 L 284.33 185.74 L 285.81 188.38 L 287.28 185.18 L 288.75 179.49 L 290.22 174.36 L 291.69 176.44 L 293.17 179.22 L 294.64 179.91 L 296.11 176.72 L 297.58 174.22 L 299.06 189.76 L 300.53 201.28 L 302.00 212.94 L 303.47 216.27 L 304.94 211.00 L 306.42 208.78 L 307.89 207.11 L 309.36 198.09 L 310.83 202.81 L 312.31 201.98 L 313.78 198.37 L 315.25 193.79 L 316.72 193.09 L 318.19 190.32 L 319.67 187.96 L 321.14 187.54 L 322.61 184.63 L 324.08 184.91 L 325.56 183.10 L 327.03 182.82 L 328.50 182.69 L 329.97 185.32 L 331.44 187.27 L 332.92 186.71 L 334.39 180.88 L 335.86 181.44 L 337.33 181.58 L 338.81 172.69 L 340.28 175.33 L 341.75 181.85 L 343.22 179.63 L 344.69 177.69 L 346.17 181.85 L 347.64 190.04 L 349.11 189.07 L 350.58 192.96 L 352.06 193.51 L 353.53 193.65 L 355.00 195.04 L 356.47 193.37 L 357.94 194.34 L 359.42 204.20 L 360.89 211.69 L 362.36 225.01 L 363.83 237.09 L 365.31 249.16 L 366.78 254.02 L 368.25 241.39 L 369.72 240.97 L 371.19 241.39 L 372.67 246.39 L 374.14 249.86 L 375.61 253.46 L 377.08 254.99 L 378.56 257.07 L 380.03 256.24 L 381.50 256.10 L 382.97 254.43 L 384.44 256.66 L 385.92 256.10 L 387.39 254.71 L 388.86 257.21 L 390.33 255.55 L 391.81 261.51 L 393.28 256.38 L 394.75 257.49 L 396.22 255.82 L 397.69 262.62 L 399.17 277.75 L 400.64 277.75 L 402.11 277.75 L 403.58 277.75 L 405.06 277.75 L 406.53 268.17 L 408.00 266.09 L 409.47 263.18 L 410.94 264.57 L 412.42 262.90 L 413.89 263.87 L 415.36 257.90 L 416.83 261.37 L 418.31 265.95 L 419.78 265.54 L 421.25 265.26 L 422.72 265.95 L 424.19 266.79 L 425.67 267.34 L 427.14 268.04 L 428.61 267.34 L 430.08 269.84 L 431.56 269.01 L 433.03 269.15 L 434.50 271.37 L 435.97 270.39 L 437.44 277.75 L 438.92 277.75 L 440.39 269.56 L 441.86 270.95 L 443.33 277.75 L 444.81 277.75 L 446.28 277.75 L 447.75 277.75 L 449.22 277.75 L 450.69 277.75 L 452.17 277.75 L 453.64 277.75 L 455.11 277.75 L 456.58 277.75 L 458.06 277.75 L 459.53 277.75 L 461.00 277.75 L 462.47 277.75 L 463.94 277.75 L 465.42 277.75 L 466.89 277.75 L 468.36 277.75 L 469.83 277.75 L 471.31 277.75 L 472.78 277.75 L 474.25 277.75 L 475.72 277.75 L 477.19 277.75 L 478.67 277.75 L 480.14 277.75 L 481.61 277.75 L 483.08 277.75 L 484.56 277.75 L 486.03 277.75 L 487.50 277.75 L 488.97 277.75 L 490.44 277.75 L 491.92 277.75 L 493.39 277.75 L 494.86 277.75 L 496.33 277.75 L 497.81 277.75 L 499.28 277.75 L 500.75 277.75 L 502.22 277.75 L 503.69 277.75 L 505.17 277.75 L 506.64 277.75 L 508.11 277.75 L 509.58 277.75 L 511.06 277.75 L 512.53 277.75 L 514.00 277.75 L 515.47 277.75 L 516.94 277.75 L 518.42 277.75 L 519.89 277.75 L 521.36 277.75 L 522.83 277.75 L 524.31 277.75 L 525.78 277.75 L 527.25 277.75 L 528.72 277.75 L 530.19 277.75 L 531.67 277.75 L 533.14 277.75 L 534.61 277.75 L 536.08 277.75 L 537.56 277.75 L 539.03 277.75 L 540.50 277.75 L 541.97 277.75 L 543.44 277.75 L 544.92 277.75 L 546.39 277.75 L 547.86 277.75 L 549.33 277.75 L 550.81 277.75 L 552.28 277.75 L 553.75 277.75 L 555.22 277.75 L 556.69 277.75 L 558.17 277.75 L 559.64 277.75 L 561.11 277.75 L 562.58 277.75 L 564.06 277.75 L 565.53 277.75 L 567.00 277.75 L 568.47 277.75 L 569.94 277.75 L 571.42 277.75 L 572.89 277.75 L 574.36 277.75 L 575.83 277.75 L 577.31 277.75 L 578.78 277.75 L 580.25 277.75 L 581.72 277.75 L 583.19 277.75 L 584.67 277.75 L 586.14 277.75 L 587.61 277.75 L 589.08 277.75 L 590.56 277.75 L 592.03 277.75 L 593.50 277.75 L 594.97 277.75 L 596.44 277.75 L 597.92 277.75 L 599.39 277.75 L 600.86 277.75 L 602.33 277.75 L 603.81 277.75 L 605.28 277.75 L 606.75 277.75 L 608.22 277.75 L 609.69 277.75 L 611.17 277.75 L 612.64 277.75 L 614.11 277.75 L 615.58 277.75 L 617.06 277.75 L 618.53 277.75 L 620.00 277.75 L 621.47 277.75 L 622.94 277.75 L 624.42 277.75 L 625.89 277.75 L 627.36 277.75 L 628.83 277.75 L 630.31 277.75 L 631.78 277.75 L 633.25 277.75 L 634.72 277.75 L 636.19 277.75 L 637.67 277.75 L 639.14 277.75 L 640.61 277.75 L 642.08 277.75 L 643.56 277.75 L 645.03 277.75 L 646.50 277.75 L 647.97 277.75 L 649.44 277.75 L 650.92 277.75 L 652.39 277.75 L 653.86 277.75 L 655.33 277.75 L 656.81 277.75 L 658.28 277.75 L 659.75 277.75 L 661.22 277.75 L 662.69 277.75 L 664.17 277.75 L 665.64 277.75 L 667.11 277.75 L 668.58 277.75 L 670.06 277.75 L 671.53 277.75 L 673.00 262.21 L 674.47 260.54 L 675.94 261.93 L 677.42 260.12 L 678.89 259.01 L 680.36 258.18 L 681.83 257.90 L 683.31 260.12 L 684.78 260.82 L 686.25 262.35 L 687.72 263.73 L 689.19 261.79 L 690.67 256.10 L 692.14 256.79 L 693.61 256.38 L 695.08 255.68 L 696.56 256.10 L 698.03 256.24 L 699.50 253.32 L 700.97 250.27 L 702.44 247.77 L 703.92 245.14 L 705.39 239.59 L 706.86 238.75 L 708.33 231.68 L 709.81 227.51 L 711.28 228.90 L 712.75 231.12 L 714.22 231.40 L 715.69 233.20 L 717.17 231.54 L 718.64 227.51 L 720.11 227.10 L 721.58 224.60 L 723.06 222.65 L 724.53 220.02 L 726.00 218.49 L 727.47 220.16 L 728.94 222.93 L 730.42 226.54 L 731.89 224.74 L 733.36 217.80 L 734.83 220.16 L 736.31 221.13 L 737.78 222.79 L 739.25 221.27 L 740.72 219.32 L 742.19 223.35 L 743.67 221.13 L 745.14 218.63 L 746.61 215.72 L 748.08 213.77 L 749.56 214.88 L 751.03 215.02 L 752.50 217.52 L 753.97 214.61 L 755.44 211.27 L 756.92 213.77 L 758.39 209.19 L 759.86 205.72 L 761.33 206.00 L 762.81 206.00 L 764.28 206.28 L 765.75 205.86 L 767.22 207.94 L 768.69 206.28 L 770.17 204.89 L 771.64 204.89 L 773.11 207.39 L 774.58 210.03 L 776.06 211.55 L 777.53 216.13 L 779.00 220.85 L 780.47 225.15 L 781.94 227.65 L 783.42 231.12 L 784.89 236.67 L 786.36 239.17 L 787.83 241.11 L 789.31 241.67 L 790.78 239.86 L 792.25 238.89 L 793.72 238.48 L 795.19 239.17 L 796.67 239.31 L 798.14 240.56 L 799.61 244.03 L 801.08 246.39 L 802.56 250.69 L 804.03 249.44 L 805.50 246.66 L 806.97 247.63 L 808.44 247.91 L 809.92 246.80 L 811.39 245.97 L 812.86 245.83 L 814.33 242.50 L 815.81 245.55 L 817.28 246.94 L 818.75 249.16 L 820.22 251.24 L 821.69 252.77 L 823.17 255.68 L 824.64 257.49 L 826.11 257.35 L 827.58 254.30 L 829.06 254.16 L 830.53 251.24 L 832.00 251.80 L 833.47 242.64 L 834.94 239.86 L 836.42 239.86 L 837.89 228.48 L 839.36 222.65 L 840.83 220.57 L 842.31 221.27 L 843.78 221.68 L 845.25 224.04 L 846.72 217.66 L 848.19 216.83 L 849.67 217.10 L 851.14 218.91 L 852.61 221.54 L 854.08 219.88 L 855.56 221.68 L 857.03 225.85 L 858.50 225.85 L 859.97 227.10 L 861.44 225.99 L 862.92 227.51 L 864.39 231.26 L 865.86 231.54 L 867.33 232.79 L 868.81 234.87 L 870.28 235.98 L 871.75 235.70 L 873.22 234.87 L 874.69 234.59 L 876.17 234.59 L 877.64 235.14 L 879.11 234.87 L 880.58 235.98 L 882.06 236.39 L 883.53 238.34 L 885.00 239.86 L 886.47 242.36 L 887.94 244.86 L 889.42 246.94 L 890.89 246.52 L 892.36 248.74 L 893.83 250.13 L 895.31 250.55 L 896.78 250.69 L 898.25 251.38 L 899.72 250.41 L 901.19 250.41 L 902.67 247.77 L 904.14 249.30 L 905.61 247.08 L 907.08 247.22 L 908.56 246.25 L 910.03 245.83 L 911.50 245.97 L 912.97 245.69 L 914.44 245.41 L 915.92 245.41 L 917.39 245.41 L 918.86 245.14 L 920.33 242.78 L 921.81 245.97 L 923.28 243.75 L 924.75 245.83 L 926.22 242.50 L 927.69 242.50 L 929.17 243.33 L 930.64 243.47 L 932.11 242.36 L 933.58 242.64 L 935.06 240.14 L 936.53 237.64" stroke="#1976D2" />
<text x="90" y="289.75" font-size="14" font-weight="700">Inclinação (graus)</text>
<rect class="event" x="443.33" y="295.75" width="228.19" height="192.75" />
<line class="eventline" x1="443.33" y1="295.75" x2="443.33" y2="488.50" />
<line class="eventline" x1="671.53" y1="295.75" x2="671.53" y2="488.50" />
<line class="grid" x1="90" y1="488.50" x2="1150" y2="488.50" />
<text class="small" x="80" y="492.50" text-anchor="end">-20.0</text>
<line class="grid" x1="90" y1="449.95" x2="1150" y2="449.95" />
<text class="small" x="80" y="453.95" text-anchor="end">-10.0</text>
<line class="grid" x1="90" y1="411.40" x2="1150" y2="411.40" />
<text class="small" x="80" y="415.40" text-anchor="end">0.00</text>
<line class="grid" x1="90" y1="372.85" x2="1150" y2="372.85" />
<text class="small" x="80" y="376.85" text-anchor="end">10.0</text>
<line class="grid" x1="90" y1="334.30" x2="1150" y2="334.30" />
<text class="small" x="80" y="338.30" text-anchor="end">20.0</text>
<line class="grid" x1="90" y1="295.75" x2="1150" y2="295.75" />
<text class="small" x="80" y="299.75" text-anchor="end">30.0</text>
<line class="grid" x1="90.00" y1="295.75" x2="90.00" y2="488.50" />
<line class="grid" x1="266.67" y1="295.75" x2="266.67" y2="488.50" />
<line class="grid" x1="443.33" y1="295.75" x2="443.33" y2="488.50" />
<line class="grid" x1="620.00" y1="295.75" x2="620.00" y2="488.50" />
<line class="grid" x1="796.67" y1="295.75" x2="796.67" y2="488.50" />
<line class="grid" x1="973.33" y1="295.75" x2="973.33" y2="488.50" />
<line class="grid" x1="1150.00" y1="295.75" x2="1150.00" y2="488.50" />
<line class="axis" x1="90" y1="295.75" x2="90" y2="488.50" />
<line class="axis" x1="90" y1="488.50" x2="1150" y2="488.50" />
<path class="series" d="M 178.33 358.59 L 179.81 364.43 L 181.28 363.51 L 182.75 360.96 L 184.22 364.44 L 185.69 362.33 L 187.17 365.42 L 188.64 367.86 L 190.11 361.96 L 191.58 365.48 L 193.06 367.78 L 194.53 360.46 L 196.00 361.45 L 197.47 366.21 L 198.94 359.88 L 200.42 356.34 L 201.89 361.81 L 203.36 363.76 L 204.83 365.99 L 206.31 364.44 L 207.78 362.54 L 209.25 363.23 L 210.72 364.23 L 212.19 369.39 L 213.67 368.17 L 215.14 369.78 L 216.61 368.00 L 218.08 368.26 L 219.56 367.59 L 221.03 370.98 L 222.50 369.79 L 223.97 369.41 L 225.44 368.73 L 226.92 367.88 L 228.39 362.38 L 229.86 369.72 L 231.33 362.58 L 232.81 358.47 L 234.28 359.41 L 235.75 357.35 L 237.22 356.52 L 238.69 358.45 L 240.17 350.16 L 241.64 344.85 L 243.11 343.08 L 244.58 357.74 L 246.06 354.02 L 247.53 354.31 L 249.00 351.24 L 250.47 351.14 L 251.94 348.99 L 253.42 340.06 L 254.89 338.55 L 256.36 345.11 L 257.83 349.35 L 259.31 356.61 L 260.78 344.91 L 262.25 345.12 L 263.72 342.11 L 265.19 340.91 L 266.67 343.12 L 268.14 345.42 L 269.61 343.10 L 271.08 343.85 L 272.56 343.96 L 274.03 343.37 L 275.50 344.72 L 276.97 344.62 L 278.44 344.25 L 279.92 345.12 L 281.39 344.32 L 282.86 352.70 L 284.33 352.79 L 285.81 363.60 L 287.28 371.50 L 288.75 365.01 L 290.22 360.45 L 291.69 355.89 L 293.17 355.84 L 294.64 351.93 L 296.11 341.04 L 297.58 313.44 L 299.06 321.43 L 300.53 353.21 L 302.00 350.00 L 303.47 374.49 L 304.94 365.93 L 306.42 379.95 L 307.89 376.14 L 309.36 372.18 L 310.83 364.61 L 312.31 379.64 L 313.78 379.95 L 315.25 373.02 L 316.72 364.15 L 318.19 366.82 L 319.67 360.34 L 321.14 370.83 L 322.61 376.08 L 324.08 373.18 L 325.56 370.33 L 327.03 367.76 L 328.50 369.66 L 329.97 362.51 L 331.44 363.62 L 332.92 365.60 L 334.39 361.11 L 335.86 361.62 L 337.33 377.32 L 338.81 364.91 L 340.28 364.85 L 341.75 352.67 L 343.22 357.65 L 344.69 355.66 L 346.17 356.85 L 347.64 366.64 L 349.11 355.28 L 350.58 355.48 L 352.06 371.08 L 353.53 370.19 L 355.00 373.27 L 356.47 362.49 L 357.94 347.13 L 359.42 349.93 L 360.89 342.48 L 362.36 346.42 L 363.83 361.06 L 365.31 374.35 L 366.78 369.83 L 368.25 376.56 L 369.72 382.17 L 371.19 365.29 L 372.67 376.54 L 374.14 386.47 L 375.61 375.36 L 377.08 367.78 L 378.56 373.65 L 380.03 367.01 L 381.50 363.67 L 382.97 359.64 L 384.44 360.87 L 385.92 365.00 L 387.39 363.90 L 388.86 368.62 L 390.33 363.14 L 391.81 376.01 L 393.28 356.12 L 394.75 351.60 L 396.22 343.49 L 397.69 319.01 L 399.17 350.15 L 400.64 349.54 L 402.11 333.06 L 403.58 345.87 L 405.06 347.30 L 406.53 349.77 L 408.00 349.13 L 409.47 362.00 L 410.94 358.46 L 412.42 364.86 L 413.89 363.34 L 415.36 376.90 L 416.83 373.64 L 418.31 361.51 L 419.78 370.26 L 421.25 358.79 L 422.72 361.12 L 424.19 353.41 L 425.67 354.59 L 427.14 350.37 L 428.61 353.23 L 430.08 350.56 L 431.56 350.56 L 433.03 353.88 L 434.50 357.22 L 435.97 355.51 L 437.44 357.12 L 438.92 353.06 L 440.39 354.43 L 441.86 363.86 L 443.33 363.86 L 444.81 363.83 L 446.28 363.97 L 447.75 358.82 L 449.22 358.29 L 450.69 359.88 L 452.17 359.03 L 453.64 359.06 L 455.11 359.23 L 456.58 359.61 L 458.06 358.34 L 459.53 359.21 L 461.00 359.02 L 462.47 359.01 L 463.94 358.98 L 465.42 359.05 L 466.89 359.04 L 468.36 358.99 L 469.83 359.05 L 471.31 359.04 L 472.78 358.99 L 474.25 358.95 L 475.72 359.03 L 477.19 358.96 L 478.67 358.97 L 480.14 359.02 L 481.61 359.10 L 483.08 359.00 L 484.56 359.15 L 486.03 358.16 L 487.50 358.42 L 488.97 358.54 L 490.44 358.67 L 491.92 358.57 L 493.39 358.53 L 494.86 358.50 L 496.33 358.54 L 497.81 358.53 L 499.28 358.50 L 500.75 358.54 L 502.22 358.49 L 503.69 358.50 L 505.17 358.48 L 506.64 358.50 L 508.11 358.53 L 509.58 358.47 L 511.06 358.50 L 512.53 358.47 L 514.00 358.50 L 515.47 358.51 L 516.94 358.77 L 518.42 358.12 L 519.89 356.95 L 521.36 358.49 L 522.83 357.75 L 524.31 357.55 L 525.78 357.85 L 527.25 357.59 L 528.72 357.77 L 530.19 357.60 L 531.67 357.66 L 533.14 357.63 L 534.61 357.68 L 536.08 357.65 L 537.56 357.58 L 539.03 357.64 L 540.50 357.65 L 541.97 357.61 L 543.44 357.60 L 544.92 357.58 L 546.39 357.58 L 547.86 357.57 L 549.33 357.59 L 550.81 357.56 L 552.28 357.64 L 553.75 357.58 L 555.22 357.55 L 556.69 357.68 L 558.17 357.60 L 559.64 357.70 L 561.11 358.19 L 562.58 356.64 L 564.06 357.07 L 565.53 357.22 L 567.00 357.44 L 568.47 357.27 L 569.94 357.27 L 571.42 357.37 L 572.89 357.22 L 574.36 357.33 L 575.83 357.24 L 577.31 357.30 L 578.78 357.32 L 580.25 357.32 L 581.72 357.32 L 583.19 357.27 L 584.67 357.29 L 586.14 357.23 L 587.61 357.26 L 589.08 357.25 L 590.56 357.27 L 592.03 357.21 L 593.50 357.51 L 594.97 358.55 L 596.44 357.95 L 597.92 357.99 L 599.39 358.18 L 600.86 358.12 L 602.33 358.03 L 603.81 358.11 L 605.28 358.15 L 606.75 358.03 L 608.22 358.09 L 609.69 358.08 L 611.17 358.10 L 612.64 358.11 L 614.11 358.14 L 615.58 358.12 L 617.06 358.17 L 618.53 358.15 L 620.00 358.15 L 621.47 358.17 L 622.94 358.11 L 624.42 358.15 L 625.89 358.15 L 627.36 358.09 L 628.83 358.15 L 630.31 358.13 L 631.78 358.18 L 633.25 358.05 L 634.72 358.34 L 636.19 358.79 L 637.67 358.60 L 639.14 358.95 L 640.61 358.56 L 642.08 358.59 L 643.56 358.72 L 645.03 358.78 L 646.50 358.63 L 647.97 358.69 L 649.44 358.76 L 650.92 358.74 L 652.39 358.70 L 653.86 358.71 L 655.33 358.74 L 656.81 358.66 L 658.28 358.76 L 659.75 358.03 L 661.22 360.55 L 662.69 359.80 L 664.17 359.70 L 665.64 360.73 L 667.11 370.75 L 668.58 364.45 L 670.06 353.59 L 671.53 372.16 L 673.00 357.49 L 674.47 351.92 L 675.94 352.55 L 677.42 355.99 L 678.89 353.22 L 680.36 361.80 L 681.83 361.85 L 683.31 366.77 L 684.78 362.70 L 686.25 362.28 L 687.72 365.56 L 689.19 358.68 L 690.67 351.59 L 692.14 352.24 L 693.61 351.42 L 695.08 352.64 L 696.56 361.92 L 698.03 373.00 L 699.50 372.44 L 700.97 361.53 L 702.44 352.84 L 703.92 364.75 L 705.39 362.52 L 706.86 367.97 L 708.33 367.63 L 709.81 365.57 L 711.28 365.62 L 712.75 368.28 L 714.22 364.90 L 715.69 374.12 L 717.17 376.60 L 718.64 371.25 L 720.11 363.11 L 721.58 369.53 L 723.06 374.96 L 724.53 365.07 L 726.00 362.36 L 727.47 365.69 L 728.94 367.37 L 730.42 367.37 L 731.89 367.80 L 733.36 369.50 L 734.83 370.34 L 736.31 368.98 L 737.78 372.54 L 739.25 373.86 L 740.72 371.24 L 742.19 376.34 L 743.67 375.54 L 745.14 373.01 L 746.61 373.73 L 748.08 368.56 L 749.56 368.80 L 751.03 372.03 L 752.50 370.04 L 753.97 372.66 L 755.44 373.59 L 756.92 371.00 L 758.39 372.08 L 759.86 368.29 L 761.33 368.74 L 762.81 365.35 L 764.28 361.57 L 765.75 364.43 L 767.22 365.23 L 768.69 365.39 L 770.17 365.80 L 771.64 362.37 L 773.11 363.35 L 774.58 358.18 L 776.06 367.23 L 777.53 361.56 L 779.00 355.90 L 780.47 363.34 L 781.94 361.66 L 783.42 358.13 L 784.89 365.07 L 786.36 359.58 L 787.83 353.11 L 789.31 358.27 L 790.78 360.71 L 792.25 356.81 L 793.72 358.74 L 795.19 360.65 L 796.67 359.35 L 798.14 355.25 L 799.61 358.71 L 801.08 358.22 L 802.56 362.51 L 804.03 366.33 L 805.50 366.02 L 806.97 368.23 L 808.44 374.37 L 809.92 371.26 L 811.39 368.53 L 812.86 375.64 L 814.33 385.71 L 815.81 397.65 L 817.28 399.43 L 818.75 403.34 L 820.22 404.20 L 821.69 404.67 L 823.17 397.11 L 824.64 398.43 L 826.11 398.90 L 827.58 395.61 L 829.06 395.45 L 830.53 386.13 L 832.00 391.52 L 833.47 383.98 L 834.94 370.87 L 836.42 376.03 L 837.89 374.63 L 839.36 373.59 L 840.83 374.91 L 842.31 379.87 L 843.78 374.48 L 845.25 372.80 L 846.72 374.86 L 848.19 373.32 L 849.67 373.78 L 851.14 376.54 L 852.61 376.74 L 854.08 383.69 L 855.56 381.59 L 857.03 380.93 L 858.50 382.05 L 859.97 382.47 L 861.44 382.95 L 862.92 383.08 L 864.39 381.82 L 865.86 382.47 L 867.33 381.86 L 868.81 382.88 L 870.28 381.94 L 871.75 387.88 L 873.22 387.81 L 874.69 387.58 L 876.17 387.42 L 877.64 388.67 L 879.11 388.11 L 880.58 388.97 L 882.06 389.15 L 883.53 389.88 L 885.00 390.65 L 886.47 388.85 L 887.94 387.44 L 889.42 392.72 L 890.89 395.39 L 892.36 399.14 L 893.83 398.07 L 895.31 400.24 L 896.78 399.80 L 898.25 400.44 L 899.72 400.13 L 901.19 399.52 L 902.67 399.24 L 904.14 399.38 L 905.61 396.68 L 907.08 398.29 L 908.56 396.44 L 910.03 396.46 L 911.50 394.76 L 912.97 395.18 L 914.44 394.36 L 915.92 394.66 L 917.39 395.06 L 918.86 395.34 L 920.33 394.22 L 921.81 395.14 L 923.28 394.38 L 924.75 393.41 L 926.22 392.06 L 927.69 388.45 L 929.17 386.70 L 930.64 385.72 L 932.11 385.40 L 933.58 382.49 L 935.06 386.11 L 936.53 384.64" stroke="#2E7D32" />
<path class="series" d="M 178.33 400.58 L 179.81 401.07 L 181.28 400.65 L 182.75 401.44 L 184.22 406.41 L 185.69 410.06 L 187.17 415.41 L 188.64 412.99 L 190.11 409.49 L 191.58 404.81 L 193.06 407.36 L 194.53 402.36 L 196.00 403.81 L 197.47 408.45 L 198.94 399.43 L 200.42 402.87 L 201.89 402.97 L 203.36 409.83 L 204.83 407.70 L 206.31 405.83 L 207.78 399.19 L 209.25 397.83 L 210.72 386.40 L 212.19 392.66 L 213.67 395.63 L 215.14 391.89 L 216.61 393.91 L 218.08 395.76 L 219.56 392.58 L 221.03 394.71 L 222.50 394.48 L 223.97 394.05 L 225.44 386.78 L 226.92 388.77 L 228.39 393.10 L 229.86 394.55 L 231.33 394.06 L 232.81 391.54 L 234.28 392.32 L 235.75 388.97 L 237.22 390.26 L 238.69 390.55 L 240.17 378.82 L 241.64 381.14 L 243.11 390.52 L 244.58 396.06 L 246.06 394.92 L 247.53 399.75 L 249.00 397.99 L 250.47 405.26 L 251.94 400.52 L 253.42 401.87 L 254.89 405.21 L 256.36 403.37 L 257.83 401.66 L 259.31 402.31 L 260.78 400.63 L 262.25 398.29 L 263.72 397.31 L 265.19 397.48 L 266.67 412.14 L 268.14 407.76 L 269.61 415.52 L 271.08 411.68 L 272.56 407.84 L 274.03 408.86 L 275.50 402.96 L 276.97 400.44 L 278.44 402.37 L 279.92 395.73 L 281.39 396.29 L 282.86 393.88 L 284.33 386.32 L 285.81 393.18 L 287.28 388.17 L 288.75 389.91 L 290.22 372.14 L 291.69 369.09 L 293.17 370.73 L 294.64 391.96 L 296.11 396.24 L 297.58 392.90 L 299.06 413.25 L 300.53 403.49 L 302.00 416.15 L 303.47 410.41 L 304.94 406.45 L 306.42 407.12 L 307.89 407.45 L 309.36 402.55 L 310.83 399.62 L 312.31 388.61 L 313.78 398.28 L 315.25 405.04 L 316.72 403.62 L 318.19 415.06 L 319.67 404.61 L 321.14 406.89 L 322.61 409.17 L 324.08 414.78 L 325.56 416.45 L 327.03 406.72 L 328.50 403.86 L 329.97 409.41 L 331.44 404.22 L 332.92 405.93 L 334.39 409.55 L 335.86 385.01 L 337.33 389.78 L 338.81 392.55 L 340.28 393.35 L 341.75 412.08 L 343.22 425.31 L 344.69 422.21 L 346.17 425.57 L 347.64 415.92 L 349.11 404.04 L 350.58 402.91 L 352.06 407.75 L 353.53 414.96 L 355.00 419.51 L 356.47 417.62 L 357.94 413.54 L 359.42 407.38 L 360.89 418.30 L 362.36 405.96 L 363.83 414.29 L 365.31 402.56 L 366.78 401.10 L 368.25 414.97 L 369.72 421.42 L 371.19 410.26 L 372.67 421.05 L 374.14 418.68 L 375.61 414.28 L 377.08 401.76 L 378.56 411.81 L 380.03 406.63 L 381.50 418.70 L 382.97 417.60 L 384.44 424.49 L 385.92 422.02 L 387.39 421.23 L 388.86 412.78 L 390.33 399.93 L 391.81 423.02 L 393.28 411.41 L 394.75 404.56 L 396.22 401.81 L 397.69 390.24 L 399.17 404.90 L 400.64 401.47 L 402.11 399.60 L 403.58 411.18 L 405.06 406.43 L 406.53 406.36 L 408.00 399.10 L 409.47 400.60 L 410.94 402.23 L 412.42 411.07 L 413.89 412.70 L 415.36 413.66 L 416.83 403.24 L 418.31 408.36 L 419.78 411.80 L 421.25 401.20 L 422.72 410.49 L 424.19 407.46 L 425.67 415.15 L 427.14 418.12 L 428.61 419.40 L 430.08 414.24 L 431.56 414.24 L 433.03 417.95 L 434.50 421.13 L 435.97 413.48 L 437.44 410.39 L 438.92 415.91 L 440.39 422.89 L 441.86 418.86 L 443.33 413.45 L 444.81 410.58 L 446.28 417.62 L 447.75 412.91 L 449.22 414.17 L 450.69 414.53 L 452.17 414.35 L 453.64 414.28 L 455.11 414.34 L 456.58 414.38 L 458.06 414.25 L 459.53 414.36 L 461.00 414.34 L 462.47 414.38 L 463.94 414.37 L 465.42 414.34 L 466.89 414.39 L 468.36 414.36 L 469.83 414.45 L 471.31 414.37 L 472.78 414.32 L 474.25 414.42 L 475.72 414.38 L 477.19 414.35 L 478.67 414.38 L 480.14 414.40 L 481.61 415.14 L 483.08 413.57 L 484.56 416.13 L 486.03 414.55 L 487.50 414.73 L 488.97 414.16 L 490.44 414.89 L 491.92 415.16 L 493.39 414.64 L 494.86 414.77 L 496.33 415.00 L 497.81 414.82 L 499.28 414.72 L 500.75 414.93 L 502.22 414.85 L 503.69 414.71 L 505.17 414.89 L 506.64 414.84 L 508.11 414.83 L 509.58 414.83 L 511.06 414.91 L 512.53 414.77 L 514.00 414.82 L 515.47 414.83 L 516.94 414.82 L 518.42 414.55 L 519.89 415.49 L 521.36 415.98 L 522.83 415.52 L 524.31 415.42 L 525.78 415.38 L 527.25 415.23 L 528.72 415.41 L 530.19 415.41 L 531.67 415.43 L 533.14 415.44 L 534.61 415.41 L 536.08 415.38 L 537.56 415.42 L 539.03 415.38 L 540.50 415.44 L 541.97 415.39 L 543.44 415.46 L 544.92 415.38 L 546.39 415.36 L 547.86 415.41 L 549.33 415.40 L 550.81 415.36 L 552.28 415.40 L 553.75 415.43 L 555.22 415.43 L 556.69 415.44 L 558.17 415.39 L 559.64 415.14 L 561.11 415.97 L 562.58 413.91 L 564.06 415.39 L 565.53 415.37 L 567.00 415.22 L 568.47 415.16 L 569.94 415.15 L 571.42 415.24 L 572.89 415.15 L 574.36 415.05 L 575.83 415.09 L 577.31 415.09 L 578.78 415.06 L 580.25 415.05 L 581.72 415.03 L 583.19 415.08 L 584.67 415.21 L 586.14 415.13 L 587.61 415.11 L 589.08 415.02 L 590.56 415.02 L 592.03 415.19 L 593.50 415.33 L 594.97 415.05 L 596.44 415.25 L 597.92 414.47 L 599.39 415.15 L 600.86 415.35 L 602.33 414.89 L 603.81 415.02 L 605.28 415.19 L 606.75 414.98 L 608.22 415.03 L 609.69 415.12 L 611.17 415.06 L 612.64 415.05 L 614.11 415.16 L 615.58 415.07 L 617.06 415.08 L 618.53 415.08 L 620.00 415.09 L 621.47 415.11 L 622.94 415.13 L 624.42 415.09 L 625.89 415.11 L 627.36 415.10 L 628.83 415.11 L 630.31 415.07 L 631.78 415.10 L 633.25 414.99 L 634.72 414.02 L 636.19 416.68 L 637.67 414.93 L 639.14 415.82 L 640.61 415.34 L 642.08 415.38 L 643.56 415.53 L 645.03 415.19 L 646.50 415.56 L 647.97 415.56 L 649.44 415.31 L 650.92 415.48 L 652.39 415.49 L 653.86 415.34 L 655.33 415.45 L 656.81 415.46 L 658.28 415.41 L 659.75 415.24 L 661.22 413.98 L 662.69 415.43 L 664.17 414.71 L 665.64 415.14 L 667.11 413.27 L 668.58 415.49 L 670.06 422.39 L 671.53 425.71 L 673.00 404.19 L 674.47 436.29 L 675.94 426.45 L 677.42 411.61 L 678.89 429.80 L 680.36 413.51 L 681.83 413.97 L 683.31 418.97 L 684.78 409.15 L 686.25 416.23 L 687.72 413.35 L 689.19 422.62 L 690.67 428.48 L 692.14 431.60 L 693.61 430.64 L 695.08 436.72 L 696.56 429.93 L 698.03 427.07 L 699.50 422.99 L 700.97 414.61 L 702.44 411.16 L 703.92 408.64 L 705.39 400.56 L 706.86 404.79 L 708.33 410.87 L 709.81 413.41 L 711.28 405.64 L 712.75 403.71 L 714.22 398.00 L 715.69 408.65 L 717.17 408.74 L 718.64 406.04 L 720.11 401.17 L 721.58 403.36 L 723.06 411.06 L 724.53 407.72 L 726.00 399.94 L 727.47 403.84 L 728.94 405.10 L 730.42 405.10 L 731.89 413.92 L 733.36 411.43 L 734.83 413.13 L 736.31 409.69 L 737.78 395.92 L 739.25 418.40 L 740.72 400.11 L 742.19 402.82 L 743.67 412.16 L 745.14 413.62 L 746.61 411.08 L 748.08 412.62 L 749.56 413.69 L 751.03 421.11 L 752.50 425.50 L 753.97 427.13 L 755.44 417.60 L 756.92 400.51 L 758.39 390.01 L 759.86 400.07 L 761.33 406.67 L 762.81 418.17 L 764.28 432.16 L 765.75 428.06 L 767.22 425.26 L 768.69 417.26 L 770.17 416.92 L 771.64 413.79 L 773.11 422.65 L 774.58 412.74 L 776.06 423.24 L 777.53 428.06 L 779.00 410.77 L 780.47 421.41 L 781.94 417.90 L 783.42 403.56 L 784.89 412.66 L 786.36 401.24 L 787.83 407.29 L 789.31 413.60 L 790.78 413.07 L 792.25 416.28 L 793.72 426.03 L 795.19 421.56 L 796.67 415.54 L 798.14 415.46 L 799.61 417.48 L 801.08 429.04 L 802.56 416.04 L 804.03 425.29 L 805.50 422.93 L 806.97 417.27 L 808.44 420.96 L 809.92 414.60 L 811.39 408.09 L 812.86 418.20 L 814.33 408.23 L 815.81 418.85 L 817.28 413.18 L 818.75 417.27 L 820.22 415.55 L 821.69 414.56 L 823.17 411.25 L 824.64 409.12 L 826.11 408.14 L 827.58 404.61 L 829.06 405.15 L 830.53 396.05 L 832.00 403.04 L 833.47 409.32 L 834.94 411.46 L 836.42 419.99 L 837.89 434.06 L 839.36 438.92 L 840.83 446.08 L 842.31 442.49 L 843.78 424.89 L 845.25 426.39 L 846.72 427.29 L 848.19 421.82 L 849.67 426.46 L 851.14 423.67 L 852.61 425.44 L 854.08 423.95 L 855.56 421.84 L 857.03 418.79 L 858.50 414.30 L 859.97 412.10 L 861.44 413.74 L 862.92 411.43 L 864.39 410.83 L 865.86 412.25 L 867.33 414.34 L 868.81 418.05 L 870.28 416.20 L 871.75 416.11 L 873.22 417.42 L 874.69 415.46 L 876.17 411.08 L 877.64 411.85 L 879.11 406.05 L 880.58 407.87 L 882.06 407.70 L 883.53 411.74 L 885.00 410.25 L 886.47 407.41 L 887.94 406.33 L 889.42 407.86 L 890.89 404.61 L 892.36 407.21 L 893.83 403.97 L 895.31 406.05 L 896.78 409.50 L 898.25 410.25 L 899.72 409.18 L 901.19 408.54 L 902.67 412.70 L 904.14 411.80 L 905.61 411.23 L 907.08 415.08 L 908.56 412.61 L 910.03 413.42 L 911.50 415.30 L 912.97 416.44 L 914.44 415.31 L 915.92 414.52 L 917.39 415.13 L 918.86 418.79 L 920.33 416.82 L 921.81 420.17 L 923.28 418.50 L 924.75 418.96 L 926.22 420.34 L 927.69 418.84 L 929.17 418.94 L 930.64 416.66 L 932.11 421.11 L 933.58 417.51 L 935.06 417.61 L 936.53 420.46" stroke="#6A1B9A" />
<line x1="900.00" y1="307.75" x2="918.00" y2="307.75" stroke="#2E7D32" stroke-width="3" />
<text class="small" x="924.00" y="311.75">pitch</text>
<line x1="900.00" y1="323.75" x2="918.00" y2="323.75" stroke="#6A1B9A" stroke-width="3" />
<text class="small" x="924.00" y="327.75">roll</text>
<text x="90" y="500.50" font-size="14" font-weight="700">Aceleração (magnitude) (u.a.)</text>
<rect class="event" x="443.33" y="506.50" width="228.19" height="192.75" />
<line class="eventline" x1="443.33" y1="506.50" x2="443.33" y2="699.25" />
<line class="eventline" x1="671.53" y1="506.50" x2="671.53" y2="699.25" />
<line class="grid" x1="90" y1="699.25" x2="1150" y2="699.25" />
<text class="small" x="80" y="703.25" text-anchor="end">0.00</text>
<line class="grid" x1="90" y1="660.70" x2="1150" y2="660.70" />
<text class="small" x="80" y="664.70" text-anchor="end">0.50</text>
<line class="grid" x1="90" y1="622.15" x2="1150" y2="622.15" />
<text class="small" x="80" y="626.15" text-anchor="end">1.00</text>
<line class="grid" x1="90" y1="583.60" x2="1150" y2="583.60" />
<text class="small" x="80" y="587.60" text-anchor="end">1.50</text>
<line class="grid" x1="90" y1="545.05" x2="1150" y2="545.05" />
<text class="small" x="80" y="549.05" text-anchor="end">2.00</text>
<line class="grid" x1="90" y1="506.50" x2="1150" y2="506.50" />
<text class="small" x="80" y="510.50" text-anchor="end">2.50</text>
<line class="grid" x1="90.00" y1="506.50" x2="90.00" y2="699.25" />
<line class="grid" x1="266.67" y1="506.50" x2="266.67" y2="699.25" />
<line class="grid" x1="443.33" y1="506.50" x2="443.33" y2="699.25" />
<line class="grid" x1="620.00" y1="506.50" x2="620.00" y2="699.25" />
<line class="grid" x1="796.67" y1="506.50" x2="796.67" y2="699.25" />
<line class="grid" x1="973.33" y1="506.50" x2="973.33" y2="699.25" />
<line class="grid" x1="1150.00" y1="506.50" x2="1150.00" y2="699.25" />
<line class="axis" x1="90" y1="506.50" x2="90" y2="699.25" />
<line class="axis" x1="90" y1="699.25" x2="1150" y2="699.25" />
<path class="series" d="M 178.33 683.42 L 179.81 684.07 L 181.28 684.50 L 182.75 693.38 L 184.22 694.64 L 185.69 689.48 L 187.17 686.10 L 188.64 694.15 L 190.11 686.46 L 191.58 680.54 L 193.06 684.36 L 194.53 688.59 L 196.00 689.64 L 197.47 679.94 L 198.94 678.52 L 200.42 687.44 L 201.89 690.54 L 203.36 683.45 L 204.83 687.32 L 206.31 687.32 L 207.78 674.57 L 209.25 680.03 L 210.72 666.44 L 212.19 659.63 L 213.67 679.26 L 215.14 685.13 L 216.61 689.06 L 218.08 689.51 L 219.56 687.79 L 221.03 692.34 L 222.50 683.14 L 223.97 690.01 L 225.44 676.02 L 226.92 688.55 L 228.39 671.55 L 229.86 678.14 L 231.33 685.77 L 232.81 681.87 L 234.28 681.55 L 235.75 683.13 L 237.22 682.47 L 238.69 693.87 L 240.17 665.27 L 241.64 655.13 L 243.11 649.51 L 244.58 671.88 L 246.06 661.92 L 247.53 652.01 L 249.00 668.48 L 250.47 676.57 L 251.94 668.38 L 253.42 694.70 L 254.89 691.41 L 256.36 677.84 L 257.83 663.82 L 259.31 649.22 L 260.78 689.14 L 262.25 670.39 L 263.72 673.23 L 265.19 660.79 L 266.67 670.04 L 268.14 686.89 L 269.61 686.91 L 271.08 680.77 L 272.56 673.33 L 274.03 680.86 L 275.50 687.96 L 276.97 692.06 L 278.44 692.46 L 279.92 689.89 L 281.39 686.79 L 282.86 684.18 L 284.33 677.24 L 285.81 672.39 L 287.28 654.03 L 288.75 663.77 L 290.22 661.96 L 291.69 639.96 L 293.17 623.53 L 294.64 660.79 L 296.11 670.51 L 297.58 570.28 L 299.06 603.61 L 300.53 672.05 L 302.00 651.35 L 303.47 634.16 L 304.94 616.03 L 306.42 654.55 L 307.89 675.11 L 309.36 676.02 L 310.83 684.03 L 312.31 659.94 L 313.78 678.07 L 315.25 667.08 L 316.72 665.85 L 318.19 663.63 L 319.67 646.11 L 321.14 664.03 L 322.61 690.72 L 324.08 688.72 L 325.56 687.82 L 327.03 679.70 L 328.50 685.62 L 329.97 677.97 L 331.44 680.13 L 332.92 676.39 L 334.39 672.05 L 335.86 648.25 L 337.33 662.17 L 338.81 668.35 L 340.28 637.64 L 341.75 646.77 L 343.22 650.80 L 344.69 674.05 L 346.17 644.94 L 347.64 667.58 L 349.11 665.27 L 350.58 627.57 L 352.06 659.70 L 353.53 689.23 L 355.00 671.72 L 356.47 662.87 L 357.94 662.01 L 359.42 660.72 L 360.89 649.87 L 362.36 651.20 L 363.83 680.60 L 365.31 680.60 L 366.78 640.78 L 368.25 661.76 L 369.72 644.75 L 371.19 681.34 L 372.67 674.32 L 374.14 639.07 L 375.61 643.40 L 377.08 667.63 L 378.56 663.13 L 380.03 650.99 L 381.50 680.23 L 382.97 689.49 L 384.44 665.22 L 385.92 671.02 L 387.39 671.17 L 388.86 684.17 L 390.33 662.72 L 391.81 667.47 L 393.28 665.16 L 394.75 652.05 L 396.22 670.61 L 397.69 647.45 L 399.17 654.27 L 400.64 679.26 L 402.11 675.57 L 403.58 683.21 L 405.06 685.21 L 406.53 688.22 L 408.00 690.77 L 409.47 690.11 L 410.94 678.39 L 412.42 671.62 L 413.89 663.25 L 415.36 683.86 L 416.83 679.71 L 418.31 676.72 L 419.78 687.59 L 421.25 675.35 L 422.72 672.75 L 424.19 684.51 L 425.67 692.40 L 427.14 681.40 L 428.61 688.05 L 430.08 689.90 L 431.56 693.64 L 433.03 680.37 L 434.50 685.77 L 435.97 689.84 L 437.44 688.96 L 438.92 687.51 L 440.39 693.62 L 441.86 688.46 L 443.33 689.71 L 444.81 679.50 L 446.28 685.48 L 447.75 691.56 L 449.22 694.53 L 450.69 697.59 L 452.17 698.86 L 453.64 698.37 L 455.11 698.44 L 456.58 697.67 L 458.06 697.24 L 459.53 698.34 L 461.00 698.42 L 462.47 698.59 L 463.94 698.49 L 465.42 698.53 L 466.89 698.54 L 468.36 698.32 L 469.83 698.52 L 471.31 698.47 L 472.78 698.63 L 474.25 698.44 L 475.72 698.48 L 477.19 698.45 L 478.67 698.61 L 480.14 697.88 L 481.61 691.19 L 483.08 694.90 L 484.56 693.84 L 486.03 694.66 L 487.50 697.90 L 488.97 698.04 L 490.44 697.15 L 491.92 698.57 L 493.39 698.55 L 494.86 698.16 L 496.33 698.36 L 497.81 698.62 L 499.28 698.25 L 500.75 698.44 L 502.22 698.56 L 503.69 698.53 L 505.17 698.45 L 506.64 698.45 L 508.11 698.58 L 509.58 698.42 L 511.06 698.58 L 512.53 698.30 L 514.00 698.38 L 515.47 697.92 L 516.94 696.51 L 518.42 696.03 L 519.89 693.85 L 521.36 697.98 L 522.83 697.24 L 524.31 698.13 L 525.78 698.03 L 527.25 698.44 L 528.72 698.19 L 530.19 698.48 L 531.67 698.57 L 533.14 698.49 L 534.61 698.57 L 536.08 698.33 L 537.56 698.49 L 539.03 698.44 L 540.50 698.44 L 541.97 698.49 L 543.44 698.51 L 544.92 698.48 L 546.39 698.36 L 547.86 698.35 L 549.33 698.52 L 550.81 698.54 L 552.28 698.53 L 553.75 698.31 L 555.22 698.45 L 556.69 698.37 L 558.17 698.45 L 559.64 698.17 L 561.11 692.40 L 562.58 692.45 L 564.06 697.88 L 565.53 697.52 L 567.00 698.82 L 568.47 697.94 L 569.94 698.82 L 571.42 698.65 L 572.89 698.36 L 574.36 698.77 L 575.83 698.54 L 577.31 698.54 L 578.78 698.49 L 580.25 698.40 L 581.72 698.45 L 583.19 698.40 L 584.67 697.74 L 586.14 697.65 L 587.61 698.23 L 589.08 698.32 L 590.56 698.44 L 592.03 698.20 L 593.50 697.57 L 594.97 695.81 L 596.44 696.79 L 597.92 697.32 L 599.39 696.06 L 600.86 698.04 L 602.33 698.45 L 603.81 698.22 L 605.28 698.28 L 606.75 698.49 L 608.22 698.44 L 609.69 698.54 L 611.17 698.50 L 612.64 698.38 L 614.11 698.56 L 615.58 698.55 L 617.06 698.46 L 618.53 698.38 L 620.00 698.54 L 621.47 698.52 L 622.94 698.58 L 624.42 698.48 L 625.89 698.43 L 627.36 698.41 L 628.83 698.50 L 630.31 698.58 L 631.78 698.82 L 633.25 698.34 L 634.72 689.95 L 636.19 696.83 L 637.67 695.64 L 639.14 697.15 L 640.61 698.55 L 642.08 698.72 L 643.56 698.68 L 645.03 698.00 L 646.50 698.05 L 647.97 698.66 L 649.44 698.67 L 650.92 698.95 L 652.39 699.11 L 653.86 698.99 L 655.33 699.12 L 656.81 699.05 L 658.28 698.32 L 659.75 695.17 L 661.22 690.79 L 662.69 695.53 L 664.17 697.88 L 665.64 696.07 L 667.11 670.43 L 668.58 684.71 L 670.06 685.29 L 671.53 659.15 L 673.00 636.44 L 674.47 651.53 L 675.94 677.54 L 677.42 668.68 L 678.89 664.05 L 680.36 673.39 L 681.83 669.95 L 683.31 672.02 L 684.78 674.58 L 686.25 690.76 L 687.72 672.74 L 689.19 679.21 L 690.67 680.83 L 692.14 685.89 L 693.61 680.07 L 695.08 687.50 L 696.56 681.59 L 698.03 673.94 L 699.50 688.35 L 700.97 686.08 L 702.44 671.82 L 703.92 679.62 L 705.39 679.62 L 706.86 682.20 L 708.33 677.57 L 709.81 685.59 L 711.28 674.25 L 712.75 670.56 L 714.22 682.72 L 715.69 675.14 L 717.17 677.52 L 718.64 672.43 L 720.11 684.40 L 721.58 684.63 L 723.06 675.17 L 724.53 665.84 L 726.00 667.24 L 727.47 664.64 L 728.94 667.77 L 730.42 674.33 L 731.89 674.02 L 733.36 690.35 L 734.83 688.64 L 736.31 685.07 L 737.78 646.42 L 739.25 671.37 L 740.72 654.51 L 742.19 660.95 L 743.67 684.69 L 745.14 664.03 L 746.61 685.93 L 748.08 687.36 L 749.56 684.11 L 751.03 673.82 L 752.50 681.17 L 753.97 672.31 L 755.44 682.63 L 756.92 668.40 L 758.39 657.34 L 759.86 676.59 L 761.33 672.64 L 762.81 657.93 L 764.28 673.60 L 765.75 665.97 L 767.22 653.34 L 768.69 667.45 L 770.17 669.69 L 771.64 643.51 L 773.11 666.86 L 774.58 636.54 L 776.06 641.84 L 777.53 675.11 L 779.00 684.20 L 780.47 668.82 L 781.94 678.09 L 783.42 636.08 L 784.89 666.30 L 786.36 688.58 L 787.83 676.16 L 789.31 673.67 L 790.78 687.49 L 792.25 689.05 L 793.72 669.01 L 795.19 688.92 L 796.67 676.80 L 798.14 687.73 L 799.61 679.09 L 801.08 672.21 L 802.56 683.47 L 804.03 665.97 L 805.50 692.16 L 806.97 688.31 L 808.44 690.50 L 809.92 686.52 L 811.39 689.25 L 812.86 692.91 L 814.33 676.64 L 815.81 684.58 L 817.28 686.54 L 818.75 691.02 L 820.22 694.97 L 821.69 687.83 L 823.17 694.96 L 824.64 665.26 L 826.11 667.19 L 827.58 696.14 L 829.06 683.37 L 830.53 675.64 L 832.00 672.90 L 833.47 682.21 L 834.94 677.81 L 836.42 659.87 L 837.89 679.51 L 839.36 678.98 L 840.83 663.70 L 842.31 676.43 L 843.78 683.24 L 845.25 682.53 L 846.72 684.44 L 848.19 666.06 L 849.67 682.46 L 851.14 681.81 L 852.61 666.17 L 854.08 672.24 L 855.56 687.00 L 857.03 684.37 L 858.50 690.07 L 859.97 690.58 L 861.44 693.42 L 862.92 690.90 L 864.39 689.05 L 865.86 687.98 L 867.33 692.46 L 868.81 684.15 L 870.28 687.43 L 871.75 688.02 L 873.22 689.19 L 874.69 693.87 L 876.17 693.87 L 877.64 693.52 L 879.11 688.77 L 880.58 692.15 L 882.06 691.25 L 883.53 693.78 L 885.00 687.76 L 886.47 689.80 L 887.94 676.64 L 889.42 674.73 L 890.89 684.25 L 892.36 694.76 L 893.83 694.69 L 895.31 689.92 L 896.78 694.84 L 898.25 690.82 L 899.72 694.55 L 901.19 695.09 L 902.67 686.83 L 904.14 696.47 L 905.61 690.80 L 907.08 695.95 L 908.56 689.10 L 910.03 694.43 L 911.50 695.17 L 912.97 695.97 L 914.44 690.08 L 915.92 692.63 L 917.39 695.74 L 918.86 696.30 L 920.33 694.24 L 921.81 693.39 L 923.28 689.41 L 924.75 693.84 L 926.22 697.69 L 927.69 691.58 L 929.17 695.19 L 930.64 696.40 L 932.11 692.89 L 933.58 696.43 L 935.06 686.38 L 936.53 667.51" stroke="#FB8C00" />
<text x="90" y="711.25" font-size="14" font-weight="700">Giroscópio (magnitude) (u.a.)</text>
<rect class="event" x="443.33" y="717.25" width="228.19" height="192.75" />
<line class="eventline" x1="443.33" y1="717.25" x2="443.33" y2="910.00" />
<line class="eventline" x1="671.53" y1="717.25" x2="671.53" y2="910.00" />
<line class="grid" x1="90" y1="910.00" x2="1150" y2="910.00" />
<text class="small" x="80" y="914.00" text-anchor="end">0.00</text>
<line class="grid" x1="90" y1="871.45" x2="1150" y2="871.45" />
<text class="small" x="80" y="875.45" text-anchor="end">0.05</text>
<line class="grid" x1="90" y1="832.90" x2="1150" y2="832.90" />
<text class="small" x="80" y="836.90" text-anchor="end">0.10</text>
<line class="grid" x1="90" y1="794.35" x2="1150" y2="794.35" />
<text class="small" x="80" y="798.35" text-anchor="end">0.15</text>
<line class="grid" x1="90" y1="755.80" x2="1150" y2="755.80" />
<text class="small" x="80" y="759.80" text-anchor="end">0.20</text>
<line class="grid" x1="90" y1="717.25" x2="1150" y2="717.25" />
<text class="small" x="80" y="721.25" text-anchor="end">0.25</text>
<line class="grid" x1="90.00" y1="717.25" x2="90.00" y2="910.00" />
<line class="grid" x1="266.67" y1="717.25" x2="266.67" y2="910.00" />
<line class="grid" x1="443.33" y1="717.25" x2="443.33" y2="910.00" />
<line class="grid" x1="620.00" y1="717.25" x2="620.00" y2="910.00" />
<line class="grid" x1="796.67" y1="717.25" x2="796.67" y2="910.00" />
<line class="grid" x1="973.33" y1="717.25" x2="973.33" y2="910.00" />
<line class="grid" x1="1150.00" y1="717.25" x2="1150.00" y2="910.00" />
<line class="axis" x1="90" y1="717.25" x2="90" y2="910.00" />
<line class="axis" x1="90" y1="910.00" x2="1150" y2="910.00" />
<path class="series" d="M 178.33 903.49 L 179.81 902.27 L 181.28 900.04 L 182.75 899.26 L 184.22 899.00 L 185.69 902.79 L 187.17 898.81 L 188.64 897.90 L 190.11 905.65 L 191.58 906.47 L 193.06 894.89 L 194.53 900.02 L 196.00 903.35 L 197.47 900.84 L 198.94 887.32 L 200.42 894.46 L 201.89 898.55 L 203.36 906.27 L 204.83 903.55 L 206.31 903.55 L 207.78 889.54 L 209.25 875.81 L 210.72 855.62 L 212.19 842.43 L 213.67 846.41 L 215.14 848.07 L 216.61 855.87 L 218.08 851.62 L 219.56 851.70 L 221.03 857.84 L 222.50 871.90 L 223.97 873.46 L 225.44 875.90 L 226.92 870.66 L 228.39 890.03 L 229.86 894.00 L 231.33 888.57 L 232.81 880.45 L 234.28 876.69 L 235.75 863.87 L 237.22 850.23 L 238.69 845.83 L 240.17 839.49 L 241.64 817.33 L 243.11 837.38 L 244.58 851.10 L 246.06 873.66 L 247.53 896.57 L 249.00 898.33 L 250.47 892.24 L 251.94 886.91 L 253.42 889.48 L 254.89 889.86 L 256.36 901.22 L 257.83 900.07 L 259.31 894.25 L 260.78 889.23 L 262.25 881.30 L 263.72 866.68 L 265.19 859.63 L 266.67 872.64 L 268.14 891.78 L 269.61 891.70 L 271.08 896.17 L 272.56 889.43 L 274.03 875.96 L 275.50 869.44 L 276.97 882.99 L 278.44 884.39 L 279.92 881.74 L 281.39 879.72 L 282.86 859.85 L 284.33 880.13 L 285.81 874.46 L 287.28 864.92 L 288.75 838.49 L 290.22 828.59 L 291.69 827.98 L 293.17 786.85 L 294.64 804.03 L 296.11 857.71 L 297.58 853.31 L 299.06 821.39 L 300.53 877.88 L 302.00 879.34 L 303.47 881.81 L 304.94 873.35 L 306.42 868.58 L 307.89 852.68 L 309.36 862.71 L 310.83 865.79 L 312.31 886.23 L 313.78 844.49 L 315.25 883.36 L 316.72 877.99 L 318.19 899.33 L 319.67 898.72 L 321.14 861.39 L 322.61 885.94 L 324.08 865.00 L 325.56 883.48 L 327.03 875.20 L 328.50 881.92 L 329.97 893.59 L 331.44 870.69 L 332.92 879.66 L 334.39 879.86 L 335.86 882.87 L 337.33 875.09 L 338.81 870.62 L 340.28 850.76 L 341.75 880.88 L 343.22 889.10 L 344.69 869.02 L 346.17 829.49 L 347.64 861.34 L 349.11 872.33 L 350.58 861.71 L 352.06 864.24 L 353.53 892.84 L 355.00 876.42 L 356.47 889.26 L 357.94 897.44 L 359.42 876.72 L 360.89 878.28 L 362.36 874.06 L 363.83 867.27 L 365.31 867.27 L 366.78 860.61 L 368.25 838.60 L 369.72 826.86 L 371.19 824.98 L 372.67 839.89 L 374.14 876.01 L 375.61 883.79 L 377.08 859.37 L 378.56 870.62 L 380.03 853.92 L 381.50 831.33 L 382.97 781.27 L 384.44 792.09 L 385.92 795.50 L 387.39 806.38 L 388.86 802.49 L 390.33 797.20 L 391.81 821.31 L 393.28 796.23 L 394.75 809.97 L 396.22 812.73 L 397.69 841.02 L 399.17 886.67 L 400.64 903.51 L 402.11 907.29 L 403.58 901.75 L 405.06 899.28 L 406.53 891.18 L 408.00 883.45 L 409.47 880.14 L 410.94 885.95 L 412.42 892.51 L 413.89 872.74 L 415.36 857.41 L 416.83 863.78 L 418.31 877.97 L 419.78 875.63 L 421.25 871.06 L 422.72 892.73 L 424.19 884.90 L 425.67 897.15 L 427.14 898.95 L 428.61 897.34 L 430.08 901.41 L 431.56 905.58 L 433.03 892.28 L 434.50 896.02 L 435.97 894.61 L 437.44 900.88 L 438.92 889.82 L 440.39 899.68 L 441.86 899.54 L 443.33 906.03 L 444.81 907.08 L 446.28 904.27 L 447.75 908.05 L 449.22 905.91 L 450.69 908.47 L 452.17 908.28 L 453.64 908.43 L 455.11 908.17 L 456.58 907.59 L 458.06 908.03 L 459.53 908.10 L 461.00 908.23 L 462.47 908.04 L 463.94 908.09 L 465.42 908.14 L 466.89 908.20 L 468.36 908.11 L 469.83 908.10 L 471.31 908.25 L 472.78 908.14 L 474.25 908.10 L 475.72 908.26 L 477.19 908.16 L 478.67 908.36 L 480.14 908.37 L 481.61 907.61 L 483.08 905.27 L 484.56 908.75 L 486.03 908.05 L 487.50 908.11 L 488.97 908.28 L 490.44 908.41 L 491.92 908.22 L 493.39 908.37 L 494.86 908.42 L 496.33 908.50 L 497.81 908.26 L 499.28 908.46 L 500.75 908.42 L 502.22 908.36 L 503.69 908.36 L 505.17 908.23 L 506.64 908.40 L 508.11 908.29 L 509.58 908.43 L 511.06 908.46 L 512.53 908.17 L 514.00 908.40 L 515.47 908.42 L 516.94 907.59 L 518.42 905.18 L 519.89 908.27 L 521.36 908.80 L 522.83 908.10 L 524.31 908.30 L 525.78 908.30 L 527.25 908.22 L 528.72 908.36 L 530.19 908.12 L 531.67 908.00 L 533.14 908.14 L 534.61 908.09 L 536.08 908.19 L 537.56 908.12 L 539.03 908.07 L 540.50 908.07 L 541.97 908.20 L 543.44 908.08 L 544.92 908.20 L 546.39 908.19 L 547.86 908.41 L 549.33 908.17 L 550.81 908.40 L 552.28 908.28 L 553.75 908.30 L 555.22 908.18 L 556.69 908.31 L 558.17 908.33 L 559.64 908.40 L 561.11 907.55 L 562.58 908.48 L 564.06 908.11 L 565.53 908.06 L 567.00 908.40 L 568.47 908.21 L 569.94 908.26 L 571.42 908.34 L 572.89 908.31 L 574.36 908.31 L 575.83 908.25 L 577.31 908.37 L 578.78 908.34 L 580.25 908.35 L 581.72 908.30 L 583.19 908.33 L 584.67 908.34 L 586.14 908.11 L 587.61 908.32 L 589.08 908.23 L 590.56 908.46 L 592.03 908.30 L 593.50 908.56 L 594.97 908.94 L 596.44 908.01 L 597.92 908.26 L 599.39 908.30 L 600.86 908.38 L 602.33 908.11 L 603.81 908.45 L 605.28 908.31 L 606.75 908.27 L 608.22 908.33 L 609.69 908.36 L 611.17 908.33 L 612.64 908.40 L 614.11 908.31 L 615.58 908.24 L 617.06 908.34 L 618.53 908.34 L 620.00 908.37 L 621.47 908.44 L 622.94 908.32 L 624.42 908.24 L 625.89 908.23 L 627.36 908.39 L 628.83 908.25 L 630.31 909.11 L 631.78 909.75 L 633.25 909.16 L 634.72 907.72 L 636.19 909.20 L 637.67 909.85 L 639.14 909.70 L 640.61 909.75 L 642.08 909.86 L 643.56 909.70 L 645.03 909.74 L 646.50 909.73 L 647.97 909.65 L 649.44 909.88 L 650.92 909.83 L 652.39 909.83 L 653.86 909.86 L 655.33 909.87 L 656.81 909.80 L 658.28 909.68 L 659.75 907.50 L 661.22 907.86 L 662.69 909.47 L 664.17 909.66 L 665.64 909.30 L 667.11 903.80 L 668.58 891.46 L 670.06 906.65 L 671.53 891.20 L 673.00 861.02 L 674.47 872.86 L 675.94 877.78 L 677.42 857.87 L 678.89 854.88 L 680.36 834.70 L 681.83 850.92 L 683.31 872.92 L 684.78 868.23 L 686.25 874.74 L 687.72 856.39 L 689.19 872.06 L 690.67 858.00 L 692.14 850.44 L 693.61 830.51 L 695.08 835.24 L 696.56 855.03 L 698.03 829.67 L 699.50 829.35 L 700.97 835.89 L 702.44 846.35 L 703.92 847.19 L 705.39 847.19 L 706.86 871.87 L 708.33 884.82 L 709.81 907.37 L 711.28 885.18 L 712.75 883.48 L 714.22 892.70 L 715.69 899.38 L 717.17 895.01 L 718.64 897.72 L 720.11 883.09 L 721.58 894.51 L 723.06 867.59 L 724.53 893.73 L 726.00 897.39 L 727.47 886.99 L 728.94 901.92 L 730.42 876.55 L 731.89 904.08 L 733.36 898.00 L 734.83 894.57 L 736.31 884.28 L 737.78 900.47 L 739.25 882.83 L 740.72 873.12 L 742.19 903.00 L 743.67 878.26 L 745.14 899.51 L 746.61 903.09 L 748.08 905.83 L 749.56 887.84 L 751.03 880.20 L 752.50 886.55 L 753.97 877.24 L 755.44 872.01 L 756.92 874.85 L 758.39 863.79 L 759.86 855.60 L 761.33 871.24 L 762.81 865.07 L 764.28 883.80 L 765.75 884.36 L 767.22 879.39 L 768.69 885.22 L 770.17 888.53 L 771.64 870.49 L 773.11 854.96 L 774.58 853.56 L 776.06 892.93 L 777.53 868.92 L 779.00 898.05 L 780.47 888.94 L 781.94 872.46 L 783.42 897.96 L 784.89 874.20 L 786.36 866.05 L 787.83 876.29 L 789.31 877.61 L 790.78 875.06 L 792.25 886.82 L 793.72 901.49 L 795.19 886.72 L 796.67 883.37 L 798.14 878.76 L 799.61 876.86 L 801.08 894.86 L 802.56 897.49 L 804.03 896.99 L 805.50 889.14 L 806.97 893.05 L 808.44 898.57 L 809.92 879.85 L 811.39 887.44 L 812.86 855.88 L 814.33 861.24 L 815.81 893.28 L 817.28 895.47 L 818.75 904.75 L 820.22 907.62 L 821.69 892.16 L 823.17 897.77 L 824.64 896.51 L 826.11 897.71 L 827.58 900.43 L 829.06 890.33 L 830.53 894.10 L 832.00 879.92 L 833.47 877.50 L 834.94 869.68 L 836.42 839.20 L 837.89 828.04 L 839.36 830.96 L 840.83 842.44 L 842.31 838.25 L 843.78 852.05 L 845.25 850.85 L 846.72 864.72 L 848.19 871.09 L 849.67 883.09 L 851.14 885.22 L 852.61 874.19 L 854.08 887.64 L 855.56 888.63 L 857.03 896.29 L 858.50 900.78 L 859.97 905.54 L 861.44 904.99 L 862.92 904.00 L 864.39 902.40 L 865.86 903.12 L 867.33 902.88 L 868.81 906.61 L 870.28 902.19 L 871.75 899.54 L 873.22 894.63 L 874.69 890.19 L 876.17 890.19 L 877.64 889.99 L 879.11 893.44 L 880.58 905.31 L 882.06 906.77 L 883.53 904.98 L 885.00 905.28 L 886.47 897.08 L 887.94 893.54 L 889.42 896.54 L 890.89 886.60 L 892.36 887.77 L 893.83 897.69 L 895.31 901.53 L 896.78 893.14 L 898.25 893.48 L 899.72 899.89 L 901.19 899.72 L 902.67 900.00 L 904.14 899.80 L 905.61 903.78 L 907.08 899.86 L 908.56 903.56 L 910.03 903.68 L 911.50 901.97 L 912.97 902.18 L 914.44 903.51 L 915.92 904.37 L 917.39 905.51 L 918.86 902.52 L 920.33 902.04 L 921.81 900.88 L 923.28 902.42 L 924.75 902.59 L 926.22 901.10 L 927.69 895.03 L 929.17 899.32 L 930.64 897.92 L 932.11 896.14 L 933.58 895.00 L 935.06 894.62 L 936.53 898.97" stroke="#E53935" />
<text x="620.00" y="952" font-size="15" text-anchor="middle">minutos (relativo ao início do evento)</text>
<text class="small" x="90.00" y="936" text-anchor="middle">-4.00</text>
<text class="small" x="266.67" y="936" text-anchor="middle">-2.00</text>
<text class="small" x="443.33" y="936" text-anchor="middle">0.00</text>
<text class="small" x="620.00" y="936" text-anchor="middle">2.00</text>
<text class="small" x="796.67" y="936" text-anchor="middle">4.00</text>
<text class="small" x="973.33" y="936" text-anchor="middle">6.00</text>
<text class="small" x="1150.00" y="936" text-anchor="middle">8.00</text>
</svg>