<?xml version="1.0" encoding="UTF-8"?>
<svg xmlns="http://www.w3.org/2000/svg" width="1180" height="980" viewBox="0 0 1180 980">
<style>
text { font-family: -apple-system, BlinkMacSystemFont, 'Segoe UI', Roboto, Helvetica, Arial, sans-serif; fill: #111; }
.small { font-size: 12px; fill: #222; }
.title { font-size: 18px; font-weight: 700; }
.axis { stroke: #111; stroke-width: 1.4; }
.grid { stroke: #E6E6E6; stroke-width: 1; }
.event { fill: #FFEB3B; fill-opacity: 0.18; }
.eventline { stroke: #F9A825; stroke-width: 1.2; stroke-dasharray: 4 3; }
.series { fill: none; stroke-width: 1.8; }
</style>
<text class="title" x="90" y="34">ciclo 6 — espera_carregamento — 2025-12-12T18:02:32-03:00 → 2025-12-12T18:05:08-03:00 (span 156s, dur 157s)</text>
<text class="small" x="90" y="54">GPS: -11.699022,-47.157374  hotspot: -11.699,-47.157</text>
<text class="small" x="90" y="70">Janela: -3.00 → 5.60 min (relativo ao início do evento)</text>
<text x="90" y="79.00" font-size="14" font-weight="700">Velocidade (km/h)</text>
<rect class="event" x="443.33" y="85.00" width="229.67" height="192.75" />
<line class="eventline" x1="443.33" y1="85.00" x2="443.33" y2="277.75" />
<line class="eventline" x1="673.00" y1="85.00" x2="673.00" y2="277.75" />
<line class="grid" x1="90" y1="277.75" x2="1150" y2="277.75" />
<text class="small" x="80" y="281.75" text-anchor="end">0.00</text>
<line class="grid" x1="90" y1="239.20" x2="1150" y2="239.20" />
<text class="small" x="80" y="243.20" text-anchor="end">10.0</text>
<line class="grid" x1="90" y1="200.65" x2="1150" y2="200.65" />
<text class="small" x="80" y="204.65" text-anchor="end">20.0</text>
<line class="grid" x1="90" y1="162.10" x2="1150" y2="162.10" />
<text class="small" x="80" y="166.10" text-anchor="end">30.0</text>
<line class="grid" x1="90" y1="123.55" x2="1150" y2="123.55" />
<text class="small" x="80" y="127.55" text-anchor="end">40.0</text>
<line class="grid" x1="90" y1="85.00" x2="1150" y2="85.00" />
<text class="small" x="80" y="89.00" text-anchor="end">50.0</text>
<line class="grid" x1="90.00" y1="85.00" x2="90.00" y2="277.75" />
<line class="grid" x1="266.67" y1="85.00" x2="266.67" y2="277.75" />
<line class="grid" x1="443.33" y1="85.00" x2="443.33" y2="277.75" />
<line class="grid" x1="620.00" y1="85.00" x2="620.00" y2="277.75" />
<line class="grid" x1="796.67" y1="85.00" x2="796.67" y2="277.75" />
<line class="grid" x1="973.33" y1="85.00" x2="973.33" y2="277.75" />
<line class="grid" x1="1150.00" y1="85.00" x2="1150.00" y2="277.75" />
<line class="axis" x1="90" y1="85.00" x2="90" y2="277.75" />
<line class="axis" x1="90" y1="277.75" x2="1150" y2="277.75" />
<path class="series" d="M 178.33 177.69 L 179.81 178.52 L 181.28 181.30 L 182.75 181.30 L 184.22 182.13 L 185.69 170.89 L 187.17 168.11 L 188.64 168.67 L 190.11 167.42 L 191.58 160.90 L 193.06 158.82 L 194.53 160.06 L 196.00 159.37 L 197.47 160.06 L 198.94 160.90 L 200.42 162.01 L 201.89 161.31 L 203.36 160.62 L 204.83 161.31 L 206.31 161.45 L 207.78 163.67 L 209.25 173.80 L 210.72 171.86 L 212.19 172.28 L 213.67 171.03 L 215.14 173.11 L 216.61 167.56 L 218.08 174.78 L 219.56 177.55 L 221.03 177.55 L 222.50 175.19 L 223.97 176.58 L 225.44 175.05 L 226.92 172.55 L 228.39 169.09 L 229.86 168.95 L 231.33 171.03 L 232.81 171.17 L 234.28 168.25 L 235.75 170.33 L 237.22 169.78 L 238.69 171.31 L 240.17 174.36 L 241.64 175.61 L 243.11 176.30 L 244.58 180.33 L 246.06 180.88 L 247.53 182.27 L 249.00 185.46 L 250.47 187.96 L 251.94 184.77 L 253.42 186.71 L 254.89 184.49 L 256.36 186.29 L 257.83 188.65 L 259.31 192.68 L 260.78 195.87 L 262.25 195.59 L 263.72 203.50 L 265.19 203.36 L 266.67 200.17 L 268.14 196.98 L 269.61 196.29 L 271.08 191.43 L 272.56 196.98 L 274.03 196.70 L 275.50 195.45 L 276.97 195.04 L 278.44 193.51 L 279.92 188.93 L 281.39 184.21 L 282.86 181.02 L 284.33 176.44 L 285.81 171.03 L 287.28 165.89 L 288.75 164.92 L 290.22 176.44 L 291.69 173.11 L 293.17 178.94 L 294.64 187.13 L 296.11 183.38 L 297.58 194.76 L 299.06 199.06 L 300.53 207.94 L 302.00 205.17 L 303.47 202.11 L 304.94 201.98 L 306.42 208.92 L 307.89 223.35 L 309.36 224.60 L 310.83 226.40 L 312.31 219.32 L 313.78 214.74 L 315.25 213.63 L 316.72 201.42 L 318.19 194.48 L 319.67 184.91 L 321.14 198.23 L 322.61 211.83 L 324.08 218.63 L 325.56 227.51 L 327.03 213.63 L 328.50 211.97 L 329.97 211.69 L 331.44 205.72 L 332.92 200.31 L 334.39 197.67 L 335.86 191.01 L 337.33 186.85 L 338.81 187.54 L 340.28 185.74 L 341.75 179.49 L 343.22 177.00 L 344.69 181.99 L 346.17 180.33 L 347.64 174.78 L 349.11 169.22 L 350.58 170.47 L 352.06 168.39 L 353.53 170.20 L 355.00 175.19 L 356.47 176.86 L 357.94 182.69 L 359.42 182.82 L 360.89 178.52 L 362.36 180.74 L 363.83 177.13 L 365.31 180.88 L 366.78 185.32 L 368.25 193.09 L 369.72 197.67 L 371.19 199.34 L 372.67 196.56 L 374.14 199.20 L 375.61 200.03 L 377.08 202.81 L 378.56 201.98 L 380.03 207.94 L 381.50 214.19 L 382.97 219.88 L 384.44 217.10 L 385.92 226.40 L 387.39 242.92 L 388.86 244.30 L 390.33 240.83 L 391.81 242.50 L 393.28 245.14 L 394.75 243.33 L 396.22 242.92 L 397.69 255.27 L 399.17 246.80 L 400.64 243.47 L 402.11 246.80 L 403.58 249.02 L 405.06 245.00 L 406.53 249.58 L 408.00 277.75 L 409.47 277.75 L 410.94 277.75 L 412.42 277.75 L 413.89 277.75 L 415.36 277.75 L 416.83 260.54 L 418.31 259.29 L 419.78 257.21 L 421.25 260.54 L 422.72 257.21 L 424.19 260.82 L 425.67 261.10 L 427.14 261.10 L 428.61 255.68 L 430.08 269.84 L 431.56 265.68 L 433.03 263.18 L 434.50 268.87 L 435.97 269.42 L 437.44 268.31 L 438.92 268.31 L 440.39 268.31 L 441.86 269.84 L 443.33 277.75 L 444.81 277.75 L 446.28 277.75 L 447.75 277.75 L 449.22 277.75 L 450.69 277.75 L 452.17 277.75 L 453.64 277.75 L 455.11 277.75 L 456.58 277.75 L 458.06 277.75 L 459.53 277.75 L 461.00 277.75 L 462.47 277.75 L 463.94 277.75 L 465.42 277.75 L 466.89 277.75 L 468.36 277.75 L 469.83 277.75 L 471.31 277.75 L 472.78 277.75 L 474.25 277.75 L 475.72 277.75 L 477.19 277.75 L 478.67 277.75 L 480.14 277.75 L 481.61 277.75 L 483.08 277.75 L 484.56 277.75 L 486.03 277.75 L 487.50 277.75 L 488.97 277.75 L 490.44 277.75 L 491.92 277.75 L 493.39 277.75 L 494.86 277.75 L 496.33 277.75 L 497.81 277.75 L 499.28 277.75 L 500.75 277.75 L 502.22 277.75 L 503.69 277.75 L 505.17 277.75 L 506.64 277.75 L 508.11 277.75 L 509.58 277.75 L 511.06 277.75 L 512.53 277.75 L 514.00 277.75 L 515.47 277.75 L 516.94 277.75 L 518.42 277.75 L 519.89 277.75 L 521.36 277.75 L 522.83 277.75 L 524.31 277.75 L 525.78 277.75 L 527.25 277.75 L 528.72 277.75 L 530.19 277.75 L 531.67 277.75 L 533.14 277.75 L 534.61 277.75 L 536.08 277.75 L 537.56 277.75 L 539.03 277.75 L 540.50 277.75 L 541.97 277.75 L 543.44 277.75 L 544.92 277.75 L 546.39 277.75 L 547.86 277.75 L 549.33 277.75 L 550.81 277.75 L 552.28 277.75 L 553.75 277.75 L 555.22 277.75 L 556.69 277.75 L 558.17 277.75 L 559.64 277.75 L 561.11 277.75 L 562.58 277.75 L 564.06 277.75 L 565.53 277.75 L 567.00 277.75 L 568.47 277.75 L 569.94 277.75 L 571.42 277.75 L 572.89 277.75 L 574.36 277.75 L 575.83 277.75 L 577.31 277.75 L 578.78 277.75 L 580.25 277.75 L 581.72 277.75 L 583.19 277.75 L 584.67 277.75 L 586.14 277.75 L 587.61 277.75 L 589.08 277.75 L 590.56 277.75 L 592.03 277.75 L 593.50 277.75 L 594.97 277.75 L 596.44 277.75 L 597.92 277.75 L 599.39 277.75 L 600.86 277.75 L 602.33 277.75 L 603.81 277.75 L 605.28 277.75 L 606.75 277.75 L 608.22 277.75 L 609.69 277.75 L 611.17 277.75 L 612.64 277.75 L 614.11 277.75 L 615.58 277.75 L 617.06 277.75 L 618.53 277.75 L 620.00 277.75 L 621.47 277.75 L 622.94 277.75 L 624.42 277.75 L 625.89 277.75 L 627.36 277.75 L 628.83 277.75 L 630.31 277.75 L 631.78 277.75 L 633.25 277.75 L 634.72 277.75 L 636.19 277.75 L 637.67 277.75 L 639.14 277.75 L 640.61 277.75 L 642.08 277.75 L 643.56 277.75 L 645.03 277.75 L 646.50 277.75 L 647.97 277.75 L 649.44 277.75 L 650.92 277.75 L 652.39 277.75 L 653.86 277.75 L 655.33 277.75 L 656.81 277.75 L 658.28 277.75 L 659.75 277.75 L 661.22 277.75 L 662.69 277.75 L 664.17 277.75 L 665.64 277.75 L 667.11 277.75 L 668.58 277.75 L 670.06 277.75 L 671.53 277.75 L 673.00 277.75 L 674.47 260.68 L 675.94 260.54 L 677.42 258.88 L 678.89 257.49 L 680.36 255.27 L 681.83 255.27 L 683.31 255.82 L 684.78 249.72 L 686.25 250.13 L 687.72 254.16 L 689.19 253.88 L 690.67 252.35 L 692.14 251.66 L 693.61 250.97 L 695.08 254.57 L 696.56 249.86 L 698.03 249.02 L 699.50 245.14 L 700.97 242.64 L 702.44 243.47 L 703.92 247.77 L 705.39 249.02 L 706.86 250.97 L 708.33 254.57 L 709.81 254.30 L 711.28 248.74 L 712.75 244.30 L 714.22 243.19 L 715.69 239.31 L 717.17 238.20 L 718.64 236.39 L 720.11 232.51 L 721.58 231.95 L 723.06 228.07 L 724.53 224.32 L 726.00 224.60 L 727.47 221.82 L 728.94 225.43 L 730.42 229.73 L 731.89 235.42 L 733.36 234.59 L 734.83 233.34 L 736.31 230.15 L 737.78 229.87 L 739.25 230.84 L 740.72 232.51 L 742.19 231.26 L 743.67 227.79 L 745.14 226.12 L 746.61 223.07 L 748.08 224.87 L 749.56 220.57 L 751.03 211.00 L 752.50 205.58 L 753.97 206.00 L 755.44 203.50 L 756.92 207.39 L 758.39 208.64 L 759.86 209.05 L 761.33 207.67 L 762.81 212.38 L 764.28 213.91 L 765.75 216.41 L 767.22 219.05 L 768.69 220.02 L 770.17 217.38 L 771.64 217.10 L 773.11 213.08 L 774.58 213.22 L 776.06 215.85 L 777.53 220.99 L 779.00 221.54 L 780.47 221.27 L 781.94 223.76 L 783.42 219.88 L 784.89 220.16 L 786.36 223.63 L 787.83 225.29 L 789.31 226.40 L 790.78 223.63 L 792.25 223.35 L 793.72 231.95 L 795.19 241.81 L 796.67 246.39 L 798.14 242.22 L 799.61 236.25 L 801.08 233.90 L 802.56 237.92 L 804.03 232.92 L 805.50 232.79 L 806.97 233.48 L 808.44 243.47 L 809.92 245.55 L 811.39 244.30 L 812.86 244.30 L 814.33 244.30 L 815.81 244.30 L 817.28 244.30 L 818.75 244.30 L 820.22 244.30 L 821.69 258.22 L 823.17 256.57 L 824.64 254.94 L 826.11 251.98 L 827.58 252.19 L 829.06 255.55 L 830.53 253.88 L 832.00 254.85 L 833.47 249.58 L 834.94 253.32 L 836.42 246.11 L 837.89 245.55 L 839.36 238.61 L 840.83 237.09 L 842.31 234.45 L 843.78 232.37 L 845.25 230.29 L 846.72 233.06 L 848.19 230.29 L 849.67 231.26 L 851.14 229.73 L 852.61 225.71 L 854.08 225.01 L 855.56 228.62 L 857.03 229.45 L 858.50 233.48 L 859.97 239.03 L 861.44 235.01 L 862.92 232.92 L 864.39 230.56 L 865.86 231.54 L 867.33 228.07 L 868.81 231.40 L 870.28 230.15 L 871.75 229.04 L 873.22 229.32 L 874.69 229.18 L 876.17 230.29 L 877.64 229.73 L 879.11 231.40 L 880.58 230.43 L 882.06 231.81 L 883.53 234.45 L 885.00 235.84 L 886.47 237.64 L 887.94 238.89 L 889.42 240.00 L 890.89 241.81 L 892.36 245.83 L 893.83 247.36 L 895.31 254.43 L 896.78 252.63 L 898.25 250.41 L 899.72 253.19 L 901.19 248.47 L 902.67 249.58 L 904.14 248.88 L 905.61 247.08 L 907.08 248.33 L 908.56 248.33 L 910.03 247.36 L 911.50 246.25 L 912.97 246.52 L 914.44 247.08 L 915.92 246.80 L 917.39 246.25 L 918.86 244.86 L 920.33 245.41 L 921.81 245.41 L 923.28 245.97 L 924.75 245.14 L 926.22 246.25 L 927.69 245.83 L 929.17 244.44 L 930.64 244.30 L 932.11 243.61 L 933.58 241.94 L 935.06 241.67 L 936.53 244.44 L 938.00 239.17" stroke="#1976D2" />
<text x="90" y="289.75" font-size="14" font-weight="700">Inclinação (graus)</text>
<rect class="event" x="443.33" y="295.75" width="229.67" height="192.75" />
<line class="eventline" x1="443.33" y1="295.75" x2="443.33" y2="488.50" />
<line class="eventline" x1="673.00" y1="295.75" x2="673.00" y2="488.50" />
<line class="grid" x1="90" y1="488.50" x2="1150" y2="488.50" />
<text class="small" x="80" y="492.50" text-anchor="end">-10.0</text>
<line class="grid" x1="90" y1="449.95" x2="1150" y2="449.95" />
<text class="small" x="80" y="453.95" text-anchor="end">0.00</text>
<line class="grid" x1="90" y1="411.40" x2="1150" y2="411.40" />
<text class="small" x="80" y="415.40" text-anchor="end">10.0</text>
<line class="grid" x1="90" y1="372.85" x2="1150" y2="372.85" />
<text class="small" x="80" y="376.85" text-anchor="end">20.0</text>
<line class="grid" x1="90" y1="334.30" x2="1150" y2="334.30" />
<text class="small" x="80" y="338.30" text-anchor="end">30.0</text>
<line class="grid" x1="90" y1="295.75" x2="1150" y2="295.75" />
<text class="small" x="80" y="299.75" text-anchor="end">40.0</text>
<line class="grid" x1="90.00" y1="295.75" x2="90.00" y2="488.50" />
<line class="grid" x1="266.67" y1="295.75" x2="266.67" y2="488.50" />
<line class="grid" x1="443.33" y1="295.75" x2="443.33" y2="488.50" />
<line class="grid" x1="620.00" y1="295.75" x2="620.00" y2="488.50" />
<line class="grid" x1="796.67" y1="295.75" x2="796.67" y2="488.50" />
<line class="grid" x1="973.33" y1="295.75" x2="973.33" y2="488.50" />
<line class="grid" x1="1150.00" y1="295.75" x2="1150.00" y2="488.50" />
<line class="axis" x1="90" y1="295.75" x2="90" y2="488.50" />
<line class="axis" x1="90" y1="488.50" x2="1150" y2="488.50" />
<path class="series" d="M 178.33 398.41 L 179.81 398.08 L 181.28 396.23 L 182.75 394.81 L 184.22 398.10 L 185.69 409.35 L 187.17 405.56 L 188.64 405.78 L 190.11 400.30 L 191.58 402.78 L 193.06 402.19 L 194.53 401.30 L 196.00 401.93 L 197.47 400.39 L 198.94 402.57 L 200.42 403.03 L 201.89 405.43 L 203.36 404.55 L 204.83 406.59 L 206.31 399.71 L 207.78 399.86 L 209.25 399.57 L 210.72 398.58 L 212.19 406.32 L 213.67 400.21 L 215.14 401.96 L 216.61 402.39 L 218.08 401.39 L 219.56 403.64 L 221.03 404.28 L 222.50 403.74 L 223.97 405.84 L 225.44 411.71 L 226.92 414.82 L 228.39 412.78 L 229.86 405.82 L 231.33 403.71 L 232.81 414.07 L 234.28 409.16 L 235.75 411.26 L 237.22 408.92 L 238.69 405.75 L 240.17 406.38 L 241.64 404.73 L 243.11 405.85 L 244.58 405.08 L 246.06 402.54 L 247.53 404.17 L 249.00 403.36 L 250.47 404.26 L 251.94 405.64 L 253.42 404.57 L 254.89 397.59 L 256.36 396.37 L 257.83 395.78 L 259.31 396.03 L 260.78 398.08 L 262.25 386.40 L 263.72 392.20 L 265.19 394.94 L 266.67 389.35 L 268.14 384.91 L 269.61 386.66 L 271.08 377.70 L 272.56 372.08 L 274.03 386.02 L 275.50 378.24 L 276.97 377.35 L 278.44 380.64 L 279.92 382.28 L 281.39 388.44 L 282.86 392.82 L 284.33 391.01 L 285.81 390.72 L 287.28 392.26 L 288.75 372.29 L 290.22 385.01 L 291.69 385.11 L 293.17 375.47 L 294.64 389.75 L 296.11 378.56 L 297.58 382.11 L 299.06 385.43 L 300.53 401.20 L 302.00 406.65 L 303.47 398.95 L 304.94 391.42 L 306.42 369.97 L 307.89 396.36 L 309.36 399.52 L 310.83 419.42 L 312.31 413.95 L 313.78 392.78 L 315.25 393.44 L 316.72 389.00 L 318.19 386.28 L 319.67 376.21 L 321.14 368.90 L 322.61 393.42 L 324.08 409.88 L 325.56 413.22 L 327.03 418.17 L 328.50 414.95 L 329.97 418.16 L 331.44 421.88 L 332.92 425.39 L 334.39 414.00 L 335.86 406.63 L 337.33 410.45 L 338.81 407.10 L 340.28 418.08 L 341.75 403.43 L 343.22 405.28 L 344.69 409.32 L 346.17 418.21 L 347.64 418.94 L 349.11 408.61 L 350.58 405.83 L 352.06 395.82 L 353.53 398.58 L 355.00 400.10 L 356.47 394.95 L 357.94 400.66 L 359.42 412.01 L 360.89 394.66 L 362.36 406.99 L 363.83 397.45 L 365.31 395.27 L 366.78 398.76 L 368.25 393.06 L 369.72 400.98 L 371.19 409.01 L 372.67 400.15 L 374.14 405.00 L 375.61 408.79 L 377.08 401.74 L 378.56 396.92 L 380.03 392.26 L 381.50 392.53 L 382.97 413.06 L 384.44 396.93 L 385.92 391.46 L 387.39 423.09 L 388.86 425.32 L 390.33 409.79 L 391.81 405.82 L 393.28 419.49 L 394.75 419.74 L 396.22 393.59 L 397.69 413.45 L 399.17 405.98 L 400.64 390.01 L 402.11 386.80 L 403.58 383.72 L 405.06 382.13 L 406.53 359.20 L 408.00 399.81 L 409.47 396.05 L 410.94 391.08 L 412.42 398.85 L 413.89 388.50 L 415.36 390.31 L 416.83 390.31 L 418.31 395.49 L 419.78 391.76 L 421.25 397.36 L 422.72 390.52 L 424.19 404.49 L 425.67 394.71 L 427.14 396.62 L 428.61 396.91 L 430.08 410.10 L 431.56 390.00 L 433.03 401.67 L 434.50 412.08 L 435.97 393.02 L 437.44 407.74 L 438.92 401.55 L 440.39 403.66 L 441.86 400.75 L 443.33 414.91 L 444.81 399.46 L 446.28 399.48 L 447.75 399.77 L 449.22 403.34 L 450.69 396.00 L 452.17 397.91 L 453.64 399.52 L 455.11 399.12 L 456.58 399.13 L 458.06 399.07 L 459.53 399.04 L 461.00 399.09 L 462.47 399.08 L 463.94 399.12 L 465.42 399.04 L 466.89 399.06 L 468.36 399.14 L 469.83 399.09 L 471.31 399.03 L 472.78 399.03 L 474.25 399.05 L 475.72 399.07 L 477.19 399.04 L 478.67 399.07 L 480.14 399.06 L 481.61 399.05 L 483.08 399.06 L 484.56 399.03 L 486.03 398.99 L 487.50 399.29 L 488.97 398.40 L 490.44 398.12 L 491.92 398.00 L 493.39 398.07 L 494.86 397.98 L 496.33 398.06 L 497.81 398.02 L 499.28 398.02 L 500.75 398.05 L 502.22 397.98 L 503.69 397.96 L 505.17 398.00 L 506.64 397.95 L 508.11 397.95 L 509.58 397.95 L 511.06 398.03 L 512.53 397.98 L 514.00 398.00 L 515.47 397.94 L 516.94 397.96 L 518.42 397.95 L 519.89 397.93 L 521.36 397.99 L 522.83 397.91 L 524.31 397.97 L 525.78 397.93 L 527.25 397.93 L 528.72 397.81 L 530.19 397.24 L 531.67 397.00 L 533.14 396.94 L 534.61 396.91 L 536.08 396.93 L 537.56 397.01 L 539.03 396.90 L 540.50 396.90 L 541.97 396.94 L 543.44 396.92 L 544.92 396.89 L 546.39 396.94 L 547.86 396.85 L 549.33 396.94 L 550.81 396.93 L 552.28 396.87 L 553.75 396.87 L 555.22 396.89 L 556.69 396.89 L 558.17 396.93 L 559.64 396.90 L 561.11 396.87 L 562.58 396.87 L 564.06 396.90 L 565.53 396.87 L 567.00 396.84 L 568.47 396.86 L 569.94 396.94 L 571.42 396.92 L 572.89 396.07 L 574.36 396.59 L 575.83 396.40 L 577.31 396.35 L 578.78 396.50 L 580.25 396.33 L 581.72 396.21 L 583.19 396.32 L 584.67 396.65 L 586.14 396.21 L 587.61 396.36 L 589.08 396.29 L 590.56 396.34 L 592.03 396.30 L 593.50 396.32 L 594.97 396.37 L 596.44 396.31 L 597.92 396.30 L 599.39 396.26 L 600.86 396.30 L 602.33 396.34 L 603.81 396.24 L 605.28 396.27 L 606.75 396.25 L 608.22 396.23 L 609.69 396.22 L 611.17 396.52 L 612.64 396.42 L 614.11 397.71 L 615.58 396.79 L 617.06 397.21 L 618.53 397.16 L 620.00 397.28 L 621.47 397.15 L 622.94 397.17 L 624.42 397.21 L 625.89 397.17 L 627.36 397.22 L 628.83 397.21 L 630.31 397.18 L 631.78 397.18 L 633.25 397.22 L 634.72 397.21 L 636.19 397.24 L 637.67 397.18 L 639.14 397.25 L 640.61 397.23 L 642.08 397.19 L 643.56 397.21 L 645.03 397.21 L 646.50 397.27 L 647.97 397.27 L 649.44 397.24 L 650.92 397.28 L 652.39 397.29 L 653.86 397.35 L 655.33 397.67 L 656.81 397.84 L 658.28 398.08 L 659.75 397.94 L 661.22 398.15 L 662.69 398.19 L 664.17 398.04 L 665.64 398.06 L 667.11 409.34 L 668.58 406.19 L 670.06 405.19 L 671.53 406.86 L 673.00 406.62 L 674.47 404.51 L 675.94 410.72 L 677.42 408.00 L 678.89 399.78 L 680.36 388.07 L 681.83 388.38 L 683.31 394.09 L 684.78 394.78 L 686.25 396.29 L 687.72 396.29 L 689.19 406.41 L 690.67 406.24 L 692.14 407.10 L 693.61 395.78 L 695.08 394.60 L 696.56 396.58 L 698.03 401.08 L 699.50 400.62 L 700.97 399.69 L 702.44 397.79 L 703.92 399.76 L 705.39 405.15 L 706.86 404.65 L 708.33 401.74 L 709.81 413.46 L 711.28 415.34 L 712.75 414.28 L 714.22 405.80 L 715.69 412.11 L 717.17 414.55 L 718.64 412.25 L 720.11 408.39 L 721.58 408.85 L 723.06 412.28 L 724.53 413.43 L 726.00 410.11 L 727.47 407.33 L 728.94 399.72 L 730.42 401.14 L 731.89 398.53 L 733.36 403.89 L 734.83 412.10 L 736.31 412.42 L 737.78 407.90 L 739.25 414.29 L 740.72 414.93 L 742.19 413.88 L 743.67 416.26 L 745.14 417.07 L 746.61 416.91 L 748.08 420.02 L 749.56 417.31 L 751.03 415.33 L 752.50 414.33 L 753.97 408.03 L 755.44 406.63 L 756.92 409.07 L 758.39 411.25 L 759.86 407.33 L 761.33 404.76 L 762.81 399.87 L 764.28 395.25 L 765.75 400.73 L 767.22 400.13 L 768.69 402.43 L 770.17 411.78 L 771.64 404.88 L 773.11 400.68 L 774.58 402.32 L 776.06 403.18 L 777.53 401.04 L 779.00 408.54 L 780.47 413.93 L 781.94 408.72 L 783.42 405.78 L 784.89 402.98 L 786.36 402.43 L 787.83 406.37 L 789.31 400.02 L 790.78 398.00 L 792.25 390.63 L 793.72 380.44 L 795.19 389.26 L 796.67 408.69 L 798.14 408.77 L 799.61 406.80 L 801.08 409.84 L 802.56 400.81 L 804.03 404.14 L 805.50 408.70 L 806.97 401.13 L 808.44 409.54 L 809.92 415.59 L 811.39 424.21 L 812.86 433.56 L 814.33 429.63 L 815.81 443.67 L 817.28 432.65 L 818.75 453.05 L 820.22 446.10 L 821.69 445.97 L 823.17 440.73 L 824.64 438.63 L 826.11 431.66 L 827.58 424.24 L 829.06 422.36 L 830.53 416.89 L 832.00 419.23 L 833.47 408.57 L 834.94 406.49 L 836.42 410.12 L 837.89 419.03 L 839.36 420.56 L 840.83 413.48 L 842.31 416.37 L 843.78 415.00 L 845.25 412.96 L 846.72 409.46 L 848.19 415.49 L 849.67 413.41 L 851.14 411.33 L 852.61 418.62 L 854.08 415.44 L 855.56 414.92 L 857.03 424.00 L 858.50 415.90 L 859.97 426.29 L 861.44 425.93 L 862.92 425.36 L 864.39 425.46 L 865.86 425.01 L 867.33 425.35 L 868.81 424.56 L 870.28 424.28 L 871.75 424.65 L 873.22 424.49 L 874.69 424.48 L 876.17 424.90 L 877.64 425.05 L 879.11 425.61 L 880.58 426.16 L 882.06 426.61 L 883.53 427.47 L 885.00 429.27 L 886.47 428.54 L 887.94 428.82 L 889.42 431.02 L 890.89 428.25 L 892.36 428.45 L 893.83 423.75 L 895.31 439.70 L 896.78 438.87 L 898.25 437.97 L 899.72 439.36 L 901.19 438.05 L 902.67 439.01 L 904.14 437.48 L 905.61 437.68 L 907.08 436.17 L 908.56 436.86 L 910.03 436.06 L 911.50 435.86 L 912.97 436.47 L 914.44 435.42 L 915.92 434.52 L 917.39 434.60 L 918.86 434.32 L 920.33 434.90 L 921.81 434.46 L 923.28 434.77 L 924.75 434.80 L 926.22 434.68 L 927.69 433.60 L 929.17 433.92 L 930.64 432.15 L 932.11 429.56 L 933.58 424.54 L 935.06 421.42 L 936.53 429.04 L 938.00 425.15" stroke="#2E7D32" />
<path class="series" d="M 178.33 441.80 L 179.81 438.63 L 181.28 440.42 L 182.75 442.37 L 184.22 444.98 L 185.69 444.95 L 187.17 445.30 L 188.64 442.87 L 190.11 441.05 L 191.58 442.92 L 193.06 442.16 L 194.53 441.51 L 196.00 447.65 L 197.47 446.75 L 198.94 448.44 L 200.42 444.88 L 201.89 444.80 L 203.36 442.66 L 204.83 446.19 L 206.31 443.86 L 207.78 445.36 L 209.25 448.11 L 210.72 444.22 L 212.19 443.93 L 213.67 444.56 L 215.14 444.74 L 216.61 438.44 L 218.08 440.21 L 219.56 438.14 L 221.03 435.91 L 222.50 432.35 L 223.97 433.64 L 225.44 427.56 L 226.92 437.95 L 228.39 436.02 L 229.86 425.86 L 231.33 426.60 L 232.81 435.50 L 234.28 433.29 L 235.75 436.58 L 237.22 436.68 L 238.69 435.76 L 240.17 428.80 L 241.64 429.22 L 243.11 429.85 L 244.58 429.97 L 246.06 427.15 L 247.53 428.06 L 249.00 428.96 L 250.47 430.40 L 251.94 432.30 L 253.42 428.98 L 254.89 420.19 L 256.36 426.19 L 257.83 426.04 L 259.31 432.16 L 260.78 426.59 L 262.25 435.87 L 263.72 427.14 L 265.19 442.42 L 266.67 441.76 L 268.14 443.10 L 269.61 438.77 L 271.08 434.25 L 272.56 440.21 L 274.03 436.91 L 275.50 438.37 L 276.97 437.08 L 278.44 436.58 L 279.92 439.72 L 281.39 439.63 L 282.86 439.57 L 284.33 451.30 L 285.81 449.36 L 287.28 453.82 L 288.75 452.77 L 290.22 437.07 L 291.69 436.33 L 293.17 436.25 L 294.64 431.94 L 296.11 439.87 L 297.58 436.50 L 299.06 430.61 L 300.53 434.70 L 302.00 435.45 L 303.47 432.85 L 304.94 437.79 L 306.42 432.27 L 307.89 415.48 L 309.36 426.67 L 310.83 428.24 L 312.31 437.70 L 313.78 444.29 L 315.25 448.63 L 316.72 441.63 L 318.19 433.27 L 319.67 438.69 L 321.14 435.80 L 322.61 456.03 L 324.08 452.11 L 325.56 438.61 L 327.03 446.90 L 328.50 442.80 L 329.97 441.07 L 331.44 443.28 L 332.92 449.20 L 334.39 441.21 L 335.86 447.48 L 337.33 450.74 L 338.81 451.05 L 340.28 443.36 L 341.75 436.97 L 343.22 445.27 L 344.69 447.96 L 346.17 447.31 L 347.64 435.83 L 349.11 445.41 L 350.58 448.60 L 352.06 449.34 L 353.53 445.40 L 355.00 441.83 L 356.47 442.38 L 357.94 451.99 L 359.42 441.21 L 360.89 448.36 L 362.36 454.82 L 363.83 438.46 L 365.31 459.77 L 366.78 463.39 L 368.25 453.09 L 369.72 452.33 L 371.19 453.69 L 372.67 448.17 L 374.14 440.75 L 375.61 465.07 L 377.08 452.27 L 378.56 453.17 L 380.03 455.45 L 381.50 444.19 L 382.97 445.13 L 384.44 455.51 L 385.92 444.34 L 387.39 455.63 L 388.86 453.33 L 390.33 451.55 L 391.81 442.76 L 393.28 439.61 L 394.75 454.34 L 396.22 435.57 L 397.69 443.53 L 399.17 450.24 L 400.64 454.09 L 402.11 462.90 L 403.58 460.68 L 405.06 452.95 L 406.53 431.50 L 408.00 455.54 L 409.47 456.65 L 410.94 453.23 L 412.42 453.67 L 413.89 453.68 L 415.36 456.34 L 416.83 456.34 L 418.31 455.44 L 419.78 451.20 L 421.25 459.70 L 422.72 461.84 L 424.19 448.92 L 425.67 464.04 L 427.14 443.29 L 428.61 443.20 L 430.08 432.63 L 431.56 450.70 L 433.03 429.82 L 434.50 419.24 L 435.97 438.27 L 437.44 426.87 L 438.92 427.02 L 440.39 437.91 L 441.86 444.17 L 443.33 437.08 L 444.81 435.68 L 446.28 437.24 L 447.75 436.29 L 449.22 435.85 L 450.69 437.74 L 452.17 436.71 L 453.64 436.48 L 455.11 437.12 L 456.58 436.59 L 458.06 436.94 L 459.53 436.79 L 461.00 436.93 L 462.47 436.85 L 463.94 436.94 L 465.42 436.92 L 466.89 436.94 L 468.36 436.85 L 469.83 436.95 L 471.31 436.84 L 472.78 436.98 L 474.25 436.87 L 475.72 436.94 L 477.19 436.95 L 478.67 436.95 L 480.14 437.03 L 481.61 436.89 L 483.08 437.00 L 484.56 436.99 L 486.03 436.97 L 487.50 437.05 L 488.97 437.81 L 490.44 435.81 L 491.92 436.70 L 493.39 436.66 L 494.86 436.41 L 496.33 436.46 L 497.81 436.66 L 499.28 436.43 L 500.75 436.42 L 502.22 436.57 L 503.69 436.50 L 505.17 436.47 L 506.64 436.52 L 508.11 436.47 L 509.58 436.57 L 511.06 436.54 L 512.53 436.46 L 514.00 436.53 L 515.47 436.56 L 516.94 436.50 L 518.42 436.43 L 519.89 436.53 L 521.36 436.59 L 522.83 436.51 L 524.31 436.53 L 525.78 436.43 L 527.25 436.55 L 528.72 436.82 L 530.19 436.42 L 531.67 435.68 L 533.14 436.45 L 534.61 436.11 L 536.08 435.75 L 537.56 435.84 L 539.03 435.96 L 540.50 436.14 L 541.97 436.15 L 543.44 435.93 L 544.92 435.93 L 546.39 435.97 L 547.86 436.04 L 549.33 436.07 L 550.81 435.94 L 552.28 435.97 L 553.75 435.95 L 555.22 436.00 L 556.69 436.01 L 558.17 436.03 L 559.64 435.98 L 561.11 435.97 L 562.58 436.00 L 564.06 435.98 L 565.53 435.97 L 567.00 436.03 L 568.47 436.00 L 569.94 436.03 L 571.42 435.27 L 572.89 435.61 L 574.36 435.06 L 575.83 435.07 L 577.31 435.12 L 578.78 435.10 L 580.25 435.19 L 581.72 434.62 L 583.19 435.52 L 584.67 435.30 L 586.14 435.10 L 587.61 434.98 L 589.08 435.00 L 590.56 435.06 L 592.03 435.08 L 593.50 435.03 L 594.97 435.10 L 596.44 435.01 L 597.92 435.04 L 599.39 435.07 L 600.86 434.99 L 602.33 435.09 L 603.81 435.00 L 605.28 435.03 L 606.75 435.03 L 608.22 435.00 L 609.69 435.00 L 611.17 435.13 L 612.64 434.98 L 614.11 435.13 L 615.58 434.64 L 617.06 434.67 L 618.53 434.61 L 620.00 434.58 L 621.47 434.69 L 622.94 434.63 L 624.42 434.65 L 625.89 434.64 L 627.36 434.64 L 628.83 434.67 L 630.31 434.68 L 631.78 434.68 L 633.25 434.67 L 634.72 434.65 L 636.19 434.69 L 637.67 434.67 L 639.14 434.63 L 640.61 434.70 L 642.08 434.65 L 643.56 434.65 L 645.03 434.69 L 646.50 434.70 L 647.97 434.70 L 649.44 434.73 L 650.92 434.67 L 652.39 434.70 L 653.86 434.78 L 655.33 434.69 L 656.81 434.40 L 658.28 434.46 L 659.75 434.28 L 661.22 434.37 L 662.69 434.23 L 664.17 434.36 L 665.64 434.24 L 667.11 435.13 L 668.58 439.26 L 670.06 439.41 L 671.53 430.48 L 673.00 433.05 L 674.47 439.36 L 675.94 448.87 L 677.42 452.00 L 678.89 439.50 L 680.36 450.45 L 681.83 449.88 L 683.31 456.68 L 684.78 459.48 L 686.25 447.66 L 687.72 447.66 L 689.19 458.17 L 690.67 455.29 L 692.14 457.89 L 693.61 451.79 L 695.08 452.90 L 696.56 446.08 L 698.03 441.36 L 699.50 446.18 L 700.97 443.03 L 702.44 444.83 L 703.92 447.25 L 705.39 446.59 L 706.86 445.56 L 708.33 437.86 L 709.81 434.70 L 711.28 439.03 L 712.75 434.44 L 714.22 435.31 L 715.69 442.46 L 717.17 449.64 L 718.64 439.16 L 720.11 438.40 L 721.58 437.19 L 723.06 446.37 L 724.53 452.59 L 726.00 440.77 L 727.47 450.80 L 728.94 446.68 L 730.42 450.08 L 731.89 458.78 L 733.36 456.69 L 734.83 439.89 L 736.31 450.18 L 737.78 449.69 L 739.25 434.71 L 740.72 452.25 L 742.19 432.81 L 743.67 448.45 L 745.14 440.66 L 746.61 448.11 L 748.08 461.26 L 749.56 459.17 L 751.03 459.27 L 752.50 457.63 L 753.97 459.42 L 755.44 459.78 L 756.92 452.36 L 758.39 451.93 L 759.86 444.24 L 761.33 443.12 L 762.81 450.01 L 764.28 455.47 L 765.75 458.13 L 767.22 461.54 L 768.69 454.16 L 770.17 456.17 L 771.64 455.27 L 773.11 458.39 L 774.58 461.29 L 776.06 464.60 L 777.53 465.09 L 779.00 445.47 L 780.47 454.05 L 781.94 450.16 L 783.42 453.78 L 784.89 454.12 L 786.36 448.49 L 787.83 456.16 L 789.31 453.92 L 790.78 465.27 L 792.25 460.87 L 793.72 462.86 L 795.19 462.27 L 796.67 464.36 L 798.14 461.55 L 799.61 464.62 L 801.08 458.34 L 802.56 455.11 L 804.03 463.16 L 805.50 454.37 L 806.97 459.78 L 808.44 444.19 L 809.92 453.85 L 811.39 452.76 L 812.86 461.15 L 814.33 459.33 L 815.81 456.55 L 817.28 453.72 L 818.75 457.36 L 820.22 453.94 L 821.69 448.42 L 823.17 450.69 L 824.64 442.29 L 826.11 440.79 L 827.58 439.16 L 829.06 438.91 L 830.53 442.96 L 832.00 438.93 L 833.47 442.12 L 834.94 455.56 L 836.42 455.33 L 837.89 460.16 L 839.36 463.18 L 840.83 469.58 L 842.31 467.55 L 843.78 467.26 L 845.25 457.13 L 846.72 458.84 L 848.19 466.20 L 849.67 453.57 L 851.14 463.97 L 852.61 469.29 L 854.08 462.14 L 855.56 449.69 L 857.03 455.40 L 858.50 459.58 L 859.97 456.92 L 861.44 456.49 L 862.92 454.05 L 864.39 455.80 L 865.86 454.19 L 867.33 453.16 L 868.81 451.18 L 870.28 452.06 L 871.75 452.38 L 873.22 454.91 L 874.69 453.20 L 876.17 452.63 L 877.64 452.66 L 879.11 448.33 L 880.58 447.27 L 882.06 447.65 L 883.53 448.88 L 885.00 450.03 L 886.47 451.79 L 887.94 454.17 L 889.42 457.80 L 890.89 452.24 L 892.36 455.11 L 893.83 444.80 L 895.31 446.32 L 896.78 448.61 L 898.25 454.88 L 899.72 454.98 L 901.19 455.04 L 902.67 457.81 L 904.14 456.40 L 905.61 458.61 L 907.08 457.86 L 908.56 457.19 L 910.03 455.58 L 911.50 456.12 L 912.97 453.50 L 914.44 453.17 L 915.92 450.49 L 917.39 447.89 L 918.86 451.05 L 920.33 447.94 L 921.81 445.89 L 923.28 448.56 L 924.75 450.80 L 926.22 451.56 L 927.69 452.01 L 929.17 452.50 L 930.64 453.61 L 932.11 453.05 L 933.58 457.80 L 935.06 460.59 L 936.53 461.63 L 938.00 459.45" stroke="#6A1B9A" />
<line x1="900.00" y1="307.75" x2="918.00" y2="307.75" stroke="#2E7D32" stroke-width="3" />
<text class="small" x="924.00" y="311.75">pitch</text>
<line x1="900.00" y1="323.75" x2="918.00" y2="323.75" stroke="#6A1B9A" stroke-width="3" />
<text class="small" x="924.00" y="327.75">roll</text>
<text x="90" y="500.50" font-size="14" font-weight="700">Aceleração (magnitude) (u.a.)</text>
<rect class="event" x="443.33" y="506.50" width="229.67" height="192.75" />
<line class="eventline" x1="443.33" y1="506.50" x2="443.33" y2="699.25" />
<line class="eventline" x1="673.00" y1="506.50" x2="673.00" y2="699.25" />
<line class="grid" x1="90" y1="699.25" x2="1150" y2="699.25" />
<text class="small" x="80" y="703.25" text-anchor="end">0.00</text>
<line class="grid" x1="90" y1="660.70" x2="1150" y2="660.70" />
<text class="small" x="80" y="664.70" text-anchor="end">0.50</text>
<line class="grid" x1="90" y1="622.15" x2="1150" y2="622.15" />
<text class="small" x="80" y="626.15" text-anchor="end">1.00</text>
<line class="grid" x1="90" y1="583.60" x2="1150" y2="583.60" />
<text class="small" x="80" y="587.60" text-anchor="end">1.50</text>
<line class="grid" x1="90" y1="545.05" x2="1150" y2="545.05" />
<text class="small" x="80" y="549.05" text-anchor="end">2.00</text>
<line class="grid" x1="90" y1="506.50" x2="1150" y2="506.50" />
<text class="small" x="80" y="510.50" text-anchor="end">2.50</text>
<line class="grid" x1="90.00" y1="506.50" x2="90.00" y2="699.25" />
<line class="grid" x1="266.67" y1="506.50" x2="266.67" y2="699.25" />
<line class="grid" x1="443.33" y1="506.50" x2="443.33" y2="699.25" />
<line class="grid" x1="620.00" y1="506.50" x2="620.00" y2="699.25" />
<line class="grid" x1="796.67" y1="506.50" x2="796.67" y2="699.25" />
<line class="grid" x1="973.33" y1="506.50" x2="973.33" y2="699.25" />
<line class="grid" x1="1150.00" y1="506.50" x2="1150.00" y2="699.25" />
<line class="axis" x1="90" y1="506.50" x2="90" y2="699.25" />
<line class="axis" x1="90" y1="699.25" x2="1150" y2="699.25" />
<path class="series" d="M 178.33 691.59 L 179.81 689.34 L 181.28 691.62 L 182.75 689.45 L 184.22 662.23 L 185.69 684.97 L 187.17 685.32 L 188.64 679.40 L 190.11 692.29 L 191.58 684.33 L 193.06 682.62 L 194.53 690.97 L 196.00 687.32 L 197.47 687.30 L 198.94 693.17 L 200.42 693.17 L 201.89 689.82 L 203.36 686.15 L 204.83 679.46 L 206.31 684.18 L 207.78 685.60 L 209.25 681.76 L 210.72 682.62 L 212.19 683.80 L 213.67 684.85 L 215.14 689.24 L 216.61 682.89 L 218.08 688.64 L 219.56 677.43 L 221.03 676.23 L 222.50 683.51 L 223.97 673.10 L 225.44 661.40 L 226.92 684.85 L 228.39 682.84 L 229.86 663.78 L 231.33 661.13 L 232.81 686.99 L 234.28 689.24 L 235.75 674.66 L 237.22 688.04 L 238.69 678.95 L 240.17 676.73 L 241.64 684.31 L 243.11 688.19 L 244.58 691.05 L 246.06 684.63 L 247.53 688.48 L 249.00 689.09 L 250.47 693.76 L 251.94 687.44 L 253.42 683.91 L 254.89 657.12 L 256.36 670.70 L 257.83 673.65 L 259.31 670.95 L 260.78 663.21 L 262.25 660.07 L 263.72 682.11 L 265.19 661.66 L 266.67 673.88 L 268.14 683.56 L 269.61 682.60 L 271.08 683.48 L 272.56 676.08 L 274.03 672.68 L 275.50 689.08 L 276.97 684.84 L 278.44 681.37 L 279.92 680.75 L 281.39 677.78 L 282.86 671.72 L 284.33 682.76 L 285.81 692.92 L 287.28 689.47 L 288.75 632.33 L 290.22 667.63 L 291.69 678.36 L 293.17 660.55 L 294.64 683.99 L 296.11 662.79 L 297.58 674.85 L 299.06 665.55 L 300.53 673.95 L 302.00 662.90 L 303.47 683.49 L 304.94 665.46 L 306.42 630.87 L 307.89 669.99 L 309.36 686.49 L 310.83 643.45 L 312.31 662.93 L 313.78 686.60 L 315.25 660.81 L 316.72 649.91 L 318.19 632.34 L 319.67 604.52 L 321.14 604.47 L 322.61 623.30 L 324.08 664.20 L 325.56 649.22 L 327.03 657.04 L 328.50 670.95 L 329.97 673.80 L 331.44 671.13 L 332.92 663.35 L 334.39 671.01 L 335.86 679.67 L 337.33 679.02 L 338.81 685.99 L 340.28 676.02 L 341.75 663.79 L 343.22 679.37 L 344.69 667.66 L 346.17 684.32 L 347.64 662.04 L 349.11 664.24 L 350.58 664.66 L 352.06 675.90 L 353.53 669.19 L 355.00 680.66 L 356.47 678.39 L 357.94 688.83 L 359.42 632.78 L 360.89 651.03 L 362.36 667.79 L 363.83 688.51 L 365.31 656.38 L 366.78 656.38 L 368.25 650.89 L 369.72 673.85 L 371.19 650.42 L 372.67 670.14 L 374.14 655.22 L 375.61 673.81 L 377.08 642.47 L 378.56 667.90 L 380.03 673.46 L 381.50 660.03 L 382.97 666.25 L 384.44 640.23 L 385.92 667.95 L 387.39 650.68 L 388.86 651.87 L 390.33 650.33 L 391.81 665.01 L 393.28 657.63 L 394.75 661.69 L 396.22 604.03 L 397.69 618.31 L 399.17 659.84 L 400.64 662.19 L 402.11 675.78 L 403.58 646.54 L 405.06 631.26 L 406.53 617.88 L 408.00 596.50 L 409.47 673.18 L 410.94 663.47 L 412.42 676.73 L 413.89 684.82 L 415.36 677.96 L 416.83 684.63 L 418.31 662.24 L 419.78 684.55 L 421.25 679.17 L 422.72 677.32 L 424.19 662.04 L 425.67 671.26 L 427.14 666.92 L 428.61 652.97 L 430.08 678.60 L 431.56 664.52 L 433.03 642.39 L 434.50 655.72 L 435.97 669.41 L 437.44 682.01 L 438.92 677.08 L 440.39 691.37 L 441.86 686.41 L 443.33 694.13 L 444.81 669.39 L 446.28 683.88 L 447.75 691.23 L 449.22 685.29 L 450.69 691.40 L 452.17 693.29 L 453.64 698.47 L 455.11 697.95 L 456.58 698.77 L 458.06 698.25 L 459.53 698.57 L 461.00 698.30 L 462.47 698.60 L 463.94 698.59 L 465.42 698.43 L 466.89 698.47 L 468.36 698.49 L 469.83 698.50 L 471.31 698.69 L 472.78 698.55 L 474.25 698.34 L 475.72 698.55 L 477.19 698.68 L 478.67 698.47 L 480.14 698.51 L 481.61 698.32 L 483.08 698.78 L 484.56 698.38 L 486.03 698.28 L 487.50 697.22 L 488.97 697.49 L 490.44 697.93 L 491.92 698.26 L 493.39 698.23 L 494.86 698.99 L 496.33 698.34 L 497.81 698.36 L 499.28 698.60 L 500.75 698.43 L 502.22 698.68 L 503.69 698.49 L 505.17 698.52 L 506.64 698.52 L 508.11 698.58 L 509.58 698.49 L 511.06 698.49 L 512.53 698.40 L 514.00 698.45 L 515.47 698.47 L 516.94 698.61 L 518.42 698.76 L 519.89 698.41 L 521.36 698.42 L 522.83 698.45 L 524.31 698.45 L 525.78 698.54 L 527.25 697.48 L 528.72 697.25 L 530.19 696.71 L 531.67 697.78 L 533.14 697.78 L 534.61 698.70 L 536.08 698.83 L 537.56 698.88 L 539.03 698.16 L 540.50 698.06 L 541.97 698.41 L 543.44 698.82 L 544.92 698.71 L 546.39 698.59 L 547.86 698.42 L 549.33 698.44 L 550.81 698.51 L 552.28 698.76 L 553.75 698.54 L 555.22 698.55 L 556.69 698.32 L 558.17 698.52 L 559.64 698.58 L 561.11 698.51 L 562.58 698.55 L 564.06 698.55 L 565.53 698.33 L 567.00 698.67 L 568.47 698.71 L 569.94 697.08 L 571.42 695.59 L 572.89 698.05 L 574.36 697.79 L 575.83 697.72 L 577.31 698.11 L 578.78 698.32 L 580.25 698.12 L 581.72 697.52 L 583.19 696.68 L 584.67 697.46 L 586.14 697.87 L 587.61 698.67 L 589.08 698.47 L 590.56 698.59 L 592.03 698.62 L 593.50 698.42 L 594.97 698.34 L 596.44 698.51 L 597.92 698.40 L 599.39 698.35 L 600.86 698.71 L 602.33 698.35 L 603.81 698.38 L 605.28 698.54 L 606.75 698.67 L 608.22 698.55 L 609.69 698.44 L 611.17 698.34 L 612.64 697.98 L 614.11 698.20 L 615.58 697.35 L 617.06 698.58 L 618.53 698.25 L 620.00 698.35 L 621.47 698.47 L 622.94 698.62 L 624.42 698.51 L 625.89 698.41 L 627.36 698.53 L 628.83 698.54 L 630.31 698.44 L 631.78 698.56 L 633.25 698.52 L 634.72 698.42 L 636.19 698.49 L 637.67 698.53 L 639.14 698.66 L 640.61 698.46 L 642.08 698.43 L 643.56 698.59 L 645.03 698.59 L 646.50 698.54 L 647.97 698.47 L 649.44 698.41 L 650.92 698.47 L 652.39 698.56 L 653.86 698.71 L 655.33 695.90 L 656.81 695.97 L 658.28 698.19 L 659.75 699.02 L 661.22 698.12 L 662.69 698.00 L 664.17 698.58 L 665.64 698.39 L 667.11 668.75 L 668.58 685.71 L 670.06 684.86 L 671.53 673.22 L 673.00 696.04 L 674.47 683.81 L 675.94 690.14 L 677.42 690.83 L 678.89 662.41 L 680.36 679.95 L 681.83 688.43 L 683.31 681.26 L 684.78 685.16 L 686.25 664.44 L 687.72 690.37 L 689.19 689.45 L 690.67 679.88 L 692.14 679.88 L 693.61 685.54 L 695.08 689.64 L 696.56 667.75 L 698.03 665.69 L 699.50 667.68 L 700.97 696.96 L 702.44 658.47 L 703.92 670.74 L 705.39 683.47 L 706.86 677.63 L 708.33 663.74 L 709.81 661.39 L 711.28 666.26 L 712.75 675.30 L 714.22 679.99 L 715.69 679.61 L 717.17 680.95 L 718.64 682.14 L 720.11 687.02 L 721.58 685.42 L 723.06 688.98 L 724.53 677.94 L 726.00 690.17 L 727.47 678.48 L 728.94 655.53 L 730.42 675.88 L 731.89 649.66 L 733.36 631.79 L 734.83 652.81 L 736.31 680.41 L 737.78 669.42 L 739.25 642.69 L 740.72 662.75 L 742.19 663.80 L 743.67 662.43 L 745.14 688.93 L 746.61 680.98 L 748.08 657.52 L 749.56 683.75 L 751.03 686.96 L 752.50 670.89 L 753.97 659.43 L 755.44 673.43 L 756.92 672.77 L 758.39 681.25 L 759.86 665.81 L 761.33 620.46 L 762.81 671.68 L 764.28 624.62 L 765.75 651.74 L 767.22 689.89 L 768.69 672.52 L 770.17 664.10 L 771.64 684.78 L 773.11 688.73 L 774.58 683.97 L 776.06 677.99 L 777.53 683.93 L 779.00 676.71 L 780.47 658.14 L 781.94 690.24 L 783.42 661.51 L 784.89 680.62 L 786.36 644.38 L 787.83 680.58 L 789.31 683.74 L 790.78 599.30 L 792.25 649.08 L 793.72 642.52 L 795.19 648.62 L 796.67 634.30 L 798.14 667.76 L 799.61 662.14 L 801.08 683.03 L 802.56 666.88 L 804.03 675.48 L 805.50 672.41 L 806.97 673.33 L 808.44 673.96 L 809.92 680.27 L 811.39 693.71 L 812.86 681.90 L 814.33 660.81 L 815.81 676.67 L 817.28 681.05 L 818.75 671.27 L 820.22 688.46 L 821.69 684.27 L 823.17 689.87 L 824.64 691.66 L 826.11 690.08 L 827.58 668.08 L 829.06 680.46 L 830.53 673.61 L 832.00 674.19 L 833.47 663.08 L 834.94 676.52 L 836.42 680.27 L 837.89 670.58 L 839.36 673.34 L 840.83 673.38 L 842.31 687.41 L 843.78 685.01 L 845.25 662.93 L 846.72 687.44 L 848.19 692.90 L 849.67 690.54 L 851.14 675.62 L 852.61 684.15 L 854.08 658.75 L 855.56 666.78 L 857.03 666.78 L 858.50 674.10 L 859.97 680.87 L 861.44 681.39 L 862.92 686.47 L 864.39 687.75 L 865.86 694.42 L 867.33 692.99 L 868.81 688.10 L 870.28 694.55 L 871.75 689.91 L 873.22 689.65 L 874.69 689.12 L 876.17 692.37 L 877.64 687.80 L 879.11 688.95 L 880.58 690.74 L 882.06 693.02 L 883.53 690.53 L 885.00 693.74 L 886.47 695.11 L 887.94 692.99 L 889.42 694.71 L 890.89 695.36 L 892.36 689.69 L 893.83 674.21 L 895.31 678.00 L 896.78 683.10 L 898.25 684.83 L 899.72 685.81 L 901.19 689.42 L 902.67 689.43 L 904.14 694.99 L 905.61 695.37 L 907.08 690.11 L 908.56 696.29 L 910.03 691.25 L 911.50 694.65 L 912.97 693.41 L 914.44 694.55 L 915.92 689.58 L 917.39 688.68 L 918.86 689.20 L 920.33 693.92 L 921.81 697.00 L 923.28 688.16 L 924.75 693.92 L 926.22 694.80 L 927.69 695.12 L 929.17 692.44 L 930.64 694.62 L 932.11 684.45 L 933.58 693.60 L 935.06 685.31 L 936.53 678.69 L 938.00 679.73" stroke="#FB8C00" />
<text x="90" y="711.25" font-size="14" font-weight="700">Giroscópio (magnitude) (u.a.)</text>
<rect class="event" x="443.33" y="717.25" width="229.67" height="192.75" />
<line class="eventline" x1="443.33" y1="717.25" x2="443.33" y2="910.00" />
<line class="eventline" x1="673.00" y1="717.25" x2="673.00" y2="910.00" />
<line class="grid" x1="90" y1="910.00" x2="1150" y2="910.00" />
<text class="small" x="80" y="914.00" text-anchor="end">0.00</text>
<line class="grid" x1="90" y1="871.45" x2="1150" y2="871.45" />
<text class="small" x="80" y="875.45" text-anchor="end">0.10</text>
<line class="grid" x1="90" y1="832.90" x2="1150" y2="832.90" />
<text class="small" x="80" y="836.90" text-anchor="end">0.20</text>
<line class="grid" x1="90" y1="794.35" x2="1150" y2="794.35" />
<text class="small" x="80" y="798.35" text-anchor="end">0.30</text>
<line class="grid" x1="90" y1="755.80" x2="1150" y2="755.80" />
<text class="small" x="80" y="759.80" text-anchor="end">0.40</text>
<line class="grid" x1="90" y1="717.25" x2="1150" y2="717.25" />
<text class="small" x="80" y="721.25" text-anchor="end">0.50</text>
<line class="grid" x1="90.00" y1="717.25" x2="90.00" y2="910.00" />
<line class="grid" x1="266.67" y1="717.25" x2="266.67" y2="910.00" />
<line class="grid" x1="443.33" y1="717.25" x2="443.33" y2="910.00" />
<line class="grid" x1="620.00" y1="717.25" x2="620.00" y2="910.00" />
<line class="grid" x1="796.67" y1="717.25" x2="796.67" y2="910.00" />
<line class="grid" x1="973.33" y1="717.25" x2="973.33" y2="910.00" />
<line class="grid" x1="1150.00" y1="717.25" x2="1150.00" y2="910.00" />
<line class="axis" x1="90" y1="717.25" x2="90" y2="910.00" />
<line class="axis" x1="90" y1="910.00" x2="1150" y2="910.00" />
<path class="series" d="M 178.33 907.93 L 179.81 906.30 L 181.28 903.67 L 182.75 904.68 L 184.22 900.58 L 185.69 903.79 L 187.17 903.33 L 188.64 908.24 L 190.11 906.53 L 191.58 907.68 L 193.06 905.89 L 194.53 904.65 L 196.00 906.71 L 197.47 908.10 L 198.94 905.92 L 200.42 905.92 L 201.89 906.68 L 203.36 905.90 L 204.83 906.88 L 206.31 904.47 L 207.78 902.13 L 209.25 904.33 L 210.72 907.65 L 212.19 906.72 L 213.67 908.26 L 215.14 907.50 L 216.61 902.90 L 218.08 901.19 L 219.56 899.47 L 221.03 895.87 L 222.50 894.01 L 223.97 890.53 L 225.44 885.63 L 226.92 887.84 L 228.39 884.95 L 229.86 884.56 L 231.33 872.59 L 232.81 876.44 L 234.28 884.88 L 235.75 891.98 L 237.22 896.85 L 238.69 898.03 L 240.17 898.78 L 241.64 898.38 L 243.11 902.20 L 244.58 901.66 L 246.06 901.32 L 247.53 893.81 L 249.00 894.52 L 250.47 895.81 L 251.94 894.38 L 253.42 895.24 L 254.89 881.29 L 256.36 871.67 L 257.83 866.93 L 259.31 867.27 L 260.78 869.20 L 262.25 889.61 L 263.72 902.85 L 265.19 893.59 L 266.67 900.35 L 268.14 906.55 L 269.61 907.78 L 271.08 906.23 L 272.56 902.59 L 274.03 901.13 L 275.50 899.10 L 276.97 897.37 L 278.44 896.03 L 279.92 889.15 L 281.39 886.98 L 282.86 897.32 L 284.33 900.08 L 285.81 903.40 L 287.28 906.66 L 288.75 904.89 L 290.22 898.86 L 291.69 891.51 L 293.17 892.69 L 294.64 891.44 L 296.11 896.04 L 297.58 889.94 L 299.06 897.56 L 300.53 895.17 L 302.00 895.61 L 303.47 880.49 L 304.94 885.85 L 306.42 888.33 L 307.89 880.83 L 309.36 878.50 L 310.83 882.64 L 312.31 874.45 L 313.78 871.12 L 315.25 879.98 L 316.72 889.80 L 318.19 884.38 L 319.67 866.20 L 321.14 882.40 L 322.61 884.84 L 324.08 892.38 L 325.56 889.60 L 327.03 886.37 L 328.50 878.28 L 329.97 886.00 L 331.44 900.55 L 332.92 883.75 L 334.39 907.28 L 335.86 897.93 L 337.33 892.19 L 338.81 895.83 L 340.28 888.81 L 341.75 899.64 L 343.22 888.25 L 344.69 896.44 L 346.17 896.35 L 347.64 896.59 L 349.11 900.20 L 350.58 894.83 L 352.06 893.11 L 353.53 904.19 L 355.00 904.06 L 356.47 894.59 L 357.94 907.87 L 359.42 898.81 L 360.89 899.09 L 362.36 901.58 L 363.83 898.31 L 365.31 896.67 L 366.78 896.67 L 368.25 890.31 L 369.72 891.31 L 371.19 897.74 L 372.67 901.96 L 374.14 897.05 L 375.61 890.74 L 377.08 893.22 L 378.56 901.78 L 380.03 899.58 L 381.50 899.96 L 382.97 888.87 L 384.44 889.73 L 385.92 899.08 L 387.39 890.67 L 388.86 903.11 L 390.33 891.88 L 391.81 901.71 L 393.28 893.39 L 394.75 892.29 L 396.22 861.79 L 397.69 838.65 L 399.17 836.21 L 400.64 829.13 L 402.11 819.06 L 403.58 816.50 L 405.06 825.32 L 406.53 836.23 L 408.00 893.13 L 409.47 909.91 L 410.94 908.39 L 412.42 900.21 L 413.89 904.45 L 415.36 907.90 L 416.83 896.30 L 418.31 886.27 L 419.78 896.63 L 421.25 897.41 L 422.72 892.75 L 424.19 896.04 L 425.67 884.54 L 427.14 882.55 L 428.61 869.29 L 430.08 888.41 L 431.56 876.17 L 433.03 872.17 L 434.50 888.80 L 435.97 883.71 L 437.44 893.77 L 438.92 901.47 L 440.39 903.12 L 441.86 902.27 L 443.33 907.35 L 444.81 908.39 L 446.28 909.22 L 447.75 908.27 L 449.22 907.91 L 450.69 909.16 L 452.17 908.88 L 453.64 909.07 L 455.11 909.06 L 456.58 909.10 L 458.06 909.07 L 459.53 909.02 L 461.00 909.13 L 462.47 909.03 L 463.94 909.03 L 465.42 909.10 L 466.89 909.09 L 468.36 909.11 L 469.83 909.04 L 471.31 909.12 L 472.78 909.10 L 474.25 909.06 L 475.72 909.14 L 477.19 909.09 L 478.67 909.05 L 480.14 909.07 L 481.61 909.11 L 483.08 909.11 L 484.56 909.07 L 486.03 908.96 L 487.50 908.86 L 488.97 907.93 L 490.44 909.10 L 491.92 909.13 L 493.39 909.09 L 494.86 909.07 L 496.33 909.17 L 497.81 909.20 L 499.28 909.16 L 500.75 909.17 L 502.22 909.19 L 503.69 909.22 L 505.17 909.14 L 506.64 909.11 L 508.11 909.15 L 509.58 909.14 L 511.06 909.14 L 512.53 909.16 L 514.00 909.16 L 515.47 909.10 L 516.94 909.10 L 518.42 909.12 L 519.89 909.16 L 521.36 909.13 L 522.83 909.12 L 524.31 909.10 L 525.78 909.21 L 527.25 908.95 L 528.72 908.76 L 530.19 908.57 L 531.67 909.03 L 533.14 909.03 L 534.61 909.02 L 536.08 909.08 L 537.56 909.15 L 539.03 909.17 L 540.50 909.16 L 541.97 909.13 L 543.44 909.17 L 544.92 909.12 L 546.39 909.17 L 547.86 909.18 L 549.33 909.16 L 550.81 909.14 L 552.28 909.15 L 553.75 909.18 L 555.22 909.13 L 556.69 909.06 L 558.17 909.02 L 559.64 909.00 L 561.11 909.04 L 562.58 908.96 L 564.06 909.07 L 565.53 908.94 L 567.00 909.00 L 568.47 909.06 L 569.94 908.84 L 571.42 908.99 L 572.89 908.47 L 574.36 909.12 L 575.83 909.02 L 577.31 908.99 L 578.78 909.02 L 580.25 908.99 L 581.72 908.71 L 583.19 908.96 L 584.67 908.98 L 586.14 908.96 L 587.61 908.99 L 589.08 909.02 L 590.56 909.00 L 592.03 909.07 L 593.50 909.03 L 594.97 909.02 L 596.44 909.00 L 597.92 908.99 L 599.39 909.01 L 600.86 909.04 L 602.33 909.00 L 603.81 908.99 L 605.28 909.04 L 606.75 908.97 L 608.22 909.02 L 609.69 908.98 L 611.17 908.96 L 612.64 908.89 L 614.11 908.75 L 615.58 909.01 L 617.06 909.03 L 618.53 909.01 L 620.00 908.98 L 621.47 909.02 L 622.94 909.02 L 624.42 908.98 L 625.89 908.99 L 627.36 909.01 L 628.83 909.06 L 630.31 909.01 L 631.78 909.04 L 633.25 909.01 L 634.72 909.06 L 636.19 909.01 L 637.67 909.01 L 639.14 909.01 L 640.61 908.99 L 642.08 909.06 L 643.56 909.11 L 645.03 909.02 L 646.50 908.97 L 647.97 909.00 L 649.44 909.03 L 650.92 909.00 L 652.39 909.05 L 653.86 909.06 L 655.33 908.90 L 656.81 908.94 L 658.28 909.26 L 659.75 908.94 L 661.22 909.09 L 662.69 908.95 L 664.17 909.08 L 665.64 908.99 L 667.11 904.64 L 668.58 900.66 L 670.06 899.94 L 671.53 896.93 L 673.00 897.85 L 674.47 886.48 L 675.94 885.17 L 677.42 893.47 L 678.89 883.51 L 680.36 884.80 L 681.83 895.68 L 683.31 887.00 L 684.78 883.90 L 686.25 883.67 L 687.72 890.47 L 689.19 892.53 L 690.67 888.34 L 692.14 888.34 L 693.61 885.03 L 695.08 890.22 L 696.56 887.38 L 698.03 882.01 L 699.50 891.81 L 700.97 889.96 L 702.44 886.89 L 703.92 898.61 L 705.39 897.82 L 706.86 894.59 L 708.33 894.67 L 709.81 898.56 L 711.28 905.46 L 712.75 894.64 L 714.22 891.51 L 715.69 897.01 L 717.17 901.36 L 718.64 902.31 L 720.11 893.75 L 721.58 897.21 L 723.06 891.90 L 724.53 900.84 L 726.00 901.24 L 727.47 892.20 L 728.94 897.50 L 730.42 891.05 L 731.89 890.89 L 733.36 895.05 L 734.83 900.86 L 736.31 900.74 L 737.78 891.91 L 739.25 900.51 L 740.72 899.11 L 742.19 902.08 L 743.67 895.90 L 745.14 897.72 L 746.61 893.85 L 748.08 895.25 L 749.56 886.29 L 751.03 888.56 L 752.50 897.82 L 753.97 902.45 L 755.44 901.08 L 756.92 906.77 L 758.39 904.84 L 759.86 891.34 L 761.33 895.76 L 762.81 900.73 L 764.28 899.41 L 765.75 901.26 L 767.22 901.87 L 768.69 898.79 L 770.17 899.35 L 771.64 900.18 L 773.11 896.78 L 774.58 898.23 L 776.06 905.29 L 777.53 888.53 L 779.00 902.54 L 780.47 905.88 L 781.94 894.49 L 783.42 900.70 L 784.89 900.92 L 786.36 901.57 L 787.83 894.63 L 789.31 890.54 L 790.78 899.29 L 792.25 904.95 L 793.72 900.86 L 795.19 897.13 L 796.67 903.44 L 798.14 899.86 L 799.61 895.63 L 801.08 896.02 L 802.56 901.06 L 804.03 892.87 L 805.50 903.74 L 806.97 895.22 L 808.44 901.95 L 809.92 889.75 L 811.39 881.76 L 812.86 892.01 L 814.33 896.37 L 815.81 901.74 L 817.28 901.92 L 818.75 903.02 L 820.22 902.39 L 821.69 902.55 L 823.17 898.04 L 824.64 899.73 L 826.11 900.50 L 827.58 898.80 L 829.06 901.47 L 830.53 900.53 L 832.00 901.07 L 833.47 894.94 L 834.94 890.47 L 836.42 887.70 L 837.89 885.87 L 839.36 886.23 L 840.83 892.57 L 842.31 893.58 L 843.78 891.92 L 845.25 892.43 L 846.72 884.46 L 848.19 887.04 L 849.67 886.12 L 851.14 880.30 L 852.61 891.65 L 854.08 891.33 L 855.56 896.84 L 857.03 896.84 L 858.50 901.83 L 859.97 906.47 L 861.44 906.84 L 862.92 906.16 L 864.39 905.91 L 865.86 903.54 L 867.33 902.80 L 868.81 904.54 L 870.28 903.94 L 871.75 904.91 L 873.22 903.99 L 874.69 906.00 L 876.17 906.02 L 877.64 906.66 L 879.11 905.99 L 880.58 905.66 L 882.06 905.68 L 883.53 907.42 L 885.00 906.44 L 886.47 907.42 L 887.94 904.77 L 889.42 902.27 L 890.89 902.46 L 892.36 903.60 L 893.83 898.82 L 895.31 901.80 L 896.78 899.89 L 898.25 896.41 L 899.72 900.97 L 901.19 900.07 L 902.67 899.05 L 904.14 898.34 L 905.61 898.96 L 907.08 896.63 L 908.56 893.99 L 910.03 891.49 L 911.50 892.07 L 912.97 892.19 L 914.44 894.73 L 915.92 898.38 L 917.39 904.67 L 918.86 908.37 L 920.33 906.81 L 921.81 908.16 L 923.28 904.14 L 924.75 902.97 L 926.22 903.57 L 927.69 903.71 L 929.17 902.52 L 930.64 900.92 L 932.11 900.63 L 933.58 902.06 L 935.06 905.93 L 936.53 905.67 L 938.00 901.07" stroke="#E53935" />
<text x="620.00" y="952" font-size="15" text-anchor="middle">minutos (relativo ao início do evento)</text>
<text class="small" x="90.00" y="936" text-anchor="middle">-4.00</text>
<text class="small" x="266.67" y="936" text-anchor="middle">-2.00</text>
<text class="small" x="443.33" y="936" text-anchor="middle">0.00</text>
<text class="small" x="620.00" y="936" text-anchor="middle">2.00</text>
<text class="small" x="796.67" y="936" text-anchor="middle">4.00</text>
<text class="small" x="973.33" y="936" text-anchor="middle">6.00</text>
<text class="small" x="1150.00" y="936" text-anchor="middle">8.00</text>
</svg>