<?xml version="1.0" encoding="UTF-8"?>
<svg xmlns="http://www.w3.org/2000/svg" width="1180" height="980" viewBox="0 0 1180 980">
<style>
text { font-family: -apple-system, BlinkMacSystemFont, 'Segoe UI', Roboto, Helvetica, Arial, sans-serif; fill: #111; }
.small { font-size: 12px; fill: #222; }
.title { font-size: 18px; font-weight: 700; }
.axis { stroke: #111; stroke-width: 1.4; }
.grid { stroke: #E6E6E6; stroke-width: 1; }
.event { fill: #FFEB3B; fill-opacity: 0.18; }
.eventline { stroke: #F9A825; stroke-width: 1.2; stroke-dasharray: 4 3; }
.series { fill: none; stroke-width: 1.8; }
</style>
<text class="title" x="90" y="34">ciclo 5 — espera_basculamento — 2025-12-12T18:15:57-03:00 → 2025-12-12T18:17:00-03:00 (span 63s, dur 64s)</text>
<text class="small" x="90" y="54">GPS: -11.692675,-47.164978  hotspot: -11.693,-47.165</text>
<text class="small" x="90" y="70">Janela: -3.00 → 4.05 min (relativo ao início do evento)</text>
<text x="90" y="79.00" font-size="14" font-weight="700">Velocidade (km/h)</text>
<rect class="event" x="443.33" y="85.00" width="92.75" height="192.75" />
<line class="eventline" x1="443.33" y1="85.00" x2="443.33" y2="277.75" />
<line class="eventline" x1="536.08" y1="85.00" x2="536.08" y2="277.75" />
<line class="grid" x1="90" y1="277.75" x2="1150" y2="277.75" />
<text class="small" x="80" y="281.75" text-anchor="end">0.00</text>
<line class="grid" x1="90" y1="239.20" x2="1150" y2="239.20" />
<text class="small" x="80" y="243.20" text-anchor="end">10.0</text>
<line class="grid" x1="90" y1="200.65" x2="1150" y2="200.65" />
<text class="small" x="80" y="204.65" text-anchor="end">20.0</text>
<line class="grid" x1="90" y1="162.10" x2="1150" y2="162.10" />
<text class="small" x="80" y="166.10" text-anchor="end">30.0</text>
<line class="grid" x1="90" y1="123.55" x2="1150" y2="123.55" />
<text class="small" x="80" y="127.55" text-anchor="end">40.0</text>
<line class="grid" x1="90" y1="85.00" x2="1150" y2="85.00" />
<text class="small" x="80" y="89.00" text-anchor="end">50.0</text>
<line class="grid" x1="90.00" y1="85.00" x2="90.00" y2="277.75" />
<line class="grid" x1="266.67" y1="85.00" x2="266.67" y2="277.75" />
<line class="grid" x1="443.33" y1="85.00" x2="443.33" y2="277.75" />
<line class="grid" x1="620.00" y1="85.00" x2="620.00" y2="277.75" />
<line class="grid" x1="796.67" y1="85.00" x2="796.67" y2="277.75" />
<line class="grid" x1="973.33" y1="85.00" x2="973.33" y2="277.75" />
<line class="grid" x1="1150.00" y1="85.00" x2="1150.00" y2="277.75" />
<line class="axis" x1="90" y1="85.00" x2="90" y2="277.75" />
<line class="axis" x1="90" y1="277.75" x2="1150" y2="277.75" />
<path class="series" d="M 178.33 244.86 L 179.81 242.78 L 181.28 243.19 L 182.75 244.86 L 184.22 244.58 L 185.69 245.97 L 187.17 247.36 L 188.64 251.94 L 190.11 248.88 L 191.58 246.52 L 193.06 247.08 L 194.53 244.58 L 196.00 244.72 L 197.47 244.03 L 198.94 244.03 L 200.42 244.44 L 201.89 242.22 L 203.36 242.36 L 204.83 241.94 L 206.31 239.03 L 207.78 237.92 L 209.25 236.12 L 210.72 236.81 L 212.19 239.17 L 213.67 236.12 L 215.14 236.53 L 216.61 240.28 L 218.08 240.70 L 219.56 242.36 L 221.03 246.66 L 222.50 250.69 L 223.97 250.41 L 225.44 247.22 L 226.92 248.74 L 228.39 245.14 L 229.86 245.83 L 231.33 245.28 L 232.81 243.19 L 234.28 243.33 L 235.75 244.44 L 237.22 243.47 L 238.69 242.92 L 240.17 244.44 L 241.64 242.08 L 243.11 244.30 L 244.58 243.06 L 246.06 243.61 L 247.53 245.41 L 249.00 248.19 L 250.47 247.08 L 251.94 250.55 L 253.42 249.58 L 254.89 246.94 L 256.36 249.86 L 257.83 248.19 L 259.31 242.50 L 260.78 245.41 L 262.25 244.30 L 263.72 244.86 L 265.19 240.70 L 266.67 240.97 L 268.14 238.89 L 269.61 235.70 L 271.08 232.79 L 272.56 226.54 L 274.03 225.01 L 275.50 229.18 L 276.97 232.51 L 278.44 233.20 L 279.92 234.59 L 281.39 234.31 L 282.86 231.40 L 284.33 223.21 L 285.81 228.62 L 287.28 229.32 L 288.75 226.82 L 290.22 225.01 L 291.69 220.85 L 293.17 220.16 L 294.64 216.27 L 296.11 218.77 L 297.58 215.02 L 299.06 216.27 L 300.53 219.46 L 302.00 216.69 L 303.47 214.88 L 304.94 211.83 L 306.42 211.27 L 307.89 215.02 L 309.36 220.99 L 310.83 224.74 L 312.31 223.07 L 313.78 230.29 L 315.25 237.23 L 316.72 237.64 L 318.19 237.37 L 319.67 233.90 L 321.14 235.42 L 322.61 233.76 L 324.08 232.23 L 325.56 229.18 L 327.03 230.98 L 328.50 229.04 L 329.97 228.62 L 331.44 226.82 L 332.92 228.62 L 334.39 228.90 L 335.86 220.16 L 337.33 221.96 L 338.81 223.21 L 340.28 223.35 L 341.75 223.63 L 343.22 221.96 L 344.69 221.96 L 346.17 221.27 L 347.64 224.87 L 349.11 229.32 L 350.58 230.84 L 352.06 234.59 L 353.53 237.92 L 355.00 241.39 L 356.47 239.45 L 357.94 242.22 L 359.42 245.55 L 360.89 244.30 L 362.36 235.56 L 363.83 235.42 L 365.31 235.28 L 366.78 242.22 L 368.25 243.89 L 369.72 241.25 L 371.19 235.42 L 372.67 239.03 L 374.14 239.45 L 375.61 239.03 L 377.08 237.64 L 378.56 237.50 L 380.03 240.56 L 381.50 238.75 L 382.97 241.53 L 384.44 239.59 L 385.92 239.31 L 387.39 240.42 L 388.86 241.25 L 390.33 243.75 L 391.81 240.83 L 393.28 241.53 L 394.75 246.39 L 396.22 251.80 L 397.69 253.19 L 399.17 265.68 L 400.64 267.62 L 402.11 275.25 L 403.58 277.75 L 405.06 277.75 L 406.53 272.48 L 408.00 270.26 L 409.47 266.23 L 410.94 263.32 L 412.42 253.60 L 413.89 260.26 L 415.36 258.74 L 416.83 260.26 L 418.31 260.82 L 419.78 260.96 L 421.25 264.57 L 422.72 266.37 L 424.19 269.42 L 425.67 270.67 L 427.14 269.42 L 428.61 268.17 L 430.08 266.37 L 431.56 267.06 L 433.03 264.15 L 434.50 268.31 L 435.97 266.09 L 437.44 268.45 L 438.92 265.95 L 440.39 266.93 L 441.86 271.23 L 443.33 277.75 L 444.81 277.75 L 446.28 277.75 L 447.75 277.75 L 449.22 277.75 L 450.69 277.75 L 452.17 277.75 L 453.64 277.75 L 455.11 277.75 L 456.58 277.75 L 458.06 277.75 L 459.53 277.75 L 461.00 277.75 L 462.47 277.75 L 463.94 277.75 L 465.42 277.75 L 466.89 277.75 L 468.36 277.75 L 469.83 277.75 L 471.31 277.75 L 472.78 277.75 L 474.25 277.75 L 475.72 277.75 L 477.19 277.75 L 478.67 277.75 L 480.14 277.75 L 481.61 277.75 L 483.08 277.75 L 484.56 277.75 L 486.03 277.75 L 487.50 277.75 L 488.97 277.75 L 490.44 277.75 L 491.92 277.75 L 493.39 277.75 L 494.86 277.75 L 496.33 277.75 L 497.81 277.75 L 499.28 277.75 L 500.75 277.75 L 502.22 277.75 L 503.69 277.75 L 505.17 277.75 L 506.64 277.75 L 508.11 277.75 L 509.58 277.75 L 511.06 277.75 L 512.53 277.75 L 514.00 277.75 L 515.47 277.75 L 516.94 277.75 L 518.42 277.75 L 519.89 277.75 L 521.36 277.75 L 522.83 277.75 L 524.31 277.75 L 525.78 277.75 L 527.25 277.75 L 528.72 277.75 L 530.19 277.75 L 531.67 277.75 L 533.14 277.75 L 534.61 277.75 L 536.08 277.75 L 537.56 269.15 L 539.03 270.26 L 540.50 267.20 L 541.97 271.78 L 543.44 272.75 L 544.92 268.17 L 546.39 268.45 L 547.86 265.81 L 549.33 273.86 L 550.81 277.75 L 552.28 277.75 L 553.75 277.75 L 555.22 277.75 L 556.69 277.75 L 558.17 277.75 L 559.64 268.59 L 561.11 269.84 L 562.58 266.65 L 564.06 264.57 L 565.53 264.57 L 567.00 264.43 L 568.47 277.75 L 569.94 277.75 L 571.42 277.75 L 572.89 261.24 L 574.36 258.60 L 575.83 257.63 L 577.31 250.27 L 578.78 249.72 L 580.25 248.74 L 581.72 249.30 L 583.19 236.12 L 584.67 235.56 L 586.14 226.96 L 587.61 225.71 L 589.08 222.52 L 590.56 223.07 L 592.03 216.96 L 593.50 217.66 L 594.97 216.69 L 596.44 211.41 L 597.92 202.81 L 599.39 207.94 L 600.86 206.42 L 602.33 194.90 L 603.81 191.85 L 605.28 193.23 L 606.75 196.98 L 608.22 199.20 L 609.69 198.51 L 611.17 202.95 L 612.64 196.70 L 614.11 200.31 L 615.58 201.70 L 617.06 195.87 L 618.53 191.15 L 620.00 190.60 L 621.47 187.13 L 622.94 183.93 L 624.42 183.93 L 625.89 184.49 L 627.36 183.52 L 628.83 183.38 L 630.31 180.05 L 631.78 184.07 L 633.25 181.58 L 634.72 180.47 L 636.19 171.44 L 637.67 175.61 L 639.14 176.44 L 640.61 180.19 L 642.08 181.58 L 643.56 196.01 L 645.03 213.91 L 646.50 224.87 L 647.97 230.84 L 649.44 238.89 L 650.92 240.56 L 652.39 236.39 L 653.86 239.31 L 655.33 243.06 L 656.81 244.17 L 658.28 245.97 L 659.75 242.50 L 661.22 240.97 L 662.69 240.83 L 664.17 240.83 L 665.64 241.39 L 667.11 239.86 L 668.58 239.45 L 670.06 239.03 L 671.53 238.89 L 673.00 236.25 L 674.47 233.76 L 675.94 240.56 L 677.42 247.63 L 678.89 254.30 L 680.36 246.94 L 681.83 235.98 L 683.31 238.48 L 684.78 241.53 L 686.25 235.42 L 687.72 229.04 L 689.19 232.92 L 690.67 231.68 L 692.14 229.73 L 693.61 228.21 L 695.08 227.37 L 696.56 225.57 L 698.03 228.21 L 699.50 228.34 L 700.97 228.90 L 702.44 229.04 L 703.92 225.15 L 705.39 224.87 L 706.86 228.34 L 708.33 226.68 L 709.81 226.26 L 711.28 229.73 L 712.75 227.93 L 714.22 229.04 L 715.69 229.04 L 717.17 229.04 L 718.64 226.54 L 720.11 222.65 L 721.58 219.60 L 723.06 221.68 L 724.53 219.05 L 726.00 218.77 L 727.47 222.38 L 728.94 226.54 L 730.42 228.34 L 731.89 226.54 L 733.36 224.32 L 734.83 223.49 L 736.31 221.27 L 737.78 221.27 L 739.25 224.87 L 740.72 221.96 L 742.19 220.99 L 743.67 221.96 L 745.14 221.96 L 746.61 221.41 L 748.08 220.85 L 749.56 218.91 L 751.03 215.72 L 752.50 214.05 L 753.97 212.25 L 755.44 205.72 L 756.92 197.40 L 758.39 192.82 L 759.86 193.09 L 761.33 195.04 L 762.81 192.12 L 764.28 194.76 L 765.75 189.62 L 767.22 186.71 L 768.69 185.60 L 770.17 188.24 L 771.64 189.49 L 773.11 190.73 L 774.58 191.01 L 776.06 191.98 L 777.53 199.34 L 779.00 207.94 L 780.47 210.58 L 781.94 206.42 L 783.42 198.51 L 784.89 189.21 L 786.36 183.38 L 787.83 186.85 L 789.31 179.63 L 790.78 179.77 L 792.25 176.16 L 793.72 179.22 L 795.19 179.08 L 796.67 182.13 L 798.14 179.08 L 799.61 179.91 L 801.08 183.38" stroke="#1976D2" />
<text x="90" y="289.75" font-size="14" font-weight="700">Inclinação (graus)</text>
<rect class="event" x="443.33" y="295.75" width="92.75" height="192.75" />
<line class="eventline" x1="443.33" y1="295.75" x2="443.33" y2="488.50" />
<line class="eventline" x1="536.08" y1="295.75" x2="536.08" y2="488.50" />
<line class="grid" x1="90" y1="488.50" x2="1150" y2="488.50" />
<text class="small" x="80" y="492.50" text-anchor="end">-20.0</text>
<line class="grid" x1="90" y1="449.95" x2="1150" y2="449.95" />
<text class="small" x="80" y="453.95" text-anchor="end">-10.0</text>
<line class="grid" x1="90" y1="411.40" x2="1150" y2="411.40" />
<text class="small" x="80" y="415.40" text-anchor="end">0.00</text>
<line class="grid" x1="90" y1="372.85" x2="1150" y2="372.85" />
<text class="small" x="80" y="376.85" text-anchor="end">10.0</text>
<line class="grid" x1="90" y1="334.30" x2="1150" y2="334.30" />
<text class="small" x="80" y="338.30" text-anchor="end">20.0</text>
<line class="grid" x1="90" y1="295.75" x2="1150" y2="295.75" />
<text class="small" x="80" y="299.75" text-anchor="end">30.0</text>
<line class="grid" x1="90.00" y1="295.75" x2="90.00" y2="488.50" />
<line class="grid" x1="266.67" y1="295.75" x2="266.67" y2="488.50" />
<line class="grid" x1="443.33" y1="295.75" x2="443.33" y2="488.50" />
<line class="grid" x1="620.00" y1="295.75" x2="620.00" y2="488.50" />
<line class="grid" x1="796.67" y1="295.75" x2="796.67" y2="488.50" />
<line class="grid" x1="973.33" y1="295.75" x2="973.33" y2="488.50" />
<line class="grid" x1="1150.00" y1="295.75" x2="1150.00" y2="488.50" />
<line class="axis" x1="90" y1="295.75" x2="90" y2="488.50" />
<line class="axis" x1="90" y1="488.50" x2="1150" y2="488.50" />
<path class="series" d="M 178.33 392.28 L 179.81 386.09 L 181.28 387.21 L 182.75 389.76 L 184.22 388.74 L 185.69 389.02 L 187.17 389.81 L 188.64 393.63 L 190.11 395.17 L 191.58 393.80 L 193.06 392.71 L 194.53 391.40 L 196.00 391.30 L 197.47 390.57 L 198.94 390.87 L 200.42 389.33 L 201.89 388.65 L 203.36 387.70 L 204.83 382.23 L 206.31 390.02 L 207.78 388.82 L 209.25 389.29 L 210.72 388.51 L 212.19 388.43 L 213.67 388.35 L 215.14 389.04 L 216.61 390.91 L 218.08 392.45 L 219.56 393.95 L 221.03 385.46 L 222.50 400.49 L 223.97 397.18 L 225.44 395.36 L 226.92 394.66 L 228.39 392.42 L 229.86 391.46 L 231.33 391.24 L 232.81 389.94 L 234.28 390.20 L 235.75 389.58 L 237.22 388.00 L 238.69 387.52 L 240.17 387.08 L 241.64 388.42 L 243.11 389.45 L 244.58 391.98 L 246.06 389.96 L 247.53 391.02 L 249.00 391.83 L 250.47 385.84 L 251.94 395.87 L 253.42 394.30 L 254.89 393.37 L 256.36 394.61 L 257.83 397.56 L 259.31 389.38 L 260.78 382.78 L 262.25 386.72 L 263.72 393.87 L 265.19 388.59 L 266.67 387.77 L 268.14 386.45 L 269.61 384.70 L 271.08 383.21 L 272.56 375.59 L 274.03 359.78 L 275.50 358.12 L 276.97 360.03 L 278.44 360.05 L 279.92 360.61 L 281.39 371.66 L 282.86 370.07 L 284.33 372.79 L 285.81 368.38 L 287.28 368.99 L 288.75 375.52 L 290.22 376.82 L 291.69 374.31 L 293.17 373.40 L 294.64 372.96 L 296.11 375.79 L 297.58 378.95 L 299.06 370.06 L 300.53 375.00 L 302.00 369.18 L 303.47 375.03 L 304.94 373.65 L 306.42 378.63 L 307.89 375.15 L 309.36 376.61 L 310.83 380.98 L 312.31 381.10 L 313.78 380.92 L 315.25 382.13 L 316.72 382.68 L 318.19 388.02 L 319.67 385.01 L 321.14 384.57 L 322.61 385.60 L 324.08 384.34 L 325.56 383.30 L 327.03 385.54 L 328.50 383.62 L 329.97 378.80 L 331.44 370.81 L 332.92 372.91 L 334.39 377.04 L 335.86 372.41 L 337.33 363.60 L 338.81 364.23 L 340.28 362.27 L 341.75 361.44 L 343.22 358.86 L 344.69 358.66 L 346.17 357.58 L 347.64 363.89 L 349.11 363.64 L 350.58 368.17 L 352.06 368.73 L 353.53 368.73 L 355.00 370.87 L 356.47 371.97 L 357.94 368.90 L 359.42 373.69 L 360.89 377.35 L 362.36 377.68 L 363.83 363.17 L 365.31 369.94 L 366.78 366.18 L 368.25 373.49 L 369.72 378.08 L 371.19 371.21 L 372.67 357.11 L 374.14 364.96 L 375.61 365.97 L 377.08 363.30 L 378.56 363.45 L 380.03 368.87 L 381.50 362.19 L 382.97 358.29 L 384.44 365.25 L 385.92 356.34 L 387.39 355.39 L 388.86 353.74 L 390.33 358.17 L 391.81 355.76 L 393.28 346.19 L 394.75 346.14 L 396.22 348.04 L 397.69 344.56 L 399.17 354.29 L 400.64 348.08 L 402.11 353.59 L 403.58 363.57 L 405.06 354.44 L 406.53 357.57 L 408.00 356.27 L 409.47 354.68 L 410.94 354.86 L 412.42 361.42 L 413.89 364.58 L 415.36 368.79 L 416.83 365.77 L 418.31 370.74 L 419.78 370.55 L 421.25 382.94 L 422.72 375.84 L 424.19 377.21 L 425.67 370.25 L 427.14 373.96 L 428.61 370.23 L 430.08 372.89 L 431.56 370.75 L 433.03 373.24 L 434.50 374.18 L 435.97 368.60 L 437.44 371.09 L 438.92 376.19 L 440.39 383.45 L 441.86 374.04 L 443.33 375.58 L 444.81 376.41 L 446.28 378.13 L 447.75 377.42 L 449.22 373.42 L 450.69 369.28 L 452.17 377.71 L 453.64 372.00 L 455.11 372.87 L 456.58 372.51 L 458.06 375.35 L 459.53 369.14 L 461.00 376.91 L 462.47 370.23 L 463.94 373.66 L 465.42 373.54 L 466.89 373.45 L 468.36 373.87 L 469.83 373.72 L 471.31 373.70 L 472.78 373.21 L 474.25 373.21 L 475.72 373.29 L 477.19 373.33 L 478.67 373.40 L 480.14 373.47 L 481.61 373.23 L 483.08 373.18 L 484.56 373.15 L 486.03 373.06 L 487.50 373.07 L 488.97 372.96 L 490.44 372.99 L 491.92 373.11 L 493.39 372.11 L 494.86 373.99 L 496.33 373.20 L 497.81 373.47 L 499.28 373.39 L 500.75 373.31 L 502.22 373.29 L 503.69 373.30 L 505.17 373.43 L 506.64 373.55 L 508.11 373.10 L 509.58 374.54 L 511.06 373.81 L 512.53 373.95 L 514.00 374.00 L 515.47 374.18 L 516.94 374.17 L 518.42 373.71 L 519.89 374.79 L 521.36 373.63 L 522.83 373.91 L 524.31 374.19 L 525.78 374.29 L 527.25 374.48 L 528.72 374.19 L 530.19 378.65 L 531.67 379.82 L 533.14 376.34 L 534.61 385.45 L 536.08 391.53 L 537.56 382.24 L 539.03 388.93 L 540.50 376.01 L 541.97 375.84 L 543.44 386.38 L 544.92 375.26 L 546.39 387.12 L 547.86 368.82 L 549.33 374.17 L 550.81 380.97 L 552.28 381.70 L 553.75 381.01 L 555.22 381.17 L 556.69 382.33 L 558.17 389.73 L 559.64 382.83 L 561.11 384.67 L 562.58 384.18 L 564.06 384.93 L 565.53 383.58 L 567.00 384.60 L 568.47 379.40 L 569.94 377.06 L 571.42 374.25 L 572.89 381.51 L 574.36 371.67 L 575.83 378.68 L 577.31 370.14 L 578.78 372.08 L 580.25 370.00 L 581.72 381.04 L 583.19 379.52 L 584.67 384.12 L 586.14 374.50 L 587.61 369.82 L 589.08 365.65 L 590.56 363.24 L 592.03 367.76 L 593.50 367.39 L 594.97 375.37 L 596.44 376.82 L 597.92 365.85 L 599.39 366.48 L 600.86 365.05 L 602.33 371.39 L 603.81 368.34 L 605.28 363.59 L 606.75 374.74 L 608.22 374.62 L 609.69 363.79 L 611.17 375.23 L 612.64 360.73 L 614.11 362.12 L 615.58 359.50 L 617.06 358.96 L 618.53 351.31 L 620.00 354.70 L 621.47 347.65 L 622.94 351.97 L 624.42 343.98 L 625.89 351.07 L 627.36 355.42 L 628.83 350.89 L 630.31 362.64 L 631.78 366.10 L 633.25 373.62 L 634.72 367.44 L 636.19 358.21 L 637.67 357.53 L 639.14 357.53 L 640.61 359.65 L 642.08 359.50 L 643.56 340.72 L 645.03 338.60 L 646.50 355.77 L 647.97 359.75 L 649.44 368.25 L 650.92 371.56 L 652.39 371.93 L 653.86 358.59 L 655.33 355.52 L 656.81 354.63 L 658.28 358.60 L 659.75 362.98 L 661.22 356.41 L 662.69 355.00 L 664.17 354.51 L 665.64 354.36 L 667.11 353.89 L 668.58 351.36 L 670.06 345.39 L 671.53 349.99 L 673.00 349.49 L 674.47 346.59 L 675.94 329.45 L 677.42 333.27 L 678.89 343.04 L 680.36 356.32 L 681.83 362.48 L 683.31 339.59 L 684.78 348.00 L 686.25 354.06 L 687.72 354.47 L 689.19 342.01 L 690.67 348.49 L 692.14 351.65 L 693.61 348.14 L 695.08 347.62 L 696.56 343.56 L 698.03 339.77 L 699.50 335.80 L 700.97 337.33 L 702.44 344.41 L 703.92 349.84 L 705.39 341.99 L 706.86 348.30 L 708.33 351.76 L 709.81 352.33 L 711.28 351.54 L 712.75 351.24 L 714.22 343.59 L 715.69 350.10 L 717.17 348.67 L 718.64 348.47 L 720.11 339.12 L 721.58 343.66 L 723.06 348.45 L 724.53 349.42 L 726.00 341.26 L 727.47 338.90 L 728.94 340.51 L 730.42 351.04 L 731.89 347.37 L 733.36 348.63 L 734.83 347.95 L 736.31 345.34 L 737.78 342.72 L 739.25 347.61 L 740.72 338.15 L 742.19 341.48 L 743.67 349.57 L 745.14 348.22 L 746.61 345.92 L 748.08 349.16 L 749.56 352.20 L 751.03 346.86 L 752.50 345.83 L 753.97 351.70 L 755.44 356.48 L 756.92 352.65 L 758.39 342.45 L 759.86 336.71 L 761.33 349.35 L 762.81 345.73 L 764.28 347.61 L 765.75 350.69 L 767.22 348.35 L 768.69 343.30 L 770.17 345.23 L 771.64 342.41 L 773.11 343.39 L 774.58 343.11 L 776.06 344.26 L 777.53 328.18 L 779.00 337.66 L 780.47 350.12 L 781.94 355.31 L 783.42 352.47 L 784.89 356.41 L 786.36 340.41 L 787.83 351.05 L 789.31 355.47 L 790.78 346.02 L 792.25 341.66 L 793.72 352.84 L 795.19 338.78 L 796.67 354.69 L 798.14 345.74 L 799.61 340.66 L 801.08 349.55" stroke="#2E7D32" />
<path class="series" d="M 178.33 408.27 L 179.81 418.25 L 181.28 407.54 L 182.75 411.24 L 184.22 403.39 L 185.69 406.36 L 187.17 406.38 L 188.64 405.61 L 190.11 409.19 L 191.58 412.17 L 193.06 409.08 L 194.53 406.08 L 196.00 402.59 L 197.47 401.82 L 198.94 401.19 L 200.42 401.92 L 201.89 403.39 L 203.36 403.74 L 204.83 401.65 L 206.31 401.06 L 207.78 401.66 L 209.25 396.16 L 210.72 404.12 L 212.19 403.08 L 213.67 400.11 L 215.14 404.39 L 216.61 404.24 L 218.08 409.73 L 219.56 412.57 L 221.03 406.85 L 222.50 407.08 L 223.97 403.66 L 225.44 402.85 L 226.92 406.79 L 228.39 405.09 L 229.86 405.62 L 231.33 405.94 L 232.81 402.19 L 234.28 397.60 L 235.75 399.30 L 237.22 403.06 L 238.69 399.99 L 240.17 405.27 L 241.64 400.83 L 243.11 402.34 L 244.58 403.40 L 246.06 403.39 L 247.53 405.97 L 249.00 407.61 L 250.47 410.95 L 251.94 407.14 L 253.42 410.48 L 254.89 406.09 L 256.36 412.64 L 257.83 415.23 L 259.31 412.49 L 260.78 416.12 L 262.25 418.49 L 263.72 416.33 L 265.19 417.00 L 266.67 413.15 L 268.14 409.96 L 269.61 413.01 L 271.08 419.25 L 272.56 411.83 L 274.03 403.65 L 275.50 411.88 L 276.97 409.53 L 278.44 413.10 L 279.92 413.57 L 281.39 409.58 L 282.86 415.45 L 284.33 411.84 L 285.81 411.00 L 287.28 416.83 L 288.75 408.79 L 290.22 404.97 L 291.69 399.74 L 293.17 396.41 L 294.64 405.36 L 296.11 413.91 L 297.58 415.71 L 299.06 420.52 L 300.53 428.27 L 302.00 427.62 L 303.47 426.96 L 304.94 422.55 L 306.42 421.82 L 307.89 417.59 L 309.36 422.01 L 310.83 418.52 L 312.31 420.84 L 313.78 416.34 L 315.25 409.63 L 316.72 419.05 L 318.19 416.10 L 319.67 409.32 L 321.14 408.65 L 322.61 402.37 L 324.08 405.37 L 325.56 384.69 L 327.03 391.52 L 328.50 388.55 L 329.97 393.38 L 331.44 391.33 L 332.92 402.56 L 334.39 398.51 L 335.86 399.69 L 337.33 392.20 L 338.81 404.21 L 340.28 399.31 L 341.75 394.51 L 343.22 398.42 L 344.69 400.13 L 346.17 404.96 L 347.64 401.25 L 349.11 408.59 L 350.58 401.66 L 352.06 405.16 L 353.53 405.16 L 355.00 398.63 L 356.47 395.37 L 357.94 400.04 L 359.42 399.70 L 360.89 401.22 L 362.36 402.94 L 363.83 414.29 L 365.31 428.80 L 366.78 423.24 L 368.25 419.08 L 369.72 423.50 L 371.19 421.28 L 372.67 425.15 L 374.14 426.49 L 375.61 430.73 L 377.08 422.73 L 378.56 416.59 L 380.03 416.28 L 381.50 411.02 L 382.97 394.46 L 384.44 403.99 L 385.92 396.12 L 387.39 401.24 L 388.86 405.15 L 390.33 402.66 L 391.81 394.98 L 393.28 396.23 L 394.75 393.15 L 396.22 391.49 L 397.69 393.33 L 399.17 397.72 L 400.64 409.25 L 402.11 401.99 L 403.58 396.78 L 405.06 401.09 L 406.53 398.28 L 408.00 395.13 L 409.47 389.88 L 410.94 391.96 L 412.42 397.21 L 413.89 392.71 L 415.36 387.45 L 416.83 389.17 L 418.31 387.41 L 419.78 391.80 L 421.25 393.75 L 422.72 387.82 L 424.19 384.60 L 425.67 387.89 L 427.14 386.02 L 428.61 383.12 L 430.08 392.65 L 431.56 394.07 L 433.03 391.67 L 434.50 392.25 L 435.97 392.91 L 437.44 391.12 L 438.92 390.76 L 440.39 391.64 L 441.86 391.45 L 443.33 391.80 L 444.81 390.45 L 446.28 391.71 L 447.75 394.92 L 449.22 395.14 L 450.69 396.04 L 452.17 396.61 L 453.64 396.73 L 455.11 398.01 L 456.58 397.61 L 458.06 398.38 L 459.53 395.76 L 461.00 396.11 L 462.47 395.30 L 463.94 394.90 L 465.42 395.06 L 466.89 394.57 L 468.36 395.13 L 469.83 395.38 L 471.31 395.20 L 472.78 394.67 L 474.25 395.13 L 475.72 395.13 L 477.19 395.02 L 478.67 394.60 L 480.14 394.91 L 481.61 395.07 L 483.08 394.82 L 484.56 394.92 L 486.03 394.59 L 487.50 395.19 L 488.97 394.20 L 490.44 394.39 L 491.92 394.48 L 493.39 394.27 L 494.86 394.54 L 496.33 394.72 L 497.81 394.57 L 499.28 394.64 L 500.75 394.54 L 502.22 394.65 L 503.69 394.66 L 505.17 394.66 L 506.64 394.93 L 508.11 394.67 L 509.58 394.68 L 511.06 395.02 L 512.53 394.87 L 514.00 395.12 L 515.47 394.97 L 516.94 395.03 L 518.42 395.32 L 519.89 395.09 L 521.36 394.73 L 522.83 396.06 L 524.31 395.33 L 525.78 395.41 L 527.25 395.51 L 528.72 395.02 L 530.19 395.10 L 531.67 394.17 L 533.14 392.03 L 534.61 391.38 L 536.08 391.30 L 537.56 394.33 L 539.03 386.04 L 540.50 393.95 L 541.97 391.46 L 543.44 389.19 L 544.92 394.35 L 546.39 393.03 L 547.86 399.81 L 549.33 399.19 L 550.81 395.50 L 552.28 395.84 L 553.75 396.29 L 555.22 395.94 L 556.69 395.12 L 558.17 390.40 L 559.64 395.73 L 561.11 389.64 L 562.58 392.15 L 564.06 398.19 L 565.53 397.48 L 567.00 402.25 L 568.47 401.33 L 569.94 398.98 L 571.42 407.24 L 572.89 402.98 L 574.36 408.57 L 575.83 409.50 L 577.31 400.99 L 578.78 408.48 L 580.25 407.13 L 581.72 408.88 L 583.19 404.35 L 584.67 401.78 L 586.14 395.96 L 587.61 387.95 L 589.08 390.57 L 590.56 394.19 L 592.03 405.43 L 593.50 415.80 L 594.97 405.30 L 596.44 421.76 L 597.92 429.53 L 599.39 438.12 L 600.86 436.25 L 602.33 441.59 L 603.81 420.55 L 605.28 441.27 L 606.75 419.97 L 608.22 430.34 L 609.69 417.29 L 611.17 404.44 L 612.64 390.86 L 614.11 388.46 L 615.58 389.20 L 617.06 388.38 L 618.53 405.17 L 620.00 400.02 L 621.47 392.85 L 622.94 399.20 L 624.42 396.76 L 625.89 398.55 L 627.36 398.95 L 628.83 401.44 L 630.31 402.71 L 631.78 403.95 L 633.25 394.42 L 634.72 393.01 L 636.19 411.81 L 637.67 399.17 L 639.14 399.17 L 640.61 412.85 L 642.08 410.77 L 643.56 409.15 L 645.03 422.63 L 646.50 415.93 L 647.97 407.90 L 649.44 412.36 L 650.92 410.76 L 652.39 414.39 L 653.86 404.94 L 655.33 407.66 L 656.81 407.40 L 658.28 408.94 L 659.75 404.50 L 661.22 407.19 L 662.69 403.97 L 664.17 403.07 L 665.64 407.49 L 667.11 417.37 L 668.58 414.39 L 670.06 415.70 L 671.53 412.12 L 673.00 414.58 L 674.47 409.74 L 675.94 413.46 L 677.42 411.26 L 678.89 408.99 L 680.36 408.33 L 681.83 408.89 L 683.31 406.65 L 684.78 403.94 L 686.25 407.77 L 687.72 405.04 L 689.19 409.46 L 690.67 406.71 L 692.14 406.11 L 693.61 405.51 L 695.08 407.72 L 696.56 415.02 L 698.03 412.43 L 699.50 404.88 L 700.97 406.73 L 702.44 411.16 L 703.92 415.15 L 705.39 411.22 L 706.86 412.33 L 708.33 412.48 L 709.81 416.91 L 711.28 418.22 L 712.75 421.40 L 714.22 414.20 L 715.69 415.72 L 717.17 412.68 L 718.64 409.38 L 720.11 411.58 L 721.58 406.47 L 723.06 403.09 L 724.53 405.45 L 726.00 405.88 L 727.47 408.17 L 728.94 407.22 L 730.42 412.19 L 731.89 408.76 L 733.36 409.43 L 734.83 417.04 L 736.31 416.82 L 737.78 415.25 L 739.25 417.47 L 740.72 419.15 L 742.19 419.47 L 743.67 427.48 L 745.14 424.57 L 746.61 418.77 L 748.08 417.40 L 749.56 414.64 L 751.03 410.15 L 752.50 415.34 L 753.97 412.11 L 755.44 402.17 L 756.92 400.09 L 758.39 407.66 L 759.86 413.00 L 761.33 409.19 L 762.81 408.03 L 764.28 410.80 L 765.75 409.82 L 767.22 408.69 L 768.69 406.83 L 770.17 411.91 L 771.64 412.08 L 773.11 411.63 L 774.58 413.54 L 776.06 417.04 L 777.53 420.22 L 779.00 414.90 L 780.47 415.92 L 781.94 415.75 L 783.42 416.36 L 784.89 409.23 L 786.36 415.53 L 787.83 413.60 L 789.31 412.49 L 790.78 411.86 L 792.25 408.14 L 793.72 410.63 L 795.19 409.20 L 796.67 407.89 L 798.14 402.90 L 799.61 408.64 L 801.08 403.53" stroke="#6A1B9A" />
<line x1="900.00" y1="307.75" x2="918.00" y2="307.75" stroke="#2E7D32" stroke-width="3" />
<text class="small" x="924.00" y="311.75">pitch</text>
<line x1="900.00" y1="323.75" x2="918.00" y2="323.75" stroke="#6A1B9A" stroke-width="3" />
<text class="small" x="924.00" y="327.75">roll</text>
<text x="90" y="500.50" font-size="14" font-weight="700">Aceleração (magnitude) (u.a.)</text>
<rect class="event" x="443.33" y="506.50" width="92.75" height="192.75" />
<line class="eventline" x1="443.33" y1="506.50" x2="443.33" y2="699.25" />
<line class="eventline" x1="536.08" y1="506.50" x2="536.08" y2="699.25" />
<line class="grid" x1="90" y1="699.25" x2="1150" y2="699.25" />
<text class="small" x="80" y="703.25" text-anchor="end">0.00</text>
<line class="grid" x1="90" y1="660.70" x2="1150" y2="660.70" />
<text class="small" x="80" y="664.70" text-anchor="end">0.50</text>
<line class="grid" x1="90" y1="622.15" x2="1150" y2="622.15" />
<text class="small" x="80" y="626.15" text-anchor="end">1.00</text>
<line class="grid" x1="90" y1="583.60" x2="1150" y2="583.60" />
<text class="small" x="80" y="587.60" text-anchor="end">1.50</text>
<line class="grid" x1="90" y1="545.05" x2="1150" y2="545.05" />
<text class="small" x="80" y="549.05" text-anchor="end">2.00</text>
<line class="grid" x1="90" y1="506.50" x2="1150" y2="506.50" />
<text class="small" x="80" y="510.50" text-anchor="end">2.50</text>
<line class="grid" x1="90.00" y1="506.50" x2="90.00" y2="699.25" />
<line class="grid" x1="266.67" y1="506.50" x2="266.67" y2="699.25" />
<line class="grid" x1="443.33" y1="506.50" x2="443.33" y2="699.25" />
<line class="grid" x1="620.00" y1="506.50" x2="620.00" y2="699.25" />
<line class="grid" x1="796.67" y1="506.50" x2="796.67" y2="699.25" />
<line class="grid" x1="973.33" y1="506.50" x2="973.33" y2="699.25" />
<line class="grid" x1="1150.00" y1="506.50" x2="1150.00" y2="699.25" />
<line class="axis" x1="90" y1="506.50" x2="90" y2="699.25" />
<line class="axis" x1="90" y1="699.25" x2="1150" y2="699.25" />
<path class="series" d="M 178.33 680.65 L 179.81 690.59 L 181.28 670.90 L 182.75 684.96 L 184.22 695.22 L 185.69 685.08 L 187.17 688.63 L 188.64 679.75 L 190.11 689.42 L 191.58 687.25 L 193.06 690.58 L 194.53 692.76 L 196.00 694.88 L 197.47 694.12 L 198.94 692.95 L 200.42 690.98 L 201.89 694.82 L 203.36 691.80 L 204.83 684.72 L 206.31 685.21 L 207.78 689.39 L 209.25 685.11 L 210.72 688.55 L 212.19 690.57 L 213.67 693.21 L 215.14 692.06 L 216.61 683.35 L 218.08 682.91 L 219.56 683.83 L 221.03 673.99 L 222.50 678.76 L 223.97 684.20 L 225.44 687.16 L 226.92 691.04 L 228.39 690.21 L 229.86 690.04 L 231.33 693.13 L 232.81 690.64 L 234.28 688.25 L 235.75 688.34 L 237.22 694.20 L 238.69 689.97 L 240.17 696.31 L 241.64 689.63 L 243.11 694.99 L 244.58 692.09 L 246.06 691.04 L 247.53 693.22 L 249.00 691.16 L 250.47 678.66 L 251.94 676.83 L 253.42 682.23 L 254.89 689.40 L 256.36 680.61 L 257.83 657.11 L 259.31 678.89 L 260.78 675.76 L 262.25 690.67 L 263.72 674.91 L 265.19 687.94 L 266.67 690.54 L 268.14 675.34 L 269.61 685.27 L 271.08 685.48 L 272.56 672.04 L 274.03 661.74 L 275.50 676.62 L 276.97 686.07 L 278.44 665.17 L 279.92 692.33 L 281.39 675.12 L 282.86 685.73 L 284.33 690.81 L 285.81 674.29 L 287.28 665.86 L 288.75 679.91 L 290.22 671.63 L 291.69 667.62 L 293.17 667.69 L 294.64 692.40 L 296.11 674.24 L 297.58 669.81 L 299.06 669.77 L 300.53 657.15 L 302.00 678.86 L 303.47 638.82 L 304.94 674.31 L 306.42 652.01 L 307.89 648.31 L 309.36 650.64 L 310.83 680.44 L 312.31 676.25 L 313.78 684.98 L 315.25 661.99 L 316.72 652.61 L 318.19 686.01 L 319.67 686.15 L 321.14 691.90 L 322.61 677.96 L 324.08 690.51 L 325.56 690.51 L 327.03 659.82 L 328.50 682.52 L 329.97 669.61 L 331.44 691.69 L 332.92 652.10 L 334.39 671.37 L 335.86 676.92 L 337.33 668.10 L 338.81 668.67 L 340.28 680.15 L 341.75 677.41 L 343.22 673.35 L 344.69 658.00 L 346.17 693.93 L 347.64 665.86 L 349.11 653.65 L 350.58 640.45 L 352.06 649.39 L 353.53 684.56 L 355.00 660.62 L 356.47 669.97 L 357.94 685.43 L 359.42 656.62 L 360.89 679.57 L 362.36 665.80 L 363.83 658.31 L 365.31 627.51 L 366.78 644.54 L 368.25 665.20 L 369.72 669.90 L 371.19 675.00 L 372.67 672.77 L 374.14 692.56 L 375.61 684.53 L 377.08 677.78 L 378.56 664.76 L 380.03 655.09 L 381.50 645.74 L 382.97 647.36 L 384.44 673.40 L 385.92 648.61 L 387.39 671.54 L 388.86 676.01 L 390.33 689.92 L 391.81 675.14 L 393.28 661.18 L 394.75 664.45 L 396.22 668.13 L 397.69 661.97 L 399.17 685.87 L 400.64 688.79 L 402.11 684.21 L 403.58 689.76 L 405.06 688.66 L 406.53 688.15 L 408.00 691.44 L 409.47 692.51 L 410.94 687.40 L 412.42 687.83 L 413.89 690.73 L 415.36 683.53 L 416.83 687.05 L 418.31 691.73 L 419.78 669.70 L 421.25 688.49 L 422.72 688.45 L 424.19 692.88 L 425.67 690.13 L 427.14 692.06 L 428.61 691.70 L 430.08 682.29 L 431.56 693.60 L 433.03 685.07 L 434.50 683.50 L 435.97 689.59 L 437.44 685.86 L 438.92 682.96 L 440.39 692.15 L 441.86 697.19 L 443.33 695.49 L 444.81 695.43 L 446.28 693.80 L 447.75 695.77 L 449.22 693.11 L 450.69 695.68 L 452.17 675.73 L 453.64 698.37 L 455.11 696.43 L 456.58 698.25 L 458.06 695.91 L 459.53 671.78 L 461.00 681.57 L 462.47 687.98 L 463.94 697.40 L 465.42 698.39 L 466.89 698.06 L 468.36 697.35 L 469.83 698.27 L 471.31 697.20 L 472.78 697.28 L 474.25 698.49 L 475.72 697.66 L 477.19 698.36 L 478.67 697.23 L 480.14 697.23 L 481.61 695.84 L 483.08 696.98 L 484.56 696.02 L 486.03 695.97 L 487.50 697.19 L 488.97 694.25 L 490.44 695.96 L 491.92 695.78 L 493.39 697.65 L 494.86 692.90 L 496.33 693.08 L 497.81 696.30 L 499.28 697.61 L 500.75 698.87 L 502.22 698.79 L 503.69 698.49 L 505.17 698.68 L 506.64 698.77 L 508.11 696.25 L 509.58 693.15 L 511.06 698.36 L 512.53 698.59 L 514.00 698.45 L 515.47 698.89 L 516.94 698.09 L 518.42 688.39 L 519.89 692.80 L 521.36 698.31 L 522.83 685.92 L 524.31 696.86 L 525.78 698.18 L 527.25 698.39 L 528.72 698.81 L 530.19 691.54 L 531.67 688.41 L 533.14 679.80 L 534.61 694.12 L 536.08 672.62 L 537.56 694.75 L 539.03 667.77 L 540.50 695.56 L 541.97 677.28 L 543.44 673.32 L 544.92 682.62 L 546.39 683.70 L 547.86 658.31 L 549.33 671.54 L 550.81 681.26 L 552.28 691.06 L 553.75 696.37 L 555.22 694.47 L 556.69 695.51 L 558.17 678.29 L 559.64 683.09 L 561.11 686.40 L 562.58 688.80 L 564.06 689.70 L 565.53 685.96 L 567.00 692.11 L 568.47 689.01 L 569.94 696.99 L 571.42 687.40 L 572.89 666.74 L 574.36 685.34 L 575.83 677.05 L 577.31 685.34 L 578.78 693.64 L 580.25 691.12 L 581.72 689.50 L 583.19 680.45 L 584.67 669.65 L 586.14 664.73 L 587.61 664.59 L 589.08 615.14 L 590.56 657.20 L 592.03 692.58 L 593.50 662.11 L 594.97 680.05 L 596.44 644.64 L 597.92 662.99 L 599.39 630.10 L 600.86 647.74 L 602.33 671.63 L 603.81 652.22 L 605.28 624.06 L 606.75 655.23 L 608.22 677.40 L 609.69 645.28 L 611.17 634.30 L 612.64 616.33 L 614.11 628.52 L 615.58 651.73 L 617.06 636.92 L 618.53 672.71 L 620.00 693.84 L 621.47 657.35 L 622.94 674.58 L 624.42 674.06 L 625.89 678.92 L 627.36 661.21 L 628.83 645.00 L 630.31 669.07 L 631.78 669.42 L 633.25 677.59 L 634.72 660.68 L 636.19 664.10 L 637.67 668.23 L 639.14 671.40 L 640.61 656.71 L 642.08 596.19 L 643.56 617.38 L 645.03 617.38 L 646.50 683.15 L 647.97 685.62 L 649.44 677.18 L 650.92 669.33 L 652.39 664.68 L 653.86 683.80 L 655.33 686.72 L 656.81 682.57 L 658.28 681.04 L 659.75 672.75 L 661.22 687.55 L 662.69 694.53 L 664.17 685.62 L 665.64 689.69 L 667.11 681.67 L 668.58 684.92 L 670.06 687.05 L 671.53 674.16 L 673.00 686.24 L 674.47 685.28 L 675.94 643.77 L 677.42 671.60 L 678.89 683.34 L 680.36 662.70 L 681.83 656.15 L 683.31 658.34 L 684.78 670.79 L 686.25 683.00 L 687.72 681.21 L 689.19 671.47 L 690.67 691.45 L 692.14 683.35 L 693.61 679.99 L 695.08 692.21 L 696.56 678.86 L 698.03 683.98 L 699.50 683.72 L 700.97 694.31 L 702.44 682.91 L 703.92 686.41 L 705.39 677.87 L 706.86 689.20 L 708.33 677.47 L 709.81 688.04 L 711.28 684.55 L 712.75 684.27 L 714.22 680.77 L 715.69 680.15 L 717.17 683.23 L 718.64 682.85 L 720.11 680.50 L 721.58 680.20 L 723.06 680.07 L 724.53 689.14 L 726.00 661.91 L 727.47 677.96 L 728.94 692.79 L 730.42 682.52 L 731.89 685.47 L 733.36 688.06 L 734.83 680.02 L 736.31 687.30 L 737.78 677.05 L 739.25 677.97 L 740.72 678.20 L 742.19 673.72 L 743.67 691.60 L 745.14 670.11 L 746.61 679.05 L 748.08 676.45 L 749.56 680.43 L 751.03 675.65 L 752.50 685.49 L 753.97 669.65 L 755.44 656.74 L 756.92 682.12 L 758.39 673.75 L 759.86 669.92 L 761.33 680.87 L 762.81 678.64 L 764.28 677.78 L 765.75 681.16 L 767.22 679.60 L 768.69 666.13 L 770.17 680.24 L 771.64 688.52 L 773.11 686.63 L 774.58 675.11 L 776.06 670.11 L 777.53 662.01 L 779.00 683.18 L 780.47 659.30 L 781.94 650.38 L 783.42 655.75 L 784.89 674.01 L 786.36 657.76 L 787.83 675.14 L 789.31 692.62 L 790.78 669.77 L 792.25 681.68 L 793.72 685.92 L 795.19 673.68 L 796.67 663.21 L 798.14 671.26 L 799.61 672.68 L 801.08 688.38" stroke="#FB8C00" />
<text x="90" y="711.25" font-size="14" font-weight="700">Giroscópio (magnitude) (u.a.)</text>
<rect class="event" x="443.33" y="717.25" width="92.75" height="192.75" />
<line class="eventline" x1="443.33" y1="717.25" x2="443.33" y2="910.00" />
<line class="eventline" x1="536.08" y1="717.25" x2="536.08" y2="910.00" />
<line class="grid" x1="90" y1="910.00" x2="1150" y2="910.00" />
<text class="small" x="80" y="914.00" text-anchor="end">0.00</text>
<line class="grid" x1="90" y1="871.45" x2="1150" y2="871.45" />
<text class="small" x="80" y="875.45" text-anchor="end">0.05</text>
<line class="grid" x1="90" y1="832.90" x2="1150" y2="832.90" />
<text class="small" x="80" y="836.90" text-anchor="end">0.10</text>
<line class="grid" x1="90" y1="794.35" x2="1150" y2="794.35" />
<text class="small" x="80" y="798.35" text-anchor="end">0.15</text>
<line class="grid" x1="90" y1="755.80" x2="1150" y2="755.80" />
<text class="small" x="80" y="759.80" text-anchor="end">0.20</text>
<line class="grid" x1="90" y1="717.25" x2="1150" y2="717.25" />
<text class="small" x="80" y="721.25" text-anchor="end">0.25</text>
<line class="grid" x1="90.00" y1="717.25" x2="90.00" y2="910.00" />
<line class="grid" x1="266.67" y1="717.25" x2="266.67" y2="910.00" />
<line class="grid" x1="443.33" y1="717.25" x2="443.33" y2="910.00" />
<line class="grid" x1="620.00" y1="717.25" x2="620.00" y2="910.00" />
<line class="grid" x1="796.67" y1="717.25" x2="796.67" y2="910.00" />
<line class="grid" x1="973.33" y1="717.25" x2="973.33" y2="910.00" />
<line class="grid" x1="1150.00" y1="717.25" x2="1150.00" y2="910.00" />
<line class="axis" x1="90" y1="717.25" x2="90" y2="910.00" />
<line class="axis" x1="90" y1="910.00" x2="1150" y2="910.00" />
<path class="series" d="M 178.33 898.38 L 179.81 891.03 L 181.28 900.51 L 182.75 896.10 L 184.22 875.83 L 185.69 903.17 L 187.17 887.00 L 188.64 881.72 L 190.11 877.65 L 191.58 892.48 L 193.06 895.86 L 194.53 899.25 L 196.00 901.58 L 197.47 905.29 L 198.94 906.02 L 200.42 903.35 L 201.89 902.82 L 203.36 902.77 L 204.83 899.63 L 206.31 903.36 L 207.78 900.15 L 209.25 902.78 L 210.72 897.67 L 212.19 900.87 L 213.67 905.47 L 215.14 901.14 L 216.61 897.37 L 218.08 901.39 L 219.56 903.06 L 221.03 894.19 L 222.50 905.05 L 223.97 900.40 L 225.44 900.06 L 226.92 900.65 L 228.39 893.77 L 229.86 897.82 L 231.33 898.57 L 232.81 900.00 L 234.28 897.43 L 235.75 901.00 L 237.22 901.88 L 238.69 899.36 L 240.17 906.36 L 241.64 903.93 L 243.11 904.69 L 244.58 905.08 L 246.06 902.83 L 247.53 904.69 L 249.00 902.80 L 250.47 900.59 L 251.94 902.86 L 253.42 896.13 L 254.89 892.17 L 256.36 884.82 L 257.83 889.26 L 259.31 884.85 L 260.78 876.07 L 262.25 883.90 L 263.72 880.61 L 265.19 893.82 L 266.67 891.79 L 268.14 892.14 L 269.61 895.34 L 271.08 890.99 L 272.56 881.78 L 274.03 881.08 L 275.50 894.31 L 276.97 883.87 L 278.44 884.00 L 279.92 891.28 L 281.39 887.11 L 282.86 886.05 L 284.33 878.22 L 285.81 880.96 L 287.28 885.65 L 288.75 892.49 L 290.22 888.34 L 291.69 895.32 L 293.17 875.80 L 294.64 882.65 L 296.11 893.15 L 297.58 877.86 L 299.06 852.71 L 300.53 821.16 L 302.00 808.44 L 303.47 823.51 L 304.94 826.70 L 306.42 849.61 L 307.89 865.58 L 309.36 864.80 L 310.83 865.06 L 312.31 849.40 L 313.78 838.25 L 315.25 841.25 L 316.72 844.94 L 318.19 847.79 L 319.67 848.51 L 321.14 843.12 L 322.61 821.81 L 324.08 848.48 L 325.56 848.48 L 327.03 878.72 L 328.50 896.46 L 329.97 890.86 L 331.44 888.68 L 332.92 870.86 L 334.39 889.00 L 335.86 895.21 L 337.33 894.48 L 338.81 875.84 L 340.28 882.74 L 341.75 897.38 L 343.22 862.90 L 344.69 847.32 L 346.17 847.68 L 347.64 857.49 L 349.11 850.02 L 350.58 857.09 L 352.06 870.51 L 353.53 865.16 L 355.00 868.12 L 356.47 856.03 L 357.94 856.81 L 359.42 866.40 L 360.89 858.73 L 362.36 848.70 L 363.83 854.41 L 365.31 898.65 L 366.78 873.97 L 368.25 852.90 L 369.72 824.21 L 371.19 814.02 L 372.67 820.83 L 374.14 806.27 L 375.61 804.54 L 377.08 826.94 L 378.56 857.50 L 380.03 893.04 L 381.50 880.19 L 382.97 810.48 L 384.44 788.98 L 385.92 767.10 L 387.39 751.44 L 388.86 745.30 L 390.33 755.89 L 391.81 742.28 L 393.28 753.82 L 394.75 768.11 L 396.22 787.72 L 397.69 814.35 L 399.17 844.67 L 400.64 887.90 L 402.11 905.81 L 403.58 906.79 L 405.06 897.36 L 406.53 895.92 L 408.00 904.10 L 409.47 889.34 L 410.94 875.68 L 412.42 876.71 L 413.89 871.47 L 415.36 868.34 L 416.83 867.73 L 418.31 871.78 L 419.78 872.76 L 421.25 885.25 L 422.72 898.51 L 424.19 897.55 L 425.67 901.55 L 427.14 902.45 L 428.61 889.57 L 430.08 898.56 L 431.56 903.44 L 433.03 905.29 L 434.50 903.95 L 435.97 899.86 L 437.44 892.73 L 438.92 901.26 L 440.39 902.33 L 441.86 905.03 L 443.33 906.11 L 444.81 902.60 L 446.28 901.50 L 447.75 906.52 L 449.22 907.20 L 450.69 903.61 L 452.17 907.19 L 453.64 907.84 L 455.11 908.55 L 456.58 908.78 L 458.06 905.89 L 459.53 908.95 L 461.00 906.11 L 462.47 908.42 L 463.94 908.52 L 465.42 908.63 L 466.89 908.86 L 468.36 908.29 L 469.83 907.91 L 471.31 908.44 L 472.78 908.48 L 474.25 908.41 L 475.72 908.70 L 477.19 908.60 L 478.67 908.37 L 480.14 908.37 L 481.61 908.25 L 483.08 908.50 L 484.56 908.37 L 486.03 908.56 L 487.50 908.17 L 488.97 908.23 L 490.44 908.49 L 491.92 908.46 L 493.39 908.19 L 494.86 908.58 L 496.33 908.16 L 497.81 908.53 L 499.28 908.40 L 500.75 908.43 L 502.22 908.44 L 503.69 908.36 L 505.17 908.34 L 506.64 908.14 L 508.11 907.86 L 509.58 908.26 L 511.06 908.28 L 512.53 908.13 L 514.00 908.39 L 515.47 908.67 L 516.94 908.29 L 518.42 907.86 L 519.89 908.56 L 521.36 907.91 L 522.83 907.18 L 524.31 908.32 L 525.78 908.49 L 527.25 908.55 L 528.72 908.23 L 530.19 906.85 L 531.67 897.10 L 533.14 901.73 L 534.61 905.63 L 536.08 901.09 L 537.56 899.40 L 539.03 906.19 L 540.50 892.66 L 541.97 901.90 L 543.44 896.26 L 544.92 880.11 L 546.39 874.89 L 547.86 865.25 L 549.33 903.99 L 550.81 908.37 L 552.28 908.46 L 553.75 908.13 L 555.22 908.13 L 556.69 909.28 L 558.17 904.97 L 559.64 862.72 L 561.11 863.68 L 562.58 852.53 L 564.06 844.81 L 565.53 857.66 L 567.00 862.09 L 568.47 869.82 L 569.94 877.77 L 571.42 884.11 L 572.89 894.49 L 574.36 897.15 L 575.83 906.12 L 577.31 888.36 L 578.78 888.98 L 580.25 880.66 L 581.72 883.08 L 583.19 882.50 L 584.67 899.31 L 586.14 897.07 L 587.61 859.97 L 589.08 817.45 L 590.56 801.50 L 592.03 815.90 L 593.50 867.28 L 594.97 894.10 L 596.44 875.09 L 597.92 832.05 L 599.39 823.82 L 600.86 805.40 L 602.33 795.01 L 603.81 802.72 L 605.28 795.76 L 606.75 811.52 L 608.22 815.33 L 609.69 845.99 L 611.17 904.36 L 612.64 856.21 L 614.11 809.56 L 615.58 789.82 L 617.06 780.83 L 618.53 789.32 L 620.00 808.66 L 621.47 790.55 L 622.94 821.98 L 624.42 853.51 L 625.89 845.91 L 627.36 837.21 L 628.83 833.88 L 630.31 838.74 L 631.78 847.58 L 633.25 844.41 L 634.72 848.96 L 636.19 835.71 L 637.67 843.49 L 639.14 854.95 L 640.61 878.58 L 642.08 878.74 L 643.56 893.24 L 645.03 893.24 L 646.50 899.28 L 647.97 894.01 L 649.44 895.53 L 650.92 897.88 L 652.39 885.75 L 653.86 886.23 L 655.33 898.25 L 656.81 906.85 L 658.28 904.86 L 659.75 901.53 L 661.22 899.48 L 662.69 906.21 L 664.17 895.48 L 665.64 897.73 L 667.11 897.41 L 668.58 893.28 L 670.06 900.30 L 671.53 885.31 L 673.00 870.68 L 674.47 869.37 L 675.94 876.69 L 677.42 889.14 L 678.89 893.73 L 680.36 894.72 L 681.83 893.89 L 683.31 895.08 L 684.78 894.87 L 686.25 901.29 L 687.72 901.11 L 689.19 901.62 L 690.67 905.23 L 692.14 903.22 L 693.61 896.21 L 695.08 903.43 L 696.56 900.34 L 698.03 894.24 L 699.50 897.68 L 700.97 897.33 L 702.44 890.57 L 703.92 896.61 L 705.39 903.57 L 706.86 896.69 L 708.33 897.81 L 709.81 886.00 L 711.28 890.76 L 712.75 887.74 L 714.22 902.14 L 715.69 895.38 L 717.17 894.18 L 718.64 895.80 L 720.11 892.55 L 721.58 885.18 L 723.06 892.99 L 724.53 892.99 L 726.00 896.25 L 727.47 893.80 L 728.94 897.48 L 730.42 901.46 L 731.89 905.27 L 733.36 903.86 L 734.83 890.80 L 736.31 871.57 L 737.78 866.09 L 739.25 868.72 L 740.72 872.18 L 742.19 859.45 L 743.67 872.82 L 745.14 874.69 L 746.61 893.50 L 748.08 901.53 L 749.56 898.88 L 751.03 892.59 L 752.50 886.31 L 753.97 879.37 L 755.44 870.76 L 756.92 877.45 L 758.39 886.58 L 759.86 899.57 L 761.33 890.05 L 762.81 907.94 L 764.28 902.52 L 765.75 901.12 L 767.22 902.10 L 768.69 895.41 L 770.17 904.41 L 771.64 900.08 L 773.11 898.61 L 774.58 892.02 L 776.06 906.39 L 777.53 904.82 L 779.00 902.65 L 780.47 898.60 L 781.94 907.56 L 783.42 898.06 L 784.89 894.55 L 786.36 880.61 L 787.83 891.27 L 789.31 889.13 L 790.78 888.51 L 792.25 894.48 L 793.72 898.29 L 795.19 893.54 L 796.67 887.37 L 798.14 883.52 L 799.61 883.81 L 801.08 883.84" stroke="#E53935" />
<text x="620.00" y="952" font-size="15" text-anchor="middle">minutos (relativo ao início do evento)</text>
<text class="small" x="90.00" y="936" text-anchor="middle">-4.00</text>
<text class="small" x="266.67" y="936" text-anchor="middle">-2.00</text>
<text class="small" x="443.33" y="936" text-anchor="middle">0.00</text>
<text class="small" x="620.00" y="936" text-anchor="middle">2.00</text>
<text class="small" x="796.67" y="936" text-anchor="middle">4.00</text>
<text class="small" x="973.33" y="936" text-anchor="middle">6.00</text>
<text class="small" x="1150.00" y="936" text-anchor="middle">8.00</text>
</svg>