<?xml version="1.0" encoding="UTF-8"?>
<svg xmlns="http://www.w3.org/2000/svg" width="1180" height="980" viewBox="0 0 1180 980">
<style>
text { font-family: -apple-system, BlinkMacSystemFont, 'Segoe UI', Roboto, Helvetica, Arial, sans-serif; fill: #111; }
.small { font-size: 12px; fill: #222; }
.title { font-size: 18px; font-weight: 700; }
.axis { stroke: #111; stroke-width: 1.4; }
.grid { stroke: #E6E6E6; stroke-width: 1; }
.event { fill: #FFEB3B; fill-opacity: 0.18; }
.eventline { stroke: #F9A825; stroke-width: 1.2; stroke-dasharray: 4 3; }
.series { fill: none; stroke-width: 1.8; }
</style>
<text class="title" x="90" y="34">ciclo 23 — carregamento — 2025-12-13T02:08:18-03:00 → 2025-12-13T02:14:30-03:00 (span 372s, dur 311s)</text>
<text class="small" x="90" y="54">GPS: -11.699023,-47.157439  hotspot: -11.699,-47.157</text>
<text class="small" x="90" y="70">Janela: -3.00 → 9.20 min (relativo ao início do evento)</text>
<text x="90" y="79.00" font-size="14" font-weight="700">Velocidade (km/h)</text>
<rect class="event" x="266.67" y="85.00" width="219.07" height="192.75" />
<line class="eventline" x1="266.67" y1="85.00" x2="266.67" y2="277.75" />
<line class="eventline" x1="485.73" y1="85.00" x2="485.73" y2="277.75" />
<line class="grid" x1="90" y1="277.75" x2="1150" y2="277.75" />
<text class="small" x="80" y="281.75" text-anchor="end">0.00</text>
<line class="grid" x1="90" y1="239.20" x2="1150" y2="239.20" />
<text class="small" x="80" y="243.20" text-anchor="end">10.0</text>
<line class="grid" x1="90" y1="200.65" x2="1150" y2="200.65" />
<text class="small" x="80" y="204.65" text-anchor="end">20.0</text>
<line class="grid" x1="90" y1="162.10" x2="1150" y2="162.10" />
<text class="small" x="80" y="166.10" text-anchor="end">30.0</text>
<line class="grid" x1="90" y1="123.55" x2="1150" y2="123.55" />
<text class="small" x="80" y="127.55" text-anchor="end">40.0</text>
<line class="grid" x1="90" y1="85.00" x2="1150" y2="85.00" />
<text class="small" x="80" y="89.00" text-anchor="end">50.0</text>
<line class="grid" x1="90.00" y1="85.00" x2="90.00" y2="277.75" />
<line class="grid" x1="266.67" y1="85.00" x2="266.67" y2="277.75" />
<line class="grid" x1="443.33" y1="85.00" x2="443.33" y2="277.75" />
<line class="grid" x1="620.00" y1="85.00" x2="620.00" y2="277.75" />
<line class="grid" x1="796.67" y1="85.00" x2="796.67" y2="277.75" />
<line class="grid" x1="973.33" y1="85.00" x2="973.33" y2="277.75" />
<line class="grid" x1="1150.00" y1="85.00" x2="1150.00" y2="277.75" />
<line class="axis" x1="90" y1="85.00" x2="90" y2="277.75" />
<line class="axis" x1="90" y1="277.75" x2="1150" y2="277.75" />
<path class="series" d="M 160.67 157.57 L 161.26 159.51 L 161.84 159.79 L 162.43 160.34 L 163.02 159.23 L 163.61 158.82 L 164.20 158.68 L 164.79 160.06 L 165.38 162.15 L 165.97 161.73 L 166.56 162.84 L 167.14 164.78 L 167.73 164.51 L 168.32 163.53 L 168.91 162.01 L 169.50 164.51 L 170.09 166.45 L 170.68 167.42 L 171.27 168.39 L 171.86 175.33 L 172.44 179.08 L 173.03 185.46 L 173.62 184.07 L 174.21 196.84 L 174.80 201.56 L 175.39 204.06 L 175.98 204.61 L 176.57 204.47 L 177.16 194.62 L 177.74 190.60 L 178.33 175.89 L 178.92 175.19 L 179.51 172.83 L 180.10 169.50 L 180.69 169.78 L 181.28 169.36 L 181.87 171.58 L 182.46 173.11 L 183.04 177.97 L 183.63 176.44 L 184.22 182.96 L 184.81 196.70 L 185.40 203.64 L 185.99 216.69 L 186.58 217.52 L 187.17 224.18 L 187.76 224.87 L 188.34 223.90 L 188.93 217.24 L 189.52 224.04 L 190.11 219.88 L 190.70 224.04 L 191.29 233.48 L 191.88 232.65 L 192.47 235.01 L 193.06 236.53 L 193.64 240.83 L 194.23 245.41 L 194.82 252.35 L 195.41 260.12 L 196.00 265.95 L 196.59 274.42 L 197.18 277.75 L 197.77 277.75 L 198.36 277.75 L 198.94 277.75 L 199.53 277.75 L 200.12 277.75 L 200.71 277.75 L 201.30 277.75 L 201.89 277.75 L 202.48 277.75 L 203.07 277.75 L 203.66 271.50 L 204.24 271.23 L 204.83 273.17 L 205.42 274.28 L 206.01 277.75 L 206.60 277.75 L 207.19 277.75 L 207.78 277.75 L 208.37 277.75 L 208.96 277.75 L 209.54 277.75 L 210.13 277.75 L 210.72 277.75 L 211.31 277.75 L 211.90 277.75 L 212.49 277.75 L 213.08 277.75 L 213.67 277.75 L 214.26 277.75 L 214.84 272.75 L 215.43 271.64 L 216.02 269.15 L 216.61 262.48 L 217.20 259.99 L 217.79 253.74 L 218.38 243.61 L 218.97 241.25 L 219.56 243.06 L 220.14 243.89 L 220.73 247.50 L 221.32 246.80 L 221.91 243.06 L 222.50 238.20 L 223.09 234.87 L 223.68 235.14 L 224.27 232.09 L 224.86 225.01 L 225.44 222.79 L 226.03 221.68 L 226.62 224.32 L 227.21 211.14 L 227.80 223.07 L 228.39 219.60 L 228.98 216.96 L 229.57 216.83 L 230.16 219.32 L 230.74 217.10 L 231.33 213.77 L 231.92 213.36 L 232.51 212.38 L 233.10 204.20 L 233.69 201.42 L 234.28 200.73 L 234.87 200.73 L 235.46 197.26 L 236.04 190.60 L 236.63 186.02 L 237.22 191.98 L 237.81 189.49 L 238.40 189.90 L 238.99 194.34 L 239.58 187.82 L 240.17 185.60 L 240.76 183.52 L 241.34 179.49 L 241.93 176.58 L 242.52 178.66 L 243.11 182.41 L 243.70 184.63 L 244.29 188.79 L 244.88 186.71 L 245.47 188.79 L 246.06 191.85 L 246.64 196.84 L 247.23 202.11 L 247.82 204.61 L 248.41 207.39 L 249.00 212.80 L 249.59 222.24 L 250.18 218.63 L 250.77 216.83 L 251.36 219.32 L 251.94 220.71 L 252.53 219.18 L 253.12 223.07 L 253.71 226.40 L 254.30 234.59 L 254.89 235.70 L 255.48 241.81 L 256.07 239.72 L 256.66 238.34 L 257.24 237.64 L 257.83 240.28 L 258.42 238.61 L 259.01 235.98 L 259.60 236.12 L 260.19 240.56 L 260.78 240.42 L 261.37 250.27 L 261.96 241.11 L 262.54 243.33 L 263.13 239.17 L 263.72 247.22 L 264.31 254.57 L 264.90 261.51 L 265.49 266.93 L 266.08 270.53 L 266.67 277.75 L 267.26 277.75 L 267.84 277.75 L 268.43 277.75 L 269.02 277.75 L 269.61 277.75 L 270.20 277.75 L 270.79 277.75 L 271.38 277.75 L 271.97 277.75 L 272.56 277.75 L 273.14 277.75 L 273.73 277.75 L 274.32 277.75 L 274.91 277.75 L 275.50 277.75 L 276.09 277.75 L 276.68 277.75 L 277.27 277.75 L 277.86 277.75 L 278.44 277.75 L 279.03 277.75 L 279.62 277.75 L 280.21 277.75 L 280.80 277.75 L 281.39 277.75 L 281.98 277.75 L 282.57 277.75 L 283.16 277.75 L 283.74 277.75 L 284.33 277.75 L 284.92 277.75 L 285.51 277.75 L 286.10 277.75 L 286.69 277.75 L 287.28 277.75 L 287.87 277.75 L 288.46 277.75 L 289.04 277.75 L 289.63 277.75 L 290.22 277.75 L 290.81 277.75 L 291.40 277.75 L 291.99 277.75 L 292.58 277.75 L 293.17 277.75 L 293.76 277.75 L 294.34 277.75 L 294.93 277.75 L 295.52 277.75 L 296.11 277.75 L 296.70 277.75 L 297.29 277.75 L 297.88 277.75 L 298.47 277.75 L 299.06 277.75 L 299.64 277.75 L 300.23 277.75 L 300.82 277.75 L 301.41 277.75 L 302.00 277.75 L 302.59 277.75 L 303.18 277.75 L 303.77 277.75 L 304.36 277.75 L 304.94 277.75 L 305.53 277.75 L 306.12 277.75 L 306.71 277.75 L 307.30 277.75 L 307.89 277.75 L 308.48 277.75 L 309.07 277.75 L 309.66 277.75 L 310.24 277.75 L 310.83 277.75 L 311.42 277.75 L 312.01 277.75 L 312.60 277.75 L 313.19 277.75 L 313.78 277.75 L 314.37 277.75 L 314.96 277.75 L 315.54 277.75 L 316.13 277.75 L 316.72 277.75 L 317.31 277.75 L 317.90 277.75 L 318.49 277.75 L 319.08 277.75 L 319.67 277.75 L 320.26 277.75 L 320.84 277.75 L 321.43 277.75 L 322.02 277.75 L 322.61 277.75 L 323.20 277.75 L 323.79 277.75 L 324.38 277.75 L 324.97 277.75 L 325.56 277.75 L 326.14 277.75 L 326.73 277.75 L 327.32 277.75 L 327.91 277.75 L 328.50 277.75 L 329.09 277.75 L 329.68 277.75 L 330.27 277.75 L 330.86 277.75 L 331.44 277.75 L 332.03 277.75 L 332.62 277.75 L 333.21 277.75 L 333.80 277.75 L 334.39 277.75 L 334.98 277.75 L 335.57 277.75 L 336.16 277.75 L 336.74 277.75 L 337.33 277.75 L 337.92 277.75 L 338.51 277.75 L 339.10 271.09 L 339.69 272.06 L 340.28 270.12 L 340.87 268.87 L 341.46 269.28 L 342.04 263.04 L 342.63 259.85 L 343.22 260.40 L 343.81 263.32 L 344.40 270.67 L 344.99 267.34 L 345.58 266.65 L 346.17 261.37 L 346.76 263.87 L 347.34 259.15 L 347.93 258.74 L 348.52 257.35 L 349.11 256.52 L 349.70 256.10 L 350.29 260.12 L 350.88 256.52 L 351.47 256.66 L 352.06 257.63 L 352.64 258.32 L 353.23 257.90 L 353.82 263.04 L 354.41 261.65 L 355.00 263.32 L 355.59 277.75 L 356.18 277.75 L 356.77 277.75 L 357.36 277.75 L 357.94 277.75 L 358.53 277.75 L 359.12 277.75 L 359.71 277.75 L 360.30 277.75 L 360.89 277.75 L 361.48 277.75 L 362.07 277.75 L 362.66 277.75 L 363.24 277.75 L 363.83 277.75 L 364.42 277.75 L 365.01 277.75 L 365.60 263.04 L 366.19 261.93 L 366.78 262.76 L 367.37 266.23 L 367.96 265.95 L 368.54 268.59 L 369.13 267.48 L 369.72 264.84 L 370.31 268.59 L 370.90 269.28 L 371.49 269.70 L 372.08 271.37 L 372.67 270.53 L 373.26 269.42 L 373.84 272.34 L 374.43 270.12 L 375.02 269.70 L 375.61 277.75 L 376.20 277.75 L 376.79 277.75 L 377.38 277.75 L 377.97 277.75 L 378.56 277.75 L 379.14 277.75 L 379.73 277.75 L 380.32 277.75 L 380.91 277.75 L 381.50 277.75 L 382.09 277.75 L 382.68 277.75 L 383.27 277.75 L 383.86 277.75 L 384.44 277.75 L 385.03 277.75 L 385.62 277.75 L 386.21 277.75 L 386.80 277.75 L 387.39 277.75 L 387.98 277.75 L 388.57 277.75 L 389.16 277.75 L 389.74 277.75 L 390.33 277.75 L 390.92 277.75 L 391.51 277.75 L 392.10 277.75 L 392.69 277.75 L 393.28 277.75 L 393.87 277.75 L 394.46 277.75 L 395.04 277.75 L 395.63 277.75 L 396.22 277.75 L 396.81 277.75 L 397.40 277.75 L 397.99 277.75 L 398.58 277.75 L 399.17 277.75 L 399.76 277.75 L 400.34 277.75 L 400.93 277.75 L 401.52 277.75 L 402.11 277.75 L 402.70 277.75 L 403.29 277.75 L 403.88 277.75 L 404.47 277.75 L 405.06 277.75 L 405.64 277.75 L 406.23 277.75 L 406.82 277.75 L 407.41 277.75 L 408.00 277.75 L 408.59 277.75 L 409.18 277.75 L 409.77 277.75 L 410.36 277.75 L 410.94 277.75 L 411.53 277.75 L 412.12 277.75 L 412.71 277.75 L 413.30 277.75 L 413.89 277.75 L 414.48 277.75 L 415.07 277.75 L 415.66 277.75 L 416.24 277.75 L 416.83 277.75 L 417.42 277.75 L 418.01 277.75 L 418.60 277.75 L 419.19 277.75 L 419.78 277.75 L 420.37 277.75 L 420.96 277.75 L 421.54 277.75 L 422.13 277.75 L 422.72 277.75 L 423.31 277.75 L 423.90 277.75 L 424.49 277.75 L 425.08 277.75 L 425.67 277.75 L 426.26 277.75 L 426.84 277.75 L 427.43 277.75 L 428.02 277.75 L 428.61 277.75 L 429.20 277.75 L 429.79 277.75 L 430.38 277.75 L 430.97 277.75 L 431.56 277.75 L 432.14 277.75 L 432.73 277.75 L 433.32 277.75 L 433.91 277.75 L 434.50 277.75 L 435.09 277.75 L 435.68 277.75 L 436.27 277.75 L 436.86 277.75 L 437.44 277.75 L 438.03 277.75 L 438.62 277.75 L 439.21 277.75 L 439.80 277.75 L 440.39 277.75 L 440.98 277.75 L 441.57 277.75 L 442.16 277.75 L 442.74 277.75 L 443.33 277.75 L 443.92 277.75 L 444.51 277.75 L 445.10 277.75 L 445.69 277.75 L 446.28 277.75 L 446.87 277.75 L 447.46 277.75 L 448.04 277.75 L 448.63 277.75 L 449.22 277.75 L 449.81 277.75 L 450.40 277.75 L 450.99 277.75 L 451.58 277.75 L 452.17 277.75 L 452.76 277.75 L 453.34 277.75 L 453.93 277.75 L 454.52 277.75 L 455.11 277.75 L 455.70 277.75 L 456.29 277.75 L 456.88 277.75 L 457.47 277.75 L 458.06 277.75 L 458.64 277.75 L 459.23 277.75 L 459.82 277.75 L 460.41 277.75 L 461.00 277.75 L 461.59 277.75 L 462.18 277.75 L 462.77 277.75 L 463.36 277.75 L 463.94 277.75 L 464.53 277.75 L 465.12 277.75 L 465.71 277.75 L 466.30 277.75 L 466.89 277.75 L 467.48 277.75 L 468.07 277.75 L 468.66 277.75 L 469.24 277.75 L 469.83 277.75 L 470.42 277.75 L 471.01 277.75 L 471.60 277.75 L 472.19 277.75 L 472.78 277.75 L 473.37 277.75 L 473.96 277.75 L 474.54 277.75 L 475.13 277.75 L 475.72 277.75 L 476.31 277.75 L 476.90 277.75 L 477.49 277.75 L 478.08 277.75 L 478.67 277.75 L 479.26 277.75 L 479.84 277.75 L 480.43 277.75 L 481.02 277.75 L 481.61 277.75 L 482.20 277.75 L 482.79 277.75 L 483.38 277.75 L 483.97 277.75 L 484.56 277.75 L 485.14 277.75 L 485.73 277.75 L 486.32 269.70 L 486.91 270.95 L 487.50 267.20 L 488.09 264.15 L 488.68 264.01 L 489.27 265.40 L 489.86 264.70 L 490.44 262.90 L 491.03 259.15 L 491.62 262.35 L 492.21 259.99 L 492.80 260.82 L 493.39 261.65 L 493.98 258.60 L 494.57 256.79 L 495.16 277.75 L 495.74 251.38 L 496.33 244.86 L 496.92 239.45 L 497.51 235.56 L 498.10 231.54 L 498.69 230.29 L 499.28 230.98 L 499.87 229.87 L 500.46 229.32 L 501.04 225.71 L 501.63 223.49 L 502.22 221.13 L 502.81 230.84 L 503.40 229.59 L 503.99 230.15 L 504.58 230.29 L 505.17 237.50 L 505.76 244.72 L 506.34 249.16 L 506.93 252.63 L 507.52 241.67 L 508.11 231.68 L 508.70 236.95 L 509.29 235.56 L 509.88 240.70 L 510.47 240.42 L 511.06 236.67 L 511.64 230.84 L 512.23 228.34 L 512.82 230.70 L 513.41 224.46 L 514.00 221.82 L 514.59 215.72 L 515.18 210.58 L 515.77 208.64 L 516.36 207.39 L 516.94 203.09 L 517.53 203.09 L 518.12 201.84 L 518.71 199.20 L 519.30 203.36 L 519.89 203.50 L 520.48 205.58 L 521.07 204.47 L 521.66 204.61 L 522.24 207.53 L 522.83 205.31 L 523.42 204.47 L 524.01 201.00 L 524.60 203.92 L 525.19 207.67 L 525.78 211.41 L 526.37 214.61 L 526.96 218.49 L 527.54 221.54 L 528.13 219.46 L 528.72 221.82 L 529.31 221.82 L 529.90 224.46 L 530.49 228.21 L 531.08 234.17 L 531.67 237.09 L 532.26 239.03 L 532.84 243.89 L 533.43 244.58 L 534.02 248.19 L 534.61 249.16 L 535.20 248.19 L 535.79 250.13 L 536.38 246.11 L 536.97 243.19 L 537.56 242.92 L 538.14 241.94 L 538.73 249.16 L 539.32 245.69 L 539.91 248.47 L 540.50 249.58 L 541.09 252.21 L 541.68 254.16 L 542.27 258.04 L 542.86 259.15 L 543.44 258.04 L 544.03 256.79 L 544.62 254.43 L 545.21 252.77 L 545.80 250.97 L 546.39 249.99 L 546.98 242.50 L 547.57 237.09 L 548.16 226.54 L 548.74 221.68 L 549.33 217.24 L 549.92 222.10 L 550.51 220.43 L 551.10 223.07 L 551.69 221.96 L 552.28 224.18 L 552.87 223.07 L 553.46 222.79 L 554.04 218.21 L 554.63 219.18 L 555.22 220.57 L 555.81 224.46 L 556.40 230.29 L 556.99 231.26 L 557.58 231.26 L 558.17 231.26 L 558.76 230.84 L 559.34 230.84 L 559.93 230.98 L 560.52 231.40 L 561.11 231.26 L 561.70 230.29 L 562.29 230.56 L 562.88 230.29 L 563.47 230.70 L 564.06 231.26 L 564.64 230.70 L 565.23 232.65 L 565.82 234.59 L 566.41 235.56 L 567.00 237.37 L 567.59 238.06 L 568.18 241.53 L 568.77 248.33 L 569.36 246.39 L 569.94 246.52 L 570.53 247.36 L 571.12 248.33 L 571.71 249.44 L 572.30 249.72 L 572.89 249.86 L 573.48 249.58 L 574.07 249.86 L 574.66 249.44 L 575.24 248.61 L 575.83 249.58 L 576.42 247.36 L 577.01 248.05 L 577.60 246.25 L 578.19 246.94 L 578.78 246.39 L 579.37 246.11 L 579.96 245.00 L 580.54 244.72 L 581.13 245.55 L 581.72 246.25 L 582.31 246.25 L 582.90 245.97 L 583.49 245.69 L 584.08 245.28 L 584.67 245.28 L 585.26 244.30 L 585.84 243.47 L 586.43 243.06 L 587.02 242.64 L 587.61 243.47 L 588.20 241.67 L 588.79 239.17 L 589.38 235.28 L 589.97 231.95 L 590.56 227.79 L 591.14 225.01 L 591.73 222.52" stroke="#1976D2" />
<text x="90" y="289.75" font-size="14" font-weight="700">Inclinação (graus)</text>
<rect class="event" x="266.67" y="295.75" width="219.07" height="192.75" />
<line class="eventline" x1="266.67" y1="295.75" x2="266.67" y2="488.50" />
<line class="eventline" x1="485.73" y1="295.75" x2="485.73" y2="488.50" />
<line class="grid" x1="90" y1="488.50" x2="1150" y2="488.50" />
<text class="small" x="80" y="492.50" text-anchor="end">-20.0</text>
<line class="grid" x1="90" y1="449.95" x2="1150" y2="449.95" />
<text class="small" x="80" y="453.95" text-anchor="end">-10.0</text>
<line class="grid" x1="90" y1="411.40" x2="1150" y2="411.40" />
<text class="small" x="80" y="415.40" text-anchor="end">0.00</text>
<line class="grid" x1="90" y1="372.85" x2="1150" y2="372.85" />
<text class="small" x="80" y="376.85" text-anchor="end">10.0</text>
<line class="grid" x1="90" y1="334.30" x2="1150" y2="334.30" />
<text class="small" x="80" y="338.30" text-anchor="end">20.0</text>
<line class="grid" x1="90" y1="295.75" x2="1150" y2="295.75" />
<text class="small" x="80" y="299.75" text-anchor="end">30.0</text>
<line class="grid" x1="90.00" y1="295.75" x2="90.00" y2="488.50" />
<line class="grid" x1="266.67" y1="295.75" x2="266.67" y2="488.50" />
<line class="grid" x1="443.33" y1="295.75" x2="443.33" y2="488.50" />
<line class="grid" x1="620.00" y1="295.75" x2="620.00" y2="488.50" />
<line class="grid" x1="796.67" y1="295.75" x2="796.67" y2="488.50" />
<line class="grid" x1="973.33" y1="295.75" x2="973.33" y2="488.50" />
<line class="grid" x1="1150.00" y1="295.75" x2="1150.00" y2="488.50" />
<line class="axis" x1="90" y1="295.75" x2="90" y2="488.50" />
<line class="axis" x1="90" y1="488.50" x2="1150" y2="488.50" />
<path class="series" d="M 160.67 363.22 L 161.26 367.33 L 161.84 368.74 L 162.43 369.48 L 163.02 369.41 L 163.61 372.54 L 164.20 372.21 L 164.79 367.45 L 165.38 368.37 L 165.97 365.07 L 166.56 362.51 L 167.14 369.02 L 167.73 369.36 L 168.32 367.59 L 168.91 365.49 L 169.50 360.15 L 170.09 359.11 L 170.68 356.23 L 171.27 357.98 L 171.86 352.34 L 172.44 344.71 L 173.03 345.44 L 173.62 336.93 L 174.21 333.38 L 174.80 337.23 L 175.39 335.88 L 175.98 342.84 L 176.57 353.41 L 177.16 354.35 L 177.74 346.84 L 178.33 344.58 L 178.92 343.53 L 179.51 343.14 L 180.10 343.12 L 180.69 344.94 L 181.28 343.31 L 181.87 346.26 L 182.46 343.89 L 183.04 344.14 L 183.63 337.94 L 184.22 332.61 L 184.81 321.15 L 185.40 332.81 L 185.99 333.46 L 186.58 346.05 L 187.17 352.22 L 187.76 361.09 L 188.34 361.86 L 188.93 364.37 L 189.52 351.42 L 190.11 360.82 L 190.70 355.64 L 191.29 352.97 L 191.88 344.90 L 192.47 357.31 L 193.06 358.97 L 193.64 357.13 L 194.23 350.59 L 194.82 357.92 L 195.41 353.55 L 196.00 353.04 L 196.59 363.76 L 197.18 366.34 L 197.77 377.47 L 198.36 361.78 L 198.94 366.34 L 199.53 368.00 L 200.12 368.41 L 200.71 368.58 L 201.30 368.51 L 201.89 368.46 L 202.48 366.61 L 203.07 360.82 L 203.66 366.93 L 204.24 369.64 L 204.83 369.79 L 205.42 372.02 L 206.01 369.37 L 206.60 366.80 L 207.19 367.11 L 207.78 367.07 L 208.37 367.10 L 208.96 367.06 L 209.54 367.12 L 210.13 367.15 L 210.72 367.14 L 211.31 367.05 L 211.90 366.87 L 212.49 366.76 L 213.08 366.75 L 213.67 368.21 L 214.26 372.15 L 214.84 371.90 L 215.43 371.57 L 216.02 377.59 L 216.61 373.86 L 217.20 381.23 L 217.79 378.34 L 218.38 381.52 L 218.97 365.31 L 219.56 353.91 L 220.14 350.65 L 220.73 346.91 L 221.32 345.80 L 221.91 343.48 L 222.50 339.24 L 223.09 337.48 L 223.68 334.36 L 224.27 354.50 L 224.86 360.87 L 225.44 364.49 L 226.03 354.95 L 226.62 382.23 L 227.21 356.33 L 227.80 375.73 L 228.39 374.44 L 228.98 375.34 L 229.57 367.89 L 230.16 373.20 L 230.74 376.44 L 231.33 372.52 L 231.92 371.95 L 232.51 380.99 L 233.10 368.15 L 233.69 367.31 L 234.28 362.99 L 234.87 368.68 L 235.46 383.05 L 236.04 381.93 L 236.63 360.47 L 237.22 375.57 L 237.81 367.02 L 238.40 370.59 L 238.99 374.61 L 239.58 364.21 L 240.17 362.61 L 240.76 363.36 L 241.34 370.22 L 241.93 362.62 L 242.52 357.14 L 243.11 361.99 L 243.70 356.98 L 244.29 357.36 L 244.88 358.89 L 245.47 357.36 L 246.06 357.75 L 246.64 362.85 L 247.23 358.44 L 247.82 358.88 L 248.41 357.15 L 249.00 351.95 L 249.59 351.95 L 250.18 376.55 L 250.77 373.21 L 251.36 359.05 L 251.94 364.50 L 252.53 363.75 L 253.12 361.02 L 253.71 363.22 L 254.30 358.51 L 254.89 371.33 L 255.48 367.57 L 256.07 365.64 L 256.66 363.90 L 257.24 361.12 L 257.83 358.53 L 258.42 372.01 L 259.01 366.19 L 259.60 362.84 L 260.19 370.17 L 260.78 373.33 L 261.37 375.81 L 261.96 375.93 L 262.54 363.25 L 263.13 370.23 L 263.72 357.80 L 264.31 350.41 L 264.90 355.91 L 265.49 369.53 L 266.08 369.95 L 266.67 366.78 L 267.26 381.12 L 267.84 378.95 L 268.43 378.59 L 269.02 378.77 L 269.61 378.90 L 270.20 378.82 L 270.79 378.86 L 271.38 378.83 L 271.97 378.87 L 272.56 378.87 L 273.14 378.87 L 273.73 378.85 L 274.32 378.87 L 274.91 378.86 L 275.50 378.83 L 276.09 378.87 L 276.68 378.91 L 277.27 378.89 L 277.86 378.86 L 278.44 378.86 L 279.03 378.87 L 279.62 378.84 L 280.21 378.92 L 280.80 378.90 L 281.39 378.96 L 281.98 378.94 L 282.57 378.93 L 283.16 378.96 L 283.74 378.95 L 284.33 378.92 L 284.92 378.93 L 285.51 378.97 L 286.10 378.92 L 286.69 378.93 L 287.28 378.91 L 287.87 378.92 L 288.46 378.91 L 289.04 378.96 L 289.63 378.90 L 290.22 378.92 L 290.81 378.91 L 291.40 378.92 L 291.99 378.93 L 292.58 378.94 L 293.17 378.91 L 293.76 378.93 L 294.34 378.92 L 294.93 378.91 L 295.52 378.89 L 296.11 378.85 L 296.70 378.86 L 297.29 378.89 L 297.88 378.86 L 298.47 378.93 L 299.06 378.94 L 299.64 378.88 L 300.23 378.90 L 300.82 378.91 L 301.41 378.88 L 302.00 378.89 L 302.59 378.85 L 303.18 378.82 L 303.77 378.86 L 304.36 378.92 L 304.94 378.90 L 305.53 378.91 L 306.12 378.92 L 306.71 378.96 L 307.30 378.87 L 307.89 378.92 L 308.48 378.92 L 309.07 378.91 L 309.66 378.93 L 310.24 378.92 L 310.83 378.92 L 311.42 378.91 L 312.01 378.92 L 312.60 378.88 L 313.19 378.91 L 313.78 378.93 L 314.37 378.93 L 314.96 378.92 L 315.54 378.91 L 316.13 378.90 L 316.72 378.92 L 317.31 378.92 L 317.90 378.93 L 318.49 378.89 L 319.08 378.91 L 319.67 378.93 L 320.26 378.92 L 320.84 378.96 L 321.43 378.99 L 322.02 378.91 L 322.61 378.93 L 323.20 378.91 L 323.79 378.93 L 324.38 378.94 L 324.97 378.94 L 325.56 378.93 L 326.14 378.91 L 326.73 378.93 L 327.32 378.98 L 327.91 378.93 L 328.50 378.92 L 329.09 378.94 L 329.68 378.96 L 330.27 378.93 L 330.86 379.04 L 331.44 378.86 L 332.03 379.02 L 332.62 379.00 L 333.21 379.07 L 333.80 380.07 L 334.39 377.37 L 334.98 379.56 L 335.57 375.48 L 336.16 374.44 L 336.74 380.17 L 337.33 380.69 L 337.92 377.30 L 338.51 384.92 L 339.10 377.78 L 339.69 381.41 L 340.28 379.51 L 340.87 379.38 L 341.46 392.61 L 342.04 386.74 L 342.63 376.17 L 343.22 380.56 L 343.81 368.45 L 344.40 384.45 L 344.99 380.82 L 345.58 391.36 L 346.17 371.33 L 346.76 393.16 L 347.34 377.29 L 347.93 375.73 L 348.52 375.96 L 349.11 370.59 L 349.70 362.52 L 350.29 366.12 L 350.88 359.52 L 351.47 359.45 L 352.06 346.68 L 352.64 344.01 L 353.23 344.48 L 353.82 351.25 L 354.41 352.14 L 355.00 339.20 L 355.59 356.47 L 356.18 358.36 L 356.77 359.16 L 357.36 358.60 L 357.94 349.76 L 358.53 362.34 L 359.12 351.47 L 359.71 363.58 L 360.30 357.70 L 360.89 354.99 L 361.48 355.37 L 362.07 355.38 L 362.66 355.33 L 363.24 355.35 L 363.83 352.71 L 364.42 345.29 L 365.01 340.55 L 365.60 354.24 L 366.19 353.82 L 366.78 351.25 L 367.37 352.24 L 367.96 355.40 L 368.54 351.47 L 369.13 351.47 L 369.72 355.62 L 370.31 364.52 L 370.90 365.77 L 371.49 353.78 L 372.08 367.92 L 372.67 357.80 L 373.26 363.91 L 373.84 365.03 L 374.43 361.80 L 375.02 364.16 L 375.61 365.59 L 376.20 367.44 L 376.79 368.60 L 377.38 363.37 L 377.97 363.75 L 378.56 362.99 L 379.14 362.61 L 379.73 363.40 L 380.32 363.08 L 380.91 362.88 L 381.50 363.07 L 382.09 362.98 L 382.68 362.96 L 383.27 363.01 L 383.86 362.98 L 384.44 362.99 L 385.03 363.02 L 385.62 362.97 L 386.21 362.95 L 386.80 362.96 L 387.39 362.96 L 387.98 362.98 L 388.57 362.99 L 389.16 362.97 L 389.74 362.88 L 390.33 362.92 L 390.92 363.07 L 391.51 362.95 L 392.10 362.79 L 392.69 363.13 L 393.28 362.99 L 393.87 362.68 L 394.46 362.80 L 395.04 362.90 L 395.63 362.73 L 396.22 362.83 L 396.81 362.88 L 397.40 362.81 L 397.99 362.81 L 398.58 362.83 L 399.17 362.84 L 399.76 362.79 L 400.34 362.84 L 400.93 362.83 L 401.52 362.81 L 402.11 362.75 L 402.70 362.80 L 403.29 362.81 L 403.88 362.92 L 404.47 362.82 L 405.06 361.43 L 405.64 361.67 L 406.23 362.15 L 406.82 361.82 L 407.41 361.91 L 408.00 361.96 L 408.59 361.93 L 409.18 361.92 L 409.77 361.96 L 410.36 361.92 L 410.94 361.95 L 411.53 361.92 L 412.12 361.86 L 412.71 361.94 L 413.30 361.88 L 413.89 361.89 L 414.48 361.87 L 415.07 361.92 L 415.66 361.91 L 416.24 361.91 L 416.83 361.81 L 417.42 362.30 L 418.01 360.68 L 418.60 362.24 L 419.19 361.64 L 419.78 362.27 L 420.37 361.54 L 420.96 361.76 L 421.54 361.80 L 422.13 361.81 L 422.72 361.76 L 423.31 361.75 L 423.90 361.75 L 424.49 361.78 L 425.08 361.73 L 425.67 361.77 L 426.26 361.75 L 426.84 361.74 L 427.43 361.72 L 428.02 361.72 L 428.61 361.71 L 429.20 361.74 L 429.79 361.70 L 430.38 361.72 L 430.97 361.70 L 431.56 361.72 L 432.14 361.76 L 432.73 360.90 L 433.32 362.88 L 433.91 360.82 L 434.50 361.71 L 435.09 361.81 L 435.68 361.57 L 436.27 361.67 L 436.86 361.63 L 437.44 361.68 L 438.03 361.59 L 438.62 361.60 L 439.21 361.59 L 439.80 361.67 L 440.39 361.60 L 440.98 361.66 L 441.57 361.67 L 442.16 361.62 L 442.74 361.63 L 443.33 361.68 L 443.92 361.59 L 444.51 361.59 L 445.10 361.64 L 445.69 361.62 L 446.28 361.66 L 446.87 361.53 L 447.46 362.17 L 448.04 362.43 L 448.63 362.09 L 449.22 362.47 L 449.81 362.31 L 450.40 362.19 L 450.99 362.32 L 451.58 362.33 L 452.17 362.23 L 452.76 362.36 L 453.34 362.25 L 453.93 362.27 L 454.52 362.33 L 455.11 362.28 L 455.70 362.38 L 456.29 362.35 L 456.88 362.35 L 457.47 362.34 L 458.06 362.38 L 458.64 362.30 L 459.23 362.28 L 459.82 362.31 L 460.41 362.31 L 461.00 362.34 L 461.59 362.34 L 462.18 362.56 L 462.77 362.21 L 463.36 363.77 L 463.94 363.78 L 464.53 363.71 L 465.12 363.65 L 465.71 363.48 L 466.30 363.52 L 466.89 363.65 L 467.48 363.61 L 468.07 363.56 L 468.66 363.57 L 469.24 363.66 L 469.83 363.63 L 470.42 363.64 L 471.01 363.66 L 471.60 363.68 L 472.19 363.63 L 472.78 363.68 L 473.37 363.74 L 473.96 363.63 L 474.54 363.69 L 475.13 363.62 L 475.72 364.94 L 476.31 363.53 L 476.90 364.28 L 477.49 364.29 L 478.08 364.16 L 478.67 364.00 L 479.26 364.62 L 479.84 364.49 L 480.43 365.67 L 481.02 362.20 L 481.61 366.82 L 482.20 361.94 L 482.79 366.34 L 483.38 364.83 L 483.97 364.41 L 484.56 365.09 L 485.14 376.90 L 485.73 366.21 L 486.32 361.87 L 486.91 369.60 L 487.50 364.72 L 488.09 363.82 L 488.68 361.04 L 489.27 361.02 L 489.86 361.02 L 490.44 357.70 L 491.03 354.27 L 491.62 346.86 L 492.21 350.80 L 492.80 352.38 L 493.39 357.01 L 493.98 359.03 L 494.57 369.31 L 495.16 370.19 L 495.74 376.63 L 496.33 377.81 L 496.92 379.47 L 497.51 375.51 L 498.10 373.79 L 498.69 372.10 L 499.28 360.24 L 499.87 359.15 L 500.46 363.98 L 501.04 356.32 L 501.63 360.02 L 502.22 354.13 L 502.81 343.74 L 503.40 356.61 L 503.99 361.27 L 504.58 364.00 L 505.17 364.62 L 505.76 356.06 L 506.34 366.39 L 506.93 373.07 L 507.52 372.76 L 508.11 375.06 L 508.70 375.93 L 509.29 373.67 L 509.88 377.82 L 510.47 373.95 L 511.06 382.64 L 511.64 378.21 L 512.23 382.20 L 512.82 377.97 L 513.41 375.60 L 514.00 380.43 L 514.59 378.36 L 515.18 376.96 L 515.77 373.91 L 516.36 372.97 L 516.94 377.18 L 517.53 375.25 L 518.12 373.60 L 518.71 371.32 L 519.30 361.98 L 519.89 361.58 L 520.48 360.02 L 521.07 360.42 L 521.66 367.46 L 522.24 362.30 L 522.83 358.84 L 523.42 371.32 L 524.01 371.13 L 524.60 367.81 L 525.19 368.07 L 525.78 363.17 L 526.37 361.86 L 526.96 363.59 L 527.54 362.66 L 528.13 362.26 L 528.72 359.38 L 529.31 363.13 L 529.90 354.06 L 530.49 352.83 L 531.08 352.59 L 531.67 360.59 L 532.26 358.93 L 532.84 364.77 L 533.43 365.84 L 534.02 367.04 L 534.61 361.40 L 535.20 367.33 L 535.79 375.70 L 536.38 379.42 L 536.97 375.40 L 537.56 376.03 L 538.14 373.50 L 538.73 386.51 L 539.32 398.27 L 539.91 401.05 L 540.50 405.99 L 541.09 405.71 L 541.68 402.93 L 542.27 403.34 L 542.86 401.53 L 543.44 404.23 L 544.03 402.10 L 544.62 400.94 L 545.21 391.07 L 545.80 385.80 L 546.39 387.44 L 546.98 380.25 L 547.57 374.90 L 548.16 369.33 L 548.74 373.50 L 549.33 371.37 L 549.92 376.37 L 550.51 380.22 L 551.10 373.10 L 551.69 361.50 L 552.28 375.36 L 552.87 376.34 L 553.46 379.01 L 554.04 378.47 L 554.63 380.21 L 555.22 385.05 L 555.81 379.68 L 556.40 380.65 L 556.99 387.33 L 557.58 387.72 L 558.17 388.25 L 558.76 387.49 L 559.34 387.60 L 559.93 387.27 L 560.52 387.30 L 561.11 387.32 L 561.70 386.70 L 562.29 386.88 L 562.88 387.43 L 563.47 386.78 L 564.06 387.29 L 564.64 388.48 L 565.23 389.17 L 565.82 389.02 L 566.41 389.84 L 567.00 390.71 L 567.59 391.51 L 568.18 385.71 L 568.77 394.86 L 569.36 394.69 L 569.94 393.08 L 570.53 397.33 L 571.12 397.92 L 571.71 400.30 L 572.30 399.68 L 572.89 399.70 L 573.48 401.13 L 574.07 400.59 L 574.66 400.45 L 575.24 398.82 L 575.83 399.21 L 576.42 398.43 L 577.01 398.21 L 577.60 398.35 L 578.19 397.86 L 578.78 396.31 L 579.37 396.58 L 579.96 396.10 L 580.54 395.93 L 581.13 396.63 L 581.72 397.10 L 582.31 396.10 L 582.90 397.31 L 583.49 394.64 L 584.08 396.33 L 584.67 394.06 L 585.26 391.42 L 585.84 390.28 L 586.43 387.71 L 587.02 385.20 L 587.61 387.98 L 588.20 387.38 L 588.79 385.44 L 589.38 385.74 L 589.97 382.26 L 590.56 380.23 L 591.14 375.26 L 591.73 379.16" stroke="#2E7D32" />
<path class="series" d="M 160.67 392.46 L 161.26 384.71 L 161.84 388.85 L 162.43 389.62 L 163.02 391.16 L 163.61 392.00 L 164.20 403.08 L 164.79 401.63 L 165.38 390.01 L 165.97 397.17 L 166.56 387.05 L 167.14 393.25 L 167.73 382.93 L 168.32 381.38 L 168.91 385.70 L 169.50 385.12 L 170.09 388.00 L 170.68 383.99 L 171.27 386.66 L 171.86 386.03 L 172.44 387.21 L 173.03 395.79 L 173.62 399.66 L 174.21 407.94 L 174.80 405.26 L 175.39 405.32 L 175.98 402.31 L 176.57 397.18 L 177.16 399.34 L 177.74 395.34 L 178.33 391.16 L 178.92 395.13 L 179.51 404.95 L 180.10 400.87 L 180.69 389.76 L 181.28 398.65 L 181.87 405.86 L 182.46 410.63 L 183.04 402.98 L 183.63 399.54 L 184.22 388.39 L 184.81 400.53 L 185.40 398.35 L 185.99 397.26 L 186.58 386.07 L 187.17 391.66 L 187.76 397.65 L 188.34 392.02 L 188.93 376.57 L 189.52 376.62 L 190.11 377.85 L 190.70 403.57 L 191.29 398.23 L 191.88 394.40 L 192.47 378.56 L 193.06 392.50 L 193.64 400.78 L 194.23 396.90 L 194.82 396.16 L 195.41 395.62 L 196.00 400.24 L 196.59 394.56 L 197.18 396.53 L 197.77 394.08 L 198.36 397.92 L 198.94 393.62 L 199.53 396.25 L 200.12 394.48 L 200.71 395.37 L 201.30 395.40 L 201.89 395.05 L 202.48 395.20 L 203.07 397.65 L 203.66 395.02 L 204.24 395.48 L 204.83 396.53 L 205.42 394.04 L 206.01 395.99 L 206.60 396.91 L 207.19 395.92 L 207.78 396.05 L 208.37 396.36 L 208.96 395.89 L 209.54 396.25 L 210.13 396.07 L 210.72 396.12 L 211.31 395.75 L 211.90 396.21 L 212.49 396.00 L 213.08 395.79 L 213.67 395.80 L 214.26 394.53 L 214.84 393.67 L 215.43 395.26 L 216.02 391.29 L 216.61 389.70 L 217.20 386.78 L 217.79 393.12 L 218.38 379.73 L 218.97 370.57 L 219.56 399.41 L 220.14 398.55 L 220.73 400.45 L 221.32 409.42 L 221.91 401.12 L 222.50 404.41 L 223.09 406.13 L 223.68 402.26 L 224.27 410.18 L 224.86 409.75 L 225.44 406.62 L 226.03 399.82 L 226.62 401.96 L 227.21 410.85 L 227.80 401.90 L 228.39 404.57 L 228.98 406.50 L 229.57 405.99 L 230.16 391.28 L 230.74 393.44 L 231.33 390.32 L 231.92 399.53 L 232.51 416.54 L 233.10 403.66 L 233.69 407.72 L 234.28 409.31 L 234.87 406.89 L 235.46 400.26 L 236.04 408.27 L 236.63 422.86 L 237.22 414.20 L 237.81 411.72 L 238.40 414.21 L 238.99 411.43 L 239.58 405.00 L 240.17 407.99 L 240.76 389.01 L 241.34 390.97 L 241.93 395.97 L 242.52 396.62 L 243.11 407.80 L 243.70 410.66 L 244.29 414.57 L 244.88 415.44 L 245.47 408.67 L 246.06 402.60 L 246.64 397.96 L 247.23 409.52 L 247.82 408.78 L 248.41 407.83 L 249.00 409.53 L 249.59 409.53 L 250.18 403.51 L 250.77 412.15 L 251.36 417.57 L 251.94 419.50 L 252.53 425.92 L 253.12 428.00 L 253.71 427.91 L 254.30 423.53 L 254.89 422.02 L 255.48 417.63 L 256.07 400.44 L 256.66 407.41 L 257.24 386.93 L 257.83 393.23 L 258.42 391.04 L 259.01 384.77 L 259.60 396.73 L 260.19 402.36 L 260.78 400.84 L 261.37 407.99 L 261.96 391.88 L 262.54 417.66 L 263.13 386.89 L 263.72 412.02 L 264.31 408.20 L 264.90 417.04 L 265.49 413.55 L 266.08 413.62 L 266.67 416.57 L 267.26 411.35 L 267.84 410.90 L 268.43 412.76 L 269.02 410.85 L 269.61 412.04 L 270.20 411.33 L 270.79 411.46 L 271.38 411.76 L 271.97 411.40 L 272.56 411.50 L 273.14 411.62 L 273.73 411.49 L 274.32 411.53 L 274.91 411.51 L 275.50 411.52 L 276.09 411.49 L 276.68 411.62 L 277.27 411.56 L 277.86 411.49 L 278.44 411.56 L 279.03 411.59 L 279.62 411.55 L 280.21 411.56 L 280.80 411.54 L 281.39 411.58 L 281.98 411.54 L 282.57 411.58 L 283.16 411.55 L 283.74 411.57 L 284.33 411.52 L 284.92 411.58 L 285.51 411.60 L 286.10 411.59 L 286.69 411.56 L 287.28 411.50 L 287.87 411.59 L 288.46 411.53 L 289.04 411.60 L 289.63 411.59 L 290.22 411.54 L 290.81 411.61 L 291.40 411.55 L 291.99 411.58 L 292.58 411.55 L 293.17 411.57 L 293.76 411.52 L 294.34 411.53 L 294.93 411.58 L 295.52 411.55 L 296.11 411.49 L 296.70 411.51 L 297.29 411.51 L 297.88 411.52 L 298.47 411.54 L 299.06 411.53 L 299.64 411.53 L 300.23 411.53 L 300.82 411.50 L 301.41 411.51 L 302.00 411.52 L 302.59 411.50 L 303.18 411.50 L 303.77 411.52 L 304.36 411.51 L 304.94 411.64 L 305.53 411.54 L 306.12 411.59 L 306.71 411.63 L 307.30 411.41 L 307.89 411.63 L 308.48 411.54 L 309.07 411.49 L 309.66 411.56 L 310.24 411.57 L 310.83 411.51 L 311.42 411.56 L 312.01 411.58 L 312.60 411.53 L 313.19 411.57 L 313.78 411.56 L 314.37 411.59 L 314.96 411.52 L 315.54 411.55 L 316.13 411.52 L 316.72 411.55 L 317.31 411.55 L 317.90 411.56 L 318.49 411.54 L 319.08 411.62 L 319.67 411.57 L 320.26 411.55 L 320.84 411.55 L 321.43 411.59 L 322.02 411.55 L 322.61 411.57 L 323.20 411.53 L 323.79 411.57 L 324.38 411.52 L 324.97 411.60 L 325.56 411.51 L 326.14 411.57 L 326.73 411.52 L 327.32 411.56 L 327.91 411.51 L 328.50 411.54 L 329.09 411.51 L 329.68 411.54 L 330.27 411.48 L 330.86 411.51 L 331.44 411.58 L 332.03 411.58 L 332.62 411.44 L 333.21 411.54 L 333.80 411.03 L 334.39 411.93 L 334.98 411.80 L 335.57 413.97 L 336.16 413.41 L 336.74 407.83 L 337.33 408.65 L 337.92 412.06 L 338.51 404.31 L 339.10 409.65 L 339.69 410.86 L 340.28 409.21 L 340.87 413.46 L 341.46 411.65 L 342.04 413.68 L 342.63 419.28 L 343.22 425.29 L 343.81 421.67 L 344.40 424.66 L 344.99 418.93 L 345.58 412.95 L 346.17 418.18 L 346.76 417.48 L 347.34 409.14 L 347.93 405.07 L 348.52 416.91 L 349.11 406.60 L 349.70 404.40 L 350.29 409.68 L 350.88 412.51 L 351.47 413.78 L 352.06 417.21 L 352.64 411.29 L 353.23 418.12 L 353.82 410.62 L 354.41 409.10 L 355.00 416.24 L 355.59 405.79 L 356.18 407.67 L 356.77 405.89 L 357.36 408.71 L 357.94 405.86 L 358.53 403.66 L 359.12 403.74 L 359.71 409.90 L 360.30 406.41 L 360.89 406.37 L 361.48 406.12 L 362.07 406.43 L 362.66 406.23 L 363.24 406.39 L 363.83 404.91 L 364.42 402.39 L 365.01 399.06 L 365.60 402.88 L 366.19 416.44 L 366.78 415.35 L 367.37 415.41 L 367.96 412.56 L 368.54 413.91 L 369.13 413.91 L 369.72 406.11 L 370.31 410.52 L 370.90 402.23 L 371.49 396.57 L 372.08 401.94 L 372.67 400.58 L 373.26 406.49 L 373.84 400.47 L 374.43 403.14 L 375.02 408.74 L 375.61 412.53 L 376.20 413.65 L 376.79 414.62 L 377.38 413.85 L 377.97 414.89 L 378.56 415.29 L 379.14 413.62 L 379.73 414.44 L 380.32 414.83 L 380.91 414.03 L 381.50 414.62 L 382.09 414.27 L 382.68 414.34 L 383.27 414.49 L 383.86 414.32 L 384.44 414.52 L 385.03 414.36 L 385.62 414.47 L 386.21 414.47 L 386.80 414.45 L 387.39 414.48 L 387.98 414.44 L 388.57 414.49 L 389.16 414.45 L 389.74 414.50 L 390.33 414.35 L 390.92 414.54 L 391.51 414.21 L 392.10 414.14 L 392.69 414.65 L 393.28 413.67 L 393.87 414.03 L 394.46 414.39 L 395.04 414.21 L 395.63 414.13 L 396.22 414.14 L 396.81 414.24 L 397.40 414.15 L 397.99 414.13 L 398.58 414.19 L 399.17 414.21 L 399.76 414.18 L 400.34 414.21 L 400.93 414.18 L 401.52 414.20 L 402.11 414.23 L 402.70 414.23 L 403.29 414.14 L 403.88 414.43 L 404.47 412.14 L 405.06 413.42 L 405.64 412.99 L 406.23 412.54 L 406.82 412.88 L 407.41 412.82 L 408.00 412.78 L 408.59 412.76 L 409.18 412.81 L 409.77 412.83 L 410.36 412.79 L 410.94 412.79 L 411.53 412.75 L 412.12 412.82 L 412.71 412.75 L 413.30 412.75 L 413.89 412.83 L 414.48 412.79 L 415.07 412.71 L 415.66 412.86 L 416.24 412.81 L 416.83 412.35 L 417.42 413.45 L 418.01 411.57 L 418.60 412.00 L 419.19 413.03 L 419.78 412.36 L 420.37 412.07 L 420.96 412.28 L 421.54 412.37 L 422.13 412.43 L 422.72 412.35 L 423.31 412.33 L 423.90 412.27 L 424.49 412.30 L 425.08 412.36 L 425.67 412.34 L 426.26 412.39 L 426.84 412.31 L 427.43 412.27 L 428.02 412.34 L 428.61 412.35 L 429.20 412.31 L 429.79 412.29 L 430.38 412.32 L 430.97 412.35 L 431.56 412.33 L 432.14 412.26 L 432.73 411.86 L 433.32 412.06 L 433.91 412.40 L 434.50 412.23 L 435.09 412.27 L 435.68 412.31 L 436.27 412.30 L 436.86 412.30 L 437.44 412.30 L 438.03 412.24 L 438.62 412.28 L 439.21 412.26 L 439.80 412.33 L 440.39 412.34 L 440.98 412.32 L 441.57 412.30 L 442.16 412.31 L 442.74 412.33 L 443.33 412.27 L 443.92 412.26 L 444.51 412.30 L 445.10 412.28 L 445.69 412.30 L 446.28 412.27 L 446.87 412.03 L 447.46 413.11 L 448.04 411.87 L 448.63 412.96 L 449.22 412.67 L 449.81 412.48 L 450.40 412.66 L 450.99 412.68 L 451.58 412.62 L 452.17 412.63 L 452.76 412.63 L 453.34 412.70 L 453.93 412.56 L 454.52 412.68 L 455.11 412.68 L 455.70 412.60 L 456.29 412.67 L 456.88 412.65 L 457.47 412.67 L 458.06 412.63 L 458.64 412.65 L 459.23 412.67 L 459.82 412.66 L 460.41 412.61 L 461.00 412.65 L 461.59 412.67 L 462.18 412.74 L 462.77 412.79 L 463.36 413.35 L 463.94 413.42 L 464.53 413.26 L 465.12 413.22 L 465.71 413.27 L 466.30 413.33 L 466.89 413.30 L 467.48 413.40 L 468.07 413.35 L 468.66 413.31 L 469.24 413.43 L 469.83 413.40 L 470.42 413.40 L 471.01 413.35 L 471.60 413.40 L 472.19 413.43 L 472.78 413.38 L 473.37 413.37 L 473.96 413.39 L 474.54 413.41 L 475.13 413.42 L 475.72 413.39 L 476.31 413.26 L 476.90 412.39 L 477.49 414.46 L 478.08 413.30 L 478.67 413.62 L 479.26 412.71 L 479.84 414.05 L 480.43 411.52 L 481.02 412.98 L 481.61 411.03 L 482.20 410.26 L 482.79 412.75 L 483.38 411.74 L 483.97 411.33 L 484.56 412.12 L 485.14 411.62 L 485.73 414.66 L 486.32 405.51 L 486.91 403.75 L 487.50 409.70 L 488.09 397.97 L 488.68 402.19 L 489.27 405.72 L 489.86 405.72 L 490.44 401.23 L 491.03 418.88 L 491.62 414.50 L 492.21 413.85 L 492.80 401.44 L 493.39 406.65 L 493.98 405.26 L 494.57 413.65 L 495.16 414.23 L 495.74 414.25 L 496.33 416.77 L 496.92 417.84 L 497.51 406.41 L 498.10 411.12 L 498.69 409.88 L 499.28 412.47 L 499.87 412.71 L 500.46 408.71 L 501.04 406.91 L 501.63 403.45 L 502.22 406.09 L 502.81 407.20 L 503.40 408.07 L 503.99 408.21 L 504.58 417.63 L 505.17 421.06 L 505.76 432.17 L 506.34 423.72 L 506.93 429.25 L 507.52 426.58 L 508.11 415.55 L 508.70 428.30 L 509.29 416.89 L 509.88 430.81 L 510.47 414.73 L 511.06 419.65 L 511.64 419.67 L 512.23 410.57 L 512.82 407.20 L 513.41 405.91 L 514.00 416.76 L 514.59 417.28 L 515.18 419.61 L 515.77 423.53 L 516.36 427.54 L 516.94 417.27 L 517.53 410.06 L 518.12 410.19 L 518.71 395.05 L 519.30 405.69 L 519.89 408.90 L 520.48 415.16 L 521.07 426.37 L 521.66 412.36 L 522.24 414.01 L 522.83 413.44 L 523.42 417.05 L 524.01 425.70 L 524.60 412.25 L 525.19 425.65 L 525.78 416.70 L 526.37 421.29 L 526.96 407.56 L 527.54 402.98 L 528.13 428.02 L 528.72 436.89 L 529.31 436.09 L 529.90 445.58 L 530.49 420.40 L 531.08 419.11 L 531.67 419.28 L 532.26 425.53 L 532.84 429.06 L 533.43 423.08 L 534.02 425.35 L 534.61 423.99 L 535.20 414.21 L 535.79 418.48 L 536.38 413.16 L 536.97 415.59 L 537.56 411.20 L 538.14 419.21 L 538.73 407.46 L 539.32 411.40 L 539.91 416.30 L 540.50 416.70 L 541.09 417.49 L 541.68 416.40 L 542.27 417.41 L 542.86 414.14 L 543.44 412.97 L 544.03 411.74 L 544.62 413.82 L 545.21 408.96 L 545.80 411.71 L 546.39 414.72 L 546.98 423.41 L 547.57 422.72 L 548.16 431.14 L 548.74 431.19 L 549.33 435.30 L 549.92 458.46 L 550.51 446.08 L 551.10 442.02 L 551.69 442.20 L 552.28 440.24 L 552.87 440.45 L 553.46 438.38 L 554.04 427.70 L 554.63 422.16 L 555.22 428.19 L 555.81 427.99 L 556.40 425.12 L 556.99 419.58 L 557.58 419.77 L 558.17 419.19 L 558.76 414.94 L 559.34 414.93 L 559.93 417.48 L 560.52 418.20 L 561.11 415.75 L 561.70 412.13 L 562.29 410.04 L 562.88 410.47 L 563.47 407.05 L 564.06 408.09 L 564.64 407.86 L 565.23 409.32 L 565.82 408.82 L 566.41 409.36 L 567.00 412.21 L 567.59 414.69 L 568.18 417.26 L 568.77 416.23 L 569.36 415.11 L 569.94 414.64 L 570.53 409.06 L 571.12 408.40 L 571.71 413.21 L 572.30 412.69 L 572.89 413.71 L 573.48 412.09 L 574.07 415.78 L 574.66 416.52 L 575.24 416.31 L 575.83 420.45 L 576.42 419.50 L 577.01 419.06 L 577.60 419.54 L 578.19 420.13 L 578.78 421.26 L 579.37 419.23 L 579.96 417.84 L 580.54 414.87 L 581.13 415.93 L 581.72 418.66 L 582.31 416.72 L 582.90 418.96 L 583.49 419.93 L 584.08 423.74 L 584.67 421.01 L 585.26 422.30 L 585.84 419.78 L 586.43 419.64 L 587.02 421.20 L 587.61 420.96 L 588.20 418.40 L 588.79 421.28 L 589.38 413.37 L 589.97 417.44 L 590.56 417.19 L 591.14 419.25 L 591.73 419.39" stroke="#6A1B9A" />
<line x1="900.00" y1="307.75" x2="918.00" y2="307.75" stroke="#2E7D32" stroke-width="3" />
<text class="small" x="924.00" y="311.75">pitch</text>
<line x1="900.00" y1="323.75" x2="918.00" y2="323.75" stroke="#6A1B9A" stroke-width="3" />
<text class="small" x="924.00" y="327.75">roll</text>
<text x="90" y="500.50" font-size="14" font-weight="700">Aceleração (magnitude) (u.a.)</text>
<rect class="event" x="266.67" y="506.50" width="219.07" height="192.75" />
<line class="eventline" x1="266.67" y1="506.50" x2="266.67" y2="699.25" />
<line class="eventline" x1="485.73" y1="506.50" x2="485.73" y2="699.25" />
<line class="grid" x1="90" y1="699.25" x2="1150" y2="699.25" />
<text class="small" x="80" y="703.25" text-anchor="end">0.00</text>
<line class="grid" x1="90" y1="660.70" x2="1150" y2="660.70" />
<text class="small" x="80" y="664.70" text-anchor="end">0.50</text>
<line class="grid" x1="90" y1="622.15" x2="1150" y2="622.15" />
<text class="small" x="80" y="626.15" text-anchor="end">1.00</text>
<line class="grid" x1="90" y1="583.60" x2="1150" y2="583.60" />
<text class="small" x="80" y="587.60" text-anchor="end">1.50</text>
<line class="grid" x1="90" y1="545.05" x2="1150" y2="545.05" />
<text class="small" x="80" y="549.05" text-anchor="end">2.00</text>
<line class="grid" x1="90" y1="506.50" x2="1150" y2="506.50" />
<text class="small" x="80" y="510.50" text-anchor="end">2.50</text>
<line class="grid" x1="90.00" y1="506.50" x2="90.00" y2="699.25" />
<line class="grid" x1="266.67" y1="506.50" x2="266.67" y2="699.25" />
<line class="grid" x1="443.33" y1="506.50" x2="443.33" y2="699.25" />
<line class="grid" x1="620.00" y1="506.50" x2="620.00" y2="699.25" />
<line class="grid" x1="796.67" y1="506.50" x2="796.67" y2="699.25" />
<line class="grid" x1="973.33" y1="506.50" x2="973.33" y2="699.25" />
<line class="grid" x1="1150.00" y1="506.50" x2="1150.00" y2="699.25" />
<line class="axis" x1="90" y1="506.50" x2="90" y2="699.25" />
<line class="axis" x1="90" y1="699.25" x2="1150" y2="699.25" />
<path class="series" d="M 160.67 660.28 L 161.26 666.83 L 161.84 678.29 L 162.43 683.04 L 163.02 692.05 L 163.61 675.76 L 164.20 673.05 L 164.79 658.72 L 165.38 689.40 L 165.97 684.67 L 166.56 685.76 L 167.14 696.73 L 167.73 667.90 L 168.32 670.31 L 168.91 687.81 L 169.50 685.13 L 170.09 676.09 L 170.68 668.57 L 171.27 680.31 L 171.86 648.90 L 172.44 629.47 L 173.03 646.23 L 173.62 652.62 L 174.21 667.21 L 174.80 680.16 L 175.39 682.38 L 175.98 665.84 L 176.57 642.90 L 177.16 660.66 L 177.74 671.48 L 178.33 674.12 L 178.92 693.03 L 179.51 674.65 L 180.10 688.98 L 180.69 683.62 L 181.28 685.59 L 181.87 675.53 L 182.46 675.01 L 183.04 683.29 L 183.63 662.61 L 184.22 641.74 L 184.81 659.59 L 185.40 673.30 L 185.99 653.63 L 186.58 661.15 L 187.17 669.88 L 187.76 652.82 L 188.34 663.84 L 188.93 653.85 L 189.52 666.93 L 190.11 676.27 L 190.70 634.76 L 191.29 623.22 L 191.88 670.12 L 192.47 652.35 L 193.06 658.72 L 193.64 679.51 L 194.23 685.28 L 194.82 660.13 L 195.41 675.62 L 196.00 678.82 L 196.59 682.72 L 197.18 678.57 L 197.77 681.75 L 198.36 681.75 L 198.94 685.35 L 199.53 685.09 L 200.12 698.07 L 200.71 697.22 L 201.30 697.92 L 201.89 697.84 L 202.48 698.68 L 203.07 689.03 L 203.66 696.06 L 204.24 688.28 L 204.83 694.68 L 205.42 698.15 L 206.01 689.42 L 206.60 685.86 L 207.19 695.43 L 207.78 697.30 L 208.37 698.50 L 208.96 698.58 L 209.54 698.33 L 210.13 698.57 L 210.72 698.58 L 211.31 698.26 L 211.90 697.59 L 212.49 698.80 L 213.08 698.37 L 213.67 695.50 L 214.26 696.93 L 214.84 685.69 L 215.43 693.41 L 216.02 690.42 L 216.61 683.93 L 217.20 694.56 L 217.79 667.69 L 218.38 674.20 L 218.97 641.71 L 219.56 652.89 L 220.14 650.00 L 220.73 650.26 L 221.32 684.07 L 221.91 682.52 L 222.50 674.81 L 223.09 680.52 L 223.68 671.16 L 224.27 652.02 L 224.86 667.36 L 225.44 677.71 L 226.03 645.25 L 226.62 665.11 L 227.21 659.78 L 227.80 660.00 L 228.39 674.06 L 228.98 639.64 L 229.57 674.20 L 230.16 663.87 L 230.74 686.34 L 231.33 679.59 L 231.92 680.81 L 232.51 654.46 L 233.10 684.05 L 233.69 664.13 L 234.28 660.51 L 234.87 655.39 L 235.46 664.10 L 236.04 690.95 L 236.63 660.46 L 237.22 688.14 L 237.81 681.60 L 238.40 671.08 L 238.99 659.72 L 239.58 637.89 L 240.17 674.23 L 240.76 667.53 L 241.34 654.74 L 241.93 674.75 L 242.52 668.03 L 243.11 673.57 L 243.70 684.32 L 244.29 675.89 L 244.88 674.52 L 245.47 679.59 L 246.06 678.71 L 246.64 678.34 L 247.23 680.84 L 247.82 677.19 L 248.41 667.95 L 249.00 640.16 L 249.59 658.08 L 250.18 656.54 L 250.77 673.91 L 251.36 681.42 L 251.94 678.29 L 252.53 673.91 L 253.12 679.73 L 253.71 670.44 L 254.30 652.66 L 254.89 661.03 L 255.48 645.95 L 256.07 681.27 L 256.66 671.23 L 257.24 664.13 L 257.83 671.68 L 258.42 686.84 L 259.01 664.72 L 259.60 677.62 L 260.19 655.14 L 260.78 681.05 L 261.37 693.33 L 261.96 656.81 L 262.54 664.46 L 263.13 676.85 L 263.72 661.22 L 264.31 661.67 L 264.90 673.97 L 265.49 683.78 L 266.08 679.38 L 266.67 656.52 L 267.26 680.45 L 267.84 680.45 L 268.43 695.99 L 269.02 697.49 L 269.61 699.01 L 270.20 697.68 L 270.79 698.44 L 271.38 698.66 L 271.97 698.42 L 272.56 698.65 L 273.14 698.67 L 273.73 698.60 L 274.32 698.86 L 274.91 698.70 L 275.50 698.86 L 276.09 699.08 L 276.68 699.03 L 277.27 699.08 L 277.86 698.92 L 278.44 699.09 L 279.03 698.94 L 279.62 698.93 L 280.21 699.12 L 280.80 699.09 L 281.39 699.11 L 281.98 699.14 L 282.57 699.01 L 283.16 698.93 L 283.74 699.19 L 284.33 698.91 L 284.92 699.05 L 285.51 699.20 L 286.10 699.12 L 286.69 699.06 L 287.28 699.13 L 287.87 699.15 L 288.46 699.01 L 289.04 699.06 L 289.63 699.07 L 290.22 699.20 L 290.81 699.17 L 291.40 699.21 L 291.99 698.84 L 292.58 699.13 L 293.17 699.13 L 293.76 699.08 L 294.34 699.15 L 294.93 699.20 L 295.52 699.06 L 296.11 698.90 L 296.70 699.08 L 297.29 699.09 L 297.88 699.00 L 298.47 699.20 L 299.06 699.13 L 299.64 699.13 L 300.23 699.13 L 300.82 699.02 L 301.41 699.15 L 302.00 699.03 L 302.59 699.03 L 303.18 699.04 L 303.77 699.16 L 304.36 699.14 L 304.94 698.98 L 305.53 699.02 L 306.12 699.06 L 306.71 698.91 L 307.30 698.90 L 307.89 699.06 L 308.48 699.13 L 309.07 699.02 L 309.66 699.19 L 310.24 699.09 L 310.83 699.12 L 311.42 699.14 L 312.01 699.11 L 312.60 699.05 L 313.19 698.95 L 313.78 699.19 L 314.37 699.12 L 314.96 699.14 L 315.54 698.93 L 316.13 699.05 L 316.72 698.93 L 317.31 699.17 L 317.90 698.70 L 318.49 699.13 L 319.08 698.90 L 319.67 699.19 L 320.26 699.06 L 320.84 699.01 L 321.43 699.06 L 322.02 699.17 L 322.61 698.73 L 323.20 699.18 L 323.79 699.16 L 324.38 699.17 L 324.97 699.09 L 325.56 698.93 L 326.14 698.86 L 326.73 699.15 L 327.32 699.18 L 327.91 699.05 L 328.50 699.10 L 329.09 699.19 L 329.68 699.13 L 330.27 699.14 L 330.86 698.66 L 331.44 698.77 L 332.03 699.09 L 332.62 699.05 L 333.21 697.96 L 333.80 697.21 L 334.39 695.52 L 334.98 696.71 L 335.57 682.81 L 336.16 694.49 L 336.74 668.16 L 337.33 655.83 L 337.92 692.91 L 338.51 692.91 L 339.10 683.93 L 339.69 664.83 L 340.28 687.85 L 340.87 695.04 L 341.46 685.47 L 342.04 650.54 L 342.63 689.55 L 343.22 674.34 L 343.81 686.11 L 344.40 648.26 L 344.99 653.88 L 345.58 686.49 L 346.17 673.91 L 346.76 675.16 L 347.34 667.19 L 347.93 682.83 L 348.52 668.31 L 349.11 670.26 L 349.70 697.12 L 350.29 667.60 L 350.88 676.66 L 351.47 673.40 L 352.06 677.76 L 352.64 663.67 L 353.23 690.84 L 353.82 674.70 L 354.41 683.91 L 355.00 643.03 L 355.59 679.80 L 356.18 685.19 L 356.77 692.32 L 357.36 679.72 L 357.94 688.76 L 358.53 675.41 L 359.12 685.25 L 359.71 689.29 L 360.30 680.34 L 360.89 683.62 L 361.48 697.32 L 362.07 698.55 L 362.66 698.75 L 363.24 699.14 L 363.83 699.15 L 364.42 687.44 L 365.01 689.90 L 365.60 685.25 L 366.19 663.11 L 366.78 657.19 L 367.37 687.55 L 367.96 665.00 L 368.54 670.03 L 369.13 688.07 L 369.72 692.52 L 370.31 680.09 L 370.90 681.16 L 371.49 687.25 L 372.08 694.90 L 372.67 696.68 L 373.26 689.29 L 373.84 687.20 L 374.43 693.37 L 375.02 682.95 L 375.61 671.38 L 376.20 683.87 L 376.79 690.20 L 377.38 691.75 L 377.97 693.32 L 378.56 696.53 L 379.14 695.44 L 379.73 696.95 L 380.32 697.70 L 380.91 699.05 L 381.50 698.59 L 382.09 698.69 L 382.68 698.69 L 383.27 698.91 L 383.86 699.10 L 384.44 699.02 L 385.03 699.08 L 385.62 699.10 L 386.21 699.04 L 386.80 699.17 L 387.39 699.11 L 387.98 699.14 L 388.57 699.07 L 389.16 699.02 L 389.74 698.41 L 390.33 697.80 L 390.92 698.23 L 391.51 695.70 L 392.10 696.46 L 392.69 696.78 L 393.28 698.10 L 393.87 698.22 L 394.46 699.00 L 395.04 698.54 L 395.63 699.01 L 396.22 698.98 L 396.81 699.08 L 397.40 699.04 L 397.99 699.16 L 398.58 699.09 L 399.17 699.19 L 399.76 699.19 L 400.34 699.17 L 400.93 699.06 L 401.52 699.01 L 402.11 699.11 L 402.70 699.21 L 403.29 698.45 L 403.88 696.42 L 404.47 694.96 L 405.06 696.96 L 405.64 698.96 L 406.23 698.96 L 406.82 698.74 L 407.41 698.84 L 408.00 698.89 L 408.59 699.00 L 409.18 699.13 L 409.77 699.02 L 410.36 699.02 L 410.94 699.00 L 411.53 699.20 L 412.12 699.16 L 412.71 699.06 L 413.30 699.07 L 413.89 699.04 L 414.48 699.13 L 415.07 699.08 L 415.66 699.09 L 416.24 699.10 L 416.83 698.62 L 417.42 698.23 L 418.01 693.67 L 418.60 697.58 L 419.19 697.56 L 419.78 696.18 L 420.37 698.23 L 420.96 698.05 L 421.54 698.81 L 422.13 698.93 L 422.72 699.06 L 423.31 699.05 L 423.90 699.08 L 424.49 699.10 L 425.08 699.14 L 425.67 699.09 L 426.26 699.08 L 426.84 699.15 L 427.43 699.22 L 428.02 699.08 L 428.61 699.03 L 429.20 699.03 L 429.79 699.18 L 430.38 699.17 L 430.97 699.05 L 431.56 699.02 L 432.14 698.63 L 432.73 696.28 L 433.32 692.63 L 433.91 691.87 L 434.50 698.12 L 435.09 698.29 L 435.68 698.64 L 436.27 698.87 L 436.86 699.15 L 437.44 699.04 L 438.03 699.01 L 438.62 698.95 L 439.21 698.88 L 439.80 698.99 L 440.39 699.08 L 440.98 699.12 L 441.57 698.99 L 442.16 699.07 L 442.74 699.17 L 443.33 699.16 L 443.92 699.10 L 444.51 699.21 L 445.10 699.06 L 445.69 699.05 L 446.28 699.13 L 446.87 696.91 L 447.46 697.65 L 448.04 697.40 L 448.63 697.54 L 449.22 698.96 L 449.81 698.42 L 450.40 698.56 L 450.99 699.07 L 451.58 699.13 L 452.17 699.03 L 452.76 699.02 L 453.34 699.08 L 453.93 699.15 L 454.52 699.17 L 455.11 699.02 L 455.70 699.12 L 456.29 699.12 L 456.88 699.15 L 457.47 699.12 L 458.06 698.92 L 458.64 699.05 L 459.23 699.07 L 459.82 699.17 L 460.41 699.02 L 461.00 699.17 L 461.59 699.14 L 462.18 698.73 L 462.77 698.53 L 463.36 698.37 L 463.94 698.28 L 464.53 697.67 L 465.12 699.06 L 465.71 698.67 L 466.30 699.07 L 466.89 698.87 L 467.48 699.07 L 468.07 699.05 L 468.66 699.03 L 469.24 699.12 L 469.83 699.01 L 470.42 698.93 L 471.01 698.97 L 471.60 699.05 L 472.19 699.14 L 472.78 699.03 L 473.37 698.97 L 473.96 699.16 L 474.54 699.07 L 475.13 698.29 L 475.72 696.68 L 476.31 696.68 L 476.90 695.57 L 477.49 697.50 L 478.08 698.10 L 478.67 697.83 L 479.26 696.44 L 479.84 694.14 L 480.43 687.59 L 481.02 689.31 L 481.61 671.67 L 482.20 692.10 L 482.79 681.26 L 483.38 692.08 L 483.97 693.31 L 484.56 696.93 L 485.14 698.32 L 485.73 667.91 L 486.32 675.64 L 486.91 692.98 L 487.50 690.28 L 488.09 669.21 L 488.68 684.06 L 489.27 690.75 L 489.86 689.90 L 490.44 672.28 L 491.03 683.64 L 491.62 687.66 L 492.21 693.20 L 492.80 694.18 L 493.39 683.00 L 493.98 687.21 L 494.57 673.91 L 495.16 681.19 L 495.74 656.93 L 496.33 679.73 L 496.92 684.41 L 497.51 685.65 L 498.10 694.06 L 498.69 659.80 L 499.28 676.85 L 499.87 657.36 L 500.46 686.29 L 501.04 665.83 L 501.63 665.29 L 502.22 656.56 L 502.81 653.06 L 503.40 650.50 L 503.99 687.20 L 504.58 670.81 L 505.17 627.40 L 505.76 601.35 L 506.34 655.61 L 506.93 667.43 L 507.52 686.14 L 508.11 683.04 L 508.70 668.08 L 509.29 668.96 L 509.88 669.81 L 510.47 685.41 L 511.06 644.73 L 511.64 687.90 L 512.23 667.23 L 512.82 670.55 L 513.41 676.41 L 514.00 674.13 L 514.59 672.15 L 515.18 688.14 L 515.77 686.24 L 516.36 683.66 L 516.94 672.78 L 517.53 664.20 L 518.12 649.76 L 518.71 659.68 L 519.30 657.69 L 519.89 630.47 L 520.48 594.57 L 521.07 619.50 L 521.66 679.71 L 522.24 640.25 L 522.83 661.83 L 523.42 681.66 L 524.01 645.82 L 524.60 645.10 L 525.19 659.50 L 525.78 672.23 L 526.37 686.06 L 526.96 669.72 L 527.54 668.03 L 528.13 675.28 L 528.72 680.39 L 529.31 674.55 L 529.90 672.02 L 530.49 676.47 L 531.08 667.71 L 531.67 675.66 L 532.26 686.93 L 532.84 693.63 L 533.43 666.24 L 534.02 637.01 L 534.61 666.85 L 535.20 678.60 L 535.79 684.84 L 536.38 685.47 L 536.97 686.79 L 537.56 693.67 L 538.14 668.94 L 538.73 691.44 L 539.32 678.96 L 539.91 686.93 L 540.50 682.54 L 541.09 694.80 L 541.68 691.38 L 542.27 681.16 L 542.86 672.17 L 543.44 688.17 L 544.03 688.17 L 544.62 688.50 L 545.21 689.01 L 545.80 685.30 L 546.39 683.74 L 546.98 660.71 L 547.57 671.96 L 548.16 671.31 L 548.74 683.54 L 549.33 675.49 L 549.92 652.75 L 550.51 639.44 L 551.10 686.44 L 551.69 666.08 L 552.28 693.65 L 552.87 688.47 L 553.46 672.50 L 554.04 683.21 L 554.63 667.50 L 555.22 680.73 L 555.81 666.18 L 556.40 676.23 L 556.99 681.19 L 557.58 686.31 L 558.17 687.17 L 558.76 691.79 L 559.34 697.78 L 559.93 693.22 L 560.52 695.99 L 561.11 694.09 L 561.70 692.37 L 562.29 696.85 L 562.88 693.76 L 563.47 694.49 L 564.06 696.02 L 564.64 692.67 L 565.23 691.66 L 565.82 692.28 L 566.41 694.08 L 567.00 694.36 L 567.59 696.48 L 568.18 687.28 L 568.77 683.40 L 569.36 684.83 L 569.94 688.28 L 570.53 695.36 L 571.12 693.12 L 571.71 694.12 L 572.30 684.67 L 572.89 690.12 L 573.48 693.85 L 574.07 695.28 L 574.66 694.99 L 575.24 692.13 L 575.83 694.26 L 576.42 695.53 L 577.01 696.55 L 577.60 694.28 L 578.19 696.88 L 578.78 696.89 L 579.37 693.62 L 579.96 688.39 L 580.54 694.86 L 581.13 692.14 L 581.72 694.66 L 582.31 692.16 L 582.90 693.51 L 583.49 697.51 L 584.08 695.83 L 584.67 698.15 L 585.26 694.84 L 585.84 696.07 L 586.43 697.20 L 587.02 692.68 L 587.61 686.53 L 588.20 687.43 L 588.79 660.82 L 589.38 680.87 L 589.97 678.85 L 590.56 692.97 L 591.14 688.24 L 591.73 665.55" stroke="#FB8C00" />
<text x="90" y="711.25" font-size="14" font-weight="700">Giroscópio (magnitude) (u.a.)</text>
<rect class="event" x="266.67" y="717.25" width="219.07" height="192.75" />
<line class="eventline" x1="266.67" y1="717.25" x2="266.67" y2="910.00" />
<line class="eventline" x1="485.73" y1="717.25" x2="485.73" y2="910.00" />
<line class="grid" x1="90" y1="910.00" x2="1150" y2="910.00" />
<text class="small" x="80" y="914.00" text-anchor="end">0.00</text>
<line class="grid" x1="90" y1="871.45" x2="1150" y2="871.45" />
<text class="small" x="80" y="875.45" text-anchor="end">0.05</text>
<line class="grid" x1="90" y1="832.90" x2="1150" y2="832.90" />
<text class="small" x="80" y="836.90" text-anchor="end">0.10</text>
<line class="grid" x1="90" y1="794.35" x2="1150" y2="794.35" />
<text class="small" x="80" y="798.35" text-anchor="end">0.15</text>
<line class="grid" x1="90" y1="755.80" x2="1150" y2="755.80" />
<text class="small" x="80" y="759.80" text-anchor="end">0.20</text>
<line class="grid" x1="90" y1="717.25" x2="1150" y2="717.25" />
<text class="small" x="80" y="721.25" text-anchor="end">0.25</text>
<line class="grid" x1="90.00" y1="717.25" x2="90.00" y2="910.00" />
<line class="grid" x1="266.67" y1="717.25" x2="266.67" y2="910.00" />
<line class="grid" x1="443.33" y1="717.25" x2="443.33" y2="910.00" />
<line class="grid" x1="620.00" y1="717.25" x2="620.00" y2="910.00" />
<line class="grid" x1="796.67" y1="717.25" x2="796.67" y2="910.00" />
<line class="grid" x1="973.33" y1="717.25" x2="973.33" y2="910.00" />
<line class="grid" x1="1150.00" y1="717.25" x2="1150.00" y2="910.00" />
<line class="axis" x1="90" y1="717.25" x2="90" y2="910.00" />
<line class="axis" x1="90" y1="910.00" x2="1150" y2="910.00" />
<path class="series" d="M 160.67 845.02 L 161.26 834.42 L 161.84 839.71 L 162.43 837.83 L 163.02 850.73 L 163.61 865.65 L 164.20 893.15 L 164.79 899.96 L 165.38 889.98 L 165.97 897.41 L 166.56 890.26 L 167.14 890.95 L 167.73 869.41 L 168.32 849.75 L 168.91 856.24 L 169.50 861.09 L 170.09 853.30 L 170.68 830.96 L 171.27 835.40 L 171.86 816.07 L 172.44 863.79 L 173.03 881.87 L 173.62 874.47 L 174.21 906.09 L 174.80 899.48 L 175.39 900.82 L 175.98 902.62 L 176.57 896.84 L 177.16 887.89 L 177.74 880.32 L 178.33 870.89 L 178.92 869.83 L 179.51 882.25 L 180.10 878.03 L 180.69 893.19 L 181.28 887.89 L 181.87 891.41 L 182.46 902.59 L 183.04 906.00 L 183.63 888.21 L 184.22 870.26 L 184.81 882.45 L 185.40 876.15 L 185.99 886.16 L 186.58 878.79 L 187.17 888.14 L 187.76 888.78 L 188.34 870.27 L 188.93 821.27 L 189.52 817.63 L 190.11 826.01 L 190.70 873.44 L 191.29 842.99 L 191.88 817.34 L 192.47 844.98 L 193.06 884.51 L 193.64 856.82 L 194.23 870.90 L 194.82 875.16 L 195.41 885.86 L 196.00 901.88 L 196.59 909.27 L 197.18 908.28 L 197.77 901.77 L 198.36 901.77 L 198.94 904.05 L 199.53 909.16 L 200.12 907.75 L 200.71 908.14 L 201.30 908.06 L 201.89 908.23 L 202.48 908.11 L 203.07 907.26 L 203.66 901.86 L 204.24 900.23 L 204.83 901.25 L 205.42 903.42 L 206.01 906.71 L 206.60 908.21 L 207.19 908.46 L 207.78 908.19 L 208.37 908.33 L 208.96 908.26 L 209.54 908.26 L 210.13 908.10 L 210.72 908.17 L 211.31 908.00 L 211.90 908.05 L 212.49 907.77 L 213.08 907.46 L 213.67 907.47 L 214.26 908.28 L 214.84 905.53 L 215.43 896.20 L 216.02 888.64 L 216.61 872.78 L 217.20 855.83 L 217.79 829.20 L 218.38 841.68 L 218.97 812.02 L 219.56 758.86 L 220.14 831.85 L 220.73 879.52 L 221.32 861.74 L 221.91 828.53 L 222.50 836.91 L 223.09 838.07 L 223.68 846.16 L 224.27 844.96 L 224.86 845.65 L 225.44 896.46 L 226.03 881.77 L 226.62 871.52 L 227.21 868.06 L 227.80 876.77 L 228.39 891.25 L 228.98 864.85 L 229.57 867.63 L 230.16 891.06 L 230.74 891.55 L 231.33 891.54 L 231.92 854.46 L 232.51 892.99 L 233.10 879.79 L 233.69 899.51 L 234.28 882.97 L 234.87 886.67 L 235.46 873.90 L 236.04 893.23 L 236.63 869.10 L 237.22 893.09 L 237.81 876.93 L 238.40 879.56 L 238.99 864.33 L 239.58 856.75 L 240.17 891.07 L 240.76 894.92 L 241.34 868.92 L 241.93 875.10 L 242.52 872.79 L 243.11 869.03 L 243.70 863.45 L 244.29 876.82 L 244.88 871.36 L 245.47 864.55 L 246.06 863.95 L 246.64 864.42 L 247.23 890.50 L 247.82 889.12 L 248.41 893.95 L 249.00 881.38 L 249.59 879.75 L 250.18 878.62 L 250.77 889.66 L 251.36 880.25 L 251.94 884.58 L 252.53 866.91 L 253.12 846.97 L 253.71 826.40 L 254.30 843.18 L 254.89 881.39 L 255.48 863.15 L 256.07 853.78 L 256.66 823.27 L 257.24 823.40 L 257.83 795.23 L 258.42 767.36 L 259.01 765.58 L 259.60 775.92 L 260.19 792.94 L 260.78 803.33 L 261.37 807.67 L 261.96 802.05 L 262.54 835.40 L 263.13 830.07 L 263.72 823.61 L 264.31 830.57 L 264.90 852.58 L 265.49 877.30 L 266.08 897.39 L 266.67 907.08 L 267.26 909.10 L 267.84 909.10 L 268.43 908.45 L 269.02 908.27 L 269.61 908.15 L 270.20 908.30 L 270.79 908.20 L 271.38 908.18 L 271.97 908.26 L 272.56 908.22 L 273.14 908.20 L 273.73 908.07 L 274.32 908.22 L 274.91 908.12 L 275.50 909.81 L 276.09 909.76 L 276.68 909.84 L 277.27 909.82 L 277.86 909.79 L 278.44 909.83 L 279.03 909.81 L 279.62 909.77 L 280.21 909.85 L 280.80 909.83 L 281.39 909.77 L 281.98 909.88 L 282.57 909.76 L 283.16 909.78 L 283.74 909.82 L 284.33 909.86 L 284.92 909.72 L 285.51 909.75 L 286.10 909.91 L 286.69 909.81 L 287.28 909.85 L 287.87 909.74 L 288.46 909.90 L 289.04 909.96 L 289.63 909.95 L 290.22 909.91 L 290.81 909.91 L 291.40 909.90 L 291.99 909.86 L 292.58 909.87 L 293.17 909.88 L 293.76 909.87 L 294.34 909.98 L 294.93 909.83 L 295.52 909.92 L 296.11 909.87 L 296.70 909.87 L 297.29 909.80 L 297.88 909.75 L 298.47 909.86 L 299.06 909.91 L 299.64 909.89 L 300.23 909.89 L 300.82 909.89 L 301.41 909.92 L 302.00 909.84 L 302.59 909.84 L 303.18 909.85 L 303.77 909.90 L 304.36 909.86 L 304.94 909.92 L 305.53 909.91 L 306.12 909.92 L 306.71 909.68 L 307.30 909.85 L 307.89 909.72 L 308.48 909.97 L 309.07 909.98 L 309.66 909.95 L 310.24 909.87 L 310.83 909.90 L 311.42 909.88 L 312.01 909.94 L 312.60 909.89 L 313.19 909.89 L 313.78 909.89 L 314.37 909.82 L 314.96 909.86 L 315.54 909.98 L 316.13 909.81 L 316.72 909.76 L 317.31 909.87 L 317.90 909.82 L 318.49 909.73 L 319.08 909.85 L 319.67 909.89 L 320.26 909.84 L 320.84 909.90 L 321.43 909.87 L 322.02 909.91 L 322.61 909.96 L 323.20 909.92 L 323.79 909.88 L 324.38 909.88 L 324.97 909.78 L 325.56 909.78 L 326.14 909.75 L 326.73 909.87 L 327.32 909.93 L 327.91 909.88 L 328.50 909.92 L 329.09 909.90 L 329.68 909.87 L 330.27 909.94 L 330.86 909.33 L 331.44 909.07 L 332.03 909.94 L 332.62 909.97 L 333.21 909.81 L 333.80 908.97 L 334.39 907.51 L 334.98 909.77 L 335.57 904.43 L 336.16 890.92 L 336.74 898.17 L 337.33 905.58 L 337.92 906.69 L 338.51 906.69 L 339.10 885.23 L 339.69 876.48 L 340.28 873.00 L 340.87 856.88 L 341.46 868.71 L 342.04 843.60 L 342.63 825.49 L 343.22 857.02 L 343.81 854.32 L 344.40 871.97 L 344.99 878.95 L 345.58 872.17 L 346.17 869.17 L 346.76 871.83 L 347.34 878.96 L 347.93 886.30 L 348.52 885.12 L 349.11 896.62 L 349.70 882.68 L 350.29 868.06 L 350.88 859.78 L 351.47 862.04 L 352.06 829.10 L 352.64 829.98 L 353.23 816.87 L 353.82 824.73 L 354.41 822.67 L 355.00 844.80 L 355.59 903.25 L 356.18 907.90 L 356.77 904.16 L 357.36 907.59 L 357.94 904.06 L 358.53 907.16 L 359.12 905.65 L 359.71 897.31 L 360.30 901.98 L 360.89 909.69 L 361.48 909.44 L 362.07 909.76 L 362.66 909.77 L 363.24 909.79 L 363.83 909.78 L 364.42 904.00 L 365.01 889.58 L 365.60 847.82 L 366.19 829.95 L 366.78 845.51 L 367.37 861.28 L 367.96 856.79 L 368.54 881.85 L 369.13 889.03 L 369.72 893.28 L 370.31 896.34 L 370.90 899.72 L 371.49 896.78 L 372.08 903.93 L 372.67 896.03 L 373.26 897.86 L 373.84 902.78 L 374.43 889.08 L 375.02 898.66 L 375.61 908.15 L 376.20 903.38 L 376.79 906.19 L 377.38 909.00 L 377.97 908.37 L 378.56 909.80 L 379.14 909.13 L 379.73 909.73 L 380.32 909.53 L 380.91 909.73 L 381.50 909.73 L 382.09 909.86 L 382.68 909.79 L 383.27 909.68 L 383.86 909.94 L 384.44 909.80 L 385.03 909.77 L 385.62 909.82 L 386.21 909.88 L 386.80 909.90 L 387.39 909.81 L 387.98 909.94 L 388.57 909.88 L 389.16 909.89 L 389.74 909.70 L 390.33 909.57 L 390.92 908.34 L 391.51 909.41 L 392.10 909.07 L 392.69 909.41 L 393.28 909.86 L 393.87 909.72 L 394.46 909.84 L 395.04 909.92 L 395.63 909.84 L 396.22 909.89 L 396.81 909.90 L 397.40 909.91 L 397.99 909.88 L 398.58 909.89 L 399.17 909.88 L 399.76 909.97 L 400.34 909.90 L 400.93 909.88 L 401.52 909.76 L 402.11 909.86 L 402.70 909.83 L 403.29 909.81 L 403.88 904.42 L 404.47 909.47 L 405.06 909.42 L 405.64 909.69 L 406.23 909.69 L 406.82 909.83 L 407.41 909.78 L 408.00 909.85 L 408.59 909.88 L 409.18 909.96 L 409.77 909.80 L 410.36 909.71 L 410.94 909.86 L 411.53 909.87 L 412.12 909.84 L 412.71 909.86 L 413.30 909.82 L 413.89 909.88 L 414.48 909.85 L 415.07 909.89 L 415.66 909.93 L 416.24 909.87 L 416.83 909.65 L 417.42 909.42 L 418.01 907.34 L 418.60 909.01 L 419.19 909.37 L 419.78 909.68 L 420.37 909.79 L 420.96 909.82 L 421.54 909.75 L 422.13 909.98 L 422.72 909.91 L 423.31 909.86 L 423.90 909.84 L 424.49 909.91 L 425.08 909.78 L 425.67 909.88 L 426.26 909.88 L 426.84 909.80 L 427.43 909.84 L 428.02 909.88 L 428.61 909.89 L 429.20 909.83 L 429.79 909.86 L 430.38 909.85 L 430.97 909.94 L 431.56 909.94 L 432.14 909.76 L 432.73 907.21 L 433.32 907.80 L 433.91 909.85 L 434.50 909.76 L 435.09 909.86 L 435.68 909.85 L 436.27 909.98 L 436.86 909.91 L 437.44 909.82 L 438.03 909.91 L 438.62 909.87 L 439.21 909.91 L 439.80 909.88 L 440.39 909.92 L 440.98 909.91 L 441.57 909.90 L 442.16 909.87 L 442.74 909.85 L 443.33 909.83 L 443.92 909.88 L 444.51 909.81 L 445.10 909.78 L 445.69 909.92 L 446.28 909.87 L 446.87 909.85 L 447.46 907.99 L 448.04 909.46 L 448.63 909.80 L 449.22 909.77 L 449.81 909.88 L 450.40 909.89 L 450.99 909.87 L 451.58 909.81 L 452.17 909.88 L 452.76 909.84 L 453.34 909.75 L 453.93 909.85 L 454.52 909.88 L 455.11 909.95 L 455.70 909.87 L 456.29 909.90 L 456.88 909.87 L 457.47 909.92 L 458.06 909.89 L 458.64 909.83 L 459.23 909.77 L 459.82 909.97 L 460.41 909.89 L 461.00 909.92 L 461.59 909.91 L 462.18 908.60 L 462.77 908.01 L 463.36 908.60 L 463.94 909.35 L 464.53 909.92 L 465.12 909.90 L 465.71 909.77 L 466.30 909.74 L 466.89 909.67 L 467.48 909.56 L 468.07 909.73 L 468.66 909.59 L 469.24 909.94 L 469.83 909.86 L 470.42 909.97 L 471.01 909.98 L 471.60 909.90 L 472.19 909.83 L 472.78 909.94 L 473.37 909.95 L 473.96 909.93 L 474.54 909.80 L 475.13 908.43 L 475.72 909.72 L 476.31 909.72 L 476.90 908.03 L 477.49 908.89 L 478.08 909.34 L 478.67 909.23 L 479.26 909.20 L 479.84 907.98 L 480.43 903.67 L 481.02 905.58 L 481.61 905.32 L 482.20 904.80 L 482.79 908.09 L 483.38 908.88 L 483.97 907.57 L 484.56 909.61 L 485.14 909.61 L 485.73 905.95 L 486.32 888.79 L 486.91 891.23 L 487.50 883.48 L 488.09 896.34 L 488.68 879.73 L 489.27 879.25 L 489.86 879.00 L 490.44 863.15 L 491.03 870.50 L 491.62 862.69 L 492.21 859.35 L 492.80 866.31 L 493.39 860.90 L 493.98 851.10 L 494.57 861.72 L 495.16 858.30 L 495.74 858.86 L 496.33 864.07 L 496.92 875.47 L 497.51 891.76 L 498.10 903.48 L 498.69 897.29 L 499.28 889.31 L 499.87 892.92 L 500.46 890.60 L 501.04 886.34 L 501.63 869.10 L 502.22 869.22 L 502.81 872.52 L 503.40 859.04 L 503.99 850.50 L 504.58 857.01 L 505.17 877.94 L 505.76 889.86 L 506.34 900.95 L 506.93 887.92 L 507.52 887.27 L 508.11 869.13 L 508.70 873.09 L 509.29 864.07 L 509.88 867.29 L 510.47 876.50 L 511.06 869.69 L 511.64 860.35 L 512.23 873.24 L 512.82 881.69 L 513.41 888.97 L 514.00 900.67 L 514.59 896.38 L 515.18 872.81 L 515.77 867.85 L 516.36 883.14 L 516.94 900.40 L 517.53 888.40 L 518.12 853.80 L 518.71 867.82 L 519.30 873.56 L 519.89 867.70 L 520.48 872.55 L 521.07 887.26 L 521.66 892.45 L 522.24 891.26 L 522.83 895.07 L 523.42 867.77 L 524.01 862.54 L 524.60 865.09 L 525.19 882.70 L 525.78 878.01 L 526.37 874.85 L 526.96 885.78 L 527.54 850.54 L 528.13 851.89 L 528.72 865.34 L 529.31 877.21 L 529.90 879.15 L 530.49 901.10 L 531.08 886.09 L 531.67 887.38 L 532.26 880.49 L 532.84 883.93 L 533.43 891.50 L 534.02 891.19 L 534.61 875.02 L 535.20 874.63 L 535.79 891.40 L 536.38 889.23 L 536.97 892.45 L 537.56 897.22 L 538.14 861.58 L 538.73 868.94 L 539.32 883.00 L 539.91 888.77 L 540.50 888.96 L 541.09 893.04 L 541.68 895.69 L 542.27 891.73 L 542.86 897.53 L 543.44 895.41 L 544.03 895.41 L 544.62 896.50 L 545.21 888.61 L 545.80 884.87 L 546.39 886.28 L 546.98 867.63 L 547.57 856.31 L 548.16 849.25 L 548.74 836.99 L 549.33 878.86 L 549.92 835.99 L 550.51 838.61 L 551.10 846.26 L 551.69 839.95 L 552.28 848.34 L 552.87 856.78 L 553.46 854.42 L 554.04 863.39 L 554.63 885.99 L 555.22 876.67 L 555.81 879.06 L 556.40 876.32 L 556.99 888.02 L 557.58 899.90 L 558.17 902.23 L 558.76 902.70 L 559.34 906.17 L 559.93 906.50 L 560.52 905.76 L 561.11 901.13 L 561.70 897.62 L 562.29 900.58 L 562.88 908.09 L 563.47 902.69 L 564.06 904.29 L 564.64 902.17 L 565.23 903.40 L 565.82 908.06 L 566.41 907.94 L 567.00 900.77 L 567.59 898.35 L 568.18 896.37 L 568.77 900.31 L 569.36 905.00 L 569.94 895.62 L 570.53 890.15 L 571.12 886.81 L 571.71 885.65 L 572.30 890.10 L 572.89 893.44 L 573.48 897.24 L 574.07 901.05 L 574.66 899.72 L 575.24 900.91 L 575.83 902.72 L 576.42 905.17 L 577.01 902.98 L 577.60 897.66 L 578.19 893.62 L 578.78 893.76 L 579.37 894.55 L 579.96 898.41 L 580.54 902.54 L 581.13 907.33 L 581.72 906.66 L 582.31 907.38 L 582.90 903.00 L 583.49 907.07 L 584.08 903.62 L 584.67 896.44 L 585.26 894.27 L 585.84 899.69 L 586.43 897.23 L 587.02 893.66 L 587.61 892.23 L 588.20 891.78 L 588.79 895.64 L 589.38 900.71 L 589.97 881.64 L 590.56 890.07 L 591.14 893.11 L 591.73 880.84" stroke="#E53935" />
<text x="620.00" y="952" font-size="15" text-anchor="middle">minutos (relativo ao início do evento)</text>
<text class="small" x="90.00" y="936" text-anchor="middle">-5.00</text>
<text class="small" x="266.67" y="936" text-anchor="middle">0.00</text>
<text class="small" x="443.33" y="936" text-anchor="middle">5.00</text>
<text class="small" x="620.00" y="936" text-anchor="middle">10.0</text>
<text class="small" x="796.67" y="936" text-anchor="middle">15.0</text>
<text class="small" x="973.33" y="936" text-anchor="middle">20.0</text>
<text class="small" x="1150.00" y="936" text-anchor="middle">25.0</text>
</svg>