<?xml version="1.0" encoding="UTF-8"?>
<svg xmlns="http://www.w3.org/2000/svg" width="1180" height="980" viewBox="0 0 1180 980">
<style>
text { font-family: -apple-system, BlinkMacSystemFont, 'Segoe UI', Roboto, Helvetica, Arial, sans-serif; fill: #111; }
.small { font-size: 12px; fill: #222; }
.title { font-size: 18px; font-weight: 700; }
.axis { stroke: #111; stroke-width: 1.4; }
.grid { stroke: #E6E6E6; stroke-width: 1; }
.event { fill: #FFEB3B; fill-opacity: 0.18; }
.eventline { stroke: #F9A825; stroke-width: 1.2; stroke-dasharray: 4 3; }
.series { fill: none; stroke-width: 1.8; }
</style>
<text class="title" x="90" y="34">ciclo 6 — espera_basculamento — 2025-12-12T19:46:11-03:00 → 2025-12-12T19:46:44-03:00 (span 33s, dur 34s)</text>
<text class="small" x="90" y="54">GPS: -11.692690,-47.165344  hotspot: -11.693,-47.165</text>
<text class="small" x="90" y="70">Janela: -3.00 → 3.55 min (relativo ao início do evento)</text>
<text x="90" y="79.00" font-size="14" font-weight="700">Velocidade (km/h)</text>
<rect class="event" x="443.33" y="85.00" width="48.58" height="192.75" />
<line class="eventline" x1="443.33" y1="85.00" x2="443.33" y2="277.75" />
<line class="eventline" x1="491.92" y1="85.00" x2="491.92" y2="277.75" />
<line class="grid" x1="90" y1="277.75" x2="1150" y2="277.75" />
<text class="small" x="80" y="281.75" text-anchor="end">0.00</text>
<line class="grid" x1="90" y1="239.20" x2="1150" y2="239.20" />
<text class="small" x="80" y="243.20" text-anchor="end">10.0</text>
<line class="grid" x1="90" y1="200.65" x2="1150" y2="200.65" />
<text class="small" x="80" y="204.65" text-anchor="end">20.0</text>
<line class="grid" x1="90" y1="162.10" x2="1150" y2="162.10" />
<text class="small" x="80" y="166.10" text-anchor="end">30.0</text>
<line class="grid" x1="90" y1="123.55" x2="1150" y2="123.55" />
<text class="small" x="80" y="127.55" text-anchor="end">40.0</text>
<line class="grid" x1="90" y1="85.00" x2="1150" y2="85.00" />
<text class="small" x="80" y="89.00" text-anchor="end">50.0</text>
<line class="grid" x1="90.00" y1="85.00" x2="90.00" y2="277.75" />
<line class="grid" x1="266.67" y1="85.00" x2="266.67" y2="277.75" />
<line class="grid" x1="443.33" y1="85.00" x2="443.33" y2="277.75" />
<line class="grid" x1="620.00" y1="85.00" x2="620.00" y2="277.75" />
<line class="grid" x1="796.67" y1="85.00" x2="796.67" y2="277.75" />
<line class="grid" x1="973.33" y1="85.00" x2="973.33" y2="277.75" />
<line class="grid" x1="1150.00" y1="85.00" x2="1150.00" y2="277.75" />
<line class="axis" x1="90" y1="85.00" x2="90" y2="277.75" />
<line class="axis" x1="90" y1="277.75" x2="1150" y2="277.75" />
<path class="series" d="M 178.33 246.80 L 179.81 246.39 L 181.28 247.22 L 182.75 244.58 L 184.22 244.72 L 185.69 245.28 L 187.17 246.39 L 188.64 246.25 L 190.11 246.94 L 191.58 245.83 L 193.06 246.94 L 194.53 247.63 L 196.00 247.36 L 197.47 245.28 L 198.94 245.97 L 200.42 246.94 L 201.89 245.69 L 203.36 243.89 L 204.83 246.52 L 206.31 248.47 L 207.78 246.94 L 209.25 246.11 L 210.72 248.33 L 212.19 246.25 L 213.67 247.36 L 215.14 246.66 L 216.61 246.66 L 218.08 247.50 L 219.56 246.25 L 221.03 244.86 L 222.50 246.66 L 223.97 245.97 L 225.44 245.83 L 226.92 246.94 L 228.39 249.58 L 229.86 245.41 L 231.33 246.25 L 232.81 244.17 L 234.28 244.44 L 235.75 244.17 L 237.22 244.03 L 238.69 244.72 L 240.17 243.89 L 241.64 245.41 L 243.11 245.55 L 244.58 245.28 L 246.06 245.83 L 247.53 244.03 L 249.00 242.92 L 250.47 246.11 L 251.94 242.78 L 253.42 245.28 L 254.89 244.30 L 256.36 244.03 L 257.83 243.06 L 259.31 244.03 L 260.78 240.56 L 262.25 238.48 L 263.72 239.31 L 265.19 235.42 L 266.67 231.81 L 268.14 228.90 L 269.61 226.82 L 271.08 222.79 L 272.56 214.47 L 274.03 211.69 L 275.50 211.83 L 276.97 210.44 L 278.44 214.19 L 279.92 215.16 L 281.39 212.52 L 282.86 208.22 L 284.33 210.58 L 285.81 208.50 L 287.28 211.14 L 288.75 211.14 L 290.22 224.04 L 291.69 225.15 L 293.17 225.71 L 294.64 225.85 L 296.11 221.41 L 297.58 216.55 L 299.06 215.02 L 300.53 217.10 L 302.00 219.88 L 303.47 221.96 L 304.94 224.60 L 306.42 226.40 L 307.89 231.12 L 309.36 234.03 L 310.83 233.76 L 312.31 233.76 L 313.78 233.62 L 315.25 233.62 L 316.72 234.03 L 318.19 234.45 L 319.67 234.03 L 321.14 234.03 L 322.61 233.76 L 324.08 230.98 L 325.56 229.18 L 327.03 228.62 L 328.50 229.32 L 329.97 225.57 L 331.44 220.43 L 332.92 222.52 L 334.39 223.63 L 335.86 222.93 L 337.33 222.52 L 338.81 223.76 L 340.28 223.90 L 341.75 229.73 L 343.22 230.29 L 344.69 229.32 L 346.17 230.70 L 347.64 232.51 L 349.11 232.37 L 350.58 234.03 L 352.06 231.40 L 353.53 232.92 L 355.00 232.23 L 356.47 238.61 L 357.94 235.70 L 359.42 234.31 L 360.89 231.95 L 362.36 228.07 L 363.83 230.98 L 365.31 227.37 L 366.78 226.82 L 368.25 228.48 L 369.72 232.23 L 371.19 232.23 L 372.67 246.11 L 374.14 251.10 L 375.61 259.29 L 377.08 267.90 L 378.56 273.86 L 380.03 277.75 L 381.50 277.75 L 382.97 277.75 L 384.44 277.75 L 385.92 277.75 L 387.39 277.75 L 388.86 277.75 L 390.33 277.75 L 391.81 277.75 L 393.28 277.75 L 394.75 271.50 L 396.22 269.98 L 397.69 269.70 L 399.17 270.39 L 400.64 271.23 L 402.11 271.78 L 403.58 271.23 L 405.06 271.37 L 406.53 271.78 L 408.00 270.81 L 409.47 270.53 L 410.94 271.23 L 412.42 271.78 L 413.89 270.26 L 415.36 269.70 L 416.83 268.45 L 418.31 266.65 L 419.78 266.65 L 421.25 267.20 L 422.72 266.37 L 424.19 266.51 L 425.67 267.34 L 427.14 269.56 L 428.61 270.12 L 430.08 269.28 L 431.56 269.84 L 433.03 270.81 L 434.50 270.39 L 435.97 270.39 L 437.44 273.73 L 438.92 271.37 L 440.39 270.53 L 441.86 271.50 L 443.33 277.75 L 444.81 277.75 L 446.28 277.75 L 447.75 277.75 L 449.22 277.75 L 450.69 277.75 L 452.17 277.75 L 453.64 277.75 L 455.11 277.75 L 456.58 277.75 L 458.06 277.75 L 459.53 277.75 L 461.00 277.75 L 462.47 277.75 L 463.94 277.75 L 465.42 277.75 L 466.89 277.75 L 468.36 277.75 L 469.83 277.75 L 471.31 277.75 L 472.78 277.75 L 474.25 277.75 L 475.72 277.75 L 477.19 277.75 L 478.67 277.75 L 480.14 277.75 L 481.61 277.75 L 483.08 277.75 L 484.56 277.75 L 486.03 277.75 L 487.50 277.75 L 488.97 277.75 L 490.44 277.75 L 491.92 277.75 L 493.39 270.39 L 494.86 261.79 L 496.33 261.10 L 497.81 271.92 L 499.28 277.75 L 500.75 277.75 L 502.22 277.75 L 503.69 273.73 L 505.17 264.57 L 506.64 271.50 L 508.11 277.75 L 509.58 277.75 L 511.06 269.84 L 512.53 266.93 L 514.00 277.75 L 515.47 277.75 L 516.94 277.75 L 518.42 277.75 L 519.89 277.75 L 521.36 277.75 L 522.83 277.75 L 524.31 277.75 L 525.78 277.75 L 527.25 277.75 L 528.72 277.75 L 530.19 277.75 L 531.67 277.75 L 533.14 277.75 L 534.61 277.75 L 536.08 277.75 L 537.56 277.75 L 539.03 277.75 L 540.50 277.75 L 541.97 277.75 L 543.44 277.75 L 544.92 272.48 L 546.39 271.92 L 547.86 273.31 L 549.33 263.18 L 550.81 259.57 L 552.28 253.60 L 553.75 254.71 L 555.22 249.16 L 556.69 244.03 L 558.17 248.33 L 559.64 247.36 L 561.11 254.16 L 562.58 259.85 L 564.06 257.77 L 565.53 258.74 L 567.00 258.60 L 568.47 259.71 L 569.94 258.88 L 571.42 258.88 L 572.89 252.63 L 574.36 245.41 L 575.83 240.14 L 577.31 242.08 L 578.78 228.90 L 580.25 222.24 L 581.72 217.52 L 583.19 217.52 L 584.67 215.02 L 586.14 212.38 L 587.61 208.78 L 589.08 210.16 L 590.56 215.16 L 592.03 220.43 L 593.50 216.69 L 594.97 217.66 L 596.44 220.99 L 597.92 214.88 L 599.39 209.47 L 600.86 204.06 L 602.33 198.23 L 603.81 197.40 L 605.28 195.31 L 606.75 207.80 L 608.22 205.31 L 609.69 200.03 L 611.17 195.87 L 612.64 192.12 L 614.11 192.82 L 615.58 183.66 L 617.06 183.66 L 618.53 173.66 L 620.00 178.94 L 621.47 175.19 L 622.94 171.72 L 624.42 183.80 L 625.89 171.86 L 627.36 176.44 L 628.83 177.27 L 630.31 180.19 L 631.78 181.85 L 633.25 180.88 L 634.72 177.69 L 636.19 176.02 L 637.67 175.61 L 639.14 179.63 L 640.61 173.53 L 642.08 171.17 L 643.56 167.98 L 645.03 163.40 L 646.50 156.73 L 647.97 149.93 L 649.44 148.82 L 650.92 146.19 L 652.39 145.77 L 653.86 145.77 L 655.33 145.63 L 656.81 152.57 L 658.28 158.95 L 659.75 165.20 L 661.22 171.58 L 662.69 175.19 L 664.17 175.89 L 665.64 180.47 L 667.11 182.96 L 668.58 184.63 L 670.06 183.24 L 671.53 183.80 L 673.00 175.61 L 674.47 165.89 L 675.94 163.12 L 677.42 155.48 L 678.89 147.99 L 680.36 140.77 L 681.83 135.08 L 683.31 133.42 L 684.78 137.58 L 686.25 144.10 L 687.72 147.99 L 689.19 154.10 L 690.67 156.73 L 692.14 161.17 L 693.61 164.37 L 695.08 161.87 L 696.56 155.76 L 698.03 150.07 L 699.50 143.41 L 700.97 138.83 L 702.44 137.44 L 703.92 149.79 L 705.39 157.15 L 706.86 160.48 L 708.33 163.26 L 709.81 165.89 L 711.28 160.62 L 712.75 156.32 L 714.22 151.18 L 715.69 148.55 L 717.17 149.52 L 718.64 148.96 L 720.11 148.27 L 721.58 150.21 L 723.06 149.93 L 724.53 151.32 L 726.00 153.54 L 727.47 154.93 L 728.94 160.20 L 730.42 170.47 L 731.89 176.16 L 733.36 180.05 L 734.83 180.74 L 736.31 184.35 L 737.78 189.35 L 739.25 208.22 L 740.72 218.35 L 742.19 217.94 L 743.67 218.07 L 745.14 218.35 L 746.61 224.04 L 748.08 234.03 L 749.56 251.52 L 751.03 252.49 L 752.50 256.24 L 753.97 249.02 L 755.44 242.50 L 756.92 235.70" stroke="#1976D2" />
<text x="90" y="289.75" font-size="14" font-weight="700">Inclinação (graus)</text>
<rect class="event" x="443.33" y="295.75" width="48.58" height="192.75" />
<line class="eventline" x1="443.33" y1="295.75" x2="443.33" y2="488.50" />
<line class="eventline" x1="491.92" y1="295.75" x2="491.92" y2="488.50" />
<line class="grid" x1="90" y1="488.50" x2="1150" y2="488.50" />
<text class="small" x="80" y="492.50" text-anchor="end">-20.0</text>
<line class="grid" x1="90" y1="449.95" x2="1150" y2="449.95" />
<text class="small" x="80" y="453.95" text-anchor="end">-10.0</text>
<line class="grid" x1="90" y1="411.40" x2="1150" y2="411.40" />
<text class="small" x="80" y="415.40" text-anchor="end">0.00</text>
<line class="grid" x1="90" y1="372.85" x2="1150" y2="372.85" />
<text class="small" x="80" y="376.85" text-anchor="end">10.0</text>
<line class="grid" x1="90" y1="334.30" x2="1150" y2="334.30" />
<text class="small" x="80" y="338.30" text-anchor="end">20.0</text>
<line class="grid" x1="90" y1="295.75" x2="1150" y2="295.75" />
<text class="small" x="80" y="299.75" text-anchor="end">30.0</text>
<line class="grid" x1="90.00" y1="295.75" x2="90.00" y2="488.50" />
<line class="grid" x1="266.67" y1="295.75" x2="266.67" y2="488.50" />
<line class="grid" x1="443.33" y1="295.75" x2="443.33" y2="488.50" />
<line class="grid" x1="620.00" y1="295.75" x2="620.00" y2="488.50" />
<line class="grid" x1="796.67" y1="295.75" x2="796.67" y2="488.50" />
<line class="grid" x1="973.33" y1="295.75" x2="973.33" y2="488.50" />
<line class="grid" x1="1150.00" y1="295.75" x2="1150.00" y2="488.50" />
<line class="axis" x1="90" y1="295.75" x2="90" y2="488.50" />
<line class="axis" x1="90" y1="488.50" x2="1150" y2="488.50" />
<path class="series" d="M 178.33 391.42 L 179.81 389.93 L 181.28 391.95 L 182.75 390.04 L 184.22 390.50 L 185.69 390.43 L 187.17 390.18 L 188.64 388.43 L 190.11 388.92 L 191.58 387.56 L 193.06 386.63 L 194.53 386.68 L 196.00 383.49 L 197.47 382.56 L 198.94 383.57 L 200.42 385.00 L 201.89 386.57 L 203.36 385.86 L 204.83 385.32 L 206.31 388.19 L 207.78 390.25 L 209.25 390.35 L 210.72 392.60 L 212.19 394.94 L 213.67 396.03 L 215.14 395.74 L 216.61 395.07 L 218.08 393.30 L 219.56 393.62 L 221.03 391.23 L 222.50 388.37 L 223.97 389.71 L 225.44 388.51 L 226.92 389.41 L 228.39 389.92 L 229.86 388.69 L 231.33 388.02 L 232.81 386.05 L 234.28 386.05 L 235.75 386.47 L 237.22 386.70 L 238.69 388.12 L 240.17 389.47 L 241.64 389.78 L 243.11 390.83 L 244.58 391.40 L 246.06 393.10 L 247.53 391.73 L 249.00 391.95 L 250.47 392.10 L 251.94 393.12 L 253.42 392.64 L 254.89 390.84 L 256.36 387.65 L 257.83 380.90 L 259.31 386.93 L 260.78 386.65 L 262.25 384.52 L 263.72 386.51 L 265.19 383.97 L 266.67 380.44 L 268.14 373.12 L 269.61 378.76 L 271.08 374.31 L 272.56 367.63 L 274.03 362.54 L 275.50 368.46 L 276.97 358.89 L 278.44 372.30 L 279.92 370.23 L 281.39 370.28 L 282.86 371.75 L 284.33 374.64 L 285.81 366.45 L 287.28 358.48 L 288.75 361.87 L 290.22 367.77 L 291.69 366.67 L 293.17 372.69 L 294.64 370.62 L 296.11 377.24 L 297.58 377.73 L 299.06 378.84 L 300.53 382.23 L 302.00 378.76 L 303.47 379.84 L 304.94 382.26 L 306.42 378.93 L 307.89 375.77 L 309.36 384.48 L 310.83 385.43 L 312.31 382.81 L 313.78 384.21 L 315.25 384.74 L 316.72 383.03 L 318.19 386.88 L 319.67 383.14 L 321.14 382.74 L 322.61 375.49 L 324.08 377.95 L 325.56 370.12 L 327.03 361.05 L 328.50 371.13 L 329.97 373.01 L 331.44 364.70 L 332.92 355.81 L 334.39 357.40 L 335.86 364.35 L 337.33 358.07 L 338.81 360.10 L 340.28 357.28 L 341.75 367.37 L 343.22 366.88 L 344.69 369.31 L 346.17 367.84 L 347.64 369.79 L 349.11 369.58 L 350.58 373.62 L 352.06 369.87 L 353.53 368.03 L 355.00 365.18 L 356.47 364.66 L 357.94 372.12 L 359.42 368.77 L 360.89 365.89 L 362.36 364.19 L 363.83 360.36 L 365.31 364.81 L 366.78 354.46 L 368.25 350.60 L 369.72 349.01 L 371.19 349.09 L 372.67 347.95 L 374.14 354.67 L 375.61 352.38 L 377.08 359.64 L 378.56 361.58 L 380.03 369.61 L 381.50 369.94 L 382.97 369.67 L 384.44 369.49 L 385.92 369.43 L 387.39 369.57 L 388.86 369.52 L 390.33 367.35 L 391.81 364.92 L 393.28 365.02 L 394.75 366.15 L 396.22 368.57 L 397.69 368.35 L 399.17 368.90 L 400.64 367.55 L 402.11 366.46 L 403.58 367.30 L 405.06 367.82 L 406.53 365.65 L 408.00 367.98 L 409.47 369.60 L 410.94 369.96 L 412.42 366.37 L 413.89 368.38 L 415.36 366.62 L 416.83 367.72 L 418.31 369.95 L 419.78 370.08 L 421.25 369.27 L 422.72 370.14 L 424.19 370.65 L 425.67 373.54 L 427.14 371.86 L 428.61 369.77 L 430.08 372.33 L 431.56 372.15 L 433.03 370.05 L 434.50 370.39 L 435.97 376.51 L 437.44 364.27 L 438.92 370.37 L 440.39 371.62 L 441.86 382.29 L 443.33 368.09 L 444.81 370.63 L 446.28 369.07 L 447.75 369.75 L 449.22 369.55 L 450.69 369.52 L 452.17 369.70 L 453.64 369.76 L 455.11 369.79 L 456.58 369.74 L 458.06 369.58 L 459.53 369.51 L 461.00 369.66 L 462.47 369.59 L 463.94 369.11 L 465.42 370.39 L 466.89 370.49 L 468.36 369.76 L 469.83 369.83 L 471.31 370.04 L 472.78 369.93 L 474.25 369.73 L 475.72 370.16 L 477.19 370.26 L 478.67 370.46 L 480.14 370.64 L 481.61 371.14 L 483.08 371.12 L 484.56 371.57 L 486.03 371.66 L 487.50 372.09 L 488.97 372.53 L 490.44 373.20 L 491.92 390.19 L 493.39 386.30 L 494.86 378.33 L 496.33 345.30 L 497.81 378.04 L 499.28 375.59 L 500.75 375.86 L 502.22 387.17 L 503.69 389.06 L 505.17 347.82 L 506.64 375.44 L 508.11 374.07 L 509.58 397.81 L 511.06 359.91 L 512.53 367.29 L 514.00 375.17 L 515.47 373.04 L 516.94 374.24 L 518.42 373.62 L 519.89 373.62 L 521.36 373.27 L 522.83 373.22 L 524.31 373.17 L 525.78 372.96 L 527.25 372.86 L 528.72 372.70 L 530.19 372.74 L 531.67 372.73 L 533.14 372.64 L 534.61 372.94 L 536.08 372.26 L 537.56 372.39 L 539.03 372.50 L 540.50 372.47 L 541.97 372.51 L 543.44 375.12 L 544.92 383.90 L 546.39 364.39 L 547.86 387.61 L 549.33 381.68 L 550.81 379.57 L 552.28 377.45 L 553.75 376.98 L 555.22 373.63 L 556.69 368.26 L 558.17 362.89 L 559.64 363.09 L 561.11 360.97 L 562.58 366.65 L 564.06 373.19 L 565.53 370.63 L 567.00 366.78 L 568.47 379.33 L 569.94 374.75 L 571.42 379.11 L 572.89 379.74 L 574.36 383.18 L 575.83 375.90 L 577.31 372.23 L 578.78 372.23 L 580.25 367.32 L 581.72 368.44 L 583.19 368.12 L 584.67 363.39 L 586.14 361.98 L 587.61 367.45 L 589.08 353.65 L 590.56 356.48 L 592.03 366.44 L 593.50 368.86 L 594.97 370.16 L 596.44 372.74 L 597.92 384.84 L 599.39 374.49 L 600.86 380.82 L 602.33 375.00 L 603.81 356.30 L 605.28 359.20 L 606.75 352.96 L 608.22 354.13 L 609.69 354.63 L 611.17 349.33 L 612.64 349.94 L 614.11 353.48 L 615.58 354.76 L 617.06 351.41 L 618.53 353.43 L 620.00 354.38 L 621.47 360.11 L 622.94 364.43 L 624.42 369.87 L 625.89 355.70 L 627.36 361.29 L 628.83 360.09 L 630.31 357.99 L 631.78 363.73 L 633.25 372.51 L 634.72 368.76 L 636.19 363.90 L 637.67 363.15 L 639.14 362.29 L 640.61 363.23 L 642.08 359.95 L 643.56 354.65 L 645.03 358.21 L 646.50 355.71 L 647.97 351.13 L 649.44 350.13 L 650.92 346.56 L 652.39 342.86 L 653.86 338.71 L 655.33 334.93 L 656.81 336.57 L 658.28 338.17 L 659.75 338.06 L 661.22 337.51 L 662.69 340.30 L 664.17 338.34 L 665.64 337.40 L 667.11 342.51 L 668.58 344.44 L 670.06 341.55 L 671.53 353.97 L 673.00 358.64 L 674.47 351.81 L 675.94 358.67 L 677.42 353.61 L 678.89 356.10 L 680.36 353.89 L 681.83 346.97 L 683.31 337.25 L 684.78 332.48 L 686.25 334.35 L 687.72 335.85 L 689.19 336.59 L 690.67 338.43 L 692.14 338.60 L 693.61 345.41 L 695.08 356.42 L 696.56 356.50 L 698.03 354.84 L 699.50 347.46 L 700.97 344.89 L 702.44 333.47 L 703.92 326.38 L 705.39 337.71 L 706.86 339.88 L 708.33 343.41 L 709.81 350.63 L 711.28 354.28 L 712.75 354.09 L 714.22 347.71 L 715.69 346.27 L 717.17 340.98 L 718.64 340.50 L 720.11 339.24 L 721.58 339.89 L 723.06 338.01 L 724.53 339.49 L 726.00 337.10 L 727.47 333.71 L 728.94 327.75 L 730.42 330.38 L 731.89 335.08 L 733.36 345.66 L 734.83 344.68 L 736.31 345.06 L 737.78 327.83 L 739.25 337.80 L 740.72 350.49 L 742.19 349.28 L 743.67 349.59 L 745.14 339.10 L 746.61 336.20 L 748.08 331.94 L 749.56 355.02 L 751.03 355.24 L 752.50 371.70 L 753.97 374.32 L 755.44 368.15 L 756.92 385.94" stroke="#2E7D32" />
<path class="series" d="M 178.33 406.56 L 179.81 405.57 L 181.28 414.23 L 182.75 408.38 L 184.22 408.72 L 185.69 407.56 L 187.17 404.59 L 188.64 404.08 L 190.11 400.52 L 191.58 402.76 L 193.06 402.63 L 194.53 404.43 L 196.00 401.86 L 197.47 402.29 L 198.94 400.39 L 200.42 404.09 L 201.89 403.37 L 203.36 404.56 L 204.83 402.28 L 206.31 403.77 L 207.78 403.69 L 209.25 405.30 L 210.72 404.92 L 212.19 409.55 L 213.67 406.62 L 215.14 409.17 L 216.61 402.87 L 218.08 404.00 L 219.56 402.98 L 221.03 404.17 L 222.50 403.52 L 223.97 404.72 L 225.44 405.88 L 226.92 404.11 L 228.39 403.15 L 229.86 400.20 L 231.33 399.65 L 232.81 399.03 L 234.28 399.03 L 235.75 404.35 L 237.22 403.81 L 238.69 405.41 L 240.17 404.06 L 241.64 404.10 L 243.11 404.75 L 244.58 405.45 L 246.06 405.96 L 247.53 408.51 L 249.00 406.92 L 250.47 409.33 L 251.94 412.28 L 253.42 414.17 L 254.89 410.14 L 256.36 421.91 L 257.83 408.18 L 259.31 415.31 L 260.78 408.58 L 262.25 411.83 L 263.72 414.47 L 265.19 424.83 L 266.67 420.36 L 268.14 421.21 L 269.61 417.54 L 271.08 404.98 L 272.56 412.63 L 274.03 410.63 L 275.50 413.70 L 276.97 404.95 L 278.44 412.41 L 279.92 428.52 L 281.39 418.99 L 282.86 407.21 L 284.33 410.15 L 285.81 409.25 L 287.28 406.14 L 288.75 406.14 L 290.22 411.61 L 291.69 408.07 L 293.17 419.69 L 294.64 414.10 L 296.11 430.90 L 297.58 417.96 L 299.06 422.30 L 300.53 415.61 L 302.00 421.46 L 303.47 413.42 L 304.94 409.67 L 306.42 416.34 L 307.89 421.11 L 309.36 410.34 L 310.83 412.31 L 312.31 408.57 L 313.78 403.56 L 315.25 404.41 L 316.72 402.72 L 318.19 396.81 L 319.67 395.77 L 321.14 396.26 L 322.61 401.78 L 324.08 403.71 L 325.56 401.13 L 327.03 406.33 L 328.50 402.39 L 329.97 408.31 L 331.44 394.97 L 332.92 408.71 L 334.39 403.48 L 335.86 407.93 L 337.33 409.56 L 338.81 399.10 L 340.28 408.87 L 341.75 392.66 L 343.22 391.94 L 344.69 392.06 L 346.17 392.22 L 347.64 389.39 L 349.11 396.75 L 350.58 411.49 L 352.06 405.32 L 353.53 411.91 L 355.00 409.29 L 356.47 417.02 L 357.94 405.05 L 359.42 407.71 L 360.89 420.99 L 362.36 440.02 L 363.83 423.61 L 365.31 433.27 L 366.78 435.01 L 368.25 439.51 L 369.72 437.82 L 371.19 434.96 L 372.67 419.39 L 374.14 419.12 L 375.61 417.95 L 377.08 413.05 L 378.56 416.69 L 380.03 420.36 L 381.50 421.05 L 382.97 419.97 L 384.44 419.01 L 385.92 418.64 L 387.39 419.45 L 388.86 419.93 L 390.33 420.06 L 391.81 418.91 L 393.28 420.32 L 394.75 419.73 L 396.22 417.75 L 397.69 418.37 L 399.17 421.64 L 400.64 420.60 L 402.11 418.94 L 403.58 418.22 L 405.06 418.23 L 406.53 421.31 L 408.00 419.61 L 409.47 418.48 L 410.94 419.83 L 412.42 420.50 L 413.89 415.39 L 415.36 417.83 L 416.83 420.44 L 418.31 414.05 L 419.78 416.67 L 421.25 417.75 L 422.72 413.90 L 424.19 413.18 L 425.67 412.48 L 427.14 413.53 L 428.61 416.07 L 430.08 409.09 L 431.56 409.32 L 433.03 413.38 L 434.50 412.34 L 435.97 412.60 L 437.44 412.75 L 438.92 412.73 L 440.39 409.87 L 441.86 413.10 L 443.33 411.53 L 444.81 414.87 L 446.28 412.81 L 447.75 413.60 L 449.22 413.02 L 450.69 412.82 L 452.17 413.49 L 453.64 413.42 L 455.11 413.15 L 456.58 413.39 L 458.06 413.26 L 459.53 413.20 L 461.00 413.51 L 462.47 412.99 L 463.94 413.32 L 465.42 413.12 L 466.89 413.72 L 468.36 413.40 L 469.83 413.59 L 471.31 413.52 L 472.78 413.36 L 474.25 413.58 L 475.72 413.70 L 477.19 413.72 L 478.67 413.78 L 480.14 413.92 L 481.61 414.20 L 483.08 413.94 L 484.56 414.25 L 486.03 414.10 L 487.50 414.17 L 488.97 414.50 L 490.44 413.69 L 491.92 409.36 L 493.39 410.31 L 494.86 415.01 L 496.33 414.56 L 497.81 413.15 L 499.28 412.03 L 500.75 412.36 L 502.22 411.35 L 503.69 410.56 L 505.17 414.73 L 506.64 414.44 L 508.11 412.83 L 509.58 412.72 L 511.06 415.99 L 512.53 414.54 L 514.00 415.56 L 515.47 415.27 L 516.94 415.44 L 518.42 415.05 L 519.89 415.05 L 521.36 414.72 L 522.83 415.15 L 524.31 415.40 L 525.78 414.89 L 527.25 415.12 L 528.72 415.16 L 530.19 415.05 L 531.67 415.17 L 533.14 415.11 L 534.61 415.17 L 536.08 415.19 L 537.56 414.96 L 539.03 415.12 L 540.50 415.18 L 541.97 415.05 L 543.44 414.70 L 544.92 412.90 L 546.39 417.30 L 547.86 411.78 L 549.33 407.06 L 550.81 417.66 L 552.28 424.02 L 553.75 428.25 L 555.22 437.80 L 556.69 436.32 L 558.17 424.35 L 559.64 422.21 L 561.11 412.58 L 562.58 412.10 L 564.06 415.88 L 565.53 416.10 L 567.00 412.36 L 568.47 409.87 L 569.94 405.38 L 571.42 408.01 L 572.89 402.15 L 574.36 394.41 L 575.83 387.00 L 577.31 400.34 L 578.78 405.68 L 580.25 407.05 L 581.72 418.83 L 583.19 415.09 L 584.67 416.17 L 586.14 424.74 L 587.61 438.08 L 589.08 422.78 L 590.56 408.10 L 592.03 435.14 L 593.50 426.73 L 594.97 419.74 L 596.44 415.76 L 597.92 429.27 L 599.39 429.73 L 600.86 427.64 L 602.33 395.80 L 603.81 385.10 L 605.28 407.43 L 606.75 408.31 L 608.22 406.03 L 609.69 398.91 L 611.17 406.26 L 612.64 398.73 L 614.11 388.16 L 615.58 410.44 L 617.06 400.80 L 618.53 390.09 L 620.00 402.98 L 621.47 395.20 L 622.94 397.10 L 624.42 398.08 L 625.89 412.98 L 627.36 410.63 L 628.83 406.45 L 630.31 412.00 L 631.78 412.78 L 633.25 410.46 L 634.72 400.33 L 636.19 394.90 L 637.67 385.52 L 639.14 409.08 L 640.61 396.09 L 642.08 394.90 L 643.56 405.90 L 645.03 412.40 L 646.50 403.26 L 647.97 408.38 L 649.44 410.56 L 650.92 413.22 L 652.39 413.82 L 653.86 416.22 L 655.33 414.71 L 656.81 417.64 L 658.28 410.49 L 659.75 423.53 L 661.22 418.13 L 662.69 417.10 L 664.17 411.28 L 665.64 406.40 L 667.11 410.53 L 668.58 410.73 L 670.06 413.91 L 671.53 405.15 L 673.00 412.24 L 674.47 421.79 L 675.94 417.65 L 677.42 424.71 L 678.89 422.58 L 680.36 411.55 L 681.83 407.66 L 683.31 407.70 L 684.78 409.05 L 686.25 404.90 L 687.72 407.79 L 689.19 406.39 L 690.67 411.80 L 692.14 414.05 L 693.61 414.63 L 695.08 417.54 L 696.56 419.46 L 698.03 415.19 L 699.50 419.31 L 700.97 409.67 L 702.44 424.33 L 703.92 408.68 L 705.39 412.66 L 706.86 410.67 L 708.33 409.05 L 709.81 400.07 L 711.28 396.71 L 712.75 401.36 L 714.22 403.10 L 715.69 401.04 L 717.17 407.27 L 718.64 403.11 L 720.11 402.50 L 721.58 404.34 L 723.06 399.31 L 724.53 407.04 L 726.00 408.09 L 727.47 415.43 L 728.94 420.57 L 730.42 418.16 L 731.89 419.38 L 733.36 418.16 L 734.83 444.29 L 736.31 440.78 L 737.78 422.37 L 739.25 411.77 L 740.72 415.33 L 742.19 421.88 L 743.67 421.60 L 745.14 424.40 L 746.61 413.38 L 748.08 403.76 L 749.56 404.68 L 751.03 405.86 L 752.50 401.40 L 753.97 400.81 L 755.44 395.34 L 756.92 389.33" stroke="#6A1B9A" />
<line x1="900.00" y1="307.75" x2="918.00" y2="307.75" stroke="#2E7D32" stroke-width="3" />
<text class="small" x="924.00" y="311.75">pitch</text>
<line x1="900.00" y1="323.75" x2="918.00" y2="323.75" stroke="#6A1B9A" stroke-width="3" />
<text class="small" x="924.00" y="327.75">roll</text>
<text x="90" y="500.50" font-size="14" font-weight="700">Aceleração (magnitude) (u.a.)</text>
<rect class="event" x="443.33" y="506.50" width="48.58" height="192.75" />
<line class="eventline" x1="443.33" y1="506.50" x2="443.33" y2="699.25" />
<line class="eventline" x1="491.92" y1="506.50" x2="491.92" y2="699.25" />
<line class="grid" x1="90" y1="699.25" x2="1150" y2="699.25" />
<text class="small" x="80" y="703.25" text-anchor="end">0.00</text>
<line class="grid" x1="90" y1="660.70" x2="1150" y2="660.70" />
<text class="small" x="80" y="664.70" text-anchor="end">0.50</text>
<line class="grid" x1="90" y1="622.15" x2="1150" y2="622.15" />
<text class="small" x="80" y="626.15" text-anchor="end">1.00</text>
<line class="grid" x1="90" y1="583.60" x2="1150" y2="583.60" />
<text class="small" x="80" y="587.60" text-anchor="end">1.50</text>
<line class="grid" x1="90" y1="545.05" x2="1150" y2="545.05" />
<text class="small" x="80" y="549.05" text-anchor="end">2.00</text>
<line class="grid" x1="90" y1="506.50" x2="1150" y2="506.50" />
<text class="small" x="80" y="510.50" text-anchor="end">2.50</text>
<line class="grid" x1="90.00" y1="506.50" x2="90.00" y2="699.25" />
<line class="grid" x1="266.67" y1="506.50" x2="266.67" y2="699.25" />
<line class="grid" x1="443.33" y1="506.50" x2="443.33" y2="699.25" />
<line class="grid" x1="620.00" y1="506.50" x2="620.00" y2="699.25" />
<line class="grid" x1="796.67" y1="506.50" x2="796.67" y2="699.25" />
<line class="grid" x1="973.33" y1="506.50" x2="973.33" y2="699.25" />
<line class="grid" x1="1150.00" y1="506.50" x2="1150.00" y2="699.25" />
<line class="axis" x1="90" y1="506.50" x2="90" y2="699.25" />
<line class="axis" x1="90" y1="699.25" x2="1150" y2="699.25" />
<path class="series" d="M 178.33 691.11 L 179.81 690.73 L 181.28 681.18 L 182.75 688.72 L 184.22 694.30 L 185.69 695.07 L 187.17 697.44 L 188.64 695.14 L 190.11 695.14 L 191.58 691.27 L 193.06 693.76 L 194.53 693.58 L 196.00 691.01 L 197.47 691.48 L 198.94 694.15 L 200.42 693.62 L 201.89 687.72 L 203.36 689.66 L 204.83 693.35 L 206.31 687.71 L 207.78 691.72 L 209.25 691.66 L 210.72 693.46 L 212.19 691.83 L 213.67 693.97 L 215.14 693.09 L 216.61 696.09 L 218.08 692.82 L 219.56 691.22 L 221.03 693.70 L 222.50 691.59 L 223.97 698.43 L 225.44 692.32 L 226.92 692.49 L 228.39 692.11 L 229.86 689.42 L 231.33 694.66 L 232.81 693.81 L 234.28 689.52 L 235.75 691.64 L 237.22 694.11 L 238.69 697.52 L 240.17 696.21 L 241.64 693.81 L 243.11 694.41 L 244.58 695.05 L 246.06 685.76 L 247.53 693.69 L 249.00 695.37 L 250.47 697.78 L 251.94 693.86 L 253.42 685.94 L 254.89 674.99 L 256.36 682.47 L 257.83 686.46 L 259.31 687.50 L 260.78 677.80 L 262.25 683.76 L 263.72 676.37 L 265.19 663.38 L 266.67 686.88 L 268.14 695.43 L 269.61 681.11 L 271.08 672.39 L 272.56 681.35 L 274.03 662.74 L 275.50 670.71 L 276.97 641.74 L 278.44 631.30 L 279.92 654.84 L 281.39 683.98 L 282.86 674.06 L 284.33 671.35 L 285.81 678.06 L 287.28 656.30 L 288.75 668.95 L 290.22 681.55 L 291.69 670.59 L 293.17 666.66 L 294.64 671.96 L 296.11 672.91 L 297.58 677.43 L 299.06 663.96 L 300.53 673.65 L 302.00 667.98 L 303.47 685.12 L 304.94 674.03 L 306.42 670.88 L 307.89 674.82 L 309.36 684.45 L 310.83 672.18 L 312.31 688.65 L 313.78 684.38 L 315.25 687.96 L 316.72 673.89 L 318.19 675.11 L 319.67 679.84 L 321.14 689.24 L 322.61 665.64 L 324.08 688.88 L 325.56 681.80 L 327.03 681.82 L 328.50 654.08 L 329.97 658.39 L 331.44 668.54 L 332.92 680.74 L 334.39 689.60 L 335.86 680.80 L 337.33 669.83 L 338.81 655.94 L 340.28 662.28 L 341.75 672.51 L 343.22 642.48 L 344.69 670.07 L 346.17 681.69 L 347.64 668.56 L 349.11 650.52 L 350.58 677.16 L 352.06 690.85 L 353.53 665.11 L 355.00 671.37 L 356.47 660.16 L 357.94 656.51 L 359.42 667.05 L 360.89 633.73 L 362.36 668.85 L 363.83 668.85 L 365.31 674.50 L 366.78 656.92 L 368.25 653.11 L 369.72 645.00 L 371.19 646.56 L 372.67 640.37 L 374.14 644.73 L 375.61 641.18 L 377.08 684.58 L 378.56 691.83 L 380.03 667.58 L 381.50 693.15 L 382.97 695.48 L 384.44 695.50 L 385.92 697.75 L 387.39 698.02 L 388.86 697.90 L 390.33 695.88 L 391.81 689.74 L 393.28 693.95 L 394.75 693.45 L 396.22 691.47 L 397.69 682.26 L 399.17 689.58 L 400.64 698.21 L 402.11 695.64 L 403.58 697.09 L 405.06 696.13 L 406.53 694.59 L 408.00 694.68 L 409.47 695.88 L 410.94 696.49 L 412.42 693.79 L 413.89 693.22 L 415.36 696.23 L 416.83 694.09 L 418.31 688.70 L 419.78 691.35 L 421.25 696.83 L 422.72 683.63 L 424.19 687.00 L 425.67 692.39 L 427.14 696.84 L 428.61 695.16 L 430.08 690.06 L 431.56 697.65 L 433.03 693.03 L 434.50 698.13 L 435.97 684.24 L 437.44 681.26 L 438.92 694.36 L 440.39 695.32 L 441.86 682.51 L 443.33 679.58 L 444.81 691.94 L 446.28 692.37 L 447.75 695.03 L 449.22 696.69 L 450.69 698.53 L 452.17 698.91 L 453.64 698.86 L 455.11 698.03 L 456.58 697.64 L 458.06 696.56 L 459.53 696.79 L 461.00 698.62 L 462.47 698.55 L 463.94 689.44 L 465.42 684.76 L 466.89 693.51 L 468.36 697.54 L 469.83 697.21 L 471.31 698.02 L 472.78 698.27 L 474.25 698.69 L 475.72 698.18 L 477.19 698.59 L 478.67 698.60 L 480.14 696.32 L 481.61 693.53 L 483.08 698.36 L 484.56 698.61 L 486.03 698.00 L 487.50 698.89 L 488.97 697.94 L 490.44 696.89 L 491.92 644.51 L 493.39 679.60 L 494.86 680.80 L 496.33 605.20 L 497.81 681.25 L 499.28 693.45 L 500.75 696.62 L 502.22 661.92 L 503.69 670.23 L 505.17 600.14 L 506.64 666.78 L 508.11 692.05 L 509.58 630.96 L 511.06 646.77 L 512.53 671.05 L 514.00 683.01 L 515.47 691.35 L 516.94 697.65 L 518.42 697.82 L 519.89 695.34 L 521.36 697.35 L 522.83 698.30 L 524.31 697.93 L 525.78 698.15 L 527.25 696.47 L 528.72 697.79 L 530.19 698.57 L 531.67 698.23 L 533.14 698.23 L 534.61 697.65 L 536.08 696.30 L 537.56 697.45 L 539.03 698.77 L 540.50 698.85 L 541.97 698.41 L 543.44 690.61 L 544.92 679.40 L 546.39 659.58 L 547.86 652.72 L 549.33 675.65 L 550.81 683.10 L 552.28 681.15 L 553.75 672.37 L 555.22 649.26 L 556.69 650.37 L 558.17 654.62 L 559.64 660.03 L 561.11 655.51 L 562.58 663.34 L 564.06 680.40 L 565.53 693.01 L 567.00 675.27 L 568.47 672.83 L 569.94 678.54 L 571.42 681.02 L 572.89 676.91 L 574.36 656.76 L 575.83 630.15 L 577.31 675.15 L 578.78 678.56 L 580.25 661.42 L 581.72 670.18 L 583.19 672.37 L 584.67 678.02 L 586.14 676.25 L 587.61 658.20 L 589.08 651.67 L 590.56 664.83 L 592.03 646.13 L 593.50 672.60 L 594.97 652.38 L 596.44 688.25 L 597.92 654.07 L 599.39 665.76 L 600.86 660.74 L 602.33 600.72 L 603.81 594.47 L 605.28 675.24 L 606.75 629.23 L 608.22 636.86 L 609.69 626.01 L 611.17 664.80 L 612.64 667.84 L 614.11 674.82 L 615.58 648.83 L 617.06 666.36 L 618.53 666.27 L 620.00 619.92 L 621.47 638.15 L 622.94 666.62 L 624.42 686.57 L 625.89 657.97 L 627.36 676.60 L 628.83 676.83 L 630.31 668.00 L 631.78 646.03 L 633.25 635.79 L 634.72 687.17 L 636.19 622.78 L 637.67 659.16 L 639.14 650.33 L 640.61 671.15 L 642.08 674.37 L 643.56 682.44 L 645.03 671.48 L 646.50 681.61 L 647.97 674.39 L 649.44 686.43 L 650.92 670.61 L 652.39 681.34 L 653.86 641.13 L 655.33 656.01 L 656.81 664.74 L 658.28 663.35 L 659.75 676.35 L 661.22 690.79 L 662.69 680.74 L 664.17 678.27 L 665.64 684.10 L 667.11 687.41 L 668.58 678.16 L 670.06 676.35 L 671.53 647.39 L 673.00 653.71 L 674.47 632.66 L 675.94 646.90 L 677.42 661.68 L 678.89 676.26 L 680.36 677.95 L 681.83 670.68 L 683.31 643.98 L 684.78 659.97 L 686.25 674.48 L 687.72 671.26 L 689.19 689.32 L 690.67 682.46 L 692.14 687.87 L 693.61 663.41 L 695.08 663.41 L 696.56 662.58 L 698.03 659.83 L 699.50 676.76 L 700.97 677.01 L 702.44 684.75 L 703.92 615.36 L 705.39 675.38 L 706.86 677.90 L 708.33 679.65 L 709.81 655.28 L 711.28 643.95 L 712.75 656.53 L 714.22 682.24 L 715.69 693.04 L 717.17 685.51 L 718.64 690.34 L 720.11 693.37 L 721.58 688.91 L 723.06 680.26 L 724.53 680.71 L 726.00 685.67 L 727.47 676.47 L 728.94 653.59 L 730.42 678.72 L 731.89 674.16 L 733.36 676.71 L 734.83 661.91 L 736.31 642.60 L 737.78 630.60 L 739.25 636.04 L 740.72 665.29 L 742.19 671.37 L 743.67 688.74 L 745.14 679.30 L 746.61 625.86 L 748.08 613.01 L 749.56 648.07 L 751.03 660.96 L 752.50 674.01 L 753.97 647.21 L 755.44 632.88 L 756.92 623.00" stroke="#FB8C00" />
<text x="90" y="711.25" font-size="14" font-weight="700">Giroscópio (magnitude) (u.a.)</text>
<rect class="event" x="443.33" y="717.25" width="48.58" height="192.75" />
<line class="eventline" x1="443.33" y1="717.25" x2="443.33" y2="910.00" />
<line class="eventline" x1="491.92" y1="717.25" x2="491.92" y2="910.00" />
<line class="grid" x1="90" y1="910.00" x2="1150" y2="910.00" />
<text class="small" x="80" y="914.00" text-anchor="end">0.00</text>
<line class="grid" x1="90" y1="871.45" x2="1150" y2="871.45" />
<text class="small" x="80" y="875.45" text-anchor="end">0.05</text>
<line class="grid" x1="90" y1="832.90" x2="1150" y2="832.90" />
<text class="small" x="80" y="836.90" text-anchor="end">0.10</text>
<line class="grid" x1="90" y1="794.35" x2="1150" y2="794.35" />
<text class="small" x="80" y="798.35" text-anchor="end">0.15</text>
<line class="grid" x1="90" y1="755.80" x2="1150" y2="755.80" />
<text class="small" x="80" y="759.80" text-anchor="end">0.20</text>
<line class="grid" x1="90" y1="717.25" x2="1150" y2="717.25" />
<text class="small" x="80" y="721.25" text-anchor="end">0.25</text>
<line class="grid" x1="90.00" y1="717.25" x2="90.00" y2="910.00" />
<line class="grid" x1="266.67" y1="717.25" x2="266.67" y2="910.00" />
<line class="grid" x1="443.33" y1="717.25" x2="443.33" y2="910.00" />
<line class="grid" x1="620.00" y1="717.25" x2="620.00" y2="910.00" />
<line class="grid" x1="796.67" y1="717.25" x2="796.67" y2="910.00" />
<line class="grid" x1="973.33" y1="717.25" x2="973.33" y2="910.00" />
<line class="grid" x1="1150.00" y1="717.25" x2="1150.00" y2="910.00" />
<line class="axis" x1="90" y1="717.25" x2="90" y2="910.00" />
<line class="axis" x1="90" y1="910.00" x2="1150" y2="910.00" />
<path class="series" d="M 178.33 899.56 L 179.81 884.53 L 181.28 901.04 L 182.75 902.19 L 184.22 903.57 L 185.69 903.10 L 187.17 903.84 L 188.64 905.54 L 190.11 905.54 L 191.58 905.34 L 193.06 903.67 L 194.53 903.92 L 196.00 900.91 L 197.47 905.28 L 198.94 905.45 L 200.42 900.48 L 201.89 908.21 L 203.36 906.90 L 204.83 906.60 L 206.31 903.82 L 207.78 904.69 L 209.25 904.74 L 210.72 903.90 L 212.19 899.01 L 213.67 905.40 L 215.14 906.77 L 216.61 899.03 L 218.08 902.23 L 219.56 903.88 L 221.03 904.28 L 222.50 902.48 L 223.97 899.72 L 225.44 900.98 L 226.92 902.09 L 228.39 902.63 L 229.86 898.81 L 231.33 903.87 L 232.81 901.89 L 234.28 897.46 L 235.75 902.36 L 237.22 902.02 L 238.69 901.06 L 240.17 899.90 L 241.64 901.47 L 243.11 898.91 L 244.58 899.70 L 246.06 898.79 L 247.53 900.63 L 249.00 896.65 L 250.47 892.38 L 251.94 892.21 L 253.42 899.96 L 254.89 886.48 L 256.36 890.38 L 257.83 887.06 L 259.31 892.13 L 260.78 881.25 L 262.25 855.68 L 263.72 870.63 L 265.19 895.89 L 266.67 874.43 L 268.14 874.55 L 269.61 864.82 L 271.08 876.46 L 272.56 878.19 L 274.03 875.28 L 275.50 879.15 L 276.97 871.83 L 278.44 874.76 L 279.92 874.58 L 281.39 846.00 L 282.86 858.70 L 284.33 866.20 L 285.81 884.00 L 287.28 879.46 L 288.75 887.09 L 290.22 880.55 L 291.69 876.38 L 293.17 877.15 L 294.64 856.92 L 296.11 833.09 L 297.58 832.04 L 299.06 855.80 L 300.53 886.15 L 302.00 874.12 L 303.47 858.53 L 304.94 857.56 L 306.42 844.65 L 307.89 860.30 L 309.36 860.68 L 310.83 860.18 L 312.31 858.84 L 313.78 849.26 L 315.25 854.49 L 316.72 864.11 L 318.19 865.89 L 319.67 869.02 L 321.14 875.48 L 322.61 876.56 L 324.08 885.96 L 325.56 868.54 L 327.03 881.41 L 328.50 891.93 L 329.97 892.88 L 331.44 881.28 L 332.92 895.07 L 334.39 896.37 L 335.86 897.28 L 337.33 874.12 L 338.81 858.59 L 340.28 862.46 L 341.75 856.37 L 343.22 823.09 L 344.69 808.28 L 346.17 815.80 L 347.64 801.43 L 349.11 834.35 L 350.58 867.87 L 352.06 864.11 L 353.53 869.44 L 355.00 868.86 L 356.47 880.59 L 357.94 868.71 L 359.42 874.72 L 360.89 894.37 L 362.36 818.27 L 363.83 818.27 L 365.31 814.62 L 366.78 805.70 L 368.25 756.78 L 369.72 737.05 L 371.19 742.66 L 372.67 770.25 L 374.14 800.36 L 375.61 838.66 L 377.08 879.21 L 378.56 900.69 L 380.03 904.81 L 381.50 906.46 L 382.97 908.90 L 384.44 908.56 L 385.92 908.56 L 387.39 908.15 L 388.86 907.96 L 390.33 908.03 L 391.81 907.93 L 393.28 905.90 L 394.75 903.14 L 396.22 895.11 L 397.69 891.62 L 399.17 901.08 L 400.64 903.70 L 402.11 901.22 L 403.58 899.39 L 405.06 896.89 L 406.53 895.59 L 408.00 891.80 L 409.47 888.25 L 410.94 887.18 L 412.42 887.29 L 413.89 881.15 L 415.36 881.82 L 416.83 870.77 L 418.31 862.19 L 419.78 863.63 L 421.25 862.65 L 422.72 861.67 L 424.19 870.81 L 425.67 883.61 L 427.14 889.98 L 428.61 889.29 L 430.08 888.47 L 431.56 896.56 L 433.03 901.10 L 434.50 901.72 L 435.97 905.59 L 437.44 900.07 L 438.92 904.90 L 440.39 901.13 L 441.86 901.85 L 443.33 902.14 L 444.81 908.82 L 446.28 906.65 L 447.75 907.79 L 449.22 908.55 L 450.69 908.53 L 452.17 908.12 L 453.64 908.21 L 455.11 908.29 L 456.58 908.33 L 458.06 908.41 L 459.53 908.10 L 461.00 908.52 L 462.47 908.36 L 463.94 908.09 L 465.42 908.63 L 466.89 908.23 L 468.36 908.31 L 469.83 908.16 L 471.31 908.08 L 472.78 908.28 L 474.25 908.50 L 475.72 908.15 L 477.19 908.17 L 478.67 908.27 L 480.14 907.92 L 481.61 908.52 L 483.08 908.29 L 484.56 908.13 L 486.03 908.32 L 487.50 908.21 L 488.97 908.44 L 490.44 907.40 L 491.92 895.88 L 493.39 902.54 L 494.86 903.43 L 496.33 894.08 L 497.81 902.32 L 499.28 908.24 L 500.75 908.21 L 502.22 906.36 L 503.69 905.16 L 505.17 895.62 L 506.64 907.63 L 508.11 907.53 L 509.58 900.69 L 511.06 895.95 L 512.53 903.22 L 514.00 906.43 L 515.47 907.35 L 516.94 908.37 L 518.42 908.16 L 519.89 907.93 L 521.36 907.89 L 522.83 908.35 L 524.31 908.21 L 525.78 907.89 L 527.25 908.46 L 528.72 908.29 L 530.19 908.07 L 531.67 908.35 L 533.14 908.35 L 534.61 908.21 L 536.08 908.32 L 537.56 908.11 L 539.03 908.28 L 540.50 908.26 L 541.97 908.32 L 543.44 906.68 L 544.92 907.54 L 546.39 902.87 L 547.86 899.42 L 549.33 875.10 L 550.81 865.14 L 552.28 887.60 L 553.75 879.59 L 555.22 816.83 L 556.69 747.57 L 558.17 758.56 L 559.64 763.84 L 561.11 793.13 L 562.58 813.82 L 564.06 813.92 L 565.53 818.14 L 567.00 816.35 L 568.47 830.31 L 569.94 823.92 L 571.42 829.68 L 572.89 857.66 L 574.36 884.51 L 575.83 893.25 L 577.31 864.62 L 578.78 869.18 L 580.25 885.49 L 581.72 902.69 L 583.19 873.23 L 584.67 863.88 L 586.14 866.50 L 587.61 833.54 L 589.08 827.29 L 590.56 891.02 L 592.03 838.42 L 593.50 789.11 L 594.97 842.07 L 596.44 846.16 L 597.92 827.16 L 599.39 826.60 L 600.86 837.53 L 602.33 889.54 L 603.81 797.55 L 605.28 815.96 L 606.75 831.63 L 608.22 838.59 L 609.69 809.07 L 611.17 794.19 L 612.64 788.18 L 614.11 785.34 L 615.58 862.69 L 617.06 865.90 L 618.53 839.64 L 620.00 835.88 L 621.47 815.82 L 622.94 826.13 L 624.42 843.66 L 625.89 880.50 L 627.36 884.61 L 628.83 877.32 L 630.31 868.52 L 631.78 882.21 L 633.25 869.21 L 634.72 872.98 L 636.19 826.62 L 637.67 828.33 L 639.14 879.69 L 640.61 878.19 L 642.08 869.79 L 643.56 868.89 L 645.03 890.34 L 646.50 890.57 L 647.97 889.72 L 649.44 892.09 L 650.92 888.14 L 652.39 889.04 L 653.86 882.91 L 655.33 884.13 L 656.81 886.98 L 658.28 881.67 L 659.75 894.07 L 661.22 900.77 L 662.69 899.22 L 664.17 884.58 L 665.64 897.30 L 667.11 903.01 L 668.58 897.08 L 670.06 894.31 L 671.53 903.51 L 673.00 893.61 L 674.47 877.06 L 675.94 881.69 L 677.42 889.11 L 678.89 888.86 L 680.36 882.52 L 681.83 896.17 L 683.31 894.42 L 684.78 889.36 L 686.25 897.22 L 687.72 902.38 L 689.19 905.26 L 690.67 893.38 L 692.14 899.13 L 693.61 892.15 L 695.08 892.15 L 696.56 900.38 L 698.03 894.77 L 699.50 892.53 L 700.97 896.61 L 702.44 888.79 L 703.92 864.59 L 705.39 880.73 L 706.86 893.73 L 708.33 900.37 L 709.81 890.10 L 711.28 863.51 L 712.75 858.98 L 714.22 872.62 L 715.69 893.71 L 717.17 896.93 L 718.64 903.64 L 720.11 898.09 L 721.58 897.16 L 723.06 883.35 L 724.53 899.81 L 726.00 899.17 L 727.47 893.65 L 728.94 879.51 L 730.42 871.77 L 731.89 866.49 L 733.36 848.33 L 734.83 828.72 L 736.31 776.60 L 737.78 785.20 L 739.25 796.13 L 740.72 810.07 L 742.19 813.54 L 743.67 809.40 L 745.14 805.51 L 746.61 811.08 L 748.08 853.41 L 749.56 888.91 L 751.03 897.45 L 752.50 902.17 L 753.97 905.81 L 755.44 896.34 L 756.92 858.56" stroke="#E53935" />
<text x="620.00" y="952" font-size="15" text-anchor="middle">minutos (relativo ao início do evento)</text>
<text class="small" x="90.00" y="936" text-anchor="middle">-4.00</text>
<text class="small" x="266.67" y="936" text-anchor="middle">-2.00</text>
<text class="small" x="443.33" y="936" text-anchor="middle">0.00</text>
<text class="small" x="620.00" y="936" text-anchor="middle">2.00</text>
<text class="small" x="796.67" y="936" text-anchor="middle">4.00</text>
<text class="small" x="973.33" y="936" text-anchor="middle">6.00</text>
<text class="small" x="1150.00" y="936" text-anchor="middle">8.00</text>
</svg>