<?xml version="1.0" encoding="UTF-8"?>
<svg xmlns="http://www.w3.org/2000/svg" width="1180" height="980" viewBox="0 0 1180 980">
<style>
text { font-family: -apple-system, BlinkMacSystemFont, 'Segoe UI', Roboto, Helvetica, Arial, sans-serif; fill: #111; }
.small { font-size: 12px; fill: #222; }
.title { font-size: 18px; font-weight: 700; }
.axis { stroke: #111; stroke-width: 1.4; }
.grid { stroke: #E6E6E6; stroke-width: 1; }
.event { fill: #FFEB3B; fill-opacity: 0.18; }
.eventline { stroke: #F9A825; stroke-width: 1.2; stroke-dasharray: 4 3; }
.series { fill: none; stroke-width: 1.8; }
</style>
<text class="title" x="90" y="34">ciclo 7 — espera_carregamento — 2025-12-12T19:53:04-03:00 → 2025-12-12T19:55:00-03:00 (span 116s, dur 117s)</text>
<text class="small" x="90" y="54">GPS: -11.699014,-47.157425  hotspot: -11.699,-47.157</text>
<text class="small" x="90" y="70">Janela: -3.00 → 4.93 min (relativo ao início do evento)</text>
<text x="90" y="79.00" font-size="14" font-weight="700">Velocidade (km/h)</text>
<rect class="event" x="443.33" y="85.00" width="170.78" height="192.75" />
<line class="eventline" x1="443.33" y1="85.00" x2="443.33" y2="277.75" />
<line class="eventline" x1="614.11" y1="85.00" x2="614.11" y2="277.75" />
<line class="grid" x1="90" y1="277.75" x2="1150" y2="277.75" />
<text class="small" x="80" y="281.75" text-anchor="end">0.00</text>
<line class="grid" x1="90" y1="239.20" x2="1150" y2="239.20" />
<text class="small" x="80" y="243.20" text-anchor="end">10.0</text>
<line class="grid" x1="90" y1="200.65" x2="1150" y2="200.65" />
<text class="small" x="80" y="204.65" text-anchor="end">20.0</text>
<line class="grid" x1="90" y1="162.10" x2="1150" y2="162.10" />
<text class="small" x="80" y="166.10" text-anchor="end">30.0</text>
<line class="grid" x1="90" y1="123.55" x2="1150" y2="123.55" />
<text class="small" x="80" y="127.55" text-anchor="end">40.0</text>
<line class="grid" x1="90" y1="85.00" x2="1150" y2="85.00" />
<text class="small" x="80" y="89.00" text-anchor="end">50.0</text>
<line class="grid" x1="90.00" y1="85.00" x2="90.00" y2="277.75" />
<line class="grid" x1="266.67" y1="85.00" x2="266.67" y2="277.75" />
<line class="grid" x1="443.33" y1="85.00" x2="443.33" y2="277.75" />
<line class="grid" x1="620.00" y1="85.00" x2="620.00" y2="277.75" />
<line class="grid" x1="796.67" y1="85.00" x2="796.67" y2="277.75" />
<line class="grid" x1="973.33" y1="85.00" x2="973.33" y2="277.75" />
<line class="grid" x1="1150.00" y1="85.00" x2="1150.00" y2="277.75" />
<line class="axis" x1="90" y1="85.00" x2="90" y2="277.75" />
<line class="axis" x1="90" y1="277.75" x2="1150" y2="277.75" />
<path class="series" d="M 178.33 164.09 L 179.81 158.40 L 181.28 159.65 L 182.75 157.98 L 184.22 158.26 L 185.69 156.46 L 187.17 156.87 L 188.64 156.32 L 190.11 154.37 L 191.58 151.60 L 193.06 151.60 L 194.53 150.35 L 196.00 152.02 L 197.47 153.26 L 198.94 152.02 L 200.42 155.48 L 201.89 154.10 L 203.36 157.84 L 204.83 157.15 L 206.31 156.60 L 207.78 154.93 L 209.25 156.04 L 210.72 156.73 L 212.19 157.29 L 213.67 152.99 L 215.14 153.68 L 216.61 152.02 L 218.08 152.85 L 219.56 152.85 L 221.03 152.15 L 222.50 149.24 L 223.97 150.91 L 225.44 150.77 L 226.92 156.46 L 228.39 158.40 L 229.86 156.87 L 231.33 158.95 L 232.81 159.79 L 234.28 159.23 L 235.75 159.23 L 237.22 157.98 L 238.69 160.48 L 240.17 157.57 L 241.64 158.82 L 243.11 158.12 L 244.58 161.59 L 246.06 163.26 L 247.53 162.70 L 249.00 167.42 L 250.47 169.36 L 251.94 166.03 L 253.42 170.61 L 254.89 171.03 L 256.36 173.66 L 257.83 176.44 L 259.31 175.33 L 260.78 179.91 L 262.25 184.21 L 263.72 185.88 L 265.19 190.04 L 266.67 188.65 L 268.14 184.77 L 269.61 178.52 L 271.08 173.94 L 272.56 171.86 L 274.03 165.48 L 275.50 163.81 L 276.97 169.64 L 278.44 166.59 L 279.92 167.42 L 281.39 172.42 L 282.86 175.19 L 284.33 179.77 L 285.81 184.63 L 287.28 186.99 L 288.75 186.57 L 290.22 190.60 L 291.69 197.26 L 293.17 202.67 L 294.64 211.97 L 296.11 208.08 L 297.58 209.89 L 299.06 198.51 L 300.53 195.59 L 302.00 198.23 L 303.47 197.67 L 304.94 193.93 L 306.42 190.18 L 307.89 191.57 L 309.36 200.03 L 310.83 202.67 L 312.31 204.75 L 313.78 199.06 L 315.25 189.21 L 316.72 180.88 L 318.19 180.88 L 319.67 184.63 L 321.14 206.97 L 322.61 210.86 L 324.08 211.83 L 325.56 213.08 L 327.03 209.47 L 328.50 207.94 L 329.97 209.05 L 331.44 201.28 L 332.92 192.96 L 334.39 185.46 L 335.86 187.27 L 337.33 184.21 L 338.81 181.02 L 340.28 177.55 L 341.75 174.08 L 343.22 169.36 L 344.69 169.92 L 346.17 169.64 L 347.64 165.48 L 349.11 165.48 L 350.58 166.86 L 352.06 169.50 L 353.53 166.59 L 355.00 172.28 L 356.47 171.58 L 357.94 174.78 L 359.42 177.13 L 360.89 182.27 L 362.36 185.04 L 363.83 189.62 L 365.31 194.34 L 366.78 195.45 L 368.25 193.37 L 369.72 196.15 L 371.19 196.29 L 372.67 204.20 L 374.14 209.05 L 375.61 217.66 L 377.08 223.07 L 378.56 230.70 L 380.03 229.32 L 381.50 236.81 L 382.97 237.92 L 384.44 239.03 L 385.92 246.39 L 387.39 241.67 L 388.86 245.28 L 390.33 243.89 L 391.81 244.58 L 393.28 237.23 L 394.75 243.47 L 396.22 250.13 L 397.69 263.73 L 399.17 277.75 L 400.64 277.75 L 402.11 277.75 L 403.58 262.76 L 405.06 261.79 L 406.53 259.29 L 408.00 257.63 L 409.47 258.74 L 410.94 259.29 L 412.42 257.07 L 413.89 257.77 L 415.36 260.26 L 416.83 258.32 L 418.31 260.26 L 419.78 259.01 L 421.25 259.99 L 422.72 260.12 L 424.19 266.09 L 425.67 264.57 L 427.14 269.70 L 428.61 271.64 L 430.08 270.39 L 431.56 270.95 L 433.03 277.75 L 434.50 277.75 L 435.97 271.09 L 437.44 272.20 L 438.92 274.00 L 440.39 274.14 L 441.86 270.95 L 443.33 277.75 L 444.81 277.75 L 446.28 277.75 L 447.75 277.75 L 449.22 277.75 L 450.69 277.75 L 452.17 277.75 L 453.64 277.75 L 455.11 277.75 L 456.58 277.75 L 458.06 277.75 L 459.53 277.75 L 461.00 277.75 L 462.47 277.75 L 463.94 277.75 L 465.42 277.75 L 466.89 277.75 L 468.36 277.75 L 469.83 277.75 L 471.31 277.75 L 472.78 277.75 L 474.25 277.75 L 475.72 277.75 L 477.19 277.75 L 478.67 277.75 L 480.14 277.75 L 481.61 277.75 L 483.08 277.75 L 484.56 277.75 L 486.03 277.75 L 487.50 277.75 L 488.97 277.75 L 490.44 277.75 L 491.92 277.75 L 493.39 277.75 L 494.86 277.75 L 496.33 277.75 L 497.81 277.75 L 499.28 277.75 L 500.75 277.75 L 502.22 277.75 L 503.69 277.75 L 505.17 277.75 L 506.64 277.75 L 508.11 277.75 L 509.58 277.75 L 511.06 277.75 L 512.53 277.75 L 514.00 277.75 L 515.47 277.75 L 516.94 277.75 L 518.42 277.75 L 519.89 277.75 L 521.36 277.75 L 522.83 277.75 L 524.31 277.75 L 525.78 277.75 L 527.25 277.75 L 528.72 277.75 L 530.19 277.75 L 531.67 277.75 L 533.14 277.75 L 534.61 277.75 L 536.08 277.75 L 537.56 277.75 L 539.03 277.75 L 540.50 277.75 L 541.97 277.75 L 543.44 277.75 L 544.92 277.75 L 546.39 277.75 L 547.86 277.75 L 549.33 277.75 L 550.81 277.75 L 552.28 277.75 L 553.75 277.75 L 555.22 277.75 L 556.69 277.75 L 558.17 277.75 L 559.64 277.75 L 561.11 277.75 L 562.58 277.75 L 564.06 277.75 L 565.53 277.75 L 567.00 277.75 L 568.47 277.75 L 569.94 277.75 L 571.42 277.75 L 572.89 277.75 L 574.36 277.75 L 575.83 277.75 L 577.31 277.75 L 578.78 277.75 L 580.25 277.75 L 581.72 277.75 L 583.19 277.75 L 584.67 277.75 L 586.14 277.75 L 587.61 277.75 L 589.08 277.75 L 590.56 277.75 L 592.03 277.75 L 593.50 277.75 L 594.97 277.75 L 596.44 277.75 L 597.92 277.75 L 599.39 277.75 L 600.86 277.75 L 602.33 277.75 L 603.81 277.75 L 605.28 277.75 L 606.75 277.75 L 608.22 277.75 L 609.69 277.75 L 611.17 277.75 L 612.64 277.75 L 614.11 277.75 L 615.58 264.15 L 617.06 266.79 L 618.53 263.04 L 620.00 259.99 L 621.47 260.68 L 622.94 259.99 L 624.42 255.13 L 625.89 260.68 L 627.36 254.30 L 628.83 255.96 L 630.31 255.96 L 631.78 256.38 L 633.25 258.74 L 634.72 257.07 L 636.19 256.10 L 637.67 256.38 L 639.14 252.63 L 640.61 252.91 L 642.08 250.41 L 643.56 250.27 L 645.03 246.94 L 646.50 239.86 L 647.97 236.39 L 649.44 229.04 L 650.92 226.40 L 652.39 228.90 L 653.86 225.29 L 655.33 225.01 L 656.81 225.43 L 658.28 224.04 L 659.75 217.52 L 661.22 220.85 L 662.69 226.26 L 664.17 227.79 L 665.64 226.40 L 667.11 225.57 L 668.58 229.32 L 670.06 229.73 L 671.53 225.85 L 673.00 220.85 L 674.47 217.38 L 675.94 216.69 L 677.42 220.43 L 678.89 223.49 L 680.36 224.87 L 681.83 221.41 L 683.31 219.60 L 684.78 218.07 L 686.25 210.30 L 687.72 203.64 L 689.19 203.64 L 690.67 199.62 L 692.14 197.40 L 693.61 196.29 L 695.08 202.39 L 696.56 195.73 L 698.03 193.37 L 699.50 196.01 L 700.97 196.42 L 702.44 192.82 L 703.92 188.65 L 705.39 184.07 L 706.86 175.19 L 708.33 177.55 L 709.81 189.90 L 711.28 184.63 L 712.75 190.18 L 714.22 189.07 L 715.69 192.96 L 717.17 190.04 L 718.64 184.77 L 720.11 182.55 L 721.58 189.07 L 723.06 189.07 L 724.53 191.29 L 726.00 197.67 L 727.47 202.39 L 728.94 219.32 L 730.42 232.65 L 731.89 241.67 L 733.36 250.41 L 734.83 249.58 L 736.31 246.11 L 737.78 241.67 L 739.25 240.97 L 740.72 236.25 L 742.19 227.93 L 743.67 221.13 L 745.14 221.82 L 746.61 219.18 L 748.08 216.69 L 749.56 208.78 L 751.03 210.58 L 752.50 207.53 L 753.97 203.92 L 755.44 205.86 L 756.92 212.52 L 758.39 215.85 L 759.86 217.80 L 761.33 217.94 L 762.81 219.18 L 764.28 220.30 L 765.75 225.01 L 767.22 229.59 L 768.69 233.48 L 770.17 233.48 L 771.64 232.37 L 773.11 231.95 L 774.58 231.12 L 776.06 232.37 L 777.53 231.54 L 779.00 231.54 L 780.47 231.40 L 781.94 235.28 L 783.42 236.95 L 784.89 238.06 L 786.36 239.86 L 787.83 243.19 L 789.31 245.14 L 790.78 247.77 L 792.25 248.47 L 793.72 250.55 L 795.19 249.44 L 796.67 250.41 L 798.14 250.97 L 799.61 250.55 L 801.08 249.58 L 802.56 249.58 L 804.03 249.86 L 805.50 250.13 L 806.97 247.91 L 808.44 247.63 L 809.92 246.52 L 811.39 246.52 L 812.86 245.55 L 814.33 245.28 L 815.81 244.58 L 817.28 244.58 L 818.75 244.58 L 820.22 245.97 L 821.69 246.39 L 823.17 245.14 L 824.64 244.72 L 826.11 245.28 L 827.58 242.78 L 829.06 244.86 L 830.53 242.78 L 832.00 241.67 L 833.47 243.06 L 834.94 242.08 L 836.42 242.22 L 837.89 237.09 L 839.36 234.03 L 840.83 229.73 L 842.31 225.57 L 843.78 224.18 L 845.25 223.63 L 846.72 218.49 L 848.19 210.58 L 849.67 206.14 L 851.14 204.06 L 852.61 196.70 L 854.08 196.42 L 855.56 193.79 L 857.03 189.07 L 858.50 182.27 L 859.97 175.33 L 861.44 173.11 L 862.92 169.92 L 864.39 164.51 L 865.86 164.64 L 867.33 158.40 L 868.81 156.73 L 870.28 158.26 L 871.75 156.18 L 873.22 149.66 L 874.69 159.93 L 876.17 155.90 L 877.64 158.95 L 879.11 155.21" stroke="#1976D2" />
<text x="90" y="289.75" font-size="14" font-weight="700">Inclinação (graus)</text>
<rect class="event" x="443.33" y="295.75" width="170.78" height="192.75" />
<line class="eventline" x1="443.33" y1="295.75" x2="443.33" y2="488.50" />
<line class="eventline" x1="614.11" y1="295.75" x2="614.11" y2="488.50" />
<line class="grid" x1="90" y1="488.50" x2="1150" y2="488.50" />
<text class="small" x="80" y="492.50" text-anchor="end">-20.0</text>
<line class="grid" x1="90" y1="449.95" x2="1150" y2="449.95" />
<text class="small" x="80" y="453.95" text-anchor="end">-10.0</text>
<line class="grid" x1="90" y1="411.40" x2="1150" y2="411.40" />
<text class="small" x="80" y="415.40" text-anchor="end">0.00</text>
<line class="grid" x1="90" y1="372.85" x2="1150" y2="372.85" />
<text class="small" x="80" y="376.85" text-anchor="end">10.0</text>
<line class="grid" x1="90" y1="334.30" x2="1150" y2="334.30" />
<text class="small" x="80" y="338.30" text-anchor="end">20.0</text>
<line class="grid" x1="90" y1="295.75" x2="1150" y2="295.75" />
<text class="small" x="80" y="299.75" text-anchor="end">30.0</text>
<line class="grid" x1="90.00" y1="295.75" x2="90.00" y2="488.50" />
<line class="grid" x1="266.67" y1="295.75" x2="266.67" y2="488.50" />
<line class="grid" x1="443.33" y1="295.75" x2="443.33" y2="488.50" />
<line class="grid" x1="620.00" y1="295.75" x2="620.00" y2="488.50" />
<line class="grid" x1="796.67" y1="295.75" x2="796.67" y2="488.50" />
<line class="grid" x1="973.33" y1="295.75" x2="973.33" y2="488.50" />
<line class="grid" x1="1150.00" y1="295.75" x2="1150.00" y2="488.50" />
<line class="axis" x1="90" y1="295.75" x2="90" y2="488.50" />
<line class="axis" x1="90" y1="488.50" x2="1150" y2="488.50" />
<path class="series" d="M 178.33 377.74 L 179.81 363.39 L 181.28 367.84 L 182.75 359.22 L 184.22 360.77 L 185.69 360.70 L 187.17 361.71 L 188.64 360.07 L 190.11 360.07 L 191.58 357.75 L 193.06 355.33 L 194.53 357.06 L 196.00 357.41 L 197.47 358.11 L 198.94 358.39 L 200.42 358.28 L 201.89 361.65 L 203.36 359.42 L 204.83 362.35 L 206.31 361.87 L 207.78 366.28 L 209.25 360.82 L 210.72 366.38 L 212.19 368.63 L 213.67 367.69 L 215.14 365.18 L 216.61 363.73 L 218.08 366.47 L 219.56 365.83 L 221.03 364.94 L 222.50 366.01 L 223.97 361.07 L 225.44 364.53 L 226.92 359.80 L 228.39 361.70 L 229.86 360.82 L 231.33 367.85 L 232.81 367.12 L 234.28 368.18 L 235.75 370.35 L 237.22 371.52 L 238.69 364.64 L 240.17 374.81 L 241.64 370.03 L 243.11 367.75 L 244.58 363.14 L 246.06 369.24 L 247.53 362.89 L 249.00 363.14 L 250.47 372.17 L 251.94 366.63 L 253.42 360.68 L 254.89 358.97 L 256.36 358.55 L 257.83 357.39 L 259.31 357.61 L 260.78 356.66 L 262.25 353.51 L 263.72 347.81 L 265.19 355.39 L 266.67 353.95 L 268.14 353.30 L 269.61 345.77 L 271.08 346.40 L 272.56 343.78 L 274.03 342.66 L 275.50 341.45 L 276.97 339.01 L 278.44 335.46 L 279.92 334.54 L 281.39 337.14 L 282.86 338.25 L 284.33 339.75 L 285.81 338.53 L 287.28 344.08 L 288.75 345.29 L 290.22 346.31 L 291.69 333.63 L 293.17 338.08 L 294.64 349.03 L 296.11 350.83 L 297.58 362.96 L 299.06 364.86 L 300.53 360.38 L 302.00 357.67 L 303.47 364.47 L 304.94 357.06 L 306.42 361.49 L 307.89 353.12 L 309.36 357.62 L 310.83 357.59 L 312.31 347.82 L 313.78 347.88 L 315.25 347.40 L 316.72 357.25 L 318.19 316.62 L 319.67 352.71 L 321.14 360.70 L 322.61 364.16 L 324.08 371.83 L 325.56 375.95 L 327.03 376.25 L 328.50 373.05 L 329.97 379.43 L 331.44 385.67 L 332.92 379.43 L 334.39 361.28 L 335.86 373.64 L 337.33 363.25 L 338.81 377.77 L 340.28 379.78 L 341.75 376.20 L 343.22 367.29 L 344.69 374.57 L 346.17 369.36 L 347.64 365.19 L 349.11 361.35 L 350.58 357.19 L 352.06 367.97 L 353.53 360.91 L 355.00 361.24 L 356.47 351.43 L 357.94 360.40 L 359.42 354.04 L 360.89 356.02 L 362.36 361.45 L 363.83 354.23 L 365.31 357.02 L 366.78 378.01 L 368.25 363.89 L 369.72 369.50 L 371.19 354.44 L 372.67 349.10 L 374.14 355.42 L 375.61 348.99 L 377.08 357.79 L 378.56 371.43 L 380.03 360.22 L 381.50 367.65 L 382.97 384.27 L 384.44 364.39 L 385.92 377.53 L 387.39 362.33 L 388.86 357.28 L 390.33 362.21 L 391.81 370.49 L 393.28 349.16 L 394.75 349.48 L 396.22 339.01 L 397.69 344.86 L 399.17 347.79 L 400.64 342.45 L 402.11 350.18 L 403.58 360.41 L 405.06 355.25 L 406.53 352.60 L 408.00 354.65 L 409.47 358.47 L 410.94 350.61 L 412.42 353.01 L 413.89 355.45 L 415.36 349.74 L 416.83 355.97 L 418.31 357.91 L 419.78 362.97 L 421.25 365.47 L 422.72 377.07 L 424.19 365.71 L 425.67 373.66 L 427.14 369.42 L 428.61 356.92 L 430.08 365.92 L 431.56 362.95 L 433.03 352.81 L 434.50 348.76 L 435.97 353.46 L 437.44 352.90 L 438.92 351.14 L 440.39 344.74 L 441.86 354.59 L 443.33 351.97 L 444.81 348.01 L 446.28 345.60 L 447.75 347.56 L 449.22 347.33 L 450.69 347.13 L 452.17 347.21 L 453.64 347.18 L 455.11 347.17 L 456.58 347.19 L 458.06 347.11 L 459.53 347.11 L 461.00 347.17 L 462.47 347.14 L 463.94 347.13 L 465.42 347.11 L 466.89 347.13 L 468.36 347.09 L 469.83 347.14 L 471.31 347.04 L 472.78 347.13 L 474.25 347.11 L 475.72 347.18 L 477.19 346.93 L 478.67 345.91 L 480.14 346.77 L 481.61 346.28 L 483.08 346.47 L 484.56 346.36 L 486.03 346.46 L 487.50 346.40 L 488.97 346.38 L 490.44 346.40 L 491.92 346.34 L 493.39 346.35 L 494.86 346.35 L 496.33 346.33 L 497.81 346.36 L 499.28 346.36 L 500.75 346.34 L 502.22 346.33 L 503.69 346.29 L 505.17 346.40 L 506.64 346.49 L 508.11 345.04 L 509.58 345.70 L 511.06 345.71 L 512.53 345.52 L 514.00 345.56 L 515.47 345.56 L 516.94 345.60 L 518.42 345.56 L 519.89 345.57 L 521.36 345.52 L 522.83 345.57 L 524.31 345.54 L 525.78 345.52 L 527.25 345.52 L 528.72 345.54 L 530.19 345.57 L 531.67 345.58 L 533.14 345.54 L 534.61 345.50 L 536.08 345.51 L 537.56 345.69 L 539.03 345.81 L 540.50 345.81 L 541.97 345.82 L 543.44 346.43 L 544.92 345.99 L 546.39 346.14 L 547.86 346.11 L 549.33 346.11 L 550.81 346.20 L 552.28 346.04 L 553.75 346.16 L 555.22 346.09 L 556.69 346.12 L 558.17 346.13 L 559.64 346.10 L 561.11 346.16 L 562.58 346.16 L 564.06 346.13 L 565.53 346.13 L 567.00 346.11 L 568.47 346.14 L 569.94 346.17 L 571.42 346.10 L 572.89 346.16 L 574.36 346.56 L 575.83 346.79 L 577.31 346.70 L 578.78 346.98 L 580.25 346.97 L 581.72 346.89 L 583.19 346.93 L 584.67 346.88 L 586.14 346.95 L 587.61 346.91 L 589.08 346.85 L 590.56 346.85 L 592.03 346.87 L 593.50 346.89 L 594.97 346.93 L 596.44 346.90 L 597.92 346.91 L 599.39 346.88 L 600.86 346.92 L 602.33 346.87 L 603.81 346.83 L 605.28 348.03 L 606.75 347.16 L 608.22 347.36 L 609.69 347.79 L 611.17 347.67 L 612.64 350.39 L 614.11 365.67 L 615.58 355.18 L 617.06 349.07 L 618.53 366.94 L 620.00 367.84 L 621.47 365.70 L 622.94 372.82 L 624.42 365.75 L 625.89 362.43 L 627.36 354.40 L 628.83 343.48 L 630.31 348.29 L 631.78 351.06 L 633.25 355.23 L 634.72 363.94 L 636.19 365.04 L 637.67 374.21 L 639.14 361.83 L 640.61 365.73 L 642.08 354.29 L 643.56 360.49 L 645.03 370.25 L 646.50 367.62 L 647.97 371.28 L 649.44 371.52 L 650.92 366.52 L 652.39 367.74 L 653.86 368.68 L 655.33 368.35 L 656.81 374.14 L 658.28 373.52 L 659.75 363.68 L 661.22 352.49 L 662.69 369.85 L 664.17 365.25 L 665.64 368.32 L 667.11 365.34 L 668.58 374.71 L 670.06 371.70 L 671.53 373.32 L 673.00 371.64 L 674.47 371.43 L 675.94 369.52 L 677.42 366.45 L 678.89 370.50 L 680.36 377.98 L 681.83 379.58 L 683.31 375.98 L 684.78 380.55 L 686.25 378.47 L 687.72 370.08 L 689.19 375.85 L 690.67 376.75 L 692.14 372.19 L 693.61 373.97 L 695.08 370.87 L 696.56 364.59 L 698.03 359.10 L 699.50 370.34 L 700.97 369.12 L 702.44 372.47 L 703.92 371.09 L 705.39 368.32 L 706.86 367.59 L 708.33 360.13 L 709.81 364.86 L 711.28 359.99 L 712.75 365.98 L 714.22 362.30 L 715.69 359.19 L 717.17 364.10 L 718.64 364.56 L 720.11 356.86 L 721.58 363.25 L 723.06 367.45 L 724.53 360.86 L 726.00 377.59 L 727.47 373.79 L 728.94 379.78 L 730.42 384.66 L 731.89 381.58 L 733.36 394.66 L 734.83 394.66 L 736.31 391.95 L 737.78 389.08 L 739.25 375.58 L 740.72 375.52 L 742.19 380.03 L 743.67 371.13 L 745.14 374.60 L 746.61 381.53 L 748.08 380.32 L 749.56 376.15 L 751.03 377.19 L 752.50 375.48 L 753.97 371.59 L 755.44 373.34 L 756.92 380.41 L 758.39 380.11 L 759.86 379.91 L 761.33 381.03 L 762.81 383.52 L 764.28 381.98 L 765.75 376.36 L 767.22 378.64 L 768.69 380.02 L 770.17 384.63 L 771.64 386.92 L 773.11 387.33 L 774.58 386.17 L 776.06 386.61 L 777.53 386.20 L 779.00 386.82 L 780.47 387.64 L 781.94 388.58 L 783.42 388.91 L 784.89 388.57 L 786.36 390.35 L 787.83 382.59 L 789.31 392.89 L 790.78 389.72 L 792.25 396.98 L 793.72 396.61 L 795.19 398.35 L 796.67 403.06 L 798.14 400.72 L 799.61 401.99 L 801.08 400.66 L 802.56 401.12 L 804.03 400.06 L 805.50 399.34 L 806.97 398.11 L 808.44 398.05 L 809.92 397.43 L 811.39 397.28 L 812.86 396.08 L 814.33 395.61 L 815.81 395.57 L 817.28 395.68 L 818.75 395.97 L 820.22 396.43 L 821.69 396.20 L 823.17 396.60 L 824.64 395.28 L 826.11 395.19 L 827.58 393.63 L 829.06 392.25 L 830.53 387.53 L 832.00 386.39 L 833.47 387.31 L 834.94 385.35 L 836.42 383.72 L 837.89 382.87 L 839.36 385.30 L 840.83 383.44 L 842.31 378.63 L 843.78 370.26 L 845.25 375.34 L 846.72 377.74 L 848.19 374.37 L 849.67 375.93 L 851.14 374.35 L 852.61 374.04 L 854.08 374.95 L 855.56 375.15 L 857.03 375.03 L 858.50 373.45 L 859.97 374.23 L 861.44 373.92 L 862.92 371.29 L 864.39 370.13 L 865.86 363.15 L 867.33 363.23 L 868.81 363.57 L 870.28 362.19 L 871.75 362.47 L 873.22 361.39 L 874.69 363.44 L 876.17 363.90 L 877.64 365.23 L 879.11 368.58" stroke="#2E7D32" />
<path class="series" d="M 178.33 406.24 L 179.81 406.02 L 181.28 408.01 L 182.75 396.14 L 184.22 395.87 L 185.69 399.90 L 187.17 403.78 L 188.64 407.39 L 190.11 407.39 L 191.58 403.33 L 193.06 401.32 L 194.53 401.53 L 196.00 401.96 L 197.47 400.66 L 198.94 401.31 L 200.42 402.26 L 201.89 401.90 L 203.36 406.97 L 204.83 412.05 L 206.31 408.48 L 207.78 407.02 L 209.25 408.68 L 210.72 405.81 L 212.19 406.03 L 213.67 405.18 L 215.14 402.62 L 216.61 404.70 L 218.08 404.58 L 219.56 401.47 L 221.03 402.15 L 222.50 407.53 L 223.97 400.34 L 225.44 400.11 L 226.92 397.92 L 228.39 392.64 L 229.86 388.77 L 231.33 376.65 L 232.81 390.03 L 234.28 390.14 L 235.75 387.59 L 237.22 394.46 L 238.69 391.72 L 240.17 395.19 L 241.64 394.50 L 243.11 391.75 L 244.58 390.54 L 246.06 386.15 L 247.53 389.05 L 249.00 390.92 L 250.47 395.28 L 251.94 391.81 L 253.42 388.57 L 254.89 385.44 L 256.36 381.43 L 257.83 388.36 L 259.31 385.47 L 260.78 384.38 L 262.25 379.99 L 263.72 400.15 L 265.19 396.62 L 266.67 405.26 L 268.14 407.62 L 269.61 406.80 L 271.08 394.56 L 272.56 391.41 L 274.03 388.13 L 275.50 387.71 L 276.97 384.49 L 278.44 397.86 L 279.92 390.10 L 281.39 384.04 L 282.86 395.91 L 284.33 400.02 L 285.81 409.34 L 287.28 408.02 L 288.75 404.66 L 290.22 402.58 L 291.69 405.35 L 293.17 400.59 L 294.64 404.29 L 296.11 403.10 L 297.58 401.11 L 299.06 391.54 L 300.53 396.61 L 302.00 379.45 L 303.47 384.78 L 304.94 394.33 L 306.42 379.82 L 307.89 369.62 L 309.36 379.45 L 310.83 394.44 L 312.31 397.05 L 313.78 392.95 L 315.25 395.74 L 316.72 406.28 L 318.19 417.28 L 319.67 408.32 L 321.14 404.74 L 322.61 407.64 L 324.08 405.22 L 325.56 401.41 L 327.03 403.17 L 328.50 397.70 L 329.97 394.11 L 331.44 396.85 L 332.92 397.61 L 334.39 404.72 L 335.86 422.93 L 337.33 408.71 L 338.81 406.19 L 340.28 407.24 L 341.75 409.23 L 343.22 411.92 L 344.69 405.40 L 346.17 405.54 L 347.64 404.83 L 349.11 403.12 L 350.58 403.20 L 352.06 401.81 L 353.53 403.70 L 355.00 401.28 L 356.47 408.17 L 357.94 415.75 L 359.42 425.18 L 360.89 411.67 L 362.36 406.75 L 363.83 409.85 L 365.31 421.09 L 366.78 414.53 L 368.25 410.69 L 369.72 424.67 L 371.19 415.03 L 372.67 414.41 L 374.14 413.83 L 375.61 419.15 L 377.08 411.43 L 378.56 399.14 L 380.03 402.46 L 381.50 416.13 L 382.97 435.10 L 384.44 425.69 L 385.92 429.20 L 387.39 427.21 L 388.86 408.92 L 390.33 406.35 L 391.81 418.29 L 393.28 417.39 L 394.75 406.54 L 396.22 393.75 L 397.69 399.40 L 399.17 405.08 L 400.64 406.69 L 402.11 410.43 L 403.58 414.32 L 405.06 405.34 L 406.53 396.92 L 408.00 381.61 L 409.47 394.15 L 410.94 401.77 L 412.42 395.09 L 413.89 379.84 L 415.36 401.22 L 416.83 405.99 L 418.31 408.09 L 419.78 406.39 L 421.25 402.73 L 422.72 413.77 L 424.19 415.35 L 425.67 423.21 L 427.14 417.16 L 428.61 415.35 L 430.08 418.08 L 431.56 412.24 L 433.03 412.83 L 434.50 407.80 L 435.97 415.31 L 437.44 413.22 L 438.92 409.38 L 440.39 405.72 L 441.86 400.37 L 443.33 401.50 L 444.81 399.92 L 446.28 402.70 L 447.75 400.91 L 449.22 400.69 L 450.69 401.38 L 452.17 401.79 L 453.64 401.15 L 455.11 401.00 L 456.58 401.40 L 458.06 401.25 L 459.53 401.25 L 461.00 401.09 L 462.47 401.18 L 463.94 401.21 L 465.42 401.18 L 466.89 401.12 L 468.36 401.13 L 469.83 401.16 L 471.31 401.10 L 472.78 401.13 L 474.25 400.92 L 475.72 401.43 L 477.19 401.30 L 478.67 400.89 L 480.14 400.12 L 481.61 400.10 L 483.08 400.28 L 484.56 400.55 L 486.03 400.67 L 487.50 400.47 L 488.97 400.37 L 490.44 400.30 L 491.92 400.25 L 493.39 400.33 L 494.86 400.28 L 496.33 400.41 L 497.81 400.40 L 499.28 400.28 L 500.75 400.31 L 502.22 400.30 L 503.69 400.12 L 505.17 400.72 L 506.64 400.31 L 508.11 402.68 L 509.58 401.37 L 511.06 401.67 L 512.53 401.71 L 514.00 401.70 L 515.47 401.81 L 516.94 401.70 L 518.42 401.71 L 519.89 401.72 L 521.36 401.72 L 522.83 401.75 L 524.31 401.74 L 525.78 401.70 L 527.25 401.77 L 528.72 401.76 L 530.19 401.70 L 531.67 401.75 L 533.14 401.77 L 534.61 401.73 L 536.08 401.80 L 537.56 401.72 L 539.03 402.37 L 540.50 400.97 L 541.97 401.58 L 543.44 401.79 L 544.92 401.59 L 546.39 401.55 L 547.86 401.64 L 549.33 401.54 L 550.81 401.59 L 552.28 401.53 L 553.75 401.58 L 555.22 401.57 L 556.69 401.49 L 558.17 401.59 L 559.64 401.54 L 561.11 401.57 L 562.58 401.55 L 564.06 401.51 L 565.53 401.59 L 567.00 401.57 L 568.47 401.49 L 569.94 401.60 L 571.42 401.54 L 572.89 401.48 L 574.36 401.58 L 575.83 402.76 L 577.31 400.51 L 578.78 401.19 L 580.25 401.39 L 581.72 401.02 L 583.19 401.31 L 584.67 401.29 L 586.14 401.14 L 587.61 401.23 L 589.08 401.26 L 590.56 401.16 L 592.03 401.23 L 593.50 401.23 L 594.97 401.19 L 596.44 401.23 L 597.92 401.18 L 599.39 401.21 L 600.86 401.19 L 602.33 401.24 L 603.81 401.40 L 605.28 400.76 L 606.75 401.00 L 608.22 401.05 L 609.69 400.98 L 611.17 400.90 L 612.64 399.69 L 614.11 399.54 L 615.58 411.45 L 617.06 406.15 L 618.53 417.67 L 620.00 413.84 L 621.47 424.83 L 622.94 418.93 L 624.42 406.13 L 625.89 407.73 L 627.36 418.31 L 628.83 419.88 L 630.31 425.81 L 631.78 417.88 L 633.25 425.67 L 634.72 420.20 L 636.19 412.97 L 637.67 422.02 L 639.14 413.29 L 640.61 422.05 L 642.08 417.28 L 643.56 415.71 L 645.03 406.39 L 646.50 407.63 L 647.97 397.60 L 649.44 415.26 L 650.92 403.25 L 652.39 391.08 L 653.86 397.11 L 655.33 404.40 L 656.81 409.65 L 658.28 404.43 L 659.75 409.03 L 661.22 402.10 L 662.69 410.32 L 664.17 408.23 L 665.64 400.92 L 667.11 391.20 L 668.58 404.32 L 670.06 408.37 L 671.53 416.30 L 673.00 402.79 L 674.47 416.37 L 675.94 409.44 L 677.42 398.79 L 678.89 401.19 L 680.36 412.87 L 681.83 402.86 L 683.31 411.23 L 684.78 413.61 L 686.25 418.95 L 687.72 415.10 L 689.19 425.33 L 690.67 431.05 L 692.14 421.29 L 693.61 387.37 L 695.08 385.41 L 696.56 398.10 L 698.03 418.54 L 699.50 436.86 L 700.97 435.39 L 702.44 416.64 L 703.92 393.82 L 705.39 415.71 L 706.86 414.81 L 708.33 413.01 L 709.81 428.64 L 711.28 407.38 L 712.75 428.95 L 714.22 398.50 L 715.69 400.26 L 717.17 386.44 L 718.64 426.88 L 720.11 421.13 L 721.58 423.17 L 723.06 418.58 L 724.53 421.63 L 726.00 415.86 L 727.47 418.11 L 728.94 414.10 L 730.42 406.67 L 731.89 403.31 L 733.36 402.73 L 734.83 402.73 L 736.31 396.88 L 737.78 402.95 L 739.25 404.81 L 740.72 409.94 L 742.19 423.80 L 743.67 437.92 L 745.14 436.64 L 746.61 446.69 L 748.08 432.74 L 749.56 428.75 L 751.03 426.29 L 752.50 433.28 L 753.97 427.76 L 755.44 431.07 L 756.92 427.82 L 758.39 421.19 L 759.86 423.75 L 761.33 424.62 L 762.81 421.96 L 764.28 417.55 L 765.75 418.91 L 767.22 418.09 L 768.69 415.20 L 770.17 413.68 L 771.64 413.76 L 773.11 410.64 L 774.58 409.20 L 776.06 410.09 L 777.53 407.06 L 779.00 403.04 L 780.47 406.05 L 781.94 407.11 L 783.42 406.11 L 784.89 406.79 L 786.36 408.82 L 787.83 406.50 L 789.31 407.37 L 790.78 405.88 L 792.25 407.77 L 793.72 406.78 L 795.19 408.32 L 796.67 411.26 L 798.14 414.33 L 799.61 413.62 L 801.08 413.59 L 802.56 414.92 L 804.03 418.78 L 805.50 416.83 L 806.97 418.98 L 808.44 419.15 L 809.92 418.33 L 811.39 415.87 L 812.86 417.31 L 814.33 417.05 L 815.81 416.08 L 817.28 414.33 L 818.75 414.11 L 820.22 415.68 L 821.69 414.53 L 823.17 415.37 L 824.64 417.31 L 826.11 418.56 L 827.58 418.25 L 829.06 415.81 L 830.53 417.78 L 832.00 416.59 L 833.47 422.01 L 834.94 418.66 L 836.42 415.23 L 837.89 419.59 L 839.36 413.65 L 840.83 415.47 L 842.31 425.78 L 843.78 423.03 L 845.25 427.93 L 846.72 432.70 L 848.19 421.46 L 849.67 428.50 L 851.14 423.19 L 852.61 424.18 L 854.08 421.51 L 855.56 419.12 L 857.03 416.32 L 858.50 421.09 L 859.97 422.48 L 861.44 422.89 L 862.92 425.67 L 864.39 423.35 L 865.86 420.85 L 867.33 424.94 L 868.81 425.20 L 870.28 426.29 L 871.75 429.27 L 873.22 417.52 L 874.69 413.59 L 876.17 405.14 L 877.64 425.46 L 879.11 417.12" stroke="#6A1B9A" />
<line x1="900.00" y1="307.75" x2="918.00" y2="307.75" stroke="#2E7D32" stroke-width="3" />
<text class="small" x="924.00" y="311.75">pitch</text>
<line x1="900.00" y1="323.75" x2="918.00" y2="323.75" stroke="#6A1B9A" stroke-width="3" />
<text class="small" x="924.00" y="327.75">roll</text>
<text x="90" y="500.50" font-size="14" font-weight="700">Aceleração (magnitude) (u.a.)</text>
<rect class="event" x="443.33" y="506.50" width="170.78" height="192.75" />
<line class="eventline" x1="443.33" y1="506.50" x2="443.33" y2="699.25" />
<line class="eventline" x1="614.11" y1="506.50" x2="614.11" y2="699.25" />
<line class="grid" x1="90" y1="699.25" x2="1150" y2="699.25" />
<text class="small" x="80" y="703.25" text-anchor="end">0.00</text>
<line class="grid" x1="90" y1="660.70" x2="1150" y2="660.70" />
<text class="small" x="80" y="664.70" text-anchor="end">0.50</text>
<line class="grid" x1="90" y1="622.15" x2="1150" y2="622.15" />
<text class="small" x="80" y="626.15" text-anchor="end">1.00</text>
<line class="grid" x1="90" y1="583.60" x2="1150" y2="583.60" />
<text class="small" x="80" y="587.60" text-anchor="end">1.50</text>
<line class="grid" x1="90" y1="545.05" x2="1150" y2="545.05" />
<text class="small" x="80" y="549.05" text-anchor="end">2.00</text>
<line class="grid" x1="90" y1="506.50" x2="1150" y2="506.50" />
<text class="small" x="80" y="510.50" text-anchor="end">2.50</text>
<line class="grid" x1="90.00" y1="506.50" x2="90.00" y2="699.25" />
<line class="grid" x1="266.67" y1="506.50" x2="266.67" y2="699.25" />
<line class="grid" x1="443.33" y1="506.50" x2="443.33" y2="699.25" />
<line class="grid" x1="620.00" y1="506.50" x2="620.00" y2="699.25" />
<line class="grid" x1="796.67" y1="506.50" x2="796.67" y2="699.25" />
<line class="grid" x1="973.33" y1="506.50" x2="973.33" y2="699.25" />
<line class="grid" x1="1150.00" y1="506.50" x2="1150.00" y2="699.25" />
<line class="axis" x1="90" y1="506.50" x2="90" y2="699.25" />
<line class="axis" x1="90" y1="699.25" x2="1150" y2="699.25" />
<path class="series" d="M 178.33 686.75 L 179.81 677.17 L 181.28 686.61 L 182.75 673.14 L 184.22 673.24 L 185.69 687.64 L 187.17 685.29 L 188.64 686.87 L 190.11 686.98 L 191.58 685.90 L 193.06 680.39 L 194.53 689.50 L 196.00 684.36 L 197.47 692.61 L 198.94 692.24 L 200.42 693.04 L 201.89 690.10 L 203.36 694.81 L 204.83 695.93 L 206.31 676.51 L 207.78 696.14 L 209.25 691.45 L 210.72 683.50 L 212.19 685.45 L 213.67 686.67 L 215.14 693.34 L 216.61 696.92 L 218.08 687.76 L 219.56 681.54 L 221.03 690.23 L 222.50 683.63 L 223.97 681.99 L 225.44 683.42 L 226.92 673.18 L 228.39 662.41 L 229.86 651.73 L 231.33 674.91 L 232.81 678.79 L 234.28 686.45 L 235.75 693.00 L 237.22 681.95 L 238.69 689.94 L 240.17 681.63 L 241.64 682.15 L 243.11 660.81 L 244.58 686.31 L 246.06 686.31 L 247.53 682.14 L 249.00 676.06 L 250.47 683.11 L 251.94 692.40 L 253.42 679.27 L 254.89 679.00 L 256.36 670.62 L 257.83 680.29 L 259.31 672.77 L 260.78 676.45 L 262.25 659.13 L 263.72 642.12 L 265.19 663.62 L 266.67 649.94 L 268.14 655.35 L 269.61 673.06 L 271.08 680.97 L 272.56 666.51 L 274.03 677.71 L 275.50 682.24 L 276.97 681.96 L 278.44 669.44 L 279.92 651.92 L 281.39 665.08 L 282.86 664.90 L 284.33 681.69 L 285.81 680.31 L 287.28 686.16 L 288.75 691.14 L 290.22 689.00 L 291.69 656.28 L 293.17 686.94 L 294.64 676.19 L 296.11 661.19 L 297.58 643.37 L 299.06 669.22 L 300.53 684.98 L 302.00 637.67 L 303.47 655.63 L 304.94 689.01 L 306.42 669.92 L 307.89 638.33 L 309.36 635.72 L 310.83 662.71 L 312.31 672.86 L 313.78 653.24 L 315.25 647.30 L 316.72 645.12 L 318.19 553.44 L 319.67 674.90 L 321.14 686.58 L 322.61 672.67 L 324.08 674.86 L 325.56 670.07 L 327.03 662.65 L 328.50 663.77 L 329.97 674.16 L 331.44 657.47 L 332.92 637.06 L 334.39 653.69 L 335.86 641.99 L 337.33 661.76 L 338.81 691.32 L 340.28 667.93 L 341.75 684.82 L 343.22 651.47 L 344.69 651.00 L 346.17 689.68 L 347.64 677.16 L 349.11 677.90 L 350.58 678.75 L 352.06 686.00 L 353.53 668.90 L 355.00 664.62 L 356.47 653.68 L 357.94 688.37 L 359.42 653.97 L 360.89 654.16 L 362.36 642.50 L 363.83 651.04 L 365.31 669.86 L 366.78 618.15 L 368.25 635.35 L 369.72 618.12 L 371.19 641.80 L 372.67 683.55 L 374.14 675.22 L 375.61 696.81 L 377.08 668.80 L 378.56 629.32 L 380.03 667.21 L 381.50 673.08 L 382.97 614.38 L 384.44 661.09 L 385.92 632.69 L 387.39 656.59 L 388.86 656.23 L 390.33 653.53 L 391.81 658.80 L 393.28 624.79 L 394.75 629.57 L 396.22 611.66 L 397.69 632.13 L 399.17 678.80 L 400.64 660.34 L 402.11 660.34 L 403.58 674.17 L 405.06 667.76 L 406.53 669.29 L 408.00 635.34 L 409.47 665.80 L 410.94 663.31 L 412.42 676.52 L 413.89 666.18 L 415.36 679.20 L 416.83 677.91 L 418.31 674.77 L 419.78 693.33 L 421.25 682.82 L 422.72 688.62 L 424.19 676.06 L 425.67 683.48 L 427.14 685.31 L 428.61 686.20 L 430.08 677.02 L 431.56 675.93 L 433.03 694.18 L 434.50 689.18 L 435.97 686.47 L 437.44 689.15 L 438.92 687.22 L 440.39 694.43 L 441.86 692.90 L 443.33 680.71 L 444.81 658.00 L 446.28 685.08 L 447.75 676.88 L 449.22 693.15 L 450.69 697.29 L 452.17 698.85 L 453.64 697.52 L 455.11 698.51 L 456.58 698.83 L 458.06 698.15 L 459.53 698.34 L 461.00 698.71 L 462.47 698.53 L 463.94 698.36 L 465.42 698.55 L 466.89 699.20 L 468.36 699.06 L 469.83 699.14 L 471.31 699.13 L 472.78 699.14 L 474.25 698.74 L 475.72 696.27 L 477.19 695.20 L 478.67 695.08 L 480.14 696.56 L 481.61 698.24 L 483.08 699.12 L 484.56 698.70 L 486.03 698.63 L 487.50 698.80 L 488.97 699.11 L 490.44 698.83 L 491.92 699.05 L 493.39 698.97 L 494.86 699.11 L 496.33 698.84 L 497.81 699.05 L 499.28 699.14 L 500.75 699.08 L 502.22 699.11 L 503.69 698.85 L 505.17 697.49 L 506.64 696.43 L 508.11 697.56 L 509.58 697.58 L 511.06 698.28 L 512.53 698.61 L 514.00 698.97 L 515.47 699.11 L 516.94 699.11 L 518.42 699.09 L 519.89 699.09 L 521.36 699.10 L 522.83 699.11 L 524.31 699.19 L 525.78 699.10 L 527.25 699.14 L 528.72 699.13 L 530.19 699.19 L 531.67 699.19 L 533.14 699.15 L 534.61 699.13 L 536.08 698.86 L 537.56 696.80 L 539.03 697.96 L 540.50 698.68 L 541.97 696.95 L 543.44 698.44 L 544.92 698.88 L 546.39 698.89 L 547.86 698.97 L 549.33 698.90 L 550.81 698.96 L 552.28 699.04 L 553.75 699.04 L 555.22 699.11 L 556.69 699.13 L 558.17 699.07 L 559.64 699.13 L 561.11 699.09 L 562.58 699.09 L 564.06 699.13 L 565.53 699.10 L 567.00 698.97 L 568.47 699.11 L 569.94 699.10 L 571.42 699.04 L 572.89 698.72 L 574.36 696.72 L 575.83 697.43 L 577.31 694.94 L 578.78 698.69 L 580.25 698.67 L 581.72 698.41 L 583.19 698.91 L 584.67 699.13 L 586.14 698.95 L 587.61 699.07 L 589.08 698.99 L 590.56 699.13 L 592.03 699.22 L 593.50 699.00 L 594.97 699.19 L 596.44 699.13 L 597.92 699.16 L 599.39 699.03 L 600.86 699.12 L 602.33 698.95 L 603.81 699.03 L 605.28 697.58 L 606.75 695.47 L 608.22 697.61 L 609.69 698.17 L 611.17 698.58 L 612.64 693.91 L 614.11 668.39 L 615.58 684.88 L 617.06 669.99 L 618.53 681.90 L 620.00 680.12 L 621.47 652.42 L 622.94 667.52 L 624.42 682.42 L 625.89 675.23 L 627.36 661.59 L 628.83 680.71 L 630.31 692.35 L 631.78 681.77 L 633.25 685.51 L 634.72 677.07 L 636.19 681.67 L 637.67 661.63 L 639.14 662.68 L 640.61 682.93 L 642.08 668.43 L 643.56 689.82 L 645.03 663.85 L 646.50 681.40 L 647.97 642.52 L 649.44 686.09 L 650.92 664.13 L 652.39 663.48 L 653.86 670.24 L 655.33 691.28 L 656.81 688.83 L 658.28 695.40 L 659.75 672.40 L 661.22 643.70 L 662.69 635.14 L 664.17 672.42 L 665.64 670.90 L 667.11 659.39 L 668.58 682.73 L 670.06 674.70 L 671.53 663.97 L 673.00 663.09 L 674.47 668.91 L 675.94 682.95 L 677.42 664.39 L 678.89 657.04 L 680.36 631.17 L 681.83 663.07 L 683.31 656.55 L 684.78 673.51 L 686.25 666.06 L 687.72 688.71 L 689.19 646.95 L 690.67 666.08 L 692.14 667.90 L 693.61 620.97 L 695.08 649.52 L 696.56 666.67 L 698.03 642.15 L 699.50 645.53 L 700.97 671.09 L 702.44 673.03 L 703.92 640.14 L 705.39 664.96 L 706.86 655.47 L 708.33 673.81 L 709.81 650.19 L 711.28 661.69 L 712.75 642.60 L 714.22 673.16 L 715.69 669.04 L 717.17 623.66 L 718.64 643.06 L 720.11 630.57 L 721.58 674.11 L 723.06 682.48 L 724.53 624.97 L 726.00 660.30 L 727.47 607.02 L 728.94 658.38 L 730.42 658.38 L 731.89 680.50 L 733.36 659.67 L 734.83 652.22 L 736.31 657.60 L 737.78 655.33 L 739.25 670.95 L 740.72 661.40 L 742.19 649.57 L 743.67 674.78 L 745.14 682.76 L 746.61 675.28 L 748.08 674.98 L 749.56 672.29 L 751.03 688.18 L 752.50 673.46 L 753.97 665.85 L 755.44 663.87 L 756.92 659.70 L 758.39 661.44 L 759.86 678.94 L 761.33 683.17 L 762.81 689.79 L 764.28 688.77 L 765.75 675.94 L 767.22 679.97 L 768.69 689.80 L 770.17 685.05 L 771.64 687.75 L 773.11 687.21 L 774.58 692.93 L 776.06 696.15 L 777.53 692.89 L 779.00 689.02 L 780.47 694.02 L 781.94 693.49 L 783.42 691.42 L 784.89 690.67 L 786.36 685.71 L 787.83 683.77 L 789.31 684.79 L 790.78 696.75 L 792.25 686.10 L 793.72 688.65 L 795.19 684.82 L 796.67 688.54 L 798.14 683.91 L 799.61 693.25 L 801.08 694.24 L 802.56 695.86 L 804.03 694.31 L 805.50 694.96 L 806.97 696.78 L 808.44 688.66 L 809.92 692.54 L 811.39 695.36 L 812.86 694.86 L 814.33 691.66 L 815.81 687.73 L 817.28 697.49 L 818.75 698.64 L 820.22 694.42 L 821.69 693.29 L 823.17 695.81 L 824.64 694.33 L 826.11 695.21 L 827.58 694.58 L 829.06 695.70 L 830.53 696.78 L 832.00 686.17 L 833.47 690.29 L 834.94 696.57 L 836.42 681.36 L 837.89 682.03 L 839.36 686.14 L 840.83 692.85 L 842.31 665.75 L 843.78 675.45 L 845.25 670.74 L 846.72 639.81 L 848.19 676.30 L 849.67 668.64 L 851.14 683.00 L 852.61 692.27 L 854.08 692.19 L 855.56 691.88 L 857.03 687.85 L 858.50 687.27 L 859.97 694.82 L 861.44 688.53 L 862.92 681.40 L 864.39 686.99 L 865.86 670.86 L 867.33 666.59 L 868.81 669.91 L 870.28 670.60 L 871.75 645.42 L 873.22 671.74 L 874.69 681.01 L 876.17 669.44 L 877.64 685.17 L 879.11 689.59" stroke="#FB8C00" />
<text x="90" y="711.25" font-size="14" font-weight="700">Giroscópio (magnitude) (u.a.)</text>
<rect class="event" x="443.33" y="717.25" width="170.78" height="192.75" />
<line class="eventline" x1="443.33" y1="717.25" x2="443.33" y2="910.00" />
<line class="eventline" x1="614.11" y1="717.25" x2="614.11" y2="910.00" />
<line class="grid" x1="90" y1="910.00" x2="1150" y2="910.00" />
<text class="small" x="80" y="914.00" text-anchor="end">0.00</text>
<line class="grid" x1="90" y1="871.45" x2="1150" y2="871.45" />
<text class="small" x="80" y="875.45" text-anchor="end">0.10</text>
<line class="grid" x1="90" y1="832.90" x2="1150" y2="832.90" />
<text class="small" x="80" y="836.90" text-anchor="end">0.20</text>
<line class="grid" x1="90" y1="794.35" x2="1150" y2="794.35" />
<text class="small" x="80" y="798.35" text-anchor="end">0.30</text>
<line class="grid" x1="90" y1="755.80" x2="1150" y2="755.80" />
<text class="small" x="80" y="759.80" text-anchor="end">0.40</text>
<line class="grid" x1="90" y1="717.25" x2="1150" y2="717.25" />
<text class="small" x="80" y="721.25" text-anchor="end">0.50</text>
<line class="grid" x1="90.00" y1="717.25" x2="90.00" y2="910.00" />
<line class="grid" x1="266.67" y1="717.25" x2="266.67" y2="910.00" />
<line class="grid" x1="443.33" y1="717.25" x2="443.33" y2="910.00" />
<line class="grid" x1="620.00" y1="717.25" x2="620.00" y2="910.00" />
<line class="grid" x1="796.67" y1="717.25" x2="796.67" y2="910.00" />
<line class="grid" x1="973.33" y1="717.25" x2="973.33" y2="910.00" />
<line class="grid" x1="1150.00" y1="717.25" x2="1150.00" y2="910.00" />
<line class="axis" x1="90" y1="717.25" x2="90" y2="910.00" />
<line class="axis" x1="90" y1="910.00" x2="1150" y2="910.00" />
<path class="series" d="M 178.33 901.60 L 179.81 904.02 L 181.28 902.09 L 182.75 902.43 L 184.22 902.72 L 185.69 905.43 L 187.17 902.21 L 188.64 898.42 L 190.11 904.67 L 191.58 900.43 L 193.06 904.91 L 194.53 903.46 L 196.00 907.59 L 197.47 906.21 L 198.94 907.39 L 200.42 907.32 L 201.89 904.98 L 203.36 904.53 L 204.83 900.77 L 206.31 904.50 L 207.78 906.21 L 209.25 906.14 L 210.72 906.75 L 212.19 906.94 L 213.67 904.17 L 215.14 905.25 L 216.61 906.60 L 218.08 904.41 L 219.56 902.48 L 221.03 903.87 L 222.50 905.54 L 223.97 901.15 L 225.44 901.94 L 226.92 897.24 L 228.39 888.36 L 229.86 875.71 L 231.33 872.62 L 232.81 875.34 L 234.28 876.91 L 235.75 878.66 L 237.22 883.25 L 238.69 885.10 L 240.17 894.79 L 241.64 894.84 L 243.11 895.35 L 244.58 895.67 L 246.06 895.67 L 247.53 898.13 L 249.00 899.78 L 250.47 903.23 L 251.94 901.14 L 253.42 896.85 L 254.89 886.53 L 256.36 880.30 L 257.83 875.53 L 259.31 872.15 L 260.78 868.49 L 262.25 863.42 L 263.72 882.50 L 265.19 901.34 L 266.67 885.26 L 268.14 903.90 L 269.61 901.56 L 271.08 906.06 L 272.56 894.54 L 274.03 887.11 L 275.50 888.59 L 276.97 888.06 L 278.44 886.03 L 279.92 879.11 L 281.39 886.28 L 282.86 890.55 L 284.33 896.32 L 285.81 896.99 L 287.28 899.27 L 288.75 899.21 L 290.22 904.72 L 291.69 906.04 L 293.17 904.78 L 294.64 908.65 L 296.11 899.59 L 297.58 894.95 L 299.06 904.07 L 300.53 897.71 L 302.00 878.00 L 303.47 865.55 L 304.94 864.13 L 306.42 876.34 L 307.89 879.11 L 309.36 862.59 L 310.83 866.41 L 312.31 873.73 L 313.78 888.54 L 315.25 886.95 L 316.72 857.37 L 318.19 893.25 L 319.67 886.68 L 321.14 895.12 L 322.61 886.46 L 324.08 891.63 L 325.56 885.37 L 327.03 896.80 L 328.50 892.19 L 329.97 899.07 L 331.44 877.36 L 332.92 889.22 L 334.39 892.53 L 335.86 899.69 L 337.33 889.73 L 338.81 882.16 L 340.28 891.97 L 341.75 898.37 L 343.22 891.71 L 344.69 904.67 L 346.17 901.83 L 347.64 887.52 L 349.11 902.28 L 350.58 901.31 L 352.06 899.75 L 353.53 902.32 L 355.00 902.16 L 356.47 893.91 L 357.94 899.95 L 359.42 887.80 L 360.89 873.27 L 362.36 902.90 L 363.83 892.32 L 365.31 895.05 L 366.78 897.74 L 368.25 894.45 L 369.72 891.88 L 371.19 891.61 L 372.67 900.95 L 374.14 894.49 L 375.61 892.75 L 377.08 893.54 L 378.56 888.36 L 380.03 873.56 L 381.50 869.61 L 382.97 898.73 L 384.44 875.35 L 385.92 848.30 L 387.39 823.39 L 388.86 819.93 L 390.33 815.72 L 391.81 809.38 L 393.28 812.51 L 394.75 831.82 L 396.22 869.73 L 397.69 895.12 L 399.17 906.32 L 400.64 909.04 L 402.11 909.04 L 403.58 898.60 L 405.06 878.97 L 406.53 865.92 L 408.00 861.99 L 409.47 885.45 L 410.94 898.28 L 412.42 897.78 L 413.89 896.83 L 415.36 897.03 L 416.83 885.27 L 418.31 901.38 L 419.78 901.53 L 421.25 903.50 L 422.72 895.84 L 424.19 899.10 L 425.67 903.75 L 427.14 907.55 L 428.61 904.92 L 430.08 904.80 L 431.56 905.64 L 433.03 902.11 L 434.50 902.63 L 435.97 905.93 L 437.44 906.82 L 438.92 904.06 L 440.39 905.11 L 441.86 903.36 L 443.33 907.31 L 444.81 908.68 L 446.28 907.85 L 447.75 908.00 L 449.22 909.09 L 450.69 909.11 L 452.17 909.26 L 453.64 909.10 L 455.11 909.11 L 456.58 909.10 L 458.06 909.17 L 459.53 909.12 L 461.00 909.10 L 462.47 909.23 L 463.94 909.16 L 465.42 909.43 L 466.89 909.95 L 468.36 909.96 L 469.83 909.97 L 471.31 909.96 L 472.78 909.94 L 474.25 909.84 L 475.72 909.70 L 477.19 909.18 L 478.67 908.97 L 480.14 909.79 L 481.61 909.90 L 483.08 909.90 L 484.56 909.85 L 486.03 909.96 L 487.50 909.92 L 488.97 909.95 L 490.44 909.96 L 491.92 909.97 L 493.39 909.94 L 494.86 909.97 L 496.33 909.96 L 497.81 909.95 L 499.28 909.91 L 500.75 909.93 L 502.22 909.97 L 503.69 909.89 L 505.17 909.70 L 506.64 907.23 L 508.11 909.29 L 509.58 909.90 L 511.06 909.86 L 512.53 909.93 L 514.00 909.91 L 515.47 909.96 L 516.94 909.93 L 518.42 909.93 L 519.89 909.94 L 521.36 909.96 L 522.83 909.95 L 524.31 909.93 L 525.78 909.94 L 527.25 909.95 L 528.72 909.93 L 530.19 909.89 L 531.67 909.89 L 533.14 909.98 L 534.61 909.96 L 536.08 909.84 L 537.56 909.57 L 539.03 909.35 L 540.50 909.40 L 541.97 909.70 L 543.44 909.85 L 544.92 909.93 L 546.39 909.90 L 547.86 909.96 L 549.33 909.93 L 550.81 909.94 L 552.28 909.98 L 553.75 909.97 L 555.22 909.96 L 556.69 909.95 L 558.17 909.95 L 559.64 909.96 L 561.11 909.91 L 562.58 909.91 L 564.06 909.91 L 565.53 909.93 L 567.00 909.98 L 568.47 909.92 L 569.94 909.95 L 571.42 909.92 L 572.89 909.91 L 574.36 909.22 L 575.83 909.27 L 577.31 909.44 L 578.78 909.89 L 580.25 909.85 L 581.72 909.90 L 583.19 909.97 L 584.67 909.98 L 586.14 909.94 L 587.61 909.93 L 589.08 909.92 L 590.56 909.95 L 592.03 909.96 L 593.50 909.94 L 594.97 909.93 L 596.44 909.94 L 597.92 909.95 L 599.39 909.98 L 600.86 909.94 L 602.33 909.90 L 603.81 909.87 L 605.28 908.75 L 606.75 909.55 L 608.22 909.80 L 609.69 909.86 L 611.17 909.82 L 612.64 909.41 L 614.11 903.92 L 615.58 891.88 L 617.06 898.15 L 618.53 886.90 L 620.00 902.25 L 621.47 904.11 L 622.94 897.30 L 624.42 888.51 L 625.89 888.41 L 627.36 882.17 L 628.83 882.54 L 630.31 887.50 L 631.78 882.73 L 633.25 887.64 L 634.72 880.84 L 636.19 880.87 L 637.67 878.49 L 639.14 873.51 L 640.61 870.38 L 642.08 871.13 L 643.56 881.26 L 645.03 874.67 L 646.50 884.19 L 647.97 878.81 L 649.44 892.53 L 650.92 893.60 L 652.39 893.46 L 653.86 891.42 L 655.33 899.33 L 656.81 904.18 L 658.28 898.09 L 659.75 898.71 L 661.22 884.01 L 662.69 901.13 L 664.17 897.07 L 665.64 898.36 L 667.11 895.66 L 668.58 902.63 L 670.06 890.27 L 671.53 907.05 L 673.00 899.26 L 674.47 906.21 L 675.94 893.85 L 677.42 897.28 L 678.89 893.29 L 680.36 907.35 L 681.83 897.28 L 683.31 897.71 L 684.78 904.95 L 686.25 899.69 L 687.72 897.28 L 689.19 896.44 L 690.67 888.70 L 692.14 888.18 L 693.61 895.26 L 695.08 860.93 L 696.56 878.90 L 698.03 895.33 L 699.50 880.98 L 700.97 889.76 L 702.44 898.98 L 703.92 886.80 L 705.39 881.81 L 706.86 884.41 L 708.33 882.31 L 709.81 902.04 L 711.28 888.87 L 712.75 890.14 L 714.22 897.52 L 715.69 883.35 L 717.17 868.25 L 718.64 877.23 L 720.11 906.04 L 721.58 899.74 L 723.06 891.06 L 724.53 886.88 L 726.00 859.39 L 727.47 904.48 L 728.94 900.27 L 730.42 900.27 L 731.89 898.11 L 733.36 901.83 L 734.83 902.59 L 736.31 899.55 L 737.78 896.92 L 739.25 893.52 L 740.72 894.86 L 742.19 879.11 L 743.67 872.53 L 745.14 875.74 L 746.61 879.27 L 748.08 877.57 L 749.56 881.64 L 751.03 867.42 L 752.50 884.92 L 753.97 883.91 L 755.44 886.41 L 756.92 893.73 L 758.39 898.81 L 759.86 903.15 L 761.33 901.43 L 762.81 901.87 L 764.28 902.76 L 765.75 902.30 L 767.22 901.79 L 768.69 903.84 L 770.17 902.82 L 771.64 902.29 L 773.11 901.86 L 774.58 902.93 L 776.06 903.08 L 777.53 903.91 L 779.00 907.85 L 780.47 906.94 L 781.94 907.44 L 783.42 906.91 L 784.89 906.22 L 786.36 906.75 L 787.83 906.97 L 789.31 906.80 L 790.78 905.17 L 792.25 902.69 L 793.72 901.35 L 795.19 906.49 L 796.67 906.68 L 798.14 905.24 L 799.61 900.30 L 801.08 901.50 L 802.56 901.54 L 804.03 900.54 L 805.50 901.19 L 806.97 902.13 L 808.44 902.37 L 809.92 901.63 L 811.39 901.24 L 812.86 900.53 L 814.33 901.63 L 815.81 902.60 L 817.28 904.53 L 818.75 905.85 L 820.22 906.23 L 821.69 907.54 L 823.17 904.97 L 824.64 907.73 L 826.11 906.50 L 827.58 906.35 L 829.06 902.20 L 830.53 906.59 L 832.00 906.85 L 833.47 906.99 L 834.94 901.68 L 836.42 904.87 L 837.89 904.98 L 839.36 905.06 L 840.83 900.54 L 842.31 893.55 L 843.78 886.67 L 845.25 890.81 L 846.72 879.94 L 848.19 868.99 L 849.67 865.57 L 851.14 879.85 L 852.61 883.99 L 854.08 890.30 L 855.56 897.85 L 857.03 900.42 L 858.50 899.88 L 859.97 902.25 L 861.44 900.87 L 862.92 891.83 L 864.39 890.61 L 865.86 900.06 L 867.33 891.89 L 868.81 885.18 L 870.28 882.91 L 871.75 868.29 L 873.22 872.86 L 874.69 880.22 L 876.17 872.80 L 877.64 885.79 L 879.11 886.35" stroke="#E53935" />
<text x="620.00" y="952" font-size="15" text-anchor="middle">minutos (relativo ao início do evento)</text>
<text class="small" x="90.00" y="936" text-anchor="middle">-4.00</text>
<text class="small" x="266.67" y="936" text-anchor="middle">-2.00</text>
<text class="small" x="443.33" y="936" text-anchor="middle">0.00</text>
<text class="small" x="620.00" y="936" text-anchor="middle">2.00</text>
<text class="small" x="796.67" y="936" text-anchor="middle">4.00</text>
<text class="small" x="973.33" y="936" text-anchor="middle">6.00</text>
<text class="small" x="1150.00" y="936" text-anchor="middle">8.00</text>
</svg>