<?xml version="1.0" encoding="UTF-8"?>
<svg xmlns="http://www.w3.org/2000/svg" width="1180" height="980" viewBox="0 0 1180 980">
<style>
text { font-family: -apple-system, BlinkMacSystemFont, 'Segoe UI', Roboto, Helvetica, Arial, sans-serif; fill: #111; }
.small { font-size: 12px; fill: #222; }
.title { font-size: 18px; font-weight: 700; }
.axis { stroke: #111; stroke-width: 1.4; }
.grid { stroke: #E6E6E6; stroke-width: 1; }
.event { fill: #FFEB3B; fill-opacity: 0.18; }
.eventline { stroke: #F9A825; stroke-width: 1.2; stroke-dasharray: 4 3; }
.series { fill: none; stroke-width: 1.8; }
</style>
<text class="title" x="90" y="34">ciclo 6 — espera_basculamento — 2025-12-12T20:05:22-03:00 → 2025-12-12T20:05:38-03:00 (span 16s, dur 17s)</text>
<text class="small" x="90" y="54">GPS: -11.692759,-47.165341  hotspot: -11.693,-47.165</text>
<text class="small" x="90" y="70">Janela: -3.00 → 3.27 min (relativo ao início do evento)</text>
<text x="90" y="79.00" font-size="14" font-weight="700">Velocidade (km/h)</text>
<rect class="event" x="443.33" y="85.00" width="23.56" height="192.75" />
<line class="eventline" x1="443.33" y1="85.00" x2="443.33" y2="277.75" />
<line class="eventline" x1="466.89" y1="85.00" x2="466.89" y2="277.75" />
<line class="grid" x1="90" y1="277.75" x2="1150" y2="277.75" />
<text class="small" x="80" y="281.75" text-anchor="end">0.00</text>
<line class="grid" x1="90" y1="239.20" x2="1150" y2="239.20" />
<text class="small" x="80" y="243.20" text-anchor="end">10.0</text>
<line class="grid" x1="90" y1="200.65" x2="1150" y2="200.65" />
<text class="small" x="80" y="204.65" text-anchor="end">20.0</text>
<line class="grid" x1="90" y1="162.10" x2="1150" y2="162.10" />
<text class="small" x="80" y="166.10" text-anchor="end">30.0</text>
<line class="grid" x1="90" y1="123.55" x2="1150" y2="123.55" />
<text class="small" x="80" y="127.55" text-anchor="end">40.0</text>
<line class="grid" x1="90" y1="85.00" x2="1150" y2="85.00" />
<text class="small" x="80" y="89.00" text-anchor="end">50.0</text>
<line class="grid" x1="90.00" y1="85.00" x2="90.00" y2="277.75" />
<line class="grid" x1="266.67" y1="85.00" x2="266.67" y2="277.75" />
<line class="grid" x1="443.33" y1="85.00" x2="443.33" y2="277.75" />
<line class="grid" x1="620.00" y1="85.00" x2="620.00" y2="277.75" />
<line class="grid" x1="796.67" y1="85.00" x2="796.67" y2="277.75" />
<line class="grid" x1="973.33" y1="85.00" x2="973.33" y2="277.75" />
<line class="grid" x1="1150.00" y1="85.00" x2="1150.00" y2="277.75" />
<line class="axis" x1="90" y1="85.00" x2="90" y2="277.75" />
<line class="axis" x1="90" y1="277.75" x2="1150" y2="277.75" />
<path class="series" d="M 178.33 246.25 L 179.81 248.19 L 181.28 246.52 L 182.75 245.97 L 184.22 245.55 L 185.69 245.41 L 187.17 246.25 L 188.64 245.41 L 190.11 246.52 L 191.58 248.05 L 193.06 246.66 L 194.53 246.25 L 196.00 246.39 L 197.47 245.41 L 198.94 244.86 L 200.42 245.97 L 201.89 246.11 L 203.36 244.03 L 204.83 239.17 L 206.31 244.86 L 207.78 241.81 L 209.25 246.11 L 210.72 246.25 L 212.19 247.08 L 213.67 246.25 L 215.14 248.05 L 216.61 249.02 L 218.08 244.72 L 219.56 245.14 L 221.03 245.14 L 222.50 247.22 L 223.97 247.63 L 225.44 243.47 L 226.92 241.11 L 228.39 231.95 L 229.86 231.81 L 231.33 231.68 L 232.81 227.79 L 234.28 219.60 L 235.75 222.93 L 237.22 218.63 L 238.69 220.71 L 240.17 222.10 L 241.64 223.90 L 243.11 222.65 L 244.58 223.90 L 246.06 220.71 L 247.53 221.13 L 249.00 215.02 L 250.47 215.58 L 251.94 215.44 L 253.42 215.99 L 254.89 215.30 L 256.36 216.83 L 257.83 215.85 L 259.31 203.64 L 260.78 215.16 L 262.25 213.08 L 263.72 215.99 L 265.19 219.32 L 266.67 222.93 L 268.14 224.87 L 269.61 224.60 L 271.08 228.34 L 272.56 230.29 L 274.03 233.62 L 275.50 235.98 L 276.97 237.50 L 278.44 237.09 L 279.92 237.50 L 281.39 242.36 L 282.86 240.83 L 284.33 237.37 L 285.81 236.25 L 287.28 237.37 L 288.75 234.17 L 290.22 233.76 L 291.69 237.09 L 293.17 224.04 L 294.64 227.65 L 296.11 219.74 L 297.58 220.99 L 299.06 225.71 L 300.53 232.23 L 302.00 230.15 L 303.47 229.45 L 304.94 229.59 L 306.42 226.26 L 307.89 217.24 L 309.36 224.46 L 310.83 226.40 L 312.31 225.01 L 313.78 225.43 L 315.25 225.71 L 316.72 223.21 L 318.19 222.79 L 319.67 223.21 L 321.14 234.87 L 322.61 243.61 L 324.08 244.86 L 325.56 247.36 L 327.03 246.94 L 328.50 242.36 L 329.97 237.50 L 331.44 238.06 L 332.92 240.42 L 334.39 252.21 L 335.86 257.35 L 337.33 264.43 L 338.81 273.17 L 340.28 277.75 L 341.75 277.75 L 343.22 277.75 L 344.69 277.75 L 346.17 277.75 L 347.64 268.59 L 349.11 264.84 L 350.58 262.21 L 352.06 260.54 L 353.53 263.32 L 355.00 266.37 L 356.47 266.37 L 357.94 267.76 L 359.42 271.78 L 360.89 277.75 L 362.36 277.75 L 363.83 277.75 L 365.31 277.75 L 366.78 277.75 L 368.25 277.75 L 369.72 277.75 L 371.19 277.75 L 372.67 277.75 L 374.14 277.75 L 375.61 277.75 L 377.08 277.75 L 378.56 277.75 L 380.03 277.75 L 381.50 277.75 L 382.97 277.75 L 384.44 277.75 L 385.92 277.75 L 387.39 277.75 L 388.86 277.75 L 390.33 277.75 L 391.81 277.75 L 393.28 277.75 L 394.75 277.75 L 396.22 277.75 L 397.69 277.75 L 399.17 277.75 L 400.64 277.75 L 402.11 277.75 L 403.58 277.75 L 405.06 277.75 L 406.53 277.75 L 408.00 277.75 L 409.47 277.75 L 410.94 277.75 L 412.42 277.75 L 413.89 277.75 L 415.36 277.75 L 416.83 277.75 L 418.31 277.75 L 419.78 277.75 L 421.25 277.75 L 422.72 277.75 L 424.19 261.79 L 425.67 277.75 L 427.14 277.75 L 428.61 277.75 L 430.08 277.75 L 431.56 277.75 L 433.03 263.59 L 434.50 266.09 L 435.97 268.73 L 437.44 267.76 L 438.92 264.01 L 440.39 263.46 L 441.86 272.20 L 443.33 277.75 L 444.81 277.75 L 446.28 277.75 L 447.75 277.75 L 449.22 277.75 L 450.69 277.75 L 452.17 277.75 L 453.64 277.75 L 455.11 277.75 L 456.58 277.75 L 458.06 277.75 L 459.53 277.75 L 461.00 277.75 L 462.47 277.75 L 463.94 277.75 L 465.42 277.75 L 466.89 277.75 L 468.36 262.07 L 469.83 259.29 L 471.31 256.10 L 472.78 256.10 L 474.25 262.90 L 475.72 261.37 L 477.19 260.40 L 478.67 257.77 L 480.14 259.71 L 481.61 264.98 L 483.08 261.10 L 484.56 257.49 L 486.03 258.18 L 487.50 245.55 L 488.97 237.78 L 490.44 235.14 L 491.92 234.73 L 493.39 236.67 L 494.86 240.00 L 496.33 243.61 L 497.81 256.93 L 499.28 277.75 L 500.75 277.75 L 502.22 277.75 L 503.69 277.75 L 505.17 277.75 L 506.64 277.75 L 508.11 277.75 L 509.58 277.75 L 511.06 277.75 L 512.53 277.75 L 514.00 277.75 L 515.47 263.87 L 516.94 266.93 L 518.42 243.33 L 519.89 239.59 L 521.36 231.54 L 522.83 224.60 L 524.31 225.29 L 525.78 222.24 L 527.25 223.63 L 528.72 224.60 L 530.19 214.88 L 531.67 212.94 L 533.14 203.64 L 534.61 201.70 L 536.08 204.06 L 537.56 206.28 L 539.03 209.33 L 540.50 212.94 L 541.97 219.60 L 543.44 224.04 L 544.92 223.35 L 546.39 222.10 L 547.86 222.93 L 549.33 223.07 L 550.81 222.24 L 552.28 221.41 L 553.75 214.19 L 555.22 211.55 L 556.69 210.16 L 558.17 203.64 L 559.64 201.28 L 561.11 201.70 L 562.58 210.58 L 564.06 198.78 L 565.53 198.92 L 567.00 193.65 L 568.47 187.40 L 569.94 182.41 L 571.42 176.86 L 572.89 172.14 L 574.36 167.84 L 575.83 166.73 L 577.31 171.58 L 578.78 173.25 L 580.25 169.36 L 581.72 178.80 L 583.19 178.80 L 584.67 175.61 L 586.14 172.97 L 587.61 175.33 L 589.08 176.02 L 590.56 180.88 L 592.03 181.58 L 593.50 178.94 L 594.97 176.44 L 596.44 174.22 L 597.92 171.86 L 599.39 167.14 L 600.86 167.14 L 602.33 167.14 L 603.81 164.92 L 605.28 165.06 L 606.75 164.37 L 608.22 169.22 L 609.69 165.75 L 611.17 165.34 L 612.64 165.62 L 614.11 165.75 L 615.58 171.03 L 617.06 171.44 L 618.53 173.53 L 620.00 171.44 L 621.47 171.03 L 622.94 172.69 L 624.42 173.11 L 625.89 172.97 L 627.36 173.53 L 628.83 173.11 L 630.31 172.69 L 631.78 174.22 L 633.25 173.25 L 634.72 170.61 L 636.19 165.62 L 637.67 160.06 L 639.14 159.09 L 640.61 157.57 L 642.08 156.60 L 643.56 156.60 L 645.03 158.82 L 646.50 159.09 L 647.97 159.37 L 649.44 161.45 L 650.92 160.34 L 652.39 163.67 L 653.86 163.67 L 655.33 165.62 L 656.81 167.14 L 658.28 164.92 L 659.75 164.78 L 661.22 163.67 L 662.69 164.51 L 664.17 164.92 L 665.64 166.45 L 667.11 169.09 L 668.58 171.86 L 670.06 171.03 L 671.53 172.28 L 673.00 173.39 L 674.47 177.55 L 675.94 172.83 L 677.42 166.03 L 678.89 162.01 L 680.36 159.79 L 681.83 159.37 L 683.31 157.98 L 684.78 157.71 L 686.25 157.01 L 687.72 153.54 L 689.19 154.79 L 690.67 155.90 L 692.14 161.17 L 693.61 165.75 L 695.08 170.33 L 696.56 174.08 L 698.03 179.49 L 699.50 191.57 L 700.97 187.68 L 702.44 198.65 L 703.92 190.60 L 705.39 182.41 L 706.86 189.62 L 708.33 187.54 L 709.81 193.93 L 711.28 193.93 L 712.75 186.99 L 714.22 180.74 L 715.69 173.94 L 717.17 170.89 L 718.64 175.33 L 720.11 172.55 L 721.58 171.72 L 723.06 163.95 L 724.53 163.95 L 726.00 153.54 L 727.47 150.91 L 728.94 144.24 L 730.42 142.58 L 731.89 138.14" stroke="#1976D2" />
<text x="90" y="289.75" font-size="14" font-weight="700">Inclinação (graus)</text>
<rect class="event" x="443.33" y="295.75" width="23.56" height="192.75" />
<line class="eventline" x1="443.33" y1="295.75" x2="443.33" y2="488.50" />
<line class="eventline" x1="466.89" y1="295.75" x2="466.89" y2="488.50" />
<line class="grid" x1="90" y1="488.50" x2="1150" y2="488.50" />
<text class="small" x="80" y="492.50" text-anchor="end">-20.0</text>
<line class="grid" x1="90" y1="449.95" x2="1150" y2="449.95" />
<text class="small" x="80" y="453.95" text-anchor="end">-10.0</text>
<line class="grid" x1="90" y1="411.40" x2="1150" y2="411.40" />
<text class="small" x="80" y="415.40" text-anchor="end">0.00</text>
<line class="grid" x1="90" y1="372.85" x2="1150" y2="372.85" />
<text class="small" x="80" y="376.85" text-anchor="end">10.0</text>
<line class="grid" x1="90" y1="334.30" x2="1150" y2="334.30" />
<text class="small" x="80" y="338.30" text-anchor="end">20.0</text>
<line class="grid" x1="90" y1="295.75" x2="1150" y2="295.75" />
<text class="small" x="80" y="299.75" text-anchor="end">30.0</text>
<line class="grid" x1="90.00" y1="295.75" x2="90.00" y2="488.50" />
<line class="grid" x1="266.67" y1="295.75" x2="266.67" y2="488.50" />
<line class="grid" x1="443.33" y1="295.75" x2="443.33" y2="488.50" />
<line class="grid" x1="620.00" y1="295.75" x2="620.00" y2="488.50" />
<line class="grid" x1="796.67" y1="295.75" x2="796.67" y2="488.50" />
<line class="grid" x1="973.33" y1="295.75" x2="973.33" y2="488.50" />
<line class="grid" x1="1150.00" y1="295.75" x2="1150.00" y2="488.50" />
<line class="axis" x1="90" y1="295.75" x2="90" y2="488.50" />
<line class="axis" x1="90" y1="488.50" x2="1150" y2="488.50" />
<path class="series" d="M 178.33 394.51 L 179.81 394.20 L 181.28 393.67 L 182.75 391.95 L 184.22 391.37 L 185.69 390.20 L 187.17 388.30 L 188.64 387.36 L 190.11 390.17 L 191.58 388.29 L 193.06 390.71 L 194.53 389.65 L 196.00 388.58 L 197.47 386.31 L 198.94 384.82 L 200.42 389.06 L 201.89 389.74 L 203.36 390.62 L 204.83 393.40 L 206.31 392.36 L 207.78 391.79 L 209.25 393.87 L 210.72 391.94 L 212.19 392.89 L 213.67 393.59 L 215.14 396.38 L 216.61 390.06 L 218.08 387.60 L 219.56 387.60 L 221.03 385.60 L 222.50 381.56 L 223.97 390.80 L 225.44 385.89 L 226.92 387.75 L 228.39 385.60 L 229.86 383.25 L 231.33 370.71 L 232.81 376.55 L 234.28 372.88 L 235.75 364.55 L 237.22 358.37 L 238.69 361.09 L 240.17 363.61 L 241.64 363.54 L 243.11 368.29 L 244.58 369.67 L 246.06 373.59 L 247.53 373.90 L 249.00 374.53 L 250.47 370.34 L 251.94 371.98 L 253.42 376.38 L 254.89 371.00 L 256.36 375.66 L 257.83 369.02 L 259.31 366.82 L 260.78 368.34 L 262.25 374.86 L 263.72 375.38 L 265.19 381.38 L 266.67 382.08 L 268.14 380.41 L 269.61 381.34 L 271.08 382.34 L 272.56 384.24 L 274.03 382.43 L 275.50 379.55 L 276.97 382.72 L 278.44 389.02 L 279.92 384.42 L 281.39 382.05 L 282.86 385.59 L 284.33 385.72 L 285.81 378.62 L 287.28 381.72 L 288.75 374.10 L 290.22 374.93 L 291.69 371.85 L 293.17 372.19 L 294.64 375.18 L 296.11 365.83 L 297.58 358.07 L 299.06 359.53 L 300.53 350.59 L 302.00 352.32 L 303.47 365.46 L 304.94 365.68 L 306.42 368.75 L 307.89 367.58 L 309.36 365.96 L 310.83 368.94 L 312.31 372.40 L 313.78 373.05 L 315.25 369.97 L 316.72 368.85 L 318.19 362.24 L 319.67 358.42 L 321.14 351.35 L 322.61 358.04 L 324.08 367.27 L 325.56 364.01 L 327.03 365.05 L 328.50 372.76 L 329.97 359.19 L 331.44 352.26 L 332.92 342.39 L 334.39 348.54 L 335.86 353.70 L 337.33 345.27 L 338.81 347.39 L 340.28 366.49 L 341.75 363.42 L 343.22 360.20 L 344.69 353.73 L 346.17 360.81 L 347.64 360.44 L 349.11 362.03 L 350.58 364.20 L 352.06 368.21 L 353.53 367.53 L 355.00 369.08 L 356.47 369.47 L 357.94 375.61 L 359.42 373.55 L 360.89 375.49 L 362.36 378.27 L 363.83 371.20 L 365.31 369.98 L 366.78 370.76 L 368.25 371.07 L 369.72 371.20 L 371.19 371.19 L 372.67 371.19 L 374.14 371.16 L 375.61 371.26 L 377.08 371.30 L 378.56 371.36 L 380.03 371.47 L 381.50 371.87 L 382.97 370.69 L 384.44 370.86 L 385.92 371.04 L 387.39 371.08 L 388.86 371.11 L 390.33 371.22 L 391.81 371.80 L 393.28 370.61 L 394.75 371.74 L 396.22 372.06 L 397.69 371.26 L 399.17 371.45 L 400.64 371.42 L 402.11 371.30 L 403.58 371.63 L 405.06 371.87 L 406.53 371.68 L 408.00 371.70 L 409.47 372.42 L 410.94 371.32 L 412.42 371.86 L 413.89 371.84 L 415.36 372.33 L 416.83 371.75 L 418.31 372.84 L 419.78 372.76 L 421.25 381.02 L 422.72 391.29 L 424.19 347.43 L 425.67 378.22 L 427.14 372.93 L 428.61 374.78 L 430.08 383.83 L 431.56 388.63 L 433.03 370.01 L 434.50 365.21 L 435.97 368.95 L 437.44 377.89 L 438.92 371.78 L 440.39 357.76 L 441.86 360.96 L 443.33 366.72 L 444.81 367.87 L 446.28 367.27 L 447.75 367.53 L 449.22 367.31 L 450.69 366.89 L 452.17 367.02 L 453.64 366.75 L 455.11 366.54 L 456.58 366.53 L 458.06 366.46 L 459.53 366.39 L 461.00 366.54 L 462.47 366.27 L 463.94 366.15 L 465.42 378.14 L 466.89 374.74 L 468.36 363.55 L 469.83 361.49 L 471.31 360.32 L 472.78 355.87 L 474.25 366.35 L 475.72 363.22 L 477.19 365.50 L 478.67 360.48 L 480.14 361.59 L 481.61 365.09 L 483.08 362.62 L 484.56 369.69 L 486.03 375.14 L 487.50 368.60 L 488.97 368.92 L 490.44 365.74 L 491.92 364.32 L 493.39 358.75 L 494.86 344.40 L 496.33 336.12 L 497.81 352.66 L 499.28 367.14 L 500.75 359.96 L 502.22 360.47 L 503.69 364.38 L 505.17 364.38 L 506.64 373.81 L 508.11 375.22 L 509.58 385.74 L 511.06 369.79 L 512.53 369.84 L 514.00 384.05 L 515.47 383.96 L 516.94 384.81 L 518.42 376.31 L 519.89 384.65 L 521.36 381.98 L 522.83 372.67 L 524.31 366.19 L 525.78 367.02 L 527.25 363.22 L 528.72 373.85 L 530.19 368.39 L 531.67 374.20 L 533.14 369.15 L 534.61 363.86 L 536.08 358.52 L 537.56 348.51 L 539.03 352.55 L 540.50 356.43 L 541.97 363.26 L 543.44 357.15 L 544.92 369.13 L 546.39 374.12 L 547.86 372.16 L 549.33 371.12 L 550.81 371.43 L 552.28 373.39 L 553.75 367.80 L 555.22 368.35 L 556.69 364.60 L 558.17 359.14 L 559.64 353.04 L 561.11 362.16 L 562.58 370.85 L 564.06 337.61 L 565.53 366.50 L 567.00 352.27 L 568.47 355.15 L 569.94 357.58 L 571.42 357.68 L 572.89 354.71 L 574.36 352.57 L 575.83 358.84 L 577.31 355.69 L 578.78 358.34 L 580.25 352.59 L 581.72 358.97 L 583.19 368.10 L 584.67 364.53 L 586.14 362.52 L 587.61 362.79 L 589.08 360.46 L 590.56 370.02 L 592.03 370.01 L 593.50 367.81 L 594.97 357.42 L 596.44 357.99 L 597.92 359.16 L 599.39 346.13 L 600.86 347.60 L 602.33 346.13 L 603.81 344.77 L 605.28 342.81 L 606.75 344.02 L 608.22 341.64 L 609.69 344.96 L 611.17 340.26 L 612.64 345.16 L 614.11 342.88 L 615.58 345.09 L 617.06 342.01 L 618.53 344.46 L 620.00 343.71 L 621.47 343.60 L 622.94 343.09 L 624.42 343.79 L 625.89 343.15 L 627.36 342.70 L 628.83 344.96 L 630.31 343.54 L 631.78 343.35 L 633.25 341.93 L 634.72 355.50 L 636.19 352.34 L 637.67 347.34 L 639.14 344.03 L 640.61 342.45 L 642.08 343.59 L 643.56 342.02 L 645.03 341.91 L 646.50 342.41 L 647.97 341.65 L 649.44 345.54 L 650.92 341.53 L 652.39 342.71 L 653.86 344.28 L 655.33 343.25 L 656.81 341.89 L 658.28 342.18 L 659.75 342.15 L 661.22 343.53 L 662.69 342.21 L 664.17 342.78 L 665.64 342.94 L 667.11 343.87 L 668.58 342.39 L 670.06 343.98 L 671.53 343.77 L 673.00 344.63 L 674.47 349.99 L 675.94 354.47 L 677.42 350.98 L 678.89 344.54 L 680.36 343.25 L 681.83 342.63 L 683.31 343.92 L 684.78 340.26 L 686.25 341.69 L 687.72 341.87 L 689.19 338.01 L 690.67 335.98 L 692.14 333.35 L 693.61 333.37 L 695.08 342.29 L 696.56 341.34 L 698.03 347.43 L 699.50 348.80 L 700.97 347.76 L 702.44 345.91 L 703.92 348.93 L 705.39 356.41 L 706.86 354.05 L 708.33 352.49 L 709.81 355.23 L 711.28 364.99 L 712.75 372.59 L 714.22 378.32 L 715.69 371.38 L 717.17 366.03 L 718.64 376.32 L 720.11 374.57 L 721.58 377.28 L 723.06 382.67 L 724.53 383.36 L 726.00 376.44 L 727.47 377.10 L 728.94 368.34 L 730.42 370.39 L 731.89 364.59" stroke="#2E7D32" />
<path class="series" d="M 178.33 402.77 L 179.81 402.52 L 181.28 400.61 L 182.75 399.01 L 184.22 399.28 L 185.69 405.11 L 187.17 402.36 L 188.64 404.44 L 190.11 401.97 L 191.58 398.23 L 193.06 401.65 L 194.53 402.24 L 196.00 406.41 L 197.47 403.63 L 198.94 404.01 L 200.42 401.69 L 201.89 402.51 L 203.36 402.02 L 204.83 404.48 L 206.31 406.46 L 207.78 406.45 L 209.25 408.54 L 210.72 407.63 L 212.19 410.53 L 213.67 412.97 L 215.14 411.31 L 216.61 417.18 L 218.08 406.86 L 219.56 406.86 L 221.03 409.49 L 222.50 418.00 L 223.97 411.75 L 225.44 407.27 L 226.92 410.54 L 228.39 409.59 L 229.86 412.69 L 231.33 409.46 L 232.81 402.44 L 234.28 407.66 L 235.75 407.48 L 237.22 415.92 L 238.69 413.33 L 240.17 410.14 L 241.64 413.67 L 243.11 415.79 L 244.58 411.64 L 246.06 411.84 L 247.53 407.11 L 249.00 406.91 L 250.47 405.59 L 251.94 404.78 L 253.42 412.23 L 254.89 410.52 L 256.36 420.05 L 257.83 426.74 L 259.31 425.22 L 260.78 419.95 L 262.25 422.32 L 263.72 419.79 L 265.19 418.07 L 266.67 418.54 L 268.14 420.23 L 269.61 409.76 L 271.08 414.55 L 272.56 415.31 L 274.03 416.58 L 275.50 414.24 L 276.97 405.96 L 278.44 407.01 L 279.92 401.56 L 281.39 398.26 L 282.86 406.35 L 284.33 393.32 L 285.81 395.43 L 287.28 402.25 L 288.75 399.00 L 290.22 398.54 L 291.69 402.58 L 293.17 400.11 L 294.64 402.63 L 296.11 402.87 L 297.58 401.34 L 299.06 407.27 L 300.53 404.73 L 302.00 403.86 L 303.47 411.66 L 304.94 408.93 L 306.42 405.24 L 307.89 395.49 L 309.36 390.43 L 310.83 390.17 L 312.31 396.04 L 313.78 385.84 L 315.25 385.64 L 316.72 390.25 L 318.19 402.89 L 319.67 399.85 L 321.14 400.85 L 322.61 412.49 L 324.08 411.37 L 325.56 417.02 L 327.03 421.21 L 328.50 426.07 L 329.97 435.96 L 331.44 440.59 L 332.92 424.52 L 334.39 417.66 L 335.86 410.16 L 337.33 412.70 L 338.81 413.96 L 340.28 417.27 L 341.75 416.92 L 343.22 416.63 L 344.69 418.66 L 346.17 422.33 L 347.64 418.06 L 349.11 420.52 L 350.58 416.07 L 352.06 413.12 L 353.53 408.52 L 355.00 409.52 L 356.47 417.59 L 357.94 411.44 L 359.42 418.89 L 360.89 418.88 L 362.36 419.51 L 363.83 419.29 L 365.31 419.04 L 366.78 419.23 L 368.25 419.68 L 369.72 419.48 L 371.19 419.23 L 372.67 419.33 L 374.14 419.40 L 375.61 419.61 L 377.08 419.65 L 378.56 419.60 L 380.03 419.51 L 381.50 419.60 L 382.97 419.84 L 384.44 419.46 L 385.92 419.67 L 387.39 419.80 L 388.86 419.44 L 390.33 419.83 L 391.81 420.08 L 393.28 419.13 L 394.75 419.69 L 396.22 420.58 L 397.69 419.57 L 399.17 419.82 L 400.64 419.94 L 402.11 419.93 L 403.58 419.87 L 405.06 420.12 L 406.53 419.95 L 408.00 419.93 L 409.47 419.85 L 410.94 420.21 L 412.42 419.66 L 413.89 419.90 L 415.36 419.62 L 416.83 419.97 L 418.31 419.58 L 419.78 418.87 L 421.25 416.14 L 422.72 419.27 L 424.19 417.73 L 425.67 419.62 L 427.14 416.72 L 428.61 416.91 L 430.08 415.37 L 431.56 412.16 L 433.03 411.24 L 434.50 421.40 L 435.97 416.52 L 437.44 410.75 L 438.92 414.62 L 440.39 422.68 L 441.86 423.46 L 443.33 416.26 L 444.81 418.21 L 446.28 418.14 L 447.75 418.06 L 449.22 418.61 L 450.69 418.25 L 452.17 417.89 L 453.64 418.38 L 455.11 418.24 L 456.58 418.15 L 458.06 418.23 L 459.53 418.21 L 461.00 418.27 L 462.47 418.00 L 463.94 418.38 L 465.42 412.10 L 466.89 404.51 L 468.36 413.27 L 469.83 414.93 L 471.31 416.73 L 472.78 430.70 L 474.25 424.19 L 475.72 426.02 L 477.19 428.78 L 478.67 427.14 L 480.14 421.37 L 481.61 427.11 L 483.08 421.80 L 484.56 429.44 L 486.03 435.85 L 487.50 436.70 L 488.97 432.22 L 490.44 439.78 L 491.92 432.46 L 493.39 431.58 L 494.86 422.25 L 496.33 395.26 L 497.81 402.09 L 499.28 411.87 L 500.75 410.44 L 502.22 413.03 L 503.69 415.62 L 505.17 415.62 L 506.64 404.60 L 508.11 406.62 L 509.58 406.00 L 511.06 407.34 L 512.53 411.36 L 514.00 407.21 L 515.47 415.53 L 516.94 424.92 L 518.42 427.09 L 519.89 423.30 L 521.36 407.58 L 522.83 399.83 L 524.31 385.41 L 525.78 386.27 L 527.25 391.50 L 528.72 410.98 L 530.19 414.90 L 531.67 414.83 L 533.14 417.40 L 534.61 425.23 L 536.08 434.56 L 537.56 444.28 L 539.03 435.16 L 540.50 424.91 L 541.97 427.36 L 543.44 439.99 L 544.92 430.00 L 546.39 430.65 L 547.86 407.11 L 549.33 408.54 L 550.81 390.42 L 552.28 399.22 L 553.75 385.86 L 555.22 392.52 L 556.69 390.49 L 558.17 368.21 L 559.64 372.17 L 561.11 406.03 L 562.58 404.35 L 564.06 408.93 L 565.53 415.66 L 567.00 417.34 L 568.47 407.68 L 569.94 407.54 L 571.42 398.91 L 572.89 405.90 L 574.36 388.94 L 575.83 400.34 L 577.31 380.03 L 578.78 408.54 L 580.25 385.86 L 581.72 396.85 L 583.19 408.88 L 584.67 400.89 L 586.14 406.04 L 587.61 399.07 L 589.08 418.40 L 590.56 417.45 L 592.03 413.97 L 593.50 403.01 L 594.97 402.07 L 596.44 399.17 L 597.92 403.63 L 599.39 404.40 L 600.86 404.13 L 602.33 400.48 L 603.81 413.82 L 605.28 405.73 L 606.75 395.95 L 608.22 412.13 L 609.69 418.68 L 611.17 417.64 L 612.64 417.30 L 614.11 414.44 L 615.58 405.61 L 617.06 412.94 L 618.53 419.95 L 620.00 416.07 L 621.47 409.24 L 622.94 410.03 L 624.42 408.03 L 625.89 410.44 L 627.36 406.90 L 628.83 413.62 L 630.31 420.15 L 631.78 430.00 L 633.25 417.29 L 634.72 414.53 L 636.19 412.71 L 637.67 416.15 L 639.14 406.59 L 640.61 411.23 L 642.08 410.51 L 643.56 401.81 L 645.03 410.30 L 646.50 404.26 L 647.97 406.57 L 649.44 419.86 L 650.92 418.20 L 652.39 418.33 L 653.86 415.84 L 655.33 416.39 L 656.81 412.70 L 658.28 415.02 L 659.75 415.80 L 661.22 405.88 L 662.69 420.95 L 664.17 415.29 L 665.64 406.02 L 667.11 405.84 L 668.58 409.83 L 670.06 403.55 L 671.53 404.02 L 673.00 404.35 L 674.47 410.68 L 675.94 409.12 L 677.42 409.67 L 678.89 404.05 L 680.36 403.92 L 681.83 411.11 L 683.31 409.79 L 684.78 407.88 L 686.25 411.18 L 687.72 409.97 L 689.19 412.69 L 690.67 417.12 L 692.14 420.55 L 693.61 421.97 L 695.08 424.76 L 696.56 443.06 L 698.03 435.94 L 699.50 442.09 L 700.97 446.02 L 702.44 445.36 L 703.92 433.09 L 705.39 410.02 L 706.86 379.30 L 708.33 370.13 L 709.81 362.78 L 711.28 369.01 L 712.75 393.19 L 714.22 383.51 L 715.69 389.11 L 717.17 427.98 L 718.64 413.95 L 720.11 435.42 L 721.58 434.95 L 723.06 421.97 L 724.53 422.94 L 726.00 419.96 L 727.47 411.12 L 728.94 405.71 L 730.42 407.47 L 731.89 403.60" stroke="#6A1B9A" />
<line x1="900.00" y1="307.75" x2="918.00" y2="307.75" stroke="#2E7D32" stroke-width="3" />
<text class="small" x="924.00" y="311.75">pitch</text>
<line x1="900.00" y1="323.75" x2="918.00" y2="323.75" stroke="#6A1B9A" stroke-width="3" />
<text class="small" x="924.00" y="327.75">roll</text>
<text x="90" y="500.50" font-size="14" font-weight="700">Aceleração (magnitude) (u.a.)</text>
<rect class="event" x="443.33" y="506.50" width="23.56" height="192.75" />
<line class="eventline" x1="443.33" y1="506.50" x2="443.33" y2="699.25" />
<line class="eventline" x1="466.89" y1="506.50" x2="466.89" y2="699.25" />
<line class="grid" x1="90" y1="699.25" x2="1150" y2="699.25" />
<text class="small" x="80" y="703.25" text-anchor="end">0.00</text>
<line class="grid" x1="90" y1="660.70" x2="1150" y2="660.70" />
<text class="small" x="80" y="664.70" text-anchor="end">0.50</text>
<line class="grid" x1="90" y1="622.15" x2="1150" y2="622.15" />
<text class="small" x="80" y="626.15" text-anchor="end">1.00</text>
<line class="grid" x1="90" y1="583.60" x2="1150" y2="583.60" />
<text class="small" x="80" y="587.60" text-anchor="end">1.50</text>
<line class="grid" x1="90" y1="545.05" x2="1150" y2="545.05" />
<text class="small" x="80" y="549.05" text-anchor="end">2.00</text>
<line class="grid" x1="90" y1="506.50" x2="1150" y2="506.50" />
<text class="small" x="80" y="510.50" text-anchor="end">2.50</text>
<line class="grid" x1="90.00" y1="506.50" x2="90.00" y2="699.25" />
<line class="grid" x1="266.67" y1="506.50" x2="266.67" y2="699.25" />
<line class="grid" x1="443.33" y1="506.50" x2="443.33" y2="699.25" />
<line class="grid" x1="620.00" y1="506.50" x2="620.00" y2="699.25" />
<line class="grid" x1="796.67" y1="506.50" x2="796.67" y2="699.25" />
<line class="grid" x1="973.33" y1="506.50" x2="973.33" y2="699.25" />
<line class="grid" x1="1150.00" y1="506.50" x2="1150.00" y2="699.25" />
<line class="axis" x1="90" y1="506.50" x2="90" y2="699.25" />
<line class="axis" x1="90" y1="699.25" x2="1150" y2="699.25" />
<path class="series" d="M 178.33 694.22 L 179.81 690.19 L 181.28 692.06 L 182.75 689.37 L 184.22 694.13 L 185.69 693.81 L 187.17 695.24 L 188.64 694.51 L 190.11 696.37 L 191.58 691.75 L 193.06 690.56 L 194.53 696.82 L 196.00 690.94 L 197.47 688.96 L 198.94 691.49 L 200.42 694.77 L 201.89 695.30 L 203.36 691.42 L 204.83 696.17 L 206.31 691.70 L 207.78 691.29 L 209.25 691.67 L 210.72 693.66 L 212.19 690.55 L 213.67 695.10 L 215.14 680.36 L 216.61 688.81 L 218.08 692.34 L 219.56 683.35 L 221.03 685.69 L 222.50 671.13 L 223.97 691.59 L 225.44 689.39 L 226.92 676.93 L 228.39 656.65 L 229.86 668.46 L 231.33 688.80 L 232.81 674.82 L 234.28 669.91 L 235.75 666.50 L 237.22 674.01 L 238.69 688.39 L 240.17 654.05 L 241.64 662.18 L 243.11 670.47 L 244.58 673.43 L 246.06 669.36 L 247.53 685.80 L 249.00 689.61 L 250.47 691.42 L 251.94 674.74 L 253.42 674.98 L 254.89 664.21 L 256.36 671.37 L 257.83 677.66 L 259.31 652.30 L 260.78 677.11 L 262.25 649.88 L 263.72 657.18 L 265.19 637.51 L 266.67 679.40 L 268.14 678.46 L 269.61 683.47 L 271.08 680.71 L 272.56 682.41 L 274.03 691.14 L 275.50 685.67 L 276.97 681.42 L 278.44 669.61 L 279.92 682.43 L 281.39 683.05 L 282.86 683.44 L 284.33 668.87 L 285.81 686.36 L 287.28 682.34 L 288.75 682.37 L 290.22 687.26 L 291.69 684.75 L 293.17 684.18 L 294.64 673.48 L 296.11 648.75 L 297.58 672.64 L 299.06 672.94 L 300.53 672.94 L 302.00 677.00 L 303.47 667.78 L 304.94 658.42 L 306.42 663.65 L 307.89 654.21 L 309.36 682.42 L 310.83 663.32 L 312.31 680.39 L 313.78 673.13 L 315.25 670.96 L 316.72 676.16 L 318.19 657.49 L 319.67 585.98 L 321.14 627.75 L 322.61 653.10 L 324.08 686.04 L 325.56 664.10 L 327.03 667.29 L 328.50 640.87 L 329.97 630.74 L 331.44 628.39 L 332.92 632.65 L 334.39 662.40 L 335.86 678.83 L 337.33 686.01 L 338.81 688.28 L 340.28 651.72 L 341.75 689.86 L 343.22 691.80 L 344.69 687.16 L 346.17 688.14 L 347.64 688.64 L 349.11 693.08 L 350.58 684.06 L 352.06 682.46 L 353.53 686.89 L 355.00 694.77 L 356.47 688.71 L 357.94 684.35 L 359.42 688.62 L 360.89 690.76 L 362.36 681.13 L 363.83 687.14 L 365.31 689.64 L 366.78 697.41 L 368.25 697.71 L 369.72 697.63 L 371.19 697.98 L 372.67 698.40 L 374.14 698.24 L 375.61 697.99 L 377.08 698.19 L 378.56 698.36 L 380.03 698.84 L 381.50 697.33 L 382.97 695.52 L 384.44 696.97 L 385.92 697.50 L 387.39 698.34 L 388.86 698.77 L 390.33 698.16 L 391.81 691.60 L 393.28 693.93 L 394.75 696.37 L 396.22 697.13 L 397.69 698.12 L 399.17 698.47 L 400.64 698.78 L 402.11 698.74 L 403.58 698.95 L 405.06 698.85 L 406.53 698.91 L 408.00 691.37 L 409.47 685.81 L 410.94 697.26 L 412.42 698.42 L 413.89 698.70 L 415.36 698.23 L 416.83 698.38 L 418.31 695.23 L 419.78 697.09 L 421.25 677.52 L 422.72 665.00 L 424.19 601.32 L 425.67 684.34 L 427.14 696.84 L 428.61 696.91 L 430.08 678.11 L 431.56 678.61 L 433.03 644.49 L 434.50 666.56 L 435.97 688.86 L 437.44 683.11 L 438.92 682.96 L 440.39 647.78 L 441.86 672.53 L 443.33 690.57 L 444.81 692.70 L 446.28 696.67 L 447.75 697.71 L 449.22 697.48 L 450.69 698.34 L 452.17 698.37 L 453.64 698.37 L 455.11 698.07 L 456.58 698.60 L 458.06 699.10 L 459.53 698.59 L 461.00 698.48 L 462.47 697.05 L 463.94 696.83 L 465.42 664.24 L 466.89 664.24 L 468.36 675.50 L 469.83 670.78 L 471.31 679.03 L 472.78 680.40 L 474.25 652.09 L 475.72 678.45 L 477.19 678.81 L 478.67 682.46 L 480.14 673.31 L 481.61 684.77 L 483.08 697.60 L 484.56 681.00 L 486.03 657.82 L 487.50 663.83 L 488.97 661.57 L 490.44 663.27 L 491.92 649.08 L 493.39 645.84 L 494.86 624.36 L 496.33 599.68 L 497.81 562.44 L 499.28 662.81 L 500.75 671.14 L 502.22 679.68 L 503.69 668.41 L 505.17 685.08 L 506.64 668.70 L 508.11 659.35 L 509.58 668.94 L 511.06 680.63 L 512.53 693.16 L 514.00 651.68 L 515.47 660.69 L 516.94 639.66 L 518.42 650.46 L 519.89 666.23 L 521.36 677.63 L 522.83 645.54 L 524.31 653.41 L 525.78 626.41 L 527.25 675.21 L 528.72 644.27 L 530.19 650.88 L 531.67 659.33 L 533.14 642.25 L 534.61 646.74 L 536.08 621.00 L 537.56 638.48 L 539.03 674.97 L 540.50 660.67 L 541.97 646.87 L 543.44 645.38 L 544.92 680.82 L 546.39 642.73 L 547.86 654.29 L 549.33 647.79 L 550.81 624.41 L 552.28 638.56 L 553.75 653.63 L 555.22 631.30 L 556.69 600.14 L 558.17 593.21 L 559.64 636.36 L 561.11 643.57 L 562.58 606.56 L 564.06 617.25 L 565.53 669.64 L 567.00 662.67 L 568.47 660.69 L 569.94 674.47 L 571.42 681.50 L 572.89 666.54 L 574.36 620.62 L 575.83 625.56 L 577.31 634.17 L 578.78 658.39 L 580.25 674.43 L 581.72 677.68 L 583.19 685.36 L 584.67 671.12 L 586.14 683.24 L 587.61 640.69 L 589.08 641.69 L 590.56 663.99 L 592.03 655.62 L 593.50 685.79 L 594.97 694.25 L 596.44 682.57 L 597.92 674.55 L 599.39 674.29 L 600.86 678.92 L 602.33 688.57 L 603.81 641.24 L 605.28 641.44 L 606.75 650.60 L 608.22 660.04 L 609.69 649.60 L 611.17 678.55 L 612.64 681.49 L 614.11 675.43 L 615.58 649.94 L 617.06 675.72 L 618.53 685.18 L 620.00 684.81 L 621.47 693.42 L 622.94 686.30 L 624.42 674.43 L 625.89 684.04 L 627.36 679.28 L 628.83 692.99 L 630.31 692.99 L 631.78 640.87 L 633.25 643.82 L 634.72 666.91 L 636.19 671.77 L 637.67 681.75 L 639.14 681.02 L 640.61 687.22 L 642.08 683.60 L 643.56 690.81 L 645.03 685.11 L 646.50 688.50 L 647.97 688.63 L 649.44 664.25 L 650.92 675.96 L 652.39 679.05 L 653.86 692.03 L 655.33 688.96 L 656.81 685.02 L 658.28 678.38 L 659.75 679.30 L 661.22 692.51 L 662.69 651.09 L 664.17 688.51 L 665.64 693.54 L 667.11 668.74 L 668.58 671.16 L 670.06 688.84 L 671.53 675.41 L 673.00 690.93 L 674.47 685.66 L 675.94 661.88 L 677.42 672.32 L 678.89 690.53 L 680.36 695.80 L 681.83 685.16 L 683.31 686.69 L 684.78 687.45 L 686.25 682.28 L 687.72 689.97 L 689.19 681.35 L 690.67 666.69 L 692.14 665.32 L 693.61 666.77 L 695.08 659.07 L 696.56 646.12 L 698.03 635.36 L 699.50 636.69 L 700.97 628.97 L 702.44 654.14 L 703.92 649.62 L 705.39 620.41 L 706.86 577.66 L 708.33 555.41 L 709.81 562.84 L 711.28 600.90 L 712.75 661.57 L 714.22 665.26 L 715.69 679.09 L 717.17 564.10 L 718.64 632.82 L 720.11 609.65 L 721.58 623.03 L 723.06 676.99 L 724.53 688.19 L 726.00 690.82 L 727.47 682.40 L 728.94 667.87 L 730.42 673.38 L 731.89 672.90" stroke="#FB8C00" />
<text x="90" y="711.25" font-size="14" font-weight="700">Giroscópio (magnitude) (u.a.)</text>
<rect class="event" x="443.33" y="717.25" width="23.56" height="192.75" />
<line class="eventline" x1="443.33" y1="717.25" x2="443.33" y2="910.00" />
<line class="eventline" x1="466.89" y1="717.25" x2="466.89" y2="910.00" />
<line class="grid" x1="90" y1="910.00" x2="1150" y2="910.00" />
<text class="small" x="80" y="914.00" text-anchor="end">0.00</text>
<line class="grid" x1="90" y1="871.45" x2="1150" y2="871.45" />
<text class="small" x="80" y="875.45" text-anchor="end">0.10</text>
<line class="grid" x1="90" y1="832.90" x2="1150" y2="832.90" />
<text class="small" x="80" y="836.90" text-anchor="end">0.20</text>
<line class="grid" x1="90" y1="794.35" x2="1150" y2="794.35" />
<text class="small" x="80" y="798.35" text-anchor="end">0.30</text>
<line class="grid" x1="90" y1="755.80" x2="1150" y2="755.80" />
<text class="small" x="80" y="759.80" text-anchor="end">0.40</text>
<line class="grid" x1="90" y1="717.25" x2="1150" y2="717.25" />
<text class="small" x="80" y="721.25" text-anchor="end">0.50</text>
<line class="grid" x1="90.00" y1="717.25" x2="90.00" y2="910.00" />
<line class="grid" x1="266.67" y1="717.25" x2="266.67" y2="910.00" />
<line class="grid" x1="443.33" y1="717.25" x2="443.33" y2="910.00" />
<line class="grid" x1="620.00" y1="717.25" x2="620.00" y2="910.00" />
<line class="grid" x1="796.67" y1="717.25" x2="796.67" y2="910.00" />
<line class="grid" x1="973.33" y1="717.25" x2="973.33" y2="910.00" />
<line class="grid" x1="1150.00" y1="717.25" x2="1150.00" y2="910.00" />
<line class="axis" x1="90" y1="717.25" x2="90" y2="910.00" />
<line class="axis" x1="90" y1="910.00" x2="1150" y2="910.00" />
<path class="series" d="M 178.33 906.31 L 179.81 906.38 L 181.28 906.73 L 182.75 906.39 L 184.22 908.57 L 185.69 904.60 L 187.17 907.54 L 188.64 908.53 L 190.11 905.48 L 191.58 903.19 L 193.06 909.19 L 194.53 904.21 L 196.00 902.34 L 197.47 901.88 L 198.94 904.21 L 200.42 903.87 L 201.89 904.24 L 203.36 905.14 L 204.83 902.77 L 206.31 902.84 L 207.78 904.21 L 209.25 904.27 L 210.72 903.06 L 212.19 900.24 L 213.67 900.45 L 215.14 903.28 L 216.61 900.05 L 218.08 900.89 L 219.56 905.89 L 221.03 901.41 L 222.50 906.32 L 223.97 904.19 L 225.44 899.88 L 226.92 901.52 L 228.39 900.87 L 229.86 894.69 L 231.33 898.46 L 232.81 907.31 L 234.28 902.68 L 235.75 900.28 L 237.22 904.32 L 238.69 897.96 L 240.17 891.26 L 241.64 893.75 L 243.11 895.06 L 244.58 899.38 L 246.06 898.86 L 247.53 898.67 L 249.00 897.45 L 250.47 900.38 L 251.94 896.52 L 253.42 898.27 L 254.89 890.27 L 256.36 878.34 L 257.83 863.21 L 259.31 871.09 L 260.78 877.15 L 262.25 875.51 L 263.72 891.93 L 265.19 887.56 L 266.67 887.39 L 268.14 884.64 L 269.61 884.73 L 271.08 887.47 L 272.56 887.52 L 274.03 886.16 L 275.50 886.18 L 276.97 885.77 L 278.44 887.78 L 279.92 880.42 L 281.39 880.88 L 282.86 885.27 L 284.33 884.92 L 285.81 886.19 L 287.28 887.62 L 288.75 892.71 L 290.22 905.05 L 291.69 907.76 L 293.17 907.02 L 294.64 903.25 L 296.11 902.76 L 297.58 898.02 L 299.06 898.40 L 300.53 898.40 L 302.00 904.08 L 303.47 898.49 L 304.94 903.32 L 306.42 892.66 L 307.89 886.28 L 309.36 878.59 L 310.83 869.61 L 312.31 867.95 L 313.78 870.75 L 315.25 852.16 L 316.72 855.44 L 318.19 851.29 L 319.67 855.09 L 321.14 852.82 L 322.61 870.88 L 324.08 882.40 L 325.56 894.48 L 327.03 900.24 L 328.50 900.55 L 329.97 868.95 L 331.44 834.50 L 332.92 817.92 L 334.39 840.55 L 335.86 863.55 L 337.33 886.01 L 338.81 904.86 L 340.28 908.40 L 341.75 908.03 L 343.22 908.85 L 344.69 908.14 L 346.17 906.38 L 347.64 895.59 L 349.11 881.17 L 350.58 872.77 L 352.06 874.55 L 353.53 877.43 L 355.00 893.05 L 356.47 900.80 L 357.94 904.81 L 359.42 907.08 L 360.89 906.39 L 362.36 909.16 L 363.83 909.33 L 365.31 908.76 L 366.78 909.31 L 368.25 909.82 L 369.72 909.64 L 371.19 909.76 L 372.67 909.82 L 374.14 909.80 L 375.61 909.81 L 377.08 909.89 L 378.56 909.84 L 380.03 909.80 L 381.50 909.85 L 382.97 909.46 L 384.44 909.83 L 385.92 909.72 L 387.39 909.88 L 388.86 909.73 L 390.33 909.89 L 391.81 909.72 L 393.28 909.69 L 394.75 909.80 L 396.22 909.69 L 397.69 909.87 L 399.17 909.70 L 400.64 909.80 L 402.11 909.75 L 403.58 909.74 L 405.06 909.70 L 406.53 909.90 L 408.00 909.09 L 409.47 909.29 L 410.94 909.61 L 412.42 909.68 L 413.89 909.66 L 415.36 909.68 L 416.83 909.58 L 418.31 909.15 L 419.78 908.94 L 421.25 904.68 L 422.72 901.46 L 424.19 906.99 L 425.67 909.11 L 427.14 909.52 L 428.61 909.61 L 430.08 908.60 L 431.56 905.30 L 433.03 887.53 L 434.50 901.97 L 435.97 898.15 L 437.44 896.68 L 438.92 892.34 L 440.39 899.07 L 441.86 907.27 L 443.33 909.64 L 444.81 909.61 L 446.28 909.60 L 447.75 909.68 L 449.22 909.44 L 450.69 909.64 L 452.17 909.69 L 453.64 909.61 L 455.11 909.62 L 456.58 909.79 L 458.06 909.82 L 459.53 909.69 L 461.00 909.60 L 462.47 909.67 L 463.94 909.51 L 465.42 900.56 L 466.89 900.56 L 468.36 879.52 L 469.83 865.03 L 471.31 857.79 L 472.78 857.07 L 474.25 885.37 L 475.72 902.48 L 477.19 898.08 L 478.67 877.48 L 480.14 857.32 L 481.61 860.23 L 483.08 856.20 L 484.56 853.51 L 486.03 846.88 L 487.50 836.03 L 488.97 815.30 L 490.44 808.92 L 491.92 798.73 L 493.39 800.28 L 494.86 804.53 L 496.33 816.54 L 497.81 861.28 L 499.28 907.05 L 500.75 908.29 L 502.22 908.50 L 503.69 904.82 L 505.17 889.66 L 506.64 884.85 L 508.11 898.04 L 509.58 908.92 L 511.06 908.79 L 512.53 908.97 L 514.00 907.99 L 515.47 901.11 L 516.94 868.57 L 518.42 835.63 L 519.89 827.31 L 521.36 850.60 L 522.83 883.24 L 524.31 888.25 L 525.78 863.44 L 527.25 845.10 L 528.72 876.65 L 530.19 906.51 L 531.67 902.93 L 533.14 881.76 L 534.61 873.43 L 536.08 872.77 L 537.56 847.88 L 539.03 851.31 L 540.50 858.56 L 541.97 855.95 L 543.44 834.96 L 544.92 824.23 L 546.39 823.65 L 547.86 863.60 L 549.33 889.82 L 550.81 889.49 L 552.28 874.55 L 553.75 848.51 L 555.22 846.66 L 556.69 813.94 L 558.17 780.22 L 559.64 789.76 L 561.11 846.38 L 562.58 866.27 L 564.06 885.62 L 565.53 903.12 L 567.00 901.99 L 568.47 896.69 L 569.94 902.07 L 571.42 896.83 L 572.89 891.90 L 574.36 870.75 L 575.83 847.11 L 577.31 862.33 L 578.78 887.18 L 580.25 871.07 L 581.72 868.75 L 583.19 884.22 L 584.67 877.09 L 586.14 874.90 L 587.61 891.72 L 589.08 904.86 L 590.56 897.43 L 592.03 887.06 L 593.50 898.86 L 594.97 895.86 L 596.44 893.03 L 597.92 889.53 L 599.39 885.34 L 600.86 884.32 L 602.33 887.37 L 603.81 906.90 L 605.28 894.57 L 606.75 895.90 L 608.22 905.31 L 609.69 893.45 L 611.17 891.53 L 612.64 896.00 L 614.11 896.97 L 615.58 885.96 L 617.06 899.91 L 618.53 904.83 L 620.00 898.67 L 621.47 906.41 L 622.94 906.48 L 624.42 901.59 L 625.89 900.92 L 627.36 906.05 L 628.83 903.67 L 630.31 903.67 L 631.78 893.79 L 633.25 893.19 L 634.72 898.25 L 636.19 902.36 L 637.67 902.07 L 639.14 902.72 L 640.61 905.72 L 642.08 905.14 L 643.56 901.54 L 645.03 903.99 L 646.50 905.57 L 647.97 905.56 L 649.44 901.14 L 650.92 894.14 L 652.39 901.30 L 653.86 902.26 L 655.33 905.94 L 656.81 901.51 L 658.28 900.60 L 659.75 902.48 L 661.22 897.62 L 662.69 902.16 L 664.17 888.27 L 665.64 894.62 L 667.11 902.09 L 668.58 897.58 L 670.06 900.06 L 671.53 892.51 L 673.00 894.66 L 674.47 897.23 L 675.94 906.56 L 677.42 904.79 L 678.89 902.97 L 680.36 903.84 L 681.83 905.94 L 683.31 905.43 L 684.78 900.07 L 686.25 903.08 L 687.72 905.37 L 689.19 905.61 L 690.67 902.90 L 692.14 894.75 L 693.61 885.79 L 695.08 875.16 L 696.56 861.78 L 698.03 855.70 L 699.50 848.22 L 700.97 809.44 L 702.44 808.40 L 703.92 826.44 L 705.39 860.75 L 706.86 890.46 L 708.33 856.52 L 709.81 827.61 L 711.28 801.59 L 712.75 813.35 L 714.22 841.90 L 715.69 848.36 L 717.17 903.53 L 718.64 878.10 L 720.11 857.33 L 721.58 850.17 L 723.06 859.85 L 724.53 884.95 L 726.00 885.62 L 727.47 896.60 L 728.94 906.10 L 730.42 902.60 L 731.89 904.73" stroke="#E53935" />
<text x="620.00" y="952" font-size="15" text-anchor="middle">minutos (relativo ao início do evento)</text>
<text class="small" x="90.00" y="936" text-anchor="middle">-4.00</text>
<text class="small" x="266.67" y="936" text-anchor="middle">-2.00</text>
<text class="small" x="443.33" y="936" text-anchor="middle">0.00</text>
<text class="small" x="620.00" y="936" text-anchor="middle">2.00</text>
<text class="small" x="796.67" y="936" text-anchor="middle">4.00</text>
<text class="small" x="973.33" y="936" text-anchor="middle">6.00</text>
<text class="small" x="1150.00" y="936" text-anchor="middle">8.00</text>
</svg>