<?xml version="1.0" encoding="UTF-8"?>
<svg xmlns="http://www.w3.org/2000/svg" width="1180" height="980" viewBox="0 0 1180 980">
<style>
text { font-family: -apple-system, BlinkMacSystemFont, 'Segoe UI', Roboto, Helvetica, Arial, sans-serif; fill: #111; }
.small { font-size: 12px; fill: #222; }
.title { font-size: 18px; font-weight: 700; }
.axis { stroke: #111; stroke-width: 1.4; }
.grid { stroke: #E6E6E6; stroke-width: 1; }
.event { fill: #FFEB3B; fill-opacity: 0.18; }
.eventline { stroke: #F9A825; stroke-width: 1.2; stroke-dasharray: 4 3; }
.series { fill: none; stroke-width: 1.8; }
</style>
<text class="title" x="90" y="34">ciclo 7 — espera_basculamento — 2025-12-12T20:25:50-03:00 → 2025-12-12T20:26:05-03:00 (span 15s, dur 16s)</text>
<text class="small" x="90" y="54">GPS: -11.692779,-47.165344  hotspot: -11.693,-47.165</text>
<text class="small" x="90" y="70">Janela: -3.00 → 3.25 min (relativo ao início do evento)</text>
<text x="90" y="79.00" font-size="14" font-weight="700">Velocidade (km/h)</text>
<rect class="event" x="443.33" y="85.00" width="22.08" height="192.75" />
<line class="eventline" x1="443.33" y1="85.00" x2="443.33" y2="277.75" />
<line class="eventline" x1="465.42" y1="85.00" x2="465.42" y2="277.75" />
<line class="grid" x1="90" y1="277.75" x2="1150" y2="277.75" />
<text class="small" x="80" y="281.75" text-anchor="end">0.00</text>
<line class="grid" x1="90" y1="239.20" x2="1150" y2="239.20" />
<text class="small" x="80" y="243.20" text-anchor="end">10.0</text>
<line class="grid" x1="90" y1="200.65" x2="1150" y2="200.65" />
<text class="small" x="80" y="204.65" text-anchor="end">20.0</text>
<line class="grid" x1="90" y1="162.10" x2="1150" y2="162.10" />
<text class="small" x="80" y="166.10" text-anchor="end">30.0</text>
<line class="grid" x1="90" y1="123.55" x2="1150" y2="123.55" />
<text class="small" x="80" y="127.55" text-anchor="end">40.0</text>
<line class="grid" x1="90" y1="85.00" x2="1150" y2="85.00" />
<text class="small" x="80" y="89.00" text-anchor="end">50.0</text>
<line class="grid" x1="90.00" y1="85.00" x2="90.00" y2="277.75" />
<line class="grid" x1="266.67" y1="85.00" x2="266.67" y2="277.75" />
<line class="grid" x1="443.33" y1="85.00" x2="443.33" y2="277.75" />
<line class="grid" x1="620.00" y1="85.00" x2="620.00" y2="277.75" />
<line class="grid" x1="796.67" y1="85.00" x2="796.67" y2="277.75" />
<line class="grid" x1="973.33" y1="85.00" x2="973.33" y2="277.75" />
<line class="grid" x1="1150.00" y1="85.00" x2="1150.00" y2="277.75" />
<line class="axis" x1="90" y1="85.00" x2="90" y2="277.75" />
<line class="axis" x1="90" y1="277.75" x2="1150" y2="277.75" />
<path class="series" d="M 178.33 216.27 L 179.81 215.58 L 181.28 214.61 L 182.75 211.55 L 184.22 211.83 L 185.69 217.10 L 187.17 215.02 L 188.64 220.71 L 190.11 222.93 L 191.58 224.46 L 193.06 229.87 L 194.53 235.42 L 196.00 237.92 L 197.47 237.37 L 198.94 237.09 L 200.42 225.01 L 201.89 240.28 L 203.36 242.92 L 204.83 245.00 L 206.31 245.97 L 207.78 245.41 L 209.25 244.58 L 210.72 245.00 L 212.19 244.86 L 213.67 241.94 L 215.14 240.42 L 216.61 236.81 L 218.08 236.67 L 219.56 236.81 L 221.03 234.45 L 222.50 234.87 L 223.97 238.20 L 225.44 245.00 L 226.92 253.19 L 228.39 248.33 L 229.86 244.86 L 231.33 246.25 L 232.81 245.41 L 234.28 244.58 L 235.75 241.25 L 237.22 242.78 L 238.69 251.10 L 240.17 255.41 L 241.64 263.18 L 243.11 273.31 L 244.58 277.75 L 246.06 277.75 L 247.53 277.75 L 249.00 277.75 L 250.47 273.73 L 251.94 269.01 L 253.42 265.81 L 254.89 263.59 L 256.36 268.73 L 257.83 277.75 L 259.31 277.75 L 260.78 277.75 L 262.25 277.75 L 263.72 277.75 L 265.19 277.75 L 266.67 277.75 L 268.14 277.75 L 269.61 267.34 L 271.08 263.87 L 272.56 266.51 L 274.03 263.18 L 275.50 257.90 L 276.97 253.46 L 278.44 249.72 L 279.92 243.75 L 281.39 236.25 L 282.86 229.04 L 284.33 218.77 L 285.81 221.54 L 287.28 227.51 L 288.75 232.51 L 290.22 245.00 L 291.69 254.57 L 293.17 254.71 L 294.64 262.21 L 296.11 264.57 L 297.58 255.68 L 299.06 252.63 L 300.53 249.72 L 302.00 242.36 L 303.47 237.78 L 304.94 234.73 L 306.42 235.56 L 307.89 236.53 L 309.36 235.70 L 310.83 235.56 L 312.31 238.20 L 313.78 234.87 L 315.25 242.22 L 316.72 245.69 L 318.19 249.72 L 319.67 249.99 L 321.14 260.68 L 322.61 257.07 L 324.08 257.49 L 325.56 258.74 L 327.03 261.24 L 328.50 261.24 L 329.97 260.40 L 331.44 251.38 L 332.92 247.36 L 334.39 248.47 L 335.86 245.83 L 337.33 244.72 L 338.81 247.50 L 340.28 250.97 L 341.75 262.35 L 343.22 268.59 L 344.69 267.20 L 346.17 269.98 L 347.64 263.46 L 349.11 268.17 L 350.58 274.97 L 352.06 277.75 L 353.53 277.75 L 355.00 277.75 L 356.47 277.75 L 357.94 277.75 L 359.42 265.12 L 360.89 263.18 L 362.36 263.59 L 363.83 262.21 L 365.31 260.26 L 366.78 260.40 L 368.25 265.26 L 369.72 266.51 L 371.19 268.04 L 372.67 270.81 L 374.14 272.62 L 375.61 277.75 L 377.08 277.75 L 378.56 272.20 L 380.03 277.75 L 381.50 277.75 L 382.97 277.75 L 384.44 277.75 L 385.92 277.75 L 387.39 277.75 L 388.86 277.75 L 390.33 277.75 L 391.81 277.75 L 393.28 277.75 L 394.75 277.75 L 396.22 277.75 L 397.69 277.75 L 399.17 277.75 L 400.64 277.75 L 402.11 277.75 L 403.58 277.75 L 405.06 277.75 L 406.53 277.75 L 408.00 277.75 L 409.47 277.75 L 410.94 277.75 L 412.42 277.75 L 413.89 277.75 L 415.36 277.75 L 416.83 277.75 L 418.31 277.75 L 419.78 277.75 L 421.25 277.75 L 422.72 277.75 L 424.19 277.75 L 425.67 277.75 L 427.14 277.75 L 428.61 273.31 L 430.08 265.95 L 431.56 256.24 L 433.03 263.32 L 434.50 266.93 L 435.97 277.75 L 437.44 277.75 L 438.92 277.75 L 440.39 269.01 L 441.86 261.65 L 443.33 277.75 L 444.81 277.75 L 446.28 277.75 L 447.75 277.75 L 449.22 277.75 L 450.69 277.75 L 452.17 277.75 L 453.64 277.75 L 455.11 277.75 L 456.58 277.75 L 458.06 277.75 L 459.53 277.75 L 461.00 277.75 L 462.47 277.75 L 463.94 277.75 L 465.42 277.75 L 466.89 266.93 L 468.36 260.40 L 469.83 258.88 L 471.31 260.68 L 472.78 256.79 L 474.25 262.35 L 475.72 277.75 L 477.19 277.75 L 478.67 277.75 L 480.14 277.75 L 481.61 277.75 L 483.08 268.59 L 484.56 277.75 L 486.03 277.75 L 487.50 277.75 L 488.97 270.81 L 490.44 270.67 L 491.92 269.70 L 493.39 268.31 L 494.86 266.65 L 496.33 262.35 L 497.81 259.01 L 499.28 257.63 L 500.75 250.27 L 502.22 255.13 L 503.69 256.52 L 505.17 257.63 L 506.64 260.54 L 508.11 261.10 L 509.58 260.82 L 511.06 259.01 L 512.53 258.04 L 514.00 262.90 L 515.47 261.93 L 516.94 261.10 L 518.42 264.01 L 519.89 268.87 L 521.36 266.65 L 522.83 263.32 L 524.31 260.26 L 525.78 254.43 L 527.25 246.80 L 528.72 239.03 L 530.19 233.76 L 531.67 223.63 L 533.14 227.79 L 534.61 232.23 L 536.08 231.12 L 537.56 225.01 L 539.03 219.05 L 540.50 215.30 L 541.97 207.39 L 543.44 203.36 L 544.92 192.68 L 546.39 186.71 L 547.86 188.79 L 549.33 193.09 L 550.81 204.34 L 552.28 195.45 L 553.75 190.87 L 555.22 187.82 L 556.69 184.77 L 558.17 178.66 L 559.64 174.36 L 561.11 175.33 L 562.58 163.40 L 564.06 163.81 L 565.53 164.23 L 567.00 167.14 L 568.47 172.42 L 569.94 173.53 L 571.42 176.30 L 572.89 178.66 L 574.36 180.33 L 575.83 183.10 L 577.31 185.74 L 578.78 191.98 L 580.25 198.23 L 581.72 201.28 L 583.19 208.22 L 584.67 209.75 L 586.14 197.40 L 587.61 196.84 L 589.08 197.81 L 590.56 191.85 L 592.03 185.74 L 593.50 182.13 L 594.97 180.19 L 596.44 179.08 L 597.92 178.66 L 599.39 178.80 L 600.86 179.22 L 602.33 178.66 L 603.81 176.86 L 605.28 173.53 L 606.75 172.83 L 608.22 175.19 L 609.69 177.83 L 611.17 178.11 L 612.64 179.22 L 614.11 178.66 L 615.58 177.41 L 617.06 176.16 L 618.53 177.27 L 620.00 178.11 L 621.47 177.13 L 622.94 177.69 L 624.42 177.13 L 625.89 174.91 L 627.36 175.61 L 628.83 178.24 L 630.31 179.08 L 631.78 175.47 L 633.25 175.47 L 634.72 174.78 L 636.19 175.19 L 637.67 174.64 L 639.14 173.53 L 640.61 173.11 L 642.08 173.39 L 643.56 172.83 L 645.03 172.83 L 646.50 174.50 L 647.97 173.94 L 649.44 168.39 L 650.92 167.42 L 652.39 167.98 L 653.86 167.98 L 655.33 167.98 L 656.81 166.03 L 658.28 166.59 L 659.75 167.14 L 661.22 166.31 L 662.69 167.42 L 664.17 169.36 L 665.64 170.33 L 667.11 171.86 L 668.58 173.39 L 670.06 174.91 L 671.53 176.44 L 673.00 177.69 L 674.47 176.86 L 675.94 177.27 L 677.42 174.36 L 678.89 173.11 L 680.36 172.97 L 681.83 173.80 L 683.31 171.58 L 684.78 168.67 L 686.25 167.98 L 687.72 168.39 L 689.19 165.89 L 690.67 167.56 L 692.14 166.59 L 693.61 167.28 L 695.08 172.42 L 696.56 178.38 L 698.03 187.96 L 699.50 196.98 L 700.97 191.01 L 702.44 191.01 L 703.92 192.96 L 705.39 208.50 L 706.86 216.83 L 708.33 218.77 L 709.81 211.41 L 711.28 202.81 L 712.75 190.73 L 714.22 191.29 L 715.69 186.99 L 717.17 193.23 L 718.64 181.02 L 720.11 181.16 L 721.58 178.66 L 723.06 177.69 L 724.53 173.66 L 726.00 170.75 L 727.47 168.67 L 728.94 169.22 L 730.42 165.89" stroke="#1976D2" />
<text x="90" y="289.75" font-size="14" font-weight="700">Inclinação (graus)</text>
<rect class="event" x="443.33" y="295.75" width="22.08" height="192.75" />
<line class="eventline" x1="443.33" y1="295.75" x2="443.33" y2="488.50" />
<line class="eventline" x1="465.42" y1="295.75" x2="465.42" y2="488.50" />
<line class="grid" x1="90" y1="488.50" x2="1150" y2="488.50" />
<text class="small" x="80" y="492.50" text-anchor="end">-20.0</text>
<line class="grid" x1="90" y1="449.95" x2="1150" y2="449.95" />
<text class="small" x="80" y="453.95" text-anchor="end">-10.0</text>
<line class="grid" x1="90" y1="411.40" x2="1150" y2="411.40" />
<text class="small" x="80" y="415.40" text-anchor="end">0.00</text>
<line class="grid" x1="90" y1="372.85" x2="1150" y2="372.85" />
<text class="small" x="80" y="376.85" text-anchor="end">10.0</text>
<line class="grid" x1="90" y1="334.30" x2="1150" y2="334.30" />
<text class="small" x="80" y="338.30" text-anchor="end">20.0</text>
<line class="grid" x1="90" y1="295.75" x2="1150" y2="295.75" />
<text class="small" x="80" y="299.75" text-anchor="end">30.0</text>
<line class="grid" x1="90.00" y1="295.75" x2="90.00" y2="488.50" />
<line class="grid" x1="266.67" y1="295.75" x2="266.67" y2="488.50" />
<line class="grid" x1="443.33" y1="295.75" x2="443.33" y2="488.50" />
<line class="grid" x1="620.00" y1="295.75" x2="620.00" y2="488.50" />
<line class="grid" x1="796.67" y1="295.75" x2="796.67" y2="488.50" />
<line class="grid" x1="973.33" y1="295.75" x2="973.33" y2="488.50" />
<line class="grid" x1="1150.00" y1="295.75" x2="1150.00" y2="488.50" />
<line class="axis" x1="90" y1="295.75" x2="90" y2="488.50" />
<line class="axis" x1="90" y1="488.50" x2="1150" y2="488.50" />
<path class="series" d="M 178.33 372.71 L 179.81 370.10 L 181.28 369.61 L 182.75 368.29 L 184.22 375.65 L 185.69 381.02 L 187.17 376.46 L 188.64 379.87 L 190.11 378.42 L 191.58 377.55 L 193.06 382.64 L 194.53 377.34 L 196.00 383.24 L 197.47 383.05 L 198.94 382.86 L 200.42 378.30 L 201.89 377.71 L 203.36 388.74 L 204.83 381.31 L 206.31 388.15 L 207.78 383.15 L 209.25 378.04 L 210.72 384.08 L 212.19 378.79 L 213.67 373.96 L 215.14 373.50 L 216.61 373.08 L 218.08 370.57 L 219.56 373.04 L 221.03 380.57 L 222.50 382.72 L 223.97 384.16 L 225.44 386.65 L 226.92 380.38 L 228.39 383.42 L 229.86 382.00 L 231.33 378.32 L 232.81 372.45 L 234.28 370.87 L 235.75 359.21 L 237.22 347.37 L 238.69 350.86 L 240.17 344.88 L 241.64 341.17 L 243.11 339.24 L 244.58 360.26 L 246.06 358.68 L 247.53 353.42 L 249.00 357.72 L 250.47 344.66 L 251.94 352.83 L 253.42 352.83 L 254.89 353.60 L 256.36 363.45 L 257.83 357.64 L 259.31 352.33 L 260.78 348.99 L 262.25 351.81 L 263.72 354.85 L 265.19 357.58 L 266.67 354.01 L 268.14 354.48 L 269.61 365.90 L 271.08 346.70 L 272.56 356.24 L 274.03 361.31 L 275.50 356.02 L 276.97 359.03 L 278.44 357.81 L 279.92 347.67 L 281.39 358.46 L 282.86 358.34 L 284.33 353.25 L 285.81 362.72 L 287.28 350.49 L 288.75 338.29 L 290.22 335.18 L 291.69 355.33 L 293.17 339.20 L 294.64 359.17 L 296.11 368.14 L 297.58 363.19 L 299.06 374.08 L 300.53 374.66 L 302.00 371.36 L 303.47 371.30 L 304.94 373.40 L 306.42 369.99 L 307.89 370.12 L 309.36 372.33 L 310.83 373.35 L 312.31 369.83 L 313.78 355.43 L 315.25 360.41 L 316.72 364.81 L 318.19 366.40 L 319.67 355.81 L 321.14 370.77 L 322.61 368.50 L 324.08 376.70 L 325.56 356.20 L 327.03 359.44 L 328.50 371.75 L 329.97 369.82 L 331.44 367.79 L 332.92 361.70 L 334.39 363.51 L 335.86 362.71 L 337.33 355.35 L 338.81 350.36 L 340.28 349.52 L 341.75 348.12 L 343.22 354.69 L 344.69 367.67 L 346.17 370.01 L 347.64 358.94 L 349.11 354.33 L 350.58 360.84 L 352.06 364.14 L 353.53 366.19 L 355.00 365.96 L 356.47 354.31 L 357.94 355.62 L 359.42 364.67 L 360.89 367.74 L 362.36 364.54 L 363.83 366.58 L 365.31 364.83 L 366.78 373.55 L 368.25 369.89 L 369.72 373.48 L 371.19 373.66 L 372.67 371.76 L 374.14 376.87 L 375.61 369.23 L 377.08 364.96 L 378.56 382.37 L 380.03 366.09 L 381.50 368.56 L 382.97 369.92 L 384.44 369.78 L 385.92 369.30 L 387.39 369.04 L 388.86 368.92 L 390.33 369.11 L 391.81 369.13 L 393.28 369.28 L 394.75 369.29 L 396.22 369.46 L 397.69 369.34 L 399.17 368.88 L 400.64 369.06 L 402.11 369.09 L 403.58 368.37 L 405.06 370.61 L 406.53 369.09 L 408.00 369.13 L 409.47 369.32 L 410.94 369.45 L 412.42 369.61 L 413.89 369.61 L 415.36 369.53 L 416.83 369.60 L 418.31 369.64 L 419.78 369.68 L 421.25 369.83 L 422.72 370.97 L 424.19 368.92 L 425.67 370.80 L 427.14 372.24 L 428.61 376.05 L 430.08 388.47 L 431.56 384.77 L 433.03 368.12 L 434.50 365.09 L 435.97 359.75 L 437.44 372.34 L 438.92 375.60 L 440.39 391.04 L 441.86 380.23 L 443.33 341.92 L 444.81 373.63 L 446.28 375.00 L 447.75 372.70 L 449.22 372.38 L 450.69 371.52 L 452.17 372.05 L 453.64 371.61 L 455.11 371.58 L 456.58 371.48 L 458.06 371.19 L 459.53 371.28 L 461.00 371.31 L 462.47 371.22 L 463.94 376.55 L 465.42 383.42 L 466.89 371.92 L 468.36 377.97 L 469.83 373.23 L 471.31 372.74 L 472.78 364.34 L 474.25 355.44 L 475.72 358.65 L 477.19 372.99 L 478.67 362.89 L 480.14 367.45 L 481.61 367.47 L 483.08 379.43 L 484.56 388.63 L 486.03 374.09 L 487.50 375.60 L 488.97 380.72 L 490.44 376.29 L 491.92 371.75 L 493.39 378.59 L 494.86 375.23 L 496.33 380.07 L 497.81 373.74 L 499.28 375.68 L 500.75 373.31 L 502.22 368.94 L 503.69 368.32 L 505.17 364.77 L 506.64 361.87 L 508.11 367.39 L 509.58 364.87 L 511.06 367.00 L 512.53 358.29 L 514.00 357.80 L 515.47 368.37 L 516.94 359.34 L 518.42 357.68 L 519.89 359.23 L 521.36 368.47 L 522.83 370.55 L 524.31 372.30 L 525.78 378.20 L 527.25 380.44 L 528.72 375.28 L 530.19 370.93 L 531.67 359.14 L 533.14 357.66 L 534.61 353.26 L 536.08 367.10 L 537.56 371.21 L 539.03 375.40 L 540.50 383.20 L 541.97 378.86 L 543.44 392.20 L 544.92 384.33 L 546.39 371.85 L 547.86 361.53 L 549.33 354.77 L 550.81 359.80 L 552.28 360.08 L 553.75 353.26 L 555.22 352.08 L 556.69 353.97 L 558.17 352.16 L 559.64 356.39 L 561.11 356.62 L 562.58 353.28 L 564.06 357.18 L 565.53 359.57 L 567.00 357.40 L 568.47 355.85 L 569.94 356.22 L 571.42 357.28 L 572.89 356.07 L 574.36 362.59 L 575.83 356.52 L 577.31 360.28 L 578.78 361.16 L 580.25 363.69 L 581.72 354.28 L 583.19 357.28 L 584.67 369.20 L 586.14 364.75 L 587.61 358.05 L 589.08 356.00 L 590.56 354.32 L 592.03 350.61 L 593.50 347.35 L 594.97 347.67 L 596.44 346.36 L 597.92 346.33 L 599.39 346.89 L 600.86 341.93 L 602.33 347.65 L 603.81 341.91 L 605.28 345.77 L 606.75 344.18 L 608.22 347.15 L 609.69 344.39 L 611.17 344.79 L 612.64 344.58 L 614.11 343.52 L 615.58 345.44 L 617.06 345.79 L 618.53 344.42 L 620.00 344.96 L 621.47 342.47 L 622.94 347.42 L 624.42 340.66 L 625.89 344.83 L 627.36 342.44 L 628.83 342.51 L 630.31 344.07 L 631.78 345.84 L 633.25 343.98 L 634.72 344.63 L 636.19 344.04 L 637.67 342.93 L 639.14 344.68 L 640.61 344.67 L 642.08 342.98 L 643.56 342.92 L 645.03 344.81 L 646.50 345.35 L 647.97 351.86 L 649.44 347.89 L 650.92 346.50 L 652.39 345.00 L 653.86 344.29 L 655.33 342.07 L 656.81 343.85 L 658.28 343.90 L 659.75 342.86 L 661.22 343.40 L 662.69 343.44 L 664.17 343.99 L 665.64 342.60 L 667.11 344.92 L 668.58 344.08 L 670.06 344.46 L 671.53 344.42 L 673.00 344.55 L 674.47 344.59 L 675.94 342.40 L 677.42 343.75 L 678.89 343.06 L 680.36 343.39 L 681.83 343.11 L 683.31 341.68 L 684.78 343.41 L 686.25 342.88 L 687.72 343.89 L 689.19 343.12 L 690.67 340.83 L 692.14 337.94 L 693.61 337.94 L 695.08 337.71 L 696.56 340.46 L 698.03 345.16 L 699.50 351.13 L 700.97 350.86 L 702.44 345.95 L 703.92 336.62 L 705.39 333.82 L 706.86 341.57 L 708.33 362.04 L 709.81 369.10 L 711.28 375.47 L 712.75 371.93 L 714.22 369.71 L 715.69 363.04 L 717.17 363.14 L 718.64 378.54 L 720.11 374.04 L 721.58 375.64 L 723.06 375.66 L 724.53 377.21 L 726.00 378.45 L 727.47 373.43 L 728.94 371.35 L 730.42 372.88" stroke="#2E7D32" />
<path class="series" d="M 178.33 418.80 L 179.81 419.11 L 181.28 420.88 L 182.75 424.32 L 184.22 429.93 L 185.69 438.67 L 187.17 422.86 L 188.64 420.62 L 190.11 417.79 L 191.58 407.69 L 193.06 414.24 L 194.53 418.27 L 196.00 415.70 L 197.47 406.55 L 198.94 386.27 L 200.42 384.16 L 201.89 389.43 L 203.36 415.36 L 204.83 413.23 L 206.31 416.18 L 207.78 414.27 L 209.25 413.44 L 210.72 423.19 L 212.19 401.02 L 213.67 406.99 L 215.14 409.54 L 216.61 412.18 L 218.08 409.77 L 219.56 414.28 L 221.03 413.80 L 222.50 429.16 L 223.97 421.61 L 225.44 419.34 L 226.92 412.19 L 228.39 415.96 L 229.86 425.70 L 231.33 410.52 L 232.81 404.53 L 234.28 411.57 L 235.75 412.88 L 237.22 402.46 L 238.69 396.06 L 240.17 389.49 L 241.64 386.85 L 243.11 389.32 L 244.58 395.77 L 246.06 392.88 L 247.53 392.60 L 249.00 394.66 L 250.47 394.92 L 251.94 398.19 L 253.42 401.22 L 254.89 396.00 L 256.36 384.38 L 257.83 398.26 L 259.31 399.22 L 260.78 400.60 L 262.25 399.63 L 263.72 397.05 L 265.19 397.12 L 266.67 401.26 L 268.14 395.10 L 269.61 400.22 L 271.08 393.61 L 272.56 391.71 L 274.03 396.44 L 275.50 391.93 L 276.97 391.52 L 278.44 411.11 L 279.92 408.93 L 281.39 403.56 L 282.86 387.21 L 284.33 384.18 L 285.81 407.04 L 287.28 414.68 L 288.75 410.03 L 290.22 418.30 L 291.69 404.52 L 293.17 408.98 L 294.64 415.38 L 296.11 403.94 L 297.58 395.25 L 299.06 406.95 L 300.53 398.80 L 302.00 395.89 L 303.47 389.21 L 304.94 391.48 L 306.42 394.49 L 307.89 394.99 L 309.36 397.21 L 310.83 397.82 L 312.31 403.29 L 313.78 403.81 L 315.25 413.08 L 316.72 412.43 L 318.19 412.40 L 319.67 415.24 L 321.14 411.21 L 322.61 415.32 L 324.08 419.91 L 325.56 409.50 L 327.03 413.99 L 328.50 417.71 L 329.97 417.45 L 331.44 418.06 L 332.92 419.49 L 334.39 427.82 L 335.86 424.94 L 337.33 434.01 L 338.81 430.04 L 340.28 422.63 L 341.75 416.20 L 343.22 415.75 L 344.69 421.10 L 346.17 422.90 L 347.64 421.35 L 349.11 412.25 L 350.58 418.19 L 352.06 418.93 L 353.53 421.30 L 355.00 418.84 L 356.47 416.36 L 357.94 423.75 L 359.42 424.31 L 360.89 422.55 L 362.36 422.55 L 363.83 422.86 L 365.31 415.88 L 366.78 415.65 L 368.25 418.26 L 369.72 417.95 L 371.19 419.57 L 372.67 419.77 L 374.14 419.75 L 375.61 421.13 L 377.08 419.50 L 378.56 420.52 L 380.03 419.11 L 381.50 421.03 L 382.97 419.66 L 384.44 420.07 L 385.92 421.27 L 387.39 420.19 L 388.86 420.09 L 390.33 420.77 L 391.81 420.30 L 393.28 420.38 L 394.75 420.62 L 396.22 419.85 L 397.69 421.12 L 399.17 420.24 L 400.64 420.83 L 402.11 420.33 L 403.58 420.46 L 405.06 421.08 L 406.53 420.81 L 408.00 420.53 L 409.47 420.73 L 410.94 420.62 L 412.42 420.66 L 413.89 420.66 L 415.36 420.79 L 416.83 420.68 L 418.31 420.53 L 419.78 420.66 L 421.25 420.82 L 422.72 420.79 L 424.19 420.46 L 425.67 420.33 L 427.14 420.75 L 428.61 421.15 L 430.08 420.54 L 431.56 427.74 L 433.03 421.29 L 434.50 422.57 L 435.97 419.92 L 437.44 420.99 L 438.92 421.73 L 440.39 427.02 L 441.86 428.03 L 443.33 412.78 L 444.81 418.10 L 446.28 421.55 L 447.75 420.60 L 449.22 420.98 L 450.69 420.84 L 452.17 420.46 L 453.64 420.45 L 455.11 420.83 L 456.58 420.44 L 458.06 420.77 L 459.53 420.64 L 461.00 420.59 L 462.47 420.66 L 463.94 423.17 L 465.42 428.19 L 466.89 421.79 L 468.36 424.66 L 469.83 420.79 L 471.31 424.89 L 472.78 417.36 L 474.25 406.64 L 475.72 406.15 L 477.19 413.79 L 478.67 410.34 L 480.14 420.70 L 481.61 415.23 L 483.08 411.74 L 484.56 409.12 L 486.03 416.16 L 487.50 412.87 L 488.97 414.37 L 490.44 416.23 L 491.92 415.86 L 493.39 419.91 L 494.86 416.25 L 496.33 418.38 L 497.81 413.62 L 499.28 423.13 L 500.75 414.97 L 502.22 402.12 L 503.69 405.93 L 505.17 404.65 L 506.64 410.56 L 508.11 410.07 L 509.58 408.12 L 511.06 408.84 L 512.53 410.43 L 514.00 408.65 L 515.47 410.06 L 516.94 411.46 L 518.42 408.21 L 519.89 409.98 L 521.36 408.86 L 522.83 411.34 L 524.31 410.66 L 525.78 408.42 L 527.25 409.11 L 528.72 409.66 L 530.19 422.99 L 531.67 421.41 L 533.14 424.08 L 534.61 418.40 L 536.08 424.23 L 537.56 430.49 L 539.03 435.36 L 540.50 414.19 L 541.97 418.40 L 543.44 417.89 L 544.92 423.27 L 546.39 410.40 L 547.86 400.90 L 549.33 391.49 L 550.81 404.51 L 552.28 396.89 L 553.75 398.46 L 555.22 400.02 L 556.69 395.66 L 558.17 383.66 L 559.64 406.03 L 561.11 396.52 L 562.58 387.49 L 564.06 404.18 L 565.53 393.00 L 567.00 397.21 L 568.47 396.81 L 569.94 399.21 L 571.42 400.22 L 572.89 409.10 L 574.36 405.01 L 575.83 406.34 L 577.31 411.86 L 578.78 417.63 L 580.25 408.90 L 581.72 406.73 L 583.19 408.01 L 584.67 408.56 L 586.14 413.72 L 587.61 387.16 L 589.08 403.51 L 590.56 405.94 L 592.03 408.98 L 593.50 404.99 L 594.97 411.36 L 596.44 404.92 L 597.92 408.00 L 599.39 406.01 L 600.86 409.18 L 602.33 416.80 L 603.81 405.01 L 605.28 420.54 L 606.75 408.51 L 608.22 408.84 L 609.69 411.19 L 611.17 417.06 L 612.64 414.74 L 614.11 411.45 L 615.58 404.33 L 617.06 410.27 L 618.53 414.41 L 620.00 414.01 L 621.47 411.72 L 622.94 424.38 L 624.42 410.70 L 625.89 412.79 L 627.36 433.58 L 628.83 404.83 L 630.31 409.45 L 631.78 416.70 L 633.25 409.56 L 634.72 416.98 L 636.19 409.05 L 637.67 409.98 L 639.14 408.43 L 640.61 412.55 L 642.08 407.93 L 643.56 403.02 L 645.03 408.99 L 646.50 409.65 L 647.97 409.86 L 649.44 420.10 L 650.92 414.05 L 652.39 417.15 L 653.86 418.17 L 655.33 422.35 L 656.81 414.16 L 658.28 411.86 L 659.75 412.30 L 661.22 409.66 L 662.69 410.82 L 664.17 407.38 L 665.64 410.98 L 667.11 405.62 L 668.58 403.88 L 670.06 406.76 L 671.53 411.90 L 673.00 406.84 L 674.47 406.81 L 675.94 401.81 L 677.42 401.42 L 678.89 401.22 L 680.36 406.19 L 681.83 402.13 L 683.31 403.97 L 684.78 409.11 L 686.25 407.34 L 687.72 414.31 L 689.19 417.07 L 690.67 417.19 L 692.14 418.29 L 693.61 418.29 L 695.08 428.21 L 696.56 432.95 L 698.03 450.29 L 699.50 431.78 L 700.97 430.00 L 702.44 442.77 L 703.92 443.06 L 705.39 420.44 L 706.86 401.39 L 708.33 395.51 L 709.81 384.40 L 711.28 377.46 L 712.75 377.24 L 714.22 375.83 L 715.69 372.89 L 717.17 369.92 L 718.64 417.54 L 720.11 413.35 L 721.58 415.96 L 723.06 428.80 L 724.53 431.84 L 726.00 435.07 L 727.47 422.60 L 728.94 421.03 L 730.42 415.39" stroke="#6A1B9A" />
<line x1="900.00" y1="307.75" x2="918.00" y2="307.75" stroke="#2E7D32" stroke-width="3" />
<text class="small" x="924.00" y="311.75">pitch</text>
<line x1="900.00" y1="323.75" x2="918.00" y2="323.75" stroke="#6A1B9A" stroke-width="3" />
<text class="small" x="924.00" y="327.75">roll</text>
<text x="90" y="500.50" font-size="14" font-weight="700">Aceleração (magnitude) (u.a.)</text>
<rect class="event" x="443.33" y="506.50" width="22.08" height="192.75" />
<line class="eventline" x1="443.33" y1="506.50" x2="443.33" y2="699.25" />
<line class="eventline" x1="465.42" y1="506.50" x2="465.42" y2="699.25" />
<line class="grid" x1="90" y1="699.25" x2="1150" y2="699.25" />
<text class="small" x="80" y="703.25" text-anchor="end">0.00</text>
<line class="grid" x1="90" y1="660.70" x2="1150" y2="660.70" />
<text class="small" x="80" y="664.70" text-anchor="end">0.50</text>
<line class="grid" x1="90" y1="622.15" x2="1150" y2="622.15" />
<text class="small" x="80" y="626.15" text-anchor="end">1.00</text>
<line class="grid" x1="90" y1="583.60" x2="1150" y2="583.60" />
<text class="small" x="80" y="587.60" text-anchor="end">1.50</text>
<line class="grid" x1="90" y1="545.05" x2="1150" y2="545.05" />
<text class="small" x="80" y="549.05" text-anchor="end">2.00</text>
<line class="grid" x1="90" y1="506.50" x2="1150" y2="506.50" />
<text class="small" x="80" y="510.50" text-anchor="end">2.50</text>
<line class="grid" x1="90.00" y1="506.50" x2="90.00" y2="699.25" />
<line class="grid" x1="266.67" y1="506.50" x2="266.67" y2="699.25" />
<line class="grid" x1="443.33" y1="506.50" x2="443.33" y2="699.25" />
<line class="grid" x1="620.00" y1="506.50" x2="620.00" y2="699.25" />
<line class="grid" x1="796.67" y1="506.50" x2="796.67" y2="699.25" />
<line class="grid" x1="973.33" y1="506.50" x2="973.33" y2="699.25" />
<line class="grid" x1="1150.00" y1="506.50" x2="1150.00" y2="699.25" />
<line class="axis" x1="90" y1="506.50" x2="90" y2="699.25" />
<line class="axis" x1="90" y1="699.25" x2="1150" y2="699.25" />
<path class="series" d="M 178.33 680.43 L 179.81 684.09 L 181.28 676.40 L 182.75 657.61 L 184.22 673.47 L 185.69 644.88 L 187.17 659.22 L 188.64 651.53 L 190.11 668.99 L 191.58 662.81 L 193.06 672.47 L 194.53 675.49 L 196.00 685.51 L 197.47 659.02 L 198.94 632.34 L 200.42 649.08 L 201.89 678.70 L 203.36 642.06 L 204.83 674.00 L 206.31 675.93 L 207.78 681.92 L 209.25 686.53 L 210.72 671.96 L 212.19 674.77 L 213.67 664.49 L 215.14 681.21 L 216.61 671.93 L 218.08 687.65 L 219.56 668.91 L 221.03 690.10 L 222.50 643.17 L 223.97 635.25 L 225.44 632.80 L 226.92 628.31 L 228.39 678.75 L 229.86 654.68 L 231.33 681.76 L 232.81 679.06 L 234.28 689.37 L 235.75 659.94 L 237.22 656.01 L 238.69 662.03 L 240.17 666.56 L 241.64 683.57 L 243.11 685.87 L 244.58 683.47 L 246.06 683.59 L 247.53 684.33 L 249.00 693.87 L 250.47 687.30 L 251.94 690.09 L 253.42 687.19 L 254.89 663.49 L 256.36 679.71 L 257.83 689.92 L 259.31 690.58 L 260.78 693.03 L 262.25 695.21 L 263.72 685.64 L 265.19 692.15 L 266.67 673.48 L 268.14 673.13 L 269.61 681.56 L 271.08 667.04 L 272.56 684.14 L 274.03 675.37 L 275.50 683.21 L 276.97 650.91 L 278.44 651.76 L 279.92 674.82 L 281.39 649.87 L 282.86 640.81 L 284.33 635.90 L 285.81 654.19 L 287.28 640.19 L 288.75 629.65 L 290.22 672.27 L 291.69 669.49 L 293.17 676.08 L 294.64 669.53 L 296.11 661.51 L 297.58 683.79 L 299.06 651.31 L 300.53 651.31 L 302.00 683.36 L 303.47 684.58 L 304.94 664.00 L 306.42 681.26 L 307.89 661.92 L 309.36 667.21 L 310.83 656.81 L 312.31 683.70 L 313.78 650.53 L 315.25 653.43 L 316.72 687.66 L 318.19 666.51 L 319.67 664.70 L 321.14 668.47 L 322.61 672.30 L 324.08 665.79 L 325.56 687.06 L 327.03 668.72 L 328.50 671.41 L 329.97 671.26 L 331.44 668.16 L 332.92 671.97 L 334.39 683.18 L 335.86 685.25 L 337.33 673.41 L 338.81 660.72 L 340.28 657.15 L 341.75 653.10 L 343.22 662.89 L 344.69 681.93 L 346.17 685.43 L 347.64 689.20 L 349.11 677.32 L 350.58 681.28 L 352.06 659.99 L 353.53 685.82 L 355.00 697.03 L 356.47 686.23 L 357.94 679.29 L 359.42 690.02 L 360.89 683.94 L 362.36 685.00 L 363.83 689.60 L 365.31 659.98 L 366.78 680.21 L 368.25 691.73 L 369.72 691.36 L 371.19 691.04 L 372.67 696.99 L 374.14 691.73 L 375.61 690.76 L 377.08 675.94 L 378.56 675.51 L 380.03 693.72 L 381.50 680.37 L 382.97 685.95 L 384.44 689.02 L 385.92 690.28 L 387.39 691.31 L 388.86 694.77 L 390.33 697.51 L 391.81 698.88 L 393.28 698.66 L 394.75 698.15 L 396.22 696.74 L 397.69 695.90 L 399.17 695.69 L 400.64 697.61 L 402.11 698.49 L 403.58 689.24 L 405.06 685.10 L 406.53 698.30 L 408.00 697.79 L 409.47 698.17 L 410.94 698.51 L 412.42 697.93 L 413.89 698.80 L 415.36 698.99 L 416.83 698.41 L 418.31 698.27 L 419.78 698.15 L 421.25 690.19 L 422.72 688.65 L 424.19 698.09 L 425.67 697.35 L 427.14 693.45 L 428.61 677.08 L 430.08 665.81 L 431.56 636.39 L 433.03 664.05 L 434.50 652.37 L 435.97 686.21 L 437.44 696.67 L 438.92 656.80 L 440.39 664.92 L 441.86 605.60 L 443.33 685.47 L 444.81 692.08 L 446.28 693.48 L 447.75 692.46 L 449.22 697.63 L 450.69 696.78 L 452.17 698.75 L 453.64 698.54 L 455.11 696.97 L 456.58 697.33 L 458.06 698.70 L 459.53 698.86 L 461.00 698.89 L 462.47 691.45 L 463.94 650.26 L 465.42 690.26 L 466.89 677.60 L 468.36 686.16 L 469.83 690.81 L 471.31 686.08 L 472.78 686.08 L 474.25 645.29 L 475.72 664.65 L 477.19 656.43 L 478.67 693.16 L 480.14 669.37 L 481.61 694.40 L 483.08 679.10 L 484.56 674.90 L 486.03 660.89 L 487.50 688.14 L 488.97 680.42 L 490.44 687.12 L 491.92 690.35 L 493.39 692.20 L 494.86 689.87 L 496.33 676.64 L 497.81 677.92 L 499.28 667.53 L 500.75 676.61 L 502.22 652.34 L 503.69 680.00 L 505.17 687.13 L 506.64 679.22 L 508.11 691.80 L 509.58 687.50 L 511.06 684.80 L 512.53 689.14 L 514.00 689.24 L 515.47 679.05 L 516.94 684.78 L 518.42 680.38 L 519.89 695.14 L 521.36 670.36 L 522.83 683.87 L 524.31 676.29 L 525.78 671.69 L 527.25 671.19 L 528.72 687.23 L 530.19 678.73 L 531.67 663.77 L 533.14 661.02 L 534.61 666.52 L 536.08 673.01 L 537.56 663.18 L 539.03 653.76 L 540.50 662.90 L 541.97 646.11 L 543.44 662.19 L 544.92 678.31 L 546.39 663.56 L 547.86 625.16 L 549.33 623.96 L 550.81 681.47 L 552.28 664.08 L 553.75 657.18 L 555.22 657.50 L 556.69 664.65 L 558.17 654.64 L 559.64 653.48 L 561.11 687.11 L 562.58 654.91 L 564.06 634.45 L 565.53 645.54 L 567.00 656.78 L 568.47 658.46 L 569.94 668.62 L 571.42 665.53 L 572.89 669.21 L 574.36 671.37 L 575.83 662.29 L 577.31 661.78 L 578.78 644.86 L 580.25 649.68 L 581.72 668.80 L 583.19 683.01 L 584.67 640.12 L 586.14 665.71 L 587.61 661.80 L 589.08 668.23 L 590.56 686.50 L 592.03 683.11 L 593.50 688.06 L 594.97 683.85 L 596.44 687.24 L 597.92 676.54 L 599.39 685.51 L 600.86 683.73 L 602.33 665.89 L 603.81 662.40 L 605.28 695.17 L 606.75 667.88 L 608.22 662.74 L 609.69 680.57 L 611.17 670.21 L 612.64 682.97 L 614.11 679.09 L 615.58 688.13 L 617.06 684.68 L 618.53 682.21 L 620.00 685.80 L 621.47 683.64 L 622.94 663.46 L 624.42 656.82 L 625.89 656.62 L 627.36 663.47 L 628.83 671.39 L 630.31 679.25 L 631.78 682.81 L 633.25 678.91 L 634.72 683.20 L 636.19 680.66 L 637.67 680.66 L 639.14 694.84 L 640.61 688.55 L 642.08 681.23 L 643.56 685.29 L 645.03 686.89 L 646.50 677.53 L 647.97 677.24 L 649.44 665.95 L 650.92 689.59 L 652.39 686.19 L 653.86 689.83 L 655.33 684.27 L 656.81 678.70 L 658.28 690.66 L 659.75 685.98 L 661.22 696.40 L 662.69 685.88 L 664.17 676.90 L 665.64 683.17 L 667.11 675.91 L 668.58 679.64 L 670.06 686.50 L 671.53 689.15 L 673.00 689.33 L 674.47 690.42 L 675.94 688.13 L 677.42 686.61 L 678.89 683.92 L 680.36 692.35 L 681.83 691.06 L 683.31 689.12 L 684.78 677.56 L 686.25 684.25 L 687.72 689.73 L 689.19 680.71 L 690.67 684.65 L 692.14 682.59 L 693.61 655.90 L 695.08 654.41 L 696.56 614.57 L 698.03 620.85 L 699.50 654.75 L 700.97 656.07 L 702.44 646.09 L 703.92 600.20 L 705.39 600.13 L 706.86 613.17 L 708.33 608.70 L 709.81 622.79 L 711.28 599.46 L 712.75 626.05 L 714.22 599.39 L 715.69 609.12 L 717.17 671.30 L 718.64 604.85 L 720.11 620.91 L 721.58 618.97 L 723.06 640.75 L 724.53 655.47 L 726.00 668.93 L 727.47 679.06 L 728.94 667.81 L 730.42 682.94" stroke="#FB8C00" />
<text x="90" y="711.25" font-size="14" font-weight="700">Giroscópio (magnitude) (u.a.)</text>
<rect class="event" x="443.33" y="717.25" width="22.08" height="192.75" />
<line class="eventline" x1="443.33" y1="717.25" x2="443.33" y2="910.00" />
<line class="eventline" x1="465.42" y1="717.25" x2="465.42" y2="910.00" />
<line class="grid" x1="90" y1="910.00" x2="1150" y2="910.00" />
<text class="small" x="80" y="914.00" text-anchor="end">0.00</text>
<line class="grid" x1="90" y1="871.45" x2="1150" y2="871.45" />
<text class="small" x="80" y="875.45" text-anchor="end">0.10</text>
<line class="grid" x1="90" y1="832.90" x2="1150" y2="832.90" />
<text class="small" x="80" y="836.90" text-anchor="end">0.20</text>
<line class="grid" x1="90" y1="794.35" x2="1150" y2="794.35" />
<text class="small" x="80" y="798.35" text-anchor="end">0.30</text>
<line class="grid" x1="90" y1="755.80" x2="1150" y2="755.80" />
<text class="small" x="80" y="759.80" text-anchor="end">0.40</text>
<line class="grid" x1="90" y1="717.25" x2="1150" y2="717.25" />
<text class="small" x="80" y="721.25" text-anchor="end">0.50</text>
<line class="grid" x1="90.00" y1="717.25" x2="90.00" y2="910.00" />
<line class="grid" x1="266.67" y1="717.25" x2="266.67" y2="910.00" />
<line class="grid" x1="443.33" y1="717.25" x2="443.33" y2="910.00" />
<line class="grid" x1="620.00" y1="717.25" x2="620.00" y2="910.00" />
<line class="grid" x1="796.67" y1="717.25" x2="796.67" y2="910.00" />
<line class="grid" x1="973.33" y1="717.25" x2="973.33" y2="910.00" />
<line class="grid" x1="1150.00" y1="717.25" x2="1150.00" y2="910.00" />
<line class="axis" x1="90" y1="717.25" x2="90" y2="910.00" />
<line class="axis" x1="90" y1="910.00" x2="1150" y2="910.00" />
<path class="series" d="M 178.33 885.13 L 179.81 883.59 L 181.28 877.20 L 182.75 879.41 L 184.22 867.56 L 185.69 859.34 L 187.17 874.90 L 188.64 876.82 L 190.11 886.45 L 191.58 886.85 L 193.06 889.69 L 194.53 878.34 L 196.00 888.83 L 197.47 894.37 L 198.94 884.42 L 200.42 851.38 L 201.89 836.98 L 203.36 874.36 L 204.83 899.02 L 206.31 900.84 L 207.78 904.05 L 209.25 905.50 L 210.72 895.79 L 212.19 897.09 L 213.67 901.97 L 215.14 904.75 L 216.61 902.08 L 218.08 901.48 L 219.56 892.48 L 221.03 880.92 L 222.50 882.00 L 223.97 882.33 L 225.44 877.30 L 226.92 883.75 L 228.39 863.00 L 229.86 835.38 L 231.33 831.76 L 232.81 831.38 L 234.28 829.75 L 235.75 821.37 L 237.22 833.71 L 238.69 848.53 L 240.17 879.49 L 241.64 898.33 L 243.11 906.68 L 244.58 907.96 L 246.06 908.98 L 247.53 909.12 L 249.00 907.85 L 250.47 906.28 L 251.94 895.62 L 253.42 881.98 L 254.89 876.01 L 256.36 900.24 L 257.83 908.49 L 259.31 905.37 L 260.78 908.75 L 262.25 909.28 L 263.72 907.66 L 265.19 902.27 L 266.67 906.00 L 268.14 907.41 L 269.61 899.29 L 271.08 901.56 L 272.56 900.28 L 274.03 898.08 L 275.50 893.63 L 276.97 882.11 L 278.44 883.41 L 279.92 890.97 L 281.39 888.62 L 282.86 879.95 L 284.33 851.69 L 285.81 861.67 L 287.28 860.18 L 288.75 876.72 L 290.22 888.15 L 291.69 884.60 L 293.17 892.92 L 294.64 893.60 L 296.11 890.53 L 297.58 880.80 L 299.06 879.38 L 300.53 879.38 L 302.00 862.30 L 303.47 858.14 L 304.94 852.26 L 306.42 854.29 L 307.89 859.45 L 309.36 858.05 L 310.83 864.15 L 312.31 878.59 L 313.78 877.07 L 315.25 877.10 L 316.72 880.01 L 318.19 873.29 L 319.67 872.46 L 321.14 888.63 L 322.61 890.54 L 324.08 900.51 L 325.56 897.93 L 327.03 905.06 L 328.50 904.82 L 329.97 900.79 L 331.44 899.28 L 332.92 890.30 L 334.39 878.97 L 335.86 873.03 L 337.33 867.86 L 338.81 852.87 L 340.28 847.35 L 341.75 855.88 L 343.22 874.55 L 344.69 889.75 L 346.17 887.54 L 347.64 879.62 L 349.11 883.63 L 350.58 903.49 L 352.06 909.36 L 353.53 908.93 L 355.00 909.58 L 356.47 908.88 L 357.94 903.25 L 359.42 907.97 L 360.89 898.97 L 362.36 889.05 L 363.83 873.55 L 365.31 870.17 L 366.78 881.66 L 368.25 894.25 L 369.72 900.57 L 371.19 906.19 L 372.67 908.86 L 374.14 909.01 L 375.61 909.39 L 377.08 907.87 L 378.56 908.28 L 380.03 906.42 L 381.50 908.94 L 382.97 908.89 L 384.44 909.36 L 385.92 909.79 L 387.39 909.76 L 388.86 909.85 L 390.33 909.84 L 391.81 909.89 L 393.28 909.77 L 394.75 909.96 L 396.22 909.89 L 397.69 909.51 L 399.17 909.81 L 400.64 909.87 L 402.11 909.93 L 403.58 909.54 L 405.06 909.62 L 406.53 909.76 L 408.00 909.78 L 409.47 909.90 L 410.94 909.90 L 412.42 909.42 L 413.89 909.67 L 415.36 909.85 L 416.83 909.67 L 418.31 909.84 L 419.78 909.73 L 421.25 909.69 L 422.72 909.79 L 424.19 909.45 L 425.67 908.76 L 427.14 907.95 L 428.61 903.81 L 430.08 903.55 L 431.56 896.02 L 433.03 896.56 L 434.50 897.77 L 435.97 908.63 L 437.44 909.55 L 438.92 905.15 L 440.39 889.25 L 441.86 884.51 L 443.33 904.95 L 444.81 908.65 L 446.28 909.62 L 447.75 909.47 L 449.22 909.20 L 450.69 909.87 L 452.17 909.79 L 453.64 909.73 L 455.11 909.52 L 456.58 909.94 L 458.06 909.87 L 459.53 909.88 L 461.00 909.75 L 462.47 909.19 L 463.94 897.83 L 465.42 883.86 L 466.89 875.04 L 468.36 865.28 L 469.83 859.63 L 471.31 856.44 L 472.78 856.44 L 474.25 870.57 L 475.72 900.57 L 477.19 908.05 L 478.67 908.38 L 480.14 907.90 L 481.61 900.98 L 483.08 895.30 L 484.56 905.32 L 486.03 908.33 L 487.50 907.39 L 488.97 907.91 L 490.44 906.26 L 491.92 900.78 L 493.39 891.89 L 494.86 875.21 L 496.33 871.02 L 497.81 866.88 L 499.28 855.96 L 500.75 846.23 L 502.22 865.96 L 503.69 887.97 L 505.17 897.69 L 506.64 903.04 L 508.11 905.73 L 509.58 906.41 L 511.06 907.13 L 512.53 904.04 L 514.00 906.56 L 515.47 905.81 L 516.94 905.42 L 518.42 905.08 L 519.89 907.48 L 521.36 908.15 L 522.83 908.32 L 524.31 904.95 L 525.78 902.81 L 527.25 896.48 L 528.72 890.44 L 530.19 885.96 L 531.67 884.91 L 533.14 889.45 L 534.61 884.58 L 536.08 886.13 L 537.56 874.61 L 539.03 858.53 L 540.50 847.59 L 541.97 888.68 L 543.44 882.91 L 544.92 879.36 L 546.39 895.74 L 547.86 898.34 L 549.33 873.06 L 550.81 871.98 L 552.28 862.20 L 553.75 858.11 L 555.22 855.57 L 556.69 850.55 L 558.17 838.85 L 559.64 877.79 L 561.11 884.53 L 562.58 870.00 L 564.06 863.76 L 565.53 874.01 L 567.00 878.06 L 568.47 879.71 L 569.94 872.56 L 571.42 872.88 L 572.89 878.89 L 574.36 882.32 L 575.83 878.74 L 577.31 892.45 L 578.78 900.42 L 580.25 900.26 L 581.72 891.85 L 583.19 895.27 L 584.67 902.97 L 586.14 891.39 L 587.61 894.92 L 589.08 882.87 L 590.56 886.61 L 592.03 893.29 L 593.50 892.16 L 594.97 896.49 L 596.44 902.07 L 597.92 903.41 L 599.39 902.23 L 600.86 904.02 L 602.33 895.44 L 603.81 899.22 L 605.28 895.74 L 606.75 903.40 L 608.22 900.37 L 609.69 891.29 L 611.17 904.83 L 612.64 904.39 L 614.11 897.57 L 615.58 905.15 L 617.06 904.09 L 618.53 905.76 L 620.00 904.14 L 621.47 906.14 L 622.94 888.97 L 624.42 904.52 L 625.89 899.63 L 627.36 888.88 L 628.83 903.09 L 630.31 901.70 L 631.78 904.06 L 633.25 900.99 L 634.72 902.44 L 636.19 905.77 L 637.67 905.77 L 639.14 902.50 L 640.61 907.48 L 642.08 904.74 L 643.56 907.69 L 645.03 904.94 L 646.50 901.83 L 647.97 901.49 L 649.44 903.35 L 650.92 901.28 L 652.39 904.54 L 653.86 903.63 L 655.33 902.14 L 656.81 900.17 L 658.28 898.62 L 659.75 900.08 L 661.22 898.62 L 662.69 896.73 L 664.17 902.55 L 665.64 902.00 L 667.11 899.84 L 668.58 896.09 L 670.06 895.79 L 671.53 899.26 L 673.00 905.68 L 674.47 905.61 L 675.94 903.81 L 677.42 903.06 L 678.89 902.87 L 680.36 901.57 L 681.83 903.06 L 683.31 898.22 L 684.78 906.98 L 686.25 901.78 L 687.72 901.95 L 689.19 895.29 L 690.67 895.42 L 692.14 892.09 L 693.61 883.64 L 695.08 867.41 L 696.56 859.05 L 698.03 854.15 L 699.50 835.59 L 700.97 823.82 L 702.44 820.86 L 703.92 824.50 L 705.39 870.24 L 706.86 899.57 L 708.33 893.82 L 709.81 869.90 L 711.28 844.99 L 712.75 826.95 L 714.22 811.51 L 715.69 805.77 L 717.17 826.85 L 718.64 907.35 L 720.11 886.00 L 721.58 863.12 L 723.06 854.90 L 724.53 860.42 L 726.00 861.27 L 727.47 881.61 L 728.94 895.08 L 730.42 896.79" stroke="#E53935" />
<text x="620.00" y="952" font-size="15" text-anchor="middle">minutos (relativo ao início do evento)</text>
<text class="small" x="90.00" y="936" text-anchor="middle">-4.00</text>
<text class="small" x="266.67" y="936" text-anchor="middle">-2.00</text>
<text class="small" x="443.33" y="936" text-anchor="middle">0.00</text>
<text class="small" x="620.00" y="936" text-anchor="middle">2.00</text>
<text class="small" x="796.67" y="936" text-anchor="middle">4.00</text>
<text class="small" x="973.33" y="936" text-anchor="middle">6.00</text>
<text class="small" x="1150.00" y="936" text-anchor="middle">8.00</text>
</svg>