<?xml version="1.0" encoding="UTF-8"?>
<svg xmlns="http://www.w3.org/2000/svg" width="1180" height="980" viewBox="0 0 1180 980">
<style>
text { font-family: -apple-system, BlinkMacSystemFont, 'Segoe UI', Roboto, Helvetica, Arial, sans-serif; fill: #111; }
.small { font-size: 12px; fill: #222; }
.title { font-size: 18px; font-weight: 700; }
.axis { stroke: #111; stroke-width: 1.4; }
.grid { stroke: #E6E6E6; stroke-width: 1; }
.event { fill: #FFEB3B; fill-opacity: 0.18; }
.eventline { stroke: #F9A825; stroke-width: 1.2; stroke-dasharray: 4 3; }
.series { fill: none; stroke-width: 1.8; }
</style>
<text class="title" x="90" y="34">ciclo 29 — carregamento — 2025-12-13T04:45:09-03:00 → 2025-12-13T04:50:16-03:00 (span 307s, dur 275s)</text>
<text class="small" x="90" y="54">GPS: -11.699076,-47.157217  hotspot: -11.699,-47.157</text>
<text class="small" x="90" y="70">Janela: -3.00 → 8.12 min (relativo ao início do evento)</text>
<text x="90" y="79.00" font-size="14" font-weight="700">Velocidade (km/h)</text>
<rect class="event" x="392.86" y="85.00" width="387.40" height="192.75" />
<line class="eventline" x1="392.86" y1="85.00" x2="392.86" y2="277.75" />
<line class="eventline" x1="780.26" y1="85.00" x2="780.26" y2="277.75" />
<line class="grid" x1="90" y1="277.75" x2="1150" y2="277.75" />
<text class="small" x="80" y="281.75" text-anchor="end">0.00</text>
<line class="grid" x1="90" y1="239.20" x2="1150" y2="239.20" />
<text class="small" x="80" y="243.20" text-anchor="end">10.0</text>
<line class="grid" x1="90" y1="200.65" x2="1150" y2="200.65" />
<text class="small" x="80" y="204.65" text-anchor="end">20.0</text>
<line class="grid" x1="90" y1="162.10" x2="1150" y2="162.10" />
<text class="small" x="80" y="166.10" text-anchor="end">30.0</text>
<line class="grid" x1="90" y1="123.55" x2="1150" y2="123.55" />
<text class="small" x="80" y="127.55" text-anchor="end">40.0</text>
<line class="grid" x1="90" y1="85.00" x2="1150" y2="85.00" />
<text class="small" x="80" y="89.00" text-anchor="end">50.0</text>
<line class="grid" x1="90.00" y1="85.00" x2="90.00" y2="277.75" />
<line class="grid" x1="241.43" y1="85.00" x2="241.43" y2="277.75" />
<line class="grid" x1="392.86" y1="85.00" x2="392.86" y2="277.75" />
<line class="grid" x1="544.29" y1="85.00" x2="544.29" y2="277.75" />
<line class="grid" x1="695.71" y1="85.00" x2="695.71" y2="277.75" />
<line class="grid" x1="847.14" y1="85.00" x2="847.14" y2="277.75" />
<line class="grid" x1="998.57" y1="85.00" x2="998.57" y2="277.75" />
<line class="grid" x1="1150.00" y1="85.00" x2="1150.00" y2="277.75" />
<line class="axis" x1="90" y1="85.00" x2="90" y2="277.75" />
<line class="axis" x1="90" y1="277.75" x2="1150" y2="277.75" />
<path class="series" d="M 165.71 166.03 L 166.98 166.03 L 168.24 171.03 L 169.50 169.09 L 170.76 170.20 L 172.02 169.09 L 173.29 172.69 L 174.55 175.61 L 175.81 178.66 L 177.07 182.55 L 178.33 183.93 L 179.60 184.35 L 180.86 189.21 L 182.12 189.21 L 183.38 192.54 L 184.64 191.43 L 185.90 192.12 L 187.17 188.38 L 188.43 189.62 L 189.69 184.07 L 190.95 177.97 L 192.21 171.17 L 193.48 172.42 L 194.74 169.92 L 196.00 170.89 L 197.26 169.50 L 198.52 169.78 L 199.79 171.03 L 201.05 173.80 L 202.31 177.27 L 203.57 181.16 L 204.83 186.29 L 206.10 187.54 L 207.36 202.67 L 208.62 212.66 L 209.88 220.43 L 211.14 223.49 L 212.40 221.27 L 213.67 218.63 L 214.93 218.77 L 216.19 217.52 L 217.45 216.69 L 218.71 217.66 L 219.98 213.91 L 221.24 212.25 L 222.50 211.69 L 223.76 207.53 L 225.02 207.25 L 226.29 198.23 L 227.55 206.69 L 228.81 208.64 L 230.07 214.88 L 231.33 214.05 L 232.60 214.61 L 233.86 208.92 L 235.12 205.72 L 236.38 194.76 L 237.64 190.04 L 238.90 192.96 L 240.17 200.17 L 241.43 202.39 L 242.69 203.23 L 243.95 202.95 L 245.21 204.06 L 246.48 201.98 L 247.74 200.59 L 249.00 200.17 L 250.26 200.73 L 251.52 202.95 L 252.79 197.12 L 254.05 198.23 L 255.31 197.67 L 256.57 194.34 L 257.83 190.18 L 259.10 188.79 L 260.36 189.90 L 261.62 190.46 L 262.88 192.82 L 264.14 195.73 L 265.40 200.59 L 266.67 203.09 L 267.93 204.89 L 269.19 209.33 L 270.45 210.58 L 271.71 211.27 L 272.98 214.61 L 274.24 218.07 L 275.50 220.30 L 276.76 216.27 L 278.02 213.63 L 279.29 212.11 L 280.55 212.66 L 281.81 215.85 L 283.07 220.30 L 284.33 221.54 L 285.60 225.71 L 286.86 233.62 L 288.12 236.39 L 289.38 239.72 L 290.64 242.92 L 291.90 242.08 L 293.17 241.11 L 294.43 241.39 L 295.69 244.17 L 296.95 241.81 L 298.21 240.28 L 299.48 240.83 L 300.74 245.28 L 302.00 242.50 L 303.26 239.86 L 304.52 243.19 L 305.79 241.25 L 307.05 248.61 L 308.31 247.91 L 309.57 248.33 L 310.83 251.10 L 312.10 248.61 L 313.36 247.50 L 314.62 246.52 L 315.88 249.30 L 317.14 249.72 L 318.40 251.10 L 319.67 250.83 L 320.93 250.69 L 322.19 252.08 L 323.45 247.36 L 324.71 248.05 L 325.98 251.66 L 327.24 251.10 L 328.50 260.12 L 329.76 262.21 L 331.02 262.76 L 332.29 262.48 L 333.55 261.65 L 334.81 264.01 L 336.07 261.10 L 337.33 264.15 L 338.60 263.73 L 339.86 269.28 L 341.12 268.45 L 342.38 267.90 L 343.64 265.40 L 344.90 265.26 L 346.17 265.95 L 347.43 263.59 L 348.69 265.95 L 349.95 264.70 L 351.21 264.15 L 352.48 262.62 L 353.74 262.35 L 355.00 266.51 L 356.26 263.59 L 357.52 262.62 L 358.79 262.35 L 360.05 269.56 L 361.31 269.98 L 362.57 269.42 L 363.83 268.87 L 365.10 264.84 L 366.36 265.26 L 367.62 260.12 L 368.88 264.43 L 370.14 263.04 L 371.40 264.01 L 372.67 264.84 L 373.93 263.87 L 375.19 262.07 L 376.45 262.90 L 377.71 261.93 L 378.98 264.29 L 380.24 261.37 L 381.50 264.43 L 382.76 262.21 L 384.02 256.66 L 385.29 257.07 L 386.55 257.35 L 387.81 259.29 L 389.07 264.43 L 390.33 266.23 L 391.60 270.12 L 392.86 277.75 L 394.12 277.75 L 395.38 277.75 L 396.64 277.75 L 397.90 277.75 L 399.17 277.75 L 400.43 277.75 L 401.69 277.75 L 402.95 277.75 L 404.21 277.75 L 405.48 277.75 L 406.74 277.75 L 408.00 277.75 L 409.26 277.75 L 410.52 277.75 L 411.79 277.75 L 413.05 277.75 L 414.31 277.75 L 415.57 277.75 L 416.83 277.75 L 418.10 277.75 L 419.36 277.75 L 420.62 277.75 L 421.88 277.75 L 423.14 277.75 L 424.40 277.75 L 425.67 277.75 L 426.93 277.75 L 428.19 277.75 L 429.45 277.75 L 430.71 277.75 L 431.98 277.75 L 433.24 277.75 L 434.50 277.75 L 435.76 277.75 L 437.02 277.75 L 438.29 277.75 L 439.55 277.75 L 440.81 277.75 L 442.07 277.75 L 443.33 277.75 L 444.60 277.75 L 445.86 277.75 L 447.12 277.75 L 448.38 277.75 L 449.64 277.75 L 450.90 277.75 L 452.17 277.75 L 453.43 277.75 L 454.69 277.75 L 455.95 277.75 L 457.21 277.75 L 458.48 277.75 L 459.74 277.75 L 461.00 277.75 L 462.26 277.75 L 463.52 277.75 L 464.79 277.75 L 466.05 277.75 L 467.31 277.75 L 468.57 277.75 L 469.83 277.75 L 471.10 277.75 L 472.36 277.75 L 473.62 277.75 L 474.88 277.75 L 476.14 277.75 L 477.40 277.75 L 478.67 277.75 L 479.93 277.75 L 481.19 277.75 L 482.45 277.75 L 483.71 277.75 L 484.98 277.75 L 486.24 277.75 L 487.50 277.75 L 488.76 277.75 L 490.02 277.75 L 491.29 277.75 L 492.55 277.75 L 493.81 277.75 L 495.07 277.75 L 496.33 277.75 L 497.60 277.75 L 498.86 277.75 L 500.12 277.75 L 501.38 277.75 L 502.64 277.75 L 503.90 277.75 L 505.17 277.75 L 506.43 277.75 L 507.69 277.75 L 508.95 277.75 L 510.21 277.75 L 511.48 277.75 L 512.74 277.75 L 514.00 277.75 L 515.26 277.75 L 516.52 277.75 L 517.79 277.75 L 519.05 277.75 L 520.31 277.75 L 521.57 277.75 L 522.83 277.75 L 524.10 277.75 L 525.36 277.75 L 526.62 277.75 L 527.88 277.75 L 529.14 277.75 L 530.40 277.75 L 531.67 277.75 L 532.93 277.75 L 534.19 277.75 L 535.45 277.75 L 536.71 277.75 L 537.98 277.75 L 539.24 277.75 L 540.50 277.75 L 541.76 277.75 L 543.02 277.75 L 544.29 277.75 L 545.55 277.75 L 546.81 277.75 L 548.07 277.75 L 549.33 277.75 L 550.60 277.75 L 551.86 277.75 L 553.12 277.75 L 554.38 277.75 L 555.64 277.75 L 556.90 277.75 L 558.17 277.75 L 559.43 277.75 L 560.69 277.75 L 561.95 277.75 L 563.21 277.75 L 564.48 277.75 L 565.74 277.75 L 567.00 277.75 L 568.26 277.75 L 569.52 277.75 L 570.79 277.75 L 572.05 277.75 L 573.31 277.75 L 574.57 277.75 L 575.83 277.75 L 577.10 277.75 L 578.36 277.75 L 579.62 277.75 L 580.88 268.04 L 582.14 266.09 L 583.40 265.81 L 584.67 263.73 L 585.93 263.87 L 587.19 263.32 L 588.45 265.12 L 589.71 274.97 L 590.98 266.37 L 592.24 264.70 L 593.50 266.37 L 594.76 266.65 L 596.02 264.84 L 597.29 266.65 L 598.55 267.06 L 599.81 265.40 L 601.07 268.17 L 602.33 266.79 L 603.60 277.75 L 604.86 277.75 L 606.12 269.28 L 607.38 272.34 L 608.64 277.75 L 609.90 277.75 L 611.17 277.75 L 612.43 277.75 L 613.69 270.26 L 614.95 271.37 L 616.21 271.23 L 617.48 273.17 L 618.74 277.75 L 620.00 277.75 L 621.26 269.84 L 622.52 277.75 L 623.79 277.75 L 625.05 277.75 L 626.31 277.75 L 627.57 277.75 L 628.83 277.75 L 630.10 277.75 L 631.36 277.75 L 632.62 277.75 L 633.88 277.75 L 635.14 277.75 L 636.40 277.75 L 637.67 277.75 L 638.93 277.75 L 640.19 277.75 L 641.45 277.75 L 642.71 277.75 L 643.98 277.75 L 645.24 277.75 L 646.50 277.75 L 647.76 277.75 L 649.02 277.75 L 650.29 277.75 L 651.55 277.75 L 652.81 277.75 L 654.07 277.75 L 655.33 277.75 L 656.60 277.75 L 657.86 277.75 L 659.12 277.75 L 660.38 277.75 L 661.64 277.75 L 662.90 277.75 L 664.17 277.75 L 665.43 277.75 L 666.69 277.75 L 667.95 277.75 L 669.21 277.75 L 670.48 277.75 L 671.74 277.75 L 673.00 277.75 L 674.26 277.75 L 675.52 277.75 L 676.79 277.75 L 678.05 277.75 L 679.31 277.75 L 680.57 277.75 L 681.83 277.75 L 683.10 277.75 L 684.36 277.75 L 685.62 277.75 L 686.88 277.75 L 688.14 277.75 L 689.40 277.75 L 690.67 277.75 L 691.93 277.75 L 693.19 277.75 L 694.45 277.75 L 695.71 277.75 L 696.98 277.75 L 698.24 277.75 L 699.50 277.75 L 700.76 277.75 L 702.02 277.75 L 703.29 277.75 L 704.55 277.75 L 705.81 277.75 L 707.07 277.75 L 708.33 277.75 L 709.60 277.75 L 710.86 277.75 L 712.12 277.75 L 713.38 277.75 L 714.64 277.75 L 715.90 277.75 L 717.17 277.75 L 718.43 277.75 L 719.69 277.75 L 720.95 277.75 L 722.21 277.75 L 723.48 277.75 L 724.74 277.75 L 726.00 277.75 L 727.26 277.75 L 728.52 277.75 L 729.79 277.75 L 731.05 277.75 L 732.31 277.75 L 733.57 277.75 L 734.83 277.75 L 736.10 277.75 L 737.36 277.75 L 738.62 277.75 L 739.88 277.75 L 741.14 277.75 L 742.40 277.75 L 743.67 277.75 L 744.93 277.75 L 746.19 277.75 L 747.45 277.75 L 748.71 277.75 L 749.98 277.75 L 751.24 277.75 L 752.50 277.75 L 753.76 277.75 L 755.02 277.75 L 756.29 277.75 L 757.55 277.75 L 758.81 277.75 L 760.07 277.75 L 761.33 277.75 L 762.60 277.75 L 763.86 277.75 L 765.12 277.75 L 766.38 277.75 L 767.64 277.75 L 768.90 277.75 L 770.17 277.75 L 771.43 277.75 L 772.69 277.75 L 773.95 277.75 L 775.21 277.75 L 776.48 277.75 L 777.74 277.75 L 779.00 277.75 L 780.26 277.75 L 781.52 267.34 L 782.79 268.31 L 784.05 261.24 L 785.31 259.85 L 786.57 259.57 L 787.83 256.79 L 789.10 256.38 L 790.36 258.60 L 791.62 255.41 L 792.88 255.68 L 794.14 256.79 L 795.40 254.02 L 796.67 251.80 L 797.93 256.66 L 799.19 259.01 L 800.45 255.82 L 801.71 250.27 L 802.98 251.24 L 804.24 243.75 L 805.50 242.78 L 806.76 241.67 L 808.02 241.53 L 809.29 240.70 L 810.55 238.89 L 811.81 237.23 L 813.07 232.51 L 814.33 235.01 L 815.60 235.98 L 816.86 242.36 L 818.12 241.81 L 819.38 238.34 L 820.64 240.00 L 821.90 240.56 L 823.17 239.17 L 824.43 238.48 L 825.69 236.25 L 826.95 231.26 L 828.21 231.12 L 829.48 229.45 L 830.74 231.95 L 832.00 227.93 L 833.26 224.04 L 834.52 221.41 L 835.79 219.46 L 837.05 217.94 L 838.31 219.32 L 839.57 220.30 L 840.83 219.32 L 842.10 222.65 L 843.36 223.21 L 844.62 223.90 L 845.88 220.71 L 847.14 217.10 L 848.40 216.55 L 849.67 214.33 L 850.93 208.50 L 852.19 204.47 L 853.45 208.78 L 854.71 209.61 L 855.98 199.48 L 857.24 197.12 L 858.50 194.62 L 859.76 192.82 L 861.02 193.79 L 862.29 195.73 L 863.55 194.48 L 864.81 186.02 L 866.07 183.52 L 867.33 184.35 L 868.60 179.77 L 869.86 181.58 L 871.12 177.00 L 872.38 171.86 L 873.64 172.00 L 874.90 170.20 L 876.17 163.12 L 877.43 162.29 L 878.69 160.48 L 879.95 162.42 L 881.21 167.56 L 882.48 184.91 L 883.74 198.23 L 885.00 216.13 L 886.26 228.62 L 887.52 229.04 L 888.79 227.23 L 890.05 229.32 L 891.31 226.40 L 892.57 224.32 L 893.83 219.32 L 895.10 214.47 L 896.36 214.19 L 897.62 212.80 L 898.88 211.27 L 900.14 217.80 L 901.40 225.43 L 902.67 226.54 L 903.93 228.76 L 905.19 232.65 L 906.45 235.42 L 907.71 237.50 L 908.98 236.81 L 910.24 238.06 L 911.50 240.00 L 912.76 240.83 L 914.02 241.39 L 915.29 243.06 L 916.55 248.33 L 917.81 251.10 L 919.07 249.86 L 920.33 251.52 L 921.60 249.72 L 922.86 250.41 L 924.12 249.86 L 925.38 249.44 L 926.64 249.86 L 927.90 249.86 L 929.17 249.30 L 930.43 249.02 L 931.69 248.88 L 932.95 249.16 L 934.21 249.02 L 935.48 247.91 L 936.74 248.33 L 938.00 249.86 L 939.26 248.19 L 940.52 249.30 L 941.79 248.19 L 943.05 247.22 L 944.31 247.63 L 945.57 247.36 L 946.83 246.94 L 948.10 247.63 L 949.36 249.99 L 950.62 250.13 L 951.88 251.10 L 953.14 251.66 L 954.40 251.10 L 955.67 250.27 L 956.93 249.30 L 958.19 248.61 L 959.45 247.77 L 960.71 247.08 L 961.98 246.80 L 963.24 246.11 L 964.50 246.11 L 965.76 244.58 L 967.02 244.86 L 968.29 246.94 L 969.55 246.94 L 970.81 246.11 L 972.07 245.83 L 973.33 246.94 L 974.60 245.69 L 975.86 244.72 L 977.12 244.72 L 978.38 243.19 L 979.64 243.19 L 980.90 243.19 L 982.17 244.44 L 983.43 241.81 L 984.69 237.92 L 985.95 235.01 L 987.21 230.84 L 988.48 227.23 L 989.74 222.93 L 991.00 220.85 L 992.26 216.83 L 993.52 209.89 L 994.79 207.11 L 996.05 204.34 L 997.31 199.48 L 998.57 191.29 L 999.83 191.85 L 1001.10 190.32 L 1002.36 182.27 L 1003.62 179.63 L 1004.88 175.33 L 1006.14 175.47 L 1007.40 171.17" stroke="#1976D2" />
<text x="90" y="289.75" font-size="14" font-weight="700">Inclinação (graus)</text>
<rect class="event" x="392.86" y="295.75" width="387.40" height="192.75" />
<line class="eventline" x1="392.86" y1="295.75" x2="392.86" y2="488.50" />
<line class="eventline" x1="780.26" y1="295.75" x2="780.26" y2="488.50" />
<line class="grid" x1="90" y1="488.50" x2="1150" y2="488.50" />
<text class="small" x="80" y="492.50" text-anchor="end">-20.0</text>
<line class="grid" x1="90" y1="449.95" x2="1150" y2="449.95" />
<text class="small" x="80" y="453.95" text-anchor="end">-10.0</text>
<line class="grid" x1="90" y1="411.40" x2="1150" y2="411.40" />
<text class="small" x="80" y="415.40" text-anchor="end">0.00</text>
<line class="grid" x1="90" y1="372.85" x2="1150" y2="372.85" />
<text class="small" x="80" y="376.85" text-anchor="end">10.0</text>
<line class="grid" x1="90" y1="334.30" x2="1150" y2="334.30" />
<text class="small" x="80" y="338.30" text-anchor="end">20.0</text>
<line class="grid" x1="90" y1="295.75" x2="1150" y2="295.75" />
<text class="small" x="80" y="299.75" text-anchor="end">30.0</text>
<line class="grid" x1="90.00" y1="295.75" x2="90.00" y2="488.50" />
<line class="grid" x1="241.43" y1="295.75" x2="241.43" y2="488.50" />
<line class="grid" x1="392.86" y1="295.75" x2="392.86" y2="488.50" />
<line class="grid" x1="544.29" y1="295.75" x2="544.29" y2="488.50" />
<line class="grid" x1="695.71" y1="295.75" x2="695.71" y2="488.50" />
<line class="grid" x1="847.14" y1="295.75" x2="847.14" y2="488.50" />
<line class="grid" x1="998.57" y1="295.75" x2="998.57" y2="488.50" />
<line class="grid" x1="1150.00" y1="295.75" x2="1150.00" y2="488.50" />
<line class="axis" x1="90" y1="295.75" x2="90" y2="488.50" />
<line class="axis" x1="90" y1="488.50" x2="1150" y2="488.50" />
<path class="series" d="M 165.71 371.01 L 166.98 368.50 L 168.24 367.98 L 169.50 368.73 L 170.76 366.62 L 172.02 365.55 L 173.29 363.99 L 174.55 363.35 L 175.81 361.89 L 177.07 359.93 L 178.33 359.61 L 179.60 359.42 L 180.86 358.61 L 182.12 359.22 L 183.38 358.55 L 184.64 364.61 L 185.90 356.93 L 187.17 357.56 L 188.43 360.92 L 189.69 353.27 L 190.95 352.36 L 192.21 342.46 L 193.48 346.17 L 194.74 340.29 L 196.00 337.17 L 197.26 335.33 L 198.52 338.15 L 199.79 334.81 L 201.05 337.81 L 202.31 337.10 L 203.57 339.36 L 204.83 341.53 L 206.10 327.87 L 207.36 330.62 L 208.62 333.08 L 209.88 338.70 L 211.14 351.63 L 212.40 351.75 L 213.67 352.53 L 214.93 351.21 L 216.19 354.02 L 217.45 344.08 L 218.71 352.34 L 219.98 364.10 L 221.24 363.44 L 222.50 367.89 L 223.76 367.11 L 225.02 368.63 L 226.29 355.48 L 227.55 358.97 L 228.81 350.44 L 230.07 359.23 L 231.33 354.98 L 232.60 351.39 L 233.86 351.18 L 235.12 346.20 L 236.38 345.73 L 237.64 349.36 L 238.90 358.13 L 240.17 358.53 L 241.43 364.94 L 242.69 375.89 L 243.95 369.40 L 245.21 376.48 L 246.48 378.69 L 247.74 371.54 L 249.00 364.84 L 250.26 360.33 L 251.52 375.04 L 252.79 362.49 L 254.05 369.38 L 255.31 370.32 L 256.57 370.88 L 257.83 372.48 L 259.10 367.70 L 260.36 369.14 L 261.62 363.80 L 262.88 367.50 L 264.14 362.74 L 265.40 363.07 L 266.67 354.67 L 267.93 357.03 L 269.19 359.52 L 270.45 360.26 L 271.71 360.01 L 272.98 356.86 L 274.24 362.16 L 275.50 370.70 L 276.76 365.77 L 278.02 365.23 L 279.29 353.66 L 280.55 355.36 L 281.81 359.27 L 283.07 351.10 L 284.33 355.43 L 285.60 345.90 L 286.86 361.99 L 288.12 358.58 L 289.38 364.13 L 290.64 368.53 L 291.90 358.32 L 293.17 363.94 L 294.43 366.60 L 295.69 378.28 L 296.95 383.05 L 298.21 375.64 L 299.48 369.14 L 300.74 383.41 L 302.00 383.21 L 303.26 377.08 L 304.52 376.52 L 305.79 370.26 L 307.05 376.13 L 308.31 370.62 L 309.57 370.30 L 310.83 373.24 L 312.10 367.92 L 313.36 367.92 L 314.62 368.21 L 315.88 362.66 L 317.14 363.60 L 318.40 365.90 L 319.67 364.52 L 320.93 368.76 L 322.19 364.02 L 323.45 380.66 L 324.71 374.26 L 325.98 370.66 L 327.24 373.86 L 328.50 377.34 L 329.76 374.46 L 331.02 375.56 L 332.29 376.20 L 333.55 370.04 L 334.81 365.45 L 336.07 368.28 L 337.33 360.65 L 338.60 356.72 L 339.86 349.16 L 341.12 358.40 L 342.38 359.29 L 343.64 364.55 L 344.90 356.22 L 346.17 362.44 L 347.43 365.97 L 348.69 357.80 L 349.95 359.37 L 351.21 355.54 L 352.48 359.59 L 353.74 356.51 L 355.00 368.36 L 356.26 366.30 L 357.52 366.72 L 358.79 356.91 L 360.05 350.45 L 361.31 365.44 L 362.57 356.82 L 363.83 357.36 L 365.10 365.24 L 366.36 357.40 L 367.62 365.83 L 368.88 363.88 L 370.14 373.00 L 371.40 373.62 L 372.67 377.76 L 373.93 373.23 L 375.19 370.52 L 376.45 353.25 L 377.71 352.74 L 378.98 349.32 L 380.24 344.46 L 381.50 344.76 L 382.76 353.21 L 384.02 357.88 L 385.29 358.38 L 386.55 357.15 L 387.81 354.48 L 389.07 358.91 L 390.33 355.29 L 391.60 356.62 L 392.86 356.64 L 394.12 360.59 L 395.38 362.21 L 396.64 362.62 L 397.90 362.51 L 399.17 362.47 L 400.43 362.52 L 401.69 362.43 L 402.95 362.45 L 404.21 362.44 L 405.48 362.45 L 406.74 362.44 L 408.00 362.44 L 409.26 362.47 L 410.52 362.48 L 411.79 362.48 L 413.05 362.44 L 414.31 362.44 L 415.57 362.48 L 416.83 362.47 L 418.10 362.47 L 419.36 362.45 L 420.62 362.49 L 421.88 362.44 L 423.14 362.49 L 424.40 362.45 L 425.67 362.42 L 426.93 362.45 L 428.19 362.46 L 429.45 362.50 L 430.71 362.54 L 431.98 362.50 L 433.24 362.44 L 434.50 362.46 L 435.76 362.49 L 437.02 362.46 L 438.29 362.46 L 439.55 362.47 L 440.81 362.49 L 442.07 362.46 L 443.33 362.44 L 444.60 362.48 L 445.86 362.45 L 447.12 362.39 L 448.38 362.44 L 449.64 362.41 L 450.90 362.47 L 452.17 362.45 L 453.43 362.43 L 454.69 362.48 L 455.95 362.41 L 457.21 362.44 L 458.48 362.43 L 459.74 362.52 L 461.00 362.44 L 462.26 362.47 L 463.52 362.46 L 464.79 362.52 L 466.05 362.44 L 467.31 362.50 L 468.57 362.38 L 469.83 362.43 L 471.10 362.47 L 472.36 362.46 L 473.62 362.48 L 474.88 362.41 L 476.14 362.43 L 477.40 362.49 L 478.67 362.44 L 479.93 362.46 L 481.19 362.42 L 482.45 362.48 L 483.71 362.45 L 484.98 362.45 L 486.24 362.45 L 487.50 362.48 L 488.76 362.44 L 490.02 362.43 L 491.29 362.47 L 492.55 362.51 L 493.81 362.49 L 495.07 362.45 L 496.33 362.47 L 497.60 362.46 L 498.86 362.49 L 500.12 362.47 L 501.38 362.39 L 502.64 362.44 L 503.90 362.37 L 505.17 362.47 L 506.43 362.48 L 507.69 362.43 L 508.95 362.48 L 510.21 362.46 L 511.48 362.43 L 512.74 362.38 L 514.00 362.44 L 515.26 362.47 L 516.52 362.44 L 517.79 362.43 L 519.05 362.49 L 520.31 362.49 L 521.57 362.50 L 522.83 362.42 L 524.10 362.47 L 525.36 362.45 L 526.62 362.46 L 527.88 362.43 L 529.14 362.51 L 530.40 362.46 L 531.67 362.50 L 532.93 362.48 L 534.19 362.49 L 535.45 362.39 L 536.71 362.53 L 537.98 362.46 L 539.24 362.46 L 540.50 362.44 L 541.76 362.47 L 543.02 362.49 L 544.29 362.45 L 545.55 362.45 L 546.81 362.48 L 548.07 362.49 L 549.33 362.48 L 550.60 362.51 L 551.86 362.51 L 553.12 362.55 L 554.38 362.46 L 555.64 362.42 L 556.90 362.43 L 558.17 362.48 L 559.43 362.43 L 560.69 362.44 L 561.95 362.44 L 563.21 362.46 L 564.48 362.52 L 565.74 362.43 L 567.00 362.43 L 568.26 362.60 L 569.52 362.51 L 570.79 362.50 L 572.05 362.39 L 573.31 362.77 L 574.57 362.52 L 575.83 362.50 L 577.10 362.23 L 578.36 351.94 L 579.62 360.83 L 580.88 359.47 L 582.14 365.87 L 583.40 361.91 L 584.67 364.61 L 585.93 366.85 L 587.19 370.68 L 588.45 371.27 L 589.71 368.33 L 590.98 372.71 L 592.24 371.48 L 593.50 371.11 L 594.76 373.10 L 596.02 370.16 L 597.29 381.35 L 598.55 373.09 L 599.81 380.05 L 601.07 378.33 L 602.33 379.60 L 603.60 383.20 L 604.86 376.47 L 606.12 380.34 L 607.38 380.99 L 608.64 374.95 L 609.90 377.29 L 611.17 377.00 L 612.43 370.66 L 613.69 372.13 L 614.95 369.26 L 616.21 371.00 L 617.48 367.10 L 618.74 364.83 L 620.00 363.65 L 621.26 370.79 L 622.52 369.25 L 623.79 364.98 L 625.05 363.43 L 626.31 360.68 L 627.57 358.81 L 628.83 358.97 L 630.10 359.34 L 631.36 359.32 L 632.62 359.13 L 633.88 359.17 L 635.14 359.19 L 636.40 359.22 L 637.67 359.18 L 638.93 359.20 L 640.19 359.19 L 641.45 359.19 L 642.71 359.17 L 643.98 359.16 L 645.24 359.13 L 646.50 359.12 L 647.76 359.12 L 649.02 359.09 L 650.29 359.08 L 651.55 359.58 L 652.81 358.50 L 654.07 358.03 L 655.33 358.46 L 656.60 358.39 L 657.86 358.37 L 659.12 358.33 L 660.38 358.35 L 661.64 358.34 L 662.90 358.29 L 664.17 358.35 L 665.43 358.32 L 666.69 358.25 L 667.95 358.29 L 669.21 358.22 L 670.48 358.21 L 671.74 358.28 L 673.00 358.23 L 674.26 358.24 L 675.52 358.24 L 676.79 358.22 L 678.05 358.25 L 679.31 358.22 L 680.57 358.18 L 681.83 358.21 L 683.10 358.19 L 684.36 358.45 L 685.62 358.12 L 686.88 358.10 L 688.14 357.51 L 689.40 358.00 L 690.67 357.75 L 691.93 357.73 L 693.19 357.82 L 694.45 357.68 L 695.71 357.80 L 696.98 357.76 L 698.24 357.77 L 699.50 357.79 L 700.76 357.79 L 702.02 357.73 L 703.29 357.70 L 704.55 357.69 L 705.81 357.67 L 707.07 357.70 L 708.33 357.68 L 709.60 357.72 L 710.86 357.65 L 712.12 357.79 L 713.38 357.69 L 714.64 358.32 L 715.90 358.42 L 717.17 358.36 L 718.43 358.49 L 719.69 358.39 L 720.95 358.42 L 722.21 358.39 L 723.48 358.42 L 724.74 358.47 L 726.00 358.46 L 727.26 358.51 L 728.52 358.50 L 729.79 358.51 L 731.05 358.54 L 732.31 358.52 L 733.57 358.52 L 734.83 358.46 L 736.10 358.58 L 737.36 358.74 L 738.62 358.78 L 739.88 358.84 L 741.14 358.59 L 742.40 358.78 L 743.67 358.71 L 744.93 358.76 L 746.19 358.69 L 747.45 358.72 L 748.71 358.72 L 749.98 358.72 L 751.24 358.76 L 752.50 358.75 L 753.76 358.73 L 755.02 358.77 L 756.29 358.75 L 757.55 358.78 L 758.81 358.73 L 760.07 358.73 L 761.33 358.78 L 762.60 358.95 L 763.86 358.98 L 765.12 359.48 L 766.38 359.78 L 767.64 360.26 L 768.90 359.99 L 770.17 359.99 L 771.43 360.03 L 772.69 368.57 L 773.95 364.14 L 775.21 367.18 L 776.48 363.30 L 777.74 374.80 L 779.00 370.65 L 780.26 366.51 L 781.52 368.79 L 782.79 388.38 L 784.05 373.30 L 785.31 378.31 L 786.57 375.12 L 787.83 372.49 L 789.10 365.34 L 790.36 370.79 L 791.62 374.42 L 792.88 372.29 L 794.14 373.47 L 795.40 373.93 L 796.67 361.37 L 797.93 357.86 L 799.19 365.77 L 800.45 365.60 L 801.71 357.87 L 802.98 374.95 L 804.24 369.81 L 805.50 369.64 L 806.76 373.05 L 808.02 364.61 L 809.29 354.84 L 810.55 355.02 L 811.81 361.40 L 813.07 361.15 L 814.33 365.25 L 815.60 364.43 L 816.86 368.80 L 818.12 369.35 L 819.38 368.12 L 820.64 367.34 L 821.90 369.78 L 823.17 373.31 L 824.43 373.31 L 825.69 373.01 L 826.95 369.63 L 828.21 364.50 L 829.48 368.42 L 830.74 365.96 L 832.00 372.69 L 833.26 374.72 L 834.52 374.20 L 835.79 372.00 L 837.05 367.52 L 838.31 367.81 L 839.57 369.96 L 840.83 366.90 L 842.10 365.97 L 843.36 371.56 L 844.62 380.02 L 845.88 382.02 L 847.14 374.96 L 848.40 375.53 L 849.67 377.27 L 850.93 372.82 L 852.19 375.52 L 853.45 372.25 L 854.71 376.80 L 855.98 373.94 L 857.24 372.62 L 858.50 372.70 L 859.76 365.46 L 861.02 368.70 L 862.29 368.50 L 863.55 370.92 L 864.81 373.33 L 866.07 366.86 L 867.33 370.28 L 868.60 364.81 L 869.86 372.58 L 871.12 369.04 L 872.38 367.54 L 873.64 369.80 L 874.90 366.71 L 876.17 368.61 L 877.43 368.24 L 878.69 365.92 L 879.95 364.68 L 881.21 371.42 L 882.48 371.31 L 883.74 365.25 L 885.00 364.20 L 886.26 371.56 L 887.52 375.96 L 888.79 371.16 L 890.05 372.10 L 891.31 376.52 L 892.57 373.58 L 893.83 379.71 L 895.10 376.35 L 896.36 375.80 L 897.62 371.62 L 898.88 366.22 L 900.14 366.61 L 901.40 371.32 L 902.67 380.20 L 903.93 381.02 L 905.19 378.75 L 906.45 378.16 L 907.71 382.40 L 908.98 383.09 L 910.24 382.13 L 911.50 382.87 L 912.76 383.66 L 914.02 383.44 L 915.29 383.24 L 916.55 375.59 L 917.81 383.38 L 919.07 383.64 L 920.33 385.32 L 921.60 386.76 L 922.86 386.36 L 924.12 385.62 L 925.38 385.12 L 926.64 386.65 L 927.90 387.05 L 929.17 388.46 L 930.43 387.95 L 931.69 388.44 L 932.95 390.49 L 934.21 392.44 L 935.48 391.49 L 936.74 391.22 L 938.00 392.94 L 939.26 393.29 L 940.52 393.73 L 941.79 394.98 L 943.05 390.46 L 944.31 389.60 L 945.57 395.13 L 946.83 398.70 L 948.10 399.91 L 949.36 401.02 L 950.62 401.02 L 951.88 401.43 L 953.14 402.19 L 954.40 400.40 L 955.67 400.01 L 956.93 398.99 L 958.19 399.15 L 959.45 397.60 L 960.71 397.65 L 961.98 397.25 L 963.24 397.07 L 964.50 395.40 L 965.76 395.01 L 967.02 394.21 L 968.29 392.88 L 969.55 396.64 L 970.81 396.91 L 972.07 395.04 L 973.33 396.38 L 974.60 395.15 L 975.86 394.63 L 977.12 393.34 L 978.38 388.63 L 979.64 387.21 L 980.90 385.41 L 982.17 387.06 L 983.43 387.75 L 984.69 385.52 L 985.95 383.94 L 987.21 384.92 L 988.48 378.95 L 989.74 376.04 L 991.00 381.04 L 992.26 375.38 L 993.52 374.52 L 994.79 373.59 L 996.05 376.45 L 997.31 374.02 L 998.57 374.58 L 999.83 374.17 L 1001.10 374.40 L 1002.36 368.82 L 1003.62 370.31 L 1004.88 372.51 L 1006.14 366.95 L 1007.40 365.37" stroke="#2E7D32" />
<path class="series" d="M 165.71 396.77 L 166.98 396.93 L 168.24 393.53 L 169.50 389.36 L 170.76 392.33 L 172.02 390.63 L 173.29 396.08 L 174.55 393.07 L 175.81 387.57 L 177.07 390.75 L 178.33 391.31 L 179.60 383.30 L 180.86 393.11 L 182.12 388.34 L 183.38 392.55 L 184.64 386.31 L 185.90 392.43 L 187.17 394.34 L 188.43 400.41 L 189.69 406.71 L 190.95 406.01 L 192.21 403.39 L 193.48 394.22 L 194.74 395.64 L 196.00 391.10 L 197.26 389.55 L 198.52 397.20 L 199.79 397.90 L 201.05 395.52 L 202.31 391.40 L 203.57 399.22 L 204.83 404.08 L 206.10 411.12 L 207.36 409.37 L 208.62 408.02 L 209.88 404.57 L 211.14 404.55 L 212.40 407.43 L 213.67 406.03 L 214.93 394.64 L 216.19 395.67 L 217.45 399.56 L 218.71 395.41 L 219.98 390.48 L 221.24 385.40 L 222.50 382.42 L 223.76 382.59 L 225.02 380.60 L 226.29 400.55 L 227.55 401.47 L 228.81 408.30 L 230.07 401.05 L 231.33 407.13 L 232.60 406.38 L 233.86 398.86 L 235.12 404.88 L 236.38 388.89 L 237.64 389.53 L 238.90 411.66 L 240.17 412.34 L 241.43 415.02 L 242.69 407.43 L 243.95 410.31 L 245.21 399.56 L 246.48 406.80 L 247.74 411.94 L 249.00 416.21 L 250.26 410.18 L 251.52 409.61 L 252.79 411.82 L 254.05 412.57 L 255.31 409.20 L 256.57 404.60 L 257.83 393.99 L 259.10 395.71 L 260.36 408.77 L 261.62 395.43 L 262.88 400.89 L 264.14 406.29 L 265.40 419.79 L 266.67 410.60 L 267.93 405.80 L 269.19 410.32 L 270.45 408.94 L 271.71 405.41 L 272.98 406.20 L 274.24 408.34 L 275.50 410.34 L 276.76 402.87 L 278.02 400.03 L 279.29 403.75 L 280.55 407.11 L 281.81 403.42 L 283.07 414.11 L 284.33 409.73 L 285.60 409.37 L 286.86 409.47 L 288.12 409.61 L 289.38 410.41 L 290.64 410.43 L 291.90 405.95 L 293.17 410.42 L 294.43 413.28 L 295.69 409.57 L 296.95 402.80 L 298.21 417.64 L 299.48 409.94 L 300.74 416.71 L 302.00 421.46 L 303.26 421.89 L 304.52 410.58 L 305.79 414.02 L 307.05 408.09 L 308.31 410.99 L 309.57 407.18 L 310.83 407.61 L 312.10 406.53 L 313.36 406.53 L 314.62 407.53 L 315.88 412.55 L 317.14 413.06 L 318.40 410.48 L 319.67 410.65 L 320.93 410.50 L 322.19 407.63 L 323.45 409.59 L 324.71 411.44 L 325.98 414.42 L 327.24 416.23 L 328.50 404.18 L 329.76 404.11 L 331.02 409.14 L 332.29 411.02 L 333.55 405.86 L 334.81 411.27 L 336.07 405.70 L 337.33 410.40 L 338.60 413.95 L 339.86 410.32 L 341.12 398.87 L 342.38 405.94 L 343.64 405.81 L 344.90 406.86 L 346.17 405.86 L 347.43 398.52 L 348.69 414.16 L 349.95 403.62 L 351.21 407.41 L 352.48 402.32 L 353.74 410.13 L 355.00 406.16 L 356.26 417.80 L 357.52 417.95 L 358.79 404.31 L 360.05 402.00 L 361.31 401.35 L 362.57 393.16 L 363.83 396.08 L 365.10 398.96 L 366.36 402.55 L 367.62 402.39 L 368.88 402.50 L 370.14 401.79 L 371.40 397.71 L 372.67 404.50 L 373.93 406.14 L 375.19 410.21 L 376.45 405.51 L 377.71 422.44 L 378.98 416.61 L 380.24 424.93 L 381.50 414.41 L 382.76 422.91 L 384.02 429.59 L 385.29 426.44 L 386.55 428.02 L 387.81 425.19 L 389.07 425.32 L 390.33 420.58 L 391.60 419.43 L 392.86 421.61 L 394.12 422.38 L 395.38 420.63 L 396.64 421.99 L 397.90 421.61 L 399.17 421.42 L 400.43 421.86 L 401.69 421.52 L 402.95 421.63 L 404.21 421.71 L 405.48 421.53 L 406.74 421.65 L 408.00 421.64 L 409.26 421.63 L 410.52 421.66 L 411.79 421.63 L 413.05 421.63 L 414.31 421.71 L 415.57 421.63 L 416.83 421.65 L 418.10 421.62 L 419.36 421.67 L 420.62 421.67 L 421.88 421.62 L 423.14 421.67 L 424.40 421.65 L 425.67 421.67 L 426.93 421.70 L 428.19 421.67 L 429.45 421.70 L 430.71 421.63 L 431.98 421.65 L 433.24 421.68 L 434.50 421.68 L 435.76 421.67 L 437.02 421.68 L 438.29 421.64 L 439.55 421.64 L 440.81 421.66 L 442.07 421.70 L 443.33 421.71 L 444.60 421.66 L 445.86 421.63 L 447.12 421.68 L 448.38 421.69 L 449.64 421.69 L 450.90 421.65 L 452.17 421.70 L 453.43 421.70 L 454.69 421.64 L 455.95 421.71 L 457.21 421.72 L 458.48 421.69 L 459.74 421.66 L 461.00 421.69 L 462.26 421.70 L 463.52 421.67 L 464.79 421.68 L 466.05 421.63 L 467.31 421.64 L 468.57 421.71 L 469.83 421.69 L 471.10 421.75 L 472.36 421.65 L 473.62 421.70 L 474.88 421.69 L 476.14 421.70 L 477.40 421.66 L 478.67 421.74 L 479.93 421.67 L 481.19 421.68 L 482.45 421.67 L 483.71 421.67 L 484.98 421.72 L 486.24 421.70 L 487.50 421.70 L 488.76 421.67 L 490.02 421.70 L 491.29 421.71 L 492.55 421.70 L 493.81 421.65 L 495.07 421.74 L 496.33 421.64 L 497.60 421.73 L 498.86 421.67 L 500.12 421.69 L 501.38 421.74 L 502.64 421.69 L 503.90 421.76 L 505.17 421.70 L 506.43 421.64 L 507.69 421.72 L 508.95 421.65 L 510.21 421.69 L 511.48 421.71 L 512.74 421.69 L 514.00 421.69 L 515.26 421.63 L 516.52 421.72 L 517.79 421.70 L 519.05 421.64 L 520.31 421.70 L 521.57 421.70 L 522.83 421.68 L 524.10 421.68 L 525.36 421.70 L 526.62 421.68 L 527.88 421.67 L 529.14 421.69 L 530.40 421.72 L 531.67 421.70 L 532.93 421.69 L 534.19 421.68 L 535.45 421.77 L 536.71 421.70 L 537.98 421.67 L 539.24 421.74 L 540.50 421.76 L 541.76 421.70 L 543.02 421.66 L 544.29 421.74 L 545.55 421.71 L 546.81 421.65 L 548.07 421.69 L 549.33 421.70 L 550.60 421.75 L 551.86 421.68 L 553.12 421.66 L 554.38 421.67 L 555.64 421.68 L 556.90 421.65 L 558.17 421.66 L 559.43 421.72 L 560.69 421.73 L 561.95 421.76 L 563.21 421.68 L 564.48 421.66 L 565.74 421.74 L 567.00 421.74 L 568.26 421.73 L 569.52 421.54 L 570.79 421.70 L 572.05 421.64 L 573.31 421.79 L 574.57 421.72 L 575.83 421.82 L 577.10 421.55 L 578.36 421.74 L 579.62 423.83 L 580.88 430.31 L 582.14 428.69 L 583.40 425.94 L 584.67 427.93 L 585.93 430.08 L 587.19 432.41 L 588.45 433.88 L 589.71 432.73 L 590.98 428.59 L 592.24 434.13 L 593.50 433.93 L 594.76 426.79 L 596.02 435.86 L 597.29 428.61 L 598.55 426.17 L 599.81 426.25 L 601.07 424.99 L 602.33 423.58 L 603.60 425.70 L 604.86 427.25 L 606.12 428.40 L 607.38 418.50 L 608.64 413.46 L 609.90 420.63 L 611.17 421.07 L 612.43 416.11 L 613.69 416.49 L 614.95 411.94 L 616.21 416.64 L 617.48 419.73 L 618.74 418.08 L 620.00 415.63 L 621.26 421.33 L 622.52 418.72 L 623.79 413.63 L 625.05 411.67 L 626.31 412.42 L 627.57 413.41 L 628.83 412.10 L 630.10 412.50 L 631.36 412.76 L 632.62 412.34 L 633.88 412.83 L 635.14 412.73 L 636.40 412.78 L 637.67 412.68 L 638.93 412.76 L 640.19 412.73 L 641.45 412.70 L 642.71 412.72 L 643.98 412.69 L 645.24 412.74 L 646.50 412.69 L 647.76 412.76 L 649.02 412.63 L 650.29 412.74 L 651.55 413.01 L 652.81 412.92 L 654.07 413.80 L 655.33 413.30 L 656.60 413.84 L 657.86 413.44 L 659.12 413.20 L 660.38 413.51 L 661.64 413.53 L 662.90 413.36 L 664.17 413.43 L 665.43 413.49 L 666.69 413.40 L 667.95 413.45 L 669.21 413.39 L 670.48 413.43 L 671.74 413.41 L 673.00 413.38 L 674.26 413.45 L 675.52 413.46 L 676.79 413.43 L 678.05 413.48 L 679.31 413.48 L 680.57 413.37 L 681.83 413.48 L 683.10 413.39 L 684.36 413.82 L 685.62 413.32 L 686.88 416.03 L 688.14 413.71 L 689.40 413.88 L 690.67 413.79 L 691.93 413.89 L 693.19 414.08 L 694.45 414.08 L 695.71 414.18 L 696.98 414.09 L 698.24 413.98 L 699.50 413.99 L 700.76 413.98 L 702.02 414.07 L 703.29 414.03 L 704.55 413.98 L 705.81 414.04 L 707.07 414.01 L 708.33 413.98 L 709.60 414.02 L 710.86 414.05 L 712.12 413.99 L 713.38 414.26 L 714.64 412.03 L 715.90 412.89 L 717.17 411.98 L 718.43 412.41 L 719.69 412.54 L 720.95 412.35 L 722.21 412.41 L 723.48 412.49 L 724.74 412.47 L 726.00 412.44 L 727.26 412.41 L 728.52 412.38 L 729.79 412.40 L 731.05 412.36 L 732.31 412.39 L 733.57 412.45 L 734.83 412.47 L 736.10 412.36 L 737.36 412.82 L 738.62 414.09 L 739.88 413.53 L 741.14 413.19 L 742.40 413.44 L 743.67 413.31 L 744.93 413.45 L 746.19 413.47 L 747.45 413.49 L 748.71 413.44 L 749.98 413.49 L 751.24 413.46 L 752.50 413.47 L 753.76 413.44 L 755.02 413.45 L 756.29 413.48 L 757.55 413.49 L 758.81 413.44 L 760.07 413.47 L 761.33 413.49 L 762.60 413.57 L 763.86 413.53 L 765.12 414.64 L 766.38 414.08 L 767.64 413.61 L 768.90 413.29 L 770.17 413.84 L 771.43 413.70 L 772.69 412.72 L 773.95 419.38 L 775.21 417.09 L 776.48 417.07 L 777.74 416.67 L 779.00 416.75 L 780.26 418.99 L 781.52 411.72 L 782.79 415.14 L 784.05 413.34 L 785.31 443.72 L 786.57 404.39 L 787.83 435.81 L 789.10 422.38 L 790.36 422.09 L 791.62 422.32 L 792.88 419.82 L 794.14 425.25 L 795.40 434.30 L 796.67 421.26 L 797.93 414.06 L 799.19 431.52 L 800.45 427.26 L 801.71 420.82 L 802.98 425.20 L 804.24 422.73 L 805.50 413.38 L 806.76 422.00 L 808.02 405.60 L 809.29 401.13 L 810.55 395.43 L 811.81 404.30 L 813.07 405.13 L 814.33 406.34 L 815.60 405.37 L 816.86 404.52 L 818.12 403.26 L 819.38 400.97 L 820.64 405.71 L 821.90 407.88 L 823.17 410.23 L 824.43 410.23 L 825.69 403.65 L 826.95 402.03 L 828.21 401.20 L 829.48 410.46 L 830.74 409.60 L 832.00 411.02 L 833.26 399.46 L 834.52 404.99 L 835.79 406.46 L 837.05 410.32 L 838.31 407.61 L 839.57 410.46 L 840.83 405.71 L 842.10 400.38 L 843.36 400.71 L 844.62 410.71 L 845.88 403.35 L 847.14 403.97 L 848.40 412.53 L 849.67 410.27 L 850.93 418.35 L 852.19 424.93 L 853.45 431.60 L 854.71 422.15 L 855.98 410.52 L 857.24 394.26 L 858.50 389.29 L 859.76 409.17 L 861.02 423.01 L 862.29 449.90 L 863.55 434.09 L 864.81 420.06 L 866.07 387.58 L 867.33 414.99 L 868.60 405.99 L 869.86 416.28 L 871.12 416.03 L 872.38 414.27 L 873.64 421.37 L 874.90 427.15 L 876.17 420.28 L 877.43 401.53 L 878.69 405.20 L 879.95 408.99 L 881.21 404.88 L 882.48 425.43 L 883.74 433.06 L 885.00 451.27 L 886.26 443.52 L 887.52 421.37 L 888.79 423.15 L 890.05 425.65 L 891.31 424.99 L 892.57 421.10 L 893.83 429.65 L 895.10 421.86 L 896.36 418.76 L 897.62 423.03 L 898.88 428.48 L 900.14 436.00 L 901.40 427.47 L 902.67 433.62 L 903.93 425.78 L 905.19 421.54 L 906.45 421.27 L 907.71 419.63 L 908.98 418.77 L 910.24 414.66 L 911.50 413.80 L 912.76 412.97 L 914.02 412.50 L 915.29 411.43 L 916.55 412.02 L 917.81 412.18 L 919.07 413.59 L 920.33 415.76 L 921.60 414.80 L 922.86 414.22 L 924.12 412.82 L 925.38 414.54 L 926.64 415.43 L 927.90 414.51 L 929.17 413.49 L 930.43 410.91 L 931.69 411.35 L 932.95 410.00 L 934.21 410.05 L 935.48 409.39 L 936.74 408.76 L 938.00 409.39 L 939.26 409.32 L 940.52 409.30 L 941.79 405.82 L 943.05 407.56 L 944.31 403.76 L 945.57 408.00 L 946.83 403.63 L 948.10 410.00 L 949.36 410.01 L 950.62 409.36 L 951.88 411.61 L 953.14 413.40 L 954.40 415.53 L 955.67 413.84 L 956.93 415.90 L 958.19 419.98 L 959.45 416.70 L 960.71 416.87 L 961.98 416.62 L 963.24 417.38 L 964.50 418.10 L 965.76 416.01 L 967.02 416.58 L 968.29 417.13 L 969.55 414.98 L 970.81 418.21 L 972.07 420.12 L 973.33 421.43 L 974.60 420.00 L 975.86 419.00 L 977.12 419.11 L 978.38 418.55 L 979.64 419.25 L 980.90 416.27 L 982.17 418.40 L 983.43 414.22 L 984.69 417.03 L 985.95 416.50 L 987.21 423.11 L 988.48 411.32 L 989.74 419.13 L 991.00 423.09 L 992.26 422.58 L 993.52 418.02 L 994.79 418.56 L 996.05 421.15 L 997.31 419.79 L 998.57 424.65 L 999.83 423.64 L 1001.10 420.85 L 1002.36 422.39 L 1003.62 421.57 L 1004.88 422.02 L 1006.14 419.82 L 1007.40 420.57" stroke="#6A1B9A" />
<line x1="900.00" y1="307.75" x2="918.00" y2="307.75" stroke="#2E7D32" stroke-width="3" />
<text class="small" x="924.00" y="311.75">pitch</text>
<line x1="900.00" y1="323.75" x2="918.00" y2="323.75" stroke="#6A1B9A" stroke-width="3" />
<text class="small" x="924.00" y="327.75">roll</text>
<text x="90" y="500.50" font-size="14" font-weight="700">Aceleração (magnitude) (u.a.)</text>
<rect class="event" x="392.86" y="506.50" width="387.40" height="192.75" />
<line class="eventline" x1="392.86" y1="506.50" x2="392.86" y2="699.25" />
<line class="eventline" x1="780.26" y1="506.50" x2="780.26" y2="699.25" />
<line class="grid" x1="90" y1="699.25" x2="1150" y2="699.25" />
<text class="small" x="80" y="703.25" text-anchor="end">0.00</text>
<line class="grid" x1="90" y1="660.70" x2="1150" y2="660.70" />
<text class="small" x="80" y="664.70" text-anchor="end">0.50</text>
<line class="grid" x1="90" y1="622.15" x2="1150" y2="622.15" />
<text class="small" x="80" y="626.15" text-anchor="end">1.00</text>
<line class="grid" x1="90" y1="583.60" x2="1150" y2="583.60" />
<text class="small" x="80" y="587.60" text-anchor="end">1.50</text>
<line class="grid" x1="90" y1="545.05" x2="1150" y2="545.05" />
<text class="small" x="80" y="549.05" text-anchor="end">2.00</text>
<line class="grid" x1="90" y1="506.50" x2="1150" y2="506.50" />
<text class="small" x="80" y="510.50" text-anchor="end">2.50</text>
<line class="grid" x1="90.00" y1="506.50" x2="90.00" y2="699.25" />
<line class="grid" x1="241.43" y1="506.50" x2="241.43" y2="699.25" />
<line class="grid" x1="392.86" y1="506.50" x2="392.86" y2="699.25" />
<line class="grid" x1="544.29" y1="506.50" x2="544.29" y2="699.25" />
<line class="grid" x1="695.71" y1="506.50" x2="695.71" y2="699.25" />
<line class="grid" x1="847.14" y1="506.50" x2="847.14" y2="699.25" />
<line class="grid" x1="998.57" y1="506.50" x2="998.57" y2="699.25" />
<line class="grid" x1="1150.00" y1="506.50" x2="1150.00" y2="699.25" />
<line class="axis" x1="90" y1="506.50" x2="90" y2="699.25" />
<line class="axis" x1="90" y1="699.25" x2="1150" y2="699.25" />
<path class="series" d="M 165.71 686.65 L 166.98 680.30 L 168.24 673.78 L 169.50 684.08 L 170.76 692.42 L 172.02 687.29 L 173.29 680.87 L 174.55 689.87 L 175.81 680.06 L 177.07 688.33 L 178.33 687.03 L 179.60 670.24 L 180.86 678.79 L 182.12 697.39 L 183.38 695.80 L 184.64 663.12 L 185.90 674.15 L 187.17 679.35 L 188.43 654.49 L 189.69 658.80 L 190.95 674.69 L 192.21 687.43 L 193.48 679.76 L 194.74 678.21 L 196.00 677.65 L 197.26 678.44 L 198.52 687.00 L 199.79 674.01 L 201.05 683.97 L 202.31 678.41 L 203.57 685.97 L 204.83 686.90 L 206.10 655.41 L 207.36 675.88 L 208.62 673.46 L 209.88 681.88 L 211.14 655.71 L 212.40 664.71 L 213.67 670.34 L 214.93 672.60 L 216.19 660.62 L 217.45 647.65 L 218.71 683.42 L 219.98 675.77 L 221.24 673.29 L 222.50 664.04 L 223.76 667.55 L 225.02 656.39 L 226.29 645.13 L 227.55 668.08 L 228.81 658.40 L 230.07 678.96 L 231.33 671.31 L 232.60 676.56 L 233.86 667.56 L 235.12 635.23 L 236.38 661.52 L 237.64 661.05 L 238.90 649.28 L 240.17 663.17 L 241.43 654.49 L 242.69 655.42 L 243.95 671.84 L 245.21 668.45 L 246.48 668.17 L 247.74 681.52 L 249.00 686.63 L 250.26 667.87 L 251.52 645.35 L 252.79 657.47 L 254.05 683.58 L 255.31 681.47 L 256.57 666.12 L 257.83 651.32 L 259.10 677.63 L 260.36 674.18 L 261.62 649.69 L 262.88 687.75 L 264.14 670.61 L 265.40 645.07 L 266.67 675.12 L 267.93 671.54 L 269.19 672.34 L 270.45 685.34 L 271.71 683.96 L 272.98 680.00 L 274.24 677.10 L 275.50 677.10 L 276.76 669.16 L 278.02 669.34 L 279.29 671.15 L 280.55 683.38 L 281.81 664.81 L 283.07 673.14 L 284.33 668.62 L 285.60 668.58 L 286.86 649.30 L 288.12 670.98 L 289.38 685.71 L 290.64 664.75 L 291.90 652.13 L 293.17 642.85 L 294.43 667.92 L 295.69 675.27 L 296.95 675.66 L 298.21 674.60 L 299.48 687.53 L 300.74 684.02 L 302.00 673.42 L 303.26 672.86 L 304.52 669.56 L 305.79 694.67 L 307.05 683.28 L 308.31 663.57 L 309.57 689.83 L 310.83 677.19 L 312.10 670.71 L 313.36 682.12 L 314.62 683.41 L 315.88 684.51 L 317.14 680.93 L 318.40 687.62 L 319.67 692.39 L 320.93 689.75 L 322.19 680.22 L 323.45 672.64 L 324.71 640.24 L 325.98 657.92 L 327.24 664.74 L 328.50 662.37 L 329.76 687.72 L 331.02 686.04 L 332.29 672.77 L 333.55 685.83 L 334.81 654.01 L 336.07 670.44 L 337.33 677.18 L 338.60 680.77 L 339.86 678.09 L 341.12 683.82 L 342.38 677.75 L 343.64 678.08 L 344.90 692.20 L 346.17 675.10 L 347.43 682.01 L 348.69 680.32 L 349.95 691.25 L 351.21 694.91 L 352.48 695.00 L 353.74 690.67 L 355.00 681.00 L 356.26 688.22 L 357.52 680.22 L 358.79 661.21 L 360.05 674.47 L 361.31 681.77 L 362.57 689.67 L 363.83 694.07 L 365.10 680.30 L 366.36 678.70 L 367.62 679.39 L 368.88 681.74 L 370.14 672.27 L 371.40 686.68 L 372.67 697.17 L 373.93 696.40 L 375.19 680.37 L 376.45 679.90 L 377.71 688.61 L 378.98 682.74 L 380.24 673.18 L 381.50 686.49 L 382.76 670.64 L 384.02 685.95 L 385.29 687.95 L 386.55 676.64 L 387.81 677.70 L 389.07 695.21 L 390.33 685.95 L 391.60 694.58 L 392.86 691.41 L 394.12 681.64 L 395.38 696.49 L 396.64 697.33 L 397.90 697.68 L 399.17 698.57 L 400.43 698.67 L 401.69 698.38 L 402.95 698.66 L 404.21 698.66 L 405.48 698.44 L 406.74 698.48 L 408.00 698.35 L 409.26 698.99 L 410.52 698.96 L 411.79 699.12 L 413.05 699.10 L 414.31 699.15 L 415.57 699.15 L 416.83 699.09 L 418.10 699.05 L 419.36 699.10 L 420.62 699.00 L 421.88 699.00 L 423.14 699.04 L 424.40 698.98 L 425.67 698.85 L 426.93 699.15 L 428.19 699.11 L 429.45 698.86 L 430.71 698.91 L 431.98 698.83 L 433.24 699.05 L 434.50 699.14 L 435.76 699.07 L 437.02 699.07 L 438.29 699.16 L 439.55 699.19 L 440.81 699.02 L 442.07 699.00 L 443.33 699.02 L 444.60 699.17 L 445.86 699.06 L 447.12 699.23 L 448.38 699.09 L 449.64 699.18 L 450.90 699.17 L 452.17 699.16 L 453.43 699.00 L 454.69 698.98 L 455.95 698.96 L 457.21 698.77 L 458.48 698.95 L 459.74 699.10 L 461.00 698.94 L 462.26 698.97 L 463.52 698.89 L 464.79 698.99 L 466.05 698.94 L 467.31 698.86 L 468.57 698.97 L 469.83 699.10 L 471.10 699.06 L 472.36 699.02 L 473.62 699.10 L 474.88 699.09 L 476.14 699.14 L 477.40 699.15 L 478.67 699.14 L 479.93 699.23 L 481.19 699.18 L 482.45 699.07 L 483.71 699.08 L 484.98 699.07 L 486.24 699.01 L 487.50 699.15 L 488.76 698.97 L 490.02 699.06 L 491.29 699.18 L 492.55 698.94 L 493.81 698.77 L 495.07 698.79 L 496.33 699.17 L 497.60 698.83 L 498.86 698.79 L 500.12 698.87 L 501.38 698.69 L 502.64 698.74 L 503.90 698.94 L 505.17 699.13 L 506.43 699.04 L 507.69 699.17 L 508.95 699.16 L 510.21 699.02 L 511.48 699.07 L 512.74 699.16 L 514.00 699.10 L 515.26 699.16 L 516.52 699.13 L 517.79 699.05 L 519.05 699.12 L 520.31 699.04 L 521.57 699.14 L 522.83 698.90 L 524.10 699.07 L 525.36 699.09 L 526.62 699.14 L 527.88 699.02 L 529.14 698.81 L 530.40 698.85 L 531.67 699.17 L 532.93 698.98 L 534.19 698.76 L 535.45 698.93 L 536.71 699.11 L 537.98 698.94 L 539.24 699.01 L 540.50 699.18 L 541.76 699.04 L 543.02 699.11 L 544.29 699.07 L 545.55 699.20 L 546.81 699.06 L 548.07 699.05 L 549.33 699.16 L 550.60 699.01 L 551.86 699.06 L 553.12 699.18 L 554.38 698.85 L 555.64 699.19 L 556.90 699.16 L 558.17 699.06 L 559.43 699.14 L 560.69 699.03 L 561.95 698.80 L 563.21 699.10 L 564.48 699.02 L 565.74 699.01 L 567.00 698.84 L 568.26 698.84 L 569.52 698.75 L 570.79 699.06 L 572.05 698.62 L 573.31 698.56 L 574.57 698.62 L 575.83 699.02 L 577.10 697.83 L 578.36 683.57 L 579.62 691.64 L 580.88 693.81 L 582.14 684.72 L 583.40 682.87 L 584.67 692.76 L 585.93 688.67 L 587.19 687.39 L 588.45 691.77 L 589.71 694.02 L 590.98 675.36 L 592.24 696.05 L 593.50 696.69 L 594.76 664.77 L 596.02 682.78 L 597.29 678.61 L 598.55 691.16 L 599.81 684.63 L 601.07 685.79 L 602.33 690.07 L 603.60 697.35 L 604.86 695.82 L 606.12 690.22 L 607.38 692.08 L 608.64 694.28 L 609.90 686.36 L 611.17 695.33 L 612.43 688.71 L 613.69 679.74 L 614.95 692.47 L 616.21 690.99 L 617.48 691.81 L 618.74 692.85 L 620.00 694.33 L 621.26 683.10 L 622.52 691.82 L 623.79 691.07 L 625.05 696.41 L 626.31 686.98 L 627.57 688.64 L 628.83 697.13 L 630.10 698.39 L 631.36 697.87 L 632.62 698.36 L 633.88 698.25 L 635.14 698.49 L 636.40 698.46 L 637.67 698.63 L 638.93 698.47 L 640.19 698.34 L 641.45 698.55 L 642.71 698.60 L 643.98 698.88 L 645.24 698.84 L 646.50 699.11 L 647.76 698.81 L 649.02 698.93 L 650.29 698.80 L 651.55 696.69 L 652.81 695.10 L 654.07 698.21 L 655.33 697.29 L 656.60 699.01 L 657.86 698.30 L 659.12 698.69 L 660.38 698.87 L 661.64 698.94 L 662.90 699.10 L 664.17 699.03 L 665.43 699.07 L 666.69 698.97 L 667.95 699.05 L 669.21 699.13 L 670.48 698.79 L 671.74 699.12 L 673.00 699.03 L 674.26 698.94 L 675.52 699.03 L 676.79 699.23 L 678.05 699.09 L 679.31 699.07 L 680.57 699.13 L 681.83 699.17 L 683.10 698.90 L 684.36 695.84 L 685.62 694.55 L 686.88 694.95 L 688.14 696.70 L 689.40 698.58 L 690.67 698.44 L 691.93 698.50 L 693.19 698.66 L 694.45 698.86 L 695.71 698.77 L 696.98 699.15 L 698.24 698.99 L 699.50 698.97 L 700.76 699.09 L 702.02 699.06 L 703.29 699.17 L 704.55 699.09 L 705.81 699.04 L 707.07 699.18 L 708.33 698.96 L 709.60 699.11 L 710.86 698.40 L 712.12 697.71 L 713.38 695.93 L 714.64 695.93 L 715.90 691.08 L 717.17 696.34 L 718.43 697.16 L 719.69 698.35 L 720.95 698.90 L 722.21 698.71 L 723.48 698.91 L 724.74 698.89 L 726.00 698.98 L 727.26 699.05 L 728.52 698.97 L 729.79 699.08 L 731.05 698.91 L 732.31 699.08 L 733.57 699.16 L 734.83 698.94 L 736.10 699.04 L 737.36 697.03 L 738.62 697.80 L 739.88 697.82 L 741.14 698.59 L 742.40 698.38 L 743.67 698.93 L 744.93 699.06 L 746.19 699.09 L 747.45 699.18 L 748.71 699.11 L 749.98 698.94 L 751.24 699.12 L 752.50 698.92 L 753.76 699.17 L 755.02 699.16 L 756.29 699.08 L 757.55 699.09 L 758.81 699.15 L 760.07 699.04 L 761.33 699.13 L 762.60 698.80 L 763.86 697.76 L 765.12 695.98 L 766.38 698.29 L 767.64 697.44 L 768.90 697.05 L 770.17 698.12 L 771.43 696.06 L 772.69 694.63 L 773.95 694.44 L 775.21 685.96 L 776.48 687.38 L 777.74 683.36 L 779.00 687.33 L 780.26 674.07 L 781.52 672.67 L 782.79 669.73 L 784.05 658.75 L 785.31 661.82 L 786.57 673.73 L 787.83 656.05 L 789.10 679.76 L 790.36 684.19 L 791.62 685.16 L 792.88 688.96 L 794.14 667.68 L 795.40 690.28 L 796.67 687.60 L 797.93 676.22 L 799.19 676.57 L 800.45 662.05 L 801.71 676.69 L 802.98 674.52 L 804.24 669.48 L 805.50 681.37 L 806.76 658.05 L 808.02 664.79 L 809.29 650.99 L 810.55 676.30 L 811.81 680.41 L 813.07 680.71 L 814.33 674.66 L 815.60 671.15 L 816.86 688.04 L 818.12 680.64 L 819.38 690.49 L 820.64 685.71 L 821.90 687.58 L 823.17 691.07 L 824.43 671.41 L 825.69 668.97 L 826.95 664.09 L 828.21 692.74 L 829.48 675.58 L 830.74 678.78 L 832.00 682.54 L 833.26 688.18 L 834.52 673.27 L 835.79 673.77 L 837.05 638.97 L 838.31 678.37 L 839.57 632.88 L 840.83 668.59 L 842.10 658.79 L 843.36 642.57 L 844.62 644.12 L 845.88 652.92 L 847.14 656.13 L 848.40 661.20 L 849.67 658.74 L 850.93 676.86 L 852.19 670.97 L 853.45 695.92 L 854.71 676.29 L 855.98 646.37 L 857.24 647.99 L 858.50 669.41 L 859.76 666.87 L 861.02 666.87 L 862.29 637.94 L 863.55 676.29 L 864.81 660.37 L 866.07 611.76 L 867.33 666.82 L 868.60 664.29 L 869.86 686.76 L 871.12 668.66 L 872.38 668.30 L 873.64 630.85 L 874.90 646.86 L 876.17 673.08 L 877.43 666.35 L 878.69 672.27 L 879.95 596.35 L 881.21 632.27 L 882.48 616.51 L 883.74 629.04 L 885.00 644.08 L 886.26 642.78 L 887.52 663.65 L 888.79 666.67 L 890.05 669.54 L 891.31 667.89 L 892.57 672.74 L 893.83 665.70 L 895.10 686.30 L 896.36 667.39 L 897.62 687.46 L 898.88 617.73 L 900.14 650.13 L 901.40 674.12 L 902.67 687.04 L 903.93 681.38 L 905.19 678.18 L 906.45 684.42 L 907.71 683.43 L 908.98 695.25 L 910.24 690.62 L 911.50 691.12 L 912.76 693.91 L 914.02 695.94 L 915.29 689.20 L 916.55 679.65 L 917.81 693.14 L 919.07 693.69 L 920.33 693.40 L 921.60 695.89 L 922.86 692.66 L 924.12 691.82 L 925.38 697.41 L 926.64 693.06 L 927.90 696.44 L 929.17 693.87 L 930.43 694.29 L 931.69 694.05 L 932.95 691.66 L 934.21 691.99 L 935.48 695.32 L 936.74 693.03 L 938.00 696.17 L 939.26 695.48 L 940.52 694.16 L 941.79 696.70 L 943.05 684.35 L 944.31 682.16 L 945.57 686.23 L 946.83 694.52 L 948.10 688.13 L 949.36 689.71 L 950.62 690.20 L 951.88 695.10 L 953.14 697.67 L 954.40 693.69 L 955.67 691.06 L 956.93 690.30 L 958.19 689.52 L 959.45 693.63 L 960.71 695.78 L 961.98 694.62 L 963.24 694.56 L 964.50 690.35 L 965.76 683.48 L 967.02 681.24 L 968.29 686.71 L 969.55 691.48 L 970.81 691.33 L 972.07 689.46 L 973.33 688.54 L 974.60 693.39 L 975.86 694.61 L 977.12 685.28 L 978.38 688.14 L 979.64 691.09 L 980.90 687.34 L 982.17 686.81 L 983.43 683.87 L 984.69 676.99 L 985.95 672.33 L 987.21 673.87 L 988.48 689.09 L 989.74 682.86 L 991.00 665.52 L 992.26 651.33 L 993.52 676.53 L 994.79 676.86 L 996.05 679.51 L 997.31 681.81 L 998.57 673.00 L 999.83 691.58 L 1001.10 686.58 L 1002.36 677.90 L 1003.62 692.43 L 1004.88 682.72 L 1006.14 692.35 L 1007.40 682.46" stroke="#FB8C00" />
<text x="90" y="711.25" font-size="14" font-weight="700">Giroscópio (magnitude) (u.a.)</text>
<rect class="event" x="392.86" y="717.25" width="387.40" height="192.75" />
<line class="eventline" x1="392.86" y1="717.25" x2="392.86" y2="910.00" />
<line class="eventline" x1="780.26" y1="717.25" x2="780.26" y2="910.00" />
<line class="grid" x1="90" y1="910.00" x2="1150" y2="910.00" />
<text class="small" x="80" y="914.00" text-anchor="end">0.00</text>
<line class="grid" x1="90" y1="871.45" x2="1150" y2="871.45" />
<text class="small" x="80" y="875.45" text-anchor="end">0.05</text>
<line class="grid" x1="90" y1="832.90" x2="1150" y2="832.90" />
<text class="small" x="80" y="836.90" text-anchor="end">0.10</text>
<line class="grid" x1="90" y1="794.35" x2="1150" y2="794.35" />
<text class="small" x="80" y="798.35" text-anchor="end">0.15</text>
<line class="grid" x1="90" y1="755.80" x2="1150" y2="755.80" />
<text class="small" x="80" y="759.80" text-anchor="end">0.20</text>
<line class="grid" x1="90" y1="717.25" x2="1150" y2="717.25" />
<text class="small" x="80" y="721.25" text-anchor="end">0.25</text>
<line class="grid" x1="90.00" y1="717.25" x2="90.00" y2="910.00" />
<line class="grid" x1="241.43" y1="717.25" x2="241.43" y2="910.00" />
<line class="grid" x1="392.86" y1="717.25" x2="392.86" y2="910.00" />
<line class="grid" x1="544.29" y1="717.25" x2="544.29" y2="910.00" />
<line class="grid" x1="695.71" y1="717.25" x2="695.71" y2="910.00" />
<line class="grid" x1="847.14" y1="717.25" x2="847.14" y2="910.00" />
<line class="grid" x1="998.57" y1="717.25" x2="998.57" y2="910.00" />
<line class="grid" x1="1150.00" y1="717.25" x2="1150.00" y2="910.00" />
<line class="axis" x1="90" y1="717.25" x2="90" y2="910.00" />
<line class="axis" x1="90" y1="910.00" x2="1150" y2="910.00" />
<path class="series" d="M 165.71 878.56 L 166.98 884.65 L 168.24 889.22 L 169.50 882.37 L 170.76 892.68 L 172.02 893.40 L 173.29 893.61 L 174.55 892.85 L 175.81 883.30 L 177.07 866.65 L 178.33 867.59 L 179.60 858.35 L 180.86 842.90 L 182.12 843.94 L 183.38 847.73 L 184.64 835.54 L 185.90 846.72 L 187.17 884.56 L 188.43 880.77 L 189.69 884.69 L 190.95 899.39 L 192.21 904.44 L 193.48 894.60 L 194.74 879.29 L 196.00 873.82 L 197.26 869.25 L 198.52 864.69 L 199.79 869.44 L 201.05 871.66 L 202.31 882.07 L 203.57 882.97 L 204.83 886.15 L 206.10 892.73 L 207.36 894.87 L 208.62 901.34 L 209.88 904.08 L 211.14 903.60 L 212.40 905.59 L 213.67 895.84 L 214.93 893.87 L 216.19 880.73 L 217.45 888.47 L 218.71 873.56 L 219.98 871.58 L 221.24 865.45 L 222.50 838.60 L 223.76 817.08 L 225.02 800.64 L 226.29 826.36 L 227.55 882.80 L 228.81 894.84 L 230.07 894.79 L 231.33 878.77 L 232.60 878.74 L 233.86 876.34 L 235.12 891.14 L 236.38 856.43 L 237.64 820.05 L 238.90 885.84 L 240.17 890.06 L 241.43 866.81 L 242.69 884.91 L 243.95 885.45 L 245.21 901.29 L 246.48 897.47 L 247.74 859.86 L 249.00 889.99 L 250.26 890.79 L 251.52 886.18 L 252.79 885.98 L 254.05 866.34 L 255.31 859.88 L 256.57 863.44 L 257.83 902.31 L 259.10 879.91 L 260.36 893.85 L 261.62 861.08 L 262.88 871.49 L 264.14 893.05 L 265.40 871.59 L 266.67 887.83 L 267.93 895.94 L 269.19 893.87 L 270.45 888.67 L 271.71 892.31 L 272.98 875.32 L 274.24 894.81 L 275.50 894.81 L 276.76 901.16 L 278.02 888.32 L 279.29 858.72 L 280.55 864.76 L 281.81 840.98 L 283.07 855.29 L 284.33 878.96 L 285.60 890.65 L 286.86 890.65 L 288.12 895.89 L 289.38 880.27 L 290.64 874.12 L 291.90 880.74 L 293.17 884.33 L 294.43 874.82 L 295.69 885.93 L 296.95 883.47 L 298.21 884.61 L 299.48 886.32 L 300.74 880.90 L 302.00 879.93 L 303.26 872.91 L 304.52 845.37 L 305.79 847.54 L 307.05 865.68 L 308.31 884.27 L 309.57 897.01 L 310.83 900.04 L 312.10 894.12 L 313.36 901.31 L 314.62 901.88 L 315.88 903.35 L 317.14 903.40 L 318.40 899.38 L 319.67 896.84 L 320.93 894.46 L 322.19 892.24 L 323.45 894.01 L 324.71 889.77 L 325.98 899.25 L 327.24 888.69 L 328.50 894.24 L 329.76 896.03 L 331.02 888.96 L 332.29 885.60 L 333.55 891.44 L 334.81 878.76 L 336.07 883.25 L 337.33 884.38 L 338.60 892.46 L 339.86 888.39 L 341.12 896.06 L 342.38 896.87 L 343.64 885.49 L 344.90 884.79 L 346.17 887.43 L 347.43 872.78 L 348.69 880.83 L 349.95 880.68 L 351.21 871.34 L 352.48 864.38 L 353.74 859.49 L 355.00 835.41 L 356.26 848.55 L 357.52 842.07 L 358.79 859.51 L 360.05 880.86 L 361.31 876.91 L 362.57 877.84 L 363.83 863.66 L 365.10 859.35 L 366.36 844.96 L 367.62 834.82 L 368.88 847.53 L 370.14 854.06 L 371.40 871.88 L 372.67 879.06 L 373.93 864.75 L 375.19 862.58 L 376.45 860.45 L 377.71 863.85 L 378.98 862.63 L 380.24 863.16 L 381.50 854.23 L 382.76 841.56 L 384.02 830.41 L 385.29 842.44 L 386.55 829.63 L 387.81 853.62 L 389.07 880.77 L 390.33 882.56 L 391.60 895.91 L 392.86 905.76 L 394.12 908.38 L 395.38 907.95 L 396.64 908.07 L 397.90 908.19 L 399.17 908.14 L 400.43 908.09 L 401.69 908.17 L 402.95 908.14 L 404.21 908.07 L 405.48 908.14 L 406.74 908.21 L 408.00 908.17 L 409.26 909.94 L 410.52 909.94 L 411.79 909.91 L 413.05 909.87 L 414.31 909.83 L 415.57 909.94 L 416.83 909.95 L 418.10 909.89 L 419.36 909.88 L 420.62 909.97 L 421.88 909.97 L 423.14 909.89 L 424.40 909.79 L 425.67 909.84 L 426.93 909.71 L 428.19 909.90 L 429.45 909.64 L 430.71 909.84 L 431.98 909.73 L 433.24 909.97 L 434.50 909.85 L 435.76 909.73 L 437.02 909.84 L 438.29 909.88 L 439.55 909.86 L 440.81 909.80 L 442.07 909.89 L 443.33 909.76 L 444.60 909.85 L 445.86 909.89 L 447.12 909.86 L 448.38 909.89 L 449.64 909.95 L 450.90 909.80 L 452.17 909.78 L 453.43 909.95 L 454.69 909.93 L 455.95 909.93 L 457.21 909.82 L 458.48 909.85 L 459.74 909.97 L 461.00 909.73 L 462.26 909.75 L 463.52 909.90 L 464.79 909.81 L 466.05 909.77 L 467.31 909.72 L 468.57 909.86 L 469.83 909.88 L 471.10 909.96 L 472.36 909.90 L 473.62 909.91 L 474.88 909.85 L 476.14 909.98 L 477.40 909.87 L 478.67 909.96 L 479.93 909.95 L 481.19 909.90 L 482.45 909.93 L 483.71 909.96 L 484.98 909.91 L 486.24 909.92 L 487.50 909.89 L 488.76 909.91 L 490.02 909.87 L 491.29 909.70 L 492.55 909.81 L 493.81 909.62 L 495.07 909.68 L 496.33 909.90 L 497.60 909.73 L 498.86 909.95 L 500.12 909.87 L 501.38 909.66 L 502.64 909.83 L 503.90 909.87 L 505.17 909.77 L 506.43 909.85 L 507.69 909.88 L 508.95 909.87 L 510.21 909.84 L 511.48 909.89 L 512.74 909.87 L 514.00 909.97 L 515.26 909.88 L 516.52 909.98 L 517.79 909.90 L 519.05 909.92 L 520.31 909.92 L 521.57 909.91 L 522.83 909.79 L 524.10 909.98 L 525.36 909.88 L 526.62 909.93 L 527.88 909.65 L 529.14 909.55 L 530.40 909.88 L 531.67 909.95 L 532.93 909.89 L 534.19 909.85 L 535.45 909.81 L 536.71 909.72 L 537.98 909.91 L 539.24 909.78 L 540.50 909.89 L 541.76 909.87 L 543.02 909.87 L 544.29 909.90 L 545.55 909.95 L 546.81 909.87 L 548.07 909.81 L 549.33 909.85 L 550.60 909.87 L 551.86 909.87 L 553.12 909.83 L 554.38 909.74 L 555.64 909.73 L 556.90 909.81 L 558.17 909.64 L 559.43 909.62 L 560.69 909.86 L 561.95 909.87 L 563.21 909.71 L 564.48 909.72 L 565.74 909.74 L 567.00 909.47 L 568.26 909.47 L 569.52 909.88 L 570.79 909.65 L 572.05 909.82 L 573.31 909.44 L 574.57 909.82 L 575.83 909.91 L 577.10 908.04 L 578.36 904.46 L 579.62 903.85 L 580.88 890.33 L 582.14 865.33 L 583.40 846.81 L 584.67 843.34 L 585.93 837.56 L 587.19 848.16 L 588.45 843.80 L 589.71 844.26 L 590.98 835.20 L 592.24 850.94 L 593.50 860.14 L 594.76 860.09 L 596.02 880.77 L 597.29 873.79 L 598.55 889.19 L 599.81 899.40 L 601.07 898.69 L 602.33 900.65 L 603.60 896.71 L 604.86 903.61 L 606.12 891.93 L 607.38 880.71 L 608.64 889.62 L 609.90 893.29 L 611.17 896.38 L 612.43 887.35 L 613.69 885.78 L 614.95 895.94 L 616.21 888.67 L 617.48 899.13 L 618.74 906.76 L 620.00 892.72 L 621.26 900.28 L 622.52 896.70 L 623.79 892.83 L 625.05 906.58 L 626.31 904.42 L 627.57 906.90 L 628.83 908.16 L 630.10 907.32 L 631.36 907.92 L 632.62 907.89 L 633.88 908.33 L 635.14 908.15 L 636.40 908.10 L 637.67 908.21 L 638.93 908.17 L 640.19 908.06 L 641.45 908.08 L 642.71 908.85 L 643.98 909.65 L 645.24 909.62 L 646.50 909.92 L 647.76 909.88 L 649.02 909.90 L 650.29 909.86 L 651.55 907.85 L 652.81 908.07 L 654.07 908.55 L 655.33 909.77 L 656.60 909.72 L 657.86 909.90 L 659.12 909.74 L 660.38 909.85 L 661.64 909.90 L 662.90 909.78 L 664.17 909.83 L 665.43 909.91 L 666.69 909.82 L 667.95 909.84 L 669.21 909.71 L 670.48 909.79 L 671.74 909.64 L 673.00 909.75 L 674.26 909.64 L 675.52 909.86 L 676.79 909.76 L 678.05 909.76 L 679.31 909.75 L 680.57 909.80 L 681.83 909.89 L 683.10 909.70 L 684.36 905.95 L 685.62 908.85 L 686.88 907.19 L 688.14 909.84 L 689.40 909.92 L 690.67 909.89 L 691.93 909.76 L 693.19 909.75 L 694.45 909.78 L 695.71 909.79 L 696.98 909.82 L 698.24 909.83 L 699.50 909.84 L 700.76 909.94 L 702.02 909.80 L 703.29 909.94 L 704.55 909.78 L 705.81 909.89 L 707.07 909.92 L 708.33 909.95 L 709.60 909.89 L 710.86 909.87 L 712.12 909.09 L 713.38 906.85 L 714.64 906.85 L 715.90 908.56 L 717.17 909.19 L 718.43 909.45 L 719.69 909.71 L 720.95 909.79 L 722.21 909.81 L 723.48 909.80 L 724.74 909.90 L 726.00 909.91 L 727.26 909.81 L 728.52 909.89 L 729.79 909.87 L 731.05 909.85 L 732.31 909.88 L 733.57 909.88 L 734.83 909.86 L 736.10 909.76 L 737.36 909.14 L 738.62 905.68 L 739.88 909.56 L 741.14 908.92 L 742.40 909.73 L 743.67 909.86 L 744.93 909.75 L 746.19 909.83 L 747.45 909.77 L 748.71 909.80 L 749.98 909.77 L 751.24 909.86 L 752.50 909.88 L 753.76 909.85 L 755.02 909.76 L 756.29 909.82 L 757.55 909.72 L 758.81 909.93 L 760.07 909.79 L 761.33 909.87 L 762.60 909.63 L 763.86 908.22 L 765.12 907.38 L 766.38 908.99 L 767.64 907.12 L 768.90 909.70 L 770.17 909.74 L 771.43 909.64 L 772.69 908.59 L 773.95 889.14 L 775.21 899.95 L 776.48 904.05 L 777.74 902.88 L 779.00 901.51 L 780.26 889.30 L 781.52 893.02 L 782.79 882.25 L 784.05 884.54 L 785.31 850.73 L 786.57 872.69 L 787.83 872.57 L 789.10 889.92 L 790.36 876.93 L 791.62 884.64 L 792.88 885.95 L 794.14 894.89 L 795.40 880.90 L 796.67 879.23 L 797.93 873.49 L 799.19 887.87 L 800.45 856.36 L 801.71 851.65 L 802.98 852.15 L 804.24 838.60 L 805.50 845.75 L 806.76 895.22 L 808.02 866.95 L 809.29 863.21 L 810.55 903.20 L 811.81 898.17 L 813.07 873.11 L 814.33 888.21 L 815.60 893.75 L 816.86 901.72 L 818.12 905.01 L 819.38 898.31 L 820.64 900.07 L 821.90 885.54 L 823.17 897.88 L 824.43 888.33 L 825.69 902.50 L 826.95 884.65 L 828.21 890.97 L 829.48 897.52 L 830.74 899.40 L 832.00 891.91 L 833.26 899.03 L 834.52 872.61 L 835.79 880.31 L 837.05 889.13 L 838.31 883.50 L 839.57 873.63 L 840.83 879.21 L 842.10 895.58 L 843.36 874.31 L 844.62 881.09 L 845.88 873.16 L 847.14 885.70 L 848.40 899.39 L 849.67 902.75 L 850.93 852.32 L 852.19 861.79 L 853.45 867.62 L 854.71 882.83 L 855.98 861.37 L 857.24 849.35 L 858.50 852.63 L 859.76 867.61 L 861.02 867.61 L 862.29 834.24 L 863.55 851.67 L 864.81 876.97 L 866.07 867.62 L 867.33 841.18 L 868.60 829.58 L 869.86 852.26 L 871.12 860.95 L 872.38 890.81 L 873.64 885.75 L 874.90 870.83 L 876.17 872.30 L 877.43 883.59 L 878.69 881.36 L 879.95 876.58 L 881.21 812.33 L 882.48 867.56 L 883.74 869.33 L 885.00 883.31 L 886.26 862.47 L 887.52 854.45 L 888.79 863.78 L 890.05 859.90 L 891.31 865.63 L 892.57 859.28 L 893.83 849.91 L 895.10 856.39 L 896.36 845.48 L 897.62 859.65 L 898.88 846.52 L 900.14 864.90 L 901.40 847.88 L 902.67 860.24 L 903.93 868.57 L 905.19 877.07 L 906.45 888.30 L 907.71 893.30 L 908.98 897.84 L 910.24 898.08 L 911.50 899.39 L 912.76 904.81 L 914.02 906.86 L 915.29 905.31 L 916.55 906.28 L 917.81 906.10 L 919.07 906.64 L 920.33 906.54 L 921.60 907.89 L 922.86 907.82 L 924.12 909.04 L 925.38 907.20 L 926.64 907.33 L 927.90 905.95 L 929.17 905.22 L 930.43 904.90 L 931.69 904.17 L 932.95 904.95 L 934.21 905.42 L 935.48 906.21 L 936.74 905.81 L 938.00 903.77 L 939.26 904.65 L 940.52 904.46 L 941.79 903.71 L 943.05 902.92 L 944.31 901.95 L 945.57 886.17 L 946.83 888.37 L 948.10 898.04 L 949.36 904.18 L 950.62 896.70 L 951.88 894.42 L 953.14 899.05 L 954.40 897.46 L 955.67 893.52 L 956.93 893.01 L 958.19 897.88 L 959.45 899.27 L 960.71 897.13 L 961.98 895.89 L 963.24 894.95 L 964.50 895.47 L 965.76 900.42 L 967.02 907.12 L 968.29 907.09 L 969.55 903.87 L 970.81 904.61 L 972.07 897.62 L 973.33 895.14 L 974.60 898.64 L 975.86 896.84 L 977.12 895.56 L 978.38 896.15 L 979.64 895.01 L 980.90 896.76 L 982.17 899.14 L 983.43 897.80 L 984.69 900.43 L 985.95 900.30 L 987.21 888.16 L 988.48 893.05 L 989.74 890.53 L 991.00 876.41 L 992.26 858.73 L 993.52 854.60 L 994.79 852.64 L 996.05 855.15 L 997.31 852.79 L 998.57 853.49 L 999.83 860.92 L 1001.10 875.71 L 1002.36 884.30 L 1003.62 893.93 L 1004.88 888.80 L 1006.14 880.98 L 1007.40 874.83" stroke="#E53935" />
<text x="620.00" y="952" font-size="15" text-anchor="middle">minutos (relativo ao início do evento)</text>
<text class="small" x="90.00" y="936" text-anchor="middle">-4.00</text>
<text class="small" x="241.43" y="936" text-anchor="middle">-2.00</text>
<text class="small" x="392.86" y="936" text-anchor="middle">0.00</text>
<text class="small" x="544.29" y="936" text-anchor="middle">2.00</text>
<text class="small" x="695.71" y="936" text-anchor="middle">4.00</text>
<text class="small" x="847.14" y="936" text-anchor="middle">6.00</text>
<text class="small" x="998.57" y="936" text-anchor="middle">8.00</text>
<text class="small" x="1150.00" y="936" text-anchor="middle">10.0</text>
</svg>