<?xml version="1.0" encoding="UTF-8"?>
<svg xmlns="http://www.w3.org/2000/svg" width="1180" height="980" viewBox="0 0 1180 980">
<style>
text { font-family: -apple-system, BlinkMacSystemFont, 'Segoe UI', Roboto, Helvetica, Arial, sans-serif; fill: #111; }
.small { font-size: 12px; fill: #222; }
.title { font-size: 18px; font-weight: 700; }
.axis { stroke: #111; stroke-width: 1.4; }
.grid { stroke: #E6E6E6; stroke-width: 1; }
.event { fill: #FFEB3B; fill-opacity: 0.18; }
.eventline { stroke: #F9A825; stroke-width: 1.2; stroke-dasharray: 4 3; }
.series { fill: none; stroke-width: 1.8; }
</style>
<text class="title" x="90" y="34">ciclo 8 — basculamento — 2025-12-12T20:46:14-03:00 → 2025-12-12T20:46:28-03:00 (span 14s, dur 15s)</text>
<text class="small" x="90" y="54">GPS: -11.692833,-47.165390  hotspot: -11.693,-47.165</text>
<text class="small" x="90" y="70">Janela: -3.00 → 3.23 min (relativo ao início do evento)</text>
<text x="90" y="79.00" font-size="14" font-weight="700">Velocidade (km/h)</text>
<rect class="event" x="443.33" y="85.00" width="20.61" height="192.75" />
<line class="eventline" x1="443.33" y1="85.00" x2="443.33" y2="277.75" />
<line class="eventline" x1="463.94" y1="85.00" x2="463.94" y2="277.75" />
<line class="grid" x1="90" y1="277.75" x2="1150" y2="277.75" />
<text class="small" x="80" y="281.75" text-anchor="end">0.00</text>
<line class="grid" x1="90" y1="239.20" x2="1150" y2="239.20" />
<text class="small" x="80" y="243.20" text-anchor="end">10.0</text>
<line class="grid" x1="90" y1="200.65" x2="1150" y2="200.65" />
<text class="small" x="80" y="204.65" text-anchor="end">20.0</text>
<line class="grid" x1="90" y1="162.10" x2="1150" y2="162.10" />
<text class="small" x="80" y="166.10" text-anchor="end">30.0</text>
<line class="grid" x1="90" y1="123.55" x2="1150" y2="123.55" />
<text class="small" x="80" y="127.55" text-anchor="end">40.0</text>
<line class="grid" x1="90" y1="85.00" x2="1150" y2="85.00" />
<text class="small" x="80" y="89.00" text-anchor="end">50.0</text>
<line class="grid" x1="90.00" y1="85.00" x2="90.00" y2="277.75" />
<line class="grid" x1="266.67" y1="85.00" x2="266.67" y2="277.75" />
<line class="grid" x1="443.33" y1="85.00" x2="443.33" y2="277.75" />
<line class="grid" x1="620.00" y1="85.00" x2="620.00" y2="277.75" />
<line class="grid" x1="796.67" y1="85.00" x2="796.67" y2="277.75" />
<line class="grid" x1="973.33" y1="85.00" x2="973.33" y2="277.75" />
<line class="grid" x1="1150.00" y1="85.00" x2="1150.00" y2="277.75" />
<line class="axis" x1="90" y1="85.00" x2="90" y2="277.75" />
<line class="axis" x1="90" y1="277.75" x2="1150" y2="277.75" />
<path class="series" d="M 178.33 243.61 L 179.81 248.74 L 181.28 244.72 L 182.75 244.44 L 184.22 245.83 L 185.69 246.80 L 187.17 245.00 L 188.64 245.41 L 190.11 246.66 L 191.58 246.11 L 193.06 247.08 L 194.53 248.61 L 196.00 248.88 L 197.47 248.74 L 198.94 249.44 L 200.42 250.83 L 201.89 249.30 L 203.36 250.69 L 204.83 247.91 L 206.31 251.52 L 207.78 247.50 L 209.25 246.66 L 210.72 246.52 L 212.19 243.89 L 213.67 243.61 L 215.14 245.14 L 216.61 245.14 L 218.08 245.83 L 219.56 248.05 L 221.03 245.41 L 222.50 245.28 L 223.97 245.14 L 225.44 244.72 L 226.92 245.28 L 228.39 247.08 L 229.86 246.11 L 231.33 245.97 L 232.81 246.80 L 234.28 246.39 L 235.75 246.25 L 237.22 245.69 L 238.69 245.69 L 240.17 244.17 L 241.64 242.64 L 243.11 244.72 L 244.58 245.14 L 246.06 244.86 L 247.53 245.69 L 249.00 242.36 L 250.47 241.81 L 251.94 240.42 L 253.42 235.98 L 254.89 231.12 L 256.36 229.32 L 257.83 224.87 L 259.31 217.94 L 260.78 215.30 L 262.25 213.08 L 263.72 216.13 L 265.19 214.61 L 266.67 215.85 L 268.14 216.55 L 269.61 217.80 L 271.08 216.55 L 272.56 216.96 L 274.03 216.13 L 275.50 216.96 L 276.97 215.30 L 278.44 215.30 L 279.92 210.30 L 281.39 211.14 L 282.86 211.00 L 284.33 210.58 L 285.81 214.74 L 287.28 216.27 L 288.75 222.65 L 290.22 224.46 L 291.69 229.18 L 293.17 233.48 L 294.64 234.03 L 296.11 234.59 L 297.58 236.81 L 299.06 234.87 L 300.53 235.56 L 302.00 236.95 L 303.47 240.00 L 304.94 234.73 L 306.42 235.98 L 307.89 240.28 L 309.36 229.18 L 310.83 230.43 L 312.31 230.70 L 313.78 227.23 L 315.25 221.68 L 316.72 225.01 L 318.19 222.24 L 319.67 225.15 L 321.14 221.82 L 322.61 220.85 L 324.08 222.79 L 325.56 220.99 L 327.03 225.01 L 328.50 225.71 L 329.97 225.57 L 331.44 225.57 L 332.92 232.23 L 334.39 239.72 L 335.86 239.31 L 337.33 245.69 L 338.81 245.55 L 340.28 247.08 L 341.75 244.44 L 343.22 244.44 L 344.69 243.89 L 346.17 241.25 L 347.64 236.67 L 349.11 232.51 L 350.58 252.49 L 352.06 251.66 L 353.53 260.12 L 355.00 265.95 L 356.47 271.78 L 357.94 273.45 L 359.42 277.75 L 360.89 277.75 L 362.36 277.75 L 363.83 277.75 L 365.31 267.34 L 366.78 265.26 L 368.25 264.01 L 369.72 260.12 L 371.19 262.76 L 372.67 264.98 L 374.14 269.01 L 375.61 270.67 L 377.08 277.75 L 378.56 277.75 L 380.03 277.75 L 381.50 277.75 L 382.97 277.75 L 384.44 277.75 L 385.92 277.75 L 387.39 277.75 L 388.86 277.75 L 390.33 277.75 L 391.81 277.75 L 393.28 277.75 L 394.75 277.75 L 396.22 277.75 L 397.69 277.75 L 399.17 277.75 L 400.64 277.75 L 402.11 277.75 L 403.58 277.75 L 405.06 277.75 L 406.53 277.75 L 408.00 277.75 L 409.47 277.75 L 410.94 277.75 L 412.42 277.75 L 413.89 277.75 L 415.36 277.75 L 416.83 277.75 L 418.31 277.75 L 419.78 277.75 L 421.25 277.75 L 422.72 277.75 L 424.19 277.75 L 425.67 277.75 L 427.14 277.75 L 428.61 277.75 L 430.08 277.75 L 431.56 277.75 L 433.03 277.75 L 434.50 277.75 L 435.97 267.34 L 437.44 260.26 L 438.92 256.38 L 440.39 260.26 L 441.86 264.43 L 443.33 277.75 L 444.81 277.75 L 446.28 277.75 L 447.75 277.75 L 449.22 277.75 L 450.69 277.75 L 452.17 277.75 L 453.64 277.75 L 455.11 277.75 L 456.58 277.75 L 458.06 277.75 L 459.53 277.75 L 461.00 277.75 L 462.47 277.75 L 463.94 277.75 L 465.42 269.98 L 466.89 268.17 L 468.36 264.29 L 469.83 260.54 L 471.31 259.01 L 472.78 263.46 L 474.25 256.66 L 475.72 254.85 L 477.19 252.21 L 478.67 245.69 L 480.14 240.42 L 481.61 232.65 L 483.08 236.67 L 484.56 232.37 L 486.03 245.00 L 487.50 257.21 L 488.97 272.75 L 490.44 277.75 L 491.92 277.75 L 493.39 277.75 L 494.86 277.75 L 496.33 277.75 L 497.81 267.20 L 499.28 262.90 L 500.75 263.18 L 502.22 262.62 L 503.69 268.04 L 505.17 270.12 L 506.64 271.78 L 508.11 277.75 L 509.58 277.75 L 511.06 263.32 L 512.53 258.60 L 514.00 256.52 L 515.47 250.13 L 516.94 237.78 L 518.42 234.45 L 519.89 235.56 L 521.36 238.34 L 522.83 238.61 L 524.31 234.87 L 525.78 243.33 L 527.25 248.47 L 528.72 258.60 L 530.19 260.68 L 531.67 257.49 L 533.14 252.63 L 534.61 252.63 L 536.08 249.58 L 537.56 241.94 L 539.03 238.34 L 540.50 240.14 L 541.97 234.17 L 543.44 231.54 L 544.92 225.71 L 546.39 222.52 L 547.86 225.57 L 549.33 225.85 L 550.81 224.60 L 552.28 225.01 L 553.75 225.57 L 555.22 226.54 L 556.69 225.15 L 558.17 217.94 L 559.64 212.94 L 561.11 206.69 L 562.58 200.45 L 564.06 191.43 L 565.53 188.10 L 567.00 189.90 L 568.47 191.85 L 569.94 190.18 L 571.42 185.18 L 572.89 178.80 L 574.36 176.16 L 575.83 171.58 L 577.31 166.73 L 578.78 164.51 L 580.25 160.90 L 581.72 172.00 L 583.19 171.31 L 584.67 171.86 L 586.14 175.33 L 587.61 173.11 L 589.08 175.19 L 590.56 177.69 L 592.03 181.71 L 593.50 182.96 L 594.97 184.77 L 596.44 184.49 L 597.92 182.96 L 599.39 182.41 L 600.86 181.16 L 602.33 179.49 L 603.81 176.44 L 605.28 169.36 L 606.75 163.67 L 608.22 160.76 L 609.69 163.26 L 611.17 164.37 L 612.64 165.20 L 614.11 159.23 L 615.58 156.73 L 617.06 153.13 L 618.53 157.01 L 620.00 159.65 L 621.47 161.04 L 622.94 163.40 L 624.42 163.67 L 625.89 160.20 L 627.36 163.40 L 628.83 163.53 L 630.31 164.64 L 631.78 164.51 L 633.25 167.42 L 634.72 167.28 L 636.19 169.09 L 637.67 170.75 L 639.14 169.78 L 640.61 167.56 L 642.08 159.09 L 643.56 152.15 L 645.03 146.74 L 646.50 142.16 L 647.97 141.47 L 649.44 138.83 L 650.92 138.14 L 652.39 141.61 L 653.86 145.77 L 655.33 157.15 L 656.81 166.73 L 658.28 172.55 L 659.75 173.39 L 661.22 172.28 L 662.69 171.31 L 664.17 172.55 L 665.64 173.80 L 667.11 173.80 L 668.58 175.61 L 670.06 177.69 L 671.53 178.38 L 673.00 181.02 L 674.47 182.27 L 675.94 184.07 L 677.42 185.04 L 678.89 186.85 L 680.36 184.49 L 681.83 181.44 L 683.31 183.66 L 684.78 181.58 L 686.25 180.88 L 687.72 179.77 L 689.19 178.52 L 690.67 177.27 L 692.14 174.08 L 693.61 174.22 L 695.08 172.55 L 696.56 169.09 L 698.03 169.92 L 699.50 169.92 L 700.97 170.06 L 702.44 171.72 L 703.92 173.53 L 705.39 177.13 L 706.86 187.40 L 708.33 191.85 L 709.81 186.99 L 711.28 190.04 L 712.75 194.20 L 714.22 209.33 L 715.69 219.18 L 717.17 216.55 L 718.64 210.86 L 720.11 212.52 L 721.58 194.90 L 723.06 199.48 L 724.53 198.23 L 726.00 195.73 L 727.47 194.62 L 728.94 185.18" stroke="#1976D2" />
<text x="90" y="289.75" font-size="14" font-weight="700">Inclinação (graus)</text>
<rect class="event" x="443.33" y="295.75" width="20.61" height="192.75" />
<line class="eventline" x1="443.33" y1="295.75" x2="443.33" y2="488.50" />
<line class="eventline" x1="463.94" y1="295.75" x2="463.94" y2="488.50" />
<line class="grid" x1="90" y1="488.50" x2="1150" y2="488.50" />
<text class="small" x="80" y="492.50" text-anchor="end">-20.0</text>
<line class="grid" x1="90" y1="449.95" x2="1150" y2="449.95" />
<text class="small" x="80" y="453.95" text-anchor="end">-10.0</text>
<line class="grid" x1="90" y1="411.40" x2="1150" y2="411.40" />
<text class="small" x="80" y="415.40" text-anchor="end">0.00</text>
<line class="grid" x1="90" y1="372.85" x2="1150" y2="372.85" />
<text class="small" x="80" y="376.85" text-anchor="end">10.0</text>
<line class="grid" x1="90" y1="334.30" x2="1150" y2="334.30" />
<text class="small" x="80" y="338.30" text-anchor="end">20.0</text>
<line class="grid" x1="90" y1="295.75" x2="1150" y2="295.75" />
<text class="small" x="80" y="299.75" text-anchor="end">30.0</text>
<line class="grid" x1="90.00" y1="295.75" x2="90.00" y2="488.50" />
<line class="grid" x1="266.67" y1="295.75" x2="266.67" y2="488.50" />
<line class="grid" x1="443.33" y1="295.75" x2="443.33" y2="488.50" />
<line class="grid" x1="620.00" y1="295.75" x2="620.00" y2="488.50" />
<line class="grid" x1="796.67" y1="295.75" x2="796.67" y2="488.50" />
<line class="grid" x1="973.33" y1="295.75" x2="973.33" y2="488.50" />
<line class="grid" x1="1150.00" y1="295.75" x2="1150.00" y2="488.50" />
<line class="axis" x1="90" y1="295.75" x2="90" y2="488.50" />
<line class="axis" x1="90" y1="488.50" x2="1150" y2="488.50" />
<path class="series" d="M 178.33 384.98 L 179.81 386.11 L 181.28 384.88 L 182.75 385.19 L 184.22 387.56 L 185.69 389.62 L 187.17 388.94 L 188.64 389.06 L 190.11 390.11 L 191.58 390.96 L 193.06 394.93 L 194.53 394.78 L 196.00 395.92 L 197.47 399.31 L 198.94 397.56 L 200.42 396.89 L 201.89 395.74 L 203.36 395.06 L 204.83 395.13 L 206.31 393.63 L 207.78 392.79 L 209.25 392.81 L 210.72 392.06 L 212.19 390.56 L 213.67 391.20 L 215.14 390.13 L 216.61 386.64 L 218.08 389.05 L 219.56 388.55 L 221.03 389.56 L 222.50 391.50 L 223.97 392.25 L 225.44 393.38 L 226.92 392.07 L 228.39 396.37 L 229.86 393.53 L 231.33 393.25 L 232.81 393.74 L 234.28 394.43 L 235.75 393.72 L 237.22 393.62 L 238.69 391.00 L 240.17 383.71 L 241.64 385.38 L 243.11 390.72 L 244.58 386.56 L 246.06 384.59 L 247.53 385.86 L 249.00 379.93 L 250.47 377.02 L 251.94 379.27 L 253.42 377.19 L 254.89 367.79 L 256.36 372.62 L 257.83 376.50 L 259.31 370.63 L 260.78 367.12 L 262.25 368.33 L 263.72 366.67 L 265.19 364.80 L 266.67 367.95 L 268.14 372.57 L 269.61 375.32 L 271.08 373.21 L 272.56 375.37 L 274.03 375.31 L 275.50 373.49 L 276.97 373.34 L 278.44 371.38 L 279.92 368.83 L 281.39 373.99 L 282.86 378.23 L 284.33 379.03 L 285.81 378.65 L 287.28 382.55 L 288.75 381.02 L 290.22 382.97 L 291.69 379.27 L 293.17 383.89 L 294.64 385.00 L 296.11 386.16 L 297.58 384.00 L 299.06 385.81 L 300.53 385.42 L 302.00 382.99 L 303.47 386.30 L 304.94 384.31 L 306.42 380.37 L 307.89 380.37 L 309.36 378.24 L 310.83 376.24 L 312.31 369.00 L 313.78 372.17 L 315.25 373.03 L 316.72 362.22 L 318.19 367.51 L 319.67 359.78 L 321.14 359.56 L 322.61 360.61 L 324.08 357.20 L 325.56 362.78 L 327.03 365.44 L 328.50 372.03 L 329.97 371.76 L 331.44 366.16 L 332.92 362.50 L 334.39 362.86 L 335.86 366.75 L 337.33 364.64 L 338.81 367.83 L 340.28 367.08 L 341.75 369.17 L 343.22 368.28 L 344.69 376.04 L 346.17 374.46 L 347.64 366.40 L 349.11 353.90 L 350.58 344.13 L 352.06 347.63 L 353.53 350.58 L 355.00 356.45 L 356.47 361.63 L 357.94 362.13 L 359.42 363.16 L 360.89 362.72 L 362.36 362.64 L 363.83 360.34 L 365.31 363.99 L 366.78 365.96 L 368.25 365.76 L 369.72 366.50 L 371.19 372.28 L 372.67 370.68 L 374.14 373.23 L 375.61 372.43 L 377.08 377.33 L 378.56 368.57 L 380.03 371.69 L 381.50 368.87 L 382.97 367.00 L 384.44 367.72 L 385.92 368.76 L 387.39 368.74 L 388.86 368.67 L 390.33 368.46 L 391.81 368.47 L 393.28 368.71 L 394.75 368.86 L 396.22 367.66 L 397.69 367.85 L 399.17 368.07 L 400.64 368.14 L 402.11 367.93 L 403.58 367.66 L 405.06 368.19 L 406.53 368.59 L 408.00 368.19 L 409.47 367.85 L 410.94 367.91 L 412.42 368.31 L 413.89 368.35 L 415.36 368.33 L 416.83 368.48 L 418.31 368.72 L 419.78 368.83 L 421.25 368.85 L 422.72 369.16 L 424.19 369.02 L 425.67 369.60 L 427.14 369.79 L 428.61 369.82 L 430.08 369.95 L 431.56 370.67 L 433.03 371.17 L 434.50 386.52 L 435.97 393.50 L 437.44 373.19 L 438.92 368.61 L 440.39 363.67 L 441.86 347.75 L 443.33 366.31 L 444.81 372.56 L 446.28 371.83 L 447.75 371.65 L 449.22 371.72 L 450.69 370.87 L 452.17 370.34 L 453.64 370.45 L 455.11 370.47 L 456.58 369.68 L 458.06 369.91 L 459.53 369.76 L 461.00 369.64 L 462.47 369.44 L 463.94 381.56 L 465.42 368.80 L 466.89 369.76 L 468.36 373.08 L 469.83 365.68 L 471.31 358.75 L 472.78 367.03 L 474.25 364.53 L 475.72 374.51 L 477.19 361.55 L 478.67 360.76 L 480.14 369.76 L 481.61 365.57 L 483.08 358.52 L 484.56 350.77 L 486.03 349.71 L 487.50 338.80 L 488.97 364.15 L 490.44 373.85 L 491.92 371.43 L 493.39 357.07 L 494.86 369.04 L 496.33 366.31 L 497.81 370.65 L 499.28 370.22 L 500.75 369.71 L 502.22 376.45 L 503.69 374.18 L 505.17 374.00 L 506.64 387.53 L 508.11 379.63 L 509.58 385.63 L 511.06 377.78 L 512.53 374.43 L 514.00 379.06 L 515.47 380.80 L 516.94 375.45 L 518.42 372.99 L 519.89 371.00 L 521.36 367.93 L 522.83 375.96 L 524.31 355.82 L 525.78 354.17 L 527.25 345.62 L 528.72 360.20 L 530.19 369.24 L 531.67 367.36 L 533.14 363.71 L 534.61 368.28 L 536.08 376.20 L 537.56 370.09 L 539.03 366.12 L 540.50 366.16 L 541.97 362.33 L 543.44 370.90 L 544.92 366.92 L 546.39 353.32 L 547.86 359.50 L 549.33 360.85 L 550.81 368.31 L 552.28 368.38 L 553.75 373.52 L 555.22 373.45 L 556.69 388.40 L 558.17 385.42 L 559.64 379.48 L 561.11 380.44 L 562.58 381.55 L 564.06 365.83 L 565.53 354.74 L 567.00 349.57 L 568.47 351.26 L 569.94 352.57 L 571.42 350.64 L 572.89 354.59 L 574.36 354.77 L 575.83 357.25 L 577.31 356.92 L 578.78 359.99 L 580.25 353.18 L 581.72 353.27 L 583.19 353.79 L 584.67 364.37 L 586.14 360.79 L 587.61 358.78 L 589.08 363.75 L 590.56 355.92 L 592.03 365.50 L 593.50 366.56 L 594.97 371.75 L 596.44 360.90 L 597.92 357.83 L 599.39 358.51 L 600.86 360.79 L 602.33 356.73 L 603.81 356.73 L 605.28 357.25 L 606.75 353.23 L 608.22 343.50 L 609.69 346.78 L 611.17 346.84 L 612.64 345.17 L 614.11 349.79 L 615.58 344.65 L 617.06 345.69 L 618.53 342.83 L 620.00 347.23 L 621.47 341.88 L 622.94 342.32 L 624.42 340.62 L 625.89 343.58 L 627.36 343.54 L 628.83 344.22 L 630.31 342.27 L 631.78 343.08 L 633.25 343.37 L 634.72 338.95 L 636.19 345.42 L 637.67 342.12 L 639.14 345.19 L 640.61 351.79 L 642.08 356.64 L 643.56 354.56 L 645.03 348.51 L 646.50 348.65 L 647.97 348.18 L 649.44 347.61 L 650.92 342.67 L 652.39 338.47 L 653.86 332.95 L 655.33 328.65 L 656.81 330.58 L 658.28 339.47 L 659.75 342.23 L 661.22 339.97 L 662.69 342.77 L 664.17 344.11 L 665.64 342.41 L 667.11 342.87 L 668.58 342.84 L 670.06 345.70 L 671.53 342.75 L 673.00 344.35 L 674.47 344.39 L 675.94 344.32 L 677.42 344.63 L 678.89 343.38 L 680.36 345.51 L 681.83 343.88 L 683.31 344.79 L 684.78 342.89 L 686.25 344.08 L 687.72 342.67 L 689.19 344.71 L 690.67 341.77 L 692.14 342.17 L 693.61 342.87 L 695.08 346.61 L 696.56 347.32 L 698.03 339.60 L 699.50 342.59 L 700.97 343.51 L 702.44 345.24 L 703.92 345.30 L 705.39 344.93 L 706.86 344.21 L 708.33 351.90 L 709.81 342.35 L 711.28 342.52 L 712.75 339.96 L 714.22 339.97 L 715.69 359.00 L 717.17 370.89 L 718.64 377.07 L 720.11 367.94 L 721.58 355.82 L 723.06 354.36 L 724.53 373.53 L 726.00 375.19 L 727.47 381.09 L 728.94 381.74" stroke="#2E7D32" />
<path class="series" d="M 178.33 400.90 L 179.81 402.88 L 181.28 402.07 L 182.75 402.11 L 184.22 398.61 L 185.69 404.01 L 187.17 400.05 L 188.64 402.16 L 190.11 405.76 L 191.58 404.27 L 193.06 406.33 L 194.53 406.63 L 196.00 405.69 L 197.47 408.40 L 198.94 406.81 L 200.42 406.33 L 201.89 403.35 L 203.36 402.34 L 204.83 404.02 L 206.31 407.42 L 207.78 404.81 L 209.25 409.86 L 210.72 404.84 L 212.19 402.07 L 213.67 400.52 L 215.14 405.49 L 216.61 403.17 L 218.08 407.57 L 219.56 403.96 L 221.03 404.84 L 222.50 404.56 L 223.97 407.47 L 225.44 408.59 L 226.92 406.65 L 228.39 407.67 L 229.86 408.75 L 231.33 409.04 L 232.81 407.82 L 234.28 412.60 L 235.75 412.51 L 237.22 413.88 L 238.69 419.02 L 240.17 409.11 L 241.64 420.93 L 243.11 416.75 L 244.58 419.49 L 246.06 415.76 L 247.53 416.77 L 249.00 413.20 L 250.47 415.87 L 251.94 406.36 L 253.42 415.87 L 254.89 404.93 L 256.36 410.01 L 257.83 417.56 L 259.31 415.94 L 260.78 413.37 L 262.25 405.35 L 263.72 405.43 L 265.19 408.20 L 266.67 411.18 L 268.14 407.07 L 269.61 413.03 L 271.08 408.56 L 272.56 420.54 L 274.03 417.94 L 275.50 420.41 L 276.97 420.25 L 278.44 427.04 L 279.92 429.11 L 281.39 426.07 L 282.86 426.90 L 284.33 421.17 L 285.81 416.28 L 287.28 418.56 L 288.75 406.67 L 290.22 419.64 L 291.69 413.60 L 293.17 412.86 L 294.64 414.64 L 296.11 408.74 L 297.58 405.26 L 299.06 405.60 L 300.53 407.41 L 302.00 398.04 L 303.47 399.17 L 304.94 395.13 L 306.42 391.55 L 307.89 391.55 L 309.36 397.80 L 310.83 383.08 L 312.31 397.24 L 313.78 409.37 L 315.25 415.00 L 316.72 411.35 L 318.19 412.37 L 319.67 409.33 L 321.14 405.39 L 322.61 403.67 L 324.08 395.79 L 325.56 398.63 L 327.03 395.72 L 328.50 389.39 L 329.97 397.30 L 331.44 396.75 L 332.92 398.36 L 334.39 396.20 L 335.86 405.67 L 337.33 408.17 L 338.81 402.94 L 340.28 409.23 L 341.75 405.30 L 343.22 405.48 L 344.69 417.19 L 346.17 426.75 L 347.64 445.06 L 349.11 439.22 L 350.58 428.52 L 352.06 424.13 L 353.53 413.98 L 355.00 412.01 L 356.47 416.91 L 357.94 416.73 L 359.42 417.36 L 360.89 416.71 L 362.36 420.12 L 363.83 423.42 L 365.31 421.34 L 366.78 421.07 L 368.25 414.60 L 369.72 413.72 L 371.19 418.39 L 372.67 419.74 L 374.14 415.97 L 375.61 418.83 L 377.08 420.34 L 378.56 418.68 L 380.03 419.37 L 381.50 420.55 L 382.97 419.99 L 384.44 419.49 L 385.92 419.75 L 387.39 420.17 L 388.86 420.00 L 390.33 419.96 L 391.81 420.05 L 393.28 420.14 L 394.75 420.23 L 396.22 419.58 L 397.69 420.34 L 399.17 419.97 L 400.64 419.91 L 402.11 420.22 L 403.58 419.66 L 405.06 420.30 L 406.53 420.03 L 408.00 420.18 L 409.47 420.04 L 410.94 419.88 L 412.42 420.08 L 413.89 420.04 L 415.36 420.05 L 416.83 420.16 L 418.31 419.95 L 419.78 420.11 L 421.25 420.10 L 422.72 420.16 L 424.19 420.15 L 425.67 420.46 L 427.14 420.56 L 428.61 420.07 L 430.08 420.19 L 431.56 420.60 L 433.03 420.20 L 434.50 419.74 L 435.97 415.40 L 437.44 420.15 L 438.92 417.05 L 440.39 420.73 L 441.86 419.23 L 443.33 420.22 L 444.81 420.82 L 446.28 418.38 L 447.75 420.48 L 449.22 418.40 L 450.69 417.23 L 452.17 418.38 L 453.64 419.67 L 455.11 419.47 L 456.58 418.38 L 458.06 419.21 L 459.53 418.86 L 461.00 418.86 L 462.47 418.38 L 463.94 413.24 L 465.42 413.65 L 466.89 413.55 L 468.36 409.67 L 469.83 412.90 L 471.31 424.87 L 472.78 419.38 L 474.25 423.44 L 475.72 432.72 L 477.19 432.69 L 478.67 428.43 L 480.14 438.84 L 481.61 442.15 L 483.08 436.12 L 484.56 426.53 L 486.03 415.45 L 487.50 398.88 L 488.97 412.59 L 490.44 415.17 L 491.92 414.35 L 493.39 415.82 L 494.86 419.54 L 496.33 421.76 L 497.81 417.41 L 499.28 414.00 L 500.75 414.02 L 502.22 409.70 L 503.69 411.56 L 505.17 411.29 L 506.64 416.05 L 508.11 413.03 L 509.58 418.47 L 511.06 425.42 L 512.53 421.08 L 514.00 423.44 L 515.47 429.61 L 516.94 426.70 L 518.42 401.52 L 519.89 406.98 L 521.36 404.81 L 522.83 401.83 L 524.31 405.04 L 525.78 408.67 L 527.25 408.84 L 528.72 412.24 L 530.19 408.12 L 531.67 405.84 L 533.14 408.75 L 534.61 407.25 L 536.08 409.69 L 537.56 413.45 L 539.03 408.87 L 540.50 413.23 L 541.97 418.91 L 543.44 430.40 L 544.92 430.24 L 546.39 427.54 L 547.86 426.54 L 549.33 422.03 L 550.81 419.88 L 552.28 418.06 L 553.75 408.49 L 555.22 411.32 L 556.69 414.67 L 558.17 411.74 L 559.64 413.79 L 561.11 412.70 L 562.58 396.74 L 564.06 377.04 L 565.53 394.18 L 567.00 386.87 L 568.47 394.33 L 569.94 403.15 L 571.42 391.79 L 572.89 392.74 L 574.36 394.17 L 575.83 416.84 L 577.31 415.49 L 578.78 406.98 L 580.25 370.47 L 581.72 373.04 L 583.19 394.11 L 584.67 393.19 L 586.14 408.32 L 587.61 415.99 L 589.08 414.72 L 590.56 411.64 L 592.03 413.44 L 593.50 403.73 L 594.97 395.29 L 596.44 393.88 L 597.92 410.15 L 599.39 400.38 L 600.86 398.72 L 602.33 409.62 L 603.81 409.62 L 605.28 407.25 L 606.75 408.00 L 608.22 407.25 L 609.69 406.12 L 611.17 407.10 L 612.64 418.22 L 614.11 407.75 L 615.58 410.54 L 617.06 419.77 L 618.53 419.58 L 620.00 423.19 L 621.47 413.79 L 622.94 405.70 L 624.42 396.38 L 625.89 401.78 L 627.36 405.78 L 628.83 419.75 L 630.31 411.72 L 631.78 414.29 L 633.25 416.12 L 634.72 422.83 L 636.19 423.99 L 637.67 413.24 L 639.14 415.83 L 640.61 414.83 L 642.08 408.71 L 643.56 410.82 L 645.03 404.98 L 646.50 407.19 L 647.97 406.66 L 649.44 404.51 L 650.92 411.78 L 652.39 412.32 L 653.86 416.39 L 655.33 419.87 L 656.81 419.47 L 658.28 417.39 L 659.75 417.41 L 661.22 417.66 L 662.69 407.59 L 664.17 412.48 L 665.64 410.16 L 667.11 408.28 L 668.58 412.09 L 670.06 412.73 L 671.53 409.79 L 673.00 412.36 L 674.47 407.71 L 675.94 405.65 L 677.42 404.03 L 678.89 405.42 L 680.36 405.18 L 681.83 406.18 L 683.31 405.83 L 684.78 404.86 L 686.25 408.24 L 687.72 406.41 L 689.19 407.27 L 690.67 400.11 L 692.14 404.23 L 693.61 406.35 L 695.08 410.86 L 696.56 413.20 L 698.03 416.80 L 699.50 415.57 L 700.97 426.50 L 702.44 435.33 L 703.92 448.91 L 705.39 436.79 L 706.86 433.86 L 708.33 443.99 L 709.81 450.43 L 711.28 427.31 L 712.75 402.27 L 714.22 386.11 L 715.69 394.67 L 717.17 394.81 L 718.64 381.77 L 720.11 376.57 L 721.58 370.20 L 723.06 369.38 L 724.53 416.78 L 726.00 410.86 L 727.47 422.72 L 728.94 410.27" stroke="#6A1B9A" />
<line x1="900.00" y1="307.75" x2="918.00" y2="307.75" stroke="#2E7D32" stroke-width="3" />
<text class="small" x="924.00" y="311.75">pitch</text>
<line x1="900.00" y1="323.75" x2="918.00" y2="323.75" stroke="#6A1B9A" stroke-width="3" />
<text class="small" x="924.00" y="327.75">roll</text>
<text x="90" y="500.50" font-size="14" font-weight="700">Aceleração (magnitude) (u.a.)</text>
<rect class="event" x="443.33" y="506.50" width="20.61" height="192.75" />
<line class="eventline" x1="443.33" y1="506.50" x2="443.33" y2="699.25" />
<line class="eventline" x1="463.94" y1="506.50" x2="463.94" y2="699.25" />
<line class="grid" x1="90" y1="699.25" x2="1150" y2="699.25" />
<text class="small" x="80" y="703.25" text-anchor="end">0.00</text>
<line class="grid" x1="90" y1="660.70" x2="1150" y2="660.70" />
<text class="small" x="80" y="664.70" text-anchor="end">0.50</text>
<line class="grid" x1="90" y1="622.15" x2="1150" y2="622.15" />
<text class="small" x="80" y="626.15" text-anchor="end">1.00</text>
<line class="grid" x1="90" y1="583.60" x2="1150" y2="583.60" />
<text class="small" x="80" y="587.60" text-anchor="end">1.50</text>
<line class="grid" x1="90" y1="545.05" x2="1150" y2="545.05" />
<text class="small" x="80" y="549.05" text-anchor="end">2.00</text>
<line class="grid" x1="90" y1="506.50" x2="1150" y2="506.50" />
<text class="small" x="80" y="510.50" text-anchor="end">2.50</text>
<line class="grid" x1="90.00" y1="506.50" x2="90.00" y2="699.25" />
<line class="grid" x1="266.67" y1="506.50" x2="266.67" y2="699.25" />
<line class="grid" x1="443.33" y1="506.50" x2="443.33" y2="699.25" />
<line class="grid" x1="620.00" y1="506.50" x2="620.00" y2="699.25" />
<line class="grid" x1="796.67" y1="506.50" x2="796.67" y2="699.25" />
<line class="grid" x1="973.33" y1="506.50" x2="973.33" y2="699.25" />
<line class="grid" x1="1150.00" y1="506.50" x2="1150.00" y2="699.25" />
<line class="axis" x1="90" y1="506.50" x2="90" y2="699.25" />
<line class="axis" x1="90" y1="699.25" x2="1150" y2="699.25" />
<path class="series" d="M 178.33 688.69 L 179.81 696.79 L 181.28 682.84 L 182.75 690.31 L 184.22 694.56 L 185.69 694.61 L 187.17 692.85 L 188.64 692.12 L 190.11 694.13 L 191.58 692.77 L 193.06 687.78 L 194.53 691.70 L 196.00 689.89 L 197.47 697.31 L 198.94 685.07 L 200.42 695.95 L 201.89 689.85 L 203.36 692.93 L 204.83 692.46 L 206.31 690.63 L 207.78 692.74 L 209.25 688.50 L 210.72 691.13 L 212.19 690.72 L 213.67 692.51 L 215.14 696.95 L 216.61 691.29 L 218.08 689.33 L 219.56 696.29 L 221.03 693.74 L 222.50 694.85 L 223.97 693.32 L 225.44 692.58 L 226.92 695.88 L 228.39 691.17 L 229.86 682.55 L 231.33 690.90 L 232.81 691.78 L 234.28 688.78 L 235.75 685.53 L 237.22 671.75 L 238.69 684.82 L 240.17 664.28 L 241.64 690.41 L 243.11 680.83 L 244.58 688.34 L 246.06 676.57 L 247.53 659.00 L 249.00 687.18 L 250.47 683.69 L 251.94 673.59 L 253.42 680.59 L 254.89 688.27 L 256.36 694.03 L 257.83 671.94 L 259.31 645.32 L 260.78 670.50 L 262.25 648.26 L 263.72 645.54 L 265.19 673.41 L 266.67 674.09 L 268.14 677.80 L 269.61 669.74 L 271.08 671.12 L 272.56 662.94 L 274.03 674.47 L 275.50 670.56 L 276.97 677.21 L 278.44 670.67 L 279.92 661.40 L 281.39 682.50 L 282.86 630.11 L 284.33 656.47 L 285.81 665.95 L 287.28 676.40 L 288.75 683.10 L 290.22 674.26 L 291.69 657.69 L 293.17 669.64 L 294.64 678.59 L 296.11 690.22 L 297.58 683.86 L 299.06 690.58 L 300.53 686.32 L 302.00 690.94 L 303.47 689.54 L 304.94 684.00 L 306.42 659.81 L 307.89 674.08 L 309.36 670.43 L 310.83 670.11 L 312.31 667.80 L 313.78 656.45 L 315.25 671.56 L 316.72 684.49 L 318.19 672.50 L 319.67 664.53 L 321.14 644.08 L 322.61 641.62 L 324.08 649.78 L 325.56 664.09 L 327.03 662.01 L 328.50 652.32 L 329.97 672.42 L 331.44 639.72 L 332.92 678.27 L 334.39 674.50 L 335.86 670.62 L 337.33 668.10 L 338.81 668.30 L 340.28 683.32 L 341.75 681.09 L 343.22 637.30 L 344.69 658.07 L 346.17 627.45 L 347.64 627.45 L 349.11 642.43 L 350.58 631.23 L 352.06 648.98 L 353.53 643.16 L 355.00 658.91 L 356.47 679.24 L 357.94 693.39 L 359.42 685.09 L 360.89 684.76 L 362.36 687.56 L 363.83 688.52 L 365.31 693.51 L 366.78 693.08 L 368.25 669.77 L 369.72 688.34 L 371.19 685.82 L 372.67 689.66 L 374.14 692.70 L 375.61 696.89 L 377.08 688.56 L 378.56 688.01 L 380.03 682.36 L 381.50 691.10 L 382.97 694.20 L 384.44 696.81 L 385.92 694.01 L 387.39 694.50 L 388.86 697.71 L 390.33 698.05 L 391.81 698.70 L 393.28 696.76 L 394.75 697.05 L 396.22 695.29 L 397.69 696.67 L 399.17 698.34 L 400.64 698.64 L 402.11 697.90 L 403.58 697.45 L 405.06 697.56 L 406.53 697.03 L 408.00 696.10 L 409.47 697.28 L 410.94 697.84 L 412.42 698.85 L 413.89 697.35 L 415.36 698.04 L 416.83 697.24 L 418.31 698.99 L 419.78 697.00 L 421.25 698.08 L 422.72 698.57 L 424.19 696.31 L 425.67 696.63 L 427.14 698.32 L 428.61 698.66 L 430.08 698.56 L 431.56 696.63 L 433.03 694.64 L 434.50 673.53 L 435.97 679.44 L 437.44 654.59 L 438.92 646.24 L 440.39 650.51 L 441.86 611.20 L 443.33 672.91 L 444.81 686.05 L 446.28 679.53 L 447.75 687.40 L 449.22 695.91 L 450.69 696.64 L 452.17 692.82 L 453.64 695.03 L 455.11 695.53 L 456.58 697.12 L 458.06 697.21 L 459.53 696.47 L 461.00 697.51 L 462.47 695.63 L 463.94 660.84 L 465.42 689.31 L 466.89 683.22 L 468.36 678.66 L 469.83 688.34 L 471.31 650.24 L 472.78 672.61 L 474.25 680.55 L 475.72 643.59 L 477.19 671.85 L 478.67 676.52 L 480.14 668.61 L 481.61 647.85 L 483.08 639.61 L 484.56 617.41 L 486.03 610.05 L 487.50 583.45 L 488.97 647.62 L 490.44 677.87 L 491.92 690.32 L 493.39 675.31 L 494.86 684.75 L 496.33 678.69 L 497.81 685.26 L 499.28 688.36 L 500.75 692.25 L 502.22 677.95 L 503.69 687.56 L 505.17 695.63 L 506.64 671.32 L 508.11 669.85 L 509.58 658.48 L 511.06 660.06 L 512.53 676.44 L 514.00 672.84 L 515.47 656.80 L 516.94 674.91 L 518.42 664.04 L 519.89 664.04 L 521.36 666.42 L 522.83 680.96 L 524.31 661.68 L 525.78 641.94 L 527.25 673.32 L 528.72 668.18 L 530.19 679.51 L 531.67 667.46 L 533.14 673.03 L 534.61 679.92 L 536.08 665.74 L 537.56 666.25 L 539.03 665.30 L 540.50 672.92 L 541.97 684.43 L 543.44 685.20 L 544.92 637.30 L 546.39 663.82 L 547.86 672.63 L 549.33 667.31 L 550.81 667.00 L 552.28 675.08 L 553.75 620.35 L 555.22 636.34 L 556.69 684.28 L 558.17 642.13 L 559.64 681.51 L 561.11 679.03 L 562.58 659.43 L 564.06 603.50 L 565.53 613.59 L 567.00 631.08 L 568.47 637.36 L 569.94 678.62 L 571.42 645.46 L 572.89 647.77 L 574.36 670.14 L 575.83 653.01 L 577.31 658.17 L 578.78 650.74 L 580.25 610.25 L 581.72 601.55 L 583.19 645.00 L 584.67 623.63 L 586.14 661.48 L 587.61 624.64 L 589.08 667.20 L 590.56 634.85 L 592.03 651.24 L 593.50 671.92 L 594.97 682.68 L 596.44 651.22 L 597.92 682.38 L 599.39 668.55 L 600.86 667.74 L 602.33 680.13 L 603.81 675.26 L 605.28 665.88 L 606.75 686.50 L 608.22 665.58 L 609.69 691.63 L 611.17 659.94 L 612.64 666.97 L 614.11 669.05 L 615.58 642.22 L 617.06 671.48 L 618.53 668.31 L 620.00 661.73 L 621.47 659.99 L 622.94 669.34 L 624.42 659.77 L 625.89 687.89 L 627.36 676.19 L 628.83 684.52 L 630.31 691.45 L 631.78 685.69 L 633.25 667.93 L 634.72 662.22 L 636.19 668.86 L 637.67 674.19 L 639.14 677.20 L 640.61 645.67 L 642.08 662.97 L 643.56 660.74 L 645.03 690.10 L 646.50 690.75 L 647.97 697.58 L 649.44 680.31 L 650.92 672.60 L 652.39 675.94 L 653.86 643.72 L 655.33 666.97 L 656.81 695.25 L 658.28 677.90 L 659.75 675.53 L 661.22 667.83 L 662.69 685.97 L 664.17 693.61 L 665.64 686.20 L 667.11 694.06 L 668.58 687.01 L 670.06 671.38 L 671.53 684.13 L 673.00 679.54 L 674.47 681.17 L 675.94 678.15 L 677.42 687.01 L 678.89 687.01 L 680.36 686.15 L 681.83 684.45 L 683.31 685.98 L 684.78 685.95 L 686.25 683.72 L 687.72 689.99 L 689.19 693.35 L 690.67 686.85 L 692.14 689.55 L 693.61 689.57 L 695.08 678.26 L 696.56 682.50 L 698.03 674.72 L 699.50 686.52 L 700.97 651.47 L 702.44 649.39 L 703.92 584.43 L 705.39 620.90 L 706.86 645.98 L 708.33 644.97 L 709.81 645.45 L 711.28 624.23 L 712.75 596.83 L 714.22 568.58 L 715.69 613.08 L 717.17 617.59 L 718.64 615.90 L 720.11 607.99 L 721.58 603.74 L 723.06 608.49 L 724.53 607.19 L 726.00 637.09 L 727.47 611.44 L 728.94 649.04" stroke="#FB8C00" />
<text x="90" y="711.25" font-size="14" font-weight="700">Giroscópio (magnitude) (u.a.)</text>
<rect class="event" x="443.33" y="717.25" width="20.61" height="192.75" />
<line class="eventline" x1="443.33" y1="717.25" x2="443.33" y2="910.00" />
<line class="eventline" x1="463.94" y1="717.25" x2="463.94" y2="910.00" />
<line class="grid" x1="90" y1="910.00" x2="1150" y2="910.00" />
<text class="small" x="80" y="914.00" text-anchor="end">0.00</text>
<line class="grid" x1="90" y1="871.45" x2="1150" y2="871.45" />
<text class="small" x="80" y="875.45" text-anchor="end">0.10</text>
<line class="grid" x1="90" y1="832.90" x2="1150" y2="832.90" />
<text class="small" x="80" y="836.90" text-anchor="end">0.20</text>
<line class="grid" x1="90" y1="794.35" x2="1150" y2="794.35" />
<text class="small" x="80" y="798.35" text-anchor="end">0.30</text>
<line class="grid" x1="90" y1="755.80" x2="1150" y2="755.80" />
<text class="small" x="80" y="759.80" text-anchor="end">0.40</text>
<line class="grid" x1="90" y1="717.25" x2="1150" y2="717.25" />
<text class="small" x="80" y="721.25" text-anchor="end">0.50</text>
<line class="grid" x1="90.00" y1="717.25" x2="90.00" y2="910.00" />
<line class="grid" x1="266.67" y1="717.25" x2="266.67" y2="910.00" />
<line class="grid" x1="443.33" y1="717.25" x2="443.33" y2="910.00" />
<line class="grid" x1="620.00" y1="717.25" x2="620.00" y2="910.00" />
<line class="grid" x1="796.67" y1="717.25" x2="796.67" y2="910.00" />
<line class="grid" x1="973.33" y1="717.25" x2="973.33" y2="910.00" />
<line class="grid" x1="1150.00" y1="717.25" x2="1150.00" y2="910.00" />
<line class="axis" x1="90" y1="717.25" x2="90" y2="910.00" />
<line class="axis" x1="90" y1="910.00" x2="1150" y2="910.00" />
<path class="series" d="M 178.33 904.71 L 179.81 903.23 L 181.28 902.57 L 182.75 903.77 L 184.22 905.24 L 185.69 906.01 L 187.17 908.13 L 188.64 908.28 L 190.11 905.70 L 191.58 905.21 L 193.06 903.79 L 194.53 907.17 L 196.00 907.59 L 197.47 907.87 L 198.94 907.44 L 200.42 906.59 L 201.89 905.70 L 203.36 906.57 L 204.83 908.60 L 206.31 903.79 L 207.78 906.85 L 209.25 907.54 L 210.72 906.03 L 212.19 904.96 L 213.67 907.56 L 215.14 905.49 L 216.61 904.19 L 218.08 905.42 L 219.56 905.26 L 221.03 905.42 L 222.50 905.60 L 223.97 905.71 L 225.44 902.82 L 226.92 902.27 L 228.39 903.78 L 229.86 903.43 L 231.33 905.32 L 232.81 902.30 L 234.28 900.02 L 235.75 900.82 L 237.22 903.21 L 238.69 901.91 L 240.17 901.90 L 241.64 898.18 L 243.11 903.17 L 244.58 902.36 L 246.06 900.20 L 247.53 900.33 L 249.00 901.38 L 250.47 901.93 L 251.94 902.51 L 253.42 902.43 L 254.89 902.91 L 256.36 901.74 L 257.83 896.54 L 259.31 902.69 L 260.78 895.51 L 262.25 895.74 L 263.72 902.39 L 265.19 899.41 L 266.67 895.91 L 268.14 902.21 L 269.61 901.35 L 271.08 900.03 L 272.56 888.20 L 274.03 882.65 L 275.50 882.43 L 276.97 873.02 L 278.44 873.80 L 279.92 867.12 L 281.39 867.40 L 282.86 859.85 L 284.33 884.12 L 285.81 887.82 L 287.28 886.43 L 288.75 883.31 L 290.22 877.82 L 291.69 878.48 L 293.17 887.20 L 294.64 889.81 L 296.11 889.38 L 297.58 887.37 L 299.06 878.41 L 300.53 878.77 L 302.00 878.95 L 303.47 879.11 L 304.94 886.02 L 306.42 885.79 L 307.89 895.76 L 309.36 889.13 L 310.83 885.21 L 312.31 892.58 L 313.78 887.46 L 315.25 885.12 L 316.72 882.80 L 318.19 889.18 L 319.67 897.04 L 321.14 898.78 L 322.61 880.05 L 324.08 874.92 L 325.56 867.00 L 327.03 865.83 L 328.50 864.83 L 329.97 870.43 L 331.44 870.14 L 332.92 874.55 L 334.39 879.46 L 335.86 884.56 L 337.33 880.77 L 338.81 865.45 L 340.28 857.21 L 341.75 869.14 L 343.22 889.28 L 344.69 898.83 L 346.17 864.02 L 347.64 864.02 L 349.11 832.39 L 350.58 820.88 L 352.06 838.91 L 353.53 858.89 L 355.00 876.97 L 356.47 896.97 L 357.94 901.81 L 359.42 907.31 L 360.89 908.44 L 362.36 909.40 L 363.83 905.35 L 365.31 893.15 L 366.78 883.49 L 368.25 889.62 L 369.72 901.74 L 371.19 905.93 L 372.67 907.10 L 374.14 907.53 L 375.61 909.38 L 377.08 906.11 L 378.56 905.68 L 380.03 908.94 L 381.50 909.20 L 382.97 909.60 L 384.44 909.55 L 385.92 909.79 L 387.39 909.58 L 388.86 909.61 L 390.33 909.77 L 391.81 909.79 L 393.28 909.48 L 394.75 909.72 L 396.22 909.52 L 397.69 909.94 L 399.17 909.83 L 400.64 909.89 L 402.11 909.78 L 403.58 909.81 L 405.06 909.87 L 406.53 909.68 L 408.00 909.92 L 409.47 909.77 L 410.94 909.75 L 412.42 909.92 L 413.89 909.83 L 415.36 909.49 L 416.83 909.87 L 418.31 909.61 L 419.78 909.67 L 421.25 909.68 L 422.72 909.79 L 424.19 909.25 L 425.67 909.72 L 427.14 909.41 L 428.61 909.58 L 430.08 909.15 L 431.56 909.66 L 433.03 908.75 L 434.50 906.27 L 435.97 905.01 L 437.44 898.86 L 438.92 896.85 L 440.39 899.41 L 441.86 905.32 L 443.33 907.76 L 444.81 907.94 L 446.28 909.11 L 447.75 908.99 L 449.22 909.51 L 450.69 909.45 L 452.17 909.19 L 453.64 909.77 L 455.11 908.70 L 456.58 909.64 L 458.06 909.61 L 459.53 909.73 L 461.00 909.43 L 462.47 908.15 L 463.94 901.62 L 465.42 892.50 L 466.89 884.31 L 468.36 866.24 L 469.83 859.30 L 471.31 872.68 L 472.78 896.03 L 474.25 902.79 L 475.72 870.14 L 477.19 840.70 L 478.67 832.36 L 480.14 824.56 L 481.61 811.42 L 483.08 808.00 L 484.56 814.35 L 486.03 847.51 L 487.50 894.42 L 488.97 906.60 L 490.44 908.58 L 491.92 908.68 L 493.39 906.58 L 494.86 906.06 L 496.33 892.50 L 497.81 876.89 L 499.28 872.37 L 500.75 872.80 L 502.22 878.90 L 503.69 892.53 L 505.17 900.54 L 506.64 909.69 L 508.11 908.88 L 509.58 902.82 L 511.06 878.25 L 512.53 866.01 L 514.00 845.89 L 515.47 828.25 L 516.94 817.20 L 518.42 856.67 L 519.89 856.67 L 521.36 883.82 L 522.83 891.95 L 524.31 898.67 L 525.78 899.44 L 527.25 896.38 L 528.72 900.11 L 530.19 904.07 L 531.67 901.94 L 533.14 900.61 L 534.61 900.28 L 536.08 895.44 L 537.56 896.97 L 539.03 906.16 L 540.50 896.96 L 541.97 894.97 L 543.44 892.43 L 544.92 869.01 L 546.39 852.02 L 547.86 853.82 L 549.33 853.24 L 550.81 853.21 L 552.28 856.53 L 553.75 861.69 L 555.22 893.60 L 556.69 897.85 L 558.17 894.80 L 559.64 894.39 L 561.11 902.74 L 562.58 904.00 L 564.06 879.61 L 565.53 850.38 L 567.00 857.40 L 568.47 852.23 L 569.94 854.87 L 571.42 853.52 L 572.89 841.73 L 574.36 873.34 L 575.83 885.50 L 577.31 902.19 L 578.78 891.28 L 580.25 868.67 L 581.72 845.72 L 583.19 847.94 L 584.67 851.52 L 586.14 862.83 L 587.61 895.32 L 589.08 896.70 L 590.56 905.32 L 592.03 891.70 L 593.50 896.49 L 594.97 888.21 L 596.44 873.09 L 597.92 882.71 L 599.39 902.32 L 600.86 901.61 L 602.33 888.28 L 603.81 892.10 L 605.28 898.61 L 606.75 900.64 L 608.22 901.25 L 609.69 901.25 L 611.17 901.42 L 612.64 902.84 L 614.11 896.89 L 615.58 893.71 L 617.06 897.38 L 618.53 895.43 L 620.00 892.85 L 621.47 896.75 L 622.94 893.67 L 624.42 888.28 L 625.89 898.37 L 627.36 905.26 L 628.83 900.19 L 630.31 902.61 L 631.78 901.50 L 633.25 895.01 L 634.72 888.14 L 636.19 893.33 L 637.67 903.59 L 639.14 906.63 L 640.61 900.66 L 642.08 903.30 L 643.56 900.23 L 645.03 902.86 L 646.50 905.61 L 647.97 907.54 L 649.44 907.67 L 650.92 900.66 L 652.39 903.07 L 653.86 901.52 L 655.33 903.49 L 656.81 904.03 L 658.28 902.36 L 659.75 902.39 L 661.22 901.01 L 662.69 905.67 L 664.17 903.06 L 665.64 903.82 L 667.11 900.91 L 668.58 898.92 L 670.06 902.84 L 671.53 902.88 L 673.00 900.83 L 674.47 901.46 L 675.94 895.76 L 677.42 894.64 L 678.89 894.64 L 680.36 898.75 L 681.83 902.85 L 683.31 907.41 L 684.78 907.05 L 686.25 903.66 L 687.72 905.69 L 689.19 903.69 L 690.67 900.40 L 692.14 905.15 L 693.61 905.76 L 695.08 901.15 L 696.56 896.91 L 698.03 899.30 L 699.50 894.70 L 700.97 881.39 L 702.44 863.00 L 703.92 843.46 L 705.39 847.25 L 706.86 847.89 L 708.33 820.22 L 709.81 812.93 L 711.28 824.31 L 712.75 876.04 L 714.22 894.97 L 715.69 877.24 L 717.17 873.58 L 718.64 864.41 L 720.11 829.12 L 721.58 796.66 L 723.06 780.88 L 724.53 846.12 L 726.00 903.16 L 727.47 875.69 L 728.94 871.79" stroke="#E53935" />
<text x="620.00" y="952" font-size="15" text-anchor="middle">minutos (relativo ao início do evento)</text>
<text class="small" x="90.00" y="936" text-anchor="middle">-4.00</text>
<text class="small" x="266.67" y="936" text-anchor="middle">-2.00</text>
<text class="small" x="443.33" y="936" text-anchor="middle">0.00</text>
<text class="small" x="620.00" y="936" text-anchor="middle">2.00</text>
<text class="small" x="796.67" y="936" text-anchor="middle">4.00</text>
<text class="small" x="973.33" y="936" text-anchor="middle">6.00</text>
<text class="small" x="1150.00" y="936" text-anchor="middle">8.00</text>
</svg>