<?xml version="1.0" encoding="UTF-8"?>
<svg xmlns="http://www.w3.org/2000/svg" width="1180" height="980" viewBox="0 0 1180 980">
<style>
text { font-family: -apple-system, BlinkMacSystemFont, 'Segoe UI', Roboto, Helvetica, Arial, sans-serif; fill: #111; }
.small { font-size: 12px; fill: #222; }
.title { font-size: 18px; font-weight: 700; }
.axis { stroke: #111; stroke-width: 1.4; }
.grid { stroke: #E6E6E6; stroke-width: 1; }
.event { fill: #FFEB3B; fill-opacity: 0.18; }
.eventline { stroke: #F9A825; stroke-width: 1.2; stroke-dasharray: 4 3; }
.series { fill: none; stroke-width: 1.8; }
</style>
<text class="title" x="90" y="34">ciclo 9 — espera_carregamento — 2025-12-12T20:52:48-03:00 → 2025-12-12T20:54:40-03:00 (span 112s, dur 113s)</text>
<text class="small" x="90" y="54">GPS: -11.698994,-47.157221  hotspot: -11.699,-47.157</text>
<text class="small" x="90" y="70">Janela: -3.00 → 4.87 min (relativo ao início do evento)</text>
<text x="90" y="79.00" font-size="14" font-weight="700">Velocidade (km/h)</text>
<rect class="event" x="443.33" y="85.00" width="164.89" height="192.75" />
<line class="eventline" x1="443.33" y1="85.00" x2="443.33" y2="277.75" />
<line class="eventline" x1="608.22" y1="85.00" x2="608.22" y2="277.75" />
<line class="grid" x1="90" y1="277.75" x2="1150" y2="277.75" />
<text class="small" x="80" y="281.75" text-anchor="end">0.00</text>
<line class="grid" x1="90" y1="239.20" x2="1150" y2="239.20" />
<text class="small" x="80" y="243.20" text-anchor="end">10.0</text>
<line class="grid" x1="90" y1="200.65" x2="1150" y2="200.65" />
<text class="small" x="80" y="204.65" text-anchor="end">20.0</text>
<line class="grid" x1="90" y1="162.10" x2="1150" y2="162.10" />
<text class="small" x="80" y="166.10" text-anchor="end">30.0</text>
<line class="grid" x1="90" y1="123.55" x2="1150" y2="123.55" />
<text class="small" x="80" y="127.55" text-anchor="end">40.0</text>
<line class="grid" x1="90" y1="85.00" x2="1150" y2="85.00" />
<text class="small" x="80" y="89.00" text-anchor="end">50.0</text>
<line class="grid" x1="90.00" y1="85.00" x2="90.00" y2="277.75" />
<line class="grid" x1="266.67" y1="85.00" x2="266.67" y2="277.75" />
<line class="grid" x1="443.33" y1="85.00" x2="443.33" y2="277.75" />
<line class="grid" x1="620.00" y1="85.00" x2="620.00" y2="277.75" />
<line class="grid" x1="796.67" y1="85.00" x2="796.67" y2="277.75" />
<line class="grid" x1="973.33" y1="85.00" x2="973.33" y2="277.75" />
<line class="grid" x1="1150.00" y1="85.00" x2="1150.00" y2="277.75" />
<line class="axis" x1="90" y1="85.00" x2="90" y2="277.75" />
<line class="axis" x1="90" y1="277.75" x2="1150" y2="277.75" />
<path class="series" d="M 178.33 164.37 L 179.81 161.17 L 181.28 159.51 L 182.75 159.37 L 184.22 160.34 L 185.69 162.01 L 187.17 160.62 L 188.64 161.59 L 190.11 163.26 L 191.58 164.09 L 193.06 165.48 L 194.53 165.06 L 196.00 166.17 L 197.47 167.14 L 198.94 168.81 L 200.42 167.00 L 201.89 170.89 L 203.36 172.14 L 204.83 177.13 L 206.31 177.55 L 207.78 177.13 L 209.25 169.78 L 210.72 177.69 L 212.19 176.16 L 213.67 176.16 L 215.14 178.24 L 216.61 180.74 L 218.08 177.83 L 219.56 170.89 L 221.03 176.02 L 222.50 176.30 L 223.97 178.38 L 225.44 180.88 L 226.92 183.66 L 228.39 188.38 L 229.86 193.79 L 231.33 199.48 L 232.81 208.36 L 234.28 220.71 L 235.75 229.45 L 237.22 240.14 L 238.69 246.39 L 240.17 254.71 L 241.64 246.11 L 243.11 240.97 L 244.58 241.39 L 246.06 235.14 L 247.53 227.23 L 249.00 218.77 L 250.47 214.19 L 251.94 204.89 L 253.42 209.47 L 254.89 210.86 L 256.36 205.72 L 257.83 200.87 L 259.31 199.76 L 260.78 201.00 L 262.25 201.70 L 263.72 207.39 L 265.19 210.03 L 266.67 210.86 L 268.14 211.69 L 269.61 213.49 L 271.08 217.38 L 272.56 219.05 L 274.03 220.16 L 275.50 220.57 L 276.97 214.74 L 278.44 215.85 L 279.92 210.58 L 281.39 204.34 L 282.86 197.26 L 284.33 193.37 L 285.81 186.99 L 287.28 185.32 L 288.75 186.16 L 290.22 180.19 L 291.69 180.33 L 293.17 180.88 L 294.64 181.30 L 296.11 188.38 L 297.58 197.40 L 299.06 202.53 L 300.53 209.89 L 302.00 217.66 L 303.47 215.58 L 304.94 212.52 L 306.42 205.31 L 307.89 198.65 L 309.36 189.35 L 310.83 184.63 L 312.31 180.88 L 313.78 177.00 L 315.25 173.66 L 316.72 170.06 L 318.19 168.25 L 319.67 171.17 L 321.14 176.72 L 322.61 174.91 L 324.08 170.20 L 325.56 167.84 L 327.03 164.09 L 328.50 161.45 L 329.97 156.46 L 331.44 167.70 L 332.92 189.21 L 334.39 195.45 L 335.86 201.56 L 337.33 210.03 L 338.81 205.45 L 340.28 214.61 L 341.75 214.19 L 343.22 218.35 L 344.69 213.22 L 346.17 209.05 L 347.64 207.53 L 349.11 203.23 L 350.58 197.40 L 352.06 196.84 L 353.53 190.18 L 355.00 192.12 L 356.47 186.16 L 357.94 181.44 L 359.42 178.66 L 360.89 170.20 L 362.36 166.86 L 363.83 176.44 L 365.31 175.33 L 366.78 179.08 L 368.25 182.69 L 369.72 186.02 L 371.19 190.18 L 372.67 194.07 L 374.14 198.65 L 375.61 200.03 L 377.08 203.23 L 378.56 214.05 L 380.03 222.24 L 381.50 228.76 L 382.97 232.09 L 384.44 233.62 L 385.92 232.51 L 387.39 228.76 L 388.86 229.18 L 390.33 226.12 L 391.81 227.51 L 393.28 229.04 L 394.75 233.90 L 396.22 228.34 L 397.69 225.15 L 399.17 231.12 L 400.64 222.10 L 402.11 219.18 L 403.58 216.27 L 405.06 217.10 L 406.53 222.24 L 408.00 228.90 L 409.47 233.90 L 410.94 238.20 L 412.42 238.75 L 413.89 239.86 L 415.36 235.01 L 416.83 231.68 L 418.31 236.81 L 419.78 245.41 L 421.25 249.16 L 422.72 250.55 L 424.19 247.36 L 425.67 252.35 L 427.14 246.94 L 428.61 246.94 L 430.08 248.33 L 431.56 254.43 L 433.03 259.43 L 434.50 259.29 L 435.97 258.04 L 437.44 263.59 L 438.92 264.98 L 440.39 268.45 L 441.86 269.98 L 443.33 277.75 L 444.81 277.75 L 446.28 277.75 L 447.75 277.75 L 449.22 277.75 L 450.69 277.75 L 452.17 277.75 L 453.64 277.75 L 455.11 277.75 L 456.58 277.75 L 458.06 277.75 L 459.53 277.75 L 461.00 277.75 L 462.47 277.75 L 463.94 277.75 L 465.42 277.75 L 466.89 277.75 L 468.36 277.75 L 469.83 277.75 L 471.31 277.75 L 472.78 277.75 L 474.25 277.75 L 475.72 277.75 L 477.19 277.75 L 478.67 277.75 L 480.14 277.75 L 481.61 277.75 L 483.08 277.75 L 484.56 277.75 L 486.03 277.75 L 487.50 277.75 L 488.97 277.75 L 490.44 277.75 L 491.92 277.75 L 493.39 277.75 L 494.86 277.75 L 496.33 277.75 L 497.81 277.75 L 499.28 277.75 L 500.75 277.75 L 502.22 277.75 L 503.69 277.75 L 505.17 277.75 L 506.64 277.75 L 508.11 277.75 L 509.58 277.75 L 511.06 277.75 L 512.53 277.75 L 514.00 277.75 L 515.47 277.75 L 516.94 277.75 L 518.42 277.75 L 519.89 277.75 L 521.36 277.75 L 522.83 277.75 L 524.31 277.75 L 525.78 277.75 L 527.25 277.75 L 528.72 277.75 L 530.19 277.75 L 531.67 277.75 L 533.14 277.75 L 534.61 277.75 L 536.08 277.75 L 537.56 277.75 L 539.03 277.75 L 540.50 277.75 L 541.97 277.75 L 543.44 277.75 L 544.92 277.75 L 546.39 277.75 L 547.86 277.75 L 549.33 277.75 L 550.81 277.75 L 552.28 277.75 L 553.75 277.75 L 555.22 277.75 L 556.69 277.75 L 558.17 277.75 L 559.64 277.75 L 561.11 277.75 L 562.58 277.75 L 564.06 277.75 L 565.53 277.75 L 567.00 277.75 L 568.47 277.75 L 569.94 277.75 L 571.42 277.75 L 572.89 277.75 L 574.36 277.75 L 575.83 277.75 L 577.31 277.75 L 578.78 277.75 L 580.25 277.75 L 581.72 277.75 L 583.19 277.75 L 584.67 277.75 L 586.14 277.75 L 587.61 277.75 L 589.08 277.75 L 590.56 277.75 L 592.03 277.75 L 593.50 277.75 L 594.97 277.75 L 596.44 277.75 L 597.92 277.75 L 599.39 277.75 L 600.86 277.75 L 602.33 277.75 L 603.81 277.75 L 605.28 277.75 L 606.75 277.75 L 608.22 277.75 L 609.69 270.95 L 611.17 270.26 L 612.64 271.64 L 614.11 273.03 L 615.58 277.75 L 617.06 266.93 L 618.53 266.93 L 620.00 266.93 L 621.47 262.76 L 622.94 266.51 L 624.42 263.18 L 625.89 259.57 L 627.36 262.90 L 628.83 258.88 L 630.31 265.26 L 631.78 264.29 L 633.25 268.59 L 634.72 265.68 L 636.19 267.90 L 637.67 267.34 L 639.14 268.73 L 640.61 268.45 L 642.08 270.81 L 643.56 270.95 L 645.03 270.26 L 646.50 273.86 L 647.97 277.75 L 649.44 277.75 L 650.92 277.75 L 652.39 277.75 L 653.86 277.75 L 655.33 277.75 L 656.81 277.75 L 658.28 277.75 L 659.75 277.75 L 661.22 277.75 L 662.69 277.75 L 664.17 277.75 L 665.64 277.75 L 667.11 277.75 L 668.58 277.75 L 670.06 277.75 L 671.53 277.75 L 673.00 277.75 L 674.47 277.75 L 675.94 277.75 L 677.42 277.75 L 678.89 277.75 L 680.36 277.75 L 681.83 277.75 L 683.31 277.75 L 684.78 277.75 L 686.25 277.75 L 687.72 277.75 L 689.19 277.75 L 690.67 277.75 L 692.14 277.75 L 693.61 277.75 L 695.08 277.75 L 696.56 277.75 L 698.03 277.75 L 699.50 277.75 L 700.97 277.75 L 702.44 277.75 L 703.92 277.75 L 705.39 277.75 L 706.86 277.75 L 708.33 277.75 L 709.81 277.75 L 711.28 277.75 L 712.75 277.75 L 714.22 277.75 L 715.69 277.75 L 717.17 277.75 L 718.64 277.75 L 720.11 277.75 L 721.58 277.75 L 723.06 277.75 L 724.53 277.75 L 726.00 277.75 L 727.47 277.75 L 728.94 277.75 L 730.42 277.75 L 731.89 277.75 L 733.36 277.75 L 734.83 277.75 L 736.31 277.75 L 737.78 277.75 L 739.25 277.75 L 740.72 277.75 L 742.19 277.75 L 743.67 277.75 L 745.14 277.75 L 746.61 277.75 L 748.08 277.75 L 749.56 277.75 L 751.03 277.75 L 752.50 277.75 L 753.97 277.75 L 755.44 277.75 L 756.92 277.75 L 758.39 277.75 L 759.86 277.75 L 761.33 277.75 L 762.81 277.75 L 764.28 277.75 L 765.75 277.75 L 767.22 277.75 L 768.69 277.75 L 770.17 277.75 L 771.64 277.75 L 773.11 277.75 L 774.58 277.75 L 776.06 277.75 L 777.53 277.75 L 779.00 277.75 L 780.47 277.75 L 781.94 277.75 L 783.42 277.75 L 784.89 277.75 L 786.36 277.75 L 787.83 277.75 L 789.31 277.75 L 790.78 277.75 L 792.25 277.75 L 793.72 277.75 L 795.19 277.75 L 796.67 277.75 L 798.14 277.75 L 799.61 277.75 L 801.08 277.75 L 802.56 277.75 L 804.03 277.75 L 805.50 277.75 L 806.97 277.75 L 808.44 277.75 L 809.92 277.75 L 811.39 277.75 L 812.86 277.75 L 814.33 277.75 L 815.81 277.75 L 817.28 277.75 L 818.75 277.75 L 820.22 277.75 L 821.69 277.75 L 823.17 277.75 L 824.64 277.75 L 826.11 277.75 L 827.58 277.75 L 829.06 277.75 L 830.53 277.75 L 832.00 277.75 L 833.47 277.75 L 834.94 277.75 L 836.42 277.75 L 837.89 277.75 L 839.36 277.75 L 840.83 277.75 L 842.31 277.75 L 843.78 277.75 L 845.25 277.75 L 846.72 277.75 L 848.19 277.75 L 849.67 277.75 L 851.14 277.75 L 852.61 277.75 L 854.08 277.75 L 855.56 277.75 L 857.03 277.75 L 858.50 277.75 L 859.97 277.75 L 861.44 277.75 L 862.92 277.75 L 864.39 277.75 L 865.86 277.75 L 867.33 277.75 L 868.81 277.75 L 870.28 277.75 L 871.75 277.75 L 873.22 277.75" stroke="#1976D2" />
<text x="90" y="289.75" font-size="14" font-weight="700">Inclinação (graus)</text>
<rect class="event" x="443.33" y="295.75" width="164.89" height="192.75" />
<line class="eventline" x1="443.33" y1="295.75" x2="443.33" y2="488.50" />
<line class="eventline" x1="608.22" y1="295.75" x2="608.22" y2="488.50" />
<line class="grid" x1="90" y1="488.50" x2="1150" y2="488.50" />
<text class="small" x="80" y="492.50" text-anchor="end">-10.0</text>
<line class="grid" x1="90" y1="449.95" x2="1150" y2="449.95" />
<text class="small" x="80" y="453.95" text-anchor="end">0.00</text>
<line class="grid" x1="90" y1="411.40" x2="1150" y2="411.40" />
<text class="small" x="80" y="415.40" text-anchor="end">10.0</text>
<line class="grid" x1="90" y1="372.85" x2="1150" y2="372.85" />
<text class="small" x="80" y="376.85" text-anchor="end">20.0</text>
<line class="grid" x1="90" y1="334.30" x2="1150" y2="334.30" />
<text class="small" x="80" y="338.30" text-anchor="end">30.0</text>
<line class="grid" x1="90" y1="295.75" x2="1150" y2="295.75" />
<text class="small" x="80" y="299.75" text-anchor="end">40.0</text>
<line class="grid" x1="90.00" y1="295.75" x2="90.00" y2="488.50" />
<line class="grid" x1="266.67" y1="295.75" x2="266.67" y2="488.50" />
<line class="grid" x1="443.33" y1="295.75" x2="443.33" y2="488.50" />
<line class="grid" x1="620.00" y1="295.75" x2="620.00" y2="488.50" />
<line class="grid" x1="796.67" y1="295.75" x2="796.67" y2="488.50" />
<line class="grid" x1="973.33" y1="295.75" x2="973.33" y2="488.50" />
<line class="grid" x1="1150.00" y1="295.75" x2="1150.00" y2="488.50" />
<line class="axis" x1="90" y1="295.75" x2="90" y2="488.50" />
<line class="axis" x1="90" y1="488.50" x2="1150" y2="488.50" />
<path class="series" d="M 178.33 396.79 L 179.81 397.22 L 181.28 397.95 L 182.75 398.45 L 184.22 398.95 L 185.69 397.52 L 187.17 398.72 L 188.64 399.59 L 190.11 398.49 L 191.58 398.25 L 193.06 401.79 L 194.53 406.02 L 196.00 400.72 L 197.47 401.03 L 198.94 399.93 L 200.42 400.10 L 201.89 397.55 L 203.36 400.07 L 204.83 405.45 L 206.31 403.39 L 207.78 403.34 L 209.25 402.97 L 210.72 404.03 L 212.19 402.13 L 213.67 399.68 L 215.14 404.14 L 216.61 404.18 L 218.08 408.47 L 219.56 403.80 L 221.03 403.15 L 222.50 407.27 L 223.97 399.35 L 225.44 405.28 L 226.92 400.70 L 228.39 396.90 L 229.86 398.83 L 231.33 393.38 L 232.81 391.02 L 234.28 392.53 L 235.75 390.87 L 237.22 399.69 L 238.69 391.47 L 240.17 424.47 L 241.64 418.25 L 243.11 411.70 L 244.58 417.47 L 246.06 423.68 L 247.53 422.22 L 249.00 420.14 L 250.47 417.40 L 251.94 401.74 L 253.42 406.12 L 254.89 415.36 L 256.36 415.61 L 257.83 416.31 L 259.31 401.61 L 260.78 399.15 L 262.25 399.47 L 263.72 399.13 L 265.19 398.23 L 266.67 399.21 L 268.14 396.32 L 269.61 396.14 L 271.08 398.20 L 272.56 397.04 L 274.03 405.92 L 275.50 411.22 L 276.97 397.68 L 278.44 399.51 L 279.92 398.48 L 281.39 396.88 L 282.86 392.38 L 284.33 387.67 L 285.81 385.80 L 287.28 385.82 L 288.75 381.21 L 290.22 376.45 L 291.69 372.47 L 293.17 372.03 L 294.64 370.44 L 296.11 359.68 L 297.58 369.99 L 299.06 372.79 L 300.53 373.23 L 302.00 389.30 L 303.47 395.13 L 304.94 398.86 L 306.42 398.86 L 307.89 394.20 L 309.36 402.44 L 310.83 393.01 L 312.31 392.37 L 313.78 391.19 L 315.25 397.88 L 316.72 390.14 L 318.19 395.73 L 319.67 392.10 L 321.14 398.60 L 322.61 403.41 L 324.08 398.41 L 325.56 408.07 L 327.03 407.65 L 328.50 383.37 L 329.97 377.84 L 331.44 351.45 L 332.92 377.00 L 334.39 388.14 L 335.86 400.72 L 337.33 396.86 L 338.81 405.51 L 340.28 414.40 L 341.75 402.35 L 343.22 422.70 L 344.69 415.53 L 346.17 410.22 L 347.64 401.94 L 349.11 420.43 L 350.58 407.15 L 352.06 407.29 L 353.53 415.76 L 355.00 406.02 L 356.47 412.13 L 357.94 414.85 L 359.42 420.02 L 360.89 415.43 L 362.36 404.14 L 363.83 401.59 L 365.31 391.40 L 366.78 398.79 L 368.25 396.50 L 369.72 391.13 L 371.19 394.34 L 372.67 402.89 L 374.14 397.43 L 375.61 396.71 L 377.08 380.71 L 378.56 380.51 L 380.03 380.31 L 381.50 403.27 L 382.97 400.00 L 384.44 400.09 L 385.92 404.20 L 387.39 407.38 L 388.86 407.50 L 390.33 405.98 L 391.81 392.09 L 393.28 403.79 L 394.75 407.11 L 396.22 425.87 L 397.69 404.76 L 399.17 410.63 L 400.64 418.18 L 402.11 406.15 L 403.58 402.12 L 405.06 397.37 L 406.53 391.43 L 408.00 392.35 L 409.47 397.95 L 410.94 406.56 L 412.42 409.41 L 413.89 412.59 L 415.36 409.66 L 416.83 433.47 L 418.31 399.47 L 419.78 403.03 L 421.25 420.49 L 422.72 400.43 L 424.19 414.45 L 425.67 410.78 L 427.14 422.76 L 428.61 398.16 L 430.08 388.12 L 431.56 389.57 L 433.03 383.08 L 434.50 394.61 L 435.97 390.32 L 437.44 392.00 L 438.92 396.18 L 440.39 393.02 L 441.86 392.62 L 443.33 392.59 L 444.81 393.09 L 446.28 396.63 L 447.75 396.70 L 449.22 396.88 L 450.69 396.56 L 452.17 396.69 L 453.64 396.65 L 455.11 396.68 L 456.58 396.67 L 458.06 396.67 L 459.53 396.61 L 461.00 396.61 L 462.47 396.62 L 463.94 396.65 L 465.42 396.56 L 466.89 396.63 L 468.36 396.60 L 469.83 396.59 L 471.31 396.55 L 472.78 396.55 L 474.25 396.59 L 475.72 396.52 L 477.19 396.54 L 478.67 396.53 L 480.14 396.49 L 481.61 396.53 L 483.08 396.49 L 484.56 396.52 L 486.03 396.54 L 487.50 396.52 L 488.97 396.50 L 490.44 396.56 L 491.92 396.52 L 493.39 396.54 L 494.86 396.49 L 496.33 396.53 L 497.81 396.47 L 499.28 396.51 L 500.75 396.52 L 502.22 396.52 L 503.69 396.54 L 505.17 396.57 L 506.64 396.48 L 508.11 396.50 L 509.58 396.51 L 511.06 396.55 L 512.53 396.51 L 514.00 396.54 L 515.47 396.45 L 516.94 396.58 L 518.42 396.48 L 519.89 396.50 L 521.36 396.54 L 522.83 396.60 L 524.31 396.55 L 525.78 396.54 L 527.25 396.55 L 528.72 396.55 L 530.19 396.59 L 531.67 396.60 L 533.14 396.54 L 534.61 396.56 L 536.08 396.51 L 537.56 396.53 L 539.03 396.54 L 540.50 396.52 L 541.97 396.57 L 543.44 396.57 L 544.92 396.52 L 546.39 396.58 L 547.86 396.56 L 549.33 396.53 L 550.81 396.56 L 552.28 396.58 L 553.75 396.56 L 555.22 396.57 L 556.69 396.49 L 558.17 396.58 L 559.64 396.57 L 561.11 396.50 L 562.58 396.48 L 564.06 396.53 L 565.53 396.54 L 567.00 396.56 L 568.47 396.52 L 569.94 396.58 L 571.42 396.55 L 572.89 396.59 L 574.36 396.56 L 575.83 396.56 L 577.31 396.54 L 578.78 396.53 L 580.25 396.51 L 581.72 396.49 L 583.19 396.54 L 584.67 396.55 L 586.14 396.62 L 587.61 396.53 L 589.08 396.58 L 590.56 396.58 L 592.03 396.54 L 593.50 396.54 L 594.97 396.40 L 596.44 396.41 L 597.92 397.68 L 599.39 396.52 L 600.86 398.05 L 602.33 397.28 L 603.81 397.24 L 605.28 397.28 L 606.75 392.46 L 608.22 392.27 L 609.69 397.16 L 611.17 397.26 L 612.64 398.46 L 614.11 399.32 L 615.58 389.93 L 617.06 391.39 L 618.53 395.42 L 620.00 393.11 L 621.47 390.57 L 622.94 388.24 L 624.42 393.13 L 625.89 390.17 L 627.36 392.92 L 628.83 400.53 L 630.31 402.02 L 631.78 405.89 L 633.25 407.33 L 634.72 403.47 L 636.19 408.54 L 637.67 407.73 L 639.14 406.35 L 640.61 412.54 L 642.08 407.15 L 643.56 401.17 L 645.03 402.47 L 646.50 403.17 L 647.97 396.45 L 649.44 391.38 L 650.92 393.08 L 652.39 391.64 L 653.86 388.58 L 655.33 385.99 L 656.81 397.73 L 658.28 384.32 L 659.75 385.72 L 661.22 385.27 L 662.69 387.37 L 664.17 384.00 L 665.64 385.62 L 667.11 385.54 L 668.58 385.48 L 670.06 385.61 L 671.53 385.59 L 673.00 385.53 L 674.47 385.56 L 675.94 385.56 L 677.42 385.49 L 678.89 385.49 L 680.36 385.51 L 681.83 385.46 L 683.31 385.47 L 684.78 385.53 L 686.25 385.36 L 687.72 384.92 L 689.19 384.49 L 690.67 384.22 L 692.14 384.61 L 693.61 384.49 L 695.08 384.39 L 696.56 384.41 L 698.03 384.44 L 699.50 384.42 L 700.97 384.39 L 702.44 384.38 L 703.92 384.37 L 705.39 384.38 L 706.86 384.38 L 708.33 384.34 L 709.81 384.40 L 711.28 384.37 L 712.75 384.38 L 714.22 384.25 L 715.69 384.38 L 717.17 384.56 L 718.64 383.49 L 720.11 383.26 L 721.58 383.91 L 723.06 383.68 L 724.53 383.73 L 726.00 383.67 L 727.47 383.70 L 728.94 383.70 L 730.42 383.70 L 731.89 383.62 L 733.36 383.69 L 734.83 383.68 L 736.31 383.66 L 737.78 383.66 L 739.25 383.68 L 740.72 383.62 L 742.19 383.61 L 743.67 383.59 L 745.14 383.59 L 746.61 383.77 L 748.08 383.49 L 749.56 383.02 L 751.03 383.50 L 752.50 383.15 L 753.97 383.38 L 755.44 383.29 L 756.92 383.27 L 758.39 383.29 L 759.86 383.29 L 761.33 383.29 L 762.81 383.31 L 764.28 383.22 L 765.75 383.30 L 767.22 383.29 L 768.69 383.28 L 770.17 383.26 L 771.64 383.29 L 773.11 383.26 L 774.58 383.27 L 776.06 383.24 L 777.53 383.27 L 779.00 383.22 L 780.47 383.26 L 781.94 383.13 L 783.42 383.51 L 784.89 383.42 L 786.36 383.67 L 787.83 384.20 L 789.31 383.93 L 790.78 384.12 L 792.25 384.01 L 793.72 384.03 L 795.19 384.07 L 796.67 384.06 L 798.14 384.06 L 799.61 384.10 L 801.08 384.03 L 802.56 384.08 L 804.03 384.11 L 805.50 384.02 L 806.97 384.10 L 808.44 384.03 L 809.92 384.07 L 811.39 384.04 L 812.86 384.04 L 814.33 384.04 L 815.81 384.11 L 817.28 384.05 L 818.75 383.99 L 820.22 384.13 L 821.69 385.26 L 823.17 385.18 L 824.64 385.18 L 826.11 385.14 L 827.58 384.97 L 829.06 385.05 L 830.53 385.15 L 832.00 385.05 L 833.47 385.03 L 834.94 385.08 L 836.42 385.06 L 837.89 385.05 L 839.36 385.04 L 840.83 385.10 L 842.31 385.11 L 843.78 385.06 L 845.25 385.05 L 846.72 385.11 L 848.19 385.09 L 849.67 385.07 L 851.14 385.10 L 852.61 385.11 L 854.08 385.20 L 855.56 385.29 L 857.03 385.77 L 858.50 385.64 L 859.97 385.85 L 861.44 385.75 L 862.92 385.72 L 864.39 385.65 L 865.86 385.75 L 867.33 385.69 L 868.81 385.73 L 870.28 385.74 L 871.75 385.70 L 873.22 385.74" stroke="#2E7D32" />
<path class="series" d="M 178.33 443.95 L 179.81 440.31 L 181.28 440.00 L 182.75 441.62 L 184.22 439.76 L 185.69 440.45 L 187.17 440.85 L 188.64 443.77 L 190.11 447.00 L 191.58 448.95 L 193.06 451.84 L 194.53 451.11 L 196.00 449.86 L 197.47 446.88 L 198.94 445.12 L 200.42 442.37 L 201.89 442.44 L 203.36 441.25 L 204.83 446.17 L 206.31 439.18 L 207.78 443.37 L 209.25 442.36 L 210.72 445.82 L 212.19 443.57 L 213.67 440.29 L 215.14 433.83 L 216.61 432.78 L 218.08 430.29 L 219.56 429.52 L 221.03 426.49 L 222.50 433.87 L 223.97 441.00 L 225.44 433.51 L 226.92 434.22 L 228.39 428.96 L 229.86 434.21 L 231.33 442.09 L 232.81 446.36 L 234.28 443.76 L 235.75 439.15 L 237.22 442.55 L 238.69 436.62 L 240.17 435.39 L 241.64 434.74 L 243.11 434.47 L 244.58 434.68 L 246.06 433.93 L 247.53 434.08 L 249.00 429.27 L 250.47 437.23 L 251.94 435.54 L 253.42 434.26 L 254.89 429.62 L 256.36 427.28 L 257.83 427.02 L 259.31 429.37 L 260.78 432.02 L 262.25 438.00 L 263.72 438.84 L 265.19 438.10 L 266.67 438.90 L 268.14 427.23 L 269.61 432.67 L 271.08 436.54 L 272.56 439.66 L 274.03 431.65 L 275.50 434.05 L 276.97 429.17 L 278.44 429.94 L 279.92 435.36 L 281.39 445.28 L 282.86 444.84 L 284.33 444.17 L 285.81 439.05 L 287.28 434.97 L 288.75 434.46 L 290.22 431.94 L 291.69 432.02 L 293.17 430.65 L 294.64 440.26 L 296.11 443.46 L 297.58 435.08 L 299.06 434.45 L 300.53 429.46 L 302.00 434.61 L 303.47 439.26 L 304.94 441.14 L 306.42 441.14 L 307.89 443.63 L 309.36 443.03 L 310.83 433.12 L 312.31 434.92 L 313.78 433.80 L 315.25 434.12 L 316.72 441.67 L 318.19 426.73 L 319.67 424.46 L 321.14 408.97 L 322.61 431.49 L 324.08 410.06 L 325.56 401.01 L 327.03 408.00 L 328.50 404.29 L 329.97 419.79 L 331.44 426.67 L 332.92 466.08 L 334.39 456.43 L 335.86 449.88 L 337.33 441.75 L 338.81 443.36 L 340.28 443.98 L 341.75 433.00 L 343.22 450.50 L 344.69 462.64 L 346.17 456.45 L 347.64 449.50 L 349.11 446.29 L 350.58 456.74 L 352.06 448.10 L 353.53 451.50 L 355.00 448.65 L 356.47 438.94 L 357.94 434.25 L 359.42 447.82 L 360.89 439.95 L 362.36 440.12 L 363.83 442.25 L 365.31 436.07 L 366.78 443.22 L 368.25 446.92 L 369.72 446.79 L 371.19 454.27 L 372.67 457.61 L 374.14 432.68 L 375.61 432.34 L 377.08 442.89 L 378.56 449.65 L 380.03 445.16 L 381.50 448.54 L 382.97 443.82 L 384.44 452.94 L 385.92 448.82 L 387.39 445.66 L 388.86 445.47 L 390.33 433.55 L 391.81 439.20 L 393.28 454.99 L 394.75 450.52 L 396.22 452.79 L 397.69 454.45 L 399.17 460.30 L 400.64 462.69 L 402.11 457.42 L 403.58 463.13 L 405.06 460.58 L 406.53 448.52 L 408.00 459.76 L 409.47 454.11 L 410.94 453.86 L 412.42 439.78 L 413.89 455.39 L 415.36 443.82 L 416.83 461.30 L 418.31 462.62 L 419.78 453.88 L 421.25 435.59 L 422.72 433.44 L 424.19 443.77 L 425.67 445.87 L 427.14 451.01 L 428.61 446.59 L 430.08 446.26 L 431.56 443.60 L 433.03 442.06 L 434.50 452.11 L 435.97 447.02 L 437.44 441.98 L 438.92 445.25 L 440.39 454.57 L 441.86 456.31 L 443.33 453.29 L 444.81 452.68 L 446.28 453.76 L 447.75 453.02 L 449.22 453.53 L 450.69 453.17 L 452.17 453.15 L 453.64 453.19 L 455.11 453.20 L 456.58 453.26 L 458.06 453.21 L 459.53 453.23 L 461.00 453.29 L 462.47 453.24 L 463.94 453.24 L 465.42 453.25 L 466.89 453.31 L 468.36 453.26 L 469.83 453.24 L 471.31 453.28 L 472.78 453.23 L 474.25 453.27 L 475.72 453.19 L 477.19 453.29 L 478.67 453.31 L 480.14 453.27 L 481.61 453.26 L 483.08 453.23 L 484.56 453.31 L 486.03 453.18 L 487.50 453.27 L 488.97 453.29 L 490.44 453.20 L 491.92 453.26 L 493.39 453.27 L 494.86 453.32 L 496.33 453.24 L 497.81 453.28 L 499.28 453.37 L 500.75 453.27 L 502.22 453.29 L 503.69 453.25 L 505.17 453.30 L 506.64 453.27 L 508.11 453.31 L 509.58 453.27 L 511.06 453.29 L 512.53 453.29 L 514.00 453.37 L 515.47 453.24 L 516.94 453.28 L 518.42 453.28 L 519.89 453.25 L 521.36 453.37 L 522.83 453.30 L 524.31 453.28 L 525.78 453.38 L 527.25 453.34 L 528.72 453.29 L 530.19 453.32 L 531.67 453.30 L 533.14 453.33 L 534.61 453.33 L 536.08 453.30 L 537.56 453.31 L 539.03 453.38 L 540.50 453.29 L 541.97 453.31 L 543.44 453.34 L 544.92 453.30 L 546.39 453.36 L 547.86 453.33 L 549.33 453.30 L 550.81 453.35 L 552.28 453.29 L 553.75 453.28 L 555.22 453.31 L 556.69 453.31 L 558.17 453.37 L 559.64 453.33 L 561.11 453.37 L 562.58 453.13 L 564.06 453.47 L 565.53 453.19 L 567.00 453.31 L 568.47 453.35 L 569.94 453.30 L 571.42 453.39 L 572.89 453.32 L 574.36 453.25 L 575.83 453.36 L 577.31 453.30 L 578.78 453.26 L 580.25 453.32 L 581.72 453.27 L 583.19 453.32 L 584.67 453.37 L 586.14 453.28 L 587.61 453.36 L 589.08 453.35 L 590.56 453.35 L 592.03 453.31 L 593.50 453.29 L 594.97 453.20 L 596.44 453.21 L 597.92 454.81 L 599.39 452.23 L 600.86 454.70 L 602.33 452.88 L 603.81 454.78 L 605.28 451.99 L 606.75 453.69 L 608.22 453.94 L 609.69 455.58 L 611.17 456.17 L 612.64 448.25 L 614.11 452.74 L 615.58 453.09 L 617.06 450.90 L 618.53 445.44 L 620.00 458.31 L 621.47 450.11 L 622.94 461.64 L 624.42 443.07 L 625.89 452.99 L 627.36 451.98 L 628.83 442.02 L 630.31 438.54 L 631.78 458.57 L 633.25 446.39 L 634.72 442.37 L 636.19 445.72 L 637.67 444.77 L 639.14 455.75 L 640.61 452.16 L 642.08 454.40 L 643.56 452.65 L 645.03 449.75 L 646.50 450.59 L 647.97 452.10 L 649.44 447.80 L 650.92 446.23 L 652.39 445.64 L 653.86 445.76 L 655.33 448.11 L 656.81 443.08 L 658.28 439.93 L 659.75 442.63 L 661.22 440.83 L 662.69 443.05 L 664.17 441.67 L 665.64 443.28 L 667.11 441.80 L 668.58 442.64 L 670.06 442.36 L 671.53 442.29 L 673.00 442.45 L 674.47 442.25 L 675.94 442.49 L 677.42 442.21 L 678.89 442.38 L 680.36 442.32 L 681.83 442.34 L 683.31 442.36 L 684.78 442.48 L 686.25 442.34 L 687.72 443.04 L 689.19 442.60 L 690.67 442.42 L 692.14 442.45 L 693.61 442.61 L 695.08 442.80 L 696.56 442.57 L 698.03 442.60 L 699.50 442.68 L 700.97 442.68 L 702.44 442.55 L 703.92 442.60 L 705.39 442.64 L 706.86 442.64 L 708.33 442.64 L 709.81 442.66 L 711.28 442.65 L 712.75 442.65 L 714.22 442.64 L 715.69 442.74 L 717.17 442.29 L 718.64 443.15 L 720.11 443.55 L 721.58 443.39 L 723.06 443.21 L 724.53 443.02 L 726.00 442.91 L 727.47 442.90 L 728.94 442.94 L 730.42 443.09 L 731.89 443.16 L 733.36 443.08 L 734.83 443.08 L 736.31 443.00 L 737.78 443.01 L 739.25 443.07 L 740.72 443.02 L 742.19 443.07 L 743.67 443.02 L 745.14 443.07 L 746.61 443.08 L 748.08 443.23 L 749.56 442.35 L 751.03 442.99 L 752.50 442.74 L 753.97 442.75 L 755.44 442.73 L 756.92 442.73 L 758.39 442.76 L 759.86 442.67 L 761.33 442.69 L 762.81 442.71 L 764.28 442.66 L 765.75 442.73 L 767.22 442.70 L 768.69 442.69 L 770.17 442.72 L 771.64 442.70 L 773.11 442.72 L 774.58 442.71 L 776.06 442.71 L 777.53 442.73 L 779.00 442.71 L 780.47 442.69 L 781.94 442.71 L 783.42 443.08 L 784.89 442.38 L 786.36 442.34 L 787.83 442.42 L 789.31 441.83 L 790.78 442.36 L 792.25 442.32 L 793.72 442.12 L 795.19 442.23 L 796.67 442.29 L 798.14 442.25 L 799.61 442.21 L 801.08 442.26 L 802.56 442.25 L 804.03 442.24 L 805.50 442.23 L 806.97 442.29 L 808.44 442.23 L 809.92 442.24 L 811.39 442.25 L 812.86 442.23 L 814.33 442.26 L 815.81 442.24 L 817.28 442.24 L 818.75 442.39 L 820.22 441.96 L 821.69 440.62 L 823.17 441.50 L 824.64 441.07 L 826.11 441.47 L 827.58 441.08 L 829.06 441.25 L 830.53 441.23 L 832.00 441.16 L 833.47 441.21 L 834.94 441.13 L 836.42 441.16 L 837.89 441.18 L 839.36 441.15 L 840.83 441.13 L 842.31 441.16 L 843.78 441.11 L 845.25 441.21 L 846.72 441.15 L 848.19 441.12 L 849.67 441.17 L 851.14 441.14 L 852.61 441.18 L 854.08 441.16 L 855.56 440.68 L 857.03 441.30 L 858.50 440.74 L 859.97 440.87 L 861.44 440.75 L 862.92 440.91 L 864.39 440.73 L 865.86 440.96 L 867.33 440.74 L 868.81 440.97 L 870.28 440.78 L 871.75 440.82 L 873.22 440.84" stroke="#6A1B9A" />
<line x1="900.00" y1="307.75" x2="918.00" y2="307.75" stroke="#2E7D32" stroke-width="3" />
<text class="small" x="924.00" y="311.75">pitch</text>
<line x1="900.00" y1="323.75" x2="918.00" y2="323.75" stroke="#6A1B9A" stroke-width="3" />
<text class="small" x="924.00" y="327.75">roll</text>
<text x="90" y="500.50" font-size="14" font-weight="700">Aceleração (magnitude) (u.a.)</text>
<rect class="event" x="443.33" y="506.50" width="164.89" height="192.75" />
<line class="eventline" x1="443.33" y1="506.50" x2="443.33" y2="699.25" />
<line class="eventline" x1="608.22" y1="506.50" x2="608.22" y2="699.25" />
<line class="grid" x1="90" y1="699.25" x2="1150" y2="699.25" />
<text class="small" x="80" y="703.25" text-anchor="end">0.00</text>
<line class="grid" x1="90" y1="660.70" x2="1150" y2="660.70" />
<text class="small" x="80" y="664.70" text-anchor="end">0.50</text>
<line class="grid" x1="90" y1="622.15" x2="1150" y2="622.15" />
<text class="small" x="80" y="626.15" text-anchor="end">1.00</text>
<line class="grid" x1="90" y1="583.60" x2="1150" y2="583.60" />
<text class="small" x="80" y="587.60" text-anchor="end">1.50</text>
<line class="grid" x1="90" y1="545.05" x2="1150" y2="545.05" />
<text class="small" x="80" y="549.05" text-anchor="end">2.00</text>
<line class="grid" x1="90" y1="506.50" x2="1150" y2="506.50" />
<text class="small" x="80" y="510.50" text-anchor="end">2.50</text>
<line class="grid" x1="90.00" y1="506.50" x2="90.00" y2="699.25" />
<line class="grid" x1="266.67" y1="506.50" x2="266.67" y2="699.25" />
<line class="grid" x1="443.33" y1="506.50" x2="443.33" y2="699.25" />
<line class="grid" x1="620.00" y1="506.50" x2="620.00" y2="699.25" />
<line class="grid" x1="796.67" y1="506.50" x2="796.67" y2="699.25" />
<line class="grid" x1="973.33" y1="506.50" x2="973.33" y2="699.25" />
<line class="grid" x1="1150.00" y1="506.50" x2="1150.00" y2="699.25" />
<line class="axis" x1="90" y1="506.50" x2="90" y2="699.25" />
<line class="axis" x1="90" y1="699.25" x2="1150" y2="699.25" />
<path class="series" d="M 178.33 677.72 L 179.81 691.04 L 181.28 688.59 L 182.75 692.34 L 184.22 690.11 L 185.69 692.22 L 187.17 686.12 L 188.64 694.06 L 190.11 694.96 L 191.58 694.56 L 193.06 694.92 L 194.53 682.91 L 196.00 693.74 L 197.47 692.83 L 198.94 686.76 L 200.42 680.76 L 201.89 683.12 L 203.36 692.43 L 204.83 680.68 L 206.31 683.68 L 207.78 689.56 L 209.25 685.37 L 210.72 681.00 L 212.19 684.88 L 213.67 685.16 L 215.14 675.06 L 216.61 677.46 L 218.08 673.94 L 219.56 677.64 L 221.03 679.97 L 222.50 675.08 L 223.97 674.56 L 225.44 695.86 L 226.92 672.16 L 228.39 673.42 L 229.86 678.58 L 231.33 657.77 L 232.81 645.56 L 234.28 676.59 L 235.75 673.48 L 237.22 687.28 L 238.69 695.58 L 240.17 620.70 L 241.64 650.36 L 243.11 679.92 L 244.58 669.29 L 246.06 654.54 L 247.53 677.23 L 249.00 676.25 L 250.47 683.97 L 251.94 659.74 L 253.42 693.99 L 254.89 681.50 L 256.36 671.35 L 257.83 677.63 L 259.31 664.07 L 260.78 664.07 L 262.25 670.30 L 263.72 679.52 L 265.19 686.63 L 266.67 696.66 L 268.14 688.45 L 269.61 663.01 L 271.08 685.89 L 272.56 692.45 L 274.03 694.09 L 275.50 669.10 L 276.97 660.43 L 278.44 686.00 L 279.92 661.83 L 281.39 651.50 L 282.86 677.81 L 284.33 678.71 L 285.81 688.09 L 287.28 672.45 L 288.75 692.73 L 290.22 672.52 L 291.69 672.80 L 293.17 657.16 L 294.64 672.98 L 296.11 677.95 L 297.58 644.14 L 299.06 691.27 L 300.53 687.37 L 302.00 691.89 L 303.47 658.43 L 304.94 657.45 L 306.42 651.19 L 307.89 669.03 L 309.36 654.12 L 310.83 674.76 L 312.31 680.26 L 313.78 680.74 L 315.25 662.37 L 316.72 631.32 L 318.19 661.76 L 319.67 651.30 L 321.14 641.56 L 322.61 650.80 L 324.08 629.15 L 325.56 650.63 L 327.03 615.00 L 328.50 652.45 L 329.97 603.11 L 331.44 565.49 L 332.92 618.58 L 334.39 645.31 L 335.86 655.42 L 337.33 658.00 L 338.81 667.11 L 340.28 655.27 L 341.75 662.50 L 343.22 647.23 L 344.69 667.89 L 346.17 666.74 L 347.64 659.50 L 349.11 662.78 L 350.58 681.50 L 352.06 667.49 L 353.53 677.94 L 355.00 690.78 L 356.47 674.17 L 357.94 670.21 L 359.42 677.88 L 360.89 654.06 L 362.36 651.79 L 363.83 636.29 L 365.31 662.99 L 366.78 663.75 L 368.25 659.75 L 369.72 668.51 L 371.19 676.90 L 372.67 678.23 L 374.14 616.77 L 375.61 671.52 L 377.08 651.05 L 378.56 681.74 L 380.03 654.07 L 381.50 663.28 L 382.97 678.59 L 384.44 664.30 L 385.92 649.18 L 387.39 646.25 L 388.86 635.01 L 390.33 642.52 L 391.81 675.70 L 393.28 656.82 L 394.75 666.49 L 396.22 661.47 L 397.69 635.43 L 399.17 647.75 L 400.64 657.94 L 402.11 684.64 L 403.58 679.23 L 405.06 658.79 L 406.53 659.27 L 408.00 677.85 L 409.47 686.17 L 410.94 684.85 L 412.42 679.95 L 413.89 645.90 L 415.36 672.55 L 416.83 678.08 L 418.31 661.99 L 419.78 680.12 L 421.25 672.68 L 422.72 686.62 L 424.19 648.42 L 425.67 659.57 L 427.14 670.92 L 428.61 655.92 L 430.08 639.91 L 431.56 663.45 L 433.03 663.45 L 434.50 685.17 L 435.97 666.83 L 437.44 663.83 L 438.92 687.44 L 440.39 666.60 L 441.86 688.30 L 443.33 683.94 L 444.81 695.41 L 446.28 689.35 L 447.75 697.65 L 449.22 697.85 L 450.69 697.70 L 452.17 697.91 L 453.64 698.31 L 455.11 698.80 L 456.58 698.56 L 458.06 698.75 L 459.53 698.44 L 461.00 698.61 L 462.47 698.72 L 463.94 698.76 L 465.42 699.01 L 466.89 699.09 L 468.36 699.14 L 469.83 698.96 L 471.31 698.96 L 472.78 698.99 L 474.25 699.04 L 475.72 699.05 L 477.19 699.13 L 478.67 699.07 L 480.14 699.07 L 481.61 699.00 L 483.08 699.06 L 484.56 699.08 L 486.03 699.03 L 487.50 699.04 L 488.97 699.09 L 490.44 699.11 L 491.92 699.10 L 493.39 699.05 L 494.86 699.08 L 496.33 699.10 L 497.81 699.06 L 499.28 699.15 L 500.75 699.13 L 502.22 698.98 L 503.69 699.10 L 505.17 699.05 L 506.64 698.89 L 508.11 699.05 L 509.58 698.77 L 511.06 698.96 L 512.53 699.20 L 514.00 698.97 L 515.47 699.04 L 516.94 698.98 L 518.42 698.84 L 519.89 698.92 L 521.36 698.92 L 522.83 699.08 L 524.31 699.11 L 525.78 699.15 L 527.25 699.08 L 528.72 699.09 L 530.19 699.12 L 531.67 699.13 L 533.14 699.07 L 534.61 698.99 L 536.08 699.12 L 537.56 698.95 L 539.03 698.71 L 540.50 699.03 L 541.97 699.20 L 543.44 699.17 L 544.92 699.13 L 546.39 699.13 L 547.86 698.92 L 549.33 699.02 L 550.81 698.90 L 552.28 699.04 L 553.75 699.08 L 555.22 699.04 L 556.69 699.18 L 558.17 699.12 L 559.64 698.69 L 561.11 698.70 L 562.58 698.91 L 564.06 698.98 L 565.53 698.99 L 567.00 699.05 L 568.47 698.95 L 569.94 699.17 L 571.42 699.07 L 572.89 699.05 L 574.36 699.05 L 575.83 699.10 L 577.31 699.13 L 578.78 699.16 L 580.25 699.03 L 581.72 699.06 L 583.19 699.02 L 584.67 697.67 L 586.14 695.76 L 587.61 698.92 L 589.08 698.99 L 590.56 699.08 L 592.03 699.16 L 593.50 699.16 L 594.97 698.59 L 596.44 697.63 L 597.92 685.11 L 599.39 694.41 L 600.86 692.71 L 602.33 695.23 L 603.81 696.48 L 605.28 695.34 L 606.75 687.72 L 608.22 694.15 L 609.69 693.14 L 611.17 692.90 L 612.64 682.85 L 614.11 696.70 L 615.58 682.56 L 617.06 691.36 L 618.53 671.99 L 620.00 682.59 L 621.47 684.65 L 622.94 681.58 L 624.42 667.80 L 625.89 692.08 L 627.36 696.30 L 628.83 657.64 L 630.31 673.50 L 631.78 671.89 L 633.25 686.76 L 634.72 691.63 L 636.19 692.00 L 637.67 685.60 L 639.14 669.14 L 640.61 675.29 L 642.08 686.91 L 643.56 690.91 L 645.03 685.15 L 646.50 681.45 L 647.97 689.13 L 649.44 694.17 L 650.92 688.88 L 652.39 692.84 L 653.86 695.31 L 655.33 693.93 L 656.81 653.50 L 658.28 686.36 L 659.75 694.58 L 661.22 693.33 L 662.69 693.32 L 664.17 693.85 L 665.64 697.56 L 667.11 697.64 L 668.58 698.41 L 670.06 697.66 L 671.53 698.80 L 673.00 698.08 L 674.47 698.65 L 675.94 698.62 L 677.42 698.58 L 678.89 698.48 L 680.36 698.96 L 681.83 699.22 L 683.31 698.88 L 684.78 698.66 L 686.25 695.83 L 687.72 692.89 L 689.19 695.86 L 690.67 698.41 L 692.14 698.60 L 693.61 698.72 L 695.08 698.82 L 696.56 699.06 L 698.03 698.90 L 699.50 699.11 L 700.97 698.97 L 702.44 699.08 L 703.92 699.07 L 705.39 699.13 L 706.86 699.06 L 708.33 699.06 L 709.81 698.92 L 711.28 699.16 L 712.75 699.00 L 714.22 697.02 L 715.69 698.43 L 717.17 695.36 L 718.64 696.28 L 720.11 696.91 L 721.58 698.14 L 723.06 698.25 L 724.53 698.84 L 726.00 698.98 L 727.47 698.96 L 728.94 698.95 L 730.42 699.00 L 731.89 699.07 L 733.36 699.01 L 734.83 699.20 L 736.31 699.12 L 737.78 699.06 L 739.25 698.99 L 740.72 699.04 L 742.19 698.87 L 743.67 699.18 L 745.14 698.92 L 746.61 697.42 L 748.08 698.20 L 749.56 697.71 L 751.03 698.12 L 752.50 698.33 L 753.97 698.78 L 755.44 699.10 L 756.92 699.07 L 758.39 699.02 L 759.86 699.07 L 761.33 699.07 L 762.81 698.96 L 764.28 699.08 L 765.75 699.18 L 767.22 699.17 L 768.69 699.13 L 770.17 699.19 L 771.64 699.09 L 773.11 699.03 L 774.58 699.11 L 776.06 699.16 L 777.53 699.06 L 779.00 699.10 L 780.47 699.09 L 781.94 699.10 L 783.42 697.39 L 784.89 696.57 L 786.36 697.63 L 787.83 697.33 L 789.31 697.89 L 790.78 698.48 L 792.25 698.29 L 793.72 698.71 L 795.19 698.56 L 796.67 698.91 L 798.14 699.13 L 799.61 699.06 L 801.08 699.04 L 802.56 699.10 L 804.03 699.03 L 805.50 698.98 L 806.97 699.04 L 808.44 699.00 L 809.92 698.96 L 811.39 699.05 L 812.86 699.11 L 814.33 699.16 L 815.81 699.13 L 817.28 699.02 L 818.75 698.26 L 820.22 697.17 L 821.69 695.76 L 823.17 697.03 L 824.64 698.07 L 826.11 698.85 L 827.58 698.65 L 829.06 698.68 L 830.53 698.89 L 832.00 698.77 L 833.47 698.90 L 834.94 698.89 L 836.42 698.83 L 837.89 699.07 L 839.36 699.05 L 840.83 698.92 L 842.31 699.03 L 843.78 699.10 L 845.25 699.10 L 846.72 699.04 L 848.19 699.11 L 849.67 699.08 L 851.14 698.79 L 852.61 698.84 L 854.08 698.14 L 855.56 697.21 L 857.03 698.15 L 858.50 697.97 L 859.97 698.54 L 861.44 698.86 L 862.92 699.14 L 864.39 698.72 L 865.86 698.97 L 867.33 698.80 L 868.81 698.97 L 870.28 699.01 L 871.75 698.85 L 873.22 699.02" stroke="#FB8C00" />
<text x="90" y="711.25" font-size="14" font-weight="700">Giroscópio (magnitude) (u.a.)</text>
<rect class="event" x="443.33" y="717.25" width="164.89" height="192.75" />
<line class="eventline" x1="443.33" y1="717.25" x2="443.33" y2="910.00" />
<line class="eventline" x1="608.22" y1="717.25" x2="608.22" y2="910.00" />
<line class="grid" x1="90" y1="910.00" x2="1150" y2="910.00" />
<text class="small" x="80" y="914.00" text-anchor="end">0.00</text>
<line class="grid" x1="90" y1="871.45" x2="1150" y2="871.45" />
<text class="small" x="80" y="875.45" text-anchor="end">0.05</text>
<line class="grid" x1="90" y1="832.90" x2="1150" y2="832.90" />
<text class="small" x="80" y="836.90" text-anchor="end">0.10</text>
<line class="grid" x1="90" y1="794.35" x2="1150" y2="794.35" />
<text class="small" x="80" y="798.35" text-anchor="end">0.15</text>
<line class="grid" x1="90" y1="755.80" x2="1150" y2="755.80" />
<text class="small" x="80" y="759.80" text-anchor="end">0.20</text>
<line class="grid" x1="90" y1="717.25" x2="1150" y2="717.25" />
<text class="small" x="80" y="721.25" text-anchor="end">0.25</text>
<line class="grid" x1="90.00" y1="717.25" x2="90.00" y2="910.00" />
<line class="grid" x1="266.67" y1="717.25" x2="266.67" y2="910.00" />
<line class="grid" x1="443.33" y1="717.25" x2="443.33" y2="910.00" />
<line class="grid" x1="620.00" y1="717.25" x2="620.00" y2="910.00" />
<line class="grid" x1="796.67" y1="717.25" x2="796.67" y2="910.00" />
<line class="grid" x1="973.33" y1="717.25" x2="973.33" y2="910.00" />
<line class="grid" x1="1150.00" y1="717.25" x2="1150.00" y2="910.00" />
<line class="axis" x1="90" y1="717.25" x2="90" y2="910.00" />
<line class="axis" x1="90" y1="910.00" x2="1150" y2="910.00" />
<path class="series" d="M 178.33 905.06 L 179.81 898.30 L 181.28 901.73 L 182.75 906.83 L 184.22 906.30 L 185.69 903.23 L 187.17 905.90 L 188.64 899.40 L 190.11 899.33 L 191.58 900.16 L 193.06 903.88 L 194.53 904.02 L 196.00 899.75 L 197.47 900.52 L 198.94 901.09 L 200.42 891.61 L 201.89 905.71 L 203.36 900.35 L 204.83 905.07 L 206.31 901.39 L 207.78 907.05 L 209.25 899.97 L 210.72 899.11 L 212.19 899.79 L 213.67 895.04 L 215.14 891.47 L 216.61 878.93 L 218.08 874.19 L 219.56 871.30 L 221.03 859.21 L 222.50 861.96 L 223.97 867.84 L 225.44 865.39 L 226.92 864.07 L 228.39 852.51 L 229.86 845.29 L 231.33 868.04 L 232.81 897.55 L 234.28 900.80 L 235.75 905.61 L 237.22 905.95 L 238.69 896.87 L 240.17 893.39 L 241.64 891.37 L 243.11 890.65 L 244.58 892.40 L 246.06 896.86 L 247.53 887.43 L 249.00 898.22 L 250.47 893.97 L 251.94 902.65 L 253.42 899.48 L 254.89 903.95 L 256.36 883.42 L 257.83 870.67 L 259.31 870.69 L 260.78 870.69 L 262.25 875.05 L 263.72 889.18 L 265.19 898.53 L 266.67 900.81 L 268.14 895.83 L 269.61 862.53 L 271.08 844.92 L 272.56 850.44 L 274.03 861.70 L 275.50 868.64 L 276.97 863.45 L 278.44 866.96 L 279.92 877.88 L 281.39 883.22 L 282.86 867.88 L 284.33 902.11 L 285.81 896.62 L 287.28 901.38 L 288.75 891.66 L 290.22 882.32 L 291.69 868.29 L 293.17 874.84 L 294.64 874.54 L 296.11 881.33 L 297.58 881.06 L 299.06 881.10 L 300.53 893.21 L 302.00 895.29 L 303.47 889.69 L 304.94 893.17 L 306.42 891.13 L 307.89 897.36 L 309.36 883.88 L 310.83 887.12 L 312.31 879.28 L 313.78 870.04 L 315.25 877.57 L 316.72 877.58 L 318.19 881.97 L 319.67 880.88 L 321.14 826.45 L 322.61 834.77 L 324.08 822.71 L 325.56 807.72 L 327.03 773.41 L 328.50 785.70 L 329.97 827.41 L 331.44 793.68 L 332.92 885.31 L 334.39 856.27 L 335.86 870.30 L 337.33 874.88 L 338.81 871.57 L 340.28 873.74 L 341.75 888.89 L 343.22 893.01 L 344.69 839.14 L 346.17 865.16 L 347.64 888.88 L 349.11 898.16 L 350.58 876.59 L 352.06 858.43 L 353.53 856.76 L 355.00 865.34 L 356.47 881.03 L 357.94 874.64 L 359.42 895.14 L 360.89 870.88 L 362.36 890.13 L 363.83 860.58 L 365.31 894.56 L 366.78 899.52 L 368.25 864.79 L 369.72 850.62 L 371.19 836.71 L 372.67 847.94 L 374.14 879.53 L 375.61 874.54 L 377.08 899.32 L 378.56 890.04 L 380.03 870.46 L 381.50 900.16 L 382.97 866.99 L 384.44 875.92 L 385.92 893.61 L 387.39 881.80 L 388.86 825.14 L 390.33 763.54 L 391.81 770.49 L 393.28 819.30 L 394.75 845.80 L 396.22 844.29 L 397.69 895.28 L 399.17 850.76 L 400.64 800.09 L 402.11 811.98 L 403.58 824.72 L 405.06 849.10 L 406.53 900.07 L 408.00 886.65 L 409.47 892.90 L 410.94 887.88 L 412.42 892.62 L 413.89 877.02 L 415.36 854.49 L 416.83 872.80 L 418.31 873.19 L 419.78 872.97 L 421.25 871.95 L 422.72 874.77 L 424.19 829.27 L 425.67 772.65 L 427.14 774.07 L 428.61 756.17 L 430.08 764.83 L 431.56 802.29 L 433.03 802.29 L 434.50 824.64 L 435.97 818.36 L 437.44 847.22 L 438.92 880.10 L 440.39 897.17 L 441.86 904.57 L 443.33 905.17 L 444.81 906.40 L 446.28 908.30 L 447.75 908.07 L 449.22 908.18 L 450.69 907.91 L 452.17 908.13 L 453.64 908.26 L 455.11 908.21 L 456.58 908.01 L 458.06 908.14 L 459.53 908.14 L 461.00 908.15 L 462.47 908.14 L 463.94 909.14 L 465.42 909.93 L 466.89 909.90 L 468.36 909.95 L 469.83 909.84 L 471.31 909.78 L 472.78 909.93 L 474.25 909.86 L 475.72 909.84 L 477.19 909.97 L 478.67 909.85 L 480.14 909.89 L 481.61 909.92 L 483.08 909.93 L 484.56 909.90 L 486.03 909.80 L 487.50 909.87 L 488.97 909.86 L 490.44 909.81 L 491.92 909.78 L 493.39 909.73 L 494.86 909.91 L 496.33 909.84 L 497.81 909.90 L 499.28 909.83 L 500.75 909.88 L 502.22 909.89 L 503.69 909.75 L 505.17 909.86 L 506.64 909.84 L 508.11 909.90 L 509.58 909.83 L 511.06 909.76 L 512.53 909.86 L 514.00 909.92 L 515.47 909.80 L 516.94 909.89 L 518.42 909.88 L 519.89 909.96 L 521.36 909.85 L 522.83 909.77 L 524.31 909.78 L 525.78 909.82 L 527.25 909.82 L 528.72 909.86 L 530.19 909.89 L 531.67 909.85 L 533.14 909.72 L 534.61 909.74 L 536.08 909.87 L 537.56 909.77 L 539.03 909.88 L 540.50 909.78 L 541.97 909.78 L 543.44 909.83 L 544.92 909.90 L 546.39 909.89 L 547.86 909.80 L 549.33 909.74 L 550.81 909.83 L 552.28 909.84 L 553.75 909.93 L 555.22 909.79 L 556.69 909.81 L 558.17 909.74 L 559.64 909.83 L 561.11 909.74 L 562.58 909.69 L 564.06 909.90 L 565.53 909.78 L 567.00 909.85 L 568.47 909.77 L 569.94 909.82 L 571.42 909.69 L 572.89 909.82 L 574.36 909.81 L 575.83 909.72 L 577.31 909.69 L 578.78 909.83 L 580.25 909.80 L 581.72 909.79 L 583.19 909.82 L 584.67 909.66 L 586.14 909.74 L 587.61 909.77 L 589.08 909.86 L 590.56 909.82 L 592.03 909.81 L 593.50 909.81 L 594.97 909.84 L 596.44 908.95 L 597.92 908.17 L 599.39 908.88 L 600.86 908.32 L 602.33 908.48 L 603.81 908.28 L 605.28 907.55 L 606.75 906.45 L 608.22 905.09 L 609.69 904.59 L 611.17 901.59 L 612.64 905.79 L 614.11 906.88 L 615.58 901.81 L 617.06 903.65 L 618.53 897.14 L 620.00 899.45 L 621.47 896.55 L 622.94 871.50 L 624.42 850.35 L 625.89 849.28 L 627.36 852.91 L 628.83 859.42 L 630.31 875.20 L 631.78 876.33 L 633.25 867.60 L 634.72 877.01 L 636.19 884.23 L 637.67 898.69 L 639.14 903.94 L 640.61 904.10 L 642.08 899.36 L 643.56 898.91 L 645.03 905.10 L 646.50 897.39 L 647.97 896.20 L 649.44 897.43 L 650.92 897.80 L 652.39 900.90 L 653.86 902.69 L 655.33 901.96 L 656.81 902.68 L 658.28 906.95 L 659.75 907.09 L 661.22 906.43 L 662.69 906.20 L 664.17 908.06 L 665.64 908.09 L 667.11 908.11 L 668.58 908.15 L 670.06 908.15 L 671.53 908.11 L 673.00 908.11 L 674.47 908.08 L 675.94 908.10 L 677.42 908.02 L 678.89 908.59 L 680.36 909.77 L 681.83 909.84 L 683.31 909.87 L 684.78 909.54 L 686.25 907.79 L 687.72 907.37 L 689.19 909.34 L 690.67 909.67 L 692.14 909.70 L 693.61 909.73 L 695.08 909.85 L 696.56 909.94 L 698.03 909.82 L 699.50 909.88 L 700.97 909.82 L 702.44 909.76 L 703.92 909.92 L 705.39 909.87 L 706.86 909.94 L 708.33 909.91 L 709.81 909.94 L 711.28 909.83 L 712.75 909.85 L 714.22 909.68 L 715.69 909.06 L 717.17 906.81 L 718.64 908.40 L 720.11 909.61 L 721.58 909.66 L 723.06 909.82 L 724.53 909.83 L 726.00 909.85 L 727.47 909.79 L 728.94 909.91 L 730.42 909.92 L 731.89 909.80 L 733.36 909.67 L 734.83 909.74 L 736.31 909.78 L 737.78 909.77 L 739.25 909.74 L 740.72 909.73 L 742.19 909.74 L 743.67 909.81 L 745.14 909.72 L 746.61 908.94 L 748.08 908.66 L 749.56 909.78 L 751.03 909.91 L 752.50 909.73 L 753.97 909.77 L 755.44 909.73 L 756.92 909.74 L 758.39 909.65 L 759.86 909.76 L 761.33 909.76 L 762.81 909.77 L 764.28 909.83 L 765.75 909.88 L 767.22 909.93 L 768.69 909.94 L 770.17 909.93 L 771.64 909.93 L 773.11 909.90 L 774.58 909.80 L 776.06 909.89 L 777.53 909.71 L 779.00 909.67 L 780.47 909.67 L 781.94 909.56 L 783.42 908.87 L 784.89 909.72 L 786.36 907.73 L 787.83 909.07 L 789.31 909.38 L 790.78 909.38 L 792.25 909.62 L 793.72 909.71 L 795.19 909.63 L 796.67 909.53 L 798.14 909.76 L 799.61 909.77 L 801.08 909.59 L 802.56 909.74 L 804.03 909.88 L 805.50 909.83 L 806.97 909.85 L 808.44 909.90 L 809.92 909.94 L 811.39 909.84 L 812.86 909.79 L 814.33 909.93 L 815.81 909.90 L 817.28 909.80 L 818.75 909.90 L 820.22 907.96 L 821.69 906.53 L 823.17 909.00 L 824.64 909.87 L 826.11 909.67 L 827.58 909.96 L 829.06 909.86 L 830.53 909.82 L 832.00 909.93 L 833.47 909.88 L 834.94 909.90 L 836.42 909.91 L 837.89 909.94 L 839.36 909.93 L 840.83 909.86 L 842.31 909.84 L 843.78 909.92 L 845.25 909.93 L 846.72 909.86 L 848.19 909.88 L 849.67 909.89 L 851.14 909.76 L 852.61 909.77 L 854.08 909.48 L 855.56 908.32 L 857.03 909.63 L 858.50 909.73 L 859.97 909.78 L 861.44 909.86 L 862.92 909.85 L 864.39 909.94 L 865.86 909.89 L 867.33 909.91 L 868.81 909.84 L 870.28 909.95 L 871.75 909.88 L 873.22 909.83" stroke="#E53935" />
<text x="620.00" y="952" font-size="15" text-anchor="middle">minutos (relativo ao início do evento)</text>
<text class="small" x="90.00" y="936" text-anchor="middle">-4.00</text>
<text class="small" x="266.67" y="936" text-anchor="middle">-2.00</text>
<text class="small" x="443.33" y="936" text-anchor="middle">0.00</text>
<text class="small" x="620.00" y="936" text-anchor="middle">2.00</text>
<text class="small" x="796.67" y="936" text-anchor="middle">4.00</text>
<text class="small" x="973.33" y="936" text-anchor="middle">6.00</text>
<text class="small" x="1150.00" y="936" text-anchor="middle">8.00</text>
</svg>