<?xml version="1.0" encoding="UTF-8"?>
<svg xmlns="http://www.w3.org/2000/svg" width="1180" height="980" viewBox="0 0 1180 980">
<style>
text { font-family: -apple-system, BlinkMacSystemFont, 'Segoe UI', Roboto, Helvetica, Arial, sans-serif; fill: #111; }
.small { font-size: 12px; fill: #222; }
.title { font-size: 18px; font-weight: 700; }
.axis { stroke: #111; stroke-width: 1.4; }
.grid { stroke: #E6E6E6; stroke-width: 1; }
.event { fill: #FFEB3B; fill-opacity: 0.18; }
.eventline { stroke: #F9A825; stroke-width: 1.2; stroke-dasharray: 4 3; }
.series { fill: none; stroke-width: 1.8; }
</style>
<text class="title" x="90" y="34">ciclo 31 — carregamento — 2025-12-13T05:35:31-03:00 → 2025-12-13T05:38:05-03:00 (span 154s, dur 155s)</text>
<text class="small" x="90" y="54">GPS: -11.698941,-47.157193  hotspot: -11.699,-47.157</text>
<text class="small" x="90" y="70">Janela: -3.00 → 5.57 min (relativo ao início do evento)</text>
<text x="90" y="79.00" font-size="14" font-weight="700">Velocidade (km/h)</text>
<rect class="event" x="443.33" y="85.00" width="226.72" height="192.75" />
<line class="eventline" x1="443.33" y1="85.00" x2="443.33" y2="277.75" />
<line class="eventline" x1="670.06" y1="85.00" x2="670.06" y2="277.75" />
<line class="grid" x1="90" y1="277.75" x2="1150" y2="277.75" />
<text class="small" x="80" y="281.75" text-anchor="end">0.00</text>
<line class="grid" x1="90" y1="239.20" x2="1150" y2="239.20" />
<text class="small" x="80" y="243.20" text-anchor="end">10.0</text>
<line class="grid" x1="90" y1="200.65" x2="1150" y2="200.65" />
<text class="small" x="80" y="204.65" text-anchor="end">20.0</text>
<line class="grid" x1="90" y1="162.10" x2="1150" y2="162.10" />
<text class="small" x="80" y="166.10" text-anchor="end">30.0</text>
<line class="grid" x1="90" y1="123.55" x2="1150" y2="123.55" />
<text class="small" x="80" y="127.55" text-anchor="end">40.0</text>
<line class="grid" x1="90" y1="85.00" x2="1150" y2="85.00" />
<text class="small" x="80" y="89.00" text-anchor="end">50.0</text>
<line class="grid" x1="90.00" y1="85.00" x2="90.00" y2="277.75" />
<line class="grid" x1="266.67" y1="85.00" x2="266.67" y2="277.75" />
<line class="grid" x1="443.33" y1="85.00" x2="443.33" y2="277.75" />
<line class="grid" x1="620.00" y1="85.00" x2="620.00" y2="277.75" />
<line class="grid" x1="796.67" y1="85.00" x2="796.67" y2="277.75" />
<line class="grid" x1="973.33" y1="85.00" x2="973.33" y2="277.75" />
<line class="grid" x1="1150.00" y1="85.00" x2="1150.00" y2="277.75" />
<line class="axis" x1="90" y1="85.00" x2="90" y2="277.75" />
<line class="axis" x1="90" y1="277.75" x2="1150" y2="277.75" />
<path class="series" d="M 178.33 202.11 L 179.81 200.03 L 181.28 212.11 L 182.75 208.64 L 184.22 208.92 L 185.69 215.58 L 187.17 216.13 L 188.64 216.27 L 190.11 215.85 L 191.58 217.38 L 193.06 218.77 L 194.53 218.77 L 196.00 221.82 L 197.47 219.05 L 198.94 224.60 L 200.42 220.02 L 201.89 225.29 L 203.36 234.31 L 204.83 236.39 L 206.31 243.33 L 207.78 242.64 L 209.25 247.08 L 210.72 249.72 L 212.19 250.69 L 213.67 250.97 L 215.14 251.24 L 216.61 250.69 L 218.08 250.69 L 219.56 251.38 L 221.03 251.52 L 222.50 253.46 L 223.97 256.10 L 225.44 256.10 L 226.92 252.77 L 228.39 254.43 L 229.86 252.35 L 231.33 257.49 L 232.81 254.43 L 234.28 256.38 L 235.75 252.77 L 237.22 255.13 L 238.69 256.52 L 240.17 254.57 L 241.64 256.24 L 243.11 255.27 L 244.58 256.52 L 246.06 259.71 L 247.53 254.99 L 249.00 255.41 L 250.47 255.27 L 251.94 253.32 L 253.42 252.08 L 254.89 253.74 L 256.36 252.63 L 257.83 252.21 L 259.31 254.85 L 260.78 254.99 L 262.25 257.63 L 263.72 264.98 L 265.19 267.76 L 266.67 269.15 L 268.14 271.92 L 269.61 277.75 L 271.08 277.75 L 272.56 277.75 L 274.03 277.75 L 275.50 277.75 L 276.97 277.75 L 278.44 277.75 L 279.92 277.75 L 281.39 277.75 L 282.86 277.75 L 284.33 277.75 L 285.81 277.75 L 287.28 277.75 L 288.75 277.75 L 290.22 277.75 L 291.69 277.75 L 293.17 277.75 L 294.64 277.75 L 296.11 277.75 L 297.58 277.75 L 299.06 277.75 L 300.53 277.75 L 302.00 277.75 L 303.47 277.75 L 304.94 277.75 L 306.42 277.75 L 307.89 277.75 L 309.36 277.75 L 310.83 277.75 L 312.31 277.75 L 313.78 277.75 L 315.25 277.75 L 316.72 277.75 L 318.19 277.75 L 319.67 277.75 L 321.14 277.75 L 322.61 277.75 L 324.08 277.75 L 325.56 277.75 L 327.03 277.75 L 328.50 277.75 L 329.97 277.75 L 331.44 277.75 L 332.92 277.75 L 334.39 277.75 L 335.86 277.75 L 337.33 277.75 L 338.81 277.75 L 340.28 277.75 L 341.75 277.75 L 343.22 277.75 L 344.69 277.75 L 346.17 277.75 L 347.64 277.75 L 349.11 277.75 L 350.58 277.75 L 352.06 277.75 L 353.53 277.75 L 355.00 277.75 L 356.47 277.75 L 357.94 277.75 L 359.42 277.75 L 360.89 277.75 L 362.36 277.75 L 363.83 277.75 L 365.31 277.75 L 366.78 277.75 L 368.25 277.75 L 369.72 277.75 L 371.19 277.75 L 372.67 277.75 L 374.14 277.75 L 375.61 277.75 L 377.08 277.75 L 378.56 277.75 L 380.03 277.75 L 381.50 277.75 L 382.97 277.75 L 384.44 277.75 L 385.92 277.75 L 387.39 277.75 L 388.86 277.75 L 390.33 277.75 L 391.81 277.75 L 393.28 277.75 L 394.75 277.75 L 396.22 277.75 L 397.69 277.75 L 399.17 277.75 L 400.64 277.75 L 402.11 277.75 L 403.58 277.75 L 405.06 277.75 L 406.53 277.75 L 408.00 277.75 L 409.47 277.75 L 410.94 266.65 L 412.42 265.95 L 413.89 265.68 L 415.36 262.76 L 416.83 261.65 L 418.31 264.57 L 419.78 261.51 L 421.25 262.48 L 422.72 261.79 L 424.19 263.59 L 425.67 264.43 L 427.14 264.43 L 428.61 264.57 L 430.08 264.84 L 431.56 266.79 L 433.03 267.20 L 434.50 268.04 L 435.97 269.28 L 437.44 270.95 L 438.92 270.26 L 440.39 268.87 L 441.86 271.23 L 443.33 277.75 L 444.81 277.75 L 446.28 277.75 L 447.75 277.75 L 449.22 277.75 L 450.69 277.75 L 452.17 277.75 L 453.64 277.75 L 455.11 277.75 L 456.58 277.75 L 458.06 277.75 L 459.53 277.75 L 461.00 277.75 L 462.47 277.75 L 463.94 277.75 L 465.42 277.75 L 466.89 277.75 L 468.36 277.75 L 469.83 277.75 L 471.31 277.75 L 472.78 277.75 L 474.25 277.75 L 475.72 277.75 L 477.19 277.75 L 478.67 277.75 L 480.14 277.75 L 481.61 277.75 L 483.08 277.75 L 484.56 277.75 L 486.03 277.75 L 487.50 277.75 L 488.97 277.75 L 490.44 277.75 L 491.92 277.75 L 493.39 277.75 L 494.86 277.75 L 496.33 277.75 L 497.81 277.75 L 499.28 277.75 L 500.75 277.75 L 502.22 277.75 L 503.69 277.75 L 505.17 277.75 L 506.64 277.75 L 508.11 277.75 L 509.58 277.75 L 511.06 277.75 L 512.53 277.75 L 514.00 277.75 L 515.47 277.75 L 516.94 277.75 L 518.42 277.75 L 519.89 277.75 L 521.36 277.75 L 522.83 277.75 L 524.31 277.75 L 525.78 277.75 L 527.25 277.75 L 528.72 277.75 L 530.19 277.75 L 531.67 277.75 L 533.14 277.75 L 534.61 277.75 L 536.08 277.75 L 537.56 277.75 L 539.03 277.75 L 540.50 277.75 L 541.97 277.75 L 543.44 277.75 L 544.92 277.75 L 546.39 277.75 L 547.86 277.75 L 549.33 277.75 L 550.81 277.75 L 552.28 277.75 L 553.75 277.75 L 555.22 277.75 L 556.69 277.75 L 558.17 277.75 L 559.64 277.75 L 561.11 277.75 L 562.58 277.75 L 564.06 277.75 L 565.53 277.75 L 567.00 277.75 L 568.47 277.75 L 569.94 277.75 L 571.42 277.75 L 572.89 277.75 L 574.36 277.75 L 575.83 277.75 L 577.31 277.75 L 578.78 277.75 L 580.25 277.75 L 581.72 277.75 L 583.19 277.75 L 584.67 277.75 L 586.14 277.75 L 587.61 277.75 L 589.08 277.75 L 590.56 277.75 L 592.03 277.75 L 593.50 277.75 L 594.97 277.75 L 596.44 277.75 L 597.92 277.75 L 599.39 277.75 L 600.86 277.75 L 602.33 277.75 L 603.81 277.75 L 605.28 277.75 L 606.75 277.75 L 608.22 277.75 L 609.69 277.75 L 611.17 277.75 L 612.64 277.75 L 614.11 277.75 L 615.58 277.75 L 617.06 277.75 L 618.53 277.75 L 620.00 277.75 L 621.47 277.75 L 622.94 277.75 L 624.42 277.75 L 625.89 277.75 L 627.36 277.75 L 628.83 277.75 L 630.31 277.75 L 631.78 277.75 L 633.25 277.75 L 634.72 277.75 L 636.19 277.75 L 637.67 277.75 L 639.14 277.75 L 640.61 277.75 L 642.08 277.75 L 643.56 277.75 L 645.03 277.75 L 646.50 277.75 L 647.97 277.75 L 649.44 277.75 L 650.92 277.75 L 652.39 277.75 L 653.86 277.75 L 655.33 277.75 L 656.81 277.75 L 658.28 277.75 L 659.75 277.75 L 661.22 277.75 L 662.69 277.75 L 664.17 277.75 L 665.64 277.75 L 667.11 277.75 L 668.58 277.75 L 670.06 277.75 L 671.53 261.93 L 673.00 262.62 L 674.47 254.43 L 675.94 250.97 L 677.42 249.58 L 678.89 247.22 L 680.36 246.52 L 681.83 243.06 L 683.31 245.14 L 684.78 243.75 L 686.25 242.50 L 687.72 239.45 L 689.19 237.37 L 690.67 235.14 L 692.14 235.98 L 693.61 237.50 L 695.08 234.59 L 696.56 228.07 L 698.03 224.18 L 699.50 223.63 L 700.97 225.43 L 702.44 228.62 L 703.92 232.23 L 705.39 234.73 L 706.86 238.48 L 708.33 234.45 L 709.81 233.62 L 711.28 227.51 L 712.75 224.32 L 714.22 222.24 L 715.69 219.60 L 717.17 214.61 L 718.64 213.36 L 720.11 210.30 L 721.58 207.11 L 723.06 207.94 L 724.53 205.31 L 726.00 207.80 L 727.47 208.64 L 728.94 209.19 L 730.42 210.72 L 731.89 212.80 L 733.36 210.03 L 734.83 204.89 L 736.31 202.67 L 737.78 199.48 L 739.25 197.67 L 740.72 196.29 L 742.19 196.15 L 743.67 191.15 L 745.14 190.04 L 746.61 185.74 L 748.08 182.55 L 749.56 178.66 L 751.03 174.64 L 752.50 168.81 L 753.97 170.89 L 755.44 167.70 L 756.92 167.28 L 758.39 164.23 L 759.86 176.58 L 761.33 178.24 L 762.81 170.33 L 764.28 165.06 L 765.75 161.73 L 767.22 161.87 L 768.69 162.98 L 770.17 176.02 L 771.64 192.26 L 773.11 208.36 L 774.58 223.76 L 776.06 232.09 L 777.53 234.31 L 779.00 232.09 L 780.47 230.29 L 781.94 227.79 L 783.42 226.68 L 784.89 226.40 L 786.36 221.27 L 787.83 216.83 L 789.31 213.49 L 790.78 213.22 L 792.25 210.86 L 793.72 214.19 L 795.19 217.66 L 796.67 220.02 L 798.14 222.79 L 799.61 225.57 L 801.08 228.76 L 802.56 229.87 L 804.03 230.98 L 805.50 231.40 L 806.97 231.81 L 808.44 232.65 L 809.92 232.92 L 811.39 233.48 L 812.86 233.76 L 814.33 234.17 L 815.81 234.17 L 817.28 235.42 L 818.75 236.25 L 820.22 237.09 L 821.69 238.06 L 823.17 240.56 L 824.64 242.22 L 826.11 246.52 L 827.58 244.30 L 829.06 245.28 L 830.53 245.97 L 832.00 248.33 L 833.47 250.97 L 834.94 250.97 L 836.42 251.80 L 837.89 253.88 L 839.36 259.01 L 840.83 260.54 L 842.31 257.21 L 843.78 257.49 L 845.25 255.41 L 846.72 254.85 L 848.19 253.19 L 849.67 253.32 L 851.14 253.19 L 852.61 254.16 L 854.08 254.02 L 855.56 252.63 L 857.03 251.52 L 858.50 250.69 L 859.97 250.55 L 861.44 249.16 L 862.92 248.19 L 864.39 247.91 L 865.86 247.08 L 867.33 250.13 L 868.81 247.08 L 870.28 249.02 L 871.75 246.94 L 873.22 246.80 L 874.69 248.05 L 876.17 245.69 L 877.64 246.39 L 879.11 245.41 L 880.58 244.30 L 882.06 243.33 L 883.53 242.92 L 885.00 242.92 L 886.47 241.67 L 887.94 236.12 L 889.42 231.68 L 890.89 226.26 L 892.36 223.90 L 893.83 218.77 L 895.31 214.19 L 896.78 208.36 L 898.25 203.78 L 899.72 201.28 L 901.19 196.84 L 902.67 195.04 L 904.14 187.82 L 905.61 184.49 L 907.08 178.66 L 908.56 175.89 L 910.03 173.25 L 911.50 169.22 L 912.97 167.98 L 914.44 163.53 L 915.92 160.48 L 917.39 156.18 L 918.86 154.65 L 920.33 150.07 L 921.81 149.79 L 923.28 147.30 L 924.75 146.19 L 926.22 146.19 L 927.69 148.82 L 929.17 150.77 L 930.64 149.66 L 932.11 153.96 L 933.58 150.91 L 935.06 147.30" stroke="#1976D2" />
<text x="90" y="289.75" font-size="14" font-weight="700">Inclinação (graus)</text>
<rect class="event" x="443.33" y="295.75" width="226.72" height="192.75" />
<line class="eventline" x1="443.33" y1="295.75" x2="443.33" y2="488.50" />
<line class="eventline" x1="670.06" y1="295.75" x2="670.06" y2="488.50" />
<line class="grid" x1="90" y1="488.50" x2="1150" y2="488.50" />
<text class="small" x="80" y="492.50" text-anchor="end">-20.0</text>
<line class="grid" x1="90" y1="449.95" x2="1150" y2="449.95" />
<text class="small" x="80" y="453.95" text-anchor="end">-10.0</text>
<line class="grid" x1="90" y1="411.40" x2="1150" y2="411.40" />
<text class="small" x="80" y="415.40" text-anchor="end">0.00</text>
<line class="grid" x1="90" y1="372.85" x2="1150" y2="372.85" />
<text class="small" x="80" y="376.85" text-anchor="end">10.0</text>
<line class="grid" x1="90" y1="334.30" x2="1150" y2="334.30" />
<text class="small" x="80" y="338.30" text-anchor="end">20.0</text>
<line class="grid" x1="90" y1="295.75" x2="1150" y2="295.75" />
<text class="small" x="80" y="299.75" text-anchor="end">30.0</text>
<line class="grid" x1="90.00" y1="295.75" x2="90.00" y2="488.50" />
<line class="grid" x1="266.67" y1="295.75" x2="266.67" y2="488.50" />
<line class="grid" x1="443.33" y1="295.75" x2="443.33" y2="488.50" />
<line class="grid" x1="620.00" y1="295.75" x2="620.00" y2="488.50" />
<line class="grid" x1="796.67" y1="295.75" x2="796.67" y2="488.50" />
<line class="grid" x1="973.33" y1="295.75" x2="973.33" y2="488.50" />
<line class="grid" x1="1150.00" y1="295.75" x2="1150.00" y2="488.50" />
<line class="axis" x1="90" y1="295.75" x2="90" y2="488.50" />
<line class="axis" x1="90" y1="488.50" x2="1150" y2="488.50" />
<path class="series" d="M 178.33 362.27 L 179.81 357.33 L 181.28 349.91 L 182.75 361.33 L 184.22 362.57 L 185.69 356.10 L 187.17 362.67 L 188.64 372.14 L 190.11 377.09 L 191.58 372.84 L 193.06 379.48 L 194.53 384.22 L 196.00 376.35 L 197.47 372.19 L 198.94 366.32 L 200.42 361.81 L 201.89 358.86 L 203.36 353.02 L 204.83 356.67 L 206.31 361.64 L 207.78 362.52 L 209.25 377.69 L 210.72 378.03 L 212.19 379.07 L 213.67 380.78 L 215.14 379.24 L 216.61 373.67 L 218.08 363.88 L 219.56 363.98 L 221.03 346.91 L 222.50 356.63 L 223.97 354.80 L 225.44 357.24 L 226.92 355.90 L 228.39 360.45 L 229.86 352.16 L 231.33 353.77 L 232.81 352.47 L 234.28 361.52 L 235.75 361.75 L 237.22 374.56 L 238.69 383.15 L 240.17 375.84 L 241.64 364.03 L 243.11 349.84 L 244.58 349.07 L 246.06 344.76 L 247.53 336.33 L 249.00 346.99 L 250.47 353.55 L 251.94 354.59 L 253.42 362.86 L 254.89 364.18 L 256.36 365.79 L 257.83 361.23 L 259.31 357.44 L 260.78 351.05 L 262.25 348.90 L 263.72 352.44 L 265.19 355.40 L 266.67 351.68 L 268.14 348.85 L 269.61 352.72 L 271.08 355.34 L 272.56 355.36 L 274.03 355.38 L 275.50 355.43 L 276.97 355.34 L 278.44 355.42 L 279.92 355.39 L 281.39 355.38 L 282.86 355.42 L 284.33 355.42 L 285.81 355.39 L 287.28 355.40 L 288.75 355.41 L 290.22 355.42 L 291.69 355.37 L 293.17 355.36 L 294.64 355.41 L 296.11 355.39 L 297.58 355.40 L 299.06 355.33 L 300.53 355.42 L 302.00 355.34 L 303.47 355.32 L 304.94 355.37 L 306.42 355.39 L 307.89 355.37 L 309.36 355.34 L 310.83 355.31 L 312.31 355.31 L 313.78 355.33 L 315.25 355.36 L 316.72 355.38 L 318.19 355.41 L 319.67 355.34 L 321.14 355.40 L 322.61 355.36 L 324.08 355.37 L 325.56 355.34 L 327.03 355.38 L 328.50 355.37 L 329.97 355.36 L 331.44 355.30 L 332.92 355.31 L 334.39 355.33 L 335.86 355.40 L 337.33 355.38 L 338.81 355.39 L 340.28 355.40 L 341.75 355.30 L 343.22 355.24 L 344.69 355.36 L 346.17 355.33 L 347.64 355.29 L 349.11 355.28 L 350.58 355.26 L 352.06 355.30 L 353.53 355.33 L 355.00 355.33 L 356.47 355.26 L 357.94 355.31 L 359.42 355.32 L 360.89 355.31 L 362.36 355.35 L 363.83 355.37 L 365.31 355.33 L 366.78 355.32 L 368.25 355.28 L 369.72 355.33 L 371.19 355.35 L 372.67 355.29 L 374.14 355.34 L 375.61 355.30 L 377.08 355.28 L 378.56 355.26 L 380.03 355.28 L 381.50 355.31 L 382.97 355.32 L 384.44 355.27 L 385.92 355.32 L 387.39 355.30 L 388.86 355.42 L 390.33 355.41 L 391.81 355.40 L 393.28 355.50 L 394.75 355.57 L 396.22 355.49 L 397.69 355.49 L 399.17 355.55 L 400.64 355.56 L 402.11 355.44 L 403.58 355.37 L 405.06 352.69 L 406.53 348.58 L 408.00 354.66 L 409.47 354.11 L 410.94 349.80 L 412.42 360.01 L 413.89 350.93 L 415.36 359.52 L 416.83 367.86 L 418.31 366.29 L 419.78 370.96 L 421.25 368.97 L 422.72 373.01 L 424.19 371.97 L 425.67 372.78 L 427.14 373.40 L 428.61 372.87 L 430.08 371.73 L 431.56 371.64 L 433.03 372.08 L 434.50 371.19 L 435.97 373.65 L 437.44 369.87 L 438.92 366.44 L 440.39 367.13 L 441.86 366.36 L 443.33 364.36 L 444.81 364.00 L 446.28 362.58 L 447.75 361.88 L 449.22 365.17 L 450.69 364.33 L 452.17 363.57 L 453.64 358.93 L 455.11 359.23 L 456.58 358.31 L 458.06 358.46 L 459.53 358.39 L 461.00 358.47 L 462.47 358.50 L 463.94 358.28 L 465.42 358.41 L 466.89 358.45 L 468.36 358.38 L 469.83 358.37 L 471.31 358.41 L 472.78 358.37 L 474.25 358.42 L 475.72 358.38 L 477.19 358.38 L 478.67 358.37 L 480.14 358.45 L 481.61 358.36 L 483.08 358.37 L 484.56 358.38 L 486.03 359.10 L 487.50 357.73 L 488.97 358.51 L 490.44 357.47 L 491.92 358.07 L 493.39 357.82 L 494.86 357.92 L 496.33 357.95 L 497.81 357.90 L 499.28 357.90 L 500.75 357.84 L 502.22 357.84 L 503.69 357.82 L 505.17 357.81 L 506.64 357.81 L 508.11 357.84 L 509.58 357.81 L 511.06 357.84 L 512.53 357.79 L 514.00 357.76 L 515.47 357.79 L 516.94 357.16 L 518.42 357.72 L 519.89 357.32 L 521.36 357.64 L 522.83 357.38 L 524.31 357.45 L 525.78 357.44 L 527.25 357.45 L 528.72 357.46 L 530.19 357.42 L 531.67 357.38 L 533.14 357.36 L 534.61 357.41 L 536.08 357.35 L 537.56 357.36 L 539.03 357.33 L 540.50 358.32 L 541.97 356.29 L 543.44 356.73 L 544.92 356.49 L 546.39 357.20 L 547.86 356.72 L 549.33 357.02 L 550.81 356.83 L 552.28 356.96 L 553.75 356.85 L 555.22 356.93 L 556.69 356.86 L 558.17 356.86 L 559.64 356.89 L 561.11 356.86 L 562.58 356.83 L 564.06 356.83 L 565.53 356.81 L 567.00 356.78 L 568.47 356.85 L 569.94 357.18 L 571.42 355.87 L 572.89 357.27 L 574.36 355.98 L 575.83 356.66 L 577.31 356.77 L 578.78 356.54 L 580.25 356.66 L 581.72 356.61 L 583.19 356.55 L 584.67 356.64 L 586.14 356.60 L 587.61 356.62 L 589.08 356.57 L 590.56 356.58 L 592.03 356.51 L 593.50 356.59 L 594.97 356.54 L 596.44 356.59 L 597.92 356.55 L 599.39 356.57 L 600.86 356.59 L 602.33 356.44 L 603.81 356.60 L 605.28 357.90 L 606.75 357.57 L 608.22 357.84 L 609.69 357.69 L 611.17 357.58 L 612.64 357.59 L 614.11 357.73 L 615.58 357.58 L 617.06 357.57 L 618.53 357.57 L 620.00 357.64 L 621.47 357.68 L 622.94 357.63 L 624.42 357.64 L 625.89 357.62 L 627.36 357.64 L 628.83 357.62 L 630.31 357.65 L 631.78 357.68 L 633.25 357.49 L 634.72 358.29 L 636.19 358.84 L 637.67 358.69 L 639.14 358.76 L 640.61 358.76 L 642.08 358.67 L 643.56 358.67 L 645.03 358.68 L 646.50 358.76 L 647.97 358.71 L 649.44 358.68 L 650.92 358.71 L 652.39 358.73 L 653.86 358.74 L 655.33 358.64 L 656.81 358.74 L 658.28 359.02 L 659.75 358.36 L 661.22 358.93 L 662.69 359.07 L 664.17 358.95 L 665.64 358.80 L 667.11 360.10 L 668.58 373.02 L 670.06 370.38 L 671.53 369.18 L 673.00 374.34 L 674.47 376.86 L 675.94 375.60 L 677.42 373.32 L 678.89 379.99 L 680.36 376.96 L 681.83 376.26 L 683.31 375.92 L 684.78 373.15 L 686.25 366.79 L 687.72 361.86 L 689.19 366.48 L 690.67 366.91 L 692.14 369.18 L 693.61 361.68 L 695.08 366.23 L 696.56 369.24 L 698.03 366.06 L 699.50 363.19 L 700.97 360.46 L 702.44 359.23 L 703.92 362.07 L 705.39 367.78 L 706.86 369.84 L 708.33 370.78 L 709.81 375.90 L 711.28 374.93 L 712.75 367.62 L 714.22 373.02 L 715.69 371.70 L 717.17 374.89 L 718.64 374.96 L 720.11 369.06 L 721.58 370.47 L 723.06 371.45 L 724.53 369.91 L 726.00 371.09 L 727.47 369.95 L 728.94 373.96 L 730.42 374.53 L 731.89 369.69 L 733.36 375.40 L 734.83 376.34 L 736.31 372.08 L 737.78 371.87 L 739.25 375.79 L 740.72 374.34 L 742.19 373.08 L 743.67 373.48 L 745.14 372.62 L 746.61 370.18 L 748.08 371.34 L 749.56 372.34 L 751.03 368.11 L 752.50 371.49 L 753.97 370.99 L 755.44 370.69 L 756.92 366.19 L 758.39 358.97 L 759.86 361.12 L 761.33 362.35 L 762.81 372.47 L 764.28 366.69 L 765.75 365.97 L 767.22 369.28 L 768.69 369.42 L 770.17 370.33 L 771.64 369.09 L 773.11 361.37 L 774.58 366.66 L 776.06 374.49 L 777.53 375.52 L 779.00 376.67 L 780.47 375.69 L 781.94 373.44 L 783.42 373.93 L 784.89 375.64 L 786.36 376.73 L 787.83 376.57 L 789.31 376.93 L 790.78 374.36 L 792.25 374.36 L 793.72 375.25 L 795.19 379.76 L 796.67 379.76 L 798.14 381.02 L 799.61 379.19 L 801.08 380.91 L 802.56 382.58 L 804.03 383.22 L 805.50 383.87 L 806.97 383.68 L 808.44 384.56 L 809.92 384.87 L 811.39 386.76 L 812.86 385.78 L 814.33 386.08 L 815.81 386.35 L 817.28 386.87 L 818.75 388.09 L 820.22 387.65 L 821.69 388.32 L 823.17 388.50 L 824.64 384.70 L 826.11 392.53 L 827.58 393.71 L 829.06 392.46 L 830.53 388.66 L 832.00 391.68 L 833.47 396.58 L 834.94 399.83 L 836.42 399.25 L 837.89 396.13 L 839.36 396.97 L 840.83 404.16 L 842.31 402.38 L 843.78 402.99 L 845.25 401.60 L 846.72 400.25 L 848.19 398.34 L 849.67 398.36 L 851.14 395.33 L 852.61 398.08 L 854.08 397.64 L 855.56 399.14 L 857.03 397.64 L 858.50 396.07 L 859.97 395.97 L 861.44 396.25 L 862.92 395.42 L 864.39 396.01 L 865.86 395.20 L 867.33 395.31 L 868.81 394.57 L 870.28 395.65 L 871.75 395.49 L 873.22 394.70 L 874.69 392.98 L 876.17 389.96 L 877.64 388.10 L 879.11 386.28 L 880.58 386.50 L 882.06 384.75 L 883.53 379.32 L 885.00 383.44 L 886.47 383.26 L 887.94 383.01 L 889.42 379.93 L 890.89 376.74 L 892.36 378.99 L 893.83 377.17 L 895.31 374.51 L 896.78 374.86 L 898.25 375.28 L 899.72 373.27 L 901.19 374.21 L 902.67 373.57 L 904.14 373.99 L 905.61 371.57 L 907.08 373.74 L 908.56 374.03 L 910.03 371.33 L 911.50 365.39 L 912.97 365.39 L 914.44 366.21 L 915.92 369.76 L 917.39 372.38 L 918.86 367.26 L 920.33 362.55 L 921.81 362.79 L 923.28 366.95 L 924.75 367.99 L 926.22 363.43 L 927.69 367.92 L 929.17 368.34 L 930.64 367.98 L 932.11 367.21 L 933.58 368.12 L 935.06 366.33" stroke="#2E7D32" />
<path class="series" d="M 178.33 423.95 L 179.81 414.47 L 181.28 410.10 L 182.75 396.41 L 184.22 394.91 L 185.69 409.65 L 187.17 408.85 L 188.64 403.97 L 190.11 408.88 L 191.58 419.70 L 193.06 421.89 L 194.53 421.19 L 196.00 416.51 L 197.47 416.84 L 198.94 413.99 L 200.42 403.21 L 201.89 408.38 L 203.36 409.21 L 204.83 413.92 L 206.31 407.65 L 207.78 411.78 L 209.25 412.17 L 210.72 412.19 L 212.19 417.01 L 213.67 403.80 L 215.14 405.47 L 216.61 416.70 L 218.08 415.16 L 219.56 414.73 L 221.03 424.12 L 222.50 413.89 L 223.97 411.25 L 225.44 408.80 L 226.92 410.51 L 228.39 415.14 L 229.86 400.89 L 231.33 389.99 L 232.81 406.27 L 234.28 399.54 L 235.75 401.08 L 237.22 401.15 L 238.69 408.72 L 240.17 417.88 L 241.64 407.84 L 243.11 426.55 L 244.58 418.28 L 246.06 425.10 L 247.53 424.64 L 249.00 421.63 L 250.47 424.95 L 251.94 424.64 L 253.42 414.87 L 254.89 420.92 L 256.36 430.85 L 257.83 436.06 L 259.31 426.43 L 260.78 419.39 L 262.25 419.11 L 263.72 417.62 L 265.19 423.03 L 266.67 419.98 L 268.14 422.41 L 269.61 424.75 L 271.08 424.73 L 272.56 424.41 L 274.03 424.65 L 275.50 424.53 L 276.97 424.72 L 278.44 424.63 L 279.92 424.64 L 281.39 424.74 L 282.86 424.60 L 284.33 424.61 L 285.81 424.66 L 287.28 424.70 L 288.75 424.64 L 290.22 424.60 L 291.69 424.66 L 293.17 424.67 L 294.64 424.64 L 296.11 424.67 L 297.58 424.67 L 299.06 424.66 L 300.53 424.64 L 302.00 424.64 L 303.47 424.63 L 304.94 424.61 L 306.42 424.58 L 307.89 424.56 L 309.36 424.62 L 310.83 424.61 L 312.31 424.61 L 313.78 424.62 L 315.25 424.61 L 316.72 424.65 L 318.19 424.61 L 319.67 424.66 L 321.14 424.65 L 322.61 424.62 L 324.08 424.59 L 325.56 424.64 L 327.03 424.67 L 328.50 424.64 L 329.97 424.60 L 331.44 424.63 L 332.92 424.62 L 334.39 424.59 L 335.86 424.58 L 337.33 424.70 L 338.81 424.64 L 340.28 424.57 L 341.75 424.61 L 343.22 424.62 L 344.69 424.60 L 346.17 424.60 L 347.64 424.57 L 349.11 424.63 L 350.58 424.59 L 352.06 424.61 L 353.53 424.58 L 355.00 424.56 L 356.47 424.58 L 357.94 424.62 L 359.42 424.56 L 360.89 424.64 L 362.36 424.61 L 363.83 424.55 L 365.31 424.58 L 366.78 424.62 L 368.25 424.65 L 369.72 424.53 L 371.19 424.61 L 372.67 424.64 L 374.14 424.56 L 375.61 424.58 L 377.08 424.57 L 378.56 424.62 L 380.03 424.62 L 381.50 424.58 L 382.97 424.56 L 384.44 424.60 L 385.92 424.58 L 387.39 424.63 L 388.86 424.56 L 390.33 424.58 L 391.81 424.44 L 393.28 424.87 L 394.75 424.68 L 396.22 424.80 L 397.69 424.72 L 399.17 424.69 L 400.64 424.72 L 402.11 424.73 L 403.58 424.63 L 405.06 424.40 L 406.53 422.54 L 408.00 420.78 L 409.47 424.84 L 410.94 419.01 L 412.42 422.86 L 413.89 418.76 L 415.36 426.26 L 416.83 428.84 L 418.31 420.61 L 419.78 418.33 L 421.25 424.34 L 422.72 416.89 L 424.19 419.68 L 425.67 415.18 L 427.14 408.15 L 428.61 413.68 L 430.08 413.66 L 431.56 415.32 L 433.03 414.62 L 434.50 416.07 L 435.97 413.27 L 437.44 413.14 L 438.92 418.51 L 440.39 421.27 L 441.86 420.83 L 443.33 421.87 L 444.81 426.75 L 446.28 422.09 L 447.75 420.36 L 449.22 423.45 L 450.69 417.49 L 452.17 415.01 L 453.64 418.56 L 455.11 416.32 L 456.58 416.76 L 458.06 417.62 L 459.53 416.72 L 461.00 417.16 L 462.47 417.09 L 463.94 416.87 L 465.42 417.33 L 466.89 417.14 L 468.36 417.21 L 469.83 417.14 L 471.31 417.22 L 472.78 417.17 L 474.25 417.20 L 475.72 417.11 L 477.19 417.24 L 478.67 417.22 L 480.14 417.22 L 481.61 417.15 L 483.08 417.26 L 484.56 417.24 L 486.03 417.76 L 487.50 418.00 L 488.97 417.25 L 490.44 418.13 L 491.92 418.14 L 493.39 417.61 L 494.86 418.13 L 496.33 418.20 L 497.81 417.87 L 499.28 418.02 L 500.75 418.16 L 502.22 418.00 L 503.69 418.01 L 505.17 418.06 L 506.64 418.06 L 508.11 418.09 L 509.58 418.00 L 511.06 418.05 L 512.53 418.07 L 514.00 418.17 L 515.47 417.90 L 516.94 416.75 L 518.42 417.95 L 519.89 417.65 L 521.36 417.42 L 522.83 417.14 L 524.31 417.25 L 525.78 417.53 L 527.25 417.51 L 528.72 417.36 L 530.19 417.24 L 531.67 417.43 L 533.14 417.36 L 534.61 417.41 L 536.08 417.37 L 537.56 417.38 L 539.03 417.32 L 540.50 417.96 L 541.97 415.83 L 543.44 417.21 L 544.92 417.24 L 546.39 416.96 L 547.86 416.95 L 549.33 416.91 L 550.81 416.92 L 552.28 416.97 L 553.75 417.00 L 555.22 417.00 L 556.69 416.94 L 558.17 417.00 L 559.64 417.02 L 561.11 417.01 L 562.58 416.95 L 564.06 417.01 L 565.53 416.94 L 567.00 416.96 L 568.47 417.02 L 569.94 417.15 L 571.42 415.46 L 572.89 418.19 L 574.36 416.94 L 575.83 417.01 L 577.31 417.02 L 578.78 416.96 L 580.25 416.95 L 581.72 417.04 L 583.19 416.97 L 584.67 416.99 L 586.14 417.04 L 587.61 417.01 L 589.08 416.96 L 590.56 417.01 L 592.03 417.02 L 593.50 417.02 L 594.97 416.97 L 596.44 416.95 L 597.92 417.03 L 599.39 417.01 L 600.86 417.04 L 602.33 417.00 L 603.81 417.41 L 605.28 417.07 L 606.75 416.99 L 608.22 416.91 L 609.69 416.91 L 611.17 417.13 L 612.64 416.98 L 614.11 417.10 L 615.58 417.07 L 617.06 417.09 L 618.53 417.09 L 620.00 417.10 L 621.47 417.09 L 622.94 417.10 L 624.42 417.08 L 625.89 417.09 L 627.36 417.03 L 628.83 417.11 L 630.31 416.97 L 631.78 417.10 L 633.25 417.16 L 634.72 417.18 L 636.19 418.14 L 637.67 417.82 L 639.14 417.68 L 640.61 417.76 L 642.08 417.80 L 643.56 417.86 L 645.03 417.80 L 646.50 417.88 L 647.97 417.90 L 649.44 417.89 L 650.92 417.80 L 652.39 417.81 L 653.86 417.86 L 655.33 417.88 L 656.81 417.84 L 658.28 418.18 L 659.75 417.77 L 661.22 417.66 L 662.69 418.09 L 664.17 417.86 L 665.64 418.08 L 667.11 417.66 L 668.58 419.35 L 670.06 423.27 L 671.53 420.06 L 673.00 420.33 L 674.47 425.04 L 675.94 418.50 L 677.42 414.88 L 678.89 423.28 L 680.36 422.02 L 681.83 417.08 L 683.31 416.32 L 684.78 427.90 L 686.25 420.80 L 687.72 424.72 L 689.19 418.25 L 690.67 412.24 L 692.14 413.09 L 693.61 422.37 L 695.08 423.96 L 696.56 398.32 L 698.03 408.52 L 699.50 412.71 L 700.97 407.86 L 702.44 400.52 L 703.92 400.56 L 705.39 399.02 L 706.86 406.76 L 708.33 405.58 L 709.81 404.95 L 711.28 403.06 L 712.75 400.33 L 714.22 412.35 L 715.69 412.29 L 717.17 406.20 L 718.64 403.93 L 720.11 413.01 L 721.58 422.20 L 723.06 409.85 L 724.53 412.00 L 726.00 403.96 L 727.47 412.07 L 728.94 406.57 L 730.42 404.57 L 731.89 411.68 L 733.36 414.60 L 734.83 408.04 L 736.31 404.11 L 737.78 410.43 L 739.25 408.23 L 740.72 404.69 L 742.19 401.02 L 743.67 402.85 L 745.14 416.42 L 746.61 423.80 L 748.08 443.41 L 749.56 423.11 L 751.03 404.60 L 752.50 415.35 L 753.97 412.01 L 755.44 413.86 L 756.92 430.18 L 758.39 415.06 L 759.86 403.97 L 761.33 409.57 L 762.81 410.64 L 764.28 407.28 L 765.75 419.30 L 767.22 430.24 L 768.69 420.43 L 770.17 428.94 L 771.64 417.25 L 773.11 427.77 L 774.58 409.03 L 776.06 414.19 L 777.53 412.12 L 779.00 425.23 L 780.47 423.32 L 781.94 424.93 L 783.42 428.44 L 784.89 418.91 L 786.36 422.12 L 787.83 418.91 L 789.31 418.47 L 790.78 425.72 L 792.25 431.84 L 793.72 424.96 L 795.19 427.16 L 796.67 422.93 L 798.14 424.85 L 799.61 419.10 L 801.08 416.34 L 802.56 417.40 L 804.03 414.59 L 805.50 415.11 L 806.97 414.13 L 808.44 414.22 L 809.92 415.99 L 811.39 416.62 L 812.86 413.67 L 814.33 415.37 L 815.81 412.42 L 817.28 412.12 L 818.75 410.76 L 820.22 408.48 L 821.69 409.73 L 823.17 408.19 L 824.64 408.66 L 826.11 407.25 L 827.58 406.43 L 829.06 403.96 L 830.53 401.68 L 832.00 407.92 L 833.47 404.19 L 834.94 408.72 L 836.42 407.88 L 837.89 409.03 L 839.36 409.31 L 840.83 412.08 L 842.31 411.21 L 843.78 411.95 L 845.25 413.61 L 846.72 413.36 L 848.19 414.55 L 849.67 416.17 L 851.14 415.34 L 852.61 414.91 L 854.08 415.67 L 855.56 416.65 L 857.03 415.73 L 858.50 413.95 L 859.97 416.71 L 861.44 417.26 L 862.92 414.82 L 864.39 415.86 L 865.86 415.44 L 867.33 417.39 L 868.81 418.86 L 870.28 421.10 L 871.75 420.48 L 873.22 419.00 L 874.69 420.29 L 876.17 417.92 L 877.64 419.94 L 879.11 417.90 L 880.58 421.07 L 882.06 420.82 L 883.53 419.64 L 885.00 418.09 L 886.47 418.25 L 887.94 418.64 L 889.42 423.41 L 890.89 422.67 L 892.36 429.07 L 893.83 425.54 L 895.31 419.16 L 896.78 427.07 L 898.25 425.73 L 899.72 433.88 L 901.19 434.93 L 902.67 438.97 L 904.14 443.85 L 905.61 437.51 L 907.08 429.72 L 908.56 432.53 L 910.03 421.14 L 911.50 416.02 L 912.97 416.02 L 914.44 418.76 L 915.92 415.18 L 917.39 422.48 L 918.86 432.62 L 920.33 433.79 L 921.81 427.74 L 923.28 427.50 L 924.75 415.33 L 926.22 420.78 L 927.69 417.89 L 929.17 421.58 L 930.64 417.58 L 932.11 420.26 L 933.58 415.53 L 935.06 412.25" stroke="#6A1B9A" />
<line x1="900.00" y1="307.75" x2="918.00" y2="307.75" stroke="#2E7D32" stroke-width="3" />
<text class="small" x="924.00" y="311.75">pitch</text>
<line x1="900.00" y1="323.75" x2="918.00" y2="323.75" stroke="#6A1B9A" stroke-width="3" />
<text class="small" x="924.00" y="327.75">roll</text>
<text x="90" y="500.50" font-size="14" font-weight="700">Aceleração (magnitude) (u.a.)</text>
<rect class="event" x="443.33" y="506.50" width="226.72" height="192.75" />
<line class="eventline" x1="443.33" y1="506.50" x2="443.33" y2="699.25" />
<line class="eventline" x1="670.06" y1="506.50" x2="670.06" y2="699.25" />
<line class="grid" x1="90" y1="699.25" x2="1150" y2="699.25" />
<text class="small" x="80" y="703.25" text-anchor="end">0.00</text>
<line class="grid" x1="90" y1="660.70" x2="1150" y2="660.70" />
<text class="small" x="80" y="664.70" text-anchor="end">0.50</text>
<line class="grid" x1="90" y1="622.15" x2="1150" y2="622.15" />
<text class="small" x="80" y="626.15" text-anchor="end">1.00</text>
<line class="grid" x1="90" y1="583.60" x2="1150" y2="583.60" />
<text class="small" x="80" y="587.60" text-anchor="end">1.50</text>
<line class="grid" x1="90" y1="545.05" x2="1150" y2="545.05" />
<text class="small" x="80" y="549.05" text-anchor="end">2.00</text>
<line class="grid" x1="90" y1="506.50" x2="1150" y2="506.50" />
<text class="small" x="80" y="510.50" text-anchor="end">2.50</text>
<line class="grid" x1="90.00" y1="506.50" x2="90.00" y2="699.25" />
<line class="grid" x1="266.67" y1="506.50" x2="266.67" y2="699.25" />
<line class="grid" x1="443.33" y1="506.50" x2="443.33" y2="699.25" />
<line class="grid" x1="620.00" y1="506.50" x2="620.00" y2="699.25" />
<line class="grid" x1="796.67" y1="506.50" x2="796.67" y2="699.25" />
<line class="grid" x1="973.33" y1="506.50" x2="973.33" y2="699.25" />
<line class="grid" x1="1150.00" y1="506.50" x2="1150.00" y2="699.25" />
<line class="axis" x1="90" y1="506.50" x2="90" y2="699.25" />
<line class="axis" x1="90" y1="699.25" x2="1150" y2="699.25" />
<path class="series" d="M 178.33 623.15 L 179.81 651.91 L 181.28 642.18 L 182.75 639.32 L 184.22 668.93 L 185.69 666.96 L 187.17 668.43 L 188.64 675.00 L 190.11 678.94 L 191.58 684.20 L 193.06 674.73 L 194.53 677.37 L 196.00 685.33 L 197.47 683.22 L 198.94 675.37 L 200.42 662.43 L 201.89 675.49 L 203.36 673.93 L 204.83 683.26 L 206.31 681.07 L 207.78 684.26 L 209.25 671.97 L 210.72 667.68 L 212.19 657.39 L 213.67 667.61 L 215.14 679.83 L 216.61 680.61 L 218.08 684.50 L 219.56 685.72 L 221.03 673.73 L 222.50 681.94 L 223.97 688.99 L 225.44 664.12 L 226.92 664.12 L 228.39 676.37 L 229.86 673.95 L 231.33 690.73 L 232.81 662.53 L 234.28 667.89 L 235.75 672.20 L 237.22 680.96 L 238.69 666.76 L 240.17 694.53 L 241.64 678.20 L 243.11 675.00 L 244.58 667.02 L 246.06 678.13 L 247.53 672.40 L 249.00 666.43 L 250.47 687.90 L 251.94 677.77 L 253.42 684.83 L 254.89 662.20 L 256.36 692.60 L 257.83 689.45 L 259.31 667.93 L 260.78 670.98 L 262.25 633.30 L 263.72 674.78 L 265.19 691.53 L 266.67 693.83 L 268.14 696.53 L 269.61 697.52 L 271.08 688.59 L 272.56 694.99 L 274.03 697.58 L 275.50 697.59 L 276.97 698.68 L 278.44 698.67 L 279.92 698.31 L 281.39 698.61 L 282.86 698.59 L 284.33 698.60 L 285.81 698.65 L 287.28 698.90 L 288.75 699.13 L 290.22 699.15 L 291.69 698.94 L 293.17 699.09 L 294.64 699.19 L 296.11 699.00 L 297.58 698.92 L 299.06 699.08 L 300.53 699.11 L 302.00 699.08 L 303.47 699.03 L 304.94 698.98 L 306.42 699.06 L 307.89 699.01 L 309.36 699.02 L 310.83 699.08 L 312.31 699.06 L 313.78 699.09 L 315.25 699.03 L 316.72 699.04 L 318.19 698.99 L 319.67 699.04 L 321.14 699.11 L 322.61 699.07 L 324.08 699.14 L 325.56 699.15 L 327.03 699.19 L 328.50 699.21 L 329.97 699.11 L 331.44 699.15 L 332.92 699.13 L 334.39 698.93 L 335.86 699.05 L 337.33 698.99 L 338.81 699.19 L 340.28 698.94 L 341.75 698.95 L 343.22 698.72 L 344.69 699.07 L 346.17 698.96 L 347.64 698.89 L 349.11 698.98 L 350.58 698.99 L 352.06 698.75 L 353.53 698.87 L 355.00 699.14 L 356.47 699.18 L 357.94 699.06 L 359.42 699.00 L 360.89 699.11 L 362.36 699.16 L 363.83 699.06 L 365.31 698.90 L 366.78 699.19 L 368.25 699.00 L 369.72 699.20 L 371.19 699.05 L 372.67 699.07 L 374.14 699.12 L 375.61 699.12 L 377.08 699.15 L 378.56 699.15 L 380.03 699.22 L 381.50 699.10 L 382.97 699.14 L 384.44 699.19 L 385.92 698.65 L 387.39 698.65 L 388.86 699.07 L 390.33 695.74 L 391.81 695.74 L 393.28 697.90 L 394.75 698.67 L 396.22 698.90 L 397.69 699.12 L 399.17 699.15 L 400.64 698.94 L 402.11 699.21 L 403.58 698.74 L 405.06 692.07 L 406.53 692.44 L 408.00 690.07 L 409.47 686.59 L 410.94 671.19 L 412.42 680.87 L 413.89 682.65 L 415.36 673.29 L 416.83 687.67 L 418.31 686.18 L 419.78 687.79 L 421.25 677.04 L 422.72 682.21 L 424.19 674.09 L 425.67 697.03 L 427.14 678.27 L 428.61 694.24 L 430.08 692.14 L 431.56 693.36 L 433.03 686.46 L 434.50 678.69 L 435.97 684.67 L 437.44 696.96 L 438.92 686.75 L 440.39 688.37 L 441.86 697.55 L 443.33 697.06 L 444.81 691.49 L 446.28 694.55 L 447.75 694.06 L 449.22 688.79 L 450.69 689.85 L 452.17 687.10 L 453.64 687.27 L 455.11 694.37 L 456.58 692.02 L 458.06 697.05 L 459.53 698.79 L 461.00 698.93 L 462.47 698.66 L 463.94 697.71 L 465.42 698.20 L 466.89 698.94 L 468.36 698.99 L 469.83 699.16 L 471.31 698.92 L 472.78 699.01 L 474.25 698.96 L 475.72 699.09 L 477.19 699.06 L 478.67 699.10 L 480.14 699.06 L 481.61 699.10 L 483.08 698.97 L 484.56 698.98 L 486.03 696.04 L 487.50 693.97 L 488.97 695.25 L 490.44 697.31 L 491.92 698.56 L 493.39 698.01 L 494.86 698.66 L 496.33 698.76 L 497.81 698.60 L 499.28 699.13 L 500.75 698.84 L 502.22 699.10 L 503.69 699.15 L 505.17 699.14 L 506.64 699.10 L 508.11 699.07 L 509.58 699.05 L 511.06 699.10 L 512.53 699.13 L 514.00 699.04 L 515.47 696.42 L 516.94 695.09 L 518.42 698.14 L 519.89 698.08 L 521.36 698.11 L 522.83 698.51 L 524.31 699.10 L 525.78 698.54 L 527.25 699.02 L 528.72 698.98 L 530.19 698.82 L 531.67 698.86 L 533.14 699.04 L 534.61 699.13 L 536.08 698.91 L 537.56 699.00 L 539.03 699.22 L 540.50 697.54 L 541.97 692.83 L 543.44 692.07 L 544.92 697.37 L 546.39 698.76 L 547.86 698.70 L 549.33 698.73 L 550.81 698.84 L 552.28 699.13 L 553.75 699.19 L 555.22 699.09 L 556.69 699.01 L 558.17 699.03 L 559.64 699.03 L 561.11 699.09 L 562.58 699.10 L 564.06 699.01 L 565.53 699.06 L 567.00 699.06 L 568.47 699.00 L 569.94 698.60 L 571.42 690.81 L 572.89 695.82 L 574.36 696.11 L 575.83 698.02 L 577.31 697.66 L 578.78 698.50 L 580.25 699.01 L 581.72 698.78 L 583.19 698.86 L 584.67 699.16 L 586.14 699.06 L 587.61 699.04 L 589.08 699.08 L 590.56 698.85 L 592.03 699.17 L 593.50 699.15 L 594.97 699.04 L 596.44 698.98 L 597.92 699.11 L 599.39 699.12 L 600.86 699.15 L 602.33 698.70 L 603.81 697.29 L 605.28 697.54 L 606.75 695.16 L 608.22 698.12 L 609.69 698.94 L 611.17 698.56 L 612.64 698.85 L 614.11 698.87 L 615.58 698.91 L 617.06 699.02 L 618.53 699.01 L 620.00 699.08 L 621.47 699.07 L 622.94 699.04 L 624.42 699.23 L 625.89 699.20 L 627.36 699.13 L 628.83 699.18 L 630.31 699.08 L 631.78 698.34 L 633.25 698.49 L 634.72 696.71 L 636.19 697.18 L 637.67 698.89 L 639.14 698.80 L 640.61 698.65 L 642.08 699.12 L 643.56 698.85 L 645.03 699.01 L 646.50 699.07 L 647.97 699.19 L 649.44 699.17 L 650.92 699.02 L 652.39 699.05 L 653.86 699.13 L 655.33 699.10 L 656.81 699.14 L 658.28 695.39 L 659.75 696.71 L 661.22 698.01 L 662.69 698.51 L 664.17 698.87 L 665.64 698.77 L 667.11 682.14 L 668.58 681.45 L 670.06 691.87 L 671.53 662.88 L 673.00 673.49 L 674.47 686.00 L 675.94 673.33 L 677.42 672.89 L 678.89 676.65 L 680.36 679.87 L 681.83 679.34 L 683.31 690.04 L 684.78 692.49 L 686.25 677.16 L 687.72 693.25 L 689.19 678.00 L 690.67 652.59 L 692.14 671.80 L 693.61 670.27 L 695.08 657.86 L 696.56 678.03 L 698.03 671.16 L 699.50 664.00 L 700.97 664.56 L 702.44 653.28 L 703.92 694.21 L 705.39 682.01 L 706.86 695.14 L 708.33 682.61 L 709.81 661.43 L 711.28 691.46 L 712.75 683.72 L 714.22 687.74 L 715.69 689.88 L 717.17 671.31 L 718.64 663.70 L 720.11 672.77 L 721.58 617.28 L 723.06 691.03 L 724.53 677.82 L 726.00 665.84 L 727.47 666.41 L 728.94 672.80 L 730.42 666.12 L 731.89 660.21 L 733.36 676.29 L 734.83 686.56 L 736.31 686.56 L 737.78 689.66 L 739.25 676.73 L 740.72 684.37 L 742.19 668.01 L 743.67 687.97 L 745.14 662.61 L 746.61 660.17 L 748.08 665.43 L 749.56 670.25 L 751.03 656.22 L 752.50 660.88 L 753.97 653.39 L 755.44 622.87 L 756.92 658.08 L 758.39 660.73 L 759.86 674.90 L 761.33 670.76 L 762.81 668.48 L 764.28 669.26 L 765.75 646.08 L 767.22 654.95 L 768.69 574.74 L 770.17 598.81 L 771.64 602.05 L 773.11 624.36 L 774.58 619.03 L 776.06 683.41 L 777.53 653.52 L 779.00 648.84 L 780.47 649.00 L 781.94 666.87 L 783.42 675.84 L 784.89 682.25 L 786.36 684.16 L 787.83 688.49 L 789.31 668.26 L 790.78 677.88 L 792.25 658.40 L 793.72 661.26 L 795.19 670.08 L 796.67 684.09 L 798.14 687.09 L 799.61 681.42 L 801.08 685.07 L 802.56 689.04 L 804.03 692.74 L 805.50 694.98 L 806.97 692.58 L 808.44 689.53 L 809.92 695.71 L 811.39 692.62 L 812.86 693.67 L 814.33 693.54 L 815.81 691.75 L 817.28 695.55 L 818.75 689.12 L 820.22 692.25 L 821.69 693.87 L 823.17 693.56 L 824.64 661.50 L 826.11 681.13 L 827.58 686.47 L 829.06 689.75 L 830.53 687.03 L 832.00 676.67 L 833.47 695.14 L 834.94 670.84 L 836.42 688.88 L 837.89 690.87 L 839.36 692.27 L 840.83 681.82 L 842.31 680.73 L 843.78 690.50 L 845.25 691.28 L 846.72 692.03 L 848.19 697.35 L 849.67 693.65 L 851.14 695.00 L 852.61 689.60 L 854.08 692.09 L 855.56 687.88 L 857.03 696.42 L 858.50 687.13 L 859.97 693.90 L 861.44 697.07 L 862.92 693.68 L 864.39 695.36 L 865.86 691.53 L 867.33 697.02 L 868.81 696.24 L 870.28 694.33 L 871.75 695.50 L 873.22 691.82 L 874.69 692.77 L 876.17 689.54 L 877.64 692.93 L 879.11 692.53 L 880.58 695.04 L 882.06 695.45 L 883.53 683.09 L 885.00 685.77 L 886.47 677.85 L 887.94 680.96 L 889.42 684.49 L 890.89 685.48 L 892.36 681.55 L 893.83 683.92 L 895.31 687.56 L 896.78 675.57 L 898.25 665.48 L 899.72 668.02 L 901.19 679.98 L 902.67 676.35 L 904.14 672.42 L 905.61 687.44 L 907.08 687.44 L 908.56 682.78 L 910.03 684.38 L 911.50 664.68 L 912.97 673.71 L 914.44 687.70 L 915.92 682.01 L 917.39 672.61 L 918.86 654.89 L 920.33 642.70 L 921.81 653.42 L 923.28 657.47 L 924.75 679.97 L 926.22 665.28 L 927.69 676.38 L 929.17 684.48 L 930.64 679.12 L 932.11 687.95 L 933.58 678.82 L 935.06 677.70" stroke="#FB8C00" />
<text x="90" y="711.25" font-size="14" font-weight="700">Giroscópio (magnitude) (u.a.)</text>
<rect class="event" x="443.33" y="717.25" width="226.72" height="192.75" />
<line class="eventline" x1="443.33" y1="717.25" x2="443.33" y2="910.00" />
<line class="eventline" x1="670.06" y1="717.25" x2="670.06" y2="910.00" />
<line class="grid" x1="90" y1="910.00" x2="1150" y2="910.00" />
<text class="small" x="80" y="914.00" text-anchor="end">0.00</text>
<line class="grid" x1="90" y1="871.45" x2="1150" y2="871.45" />
<text class="small" x="80" y="875.45" text-anchor="end">0.05</text>
<line class="grid" x1="90" y1="832.90" x2="1150" y2="832.90" />
<text class="small" x="80" y="836.90" text-anchor="end">0.10</text>
<line class="grid" x1="90" y1="794.35" x2="1150" y2="794.35" />
<text class="small" x="80" y="798.35" text-anchor="end">0.15</text>
<line class="grid" x1="90" y1="755.80" x2="1150" y2="755.80" />
<text class="small" x="80" y="759.80" text-anchor="end">0.20</text>
<line class="grid" x1="90" y1="717.25" x2="1150" y2="717.25" />
<text class="small" x="80" y="721.25" text-anchor="end">0.25</text>
<line class="grid" x1="90.00" y1="717.25" x2="90.00" y2="910.00" />
<line class="grid" x1="266.67" y1="717.25" x2="266.67" y2="910.00" />
<line class="grid" x1="443.33" y1="717.25" x2="443.33" y2="910.00" />
<line class="grid" x1="620.00" y1="717.25" x2="620.00" y2="910.00" />
<line class="grid" x1="796.67" y1="717.25" x2="796.67" y2="910.00" />
<line class="grid" x1="973.33" y1="717.25" x2="973.33" y2="910.00" />
<line class="grid" x1="1150.00" y1="717.25" x2="1150.00" y2="910.00" />
<line class="axis" x1="90" y1="717.25" x2="90" y2="910.00" />
<line class="axis" x1="90" y1="910.00" x2="1150" y2="910.00" />
<path class="series" d="M 178.33 899.67 L 179.81 852.92 L 181.28 865.87 L 182.75 888.25 L 184.22 849.95 L 185.69 881.97 L 187.17 897.55 L 188.64 870.12 L 190.11 892.24 L 191.58 873.50 L 193.06 858.92 L 194.53 859.23 L 196.00 859.91 L 197.47 863.06 L 198.94 874.60 L 200.42 905.70 L 201.89 889.75 L 203.36 894.69 L 204.83 894.90 L 206.31 890.39 L 207.78 896.52 L 209.25 897.53 L 210.72 885.99 L 212.19 896.87 L 213.67 885.24 L 215.14 868.70 L 216.61 852.45 L 218.08 850.55 L 219.56 848.66 L 221.03 845.85 L 222.50 843.24 L 223.97 835.42 L 225.44 834.62 L 226.92 834.62 L 228.39 841.06 L 229.86 831.52 L 231.33 847.98 L 232.81 858.37 L 234.28 886.68 L 235.75 893.21 L 237.22 858.39 L 238.69 883.88 L 240.17 883.17 L 241.64 866.89 L 243.11 860.34 L 244.58 861.23 L 246.06 846.42 L 247.53 803.34 L 249.00 774.62 L 250.47 794.82 L 251.94 773.20 L 253.42 789.27 L 254.89 818.32 L 256.36 838.66 L 257.83 843.32 L 259.31 795.30 L 260.78 795.11 L 262.25 834.28 L 263.72 878.96 L 265.19 888.58 L 266.67 890.98 L 268.14 897.66 L 269.61 902.82 L 271.08 908.23 L 272.56 907.81 L 274.03 908.00 L 275.50 908.04 L 276.97 907.95 L 278.44 907.84 L 279.92 907.89 L 281.39 907.99 L 282.86 907.91 L 284.33 907.84 L 285.81 908.18 L 287.28 909.74 L 288.75 909.83 L 290.22 909.71 L 291.69 909.65 L 293.17 909.73 L 294.64 909.77 L 296.11 909.80 L 297.58 909.57 L 299.06 909.77 L 300.53 909.78 L 302.00 909.75 L 303.47 909.71 L 304.94 909.69 L 306.42 909.85 L 307.89 909.54 L 309.36 909.66 L 310.83 909.71 L 312.31 909.58 L 313.78 909.67 L 315.25 909.60 L 316.72 909.69 L 318.19 909.60 L 319.67 909.59 L 321.14 909.48 L 322.61 909.80 L 324.08 909.64 L 325.56 909.64 L 327.03 909.75 L 328.50 909.94 L 329.97 909.90 L 331.44 909.82 L 332.92 909.92 L 334.39 909.83 L 335.86 909.85 L 337.33 909.90 L 338.81 909.90 L 340.28 909.83 L 341.75 909.95 L 343.22 909.55 L 344.69 909.89 L 346.17 909.81 L 347.64 909.72 L 349.11 909.71 L 350.58 909.32 L 352.06 909.58 L 353.53 909.66 L 355.00 909.57 L 356.47 909.77 L 357.94 909.70 L 359.42 909.66 L 360.89 909.56 L 362.36 909.68 L 363.83 909.67 L 365.31 909.81 L 366.78 909.73 L 368.25 909.75 L 369.72 909.91 L 371.19 909.75 L 372.67 909.86 L 374.14 909.89 L 375.61 909.86 L 377.08 909.86 L 378.56 909.96 L 380.03 909.88 L 381.50 909.90 L 382.97 909.76 L 384.44 909.83 L 385.92 909.24 L 387.39 909.71 L 388.86 909.77 L 390.33 908.59 L 391.81 908.59 L 393.28 909.88 L 394.75 909.75 L 396.22 909.90 L 397.69 909.83 L 399.17 909.82 L 400.64 909.94 L 402.11 909.73 L 403.58 909.90 L 405.06 909.28 L 406.53 904.12 L 408.00 897.47 L 409.47 895.71 L 410.94 892.55 L 412.42 888.16 L 413.89 897.85 L 415.36 893.37 L 416.83 888.00 L 418.31 865.77 L 419.78 858.76 L 421.25 865.24 L 422.72 854.98 L 424.19 854.75 L 425.67 854.65 L 427.14 862.92 L 428.61 876.35 L 430.08 885.25 L 431.56 889.08 L 433.03 894.82 L 434.50 896.35 L 435.97 898.11 L 437.44 900.51 L 438.92 904.25 L 440.39 897.31 L 441.86 904.48 L 443.33 904.47 L 444.81 895.86 L 446.28 889.57 L 447.75 902.92 L 449.22 903.67 L 450.69 900.21 L 452.17 903.80 L 453.64 909.13 L 455.11 908.94 L 456.58 908.26 L 458.06 909.21 L 459.53 909.59 L 461.00 909.72 L 462.47 909.84 L 463.94 909.14 L 465.42 909.96 L 466.89 909.87 L 468.36 909.73 L 469.83 909.89 L 471.31 909.84 L 472.78 909.85 L 474.25 909.77 L 475.72 909.88 L 477.19 909.87 L 478.67 909.93 L 480.14 909.87 L 481.61 909.88 L 483.08 909.92 L 484.56 909.93 L 486.03 908.24 L 487.50 907.41 L 488.97 908.14 L 490.44 909.74 L 491.92 909.68 L 493.39 909.96 L 494.86 909.84 L 496.33 909.87 L 497.81 909.95 L 499.28 909.90 L 500.75 909.85 L 502.22 909.88 L 503.69 909.97 L 505.17 909.85 L 506.64 909.91 L 508.11 909.83 L 509.58 909.85 L 511.06 909.90 L 512.53 909.87 L 514.00 909.74 L 515.47 908.63 L 516.94 908.46 L 518.42 909.24 L 519.89 909.59 L 521.36 909.69 L 522.83 909.85 L 524.31 909.81 L 525.78 909.87 L 527.25 909.89 L 528.72 909.75 L 530.19 909.70 L 531.67 909.78 L 533.14 909.88 L 534.61 909.84 L 536.08 909.79 L 537.56 909.85 L 539.03 909.90 L 540.50 906.88 L 541.97 908.26 L 543.44 908.98 L 544.92 909.54 L 546.39 909.71 L 547.86 909.88 L 549.33 909.85 L 550.81 909.83 L 552.28 909.78 L 553.75 909.78 L 555.22 909.94 L 556.69 909.75 L 558.17 909.76 L 559.64 909.88 L 561.11 909.97 L 562.58 909.95 L 564.06 909.93 L 565.53 909.95 L 567.00 909.95 L 568.47 909.98 L 569.94 909.77 L 571.42 908.71 L 572.89 908.33 L 574.36 908.58 L 575.83 909.23 L 577.31 909.86 L 578.78 909.70 L 580.25 909.68 L 581.72 909.79 L 583.19 909.83 L 584.67 909.92 L 586.14 909.81 L 587.61 909.91 L 589.08 909.88 L 590.56 909.87 L 592.03 909.90 L 593.50 909.87 L 594.97 909.77 L 596.44 909.89 L 597.92 909.88 L 599.39 909.91 L 600.86 909.77 L 602.33 909.75 L 603.81 908.39 L 605.28 907.10 L 606.75 908.83 L 608.22 909.61 L 609.69 909.75 L 611.17 909.62 L 612.64 909.91 L 614.11 909.89 L 615.58 909.75 L 617.06 909.83 L 618.53 909.89 L 620.00 909.79 L 621.47 909.89 L 622.94 909.94 L 624.42 909.91 L 625.89 909.83 L 627.36 909.86 L 628.83 909.91 L 630.31 909.89 L 631.78 909.72 L 633.25 908.38 L 634.72 906.45 L 636.19 909.21 L 637.67 909.83 L 639.14 909.81 L 640.61 909.79 L 642.08 909.83 L 643.56 909.84 L 645.03 909.76 L 646.50 909.93 L 647.97 909.85 L 649.44 909.95 L 650.92 909.89 L 652.39 909.83 L 653.86 909.80 L 655.33 909.94 L 656.81 909.81 L 658.28 909.04 L 659.75 909.70 L 661.22 909.76 L 662.69 909.91 L 664.17 909.97 L 665.64 909.92 L 667.11 899.04 L 668.58 893.38 L 670.06 907.05 L 671.53 903.02 L 673.00 891.47 L 674.47 887.75 L 675.94 897.83 L 677.42 887.61 L 678.89 888.26 L 680.36 889.66 L 681.83 895.86 L 683.31 879.61 L 684.78 880.97 L 686.25 886.58 L 687.72 875.05 L 689.19 866.96 L 690.67 880.32 L 692.14 876.20 L 693.61 901.83 L 695.08 843.07 L 696.56 902.70 L 698.03 859.10 L 699.50 879.08 L 700.97 893.69 L 702.44 900.99 L 703.92 886.89 L 705.39 885.90 L 706.86 890.17 L 708.33 892.05 L 709.81 889.58 L 711.28 889.04 L 712.75 878.12 L 714.22 895.54 L 715.69 896.70 L 717.17 889.64 L 718.64 892.00 L 720.11 859.85 L 721.58 877.36 L 723.06 887.47 L 724.53 868.35 L 726.00 878.97 L 727.47 906.42 L 728.94 902.16 L 730.42 886.56 L 731.89 900.57 L 733.36 891.86 L 734.83 896.62 L 736.31 896.62 L 737.78 882.63 L 739.25 886.93 L 740.72 879.88 L 742.19 869.56 L 743.67 880.92 L 745.14 894.39 L 746.61 870.29 L 748.08 843.00 L 749.56 862.32 L 751.03 868.97 L 752.50 849.07 L 753.97 863.41 L 755.44 851.40 L 756.92 867.86 L 758.39 886.24 L 759.86 893.73 L 761.33 856.15 L 762.81 879.23 L 764.28 877.22 L 765.75 886.79 L 767.22 871.77 L 768.69 827.88 L 770.17 844.70 L 771.64 853.04 L 773.11 892.05 L 774.58 879.49 L 776.06 885.63 L 777.53 883.36 L 779.00 880.84 L 780.47 880.16 L 781.94 863.41 L 783.42 847.04 L 784.89 854.83 L 786.36 854.38 L 787.83 842.55 L 789.31 863.68 L 790.78 854.65 L 792.25 880.45 L 793.72 860.37 L 795.19 879.20 L 796.67 884.86 L 798.14 883.68 L 799.61 887.42 L 801.08 892.00 L 802.56 899.80 L 804.03 901.03 L 805.50 901.56 L 806.97 902.35 L 808.44 899.74 L 809.92 901.03 L 811.39 900.90 L 812.86 901.73 L 814.33 903.74 L 815.81 903.15 L 817.28 901.91 L 818.75 902.16 L 820.22 903.20 L 821.69 904.87 L 823.17 904.29 L 824.64 904.06 L 826.11 906.23 L 827.58 901.86 L 829.06 906.50 L 830.53 905.15 L 832.00 895.35 L 833.47 894.61 L 834.94 900.10 L 836.42 905.38 L 837.89 899.61 L 839.36 898.19 L 840.83 899.96 L 842.31 897.02 L 843.78 899.41 L 845.25 898.87 L 846.72 894.60 L 848.19 894.85 L 849.67 899.69 L 851.14 898.24 L 852.61 900.14 L 854.08 897.55 L 855.56 902.23 L 857.03 897.36 L 858.50 901.00 L 859.97 904.80 L 861.44 903.25 L 862.92 905.42 L 864.39 905.86 L 865.86 906.35 L 867.33 902.81 L 868.81 906.69 L 870.28 901.16 L 871.75 905.95 L 873.22 903.04 L 874.69 900.47 L 876.17 899.51 L 877.64 901.95 L 879.11 903.09 L 880.58 901.89 L 882.06 897.10 L 883.53 895.78 L 885.00 902.60 L 886.47 901.78 L 887.94 894.29 L 889.42 873.69 L 890.89 879.18 L 892.36 884.67 L 893.83 882.67 L 895.31 868.50 L 896.78 854.31 L 898.25 868.79 L 899.72 848.71 L 901.19 840.31 L 902.67 835.67 L 904.14 829.54 L 905.61 841.33 L 907.08 841.33 L 908.56 871.17 L 910.03 876.05 L 911.50 883.14 L 912.97 899.07 L 914.44 903.34 L 915.92 904.31 L 917.39 891.26 L 918.86 853.68 L 920.33 830.96 L 921.81 826.11 L 923.28 820.91 L 924.75 830.85 L 926.22 877.35 L 927.69 876.14 L 929.17 877.58 L 930.64 877.44 L 932.11 880.97 L 933.58 889.19 L 935.06 898.42" stroke="#E53935" />
<text x="620.00" y="952" font-size="15" text-anchor="middle">minutos (relativo ao início do evento)</text>
<text class="small" x="90.00" y="936" text-anchor="middle">-4.00</text>
<text class="small" x="266.67" y="936" text-anchor="middle">-2.00</text>
<text class="small" x="443.33" y="936" text-anchor="middle">0.00</text>
<text class="small" x="620.00" y="936" text-anchor="middle">2.00</text>
<text class="small" x="796.67" y="936" text-anchor="middle">4.00</text>
<text class="small" x="973.33" y="936" text-anchor="middle">6.00</text>
<text class="small" x="1150.00" y="936" text-anchor="middle">8.00</text>
</svg>