<?xml version="1.0" encoding="UTF-8"?>
<svg xmlns="http://www.w3.org/2000/svg" width="1180" height="980" viewBox="0 0 1180 980">
<style>
text { font-family: -apple-system, BlinkMacSystemFont, 'Segoe UI', Roboto, Helvetica, Arial, sans-serif; fill: #111; }
.small { font-size: 12px; fill: #222; }
.title { font-size: 18px; font-weight: 700; }
.axis { stroke: #111; stroke-width: 1.4; }
.grid { stroke: #E6E6E6; stroke-width: 1; }
.event { fill: #FFEB3B; fill-opacity: 0.18; }
.eventline { stroke: #F9A825; stroke-width: 1.2; stroke-dasharray: 4 3; }
.series { fill: none; stroke-width: 1.8; }
</style>
<text class="title" x="90" y="34">ciclo 9 — carregamento — 2025-12-12T20:55:07-03:00 → 2025-12-12T20:57:51-03:00 (span 164s, dur 165s)</text>
<text class="small" x="90" y="54">GPS: -11.698979,-47.157356  hotspot: -11.699,-47.157</text>
<text class="small" x="90" y="70">Janela: -3.00 → 5.73 min (relativo ao início do evento)</text>
<text x="90" y="79.00" font-size="14" font-weight="700">Velocidade (km/h)</text>
<rect class="event" x="443.33" y="85.00" width="241.44" height="192.75" />
<line class="eventline" x1="443.33" y1="85.00" x2="443.33" y2="277.75" />
<line class="eventline" x1="684.78" y1="85.00" x2="684.78" y2="277.75" />
<line class="grid" x1="90" y1="277.75" x2="1150" y2="277.75" />
<text class="small" x="80" y="281.75" text-anchor="end">0.00</text>
<line class="grid" x1="90" y1="239.20" x2="1150" y2="239.20" />
<text class="small" x="80" y="243.20" text-anchor="end">5.00</text>
<line class="grid" x1="90" y1="200.65" x2="1150" y2="200.65" />
<text class="small" x="80" y="204.65" text-anchor="end">10.0</text>
<line class="grid" x1="90" y1="162.10" x2="1150" y2="162.10" />
<text class="small" x="80" y="166.10" text-anchor="end">15.0</text>
<line class="grid" x1="90" y1="123.55" x2="1150" y2="123.55" />
<text class="small" x="80" y="127.55" text-anchor="end">20.0</text>
<line class="grid" x1="90" y1="85.00" x2="1150" y2="85.00" />
<text class="small" x="80" y="89.00" text-anchor="end">25.0</text>
<line class="grid" x1="90.00" y1="85.00" x2="90.00" y2="277.75" />
<line class="grid" x1="266.67" y1="85.00" x2="266.67" y2="277.75" />
<line class="grid" x1="443.33" y1="85.00" x2="443.33" y2="277.75" />
<line class="grid" x1="620.00" y1="85.00" x2="620.00" y2="277.75" />
<line class="grid" x1="796.67" y1="85.00" x2="796.67" y2="277.75" />
<line class="grid" x1="973.33" y1="85.00" x2="973.33" y2="277.75" />
<line class="grid" x1="1150.00" y1="85.00" x2="1150.00" y2="277.75" />
<line class="axis" x1="90" y1="85.00" x2="90" y2="277.75" />
<line class="axis" x1="90" y1="277.75" x2="1150" y2="277.75" />
<path class="series" d="M 178.33 186.43 L 179.81 189.49 L 181.28 187.27 L 182.75 179.77 L 184.22 180.60 L 185.69 174.50 L 187.17 177.27 L 188.64 180.33 L 190.11 190.04 L 191.58 178.94 L 193.06 172.55 L 194.53 184.49 L 196.00 166.45 L 197.47 160.62 L 198.94 154.79 L 200.42 156.46 L 201.89 166.73 L 203.36 180.05 L 204.83 190.04 L 206.31 198.65 L 207.78 199.76 L 209.25 201.98 L 210.72 192.26 L 212.19 185.60 L 213.67 195.87 L 215.14 213.08 L 216.61 220.57 L 218.08 223.35 L 219.56 216.96 L 221.03 226.96 L 222.50 216.13 L 223.97 216.13 L 225.44 218.91 L 226.92 231.12 L 228.39 241.11 L 229.86 240.83 L 231.33 238.34 L 232.81 249.44 L 234.28 252.21 L 235.75 259.15 L 237.22 262.21 L 238.69 277.75 L 240.17 277.75 L 241.64 277.75 L 243.11 277.75 L 244.58 277.75 L 246.06 277.75 L 247.53 277.75 L 249.00 277.75 L 250.47 277.75 L 251.94 277.75 L 253.42 277.75 L 254.89 277.75 L 256.36 277.75 L 257.83 277.75 L 259.31 277.75 L 260.78 277.75 L 262.25 277.75 L 263.72 277.75 L 265.19 277.75 L 266.67 277.75 L 268.14 277.75 L 269.61 277.75 L 271.08 277.75 L 272.56 277.75 L 274.03 277.75 L 275.50 277.75 L 276.97 277.75 L 278.44 277.75 L 279.92 277.75 L 281.39 277.75 L 282.86 277.75 L 284.33 277.75 L 285.81 277.75 L 287.28 277.75 L 288.75 277.75 L 290.22 277.75 L 291.69 277.75 L 293.17 277.75 L 294.64 277.75 L 296.11 277.75 L 297.58 277.75 L 299.06 277.75 L 300.53 277.75 L 302.00 277.75 L 303.47 277.75 L 304.94 277.75 L 306.42 277.75 L 307.89 277.75 L 309.36 277.75 L 310.83 277.75 L 312.31 277.75 L 313.78 277.75 L 315.25 277.75 L 316.72 277.75 L 318.19 277.75 L 319.67 277.75 L 321.14 277.75 L 322.61 277.75 L 324.08 277.75 L 325.56 277.75 L 327.03 277.75 L 328.50 277.75 L 329.97 277.75 L 331.44 277.75 L 332.92 277.75 L 334.39 277.75 L 335.86 277.75 L 337.33 277.75 L 338.81 277.75 L 340.28 277.75 L 341.75 277.75 L 343.22 277.75 L 344.69 277.75 L 346.17 277.75 L 347.64 277.75 L 349.11 277.75 L 350.58 277.75 L 352.06 277.75 L 353.53 277.75 L 355.00 277.75 L 356.47 277.75 L 357.94 277.75 L 359.42 277.75 L 360.89 277.75 L 362.36 277.75 L 363.83 277.75 L 365.31 277.75 L 366.78 277.75 L 368.25 277.75 L 369.72 277.75 L 371.19 277.75 L 372.67 277.75 L 374.14 277.75 L 375.61 277.75 L 377.08 277.75 L 378.56 277.75 L 380.03 277.75 L 381.50 277.75 L 382.97 277.75 L 384.44 277.75 L 385.92 277.75 L 387.39 277.75 L 388.86 277.75 L 390.33 277.75 L 391.81 277.75 L 393.28 277.75 L 394.75 277.75 L 396.22 277.75 L 397.69 277.75 L 399.17 277.75 L 400.64 277.75 L 402.11 277.75 L 403.58 277.75 L 405.06 264.15 L 406.53 262.76 L 408.00 265.54 L 409.47 268.31 L 410.94 277.75 L 412.42 256.10 L 413.89 256.10 L 415.36 256.10 L 416.83 247.77 L 418.31 255.27 L 419.78 248.61 L 421.25 241.39 L 422.72 248.05 L 424.19 240.00 L 425.67 252.77 L 427.14 250.83 L 428.61 259.43 L 430.08 253.60 L 431.56 258.04 L 433.03 256.93 L 434.50 259.71 L 435.97 259.15 L 437.44 263.87 L 438.92 264.15 L 440.39 262.76 L 441.86 269.98 L 443.33 277.75 L 444.81 277.75 L 446.28 277.75 L 447.75 277.75 L 449.22 277.75 L 450.69 277.75 L 452.17 277.75 L 453.64 277.75 L 455.11 277.75 L 456.58 277.75 L 458.06 277.75 L 459.53 277.75 L 461.00 277.75 L 462.47 277.75 L 463.94 277.75 L 465.42 277.75 L 466.89 277.75 L 468.36 277.75 L 469.83 277.75 L 471.31 277.75 L 472.78 277.75 L 474.25 277.75 L 475.72 277.75 L 477.19 277.75 L 478.67 277.75 L 480.14 277.75 L 481.61 277.75 L 483.08 277.75 L 484.56 277.75 L 486.03 277.75 L 487.50 277.75 L 488.97 277.75 L 490.44 277.75 L 491.92 277.75 L 493.39 277.75 L 494.86 277.75 L 496.33 277.75 L 497.81 277.75 L 499.28 277.75 L 500.75 277.75 L 502.22 277.75 L 503.69 277.75 L 505.17 277.75 L 506.64 277.75 L 508.11 277.75 L 509.58 277.75 L 511.06 277.75 L 512.53 277.75 L 514.00 277.75 L 515.47 277.75 L 516.94 277.75 L 518.42 277.75 L 519.89 277.75 L 521.36 277.75 L 522.83 277.75 L 524.31 277.75 L 525.78 277.75 L 527.25 277.75 L 528.72 277.75 L 530.19 277.75 L 531.67 277.75 L 533.14 277.75 L 534.61 277.75 L 536.08 277.75 L 537.56 277.75 L 539.03 277.75 L 540.50 277.75 L 541.97 277.75 L 543.44 277.75 L 544.92 277.75 L 546.39 277.75 L 547.86 277.75 L 549.33 277.75 L 550.81 277.75 L 552.28 277.75 L 553.75 277.75 L 555.22 277.75 L 556.69 277.75 L 558.17 277.75 L 559.64 277.75 L 561.11 277.75 L 562.58 277.75 L 564.06 277.75 L 565.53 277.75 L 567.00 277.75 L 568.47 277.75 L 569.94 277.75 L 571.42 277.75 L 572.89 277.75 L 574.36 277.75 L 575.83 277.75 L 577.31 277.75 L 578.78 277.75 L 580.25 277.75 L 581.72 277.75 L 583.19 277.75 L 584.67 277.75 L 586.14 277.75 L 587.61 277.75 L 589.08 277.75 L 590.56 277.75 L 592.03 277.75 L 593.50 277.75 L 594.97 277.75 L 596.44 277.75 L 597.92 277.75 L 599.39 277.75 L 600.86 277.75 L 602.33 277.75 L 603.81 277.75 L 605.28 277.75 L 606.75 277.75 L 608.22 277.75 L 609.69 277.75 L 611.17 277.75 L 612.64 277.75 L 614.11 277.75 L 615.58 277.75 L 617.06 277.75 L 618.53 277.75 L 620.00 277.75 L 621.47 277.75 L 622.94 277.75 L 624.42 277.75 L 625.89 277.75 L 627.36 277.75 L 628.83 277.75 L 630.31 277.75 L 631.78 277.75 L 633.25 277.75 L 634.72 277.75 L 636.19 277.75 L 637.67 277.75 L 639.14 277.75 L 640.61 277.75 L 642.08 277.75 L 643.56 277.75 L 645.03 277.75 L 646.50 277.75 L 647.97 277.75 L 649.44 277.75 L 650.92 277.75 L 652.39 277.75 L 653.86 277.75 L 655.33 277.75 L 656.81 277.75 L 658.28 277.75 L 659.75 277.75 L 661.22 277.75 L 662.69 277.75 L 664.17 277.75 L 665.64 277.75 L 667.11 277.75 L 668.58 277.75 L 670.06 277.75 L 671.53 277.75 L 673.00 277.75 L 674.47 277.75 L 675.94 277.75 L 677.42 277.75 L 678.89 277.75 L 680.36 277.75 L 681.83 277.75 L 683.31 277.75 L 684.78 277.75 L 686.25 240.00 L 687.72 238.61 L 689.19 243.06 L 690.67 245.00 L 692.14 243.06 L 693.61 239.72 L 695.08 238.89 L 696.56 227.23 L 698.03 227.51 L 699.50 220.57 L 700.97 221.13 L 702.44 220.30 L 703.92 225.01 L 705.39 223.63 L 706.86 215.30 L 708.33 216.69 L 709.81 197.54 L 711.28 201.98 L 712.75 192.26 L 714.22 196.98 L 715.69 206.14 L 717.17 214.47 L 718.64 215.58 L 720.11 228.07 L 721.58 212.25 L 723.06 212.80 L 724.53 205.86 L 726.00 194.20 L 727.47 178.66 L 728.94 182.55 L 730.42 177.55 L 731.89 180.88 L 733.36 181.16 L 734.83 186.99 L 736.31 197.26 L 737.78 208.08 L 739.25 202.81 L 740.72 210.30 L 742.19 208.08 L 743.67 206.97 L 745.14 199.20 L 746.61 193.65 L 748.08 190.60 L 749.56 186.99 L 751.03 203.36 L 752.50 277.75 L 753.97 248.61 L 755.44 177.27 L 756.92 175.05 L 758.39 170.61 L 759.86 158.12 L 761.33 148.96 L 762.81 140.36 L 764.28 133.14 L 765.75 131.48 L 767.22 133.42 L 768.69 133.97 L 770.17 132.31 L 771.64 128.70 L 773.11 129.81 L 774.58 128.98 L 776.06 128.15 L 777.53 126.48 L 779.00 121.48 L 780.47 116.21 L 781.94 117.60 L 783.42 120.65 L 784.89 120.93 L 786.36 132.03 L 787.83 138.14 L 789.31 148.68 L 790.78 154.79 L 792.25 160.90 L 793.72 169.50 L 795.19 177.55 L 796.67 185.32 L 798.14 189.21 L 799.61 182.55 L 801.08 179.22 L 802.56 176.72 L 804.03 175.89 L 805.50 180.88 L 806.97 184.21 L 808.44 193.65 L 809.92 202.25 L 811.39 208.36 L 812.86 214.74 L 814.33 217.24 L 815.81 218.91 L 817.28 222.79 L 818.75 223.63 L 820.22 220.57 L 821.69 217.80 L 823.17 222.52 L 824.64 228.34 L 826.11 231.40 L 827.58 238.61 L 829.06 243.61 L 830.53 245.83 L 832.00 240.00 L 833.47 235.84 L 834.94 231.12 L 836.42 228.90 L 837.89 230.29 L 839.36 232.79 L 840.83 231.40 L 842.31 231.40 L 843.78 221.13 L 845.25 210.30 L 846.72 195.31 L 848.19 185.04 L 849.67 178.11 L 851.14 167.84 L 852.61 164.23 L 854.08 158.68 L 855.56 152.02 L 857.03 144.52 L 858.50 140.91 L 859.97 140.36 L 861.44 153.40 L 862.92 159.79 L 864.39 170.33 L 865.86 170.61 L 867.33 179.77 L 868.81 179.77 L 870.28 188.65 L 871.75 191.43 L 873.22 191.43 L 874.69 190.87 L 876.17 190.87 L 877.64 190.87 L 879.11 192.82 L 880.58 191.71 L 882.06 191.71 L 883.53 191.15 L 885.00 190.87 L 886.47 189.21 L 887.94 191.43 L 889.42 193.09 L 890.89 194.48 L 892.36 197.81 L 893.83 202.25 L 895.31 204.47 L 896.78 214.47 L 898.25 223.63 L 899.72 220.85 L 901.19 222.24 L 902.67 221.68 L 904.14 221.41 L 905.61 217.52 L 907.08 220.30 L 908.56 219.74 L 910.03 224.74 L 911.50 220.30 L 912.97 223.63 L 914.44 221.41 L 915.92 220.57 L 917.39 218.91 L 918.86 220.57 L 920.33 214.74 L 921.81 218.91 L 923.28 217.24 L 924.75 215.85 L 926.22 211.97 L 927.69 211.14 L 929.17 214.74 L 930.64 218.91 L 932.11 201.14 L 933.58 205.31 L 935.06 201.98 L 936.53 198.92 L 938.00 209.47 L 939.47 211.41 L 940.94 211.14 L 942.42 212.52 L 943.89 210.58 L 945.36 208.08 L 946.83 196.70 L 948.31 193.65 L 949.78 187.27" stroke="#1976D2" />
<text x="90" y="289.75" font-size="14" font-weight="700">Inclinação (graus)</text>
<rect class="event" x="443.33" y="295.75" width="241.44" height="192.75" />
<line class="eventline" x1="443.33" y1="295.75" x2="443.33" y2="488.50" />
<line class="eventline" x1="684.78" y1="295.75" x2="684.78" y2="488.50" />
<line class="grid" x1="90" y1="488.50" x2="1150" y2="488.50" />
<text class="small" x="80" y="492.50" text-anchor="end">-20.0</text>
<line class="grid" x1="90" y1="449.95" x2="1150" y2="449.95" />
<text class="small" x="80" y="453.95" text-anchor="end">-10.0</text>
<line class="grid" x1="90" y1="411.40" x2="1150" y2="411.40" />
<text class="small" x="80" y="415.40" text-anchor="end">0.00</text>
<line class="grid" x1="90" y1="372.85" x2="1150" y2="372.85" />
<text class="small" x="80" y="376.85" text-anchor="end">10.0</text>
<line class="grid" x1="90" y1="334.30" x2="1150" y2="334.30" />
<text class="small" x="80" y="338.30" text-anchor="end">20.0</text>
<line class="grid" x1="90" y1="295.75" x2="1150" y2="295.75" />
<text class="small" x="80" y="299.75" text-anchor="end">30.0</text>
<line class="grid" x1="90.00" y1="295.75" x2="90.00" y2="488.50" />
<line class="grid" x1="266.67" y1="295.75" x2="266.67" y2="488.50" />
<line class="grid" x1="443.33" y1="295.75" x2="443.33" y2="488.50" />
<line class="grid" x1="620.00" y1="295.75" x2="620.00" y2="488.50" />
<line class="grid" x1="796.67" y1="295.75" x2="796.67" y2="488.50" />
<line class="grid" x1="973.33" y1="295.75" x2="973.33" y2="488.50" />
<line class="grid" x1="1150.00" y1="295.75" x2="1150.00" y2="488.50" />
<line class="axis" x1="90" y1="295.75" x2="90" y2="488.50" />
<line class="axis" x1="90" y1="488.50" x2="1150" y2="488.50" />
<path class="series" d="M 178.33 361.45 L 179.81 361.54 L 181.28 365.65 L 182.75 368.83 L 184.22 368.95 L 185.69 367.43 L 187.17 353.54 L 188.64 365.24 L 190.11 368.56 L 191.58 387.32 L 193.06 366.21 L 194.53 372.08 L 196.00 379.63 L 197.47 367.60 L 198.94 363.57 L 200.42 358.82 L 201.89 352.88 L 203.36 353.80 L 204.83 359.40 L 206.31 368.01 L 207.78 370.86 L 209.25 374.04 L 210.72 371.11 L 212.19 394.92 L 213.67 360.92 L 215.14 364.48 L 216.61 381.94 L 218.08 361.88 L 219.56 375.90 L 221.03 372.23 L 222.50 384.21 L 223.97 359.61 L 225.44 349.57 L 226.92 351.02 L 228.39 344.53 L 229.86 356.06 L 231.33 351.77 L 232.81 353.45 L 234.28 357.63 L 235.75 354.47 L 237.22 354.07 L 238.69 354.04 L 240.17 354.54 L 241.64 358.08 L 243.11 358.15 L 244.58 358.33 L 246.06 358.01 L 247.53 358.14 L 249.00 358.10 L 250.47 358.13 L 251.94 358.12 L 253.42 358.12 L 254.89 358.06 L 256.36 358.06 L 257.83 358.07 L 259.31 358.10 L 260.78 358.01 L 262.25 358.08 L 263.72 358.05 L 265.19 358.04 L 266.67 358.00 L 268.14 358.00 L 269.61 358.04 L 271.08 357.97 L 272.56 357.99 L 274.03 357.98 L 275.50 357.94 L 276.97 357.98 L 278.44 357.94 L 279.92 357.97 L 281.39 357.99 L 282.86 357.97 L 284.33 357.95 L 285.81 358.01 L 287.28 357.97 L 288.75 357.99 L 290.22 357.94 L 291.69 357.98 L 293.17 357.92 L 294.64 357.96 L 296.11 357.97 L 297.58 357.97 L 299.06 357.99 L 300.53 358.02 L 302.00 357.93 L 303.47 357.95 L 304.94 357.96 L 306.42 358.00 L 307.89 357.96 L 309.36 357.99 L 310.83 357.90 L 312.31 358.03 L 313.78 357.93 L 315.25 357.95 L 316.72 357.99 L 318.19 358.05 L 319.67 358.00 L 321.14 357.99 L 322.61 358.00 L 324.08 358.00 L 325.56 358.04 L 327.03 358.05 L 328.50 357.99 L 329.97 358.01 L 331.44 357.96 L 332.92 357.98 L 334.39 357.99 L 335.86 357.97 L 337.33 358.02 L 338.81 358.02 L 340.28 357.97 L 341.75 358.03 L 343.22 358.01 L 344.69 357.98 L 346.17 358.01 L 347.64 358.03 L 349.11 358.01 L 350.58 358.02 L 352.06 357.94 L 353.53 358.03 L 355.00 358.02 L 356.47 357.95 L 357.94 357.93 L 359.42 357.98 L 360.89 357.99 L 362.36 358.01 L 363.83 357.97 L 365.31 358.03 L 366.78 358.00 L 368.25 358.04 L 369.72 358.01 L 371.19 358.01 L 372.67 357.99 L 374.14 357.98 L 375.61 357.96 L 377.08 357.94 L 378.56 357.99 L 380.03 358.00 L 381.50 358.07 L 382.97 357.98 L 384.44 358.03 L 385.92 358.03 L 387.39 357.99 L 388.86 357.99 L 390.33 357.85 L 391.81 357.86 L 393.28 359.13 L 394.75 357.97 L 396.22 359.50 L 397.69 358.73 L 399.17 358.69 L 400.64 358.73 L 402.11 353.91 L 403.58 353.72 L 405.06 358.61 L 406.53 358.71 L 408.00 359.91 L 409.47 360.77 L 410.94 351.38 L 412.42 352.84 L 413.89 356.87 L 415.36 354.56 L 416.83 352.02 L 418.31 349.69 L 419.78 354.58 L 421.25 351.62 L 422.72 354.37 L 424.19 361.98 L 425.67 363.47 L 427.14 367.34 L 428.61 368.78 L 430.08 364.92 L 431.56 369.99 L 433.03 369.18 L 434.50 367.80 L 435.97 373.99 L 437.44 368.60 L 438.92 362.62 L 440.39 363.92 L 441.86 364.62 L 443.33 357.90 L 444.81 352.83 L 446.28 354.53 L 447.75 353.09 L 449.22 350.03 L 450.69 347.44 L 452.17 359.18 L 453.64 345.77 L 455.11 347.17 L 456.58 346.72 L 458.06 348.82 L 459.53 345.45 L 461.00 347.07 L 462.47 346.99 L 463.94 346.93 L 465.42 347.06 L 466.89 347.04 L 468.36 346.98 L 469.83 347.01 L 471.31 347.01 L 472.78 346.94 L 474.25 346.94 L 475.72 346.96 L 477.19 346.91 L 478.67 346.92 L 480.14 346.98 L 481.61 346.81 L 483.08 346.37 L 484.56 345.94 L 486.03 345.67 L 487.50 346.06 L 488.97 345.94 L 490.44 345.84 L 491.92 345.86 L 493.39 345.89 L 494.86 345.87 L 496.33 345.84 L 497.81 345.83 L 499.28 345.82 L 500.75 345.83 L 502.22 345.83 L 503.69 345.79 L 505.17 345.85 L 506.64 345.82 L 508.11 345.83 L 509.58 345.70 L 511.06 345.83 L 512.53 346.01 L 514.00 344.94 L 515.47 344.71 L 516.94 345.36 L 518.42 345.13 L 519.89 345.18 L 521.36 345.12 L 522.83 345.15 L 524.31 345.15 L 525.78 345.15 L 527.25 345.07 L 528.72 345.14 L 530.19 345.13 L 531.67 345.11 L 533.14 345.11 L 534.61 345.13 L 536.08 345.07 L 537.56 345.06 L 539.03 345.04 L 540.50 345.04 L 541.97 345.22 L 543.44 344.94 L 544.92 344.47 L 546.39 344.95 L 547.86 344.60 L 549.33 344.83 L 550.81 344.74 L 552.28 344.72 L 553.75 344.74 L 555.22 344.74 L 556.69 344.74 L 558.17 344.76 L 559.64 344.67 L 561.11 344.75 L 562.58 344.74 L 564.06 344.73 L 565.53 344.71 L 567.00 344.74 L 568.47 344.71 L 569.94 344.72 L 571.42 344.69 L 572.89 344.72 L 574.36 344.67 L 575.83 344.71 L 577.31 344.58 L 578.78 344.96 L 580.25 344.87 L 581.72 345.12 L 583.19 345.65 L 584.67 345.38 L 586.14 345.57 L 587.61 345.46 L 589.08 345.48 L 590.56 345.52 L 592.03 345.51 L 593.50 345.51 L 594.97 345.55 L 596.44 345.48 L 597.92 345.53 L 599.39 345.56 L 600.86 345.47 L 602.33 345.55 L 603.81 345.48 L 605.28 345.52 L 606.75 345.49 L 608.22 345.49 L 609.69 345.49 L 611.17 345.56 L 612.64 345.50 L 614.11 345.44 L 615.58 345.58 L 617.06 346.71 L 618.53 346.63 L 620.00 346.63 L 621.47 346.59 L 622.94 346.42 L 624.42 346.50 L 625.89 346.60 L 627.36 346.50 L 628.83 346.48 L 630.31 346.53 L 631.78 346.51 L 633.25 346.50 L 634.72 346.49 L 636.19 346.55 L 637.67 346.56 L 639.14 346.51 L 640.61 346.50 L 642.08 346.56 L 643.56 346.54 L 645.03 346.52 L 646.50 346.55 L 647.97 346.56 L 649.44 346.65 L 650.92 346.74 L 652.39 347.22 L 653.86 347.09 L 655.33 347.30 L 656.81 347.20 L 658.28 347.17 L 659.75 347.10 L 661.22 347.20 L 662.69 347.14 L 664.17 347.18 L 665.64 347.19 L 667.11 347.15 L 668.58 347.19 L 670.06 347.16 L 671.53 347.16 L 673.00 347.16 L 674.47 347.22 L 675.94 347.55 L 677.42 348.15 L 678.89 362.00 L 680.36 359.80 L 681.83 352.22 L 683.31 363.01 L 684.78 362.80 L 686.25 371.34 L 687.72 367.91 L 689.19 371.54 L 690.67 362.78 L 692.14 357.59 L 693.61 357.63 L 695.08 347.62 L 696.56 357.96 L 698.03 352.76 L 699.50 364.07 L 700.97 363.06 L 702.44 366.96 L 703.92 359.81 L 705.39 356.18 L 706.86 362.39 L 708.33 360.77 L 709.81 361.11 L 711.28 367.77 L 712.75 366.62 L 714.22 362.37 L 715.69 361.99 L 717.17 363.79 L 718.64 370.11 L 720.11 367.13 L 721.58 377.05 L 723.06 374.00 L 724.53 377.90 L 726.00 377.41 L 727.47 370.57 L 728.94 366.58 L 730.42 363.96 L 731.89 367.22 L 733.36 363.74 L 734.83 361.58 L 736.31 362.75 L 737.78 367.97 L 739.25 369.04 L 740.72 368.71 L 742.19 364.88 L 743.67 366.45 L 745.14 373.91 L 746.61 374.97 L 748.08 374.90 L 749.56 376.95 L 751.03 375.49 L 752.50 373.45 L 753.97 380.65 L 755.44 379.57 L 756.92 373.41 L 758.39 378.28 L 759.86 379.42 L 761.33 376.48 L 762.81 377.11 L 764.28 372.76 L 765.75 369.37 L 767.22 371.02 L 768.69 372.73 L 770.17 371.11 L 771.64 366.49 L 773.11 369.97 L 774.58 367.89 L 776.06 361.63 L 777.53 370.25 L 779.00 371.07 L 780.47 361.89 L 781.94 363.27 L 783.42 359.15 L 784.89 364.36 L 786.36 364.40 L 787.83 362.89 L 789.31 360.32 L 790.78 363.20 L 792.25 363.57 L 793.72 359.14 L 795.19 355.51 L 796.67 361.39 L 798.14 358.77 L 799.61 359.93 L 801.08 363.36 L 802.56 362.33 L 804.03 356.62 L 805.50 362.75 L 806.97 359.70 L 808.44 357.24 L 809.92 363.73 L 811.39 362.69 L 812.86 368.73 L 814.33 366.16 L 815.81 364.94 L 817.28 372.94 L 818.75 388.70 L 820.22 397.98 L 821.69 399.47 L 823.17 402.80 L 824.64 404.57 L 826.11 402.11 L 827.58 401.38 L 829.06 401.83 L 830.53 407.85 L 832.00 403.13 L 833.47 401.90 L 834.94 396.42 L 836.42 389.03 L 837.89 382.64 L 839.36 381.31 L 840.83 375.55 L 842.31 380.79 L 843.78 376.64 L 845.25 379.79 L 846.72 377.55 L 848.19 380.73 L 849.67 378.29 L 851.14 381.84 L 852.61 379.32 L 854.08 378.49 L 855.56 378.67 L 857.03 374.44 L 858.50 371.05 L 859.97 375.30 L 861.44 379.93 L 862.92 377.99 L 864.39 380.79 L 865.86 378.02 L 867.33 381.35 L 868.81 380.31 L 870.28 384.86 L 871.75 386.12 L 873.22 385.52 L 874.69 384.76 L 876.17 383.98 L 877.64 384.31 L 879.11 387.71 L 880.58 386.95 L 882.06 386.26 L 883.53 386.25 L 885.00 386.70 L 886.47 387.46 L 887.94 388.11 L 889.42 385.75 L 890.89 387.91 L 892.36 391.12 L 893.83 389.83 L 895.31 391.05 L 896.78 387.79 L 898.25 398.39 L 899.72 397.16 L 901.19 396.07 L 902.67 396.48 L 904.14 396.85 L 905.61 396.94 L 907.08 398.12 L 908.56 398.95 L 910.03 398.28 L 911.50 397.46 L 912.97 397.24 L 914.44 397.98 L 915.92 397.79 L 917.39 396.91 L 918.86 395.92 L 920.33 396.00 L 921.81 395.58 L 923.28 394.94 L 924.75 394.82 L 926.22 394.01 L 927.69 393.11 L 929.17 394.71 L 930.64 394.43 L 932.11 393.28 L 933.58 393.49 L 935.06 393.74 L 936.53 392.04 L 938.00 392.54 L 939.47 391.05 L 940.94 387.20 L 942.42 383.17 L 943.89 379.35 L 945.36 387.24 L 946.83 387.51 L 948.31 386.39 L 949.78 383.23" stroke="#2E7D32" />
<path class="series" d="M 178.33 405.27 L 179.81 414.39 L 181.28 410.27 L 182.75 407.11 L 184.22 406.92 L 185.69 395.00 L 187.17 400.65 L 188.64 416.44 L 190.11 411.97 L 191.58 414.24 L 193.06 415.90 L 194.53 421.75 L 196.00 424.14 L 197.47 418.87 L 198.94 424.58 L 200.42 422.03 L 201.89 409.97 L 203.36 421.21 L 204.83 415.56 L 206.31 415.31 L 207.78 401.23 L 209.25 416.84 L 210.72 405.27 L 212.19 422.75 L 213.67 424.07 L 215.14 415.33 L 216.61 397.04 L 218.08 394.89 L 219.56 405.22 L 221.03 407.32 L 222.50 412.46 L 223.97 408.04 L 225.44 407.71 L 226.92 405.05 L 228.39 403.51 L 229.86 413.56 L 231.33 408.47 L 232.81 403.43 L 234.28 406.70 L 235.75 416.02 L 237.22 417.76 L 238.69 414.74 L 240.17 414.13 L 241.64 415.21 L 243.11 414.47 L 244.58 414.98 L 246.06 414.62 L 247.53 414.60 L 249.00 414.64 L 250.47 414.65 L 251.94 414.71 L 253.42 414.66 L 254.89 414.68 L 256.36 414.74 L 257.83 414.69 L 259.31 414.69 L 260.78 414.70 L 262.25 414.76 L 263.72 414.71 L 265.19 414.69 L 266.67 414.73 L 268.14 414.68 L 269.61 414.72 L 271.08 414.64 L 272.56 414.74 L 274.03 414.76 L 275.50 414.72 L 276.97 414.71 L 278.44 414.68 L 279.92 414.76 L 281.39 414.63 L 282.86 414.72 L 284.33 414.74 L 285.81 414.65 L 287.28 414.71 L 288.75 414.72 L 290.22 414.77 L 291.69 414.69 L 293.17 414.73 L 294.64 414.82 L 296.11 414.72 L 297.58 414.74 L 299.06 414.70 L 300.53 414.75 L 302.00 414.72 L 303.47 414.76 L 304.94 414.72 L 306.42 414.74 L 307.89 414.74 L 309.36 414.82 L 310.83 414.69 L 312.31 414.73 L 313.78 414.73 L 315.25 414.70 L 316.72 414.82 L 318.19 414.75 L 319.67 414.73 L 321.14 414.83 L 322.61 414.79 L 324.08 414.74 L 325.56 414.77 L 327.03 414.75 L 328.50 414.78 L 329.97 414.78 L 331.44 414.75 L 332.92 414.76 L 334.39 414.83 L 335.86 414.74 L 337.33 414.76 L 338.81 414.79 L 340.28 414.75 L 341.75 414.81 L 343.22 414.78 L 344.69 414.75 L 346.17 414.80 L 347.64 414.74 L 349.11 414.73 L 350.58 414.76 L 352.06 414.76 L 353.53 414.82 L 355.00 414.78 L 356.47 414.82 L 357.94 414.58 L 359.42 414.92 L 360.89 414.64 L 362.36 414.76 L 363.83 414.80 L 365.31 414.75 L 366.78 414.84 L 368.25 414.77 L 369.72 414.70 L 371.19 414.81 L 372.67 414.75 L 374.14 414.71 L 375.61 414.77 L 377.08 414.72 L 378.56 414.77 L 380.03 414.82 L 381.50 414.73 L 382.97 414.81 L 384.44 414.80 L 385.92 414.80 L 387.39 414.76 L 388.86 414.74 L 390.33 414.65 L 391.81 414.66 L 393.28 416.26 L 394.75 413.68 L 396.22 416.15 L 397.69 414.33 L 399.17 416.23 L 400.64 413.44 L 402.11 415.14 L 403.58 415.39 L 405.06 417.03 L 406.53 417.62 L 408.00 409.70 L 409.47 414.19 L 410.94 414.54 L 412.42 412.35 L 413.89 406.89 L 415.36 419.76 L 416.83 411.56 L 418.31 423.09 L 419.78 404.52 L 421.25 414.44 L 422.72 413.43 L 424.19 403.47 L 425.67 399.99 L 427.14 420.02 L 428.61 407.84 L 430.08 403.82 L 431.56 407.17 L 433.03 406.22 L 434.50 417.20 L 435.97 413.61 L 437.44 415.85 L 438.92 414.10 L 440.39 411.20 L 441.86 412.04 L 443.33 413.55 L 444.81 409.25 L 446.28 407.68 L 447.75 407.09 L 449.22 407.21 L 450.69 409.56 L 452.17 404.53 L 453.64 401.38 L 455.11 404.08 L 456.58 402.28 L 458.06 404.50 L 459.53 403.12 L 461.00 404.73 L 462.47 403.25 L 463.94 404.09 L 465.42 403.81 L 466.89 403.74 L 468.36 403.90 L 469.83 403.70 L 471.31 403.94 L 472.78 403.66 L 474.25 403.83 L 475.72 403.77 L 477.19 403.79 L 478.67 403.81 L 480.14 403.93 L 481.61 403.79 L 483.08 404.49 L 484.56 404.05 L 486.03 403.87 L 487.50 403.90 L 488.97 404.06 L 490.44 404.25 L 491.92 404.02 L 493.39 404.05 L 494.86 404.13 L 496.33 404.13 L 497.81 404.00 L 499.28 404.05 L 500.75 404.09 L 502.22 404.09 L 503.69 404.09 L 505.17 404.11 L 506.64 404.10 L 508.11 404.10 L 509.58 404.09 L 511.06 404.19 L 512.53 403.74 L 514.00 404.60 L 515.47 405.00 L 516.94 404.84 L 518.42 404.66 L 519.89 404.47 L 521.36 404.36 L 522.83 404.35 L 524.31 404.39 L 525.78 404.54 L 527.25 404.61 L 528.72 404.53 L 530.19 404.53 L 531.67 404.45 L 533.14 404.46 L 534.61 404.52 L 536.08 404.47 L 537.56 404.52 L 539.03 404.47 L 540.50 404.52 L 541.97 404.53 L 543.44 404.68 L 544.92 403.80 L 546.39 404.44 L 547.86 404.19 L 549.33 404.20 L 550.81 404.18 L 552.28 404.18 L 553.75 404.21 L 555.22 404.12 L 556.69 404.14 L 558.17 404.16 L 559.64 404.11 L 561.11 404.18 L 562.58 404.15 L 564.06 404.14 L 565.53 404.17 L 567.00 404.15 L 568.47 404.17 L 569.94 404.16 L 571.42 404.16 L 572.89 404.18 L 574.36 404.16 L 575.83 404.14 L 577.31 404.16 L 578.78 404.53 L 580.25 403.83 L 581.72 403.79 L 583.19 403.87 L 584.67 403.28 L 586.14 403.81 L 587.61 403.77 L 589.08 403.57 L 590.56 403.68 L 592.03 403.74 L 593.50 403.70 L 594.97 403.66 L 596.44 403.71 L 597.92 403.70 L 599.39 403.69 L 600.86 403.68 L 602.33 403.74 L 603.81 403.68 L 605.28 403.69 L 606.75 403.70 L 608.22 403.68 L 609.69 403.71 L 611.17 403.69 L 612.64 403.69 L 614.11 403.84 L 615.58 403.41 L 617.06 402.07 L 618.53 402.95 L 620.00 402.52 L 621.47 402.92 L 622.94 402.53 L 624.42 402.70 L 625.89 402.68 L 627.36 402.61 L 628.83 402.66 L 630.31 402.58 L 631.78 402.61 L 633.25 402.63 L 634.72 402.60 L 636.19 402.58 L 637.67 402.61 L 639.14 402.56 L 640.61 402.66 L 642.08 402.60 L 643.56 402.57 L 645.03 402.62 L 646.50 402.59 L 647.97 402.63 L 649.44 402.61 L 650.92 402.13 L 652.39 402.75 L 653.86 402.19 L 655.33 402.32 L 656.81 402.20 L 658.28 402.36 L 659.75 402.18 L 661.22 402.41 L 662.69 402.19 L 664.17 402.42 L 665.64 402.23 L 667.11 402.27 L 668.58 402.29 L 670.06 402.26 L 671.53 402.30 L 673.00 402.30 L 674.47 402.28 L 675.94 402.32 L 677.42 401.87 L 678.89 402.66 L 680.36 407.65 L 681.83 407.41 L 683.31 421.40 L 684.78 413.12 L 686.25 413.03 L 687.72 423.43 L 689.19 403.59 L 690.67 407.35 L 692.14 413.64 L 693.61 419.99 L 695.08 423.78 L 696.56 431.81 L 698.03 425.68 L 699.50 432.43 L 700.97 424.92 L 702.44 423.30 L 703.92 410.69 L 705.39 409.30 L 706.86 407.18 L 708.33 403.35 L 709.81 403.06 L 711.28 415.00 L 712.75 409.82 L 714.22 411.51 L 715.69 404.34 L 717.17 401.40 L 718.64 403.86 L 720.11 399.91 L 721.58 404.22 L 723.06 407.75 L 724.53 409.48 L 726.00 399.50 L 727.47 401.96 L 728.94 397.45 L 730.42 407.75 L 731.89 412.79 L 733.36 409.90 L 734.83 399.56 L 736.31 404.70 L 737.78 404.72 L 739.25 403.91 L 740.72 414.38 L 742.19 417.90 L 743.67 411.93 L 745.14 410.91 L 746.61 403.10 L 748.08 411.04 L 749.56 397.65 L 751.03 416.10 L 752.50 397.01 L 753.97 413.72 L 755.44 401.32 L 756.92 408.69 L 758.39 415.70 L 759.86 411.78 L 761.33 412.83 L 762.81 415.50 L 764.28 423.30 L 765.75 423.06 L 767.22 417.96 L 768.69 398.67 L 770.17 393.53 L 771.64 409.50 L 773.11 409.71 L 774.58 410.81 L 776.06 431.62 L 777.53 430.21 L 779.00 421.22 L 780.47 412.36 L 781.94 416.10 L 783.42 410.32 L 784.89 424.21 L 786.36 426.06 L 787.83 422.92 L 789.31 413.81 L 790.78 414.55 L 792.25 413.30 L 793.72 406.95 L 795.19 400.58 L 796.67 409.21 L 798.14 415.99 L 799.61 413.27 L 801.08 421.21 L 802.56 425.35 L 804.03 424.78 L 805.50 417.03 L 806.97 426.09 L 808.44 410.65 L 809.92 422.26 L 811.39 419.16 L 812.86 418.16 L 814.33 414.15 L 815.81 410.25 L 817.28 412.50 L 818.75 411.16 L 820.22 416.97 L 821.69 420.44 L 823.17 422.33 L 824.64 417.29 L 826.11 418.77 L 827.58 414.93 L 829.06 413.43 L 830.53 412.26 L 832.00 412.28 L 833.47 403.83 L 834.94 404.19 L 836.42 403.89 L 837.89 401.48 L 839.36 398.09 L 840.83 402.53 L 842.31 407.35 L 843.78 410.54 L 845.25 412.88 L 846.72 426.66 L 848.19 426.34 L 849.67 447.59 L 851.14 432.37 L 852.61 426.67 L 854.08 419.57 L 855.56 421.41 L 857.03 431.31 L 858.50 429.40 L 859.97 432.51 L 861.44 429.40 L 862.92 426.91 L 864.39 421.98 L 865.86 424.35 L 867.33 419.45 L 868.81 417.58 L 870.28 415.88 L 871.75 417.28 L 873.22 417.93 L 874.69 413.99 L 876.17 403.40 L 877.64 410.31 L 879.11 415.22 L 880.58 413.67 L 882.06 418.85 L 883.53 418.84 L 885.00 420.94 L 886.47 424.13 L 887.94 425.61 L 889.42 431.53 L 890.89 431.38 L 892.36 430.63 L 893.83 425.48 L 895.31 425.33 L 896.78 418.89 L 898.25 419.27 L 899.72 417.78 L 901.19 413.69 L 902.67 415.64 L 904.14 414.73 L 905.61 414.92 L 907.08 416.49 L 908.56 414.04 L 910.03 416.31 L 911.50 410.35 L 912.97 413.67 L 914.44 412.60 L 915.92 414.86 L 917.39 416.05 L 918.86 415.33 L 920.33 416.32 L 921.81 418.27 L 923.28 417.97 L 924.75 418.59 L 926.22 420.16 L 927.69 420.13 L 929.17 425.56 L 930.64 422.87 L 932.11 423.04 L 933.58 424.54 L 935.06 423.02 L 936.53 424.20 L 938.00 426.10 L 939.47 421.83 L 940.94 421.88 L 942.42 422.55 L 943.89 425.03 L 945.36 425.00 L 946.83 429.68 L 948.31 431.98 L 949.78 435.86" stroke="#6A1B9A" />
<line x1="900.00" y1="307.75" x2="918.00" y2="307.75" stroke="#2E7D32" stroke-width="3" />
<text class="small" x="924.00" y="311.75">pitch</text>
<line x1="900.00" y1="323.75" x2="918.00" y2="323.75" stroke="#6A1B9A" stroke-width="3" />
<text class="small" x="924.00" y="327.75">roll</text>
<text x="90" y="500.50" font-size="14" font-weight="700">Aceleração (magnitude) (u.a.)</text>
<rect class="event" x="443.33" y="506.50" width="241.44" height="192.75" />
<line class="eventline" x1="443.33" y1="506.50" x2="443.33" y2="699.25" />
<line class="eventline" x1="684.78" y1="506.50" x2="684.78" y2="699.25" />
<line class="grid" x1="90" y1="699.25" x2="1150" y2="699.25" />
<text class="small" x="80" y="703.25" text-anchor="end">0.00</text>
<line class="grid" x1="90" y1="660.70" x2="1150" y2="660.70" />
<text class="small" x="80" y="664.70" text-anchor="end">0.50</text>
<line class="grid" x1="90" y1="622.15" x2="1150" y2="622.15" />
<text class="small" x="80" y="626.15" text-anchor="end">1.00</text>
<line class="grid" x1="90" y1="583.60" x2="1150" y2="583.60" />
<text class="small" x="80" y="587.60" text-anchor="end">1.50</text>
<line class="grid" x1="90" y1="545.05" x2="1150" y2="545.05" />
<text class="small" x="80" y="549.05" text-anchor="end">2.00</text>
<line class="grid" x1="90" y1="506.50" x2="1150" y2="506.50" />
<text class="small" x="80" y="510.50" text-anchor="end">2.50</text>
<line class="grid" x1="90.00" y1="506.50" x2="90.00" y2="699.25" />
<line class="grid" x1="266.67" y1="506.50" x2="266.67" y2="699.25" />
<line class="grid" x1="443.33" y1="506.50" x2="443.33" y2="699.25" />
<line class="grid" x1="620.00" y1="506.50" x2="620.00" y2="699.25" />
<line class="grid" x1="796.67" y1="506.50" x2="796.67" y2="699.25" />
<line class="grid" x1="973.33" y1="506.50" x2="973.33" y2="699.25" />
<line class="grid" x1="1150.00" y1="506.50" x2="1150.00" y2="699.25" />
<line class="axis" x1="90" y1="506.50" x2="90" y2="699.25" />
<line class="axis" x1="90" y1="699.25" x2="1150" y2="699.25" />
<path class="series" d="M 178.33 678.59 L 179.81 664.30 L 181.28 649.18 L 182.75 646.25 L 184.22 635.01 L 185.69 642.52 L 187.17 675.70 L 188.64 656.82 L 190.11 666.49 L 191.58 661.47 L 193.06 635.43 L 194.53 647.75 L 196.00 657.94 L 197.47 684.64 L 198.94 679.23 L 200.42 658.79 L 201.89 659.27 L 203.36 677.85 L 204.83 686.17 L 206.31 684.85 L 207.78 679.95 L 209.25 645.90 L 210.72 672.55 L 212.19 678.08 L 213.67 661.99 L 215.14 680.12 L 216.61 672.68 L 218.08 686.62 L 219.56 648.42 L 221.03 659.57 L 222.50 670.92 L 223.97 655.92 L 225.44 639.91 L 226.92 663.45 L 228.39 663.45 L 229.86 685.17 L 231.33 666.83 L 232.81 663.83 L 234.28 687.44 L 235.75 666.60 L 237.22 688.30 L 238.69 683.94 L 240.17 695.41 L 241.64 689.35 L 243.11 697.65 L 244.58 697.85 L 246.06 697.70 L 247.53 697.91 L 249.00 698.31 L 250.47 698.80 L 251.94 698.56 L 253.42 698.75 L 254.89 698.44 L 256.36 698.61 L 257.83 698.72 L 259.31 698.76 L 260.78 699.01 L 262.25 699.09 L 263.72 699.14 L 265.19 698.96 L 266.67 698.96 L 268.14 698.99 L 269.61 699.04 L 271.08 699.05 L 272.56 699.13 L 274.03 699.07 L 275.50 699.07 L 276.97 699.00 L 278.44 699.06 L 279.92 699.08 L 281.39 699.03 L 282.86 699.04 L 284.33 699.09 L 285.81 699.11 L 287.28 699.10 L 288.75 699.05 L 290.22 699.08 L 291.69 699.10 L 293.17 699.06 L 294.64 699.15 L 296.11 699.13 L 297.58 698.98 L 299.06 699.10 L 300.53 699.05 L 302.00 698.89 L 303.47 699.05 L 304.94 698.77 L 306.42 698.96 L 307.89 699.20 L 309.36 698.97 L 310.83 699.04 L 312.31 698.98 L 313.78 698.84 L 315.25 698.92 L 316.72 698.92 L 318.19 699.08 L 319.67 699.11 L 321.14 699.15 L 322.61 699.08 L 324.08 699.09 L 325.56 699.12 L 327.03 699.13 L 328.50 699.07 L 329.97 698.99 L 331.44 699.12 L 332.92 698.95 L 334.39 698.71 L 335.86 699.03 L 337.33 699.20 L 338.81 699.17 L 340.28 699.13 L 341.75 699.13 L 343.22 698.92 L 344.69 699.02 L 346.17 698.90 L 347.64 699.04 L 349.11 699.08 L 350.58 699.04 L 352.06 699.18 L 353.53 699.12 L 355.00 698.69 L 356.47 698.70 L 357.94 698.91 L 359.42 698.98 L 360.89 698.99 L 362.36 699.05 L 363.83 698.95 L 365.31 699.17 L 366.78 699.07 L 368.25 699.05 L 369.72 699.05 L 371.19 699.10 L 372.67 699.13 L 374.14 699.16 L 375.61 699.03 L 377.08 699.06 L 378.56 699.02 L 380.03 697.67 L 381.50 695.76 L 382.97 698.92 L 384.44 698.99 L 385.92 699.08 L 387.39 699.16 L 388.86 699.16 L 390.33 698.59 L 391.81 697.63 L 393.28 685.11 L 394.75 694.41 L 396.22 692.71 L 397.69 695.23 L 399.17 696.48 L 400.64 695.34 L 402.11 687.72 L 403.58 694.15 L 405.06 693.14 L 406.53 692.90 L 408.00 682.85 L 409.47 696.70 L 410.94 682.56 L 412.42 691.36 L 413.89 671.99 L 415.36 682.59 L 416.83 684.65 L 418.31 681.58 L 419.78 667.80 L 421.25 692.08 L 422.72 696.30 L 424.19 657.64 L 425.67 673.50 L 427.14 671.89 L 428.61 686.76 L 430.08 691.63 L 431.56 692.00 L 433.03 685.60 L 434.50 669.14 L 435.97 675.29 L 437.44 686.91 L 438.92 690.91 L 440.39 685.15 L 441.86 681.45 L 443.33 689.13 L 444.81 694.17 L 446.28 688.88 L 447.75 692.84 L 449.22 695.31 L 450.69 693.93 L 452.17 653.50 L 453.64 686.36 L 455.11 694.58 L 456.58 693.33 L 458.06 693.32 L 459.53 693.85 L 461.00 697.56 L 462.47 697.64 L 463.94 698.41 L 465.42 697.66 L 466.89 698.80 L 468.36 698.08 L 469.83 698.65 L 471.31 698.62 L 472.78 698.58 L 474.25 698.48 L 475.72 698.96 L 477.19 699.22 L 478.67 698.88 L 480.14 698.66 L 481.61 695.83 L 483.08 692.89 L 484.56 695.86 L 486.03 698.41 L 487.50 698.60 L 488.97 698.72 L 490.44 698.82 L 491.92 699.06 L 493.39 698.90 L 494.86 699.11 L 496.33 698.97 L 497.81 699.08 L 499.28 699.07 L 500.75 699.13 L 502.22 699.06 L 503.69 699.06 L 505.17 698.92 L 506.64 699.16 L 508.11 699.00 L 509.58 697.02 L 511.06 698.43 L 512.53 695.36 L 514.00 696.28 L 515.47 696.91 L 516.94 698.14 L 518.42 698.25 L 519.89 698.84 L 521.36 698.98 L 522.83 698.96 L 524.31 698.95 L 525.78 699.00 L 527.25 699.07 L 528.72 699.01 L 530.19 699.20 L 531.67 699.12 L 533.14 699.06 L 534.61 698.99 L 536.08 699.04 L 537.56 698.87 L 539.03 699.18 L 540.50 698.92 L 541.97 697.42 L 543.44 698.20 L 544.92 697.71 L 546.39 698.12 L 547.86 698.33 L 549.33 698.78 L 550.81 699.10 L 552.28 699.07 L 553.75 699.02 L 555.22 699.07 L 556.69 699.07 L 558.17 698.96 L 559.64 699.08 L 561.11 699.18 L 562.58 699.17 L 564.06 699.13 L 565.53 699.19 L 567.00 699.09 L 568.47 699.03 L 569.94 699.11 L 571.42 699.16 L 572.89 699.06 L 574.36 699.10 L 575.83 699.09 L 577.31 699.10 L 578.78 697.39 L 580.25 696.57 L 581.72 697.63 L 583.19 697.33 L 584.67 697.89 L 586.14 698.48 L 587.61 698.29 L 589.08 698.71 L 590.56 698.56 L 592.03 698.91 L 593.50 699.13 L 594.97 699.06 L 596.44 699.04 L 597.92 699.10 L 599.39 699.03 L 600.86 698.98 L 602.33 699.04 L 603.81 699.00 L 605.28 698.96 L 606.75 699.05 L 608.22 699.11 L 609.69 699.16 L 611.17 699.13 L 612.64 699.02 L 614.11 698.26 L 615.58 697.17 L 617.06 695.76 L 618.53 697.03 L 620.00 698.07 L 621.47 698.85 L 622.94 698.65 L 624.42 698.68 L 625.89 698.89 L 627.36 698.77 L 628.83 698.90 L 630.31 698.89 L 631.78 698.83 L 633.25 699.07 L 634.72 699.05 L 636.19 698.92 L 637.67 699.03 L 639.14 699.10 L 640.61 699.10 L 642.08 699.04 L 643.56 699.11 L 645.03 699.08 L 646.50 698.79 L 647.97 698.84 L 649.44 698.14 L 650.92 697.21 L 652.39 698.15 L 653.86 697.97 L 655.33 698.54 L 656.81 698.86 L 658.28 699.14 L 659.75 698.72 L 661.22 698.97 L 662.69 698.80 L 664.17 698.97 L 665.64 699.01 L 667.11 698.85 L 668.58 699.02 L 670.06 699.07 L 671.53 698.96 L 673.00 698.76 L 674.47 698.72 L 675.94 694.91 L 677.42 676.28 L 678.89 684.96 L 680.36 668.16 L 681.83 671.51 L 683.31 662.48 L 684.78 678.47 L 686.25 671.08 L 687.72 667.20 L 689.19 682.26 L 690.67 673.21 L 692.14 676.27 L 693.61 668.52 L 695.08 663.60 L 696.56 689.82 L 698.03 684.92 L 699.50 675.05 L 700.97 674.36 L 702.44 674.88 L 703.92 680.81 L 705.39 678.16 L 706.86 681.73 L 708.33 672.24 L 709.81 647.96 L 711.28 682.25 L 712.75 673.61 L 714.22 662.70 L 715.69 673.28 L 717.17 691.11 L 718.64 645.73 L 720.11 653.40 L 721.58 691.44 L 723.06 672.49 L 724.53 672.49 L 726.00 671.05 L 727.47 681.56 L 728.94 669.55 L 730.42 655.72 L 731.89 680.94 L 733.36 678.60 L 734.83 680.00 L 736.31 676.37 L 737.78 654.11 L 739.25 675.43 L 740.72 680.54 L 742.19 682.07 L 743.67 686.66 L 745.14 673.46 L 746.61 666.23 L 748.08 683.49 L 749.56 683.57 L 751.03 676.91 L 752.50 673.27 L 753.97 663.09 L 755.44 679.50 L 756.92 687.30 L 758.39 672.36 L 759.86 679.91 L 761.33 691.52 L 762.81 689.07 L 764.28 679.48 L 765.75 670.81 L 767.22 673.23 L 768.69 643.11 L 770.17 669.47 L 771.64 672.79 L 773.11 679.31 L 774.58 636.61 L 776.06 624.39 L 777.53 670.26 L 779.00 686.77 L 780.47 673.20 L 781.94 660.46 L 783.42 648.70 L 784.89 632.24 L 786.36 636.40 L 787.83 672.63 L 789.31 682.63 L 790.78 685.36 L 792.25 690.33 L 793.72 672.22 L 795.19 680.14 L 796.67 678.00 L 798.14 668.26 L 799.61 650.00 L 801.08 649.59 L 802.56 655.00 L 804.03 618.50 L 805.50 668.03 L 806.97 658.06 L 808.44 658.44 L 809.92 677.39 L 811.39 687.71 L 812.86 682.46 L 814.33 684.83 L 815.81 678.81 L 817.28 690.81 L 818.75 681.29 L 820.22 689.16 L 821.69 679.89 L 823.17 689.27 L 824.64 693.43 L 826.11 687.58 L 827.58 689.34 L 829.06 685.77 L 830.53 677.63 L 832.00 677.76 L 833.47 675.77 L 834.94 690.66 L 836.42 688.00 L 837.89 694.13 L 839.36 684.05 L 840.83 693.47 L 842.31 676.56 L 843.78 679.14 L 845.25 688.76 L 846.72 669.19 L 848.19 675.08 L 849.67 664.48 L 851.14 675.10 L 852.61 690.94 L 854.08 663.88 L 855.56 692.62 L 857.03 638.15 L 858.50 673.49 L 859.97 661.66 L 861.44 663.86 L 862.92 664.08 L 864.39 681.83 L 865.86 671.11 L 867.33 688.58 L 868.81 687.44 L 870.28 688.10 L 871.75 693.58 L 873.22 690.55 L 874.69 685.67 L 876.17 672.88 L 877.64 691.27 L 879.11 667.25 L 880.58 693.45 L 882.06 680.00 L 883.53 693.81 L 885.00 695.62 L 886.47 692.19 L 887.94 692.19 L 889.42 691.98 L 890.89 693.58 L 892.36 684.99 L 893.83 684.16 L 895.31 677.67 L 896.78 681.95 L 898.25 673.05 L 899.72 685.14 L 901.19 689.13 L 902.67 694.27 L 904.14 693.26 L 905.61 687.36 L 907.08 691.01 L 908.56 695.39 L 910.03 695.44 L 911.50 688.23 L 912.97 688.34 L 914.44 695.56 L 915.92 690.56 L 917.39 694.27 L 918.86 694.77 L 920.33 697.50 L 921.81 694.62 L 923.28 694.65 L 924.75 694.24 L 926.22 694.24 L 927.69 695.32 L 929.17 694.51 L 930.64 693.01 L 932.11 695.51 L 933.58 696.99 L 935.06 693.36 L 936.53 691.34 L 938.00 687.74 L 939.47 691.34 L 940.94 696.18 L 942.42 690.71 L 943.89 690.50 L 945.36 689.39 L 946.83 685.36 L 948.31 692.96 L 949.78 696.24" stroke="#FB8C00" />
<text x="90" y="711.25" font-size="14" font-weight="700">Giroscópio (magnitude) (u.a.)</text>
<rect class="event" x="443.33" y="717.25" width="241.44" height="192.75" />
<line class="eventline" x1="443.33" y1="717.25" x2="443.33" y2="910.00" />
<line class="eventline" x1="684.78" y1="717.25" x2="684.78" y2="910.00" />
<line class="grid" x1="90" y1="910.00" x2="1150" y2="910.00" />
<text class="small" x="80" y="914.00" text-anchor="end">0.00</text>
<line class="grid" x1="90" y1="871.45" x2="1150" y2="871.45" />
<text class="small" x="80" y="875.45" text-anchor="end">0.05</text>
<line class="grid" x1="90" y1="832.90" x2="1150" y2="832.90" />
<text class="small" x="80" y="836.90" text-anchor="end">0.10</text>
<line class="grid" x1="90" y1="794.35" x2="1150" y2="794.35" />
<text class="small" x="80" y="798.35" text-anchor="end">0.15</text>
<line class="grid" x1="90" y1="755.80" x2="1150" y2="755.80" />
<text class="small" x="80" y="759.80" text-anchor="end">0.20</text>
<line class="grid" x1="90" y1="717.25" x2="1150" y2="717.25" />
<text class="small" x="80" y="721.25" text-anchor="end">0.25</text>
<line class="grid" x1="90.00" y1="717.25" x2="90.00" y2="910.00" />
<line class="grid" x1="266.67" y1="717.25" x2="266.67" y2="910.00" />
<line class="grid" x1="443.33" y1="717.25" x2="443.33" y2="910.00" />
<line class="grid" x1="620.00" y1="717.25" x2="620.00" y2="910.00" />
<line class="grid" x1="796.67" y1="717.25" x2="796.67" y2="910.00" />
<line class="grid" x1="973.33" y1="717.25" x2="973.33" y2="910.00" />
<line class="grid" x1="1150.00" y1="717.25" x2="1150.00" y2="910.00" />
<line class="axis" x1="90" y1="717.25" x2="90" y2="910.00" />
<line class="axis" x1="90" y1="910.00" x2="1150" y2="910.00" />
<path class="series" d="M 178.33 866.99 L 179.81 875.92 L 181.28 893.61 L 182.75 881.80 L 184.22 825.14 L 185.69 763.54 L 187.17 770.49 L 188.64 819.30 L 190.11 845.80 L 191.58 844.29 L 193.06 895.28 L 194.53 850.76 L 196.00 800.09 L 197.47 811.98 L 198.94 824.72 L 200.42 849.10 L 201.89 900.07 L 203.36 886.65 L 204.83 892.90 L 206.31 887.88 L 207.78 892.62 L 209.25 877.02 L 210.72 854.49 L 212.19 872.80 L 213.67 873.19 L 215.14 872.97 L 216.61 871.95 L 218.08 874.77 L 219.56 829.27 L 221.03 772.65 L 222.50 774.07 L 223.97 756.17 L 225.44 764.83 L 226.92 802.29 L 228.39 802.29 L 229.86 824.64 L 231.33 818.36 L 232.81 847.22 L 234.28 880.10 L 235.75 897.17 L 237.22 904.57 L 238.69 905.17 L 240.17 906.40 L 241.64 908.30 L 243.11 908.07 L 244.58 908.18 L 246.06 907.91 L 247.53 908.13 L 249.00 908.26 L 250.47 908.21 L 251.94 908.01 L 253.42 908.14 L 254.89 908.14 L 256.36 908.15 L 257.83 908.14 L 259.31 909.14 L 260.78 909.93 L 262.25 909.90 L 263.72 909.95 L 265.19 909.84 L 266.67 909.78 L 268.14 909.93 L 269.61 909.86 L 271.08 909.84 L 272.56 909.97 L 274.03 909.85 L 275.50 909.89 L 276.97 909.92 L 278.44 909.93 L 279.92 909.90 L 281.39 909.80 L 282.86 909.87 L 284.33 909.86 L 285.81 909.81 L 287.28 909.78 L 288.75 909.73 L 290.22 909.91 L 291.69 909.84 L 293.17 909.90 L 294.64 909.83 L 296.11 909.88 L 297.58 909.89 L 299.06 909.75 L 300.53 909.86 L 302.00 909.84 L 303.47 909.90 L 304.94 909.83 L 306.42 909.76 L 307.89 909.86 L 309.36 909.92 L 310.83 909.80 L 312.31 909.89 L 313.78 909.88 L 315.25 909.96 L 316.72 909.85 L 318.19 909.77 L 319.67 909.78 L 321.14 909.82 L 322.61 909.82 L 324.08 909.86 L 325.56 909.89 L 327.03 909.85 L 328.50 909.72 L 329.97 909.74 L 331.44 909.87 L 332.92 909.77 L 334.39 909.88 L 335.86 909.78 L 337.33 909.78 L 338.81 909.83 L 340.28 909.90 L 341.75 909.89 L 343.22 909.80 L 344.69 909.74 L 346.17 909.83 L 347.64 909.84 L 349.11 909.93 L 350.58 909.79 L 352.06 909.81 L 353.53 909.74 L 355.00 909.83 L 356.47 909.74 L 357.94 909.69 L 359.42 909.90 L 360.89 909.78 L 362.36 909.85 L 363.83 909.77 L 365.31 909.82 L 366.78 909.69 L 368.25 909.82 L 369.72 909.81 L 371.19 909.72 L 372.67 909.69 L 374.14 909.83 L 375.61 909.80 L 377.08 909.79 L 378.56 909.82 L 380.03 909.66 L 381.50 909.74 L 382.97 909.77 L 384.44 909.86 L 385.92 909.82 L 387.39 909.81 L 388.86 909.81 L 390.33 909.84 L 391.81 908.95 L 393.28 908.17 L 394.75 908.88 L 396.22 908.32 L 397.69 908.48 L 399.17 908.28 L 400.64 907.55 L 402.11 906.45 L 403.58 905.09 L 405.06 904.59 L 406.53 901.59 L 408.00 905.79 L 409.47 906.88 L 410.94 901.81 L 412.42 903.65 L 413.89 897.14 L 415.36 899.45 L 416.83 896.55 L 418.31 871.50 L 419.78 850.35 L 421.25 849.28 L 422.72 852.91 L 424.19 859.42 L 425.67 875.20 L 427.14 876.33 L 428.61 867.60 L 430.08 877.01 L 431.56 884.23 L 433.03 898.69 L 434.50 903.94 L 435.97 904.10 L 437.44 899.36 L 438.92 898.91 L 440.39 905.10 L 441.86 897.39 L 443.33 896.20 L 444.81 897.43 L 446.28 897.80 L 447.75 900.90 L 449.22 902.69 L 450.69 901.96 L 452.17 902.68 L 453.64 906.95 L 455.11 907.09 L 456.58 906.43 L 458.06 906.20 L 459.53 908.06 L 461.00 908.09 L 462.47 908.11 L 463.94 908.15 L 465.42 908.15 L 466.89 908.11 L 468.36 908.11 L 469.83 908.08 L 471.31 908.10 L 472.78 908.02 L 474.25 908.59 L 475.72 909.77 L 477.19 909.84 L 478.67 909.87 L 480.14 909.54 L 481.61 907.79 L 483.08 907.37 L 484.56 909.34 L 486.03 909.67 L 487.50 909.70 L 488.97 909.73 L 490.44 909.85 L 491.92 909.94 L 493.39 909.82 L 494.86 909.88 L 496.33 909.82 L 497.81 909.76 L 499.28 909.92 L 500.75 909.87 L 502.22 909.94 L 503.69 909.91 L 505.17 909.94 L 506.64 909.83 L 508.11 909.85 L 509.58 909.68 L 511.06 909.06 L 512.53 906.81 L 514.00 908.40 L 515.47 909.61 L 516.94 909.66 L 518.42 909.82 L 519.89 909.83 L 521.36 909.85 L 522.83 909.79 L 524.31 909.91 L 525.78 909.92 L 527.25 909.80 L 528.72 909.67 L 530.19 909.74 L 531.67 909.78 L 533.14 909.77 L 534.61 909.74 L 536.08 909.73 L 537.56 909.74 L 539.03 909.81 L 540.50 909.72 L 541.97 908.94 L 543.44 908.66 L 544.92 909.78 L 546.39 909.91 L 547.86 909.73 L 549.33 909.77 L 550.81 909.73 L 552.28 909.74 L 553.75 909.65 L 555.22 909.76 L 556.69 909.76 L 558.17 909.77 L 559.64 909.83 L 561.11 909.88 L 562.58 909.93 L 564.06 909.94 L 565.53 909.93 L 567.00 909.93 L 568.47 909.90 L 569.94 909.80 L 571.42 909.89 L 572.89 909.71 L 574.36 909.67 L 575.83 909.67 L 577.31 909.56 L 578.78 908.87 L 580.25 909.72 L 581.72 907.73 L 583.19 909.07 L 584.67 909.38 L 586.14 909.38 L 587.61 909.62 L 589.08 909.71 L 590.56 909.63 L 592.03 909.53 L 593.50 909.76 L 594.97 909.77 L 596.44 909.59 L 597.92 909.74 L 599.39 909.88 L 600.86 909.83 L 602.33 909.85 L 603.81 909.90 L 605.28 909.94 L 606.75 909.84 L 608.22 909.79 L 609.69 909.93 L 611.17 909.90 L 612.64 909.80 L 614.11 909.90 L 615.58 907.96 L 617.06 906.53 L 618.53 909.00 L 620.00 909.87 L 621.47 909.67 L 622.94 909.96 L 624.42 909.86 L 625.89 909.82 L 627.36 909.93 L 628.83 909.88 L 630.31 909.90 L 631.78 909.91 L 633.25 909.94 L 634.72 909.93 L 636.19 909.86 L 637.67 909.84 L 639.14 909.92 L 640.61 909.93 L 642.08 909.86 L 643.56 909.88 L 645.03 909.89 L 646.50 909.76 L 647.97 909.77 L 649.44 909.48 L 650.92 908.32 L 652.39 909.63 L 653.86 909.73 L 655.33 909.78 L 656.81 909.86 L 658.28 909.85 L 659.75 909.94 L 661.22 909.89 L 662.69 909.91 L 664.17 909.84 L 665.64 909.95 L 667.11 909.88 L 668.58 909.83 L 670.06 909.86 L 671.53 909.79 L 673.00 909.73 L 674.47 909.73 L 675.94 908.84 L 677.42 902.27 L 678.89 896.21 L 680.36 891.61 L 681.83 882.77 L 683.31 870.08 L 684.78 866.88 L 686.25 856.17 L 687.72 848.85 L 689.19 849.16 L 690.67 842.96 L 692.14 850.55 L 693.61 842.37 L 695.08 823.55 L 696.56 798.95 L 698.03 813.78 L 699.50 825.92 L 700.97 855.99 L 702.44 845.39 L 703.92 859.38 L 705.39 864.96 L 706.86 885.95 L 708.33 900.02 L 709.81 878.04 L 711.28 897.10 L 712.75 896.34 L 714.22 887.35 L 715.69 905.48 L 717.17 898.84 L 718.64 887.80 L 720.11 884.81 L 721.58 883.15 L 723.06 891.98 L 724.53 891.98 L 726.00 888.20 L 727.47 884.96 L 728.94 885.29 L 730.42 890.43 L 731.89 896.90 L 733.36 906.29 L 734.83 886.84 L 736.31 904.40 L 737.78 900.15 L 739.25 889.07 L 740.72 891.83 L 742.19 903.26 L 743.67 895.36 L 745.14 884.92 L 746.61 902.24 L 748.08 878.65 L 749.56 893.41 L 751.03 891.87 L 752.50 894.00 L 753.97 905.39 L 755.44 900.73 L 756.92 884.45 L 758.39 897.66 L 759.86 899.67 L 761.33 904.58 L 762.81 885.73 L 764.28 878.88 L 765.75 883.04 L 767.22 884.81 L 768.69 884.54 L 770.17 841.75 L 771.64 870.17 L 773.11 896.65 L 774.58 863.61 L 776.06 883.27 L 777.53 883.06 L 779.00 892.73 L 780.47 896.39 L 781.94 887.23 L 783.42 844.43 L 784.89 856.48 L 786.36 886.45 L 787.83 891.77 L 789.31 861.90 L 790.78 901.17 L 792.25 902.94 L 793.72 895.93 L 795.19 871.05 L 796.67 874.78 L 798.14 889.28 L 799.61 883.78 L 801.08 892.46 L 802.56 897.72 L 804.03 903.56 L 805.50 883.10 L 806.97 891.69 L 808.44 889.31 L 809.92 873.76 L 811.39 888.50 L 812.86 883.08 L 814.33 886.97 L 815.81 892.42 L 817.28 872.42 L 818.75 864.55 L 820.22 869.81 L 821.69 892.13 L 823.17 894.77 L 824.64 897.22 L 826.11 898.39 L 827.58 901.04 L 829.06 899.51 L 830.53 896.07 L 832.00 890.43 L 833.47 894.87 L 834.94 888.87 L 836.42 884.50 L 837.89 894.55 L 839.36 881.88 L 840.83 890.99 L 842.31 887.04 L 843.78 880.61 L 845.25 864.20 L 846.72 864.65 L 848.19 849.54 L 849.67 861.22 L 851.14 858.18 L 852.61 852.13 L 854.08 884.19 L 855.56 892.50 L 857.03 870.85 L 858.50 860.20 L 859.97 846.01 L 861.44 876.39 L 862.92 883.30 L 864.39 885.03 L 865.86 893.39 L 867.33 903.44 L 868.81 901.19 L 870.28 908.64 L 871.75 905.86 L 873.22 903.78 L 874.69 900.83 L 876.17 866.53 L 877.64 863.33 L 879.11 886.79 L 880.58 903.39 L 882.06 880.44 L 883.53 873.92 L 885.00 874.74 L 886.47 877.62 L 887.94 877.62 L 889.42 879.12 L 890.89 882.52 L 892.36 882.12 L 893.83 887.85 L 895.31 889.87 L 896.78 888.44 L 898.25 887.43 L 899.72 889.56 L 901.19 890.59 L 902.67 889.91 L 904.14 882.22 L 905.61 887.21 L 907.08 892.48 L 908.56 894.83 L 910.03 894.45 L 911.50 895.20 L 912.97 905.45 L 914.44 900.84 L 915.92 901.51 L 917.39 901.62 L 918.86 900.33 L 920.33 900.51 L 921.81 898.71 L 923.28 897.53 L 924.75 896.04 L 926.22 897.90 L 927.69 897.55 L 929.17 897.34 L 930.64 908.62 L 932.11 905.46 L 933.58 904.40 L 935.06 905.38 L 936.53 904.44 L 938.00 898.22 L 939.47 882.62 L 940.94 880.25 L 942.42 882.70 L 943.89 884.89 L 945.36 898.02 L 946.83 890.33 L 948.31 902.23 L 949.78 885.32" stroke="#E53935" />
<text x="620.00" y="952" font-size="15" text-anchor="middle">minutos (relativo ao início do evento)</text>
<text class="small" x="90.00" y="936" text-anchor="middle">-4.00</text>
<text class="small" x="266.67" y="936" text-anchor="middle">-2.00</text>
<text class="small" x="443.33" y="936" text-anchor="middle">0.00</text>
<text class="small" x="620.00" y="936" text-anchor="middle">2.00</text>
<text class="small" x="796.67" y="936" text-anchor="middle">4.00</text>
<text class="small" x="973.33" y="936" text-anchor="middle">6.00</text>
<text class="small" x="1150.00" y="936" text-anchor="middle">8.00</text>
</svg>