<?xml version="1.0" encoding="UTF-8"?>
<svg xmlns="http://www.w3.org/2000/svg" width="1180" height="980" viewBox="0 0 1180 980">
<style>
text { font-family: -apple-system, BlinkMacSystemFont, 'Segoe UI', Roboto, Helvetica, Arial, sans-serif; fill: #111; }
.small { font-size: 12px; fill: #222; }
.title { font-size: 18px; font-weight: 700; }
.axis { stroke: #111; stroke-width: 1.4; }
.grid { stroke: #E6E6E6; stroke-width: 1; }
.event { fill: #FFEB3B; fill-opacity: 0.18; }
.eventline { stroke: #F9A825; stroke-width: 1.2; stroke-dasharray: 4 3; }
.series { fill: none; stroke-width: 1.8; }
</style>
<text class="title" x="90" y="34">ciclo 9 — basculamento — 2025-12-12T21:08:38-03:00 → 2025-12-12T21:09:25-03:00 (span 47s, dur 48s)</text>
<text class="small" x="90" y="54">GPS: -11.692735,-47.165040  hotspot: -11.693,-47.165</text>
<text class="small" x="90" y="70">Janela: -3.00 → 3.78 min (relativo ao início do evento)</text>
<text x="90" y="79.00" font-size="14" font-weight="700">Velocidade (km/h)</text>
<rect class="event" x="443.33" y="85.00" width="69.19" height="192.75" />
<line class="eventline" x1="443.33" y1="85.00" x2="443.33" y2="277.75" />
<line class="eventline" x1="512.53" y1="85.00" x2="512.53" y2="277.75" />
<line class="grid" x1="90" y1="277.75" x2="1150" y2="277.75" />
<text class="small" x="80" y="281.75" text-anchor="end">0.00</text>
<line class="grid" x1="90" y1="239.20" x2="1150" y2="239.20" />
<text class="small" x="80" y="243.20" text-anchor="end">10.0</text>
<line class="grid" x1="90" y1="200.65" x2="1150" y2="200.65" />
<text class="small" x="80" y="204.65" text-anchor="end">20.0</text>
<line class="grid" x1="90" y1="162.10" x2="1150" y2="162.10" />
<text class="small" x="80" y="166.10" text-anchor="end">30.0</text>
<line class="grid" x1="90" y1="123.55" x2="1150" y2="123.55" />
<text class="small" x="80" y="127.55" text-anchor="end">40.0</text>
<line class="grid" x1="90" y1="85.00" x2="1150" y2="85.00" />
<text class="small" x="80" y="89.00" text-anchor="end">50.0</text>
<line class="grid" x1="90.00" y1="85.00" x2="90.00" y2="277.75" />
<line class="grid" x1="266.67" y1="85.00" x2="266.67" y2="277.75" />
<line class="grid" x1="443.33" y1="85.00" x2="443.33" y2="277.75" />
<line class="grid" x1="620.00" y1="85.00" x2="620.00" y2="277.75" />
<line class="grid" x1="796.67" y1="85.00" x2="796.67" y2="277.75" />
<line class="grid" x1="973.33" y1="85.00" x2="973.33" y2="277.75" />
<line class="grid" x1="1150.00" y1="85.00" x2="1150.00" y2="277.75" />
<line class="axis" x1="90" y1="85.00" x2="90" y2="277.75" />
<line class="axis" x1="90" y1="277.75" x2="1150" y2="277.75" />
<path class="series" d="M 178.33 248.61 L 179.81 249.99 L 181.28 250.13 L 182.75 250.41 L 184.22 249.30 L 185.69 248.19 L 187.17 247.77 L 188.64 247.77 L 190.11 248.05 L 191.58 248.74 L 193.06 248.19 L 194.53 248.88 L 196.00 247.77 L 197.47 248.47 L 198.94 247.50 L 200.42 248.61 L 201.89 247.08 L 203.36 248.33 L 204.83 248.05 L 206.31 249.44 L 207.78 248.88 L 209.25 248.19 L 210.72 247.91 L 212.19 249.30 L 213.67 246.94 L 215.14 247.36 L 216.61 247.36 L 218.08 248.47 L 219.56 248.74 L 221.03 249.86 L 222.50 250.13 L 223.97 249.72 L 225.44 249.16 L 226.92 248.88 L 228.39 249.58 L 229.86 248.05 L 231.33 248.19 L 232.81 246.52 L 234.28 247.08 L 235.75 247.77 L 237.22 248.19 L 238.69 246.94 L 240.17 246.80 L 241.64 251.66 L 243.11 246.80 L 244.58 246.39 L 246.06 247.08 L 247.53 247.63 L 249.00 248.47 L 250.47 248.05 L 251.94 249.86 L 253.42 248.47 L 254.89 249.58 L 256.36 248.74 L 257.83 249.30 L 259.31 248.74 L 260.78 248.19 L 262.25 247.22 L 263.72 246.94 L 265.19 245.14 L 266.67 244.44 L 268.14 246.39 L 269.61 245.28 L 271.08 246.80 L 272.56 243.47 L 274.03 240.83 L 275.50 238.89 L 276.97 232.37 L 278.44 227.65 L 279.92 220.99 L 281.39 219.05 L 282.86 215.58 L 284.33 213.63 L 285.81 213.49 L 287.28 211.00 L 288.75 213.63 L 290.22 213.63 L 291.69 212.11 L 293.17 212.94 L 294.64 214.74 L 296.11 215.85 L 297.58 213.77 L 299.06 215.44 L 300.53 214.74 L 302.00 214.61 L 303.47 211.69 L 304.94 210.72 L 306.42 212.94 L 307.89 213.63 L 309.36 218.63 L 310.83 224.04 L 312.31 223.90 L 313.78 224.46 L 315.25 227.79 L 316.72 234.03 L 318.19 233.76 L 319.67 235.42 L 321.14 235.56 L 322.61 234.45 L 324.08 233.48 L 325.56 234.17 L 327.03 235.28 L 328.50 237.09 L 329.97 236.39 L 331.44 235.70 L 332.92 229.59 L 334.39 226.82 L 335.86 226.26 L 337.33 223.07 L 338.81 223.49 L 340.28 226.26 L 341.75 228.34 L 343.22 229.87 L 344.69 227.79 L 346.17 225.85 L 347.64 226.82 L 349.11 226.40 L 350.58 222.93 L 352.06 227.37 L 353.53 227.10 L 355.00 230.15 L 356.47 230.70 L 357.94 233.06 L 359.42 232.79 L 360.89 239.03 L 362.36 232.92 L 363.83 234.59 L 365.31 237.78 L 366.78 240.83 L 368.25 243.61 L 369.72 238.75 L 371.19 245.28 L 372.67 252.35 L 374.14 264.01 L 375.61 277.75 L 377.08 277.75 L 378.56 277.75 L 380.03 277.75 L 381.50 262.90 L 382.97 260.82 L 384.44 261.10 L 385.92 260.40 L 387.39 259.99 L 388.86 260.12 L 390.33 261.65 L 391.81 259.71 L 393.28 258.60 L 394.75 259.99 L 396.22 260.40 L 397.69 258.88 L 399.17 256.93 L 400.64 257.77 L 402.11 260.40 L 403.58 258.04 L 405.06 256.79 L 406.53 259.43 L 408.00 260.68 L 409.47 259.15 L 410.94 258.04 L 412.42 261.10 L 413.89 258.46 L 415.36 260.54 L 416.83 260.54 L 418.31 259.85 L 419.78 261.10 L 421.25 261.10 L 422.72 260.54 L 424.19 262.48 L 425.67 260.26 L 427.14 260.26 L 428.61 261.93 L 430.08 262.76 L 431.56 263.32 L 433.03 263.32 L 434.50 262.48 L 435.97 267.06 L 437.44 268.04 L 438.92 270.26 L 440.39 272.62 L 441.86 277.75 L 443.33 277.75 L 444.81 277.75 L 446.28 277.75 L 447.75 277.75 L 449.22 277.75 L 450.69 277.75 L 452.17 277.75 L 453.64 277.75 L 455.11 277.75 L 456.58 277.75 L 458.06 277.75 L 459.53 277.75 L 461.00 277.75 L 462.47 277.75 L 463.94 277.75 L 465.42 277.75 L 466.89 277.75 L 468.36 277.75 L 469.83 277.75 L 471.31 277.75 L 472.78 277.75 L 474.25 277.75 L 475.72 277.75 L 477.19 277.75 L 478.67 277.75 L 480.14 277.75 L 481.61 277.75 L 483.08 277.75 L 484.56 277.75 L 486.03 277.75 L 487.50 277.75 L 488.97 277.75 L 490.44 277.75 L 491.92 277.75 L 493.39 277.75 L 494.86 277.75 L 496.33 277.75 L 497.81 277.75 L 499.28 277.75 L 500.75 277.75 L 502.22 277.75 L 503.69 277.75 L 505.17 277.75 L 506.64 277.75 L 508.11 277.75 L 509.58 277.75 L 511.06 277.75 L 512.53 277.75 L 514.00 256.66 L 515.47 255.82 L 516.94 261.79 L 518.42 267.06 L 519.89 269.15 L 521.36 274.56 L 522.83 277.75 L 524.31 277.75 L 525.78 277.75 L 527.25 277.75 L 528.72 277.75 L 530.19 277.75 L 531.67 277.75 L 533.14 277.75 L 534.61 277.75 L 536.08 277.75 L 537.56 277.75 L 539.03 277.75 L 540.50 277.75 L 541.97 277.75 L 543.44 277.75 L 544.92 277.75 L 546.39 277.75 L 547.86 271.23 L 549.33 264.43 L 550.81 259.71 L 552.28 252.77 L 553.75 246.11 L 555.22 240.42 L 556.69 231.54 L 558.17 223.07 L 559.64 224.46 L 561.11 217.10 L 562.58 226.96 L 564.06 227.93 L 565.53 226.12 L 567.00 217.80 L 568.47 217.94 L 569.94 218.49 L 571.42 220.57 L 572.89 219.05 L 574.36 215.99 L 575.83 218.77 L 577.31 216.96 L 578.78 217.94 L 580.25 215.30 L 581.72 217.52 L 583.19 211.83 L 584.67 206.14 L 586.14 197.12 L 587.61 194.34 L 589.08 199.06 L 590.56 199.48 L 592.03 205.31 L 593.50 202.67 L 594.97 201.56 L 596.44 196.84 L 597.92 189.62 L 599.39 187.96 L 600.86 183.38 L 602.33 180.47 L 603.81 177.83 L 605.28 174.91 L 606.75 175.19 L 608.22 176.86 L 609.69 182.69 L 611.17 183.38 L 612.64 182.69 L 614.11 176.86 L 615.58 176.86 L 617.06 176.16 L 618.53 180.47 L 620.00 184.21 L 621.47 180.74 L 622.94 177.27 L 624.42 174.08 L 625.89 162.42 L 627.36 159.65 L 628.83 151.74 L 630.31 150.07 L 631.78 142.58 L 633.25 139.80 L 634.72 146.74 L 636.19 157.01 L 637.67 159.51 L 639.14 153.82 L 640.61 141.75 L 642.08 136.06 L 643.56 156.46 L 645.03 164.23 L 646.50 162.01 L 647.97 161.17 L 649.44 157.57 L 650.92 161.59 L 652.39 163.81 L 653.86 165.06 L 655.33 168.95 L 656.81 171.72 L 658.28 171.72 L 659.75 170.33 L 661.22 175.89 L 662.69 168.81 L 664.17 169.78 L 665.64 172.55 L 667.11 173.11 L 668.58 171.58 L 670.06 169.92 L 671.53 162.84 L 673.00 154.65 L 674.47 149.79 L 675.94 158.82 L 677.42 164.37 L 678.89 168.39 L 680.36 167.14 L 681.83 171.86 L 683.31 175.89 L 684.78 176.44 L 686.25 175.61 L 687.72 175.19 L 689.19 169.92 L 690.67 161.87 L 692.14 157.43 L 693.61 156.32 L 695.08 161.73 L 696.56 161.59 L 698.03 164.51 L 699.50 167.56 L 700.97 169.92 L 702.44 170.47 L 703.92 174.64 L 705.39 173.53 L 706.86 174.64 L 708.33 172.83 L 709.81 171.03 L 711.28 173.53 L 712.75 173.25 L 714.22 170.61 L 715.69 184.07 L 717.17 224.46 L 718.64 277.75 L 720.11 277.75 L 721.58 277.75 L 723.06 277.75 L 724.53 277.75 L 726.00 277.75 L 727.47 277.75 L 728.94 277.75 L 730.42 277.75 L 731.89 277.75 L 733.36 277.75 L 734.83 277.75 L 736.31 277.75 L 737.78 277.75 L 739.25 277.75 L 740.72 277.75 L 742.19 277.75 L 743.67 277.75 L 745.14 277.75 L 746.61 277.75 L 748.08 277.75 L 749.56 277.75 L 751.03 245.14 L 752.50 239.31 L 753.97 237.23 L 755.44 231.95 L 756.92 223.63 L 758.39 223.21 L 759.86 219.46 L 761.33 219.18 L 762.81 219.60 L 764.28 214.88 L 765.75 205.86 L 767.22 199.06 L 768.69 196.01 L 770.17 193.09 L 771.64 184.35 L 773.11 184.07 L 774.58 182.55 L 776.06 184.49 L 777.53 189.62" stroke="#1976D2" />
<text x="90" y="289.75" font-size="14" font-weight="700">Inclinação (graus)</text>
<rect class="event" x="443.33" y="295.75" width="69.19" height="192.75" />
<line class="eventline" x1="443.33" y1="295.75" x2="443.33" y2="488.50" />
<line class="eventline" x1="512.53" y1="295.75" x2="512.53" y2="488.50" />
<line class="grid" x1="90" y1="488.50" x2="1150" y2="488.50" />
<text class="small" x="80" y="492.50" text-anchor="end">-20.0</text>
<line class="grid" x1="90" y1="449.95" x2="1150" y2="449.95" />
<text class="small" x="80" y="453.95" text-anchor="end">0.00</text>
<line class="grid" x1="90" y1="411.40" x2="1150" y2="411.40" />
<text class="small" x="80" y="415.40" text-anchor="end">20.0</text>
<line class="grid" x1="90" y1="372.85" x2="1150" y2="372.85" />
<text class="small" x="80" y="376.85" text-anchor="end">40.0</text>
<line class="grid" x1="90" y1="334.30" x2="1150" y2="334.30" />
<text class="small" x="80" y="338.30" text-anchor="end">60.0</text>
<line class="grid" x1="90" y1="295.75" x2="1150" y2="295.75" />
<text class="small" x="80" y="299.75" text-anchor="end">80.0</text>
<line class="grid" x1="90.00" y1="295.75" x2="90.00" y2="488.50" />
<line class="grid" x1="266.67" y1="295.75" x2="266.67" y2="488.50" />
<line class="grid" x1="443.33" y1="295.75" x2="443.33" y2="488.50" />
<line class="grid" x1="620.00" y1="295.75" x2="620.00" y2="488.50" />
<line class="grid" x1="796.67" y1="295.75" x2="796.67" y2="488.50" />
<line class="grid" x1="973.33" y1="295.75" x2="973.33" y2="488.50" />
<line class="grid" x1="1150.00" y1="295.75" x2="1150.00" y2="488.50" />
<line class="axis" x1="90" y1="295.75" x2="90" y2="488.50" />
<line class="axis" x1="90" y1="488.50" x2="1150" y2="488.50" />
<path class="series" d="M 178.33 439.38 L 179.81 440.37 L 181.28 440.83 L 182.75 439.94 L 184.22 440.48 L 185.69 439.72 L 187.17 439.98 L 188.64 439.82 L 190.11 439.45 L 191.58 439.43 L 193.06 439.40 L 194.53 438.94 L 196.00 438.61 L 197.47 438.06 L 198.94 437.23 L 200.42 435.79 L 201.89 436.29 L 203.36 436.89 L 204.83 436.99 L 206.31 437.96 L 207.78 437.73 L 209.25 437.91 L 210.72 439.05 L 212.19 439.95 L 213.67 440.34 L 215.14 440.62 L 216.61 441.15 L 218.08 441.78 L 219.56 442.74 L 221.03 442.00 L 222.50 441.96 L 223.97 441.34 L 225.44 440.89 L 226.92 440.38 L 228.39 439.87 L 229.86 439.43 L 231.33 439.09 L 232.81 439.73 L 234.28 438.99 L 235.75 439.03 L 237.22 438.66 L 238.69 438.07 L 240.17 437.60 L 241.64 437.88 L 243.11 438.33 L 244.58 438.46 L 246.06 439.18 L 247.53 439.88 L 249.00 440.03 L 250.47 439.96 L 251.94 441.38 L 253.42 439.89 L 254.89 440.94 L 256.36 440.26 L 257.83 440.30 L 259.31 440.73 L 260.78 442.15 L 262.25 438.65 L 263.72 438.85 L 265.19 437.96 L 266.67 436.38 L 268.14 438.31 L 269.61 435.59 L 271.08 438.44 L 272.56 435.52 L 274.03 433.41 L 275.50 437.41 L 276.97 436.45 L 278.44 432.44 L 279.92 425.76 L 281.39 428.24 L 282.86 427.67 L 284.33 428.44 L 285.81 427.29 L 287.28 429.29 L 288.75 429.31 L 290.22 428.44 L 291.69 430.57 L 293.17 429.30 L 294.64 430.06 L 296.11 430.16 L 297.58 430.17 L 299.06 431.11 L 300.53 430.95 L 302.00 428.51 L 303.47 426.82 L 304.94 431.71 L 306.42 434.50 L 307.89 432.98 L 309.36 435.37 L 310.83 434.64 L 312.31 434.73 L 313.78 434.68 L 315.25 433.97 L 316.72 437.38 L 318.19 437.79 L 319.67 437.10 L 321.14 437.70 L 322.61 436.91 L 324.08 437.06 L 325.56 437.23 L 327.03 437.04 L 328.50 435.43 L 329.97 432.76 L 331.44 433.61 L 332.92 431.94 L 334.39 427.92 L 335.86 430.46 L 337.33 428.00 L 338.81 423.46 L 340.28 426.16 L 341.75 422.46 L 343.22 423.19 L 344.69 425.33 L 346.17 424.70 L 347.64 424.22 L 349.11 424.22 L 350.58 427.44 L 352.06 429.42 L 353.53 430.66 L 355.00 428.56 L 356.47 428.56 L 357.94 428.03 L 359.42 431.94 L 360.89 429.45 L 362.36 427.29 L 363.83 426.15 L 365.31 424.48 L 366.78 423.57 L 368.25 424.83 L 369.72 423.39 L 371.19 419.14 L 372.67 418.27 L 374.14 417.08 L 375.61 414.89 L 377.08 429.54 L 378.56 420.00 L 380.03 422.49 L 381.50 421.83 L 382.97 425.89 L 384.44 424.95 L 385.92 425.94 L 387.39 425.53 L 388.86 427.20 L 390.33 425.20 L 391.81 424.32 L 393.28 423.44 L 394.75 422.66 L 396.22 425.49 L 397.69 426.01 L 399.17 424.79 L 400.64 426.68 L 402.11 427.37 L 403.58 427.43 L 405.06 427.30 L 406.53 427.81 L 408.00 428.54 L 409.47 428.57 L 410.94 427.93 L 412.42 426.94 L 413.89 426.55 L 415.36 426.63 L 416.83 426.99 L 418.31 424.81 L 419.78 425.78 L 421.25 427.03 L 422.72 427.02 L 424.19 427.79 L 425.67 428.61 L 427.14 428.34 L 428.61 430.42 L 430.08 428.58 L 431.56 428.46 L 433.03 426.72 L 434.50 427.44 L 435.97 429.61 L 437.44 426.53 L 438.92 429.47 L 440.39 428.33 L 441.86 427.67 L 443.33 426.38 L 444.81 429.04 L 446.28 425.81 L 447.75 431.94 L 449.22 430.06 L 450.69 426.49 L 452.17 427.38 L 453.64 427.63 L 455.11 427.60 L 456.58 428.36 L 458.06 426.80 L 459.53 427.78 L 461.00 427.40 L 462.47 427.12 L 463.94 427.31 L 465.42 427.45 L 466.89 427.44 L 468.36 427.48 L 469.83 427.51 L 471.31 427.24 L 472.78 427.42 L 474.25 427.34 L 475.72 427.31 L 477.19 427.31 L 478.67 427.33 L 480.14 427.97 L 481.61 427.45 L 483.08 427.03 L 484.56 427.32 L 486.03 427.55 L 487.50 427.53 L 488.97 427.40 L 490.44 427.31 L 491.92 427.40 L 493.39 427.36 L 494.86 427.46 L 496.33 427.43 L 497.81 427.60 L 499.28 427.58 L 500.75 427.73 L 502.22 427.96 L 503.69 427.66 L 505.17 428.14 L 506.64 428.23 L 508.11 428.37 L 509.58 428.56 L 511.06 432.16 L 512.53 436.79 L 514.00 441.37 L 515.47 421.80 L 516.94 424.86 L 518.42 425.83 L 519.89 425.70 L 521.36 424.49 L 522.83 428.38 L 524.31 428.36 L 525.78 428.79 L 527.25 428.26 L 528.72 428.70 L 530.19 428.34 L 531.67 428.19 L 533.14 428.18 L 534.61 428.12 L 536.08 428.36 L 537.56 435.48 L 539.03 420.76 L 540.50 426.51 L 541.97 427.61 L 543.44 427.16 L 544.92 427.70 L 546.39 433.06 L 547.86 433.84 L 549.33 432.46 L 550.81 435.61 L 552.28 434.45 L 553.75 432.47 L 555.22 435.84 L 556.69 434.11 L 558.17 426.47 L 559.64 427.62 L 561.11 419.80 L 562.58 423.75 L 564.06 430.28 L 565.53 430.44 L 567.00 428.58 L 568.47 424.40 L 569.94 421.86 L 571.42 428.45 L 572.89 424.02 L 574.36 421.06 L 575.83 429.03 L 577.31 431.21 L 578.78 431.29 L 580.25 430.02 L 581.72 436.46 L 583.19 431.58 L 584.67 438.97 L 586.14 427.37 L 587.61 422.10 L 589.08 426.25 L 590.56 418.59 L 592.03 420.73 L 593.50 419.77 L 594.97 420.50 L 596.44 421.84 L 597.92 420.40 L 599.39 422.97 L 600.86 419.55 L 602.33 420.66 L 603.81 422.71 L 605.28 424.44 L 606.75 424.57 L 608.22 421.97 L 609.69 426.37 L 611.17 425.02 L 612.64 427.51 L 614.11 427.35 L 615.58 423.57 L 617.06 421.42 L 618.53 427.13 L 620.00 430.67 L 621.47 434.24 L 622.94 432.06 L 624.42 432.37 L 625.89 423.81 L 627.36 422.89 L 628.83 421.39 L 630.31 422.23 L 631.78 417.92 L 633.25 412.75 L 634.72 406.52 L 636.19 416.70 L 637.67 422.07 L 639.14 422.07 L 640.61 421.87 L 642.08 420.91 L 643.56 398.82 L 645.03 415.59 L 646.50 416.74 L 647.97 414.97 L 649.44 416.93 L 650.92 416.31 L 652.39 416.15 L 653.86 415.66 L 655.33 414.02 L 656.81 411.34 L 658.28 415.82 L 659.75 417.74 L 661.22 415.59 L 662.69 415.90 L 664.17 416.10 L 665.64 415.64 L 667.11 415.46 L 668.58 414.75 L 670.06 418.73 L 671.53 422.57 L 673.00 420.94 L 674.47 416.76 L 675.94 413.64 L 677.42 415.89 L 678.89 412.50 L 680.36 413.05 L 681.83 414.28 L 683.31 414.43 L 684.78 415.89 L 686.25 415.30 L 687.72 416.00 L 689.19 421.24 L 690.67 423.06 L 692.14 419.08 L 693.61 414.78 L 695.08 416.31 L 696.56 414.99 L 698.03 416.22 L 699.50 415.47 L 700.97 416.00 L 702.44 415.24 L 703.92 415.35 L 705.39 415.40 L 706.86 415.23 L 708.33 415.11 L 709.81 415.20 L 711.28 415.64 L 712.75 415.28 L 714.22 414.39 L 715.69 391.76 L 717.17 382.93 L 718.64 392.54 L 720.11 403.38 L 721.58 415.73 L 723.06 414.32 L 724.53 414.72 L 726.00 414.61 L 727.47 414.62 L 728.94 414.56 L 730.42 414.62 L 731.89 414.59 L 733.36 414.58 L 734.83 414.61 L 736.31 414.59 L 737.78 414.61 L 739.25 414.60 L 740.72 414.61 L 742.19 414.56 L 743.67 423.16 L 745.14 414.81 L 746.61 416.12 L 748.08 419.91 L 749.56 418.23 L 751.03 421.89 L 752.50 424.30 L 753.97 422.45 L 755.44 420.19 L 756.92 420.24 L 758.39 417.61 L 759.86 415.50 L 761.33 412.28 L 762.81 414.09 L 764.28 427.29 L 765.75 425.00 L 767.22 422.03 L 768.69 430.67 L 770.17 425.92 L 771.64 425.12 L 773.11 418.11 L 774.58 417.22 L 776.06 419.99 L 777.53 414.46" stroke="#2E7D32" />
<path class="series" d="M 178.33 443.99 L 179.81 445.06 L 181.28 445.50 L 182.75 447.93 L 184.22 450.15 L 185.69 449.76 L 187.17 449.14 L 188.64 447.71 L 190.11 447.06 L 191.58 446.55 L 193.06 445.73 L 194.53 446.74 L 196.00 446.45 L 197.47 445.66 L 198.94 445.65 L 200.42 445.38 L 201.89 445.51 L 203.36 445.36 L 204.83 447.17 L 206.31 445.95 L 207.78 446.93 L 209.25 445.24 L 210.72 446.08 L 212.19 446.37 L 213.67 446.89 L 215.14 447.39 L 216.61 448.82 L 218.08 447.26 L 219.56 448.74 L 221.03 446.65 L 222.50 447.88 L 223.97 445.99 L 225.44 445.15 L 226.92 447.23 L 228.39 447.66 L 229.86 446.74 L 231.33 447.97 L 232.81 446.49 L 234.28 446.48 L 235.75 444.43 L 237.22 444.55 L 238.69 445.16 L 240.17 447.11 L 241.64 447.00 L 243.11 445.71 L 244.58 445.41 L 246.06 445.25 L 247.53 446.64 L 249.00 446.54 L 250.47 447.41 L 251.94 447.58 L 253.42 447.92 L 254.89 447.73 L 256.36 448.27 L 257.83 448.15 L 259.31 449.10 L 260.78 450.83 L 262.25 450.13 L 263.72 452.43 L 265.19 450.70 L 266.67 450.29 L 268.14 451.55 L 269.61 454.20 L 271.08 450.90 L 272.56 454.39 L 274.03 449.64 L 275.50 455.23 L 276.97 451.46 L 278.44 451.34 L 279.92 448.92 L 281.39 450.69 L 282.86 449.93 L 284.33 450.25 L 285.81 449.47 L 287.28 449.81 L 288.75 451.82 L 290.22 448.57 L 291.69 450.50 L 293.17 449.42 L 294.64 450.76 L 296.11 450.24 L 297.58 449.62 L 299.06 452.40 L 300.53 450.02 L 302.00 453.16 L 303.47 454.85 L 304.94 455.44 L 306.42 460.33 L 307.89 456.43 L 309.36 453.78 L 310.83 452.33 L 312.31 449.12 L 313.78 451.89 L 315.25 450.71 L 316.72 453.88 L 318.19 451.86 L 319.67 448.99 L 321.14 447.74 L 322.61 444.63 L 324.08 443.56 L 325.56 446.78 L 327.03 445.97 L 328.50 444.71 L 329.97 446.21 L 331.44 449.23 L 332.92 448.63 L 334.39 453.62 L 335.86 447.43 L 337.33 443.76 L 338.81 446.79 L 340.28 447.58 L 341.75 447.93 L 343.22 446.87 L 344.69 445.75 L 346.17 450.94 L 347.64 452.26 L 349.11 452.26 L 350.58 443.33 L 352.06 441.94 L 353.53 442.10 L 355.00 441.82 L 356.47 441.96 L 357.94 443.71 L 359.42 448.21 L 360.89 460.12 L 362.36 460.08 L 363.83 460.95 L 365.31 459.28 L 366.78 457.62 L 368.25 457.09 L 369.72 454.32 L 371.19 450.15 L 372.67 445.36 L 374.14 443.99 L 375.61 445.19 L 377.08 447.47 L 378.56 447.37 L 380.03 449.50 L 381.50 447.14 L 382.97 448.29 L 384.44 446.18 L 385.92 448.58 L 387.39 448.23 L 388.86 448.63 L 390.33 444.60 L 391.81 444.00 L 393.28 445.62 L 394.75 440.88 L 396.22 449.04 L 397.69 444.67 L 399.17 447.85 L 400.64 446.50 L 402.11 449.54 L 403.58 445.42 L 405.06 448.45 L 406.53 443.78 L 408.00 444.47 L 409.47 445.27 L 410.94 447.64 L 412.42 442.14 L 413.89 445.62 L 415.36 443.25 L 416.83 443.54 L 418.31 442.61 L 419.78 442.86 L 421.25 441.19 L 422.72 443.41 L 424.19 445.32 L 425.67 449.25 L 427.14 451.45 L 428.61 447.39 L 430.08 450.46 L 431.56 446.15 L 433.03 451.48 L 434.50 448.49 L 435.97 448.34 L 437.44 449.98 L 438.92 449.99 L 440.39 449.78 L 441.86 449.72 L 443.33 450.97 L 444.81 448.08 L 446.28 450.04 L 447.75 449.09 L 449.22 450.99 L 450.69 449.58 L 452.17 449.67 L 453.64 449.89 L 455.11 449.69 L 456.58 450.23 L 458.06 449.53 L 459.53 450.25 L 461.00 449.75 L 462.47 449.09 L 463.94 449.81 L 465.42 450.00 L 466.89 449.57 L 468.36 449.64 L 469.83 449.89 L 471.31 449.68 L 472.78 449.70 L 474.25 449.62 L 475.72 449.89 L 477.19 449.72 L 478.67 449.75 L 480.14 449.83 L 481.61 449.92 L 483.08 449.73 L 484.56 449.44 L 486.03 449.92 L 487.50 449.70 L 488.97 449.84 L 490.44 449.56 L 491.92 449.77 L 493.39 449.68 L 494.86 449.69 L 496.33 449.81 L 497.81 449.71 L 499.28 449.76 L 500.75 449.73 L 502.22 449.94 L 503.69 449.60 L 505.17 450.02 L 506.64 449.83 L 508.11 449.97 L 509.58 449.96 L 511.06 449.93 L 512.53 449.81 L 514.00 448.99 L 515.47 450.08 L 516.94 448.89 L 518.42 450.45 L 519.89 450.79 L 521.36 450.26 L 522.83 450.23 L 524.31 449.75 L 525.78 450.33 L 527.25 450.18 L 528.72 450.02 L 530.19 450.11 L 531.67 450.23 L 533.14 450.15 L 534.61 450.18 L 536.08 450.52 L 537.56 450.89 L 539.03 449.43 L 540.50 447.90 L 541.97 449.01 L 543.44 449.31 L 544.92 449.12 L 546.39 449.10 L 547.86 449.08 L 549.33 448.45 L 550.81 446.02 L 552.28 449.13 L 553.75 444.34 L 555.22 442.31 L 556.69 440.76 L 558.17 434.76 L 559.64 435.83 L 561.11 443.76 L 562.58 455.81 L 564.06 453.23 L 565.53 450.23 L 567.00 444.79 L 568.47 451.60 L 569.94 455.10 L 571.42 460.41 L 572.89 457.98 L 574.36 459.50 L 575.83 455.99 L 577.31 458.75 L 578.78 459.88 L 580.25 453.96 L 581.72 454.09 L 583.19 447.39 L 584.67 450.05 L 586.14 440.95 L 587.61 438.79 L 589.08 440.36 L 590.56 440.80 L 592.03 447.62 L 593.50 446.72 L 594.97 446.35 L 596.44 447.58 L 597.92 444.34 L 599.39 453.14 L 600.86 444.13 L 602.33 441.83 L 603.81 447.04 L 605.28 441.58 L 606.75 440.75 L 608.22 445.37 L 609.69 440.85 L 611.17 437.60 L 612.64 443.47 L 614.11 447.06 L 615.58 448.43 L 617.06 451.96 L 618.53 444.85 L 620.00 442.13 L 621.47 457.63 L 622.94 449.54 L 624.42 449.02 L 625.89 437.71 L 627.36 445.08 L 628.83 444.77 L 630.31 445.22 L 631.78 451.60 L 633.25 447.76 L 634.72 453.22 L 636.19 448.67 L 637.67 451.38 L 639.14 451.38 L 640.61 454.49 L 642.08 451.58 L 643.56 452.26 L 645.03 450.27 L 646.50 445.69 L 647.97 443.36 L 649.44 445.63 L 650.92 448.08 L 652.39 452.64 L 653.86 451.93 L 655.33 452.18 L 656.81 453.45 L 658.28 454.95 L 659.75 455.28 L 661.22 450.74 L 662.69 453.29 L 664.17 452.32 L 665.64 449.78 L 667.11 447.43 L 668.58 450.97 L 670.06 452.23 L 671.53 443.84 L 673.00 447.15 L 674.47 445.80 L 675.94 449.41 L 677.42 451.38 L 678.89 450.97 L 680.36 454.21 L 681.83 454.06 L 683.31 453.45 L 684.78 451.29 L 686.25 451.51 L 687.72 453.21 L 689.19 448.96 L 690.67 452.18 L 692.14 450.55 L 693.61 452.07 L 695.08 447.29 L 696.56 448.00 L 698.03 450.20 L 699.50 445.81 L 700.97 448.72 L 702.44 447.58 L 703.92 445.48 L 705.39 446.93 L 706.86 445.81 L 708.33 445.07 L 709.81 446.30 L 711.28 448.08 L 712.75 446.06 L 714.22 448.28 L 715.69 452.68 L 717.17 448.15 L 718.64 446.86 L 720.11 446.50 L 721.58 447.40 L 723.06 446.90 L 724.53 446.91 L 726.00 446.71 L 727.47 447.03 L 728.94 446.69 L 730.42 447.00 L 731.89 446.80 L 733.36 446.80 L 734.83 446.88 L 736.31 446.79 L 737.78 446.88 L 739.25 446.80 L 740.72 446.84 L 742.19 446.85 L 743.67 447.29 L 745.14 446.36 L 746.61 445.27 L 748.08 444.74 L 749.56 446.25 L 751.03 443.21 L 752.50 443.80 L 753.97 451.78 L 755.44 448.54 L 756.92 450.99 L 758.39 451.06 L 759.86 449.96 L 761.33 449.73 L 762.81 449.81 L 764.28 451.71 L 765.75 452.92 L 767.22 461.78 L 768.69 460.82 L 770.17 455.32 L 771.64 463.60 L 773.11 469.21 L 774.58 470.09 L 776.06 459.67 L 777.53 428.80" stroke="#6A1B9A" />
<line x1="900.00" y1="307.75" x2="918.00" y2="307.75" stroke="#2E7D32" stroke-width="3" />
<text class="small" x="924.00" y="311.75">pitch</text>
<line x1="900.00" y1="323.75" x2="918.00" y2="323.75" stroke="#6A1B9A" stroke-width="3" />
<text class="small" x="924.00" y="327.75">roll</text>
<text x="90" y="500.50" font-size="14" font-weight="700">Aceleração (magnitude) (u.a.)</text>
<rect class="event" x="443.33" y="506.50" width="69.19" height="192.75" />
<line class="eventline" x1="443.33" y1="506.50" x2="443.33" y2="699.25" />
<line class="eventline" x1="512.53" y1="506.50" x2="512.53" y2="699.25" />
<line class="grid" x1="90" y1="699.25" x2="1150" y2="699.25" />
<text class="small" x="80" y="703.25" text-anchor="end">0.00</text>
<line class="grid" x1="90" y1="660.70" x2="1150" y2="660.70" />
<text class="small" x="80" y="664.70" text-anchor="end">1.00</text>
<line class="grid" x1="90" y1="622.15" x2="1150" y2="622.15" />
<text class="small" x="80" y="626.15" text-anchor="end">2.00</text>
<line class="grid" x1="90" y1="583.60" x2="1150" y2="583.60" />
<text class="small" x="80" y="587.60" text-anchor="end">3.00</text>
<line class="grid" x1="90" y1="545.05" x2="1150" y2="545.05" />
<text class="small" x="80" y="549.05" text-anchor="end">4.00</text>
<line class="grid" x1="90" y1="506.50" x2="1150" y2="506.50" />
<text class="small" x="80" y="510.50" text-anchor="end">5.00</text>
<line class="grid" x1="90.00" y1="506.50" x2="90.00" y2="699.25" />
<line class="grid" x1="266.67" y1="506.50" x2="266.67" y2="699.25" />
<line class="grid" x1="443.33" y1="506.50" x2="443.33" y2="699.25" />
<line class="grid" x1="620.00" y1="506.50" x2="620.00" y2="699.25" />
<line class="grid" x1="796.67" y1="506.50" x2="796.67" y2="699.25" />
<line class="grid" x1="973.33" y1="506.50" x2="973.33" y2="699.25" />
<line class="grid" x1="1150.00" y1="506.50" x2="1150.00" y2="699.25" />
<line class="axis" x1="90" y1="506.50" x2="90" y2="699.25" />
<line class="axis" x1="90" y1="699.25" x2="1150" y2="699.25" />
<path class="series" d="M 178.33 692.52 L 179.81 697.03 L 181.28 696.45 L 182.75 697.60 L 184.22 694.60 L 185.69 695.41 L 187.17 693.83 L 188.64 694.95 L 190.11 694.33 L 191.58 696.76 L 193.06 696.43 L 194.53 695.51 L 196.00 696.51 L 197.47 695.49 L 198.94 694.30 L 200.42 698.31 L 201.89 695.61 L 203.36 692.72 L 204.83 693.89 L 206.31 695.23 L 207.78 696.90 L 209.25 696.90 L 210.72 695.47 L 212.19 696.11 L 213.67 695.85 L 215.14 694.84 L 216.61 695.80 L 218.08 695.90 L 219.56 696.64 L 221.03 696.60 L 222.50 691.28 L 223.97 694.33 L 225.44 694.65 L 226.92 696.36 L 228.39 694.05 L 229.86 697.21 L 231.33 697.56 L 232.81 693.91 L 234.28 695.82 L 235.75 693.06 L 237.22 696.79 L 238.69 695.44 L 240.17 696.84 L 241.64 697.36 L 243.11 697.30 L 244.58 697.14 L 246.06 697.38 L 247.53 695.84 L 249.00 696.28 L 250.47 695.91 L 251.94 694.78 L 253.42 694.65 L 254.89 693.46 L 256.36 694.72 L 257.83 695.53 L 259.31 698.00 L 260.78 696.33 L 262.25 695.61 L 263.72 687.87 L 265.19 690.08 L 266.67 691.31 L 268.14 687.28 L 269.61 693.57 L 271.08 693.02 L 272.56 688.88 L 274.03 696.46 L 275.50 685.49 L 276.97 687.20 L 278.44 682.17 L 279.92 692.30 L 281.39 690.43 L 282.86 683.91 L 284.33 692.33 L 285.81 676.08 L 287.28 675.15 L 288.75 695.31 L 290.22 679.54 L 291.69 679.80 L 293.17 679.70 L 294.64 690.56 L 296.11 676.98 L 297.58 676.34 L 299.06 687.10 L 300.53 688.47 L 302.00 674.78 L 303.47 681.30 L 304.94 687.12 L 306.42 686.74 L 307.89 666.94 L 309.36 683.53 L 310.83 678.26 L 312.31 689.39 L 313.78 685.18 L 315.25 685.46 L 316.72 695.34 L 318.19 692.01 L 319.67 695.27 L 321.14 688.35 L 322.61 690.06 L 324.08 686.76 L 325.56 692.26 L 327.03 684.75 L 328.50 692.02 L 329.97 694.78 L 331.44 695.09 L 332.92 690.84 L 334.39 692.29 L 335.86 692.24 L 337.33 680.11 L 338.81 680.54 L 340.28 692.56 L 341.75 694.34 L 343.22 688.12 L 344.69 678.64 L 346.17 679.66 L 347.64 681.74 L 349.11 677.04 L 350.58 684.59 L 352.06 691.53 L 353.53 688.25 L 355.00 688.93 L 356.47 692.75 L 357.94 677.76 L 359.42 663.58 L 360.89 678.65 L 362.36 682.62 L 363.83 675.49 L 365.31 676.55 L 366.78 686.72 L 368.25 683.22 L 369.72 670.91 L 371.19 669.56 L 372.67 663.86 L 374.14 669.18 L 375.61 667.88 L 377.08 694.42 L 378.56 694.42 L 380.03 688.91 L 381.50 692.78 L 382.97 682.49 L 384.44 687.75 L 385.92 691.93 L 387.39 695.86 L 388.86 692.47 L 390.33 696.03 L 391.81 694.25 L 393.28 695.59 L 394.75 688.34 L 396.22 689.73 L 397.69 686.61 L 399.17 695.09 L 400.64 693.31 L 402.11 689.67 L 403.58 684.10 L 405.06 693.87 L 406.53 696.14 L 408.00 697.67 L 409.47 694.69 L 410.94 695.74 L 412.42 694.82 L 413.89 694.85 L 415.36 691.32 L 416.83 692.05 L 418.31 691.50 L 419.78 698.15 L 421.25 695.65 L 422.72 696.55 L 424.19 694.48 L 425.67 687.56 L 427.14 690.05 L 428.61 687.28 L 430.08 693.25 L 431.56 691.29 L 433.03 694.64 L 434.50 691.78 L 435.97 687.59 L 437.44 696.49 L 438.92 696.00 L 440.39 697.32 L 441.86 697.87 L 443.33 696.73 L 444.81 695.11 L 446.28 694.48 L 447.75 686.50 L 449.22 692.67 L 450.69 697.26 L 452.17 697.93 L 453.64 697.90 L 455.11 698.39 L 456.58 696.43 L 458.06 695.88 L 459.53 695.08 L 461.00 697.91 L 462.47 696.49 L 463.94 698.33 L 465.42 698.47 L 466.89 697.87 L 468.36 698.64 L 469.83 697.83 L 471.31 697.85 L 472.78 698.37 L 474.25 698.55 L 475.72 698.85 L 477.19 699.01 L 478.67 698.81 L 480.14 696.23 L 481.61 696.32 L 483.08 697.77 L 484.56 698.46 L 486.03 697.07 L 487.50 696.82 L 488.97 697.42 L 490.44 698.15 L 491.92 697.18 L 493.39 698.19 L 494.86 698.66 L 496.33 699.01 L 497.81 698.78 L 499.28 697.40 L 500.75 695.99 L 502.22 698.16 L 503.69 699.10 L 505.17 698.56 L 506.64 698.80 L 508.11 698.84 L 509.58 698.97 L 511.06 689.86 L 512.53 675.78 L 514.00 691.42 L 515.47 675.93 L 516.94 681.21 L 518.42 690.91 L 519.89 681.39 L 521.36 692.57 L 522.83 692.52 L 524.31 694.44 L 525.78 695.83 L 527.25 697.29 L 528.72 698.59 L 530.19 696.64 L 531.67 698.58 L 533.14 699.01 L 534.61 698.21 L 536.08 689.71 L 537.56 684.37 L 539.03 686.60 L 540.50 695.95 L 541.97 697.75 L 543.44 697.55 L 544.92 697.29 L 546.39 681.08 L 547.86 681.08 L 549.33 688.70 L 550.81 694.40 L 552.28 694.13 L 553.75 679.66 L 555.22 690.71 L 556.69 676.15 L 558.17 678.97 L 559.64 666.50 L 561.11 669.30 L 562.58 655.67 L 564.06 679.01 L 565.53 682.29 L 567.00 685.04 L 568.47 693.93 L 569.94 681.25 L 571.42 686.46 L 572.89 683.13 L 574.36 668.31 L 575.83 677.53 L 577.31 688.92 L 578.78 687.31 L 580.25 665.70 L 581.72 678.47 L 583.19 686.91 L 584.67 671.47 L 586.14 676.02 L 587.61 646.90 L 589.08 666.39 L 590.56 685.47 L 592.03 683.21 L 593.50 689.58 L 594.97 678.62 L 596.44 681.92 L 597.92 676.49 L 599.39 668.45 L 600.86 689.75 L 602.33 687.48 L 603.81 683.41 L 605.28 677.58 L 606.75 680.00 L 608.22 679.78 L 609.69 681.59 L 611.17 681.53 L 612.64 690.11 L 614.11 696.92 L 615.58 684.31 L 617.06 680.17 L 618.53 686.04 L 620.00 684.35 L 621.47 689.54 L 622.94 675.52 L 624.42 676.58 L 625.89 686.85 L 627.36 680.28 L 628.83 691.20 L 630.31 689.36 L 631.78 690.58 L 633.25 671.56 L 634.72 674.35 L 636.19 675.19 L 637.67 672.25 L 639.14 668.16 L 640.61 683.33 L 642.08 651.23 L 643.56 656.38 L 645.03 683.86 L 646.50 680.39 L 647.97 683.09 L 649.44 688.02 L 650.92 692.62 L 652.39 688.51 L 653.86 695.13 L 655.33 688.77 L 656.81 686.70 L 658.28 680.59 L 659.75 687.45 L 661.22 684.03 L 662.69 689.81 L 664.17 690.79 L 665.64 691.64 L 667.11 689.21 L 668.58 690.61 L 670.06 678.22 L 671.53 686.17 L 673.00 688.52 L 674.47 680.11 L 675.94 691.33 L 677.42 687.60 L 678.89 690.31 L 680.36 692.37 L 681.83 692.97 L 683.31 687.67 L 684.78 687.41 L 686.25 684.85 L 687.72 682.80 L 689.19 677.01 L 690.67 690.88 L 692.14 689.18 L 693.61 685.13 L 695.08 680.84 L 696.56 689.99 L 698.03 685.51 L 699.50 691.01 L 700.97 694.20 L 702.44 696.03 L 703.92 691.90 L 705.39 694.93 L 706.86 693.79 L 708.33 694.26 L 709.81 695.76 L 711.28 694.86 L 712.75 690.92 L 714.22 647.87 L 715.69 606.23 L 717.17 606.23 L 718.64 662.44 L 720.11 688.14 L 721.58 656.04 L 723.06 661.11 L 724.53 673.40 L 726.00 689.58 L 727.47 696.77 L 728.94 698.61 L 730.42 698.66 L 731.89 698.84 L 733.36 699.03 L 734.83 698.67 L 736.31 699.00 L 737.78 698.86 L 739.25 698.85 L 740.72 698.89 L 742.19 698.80 L 743.67 680.31 L 745.14 695.40 L 746.61 695.60 L 748.08 694.29 L 749.56 691.89 L 751.03 682.79 L 752.50 679.28 L 753.97 678.42 L 755.44 689.23 L 756.92 694.09 L 758.39 688.54 L 759.86 686.77 L 761.33 681.56 L 762.81 686.73 L 764.28 675.34 L 765.75 688.59 L 767.22 674.24 L 768.69 675.05 L 770.17 676.93 L 771.64 666.53 L 773.11 648.92 L 774.58 657.51 L 776.06 665.09 L 777.53 609.83" stroke="#FB8C00" />
<text x="90" y="711.25" font-size="14" font-weight="700">Giroscópio (magnitude) (u.a.)</text>
<rect class="event" x="443.33" y="717.25" width="69.19" height="192.75" />
<line class="eventline" x1="443.33" y1="717.25" x2="443.33" y2="910.00" />
<line class="eventline" x1="512.53" y1="717.25" x2="512.53" y2="910.00" />
<line class="grid" x1="90" y1="910.00" x2="1150" y2="910.00" />
<text class="small" x="80" y="914.00" text-anchor="end">0.00</text>
<line class="grid" x1="90" y1="871.45" x2="1150" y2="871.45" />
<text class="small" x="80" y="875.45" text-anchor="end">0.10</text>
<line class="grid" x1="90" y1="832.90" x2="1150" y2="832.90" />
<text class="small" x="80" y="836.90" text-anchor="end">0.20</text>
<line class="grid" x1="90" y1="794.35" x2="1150" y2="794.35" />
<text class="small" x="80" y="798.35" text-anchor="end">0.30</text>
<line class="grid" x1="90" y1="755.80" x2="1150" y2="755.80" />
<text class="small" x="80" y="759.80" text-anchor="end">0.40</text>
<line class="grid" x1="90" y1="717.25" x2="1150" y2="717.25" />
<text class="small" x="80" y="721.25" text-anchor="end">0.50</text>
<line class="grid" x1="90.00" y1="717.25" x2="90.00" y2="910.00" />
<line class="grid" x1="266.67" y1="717.25" x2="266.67" y2="910.00" />
<line class="grid" x1="443.33" y1="717.25" x2="443.33" y2="910.00" />
<line class="grid" x1="620.00" y1="717.25" x2="620.00" y2="910.00" />
<line class="grid" x1="796.67" y1="717.25" x2="796.67" y2="910.00" />
<line class="grid" x1="973.33" y1="717.25" x2="973.33" y2="910.00" />
<line class="grid" x1="1150.00" y1="717.25" x2="1150.00" y2="910.00" />
<line class="axis" x1="90" y1="717.25" x2="90" y2="910.00" />
<line class="axis" x1="90" y1="910.00" x2="1150" y2="910.00" />
<path class="series" d="M 178.33 907.59 L 179.81 902.64 L 181.28 899.63 L 182.75 903.63 L 184.22 908.46 L 185.69 907.03 L 187.17 906.72 L 188.64 907.47 L 190.11 908.07 L 191.58 907.03 L 193.06 906.27 L 194.53 905.74 L 196.00 904.95 L 197.47 905.26 L 198.94 906.28 L 200.42 907.91 L 201.89 905.36 L 203.36 905.00 L 204.83 908.21 L 206.31 908.25 L 207.78 909.24 L 209.25 909.24 L 210.72 907.27 L 212.19 907.65 L 213.67 907.35 L 215.14 906.77 L 216.61 904.25 L 218.08 907.38 L 219.56 909.32 L 221.03 905.43 L 222.50 906.78 L 223.97 906.74 L 225.44 906.75 L 226.92 906.45 L 228.39 902.78 L 229.86 907.05 L 231.33 907.38 L 232.81 906.40 L 234.28 906.93 L 235.75 906.60 L 237.22 906.83 L 238.69 905.94 L 240.17 904.03 L 241.64 903.74 L 243.11 903.70 L 244.58 903.09 L 246.06 905.21 L 247.53 905.27 L 249.00 903.42 L 250.47 904.87 L 251.94 904.66 L 253.42 903.88 L 254.89 906.18 L 256.36 905.06 L 257.83 903.38 L 259.31 901.81 L 260.78 904.22 L 262.25 898.81 L 263.72 902.74 L 265.19 903.93 L 266.67 900.27 L 268.14 901.42 L 269.61 900.49 L 271.08 903.31 L 272.56 899.40 L 274.03 901.52 L 275.50 900.50 L 276.97 899.15 L 278.44 892.78 L 279.92 893.16 L 281.39 895.47 L 282.86 891.62 L 284.33 893.96 L 285.81 897.93 L 287.28 894.09 L 288.75 897.31 L 290.22 896.90 L 291.69 889.95 L 293.17 899.12 L 294.64 894.04 L 296.11 883.34 L 297.58 885.67 L 299.06 884.59 L 300.53 888.57 L 302.00 893.92 L 303.47 884.72 L 304.94 880.67 L 306.42 867.95 L 307.89 882.40 L 309.36 886.43 L 310.83 884.64 L 312.31 885.55 L 313.78 883.03 L 315.25 886.90 L 316.72 887.65 L 318.19 887.27 L 319.67 888.01 L 321.14 886.18 L 322.61 886.70 L 324.08 884.74 L 325.56 887.11 L 327.03 888.19 L 328.50 890.39 L 329.97 886.66 L 331.44 887.79 L 332.92 881.74 L 334.39 883.57 L 335.86 886.06 L 337.33 901.98 L 338.81 900.99 L 340.28 902.20 L 341.75 895.65 L 343.22 897.56 L 344.69 893.05 L 346.17 892.08 L 347.64 896.72 L 349.11 892.07 L 350.58 888.92 L 352.06 882.55 L 353.53 879.90 L 355.00 870.23 L 356.47 866.54 L 357.94 890.88 L 359.42 890.62 L 360.89 868.87 L 362.36 855.32 L 363.83 831.32 L 365.31 819.29 L 366.78 813.92 L 368.25 818.50 L 369.72 823.62 L 371.19 848.60 L 372.67 885.96 L 374.14 901.61 L 375.61 906.31 L 377.08 908.78 L 378.56 908.78 L 380.03 904.45 L 381.50 901.45 L 382.97 897.87 L 384.44 897.08 L 385.92 893.58 L 387.39 887.04 L 388.86 880.80 L 390.33 878.40 L 391.81 871.13 L 393.28 868.84 L 394.75 868.04 L 396.22 871.00 L 397.69 865.68 L 399.17 862.56 L 400.64 867.87 L 402.11 874.35 L 403.58 861.13 L 405.06 865.44 L 406.53 869.28 L 408.00 873.68 L 409.47 868.08 L 410.94 866.56 L 412.42 866.54 L 413.89 861.90 L 415.36 876.02 L 416.83 876.71 L 418.31 882.18 L 419.78 894.93 L 421.25 905.10 L 422.72 895.41 L 424.19 883.19 L 425.67 880.93 L 427.14 898.53 L 428.61 906.53 L 430.08 905.88 L 431.56 900.31 L 433.03 907.32 L 434.50 899.66 L 435.97 908.60 L 437.44 908.97 L 438.92 907.12 L 440.39 909.05 L 441.86 909.26 L 443.33 907.82 L 444.81 907.77 L 446.28 909.09 L 447.75 906.37 L 449.22 907.08 L 450.69 908.73 L 452.17 908.94 L 453.64 908.85 L 455.11 909.24 L 456.58 908.68 L 458.06 908.93 L 459.53 908.64 L 461.00 908.74 L 462.47 909.22 L 463.94 909.40 L 465.42 909.15 L 466.89 909.05 L 468.36 909.13 L 469.83 909.08 L 471.31 909.08 L 472.78 908.94 L 474.25 909.21 L 475.72 909.15 L 477.19 909.13 L 478.67 909.10 L 480.14 909.09 L 481.61 909.11 L 483.08 909.03 L 484.56 908.97 L 486.03 909.08 L 487.50 909.11 L 488.97 909.06 L 490.44 909.08 L 491.92 909.11 L 493.39 909.15 L 494.86 909.14 L 496.33 909.12 L 497.81 909.10 L 499.28 909.07 L 500.75 909.00 L 502.22 909.12 L 503.69 909.12 L 505.17 909.01 L 506.64 909.01 L 508.11 909.06 L 509.58 909.04 L 511.06 906.05 L 512.53 905.94 L 514.00 902.15 L 515.47 905.06 L 516.94 904.96 L 518.42 908.20 L 519.89 905.47 L 521.36 906.68 L 522.83 908.87 L 524.31 907.33 L 525.78 909.31 L 527.25 908.84 L 528.72 908.53 L 530.19 909.23 L 531.67 909.09 L 533.14 908.92 L 534.61 908.75 L 536.08 907.98 L 537.56 901.31 L 539.03 907.38 L 540.50 908.21 L 541.97 908.86 L 543.44 908.98 L 544.92 909.14 L 546.39 907.52 L 547.86 907.52 L 549.33 908.67 L 550.81 906.33 L 552.28 907.37 L 553.75 904.96 L 555.22 901.04 L 556.69 882.74 L 558.17 868.67 L 559.64 847.85 L 561.11 832.10 L 562.58 848.00 L 564.06 898.21 L 565.53 895.45 L 567.00 888.75 L 568.47 893.05 L 569.94 897.11 L 571.42 895.59 L 572.89 875.37 L 574.36 869.58 L 575.83 867.22 L 577.31 869.40 L 578.78 858.01 L 580.25 862.40 L 581.72 865.71 L 583.19 870.85 L 584.67 892.14 L 586.14 907.53 L 587.61 870.61 L 589.08 858.20 L 590.56 861.50 L 592.03 861.99 L 593.50 865.71 L 594.97 863.85 L 596.44 861.49 L 597.92 861.01 L 599.39 881.53 L 600.86 902.01 L 602.33 886.30 L 603.81 876.88 L 605.28 870.08 L 606.75 867.97 L 608.22 884.78 L 609.69 886.98 L 611.17 865.17 L 612.64 852.36 L 614.11 867.47 L 615.58 886.74 L 617.06 891.27 L 618.53 885.13 L 620.00 884.66 L 621.47 887.84 L 622.94 891.58 L 624.42 896.58 L 625.89 905.53 L 627.36 889.19 L 628.83 889.32 L 630.31 892.50 L 631.78 896.86 L 633.25 903.15 L 634.72 898.18 L 636.19 899.23 L 637.67 902.27 L 639.14 896.76 L 640.61 897.05 L 642.08 899.40 L 643.56 900.08 L 645.03 895.50 L 646.50 894.53 L 647.97 889.26 L 649.44 900.80 L 650.92 905.90 L 652.39 902.75 L 653.86 899.02 L 655.33 896.26 L 656.81 896.09 L 658.28 891.95 L 659.75 893.81 L 661.22 901.79 L 662.69 904.71 L 664.17 904.70 L 665.64 899.85 L 667.11 901.65 L 668.58 906.93 L 670.06 899.10 L 671.53 900.64 L 673.00 898.82 L 674.47 904.38 L 675.94 902.54 L 677.42 899.35 L 678.89 899.69 L 680.36 899.39 L 681.83 904.23 L 683.31 903.56 L 684.78 902.98 L 686.25 905.72 L 687.72 896.65 L 689.19 898.40 L 690.67 896.24 L 692.14 894.00 L 693.61 897.60 L 695.08 900.05 L 696.56 902.01 L 698.03 899.02 L 699.50 898.19 L 700.97 898.37 L 702.44 899.52 L 703.92 902.63 L 705.39 904.95 L 706.86 904.11 L 708.33 903.87 L 709.81 904.18 L 711.28 901.49 L 712.75 902.34 L 714.22 892.04 L 715.69 893.28 L 717.17 893.28 L 718.64 903.99 L 720.11 907.35 L 721.58 907.12 L 723.06 908.86 L 724.53 909.04 L 726.00 909.10 L 727.47 909.13 L 728.94 909.12 L 730.42 909.08 L 731.89 909.08 L 733.36 909.02 L 734.83 909.06 L 736.31 909.05 L 737.78 908.94 L 739.25 909.04 L 740.72 908.96 L 742.19 908.93 L 743.67 905.80 L 745.14 906.38 L 746.61 907.45 L 748.08 902.08 L 749.56 898.08 L 751.03 892.31 L 752.50 890.09 L 753.97 904.05 L 755.44 897.54 L 756.92 896.34 L 758.39 889.11 L 759.86 888.94 L 761.33 886.08 L 762.81 885.41 L 764.28 884.54 L 765.75 879.68 L 767.22 872.38 L 768.69 857.70 L 770.17 864.18 L 771.64 837.10 L 773.11 815.58 L 774.58 812.74 L 776.06 817.40 L 777.53 892.15" stroke="#E53935" />
<text x="620.00" y="952" font-size="15" text-anchor="middle">minutos (relativo ao início do evento)</text>
<text class="small" x="90.00" y="936" text-anchor="middle">-4.00</text>
<text class="small" x="266.67" y="936" text-anchor="middle">-2.00</text>
<text class="small" x="443.33" y="936" text-anchor="middle">0.00</text>
<text class="small" x="620.00" y="936" text-anchor="middle">2.00</text>
<text class="small" x="796.67" y="936" text-anchor="middle">4.00</text>
<text class="small" x="973.33" y="936" text-anchor="middle">6.00</text>
<text class="small" x="1150.00" y="936" text-anchor="middle">8.00</text>
</svg>