<?xml version="1.0" encoding="UTF-8"?>
<svg xmlns="http://www.w3.org/2000/svg" width="1180" height="980" viewBox="0 0 1180 980">
<style>
text { font-family: -apple-system, BlinkMacSystemFont, 'Segoe UI', Roboto, Helvetica, Arial, sans-serif; fill: #111; }
.small { font-size: 12px; fill: #222; }
.title { font-size: 18px; font-weight: 700; }
.axis { stroke: #111; stroke-width: 1.4; }
.grid { stroke: #E6E6E6; stroke-width: 1; }
.event { fill: #FFEB3B; fill-opacity: 0.18; }
.eventline { stroke: #F9A825; stroke-width: 1.2; stroke-dasharray: 4 3; }
.series { fill: none; stroke-width: 1.8; }
</style>
<text class="title" x="90" y="34">ciclo 9 — espera_basculamento — 2025-12-12T21:09:32-03:00 → 2025-12-12T21:09:48-03:00 (span 16s, dur 17s)</text>
<text class="small" x="90" y="54">GPS: -11.692758,-47.165076  hotspot: -11.693,-47.165</text>
<text class="small" x="90" y="70">Janela: -3.00 → 3.27 min (relativo ao início do evento)</text>
<text x="90" y="79.00" font-size="14" font-weight="700">Velocidade (km/h)</text>
<rect class="event" x="443.33" y="85.00" width="23.56" height="192.75" />
<line class="eventline" x1="443.33" y1="85.00" x2="443.33" y2="277.75" />
<line class="eventline" x1="466.89" y1="85.00" x2="466.89" y2="277.75" />
<line class="grid" x1="90" y1="277.75" x2="1150" y2="277.75" />
<text class="small" x="80" y="281.75" text-anchor="end">0.00</text>
<line class="grid" x1="90" y1="239.20" x2="1150" y2="239.20" />
<text class="small" x="80" y="243.20" text-anchor="end">10.0</text>
<line class="grid" x1="90" y1="200.65" x2="1150" y2="200.65" />
<text class="small" x="80" y="204.65" text-anchor="end">20.0</text>
<line class="grid" x1="90" y1="162.10" x2="1150" y2="162.10" />
<text class="small" x="80" y="166.10" text-anchor="end">30.0</text>
<line class="grid" x1="90" y1="123.55" x2="1150" y2="123.55" />
<text class="small" x="80" y="127.55" text-anchor="end">40.0</text>
<line class="grid" x1="90" y1="85.00" x2="1150" y2="85.00" />
<text class="small" x="80" y="89.00" text-anchor="end">50.0</text>
<line class="grid" x1="90.00" y1="85.00" x2="90.00" y2="277.75" />
<line class="grid" x1="266.67" y1="85.00" x2="266.67" y2="277.75" />
<line class="grid" x1="443.33" y1="85.00" x2="443.33" y2="277.75" />
<line class="grid" x1="620.00" y1="85.00" x2="620.00" y2="277.75" />
<line class="grid" x1="796.67" y1="85.00" x2="796.67" y2="277.75" />
<line class="grid" x1="973.33" y1="85.00" x2="973.33" y2="277.75" />
<line class="grid" x1="1150.00" y1="85.00" x2="1150.00" y2="277.75" />
<line class="axis" x1="90" y1="85.00" x2="90" y2="277.75" />
<line class="axis" x1="90" y1="277.75" x2="1150" y2="277.75" />
<path class="series" d="M 178.33 249.30 L 179.81 248.74 L 181.28 248.19 L 182.75 247.22 L 184.22 246.94 L 185.69 245.14 L 187.17 244.44 L 188.64 246.39 L 190.11 245.28 L 191.58 246.80 L 193.06 243.47 L 194.53 240.83 L 196.00 238.89 L 197.47 232.37 L 198.94 227.65 L 200.42 220.99 L 201.89 219.05 L 203.36 215.58 L 204.83 213.63 L 206.31 213.49 L 207.78 211.00 L 209.25 213.63 L 210.72 213.63 L 212.19 212.11 L 213.67 212.94 L 215.14 214.74 L 216.61 215.85 L 218.08 213.77 L 219.56 215.44 L 221.03 214.74 L 222.50 214.61 L 223.97 211.69 L 225.44 210.72 L 226.92 212.94 L 228.39 213.63 L 229.86 218.63 L 231.33 224.04 L 232.81 223.90 L 234.28 224.46 L 235.75 227.79 L 237.22 234.03 L 238.69 233.76 L 240.17 235.42 L 241.64 235.56 L 243.11 234.45 L 244.58 233.48 L 246.06 234.17 L 247.53 235.28 L 249.00 237.09 L 250.47 236.39 L 251.94 235.70 L 253.42 229.59 L 254.89 226.82 L 256.36 226.26 L 257.83 223.07 L 259.31 223.49 L 260.78 226.26 L 262.25 228.34 L 263.72 229.87 L 265.19 227.79 L 266.67 225.85 L 268.14 226.82 L 269.61 226.40 L 271.08 222.93 L 272.56 227.37 L 274.03 227.10 L 275.50 230.15 L 276.97 230.70 L 278.44 233.06 L 279.92 232.79 L 281.39 239.03 L 282.86 232.92 L 284.33 234.59 L 285.81 237.78 L 287.28 240.83 L 288.75 243.61 L 290.22 238.75 L 291.69 245.28 L 293.17 252.35 L 294.64 264.01 L 296.11 277.75 L 297.58 277.75 L 299.06 277.75 L 300.53 277.75 L 302.00 262.90 L 303.47 260.82 L 304.94 261.10 L 306.42 260.40 L 307.89 259.99 L 309.36 260.12 L 310.83 261.65 L 312.31 259.71 L 313.78 258.60 L 315.25 259.99 L 316.72 260.40 L 318.19 258.88 L 319.67 256.93 L 321.14 257.77 L 322.61 260.40 L 324.08 258.04 L 325.56 256.79 L 327.03 259.43 L 328.50 260.68 L 329.97 259.15 L 331.44 258.04 L 332.92 261.10 L 334.39 258.46 L 335.86 260.54 L 337.33 260.54 L 338.81 259.85 L 340.28 261.10 L 341.75 261.10 L 343.22 260.54 L 344.69 262.48 L 346.17 260.26 L 347.64 260.26 L 349.11 261.93 L 350.58 262.76 L 352.06 263.32 L 353.53 263.32 L 355.00 262.48 L 356.47 267.06 L 357.94 268.04 L 359.42 270.26 L 360.89 272.62 L 362.36 277.75 L 363.83 277.75 L 365.31 277.75 L 366.78 277.75 L 368.25 277.75 L 369.72 277.75 L 371.19 277.75 L 372.67 277.75 L 374.14 277.75 L 375.61 277.75 L 377.08 277.75 L 378.56 277.75 L 380.03 277.75 L 381.50 277.75 L 382.97 277.75 L 384.44 277.75 L 385.92 277.75 L 387.39 277.75 L 388.86 277.75 L 390.33 277.75 L 391.81 277.75 L 393.28 277.75 L 394.75 277.75 L 396.22 277.75 L 397.69 277.75 L 399.17 277.75 L 400.64 277.75 L 402.11 277.75 L 403.58 277.75 L 405.06 277.75 L 406.53 277.75 L 408.00 277.75 L 409.47 277.75 L 410.94 277.75 L 412.42 277.75 L 413.89 277.75 L 415.36 277.75 L 416.83 277.75 L 418.31 277.75 L 419.78 277.75 L 421.25 277.75 L 422.72 277.75 L 424.19 277.75 L 425.67 277.75 L 427.14 277.75 L 428.61 277.75 L 430.08 277.75 L 431.56 277.75 L 433.03 277.75 L 434.50 256.66 L 435.97 255.82 L 437.44 261.79 L 438.92 267.06 L 440.39 269.15 L 441.86 274.56 L 443.33 277.75 L 444.81 277.75 L 446.28 277.75 L 447.75 277.75 L 449.22 277.75 L 450.69 277.75 L 452.17 277.75 L 453.64 277.75 L 455.11 277.75 L 456.58 277.75 L 458.06 277.75 L 459.53 277.75 L 461.00 277.75 L 462.47 277.75 L 463.94 277.75 L 465.42 277.75 L 466.89 277.75 L 468.36 271.23 L 469.83 264.43 L 471.31 259.71 L 472.78 252.77 L 474.25 246.11 L 475.72 240.42 L 477.19 231.54 L 478.67 223.07 L 480.14 224.46 L 481.61 217.10 L 483.08 226.96 L 484.56 227.93 L 486.03 226.12 L 487.50 217.80 L 488.97 217.94 L 490.44 218.49 L 491.92 220.57 L 493.39 219.05 L 494.86 215.99 L 496.33 218.77 L 497.81 216.96 L 499.28 217.94 L 500.75 215.30 L 502.22 217.52 L 503.69 211.83 L 505.17 206.14 L 506.64 197.12 L 508.11 194.34 L 509.58 199.06 L 511.06 199.48 L 512.53 205.31 L 514.00 202.67 L 515.47 201.56 L 516.94 196.84 L 518.42 189.62 L 519.89 187.96 L 521.36 183.38 L 522.83 180.47 L 524.31 177.83 L 525.78 174.91 L 527.25 175.19 L 528.72 176.86 L 530.19 182.69 L 531.67 183.38 L 533.14 182.69 L 534.61 176.86 L 536.08 176.86 L 537.56 176.16 L 539.03 180.47 L 540.50 184.21 L 541.97 180.74 L 543.44 177.27 L 544.92 174.08 L 546.39 162.42 L 547.86 159.65 L 549.33 151.74 L 550.81 150.07 L 552.28 142.58 L 553.75 139.80 L 555.22 146.74 L 556.69 157.01 L 558.17 159.51 L 559.64 153.82 L 561.11 141.75 L 562.58 136.06 L 564.06 156.46 L 565.53 164.23 L 567.00 162.01 L 568.47 161.17 L 569.94 157.57 L 571.42 161.59 L 572.89 163.81 L 574.36 165.06 L 575.83 168.95 L 577.31 171.72 L 578.78 171.72 L 580.25 170.33 L 581.72 175.89 L 583.19 168.81 L 584.67 169.78 L 586.14 172.55 L 587.61 173.11 L 589.08 171.58 L 590.56 169.92 L 592.03 162.84 L 593.50 154.65 L 594.97 149.79 L 596.44 158.82 L 597.92 164.37 L 599.39 168.39 L 600.86 167.14 L 602.33 171.86 L 603.81 175.89 L 605.28 176.44 L 606.75 175.61 L 608.22 175.19 L 609.69 169.92 L 611.17 161.87 L 612.64 157.43 L 614.11 156.32 L 615.58 161.73 L 617.06 161.59 L 618.53 164.51 L 620.00 167.56 L 621.47 169.92 L 622.94 170.47 L 624.42 174.64 L 625.89 173.53 L 627.36 174.64 L 628.83 172.83 L 630.31 171.03 L 631.78 173.53 L 633.25 173.25 L 634.72 170.61 L 636.19 184.07 L 637.67 224.46 L 639.14 277.75 L 640.61 277.75 L 642.08 277.75 L 643.56 277.75 L 645.03 277.75 L 646.50 277.75 L 647.97 277.75 L 649.44 277.75 L 650.92 277.75 L 652.39 277.75 L 653.86 277.75 L 655.33 277.75 L 656.81 277.75 L 658.28 277.75 L 659.75 277.75 L 661.22 277.75 L 662.69 277.75 L 664.17 277.75 L 665.64 277.75 L 667.11 277.75 L 668.58 277.75 L 670.06 277.75 L 671.53 245.14 L 673.00 239.31 L 674.47 237.23 L 675.94 231.95 L 677.42 223.63 L 678.89 223.21 L 680.36 219.46 L 681.83 219.18 L 683.31 219.60 L 684.78 214.88 L 686.25 205.86 L 687.72 199.06 L 689.19 196.01 L 690.67 193.09 L 692.14 184.35 L 693.61 184.07 L 695.08 182.55 L 696.56 184.49 L 698.03 189.62 L 699.50 193.37 L 700.97 203.36 L 702.44 198.92 L 703.92 197.54 L 705.39 196.56 L 706.86 188.24 L 708.33 183.38 L 709.81 177.41 L 711.28 172.42 L 712.75 173.66 L 714.22 169.09 L 715.69 158.95 L 717.17 157.84 L 718.64 159.51 L 720.11 161.45 L 721.58 162.42 L 723.06 161.31 L 724.53 160.76 L 726.00 161.17 L 727.47 164.64 L 728.94 167.56 L 730.42 168.95 L 731.89 167.98" stroke="#1976D2" />
<text x="90" y="289.75" font-size="14" font-weight="700">Inclinação (graus)</text>
<rect class="event" x="443.33" y="295.75" width="23.56" height="192.75" />
<line class="eventline" x1="443.33" y1="295.75" x2="443.33" y2="488.50" />
<line class="eventline" x1="466.89" y1="295.75" x2="466.89" y2="488.50" />
<line class="grid" x1="90" y1="488.50" x2="1150" y2="488.50" />
<text class="small" x="80" y="492.50" text-anchor="end">-20.0</text>
<line class="grid" x1="90" y1="449.95" x2="1150" y2="449.95" />
<text class="small" x="80" y="453.95" text-anchor="end">0.00</text>
<line class="grid" x1="90" y1="411.40" x2="1150" y2="411.40" />
<text class="small" x="80" y="415.40" text-anchor="end">20.0</text>
<line class="grid" x1="90" y1="372.85" x2="1150" y2="372.85" />
<text class="small" x="80" y="376.85" text-anchor="end">40.0</text>
<line class="grid" x1="90" y1="334.30" x2="1150" y2="334.30" />
<text class="small" x="80" y="338.30" text-anchor="end">60.0</text>
<line class="grid" x1="90" y1="295.75" x2="1150" y2="295.75" />
<text class="small" x="80" y="299.75" text-anchor="end">80.0</text>
<line class="grid" x1="90.00" y1="295.75" x2="90.00" y2="488.50" />
<line class="grid" x1="266.67" y1="295.75" x2="266.67" y2="488.50" />
<line class="grid" x1="443.33" y1="295.75" x2="443.33" y2="488.50" />
<line class="grid" x1="620.00" y1="295.75" x2="620.00" y2="488.50" />
<line class="grid" x1="796.67" y1="295.75" x2="796.67" y2="488.50" />
<line class="grid" x1="973.33" y1="295.75" x2="973.33" y2="488.50" />
<line class="grid" x1="1150.00" y1="295.75" x2="1150.00" y2="488.50" />
<line class="axis" x1="90" y1="295.75" x2="90" y2="488.50" />
<line class="axis" x1="90" y1="488.50" x2="1150" y2="488.50" />
<path class="series" d="M 178.33 440.30 L 179.81 440.73 L 181.28 442.15 L 182.75 438.65 L 184.22 438.85 L 185.69 437.96 L 187.17 436.38 L 188.64 438.31 L 190.11 435.59 L 191.58 438.44 L 193.06 435.52 L 194.53 433.41 L 196.00 437.41 L 197.47 436.45 L 198.94 432.44 L 200.42 425.76 L 201.89 428.24 L 203.36 427.67 L 204.83 428.44 L 206.31 427.29 L 207.78 429.29 L 209.25 429.31 L 210.72 428.44 L 212.19 430.57 L 213.67 429.30 L 215.14 430.06 L 216.61 430.16 L 218.08 430.17 L 219.56 431.11 L 221.03 430.95 L 222.50 428.51 L 223.97 426.82 L 225.44 431.71 L 226.92 434.50 L 228.39 432.98 L 229.86 435.37 L 231.33 434.64 L 232.81 434.73 L 234.28 434.68 L 235.75 433.97 L 237.22 437.38 L 238.69 437.79 L 240.17 437.10 L 241.64 437.70 L 243.11 436.91 L 244.58 437.06 L 246.06 437.23 L 247.53 437.04 L 249.00 435.43 L 250.47 432.76 L 251.94 433.61 L 253.42 431.94 L 254.89 427.92 L 256.36 430.46 L 257.83 428.00 L 259.31 423.46 L 260.78 426.16 L 262.25 422.46 L 263.72 423.19 L 265.19 425.33 L 266.67 424.70 L 268.14 424.22 L 269.61 424.22 L 271.08 427.44 L 272.56 429.42 L 274.03 430.66 L 275.50 428.56 L 276.97 428.56 L 278.44 428.03 L 279.92 431.94 L 281.39 429.45 L 282.86 427.29 L 284.33 426.15 L 285.81 424.48 L 287.28 423.57 L 288.75 424.83 L 290.22 423.39 L 291.69 419.14 L 293.17 418.27 L 294.64 417.08 L 296.11 414.89 L 297.58 429.54 L 299.06 420.00 L 300.53 422.49 L 302.00 421.83 L 303.47 425.89 L 304.94 424.95 L 306.42 425.94 L 307.89 425.53 L 309.36 427.20 L 310.83 425.20 L 312.31 424.32 L 313.78 423.44 L 315.25 422.66 L 316.72 425.49 L 318.19 426.01 L 319.67 424.79 L 321.14 426.68 L 322.61 427.37 L 324.08 427.43 L 325.56 427.30 L 327.03 427.81 L 328.50 428.54 L 329.97 428.57 L 331.44 427.93 L 332.92 426.94 L 334.39 426.55 L 335.86 426.63 L 337.33 426.99 L 338.81 424.81 L 340.28 425.78 L 341.75 427.03 L 343.22 427.02 L 344.69 427.79 L 346.17 428.61 L 347.64 428.34 L 349.11 430.42 L 350.58 428.58 L 352.06 428.46 L 353.53 426.72 L 355.00 427.44 L 356.47 429.61 L 357.94 426.53 L 359.42 429.47 L 360.89 428.33 L 362.36 427.67 L 363.83 426.38 L 365.31 429.04 L 366.78 425.81 L 368.25 431.94 L 369.72 430.06 L 371.19 426.49 L 372.67 427.38 L 374.14 427.63 L 375.61 427.60 L 377.08 428.36 L 378.56 426.80 L 380.03 427.78 L 381.50 427.40 L 382.97 427.12 L 384.44 427.31 L 385.92 427.45 L 387.39 427.44 L 388.86 427.48 L 390.33 427.51 L 391.81 427.24 L 393.28 427.42 L 394.75 427.34 L 396.22 427.31 L 397.69 427.31 L 399.17 427.33 L 400.64 427.97 L 402.11 427.45 L 403.58 427.03 L 405.06 427.32 L 406.53 427.55 L 408.00 427.53 L 409.47 427.40 L 410.94 427.31 L 412.42 427.40 L 413.89 427.36 L 415.36 427.46 L 416.83 427.43 L 418.31 427.60 L 419.78 427.58 L 421.25 427.73 L 422.72 427.96 L 424.19 427.66 L 425.67 428.14 L 427.14 428.23 L 428.61 428.37 L 430.08 428.56 L 431.56 432.16 L 433.03 436.79 L 434.50 441.37 L 435.97 421.80 L 437.44 424.86 L 438.92 425.83 L 440.39 425.70 L 441.86 424.49 L 443.33 428.38 L 444.81 428.36 L 446.28 428.79 L 447.75 428.26 L 449.22 428.70 L 450.69 428.34 L 452.17 428.19 L 453.64 428.18 L 455.11 428.12 L 456.58 428.36 L 458.06 435.48 L 459.53 420.76 L 461.00 426.51 L 462.47 427.61 L 463.94 427.16 L 465.42 427.70 L 466.89 433.06 L 468.36 433.84 L 469.83 432.46 L 471.31 435.61 L 472.78 434.45 L 474.25 432.47 L 475.72 435.84 L 477.19 434.11 L 478.67 426.47 L 480.14 427.62 L 481.61 419.80 L 483.08 423.75 L 484.56 430.28 L 486.03 430.44 L 487.50 428.58 L 488.97 424.40 L 490.44 421.86 L 491.92 428.45 L 493.39 424.02 L 494.86 421.06 L 496.33 429.03 L 497.81 431.21 L 499.28 431.29 L 500.75 430.02 L 502.22 436.46 L 503.69 431.58 L 505.17 438.97 L 506.64 427.37 L 508.11 422.10 L 509.58 426.25 L 511.06 418.59 L 512.53 420.73 L 514.00 419.77 L 515.47 420.50 L 516.94 421.84 L 518.42 420.40 L 519.89 422.97 L 521.36 419.55 L 522.83 420.66 L 524.31 422.71 L 525.78 424.44 L 527.25 424.57 L 528.72 421.97 L 530.19 426.37 L 531.67 425.02 L 533.14 427.51 L 534.61 427.35 L 536.08 423.57 L 537.56 421.42 L 539.03 427.13 L 540.50 430.67 L 541.97 434.24 L 543.44 432.06 L 544.92 432.37 L 546.39 423.81 L 547.86 422.89 L 549.33 421.39 L 550.81 422.23 L 552.28 417.92 L 553.75 412.75 L 555.22 406.52 L 556.69 416.70 L 558.17 422.07 L 559.64 422.07 L 561.11 421.87 L 562.58 420.91 L 564.06 398.82 L 565.53 415.59 L 567.00 416.74 L 568.47 414.97 L 569.94 416.93 L 571.42 416.31 L 572.89 416.15 L 574.36 415.66 L 575.83 414.02 L 577.31 411.34 L 578.78 415.82 L 580.25 417.74 L 581.72 415.59 L 583.19 415.90 L 584.67 416.10 L 586.14 415.64 L 587.61 415.46 L 589.08 414.75 L 590.56 418.73 L 592.03 422.57 L 593.50 420.94 L 594.97 416.76 L 596.44 413.64 L 597.92 415.89 L 599.39 412.50 L 600.86 413.05 L 602.33 414.28 L 603.81 414.43 L 605.28 415.89 L 606.75 415.30 L 608.22 416.00 L 609.69 421.24 L 611.17 423.06 L 612.64 419.08 L 614.11 414.78 L 615.58 416.31 L 617.06 414.99 L 618.53 416.22 L 620.00 415.47 L 621.47 416.00 L 622.94 415.24 L 624.42 415.35 L 625.89 415.40 L 627.36 415.23 L 628.83 415.11 L 630.31 415.20 L 631.78 415.64 L 633.25 415.28 L 634.72 414.39 L 636.19 391.76 L 637.67 382.93 L 639.14 392.54 L 640.61 403.38 L 642.08 415.73 L 643.56 414.32 L 645.03 414.72 L 646.50 414.61 L 647.97 414.62 L 649.44 414.56 L 650.92 414.62 L 652.39 414.59 L 653.86 414.58 L 655.33 414.61 L 656.81 414.59 L 658.28 414.61 L 659.75 414.60 L 661.22 414.61 L 662.69 414.56 L 664.17 423.16 L 665.64 414.81 L 667.11 416.12 L 668.58 419.91 L 670.06 418.23 L 671.53 421.89 L 673.00 424.30 L 674.47 422.45 L 675.94 420.19 L 677.42 420.24 L 678.89 417.61 L 680.36 415.50 L 681.83 412.28 L 683.31 414.09 L 684.78 427.29 L 686.25 425.00 L 687.72 422.03 L 689.19 430.67 L 690.67 425.92 L 692.14 425.12 L 693.61 418.11 L 695.08 417.22 L 696.56 419.99 L 698.03 414.46 L 699.50 418.12 L 700.97 419.40 L 702.44 427.45 L 703.92 427.00 L 705.39 428.62 L 706.86 431.39 L 708.33 433.93 L 709.81 433.26 L 711.28 432.50 L 712.75 432.74 L 714.22 434.64 L 715.69 435.13 L 717.17 432.28 L 718.64 423.73 L 720.11 428.66 L 721.58 426.03 L 723.06 428.69 L 724.53 429.06 L 726.00 424.47 L 727.47 423.92 L 728.94 424.21 L 730.42 423.35 L 731.89 428.05" stroke="#2E7D32" />
<path class="series" d="M 178.33 448.15 L 179.81 449.10 L 181.28 450.83 L 182.75 450.13 L 184.22 452.43 L 185.69 450.70 L 187.17 450.29 L 188.64 451.55 L 190.11 454.20 L 191.58 450.90 L 193.06 454.39 L 194.53 449.64 L 196.00 455.23 L 197.47 451.46 L 198.94 451.34 L 200.42 448.92 L 201.89 450.69 L 203.36 449.93 L 204.83 450.25 L 206.31 449.47 L 207.78 449.81 L 209.25 451.82 L 210.72 448.57 L 212.19 450.50 L 213.67 449.42 L 215.14 450.76 L 216.61 450.24 L 218.08 449.62 L 219.56 452.40 L 221.03 450.02 L 222.50 453.16 L 223.97 454.85 L 225.44 455.44 L 226.92 460.33 L 228.39 456.43 L 229.86 453.78 L 231.33 452.33 L 232.81 449.12 L 234.28 451.89 L 235.75 450.71 L 237.22 453.88 L 238.69 451.86 L 240.17 448.99 L 241.64 447.74 L 243.11 444.63 L 244.58 443.56 L 246.06 446.78 L 247.53 445.97 L 249.00 444.71 L 250.47 446.21 L 251.94 449.23 L 253.42 448.63 L 254.89 453.62 L 256.36 447.43 L 257.83 443.76 L 259.31 446.79 L 260.78 447.58 L 262.25 447.93 L 263.72 446.87 L 265.19 445.75 L 266.67 450.94 L 268.14 452.26 L 269.61 452.26 L 271.08 443.33 L 272.56 441.94 L 274.03 442.10 L 275.50 441.82 L 276.97 441.96 L 278.44 443.71 L 279.92 448.21 L 281.39 460.12 L 282.86 460.08 L 284.33 460.95 L 285.81 459.28 L 287.28 457.62 L 288.75 457.09 L 290.22 454.32 L 291.69 450.15 L 293.17 445.36 L 294.64 443.99 L 296.11 445.19 L 297.58 447.47 L 299.06 447.37 L 300.53 449.50 L 302.00 447.14 L 303.47 448.29 L 304.94 446.18 L 306.42 448.58 L 307.89 448.23 L 309.36 448.63 L 310.83 444.60 L 312.31 444.00 L 313.78 445.62 L 315.25 440.88 L 316.72 449.04 L 318.19 444.67 L 319.67 447.85 L 321.14 446.50 L 322.61 449.54 L 324.08 445.42 L 325.56 448.45 L 327.03 443.78 L 328.50 444.47 L 329.97 445.27 L 331.44 447.64 L 332.92 442.14 L 334.39 445.62 L 335.86 443.25 L 337.33 443.54 L 338.81 442.61 L 340.28 442.86 L 341.75 441.19 L 343.22 443.41 L 344.69 445.32 L 346.17 449.25 L 347.64 451.45 L 349.11 447.39 L 350.58 450.46 L 352.06 446.15 L 353.53 451.48 L 355.00 448.49 L 356.47 448.34 L 357.94 449.98 L 359.42 449.99 L 360.89 449.78 L 362.36 449.72 L 363.83 450.97 L 365.31 448.08 L 366.78 450.04 L 368.25 449.09 L 369.72 450.99 L 371.19 449.58 L 372.67 449.67 L 374.14 449.89 L 375.61 449.69 L 377.08 450.23 L 378.56 449.53 L 380.03 450.25 L 381.50 449.75 L 382.97 449.09 L 384.44 449.81 L 385.92 450.00 L 387.39 449.57 L 388.86 449.64 L 390.33 449.89 L 391.81 449.68 L 393.28 449.70 L 394.75 449.62 L 396.22 449.89 L 397.69 449.72 L 399.17 449.75 L 400.64 449.83 L 402.11 449.92 L 403.58 449.73 L 405.06 449.44 L 406.53 449.92 L 408.00 449.70 L 409.47 449.84 L 410.94 449.56 L 412.42 449.77 L 413.89 449.68 L 415.36 449.69 L 416.83 449.81 L 418.31 449.71 L 419.78 449.76 L 421.25 449.73 L 422.72 449.94 L 424.19 449.60 L 425.67 450.02 L 427.14 449.83 L 428.61 449.97 L 430.08 449.96 L 431.56 449.93 L 433.03 449.81 L 434.50 448.99 L 435.97 450.08 L 437.44 448.89 L 438.92 450.45 L 440.39 450.79 L 441.86 450.26 L 443.33 450.23 L 444.81 449.75 L 446.28 450.33 L 447.75 450.18 L 449.22 450.02 L 450.69 450.11 L 452.17 450.23 L 453.64 450.15 L 455.11 450.18 L 456.58 450.52 L 458.06 450.89 L 459.53 449.43 L 461.00 447.90 L 462.47 449.01 L 463.94 449.31 L 465.42 449.12 L 466.89 449.10 L 468.36 449.08 L 469.83 448.45 L 471.31 446.02 L 472.78 449.13 L 474.25 444.34 L 475.72 442.31 L 477.19 440.76 L 478.67 434.76 L 480.14 435.83 L 481.61 443.76 L 483.08 455.81 L 484.56 453.23 L 486.03 450.23 L 487.50 444.79 L 488.97 451.60 L 490.44 455.10 L 491.92 460.41 L 493.39 457.98 L 494.86 459.50 L 496.33 455.99 L 497.81 458.75 L 499.28 459.88 L 500.75 453.96 L 502.22 454.09 L 503.69 447.39 L 505.17 450.05 L 506.64 440.95 L 508.11 438.79 L 509.58 440.36 L 511.06 440.80 L 512.53 447.62 L 514.00 446.72 L 515.47 446.35 L 516.94 447.58 L 518.42 444.34 L 519.89 453.14 L 521.36 444.13 L 522.83 441.83 L 524.31 447.04 L 525.78 441.58 L 527.25 440.75 L 528.72 445.37 L 530.19 440.85 L 531.67 437.60 L 533.14 443.47 L 534.61 447.06 L 536.08 448.43 L 537.56 451.96 L 539.03 444.85 L 540.50 442.13 L 541.97 457.63 L 543.44 449.54 L 544.92 449.02 L 546.39 437.71 L 547.86 445.08 L 549.33 444.77 L 550.81 445.22 L 552.28 451.60 L 553.75 447.76 L 555.22 453.22 L 556.69 448.67 L 558.17 451.38 L 559.64 451.38 L 561.11 454.49 L 562.58 451.58 L 564.06 452.26 L 565.53 450.27 L 567.00 445.69 L 568.47 443.36 L 569.94 445.63 L 571.42 448.08 L 572.89 452.64 L 574.36 451.93 L 575.83 452.18 L 577.31 453.45 L 578.78 454.95 L 580.25 455.28 L 581.72 450.74 L 583.19 453.29 L 584.67 452.32 L 586.14 449.78 L 587.61 447.43 L 589.08 450.97 L 590.56 452.23 L 592.03 443.84 L 593.50 447.15 L 594.97 445.80 L 596.44 449.41 L 597.92 451.38 L 599.39 450.97 L 600.86 454.21 L 602.33 454.06 L 603.81 453.45 L 605.28 451.29 L 606.75 451.51 L 608.22 453.21 L 609.69 448.96 L 611.17 452.18 L 612.64 450.55 L 614.11 452.07 L 615.58 447.29 L 617.06 448.00 L 618.53 450.20 L 620.00 445.81 L 621.47 448.72 L 622.94 447.58 L 624.42 445.48 L 625.89 446.93 L 627.36 445.81 L 628.83 445.07 L 630.31 446.30 L 631.78 448.08 L 633.25 446.06 L 634.72 448.28 L 636.19 452.68 L 637.67 448.15 L 639.14 446.86 L 640.61 446.50 L 642.08 447.40 L 643.56 446.90 L 645.03 446.91 L 646.50 446.71 L 647.97 447.03 L 649.44 446.69 L 650.92 447.00 L 652.39 446.80 L 653.86 446.80 L 655.33 446.88 L 656.81 446.79 L 658.28 446.88 L 659.75 446.80 L 661.22 446.84 L 662.69 446.85 L 664.17 447.29 L 665.64 446.36 L 667.11 445.27 L 668.58 444.74 L 670.06 446.25 L 671.53 443.21 L 673.00 443.80 L 674.47 451.78 L 675.94 448.54 L 677.42 450.99 L 678.89 451.06 L 680.36 449.96 L 681.83 449.73 L 683.31 449.81 L 684.78 451.71 L 686.25 452.92 L 687.72 461.78 L 689.19 460.82 L 690.67 455.32 L 692.14 463.60 L 693.61 469.21 L 695.08 470.09 L 696.56 459.67 L 698.03 428.80 L 699.50 423.04 L 700.97 434.79 L 702.44 436.05 L 703.92 435.44 L 705.39 432.96 L 706.86 430.89 L 708.33 452.07 L 709.81 464.59 L 711.28 456.60 L 712.75 456.53 L 714.22 458.66 L 715.69 458.81 L 717.17 458.48 L 718.64 452.26 L 720.11 448.56 L 721.58 450.71 L 723.06 449.56 L 724.53 445.37 L 726.00 447.13 L 727.47 448.16 L 728.94 447.20 L 730.42 447.46 L 731.89 444.82" stroke="#6A1B9A" />
<line x1="900.00" y1="307.75" x2="918.00" y2="307.75" stroke="#2E7D32" stroke-width="3" />
<text class="small" x="924.00" y="311.75">pitch</text>
<line x1="900.00" y1="323.75" x2="918.00" y2="323.75" stroke="#6A1B9A" stroke-width="3" />
<text class="small" x="924.00" y="327.75">roll</text>
<text x="90" y="500.50" font-size="14" font-weight="700">Aceleração (magnitude) (u.a.)</text>
<rect class="event" x="443.33" y="506.50" width="23.56" height="192.75" />
<line class="eventline" x1="443.33" y1="506.50" x2="443.33" y2="699.25" />
<line class="eventline" x1="466.89" y1="506.50" x2="466.89" y2="699.25" />
<line class="grid" x1="90" y1="699.25" x2="1150" y2="699.25" />
<text class="small" x="80" y="703.25" text-anchor="end">0.00</text>
<line class="grid" x1="90" y1="660.70" x2="1150" y2="660.70" />
<text class="small" x="80" y="664.70" text-anchor="end">1.00</text>
<line class="grid" x1="90" y1="622.15" x2="1150" y2="622.15" />
<text class="small" x="80" y="626.15" text-anchor="end">2.00</text>
<line class="grid" x1="90" y1="583.60" x2="1150" y2="583.60" />
<text class="small" x="80" y="587.60" text-anchor="end">3.00</text>
<line class="grid" x1="90" y1="545.05" x2="1150" y2="545.05" />
<text class="small" x="80" y="549.05" text-anchor="end">4.00</text>
<line class="grid" x1="90" y1="506.50" x2="1150" y2="506.50" />
<text class="small" x="80" y="510.50" text-anchor="end">5.00</text>
<line class="grid" x1="90.00" y1="506.50" x2="90.00" y2="699.25" />
<line class="grid" x1="266.67" y1="506.50" x2="266.67" y2="699.25" />
<line class="grid" x1="443.33" y1="506.50" x2="443.33" y2="699.25" />
<line class="grid" x1="620.00" y1="506.50" x2="620.00" y2="699.25" />
<line class="grid" x1="796.67" y1="506.50" x2="796.67" y2="699.25" />
<line class="grid" x1="973.33" y1="506.50" x2="973.33" y2="699.25" />
<line class="grid" x1="1150.00" y1="506.50" x2="1150.00" y2="699.25" />
<line class="axis" x1="90" y1="506.50" x2="90" y2="699.25" />
<line class="axis" x1="90" y1="699.25" x2="1150" y2="699.25" />
<path class="series" d="M 178.33 695.53 L 179.81 698.00 L 181.28 696.33 L 182.75 695.61 L 184.22 687.87 L 185.69 690.08 L 187.17 691.31 L 188.64 687.28 L 190.11 693.57 L 191.58 693.02 L 193.06 688.88 L 194.53 696.46 L 196.00 685.49 L 197.47 687.20 L 198.94 682.17 L 200.42 692.30 L 201.89 690.43 L 203.36 683.91 L 204.83 692.33 L 206.31 676.08 L 207.78 675.15 L 209.25 695.31 L 210.72 679.54 L 212.19 679.80 L 213.67 679.70 L 215.14 690.56 L 216.61 676.98 L 218.08 676.34 L 219.56 687.10 L 221.03 688.47 L 222.50 674.78 L 223.97 681.30 L 225.44 687.12 L 226.92 686.74 L 228.39 666.94 L 229.86 683.53 L 231.33 678.26 L 232.81 689.39 L 234.28 685.18 L 235.75 685.46 L 237.22 695.34 L 238.69 692.01 L 240.17 695.27 L 241.64 688.35 L 243.11 690.06 L 244.58 686.76 L 246.06 692.26 L 247.53 684.75 L 249.00 692.02 L 250.47 694.78 L 251.94 695.09 L 253.42 690.84 L 254.89 692.29 L 256.36 692.24 L 257.83 680.11 L 259.31 680.54 L 260.78 692.56 L 262.25 694.34 L 263.72 688.12 L 265.19 678.64 L 266.67 679.66 L 268.14 681.74 L 269.61 677.04 L 271.08 684.59 L 272.56 691.53 L 274.03 688.25 L 275.50 688.93 L 276.97 692.75 L 278.44 677.76 L 279.92 663.58 L 281.39 678.65 L 282.86 682.62 L 284.33 675.49 L 285.81 676.55 L 287.28 686.72 L 288.75 683.22 L 290.22 670.91 L 291.69 669.56 L 293.17 663.86 L 294.64 669.18 L 296.11 667.88 L 297.58 694.42 L 299.06 694.42 L 300.53 688.91 L 302.00 692.78 L 303.47 682.49 L 304.94 687.75 L 306.42 691.93 L 307.89 695.86 L 309.36 692.47 L 310.83 696.03 L 312.31 694.25 L 313.78 695.59 L 315.25 688.34 L 316.72 689.73 L 318.19 686.61 L 319.67 695.09 L 321.14 693.31 L 322.61 689.67 L 324.08 684.10 L 325.56 693.87 L 327.03 696.14 L 328.50 697.67 L 329.97 694.69 L 331.44 695.74 L 332.92 694.82 L 334.39 694.85 L 335.86 691.32 L 337.33 692.05 L 338.81 691.50 L 340.28 698.15 L 341.75 695.65 L 343.22 696.55 L 344.69 694.48 L 346.17 687.56 L 347.64 690.05 L 349.11 687.28 L 350.58 693.25 L 352.06 691.29 L 353.53 694.64 L 355.00 691.78 L 356.47 687.59 L 357.94 696.49 L 359.42 696.00 L 360.89 697.32 L 362.36 697.87 L 363.83 696.73 L 365.31 695.11 L 366.78 694.48 L 368.25 686.50 L 369.72 692.67 L 371.19 697.26 L 372.67 697.93 L 374.14 697.90 L 375.61 698.39 L 377.08 696.43 L 378.56 695.88 L 380.03 695.08 L 381.50 697.91 L 382.97 696.49 L 384.44 698.33 L 385.92 698.47 L 387.39 697.87 L 388.86 698.64 L 390.33 697.83 L 391.81 697.85 L 393.28 698.37 L 394.75 698.55 L 396.22 698.85 L 397.69 699.01 L 399.17 698.81 L 400.64 696.23 L 402.11 696.32 L 403.58 697.77 L 405.06 698.46 L 406.53 697.07 L 408.00 696.82 L 409.47 697.42 L 410.94 698.15 L 412.42 697.18 L 413.89 698.19 L 415.36 698.66 L 416.83 699.01 L 418.31 698.78 L 419.78 697.40 L 421.25 695.99 L 422.72 698.16 L 424.19 699.10 L 425.67 698.56 L 427.14 698.80 L 428.61 698.84 L 430.08 698.97 L 431.56 689.86 L 433.03 675.78 L 434.50 691.42 L 435.97 675.93 L 437.44 681.21 L 438.92 690.91 L 440.39 681.39 L 441.86 692.57 L 443.33 692.52 L 444.81 694.44 L 446.28 695.83 L 447.75 697.29 L 449.22 698.59 L 450.69 696.64 L 452.17 698.58 L 453.64 699.01 L 455.11 698.21 L 456.58 689.71 L 458.06 684.37 L 459.53 686.60 L 461.00 695.95 L 462.47 697.75 L 463.94 697.55 L 465.42 697.29 L 466.89 681.08 L 468.36 681.08 L 469.83 688.70 L 471.31 694.40 L 472.78 694.13 L 474.25 679.66 L 475.72 690.71 L 477.19 676.15 L 478.67 678.97 L 480.14 666.50 L 481.61 669.30 L 483.08 655.67 L 484.56 679.01 L 486.03 682.29 L 487.50 685.04 L 488.97 693.93 L 490.44 681.25 L 491.92 686.46 L 493.39 683.13 L 494.86 668.31 L 496.33 677.53 L 497.81 688.92 L 499.28 687.31 L 500.75 665.70 L 502.22 678.47 L 503.69 686.91 L 505.17 671.47 L 506.64 676.02 L 508.11 646.90 L 509.58 666.39 L 511.06 685.47 L 512.53 683.21 L 514.00 689.58 L 515.47 678.62 L 516.94 681.92 L 518.42 676.49 L 519.89 668.45 L 521.36 689.75 L 522.83 687.48 L 524.31 683.41 L 525.78 677.58 L 527.25 680.00 L 528.72 679.78 L 530.19 681.59 L 531.67 681.53 L 533.14 690.11 L 534.61 696.92 L 536.08 684.31 L 537.56 680.17 L 539.03 686.04 L 540.50 684.35 L 541.97 689.54 L 543.44 675.52 L 544.92 676.58 L 546.39 686.85 L 547.86 680.28 L 549.33 691.20 L 550.81 689.36 L 552.28 690.58 L 553.75 671.56 L 555.22 674.35 L 556.69 675.19 L 558.17 672.25 L 559.64 668.16 L 561.11 683.33 L 562.58 651.23 L 564.06 656.38 L 565.53 683.86 L 567.00 680.39 L 568.47 683.09 L 569.94 688.02 L 571.42 692.62 L 572.89 688.51 L 574.36 695.13 L 575.83 688.77 L 577.31 686.70 L 578.78 680.59 L 580.25 687.45 L 581.72 684.03 L 583.19 689.81 L 584.67 690.79 L 586.14 691.64 L 587.61 689.21 L 589.08 690.61 L 590.56 678.22 L 592.03 686.17 L 593.50 688.52 L 594.97 680.11 L 596.44 691.33 L 597.92 687.60 L 599.39 690.31 L 600.86 692.37 L 602.33 692.97 L 603.81 687.67 L 605.28 687.41 L 606.75 684.85 L 608.22 682.80 L 609.69 677.01 L 611.17 690.88 L 612.64 689.18 L 614.11 685.13 L 615.58 680.84 L 617.06 689.99 L 618.53 685.51 L 620.00 691.01 L 621.47 694.20 L 622.94 696.03 L 624.42 691.90 L 625.89 694.93 L 627.36 693.79 L 628.83 694.26 L 630.31 695.76 L 631.78 694.86 L 633.25 690.92 L 634.72 647.87 L 636.19 606.23 L 637.67 606.23 L 639.14 662.44 L 640.61 688.14 L 642.08 656.04 L 643.56 661.11 L 645.03 673.40 L 646.50 689.58 L 647.97 696.77 L 649.44 698.61 L 650.92 698.66 L 652.39 698.84 L 653.86 699.03 L 655.33 698.67 L 656.81 699.00 L 658.28 698.86 L 659.75 698.85 L 661.22 698.89 L 662.69 698.80 L 664.17 680.31 L 665.64 695.40 L 667.11 695.60 L 668.58 694.29 L 670.06 691.89 L 671.53 682.79 L 673.00 679.28 L 674.47 678.42 L 675.94 689.23 L 677.42 694.09 L 678.89 688.54 L 680.36 686.77 L 681.83 681.56 L 683.31 686.73 L 684.78 675.34 L 686.25 688.59 L 687.72 674.24 L 689.19 675.05 L 690.67 676.93 L 692.14 666.53 L 693.61 648.92 L 695.08 657.51 L 696.56 665.09 L 698.03 609.83 L 699.50 617.57 L 700.97 645.19 L 702.44 673.02 L 703.92 674.94 L 705.39 667.14 L 706.86 680.83 L 708.33 656.98 L 709.81 622.34 L 711.28 655.64 L 712.75 674.94 L 714.22 680.08 L 715.69 690.70 L 717.17 688.72 L 718.64 670.12 L 720.11 684.53 L 721.58 687.80 L 723.06 686.78 L 724.53 686.68 L 726.00 687.26 L 727.47 690.80 L 728.94 686.84 L 730.42 686.19 L 731.89 685.39" stroke="#FB8C00" />
<text x="90" y="711.25" font-size="14" font-weight="700">Giroscópio (magnitude) (u.a.)</text>
<rect class="event" x="443.33" y="717.25" width="23.56" height="192.75" />
<line class="eventline" x1="443.33" y1="717.25" x2="443.33" y2="910.00" />
<line class="eventline" x1="466.89" y1="717.25" x2="466.89" y2="910.00" />
<line class="grid" x1="90" y1="910.00" x2="1150" y2="910.00" />
<text class="small" x="80" y="914.00" text-anchor="end">0.00</text>
<line class="grid" x1="90" y1="871.45" x2="1150" y2="871.45" />
<text class="small" x="80" y="875.45" text-anchor="end">0.10</text>
<line class="grid" x1="90" y1="832.90" x2="1150" y2="832.90" />
<text class="small" x="80" y="836.90" text-anchor="end">0.20</text>
<line class="grid" x1="90" y1="794.35" x2="1150" y2="794.35" />
<text class="small" x="80" y="798.35" text-anchor="end">0.30</text>
<line class="grid" x1="90" y1="755.80" x2="1150" y2="755.80" />
<text class="small" x="80" y="759.80" text-anchor="end">0.40</text>
<line class="grid" x1="90" y1="717.25" x2="1150" y2="717.25" />
<text class="small" x="80" y="721.25" text-anchor="end">0.50</text>
<line class="grid" x1="90.00" y1="717.25" x2="90.00" y2="910.00" />
<line class="grid" x1="266.67" y1="717.25" x2="266.67" y2="910.00" />
<line class="grid" x1="443.33" y1="717.25" x2="443.33" y2="910.00" />
<line class="grid" x1="620.00" y1="717.25" x2="620.00" y2="910.00" />
<line class="grid" x1="796.67" y1="717.25" x2="796.67" y2="910.00" />
<line class="grid" x1="973.33" y1="717.25" x2="973.33" y2="910.00" />
<line class="grid" x1="1150.00" y1="717.25" x2="1150.00" y2="910.00" />
<line class="axis" x1="90" y1="717.25" x2="90" y2="910.00" />
<line class="axis" x1="90" y1="910.00" x2="1150" y2="910.00" />
<path class="series" d="M 178.33 903.38 L 179.81 901.81 L 181.28 904.22 L 182.75 898.81 L 184.22 902.74 L 185.69 903.93 L 187.17 900.27 L 188.64 901.42 L 190.11 900.49 L 191.58 903.31 L 193.06 899.40 L 194.53 901.52 L 196.00 900.50 L 197.47 899.15 L 198.94 892.78 L 200.42 893.16 L 201.89 895.47 L 203.36 891.62 L 204.83 893.96 L 206.31 897.93 L 207.78 894.09 L 209.25 897.31 L 210.72 896.90 L 212.19 889.95 L 213.67 899.12 L 215.14 894.04 L 216.61 883.34 L 218.08 885.67 L 219.56 884.59 L 221.03 888.57 L 222.50 893.92 L 223.97 884.72 L 225.44 880.67 L 226.92 867.95 L 228.39 882.40 L 229.86 886.43 L 231.33 884.64 L 232.81 885.55 L 234.28 883.03 L 235.75 886.90 L 237.22 887.65 L 238.69 887.27 L 240.17 888.01 L 241.64 886.18 L 243.11 886.70 L 244.58 884.74 L 246.06 887.11 L 247.53 888.19 L 249.00 890.39 L 250.47 886.66 L 251.94 887.79 L 253.42 881.74 L 254.89 883.57 L 256.36 886.06 L 257.83 901.98 L 259.31 900.99 L 260.78 902.20 L 262.25 895.65 L 263.72 897.56 L 265.19 893.05 L 266.67 892.08 L 268.14 896.72 L 269.61 892.07 L 271.08 888.92 L 272.56 882.55 L 274.03 879.90 L 275.50 870.23 L 276.97 866.54 L 278.44 890.88 L 279.92 890.62 L 281.39 868.87 L 282.86 855.32 L 284.33 831.32 L 285.81 819.29 L 287.28 813.92 L 288.75 818.50 L 290.22 823.62 L 291.69 848.60 L 293.17 885.96 L 294.64 901.61 L 296.11 906.31 L 297.58 908.78 L 299.06 908.78 L 300.53 904.45 L 302.00 901.45 L 303.47 897.87 L 304.94 897.08 L 306.42 893.58 L 307.89 887.04 L 309.36 880.80 L 310.83 878.40 L 312.31 871.13 L 313.78 868.84 L 315.25 868.04 L 316.72 871.00 L 318.19 865.68 L 319.67 862.56 L 321.14 867.87 L 322.61 874.35 L 324.08 861.13 L 325.56 865.44 L 327.03 869.28 L 328.50 873.68 L 329.97 868.08 L 331.44 866.56 L 332.92 866.54 L 334.39 861.90 L 335.86 876.02 L 337.33 876.71 L 338.81 882.18 L 340.28 894.93 L 341.75 905.10 L 343.22 895.41 L 344.69 883.19 L 346.17 880.93 L 347.64 898.53 L 349.11 906.53 L 350.58 905.88 L 352.06 900.31 L 353.53 907.32 L 355.00 899.66 L 356.47 908.60 L 357.94 908.97 L 359.42 907.12 L 360.89 909.05 L 362.36 909.26 L 363.83 907.82 L 365.31 907.77 L 366.78 909.09 L 368.25 906.37 L 369.72 907.08 L 371.19 908.73 L 372.67 908.94 L 374.14 908.85 L 375.61 909.24 L 377.08 908.68 L 378.56 908.93 L 380.03 908.64 L 381.50 908.74 L 382.97 909.22 L 384.44 909.40 L 385.92 909.15 L 387.39 909.05 L 388.86 909.13 L 390.33 909.08 L 391.81 909.08 L 393.28 908.94 L 394.75 909.21 L 396.22 909.15 L 397.69 909.13 L 399.17 909.10 L 400.64 909.09 L 402.11 909.11 L 403.58 909.03 L 405.06 908.97 L 406.53 909.08 L 408.00 909.11 L 409.47 909.06 L 410.94 909.08 L 412.42 909.11 L 413.89 909.15 L 415.36 909.14 L 416.83 909.12 L 418.31 909.10 L 419.78 909.07 L 421.25 909.00 L 422.72 909.12 L 424.19 909.12 L 425.67 909.01 L 427.14 909.01 L 428.61 909.06 L 430.08 909.04 L 431.56 906.05 L 433.03 905.94 L 434.50 902.15 L 435.97 905.06 L 437.44 904.96 L 438.92 908.20 L 440.39 905.47 L 441.86 906.68 L 443.33 908.87 L 444.81 907.33 L 446.28 909.31 L 447.75 908.84 L 449.22 908.53 L 450.69 909.23 L 452.17 909.09 L 453.64 908.92 L 455.11 908.75 L 456.58 907.98 L 458.06 901.31 L 459.53 907.38 L 461.00 908.21 L 462.47 908.86 L 463.94 908.98 L 465.42 909.14 L 466.89 907.52 L 468.36 907.52 L 469.83 908.67 L 471.31 906.33 L 472.78 907.37 L 474.25 904.96 L 475.72 901.04 L 477.19 882.74 L 478.67 868.67 L 480.14 847.85 L 481.61 832.10 L 483.08 848.00 L 484.56 898.21 L 486.03 895.45 L 487.50 888.75 L 488.97 893.05 L 490.44 897.11 L 491.92 895.59 L 493.39 875.37 L 494.86 869.58 L 496.33 867.22 L 497.81 869.40 L 499.28 858.01 L 500.75 862.40 L 502.22 865.71 L 503.69 870.85 L 505.17 892.14 L 506.64 907.53 L 508.11 870.61 L 509.58 858.20 L 511.06 861.50 L 512.53 861.99 L 514.00 865.71 L 515.47 863.85 L 516.94 861.49 L 518.42 861.01 L 519.89 881.53 L 521.36 902.01 L 522.83 886.30 L 524.31 876.88 L 525.78 870.08 L 527.25 867.97 L 528.72 884.78 L 530.19 886.98 L 531.67 865.17 L 533.14 852.36 L 534.61 867.47 L 536.08 886.74 L 537.56 891.27 L 539.03 885.13 L 540.50 884.66 L 541.97 887.84 L 543.44 891.58 L 544.92 896.58 L 546.39 905.53 L 547.86 889.19 L 549.33 889.32 L 550.81 892.50 L 552.28 896.86 L 553.75 903.15 L 555.22 898.18 L 556.69 899.23 L 558.17 902.27 L 559.64 896.76 L 561.11 897.05 L 562.58 899.40 L 564.06 900.08 L 565.53 895.50 L 567.00 894.53 L 568.47 889.26 L 569.94 900.80 L 571.42 905.90 L 572.89 902.75 L 574.36 899.02 L 575.83 896.26 L 577.31 896.09 L 578.78 891.95 L 580.25 893.81 L 581.72 901.79 L 583.19 904.71 L 584.67 904.70 L 586.14 899.85 L 587.61 901.65 L 589.08 906.93 L 590.56 899.10 L 592.03 900.64 L 593.50 898.82 L 594.97 904.38 L 596.44 902.54 L 597.92 899.35 L 599.39 899.69 L 600.86 899.39 L 602.33 904.23 L 603.81 903.56 L 605.28 902.98 L 606.75 905.72 L 608.22 896.65 L 609.69 898.40 L 611.17 896.24 L 612.64 894.00 L 614.11 897.60 L 615.58 900.05 L 617.06 902.01 L 618.53 899.02 L 620.00 898.19 L 621.47 898.37 L 622.94 899.52 L 624.42 902.63 L 625.89 904.95 L 627.36 904.11 L 628.83 903.87 L 630.31 904.18 L 631.78 901.49 L 633.25 902.34 L 634.72 892.04 L 636.19 893.28 L 637.67 893.28 L 639.14 903.99 L 640.61 907.35 L 642.08 907.12 L 643.56 908.86 L 645.03 909.04 L 646.50 909.10 L 647.97 909.13 L 649.44 909.12 L 650.92 909.08 L 652.39 909.08 L 653.86 909.02 L 655.33 909.06 L 656.81 909.05 L 658.28 908.94 L 659.75 909.04 L 661.22 908.96 L 662.69 908.93 L 664.17 905.80 L 665.64 906.38 L 667.11 907.45 L 668.58 902.08 L 670.06 898.08 L 671.53 892.31 L 673.00 890.09 L 674.47 904.05 L 675.94 897.54 L 677.42 896.34 L 678.89 889.11 L 680.36 888.94 L 681.83 886.08 L 683.31 885.41 L 684.78 884.54 L 686.25 879.68 L 687.72 872.38 L 689.19 857.70 L 690.67 864.18 L 692.14 837.10 L 693.61 815.58 L 695.08 812.74 L 696.56 817.40 L 698.03 892.15 L 699.50 838.77 L 700.97 816.88 L 702.44 823.54 L 703.92 825.18 L 705.39 817.44 L 706.86 819.88 L 708.33 869.09 L 709.81 865.99 L 711.28 842.50 L 712.75 853.61 L 714.22 865.41 L 715.69 870.05 L 717.17 879.87 L 718.64 889.81 L 720.11 900.55 L 721.58 901.40 L 723.06 902.13 L 724.53 900.80 L 726.00 904.06 L 727.47 904.70 L 728.94 900.60 L 730.42 903.38 L 731.89 904.53" stroke="#E53935" />
<text x="620.00" y="952" font-size="15" text-anchor="middle">minutos (relativo ao início do evento)</text>
<text class="small" x="90.00" y="936" text-anchor="middle">-4.00</text>
<text class="small" x="266.67" y="936" text-anchor="middle">-2.00</text>
<text class="small" x="443.33" y="936" text-anchor="middle">0.00</text>
<text class="small" x="620.00" y="936" text-anchor="middle">2.00</text>
<text class="small" x="796.67" y="936" text-anchor="middle">4.00</text>
<text class="small" x="973.33" y="936" text-anchor="middle">6.00</text>
<text class="small" x="1150.00" y="936" text-anchor="middle">8.00</text>
</svg>