<?xml version="1.0" encoding="UTF-8"?>
<svg xmlns="http://www.w3.org/2000/svg" width="1180" height="980" viewBox="0 0 1180 980">
<style>
text { font-family: -apple-system, BlinkMacSystemFont, 'Segoe UI', Roboto, Helvetica, Arial, sans-serif; fill: #111; }
.small { font-size: 12px; fill: #222; }
.title { font-size: 18px; font-weight: 700; }
.axis { stroke: #111; stroke-width: 1.4; }
.grid { stroke: #E6E6E6; stroke-width: 1; }
.event { fill: #FFEB3B; fill-opacity: 0.18; }
.eventline { stroke: #F9A825; stroke-width: 1.2; stroke-dasharray: 4 3; }
.series { fill: none; stroke-width: 1.8; }
</style>
<text class="title" x="90" y="34">ciclo 10 — espera_carregamento — 2025-12-12T21:16:27-03:00 → 2025-12-12T21:18:58-03:00 (span 151s, dur 152s)</text>
<text class="small" x="90" y="54">GPS: -11.699030,-47.157177  hotspot: -11.699,-47.157</text>
<text class="small" x="90" y="70">Janela: -3.00 → 5.52 min (relativo ao início do evento)</text>
<text x="90" y="79.00" font-size="14" font-weight="700">Velocidade (km/h)</text>
<rect class="event" x="443.33" y="85.00" width="222.31" height="192.75" />
<line class="eventline" x1="443.33" y1="85.00" x2="443.33" y2="277.75" />
<line class="eventline" x1="665.64" y1="85.00" x2="665.64" y2="277.75" />
<line class="grid" x1="90" y1="277.75" x2="1150" y2="277.75" />
<text class="small" x="80" y="281.75" text-anchor="end">0.00</text>
<line class="grid" x1="90" y1="239.20" x2="1150" y2="239.20" />
<text class="small" x="80" y="243.20" text-anchor="end">10.0</text>
<line class="grid" x1="90" y1="200.65" x2="1150" y2="200.65" />
<text class="small" x="80" y="204.65" text-anchor="end">20.0</text>
<line class="grid" x1="90" y1="162.10" x2="1150" y2="162.10" />
<text class="small" x="80" y="166.10" text-anchor="end">30.0</text>
<line class="grid" x1="90" y1="123.55" x2="1150" y2="123.55" />
<text class="small" x="80" y="127.55" text-anchor="end">40.0</text>
<line class="grid" x1="90" y1="85.00" x2="1150" y2="85.00" />
<text class="small" x="80" y="89.00" text-anchor="end">50.0</text>
<line class="grid" x1="90.00" y1="85.00" x2="90.00" y2="277.75" />
<line class="grid" x1="266.67" y1="85.00" x2="266.67" y2="277.75" />
<line class="grid" x1="443.33" y1="85.00" x2="443.33" y2="277.75" />
<line class="grid" x1="620.00" y1="85.00" x2="620.00" y2="277.75" />
<line class="grid" x1="796.67" y1="85.00" x2="796.67" y2="277.75" />
<line class="grid" x1="973.33" y1="85.00" x2="973.33" y2="277.75" />
<line class="grid" x1="1150.00" y1="85.00" x2="1150.00" y2="277.75" />
<line class="axis" x1="90" y1="85.00" x2="90" y2="277.75" />
<line class="axis" x1="90" y1="277.75" x2="1150" y2="277.75" />
<path class="series" d="M 178.33 170.33 L 179.81 178.24 L 181.28 182.41 L 182.75 195.59 L 184.22 207.80 L 185.69 222.65 L 187.17 232.92 L 188.64 238.75 L 190.11 235.42 L 191.58 231.12 L 193.06 228.90 L 194.53 230.15 L 196.00 236.25 L 197.47 238.20 L 198.94 243.47 L 200.42 251.24 L 201.89 259.57 L 203.36 256.66 L 204.83 249.30 L 206.31 244.03 L 207.78 243.89 L 209.25 244.44 L 210.72 243.47 L 212.19 242.92 L 213.67 245.14 L 215.14 247.77 L 216.61 244.58 L 218.08 242.22 L 219.56 241.67 L 221.03 241.94 L 222.50 239.03 L 223.97 241.94 L 225.44 236.12 L 226.92 236.81 L 228.39 234.87 L 229.86 227.10 L 231.33 219.60 L 232.81 213.49 L 234.28 209.19 L 235.75 201.14 L 237.22 191.85 L 238.69 185.46 L 240.17 176.30 L 241.64 167.70 L 243.11 164.37 L 244.58 160.48 L 246.06 159.79 L 247.53 165.62 L 249.00 172.83 L 250.47 177.41 L 251.94 179.22 L 253.42 179.63 L 254.89 182.13 L 256.36 181.71 L 257.83 182.96 L 259.31 186.29 L 260.78 185.88 L 262.25 190.73 L 263.72 187.68 L 265.19 186.02 L 266.67 196.70 L 268.14 197.67 L 269.61 194.90 L 271.08 190.46 L 272.56 188.24 L 274.03 182.69 L 275.50 182.55 L 276.97 186.57 L 278.44 177.55 L 279.92 181.30 L 281.39 181.30 L 282.86 220.71 L 284.33 232.92 L 285.81 234.59 L 287.28 231.54 L 288.75 226.40 L 290.22 222.93 L 291.69 213.77 L 293.17 209.61 L 294.64 207.80 L 296.11 212.80 L 297.58 216.27 L 299.06 218.49 L 300.53 221.27 L 302.00 219.46 L 303.47 212.25 L 304.94 195.73 L 306.42 203.36 L 307.89 205.03 L 309.36 197.40 L 310.83 199.34 L 312.31 196.56 L 313.78 194.90 L 315.25 190.04 L 316.72 189.62 L 318.19 189.62 L 319.67 193.79 L 321.14 198.92 L 322.61 194.48 L 324.08 192.68 L 325.56 197.95 L 327.03 197.95 L 328.50 203.64 L 329.97 207.53 L 331.44 212.94 L 332.92 205.86 L 334.39 206.97 L 335.86 217.52 L 337.33 219.18 L 338.81 224.87 L 340.28 225.85 L 341.75 230.70 L 343.22 226.96 L 344.69 228.90 L 346.17 225.43 L 347.64 231.12 L 349.11 231.54 L 350.58 234.17 L 352.06 240.97 L 353.53 245.14 L 355.00 251.24 L 356.47 254.99 L 357.94 259.01 L 359.42 259.85 L 360.89 265.54 L 362.36 266.65 L 363.83 264.70 L 365.31 259.71 L 366.78 257.49 L 368.25 257.90 L 369.72 260.96 L 371.19 262.07 L 372.67 263.32 L 374.14 266.51 L 375.61 268.17 L 377.08 264.98 L 378.56 268.73 L 380.03 269.98 L 381.50 277.75 L 382.97 269.98 L 384.44 266.65 L 385.92 267.06 L 387.39 266.79 L 388.86 270.12 L 390.33 269.28 L 391.81 266.65 L 393.28 264.43 L 394.75 263.32 L 396.22 262.90 L 397.69 257.21 L 399.17 253.88 L 400.64 246.94 L 402.11 245.28 L 403.58 244.30 L 405.06 249.16 L 406.53 245.28 L 408.00 253.74 L 409.47 254.99 L 410.94 254.71 L 412.42 255.55 L 413.89 252.49 L 415.36 254.57 L 416.83 253.88 L 418.31 260.40 L 419.78 262.48 L 421.25 255.82 L 422.72 258.04 L 424.19 266.23 L 425.67 258.04 L 427.14 257.07 L 428.61 254.85 L 430.08 248.33 L 431.56 253.60 L 433.03 256.38 L 434.50 261.10 L 435.97 262.62 L 437.44 267.34 L 438.92 266.93 L 440.39 268.31 L 441.86 270.67 L 443.33 277.75 L 444.81 277.75 L 446.28 277.75 L 447.75 277.75 L 449.22 277.75 L 450.69 277.75 L 452.17 277.75 L 453.64 277.75 L 455.11 277.75 L 456.58 277.75 L 458.06 277.75 L 459.53 277.75 L 461.00 277.75 L 462.47 277.75 L 463.94 277.75 L 465.42 277.75 L 466.89 277.75 L 468.36 277.75 L 469.83 277.75 L 471.31 277.75 L 472.78 277.75 L 474.25 277.75 L 475.72 277.75 L 477.19 277.75 L 478.67 277.75 L 480.14 277.75 L 481.61 277.75 L 483.08 277.75 L 484.56 277.75 L 486.03 277.75 L 487.50 277.75 L 488.97 277.75 L 490.44 277.75 L 491.92 277.75 L 493.39 277.75 L 494.86 277.75 L 496.33 277.75 L 497.81 277.75 L 499.28 277.75 L 500.75 277.75 L 502.22 277.75 L 503.69 277.75 L 505.17 277.75 L 506.64 277.75 L 508.11 277.75 L 509.58 277.75 L 511.06 277.75 L 512.53 277.75 L 514.00 277.75 L 515.47 277.75 L 516.94 277.75 L 518.42 277.75 L 519.89 277.75 L 521.36 277.75 L 522.83 277.75 L 524.31 277.75 L 525.78 277.75 L 527.25 277.75 L 528.72 277.75 L 530.19 277.75 L 531.67 277.75 L 533.14 277.75 L 534.61 277.75 L 536.08 277.75 L 537.56 277.75 L 539.03 277.75 L 540.50 277.75 L 541.97 277.75 L 543.44 277.75 L 544.92 277.75 L 546.39 277.75 L 547.86 277.75 L 549.33 277.75 L 550.81 277.75 L 552.28 277.75 L 553.75 277.75 L 555.22 277.75 L 556.69 277.75 L 558.17 277.75 L 559.64 277.75 L 561.11 277.75 L 562.58 277.75 L 564.06 277.75 L 565.53 277.75 L 567.00 277.75 L 568.47 277.75 L 569.94 277.75 L 571.42 277.75 L 572.89 277.75 L 574.36 277.75 L 575.83 277.75 L 577.31 277.75 L 578.78 277.75 L 580.25 277.75 L 581.72 277.75 L 583.19 277.75 L 584.67 277.75 L 586.14 277.75 L 587.61 277.75 L 589.08 277.75 L 590.56 277.75 L 592.03 277.75 L 593.50 277.75 L 594.97 277.75 L 596.44 277.75 L 597.92 277.75 L 599.39 277.75 L 600.86 277.75 L 602.33 277.75 L 603.81 277.75 L 605.28 277.75 L 606.75 277.75 L 608.22 277.75 L 609.69 277.75 L 611.17 277.75 L 612.64 277.75 L 614.11 277.75 L 615.58 277.75 L 617.06 277.75 L 618.53 277.75 L 620.00 277.75 L 621.47 277.75 L 622.94 277.75 L 624.42 277.75 L 625.89 277.75 L 627.36 277.75 L 628.83 277.75 L 630.31 277.75 L 631.78 277.75 L 633.25 277.75 L 634.72 277.75 L 636.19 277.75 L 637.67 277.75 L 639.14 277.75 L 640.61 277.75 L 642.08 277.75 L 643.56 277.75 L 645.03 277.75 L 646.50 277.75 L 647.97 277.75 L 649.44 277.75 L 650.92 277.75 L 652.39 277.75 L 653.86 277.75 L 655.33 277.75 L 656.81 277.75 L 658.28 277.75 L 659.75 277.75 L 661.22 277.75 L 662.69 277.75 L 664.17 277.75 L 665.64 277.75 L 667.11 271.92 L 668.58 271.09 L 670.06 270.95 L 671.53 263.18 L 673.00 263.46 L 674.47 264.29 L 675.94 263.32 L 677.42 261.65 L 678.89 261.51 L 680.36 262.90 L 681.83 264.15 L 683.31 263.32 L 684.78 263.04 L 686.25 264.29 L 687.72 264.01 L 689.19 267.62 L 690.67 264.43 L 692.14 265.26 L 693.61 268.31 L 695.08 267.76 L 696.56 271.50 L 698.03 277.75 L 699.50 277.75 L 700.97 277.75 L 702.44 277.75 L 703.92 277.75 L 705.39 277.75 L 706.86 277.75 L 708.33 277.75 L 709.81 277.75 L 711.28 277.75 L 712.75 277.75 L 714.22 255.96 L 715.69 260.26 L 717.17 265.26 L 718.64 267.06 L 720.11 270.26 L 721.58 269.70 L 723.06 266.65 L 724.53 269.15 L 726.00 277.75 L 727.47 277.75 L 728.94 277.75 L 730.42 277.75 L 731.89 277.75 L 733.36 277.75 L 734.83 277.75 L 736.31 277.75 L 737.78 277.75 L 739.25 277.75 L 740.72 277.75 L 742.19 277.75 L 743.67 277.75 L 745.14 277.75 L 746.61 277.75 L 748.08 277.75 L 749.56 277.75 L 751.03 277.75 L 752.50 277.75 L 753.97 277.75 L 755.44 277.75 L 756.92 277.75 L 758.39 277.75 L 759.86 277.75 L 761.33 277.75 L 762.81 277.75 L 764.28 277.75 L 765.75 277.75 L 767.22 277.75 L 768.69 277.75 L 770.17 277.75 L 771.64 277.75 L 773.11 277.75 L 774.58 277.75 L 776.06 277.75 L 777.53 277.75 L 779.00 277.75 L 780.47 277.75 L 781.94 277.75 L 783.42 277.75 L 784.89 277.75 L 786.36 277.75 L 787.83 277.75 L 789.31 277.75 L 790.78 277.75 L 792.25 277.75 L 793.72 277.75 L 795.19 277.75 L 796.67 277.75 L 798.14 277.75 L 799.61 277.75 L 801.08 277.75 L 802.56 277.75 L 804.03 277.75 L 805.50 277.75 L 806.97 277.75 L 808.44 277.75 L 809.92 277.75 L 811.39 277.75 L 812.86 277.75 L 814.33 277.75 L 815.81 277.75 L 817.28 277.75 L 818.75 277.75 L 820.22 277.75 L 821.69 277.75 L 823.17 277.75 L 824.64 277.75 L 826.11 277.75 L 827.58 277.75 L 829.06 277.75 L 830.53 277.75 L 832.00 277.75 L 833.47 277.75 L 834.94 277.75 L 836.42 277.75 L 837.89 277.75 L 839.36 277.75 L 840.83 277.75 L 842.31 277.75 L 843.78 277.75 L 845.25 277.75 L 846.72 277.75 L 848.19 277.75 L 849.67 277.75 L 851.14 277.75 L 852.61 277.75 L 854.08 277.75 L 855.56 277.75 L 857.03 277.75 L 858.50 277.75 L 859.97 277.75 L 861.44 277.75 L 862.92 277.75 L 864.39 277.75 L 865.86 277.75 L 867.33 277.75 L 868.81 277.75 L 870.28 277.75 L 871.75 277.75 L 873.22 277.75 L 874.69 277.75 L 876.17 277.75 L 877.64 277.75 L 879.11 277.75 L 880.58 277.75 L 882.06 277.75 L 883.53 277.75 L 885.00 277.75 L 886.47 277.75 L 887.94 277.75 L 889.42 277.75 L 890.89 277.75 L 892.36 277.75 L 893.83 277.75 L 895.31 277.75 L 896.78 277.75 L 898.25 277.75 L 899.72 277.75 L 901.19 277.75 L 902.67 277.75 L 904.14 277.75 L 905.61 277.75 L 907.08 277.75 L 908.56 277.75 L 910.03 277.75 L 911.50 277.75 L 912.97 277.75 L 914.44 277.75 L 915.92 277.75 L 917.39 277.75 L 918.86 277.75 L 920.33 277.75 L 921.81 277.75 L 923.28 277.75 L 924.75 277.75 L 926.22 277.75 L 927.69 277.75 L 929.17 277.75 L 930.64 277.75" stroke="#1976D2" />
<text x="90" y="289.75" font-size="14" font-weight="700">Inclinação (graus)</text>
<rect class="event" x="443.33" y="295.75" width="222.31" height="192.75" />
<line class="eventline" x1="443.33" y1="295.75" x2="443.33" y2="488.50" />
<line class="eventline" x1="665.64" y1="295.75" x2="665.64" y2="488.50" />
<line class="grid" x1="90" y1="488.50" x2="1150" y2="488.50" />
<text class="small" x="80" y="492.50" text-anchor="end">-10.0</text>
<line class="grid" x1="90" y1="449.95" x2="1150" y2="449.95" />
<text class="small" x="80" y="453.95" text-anchor="end">0.00</text>
<line class="grid" x1="90" y1="411.40" x2="1150" y2="411.40" />
<text class="small" x="80" y="415.40" text-anchor="end">10.0</text>
<line class="grid" x1="90" y1="372.85" x2="1150" y2="372.85" />
<text class="small" x="80" y="376.85" text-anchor="end">20.0</text>
<line class="grid" x1="90" y1="334.30" x2="1150" y2="334.30" />
<text class="small" x="80" y="338.30" text-anchor="end">30.0</text>
<line class="grid" x1="90" y1="295.75" x2="1150" y2="295.75" />
<text class="small" x="80" y="299.75" text-anchor="end">40.0</text>
<line class="grid" x1="90.00" y1="295.75" x2="90.00" y2="488.50" />
<line class="grid" x1="266.67" y1="295.75" x2="266.67" y2="488.50" />
<line class="grid" x1="443.33" y1="295.75" x2="443.33" y2="488.50" />
<line class="grid" x1="620.00" y1="295.75" x2="620.00" y2="488.50" />
<line class="grid" x1="796.67" y1="295.75" x2="796.67" y2="488.50" />
<line class="grid" x1="973.33" y1="295.75" x2="973.33" y2="488.50" />
<line class="grid" x1="1150.00" y1="295.75" x2="1150.00" y2="488.50" />
<line class="axis" x1="90" y1="295.75" x2="90" y2="488.50" />
<line class="axis" x1="90" y1="488.50" x2="1150" y2="488.50" />
<path class="series" d="M 178.33 398.74 L 179.81 393.54 L 181.28 385.96 L 182.75 379.97 L 184.22 385.39 L 185.69 391.39 L 187.17 398.58 L 188.64 412.76 L 190.11 412.42 L 191.58 413.26 L 193.06 399.84 L 194.53 399.11 L 196.00 397.96 L 197.47 396.62 L 198.94 393.42 L 200.42 391.88 L 201.89 410.01 L 203.36 409.42 L 204.83 412.87 L 206.31 398.95 L 207.78 402.10 L 209.25 403.21 L 210.72 403.83 L 212.19 400.71 L 213.67 395.65 L 215.14 411.37 L 216.61 410.66 L 218.08 406.48 L 219.56 406.09 L 221.03 406.01 L 222.50 408.71 L 223.97 407.73 L 225.44 402.37 L 226.92 398.72 L 228.39 413.79 L 229.86 413.79 L 231.33 399.91 L 232.81 398.63 L 234.28 396.18 L 235.75 391.29 L 237.22 393.07 L 238.69 392.15 L 240.17 396.30 L 241.64 390.91 L 243.11 380.64 L 244.58 382.56 L 246.06 379.34 L 247.53 362.75 L 249.00 365.82 L 250.47 380.04 L 251.94 382.35 L 253.42 385.16 L 254.89 381.03 L 256.36 384.04 L 257.83 383.63 L 259.31 383.62 L 260.78 383.80 L 262.25 386.43 L 263.72 387.68 L 265.19 397.65 L 266.67 385.93 L 268.14 397.18 L 269.61 413.53 L 271.08 404.99 L 272.56 401.49 L 274.03 403.48 L 275.50 403.45 L 276.97 390.00 L 278.44 390.41 L 279.92 366.59 L 281.39 348.25 L 282.86 350.62 L 284.33 387.88 L 285.81 400.19 L 287.28 415.81 L 288.75 413.59 L 290.22 418.01 L 291.69 418.52 L 293.17 420.61 L 294.64 402.69 L 296.11 405.03 L 297.58 402.47 L 299.06 402.69 L 300.53 415.90 L 302.00 418.16 L 303.47 410.63 L 304.94 406.15 L 306.42 398.21 L 307.89 409.69 L 309.36 410.12 L 310.83 418.99 L 312.31 418.23 L 313.78 416.45 L 315.25 405.60 L 316.72 412.89 L 318.19 399.47 L 319.67 398.99 L 321.14 398.62 L 322.61 406.39 L 324.08 394.06 L 325.56 397.17 L 327.03 399.27 L 328.50 398.26 L 329.97 395.68 L 331.44 399.07 L 332.92 395.98 L 334.39 394.81 L 335.86 398.03 L 337.33 398.75 L 338.81 393.76 L 340.28 395.35 L 341.75 393.37 L 343.22 404.07 L 344.69 417.57 L 346.17 402.78 L 347.64 394.01 L 349.11 396.33 L 350.58 396.74 L 352.06 401.90 L 353.53 391.29 L 355.00 401.95 L 356.47 395.43 L 357.94 403.00 L 359.42 402.09 L 360.89 400.57 L 362.36 409.48 L 363.83 418.79 L 365.31 409.97 L 366.78 408.91 L 368.25 399.35 L 369.72 404.39 L 371.19 400.13 L 372.67 398.96 L 374.14 397.11 L 375.61 406.49 L 377.08 399.57 L 378.56 403.21 L 380.03 395.63 L 381.50 401.30 L 382.97 404.61 L 384.44 406.56 L 385.92 402.20 L 387.39 401.41 L 388.86 402.66 L 390.33 407.05 L 391.81 407.97 L 393.28 403.04 L 394.75 406.22 L 396.22 409.69 L 397.69 414.18 L 399.17 405.50 L 400.64 413.60 L 402.11 407.38 L 403.58 407.97 L 405.06 404.94 L 406.53 410.53 L 408.00 408.16 L 409.47 416.07 L 410.94 422.83 L 412.42 424.74 L 413.89 418.80 L 415.36 414.09 L 416.83 404.16 L 418.31 409.54 L 419.78 405.98 L 421.25 402.91 L 422.72 407.54 L 424.19 416.72 L 425.67 416.80 L 427.14 414.09 L 428.61 410.03 L 430.08 391.41 L 431.56 388.72 L 433.03 389.25 L 434.50 394.88 L 435.97 387.95 L 437.44 394.66 L 438.92 394.46 L 440.39 391.88 L 441.86 387.97 L 443.33 390.10 L 444.81 394.90 L 446.28 394.92 L 447.75 395.14 L 449.22 395.28 L 450.69 395.06 L 452.17 395.10 L 453.64 395.13 L 455.11 395.13 L 456.58 395.10 L 458.06 395.10 L 459.53 395.17 L 461.00 395.08 L 462.47 395.13 L 463.94 395.16 L 465.42 395.13 L 466.89 395.17 L 468.36 395.09 L 469.83 395.15 L 471.31 395.18 L 472.78 395.14 L 474.25 395.10 L 475.72 395.14 L 477.19 395.16 L 478.67 395.14 L 480.14 395.11 L 481.61 395.15 L 483.08 395.14 L 484.56 395.19 L 486.03 395.14 L 487.50 395.17 L 488.97 395.18 L 490.44 395.18 L 491.92 395.20 L 493.39 395.15 L 494.86 395.13 L 496.33 395.19 L 497.81 395.21 L 499.28 395.12 L 500.75 395.17 L 502.22 395.17 L 503.69 395.19 L 505.17 395.17 L 506.64 395.18 L 508.11 395.22 L 509.58 395.14 L 511.06 395.18 L 512.53 395.18 L 514.00 395.17 L 515.47 395.21 L 516.94 395.20 L 518.42 395.16 L 519.89 395.20 L 521.36 395.21 L 522.83 395.15 L 524.31 395.07 L 525.78 395.15 L 527.25 395.16 L 528.72 395.11 L 530.19 395.12 L 531.67 395.12 L 533.14 395.13 L 534.61 395.18 L 536.08 395.10 L 537.56 395.10 L 539.03 395.16 L 540.50 395.20 L 541.97 395.16 L 543.44 395.18 L 544.92 395.21 L 546.39 395.20 L 547.86 395.17 L 549.33 395.16 L 550.81 395.22 L 552.28 395.19 L 553.75 395.18 L 555.22 395.16 L 556.69 395.15 L 558.17 395.17 L 559.64 395.15 L 561.11 395.08 L 562.58 395.13 L 564.06 395.16 L 565.53 395.16 L 567.00 395.13 L 568.47 395.15 L 569.94 395.19 L 571.42 395.17 L 572.89 395.13 L 574.36 395.14 L 575.83 395.15 L 577.31 395.14 L 578.78 395.17 L 580.25 395.13 L 581.72 395.15 L 583.19 395.18 L 584.67 395.10 L 586.14 395.08 L 587.61 395.20 L 589.08 395.13 L 590.56 395.15 L 592.03 395.12 L 593.50 395.17 L 594.97 395.17 L 596.44 395.10 L 597.92 395.16 L 599.39 395.17 L 600.86 395.13 L 602.33 395.15 L 603.81 395.14 L 605.28 395.10 L 606.75 395.14 L 608.22 395.18 L 609.69 395.12 L 611.17 395.12 L 612.64 395.17 L 614.11 395.16 L 615.58 395.11 L 617.06 395.13 L 618.53 395.16 L 620.00 395.10 L 621.47 395.12 L 622.94 395.08 L 624.42 395.15 L 625.89 395.12 L 627.36 395.14 L 628.83 395.13 L 630.31 395.13 L 631.78 395.23 L 633.25 395.10 L 634.72 395.11 L 636.19 395.16 L 637.67 395.16 L 639.14 395.13 L 640.61 395.10 L 642.08 395.16 L 643.56 395.16 L 645.03 395.10 L 646.50 395.09 L 647.97 395.20 L 649.44 395.15 L 650.92 394.92 L 652.39 395.33 L 653.86 395.16 L 655.33 395.16 L 656.81 395.18 L 658.28 395.23 L 659.75 395.18 L 661.22 395.17 L 662.69 394.29 L 664.17 396.16 L 665.64 388.67 L 667.11 389.27 L 668.58 395.30 L 670.06 385.00 L 671.53 391.64 L 673.00 400.78 L 674.47 397.32 L 675.94 393.52 L 677.42 396.29 L 678.89 395.30 L 680.36 393.70 L 681.83 391.87 L 683.31 391.93 L 684.78 394.35 L 686.25 394.41 L 687.72 394.45 L 689.19 394.63 L 690.67 396.38 L 692.14 403.32 L 693.61 398.39 L 695.08 405.13 L 696.56 412.88 L 698.03 404.04 L 699.50 403.61 L 700.97 403.45 L 702.44 407.69 L 703.92 395.27 L 705.39 403.84 L 706.86 402.34 L 708.33 401.86 L 709.81 395.83 L 711.28 399.52 L 712.75 394.87 L 714.22 400.45 L 715.69 399.67 L 717.17 400.21 L 718.64 399.00 L 720.11 396.27 L 721.58 392.51 L 723.06 397.37 L 724.53 404.28 L 726.00 388.38 L 727.47 391.52 L 728.94 391.09 L 730.42 391.43 L 731.89 390.66 L 733.36 389.91 L 734.83 390.62 L 736.31 390.72 L 737.78 390.60 L 739.25 390.62 L 740.72 390.64 L 742.19 390.64 L 743.67 390.62 L 745.14 390.62 L 746.61 390.65 L 748.08 390.66 L 749.56 390.58 L 751.03 390.55 L 752.50 390.56 L 753.97 390.54 L 755.44 390.56 L 756.92 390.54 L 758.39 390.60 L 759.86 390.12 L 761.33 390.73 L 762.81 389.10 L 764.28 389.83 L 765.75 389.89 L 767.22 390.16 L 768.69 390.06 L 770.17 390.04 L 771.64 390.06 L 773.11 390.03 L 774.58 390.04 L 776.06 390.01 L 777.53 390.03 L 779.00 390.03 L 780.47 390.01 L 781.94 390.10 L 783.42 390.04 L 784.89 390.02 L 786.36 390.06 L 787.83 389.97 L 789.31 389.99 L 790.78 390.05 L 792.25 389.97 L 793.72 390.00 L 795.19 389.71 L 796.67 390.08 L 798.14 390.08 L 799.61 388.49 L 801.08 389.89 L 802.56 388.92 L 804.03 389.38 L 805.50 389.21 L 806.97 389.17 L 808.44 389.13 L 809.92 389.14 L 811.39 389.17 L 812.86 389.11 L 814.33 389.16 L 815.81 389.12 L 817.28 389.10 L 818.75 389.10 L 820.22 389.09 L 821.69 389.11 L 823.17 389.11 L 824.64 389.09 L 826.11 389.09 L 827.58 389.07 L 829.06 389.06 L 830.53 389.04 L 832.00 389.05 L 833.47 388.96 L 834.94 389.50 L 836.42 388.63 L 837.89 387.87 L 839.36 388.54 L 840.83 388.42 L 842.31 388.48 L 843.78 388.44 L 845.25 388.43 L 846.72 388.42 L 848.19 388.40 L 849.67 388.45 L 851.14 388.39 L 852.61 388.39 L 854.08 388.44 L 855.56 388.39 L 857.03 388.44 L 858.50 388.42 L 859.97 388.33 L 861.44 388.42 L 862.92 388.43 L 864.39 388.38 L 865.86 388.48 L 867.33 388.41 L 868.81 388.44 L 870.28 388.45 L 871.75 388.45 L 873.22 388.40 L 874.69 388.38 L 876.17 388.46 L 877.64 388.91 L 879.11 388.62 L 880.58 388.80 L 882.06 388.62 L 883.53 388.80 L 885.00 388.70 L 886.47 388.73 L 887.94 388.77 L 889.42 388.71 L 890.89 388.68 L 892.36 388.78 L 893.83 388.71 L 895.31 388.72 L 896.78 388.73 L 898.25 388.74 L 899.72 388.74 L 901.19 388.74 L 902.67 388.70 L 904.14 388.75 L 905.61 388.71 L 907.08 388.72 L 908.56 388.75 L 910.03 388.70 L 911.50 388.71 L 912.97 388.77 L 914.44 388.54 L 915.92 389.96 L 917.39 389.84 L 918.86 389.83 L 920.33 389.75 L 921.81 389.68 L 923.28 389.80 L 924.75 389.73 L 926.22 389.74 L 927.69 389.77 L 929.17 389.79 L 930.64 389.75" stroke="#2E7D32" />
<path class="series" d="M 178.33 443.57 L 179.81 428.23 L 181.28 430.22 L 182.75 431.11 L 184.22 433.99 L 185.69 432.48 L 187.17 432.99 L 188.64 431.38 L 190.11 432.91 L 191.58 432.30 L 193.06 434.75 L 194.53 435.27 L 196.00 435.14 L 197.47 434.15 L 198.94 438.99 L 200.42 437.82 L 201.89 438.62 L 203.36 433.02 L 204.83 430.69 L 206.31 432.47 L 207.78 431.98 L 209.25 431.03 L 210.72 433.16 L 212.19 434.77 L 213.67 442.29 L 215.14 441.86 L 216.61 437.33 L 218.08 434.63 L 219.56 429.02 L 221.03 435.24 L 222.50 432.86 L 223.97 443.53 L 225.44 437.48 L 226.92 450.50 L 228.39 450.42 L 229.86 450.42 L 231.33 449.77 L 232.81 442.94 L 234.28 436.98 L 235.75 436.82 L 237.22 435.83 L 238.69 438.63 L 240.17 435.93 L 241.64 434.28 L 243.11 430.45 L 244.58 430.53 L 246.06 432.54 L 247.53 439.87 L 249.00 435.92 L 250.47 423.21 L 251.94 426.91 L 253.42 433.85 L 254.89 440.43 L 256.36 435.99 L 257.83 434.04 L 259.31 427.73 L 260.78 434.04 L 262.25 426.31 L 263.72 432.83 L 265.19 428.52 L 266.67 431.36 L 268.14 435.81 L 269.61 433.87 L 271.08 446.40 L 272.56 420.17 L 274.03 402.84 L 275.50 413.23 L 276.97 421.68 L 278.44 427.80 L 279.92 442.39 L 281.39 445.04 L 282.86 455.09 L 284.33 448.56 L 285.81 441.14 L 287.28 445.31 L 288.75 443.61 L 290.22 435.93 L 291.69 442.89 L 293.17 444.74 L 294.64 451.70 L 296.11 427.14 L 297.58 431.01 L 299.06 429.92 L 300.53 442.67 L 302.00 452.78 L 303.47 443.19 L 304.94 433.63 L 306.42 447.65 L 307.89 441.14 L 309.36 452.39 L 310.83 443.62 L 312.31 455.89 L 313.78 456.53 L 315.25 455.33 L 316.72 444.40 L 318.19 451.62 L 319.67 445.39 L 321.14 442.21 L 322.61 440.41 L 324.08 439.95 L 325.56 436.38 L 327.03 429.79 L 328.50 442.03 L 329.97 443.95 L 331.44 436.61 L 332.92 436.45 L 334.39 449.43 L 335.86 452.96 L 337.33 449.60 L 338.81 448.12 L 340.28 446.36 L 341.75 438.96 L 343.22 437.51 L 344.69 434.90 L 346.17 444.68 L 347.64 450.15 L 349.11 454.69 L 350.58 449.73 L 352.06 459.97 L 353.53 451.29 L 355.00 451.60 L 356.47 450.96 L 357.94 450.63 L 359.42 454.72 L 360.89 450.68 L 362.36 452.63 L 363.83 454.30 L 365.31 458.71 L 366.78 456.18 L 368.25 462.26 L 369.72 459.58 L 371.19 455.49 L 372.67 455.09 L 374.14 453.31 L 375.61 454.28 L 377.08 452.53 L 378.56 452.97 L 380.03 452.08 L 381.50 453.31 L 382.97 453.62 L 384.44 453.54 L 385.92 453.10 L 387.39 454.43 L 388.86 455.71 L 390.33 454.77 L 391.81 455.62 L 393.28 458.80 L 394.75 458.04 L 396.22 456.56 L 397.69 450.67 L 399.17 456.39 L 400.64 451.06 L 402.11 448.71 L 403.58 445.74 L 405.06 453.30 L 406.53 445.39 L 408.00 446.52 L 409.47 458.07 L 410.94 466.76 L 412.42 464.17 L 413.89 454.91 L 415.36 458.58 L 416.83 451.74 L 418.31 440.86 L 419.78 442.75 L 421.25 434.86 L 422.72 433.68 L 424.19 442.85 L 425.67 436.01 L 427.14 437.24 L 428.61 442.13 L 430.08 448.74 L 431.56 445.15 L 433.03 450.04 L 434.50 448.69 L 435.97 447.85 L 437.44 449.37 L 438.92 452.40 L 440.39 451.69 L 441.86 447.97 L 443.33 447.95 L 444.81 449.97 L 446.28 449.42 L 447.75 450.04 L 449.22 450.12 L 450.69 449.82 L 452.17 450.28 L 453.64 449.76 L 455.11 450.04 L 456.58 450.17 L 458.06 449.92 L 459.53 450.05 L 461.00 450.09 L 462.47 449.96 L 463.94 450.05 L 465.42 450.05 L 466.89 450.00 L 468.36 450.07 L 469.83 450.04 L 471.31 450.06 L 472.78 450.02 L 474.25 450.03 L 475.72 450.10 L 477.19 450.03 L 478.67 450.06 L 480.14 450.02 L 481.61 450.09 L 483.08 450.03 L 484.56 450.05 L 486.03 450.15 L 487.50 450.10 L 488.97 450.05 L 490.44 450.16 L 491.92 450.07 L 493.39 450.12 L 494.86 450.09 L 496.33 450.07 L 497.81 450.06 L 499.28 450.07 L 500.75 450.11 L 502.22 450.07 L 503.69 450.07 L 505.17 450.10 L 506.64 450.06 L 508.11 450.06 L 509.58 450.09 L 511.06 450.10 L 512.53 450.10 L 514.00 450.09 L 515.47 450.08 L 516.94 450.09 L 518.42 450.07 L 519.89 450.09 L 521.36 450.08 L 522.83 450.03 L 524.31 450.11 L 525.78 450.07 L 527.25 450.05 L 528.72 450.07 L 530.19 450.00 L 531.67 450.09 L 533.14 450.03 L 534.61 450.03 L 536.08 450.04 L 537.56 450.04 L 539.03 450.10 L 540.50 450.05 L 541.97 450.12 L 543.44 450.12 L 544.92 450.05 L 546.39 450.11 L 547.86 450.06 L 549.33 450.10 L 550.81 450.05 L 552.28 450.07 L 553.75 450.10 L 555.22 450.08 L 556.69 450.03 L 558.17 450.09 L 559.64 450.00 L 561.11 450.15 L 562.58 450.07 L 564.06 450.05 L 565.53 450.11 L 567.00 450.08 L 568.47 450.13 L 569.94 450.04 L 571.42 450.06 L 572.89 450.12 L 574.36 450.10 L 575.83 450.07 L 577.31 450.06 L 578.78 450.08 L 580.25 450.05 L 581.72 450.09 L 583.19 450.10 L 584.67 450.04 L 586.14 450.13 L 587.61 450.09 L 589.08 450.09 L 590.56 450.10 L 592.03 450.10 L 593.50 450.09 L 594.97 450.10 L 596.44 450.10 L 597.92 450.10 L 599.39 450.08 L 600.86 450.09 L 602.33 450.09 L 603.81 450.08 L 605.28 450.10 L 606.75 450.08 L 608.22 450.08 L 609.69 450.07 L 611.17 450.14 L 612.64 450.08 L 614.11 450.10 L 615.58 450.11 L 617.06 450.11 L 618.53 450.08 L 620.00 450.10 L 621.47 450.06 L 622.94 450.14 L 624.42 450.11 L 625.89 450.09 L 627.36 450.11 L 628.83 450.12 L 630.31 450.15 L 631.78 450.03 L 633.25 450.10 L 634.72 450.15 L 636.19 450.10 L 637.67 450.09 L 639.14 450.06 L 640.61 450.17 L 642.08 450.07 L 643.56 450.08 L 645.03 450.07 L 646.50 450.07 L 647.97 450.12 L 649.44 450.05 L 650.92 450.45 L 652.39 449.74 L 653.86 450.25 L 655.33 449.98 L 656.81 450.10 L 658.28 450.20 L 659.75 450.05 L 661.22 450.18 L 662.69 449.88 L 664.17 450.81 L 665.64 446.76 L 667.11 450.11 L 668.58 453.58 L 670.06 450.43 L 671.53 456.46 L 673.00 454.53 L 674.47 453.17 L 675.94 453.38 L 677.42 453.11 L 678.89 445.80 L 680.36 449.31 L 681.83 447.15 L 683.31 455.05 L 684.78 458.84 L 686.25 451.50 L 687.72 437.51 L 689.19 454.55 L 690.67 441.72 L 692.14 446.03 L 693.61 443.33 L 695.08 437.65 L 696.56 430.82 L 698.03 445.01 L 699.50 440.09 L 700.97 445.09 L 702.44 437.49 L 703.92 441.32 L 705.39 444.50 L 706.86 440.20 L 708.33 441.14 L 709.81 440.88 L 711.28 448.86 L 712.75 445.70 L 714.22 435.73 L 715.69 428.21 L 717.17 429.07 L 718.64 434.69 L 720.11 433.95 L 721.58 439.32 L 723.06 443.75 L 724.53 439.03 L 726.00 448.66 L 727.47 446.10 L 728.94 446.44 L 730.42 449.30 L 731.89 446.13 L 733.36 447.32 L 734.83 447.25 L 736.31 447.17 L 737.78 447.22 L 739.25 447.31 L 740.72 447.25 L 742.19 447.27 L 743.67 447.32 L 745.14 447.33 L 746.61 447.35 L 748.08 447.34 L 749.56 447.33 L 751.03 447.37 L 752.50 447.36 L 753.97 447.27 L 755.44 447.34 L 756.92 447.29 L 758.39 447.42 L 759.86 445.93 L 761.33 449.11 L 762.81 446.77 L 764.28 446.86 L 765.75 447.36 L 767.22 447.90 L 768.69 447.58 L 770.17 447.43 L 771.64 447.68 L 773.11 447.61 L 774.58 447.53 L 776.06 447.68 L 777.53 447.59 L 779.00 447.53 L 780.47 447.63 L 781.94 447.63 L 783.42 447.53 L 784.89 447.67 L 786.36 447.64 L 787.83 447.64 L 789.31 447.66 L 790.78 447.61 L 792.25 447.59 L 793.72 447.76 L 795.19 447.57 L 796.67 447.35 L 798.14 447.35 L 799.61 445.64 L 801.08 445.77 L 802.56 446.31 L 804.03 446.49 L 805.50 446.50 L 806.97 446.29 L 808.44 446.04 L 809.92 445.99 L 811.39 446.20 L 812.86 446.32 L 814.33 446.29 L 815.81 446.12 L 817.28 446.03 L 818.75 446.13 L 820.22 446.20 L 821.69 446.23 L 823.17 446.20 L 824.64 446.15 L 826.11 446.20 L 827.58 446.23 L 829.06 446.14 L 830.53 446.16 L 832.00 446.13 L 833.47 445.71 L 834.94 446.67 L 836.42 444.45 L 837.89 446.21 L 839.36 445.26 L 840.83 445.25 L 842.31 445.30 L 843.78 445.31 L 845.25 445.34 L 846.72 445.28 L 848.19 445.24 L 849.67 445.33 L 851.14 445.31 L 852.61 445.34 L 854.08 445.37 L 855.56 445.31 L 857.03 445.40 L 858.50 445.45 L 859.97 445.32 L 861.44 445.33 L 862.92 445.38 L 864.39 445.39 L 865.86 445.39 L 867.33 445.28 L 868.81 445.37 L 870.28 445.43 L 871.75 445.34 L 873.22 445.35 L 874.69 445.72 L 876.17 443.36 L 877.64 445.93 L 879.11 445.03 L 880.58 444.77 L 882.06 445.02 L 883.53 445.02 L 885.00 445.00 L 886.47 444.97 L 887.94 444.97 L 889.42 444.98 L 890.89 444.89 L 892.36 445.02 L 893.83 444.98 L 895.31 444.98 L 896.78 444.97 L 898.25 444.93 L 899.72 444.96 L 901.19 445.01 L 902.67 445.01 L 904.14 444.96 L 905.61 445.00 L 907.08 444.90 L 908.56 445.00 L 910.03 444.93 L 911.50 444.89 L 912.97 444.85 L 914.44 444.46 L 915.92 444.78 L 917.39 445.59 L 918.86 445.60 L 920.33 445.71 L 921.81 445.38 L 923.28 445.43 L 924.75 445.51 L 926.22 445.47 L 927.69 445.45 L 929.17 445.44 L 930.64 445.48" stroke="#6A1B9A" />
<line x1="900.00" y1="307.75" x2="918.00" y2="307.75" stroke="#2E7D32" stroke-width="3" />
<text class="small" x="924.00" y="311.75">pitch</text>
<line x1="900.00" y1="323.75" x2="918.00" y2="323.75" stroke="#6A1B9A" stroke-width="3" />
<text class="small" x="924.00" y="327.75">roll</text>
<text x="90" y="500.50" font-size="14" font-weight="700">Aceleração (magnitude) (u.a.)</text>
<rect class="event" x="443.33" y="506.50" width="222.31" height="192.75" />
<line class="eventline" x1="443.33" y1="506.50" x2="443.33" y2="699.25" />
<line class="eventline" x1="665.64" y1="506.50" x2="665.64" y2="699.25" />
<line class="grid" x1="90" y1="699.25" x2="1150" y2="699.25" />
<text class="small" x="80" y="703.25" text-anchor="end">0.00</text>
<line class="grid" x1="90" y1="660.70" x2="1150" y2="660.70" />
<text class="small" x="80" y="664.70" text-anchor="end">0.50</text>
<line class="grid" x1="90" y1="622.15" x2="1150" y2="622.15" />
<text class="small" x="80" y="626.15" text-anchor="end">1.00</text>
<line class="grid" x1="90" y1="583.60" x2="1150" y2="583.60" />
<text class="small" x="80" y="587.60" text-anchor="end">1.50</text>
<line class="grid" x1="90" y1="545.05" x2="1150" y2="545.05" />
<text class="small" x="80" y="549.05" text-anchor="end">2.00</text>
<line class="grid" x1="90" y1="506.50" x2="1150" y2="506.50" />
<text class="small" x="80" y="510.50" text-anchor="end">2.50</text>
<line class="grid" x1="90.00" y1="506.50" x2="90.00" y2="699.25" />
<line class="grid" x1="266.67" y1="506.50" x2="266.67" y2="699.25" />
<line class="grid" x1="443.33" y1="506.50" x2="443.33" y2="699.25" />
<line class="grid" x1="620.00" y1="506.50" x2="620.00" y2="699.25" />
<line class="grid" x1="796.67" y1="506.50" x2="796.67" y2="699.25" />
<line class="grid" x1="973.33" y1="506.50" x2="973.33" y2="699.25" />
<line class="grid" x1="1150.00" y1="506.50" x2="1150.00" y2="699.25" />
<line class="axis" x1="90" y1="506.50" x2="90" y2="699.25" />
<line class="axis" x1="90" y1="699.25" x2="1150" y2="699.25" />
<path class="series" d="M 178.33 658.90 L 179.81 662.41 L 181.28 661.33 L 182.75 644.34 L 184.22 678.56 L 185.69 688.62 L 187.17 660.24 L 188.64 652.32 L 190.11 651.68 L 191.58 651.68 L 193.06 666.01 L 194.53 685.82 L 196.00 692.32 L 197.47 680.50 L 198.94 681.47 L 200.42 690.84 L 201.89 671.52 L 203.36 625.14 L 204.83 651.13 L 206.31 664.42 L 207.78 681.76 L 209.25 686.47 L 210.72 694.81 L 212.19 692.72 L 213.67 684.56 L 215.14 673.42 L 216.61 663.52 L 218.08 687.43 L 219.56 687.44 L 221.03 692.71 L 222.50 689.41 L 223.97 679.66 L 225.44 695.58 L 226.92 676.28 L 228.39 671.36 L 229.86 650.31 L 231.33 692.72 L 232.81 673.97 L 234.28 649.36 L 235.75 668.41 L 237.22 678.11 L 238.69 680.71 L 240.17 668.56 L 241.64 682.16 L 243.11 665.17 L 244.58 672.71 L 246.06 669.63 L 247.53 634.09 L 249.00 653.58 L 250.47 668.76 L 251.94 678.00 L 253.42 694.39 L 254.89 675.99 L 256.36 675.07 L 257.83 675.90 L 259.31 683.80 L 260.78 692.07 L 262.25 690.61 L 263.72 683.55 L 265.19 683.59 L 266.67 672.54 L 268.14 675.75 L 269.61 660.20 L 271.08 670.18 L 272.56 641.14 L 274.03 651.83 L 275.50 644.44 L 276.97 673.25 L 278.44 670.40 L 279.92 561.36 L 281.39 552.02 L 282.86 622.65 L 284.33 661.11 L 285.81 668.38 L 287.28 603.84 L 288.75 635.15 L 290.22 655.07 L 291.69 649.41 L 293.17 627.59 L 294.64 632.39 L 296.11 671.62 L 297.58 683.61 L 299.06 684.93 L 300.53 665.36 L 302.00 676.47 L 303.47 640.48 L 304.94 671.89 L 306.42 684.80 L 307.89 663.81 L 309.36 686.58 L 310.83 682.08 L 312.31 687.96 L 313.78 676.36 L 315.25 674.54 L 316.72 664.18 L 318.19 655.28 L 319.67 651.55 L 321.14 656.87 L 322.61 682.75 L 324.08 653.84 L 325.56 683.98 L 327.03 672.27 L 328.50 669.75 L 329.97 659.54 L 331.44 649.45 L 332.92 684.69 L 334.39 656.99 L 335.86 675.93 L 337.33 669.15 L 338.81 686.11 L 340.28 661.59 L 341.75 655.90 L 343.22 671.55 L 344.69 665.66 L 346.17 690.70 L 347.64 676.75 L 349.11 676.75 L 350.58 688.33 L 352.06 680.65 L 353.53 683.69 L 355.00 693.89 L 356.47 683.44 L 357.94 674.90 L 359.42 688.79 L 360.89 695.27 L 362.36 686.17 L 363.83 682.02 L 365.31 693.81 L 366.78 679.02 L 368.25 669.44 L 369.72 686.08 L 371.19 692.51 L 372.67 692.22 L 374.14 688.50 L 375.61 684.32 L 377.08 695.18 L 378.56 693.23 L 380.03 683.10 L 381.50 693.82 L 382.97 693.98 L 384.44 694.69 L 385.92 695.58 L 387.39 696.08 L 388.86 697.46 L 390.33 692.90 L 391.81 689.31 L 393.28 695.71 L 394.75 691.12 L 396.22 686.75 L 397.69 680.17 L 399.17 678.97 L 400.64 676.14 L 402.11 676.46 L 403.58 678.51 L 405.06 669.50 L 406.53 638.86 L 408.00 659.89 L 409.47 672.94 L 410.94 682.27 L 412.42 675.93 L 413.89 683.32 L 415.36 670.19 L 416.83 673.31 L 418.31 666.72 L 419.78 683.13 L 421.25 691.66 L 422.72 681.12 L 424.19 684.65 L 425.67 693.77 L 427.14 677.48 L 428.61 672.67 L 430.08 652.47 L 431.56 678.28 L 433.03 659.61 L 434.50 677.78 L 435.97 667.16 L 437.44 678.51 L 438.92 680.13 L 440.39 695.59 L 441.86 689.68 L 443.33 694.69 L 444.81 688.28 L 446.28 697.42 L 447.75 698.34 L 449.22 695.87 L 450.69 697.01 L 452.17 698.20 L 453.64 698.33 L 455.11 698.75 L 456.58 698.25 L 458.06 698.57 L 459.53 698.76 L 461.00 698.35 L 462.47 698.53 L 463.94 698.60 L 465.42 698.99 L 466.89 699.01 L 468.36 699.02 L 469.83 699.11 L 471.31 699.10 L 472.78 699.07 L 474.25 699.01 L 475.72 698.94 L 477.19 699.06 L 478.67 699.09 L 480.14 699.20 L 481.61 699.09 L 483.08 699.16 L 484.56 699.02 L 486.03 699.03 L 487.50 699.06 L 488.97 699.00 L 490.44 699.10 L 491.92 699.16 L 493.39 698.97 L 494.86 698.94 L 496.33 699.07 L 497.81 699.06 L 499.28 699.14 L 500.75 698.86 L 502.22 699.05 L 503.69 698.92 L 505.17 698.93 L 506.64 699.16 L 508.11 699.17 L 509.58 699.05 L 511.06 699.13 L 512.53 699.09 L 514.00 699.14 L 515.47 699.14 L 516.94 699.02 L 518.42 699.05 L 519.89 698.97 L 521.36 698.92 L 522.83 699.08 L 524.31 698.92 L 525.78 699.10 L 527.25 699.09 L 528.72 699.11 L 530.19 699.05 L 531.67 699.09 L 533.14 699.12 L 534.61 699.07 L 536.08 699.05 L 537.56 699.07 L 539.03 698.95 L 540.50 698.91 L 541.97 699.01 L 543.44 699.15 L 544.92 699.17 L 546.39 699.01 L 547.86 699.17 L 549.33 699.01 L 550.81 699.07 L 552.28 699.04 L 553.75 699.12 L 555.22 699.04 L 556.69 698.88 L 558.17 698.89 L 559.64 699.07 L 561.11 698.93 L 562.58 699.12 L 564.06 699.22 L 565.53 698.97 L 567.00 699.02 L 568.47 699.16 L 569.94 698.97 L 571.42 699.02 L 572.89 699.12 L 574.36 699.08 L 575.83 699.07 L 577.31 699.13 L 578.78 699.05 L 580.25 699.21 L 581.72 699.09 L 583.19 698.91 L 584.67 698.98 L 586.14 699.10 L 587.61 699.10 L 589.08 699.10 L 590.56 699.03 L 592.03 699.14 L 593.50 699.12 L 594.97 698.95 L 596.44 699.05 L 597.92 699.15 L 599.39 699.18 L 600.86 698.99 L 602.33 698.97 L 603.81 699.02 L 605.28 699.06 L 606.75 699.07 L 608.22 698.99 L 609.69 699.03 L 611.17 699.02 L 612.64 699.07 L 614.11 699.07 L 615.58 699.06 L 617.06 699.17 L 618.53 699.11 L 620.00 699.19 L 621.47 699.17 L 622.94 699.10 L 624.42 699.07 L 625.89 699.22 L 627.36 699.11 L 628.83 699.02 L 630.31 699.13 L 631.78 699.03 L 633.25 699.18 L 634.72 699.21 L 636.19 699.16 L 637.67 699.15 L 639.14 699.12 L 640.61 699.15 L 642.08 699.16 L 643.56 699.11 L 645.03 699.08 L 646.50 699.04 L 647.97 698.33 L 649.44 699.12 L 650.92 698.60 L 652.39 698.10 L 653.86 698.52 L 655.33 698.96 L 656.81 699.00 L 658.28 698.88 L 659.75 699.13 L 661.22 699.19 L 662.69 697.67 L 664.17 698.12 L 665.64 682.94 L 667.11 675.32 L 668.58 693.47 L 670.06 666.97 L 671.53 673.88 L 673.00 682.89 L 674.47 689.93 L 675.94 695.77 L 677.42 695.77 L 678.89 677.99 L 680.36 677.85 L 681.83 688.25 L 683.31 688.29 L 684.78 686.22 L 686.25 691.66 L 687.72 676.52 L 689.19 668.05 L 690.67 674.62 L 692.14 677.19 L 693.61 698.24 L 695.08 689.79 L 696.56 692.15 L 698.03 678.87 L 699.50 680.88 L 700.97 695.36 L 702.44 687.89 L 703.92 675.45 L 705.39 679.69 L 706.86 684.99 L 708.33 697.40 L 709.81 698.86 L 711.28 652.29 L 712.75 686.91 L 714.22 693.99 L 715.69 655.69 L 717.17 679.44 L 718.64 695.30 L 720.11 686.43 L 721.58 679.99 L 723.06 681.11 L 724.53 660.18 L 726.00 667.20 L 727.47 687.95 L 728.94 688.20 L 730.42 691.61 L 731.89 696.23 L 733.36 697.67 L 734.83 698.38 L 736.31 698.99 L 737.78 699.08 L 739.25 699.14 L 740.72 698.99 L 742.19 699.03 L 743.67 699.07 L 745.14 699.16 L 746.61 699.07 L 748.08 699.05 L 749.56 699.12 L 751.03 699.06 L 752.50 699.20 L 753.97 699.22 L 755.44 699.08 L 756.92 699.15 L 758.39 698.99 L 759.86 697.00 L 761.33 693.72 L 762.81 694.70 L 764.28 696.85 L 765.75 698.01 L 767.22 695.45 L 768.69 699.20 L 770.17 698.66 L 771.64 698.44 L 773.11 699.01 L 774.58 698.81 L 776.06 698.97 L 777.53 699.23 L 779.00 699.05 L 780.47 699.07 L 781.94 699.15 L 783.42 699.05 L 784.89 699.18 L 786.36 699.09 L 787.83 699.11 L 789.31 699.05 L 790.78 698.98 L 792.25 699.09 L 793.72 698.52 L 795.19 697.28 L 796.67 694.38 L 798.14 697.59 L 799.61 696.66 L 801.08 695.38 L 802.56 698.01 L 804.03 699.11 L 805.50 698.18 L 806.97 698.68 L 808.44 698.91 L 809.92 698.70 L 811.39 698.97 L 812.86 698.94 L 814.33 698.96 L 815.81 699.16 L 817.28 698.98 L 818.75 699.17 L 820.22 699.08 L 821.69 699.08 L 823.17 699.15 L 824.64 699.02 L 826.11 699.04 L 827.58 699.08 L 829.06 699.03 L 830.53 699.15 L 832.00 697.13 L 833.47 697.05 L 834.94 696.10 L 836.42 695.88 L 837.89 698.86 L 839.36 698.82 L 840.83 698.79 L 842.31 698.88 L 843.78 698.95 L 845.25 698.95 L 846.72 699.12 L 848.19 698.98 L 849.67 698.96 L 851.14 699.07 L 852.61 699.19 L 854.08 699.15 L 855.56 699.09 L 857.03 699.13 L 858.50 699.06 L 859.97 699.09 L 861.44 699.02 L 862.92 699.06 L 864.39 699.03 L 865.86 699.18 L 867.33 699.14 L 868.81 699.15 L 870.28 699.04 L 871.75 699.08 L 873.22 698.46 L 874.69 697.13 L 876.17 693.55 L 877.64 696.38 L 879.11 698.23 L 880.58 698.15 L 882.06 698.65 L 883.53 698.88 L 885.00 699.00 L 886.47 699.14 L 887.94 699.10 L 889.42 699.05 L 890.89 699.19 L 892.36 698.98 L 893.83 699.01 L 895.31 699.04 L 896.78 699.19 L 898.25 699.15 L 899.72 699.14 L 901.19 698.99 L 902.67 699.08 L 904.14 699.19 L 905.61 699.17 L 907.08 699.16 L 908.56 699.10 L 910.03 699.13 L 911.50 699.06 L 912.97 698.71 L 914.44 696.21 L 915.92 696.73 L 917.39 697.33 L 918.86 698.82 L 920.33 698.28 L 921.81 699.07 L 923.28 698.73 L 924.75 699.04 L 926.22 699.08 L 927.69 699.04 L 929.17 699.02 L 930.64 699.13" stroke="#FB8C00" />
<text x="90" y="711.25" font-size="14" font-weight="700">Giroscópio (magnitude) (u.a.)</text>
<rect class="event" x="443.33" y="717.25" width="222.31" height="192.75" />
<line class="eventline" x1="443.33" y1="717.25" x2="443.33" y2="910.00" />
<line class="eventline" x1="665.64" y1="717.25" x2="665.64" y2="910.00" />
<line class="grid" x1="90" y1="910.00" x2="1150" y2="910.00" />
<text class="small" x="80" y="914.00" text-anchor="end">0.00</text>
<line class="grid" x1="90" y1="871.45" x2="1150" y2="871.45" />
<text class="small" x="80" y="875.45" text-anchor="end">0.05</text>
<line class="grid" x1="90" y1="832.90" x2="1150" y2="832.90" />
<text class="small" x="80" y="836.90" text-anchor="end">0.10</text>
<line class="grid" x1="90" y1="794.35" x2="1150" y2="794.35" />
<text class="small" x="80" y="798.35" text-anchor="end">0.15</text>
<line class="grid" x1="90" y1="755.80" x2="1150" y2="755.80" />
<text class="small" x="80" y="759.80" text-anchor="end">0.20</text>
<line class="grid" x1="90" y1="717.25" x2="1150" y2="717.25" />
<text class="small" x="80" y="721.25" text-anchor="end">0.25</text>
<line class="grid" x1="90.00" y1="717.25" x2="90.00" y2="910.00" />
<line class="grid" x1="266.67" y1="717.25" x2="266.67" y2="910.00" />
<line class="grid" x1="443.33" y1="717.25" x2="443.33" y2="910.00" />
<line class="grid" x1="620.00" y1="717.25" x2="620.00" y2="910.00" />
<line class="grid" x1="796.67" y1="717.25" x2="796.67" y2="910.00" />
<line class="grid" x1="973.33" y1="717.25" x2="973.33" y2="910.00" />
<line class="grid" x1="1150.00" y1="717.25" x2="1150.00" y2="910.00" />
<line class="axis" x1="90" y1="717.25" x2="90" y2="910.00" />
<line class="axis" x1="90" y1="910.00" x2="1150" y2="910.00" />
<path class="series" d="M 178.33 900.66 L 179.81 880.58 L 181.28 888.14 L 182.75 898.99 L 184.22 901.87 L 185.69 905.21 L 187.17 902.70 L 188.64 899.54 L 190.11 896.41 L 191.58 896.41 L 193.06 890.13 L 194.53 895.38 L 196.00 903.56 L 197.47 906.38 L 198.94 902.47 L 200.42 906.30 L 201.89 905.11 L 203.36 907.91 L 204.83 890.26 L 206.31 867.13 L 207.78 856.48 L 209.25 847.62 L 210.72 844.38 L 212.19 845.67 L 213.67 848.29 L 215.14 865.95 L 216.61 887.12 L 218.08 873.52 L 219.56 888.39 L 221.03 894.53 L 222.50 903.66 L 223.97 895.40 L 225.44 882.91 L 226.92 879.68 L 228.39 867.15 L 229.86 876.71 L 231.33 866.77 L 232.81 877.26 L 234.28 881.98 L 235.75 860.77 L 237.22 865.59 L 238.69 879.01 L 240.17 879.04 L 241.64 876.28 L 243.11 872.71 L 244.58 872.20 L 246.06 870.57 L 247.53 877.40 L 249.00 870.41 L 250.47 884.44 L 251.94 880.23 L 253.42 880.09 L 254.89 886.72 L 256.36 888.95 L 257.83 879.70 L 259.31 863.57 L 260.78 862.52 L 262.25 866.76 L 263.72 869.04 L 265.19 877.49 L 266.67 871.87 L 268.14 887.37 L 269.61 889.90 L 271.08 867.98 L 272.56 850.53 L 274.03 814.56 L 275.50 791.92 L 276.97 801.51 L 278.44 834.27 L 279.92 855.68 L 281.39 846.78 L 282.86 894.37 L 284.33 892.47 L 285.81 881.98 L 287.28 885.25 L 288.75 885.14 L 290.22 885.19 L 291.69 872.84 L 293.17 862.67 L 294.64 866.38 L 296.11 879.97 L 297.58 885.40 L 299.06 855.08 L 300.53 866.00 L 302.00 882.01 L 303.47 881.93 L 304.94 881.83 L 306.42 883.98 L 307.89 874.35 L 309.36 885.41 L 310.83 900.91 L 312.31 877.88 L 313.78 881.65 L 315.25 870.97 L 316.72 881.63 L 318.19 887.43 L 319.67 868.61 L 321.14 894.91 L 322.61 890.11 L 324.08 888.29 L 325.56 895.76 L 327.03 885.01 L 328.50 893.47 L 329.97 896.26 L 331.44 873.14 L 332.92 845.14 L 334.39 880.82 L 335.86 900.17 L 337.33 883.39 L 338.81 882.78 L 340.28 880.15 L 341.75 892.89 L 343.22 903.61 L 344.69 879.87 L 346.17 892.07 L 347.64 894.24 L 349.11 894.24 L 350.58 896.09 L 352.06 897.95 L 353.53 899.26 L 355.00 901.03 L 356.47 906.79 L 357.94 899.87 L 359.42 902.64 L 360.89 903.82 L 362.36 903.39 L 363.83 901.63 L 365.31 897.56 L 366.78 900.74 L 368.25 901.14 L 369.72 907.16 L 371.19 897.12 L 372.67 904.18 L 374.14 904.00 L 375.61 906.44 L 377.08 906.76 L 378.56 908.31 L 380.03 907.54 L 381.50 907.81 L 382.97 906.94 L 384.44 907.67 L 385.92 907.14 L 387.39 906.34 L 388.86 907.13 L 390.33 903.05 L 391.81 904.47 L 393.28 898.93 L 394.75 904.12 L 396.22 902.18 L 397.69 901.68 L 399.17 896.61 L 400.64 887.31 L 402.11 874.04 L 403.58 873.69 L 405.06 865.91 L 406.53 869.74 L 408.00 881.36 L 409.47 876.15 L 410.94 883.69 L 412.42 904.78 L 413.89 864.04 L 415.36 855.28 L 416.83 834.45 L 418.31 836.71 L 419.78 846.33 L 421.25 835.27 L 422.72 839.88 L 424.19 832.15 L 425.67 844.08 L 427.14 847.67 L 428.61 847.46 L 430.08 810.83 L 431.56 788.22 L 433.03 794.70 L 434.50 826.62 L 435.97 844.24 L 437.44 859.08 L 438.92 870.13 L 440.39 873.26 L 441.86 884.84 L 443.33 903.40 L 444.81 908.66 L 446.28 908.21 L 447.75 908.23 L 449.22 908.14 L 450.69 908.04 L 452.17 908.32 L 453.64 908.36 L 455.11 908.33 L 456.58 908.27 L 458.06 908.26 L 459.53 908.19 L 461.00 908.39 L 462.47 908.28 L 463.94 908.51 L 465.42 909.81 L 466.89 909.86 L 468.36 909.98 L 469.83 909.83 L 471.31 909.78 L 472.78 909.81 L 474.25 909.87 L 475.72 909.72 L 477.19 909.70 L 478.67 909.89 L 480.14 909.87 L 481.61 909.85 L 483.08 909.86 L 484.56 909.79 L 486.03 909.86 L 487.50 909.96 L 488.97 909.90 L 490.44 909.85 L 491.92 909.92 L 493.39 909.90 L 494.86 909.89 L 496.33 909.85 L 497.81 909.91 L 499.28 909.81 L 500.75 909.89 L 502.22 909.89 L 503.69 909.87 L 505.17 909.89 L 506.64 909.82 L 508.11 909.85 L 509.58 909.78 L 511.06 909.93 L 512.53 909.87 L 514.00 909.88 L 515.47 909.88 L 516.94 909.90 L 518.42 909.86 L 519.89 909.91 L 521.36 909.84 L 522.83 909.87 L 524.31 909.89 L 525.78 909.92 L 527.25 909.87 L 528.72 909.82 L 530.19 909.92 L 531.67 909.97 L 533.14 909.87 L 534.61 909.92 L 536.08 909.88 L 537.56 909.91 L 539.03 909.93 L 540.50 909.94 L 541.97 909.94 L 543.44 909.89 L 544.92 909.87 L 546.39 909.84 L 547.86 909.89 L 549.33 909.95 L 550.81 909.92 L 552.28 909.90 L 553.75 909.85 L 555.22 909.92 L 556.69 909.77 L 558.17 909.89 L 559.64 909.94 L 561.11 909.79 L 562.58 909.84 L 564.06 909.90 L 565.53 909.93 L 567.00 909.88 L 568.47 909.93 L 569.94 909.93 L 571.42 909.91 L 572.89 909.86 L 574.36 909.87 L 575.83 909.89 L 577.31 909.84 L 578.78 909.85 L 580.25 909.81 L 581.72 909.91 L 583.19 909.90 L 584.67 909.88 L 586.14 909.89 L 587.61 909.83 L 589.08 909.89 L 590.56 909.94 L 592.03 909.89 L 593.50 909.87 L 594.97 909.90 L 596.44 909.93 L 597.92 909.93 L 599.39 909.87 L 600.86 909.86 L 602.33 909.86 L 603.81 909.83 L 605.28 909.94 L 606.75 909.92 L 608.22 909.93 L 609.69 909.92 L 611.17 909.86 L 612.64 909.83 L 614.11 909.95 L 615.58 909.90 L 617.06 909.93 L 618.53 909.92 L 620.00 909.87 L 621.47 909.93 L 622.94 909.94 L 624.42 909.89 L 625.89 909.94 L 627.36 909.85 L 628.83 909.86 L 630.31 909.82 L 631.78 909.87 L 633.25 909.91 L 634.72 909.85 L 636.19 909.87 L 637.67 909.94 L 639.14 909.85 L 640.61 909.80 L 642.08 909.88 L 643.56 909.95 L 645.03 909.86 L 646.50 909.89 L 647.97 909.83 L 649.44 909.81 L 650.92 909.33 L 652.39 909.75 L 653.86 909.92 L 655.33 909.88 L 656.81 909.85 L 658.28 909.90 L 659.75 909.81 L 661.22 909.82 L 662.69 908.79 L 664.17 909.74 L 665.64 900.42 L 667.11 888.80 L 668.58 896.36 L 670.06 892.42 L 671.53 888.25 L 673.00 897.39 L 674.47 885.99 L 675.94 855.27 L 677.42 855.27 L 678.89 846.15 L 680.36 836.03 L 681.83 842.76 L 683.31 842.59 L 684.78 845.26 L 686.25 842.73 L 687.72 844.14 L 689.19 864.55 L 690.67 855.84 L 692.14 856.94 L 693.61 865.82 L 695.08 859.88 L 696.56 877.13 L 698.03 906.56 L 699.50 908.39 L 700.97 907.63 L 702.44 907.56 L 703.92 899.92 L 705.39 906.84 L 706.86 908.10 L 708.33 909.13 L 709.81 909.91 L 711.28 897.96 L 712.75 873.59 L 714.22 851.20 L 715.69 834.76 L 717.17 856.13 L 718.64 856.25 L 720.11 866.40 L 721.58 883.76 L 723.06 870.42 L 724.53 875.07 L 726.00 905.54 L 727.47 904.66 L 728.94 907.24 L 730.42 909.07 L 731.89 908.38 L 733.36 908.73 L 734.83 909.55 L 736.31 909.51 L 737.78 909.54 L 739.25 909.60 L 740.72 909.52 L 742.19 909.65 L 743.67 909.67 L 745.14 909.65 L 746.61 909.91 L 748.08 909.96 L 749.56 909.93 L 751.03 909.85 L 752.50 909.93 L 753.97 909.87 L 755.44 909.80 L 756.92 909.87 L 758.39 909.83 L 759.86 906.81 L 761.33 905.94 L 762.81 907.68 L 764.28 909.08 L 765.75 909.61 L 767.22 909.83 L 768.69 909.64 L 770.17 909.81 L 771.64 909.89 L 773.11 909.86 L 774.58 909.91 L 776.06 909.87 L 777.53 909.86 L 779.00 909.89 L 780.47 909.95 L 781.94 909.91 L 783.42 909.86 L 784.89 909.83 L 786.36 909.71 L 787.83 909.77 L 789.31 909.83 L 790.78 909.93 L 792.25 909.90 L 793.72 909.86 L 795.19 909.72 L 796.67 907.15 L 798.14 905.18 L 799.61 908.17 L 801.08 909.61 L 802.56 909.45 L 804.03 909.46 L 805.50 909.57 L 806.97 909.69 L 808.44 909.68 L 809.92 909.69 L 811.39 909.56 L 812.86 909.62 L 814.33 909.67 L 815.81 909.74 L 817.28 909.72 L 818.75 909.93 L 820.22 909.88 L 821.69 909.96 L 823.17 909.91 L 824.64 909.96 L 826.11 909.86 L 827.58 909.93 L 829.06 909.94 L 830.53 909.95 L 832.00 909.62 L 833.47 909.63 L 834.94 905.46 L 836.42 907.71 L 837.89 909.62 L 839.36 909.83 L 840.83 909.76 L 842.31 909.80 L 843.78 909.89 L 845.25 909.89 L 846.72 909.86 L 848.19 909.87 L 849.67 909.77 L 851.14 909.77 L 852.61 909.95 L 854.08 909.83 L 855.56 909.72 L 857.03 909.95 L 858.50 909.84 L 859.97 909.93 L 861.44 909.84 L 862.92 909.87 L 864.39 909.80 L 865.86 909.81 L 867.33 909.82 L 868.81 909.91 L 870.28 909.97 L 871.75 909.76 L 873.22 909.70 L 874.69 909.32 L 876.17 907.20 L 877.64 907.75 L 879.11 909.72 L 880.58 909.74 L 882.06 909.70 L 883.53 909.76 L 885.00 909.80 L 886.47 909.70 L 887.94 909.79 L 889.42 909.76 L 890.89 909.85 L 892.36 909.82 L 893.83 909.82 L 895.31 909.92 L 896.78 909.85 L 898.25 909.81 L 899.72 909.92 L 901.19 909.86 L 902.67 909.80 L 904.14 909.83 L 905.61 909.80 L 907.08 909.82 L 908.56 909.80 L 910.03 909.80 L 911.50 909.72 L 912.97 909.10 L 914.44 908.96 L 915.92 907.08 L 917.39 909.60 L 918.86 909.85 L 920.33 909.66 L 921.81 909.69 L 923.28 909.93 L 924.75 909.84 L 926.22 909.62 L 927.69 909.63 L 929.17 909.65 L 930.64 909.70" stroke="#E53935" />
<text x="620.00" y="952" font-size="15" text-anchor="middle">minutos (relativo ao início do evento)</text>
<text class="small" x="90.00" y="936" text-anchor="middle">-4.00</text>
<text class="small" x="266.67" y="936" text-anchor="middle">-2.00</text>
<text class="small" x="443.33" y="936" text-anchor="middle">0.00</text>
<text class="small" x="620.00" y="936" text-anchor="middle">2.00</text>
<text class="small" x="796.67" y="936" text-anchor="middle">4.00</text>
<text class="small" x="973.33" y="936" text-anchor="middle">6.00</text>
<text class="small" x="1150.00" y="936" text-anchor="middle">8.00</text>
</svg>