<?xml version="1.0" encoding="UTF-8"?>
<svg xmlns="http://www.w3.org/2000/svg" width="1180" height="980" viewBox="0 0 1180 980">
<style>
text { font-family: -apple-system, BlinkMacSystemFont, 'Segoe UI', Roboto, Helvetica, Arial, sans-serif; fill: #111; }
.small { font-size: 12px; fill: #222; }
.title { font-size: 18px; font-weight: 700; }
.axis { stroke: #111; stroke-width: 1.4; }
.grid { stroke: #E6E6E6; stroke-width: 1; }
.event { fill: #FFEB3B; fill-opacity: 0.18; }
.eventline { stroke: #F9A825; stroke-width: 1.2; stroke-dasharray: 4 3; }
.series { fill: none; stroke-width: 1.8; }
</style>
<text class="title" x="90" y="34">ciclo 33 — carregamento — 2025-12-13T06:12:08-03:00 → 2025-12-13T06:14:29-03:00 (span 141s, dur 142s)</text>
<text class="small" x="90" y="54">GPS: -11.698856,-47.157199  hotspot: -11.699,-47.157</text>
<text class="small" x="90" y="70">Janela: -3.00 → 5.35 min (relativo ao início do evento)</text>
<text x="90" y="79.00" font-size="14" font-weight="700">Velocidade (km/h)</text>
<rect class="event" x="443.33" y="85.00" width="207.58" height="192.75" />
<line class="eventline" x1="443.33" y1="85.00" x2="443.33" y2="277.75" />
<line class="eventline" x1="650.92" y1="85.00" x2="650.92" y2="277.75" />
<line class="grid" x1="90" y1="277.75" x2="1150" y2="277.75" />
<text class="small" x="80" y="281.75" text-anchor="end">0.00</text>
<line class="grid" x1="90" y1="239.20" x2="1150" y2="239.20" />
<text class="small" x="80" y="243.20" text-anchor="end">10.0</text>
<line class="grid" x1="90" y1="200.65" x2="1150" y2="200.65" />
<text class="small" x="80" y="204.65" text-anchor="end">20.0</text>
<line class="grid" x1="90" y1="162.10" x2="1150" y2="162.10" />
<text class="small" x="80" y="166.10" text-anchor="end">30.0</text>
<line class="grid" x1="90" y1="123.55" x2="1150" y2="123.55" />
<text class="small" x="80" y="127.55" text-anchor="end">40.0</text>
<line class="grid" x1="90" y1="85.00" x2="1150" y2="85.00" />
<text class="small" x="80" y="89.00" text-anchor="end">50.0</text>
<line class="grid" x1="90.00" y1="85.00" x2="90.00" y2="277.75" />
<line class="grid" x1="266.67" y1="85.00" x2="266.67" y2="277.75" />
<line class="grid" x1="443.33" y1="85.00" x2="443.33" y2="277.75" />
<line class="grid" x1="620.00" y1="85.00" x2="620.00" y2="277.75" />
<line class="grid" x1="796.67" y1="85.00" x2="796.67" y2="277.75" />
<line class="grid" x1="973.33" y1="85.00" x2="973.33" y2="277.75" />
<line class="grid" x1="1150.00" y1="85.00" x2="1150.00" y2="277.75" />
<line class="axis" x1="90" y1="85.00" x2="90" y2="277.75" />
<line class="axis" x1="90" y1="277.75" x2="1150" y2="277.75" />
<path class="series" d="M 178.33 164.92 L 179.81 160.48 L 181.28 159.37 L 182.75 156.87 L 184.22 157.15 L 185.69 154.51 L 187.17 154.65 L 188.64 152.85 L 190.11 154.10 L 191.58 154.10 L 193.06 155.07 L 194.53 156.87 L 196.00 156.32 L 197.47 153.13 L 198.94 149.38 L 200.42 147.30 L 201.89 148.27 L 203.36 144.80 L 204.83 142.58 L 206.31 139.66 L 207.78 134.67 L 209.25 132.17 L 210.72 134.53 L 212.19 136.89 L 213.67 144.66 L 215.14 145.91 L 216.61 140.64 L 218.08 146.88 L 219.56 147.30 L 221.03 149.24 L 222.50 153.26 L 223.97 148.96 L 225.44 150.77 L 226.92 150.07 L 228.39 149.66 L 229.86 149.24 L 231.33 147.16 L 232.81 153.26 L 234.28 152.99 L 235.75 153.96 L 237.22 155.35 L 238.69 155.07 L 240.17 157.01 L 241.64 155.90 L 243.11 157.57 L 244.58 157.01 L 246.06 154.10 L 247.53 154.93 L 249.00 159.23 L 250.47 162.42 L 251.94 166.17 L 253.42 164.37 L 254.89 162.70 L 256.36 166.45 L 257.83 174.50 L 259.31 176.72 L 260.78 178.80 L 262.25 180.47 L 263.72 184.77 L 265.19 187.54 L 266.67 189.07 L 268.14 185.32 L 269.61 183.93 L 271.08 184.49 L 272.56 184.77 L 274.03 181.58 L 275.50 180.33 L 276.97 175.75 L 278.44 162.98 L 279.92 157.01 L 281.39 151.18 L 282.86 156.46 L 284.33 160.48 L 285.81 162.42 L 287.28 167.98 L 288.75 174.22 L 290.22 179.08 L 291.69 180.05 L 293.17 181.16 L 294.64 183.80 L 296.11 186.99 L 297.58 186.43 L 299.06 188.10 L 300.53 185.88 L 302.00 177.27 L 303.47 167.70 L 304.94 164.51 L 306.42 170.47 L 307.89 172.28 L 309.36 178.94 L 310.83 179.49 L 312.31 188.10 L 313.78 188.51 L 315.25 187.54 L 316.72 181.85 L 318.19 179.49 L 319.67 176.02 L 321.14 175.05 L 322.61 174.22 L 324.08 176.30 L 325.56 185.74 L 327.03 179.77 L 328.50 177.13 L 329.97 174.78 L 331.44 176.16 L 332.92 177.69 L 334.39 182.41 L 335.86 173.94 L 337.33 174.22 L 338.81 172.83 L 340.28 172.83 L 341.75 173.94 L 343.22 179.35 L 344.69 181.44 L 346.17 182.96 L 347.64 181.44 L 349.11 177.27 L 350.58 176.72 L 352.06 181.30 L 353.53 183.93 L 355.00 186.99 L 356.47 190.04 L 357.94 192.68 L 359.42 191.01 L 360.89 195.73 L 362.36 196.15 L 363.83 197.67 L 365.31 194.34 L 366.78 197.95 L 368.25 198.92 L 369.72 201.42 L 371.19 202.39 L 372.67 204.89 L 374.14 217.52 L 375.61 216.27 L 377.08 220.85 L 378.56 217.94 L 380.03 220.57 L 381.50 220.85 L 382.97 226.96 L 384.44 227.65 L 385.92 222.10 L 387.39 231.95 L 388.86 233.76 L 390.33 239.72 L 391.81 245.14 L 393.28 242.92 L 394.75 247.50 L 396.22 241.25 L 397.69 243.19 L 399.17 240.83 L 400.64 236.81 L 402.11 242.08 L 403.58 234.45 L 405.06 242.50 L 406.53 243.47 L 408.00 243.33 L 409.47 253.05 L 410.94 264.29 L 412.42 266.37 L 413.89 277.75 L 415.36 277.75 L 416.83 277.75 L 418.31 277.75 L 419.78 259.29 L 421.25 260.26 L 422.72 262.21 L 424.19 261.65 L 425.67 260.82 L 427.14 255.82 L 428.61 260.82 L 430.08 262.21 L 431.56 262.35 L 433.03 262.76 L 434.50 265.26 L 435.97 263.04 L 437.44 268.59 L 438.92 273.86 L 440.39 274.00 L 441.86 270.39 L 443.33 277.75 L 444.81 277.75 L 446.28 277.75 L 447.75 277.75 L 449.22 277.75 L 450.69 277.75 L 452.17 277.75 L 453.64 277.75 L 455.11 277.75 L 456.58 277.75 L 458.06 277.75 L 459.53 277.75 L 461.00 277.75 L 462.47 277.75 L 463.94 277.75 L 465.42 277.75 L 466.89 277.75 L 468.36 277.75 L 469.83 277.75 L 471.31 277.75 L 472.78 277.75 L 474.25 277.75 L 475.72 277.75 L 477.19 277.75 L 478.67 277.75 L 480.14 277.75 L 481.61 277.75 L 483.08 277.75 L 484.56 277.75 L 486.03 277.75 L 487.50 277.75 L 488.97 277.75 L 490.44 277.75 L 491.92 277.75 L 493.39 277.75 L 494.86 277.75 L 496.33 277.75 L 497.81 277.75 L 499.28 277.75 L 500.75 277.75 L 502.22 277.75 L 503.69 277.75 L 505.17 277.75 L 506.64 277.75 L 508.11 277.75 L 509.58 277.75 L 511.06 277.75 L 512.53 277.75 L 514.00 277.75 L 515.47 277.75 L 516.94 277.75 L 518.42 277.75 L 519.89 277.75 L 521.36 277.75 L 522.83 277.75 L 524.31 277.75 L 525.78 277.75 L 527.25 277.75 L 528.72 277.75 L 530.19 277.75 L 531.67 277.75 L 533.14 277.75 L 534.61 277.75 L 536.08 277.75 L 537.56 277.75 L 539.03 277.75 L 540.50 277.75 L 541.97 277.75 L 543.44 277.75 L 544.92 277.75 L 546.39 277.75 L 547.86 277.75 L 549.33 277.75 L 550.81 277.75 L 552.28 277.75 L 553.75 277.75 L 555.22 277.75 L 556.69 277.75 L 558.17 277.75 L 559.64 277.75 L 561.11 277.75 L 562.58 277.75 L 564.06 277.75 L 565.53 277.75 L 567.00 277.75 L 568.47 277.75 L 569.94 277.75 L 571.42 277.75 L 572.89 277.75 L 574.36 277.75 L 575.83 277.75 L 577.31 277.75 L 578.78 277.75 L 580.25 277.75 L 581.72 277.75 L 583.19 277.75 L 584.67 277.75 L 586.14 277.75 L 587.61 277.75 L 589.08 277.75 L 590.56 277.75 L 592.03 277.75 L 593.50 277.75 L 594.97 277.75 L 596.44 277.75 L 597.92 277.75 L 599.39 277.75 L 600.86 277.75 L 602.33 277.75 L 603.81 277.75 L 605.28 277.75 L 606.75 277.75 L 608.22 277.75 L 609.69 277.75 L 611.17 277.75 L 612.64 277.75 L 614.11 277.75 L 615.58 277.75 L 617.06 277.75 L 618.53 277.75 L 620.00 277.75 L 621.47 277.75 L 622.94 277.75 L 624.42 277.75 L 625.89 277.75 L 627.36 277.75 L 628.83 277.75 L 630.31 277.75 L 631.78 277.75 L 633.25 277.75 L 634.72 277.75 L 636.19 277.75 L 637.67 277.75 L 639.14 277.75 L 640.61 277.75 L 642.08 277.75 L 643.56 277.75 L 645.03 277.75 L 646.50 277.75 L 647.97 277.75 L 649.44 277.75 L 650.92 277.75 L 652.39 265.26 L 653.86 257.21 L 655.33 261.79 L 656.81 254.43 L 658.28 254.85 L 659.75 248.61 L 661.22 246.39 L 662.69 244.72 L 664.17 243.33 L 665.64 240.83 L 667.11 239.17 L 668.58 238.06 L 670.06 234.73 L 671.53 230.01 L 673.00 224.87 L 674.47 227.65 L 675.94 223.90 L 677.42 214.19 L 678.89 210.58 L 680.36 205.31 L 681.83 206.97 L 683.31 209.19 L 684.78 213.49 L 686.25 216.83 L 687.72 216.13 L 689.19 211.97 L 690.67 207.25 L 692.14 206.69 L 693.61 204.34 L 695.08 201.56 L 696.56 200.45 L 698.03 196.42 L 699.50 194.62 L 700.97 196.56 L 702.44 199.20 L 703.92 200.03 L 705.39 199.48 L 706.86 199.20 L 708.33 197.26 L 709.81 197.26 L 711.28 195.04 L 712.75 192.96 L 714.22 191.98 L 715.69 191.85 L 717.17 187.13 L 718.64 185.04 L 720.11 182.82 L 721.58 182.27 L 723.06 178.11 L 724.53 175.05 L 726.00 171.44 L 727.47 168.81 L 728.94 167.42 L 730.42 168.95 L 731.89 167.00 L 733.36 166.45 L 734.83 162.84 L 736.31 162.98 L 737.78 157.98 L 739.25 152.29 L 740.72 155.21 L 742.19 162.98 L 743.67 180.05 L 745.14 195.59 L 746.61 209.05 L 748.08 217.38 L 749.56 218.91 L 751.03 221.13 L 752.50 221.41 L 753.97 221.13 L 755.44 217.94 L 756.92 214.61 L 758.39 213.36 L 759.86 211.41 L 761.33 208.78 L 762.81 209.75 L 764.28 214.47 L 765.75 218.07 L 767.22 221.54 L 768.69 223.63 L 770.17 225.15 L 771.64 226.12 L 773.11 228.76 L 774.58 229.87 L 776.06 233.06 L 777.53 236.12 L 779.00 237.64 L 780.47 237.09 L 781.94 236.12 L 783.42 237.23 L 784.89 236.12 L 786.36 235.14 L 787.83 235.42 L 789.31 236.53 L 790.78 237.50 L 792.25 239.03 L 793.72 243.47 L 795.19 246.52 L 796.67 245.83 L 798.14 245.28 L 799.61 245.41 L 801.08 248.74 L 802.56 247.77 L 804.03 252.35 L 805.50 251.38 L 806.97 251.10 L 808.44 255.13 L 809.92 261.24 L 811.39 258.74 L 812.86 258.04 L 814.33 255.41 L 815.81 255.13 L 817.28 254.99 L 818.75 253.19 L 820.22 255.13 L 821.69 253.74 L 823.17 256.10 L 824.64 255.13 L 826.11 256.10 L 827.58 254.43 L 829.06 253.60 L 830.53 252.63 L 832.00 251.94 L 833.47 250.41 L 834.94 249.16 L 836.42 249.16 L 837.89 249.58 L 839.36 249.58 L 840.83 247.63 L 842.31 249.72 L 843.78 249.44 L 845.25 247.36 L 846.72 247.08 L 848.19 246.52 L 849.67 245.28 L 851.14 244.44 L 852.61 245.97 L 854.08 242.64 L 855.56 242.50 L 857.03 239.17 L 858.50 235.70 L 859.97 233.76 L 861.44 229.18 L 862.92 224.46 L 864.39 223.63 L 865.86 215.16 L 867.33 205.72 L 868.81 206.56 L 870.28 205.17 L 871.75 201.84 L 873.22 196.70 L 874.69 195.87 L 876.17 194.90 L 877.64 189.76 L 879.11 182.13 L 880.58 181.16 L 882.06 171.72 L 883.53 171.72 L 885.00 166.31 L 886.47 164.09 L 887.94 161.17 L 889.42 157.01 L 890.89 152.15 L 892.36 152.57 L 893.83 152.85 L 895.31 148.55 L 896.78 149.10 L 898.25 145.35 L 899.72 148.96 L 901.19 149.24 L 902.67 148.82 L 904.14 150.63 L 905.61 151.18 L 907.08 152.15 L 908.56 153.54 L 910.03 151.32 L 911.50 152.71 L 912.97 152.43 L 914.44 154.51 L 915.92 153.82" stroke="#1976D2" />
<text x="90" y="289.75" font-size="14" font-weight="700">Inclinação (graus)</text>
<rect class="event" x="443.33" y="295.75" width="207.58" height="192.75" />
<line class="eventline" x1="443.33" y1="295.75" x2="443.33" y2="488.50" />
<line class="eventline" x1="650.92" y1="295.75" x2="650.92" y2="488.50" />
<line class="grid" x1="90" y1="488.50" x2="1150" y2="488.50" />
<text class="small" x="80" y="492.50" text-anchor="end">-20.0</text>
<line class="grid" x1="90" y1="449.95" x2="1150" y2="449.95" />
<text class="small" x="80" y="453.95" text-anchor="end">-10.0</text>
<line class="grid" x1="90" y1="411.40" x2="1150" y2="411.40" />
<text class="small" x="80" y="415.40" text-anchor="end">0.00</text>
<line class="grid" x1="90" y1="372.85" x2="1150" y2="372.85" />
<text class="small" x="80" y="376.85" text-anchor="end">10.0</text>
<line class="grid" x1="90" y1="334.30" x2="1150" y2="334.30" />
<text class="small" x="80" y="338.30" text-anchor="end">20.0</text>
<line class="grid" x1="90" y1="295.75" x2="1150" y2="295.75" />
<text class="small" x="80" y="299.75" text-anchor="end">30.0</text>
<line class="grid" x1="90.00" y1="295.75" x2="90.00" y2="488.50" />
<line class="grid" x1="266.67" y1="295.75" x2="266.67" y2="488.50" />
<line class="grid" x1="443.33" y1="295.75" x2="443.33" y2="488.50" />
<line class="grid" x1="620.00" y1="295.75" x2="620.00" y2="488.50" />
<line class="grid" x1="796.67" y1="295.75" x2="796.67" y2="488.50" />
<line class="grid" x1="973.33" y1="295.75" x2="973.33" y2="488.50" />
<line class="grid" x1="1150.00" y1="295.75" x2="1150.00" y2="488.50" />
<line class="axis" x1="90" y1="295.75" x2="90" y2="488.50" />
<line class="axis" x1="90" y1="488.50" x2="1150" y2="488.50" />
<path class="series" d="M 178.33 381.73 L 179.81 373.71 L 181.28 376.52 L 182.75 374.41 L 184.22 375.13 L 185.69 366.16 L 187.17 368.73 L 188.64 364.40 L 190.11 369.30 L 191.58 362.02 L 193.06 361.68 L 194.53 358.00 L 196.00 365.05 L 197.47 367.39 L 198.94 364.65 L 200.42 359.31 L 201.89 359.63 L 203.36 357.27 L 204.83 363.90 L 206.31 368.87 L 207.78 359.43 L 209.25 359.94 L 210.72 359.65 L 212.19 352.36 L 213.67 358.44 L 215.14 363.65 L 216.61 362.38 L 218.08 363.74 L 219.56 359.30 L 221.03 365.51 L 222.50 366.70 L 223.97 366.33 L 225.44 366.50 L 226.92 363.42 L 228.39 364.26 L 229.86 364.07 L 231.33 361.27 L 232.81 365.97 L 234.28 361.58 L 235.75 362.67 L 237.22 365.60 L 238.69 368.08 L 240.17 367.91 L 241.64 367.09 L 243.11 369.57 L 244.58 371.25 L 246.06 371.02 L 247.53 365.23 L 249.00 361.97 L 250.47 363.51 L 251.94 372.95 L 253.42 368.52 L 254.89 361.95 L 256.36 362.62 L 257.83 363.71 L 259.31 362.39 L 260.78 361.78 L 262.25 357.01 L 263.72 355.43 L 265.19 358.10 L 266.67 370.70 L 268.14 364.16 L 269.61 364.01 L 271.08 358.82 L 272.56 355.49 L 274.03 359.40 L 275.50 356.17 L 276.97 356.72 L 278.44 353.54 L 279.92 347.45 L 281.39 332.21 L 282.86 331.49 L 284.33 331.55 L 285.81 329.83 L 287.28 331.68 L 288.75 338.66 L 290.22 343.44 L 291.69 345.00 L 293.17 343.34 L 294.64 345.20 L 296.11 345.93 L 297.58 345.09 L 299.06 356.82 L 300.53 365.36 L 302.00 355.13 L 303.47 357.53 L 304.94 346.21 L 306.42 346.21 L 307.89 363.66 L 309.36 361.82 L 310.83 356.25 L 312.31 350.18 L 313.78 351.77 L 315.25 345.32 L 316.72 340.02 L 318.19 348.89 L 319.67 354.84 L 321.14 375.88 L 322.61 361.41 L 324.08 364.06 L 325.56 362.54 L 327.03 372.19 L 328.50 378.82 L 329.97 367.67 L 331.44 370.00 L 332.92 360.80 L 334.39 366.04 L 335.86 372.03 L 337.33 369.37 L 338.81 371.01 L 340.28 371.85 L 341.75 363.39 L 343.22 364.33 L 344.69 363.47 L 346.17 356.46 L 347.64 372.54 L 349.11 361.86 L 350.58 362.88 L 352.06 360.07 L 353.53 360.88 L 355.00 361.83 L 356.47 352.91 L 357.94 360.07 L 359.42 358.07 L 360.89 351.73 L 362.36 374.16 L 363.83 366.27 L 365.31 361.52 L 366.78 362.78 L 368.25 363.72 L 369.72 365.16 L 371.19 361.05 L 372.67 352.63 L 374.14 355.67 L 375.61 357.42 L 377.08 368.42 L 378.56 368.42 L 380.03 366.87 L 381.50 367.18 L 382.97 363.78 L 384.44 388.61 L 385.92 365.04 L 387.39 379.91 L 388.86 369.20 L 390.33 371.03 L 391.81 366.52 L 393.28 368.07 L 394.75 362.22 L 396.22 379.10 L 397.69 364.87 L 399.17 372.00 L 400.64 336.07 L 402.11 336.46 L 403.58 339.44 L 405.06 333.60 L 406.53 358.30 L 408.00 343.04 L 409.47 353.66 L 410.94 357.43 L 412.42 353.16 L 413.89 363.37 L 415.36 346.59 L 416.83 374.19 L 418.31 365.71 L 419.78 370.01 L 421.25 366.05 L 422.72 365.77 L 424.19 367.99 L 425.67 363.36 L 427.14 366.58 L 428.61 365.18 L 430.08 364.39 L 431.56 363.80 L 433.03 360.96 L 434.50 364.16 L 435.97 367.42 L 437.44 366.36 L 438.92 363.39 L 440.39 363.44 L 441.86 362.15 L 443.33 357.77 L 444.81 363.10 L 446.28 352.68 L 447.75 362.15 L 449.22 366.57 L 450.69 354.16 L 452.17 355.63 L 453.64 355.82 L 455.11 355.57 L 456.58 355.52 L 458.06 355.57 L 459.53 355.50 L 461.00 355.47 L 462.47 355.51 L 463.94 355.44 L 465.42 355.43 L 466.89 355.47 L 468.36 355.40 L 469.83 355.43 L 471.31 355.40 L 472.78 355.42 L 474.25 355.40 L 475.72 355.36 L 477.19 355.36 L 478.67 355.34 L 480.14 355.34 L 481.61 355.31 L 483.08 355.33 L 484.56 355.29 L 486.03 354.96 L 487.50 355.27 L 488.97 354.05 L 490.44 353.97 L 491.92 354.38 L 493.39 354.09 L 494.86 354.18 L 496.33 354.27 L 497.81 354.17 L 499.28 354.13 L 500.75 354.05 L 502.22 354.04 L 503.69 354.09 L 505.17 354.03 L 506.64 354.08 L 508.11 354.05 L 509.58 354.06 L 511.06 354.07 L 512.53 354.06 L 514.00 354.08 L 515.47 354.07 L 516.94 354.25 L 518.42 353.12 L 519.89 353.41 L 521.36 353.48 L 522.83 353.38 L 524.31 353.36 L 525.78 353.41 L 527.25 353.31 L 528.72 353.44 L 530.19 353.37 L 531.67 353.42 L 533.14 353.38 L 534.61 353.31 L 536.08 353.37 L 537.56 353.31 L 539.03 353.34 L 540.50 353.36 L 541.97 353.27 L 543.44 353.30 L 544.92 353.53 L 546.39 352.65 L 547.86 353.74 L 549.33 353.43 L 550.81 353.45 L 552.28 353.33 L 553.75 353.47 L 555.22 353.44 L 556.69 353.44 L 558.17 353.46 L 559.64 353.39 L 561.11 353.49 L 562.58 353.48 L 564.06 353.46 L 565.53 353.49 L 567.00 353.46 L 568.47 353.42 L 569.94 353.45 L 571.42 353.44 L 572.89 353.46 L 574.36 353.44 L 575.83 353.41 L 577.31 353.45 L 578.78 353.42 L 580.25 353.46 L 581.72 353.48 L 583.19 353.20 L 584.67 353.67 L 586.14 354.21 L 587.61 354.43 L 589.08 354.37 L 590.56 354.25 L 592.03 354.37 L 593.50 354.37 L 594.97 354.39 L 596.44 354.35 L 597.92 354.31 L 599.39 354.39 L 600.86 354.35 L 602.33 354.29 L 603.81 354.35 L 605.28 354.33 L 606.75 354.33 L 608.22 354.34 L 609.69 354.29 L 611.17 354.37 L 612.64 354.34 L 614.11 355.20 L 615.58 353.83 L 617.06 354.27 L 618.53 354.25 L 620.00 354.48 L 621.47 355.19 L 622.94 354.96 L 624.42 355.09 L 625.89 355.10 L 627.36 355.13 L 628.83 355.12 L 630.31 355.12 L 631.78 355.08 L 633.25 355.15 L 634.72 355.13 L 636.19 355.11 L 637.67 355.11 L 639.14 355.11 L 640.61 355.18 L 642.08 355.12 L 643.56 355.15 L 645.03 355.13 L 646.50 354.86 L 647.97 360.44 L 649.44 366.47 L 650.92 362.01 L 652.39 373.76 L 653.86 373.38 L 655.33 364.13 L 656.81 358.75 L 658.28 368.97 L 659.75 377.27 L 661.22 376.73 L 662.69 377.93 L 664.17 379.49 L 665.64 378.11 L 667.11 375.81 L 668.58 375.60 L 670.06 362.42 L 671.53 366.30 L 673.00 377.94 L 674.47 369.20 L 675.94 369.95 L 677.42 370.96 L 678.89 366.40 L 680.36 367.00 L 681.83 365.65 L 683.31 360.93 L 684.78 363.70 L 686.25 374.40 L 687.72 373.16 L 689.19 370.91 L 690.67 370.87 L 692.14 370.45 L 693.61 373.88 L 695.08 374.96 L 696.56 371.92 L 698.03 371.56 L 699.50 374.21 L 700.97 367.30 L 702.44 370.05 L 703.92 374.68 L 705.39 374.30 L 706.86 366.24 L 708.33 376.73 L 709.81 375.55 L 711.28 372.32 L 712.75 374.87 L 714.22 375.73 L 715.69 373.31 L 717.17 373.08 L 718.64 371.51 L 720.11 370.72 L 721.58 371.22 L 723.06 374.19 L 724.53 368.04 L 726.00 369.88 L 727.47 369.26 L 728.94 373.09 L 730.42 369.63 L 731.89 369.66 L 733.36 366.66 L 734.83 366.50 L 736.31 365.68 L 737.78 367.27 L 739.25 366.89 L 740.72 365.20 L 742.19 374.43 L 743.67 370.35 L 745.14 369.00 L 746.61 366.93 L 748.08 374.55 L 749.56 358.76 L 751.03 370.45 L 752.50 371.34 L 753.97 382.26 L 755.44 380.39 L 756.92 375.93 L 758.39 377.25 L 759.86 375.28 L 761.33 373.76 L 762.81 373.95 L 764.28 378.94 L 765.75 380.13 L 767.22 381.02 L 768.69 381.02 L 770.17 382.43 L 771.64 382.96 L 773.11 382.74 L 774.58 381.80 L 776.06 381.65 L 777.53 382.13 L 779.00 387.04 L 780.47 387.40 L 781.94 387.62 L 783.42 386.55 L 784.89 387.17 L 786.36 387.74 L 787.83 388.26 L 789.31 388.69 L 790.78 389.45 L 792.25 387.97 L 793.72 387.73 L 795.19 393.33 L 796.67 393.66 L 798.14 394.19 L 799.61 393.39 L 801.08 390.08 L 802.56 392.87 L 804.03 397.13 L 805.50 401.87 L 806.97 397.23 L 808.44 395.64 L 809.92 405.75 L 811.39 402.82 L 812.86 406.74 L 814.33 403.95 L 815.81 403.38 L 817.28 402.30 L 818.75 399.60 L 820.22 399.66 L 821.69 397.27 L 823.17 398.79 L 824.64 396.72 L 826.11 401.83 L 827.58 399.81 L 829.06 398.80 L 830.53 398.05 L 832.00 398.21 L 833.47 398.51 L 834.94 397.75 L 836.42 398.04 L 837.89 397.39 L 839.36 397.45 L 840.83 396.43 L 842.31 396.92 L 843.78 397.39 L 845.25 395.38 L 846.72 395.38 L 848.19 390.87 L 849.67 390.79 L 851.14 387.86 L 852.61 388.75 L 854.08 384.84 L 855.56 386.07 L 857.03 384.81 L 858.50 385.61 L 859.97 380.87 L 861.44 381.62 L 862.92 374.93 L 864.39 378.56 L 865.86 379.09 L 867.33 375.34 L 868.81 375.88 L 870.28 374.06 L 871.75 373.05 L 873.22 372.41 L 874.69 375.08 L 876.17 375.04 L 877.64 374.91 L 879.11 375.14 L 880.58 373.83 L 882.06 370.98 L 883.53 369.99 L 885.00 371.06 L 886.47 366.72 L 887.94 366.72 L 889.42 368.77 L 890.89 365.77 L 892.36 361.36 L 893.83 365.39 L 895.31 368.91 L 896.78 370.34 L 898.25 370.25 L 899.72 369.86 L 901.19 370.26 L 902.67 366.95 L 904.14 368.98 L 905.61 362.01 L 907.08 367.57 L 908.56 371.07 L 910.03 369.65 L 911.50 370.88 L 912.97 371.15 L 914.44 368.71 L 915.92 370.64" stroke="#2E7D32" />
<path class="series" d="M 178.33 434.68 L 179.81 445.51 L 181.28 434.76 L 182.75 427.14 L 184.22 423.81 L 185.69 413.15 L 187.17 407.10 L 188.64 407.42 L 190.11 402.17 L 191.58 401.81 L 193.06 406.51 L 194.53 401.07 L 196.00 402.69 L 197.47 402.76 L 198.94 398.09 L 200.42 394.39 L 201.89 400.90 L 203.36 400.38 L 204.83 397.16 L 206.31 406.97 L 207.78 403.19 L 209.25 403.58 L 210.72 405.61 L 212.19 407.55 L 213.67 404.93 L 215.14 405.19 L 216.61 413.75 L 218.08 408.52 L 219.56 405.29 L 221.03 402.83 L 222.50 403.73 L 223.97 403.19 L 225.44 407.64 L 226.92 402.58 L 228.39 403.61 L 229.86 403.26 L 231.33 400.61 L 232.81 397.87 L 234.28 394.58 L 235.75 390.24 L 237.22 389.54 L 238.69 391.23 L 240.17 393.39 L 241.64 385.53 L 243.11 390.68 L 244.58 391.54 L 246.06 398.88 L 247.53 398.51 L 249.00 396.42 L 250.47 389.60 L 251.94 380.87 L 253.42 391.72 L 254.89 389.90 L 256.36 393.20 L 257.83 396.87 L 259.31 399.27 L 260.78 397.30 L 262.25 370.30 L 263.72 369.76 L 265.19 384.52 L 266.67 388.35 L 268.14 394.02 L 269.61 392.34 L 271.08 402.63 L 272.56 392.70 L 274.03 397.91 L 275.50 406.24 L 276.97 400.35 L 278.44 397.54 L 279.92 396.39 L 281.39 387.25 L 282.86 387.73 L 284.33 393.35 L 285.81 399.98 L 287.28 396.41 L 288.75 394.47 L 290.22 403.58 L 291.69 407.70 L 293.17 413.72 L 294.64 407.02 L 296.11 404.61 L 297.58 405.54 L 299.06 401.01 L 300.53 382.52 L 302.00 383.15 L 303.47 379.47 L 304.94 343.10 L 306.42 343.10 L 307.89 408.49 L 309.36 418.77 L 310.83 402.06 L 312.31 396.31 L 313.78 398.30 L 315.25 376.30 L 316.72 380.97 L 318.19 386.87 L 319.67 390.10 L 321.14 417.27 L 322.61 410.40 L 324.08 443.99 L 325.56 400.37 L 327.03 396.31 L 328.50 401.59 L 329.97 410.88 L 331.44 410.42 L 332.92 417.50 L 334.39 411.05 L 335.86 411.90 L 337.33 401.00 L 338.81 404.38 L 340.28 409.29 L 341.75 404.09 L 343.22 407.78 L 344.69 389.17 L 346.17 404.21 L 347.64 416.72 L 349.11 402.29 L 350.58 397.72 L 352.06 401.17 L 353.53 403.97 L 355.00 408.65 L 356.47 416.64 L 357.94 408.71 L 359.42 401.42 L 360.89 408.50 L 362.36 410.89 L 363.83 413.95 L 365.31 419.12 L 366.78 415.68 L 368.25 414.68 L 369.72 402.36 L 371.19 415.93 L 372.67 410.98 L 374.14 414.05 L 375.61 417.47 L 377.08 417.10 L 378.56 408.68 L 380.03 414.70 L 381.50 411.48 L 382.97 395.58 L 384.44 415.34 L 385.92 406.37 L 387.39 403.36 L 388.86 409.78 L 390.33 422.63 L 391.81 420.70 L 393.28 429.26 L 394.75 422.23 L 396.22 415.11 L 397.69 419.67 L 399.17 426.77 L 400.64 440.15 L 402.11 417.19 L 403.58 432.62 L 405.06 422.98 L 406.53 443.04 L 408.00 427.15 L 409.47 398.13 L 410.94 403.19 L 412.42 414.49 L 413.89 415.61 L 415.36 419.19 L 416.83 413.85 L 418.31 421.66 L 419.78 398.95 L 421.25 417.51 L 422.72 418.55 L 424.19 420.18 L 425.67 417.13 L 427.14 401.24 L 428.61 403.73 L 430.08 400.01 L 431.56 416.20 L 433.03 415.02 L 434.50 411.25 L 435.97 418.37 L 437.44 410.21 L 438.92 413.68 L 440.39 413.58 L 441.86 415.31 L 443.33 412.70 L 444.81 412.36 L 446.28 410.69 L 447.75 417.50 L 449.22 421.23 L 450.69 417.63 L 452.17 418.88 L 453.64 419.92 L 455.11 418.88 L 456.58 419.73 L 458.06 419.27 L 459.53 419.40 L 461.00 419.37 L 462.47 419.25 L 463.94 419.37 L 465.42 419.29 L 466.89 419.35 L 468.36 419.25 L 469.83 419.39 L 471.31 419.33 L 472.78 419.35 L 474.25 419.27 L 475.72 419.32 L 477.19 419.36 L 478.67 419.32 L 480.14 419.33 L 481.61 419.30 L 483.08 419.37 L 484.56 419.29 L 486.03 419.32 L 487.50 420.20 L 488.97 417.24 L 490.44 418.95 L 491.92 419.10 L 493.39 418.23 L 494.86 417.97 L 496.33 418.54 L 497.81 418.64 L 499.28 418.26 L 500.75 418.24 L 502.22 418.54 L 503.69 418.43 L 505.17 418.25 L 506.64 418.37 L 508.11 418.45 L 509.58 418.43 L 511.06 418.36 L 512.53 418.37 L 514.00 418.46 L 515.47 418.37 L 516.94 418.50 L 518.42 419.02 L 519.89 417.54 L 521.36 418.16 L 522.83 417.95 L 524.31 418.03 L 525.78 417.99 L 527.25 417.94 L 528.72 417.91 L 530.19 417.89 L 531.67 417.97 L 533.14 417.99 L 534.61 417.92 L 536.08 417.97 L 537.56 417.91 L 539.03 417.96 L 540.50 417.92 L 541.97 417.85 L 543.44 417.94 L 544.92 418.11 L 546.39 417.03 L 547.86 420.51 L 549.33 417.59 L 550.81 418.02 L 552.28 418.13 L 553.75 418.11 L 555.22 418.14 L 556.69 418.20 L 558.17 418.19 L 559.64 418.16 L 561.11 418.13 L 562.58 418.20 L 564.06 418.21 L 565.53 418.18 L 567.00 418.18 L 568.47 418.20 L 569.94 418.25 L 571.42 418.17 L 572.89 418.19 L 574.36 418.20 L 575.83 418.23 L 577.31 418.17 L 578.78 418.19 L 580.25 418.22 L 581.72 418.26 L 583.19 418.38 L 584.67 418.35 L 586.14 419.50 L 587.61 418.34 L 589.08 418.91 L 590.56 418.70 L 592.03 418.82 L 593.50 418.82 L 594.97 418.88 L 596.44 418.83 L 597.92 418.79 L 599.39 418.87 L 600.86 418.83 L 602.33 418.80 L 603.81 418.84 L 605.28 418.83 L 606.75 418.88 L 608.22 418.86 L 609.69 418.82 L 611.17 418.86 L 612.64 418.87 L 614.11 419.42 L 615.58 418.03 L 617.06 418.93 L 618.53 418.72 L 620.00 418.79 L 621.47 419.84 L 622.94 417.63 L 624.42 418.33 L 625.89 418.02 L 627.36 418.24 L 628.83 418.22 L 630.31 418.16 L 631.78 418.31 L 633.25 418.25 L 634.72 418.28 L 636.19 418.25 L 637.67 418.32 L 639.14 418.16 L 640.61 418.31 L 642.08 418.19 L 643.56 418.29 L 645.03 418.37 L 646.50 418.12 L 647.97 418.17 L 649.44 417.57 L 650.92 418.61 L 652.39 407.80 L 653.86 420.52 L 655.33 426.89 L 656.81 413.94 L 658.28 409.17 L 659.75 420.25 L 661.22 413.31 L 662.69 423.46 L 664.17 415.14 L 665.64 418.53 L 667.11 420.66 L 668.58 428.23 L 670.06 432.40 L 671.53 430.14 L 673.00 416.61 L 674.47 426.64 L 675.94 425.72 L 677.42 419.36 L 678.89 386.10 L 680.36 405.73 L 681.83 410.26 L 683.31 401.55 L 684.78 403.33 L 686.25 414.23 L 687.72 407.42 L 689.19 393.94 L 690.67 410.59 L 692.14 413.21 L 693.61 411.55 L 695.08 405.94 L 696.56 405.91 L 698.03 420.64 L 699.50 408.87 L 700.97 391.65 L 702.44 409.88 L 703.92 403.38 L 705.39 397.53 L 706.86 390.45 L 708.33 403.08 L 709.81 397.78 L 711.28 412.54 L 712.75 412.47 L 714.22 412.12 L 715.69 396.26 L 717.17 400.83 L 718.64 409.25 L 720.11 426.89 L 721.58 442.79 L 723.06 423.05 L 724.53 408.05 L 726.00 409.54 L 727.47 406.97 L 728.94 420.93 L 730.42 439.17 L 731.89 405.63 L 733.36 407.13 L 734.83 402.58 L 736.31 408.00 L 737.78 411.86 L 739.25 408.26 L 740.72 415.42 L 742.19 425.78 L 743.67 432.70 L 745.14 411.16 L 746.61 410.98 L 748.08 413.63 L 749.56 426.14 L 751.03 432.88 L 752.50 434.83 L 753.97 440.51 L 755.44 431.34 L 756.92 430.27 L 758.39 427.11 L 759.86 422.51 L 761.33 422.32 L 762.81 417.00 L 764.28 433.10 L 765.75 425.09 L 767.22 418.53 L 768.69 418.62 L 770.17 414.12 L 771.64 414.59 L 773.11 413.60 L 774.58 413.01 L 776.06 414.33 L 777.53 414.77 L 779.00 414.62 L 780.47 417.71 L 781.94 416.46 L 783.42 413.54 L 784.89 416.02 L 786.36 413.78 L 787.83 412.20 L 789.31 413.71 L 790.78 411.40 L 792.25 409.62 L 793.72 409.18 L 795.19 411.38 L 796.67 408.72 L 798.14 409.17 L 799.61 407.77 L 801.08 401.40 L 802.56 407.90 L 804.03 402.24 L 805.50 409.70 L 806.97 404.32 L 808.44 403.71 L 809.92 406.30 L 811.39 408.55 L 812.86 407.42 L 814.33 409.41 L 815.81 411.61 L 817.28 409.12 L 818.75 410.99 L 820.22 411.71 L 821.69 411.96 L 823.17 413.22 L 824.64 413.63 L 826.11 415.10 L 827.58 411.64 L 829.06 414.63 L 830.53 414.92 L 832.00 414.86 L 833.47 415.37 L 834.94 412.89 L 836.42 417.94 L 837.89 415.42 L 839.36 417.81 L 840.83 415.37 L 842.31 420.58 L 843.78 418.52 L 845.25 416.86 L 846.72 417.30 L 848.19 417.93 L 849.67 420.76 L 851.14 418.92 L 852.61 420.94 L 854.08 418.14 L 855.56 415.87 L 857.03 423.45 L 858.50 415.90 L 859.97 415.97 L 861.44 418.47 L 862.92 423.05 L 864.39 423.61 L 865.86 424.18 L 867.33 415.51 L 868.81 422.82 L 870.28 421.91 L 871.75 422.52 L 873.22 424.21 L 874.69 416.43 L 876.17 415.88 L 877.64 422.94 L 879.11 426.97 L 880.58 426.08 L 882.06 425.66 L 883.53 427.60 L 885.00 430.10 L 886.47 426.39 L 887.94 426.39 L 889.42 422.81 L 890.89 426.76 L 892.36 431.22 L 893.83 420.05 L 895.31 419.12 L 896.78 409.03 L 898.25 427.96 L 899.72 421.73 L 901.19 425.95 L 902.67 413.76 L 904.14 410.95 L 905.61 412.27 L 907.08 411.61 L 908.56 409.75 L 910.03 405.97 L 911.50 412.55 L 912.97 410.18 L 914.44 407.87 L 915.92 396.13" stroke="#6A1B9A" />
<line x1="900.00" y1="307.75" x2="918.00" y2="307.75" stroke="#2E7D32" stroke-width="3" />
<text class="small" x="924.00" y="311.75">pitch</text>
<line x1="900.00" y1="323.75" x2="918.00" y2="323.75" stroke="#6A1B9A" stroke-width="3" />
<text class="small" x="924.00" y="327.75">roll</text>
<text x="90" y="500.50" font-size="14" font-weight="700">Aceleração (magnitude) (u.a.)</text>
<rect class="event" x="443.33" y="506.50" width="207.58" height="192.75" />
<line class="eventline" x1="443.33" y1="506.50" x2="443.33" y2="699.25" />
<line class="eventline" x1="650.92" y1="506.50" x2="650.92" y2="699.25" />
<line class="grid" x1="90" y1="699.25" x2="1150" y2="699.25" />
<text class="small" x="80" y="703.25" text-anchor="end">0.00</text>
<line class="grid" x1="90" y1="660.70" x2="1150" y2="660.70" />
<text class="small" x="80" y="664.70" text-anchor="end">0.50</text>
<line class="grid" x1="90" y1="622.15" x2="1150" y2="622.15" />
<text class="small" x="80" y="626.15" text-anchor="end">1.00</text>
<line class="grid" x1="90" y1="583.60" x2="1150" y2="583.60" />
<text class="small" x="80" y="587.60" text-anchor="end">1.50</text>
<line class="grid" x1="90" y1="545.05" x2="1150" y2="545.05" />
<text class="small" x="80" y="549.05" text-anchor="end">2.00</text>
<line class="grid" x1="90" y1="506.50" x2="1150" y2="506.50" />
<text class="small" x="80" y="510.50" text-anchor="end">2.50</text>
<line class="grid" x1="90.00" y1="506.50" x2="90.00" y2="699.25" />
<line class="grid" x1="266.67" y1="506.50" x2="266.67" y2="699.25" />
<line class="grid" x1="443.33" y1="506.50" x2="443.33" y2="699.25" />
<line class="grid" x1="620.00" y1="506.50" x2="620.00" y2="699.25" />
<line class="grid" x1="796.67" y1="506.50" x2="796.67" y2="699.25" />
<line class="grid" x1="973.33" y1="506.50" x2="973.33" y2="699.25" />
<line class="grid" x1="1150.00" y1="506.50" x2="1150.00" y2="699.25" />
<line class="axis" x1="90" y1="506.50" x2="90" y2="699.25" />
<line class="axis" x1="90" y1="699.25" x2="1150" y2="699.25" />
<path class="series" d="M 178.33 610.60 L 179.81 609.54 L 181.28 609.54 L 182.75 677.39 L 184.22 673.69 L 185.69 683.61 L 187.17 638.55 L 188.64 670.10 L 190.11 672.44 L 191.58 668.26 L 193.06 687.70 L 194.53 680.08 L 196.00 677.77 L 197.47 688.66 L 198.94 679.03 L 200.42 680.20 L 201.89 654.98 L 203.36 681.89 L 204.83 678.35 L 206.31 677.51 L 207.78 696.23 L 209.25 682.14 L 210.72 685.09 L 212.19 685.92 L 213.67 665.26 L 215.14 679.34 L 216.61 684.98 L 218.08 690.43 L 219.56 697.20 L 221.03 686.97 L 222.50 681.29 L 223.97 688.65 L 225.44 680.38 L 226.92 679.95 L 228.39 682.42 L 229.86 681.94 L 231.33 680.40 L 232.81 677.48 L 234.28 687.15 L 235.75 657.56 L 237.22 675.80 L 238.69 663.51 L 240.17 688.24 L 241.64 664.91 L 243.11 677.39 L 244.58 686.07 L 246.06 689.75 L 247.53 682.04 L 249.00 656.91 L 250.47 676.78 L 251.94 690.47 L 253.42 676.80 L 254.89 683.92 L 256.36 675.75 L 257.83 681.93 L 259.31 673.22 L 260.78 688.01 L 262.25 650.26 L 263.72 626.87 L 265.19 665.69 L 266.67 670.11 L 268.14 680.28 L 269.61 677.60 L 271.08 652.23 L 272.56 659.23 L 274.03 672.68 L 275.50 668.80 L 276.97 662.97 L 278.44 669.17 L 279.92 680.51 L 281.39 650.87 L 282.86 660.94 L 284.33 671.06 L 285.81 665.42 L 287.28 670.36 L 288.75 685.16 L 290.22 684.00 L 291.69 681.29 L 293.17 688.17 L 294.64 684.89 L 296.11 690.11 L 297.58 689.14 L 299.06 672.25 L 300.53 635.13 L 302.00 655.99 L 303.47 659.13 L 304.94 562.89 L 306.42 680.99 L 307.89 614.37 L 309.36 657.92 L 310.83 666.28 L 312.31 652.97 L 313.78 665.00 L 315.25 654.83 L 316.72 660.54 L 318.19 592.00 L 319.67 603.92 L 321.14 649.79 L 322.61 604.84 L 324.08 656.50 L 325.56 624.26 L 327.03 627.79 L 328.50 650.20 L 329.97 684.10 L 331.44 655.36 L 332.92 674.18 L 334.39 657.20 L 335.86 677.77 L 337.33 651.01 L 338.81 675.77 L 340.28 656.32 L 341.75 656.32 L 343.22 674.31 L 344.69 652.28 L 346.17 661.24 L 347.64 634.32 L 349.11 671.10 L 350.58 683.95 L 352.06 674.25 L 353.53 685.63 L 355.00 669.60 L 356.47 668.73 L 357.94 659.78 L 359.42 663.05 L 360.89 666.21 L 362.36 646.03 L 363.83 678.15 L 365.31 687.91 L 366.78 679.90 L 368.25 687.75 L 369.72 650.80 L 371.19 676.33 L 372.67 665.43 L 374.14 693.94 L 375.61 683.76 L 377.08 664.18 L 378.56 676.22 L 380.03 679.41 L 381.50 690.53 L 382.97 637.94 L 384.44 656.93 L 385.92 655.22 L 387.39 665.49 L 388.86 654.82 L 390.33 640.40 L 391.81 669.85 L 393.28 666.24 L 394.75 657.10 L 396.22 652.10 L 397.69 664.73 L 399.17 644.17 L 400.64 585.65 L 402.11 665.97 L 403.58 661.20 L 405.06 611.65 L 406.53 662.52 L 408.00 609.84 L 409.47 581.75 L 410.94 640.30 L 412.42 661.50 L 413.89 681.23 L 415.36 648.07 L 416.83 654.24 L 418.31 692.67 L 419.78 632.25 L 421.25 679.96 L 422.72 684.44 L 424.19 688.97 L 425.67 684.28 L 427.14 671.41 L 428.61 688.44 L 430.08 686.69 L 431.56 662.70 L 433.03 683.35 L 434.50 690.37 L 435.97 679.47 L 437.44 684.23 L 438.92 683.62 L 440.39 692.73 L 441.86 677.43 L 443.33 697.93 L 444.81 682.30 L 446.28 693.59 L 447.75 688.78 L 449.22 682.81 L 450.69 678.48 L 452.17 695.46 L 453.64 691.89 L 455.11 697.97 L 456.58 698.60 L 458.06 698.06 L 459.53 698.69 L 461.00 698.23 L 462.47 698.52 L 463.94 698.44 L 465.42 698.72 L 466.89 698.60 L 468.36 698.49 L 469.83 699.03 L 471.31 699.15 L 472.78 699.14 L 474.25 699.18 L 475.72 699.04 L 477.19 699.17 L 478.67 699.11 L 480.14 699.04 L 481.61 699.11 L 483.08 699.06 L 484.56 699.10 L 486.03 697.37 L 487.50 694.90 L 488.97 692.16 L 490.44 697.32 L 491.92 697.07 L 493.39 697.89 L 494.86 698.03 L 496.33 698.50 L 497.81 698.27 L 499.28 699.14 L 500.75 698.88 L 502.22 699.21 L 503.69 698.94 L 505.17 699.02 L 506.64 698.99 L 508.11 698.99 L 509.58 699.08 L 511.06 699.02 L 512.53 699.17 L 514.00 699.17 L 515.47 699.03 L 516.94 698.99 L 518.42 692.83 L 519.89 692.38 L 521.36 691.14 L 522.83 696.51 L 524.31 699.01 L 525.78 698.83 L 527.25 699.13 L 528.72 699.11 L 530.19 698.23 L 531.67 698.39 L 533.14 699.09 L 534.61 699.17 L 536.08 699.09 L 537.56 699.12 L 539.03 699.14 L 540.50 699.12 L 541.97 698.96 L 543.44 699.21 L 544.92 698.98 L 546.39 697.64 L 547.86 697.29 L 549.33 695.40 L 550.81 697.77 L 552.28 698.41 L 553.75 698.92 L 555.22 698.78 L 556.69 698.87 L 558.17 698.82 L 559.64 699.08 L 561.11 699.11 L 562.58 699.01 L 564.06 699.08 L 565.53 699.14 L 567.00 699.09 L 568.47 699.01 L 569.94 699.02 L 571.42 699.16 L 572.89 699.21 L 574.36 698.96 L 575.83 699.02 L 577.31 699.17 L 578.78 699.04 L 580.25 699.02 L 581.72 699.13 L 583.19 698.76 L 584.67 698.02 L 586.14 696.33 L 587.61 696.63 L 589.08 697.29 L 590.56 698.14 L 592.03 698.57 L 593.50 698.75 L 594.97 698.77 L 596.44 698.96 L 597.92 699.08 L 599.39 699.04 L 600.86 699.07 L 602.33 699.08 L 603.81 699.06 L 605.28 699.06 L 606.75 699.04 L 608.22 698.95 L 609.69 699.16 L 611.17 699.21 L 612.64 699.17 L 614.11 694.57 L 615.58 695.94 L 617.06 697.48 L 618.53 697.39 L 620.00 698.00 L 621.47 696.66 L 622.94 698.80 L 624.42 697.89 L 625.89 698.79 L 627.36 698.59 L 628.83 699.09 L 630.31 698.90 L 631.78 699.01 L 633.25 699.11 L 634.72 699.03 L 636.19 698.94 L 637.67 698.86 L 639.14 699.07 L 640.61 699.15 L 642.08 699.12 L 643.56 698.78 L 645.03 698.87 L 646.50 696.15 L 647.97 670.17 L 649.44 681.50 L 650.92 666.40 L 652.39 674.69 L 653.86 670.72 L 655.33 676.72 L 656.81 667.98 L 658.28 673.01 L 659.75 663.47 L 661.22 676.59 L 662.69 694.46 L 664.17 678.67 L 665.64 665.19 L 667.11 685.91 L 668.58 655.41 L 670.06 679.74 L 671.53 640.23 L 673.00 668.69 L 674.47 660.20 L 675.94 660.20 L 677.42 669.77 L 678.89 630.49 L 680.36 680.77 L 681.83 636.88 L 683.31 648.49 L 684.78 667.58 L 686.25 669.87 L 687.72 681.93 L 689.19 660.97 L 690.67 679.36 L 692.14 684.59 L 693.61 637.98 L 695.08 641.67 L 696.56 683.35 L 698.03 676.65 L 699.50 657.24 L 700.97 625.15 L 702.44 654.64 L 703.92 682.11 L 705.39 687.59 L 706.86 643.11 L 708.33 649.40 L 709.81 683.12 L 711.28 666.10 L 712.75 680.50 L 714.22 672.85 L 715.69 660.42 L 717.17 683.38 L 718.64 679.52 L 720.11 642.41 L 721.58 643.58 L 723.06 678.65 L 724.53 662.36 L 726.00 652.12 L 727.47 660.22 L 728.94 670.31 L 730.42 621.84 L 731.89 666.13 L 733.36 626.93 L 734.83 639.47 L 736.31 681.47 L 737.78 643.90 L 739.25 669.22 L 740.72 622.56 L 742.19 626.81 L 743.67 576.60 L 745.14 643.74 L 746.61 676.11 L 748.08 657.22 L 749.56 667.63 L 751.03 673.11 L 752.50 673.90 L 753.97 660.68 L 755.44 677.05 L 756.92 683.76 L 758.39 668.87 L 759.86 672.01 L 761.33 654.52 L 762.81 663.97 L 764.28 678.82 L 765.75 680.22 L 767.22 685.14 L 768.69 678.76 L 770.17 686.45 L 771.64 690.85 L 773.11 687.82 L 774.58 692.01 L 776.06 693.79 L 777.53 690.62 L 779.00 685.30 L 780.47 690.79 L 781.94 692.50 L 783.42 692.89 L 784.89 688.39 L 786.36 696.26 L 787.83 694.74 L 789.31 686.40 L 790.78 693.94 L 792.25 689.42 L 793.72 687.36 L 795.19 686.14 L 796.67 690.66 L 798.14 691.41 L 799.61 693.99 L 801.08 678.18 L 802.56 690.52 L 804.03 682.61 L 805.50 673.59 L 806.97 687.12 L 808.44 685.01 L 809.92 673.22 L 811.39 683.27 L 812.86 684.83 L 814.33 695.08 L 815.81 692.89 L 817.28 688.07 L 818.75 694.95 L 820.22 690.67 L 821.69 694.34 L 823.17 696.49 L 824.64 674.82 L 826.11 686.45 L 827.58 691.16 L 829.06 691.27 L 830.53 694.98 L 832.00 693.90 L 833.47 696.80 L 834.94 694.48 L 836.42 693.90 L 837.89 694.57 L 839.36 696.14 L 840.83 691.47 L 842.31 688.43 L 843.78 685.68 L 845.25 692.14 L 846.72 687.11 L 848.19 687.11 L 849.67 691.51 L 851.14 682.68 L 852.61 696.73 L 854.08 687.56 L 855.56 691.83 L 857.03 685.06 L 858.50 678.70 L 859.97 690.61 L 861.44 678.78 L 862.92 680.15 L 864.39 680.14 L 865.86 672.63 L 867.33 671.36 L 868.81 667.21 L 870.28 674.94 L 871.75 681.42 L 873.22 681.42 L 874.69 682.66 L 876.17 671.56 L 877.64 685.61 L 879.11 685.47 L 880.58 693.48 L 882.06 689.50 L 883.53 679.11 L 885.00 680.52 L 886.47 677.76 L 887.94 679.74 L 889.42 690.36 L 890.89 663.85 L 892.36 639.85 L 893.83 674.68 L 895.31 680.21 L 896.78 682.89 L 898.25 675.02 L 899.72 680.23 L 901.19 682.18 L 902.67 662.30 L 904.14 668.39 L 905.61 672.80 L 907.08 677.26 L 908.56 685.74 L 910.03 674.62 L 911.50 683.51 L 912.97 674.31 L 914.44 655.94 L 915.92 672.26" stroke="#FB8C00" />
<text x="90" y="711.25" font-size="14" font-weight="700">Giroscópio (magnitude) (u.a.)</text>
<rect class="event" x="443.33" y="717.25" width="207.58" height="192.75" />
<line class="eventline" x1="443.33" y1="717.25" x2="443.33" y2="910.00" />
<line class="eventline" x1="650.92" y1="717.25" x2="650.92" y2="910.00" />
<line class="grid" x1="90" y1="910.00" x2="1150" y2="910.00" />
<text class="small" x="80" y="914.00" text-anchor="end">0.00</text>
<line class="grid" x1="90" y1="871.45" x2="1150" y2="871.45" />
<text class="small" x="80" y="875.45" text-anchor="end">0.10</text>
<line class="grid" x1="90" y1="832.90" x2="1150" y2="832.90" />
<text class="small" x="80" y="836.90" text-anchor="end">0.20</text>
<line class="grid" x1="90" y1="794.35" x2="1150" y2="794.35" />
<text class="small" x="80" y="798.35" text-anchor="end">0.30</text>
<line class="grid" x1="90" y1="755.80" x2="1150" y2="755.80" />
<text class="small" x="80" y="759.80" text-anchor="end">0.40</text>
<line class="grid" x1="90" y1="717.25" x2="1150" y2="717.25" />
<text class="small" x="80" y="721.25" text-anchor="end">0.50</text>
<line class="grid" x1="90.00" y1="717.25" x2="90.00" y2="910.00" />
<line class="grid" x1="266.67" y1="717.25" x2="266.67" y2="910.00" />
<line class="grid" x1="443.33" y1="717.25" x2="443.33" y2="910.00" />
<line class="grid" x1="620.00" y1="717.25" x2="620.00" y2="910.00" />
<line class="grid" x1="796.67" y1="717.25" x2="796.67" y2="910.00" />
<line class="grid" x1="973.33" y1="717.25" x2="973.33" y2="910.00" />
<line class="grid" x1="1150.00" y1="717.25" x2="1150.00" y2="910.00" />
<line class="axis" x1="90" y1="717.25" x2="90" y2="910.00" />
<line class="axis" x1="90" y1="910.00" x2="1150" y2="910.00" />
<path class="series" d="M 178.33 846.76 L 179.81 841.80 L 181.28 841.80 L 182.75 866.87 L 184.22 884.09 L 185.69 883.62 L 187.17 901.16 L 188.64 907.54 L 190.11 900.90 L 191.58 906.14 L 193.06 905.82 L 194.53 902.79 L 196.00 906.36 L 197.47 903.87 L 198.94 901.40 L 200.42 906.41 L 201.89 898.31 L 203.36 903.47 L 204.83 902.90 L 206.31 902.14 L 207.78 905.91 L 209.25 906.77 L 210.72 905.46 L 212.19 905.29 L 213.67 902.81 L 215.14 904.45 L 216.61 903.74 L 218.08 904.08 L 219.56 904.21 L 221.03 904.48 L 222.50 900.11 L 223.97 905.72 L 225.44 903.27 L 226.92 905.64 L 228.39 905.25 L 229.86 904.19 L 231.33 903.42 L 232.81 898.35 L 234.28 899.58 L 235.75 890.81 L 237.22 886.63 L 238.69 881.39 L 240.17 885.92 L 241.64 874.32 L 243.11 876.10 L 244.58 877.35 L 246.06 881.28 L 247.53 891.23 L 249.00 897.77 L 250.47 894.11 L 251.94 888.40 L 253.42 891.80 L 254.89 897.18 L 256.36 902.53 L 257.83 903.38 L 259.31 906.38 L 260.78 905.27 L 262.25 897.02 L 263.72 854.64 L 265.19 848.55 L 266.67 872.73 L 268.14 874.55 L 269.61 876.27 L 271.08 887.32 L 272.56 898.25 L 274.03 891.96 L 275.50 889.48 L 276.97 905.45 L 278.44 900.79 L 279.92 900.45 L 281.39 892.56 L 282.86 885.22 L 284.33 886.91 L 285.81 892.88 L 287.28 891.84 L 288.75 895.96 L 290.22 895.99 L 291.69 899.34 L 293.17 900.58 L 294.64 900.25 L 296.11 900.52 L 297.58 904.27 L 299.06 900.68 L 300.53 892.80 L 302.00 877.46 L 303.47 872.58 L 304.94 842.55 L 306.42 831.88 L 307.89 896.12 L 309.36 893.16 L 310.83 903.96 L 312.31 891.08 L 313.78 871.03 L 315.25 885.25 L 316.72 891.97 L 318.19 870.59 L 319.67 883.45 L 321.14 906.55 L 322.61 878.06 L 324.08 869.00 L 325.56 890.18 L 327.03 887.26 L 328.50 900.44 L 329.97 902.56 L 331.44 888.71 L 332.92 883.39 L 334.39 879.74 L 335.86 883.81 L 337.33 896.94 L 338.81 895.10 L 340.28 904.86 L 341.75 904.86 L 343.22 901.62 L 344.69 897.43 L 346.17 875.41 L 347.64 897.66 L 349.11 900.44 L 350.58 905.90 L 352.06 900.18 L 353.53 901.30 L 355.00 903.02 L 356.47 892.63 L 357.94 902.22 L 359.42 898.39 L 360.89 894.93 L 362.36 897.28 L 363.83 896.32 L 365.31 885.41 L 366.78 897.17 L 368.25 901.18 L 369.72 894.48 L 371.19 895.20 L 372.67 895.42 L 374.14 896.46 L 375.61 900.66 L 377.08 896.08 L 378.56 898.26 L 380.03 899.67 L 381.50 901.69 L 382.97 884.69 L 384.44 876.80 L 385.92 885.15 L 387.39 876.98 L 388.86 894.51 L 390.33 883.96 L 391.81 864.12 L 393.28 853.99 L 394.75 846.77 L 396.22 859.11 L 397.69 859.71 L 399.17 854.90 L 400.64 829.36 L 402.11 802.90 L 403.58 796.35 L 405.06 805.23 L 406.53 805.15 L 408.00 819.93 L 409.47 860.12 L 410.94 896.49 L 412.42 904.61 L 413.89 907.14 L 415.36 902.57 L 416.83 884.90 L 418.31 869.09 L 419.78 869.42 L 421.25 866.13 L 422.72 864.31 L 424.19 866.66 L 425.67 865.83 L 427.14 881.75 L 428.61 899.59 L 430.08 904.77 L 431.56 904.52 L 433.03 899.54 L 434.50 906.64 L 435.97 906.07 L 437.44 905.95 L 438.92 905.47 L 440.39 904.02 L 441.86 907.27 L 443.33 906.19 L 444.81 904.74 L 446.28 903.04 L 447.75 905.15 L 449.22 907.44 L 450.69 908.45 L 452.17 908.35 L 453.64 909.11 L 455.11 908.88 L 456.58 909.07 L 458.06 909.05 L 459.53 909.04 L 461.00 909.03 L 462.47 909.08 L 463.94 909.09 L 465.42 908.99 L 466.89 909.07 L 468.36 909.50 L 469.83 909.95 L 471.31 909.97 L 472.78 909.98 L 474.25 909.93 L 475.72 909.94 L 477.19 909.89 L 478.67 909.94 L 480.14 909.94 L 481.61 909.95 L 483.08 909.95 L 484.56 909.89 L 486.03 909.50 L 487.50 907.85 L 488.97 909.34 L 490.44 909.89 L 491.92 909.77 L 493.39 909.87 L 494.86 909.84 L 496.33 909.93 L 497.81 909.93 L 499.28 909.95 L 500.75 909.95 L 502.22 909.89 L 503.69 909.96 L 505.17 909.94 L 506.64 909.93 L 508.11 909.93 L 509.58 909.98 L 511.06 909.89 L 512.53 909.95 L 514.00 909.96 L 515.47 909.91 L 516.94 909.63 L 518.42 909.35 L 519.89 908.82 L 521.36 909.53 L 522.83 909.84 L 524.31 909.94 L 525.78 909.93 L 527.25 909.95 L 528.72 909.95 L 530.19 909.90 L 531.67 909.96 L 533.14 909.98 L 534.61 909.94 L 536.08 909.95 L 537.56 909.95 L 539.03 909.93 L 540.50 909.96 L 541.97 909.92 L 543.44 909.94 L 544.92 909.88 L 546.39 909.59 L 547.86 908.80 L 549.33 908.76 L 550.81 909.83 L 552.28 909.94 L 553.75 909.95 L 555.22 909.85 L 556.69 909.92 L 558.17 909.95 L 559.64 909.98 L 561.11 909.90 L 562.58 909.93 L 564.06 909.88 L 565.53 909.94 L 567.00 909.91 L 568.47 909.90 L 569.94 909.98 L 571.42 909.96 L 572.89 909.92 L 574.36 909.98 L 575.83 909.97 L 577.31 909.97 L 578.78 909.94 L 580.25 909.91 L 581.72 909.97 L 583.19 909.82 L 584.67 909.59 L 586.14 908.79 L 587.61 909.25 L 589.08 909.79 L 590.56 909.88 L 592.03 909.97 L 593.50 909.92 L 594.97 909.92 L 596.44 909.96 L 597.92 909.95 L 599.39 909.96 L 600.86 909.88 L 602.33 909.93 L 603.81 909.98 L 605.28 909.98 L 606.75 909.94 L 608.22 909.89 L 609.69 910.00 L 611.17 909.97 L 612.64 909.94 L 614.11 909.20 L 615.58 909.83 L 617.06 909.68 L 618.53 909.73 L 620.00 908.85 L 621.47 908.62 L 622.94 909.90 L 624.42 909.89 L 625.89 909.94 L 627.36 909.98 L 628.83 909.92 L 630.31 909.92 L 631.78 909.94 L 633.25 909.97 L 634.72 909.94 L 636.19 909.94 L 637.67 909.97 L 639.14 909.88 L 640.61 909.93 L 642.08 909.96 L 643.56 909.97 L 645.03 909.55 L 646.50 908.12 L 647.97 905.79 L 649.44 899.52 L 650.92 891.59 L 652.39 899.88 L 653.86 875.29 L 655.33 887.96 L 656.81 887.11 L 658.28 889.59 L 659.75 890.14 L 661.22 905.84 L 662.69 899.48 L 664.17 904.95 L 665.64 900.10 L 667.11 900.13 L 668.58 892.48 L 670.06 898.59 L 671.53 893.21 L 673.00 888.82 L 674.47 872.50 L 675.94 872.50 L 677.42 879.14 L 678.89 900.41 L 680.36 894.92 L 681.83 890.09 L 683.31 902.22 L 684.78 893.52 L 686.25 900.42 L 687.72 902.38 L 689.19 891.43 L 690.67 879.17 L 692.14 899.21 L 693.61 889.32 L 695.08 899.27 L 696.56 889.59 L 698.03 902.30 L 699.50 893.12 L 700.97 886.09 L 702.44 888.33 L 703.92 894.13 L 705.39 883.37 L 706.86 897.70 L 708.33 903.62 L 709.81 900.96 L 711.28 890.60 L 712.75 902.22 L 714.22 903.12 L 715.69 891.36 L 717.17 892.94 L 718.64 900.68 L 720.11 876.88 L 721.58 887.15 L 723.06 889.70 L 724.53 890.47 L 726.00 880.63 L 727.47 875.63 L 728.94 869.79 L 730.42 888.62 L 731.89 895.67 L 733.36 890.69 L 734.83 890.51 L 736.31 886.74 L 737.78 899.55 L 739.25 897.13 L 740.72 890.91 L 742.19 860.17 L 743.67 886.33 L 745.14 893.56 L 746.61 888.49 L 748.08 884.88 L 749.56 870.35 L 751.03 865.94 L 752.50 876.39 L 753.97 879.88 L 755.44 874.97 L 756.92 870.74 L 758.39 874.44 L 759.86 881.93 L 761.33 882.28 L 762.81 893.23 L 764.28 888.84 L 765.75 894.72 L 767.22 900.25 L 768.69 902.23 L 770.17 905.31 L 771.64 906.28 L 773.11 907.55 L 774.58 908.06 L 776.06 907.22 L 777.53 905.47 L 779.00 907.16 L 780.47 908.02 L 781.94 908.37 L 783.42 907.91 L 784.89 905.38 L 786.36 905.93 L 787.83 906.14 L 789.31 902.25 L 790.78 899.53 L 792.25 900.94 L 793.72 903.12 L 795.19 904.70 L 796.67 904.93 L 798.14 906.09 L 799.61 903.89 L 801.08 907.16 L 802.56 900.11 L 804.03 903.40 L 805.50 904.80 L 806.97 907.23 L 808.44 903.45 L 809.92 905.64 L 811.39 905.34 L 812.86 904.54 L 814.33 906.71 L 815.81 906.14 L 817.28 904.69 L 818.75 904.26 L 820.22 906.24 L 821.69 906.95 L 823.17 905.76 L 824.64 906.37 L 826.11 908.10 L 827.58 905.47 L 829.06 906.57 L 830.53 906.93 L 832.00 906.79 L 833.47 906.97 L 834.94 906.79 L 836.42 905.93 L 837.89 906.22 L 839.36 906.24 L 840.83 906.88 L 842.31 907.73 L 843.78 907.83 L 845.25 907.38 L 846.72 904.10 L 848.19 904.10 L 849.67 905.48 L 851.14 904.50 L 852.61 902.45 L 854.08 902.80 L 855.56 905.56 L 857.03 903.96 L 858.50 904.09 L 859.97 905.03 L 861.44 896.88 L 862.92 894.14 L 864.39 896.14 L 865.86 890.40 L 867.33 883.36 L 868.81 881.14 L 870.28 875.82 L 871.75 881.84 L 873.22 882.66 L 874.69 885.81 L 876.17 896.29 L 877.64 903.68 L 879.11 899.69 L 880.58 897.87 L 882.06 897.62 L 883.53 892.27 L 885.00 887.75 L 886.47 887.44 L 887.94 888.55 L 889.42 893.73 L 890.89 885.44 L 892.36 873.29 L 893.83 873.15 L 895.31 875.88 L 896.78 874.58 L 898.25 885.08 L 899.72 884.82 L 901.19 888.64 L 902.67 897.30 L 904.14 907.19 L 905.61 906.31 L 907.08 903.33 L 908.56 904.50 L 910.03 898.48 L 911.50 905.77 L 912.97 898.37 L 914.44 895.73 L 915.92 902.75" stroke="#E53935" />
<text x="620.00" y="952" font-size="15" text-anchor="middle">minutos (relativo ao início do evento)</text>
<text class="small" x="90.00" y="936" text-anchor="middle">-4.00</text>
<text class="small" x="266.67" y="936" text-anchor="middle">-2.00</text>
<text class="small" x="443.33" y="936" text-anchor="middle">0.00</text>
<text class="small" x="620.00" y="936" text-anchor="middle">2.00</text>
<text class="small" x="796.67" y="936" text-anchor="middle">4.00</text>
<text class="small" x="973.33" y="936" text-anchor="middle">6.00</text>
<text class="small" x="1150.00" y="936" text-anchor="middle">8.00</text>
</svg>