<?xml version="1.0" encoding="UTF-8"?>
<svg xmlns="http://www.w3.org/2000/svg" width="1180" height="980" viewBox="0 0 1180 980">
<style>
text { font-family: -apple-system, BlinkMacSystemFont, 'Segoe UI', Roboto, Helvetica, Arial, sans-serif; fill: #111; }
.small { font-size: 12px; fill: #222; }
.title { font-size: 18px; font-weight: 700; }
.axis { stroke: #111; stroke-width: 1.4; }
.grid { stroke: #E6E6E6; stroke-width: 1; }
.event { fill: #FFEB3B; fill-opacity: 0.18; }
.eventline { stroke: #F9A825; stroke-width: 1.2; stroke-dasharray: 4 3; }
.series { fill: none; stroke-width: 1.8; }
</style>
<text class="title" x="90" y="34">ciclo 10 — espera_carregamento — 2025-12-12T21:19:39-03:00 → 2025-12-12T21:22:52-03:00 (span 193s, dur 194s)</text>
<text class="small" x="90" y="54">GPS: -11.698929,-47.157380  hotspot: -11.699,-47.157</text>
<text class="small" x="90" y="70">Janela: -3.00 → 6.22 min (relativo ao início do evento)</text>
<text x="90" y="79.00" font-size="14" font-weight="700">Velocidade (km/h)</text>
<rect class="event" x="443.33" y="85.00" width="284.14" height="192.75" />
<line class="eventline" x1="443.33" y1="85.00" x2="443.33" y2="277.75" />
<line class="eventline" x1="727.47" y1="85.00" x2="727.47" y2="277.75" />
<line class="grid" x1="90" y1="277.75" x2="1150" y2="277.75" />
<text class="small" x="80" y="281.75" text-anchor="end">0.00</text>
<line class="grid" x1="90" y1="239.20" x2="1150" y2="239.20" />
<text class="small" x="80" y="243.20" text-anchor="end">5.00</text>
<line class="grid" x1="90" y1="200.65" x2="1150" y2="200.65" />
<text class="small" x="80" y="204.65" text-anchor="end">10.0</text>
<line class="grid" x1="90" y1="162.10" x2="1150" y2="162.10" />
<text class="small" x="80" y="166.10" text-anchor="end">15.0</text>
<line class="grid" x1="90" y1="123.55" x2="1150" y2="123.55" />
<text class="small" x="80" y="127.55" text-anchor="end">20.0</text>
<line class="grid" x1="90" y1="85.00" x2="1150" y2="85.00" />
<text class="small" x="80" y="89.00" text-anchor="end">25.0</text>
<line class="grid" x1="90.00" y1="85.00" x2="90.00" y2="277.75" />
<line class="grid" x1="266.67" y1="85.00" x2="266.67" y2="277.75" />
<line class="grid" x1="443.33" y1="85.00" x2="443.33" y2="277.75" />
<line class="grid" x1="620.00" y1="85.00" x2="620.00" y2="277.75" />
<line class="grid" x1="796.67" y1="85.00" x2="796.67" y2="277.75" />
<line class="grid" x1="973.33" y1="85.00" x2="973.33" y2="277.75" />
<line class="grid" x1="1150.00" y1="85.00" x2="1150.00" y2="277.75" />
<line class="axis" x1="90" y1="85.00" x2="90" y2="277.75" />
<line class="axis" x1="90" y1="277.75" x2="1150" y2="277.75" />
<path class="series" d="M 178.33 277.75 L 179.81 277.75 L 181.28 277.75 L 182.75 277.75 L 184.22 277.75 L 185.69 277.75 L 187.17 277.75 L 188.64 277.75 L 190.11 277.75 L 191.58 277.75 L 193.06 277.75 L 194.53 277.75 L 196.00 277.75 L 197.47 277.75 L 198.94 277.75 L 200.42 277.75 L 201.89 277.75 L 203.36 277.75 L 204.83 277.75 L 206.31 277.75 L 207.78 277.75 L 209.25 277.75 L 210.72 277.75 L 212.19 277.75 L 213.67 277.75 L 215.14 277.75 L 216.61 277.75 L 218.08 277.75 L 219.56 277.75 L 221.03 277.75 L 222.50 277.75 L 223.97 277.75 L 225.44 277.75 L 226.92 277.75 L 228.39 277.75 L 229.86 277.75 L 231.33 277.75 L 232.81 277.75 L 234.28 277.75 L 235.75 277.75 L 237.22 277.75 L 238.69 277.75 L 240.17 277.75 L 241.64 277.75 L 243.11 277.75 L 244.58 277.75 L 246.06 277.75 L 247.53 277.75 L 249.00 277.75 L 250.47 277.75 L 251.94 277.75 L 253.42 277.75 L 254.89 277.75 L 256.36 277.75 L 257.83 277.75 L 259.31 277.75 L 260.78 277.75 L 262.25 277.75 L 263.72 277.75 L 265.19 277.75 L 266.67 277.75 L 268.14 277.75 L 269.61 277.75 L 271.08 277.75 L 272.56 277.75 L 274.03 277.75 L 275.50 277.75 L 276.97 277.75 L 278.44 277.75 L 279.92 277.75 L 281.39 277.75 L 282.86 277.75 L 284.33 277.75 L 285.81 277.75 L 287.28 277.75 L 288.75 277.75 L 290.22 277.75 L 291.69 277.75 L 293.17 277.75 L 294.64 277.75 L 296.11 277.75 L 297.58 277.75 L 299.06 277.75 L 300.53 277.75 L 302.00 277.75 L 303.47 277.75 L 304.94 277.75 L 306.42 277.75 L 307.89 277.75 L 309.36 277.75 L 310.83 277.75 L 312.31 277.75 L 313.78 277.75 L 315.25 277.75 L 316.72 277.75 L 318.19 277.75 L 319.67 277.75 L 321.14 277.75 L 322.61 277.75 L 324.08 277.75 L 325.56 277.75 L 327.03 277.75 L 328.50 277.75 L 329.97 277.75 L 331.44 277.75 L 332.92 277.75 L 334.39 277.75 L 335.86 277.75 L 337.33 277.75 L 338.81 277.75 L 340.28 277.75 L 341.75 277.75 L 343.22 277.75 L 344.69 277.75 L 346.17 277.75 L 347.64 277.75 L 349.11 277.75 L 350.58 277.75 L 352.06 277.75 L 353.53 277.75 L 355.00 277.75 L 356.47 277.75 L 357.94 277.75 L 359.42 277.75 L 360.89 277.75 L 362.36 277.75 L 363.83 277.75 L 365.31 277.75 L 366.78 277.75 L 368.25 277.75 L 369.72 277.75 L 371.19 277.75 L 372.67 277.75 L 374.14 277.75 L 375.61 277.75 L 377.08 277.75 L 378.56 277.75 L 380.03 277.75 L 381.50 277.75 L 382.97 277.75 L 384.44 266.09 L 385.92 264.43 L 387.39 264.15 L 388.86 248.61 L 390.33 249.16 L 391.81 250.83 L 393.28 248.88 L 394.75 245.55 L 396.22 245.28 L 397.69 248.05 L 399.17 250.55 L 400.64 248.88 L 402.11 248.33 L 403.58 250.83 L 405.06 250.27 L 406.53 257.49 L 408.00 251.10 L 409.47 252.77 L 410.94 258.88 L 412.42 257.77 L 413.89 265.26 L 415.36 277.75 L 416.83 277.75 L 418.31 277.75 L 419.78 277.75 L 421.25 277.75 L 422.72 277.75 L 424.19 277.75 L 425.67 277.75 L 427.14 277.75 L 428.61 277.75 L 430.08 277.75 L 431.56 234.17 L 433.03 242.78 L 434.50 252.77 L 435.97 256.38 L 437.44 262.76 L 438.92 261.65 L 440.39 255.55 L 441.86 260.54 L 443.33 277.75 L 444.81 277.75 L 446.28 277.75 L 447.75 277.75 L 449.22 277.75 L 450.69 277.75 L 452.17 277.75 L 453.64 277.75 L 455.11 277.75 L 456.58 277.75 L 458.06 277.75 L 459.53 277.75 L 461.00 277.75 L 462.47 277.75 L 463.94 277.75 L 465.42 277.75 L 466.89 277.75 L 468.36 277.75 L 469.83 277.75 L 471.31 277.75 L 472.78 277.75 L 474.25 277.75 L 475.72 277.75 L 477.19 277.75 L 478.67 277.75 L 480.14 277.75 L 481.61 277.75 L 483.08 277.75 L 484.56 277.75 L 486.03 277.75 L 487.50 277.75 L 488.97 277.75 L 490.44 277.75 L 491.92 277.75 L 493.39 277.75 L 494.86 277.75 L 496.33 277.75 L 497.81 277.75 L 499.28 277.75 L 500.75 277.75 L 502.22 277.75 L 503.69 277.75 L 505.17 277.75 L 506.64 277.75 L 508.11 277.75 L 509.58 277.75 L 511.06 277.75 L 512.53 277.75 L 514.00 277.75 L 515.47 277.75 L 516.94 277.75 L 518.42 277.75 L 519.89 277.75 L 521.36 277.75 L 522.83 277.75 L 524.31 277.75 L 525.78 277.75 L 527.25 277.75 L 528.72 277.75 L 530.19 277.75 L 531.67 277.75 L 533.14 277.75 L 534.61 277.75 L 536.08 277.75 L 537.56 277.75 L 539.03 277.75 L 540.50 277.75 L 541.97 277.75 L 543.44 277.75 L 544.92 277.75 L 546.39 277.75 L 547.86 277.75 L 549.33 277.75 L 550.81 277.75 L 552.28 277.75 L 553.75 277.75 L 555.22 277.75 L 556.69 277.75 L 558.17 277.75 L 559.64 277.75 L 561.11 277.75 L 562.58 277.75 L 564.06 277.75 L 565.53 277.75 L 567.00 277.75 L 568.47 277.75 L 569.94 277.75 L 571.42 277.75 L 572.89 277.75 L 574.36 277.75 L 575.83 277.75 L 577.31 277.75 L 578.78 277.75 L 580.25 277.75 L 581.72 277.75 L 583.19 277.75 L 584.67 277.75 L 586.14 277.75 L 587.61 277.75 L 589.08 277.75 L 590.56 277.75 L 592.03 277.75 L 593.50 277.75 L 594.97 277.75 L 596.44 277.75 L 597.92 277.75 L 599.39 277.75 L 600.86 277.75 L 602.33 277.75 L 603.81 277.75 L 605.28 277.75 L 606.75 277.75 L 608.22 277.75 L 609.69 277.75 L 611.17 277.75 L 612.64 277.75 L 614.11 277.75 L 615.58 277.75 L 617.06 277.75 L 618.53 277.75 L 620.00 277.75 L 621.47 277.75 L 622.94 277.75 L 624.42 277.75 L 625.89 277.75 L 627.36 277.75 L 628.83 277.75 L 630.31 277.75 L 631.78 277.75 L 633.25 277.75 L 634.72 277.75 L 636.19 277.75 L 637.67 277.75 L 639.14 277.75 L 640.61 277.75 L 642.08 277.75 L 643.56 277.75 L 645.03 277.75 L 646.50 277.75 L 647.97 277.75 L 649.44 277.75 L 650.92 277.75 L 652.39 277.75 L 653.86 277.75 L 655.33 277.75 L 656.81 277.75 L 658.28 277.75 L 659.75 277.75 L 661.22 277.75 L 662.69 277.75 L 664.17 277.75 L 665.64 277.75 L 667.11 277.75 L 668.58 277.75 L 670.06 277.75 L 671.53 277.75 L 673.00 277.75 L 674.47 277.75 L 675.94 277.75 L 677.42 277.75 L 678.89 277.75 L 680.36 277.75 L 681.83 277.75 L 683.31 277.75 L 684.78 277.75 L 686.25 277.75 L 687.72 277.75 L 689.19 277.75 L 690.67 277.75 L 692.14 277.75 L 693.61 277.75 L 695.08 277.75 L 696.56 277.75 L 698.03 277.75 L 699.50 277.75 L 700.97 277.75 L 702.44 277.75 L 703.92 277.75 L 705.39 277.75 L 706.86 277.75 L 708.33 277.75 L 709.81 277.75 L 711.28 277.75 L 712.75 277.75 L 714.22 277.75 L 715.69 277.75 L 717.17 277.75 L 718.64 277.75 L 720.11 277.75 L 721.58 277.75 L 723.06 277.75 L 724.53 277.75 L 726.00 277.75 L 727.47 277.75 L 728.94 262.48 L 730.42 245.55 L 731.89 235.28 L 733.36 228.62 L 734.83 235.01 L 736.31 237.50 L 737.78 229.18 L 739.25 233.06 L 740.72 234.45 L 742.19 228.34 L 743.67 229.73 L 745.14 231.95 L 746.61 233.90 L 748.08 236.39 L 749.56 234.45 L 751.03 228.62 L 752.50 225.29 L 753.97 221.41 L 755.44 210.58 L 756.92 205.31 L 758.39 197.81 L 759.86 192.26 L 761.33 192.54 L 762.81 192.26 L 764.28 198.92 L 765.75 196.98 L 767.22 198.09 L 768.69 202.53 L 770.17 203.09 L 771.64 186.16 L 773.11 181.44 L 774.58 180.88 L 776.06 173.11 L 777.53 169.50 L 779.00 161.45 L 780.47 160.06 L 781.94 160.34 L 783.42 157.84 L 784.89 146.74 L 786.36 148.68 L 787.83 155.07 L 789.31 155.90 L 790.78 156.18 L 792.25 159.51 L 793.72 158.95 L 795.19 160.90 L 796.67 158.95 L 798.14 153.13 L 799.61 151.18 L 801.08 149.52 L 802.56 149.24 L 804.03 147.30 L 805.50 159.51 L 806.97 277.75 L 808.44 150.91 L 809.92 149.24 L 811.39 151.18 L 812.86 162.29 L 814.33 159.79 L 815.81 157.01 L 817.28 154.51 L 818.75 153.68 L 820.22 155.35 L 821.69 153.96 L 823.17 152.29 L 824.64 156.18 L 826.11 152.85 L 827.58 153.13 L 829.06 153.13 L 830.53 168.39 L 832.00 180.33 L 833.47 174.78 L 834.94 180.60 L 836.42 185.60 L 837.89 195.31 L 839.36 202.53 L 840.83 210.03 L 842.31 211.14 L 843.78 206.97 L 845.25 203.36 L 846.72 200.31 L 848.19 198.65 L 849.67 203.09 L 851.14 204.47 L 852.61 209.47 L 854.08 209.19 L 855.56 207.53 L 857.03 229.18 L 858.50 225.01 L 859.97 237.78 L 861.44 233.06 L 862.92 232.51 L 864.39 215.85 L 865.86 226.40 L 867.33 221.41 L 868.81 214.74 L 870.28 209.75 L 871.75 210.86 L 873.22 218.35 L 874.69 227.51 L 876.17 231.95 L 877.64 237.78 L 879.11 246.11 L 880.58 247.77 L 882.06 239.72 L 883.53 235.28 L 885.00 231.68 L 886.47 229.45 L 887.94 227.51 L 889.42 223.90 L 890.89 211.69 L 892.36 199.20 L 893.83 204.20 L 895.31 186.71 L 896.78 175.89 L 898.25 165.89 L 899.72 165.34 L 901.19 167.00 L 902.67 161.45 L 904.14 154.79 L 905.61 152.29 L 907.08 150.35 L 908.56 142.30 L 910.03 154.51 L 911.50 161.45 L 912.97 172.00 L 914.44 172.00 L 915.92 185.32 L 917.39 176.16 L 918.86 182.55 L 920.33 186.71 L 921.81 190.04 L 923.28 200.31 L 924.75 194.76 L 926.22 194.76 L 927.69 200.59 L 929.17 190.60 L 930.64 195.04 L 932.11 195.31 L 933.58 193.65 L 935.06 195.59 L 936.53 195.04 L 938.00 196.70 L 939.47 199.20 L 940.94 201.70 L 942.42 202.53 L 943.89 207.80 L 945.36 211.41 L 946.83 213.91 L 948.31 226.68 L 949.78 225.85 L 951.25 228.34 L 952.72 227.79 L 954.19 228.34 L 955.67 233.90 L 957.14 235.84 L 958.61 240.56 L 960.08 236.67 L 961.56 234.17 L 963.03 231.95 L 964.50 229.73 L 965.97 230.84 L 967.44 230.01 L 968.92 228.34 L 970.39 226.68 L 971.86 224.18 L 973.33 220.30 L 974.81 216.96 L 976.28 217.52 L 977.75 216.96 L 979.22 218.91 L 980.69 218.07 L 982.17 220.02 L 983.64 221.13 L 985.11 219.18 L 986.58 217.52 L 988.06 219.46 L 989.53 214.74 L 991.00 214.47 L 992.47 213.08" stroke="#1976D2" />
<text x="90" y="289.75" font-size="14" font-weight="700">Inclinação (graus)</text>
<rect class="event" x="443.33" y="295.75" width="284.14" height="192.75" />
<line class="eventline" x1="443.33" y1="295.75" x2="443.33" y2="488.50" />
<line class="eventline" x1="727.47" y1="295.75" x2="727.47" y2="488.50" />
<line class="grid" x1="90" y1="488.50" x2="1150" y2="488.50" />
<text class="small" x="80" y="492.50" text-anchor="end">-20.0</text>
<line class="grid" x1="90" y1="449.95" x2="1150" y2="449.95" />
<text class="small" x="80" y="453.95" text-anchor="end">-10.0</text>
<line class="grid" x1="90" y1="411.40" x2="1150" y2="411.40" />
<text class="small" x="80" y="415.40" text-anchor="end">0.00</text>
<line class="grid" x1="90" y1="372.85" x2="1150" y2="372.85" />
<text class="small" x="80" y="376.85" text-anchor="end">10.0</text>
<line class="grid" x1="90" y1="334.30" x2="1150" y2="334.30" />
<text class="small" x="80" y="338.30" text-anchor="end">20.0</text>
<line class="grid" x1="90" y1="295.75" x2="1150" y2="295.75" />
<text class="small" x="80" y="299.75" text-anchor="end">30.0</text>
<line class="grid" x1="90.00" y1="295.75" x2="90.00" y2="488.50" />
<line class="grid" x1="266.67" y1="295.75" x2="266.67" y2="488.50" />
<line class="grid" x1="443.33" y1="295.75" x2="443.33" y2="488.50" />
<line class="grid" x1="620.00" y1="295.75" x2="620.00" y2="488.50" />
<line class="grid" x1="796.67" y1="295.75" x2="796.67" y2="488.50" />
<line class="grid" x1="973.33" y1="295.75" x2="973.33" y2="488.50" />
<line class="grid" x1="1150.00" y1="295.75" x2="1150.00" y2="488.50" />
<line class="axis" x1="90" y1="295.75" x2="90" y2="488.50" />
<line class="axis" x1="90" y1="488.50" x2="1150" y2="488.50" />
<path class="series" d="M 178.33 356.53 L 179.81 356.58 L 181.28 356.61 L 182.75 356.58 L 184.22 356.62 L 185.69 356.54 L 187.17 356.60 L 188.64 356.63 L 190.11 356.59 L 191.58 356.55 L 193.06 356.59 L 194.53 356.61 L 196.00 356.59 L 197.47 356.56 L 198.94 356.60 L 200.42 356.59 L 201.89 356.64 L 203.36 356.59 L 204.83 356.62 L 206.31 356.63 L 207.78 356.63 L 209.25 356.65 L 210.72 356.60 L 212.19 356.58 L 213.67 356.64 L 215.14 356.66 L 216.61 356.57 L 218.08 356.62 L 219.56 356.62 L 221.03 356.64 L 222.50 356.62 L 223.97 356.63 L 225.44 356.67 L 226.92 356.59 L 228.39 356.63 L 229.86 356.63 L 231.33 356.62 L 232.81 356.66 L 234.28 356.65 L 235.75 356.61 L 237.22 356.65 L 238.69 356.66 L 240.17 356.60 L 241.64 356.52 L 243.11 356.60 L 244.58 356.61 L 246.06 356.56 L 247.53 356.57 L 249.00 356.57 L 250.47 356.58 L 251.94 356.63 L 253.42 356.55 L 254.89 356.55 L 256.36 356.61 L 257.83 356.65 L 259.31 356.61 L 260.78 356.63 L 262.25 356.66 L 263.72 356.65 L 265.19 356.62 L 266.67 356.61 L 268.14 356.67 L 269.61 356.64 L 271.08 356.63 L 272.56 356.61 L 274.03 356.60 L 275.50 356.62 L 276.97 356.60 L 278.44 356.53 L 279.92 356.58 L 281.39 356.61 L 282.86 356.61 L 284.33 356.58 L 285.81 356.60 L 287.28 356.64 L 288.75 356.62 L 290.22 356.58 L 291.69 356.59 L 293.17 356.60 L 294.64 356.59 L 296.11 356.62 L 297.58 356.58 L 299.06 356.60 L 300.53 356.63 L 302.00 356.55 L 303.47 356.53 L 304.94 356.65 L 306.42 356.58 L 307.89 356.60 L 309.36 356.57 L 310.83 356.62 L 312.31 356.62 L 313.78 356.55 L 315.25 356.61 L 316.72 356.62 L 318.19 356.58 L 319.67 356.60 L 321.14 356.59 L 322.61 356.55 L 324.08 356.59 L 325.56 356.63 L 327.03 356.57 L 328.50 356.57 L 329.97 356.62 L 331.44 356.61 L 332.92 356.56 L 334.39 356.58 L 335.86 356.61 L 337.33 356.55 L 338.81 356.57 L 340.28 356.53 L 341.75 356.60 L 343.22 356.57 L 344.69 356.59 L 346.17 356.58 L 347.64 356.58 L 349.11 356.68 L 350.58 356.55 L 352.06 356.56 L 353.53 356.61 L 355.00 356.61 L 356.47 356.58 L 357.94 356.55 L 359.42 356.61 L 360.89 356.61 L 362.36 356.55 L 363.83 356.54 L 365.31 356.65 L 366.78 356.60 L 368.25 356.37 L 369.72 356.78 L 371.19 356.61 L 372.67 356.61 L 374.14 356.63 L 375.61 356.68 L 377.08 356.63 L 378.56 356.62 L 380.03 355.74 L 381.50 357.61 L 382.97 350.12 L 384.44 350.72 L 385.92 356.75 L 387.39 346.45 L 388.86 353.09 L 390.33 362.23 L 391.81 358.77 L 393.28 354.97 L 394.75 357.74 L 396.22 356.75 L 397.69 355.15 L 399.17 353.32 L 400.64 353.38 L 402.11 355.80 L 403.58 355.86 L 405.06 355.90 L 406.53 356.08 L 408.00 357.83 L 409.47 364.77 L 410.94 359.84 L 412.42 366.58 L 413.89 374.33 L 415.36 365.49 L 416.83 365.06 L 418.31 364.90 L 419.78 369.14 L 421.25 356.72 L 422.72 365.29 L 424.19 363.79 L 425.67 363.31 L 427.14 357.28 L 428.61 360.97 L 430.08 356.32 L 431.56 361.90 L 433.03 361.12 L 434.50 361.66 L 435.97 360.45 L 437.44 357.72 L 438.92 353.96 L 440.39 358.82 L 441.86 365.73 L 443.33 349.83 L 444.81 352.97 L 446.28 352.54 L 447.75 352.88 L 449.22 352.11 L 450.69 351.36 L 452.17 352.07 L 453.64 352.17 L 455.11 352.05 L 456.58 352.07 L 458.06 352.09 L 459.53 352.09 L 461.00 352.07 L 462.47 352.07 L 463.94 352.10 L 465.42 352.11 L 466.89 352.03 L 468.36 352.00 L 469.83 352.01 L 471.31 351.99 L 472.78 352.01 L 474.25 351.99 L 475.72 352.05 L 477.19 351.57 L 478.67 352.18 L 480.14 350.55 L 481.61 351.28 L 483.08 351.34 L 484.56 351.61 L 486.03 351.51 L 487.50 351.49 L 488.97 351.51 L 490.44 351.48 L 491.92 351.49 L 493.39 351.46 L 494.86 351.48 L 496.33 351.48 L 497.81 351.46 L 499.28 351.55 L 500.75 351.49 L 502.22 351.47 L 503.69 351.51 L 505.17 351.42 L 506.64 351.44 L 508.11 351.50 L 509.58 351.42 L 511.06 351.45 L 512.53 351.16 L 514.00 351.53 L 515.47 351.53 L 516.94 349.94 L 518.42 351.34 L 519.89 350.37 L 521.36 350.83 L 522.83 350.66 L 524.31 350.62 L 525.78 350.58 L 527.25 350.59 L 528.72 350.62 L 530.19 350.56 L 531.67 350.61 L 533.14 350.57 L 534.61 350.55 L 536.08 350.55 L 537.56 350.54 L 539.03 350.56 L 540.50 350.56 L 541.97 350.54 L 543.44 350.54 L 544.92 350.52 L 546.39 350.51 L 547.86 350.49 L 549.33 350.50 L 550.81 350.41 L 552.28 350.95 L 553.75 350.08 L 555.22 349.32 L 556.69 349.99 L 558.17 349.87 L 559.64 349.93 L 561.11 349.89 L 562.58 349.88 L 564.06 349.87 L 565.53 349.85 L 567.00 349.90 L 568.47 349.84 L 569.94 349.84 L 571.42 349.89 L 572.89 349.84 L 574.36 349.89 L 575.83 349.87 L 577.31 349.78 L 578.78 349.87 L 580.25 349.88 L 581.72 349.83 L 583.19 349.93 L 584.67 349.86 L 586.14 349.89 L 587.61 349.90 L 589.08 349.90 L 590.56 349.85 L 592.03 349.83 L 593.50 349.91 L 594.97 350.36 L 596.44 350.07 L 597.92 350.25 L 599.39 350.07 L 600.86 350.25 L 602.33 350.15 L 603.81 350.18 L 605.28 350.22 L 606.75 350.16 L 608.22 350.13 L 609.69 350.23 L 611.17 350.16 L 612.64 350.17 L 614.11 350.18 L 615.58 350.19 L 617.06 350.19 L 618.53 350.19 L 620.00 350.15 L 621.47 350.20 L 622.94 350.16 L 624.42 350.17 L 625.89 350.20 L 627.36 350.15 L 628.83 350.16 L 630.31 350.22 L 631.78 349.99 L 633.25 351.41 L 634.72 351.29 L 636.19 351.28 L 637.67 351.20 L 639.14 351.13 L 640.61 351.25 L 642.08 351.18 L 643.56 351.19 L 645.03 351.22 L 646.50 351.24 L 647.97 351.20 L 649.44 351.25 L 650.92 351.17 L 652.39 351.20 L 653.86 351.22 L 655.33 351.14 L 656.81 351.20 L 658.28 351.18 L 659.75 351.26 L 661.22 351.32 L 662.69 351.23 L 664.17 351.18 L 665.64 351.25 L 667.11 351.44 L 668.58 352.22 L 670.06 351.81 L 671.53 352.31 L 673.00 352.13 L 674.47 352.02 L 675.94 352.02 L 677.42 352.20 L 678.89 352.32 L 680.36 352.33 L 681.83 352.23 L 683.31 352.16 L 684.78 352.10 L 686.25 352.25 L 687.72 352.22 L 689.19 352.19 L 690.67 352.31 L 692.14 351.96 L 693.61 352.36 L 695.08 352.68 L 696.56 352.64 L 698.03 352.70 L 699.50 352.64 L 700.97 352.65 L 702.44 352.62 L 703.92 352.59 L 705.39 352.58 L 706.86 352.62 L 708.33 352.56 L 709.81 352.58 L 711.28 352.63 L 712.75 352.63 L 714.22 352.62 L 715.69 352.59 L 717.17 352.63 L 718.64 352.64 L 720.11 352.62 L 721.58 352.58 L 723.06 352.61 L 724.53 352.64 L 726.00 352.65 L 727.47 360.61 L 728.94 371.53 L 730.42 366.03 L 731.89 366.63 L 733.36 358.25 L 734.83 367.94 L 736.31 373.09 L 737.78 351.71 L 739.25 356.09 L 740.72 356.69 L 742.19 358.20 L 743.67 356.65 L 745.14 357.98 L 746.61 362.16 L 748.08 366.32 L 749.56 361.51 L 751.03 355.46 L 752.50 352.69 L 753.97 366.73 L 755.44 363.14 L 756.92 369.53 L 758.39 370.02 L 759.86 367.79 L 761.33 367.29 L 762.81 366.94 L 764.28 368.52 L 765.75 370.76 L 767.22 367.46 L 768.69 378.68 L 770.17 379.88 L 771.64 368.55 L 773.11 369.83 L 774.58 373.12 L 776.06 370.66 L 777.53 370.80 L 779.00 376.62 L 780.47 372.48 L 781.94 368.59 L 783.42 367.69 L 784.89 370.61 L 786.36 370.20 L 787.83 371.24 L 789.31 371.95 L 790.78 372.87 L 792.25 376.08 L 793.72 371.94 L 795.19 372.81 L 796.67 374.07 L 798.14 371.71 L 799.61 370.98 L 801.08 372.68 L 802.56 374.51 L 804.03 374.51 L 805.50 369.23 L 806.97 369.59 L 808.44 371.05 L 809.92 368.93 L 811.39 362.55 L 812.86 361.96 L 814.33 367.63 L 815.81 362.58 L 817.28 370.01 L 818.75 364.26 L 820.22 365.82 L 821.69 364.49 L 823.17 363.81 L 824.64 366.48 L 826.11 371.24 L 827.58 363.88 L 829.06 362.50 L 830.53 366.05 L 832.00 361.92 L 833.47 366.84 L 834.94 362.35 L 836.42 364.79 L 837.89 362.66 L 839.36 363.22 L 840.83 357.22 L 842.31 358.61 L 843.78 360.12 L 845.25 361.81 L 846.72 358.24 L 848.19 359.97 L 849.67 361.65 L 851.14 360.57 L 852.61 354.53 L 854.08 362.51 L 855.56 366.77 L 857.03 357.54 L 858.50 360.31 L 859.97 357.62 L 861.44 370.04 L 862.92 375.63 L 864.39 374.68 L 865.86 372.35 L 867.33 374.18 L 868.81 376.18 L 870.28 388.37 L 871.75 394.96 L 873.22 399.59 L 874.69 403.41 L 876.17 404.32 L 877.64 403.43 L 879.11 400.13 L 880.58 403.18 L 882.06 407.05 L 883.53 401.32 L 885.00 404.49 L 886.47 396.07 L 887.94 391.88 L 889.42 388.98 L 890.89 386.87 L 892.36 378.64 L 893.83 367.17 L 895.31 376.65 L 896.78 377.75 L 898.25 374.83 L 899.72 379.93 L 901.19 379.48 L 902.67 376.42 L 904.14 374.68 L 905.61 373.56 L 907.08 375.02 L 908.56 377.02 L 910.03 378.22 L 911.50 382.05 L 912.97 377.01 L 914.44 381.95 L 915.92 382.55 L 917.39 382.33 L 918.86 382.92 L 920.33 382.42 L 921.81 381.19 L 923.28 384.58 L 924.75 387.80 L 926.22 387.58 L 927.69 388.34 L 929.17 388.11 L 930.64 387.38 L 932.11 386.77 L 933.58 387.78 L 935.06 387.66 L 936.53 387.62 L 938.00 389.05 L 939.47 389.32 L 940.94 388.95 L 942.42 388.83 L 943.89 389.33 L 945.36 390.67 L 946.83 389.00 L 948.31 388.65 L 949.78 393.38 L 951.25 398.69 L 952.72 397.03 L 954.19 397.96 L 955.67 398.12 L 957.14 396.76 L 958.61 405.32 L 960.08 403.51 L 961.56 403.43 L 963.03 404.01 L 964.50 400.85 L 965.97 399.57 L 967.44 398.63 L 968.92 396.24 L 970.39 400.82 L 971.86 398.89 L 973.33 398.40 L 974.81 396.80 L 976.28 393.79 L 977.75 393.39 L 979.22 392.58 L 980.69 392.63 L 982.17 393.14 L 983.64 393.80 L 985.11 395.39 L 986.58 396.53 L 988.06 395.84 L 989.53 395.01 L 991.00 393.78 L 992.47 394.41" stroke="#2E7D32" />
<path class="series" d="M 178.33 411.54 L 179.81 411.41 L 181.28 411.50 L 182.75 411.50 L 184.22 411.45 L 185.69 411.52 L 187.17 411.49 L 188.64 411.51 L 190.11 411.47 L 191.58 411.48 L 193.06 411.55 L 194.53 411.48 L 196.00 411.51 L 197.47 411.47 L 198.94 411.54 L 200.42 411.48 L 201.89 411.50 L 203.36 411.60 L 204.83 411.55 L 206.31 411.50 L 207.78 411.61 L 209.25 411.52 L 210.72 411.57 L 212.19 411.54 L 213.67 411.52 L 215.14 411.51 L 216.61 411.52 L 218.08 411.56 L 219.56 411.52 L 221.03 411.52 L 222.50 411.55 L 223.97 411.51 L 225.44 411.51 L 226.92 411.54 L 228.39 411.55 L 229.86 411.55 L 231.33 411.54 L 232.81 411.53 L 234.28 411.54 L 235.75 411.52 L 237.22 411.54 L 238.69 411.53 L 240.17 411.48 L 241.64 411.56 L 243.11 411.52 L 244.58 411.50 L 246.06 411.52 L 247.53 411.45 L 249.00 411.54 L 250.47 411.48 L 251.94 411.48 L 253.42 411.49 L 254.89 411.49 L 256.36 411.55 L 257.83 411.50 L 259.31 411.57 L 260.78 411.57 L 262.25 411.50 L 263.72 411.56 L 265.19 411.51 L 266.67 411.55 L 268.14 411.50 L 269.61 411.52 L 271.08 411.55 L 272.56 411.53 L 274.03 411.48 L 275.50 411.54 L 276.97 411.45 L 278.44 411.60 L 279.92 411.52 L 281.39 411.50 L 282.86 411.56 L 284.33 411.53 L 285.81 411.58 L 287.28 411.49 L 288.75 411.51 L 290.22 411.57 L 291.69 411.55 L 293.17 411.52 L 294.64 411.51 L 296.11 411.53 L 297.58 411.50 L 299.06 411.54 L 300.53 411.55 L 302.00 411.49 L 303.47 411.58 L 304.94 411.54 L 306.42 411.54 L 307.89 411.55 L 309.36 411.55 L 310.83 411.54 L 312.31 411.55 L 313.78 411.55 L 315.25 411.55 L 316.72 411.53 L 318.19 411.54 L 319.67 411.54 L 321.14 411.53 L 322.61 411.55 L 324.08 411.53 L 325.56 411.53 L 327.03 411.52 L 328.50 411.59 L 329.97 411.53 L 331.44 411.55 L 332.92 411.56 L 334.39 411.56 L 335.86 411.53 L 337.33 411.55 L 338.81 411.51 L 340.28 411.59 L 341.75 411.56 L 343.22 411.54 L 344.69 411.56 L 346.17 411.57 L 347.64 411.60 L 349.11 411.48 L 350.58 411.55 L 352.06 411.60 L 353.53 411.55 L 355.00 411.54 L 356.47 411.51 L 357.94 411.62 L 359.42 411.52 L 360.89 411.53 L 362.36 411.52 L 363.83 411.52 L 365.31 411.57 L 366.78 411.50 L 368.25 411.90 L 369.72 411.19 L 371.19 411.70 L 372.67 411.43 L 374.14 411.55 L 375.61 411.65 L 377.08 411.50 L 378.56 411.63 L 380.03 411.33 L 381.50 412.26 L 382.97 408.21 L 384.44 411.56 L 385.92 415.03 L 387.39 411.88 L 388.86 417.91 L 390.33 415.98 L 391.81 414.62 L 393.28 414.83 L 394.75 414.56 L 396.22 407.25 L 397.69 410.76 L 399.17 408.60 L 400.64 416.50 L 402.11 420.29 L 403.58 412.95 L 405.06 398.96 L 406.53 416.00 L 408.00 403.17 L 409.47 407.48 L 410.94 404.78 L 412.42 399.10 L 413.89 392.27 L 415.36 406.46 L 416.83 401.54 L 418.31 406.54 L 419.78 398.94 L 421.25 402.77 L 422.72 405.95 L 424.19 401.65 L 425.67 402.59 L 427.14 402.33 L 428.61 410.31 L 430.08 407.15 L 431.56 397.18 L 433.03 389.66 L 434.50 390.52 L 435.97 396.14 L 437.44 395.40 L 438.92 400.77 L 440.39 405.20 L 441.86 400.48 L 443.33 410.11 L 444.81 407.55 L 446.28 407.89 L 447.75 410.75 L 449.22 407.58 L 450.69 408.77 L 452.17 408.70 L 453.64 408.62 L 455.11 408.67 L 456.58 408.76 L 458.06 408.70 L 459.53 408.72 L 461.00 408.77 L 462.47 408.78 L 463.94 408.80 L 465.42 408.79 L 466.89 408.78 L 468.36 408.82 L 469.83 408.81 L 471.31 408.72 L 472.78 408.79 L 474.25 408.74 L 475.72 408.87 L 477.19 407.38 L 478.67 410.56 L 480.14 408.22 L 481.61 408.31 L 483.08 408.81 L 484.56 409.35 L 486.03 409.03 L 487.50 408.88 L 488.97 409.13 L 490.44 409.06 L 491.92 408.98 L 493.39 409.13 L 494.86 409.04 L 496.33 408.98 L 497.81 409.08 L 499.28 409.08 L 500.75 408.98 L 502.22 409.12 L 503.69 409.09 L 505.17 409.09 L 506.64 409.11 L 508.11 409.06 L 509.58 409.04 L 511.06 409.21 L 512.53 409.02 L 514.00 408.80 L 515.47 408.80 L 516.94 407.09 L 518.42 407.22 L 519.89 407.76 L 521.36 407.94 L 522.83 407.95 L 524.31 407.74 L 525.78 407.49 L 527.25 407.44 L 528.72 407.65 L 530.19 407.77 L 531.67 407.74 L 533.14 407.57 L 534.61 407.48 L 536.08 407.58 L 537.56 407.65 L 539.03 407.68 L 540.50 407.65 L 541.97 407.60 L 543.44 407.65 L 544.92 407.68 L 546.39 407.59 L 547.86 407.61 L 549.33 407.58 L 550.81 407.16 L 552.28 408.12 L 553.75 405.90 L 555.22 407.66 L 556.69 406.71 L 558.17 406.70 L 559.64 406.75 L 561.11 406.76 L 562.58 406.79 L 564.06 406.73 L 565.53 406.69 L 567.00 406.78 L 568.47 406.76 L 569.94 406.79 L 571.42 406.82 L 572.89 406.76 L 574.36 406.85 L 575.83 406.90 L 577.31 406.77 L 578.78 406.78 L 580.25 406.83 L 581.72 406.84 L 583.19 406.84 L 584.67 406.73 L 586.14 406.82 L 587.61 406.88 L 589.08 406.79 L 590.56 406.80 L 592.03 407.17 L 593.50 404.81 L 594.97 407.38 L 596.44 406.48 L 597.92 406.22 L 599.39 406.47 L 600.86 406.47 L 602.33 406.45 L 603.81 406.42 L 605.28 406.42 L 606.75 406.43 L 608.22 406.34 L 609.69 406.47 L 611.17 406.43 L 612.64 406.43 L 614.11 406.42 L 615.58 406.38 L 617.06 406.41 L 618.53 406.46 L 620.00 406.46 L 621.47 406.41 L 622.94 406.45 L 624.42 406.35 L 625.89 406.45 L 627.36 406.38 L 628.83 406.34 L 630.31 406.30 L 631.78 405.91 L 633.25 406.23 L 634.72 407.04 L 636.19 407.05 L 637.67 407.16 L 639.14 406.83 L 640.61 406.88 L 642.08 406.96 L 643.56 406.92 L 645.03 406.90 L 646.50 406.89 L 647.97 406.93 L 649.44 406.98 L 650.92 406.90 L 652.39 406.96 L 653.86 406.95 L 655.33 406.98 L 656.81 406.97 L 658.28 406.94 L 659.75 407.00 L 661.22 407.04 L 662.69 406.91 L 664.17 407.08 L 665.64 406.88 L 667.11 407.34 L 668.58 406.84 L 670.06 407.43 L 671.53 407.63 L 673.00 407.58 L 674.47 407.96 L 675.94 406.79 L 677.42 407.13 L 678.89 407.15 L 680.36 407.44 L 681.83 407.39 L 683.31 407.42 L 684.78 407.45 L 686.25 407.44 L 687.72 407.38 L 689.19 407.33 L 690.67 407.43 L 692.14 407.21 L 693.61 407.15 L 695.08 407.32 L 696.56 406.98 L 698.03 407.40 L 699.50 407.30 L 700.97 407.36 L 702.44 407.31 L 703.92 407.28 L 705.39 407.21 L 706.86 407.23 L 708.33 407.22 L 709.81 407.30 L 711.28 407.31 L 712.75 407.26 L 714.22 407.28 L 715.69 407.28 L 717.17 407.32 L 718.64 407.24 L 720.11 407.21 L 721.58 407.29 L 723.06 407.32 L 724.53 407.20 L 726.00 407.28 L 727.47 402.72 L 728.94 406.86 L 730.42 384.20 L 731.89 388.81 L 733.36 402.29 L 734.83 406.55 L 736.31 415.57 L 737.78 427.18 L 739.25 424.55 L 740.72 432.14 L 742.19 433.30 L 743.67 442.60 L 745.14 422.91 L 746.61 425.51 L 748.08 423.12 L 749.56 418.90 L 751.03 413.14 L 752.50 410.49 L 753.97 401.54 L 755.44 401.53 L 756.92 413.03 L 758.39 408.13 L 759.86 417.47 L 761.33 412.82 L 762.81 409.95 L 764.28 407.90 L 765.75 406.14 L 767.22 408.19 L 768.69 406.07 L 770.17 407.98 L 771.64 399.98 L 773.11 403.47 L 774.58 409.23 L 776.06 412.20 L 777.53 406.86 L 779.00 404.09 L 780.47 409.19 L 781.94 414.03 L 783.42 421.42 L 784.89 403.34 L 786.36 403.23 L 787.83 387.32 L 789.31 409.86 L 790.78 405.44 L 792.25 401.60 L 793.72 405.30 L 795.19 415.02 L 796.67 409.99 L 798.14 411.23 L 799.61 420.74 L 801.08 427.26 L 802.56 418.93 L 804.03 418.93 L 805.50 405.95 L 806.97 407.18 L 808.44 399.21 L 809.92 397.68 L 811.39 410.83 L 812.86 411.51 L 814.33 418.35 L 815.81 422.92 L 817.28 425.39 L 818.75 425.49 L 820.22 421.41 L 821.69 412.47 L 823.17 414.11 L 824.64 418.75 L 826.11 420.85 L 827.58 421.29 L 829.06 420.70 L 830.53 421.79 L 832.00 418.56 L 833.47 415.58 L 834.94 410.58 L 836.42 412.99 L 837.89 408.76 L 839.36 409.49 L 840.83 404.76 L 842.31 408.69 L 843.78 413.22 L 845.25 409.28 L 846.72 417.03 L 848.19 424.12 L 849.67 417.89 L 851.14 420.74 L 852.61 418.36 L 854.08 423.60 L 855.56 426.38 L 857.03 416.41 L 858.50 420.77 L 859.97 422.48 L 861.44 423.61 L 862.92 418.58 L 864.39 418.44 L 865.86 409.54 L 867.33 407.13 L 868.81 414.99 L 870.28 410.85 L 871.75 415.96 L 873.22 416.03 L 874.69 419.76 L 876.17 417.27 L 877.64 415.95 L 879.11 415.91 L 880.58 413.08 L 882.06 410.57 L 883.53 408.44 L 885.00 405.76 L 886.47 405.76 L 887.94 399.55 L 889.42 402.62 L 890.89 406.41 L 892.36 405.81 L 893.83 412.42 L 895.31 425.24 L 896.78 435.60 L 898.25 441.52 L 899.72 448.95 L 901.19 439.64 L 902.67 421.41 L 904.14 429.15 L 905.61 434.75 L 907.08 436.67 L 908.56 438.53 L 910.03 428.82 L 911.50 426.94 L 912.97 423.51 L 914.44 422.34 L 915.92 421.55 L 917.39 416.17 L 918.86 417.62 L 920.33 414.50 L 921.81 415.98 L 923.28 418.48 L 924.75 416.57 L 926.22 413.90 L 927.69 413.27 L 929.17 410.46 L 930.64 408.25 L 932.11 406.29 L 933.58 408.78 L 935.06 408.65 L 936.53 408.44 L 938.00 408.55 L 939.47 406.11 L 940.94 407.76 L 942.42 408.58 L 943.89 409.86 L 945.36 409.07 L 946.83 408.91 L 948.31 407.30 L 949.78 406.15 L 951.25 404.43 L 952.72 401.17 L 954.19 403.79 L 955.67 405.30 L 957.14 405.37 L 958.61 406.89 L 960.08 408.63 L 961.56 409.33 L 963.03 412.87 L 964.50 411.55 L 965.97 415.26 L 967.44 416.23 L 968.92 417.96 L 970.39 419.21 L 971.86 419.72 L 973.33 421.53 L 974.81 424.34 L 976.28 426.99 L 977.75 427.92 L 979.22 426.81 L 980.69 426.25 L 982.17 427.10 L 983.64 425.66 L 985.11 424.07 L 986.58 424.15 L 988.06 423.03 L 989.53 421.89 L 991.00 420.12 L 992.47 418.49" stroke="#6A1B9A" />
<line x1="900.00" y1="307.75" x2="918.00" y2="307.75" stroke="#2E7D32" stroke-width="3" />
<text class="small" x="924.00" y="311.75">pitch</text>
<line x1="900.00" y1="323.75" x2="918.00" y2="323.75" stroke="#6A1B9A" stroke-width="3" />
<text class="small" x="924.00" y="327.75">roll</text>
<text x="90" y="500.50" font-size="14" font-weight="700">Aceleração (magnitude) (u.a.)</text>
<rect class="event" x="443.33" y="506.50" width="284.14" height="192.75" />
<line class="eventline" x1="443.33" y1="506.50" x2="443.33" y2="699.25" />
<line class="eventline" x1="727.47" y1="506.50" x2="727.47" y2="699.25" />
<line class="grid" x1="90" y1="699.25" x2="1150" y2="699.25" />
<text class="small" x="80" y="703.25" text-anchor="end">0.00</text>
<line class="grid" x1="90" y1="660.70" x2="1150" y2="660.70" />
<text class="small" x="80" y="664.70" text-anchor="end">0.20</text>
<line class="grid" x1="90" y1="622.15" x2="1150" y2="622.15" />
<text class="small" x="80" y="626.15" text-anchor="end">0.40</text>
<line class="grid" x1="90" y1="583.60" x2="1150" y2="583.60" />
<text class="small" x="80" y="587.60" text-anchor="end">0.60</text>
<line class="grid" x1="90" y1="545.05" x2="1150" y2="545.05" />
<text class="small" x="80" y="549.05" text-anchor="end">0.80</text>
<line class="grid" x1="90" y1="506.50" x2="1150" y2="506.50" />
<text class="small" x="80" y="510.50" text-anchor="end">1.00</text>
<line class="grid" x1="90.00" y1="506.50" x2="90.00" y2="699.25" />
<line class="grid" x1="266.67" y1="506.50" x2="266.67" y2="699.25" />
<line class="grid" x1="443.33" y1="506.50" x2="443.33" y2="699.25" />
<line class="grid" x1="620.00" y1="506.50" x2="620.00" y2="699.25" />
<line class="grid" x1="796.67" y1="506.50" x2="796.67" y2="699.25" />
<line class="grid" x1="973.33" y1="506.50" x2="973.33" y2="699.25" />
<line class="grid" x1="1150.00" y1="506.50" x2="1150.00" y2="699.25" />
<line class="axis" x1="90" y1="506.50" x2="90" y2="699.25" />
<line class="axis" x1="90" y1="699.25" x2="1150" y2="699.25" />
<path class="series" d="M 178.33 697.01 L 179.81 697.45 L 181.28 697.63 L 182.75 698.60 L 184.22 698.65 L 185.69 698.67 L 187.17 698.90 L 188.64 698.87 L 190.11 698.79 L 191.58 698.66 L 193.06 698.47 L 194.53 698.78 L 196.00 698.85 L 197.47 699.13 L 198.94 698.85 L 200.42 699.02 L 201.89 698.67 L 203.36 698.69 L 204.83 698.78 L 206.31 698.63 L 207.78 698.88 L 209.25 699.03 L 210.72 698.55 L 212.19 698.47 L 213.67 698.81 L 215.14 698.77 L 216.61 698.98 L 218.08 698.27 L 219.56 698.75 L 221.03 698.42 L 222.50 698.45 L 223.97 699.03 L 225.44 699.05 L 226.92 698.74 L 228.39 698.94 L 229.86 698.85 L 231.33 698.98 L 232.81 698.98 L 234.28 698.67 L 235.75 698.74 L 237.22 698.55 L 238.69 698.44 L 240.17 698.82 L 241.64 698.42 L 243.11 698.89 L 244.58 698.85 L 246.06 698.90 L 247.53 698.76 L 249.00 698.84 L 250.47 698.94 L 251.94 698.80 L 253.42 698.74 L 254.89 698.80 L 256.36 698.49 L 257.83 698.40 L 259.31 698.65 L 260.78 698.99 L 262.25 699.06 L 263.72 698.65 L 265.19 699.05 L 266.67 698.64 L 268.14 698.80 L 269.61 698.73 L 271.08 698.93 L 272.56 698.72 L 274.03 698.33 L 275.50 698.35 L 276.97 698.80 L 278.44 698.44 L 279.92 698.94 L 281.39 699.16 L 282.86 698.55 L 284.33 698.67 L 285.81 699.02 L 287.28 698.54 L 288.75 698.67 L 290.22 698.93 L 291.69 698.83 L 293.17 698.81 L 294.64 698.95 L 296.11 698.75 L 297.58 699.14 L 299.06 698.86 L 300.53 698.41 L 302.00 698.58 L 303.47 698.86 L 304.94 698.86 L 306.42 698.88 L 307.89 698.70 L 309.36 698.99 L 310.83 698.94 L 312.31 698.51 L 313.78 698.75 L 315.25 699.01 L 316.72 699.08 L 318.19 698.60 L 319.67 698.54 L 321.14 698.68 L 322.61 698.78 L 324.08 698.80 L 325.56 698.60 L 327.03 698.69 L 328.50 698.68 L 329.97 698.81 L 331.44 698.81 L 332.92 698.78 L 334.39 699.05 L 335.86 698.90 L 337.33 699.09 L 338.81 699.04 L 340.28 698.86 L 341.75 698.80 L 343.22 699.16 L 344.69 698.89 L 346.17 698.68 L 347.64 698.96 L 349.11 698.70 L 350.58 699.06 L 352.06 699.15 L 353.53 699.03 L 355.00 699.00 L 356.47 698.93 L 357.94 699.00 L 359.42 699.02 L 360.89 698.91 L 362.36 698.83 L 363.83 698.72 L 365.31 696.95 L 366.78 698.91 L 368.25 697.62 L 369.72 696.38 L 371.19 697.43 L 372.67 698.54 L 374.14 698.62 L 375.61 698.33 L 377.08 698.94 L 378.56 699.09 L 380.03 695.29 L 381.50 696.42 L 382.97 658.47 L 384.44 639.42 L 385.92 684.79 L 387.39 618.54 L 388.86 635.82 L 390.33 658.35 L 391.81 675.96 L 393.28 690.55 L 394.75 690.55 L 396.22 646.09 L 397.69 645.75 L 399.17 671.76 L 400.64 671.86 L 402.11 666.67 L 403.58 680.29 L 405.06 642.43 L 406.53 621.26 L 408.00 637.67 L 409.47 644.10 L 410.94 696.73 L 412.42 675.60 L 413.89 681.49 L 415.36 648.29 L 416.83 653.34 L 418.31 689.53 L 419.78 670.85 L 421.25 639.76 L 422.72 650.34 L 424.19 663.60 L 425.67 694.63 L 427.14 698.27 L 428.61 581.86 L 430.08 668.39 L 431.56 686.10 L 433.03 590.36 L 434.50 649.73 L 435.97 689.37 L 437.44 667.19 L 438.92 651.09 L 440.39 653.89 L 441.86 601.56 L 443.33 619.13 L 444.81 671.00 L 446.28 671.62 L 447.75 680.16 L 449.22 691.70 L 450.69 695.31 L 452.17 697.08 L 453.64 698.60 L 455.11 698.84 L 456.58 698.98 L 458.06 698.61 L 459.53 698.69 L 461.00 698.81 L 462.47 699.03 L 463.94 698.80 L 465.42 698.76 L 466.89 698.94 L 468.36 698.76 L 469.83 699.12 L 471.31 699.18 L 472.78 698.83 L 474.25 699.01 L 475.72 698.61 L 477.19 693.62 L 478.67 685.44 L 480.14 687.88 L 481.61 693.25 L 483.08 696.14 L 484.56 689.74 L 486.03 699.12 L 487.50 697.78 L 488.97 697.22 L 490.44 698.64 L 491.92 698.14 L 493.39 698.55 L 494.86 699.21 L 496.33 698.75 L 497.81 698.80 L 499.28 698.99 L 500.75 698.76 L 502.22 699.09 L 503.69 698.85 L 505.17 698.91 L 506.64 698.75 L 508.11 698.57 L 509.58 698.84 L 511.06 697.43 L 512.53 694.31 L 514.00 687.08 L 515.47 695.10 L 516.94 692.77 L 518.42 689.58 L 519.89 696.14 L 521.36 698.90 L 522.83 696.57 L 524.31 697.82 L 525.78 698.40 L 527.25 697.88 L 528.72 698.54 L 530.19 698.48 L 531.67 698.53 L 533.14 699.02 L 534.61 698.58 L 536.08 699.05 L 537.56 698.82 L 539.03 698.83 L 540.50 699.00 L 541.97 698.68 L 543.44 698.73 L 544.92 698.82 L 546.39 698.70 L 547.86 699.00 L 549.33 693.95 L 550.81 693.74 L 552.28 691.39 L 553.75 690.82 L 555.22 698.27 L 556.69 698.18 L 558.17 698.11 L 559.64 698.32 L 561.11 698.51 L 562.58 698.51 L 564.06 698.92 L 565.53 698.58 L 567.00 698.53 L 568.47 698.81 L 569.94 699.09 L 571.42 698.99 L 572.89 698.84 L 574.36 698.95 L 575.83 698.78 L 577.31 698.86 L 578.78 698.66 L 580.25 698.77 L 581.72 698.70 L 583.19 699.08 L 584.67 698.98 L 586.14 699.00 L 587.61 698.72 L 589.08 698.83 L 590.56 697.28 L 592.03 693.94 L 593.50 685.00 L 594.97 692.08 L 596.44 696.71 L 597.92 696.49 L 599.39 697.76 L 600.86 698.34 L 602.33 698.63 L 603.81 698.97 L 605.28 698.88 L 606.75 698.74 L 608.22 699.11 L 609.69 698.57 L 611.17 698.66 L 612.64 698.74 L 614.11 699.09 L 615.58 699.01 L 617.06 698.99 L 618.53 698.59 L 620.00 698.84 L 621.47 699.09 L 622.94 699.05 L 624.42 699.03 L 625.89 698.87 L 627.36 698.95 L 628.83 698.78 L 630.31 697.89 L 631.78 691.66 L 633.25 692.95 L 634.72 694.45 L 636.19 698.18 L 637.67 696.83 L 639.14 698.81 L 640.61 697.96 L 642.08 698.73 L 643.56 698.82 L 645.03 698.73 L 646.50 698.68 L 647.97 698.95 L 649.44 698.45 L 650.92 698.95 L 652.39 698.83 L 653.86 699.12 L 655.33 699.05 L 656.81 698.90 L 658.28 699.12 L 659.75 698.96 L 661.22 698.42 L 662.69 698.93 L 664.17 697.89 L 665.64 697.71 L 667.11 693.28 L 668.58 689.61 L 670.06 695.17 L 671.53 697.20 L 673.00 682.07 L 674.47 688.14 L 675.94 693.75 L 677.42 696.66 L 678.89 695.81 L 680.36 698.52 L 681.83 697.90 L 683.31 698.38 L 684.78 698.55 L 686.25 698.85 L 687.72 698.92 L 689.19 698.84 L 690.67 696.14 L 692.14 694.00 L 693.61 696.06 L 695.08 697.04 L 696.56 696.93 L 698.03 697.49 L 699.50 698.51 L 700.97 698.71 L 702.44 699.04 L 703.92 698.66 L 705.39 698.81 L 706.86 698.73 L 708.33 698.89 L 709.81 698.48 L 711.28 698.75 L 712.75 699.04 L 714.22 698.89 L 715.69 698.87 L 717.17 698.75 L 718.64 698.89 L 720.11 698.75 L 721.58 698.89 L 723.06 698.81 L 724.53 699.02 L 726.00 698.76 L 727.47 586.04 L 728.94 589.58 L 730.42 634.93 L 731.89 634.93 L 733.36 585.59 L 734.83 603.42 L 736.31 656.10 L 737.78 637.85 L 739.25 611.25 L 740.72 669.45 L 742.19 669.57 L 743.67 640.94 L 745.14 676.50 L 746.61 676.45 L 748.08 667.91 L 749.56 682.28 L 751.03 603.10 L 752.50 629.68 L 753.97 631.78 L 755.44 585.12 L 756.92 624.26 L 758.39 660.23 L 759.86 666.38 L 761.33 638.13 L 762.81 593.12 L 764.28 643.49 L 765.75 680.04 L 767.22 670.91 L 768.69 689.35 L 770.17 631.32 L 771.64 631.58 L 773.11 653.39 L 774.58 650.63 L 776.06 680.21 L 777.53 684.96 L 779.00 644.18 L 780.47 610.95 L 781.94 658.62 L 783.42 623.05 L 784.89 648.63 L 786.36 589.08 L 787.83 609.26 L 789.31 618.87 L 790.78 550.71 L 792.25 672.49 L 793.72 632.57 L 795.19 670.68 L 796.67 590.52 L 798.14 638.97 L 799.61 661.20 L 801.08 620.38 L 802.56 625.44 L 804.03 626.55 L 805.50 623.55 L 806.97 642.68 L 808.44 640.57 L 809.92 639.62 L 811.39 636.76 L 812.86 678.34 L 814.33 653.91 L 815.81 635.24 L 817.28 683.36 L 818.75 614.74 L 820.22 649.92 L 821.69 670.06 L 823.17 588.99 L 824.64 635.72 L 826.11 591.47 L 827.58 664.21 L 829.06 581.99 L 830.53 622.54 L 832.00 632.90 L 833.47 634.85 L 834.94 646.79 L 836.42 665.04 L 837.89 653.60 L 839.36 599.79 L 840.83 660.00 L 842.31 631.07 L 843.78 635.06 L 845.25 651.84 L 846.72 669.93 L 848.19 625.47 L 849.67 605.59 L 851.14 661.07 L 852.61 608.93 L 854.08 641.15 L 855.56 665.12 L 857.03 686.47 L 858.50 645.38 L 859.97 652.14 L 861.44 640.80 L 862.92 689.14 L 864.39 667.56 L 865.86 648.03 L 867.33 642.47 L 868.81 676.71 L 870.28 658.86 L 871.75 683.55 L 873.22 671.60 L 874.69 693.39 L 876.17 682.09 L 877.64 664.09 L 879.11 655.26 L 880.58 621.51 L 882.06 667.51 L 883.53 652.35 L 885.00 671.42 L 886.47 679.96 L 887.94 681.82 L 889.42 629.76 L 890.89 632.55 L 892.36 633.49 L 893.83 619.05 L 895.31 652.28 L 896.78 664.35 L 898.25 627.07 L 899.72 614.72 L 901.19 614.72 L 902.67 661.38 L 904.14 656.40 L 905.61 680.53 L 907.08 670.77 L 908.56 649.51 L 910.03 524.99 L 911.50 654.92 L 912.97 607.61 L 914.44 631.53 L 915.92 666.94 L 917.39 662.49 L 918.86 677.73 L 920.33 676.63 L 921.81 689.11 L 923.28 676.43 L 924.75 658.80 L 926.22 668.81 L 927.69 678.65 L 929.17 684.62 L 930.64 688.11 L 932.11 685.83 L 933.58 691.86 L 935.06 692.96 L 936.53 671.54 L 938.00 686.84 L 939.47 680.92 L 940.94 683.59 L 942.42 683.68 L 943.89 683.56 L 945.36 678.98 L 946.83 671.89 L 948.31 656.26 L 949.78 666.06 L 951.25 659.16 L 952.72 654.63 L 954.19 666.98 L 955.67 684.20 L 957.14 661.68 L 958.61 631.19 L 960.08 669.27 L 961.56 660.73 L 963.03 686.25 L 964.50 688.26 L 965.97 687.58 L 967.44 693.19 L 968.92 673.44 L 970.39 678.88 L 971.86 686.62 L 973.33 687.17 L 974.81 684.28 L 976.28 685.43 L 977.75 672.66 L 979.22 670.80 L 980.69 681.27 L 982.17 683.60 L 983.64 689.12 L 985.11 691.10 L 986.58 692.03 L 988.06 695.32 L 989.53 685.26 L 991.00 676.10 L 992.47 692.68" stroke="#FB8C00" />
<text x="90" y="711.25" font-size="14" font-weight="700">Giroscópio (magnitude) (u.a.)</text>
<rect class="event" x="443.33" y="717.25" width="284.14" height="192.75" />
<line class="eventline" x1="443.33" y1="717.25" x2="443.33" y2="910.00" />
<line class="eventline" x1="727.47" y1="717.25" x2="727.47" y2="910.00" />
<line class="grid" x1="90" y1="910.00" x2="1150" y2="910.00" />
<text class="small" x="80" y="914.00" text-anchor="end">0.00</text>
<line class="grid" x1="90" y1="871.45" x2="1150" y2="871.45" />
<text class="small" x="80" y="875.45" text-anchor="end">0.05</text>
<line class="grid" x1="90" y1="832.90" x2="1150" y2="832.90" />
<text class="small" x="80" y="836.90" text-anchor="end">0.10</text>
<line class="grid" x1="90" y1="794.35" x2="1150" y2="794.35" />
<text class="small" x="80" y="798.35" text-anchor="end">0.15</text>
<line class="grid" x1="90" y1="755.80" x2="1150" y2="755.80" />
<text class="small" x="80" y="759.80" text-anchor="end">0.20</text>
<line class="grid" x1="90" y1="717.25" x2="1150" y2="717.25" />
<text class="small" x="80" y="721.25" text-anchor="end">0.25</text>
<line class="grid" x1="90.00" y1="717.25" x2="90.00" y2="910.00" />
<line class="grid" x1="266.67" y1="717.25" x2="266.67" y2="910.00" />
<line class="grid" x1="443.33" y1="717.25" x2="443.33" y2="910.00" />
<line class="grid" x1="620.00" y1="717.25" x2="620.00" y2="910.00" />
<line class="grid" x1="796.67" y1="717.25" x2="796.67" y2="910.00" />
<line class="grid" x1="973.33" y1="717.25" x2="973.33" y2="910.00" />
<line class="grid" x1="1150.00" y1="717.25" x2="1150.00" y2="910.00" />
<line class="axis" x1="90" y1="717.25" x2="90" y2="910.00" />
<line class="axis" x1="90" y1="910.00" x2="1150" y2="910.00" />
<path class="series" d="M 178.33 908.39 L 179.81 908.28 L 181.28 908.51 L 182.75 909.81 L 184.22 909.86 L 185.69 909.98 L 187.17 909.83 L 188.64 909.78 L 190.11 909.81 L 191.58 909.87 L 193.06 909.72 L 194.53 909.70 L 196.00 909.89 L 197.47 909.87 L 198.94 909.85 L 200.42 909.86 L 201.89 909.79 L 203.36 909.86 L 204.83 909.96 L 206.31 909.90 L 207.78 909.85 L 209.25 909.92 L 210.72 909.90 L 212.19 909.89 L 213.67 909.85 L 215.14 909.91 L 216.61 909.81 L 218.08 909.89 L 219.56 909.89 L 221.03 909.87 L 222.50 909.89 L 223.97 909.82 L 225.44 909.85 L 226.92 909.78 L 228.39 909.93 L 229.86 909.87 L 231.33 909.88 L 232.81 909.88 L 234.28 909.90 L 235.75 909.86 L 237.22 909.91 L 238.69 909.84 L 240.17 909.87 L 241.64 909.89 L 243.11 909.92 L 244.58 909.87 L 246.06 909.82 L 247.53 909.92 L 249.00 909.97 L 250.47 909.87 L 251.94 909.92 L 253.42 909.88 L 254.89 909.91 L 256.36 909.93 L 257.83 909.94 L 259.31 909.94 L 260.78 909.89 L 262.25 909.87 L 263.72 909.84 L 265.19 909.89 L 266.67 909.95 L 268.14 909.92 L 269.61 909.90 L 271.08 909.85 L 272.56 909.92 L 274.03 909.77 L 275.50 909.89 L 276.97 909.94 L 278.44 909.79 L 279.92 909.84 L 281.39 909.90 L 282.86 909.93 L 284.33 909.88 L 285.81 909.93 L 287.28 909.93 L 288.75 909.91 L 290.22 909.86 L 291.69 909.87 L 293.17 909.89 L 294.64 909.84 L 296.11 909.85 L 297.58 909.81 L 299.06 909.91 L 300.53 909.90 L 302.00 909.88 L 303.47 909.89 L 304.94 909.83 L 306.42 909.89 L 307.89 909.94 L 309.36 909.89 L 310.83 909.87 L 312.31 909.90 L 313.78 909.93 L 315.25 909.93 L 316.72 909.87 L 318.19 909.86 L 319.67 909.86 L 321.14 909.83 L 322.61 909.94 L 324.08 909.92 L 325.56 909.93 L 327.03 909.92 L 328.50 909.86 L 329.97 909.83 L 331.44 909.95 L 332.92 909.90 L 334.39 909.93 L 335.86 909.92 L 337.33 909.87 L 338.81 909.93 L 340.28 909.94 L 341.75 909.89 L 343.22 909.94 L 344.69 909.85 L 346.17 909.86 L 347.64 909.82 L 349.11 909.87 L 350.58 909.91 L 352.06 909.85 L 353.53 909.87 L 355.00 909.94 L 356.47 909.85 L 357.94 909.80 L 359.42 909.88 L 360.89 909.95 L 362.36 909.86 L 363.83 909.89 L 365.31 909.83 L 366.78 909.81 L 368.25 909.33 L 369.72 909.75 L 371.19 909.92 L 372.67 909.88 L 374.14 909.85 L 375.61 909.90 L 377.08 909.81 L 378.56 909.82 L 380.03 908.79 L 381.50 909.74 L 382.97 900.42 L 384.44 888.80 L 385.92 896.36 L 387.39 892.42 L 388.86 888.25 L 390.33 897.39 L 391.81 885.99 L 393.28 855.27 L 394.75 855.27 L 396.22 846.15 L 397.69 836.03 L 399.17 842.76 L 400.64 842.59 L 402.11 845.26 L 403.58 842.73 L 405.06 844.14 L 406.53 864.55 L 408.00 855.84 L 409.47 856.94 L 410.94 865.82 L 412.42 859.88 L 413.89 877.13 L 415.36 906.56 L 416.83 908.39 L 418.31 907.63 L 419.78 907.56 L 421.25 899.92 L 422.72 906.84 L 424.19 908.10 L 425.67 909.13 L 427.14 909.91 L 428.61 897.96 L 430.08 873.59 L 431.56 851.20 L 433.03 834.76 L 434.50 856.13 L 435.97 856.25 L 437.44 866.40 L 438.92 883.76 L 440.39 870.42 L 441.86 875.07 L 443.33 905.54 L 444.81 904.66 L 446.28 907.24 L 447.75 909.07 L 449.22 908.38 L 450.69 908.73 L 452.17 909.55 L 453.64 909.51 L 455.11 909.54 L 456.58 909.60 L 458.06 909.52 L 459.53 909.65 L 461.00 909.67 L 462.47 909.65 L 463.94 909.91 L 465.42 909.96 L 466.89 909.93 L 468.36 909.85 L 469.83 909.93 L 471.31 909.87 L 472.78 909.80 L 474.25 909.87 L 475.72 909.83 L 477.19 906.81 L 478.67 905.94 L 480.14 907.68 L 481.61 909.08 L 483.08 909.61 L 484.56 909.83 L 486.03 909.64 L 487.50 909.81 L 488.97 909.89 L 490.44 909.86 L 491.92 909.91 L 493.39 909.87 L 494.86 909.86 L 496.33 909.89 L 497.81 909.95 L 499.28 909.91 L 500.75 909.86 L 502.22 909.83 L 503.69 909.71 L 505.17 909.77 L 506.64 909.83 L 508.11 909.93 L 509.58 909.90 L 511.06 909.86 L 512.53 909.72 L 514.00 907.15 L 515.47 905.18 L 516.94 908.17 L 518.42 909.61 L 519.89 909.45 L 521.36 909.46 L 522.83 909.57 L 524.31 909.69 L 525.78 909.68 L 527.25 909.69 L 528.72 909.56 L 530.19 909.62 L 531.67 909.67 L 533.14 909.74 L 534.61 909.72 L 536.08 909.93 L 537.56 909.88 L 539.03 909.96 L 540.50 909.91 L 541.97 909.96 L 543.44 909.86 L 544.92 909.93 L 546.39 909.94 L 547.86 909.95 L 549.33 909.62 L 550.81 909.63 L 552.28 905.46 L 553.75 907.71 L 555.22 909.62 L 556.69 909.83 L 558.17 909.76 L 559.64 909.80 L 561.11 909.89 L 562.58 909.89 L 564.06 909.86 L 565.53 909.87 L 567.00 909.77 L 568.47 909.77 L 569.94 909.95 L 571.42 909.83 L 572.89 909.72 L 574.36 909.95 L 575.83 909.84 L 577.31 909.93 L 578.78 909.84 L 580.25 909.87 L 581.72 909.80 L 583.19 909.81 L 584.67 909.82 L 586.14 909.91 L 587.61 909.97 L 589.08 909.76 L 590.56 909.70 L 592.03 909.32 L 593.50 907.20 L 594.97 907.75 L 596.44 909.72 L 597.92 909.74 L 599.39 909.70 L 600.86 909.76 L 602.33 909.80 L 603.81 909.70 L 605.28 909.79 L 606.75 909.76 L 608.22 909.85 L 609.69 909.82 L 611.17 909.82 L 612.64 909.92 L 614.11 909.85 L 615.58 909.81 L 617.06 909.92 L 618.53 909.86 L 620.00 909.80 L 621.47 909.83 L 622.94 909.80 L 624.42 909.82 L 625.89 909.80 L 627.36 909.80 L 628.83 909.72 L 630.31 909.10 L 631.78 908.96 L 633.25 907.08 L 634.72 909.60 L 636.19 909.85 L 637.67 909.66 L 639.14 909.69 L 640.61 909.93 L 642.08 909.84 L 643.56 909.62 L 645.03 909.63 L 646.50 909.65 L 647.97 909.70 L 649.44 909.76 L 650.92 909.86 L 652.39 909.92 L 653.86 909.83 L 655.33 909.77 L 656.81 909.91 L 658.28 909.89 L 659.75 909.82 L 661.22 909.69 L 662.69 909.77 L 664.17 909.77 L 665.64 909.60 L 667.11 908.53 L 668.58 907.25 L 670.06 909.13 L 671.53 909.87 L 673.00 907.94 L 674.47 909.24 L 675.94 909.29 L 677.42 909.73 L 678.89 909.65 L 680.36 909.64 L 681.83 909.85 L 683.31 909.86 L 684.78 909.89 L 686.25 909.85 L 687.72 909.90 L 689.19 909.89 L 690.67 909.82 L 692.14 909.56 L 693.61 908.38 L 695.08 908.69 L 696.56 909.72 L 698.03 909.79 L 699.50 909.86 L 700.97 909.91 L 702.44 909.88 L 703.92 909.83 L 705.39 909.88 L 706.86 909.89 L 708.33 909.97 L 709.81 909.93 L 711.28 909.85 L 712.75 909.85 L 714.22 909.83 L 715.69 909.81 L 717.17 909.83 L 718.64 909.86 L 720.11 909.79 L 721.58 909.89 L 723.06 909.84 L 724.53 909.85 L 726.00 909.84 L 727.47 895.21 L 728.94 859.37 L 730.42 855.51 L 731.89 855.51 L 733.36 853.07 L 734.83 853.76 L 736.31 864.44 L 737.78 882.34 L 739.25 875.20 L 740.72 851.37 L 742.19 854.36 L 743.67 862.04 L 745.14 870.36 L 746.61 887.98 L 748.08 898.90 L 749.56 882.51 L 751.03 872.15 L 752.50 879.25 L 753.97 883.32 L 755.44 889.50 L 756.92 880.48 L 758.39 887.78 L 759.86 890.72 L 761.33 883.89 L 762.81 882.97 L 764.28 901.91 L 765.75 895.30 L 767.22 904.83 L 768.69 901.61 L 770.17 905.04 L 771.64 880.90 L 773.11 899.09 L 774.58 869.01 L 776.06 891.88 L 777.53 889.29 L 779.00 884.05 L 780.47 896.77 L 781.94 871.95 L 783.42 873.28 L 784.89 875.87 L 786.36 899.65 L 787.83 855.23 L 789.31 867.33 L 790.78 881.54 L 792.25 879.50 L 793.72 881.64 L 795.19 875.59 L 796.67 901.83 L 798.14 902.27 L 799.61 891.79 L 801.08 849.45 L 802.56 869.09 L 804.03 886.95 L 805.50 884.72 L 806.97 870.63 L 808.44 862.47 L 809.92 875.43 L 811.39 892.16 L 812.86 888.79 L 814.33 886.68 L 815.81 891.28 L 817.28 896.52 L 818.75 883.42 L 820.22 878.07 L 821.69 875.23 L 823.17 883.17 L 824.64 867.93 L 826.11 862.12 L 827.58 876.36 L 829.06 897.85 L 830.53 888.67 L 832.00 892.41 L 833.47 899.22 L 834.94 901.60 L 836.42 897.37 L 837.89 901.67 L 839.36 876.71 L 840.83 882.77 L 842.31 884.22 L 843.78 880.63 L 845.25 878.64 L 846.72 886.27 L 848.19 900.02 L 849.67 895.15 L 851.14 896.66 L 852.61 899.91 L 854.08 893.70 L 855.56 884.88 L 857.03 902.09 L 858.50 901.06 L 859.97 890.27 L 861.44 895.37 L 862.92 909.57 L 864.39 881.33 L 865.86 889.05 L 867.33 884.51 L 868.81 859.84 L 870.28 862.24 L 871.75 891.72 L 873.22 896.28 L 874.69 905.08 L 876.17 904.89 L 877.64 897.60 L 879.11 897.90 L 880.58 901.41 L 882.06 893.51 L 883.53 898.81 L 885.00 893.95 L 886.47 889.57 L 887.94 886.09 L 889.42 883.64 L 890.89 878.22 L 892.36 876.83 L 893.83 867.09 L 895.31 862.30 L 896.78 848.45 L 898.25 827.34 L 899.72 847.36 L 901.19 847.36 L 902.67 851.24 L 904.14 857.46 L 905.61 845.96 L 907.08 861.43 L 908.56 848.07 L 910.03 862.90 L 911.50 869.08 L 912.97 877.21 L 914.44 883.40 L 915.92 896.63 L 917.39 901.50 L 918.86 903.47 L 920.33 904.52 L 921.81 907.89 L 923.28 901.65 L 924.75 902.60 L 926.22 900.02 L 927.69 899.76 L 929.17 896.41 L 930.64 897.01 L 932.11 896.84 L 933.58 892.64 L 935.06 896.53 L 936.53 893.41 L 938.00 893.73 L 939.47 894.57 L 940.94 895.49 L 942.42 895.99 L 943.89 894.80 L 945.36 897.61 L 946.83 902.19 L 948.31 904.11 L 949.78 906.13 L 951.25 893.55 L 952.72 896.45 L 954.19 901.72 L 955.67 906.04 L 957.14 901.29 L 958.61 901.12 L 960.08 899.38 L 961.56 900.75 L 963.03 900.06 L 964.50 899.83 L 965.97 896.51 L 967.44 897.41 L 968.92 895.07 L 970.39 893.69 L 971.86 893.64 L 973.33 892.14 L 974.81 898.00 L 976.28 900.78 L 977.75 901.69 L 979.22 888.80 L 980.69 885.21 L 982.17 881.23 L 983.64 878.17 L 985.11 880.59 L 986.58 883.71 L 988.06 883.74 L 989.53 884.32 L 991.00 885.76 L 992.47 891.10" stroke="#E53935" />
<text x="620.00" y="952" font-size="15" text-anchor="middle">minutos (relativo ao início do evento)</text>
<text class="small" x="90.00" y="936" text-anchor="middle">-4.00</text>
<text class="small" x="266.67" y="936" text-anchor="middle">-2.00</text>
<text class="small" x="443.33" y="936" text-anchor="middle">0.00</text>
<text class="small" x="620.00" y="936" text-anchor="middle">2.00</text>
<text class="small" x="796.67" y="936" text-anchor="middle">4.00</text>
<text class="small" x="973.33" y="936" text-anchor="middle">6.00</text>
<text class="small" x="1150.00" y="936" text-anchor="middle">8.00</text>
</svg>