<?xml version="1.0" encoding="UTF-8"?>
<svg xmlns="http://www.w3.org/2000/svg" width="1180" height="980" viewBox="0 0 1180 980">
<style>
text { font-family: -apple-system, BlinkMacSystemFont, 'Segoe UI', Roboto, Helvetica, Arial, sans-serif; fill: #111; }
.small { font-size: 12px; fill: #222; }
.title { font-size: 18px; font-weight: 700; }
.axis { stroke: #111; stroke-width: 1.4; }
.grid { stroke: #E6E6E6; stroke-width: 1; }
.event { fill: #FFEB3B; fill-opacity: 0.18; }
.eventline { stroke: #F9A825; stroke-width: 1.2; stroke-dasharray: 4 3; }
.series { fill: none; stroke-width: 1.8; }
</style>
<text class="title" x="90" y="34">ciclo 33 — basculamento — 2025-12-13T06:24:33-03:00 → 2025-12-13T06:25:33-03:00 (span 60s, dur 49s)</text>
<text class="small" x="90" y="54">GPS: -11.694376,-47.165186  hotspot: -11.694,-47.165</text>
<text class="small" x="90" y="70">Janela: -3.00 → 4.00 min (relativo ao início do evento)</text>
<text x="90" y="79.00" font-size="14" font-weight="700">Velocidade (km/h)</text>
<rect class="event" x="443.33" y="85.00" width="88.33" height="192.75" />
<line class="eventline" x1="443.33" y1="85.00" x2="443.33" y2="277.75" />
<line class="eventline" x1="531.67" y1="85.00" x2="531.67" y2="277.75" />
<line class="grid" x1="90" y1="277.75" x2="1150" y2="277.75" />
<text class="small" x="80" y="281.75" text-anchor="end">0.00</text>
<line class="grid" x1="90" y1="239.20" x2="1150" y2="239.20" />
<text class="small" x="80" y="243.20" text-anchor="end">10.0</text>
<line class="grid" x1="90" y1="200.65" x2="1150" y2="200.65" />
<text class="small" x="80" y="204.65" text-anchor="end">20.0</text>
<line class="grid" x1="90" y1="162.10" x2="1150" y2="162.10" />
<text class="small" x="80" y="166.10" text-anchor="end">30.0</text>
<line class="grid" x1="90" y1="123.55" x2="1150" y2="123.55" />
<text class="small" x="80" y="127.55" text-anchor="end">40.0</text>
<line class="grid" x1="90" y1="85.00" x2="1150" y2="85.00" />
<text class="small" x="80" y="89.00" text-anchor="end">50.0</text>
<line class="grid" x1="90.00" y1="85.00" x2="90.00" y2="277.75" />
<line class="grid" x1="266.67" y1="85.00" x2="266.67" y2="277.75" />
<line class="grid" x1="443.33" y1="85.00" x2="443.33" y2="277.75" />
<line class="grid" x1="620.00" y1="85.00" x2="620.00" y2="277.75" />
<line class="grid" x1="796.67" y1="85.00" x2="796.67" y2="277.75" />
<line class="grid" x1="973.33" y1="85.00" x2="973.33" y2="277.75" />
<line class="grid" x1="1150.00" y1="85.00" x2="1150.00" y2="277.75" />
<line class="axis" x1="90" y1="85.00" x2="90" y2="277.75" />
<line class="axis" x1="90" y1="277.75" x2="1150" y2="277.75" />
<path class="series" d="M 178.33 245.97 L 179.81 246.25 L 181.28 247.08 L 182.75 244.72 L 184.22 244.58 L 185.69 245.69 L 187.17 245.28 L 188.64 245.97 L 190.11 246.39 L 191.58 248.05 L 193.06 248.88 L 194.53 249.30 L 196.00 249.30 L 197.47 249.58 L 198.94 248.74 L 200.42 249.44 L 201.89 248.61 L 203.36 247.91 L 204.83 246.80 L 206.31 246.39 L 207.78 245.41 L 209.25 245.97 L 210.72 245.28 L 212.19 244.72 L 213.67 243.61 L 215.14 244.03 L 216.61 243.33 L 218.08 245.83 L 219.56 244.44 L 221.03 245.41 L 222.50 245.69 L 223.97 246.52 L 225.44 245.69 L 226.92 245.41 L 228.39 246.11 L 229.86 245.41 L 231.33 245.41 L 232.81 246.11 L 234.28 245.83 L 235.75 243.33 L 237.22 243.33 L 238.69 244.58 L 240.17 245.14 L 241.64 243.47 L 243.11 242.50 L 244.58 241.81 L 246.06 240.28 L 247.53 233.06 L 249.00 228.76 L 250.47 224.04 L 251.94 219.32 L 253.42 212.25 L 254.89 209.47 L 256.36 206.97 L 257.83 203.09 L 259.31 200.17 L 260.78 196.56 L 262.25 198.09 L 263.72 193.23 L 265.19 194.62 L 266.67 194.34 L 268.14 195.59 L 269.61 195.59 L 271.08 202.25 L 272.56 195.45 L 274.03 200.17 L 275.50 207.94 L 276.97 213.08 L 278.44 215.30 L 279.92 222.79 L 281.39 224.87 L 282.86 227.51 L 284.33 230.43 L 285.81 237.37 L 287.28 239.45 L 288.75 239.86 L 290.22 239.31 L 291.69 236.39 L 293.17 236.39 L 294.64 236.39 L 296.11 233.90 L 297.58 233.62 L 299.06 231.12 L 300.53 229.73 L 302.00 226.54 L 303.47 225.71 L 304.94 230.15 L 306.42 233.20 L 307.89 242.36 L 309.36 239.45 L 310.83 238.34 L 312.31 237.37 L 313.78 237.92 L 315.25 235.14 L 316.72 235.84 L 318.19 234.17 L 319.67 235.28 L 321.14 232.92 L 322.61 232.92 L 324.08 235.01 L 325.56 239.17 L 327.03 236.81 L 328.50 235.98 L 329.97 230.98 L 331.44 227.23 L 332.92 227.93 L 334.39 218.63 L 335.86 219.60 L 337.33 220.16 L 338.81 229.18 L 340.28 220.16 L 341.75 220.99 L 343.22 219.32 L 344.69 219.18 L 346.17 215.72 L 347.64 215.02 L 349.11 213.49 L 350.58 210.86 L 352.06 210.30 L 353.53 215.44 L 355.00 227.37 L 356.47 217.38 L 357.94 214.19 L 359.42 212.80 L 360.89 226.68 L 362.36 210.44 L 363.83 212.52 L 365.31 229.45 L 366.78 216.69 L 368.25 219.60 L 369.72 222.65 L 371.19 223.49 L 372.67 222.38 L 374.14 222.65 L 375.61 229.87 L 377.08 235.84 L 378.56 234.73 L 380.03 233.76 L 381.50 237.92 L 382.97 241.67 L 384.44 242.92 L 385.92 244.03 L 387.39 245.83 L 388.86 244.86 L 390.33 242.92 L 391.81 243.33 L 393.28 245.14 L 394.75 245.55 L 396.22 243.89 L 397.69 249.99 L 399.17 244.03 L 400.64 243.47 L 402.11 240.56 L 403.58 236.95 L 405.06 242.92 L 406.53 251.38 L 408.00 262.35 L 409.47 277.75 L 410.94 275.39 L 412.42 268.59 L 413.89 257.77 L 415.36 258.60 L 416.83 255.41 L 418.31 258.60 L 419.78 257.35 L 421.25 257.49 L 422.72 259.57 L 424.19 258.74 L 425.67 258.60 L 427.14 259.43 L 428.61 257.07 L 430.08 260.54 L 431.56 256.24 L 433.03 260.26 L 434.50 257.63 L 435.97 264.43 L 437.44 264.15 L 438.92 269.15 L 440.39 269.84 L 441.86 270.39 L 443.33 277.75 L 444.81 277.75 L 446.28 277.75 L 447.75 277.75 L 449.22 277.75 L 450.69 277.75 L 452.17 277.75 L 453.64 277.75 L 455.11 277.75 L 456.58 277.75 L 458.06 277.75 L 459.53 277.75 L 461.00 277.75 L 462.47 277.75 L 463.94 277.75 L 465.42 277.75 L 466.89 277.75 L 468.36 277.75 L 469.83 277.75 L 471.31 277.75 L 472.78 277.75 L 474.25 277.75 L 475.72 277.75 L 477.19 277.75 L 478.67 277.75 L 480.14 277.75 L 481.61 277.75 L 483.08 277.75 L 484.56 277.75 L 486.03 277.75 L 487.50 277.75 L 488.97 277.75 L 490.44 277.75 L 491.92 277.75 L 493.39 277.75 L 494.86 277.75 L 496.33 267.76 L 497.81 253.05 L 499.28 260.12 L 500.75 269.15 L 502.22 277.75 L 503.69 277.75 L 505.17 277.75 L 506.64 277.75 L 508.11 277.75 L 509.58 277.75 L 511.06 266.37 L 512.53 273.73 L 514.00 277.75 L 515.47 277.75 L 516.94 277.75 L 518.42 277.75 L 519.89 277.75 L 521.36 277.75 L 522.83 277.75 L 524.31 277.75 L 525.78 277.75 L 527.25 277.75 L 528.72 277.75 L 530.19 277.75 L 531.67 277.75 L 533.14 269.98 L 534.61 258.46 L 536.08 245.69 L 537.56 236.95 L 539.03 225.43 L 540.50 218.07 L 541.97 220.99 L 543.44 210.30 L 544.92 206.97 L 546.39 201.56 L 547.86 195.73 L 549.33 198.09 L 550.81 194.62 L 552.28 192.54 L 553.75 189.62 L 555.22 187.68 L 556.69 189.90 L 558.17 191.98 L 559.64 198.09 L 561.11 195.04 L 562.58 203.50 L 564.06 203.64 L 565.53 204.89 L 567.00 202.11 L 568.47 206.14 L 569.94 205.58 L 571.42 201.56 L 572.89 201.56 L 574.36 204.75 L 575.83 206.14 L 577.31 199.76 L 578.78 204.34 L 580.25 203.50 L 581.72 202.95 L 583.19 194.90 L 584.67 191.43 L 586.14 185.74 L 587.61 182.69 L 589.08 181.16 L 590.56 172.55 L 592.03 168.39 L 593.50 170.20 L 594.97 173.66 L 596.44 175.61 L 597.92 171.03 L 599.39 164.23 L 600.86 160.34 L 602.33 161.04 L 603.81 164.37 L 605.28 169.09 L 606.75 172.00 L 608.22 174.64 L 609.69 175.19 L 611.17 176.86 L 612.64 182.13 L 614.11 179.91 L 615.58 174.91 L 617.06 168.95 L 618.53 167.70 L 620.00 166.03 L 621.47 164.23 L 622.94 165.20 L 624.42 164.64 L 625.89 163.26 L 627.36 164.64 L 628.83 163.53 L 630.31 166.73 L 631.78 169.09 L 633.25 172.14 L 634.72 173.11 L 636.19 172.14 L 637.67 175.05 L 639.14 173.94 L 640.61 173.11 L 642.08 174.36 L 643.56 174.36 L 645.03 173.39 L 646.50 172.69 L 647.97 176.30 L 649.44 173.53 L 650.92 174.50 L 652.39 177.55 L 653.86 174.36 L 655.33 173.66 L 656.81 176.72 L 658.28 173.80 L 659.75 171.44 L 661.22 170.89 L 662.69 171.58 L 664.17 173.39 L 665.64 172.28 L 667.11 173.94 L 668.58 171.86 L 670.06 174.22 L 671.53 173.66 L 673.00 177.41 L 674.47 175.19 L 675.94 174.78 L 677.42 174.91 L 678.89 174.08 L 680.36 173.39 L 681.83 170.47 L 683.31 171.86 L 684.78 174.22 L 686.25 175.05 L 687.72 175.89 L 689.19 172.69 L 690.67 175.47 L 692.14 178.38 L 693.61 182.55 L 695.08 182.27 L 696.56 181.44 L 698.03 181.30 L 699.50 181.85 L 700.97 178.80 L 702.44 177.97 L 703.92 176.58 L 705.39 174.50 L 706.86 173.80 L 708.33 172.42 L 709.81 169.50 L 711.28 168.95 L 712.75 168.25 L 714.22 172.00 L 715.69 175.05 L 717.17 179.35 L 718.64 187.54 L 720.11 181.58 L 721.58 188.65 L 723.06 188.79 L 724.53 191.29 L 726.00 192.54 L 727.47 192.82 L 728.94 192.12 L 730.42 189.90 L 731.89 191.98 L 733.36 199.48 L 734.83 189.62 L 736.31 188.65 L 737.78 183.93 L 739.25 182.82 L 740.72 171.44 L 742.19 166.86 L 743.67 163.67 L 745.14 165.06 L 746.61 177.00 L 748.08 176.86 L 749.56 176.58 L 751.03 174.50 L 752.50 176.72 L 753.97 170.20 L 755.44 163.12 L 756.92 162.42 L 758.39 158.68 L 759.86 157.71 L 761.33 155.21 L 762.81 150.63 L 764.28 150.21 L 765.75 147.02 L 767.22 146.46 L 768.69 149.79 L 770.17 147.44 L 771.64 144.94 L 773.11 143.97 L 774.58 145.08 L 776.06 143.13 L 777.53 146.88 L 779.00 152.29 L 780.47 153.68 L 781.94 155.21 L 783.42 154.79 L 784.89 153.13 L 786.36 151.18 L 787.83 148.13 L 789.31 148.55 L 790.78 149.52 L 792.25 151.46 L 793.72 152.29 L 795.19 151.74 L 796.67 151.88" stroke="#1976D2" />
<text x="90" y="289.75" font-size="14" font-weight="700">Inclinação (graus)</text>
<rect class="event" x="443.33" y="295.75" width="88.33" height="192.75" />
<line class="eventline" x1="443.33" y1="295.75" x2="443.33" y2="488.50" />
<line class="eventline" x1="531.67" y1="295.75" x2="531.67" y2="488.50" />
<line class="grid" x1="90" y1="488.50" x2="1150" y2="488.50" />
<text class="small" x="80" y="492.50" text-anchor="end">-20.0</text>
<line class="grid" x1="90" y1="449.95" x2="1150" y2="449.95" />
<text class="small" x="80" y="453.95" text-anchor="end">-10.0</text>
<line class="grid" x1="90" y1="411.40" x2="1150" y2="411.40" />
<text class="small" x="80" y="415.40" text-anchor="end">0.00</text>
<line class="grid" x1="90" y1="372.85" x2="1150" y2="372.85" />
<text class="small" x="80" y="376.85" text-anchor="end">10.0</text>
<line class="grid" x1="90" y1="334.30" x2="1150" y2="334.30" />
<text class="small" x="80" y="338.30" text-anchor="end">20.0</text>
<line class="grid" x1="90" y1="295.75" x2="1150" y2="295.75" />
<text class="small" x="80" y="299.75" text-anchor="end">30.0</text>
<line class="grid" x1="90.00" y1="295.75" x2="90.00" y2="488.50" />
<line class="grid" x1="266.67" y1="295.75" x2="266.67" y2="488.50" />
<line class="grid" x1="443.33" y1="295.75" x2="443.33" y2="488.50" />
<line class="grid" x1="620.00" y1="295.75" x2="620.00" y2="488.50" />
<line class="grid" x1="796.67" y1="295.75" x2="796.67" y2="488.50" />
<line class="grid" x1="973.33" y1="295.75" x2="973.33" y2="488.50" />
<line class="grid" x1="1150.00" y1="295.75" x2="1150.00" y2="488.50" />
<line class="axis" x1="90" y1="295.75" x2="90" y2="488.50" />
<line class="axis" x1="90" y1="488.50" x2="1150" y2="488.50" />
<path class="series" d="M 178.33 384.00 L 179.81 386.60 L 181.28 388.40 L 182.75 390.05 L 184.22 392.23 L 185.69 388.78 L 187.17 390.72 L 188.64 392.51 L 190.11 394.66 L 191.58 395.26 L 193.06 396.17 L 194.53 394.84 L 196.00 396.25 L 197.47 396.29 L 198.94 396.21 L 200.42 394.40 L 201.89 392.76 L 203.36 393.14 L 204.83 392.17 L 206.31 393.14 L 207.78 391.53 L 209.25 391.90 L 210.72 390.65 L 212.19 388.58 L 213.67 387.86 L 215.14 388.17 L 216.61 388.38 L 218.08 390.09 L 219.56 390.46 L 221.03 392.29 L 222.50 393.49 L 223.97 394.09 L 225.44 391.56 L 226.92 393.47 L 228.39 392.51 L 229.86 393.31 L 231.33 391.32 L 232.81 395.84 L 234.28 390.58 L 235.75 382.11 L 237.22 386.87 L 238.69 393.37 L 240.17 387.73 L 241.64 386.66 L 243.11 385.49 L 244.58 377.05 L 246.06 384.29 L 247.53 380.79 L 249.00 379.33 L 250.47 372.56 L 251.94 378.29 L 253.42 372.87 L 254.89 365.23 L 256.36 367.98 L 257.83 375.24 L 259.31 373.43 L 260.78 376.20 L 262.25 375.85 L 263.72 371.83 L 265.19 375.72 L 266.67 371.38 L 268.14 370.87 L 269.61 368.12 L 271.08 369.92 L 272.56 374.26 L 274.03 377.74 L 275.50 371.47 L 276.97 378.38 L 278.44 382.01 L 279.92 381.20 L 281.39 380.45 L 282.86 383.53 L 284.33 379.33 L 285.81 386.44 L 287.28 386.64 L 288.75 386.76 L 290.22 386.75 L 291.69 384.22 L 293.17 381.90 L 294.64 382.00 L 296.11 378.81 L 297.58 377.43 L 299.06 370.91 L 300.53 377.66 L 302.00 383.09 L 303.47 383.63 L 304.94 381.40 L 306.42 383.23 L 307.89 384.96 L 309.36 386.79 L 310.83 380.91 L 312.31 378.19 L 313.78 374.03 L 315.25 368.07 L 316.72 366.55 L 318.19 366.84 L 319.67 366.13 L 321.14 361.91 L 322.61 350.99 L 324.08 346.93 L 325.56 358.80 L 327.03 360.43 L 328.50 371.59 L 329.97 362.50 L 331.44 353.67 L 332.92 354.95 L 334.39 340.50 L 335.86 337.67 L 337.33 352.57 L 338.81 372.10 L 340.28 367.81 L 341.75 368.18 L 343.22 369.58 L 344.69 369.04 L 346.17 361.64 L 347.64 355.30 L 349.11 358.89 L 350.58 359.17 L 352.06 355.06 L 353.53 362.26 L 355.00 370.04 L 356.47 375.25 L 357.94 371.41 L 359.42 368.63 L 360.89 367.14 L 362.36 361.87 L 363.83 362.49 L 365.31 364.51 L 366.78 361.66 L 368.25 364.78 L 369.72 360.66 L 371.19 357.07 L 372.67 357.55 L 374.14 363.43 L 375.61 360.79 L 377.08 360.54 L 378.56 354.15 L 380.03 352.61 L 381.50 357.10 L 382.97 355.81 L 384.44 353.26 L 385.92 353.26 L 387.39 355.93 L 388.86 364.85 L 390.33 359.36 L 391.81 358.03 L 393.28 355.16 L 394.75 355.55 L 396.22 360.77 L 397.69 356.26 L 399.17 354.99 L 400.64 364.36 L 402.11 368.62 L 403.58 358.28 L 405.06 352.95 L 406.53 350.00 L 408.00 349.82 L 409.47 351.76 L 410.94 361.11 L 412.42 362.00 L 413.89 365.39 L 415.36 366.77 L 416.83 367.78 L 418.31 371.15 L 419.78 370.15 L 421.25 369.05 L 422.72 372.90 L 424.19 368.44 L 425.67 366.60 L 427.14 372.34 L 428.61 376.83 L 430.08 373.77 L 431.56 382.59 L 433.03 380.47 L 434.50 382.02 L 435.97 389.08 L 437.44 383.17 L 438.92 380.54 L 440.39 379.98 L 441.86 379.26 L 443.33 384.20 L 444.81 377.26 L 446.28 380.52 L 447.75 374.40 L 449.22 374.03 L 450.69 376.26 L 452.17 376.76 L 453.64 376.12 L 455.11 375.94 L 456.58 375.84 L 458.06 376.11 L 459.53 376.47 L 461.00 375.90 L 462.47 375.68 L 463.94 376.37 L 465.42 375.73 L 466.89 376.50 L 468.36 376.34 L 469.83 376.01 L 471.31 376.02 L 472.78 376.28 L 474.25 376.22 L 475.72 376.44 L 477.19 376.32 L 478.67 376.81 L 480.14 378.90 L 481.61 375.94 L 483.08 377.65 L 484.56 378.09 L 486.03 378.33 L 487.50 378.51 L 488.97 378.75 L 490.44 379.35 L 491.92 378.71 L 493.39 384.75 L 494.86 403.39 L 496.33 395.69 L 497.81 379.25 L 499.28 363.76 L 500.75 362.73 L 502.22 385.01 L 503.69 381.87 L 505.17 384.56 L 506.64 380.99 L 508.11 396.60 L 509.58 392.95 L 511.06 362.51 L 512.53 377.68 L 514.00 380.98 L 515.47 382.29 L 516.94 381.84 L 518.42 381.44 L 519.89 381.98 L 521.36 381.62 L 522.83 381.64 L 524.31 381.41 L 525.78 381.57 L 527.25 381.56 L 528.72 381.53 L 530.19 387.93 L 531.67 384.21 L 533.14 393.91 L 534.61 392.49 L 536.08 397.18 L 537.56 387.45 L 539.03 382.11 L 540.50 382.14 L 541.97 382.21 L 543.44 380.16 L 544.92 394.60 L 546.39 382.92 L 547.86 371.83 L 549.33 378.93 L 550.81 371.13 L 552.28 378.27 L 553.75 367.58 L 555.22 372.16 L 556.69 361.87 L 558.17 358.73 L 559.64 364.58 L 561.11 359.07 L 562.58 364.40 L 564.06 379.61 L 565.53 369.51 L 567.00 375.42 L 568.47 358.85 L 569.94 370.51 L 571.42 369.48 L 572.89 355.72 L 574.36 364.20 L 575.83 368.22 L 577.31 354.60 L 578.78 341.60 L 580.25 346.60 L 581.72 361.05 L 583.19 352.93 L 584.67 352.55 L 586.14 356.71 L 587.61 351.47 L 589.08 357.05 L 590.56 356.46 L 592.03 356.35 L 593.50 358.51 L 594.97 360.69 L 596.44 371.41 L 597.92 367.41 L 599.39 372.44 L 600.86 363.43 L 602.33 357.54 L 603.81 361.03 L 605.28 361.95 L 606.75 366.12 L 608.22 358.73 L 609.69 356.96 L 611.17 350.57 L 612.64 358.58 L 614.11 351.77 L 615.58 353.79 L 617.06 349.87 L 618.53 346.78 L 620.00 346.06 L 621.47 344.30 L 622.94 342.42 L 624.42 345.33 L 625.89 341.08 L 627.36 344.28 L 628.83 345.15 L 630.31 345.43 L 631.78 343.96 L 633.25 343.63 L 634.72 342.96 L 636.19 344.25 L 637.67 343.07 L 639.14 345.65 L 640.61 343.91 L 642.08 342.51 L 643.56 344.91 L 645.03 345.09 L 646.50 337.48 L 647.97 347.41 L 649.44 343.25 L 650.92 345.22 L 652.39 343.75 L 653.86 344.85 L 655.33 343.77 L 656.81 342.98 L 658.28 343.43 L 659.75 343.89 L 661.22 343.43 L 662.69 344.16 L 664.17 344.27 L 665.64 343.69 L 667.11 343.67 L 668.58 343.42 L 670.06 344.05 L 671.53 346.01 L 673.00 344.45 L 674.47 344.18 L 675.94 342.63 L 677.42 344.78 L 678.89 344.78 L 680.36 342.85 L 681.83 344.69 L 683.31 343.67 L 684.78 344.84 L 686.25 343.32 L 687.72 346.15 L 689.19 341.64 L 690.67 346.70 L 692.14 344.64 L 693.61 346.05 L 695.08 344.47 L 696.56 345.32 L 698.03 345.72 L 699.50 345.12 L 700.97 343.90 L 702.44 344.45 L 703.92 343.48 L 705.39 344.90 L 706.86 343.17 L 708.33 341.92 L 709.81 343.27 L 711.28 344.19 L 712.75 339.81 L 714.22 335.38 L 715.69 335.75 L 717.17 338.47 L 718.64 345.23 L 720.11 342.02 L 721.58 347.37 L 723.06 356.49 L 724.53 350.55 L 726.00 350.68 L 727.47 347.97 L 728.94 353.09 L 730.42 355.84 L 731.89 356.78 L 733.36 355.02 L 734.83 362.22 L 736.31 365.19 L 737.78 364.35 L 739.25 370.26 L 740.72 381.70 L 742.19 382.04 L 743.67 368.37 L 745.14 368.49 L 746.61 362.89 L 748.08 374.49 L 749.56 375.11 L 751.03 365.61 L 752.50 371.18 L 753.97 375.40 L 755.44 376.04 L 756.92 371.62 L 758.39 368.49 L 759.86 369.31 L 761.33 371.15 L 762.81 360.45 L 764.28 361.50 L 765.75 361.61 L 767.22 358.85 L 768.69 360.28 L 770.17 356.84 L 771.64 358.41 L 773.11 359.96 L 774.58 359.24 L 776.06 358.26 L 777.53 354.31 L 779.00 356.74 L 780.47 359.50 L 781.94 366.32 L 783.42 363.88 L 784.89 368.90 L 786.36 363.92 L 787.83 364.58 L 789.31 367.46 L 790.78 362.53 L 792.25 363.70 L 793.72 363.19 L 795.19 368.55 L 796.67 368.18" stroke="#2E7D32" />
<path class="series" d="M 178.33 403.11 L 179.81 399.79 L 181.28 395.04 L 182.75 399.54 L 184.22 400.29 L 185.69 398.41 L 187.17 402.47 L 188.64 401.78 L 190.11 405.40 L 191.58 407.33 L 193.06 406.88 L 194.53 403.56 L 196.00 404.11 L 197.47 404.70 L 198.94 402.41 L 200.42 403.59 L 201.89 403.38 L 203.36 406.99 L 204.83 406.77 L 206.31 405.96 L 207.78 404.37 L 209.25 403.70 L 210.72 401.41 L 212.19 403.84 L 213.67 404.48 L 215.14 404.28 L 216.61 402.57 L 218.08 404.48 L 219.56 405.67 L 221.03 404.01 L 222.50 405.38 L 223.97 406.46 L 225.44 408.24 L 226.92 406.12 L 228.39 406.90 L 229.86 407.38 L 231.33 410.27 L 232.81 418.44 L 234.28 414.08 L 235.75 414.13 L 237.22 422.68 L 238.69 416.34 L 240.17 414.88 L 241.64 414.91 L 243.11 411.27 L 244.58 411.07 L 246.06 411.78 L 247.53 405.97 L 249.00 408.26 L 250.47 401.26 L 251.94 407.05 L 253.42 417.64 L 254.89 411.30 L 256.36 410.08 L 257.83 409.67 L 259.31 413.69 L 260.78 408.44 L 262.25 411.37 L 263.72 405.27 L 265.19 426.67 L 266.67 425.25 L 268.14 435.46 L 269.61 434.02 L 271.08 432.81 L 272.56 431.61 L 274.03 418.49 L 275.50 409.46 L 276.97 408.21 L 278.44 407.61 L 279.92 414.26 L 281.39 413.91 L 282.86 417.25 L 284.33 421.76 L 285.81 414.35 L 287.28 420.08 L 288.75 413.07 L 290.22 422.75 L 291.69 419.56 L 293.17 419.38 L 294.64 424.77 L 296.11 417.79 L 297.58 413.37 L 299.06 412.24 L 300.53 409.41 L 302.00 407.99 L 303.47 412.58 L 304.94 399.36 L 306.42 401.74 L 307.89 397.61 L 309.36 402.84 L 310.83 418.75 L 312.31 437.76 L 313.78 443.87 L 315.25 433.83 L 316.72 429.44 L 318.19 425.49 L 319.67 421.18 L 321.14 421.35 L 322.61 415.76 L 324.08 416.22 L 325.56 413.20 L 327.03 418.21 L 328.50 409.28 L 329.97 417.15 L 331.44 422.08 L 332.92 424.05 L 334.39 417.61 L 335.86 407.65 L 337.33 406.12 L 338.81 421.42 L 340.28 408.59 L 341.75 412.35 L 343.22 410.11 L 344.69 411.54 L 346.17 404.09 L 347.64 402.26 L 349.11 400.28 L 350.58 402.56 L 352.06 407.50 L 353.53 406.97 L 355.00 407.24 L 356.47 407.73 L 357.94 400.49 L 359.42 400.97 L 360.89 399.88 L 362.36 407.37 L 363.83 407.27 L 365.31 415.47 L 366.78 407.47 L 368.25 403.95 L 369.72 408.70 L 371.19 400.85 L 372.67 393.14 L 374.14 396.90 L 375.61 408.70 L 377.08 419.18 L 378.56 422.55 L 380.03 413.45 L 381.50 411.60 L 382.97 422.34 L 384.44 416.91 L 385.92 416.91 L 387.39 411.92 L 388.86 419.58 L 390.33 425.17 L 391.81 422.88 L 393.28 424.67 L 394.75 430.77 L 396.22 429.83 L 397.69 429.25 L 399.17 430.83 L 400.64 429.43 L 402.11 422.31 L 403.58 444.22 L 405.06 431.93 L 406.53 411.49 L 408.00 415.87 L 409.47 418.66 L 410.94 423.97 L 412.42 426.03 L 413.89 429.20 L 415.36 418.21 L 416.83 420.40 L 418.31 412.60 L 419.78 414.02 L 421.25 401.19 L 422.72 410.99 L 424.19 416.51 L 425.67 409.04 L 427.14 413.51 L 428.61 418.29 L 430.08 417.63 L 431.56 411.25 L 433.03 423.20 L 434.50 421.21 L 435.97 419.50 L 437.44 421.60 L 438.92 414.28 L 440.39 423.33 L 441.86 419.24 L 443.33 416.66 L 444.81 420.77 L 446.28 418.49 L 447.75 418.44 L 449.22 418.48 L 450.69 419.05 L 452.17 419.03 L 453.64 418.73 L 455.11 418.68 L 456.58 418.59 L 458.06 418.85 L 459.53 419.35 L 461.00 418.33 L 462.47 418.91 L 463.94 418.99 L 465.42 418.52 L 466.89 419.15 L 468.36 418.59 L 469.83 418.61 L 471.31 418.92 L 472.78 418.55 L 474.25 418.84 L 475.72 418.72 L 477.19 418.75 L 478.67 418.60 L 480.14 419.20 L 481.61 417.93 L 483.08 418.00 L 484.56 418.71 L 486.03 418.07 L 487.50 417.77 L 488.97 418.54 L 490.44 417.66 L 491.92 418.66 L 493.39 414.80 L 494.86 419.78 L 496.33 412.44 L 497.81 415.08 L 499.28 432.67 L 500.75 426.45 L 502.22 422.42 L 503.69 423.68 L 505.17 425.09 L 506.64 421.81 L 508.11 420.81 L 509.58 422.30 L 511.06 425.45 L 512.53 421.22 L 514.00 420.80 L 515.47 420.74 L 516.94 421.50 L 518.42 421.88 L 519.89 421.41 L 521.36 420.73 L 522.83 421.40 L 524.31 421.84 L 525.78 421.14 L 527.25 421.66 L 528.72 421.63 L 530.19 419.68 L 531.67 422.44 L 533.14 420.66 L 534.61 422.84 L 536.08 419.98 L 537.56 410.25 L 539.03 416.86 L 540.50 425.33 L 541.97 417.01 L 543.44 417.89 L 544.92 417.22 L 546.39 416.10 L 547.86 411.33 L 549.33 408.74 L 550.81 414.50 L 552.28 408.27 L 553.75 401.57 L 555.22 405.59 L 556.69 417.76 L 558.17 414.36 L 559.64 390.48 L 561.11 403.85 L 562.58 419.92 L 564.06 385.33 L 565.53 390.71 L 567.00 395.71 L 568.47 384.45 L 569.94 388.86 L 571.42 382.83 L 572.89 428.76 L 574.36 398.25 L 575.83 380.24 L 577.31 368.71 L 578.78 381.45 L 580.25 393.54 L 581.72 414.47 L 583.19 399.50 L 584.67 396.84 L 586.14 403.03 L 587.61 407.62 L 589.08 407.15 L 590.56 403.28 L 592.03 408.46 L 593.50 385.61 L 594.97 390.55 L 596.44 403.22 L 597.92 403.52 L 599.39 407.78 L 600.86 411.03 L 602.33 400.34 L 603.81 410.32 L 605.28 405.74 L 606.75 405.24 L 608.22 401.18 L 609.69 395.33 L 611.17 388.33 L 612.64 413.95 L 614.11 405.46 L 615.58 409.54 L 617.06 403.42 L 618.53 406.35 L 620.00 411.87 L 621.47 404.49 L 622.94 414.42 L 624.42 402.09 L 625.89 413.32 L 627.36 411.52 L 628.83 412.00 L 630.31 413.20 L 631.78 420.88 L 633.25 416.25 L 634.72 415.35 L 636.19 415.07 L 637.67 407.93 L 639.14 415.34 L 640.61 415.72 L 642.08 413.37 L 643.56 409.30 L 645.03 415.98 L 646.50 419.13 L 647.97 414.57 L 649.44 417.16 L 650.92 417.36 L 652.39 415.95 L 653.86 413.28 L 655.33 412.99 L 656.81 405.06 L 658.28 407.37 L 659.75 405.78 L 661.22 407.23 L 662.69 405.82 L 664.17 411.05 L 665.64 407.41 L 667.11 410.42 L 668.58 415.29 L 670.06 412.53 L 671.53 419.11 L 673.00 415.43 L 674.47 416.97 L 675.94 418.90 L 677.42 415.13 L 678.89 415.13 L 680.36 404.40 L 681.83 410.86 L 683.31 410.19 L 684.78 411.19 L 686.25 413.63 L 687.72 405.19 L 689.19 404.67 L 690.67 411.38 L 692.14 410.33 L 693.61 411.33 L 695.08 409.96 L 696.56 409.10 L 698.03 410.41 L 699.50 409.26 L 700.97 411.23 L 702.44 408.11 L 703.92 408.83 L 705.39 410.74 L 706.86 407.54 L 708.33 407.85 L 709.81 408.41 L 711.28 408.97 L 712.75 408.90 L 714.22 414.58 L 715.69 414.89 L 717.17 415.44 L 718.64 424.53 L 720.11 435.15 L 721.58 435.25 L 723.06 435.13 L 724.53 433.32 L 726.00 441.78 L 727.47 432.58 L 728.94 432.45 L 730.42 407.81 L 731.89 378.06 L 733.36 364.61 L 734.83 368.82 L 736.31 370.12 L 737.78 369.23 L 739.25 386.04 L 740.72 417.44 L 742.19 419.06 L 743.67 423.11 L 745.14 435.47 L 746.61 440.76 L 748.08 433.38 L 749.56 420.61 L 751.03 406.89 L 752.50 408.15 L 753.97 408.37 L 755.44 411.48 L 756.92 409.78 L 758.39 399.65 L 759.86 400.50 L 761.33 402.89 L 762.81 402.94 L 764.28 400.37 L 765.75 398.11 L 767.22 400.36 L 768.69 397.29 L 770.17 407.57 L 771.64 405.87 L 773.11 396.53 L 774.58 402.31 L 776.06 404.63 L 777.53 404.69 L 779.00 403.65 L 780.47 406.05 L 781.94 407.74 L 783.42 408.71 L 784.89 408.73 L 786.36 408.28 L 787.83 406.55 L 789.31 406.89 L 790.78 406.14 L 792.25 401.89 L 793.72 406.50 L 795.19 401.55 L 796.67 407.53" stroke="#6A1B9A" />
<line x1="900.00" y1="307.75" x2="918.00" y2="307.75" stroke="#2E7D32" stroke-width="3" />
<text class="small" x="924.00" y="311.75">pitch</text>
<line x1="900.00" y1="323.75" x2="918.00" y2="323.75" stroke="#6A1B9A" stroke-width="3" />
<text class="small" x="924.00" y="327.75">roll</text>
<text x="90" y="500.50" font-size="14" font-weight="700">Aceleração (magnitude) (u.a.)</text>
<rect class="event" x="443.33" y="506.50" width="88.33" height="192.75" />
<line class="eventline" x1="443.33" y1="506.50" x2="443.33" y2="699.25" />
<line class="eventline" x1="531.67" y1="506.50" x2="531.67" y2="699.25" />
<line class="grid" x1="90" y1="699.25" x2="1150" y2="699.25" />
<text class="small" x="80" y="703.25" text-anchor="end">0.00</text>
<line class="grid" x1="90" y1="660.70" x2="1150" y2="660.70" />
<text class="small" x="80" y="664.70" text-anchor="end">0.50</text>
<line class="grid" x1="90" y1="622.15" x2="1150" y2="622.15" />
<text class="small" x="80" y="626.15" text-anchor="end">1.00</text>
<line class="grid" x1="90" y1="583.60" x2="1150" y2="583.60" />
<text class="small" x="80" y="587.60" text-anchor="end">1.50</text>
<line class="grid" x1="90" y1="545.05" x2="1150" y2="545.05" />
<text class="small" x="80" y="549.05" text-anchor="end">2.00</text>
<line class="grid" x1="90" y1="506.50" x2="1150" y2="506.50" />
<text class="small" x="80" y="510.50" text-anchor="end">2.50</text>
<line class="grid" x1="90.00" y1="506.50" x2="90.00" y2="699.25" />
<line class="grid" x1="266.67" y1="506.50" x2="266.67" y2="699.25" />
<line class="grid" x1="443.33" y1="506.50" x2="443.33" y2="699.25" />
<line class="grid" x1="620.00" y1="506.50" x2="620.00" y2="699.25" />
<line class="grid" x1="796.67" y1="506.50" x2="796.67" y2="699.25" />
<line class="grid" x1="973.33" y1="506.50" x2="973.33" y2="699.25" />
<line class="grid" x1="1150.00" y1="506.50" x2="1150.00" y2="699.25" />
<line class="axis" x1="90" y1="506.50" x2="90" y2="699.25" />
<line class="axis" x1="90" y1="699.25" x2="1150" y2="699.25" />
<path class="series" d="M 178.33 691.74 L 179.81 694.64 L 181.28 693.15 L 182.75 691.61 L 184.22 691.35 L 185.69 695.80 L 187.17 693.87 L 188.64 694.05 L 190.11 692.43 L 191.58 691.56 L 193.06 690.30 L 194.53 696.30 L 196.00 693.97 L 197.47 690.60 L 198.94 694.39 L 200.42 683.83 L 201.89 692.69 L 203.36 694.57 L 204.83 692.67 L 206.31 693.13 L 207.78 694.49 L 209.25 693.89 L 210.72 697.74 L 212.19 693.30 L 213.67 690.98 L 215.14 693.55 L 216.61 695.31 L 218.08 696.31 L 219.56 694.05 L 221.03 695.06 L 222.50 689.76 L 223.97 693.35 L 225.44 685.69 L 226.92 688.76 L 228.39 691.47 L 229.86 690.83 L 231.33 672.28 L 232.81 676.28 L 234.28 675.27 L 235.75 682.73 L 237.22 675.05 L 238.69 697.86 L 240.17 685.34 L 241.64 686.13 L 243.11 686.13 L 244.58 692.87 L 246.06 685.95 L 247.53 664.43 L 249.00 679.81 L 250.47 658.53 L 251.94 675.20 L 253.42 669.43 L 254.89 655.04 L 256.36 677.40 L 257.83 683.42 L 259.31 659.95 L 260.78 684.30 L 262.25 661.17 L 263.72 665.09 L 265.19 665.34 L 266.67 653.74 L 268.14 656.61 L 269.61 646.57 L 271.08 640.15 L 272.56 667.06 L 274.03 626.21 L 275.50 650.84 L 276.97 668.09 L 278.44 666.34 L 279.92 683.16 L 281.39 675.94 L 282.86 670.06 L 284.33 690.14 L 285.81 685.54 L 287.28 684.83 L 288.75 679.50 L 290.22 672.60 L 291.69 681.39 L 293.17 684.68 L 294.64 692.28 L 296.11 689.05 L 297.58 687.17 L 299.06 685.19 L 300.53 669.19 L 302.00 682.87 L 303.47 669.09 L 304.94 642.37 L 306.42 658.49 L 307.89 676.81 L 309.36 679.10 L 310.83 676.50 L 312.31 640.62 L 313.78 644.84 L 315.25 655.28 L 316.72 661.95 L 318.19 672.12 L 319.67 666.86 L 321.14 660.45 L 322.61 645.98 L 324.08 613.00 L 325.56 674.94 L 327.03 669.29 L 328.50 637.50 L 329.97 660.69 L 331.44 663.75 L 332.92 676.69 L 334.39 686.16 L 335.86 618.26 L 337.33 623.48 L 338.81 692.59 L 340.28 649.54 L 341.75 659.45 L 343.22 659.18 L 344.69 676.61 L 346.17 631.94 L 347.64 652.29 L 349.11 671.74 L 350.58 678.35 L 352.06 650.81 L 353.53 668.58 L 355.00 669.03 L 356.47 671.96 L 357.94 682.23 L 359.42 667.17 L 360.89 662.49 L 362.36 676.35 L 363.83 689.76 L 365.31 676.84 L 366.78 672.78 L 368.25 656.96 L 369.72 688.99 L 371.19 675.58 L 372.67 681.15 L 374.14 686.96 L 375.61 661.58 L 377.08 640.56 L 378.56 655.97 L 380.03 675.33 L 381.50 678.63 L 382.97 685.59 L 384.44 674.07 L 385.92 682.98 L 387.39 688.91 L 388.86 684.42 L 390.33 678.65 L 391.81 674.20 L 393.28 678.09 L 394.75 686.71 L 396.22 670.59 L 397.69 662.29 L 399.17 679.05 L 400.64 668.56 L 402.11 645.42 L 403.58 645.42 L 405.06 644.38 L 406.53 616.27 L 408.00 642.58 L 409.47 672.52 L 410.94 677.38 L 412.42 667.09 L 413.89 673.25 L 415.36 677.54 L 416.83 693.06 L 418.31 680.52 L 419.78 691.18 L 421.25 676.43 L 422.72 671.67 L 424.19 652.75 L 425.67 686.92 L 427.14 675.74 L 428.61 670.57 L 430.08 678.70 L 431.56 683.86 L 433.03 666.89 L 434.50 679.31 L 435.97 685.56 L 437.44 681.30 L 438.92 679.87 L 440.39 679.84 L 441.86 692.07 L 443.33 682.54 L 444.81 675.56 L 446.28 677.44 L 447.75 689.22 L 449.22 685.53 L 450.69 696.40 L 452.17 697.45 L 453.64 695.70 L 455.11 698.16 L 456.58 697.32 L 458.06 696.32 L 459.53 694.23 L 461.00 697.53 L 462.47 697.98 L 463.94 698.74 L 465.42 698.31 L 466.89 697.04 L 468.36 696.92 L 469.83 696.51 L 471.31 698.05 L 472.78 697.97 L 474.25 698.85 L 475.72 698.83 L 477.19 698.54 L 478.67 698.48 L 480.14 692.94 L 481.61 690.62 L 483.08 698.20 L 484.56 698.27 L 486.03 698.19 L 487.50 698.74 L 488.97 697.46 L 490.44 694.51 L 491.92 691.80 L 493.39 668.40 L 494.86 648.90 L 496.33 665.51 L 497.81 649.25 L 499.28 629.88 L 500.75 667.12 L 502.22 664.54 L 503.69 696.97 L 505.17 674.65 L 506.64 689.65 L 508.11 656.93 L 509.58 684.65 L 511.06 611.08 L 512.53 690.04 L 514.00 691.41 L 515.47 695.17 L 516.94 696.10 L 518.42 694.50 L 519.89 696.12 L 521.36 698.09 L 522.83 696.61 L 524.31 696.53 L 525.78 698.92 L 527.25 698.17 L 528.72 697.80 L 530.19 688.64 L 531.67 694.44 L 533.14 662.64 L 534.61 662.16 L 536.08 672.15 L 537.56 667.41 L 539.03 681.72 L 540.50 664.49 L 541.97 681.10 L 543.44 692.97 L 544.92 692.69 L 546.39 679.96 L 547.86 672.26 L 549.33 676.31 L 550.81 686.62 L 552.28 667.74 L 553.75 661.68 L 555.22 683.92 L 556.69 650.57 L 558.17 661.93 L 559.64 657.84 L 561.11 628.41 L 562.58 640.33 L 564.06 643.26 L 565.53 648.21 L 567.00 649.53 L 568.47 629.42 L 569.94 629.42 L 571.42 676.77 L 572.89 658.52 L 574.36 631.70 L 575.83 647.69 L 577.31 601.53 L 578.78 636.66 L 580.25 597.54 L 581.72 648.00 L 583.19 654.59 L 584.67 686.87 L 586.14 653.46 L 587.61 674.98 L 589.08 665.53 L 590.56 693.23 L 592.03 645.89 L 593.50 619.33 L 594.97 648.02 L 596.44 671.74 L 597.92 687.40 L 599.39 680.52 L 600.86 687.52 L 602.33 664.68 L 603.81 661.20 L 605.28 651.39 L 606.75 670.91 L 608.22 639.76 L 609.69 691.49 L 611.17 684.53 L 612.64 666.93 L 614.11 679.34 L 615.58 675.71 L 617.06 678.83 L 618.53 691.73 L 620.00 680.66 L 621.47 678.62 L 622.94 677.85 L 624.42 667.54 L 625.89 656.21 L 627.36 646.36 L 628.83 693.29 L 630.31 673.67 L 631.78 661.27 L 633.25 691.28 L 634.72 686.16 L 636.19 682.74 L 637.67 688.83 L 639.14 691.96 L 640.61 684.87 L 642.08 693.29 L 643.56 688.17 L 645.03 688.82 L 646.50 689.39 L 647.97 692.33 L 649.44 681.42 L 650.92 679.04 L 652.39 683.94 L 653.86 690.54 L 655.33 693.96 L 656.81 688.32 L 658.28 681.88 L 659.75 684.96 L 661.22 685.06 L 662.69 694.36 L 664.17 687.48 L 665.64 687.97 L 667.11 692.58 L 668.58 695.84 L 670.06 694.43 L 671.53 692.95 L 673.00 693.24 L 674.47 687.63 L 675.94 690.72 L 677.42 689.21 L 678.89 685.01 L 680.36 696.81 L 681.83 693.74 L 683.31 675.28 L 684.78 686.35 L 686.25 683.95 L 687.72 678.96 L 689.19 691.51 L 690.67 685.05 L 692.14 693.23 L 693.61 686.89 L 695.08 691.10 L 696.56 691.10 L 698.03 692.78 L 699.50 683.32 L 700.97 683.28 L 702.44 688.25 L 703.92 689.80 L 705.39 683.56 L 706.86 683.15 L 708.33 691.58 L 709.81 692.49 L 711.28 686.09 L 712.75 674.34 L 714.22 677.88 L 715.69 673.37 L 717.17 641.03 L 718.64 634.59 L 720.11 653.07 L 721.58 656.12 L 723.06 646.15 L 724.53 650.37 L 726.00 674.44 L 727.47 660.51 L 728.94 634.93 L 730.42 634.93 L 731.89 581.89 L 733.36 568.90 L 734.83 565.89 L 736.31 616.63 L 737.78 616.77 L 739.25 668.70 L 740.72 599.46 L 742.19 613.04 L 743.67 602.42 L 745.14 602.56 L 746.61 610.99 L 748.08 670.83 L 749.56 690.80 L 751.03 650.47 L 752.50 672.81 L 753.97 671.79 L 755.44 676.49 L 756.92 693.30 L 758.39 678.06 L 759.86 682.46 L 761.33 693.29 L 762.81 690.03 L 764.28 689.17 L 765.75 684.41 L 767.22 680.67 L 768.69 681.99 L 770.17 682.98 L 771.64 674.97 L 773.11 680.18 L 774.58 687.75 L 776.06 684.02 L 777.53 672.78 L 779.00 684.62 L 780.47 694.05 L 781.94 681.63 L 783.42 689.91 L 784.89 682.63 L 786.36 693.93 L 787.83 694.27 L 789.31 692.33 L 790.78 689.60 L 792.25 692.47 L 793.72 688.82 L 795.19 682.10 L 796.67 678.16" stroke="#FB8C00" />
<text x="90" y="711.25" font-size="14" font-weight="700">Giroscópio (magnitude) (u.a.)</text>
<rect class="event" x="443.33" y="717.25" width="88.33" height="192.75" />
<line class="eventline" x1="443.33" y1="717.25" x2="443.33" y2="910.00" />
<line class="eventline" x1="531.67" y1="717.25" x2="531.67" y2="910.00" />
<line class="grid" x1="90" y1="910.00" x2="1150" y2="910.00" />
<text class="small" x="80" y="914.00" text-anchor="end">0.00</text>
<line class="grid" x1="90" y1="871.45" x2="1150" y2="871.45" />
<text class="small" x="80" y="875.45" text-anchor="end">0.10</text>
<line class="grid" x1="90" y1="832.90" x2="1150" y2="832.90" />
<text class="small" x="80" y="836.90" text-anchor="end">0.20</text>
<line class="grid" x1="90" y1="794.35" x2="1150" y2="794.35" />
<text class="small" x="80" y="798.35" text-anchor="end">0.30</text>
<line class="grid" x1="90" y1="755.80" x2="1150" y2="755.80" />
<text class="small" x="80" y="759.80" text-anchor="end">0.40</text>
<line class="grid" x1="90" y1="717.25" x2="1150" y2="717.25" />
<text class="small" x="80" y="721.25" text-anchor="end">0.50</text>
<line class="grid" x1="90.00" y1="717.25" x2="90.00" y2="910.00" />
<line class="grid" x1="266.67" y1="717.25" x2="266.67" y2="910.00" />
<line class="grid" x1="443.33" y1="717.25" x2="443.33" y2="910.00" />
<line class="grid" x1="620.00" y1="717.25" x2="620.00" y2="910.00" />
<line class="grid" x1="796.67" y1="717.25" x2="796.67" y2="910.00" />
<line class="grid" x1="973.33" y1="717.25" x2="973.33" y2="910.00" />
<line class="grid" x1="1150.00" y1="717.25" x2="1150.00" y2="910.00" />
<line class="axis" x1="90" y1="717.25" x2="90" y2="910.00" />
<line class="axis" x1="90" y1="910.00" x2="1150" y2="910.00" />
<path class="series" d="M 178.33 905.86 L 179.81 906.85 L 181.28 905.29 L 182.75 905.72 L 184.22 906.95 L 185.69 904.52 L 187.17 906.67 L 188.64 904.41 L 190.11 906.08 L 191.58 908.88 L 193.06 906.83 L 194.53 907.05 L 196.00 906.66 L 197.47 906.37 L 198.94 907.34 L 200.42 906.36 L 201.89 905.24 L 203.36 906.60 L 204.83 904.86 L 206.31 906.58 L 207.78 905.60 L 209.25 904.71 L 210.72 904.36 L 212.19 905.05 L 213.67 904.88 L 215.14 905.44 L 216.61 904.71 L 218.08 905.88 L 219.56 906.06 L 221.03 905.90 L 222.50 905.73 L 223.97 904.00 L 225.44 906.47 L 226.92 906.45 L 228.39 907.18 L 229.86 900.57 L 231.33 903.08 L 232.81 895.97 L 234.28 891.43 L 235.75 894.85 L 237.22 888.83 L 238.69 898.38 L 240.17 900.80 L 241.64 902.26 L 243.11 902.26 L 244.58 901.34 L 246.06 905.77 L 247.53 898.98 L 249.00 898.01 L 250.47 902.08 L 251.94 904.58 L 253.42 896.07 L 254.89 904.67 L 256.36 898.07 L 257.83 906.15 L 259.31 901.22 L 260.78 899.88 L 262.25 901.07 L 263.72 895.30 L 265.19 885.65 L 266.67 879.16 L 268.14 861.11 L 269.61 856.69 L 271.08 852.69 L 272.56 853.23 L 274.03 882.26 L 275.50 894.28 L 276.97 901.29 L 278.44 906.51 L 279.92 899.29 L 281.39 904.07 L 282.86 899.67 L 284.33 901.13 L 285.81 900.02 L 287.28 902.63 L 288.75 900.90 L 290.22 904.80 L 291.69 900.83 L 293.17 894.50 L 294.64 898.00 L 296.11 897.07 L 297.58 898.39 L 299.06 900.75 L 300.53 903.76 L 302.00 882.85 L 303.47 890.37 L 304.94 887.54 L 306.42 884.43 L 307.89 894.37 L 309.36 899.59 L 310.83 892.55 L 312.31 892.53 L 313.78 862.35 L 315.25 834.32 L 316.72 823.20 L 318.19 822.65 L 319.67 821.68 L 321.14 817.88 L 322.61 809.09 L 324.08 808.35 L 325.56 818.61 L 327.03 816.80 L 328.50 839.96 L 329.97 870.10 L 331.44 867.65 L 332.92 867.43 L 334.39 862.93 L 335.86 875.89 L 337.33 877.17 L 338.81 873.82 L 340.28 884.41 L 341.75 899.84 L 343.22 895.45 L 344.69 900.53 L 346.17 893.97 L 347.64 884.73 L 349.11 877.11 L 350.58 877.20 L 352.06 882.56 L 353.53 889.93 L 355.00 889.46 L 356.47 892.43 L 357.94 899.51 L 359.42 902.58 L 360.89 906.73 L 362.36 900.72 L 363.83 898.54 L 365.31 900.89 L 366.78 891.02 L 368.25 901.74 L 369.72 901.69 L 371.19 898.09 L 372.67 888.77 L 374.14 895.27 L 375.61 903.33 L 377.08 882.81 L 378.56 854.64 L 380.03 842.95 L 381.50 848.96 L 382.97 845.44 L 384.44 849.78 L 385.92 856.39 L 387.39 848.84 L 388.86 845.14 L 390.33 849.38 L 391.81 848.02 L 393.28 845.65 L 394.75 841.30 L 396.22 841.76 L 397.69 838.84 L 399.17 841.90 L 400.64 861.82 L 402.11 846.64 L 403.58 846.64 L 405.06 833.26 L 406.53 865.81 L 408.00 896.87 L 409.47 903.88 L 410.94 905.07 L 412.42 898.35 L 413.89 876.31 L 415.36 870.96 L 416.83 861.13 L 418.31 863.24 L 419.78 865.42 L 421.25 883.91 L 422.72 904.02 L 424.19 906.89 L 425.67 900.70 L 427.14 899.64 L 428.61 895.60 L 430.08 895.24 L 431.56 898.47 L 433.03 900.16 L 434.50 903.23 L 435.97 903.04 L 437.44 906.30 L 438.92 904.33 L 440.39 905.47 L 441.86 906.33 L 443.33 906.17 L 444.81 903.63 L 446.28 908.88 L 447.75 908.31 L 449.22 909.70 L 450.69 909.16 L 452.17 909.64 L 453.64 909.46 L 455.11 909.71 L 456.58 909.64 L 458.06 909.81 L 459.53 909.75 L 461.00 909.67 L 462.47 909.89 L 463.94 909.77 L 465.42 909.52 L 466.89 909.84 L 468.36 909.79 L 469.83 909.81 L 471.31 909.66 L 472.78 909.74 L 474.25 909.75 L 475.72 909.69 L 477.19 909.44 L 478.67 909.22 L 480.14 909.50 L 481.61 909.22 L 483.08 909.38 L 484.56 909.36 L 486.03 909.52 L 487.50 909.50 L 488.97 909.36 L 490.44 909.53 L 491.92 909.12 L 493.39 903.68 L 494.86 906.71 L 496.33 898.69 L 497.81 888.90 L 499.28 898.61 L 500.75 905.90 L 502.22 909.21 L 503.69 909.35 L 505.17 908.68 L 506.64 909.31 L 508.11 908.86 L 509.58 901.00 L 511.06 903.26 L 512.53 906.18 L 514.00 908.97 L 515.47 909.63 L 516.94 909.58 L 518.42 909.39 L 519.89 909.72 L 521.36 909.71 L 522.83 909.62 L 524.31 909.56 L 525.78 909.88 L 527.25 909.72 L 528.72 909.82 L 530.19 907.72 L 531.67 907.01 L 533.14 900.09 L 534.61 897.83 L 536.08 893.17 L 537.56 895.25 L 539.03 901.66 L 540.50 905.42 L 541.97 904.63 L 543.44 901.57 L 544.92 902.24 L 546.39 904.70 L 547.86 905.50 L 549.33 901.40 L 550.81 900.20 L 552.28 901.89 L 553.75 891.85 L 555.22 891.55 L 556.69 899.17 L 558.17 897.39 L 559.64 878.59 L 561.11 876.44 L 562.58 881.46 L 564.06 875.61 L 565.53 865.22 L 567.00 851.37 L 568.47 836.38 L 569.94 836.38 L 571.42 833.98 L 572.89 842.30 L 574.36 892.18 L 575.83 878.45 L 577.31 844.27 L 578.78 812.24 L 580.25 792.13 L 581.72 827.43 L 583.19 871.55 L 584.67 877.36 L 586.14 876.55 L 587.61 882.97 L 589.08 896.44 L 590.56 897.36 L 592.03 898.54 L 593.50 874.44 L 594.97 863.89 L 596.44 863.85 L 597.92 879.25 L 599.39 885.22 L 600.86 890.03 L 602.33 886.35 L 603.81 880.39 L 605.28 896.02 L 606.75 896.25 L 608.22 879.51 L 609.69 887.73 L 611.17 885.30 L 612.64 883.38 L 614.11 893.94 L 615.58 894.73 L 617.06 894.54 L 618.53 893.16 L 620.00 898.43 L 621.47 903.31 L 622.94 902.27 L 624.42 906.58 L 625.89 894.93 L 627.36 894.91 L 628.83 903.61 L 630.31 902.46 L 631.78 898.87 L 633.25 902.37 L 634.72 907.03 L 636.19 901.60 L 637.67 899.23 L 639.14 894.75 L 640.61 899.27 L 642.08 904.24 L 643.56 905.95 L 645.03 904.27 L 646.50 896.22 L 647.97 892.52 L 649.44 900.41 L 650.92 908.84 L 652.39 904.84 L 653.86 901.34 L 655.33 907.58 L 656.81 899.58 L 658.28 905.91 L 659.75 907.19 L 661.22 906.44 L 662.69 906.75 L 664.17 907.82 L 665.64 903.88 L 667.11 903.48 L 668.58 901.97 L 670.06 908.72 L 671.53 902.87 L 673.00 908.04 L 674.47 903.96 L 675.94 904.20 L 677.42 901.68 L 678.89 899.53 L 680.36 905.75 L 681.83 905.52 L 683.31 902.38 L 684.78 896.77 L 686.25 901.39 L 687.72 900.77 L 689.19 902.05 L 690.67 902.79 L 692.14 901.49 L 693.61 899.29 L 695.08 899.32 L 696.56 901.26 L 698.03 902.42 L 699.50 905.52 L 700.97 905.54 L 702.44 906.17 L 703.92 905.20 L 705.39 901.21 L 706.86 907.22 L 708.33 905.79 L 709.81 905.77 L 711.28 907.59 L 712.75 906.57 L 714.22 902.27 L 715.69 891.89 L 717.17 877.24 L 718.64 859.69 L 720.11 852.75 L 721.58 857.81 L 723.06 828.79 L 724.53 821.32 L 726.00 827.25 L 727.47 845.26 L 728.94 869.02 L 730.42 869.02 L 731.89 899.00 L 733.36 854.47 L 734.83 816.61 L 736.31 805.90 L 737.78 796.22 L 739.25 810.18 L 740.72 885.05 L 742.19 889.41 L 743.67 867.58 L 745.14 852.02 L 746.61 846.13 L 748.08 855.72 L 749.56 876.93 L 751.03 897.50 L 752.50 907.18 L 753.97 907.16 L 755.44 905.79 L 756.92 901.81 L 758.39 904.68 L 759.86 905.36 L 761.33 906.69 L 762.81 899.90 L 764.28 903.67 L 765.75 903.46 L 767.22 905.35 L 768.69 907.04 L 770.17 899.82 L 771.64 900.75 L 773.11 904.09 L 774.58 904.23 L 776.06 909.06 L 777.53 904.06 L 779.00 907.31 L 780.47 905.91 L 781.94 903.76 L 783.42 906.67 L 784.89 905.79 L 786.36 905.29 L 787.83 907.55 L 789.31 904.89 L 790.78 899.62 L 792.25 904.25 L 793.72 905.30 L 795.19 904.76 L 796.67 905.57" stroke="#E53935" />
<text x="620.00" y="952" font-size="15" text-anchor="middle">minutos (relativo ao início do evento)</text>
<text class="small" x="90.00" y="936" text-anchor="middle">-4.00</text>
<text class="small" x="266.67" y="936" text-anchor="middle">-2.00</text>
<text class="small" x="443.33" y="936" text-anchor="middle">0.00</text>
<text class="small" x="620.00" y="936" text-anchor="middle">2.00</text>
<text class="small" x="796.67" y="936" text-anchor="middle">4.00</text>
<text class="small" x="973.33" y="936" text-anchor="middle">6.00</text>
<text class="small" x="1150.00" y="936" text-anchor="middle">8.00</text>
</svg>