<?xml version="1.0" encoding="UTF-8"?>
<svg xmlns="http://www.w3.org/2000/svg" width="1180" height="980" viewBox="0 0 1180 980">
<style>
text { font-family: -apple-system, BlinkMacSystemFont, 'Segoe UI', Roboto, Helvetica, Arial, sans-serif; fill: #111; }
.small { font-size: 12px; fill: #222; }
.title { font-size: 18px; font-weight: 700; }
.axis { stroke: #111; stroke-width: 1.4; }
.grid { stroke: #E6E6E6; stroke-width: 1; }
.event { fill: #FFEB3B; fill-opacity: 0.18; }
.eventline { stroke: #F9A825; stroke-width: 1.2; stroke-dasharray: 4 3; }
.series { fill: none; stroke-width: 1.8; }
</style>
<text class="title" x="90" y="34">ciclo 34 — basculamento — 2025-12-13T06:46:14-03:00 → 2025-12-13T06:46:50-03:00 (span 36s, dur 37s)</text>
<text class="small" x="90" y="54">GPS: -11.694379,-47.165227  hotspot: -11.694,-47.165</text>
<text class="small" x="90" y="70">Janela: -3.00 → 3.60 min (relativo ao início do evento)</text>
<text x="90" y="79.00" font-size="14" font-weight="700">Velocidade (km/h)</text>
<rect class="event" x="443.33" y="85.00" width="53.00" height="192.75" />
<line class="eventline" x1="443.33" y1="85.00" x2="443.33" y2="277.75" />
<line class="eventline" x1="496.33" y1="85.00" x2="496.33" y2="277.75" />
<line class="grid" x1="90" y1="277.75" x2="1150" y2="277.75" />
<text class="small" x="80" y="281.75" text-anchor="end">0.00</text>
<line class="grid" x1="90" y1="239.20" x2="1150" y2="239.20" />
<text class="small" x="80" y="243.20" text-anchor="end">5.00</text>
<line class="grid" x1="90" y1="200.65" x2="1150" y2="200.65" />
<text class="small" x="80" y="204.65" text-anchor="end">10.0</text>
<line class="grid" x1="90" y1="162.10" x2="1150" y2="162.10" />
<text class="small" x="80" y="166.10" text-anchor="end">15.0</text>
<line class="grid" x1="90" y1="123.55" x2="1150" y2="123.55" />
<text class="small" x="80" y="127.55" text-anchor="end">20.0</text>
<line class="grid" x1="90" y1="85.00" x2="1150" y2="85.00" />
<text class="small" x="80" y="89.00" text-anchor="end">25.0</text>
<line class="grid" x1="90.00" y1="85.00" x2="90.00" y2="277.75" />
<line class="grid" x1="266.67" y1="85.00" x2="266.67" y2="277.75" />
<line class="grid" x1="443.33" y1="85.00" x2="443.33" y2="277.75" />
<line class="grid" x1="620.00" y1="85.00" x2="620.00" y2="277.75" />
<line class="grid" x1="796.67" y1="85.00" x2="796.67" y2="277.75" />
<line class="grid" x1="973.33" y1="85.00" x2="973.33" y2="277.75" />
<line class="grid" x1="1150.00" y1="85.00" x2="1150.00" y2="277.75" />
<line class="axis" x1="90" y1="85.00" x2="90" y2="277.75" />
<line class="axis" x1="90" y1="277.75" x2="1150" y2="277.75" />
<path class="series" d="M 178.33 223.07 L 179.81 223.90 L 181.28 226.40 L 182.75 221.68 L 184.22 218.35 L 185.69 216.41 L 187.17 219.18 L 188.64 216.69 L 190.11 218.91 L 191.58 218.63 L 193.06 216.96 L 194.53 219.18 L 196.00 216.13 L 197.47 215.02 L 198.94 216.13 L 200.42 216.96 L 201.89 217.24 L 203.36 218.91 L 204.83 217.52 L 206.31 218.07 L 207.78 219.18 L 209.25 220.02 L 210.72 220.02 L 212.19 218.63 L 213.67 219.18 L 215.14 222.24 L 216.61 223.07 L 218.08 226.12 L 219.56 225.01 L 221.03 226.96 L 222.50 226.96 L 223.97 222.52 L 225.44 223.07 L 226.92 222.24 L 228.39 220.30 L 229.86 219.74 L 231.33 220.85 L 232.81 220.02 L 234.28 215.58 L 235.75 216.41 L 237.22 213.08 L 238.69 216.96 L 240.17 213.91 L 241.64 214.74 L 243.11 216.13 L 244.58 215.58 L 246.06 215.58 L 247.53 219.18 L 249.00 220.30 L 250.47 222.24 L 251.94 221.41 L 253.42 223.90 L 254.89 221.13 L 256.36 218.63 L 257.83 216.69 L 259.31 219.18 L 260.78 212.80 L 262.25 215.85 L 263.72 214.74 L 265.19 208.92 L 266.67 208.64 L 268.14 212.25 L 269.61 208.36 L 271.08 207.53 L 272.56 200.59 L 274.03 190.87 L 275.50 177.83 L 276.97 167.00 L 278.44 164.23 L 279.92 156.46 L 281.39 149.52 L 282.86 147.30 L 284.33 138.14 L 285.81 150.35 L 287.28 141.75 L 288.75 138.69 L 290.22 140.91 L 291.69 141.47 L 293.17 138.41 L 294.64 137.30 L 296.11 144.24 L 297.58 144.24 L 299.06 138.69 L 300.53 147.02 L 302.00 140.91 L 303.47 137.86 L 304.94 148.68 L 306.42 160.62 L 307.89 173.11 L 309.36 175.89 L 310.83 180.05 L 312.31 191.98 L 313.78 194.20 L 315.25 191.98 L 316.72 191.98 L 318.19 192.26 L 319.67 193.65 L 321.14 193.09 L 322.61 191.43 L 324.08 190.60 L 325.56 189.76 L 327.03 188.10 L 328.50 187.27 L 329.97 185.88 L 331.44 179.22 L 332.92 173.39 L 334.39 162.01 L 335.86 152.29 L 337.33 158.40 L 338.81 160.34 L 340.28 149.52 L 341.75 159.51 L 343.22 150.35 L 344.69 147.85 L 346.17 154.79 L 347.64 157.57 L 349.11 156.18 L 350.58 164.78 L 352.06 164.78 L 353.53 170.06 L 355.00 166.45 L 356.47 167.56 L 357.94 186.99 L 359.42 173.11 L 360.89 173.39 L 362.36 176.44 L 363.83 176.44 L 365.31 182.55 L 366.78 192.82 L 368.25 191.43 L 369.72 194.76 L 371.19 210.03 L 372.67 212.80 L 374.14 209.19 L 375.61 216.69 L 377.08 219.74 L 378.56 235.84 L 380.03 230.56 L 381.50 239.72 L 382.97 250.27 L 384.44 248.33 L 385.92 259.71 L 387.39 271.37 L 388.86 277.75 L 390.33 277.75 L 391.81 260.82 L 393.28 255.82 L 394.75 256.93 L 396.22 249.72 L 397.69 252.21 L 399.17 249.44 L 400.64 251.10 L 402.11 249.44 L 403.58 243.06 L 405.06 251.38 L 406.53 247.50 L 408.00 246.39 L 409.47 249.99 L 410.94 248.88 L 412.42 248.05 L 413.89 247.50 L 415.36 247.50 L 416.83 250.83 L 418.31 253.05 L 419.78 252.77 L 421.25 251.66 L 422.72 254.16 L 424.19 251.66 L 425.67 252.77 L 427.14 253.88 L 428.61 254.16 L 430.08 251.94 L 431.56 253.32 L 433.03 255.55 L 434.50 263.32 L 435.97 258.32 L 437.44 261.93 L 438.92 270.81 L 440.39 277.75 L 441.86 272.20 L 443.33 277.75 L 444.81 277.75 L 446.28 277.75 L 447.75 277.75 L 449.22 277.75 L 450.69 277.75 L 452.17 277.75 L 453.64 277.75 L 455.11 277.75 L 456.58 277.75 L 458.06 277.75 L 459.53 277.75 L 461.00 277.75 L 462.47 277.75 L 463.94 277.75 L 465.42 277.75 L 466.89 277.75 L 468.36 277.75 L 469.83 277.75 L 471.31 277.75 L 472.78 277.75 L 474.25 277.75 L 475.72 277.75 L 477.19 277.75 L 478.67 277.75 L 480.14 277.75 L 481.61 277.75 L 483.08 277.75 L 484.56 277.75 L 486.03 277.75 L 487.50 277.75 L 488.97 277.75 L 490.44 277.75 L 491.92 277.75 L 493.39 277.75 L 494.86 277.75 L 496.33 277.75 L 497.81 273.03 L 499.28 253.32 L 500.75 236.39 L 502.22 230.84 L 503.69 253.60 L 505.17 277.75 L 506.64 277.75 L 508.11 277.75 L 509.58 259.15 L 511.06 245.83 L 512.53 242.50 L 514.00 255.27 L 515.47 261.65 L 516.94 265.54 L 518.42 271.64 L 519.89 277.75 L 521.36 277.75 L 522.83 277.75 L 524.31 277.75 L 525.78 277.75 L 527.25 277.75 L 528.72 277.75 L 530.19 277.75 L 531.67 277.75 L 533.14 277.75 L 534.61 277.75 L 536.08 277.75 L 537.56 277.75 L 539.03 277.75 L 540.50 277.75 L 541.97 277.75 L 543.44 277.75 L 544.92 277.75 L 546.39 277.75 L 547.86 277.75 L 549.33 277.75 L 550.81 277.75 L 552.28 277.75 L 553.75 277.75 L 555.22 277.75 L 556.69 277.75 L 558.17 277.75 L 559.64 277.75 L 561.11 277.75 L 562.58 277.75 L 564.06 277.75 L 565.53 277.75 L 567.00 277.75 L 568.47 277.75 L 569.94 277.75 L 571.42 277.75 L 572.89 277.75 L 574.36 277.75 L 575.83 277.75 L 577.31 277.75 L 578.78 277.75 L 580.25 277.75 L 581.72 277.75 L 583.19 277.75 L 584.67 277.75 L 586.14 277.75 L 587.61 277.75 L 589.08 277.75 L 590.56 277.75 L 592.03 277.75 L 593.50 277.75 L 594.97 277.75 L 596.44 277.75 L 597.92 277.75 L 599.39 277.75 L 600.86 277.75 L 602.33 277.75 L 603.81 277.75 L 605.28 277.75 L 606.75 277.75 L 608.22 277.75 L 609.69 277.75 L 611.17 277.75 L 612.64 277.75 L 614.11 277.75 L 615.58 277.75 L 617.06 277.75 L 618.53 277.75 L 620.00 277.75 L 621.47 277.75 L 622.94 277.75 L 624.42 277.75 L 625.89 277.75 L 627.36 277.75 L 628.83 277.75 L 630.31 277.75 L 631.78 277.75 L 633.25 277.75 L 634.72 277.75 L 636.19 277.75 L 637.67 277.75 L 639.14 277.75 L 640.61 277.75 L 642.08 277.75 L 643.56 277.75 L 645.03 277.75 L 646.50 277.75 L 647.97 277.75 L 649.44 277.75 L 650.92 277.75 L 652.39 277.75 L 653.86 277.75 L 655.33 277.75 L 656.81 277.75 L 658.28 277.75 L 659.75 277.75 L 661.22 277.75 L 662.69 277.75 L 664.17 277.75 L 665.64 277.75 L 667.11 277.75 L 668.58 277.75 L 670.06 277.75 L 671.53 277.75 L 673.00 277.75 L 674.47 277.75 L 675.94 277.75 L 677.42 277.75 L 678.89 277.75 L 680.36 277.75 L 681.83 277.75 L 683.31 277.75 L 684.78 277.75 L 686.25 277.75 L 687.72 277.75 L 689.19 277.75 L 690.67 277.75 L 692.14 277.75 L 693.61 277.75 L 695.08 277.75 L 696.56 277.75 L 698.03 277.75 L 699.50 277.75 L 700.97 277.75 L 702.44 277.75 L 703.92 277.75 L 705.39 277.75 L 706.86 277.75 L 708.33 277.75 L 709.81 277.75 L 711.28 277.75 L 712.75 277.75 L 714.22 277.75 L 715.69 277.75 L 717.17 277.75 L 718.64 277.75 L 720.11 277.75 L 721.58 277.75 L 723.06 277.75 L 724.53 277.75 L 726.00 277.75 L 727.47 277.75 L 728.94 277.75 L 730.42 277.75 L 731.89 277.75 L 733.36 277.75 L 734.83 277.75 L 736.31 277.75 L 737.78 277.75 L 739.25 277.75 L 740.72 277.75 L 742.19 277.75 L 743.67 277.75 L 745.14 277.75 L 746.61 277.75 L 748.08 277.75 L 749.56 277.75 L 751.03 277.75 L 752.50 277.75 L 753.97 277.75 L 755.44 277.75 L 756.92 277.75 L 758.39 277.75 L 759.86 277.75 L 761.33 277.75" stroke="#1976D2" />
<text x="90" y="289.75" font-size="14" font-weight="700">Inclinação (graus)</text>
<rect class="event" x="443.33" y="295.75" width="53.00" height="192.75" />
<line class="eventline" x1="443.33" y1="295.75" x2="443.33" y2="488.50" />
<line class="eventline" x1="496.33" y1="295.75" x2="496.33" y2="488.50" />
<line class="grid" x1="90" y1="488.50" x2="1150" y2="488.50" />
<text class="small" x="80" y="492.50" text-anchor="end">-20.0</text>
<line class="grid" x1="90" y1="449.95" x2="1150" y2="449.95" />
<text class="small" x="80" y="453.95" text-anchor="end">-10.0</text>
<line class="grid" x1="90" y1="411.40" x2="1150" y2="411.40" />
<text class="small" x="80" y="415.40" text-anchor="end">0.00</text>
<line class="grid" x1="90" y1="372.85" x2="1150" y2="372.85" />
<text class="small" x="80" y="376.85" text-anchor="end">10.0</text>
<line class="grid" x1="90" y1="334.30" x2="1150" y2="334.30" />
<text class="small" x="80" y="338.30" text-anchor="end">20.0</text>
<line class="grid" x1="90" y1="295.75" x2="1150" y2="295.75" />
<text class="small" x="80" y="299.75" text-anchor="end">30.0</text>
<line class="grid" x1="90.00" y1="295.75" x2="90.00" y2="488.50" />
<line class="grid" x1="266.67" y1="295.75" x2="266.67" y2="488.50" />
<line class="grid" x1="443.33" y1="295.75" x2="443.33" y2="488.50" />
<line class="grid" x1="620.00" y1="295.75" x2="620.00" y2="488.50" />
<line class="grid" x1="796.67" y1="295.75" x2="796.67" y2="488.50" />
<line class="grid" x1="973.33" y1="295.75" x2="973.33" y2="488.50" />
<line class="grid" x1="1150.00" y1="295.75" x2="1150.00" y2="488.50" />
<line class="axis" x1="90" y1="295.75" x2="90" y2="488.50" />
<line class="axis" x1="90" y1="488.50" x2="1150" y2="488.50" />
<path class="series" d="M 178.33 393.88 L 179.81 391.49 L 181.28 393.05 L 182.75 393.20 L 184.22 391.93 L 185.69 391.74 L 187.17 391.89 L 188.64 391.71 L 190.11 390.09 L 191.58 390.40 L 193.06 389.46 L 194.53 388.23 L 196.00 385.79 L 197.47 383.49 L 198.94 384.98 L 200.42 385.01 L 201.89 387.08 L 203.36 387.43 L 204.83 387.99 L 206.31 387.73 L 207.78 388.47 L 209.25 390.28 L 210.72 392.01 L 212.19 394.15 L 213.67 392.71 L 215.14 396.08 L 216.61 396.54 L 218.08 394.35 L 219.56 395.61 L 221.03 394.06 L 222.50 395.64 L 223.97 393.86 L 225.44 393.58 L 226.92 393.21 L 228.39 391.04 L 229.86 391.32 L 231.33 390.41 L 232.81 391.40 L 234.28 389.30 L 235.75 390.29 L 237.22 386.91 L 238.69 388.34 L 240.17 387.61 L 241.64 388.31 L 243.11 388.93 L 244.58 390.10 L 246.06 390.90 L 247.53 391.74 L 249.00 394.74 L 250.47 393.69 L 251.94 394.05 L 253.42 394.39 L 254.89 396.08 L 256.36 395.93 L 257.83 392.55 L 259.31 394.81 L 260.78 394.81 L 262.25 389.03 L 263.72 385.53 L 265.19 387.13 L 266.67 390.42 L 268.14 387.42 L 269.61 386.74 L 271.08 381.36 L 272.56 382.18 L 274.03 383.37 L 275.50 377.83 L 276.97 372.50 L 278.44 375.75 L 279.92 374.40 L 281.39 362.61 L 282.86 366.37 L 284.33 372.93 L 285.81 365.93 L 287.28 370.77 L 288.75 368.78 L 290.22 372.77 L 291.69 372.43 L 293.17 372.92 L 294.64 372.98 L 296.11 372.47 L 297.58 375.21 L 299.06 365.85 L 300.53 369.45 L 302.00 372.99 L 303.47 378.06 L 304.94 372.77 L 306.42 377.90 L 307.89 379.39 L 309.36 379.36 L 310.83 379.29 L 312.31 378.62 L 313.78 384.97 L 315.25 383.51 L 316.72 382.30 L 318.19 381.60 L 319.67 384.11 L 321.14 383.75 L 322.61 381.99 L 324.08 383.76 L 325.56 380.01 L 327.03 378.10 L 328.50 374.20 L 329.97 366.44 L 331.44 369.59 L 332.92 372.03 L 334.39 360.82 L 335.86 345.44 L 337.33 356.88 L 338.81 361.17 L 340.28 365.79 L 341.75 367.56 L 343.22 368.82 L 344.69 363.80 L 346.17 364.47 L 347.64 361.32 L 349.11 361.00 L 350.58 353.83 L 352.06 360.75 L 353.53 359.84 L 355.00 357.35 L 356.47 357.59 L 357.94 359.33 L 359.42 357.39 L 360.89 353.94 L 362.36 354.32 L 363.83 357.94 L 365.31 349.74 L 366.78 360.82 L 368.25 353.46 L 369.72 347.90 L 371.19 359.35 L 372.67 362.25 L 374.14 362.22 L 375.61 365.23 L 377.08 365.14 L 378.56 368.72 L 380.03 366.63 L 381.50 364.13 L 382.97 377.97 L 384.44 366.21 L 385.92 366.55 L 387.39 363.32 L 388.86 376.56 L 390.33 361.60 L 391.81 370.74 L 393.28 376.82 L 394.75 370.42 L 396.22 377.16 L 397.69 374.34 L 399.17 376.62 L 400.64 374.40 L 402.11 372.82 L 403.58 372.25 L 405.06 372.31 L 406.53 371.68 L 408.00 372.69 L 409.47 370.63 L 410.94 370.65 L 412.42 371.33 L 413.89 369.03 L 415.36 376.74 L 416.83 375.44 L 418.31 376.00 L 419.78 374.90 L 421.25 380.79 L 422.72 376.10 L 424.19 378.06 L 425.67 377.05 L 427.14 377.06 L 428.61 376.12 L 430.08 381.64 L 431.56 379.31 L 433.03 384.87 L 434.50 372.85 L 435.97 380.82 L 437.44 384.28 L 438.92 378.70 L 440.39 373.37 L 441.86 384.04 L 443.33 372.61 L 444.81 375.65 L 446.28 375.86 L 447.75 375.45 L 449.22 375.54 L 450.69 375.70 L 452.17 375.54 L 453.64 375.85 L 455.11 375.80 L 456.58 375.43 L 458.06 375.21 L 459.53 375.35 L 461.00 375.46 L 462.47 375.66 L 463.94 375.40 L 465.42 376.61 L 466.89 374.11 L 468.36 376.13 L 469.83 375.68 L 471.31 375.73 L 472.78 375.91 L 474.25 375.92 L 475.72 376.05 L 477.19 376.34 L 478.67 376.71 L 480.14 375.22 L 481.61 379.12 L 483.08 377.39 L 484.56 377.76 L 486.03 377.90 L 487.50 378.30 L 488.97 378.24 L 490.44 378.26 L 491.92 378.25 L 493.39 378.50 L 494.86 377.54 L 496.33 386.51 L 497.81 398.37 L 499.28 398.61 L 500.75 377.17 L 502.22 364.50 L 503.69 365.92 L 505.17 383.13 L 506.64 380.24 L 508.11 403.61 L 509.58 391.04 L 511.06 373.11 L 512.53 371.51 L 514.00 381.06 L 515.47 376.22 L 516.94 375.17 L 518.42 376.22 L 519.89 380.11 L 521.36 380.27 L 522.83 379.21 L 524.31 379.09 L 525.78 379.42 L 527.25 379.02 L 528.72 379.03 L 530.19 378.91 L 531.67 378.75 L 533.14 378.51 L 534.61 378.51 L 536.08 378.45 L 537.56 378.50 L 539.03 378.88 L 540.50 377.17 L 541.97 378.39 L 543.44 378.31 L 544.92 378.15 L 546.39 378.21 L 547.86 378.26 L 549.33 378.28 L 550.81 378.15 L 552.28 378.20 L 553.75 378.28 L 555.22 378.16 L 556.69 378.22 L 558.17 378.22 L 559.64 378.22 L 561.11 378.19 L 562.58 378.19 L 564.06 378.20 L 565.53 378.20 L 567.00 378.21 L 568.47 378.23 L 569.94 378.21 L 571.42 378.12 L 572.89 378.26 L 574.36 378.19 L 575.83 378.16 L 577.31 378.22 L 578.78 378.21 L 580.25 378.20 L 581.72 378.20 L 583.19 378.21 L 584.67 378.16 L 586.14 378.22 L 587.61 378.25 L 589.08 378.15 L 590.56 378.23 L 592.03 378.16 L 593.50 378.13 L 594.97 378.17 L 596.44 378.28 L 597.92 378.17 L 599.39 378.14 L 600.86 378.21 L 602.33 378.13 L 603.81 378.19 L 605.28 378.24 L 606.75 378.17 L 608.22 378.15 L 609.69 378.20 L 611.17 378.13 L 612.64 378.15 L 614.11 378.15 L 615.58 378.09 L 617.06 378.17 L 618.53 378.21 L 620.00 378.22 L 621.47 378.20 L 622.94 378.16 L 624.42 378.18 L 625.89 378.18 L 627.36 378.18 L 628.83 378.16 L 630.31 378.16 L 631.78 378.10 L 633.25 378.19 L 634.72 378.23 L 636.19 378.19 L 637.67 378.09 L 639.14 378.14 L 640.61 378.16 L 642.08 378.14 L 643.56 378.16 L 645.03 378.13 L 646.50 378.12 L 647.97 378.18 L 649.44 378.11 L 650.92 378.19 L 652.39 378.17 L 653.86 378.18 L 655.33 378.12 L 656.81 378.14 L 658.28 378.14 L 659.75 378.15 L 661.22 378.12 L 662.69 378.18 L 664.17 378.14 L 665.64 378.13 L 667.11 378.12 L 668.58 378.17 L 670.06 378.16 L 671.53 378.13 L 673.00 378.12 L 674.47 378.14 L 675.94 378.14 L 677.42 378.11 L 678.89 378.16 L 680.36 378.08 L 681.83 378.14 L 683.31 378.07 L 684.78 378.11 L 686.25 378.08 L 687.72 378.09 L 689.19 378.08 L 690.67 378.09 L 692.14 378.11 L 693.61 378.14 L 695.08 378.12 L 696.56 378.11 L 698.03 378.13 L 699.50 378.09 L 700.97 378.10 L 702.44 378.09 L 703.92 378.09 L 705.39 378.06 L 706.86 378.14 L 708.33 378.04 L 709.81 378.07 L 711.28 378.08 L 712.75 378.12 L 714.22 378.09 L 715.69 378.09 L 717.17 378.10 L 718.64 378.13 L 720.11 378.04 L 721.58 378.07 L 723.06 378.07 L 724.53 378.06 L 726.00 378.07 L 727.47 378.05 L 728.94 378.03 L 730.42 378.08 L 731.89 378.05 L 733.36 378.01 L 734.83 378.08 L 736.31 378.07 L 737.78 378.10 L 739.25 378.05 L 740.72 378.02 L 742.19 378.02 L 743.67 378.08 L 745.14 378.01 L 746.61 378.03 L 748.08 378.00 L 749.56 378.04 L 751.03 378.07 L 752.50 378.04 L 753.97 378.02 L 755.44 377.98 L 756.92 377.80 L 758.39 377.89 L 759.86 378.35 L 761.33 378.81" stroke="#2E7D32" />
<path class="series" d="M 178.33 413.50 L 179.81 412.18 L 181.28 408.40 L 182.75 412.01 L 184.22 411.81 L 185.69 409.26 L 187.17 408.87 L 188.64 408.05 L 190.11 406.96 L 191.58 407.45 L 193.06 407.23 L 194.53 405.58 L 196.00 405.95 L 197.47 405.12 L 198.94 401.50 L 200.42 404.88 L 201.89 399.40 L 203.36 398.28 L 204.83 400.25 L 206.31 397.21 L 207.78 397.32 L 209.25 403.02 L 210.72 404.97 L 212.19 404.61 L 213.67 403.21 L 215.14 407.07 L 216.61 404.28 L 218.08 402.33 L 219.56 402.81 L 221.03 402.34 L 222.50 401.19 L 223.97 398.68 L 225.44 400.70 L 226.92 405.64 L 228.39 404.40 L 229.86 406.70 L 231.33 403.02 L 232.81 403.60 L 234.28 398.40 L 235.75 401.74 L 237.22 398.84 L 238.69 404.38 L 240.17 402.20 L 241.64 403.85 L 243.11 403.18 L 244.58 404.78 L 246.06 402.27 L 247.53 403.01 L 249.00 406.82 L 250.47 406.27 L 251.94 408.12 L 253.42 408.80 L 254.89 413.44 L 256.36 416.02 L 257.83 415.78 L 259.31 412.29 L 260.78 412.29 L 262.25 414.35 L 263.72 414.26 L 265.19 408.79 L 266.67 417.26 L 268.14 415.71 L 269.61 414.66 L 271.08 415.69 L 272.56 413.92 L 274.03 410.15 L 275.50 410.57 L 276.97 405.82 L 278.44 408.41 L 279.92 411.08 L 281.39 416.01 L 282.86 411.52 L 284.33 410.53 L 285.81 412.41 L 287.28 410.04 L 288.75 408.02 L 290.22 415.98 L 291.69 409.62 L 293.17 417.10 L 294.64 412.28 L 296.11 416.93 L 297.58 426.99 L 299.06 435.29 L 300.53 435.19 L 302.00 421.45 L 303.47 428.48 L 304.94 422.42 L 306.42 420.97 L 307.89 416.73 L 309.36 412.82 L 310.83 418.03 L 312.31 401.47 L 313.78 409.35 L 315.25 410.74 L 316.72 407.05 L 318.19 405.30 L 319.67 406.59 L 321.14 392.26 L 322.61 402.95 L 324.08 389.87 L 325.56 389.46 L 327.03 390.13 L 328.50 395.02 L 329.97 394.08 L 331.44 422.35 L 332.92 425.30 L 334.39 433.38 L 335.86 433.59 L 337.33 428.73 L 338.81 444.51 L 340.28 425.33 L 341.75 425.40 L 343.22 425.34 L 344.69 425.10 L 346.17 412.00 L 347.64 404.19 L 349.11 396.23 L 350.58 397.63 L 352.06 401.31 L 353.53 398.47 L 355.00 396.79 L 356.47 390.03 L 357.94 383.86 L 359.42 385.60 L 360.89 389.11 L 362.36 393.31 L 363.83 396.07 L 365.31 392.66 L 366.78 392.97 L 368.25 400.94 L 369.72 389.92 L 371.19 394.47 L 372.67 390.56 L 374.14 393.14 L 375.61 399.39 L 377.08 397.97 L 378.56 402.62 L 380.03 399.18 L 381.50 414.57 L 382.97 400.46 L 384.44 408.86 L 385.92 409.99 L 387.39 406.01 L 388.86 408.35 L 390.33 405.77 L 391.81 401.86 L 393.28 409.60 L 394.75 407.53 L 396.22 406.57 L 397.69 410.59 L 399.17 406.02 L 400.64 415.43 L 402.11 403.88 L 403.58 411.37 L 405.06 412.89 L 406.53 412.14 L 408.00 412.93 L 409.47 413.60 L 410.94 412.12 L 412.42 415.96 L 413.89 413.21 L 415.36 413.72 L 416.83 415.13 L 418.31 407.64 L 419.78 414.04 L 421.25 405.39 L 422.72 410.08 L 424.19 414.55 L 425.67 407.15 L 427.14 406.56 L 428.61 397.79 L 430.08 405.32 L 431.56 395.67 L 433.03 399.57 L 434.50 405.21 L 435.97 396.69 L 437.44 408.39 L 438.92 408.22 L 440.39 409.02 L 441.86 412.86 L 443.33 410.73 L 444.81 412.96 L 446.28 412.17 L 447.75 410.49 L 449.22 411.39 L 450.69 412.22 L 452.17 411.70 L 453.64 411.87 L 455.11 412.16 L 456.58 411.76 L 458.06 411.99 L 459.53 411.66 L 461.00 412.22 L 462.47 412.00 L 463.94 411.94 L 465.42 412.71 L 466.89 411.22 L 468.36 412.47 L 469.83 412.35 L 471.31 412.06 L 472.78 412.42 L 474.25 412.44 L 475.72 412.56 L 477.19 412.43 L 478.67 412.82 L 480.14 412.55 L 481.61 412.66 L 483.08 413.41 L 484.56 412.84 L 486.03 413.06 L 487.50 413.31 L 488.97 413.43 L 490.44 413.29 L 491.92 413.67 L 493.39 413.66 L 494.86 413.97 L 496.33 413.35 L 497.81 413.18 L 499.28 403.06 L 500.75 399.58 L 502.22 409.18 L 503.69 404.93 L 505.17 403.32 L 506.64 404.29 L 508.11 398.73 L 509.58 406.94 L 511.06 415.65 L 512.53 416.21 L 514.00 411.25 L 515.47 414.79 L 516.94 413.82 L 518.42 413.07 L 519.89 412.96 L 521.36 413.25 L 522.83 413.71 L 524.31 413.62 L 525.78 413.44 L 527.25 413.52 L 528.72 413.83 L 530.19 413.74 L 531.67 413.45 L 533.14 413.86 L 534.61 413.49 L 536.08 413.72 L 537.56 413.53 L 539.03 413.61 L 540.50 413.37 L 541.97 413.75 L 543.44 413.57 L 544.92 413.51 L 546.39 413.73 L 547.86 413.53 L 549.33 413.58 L 550.81 413.58 L 552.28 413.62 L 553.75 413.53 L 555.22 413.61 L 556.69 413.56 L 558.17 413.66 L 559.64 413.63 L 561.11 413.55 L 562.58 413.63 L 564.06 413.66 L 565.53 413.66 L 567.00 413.59 L 568.47 413.64 L 569.94 413.65 L 571.42 413.56 L 572.89 413.68 L 574.36 413.62 L 575.83 413.58 L 577.31 413.69 L 578.78 413.67 L 580.25 413.56 L 581.72 413.63 L 583.19 413.68 L 584.67 413.64 L 586.14 413.59 L 587.61 413.62 L 589.08 413.67 L 590.56 413.63 L 592.03 413.58 L 593.50 413.59 L 594.97 413.72 L 596.44 413.60 L 597.92 413.60 L 599.39 413.60 L 600.86 413.58 L 602.33 413.63 L 603.81 413.66 L 605.28 413.57 L 606.75 413.58 L 608.22 413.65 L 609.69 413.58 L 611.17 413.55 L 612.64 413.62 L 614.11 413.50 L 615.58 413.62 L 617.06 413.60 L 618.53 413.53 L 620.00 413.66 L 621.47 413.61 L 622.94 413.57 L 624.42 413.62 L 625.89 413.66 L 627.36 413.61 L 628.83 413.55 L 630.31 413.59 L 631.78 413.61 L 633.25 413.61 L 634.72 413.56 L 636.19 413.62 L 637.67 413.63 L 639.14 413.56 L 640.61 413.63 L 642.08 413.66 L 643.56 413.59 L 645.03 413.59 L 646.50 413.63 L 647.97 413.61 L 649.44 413.63 L 650.92 413.64 L 652.39 413.56 L 653.86 413.62 L 655.33 413.59 L 656.81 413.69 L 658.28 413.59 L 659.75 413.59 L 661.22 413.61 L 662.69 413.61 L 664.17 413.66 L 665.64 413.59 L 667.11 413.63 L 668.58 413.61 L 670.06 413.68 L 671.53 413.55 L 673.00 413.61 L 674.47 413.65 L 675.94 413.57 L 677.42 413.58 L 678.89 413.61 L 680.36 413.61 L 681.83 413.57 L 683.31 413.57 L 684.78 413.57 L 686.25 413.71 L 687.72 413.63 L 689.19 413.65 L 690.67 413.65 L 692.14 413.72 L 693.61 413.72 L 695.08 413.64 L 696.56 413.63 L 698.03 413.80 L 699.50 413.67 L 700.97 413.64 L 702.44 413.70 L 703.92 413.70 L 705.39 413.67 L 706.86 413.67 L 708.33 413.65 L 709.81 413.71 L 711.28 413.64 L 712.75 413.68 L 714.22 413.69 L 715.69 413.61 L 717.17 413.69 L 718.64 413.60 L 720.11 413.57 L 721.58 413.64 L 723.06 413.68 L 724.53 413.60 L 726.00 413.61 L 727.47 413.69 L 728.94 413.67 L 730.42 413.63 L 731.89 413.60 L 733.36 413.64 L 734.83 413.64 L 736.31 413.59 L 737.78 413.62 L 739.25 413.61 L 740.72 413.65 L 742.19 413.62 L 743.67 413.57 L 745.14 413.67 L 746.61 413.70 L 748.08 413.50 L 749.56 413.65 L 751.03 413.69 L 752.50 413.58 L 753.97 413.60 L 755.44 413.57 L 756.92 413.63 L 758.39 413.62 L 759.86 413.65 L 761.33 413.53" stroke="#6A1B9A" />
<line x1="900.00" y1="307.75" x2="918.00" y2="307.75" stroke="#2E7D32" stroke-width="3" />
<text class="small" x="924.00" y="311.75">pitch</text>
<line x1="900.00" y1="323.75" x2="918.00" y2="323.75" stroke="#6A1B9A" stroke-width="3" />
<text class="small" x="924.00" y="327.75">roll</text>
<text x="90" y="500.50" font-size="14" font-weight="700">Aceleração (magnitude) (u.a.)</text>
<rect class="event" x="443.33" y="506.50" width="53.00" height="192.75" />
<line class="eventline" x1="443.33" y1="506.50" x2="443.33" y2="699.25" />
<line class="eventline" x1="496.33" y1="506.50" x2="496.33" y2="699.25" />
<line class="grid" x1="90" y1="699.25" x2="1150" y2="699.25" />
<text class="small" x="80" y="703.25" text-anchor="end">0.00</text>
<line class="grid" x1="90" y1="660.70" x2="1150" y2="660.70" />
<text class="small" x="80" y="664.70" text-anchor="end">0.50</text>
<line class="grid" x1="90" y1="622.15" x2="1150" y2="622.15" />
<text class="small" x="80" y="626.15" text-anchor="end">1.00</text>
<line class="grid" x1="90" y1="583.60" x2="1150" y2="583.60" />
<text class="small" x="80" y="587.60" text-anchor="end">1.50</text>
<line class="grid" x1="90" y1="545.05" x2="1150" y2="545.05" />
<text class="small" x="80" y="549.05" text-anchor="end">2.00</text>
<line class="grid" x1="90" y1="506.50" x2="1150" y2="506.50" />
<text class="small" x="80" y="510.50" text-anchor="end">2.50</text>
<line class="grid" x1="90.00" y1="506.50" x2="90.00" y2="699.25" />
<line class="grid" x1="266.67" y1="506.50" x2="266.67" y2="699.25" />
<line class="grid" x1="443.33" y1="506.50" x2="443.33" y2="699.25" />
<line class="grid" x1="620.00" y1="506.50" x2="620.00" y2="699.25" />
<line class="grid" x1="796.67" y1="506.50" x2="796.67" y2="699.25" />
<line class="grid" x1="973.33" y1="506.50" x2="973.33" y2="699.25" />
<line class="grid" x1="1150.00" y1="506.50" x2="1150.00" y2="699.25" />
<line class="axis" x1="90" y1="506.50" x2="90" y2="699.25" />
<line class="axis" x1="90" y1="699.25" x2="1150" y2="699.25" />
<path class="series" d="M 178.33 687.71 L 179.81 690.28 L 181.28 684.24 L 182.75 682.26 L 184.22 688.48 L 185.69 693.49 L 187.17 692.90 L 188.64 694.47 L 190.11 691.31 L 191.58 687.84 L 193.06 694.73 L 194.53 692.97 L 196.00 692.44 L 197.47 691.24 L 198.94 692.55 L 200.42 688.12 L 201.89 689.58 L 203.36 690.43 L 204.83 689.76 L 206.31 690.94 L 207.78 680.25 L 209.25 690.51 L 210.72 687.97 L 212.19 697.42 L 213.67 696.76 L 215.14 690.14 L 216.61 691.05 L 218.08 690.50 L 219.56 686.15 L 221.03 687.91 L 222.50 690.84 L 223.97 690.05 L 225.44 692.31 L 226.92 693.98 L 228.39 689.86 L 229.86 694.74 L 231.33 686.39 L 232.81 686.25 L 234.28 692.61 L 235.75 689.56 L 237.22 687.42 L 238.69 688.58 L 240.17 689.34 L 241.64 684.69 L 243.11 686.27 L 244.58 692.04 L 246.06 690.39 L 247.53 695.66 L 249.00 691.68 L 250.47 692.76 L 251.94 692.39 L 253.42 690.37 L 254.89 694.30 L 256.36 691.00 L 257.83 690.52 L 259.31 661.74 L 260.78 680.89 L 262.25 681.27 L 263.72 678.60 L 265.19 678.94 L 266.67 690.54 L 268.14 678.41 L 269.61 688.20 L 271.08 688.91 L 272.56 659.16 L 274.03 679.47 L 275.50 667.18 L 276.97 687.78 L 278.44 674.43 L 279.92 658.22 L 281.39 637.06 L 282.86 657.02 L 284.33 629.98 L 285.81 683.06 L 287.28 689.05 L 288.75 680.14 L 290.22 675.03 L 291.69 658.70 L 293.17 668.04 L 294.64 690.95 L 296.11 666.37 L 297.58 650.18 L 299.06 640.35 L 300.53 677.82 L 302.00 599.46 L 303.47 606.85 L 304.94 640.64 L 306.42 687.38 L 307.89 686.96 L 309.36 675.76 L 310.83 648.58 L 312.31 673.60 L 313.78 681.04 L 315.25 674.12 L 316.72 692.10 L 318.19 696.84 L 319.67 685.84 L 321.14 685.99 L 322.61 670.99 L 324.08 678.04 L 325.56 678.04 L 327.03 689.75 L 328.50 677.35 L 329.97 639.73 L 331.44 640.80 L 332.92 635.15 L 334.39 618.77 L 335.86 638.30 L 337.33 657.06 L 338.81 616.23 L 340.28 646.56 L 341.75 665.87 L 343.22 667.47 L 344.69 648.77 L 346.17 658.81 L 347.64 647.43 L 349.11 638.42 L 350.58 651.71 L 352.06 667.47 L 353.53 682.48 L 355.00 668.07 L 356.47 659.16 L 357.94 648.77 L 359.42 660.19 L 360.89 665.52 L 362.36 682.51 L 363.83 692.07 L 365.31 662.43 L 366.78 681.83 L 368.25 665.84 L 369.72 673.00 L 371.19 652.19 L 372.67 662.65 L 374.14 678.51 L 375.61 667.01 L 377.08 661.86 L 378.56 669.57 L 380.03 668.41 L 381.50 647.19 L 382.97 669.52 L 384.44 686.77 L 385.92 686.63 L 387.39 681.08 L 388.86 669.24 L 390.33 681.23 L 391.81 675.47 L 393.28 685.70 L 394.75 689.62 L 396.22 687.66 L 397.69 693.25 L 399.17 693.00 L 400.64 688.43 L 402.11 687.18 L 403.58 689.00 L 405.06 696.33 L 406.53 691.27 L 408.00 679.22 L 409.47 687.13 L 410.94 692.09 L 412.42 692.83 L 413.89 688.61 L 415.36 680.27 L 416.83 690.53 L 418.31 680.97 L 419.78 691.12 L 421.25 670.19 L 422.72 694.82 L 424.19 687.33 L 425.67 691.76 L 427.14 691.76 L 428.61 685.88 L 430.08 670.95 L 431.56 672.75 L 433.03 684.35 L 434.50 676.64 L 435.97 683.60 L 437.44 684.14 L 438.92 686.12 L 440.39 688.30 L 441.86 663.59 L 443.33 685.38 L 444.81 694.55 L 446.28 694.18 L 447.75 697.16 L 449.22 697.30 L 450.69 698.02 L 452.17 698.12 L 453.64 698.58 L 455.11 697.05 L 456.58 697.81 L 458.06 698.15 L 459.53 697.69 L 461.00 697.51 L 462.47 697.48 L 463.94 684.29 L 465.42 685.84 L 466.89 695.68 L 468.36 695.35 L 469.83 697.57 L 471.31 698.14 L 472.78 698.31 L 474.25 698.40 L 475.72 698.77 L 477.19 697.98 L 478.67 698.48 L 480.14 695.29 L 481.61 697.68 L 483.08 695.72 L 484.56 698.26 L 486.03 698.27 L 487.50 697.90 L 488.97 698.25 L 490.44 698.05 L 491.92 696.64 L 493.39 694.72 L 494.86 689.48 L 496.33 652.39 L 497.81 651.24 L 499.28 651.24 L 500.75 664.93 L 502.22 646.93 L 503.69 628.86 L 505.17 682.69 L 506.64 684.40 L 508.11 691.24 L 509.58 642.45 L 511.06 672.27 L 512.53 647.09 L 514.00 653.26 L 515.47 690.70 L 516.94 690.56 L 518.42 688.01 L 519.89 677.25 L 521.36 690.06 L 522.83 690.96 L 524.31 697.24 L 525.78 697.02 L 527.25 692.32 L 528.72 696.94 L 530.19 698.27 L 531.67 697.98 L 533.14 694.87 L 534.61 697.72 L 536.08 698.17 L 537.56 698.25 L 539.03 697.16 L 540.50 696.00 L 541.97 696.04 L 543.44 697.76 L 544.92 698.71 L 546.39 698.66 L 547.86 698.12 L 549.33 698.35 L 550.81 698.34 L 552.28 698.45 L 553.75 698.35 L 555.22 698.40 L 556.69 698.37 L 558.17 698.46 L 559.64 698.56 L 561.11 698.24 L 562.58 698.59 L 564.06 698.06 L 565.53 698.46 L 567.00 698.46 L 568.47 698.43 L 569.94 698.12 L 571.42 698.56 L 572.89 698.82 L 574.36 698.91 L 575.83 699.04 L 577.31 699.03 L 578.78 698.87 L 580.25 699.04 L 581.72 699.06 L 583.19 699.06 L 584.67 699.08 L 586.14 699.18 L 587.61 699.11 L 589.08 699.07 L 590.56 698.83 L 592.03 698.98 L 593.50 699.02 L 594.97 699.01 L 596.44 699.04 L 597.92 699.00 L 599.39 699.00 L 600.86 699.16 L 602.33 699.09 L 603.81 699.11 L 605.28 699.06 L 606.75 699.09 L 608.22 698.90 L 609.69 698.83 L 611.17 698.91 L 612.64 699.10 L 614.11 699.08 L 615.58 698.92 L 617.06 699.17 L 618.53 699.02 L 620.00 698.77 L 621.47 699.04 L 622.94 699.14 L 624.42 698.96 L 625.89 699.10 L 627.36 699.23 L 628.83 698.95 L 630.31 698.97 L 631.78 698.93 L 633.25 699.05 L 634.72 699.17 L 636.19 698.55 L 637.67 698.05 L 639.14 698.73 L 640.61 698.79 L 642.08 699.04 L 643.56 699.15 L 645.03 698.99 L 646.50 699.14 L 647.97 699.04 L 649.44 699.02 L 650.92 699.03 L 652.39 699.16 L 653.86 699.04 L 655.33 699.16 L 656.81 699.11 L 658.28 699.16 L 659.75 698.86 L 661.22 699.01 L 662.69 699.08 L 664.17 699.04 L 665.64 699.06 L 667.11 699.01 L 668.58 699.09 L 670.06 699.10 L 671.53 699.14 L 673.00 699.11 L 674.47 699.03 L 675.94 699.20 L 677.42 699.22 L 678.89 699.05 L 680.36 699.15 L 681.83 699.09 L 683.31 699.09 L 684.78 699.00 L 686.25 699.00 L 687.72 699.11 L 689.19 699.07 L 690.67 699.02 L 692.14 699.10 L 693.61 698.92 L 695.08 699.11 L 696.56 699.19 L 698.03 699.11 L 699.50 699.03 L 700.97 699.04 L 702.44 699.00 L 703.92 699.02 L 705.39 699.00 L 706.86 698.93 L 708.33 699.07 L 709.81 698.94 L 711.28 699.13 L 712.75 699.13 L 714.22 699.01 L 715.69 698.96 L 717.17 699.08 L 718.64 698.98 L 720.11 699.15 L 721.58 699.10 L 723.06 698.95 L 724.53 699.03 L 726.00 699.04 L 727.47 698.97 L 728.94 699.06 L 730.42 699.09 L 731.89 699.02 L 733.36 699.03 L 734.83 699.12 L 736.31 699.06 L 737.78 699.18 L 739.25 699.10 L 740.72 699.15 L 742.19 699.12 L 743.67 699.15 L 745.14 699.13 L 746.61 698.93 L 748.08 698.92 L 749.56 699.16 L 751.03 698.84 L 752.50 699.08 L 753.97 698.92 L 755.44 699.04 L 756.92 699.06 L 758.39 699.03 L 759.86 698.94 L 761.33 698.87" stroke="#FB8C00" />
<text x="90" y="711.25" font-size="14" font-weight="700">Giroscópio (magnitude) (u.a.)</text>
<rect class="event" x="443.33" y="717.25" width="53.00" height="192.75" />
<line class="eventline" x1="443.33" y1="717.25" x2="443.33" y2="910.00" />
<line class="eventline" x1="496.33" y1="717.25" x2="496.33" y2="910.00" />
<line class="grid" x1="90" y1="910.00" x2="1150" y2="910.00" />
<text class="small" x="80" y="914.00" text-anchor="end">0.00</text>
<line class="grid" x1="90" y1="871.45" x2="1150" y2="871.45" />
<text class="small" x="80" y="875.45" text-anchor="end">0.10</text>
<line class="grid" x1="90" y1="832.90" x2="1150" y2="832.90" />
<text class="small" x="80" y="836.90" text-anchor="end">0.20</text>
<line class="grid" x1="90" y1="794.35" x2="1150" y2="794.35" />
<text class="small" x="80" y="798.35" text-anchor="end">0.30</text>
<line class="grid" x1="90" y1="755.80" x2="1150" y2="755.80" />
<text class="small" x="80" y="759.80" text-anchor="end">0.40</text>
<line class="grid" x1="90" y1="717.25" x2="1150" y2="717.25" />
<text class="small" x="80" y="721.25" text-anchor="end">0.50</text>
<line class="grid" x1="90.00" y1="717.25" x2="90.00" y2="910.00" />
<line class="grid" x1="266.67" y1="717.25" x2="266.67" y2="910.00" />
<line class="grid" x1="443.33" y1="717.25" x2="443.33" y2="910.00" />
<line class="grid" x1="620.00" y1="717.25" x2="620.00" y2="910.00" />
<line class="grid" x1="796.67" y1="717.25" x2="796.67" y2="910.00" />
<line class="grid" x1="973.33" y1="717.25" x2="973.33" y2="910.00" />
<line class="grid" x1="1150.00" y1="717.25" x2="1150.00" y2="910.00" />
<line class="axis" x1="90" y1="717.25" x2="90" y2="910.00" />
<line class="axis" x1="90" y1="910.00" x2="1150" y2="910.00" />
<path class="series" d="M 178.33 902.30 L 179.81 903.12 L 181.28 904.86 L 182.75 905.35 L 184.22 908.78 L 185.69 906.00 L 187.17 906.45 L 188.64 906.37 L 190.11 908.08 L 191.58 907.46 L 193.06 907.41 L 194.53 906.03 L 196.00 906.62 L 197.47 906.09 L 198.94 906.42 L 200.42 907.64 L 201.89 904.66 L 203.36 906.60 L 204.83 904.71 L 206.31 907.47 L 207.78 906.22 L 209.25 905.29 L 210.72 903.46 L 212.19 903.82 L 213.67 904.42 L 215.14 906.02 L 216.61 905.76 L 218.08 905.20 L 219.56 907.54 L 221.03 907.09 L 222.50 907.48 L 223.97 906.28 L 225.44 907.63 L 226.92 903.47 L 228.39 904.15 L 229.86 904.18 L 231.33 904.15 L 232.81 905.65 L 234.28 904.67 L 235.75 904.44 L 237.22 903.67 L 238.69 901.44 L 240.17 904.69 L 241.64 907.87 L 243.11 906.18 L 244.58 904.06 L 246.06 904.61 L 247.53 905.78 L 249.00 904.18 L 250.47 904.28 L 251.94 904.33 L 253.42 905.58 L 254.89 902.61 L 256.36 903.44 L 257.83 903.48 L 259.31 904.34 L 260.78 901.55 L 262.25 898.54 L 263.72 901.99 L 265.19 901.59 L 266.67 903.03 L 268.14 896.19 L 269.61 899.40 L 271.08 900.69 L 272.56 903.58 L 274.03 892.24 L 275.50 896.91 L 276.97 902.42 L 278.44 899.21 L 279.92 894.22 L 281.39 896.81 L 282.86 899.57 L 284.33 904.14 L 285.81 899.65 L 287.28 900.78 L 288.75 895.02 L 290.22 901.64 L 291.69 902.23 L 293.17 899.62 L 294.64 900.41 L 296.11 885.12 L 297.58 862.67 L 299.06 841.48 L 300.53 848.43 L 302.00 864.15 L 303.47 881.87 L 304.94 886.29 L 306.42 876.45 L 307.89 878.28 L 309.36 861.03 L 310.83 873.68 L 312.31 892.34 L 313.78 886.21 L 315.25 882.72 L 316.72 881.15 L 318.19 882.45 L 319.67 879.77 L 321.14 878.13 L 322.61 877.23 L 324.08 880.03 L 325.56 880.03 L 327.03 886.14 L 328.50 883.98 L 329.97 884.67 L 331.44 875.48 L 332.92 845.49 L 334.39 818.16 L 335.86 807.59 L 337.33 819.04 L 338.81 820.07 L 340.28 825.41 L 341.75 849.25 L 343.22 859.89 L 344.69 865.89 L 346.17 886.14 L 347.64 897.49 L 349.11 891.05 L 350.58 886.36 L 352.06 889.47 L 353.53 893.56 L 355.00 894.20 L 356.47 888.46 L 357.94 883.68 L 359.42 867.52 L 360.89 861.27 L 362.36 861.93 L 363.83 861.25 L 365.31 857.33 L 366.78 849.90 L 368.25 860.53 L 369.72 855.04 L 371.19 852.18 L 372.67 850.74 L 374.14 840.03 L 375.61 842.50 L 377.08 843.01 L 378.56 849.66 L 380.03 857.31 L 381.50 873.70 L 382.97 889.51 L 384.44 886.59 L 385.92 901.40 L 387.39 907.29 L 388.86 906.27 L 390.33 908.53 L 391.81 900.92 L 393.28 894.18 L 394.75 895.00 L 396.22 893.37 L 397.69 897.31 L 399.17 889.93 L 400.64 893.78 L 402.11 888.73 L 403.58 881.62 L 405.06 880.73 L 406.53 880.06 L 408.00 889.47 L 409.47 895.31 L 410.94 902.27 L 412.42 907.55 L 413.89 902.94 L 415.36 905.54 L 416.83 905.61 L 418.31 902.38 L 419.78 900.14 L 421.25 898.88 L 422.72 902.49 L 424.19 902.98 L 425.67 905.78 L 427.14 900.43 L 428.61 904.36 L 430.08 905.14 L 431.56 901.91 L 433.03 900.89 L 434.50 902.73 L 435.97 901.70 L 437.44 902.05 L 438.92 906.20 L 440.39 907.42 L 441.86 907.45 L 443.33 908.57 L 444.81 907.73 L 446.28 908.56 L 447.75 908.72 L 449.22 909.20 L 450.69 909.04 L 452.17 908.99 L 453.64 908.91 L 455.11 908.88 L 456.58 908.98 L 458.06 909.02 L 459.53 909.22 L 461.00 909.05 L 462.47 908.90 L 463.94 909.28 L 465.42 908.83 L 466.89 909.19 L 468.36 909.14 L 469.83 909.06 L 471.31 909.22 L 472.78 909.13 L 474.25 909.15 L 475.72 909.24 L 477.19 909.20 L 478.67 909.17 L 480.14 909.25 L 481.61 909.12 L 483.08 909.36 L 484.56 908.93 L 486.03 909.42 L 487.50 909.04 L 488.97 909.07 L 490.44 909.01 L 491.92 908.81 L 493.39 908.79 L 494.86 909.05 L 496.33 905.42 L 497.81 898.49 L 499.28 898.49 L 500.75 904.01 L 502.22 901.95 L 503.69 906.01 L 505.17 907.81 L 506.64 908.82 L 508.11 907.41 L 509.58 898.50 L 511.06 904.36 L 512.53 904.83 L 514.00 907.37 L 515.47 904.69 L 516.94 907.08 L 518.42 908.24 L 519.89 908.56 L 521.36 907.56 L 522.83 908.92 L 524.31 909.00 L 525.78 909.11 L 527.25 908.77 L 528.72 909.00 L 530.19 908.80 L 531.67 908.95 L 533.14 908.84 L 534.61 909.04 L 536.08 909.03 L 537.56 908.99 L 539.03 908.67 L 540.50 909.13 L 541.97 909.23 L 543.44 909.12 L 544.92 909.05 L 546.39 909.13 L 547.86 909.16 L 549.33 909.08 L 550.81 909.06 L 552.28 909.00 L 553.75 909.04 L 555.22 909.15 L 556.69 909.13 L 558.17 909.14 L 559.64 909.06 L 561.11 909.02 L 562.58 909.06 L 564.06 909.04 L 565.53 909.00 L 567.00 909.09 L 568.47 908.93 L 569.94 909.12 L 571.42 909.35 L 572.89 909.92 L 574.36 909.91 L 575.83 909.93 L 577.31 909.95 L 578.78 909.94 L 580.25 909.92 L 581.72 909.96 L 583.19 909.94 L 584.67 909.87 L 586.14 909.92 L 587.61 909.96 L 589.08 909.87 L 590.56 909.92 L 592.03 909.97 L 593.50 909.83 L 594.97 909.93 L 596.44 909.87 L 597.92 909.90 L 599.39 909.94 L 600.86 909.96 L 602.33 909.92 L 603.81 909.88 L 605.28 909.96 L 606.75 909.96 L 608.22 909.95 L 609.69 909.94 L 611.17 909.98 L 612.64 909.94 L 614.11 909.96 L 615.58 909.96 L 617.06 909.93 L 618.53 909.92 L 620.00 909.86 L 621.47 909.91 L 622.94 909.92 L 624.42 909.89 L 625.89 909.89 L 627.36 909.97 L 628.83 909.89 L 630.31 909.95 L 631.78 909.89 L 633.25 909.89 L 634.72 909.96 L 636.19 909.97 L 637.67 909.91 L 639.14 909.92 L 640.61 909.97 L 642.08 909.94 L 643.56 909.91 L 645.03 909.94 L 646.50 909.91 L 647.97 909.87 L 649.44 909.86 L 650.92 909.95 L 652.39 909.90 L 653.86 909.91 L 655.33 909.94 L 656.81 909.92 L 658.28 909.88 L 659.75 909.98 L 661.22 909.92 L 662.69 909.93 L 664.17 909.92 L 665.64 909.94 L 667.11 909.96 L 668.58 909.91 L 670.06 909.89 L 671.53 909.92 L 673.00 909.95 L 674.47 909.97 L 675.94 909.90 L 677.42 909.97 L 678.89 909.90 L 680.36 909.94 L 681.83 909.93 L 683.31 909.93 L 684.78 909.94 L 686.25 909.90 L 687.72 909.93 L 689.19 909.93 L 690.67 909.90 L 692.14 909.91 L 693.61 909.88 L 695.08 909.88 L 696.56 909.93 L 698.03 909.86 L 699.50 909.85 L 700.97 909.88 L 702.44 909.88 L 703.92 909.92 L 705.39 909.85 L 706.86 909.93 L 708.33 909.83 L 709.81 909.86 L 711.28 909.86 L 712.75 909.87 L 714.22 909.87 L 715.69 909.86 L 717.17 909.84 L 718.64 909.92 L 720.11 909.93 L 721.58 909.96 L 723.06 909.92 L 724.53 909.95 L 726.00 909.91 L 727.47 909.95 L 728.94 909.89 L 730.42 909.97 L 731.89 909.92 L 733.36 909.93 L 734.83 909.96 L 736.31 909.98 L 737.78 909.93 L 739.25 909.93 L 740.72 909.93 L 742.19 909.95 L 743.67 909.91 L 745.14 909.96 L 746.61 909.93 L 748.08 909.94 L 749.56 909.93 L 751.03 909.97 L 752.50 909.93 L 753.97 909.93 L 755.44 909.95 L 756.92 909.26 L 758.39 909.20 L 759.86 908.24 L 761.33 909.20" stroke="#E53935" />
<text x="620.00" y="952" font-size="15" text-anchor="middle">minutos (relativo ao início do evento)</text>
<text class="small" x="90.00" y="936" text-anchor="middle">-4.00</text>
<text class="small" x="266.67" y="936" text-anchor="middle">-2.00</text>
<text class="small" x="443.33" y="936" text-anchor="middle">0.00</text>
<text class="small" x="620.00" y="936" text-anchor="middle">2.00</text>
<text class="small" x="796.67" y="936" text-anchor="middle">4.00</text>
<text class="small" x="973.33" y="936" text-anchor="middle">6.00</text>
<text class="small" x="1150.00" y="936" text-anchor="middle">8.00</text>
</svg>