<?xml version="1.0" encoding="UTF-8"?>
<svg xmlns="http://www.w3.org/2000/svg" width="1180" height="980" viewBox="0 0 1180 980">
<style>
text { font-family: -apple-system, BlinkMacSystemFont, 'Segoe UI', Roboto, Helvetica, Arial, sans-serif; fill: #111; }
.small { font-size: 12px; fill: #222; }
.title { font-size: 18px; font-weight: 700; }
.axis { stroke: #111; stroke-width: 1.4; }
.grid { stroke: #E6E6E6; stroke-width: 1; }
.event { fill: #FFEB3B; fill-opacity: 0.18; }
.eventline { stroke: #F9A825; stroke-width: 1.2; stroke-dasharray: 4 3; }
.series { fill: none; stroke-width: 1.8; }
</style>
<text class="title" x="90" y="34">ciclo 10 — carregamento — 2025-12-12T21:49:02-03:00 → 2025-12-12T21:52:14-03:00 (span 192s, dur 193s)</text>
<text class="small" x="90" y="54">GPS: -11.698985,-47.157285  hotspot: -11.699,-47.157</text>
<text class="small" x="90" y="70">Janela: -3.00 → 6.20 min (relativo ao início do evento)</text>
<text x="90" y="79.00" font-size="14" font-weight="700">Velocidade (km/h)</text>
<rect class="event" x="443.33" y="85.00" width="282.67" height="192.75" />
<line class="eventline" x1="443.33" y1="85.00" x2="443.33" y2="277.75" />
<line class="eventline" x1="726.00" y1="85.00" x2="726.00" y2="277.75" />
<line class="grid" x1="90" y1="277.75" x2="1150" y2="277.75" />
<text class="small" x="80" y="281.75" text-anchor="end">0.00</text>
<line class="grid" x1="90" y1="239.20" x2="1150" y2="239.20" />
<text class="small" x="80" y="243.20" text-anchor="end">10.0</text>
<line class="grid" x1="90" y1="200.65" x2="1150" y2="200.65" />
<text class="small" x="80" y="204.65" text-anchor="end">20.0</text>
<line class="grid" x1="90" y1="162.10" x2="1150" y2="162.10" />
<text class="small" x="80" y="166.10" text-anchor="end">30.0</text>
<line class="grid" x1="90" y1="123.55" x2="1150" y2="123.55" />
<text class="small" x="80" y="127.55" text-anchor="end">40.0</text>
<line class="grid" x1="90" y1="85.00" x2="1150" y2="85.00" />
<text class="small" x="80" y="89.00" text-anchor="end">50.0</text>
<line class="grid" x1="90.00" y1="85.00" x2="90.00" y2="277.75" />
<line class="grid" x1="266.67" y1="85.00" x2="266.67" y2="277.75" />
<line class="grid" x1="443.33" y1="85.00" x2="443.33" y2="277.75" />
<line class="grid" x1="620.00" y1="85.00" x2="620.00" y2="277.75" />
<line class="grid" x1="796.67" y1="85.00" x2="796.67" y2="277.75" />
<line class="grid" x1="973.33" y1="85.00" x2="973.33" y2="277.75" />
<line class="grid" x1="1150.00" y1="85.00" x2="1150.00" y2="277.75" />
<line class="axis" x1="90" y1="85.00" x2="90" y2="277.75" />
<line class="axis" x1="90" y1="277.75" x2="1150" y2="277.75" />
<path class="series" d="M 178.33 150.91 L 179.81 151.88 L 181.28 152.99 L 182.75 156.73 L 184.22 159.23 L 185.69 161.73 L 187.17 162.56 L 188.64 166.31 L 190.11 172.28 L 191.58 174.36 L 193.06 174.50 L 194.53 192.68 L 196.00 201.42 L 197.47 203.64 L 198.94 211.69 L 200.42 219.32 L 201.89 216.69 L 203.36 209.33 L 204.83 205.45 L 206.31 201.42 L 207.78 203.23 L 209.25 201.00 L 210.72 195.18 L 212.19 197.54 L 213.67 208.78 L 215.14 215.72 L 216.61 222.24 L 218.08 223.49 L 219.56 221.27 L 221.03 221.68 L 222.50 220.99 L 223.97 225.15 L 225.44 222.38 L 226.92 221.41 L 228.39 219.18 L 229.86 216.69 L 231.33 218.35 L 232.81 212.25 L 234.28 210.16 L 235.75 209.61 L 237.22 203.78 L 238.69 202.67 L 240.17 199.48 L 241.64 197.40 L 243.11 197.26 L 244.58 194.34 L 246.06 193.65 L 247.53 190.60 L 249.00 196.42 L 250.47 198.09 L 251.94 201.98 L 253.42 204.75 L 254.89 204.20 L 256.36 200.87 L 257.83 197.67 L 259.31 194.20 L 260.78 196.70 L 262.25 198.09 L 263.72 204.61 L 265.19 205.03 L 266.67 205.31 L 268.14 201.84 L 269.61 202.95 L 271.08 201.00 L 272.56 204.20 L 274.03 207.94 L 275.50 211.14 L 276.97 215.58 L 278.44 216.13 L 279.92 219.74 L 281.39 220.99 L 282.86 226.40 L 284.33 232.79 L 285.81 236.53 L 287.28 242.64 L 288.75 244.72 L 290.22 246.94 L 291.69 244.03 L 293.17 244.03 L 294.64 244.72 L 296.11 247.50 L 297.58 245.83 L 299.06 249.58 L 300.53 249.16 L 302.00 249.72 L 303.47 251.24 L 304.94 252.35 L 306.42 252.35 L 307.89 251.66 L 309.36 251.80 L 310.83 251.24 L 312.31 244.44 L 313.78 247.77 L 315.25 249.99 L 316.72 246.80 L 318.19 247.91 L 319.67 249.16 L 321.14 258.88 L 322.61 256.24 L 324.08 257.90 L 325.56 265.95 L 327.03 269.42 L 328.50 266.51 L 329.97 267.76 L 331.44 273.45 L 332.92 277.75 L 334.39 277.75 L 335.86 277.75 L 337.33 277.75 L 338.81 277.75 L 340.28 277.75 L 341.75 277.75 L 343.22 277.75 L 344.69 277.75 L 346.17 277.75 L 347.64 277.75 L 349.11 277.75 L 350.58 277.75 L 352.06 277.75 L 353.53 277.75 L 355.00 277.75 L 356.47 277.75 L 357.94 277.75 L 359.42 277.75 L 360.89 277.75 L 362.36 277.75 L 363.83 277.75 L 365.31 277.75 L 366.78 277.75 L 368.25 277.75 L 369.72 277.75 L 371.19 277.75 L 372.67 277.75 L 374.14 277.75 L 375.61 277.75 L 377.08 277.75 L 378.56 277.75 L 380.03 277.75 L 381.50 277.75 L 382.97 277.75 L 384.44 277.75 L 385.92 277.75 L 387.39 277.75 L 388.86 277.75 L 390.33 277.75 L 391.81 277.75 L 393.28 277.75 L 394.75 277.75 L 396.22 277.75 L 397.69 277.75 L 399.17 277.75 L 400.64 277.75 L 402.11 269.98 L 403.58 270.81 L 405.06 268.04 L 406.53 266.51 L 408.00 267.48 L 409.47 266.51 L 410.94 267.48 L 412.42 268.73 L 413.89 267.20 L 415.36 267.20 L 416.83 266.37 L 418.31 266.51 L 419.78 268.17 L 421.25 269.15 L 422.72 266.65 L 424.19 267.76 L 425.67 266.51 L 427.14 265.40 L 428.61 266.79 L 430.08 268.87 L 431.56 264.57 L 433.03 266.65 L 434.50 266.51 L 435.97 277.75 L 437.44 267.48 L 438.92 260.54 L 440.39 264.29 L 441.86 269.56 L 443.33 277.75 L 444.81 277.75 L 446.28 277.75 L 447.75 277.75 L 449.22 277.75 L 450.69 277.75 L 452.17 277.75 L 453.64 277.75 L 455.11 277.75 L 456.58 277.75 L 458.06 277.75 L 459.53 277.75 L 461.00 277.75 L 462.47 277.75 L 463.94 277.75 L 465.42 277.75 L 466.89 277.75 L 468.36 277.75 L 469.83 277.75 L 471.31 277.75 L 472.78 277.75 L 474.25 277.75 L 475.72 277.75 L 477.19 277.75 L 478.67 277.75 L 480.14 277.75 L 481.61 277.75 L 483.08 277.75 L 484.56 277.75 L 486.03 277.75 L 487.50 277.75 L 488.97 277.75 L 490.44 277.75 L 491.92 277.75 L 493.39 277.75 L 494.86 277.75 L 496.33 277.75 L 497.81 277.75 L 499.28 277.75 L 500.75 277.75 L 502.22 277.75 L 503.69 277.75 L 505.17 277.75 L 506.64 277.75 L 508.11 277.75 L 509.58 277.75 L 511.06 277.75 L 512.53 277.75 L 514.00 277.75 L 515.47 277.75 L 516.94 277.75 L 518.42 277.75 L 519.89 277.75 L 521.36 277.75 L 522.83 277.75 L 524.31 277.75 L 525.78 277.75 L 527.25 277.75 L 528.72 277.75 L 530.19 277.75 L 531.67 277.75 L 533.14 277.75 L 534.61 277.75 L 536.08 277.75 L 537.56 277.75 L 539.03 277.75 L 540.50 277.75 L 541.97 277.75 L 543.44 277.75 L 544.92 277.75 L 546.39 277.75 L 547.86 277.75 L 549.33 277.75 L 550.81 277.75 L 552.28 277.75 L 553.75 277.75 L 555.22 277.75 L 556.69 277.75 L 558.17 277.75 L 559.64 277.75 L 561.11 277.75 L 562.58 277.75 L 564.06 277.75 L 565.53 277.75 L 567.00 277.75 L 568.47 277.75 L 569.94 277.75 L 571.42 277.75 L 572.89 277.75 L 574.36 277.75 L 575.83 277.75 L 577.31 277.75 L 578.78 277.75 L 580.25 277.75 L 581.72 277.75 L 583.19 277.75 L 584.67 277.75 L 586.14 277.75 L 587.61 277.75 L 589.08 277.75 L 590.56 277.75 L 592.03 277.75 L 593.50 277.75 L 594.97 277.75 L 596.44 277.75 L 597.92 277.75 L 599.39 277.75 L 600.86 277.75 L 602.33 277.75 L 603.81 277.75 L 605.28 277.75 L 606.75 277.75 L 608.22 277.75 L 609.69 277.75 L 611.17 277.75 L 612.64 277.75 L 614.11 277.75 L 615.58 277.75 L 617.06 277.75 L 618.53 277.75 L 620.00 277.75 L 621.47 277.75 L 622.94 277.75 L 624.42 277.75 L 625.89 277.75 L 627.36 277.75 L 628.83 277.75 L 630.31 277.75 L 631.78 277.75 L 633.25 277.75 L 634.72 277.75 L 636.19 277.75 L 637.67 277.75 L 639.14 277.75 L 640.61 277.75 L 642.08 277.75 L 643.56 277.75 L 645.03 277.75 L 646.50 277.75 L 647.97 277.75 L 649.44 277.75 L 650.92 277.75 L 652.39 277.75 L 653.86 277.75 L 655.33 277.75 L 656.81 277.75 L 658.28 277.75 L 659.75 277.75 L 661.22 277.75 L 662.69 277.75 L 664.17 277.75 L 665.64 277.75 L 667.11 277.75 L 668.58 277.75 L 670.06 277.75 L 671.53 277.75 L 673.00 277.75 L 674.47 277.75 L 675.94 277.75 L 677.42 277.75 L 678.89 277.75 L 680.36 277.75 L 681.83 277.75 L 683.31 277.75 L 684.78 277.75 L 686.25 277.75 L 687.72 277.75 L 689.19 277.75 L 690.67 277.75 L 692.14 277.75 L 693.61 277.75 L 695.08 277.75 L 696.56 277.75 L 698.03 277.75 L 699.50 277.75 L 700.97 277.75 L 702.44 277.75 L 703.92 277.75 L 705.39 277.75 L 706.86 277.75 L 708.33 277.75 L 709.81 277.75 L 711.28 277.75 L 712.75 277.75 L 714.22 277.75 L 715.69 277.75 L 717.17 277.75 L 718.64 277.75 L 720.11 277.75 L 721.58 277.75 L 723.06 277.75 L 724.53 277.75 L 726.00 277.75 L 727.47 268.87 L 728.94 265.81 L 730.42 263.87 L 731.89 277.75 L 733.36 265.95 L 734.83 259.99 L 736.31 259.99 L 737.78 256.38 L 739.25 256.93 L 740.72 254.30 L 742.19 251.94 L 743.67 253.74 L 745.14 255.82 L 746.61 248.05 L 748.08 249.86 L 749.56 246.80 L 751.03 243.06 L 752.50 238.61 L 753.97 235.70 L 755.44 234.87 L 756.92 226.68 L 758.39 222.52 L 759.86 219.88 L 761.33 227.10 L 762.81 229.18 L 764.28 230.43 L 765.75 229.73 L 767.22 232.51 L 768.69 229.73 L 770.17 219.32 L 771.64 215.44 L 773.11 214.05 L 774.58 214.47 L 776.06 213.63 L 777.53 213.36 L 779.00 213.08 L 780.47 210.58 L 781.94 211.97 L 783.42 213.36 L 784.89 214.33 L 786.36 216.55 L 787.83 216.55 L 789.31 216.41 L 790.78 216.69 L 792.25 215.16 L 793.72 212.94 L 795.19 209.89 L 796.67 210.30 L 798.14 210.58 L 799.61 209.47 L 801.08 209.75 L 802.56 212.25 L 804.03 216.55 L 805.50 213.77 L 806.97 212.11 L 808.44 213.77 L 809.92 213.63 L 811.39 214.19 L 812.86 210.72 L 814.33 211.41 L 815.81 211.69 L 817.28 214.19 L 818.75 210.72 L 820.22 211.00 L 821.69 210.16 L 823.17 211.55 L 824.64 214.88 L 826.11 213.08 L 827.58 210.72 L 829.06 219.46 L 830.53 217.52 L 832.00 221.96 L 833.47 226.96 L 834.94 227.23 L 836.42 219.32 L 837.89 223.21 L 839.36 227.79 L 840.83 238.20 L 842.31 252.35 L 843.78 257.35 L 845.25 257.21 L 846.72 257.35 L 848.19 259.01 L 849.67 258.46 L 851.14 256.38 L 852.61 249.58 L 854.08 255.55 L 855.56 258.46 L 857.03 255.27 L 858.50 255.68 L 859.97 256.93 L 861.44 256.38 L 862.92 253.74 L 864.39 254.85 L 865.86 254.02 L 867.33 253.88 L 868.81 251.38 L 870.28 252.91 L 871.75 254.16 L 873.22 257.77 L 874.69 259.85 L 876.17 257.77 L 877.64 257.35 L 879.11 253.19 L 880.58 257.49 L 882.06 254.43 L 883.53 254.71 L 885.00 250.41 L 886.47 249.86 L 887.94 246.66 L 889.42 241.81 L 890.89 239.31 L 892.36 234.17 L 893.83 242.22 L 895.31 243.47 L 896.78 246.39 L 898.25 245.55 L 899.72 246.11 L 901.19 245.83 L 902.67 246.11 L 904.14 240.83 L 905.61 235.42 L 907.08 239.31 L 908.56 240.83 L 910.03 235.56 L 911.50 236.81 L 912.97 237.23 L 914.44 236.95 L 915.92 236.95 L 917.39 237.50 L 918.86 238.34 L 920.33 237.37 L 921.81 236.25 L 923.28 234.31 L 924.75 233.90 L 926.22 235.98 L 927.69 236.25 L 929.17 237.23 L 930.64 238.34 L 932.11 238.34 L 933.58 238.20 L 935.06 238.34 L 936.53 240.56 L 938.00 241.94 L 939.47 242.22 L 940.94 242.50 L 942.42 239.72 L 943.89 237.78 L 945.36 237.78 L 946.83 238.61 L 948.31 238.89 L 949.78 239.45 L 951.25 239.31 L 952.72 241.39 L 954.19 243.06 L 955.67 243.47 L 957.14 245.14 L 958.61 246.94 L 960.08 251.38 L 961.56 253.74 L 963.03 253.88 L 964.50 255.68 L 965.97 257.07 L 967.44 258.32 L 968.92 261.24 L 970.39 257.35 L 971.86 257.21 L 973.33 255.96 L 974.81 258.74 L 976.28 256.79 L 977.75 255.27 L 979.22 253.05 L 980.69 253.88 L 982.17 253.32 L 983.64 252.91 L 985.11 250.69 L 986.58 250.55 L 988.06 249.16 L 989.53 247.91 L 991.00 246.39" stroke="#1976D2" />
<text x="90" y="289.75" font-size="14" font-weight="700">Inclinação (graus)</text>
<rect class="event" x="443.33" y="295.75" width="282.67" height="192.75" />
<line class="eventline" x1="443.33" y1="295.75" x2="443.33" y2="488.50" />
<line class="eventline" x1="726.00" y1="295.75" x2="726.00" y2="488.50" />
<line class="grid" x1="90" y1="488.50" x2="1150" y2="488.50" />
<text class="small" x="80" y="492.50" text-anchor="end">-20.0</text>
<line class="grid" x1="90" y1="449.95" x2="1150" y2="449.95" />
<text class="small" x="80" y="453.95" text-anchor="end">-10.0</text>
<line class="grid" x1="90" y1="411.40" x2="1150" y2="411.40" />
<text class="small" x="80" y="415.40" text-anchor="end">0.00</text>
<line class="grid" x1="90" y1="372.85" x2="1150" y2="372.85" />
<text class="small" x="80" y="376.85" text-anchor="end">10.0</text>
<line class="grid" x1="90" y1="334.30" x2="1150" y2="334.30" />
<text class="small" x="80" y="338.30" text-anchor="end">20.0</text>
<line class="grid" x1="90" y1="295.75" x2="1150" y2="295.75" />
<text class="small" x="80" y="299.75" text-anchor="end">30.0</text>
<line class="grid" x1="90.00" y1="295.75" x2="90.00" y2="488.50" />
<line class="grid" x1="266.67" y1="295.75" x2="266.67" y2="488.50" />
<line class="grid" x1="443.33" y1="295.75" x2="443.33" y2="488.50" />
<line class="grid" x1="620.00" y1="295.75" x2="620.00" y2="488.50" />
<line class="grid" x1="796.67" y1="295.75" x2="796.67" y2="488.50" />
<line class="grid" x1="973.33" y1="295.75" x2="973.33" y2="488.50" />
<line class="grid" x1="1150.00" y1="295.75" x2="1150.00" y2="488.50" />
<line class="axis" x1="90" y1="295.75" x2="90" y2="488.50" />
<line class="axis" x1="90" y1="488.50" x2="1150" y2="488.50" />
<path class="series" d="M 178.33 340.17 L 179.81 343.78 L 181.28 340.97 L 182.75 345.00 L 184.22 341.88 L 185.69 344.23 L 187.17 343.04 L 188.64 343.33 L 190.11 343.83 L 191.58 340.46 L 193.06 347.87 L 194.53 339.70 L 196.00 347.02 L 197.47 351.77 L 198.94 339.02 L 200.42 337.23 L 201.89 374.98 L 203.36 367.74 L 204.83 371.62 L 206.31 361.65 L 207.78 353.08 L 209.25 350.11 L 210.72 342.97 L 212.19 323.27 L 213.67 331.90 L 215.14 350.27 L 216.61 355.88 L 218.08 362.34 L 219.56 373.81 L 221.03 358.22 L 222.50 367.85 L 223.97 376.30 L 225.44 381.73 L 226.92 370.14 L 228.39 377.22 L 229.86 376.82 L 231.33 374.70 L 232.81 372.49 L 234.28 374.44 L 235.75 369.53 L 237.22 364.02 L 238.69 370.59 L 240.17 367.12 L 241.64 373.65 L 243.11 372.24 L 244.58 376.45 L 246.06 373.08 L 247.53 370.33 L 249.00 369.74 L 250.47 357.09 L 251.94 360.87 L 253.42 356.57 L 254.89 364.96 L 256.36 365.67 L 257.83 367.84 L 259.31 366.51 L 260.78 362.16 L 262.25 360.85 L 263.72 361.14 L 265.19 362.92 L 266.67 356.97 L 268.14 367.31 L 269.61 352.19 L 271.08 365.14 L 272.56 365.99 L 274.03 358.28 L 275.50 356.84 L 276.97 357.45 L 278.44 358.63 L 279.92 370.52 L 281.39 359.99 L 282.86 360.16 L 284.33 360.98 L 285.81 358.74 L 287.28 350.56 L 288.75 363.82 L 290.22 362.77 L 291.69 363.56 L 293.17 367.37 L 294.64 361.96 L 296.11 367.17 L 297.58 366.37 L 299.06 363.97 L 300.53 370.39 L 302.00 371.23 L 303.47 374.43 L 304.94 371.94 L 306.42 377.89 L 307.89 388.35 L 309.36 375.79 L 310.83 376.39 L 312.31 362.75 L 313.78 362.29 L 315.25 364.31 L 316.72 362.73 L 318.19 357.52 L 319.67 356.37 L 321.14 348.23 L 322.61 359.68 L 324.08 355.26 L 325.56 355.11 L 327.03 343.80 L 328.50 353.67 L 329.97 354.45 L 331.44 347.42 L 332.92 360.59 L 334.39 359.36 L 335.86 359.30 L 337.33 359.24 L 338.81 359.30 L 340.28 359.23 L 341.75 359.24 L 343.22 359.25 L 344.69 359.27 L 346.17 359.27 L 347.64 359.22 L 349.11 359.24 L 350.58 359.29 L 352.06 359.27 L 353.53 359.23 L 355.00 359.23 L 356.47 359.22 L 357.94 359.23 L 359.42 359.20 L 360.89 359.20 L 362.36 359.24 L 363.83 359.18 L 365.31 359.21 L 366.78 359.24 L 368.25 359.17 L 369.72 359.09 L 371.19 359.16 L 372.67 359.17 L 374.14 359.25 L 375.61 359.27 L 377.08 359.20 L 378.56 359.35 L 380.03 359.39 L 381.50 359.33 L 382.97 359.34 L 384.44 359.33 L 385.92 358.80 L 387.39 359.75 L 388.86 359.26 L 390.33 358.11 L 391.81 360.97 L 393.28 359.56 L 394.75 359.64 L 396.22 354.88 L 397.69 362.40 L 399.17 352.63 L 400.64 354.56 L 402.11 361.11 L 403.58 355.05 L 405.06 355.28 L 406.53 359.18 L 408.00 356.01 L 409.47 358.31 L 410.94 360.60 L 412.42 356.12 L 413.89 361.49 L 415.36 358.79 L 416.83 354.47 L 418.31 356.05 L 419.78 356.87 L 421.25 349.84 L 422.72 356.68 L 424.19 352.46 L 425.67 353.70 L 427.14 356.10 L 428.61 357.43 L 430.08 355.97 L 431.56 363.62 L 433.03 354.66 L 434.50 359.64 L 435.97 358.15 L 437.44 347.84 L 438.92 356.60 L 440.39 353.82 L 441.86 358.22 L 443.33 356.00 L 444.81 358.81 L 446.28 361.72 L 447.75 364.52 L 449.22 362.01 L 450.69 366.90 L 452.17 362.68 L 453.64 366.94 L 455.11 372.70 L 456.58 365.37 L 458.06 364.84 L 459.53 361.76 L 461.00 361.91 L 462.47 361.91 L 463.94 362.37 L 465.42 362.34 L 466.89 362.27 L 468.36 362.12 L 469.83 362.21 L 471.31 362.23 L 472.78 362.19 L 474.25 362.19 L 475.72 362.20 L 477.19 362.14 L 478.67 362.17 L 480.14 362.15 L 481.61 362.12 L 483.08 362.14 L 484.56 362.11 L 486.03 362.13 L 487.50 362.10 L 488.97 362.13 L 490.44 362.10 L 491.92 362.06 L 493.39 362.09 L 494.86 362.12 L 496.33 362.11 L 497.81 362.43 L 499.28 361.52 L 500.75 361.31 L 502.22 361.56 L 503.69 362.01 L 505.17 361.82 L 506.64 361.65 L 508.11 361.69 L 509.58 361.76 L 511.06 361.76 L 512.53 361.69 L 514.00 361.76 L 515.47 361.73 L 516.94 361.68 L 518.42 361.73 L 519.89 361.73 L 521.36 361.69 L 522.83 361.72 L 524.31 361.71 L 525.78 361.70 L 527.25 361.70 L 528.72 361.71 L 530.19 361.72 L 531.67 361.61 L 533.14 361.54 L 534.61 361.06 L 536.08 361.35 L 537.56 361.42 L 539.03 361.16 L 540.50 361.26 L 541.97 361.26 L 543.44 361.23 L 544.92 361.28 L 546.39 361.19 L 547.86 361.30 L 549.33 361.21 L 550.81 361.25 L 552.28 361.21 L 553.75 361.24 L 555.22 361.24 L 556.69 361.23 L 558.17 361.22 L 559.64 361.21 L 561.11 361.22 L 562.58 361.23 L 564.06 361.23 L 565.53 361.20 L 567.00 361.21 L 568.47 360.95 L 569.94 361.43 L 571.42 361.05 L 572.89 361.24 L 574.36 361.29 L 575.83 361.09 L 577.31 361.17 L 578.78 361.17 L 580.25 361.21 L 581.72 361.17 L 583.19 361.21 L 584.67 361.19 L 586.14 361.22 L 587.61 361.19 L 589.08 361.18 L 590.56 361.17 L 592.03 361.15 L 593.50 361.21 L 594.97 361.19 L 596.44 361.18 L 597.92 361.16 L 599.39 361.15 L 600.86 361.18 L 602.33 361.15 L 603.81 361.18 L 605.28 361.19 L 606.75 361.24 L 608.22 362.28 L 609.69 360.03 L 611.17 361.09 L 612.64 361.14 L 614.11 361.11 L 615.58 361.16 L 617.06 361.08 L 618.53 361.23 L 620.00 361.15 L 621.47 361.15 L 622.94 361.20 L 624.42 361.17 L 625.89 361.18 L 627.36 361.16 L 628.83 361.09 L 630.31 361.18 L 631.78 361.11 L 633.25 361.14 L 634.72 361.17 L 636.19 361.13 L 637.67 361.04 L 639.14 362.12 L 640.61 362.48 L 642.08 362.33 L 643.56 362.16 L 645.03 362.20 L 646.50 362.21 L 647.97 362.22 L 649.44 362.16 L 650.92 362.24 L 652.39 362.23 L 653.86 362.27 L 655.33 362.20 L 656.81 362.24 L 658.28 362.19 L 659.75 362.27 L 661.22 362.26 L 662.69 362.22 L 664.17 362.24 L 665.64 362.26 L 667.11 362.66 L 668.58 363.50 L 670.06 363.32 L 671.53 363.26 L 673.00 363.51 L 674.47 363.51 L 675.94 363.37 L 677.42 363.38 L 678.89 363.47 L 680.36 363.52 L 681.83 363.43 L 683.31 363.51 L 684.78 363.47 L 686.25 363.49 L 687.72 363.48 L 689.19 363.45 L 690.67 363.50 L 692.14 363.42 L 693.61 363.46 L 695.08 363.44 L 696.56 363.46 L 698.03 363.47 L 699.50 362.99 L 700.97 364.45 L 702.44 364.36 L 703.92 363.84 L 705.39 363.74 L 706.86 363.74 L 708.33 363.93 L 709.81 364.03 L 711.28 370.15 L 712.75 369.44 L 714.22 366.12 L 715.69 365.40 L 717.17 362.93 L 718.64 351.85 L 720.11 348.58 L 721.58 360.85 L 723.06 371.10 L 724.53 359.55 L 726.00 358.89 L 727.47 363.09 L 728.94 356.80 L 730.42 352.84 L 731.89 355.82 L 733.36 365.49 L 734.83 363.06 L 736.31 367.91 L 737.78 356.06 L 739.25 354.67 L 740.72 354.93 L 742.19 353.60 L 743.67 355.92 L 745.14 369.98 L 746.61 365.29 L 748.08 367.50 L 749.56 367.50 L 751.03 371.18 L 752.50 376.08 L 753.97 369.38 L 755.44 368.76 L 756.92 371.52 L 758.39 363.88 L 759.86 357.78 L 761.33 365.26 L 762.81 367.01 L 764.28 367.79 L 765.75 368.46 L 767.22 372.23 L 768.69 372.67 L 770.17 374.96 L 771.64 369.27 L 773.11 370.15 L 774.58 368.23 L 776.06 370.84 L 777.53 373.09 L 779.00 371.91 L 780.47 370.65 L 781.94 368.33 L 783.42 366.92 L 784.89 371.78 L 786.36 370.89 L 787.83 371.43 L 789.31 375.50 L 790.78 375.96 L 792.25 374.58 L 793.72 374.69 L 795.19 373.79 L 796.67 372.31 L 798.14 368.57 L 799.61 371.23 L 801.08 371.06 L 802.56 364.55 L 804.03 369.65 L 805.50 373.15 L 806.97 372.60 L 808.44 365.96 L 809.92 363.71 L 811.39 364.96 L 812.86 371.57 L 814.33 361.29 L 815.81 361.42 L 817.28 364.62 L 818.75 369.96 L 820.22 370.90 L 821.69 364.42 L 823.17 367.38 L 824.64 369.32 L 826.11 370.69 L 827.58 361.36 L 829.06 364.14 L 830.53 369.58 L 832.00 357.05 L 833.47 359.79 L 834.94 359.64 L 836.42 361.99 L 837.89 355.59 L 839.36 345.56 L 840.83 344.78 L 842.31 341.45 L 843.78 360.75 L 845.25 365.84 L 846.72 363.58 L 848.19 369.47 L 849.67 365.50 L 851.14 366.19 L 852.61 364.12 L 854.08 368.49 L 855.56 369.87 L 857.03 371.88 L 858.50 375.25 L 859.97 369.82 L 861.44 369.17 L 862.92 372.21 L 864.39 380.45 L 865.86 390.90 L 867.33 399.11 L 868.81 402.51 L 870.28 409.07 L 871.75 405.63 L 873.22 400.62 L 874.69 409.64 L 876.17 405.21 L 877.64 404.00 L 879.11 401.67 L 880.58 399.54 L 882.06 396.73 L 883.53 393.77 L 885.00 388.83 L 886.47 390.51 L 887.94 383.56 L 889.42 378.09 L 890.89 364.18 L 892.36 362.09 L 893.83 361.87 L 895.31 360.85 L 896.78 369.95 L 898.25 379.62 L 899.72 383.80 L 901.19 379.63 L 902.67 382.15 L 904.14 383.20 L 905.61 367.17 L 907.08 370.10 L 908.56 377.02 L 910.03 375.19 L 911.50 374.71 L 912.97 376.62 L 914.44 377.53 L 915.92 382.22 L 917.39 390.04 L 918.86 387.80 L 920.33 388.19 L 921.81 388.28 L 923.28 385.81 L 924.75 383.88 L 926.22 386.22 L 927.69 385.33 L 929.17 385.99 L 930.64 386.64 L 932.11 386.60 L 933.58 385.29 L 935.06 384.76 L 936.53 384.71 L 938.00 386.17 L 939.47 386.69 L 940.94 389.86 L 942.42 390.69 L 943.89 390.17 L 945.36 387.89 L 946.83 389.42 L 948.31 391.13 L 949.78 391.13 L 951.25 391.56 L 952.72 389.76 L 954.19 389.70 L 955.67 390.54 L 957.14 389.10 L 958.61 388.13 L 960.08 392.54 L 961.56 399.59 L 963.03 402.76 L 964.50 400.72 L 965.97 399.59 L 967.44 397.64 L 968.92 410.99 L 970.39 404.56 L 971.86 406.03 L 973.33 401.76 L 974.81 402.45 L 976.28 405.36 L 977.75 400.19 L 979.22 399.30 L 980.69 397.10 L 982.17 400.95 L 983.64 400.45 L 985.11 401.91 L 986.58 400.22 L 988.06 397.31 L 989.53 396.84 L 991.00 397.74" stroke="#2E7D32" />
<path class="series" d="M 178.33 399.41 L 179.81 389.52 L 181.28 386.39 L 182.75 397.51 L 184.22 398.94 L 185.69 394.25 L 187.17 390.94 L 188.64 390.73 L 190.11 387.65 L 191.58 408.73 L 193.06 398.21 L 194.53 400.42 L 196.00 398.11 L 197.47 389.03 L 198.94 384.15 L 200.42 388.29 L 201.89 394.84 L 203.36 379.46 L 204.83 358.83 L 206.31 347.36 L 207.78 393.65 L 209.25 407.80 L 210.72 403.14 L 212.19 404.60 L 213.67 407.99 L 215.14 412.50 L 216.61 412.62 L 218.08 410.41 L 219.56 403.93 L 221.03 401.59 L 222.50 401.44 L 223.97 398.19 L 225.44 403.77 L 226.92 408.55 L 228.39 394.96 L 229.86 383.32 L 231.33 389.89 L 232.81 404.64 L 234.28 411.06 L 235.75 405.81 L 237.22 407.04 L 238.69 411.44 L 240.17 406.25 L 241.64 400.63 L 243.11 407.77 L 244.58 417.06 L 246.06 406.12 L 247.53 421.56 L 249.00 403.83 L 250.47 410.16 L 251.94 402.34 L 253.42 399.61 L 254.89 397.95 L 256.36 402.20 L 257.83 394.18 L 259.31 392.20 L 260.78 395.22 L 262.25 399.19 L 263.72 404.08 L 265.19 408.15 L 266.67 412.03 L 268.14 419.96 L 269.61 426.92 L 271.08 423.74 L 272.56 417.14 L 274.03 412.26 L 275.50 405.49 L 276.97 413.28 L 278.44 410.35 L 279.92 407.55 L 281.39 415.88 L 282.86 416.61 L 284.33 420.08 L 285.81 427.21 L 287.28 411.67 L 288.75 413.38 L 290.22 415.22 L 291.69 414.56 L 293.17 414.90 L 294.64 420.47 L 296.11 414.66 L 297.58 412.58 L 299.06 411.64 L 300.53 409.76 L 302.00 407.96 L 303.47 415.54 L 304.94 425.60 L 306.42 414.46 L 307.89 430.02 L 309.36 418.13 L 310.83 418.60 L 312.31 432.68 L 313.78 421.48 L 315.25 422.43 L 316.72 426.09 L 318.19 421.78 L 319.67 418.00 L 321.14 409.94 L 322.61 413.34 L 324.08 416.44 L 325.56 410.11 L 327.03 418.40 L 328.50 406.26 L 329.97 413.46 L 331.44 408.49 L 332.92 415.04 L 334.39 414.36 L 335.86 414.51 L 337.33 413.98 L 338.81 414.41 L 340.28 414.30 L 341.75 414.34 L 343.22 414.42 L 344.69 414.30 L 346.17 414.35 L 347.64 414.39 L 349.11 414.34 L 350.58 414.33 L 352.06 414.33 L 353.53 414.37 L 355.00 414.35 L 356.47 414.30 L 357.94 414.33 L 359.42 414.33 L 360.89 414.37 L 362.36 414.30 L 363.83 414.28 L 365.31 414.39 L 366.78 414.34 L 368.25 414.35 L 369.72 414.37 L 371.19 414.31 L 372.67 414.34 L 374.14 414.33 L 375.61 414.31 L 377.08 414.34 L 378.56 414.49 L 380.03 414.47 L 381.50 414.49 L 382.97 414.26 L 384.44 414.32 L 385.92 413.83 L 387.39 414.40 L 388.86 413.85 L 390.33 414.00 L 391.81 415.15 L 393.28 414.40 L 394.75 414.96 L 396.22 412.91 L 397.69 416.96 L 399.17 411.93 L 400.64 415.52 L 402.11 418.67 L 403.58 419.49 L 405.06 416.65 L 406.53 412.43 L 408.00 413.99 L 409.47 407.40 L 410.94 409.74 L 412.42 413.37 L 413.89 406.95 L 415.36 413.35 L 416.83 409.34 L 418.31 407.21 L 419.78 414.55 L 421.25 418.67 L 422.72 420.54 L 424.19 420.21 L 425.67 415.48 L 427.14 422.26 L 428.61 420.81 L 430.08 418.62 L 431.56 431.73 L 433.03 420.72 L 434.50 427.93 L 435.97 418.78 L 437.44 420.72 L 438.92 411.08 L 440.39 408.85 L 441.86 406.26 L 443.33 406.06 L 444.81 414.42 L 446.28 407.42 L 447.75 403.80 L 449.22 398.04 L 450.69 401.91 L 452.17 406.01 L 453.64 407.18 L 455.11 409.57 L 456.58 408.31 L 458.06 409.93 L 459.53 406.00 L 461.00 408.96 L 462.47 408.96 L 463.94 408.44 L 465.42 407.79 L 466.89 408.27 L 468.36 407.85 L 469.83 408.17 L 471.31 408.07 L 472.78 408.09 L 474.25 408.09 L 475.72 408.02 L 477.19 408.13 L 478.67 408.11 L 480.14 408.07 L 481.61 408.02 L 483.08 408.09 L 484.56 408.09 L 486.03 408.09 L 487.50 408.04 L 488.97 408.13 L 490.44 408.14 L 491.92 408.10 L 493.39 408.07 L 494.86 408.05 L 496.33 408.12 L 497.81 408.72 L 499.28 407.43 L 500.75 405.15 L 502.22 407.35 L 503.69 408.35 L 505.17 407.56 L 506.64 406.73 L 508.11 407.06 L 509.58 407.68 L 511.06 407.27 L 512.53 406.99 L 514.00 407.37 L 515.47 407.40 L 516.94 407.14 L 518.42 407.24 L 519.89 407.32 L 521.36 407.30 L 522.83 407.22 L 524.31 407.23 L 525.78 407.33 L 527.25 407.28 L 528.72 407.25 L 530.19 407.27 L 531.67 407.19 L 533.14 407.50 L 534.61 406.60 L 536.08 406.42 L 537.56 406.92 L 539.03 406.97 L 540.50 406.86 L 541.97 406.74 L 543.44 406.85 L 544.92 406.89 L 546.39 406.90 L 547.86 406.84 L 549.33 406.77 L 550.81 406.89 L 552.28 406.87 L 553.75 406.82 L 555.22 406.82 L 556.69 406.85 L 558.17 406.88 L 559.64 406.84 L 561.11 406.80 L 562.58 406.84 L 564.06 406.90 L 565.53 406.88 L 567.00 406.82 L 568.47 406.77 L 569.94 406.73 L 571.42 407.51 L 572.89 406.85 L 574.36 406.89 L 575.83 407.02 L 577.31 406.87 L 578.78 407.06 L 580.25 407.01 L 581.72 407.12 L 583.19 407.11 L 584.67 407.03 L 586.14 407.01 L 587.61 407.05 L 589.08 407.02 L 590.56 407.02 L 592.03 407.06 L 593.50 407.09 L 594.97 407.06 L 596.44 407.11 L 597.92 407.00 L 599.39 407.02 L 600.86 407.07 L 602.33 407.05 L 603.81 407.04 L 605.28 406.99 L 606.75 407.07 L 608.22 407.57 L 609.69 405.64 L 611.17 408.30 L 612.64 407.11 L 614.11 407.17 L 615.58 407.24 L 617.06 407.29 L 618.53 407.38 L 620.00 407.44 L 621.47 407.39 L 622.94 407.39 L 624.42 407.43 L 625.89 407.46 L 627.36 407.45 L 628.83 407.38 L 630.31 407.41 L 631.78 407.42 L 633.25 407.47 L 634.72 407.38 L 636.19 407.38 L 637.67 407.54 L 639.14 406.32 L 640.61 407.14 L 642.08 407.04 L 643.56 407.16 L 645.03 407.03 L 646.50 406.91 L 647.97 407.01 L 649.44 407.03 L 650.92 407.02 L 652.39 406.93 L 653.86 407.06 L 655.33 407.02 L 656.81 407.00 L 658.28 407.03 L 659.75 406.98 L 661.22 407.02 L 662.69 407.02 L 664.17 406.99 L 665.64 406.97 L 667.11 406.57 L 668.58 407.47 L 670.06 407.26 L 671.53 406.91 L 673.00 406.72 L 674.47 406.93 L 675.94 406.91 L 677.42 406.92 L 678.89 407.01 L 680.36 407.05 L 681.83 407.03 L 683.31 407.06 L 684.78 407.04 L 686.25 407.05 L 687.72 407.12 L 689.19 406.99 L 690.67 407.11 L 692.14 407.02 L 693.61 407.03 L 695.08 407.02 L 696.56 407.01 L 698.03 407.01 L 699.50 407.03 L 700.97 406.66 L 702.44 407.46 L 703.92 407.14 L 705.39 407.20 L 706.86 406.98 L 708.33 407.33 L 709.81 407.10 L 711.28 407.04 L 712.75 403.29 L 714.22 402.32 L 715.69 400.70 L 717.17 401.15 L 718.64 404.07 L 720.11 405.78 L 721.58 404.45 L 723.06 405.09 L 724.53 410.60 L 726.00 408.29 L 727.47 404.36 L 728.94 410.51 L 730.42 408.68 L 731.89 417.10 L 733.36 417.28 L 734.83 428.33 L 736.31 421.63 L 737.78 428.50 L 739.25 430.56 L 740.72 422.72 L 742.19 417.51 L 743.67 423.87 L 745.14 416.80 L 746.61 424.50 L 748.08 430.39 L 749.56 430.39 L 751.03 426.14 L 752.50 422.80 L 753.97 416.02 L 755.44 422.49 L 756.92 404.06 L 758.39 401.31 L 759.86 390.31 L 761.33 399.35 L 762.81 404.90 L 764.28 397.01 L 765.75 404.07 L 767.22 404.78 L 768.69 399.73 L 770.17 407.68 L 771.64 402.02 L 773.11 411.32 L 774.58 408.44 L 776.06 401.78 L 777.53 404.14 L 779.00 406.65 L 780.47 414.48 L 781.94 408.84 L 783.42 410.14 L 784.89 402.70 L 786.36 416.86 L 787.83 398.17 L 789.31 410.17 L 790.78 410.19 L 792.25 415.30 L 793.72 414.05 L 795.19 408.86 L 796.67 396.35 L 798.14 401.51 L 799.61 403.97 L 801.08 404.68 L 802.56 399.71 L 804.03 396.85 L 805.50 399.62 L 806.97 407.56 L 808.44 417.04 L 809.92 418.14 L 811.39 427.65 L 812.86 429.05 L 814.33 427.21 L 815.81 420.91 L 817.28 405.44 L 818.75 418.63 L 820.22 418.84 L 821.69 420.71 L 823.17 414.07 L 824.64 418.14 L 826.11 438.62 L 827.58 410.71 L 829.06 415.53 L 830.53 412.93 L 832.00 398.26 L 833.47 398.70 L 834.94 412.21 L 836.42 417.68 L 837.89 412.89 L 839.36 420.93 L 840.83 423.01 L 842.31 422.25 L 843.78 422.14 L 845.25 423.50 L 846.72 428.40 L 848.19 426.45 L 849.67 416.71 L 851.14 412.17 L 852.61 424.77 L 854.08 423.61 L 855.56 415.22 L 857.03 412.85 L 858.50 422.56 L 859.97 417.04 L 861.44 400.82 L 862.92 408.17 L 864.39 415.03 L 865.86 411.39 L 867.33 410.90 L 868.81 412.76 L 870.28 418.29 L 871.75 415.50 L 873.22 413.51 L 874.69 411.45 L 876.17 409.62 L 877.64 409.88 L 879.11 410.03 L 880.58 403.22 L 882.06 401.62 L 883.53 405.15 L 885.00 404.28 L 886.47 398.76 L 887.94 401.47 L 889.42 409.22 L 890.89 419.38 L 892.36 428.04 L 893.83 430.61 L 895.31 439.91 L 896.78 438.06 L 898.25 445.41 L 899.72 436.52 L 901.19 436.23 L 902.67 425.38 L 904.14 422.96 L 905.61 421.58 L 907.08 423.86 L 908.56 424.90 L 910.03 425.88 L 911.50 421.15 L 912.97 423.04 L 914.44 425.33 L 915.92 424.11 L 917.39 425.02 L 918.86 421.34 L 920.33 421.57 L 921.81 422.79 L 923.28 426.63 L 924.75 424.99 L 926.22 422.05 L 927.69 417.40 L 929.17 418.55 L 930.64 416.14 L 932.11 417.16 L 933.58 415.93 L 935.06 412.54 L 936.53 411.64 L 938.00 412.03 L 939.47 408.21 L 940.94 407.59 L 942.42 408.25 L 943.89 407.74 L 945.36 406.29 L 946.83 406.20 L 948.31 405.86 L 949.78 405.36 L 951.25 403.82 L 952.72 402.16 L 954.19 400.44 L 955.67 396.43 L 957.14 395.87 L 958.61 395.35 L 960.08 398.20 L 961.56 398.62 L 963.03 395.37 L 964.50 401.99 L 965.97 404.35 L 967.44 402.17 L 968.92 403.48 L 970.39 406.56 L 971.86 404.97 L 973.33 406.85 L 974.81 408.36 L 976.28 411.98 L 977.75 412.93 L 979.22 413.19 L 980.69 411.00 L 982.17 413.21 L 983.64 412.93 L 985.11 414.47 L 986.58 414.00 L 988.06 413.21 L 989.53 411.91 L 991.00 413.22" stroke="#6A1B9A" />
<line x1="900.00" y1="307.75" x2="918.00" y2="307.75" stroke="#2E7D32" stroke-width="3" />
<text class="small" x="924.00" y="311.75">pitch</text>
<line x1="900.00" y1="323.75" x2="918.00" y2="323.75" stroke="#6A1B9A" stroke-width="3" />
<text class="small" x="924.00" y="327.75">roll</text>
<text x="90" y="500.50" font-size="14" font-weight="700">Aceleração (magnitude) (u.a.)</text>
<rect class="event" x="443.33" y="506.50" width="282.67" height="192.75" />
<line class="eventline" x1="443.33" y1="506.50" x2="443.33" y2="699.25" />
<line class="eventline" x1="726.00" y1="506.50" x2="726.00" y2="699.25" />
<line class="grid" x1="90" y1="699.25" x2="1150" y2="699.25" />
<text class="small" x="80" y="703.25" text-anchor="end">0.00</text>
<line class="grid" x1="90" y1="660.70" x2="1150" y2="660.70" />
<text class="small" x="80" y="664.70" text-anchor="end">0.50</text>
<line class="grid" x1="90" y1="622.15" x2="1150" y2="622.15" />
<text class="small" x="80" y="626.15" text-anchor="end">1.00</text>
<line class="grid" x1="90" y1="583.60" x2="1150" y2="583.60" />
<text class="small" x="80" y="587.60" text-anchor="end">1.50</text>
<line class="grid" x1="90" y1="545.05" x2="1150" y2="545.05" />
<text class="small" x="80" y="549.05" text-anchor="end">2.00</text>
<line class="grid" x1="90" y1="506.50" x2="1150" y2="506.50" />
<text class="small" x="80" y="510.50" text-anchor="end">2.50</text>
<line class="grid" x1="90.00" y1="506.50" x2="90.00" y2="699.25" />
<line class="grid" x1="266.67" y1="506.50" x2="266.67" y2="699.25" />
<line class="grid" x1="443.33" y1="506.50" x2="443.33" y2="699.25" />
<line class="grid" x1="620.00" y1="506.50" x2="620.00" y2="699.25" />
<line class="grid" x1="796.67" y1="506.50" x2="796.67" y2="699.25" />
<line class="grid" x1="973.33" y1="506.50" x2="973.33" y2="699.25" />
<line class="grid" x1="1150.00" y1="506.50" x2="1150.00" y2="699.25" />
<line class="axis" x1="90" y1="506.50" x2="90" y2="699.25" />
<line class="axis" x1="90" y1="699.25" x2="1150" y2="699.25" />
<path class="series" d="M 178.33 650.50 L 179.81 665.94 L 181.28 659.87 L 182.75 662.32 L 184.22 675.02 L 185.69 682.41 L 187.17 674.66 L 188.64 671.23 L 190.11 671.47 L 191.58 646.39 L 193.06 639.31 L 194.53 645.98 L 196.00 680.30 L 197.47 658.28 L 198.94 632.97 L 200.42 633.96 L 201.89 644.29 L 203.36 616.33 L 204.83 634.40 L 206.31 632.84 L 207.78 625.18 L 209.25 623.15 L 210.72 615.38 L 212.19 629.56 L 213.67 643.59 L 215.14 673.93 L 216.61 666.69 L 218.08 670.86 L 219.56 659.14 L 221.03 662.89 L 222.50 676.30 L 223.97 658.91 L 225.44 662.64 L 226.92 639.86 L 228.39 687.58 L 229.86 686.12 L 231.33 689.87 L 232.81 690.83 L 234.28 672.44 L 235.75 663.34 L 237.22 665.58 L 238.69 658.25 L 240.17 693.36 L 241.64 683.43 L 243.11 676.84 L 244.58 690.39 L 246.06 688.40 L 247.53 659.54 L 249.00 670.19 L 250.47 655.98 L 251.94 686.73 L 253.42 672.46 L 254.89 671.39 L 256.36 659.48 L 257.83 665.99 L 259.31 671.58 L 260.78 683.36 L 262.25 681.45 L 263.72 675.16 L 265.19 687.63 L 266.67 655.28 L 268.14 665.24 L 269.61 657.72 L 271.08 657.72 L 272.56 677.63 L 274.03 670.39 L 275.50 630.87 L 276.97 674.14 L 278.44 673.98 L 279.92 680.35 L 281.39 682.57 L 282.86 681.96 L 284.33 671.03 L 285.81 685.89 L 287.28 684.45 L 288.75 678.06 L 290.22 682.86 L 291.69 687.61 L 293.17 675.67 L 294.64 666.32 L 296.11 681.74 L 297.58 683.80 L 299.06 686.92 L 300.53 686.99 L 302.00 683.33 L 303.47 673.92 L 304.94 693.73 L 306.42 674.72 L 307.89 656.11 L 309.36 683.22 L 310.83 690.03 L 312.31 679.16 L 313.78 685.18 L 315.25 682.24 L 316.72 683.99 L 318.19 664.88 L 319.67 673.29 L 321.14 643.21 L 322.61 676.87 L 324.08 690.81 L 325.56 679.62 L 327.03 664.66 L 328.50 680.27 L 329.97 677.85 L 331.44 689.75 L 332.92 680.67 L 334.39 694.03 L 335.86 698.22 L 337.33 698.69 L 338.81 699.04 L 340.28 698.61 L 341.75 698.71 L 343.22 698.85 L 344.69 699.12 L 346.17 699.06 L 347.64 699.13 L 349.11 699.09 L 350.58 698.98 L 352.06 699.15 L 353.53 699.00 L 355.00 699.10 L 356.47 698.97 L 357.94 699.09 L 359.42 699.16 L 360.89 699.21 L 362.36 699.09 L 363.83 699.02 L 365.31 699.15 L 366.78 698.86 L 368.25 699.07 L 369.72 698.86 L 371.19 699.15 L 372.67 698.90 L 374.14 699.03 L 375.61 698.79 L 377.08 699.05 L 378.56 697.74 L 380.03 697.87 L 381.50 698.74 L 382.97 698.85 L 384.44 699.08 L 385.92 697.46 L 387.39 697.60 L 388.86 698.67 L 390.33 695.58 L 391.81 689.82 L 393.28 698.64 L 394.75 698.62 L 396.22 688.25 L 397.69 673.03 L 399.17 681.39 L 400.64 694.67 L 402.11 682.44 L 403.58 686.38 L 405.06 686.27 L 406.53 694.29 L 408.00 692.19 L 409.47 689.62 L 410.94 696.07 L 412.42 689.88 L 413.89 688.43 L 415.36 685.28 L 416.83 689.34 L 418.31 688.63 L 419.78 683.75 L 421.25 689.84 L 422.72 687.98 L 424.19 692.34 L 425.67 688.36 L 427.14 694.03 L 428.61 692.36 L 430.08 688.99 L 431.56 687.22 L 433.03 667.73 L 434.50 685.03 L 435.97 693.81 L 437.44 671.63 L 438.92 675.54 L 440.39 687.01 L 441.86 679.41 L 443.33 679.41 L 444.81 692.55 L 446.28 683.62 L 447.75 691.67 L 449.22 687.39 L 450.69 687.19 L 452.17 688.54 L 453.64 685.09 L 455.11 690.61 L 456.58 686.39 L 458.06 690.28 L 459.53 691.74 L 461.00 695.39 L 462.47 690.49 L 463.94 694.87 L 465.42 698.14 L 466.89 698.85 L 468.36 698.85 L 469.83 698.75 L 471.31 698.83 L 472.78 699.02 L 474.25 699.08 L 475.72 699.09 L 477.19 699.12 L 478.67 699.02 L 480.14 699.16 L 481.61 699.13 L 483.08 699.13 L 484.56 699.13 L 486.03 699.16 L 487.50 698.94 L 488.97 699.00 L 490.44 699.08 L 491.92 699.05 L 493.39 699.12 L 494.86 699.09 L 496.33 698.14 L 497.81 688.57 L 499.28 689.23 L 500.75 696.54 L 502.22 694.46 L 503.69 698.23 L 505.17 696.61 L 506.64 699.02 L 508.11 697.69 L 509.58 698.87 L 511.06 698.12 L 512.53 698.61 L 514.00 698.89 L 515.47 698.75 L 516.94 699.16 L 518.42 699.08 L 519.89 699.09 L 521.36 699.16 L 522.83 699.14 L 524.31 699.19 L 525.78 699.05 L 527.25 699.16 L 528.72 699.05 L 530.19 698.98 L 531.67 697.18 L 533.14 692.28 L 534.61 695.03 L 536.08 697.20 L 537.56 698.69 L 539.03 699.02 L 540.50 698.96 L 541.97 699.04 L 543.44 698.97 L 544.92 699.07 L 546.39 699.01 L 547.86 699.13 L 549.33 699.01 L 550.81 699.04 L 552.28 699.12 L 553.75 699.14 L 555.22 699.11 L 556.69 699.02 L 558.17 699.14 L 559.64 699.02 L 561.11 699.11 L 562.58 699.01 L 564.06 699.20 L 565.53 699.10 L 567.00 698.48 L 568.47 697.39 L 569.94 693.32 L 571.42 697.34 L 572.89 698.39 L 574.36 695.87 L 575.83 698.30 L 577.31 699.03 L 578.78 698.68 L 580.25 698.82 L 581.72 698.85 L 583.19 699.15 L 584.67 699.03 L 586.14 699.11 L 587.61 699.12 L 589.08 699.10 L 590.56 699.14 L 592.03 699.16 L 593.50 699.06 L 594.97 699.14 L 596.44 699.06 L 597.92 699.16 L 599.39 699.11 L 600.86 699.13 L 602.33 699.17 L 603.81 699.11 L 605.28 699.11 L 606.75 698.97 L 608.22 698.93 L 609.69 688.22 L 611.17 694.99 L 612.64 696.38 L 614.11 698.31 L 615.58 699.04 L 617.06 698.99 L 618.53 698.91 L 620.00 698.98 L 621.47 698.95 L 622.94 699.14 L 624.42 699.00 L 625.89 699.08 L 627.36 699.01 L 628.83 699.07 L 630.31 699.04 L 631.78 699.14 L 633.25 699.13 L 634.72 698.73 L 636.19 698.70 L 637.67 698.99 L 639.14 697.36 L 640.61 695.67 L 642.08 698.20 L 643.56 698.50 L 645.03 698.62 L 646.50 698.62 L 647.97 698.87 L 649.44 699.14 L 650.92 699.16 L 652.39 699.03 L 653.86 699.18 L 655.33 699.12 L 656.81 699.11 L 658.28 699.04 L 659.75 699.04 L 661.22 699.17 L 662.69 698.93 L 664.17 699.02 L 665.64 699.03 L 667.11 697.62 L 668.58 698.78 L 670.06 696.97 L 671.53 696.82 L 673.00 698.23 L 674.47 698.41 L 675.94 698.63 L 677.42 699.01 L 678.89 699.00 L 680.36 698.86 L 681.83 699.03 L 683.31 698.93 L 684.78 699.09 L 686.25 699.17 L 687.72 699.11 L 689.19 699.18 L 690.67 699.19 L 692.14 699.14 L 693.61 699.05 L 695.08 699.12 L 696.56 699.08 L 698.03 699.11 L 699.50 697.80 L 700.97 694.13 L 702.44 695.36 L 703.92 697.80 L 705.39 697.98 L 706.86 698.51 L 708.33 698.79 L 709.81 698.54 L 711.28 689.82 L 712.75 693.92 L 714.22 693.00 L 715.69 691.56 L 717.17 686.83 L 718.64 678.50 L 720.11 675.78 L 721.58 681.01 L 723.06 668.62 L 724.53 685.27 L 726.00 681.24 L 727.47 690.61 L 728.94 669.86 L 730.42 675.41 L 731.89 674.72 L 733.36 691.08 L 734.83 679.76 L 736.31 684.28 L 737.78 655.51 L 739.25 675.93 L 740.72 683.46 L 742.19 688.48 L 743.67 670.46 L 745.14 674.47 L 746.61 683.64 L 748.08 682.80 L 749.56 682.36 L 751.03 679.89 L 752.50 683.24 L 753.97 675.00 L 755.44 658.97 L 756.92 690.80 L 758.39 642.05 L 759.86 665.85 L 761.33 679.47 L 762.81 690.83 L 764.28 695.35 L 765.75 697.43 L 767.22 682.07 L 768.69 651.24 L 770.17 672.48 L 771.64 677.79 L 773.11 677.79 L 774.58 676.52 L 776.06 690.37 L 777.53 688.38 L 779.00 674.27 L 780.47 678.10 L 781.94 692.36 L 783.42 670.41 L 784.89 687.65 L 786.36 670.12 L 787.83 660.85 L 789.31 685.16 L 790.78 688.25 L 792.25 678.41 L 793.72 669.89 L 795.19 686.72 L 796.67 664.77 L 798.14 677.48 L 799.61 692.30 L 801.08 691.46 L 802.56 673.62 L 804.03 688.59 L 805.50 675.28 L 806.97 669.78 L 808.44 670.08 L 809.92 671.61 L 811.39 673.70 L 812.86 666.53 L 814.33 659.44 L 815.81 675.67 L 817.28 648.84 L 818.75 679.83 L 820.22 655.14 L 821.69 678.73 L 823.17 636.15 L 824.64 665.59 L 826.11 649.65 L 827.58 673.97 L 829.06 682.25 L 830.53 685.69 L 832.00 668.10 L 833.47 664.90 L 834.94 680.20 L 836.42 674.76 L 837.89 687.68 L 839.36 640.75 L 840.83 635.69 L 842.31 675.37 L 843.78 666.39 L 845.25 666.88 L 846.72 683.29 L 848.19 672.10 L 849.67 681.89 L 851.14 668.98 L 852.61 687.73 L 854.08 681.24 L 855.56 682.79 L 857.03 683.68 L 858.50 690.50 L 859.97 682.23 L 861.44 675.13 L 862.92 683.89 L 864.39 688.62 L 865.86 686.50 L 867.33 687.93 L 868.81 682.12 L 870.28 675.14 L 871.75 680.13 L 873.22 667.83 L 874.69 677.40 L 876.17 692.94 L 877.64 688.24 L 879.11 672.63 L 880.58 691.80 L 882.06 685.82 L 883.53 692.21 L 885.00 688.10 L 886.47 683.12 L 887.94 673.03 L 889.42 680.59 L 890.89 660.01 L 892.36 675.57 L 893.83 677.77 L 895.31 666.69 L 896.78 684.78 L 898.25 687.04 L 899.72 683.56 L 901.19 696.20 L 902.67 680.93 L 904.14 676.81 L 905.61 667.99 L 907.08 691.28 L 908.56 686.16 L 910.03 687.03 L 911.50 685.94 L 912.97 674.50 L 914.44 678.60 L 915.92 688.42 L 917.39 668.02 L 918.86 695.21 L 920.33 685.10 L 921.81 689.80 L 923.28 687.22 L 924.75 687.28 L 926.22 692.51 L 927.69 691.37 L 929.17 694.34 L 930.64 698.12 L 932.11 695.06 L 933.58 697.22 L 935.06 690.93 L 936.53 693.63 L 938.00 695.70 L 939.47 691.30 L 940.94 688.77 L 942.42 691.90 L 943.89 694.42 L 945.36 688.45 L 946.83 688.45 L 948.31 693.53 L 949.78 695.45 L 951.25 696.89 L 952.72 694.97 L 954.19 695.80 L 955.67 694.50 L 957.14 691.63 L 958.61 691.50 L 960.08 676.32 L 961.56 678.77 L 963.03 680.26 L 964.50 693.28 L 965.97 683.19 L 967.44 681.35 L 968.92 681.01 L 970.39 685.81 L 971.86 688.25 L 973.33 688.69 L 974.81 692.94 L 976.28 695.16 L 977.75 695.15 L 979.22 694.51 L 980.69 694.73 L 982.17 689.11 L 983.64 689.98 L 985.11 693.06 L 986.58 691.34 L 988.06 692.88 L 989.53 696.32 L 991.00 695.56" stroke="#FB8C00" />
<text x="90" y="711.25" font-size="14" font-weight="700">Giroscópio (magnitude) (u.a.)</text>
<rect class="event" x="443.33" y="717.25" width="282.67" height="192.75" />
<line class="eventline" x1="443.33" y1="717.25" x2="443.33" y2="910.00" />
<line class="eventline" x1="726.00" y1="717.25" x2="726.00" y2="910.00" />
<line class="grid" x1="90" y1="910.00" x2="1150" y2="910.00" />
<text class="small" x="80" y="914.00" text-anchor="end">0.00</text>
<line class="grid" x1="90" y1="871.45" x2="1150" y2="871.45" />
<text class="small" x="80" y="875.45" text-anchor="end">0.10</text>
<line class="grid" x1="90" y1="832.90" x2="1150" y2="832.90" />
<text class="small" x="80" y="836.90" text-anchor="end">0.20</text>
<line class="grid" x1="90" y1="794.35" x2="1150" y2="794.35" />
<text class="small" x="80" y="798.35" text-anchor="end">0.30</text>
<line class="grid" x1="90" y1="755.80" x2="1150" y2="755.80" />
<text class="small" x="80" y="759.80" text-anchor="end">0.40</text>
<line class="grid" x1="90" y1="717.25" x2="1150" y2="717.25" />
<text class="small" x="80" y="721.25" text-anchor="end">0.50</text>
<line class="grid" x1="90.00" y1="717.25" x2="90.00" y2="910.00" />
<line class="grid" x1="266.67" y1="717.25" x2="266.67" y2="910.00" />
<line class="grid" x1="443.33" y1="717.25" x2="443.33" y2="910.00" />
<line class="grid" x1="620.00" y1="717.25" x2="620.00" y2="910.00" />
<line class="grid" x1="796.67" y1="717.25" x2="796.67" y2="910.00" />
<line class="grid" x1="973.33" y1="717.25" x2="973.33" y2="910.00" />
<line class="grid" x1="1150.00" y1="717.25" x2="1150.00" y2="910.00" />
<line class="axis" x1="90" y1="717.25" x2="90" y2="910.00" />
<line class="axis" x1="90" y1="910.00" x2="1150" y2="910.00" />
<path class="series" d="M 178.33 884.56 L 179.81 892.79 L 181.28 892.46 L 182.75 895.72 L 184.22 893.41 L 185.69 893.76 L 187.17 888.51 L 188.64 881.86 L 190.11 886.95 L 191.58 890.18 L 193.06 900.17 L 194.53 895.35 L 196.00 905.92 L 197.47 884.88 L 198.94 871.84 L 200.42 866.93 L 201.89 892.34 L 203.36 856.41 L 204.83 827.72 L 206.31 813.05 L 207.78 855.87 L 209.25 887.25 L 210.72 901.03 L 212.19 875.04 L 213.67 884.83 L 215.14 898.37 L 216.61 896.69 L 218.08 894.73 L 219.56 899.64 L 221.03 895.36 L 222.50 903.36 L 223.97 888.81 L 225.44 888.93 L 226.92 896.05 L 228.39 897.45 L 229.86 899.52 L 231.33 881.53 L 232.81 891.90 L 234.28 895.39 L 235.75 904.77 L 237.22 906.99 L 238.69 900.14 L 240.17 889.21 L 241.64 891.11 L 243.11 893.84 L 244.58 903.23 L 246.06 894.04 L 247.53 886.88 L 249.00 891.20 L 250.47 907.64 L 251.94 886.86 L 253.42 903.55 L 254.89 905.91 L 256.36 900.30 L 257.83 897.49 L 259.31 894.95 L 260.78 901.56 L 262.25 898.84 L 263.72 891.54 L 265.19 899.24 L 266.67 907.19 L 268.14 891.10 L 269.61 890.01 L 271.08 890.01 L 272.56 884.94 L 274.03 889.43 L 275.50 897.24 L 276.97 899.19 L 278.44 891.06 L 279.92 891.64 L 281.39 889.21 L 282.86 899.39 L 284.33 898.52 L 285.81 901.08 L 287.28 897.21 L 288.75 905.49 L 290.22 905.81 L 291.69 907.36 L 293.17 903.36 L 294.64 901.25 L 296.11 900.49 L 297.58 897.10 L 299.06 894.09 L 300.53 894.49 L 302.00 897.01 L 303.47 902.01 L 304.94 903.86 L 306.42 888.37 L 307.89 885.33 L 309.36 868.67 L 310.83 866.22 L 312.31 861.42 L 313.78 861.64 L 315.25 854.58 L 316.72 846.66 L 318.19 837.89 L 319.67 839.99 L 321.14 857.36 L 322.61 862.28 L 324.08 856.14 L 325.56 859.59 L 327.03 866.92 L 328.50 876.93 L 329.97 887.10 L 331.44 901.99 L 332.92 908.39 L 334.39 909.85 L 335.86 909.84 L 337.33 909.80 L 338.81 909.81 L 340.28 909.80 L 341.75 909.83 L 343.22 909.87 L 344.69 909.85 L 346.17 909.85 L 347.64 909.92 L 349.11 909.91 L 350.58 909.97 L 352.06 909.93 L 353.53 909.93 L 355.00 909.98 L 356.47 909.92 L 357.94 909.96 L 359.42 909.83 L 360.89 909.82 L 362.36 909.85 L 363.83 909.86 L 365.31 909.81 L 366.78 909.85 L 368.25 909.86 L 369.72 909.85 L 371.19 909.85 L 372.67 909.82 L 374.14 909.95 L 375.61 909.94 L 377.08 909.89 L 378.56 909.51 L 380.03 909.96 L 381.50 909.92 L 382.97 909.82 L 384.44 909.99 L 385.92 909.54 L 387.39 909.81 L 388.86 909.83 L 390.33 907.78 L 391.81 909.75 L 393.28 909.92 L 394.75 909.88 L 396.22 907.67 L 397.69 902.52 L 399.17 907.22 L 400.64 906.30 L 402.11 907.56 L 403.58 893.21 L 405.06 891.17 L 406.53 891.04 L 408.00 890.16 L 409.47 892.19 L 410.94 892.04 L 412.42 890.50 L 413.89 891.26 L 415.36 889.77 L 416.83 892.94 L 418.31 899.10 L 419.78 899.63 L 421.25 908.05 L 422.72 900.42 L 424.19 900.79 L 425.67 900.65 L 427.14 898.75 L 428.61 899.94 L 430.08 893.29 L 431.56 897.78 L 433.03 899.22 L 434.50 900.18 L 435.97 901.06 L 437.44 900.67 L 438.92 890.62 L 440.39 897.87 L 441.86 894.13 L 443.33 894.13 L 444.81 904.97 L 446.28 904.72 L 447.75 899.74 L 449.22 904.51 L 450.69 907.51 L 452.17 907.96 L 453.64 903.27 L 455.11 906.30 L 456.58 909.27 L 458.06 909.40 L 459.53 905.36 L 461.00 909.81 L 462.47 909.28 L 463.94 909.89 L 465.42 909.85 L 466.89 909.88 L 468.36 909.92 L 469.83 909.88 L 471.31 909.85 L 472.78 909.91 L 474.25 909.93 L 475.72 909.93 L 477.19 909.93 L 478.67 909.87 L 480.14 909.88 L 481.61 909.89 L 483.08 909.95 L 484.56 909.89 L 486.03 909.91 L 487.50 909.92 L 488.97 909.93 L 490.44 909.95 L 491.92 909.93 L 493.39 909.93 L 494.86 909.90 L 496.33 909.95 L 497.81 906.73 L 499.28 908.78 L 500.75 908.85 L 502.22 909.85 L 503.69 909.50 L 505.17 909.86 L 506.64 909.73 L 508.11 909.83 L 509.58 909.84 L 511.06 909.91 L 512.53 909.83 L 514.00 909.93 L 515.47 909.93 L 516.94 909.84 L 518.42 909.92 L 519.89 909.91 L 521.36 909.88 L 522.83 909.90 L 524.31 909.86 L 525.78 909.90 L 527.25 909.85 L 528.72 909.84 L 530.19 909.83 L 531.67 909.68 L 533.14 909.04 L 534.61 909.50 L 536.08 909.61 L 537.56 909.75 L 539.03 909.82 L 540.50 909.83 L 541.97 909.88 L 543.44 909.81 L 544.92 909.88 L 546.39 909.76 L 547.86 909.91 L 549.33 909.88 L 550.81 909.96 L 552.28 909.94 L 553.75 909.91 L 555.22 909.93 L 556.69 909.94 L 558.17 909.93 L 559.64 909.93 L 561.11 909.90 L 562.58 909.92 L 564.06 909.96 L 565.53 909.91 L 567.00 909.87 L 568.47 909.24 L 569.94 909.08 L 571.42 909.72 L 572.89 909.82 L 574.36 909.76 L 575.83 909.98 L 577.31 909.91 L 578.78 909.96 L 580.25 909.91 L 581.72 909.84 L 583.19 909.81 L 584.67 909.86 L 586.14 909.80 L 587.61 909.92 L 589.08 909.85 L 590.56 909.90 L 592.03 909.95 L 593.50 909.93 L 594.97 909.94 L 596.44 909.93 L 597.92 909.94 L 599.39 909.95 L 600.86 909.90 L 602.33 909.89 L 603.81 909.92 L 605.28 909.92 L 606.75 909.96 L 608.22 909.97 L 609.69 909.61 L 611.17 908.77 L 612.64 909.79 L 614.11 909.93 L 615.58 909.97 L 617.06 909.97 L 618.53 909.96 L 620.00 909.94 L 621.47 909.98 L 622.94 909.98 L 624.42 909.96 L 625.89 909.94 L 627.36 909.92 L 628.83 909.96 L 630.31 909.95 L 631.78 909.94 L 633.25 909.94 L 634.72 909.91 L 636.19 909.92 L 637.67 909.86 L 639.14 908.19 L 640.61 909.03 L 642.08 909.84 L 643.56 909.87 L 645.03 909.98 L 646.50 909.95 L 647.97 909.93 L 649.44 909.95 L 650.92 909.90 L 652.39 909.95 L 653.86 909.98 L 655.33 909.94 L 656.81 909.94 L 658.28 909.96 L 659.75 909.92 L 661.22 909.95 L 662.69 909.89 L 664.17 909.95 L 665.64 909.88 L 667.11 909.05 L 668.58 908.22 L 670.06 909.00 L 671.53 909.68 L 673.00 909.72 L 674.47 909.82 L 675.94 909.92 L 677.42 909.94 L 678.89 909.91 L 680.36 909.92 L 681.83 909.94 L 683.31 909.89 L 684.78 909.94 L 686.25 909.96 L 687.72 909.89 L 689.19 909.96 L 690.67 909.90 L 692.14 909.96 L 693.61 909.98 L 695.08 909.97 L 696.56 909.96 L 698.03 909.95 L 699.50 909.89 L 700.97 908.93 L 702.44 909.56 L 703.92 909.24 L 705.39 909.83 L 706.86 909.86 L 708.33 909.91 L 709.81 909.97 L 711.28 908.99 L 712.75 904.88 L 714.22 907.47 L 715.69 901.40 L 717.17 903.69 L 718.64 901.20 L 720.11 907.63 L 721.58 908.25 L 723.06 906.55 L 724.53 904.18 L 726.00 907.80 L 727.47 908.11 L 728.94 899.74 L 730.42 900.48 L 731.89 907.76 L 733.36 890.76 L 734.83 904.24 L 736.31 890.36 L 737.78 879.92 L 739.25 883.39 L 740.72 882.11 L 742.19 883.90 L 743.67 873.53 L 745.14 864.63 L 746.61 865.89 L 748.08 860.98 L 749.56 852.38 L 751.03 867.13 L 752.50 874.00 L 753.97 890.97 L 755.44 886.84 L 756.92 894.48 L 758.39 896.19 L 759.86 893.66 L 761.33 898.94 L 762.81 904.16 L 764.28 902.29 L 765.75 895.16 L 767.22 891.68 L 768.69 900.39 L 770.17 884.87 L 771.64 905.85 L 773.11 905.85 L 774.58 906.77 L 776.06 897.27 L 777.53 908.44 L 779.00 890.54 L 780.47 903.91 L 781.94 896.66 L 783.42 903.86 L 784.89 896.16 L 786.36 901.62 L 787.83 899.45 L 789.31 900.89 L 790.78 894.92 L 792.25 895.11 L 793.72 898.35 L 795.19 900.25 L 796.67 906.03 L 798.14 895.08 L 799.61 894.29 L 801.08 893.10 L 802.56 892.78 L 804.03 895.00 L 805.50 891.72 L 806.97 897.08 L 808.44 906.52 L 809.92 885.21 L 811.39 892.32 L 812.86 895.41 L 814.33 890.66 L 815.81 891.54 L 817.28 899.57 L 818.75 894.84 L 820.22 893.69 L 821.69 883.39 L 823.17 884.99 L 824.64 889.78 L 826.11 889.25 L 827.58 902.22 L 829.06 898.61 L 830.53 898.43 L 832.00 884.93 L 833.47 879.29 L 834.94 895.36 L 836.42 898.17 L 837.89 903.35 L 839.36 899.31 L 840.83 899.91 L 842.31 900.93 L 843.78 902.70 L 845.25 900.27 L 846.72 905.55 L 848.19 897.96 L 849.67 901.83 L 851.14 902.27 L 852.61 895.39 L 854.08 900.33 L 855.56 899.06 L 857.03 903.13 L 858.50 897.16 L 859.97 899.18 L 861.44 901.71 L 862.92 899.71 L 864.39 890.58 L 865.86 891.83 L 867.33 891.92 L 868.81 905.41 L 870.28 905.75 L 871.75 907.39 L 873.22 907.98 L 874.69 906.00 L 876.17 903.96 L 877.64 904.43 L 879.11 903.78 L 880.58 904.92 L 882.06 904.26 L 883.53 899.32 L 885.00 902.74 L 886.47 894.68 L 887.94 896.40 L 889.42 896.21 L 890.89 887.19 L 892.36 884.42 L 893.83 884.07 L 895.31 884.51 L 896.78 884.96 L 898.25 877.51 L 899.72 884.11 L 901.19 883.04 L 902.67 886.55 L 904.14 884.45 L 905.61 886.04 L 907.08 890.77 L 908.56 899.83 L 910.03 900.07 L 911.50 897.64 L 912.97 898.58 L 914.44 899.94 L 915.92 897.44 L 917.39 901.31 L 918.86 905.87 L 920.33 906.58 L 921.81 906.94 L 923.28 901.92 L 924.75 896.97 L 926.22 897.35 L 927.69 899.87 L 929.17 900.61 L 930.64 899.74 L 932.11 900.93 L 933.58 902.01 L 935.06 900.98 L 936.53 901.51 L 938.00 902.31 L 939.47 904.12 L 940.94 907.63 L 942.42 907.37 L 943.89 907.59 L 945.36 907.21 L 946.83 907.21 L 948.31 907.24 L 949.78 906.55 L 951.25 906.87 L 952.72 907.88 L 954.19 905.57 L 955.67 900.32 L 957.14 903.94 L 958.61 907.47 L 960.08 905.16 L 961.56 901.06 L 963.03 902.60 L 964.50 905.25 L 965.97 905.96 L 967.44 907.95 L 968.92 906.61 L 970.39 904.58 L 971.86 909.14 L 973.33 908.68 L 974.81 905.23 L 976.28 906.09 L 977.75 898.04 L 979.22 897.72 L 980.69 900.57 L 982.17 900.24 L 983.64 900.96 L 985.11 902.60 L 986.58 900.43 L 988.06 901.04 L 989.53 903.87 L 991.00 905.16" stroke="#E53935" />
<text x="620.00" y="952" font-size="15" text-anchor="middle">minutos (relativo ao início do evento)</text>
<text class="small" x="90.00" y="936" text-anchor="middle">-4.00</text>
<text class="small" x="266.67" y="936" text-anchor="middle">-2.00</text>
<text class="small" x="443.33" y="936" text-anchor="middle">0.00</text>
<text class="small" x="620.00" y="936" text-anchor="middle">2.00</text>
<text class="small" x="796.67" y="936" text-anchor="middle">4.00</text>
<text class="small" x="973.33" y="936" text-anchor="middle">6.00</text>
<text class="small" x="1150.00" y="936" text-anchor="middle">8.00</text>
</svg>