<?xml version="1.0" encoding="UTF-8"?>
<svg xmlns="http://www.w3.org/2000/svg" width="1180" height="980" viewBox="0 0 1180 980">
<style>
text { font-family: -apple-system, BlinkMacSystemFont, 'Segoe UI', Roboto, Helvetica, Arial, sans-serif; fill: #111; }
.small { font-size: 12px; fill: #222; }
.title { font-size: 18px; font-weight: 700; }
.axis { stroke: #111; stroke-width: 1.4; }
.grid { stroke: #E6E6E6; stroke-width: 1; }
.event { fill: #FFEB3B; fill-opacity: 0.18; }
.eventline { stroke: #F9A825; stroke-width: 1.2; stroke-dasharray: 4 3; }
.series { fill: none; stroke-width: 1.8; }
</style>
<text class="title" x="90" y="34">ciclo 10 — espera_basculamento — 2025-12-12T22:06:38-03:00 → 2025-12-12T22:09:14-03:00 (span 156s, dur 157s)</text>
<text class="small" x="90" y="54">GPS: -11.692077,-47.164234  hotspot: -11.692,-47.164</text>
<text class="small" x="90" y="70">Janela: -3.00 → 5.60 min (relativo ao início do evento)</text>
<text x="90" y="79.00" font-size="14" font-weight="700">Velocidade (km/h)</text>
<rect class="event" x="443.33" y="85.00" width="229.67" height="192.75" />
<line class="eventline" x1="443.33" y1="85.00" x2="443.33" y2="277.75" />
<line class="eventline" x1="673.00" y1="85.00" x2="673.00" y2="277.75" />
<line class="grid" x1="90" y1="277.75" x2="1150" y2="277.75" />
<text class="small" x="80" y="281.75" text-anchor="end">0.00</text>
<line class="grid" x1="90" y1="239.20" x2="1150" y2="239.20" />
<text class="small" x="80" y="243.20" text-anchor="end">10.0</text>
<line class="grid" x1="90" y1="200.65" x2="1150" y2="200.65" />
<text class="small" x="80" y="204.65" text-anchor="end">20.0</text>
<line class="grid" x1="90" y1="162.10" x2="1150" y2="162.10" />
<text class="small" x="80" y="166.10" text-anchor="end">30.0</text>
<line class="grid" x1="90" y1="123.55" x2="1150" y2="123.55" />
<text class="small" x="80" y="127.55" text-anchor="end">40.0</text>
<line class="grid" x1="90" y1="85.00" x2="1150" y2="85.00" />
<text class="small" x="80" y="89.00" text-anchor="end">50.0</text>
<line class="grid" x1="90.00" y1="85.00" x2="90.00" y2="277.75" />
<line class="grid" x1="266.67" y1="85.00" x2="266.67" y2="277.75" />
<line class="grid" x1="443.33" y1="85.00" x2="443.33" y2="277.75" />
<line class="grid" x1="620.00" y1="85.00" x2="620.00" y2="277.75" />
<line class="grid" x1="796.67" y1="85.00" x2="796.67" y2="277.75" />
<line class="grid" x1="973.33" y1="85.00" x2="973.33" y2="277.75" />
<line class="grid" x1="1150.00" y1="85.00" x2="1150.00" y2="277.75" />
<line class="axis" x1="90" y1="85.00" x2="90" y2="277.75" />
<line class="axis" x1="90" y1="277.75" x2="1150" y2="277.75" />
<path class="series" d="M 178.33 277.75 L 179.81 277.75 L 181.28 277.75 L 182.75 277.75 L 184.22 277.75 L 185.69 277.75 L 187.17 277.75 L 188.64 277.75 L 190.11 277.75 L 191.58 277.75 L 193.06 277.75 L 194.53 277.75 L 196.00 277.75 L 197.47 277.75 L 198.94 277.75 L 200.42 277.75 L 201.89 277.75 L 203.36 277.75 L 204.83 277.75 L 206.31 277.75 L 207.78 277.75 L 209.25 277.75 L 210.72 277.75 L 212.19 277.75 L 213.67 277.75 L 215.14 277.75 L 216.61 277.75 L 218.08 277.75 L 219.56 277.75 L 221.03 277.75 L 222.50 277.75 L 223.97 269.15 L 225.44 261.65 L 226.92 252.49 L 228.39 248.88 L 229.86 249.02 L 231.33 246.11 L 232.81 248.05 L 234.28 245.69 L 235.75 245.97 L 237.22 243.89 L 238.69 246.39 L 240.17 244.44 L 241.64 244.30 L 243.11 243.89 L 244.58 240.97 L 246.06 241.67 L 247.53 240.97 L 249.00 238.48 L 250.47 234.03 L 251.94 241.11 L 253.42 240.97 L 254.89 239.17 L 256.36 241.81 L 257.83 239.03 L 259.31 238.89 L 260.78 239.03 L 262.25 238.20 L 263.72 239.03 L 265.19 238.75 L 266.67 239.59 L 268.14 240.97 L 269.61 241.53 L 271.08 242.78 L 272.56 240.00 L 274.03 242.08 L 275.50 244.17 L 276.97 245.41 L 278.44 247.22 L 279.92 253.46 L 281.39 260.68 L 282.86 270.12 L 284.33 277.75 L 285.81 277.75 L 287.28 277.75 L 288.75 277.75 L 290.22 271.50 L 291.69 267.90 L 293.17 261.10 L 294.64 263.32 L 296.11 259.85 L 297.58 261.65 L 299.06 264.70 L 300.53 268.87 L 302.00 269.15 L 303.47 269.98 L 304.94 262.76 L 306.42 266.93 L 307.89 270.39 L 309.36 271.50 L 310.83 269.01 L 312.31 269.70 L 313.78 266.93 L 315.25 271.37 L 316.72 267.20 L 318.19 265.26 L 319.67 272.06 L 321.14 271.92 L 322.61 270.12 L 324.08 277.75 L 325.56 277.75 L 327.03 277.75 L 328.50 277.75 L 329.97 277.75 L 331.44 277.75 L 332.92 277.75 L 334.39 277.75 L 335.86 277.75 L 337.33 277.75 L 338.81 277.75 L 340.28 277.75 L 341.75 277.75 L 343.22 277.75 L 344.69 277.75 L 346.17 277.75 L 347.64 277.75 L 349.11 277.75 L 350.58 277.75 L 352.06 277.75 L 353.53 277.75 L 355.00 277.75 L 356.47 277.75 L 357.94 277.75 L 359.42 277.75 L 360.89 277.75 L 362.36 277.75 L 363.83 277.75 L 365.31 277.75 L 366.78 277.75 L 368.25 277.75 L 369.72 277.75 L 371.19 277.75 L 372.67 277.75 L 374.14 277.75 L 375.61 277.75 L 377.08 277.75 L 378.56 277.75 L 380.03 277.75 L 381.50 277.75 L 382.97 277.75 L 384.44 277.75 L 385.92 277.75 L 387.39 277.75 L 388.86 277.75 L 390.33 277.75 L 391.81 277.75 L 393.28 277.75 L 394.75 277.75 L 396.22 277.75 L 397.69 274.00 L 399.17 264.57 L 400.64 269.98 L 402.11 270.53 L 403.58 272.34 L 405.06 274.84 L 406.53 277.75 L 408.00 277.75 L 409.47 271.92 L 410.94 262.35 L 412.42 273.45 L 413.89 277.75 L 415.36 277.75 L 416.83 277.75 L 418.31 277.75 L 419.78 277.75 L 421.25 277.75 L 422.72 277.75 L 424.19 277.75 L 425.67 277.75 L 427.14 277.75 L 428.61 277.75 L 430.08 262.76 L 431.56 272.89 L 433.03 277.75 L 434.50 277.75 L 435.97 277.75 L 437.44 266.93 L 438.92 267.20 L 440.39 269.42 L 441.86 268.59 L 443.33 277.75 L 444.81 277.75 L 446.28 277.75 L 447.75 277.75 L 449.22 277.75 L 450.69 277.75 L 452.17 277.75 L 453.64 277.75 L 455.11 277.75 L 456.58 277.75 L 458.06 277.75 L 459.53 277.75 L 461.00 277.75 L 462.47 277.75 L 463.94 277.75 L 465.42 277.75 L 466.89 277.75 L 468.36 277.75 L 469.83 277.75 L 471.31 277.75 L 472.78 277.75 L 474.25 277.75 L 475.72 277.75 L 477.19 277.75 L 478.67 277.75 L 480.14 277.75 L 481.61 277.75 L 483.08 277.75 L 484.56 277.75 L 486.03 277.75 L 487.50 277.75 L 488.97 277.75 L 490.44 277.75 L 491.92 277.75 L 493.39 277.75 L 494.86 277.75 L 496.33 277.75 L 497.81 277.75 L 499.28 277.75 L 500.75 277.75 L 502.22 277.75 L 503.69 277.75 L 505.17 277.75 L 506.64 277.75 L 508.11 277.75 L 509.58 277.75 L 511.06 277.75 L 512.53 277.75 L 514.00 277.75 L 515.47 277.75 L 516.94 277.75 L 518.42 277.75 L 519.89 277.75 L 521.36 277.75 L 522.83 277.75 L 524.31 277.75 L 525.78 277.75 L 527.25 277.75 L 528.72 277.75 L 530.19 277.75 L 531.67 277.75 L 533.14 277.75 L 534.61 277.75 L 536.08 277.75 L 537.56 277.75 L 539.03 277.75 L 540.50 277.75 L 541.97 277.75 L 543.44 277.75 L 544.92 277.75 L 546.39 277.75 L 547.86 277.75 L 549.33 277.75 L 550.81 277.75 L 552.28 277.75 L 553.75 277.75 L 555.22 277.75 L 556.69 277.75 L 558.17 277.75 L 559.64 277.75 L 561.11 277.75 L 562.58 277.75 L 564.06 277.75 L 565.53 277.75 L 567.00 277.75 L 568.47 277.75 L 569.94 277.75 L 571.42 277.75 L 572.89 277.75 L 574.36 277.75 L 575.83 277.75 L 577.31 277.75 L 578.78 277.75 L 580.25 277.75 L 581.72 277.75 L 583.19 277.75 L 584.67 277.75 L 586.14 277.75 L 587.61 277.75 L 589.08 277.75 L 590.56 277.75 L 592.03 277.75 L 593.50 277.75 L 594.97 277.75 L 596.44 277.75 L 597.92 277.75 L 599.39 277.75 L 600.86 277.75 L 602.33 277.75 L 603.81 277.75 L 605.28 277.75 L 606.75 277.75 L 608.22 277.75 L 609.69 277.75 L 611.17 277.75 L 612.64 277.75 L 614.11 277.75 L 615.58 277.75 L 617.06 277.75 L 618.53 277.75 L 620.00 277.75 L 621.47 277.75 L 622.94 277.75 L 624.42 277.75 L 625.89 277.75 L 627.36 277.75 L 628.83 277.75 L 630.31 277.75 L 631.78 277.75 L 633.25 277.75 L 634.72 277.75 L 636.19 277.75 L 637.67 277.75 L 639.14 277.75 L 640.61 277.75 L 642.08 277.75 L 643.56 277.75 L 645.03 277.75 L 646.50 277.75 L 647.97 277.75 L 649.44 277.75 L 650.92 277.75 L 652.39 277.75 L 653.86 277.75 L 655.33 277.75 L 656.81 277.75 L 658.28 277.75 L 659.75 277.75 L 661.22 277.75 L 662.69 277.75 L 664.17 277.75 L 665.64 277.75 L 667.11 277.75 L 668.58 277.75 L 670.06 277.75 L 671.53 277.75 L 673.00 277.75 L 674.47 266.23 L 675.94 259.71 L 677.42 256.79 L 678.89 254.85 L 680.36 245.00 L 681.83 246.39 L 683.31 244.44 L 684.78 243.33 L 686.25 241.39 L 687.72 242.78 L 689.19 242.22 L 690.67 241.39 L 692.14 238.89 L 693.61 236.12 L 695.08 228.76 L 696.56 232.23 L 698.03 225.15 L 699.50 220.57 L 700.97 220.30 L 702.44 216.69 L 703.92 215.99 L 705.39 219.46 L 706.86 219.60 L 708.33 221.54 L 709.81 221.41 L 711.28 226.82 L 712.75 222.79 L 714.22 220.99 L 715.69 221.96 L 717.17 215.16 L 718.64 212.80 L 720.11 213.91 L 721.58 214.19 L 723.06 208.92 L 724.53 202.81 L 726.00 195.31 L 727.47 202.11 L 728.94 199.62 L 730.42 196.56 L 731.89 203.92 L 733.36 205.31 L 734.83 205.17 L 736.31 208.08 L 737.78 208.92 L 739.25 219.05 L 740.72 215.16 L 742.19 212.80 L 743.67 210.86 L 745.14 209.47 L 746.61 213.22 L 748.08 209.05 L 749.56 211.27 L 751.03 216.41 L 752.50 213.77 L 753.97 212.66 L 755.44 209.89 L 756.92 207.80 L 758.39 206.56 L 759.86 206.14 L 761.33 210.30 L 762.81 205.58 L 764.28 202.53 L 765.75 203.92 L 767.22 202.39 L 768.69 204.06 L 770.17 201.56 L 771.64 200.45 L 773.11 201.28 L 774.58 203.64 L 776.06 200.59 L 777.53 196.70 L 779.00 198.09 L 780.47 200.73 L 781.94 194.90 L 783.42 202.95 L 784.89 204.06 L 786.36 204.20 L 787.83 200.17 L 789.31 199.06 L 790.78 192.82 L 792.25 186.57 L 793.72 186.57 L 795.19 181.99 L 796.67 177.55 L 798.14 176.44 L 799.61 176.86 L 801.08 180.60 L 802.56 180.74 L 804.03 178.66 L 805.50 180.33 L 806.97 180.19 L 808.44 180.47 L 809.92 181.30 L 811.39 183.38 L 812.86 193.51 L 814.33 198.09 L 815.81 206.97 L 817.28 207.53 L 818.75 201.14 L 820.22 195.45 L 821.69 187.40 L 823.17 182.82 L 824.64 178.94 L 826.11 172.28 L 827.58 169.09 L 829.06 168.25 L 830.53 168.25 L 832.00 166.86 L 833.47 166.73 L 834.94 167.84 L 836.42 166.03 L 837.89 164.37 L 839.36 168.81 L 840.83 168.53 L 842.31 171.44 L 843.78 171.31 L 845.25 168.81 L 846.72 172.42 L 848.19 170.89 L 849.67 171.03 L 851.14 170.61 L 852.61 172.00 L 854.08 170.33 L 855.56 171.58 L 857.03 171.58 L 858.50 177.00 L 859.97 175.75 L 861.44 172.14 L 862.92 173.94 L 864.39 173.39 L 865.86 172.14 L 867.33 171.44 L 868.81 169.78 L 870.28 170.47 L 871.75 170.20 L 873.22 170.06 L 874.69 168.39 L 876.17 170.61 L 877.64 171.72 L 879.11 172.55 L 880.58 172.14 L 882.06 172.83 L 883.53 172.42 L 885.00 173.53 L 886.47 169.92 L 887.94 168.81 L 889.42 168.67 L 890.89 168.39 L 892.36 169.36 L 893.83 169.50 L 895.31 172.14 L 896.78 169.50 L 898.25 172.42 L 899.72 176.16 L 901.19 176.30 L 902.67 177.83 L 904.14 175.89 L 905.61 177.97 L 907.08 176.72 L 908.56 175.47 L 910.03 174.50 L 911.50 173.80 L 912.97 174.22 L 914.44 170.06 L 915.92 167.84 L 917.39 166.45 L 918.86 165.34 L 920.33 165.06 L 921.81 164.78 L 923.28 163.12 L 924.75 162.01 L 926.22 165.75 L 927.69 171.31 L 929.17 181.85 L 930.64 185.46 L 932.11 182.13 L 933.58 187.27 L 935.06 186.02 L 936.53 189.07 L 938.00 191.29" stroke="#1976D2" />
<text x="90" y="289.75" font-size="14" font-weight="700">Inclinação (graus)</text>
<rect class="event" x="443.33" y="295.75" width="229.67" height="192.75" />
<line class="eventline" x1="443.33" y1="295.75" x2="443.33" y2="488.50" />
<line class="eventline" x1="673.00" y1="295.75" x2="673.00" y2="488.50" />
<line class="grid" x1="90" y1="488.50" x2="1150" y2="488.50" />
<text class="small" x="80" y="492.50" text-anchor="end">-20.0</text>
<line class="grid" x1="90" y1="449.95" x2="1150" y2="449.95" />
<text class="small" x="80" y="453.95" text-anchor="end">-10.0</text>
<line class="grid" x1="90" y1="411.40" x2="1150" y2="411.40" />
<text class="small" x="80" y="415.40" text-anchor="end">0.00</text>
<line class="grid" x1="90" y1="372.85" x2="1150" y2="372.85" />
<text class="small" x="80" y="376.85" text-anchor="end">10.0</text>
<line class="grid" x1="90" y1="334.30" x2="1150" y2="334.30" />
<text class="small" x="80" y="338.30" text-anchor="end">20.0</text>
<line class="grid" x1="90" y1="295.75" x2="1150" y2="295.75" />
<text class="small" x="80" y="299.75" text-anchor="end">30.0</text>
<line class="grid" x1="90.00" y1="295.75" x2="90.00" y2="488.50" />
<line class="grid" x1="266.67" y1="295.75" x2="266.67" y2="488.50" />
<line class="grid" x1="443.33" y1="295.75" x2="443.33" y2="488.50" />
<line class="grid" x1="620.00" y1="295.75" x2="620.00" y2="488.50" />
<line class="grid" x1="796.67" y1="295.75" x2="796.67" y2="488.50" />
<line class="grid" x1="973.33" y1="295.75" x2="973.33" y2="488.50" />
<line class="grid" x1="1150.00" y1="295.75" x2="1150.00" y2="488.50" />
<line class="axis" x1="90" y1="295.75" x2="90" y2="488.50" />
<line class="axis" x1="90" y1="488.50" x2="1150" y2="488.50" />
<path class="series" d="M 178.33 365.22 L 179.81 365.21 L 181.28 365.28 L 182.75 365.22 L 184.22 365.25 L 185.69 365.20 L 187.17 365.24 L 188.64 365.26 L 190.11 365.20 L 191.58 365.24 L 193.06 365.23 L 194.53 365.24 L 196.00 365.24 L 197.47 365.21 L 198.94 365.24 L 200.42 365.21 L 201.89 365.25 L 203.36 365.17 L 204.83 365.16 L 206.31 365.27 L 207.78 365.18 L 209.25 365.21 L 210.72 365.21 L 212.19 365.19 L 213.67 365.21 L 215.14 365.20 L 216.61 365.16 L 218.08 365.18 L 219.56 365.21 L 221.03 366.02 L 222.50 376.11 L 223.97 378.31 L 225.44 375.09 L 226.92 372.50 L 228.39 364.90 L 229.86 353.99 L 231.33 350.53 L 232.81 359.59 L 234.28 358.10 L 235.75 355.39 L 237.22 360.84 L 238.69 357.73 L 240.17 357.24 L 241.64 357.88 L 243.11 360.07 L 244.58 358.71 L 246.06 363.19 L 247.53 359.84 L 249.00 359.24 L 250.47 353.35 L 251.94 360.01 L 253.42 365.07 L 254.89 364.61 L 256.36 367.59 L 257.83 365.49 L 259.31 363.94 L 260.78 361.24 L 262.25 358.85 L 263.72 360.59 L 265.19 362.47 L 266.67 359.80 L 268.14 360.55 L 269.61 362.91 L 271.08 361.85 L 272.56 357.42 L 274.03 358.10 L 275.50 359.52 L 276.97 353.20 L 278.44 353.21 L 279.92 347.88 L 281.39 345.08 L 282.86 345.23 L 284.33 362.59 L 285.81 362.98 L 287.28 355.70 L 288.75 356.23 L 290.22 356.95 L 291.69 355.69 L 293.17 362.69 L 294.64 357.56 L 296.11 361.94 L 297.58 363.55 L 299.06 367.78 L 300.53 363.94 L 302.00 359.32 L 303.47 350.20 L 304.94 371.29 L 306.42 370.46 L 307.89 365.04 L 309.36 360.23 L 310.83 364.87 L 312.31 365.40 L 313.78 372.15 L 315.25 361.08 L 316.72 368.33 L 318.19 375.31 L 319.67 367.06 L 321.14 364.31 L 322.61 370.41 L 324.08 377.26 L 325.56 368.24 L 327.03 367.48 L 328.50 367.81 L 329.97 367.30 L 331.44 367.48 L 332.92 367.68 L 334.39 367.68 L 335.86 366.97 L 337.33 367.07 L 338.81 367.17 L 340.28 366.78 L 341.75 366.85 L 343.22 366.72 L 344.69 366.65 L 346.17 366.87 L 347.64 366.98 L 349.11 366.97 L 350.58 367.04 L 352.06 367.21 L 353.53 367.17 L 355.00 366.60 L 356.47 366.57 L 357.94 366.61 L 359.42 366.61 L 360.89 366.64 L 362.36 366.61 L 363.83 367.59 L 365.31 366.83 L 366.78 366.32 L 368.25 367.04 L 369.72 367.39 L 371.19 367.40 L 372.67 367.49 L 374.14 367.04 L 375.61 367.77 L 377.08 367.03 L 378.56 367.51 L 380.03 367.40 L 381.50 369.33 L 382.97 370.09 L 384.44 367.66 L 385.92 365.91 L 387.39 370.32 L 388.86 370.54 L 390.33 372.07 L 391.81 371.40 L 393.28 370.95 L 394.75 378.05 L 396.22 365.47 L 397.69 386.34 L 399.17 393.26 L 400.64 349.06 L 402.11 374.84 L 403.58 368.39 L 405.06 364.38 L 406.53 367.01 L 408.00 370.35 L 409.47 388.96 L 410.94 363.42 L 412.42 351.59 L 413.89 370.02 L 415.36 365.64 L 416.83 366.26 L 418.31 366.44 L 419.78 365.87 L 421.25 365.98 L 422.72 365.81 L 424.19 365.68 L 425.67 365.71 L 427.14 365.30 L 428.61 384.55 L 430.08 356.40 L 431.56 351.06 L 433.03 362.06 L 434.50 361.96 L 435.97 364.85 L 437.44 382.72 L 438.92 357.04 L 440.39 362.09 L 441.86 357.39 L 443.33 351.97 L 444.81 362.22 L 446.28 361.65 L 447.75 362.39 L 449.22 361.75 L 450.69 362.22 L 452.17 362.16 L 453.64 362.20 L 455.11 362.18 L 456.58 362.13 L 458.06 362.13 L 459.53 362.16 L 461.00 362.17 L 462.47 362.13 L 463.94 362.11 L 465.42 362.11 L 466.89 362.10 L 468.36 362.11 L 469.83 362.10 L 471.31 362.11 L 472.78 362.10 L 474.25 362.12 L 475.72 362.11 L 477.19 362.14 L 478.67 362.22 L 480.14 362.14 L 481.61 362.17 L 483.08 362.14 L 484.56 362.16 L 486.03 362.13 L 487.50 362.16 L 488.97 362.22 L 490.44 362.21 L 491.92 362.26 L 493.39 362.17 L 494.86 362.17 L 496.33 362.16 L 497.81 362.14 L 499.28 362.16 L 500.75 362.12 L 502.22 362.12 L 503.69 362.16 L 505.17 362.15 L 506.64 362.19 L 508.11 362.19 L 509.58 362.17 L 511.06 362.19 L 512.53 362.11 L 514.00 362.21 L 515.47 362.16 L 516.94 362.24 L 518.42 362.08 L 519.89 362.06 L 521.36 362.07 L 522.83 362.04 L 524.31 362.08 L 525.78 362.06 L 527.25 362.17 L 528.72 362.16 L 530.19 362.13 L 531.67 362.14 L 533.14 362.10 L 534.61 362.18 L 536.08 362.19 L 537.56 362.13 L 539.03 362.13 L 540.50 362.22 L 541.97 362.15 L 543.44 362.10 L 544.92 362.17 L 546.39 362.16 L 547.86 362.16 L 549.33 362.09 L 550.81 362.14 L 552.28 362.16 L 553.75 362.09 L 555.22 362.17 L 556.69 362.16 L 558.17 362.10 L 559.64 362.16 L 561.11 362.06 L 562.58 362.06 L 564.06 362.04 L 565.53 362.21 L 567.00 362.11 L 568.47 362.07 L 569.94 362.11 L 571.42 362.15 L 572.89 362.12 L 574.36 362.05 L 575.83 362.11 L 577.31 362.09 L 578.78 362.06 L 580.25 362.05 L 581.72 361.97 L 583.19 362.09 L 584.67 362.07 L 586.14 362.07 L 587.61 362.09 L 589.08 362.03 L 590.56 362.15 L 592.03 362.02 L 593.50 362.11 L 594.97 362.15 L 596.44 362.10 L 597.92 362.20 L 599.39 362.10 L 600.86 362.10 L 602.33 362.09 L 603.81 362.17 L 605.28 362.16 L 606.75 362.02 L 608.22 362.15 L 609.69 362.16 L 611.17 362.08 L 612.64 362.15 L 614.11 362.17 L 615.58 362.24 L 617.06 362.27 L 618.53 362.27 L 620.00 362.26 L 621.47 362.26 L 622.94 362.35 L 624.42 362.13 L 625.89 362.24 L 627.36 362.13 L 628.83 362.21 L 630.31 362.16 L 631.78 362.12 L 633.25 362.16 L 634.72 362.16 L 636.19 364.25 L 637.67 365.07 L 639.14 355.85 L 640.61 366.34 L 642.08 372.27 L 643.56 356.31 L 645.03 353.49 L 646.50 360.61 L 647.97 361.41 L 649.44 361.32 L 650.92 361.32 L 652.39 361.33 L 653.86 361.37 L 655.33 361.36 L 656.81 361.34 L 658.28 361.30 L 659.75 361.34 L 661.22 361.31 L 662.69 361.27 L 664.17 361.33 L 665.64 361.35 L 667.11 361.30 L 668.58 361.18 L 670.06 361.54 L 671.53 361.36 L 673.00 373.74 L 674.47 375.20 L 675.94 371.49 L 677.42 374.24 L 678.89 363.16 L 680.36 366.16 L 681.83 362.54 L 683.31 363.66 L 684.78 363.50 L 686.25 361.60 L 687.72 362.80 L 689.19 368.86 L 690.67 364.81 L 692.14 363.11 L 693.61 373.38 L 695.08 367.86 L 696.56 379.36 L 698.03 383.07 L 699.50 377.58 L 700.97 372.67 L 702.44 370.83 L 703.92 367.90 L 705.39 360.26 L 706.86 368.51 L 708.33 370.69 L 709.81 371.32 L 711.28 364.92 L 712.75 382.94 L 714.22 371.31 L 715.69 369.56 L 717.17 368.68 L 718.64 365.53 L 720.11 369.43 L 721.58 377.03 L 723.06 380.09 L 724.53 385.09 L 726.00 367.87 L 727.47 363.72 L 728.94 377.33 L 730.42 367.33 L 731.89 369.03 L 733.36 370.27 L 734.83 367.69 L 736.31 366.19 L 737.78 360.03 L 739.25 362.87 L 740.72 367.51 L 742.19 367.04 L 743.67 364.23 L 745.14 364.82 L 746.61 374.52 L 748.08 369.11 L 749.56 364.34 L 751.03 367.33 L 752.50 371.65 L 753.97 372.12 L 755.44 364.69 L 756.92 371.21 L 758.39 367.23 L 759.86 362.08 L 761.33 366.89 L 762.81 360.99 L 764.28 364.95 L 765.75 357.11 L 767.22 367.98 L 768.69 360.56 L 770.17 367.41 L 771.64 381.81 L 773.11 364.09 L 774.58 379.96 L 776.06 373.06 L 777.53 370.36 L 779.00 363.65 L 780.47 361.96 L 781.94 361.52 L 783.42 354.50 L 784.89 354.21 L 786.36 352.57 L 787.83 353.41 L 789.31 347.27 L 790.78 347.39 L 792.25 353.63 L 793.72 355.52 L 795.19 355.10 L 796.67 352.64 L 798.14 360.11 L 799.61 356.40 L 801.08 363.85 L 802.56 366.53 L 804.03 357.14 L 805.50 362.50 L 806.97 359.20 L 808.44 360.18 L 809.92 361.00 L 811.39 359.50 L 812.86 360.47 L 814.33 364.77 L 815.81 357.59 L 817.28 367.76 L 818.75 365.88 L 820.22 367.16 L 821.69 363.16 L 823.17 355.23 L 824.64 354.70 L 826.11 351.86 L 827.58 346.26 L 829.06 347.27 L 830.53 346.57 L 832.00 345.35 L 833.47 343.12 L 834.94 340.86 L 836.42 345.29 L 837.89 343.83 L 839.36 344.44 L 840.83 345.98 L 842.31 342.23 L 843.78 343.52 L 845.25 342.52 L 846.72 346.41 L 848.19 344.02 L 849.67 344.55 L 851.14 342.74 L 852.61 344.16 L 854.08 342.98 L 855.56 341.99 L 857.03 344.40 L 858.50 340.95 L 859.97 343.12 L 861.44 344.58 L 862.92 343.97 L 864.39 343.47 L 865.86 342.75 L 867.33 345.11 L 868.81 344.20 L 870.28 344.61 L 871.75 344.23 L 873.22 344.05 L 874.69 343.89 L 876.17 344.36 L 877.64 343.33 L 879.11 345.03 L 880.58 345.43 L 882.06 345.25 L 883.53 344.64 L 885.00 343.25 L 886.47 342.31 L 887.94 344.70 L 889.42 344.56 L 890.89 344.64 L 892.36 344.43 L 893.83 344.25 L 895.31 343.65 L 896.78 344.07 L 898.25 344.07 L 899.72 344.28 L 901.19 344.48 L 902.67 344.43 L 904.14 344.60 L 905.61 345.11 L 907.08 343.97 L 908.56 344.08 L 910.03 343.70 L 911.50 344.02 L 912.97 344.11 L 914.44 342.59 L 915.92 343.08 L 917.39 343.13 L 918.86 344.02 L 920.33 343.25 L 921.81 342.60 L 923.28 343.08 L 924.75 342.68 L 926.22 345.69 L 927.69 342.89 L 929.17 345.31 L 930.64 340.48 L 932.11 343.46 L 933.58 348.92 L 935.06 353.82 L 936.53 358.37 L 938.00 355.96" stroke="#2E7D32" />
<path class="series" d="M 178.33 397.32 L 179.81 397.31 L 181.28 397.29 L 182.75 397.25 L 184.22 397.30 L 185.69 397.35 L 187.17 397.28 L 188.64 397.31 L 190.11 397.33 L 191.58 397.26 L 193.06 397.33 L 194.53 397.29 L 196.00 397.28 L 197.47 397.28 L 198.94 397.19 L 200.42 397.29 L 201.89 397.31 L 203.36 397.18 L 204.83 397.28 L 206.31 397.23 L 207.78 397.27 L 209.25 397.23 L 210.72 397.27 L 212.19 397.27 L 213.67 397.19 L 215.14 397.27 L 216.61 397.21 L 218.08 397.24 L 219.56 397.24 L 221.03 398.01 L 222.50 400.21 L 223.97 406.99 L 225.44 403.35 L 226.92 407.81 L 228.39 412.08 L 229.86 420.17 L 231.33 400.18 L 232.81 425.36 L 234.28 401.15 L 235.75 397.48 L 237.22 402.65 L 238.69 395.90 L 240.17 396.43 L 241.64 394.56 L 243.11 397.63 L 244.58 398.21 L 246.06 398.49 L 247.53 392.65 L 249.00 389.88 L 250.47 389.80 L 251.94 392.19 L 253.42 401.42 L 254.89 406.37 L 256.36 416.13 L 257.83 404.40 L 259.31 407.50 L 260.78 405.93 L 262.25 403.16 L 263.72 406.19 L 265.19 403.65 L 266.67 404.54 L 268.14 409.53 L 269.61 424.04 L 271.08 426.44 L 272.56 427.89 L 274.03 412.79 L 275.50 418.77 L 276.97 415.28 L 278.44 405.48 L 279.92 403.11 L 281.39 405.75 L 282.86 408.07 L 284.33 412.15 L 285.81 409.69 L 287.28 410.00 L 288.75 411.63 L 290.22 413.47 L 291.69 419.71 L 293.17 406.93 L 294.64 410.24 L 296.11 402.85 L 297.58 402.03 L 299.06 408.02 L 300.53 410.24 L 302.00 411.02 L 303.47 403.76 L 304.94 413.94 L 306.42 411.47 L 307.89 412.30 L 309.36 410.00 L 310.83 409.29 L 312.31 406.42 L 313.78 415.64 L 315.25 404.77 L 316.72 410.37 L 318.19 418.93 L 319.67 409.44 L 321.14 409.67 L 322.61 412.79 L 324.08 413.27 L 325.56 411.45 L 327.03 410.83 L 328.50 411.61 L 329.97 411.08 L 331.44 411.03 L 332.92 411.01 L 334.39 411.01 L 335.86 411.05 L 337.33 410.62 L 338.81 411.13 L 340.28 410.93 L 341.75 410.77 L 343.22 410.61 L 344.69 410.84 L 346.17 410.54 L 347.64 410.97 L 349.11 410.80 L 350.58 410.89 L 352.06 410.93 L 353.53 410.69 L 355.00 411.20 L 356.47 410.57 L 357.94 411.21 L 359.42 410.90 L 360.89 410.84 L 362.36 410.90 L 363.83 411.12 L 365.31 411.23 L 366.78 410.87 L 368.25 410.94 L 369.72 411.35 L 371.19 411.06 L 372.67 411.48 L 374.14 410.89 L 375.61 411.33 L 377.08 411.62 L 378.56 411.24 L 380.03 411.42 L 381.50 411.22 L 382.97 411.25 L 384.44 411.58 L 385.92 411.16 L 387.39 411.45 L 388.86 411.34 L 390.33 411.98 L 391.81 411.37 L 393.28 412.23 L 394.75 412.63 L 396.22 410.34 L 397.69 412.21 L 399.17 411.17 L 400.64 409.19 L 402.11 412.18 L 403.58 413.94 L 405.06 412.59 L 406.53 413.25 L 408.00 413.26 L 409.47 413.81 L 410.94 413.60 L 412.42 410.39 L 413.89 413.00 L 415.36 411.62 L 416.83 412.56 L 418.31 412.50 L 419.78 412.00 L 421.25 412.09 L 422.72 412.41 L 424.19 412.09 L 425.67 412.15 L 427.14 412.32 L 428.61 412.81 L 430.08 415.21 L 431.56 408.53 L 433.03 413.48 L 434.50 413.15 L 435.97 410.92 L 437.44 417.98 L 438.92 415.90 L 440.39 414.62 L 441.86 412.97 L 443.33 412.55 L 444.81 413.40 L 446.28 413.65 L 447.75 413.96 L 449.22 413.38 L 450.69 414.06 L 452.17 413.58 L 453.64 413.97 L 455.11 413.72 L 456.58 413.76 L 458.06 413.84 L 459.53 413.74 L 461.00 413.83 L 462.47 413.82 L 463.94 413.81 L 465.42 413.79 L 466.89 413.80 L 468.36 413.79 L 469.83 413.80 L 471.31 413.78 L 472.78 413.76 L 474.25 413.80 L 475.72 413.79 L 477.19 413.83 L 478.67 413.75 L 480.14 413.77 L 481.61 413.85 L 483.08 413.81 L 484.56 413.76 L 486.03 413.76 L 487.50 413.77 L 488.97 413.76 L 490.44 413.70 L 491.92 413.84 L 493.39 413.73 L 494.86 413.82 L 496.33 413.76 L 497.81 413.81 L 499.28 413.81 L 500.75 413.78 L 502.22 413.77 L 503.69 413.75 L 505.17 413.82 L 506.64 413.78 L 508.11 413.75 L 509.58 413.79 L 511.06 413.80 L 512.53 413.81 L 514.00 413.81 L 515.47 413.72 L 516.94 413.84 L 518.42 413.81 L 519.89 413.72 L 521.36 413.85 L 522.83 413.75 L 524.31 413.90 L 525.78 413.81 L 527.25 413.84 L 528.72 413.81 L 530.19 413.78 L 531.67 413.83 L 533.14 413.74 L 534.61 413.81 L 536.08 413.81 L 537.56 413.79 L 539.03 413.82 L 540.50 413.79 L 541.97 413.84 L 543.44 413.84 L 544.92 413.82 L 546.39 413.80 L 547.86 413.82 L 549.33 413.87 L 550.81 413.89 L 552.28 413.80 L 553.75 413.83 L 555.22 413.89 L 556.69 413.82 L 558.17 413.90 L 559.64 413.87 L 561.11 413.83 L 562.58 413.88 L 564.06 413.86 L 565.53 413.82 L 567.00 413.86 L 568.47 413.88 L 569.94 413.84 L 571.42 413.86 L 572.89 413.84 L 574.36 413.86 L 575.83 413.87 L 577.31 413.89 L 578.78 413.80 L 580.25 413.84 L 581.72 413.88 L 583.19 413.89 L 584.67 413.88 L 586.14 413.88 L 587.61 413.85 L 589.08 413.91 L 590.56 413.85 L 592.03 413.87 L 593.50 413.90 L 594.97 413.86 L 596.44 413.83 L 597.92 413.89 L 599.39 413.88 L 600.86 413.92 L 602.33 413.86 L 603.81 413.90 L 605.28 413.82 L 606.75 413.93 L 608.22 413.86 L 609.69 413.90 L 611.17 413.92 L 612.64 413.86 L 614.11 413.82 L 615.58 413.90 L 617.06 413.86 L 618.53 413.75 L 620.00 413.97 L 621.47 413.97 L 622.94 413.74 L 624.42 413.69 L 625.89 413.97 L 627.36 413.84 L 628.83 413.84 L 630.31 413.79 L 631.78 413.74 L 633.25 413.83 L 634.72 413.80 L 636.19 413.83 L 637.67 415.19 L 639.14 412.80 L 640.61 411.84 L 642.08 416.19 L 643.56 411.43 L 645.03 413.80 L 646.50 412.77 L 647.97 413.61 L 649.44 412.76 L 650.92 413.50 L 652.39 413.29 L 653.86 413.18 L 655.33 413.45 L 656.81 413.26 L 658.28 413.30 L 659.75 413.37 L 661.22 413.29 L 662.69 413.33 L 664.17 413.36 L 665.64 413.31 L 667.11 413.32 L 668.58 413.34 L 670.06 413.38 L 671.53 413.29 L 673.00 416.10 L 674.47 416.31 L 675.94 418.12 L 677.42 419.93 L 678.89 416.67 L 680.36 422.38 L 681.83 420.40 L 683.31 422.15 L 684.78 424.37 L 686.25 423.69 L 687.72 430.32 L 689.19 425.34 L 690.67 426.09 L 692.14 427.82 L 693.61 426.56 L 695.08 418.96 L 696.56 421.57 L 698.03 422.72 L 699.50 422.12 L 700.97 409.59 L 702.44 400.44 L 703.92 394.64 L 705.39 394.50 L 706.86 411.59 L 708.33 429.02 L 709.81 431.33 L 711.28 423.81 L 712.75 434.31 L 714.22 427.60 L 715.69 432.94 L 717.17 436.96 L 718.64 424.23 L 720.11 406.71 L 721.58 404.34 L 723.06 406.13 L 724.53 416.31 L 726.00 421.41 L 727.47 419.76 L 728.94 412.17 L 730.42 422.87 L 731.89 426.08 L 733.36 416.35 L 734.83 419.26 L 736.31 415.61 L 737.78 426.50 L 739.25 416.99 L 740.72 408.55 L 742.19 412.32 L 743.67 409.60 L 745.14 413.55 L 746.61 409.18 L 748.08 399.19 L 749.56 408.54 L 751.03 408.37 L 752.50 405.71 L 753.97 400.14 L 755.44 401.24 L 756.92 409.68 L 758.39 408.24 L 759.86 406.20 L 761.33 410.61 L 762.81 410.33 L 764.28 421.29 L 765.75 420.80 L 767.22 404.50 L 768.69 426.41 L 770.17 406.63 L 771.64 414.82 L 773.11 407.41 L 774.58 416.86 L 776.06 409.04 L 777.53 414.59 L 779.00 411.05 L 780.47 395.04 L 781.94 394.27 L 783.42 397.37 L 784.89 399.47 L 786.36 408.09 L 787.83 387.24 L 789.31 384.55 L 790.78 389.95 L 792.25 409.71 L 793.72 406.42 L 795.19 407.05 L 796.67 403.63 L 798.14 392.49 L 799.61 384.33 L 801.08 402.70 L 802.56 407.43 L 804.03 412.61 L 805.50 406.39 L 806.97 416.91 L 808.44 407.34 L 809.92 401.73 L 811.39 400.63 L 812.86 419.26 L 814.33 415.65 L 815.81 405.68 L 817.28 403.19 L 818.75 403.50 L 820.22 397.84 L 821.69 398.90 L 823.17 408.77 L 824.64 412.31 L 826.11 401.14 L 827.58 400.98 L 829.06 409.44 L 830.53 407.67 L 832.00 402.55 L 833.47 420.51 L 834.94 408.30 L 836.42 422.51 L 837.89 418.83 L 839.36 408.49 L 840.83 404.37 L 842.31 405.81 L 843.78 399.20 L 845.25 405.96 L 846.72 407.87 L 848.19 411.57 L 849.67 412.79 L 851.14 417.55 L 852.61 418.77 L 854.08 409.83 L 855.56 418.40 L 857.03 436.90 L 858.50 412.87 L 859.97 412.35 L 861.44 417.21 L 862.92 410.42 L 864.39 391.30 L 865.86 411.77 L 867.33 411.43 L 868.81 409.20 L 870.28 415.37 L 871.75 406.43 L 873.22 405.30 L 874.69 406.85 L 876.17 412.01 L 877.64 415.46 L 879.11 416.67 L 880.58 417.72 L 882.06 418.14 L 883.53 414.20 L 885.00 416.05 L 886.47 416.96 L 887.94 414.01 L 889.42 415.36 L 890.89 406.11 L 892.36 414.02 L 893.83 410.93 L 895.31 409.52 L 896.78 409.86 L 898.25 409.86 L 899.72 403.24 L 901.19 404.75 L 902.67 401.79 L 904.14 406.69 L 905.61 402.63 L 907.08 405.27 L 908.56 405.30 L 910.03 404.64 L 911.50 410.32 L 912.97 411.40 L 914.44 405.35 L 915.92 408.55 L 917.39 409.70 L 918.86 409.66 L 920.33 410.62 L 921.81 413.12 L 923.28 421.64 L 924.75 426.38 L 926.22 442.17 L 927.69 452.02 L 929.17 437.89 L 930.64 439.70 L 932.11 443.14 L 933.58 445.28 L 935.06 417.93 L 936.53 385.37 L 938.00 384.72" stroke="#6A1B9A" />
<line x1="900.00" y1="307.75" x2="918.00" y2="307.75" stroke="#2E7D32" stroke-width="3" />
<text class="small" x="924.00" y="311.75">pitch</text>
<line x1="900.00" y1="323.75" x2="918.00" y2="323.75" stroke="#6A1B9A" stroke-width="3" />
<text class="small" x="924.00" y="327.75">roll</text>
<text x="90" y="500.50" font-size="14" font-weight="700">Aceleração (magnitude) (u.a.)</text>
<rect class="event" x="443.33" y="506.50" width="229.67" height="192.75" />
<line class="eventline" x1="443.33" y1="506.50" x2="443.33" y2="699.25" />
<line class="eventline" x1="673.00" y1="506.50" x2="673.00" y2="699.25" />
<line class="grid" x1="90" y1="699.25" x2="1150" y2="699.25" />
<text class="small" x="80" y="703.25" text-anchor="end">0.00</text>
<line class="grid" x1="90" y1="660.70" x2="1150" y2="660.70" />
<text class="small" x="80" y="664.70" text-anchor="end">0.50</text>
<line class="grid" x1="90" y1="622.15" x2="1150" y2="622.15" />
<text class="small" x="80" y="626.15" text-anchor="end">1.00</text>
<line class="grid" x1="90" y1="583.60" x2="1150" y2="583.60" />
<text class="small" x="80" y="587.60" text-anchor="end">1.50</text>
<line class="grid" x1="90" y1="545.05" x2="1150" y2="545.05" />
<text class="small" x="80" y="549.05" text-anchor="end">2.00</text>
<line class="grid" x1="90" y1="506.50" x2="1150" y2="506.50" />
<text class="small" x="80" y="510.50" text-anchor="end">2.50</text>
<line class="grid" x1="90.00" y1="506.50" x2="90.00" y2="699.25" />
<line class="grid" x1="266.67" y1="506.50" x2="266.67" y2="699.25" />
<line class="grid" x1="443.33" y1="506.50" x2="443.33" y2="699.25" />
<line class="grid" x1="620.00" y1="506.50" x2="620.00" y2="699.25" />
<line class="grid" x1="796.67" y1="506.50" x2="796.67" y2="699.25" />
<line class="grid" x1="973.33" y1="506.50" x2="973.33" y2="699.25" />
<line class="grid" x1="1150.00" y1="506.50" x2="1150.00" y2="699.25" />
<line class="axis" x1="90" y1="506.50" x2="90" y2="699.25" />
<line class="axis" x1="90" y1="699.25" x2="1150" y2="699.25" />
<path class="series" d="M 178.33 699.05 L 179.81 698.90 L 181.28 698.96 L 182.75 699.17 L 184.22 698.99 L 185.69 699.14 L 187.17 699.01 L 188.64 699.11 L 190.11 699.17 L 191.58 699.00 L 193.06 699.00 L 194.53 698.92 L 196.00 699.08 L 197.47 699.08 L 198.94 699.21 L 200.42 699.05 L 201.89 699.06 L 203.36 699.03 L 204.83 698.85 L 206.31 698.72 L 207.78 698.95 L 209.25 699.03 L 210.72 698.90 L 212.19 699.15 L 213.67 699.10 L 215.14 699.16 L 216.61 698.96 L 218.08 699.03 L 219.56 699.12 L 221.03 689.11 L 222.50 683.18 L 223.97 684.88 L 225.44 687.57 L 226.92 671.88 L 228.39 673.98 L 229.86 649.76 L 231.33 675.13 L 232.81 681.89 L 234.28 670.95 L 235.75 656.44 L 237.22 656.44 L 238.69 664.04 L 240.17 665.09 L 241.64 673.41 L 243.11 669.63 L 244.58 670.80 L 246.06 671.81 L 247.53 674.44 L 249.00 655.03 L 250.47 632.03 L 251.94 663.46 L 253.42 673.82 L 254.89 646.19 L 256.36 675.33 L 257.83 669.03 L 259.31 692.18 L 260.78 688.15 L 262.25 679.11 L 263.72 686.88 L 265.19 681.26 L 266.67 685.71 L 268.14 685.81 L 269.61 666.41 L 271.08 659.77 L 272.56 652.71 L 274.03 668.45 L 275.50 683.65 L 276.97 675.36 L 278.44 632.60 L 279.92 658.43 L 281.39 664.37 L 282.86 658.98 L 284.33 665.61 L 285.81 674.60 L 287.28 689.99 L 288.75 693.40 L 290.22 693.43 L 291.69 692.14 L 293.17 691.85 L 294.64 680.10 L 296.11 685.93 L 297.58 677.85 L 299.06 692.85 L 300.53 693.25 L 302.00 688.92 L 303.47 654.10 L 304.94 679.03 L 306.42 682.77 L 307.89 693.06 L 309.36 674.09 L 310.83 693.89 L 312.31 691.80 L 313.78 690.16 L 315.25 676.04 L 316.72 681.73 L 318.19 675.80 L 319.67 676.49 L 321.14 691.43 L 322.61 695.21 L 324.08 680.45 L 325.56 689.33 L 327.03 693.91 L 328.50 697.73 L 329.97 698.44 L 331.44 692.83 L 332.92 690.85 L 334.39 694.92 L 335.86 698.32 L 337.33 698.38 L 338.81 698.33 L 340.28 696.86 L 341.75 698.08 L 343.22 697.32 L 344.69 697.25 L 346.17 696.66 L 347.64 696.61 L 349.11 696.06 L 350.58 696.18 L 352.06 694.40 L 353.53 695.77 L 355.00 696.22 L 356.47 695.36 L 357.94 695.10 L 359.42 696.30 L 360.89 695.61 L 362.36 695.78 L 363.83 691.40 L 365.31 693.74 L 366.78 695.87 L 368.25 697.47 L 369.72 698.14 L 371.19 697.23 L 372.67 698.05 L 374.14 698.95 L 375.61 695.97 L 377.08 696.34 L 378.56 698.49 L 380.03 691.26 L 381.50 689.53 L 382.97 696.55 L 384.44 696.05 L 385.92 693.75 L 387.39 696.10 L 388.86 697.29 L 390.33 695.57 L 391.81 690.07 L 393.28 690.81 L 394.75 683.11 L 396.22 686.65 L 397.69 641.42 L 399.17 617.35 L 400.64 679.96 L 402.11 688.89 L 403.58 683.33 L 405.06 683.33 L 406.53 696.95 L 408.00 690.92 L 409.47 661.53 L 410.94 680.98 L 412.42 630.09 L 413.89 689.77 L 415.36 695.92 L 416.83 696.95 L 418.31 693.77 L 419.78 698.12 L 421.25 697.35 L 422.72 698.43 L 424.19 698.32 L 425.67 698.00 L 427.14 696.32 L 428.61 655.04 L 430.08 675.19 L 431.56 656.27 L 433.03 684.79 L 434.50 693.70 L 435.97 691.31 L 437.44 627.98 L 438.92 666.92 L 440.39 690.06 L 441.86 689.07 L 443.33 691.75 L 444.81 685.59 L 446.28 695.39 L 447.75 695.93 L 449.22 697.83 L 450.69 698.39 L 452.17 698.46 L 453.64 698.47 L 455.11 698.37 L 456.58 698.63 L 458.06 698.57 L 459.53 698.36 L 461.00 698.74 L 462.47 698.67 L 463.94 698.82 L 465.42 699.13 L 466.89 699.04 L 468.36 699.14 L 469.83 698.99 L 471.31 698.93 L 472.78 699.02 L 474.25 699.16 L 475.72 699.20 L 477.19 698.95 L 478.67 699.11 L 480.14 699.06 L 481.61 699.14 L 483.08 699.21 L 484.56 699.14 L 486.03 699.08 L 487.50 699.04 L 488.97 699.06 L 490.44 699.07 L 491.92 699.03 L 493.39 699.04 L 494.86 699.11 L 496.33 699.11 L 497.81 699.22 L 499.28 699.11 L 500.75 699.13 L 502.22 699.03 L 503.69 699.01 L 505.17 699.15 L 506.64 699.14 L 508.11 699.17 L 509.58 699.04 L 511.06 699.05 L 512.53 699.07 L 514.00 699.11 L 515.47 699.05 L 516.94 699.10 L 518.42 699.01 L 519.89 698.72 L 521.36 698.80 L 522.83 698.97 L 524.31 699.06 L 525.78 698.99 L 527.25 698.91 L 528.72 699.02 L 530.19 699.11 L 531.67 698.92 L 533.14 699.08 L 534.61 698.95 L 536.08 699.16 L 537.56 699.05 L 539.03 698.78 L 540.50 698.93 L 541.97 699.20 L 543.44 698.96 L 544.92 699.18 L 546.39 699.15 L 547.86 699.03 L 549.33 698.79 L 550.81 699.13 L 552.28 699.07 L 553.75 699.13 L 555.22 699.04 L 556.69 699.12 L 558.17 699.06 L 559.64 699.14 L 561.11 699.00 L 562.58 699.02 L 564.06 698.90 L 565.53 699.06 L 567.00 699.05 L 568.47 699.15 L 569.94 699.10 L 571.42 699.00 L 572.89 699.00 L 574.36 698.92 L 575.83 699.09 L 577.31 699.09 L 578.78 699.13 L 580.25 699.02 L 581.72 699.09 L 583.19 699.15 L 584.67 699.05 L 586.14 699.15 L 587.61 699.09 L 589.08 699.07 L 590.56 699.13 L 592.03 699.08 L 593.50 699.07 L 594.97 699.00 L 596.44 699.15 L 597.92 699.02 L 599.39 698.98 L 600.86 698.90 L 602.33 699.05 L 603.81 699.04 L 605.28 698.89 L 606.75 698.91 L 608.22 699.02 L 609.69 699.14 L 611.17 699.09 L 612.64 698.96 L 614.11 699.00 L 615.58 698.93 L 617.06 699.02 L 618.53 698.92 L 620.00 698.98 L 621.47 698.94 L 622.94 694.95 L 624.42 697.98 L 625.89 698.95 L 627.36 698.97 L 628.83 699.00 L 630.31 699.02 L 631.78 699.08 L 633.25 698.77 L 634.72 697.90 L 636.19 693.41 L 637.67 694.56 L 639.14 692.33 L 640.61 648.42 L 642.08 691.17 L 643.56 669.18 L 645.03 671.27 L 646.50 682.20 L 647.97 696.84 L 649.44 697.81 L 650.92 698.95 L 652.39 698.69 L 653.86 698.67 L 655.33 699.10 L 656.81 699.03 L 658.28 699.02 L 659.75 699.02 L 661.22 699.17 L 662.69 699.12 L 664.17 698.90 L 665.64 698.89 L 667.11 698.99 L 668.58 698.06 L 670.06 697.81 L 671.53 691.08 L 673.00 675.26 L 674.47 674.03 L 675.94 685.50 L 677.42 689.08 L 678.89 671.68 L 680.36 678.96 L 681.83 679.70 L 683.31 676.75 L 684.78 663.46 L 686.25 677.33 L 687.72 683.08 L 689.19 665.73 L 690.67 674.06 L 692.14 674.60 L 693.61 682.10 L 695.08 681.86 L 696.56 679.52 L 698.03 689.45 L 699.50 667.53 L 700.97 656.89 L 702.44 653.49 L 703.92 659.38 L 705.39 669.11 L 706.86 662.36 L 708.33 643.25 L 709.81 653.27 L 711.28 671.55 L 712.75 670.77 L 714.22 677.87 L 715.69 653.01 L 717.17 661.39 L 718.64 644.67 L 720.11 636.98 L 721.58 668.47 L 723.06 674.02 L 724.53 681.08 L 726.00 651.10 L 727.47 690.19 L 728.94 679.43 L 730.42 672.80 L 731.89 682.58 L 733.36 685.86 L 734.83 689.73 L 736.31 655.36 L 737.78 655.36 L 739.25 651.02 L 740.72 668.96 L 742.19 681.80 L 743.67 682.14 L 745.14 642.81 L 746.61 673.49 L 748.08 632.00 L 749.56 657.79 L 751.03 669.64 L 752.50 671.42 L 753.97 656.70 L 755.44 681.93 L 756.92 668.91 L 758.39 681.68 L 759.86 686.78 L 761.33 677.94 L 762.81 675.21 L 764.28 664.78 L 765.75 664.88 L 767.22 682.56 L 768.69 666.25 L 770.17 670.82 L 771.64 633.54 L 773.11 619.79 L 774.58 654.33 L 776.06 668.92 L 777.53 675.58 L 779.00 671.45 L 780.47 628.45 L 781.94 635.90 L 783.42 668.95 L 784.89 641.67 L 786.36 688.49 L 787.83 667.27 L 789.31 640.77 L 790.78 664.79 L 792.25 653.17 L 793.72 659.53 L 795.19 679.69 L 796.67 648.84 L 798.14 662.74 L 799.61 620.41 L 801.08 668.75 L 802.56 672.41 L 804.03 672.12 L 805.50 669.61 L 806.97 679.85 L 808.44 672.94 L 809.92 657.55 L 811.39 657.37 L 812.86 654.58 L 814.33 661.51 L 815.81 672.60 L 817.28 664.62 L 818.75 667.45 L 820.22 659.31 L 821.69 675.83 L 823.17 686.62 L 824.64 682.43 L 826.11 676.26 L 827.58 679.04 L 829.06 676.47 L 830.53 681.20 L 832.00 666.96 L 833.47 676.12 L 834.94 671.33 L 836.42 639.94 L 837.89 683.75 L 839.36 668.92 L 840.83 654.91 L 842.31 679.20 L 843.78 678.99 L 845.25 686.23 L 846.72 687.53 L 848.19 688.94 L 849.67 689.35 L 851.14 677.09 L 852.61 689.15 L 854.08 677.29 L 855.56 683.58 L 857.03 654.59 L 858.50 683.70 L 859.97 663.43 L 861.44 680.88 L 862.92 678.65 L 864.39 640.59 L 865.86 686.14 L 867.33 692.39 L 868.81 691.56 L 870.28 672.35 L 871.75 680.36 L 873.22 686.97 L 874.69 680.08 L 876.17 686.71 L 877.64 694.53 L 879.11 687.57 L 880.58 689.20 L 882.06 691.03 L 883.53 678.74 L 885.00 685.26 L 886.47 676.77 L 887.94 692.95 L 889.42 681.64 L 890.89 687.77 L 892.36 689.00 L 893.83 679.79 L 895.31 670.45 L 896.78 672.19 L 898.25 664.99 L 899.72 679.70 L 901.19 679.70 L 902.67 676.01 L 904.14 683.95 L 905.61 685.16 L 907.08 687.03 L 908.56 685.70 L 910.03 686.95 L 911.50 683.30 L 912.97 686.06 L 914.44 689.90 L 915.92 684.12 L 917.39 692.54 L 918.86 694.30 L 920.33 694.46 L 921.81 688.76 L 923.28 665.03 L 924.75 649.31 L 926.22 626.51 L 927.69 619.25 L 929.17 635.46 L 930.64 631.04 L 932.11 659.15 L 933.58 657.66 L 935.06 605.81 L 936.53 567.01 L 938.00 595.40" stroke="#FB8C00" />
<text x="90" y="711.25" font-size="14" font-weight="700">Giroscópio (magnitude) (u.a.)</text>
<rect class="event" x="443.33" y="717.25" width="229.67" height="192.75" />
<line class="eventline" x1="443.33" y1="717.25" x2="443.33" y2="910.00" />
<line class="eventline" x1="673.00" y1="717.25" x2="673.00" y2="910.00" />
<line class="grid" x1="90" y1="910.00" x2="1150" y2="910.00" />
<text class="small" x="80" y="914.00" text-anchor="end">0.00</text>
<line class="grid" x1="90" y1="871.45" x2="1150" y2="871.45" />
<text class="small" x="80" y="875.45" text-anchor="end">0.05</text>
<line class="grid" x1="90" y1="832.90" x2="1150" y2="832.90" />
<text class="small" x="80" y="836.90" text-anchor="end">0.10</text>
<line class="grid" x1="90" y1="794.35" x2="1150" y2="794.35" />
<text class="small" x="80" y="798.35" text-anchor="end">0.15</text>
<line class="grid" x1="90" y1="755.80" x2="1150" y2="755.80" />
<text class="small" x="80" y="759.80" text-anchor="end">0.20</text>
<line class="grid" x1="90" y1="717.25" x2="1150" y2="717.25" />
<text class="small" x="80" y="721.25" text-anchor="end">0.25</text>
<line class="grid" x1="90.00" y1="717.25" x2="90.00" y2="910.00" />
<line class="grid" x1="266.67" y1="717.25" x2="266.67" y2="910.00" />
<line class="grid" x1="443.33" y1="717.25" x2="443.33" y2="910.00" />
<line class="grid" x1="620.00" y1="717.25" x2="620.00" y2="910.00" />
<line class="grid" x1="796.67" y1="717.25" x2="796.67" y2="910.00" />
<line class="grid" x1="973.33" y1="717.25" x2="973.33" y2="910.00" />
<line class="grid" x1="1150.00" y1="717.25" x2="1150.00" y2="910.00" />
<line class="axis" x1="90" y1="717.25" x2="90" y2="910.00" />
<line class="axis" x1="90" y1="910.00" x2="1150" y2="910.00" />
<path class="series" d="M 178.33 909.88 L 179.81 909.86 L 181.28 909.81 L 182.75 909.85 L 184.22 909.87 L 185.69 909.91 L 187.17 909.87 L 188.64 909.84 L 190.11 909.84 L 191.58 909.95 L 193.06 909.87 L 194.53 909.86 L 196.00 909.87 L 197.47 909.91 L 198.94 909.81 L 200.42 909.76 L 201.89 909.79 L 203.36 909.81 L 204.83 909.81 L 206.31 909.88 L 207.78 909.90 L 209.25 909.89 L 210.72 909.84 L 212.19 909.80 L 213.67 909.82 L 215.14 909.91 L 216.61 909.80 L 218.08 909.78 L 219.56 909.87 L 221.03 905.36 L 222.50 892.81 L 223.97 855.48 L 225.44 833.87 L 226.92 809.32 L 228.39 802.86 L 229.86 799.67 L 231.33 838.96 L 232.81 850.29 L 234.28 893.60 L 235.75 863.59 L 237.22 863.59 L 238.69 836.27 L 240.17 807.34 L 241.64 789.98 L 243.11 762.49 L 244.58 760.31 L 246.06 762.40 L 247.53 761.88 L 249.00 759.59 L 250.47 751.02 L 251.94 746.14 L 253.42 749.63 L 254.89 797.23 L 256.36 852.94 L 257.83 902.70 L 259.31 904.13 L 260.78 906.55 L 262.25 908.04 L 263.72 905.32 L 265.19 901.80 L 266.67 903.91 L 268.14 903.80 L 269.61 893.23 L 271.08 832.84 L 272.56 786.36 L 274.03 754.24 L 275.50 759.17 L 276.97 756.50 L 278.44 784.22 L 279.92 840.40 L 281.39 881.61 L 282.86 895.99 L 284.33 899.20 L 285.81 907.09 L 287.28 907.71 L 288.75 908.61 L 290.22 902.77 L 291.69 881.48 L 293.17 843.66 L 294.64 837.78 L 296.11 830.10 L 297.58 848.72 L 299.06 889.79 L 300.53 907.55 L 302.00 906.66 L 303.47 893.75 L 304.94 860.51 L 306.42 863.09 L 307.89 879.88 L 309.36 880.37 L 310.83 871.42 L 312.31 873.53 L 313.78 865.55 L 315.25 868.99 L 316.72 853.46 L 318.19 861.02 L 319.67 884.56 L 321.14 885.45 L 322.61 888.17 L 324.08 900.22 L 325.56 906.11 L 327.03 909.63 L 328.50 909.91 L 329.97 909.23 L 331.44 909.51 L 332.92 908.29 L 334.39 908.35 L 335.86 908.43 L 337.33 908.25 L 338.81 906.59 L 340.28 908.39 L 341.75 908.43 L 343.22 908.66 L 344.69 908.59 L 346.17 908.42 L 347.64 908.60 L 349.11 908.72 L 350.58 908.63 L 352.06 908.66 L 353.53 907.48 L 355.00 908.48 L 356.47 908.34 L 357.94 908.52 L 359.42 908.44 L 360.89 908.70 L 362.36 908.50 L 363.83 908.63 L 365.31 908.61 L 366.78 908.60 L 368.25 908.67 L 369.72 908.62 L 371.19 908.22 L 372.67 908.25 L 374.14 908.40 L 375.61 908.37 L 377.08 908.44 L 378.56 908.20 L 380.03 907.41 L 381.50 908.92 L 382.97 908.26 L 384.44 908.09 L 385.92 907.91 L 387.39 907.93 L 388.86 907.13 L 390.33 905.03 L 391.81 908.39 L 393.28 907.50 L 394.75 898.72 L 396.22 899.65 L 397.69 906.26 L 399.17 892.62 L 400.64 908.70 L 402.11 904.63 L 403.58 904.23 L 405.06 904.23 L 406.53 907.45 L 408.00 908.08 L 409.47 905.65 L 410.94 895.00 L 412.42 899.30 L 413.89 903.89 L 415.36 905.89 L 416.83 907.70 L 418.31 908.14 L 419.78 907.01 L 421.25 908.21 L 422.72 907.66 L 424.19 907.70 L 425.67 907.38 L 427.14 908.06 L 428.61 905.53 L 430.08 886.46 L 431.56 904.20 L 433.03 908.01 L 434.50 907.71 L 435.97 908.18 L 437.44 902.10 L 438.92 884.51 L 440.39 886.30 L 441.86 885.46 L 443.33 900.20 L 444.81 907.85 L 446.28 908.72 L 447.75 908.02 L 449.22 907.54 L 450.69 908.22 L 452.17 908.07 L 453.64 908.00 L 455.11 908.06 L 456.58 908.20 L 458.06 908.11 L 459.53 908.24 L 461.00 908.22 L 462.47 908.43 L 463.94 909.79 L 465.42 909.94 L 466.89 909.81 L 468.36 909.93 L 469.83 909.92 L 471.31 909.79 L 472.78 909.90 L 474.25 909.67 L 475.72 909.83 L 477.19 909.83 L 478.67 909.77 L 480.14 909.54 L 481.61 909.69 L 483.08 909.83 L 484.56 909.92 L 486.03 909.87 L 487.50 909.94 L 488.97 909.70 L 490.44 909.87 L 491.92 909.83 L 493.39 909.90 L 494.86 909.95 L 496.33 909.82 L 497.81 909.83 L 499.28 909.93 L 500.75 909.91 L 502.22 909.89 L 503.69 909.76 L 505.17 909.86 L 506.64 909.90 L 508.11 909.85 L 509.58 909.94 L 511.06 909.91 L 512.53 909.90 L 514.00 909.91 L 515.47 909.88 L 516.94 909.88 L 518.42 909.77 L 519.89 909.55 L 521.36 909.87 L 522.83 909.85 L 524.31 909.92 L 525.78 909.73 L 527.25 909.96 L 528.72 909.92 L 530.19 909.88 L 531.67 909.83 L 533.14 909.87 L 534.61 909.85 L 536.08 909.91 L 537.56 909.95 L 539.03 909.80 L 540.50 909.90 L 541.97 909.87 L 543.44 909.96 L 544.92 909.85 L 546.39 909.86 L 547.86 909.86 L 549.33 909.93 L 550.81 909.85 L 552.28 909.83 L 553.75 909.91 L 555.22 909.81 L 556.69 909.88 L 558.17 909.77 L 559.64 909.91 L 561.11 909.81 L 562.58 909.88 L 564.06 909.88 L 565.53 909.87 L 567.00 909.95 L 568.47 909.86 L 569.94 909.82 L 571.42 909.89 L 572.89 909.89 L 574.36 909.88 L 575.83 909.87 L 577.31 909.82 L 578.78 909.91 L 580.25 909.89 L 581.72 909.96 L 583.19 909.87 L 584.67 909.93 L 586.14 909.89 L 587.61 909.92 L 589.08 909.93 L 590.56 909.92 L 592.03 909.88 L 593.50 909.89 L 594.97 909.88 L 596.44 909.84 L 597.92 909.93 L 599.39 909.91 L 600.86 909.94 L 602.33 909.86 L 603.81 909.87 L 605.28 909.97 L 606.75 909.79 L 608.22 909.95 L 609.69 909.92 L 611.17 909.95 L 612.64 909.94 L 614.11 909.83 L 615.58 909.80 L 617.06 909.53 L 618.53 909.79 L 620.00 909.89 L 621.47 909.90 L 622.94 909.19 L 624.42 909.58 L 625.89 909.91 L 627.36 909.87 L 628.83 909.83 L 630.31 909.87 L 631.78 909.86 L 633.25 909.82 L 634.72 909.13 L 636.19 907.16 L 637.67 903.70 L 639.14 907.25 L 640.61 905.69 L 642.08 893.10 L 643.56 895.58 L 645.03 907.96 L 646.50 909.42 L 647.97 909.74 L 649.44 909.75 L 650.92 909.79 L 652.39 909.78 L 653.86 909.78 L 655.33 909.88 L 656.81 909.82 L 658.28 909.92 L 659.75 909.70 L 661.22 909.85 L 662.69 909.72 L 664.17 909.81 L 665.64 909.84 L 667.11 909.83 L 668.58 909.72 L 670.06 909.76 L 671.53 906.31 L 673.00 897.30 L 674.47 873.81 L 675.94 865.73 L 677.42 852.33 L 678.89 845.26 L 680.36 830.41 L 681.83 821.60 L 683.31 820.60 L 684.78 805.65 L 686.25 797.81 L 687.72 790.79 L 689.19 767.32 L 690.67 757.35 L 692.14 755.50 L 693.61 752.23 L 695.08 784.02 L 696.56 777.31 L 698.03 806.12 L 699.50 820.03 L 700.97 866.35 L 702.44 898.54 L 703.92 865.08 L 705.39 867.96 L 706.86 878.78 L 708.33 861.39 L 709.81 826.18 L 711.28 820.87 L 712.75 794.61 L 714.22 784.93 L 715.69 766.26 L 717.17 759.43 L 718.64 800.42 L 720.11 884.75 L 721.58 894.68 L 723.06 885.87 L 724.53 878.73 L 726.00 887.09 L 727.47 889.62 L 728.94 878.87 L 730.42 882.47 L 731.89 880.68 L 733.36 883.64 L 734.83 882.99 L 736.31 874.97 L 737.78 874.97 L 739.25 854.54 L 740.72 851.10 L 742.19 856.78 L 743.67 835.42 L 745.14 893.08 L 746.61 877.86 L 748.08 847.07 L 749.56 876.58 L 751.03 879.48 L 752.50 864.26 L 753.97 857.93 L 755.44 865.01 L 756.92 882.57 L 758.39 893.65 L 759.86 898.52 L 761.33 907.05 L 762.81 893.82 L 764.28 863.58 L 765.75 855.67 L 767.22 886.13 L 768.69 885.05 L 770.17 856.37 L 771.64 886.24 L 773.11 888.58 L 774.58 892.60 L 776.06 889.34 L 777.53 900.31 L 779.00 899.43 L 780.47 879.57 L 781.94 846.91 L 783.42 831.76 L 784.89 820.01 L 786.36 816.95 L 787.83 798.96 L 789.31 769.32 L 790.78 760.37 L 792.25 792.42 L 793.72 879.88 L 795.19 888.19 L 796.67 870.88 L 798.14 824.46 L 799.61 805.39 L 801.08 809.04 L 802.56 847.85 L 804.03 867.21 L 805.50 860.82 L 806.97 885.96 L 808.44 873.95 L 809.92 869.28 L 811.39 866.17 L 812.86 877.93 L 814.33 894.21 L 815.81 870.97 L 817.28 870.31 L 818.75 895.76 L 820.22 883.74 L 821.69 877.08 L 823.17 870.72 L 824.64 880.79 L 826.11 873.45 L 827.58 859.77 L 829.06 884.95 L 830.53 893.51 L 832.00 891.55 L 833.47 897.31 L 834.94 874.41 L 836.42 860.34 L 837.89 874.50 L 839.36 886.57 L 840.83 880.98 L 842.31 873.69 L 843.78 871.49 L 845.25 889.54 L 846.72 893.11 L 848.19 897.89 L 849.67 900.68 L 851.14 890.18 L 852.61 882.14 L 854.08 886.20 L 855.56 893.75 L 857.03 870.13 L 858.50 857.48 L 859.97 892.91 L 861.44 898.72 L 862.92 891.63 L 864.39 869.31 L 865.86 890.42 L 867.33 898.49 L 868.81 893.04 L 870.28 897.14 L 871.75 893.09 L 873.22 909.39 L 874.69 893.61 L 876.17 900.21 L 877.64 900.41 L 879.11 889.08 L 880.58 903.79 L 882.06 902.64 L 883.53 894.37 L 885.00 898.44 L 886.47 890.38 L 887.94 896.11 L 889.42 888.05 L 890.89 890.43 L 892.36 882.63 L 893.83 890.30 L 895.31 896.12 L 896.78 897.15 L 898.25 874.18 L 899.72 874.12 L 901.19 874.12 L 902.67 872.23 L 904.14 884.81 L 905.61 896.71 L 907.08 896.73 L 908.56 903.15 L 910.03 901.65 L 911.50 897.72 L 912.97 902.15 L 914.44 891.32 L 915.92 896.06 L 917.39 898.24 L 918.86 899.24 L 920.33 893.83 L 921.81 895.01 L 923.28 870.16 L 924.75 839.95 L 926.22 795.39 L 927.69 774.34 L 929.17 775.35 L 930.64 733.05 L 932.11 732.34 L 933.58 734.11 L 935.06 785.33 L 936.53 877.05 L 938.00 847.16" stroke="#E53935" />
<text x="620.00" y="952" font-size="15" text-anchor="middle">minutos (relativo ao início do evento)</text>
<text class="small" x="90.00" y="936" text-anchor="middle">-4.00</text>
<text class="small" x="266.67" y="936" text-anchor="middle">-2.00</text>
<text class="small" x="443.33" y="936" text-anchor="middle">0.00</text>
<text class="small" x="620.00" y="936" text-anchor="middle">2.00</text>
<text class="small" x="796.67" y="936" text-anchor="middle">4.00</text>
<text class="small" x="973.33" y="936" text-anchor="middle">6.00</text>
<text class="small" x="1150.00" y="936" text-anchor="middle">8.00</text>
</svg>