<?xml version="1.0" encoding="UTF-8"?>
<svg xmlns="http://www.w3.org/2000/svg" width="1180" height="980" viewBox="0 0 1180 980">
<style>
text { font-family: -apple-system, BlinkMacSystemFont, 'Segoe UI', Roboto, Helvetica, Arial, sans-serif; fill: #111; }
.small { font-size: 12px; fill: #222; }
.title { font-size: 18px; font-weight: 700; }
.axis { stroke: #111; stroke-width: 1.4; }
.grid { stroke: #E6E6E6; stroke-width: 1; }
.event { fill: #FFEB3B; fill-opacity: 0.18; }
.eventline { stroke: #F9A825; stroke-width: 1.2; stroke-dasharray: 4 3; }
.series { fill: none; stroke-width: 1.8; }
</style>
<text class="title" x="90" y="34">ciclo 37 — basculamento — 2025-12-13T08:38:53-03:00 → 2025-12-13T08:39:46-03:00 (span 53s, dur 54s)</text>
<text class="small" x="90" y="54">GPS: -11.693458,-47.164057  hotspot: -11.693,-47.164</text>
<text class="small" x="90" y="70">Janela: -3.00 → 3.88 min (relativo ao início do evento)</text>
<text x="90" y="79.00" font-size="14" font-weight="700">Velocidade (km/h)</text>
<rect class="event" x="443.33" y="85.00" width="78.03" height="192.75" />
<line class="eventline" x1="443.33" y1="85.00" x2="443.33" y2="277.75" />
<line class="eventline" x1="521.36" y1="85.00" x2="521.36" y2="277.75" />
<line class="grid" x1="90" y1="277.75" x2="1150" y2="277.75" />
<text class="small" x="80" y="281.75" text-anchor="end">0.00</text>
<line class="grid" x1="90" y1="239.20" x2="1150" y2="239.20" />
<text class="small" x="80" y="243.20" text-anchor="end">10.0</text>
<line class="grid" x1="90" y1="200.65" x2="1150" y2="200.65" />
<text class="small" x="80" y="204.65" text-anchor="end">20.0</text>
<line class="grid" x1="90" y1="162.10" x2="1150" y2="162.10" />
<text class="small" x="80" y="166.10" text-anchor="end">30.0</text>
<line class="grid" x1="90" y1="123.55" x2="1150" y2="123.55" />
<text class="small" x="80" y="127.55" text-anchor="end">40.0</text>
<line class="grid" x1="90" y1="85.00" x2="1150" y2="85.00" />
<text class="small" x="80" y="89.00" text-anchor="end">50.0</text>
<line class="grid" x1="90.00" y1="85.00" x2="90.00" y2="277.75" />
<line class="grid" x1="266.67" y1="85.00" x2="266.67" y2="277.75" />
<line class="grid" x1="443.33" y1="85.00" x2="443.33" y2="277.75" />
<line class="grid" x1="620.00" y1="85.00" x2="620.00" y2="277.75" />
<line class="grid" x1="796.67" y1="85.00" x2="796.67" y2="277.75" />
<line class="grid" x1="973.33" y1="85.00" x2="973.33" y2="277.75" />
<line class="grid" x1="1150.00" y1="85.00" x2="1150.00" y2="277.75" />
<line class="axis" x1="90" y1="85.00" x2="90" y2="277.75" />
<line class="axis" x1="90" y1="277.75" x2="1150" y2="277.75" />
<path class="series" d="M 178.33 247.77 L 179.81 249.16 L 181.28 249.99 L 182.75 249.02 L 184.22 249.02 L 185.69 248.19 L 187.17 246.11 L 188.64 246.39 L 190.11 245.41 L 191.58 244.86 L 193.06 245.00 L 194.53 244.86 L 196.00 243.89 L 197.47 243.75 L 198.94 243.61 L 200.42 243.47 L 201.89 243.33 L 203.36 244.30 L 204.83 244.58 L 206.31 244.58 L 207.78 244.86 L 209.25 244.86 L 210.72 245.83 L 212.19 245.83 L 213.67 245.83 L 215.14 244.58 L 216.61 246.52 L 218.08 244.30 L 219.56 244.58 L 221.03 246.94 L 222.50 244.17 L 223.97 242.64 L 225.44 243.61 L 226.92 240.70 L 228.39 240.97 L 229.86 240.14 L 231.33 238.48 L 232.81 241.11 L 234.28 240.42 L 235.75 241.67 L 237.22 243.89 L 238.69 244.17 L 240.17 246.80 L 241.64 244.58 L 243.11 246.39 L 244.58 244.86 L 246.06 246.39 L 247.53 245.00 L 249.00 245.14 L 250.47 246.39 L 251.94 245.97 L 253.42 245.97 L 254.89 245.55 L 256.36 244.86 L 257.83 243.47 L 259.31 242.36 L 260.78 241.53 L 262.25 239.72 L 263.72 233.20 L 265.19 234.59 L 266.67 231.81 L 268.14 231.40 L 269.61 229.87 L 271.08 230.01 L 272.56 229.04 L 274.03 225.99 L 275.50 223.49 L 276.97 220.57 L 278.44 216.27 L 279.92 219.18 L 281.39 221.96 L 282.86 223.90 L 284.33 224.32 L 285.81 223.07 L 287.28 222.52 L 288.75 224.87 L 290.22 228.76 L 291.69 233.62 L 293.17 235.14 L 294.64 232.09 L 296.11 228.90 L 297.58 226.40 L 299.06 228.62 L 300.53 224.87 L 302.00 232.51 L 303.47 232.37 L 304.94 234.03 L 306.42 235.01 L 307.89 229.32 L 309.36 228.62 L 310.83 226.96 L 312.31 222.38 L 313.78 226.82 L 315.25 230.43 L 316.72 231.81 L 318.19 228.48 L 319.67 226.12 L 321.14 230.15 L 322.61 233.76 L 324.08 231.81 L 325.56 235.01 L 327.03 229.45 L 328.50 228.21 L 329.97 230.98 L 331.44 239.03 L 332.92 235.28 L 334.39 235.14 L 335.86 239.03 L 337.33 239.59 L 338.81 244.17 L 340.28 246.94 L 341.75 249.99 L 343.22 250.27 L 344.69 252.77 L 346.17 253.74 L 347.64 254.99 L 349.11 255.55 L 350.58 249.86 L 352.06 241.39 L 353.53 233.76 L 355.00 226.12 L 356.47 220.30 L 357.94 217.80 L 359.42 220.85 L 360.89 221.41 L 362.36 223.76 L 363.83 229.18 L 365.31 228.48 L 366.78 233.06 L 368.25 236.12 L 369.72 241.94 L 371.19 241.94 L 372.67 246.25 L 374.14 248.74 L 375.61 248.88 L 377.08 249.02 L 378.56 248.61 L 380.03 244.30 L 381.50 245.55 L 382.97 246.11 L 384.44 246.52 L 385.92 248.74 L 387.39 244.44 L 388.86 244.30 L 390.33 248.33 L 391.81 248.05 L 393.28 256.10 L 394.75 260.82 L 396.22 251.94 L 397.69 257.77 L 399.17 266.37 L 400.64 271.78 L 402.11 277.75 L 403.58 277.75 L 405.06 277.75 L 406.53 268.59 L 408.00 264.70 L 409.47 259.15 L 410.94 266.51 L 412.42 261.65 L 413.89 262.76 L 415.36 263.18 L 416.83 263.32 L 418.31 262.48 L 419.78 265.12 L 421.25 266.93 L 422.72 260.12 L 424.19 266.79 L 425.67 267.20 L 427.14 268.31 L 428.61 269.28 L 430.08 277.75 L 431.56 272.75 L 433.03 277.75 L 434.50 277.75 L 435.97 277.75 L 437.44 277.75 L 438.92 277.75 L 440.39 270.95 L 441.86 273.59 L 443.33 277.75 L 444.81 277.75 L 446.28 277.75 L 447.75 277.75 L 449.22 277.75 L 450.69 277.75 L 452.17 277.75 L 453.64 277.75 L 455.11 277.75 L 456.58 277.75 L 458.06 277.75 L 459.53 277.75 L 461.00 277.75 L 462.47 277.75 L 463.94 277.75 L 465.42 277.75 L 466.89 277.75 L 468.36 277.75 L 469.83 277.75 L 471.31 277.75 L 472.78 277.75 L 474.25 277.75 L 475.72 277.75 L 477.19 277.75 L 478.67 277.75 L 480.14 277.75 L 481.61 277.75 L 483.08 277.75 L 484.56 277.75 L 486.03 277.75 L 487.50 277.75 L 488.97 277.75 L 490.44 277.75 L 491.92 277.75 L 493.39 277.75 L 494.86 277.75 L 496.33 277.75 L 497.81 277.75 L 499.28 277.75 L 500.75 277.75 L 502.22 277.75 L 503.69 277.75 L 505.17 277.75 L 506.64 277.75 L 508.11 277.75 L 509.58 277.75 L 511.06 277.75 L 512.53 277.75 L 514.00 277.75 L 515.47 277.75 L 516.94 277.75 L 518.42 277.75 L 519.89 277.75 L 521.36 277.75 L 522.83 271.37 L 524.31 267.06 L 525.78 266.65 L 527.25 274.97 L 528.72 273.17 L 530.19 270.26 L 531.67 268.73 L 533.14 269.84 L 534.61 269.01 L 536.08 267.76 L 537.56 277.75 L 539.03 277.75 L 540.50 277.75 L 541.97 270.53 L 543.44 267.20 L 544.92 267.90 L 546.39 268.45 L 547.86 262.62 L 549.33 257.49 L 550.81 252.91 L 552.28 249.16 L 553.75 240.00 L 555.22 241.67 L 556.69 235.84 L 558.17 235.98 L 559.64 232.51 L 561.11 231.81 L 562.58 226.82 L 564.06 224.87 L 565.53 221.41 L 567.00 215.30 L 568.47 215.44 L 569.94 220.30 L 571.42 212.52 L 572.89 214.88 L 574.36 214.33 L 575.83 205.45 L 577.31 202.11 L 578.78 203.50 L 580.25 202.95 L 581.72 196.84 L 583.19 199.06 L 584.67 194.48 L 586.14 199.06 L 587.61 197.40 L 589.08 197.95 L 590.56 197.54 L 592.03 195.73 L 593.50 202.25 L 594.97 206.83 L 596.44 211.14 L 597.92 204.47 L 599.39 209.75 L 600.86 203.92 L 602.33 199.89 L 603.81 199.20 L 605.28 198.09 L 606.75 197.95 L 608.22 199.89 L 609.69 200.17 L 611.17 202.11 L 612.64 209.33 L 614.11 203.36 L 615.58 204.89 L 617.06 204.89 L 618.53 200.73 L 620.00 201.14 L 621.47 199.20 L 622.94 206.00 L 624.42 218.91 L 625.89 220.43 L 627.36 211.00 L 628.83 208.22 L 630.31 199.20 L 631.78 198.51 L 633.25 200.73 L 634.72 193.79 L 636.19 191.85 L 637.67 182.41 L 639.14 177.41 L 640.61 169.78 L 642.08 167.98 L 643.56 168.95 L 645.03 168.39 L 646.50 168.11 L 647.97 166.73 L 649.44 164.78 L 650.92 167.14 L 652.39 170.20 L 653.86 172.55 L 655.33 173.25 L 656.81 173.25 L 658.28 173.11 L 659.75 173.53 L 661.22 173.66 L 662.69 175.89 L 664.17 171.72 L 665.64 172.69 L 667.11 174.36 L 668.58 175.33 L 670.06 175.89 L 671.53 176.58 L 673.00 176.30 L 674.47 175.19 L 675.94 174.50 L 677.42 174.50 L 678.89 172.28 L 680.36 172.55 L 681.83 171.72 L 683.31 171.31 L 684.78 172.55 L 686.25 172.42 L 687.72 171.31 L 689.19 172.28 L 690.67 172.69 L 692.14 173.11 L 693.61 173.94 L 695.08 173.25 L 696.56 172.69 L 698.03 172.42 L 699.50 170.33 L 700.97 170.61 L 702.44 171.03 L 703.92 171.86 L 705.39 172.69 L 706.86 172.97 L 708.33 173.80 L 709.81 174.78 L 711.28 176.30 L 712.75 178.38 L 714.22 179.49 L 715.69 176.30 L 717.17 172.55 L 718.64 165.20 L 720.11 156.18 L 721.58 151.18 L 723.06 147.71 L 724.53 156.46 L 726.00 156.46 L 727.47 157.43 L 728.94 162.84 L 730.42 170.61 L 731.89 171.44 L 733.36 169.78 L 734.83 171.72 L 736.31 181.71 L 737.78 184.77 L 739.25 186.02 L 740.72 194.48 L 742.19 205.72 L 743.67 213.63 L 745.14 202.53 L 746.61 207.67 L 748.08 219.32 L 749.56 214.61 L 751.03 211.55 L 752.50 199.34 L 753.97 198.23 L 755.44 199.89 L 756.92 199.48 L 758.39 204.47 L 759.86 201.00 L 761.33 198.51 L 762.81 196.29 L 764.28 199.76 L 765.75 207.11 L 767.22 235.56 L 768.69 255.82 L 770.17 261.79 L 771.64 268.87 L 773.11 271.64 L 774.58 271.23 L 776.06 271.64 L 777.53 272.20 L 779.00 272.06 L 780.47 271.92 L 781.94 270.26 L 783.42 266.79 L 784.89 261.65 L 786.36 259.01" stroke="#1976D2" />
<text x="90" y="289.75" font-size="14" font-weight="700">Inclinação (graus)</text>
<rect class="event" x="443.33" y="295.75" width="78.03" height="192.75" />
<line class="eventline" x1="443.33" y1="295.75" x2="443.33" y2="488.50" />
<line class="eventline" x1="521.36" y1="295.75" x2="521.36" y2="488.50" />
<line class="grid" x1="90" y1="488.50" x2="1150" y2="488.50" />
<text class="small" x="80" y="492.50" text-anchor="end">-20.0</text>
<line class="grid" x1="90" y1="449.95" x2="1150" y2="449.95" />
<text class="small" x="80" y="453.95" text-anchor="end">-10.0</text>
<line class="grid" x1="90" y1="411.40" x2="1150" y2="411.40" />
<text class="small" x="80" y="415.40" text-anchor="end">0.00</text>
<line class="grid" x1="90" y1="372.85" x2="1150" y2="372.85" />
<text class="small" x="80" y="376.85" text-anchor="end">10.0</text>
<line class="grid" x1="90" y1="334.30" x2="1150" y2="334.30" />
<text class="small" x="80" y="338.30" text-anchor="end">20.0</text>
<line class="grid" x1="90" y1="295.75" x2="1150" y2="295.75" />
<text class="small" x="80" y="299.75" text-anchor="end">30.0</text>
<line class="grid" x1="90.00" y1="295.75" x2="90.00" y2="488.50" />
<line class="grid" x1="266.67" y1="295.75" x2="266.67" y2="488.50" />
<line class="grid" x1="443.33" y1="295.75" x2="443.33" y2="488.50" />
<line class="grid" x1="620.00" y1="295.75" x2="620.00" y2="488.50" />
<line class="grid" x1="796.67" y1="295.75" x2="796.67" y2="488.50" />
<line class="grid" x1="973.33" y1="295.75" x2="973.33" y2="488.50" />
<line class="grid" x1="1150.00" y1="295.75" x2="1150.00" y2="488.50" />
<line class="axis" x1="90" y1="295.75" x2="90" y2="488.50" />
<line class="axis" x1="90" y1="488.50" x2="1150" y2="488.50" />
<path class="series" d="M 178.33 397.31 L 179.81 396.56 L 181.28 396.10 L 182.75 396.07 L 184.22 395.89 L 185.69 393.69 L 187.17 393.14 L 188.64 393.31 L 190.11 392.64 L 191.58 391.55 L 193.06 391.05 L 194.53 391.30 L 196.00 391.05 L 197.47 388.36 L 198.94 387.63 L 200.42 388.32 L 201.89 388.71 L 203.36 390.40 L 204.83 391.15 L 206.31 392.55 L 207.78 393.03 L 209.25 393.72 L 210.72 392.71 L 212.19 393.50 L 213.67 391.23 L 215.14 392.62 L 216.61 391.08 L 218.08 392.66 L 219.56 389.30 L 221.03 382.07 L 222.50 388.05 L 223.97 390.77 L 225.44 387.51 L 226.92 385.61 L 228.39 382.57 L 229.86 376.88 L 231.33 375.28 L 232.81 372.24 L 234.28 367.22 L 235.75 374.49 L 237.22 374.05 L 238.69 375.48 L 240.17 380.54 L 241.64 387.09 L 243.11 388.01 L 244.58 389.51 L 246.06 389.01 L 247.53 388.95 L 249.00 388.19 L 250.47 391.09 L 251.94 391.64 L 253.42 392.07 L 254.89 391.12 L 256.36 389.93 L 257.83 386.85 L 259.31 382.48 L 260.78 377.26 L 262.25 379.56 L 263.72 377.70 L 265.19 373.43 L 266.67 378.46 L 268.14 378.44 L 269.61 382.41 L 271.08 379.65 L 272.56 381.97 L 274.03 379.81 L 275.50 378.19 L 276.97 377.03 L 278.44 373.81 L 279.92 365.45 L 281.39 362.44 L 282.86 371.03 L 284.33 371.14 L 285.81 369.47 L 287.28 368.66 L 288.75 371.46 L 290.22 367.18 L 291.69 365.12 L 293.17 377.02 L 294.64 378.14 L 296.11 374.07 L 297.58 367.70 L 299.06 369.45 L 300.53 367.60 L 302.00 370.47 L 303.47 369.84 L 304.94 372.51 L 306.42 370.88 L 307.89 379.53 L 309.36 373.38 L 310.83 371.07 L 312.31 367.98 L 313.78 367.36 L 315.25 361.87 L 316.72 373.30 L 318.19 374.90 L 319.67 363.77 L 321.14 358.11 L 322.61 368.89 L 324.08 361.13 L 325.56 364.75 L 327.03 361.31 L 328.50 358.61 L 329.97 354.34 L 331.44 359.16 L 332.92 364.36 L 334.39 357.55 L 335.86 364.93 L 337.33 362.89 L 338.81 362.24 L 340.28 358.93 L 341.75 361.29 L 343.22 362.61 L 344.69 364.58 L 346.17 367.39 L 347.64 366.38 L 349.11 371.33 L 350.58 379.55 L 352.06 380.49 L 353.53 375.30 L 355.00 374.63 L 356.47 370.66 L 357.94 366.82 L 359.42 361.43 L 360.89 366.44 L 362.36 354.64 L 363.83 360.67 L 365.31 364.46 L 366.78 363.37 L 368.25 359.56 L 369.72 362.71 L 371.19 367.81 L 372.67 364.31 L 374.14 368.03 L 375.61 368.74 L 377.08 363.59 L 378.56 373.30 L 380.03 362.52 L 381.50 364.32 L 382.97 364.64 L 384.44 367.43 L 385.92 369.75 L 387.39 363.82 L 388.86 360.06 L 390.33 358.74 L 391.81 357.63 L 393.28 369.90 L 394.75 377.12 L 396.22 367.64 L 397.69 357.54 L 399.17 362.83 L 400.64 360.17 L 402.11 370.06 L 403.58 363.94 L 405.06 366.92 L 406.53 363.18 L 408.00 367.64 L 409.47 383.16 L 410.94 367.69 L 412.42 371.50 L 413.89 373.06 L 415.36 368.88 L 416.83 365.27 L 418.31 373.76 L 419.78 367.44 L 421.25 359.21 L 422.72 373.52 L 424.19 370.20 L 425.67 369.80 L 427.14 373.13 L 428.61 379.89 L 430.08 365.17 L 431.56 364.50 L 433.03 376.53 L 434.50 373.30 L 435.97 367.59 L 437.44 370.36 L 438.92 366.68 L 440.39 376.80 L 441.86 371.40 L 443.33 368.55 L 444.81 368.88 L 446.28 374.35 L 447.75 370.54 L 449.22 376.14 L 450.69 378.05 L 452.17 369.93 L 453.64 371.40 L 455.11 372.03 L 456.58 371.71 L 458.06 371.68 L 459.53 371.33 L 461.00 370.97 L 462.47 370.93 L 463.94 371.05 L 465.42 371.13 L 466.89 371.13 L 468.36 371.27 L 469.83 371.32 L 471.31 370.61 L 472.78 371.12 L 474.25 371.02 L 475.72 370.95 L 477.19 371.40 L 478.67 370.89 L 480.14 371.05 L 481.61 371.91 L 483.08 370.30 L 484.56 371.54 L 486.03 371.49 L 487.50 371.57 L 488.97 371.59 L 490.44 371.34 L 491.92 371.89 L 493.39 371.94 L 494.86 371.93 L 496.33 372.65 L 497.81 371.93 L 499.28 372.65 L 500.75 373.39 L 502.22 373.35 L 503.69 373.77 L 505.17 374.55 L 506.64 375.00 L 508.11 374.95 L 509.58 375.26 L 511.06 374.79 L 512.53 375.46 L 514.00 375.50 L 515.47 375.49 L 516.94 375.57 L 518.42 375.72 L 519.89 375.72 L 521.36 383.32 L 522.83 386.35 L 524.31 382.12 L 525.78 368.71 L 527.25 368.81 L 528.72 383.06 L 530.19 381.43 L 531.67 376.10 L 533.14 369.71 L 534.61 376.80 L 536.08 368.60 L 537.56 361.93 L 539.03 373.14 L 540.50 383.39 L 541.97 376.27 L 543.44 376.79 L 544.92 363.88 L 546.39 371.30 L 547.86 375.17 L 549.33 372.17 L 550.81 379.83 L 552.28 381.44 L 553.75 372.53 L 555.22 378.84 L 556.69 375.11 L 558.17 366.32 L 559.64 369.33 L 561.11 375.81 L 562.58 369.28 L 564.06 370.79 L 565.53 368.34 L 567.00 371.87 L 568.47 368.05 L 569.94 365.45 L 571.42 375.44 L 572.89 364.90 L 574.36 364.89 L 575.83 371.01 L 577.31 371.02 L 578.78 368.90 L 580.25 368.01 L 581.72 373.34 L 583.19 370.90 L 584.67 360.53 L 586.14 368.07 L 587.61 364.91 L 589.08 367.88 L 590.56 367.08 L 592.03 365.32 L 593.50 353.68 L 594.97 360.66 L 596.44 355.36 L 597.92 374.25 L 599.39 362.06 L 600.86 367.22 L 602.33 367.44 L 603.81 359.57 L 605.28 349.25 L 606.75 365.79 L 608.22 350.48 L 609.69 358.03 L 611.17 358.21 L 612.64 354.86 L 614.11 356.87 L 615.58 355.26 L 617.06 355.88 L 618.53 354.09 L 620.00 348.71 L 621.47 339.55 L 622.94 337.15 L 624.42 354.52 L 625.89 367.81 L 627.36 371.29 L 628.83 360.96 L 630.31 354.90 L 631.78 351.26 L 633.25 353.83 L 634.72 351.36 L 636.19 353.42 L 637.67 356.62 L 639.14 357.22 L 640.61 351.68 L 642.08 344.05 L 643.56 344.56 L 645.03 347.11 L 646.50 342.85 L 647.97 344.29 L 649.44 345.51 L 650.92 344.10 L 652.39 346.96 L 653.86 344.54 L 655.33 343.48 L 656.81 343.97 L 658.28 345.66 L 659.75 342.13 L 661.22 346.04 L 662.69 344.05 L 664.17 343.74 L 665.64 345.97 L 667.11 343.36 L 668.58 343.81 L 670.06 343.60 L 671.53 346.15 L 673.00 345.26 L 674.47 345.31 L 675.94 344.93 L 677.42 344.82 L 678.89 343.31 L 680.36 345.80 L 681.83 344.60 L 683.31 344.80 L 684.78 344.50 L 686.25 344.83 L 687.72 344.77 L 689.19 344.99 L 690.67 343.35 L 692.14 346.21 L 693.61 346.29 L 695.08 344.86 L 696.56 343.97 L 698.03 343.99 L 699.50 344.29 L 700.97 344.98 L 702.44 344.11 L 703.92 344.79 L 705.39 344.28 L 706.86 348.15 L 708.33 342.60 L 709.81 345.83 L 711.28 345.11 L 712.75 345.44 L 714.22 352.22 L 715.69 351.53 L 717.17 358.52 L 718.64 357.25 L 720.11 352.37 L 721.58 347.59 L 723.06 336.10 L 724.53 332.90 L 726.00 336.67 L 727.47 332.20 L 728.94 332.47 L 730.42 341.13 L 731.89 342.31 L 733.36 338.13 L 734.83 331.43 L 736.31 347.24 L 737.78 346.09 L 739.25 342.91 L 740.72 343.83 L 742.19 354.50 L 743.67 355.94 L 745.14 337.69 L 746.61 341.37 L 748.08 359.07 L 749.56 367.22 L 751.03 373.33 L 752.50 364.76 L 753.97 356.73 L 755.44 360.62 L 756.92 361.83 L 758.39 370.66 L 759.86 370.27 L 761.33 382.18 L 762.81 365.99 L 764.28 343.97 L 765.75 343.97 L 767.22 332.03 L 768.69 342.00 L 770.17 368.76 L 771.64 360.88 L 773.11 371.88 L 774.58 373.03 L 776.06 373.08 L 777.53 373.85 L 779.00 375.35 L 780.47 375.65 L 781.94 372.86 L 783.42 384.15 L 784.89 381.41 L 786.36 376.70" stroke="#2E7D32" />
<path class="series" d="M 178.33 408.99 L 179.81 408.62 L 181.28 404.45 L 182.75 405.04 L 184.22 405.76 L 185.69 403.86 L 187.17 404.78 L 188.64 405.83 L 190.11 407.70 L 191.58 404.92 L 193.06 403.43 L 194.53 404.52 L 196.00 402.10 L 197.47 405.59 L 198.94 404.52 L 200.42 404.02 L 201.89 404.19 L 203.36 404.74 L 204.83 406.68 L 206.31 406.36 L 207.78 406.75 L 209.25 411.10 L 210.72 410.35 L 212.19 412.11 L 213.67 413.56 L 215.14 410.35 L 216.61 413.46 L 218.08 414.67 L 219.56 416.82 L 221.03 413.37 L 222.50 421.42 L 223.97 415.26 L 225.44 411.15 L 226.92 411.89 L 228.39 415.36 L 229.86 407.83 L 231.33 412.01 L 232.81 418.14 L 234.28 419.19 L 235.75 418.09 L 237.22 415.28 L 238.69 415.27 L 240.17 410.31 L 241.64 416.17 L 243.11 412.32 L 244.58 416.68 L 246.06 412.66 L 247.53 411.32 L 249.00 416.21 L 250.47 409.96 L 251.94 416.18 L 253.42 414.17 L 254.89 421.06 L 256.36 420.08 L 257.83 428.25 L 259.31 428.26 L 260.78 424.69 L 262.25 413.54 L 263.72 414.22 L 265.19 413.10 L 266.67 413.98 L 268.14 415.60 L 269.61 418.70 L 271.08 419.22 L 272.56 408.99 L 274.03 411.96 L 275.50 411.81 L 276.97 414.03 L 278.44 414.40 L 279.92 417.19 L 281.39 413.27 L 282.86 415.09 L 284.33 407.91 L 285.81 412.31 L 287.28 410.86 L 288.75 404.63 L 290.22 399.30 L 291.69 406.40 L 293.17 405.61 L 294.64 401.66 L 296.11 408.41 L 297.58 405.00 L 299.06 410.81 L 300.53 402.79 L 302.00 414.82 L 303.47 407.80 L 304.94 416.96 L 306.42 416.24 L 307.89 411.02 L 309.36 414.84 L 310.83 423.19 L 312.31 419.87 L 313.78 425.31 L 315.25 422.47 L 316.72 422.79 L 318.19 418.97 L 319.67 422.36 L 321.14 419.38 L 322.61 421.24 L 324.08 426.23 L 325.56 426.88 L 327.03 437.12 L 328.50 435.00 L 329.97 437.15 L 331.44 428.07 L 332.92 429.74 L 334.39 413.25 L 335.86 416.74 L 337.33 406.76 L 338.81 408.50 L 340.28 410.92 L 341.75 407.85 L 343.22 404.40 L 344.69 400.65 L 346.17 403.21 L 347.64 405.12 L 349.11 397.56 L 350.58 401.52 L 352.06 399.02 L 353.53 393.31 L 355.00 409.23 L 356.47 404.25 L 357.94 415.35 L 359.42 407.87 L 360.89 406.96 L 362.36 400.16 L 363.83 406.27 L 365.31 411.45 L 366.78 413.57 L 368.25 419.52 L 369.72 423.46 L 371.19 417.89 L 372.67 414.14 L 374.14 418.67 L 375.61 418.19 L 377.08 421.06 L 378.56 428.71 L 380.03 429.51 L 381.50 426.57 L 382.97 424.69 L 384.44 414.96 L 385.92 417.68 L 387.39 419.44 L 388.86 419.28 L 390.33 425.93 L 391.81 412.89 L 393.28 408.17 L 394.75 426.23 L 396.22 415.65 L 397.69 408.60 L 399.17 409.47 L 400.64 406.22 L 402.11 406.78 L 403.58 408.35 L 405.06 413.68 L 406.53 414.36 L 408.00 415.85 L 409.47 405.67 L 410.94 412.01 L 412.42 405.37 L 413.89 402.04 L 415.36 409.65 L 416.83 401.30 L 418.31 417.42 L 419.78 404.82 L 421.25 409.08 L 422.72 416.17 L 424.19 405.50 L 425.67 421.21 L 427.14 417.53 L 428.61 412.69 L 430.08 416.53 L 431.56 416.07 L 433.03 415.12 L 434.50 410.39 L 435.97 412.63 L 437.44 410.15 L 438.92 411.19 L 440.39 414.24 L 441.86 410.65 L 443.33 409.15 L 444.81 408.12 L 446.28 411.08 L 447.75 407.75 L 449.22 411.87 L 450.69 410.63 L 452.17 411.62 L 453.64 411.50 L 455.11 412.62 L 456.58 412.20 L 458.06 412.01 L 459.53 412.26 L 461.00 412.51 L 462.47 412.45 L 463.94 412.37 L 465.42 412.44 L 466.89 412.44 L 468.36 412.45 L 469.83 412.33 L 471.31 412.30 L 472.78 412.29 L 474.25 412.48 L 475.72 412.17 L 477.19 412.57 L 478.67 412.06 L 480.14 412.33 L 481.61 412.37 L 483.08 412.45 L 484.56 412.01 L 486.03 412.70 L 487.50 412.38 L 488.97 412.10 L 490.44 412.36 L 491.92 412.80 L 493.39 412.44 L 494.86 412.76 L 496.33 412.10 L 497.81 413.34 L 499.28 412.44 L 500.75 412.56 L 502.22 412.55 L 503.69 412.01 L 505.17 412.87 L 506.64 413.05 L 508.11 412.08 L 509.58 413.00 L 511.06 413.52 L 512.53 413.43 L 514.00 413.39 L 515.47 413.27 L 516.94 413.28 L 518.42 413.53 L 519.89 412.81 L 521.36 412.77 L 522.83 412.63 L 524.31 412.53 L 525.78 411.51 L 527.25 409.63 L 528.72 411.90 L 530.19 409.54 L 531.67 408.01 L 533.14 416.71 L 534.61 412.37 L 536.08 413.65 L 537.56 420.71 L 539.03 416.30 L 540.50 413.29 L 541.97 418.42 L 543.44 418.94 L 544.92 409.15 L 546.39 409.82 L 547.86 411.73 L 549.33 406.96 L 550.81 404.46 L 552.28 403.90 L 553.75 402.54 L 555.22 405.83 L 556.69 404.07 L 558.17 407.03 L 559.64 411.02 L 561.11 412.45 L 562.58 410.46 L 564.06 419.01 L 565.53 412.20 L 567.00 416.68 L 568.47 416.35 L 569.94 423.71 L 571.42 413.82 L 572.89 426.17 L 574.36 417.36 L 575.83 422.03 L 577.31 422.10 L 578.78 421.51 L 580.25 432.94 L 581.72 427.16 L 583.19 429.28 L 584.67 424.98 L 586.14 421.31 L 587.61 426.02 L 589.08 422.55 L 590.56 415.74 L 592.03 416.15 L 593.50 397.01 L 594.97 409.71 L 596.44 403.51 L 597.92 382.16 L 599.39 393.00 L 600.86 381.72 L 602.33 380.85 L 603.81 385.62 L 605.28 396.14 L 606.75 389.32 L 608.22 395.63 L 609.69 400.86 L 611.17 406.69 L 612.64 409.85 L 614.11 408.13 L 615.58 403.86 L 617.06 396.69 L 618.53 409.04 L 620.00 419.61 L 621.47 401.11 L 622.94 416.82 L 624.42 400.36 L 625.89 404.55 L 627.36 396.82 L 628.83 387.97 L 630.31 393.45 L 631.78 390.67 L 633.25 401.60 L 634.72 392.26 L 636.19 399.75 L 637.67 404.15 L 639.14 403.89 L 640.61 410.95 L 642.08 413.02 L 643.56 409.78 L 645.03 408.34 L 646.50 414.53 L 647.97 411.69 L 649.44 412.22 L 650.92 409.98 L 652.39 419.61 L 653.86 414.61 L 655.33 413.00 L 656.81 410.06 L 658.28 402.80 L 659.75 412.90 L 661.22 411.37 L 662.69 416.12 L 664.17 416.68 L 665.64 418.13 L 667.11 414.32 L 668.58 422.37 L 670.06 417.77 L 671.53 415.57 L 673.00 422.07 L 674.47 414.89 L 675.94 410.74 L 677.42 407.56 L 678.89 402.77 L 680.36 410.25 L 681.83 406.22 L 683.31 406.80 L 684.78 405.74 L 686.25 407.49 L 687.72 408.26 L 689.19 413.74 L 690.67 413.21 L 692.14 413.29 L 693.61 415.16 L 695.08 412.49 L 696.56 416.35 L 698.03 416.30 L 699.50 410.16 L 700.97 413.29 L 702.44 413.46 L 703.92 409.16 L 705.39 407.62 L 706.86 412.15 L 708.33 406.37 L 709.81 405.06 L 711.28 407.99 L 712.75 406.72 L 714.22 407.95 L 715.69 402.92 L 717.17 402.95 L 718.64 404.97 L 720.11 407.06 L 721.58 408.78 L 723.06 410.47 L 724.53 412.49 L 726.00 410.02 L 727.47 412.10 L 728.94 412.67 L 730.42 411.77 L 731.89 410.18 L 733.36 421.64 L 734.83 417.94 L 736.31 431.15 L 737.78 443.42 L 739.25 430.87 L 740.72 419.04 L 742.19 422.68 L 743.67 431.57 L 745.14 427.83 L 746.61 421.71 L 748.08 408.75 L 749.56 394.04 L 751.03 375.42 L 752.50 376.56 L 753.97 373.34 L 755.44 382.35 L 756.92 390.59 L 758.39 393.41 L 759.86 398.86 L 761.33 418.65 L 762.81 414.58 L 764.28 406.98 L 765.75 406.98 L 767.22 402.91 L 768.69 402.57 L 770.17 406.06 L 771.64 405.51 L 773.11 405.06 L 774.58 406.85 L 776.06 406.74 L 777.53 406.13 L 779.00 407.31 L 780.47 407.87 L 781.94 407.43 L 783.42 409.39 L 784.89 408.73 L 786.36 407.99" stroke="#6A1B9A" />
<line x1="900.00" y1="307.75" x2="918.00" y2="307.75" stroke="#2E7D32" stroke-width="3" />
<text class="small" x="924.00" y="311.75">pitch</text>
<line x1="900.00" y1="323.75" x2="918.00" y2="323.75" stroke="#6A1B9A" stroke-width="3" />
<text class="small" x="924.00" y="327.75">roll</text>
<text x="90" y="500.50" font-size="14" font-weight="700">Aceleração (magnitude) (u.a.)</text>
<rect class="event" x="443.33" y="506.50" width="78.03" height="192.75" />
<line class="eventline" x1="443.33" y1="506.50" x2="443.33" y2="699.25" />
<line class="eventline" x1="521.36" y1="506.50" x2="521.36" y2="699.25" />
<line class="grid" x1="90" y1="699.25" x2="1150" y2="699.25" />
<text class="small" x="80" y="703.25" text-anchor="end">0.00</text>
<line class="grid" x1="90" y1="660.70" x2="1150" y2="660.70" />
<text class="small" x="80" y="664.70" text-anchor="end">0.50</text>
<line class="grid" x1="90" y1="622.15" x2="1150" y2="622.15" />
<text class="small" x="80" y="626.15" text-anchor="end">1.00</text>
<line class="grid" x1="90" y1="583.60" x2="1150" y2="583.60" />
<text class="small" x="80" y="587.60" text-anchor="end">1.50</text>
<line class="grid" x1="90" y1="545.05" x2="1150" y2="545.05" />
<text class="small" x="80" y="549.05" text-anchor="end">2.00</text>
<line class="grid" x1="90" y1="506.50" x2="1150" y2="506.50" />
<text class="small" x="80" y="510.50" text-anchor="end">2.50</text>
<line class="grid" x1="90.00" y1="506.50" x2="90.00" y2="699.25" />
<line class="grid" x1="266.67" y1="506.50" x2="266.67" y2="699.25" />
<line class="grid" x1="443.33" y1="506.50" x2="443.33" y2="699.25" />
<line class="grid" x1="620.00" y1="506.50" x2="620.00" y2="699.25" />
<line class="grid" x1="796.67" y1="506.50" x2="796.67" y2="699.25" />
<line class="grid" x1="973.33" y1="506.50" x2="973.33" y2="699.25" />
<line class="grid" x1="1150.00" y1="506.50" x2="1150.00" y2="699.25" />
<line class="axis" x1="90" y1="506.50" x2="90" y2="699.25" />
<line class="axis" x1="90" y1="699.25" x2="1150" y2="699.25" />
<path class="series" d="M 178.33 696.16 L 179.81 694.83 L 181.28 694.13 L 182.75 692.25 L 184.22 688.95 L 185.69 694.23 L 187.17 694.47 L 188.64 694.84 L 190.11 695.09 L 191.58 694.63 L 193.06 694.38 L 194.53 693.32 L 196.00 694.18 L 197.47 693.81 L 198.94 689.49 L 200.42 695.41 L 201.89 694.39 L 203.36 693.66 L 204.83 695.67 L 206.31 696.30 L 207.78 695.85 L 209.25 686.97 L 210.72 693.78 L 212.19 688.76 L 213.67 687.84 L 215.14 696.43 L 216.61 689.98 L 218.08 688.92 L 219.56 680.74 L 221.03 684.18 L 222.50 682.25 L 223.97 694.02 L 225.44 690.20 L 226.92 695.24 L 228.39 690.78 L 229.86 686.46 L 231.33 691.49 L 232.81 684.71 L 234.28 673.69 L 235.75 690.17 L 237.22 680.70 L 238.69 683.94 L 240.17 681.18 L 241.64 669.65 L 243.11 690.05 L 244.58 686.73 L 246.06 695.14 L 247.53 691.77 L 249.00 670.20 L 250.47 685.17 L 251.94 689.20 L 253.42 695.85 L 254.89 695.66 L 256.36 689.97 L 257.83 689.44 L 259.31 691.28 L 260.78 681.07 L 262.25 659.65 L 263.72 681.24 L 265.19 684.44 L 266.67 689.53 L 268.14 660.17 L 269.61 674.76 L 271.08 675.64 L 272.56 683.17 L 274.03 685.35 L 275.50 686.36 L 276.97 682.71 L 278.44 678.40 L 279.92 642.25 L 281.39 666.71 L 282.86 671.16 L 284.33 684.17 L 285.81 655.25 L 287.28 684.23 L 288.75 665.12 L 290.22 675.79 L 291.69 669.57 L 293.17 668.99 L 294.64 662.10 L 296.11 670.87 L 297.58 685.01 L 299.06 673.52 L 300.53 681.53 L 302.00 670.60 L 303.47 683.93 L 304.94 686.93 L 306.42 680.84 L 307.89 679.43 L 309.36 675.70 L 310.83 670.74 L 312.31 648.70 L 313.78 659.53 L 315.25 687.75 L 316.72 672.24 L 318.19 694.30 L 319.67 666.68 L 321.14 684.37 L 322.61 674.09 L 324.08 679.61 L 325.56 670.31 L 327.03 670.42 L 328.50 649.65 L 329.97 652.16 L 331.44 686.71 L 332.92 663.20 L 334.39 646.76 L 335.86 670.94 L 337.33 655.33 L 338.81 672.11 L 340.28 684.02 L 341.75 694.29 L 343.22 685.24 L 344.69 675.97 L 346.17 677.84 L 347.64 672.83 L 349.11 661.36 L 350.58 665.55 L 352.06 663.55 L 353.53 681.35 L 355.00 671.31 L 356.47 671.31 L 357.94 659.10 L 359.42 624.02 L 360.89 652.66 L 362.36 651.28 L 363.83 655.13 L 365.31 694.81 L 366.78 675.95 L 368.25 673.25 L 369.72 610.20 L 371.19 631.76 L 372.67 671.84 L 374.14 674.59 L 375.61 673.97 L 377.08 674.90 L 378.56 682.87 L 380.03 681.91 L 381.50 671.50 L 382.97 670.54 L 384.44 662.95 L 385.92 679.54 L 387.39 685.36 L 388.86 674.13 L 390.33 662.49 L 391.81 646.31 L 393.28 656.57 L 394.75 675.10 L 396.22 687.61 L 397.69 679.01 L 399.17 650.83 L 400.64 675.08 L 402.11 649.70 L 403.58 675.75 L 405.06 687.19 L 406.53 689.71 L 408.00 690.07 L 409.47 676.72 L 410.94 681.73 L 412.42 673.40 L 413.89 687.72 L 415.36 664.65 L 416.83 649.73 L 418.31 669.91 L 419.78 683.48 L 421.25 672.71 L 422.72 686.74 L 424.19 654.56 L 425.67 682.83 L 427.14 687.03 L 428.61 683.23 L 430.08 680.25 L 431.56 681.29 L 433.03 683.62 L 434.50 684.37 L 435.97 695.03 L 437.44 692.04 L 438.92 689.74 L 440.39 689.13 L 441.86 691.81 L 443.33 696.84 L 444.81 695.33 L 446.28 694.37 L 447.75 687.98 L 449.22 690.40 L 450.69 694.64 L 452.17 690.43 L 453.64 692.90 L 455.11 696.31 L 456.58 697.41 L 458.06 697.71 L 459.53 698.34 L 461.00 698.66 L 462.47 698.82 L 463.94 698.91 L 465.42 699.16 L 466.89 699.03 L 468.36 698.69 L 469.83 697.30 L 471.31 697.22 L 472.78 698.88 L 474.25 698.41 L 475.72 698.34 L 477.19 696.73 L 478.67 697.03 L 480.14 691.76 L 481.61 692.45 L 483.08 698.52 L 484.56 697.80 L 486.03 698.97 L 487.50 698.60 L 488.97 698.07 L 490.44 698.38 L 491.92 697.65 L 493.39 697.89 L 494.86 690.83 L 496.33 694.71 L 497.81 696.69 L 499.28 697.25 L 500.75 698.90 L 502.22 698.29 L 503.69 696.99 L 505.17 683.74 L 506.64 686.22 L 508.11 689.92 L 509.58 676.11 L 511.06 696.04 L 512.53 698.89 L 514.00 698.99 L 515.47 699.17 L 516.94 698.82 L 518.42 698.69 L 519.89 680.10 L 521.36 682.47 L 522.83 689.85 L 524.31 669.38 L 525.78 662.10 L 527.25 682.75 L 528.72 686.78 L 530.19 690.87 L 531.67 684.15 L 533.14 684.15 L 534.61 685.40 L 536.08 686.49 L 537.56 670.60 L 539.03 672.06 L 540.50 656.01 L 541.97 692.44 L 543.44 682.74 L 544.92 675.23 L 546.39 693.69 L 547.86 684.15 L 549.33 682.69 L 550.81 672.61 L 552.28 691.41 L 553.75 667.98 L 555.22 689.06 L 556.69 665.83 L 558.17 673.57 L 559.64 677.94 L 561.11 674.46 L 562.58 682.60 L 564.06 676.07 L 565.53 686.22 L 567.00 667.69 L 568.47 689.65 L 569.94 669.43 L 571.42 694.22 L 572.89 685.44 L 574.36 689.09 L 575.83 679.34 L 577.31 671.12 L 578.78 683.85 L 580.25 677.69 L 581.72 684.16 L 583.19 680.51 L 584.67 671.92 L 586.14 681.49 L 587.61 661.55 L 589.08 683.72 L 590.56 680.02 L 592.03 648.04 L 593.50 633.54 L 594.97 658.19 L 596.44 627.90 L 597.92 617.51 L 599.39 643.80 L 600.86 652.28 L 602.33 657.30 L 603.81 653.99 L 605.28 646.17 L 606.75 671.43 L 608.22 639.23 L 609.69 674.20 L 611.17 659.35 L 612.64 652.52 L 614.11 665.40 L 615.58 671.08 L 617.06 667.33 L 618.53 687.67 L 620.00 670.08 L 621.47 660.48 L 622.94 646.37 L 624.42 678.34 L 625.89 672.90 L 627.36 666.43 L 628.83 640.95 L 630.31 653.96 L 631.78 663.96 L 633.25 681.47 L 634.72 669.35 L 636.19 687.25 L 637.67 673.30 L 639.14 690.38 L 640.61 673.88 L 642.08 652.18 L 643.56 674.09 L 645.03 687.24 L 646.50 669.74 L 647.97 686.01 L 649.44 685.27 L 650.92 664.42 L 652.39 670.14 L 653.86 678.66 L 655.33 686.24 L 656.81 684.07 L 658.28 683.58 L 659.75 668.49 L 661.22 691.60 L 662.69 685.26 L 664.17 685.91 L 665.64 678.09 L 667.11 681.81 L 668.58 681.64 L 670.06 688.69 L 671.53 671.19 L 673.00 684.92 L 674.47 690.46 L 675.94 682.30 L 677.42 689.99 L 678.89 681.97 L 680.36 689.89 L 681.83 691.91 L 683.31 691.39 L 684.78 693.35 L 686.25 690.17 L 687.72 690.10 L 689.19 687.63 L 690.67 684.36 L 692.14 694.89 L 693.61 691.25 L 695.08 693.36 L 696.56 677.74 L 698.03 673.61 L 699.50 676.87 L 700.97 673.03 L 702.44 675.05 L 703.92 682.80 L 705.39 682.80 L 706.86 674.59 L 708.33 663.36 L 709.81 666.64 L 711.28 683.60 L 712.75 688.86 L 714.22 690.38 L 715.69 678.19 L 717.17 665.70 L 718.64 665.83 L 720.11 666.25 L 721.58 684.57 L 723.06 674.90 L 724.53 665.14 L 726.00 659.71 L 727.47 687.71 L 728.94 670.39 L 730.42 676.58 L 731.89 676.58 L 733.36 681.28 L 734.83 652.39 L 736.31 661.53 L 737.78 634.65 L 739.25 659.13 L 740.72 640.26 L 742.19 683.37 L 743.67 686.48 L 745.14 676.17 L 746.61 635.14 L 748.08 639.27 L 749.56 633.42 L 751.03 583.46 L 752.50 616.75 L 753.97 598.91 L 755.44 629.98 L 756.92 639.60 L 758.39 671.24 L 759.86 665.91 L 761.33 659.92 L 762.81 620.07 L 764.28 600.39 L 765.75 581.15 L 767.22 614.43 L 768.69 679.33 L 770.17 689.87 L 771.64 692.91 L 773.11 689.37 L 774.58 694.75 L 776.06 696.77 L 777.53 694.22 L 779.00 698.38 L 780.47 696.24 L 781.94 696.66 L 783.42 684.98 L 784.89 689.00 L 786.36 691.88" stroke="#FB8C00" />
<text x="90" y="711.25" font-size="14" font-weight="700">Giroscópio (magnitude) (u.a.)</text>
<rect class="event" x="443.33" y="717.25" width="78.03" height="192.75" />
<line class="eventline" x1="443.33" y1="717.25" x2="443.33" y2="910.00" />
<line class="eventline" x1="521.36" y1="717.25" x2="521.36" y2="910.00" />
<line class="grid" x1="90" y1="910.00" x2="1150" y2="910.00" />
<text class="small" x="80" y="914.00" text-anchor="end">0.00</text>
<line class="grid" x1="90" y1="871.45" x2="1150" y2="871.45" />
<text class="small" x="80" y="875.45" text-anchor="end">0.10</text>
<line class="grid" x1="90" y1="832.90" x2="1150" y2="832.90" />
<text class="small" x="80" y="836.90" text-anchor="end">0.20</text>
<line class="grid" x1="90" y1="794.35" x2="1150" y2="794.35" />
<text class="small" x="80" y="798.35" text-anchor="end">0.30</text>
<line class="grid" x1="90" y1="755.80" x2="1150" y2="755.80" />
<text class="small" x="80" y="759.80" text-anchor="end">0.40</text>
<line class="grid" x1="90" y1="717.25" x2="1150" y2="717.25" />
<text class="small" x="80" y="721.25" text-anchor="end">0.50</text>
<line class="grid" x1="90.00" y1="717.25" x2="90.00" y2="910.00" />
<line class="grid" x1="266.67" y1="717.25" x2="266.67" y2="910.00" />
<line class="grid" x1="443.33" y1="717.25" x2="443.33" y2="910.00" />
<line class="grid" x1="620.00" y1="717.25" x2="620.00" y2="910.00" />
<line class="grid" x1="796.67" y1="717.25" x2="796.67" y2="910.00" />
<line class="grid" x1="973.33" y1="717.25" x2="973.33" y2="910.00" />
<line class="grid" x1="1150.00" y1="717.25" x2="1150.00" y2="910.00" />
<line class="axis" x1="90" y1="717.25" x2="90" y2="910.00" />
<line class="axis" x1="90" y1="910.00" x2="1150" y2="910.00" />
<path class="series" d="M 178.33 908.20 L 179.81 907.84 L 181.28 904.60 L 182.75 906.33 L 184.22 907.66 L 185.69 905.71 L 187.17 908.17 L 188.64 908.82 L 190.11 907.96 L 191.58 908.92 L 193.06 905.60 L 194.53 908.96 L 196.00 906.41 L 197.47 906.50 L 198.94 908.48 L 200.42 907.79 L 201.89 906.13 L 203.36 907.20 L 204.83 907.51 L 206.31 907.63 L 207.78 907.79 L 209.25 905.06 L 210.72 900.37 L 212.19 897.57 L 213.67 895.82 L 215.14 893.26 L 216.61 889.46 L 218.08 889.19 L 219.56 887.71 L 221.03 884.54 L 222.50 880.71 L 223.97 888.04 L 225.44 885.60 L 226.92 884.60 L 228.39 886.54 L 229.86 883.35 L 231.33 878.49 L 232.81 885.84 L 234.28 884.62 L 235.75 889.03 L 237.22 900.42 L 238.69 903.10 L 240.17 899.42 L 241.64 900.59 L 243.11 905.53 L 244.58 903.99 L 246.06 904.19 L 247.53 899.31 L 249.00 896.75 L 250.47 903.71 L 251.94 903.76 L 253.42 898.78 L 254.89 902.34 L 256.36 900.52 L 257.83 898.21 L 259.31 901.00 L 260.78 891.77 L 262.25 899.76 L 263.72 901.14 L 265.19 900.95 L 266.67 898.22 L 268.14 891.73 L 269.61 898.95 L 271.08 897.42 L 272.56 898.74 L 274.03 899.59 L 275.50 897.41 L 276.97 901.69 L 278.44 897.98 L 279.92 896.92 L 281.39 901.19 L 282.86 898.57 L 284.33 901.81 L 285.81 896.95 L 287.28 897.74 L 288.75 900.95 L 290.22 892.19 L 291.69 901.00 L 293.17 896.55 L 294.64 890.67 L 296.11 891.83 L 297.58 885.77 L 299.06 888.68 L 300.53 886.91 L 302.00 890.01 L 303.47 888.89 L 304.94 891.69 L 306.42 896.14 L 307.89 896.27 L 309.36 896.09 L 310.83 900.54 L 312.31 890.70 L 313.78 884.22 L 315.25 881.30 L 316.72 877.88 L 318.19 877.95 L 319.67 875.24 L 321.14 871.57 L 322.61 868.44 L 324.08 860.09 L 325.56 852.92 L 327.03 832.85 L 328.50 832.32 L 329.97 832.46 L 331.44 837.41 L 332.92 832.06 L 334.39 865.27 L 335.86 876.78 L 337.33 895.05 L 338.81 902.43 L 340.28 904.61 L 341.75 906.46 L 343.22 903.15 L 344.69 904.38 L 346.17 897.77 L 347.64 892.17 L 349.11 887.27 L 350.58 884.31 L 352.06 881.55 L 353.53 882.91 L 355.00 886.52 L 356.47 886.52 L 357.94 898.16 L 359.42 899.41 L 360.89 901.10 L 362.36 900.26 L 363.83 901.34 L 365.31 898.02 L 366.78 896.52 L 368.25 900.78 L 369.72 899.35 L 371.19 901.88 L 372.67 900.97 L 374.14 896.29 L 375.61 885.57 L 377.08 883.61 L 378.56 882.08 L 380.03 867.41 L 381.50 855.53 L 382.97 841.67 L 384.44 841.40 L 385.92 848.81 L 387.39 844.31 L 388.86 839.46 L 390.33 835.30 L 391.81 835.88 L 393.28 857.81 L 394.75 866.91 L 396.22 854.20 L 397.69 862.67 L 399.17 879.28 L 400.64 895.05 L 402.11 907.92 L 403.58 908.96 L 405.06 901.63 L 406.53 902.95 L 408.00 906.90 L 409.47 897.27 L 410.94 898.47 L 412.42 898.74 L 413.89 895.93 L 415.36 897.59 L 416.83 888.17 L 418.31 891.22 L 419.78 892.11 L 421.25 898.75 L 422.72 887.63 L 424.19 898.50 L 425.67 892.22 L 427.14 904.57 L 428.61 904.84 L 430.08 906.26 L 431.56 908.01 L 433.03 907.04 L 434.50 904.75 L 435.97 908.50 L 437.44 907.53 L 438.92 908.06 L 440.39 906.57 L 441.86 905.60 L 443.33 906.55 L 444.81 908.29 L 446.28 905.85 L 447.75 906.34 L 449.22 905.64 L 450.69 908.48 L 452.17 908.56 L 453.64 909.50 L 455.11 909.66 L 456.58 909.49 L 458.06 909.93 L 459.53 909.30 L 461.00 909.38 L 462.47 909.91 L 463.94 909.84 L 465.42 909.81 L 466.89 909.87 L 468.36 909.73 L 469.83 909.92 L 471.31 909.53 L 472.78 909.95 L 474.25 909.82 L 475.72 909.85 L 477.19 909.81 L 478.67 909.80 L 480.14 909.80 L 481.61 909.65 L 483.08 909.92 L 484.56 909.79 L 486.03 909.79 L 487.50 909.88 L 488.97 909.90 L 490.44 909.51 L 491.92 909.81 L 493.39 909.71 L 494.86 909.56 L 496.33 909.67 L 497.81 909.34 L 499.28 909.23 L 500.75 909.61 L 502.22 909.24 L 503.69 908.68 L 505.17 909.78 L 506.64 909.47 L 508.11 908.74 L 509.58 909.11 L 511.06 909.84 L 512.53 909.90 L 514.00 909.90 L 515.47 909.87 L 516.94 909.87 L 518.42 909.61 L 519.89 907.10 L 521.36 905.71 L 522.83 905.93 L 524.31 905.74 L 525.78 908.30 L 527.25 905.47 L 528.72 903.10 L 530.19 900.44 L 531.67 899.19 L 533.14 899.19 L 534.61 901.74 L 536.08 900.56 L 537.56 904.91 L 539.03 908.81 L 540.50 906.28 L 541.97 902.37 L 543.44 895.45 L 544.92 898.37 L 546.39 899.42 L 547.86 891.34 L 549.33 891.43 L 550.81 886.24 L 552.28 878.85 L 553.75 877.75 L 555.22 875.39 L 556.69 870.74 L 558.17 870.24 L 559.64 883.56 L 561.11 889.08 L 562.58 892.91 L 564.06 897.32 L 565.53 891.31 L 567.00 893.12 L 568.47 892.18 L 569.94 890.43 L 571.42 887.38 L 572.89 890.31 L 574.36 890.66 L 575.83 885.39 L 577.31 881.49 L 578.78 881.75 L 580.25 877.25 L 581.72 879.94 L 583.19 879.50 L 584.67 878.63 L 586.14 879.78 L 587.61 874.08 L 589.08 883.78 L 590.56 885.98 L 592.03 884.94 L 593.50 891.07 L 594.97 888.47 L 596.44 892.89 L 597.92 862.96 L 599.39 834.40 L 600.86 829.62 L 602.33 825.80 L 603.81 836.40 L 605.28 839.32 L 606.75 851.92 L 608.22 862.05 L 609.69 875.16 L 611.17 879.37 L 612.64 891.19 L 614.11 880.02 L 615.58 901.88 L 617.06 897.25 L 618.53 894.40 L 620.00 902.18 L 621.47 894.66 L 622.94 894.70 L 624.42 896.00 L 625.89 898.73 L 627.36 893.10 L 628.83 869.27 L 630.31 850.22 L 631.78 845.76 L 633.25 851.54 L 634.72 848.93 L 636.19 868.55 L 637.67 881.35 L 639.14 888.12 L 640.61 891.79 L 642.08 899.16 L 643.56 900.94 L 645.03 898.97 L 646.50 895.00 L 647.97 895.20 L 649.44 901.48 L 650.92 899.60 L 652.39 897.93 L 653.86 901.03 L 655.33 902.00 L 656.81 898.23 L 658.28 899.09 L 659.75 900.57 L 661.22 903.41 L 662.69 903.93 L 664.17 901.50 L 665.64 898.08 L 667.11 900.81 L 668.58 899.05 L 670.06 902.62 L 671.53 904.84 L 673.00 905.74 L 674.47 902.26 L 675.94 904.63 L 677.42 894.95 L 678.89 905.69 L 680.36 907.67 L 681.83 908.59 L 683.31 909.38 L 684.78 908.60 L 686.25 908.03 L 687.72 902.89 L 689.19 903.55 L 690.67 907.87 L 692.14 903.45 L 693.61 906.04 L 695.08 901.59 L 696.56 903.45 L 698.03 898.03 L 699.50 901.89 L 700.97 901.99 L 702.44 902.06 L 703.92 903.12 L 705.39 903.12 L 706.86 898.58 L 708.33 904.77 L 709.81 904.46 L 711.28 901.71 L 712.75 899.23 L 714.22 898.59 L 715.69 898.91 L 717.17 893.70 L 718.64 893.26 L 720.11 899.49 L 721.58 905.04 L 723.06 905.48 L 724.53 901.82 L 726.00 901.75 L 727.47 904.07 L 728.94 902.80 L 730.42 905.11 L 731.89 905.73 L 733.36 901.64 L 734.83 886.12 L 736.31 876.74 L 737.78 858.40 L 739.25 846.38 L 740.72 853.69 L 742.19 856.86 L 743.67 846.01 L 745.14 836.70 L 746.61 844.50 L 748.08 865.76 L 749.56 889.68 L 751.03 897.76 L 752.50 861.96 L 753.97 845.89 L 755.44 814.93 L 756.92 825.07 L 758.39 834.53 L 759.86 850.53 L 761.33 875.89 L 762.81 899.91 L 764.28 883.47 L 765.75 876.55 L 767.22 888.69 L 768.69 899.43 L 770.17 901.44 L 771.64 905.84 L 773.11 906.71 L 774.58 906.98 L 776.06 907.16 L 777.53 907.60 L 779.00 906.70 L 780.47 906.74 L 781.94 906.53 L 783.42 904.34 L 784.89 902.94 L 786.36 903.43" stroke="#E53935" />
<text x="620.00" y="952" font-size="15" text-anchor="middle">minutos (relativo ao início do evento)</text>
<text class="small" x="90.00" y="936" text-anchor="middle">-4.00</text>
<text class="small" x="266.67" y="936" text-anchor="middle">-2.00</text>
<text class="small" x="443.33" y="936" text-anchor="middle">0.00</text>
<text class="small" x="620.00" y="936" text-anchor="middle">2.00</text>
<text class="small" x="796.67" y="936" text-anchor="middle">4.00</text>
<text class="small" x="973.33" y="936" text-anchor="middle">6.00</text>
<text class="small" x="1150.00" y="936" text-anchor="middle">8.00</text>
</svg>