<?xml version="1.0" encoding="UTF-8"?>
<svg xmlns="http://www.w3.org/2000/svg" width="1180" height="980" viewBox="0 0 1180 980">
<style>
text { font-family: -apple-system, BlinkMacSystemFont, 'Segoe UI', Roboto, Helvetica, Arial, sans-serif; fill: #111; }
.small { font-size: 12px; fill: #222; }
.title { font-size: 18px; font-weight: 700; }
.axis { stroke: #111; stroke-width: 1.4; }
.grid { stroke: #E6E6E6; stroke-width: 1; }
.event { fill: #FFEB3B; fill-opacity: 0.18; }
.eventline { stroke: #F9A825; stroke-width: 1.2; stroke-dasharray: 4 3; }
.series { fill: none; stroke-width: 1.8; }
</style>
<text class="title" x="90" y="34">ciclo 11 — basculamento — 2025-12-12T22:30:27-03:00 → 2025-12-12T22:31:03-03:00 (span 36s, dur 37s)</text>
<text class="small" x="90" y="54">GPS: -11.692777,-47.165123  hotspot: -11.693,-47.165</text>
<text class="small" x="90" y="70">Janela: -3.00 → 3.60 min (relativo ao início do evento)</text>
<text x="90" y="79.00" font-size="14" font-weight="700">Velocidade (km/h)</text>
<rect class="event" x="443.33" y="85.00" width="53.00" height="192.75" />
<line class="eventline" x1="443.33" y1="85.00" x2="443.33" y2="277.75" />
<line class="eventline" x1="496.33" y1="85.00" x2="496.33" y2="277.75" />
<line class="grid" x1="90" y1="277.75" x2="1150" y2="277.75" />
<text class="small" x="80" y="281.75" text-anchor="end">0.00</text>
<line class="grid" x1="90" y1="239.20" x2="1150" y2="239.20" />
<text class="small" x="80" y="243.20" text-anchor="end">10.0</text>
<line class="grid" x1="90" y1="200.65" x2="1150" y2="200.65" />
<text class="small" x="80" y="204.65" text-anchor="end">20.0</text>
<line class="grid" x1="90" y1="162.10" x2="1150" y2="162.10" />
<text class="small" x="80" y="166.10" text-anchor="end">30.0</text>
<line class="grid" x1="90" y1="123.55" x2="1150" y2="123.55" />
<text class="small" x="80" y="127.55" text-anchor="end">40.0</text>
<line class="grid" x1="90" y1="85.00" x2="1150" y2="85.00" />
<text class="small" x="80" y="89.00" text-anchor="end">50.0</text>
<line class="grid" x1="90.00" y1="85.00" x2="90.00" y2="277.75" />
<line class="grid" x1="266.67" y1="85.00" x2="266.67" y2="277.75" />
<line class="grid" x1="443.33" y1="85.00" x2="443.33" y2="277.75" />
<line class="grid" x1="620.00" y1="85.00" x2="620.00" y2="277.75" />
<line class="grid" x1="796.67" y1="85.00" x2="796.67" y2="277.75" />
<line class="grid" x1="973.33" y1="85.00" x2="973.33" y2="277.75" />
<line class="grid" x1="1150.00" y1="85.00" x2="1150.00" y2="277.75" />
<line class="axis" x1="90" y1="85.00" x2="90" y2="277.75" />
<line class="axis" x1="90" y1="277.75" x2="1150" y2="277.75" />
<path class="series" d="M 178.33 247.36 L 179.81 247.63 L 181.28 247.36 L 182.75 246.80 L 184.22 247.08 L 185.69 247.91 L 187.17 247.36 L 188.64 245.83 L 190.11 247.63 L 191.58 249.30 L 193.06 248.19 L 194.53 248.88 L 196.00 248.47 L 197.47 248.19 L 198.94 247.63 L 200.42 247.36 L 201.89 247.91 L 203.36 246.94 L 204.83 246.94 L 206.31 246.39 L 207.78 245.69 L 209.25 245.28 L 210.72 245.97 L 212.19 245.14 L 213.67 245.28 L 215.14 245.55 L 216.61 245.83 L 218.08 246.25 L 219.56 246.52 L 221.03 246.25 L 222.50 246.11 L 223.97 247.36 L 225.44 246.66 L 226.92 246.80 L 228.39 247.63 L 229.86 248.33 L 231.33 248.61 L 232.81 249.30 L 234.28 249.30 L 235.75 248.47 L 237.22 247.36 L 238.69 247.22 L 240.17 246.11 L 241.64 245.28 L 243.11 245.55 L 244.58 244.03 L 246.06 244.72 L 247.53 245.00 L 249.00 244.72 L 250.47 244.86 L 251.94 244.17 L 253.42 244.03 L 254.89 244.58 L 256.36 246.39 L 257.83 247.08 L 259.31 247.08 L 260.78 247.22 L 262.25 247.22 L 263.72 246.80 L 265.19 246.80 L 266.67 247.22 L 268.14 248.33 L 269.61 247.91 L 271.08 247.63 L 272.56 247.50 L 274.03 243.47 L 275.50 243.47 L 276.97 244.17 L 278.44 244.30 L 279.92 245.00 L 281.39 241.11 L 282.86 237.92 L 284.33 233.34 L 285.81 230.70 L 287.28 229.32 L 288.75 227.37 L 290.22 229.87 L 291.69 227.93 L 293.17 228.48 L 294.64 226.96 L 296.11 227.37 L 297.58 230.01 L 299.06 226.96 L 300.53 227.23 L 302.00 225.71 L 303.47 221.54 L 304.94 222.79 L 306.42 219.88 L 307.89 220.02 L 309.36 219.18 L 310.83 220.99 L 312.31 218.21 L 313.78 216.55 L 315.25 215.58 L 316.72 212.80 L 318.19 215.16 L 319.67 214.19 L 321.14 216.69 L 322.61 219.32 L 324.08 219.46 L 325.56 223.21 L 327.03 227.93 L 328.50 230.56 L 329.97 236.53 L 331.44 236.67 L 332.92 234.59 L 334.39 236.53 L 335.86 234.31 L 337.33 237.37 L 338.81 239.59 L 340.28 235.84 L 341.75 234.87 L 343.22 231.54 L 344.69 233.06 L 346.17 231.81 L 347.64 232.65 L 349.11 230.98 L 350.58 227.79 L 352.06 223.76 L 353.53 227.23 L 355.00 228.48 L 356.47 228.07 L 357.94 227.51 L 359.42 226.40 L 360.89 226.40 L 362.36 230.70 L 363.83 227.10 L 365.31 223.49 L 366.78 227.23 L 368.25 224.18 L 369.72 224.04 L 371.19 228.76 L 372.67 227.79 L 374.14 235.84 L 375.61 230.84 L 377.08 228.07 L 378.56 233.90 L 380.03 240.70 L 381.50 249.99 L 382.97 259.99 L 384.44 271.92 L 385.92 277.75 L 387.39 277.75 L 388.86 277.75 L 390.33 277.75 L 391.81 262.35 L 393.28 260.96 L 394.75 258.46 L 396.22 259.99 L 397.69 261.93 L 399.17 258.32 L 400.64 259.15 L 402.11 259.15 L 403.58 261.37 L 405.06 262.35 L 406.53 259.85 L 408.00 259.57 L 409.47 260.82 L 410.94 258.46 L 412.42 258.60 L 413.89 259.43 L 415.36 258.88 L 416.83 257.90 L 418.31 258.60 L 419.78 260.12 L 421.25 259.99 L 422.72 258.60 L 424.19 259.15 L 425.67 257.49 L 427.14 258.60 L 428.61 259.01 L 430.08 265.81 L 431.56 267.62 L 433.03 269.84 L 434.50 269.56 L 435.97 269.70 L 437.44 268.87 L 438.92 271.78 L 440.39 271.37 L 441.86 271.23 L 443.33 277.75 L 444.81 277.75 L 446.28 277.75 L 447.75 277.75 L 449.22 277.75 L 450.69 277.75 L 452.17 277.75 L 453.64 277.75 L 455.11 277.75 L 456.58 277.75 L 458.06 277.75 L 459.53 277.75 L 461.00 277.75 L 462.47 277.75 L 463.94 277.75 L 465.42 277.75 L 466.89 277.75 L 468.36 277.75 L 469.83 277.75 L 471.31 277.75 L 472.78 277.75 L 474.25 277.75 L 475.72 277.75 L 477.19 277.75 L 478.67 277.75 L 480.14 277.75 L 481.61 277.75 L 483.08 277.75 L 484.56 277.75 L 486.03 277.75 L 487.50 277.75 L 488.97 277.75 L 490.44 277.75 L 491.92 277.75 L 493.39 277.75 L 494.86 277.75 L 496.33 277.75 L 497.81 267.90 L 499.28 261.51 L 500.75 259.85 L 502.22 261.65 L 503.69 266.37 L 505.17 270.67 L 506.64 277.75 L 508.11 277.75 L 509.58 277.75 L 511.06 277.75 L 512.53 277.75 L 514.00 277.75 L 515.47 277.75 L 516.94 277.75 L 518.42 277.75 L 519.89 277.75 L 521.36 277.75 L 522.83 277.75 L 524.31 277.75 L 525.78 270.12 L 527.25 261.10 L 528.72 258.32 L 530.19 257.21 L 531.67 250.55 L 533.14 244.30 L 534.61 235.42 L 536.08 226.40 L 537.56 225.71 L 539.03 224.04 L 540.50 220.71 L 541.97 225.99 L 543.44 224.46 L 544.92 213.36 L 546.39 209.61 L 547.86 202.53 L 549.33 200.73 L 550.81 201.84 L 552.28 194.76 L 553.75 193.37 L 555.22 187.27 L 556.69 184.07 L 558.17 183.80 L 559.64 188.24 L 561.11 191.98 L 562.58 189.21 L 564.06 188.65 L 565.53 183.38 L 567.00 178.11 L 568.47 174.08 L 569.94 170.89 L 571.42 166.59 L 572.89 162.01 L 574.36 162.70 L 575.83 165.48 L 577.31 174.91 L 578.78 173.66 L 580.25 173.25 L 581.72 176.30 L 583.19 175.19 L 584.67 177.00 L 586.14 180.74 L 587.61 185.04 L 589.08 192.12 L 590.56 195.45 L 592.03 195.87 L 593.50 193.37 L 594.97 190.32 L 596.44 194.07 L 597.92 191.71 L 599.39 188.79 L 600.86 183.66 L 602.33 179.77 L 603.81 179.91 L 605.28 177.27 L 606.75 176.16 L 608.22 179.49 L 609.69 178.11 L 611.17 179.22 L 612.64 183.80 L 614.11 174.08 L 615.58 176.30 L 617.06 176.44 L 618.53 179.08 L 620.00 181.02 L 621.47 177.83 L 622.94 176.72 L 624.42 176.86 L 625.89 178.94 L 627.36 180.05 L 628.83 175.33 L 630.31 168.81 L 631.78 168.39 L 633.25 165.62 L 634.72 165.48 L 636.19 170.06 L 637.67 169.92 L 639.14 169.36 L 640.61 168.95 L 642.08 168.67 L 643.56 167.42 L 645.03 167.70 L 646.50 170.61 L 647.97 166.17 L 649.44 168.39 L 650.92 169.22 L 652.39 169.78 L 653.86 169.92 L 655.33 171.17 L 656.81 172.42 L 658.28 172.55 L 659.75 173.11 L 661.22 173.80 L 662.69 174.50 L 664.17 170.20 L 665.64 169.78 L 667.11 169.78 L 668.58 170.47 L 670.06 171.44 L 671.53 173.53 L 673.00 173.94 L 674.47 176.58 L 675.94 176.58 L 677.42 178.38 L 678.89 177.41 L 680.36 179.35 L 681.83 178.52 L 683.31 177.41 L 684.78 175.19 L 686.25 173.25 L 687.72 170.47 L 689.19 170.61 L 690.67 169.36 L 692.14 167.70 L 693.61 164.64 L 695.08 164.23 L 696.56 162.98 L 698.03 164.92 L 699.50 162.70 L 700.97 152.43 L 702.44 162.42 L 703.92 172.28 L 705.39 178.38 L 706.86 180.05 L 708.33 183.10 L 709.81 191.71 L 711.28 190.18 L 712.75 191.29 L 714.22 186.16 L 715.69 195.18 L 717.17 191.71 L 718.64 190.73 L 720.11 183.80 L 721.58 187.82 L 723.06 186.02 L 724.53 184.77 L 726.00 179.08 L 727.47 174.22 L 728.94 171.44 L 730.42 170.33 L 731.89 171.72 L 733.36 164.37 L 734.83 164.09 L 736.31 166.17 L 737.78 169.09 L 739.25 168.67 L 740.72 162.29 L 742.19 161.45 L 743.67 161.17 L 745.14 160.20 L 746.61 157.98 L 748.08 159.23 L 749.56 158.26 L 751.03 157.57 L 752.50 156.73 L 753.97 155.48 L 755.44 153.40 L 756.92 153.26 L 758.39 150.07 L 759.86 152.85 L 761.33 152.43" stroke="#1976D2" />
<text x="90" y="289.75" font-size="14" font-weight="700">Inclinação (graus)</text>
<rect class="event" x="443.33" y="295.75" width="53.00" height="192.75" />
<line class="eventline" x1="443.33" y1="295.75" x2="443.33" y2="488.50" />
<line class="eventline" x1="496.33" y1="295.75" x2="496.33" y2="488.50" />
<line class="grid" x1="90" y1="488.50" x2="1150" y2="488.50" />
<text class="small" x="80" y="492.50" text-anchor="end">-20.0</text>
<line class="grid" x1="90" y1="449.95" x2="1150" y2="449.95" />
<text class="small" x="80" y="453.95" text-anchor="end">-10.0</text>
<line class="grid" x1="90" y1="411.40" x2="1150" y2="411.40" />
<text class="small" x="80" y="415.40" text-anchor="end">0.00</text>
<line class="grid" x1="90" y1="372.85" x2="1150" y2="372.85" />
<text class="small" x="80" y="376.85" text-anchor="end">10.0</text>
<line class="grid" x1="90" y1="334.30" x2="1150" y2="334.30" />
<text class="small" x="80" y="338.30" text-anchor="end">20.0</text>
<line class="grid" x1="90" y1="295.75" x2="1150" y2="295.75" />
<text class="small" x="80" y="299.75" text-anchor="end">30.0</text>
<line class="grid" x1="90.00" y1="295.75" x2="90.00" y2="488.50" />
<line class="grid" x1="266.67" y1="295.75" x2="266.67" y2="488.50" />
<line class="grid" x1="443.33" y1="295.75" x2="443.33" y2="488.50" />
<line class="grid" x1="620.00" y1="295.75" x2="620.00" y2="488.50" />
<line class="grid" x1="796.67" y1="295.75" x2="796.67" y2="488.50" />
<line class="grid" x1="973.33" y1="295.75" x2="973.33" y2="488.50" />
<line class="grid" x1="1150.00" y1="295.75" x2="1150.00" y2="488.50" />
<line class="axis" x1="90" y1="295.75" x2="90" y2="488.50" />
<line class="axis" x1="90" y1="488.50" x2="1150" y2="488.50" />
<path class="series" d="M 178.33 391.40 L 179.81 391.44 L 181.28 392.12 L 182.75 391.97 L 184.22 388.55 L 185.69 386.17 L 187.17 387.44 L 188.64 386.92 L 190.11 387.48 L 191.58 390.70 L 193.06 392.95 L 194.53 391.55 L 196.00 391.20 L 197.47 390.49 L 198.94 390.65 L 200.42 389.56 L 201.89 391.66 L 203.36 391.66 L 204.83 390.75 L 206.31 389.77 L 207.78 389.31 L 209.25 387.99 L 210.72 385.56 L 212.19 385.23 L 213.67 382.43 L 215.14 384.20 L 216.61 384.52 L 218.08 386.53 L 219.56 385.95 L 221.03 385.72 L 222.50 388.55 L 223.97 387.88 L 225.44 390.67 L 226.92 392.23 L 228.39 392.79 L 229.86 394.59 L 231.33 395.97 L 232.81 393.77 L 234.28 394.45 L 235.75 393.78 L 237.22 393.71 L 238.69 392.86 L 240.17 390.81 L 241.64 390.36 L 243.11 389.21 L 244.58 391.03 L 246.06 389.33 L 247.53 389.51 L 249.00 386.92 L 250.47 386.63 L 251.94 384.98 L 253.42 386.30 L 254.89 386.31 L 256.36 387.63 L 257.83 390.30 L 259.31 392.34 L 260.78 390.23 L 262.25 393.67 L 263.72 390.51 L 265.19 392.56 L 266.67 391.64 L 268.14 392.18 L 269.61 392.12 L 271.08 395.11 L 272.56 387.13 L 274.03 385.26 L 275.50 384.14 L 276.97 388.52 L 278.44 387.54 L 279.92 385.81 L 281.39 387.25 L 282.86 382.77 L 284.33 383.89 L 285.81 367.41 L 287.28 367.04 L 288.75 364.69 L 290.22 363.05 L 291.69 362.85 L 293.17 362.14 L 294.64 364.12 L 296.11 366.03 L 297.58 365.58 L 299.06 368.32 L 300.53 372.33 L 302.00 376.27 L 303.47 371.22 L 304.94 373.74 L 306.42 369.17 L 307.89 370.02 L 309.36 379.59 L 310.83 373.70 L 312.31 372.82 L 313.78 371.71 L 315.25 369.44 L 316.72 370.92 L 318.19 373.13 L 319.67 379.36 L 321.14 377.81 L 322.61 380.53 L 324.08 379.13 L 325.56 380.17 L 327.03 381.70 L 328.50 380.60 L 329.97 381.34 L 331.44 387.15 L 332.92 384.60 L 334.39 383.93 L 335.86 385.71 L 337.33 385.24 L 338.81 380.33 L 340.28 385.20 L 341.75 380.73 L 343.22 373.91 L 344.69 372.51 L 346.17 368.89 L 347.64 368.78 L 349.11 375.12 L 350.58 369.46 L 352.06 360.28 L 353.53 366.94 L 355.00 355.43 L 356.47 360.88 L 357.94 360.21 L 359.42 357.73 L 360.89 359.50 L 362.36 365.11 L 363.83 367.32 L 365.31 373.81 L 366.78 371.17 L 368.25 372.17 L 369.72 372.41 L 371.19 378.42 L 372.67 369.07 L 374.14 364.66 L 375.61 353.62 L 377.08 357.02 L 378.56 347.10 L 380.03 347.90 L 381.50 347.27 L 382.97 345.66 L 384.44 348.67 L 385.92 369.36 L 387.39 360.23 L 388.86 355.66 L 390.33 359.91 L 391.81 360.51 L 393.28 361.22 L 394.75 360.86 L 396.22 359.82 L 397.69 358.91 L 399.17 359.63 L 400.64 363.02 L 402.11 363.62 L 403.58 358.62 L 405.06 357.73 L 406.53 357.95 L 408.00 362.08 L 409.47 365.19 L 410.94 361.65 L 412.42 366.74 L 413.89 365.40 L 415.36 366.22 L 416.83 366.76 L 418.31 367.75 L 419.78 368.90 L 421.25 366.19 L 422.72 366.98 L 424.19 364.54 L 425.67 364.58 L 427.14 364.51 L 428.61 367.64 L 430.08 369.57 L 431.56 365.70 L 433.03 364.94 L 434.50 365.77 L 435.97 366.83 L 437.44 369.49 L 438.92 368.12 L 440.39 366.07 L 441.86 373.76 L 443.33 374.76 L 444.81 368.48 L 446.28 368.71 L 447.75 367.44 L 449.22 367.88 L 450.69 367.79 L 452.17 367.64 L 453.64 367.84 L 455.11 367.95 L 456.58 367.99 L 458.06 368.03 L 459.53 368.30 L 461.00 367.65 L 462.47 368.35 L 463.94 367.82 L 465.42 367.55 L 466.89 369.65 L 468.36 367.24 L 469.83 367.02 L 471.31 368.04 L 472.78 368.05 L 474.25 368.15 L 475.72 368.07 L 477.19 368.56 L 478.67 368.41 L 480.14 368.48 L 481.61 370.68 L 483.08 366.82 L 484.56 369.33 L 486.03 369.52 L 487.50 370.43 L 488.97 370.28 L 490.44 370.01 L 491.92 370.13 L 493.39 370.13 L 494.86 370.58 L 496.33 377.85 L 497.81 390.72 L 499.28 379.28 L 500.75 373.73 L 502.22 364.05 L 503.69 362.68 L 505.17 358.64 L 506.64 361.43 L 508.11 369.77 L 509.58 370.09 L 511.06 370.35 L 512.53 368.36 L 514.00 368.65 L 515.47 368.88 L 516.94 368.45 L 518.42 368.66 L 519.89 368.03 L 521.36 368.00 L 522.83 367.90 L 524.31 373.01 L 525.78 382.76 L 527.25 377.35 L 528.72 373.56 L 530.19 366.67 L 531.67 382.56 L 533.14 386.41 L 534.61 370.78 L 536.08 372.61 L 537.56 359.11 L 539.03 375.68 L 540.50 366.02 L 541.97 359.80 L 543.44 371.48 L 544.92 366.03 L 546.39 372.38 L 547.86 368.92 L 549.33 360.13 L 550.81 372.13 L 552.28 381.12 L 553.75 381.50 L 555.22 376.97 L 556.69 379.79 L 558.17 361.11 L 559.64 355.12 L 561.11 355.83 L 562.58 359.86 L 564.06 353.89 L 565.53 351.15 L 567.00 347.38 L 568.47 353.82 L 569.94 351.17 L 571.42 355.10 L 572.89 351.60 L 574.36 359.27 L 575.83 354.32 L 577.31 358.55 L 578.78 354.65 L 580.25 361.09 L 581.72 363.54 L 583.19 364.58 L 584.67 356.68 L 586.14 361.96 L 587.61 357.32 L 589.08 361.44 L 590.56 366.92 L 592.03 367.27 L 593.50 359.41 L 594.97 352.63 L 596.44 357.63 L 597.92 354.91 L 599.39 353.02 L 600.86 352.84 L 602.33 347.06 L 603.81 347.28 L 605.28 346.47 L 606.75 346.70 L 608.22 346.75 L 609.69 344.68 L 611.17 342.80 L 612.64 341.34 L 614.11 346.88 L 615.58 345.39 L 617.06 346.83 L 618.53 343.98 L 620.00 344.33 L 621.47 345.05 L 622.94 342.63 L 624.42 345.34 L 625.89 343.78 L 627.36 350.54 L 628.83 351.72 L 630.31 351.08 L 631.78 345.39 L 633.25 343.89 L 634.72 343.70 L 636.19 341.35 L 637.67 344.05 L 639.14 342.88 L 640.61 345.38 L 642.08 342.15 L 643.56 341.86 L 645.03 343.94 L 646.50 343.42 L 647.97 343.87 L 649.44 343.09 L 650.92 342.81 L 652.39 344.88 L 653.86 344.07 L 655.33 343.09 L 656.81 344.27 L 658.28 345.26 L 659.75 344.65 L 661.22 343.45 L 662.69 341.90 L 664.17 344.18 L 665.64 343.88 L 667.11 344.48 L 668.58 342.85 L 670.06 343.05 L 671.53 346.65 L 673.00 343.33 L 674.47 345.38 L 675.94 344.64 L 677.42 344.25 L 678.89 344.98 L 680.36 343.79 L 681.83 345.74 L 683.31 348.63 L 684.78 345.60 L 686.25 345.09 L 687.72 343.79 L 689.19 345.17 L 690.67 342.40 L 692.14 341.97 L 693.61 343.21 L 695.08 343.25 L 696.56 343.54 L 698.03 343.51 L 699.50 342.07 L 700.97 342.66 L 702.44 345.72 L 703.92 343.77 L 705.39 345.03 L 706.86 340.01 L 708.33 338.54 L 709.81 348.23 L 711.28 358.49 L 712.75 358.06 L 714.22 352.74 L 715.69 359.68 L 717.17 365.97 L 718.64 363.88 L 720.11 351.68 L 721.58 359.63 L 723.06 380.55 L 724.53 383.30 L 726.00 376.91 L 727.47 378.24 L 728.94 373.17 L 730.42 376.61 L 731.89 378.09 L 733.36 369.99 L 734.83 363.25 L 736.31 365.50 L 737.78 363.30 L 739.25 377.13 L 740.72 370.51 L 742.19 365.58 L 743.67 363.60 L 745.14 359.32 L 746.61 359.99 L 748.08 359.54 L 749.56 357.70 L 751.03 360.41 L 752.50 358.37 L 753.97 357.53 L 755.44 359.32 L 756.92 359.45 L 758.39 359.72 L 759.86 358.48 L 761.33 359.72" stroke="#2E7D32" />
<path class="series" d="M 178.33 412.41 L 179.81 413.05 L 181.28 413.72 L 182.75 412.45 L 184.22 412.09 L 185.69 408.93 L 187.17 403.28 L 188.64 397.00 L 190.11 406.85 L 191.58 407.49 L 193.06 407.38 L 194.53 413.17 L 196.00 409.76 L 197.47 411.95 L 198.94 407.75 L 200.42 406.04 L 201.89 405.48 L 203.36 405.48 L 204.83 407.20 L 206.31 405.81 L 207.78 404.95 L 209.25 404.00 L 210.72 404.72 L 212.19 404.27 L 213.67 404.47 L 215.14 398.84 L 216.61 399.90 L 218.08 396.88 L 219.56 399.34 L 221.03 398.14 L 222.50 406.19 L 223.97 400.23 L 225.44 403.09 L 226.92 400.87 L 228.39 405.41 L 229.86 407.37 L 231.33 407.85 L 232.81 402.26 L 234.28 403.31 L 235.75 402.24 L 237.22 400.97 L 238.69 403.22 L 240.17 402.64 L 241.64 403.01 L 243.11 407.19 L 244.58 404.73 L 246.06 400.21 L 247.53 399.62 L 249.00 399.66 L 250.47 401.30 L 251.94 404.01 L 253.42 401.33 L 254.89 402.86 L 256.36 402.59 L 257.83 403.61 L 259.31 405.30 L 260.78 404.60 L 262.25 405.10 L 263.72 407.82 L 265.19 406.18 L 266.67 406.57 L 268.14 406.48 L 269.61 407.51 L 271.08 411.43 L 272.56 409.09 L 274.03 408.38 L 275.50 414.94 L 276.97 418.05 L 278.44 416.76 L 279.92 417.93 L 281.39 417.14 L 282.86 414.44 L 284.33 415.03 L 285.81 408.25 L 287.28 407.78 L 288.75 407.57 L 290.22 405.50 L 291.69 415.73 L 293.17 412.30 L 294.64 413.12 L 296.11 410.79 L 297.58 410.32 L 299.06 410.01 L 300.53 409.02 L 302.00 407.11 L 303.47 409.73 L 304.94 411.61 L 306.42 412.80 L 307.89 405.80 L 309.36 409.57 L 310.83 420.92 L 312.31 419.94 L 313.78 432.03 L 315.25 425.30 L 316.72 432.42 L 318.19 426.87 L 319.67 432.04 L 321.14 415.03 L 322.61 409.28 L 324.08 410.57 L 325.56 400.23 L 327.03 413.75 L 328.50 416.21 L 329.97 416.71 L 331.44 417.77 L 332.92 407.92 L 334.39 414.27 L 335.86 399.08 L 337.33 401.01 L 338.81 403.49 L 340.28 398.14 L 341.75 392.42 L 343.22 399.88 L 344.69 401.40 L 346.17 395.27 L 347.64 397.36 L 349.11 403.49 L 350.58 402.45 L 352.06 405.56 L 353.53 395.16 L 355.00 404.55 L 356.47 407.04 L 357.94 408.40 L 359.42 407.04 L 360.89 398.10 L 362.36 405.86 L 363.83 392.03 L 365.31 397.71 L 366.78 400.19 L 368.25 400.79 L 369.72 406.23 L 371.19 425.13 L 372.67 433.79 L 374.14 439.62 L 375.61 430.06 L 377.08 435.22 L 378.56 420.88 L 380.03 409.05 L 381.50 399.38 L 382.97 399.13 L 384.44 402.60 L 385.92 408.18 L 387.39 408.23 L 388.86 412.33 L 390.33 410.24 L 391.81 405.47 L 393.28 406.92 L 394.75 399.63 L 396.22 400.42 L 397.69 409.82 L 399.17 399.03 L 400.64 409.52 L 402.11 397.29 L 403.58 404.74 L 405.06 399.02 L 406.53 394.26 L 408.00 407.84 L 409.47 412.51 L 410.94 401.71 L 412.42 410.84 L 413.89 401.45 L 415.36 406.84 L 416.83 402.44 L 418.31 398.62 L 419.78 403.03 L 421.25 406.45 L 422.72 395.98 L 424.19 402.43 L 425.67 399.94 L 427.14 398.90 L 428.61 387.16 L 430.08 400.30 L 431.56 398.04 L 433.03 398.33 L 434.50 401.94 L 435.97 398.74 L 437.44 404.25 L 438.92 402.08 L 440.39 401.87 L 441.86 406.10 L 443.33 404.68 L 444.81 403.40 L 446.28 403.11 L 447.75 401.61 L 449.22 403.69 L 450.69 402.26 L 452.17 400.75 L 453.64 402.16 L 455.11 402.11 L 456.58 401.89 L 458.06 402.09 L 459.53 402.04 L 461.00 402.41 L 462.47 401.93 L 463.94 401.94 L 465.42 402.72 L 466.89 401.51 L 468.36 402.96 L 469.83 401.72 L 471.31 402.14 L 472.78 402.37 L 474.25 402.21 L 475.72 402.50 L 477.19 402.53 L 478.67 402.37 L 480.14 402.73 L 481.61 402.84 L 483.08 402.00 L 484.56 402.82 L 486.03 402.85 L 487.50 403.68 L 488.97 402.71 L 490.44 402.76 L 491.92 403.30 L 493.39 403.30 L 494.86 403.30 L 496.33 404.71 L 497.81 402.90 L 499.28 401.33 L 500.75 394.09 L 502.22 405.08 L 503.69 401.82 L 505.17 405.14 L 506.64 406.82 L 508.11 402.42 L 509.58 402.64 L 511.06 403.52 L 512.53 402.18 L 514.00 402.63 L 515.47 402.97 L 516.94 402.89 L 518.42 402.90 L 519.89 402.80 L 521.36 402.94 L 522.83 402.66 L 524.31 400.98 L 525.78 399.62 L 527.25 395.36 L 528.72 401.55 L 530.19 400.61 L 531.67 398.15 L 533.14 395.15 L 534.61 397.14 L 536.08 391.78 L 537.56 393.06 L 539.03 413.10 L 540.50 422.19 L 541.97 415.22 L 543.44 413.60 L 544.92 425.62 L 546.39 433.30 L 547.86 435.93 L 549.33 435.67 L 550.81 439.47 L 552.28 424.30 L 553.75 406.81 L 555.22 423.68 L 556.69 423.19 L 558.17 404.56 L 559.64 391.47 L 561.11 403.69 L 562.58 398.94 L 564.06 394.22 L 565.53 397.21 L 567.00 372.57 L 568.47 396.31 L 569.94 387.30 L 571.42 404.39 L 572.89 405.75 L 574.36 386.04 L 575.83 390.47 L 577.31 399.89 L 578.78 400.04 L 580.25 416.99 L 581.72 404.80 L 583.19 411.57 L 584.67 401.83 L 586.14 408.92 L 587.61 413.50 L 589.08 409.33 L 590.56 406.90 L 592.03 403.88 L 593.50 399.14 L 594.97 399.38 L 596.44 402.02 L 597.92 406.59 L 599.39 409.69 L 600.86 409.96 L 602.33 407.64 L 603.81 406.19 L 605.28 406.49 L 606.75 411.62 L 608.22 397.07 L 609.69 416.24 L 611.17 419.76 L 612.64 407.19 L 614.11 414.21 L 615.58 416.71 L 617.06 412.93 L 618.53 421.63 L 620.00 414.84 L 621.47 399.54 L 622.94 402.90 L 624.42 400.25 L 625.89 406.37 L 627.36 424.55 L 628.83 415.08 L 630.31 411.98 L 631.78 416.49 L 633.25 417.45 L 634.72 428.53 L 636.19 414.06 L 637.67 420.08 L 639.14 414.71 L 640.61 407.82 L 642.08 404.47 L 643.56 410.77 L 645.03 409.97 L 646.50 402.59 L 647.97 409.47 L 649.44 409.18 L 650.92 408.34 L 652.39 414.47 L 653.86 417.33 L 655.33 414.15 L 656.81 414.83 L 658.28 418.15 L 659.75 414.87 L 661.22 415.69 L 662.69 420.18 L 664.17 414.16 L 665.64 411.33 L 667.11 411.67 L 668.58 413.71 L 670.06 405.11 L 671.53 410.70 L 673.00 410.45 L 674.47 411.46 L 675.94 405.55 L 677.42 404.91 L 678.89 405.27 L 680.36 402.09 L 681.83 400.48 L 683.31 405.10 L 684.78 402.31 L 686.25 404.95 L 687.72 411.00 L 689.19 410.37 L 690.67 405.25 L 692.14 408.23 L 693.61 407.21 L 695.08 408.59 L 696.56 421.73 L 698.03 419.81 L 699.50 417.28 L 700.97 427.53 L 702.44 444.04 L 703.92 446.57 L 705.39 438.96 L 706.86 445.58 L 708.33 442.13 L 709.81 438.54 L 711.28 412.23 L 712.75 388.73 L 714.22 373.08 L 715.69 381.05 L 717.17 369.20 L 718.64 369.29 L 720.11 364.57 L 721.58 379.19 L 723.06 419.89 L 724.53 419.69 L 726.00 428.29 L 727.47 438.62 L 728.94 449.26 L 730.42 422.07 L 731.89 408.13 L 733.36 415.15 L 734.83 413.01 L 736.31 411.20 L 737.78 416.29 L 739.25 410.79 L 740.72 404.90 L 742.19 406.08 L 743.67 403.63 L 745.14 396.71 L 746.61 396.90 L 748.08 397.73 L 749.56 397.90 L 751.03 396.55 L 752.50 399.94 L 753.97 402.19 L 755.44 405.34 L 756.92 407.86 L 758.39 405.11 L 759.86 398.66 L 761.33 401.09" stroke="#6A1B9A" />
<line x1="900.00" y1="307.75" x2="918.00" y2="307.75" stroke="#2E7D32" stroke-width="3" />
<text class="small" x="924.00" y="311.75">pitch</text>
<line x1="900.00" y1="323.75" x2="918.00" y2="323.75" stroke="#6A1B9A" stroke-width="3" />
<text class="small" x="924.00" y="327.75">roll</text>
<text x="90" y="500.50" font-size="14" font-weight="700">Aceleração (magnitude) (u.a.)</text>
<rect class="event" x="443.33" y="506.50" width="53.00" height="192.75" />
<line class="eventline" x1="443.33" y1="506.50" x2="443.33" y2="699.25" />
<line class="eventline" x1="496.33" y1="506.50" x2="496.33" y2="699.25" />
<line class="grid" x1="90" y1="699.25" x2="1150" y2="699.25" />
<text class="small" x="80" y="703.25" text-anchor="end">0.00</text>
<line class="grid" x1="90" y1="660.70" x2="1150" y2="660.70" />
<text class="small" x="80" y="664.70" text-anchor="end">0.50</text>
<line class="grid" x1="90" y1="622.15" x2="1150" y2="622.15" />
<text class="small" x="80" y="626.15" text-anchor="end">1.00</text>
<line class="grid" x1="90" y1="583.60" x2="1150" y2="583.60" />
<text class="small" x="80" y="587.60" text-anchor="end">1.50</text>
<line class="grid" x1="90" y1="545.05" x2="1150" y2="545.05" />
<text class="small" x="80" y="549.05" text-anchor="end">2.00</text>
<line class="grid" x1="90" y1="506.50" x2="1150" y2="506.50" />
<text class="small" x="80" y="510.50" text-anchor="end">2.50</text>
<line class="grid" x1="90.00" y1="506.50" x2="90.00" y2="699.25" />
<line class="grid" x1="266.67" y1="506.50" x2="266.67" y2="699.25" />
<line class="grid" x1="443.33" y1="506.50" x2="443.33" y2="699.25" />
<line class="grid" x1="620.00" y1="506.50" x2="620.00" y2="699.25" />
<line class="grid" x1="796.67" y1="506.50" x2="796.67" y2="699.25" />
<line class="grid" x1="973.33" y1="506.50" x2="973.33" y2="699.25" />
<line class="grid" x1="1150.00" y1="506.50" x2="1150.00" y2="699.25" />
<line class="axis" x1="90" y1="506.50" x2="90" y2="699.25" />
<line class="axis" x1="90" y1="699.25" x2="1150" y2="699.25" />
<path class="series" d="M 178.33 688.66 L 179.81 691.79 L 181.28 696.61 L 182.75 694.03 L 184.22 689.81 L 185.69 688.43 L 187.17 693.33 L 188.64 690.66 L 190.11 692.01 L 191.58 693.53 L 193.06 684.80 L 194.53 691.82 L 196.00 684.84 L 197.47 690.64 L 198.94 682.31 L 200.42 694.90 L 201.89 696.92 L 203.36 687.89 L 204.83 693.86 L 206.31 693.95 L 207.78 693.00 L 209.25 695.79 L 210.72 688.72 L 212.19 694.15 L 213.67 687.94 L 215.14 688.48 L 216.61 693.52 L 218.08 688.58 L 219.56 692.83 L 221.03 687.26 L 222.50 689.58 L 223.97 693.07 L 225.44 689.96 L 226.92 697.51 L 228.39 691.08 L 229.86 692.93 L 231.33 693.37 L 232.81 688.62 L 234.28 692.32 L 235.75 691.31 L 237.22 691.52 L 238.69 690.81 L 240.17 688.65 L 241.64 693.61 L 243.11 690.80 L 244.58 694.05 L 246.06 686.31 L 247.53 694.48 L 249.00 694.47 L 250.47 691.22 L 251.94 692.09 L 253.42 692.85 L 254.89 694.74 L 256.36 695.88 L 257.83 688.13 L 259.31 691.76 L 260.78 686.85 L 262.25 691.94 L 263.72 690.33 L 265.19 685.89 L 266.67 691.42 L 268.14 694.33 L 269.61 691.78 L 271.08 687.94 L 272.56 669.93 L 274.03 682.10 L 275.50 690.23 L 276.97 680.60 L 278.44 690.67 L 279.92 678.77 L 281.39 680.14 L 282.86 672.41 L 284.33 681.07 L 285.81 680.63 L 287.28 683.06 L 288.75 676.57 L 290.22 663.86 L 291.69 677.04 L 293.17 672.57 L 294.64 672.91 L 296.11 652.06 L 297.58 650.85 L 299.06 683.68 L 300.53 676.56 L 302.00 682.53 L 303.47 671.97 L 304.94 688.84 L 306.42 661.64 L 307.89 687.10 L 309.36 657.86 L 310.83 648.08 L 312.31 635.51 L 313.78 659.09 L 315.25 659.09 L 316.72 653.99 L 318.19 677.88 L 319.67 676.71 L 321.14 662.48 L 322.61 652.27 L 324.08 676.30 L 325.56 672.61 L 327.03 683.88 L 328.50 673.68 L 329.97 673.54 L 331.44 675.56 L 332.92 696.03 L 334.39 691.08 L 335.86 687.98 L 337.33 682.15 L 338.81 681.74 L 340.28 667.82 L 341.75 665.97 L 343.22 686.06 L 344.69 667.62 L 346.17 674.94 L 347.64 673.97 L 349.11 678.89 L 350.58 676.76 L 352.06 676.22 L 353.53 668.00 L 355.00 686.43 L 356.47 680.56 L 357.94 675.88 L 359.42 656.95 L 360.89 648.48 L 362.36 623.84 L 363.83 672.68 L 365.31 664.20 L 366.78 675.02 L 368.25 683.39 L 369.72 688.72 L 371.19 636.53 L 372.67 646.75 L 374.14 647.88 L 375.61 642.05 L 377.08 644.17 L 378.56 634.38 L 380.03 630.19 L 381.50 623.06 L 382.97 630.78 L 384.44 682.36 L 385.92 633.18 L 387.39 680.58 L 388.86 688.83 L 390.33 688.88 L 391.81 686.31 L 393.28 696.29 L 394.75 690.90 L 396.22 688.95 L 397.69 692.22 L 399.17 697.35 L 400.64 679.71 L 402.11 674.50 L 403.58 689.43 L 405.06 661.51 L 406.53 663.29 L 408.00 693.50 L 409.47 692.92 L 410.94 676.31 L 412.42 679.22 L 413.89 688.48 L 415.36 692.96 L 416.83 692.58 L 418.31 692.03 L 419.78 690.60 L 421.25 687.70 L 422.72 684.63 L 424.19 694.90 L 425.67 696.14 L 427.14 693.29 L 428.61 655.67 L 430.08 682.83 L 431.56 688.95 L 433.03 694.88 L 434.50 691.44 L 435.97 695.73 L 437.44 691.89 L 438.92 694.78 L 440.39 694.15 L 441.86 685.55 L 443.33 690.53 L 444.81 692.43 L 446.28 697.71 L 447.75 695.00 L 449.22 696.37 L 450.69 697.48 L 452.17 695.03 L 453.64 698.80 L 455.11 698.68 L 456.58 698.45 L 458.06 698.81 L 459.53 697.86 L 461.00 693.81 L 462.47 694.78 L 463.94 696.46 L 465.42 697.92 L 466.89 691.10 L 468.36 695.27 L 469.83 694.96 L 471.31 697.23 L 472.78 697.78 L 474.25 697.83 L 475.72 695.90 L 477.19 698.37 L 478.67 697.96 L 480.14 698.37 L 481.61 698.37 L 483.08 692.34 L 484.56 694.53 L 486.03 696.36 L 487.50 697.45 L 488.97 698.45 L 490.44 697.79 L 491.92 697.74 L 493.39 698.30 L 494.86 698.52 L 496.33 678.25 L 497.81 663.27 L 499.28 683.25 L 500.75 666.96 L 502.22 666.54 L 503.69 674.25 L 505.17 670.21 L 506.64 683.03 L 508.11 676.16 L 509.58 679.94 L 511.06 674.49 L 512.53 693.54 L 514.00 698.03 L 515.47 694.84 L 516.94 696.66 L 518.42 698.57 L 519.89 697.99 L 521.36 694.79 L 522.83 698.30 L 524.31 684.09 L 525.78 673.57 L 527.25 683.88 L 528.72 684.07 L 530.19 666.49 L 531.67 660.06 L 533.14 660.74 L 534.61 672.91 L 536.08 653.96 L 537.56 649.26 L 539.03 647.29 L 540.50 636.92 L 541.97 676.64 L 543.44 672.85 L 544.92 657.04 L 546.39 656.44 L 547.86 626.42 L 549.33 654.66 L 550.81 651.04 L 552.28 656.13 L 553.75 659.27 L 555.22 684.16 L 556.69 692.98 L 558.17 613.19 L 559.64 604.52 L 561.11 663.59 L 562.58 656.27 L 564.06 629.13 L 565.53 635.81 L 567.00 632.66 L 568.47 676.52 L 569.94 672.50 L 571.42 656.73 L 572.89 654.10 L 574.36 634.08 L 575.83 649.40 L 577.31 659.53 L 578.78 660.20 L 580.25 673.31 L 581.72 677.11 L 583.19 682.95 L 584.67 598.22 L 586.14 620.26 L 587.61 678.60 L 589.08 667.80 L 590.56 665.19 L 592.03 672.69 L 593.50 663.54 L 594.97 672.60 L 596.44 679.00 L 597.92 679.64 L 599.39 670.21 L 600.86 685.30 L 602.33 695.23 L 603.81 690.41 L 605.28 691.94 L 606.75 688.58 L 608.22 691.49 L 609.69 661.55 L 611.17 693.12 L 612.64 673.20 L 614.11 685.20 L 615.58 686.61 L 617.06 659.98 L 618.53 683.44 L 620.00 667.61 L 621.47 663.09 L 622.94 673.76 L 624.42 681.81 L 625.89 679.33 L 627.36 662.06 L 628.83 669.72 L 630.31 694.28 L 631.78 687.36 L 633.25 632.98 L 634.72 663.86 L 636.19 670.08 L 637.67 679.76 L 639.14 672.64 L 640.61 683.56 L 642.08 679.01 L 643.56 685.28 L 645.03 680.10 L 646.50 692.88 L 647.97 679.56 L 649.44 695.13 L 650.92 695.13 L 652.39 690.86 L 653.86 678.75 L 655.33 687.06 L 656.81 680.10 L 658.28 681.88 L 659.75 687.69 L 661.22 687.23 L 662.69 684.15 L 664.17 675.44 L 665.64 688.31 L 667.11 677.37 L 668.58 697.20 L 670.06 688.65 L 671.53 672.50 L 673.00 688.07 L 674.47 675.95 L 675.94 678.46 L 677.42 677.72 L 678.89 689.68 L 680.36 683.07 L 681.83 690.25 L 683.31 682.28 L 684.78 679.85 L 686.25 690.24 L 687.72 690.64 L 689.19 684.01 L 690.67 680.28 L 692.14 680.99 L 693.61 693.33 L 695.08 696.51 L 696.56 679.48 L 698.03 674.22 L 699.50 683.97 L 700.97 646.44 L 702.44 652.37 L 703.92 623.30 L 705.39 633.46 L 706.86 621.15 L 708.33 640.42 L 709.81 653.95 L 711.28 628.51 L 712.75 612.22 L 714.22 566.57 L 715.69 576.78 L 717.17 596.52 L 718.64 623.89 L 720.11 593.50 L 721.58 620.05 L 723.06 623.84 L 724.53 572.81 L 726.00 609.83 L 727.47 605.66 L 728.94 611.31 L 730.42 657.36 L 731.89 633.80 L 733.36 685.91 L 734.83 657.19 L 736.31 683.59 L 737.78 680.72 L 739.25 677.28 L 740.72 691.59 L 742.19 685.00 L 743.67 683.45 L 745.14 671.62 L 746.61 687.44 L 748.08 677.01 L 749.56 681.45 L 751.03 684.15 L 752.50 675.78 L 753.97 681.80 L 755.44 684.42 L 756.92 688.48 L 758.39 696.08 L 759.86 685.90 L 761.33 687.94" stroke="#FB8C00" />
<text x="90" y="711.25" font-size="14" font-weight="700">Giroscópio (magnitude) (u.a.)</text>
<rect class="event" x="443.33" y="717.25" width="53.00" height="192.75" />
<line class="eventline" x1="443.33" y1="717.25" x2="443.33" y2="910.00" />
<line class="eventline" x1="496.33" y1="717.25" x2="496.33" y2="910.00" />
<line class="grid" x1="90" y1="910.00" x2="1150" y2="910.00" />
<text class="small" x="80" y="914.00" text-anchor="end">0.00</text>
<line class="grid" x1="90" y1="871.45" x2="1150" y2="871.45" />
<text class="small" x="80" y="875.45" text-anchor="end">0.10</text>
<line class="grid" x1="90" y1="832.90" x2="1150" y2="832.90" />
<text class="small" x="80" y="836.90" text-anchor="end">0.20</text>
<line class="grid" x1="90" y1="794.35" x2="1150" y2="794.35" />
<text class="small" x="80" y="798.35" text-anchor="end">0.30</text>
<line class="grid" x1="90" y1="755.80" x2="1150" y2="755.80" />
<text class="small" x="80" y="759.80" text-anchor="end">0.40</text>
<line class="grid" x1="90" y1="717.25" x2="1150" y2="717.25" />
<text class="small" x="80" y="721.25" text-anchor="end">0.50</text>
<line class="grid" x1="90.00" y1="717.25" x2="90.00" y2="910.00" />
<line class="grid" x1="266.67" y1="717.25" x2="266.67" y2="910.00" />
<line class="grid" x1="443.33" y1="717.25" x2="443.33" y2="910.00" />
<line class="grid" x1="620.00" y1="717.25" x2="620.00" y2="910.00" />
<line class="grid" x1="796.67" y1="717.25" x2="796.67" y2="910.00" />
<line class="grid" x1="973.33" y1="717.25" x2="973.33" y2="910.00" />
<line class="grid" x1="1150.00" y1="717.25" x2="1150.00" y2="910.00" />
<line class="axis" x1="90" y1="717.25" x2="90" y2="910.00" />
<line class="axis" x1="90" y1="910.00" x2="1150" y2="910.00" />
<path class="series" d="M 178.33 904.82 L 179.81 908.26 L 181.28 906.69 L 182.75 907.96 L 184.22 905.61 L 185.69 902.79 L 187.17 899.07 L 188.64 902.52 L 190.11 901.24 L 191.58 905.89 L 193.06 904.97 L 194.53 903.08 L 196.00 905.78 L 197.47 906.59 L 198.94 906.23 L 200.42 906.97 L 201.89 906.24 L 203.36 907.21 L 204.83 905.42 L 206.31 906.15 L 207.78 906.99 L 209.25 905.62 L 210.72 905.68 L 212.19 904.59 L 213.67 904.82 L 215.14 906.05 L 216.61 908.10 L 218.08 908.04 L 219.56 907.18 L 221.03 906.02 L 222.50 908.23 L 223.97 906.74 L 225.44 906.35 L 226.92 904.49 L 228.39 907.24 L 229.86 907.21 L 231.33 906.95 L 232.81 907.44 L 234.28 905.95 L 235.75 907.64 L 237.22 907.16 L 238.69 905.54 L 240.17 907.86 L 241.64 907.77 L 243.11 905.88 L 244.58 906.71 L 246.06 907.10 L 247.53 904.66 L 249.00 904.64 L 250.47 904.91 L 251.94 904.94 L 253.42 905.32 L 254.89 905.15 L 256.36 905.25 L 257.83 903.30 L 259.31 903.44 L 260.78 904.10 L 262.25 902.95 L 263.72 903.42 L 265.19 902.77 L 266.67 900.58 L 268.14 898.53 L 269.61 900.83 L 271.08 898.43 L 272.56 900.14 L 274.03 902.20 L 275.50 897.37 L 276.97 903.83 L 278.44 901.30 L 279.92 903.49 L 281.39 899.56 L 282.86 899.15 L 284.33 894.55 L 285.81 898.45 L 287.28 901.79 L 288.75 900.40 L 290.22 898.29 L 291.69 900.20 L 293.17 896.70 L 294.64 902.43 L 296.11 903.63 L 297.58 907.70 L 299.06 905.43 L 300.53 902.25 L 302.00 901.68 L 303.47 907.07 L 304.94 906.23 L 306.42 905.70 L 307.89 897.18 L 309.36 903.83 L 310.83 891.23 L 312.31 871.20 L 313.78 858.35 L 315.25 858.35 L 316.72 857.79 L 318.19 856.15 L 319.67 852.66 L 321.14 864.10 L 322.61 883.79 L 324.08 896.14 L 325.56 892.43 L 327.03 890.60 L 328.50 891.21 L 329.97 896.82 L 331.44 892.67 L 332.92 880.85 L 334.39 878.64 L 335.86 874.40 L 337.33 867.93 L 338.81 872.33 L 340.28 880.05 L 341.75 886.81 L 343.22 888.37 L 344.69 888.39 L 346.17 899.79 L 347.64 905.79 L 349.11 904.28 L 350.58 906.81 L 352.06 905.99 L 353.53 905.20 L 355.00 899.59 L 356.47 902.02 L 357.94 896.33 L 359.42 897.83 L 360.89 883.32 L 362.36 882.42 L 363.83 881.63 L 365.31 885.13 L 366.78 887.41 L 368.25 886.56 L 369.72 885.53 L 371.19 896.75 L 372.67 861.35 L 374.14 843.78 L 375.61 828.39 L 377.08 810.91 L 378.56 806.08 L 380.03 823.85 L 381.50 855.87 L 382.97 883.99 L 384.44 903.75 L 385.92 908.17 L 387.39 908.04 L 388.86 907.56 L 390.33 893.52 L 391.81 880.11 L 393.28 878.04 L 394.75 872.82 L 396.22 875.79 L 397.69 877.10 L 399.17 871.18 L 400.64 871.52 L 402.11 876.77 L 403.58 874.10 L 405.06 884.42 L 406.53 892.35 L 408.00 888.09 L 409.47 881.85 L 410.94 873.36 L 412.42 873.16 L 413.89 869.52 L 415.36 872.32 L 416.83 866.09 L 418.31 872.35 L 419.78 874.44 L 421.25 870.07 L 422.72 864.51 L 424.19 863.17 L 425.67 865.22 L 427.14 864.51 L 428.61 873.97 L 430.08 894.81 L 431.56 903.82 L 433.03 909.04 L 434.50 903.55 L 435.97 897.20 L 437.44 896.81 L 438.92 900.16 L 440.39 901.69 L 441.86 904.05 L 443.33 908.53 L 444.81 909.02 L 446.28 908.44 L 447.75 907.46 L 449.22 908.92 L 450.69 908.91 L 452.17 909.11 L 453.64 909.31 L 455.11 909.03 L 456.58 909.09 L 458.06 909.11 L 459.53 909.27 L 461.00 908.75 L 462.47 909.07 L 463.94 909.10 L 465.42 909.08 L 466.89 908.90 L 468.36 909.12 L 469.83 908.91 L 471.31 909.15 L 472.78 909.06 L 474.25 909.08 L 475.72 909.17 L 477.19 909.08 L 478.67 909.12 L 480.14 909.13 L 481.61 909.13 L 483.08 908.99 L 484.56 908.83 L 486.03 909.09 L 487.50 908.30 L 488.97 909.16 L 490.44 909.07 L 491.92 908.89 L 493.39 908.83 L 494.86 908.93 L 496.33 905.72 L 497.81 906.87 L 499.28 907.57 L 500.75 895.15 L 502.22 892.09 L 503.69 894.57 L 505.17 900.47 L 506.64 907.99 L 508.11 908.09 L 509.58 908.66 L 511.06 909.14 L 512.53 908.95 L 514.00 908.80 L 515.47 908.73 L 516.94 909.05 L 518.42 908.83 L 519.89 908.67 L 521.36 908.98 L 522.83 909.11 L 524.31 909.33 L 525.78 902.66 L 527.25 894.92 L 528.72 889.56 L 530.19 888.09 L 531.67 886.39 L 533.14 875.56 L 534.61 863.33 L 536.08 859.07 L 537.56 853.84 L 539.03 873.72 L 540.50 901.19 L 541.97 888.42 L 543.44 884.15 L 544.92 872.91 L 546.39 871.37 L 547.86 852.46 L 549.33 847.46 L 550.81 848.96 L 552.28 854.42 L 553.75 889.27 L 555.22 883.75 L 556.69 891.14 L 558.17 905.43 L 559.64 875.28 L 561.11 872.97 L 562.58 868.80 L 564.06 856.48 L 565.53 837.49 L 567.00 822.95 L 568.47 861.31 L 569.94 864.89 L 571.42 878.81 L 572.89 885.04 L 574.36 870.38 L 575.83 856.30 L 577.31 879.03 L 578.78 887.17 L 580.25 887.75 L 581.72 891.26 L 583.19 887.72 L 584.67 887.10 L 586.14 893.51 L 587.61 899.75 L 589.08 898.46 L 590.56 886.15 L 592.03 889.80 L 593.50 899.17 L 594.97 896.63 L 596.44 893.00 L 597.92 891.13 L 599.39 897.72 L 600.86 897.47 L 602.33 896.19 L 603.81 897.44 L 605.28 904.01 L 606.75 902.93 L 608.22 896.73 L 609.69 903.77 L 611.17 892.34 L 612.64 889.94 L 614.11 902.03 L 615.58 901.01 L 617.06 901.54 L 618.53 899.60 L 620.00 898.24 L 621.47 897.65 L 622.94 895.51 L 624.42 896.28 L 625.89 897.15 L 627.36 900.24 L 628.83 903.08 L 630.31 901.54 L 631.78 900.05 L 633.25 894.08 L 634.72 891.51 L 636.19 903.54 L 637.67 901.62 L 639.14 906.61 L 640.61 894.38 L 642.08 899.29 L 643.56 902.54 L 645.03 898.34 L 646.50 903.24 L 647.97 907.26 L 649.44 906.55 L 650.92 906.55 L 652.39 903.84 L 653.86 898.13 L 655.33 900.35 L 656.81 900.15 L 658.28 905.90 L 659.75 904.78 L 661.22 902.49 L 662.69 902.81 L 664.17 903.78 L 665.64 901.92 L 667.11 899.57 L 668.58 898.57 L 670.06 894.31 L 671.53 902.60 L 673.00 906.41 L 674.47 903.52 L 675.94 900.83 L 677.42 896.02 L 678.89 896.63 L 680.36 893.85 L 681.83 896.16 L 683.31 901.47 L 684.78 906.50 L 686.25 907.02 L 687.72 902.79 L 689.19 904.14 L 690.67 899.61 L 692.14 905.56 L 693.61 905.54 L 695.08 904.20 L 696.56 903.45 L 698.03 890.88 L 699.50 890.88 L 700.97 881.49 L 702.44 865.31 L 703.92 842.52 L 705.39 848.47 L 706.86 824.67 L 708.33 813.07 L 709.81 824.76 L 711.28 844.52 L 712.75 887.61 L 714.22 887.56 L 715.69 849.53 L 717.17 833.27 L 718.64 814.78 L 720.11 797.08 L 721.58 800.60 L 723.06 850.74 L 724.53 888.26 L 726.00 868.10 L 727.47 843.27 L 728.94 830.87 L 730.42 839.80 L 731.89 895.31 L 733.36 902.76 L 734.83 901.76 L 736.31 901.68 L 737.78 899.11 L 739.25 898.34 L 740.72 900.26 L 742.19 900.53 L 743.67 903.61 L 745.14 896.62 L 746.61 903.89 L 748.08 905.59 L 749.56 905.28 L 751.03 906.98 L 752.50 902.23 L 753.97 907.63 L 755.44 901.50 L 756.92 901.45 L 758.39 904.49 L 759.86 906.75 L 761.33 906.01" stroke="#E53935" />
<text x="620.00" y="952" font-size="15" text-anchor="middle">minutos (relativo ao início do evento)</text>
<text class="small" x="90.00" y="936" text-anchor="middle">-4.00</text>
<text class="small" x="266.67" y="936" text-anchor="middle">-2.00</text>
<text class="small" x="443.33" y="936" text-anchor="middle">0.00</text>
<text class="small" x="620.00" y="936" text-anchor="middle">2.00</text>
<text class="small" x="796.67" y="936" text-anchor="middle">4.00</text>
<text class="small" x="973.33" y="936" text-anchor="middle">6.00</text>
<text class="small" x="1150.00" y="936" text-anchor="middle">8.00</text>
</svg>