<?xml version="1.0" encoding="UTF-8"?>
<svg xmlns="http://www.w3.org/2000/svg" width="1180" height="980" viewBox="0 0 1180 980">
<style>
text { font-family: -apple-system, BlinkMacSystemFont, 'Segoe UI', Roboto, Helvetica, Arial, sans-serif; fill: #111; }
.small { font-size: 12px; fill: #222; }
.title { font-size: 18px; font-weight: 700; }
.axis { stroke: #111; stroke-width: 1.4; }
.grid { stroke: #E6E6E6; stroke-width: 1; }
.event { fill: #FFEB3B; fill-opacity: 0.18; }
.eventline { stroke: #F9A825; stroke-width: 1.2; stroke-dasharray: 4 3; }
.series { fill: none; stroke-width: 1.8; }
</style>
<text class="title" x="90" y="34">ciclo 38 — carregamento — 2025-12-13T08:46:48-03:00 → 2025-12-13T08:53:29-03:00 (span 401s, dur 390s)</text>
<text class="small" x="90" y="54">GPS: -11.698960,-47.157143  hotspot: -11.699,-47.157</text>
<text class="small" x="90" y="70">Janela: -3.00 → 9.68 min (relativo ao início do evento)</text>
<text x="90" y="79.00" font-size="14" font-weight="700">Velocidade (km/h)</text>
<rect class="event" x="266.67" y="85.00" width="236.14" height="192.75" />
<line class="eventline" x1="266.67" y1="85.00" x2="266.67" y2="277.75" />
<line class="eventline" x1="502.81" y1="85.00" x2="502.81" y2="277.75" />
<line class="grid" x1="90" y1="277.75" x2="1150" y2="277.75" />
<text class="small" x="80" y="281.75" text-anchor="end">0.00</text>
<line class="grid" x1="90" y1="239.20" x2="1150" y2="239.20" />
<text class="small" x="80" y="243.20" text-anchor="end">10.0</text>
<line class="grid" x1="90" y1="200.65" x2="1150" y2="200.65" />
<text class="small" x="80" y="204.65" text-anchor="end">20.0</text>
<line class="grid" x1="90" y1="162.10" x2="1150" y2="162.10" />
<text class="small" x="80" y="166.10" text-anchor="end">30.0</text>
<line class="grid" x1="90" y1="123.55" x2="1150" y2="123.55" />
<text class="small" x="80" y="127.55" text-anchor="end">40.0</text>
<line class="grid" x1="90" y1="85.00" x2="1150" y2="85.00" />
<text class="small" x="80" y="89.00" text-anchor="end">50.0</text>
<line class="grid" x1="90.00" y1="85.00" x2="90.00" y2="277.75" />
<line class="grid" x1="266.67" y1="85.00" x2="266.67" y2="277.75" />
<line class="grid" x1="443.33" y1="85.00" x2="443.33" y2="277.75" />
<line class="grid" x1="620.00" y1="85.00" x2="620.00" y2="277.75" />
<line class="grid" x1="796.67" y1="85.00" x2="796.67" y2="277.75" />
<line class="grid" x1="973.33" y1="85.00" x2="973.33" y2="277.75" />
<line class="grid" x1="1150.00" y1="85.00" x2="1150.00" y2="277.75" />
<line class="axis" x1="90" y1="85.00" x2="90" y2="277.75" />
<line class="axis" x1="90" y1="277.75" x2="1150" y2="277.75" />
<path class="series" d="M 160.67 163.81 L 161.26 165.06 L 161.84 168.81 L 162.43 168.53 L 163.02 170.47 L 163.61 175.19 L 164.20 183.38 L 164.79 185.32 L 165.38 182.55 L 165.97 181.02 L 166.56 186.57 L 167.14 189.07 L 167.73 188.93 L 168.32 192.82 L 168.91 192.40 L 169.50 191.98 L 170.09 196.29 L 170.68 196.01 L 171.27 197.54 L 171.86 193.51 L 172.44 189.62 L 173.03 185.46 L 173.62 173.66 L 174.21 164.51 L 174.80 163.40 L 175.39 166.31 L 175.98 165.89 L 176.57 157.98 L 177.16 161.87 L 177.74 157.84 L 178.33 150.07 L 178.92 145.91 L 179.51 155.62 L 180.10 168.81 L 180.69 167.14 L 181.28 170.61 L 181.87 172.97 L 182.46 172.97 L 183.04 183.10 L 183.63 181.99 L 184.22 181.58 L 184.81 183.24 L 185.40 187.40 L 185.99 186.16 L 186.58 192.54 L 187.17 191.15 L 187.76 191.15 L 188.34 178.94 L 188.93 173.94 L 189.52 177.13 L 190.11 174.64 L 190.70 183.80 L 191.29 190.73 L 191.88 188.93 L 192.47 183.66 L 193.06 183.80 L 193.64 187.82 L 194.23 190.73 L 194.82 191.29 L 195.41 189.21 L 196.00 193.23 L 196.59 191.01 L 197.18 198.09 L 197.77 198.09 L 198.36 193.65 L 198.94 190.73 L 199.53 188.79 L 200.12 193.09 L 200.71 196.84 L 201.30 200.17 L 201.89 199.62 L 202.48 212.52 L 203.07 214.74 L 203.66 213.08 L 204.24 214.19 L 204.83 214.47 L 205.42 216.41 L 206.01 220.71 L 206.60 223.07 L 207.19 227.23 L 207.78 233.62 L 208.37 236.67 L 208.96 237.23 L 209.54 237.64 L 210.13 237.50 L 210.72 234.73 L 211.31 238.61 L 211.90 240.14 L 212.49 236.53 L 213.08 237.64 L 213.67 234.87 L 214.26 240.42 L 214.84 233.34 L 215.43 235.14 L 216.02 233.90 L 216.61 234.59 L 217.20 232.09 L 217.79 227.37 L 218.38 224.87 L 218.97 228.07 L 219.56 227.65 L 220.14 223.49 L 220.73 221.41 L 221.32 223.76 L 221.91 226.26 L 222.50 224.60 L 223.09 229.18 L 223.68 230.84 L 224.27 233.48 L 224.86 233.34 L 225.44 235.14 L 226.03 238.48 L 226.62 244.44 L 227.21 244.86 L 227.80 237.64 L 228.39 242.64 L 228.98 246.52 L 229.57 255.82 L 230.16 249.02 L 230.74 240.14 L 231.33 241.25 L 231.92 244.44 L 232.51 256.38 L 233.10 253.32 L 233.69 255.13 L 234.28 251.24 L 234.87 243.89 L 235.46 239.72 L 236.04 253.32 L 236.63 249.99 L 237.22 249.99 L 237.81 250.69 L 238.40 259.01 L 238.99 269.28 L 239.58 264.98 L 240.17 269.42 L 240.76 269.84 L 241.34 277.75 L 241.93 277.75 L 242.52 277.75 L 243.11 277.75 L 243.70 267.62 L 244.29 267.62 L 244.88 268.59 L 245.47 267.90 L 246.06 264.57 L 246.64 262.90 L 247.23 263.59 L 247.82 260.40 L 248.41 261.10 L 249.00 262.21 L 249.59 261.79 L 250.18 262.21 L 250.77 265.40 L 251.36 264.98 L 251.94 262.62 L 252.53 261.51 L 253.12 266.65 L 253.71 267.90 L 254.30 266.51 L 254.89 267.62 L 255.48 269.15 L 256.07 270.67 L 256.66 272.06 L 257.24 271.37 L 257.83 271.92 L 258.42 277.75 L 259.01 277.75 L 259.60 277.75 L 260.19 277.75 L 260.78 277.75 L 261.37 277.75 L 261.96 277.75 L 262.54 277.75 L 263.13 277.75 L 263.72 277.75 L 264.31 277.75 L 264.90 268.17 L 265.49 270.53 L 266.08 269.28 L 266.67 277.75 L 267.26 277.75 L 267.84 277.75 L 268.43 277.75 L 269.02 277.75 L 269.61 277.75 L 270.20 277.75 L 270.79 277.75 L 271.38 277.75 L 271.97 277.75 L 272.56 277.75 L 273.14 277.75 L 273.73 277.75 L 274.32 277.75 L 274.91 277.75 L 275.50 277.75 L 276.09 277.75 L 276.68 277.75 L 277.27 277.75 L 277.86 277.75 L 278.44 277.75 L 279.03 277.75 L 279.62 277.75 L 280.21 277.75 L 280.80 277.75 L 281.39 277.75 L 281.98 277.75 L 282.57 277.75 L 283.16 277.75 L 283.74 277.75 L 284.33 277.75 L 284.92 277.75 L 285.51 277.75 L 286.10 277.75 L 286.69 277.75 L 287.28 277.75 L 287.87 277.75 L 288.46 277.75 L 289.04 277.75 L 289.63 277.75 L 290.22 277.75 L 290.81 277.75 L 291.40 277.75 L 291.99 277.75 L 292.58 277.75 L 293.17 277.75 L 293.76 277.75 L 294.34 277.75 L 294.93 277.75 L 295.52 277.75 L 296.11 277.75 L 296.70 277.75 L 297.29 277.75 L 297.88 277.75 L 298.47 277.75 L 299.06 277.75 L 299.64 277.75 L 300.23 277.75 L 300.82 277.75 L 301.41 277.75 L 302.00 277.75 L 302.59 277.75 L 303.18 277.75 L 303.77 277.75 L 304.36 277.75 L 304.94 277.75 L 305.53 277.75 L 306.12 277.75 L 306.71 277.75 L 307.30 277.75 L 307.89 277.75 L 308.48 277.75 L 309.07 277.75 L 309.66 277.75 L 310.24 277.75 L 310.83 277.75 L 311.42 277.75 L 312.01 277.75 L 312.60 277.75 L 313.19 277.75 L 313.78 277.75 L 314.37 277.75 L 314.96 277.75 L 315.54 277.75 L 316.13 277.75 L 316.72 277.75 L 317.31 277.75 L 317.90 277.75 L 318.49 277.75 L 319.08 277.75 L 319.67 277.75 L 320.26 277.75 L 320.84 277.75 L 321.43 277.75 L 322.02 277.75 L 322.61 277.75 L 323.20 277.75 L 323.79 277.75 L 324.38 277.75 L 324.97 277.75 L 325.56 277.75 L 326.14 277.75 L 326.73 277.75 L 327.32 277.75 L 327.91 277.75 L 328.50 277.75 L 329.09 277.75 L 329.68 277.75 L 330.27 277.75 L 330.86 277.75 L 331.44 277.75 L 332.03 277.75 L 332.62 277.75 L 333.21 277.75 L 333.80 277.75 L 334.39 277.75 L 334.98 277.75 L 335.57 277.75 L 336.16 277.75 L 336.74 277.75 L 337.33 277.75 L 337.92 277.75 L 338.51 277.75 L 339.10 277.75 L 339.69 277.75 L 340.28 277.75 L 340.87 277.75 L 341.46 277.75 L 342.04 277.75 L 342.63 277.75 L 343.22 277.75 L 343.81 277.75 L 344.40 277.75 L 344.99 277.75 L 345.58 277.75 L 346.17 277.75 L 346.76 277.75 L 347.34 277.75 L 347.93 277.75 L 348.52 277.75 L 349.11 277.75 L 349.70 277.75 L 350.29 277.75 L 350.88 277.75 L 351.47 277.75 L 352.06 277.75 L 352.64 277.75 L 353.23 277.75 L 353.82 277.75 L 354.41 277.75 L 355.00 277.75 L 355.59 277.75 L 356.18 277.75 L 356.77 277.75 L 357.36 277.75 L 357.94 277.75 L 358.53 277.75 L 359.12 277.75 L 359.71 277.75 L 360.30 277.75 L 360.89 277.75 L 361.48 270.26 L 362.07 261.37 L 362.66 266.37 L 363.24 267.48 L 363.83 264.57 L 364.42 263.04 L 365.01 264.98 L 365.60 265.12 L 366.19 269.70 L 366.78 272.20 L 367.37 270.95 L 367.96 270.39 L 368.54 277.75 L 369.13 277.75 L 369.72 277.75 L 370.31 277.75 L 370.90 277.75 L 371.49 277.75 L 372.08 277.75 L 372.67 277.75 L 373.26 277.75 L 373.84 277.75 L 374.43 277.75 L 375.02 277.75 L 375.61 277.75 L 376.20 277.75 L 376.79 277.75 L 377.38 277.75 L 377.97 277.75 L 378.56 277.75 L 379.14 277.75 L 379.73 277.75 L 380.32 277.75 L 380.91 277.75 L 381.50 277.75 L 382.09 277.75 L 382.68 277.75 L 383.27 277.75 L 383.86 277.75 L 384.44 277.75 L 385.03 277.75 L 385.62 277.75 L 386.21 277.75 L 386.80 277.75 L 387.39 277.75 L 387.98 277.75 L 388.57 277.75 L 389.16 277.75 L 389.74 277.75 L 390.33 277.75 L 390.92 277.75 L 391.51 277.75 L 392.10 277.75 L 392.69 277.75 L 393.28 277.75 L 393.87 277.75 L 394.46 277.75 L 395.04 277.75 L 395.63 277.75 L 396.22 277.75 L 396.81 277.75 L 397.40 277.75 L 397.99 277.75 L 398.58 277.75 L 399.17 277.75 L 399.76 277.75 L 400.34 277.75 L 400.93 277.75 L 401.52 277.75 L 402.11 277.75 L 402.70 277.75 L 403.29 277.75 L 403.88 277.75 L 404.47 277.75 L 405.06 277.75 L 405.64 277.75 L 406.23 277.75 L 406.82 277.75 L 407.41 277.75 L 408.00 277.75 L 408.59 277.75 L 409.18 277.75 L 409.77 277.75 L 410.36 277.75 L 410.94 277.75 L 411.53 277.75 L 412.12 277.75 L 412.71 277.75 L 413.30 277.75 L 413.89 277.75 L 414.48 277.75 L 415.07 277.75 L 415.66 277.75 L 416.24 277.75 L 416.83 277.75 L 417.42 277.75 L 418.01 277.75 L 418.60 277.75 L 419.19 277.75 L 419.78 277.75 L 420.37 277.75 L 420.96 277.75 L 421.54 277.75 L 422.13 277.75 L 422.72 277.75 L 423.31 277.75 L 423.90 277.75 L 424.49 277.75 L 425.08 277.75 L 425.67 277.75 L 426.26 277.75 L 426.84 277.75 L 427.43 277.75 L 428.02 277.75 L 428.61 277.75 L 429.20 277.75 L 429.79 277.75 L 430.38 277.75 L 430.97 277.75 L 431.56 277.75 L 432.14 277.75 L 432.73 277.75 L 433.32 277.75 L 433.91 277.75 L 434.50 277.75 L 435.09 277.75 L 435.68 277.75 L 436.27 277.75 L 436.86 277.75 L 437.44 277.75 L 438.03 277.75 L 438.62 277.75 L 439.21 277.75 L 439.80 277.75 L 440.39 277.75 L 440.98 277.75 L 441.57 277.75 L 442.16 277.75 L 442.74 277.75 L 443.33 277.75 L 443.92 277.75 L 444.51 277.75 L 445.10 277.75 L 445.69 277.75 L 446.28 277.75 L 446.87 277.75 L 447.46 277.75 L 448.04 277.75 L 448.63 277.75 L 449.22 277.75 L 449.81 277.75 L 450.40 277.75 L 450.99 277.75 L 451.58 277.75 L 452.17 277.75 L 452.76 277.75 L 453.34 277.75 L 453.93 277.75 L 454.52 277.75 L 455.11 277.75 L 455.70 277.75 L 456.29 277.75 L 456.88 277.75 L 457.47 277.75 L 458.06 277.75 L 458.64 277.75 L 459.23 277.75 L 459.82 277.75 L 460.41 277.75 L 461.00 277.75 L 461.59 277.75 L 462.18 277.75 L 462.77 277.75 L 463.36 277.75 L 463.94 277.75 L 464.53 277.75 L 465.12 277.75 L 465.71 277.75 L 466.30 277.75 L 466.89 277.75 L 467.48 277.75 L 468.07 277.75 L 468.66 277.75 L 469.24 277.75 L 469.83 277.75 L 470.42 277.75 L 471.01 277.75 L 471.60 277.75 L 472.19 277.75 L 472.78 277.75 L 473.37 277.75 L 473.96 277.75 L 474.54 277.75 L 475.13 277.75 L 475.72 277.75 L 476.31 277.75 L 476.90 277.75 L 477.49 277.75 L 478.08 277.75 L 478.67 277.75 L 479.26 277.75 L 479.84 277.75 L 480.43 277.75 L 481.02 277.75 L 481.61 277.75 L 482.20 277.75 L 482.79 277.75 L 483.38 277.75 L 483.97 277.75 L 484.56 277.75 L 485.14 277.75 L 485.73 277.75 L 486.32 277.75 L 486.91 277.75 L 487.50 277.75 L 488.09 277.75 L 488.68 277.75 L 489.27 277.75 L 489.86 277.75 L 490.44 277.75 L 491.03 277.75 L 491.62 277.75 L 492.21 277.75 L 492.80 277.75 L 493.39 277.75 L 493.98 277.75 L 494.57 277.75 L 495.16 277.75 L 495.74 277.75 L 496.33 277.75 L 496.92 277.75 L 497.51 277.75 L 498.10 277.75 L 498.69 277.75 L 499.28 277.75 L 499.87 277.75 L 500.46 277.75 L 501.04 277.75 L 501.63 277.75 L 502.22 277.75 L 502.81 277.75 L 503.40 266.37 L 503.99 263.73 L 504.58 266.09 L 505.17 269.28 L 505.76 263.87 L 506.34 258.60 L 506.93 256.66 L 507.52 253.19 L 508.11 253.46 L 508.70 251.66 L 509.29 250.41 L 509.88 252.21 L 510.47 254.43 L 511.06 253.60 L 511.64 253.60 L 512.23 251.10 L 512.82 246.52 L 513.41 243.89 L 514.00 242.92 L 514.59 244.30 L 515.18 242.36 L 515.77 242.22 L 516.36 240.70 L 516.94 239.17 L 517.53 238.20 L 518.12 239.72 L 518.71 238.06 L 519.30 236.39 L 519.89 233.34 L 520.48 233.34 L 521.07 235.42 L 521.66 238.34 L 522.24 242.22 L 522.83 242.50 L 523.42 240.56 L 524.01 236.67 L 524.60 233.06 L 525.19 230.70 L 525.78 228.21 L 526.37 225.01 L 526.96 222.24 L 527.54 223.35 L 528.13 225.71 L 528.72 225.57 L 529.31 223.07 L 529.90 227.51 L 530.49 228.48 L 531.08 226.82 L 531.67 225.57 L 532.26 225.71 L 532.84 225.43 L 533.43 223.35 L 534.02 218.77 L 534.61 217.66 L 535.20 211.41 L 535.79 209.75 L 536.38 206.42 L 536.97 203.36 L 537.56 206.56 L 538.14 205.31 L 538.73 204.75 L 539.32 203.36 L 539.91 203.64 L 540.50 210.44 L 541.09 211.97 L 541.68 211.97 L 542.27 220.99 L 542.86 217.80 L 543.44 215.99 L 544.03 217.66 L 544.62 215.99 L 545.21 213.63 L 545.80 211.69 L 546.39 212.25 L 546.98 211.83 L 547.57 212.52 L 548.16 214.19 L 548.74 218.77 L 549.33 220.57 L 549.92 220.71 L 550.51 221.82 L 551.10 226.96 L 551.69 228.48 L 552.28 229.73 L 552.87 226.54 L 553.46 223.35 L 554.04 219.46 L 554.63 220.57 L 555.22 220.16 L 555.81 215.85 L 556.40 224.60 L 556.99 223.63 L 557.58 224.87 L 558.17 222.52 L 558.76 226.68 L 559.34 232.23 L 559.93 242.36 L 560.52 249.30 L 561.11 253.46 L 561.70 257.49 L 562.29 257.77 L 562.88 257.90 L 563.47 255.55 L 564.06 258.32 L 564.64 253.46 L 565.23 251.52 L 565.82 241.67 L 566.41 245.14 L 567.00 239.45 L 567.59 237.92 L 568.18 239.59 L 568.77 238.61 L 569.36 236.67 L 569.94 236.53 L 570.53 234.45 L 571.12 232.51 L 571.71 229.73 L 572.30 229.18 L 572.89 226.12 L 573.48 222.52 L 574.07 220.30 L 574.66 222.93 L 575.24 225.01 L 575.83 227.93 L 576.42 232.65 L 577.01 234.31 L 577.60 233.76 L 578.19 230.84 L 578.78 231.68 L 579.37 234.03 L 579.96 230.70 L 580.54 231.81 L 581.13 230.70 L 581.72 230.84 L 582.31 229.87 L 582.90 231.12 L 583.49 231.12 L 584.08 230.29 L 584.67 230.56 L 585.26 232.09 L 585.84 233.76 L 586.43 235.84 L 587.02 238.34 L 587.61 239.72 L 588.20 242.22 L 588.79 244.44 L 589.38 246.94 L 589.97 253.88 L 590.56 252.35 L 591.14 252.35 L 591.73 251.80 L 592.32 252.77 L 592.91 255.27 L 593.50 256.52 L 594.09 258.60 L 594.68 255.82 L 595.27 256.24 L 595.86 255.13 L 596.44 252.77 L 597.03 254.16 L 597.62 254.43 L 598.21 253.46 L 598.80 253.05 L 599.39 253.32 L 599.98 253.46 L 600.57 253.46 L 601.16 253.05 L 601.74 251.24 L 602.33 249.16 L 602.92 247.50 L 603.51 248.74 L 604.10 246.94 L 604.69 248.74 L 605.28 245.97 L 605.87 246.80 L 606.46 246.39 L 607.04 245.69 L 607.63 245.69 L 608.22 242.92 L 608.81 242.78" stroke="#1976D2" />
<text x="90" y="289.75" font-size="14" font-weight="700">Inclinação (graus)</text>
<rect class="event" x="266.67" y="295.75" width="236.14" height="192.75" />
<line class="eventline" x1="266.67" y1="295.75" x2="266.67" y2="488.50" />
<line class="eventline" x1="502.81" y1="295.75" x2="502.81" y2="488.50" />
<line class="grid" x1="90" y1="488.50" x2="1150" y2="488.50" />
<text class="small" x="80" y="492.50" text-anchor="end">-20.0</text>
<line class="grid" x1="90" y1="449.95" x2="1150" y2="449.95" />
<text class="small" x="80" y="453.95" text-anchor="end">-10.0</text>
<line class="grid" x1="90" y1="411.40" x2="1150" y2="411.40" />
<text class="small" x="80" y="415.40" text-anchor="end">0.00</text>
<line class="grid" x1="90" y1="372.85" x2="1150" y2="372.85" />
<text class="small" x="80" y="376.85" text-anchor="end">10.0</text>
<line class="grid" x1="90" y1="334.30" x2="1150" y2="334.30" />
<text class="small" x="80" y="338.30" text-anchor="end">20.0</text>
<line class="grid" x1="90" y1="295.75" x2="1150" y2="295.75" />
<text class="small" x="80" y="299.75" text-anchor="end">30.0</text>
<line class="grid" x1="90.00" y1="295.75" x2="90.00" y2="488.50" />
<line class="grid" x1="266.67" y1="295.75" x2="266.67" y2="488.50" />
<line class="grid" x1="443.33" y1="295.75" x2="443.33" y2="488.50" />
<line class="grid" x1="620.00" y1="295.75" x2="620.00" y2="488.50" />
<line class="grid" x1="796.67" y1="295.75" x2="796.67" y2="488.50" />
<line class="grid" x1="973.33" y1="295.75" x2="973.33" y2="488.50" />
<line class="grid" x1="1150.00" y1="295.75" x2="1150.00" y2="488.50" />
<line class="axis" x1="90" y1="295.75" x2="90" y2="488.50" />
<line class="axis" x1="90" y1="488.50" x2="1150" y2="488.50" />
<path class="series" d="M 160.67 373.51 L 161.26 367.76 L 161.84 365.52 L 162.43 371.38 L 163.02 368.71 L 163.61 360.86 L 164.20 361.47 L 164.79 368.67 L 165.38 367.53 L 165.97 362.64 L 166.56 363.99 L 167.14 362.15 L 167.73 362.53 L 168.32 361.77 L 168.91 368.83 L 169.50 359.46 L 170.09 361.08 L 170.68 358.58 L 171.27 354.06 L 171.86 359.62 L 172.44 355.05 L 173.03 356.15 L 173.62 358.75 L 174.21 352.26 L 174.80 336.28 L 175.39 336.52 L 175.98 336.54 L 176.57 335.33 L 177.16 352.92 L 177.74 356.31 L 178.33 351.19 L 178.92 339.17 L 179.51 327.57 L 180.10 344.41 L 180.69 345.40 L 181.28 348.05 L 181.87 344.81 L 182.46 341.19 L 183.04 358.20 L 183.63 357.75 L 184.22 359.37 L 184.81 352.73 L 185.40 360.02 L 185.99 355.70 L 186.58 366.41 L 187.17 355.20 L 187.76 351.37 L 188.34 341.84 L 188.93 340.31 L 189.52 355.79 L 190.11 356.64 L 190.70 361.35 L 191.29 379.24 L 191.88 376.33 L 192.47 376.18 L 193.06 372.28 L 193.64 357.59 L 194.23 365.91 L 194.82 373.88 L 195.41 354.79 L 196.00 372.26 L 196.59 355.63 L 197.18 369.33 L 197.77 381.99 L 198.36 374.67 L 198.94 373.56 L 199.53 367.06 L 200.12 363.45 L 200.71 359.84 L 201.30 367.97 L 201.89 342.70 L 202.48 353.34 L 203.07 359.69 L 203.66 359.93 L 204.24 364.76 L 204.83 364.00 L 205.42 359.47 L 206.01 360.28 L 206.60 359.93 L 207.19 358.23 L 207.78 357.30 L 208.37 356.61 L 208.96 353.39 L 209.54 353.35 L 210.13 359.14 L 210.72 355.50 L 211.31 363.43 L 211.90 365.65 L 212.49 358.38 L 213.08 366.16 L 213.67 370.78 L 214.26 383.43 L 214.84 370.64 L 215.43 369.52 L 216.02 369.16 L 216.61 373.60 L 217.20 367.22 L 217.79 371.21 L 218.38 362.15 L 218.97 367.76 L 219.56 378.12 L 220.14 370.55 L 220.73 363.47 L 221.32 362.38 L 221.91 369.39 L 222.50 364.11 L 223.09 358.50 L 223.68 369.89 L 224.27 376.65 L 224.86 372.04 L 225.44 368.32 L 226.03 350.96 L 226.62 365.18 L 227.21 371.68 L 227.80 356.10 L 228.39 363.34 L 228.98 354.19 L 229.57 373.88 L 230.16 381.06 L 230.74 367.72 L 231.33 355.50 L 231.92 348.36 L 232.51 368.09 L 233.10 371.28 L 233.69 379.53 L 234.28 365.07 L 234.87 345.68 L 235.46 352.91 L 236.04 371.60 L 236.63 371.60 L 237.22 367.10 L 237.81 371.42 L 238.40 367.38 L 238.99 379.18 L 239.58 393.23 L 240.17 383.16 L 240.76 384.29 L 241.34 385.17 L 241.93 389.60 L 242.52 389.46 L 243.11 390.94 L 243.70 375.15 L 244.29 390.87 L 244.88 389.64 L 245.47 383.15 L 246.06 376.22 L 246.64 385.77 L 247.23 380.56 L 247.82 376.21 L 248.41 376.31 L 249.00 372.89 L 249.59 371.33 L 250.18 373.61 L 250.77 371.13 L 251.36 368.08 L 251.94 363.25 L 252.53 376.90 L 253.12 370.65 L 253.71 372.51 L 254.30 372.10 L 254.89 371.88 L 255.48 379.14 L 256.07 373.29 L 256.66 372.65 L 257.24 376.05 L 257.83 370.72 L 258.42 374.43 L 259.01 371.42 L 259.60 372.36 L 260.19 377.27 L 260.78 366.39 L 261.37 361.86 L 261.96 370.30 L 262.54 366.20 L 263.13 364.92 L 263.72 379.12 L 264.31 371.95 L 264.90 372.60 L 265.49 373.89 L 266.08 369.63 L 266.67 366.24 L 267.26 373.18 L 267.84 374.06 L 268.43 374.46 L 269.02 372.50 L 269.61 376.81 L 270.20 373.97 L 270.79 374.41 L 271.38 374.33 L 271.97 374.45 L 272.56 374.41 L 273.14 374.48 L 273.73 374.41 L 274.32 374.43 L 274.91 374.43 L 275.50 374.45 L 276.09 374.45 L 276.68 374.43 L 277.27 374.41 L 277.86 374.43 L 278.44 374.43 L 279.03 374.36 L 279.62 374.45 L 280.21 374.27 L 280.80 374.41 L 281.39 374.33 L 281.98 374.39 L 282.57 374.36 L 283.16 374.43 L 283.74 374.38 L 284.33 374.41 L 284.92 374.37 L 285.51 374.43 L 286.10 374.38 L 286.69 374.42 L 287.28 374.48 L 287.87 374.44 L 288.46 374.46 L 289.04 374.47 L 289.63 374.46 L 290.22 374.39 L 290.81 374.47 L 291.40 374.38 L 291.99 374.43 L 292.58 374.42 L 293.17 374.42 L 293.76 374.45 L 294.34 374.45 L 294.93 374.48 L 295.52 374.45 L 296.11 374.49 L 296.70 374.42 L 297.29 374.50 L 297.88 374.39 L 298.47 374.52 L 299.06 374.43 L 299.64 374.46 L 300.23 374.46 L 300.82 374.45 L 301.41 374.42 L 302.00 374.47 L 302.59 374.48 L 303.18 374.46 L 303.77 374.52 L 304.36 374.42 L 304.94 374.46 L 305.53 374.38 L 306.12 374.45 L 306.71 374.42 L 307.30 374.48 L 307.89 374.45 L 308.48 374.45 L 309.07 374.52 L 309.66 374.43 L 310.24 374.50 L 310.83 374.43 L 311.42 374.47 L 312.01 374.45 L 312.60 374.46 L 313.19 374.42 L 313.78 374.42 L 314.37 374.46 L 314.96 374.44 L 315.54 374.46 L 316.13 374.44 L 316.72 374.47 L 317.31 374.45 L 317.90 374.47 L 318.49 374.43 L 319.08 374.47 L 319.67 374.48 L 320.26 374.42 L 320.84 374.45 L 321.43 374.43 L 322.02 374.48 L 322.61 374.42 L 323.20 374.46 L 323.79 374.41 L 324.38 374.46 L 324.97 374.44 L 325.56 374.44 L 326.14 374.40 L 326.73 374.38 L 327.32 374.42 L 327.91 374.39 L 328.50 374.49 L 329.09 374.39 L 329.68 374.50 L 330.27 374.43 L 330.86 374.49 L 331.44 374.42 L 332.03 374.51 L 332.62 374.47 L 333.21 374.46 L 333.80 374.45 L 334.39 374.46 L 334.98 374.46 L 335.57 374.47 L 336.16 374.47 L 336.74 374.42 L 337.33 374.50 L 337.92 374.45 L 338.51 374.45 L 339.10 374.48 L 339.69 374.47 L 340.28 374.45 L 340.87 374.43 L 341.46 374.44 L 342.04 374.38 L 342.63 374.42 L 343.22 374.37 L 343.81 374.43 L 344.40 374.36 L 344.99 374.42 L 345.58 374.42 L 346.17 374.36 L 346.76 374.42 L 347.34 374.43 L 347.93 374.41 L 348.52 374.44 L 349.11 374.43 L 349.70 374.43 L 350.29 374.43 L 350.88 374.39 L 351.47 374.47 L 352.06 374.46 L 352.64 374.43 L 353.23 374.40 L 353.82 374.40 L 354.41 374.41 L 355.00 374.39 L 355.59 374.46 L 356.18 374.39 L 356.77 374.41 L 357.36 374.42 L 357.94 374.41 L 358.53 374.44 L 359.12 374.45 L 359.71 374.44 L 360.30 374.19 L 360.89 366.02 L 361.48 370.05 L 362.07 362.90 L 362.66 378.98 L 363.24 362.69 L 363.83 359.07 L 364.42 358.32 L 365.01 358.62 L 365.60 354.27 L 366.19 367.55 L 366.78 356.94 L 367.37 362.58 L 367.96 362.33 L 368.54 380.60 L 369.13 364.21 L 369.72 366.55 L 370.31 365.65 L 370.90 366.20 L 371.49 365.80 L 372.08 366.02 L 372.67 366.10 L 373.26 366.00 L 373.84 366.01 L 374.43 365.99 L 375.02 366.06 L 375.61 366.06 L 376.20 365.99 L 376.79 366.06 L 377.38 366.06 L 377.97 366.00 L 378.56 366.08 L 379.14 366.20 L 379.73 366.34 L 380.32 366.37 L 380.91 366.26 L 381.50 366.19 L 382.09 366.24 L 382.68 366.18 L 383.27 366.15 L 383.86 366.10 L 384.44 366.04 L 385.03 365.99 L 385.62 367.96 L 386.21 366.73 L 386.80 366.99 L 387.39 367.08 L 387.98 367.16 L 388.57 367.14 L 389.16 367.14 L 389.74 367.16 L 390.33 367.14 L 390.92 367.15 L 391.51 367.21 L 392.10 367.12 L 392.69 367.18 L 393.28 367.18 L 393.87 367.17 L 394.46 367.17 L 395.04 367.18 L 395.63 367.15 L 396.22 367.14 L 396.81 367.18 L 397.40 367.08 L 397.99 367.16 L 398.58 367.15 L 399.17 367.21 L 399.76 367.22 L 400.34 367.03 L 400.93 367.70 L 401.52 367.78 L 402.11 369.28 L 402.70 368.89 L 403.29 369.06 L 403.88 368.99 L 404.47 368.96 L 405.06 368.98 L 405.64 369.05 L 406.23 369.03 L 406.82 369.02 L 407.41 369.16 L 408.00 369.26 L 408.59 369.28 L 409.18 369.26 L 409.77 369.24 L 410.36 369.12 L 410.94 369.10 L 411.53 369.07 L 412.12 369.03 L 412.71 369.13 L 413.30 369.12 L 413.89 369.08 L 414.48 369.09 L 415.07 369.15 L 415.66 368.76 L 416.24 367.04 L 416.83 366.65 L 417.42 367.25 L 418.01 367.17 L 418.60 367.23 L 419.19 367.22 L 419.78 367.19 L 420.37 367.20 L 420.96 367.18 L 421.54 367.15 L 422.13 367.13 L 422.72 367.14 L 423.31 367.13 L 423.90 367.13 L 424.49 367.13 L 425.08 367.07 L 425.67 367.08 L 426.26 367.11 L 426.84 367.08 L 427.43 367.13 L 428.02 367.10 L 428.61 367.08 L 429.20 367.14 L 429.79 367.05 L 430.38 367.09 L 430.97 367.01 L 431.56 367.06 L 432.14 367.03 L 432.73 367.04 L 433.32 367.04 L 433.91 367.08 L 434.50 367.12 L 435.09 367.01 L 435.68 367.09 L 436.27 367.09 L 436.86 367.05 L 437.44 367.03 L 438.03 367.05 L 438.62 367.02 L 439.21 367.04 L 439.80 367.10 L 440.39 367.00 L 440.98 367.49 L 441.57 365.65 L 442.16 365.37 L 442.74 366.31 L 443.33 365.77 L 443.92 365.63 L 444.51 365.86 L 445.10 365.77 L 445.69 365.65 L 446.28 365.81 L 446.87 365.72 L 447.46 365.72 L 448.04 365.71 L 448.63 365.70 L 449.22 365.77 L 449.81 365.68 L 450.40 365.69 L 450.99 365.72 L 451.58 365.70 L 452.17 365.75 L 452.76 365.68 L 453.34 365.67 L 453.93 365.71 L 454.52 365.73 L 455.11 365.68 L 455.70 365.71 L 456.29 365.70 L 456.88 365.71 L 457.47 365.70 L 458.06 365.69 L 458.64 365.71 L 459.23 365.68 L 459.82 365.67 L 460.41 365.68 L 461.00 365.69 L 461.59 365.65 L 462.18 365.68 L 462.77 365.67 L 463.36 365.60 L 463.94 365.21 L 464.53 365.08 L 465.12 365.21 L 465.71 365.09 L 466.30 365.14 L 466.89 365.18 L 467.48 365.11 L 468.07 365.15 L 468.66 365.14 L 469.24 365.14 L 469.83 365.08 L 470.42 365.09 L 471.01 365.09 L 471.60 365.09 L 472.19 365.07 L 472.78 365.07 L 473.37 365.08 L 473.96 365.11 L 474.54 365.11 L 475.13 365.08 L 475.72 365.14 L 476.31 365.15 L 476.90 365.07 L 477.49 365.09 L 478.08 365.08 L 478.67 365.09 L 479.26 365.09 L 479.84 365.09 L 480.43 365.08 L 481.02 365.14 L 481.61 365.26 L 482.20 364.96 L 482.79 364.60 L 483.38 365.53 L 483.97 365.39 L 484.56 365.42 L 485.14 365.34 L 485.73 365.40 L 486.32 365.33 L 486.91 365.35 L 487.50 365.36 L 488.09 365.35 L 488.68 365.36 L 489.27 365.31 L 489.86 365.32 L 490.44 365.30 L 491.03 365.34 L 491.62 365.29 L 492.21 365.30 L 492.80 365.33 L 493.39 365.32 L 493.98 365.33 L 494.57 365.29 L 495.16 365.31 L 495.74 365.37 L 496.33 365.27 L 496.92 365.91 L 497.51 366.01 L 498.10 365.87 L 498.69 365.94 L 499.28 365.93 L 499.87 366.03 L 500.46 365.98 L 501.04 366.03 L 501.63 365.98 L 502.22 367.23 L 502.81 378.44 L 503.40 370.01 L 503.99 360.31 L 504.58 350.83 L 505.17 356.91 L 505.76 365.75 L 506.34 373.59 L 506.93 372.95 L 507.52 382.01 L 508.11 375.58 L 508.70 373.21 L 509.29 366.52 L 509.88 364.15 L 510.47 368.75 L 511.06 378.73 L 511.64 377.89 L 512.23 371.04 L 512.82 374.68 L 513.41 372.26 L 514.00 364.10 L 514.59 371.94 L 515.18 371.46 L 515.77 369.72 L 516.36 371.98 L 516.94 369.94 L 517.53 359.97 L 518.12 360.08 L 518.71 358.67 L 519.30 363.84 L 519.89 365.24 L 520.48 365.03 L 521.07 362.14 L 521.66 366.24 L 522.24 368.17 L 522.83 375.50 L 523.42 379.87 L 524.01 379.82 L 524.60 371.24 L 525.19 370.18 L 525.78 373.35 L 526.37 372.40 L 526.96 365.76 L 527.54 361.11 L 528.13 372.98 L 528.72 373.37 L 529.31 366.25 L 529.90 361.53 L 530.49 368.15 L 531.08 374.64 L 531.67 374.98 L 532.26 376.42 L 532.84 377.33 L 533.43 378.05 L 534.02 382.61 L 534.61 379.68 L 535.20 377.65 L 535.79 377.28 L 536.38 372.91 L 536.97 370.35 L 537.56 372.08 L 538.14 376.73 L 538.73 372.97 L 539.32 375.72 L 539.91 363.91 L 540.50 358.87 L 541.09 366.35 L 541.68 362.37 L 542.27 359.54 L 542.86 365.42 L 543.44 362.94 L 544.03 372.07 L 544.62 366.68 L 545.21 364.64 L 545.80 368.10 L 546.39 369.93 L 546.98 368.01 L 547.57 368.89 L 548.16 371.06 L 548.74 365.11 L 549.33 361.84 L 549.92 368.08 L 550.51 371.61 L 551.10 362.79 L 551.69 357.42 L 552.28 360.23 L 552.87 361.33 L 553.46 364.87 L 554.04 365.97 L 554.63 362.47 L 555.22 364.11 L 555.81 359.00 L 556.40 368.52 L 556.99 369.94 L 557.58 372.77 L 558.17 381.73 L 558.76 386.52 L 559.34 385.80 L 559.93 394.72 L 560.52 395.35 L 561.11 399.02 L 561.70 399.78 L 562.29 402.23 L 562.88 402.25 L 563.47 399.85 L 564.06 391.13 L 564.64 385.40 L 565.23 386.89 L 565.82 369.47 L 566.41 371.06 L 567.00 361.54 L 567.59 370.63 L 568.18 376.33 L 568.77 375.39 L 569.36 380.63 L 569.94 384.85 L 570.53 381.37 L 571.12 377.58 L 571.71 375.97 L 572.30 379.96 L 572.89 377.52 L 573.48 378.77 L 574.07 375.06 L 574.66 378.23 L 575.24 385.16 L 575.83 377.93 L 576.42 384.71 L 577.01 385.80 L 577.60 386.02 L 578.19 386.51 L 578.78 387.08 L 579.37 387.67 L 579.96 386.45 L 580.54 386.47 L 581.13 387.33 L 581.72 387.02 L 582.31 386.59 L 582.90 387.21 L 583.49 387.29 L 584.08 387.73 L 584.67 388.20 L 585.26 389.01 L 585.84 388.87 L 586.43 390.86 L 587.02 389.19 L 587.61 389.19 L 588.20 389.43 L 588.79 391.01 L 589.38 389.54 L 589.97 381.05 L 590.56 399.72 L 591.14 402.62 L 591.73 403.48 L 592.32 402.23 L 592.91 399.43 L 593.50 400.16 L 594.09 404.13 L 594.68 404.01 L 595.27 403.86 L 595.86 403.05 L 596.44 401.56 L 597.03 399.28 L 597.62 398.60 L 598.21 398.32 L 598.80 398.80 L 599.39 397.91 L 599.98 396.20 L 600.57 401.50 L 601.16 398.94 L 601.74 399.06 L 602.33 398.63 L 602.92 398.14 L 603.51 397.95 L 604.10 397.32 L 604.69 397.99 L 605.28 396.79 L 605.87 397.87 L 606.46 397.19 L 607.04 396.13 L 607.63 396.15 L 608.22 391.32 L 608.81 390.57" stroke="#2E7D32" />
<path class="series" d="M 160.67 396.60 L 161.26 404.51 L 161.84 404.05 L 162.43 402.75 L 163.02 403.56 L 163.61 401.13 L 164.20 392.61 L 164.79 394.84 L 165.38 393.58 L 165.97 396.39 L 166.56 395.41 L 167.14 398.04 L 167.73 395.60 L 168.32 399.22 L 168.91 404.38 L 169.50 384.50 L 170.09 391.50 L 170.68 386.51 L 171.27 398.68 L 171.86 389.27 L 172.44 393.31 L 173.03 392.76 L 173.62 396.20 L 174.21 395.14 L 174.80 398.42 L 175.39 397.56 L 175.98 402.37 L 176.57 408.58 L 177.16 410.83 L 177.74 403.81 L 178.33 407.54 L 178.92 404.06 L 179.51 407.69 L 180.10 406.74 L 180.69 407.20 L 181.28 407.92 L 181.87 400.36 L 182.46 385.90 L 183.04 394.57 L 183.63 390.58 L 184.22 381.17 L 184.81 383.44 L 185.40 390.89 L 185.99 381.68 L 186.58 402.29 L 187.17 407.36 L 187.76 401.66 L 188.34 389.65 L 188.93 387.92 L 189.52 415.38 L 190.11 415.97 L 190.70 411.38 L 191.29 400.78 L 191.88 406.17 L 192.47 412.04 L 193.06 392.43 L 193.64 394.89 L 194.23 403.87 L 194.82 412.66 L 195.41 410.47 L 196.00 412.65 L 196.59 400.72 L 197.18 400.98 L 197.77 403.58 L 198.36 407.53 L 198.94 412.23 L 199.53 405.67 L 200.12 410.01 L 200.71 410.61 L 201.30 409.60 L 201.89 406.87 L 202.48 403.56 L 203.07 401.00 L 203.66 400.70 L 204.24 401.49 L 204.83 399.06 L 205.42 403.61 L 206.01 394.15 L 206.60 398.80 L 207.19 400.40 L 207.78 395.36 L 208.37 398.73 L 208.96 396.15 L 209.54 395.35 L 210.13 404.31 L 210.72 403.88 L 211.31 403.19 L 211.90 389.51 L 212.49 411.00 L 213.08 392.73 L 213.67 415.06 L 214.26 403.52 L 214.84 418.12 L 215.43 422.61 L 216.02 406.86 L 216.61 419.72 L 217.20 419.57 L 217.79 423.43 L 218.38 418.88 L 218.97 417.68 L 219.56 413.47 L 220.14 421.01 L 220.73 413.71 L 221.32 415.89 L 221.91 415.95 L 222.50 426.11 L 223.09 419.91 L 223.68 418.34 L 224.27 427.58 L 224.86 421.11 L 225.44 416.37 L 226.03 416.68 L 226.62 399.18 L 227.21 406.02 L 227.80 412.19 L 228.39 403.84 L 228.98 399.53 L 229.57 394.81 L 230.16 395.07 L 230.74 387.69 L 231.33 386.71 L 231.92 382.99 L 232.51 389.00 L 233.10 376.46 L 233.69 378.10 L 234.28 390.77 L 234.87 403.83 L 235.46 404.67 L 236.04 391.01 L 236.63 391.01 L 237.22 393.74 L 237.81 393.32 L 238.40 416.48 L 238.99 413.84 L 239.58 401.56 L 240.17 423.45 L 240.76 422.87 L 241.34 416.88 L 241.93 418.46 L 242.52 417.05 L 243.11 418.50 L 243.70 426.48 L 244.29 410.71 L 244.88 405.95 L 245.47 409.43 L 246.06 411.53 L 246.64 404.93 L 247.23 401.21 L 247.82 408.18 L 248.41 405.41 L 249.00 408.17 L 249.59 406.97 L 250.18 410.62 L 250.77 411.40 L 251.36 407.24 L 251.94 396.13 L 252.53 420.61 L 253.12 401.48 L 253.71 415.74 L 254.30 410.86 L 254.89 414.81 L 255.48 416.25 L 256.07 408.92 L 256.66 415.12 L 257.24 415.33 L 257.83 413.67 L 258.42 417.42 L 259.01 423.07 L 259.60 428.42 L 260.19 432.61 L 260.78 427.92 L 261.37 423.92 L 261.96 431.30 L 262.54 426.30 L 263.13 428.37 L 263.72 436.98 L 264.31 418.49 L 264.90 420.37 L 265.49 416.23 L 266.08 414.87 L 266.67 413.39 L 267.26 417.24 L 267.84 414.57 L 268.43 416.01 L 269.02 415.19 L 269.61 415.64 L 270.20 415.46 L 270.79 415.79 L 271.38 415.41 L 271.97 415.82 L 272.56 415.54 L 273.14 415.68 L 273.73 415.65 L 274.32 415.60 L 274.91 415.66 L 275.50 415.60 L 276.09 415.61 L 276.68 415.65 L 277.27 415.66 L 277.86 415.61 L 278.44 415.63 L 279.03 415.65 L 279.62 415.68 L 280.21 415.60 L 280.80 415.60 L 281.39 415.65 L 281.98 415.62 L 282.57 415.58 L 283.16 415.64 L 283.74 415.65 L 284.33 415.63 L 284.92 415.60 L 285.51 415.65 L 286.10 415.64 L 286.69 415.64 L 287.28 415.65 L 287.87 415.65 L 288.46 415.68 L 289.04 415.69 L 289.63 415.62 L 290.22 415.60 L 290.81 415.67 L 291.40 415.67 L 291.99 415.63 L 292.58 415.57 L 293.17 415.67 L 293.76 415.66 L 294.34 415.63 L 294.93 415.64 L 295.52 415.64 L 296.11 415.66 L 296.70 415.66 L 297.29 415.60 L 297.88 415.70 L 298.47 415.66 L 299.06 415.63 L 299.64 415.63 L 300.23 415.66 L 300.82 415.63 L 301.41 415.69 L 302.00 415.64 L 302.59 415.63 L 303.18 415.72 L 303.77 415.65 L 304.36 415.65 L 304.94 415.67 L 305.53 415.65 L 306.12 415.63 L 306.71 415.66 L 307.30 415.62 L 307.89 415.66 L 308.48 415.68 L 309.07 415.66 L 309.66 415.61 L 310.24 415.69 L 310.83 415.66 L 311.42 415.71 L 312.01 415.66 L 312.60 415.65 L 313.19 415.67 L 313.78 415.69 L 314.37 415.62 L 314.96 415.70 L 315.54 415.69 L 316.13 415.68 L 316.72 415.69 L 317.31 415.66 L 317.90 415.66 L 318.49 415.72 L 319.08 415.69 L 319.67 415.62 L 320.26 415.66 L 320.84 415.65 L 321.43 415.67 L 322.02 415.68 L 322.61 415.64 L 323.20 415.65 L 323.79 415.70 L 324.38 415.66 L 324.97 415.63 L 325.56 415.64 L 326.14 415.64 L 326.73 415.64 L 327.32 415.63 L 327.91 415.62 L 328.50 415.64 L 329.09 415.67 L 329.68 415.64 L 330.27 415.62 L 330.86 415.62 L 331.44 415.73 L 332.03 415.64 L 332.62 415.64 L 333.21 415.68 L 333.80 415.64 L 334.39 415.70 L 334.98 415.64 L 335.57 415.64 L 336.16 415.68 L 336.74 415.70 L 337.33 415.63 L 337.92 415.67 L 338.51 415.71 L 339.10 415.67 L 339.69 415.66 L 340.28 415.68 L 340.87 415.68 L 341.46 415.70 L 342.04 415.62 L 342.63 415.60 L 343.22 415.69 L 343.81 415.63 L 344.40 415.65 L 344.99 415.61 L 345.58 415.70 L 346.17 415.66 L 346.76 415.63 L 347.34 415.61 L 347.93 415.71 L 348.52 415.67 L 349.11 415.66 L 349.70 415.68 L 350.29 415.68 L 350.88 415.73 L 351.47 415.60 L 352.06 415.64 L 352.64 415.67 L 353.23 415.65 L 353.82 415.65 L 354.41 415.63 L 355.00 415.61 L 355.59 415.68 L 356.18 415.67 L 356.77 415.70 L 357.36 415.63 L 357.94 415.61 L 358.53 415.73 L 359.12 415.66 L 359.71 415.66 L 360.30 415.61 L 360.89 416.82 L 361.48 414.32 L 362.07 412.80 L 362.66 426.22 L 363.24 432.00 L 363.83 423.22 L 364.42 417.74 L 365.01 421.34 L 365.60 421.73 L 366.19 417.78 L 366.78 415.73 L 367.37 421.00 L 367.96 419.84 L 368.54 423.05 L 369.13 417.17 L 369.72 417.83 L 370.31 418.79 L 370.90 420.12 L 371.49 418.85 L 372.08 419.30 L 372.67 419.22 L 373.26 419.20 L 373.84 419.42 L 374.43 419.13 L 375.02 419.37 L 375.61 419.24 L 376.20 419.31 L 376.79 419.27 L 377.38 419.23 L 377.97 419.33 L 378.56 419.25 L 379.14 419.21 L 379.73 419.23 L 380.32 419.22 L 380.91 419.26 L 381.50 419.27 L 382.09 419.28 L 382.68 419.26 L 383.27 419.26 L 383.86 419.25 L 384.44 419.18 L 385.03 419.16 L 385.62 419.12 L 386.21 418.69 L 386.80 419.20 L 387.39 419.04 L 387.98 419.17 L 388.57 419.08 L 389.16 418.94 L 389.74 419.05 L 390.33 419.19 L 390.92 419.04 L 391.51 419.08 L 392.10 419.07 L 392.69 419.09 L 393.28 419.10 L 393.87 419.08 L 394.46 419.06 L 395.04 419.09 L 395.63 419.15 L 396.22 419.02 L 396.81 419.08 L 397.40 419.10 L 397.99 419.12 L 398.58 419.06 L 399.17 419.07 L 399.76 419.18 L 400.34 419.06 L 400.93 419.22 L 401.52 418.52 L 402.11 419.92 L 402.70 419.88 L 403.29 419.98 L 403.88 419.85 L 404.47 419.84 L 405.06 419.90 L 405.64 419.97 L 406.23 420.03 L 406.82 419.96 L 407.41 419.90 L 408.00 419.89 L 408.59 419.96 L 409.18 419.96 L 409.77 419.95 L 410.36 419.93 L 410.94 419.94 L 411.53 419.92 L 412.12 419.96 L 412.71 419.97 L 413.30 419.92 L 413.89 419.98 L 414.48 419.93 L 415.07 419.98 L 415.66 419.75 L 416.24 419.16 L 416.83 419.86 L 417.42 420.31 L 418.01 419.80 L 418.60 419.93 L 419.19 420.13 L 419.78 419.89 L 420.37 420.06 L 420.96 419.99 L 421.54 419.89 L 422.13 420.05 L 422.72 419.97 L 423.31 420.01 L 423.90 419.95 L 424.49 419.99 L 425.08 419.95 L 425.67 419.99 L 426.26 420.01 L 426.84 419.92 L 427.43 419.99 L 428.02 420.08 L 428.61 419.97 L 429.20 420.00 L 429.79 420.07 L 430.38 420.00 L 430.97 419.97 L 431.56 419.98 L 432.14 419.99 L 432.73 420.05 L 433.32 419.98 L 433.91 420.03 L 434.50 420.04 L 435.09 420.02 L 435.68 420.07 L 436.27 419.96 L 436.86 420.06 L 437.44 420.04 L 438.03 420.06 L 438.62 420.01 L 439.21 419.98 L 439.80 420.07 L 440.39 420.00 L 440.98 420.03 L 441.57 419.68 L 442.16 420.72 L 442.74 420.57 L 443.33 420.53 L 443.92 420.53 L 444.51 420.54 L 445.10 420.55 L 445.69 420.58 L 446.28 420.53 L 446.87 420.55 L 447.46 420.61 L 448.04 420.55 L 448.63 420.54 L 449.22 420.56 L 449.81 420.58 L 450.40 420.64 L 450.99 420.56 L 451.58 420.58 L 452.17 420.64 L 452.76 420.60 L 453.34 420.56 L 453.93 420.57 L 454.52 420.68 L 455.11 420.61 L 455.70 420.64 L 456.29 420.60 L 456.88 420.61 L 457.47 420.67 L 458.06 420.62 L 458.64 420.64 L 459.23 420.62 L 459.82 420.65 L 460.41 420.66 L 461.00 420.62 L 461.59 420.64 L 462.18 420.65 L 462.77 420.64 L 463.36 420.59 L 463.94 420.48 L 464.53 420.97 L 465.12 420.66 L 465.71 421.01 L 466.30 420.52 L 466.89 421.30 L 467.48 420.68 L 468.07 420.92 L 468.66 420.92 L 469.24 420.90 L 469.83 420.90 L 470.42 420.92 L 471.01 420.92 L 471.60 420.90 L 472.19 420.85 L 472.78 420.88 L 473.37 420.87 L 473.96 420.86 L 474.54 420.95 L 475.13 420.96 L 475.72 420.90 L 476.31 420.97 L 476.90 420.89 L 477.49 420.97 L 478.08 420.95 L 478.67 420.92 L 479.26 420.94 L 479.84 420.95 L 480.43 420.95 L 481.02 420.92 L 481.61 420.85 L 482.20 421.27 L 482.79 418.06 L 483.38 421.71 L 483.97 421.30 L 484.56 421.45 L 485.14 421.14 L 485.73 421.09 L 486.32 420.95 L 486.91 421.02 L 487.50 421.00 L 488.09 421.03 L 488.68 421.08 L 489.27 421.11 L 489.86 421.07 L 490.44 421.08 L 491.03 421.09 L 491.62 421.09 L 492.21 421.09 L 492.80 421.05 L 493.39 421.07 L 493.98 421.11 L 494.57 421.07 L 495.16 421.06 L 495.74 421.07 L 496.33 421.04 L 496.92 420.48 L 497.51 422.12 L 498.10 421.45 L 498.69 421.62 L 499.28 421.27 L 499.87 421.46 L 500.46 421.40 L 501.04 421.56 L 501.63 421.49 L 502.22 420.76 L 502.81 421.33 L 503.40 424.20 L 503.99 419.89 L 504.58 420.80 L 505.17 416.57 L 505.76 420.18 L 506.34 425.65 L 506.93 426.07 L 507.52 411.26 L 508.11 425.57 L 508.70 406.46 L 509.29 403.74 L 509.88 412.82 L 510.47 422.06 L 511.06 416.07 L 511.64 418.95 L 512.23 416.50 L 512.82 424.52 L 513.41 423.85 L 514.00 431.32 L 514.59 431.34 L 515.18 421.33 L 515.77 419.86 L 516.36 420.80 L 516.94 424.61 L 517.53 410.12 L 518.12 393.59 L 518.71 404.25 L 519.30 397.62 L 519.89 414.33 L 520.48 410.28 L 521.07 400.26 L 521.66 407.24 L 522.24 411.93 L 522.83 404.85 L 523.42 412.70 L 524.01 411.62 L 524.60 407.90 L 525.19 402.27 L 525.78 403.76 L 526.37 408.30 L 526.96 413.56 L 527.54 409.17 L 528.13 399.37 L 528.72 404.88 L 529.31 411.81 L 529.90 405.49 L 530.49 407.55 L 531.08 414.74 L 531.67 410.75 L 532.26 413.30 L 532.84 414.97 L 533.43 414.24 L 534.02 412.41 L 534.61 409.21 L 535.20 420.18 L 535.79 420.13 L 536.38 419.62 L 536.97 418.24 L 537.56 417.89 L 538.14 420.05 L 538.73 416.25 L 539.32 413.94 L 539.91 398.82 L 540.50 404.64 L 541.09 412.16 L 541.68 408.52 L 542.27 420.55 L 542.86 428.51 L 543.44 418.96 L 544.03 418.90 L 544.62 423.81 L 545.21 423.38 L 545.80 423.92 L 546.39 429.20 L 546.98 428.85 L 547.57 408.18 L 548.16 414.38 L 548.74 417.44 L 549.33 415.12 L 549.92 416.01 L 550.51 412.03 L 551.10 406.55 L 551.69 407.61 L 552.28 412.13 L 552.87 409.88 L 553.46 414.54 L 554.04 415.49 L 554.63 416.81 L 555.22 410.26 L 555.81 416.16 L 556.40 417.97 L 556.99 419.90 L 557.58 409.67 L 558.17 409.06 L 558.76 426.55 L 559.34 426.61 L 559.93 425.48 L 560.52 425.90 L 561.11 424.53 L 561.70 424.89 L 562.29 424.36 L 562.88 424.10 L 563.47 425.74 L 564.06 421.52 L 564.64 422.52 L 565.23 422.82 L 565.82 424.06 L 566.41 427.65 L 567.00 425.14 L 567.59 429.82 L 568.18 431.29 L 568.77 430.60 L 569.36 441.58 L 569.94 433.85 L 570.53 426.46 L 571.12 425.55 L 571.71 429.24 L 572.30 426.09 L 572.89 423.44 L 573.48 428.26 L 574.07 426.65 L 574.66 431.96 L 575.24 423.45 L 575.83 426.49 L 576.42 418.04 L 577.01 414.34 L 577.60 413.87 L 578.19 409.86 L 578.78 410.20 L 579.37 414.11 L 579.96 412.39 L 580.54 415.95 L 581.13 416.35 L 581.72 417.66 L 582.31 418.79 L 582.90 419.07 L 583.49 418.57 L 584.08 416.69 L 584.67 413.57 L 585.26 411.18 L 585.84 404.74 L 586.43 406.35 L 587.02 407.29 L 587.61 407.29 L 588.20 405.13 L 588.79 399.47 L 589.38 401.94 L 589.97 399.74 L 590.56 404.93 L 591.14 405.69 L 591.73 409.19 L 592.32 407.30 L 592.91 407.93 L 593.50 413.19 L 594.09 416.97 L 594.68 417.32 L 595.27 414.94 L 595.86 418.06 L 596.44 418.63 L 597.03 419.59 L 597.62 422.52 L 598.21 420.79 L 598.80 420.24 L 599.39 419.08 L 599.98 418.30 L 600.57 418.92 L 601.16 419.99 L 601.74 418.78 L 602.33 417.58 L 602.92 415.20 L 603.51 413.64 L 604.10 411.52 L 604.69 414.27 L 605.28 415.47 L 605.87 416.67 L 606.46 416.61 L 607.04 417.50 L 607.63 417.12 L 608.22 420.16 L 608.81 419.31" stroke="#6A1B9A" />
<line x1="900.00" y1="307.75" x2="918.00" y2="307.75" stroke="#2E7D32" stroke-width="3" />
<text class="small" x="924.00" y="311.75">pitch</text>
<line x1="900.00" y1="323.75" x2="918.00" y2="323.75" stroke="#6A1B9A" stroke-width="3" />
<text class="small" x="924.00" y="327.75">roll</text>
<text x="90" y="500.50" font-size="14" font-weight="700">Aceleração (magnitude) (u.a.)</text>
<rect class="event" x="266.67" y="506.50" width="236.14" height="192.75" />
<line class="eventline" x1="266.67" y1="506.50" x2="266.67" y2="699.25" />
<line class="eventline" x1="502.81" y1="506.50" x2="502.81" y2="699.25" />
<line class="grid" x1="90" y1="699.25" x2="1150" y2="699.25" />
<text class="small" x="80" y="703.25" text-anchor="end">0.00</text>
<line class="grid" x1="90" y1="660.70" x2="1150" y2="660.70" />
<text class="small" x="80" y="664.70" text-anchor="end">0.50</text>
<line class="grid" x1="90" y1="622.15" x2="1150" y2="622.15" />
<text class="small" x="80" y="626.15" text-anchor="end">1.00</text>
<line class="grid" x1="90" y1="583.60" x2="1150" y2="583.60" />
<text class="small" x="80" y="587.60" text-anchor="end">1.50</text>
<line class="grid" x1="90" y1="545.05" x2="1150" y2="545.05" />
<text class="small" x="80" y="549.05" text-anchor="end">2.00</text>
<line class="grid" x1="90" y1="506.50" x2="1150" y2="506.50" />
<text class="small" x="80" y="510.50" text-anchor="end">2.50</text>
<line class="grid" x1="90.00" y1="506.50" x2="90.00" y2="699.25" />
<line class="grid" x1="266.67" y1="506.50" x2="266.67" y2="699.25" />
<line class="grid" x1="443.33" y1="506.50" x2="443.33" y2="699.25" />
<line class="grid" x1="620.00" y1="506.50" x2="620.00" y2="699.25" />
<line class="grid" x1="796.67" y1="506.50" x2="796.67" y2="699.25" />
<line class="grid" x1="973.33" y1="506.50" x2="973.33" y2="699.25" />
<line class="grid" x1="1150.00" y1="506.50" x2="1150.00" y2="699.25" />
<line class="axis" x1="90" y1="506.50" x2="90" y2="699.25" />
<line class="axis" x1="90" y1="699.25" x2="1150" y2="699.25" />
<path class="series" d="M 160.67 673.04 L 161.26 669.42 L 161.84 672.17 L 162.43 673.81 L 163.02 673.81 L 163.61 675.68 L 164.20 682.88 L 164.79 694.56 L 165.38 685.34 L 165.97 681.25 L 166.56 686.29 L 167.14 688.78 L 167.73 685.82 L 168.32 691.14 L 168.91 666.33 L 169.50 662.91 L 170.09 687.88 L 170.68 676.25 L 171.27 689.02 L 171.86 671.03 L 172.44 664.21 L 173.03 666.71 L 173.62 664.52 L 174.21 672.54 L 174.80 673.43 L 175.39 677.32 L 175.98 680.96 L 176.57 645.36 L 177.16 660.87 L 177.74 667.33 L 178.33 679.61 L 178.92 674.40 L 179.51 632.49 L 180.10 674.08 L 180.69 685.80 L 181.28 693.16 L 181.87 691.71 L 182.46 655.77 L 183.04 681.23 L 183.63 675.19 L 184.22 654.80 L 184.81 638.59 L 185.40 661.32 L 185.99 680.56 L 186.58 662.24 L 187.17 665.33 L 187.76 672.11 L 188.34 654.52 L 188.93 624.99 L 189.52 610.12 L 190.11 624.71 L 190.70 643.21 L 191.29 672.63 L 191.88 681.66 L 192.47 665.46 L 193.06 648.99 L 193.64 667.91 L 194.23 682.47 L 194.82 656.13 L 195.41 677.08 L 196.00 667.95 L 196.59 666.13 L 197.18 655.69 L 197.77 648.91 L 198.36 665.86 L 198.94 681.79 L 199.53 678.24 L 200.12 653.82 L 200.71 680.29 L 201.30 682.54 L 201.89 669.87 L 202.48 672.04 L 203.07 664.83 L 203.66 667.26 L 204.24 675.52 L 204.83 690.75 L 205.42 685.71 L 206.01 667.65 L 206.60 689.73 L 207.19 675.68 L 207.78 680.71 L 208.37 685.60 L 208.96 680.04 L 209.54 678.88 L 210.13 662.78 L 210.72 669.59 L 211.31 687.77 L 211.90 674.14 L 212.49 667.78 L 213.08 676.22 L 213.67 669.66 L 214.26 646.42 L 214.84 686.84 L 215.43 645.99 L 216.02 680.43 L 216.61 655.74 L 217.20 679.07 L 217.79 690.53 L 218.38 670.25 L 218.97 674.90 L 219.56 662.45 L 220.14 685.60 L 220.73 677.80 L 221.32 679.04 L 221.91 681.11 L 222.50 665.80 L 223.09 671.12 L 223.68 687.82 L 224.27 678.75 L 224.86 664.80 L 225.44 650.22 L 226.03 668.63 L 226.62 653.52 L 227.21 663.80 L 227.80 655.57 L 228.39 686.75 L 228.98 677.19 L 229.57 656.85 L 230.16 643.69 L 230.74 675.56 L 231.33 647.31 L 231.92 647.37 L 232.51 683.52 L 233.10 683.52 L 233.69 671.72 L 234.28 654.74 L 234.87 688.89 L 235.46 629.92 L 236.04 650.21 L 236.63 662.53 L 237.22 674.46 L 237.81 667.59 L 238.40 622.60 L 238.99 666.88 L 239.58 669.86 L 240.17 653.01 L 240.76 674.96 L 241.34 662.80 L 241.93 680.05 L 242.52 691.05 L 243.11 684.80 L 243.70 659.16 L 244.29 674.06 L 244.88 686.72 L 245.47 689.13 L 246.06 675.32 L 246.64 672.12 L 247.23 682.03 L 247.82 676.19 L 248.41 687.67 L 249.00 679.40 L 249.59 692.19 L 250.18 686.17 L 250.77 682.18 L 251.36 688.82 L 251.94 665.21 L 252.53 649.59 L 253.12 677.79 L 253.71 672.13 L 254.30 690.91 L 254.89 685.97 L 255.48 687.39 L 256.07 676.74 L 256.66 688.74 L 257.24 681.86 L 257.83 684.98 L 258.42 688.90 L 259.01 694.60 L 259.60 684.13 L 260.19 693.70 L 260.78 680.96 L 261.37 694.80 L 261.96 697.76 L 262.54 690.82 L 263.13 692.46 L 263.72 671.35 L 264.31 678.37 L 264.90 678.69 L 265.49 684.33 L 266.08 662.58 L 266.67 684.03 L 267.26 688.52 L 267.84 695.36 L 268.43 696.48 L 269.02 695.83 L 269.61 696.97 L 270.20 697.73 L 270.79 698.39 L 271.38 698.46 L 271.97 698.17 L 272.56 698.46 L 273.14 698.62 L 273.73 698.48 L 274.32 698.60 L 274.91 698.41 L 275.50 698.51 L 276.09 699.05 L 276.68 699.15 L 277.27 699.16 L 277.86 699.05 L 278.44 699.02 L 279.03 699.07 L 279.62 698.83 L 280.21 699.09 L 280.80 699.03 L 281.39 698.81 L 281.98 698.93 L 282.57 699.06 L 283.16 699.13 L 283.74 699.09 L 284.33 699.08 L 284.92 699.07 L 285.51 699.03 L 286.10 699.03 L 286.69 699.12 L 287.28 698.97 L 287.87 699.23 L 288.46 699.10 L 289.04 699.08 L 289.63 699.09 L 290.22 699.08 L 290.81 699.08 L 291.40 699.15 L 291.99 699.14 L 292.58 699.15 L 293.17 699.16 L 293.76 699.19 L 294.34 698.99 L 294.93 699.02 L 295.52 699.11 L 296.11 699.19 L 296.70 699.13 L 297.29 699.18 L 297.88 699.06 L 298.47 699.17 L 299.06 699.17 L 299.64 699.09 L 300.23 699.19 L 300.82 699.14 L 301.41 699.16 L 302.00 699.13 L 302.59 698.98 L 303.18 699.18 L 303.77 699.19 L 304.36 699.16 L 304.94 699.10 L 305.53 699.09 L 306.12 699.09 L 306.71 699.16 L 307.30 699.14 L 307.89 699.16 L 308.48 699.09 L 309.07 699.15 L 309.66 699.06 L 310.24 699.11 L 310.83 699.11 L 311.42 699.08 L 312.01 699.14 L 312.60 699.16 L 313.19 699.11 L 313.78 699.05 L 314.37 699.10 L 314.96 699.16 L 315.54 699.13 L 316.13 699.13 L 316.72 699.22 L 317.31 699.19 L 317.90 699.08 L 318.49 699.16 L 319.08 699.21 L 319.67 699.00 L 320.26 699.03 L 320.84 699.08 L 321.43 699.08 L 322.02 699.14 L 322.61 699.11 L 323.20 699.13 L 323.79 699.11 L 324.38 699.05 L 324.97 699.09 L 325.56 699.21 L 326.14 699.12 L 326.73 698.98 L 327.32 699.20 L 327.91 699.10 L 328.50 699.02 L 329.09 699.12 L 329.68 699.07 L 330.27 699.17 L 330.86 699.04 L 331.44 699.02 L 332.03 699.19 L 332.62 699.09 L 333.21 699.08 L 333.80 699.09 L 334.39 698.96 L 334.98 699.05 L 335.57 699.14 L 336.16 699.16 L 336.74 699.18 L 337.33 699.06 L 337.92 699.07 L 338.51 699.06 L 339.10 699.17 L 339.69 699.13 L 340.28 698.98 L 340.87 699.18 L 341.46 699.10 L 342.04 699.10 L 342.63 699.22 L 343.22 699.09 L 343.81 699.14 L 344.40 699.02 L 344.99 699.00 L 345.58 699.15 L 346.17 699.04 L 346.76 699.12 L 347.34 699.04 L 347.93 699.06 L 348.52 699.14 L 349.11 699.23 L 349.70 699.11 L 350.29 699.08 L 350.88 699.14 L 351.47 698.94 L 352.06 698.88 L 352.64 699.12 L 353.23 699.14 L 353.82 698.99 L 354.41 699.18 L 355.00 699.03 L 355.59 699.05 L 356.18 699.18 L 356.77 699.14 L 357.36 699.08 L 357.94 698.87 L 358.53 699.14 L 359.12 699.20 L 359.71 697.95 L 360.30 682.77 L 360.89 693.74 L 361.48 676.41 L 362.07 657.10 L 362.66 668.46 L 363.24 680.82 L 363.83 677.18 L 364.42 682.55 L 365.01 686.99 L 365.60 663.09 L 366.19 686.46 L 366.78 694.51 L 367.37 689.47 L 367.96 689.47 L 368.54 651.48 L 369.13 681.99 L 369.72 688.40 L 370.31 692.79 L 370.90 695.97 L 371.49 697.66 L 372.08 698.64 L 372.67 698.88 L 373.26 698.94 L 373.84 698.72 L 374.43 698.90 L 375.02 698.99 L 375.61 699.08 L 376.20 699.12 L 376.79 699.04 L 377.38 698.98 L 377.97 699.06 L 378.56 699.16 L 379.14 699.09 L 379.73 699.00 L 380.32 699.03 L 380.91 699.03 L 381.50 699.12 L 382.09 699.16 L 382.68 699.20 L 383.27 699.13 L 383.86 699.02 L 384.44 699.00 L 385.03 696.77 L 385.62 691.10 L 386.21 695.09 L 386.80 698.65 L 387.39 698.83 L 387.98 698.58 L 388.57 698.90 L 389.16 698.85 L 389.74 699.05 L 390.33 699.09 L 390.92 699.04 L 391.51 698.93 L 392.10 699.09 L 392.69 699.10 L 393.28 699.04 L 393.87 699.02 L 394.46 699.01 L 395.04 699.10 L 395.63 699.11 L 396.22 698.90 L 396.81 699.04 L 397.40 699.07 L 397.99 699.06 L 398.58 699.08 L 399.17 699.15 L 399.76 699.10 L 400.34 698.08 L 400.93 697.95 L 401.52 697.69 L 402.11 696.62 L 402.70 698.38 L 403.29 697.96 L 403.88 698.54 L 404.47 698.94 L 405.06 699.01 L 405.64 698.93 L 406.23 698.97 L 406.82 699.05 L 407.41 699.12 L 408.00 699.19 L 408.59 699.01 L 409.18 699.11 L 409.77 699.11 L 410.36 698.98 L 410.94 698.83 L 411.53 698.87 L 412.12 699.05 L 412.71 699.04 L 413.30 699.09 L 413.89 699.21 L 414.48 699.05 L 415.07 695.45 L 415.66 695.66 L 416.24 692.76 L 416.83 698.32 L 417.42 697.56 L 418.01 698.37 L 418.60 698.90 L 419.19 698.74 L 419.78 698.94 L 420.37 699.05 L 420.96 698.95 L 421.54 699.20 L 422.13 698.98 L 422.72 698.99 L 423.31 698.95 L 423.90 699.11 L 424.49 699.07 L 425.08 699.06 L 425.67 699.20 L 426.26 699.20 L 426.84 699.14 L 427.43 699.09 L 428.02 699.04 L 428.61 699.10 L 429.20 699.19 L 429.79 699.08 L 430.38 699.08 L 430.97 699.17 L 431.56 699.12 L 432.14 699.04 L 432.73 699.04 L 433.32 699.15 L 433.91 699.04 L 434.50 699.18 L 435.09 699.15 L 435.68 699.09 L 436.27 699.00 L 436.86 698.94 L 437.44 699.10 L 438.03 699.03 L 438.62 699.05 L 439.21 699.14 L 439.80 699.18 L 440.39 699.03 L 440.98 699.06 L 441.57 695.75 L 442.16 688.40 L 442.74 696.37 L 443.33 695.87 L 443.92 698.96 L 444.51 698.83 L 445.10 698.82 L 445.69 699.10 L 446.28 699.07 L 446.87 699.12 L 447.46 699.06 L 448.04 699.01 L 448.63 699.13 L 449.22 699.18 L 449.81 699.20 L 450.40 699.01 L 450.99 699.11 L 451.58 699.19 L 452.17 699.20 L 452.76 699.08 L 453.34 699.06 L 453.93 699.05 L 454.52 699.06 L 455.11 699.04 L 455.70 699.10 L 456.29 699.16 L 456.88 699.13 L 457.47 699.14 L 458.06 699.03 L 458.64 699.08 L 459.23 699.10 L 459.82 699.21 L 460.41 699.10 L 461.00 699.04 L 461.59 699.15 L 462.18 699.15 L 462.77 699.18 L 463.36 698.48 L 463.94 698.41 L 464.53 697.52 L 465.12 698.80 L 465.71 698.50 L 466.30 697.60 L 466.89 697.66 L 467.48 698.44 L 468.07 698.72 L 468.66 698.87 L 469.24 698.92 L 469.83 699.08 L 470.42 699.02 L 471.01 699.16 L 471.60 699.10 L 472.19 699.16 L 472.78 699.04 L 473.37 699.11 L 473.96 698.98 L 474.54 699.01 L 475.13 699.14 L 475.72 699.02 L 476.31 699.12 L 476.90 699.12 L 477.49 699.15 L 478.08 699.19 L 478.67 699.21 L 479.26 698.99 L 479.84 699.10 L 480.43 698.98 L 481.02 698.64 L 481.61 697.45 L 482.20 695.20 L 482.79 694.42 L 483.38 698.17 L 483.97 698.54 L 484.56 698.64 L 485.14 698.50 L 485.73 698.99 L 486.32 699.07 L 486.91 699.08 L 487.50 699.04 L 488.09 698.95 L 488.68 699.08 L 489.27 699.06 L 489.86 698.99 L 490.44 699.05 L 491.03 699.09 L 491.62 699.03 L 492.21 699.06 L 492.80 699.06 L 493.39 699.18 L 493.98 699.11 L 494.57 699.06 L 495.16 699.12 L 495.74 697.77 L 496.33 697.76 L 496.92 698.54 L 497.51 698.38 L 498.10 697.39 L 498.69 698.81 L 499.28 698.85 L 499.87 698.85 L 500.46 698.78 L 501.04 698.88 L 501.63 698.71 L 502.22 697.73 L 502.81 677.42 L 503.40 681.91 L 503.99 687.80 L 504.58 685.98 L 505.17 684.67 L 505.76 676.49 L 506.34 672.49 L 506.93 667.99 L 507.52 649.41 L 508.11 684.27 L 508.70 659.52 L 509.29 675.31 L 509.88 651.61 L 510.47 669.58 L 511.06 666.16 L 511.64 678.94 L 512.23 678.55 L 512.82 690.45 L 513.41 685.38 L 514.00 662.57 L 514.59 689.61 L 515.18 686.12 L 515.77 691.55 L 516.36 688.88 L 516.94 651.26 L 517.53 662.77 L 518.12 667.63 L 518.71 681.83 L 519.30 679.99 L 519.89 674.25 L 520.48 684.56 L 521.07 656.98 L 521.66 668.44 L 522.24 681.98 L 522.83 682.15 L 523.42 671.34 L 524.01 675.70 L 524.60 695.25 L 525.19 684.68 L 525.78 684.15 L 526.37 669.62 L 526.96 659.73 L 527.54 674.43 L 528.13 672.51 L 528.72 691.17 L 529.31 684.65 L 529.90 676.80 L 530.49 680.10 L 531.08 678.85 L 531.67 685.96 L 532.26 690.68 L 532.84 662.86 L 533.43 673.66 L 534.02 668.06 L 534.61 671.02 L 535.20 675.46 L 535.79 686.23 L 536.38 679.56 L 536.97 666.51 L 537.56 679.06 L 538.14 683.13 L 538.73 666.77 L 539.32 693.45 L 539.91 634.02 L 540.50 633.96 L 541.09 688.30 L 541.68 630.26 L 542.27 660.73 L 542.86 665.41 L 543.44 691.43 L 544.03 675.94 L 544.62 683.32 L 545.21 678.38 L 545.80 688.73 L 546.39 693.70 L 546.98 683.85 L 547.57 661.31 L 548.16 640.65 L 548.74 661.62 L 549.33 650.35 L 549.92 684.74 L 550.51 655.83 L 551.10 679.18 L 551.69 677.15 L 552.28 674.96 L 552.87 675.61 L 553.46 667.57 L 554.04 681.76 L 554.63 677.84 L 555.22 678.78 L 555.81 660.97 L 556.40 689.64 L 556.99 673.93 L 557.58 688.04 L 558.17 675.04 L 558.76 662.65 L 559.34 646.24 L 559.93 686.54 L 560.52 680.91 L 561.11 691.05 L 561.70 678.77 L 562.29 672.69 L 562.88 674.85 L 563.47 684.01 L 564.06 689.60 L 564.64 689.62 L 565.23 673.58 L 565.82 685.98 L 566.41 676.52 L 567.00 682.70 L 567.59 676.33 L 568.18 695.66 L 568.77 675.74 L 569.36 681.90 L 569.94 679.94 L 570.53 679.94 L 571.12 689.10 L 571.71 693.39 L 572.30 685.98 L 572.89 679.64 L 573.48 693.42 L 574.07 682.87 L 574.66 656.29 L 575.24 665.96 L 575.83 655.46 L 576.42 674.79 L 577.01 686.84 L 577.60 668.16 L 578.19 681.14 L 578.78 690.09 L 579.37 696.31 L 579.96 692.92 L 580.54 696.56 L 581.13 693.76 L 581.72 697.39 L 582.31 696.94 L 582.90 694.03 L 583.49 692.35 L 584.08 695.15 L 584.67 698.03 L 585.26 690.61 L 585.84 692.13 L 586.43 684.64 L 587.02 692.20 L 587.61 694.35 L 588.20 695.72 L 588.79 678.99 L 589.38 690.56 L 589.97 688.44 L 590.56 684.22 L 591.14 688.48 L 591.73 694.55 L 592.32 692.10 L 592.91 691.68 L 593.50 691.02 L 594.09 671.35 L 594.68 693.61 L 595.27 691.09 L 595.86 692.47 L 596.44 697.37 L 597.03 697.95 L 597.62 697.97 L 598.21 696.54 L 598.80 696.66 L 599.39 697.66 L 599.98 692.30 L 600.57 689.38 L 601.16 694.55 L 601.74 694.54 L 602.33 693.06 L 602.92 688.19 L 603.51 692.69 L 604.10 687.43 L 604.69 697.55 L 605.28 690.92 L 605.87 693.72 L 606.46 690.52 L 607.04 695.32 L 607.63 691.54 L 608.22 690.63 L 608.81 690.87" stroke="#FB8C00" />
<text x="90" y="711.25" font-size="14" font-weight="700">Giroscópio (magnitude) (u.a.)</text>
<rect class="event" x="266.67" y="717.25" width="236.14" height="192.75" />
<line class="eventline" x1="266.67" y1="717.25" x2="266.67" y2="910.00" />
<line class="eventline" x1="502.81" y1="717.25" x2="502.81" y2="910.00" />
<line class="grid" x1="90" y1="910.00" x2="1150" y2="910.00" />
<text class="small" x="80" y="914.00" text-anchor="end">0.00</text>
<line class="grid" x1="90" y1="871.45" x2="1150" y2="871.45" />
<text class="small" x="80" y="875.45" text-anchor="end">0.10</text>
<line class="grid" x1="90" y1="832.90" x2="1150" y2="832.90" />
<text class="small" x="80" y="836.90" text-anchor="end">0.20</text>
<line class="grid" x1="90" y1="794.35" x2="1150" y2="794.35" />
<text class="small" x="80" y="798.35" text-anchor="end">0.30</text>
<line class="grid" x1="90" y1="755.80" x2="1150" y2="755.80" />
<text class="small" x="80" y="759.80" text-anchor="end">0.40</text>
<line class="grid" x1="90" y1="717.25" x2="1150" y2="717.25" />
<text class="small" x="80" y="721.25" text-anchor="end">0.50</text>
<line class="grid" x1="90.00" y1="717.25" x2="90.00" y2="910.00" />
<line class="grid" x1="266.67" y1="717.25" x2="266.67" y2="910.00" />
<line class="grid" x1="443.33" y1="717.25" x2="443.33" y2="910.00" />
<line class="grid" x1="620.00" y1="717.25" x2="620.00" y2="910.00" />
<line class="grid" x1="796.67" y1="717.25" x2="796.67" y2="910.00" />
<line class="grid" x1="973.33" y1="717.25" x2="973.33" y2="910.00" />
<line class="grid" x1="1150.00" y1="717.25" x2="1150.00" y2="910.00" />
<line class="axis" x1="90" y1="717.25" x2="90" y2="910.00" />
<line class="axis" x1="90" y1="910.00" x2="1150" y2="910.00" />
<path class="series" d="M 160.67 891.95 L 161.26 901.16 L 161.84 902.75 L 162.43 900.21 L 163.02 900.21 L 163.61 902.99 L 164.20 901.96 L 164.79 897.54 L 165.38 894.48 L 165.97 887.67 L 166.56 888.58 L 167.14 888.62 L 167.73 888.92 L 168.32 885.02 L 168.91 888.83 L 169.50 873.67 L 170.09 892.94 L 170.68 889.00 L 171.27 884.92 L 171.86 889.11 L 172.44 888.65 L 173.03 885.56 L 173.62 896.68 L 174.21 896.08 L 174.80 898.08 L 175.39 900.59 L 175.98 893.13 L 176.57 893.52 L 177.16 890.25 L 177.74 893.29 L 178.33 895.40 L 178.92 894.89 L 179.51 904.06 L 180.10 903.67 L 180.69 905.03 L 181.28 903.43 L 181.87 900.79 L 182.46 890.79 L 183.04 886.63 L 183.63 884.56 L 184.22 880.71 L 184.81 855.72 L 185.40 868.22 L 185.99 879.06 L 186.58 874.88 L 187.17 873.35 L 187.76 867.74 L 188.34 864.33 L 188.93 860.29 L 189.52 874.90 L 190.11 892.05 L 190.70 890.47 L 191.29 892.70 L 191.88 891.37 L 192.47 887.68 L 193.06 891.27 L 193.64 893.16 L 194.23 897.51 L 194.82 897.45 L 195.41 906.24 L 196.00 899.93 L 196.59 882.48 L 197.18 894.86 L 197.77 897.43 L 198.36 891.31 L 198.94 893.54 L 199.53 897.54 L 200.12 891.99 L 200.71 899.32 L 201.30 896.98 L 201.89 890.99 L 202.48 899.59 L 203.07 902.44 L 203.66 905.21 L 204.24 902.62 L 204.83 902.99 L 205.42 894.87 L 206.01 901.50 L 206.60 903.06 L 207.19 904.53 L 207.78 893.60 L 208.37 893.86 L 208.96 895.06 L 209.54 898.34 L 210.13 896.65 L 210.72 890.56 L 211.31 890.17 L 211.90 890.21 L 212.49 882.40 L 213.08 882.53 L 213.67 875.39 L 214.26 878.47 L 214.84 894.03 L 215.43 897.56 L 216.02 890.02 L 216.61 881.33 L 217.20 876.87 L 217.79 880.75 L 218.38 879.89 L 218.97 879.72 L 219.56 887.14 L 220.14 897.01 L 220.73 902.51 L 221.32 906.05 L 221.91 904.74 L 222.50 898.29 L 223.09 891.77 L 223.68 888.93 L 224.27 891.49 L 224.86 898.51 L 225.44 890.04 L 226.03 899.00 L 226.62 895.75 L 227.21 904.81 L 227.80 896.37 L 228.39 898.67 L 228.98 894.48 L 229.57 890.09 L 230.16 887.30 L 230.74 881.83 L 231.33 874.54 L 231.92 870.59 L 232.51 871.64 L 233.10 871.64 L 233.69 871.14 L 234.28 846.67 L 234.87 839.81 L 235.46 820.72 L 236.04 843.02 L 236.63 844.24 L 237.22 833.53 L 237.81 834.51 L 238.40 849.08 L 238.99 872.11 L 239.58 875.78 L 240.17 876.96 L 240.76 895.45 L 241.34 909.57 L 241.93 909.44 L 242.52 908.68 L 243.11 909.52 L 243.70 887.26 L 244.29 881.81 L 244.88 893.53 L 245.47 901.73 L 246.06 903.19 L 246.64 904.67 L 247.23 897.12 L 247.82 894.41 L 248.41 882.21 L 249.00 871.93 L 249.59 865.41 L 250.18 872.50 L 250.77 879.12 L 251.36 877.95 L 251.94 871.58 L 252.53 879.51 L 253.12 891.86 L 253.71 900.36 L 254.30 901.47 L 254.89 902.16 L 255.48 903.30 L 256.07 903.07 L 256.66 905.46 L 257.24 905.99 L 257.83 901.37 L 258.42 894.41 L 259.01 892.72 L 259.60 890.51 L 260.19 907.67 L 260.78 908.85 L 261.37 904.20 L 261.96 908.34 L 262.54 908.85 L 263.13 909.41 L 263.72 894.01 L 264.31 889.76 L 264.90 894.88 L 265.49 903.65 L 266.08 907.51 L 266.67 909.40 L 267.26 908.83 L 267.84 909.21 L 268.43 909.44 L 269.02 909.29 L 269.61 908.66 L 270.20 909.27 L 270.79 909.33 L 271.38 909.29 L 271.97 909.25 L 272.56 909.27 L 273.14 909.28 L 273.73 909.29 L 274.32 909.28 L 274.91 909.24 L 275.50 909.45 L 276.09 909.94 L 276.68 909.93 L 277.27 909.93 L 277.86 909.98 L 278.44 909.97 L 279.03 909.94 L 279.62 909.96 L 280.21 909.92 L 280.80 909.92 L 281.39 909.96 L 281.98 909.92 L 282.57 909.94 L 283.16 909.93 L 283.74 909.93 L 284.33 909.91 L 284.92 909.96 L 285.51 909.92 L 286.10 909.91 L 286.69 909.95 L 287.28 909.93 L 287.87 909.97 L 288.46 909.94 L 289.04 909.92 L 289.63 909.94 L 290.22 909.90 L 290.81 909.94 L 291.40 909.92 L 291.99 909.96 L 292.58 909.92 L 293.17 909.92 L 293.76 909.93 L 294.34 909.90 L 294.93 909.95 L 295.52 909.94 L 296.11 909.92 L 296.70 909.89 L 297.29 909.91 L 297.88 909.92 L 298.47 909.82 L 299.06 909.82 L 299.64 909.93 L 300.23 909.96 L 300.82 909.89 L 301.41 909.91 L 302.00 909.93 L 302.59 909.95 L 303.18 909.95 L 303.77 909.92 L 304.36 909.95 L 304.94 909.97 L 305.53 909.90 L 306.12 909.94 L 306.71 909.93 L 307.30 909.89 L 307.89 909.94 L 308.48 909.92 L 309.07 909.94 L 309.66 909.91 L 310.24 909.94 L 310.83 909.89 L 311.42 909.92 L 312.01 909.93 L 312.60 909.92 L 313.19 909.93 L 313.78 909.96 L 314.37 909.94 L 314.96 909.92 L 315.54 909.94 L 316.13 909.97 L 316.72 909.95 L 317.31 909.94 L 317.90 909.91 L 318.49 909.94 L 319.08 909.90 L 319.67 909.96 L 320.26 909.92 L 320.84 909.88 L 321.43 909.85 L 322.02 909.88 L 322.61 909.96 L 323.20 909.89 L 323.79 909.92 L 324.38 909.97 L 324.97 909.94 L 325.56 909.95 L 326.14 909.97 L 326.73 909.94 L 327.32 909.91 L 327.91 909.96 L 328.50 909.94 L 329.09 909.91 L 329.68 909.91 L 330.27 909.92 L 330.86 909.86 L 331.44 909.87 L 332.03 909.96 L 332.62 909.93 L 333.21 909.95 L 333.80 909.94 L 334.39 909.94 L 334.98 909.91 L 335.57 909.93 L 336.16 909.93 L 336.74 909.93 L 337.33 909.92 L 337.92 909.95 L 338.51 909.95 L 339.10 909.91 L 339.69 909.93 L 340.28 909.93 L 340.87 909.96 L 341.46 909.98 L 342.04 909.92 L 342.63 909.92 L 343.22 909.96 L 343.81 909.93 L 344.40 909.92 L 344.99 909.95 L 345.58 909.95 L 346.17 909.90 L 346.76 909.94 L 347.34 909.91 L 347.93 909.90 L 348.52 909.94 L 349.11 909.95 L 349.70 909.95 L 350.29 909.92 L 350.88 909.95 L 351.47 909.89 L 352.06 909.89 L 352.64 909.98 L 353.23 909.95 L 353.82 909.97 L 354.41 909.96 L 355.00 909.90 L 355.59 909.94 L 356.18 909.93 L 356.77 909.93 L 357.36 909.89 L 357.94 909.88 L 358.53 909.92 L 359.12 909.88 L 359.71 909.72 L 360.30 908.02 L 360.89 907.02 L 361.48 900.21 L 362.07 892.60 L 362.66 899.67 L 363.24 899.64 L 363.83 900.93 L 364.42 899.21 L 365.01 896.67 L 365.60 897.07 L 366.19 904.59 L 366.78 902.33 L 367.37 902.50 L 367.96 902.50 L 368.54 905.72 L 369.13 908.23 L 369.72 909.28 L 370.31 908.92 L 370.90 909.83 L 371.49 909.80 L 372.08 909.86 L 372.67 909.87 L 373.26 909.88 L 373.84 909.96 L 374.43 909.96 L 375.02 909.89 L 375.61 909.94 L 376.20 909.91 L 376.79 909.93 L 377.38 909.91 L 377.97 909.94 L 378.56 909.88 L 379.14 909.57 L 379.73 909.93 L 380.32 909.86 L 380.91 909.73 L 381.50 909.81 L 382.09 909.75 L 382.68 909.78 L 383.27 909.79 L 383.86 909.83 L 384.44 909.86 L 385.03 908.99 L 385.62 908.64 L 386.21 909.78 L 386.80 909.75 L 387.39 909.84 L 387.98 909.83 L 388.57 909.90 L 389.16 909.88 L 389.74 909.85 L 390.33 909.86 L 390.92 909.89 L 391.51 909.89 L 392.10 909.96 L 392.69 909.96 L 393.28 909.95 L 393.87 909.96 L 394.46 909.93 L 395.04 909.97 L 395.63 909.95 L 396.22 909.91 L 396.81 909.91 L 397.40 909.88 L 397.99 909.88 L 398.58 909.82 L 399.17 909.81 L 399.76 909.78 L 400.34 909.74 L 400.93 908.84 L 401.52 908.64 L 402.11 907.78 L 402.70 909.64 L 403.29 909.73 L 403.88 909.81 L 404.47 909.82 L 405.06 909.83 L 405.64 909.81 L 406.23 909.82 L 406.82 909.81 L 407.41 909.55 L 408.00 909.92 L 408.59 909.92 L 409.18 909.93 L 409.77 909.79 L 410.36 909.69 L 410.94 909.96 L 411.53 909.89 L 412.12 909.86 L 412.71 909.92 L 413.30 909.92 L 413.89 909.95 L 414.48 909.93 L 415.07 909.32 L 415.66 906.03 L 416.24 908.45 L 416.83 909.92 L 417.42 909.81 L 418.01 909.87 L 418.60 909.87 L 419.19 909.79 L 419.78 909.81 L 420.37 909.83 L 420.96 909.76 L 421.54 909.77 L 422.13 909.96 L 422.72 909.96 L 423.31 909.92 L 423.90 909.96 L 424.49 909.90 L 425.08 909.94 L 425.67 909.96 L 426.26 909.88 L 426.84 909.89 L 427.43 909.89 L 428.02 909.89 L 428.61 909.88 L 429.20 909.91 L 429.79 909.86 L 430.38 909.94 L 430.97 909.97 L 431.56 909.91 L 432.14 909.90 L 432.73 909.90 L 433.32 909.84 L 433.91 909.93 L 434.50 909.88 L 435.09 909.90 L 435.68 909.91 L 436.27 909.89 L 436.86 909.88 L 437.44 909.94 L 438.03 909.86 L 438.62 909.93 L 439.21 909.88 L 439.80 909.90 L 440.39 909.85 L 440.98 909.87 L 441.57 908.38 L 442.16 909.21 L 442.74 909.64 L 443.33 909.85 L 443.92 909.80 L 444.51 909.84 L 445.10 909.92 L 445.69 909.85 L 446.28 909.85 L 446.87 909.91 L 447.46 909.89 L 448.04 909.96 L 448.63 909.96 L 449.22 909.92 L 449.81 909.89 L 450.40 909.90 L 450.99 909.95 L 451.58 909.91 L 452.17 909.90 L 452.76 909.93 L 453.34 909.93 L 453.93 909.86 L 454.52 909.98 L 455.11 909.95 L 455.70 909.93 L 456.29 909.93 L 456.88 909.91 L 457.47 909.91 L 458.06 909.97 L 458.64 909.98 L 459.23 909.97 L 459.82 909.94 L 460.41 909.94 L 461.00 909.96 L 461.59 909.96 L 462.18 909.94 L 462.77 909.96 L 463.36 909.92 L 463.94 909.09 L 464.53 909.48 L 465.12 909.75 L 465.71 909.86 L 466.30 909.76 L 466.89 909.66 L 467.48 909.78 L 468.07 909.90 L 468.66 909.96 L 469.24 909.91 L 469.83 909.93 L 470.42 909.98 L 471.01 909.95 L 471.60 909.92 L 472.19 909.98 L 472.78 909.93 L 473.37 909.94 L 473.96 909.88 L 474.54 909.93 L 475.13 909.91 L 475.72 909.90 L 476.31 909.90 L 476.90 909.95 L 477.49 909.90 L 478.08 909.95 L 478.67 909.96 L 479.26 909.96 L 479.84 909.89 L 480.43 909.92 L 481.02 909.89 L 481.61 909.42 L 482.20 908.08 L 482.79 907.11 L 483.38 909.52 L 483.97 909.66 L 484.56 909.88 L 485.14 909.94 L 485.73 909.89 L 486.32 909.96 L 486.91 909.93 L 487.50 909.96 L 488.09 909.97 L 488.68 909.93 L 489.27 909.90 L 489.86 909.92 L 490.44 909.99 L 491.03 909.98 L 491.62 909.94 L 492.21 909.94 L 492.80 909.98 L 493.39 909.93 L 493.98 909.91 L 494.57 909.91 L 495.16 909.93 L 495.74 909.76 L 496.33 909.31 L 496.92 909.07 L 497.51 909.61 L 498.10 909.86 L 498.69 909.77 L 499.28 909.80 L 499.87 909.80 L 500.46 909.86 L 501.04 909.77 L 501.63 909.87 L 502.22 909.91 L 502.81 907.75 L 503.40 899.40 L 503.99 896.61 L 504.58 900.67 L 505.17 905.06 L 505.76 901.80 L 506.34 901.07 L 506.93 882.47 L 507.52 886.41 L 508.11 902.34 L 508.70 897.04 L 509.29 898.02 L 509.88 901.15 L 510.47 901.81 L 511.06 898.52 L 511.64 903.64 L 512.23 907.46 L 512.82 902.98 L 513.41 900.44 L 514.00 901.47 L 514.59 900.37 L 515.18 902.14 L 515.77 908.01 L 516.36 900.80 L 516.94 894.96 L 517.53 889.64 L 518.12 888.80 L 518.71 894.94 L 519.30 896.83 L 519.89 893.64 L 520.48 892.36 L 521.07 891.65 L 521.66 893.47 L 522.24 896.85 L 522.83 901.10 L 523.42 905.41 L 524.01 907.45 L 524.60 898.24 L 525.19 892.16 L 525.78 890.40 L 526.37 891.45 L 526.96 900.01 L 527.54 903.98 L 528.13 900.92 L 528.72 902.08 L 529.31 889.35 L 529.90 896.53 L 530.49 895.70 L 531.08 889.85 L 531.67 903.25 L 532.26 894.95 L 532.84 893.21 L 533.43 894.04 L 534.02 895.53 L 534.61 892.50 L 535.20 893.85 L 535.79 895.44 L 536.38 896.22 L 536.97 902.07 L 537.56 904.11 L 538.14 900.79 L 538.73 903.36 L 539.32 903.75 L 539.91 882.24 L 540.50 895.88 L 541.09 900.27 L 541.68 894.32 L 542.27 896.07 L 542.86 901.35 L 543.44 900.53 L 544.03 905.77 L 544.62 894.28 L 545.21 900.59 L 545.80 903.37 L 546.39 907.04 L 546.98 898.70 L 547.57 894.44 L 548.16 904.21 L 548.74 893.93 L 549.33 904.17 L 549.92 899.22 L 550.51 906.42 L 551.10 892.47 L 551.69 888.60 L 552.28 889.32 L 552.87 889.35 L 553.46 893.01 L 554.04 903.51 L 554.63 907.50 L 555.22 901.71 L 555.81 902.01 L 556.40 889.45 L 556.99 891.53 L 557.58 881.39 L 558.17 874.98 L 558.76 886.02 L 559.34 902.16 L 559.93 906.26 L 560.52 906.39 L 561.11 904.71 L 561.70 906.30 L 562.29 903.96 L 562.88 899.95 L 563.47 886.65 L 564.06 885.33 L 564.64 881.28 L 565.23 875.77 L 565.82 871.03 L 566.41 874.10 L 567.00 878.57 L 567.59 880.34 L 568.18 890.33 L 568.77 894.58 L 569.36 899.45 L 569.94 892.99 L 570.53 892.99 L 571.12 894.74 L 571.71 894.53 L 572.30 891.49 L 572.89 892.45 L 573.48 892.68 L 574.07 894.74 L 574.66 886.22 L 575.24 884.13 L 575.83 893.45 L 576.42 895.23 L 577.01 896.78 L 577.60 904.39 L 578.19 903.94 L 578.78 900.27 L 579.37 900.97 L 579.96 908.47 L 580.54 906.13 L 581.13 907.11 L 581.72 907.05 L 582.31 908.18 L 582.90 907.61 L 583.49 903.41 L 584.08 901.44 L 584.67 901.01 L 585.26 901.78 L 585.84 902.23 L 586.43 906.19 L 587.02 908.58 L 587.61 907.83 L 588.20 903.05 L 588.79 906.46 L 589.38 907.85 L 589.97 900.86 L 590.56 902.50 L 591.14 904.66 L 591.73 907.08 L 592.32 906.89 L 592.91 905.06 L 593.50 903.34 L 594.09 903.14 L 594.68 901.82 L 595.27 901.32 L 595.86 899.17 L 596.44 899.71 L 597.03 899.58 L 597.62 901.06 L 598.21 900.93 L 598.80 900.76 L 599.39 900.93 L 599.98 900.21 L 600.57 899.90 L 601.16 900.32 L 601.74 899.81 L 602.33 898.70 L 602.92 899.99 L 603.51 905.11 L 604.10 909.05 L 604.69 906.61 L 605.28 906.52 L 605.87 905.48 L 606.46 905.61 L 607.04 905.36 L 607.63 902.43 L 608.22 905.77 L 608.81 905.11" stroke="#E53935" />
<text x="620.00" y="952" font-size="15" text-anchor="middle">minutos (relativo ao início do evento)</text>
<text class="small" x="90.00" y="936" text-anchor="middle">-5.00</text>
<text class="small" x="266.67" y="936" text-anchor="middle">0.00</text>
<text class="small" x="443.33" y="936" text-anchor="middle">5.00</text>
<text class="small" x="620.00" y="936" text-anchor="middle">10.0</text>
<text class="small" x="796.67" y="936" text-anchor="middle">15.0</text>
<text class="small" x="973.33" y="936" text-anchor="middle">20.0</text>
<text class="small" x="1150.00" y="936" text-anchor="middle">25.0</text>
</svg>