<?xml version="1.0" encoding="UTF-8"?>
<svg xmlns="http://www.w3.org/2000/svg" width="1180" height="980" viewBox="0 0 1180 980">
<style>
text { font-family: -apple-system, BlinkMacSystemFont, 'Segoe UI', Roboto, Helvetica, Arial, sans-serif; fill: #111; }
.small { font-size: 12px; fill: #222; }
.title { font-size: 18px; font-weight: 700; }
.axis { stroke: #111; stroke-width: 1.4; }
.grid { stroke: #E6E6E6; stroke-width: 1; }
.event { fill: #FFEB3B; fill-opacity: 0.18; }
.eventline { stroke: #F9A825; stroke-width: 1.2; stroke-dasharray: 4 3; }
.series { fill: none; stroke-width: 1.8; }
</style>
<text class="title" x="90" y="34">ciclo 39 — basculamento — 2025-12-13T11:40:47-03:00 → 2025-12-13T11:48:08-03:00 (span 441s, dur 47s)</text>
<text class="small" x="90" y="54">GPS: -11.694134,-47.164353  hotspot: -11.694,-47.164</text>
<text class="small" x="90" y="70">Janela: -3.00 → 10.3 min (relativo ao início do evento)</text>
<text x="90" y="79.00" font-size="14" font-weight="700">Velocidade (km/h)</text>
<rect class="event" x="266.67" y="85.00" width="259.70" height="192.75" />
<line class="eventline" x1="266.67" y1="85.00" x2="266.67" y2="277.75" />
<line class="eventline" x1="526.37" y1="85.00" x2="526.37" y2="277.75" />
<line class="grid" x1="90" y1="277.75" x2="1150" y2="277.75" />
<text class="small" x="80" y="281.75" text-anchor="end">0.00</text>
<line class="grid" x1="90" y1="239.20" x2="1150" y2="239.20" />
<text class="small" x="80" y="243.20" text-anchor="end">5.00</text>
<line class="grid" x1="90" y1="200.65" x2="1150" y2="200.65" />
<text class="small" x="80" y="204.65" text-anchor="end">10.0</text>
<line class="grid" x1="90" y1="162.10" x2="1150" y2="162.10" />
<text class="small" x="80" y="166.10" text-anchor="end">15.0</text>
<line class="grid" x1="90" y1="123.55" x2="1150" y2="123.55" />
<text class="small" x="80" y="127.55" text-anchor="end">20.0</text>
<line class="grid" x1="90" y1="85.00" x2="1150" y2="85.00" />
<text class="small" x="80" y="89.00" text-anchor="end">25.0</text>
<line class="grid" x1="90.00" y1="85.00" x2="90.00" y2="277.75" />
<line class="grid" x1="266.67" y1="85.00" x2="266.67" y2="277.75" />
<line class="grid" x1="443.33" y1="85.00" x2="443.33" y2="277.75" />
<line class="grid" x1="620.00" y1="85.00" x2="620.00" y2="277.75" />
<line class="grid" x1="796.67" y1="85.00" x2="796.67" y2="277.75" />
<line class="grid" x1="973.33" y1="85.00" x2="973.33" y2="277.75" />
<line class="grid" x1="1150.00" y1="85.00" x2="1150.00" y2="277.75" />
<line class="axis" x1="90" y1="85.00" x2="90" y2="277.75" />
<line class="axis" x1="90" y1="277.75" x2="1150" y2="277.75" />
<path class="series" d="M 160.67 209.75 L 161.26 207.80 L 161.84 207.80 L 162.43 207.80 L 163.02 203.92 L 163.61 206.97 L 164.20 211.14 L 164.79 204.20 L 165.38 209.19 L 165.97 214.74 L 166.56 207.53 L 167.14 210.30 L 167.73 206.97 L 168.32 213.08 L 168.91 205.03 L 169.50 212.52 L 170.09 208.08 L 170.68 208.08 L 171.27 211.69 L 171.86 212.80 L 172.44 210.30 L 173.03 209.75 L 173.62 208.92 L 174.21 206.42 L 174.80 202.25 L 175.39 198.65 L 175.98 178.38 L 176.57 173.11 L 177.16 175.61 L 177.74 177.55 L 178.33 180.60 L 178.92 185.32 L 179.51 193.65 L 180.10 196.70 L 180.69 198.65 L 181.28 201.14 L 181.87 203.09 L 182.46 204.20 L 183.04 203.09 L 183.63 199.76 L 184.22 198.37 L 184.81 193.93 L 185.40 191.98 L 185.99 186.71 L 186.58 182.82 L 187.17 180.05 L 187.76 183.66 L 188.34 187.27 L 188.93 188.38 L 189.52 196.15 L 190.11 205.03 L 190.70 200.87 L 191.29 201.98 L 191.88 200.03 L 192.47 194.48 L 193.06 191.98 L 193.64 182.82 L 194.23 180.33 L 194.82 172.55 L 195.41 170.89 L 196.00 162.84 L 196.59 158.12 L 197.18 167.00 L 197.77 166.45 L 198.36 172.28 L 198.94 175.33 L 199.53 177.55 L 200.12 176.72 L 200.71 188.38 L 201.30 195.59 L 201.89 206.69 L 202.48 213.63 L 203.07 214.19 L 203.66 209.75 L 204.24 200.03 L 204.83 194.48 L 205.42 188.65 L 206.01 188.65 L 206.60 190.04 L 207.19 181.16 L 207.78 180.60 L 208.37 195.31 L 208.96 208.36 L 209.54 221.41 L 210.13 223.63 L 210.72 223.90 L 211.31 221.13 L 211.90 215.30 L 212.49 216.41 L 213.08 218.07 L 213.67 218.63 L 214.26 218.91 L 214.84 225.57 L 215.43 224.46 L 216.02 223.35 L 216.61 226.96 L 217.20 223.07 L 217.79 225.01 L 218.38 213.08 L 218.97 216.41 L 219.56 211.69 L 220.14 212.25 L 220.73 206.69 L 221.32 206.69 L 221.91 214.47 L 222.50 221.96 L 223.09 225.01 L 223.68 217.24 L 224.27 207.25 L 224.86 211.14 L 225.44 214.74 L 226.03 215.85 L 226.62 214.74 L 227.21 215.58 L 227.80 208.08 L 228.39 214.47 L 228.98 216.41 L 229.57 212.52 L 230.16 218.07 L 230.74 222.24 L 231.33 215.58 L 231.92 220.57 L 232.51 220.30 L 233.10 225.85 L 233.69 227.51 L 234.28 231.95 L 234.87 234.17 L 235.46 236.95 L 236.04 235.28 L 236.63 228.62 L 237.22 230.01 L 237.81 235.28 L 238.40 235.56 L 238.99 233.34 L 239.58 236.12 L 240.17 236.39 L 240.76 237.23 L 241.34 240.28 L 241.93 241.94 L 242.52 239.72 L 243.11 277.75 L 243.70 277.75 L 244.29 236.95 L 244.88 245.28 L 245.47 239.45 L 246.06 239.72 L 246.64 239.72 L 247.23 235.01 L 247.82 237.23 L 248.41 246.94 L 249.00 249.99 L 249.59 248.88 L 250.18 248.05 L 250.77 253.05 L 251.36 249.44 L 251.94 242.78 L 252.53 228.34 L 253.12 250.27 L 253.71 272.48 L 254.30 273.59 L 254.89 267.20 L 255.48 277.75 L 256.07 277.75 L 256.66 277.75 L 257.24 259.71 L 257.83 250.83 L 258.42 254.71 L 259.01 253.60 L 259.60 251.66 L 260.19 252.77 L 260.78 252.21 L 261.37 251.38 L 261.96 255.82 L 262.54 257.21 L 263.13 258.04 L 263.72 258.32 L 264.31 258.88 L 264.90 264.15 L 265.49 263.87 L 266.08 266.09 L 266.67 277.75 L 267.26 277.75 L 267.84 277.75 L 268.43 277.75 L 269.02 277.75 L 269.61 277.75 L 270.20 277.75 L 270.79 277.75 L 271.38 277.75 L 271.97 277.75 L 272.56 277.75 L 273.14 277.75 L 273.73 277.75 L 274.32 277.75 L 274.91 277.75 L 275.50 277.75 L 276.09 277.75 L 276.68 277.75 L 277.27 277.75 L 277.86 277.75 L 278.44 263.59 L 279.03 261.37 L 279.62 263.87 L 280.21 277.75 L 280.80 277.75 L 281.39 277.75 L 281.98 277.75 L 282.57 277.75 L 283.16 277.75 L 283.74 277.75 L 284.33 277.75 L 284.92 277.75 L 285.51 277.75 L 286.10 277.75 L 286.69 277.75 L 287.28 277.75 L 287.87 277.75 L 288.46 277.75 L 289.04 277.75 L 289.63 277.75 L 290.22 277.75 L 290.81 277.75 L 291.40 277.75 L 291.99 277.75 L 292.58 277.75 L 293.17 277.75 L 293.76 277.75 L 294.34 277.75 L 294.93 277.75 L 295.52 277.75 L 296.11 277.75 L 296.70 277.75 L 297.29 277.75 L 297.88 277.75 L 298.47 277.75 L 299.06 277.75 L 299.64 277.75 L 300.23 277.75 L 300.82 277.75 L 301.41 277.75 L 302.00 277.75 L 302.59 277.75 L 303.18 277.75 L 303.77 277.75 L 304.36 277.75 L 304.94 277.75 L 305.53 277.75 L 306.12 277.75 L 306.71 277.75 L 307.30 277.75 L 307.89 277.75 L 308.48 277.75 L 309.07 277.75 L 309.66 277.75 L 310.24 277.75 L 310.83 277.75 L 311.42 277.75 L 312.01 277.75 L 312.60 277.75 L 313.19 277.75 L 313.78 277.75 L 314.37 277.75 L 314.96 277.75 L 315.54 277.75 L 316.13 277.75 L 316.72 277.75 L 317.31 277.75 L 317.90 277.75 L 318.49 277.75 L 319.08 277.75 L 319.67 277.75 L 320.26 277.75 L 320.84 277.75 L 321.43 277.75 L 322.02 277.75 L 322.61 277.75 L 323.20 277.75 L 323.79 277.75 L 324.38 277.75 L 324.97 277.75 L 325.56 277.75 L 326.14 277.75 L 326.73 277.75 L 327.32 277.75 L 327.91 277.75 L 328.50 277.75 L 329.09 277.75 L 329.68 277.75 L 330.27 277.75 L 330.86 277.75 L 331.44 277.75 L 332.03 277.75 L 332.62 277.75 L 333.21 277.75 L 333.80 277.75 L 334.39 277.75 L 334.98 277.75 L 335.57 277.75 L 336.16 277.75 L 336.74 277.75 L 337.33 277.75 L 337.92 277.75 L 338.51 277.75 L 339.10 277.75 L 339.69 277.75 L 340.28 277.75 L 340.87 277.75 L 341.46 277.75 L 342.04 277.75 L 342.63 277.75 L 343.22 277.75 L 343.81 277.75 L 344.40 277.75 L 344.99 277.75 L 345.58 277.75 L 346.17 277.75 L 346.76 277.75 L 347.34 277.75 L 347.93 277.75 L 348.52 277.75 L 349.11 277.75 L 349.70 277.75 L 350.29 277.75 L 350.88 277.75 L 351.47 277.75 L 352.06 277.75 L 352.64 277.75 L 353.23 277.75 L 353.82 277.75 L 354.41 277.75 L 355.00 277.75 L 355.59 277.75 L 356.18 277.75 L 356.77 277.75 L 357.36 277.75 L 357.94 277.75 L 358.53 277.75 L 359.12 277.75 L 359.71 277.75 L 360.30 277.75 L 360.89 277.75 L 361.48 277.75 L 362.07 277.75 L 362.66 277.75 L 363.24 277.75 L 363.83 277.75 L 364.42 277.75 L 365.01 277.75 L 365.60 277.75 L 366.78 277.75 L 366.78 277.75 L 367.37 277.75 L 367.96 277.75 L 368.54 277.75 L 369.13 277.75 L 369.72 277.75 L 370.31 277.75 L 370.90 277.75 L 371.49 277.75 L 372.08 277.75 L 372.67 277.75 L 373.26 277.75 L 373.84 277.75 L 379.73 277.75 L 380.32 277.75 L 380.91 277.75 L 381.50 277.75 L 382.09 277.75 L 382.68 277.75 L 383.27 277.75 L 383.86 277.75 L 384.44 277.75 L 385.03 277.75 L 385.62 277.75 L 386.21 277.75 L 386.80 277.75 L 387.39 277.75 L 387.98 277.75 L 388.57 277.75 L 389.16 277.75 L 389.74 277.75 L 390.33 277.75 L 390.92 277.75 L 391.51 277.75 L 392.10 277.75 L 392.69 277.75 L 393.28 277.75 L 393.87 277.75 L 394.46 277.75 L 395.04 277.75 L 395.63 277.75 L 396.22 277.75 L 396.81 277.75 L 397.40 277.75 L 397.99 277.75 L 398.58 277.75 L 399.17 277.75 L 399.76 277.75 L 400.34 277.75 L 400.93 277.75 L 401.52 277.75 L 402.11 277.75 L 402.70 277.75 L 403.29 277.75 L 403.88 277.75 L 404.47 277.75 L 405.06 277.75 L 405.64 277.75 L 406.23 277.75 L 406.82 277.75 L 407.41 277.75 L 408.00 277.75 L 408.59 277.75 L 409.18 277.75 L 409.77 277.75 L 410.36 277.75 L 410.94 277.75 L 411.53 277.75 L 412.12 277.75 L 412.71 277.75 L 413.30 277.75 L 413.89 277.75 L 414.48 277.75 L 415.07 277.75 L 415.66 277.75 L 416.24 277.75 L 416.83 277.75 L 417.42 277.75 L 418.01 277.75 L 418.60 277.75 L 419.19 277.75 L 419.78 277.75 L 420.37 277.75 L 420.96 277.75 L 421.54 277.75 L 422.13 277.75 L 422.72 277.75 L 423.31 277.75 L 423.90 277.75 L 424.49 277.75 L 425.08 277.75 L 425.67 277.75 L 426.26 277.75 L 426.84 277.75 L 427.43 277.75 L 428.02 277.75 L 428.61 277.75 L 429.20 277.75 L 429.79 277.75 L 430.38 277.75 L 430.97 277.75 L 431.56 277.75 L 432.14 277.75 L 432.73 277.75 L 433.32 277.75 L 433.91 277.75 L 434.50 277.75 L 435.09 277.75 L 435.68 277.75 L 436.27 277.75 L 436.86 277.75 L 437.44 277.75 L 438.62 277.75 L 438.62 277.75 L 439.21 277.75 L 439.80 277.75 L 440.39 277.75 L 440.98 277.75 L 441.57 277.75 L 442.16 277.75 L 442.74 277.75 L 443.33 277.75 L 443.92 277.75 L 444.51 277.75 L 445.10 277.75 L 445.69 277.75 L 446.28 277.75 L 446.87 277.75 L 447.46 277.75 L 448.04 277.75 L 448.63 277.75 L 449.22 277.75 L 449.81 277.75 L 450.40 277.75 L 450.99 277.75 L 451.58 277.75 L 452.17 277.75 L 452.76 277.75 L 453.34 277.75 L 453.93 277.75 L 454.52 277.75 L 455.11 277.75 L 455.70 277.75 L 456.29 277.75 L 456.88 277.75 L 457.47 277.75 L 458.06 277.75 L 458.64 277.75 L 459.23 277.75 L 459.82 277.75 L 460.41 277.75 L 461.00 277.75 L 461.59 277.75 L 462.18 277.75 L 462.77 277.75 L 463.36 277.75 L 463.94 277.75 L 464.53 277.75 L 465.12 277.75 L 465.71 277.75 L 466.30 277.75 L 466.89 277.75 L 467.48 277.75 L 468.07 277.75 L 468.66 277.75 L 469.24 277.75 L 469.83 277.75 L 470.42 277.75 L 471.01 277.75 L 471.60 277.75 L 472.19 277.75 L 472.78 277.75 L 473.37 277.75 L 473.96 277.75 L 474.54 277.75 L 475.13 277.75 L 475.72 277.75 L 476.31 277.75 L 476.90 277.75 L 477.49 277.75 L 478.08 277.75 L 478.67 277.75 L 479.26 277.75 L 479.84 277.75 L 480.43 277.75 L 481.02 277.75 L 481.61 277.75 L 482.20 277.75 L 482.79 277.75 L 483.38 277.75 L 483.97 277.75 L 484.56 277.75 L 485.14 277.75 L 485.73 277.75 L 486.32 277.75 L 486.91 277.75 L 487.50 277.75 L 488.09 277.75 L 488.68 277.75 L 489.27 277.75 L 489.86 277.75 L 490.44 277.75 L 491.03 277.75 L 491.62 277.75 L 492.21 277.75 L 492.80 277.75 L 493.39 277.75 L 493.98 277.75 L 494.57 277.75 L 495.16 277.75 L 495.74 277.75 L 496.33 277.75 L 496.92 277.75 L 497.51 277.75 L 498.10 277.75 L 498.69 277.75 L 499.28 277.75 L 499.87 277.75 L 500.46 277.75 L 501.04 277.75 L 501.63 277.75 L 502.22 277.75 L 502.81 277.75 L 503.40 277.75 L 503.99 277.75 L 504.58 277.75 L 505.17 277.75 L 505.76 277.75 L 511.06 277.75 L 511.64 277.75 L 512.23 277.75 L 512.82 277.75 L 513.41 277.75 L 514.00 277.75 L 514.59 277.75 L 515.18 277.75 L 515.77 277.75 L 516.36 277.75 L 516.94 277.75 L 517.53 277.75 L 518.12 277.75 L 518.71 277.75 L 519.30 277.75 L 519.89 277.75 L 520.48 277.75 L 521.07 277.75 L 521.66 277.75 L 522.24 277.75 L 522.83 277.75 L 523.42 277.75 L 524.01 277.75 L 524.60 277.75 L 525.19 277.75 L 525.78 277.75 L 526.37 277.75 L 526.96 260.26 L 527.54 250.83 L 528.13 245.00 L 528.72 243.33 L 529.31 245.00 L 529.90 242.22 L 530.49 250.27 L 531.08 229.45 L 531.67 226.68 L 532.26 239.45 L 532.84 228.90 L 533.43 228.90 L 534.02 277.75 L 534.61 209.47 L 535.20 210.30 L 535.79 210.30 L 536.38 205.58 L 536.97 203.64 L 537.56 205.31 L 538.14 208.36 L 538.73 202.53 L 539.32 200.59 L 539.91 198.37 L 540.50 198.37 L 541.09 193.37 L 541.68 194.76 L 542.27 192.26 L 542.86 190.87 L 543.44 189.21 L 544.03 186.71 L 544.62 173.11 L 545.21 170.06 L 545.80 165.89 L 546.39 160.06 L 546.98 161.45 L 547.57 173.39 L 548.16 162.56 L 548.74 162.56 L 549.33 161.73 L 549.92 172.55 L 550.51 163.67 L 551.10 164.23 L 551.69 173.11 L 552.28 173.11 L 552.87 173.11 L 553.46 177.83 L 554.04 177.27 L 554.63 171.44 L 555.22 173.94 L 555.81 173.94 L 556.40 173.11 L 556.99 180.33 L 557.58 189.21 L 558.17 189.21 L 558.76 172.00 L 559.34 167.28 L 559.93 160.90 L 560.52 153.68 L 561.11 153.68 L 561.70 143.97 L 562.29 132.03 L 562.88 168.67 L 563.47 168.67 L 564.06 168.67 L 564.64 168.67 L 565.23 168.67 L 565.82 168.67 L 566.41 168.67 L 567.00 163.67 L 567.59 162.56 L 568.18 158.68 L 568.77 158.68 L 569.36 155.07 L 569.94 146.46 L 570.53 138.14 L 571.12 121.76 L 571.71 107.88 L 572.30 107.88 L 572.89 107.88 L 573.48 102.05 L 574.07 108.72 L 574.66 99.83 L 575.24 104.00 L 575.83 106.22 L 576.42 105.11 L 577.01 105.11 L 577.60 105.11 L 578.19 105.11 L 578.78 105.11 L 579.37 105.11 L 579.96 105.11 L 580.54 105.11 L 581.13 105.11 L 581.72 105.11 L 582.31 105.11 L 582.90 105.11 L 583.49 105.11 L 584.08 105.11 L 584.67 105.11 L 585.26 105.11 L 585.84 105.11 L 586.43 105.11 L 587.02 105.11 L 587.61 105.11 L 588.20 105.11 L 588.79 105.11 L 589.38 105.11 L 589.97 105.11 L 590.56 105.11 L 591.14 105.11 L 591.73 105.11 L 592.32 105.11 L 592.91 105.11 L 593.50 105.11 L 594.09 105.11 L 594.68 105.11 L 595.27 105.11 L 595.86 105.11 L 596.44 105.11 L 597.03 105.11 L 597.62 105.11 L 598.21 105.11 L 598.80 105.11 L 599.39 105.11 L 599.98 105.11 L 600.57 105.11 L 601.16 105.11 L 601.74 105.11 L 602.33 105.11 L 602.92 105.11 L 603.51 105.11 L 604.10 105.11 L 604.69 105.11 L 605.28 105.11 L 605.87 105.11 L 606.46 105.11 L 607.04 105.11 L 607.63 105.11 L 608.22 105.11 L 608.81 105.11 L 609.40 105.11 L 609.99 105.11 L 610.58 105.11 L 611.17 105.11 L 611.76 105.11 L 612.34 105.11 L 612.93 105.11 L 613.52 105.11 L 614.11 105.11 L 614.70 105.11 L 615.29 105.11 L 615.88 105.11 L 616.47 105.11 L 617.06 105.11 L 617.64 105.11 L 618.23 105.11 L 618.82 105.11 L 619.41 105.11 L 620.00 105.11 L 620.59 105.11 L 621.18 105.11 L 621.77 105.11 L 622.36 105.11 L 622.94 105.11 L 623.53 105.11 L 624.12 105.11 L 624.71 105.11 L 625.30 105.11 L 625.89 105.11 L 626.48 105.11 L 627.07 105.11 L 627.66 105.11 L 628.24 105.11 L 628.83 105.11 L 629.42 105.11 L 630.01 105.11 L 630.60 105.11 L 631.19 105.11 L 631.78 105.11 L 632.37 105.11" stroke="#1976D2" />
<text x="90" y="289.75" font-size="14" font-weight="700">Inclinação (graus)</text>
<rect class="event" x="266.67" y="295.75" width="259.70" height="192.75" />
<line class="eventline" x1="266.67" y1="295.75" x2="266.67" y2="488.50" />
<line class="eventline" x1="526.37" y1="295.75" x2="526.37" y2="488.50" />
<line class="grid" x1="90" y1="488.50" x2="1150" y2="488.50" />
<text class="small" x="80" y="492.50" text-anchor="end">-10.0</text>
<line class="grid" x1="90" y1="449.95" x2="1150" y2="449.95" />
<text class="small" x="80" y="453.95" text-anchor="end">0.00</text>
<line class="grid" x1="90" y1="411.40" x2="1150" y2="411.40" />
<text class="small" x="80" y="415.40" text-anchor="end">10.0</text>
<line class="grid" x1="90" y1="372.85" x2="1150" y2="372.85" />
<text class="small" x="80" y="376.85" text-anchor="end">20.0</text>
<line class="grid" x1="90" y1="334.30" x2="1150" y2="334.30" />
<text class="small" x="80" y="338.30" text-anchor="end">30.0</text>
<line class="grid" x1="90" y1="295.75" x2="1150" y2="295.75" />
<text class="small" x="80" y="299.75" text-anchor="end">40.0</text>
<line class="grid" x1="90.00" y1="295.75" x2="90.00" y2="488.50" />
<line class="grid" x1="266.67" y1="295.75" x2="266.67" y2="488.50" />
<line class="grid" x1="443.33" y1="295.75" x2="443.33" y2="488.50" />
<line class="grid" x1="620.00" y1="295.75" x2="620.00" y2="488.50" />
<line class="grid" x1="796.67" y1="295.75" x2="796.67" y2="488.50" />
<line class="grid" x1="973.33" y1="295.75" x2="973.33" y2="488.50" />
<line class="grid" x1="1150.00" y1="295.75" x2="1150.00" y2="488.50" />
<line class="axis" x1="90" y1="295.75" x2="90" y2="488.50" />
<line class="axis" x1="90" y1="488.50" x2="1150" y2="488.50" />
<path class="series" d="M 160.67 433.18 L 161.26 430.65 L 161.84 425.56 L 162.43 423.24 L 163.02 421.94 L 163.61 423.81 L 164.20 427.27 L 164.79 421.26 L 165.38 426.29 L 165.97 430.59 L 166.56 427.72 L 167.14 426.64 L 167.73 428.40 L 168.32 431.04 L 168.91 428.53 L 169.50 430.31 L 170.09 431.89 L 170.68 431.53 L 171.27 429.68 L 171.86 429.48 L 172.44 431.91 L 173.03 429.21 L 173.62 433.68 L 174.21 424.28 L 174.80 421.39 L 175.39 427.57 L 175.98 426.97 L 176.57 422.63 L 177.16 423.85 L 177.74 427.47 L 178.33 430.68 L 178.92 429.24 L 179.51 430.44 L 180.10 434.12 L 180.69 433.67 L 181.28 433.22 L 181.87 433.50 L 182.46 432.72 L 183.04 431.65 L 183.63 431.34 L 184.22 432.47 L 184.81 430.11 L 185.40 429.19 L 185.99 426.42 L 186.58 417.54 L 187.17 410.77 L 187.76 409.23 L 188.34 409.01 L 188.93 412.69 L 189.52 414.31 L 190.11 416.31 L 190.70 415.92 L 191.29 417.69 L 191.88 417.55 L 192.47 419.22 L 193.06 421.60 L 193.64 421.60 L 194.23 418.65 L 194.82 417.42 L 195.41 416.23 L 196.00 410.44 L 196.59 405.56 L 197.18 402.87 L 197.77 404.82 L 198.36 401.42 L 198.94 405.68 L 199.53 401.69 L 200.12 399.65 L 200.71 405.24 L 201.30 406.95 L 201.89 404.24 L 202.48 413.25 L 203.07 416.59 L 203.66 419.89 L 204.24 423.20 L 204.83 419.93 L 205.42 413.74 L 206.01 411.56 L 206.60 409.97 L 207.19 412.23 L 207.78 406.91 L 208.37 404.76 L 208.96 401.43 L 209.54 408.57 L 210.13 410.17 L 210.72 417.39 L 211.31 418.11 L 211.90 418.42 L 212.49 406.16 L 213.08 408.23 L 213.67 411.95 L 214.26 413.68 L 214.84 409.51 L 215.43 415.30 L 216.02 416.58 L 216.61 414.43 L 217.20 413.85 L 217.79 414.66 L 218.38 413.10 L 218.97 413.98 L 219.56 414.08 L 220.14 412.17 L 220.73 405.38 L 221.32 411.06 L 221.91 408.93 L 222.50 414.57 L 223.09 411.03 L 223.68 416.76 L 224.27 416.08 L 224.86 406.18 L 225.44 406.68 L 226.03 406.09 L 226.62 407.55 L 227.21 406.47 L 227.80 406.03 L 228.39 407.04 L 228.98 403.86 L 229.57 404.14 L 230.16 399.95 L 230.74 399.50 L 231.33 401.44 L 231.92 401.17 L 232.51 406.86 L 233.10 407.91 L 233.69 406.14 L 234.28 405.43 L 234.87 405.42 L 235.46 406.61 L 236.04 404.07 L 236.63 401.70 L 237.22 403.27 L 237.81 401.74 L 238.40 402.31 L 238.99 397.58 L 239.58 399.49 L 240.17 399.74 L 240.76 396.77 L 241.34 399.54 L 241.93 400.32 L 242.52 398.45 L 243.11 399.15 L 243.70 399.55 L 244.29 398.99 L 244.88 402.44 L 245.47 405.45 L 246.06 408.13 L 246.64 405.21 L 247.23 403.88 L 247.82 400.56 L 248.41 402.89 L 249.00 406.74 L 249.59 410.43 L 250.18 398.92 L 250.77 411.25 L 251.36 412.91 L 251.94 411.99 L 252.53 390.74 L 253.12 388.38 L 253.71 393.99 L 254.30 395.62 L 254.89 400.76 L 255.48 405.25 L 256.07 402.54 L 256.66 416.89 L 257.24 403.89 L 257.83 409.04 L 258.42 408.38 L 259.01 411.77 L 259.60 412.29 L 260.19 413.53 L 260.78 414.09 L 261.37 417.09 L 261.96 418.13 L 262.54 418.41 L 263.13 415.65 L 263.72 419.72 L 264.31 419.90 L 264.90 418.48 L 265.49 418.30 L 266.08 419.11 L 266.67 415.99 L 267.26 413.72 L 267.84 424.37 L 268.43 412.37 L 269.02 417.32 L 269.61 418.76 L 270.20 420.84 L 270.79 414.58 L 271.38 416.33 L 271.97 417.22 L 272.56 414.86 L 273.14 415.24 L 273.73 415.20 L 274.32 415.24 L 274.91 424.94 L 275.50 418.27 L 276.09 419.69 L 276.68 415.04 L 277.27 421.69 L 277.86 421.13 L 278.44 416.03 L 279.03 417.10 L 279.62 416.45 L 280.21 418.20 L 280.80 407.82 L 281.39 422.32 L 281.98 417.23 L 282.57 418.20 L 283.16 418.22 L 283.74 417.91 L 284.33 410.57 L 284.92 415.65 L 285.51 420.05 L 286.10 422.14 L 286.69 423.55 L 287.28 415.60 L 287.87 414.01 L 288.46 415.24 L 289.04 421.51 L 289.63 416.56 L 290.22 413.03 L 290.81 415.37 L 291.40 418.37 L 291.99 418.37 L 292.58 418.37 L 293.17 418.37 L 293.76 418.37 L 294.34 418.37 L 294.93 418.37 L 295.52 418.37 L 296.11 418.37 L 296.70 418.37 L 297.29 418.37 L 297.88 418.37 L 298.47 418.37 L 299.06 418.37 L 299.64 418.37 L 300.23 418.37 L 300.82 418.37 L 301.41 418.37 L 302.00 418.37 L 302.59 418.37 L 303.18 418.37 L 303.77 418.37 L 304.36 418.37 L 304.94 418.37 L 305.53 418.37 L 306.12 418.37 L 306.71 418.37 L 307.30 418.37 L 307.89 418.37 L 308.48 418.37 L 309.07 418.37 L 309.66 418.37 L 310.24 418.37 L 310.83 418.37 L 311.42 418.37 L 312.01 418.37 L 312.60 418.37 L 313.19 418.37 L 313.78 418.37 L 314.37 418.37 L 314.96 418.37 L 315.54 418.37 L 316.13 418.37 L 316.72 418.37 L 317.31 418.37 L 317.90 418.37 L 318.49 418.37 L 319.08 418.37 L 319.67 418.37 L 320.26 418.37 L 320.84 418.37 L 321.43 418.37 L 322.02 418.37 L 322.61 418.37 L 323.20 418.37 L 323.79 418.37 L 324.38 418.37 L 324.97 418.37 L 325.56 418.37 L 326.14 418.37 L 326.73 418.37 L 327.32 418.37 L 327.91 418.37 L 328.50 418.37 L 329.09 418.37 L 329.68 418.37 L 330.27 418.37 L 330.86 418.37 L 331.44 418.37 L 332.03 418.37 L 332.62 418.37 L 333.21 418.37 L 333.80 418.37 L 334.39 418.37 L 334.98 418.37 L 335.57 418.37 L 336.16 418.37 L 336.74 418.37 L 337.33 418.37 L 337.92 418.37 L 338.51 418.37 L 339.10 418.37 L 339.69 418.37 L 340.28 418.37 L 340.87 418.37 L 341.46 418.37 L 342.04 418.37 L 342.63 418.37 L 343.22 418.37 L 343.81 418.37 L 344.40 418.37 L 344.99 418.37 L 345.58 418.37 L 346.17 418.37 L 346.76 418.37 L 347.34 418.37 L 347.93 418.37 L 348.52 418.37 L 349.11 418.37 L 349.70 418.37 L 350.29 418.37 L 350.88 418.37 L 351.47 418.37 L 352.06 418.37 L 352.64 418.37 L 353.23 418.37 L 353.82 418.37 L 354.41 418.37 L 355.00 418.37 L 355.59 418.37 L 356.18 418.37 L 356.77 418.37 L 357.36 418.37 L 357.94 418.37 L 358.53 418.37 L 359.12 418.37 L 359.71 418.37 L 360.30 418.37 L 360.89 418.37 L 361.48 418.37 L 362.07 418.37 L 362.66 418.37 L 363.24 418.37 L 363.83 418.37 L 364.42 418.37 L 365.01 418.37 L 365.60 418.37 L 366.78 418.37 L 366.78 418.37 L 367.37 418.37 L 367.96 418.37 L 368.54 418.37 L 369.13 418.37 L 369.72 418.37 L 370.31 418.37 L 370.90 418.37 L 371.49 418.37 L 372.08 418.37 L 372.67 418.37 L 373.26 418.37 L 373.84 418.37 L 379.73 417.50 L 380.32 417.47 L 380.91 417.45 L 381.50 417.48 L 382.09 417.46 L 382.68 417.45 L 383.27 417.39 L 383.86 417.49 L 384.44 417.49 L 385.03 417.50 L 385.62 417.44 L 386.21 417.45 L 386.80 417.43 L 387.39 417.37 L 387.98 417.44 L 388.57 417.39 L 389.16 417.46 L 389.74 417.40 L 390.33 417.44 L 390.92 417.39 L 391.51 417.52 L 392.10 417.46 L 392.69 417.38 L 393.28 417.43 L 393.87 417.42 L 394.46 417.45 L 395.04 417.40 L 395.63 417.46 L 396.22 417.46 L 396.81 417.38 L 397.40 417.40 L 397.99 417.35 L 398.58 417.41 L 399.17 417.41 L 399.76 417.40 L 400.34 417.40 L 400.93 417.44 L 401.52 417.47 L 402.11 417.40 L 402.70 417.45 L 403.29 417.42 L 403.88 417.37 L 404.47 417.44 L 405.06 417.30 L 405.64 417.39 L 406.23 417.41 L 406.82 417.39 L 407.41 417.46 L 408.00 417.35 L 408.59 417.34 L 409.18 417.46 L 409.77 417.36 L 410.36 417.38 L 410.94 417.38 L 411.53 417.39 L 412.12 417.36 L 412.71 417.36 L 413.30 417.40 L 413.89 417.42 L 414.48 417.41 L 415.07 417.35 L 415.66 417.41 L 416.24 417.40 L 416.83 417.42 L 417.42 417.37 L 418.01 417.40 L 418.60 417.38 L 419.19 417.37 L 419.78 417.35 L 420.37 417.38 L 420.96 417.43 L 421.54 417.41 L 422.13 417.43 L 422.72 417.43 L 423.31 417.43 L 423.90 417.41 L 424.49 417.37 L 425.08 417.43 L 425.67 417.40 L 426.26 417.41 L 426.84 417.41 L 427.43 417.42 L 428.02 417.42 L 428.61 417.42 L 429.20 417.42 L 429.79 417.42 L 430.38 417.42 L 430.97 417.42 L 431.56 417.42 L 432.14 417.42 L 432.73 417.38 L 433.32 417.38 L 433.91 417.39 L 434.50 417.34 L 435.09 417.34 L 435.68 417.37 L 436.27 417.37 L 436.86 417.37 L 437.44 417.37 L 438.62 417.37 L 438.62 417.37 L 439.21 417.37 L 439.80 417.37 L 440.39 417.37 L 440.98 417.37 L 441.57 417.37 L 442.16 417.37 L 442.74 417.37 L 443.33 417.37 L 443.92 417.37 L 444.51 417.37 L 445.10 417.37 L 445.69 417.37 L 446.28 417.37 L 446.87 417.37 L 447.46 417.37 L 448.04 417.37 L 448.63 417.37 L 449.22 417.37 L 449.81 417.37 L 450.40 417.37 L 450.99 417.37 L 451.58 417.37 L 452.17 417.37 L 452.76 417.37 L 453.34 417.37 L 453.93 417.37 L 454.52 417.37 L 455.11 417.37 L 455.70 417.37 L 456.29 417.37 L 456.88 417.37 L 457.47 417.37 L 458.06 417.37 L 458.64 417.37 L 459.23 417.37 L 459.82 417.37 L 460.41 417.37 L 461.00 417.37 L 461.59 417.37 L 462.18 417.37 L 462.77 417.37 L 463.36 417.37 L 463.94 417.37 L 464.53 417.37 L 465.12 417.37 L 465.71 417.37 L 466.30 417.37 L 466.89 417.37 L 467.48 417.37 L 468.07 417.37 L 468.66 417.37 L 469.24 417.37 L 469.83 417.37 L 470.42 417.37 L 471.01 417.37 L 471.60 417.37 L 472.19 417.37 L 472.78 417.37 L 473.37 417.37 L 473.96 417.37 L 474.54 417.37 L 475.13 417.37 L 475.72 417.37 L 476.31 417.37 L 476.90 417.37 L 477.49 417.37 L 478.08 417.37 L 478.67 417.37 L 479.26 417.37 L 479.84 417.37 L 480.43 417.37 L 481.02 417.37 L 481.61 417.37 L 482.20 417.37 L 482.79 417.37 L 483.38 417.37 L 483.97 417.37 L 484.56 417.37 L 485.14 417.37 L 485.73 417.37 L 486.32 417.37 L 486.91 417.37 L 487.50 417.37 L 488.09 417.37 L 488.68 417.37 L 489.27 417.37 L 489.86 417.37 L 490.44 417.37 L 491.03 417.37 L 491.62 417.37 L 492.21 417.37 L 492.80 417.37 L 493.39 417.37 L 493.98 417.37 L 494.57 417.37 L 495.16 417.37 L 495.74 417.37 L 496.33 417.37 L 496.92 417.37 L 497.51 417.37 L 498.10 417.37 L 498.69 417.37 L 499.28 417.37 L 499.87 417.37 L 500.46 417.37 L 501.04 417.37 L 501.63 417.37 L 502.22 417.37 L 502.81 417.37 L 503.40 417.37 L 503.99 417.37 L 504.58 417.37 L 505.17 417.37 L 505.76 417.37 L 511.06 417.42 L 511.64 417.38 L 512.23 417.33 L 512.82 417.34 L 513.41 417.42 L 514.00 417.35 L 514.59 417.35 L 515.18 417.40 L 515.77 417.40 L 516.36 417.39 L 516.94 417.32 L 517.53 417.34 L 518.12 417.41 L 518.71 417.31 L 519.30 417.39 L 519.89 417.40 L 520.48 417.31 L 521.07 417.38 L 521.66 417.33 L 522.24 417.47 L 522.83 417.35 L 523.42 417.42 L 524.01 417.40 L 524.60 417.70 L 525.19 416.79 L 525.78 421.85 L 526.37 428.20 L 526.96 416.89 L 527.54 424.49 L 528.13 419.12 L 528.72 416.06 L 529.31 416.54 L 529.90 416.54 L 530.49 412.60 L 531.08 416.66 L 531.67 408.20 L 532.26 415.73 L 532.84 414.65 L 533.43 415.40 L 534.02 421.62 L 534.61 408.44 L 535.20 409.28 L 535.79 403.99 L 536.38 413.92 L 536.97 410.28 L 537.56 402.38 L 538.14 406.59 L 538.73 412.07 L 539.32 411.12 L 539.91 409.90 L 540.50 416.36 L 541.09 408.22 L 541.68 411.43 L 542.27 410.97 L 542.86 412.49 L 543.44 411.09 L 544.03 407.68 L 544.62 417.17 L 545.21 408.85 L 545.80 415.47 L 546.39 407.60 L 546.98 400.99 L 547.57 411.84 L 548.16 396.22 L 548.74 409.92 L 549.33 406.25 L 549.92 400.92 L 550.51 407.53 L 551.10 407.53 L 551.69 402.36 L 552.28 401.53 L 552.87 396.46 L 553.46 396.46 L 554.04 399.51 L 554.63 398.39 L 555.22 404.09 L 555.81 393.60 L 556.40 393.60 L 556.99 396.09 L 557.58 395.92 L 558.17 395.92 L 558.76 395.92 L 559.34 401.24 L 559.93 393.90 L 560.52 390.07 L 561.11 389.66 L 561.70 421.44 L 562.29 391.69 L 562.88 369.42 L 563.47 387.56 L 564.06 392.46 L 564.64 392.46 L 565.23 392.46 L 565.82 392.46 L 566.41 392.46 L 567.00 399.68 L 567.59 390.92 L 568.18 391.45 L 568.77 391.98 L 569.36 391.94 L 569.94 391.05 L 570.53 396.04 L 571.12 391.92 L 571.71 393.44 L 572.30 381.43 L 572.89 381.43 L 573.48 387.41 L 574.07 382.10 L 574.66 387.64 L 575.24 374.89 L 575.83 377.82 L 576.42 385.74 L 577.01 397.04 L 577.60 397.04 L 578.19 397.04 L 578.78 397.04 L 579.37 397.04 L 579.96 397.04 L 580.54 397.04 L 581.13 391.18 L 581.72 391.18 L 582.31 385.86 L 582.90 385.28 L 583.49 385.28 L 584.08 385.28 L 584.67 385.28 L 585.26 385.28 L 585.84 385.28 L 586.43 385.28 L 587.02 385.28 L 587.61 385.28 L 588.20 385.28 L 588.79 385.28 L 589.38 385.28 L 589.97 385.28 L 590.56 385.28 L 591.14 385.28 L 591.73 385.28 L 592.32 385.28 L 592.91 385.28 L 593.50 385.28 L 594.09 385.28 L 594.68 385.28 L 595.27 385.28 L 595.86 385.28 L 596.44 385.28 L 597.03 385.28 L 597.62 385.28 L 598.21 385.28 L 598.80 385.28 L 599.39 385.28 L 599.98 385.28 L 600.57 385.28 L 601.16 385.28 L 601.74 385.28 L 602.33 385.28 L 602.92 385.28 L 603.51 385.28 L 604.10 385.28 L 604.69 385.28 L 605.28 385.28 L 605.87 385.28 L 606.46 385.28 L 607.04 385.28 L 607.63 385.28 L 608.22 385.28 L 608.81 385.28 L 609.40 385.28 L 609.99 385.28 L 610.58 385.28 L 611.17 385.28 L 611.76 385.28 L 612.34 385.28 L 612.93 385.28 L 613.52 385.28 L 614.11 385.28 L 614.70 385.28 L 615.29 385.28 L 615.88 385.28 L 616.47 385.28 L 617.06 385.28 L 617.64 385.28 L 618.23 385.28 L 618.82 385.28 L 619.41 385.28 L 620.00 385.28 L 620.59 385.28 L 621.18 385.28 L 621.77 385.28 L 622.36 385.28 L 622.94 385.28 L 623.53 385.28 L 624.12 385.28 L 624.71 385.28 L 625.30 385.28 L 625.89 385.28 L 626.48 385.28 L 627.07 385.28 L 627.66 385.28 L 628.24 385.28 L 628.83 385.28 L 629.42 385.28 L 630.01 385.28 L 630.60 385.28 L 631.19 385.28 L 631.78 385.28 L 632.37 385.28" stroke="#2E7D32" />
<path class="series" d="M 160.67 446.56 L 161.26 447.04 L 161.84 449.22 L 162.43 451.20 L 163.02 449.19 L 163.61 448.11 L 164.20 455.34 L 164.79 454.11 L 165.38 446.24 L 165.97 448.31 L 166.56 440.43 L 167.14 445.65 L 167.73 447.59 L 168.32 450.78 L 168.91 448.93 L 169.50 452.84 L 170.09 442.58 L 170.68 442.73 L 171.27 440.99 L 171.86 440.15 L 172.44 436.21 L 173.03 440.48 L 173.62 433.17 L 174.21 434.32 L 174.80 437.88 L 175.39 443.04 L 175.98 444.09 L 176.57 446.96 L 177.16 456.10 L 177.74 459.19 L 178.33 458.86 L 178.92 448.91 L 179.51 451.78 L 180.10 452.26 L 180.69 446.43 L 181.28 447.51 L 181.87 446.44 L 182.46 442.14 L 183.04 441.30 L 183.63 442.38 L 184.22 443.37 L 184.81 444.93 L 185.40 445.65 L 185.99 447.54 L 186.58 443.54 L 187.17 440.71 L 187.76 437.68 L 188.34 444.98 L 188.93 438.85 L 189.52 446.45 L 190.11 449.03 L 190.70 451.34 L 191.29 453.63 L 191.88 451.45 L 192.47 463.25 L 193.06 456.96 L 193.64 456.96 L 194.23 453.59 L 194.82 453.90 L 195.41 454.69 L 196.00 452.49 L 196.59 453.92 L 197.18 452.06 L 197.77 454.23 L 198.36 450.71 L 198.94 444.47 L 199.53 445.61 L 200.12 437.07 L 200.71 442.37 L 201.30 444.00 L 201.89 449.33 L 202.48 449.02 L 203.07 449.09 L 203.66 449.58 L 204.24 446.15 L 204.83 451.66 L 205.42 444.23 L 206.01 446.50 L 206.60 446.27 L 207.19 455.68 L 207.78 454.12 L 208.37 447.33 L 208.96 448.73 L 209.54 441.29 L 210.13 444.45 L 210.72 441.98 L 211.31 433.09 L 211.90 436.69 L 212.49 440.14 L 213.08 447.49 L 213.67 445.32 L 214.26 443.61 L 214.84 446.01 L 215.43 441.91 L 216.02 439.95 L 216.61 441.33 L 217.20 442.41 L 217.79 439.44 L 218.38 439.30 L 218.97 438.25 L 219.56 441.42 L 220.14 449.49 L 220.73 448.94 L 221.32 451.86 L 221.91 455.46 L 222.50 453.83 L 223.09 456.96 L 223.68 454.37 L 224.27 457.82 L 224.86 452.67 L 225.44 452.52 L 226.03 456.57 L 226.62 455.15 L 227.21 456.89 L 227.80 453.05 L 228.39 454.20 L 228.98 456.27 L 229.57 463.68 L 230.16 457.99 L 230.74 457.23 L 231.33 459.42 L 231.92 450.47 L 232.51 447.53 L 233.10 452.25 L 233.69 454.75 L 234.28 451.29 L 234.87 453.45 L 235.46 457.17 L 236.04 449.31 L 236.63 447.42 L 237.22 455.35 L 237.81 453.01 L 238.40 444.98 L 238.99 451.99 L 239.58 457.87 L 240.17 451.09 L 240.76 452.84 L 241.34 458.64 L 241.93 452.32 L 242.52 449.87 L 243.11 450.60 L 243.70 456.30 L 244.29 461.36 L 244.88 461.55 L 245.47 459.33 L 246.06 461.95 L 246.64 467.73 L 247.23 465.20 L 247.82 468.35 L 248.41 464.32 L 249.00 458.87 L 249.59 470.35 L 250.18 460.01 L 250.77 459.12 L 251.36 464.33 L 251.94 461.25 L 252.53 471.63 L 253.12 455.94 L 253.71 456.96 L 254.30 459.43 L 254.89 462.45 L 255.48 461.65 L 256.07 461.74 L 256.66 467.35 L 257.24 463.97 L 257.83 455.16 L 258.42 456.69 L 259.01 461.20 L 259.60 458.19 L 260.19 453.41 L 260.78 457.53 L 261.37 450.01 L 261.96 455.14 L 262.54 458.96 L 263.13 447.78 L 263.72 452.31 L 264.31 450.99 L 264.90 448.91 L 265.49 447.17 L 266.08 446.10 L 266.67 451.96 L 267.26 452.58 L 267.84 440.23 L 268.43 444.53 L 269.02 443.97 L 269.61 445.94 L 270.20 444.58 L 270.79 447.96 L 271.38 447.42 L 271.97 448.00 L 272.56 447.24 L 273.14 447.31 L 273.73 447.59 L 274.32 448.09 L 274.91 444.25 L 275.50 447.59 L 276.09 446.17 L 276.68 448.71 L 277.27 449.06 L 277.86 450.34 L 278.44 445.58 L 279.03 447.13 L 279.62 446.96 L 280.21 447.05 L 280.80 444.76 L 281.39 449.82 L 281.98 447.15 L 282.57 447.26 L 283.16 446.69 L 283.74 448.43 L 284.33 447.34 L 284.92 448.62 L 285.51 444.16 L 286.10 447.28 L 286.69 446.36 L 287.28 446.06 L 287.87 447.32 L 288.46 443.97 L 289.04 445.94 L 289.63 445.42 L 290.22 447.33 L 290.81 444.86 L 291.40 448.23 L 291.99 448.23 L 292.58 448.23 L 293.17 448.23 L 293.76 448.23 L 294.34 448.23 L 294.93 448.23 L 295.52 448.23 L 296.11 448.23 L 296.70 448.23 L 297.29 448.23 L 297.88 448.23 L 298.47 448.23 L 299.06 448.23 L 299.64 448.23 L 300.23 448.23 L 300.82 448.23 L 301.41 448.23 L 302.00 448.23 L 302.59 448.23 L 303.18 448.23 L 303.77 448.23 L 304.36 448.23 L 304.94 448.23 L 305.53 448.23 L 306.12 448.23 L 306.71 448.23 L 307.30 448.23 L 307.89 448.23 L 308.48 448.23 L 309.07 448.23 L 309.66 448.23 L 310.24 448.23 L 310.83 448.23 L 311.42 448.23 L 312.01 448.23 L 312.60 448.23 L 313.19 448.23 L 313.78 448.23 L 314.37 448.23 L 314.96 448.23 L 315.54 448.23 L 316.13 448.23 L 316.72 448.23 L 317.31 448.23 L 317.90 448.23 L 318.49 448.23 L 319.08 448.23 L 319.67 448.23 L 320.26 448.23 L 320.84 448.23 L 321.43 448.23 L 322.02 448.23 L 322.61 448.23 L 323.20 448.23 L 323.79 448.23 L 324.38 448.23 L 324.97 448.23 L 325.56 448.23 L 326.14 448.23 L 326.73 448.23 L 327.32 448.23 L 327.91 448.23 L 328.50 448.23 L 329.09 448.23 L 329.68 448.23 L 330.27 448.23 L 330.86 448.23 L 331.44 448.23 L 332.03 448.23 L 332.62 448.23 L 333.21 448.23 L 333.80 448.23 L 334.39 448.23 L 334.98 448.23 L 335.57 448.23 L 336.16 448.23 L 336.74 448.23 L 337.33 448.23 L 337.92 448.23 L 338.51 448.23 L 339.10 448.23 L 339.69 448.23 L 340.28 448.23 L 340.87 448.23 L 341.46 448.23 L 342.04 448.23 L 342.63 448.23 L 343.22 448.23 L 343.81 448.23 L 344.40 448.23 L 344.99 448.23 L 345.58 448.23 L 346.17 448.23 L 346.76 448.23 L 347.34 448.23 L 347.93 448.23 L 348.52 448.23 L 349.11 448.23 L 349.70 448.23 L 350.29 448.23 L 350.88 448.23 L 351.47 448.23 L 352.06 448.23 L 352.64 448.23 L 353.23 448.23 L 353.82 448.23 L 354.41 448.23 L 355.00 448.23 L 355.59 448.23 L 356.18 448.23 L 356.77 448.23 L 357.36 448.23 L 357.94 448.23 L 358.53 448.23 L 359.12 448.23 L 359.71 448.23 L 360.30 448.23 L 360.89 448.23 L 361.48 448.23 L 362.07 448.23 L 362.66 448.23 L 363.24 448.23 L 363.83 448.23 L 364.42 448.23 L 365.01 448.23 L 365.60 448.23 L 366.78 448.23 L 366.78 448.23 L 367.37 448.23 L 367.96 448.23 L 368.54 448.23 L 369.13 448.23 L 369.72 448.23 L 370.31 448.23 L 370.90 448.23 L 371.49 448.23 L 372.08 448.23 L 372.67 448.23 L 373.26 448.23 L 373.84 448.23 L 379.73 447.13 L 380.32 447.13 L 380.91 447.08 L 381.50 447.11 L 382.09 447.16 L 382.68 447.05 L 383.27 447.16 L 383.86 447.10 L 384.44 447.10 L 385.03 447.14 L 385.62 447.16 L 386.21 447.09 L 386.80 447.10 L 387.39 447.10 L 387.98 447.05 L 388.57 447.13 L 389.16 447.07 L 389.74 447.12 L 390.33 447.17 L 390.92 447.12 L 391.51 447.14 L 392.10 447.15 L 392.69 447.16 L 393.28 447.11 L 393.87 447.11 L 394.46 447.14 L 395.04 447.15 L 395.63 447.14 L 396.22 447.17 L 396.81 447.12 L 397.40 447.10 L 397.99 447.08 L 398.58 447.11 L 399.17 447.13 L 399.76 447.18 L 400.34 447.18 L 400.93 447.15 L 401.52 447.10 L 402.11 447.16 L 402.70 447.19 L 403.29 447.10 L 403.88 447.11 L 404.47 447.13 L 405.06 447.13 L 405.64 447.12 L 406.23 447.13 L 406.82 447.14 L 407.41 447.15 L 408.00 447.14 L 408.59 447.11 L 409.18 447.15 L 409.77 447.13 L 410.36 447.15 L 410.94 447.14 L 411.53 447.08 L 412.12 447.10 L 412.71 447.15 L 413.30 447.15 L 413.89 447.20 L 414.48 447.14 L 415.07 447.22 L 415.66 447.17 L 416.24 447.14 L 416.83 447.17 L 417.42 447.12 L 418.01 447.12 L 418.60 447.15 L 419.19 447.16 L 419.78 447.13 L 420.37 447.18 L 420.96 447.17 L 421.54 447.17 L 422.13 447.13 L 422.72 447.13 L 423.31 447.13 L 423.90 447.19 L 424.49 447.17 L 425.08 447.20 L 425.67 447.12 L 426.26 447.20 L 426.84 447.20 L 427.43 447.18 L 428.02 447.18 L 428.61 447.18 L 429.20 447.18 L 429.79 447.18 L 430.38 447.18 L 430.97 447.18 L 431.56 447.18 L 432.14 447.18 L 432.73 447.19 L 433.32 447.19 L 433.91 447.16 L 434.50 447.16 L 435.09 447.16 L 435.68 447.20 L 436.27 447.28 L 436.86 447.28 L 437.44 447.28 L 438.62 447.28 L 438.62 447.28 L 439.21 447.28 L 439.80 447.28 L 440.39 447.28 L 440.98 447.28 L 441.57 447.28 L 442.16 447.28 L 442.74 447.28 L 443.33 447.28 L 443.92 447.28 L 444.51 447.28 L 445.10 447.28 L 445.69 447.28 L 446.28 447.28 L 446.87 447.28 L 447.46 447.28 L 448.04 447.28 L 448.63 447.28 L 449.22 447.28 L 449.81 447.28 L 450.40 447.28 L 450.99 447.28 L 451.58 447.28 L 452.17 447.28 L 452.76 447.28 L 453.34 447.28 L 453.93 447.28 L 454.52 447.28 L 455.11 447.28 L 455.70 447.28 L 456.29 447.28 L 456.88 447.28 L 457.47 447.28 L 458.06 447.28 L 458.64 447.28 L 459.23 447.28 L 459.82 447.28 L 460.41 447.28 L 461.00 447.28 L 461.59 447.28 L 462.18 447.28 L 462.77 447.28 L 463.36 447.28 L 463.94 447.28 L 464.53 447.28 L 465.12 447.28 L 465.71 447.28 L 466.30 447.28 L 466.89 447.28 L 467.48 447.28 L 468.07 447.28 L 468.66 447.28 L 469.24 447.28 L 469.83 447.28 L 470.42 447.28 L 471.01 447.28 L 471.60 447.28 L 472.19 447.28 L 472.78 447.28 L 473.37 447.28 L 473.96 447.28 L 474.54 447.28 L 475.13 447.28 L 475.72 447.28 L 476.31 447.28 L 476.90 447.28 L 477.49 447.28 L 478.08 447.28 L 478.67 447.28 L 479.26 447.28 L 479.84 447.28 L 480.43 447.28 L 481.02 447.28 L 481.61 447.28 L 482.20 447.28 L 482.79 447.28 L 483.38 447.28 L 483.97 447.28 L 484.56 447.28 L 485.14 447.28 L 485.73 447.28 L 486.32 447.28 L 486.91 447.28 L 487.50 447.28 L 488.09 447.28 L 488.68 447.28 L 489.27 447.28 L 489.86 447.28 L 490.44 447.28 L 491.03 447.28 L 491.62 447.28 L 492.21 447.28 L 492.80 447.28 L 493.39 447.28 L 493.98 447.28 L 494.57 447.28 L 495.16 447.28 L 495.74 447.28 L 496.33 447.28 L 496.92 447.28 L 497.51 447.28 L 498.10 447.28 L 498.69 447.28 L 499.28 447.28 L 499.87 447.28 L 500.46 447.28 L 501.04 447.28 L 501.63 447.28 L 502.22 447.28 L 502.81 447.28 L 503.40 447.28 L 503.99 447.28 L 504.58 447.28 L 505.17 447.28 L 505.76 447.28 L 511.06 447.22 L 511.64 447.17 L 512.23 447.16 L 512.82 447.17 L 513.41 447.21 L 514.00 447.22 L 514.59 447.17 L 515.18 447.24 L 515.77 447.24 L 516.36 447.15 L 516.94 447.21 L 517.53 447.17 L 518.12 447.16 L 518.71 447.25 L 519.30 447.15 L 519.89 447.19 L 520.48 447.20 L 521.07 447.21 L 521.66 447.17 L 522.24 447.19 L 522.83 447.18 L 523.42 447.18 L 524.01 447.16 L 524.60 447.48 L 525.19 446.62 L 525.78 445.55 L 526.37 444.07 L 526.96 445.54 L 527.54 449.64 L 528.13 449.03 L 528.72 449.67 L 529.31 449.94 L 529.90 449.94 L 530.49 454.99 L 531.08 447.23 L 531.67 455.26 L 532.26 448.33 L 532.84 450.71 L 533.43 455.22 L 534.02 452.77 L 534.61 448.01 L 535.20 456.74 L 535.79 444.19 L 536.38 460.34 L 536.97 455.24 L 537.56 451.62 L 538.14 450.91 L 538.73 447.34 L 539.32 450.47 L 539.91 454.24 L 540.50 461.24 L 541.09 451.91 L 541.68 454.91 L 542.27 457.54 L 542.86 450.78 L 543.44 453.46 L 544.03 452.82 L 544.62 450.68 L 545.21 451.13 L 545.80 451.72 L 546.39 445.29 L 546.98 447.06 L 547.57 441.90 L 548.16 451.43 L 548.74 441.25 L 549.33 447.15 L 549.92 446.79 L 550.51 440.34 L 551.10 440.34 L 551.69 442.59 L 552.28 444.56 L 552.87 445.56 L 553.46 445.56 L 554.04 447.75 L 554.63 444.74 L 555.22 445.18 L 555.81 447.90 L 556.40 447.90 L 556.99 442.13 L 557.58 446.36 L 558.17 446.36 L 558.76 446.36 L 559.34 440.19 L 559.93 432.82 L 560.52 446.54 L 561.11 444.74 L 561.70 412.98 L 562.29 446.44 L 562.88 449.84 L 563.47 451.75 L 564.06 444.46 L 564.64 444.46 L 565.23 444.46 L 565.82 444.46 L 566.41 444.46 L 567.00 438.58 L 567.59 443.39 L 568.18 445.53 L 568.77 447.58 L 569.36 451.52 L 569.94 438.84 L 570.53 438.91 L 571.12 435.75 L 571.71 444.92 L 572.30 450.17 L 572.89 450.17 L 573.48 457.32 L 574.07 458.33 L 574.66 453.91 L 575.24 452.18 L 575.83 444.84 L 576.42 444.53 L 577.01 444.04 L 577.60 444.04 L 578.19 444.04 L 578.78 444.04 L 579.37 444.04 L 579.96 444.04 L 580.54 444.04 L 581.13 452.03 L 581.72 452.03 L 582.31 458.38 L 582.90 459.16 L 583.49 459.16 L 584.08 459.16 L 584.67 459.16 L 585.26 459.16 L 585.84 459.16 L 586.43 459.16 L 587.02 459.16 L 587.61 459.16 L 588.20 459.16 L 588.79 459.16 L 589.38 459.16 L 589.97 459.16 L 590.56 459.16 L 591.14 459.16 L 591.73 459.16 L 592.32 459.16 L 592.91 459.16 L 593.50 459.16 L 594.09 459.16 L 594.68 459.16 L 595.27 459.16 L 595.86 459.16 L 596.44 459.16 L 597.03 459.16 L 597.62 459.16 L 598.21 459.16 L 598.80 459.16 L 599.39 459.16 L 599.98 459.16 L 600.57 459.16 L 601.16 459.16 L 601.74 459.16 L 602.33 459.16 L 602.92 459.16 L 603.51 459.16 L 604.10 459.16 L 604.69 459.16 L 605.28 459.16 L 605.87 459.16 L 606.46 459.16 L 607.04 459.16 L 607.63 459.16 L 608.22 459.16 L 608.81 459.16 L 609.40 459.16 L 609.99 459.16 L 610.58 459.16 L 611.17 459.16 L 611.76 459.16 L 612.34 459.16 L 612.93 459.16 L 613.52 459.16 L 614.11 459.16 L 614.70 459.16 L 615.29 459.16 L 615.88 459.16 L 616.47 459.16 L 617.06 459.16 L 617.64 459.16 L 618.23 459.16 L 618.82 459.16 L 619.41 459.16 L 620.00 459.16 L 620.59 459.16 L 621.18 459.16 L 621.77 459.16 L 622.36 459.16 L 622.94 459.16 L 623.53 459.16 L 624.12 459.16 L 624.71 459.16 L 625.30 459.16 L 625.89 459.16 L 626.48 459.16 L 627.07 459.16 L 627.66 459.16 L 628.24 459.16 L 628.83 459.16 L 629.42 459.16 L 630.01 459.16 L 630.60 459.16 L 631.19 459.16 L 631.78 459.16 L 632.37 459.16" stroke="#6A1B9A" />
<line x1="900.00" y1="307.75" x2="918.00" y2="307.75" stroke="#2E7D32" stroke-width="3" />
<text class="small" x="924.00" y="311.75">pitch</text>
<line x1="900.00" y1="323.75" x2="918.00" y2="323.75" stroke="#6A1B9A" stroke-width="3" />
<text class="small" x="924.00" y="327.75">roll</text>
<text x="90" y="500.50" font-size="14" font-weight="700">Aceleração (magnitude) (u.a.)</text>
<rect class="event" x="266.67" y="506.50" width="259.70" height="192.75" />
<line class="eventline" x1="266.67" y1="506.50" x2="266.67" y2="699.25" />
<line class="eventline" x1="526.37" y1="506.50" x2="526.37" y2="699.25" />
<line class="grid" x1="90" y1="699.25" x2="1150" y2="699.25" />
<text class="small" x="80" y="703.25" text-anchor="end">0.00</text>
<line class="grid" x1="90" y1="660.70" x2="1150" y2="660.70" />
<text class="small" x="80" y="664.70" text-anchor="end">0.50</text>
<line class="grid" x1="90" y1="622.15" x2="1150" y2="622.15" />
<text class="small" x="80" y="626.15" text-anchor="end">1.00</text>
<line class="grid" x1="90" y1="583.60" x2="1150" y2="583.60" />
<text class="small" x="80" y="587.60" text-anchor="end">1.50</text>
<line class="grid" x1="90" y1="545.05" x2="1150" y2="545.05" />
<text class="small" x="80" y="549.05" text-anchor="end">2.00</text>
<line class="grid" x1="90" y1="506.50" x2="1150" y2="506.50" />
<text class="small" x="80" y="510.50" text-anchor="end">2.50</text>
<line class="grid" x1="90.00" y1="506.50" x2="90.00" y2="699.25" />
<line class="grid" x1="266.67" y1="506.50" x2="266.67" y2="699.25" />
<line class="grid" x1="443.33" y1="506.50" x2="443.33" y2="699.25" />
<line class="grid" x1="620.00" y1="506.50" x2="620.00" y2="699.25" />
<line class="grid" x1="796.67" y1="506.50" x2="796.67" y2="699.25" />
<line class="grid" x1="973.33" y1="506.50" x2="973.33" y2="699.25" />
<line class="grid" x1="1150.00" y1="506.50" x2="1150.00" y2="699.25" />
<line class="axis" x1="90" y1="506.50" x2="90" y2="699.25" />
<line class="axis" x1="90" y1="699.25" x2="1150" y2="699.25" />
<path class="series" d="M 160.67 686.87 L 161.26 685.93 L 161.84 680.47 L 162.43 683.12 L 163.02 691.94 L 163.61 685.60 L 164.20 672.97 L 164.79 674.18 L 165.38 682.57 L 165.97 688.44 L 166.56 696.08 L 167.14 695.27 L 167.73 694.95 L 168.32 689.79 L 168.91 695.17 L 169.50 681.21 L 170.09 681.83 L 170.68 696.58 L 171.27 689.06 L 171.86 686.78 L 172.44 674.01 L 173.03 684.22 L 173.62 680.03 L 174.21 691.60 L 174.80 687.63 L 175.39 673.03 L 175.98 678.48 L 176.57 680.96 L 177.16 687.20 L 177.74 674.14 L 178.33 682.78 L 178.92 677.13 L 179.51 661.64 L 180.10 683.58 L 180.69 675.33 L 181.28 673.88 L 181.87 692.02 L 182.46 685.17 L 183.04 688.40 L 183.63 690.15 L 184.22 687.32 L 184.81 690.19 L 185.40 687.72 L 185.99 689.26 L 186.58 687.65 L 187.17 686.06 L 187.76 674.03 L 188.34 682.04 L 188.93 682.36 L 189.52 682.89 L 190.11 683.91 L 190.70 687.77 L 191.29 685.43 L 191.88 684.17 L 192.47 689.72 L 193.06 679.83 L 193.64 687.99 L 194.23 680.10 L 194.82 691.89 L 195.41 685.11 L 196.00 682.22 L 196.59 679.11 L 197.18 680.76 L 197.77 683.46 L 198.36 672.73 L 198.94 665.78 L 199.53 670.00 L 200.12 673.70 L 200.71 665.63 L 201.30 680.47 L 201.89 690.37 L 202.48 686.43 L 203.07 680.61 L 203.66 672.82 L 204.24 682.56 L 204.83 691.27 L 205.42 694.48 L 206.01 687.09 L 206.60 691.87 L 207.19 681.59 L 207.78 656.66 L 208.37 669.27 L 208.96 671.43 L 209.54 680.42 L 210.13 676.27 L 210.72 666.59 L 211.31 674.25 L 211.90 678.92 L 212.49 658.52 L 213.08 673.82 L 213.67 673.82 L 214.26 695.37 L 214.84 677.92 L 215.43 688.84 L 216.02 693.29 L 216.61 686.88 L 217.20 690.43 L 217.79 687.33 L 218.38 690.52 L 218.97 686.34 L 219.56 669.60 L 220.14 678.65 L 220.73 664.68 L 221.32 686.14 L 221.91 673.61 L 222.50 688.63 L 223.09 690.76 L 223.68 683.30 L 224.27 677.59 L 224.86 676.82 L 225.44 686.20 L 226.03 684.02 L 226.62 691.91 L 227.21 689.51 L 227.80 677.27 L 228.39 686.12 L 228.98 694.79 L 229.57 689.72 L 230.16 680.88 L 230.74 679.12 L 231.33 694.11 L 231.92 691.49 L 232.51 683.60 L 233.10 686.93 L 233.69 686.54 L 234.28 686.90 L 234.87 693.35 L 235.46 683.27 L 236.04 689.84 L 236.63 687.08 L 237.22 686.19 L 237.81 688.12 L 238.40 681.64 L 238.99 681.48 L 239.58 677.17 L 240.17 685.79 L 240.76 697.35 L 241.34 685.52 L 241.93 682.29 L 242.52 688.96 L 243.11 685.34 L 243.70 696.55 L 244.29 674.75 L 244.88 682.52 L 245.47 683.43 L 246.06 686.71 L 246.64 693.47 L 247.23 687.65 L 247.82 673.76 L 248.41 685.21 L 249.00 678.67 L 249.59 682.20 L 250.18 684.00 L 250.77 683.93 L 251.36 684.37 L 251.94 680.63 L 252.53 631.52 L 253.12 643.22 L 253.71 683.67 L 254.30 663.32 L 254.89 689.20 L 255.48 666.51 L 256.07 690.52 L 256.66 688.80 L 257.24 680.27 L 257.83 674.55 L 258.42 678.83 L 259.01 669.75 L 259.60 694.09 L 260.19 685.07 L 260.78 692.10 L 261.37 682.13 L 261.96 695.43 L 262.54 693.77 L 263.13 694.32 L 263.72 696.66 L 264.31 689.82 L 264.90 695.41 L 265.49 691.60 L 266.08 695.57 L 266.67 686.28 L 267.26 685.43 L 267.84 670.95 L 268.43 670.95 L 269.02 690.40 L 269.61 687.29 L 270.20 698.02 L 270.79 688.27 L 271.38 691.26 L 271.97 690.44 L 272.56 679.24 L 273.14 694.44 L 273.73 698.56 L 274.32 697.70 L 274.91 691.00 L 275.50 671.19 L 276.09 692.36 L 276.68 687.09 L 277.27 688.33 L 277.86 684.42 L 278.44 693.94 L 279.03 691.23 L 279.62 696.11 L 280.21 693.12 L 280.80 693.17 L 281.39 681.27 L 281.98 691.32 L 282.57 689.70 L 283.16 684.26 L 283.74 689.92 L 284.33 696.08 L 284.92 679.42 L 285.51 688.91 L 286.10 696.94 L 286.69 692.47 L 287.28 694.43 L 287.87 683.36 L 288.46 690.45 L 289.04 675.66 L 289.63 690.45 L 290.22 695.53 L 290.81 690.98 L 291.40 689.06 L 291.99 680.65 L 292.58 685.78 L 293.17 685.02 L 293.76 686.65 L 294.34 686.47 L 294.93 690.06 L 295.52 691.77 L 296.11 683.02 L 296.70 678.64 L 297.29 692.60 L 297.88 691.68 L 298.47 691.22 L 299.06 692.33 L 299.64 694.78 L 300.23 683.68 L 300.82 688.50 L 301.41 694.18 L 302.00 695.13 L 302.59 695.81 L 303.18 694.97 L 303.77 685.51 L 304.36 684.03 L 304.94 684.07 L 305.53 693.14 L 306.12 696.91 L 306.71 692.86 L 307.30 689.07 L 307.89 695.36 L 308.48 690.48 L 309.07 697.38 L 309.66 698.35 L 310.24 694.55 L 310.83 695.23 L 311.42 697.59 L 312.01 697.98 L 312.60 697.97 L 313.19 698.16 L 313.78 698.47 L 314.37 698.83 L 314.96 698.11 L 315.54 698.51 L 316.13 690.34 L 316.72 672.47 L 317.31 695.22 L 317.90 693.20 L 318.49 697.35 L 319.08 696.69 L 319.67 697.22 L 320.26 698.12 L 320.84 698.82 L 321.43 698.14 L 322.02 698.48 L 322.61 698.45 L 323.20 698.53 L 323.79 698.34 L 324.38 698.19 L 324.97 698.53 L 325.56 698.64 L 326.14 698.40 L 326.73 692.26 L 327.32 688.71 L 327.91 688.46 L 328.50 691.63 L 329.09 695.31 L 329.68 696.24 L 330.27 694.97 L 330.86 696.67 L 331.44 698.81 L 332.03 698.95 L 332.62 689.17 L 333.21 672.32 L 333.80 672.32 L 334.39 682.51 L 334.98 689.89 L 335.57 690.70 L 336.16 697.91 L 336.74 680.63 L 337.33 676.92 L 337.92 688.04 L 338.51 698.04 L 339.10 698.23 L 339.69 694.54 L 340.28 691.95 L 340.87 683.08 L 341.46 695.00 L 342.04 697.51 L 342.63 697.88 L 343.22 697.58 L 343.81 696.24 L 344.40 692.34 L 344.99 697.26 L 345.58 698.47 L 346.17 697.95 L 346.76 695.94 L 347.34 694.42 L 347.93 690.81 L 348.52 661.60 L 349.11 642.16 L 349.70 660.18 L 350.29 676.33 L 350.88 686.82 L 351.47 689.86 L 352.06 694.30 L 352.64 696.73 L 353.23 691.91 L 353.82 695.25 L 354.41 698.86 L 355.00 696.57 L 355.59 698.52 L 356.18 698.75 L 356.77 698.86 L 357.36 698.91 L 357.94 698.48 L 358.53 698.45 L 359.12 697.61 L 359.71 696.03 L 360.30 690.98 L 360.89 690.16 L 361.48 680.37 L 362.07 686.41 L 362.66 683.90 L 363.24 686.27 L 363.83 692.63 L 364.42 685.30 L 365.01 687.20 L 365.60 685.46 L 366.78 689.52 L 366.78 689.52 L 367.37 692.91 L 367.96 674.09 L 368.54 632.96 L 369.13 660.92 L 369.72 687.23 L 370.31 692.84 L 370.90 695.89 L 371.49 695.20 L 372.08 694.08 L 372.67 691.86 L 373.26 696.95 L 373.84 698.10 L 379.73 699.10 L 380.32 699.06 L 380.91 699.00 L 381.50 699.06 L 382.09 698.93 L 382.68 699.09 L 383.27 699.05 L 383.86 698.92 L 384.44 698.92 L 385.03 699.02 L 385.62 699.06 L 386.21 699.10 L 386.80 699.14 L 387.39 699.03 L 387.98 698.98 L 388.57 698.98 L 389.16 699.00 L 389.74 699.09 L 390.33 698.97 L 390.92 699.04 L 391.51 699.01 L 392.10 699.06 L 392.69 699.06 L 393.28 699.02 L 393.87 699.05 L 394.46 699.04 L 395.04 699.04 L 395.63 698.99 L 396.22 699.12 L 396.81 699.05 L 397.40 698.86 L 397.99 698.92 L 398.58 699.06 L 399.17 699.03 L 399.76 699.05 L 400.34 698.98 L 400.93 699.21 L 401.52 698.90 L 402.11 698.95 L 402.70 699.10 L 403.29 699.12 L 403.88 699.07 L 404.47 698.99 L 405.06 699.10 L 405.64 699.07 L 406.23 699.07 L 406.82 698.95 L 407.41 699.02 L 408.00 699.06 L 408.59 699.09 L 409.18 698.96 L 409.77 698.94 L 410.36 699.00 L 410.94 699.15 L 411.53 698.96 L 412.12 699.06 L 412.71 699.20 L 413.30 699.09 L 413.89 699.08 L 414.48 698.97 L 415.07 698.95 L 415.66 699.22 L 416.24 699.16 L 416.83 699.11 L 417.42 699.13 L 418.01 699.08 L 418.60 699.15 L 419.19 699.21 L 419.78 699.08 L 420.37 699.03 L 420.96 699.17 L 421.54 699.09 L 422.13 699.16 L 422.72 699.21 L 423.31 699.14 L 423.90 699.01 L 424.49 699.09 L 425.08 699.16 L 425.67 699.14 L 426.26 699.11 L 426.84 699.11 L 427.43 699.16 L 428.02 699.17 L 428.61 699.12 L 429.20 699.11 L 429.79 699.14 L 430.38 698.96 L 430.97 699.04 L 431.56 699.14 L 432.14 698.90 L 432.73 699.05 L 433.32 699.14 L 433.91 699.04 L 434.50 699.15 L 435.09 699.06 L 435.68 699.00 L 436.27 699.16 L 436.86 698.91 L 437.44 698.91 L 438.62 699.10 L 438.62 699.16 L 439.21 699.08 L 439.80 699.04 L 440.39 699.07 L 440.98 699.17 L 441.57 699.08 L 442.16 699.11 L 442.74 699.08 L 443.33 698.96 L 443.92 699.15 L 444.51 698.90 L 445.10 698.96 L 445.69 699.01 L 446.28 699.10 L 446.87 699.22 L 447.46 698.99 L 448.04 699.05 L 448.63 699.02 L 449.22 698.92 L 449.81 699.14 L 450.40 699.04 L 450.99 699.10 L 451.58 699.06 L 452.17 699.11 L 452.76 698.93 L 453.34 698.93 L 453.93 699.10 L 454.52 699.15 L 455.11 699.09 L 455.70 698.95 L 456.29 698.73 L 456.88 699.22 L 457.47 699.04 L 458.06 699.07 L 458.64 698.91 L 459.23 699.09 L 459.82 699.00 L 460.41 699.02 L 461.00 699.17 L 461.59 699.09 L 462.18 699.11 L 462.77 699.11 L 463.36 698.99 L 463.94 699.11 L 464.53 699.15 L 465.12 699.01 L 465.71 699.13 L 466.30 699.11 L 466.89 699.15 L 467.48 699.01 L 468.07 698.90 L 468.66 698.70 L 469.24 698.75 L 469.83 698.94 L 470.42 698.90 L 471.01 698.97 L 471.60 698.84 L 472.19 698.79 L 472.78 698.30 L 473.37 698.90 L 473.96 698.78 L 474.54 698.88 L 475.13 698.65 L 475.72 698.93 L 476.31 698.61 L 476.90 698.96 L 477.49 698.88 L 478.08 698.38 L 478.67 699.03 L 479.26 698.94 L 479.84 698.86 L 480.43 698.80 L 481.02 698.80 L 481.61 699.04 L 482.20 698.91 L 482.79 698.81 L 483.38 699.08 L 483.97 698.71 L 484.56 699.05 L 485.14 698.83 L 485.73 698.64 L 486.32 698.79 L 486.91 698.81 L 487.50 698.84 L 488.09 698.44 L 488.68 698.45 L 489.27 698.92 L 489.86 698.90 L 490.44 698.81 L 491.03 699.08 L 491.62 699.06 L 492.21 698.88 L 492.80 698.90 L 493.39 699.07 L 493.98 698.81 L 494.57 698.94 L 495.16 698.93 L 495.74 698.62 L 496.33 698.98 L 496.92 698.71 L 497.51 698.72 L 498.10 698.65 L 498.69 698.85 L 499.28 698.85 L 499.87 699.04 L 500.46 698.81 L 501.04 698.51 L 501.63 699.11 L 502.22 699.08 L 502.81 698.79 L 503.40 698.99 L 503.99 698.93 L 504.58 698.84 L 505.17 699.03 L 505.76 698.73 L 511.06 699.02 L 511.64 699.13 L 512.23 699.11 L 512.82 699.17 L 513.41 699.17 L 514.00 699.07 L 514.59 699.10 L 515.18 699.10 L 515.77 699.10 L 516.36 699.06 L 516.94 699.14 L 517.53 699.12 L 518.12 699.08 L 518.71 699.18 L 519.30 699.11 L 519.89 699.11 L 520.48 699.09 L 521.07 699.07 L 521.66 699.00 L 522.24 699.03 L 522.83 699.10 L 523.42 699.10 L 524.01 699.16 L 524.60 696.83 L 525.19 693.39 L 525.78 693.39 L 526.37 681.61 L 526.96 688.27 L 527.54 690.15 L 528.13 688.80 L 528.72 687.03 L 529.31 683.29 L 529.90 679.27 L 530.49 667.15 L 531.08 662.97 L 531.67 682.13 L 532.26 646.87 L 532.84 681.67 L 533.43 666.05 L 534.02 659.97 L 534.61 659.97 L 535.20 672.88 L 535.79 681.41 L 536.38 694.87 L 536.97 679.37 L 537.56 689.14 L 538.14 672.47 L 538.73 685.45 L 539.32 687.37 L 539.91 686.87 L 540.50 690.52 L 541.09 688.78 L 541.68 692.79 L 542.27 685.33 L 542.86 678.20 L 543.44 689.12 L 544.03 689.43 L 544.62 667.47 L 545.21 689.53 L 545.80 676.39 L 546.39 675.46 L 546.98 672.42 L 547.57 666.21 L 548.16 647.37 L 548.74 660.95 L 549.33 672.66 L 549.92 679.33 L 550.51 679.78 L 551.10 679.78 L 551.69 680.70 L 552.28 681.91 L 552.87 671.48 L 553.46 680.51 L 554.04 679.43 L 554.63 683.47 L 555.22 683.03 L 555.81 660.02 L 556.40 677.70 L 556.99 672.69 L 557.58 686.28 L 558.17 675.54 L 558.76 666.18 L 559.34 673.54 L 559.93 672.09 L 560.52 676.19 L 561.11 690.14 L 561.70 676.55 L 562.29 674.66 L 562.88 560.79 L 563.47 651.42 L 564.06 674.14 L 564.64 671.88 L 565.23 661.61 L 565.82 667.76 L 566.41 671.00 L 567.00 683.41 L 567.59 673.14 L 568.18 677.64 L 568.77 686.30 L 569.36 682.69 L 569.94 678.04 L 570.53 682.18 L 571.12 692.16 L 571.71 654.66 L 572.30 677.26 L 572.89 653.12 L 573.48 653.12 L 574.07 656.14 L 574.66 683.91 L 575.24 672.75 L 575.83 643.25 L 576.42 680.43 L 577.01 687.16 L 577.60 666.04 L 578.19 652.79 L 578.78 691.48 L 579.37 669.59 L 579.96 672.26 L 580.54 689.76 L 581.13 644.61 L 581.72 685.67 L 582.31 683.07 L 582.90 692.32 L 583.49 666.12 L 584.08 669.58 L 584.67 676.07 L 585.26 678.94 L 585.84 682.43 L 586.43 688.65 L 587.02 696.21 L 587.61 689.74 L 588.20 683.70 L 588.79 661.09 L 589.38 690.66 L 589.97 661.52 L 590.56 674.31 L 591.14 656.52 L 591.73 687.17 L 592.32 682.62 L 592.91 687.11 L 593.50 670.44 L 594.09 681.02 L 594.68 692.22 L 595.27 662.98 L 595.86 672.08 L 596.44 678.65 L 597.03 672.12 L 597.62 672.12 L 598.21 664.86 L 598.80 680.31 L 599.39 683.90 L 599.98 674.90 L 600.57 686.19 L 601.16 685.21 L 601.74 663.46 L 602.33 685.64 L 602.92 640.93 L 603.51 622.74 L 604.10 646.71 L 604.69 687.77 L 605.28 662.81 L 605.87 665.29 L 606.46 675.87 L 607.04 661.99 L 607.63 678.00 L 608.22 690.34 L 608.81 648.83 L 609.40 661.77 L 609.99 682.77 L 610.58 671.57 L 611.17 687.34 L 611.76 667.83 L 612.34 665.86 L 612.93 657.26 L 613.52 652.88 L 614.11 641.64 L 614.70 661.42 L 615.29 663.43 L 615.88 654.59 L 616.47 634.44 L 617.06 658.58 L 617.64 670.02 L 618.23 599.79 L 618.82 608.08 L 619.41 645.97 L 620.00 635.16 L 620.59 633.58 L 621.18 636.12 L 621.77 659.55 L 622.36 651.70 L 622.94 641.52 L 623.53 632.19 L 624.12 597.51 L 624.71 637.94 L 625.30 650.34 L 625.89 667.07 L 626.48 645.28 L 627.07 650.85 L 627.66 654.04 L 628.24 684.45 L 628.83 672.67 L 629.42 679.08 L 630.01 679.08 L 630.60 675.66 L 631.19 681.62 L 631.78 686.79 L 632.37 658.29" stroke="#FB8C00" />
<text x="90" y="711.25" font-size="14" font-weight="700">Giroscópio (magnitude) (u.a.)</text>
<rect class="event" x="266.67" y="717.25" width="259.70" height="192.75" />
<line class="eventline" x1="266.67" y1="717.25" x2="266.67" y2="910.00" />
<line class="eventline" x1="526.37" y1="717.25" x2="526.37" y2="910.00" />
<line class="grid" x1="90" y1="910.00" x2="1150" y2="910.00" />
<text class="small" x="80" y="914.00" text-anchor="end">0.00</text>
<line class="grid" x1="90" y1="871.45" x2="1150" y2="871.45" />
<text class="small" x="80" y="875.45" text-anchor="end">0.10</text>
<line class="grid" x1="90" y1="832.90" x2="1150" y2="832.90" />
<text class="small" x="80" y="836.90" text-anchor="end">0.20</text>
<line class="grid" x1="90" y1="794.35" x2="1150" y2="794.35" />
<text class="small" x="80" y="798.35" text-anchor="end">0.30</text>
<line class="grid" x1="90" y1="755.80" x2="1150" y2="755.80" />
<text class="small" x="80" y="759.80" text-anchor="end">0.40</text>
<line class="grid" x1="90" y1="717.25" x2="1150" y2="717.25" />
<text class="small" x="80" y="721.25" text-anchor="end">0.50</text>
<line class="grid" x1="90.00" y1="717.25" x2="90.00" y2="910.00" />
<line class="grid" x1="266.67" y1="717.25" x2="266.67" y2="910.00" />
<line class="grid" x1="443.33" y1="717.25" x2="443.33" y2="910.00" />
<line class="grid" x1="620.00" y1="717.25" x2="620.00" y2="910.00" />
<line class="grid" x1="796.67" y1="717.25" x2="796.67" y2="910.00" />
<line class="grid" x1="973.33" y1="717.25" x2="973.33" y2="910.00" />
<line class="grid" x1="1150.00" y1="717.25" x2="1150.00" y2="910.00" />
<line class="axis" x1="90" y1="717.25" x2="90" y2="910.00" />
<line class="axis" x1="90" y1="910.00" x2="1150" y2="910.00" />
<path class="series" d="M 160.67 905.79 L 161.26 901.41 L 161.84 896.04 L 162.43 896.38 L 163.02 899.40 L 163.61 900.43 L 164.20 901.24 L 164.79 901.78 L 165.38 900.65 L 165.97 898.69 L 166.56 895.06 L 167.14 901.15 L 167.73 904.13 L 168.32 902.00 L 168.91 906.49 L 169.50 908.07 L 170.09 900.71 L 170.68 903.84 L 171.27 904.65 L 171.86 902.38 L 172.44 898.32 L 173.03 902.19 L 173.62 902.63 L 174.21 895.71 L 174.80 895.48 L 175.39 902.20 L 175.98 904.09 L 176.57 904.47 L 177.16 891.39 L 177.74 898.60 L 178.33 901.93 L 178.92 897.84 L 179.51 902.95 L 180.10 899.68 L 180.69 899.69 L 181.28 903.85 L 181.87 903.50 L 182.46 901.38 L 183.04 902.49 L 183.63 902.08 L 184.22 899.31 L 184.81 899.79 L 185.40 898.00 L 185.99 899.00 L 186.58 896.21 L 187.17 895.51 L 187.76 895.63 L 188.34 888.51 L 188.93 895.65 L 189.52 900.00 L 190.11 904.23 L 190.70 902.19 L 191.29 901.61 L 191.88 904.19 L 192.47 900.48 L 193.06 903.38 L 193.64 898.54 L 194.23 896.54 L 194.82 891.68 L 195.41 891.73 L 196.00 893.79 L 196.59 892.13 L 197.18 891.87 L 197.77 893.24 L 198.36 900.22 L 198.94 901.21 L 199.53 896.63 L 200.12 888.10 L 200.71 889.58 L 201.30 889.53 L 201.89 892.66 L 202.48 895.84 L 203.07 896.43 L 203.66 896.29 L 204.24 892.10 L 204.83 896.69 L 205.42 896.92 L 206.01 896.54 L 206.60 896.02 L 207.19 894.71 L 207.78 892.58 L 208.37 897.16 L 208.96 900.09 L 209.54 899.00 L 210.13 898.37 L 210.72 902.44 L 211.31 896.55 L 211.90 899.31 L 212.49 890.78 L 213.08 887.70 L 213.67 887.70 L 214.26 890.71 L 214.84 890.67 L 215.43 894.87 L 216.02 894.33 L 216.61 898.10 L 217.20 891.81 L 217.79 890.55 L 218.38 890.42 L 218.97 896.81 L 219.56 893.35 L 220.14 901.55 L 220.73 900.80 L 221.32 900.14 L 221.91 905.15 L 222.50 900.75 L 223.09 897.93 L 223.68 897.95 L 224.27 895.61 L 224.86 896.67 L 225.44 897.09 L 226.03 896.62 L 226.62 897.68 L 227.21 898.13 L 227.80 903.16 L 228.39 906.21 L 228.98 905.12 L 229.57 905.14 L 230.16 900.72 L 230.74 906.33 L 231.33 891.15 L 231.92 892.41 L 232.51 888.93 L 233.10 892.97 L 233.69 891.40 L 234.28 894.18 L 234.87 894.83 L 235.46 893.25 L 236.04 895.96 L 236.63 895.54 L 237.22 889.87 L 237.81 893.23 L 238.40 894.26 L 238.99 895.51 L 239.58 904.18 L 240.17 902.61 L 240.76 898.88 L 241.34 894.85 L 241.93 890.69 L 242.52 894.61 L 243.11 894.76 L 243.70 891.11 L 244.29 889.82 L 244.88 884.17 L 245.47 879.64 L 246.06 873.56 L 246.64 870.13 L 247.23 872.96 L 247.82 875.13 L 248.41 870.84 L 249.00 885.65 L 249.59 877.51 L 250.18 889.19 L 250.77 886.28 L 251.36 878.19 L 251.94 883.64 L 252.53 863.30 L 253.12 887.39 L 253.71 903.84 L 254.30 901.10 L 254.89 903.00 L 255.48 905.09 L 256.07 905.26 L 256.66 900.98 L 257.24 887.36 L 257.83 882.03 L 258.42 882.10 L 259.01 882.93 L 259.60 876.90 L 260.19 880.84 L 260.78 880.33 L 261.37 883.47 L 261.96 886.88 L 262.54 885.69 L 263.13 887.95 L 263.72 890.04 L 264.31 889.69 L 264.90 894.14 L 265.49 897.50 L 266.08 898.87 L 266.67 895.81 L 267.26 887.85 L 267.84 900.32 L 268.43 900.32 L 269.02 899.31 L 269.61 899.51 L 270.20 902.94 L 270.79 908.48 L 271.38 909.22 L 271.97 909.25 L 272.56 906.67 L 273.14 909.63 L 273.73 909.46 L 274.32 909.62 L 274.91 908.76 L 275.50 902.90 L 276.09 906.58 L 276.68 907.62 L 277.27 905.19 L 277.86 902.14 L 278.44 895.28 L 279.03 897.71 L 279.62 899.04 L 280.21 901.46 L 280.80 902.75 L 281.39 906.65 L 281.98 907.18 L 282.57 909.39 L 283.16 908.24 L 283.74 909.08 L 284.33 908.91 L 284.92 909.01 L 285.51 906.26 L 286.10 907.34 L 286.69 906.16 L 287.28 906.23 L 287.87 907.97 L 288.46 905.43 L 289.04 907.40 L 289.63 906.92 L 290.22 907.57 L 290.81 907.55 L 291.40 908.50 L 291.99 907.01 L 292.58 902.99 L 293.17 907.41 L 293.76 907.07 L 294.34 904.85 L 294.93 904.73 L 295.52 907.42 L 296.11 905.16 L 296.70 904.32 L 297.29 903.27 L 297.88 905.81 L 298.47 904.64 L 299.06 906.29 L 299.64 906.30 L 300.23 907.28 L 300.82 906.16 L 301.41 906.07 L 302.00 908.40 L 302.59 909.01 L 303.18 909.87 L 303.77 907.59 L 304.36 907.87 L 304.94 908.73 L 305.53 909.44 L 306.12 909.70 L 306.71 907.56 L 307.30 908.89 L 307.89 908.17 L 308.48 908.51 L 309.07 909.68 L 309.66 909.49 L 310.24 909.05 L 310.83 909.06 L 311.42 909.56 L 312.01 909.68 L 312.60 909.73 L 313.19 909.79 L 313.78 909.64 L 314.37 909.75 L 314.96 909.64 L 315.54 909.62 L 316.13 908.75 L 316.72 907.97 L 317.31 908.55 L 317.90 909.28 L 318.49 909.37 L 319.08 909.68 L 319.67 909.81 L 320.26 909.74 L 320.84 909.83 L 321.43 909.56 L 322.02 909.73 L 322.61 909.71 L 323.20 909.69 L 323.79 909.65 L 324.38 909.79 L 324.97 909.81 L 325.56 909.88 L 326.14 909.89 L 326.73 909.73 L 327.32 909.73 L 327.91 909.67 L 328.50 909.57 L 329.09 909.93 L 329.68 909.40 L 330.27 909.56 L 330.86 909.70 L 331.44 909.83 L 332.03 909.57 L 332.62 908.50 L 333.21 908.77 L 333.80 908.77 L 334.39 908.58 L 334.98 909.16 L 335.57 909.37 L 336.16 909.58 L 336.74 909.29 L 337.33 909.64 L 337.92 909.67 L 338.51 909.78 L 339.10 909.47 L 339.69 909.58 L 340.28 909.41 L 340.87 909.11 L 341.46 909.55 L 342.04 909.72 L 342.63 909.90 L 343.22 909.55 L 343.81 909.43 L 344.40 909.37 L 344.99 909.84 L 345.58 909.85 L 346.17 909.88 L 346.76 909.70 L 347.34 909.80 L 347.93 907.16 L 348.52 900.06 L 349.11 905.44 L 349.70 901.03 L 350.29 903.80 L 350.88 908.80 L 351.47 909.23 L 352.06 909.37 L 352.64 909.77 L 353.23 909.70 L 353.82 909.45 L 354.41 909.53 L 355.00 909.89 L 355.59 909.91 L 356.18 909.83 L 356.77 909.73 L 357.36 909.84 L 357.94 909.86 L 358.53 909.77 L 359.12 909.88 L 359.71 909.35 L 360.30 907.97 L 360.89 908.08 L 361.48 905.32 L 362.07 907.59 L 362.66 904.91 L 363.24 903.89 L 363.83 902.34 L 364.42 903.67 L 365.01 901.03 L 365.60 898.40 L 366.78 899.48 L 366.78 899.48 L 367.37 901.54 L 367.96 903.00 L 368.54 906.14 L 369.13 906.60 L 369.72 909.26 L 370.31 909.78 L 370.90 909.19 L 371.49 909.52 L 372.08 909.78 L 372.67 909.78 L 373.26 909.62 L 373.84 909.60 L 379.73 909.80 L 380.32 909.78 L 380.91 909.69 L 381.50 909.68 L 382.09 909.72 L 382.68 909.79 L 383.27 909.86 L 383.86 909.86 L 384.44 909.86 L 385.03 909.85 L 385.62 909.82 L 386.21 909.85 L 386.80 909.79 L 387.39 909.85 L 387.98 909.85 L 388.57 909.85 L 389.16 909.75 L 389.74 909.81 L 390.33 909.74 L 390.92 909.78 L 391.51 909.66 L 392.10 909.66 L 392.69 909.68 L 393.28 909.64 L 393.87 909.63 L 394.46 909.70 L 395.04 909.70 L 395.63 909.63 L 396.22 909.66 L 396.81 909.65 L 397.40 909.70 L 397.99 909.61 L 398.58 909.73 L 399.17 909.70 L 399.76 909.74 L 400.34 909.75 L 400.93 909.83 L 401.52 909.90 L 402.11 909.89 L 402.70 909.93 L 403.29 909.83 L 403.88 909.89 L 404.47 909.90 L 405.06 909.88 L 405.64 909.87 L 406.23 909.87 L 406.82 909.92 L 407.41 909.93 L 408.00 909.88 L 408.59 909.85 L 409.18 909.80 L 409.77 909.87 L 410.36 909.81 L 410.94 909.83 L 411.53 909.84 L 412.12 909.79 L 412.71 909.86 L 413.30 909.79 L 413.89 909.92 L 414.48 909.94 L 415.07 909.92 L 415.66 909.90 L 416.24 909.93 L 416.83 909.88 L 417.42 909.89 L 418.01 909.87 L 418.60 909.93 L 419.19 909.95 L 419.78 909.89 L 420.37 909.92 L 420.96 909.94 L 421.54 909.92 L 422.13 909.91 L 422.72 909.92 L 423.31 909.88 L 423.90 909.91 L 424.49 909.87 L 425.08 909.91 L 425.67 909.87 L 426.26 909.85 L 426.84 909.85 L 427.43 909.89 L 428.02 909.88 L 428.61 909.87 L 429.20 909.87 L 429.79 909.86 L 430.38 909.80 L 430.97 909.87 L 431.56 909.91 L 432.14 909.86 L 432.73 909.87 L 433.32 909.87 L 433.91 909.85 L 434.50 909.87 L 435.09 909.82 L 435.68 909.81 L 436.27 909.79 L 436.86 909.88 L 437.44 909.88 L 438.62 909.91 L 438.62 909.99 L 439.21 909.91 L 439.80 909.96 L 440.39 909.93 L 440.98 909.90 L 441.57 909.98 L 442.16 909.92 L 442.74 909.90 L 443.33 909.95 L 443.92 909.92 L 444.51 909.97 L 445.10 909.87 L 445.69 909.91 L 446.28 909.96 L 446.87 909.92 L 447.46 909.93 L 448.04 909.96 L 448.63 909.95 L 449.22 909.92 L 449.81 909.91 L 450.40 909.95 L 450.99 909.94 L 451.58 909.92 L 452.17 909.86 L 452.76 909.86 L 453.34 909.86 L 453.93 909.92 L 454.52 909.93 L 455.11 909.94 L 455.70 909.90 L 456.29 909.90 L 456.88 909.93 L 457.47 909.88 L 458.06 909.92 L 458.64 909.97 L 459.23 909.98 L 459.82 909.96 L 460.41 909.97 L 461.00 909.89 L 461.59 909.92 L 462.18 909.97 L 462.77 909.91 L 463.36 909.91 L 463.94 909.87 L 464.53 909.95 L 465.12 909.96 L 465.71 909.95 L 466.30 909.93 L 466.89 909.95 L 467.48 909.95 L 468.07 909.94 L 468.66 909.91 L 469.24 909.90 L 469.83 909.96 L 470.42 909.92 L 471.01 909.91 L 471.60 909.94 L 472.19 909.90 L 472.78 909.85 L 473.37 909.93 L 473.96 909.97 L 474.54 909.95 L 475.13 909.97 L 475.72 909.89 L 476.31 909.89 L 476.90 909.94 L 477.49 909.89 L 478.08 909.87 L 478.67 909.94 L 479.26 909.88 L 479.84 909.90 L 480.43 909.87 L 481.02 909.87 L 481.61 909.93 L 482.20 909.87 L 482.79 909.84 L 483.38 909.90 L 483.97 909.91 L 484.56 909.88 L 485.14 909.92 L 485.73 909.87 L 486.32 909.89 L 486.91 909.86 L 487.50 909.94 L 488.09 909.95 L 488.68 909.86 L 489.27 909.88 L 489.86 909.94 L 490.44 909.96 L 491.03 909.84 L 491.62 909.92 L 492.21 909.88 L 492.80 909.90 L 493.39 909.92 L 493.98 909.88 L 494.57 909.97 L 495.16 909.91 L 495.74 909.88 L 496.33 909.89 L 496.92 909.92 L 497.51 909.94 L 498.10 909.96 L 498.69 909.88 L 499.28 909.97 L 499.87 909.88 L 500.46 909.92 L 501.04 909.89 L 501.63 909.95 L 502.22 909.91 L 502.81 909.94 L 503.40 909.85 L 503.99 909.90 L 504.58 909.90 L 505.17 909.92 L 505.76 909.91 L 511.06 909.96 L 511.64 909.89 L 512.23 909.93 L 512.82 909.98 L 513.41 909.95 L 514.00 909.96 L 514.59 909.97 L 515.18 909.97 L 515.77 909.94 L 516.36 909.90 L 516.94 909.90 L 517.53 909.94 L 518.12 909.96 L 518.71 909.91 L 519.30 909.93 L 519.89 909.93 L 520.48 909.96 L 521.07 909.95 L 521.66 909.94 L 522.24 909.91 L 522.83 909.88 L 523.42 909.88 L 524.01 909.92 L 524.60 909.65 L 525.19 909.34 L 525.78 909.34 L 526.37 906.32 L 526.96 896.53 L 527.54 898.46 L 528.13 896.79 L 528.72 894.64 L 529.31 896.02 L 529.90 894.30 L 530.49 897.55 L 531.08 894.19 L 531.67 895.41 L 532.26 892.53 L 532.84 889.06 L 533.43 888.51 L 534.02 894.17 L 534.61 894.17 L 535.20 894.31 L 535.79 898.96 L 536.38 902.74 L 536.97 901.67 L 537.56 906.40 L 538.14 900.93 L 538.73 904.20 L 539.32 902.16 L 539.91 900.12 L 540.50 902.09 L 541.09 901.22 L 541.68 900.91 L 542.27 907.14 L 542.86 902.92 L 543.44 897.91 L 544.03 900.72 L 544.62 898.52 L 545.21 898.81 L 545.80 899.12 L 546.39 898.04 L 546.98 894.51 L 547.57 893.66 L 548.16 890.57 L 548.74 888.51 L 549.33 873.52 L 549.92 873.13 L 550.51 873.79 L 551.10 873.79 L 551.69 872.27 L 552.28 875.49 L 552.87 878.75 L 553.46 884.32 L 554.04 882.36 L 554.63 882.74 L 555.22 885.97 L 555.81 886.59 L 556.40 886.68 L 556.99 889.57 L 557.58 895.21 L 558.17 895.89 L 558.76 889.22 L 559.34 887.00 L 559.93 891.06 L 560.52 889.47 L 561.11 884.59 L 561.70 883.51 L 562.29 884.49 L 562.88 897.44 L 563.47 904.88 L 564.06 895.09 L 564.64 901.74 L 565.23 885.93 L 565.82 862.87 L 566.41 848.10 L 567.00 844.82 L 567.59 867.51 L 568.18 878.64 L 568.77 871.57 L 569.36 879.71 L 569.94 882.78 L 570.53 885.20 L 571.12 888.40 L 571.71 895.07 L 572.30 898.49 L 572.89 897.61 L 573.48 897.61 L 574.07 892.27 L 574.66 898.93 L 575.24 895.41 L 575.83 899.02 L 576.42 895.99 L 577.01 898.32 L 577.60 897.11 L 578.19 897.23 L 578.78 899.57 L 579.37 903.55 L 579.96 903.82 L 580.54 898.93 L 581.13 888.00 L 581.72 890.99 L 582.31 904.24 L 582.90 904.56 L 583.49 899.73 L 584.08 892.92 L 584.67 898.12 L 585.26 907.30 L 585.84 901.65 L 586.43 903.10 L 587.02 901.21 L 587.61 900.44 L 588.20 905.47 L 588.79 903.40 L 589.38 901.18 L 589.97 906.84 L 590.56 905.70 L 591.14 904.90 L 591.73 901.26 L 592.32 904.36 L 592.91 902.39 L 593.50 904.04 L 594.09 902.72 L 594.68 905.36 L 595.27 896.91 L 595.86 906.11 L 596.44 903.36 L 597.03 904.91 L 597.62 904.91 L 598.21 901.34 L 598.80 901.33 L 599.39 902.17 L 599.98 902.65 L 600.57 905.55 L 601.16 901.25 L 601.74 902.99 L 602.33 902.47 L 602.92 880.77 L 603.51 888.56 L 604.10 904.11 L 604.69 900.50 L 605.28 901.79 L 605.87 897.75 L 606.46 897.26 L 607.04 895.77 L 607.63 896.18 L 608.22 895.79 L 608.81 904.69 L 609.40 901.93 L 609.99 902.10 L 610.58 903.65 L 611.17 902.76 L 611.76 902.76 L 612.34 903.26 L 612.93 900.68 L 613.52 888.42 L 614.11 870.61 L 614.70 850.91 L 615.29 850.23 L 615.88 846.40 L 616.47 847.25 L 617.06 845.17 L 617.64 841.83 L 618.23 843.32 L 618.82 825.05 L 619.41 810.86 L 620.00 808.58 L 620.59 812.65 L 621.18 811.50 L 621.77 844.54 L 622.36 871.99 L 622.94 880.38 L 623.53 899.00 L 624.12 891.40 L 624.71 905.90 L 625.30 899.65 L 625.89 905.67 L 626.48 907.63 L 627.07 904.19 L 627.66 903.09 L 628.24 906.55 L 628.83 905.57 L 629.42 904.75 L 630.01 904.75 L 630.60 906.74 L 631.19 905.25 L 631.78 904.93 L 632.37 901.09" stroke="#E53935" />
<text x="620.00" y="952" font-size="15" text-anchor="middle">minutos (relativo ao início do evento)</text>
<text class="small" x="90.00" y="936" text-anchor="middle">-5.00</text>
<text class="small" x="266.67" y="936" text-anchor="middle">0.00</text>
<text class="small" x="443.33" y="936" text-anchor="middle">5.00</text>
<text class="small" x="620.00" y="936" text-anchor="middle">10.0</text>
<text class="small" x="796.67" y="936" text-anchor="middle">15.0</text>
<text class="small" x="973.33" y="936" text-anchor="middle">20.0</text>
<text class="small" x="1150.00" y="936" text-anchor="middle">25.0</text>
</svg>