<?xml version="1.0" encoding="UTF-8"?>
<svg xmlns="http://www.w3.org/2000/svg" width="1180" height="980" viewBox="0 0 1180 980">
<style>
text { font-family: -apple-system, BlinkMacSystemFont, 'Segoe UI', Roboto, Helvetica, Arial, sans-serif; fill: #111; }
.small { font-size: 12px; fill: #222; }
.title { font-size: 18px; font-weight: 700; }
.axis { stroke: #111; stroke-width: 1.4; }
.grid { stroke: #E6E6E6; stroke-width: 1; }
.event { fill: #FFEB3B; fill-opacity: 0.18; }
.eventline { stroke: #F9A825; stroke-width: 1.2; stroke-dasharray: 4 3; }
.series { fill: none; stroke-width: 1.8; }
</style>
<text class="title" x="90" y="34">ciclo 12 — espera_carregamento — 2025-12-13T00:39:16-03:00 → 2025-12-13T00:43:44-03:00 (span 268s, dur 269s)</text>
<text class="small" x="90" y="54">GPS: -11.699205,-47.157561  hotspot: -11.699,-47.158</text>
<text class="small" x="90" y="70">Janela: -3.00 → 7.47 min (relativo ao início do evento)</text>
<text x="90" y="79.00" font-size="14" font-weight="700">Velocidade (km/h)</text>
<rect class="event" x="443.33" y="85.00" width="394.56" height="192.75" />
<line class="eventline" x1="443.33" y1="85.00" x2="443.33" y2="277.75" />
<line class="eventline" x1="837.89" y1="85.00" x2="837.89" y2="277.75" />
<line class="grid" x1="90" y1="277.75" x2="1150" y2="277.75" />
<text class="small" x="80" y="281.75" text-anchor="end">0.00</text>
<line class="grid" x1="90" y1="239.20" x2="1150" y2="239.20" />
<text class="small" x="80" y="243.20" text-anchor="end">10.0</text>
<line class="grid" x1="90" y1="200.65" x2="1150" y2="200.65" />
<text class="small" x="80" y="204.65" text-anchor="end">20.0</text>
<line class="grid" x1="90" y1="162.10" x2="1150" y2="162.10" />
<text class="small" x="80" y="166.10" text-anchor="end">30.0</text>
<line class="grid" x1="90" y1="123.55" x2="1150" y2="123.55" />
<text class="small" x="80" y="127.55" text-anchor="end">40.0</text>
<line class="grid" x1="90" y1="85.00" x2="1150" y2="85.00" />
<text class="small" x="80" y="89.00" text-anchor="end">50.0</text>
<line class="grid" x1="90.00" y1="85.00" x2="90.00" y2="277.75" />
<line class="grid" x1="266.67" y1="85.00" x2="266.67" y2="277.75" />
<line class="grid" x1="443.33" y1="85.00" x2="443.33" y2="277.75" />
<line class="grid" x1="620.00" y1="85.00" x2="620.00" y2="277.75" />
<line class="grid" x1="796.67" y1="85.00" x2="796.67" y2="277.75" />
<line class="grid" x1="973.33" y1="85.00" x2="973.33" y2="277.75" />
<line class="grid" x1="1150.00" y1="85.00" x2="1150.00" y2="277.75" />
<line class="axis" x1="90" y1="85.00" x2="90" y2="277.75" />
<line class="axis" x1="90" y1="277.75" x2="1150" y2="277.75" />
<path class="series" d="M 178.33 168.95 L 179.81 168.39 L 181.28 166.86 L 182.75 165.89 L 184.22 169.50 L 185.69 173.11 L 187.17 172.14 L 188.64 172.00 L 190.11 175.61 L 191.58 176.44 L 193.06 175.61 L 194.53 176.44 L 196.00 181.16 L 197.47 176.44 L 198.94 179.63 L 200.42 175.89 L 201.89 177.00 L 203.36 178.80 L 204.83 178.11 L 206.31 180.05 L 207.78 178.66 L 209.25 178.38 L 210.72 179.49 L 212.19 180.74 L 213.67 181.44 L 215.14 180.88 L 216.61 176.44 L 218.08 171.72 L 219.56 166.86 L 221.03 164.78 L 222.50 164.37 L 223.97 166.86 L 225.44 165.75 L 226.92 168.11 L 228.39 173.53 L 229.86 178.11 L 231.33 183.93 L 232.81 196.98 L 234.28 207.11 L 235.75 214.19 L 237.22 217.24 L 238.69 220.57 L 240.17 233.76 L 241.64 249.16 L 243.11 247.63 L 244.58 252.91 L 246.06 264.15 L 247.53 273.59 L 249.00 275.11 L 250.47 277.75 L 251.94 277.75 L 253.42 268.45 L 254.89 269.56 L 256.36 266.09 L 257.83 265.40 L 259.31 267.06 L 260.78 271.64 L 262.25 268.31 L 263.72 265.95 L 265.19 271.92 L 266.67 273.03 L 268.14 272.62 L 269.61 270.26 L 271.08 271.09 L 272.56 277.75 L 274.03 277.75 L 275.50 277.75 L 276.97 277.75 L 278.44 277.75 L 279.92 267.06 L 281.39 265.12 L 282.86 267.06 L 284.33 266.09 L 285.81 264.43 L 287.28 259.57 L 288.75 257.77 L 290.22 251.52 L 291.69 243.33 L 293.17 244.44 L 294.64 240.97 L 296.11 238.61 L 297.58 237.92 L 299.06 235.56 L 300.53 236.53 L 302.00 236.95 L 303.47 228.21 L 304.94 227.79 L 306.42 221.27 L 307.89 218.49 L 309.36 217.94 L 310.83 220.02 L 312.31 215.85 L 313.78 214.61 L 315.25 216.96 L 316.72 222.65 L 318.19 228.34 L 319.67 228.21 L 321.14 223.35 L 322.61 213.91 L 324.08 212.25 L 325.56 197.40 L 327.03 195.59 L 328.50 202.67 L 329.97 210.16 L 331.44 213.08 L 332.92 209.61 L 334.39 217.66 L 335.86 211.14 L 337.33 215.30 L 338.81 213.49 L 340.28 211.69 L 341.75 206.56 L 343.22 203.50 L 344.69 204.89 L 346.17 203.64 L 347.64 200.73 L 349.11 201.84 L 350.58 200.17 L 352.06 203.78 L 353.53 197.67 L 355.00 200.73 L 356.47 202.67 L 357.94 201.98 L 359.42 201.84 L 360.89 206.83 L 362.36 206.42 L 363.83 206.97 L 365.31 206.28 L 366.78 204.06 L 368.25 203.64 L 369.72 203.64 L 371.19 203.92 L 372.67 208.50 L 374.14 211.83 L 375.61 214.33 L 377.08 216.96 L 378.56 217.94 L 380.03 218.21 L 381.50 220.02 L 382.97 219.32 L 384.44 223.07 L 385.92 228.90 L 387.39 232.09 L 388.86 234.87 L 390.33 237.92 L 391.81 240.97 L 393.28 244.03 L 394.75 243.47 L 396.22 241.94 L 397.69 243.47 L 399.17 245.41 L 400.64 247.36 L 402.11 244.58 L 403.58 246.52 L 405.06 250.55 L 406.53 249.02 L 408.00 249.58 L 409.47 256.52 L 410.94 258.32 L 412.42 257.49 L 413.89 257.07 L 415.36 255.82 L 416.83 256.10 L 418.31 256.24 L 419.78 255.82 L 421.25 255.13 L 422.72 256.79 L 424.19 254.99 L 425.67 254.02 L 427.14 253.74 L 428.61 255.41 L 430.08 255.41 L 431.56 256.24 L 433.03 256.52 L 434.50 256.52 L 435.97 258.60 L 437.44 262.07 L 438.92 267.06 L 440.39 271.23 L 441.86 274.42 L 443.33 277.75 L 444.81 277.75 L 446.28 277.75 L 447.75 277.75 L 449.22 277.75 L 450.69 277.75 L 452.17 277.75 L 453.64 277.75 L 455.11 277.75 L 456.58 277.75 L 458.06 277.75 L 459.53 277.75 L 461.00 277.75 L 462.47 277.75 L 463.94 277.75 L 465.42 277.75 L 466.89 277.75 L 468.36 277.75 L 469.83 277.75 L 471.31 277.75 L 472.78 277.75 L 474.25 277.75 L 475.72 277.75 L 477.19 277.75 L 478.67 277.75 L 480.14 277.75 L 481.61 277.75 L 483.08 277.75 L 484.56 277.75 L 486.03 277.75 L 487.50 277.75 L 488.97 277.75 L 490.44 277.75 L 491.92 277.75 L 493.39 277.75 L 494.86 277.75 L 496.33 277.75 L 497.81 277.75 L 499.28 277.75 L 500.75 277.75 L 502.22 277.75 L 503.69 277.75 L 505.17 277.75 L 506.64 277.75 L 508.11 277.75 L 509.58 277.75 L 511.06 277.75 L 512.53 277.75 L 514.00 277.75 L 515.47 277.75 L 516.94 277.75 L 518.42 277.75 L 519.89 277.75 L 521.36 277.75 L 522.83 277.75 L 524.31 277.75 L 525.78 277.75 L 527.25 277.75 L 528.72 277.75 L 530.19 277.75 L 531.67 277.75 L 533.14 277.75 L 534.61 277.75 L 536.08 277.75 L 537.56 277.75 L 539.03 277.75 L 540.50 277.75 L 541.97 277.75 L 543.44 277.75 L 544.92 277.75 L 546.39 277.75 L 547.86 277.75 L 549.33 277.75 L 550.81 277.75 L 552.28 277.75 L 553.75 277.75 L 555.22 277.75 L 556.69 277.75 L 558.17 277.75 L 559.64 277.75 L 561.11 277.75 L 562.58 277.75 L 564.06 277.75 L 565.53 277.75 L 567.00 277.75 L 568.47 277.75 L 569.94 277.75 L 571.42 277.75 L 572.89 277.75 L 574.36 277.75 L 575.83 277.75 L 577.31 277.75 L 578.78 277.75 L 580.25 277.75 L 581.72 277.75 L 583.19 277.75 L 584.67 277.75 L 586.14 277.75 L 587.61 277.75 L 589.08 277.75 L 590.56 277.75 L 592.03 277.75 L 593.50 277.75 L 594.97 277.75 L 596.44 277.75 L 597.92 277.75 L 599.39 277.75 L 600.86 277.75 L 602.33 277.75 L 603.81 277.75 L 605.28 277.75 L 606.75 277.75 L 608.22 277.75 L 609.69 277.75 L 611.17 277.75 L 612.64 277.75 L 614.11 277.75 L 615.58 277.75 L 617.06 277.75 L 618.53 277.75 L 620.00 277.75 L 621.47 277.75 L 622.94 277.75 L 624.42 277.75 L 625.89 277.75 L 627.36 277.75 L 628.83 277.75 L 630.31 277.75 L 631.78 277.75 L 633.25 277.75 L 634.72 277.75 L 636.19 277.75 L 637.67 277.75 L 639.14 277.75 L 640.61 277.75 L 642.08 277.75 L 643.56 277.75 L 645.03 277.75 L 646.50 277.75 L 647.97 277.75 L 649.44 277.75 L 650.92 277.75 L 652.39 277.75 L 653.86 277.75 L 655.33 277.75 L 656.81 277.75 L 658.28 277.75 L 659.75 277.75 L 661.22 277.75 L 662.69 277.75 L 664.17 277.75 L 665.64 277.75 L 667.11 277.75 L 668.58 277.75 L 670.06 277.75 L 671.53 277.75 L 673.00 277.75 L 674.47 277.75 L 675.94 277.75 L 677.42 277.75 L 678.89 277.75 L 680.36 277.75 L 681.83 277.75 L 683.31 277.75 L 684.78 277.75 L 686.25 277.75 L 687.72 277.75 L 689.19 277.75 L 690.67 277.75 L 692.14 277.75 L 693.61 277.75 L 695.08 277.75 L 696.56 277.75 L 698.03 277.75 L 699.50 277.75 L 700.97 277.75 L 702.44 277.75 L 703.92 277.75 L 705.39 277.75 L 706.86 277.75 L 708.33 277.75 L 709.81 277.75 L 711.28 277.75 L 712.75 277.75 L 714.22 277.75 L 715.69 277.75 L 717.17 277.75 L 718.64 277.75 L 720.11 277.75 L 721.58 277.75 L 723.06 277.75 L 724.53 277.75 L 726.00 277.75 L 727.47 277.75 L 728.94 277.75 L 730.42 277.75 L 731.89 277.75 L 733.36 277.75 L 734.83 277.75 L 736.31 277.75 L 737.78 277.75 L 739.25 277.75 L 740.72 277.75 L 742.19 277.75 L 743.67 277.75 L 745.14 277.75 L 746.61 277.75 L 748.08 277.75 L 749.56 277.75 L 751.03 277.75 L 752.50 277.75 L 753.97 277.75 L 755.44 277.75 L 756.92 277.75 L 758.39 277.75 L 759.86 277.75 L 761.33 277.75 L 762.81 277.75 L 764.28 277.75 L 765.75 277.75 L 767.22 277.75 L 768.69 277.75 L 770.17 277.75 L 771.64 277.75 L 773.11 277.75 L 774.58 277.75 L 776.06 277.75 L 777.53 277.75 L 779.00 277.75 L 780.47 277.75 L 781.94 277.75 L 783.42 277.75 L 784.89 277.75 L 786.36 277.75 L 787.83 277.75 L 789.31 277.75 L 790.78 277.75 L 792.25 277.75 L 793.72 277.75 L 795.19 277.75 L 796.67 277.75 L 798.14 277.75 L 799.61 277.75 L 801.08 277.75 L 802.56 277.75 L 804.03 277.75 L 805.50 277.75 L 806.97 277.75 L 808.44 277.75 L 809.92 277.75 L 811.39 277.75 L 812.86 277.75 L 814.33 277.75 L 815.81 277.75 L 817.28 277.75 L 818.75 277.75 L 820.22 277.75 L 821.69 277.75 L 823.17 277.75 L 824.64 277.75 L 826.11 277.75 L 827.58 277.75 L 829.06 277.75 L 830.53 277.75 L 832.00 277.75 L 833.47 277.75 L 834.94 277.75 L 836.42 277.75 L 837.89 277.75 L 839.36 230.98 L 840.83 235.42 L 842.31 232.92 L 843.78 239.59 L 845.25 253.19 L 846.72 260.54 L 848.19 262.48 L 849.67 251.38 L 851.14 253.19 L 852.61 261.24 L 854.08 266.09 L 855.56 272.89 L 857.03 277.75 L 858.50 277.75 L 859.97 269.84 L 861.44 265.95 L 862.92 269.70 L 864.39 265.68 L 865.86 265.68 L 867.33 267.34 L 868.81 268.31 L 870.28 271.23 L 871.75 270.95 L 873.22 277.75 L 874.69 271.64 L 876.17 277.75 L 877.64 277.75 L 879.11 277.75 L 880.58 277.75 L 882.06 277.75 L 883.53 277.75 L 885.00 277.75 L 886.47 277.75 L 887.94 277.75 L 889.42 277.75 L 890.89 277.75 L 892.36 277.75 L 893.83 277.75 L 895.31 277.75 L 896.78 277.75 L 898.25 277.75 L 899.72 277.75 L 901.19 277.75 L 902.67 277.75 L 904.14 277.75 L 905.61 277.75 L 907.08 277.75 L 908.56 277.75 L 910.03 277.75 L 911.50 277.75 L 912.97 277.75 L 914.44 277.75 L 915.92 277.75 L 917.39 277.75 L 918.86 277.75 L 920.33 277.75 L 921.81 277.75 L 923.28 277.75 L 924.75 277.75 L 926.22 277.75 L 927.69 277.75 L 929.17 277.75 L 930.64 277.75 L 932.11 277.75 L 933.58 277.75 L 935.06 277.75 L 936.53 277.75 L 938.00 277.75 L 939.47 277.75 L 940.94 277.75 L 942.42 277.75 L 943.89 277.75 L 945.36 277.75 L 946.83 271.64 L 948.31 270.39 L 949.78 277.75 L 951.25 277.75 L 952.72 277.75 L 954.19 277.75 L 955.67 277.75 L 957.14 277.75 L 958.61 277.75 L 960.08 277.75 L 961.56 277.75 L 963.03 277.75 L 964.50 277.75 L 965.97 277.75 L 967.44 277.75 L 968.92 277.75 L 970.39 277.75 L 971.86 277.75 L 973.33 277.75 L 974.81 277.75 L 976.28 277.75 L 977.75 277.75 L 979.22 277.75 L 980.69 277.75 L 982.17 277.75 L 983.64 277.75 L 985.11 277.75 L 986.58 277.75 L 988.06 277.75 L 989.53 277.75 L 991.00 277.75 L 992.47 277.75 L 993.94 277.75 L 995.42 277.75 L 996.89 277.75 L 998.36 277.75 L 999.83 277.75 L 1001.31 277.75 L 1002.78 277.75 L 1004.25 277.75 L 1005.72 277.75 L 1007.19 277.75 L 1008.67 277.75 L 1010.14 277.75 L 1011.61 277.75 L 1013.08 277.75 L 1014.56 277.75 L 1016.03 277.75 L 1017.50 277.75 L 1018.97 277.75 L 1020.44 277.75 L 1021.92 277.75 L 1023.39 277.75 L 1024.86 277.75 L 1026.33 277.75 L 1027.81 277.75 L 1029.28 277.75 L 1030.75 277.75 L 1032.22 277.75 L 1033.69 277.75 L 1035.17 277.75 L 1036.64 277.75 L 1038.11 277.75 L 1039.58 277.75 L 1041.06 277.75 L 1042.53 277.75 L 1044.00 277.75 L 1045.47 277.75 L 1046.94 277.75 L 1048.42 277.75 L 1049.89 277.75 L 1051.36 277.75 L 1052.83 277.75 L 1054.31 277.75 L 1055.78 277.75 L 1057.25 277.75 L 1058.72 277.75 L 1060.19 277.75 L 1061.67 277.75 L 1063.14 277.75 L 1064.61 277.75 L 1066.08 277.75 L 1067.56 277.75 L 1069.03 277.75 L 1070.50 277.75 L 1071.97 277.75 L 1073.44 277.75 L 1074.92 277.75 L 1076.39 277.75 L 1077.86 277.75 L 1079.33 277.75 L 1080.81 277.75 L 1082.28 277.75 L 1083.75 277.75 L 1085.22 277.75 L 1086.69 277.75 L 1088.17 277.75 L 1089.64 277.75 L 1091.11 277.75 L 1092.58 277.75 L 1094.06 277.75 L 1095.53 277.75 L 1097.00 277.75 L 1098.47 277.75 L 1099.94 277.75 L 1101.42 277.75 L 1102.89 277.75" stroke="#1976D2" />
<text x="90" y="289.75" font-size="14" font-weight="700">Inclinação (graus)</text>
<rect class="event" x="443.33" y="295.75" width="394.56" height="192.75" />
<line class="eventline" x1="443.33" y1="295.75" x2="443.33" y2="488.50" />
<line class="eventline" x1="837.89" y1="295.75" x2="837.89" y2="488.50" />
<line class="grid" x1="90" y1="488.50" x2="1150" y2="488.50" />
<text class="small" x="80" y="492.50" text-anchor="end">-10.0</text>
<line class="grid" x1="90" y1="449.95" x2="1150" y2="449.95" />
<text class="small" x="80" y="453.95" text-anchor="end">0.00</text>
<line class="grid" x1="90" y1="411.40" x2="1150" y2="411.40" />
<text class="small" x="80" y="415.40" text-anchor="end">10.0</text>
<line class="grid" x1="90" y1="372.85" x2="1150" y2="372.85" />
<text class="small" x="80" y="376.85" text-anchor="end">20.0</text>
<line class="grid" x1="90" y1="334.30" x2="1150" y2="334.30" />
<text class="small" x="80" y="338.30" text-anchor="end">30.0</text>
<line class="grid" x1="90" y1="295.75" x2="1150" y2="295.75" />
<text class="small" x="80" y="299.75" text-anchor="end">40.0</text>
<line class="grid" x1="90.00" y1="295.75" x2="90.00" y2="488.50" />
<line class="grid" x1="266.67" y1="295.75" x2="266.67" y2="488.50" />
<line class="grid" x1="443.33" y1="295.75" x2="443.33" y2="488.50" />
<line class="grid" x1="620.00" y1="295.75" x2="620.00" y2="488.50" />
<line class="grid" x1="796.67" y1="295.75" x2="796.67" y2="488.50" />
<line class="grid" x1="973.33" y1="295.75" x2="973.33" y2="488.50" />
<line class="grid" x1="1150.00" y1="295.75" x2="1150.00" y2="488.50" />
<line class="axis" x1="90" y1="295.75" x2="90" y2="488.50" />
<line class="axis" x1="90" y1="488.50" x2="1150" y2="488.50" />
<path class="series" d="M 178.33 410.34 L 179.81 409.73 L 181.28 405.72 L 182.75 402.35 L 184.22 398.11 L 185.69 405.68 L 187.17 410.79 L 188.64 408.02 L 190.11 404.24 L 191.58 411.16 L 193.06 410.11 L 194.53 405.72 L 196.00 405.90 L 197.47 405.35 L 198.94 408.37 L 200.42 406.59 L 201.89 401.30 L 203.36 401.55 L 204.83 401.01 L 206.31 401.57 L 207.78 403.36 L 209.25 397.39 L 210.72 400.54 L 212.19 399.01 L 213.67 393.80 L 215.14 395.64 L 216.61 393.25 L 218.08 387.91 L 219.56 380.59 L 221.03 382.55 L 222.50 378.80 L 223.97 373.79 L 225.44 369.57 L 226.92 370.16 L 228.39 369.18 L 229.86 370.68 L 231.33 368.53 L 232.81 362.10 L 234.28 374.04 L 235.75 377.05 L 237.22 376.70 L 238.69 376.02 L 240.17 352.19 L 241.64 377.20 L 243.11 384.48 L 244.58 363.42 L 246.06 367.75 L 247.53 378.48 L 249.00 384.68 L 250.47 386.75 L 251.94 388.50 L 253.42 385.00 L 254.89 390.15 L 256.36 387.93 L 257.83 384.52 L 259.31 376.44 L 260.78 387.46 L 262.25 390.85 L 263.72 379.68 L 265.19 381.60 L 266.67 384.26 L 268.14 391.14 L 269.61 380.74 L 271.08 383.09 L 272.56 385.57 L 274.03 385.20 L 275.50 387.55 L 276.97 384.30 L 278.44 393.12 L 279.92 387.84 L 281.39 384.48 L 282.86 388.03 L 284.33 388.40 L 285.81 394.56 L 287.28 386.91 L 288.75 396.68 L 290.22 399.88 L 291.69 384.42 L 293.17 388.94 L 294.64 391.77 L 296.11 394.40 L 297.58 396.05 L 299.06 393.43 L 300.53 400.39 L 302.00 413.00 L 303.47 403.22 L 304.94 411.79 L 306.42 410.26 L 307.89 393.75 L 309.36 382.62 L 310.83 412.60 L 312.31 409.52 L 313.78 406.19 L 315.25 396.30 L 316.72 386.25 L 318.19 388.38 L 319.67 383.85 L 321.14 383.51 L 322.61 380.33 L 324.08 389.08 L 325.56 402.26 L 327.03 389.35 L 328.50 396.59 L 329.97 395.84 L 331.44 408.97 L 332.92 405.70 L 334.39 412.09 L 335.86 401.36 L 337.33 414.96 L 338.81 411.56 L 340.28 420.18 L 341.75 412.72 L 343.22 402.65 L 344.69 401.34 L 346.17 405.71 L 347.64 398.87 L 349.11 407.34 L 350.58 410.49 L 352.06 417.54 L 353.53 404.45 L 355.00 401.53 L 356.47 406.92 L 357.94 410.42 L 359.42 400.33 L 360.89 406.03 L 362.36 396.96 L 363.83 400.06 L 365.31 400.97 L 366.78 403.19 L 368.25 401.14 L 369.72 401.85 L 371.19 397.48 L 372.67 396.30 L 374.14 400.13 L 375.61 394.96 L 377.08 394.38 L 378.56 394.38 L 380.03 395.63 L 381.50 396.68 L 382.97 394.25 L 384.44 392.80 L 385.92 401.93 L 387.39 397.98 L 388.86 406.39 L 390.33 388.98 L 391.81 400.86 L 393.28 401.50 L 394.75 400.82 L 396.22 405.25 L 397.69 403.69 L 399.17 399.44 L 400.64 405.87 L 402.11 405.06 L 403.58 404.28 L 405.06 405.41 L 406.53 399.49 L 408.00 402.00 L 409.47 391.54 L 410.94 399.42 L 412.42 400.52 L 413.89 396.26 L 415.36 404.68 L 416.83 402.64 L 418.31 408.07 L 419.78 417.22 L 421.25 419.93 L 422.72 425.03 L 424.19 433.00 L 425.67 436.36 L 427.14 438.32 L 428.61 422.02 L 430.08 417.03 L 431.56 411.09 L 433.03 407.88 L 434.50 401.11 L 435.97 401.20 L 437.44 400.43 L 438.92 396.86 L 440.39 401.19 L 441.86 410.02 L 443.33 395.25 L 444.81 408.54 L 446.28 407.40 L 447.75 407.80 L 449.22 407.70 L 450.69 407.78 L 452.17 407.70 L 453.64 407.71 L 455.11 407.72 L 456.58 407.74 L 458.06 407.75 L 459.53 407.74 L 461.00 407.72 L 462.47 407.69 L 463.94 407.72 L 465.42 407.67 L 466.89 407.71 L 468.36 407.70 L 469.83 407.78 L 471.31 407.73 L 472.78 407.69 L 474.25 407.76 L 475.72 407.73 L 477.19 407.77 L 478.67 407.71 L 480.14 407.72 L 481.61 407.74 L 483.08 407.75 L 484.56 407.67 L 486.03 407.76 L 487.50 407.72 L 488.97 407.72 L 490.44 407.73 L 491.92 407.68 L 493.39 407.72 L 494.86 407.68 L 496.33 407.72 L 497.81 407.69 L 499.28 407.70 L 500.75 407.70 L 502.22 407.71 L 503.69 407.64 L 505.17 407.71 L 506.64 407.66 L 508.11 407.66 L 509.58 407.71 L 511.06 407.68 L 512.53 407.77 L 514.00 407.70 L 515.47 407.74 L 516.94 407.71 L 518.42 407.76 L 519.89 407.68 L 521.36 407.72 L 522.83 407.67 L 524.31 407.71 L 525.78 407.68 L 527.25 407.64 L 528.72 407.67 L 530.19 407.65 L 531.67 407.66 L 533.14 407.61 L 534.61 407.65 L 536.08 407.68 L 537.56 407.67 L 539.03 407.71 L 540.50 407.61 L 541.97 407.64 L 543.44 407.68 L 544.92 407.69 L 546.39 407.65 L 547.86 407.65 L 549.33 407.68 L 550.81 407.65 L 552.28 407.69 L 553.75 407.67 L 555.22 407.75 L 556.69 407.66 L 558.17 407.68 L 559.64 407.65 L 561.11 407.66 L 562.58 407.66 L 564.06 407.64 L 565.53 407.68 L 567.00 407.67 L 568.47 407.65 L 569.94 407.63 L 571.42 407.68 L 572.89 407.62 L 574.36 407.66 L 575.83 407.67 L 577.31 407.64 L 578.78 407.67 L 580.25 407.70 L 581.72 407.71 L 583.19 407.67 L 584.67 407.75 L 586.14 407.71 L 587.61 407.74 L 589.08 407.67 L 590.56 407.69 L 592.03 407.74 L 593.50 407.73 L 594.97 407.69 L 596.44 407.68 L 597.92 407.74 L 599.39 407.68 L 600.86 407.70 L 602.33 407.69 L 603.81 407.74 L 605.28 407.68 L 606.75 407.68 L 608.22 407.70 L 609.69 407.69 L 611.17 407.69 L 612.64 407.71 L 614.11 407.64 L 615.58 407.66 L 617.06 407.81 L 618.53 407.71 L 620.00 407.74 L 621.47 407.70 L 622.94 407.73 L 624.42 407.74 L 625.89 407.72 L 627.36 407.70 L 628.83 407.69 L 630.31 407.74 L 631.78 407.67 L 633.25 407.75 L 634.72 407.67 L 636.19 407.69 L 637.67 407.64 L 639.14 407.72 L 640.61 407.67 L 642.08 407.71 L 643.56 407.74 L 645.03 407.70 L 646.50 407.68 L 647.97 407.70 L 649.44 407.74 L 650.92 407.67 L 652.39 407.70 L 653.86 407.68 L 655.33 407.70 L 656.81 407.73 L 658.28 407.73 L 659.75 407.75 L 661.22 407.80 L 662.69 407.70 L 664.17 407.70 L 665.64 407.71 L 667.11 407.70 L 668.58 407.68 L 670.06 407.68 L 671.53 407.67 L 673.00 407.69 L 674.47 407.70 L 675.94 407.71 L 677.42 407.62 L 678.89 407.69 L 680.36 407.75 L 681.83 407.69 L 683.31 407.71 L 684.78 407.66 L 686.25 407.68 L 687.72 407.72 L 689.19 407.71 L 690.67 407.65 L 692.14 407.75 L 693.61 407.72 L 695.08 407.73 L 696.56 407.70 L 698.03 407.67 L 699.50 407.73 L 700.97 407.70 L 702.44 407.72 L 703.92 407.71 L 705.39 407.73 L 706.86 407.66 L 708.33 407.69 L 709.81 407.66 L 711.28 407.75 L 712.75 407.68 L 714.22 407.68 L 715.69 407.69 L 717.17 407.68 L 718.64 407.62 L 720.11 407.64 L 721.58 407.64 L 723.06 407.71 L 724.53 407.73 L 726.00 407.67 L 727.47 407.68 L 728.94 407.70 L 730.42 407.68 L 731.89 407.64 L 733.36 407.65 L 734.83 407.68 L 736.31 407.69 L 737.78 407.69 L 739.25 407.69 L 740.72 407.65 L 742.19 407.69 L 743.67 407.63 L 745.14 407.71 L 746.61 407.69 L 748.08 407.67 L 749.56 407.69 L 751.03 407.71 L 752.50 407.75 L 753.97 407.68 L 755.44 407.72 L 756.92 407.65 L 758.39 407.70 L 759.86 407.74 L 761.33 407.72 L 762.81 407.71 L 764.28 407.74 L 765.75 407.75 L 767.22 407.73 L 768.69 407.73 L 770.17 407.73 L 771.64 407.72 L 773.11 407.71 L 774.58 407.71 L 776.06 407.69 L 777.53 407.72 L 779.00 407.73 L 780.47 407.67 L 781.94 407.68 L 783.42 407.73 L 784.89 407.73 L 786.36 407.70 L 787.83 407.70 L 789.31 407.69 L 790.78 407.71 L 792.25 407.73 L 793.72 407.73 L 795.19 407.69 L 796.67 407.67 L 798.14 407.70 L 799.61 407.67 L 801.08 407.69 L 802.56 407.75 L 804.03 407.76 L 805.50 407.66 L 806.97 407.77 L 808.44 407.70 L 809.92 407.80 L 811.39 407.72 L 812.86 407.69 L 814.33 407.73 L 815.81 407.73 L 817.28 407.71 L 818.75 407.75 L 820.22 407.74 L 821.69 407.72 L 823.17 407.68 L 824.64 407.75 L 826.11 407.74 L 827.58 407.72 L 829.06 407.73 L 830.53 407.70 L 832.00 407.95 L 833.47 422.19 L 834.94 419.43 L 836.42 418.64 L 837.89 424.02 L 839.36 439.88 L 840.83 421.38 L 842.31 387.66 L 843.78 380.85 L 845.25 380.48 L 846.72 388.75 L 848.19 400.90 L 849.67 387.40 L 851.14 376.77 L 852.61 381.86 L 854.08 372.12 L 855.56 373.10 L 857.03 385.45 L 858.50 370.61 L 859.97 383.54 L 861.44 388.41 L 862.92 389.08 L 864.39 384.24 L 865.86 390.35 L 867.33 390.50 L 868.81 399.48 L 870.28 395.71 L 871.75 397.11 L 873.22 398.86 L 874.69 399.34 L 876.17 408.60 L 877.64 399.24 L 879.11 399.79 L 880.58 399.67 L 882.06 399.75 L 883.53 399.71 L 885.00 399.87 L 886.47 399.06 L 887.94 399.85 L 889.42 399.46 L 890.89 399.48 L 892.36 399.51 L 893.83 399.47 L 895.31 399.46 L 896.78 399.44 L 898.25 399.46 L 899.72 399.23 L 901.19 392.78 L 902.67 407.01 L 904.14 400.00 L 905.61 400.48 L 907.08 401.30 L 908.56 399.26 L 910.03 400.17 L 911.50 400.13 L 912.97 400.17 L 914.44 400.12 L 915.92 400.15 L 917.39 400.12 L 918.86 400.12 L 920.33 400.10 L 921.81 400.11 L 923.28 400.13 L 924.75 400.14 L 926.22 400.16 L 927.69 400.16 L 929.17 399.47 L 930.64 393.32 L 932.11 401.76 L 933.58 401.18 L 935.06 409.31 L 936.53 401.34 L 938.00 402.28 L 939.47 402.09 L 940.94 402.08 L 942.42 402.09 L 943.89 402.03 L 945.36 392.14 L 946.83 400.37 L 948.31 407.57 L 949.78 409.40 L 951.25 404.41 L 952.72 403.35 L 954.19 403.31 L 955.67 403.30 L 957.14 403.34 L 958.61 403.27 L 960.08 403.32 L 961.56 403.27 L 963.03 400.25 L 964.50 396.34 L 965.97 396.34 L 967.44 402.75 L 968.92 407.29 L 970.39 396.45 L 971.86 397.72 L 973.33 399.16 L 974.81 396.74 L 976.28 400.81 L 977.75 400.52 L 979.22 395.11 L 980.69 393.04 L 982.17 400.69 L 983.64 395.94 L 985.11 396.01 L 986.58 393.31 L 988.06 391.02 L 989.53 401.61 L 991.00 394.43 L 992.47 394.58 L 993.94 394.19 L 995.42 394.65 L 996.89 394.16 L 998.36 394.14 L 999.83 394.21 L 1001.31 394.18 L 1002.78 394.19 L 1004.25 394.24 L 1005.72 394.24 L 1007.19 394.15 L 1008.67 394.20 L 1010.14 394.24 L 1011.61 394.20 L 1013.08 394.20 L 1014.56 394.21 L 1016.03 394.21 L 1017.50 394.19 L 1018.97 394.19 L 1020.44 394.21 L 1021.92 394.09 L 1023.39 394.62 L 1024.86 393.33 L 1026.33 393.22 L 1027.81 393.24 L 1029.28 393.26 L 1030.75 393.31 L 1032.22 393.29 L 1033.69 393.18 L 1035.17 393.24 L 1036.64 393.25 L 1038.11 393.26 L 1039.58 393.22 L 1041.06 393.27 L 1042.53 393.27 L 1044.00 393.24 L 1045.47 393.21 L 1046.94 393.18 L 1048.42 393.18 L 1049.89 393.16 L 1051.36 393.12 L 1052.83 393.22 L 1054.31 393.12 L 1055.78 393.05 L 1057.25 393.71 L 1058.72 391.94 L 1060.19 392.16 L 1061.67 392.51 L 1063.14 392.36 L 1064.61 392.27 L 1066.08 392.39 L 1067.56 392.35 L 1069.03 392.37 L 1070.50 392.31 L 1071.97 392.35 L 1073.44 392.33 L 1074.92 392.24 L 1076.39 392.28 L 1077.86 392.31 L 1079.33 392.33 L 1080.81 392.27 L 1082.28 392.34 L 1083.75 392.31 L 1085.22 392.31 L 1086.69 392.26 L 1088.17 392.25 L 1089.64 392.28 L 1091.11 392.27 L 1092.58 392.28 L 1094.06 392.24 L 1095.53 392.23 L 1097.00 392.24 L 1098.47 392.27 L 1099.94 392.24 L 1101.42 392.27 L 1102.89 392.24" stroke="#2E7D32" />
<path class="series" d="M 178.33 429.27 L 179.81 435.20 L 181.28 428.91 L 182.75 427.27 L 184.22 427.45 L 185.69 429.72 L 187.17 438.49 L 188.64 440.18 L 190.11 426.21 L 191.58 428.01 L 193.06 433.65 L 194.53 427.94 L 196.00 432.36 L 197.47 428.92 L 198.94 431.94 L 200.42 428.55 L 201.89 424.02 L 203.36 422.87 L 204.83 423.18 L 206.31 421.26 L 207.78 429.71 L 209.25 424.69 L 210.72 424.67 L 212.19 426.10 L 213.67 438.88 L 215.14 430.62 L 216.61 451.22 L 218.08 432.23 L 219.56 432.53 L 221.03 434.93 L 222.50 436.08 L 223.97 436.67 L 225.44 433.42 L 226.92 441.28 L 228.39 445.15 L 229.86 438.83 L 231.33 445.48 L 232.81 443.85 L 234.28 446.54 L 235.75 457.23 L 237.22 459.11 L 238.69 456.93 L 240.17 443.08 L 241.64 445.33 L 243.11 444.67 L 244.58 443.33 L 246.06 446.07 L 247.53 445.00 L 249.00 443.26 L 250.47 444.30 L 251.94 443.86 L 253.42 443.03 L 254.89 443.09 L 256.36 442.71 L 257.83 441.76 L 259.31 443.17 L 260.78 441.44 L 262.25 439.64 L 263.72 440.87 L 265.19 441.05 L 266.67 438.72 L 268.14 436.47 L 269.61 439.74 L 271.08 439.33 L 272.56 438.73 L 274.03 438.74 L 275.50 439.00 L 276.97 439.07 L 278.44 438.16 L 279.92 438.17 L 281.39 438.90 L 282.86 440.25 L 284.33 439.59 L 285.81 439.52 L 287.28 440.19 L 288.75 440.53 L 290.22 437.42 L 291.69 429.39 L 293.17 426.69 L 294.64 430.66 L 296.11 430.19 L 297.58 437.42 L 299.06 433.41 L 300.53 430.44 L 302.00 427.63 L 303.47 425.87 L 304.94 422.48 L 306.42 427.73 L 307.89 429.03 L 309.36 418.19 L 310.83 415.40 L 312.31 424.54 L 313.78 429.67 L 315.25 426.74 L 316.72 425.97 L 318.19 434.62 L 319.67 435.55 L 321.14 437.61 L 322.61 437.89 L 324.08 439.67 L 325.56 453.00 L 327.03 448.50 L 328.50 450.87 L 329.97 447.35 L 331.44 441.51 L 332.92 446.71 L 334.39 437.30 L 335.86 443.63 L 337.33 429.58 L 338.81 425.61 L 340.28 438.47 L 341.75 446.40 L 343.22 445.71 L 344.69 443.38 L 346.17 452.63 L 347.64 442.32 L 349.11 439.14 L 350.58 450.15 L 352.06 453.56 L 353.53 456.72 L 355.00 447.22 L 356.47 444.84 L 357.94 442.46 L 359.42 447.57 L 360.89 443.62 L 362.36 439.55 L 363.83 439.20 L 365.31 440.01 L 366.78 427.31 L 368.25 429.68 L 369.72 438.64 L 371.19 447.71 L 372.67 441.61 L 374.14 446.71 L 375.61 451.94 L 377.08 452.67 L 378.56 452.67 L 380.03 441.89 L 381.50 443.64 L 382.97 446.88 L 384.44 444.67 L 385.92 430.15 L 387.39 439.66 L 388.86 441.44 L 390.33 442.71 L 391.81 452.07 L 393.28 450.75 L 394.75 451.46 L 396.22 455.52 L 397.69 451.82 L 399.17 450.81 L 400.64 453.07 L 402.11 446.46 L 403.58 446.91 L 405.06 447.25 L 406.53 456.39 L 408.00 452.48 L 409.47 453.75 L 410.94 442.77 L 412.42 441.79 L 413.89 444.85 L 415.36 446.37 L 416.83 443.34 L 418.31 448.94 L 419.78 446.72 L 421.25 448.68 L 422.72 442.18 L 424.19 439.66 L 425.67 437.89 L 427.14 435.61 L 428.61 437.86 L 430.08 438.27 L 431.56 432.87 L 433.03 439.39 L 434.50 447.32 L 435.97 455.08 L 437.44 446.87 L 438.92 449.42 L 440.39 450.42 L 441.86 452.06 L 443.33 444.13 L 444.81 450.05 L 446.28 449.19 L 447.75 449.56 L 449.22 449.01 L 450.69 449.40 L 452.17 449.44 L 453.64 449.23 L 455.11 449.35 L 456.58 449.39 L 458.06 449.24 L 459.53 449.38 L 461.00 449.31 L 462.47 449.26 L 463.94 449.28 L 465.42 449.36 L 466.89 449.22 L 468.36 449.33 L 469.83 449.36 L 471.31 449.31 L 472.78 449.36 L 474.25 449.33 L 475.72 449.34 L 477.19 449.32 L 478.67 449.33 L 480.14 449.36 L 481.61 449.30 L 483.08 449.29 L 484.56 449.38 L 486.03 449.35 L 487.50 449.30 L 488.97 449.32 L 490.44 449.31 L 491.92 449.36 L 493.39 449.34 L 494.86 449.29 L 496.33 449.38 L 497.81 449.31 L 499.28 449.35 L 500.75 449.33 L 502.22 449.32 L 503.69 449.34 L 505.17 449.34 L 506.64 449.28 L 508.11 449.33 L 509.58 449.33 L 511.06 449.33 L 512.53 449.28 L 514.00 449.34 L 515.47 449.36 L 516.94 449.34 L 518.42 449.31 L 519.89 449.32 L 521.36 449.37 L 522.83 449.30 L 524.31 449.28 L 525.78 449.29 L 527.25 449.29 L 528.72 449.32 L 530.19 449.25 L 531.67 449.26 L 533.14 449.29 L 534.61 449.30 L 536.08 449.29 L 537.56 449.32 L 539.03 449.30 L 540.50 449.27 L 541.97 449.32 L 543.44 449.27 L 544.92 449.29 L 546.39 449.30 L 547.86 449.29 L 549.33 449.24 L 550.81 449.31 L 552.28 449.28 L 553.75 449.31 L 555.22 449.31 L 556.69 449.22 L 558.17 449.32 L 559.64 449.31 L 561.11 449.29 L 562.58 449.24 L 564.06 449.27 L 565.53 449.29 L 567.00 449.28 L 568.47 449.27 L 569.94 449.26 L 571.42 449.32 L 572.89 449.27 L 574.36 449.30 L 575.83 449.27 L 577.31 449.28 L 578.78 449.31 L 580.25 449.27 L 581.72 449.28 L 583.19 449.37 L 584.67 449.30 L 586.14 449.26 L 587.61 449.32 L 589.08 449.31 L 590.56 449.35 L 592.03 449.30 L 593.50 449.26 L 594.97 449.36 L 596.44 449.33 L 597.92 449.29 L 599.39 449.36 L 600.86 449.31 L 602.33 449.34 L 603.81 449.31 L 605.28 449.28 L 606.75 449.31 L 608.22 449.34 L 609.69 449.26 L 611.17 449.31 L 612.64 449.32 L 614.11 449.27 L 615.58 449.36 L 617.06 449.31 L 618.53 449.28 L 620.00 449.33 L 621.47 449.32 L 622.94 449.30 L 624.42 449.29 L 625.89 449.36 L 627.36 449.34 L 628.83 449.32 L 630.31 449.28 L 631.78 449.35 L 633.25 449.33 L 634.72 449.30 L 636.19 449.30 L 637.67 449.29 L 639.14 449.33 L 640.61 449.30 L 642.08 449.31 L 643.56 449.28 L 645.03 449.36 L 646.50 449.31 L 647.97 449.31 L 649.44 449.30 L 650.92 449.31 L 652.39 449.34 L 653.86 449.27 L 655.33 449.35 L 656.81 449.30 L 658.28 449.35 L 659.75 449.29 L 661.22 449.33 L 662.69 449.31 L 664.17 449.36 L 665.64 449.28 L 667.11 449.29 L 668.58 449.32 L 670.06 449.32 L 671.53 449.32 L 673.00 449.25 L 674.47 449.28 L 675.94 449.34 L 677.42 449.31 L 678.89 449.32 L 680.36 449.27 L 681.83 449.27 L 683.31 449.33 L 684.78 449.30 L 686.25 449.30 L 687.72 449.30 L 689.19 449.30 L 690.67 449.30 L 692.14 449.33 L 693.61 449.23 L 695.08 449.32 L 696.56 449.34 L 698.03 449.30 L 699.50 449.28 L 700.97 449.31 L 702.44 449.31 L 703.92 449.37 L 705.39 449.29 L 706.86 449.39 L 708.33 449.30 L 709.81 449.27 L 711.28 449.32 L 712.75 449.30 L 714.22 449.34 L 715.69 449.36 L 717.17 449.26 L 718.64 449.29 L 720.11 449.32 L 721.58 449.27 L 723.06 449.30 L 724.53 449.29 L 726.00 449.27 L 727.47 449.32 L 728.94 449.30 L 730.42 449.29 L 731.89 449.29 L 733.36 449.32 L 734.83 449.30 L 736.31 449.32 L 737.78 449.34 L 739.25 449.33 L 740.72 449.30 L 742.19 449.28 L 743.67 449.35 L 745.14 449.30 L 746.61 449.34 L 748.08 449.34 L 749.56 449.38 L 751.03 449.30 L 752.50 449.34 L 753.97 449.35 L 755.44 449.29 L 756.92 449.36 L 758.39 449.33 L 759.86 449.31 L 761.33 449.33 L 762.81 449.32 L 764.28 449.38 L 765.75 449.36 L 767.22 449.28 L 768.69 449.33 L 770.17 449.30 L 771.64 449.28 L 773.11 449.30 L 774.58 449.36 L 776.06 449.28 L 777.53 449.30 L 779.00 449.22 L 780.47 449.33 L 781.94 449.33 L 783.42 449.29 L 784.89 449.29 L 786.36 449.30 L 787.83 449.34 L 789.31 449.28 L 790.78 449.27 L 792.25 449.30 L 793.72 449.36 L 795.19 449.23 L 796.67 449.28 L 798.14 449.26 L 799.61 449.32 L 801.08 449.31 L 802.56 449.28 L 804.03 449.28 L 805.50 449.38 L 806.97 449.34 L 808.44 449.25 L 809.92 449.35 L 811.39 449.31 L 812.86 449.35 L 814.33 449.29 L 815.81 449.26 L 817.28 449.35 L 818.75 449.29 L 820.22 449.26 L 821.69 449.31 L 823.17 449.32 L 824.64 449.35 L 826.11 449.26 L 827.58 449.30 L 829.06 449.34 L 830.53 449.29 L 832.00 449.54 L 833.47 452.63 L 834.94 460.37 L 836.42 456.77 L 837.89 460.49 L 839.36 441.40 L 840.83 468.95 L 842.31 469.83 L 843.78 446.82 L 845.25 455.73 L 846.72 448.37 L 848.19 464.17 L 849.67 453.32 L 851.14 458.70 L 852.61 448.83 L 854.08 444.32 L 855.56 447.74 L 857.03 453.05 L 858.50 448.33 L 859.97 451.75 L 861.44 459.94 L 862.92 460.70 L 864.39 456.40 L 865.86 461.25 L 867.33 455.94 L 868.81 456.31 L 870.28 462.50 L 871.75 462.45 L 873.22 457.21 L 874.69 454.94 L 876.17 456.06 L 877.64 455.85 L 879.11 456.65 L 880.58 456.02 L 882.06 456.46 L 883.53 456.25 L 885.00 456.41 L 886.47 456.37 L 887.94 456.25 L 889.42 456.36 L 890.89 456.26 L 892.36 456.27 L 893.83 456.30 L 895.31 456.32 L 896.78 456.22 L 898.25 455.98 L 899.72 457.71 L 901.19 456.16 L 902.67 456.04 L 904.14 457.45 L 905.61 457.42 L 907.08 458.35 L 908.56 456.49 L 910.03 457.37 L 911.50 457.15 L 912.97 457.16 L 914.44 457.33 L 915.92 457.23 L 917.39 457.24 L 918.86 457.28 L 920.33 457.20 L 921.81 457.26 L 923.28 457.22 L 924.75 457.23 L 926.22 457.24 L 927.69 457.31 L 929.17 456.55 L 930.64 459.03 L 932.11 458.49 L 933.58 456.48 L 935.06 454.78 L 936.53 456.19 L 938.00 455.96 L 939.47 456.43 L 940.94 456.15 L 942.42 456.20 L 943.89 456.54 L 945.36 456.47 L 946.83 453.23 L 948.31 455.47 L 949.78 457.78 L 951.25 455.69 L 952.72 457.09 L 954.19 456.02 L 955.67 456.50 L 957.14 456.43 L 958.61 456.28 L 960.08 456.58 L 961.56 456.31 L 963.03 456.55 L 964.50 455.07 L 965.97 455.07 L 967.44 451.00 L 968.92 451.58 L 970.39 451.57 L 971.86 450.40 L 973.33 451.85 L 974.81 448.52 L 976.28 449.63 L 977.75 450.26 L 979.22 449.78 L 980.69 450.07 L 982.17 449.37 L 983.64 450.34 L 985.11 449.74 L 986.58 450.67 L 988.06 449.42 L 989.53 447.76 L 991.00 446.72 L 992.47 446.69 L 993.94 448.07 L 995.42 448.10 L 996.89 447.54 L 998.36 448.09 L 999.83 447.55 L 1001.31 447.96 L 1002.78 447.73 L 1004.25 447.86 L 1005.72 447.77 L 1007.19 447.86 L 1008.67 447.83 L 1010.14 447.82 L 1011.61 447.77 L 1013.08 447.84 L 1014.56 447.78 L 1016.03 447.88 L 1017.50 447.80 L 1018.97 447.79 L 1020.44 447.84 L 1021.92 448.05 L 1023.39 447.52 L 1024.86 447.83 L 1026.33 447.74 L 1027.81 448.25 L 1029.28 448.26 L 1030.75 447.71 L 1032.22 447.92 L 1033.69 448.06 L 1035.17 447.91 L 1036.64 447.85 L 1038.11 448.02 L 1039.58 447.99 L 1041.06 447.93 L 1042.53 447.97 L 1044.00 447.97 L 1045.47 447.93 L 1046.94 447.94 L 1048.42 447.88 L 1049.89 447.93 L 1051.36 447.96 L 1052.83 447.95 L 1054.31 447.87 L 1055.78 448.00 L 1057.25 448.11 L 1058.72 447.67 L 1060.19 447.66 L 1061.67 447.84 L 1063.14 447.74 L 1064.61 447.77 L 1066.08 447.74 L 1067.56 447.77 L 1069.03 447.81 L 1070.50 447.72 L 1071.97 447.79 L 1073.44 447.73 L 1074.92 447.83 L 1076.39 447.75 L 1077.86 447.73 L 1079.33 447.76 L 1080.81 447.78 L 1082.28 447.78 L 1083.75 447.78 L 1085.22 447.73 L 1086.69 447.82 L 1088.17 447.76 L 1089.64 447.78 L 1091.11 447.78 L 1092.58 447.73 L 1094.06 447.82 L 1095.53 447.74 L 1097.00 447.78 L 1098.47 447.78 L 1099.94 447.75 L 1101.42 447.83 L 1102.89 447.74" stroke="#6A1B9A" />
<line x1="900.00" y1="307.75" x2="918.00" y2="307.75" stroke="#2E7D32" stroke-width="3" />
<text class="small" x="924.00" y="311.75">pitch</text>
<line x1="900.00" y1="323.75" x2="918.00" y2="323.75" stroke="#6A1B9A" stroke-width="3" />
<text class="small" x="924.00" y="327.75">roll</text>
<text x="90" y="500.50" font-size="14" font-weight="700">Aceleração (magnitude) (u.a.)</text>
<rect class="event" x="443.33" y="506.50" width="394.56" height="192.75" />
<line class="eventline" x1="443.33" y1="506.50" x2="443.33" y2="699.25" />
<line class="eventline" x1="837.89" y1="506.50" x2="837.89" y2="699.25" />
<line class="grid" x1="90" y1="699.25" x2="1150" y2="699.25" />
<text class="small" x="80" y="703.25" text-anchor="end">0.00</text>
<line class="grid" x1="90" y1="660.70" x2="1150" y2="660.70" />
<text class="small" x="80" y="664.70" text-anchor="end">0.50</text>
<line class="grid" x1="90" y1="622.15" x2="1150" y2="622.15" />
<text class="small" x="80" y="626.15" text-anchor="end">1.00</text>
<line class="grid" x1="90" y1="583.60" x2="1150" y2="583.60" />
<text class="small" x="80" y="587.60" text-anchor="end">1.50</text>
<line class="grid" x1="90" y1="545.05" x2="1150" y2="545.05" />
<text class="small" x="80" y="549.05" text-anchor="end">2.00</text>
<line class="grid" x1="90" y1="506.50" x2="1150" y2="506.50" />
<text class="small" x="80" y="510.50" text-anchor="end">2.50</text>
<line class="grid" x1="90.00" y1="506.50" x2="90.00" y2="699.25" />
<line class="grid" x1="266.67" y1="506.50" x2="266.67" y2="699.25" />
<line class="grid" x1="443.33" y1="506.50" x2="443.33" y2="699.25" />
<line class="grid" x1="620.00" y1="506.50" x2="620.00" y2="699.25" />
<line class="grid" x1="796.67" y1="506.50" x2="796.67" y2="699.25" />
<line class="grid" x1="973.33" y1="506.50" x2="973.33" y2="699.25" />
<line class="grid" x1="1150.00" y1="506.50" x2="1150.00" y2="699.25" />
<line class="axis" x1="90" y1="506.50" x2="90" y2="699.25" />
<line class="axis" x1="90" y1="699.25" x2="1150" y2="699.25" />
<path class="series" d="M 178.33 679.20 L 179.81 674.43 L 181.28 674.81 L 182.75 665.16 L 184.22 677.79 L 185.69 686.68 L 187.17 671.17 L 188.64 684.41 L 190.11 692.77 L 191.58 674.56 L 193.06 684.13 L 194.53 683.77 L 196.00 688.27 L 197.47 693.31 L 198.94 687.64 L 200.42 685.69 L 201.89 677.31 L 203.36 672.71 L 204.83 673.99 L 206.31 689.43 L 207.78 692.95 L 209.25 679.53 L 210.72 681.19 L 212.19 667.66 L 213.67 675.33 L 215.14 640.59 L 216.61 674.10 L 218.08 675.61 L 219.56 681.08 L 221.03 691.39 L 222.50 684.64 L 223.97 682.53 L 225.44 666.37 L 226.92 676.61 L 228.39 673.50 L 229.86 676.66 L 231.33 649.96 L 232.81 649.96 L 234.28 685.17 L 235.75 687.58 L 237.22 651.69 L 238.69 663.98 L 240.17 634.24 L 241.64 670.49 L 243.11 642.07 L 244.58 660.99 L 246.06 683.98 L 247.53 689.31 L 249.00 661.14 L 250.47 672.04 L 251.94 675.55 L 253.42 681.10 L 254.89 686.05 L 256.36 692.14 L 257.83 697.71 L 259.31 685.77 L 260.78 689.78 L 262.25 681.95 L 263.72 689.44 L 265.19 691.13 L 266.67 695.50 L 268.14 682.38 L 269.61 686.98 L 271.08 696.04 L 272.56 693.27 L 274.03 696.20 L 275.50 694.51 L 276.97 697.38 L 278.44 689.67 L 279.92 682.55 L 281.39 693.03 L 282.86 696.01 L 284.33 697.68 L 285.81 691.74 L 287.28 696.81 L 288.75 685.80 L 290.22 685.79 L 291.69 688.25 L 293.17 664.56 L 294.64 679.38 L 296.11 674.03 L 297.58 667.20 L 299.06 683.89 L 300.53 684.01 L 302.00 675.76 L 303.47 670.13 L 304.94 687.98 L 306.42 691.35 L 307.89 667.80 L 309.36 641.58 L 310.83 674.02 L 312.31 691.28 L 313.78 680.32 L 315.25 654.44 L 316.72 665.16 L 318.19 676.88 L 319.67 660.41 L 321.14 660.64 L 322.61 658.38 L 324.08 623.97 L 325.56 674.10 L 327.03 667.19 L 328.50 661.82 L 329.97 648.69 L 331.44 668.92 L 332.92 682.84 L 334.39 691.78 L 335.86 679.22 L 337.33 679.55 L 338.81 661.30 L 340.28 653.74 L 341.75 679.68 L 343.22 670.55 L 344.69 673.67 L 346.17 648.92 L 347.64 638.56 L 349.11 681.29 L 350.58 678.05 L 352.06 684.11 L 353.53 691.51 L 355.00 677.08 L 356.47 670.05 L 357.94 671.58 L 359.42 680.04 L 360.89 682.27 L 362.36 684.08 L 363.83 683.92 L 365.31 675.25 L 366.78 654.95 L 368.25 674.45 L 369.72 678.30 L 371.19 669.48 L 372.67 675.50 L 374.14 686.62 L 375.61 682.57 L 377.08 682.20 L 378.56 676.25 L 380.03 682.12 L 381.50 680.33 L 382.97 678.12 L 384.44 668.40 L 385.92 679.96 L 387.39 677.97 L 388.86 682.65 L 390.33 678.32 L 391.81 683.40 L 393.28 681.47 L 394.75 684.62 L 396.22 685.73 L 397.69 688.94 L 399.17 681.27 L 400.64 666.95 L 402.11 674.42 L 403.58 681.67 L 405.06 680.79 L 406.53 688.48 L 408.00 662.12 L 409.47 680.31 L 410.94 674.88 L 412.42 682.84 L 413.89 682.84 L 415.36 679.11 L 416.83 684.96 L 418.31 677.32 L 419.78 694.35 L 421.25 682.41 L 422.72 691.48 L 424.19 683.61 L 425.67 690.16 L 427.14 661.01 L 428.61 681.59 L 430.08 685.68 L 431.56 690.55 L 433.03 688.82 L 434.50 682.64 L 435.97 690.50 L 437.44 685.98 L 438.92 689.62 L 440.39 693.83 L 441.86 681.28 L 443.33 653.27 L 444.81 686.27 L 446.28 693.76 L 447.75 698.21 L 449.22 697.84 L 450.69 698.59 L 452.17 698.85 L 453.64 698.30 L 455.11 698.67 L 456.58 698.68 L 458.06 698.45 L 459.53 698.65 L 461.00 698.60 L 462.47 698.61 L 463.94 698.60 L 465.42 698.63 L 466.89 698.50 L 468.36 698.47 L 469.83 698.59 L 471.31 698.77 L 472.78 698.70 L 474.25 698.43 L 475.72 698.52 L 477.19 698.70 L 478.67 698.61 L 480.14 698.59 L 481.61 698.59 L 483.08 698.50 L 484.56 698.64 L 486.03 698.56 L 487.50 698.89 L 488.97 699.09 L 490.44 699.12 L 491.92 698.87 L 493.39 699.05 L 494.86 698.87 L 496.33 698.88 L 497.81 699.01 L 499.28 699.15 L 500.75 699.14 L 502.22 699.01 L 503.69 699.07 L 505.17 699.08 L 506.64 699.06 L 508.11 699.19 L 509.58 699.19 L 511.06 699.03 L 512.53 699.08 L 514.00 699.02 L 515.47 699.16 L 516.94 699.02 L 518.42 699.19 L 519.89 699.14 L 521.36 699.06 L 522.83 699.20 L 524.31 699.08 L 525.78 699.18 L 527.25 699.03 L 528.72 699.11 L 530.19 698.93 L 531.67 699.14 L 533.14 698.98 L 534.61 699.11 L 536.08 699.07 L 537.56 699.12 L 539.03 698.76 L 540.50 698.95 L 541.97 699.11 L 543.44 699.02 L 544.92 699.11 L 546.39 699.10 L 547.86 699.01 L 549.33 699.03 L 550.81 699.17 L 552.28 698.97 L 553.75 699.12 L 555.22 699.04 L 556.69 699.12 L 558.17 699.08 L 559.64 699.20 L 561.11 699.10 L 562.58 699.16 L 564.06 699.13 L 565.53 699.01 L 567.00 699.02 L 568.47 699.15 L 569.94 699.07 L 571.42 699.09 L 572.89 699.19 L 574.36 699.19 L 575.83 698.94 L 577.31 699.08 L 578.78 699.08 L 580.25 699.07 L 581.72 699.09 L 583.19 699.01 L 584.67 699.01 L 586.14 698.98 L 587.61 699.07 L 589.08 699.05 L 590.56 699.05 L 592.03 699.13 L 593.50 699.11 L 594.97 699.16 L 596.44 698.94 L 597.92 698.96 L 599.39 699.10 L 600.86 698.94 L 602.33 699.09 L 603.81 699.11 L 605.28 699.15 L 606.75 699.03 L 608.22 698.93 L 609.69 698.93 L 611.17 699.15 L 612.64 699.17 L 614.11 699.09 L 615.58 698.79 L 617.06 698.91 L 618.53 699.03 L 620.00 699.12 L 621.47 699.05 L 622.94 698.98 L 624.42 699.06 L 625.89 699.18 L 627.36 699.10 L 628.83 699.07 L 630.31 699.00 L 631.78 698.88 L 633.25 698.99 L 634.72 699.08 L 636.19 699.08 L 637.67 699.13 L 639.14 699.10 L 640.61 699.10 L 642.08 699.20 L 643.56 698.97 L 645.03 698.91 L 646.50 698.94 L 647.97 699.11 L 649.44 699.06 L 650.92 699.18 L 652.39 699.16 L 653.86 699.00 L 655.33 699.04 L 656.81 699.07 L 658.28 698.98 L 659.75 699.12 L 661.22 699.14 L 662.69 698.88 L 664.17 699.05 L 665.64 699.10 L 667.11 699.14 L 668.58 699.20 L 670.06 699.07 L 671.53 699.03 L 673.00 699.00 L 674.47 699.11 L 675.94 699.17 L 677.42 699.17 L 678.89 699.12 L 680.36 699.15 L 681.83 699.16 L 683.31 699.17 L 684.78 699.17 L 686.25 699.13 L 687.72 699.19 L 689.19 699.07 L 690.67 698.88 L 692.14 699.07 L 693.61 699.16 L 695.08 699.07 L 696.56 699.15 L 698.03 699.11 L 699.50 699.18 L 700.97 699.04 L 702.44 699.04 L 703.92 699.06 L 705.39 699.03 L 706.86 699.06 L 708.33 699.09 L 709.81 699.07 L 711.28 699.22 L 712.75 699.14 L 714.22 699.07 L 715.69 699.09 L 717.17 699.11 L 718.64 699.14 L 720.11 699.14 L 721.58 698.90 L 723.06 699.06 L 724.53 699.05 L 726.00 699.02 L 727.47 699.08 L 728.94 699.03 L 730.42 698.96 L 731.89 699.10 L 733.36 699.10 L 734.83 699.01 L 736.31 699.10 L 737.78 699.09 L 739.25 699.03 L 740.72 698.89 L 742.19 698.89 L 743.67 699.16 L 745.14 699.07 L 746.61 699.21 L 748.08 698.99 L 749.56 699.16 L 751.03 699.16 L 752.50 699.19 L 753.97 698.92 L 755.44 699.16 L 756.92 698.95 L 758.39 699.06 L 759.86 699.10 L 761.33 699.19 L 762.81 698.87 L 764.28 699.08 L 765.75 698.94 L 767.22 698.96 L 768.69 699.10 L 770.17 699.05 L 771.64 698.98 L 773.11 699.09 L 774.58 699.02 L 776.06 698.92 L 777.53 699.00 L 779.00 699.02 L 780.47 699.08 L 781.94 698.98 L 783.42 698.86 L 784.89 698.99 L 786.36 698.97 L 787.83 699.07 L 789.31 699.09 L 790.78 698.96 L 792.25 699.01 L 793.72 699.08 L 795.19 699.13 L 796.67 699.03 L 798.14 698.88 L 799.61 698.89 L 801.08 699.03 L 802.56 699.19 L 804.03 699.15 L 805.50 698.88 L 806.97 699.11 L 808.44 699.03 L 809.92 698.95 L 811.39 697.44 L 812.86 698.84 L 814.33 698.80 L 815.81 698.97 L 817.28 699.09 L 818.75 699.01 L 820.22 699.12 L 821.69 698.99 L 823.17 698.98 L 824.64 699.01 L 826.11 699.03 L 827.58 699.15 L 829.06 699.13 L 830.53 699.04 L 832.00 698.37 L 833.47 668.94 L 834.94 672.27 L 836.42 690.26 L 837.89 666.85 L 839.36 647.90 L 840.83 608.55 L 842.31 577.46 L 843.78 616.32 L 845.25 644.41 L 846.72 673.82 L 848.19 646.61 L 849.67 685.14 L 851.14 662.12 L 852.61 658.85 L 854.08 658.85 L 855.56 682.53 L 857.03 679.40 L 858.50 665.72 L 859.97 691.41 L 861.44 669.40 L 862.92 683.71 L 864.39 679.59 L 865.86 683.53 L 867.33 678.88 L 868.81 680.94 L 870.28 691.84 L 871.75 694.83 L 873.22 694.43 L 874.69 682.07 L 876.17 681.04 L 877.64 695.72 L 879.11 698.08 L 880.58 699.00 L 882.06 698.76 L 883.53 698.75 L 885.00 698.61 L 886.47 698.09 L 887.94 698.52 L 889.42 698.96 L 890.89 699.07 L 892.36 699.06 L 893.83 699.14 L 895.31 698.98 L 896.78 697.51 L 898.25 696.89 L 899.72 685.19 L 901.19 676.17 L 902.67 685.69 L 904.14 697.51 L 905.61 697.51 L 907.08 697.30 L 908.56 697.47 L 910.03 697.91 L 911.50 698.99 L 912.97 698.78 L 914.44 699.14 L 915.92 699.19 L 917.39 699.19 L 918.86 699.03 L 920.33 699.07 L 921.81 699.16 L 923.28 699.11 L 924.75 699.15 L 926.22 699.11 L 927.69 699.10 L 929.17 698.99 L 930.64 690.81 L 932.11 686.73 L 933.58 693.10 L 935.06 686.89 L 936.53 691.19 L 938.00 695.48 L 939.47 697.10 L 940.94 698.44 L 942.42 698.84 L 943.89 699.06 L 945.36 697.64 L 946.83 680.13 L 948.31 685.76 L 949.78 668.45 L 951.25 683.31 L 952.72 690.04 L 954.19 697.30 L 955.67 698.61 L 957.14 699.05 L 958.61 698.73 L 960.08 698.61 L 961.56 698.79 L 963.03 698.57 L 964.50 682.61 L 965.97 681.46 L 967.44 693.21 L 968.92 694.62 L 970.39 694.03 L 971.86 690.12 L 973.33 692.82 L 974.81 691.86 L 976.28 695.53 L 977.75 692.73 L 979.22 682.48 L 980.69 679.31 L 982.17 697.16 L 983.64 693.34 L 985.11 698.19 L 986.58 687.69 L 988.06 671.63 L 989.53 687.34 L 991.00 692.58 L 992.47 696.17 L 993.94 698.08 L 995.42 697.71 L 996.89 698.59 L 998.36 699.16 L 999.83 699.12 L 1001.31 698.91 L 1002.78 699.16 L 1004.25 699.07 L 1005.72 699.10 L 1007.19 698.97 L 1008.67 699.01 L 1010.14 698.97 L 1011.61 698.97 L 1013.08 699.11 L 1014.56 699.11 L 1016.03 699.04 L 1017.50 699.14 L 1018.97 699.18 L 1020.44 698.85 L 1021.92 698.11 L 1023.39 696.35 L 1024.86 691.57 L 1026.33 696.19 L 1027.81 698.16 L 1029.28 698.65 L 1030.75 698.58 L 1032.22 698.72 L 1033.69 699.07 L 1035.17 698.86 L 1036.64 699.05 L 1038.11 698.96 L 1039.58 699.07 L 1041.06 699.00 L 1042.53 699.01 L 1044.00 699.08 L 1045.47 699.01 L 1046.94 699.04 L 1048.42 699.10 L 1049.89 699.15 L 1051.36 699.05 L 1052.83 698.97 L 1054.31 698.58 L 1055.78 694.71 L 1057.25 693.71 L 1058.72 696.89 L 1060.19 697.32 L 1061.67 698.66 L 1063.14 698.85 L 1064.61 698.94 L 1066.08 698.99 L 1067.56 699.07 L 1069.03 699.07 L 1070.50 699.07 L 1071.97 698.94 L 1073.44 699.15 L 1074.92 699.05 L 1076.39 699.05 L 1077.86 698.99 L 1079.33 699.04 L 1080.81 699.19 L 1082.28 699.11 L 1083.75 699.03 L 1085.22 699.05 L 1086.69 698.81 L 1088.17 699.12 L 1089.64 699.05 L 1091.11 699.15 L 1092.58 699.08 L 1094.06 699.17 L 1095.53 699.05 L 1097.00 699.02 L 1098.47 699.18 L 1099.94 699.17 L 1101.42 699.11 L 1102.89 699.03" stroke="#FB8C00" />
<text x="90" y="711.25" font-size="14" font-weight="700">Giroscópio (magnitude) (u.a.)</text>
<rect class="event" x="443.33" y="717.25" width="394.56" height="192.75" />
<line class="eventline" x1="443.33" y1="717.25" x2="443.33" y2="910.00" />
<line class="eventline" x1="837.89" y1="717.25" x2="837.89" y2="910.00" />
<line class="grid" x1="90" y1="910.00" x2="1150" y2="910.00" />
<text class="small" x="80" y="914.00" text-anchor="end">0.00</text>
<line class="grid" x1="90" y1="871.45" x2="1150" y2="871.45" />
<text class="small" x="80" y="875.45" text-anchor="end">0.10</text>
<line class="grid" x1="90" y1="832.90" x2="1150" y2="832.90" />
<text class="small" x="80" y="836.90" text-anchor="end">0.20</text>
<line class="grid" x1="90" y1="794.35" x2="1150" y2="794.35" />
<text class="small" x="80" y="798.35" text-anchor="end">0.30</text>
<line class="grid" x1="90" y1="755.80" x2="1150" y2="755.80" />
<text class="small" x="80" y="759.80" text-anchor="end">0.40</text>
<line class="grid" x1="90" y1="717.25" x2="1150" y2="717.25" />
<text class="small" x="80" y="721.25" text-anchor="end">0.50</text>
<line class="grid" x1="90.00" y1="717.25" x2="90.00" y2="910.00" />
<line class="grid" x1="266.67" y1="717.25" x2="266.67" y2="910.00" />
<line class="grid" x1="443.33" y1="717.25" x2="443.33" y2="910.00" />
<line class="grid" x1="620.00" y1="717.25" x2="620.00" y2="910.00" />
<line class="grid" x1="796.67" y1="717.25" x2="796.67" y2="910.00" />
<line class="grid" x1="973.33" y1="717.25" x2="973.33" y2="910.00" />
<line class="grid" x1="1150.00" y1="717.25" x2="1150.00" y2="910.00" />
<line class="axis" x1="90" y1="717.25" x2="90" y2="910.00" />
<line class="axis" x1="90" y1="910.00" x2="1150" y2="910.00" />
<path class="series" d="M 178.33 890.96 L 179.81 886.61 L 181.28 875.15 L 182.75 877.47 L 184.22 876.56 L 185.69 876.91 L 187.17 894.93 L 188.64 898.30 L 190.11 886.82 L 191.58 894.56 L 193.06 897.31 L 194.53 900.03 L 196.00 904.15 L 197.47 903.82 L 198.94 901.95 L 200.42 896.62 L 201.89 888.71 L 203.36 880.09 L 204.83 875.25 L 206.31 876.52 L 207.78 879.06 L 209.25 874.62 L 210.72 880.48 L 212.19 885.78 L 213.67 899.75 L 215.14 884.89 L 216.61 900.09 L 218.08 893.85 L 219.56 888.75 L 221.03 896.60 L 222.50 902.07 L 223.97 898.43 L 225.44 891.88 L 226.92 898.20 L 228.39 900.87 L 229.86 903.22 L 231.33 905.14 L 232.81 905.14 L 234.28 899.93 L 235.75 902.84 L 237.22 896.99 L 238.69 890.01 L 240.17 892.79 L 241.64 905.09 L 243.11 906.84 L 244.58 904.66 L 246.06 905.92 L 247.53 907.65 L 249.00 908.61 L 250.47 909.46 L 251.94 908.89 L 253.42 908.44 L 254.89 907.33 L 256.36 906.79 L 257.83 906.18 L 259.31 906.61 L 260.78 908.34 L 262.25 907.25 L 263.72 906.58 L 265.19 907.89 L 266.67 908.79 L 268.14 907.20 L 269.61 901.54 L 271.08 904.30 L 272.56 905.04 L 274.03 905.46 L 275.50 905.31 L 276.97 906.66 L 278.44 906.36 L 279.92 904.14 L 281.39 906.88 L 282.86 907.41 L 284.33 908.38 L 285.81 908.86 L 287.28 907.72 L 288.75 908.68 L 290.22 905.22 L 291.69 899.27 L 293.17 901.45 L 294.64 905.33 L 296.11 895.79 L 297.58 900.23 L 299.06 901.21 L 300.53 892.73 L 302.00 888.19 L 303.47 889.79 L 304.94 888.47 L 306.42 890.85 L 307.89 880.68 L 309.36 893.01 L 310.83 879.21 L 312.31 890.48 L 313.78 888.65 L 315.25 884.66 L 316.72 881.35 L 318.19 880.96 L 319.67 890.53 L 321.14 890.78 L 322.61 894.02 L 324.08 880.56 L 325.56 871.14 L 327.03 900.10 L 328.50 891.55 L 329.97 890.65 L 331.44 880.15 L 332.92 886.18 L 334.39 886.75 L 335.86 898.47 L 337.33 895.78 L 338.81 902.06 L 340.28 888.44 L 341.75 889.97 L 343.22 898.40 L 344.69 897.12 L 346.17 903.19 L 347.64 899.93 L 349.11 891.74 L 350.58 886.14 L 352.06 886.24 L 353.53 888.07 L 355.00 899.30 L 356.47 897.81 L 357.94 906.97 L 359.42 898.73 L 360.89 908.10 L 362.36 891.16 L 363.83 904.55 L 365.31 904.64 L 366.78 896.96 L 368.25 894.62 L 369.72 895.14 L 371.19 893.66 L 372.67 903.53 L 374.14 899.72 L 375.61 889.93 L 377.08 907.05 L 378.56 899.56 L 380.03 901.71 L 381.50 905.25 L 382.97 898.23 L 384.44 892.75 L 385.92 908.33 L 387.39 895.97 L 388.86 899.62 L 390.33 900.97 L 391.81 908.27 L 393.28 903.51 L 394.75 904.31 L 396.22 905.87 L 397.69 904.32 L 399.17 907.35 L 400.64 904.72 L 402.11 904.03 L 403.58 887.73 L 405.06 874.34 L 406.53 867.69 L 408.00 875.55 L 409.47 882.88 L 410.94 882.98 L 412.42 884.35 L 413.89 884.35 L 415.36 881.26 L 416.83 882.53 L 418.31 887.07 L 419.78 894.10 L 421.25 896.12 L 422.72 895.62 L 424.19 894.91 L 425.67 901.43 L 427.14 893.03 L 428.61 888.32 L 430.08 893.64 L 431.56 888.35 L 433.03 887.17 L 434.50 884.95 L 435.97 891.50 L 437.44 897.39 L 438.92 897.98 L 440.39 898.92 L 441.86 899.87 L 443.33 905.58 L 444.81 908.40 L 446.28 908.95 L 447.75 909.16 L 449.22 909.07 L 450.69 909.23 L 452.17 909.17 L 453.64 909.14 L 455.11 909.10 L 456.58 909.12 L 458.06 909.26 L 459.53 909.15 L 461.00 909.21 L 462.47 909.15 L 463.94 909.19 L 465.42 909.17 L 466.89 909.20 L 468.36 909.17 L 469.83 909.15 L 471.31 909.12 L 472.78 909.15 L 474.25 909.19 L 475.72 909.22 L 477.19 909.11 L 478.67 909.20 L 480.14 909.18 L 481.61 909.24 L 483.08 909.22 L 484.56 909.14 L 486.03 909.19 L 487.50 909.88 L 488.97 909.93 L 490.44 909.92 L 491.92 909.89 L 493.39 909.89 L 494.86 909.91 L 496.33 909.97 L 497.81 909.95 L 499.28 909.96 L 500.75 909.98 L 502.22 909.93 L 503.69 909.91 L 505.17 909.95 L 506.64 909.94 L 508.11 909.95 L 509.58 909.93 L 511.06 909.95 L 512.53 909.95 L 514.00 909.91 L 515.47 909.92 L 516.94 909.88 L 518.42 909.91 L 519.89 909.94 L 521.36 909.96 L 522.83 909.90 L 524.31 909.95 L 525.78 909.88 L 527.25 909.94 L 528.72 909.92 L 530.19 909.86 L 531.67 909.91 L 533.14 909.88 L 534.61 909.86 L 536.08 909.97 L 537.56 909.97 L 539.03 909.97 L 540.50 909.97 L 541.97 909.94 L 543.44 909.93 L 544.92 909.94 L 546.39 909.92 L 547.86 909.93 L 549.33 909.97 L 550.81 909.95 L 552.28 909.98 L 553.75 909.94 L 555.22 909.89 L 556.69 909.89 L 558.17 909.97 L 559.64 909.94 L 561.11 909.88 L 562.58 909.91 L 564.06 909.91 L 565.53 909.88 L 567.00 909.97 L 568.47 909.90 L 569.94 909.85 L 571.42 909.93 L 572.89 909.95 L 574.36 909.95 L 575.83 909.89 L 577.31 909.92 L 578.78 909.94 L 580.25 909.93 L 581.72 909.94 L 583.19 909.93 L 584.67 909.89 L 586.14 909.91 L 587.61 909.89 L 589.08 909.94 L 590.56 909.92 L 592.03 909.95 L 593.50 909.90 L 594.97 909.92 L 596.44 909.93 L 597.92 909.96 L 599.39 909.92 L 600.86 909.93 L 602.33 909.88 L 603.81 909.92 L 605.28 909.87 L 606.75 909.92 L 608.22 909.89 L 609.69 909.95 L 611.17 909.91 L 612.64 909.87 L 614.11 909.89 L 615.58 909.87 L 617.06 909.90 L 618.53 909.92 L 620.00 909.90 L 621.47 909.83 L 622.94 909.92 L 624.42 909.94 L 625.89 909.83 L 627.36 909.82 L 628.83 909.85 L 630.31 909.87 L 631.78 909.82 L 633.25 909.91 L 634.72 909.86 L 636.19 909.89 L 637.67 909.85 L 639.14 909.94 L 640.61 909.95 L 642.08 909.92 L 643.56 909.89 L 645.03 909.80 L 646.50 909.84 L 647.97 909.87 L 649.44 909.95 L 650.92 909.91 L 652.39 909.89 L 653.86 909.96 L 655.33 909.93 L 656.81 909.88 L 658.28 909.93 L 659.75 909.97 L 661.22 909.91 L 662.69 909.88 L 664.17 909.94 L 665.64 909.91 L 667.11 909.90 L 668.58 909.92 L 670.06 909.93 L 671.53 909.91 L 673.00 909.91 L 674.47 909.87 L 675.94 909.90 L 677.42 909.94 L 678.89 909.94 L 680.36 909.93 L 681.83 909.98 L 683.31 909.91 L 684.78 909.93 L 686.25 909.89 L 687.72 909.96 L 689.19 909.93 L 690.67 909.94 L 692.14 909.96 L 693.61 909.95 L 695.08 909.98 L 696.56 909.94 L 698.03 909.94 L 699.50 909.96 L 700.97 909.97 L 702.44 909.99 L 703.92 909.97 L 705.39 909.93 L 706.86 909.90 L 708.33 909.99 L 709.81 909.92 L 711.28 909.90 L 712.75 909.90 L 714.22 909.92 L 715.69 909.93 L 717.17 909.89 L 718.64 909.89 L 720.11 909.93 L 721.58 909.85 L 723.06 909.90 L 724.53 909.88 L 726.00 909.92 L 727.47 909.89 L 728.94 909.92 L 730.42 909.82 L 731.89 909.96 L 733.36 909.96 L 734.83 909.93 L 736.31 909.92 L 737.78 909.91 L 739.25 909.90 L 740.72 909.95 L 742.19 909.89 L 743.67 909.93 L 745.14 909.95 L 746.61 909.99 L 748.08 909.93 L 749.56 909.97 L 751.03 909.95 L 752.50 909.95 L 753.97 909.93 L 755.44 909.93 L 756.92 909.98 L 758.39 909.94 L 759.86 909.98 L 761.33 909.96 L 762.81 909.92 L 764.28 909.92 L 765.75 909.92 L 767.22 909.96 L 768.69 909.90 L 770.17 909.99 L 771.64 909.92 L 773.11 909.96 L 774.58 909.91 L 776.06 909.96 L 777.53 909.92 L 779.00 909.93 L 780.47 909.98 L 781.94 909.92 L 783.42 909.92 L 784.89 909.96 L 786.36 909.95 L 787.83 909.91 L 789.31 909.94 L 790.78 909.95 L 792.25 909.96 L 793.72 909.94 L 795.19 909.91 L 796.67 909.91 L 798.14 909.95 L 799.61 909.86 L 801.08 909.82 L 802.56 909.83 L 804.03 909.79 L 805.50 909.80 L 806.97 909.82 L 808.44 909.84 L 809.92 909.85 L 811.39 909.73 L 812.86 909.80 L 814.33 909.88 L 815.81 909.82 L 817.28 909.83 L 818.75 909.88 L 820.22 909.86 L 821.69 909.82 L 823.17 909.82 L 824.64 909.87 L 826.11 909.79 L 827.58 909.78 L 829.06 909.83 L 830.53 909.86 L 832.00 909.74 L 833.47 904.27 L 834.94 881.57 L 836.42 865.24 L 837.89 847.51 L 839.36 876.15 L 840.83 865.23 L 842.31 811.09 L 843.78 823.24 L 845.25 862.59 L 846.72 865.84 L 848.19 866.09 L 849.67 845.08 L 851.14 860.78 L 852.61 865.29 L 854.08 884.54 L 855.56 904.29 L 857.03 907.34 L 858.50 907.07 L 859.97 906.54 L 861.44 892.93 L 862.92 891.86 L 864.39 881.09 L 865.86 888.89 L 867.33 896.49 L 868.81 899.07 L 870.28 899.97 L 871.75 901.04 L 873.22 904.84 L 874.69 904.73 L 876.17 909.18 L 877.64 909.91 L 879.11 909.92 L 880.58 909.92 L 882.06 909.92 L 883.53 909.94 L 885.00 909.90 L 886.47 908.91 L 887.94 909.89 L 889.42 909.97 L 890.89 909.97 L 892.36 909.96 L 893.83 909.89 L 895.31 909.94 L 896.78 909.84 L 898.25 909.56 L 899.72 906.71 L 901.19 905.20 L 902.67 909.56 L 904.14 909.65 L 905.61 909.65 L 907.08 909.86 L 908.56 908.75 L 910.03 909.81 L 911.50 909.86 L 912.97 909.94 L 914.44 909.92 L 915.92 909.96 L 917.39 909.92 L 918.86 909.93 L 920.33 909.89 L 921.81 909.95 L 923.28 909.94 L 924.75 909.95 L 926.22 909.93 L 927.69 909.96 L 929.17 909.96 L 930.64 908.85 L 932.11 906.39 L 933.58 906.76 L 935.06 907.70 L 936.53 909.60 L 938.00 909.87 L 939.47 909.90 L 940.94 909.95 L 942.42 909.93 L 943.89 909.91 L 945.36 909.54 L 946.83 907.36 L 948.31 908.15 L 949.78 904.82 L 951.25 908.60 L 952.72 909.39 L 954.19 909.85 L 955.67 909.87 L 957.14 909.85 L 958.61 909.90 L 960.08 909.94 L 961.56 909.94 L 963.03 909.66 L 964.50 907.80 L 965.97 903.01 L 967.44 907.43 L 968.92 907.60 L 970.39 906.24 L 971.86 906.71 L 973.33 907.45 L 974.81 908.46 L 976.28 909.35 L 977.75 909.53 L 979.22 907.61 L 980.69 907.65 L 982.17 909.25 L 983.64 909.84 L 985.11 909.77 L 986.58 907.41 L 988.06 905.91 L 989.53 907.80 L 991.00 909.12 L 992.47 909.04 L 993.94 909.54 L 995.42 909.80 L 996.89 909.84 L 998.36 909.90 L 999.83 909.93 L 1001.31 909.95 L 1002.78 909.92 L 1004.25 909.93 L 1005.72 909.92 L 1007.19 909.96 L 1008.67 909.95 L 1010.14 909.94 L 1011.61 909.92 L 1013.08 909.93 L 1014.56 909.97 L 1016.03 909.95 L 1017.50 909.95 L 1018.97 909.92 L 1020.44 909.84 L 1021.92 909.50 L 1023.39 909.02 L 1024.86 909.31 L 1026.33 909.75 L 1027.81 909.94 L 1029.28 909.92 L 1030.75 909.87 L 1032.22 909.93 L 1033.69 909.95 L 1035.17 909.93 L 1036.64 909.87 L 1038.11 909.97 L 1039.58 909.93 L 1041.06 909.93 L 1042.53 909.97 L 1044.00 909.92 L 1045.47 909.95 L 1046.94 909.97 L 1048.42 909.89 L 1049.89 909.91 L 1051.36 909.94 L 1052.83 909.89 L 1054.31 909.78 L 1055.78 909.42 L 1057.25 908.78 L 1058.72 909.85 L 1060.19 909.97 L 1061.67 909.95 L 1063.14 909.96 L 1064.61 909.92 L 1066.08 909.88 L 1067.56 909.90 L 1069.03 909.90 L 1070.50 909.89 L 1071.97 909.84 L 1073.44 909.88 L 1074.92 909.91 L 1076.39 909.93 L 1077.86 909.90 L 1079.33 909.90 L 1080.81 909.95 L 1082.28 909.94 L 1083.75 909.91 L 1085.22 909.92 L 1086.69 909.92 L 1088.17 909.93 L 1089.64 909.93 L 1091.11 909.96 L 1092.58 909.97 L 1094.06 909.93 L 1095.53 909.96 L 1097.00 909.93 L 1098.47 909.96 L 1099.94 909.98 L 1101.42 909.96 L 1102.89 909.95" stroke="#E53935" />
<text x="620.00" y="952" font-size="15" text-anchor="middle">minutos (relativo ao início do evento)</text>
<text class="small" x="90.00" y="936" text-anchor="middle">-4.00</text>
<text class="small" x="266.67" y="936" text-anchor="middle">-2.00</text>
<text class="small" x="443.33" y="936" text-anchor="middle">0.00</text>
<text class="small" x="620.00" y="936" text-anchor="middle">2.00</text>
<text class="small" x="796.67" y="936" text-anchor="middle">4.00</text>
<text class="small" x="973.33" y="936" text-anchor="middle">6.00</text>
<text class="small" x="1150.00" y="936" text-anchor="middle">8.00</text>
</svg>