<?xml version="1.0" encoding="UTF-8"?>
<svg xmlns="http://www.w3.org/2000/svg" width="1180" height="980" viewBox="0 0 1180 980">
<style>
text { font-family: -apple-system, BlinkMacSystemFont, 'Segoe UI', Roboto, Helvetica, Arial, sans-serif; fill: #111; }
.small { font-size: 12px; fill: #222; }
.title { font-size: 18px; font-weight: 700; }
.axis { stroke: #111; stroke-width: 1.4; }
.grid { stroke: #E6E6E6; stroke-width: 1; }
.event { fill: #FFEB3B; fill-opacity: 0.18; }
.eventline { stroke: #F9A825; stroke-width: 1.2; stroke-dasharray: 4 3; }
.series { fill: none; stroke-width: 1.8; }
</style>
<text class="title" x="90" y="34">ciclo 12 — espera_basculamento — 2025-12-13T00:59:25-03:00 → 2025-12-13T01:00:03-03:00 (span 38s, dur 39s)</text>
<text class="small" x="90" y="54">GPS: -11.692778,-47.165236  hotspot: -11.693,-47.165</text>
<text class="small" x="90" y="70">Janela: -3.00 → 3.63 min (relativo ao início do evento)</text>
<text x="90" y="79.00" font-size="14" font-weight="700">Velocidade (km/h)</text>
<rect class="event" x="443.33" y="85.00" width="55.94" height="192.75" />
<line class="eventline" x1="443.33" y1="85.00" x2="443.33" y2="277.75" />
<line class="eventline" x1="499.28" y1="85.00" x2="499.28" y2="277.75" />
<line class="grid" x1="90" y1="277.75" x2="1150" y2="277.75" />
<text class="small" x="80" y="281.75" text-anchor="end">0.00</text>
<line class="grid" x1="90" y1="239.20" x2="1150" y2="239.20" />
<text class="small" x="80" y="243.20" text-anchor="end">5.00</text>
<line class="grid" x1="90" y1="200.65" x2="1150" y2="200.65" />
<text class="small" x="80" y="204.65" text-anchor="end">10.0</text>
<line class="grid" x1="90" y1="162.10" x2="1150" y2="162.10" />
<text class="small" x="80" y="166.10" text-anchor="end">15.0</text>
<line class="grid" x1="90" y1="123.55" x2="1150" y2="123.55" />
<text class="small" x="80" y="127.55" text-anchor="end">20.0</text>
<line class="grid" x1="90" y1="85.00" x2="1150" y2="85.00" />
<text class="small" x="80" y="89.00" text-anchor="end">25.0</text>
<line class="grid" x1="90.00" y1="85.00" x2="90.00" y2="277.75" />
<line class="grid" x1="266.67" y1="85.00" x2="266.67" y2="277.75" />
<line class="grid" x1="443.33" y1="85.00" x2="443.33" y2="277.75" />
<line class="grid" x1="620.00" y1="85.00" x2="620.00" y2="277.75" />
<line class="grid" x1="796.67" y1="85.00" x2="796.67" y2="277.75" />
<line class="grid" x1="973.33" y1="85.00" x2="973.33" y2="277.75" />
<line class="grid" x1="1150.00" y1="85.00" x2="1150.00" y2="277.75" />
<line class="axis" x1="90" y1="85.00" x2="90" y2="277.75" />
<line class="axis" x1="90" y1="277.75" x2="1150" y2="277.75" />
<path class="series" d="M 178.33 218.63 L 179.81 219.46 L 181.28 220.02 L 182.75 219.46 L 184.22 217.80 L 185.69 218.35 L 187.17 217.52 L 188.64 214.47 L 190.11 216.41 L 191.58 215.02 L 193.06 216.69 L 194.53 215.02 L 196.00 216.96 L 197.47 217.52 L 198.94 216.96 L 200.42 215.30 L 201.89 216.96 L 203.36 217.80 L 204.83 215.02 L 206.31 217.80 L 207.78 221.68 L 209.25 222.52 L 210.72 224.18 L 212.19 220.57 L 213.67 221.96 L 215.14 218.35 L 216.61 217.52 L 218.08 216.96 L 219.56 216.41 L 221.03 217.52 L 222.50 217.52 L 223.97 217.52 L 225.44 215.58 L 226.92 215.85 L 228.39 216.13 L 229.86 216.41 L 231.33 215.30 L 232.81 217.52 L 234.28 217.52 L 235.75 219.18 L 237.22 221.96 L 238.69 221.96 L 240.17 220.02 L 241.64 220.85 L 243.11 218.35 L 244.58 221.13 L 246.06 218.91 L 247.53 218.07 L 249.00 217.80 L 250.47 211.41 L 251.94 213.08 L 253.42 212.25 L 254.89 212.25 L 256.36 217.24 L 257.83 215.02 L 259.31 215.30 L 260.78 212.80 L 262.25 207.80 L 263.72 205.58 L 265.19 193.65 L 266.67 180.88 L 268.14 175.05 L 269.61 163.40 L 271.08 150.63 L 272.56 148.13 L 274.03 147.85 L 275.50 154.24 L 276.97 154.24 L 278.44 148.13 L 279.92 143.69 L 281.39 152.85 L 282.86 154.24 L 284.33 149.52 L 285.81 156.73 L 287.28 154.51 L 288.75 159.23 L 290.22 154.51 L 291.69 160.34 L 293.17 147.85 L 294.64 149.24 L 296.11 161.17 L 297.58 156.18 L 299.06 161.45 L 300.53 165.62 L 302.00 172.00 L 303.47 176.72 L 304.94 184.49 L 306.42 188.65 L 307.89 183.93 L 309.36 188.93 L 310.83 186.99 L 312.31 185.60 L 313.78 185.60 L 315.25 185.04 L 316.72 188.93 L 318.19 186.71 L 319.67 187.82 L 321.14 179.22 L 322.61 182.27 L 324.08 178.94 L 325.56 169.78 L 327.03 167.00 L 328.50 170.06 L 329.97 178.38 L 331.44 175.61 L 332.92 175.33 L 334.39 173.66 L 335.86 176.16 L 337.33 171.72 L 338.81 172.55 L 340.28 180.33 L 341.75 182.27 L 343.22 185.88 L 344.69 183.66 L 346.17 186.99 L 347.64 184.21 L 349.11 199.48 L 350.58 193.65 L 352.06 195.59 L 353.53 197.26 L 355.00 211.14 L 356.47 210.30 L 357.94 221.41 L 359.42 231.95 L 360.89 235.84 L 362.36 258.04 L 363.83 272.48 L 365.31 277.75 L 366.78 277.75 L 368.25 277.75 L 369.72 263.32 L 371.19 253.05 L 372.67 249.72 L 374.14 242.50 L 375.61 241.39 L 377.08 241.11 L 378.56 244.17 L 380.03 244.44 L 381.50 245.28 L 382.97 246.11 L 384.44 248.05 L 385.92 250.27 L 387.39 249.72 L 388.86 250.55 L 390.33 252.77 L 391.81 251.66 L 393.28 248.33 L 394.75 250.83 L 396.22 248.61 L 397.69 248.05 L 399.17 252.21 L 400.64 250.55 L 402.11 250.83 L 403.58 255.55 L 405.06 254.99 L 406.53 250.83 L 408.00 252.21 L 409.47 249.16 L 410.94 247.22 L 412.42 251.38 L 413.89 247.50 L 415.36 249.16 L 416.83 246.66 L 418.31 246.94 L 419.78 257.49 L 421.25 257.77 L 422.72 261.93 L 424.19 264.43 L 425.67 261.65 L 427.14 262.21 L 428.61 256.93 L 430.08 255.27 L 431.56 254.43 L 433.03 257.77 L 434.50 259.99 L 435.97 261.37 L 437.44 260.82 L 438.92 265.54 L 440.39 267.20 L 441.86 268.31 L 443.33 277.75 L 444.81 277.75 L 446.28 277.75 L 447.75 277.75 L 449.22 277.75 L 450.69 277.75 L 452.17 277.75 L 453.64 277.75 L 455.11 277.75 L 456.58 277.75 L 458.06 277.75 L 459.53 277.75 L 461.00 277.75 L 462.47 277.75 L 463.94 277.75 L 465.42 277.75 L 466.89 277.75 L 468.36 277.75 L 469.83 277.75 L 471.31 277.75 L 472.78 277.75 L 474.25 277.75 L 475.72 277.75 L 477.19 277.75 L 478.67 277.75 L 480.14 277.75 L 481.61 277.75 L 483.08 277.75 L 484.56 277.75 L 486.03 277.75 L 487.50 277.75 L 488.97 277.75 L 490.44 277.75 L 491.92 277.75 L 493.39 277.75 L 494.86 277.75 L 496.33 277.75 L 497.81 277.75 L 499.28 277.75 L 500.75 254.99 L 502.22 231.12 L 503.69 241.11 L 505.17 258.32 L 506.64 277.75 L 508.11 277.75 L 509.58 277.75 L 511.06 257.77 L 512.53 252.49 L 514.00 248.33 L 515.47 262.48 L 516.94 277.75 L 518.42 277.75 L 519.89 277.75 L 521.36 277.75 L 522.83 277.75 L 524.31 277.75 L 525.78 277.75 L 527.25 277.75 L 528.72 277.75 L 530.19 277.75 L 531.67 277.75 L 533.14 277.75 L 534.61 277.75 L 536.08 277.75 L 537.56 277.75 L 539.03 277.75 L 540.50 251.94 L 541.97 233.34 L 543.44 221.96 L 544.92 214.74 L 546.39 209.19 L 547.86 210.58 L 549.33 200.31 L 550.81 196.70 L 552.28 196.98 L 553.75 196.42 L 555.22 192.82 L 556.69 189.76 L 558.17 190.04 L 559.64 178.11 L 561.11 173.94 L 562.58 162.56 L 564.06 164.51 L 565.53 161.17 L 567.00 160.62 L 568.47 160.06 L 569.94 165.89 L 571.42 157.01 L 572.89 163.40 L 574.36 169.22 L 575.83 175.89 L 577.31 181.71 L 578.78 181.71 L 580.25 177.83 L 581.72 176.72 L 583.19 176.16 L 584.67 172.83 L 586.14 175.05 L 587.61 173.66 L 589.08 174.50 L 590.56 176.72 L 592.03 174.78 L 593.50 177.55 L 594.97 176.44 L 596.44 176.72 L 597.92 183.38 L 599.39 187.54 L 600.86 187.27 L 602.33 192.82 L 603.81 197.81 L 605.28 196.15 L 606.75 197.54 L 608.22 199.48 L 609.69 216.69 L 611.17 214.19 L 612.64 225.85 L 614.11 237.78 L 615.58 237.78 L 617.06 241.94 L 618.53 247.50 L 620.00 251.38 L 621.47 260.82 L 622.94 262.21 L 624.42 261.93 L 625.89 263.59 L 627.36 277.75 L 628.83 277.75 L 630.31 277.75 L 631.78 277.75 L 633.25 277.75 L 634.72 277.75 L 636.19 277.75 L 637.67 277.75 L 639.14 277.75 L 640.61 277.75 L 642.08 277.75 L 643.56 277.75 L 645.03 277.75 L 646.50 277.75 L 647.97 277.75 L 649.44 277.75 L 650.92 277.75 L 652.39 277.75 L 653.86 277.75 L 655.33 277.75 L 656.81 277.75 L 658.28 277.75 L 659.75 277.75 L 661.22 277.75 L 662.69 277.75 L 664.17 277.75 L 665.64 277.75 L 667.11 277.75 L 668.58 277.75 L 670.06 277.75 L 671.53 277.75 L 673.00 277.75 L 674.47 277.75 L 675.94 277.75 L 677.42 277.75 L 678.89 277.75 L 680.36 277.75 L 681.83 277.75 L 683.31 277.75 L 684.78 277.75 L 686.25 277.75 L 687.72 277.75 L 689.19 277.75 L 690.67 277.75 L 692.14 277.75 L 693.61 277.75 L 695.08 277.75 L 696.56 277.75 L 698.03 277.75 L 699.50 277.75 L 700.97 277.75 L 702.44 277.75 L 703.92 277.75 L 705.39 277.75 L 706.86 277.75 L 708.33 277.75 L 709.81 277.75 L 711.28 277.75 L 712.75 277.75 L 714.22 277.75 L 715.69 277.75 L 717.17 277.75 L 718.64 277.75 L 720.11 277.75 L 721.58 277.75 L 723.06 277.75 L 724.53 277.75 L 726.00 277.75 L 727.47 277.75 L 728.94 277.75 L 730.42 277.75 L 731.89 277.75 L 733.36 277.75 L 734.83 277.75 L 736.31 277.75 L 737.78 277.75 L 739.25 277.75 L 740.72 277.75 L 742.19 277.75 L 743.67 277.75 L 745.14 277.75 L 746.61 277.75 L 748.08 277.75 L 749.56 277.75 L 751.03 277.75 L 752.50 277.75 L 753.97 277.75 L 755.44 277.75 L 756.92 277.75 L 758.39 277.75 L 759.86 277.75 L 761.33 277.75 L 762.81 277.75 L 764.28 277.75" stroke="#1976D2" />
<text x="90" y="289.75" font-size="14" font-weight="700">Inclinação (graus)</text>
<rect class="event" x="443.33" y="295.75" width="55.94" height="192.75" />
<line class="eventline" x1="443.33" y1="295.75" x2="443.33" y2="488.50" />
<line class="eventline" x1="499.28" y1="295.75" x2="499.28" y2="488.50" />
<line class="grid" x1="90" y1="488.50" x2="1150" y2="488.50" />
<text class="small" x="80" y="492.50" text-anchor="end">-10.0</text>
<line class="grid" x1="90" y1="449.95" x2="1150" y2="449.95" />
<text class="small" x="80" y="453.95" text-anchor="end">0.00</text>
<line class="grid" x1="90" y1="411.40" x2="1150" y2="411.40" />
<text class="small" x="80" y="415.40" text-anchor="end">10.0</text>
<line class="grid" x1="90" y1="372.85" x2="1150" y2="372.85" />
<text class="small" x="80" y="376.85" text-anchor="end">20.0</text>
<line class="grid" x1="90" y1="334.30" x2="1150" y2="334.30" />
<text class="small" x="80" y="338.30" text-anchor="end">30.0</text>
<line class="grid" x1="90" y1="295.75" x2="1150" y2="295.75" />
<text class="small" x="80" y="299.75" text-anchor="end">40.0</text>
<line class="grid" x1="90.00" y1="295.75" x2="90.00" y2="488.50" />
<line class="grid" x1="266.67" y1="295.75" x2="266.67" y2="488.50" />
<line class="grid" x1="443.33" y1="295.75" x2="443.33" y2="488.50" />
<line class="grid" x1="620.00" y1="295.75" x2="620.00" y2="488.50" />
<line class="grid" x1="796.67" y1="295.75" x2="796.67" y2="488.50" />
<line class="grid" x1="973.33" y1="295.75" x2="973.33" y2="488.50" />
<line class="grid" x1="1150.00" y1="295.75" x2="1150.00" y2="488.50" />
<line class="axis" x1="90" y1="295.75" x2="90" y2="488.50" />
<line class="axis" x1="90" y1="488.50" x2="1150" y2="488.50" />
<path class="series" d="M 178.33 429.69 L 179.81 429.74 L 181.28 429.21 L 182.75 429.23 L 184.22 427.47 L 185.69 426.41 L 187.17 425.57 L 188.64 423.31 L 190.11 422.31 L 191.58 422.40 L 193.06 423.26 L 194.53 424.29 L 196.00 424.97 L 197.47 425.49 L 198.94 425.99 L 200.42 426.38 L 201.89 428.32 L 203.36 429.01 L 204.83 430.87 L 206.31 432.51 L 207.78 432.84 L 209.25 436.28 L 210.72 435.66 L 212.19 433.90 L 213.67 433.08 L 215.14 431.99 L 216.61 431.18 L 218.08 429.49 L 219.56 427.98 L 221.03 427.47 L 222.50 429.36 L 223.97 427.25 L 225.44 427.91 L 226.92 427.03 L 228.39 425.17 L 229.86 424.53 L 231.33 425.32 L 232.81 425.99 L 234.28 428.33 L 235.75 429.96 L 237.22 429.10 L 238.69 430.91 L 240.17 430.72 L 241.64 431.60 L 243.11 431.54 L 244.58 430.96 L 246.06 432.80 L 247.53 432.73 L 249.00 433.12 L 250.47 430.43 L 251.94 428.66 L 253.42 425.29 L 254.89 420.21 L 256.36 427.76 L 257.83 424.83 L 259.31 422.49 L 260.78 420.42 L 262.25 417.43 L 263.72 418.55 L 265.19 418.12 L 266.67 413.11 L 268.14 415.89 L 269.61 414.10 L 271.08 399.61 L 272.56 402.29 L 274.03 402.90 L 275.50 406.31 L 276.97 409.39 L 278.44 410.38 L 279.92 405.15 L 281.39 407.13 L 282.86 407.85 L 284.33 412.07 L 285.81 413.75 L 287.28 406.01 L 288.75 412.05 L 290.22 407.06 L 291.69 409.27 L 293.17 412.72 L 294.64 413.31 L 296.11 422.33 L 297.58 414.97 L 299.06 418.86 L 300.53 420.38 L 302.00 421.95 L 303.47 415.52 L 304.94 415.46 L 306.42 423.32 L 307.89 420.35 L 309.36 422.06 L 310.83 422.82 L 312.31 423.63 L 313.78 423.88 L 315.25 422.77 L 316.72 421.37 L 318.19 416.63 L 319.67 418.01 L 321.14 410.02 L 322.61 405.69 L 324.08 414.46 L 325.56 405.74 L 327.03 398.55 L 328.50 396.44 L 329.97 395.33 L 331.44 400.81 L 332.92 396.31 L 334.39 397.45 L 335.86 403.75 L 337.33 404.71 L 338.81 409.63 L 340.28 408.69 L 341.75 409.30 L 343.22 412.52 L 344.69 413.00 L 346.17 407.73 L 347.64 405.95 L 349.11 402.33 L 350.58 400.67 L 352.06 400.73 L 353.53 400.73 L 355.00 397.27 L 356.47 405.31 L 357.94 394.01 L 359.42 396.77 L 360.89 391.30 L 362.36 393.29 L 363.83 387.35 L 365.31 408.73 L 366.78 404.80 L 368.25 398.63 L 369.72 399.67 L 371.19 397.57 L 372.67 402.65 L 374.14 397.22 L 375.61 400.96 L 377.08 399.66 L 378.56 400.72 L 380.03 402.02 L 381.50 400.74 L 382.97 405.18 L 384.44 401.38 L 385.92 400.02 L 387.39 399.76 L 388.86 403.46 L 390.33 401.98 L 391.81 401.75 L 393.28 400.57 L 394.75 402.39 L 396.22 402.59 L 397.69 405.32 L 399.17 404.48 L 400.64 403.30 L 402.11 406.38 L 403.58 405.29 L 405.06 407.90 L 406.53 401.98 L 408.00 406.89 L 409.47 406.98 L 410.94 410.38 L 412.42 410.58 L 413.89 408.79 L 415.36 411.00 L 416.83 408.72 L 418.31 411.38 L 419.78 419.44 L 421.25 413.07 L 422.72 410.80 L 424.19 409.08 L 425.67 408.01 L 427.14 406.87 L 428.61 405.94 L 430.08 409.41 L 431.56 411.47 L 433.03 412.12 L 434.50 412.52 L 435.97 411.24 L 437.44 414.07 L 438.92 413.49 L 440.39 414.93 L 441.86 414.89 L 443.33 420.69 L 444.81 412.73 L 446.28 413.58 L 447.75 413.76 L 449.22 413.81 L 450.69 413.47 L 452.17 413.28 L 453.64 413.20 L 455.11 413.00 L 456.58 413.17 L 458.06 413.14 L 459.53 413.17 L 461.00 413.29 L 462.47 413.51 L 463.94 413.37 L 465.42 412.71 L 466.89 413.20 L 468.36 413.23 L 469.83 413.10 L 471.31 413.11 L 472.78 415.31 L 474.25 411.28 L 475.72 413.75 L 477.19 414.11 L 478.67 413.75 L 480.14 413.70 L 481.61 413.68 L 483.08 413.64 L 484.56 413.91 L 486.03 413.91 L 487.50 413.98 L 488.97 413.20 L 490.44 415.38 L 491.92 413.93 L 493.39 413.74 L 494.86 415.05 L 496.33 414.43 L 497.81 418.27 L 499.28 425.68 L 500.75 436.86 L 502.22 411.51 L 503.69 406.73 L 505.17 390.12 L 506.64 412.61 L 508.11 411.13 L 509.58 424.20 L 511.06 422.30 L 512.53 418.53 L 514.00 411.87 L 515.47 388.00 L 516.94 411.70 L 518.42 411.57 L 519.89 411.23 L 521.36 411.19 L 522.83 411.14 L 524.31 410.99 L 525.78 410.85 L 527.25 410.76 L 528.72 410.71 L 530.19 410.58 L 531.67 410.63 L 533.14 411.24 L 534.61 409.57 L 536.08 410.53 L 537.56 414.37 L 539.03 430.13 L 540.50 424.43 L 541.97 426.25 L 543.44 406.86 L 544.92 421.35 L 546.39 406.91 L 547.86 414.85 L 549.33 407.99 L 550.81 393.22 L 552.28 400.44 L 553.75 394.35 L 555.22 394.63 L 556.69 401.77 L 558.17 416.69 L 559.64 412.96 L 561.11 413.47 L 562.58 407.76 L 564.06 408.79 L 565.53 406.16 L 567.00 404.28 L 568.47 398.09 L 569.94 404.44 L 571.42 398.28 L 572.89 395.57 L 574.36 396.57 L 575.83 393.53 L 577.31 402.80 L 578.78 412.66 L 580.25 408.27 L 581.72 400.98 L 583.19 403.82 L 584.67 403.66 L 586.14 405.96 L 587.61 405.71 L 589.08 404.47 L 590.56 406.22 L 592.03 400.66 L 593.50 398.60 L 594.97 399.84 L 596.44 393.74 L 597.92 400.34 L 599.39 406.21 L 600.86 401.05 L 602.33 404.27 L 603.81 402.86 L 605.28 405.35 L 606.75 404.81 L 608.22 396.21 L 609.69 393.40 L 611.17 399.29 L 612.64 396.88 L 614.11 406.25 L 615.58 404.80 L 617.06 401.52 L 618.53 403.23 L 620.00 400.80 L 621.47 403.37 L 622.94 405.10 L 624.42 402.25 L 625.89 397.00 L 627.36 400.71 L 628.83 398.88 L 630.31 401.63 L 631.78 402.08 L 633.25 402.03 L 634.72 401.96 L 636.19 401.99 L 637.67 401.96 L 639.14 401.99 L 640.61 401.96 L 642.08 401.95 L 643.56 401.95 L 645.03 401.93 L 646.50 401.97 L 647.97 401.98 L 649.44 401.97 L 650.92 401.96 L 652.39 402.00 L 653.86 402.00 L 655.33 402.00 L 656.81 401.94 L 658.28 402.02 L 659.75 401.98 L 661.22 401.94 L 662.69 401.96 L 664.17 401.99 L 665.64 401.95 L 667.11 401.96 L 668.58 401.99 L 670.06 401.95 L 671.53 401.98 L 673.00 401.94 L 674.47 401.99 L 675.94 402.00 L 677.42 401.94 L 678.89 401.97 L 680.36 401.97 L 681.83 402.01 L 683.31 402.00 L 684.78 402.05 L 686.25 402.01 L 687.72 402.00 L 689.19 402.03 L 690.67 402.05 L 692.14 402.02 L 693.61 401.95 L 695.08 402.01 L 696.56 402.02 L 698.03 402.04 L 699.50 401.99 L 700.97 401.98 L 702.44 401.96 L 703.92 402.05 L 705.39 401.98 L 706.86 401.99 L 708.33 402.00 L 709.81 402.05 L 711.28 402.00 L 712.75 401.98 L 714.22 402.06 L 715.69 401.99 L 717.17 401.98 L 718.64 402.02 L 720.11 402.00 L 721.58 401.97 L 723.06 402.03 L 724.53 401.95 L 726.00 402.02 L 727.47 402.00 L 728.94 402.00 L 730.42 402.06 L 731.89 401.97 L 733.36 402.00 L 734.83 401.98 L 736.31 401.96 L 737.78 402.01 L 739.25 401.98 L 740.72 402.09 L 742.19 402.01 L 743.67 402.02 L 745.14 402.01 L 746.61 402.01 L 748.08 402.00 L 749.56 402.02 L 751.03 401.99 L 752.50 402.02 L 753.97 402.03 L 755.44 401.97 L 756.92 402.06 L 758.39 401.97 L 759.86 402.02 L 761.33 402.04 L 762.81 401.98 L 764.28 402.02" stroke="#2E7D32" />
<path class="series" d="M 178.33 447.29 L 179.81 444.76 L 181.28 445.91 L 182.75 439.89 L 184.22 442.82 L 185.69 441.24 L 187.17 441.58 L 188.64 441.18 L 190.11 440.64 L 191.58 439.56 L 193.06 441.15 L 194.53 440.94 L 196.00 440.90 L 197.47 441.35 L 198.94 441.99 L 200.42 438.49 L 201.89 442.15 L 203.36 439.42 L 204.83 442.63 L 206.31 442.37 L 207.78 441.23 L 209.25 442.85 L 210.72 442.69 L 212.19 439.45 L 213.67 439.96 L 215.14 436.66 L 216.61 439.37 L 218.08 443.87 L 219.56 442.03 L 221.03 444.97 L 222.50 441.60 L 223.97 437.41 L 225.44 441.04 L 226.92 441.33 L 228.39 440.94 L 229.86 443.42 L 231.33 440.97 L 232.81 442.56 L 234.28 443.71 L 235.75 442.59 L 237.22 443.99 L 238.69 443.79 L 240.17 444.46 L 241.64 443.78 L 243.11 445.20 L 244.58 444.65 L 246.06 449.36 L 247.53 447.70 L 249.00 447.54 L 250.47 450.67 L 251.94 445.95 L 253.42 453.58 L 254.89 453.31 L 256.36 451.19 L 257.83 448.96 L 259.31 448.86 L 260.78 447.25 L 262.25 447.35 L 263.72 448.24 L 265.19 449.82 L 266.67 443.87 L 268.14 451.56 L 269.61 446.96 L 271.08 460.42 L 272.56 450.42 L 274.03 458.89 L 275.50 450.26 L 276.97 450.80 L 278.44 444.13 L 279.92 451.39 L 281.39 444.95 L 282.86 447.12 L 284.33 457.68 L 285.81 467.19 L 287.28 456.27 L 288.75 458.64 L 290.22 458.67 L 291.69 464.36 L 293.17 464.67 L 294.64 472.46 L 296.11 471.72 L 297.58 451.43 L 299.06 450.57 L 300.53 445.36 L 302.00 456.19 L 303.47 455.03 L 304.94 457.69 L 306.42 458.54 L 307.89 443.55 L 309.36 438.96 L 310.83 432.84 L 312.31 431.16 L 313.78 434.55 L 315.25 435.58 L 316.72 430.72 L 318.19 443.15 L 319.67 439.03 L 321.14 439.59 L 322.61 441.34 L 324.08 448.23 L 325.56 452.04 L 327.03 436.24 L 328.50 449.96 L 329.97 446.97 L 331.44 440.25 L 332.92 442.65 L 334.39 437.56 L 335.86 436.25 L 337.33 434.55 L 338.81 436.10 L 340.28 440.52 L 341.75 439.82 L 343.22 446.48 L 344.69 448.25 L 346.17 459.24 L 347.64 454.36 L 349.11 455.08 L 350.58 455.96 L 352.06 466.39 L 353.53 466.39 L 355.00 450.30 L 356.47 452.17 L 357.94 443.35 L 359.42 438.71 L 360.89 444.97 L 362.36 444.51 L 363.83 436.30 L 365.31 443.19 L 366.78 443.53 L 368.25 444.16 L 369.72 445.76 L 371.19 447.52 L 372.67 440.06 L 374.14 450.30 L 375.61 442.10 L 377.08 438.34 L 378.56 442.12 L 380.03 441.34 L 381.50 437.61 L 382.97 443.61 L 384.44 435.19 L 385.92 440.57 L 387.39 430.21 L 388.86 442.49 L 390.33 442.52 L 391.81 444.38 L 393.28 440.84 L 394.75 445.61 L 396.22 441.17 L 397.69 445.90 L 399.17 443.13 L 400.64 440.81 L 402.11 448.51 L 403.58 441.63 L 405.06 441.60 L 406.53 439.56 L 408.00 437.61 L 409.47 437.35 L 410.94 438.95 L 412.42 452.26 L 413.89 441.32 L 415.36 451.05 L 416.83 446.45 L 418.31 445.34 L 419.78 454.19 L 421.25 449.07 L 422.72 445.78 L 424.19 443.90 L 425.67 446.95 L 427.14 447.99 L 428.61 445.08 L 430.08 447.54 L 431.56 447.33 L 433.03 444.44 L 434.50 448.34 L 435.97 448.58 L 437.44 445.83 L 438.92 443.67 L 440.39 447.40 L 441.86 447.99 L 443.33 445.00 L 444.81 447.93 L 446.28 447.75 L 447.75 448.17 L 449.22 447.82 L 450.69 446.88 L 452.17 448.08 L 453.64 447.80 L 455.11 447.76 L 456.58 447.90 L 458.06 447.64 L 459.53 447.93 L 461.00 447.90 L 462.47 448.00 L 463.94 448.12 L 465.42 447.32 L 466.89 448.38 L 468.36 447.68 L 469.83 447.86 L 471.31 447.81 L 472.78 448.66 L 474.25 447.28 L 475.72 447.84 L 477.19 447.99 L 478.67 448.26 L 480.14 448.04 L 481.61 447.95 L 483.08 448.18 L 484.56 448.01 L 486.03 448.26 L 487.50 447.98 L 488.97 447.95 L 490.44 449.03 L 491.92 448.55 L 493.39 448.03 L 494.86 449.34 L 496.33 448.30 L 497.81 447.81 L 499.28 446.81 L 500.75 446.71 L 502.22 451.96 L 503.69 450.97 L 505.17 445.26 L 506.64 446.13 L 508.11 447.30 L 509.58 447.86 L 511.06 445.55 L 512.53 447.59 L 514.00 452.54 L 515.47 446.94 L 516.94 449.05 L 518.42 448.48 L 519.89 448.33 L 521.36 449.25 L 522.83 449.55 L 524.31 448.79 L 525.78 448.97 L 527.25 449.28 L 528.72 448.80 L 530.19 449.23 L 531.67 448.93 L 533.14 449.39 L 534.61 448.41 L 536.08 449.32 L 537.56 449.07 L 539.03 450.60 L 540.50 453.59 L 541.97 453.59 L 543.44 449.29 L 544.92 451.74 L 546.39 432.59 L 547.86 440.72 L 549.33 435.30 L 550.81 426.16 L 552.28 433.04 L 553.75 429.19 L 555.22 433.30 L 556.69 441.20 L 558.17 445.13 L 559.64 444.48 L 561.11 440.27 L 562.58 441.02 L 564.06 448.54 L 565.53 437.93 L 567.00 437.18 L 568.47 443.53 L 569.94 447.91 L 571.42 454.28 L 572.89 451.86 L 574.36 452.82 L 575.83 453.40 L 577.31 451.17 L 578.78 452.10 L 580.25 448.10 L 581.72 443.14 L 583.19 441.80 L 584.67 447.13 L 586.14 451.99 L 587.61 449.57 L 589.08 446.66 L 590.56 453.78 L 592.03 463.13 L 593.50 460.14 L 594.97 469.32 L 596.44 446.92 L 597.92 457.98 L 599.39 461.17 L 600.86 462.93 L 602.33 462.79 L 603.81 461.30 L 605.28 463.97 L 606.75 467.02 L 608.22 470.30 L 609.69 463.56 L 611.17 446.63 L 612.64 447.90 L 614.11 455.02 L 615.58 449.55 L 617.06 453.57 L 618.53 451.30 L 620.00 450.73 L 621.47 451.14 L 622.94 450.45 L 624.42 454.00 L 625.89 451.04 L 627.36 451.74 L 628.83 452.24 L 630.31 452.05 L 631.78 452.14 L 633.25 451.92 L 634.72 452.16 L 636.19 452.13 L 637.67 452.28 L 639.14 452.05 L 640.61 452.25 L 642.08 452.24 L 643.56 452.20 L 645.03 452.26 L 646.50 452.23 L 647.97 452.21 L 649.44 452.19 L 650.92 452.19 L 652.39 452.18 L 653.86 452.20 L 655.33 452.20 L 656.81 452.25 L 658.28 452.24 L 659.75 452.21 L 661.22 452.22 L 662.69 452.31 L 664.17 452.19 L 665.64 452.30 L 667.11 452.26 L 668.58 452.24 L 670.06 452.27 L 671.53 452.23 L 673.00 452.29 L 674.47 452.28 L 675.94 452.22 L 677.42 452.30 L 678.89 452.23 L 680.36 452.33 L 681.83 452.24 L 683.31 452.29 L 684.78 452.30 L 686.25 452.31 L 687.72 452.32 L 689.19 452.31 L 690.67 452.25 L 692.14 452.31 L 693.61 452.36 L 695.08 452.30 L 696.56 452.30 L 698.03 452.29 L 699.50 452.32 L 700.97 452.34 L 702.44 452.27 L 703.92 452.27 L 705.39 452.29 L 706.86 452.34 L 708.33 452.25 L 709.81 452.27 L 711.28 452.35 L 712.75 452.30 L 714.22 452.33 L 715.69 452.25 L 717.17 452.28 L 718.64 452.24 L 720.11 452.31 L 721.58 452.33 L 723.06 452.24 L 724.53 452.30 L 726.00 452.30 L 727.47 452.27 L 728.94 452.27 L 730.42 452.25 L 731.89 452.30 L 733.36 452.23 L 734.83 452.24 L 736.31 452.27 L 737.78 452.28 L 739.25 452.30 L 740.72 452.27 L 742.19 452.27 L 743.67 452.28 L 745.14 452.24 L 746.61 452.29 L 748.08 452.30 L 749.56 452.32 L 751.03 452.27 L 752.50 452.27 L 753.97 452.26 L 755.44 452.36 L 756.92 452.21 L 758.39 452.32 L 759.86 452.28 L 761.33 452.27 L 762.81 452.26 L 764.28 452.25" stroke="#6A1B9A" />
<line x1="900.00" y1="307.75" x2="918.00" y2="307.75" stroke="#2E7D32" stroke-width="3" />
<text class="small" x="924.00" y="311.75">pitch</text>
<line x1="900.00" y1="323.75" x2="918.00" y2="323.75" stroke="#6A1B9A" stroke-width="3" />
<text class="small" x="924.00" y="327.75">roll</text>
<text x="90" y="500.50" font-size="14" font-weight="700">Aceleração (magnitude) (u.a.)</text>
<rect class="event" x="443.33" y="506.50" width="55.94" height="192.75" />
<line class="eventline" x1="443.33" y1="506.50" x2="443.33" y2="699.25" />
<line class="eventline" x1="499.28" y1="506.50" x2="499.28" y2="699.25" />
<line class="grid" x1="90" y1="699.25" x2="1150" y2="699.25" />
<text class="small" x="80" y="703.25" text-anchor="end">0.00</text>
<line class="grid" x1="90" y1="660.70" x2="1150" y2="660.70" />
<text class="small" x="80" y="664.70" text-anchor="end">0.50</text>
<line class="grid" x1="90" y1="622.15" x2="1150" y2="622.15" />
<text class="small" x="80" y="626.15" text-anchor="end">1.00</text>
<line class="grid" x1="90" y1="583.60" x2="1150" y2="583.60" />
<text class="small" x="80" y="587.60" text-anchor="end">1.50</text>
<line class="grid" x1="90" y1="545.05" x2="1150" y2="545.05" />
<text class="small" x="80" y="549.05" text-anchor="end">2.00</text>
<line class="grid" x1="90" y1="506.50" x2="1150" y2="506.50" />
<text class="small" x="80" y="510.50" text-anchor="end">2.50</text>
<line class="grid" x1="90.00" y1="506.50" x2="90.00" y2="699.25" />
<line class="grid" x1="266.67" y1="506.50" x2="266.67" y2="699.25" />
<line class="grid" x1="443.33" y1="506.50" x2="443.33" y2="699.25" />
<line class="grid" x1="620.00" y1="506.50" x2="620.00" y2="699.25" />
<line class="grid" x1="796.67" y1="506.50" x2="796.67" y2="699.25" />
<line class="grid" x1="973.33" y1="506.50" x2="973.33" y2="699.25" />
<line class="grid" x1="1150.00" y1="506.50" x2="1150.00" y2="699.25" />
<line class="axis" x1="90" y1="506.50" x2="90" y2="699.25" />
<line class="axis" x1="90" y1="699.25" x2="1150" y2="699.25" />
<path class="series" d="M 178.33 695.45 L 179.81 694.95 L 181.28 694.47 L 182.75 686.87 L 184.22 693.80 L 185.69 695.25 L 187.17 692.01 L 188.64 691.67 L 190.11 695.31 L 191.58 691.92 L 193.06 694.61 L 194.53 697.78 L 196.00 694.08 L 197.47 693.44 L 198.94 694.30 L 200.42 688.65 L 201.89 695.95 L 203.36 686.11 L 204.83 695.17 L 206.31 695.07 L 207.78 691.15 L 209.25 687.95 L 210.72 684.22 L 212.19 690.58 L 213.67 690.85 L 215.14 688.03 L 216.61 695.60 L 218.08 690.28 L 219.56 690.05 L 221.03 692.31 L 222.50 694.34 L 223.97 692.40 L 225.44 693.08 L 226.92 693.30 L 228.39 694.69 L 229.86 695.09 L 231.33 691.15 L 232.81 696.77 L 234.28 694.63 L 235.75 688.94 L 237.22 695.15 L 238.69 693.41 L 240.17 695.49 L 241.64 691.48 L 243.11 690.75 L 244.58 689.04 L 246.06 697.10 L 247.53 685.94 L 249.00 676.15 L 250.47 679.09 L 251.94 674.85 L 253.42 688.06 L 254.89 673.30 L 256.36 684.44 L 257.83 686.86 L 259.31 690.30 L 260.78 685.34 L 262.25 683.77 L 263.72 672.18 L 265.19 670.98 L 266.67 686.05 L 268.14 661.69 L 269.61 687.90 L 271.08 682.98 L 272.56 678.22 L 274.03 656.05 L 275.50 669.78 L 276.97 678.26 L 278.44 663.00 L 279.92 658.93 L 281.39 657.53 L 282.86 648.05 L 284.33 671.47 L 285.81 651.68 L 287.28 680.42 L 288.75 655.69 L 290.22 661.17 L 291.69 679.23 L 293.17 687.82 L 294.64 680.82 L 296.11 636.21 L 297.58 641.64 L 299.06 684.33 L 300.53 684.33 L 302.00 675.14 L 303.47 662.27 L 304.94 678.22 L 306.42 680.83 L 307.89 681.87 L 309.36 667.19 L 310.83 658.71 L 312.31 668.52 L 313.78 675.20 L 315.25 685.30 L 316.72 696.36 L 318.19 679.87 L 319.67 688.62 L 321.14 683.94 L 322.61 669.44 L 324.08 686.82 L 325.56 669.76 L 327.03 674.51 L 328.50 673.79 L 329.97 686.73 L 331.44 672.60 L 332.92 636.54 L 334.39 647.34 L 335.86 661.17 L 337.33 679.47 L 338.81 675.02 L 340.28 682.54 L 341.75 683.53 L 343.22 688.47 L 344.69 653.19 L 346.17 658.33 L 347.64 669.49 L 349.11 691.87 L 350.58 683.42 L 352.06 663.15 L 353.53 666.09 L 355.00 673.69 L 356.47 682.53 L 357.94 643.59 L 359.42 670.98 L 360.89 655.47 L 362.36 665.19 L 363.83 675.96 L 365.31 673.97 L 366.78 692.13 L 368.25 686.42 L 369.72 677.58 L 371.19 690.32 L 372.67 681.66 L 374.14 693.38 L 375.61 670.69 L 377.08 661.49 L 378.56 685.79 L 380.03 686.13 L 381.50 691.53 L 382.97 690.06 L 384.44 690.16 L 385.92 687.44 L 387.39 689.19 L 388.86 693.39 L 390.33 690.92 L 391.81 691.09 L 393.28 683.08 L 394.75 679.33 L 396.22 678.57 L 397.69 685.22 L 399.17 685.69 L 400.64 693.84 L 402.11 695.14 L 403.58 695.67 L 405.06 693.89 L 406.53 683.01 L 408.00 693.31 L 409.47 691.43 L 410.94 694.14 L 412.42 694.84 L 413.89 694.60 L 415.36 696.74 L 416.83 682.66 L 418.31 676.09 L 419.78 690.23 L 421.25 695.96 L 422.72 691.80 L 424.19 696.49 L 425.67 693.90 L 427.14 697.35 L 428.61 691.58 L 430.08 691.17 L 431.56 694.40 L 433.03 695.86 L 434.50 695.48 L 435.97 694.36 L 437.44 696.93 L 438.92 692.10 L 440.39 692.84 L 441.86 687.88 L 443.33 695.93 L 444.81 693.22 L 446.28 697.25 L 447.75 696.63 L 449.22 697.69 L 450.69 697.31 L 452.17 697.91 L 453.64 697.75 L 455.11 697.08 L 456.58 696.64 L 458.06 696.55 L 459.53 697.55 L 461.00 697.61 L 462.47 696.81 L 463.94 698.22 L 465.42 694.68 L 466.89 695.86 L 468.36 696.11 L 469.83 697.93 L 471.31 698.23 L 472.78 698.23 L 474.25 695.58 L 475.72 688.90 L 477.19 696.41 L 478.67 698.49 L 480.14 697.86 L 481.61 696.02 L 483.08 696.84 L 484.56 698.71 L 486.03 697.75 L 487.50 698.15 L 488.97 689.42 L 490.44 690.35 L 491.92 694.12 L 493.39 697.05 L 494.86 696.91 L 496.33 696.39 L 497.81 693.87 L 499.28 691.24 L 500.75 655.69 L 502.22 675.96 L 503.69 655.07 L 505.17 643.76 L 506.64 681.67 L 508.11 686.86 L 509.58 667.42 L 511.06 672.91 L 512.53 690.99 L 514.00 667.79 L 515.47 624.13 L 516.94 684.57 L 518.42 694.89 L 519.89 694.31 L 521.36 696.78 L 522.83 697.97 L 524.31 697.96 L 525.78 695.93 L 527.25 696.74 L 528.72 698.84 L 530.19 698.26 L 531.67 698.66 L 533.14 696.77 L 534.61 696.54 L 536.08 697.39 L 537.56 696.96 L 539.03 651.09 L 540.50 675.69 L 541.97 660.13 L 543.44 642.60 L 544.92 673.31 L 546.39 652.67 L 547.86 675.64 L 549.33 666.38 L 550.81 658.47 L 552.28 659.43 L 553.75 668.50 L 555.22 666.85 L 556.69 667.82 L 558.17 666.18 L 559.64 680.36 L 561.11 690.06 L 562.58 681.35 L 564.06 689.74 L 565.53 689.02 L 567.00 687.00 L 568.47 671.09 L 569.94 697.07 L 571.42 684.05 L 572.89 686.56 L 574.36 685.72 L 575.83 684.92 L 577.31 695.96 L 578.78 679.49 L 580.25 670.39 L 581.72 687.72 L 583.19 687.11 L 584.67 687.08 L 586.14 694.12 L 587.61 691.11 L 589.08 695.33 L 590.56 691.85 L 592.03 655.94 L 593.50 668.02 L 594.97 662.35 L 596.44 673.07 L 597.92 668.99 L 599.39 676.20 L 600.86 672.82 L 602.33 689.05 L 603.81 677.18 L 605.28 688.55 L 606.75 683.56 L 608.22 666.33 L 609.69 656.19 L 611.17 636.54 L 612.64 652.39 L 614.11 687.74 L 615.58 673.08 L 617.06 685.39 L 618.53 692.20 L 620.00 681.81 L 621.47 692.58 L 622.94 692.89 L 624.42 691.09 L 625.89 683.74 L 627.36 696.84 L 628.83 697.36 L 630.31 689.27 L 631.78 692.21 L 633.25 697.08 L 634.72 698.13 L 636.19 698.55 L 637.67 698.48 L 639.14 698.17 L 640.61 698.66 L 642.08 698.86 L 643.56 698.55 L 645.03 698.54 L 646.50 698.53 L 647.97 698.53 L 649.44 698.62 L 650.92 698.92 L 652.39 698.84 L 653.86 698.94 L 655.33 699.18 L 656.81 699.07 L 658.28 699.03 L 659.75 699.13 L 661.22 699.20 L 662.69 699.15 L 664.17 699.20 L 665.64 699.05 L 667.11 699.15 L 668.58 699.05 L 670.06 698.93 L 671.53 699.03 L 673.00 699.15 L 674.47 699.16 L 675.94 699.20 L 677.42 699.19 L 678.89 699.18 L 680.36 699.02 L 681.83 698.97 L 683.31 699.11 L 684.78 699.07 L 686.25 699.13 L 687.72 698.99 L 689.19 699.08 L 690.67 699.10 L 692.14 699.10 L 693.61 699.02 L 695.08 699.22 L 696.56 698.89 L 698.03 699.12 L 699.50 698.98 L 700.97 699.20 L 702.44 699.06 L 703.92 698.78 L 705.39 698.81 L 706.86 698.99 L 708.33 699.13 L 709.81 699.03 L 711.28 699.06 L 712.75 698.97 L 714.22 699.05 L 715.69 699.04 L 717.17 698.99 L 718.64 699.08 L 720.11 698.99 L 721.58 699.14 L 723.06 699.15 L 724.53 699.01 L 726.00 699.13 L 727.47 699.01 L 728.94 699.09 L 730.42 699.13 L 731.89 699.02 L 733.36 699.04 L 734.83 699.09 L 736.31 699.21 L 737.78 699.05 L 739.25 699.06 L 740.72 699.06 L 742.19 699.06 L 743.67 699.17 L 745.14 698.89 L 746.61 699.05 L 748.08 698.92 L 749.56 699.03 L 751.03 699.14 L 752.50 698.94 L 753.97 699.05 L 755.44 698.97 L 756.92 698.93 L 758.39 698.98 L 759.86 699.07 L 761.33 699.16 L 762.81 699.17 L 764.28 699.12" stroke="#FB8C00" />
<text x="90" y="711.25" font-size="14" font-weight="700">Giroscópio (magnitude) (u.a.)</text>
<rect class="event" x="443.33" y="717.25" width="55.94" height="192.75" />
<line class="eventline" x1="443.33" y1="717.25" x2="443.33" y2="910.00" />
<line class="eventline" x1="499.28" y1="717.25" x2="499.28" y2="910.00" />
<line class="grid" x1="90" y1="910.00" x2="1150" y2="910.00" />
<text class="small" x="80" y="914.00" text-anchor="end">0.00</text>
<line class="grid" x1="90" y1="871.45" x2="1150" y2="871.45" />
<text class="small" x="80" y="875.45" text-anchor="end">0.05</text>
<line class="grid" x1="90" y1="832.90" x2="1150" y2="832.90" />
<text class="small" x="80" y="836.90" text-anchor="end">0.10</text>
<line class="grid" x1="90" y1="794.35" x2="1150" y2="794.35" />
<text class="small" x="80" y="798.35" text-anchor="end">0.15</text>
<line class="grid" x1="90" y1="755.80" x2="1150" y2="755.80" />
<text class="small" x="80" y="759.80" text-anchor="end">0.20</text>
<line class="grid" x1="90" y1="717.25" x2="1150" y2="717.25" />
<text class="small" x="80" y="721.25" text-anchor="end">0.25</text>
<line class="grid" x1="90.00" y1="717.25" x2="90.00" y2="910.00" />
<line class="grid" x1="266.67" y1="717.25" x2="266.67" y2="910.00" />
<line class="grid" x1="443.33" y1="717.25" x2="443.33" y2="910.00" />
<line class="grid" x1="620.00" y1="717.25" x2="620.00" y2="910.00" />
<line class="grid" x1="796.67" y1="717.25" x2="796.67" y2="910.00" />
<line class="grid" x1="973.33" y1="717.25" x2="973.33" y2="910.00" />
<line class="grid" x1="1150.00" y1="717.25" x2="1150.00" y2="910.00" />
<line class="axis" x1="90" y1="717.25" x2="90" y2="910.00" />
<line class="axis" x1="90" y1="910.00" x2="1150" y2="910.00" />
<path class="series" d="M 178.33 903.90 L 179.81 903.60 L 181.28 903.58 L 182.75 900.75 L 184.22 901.13 L 185.69 899.67 L 187.17 899.90 L 188.64 899.55 L 190.11 904.28 L 191.58 901.54 L 193.06 900.53 L 194.53 903.72 L 196.00 904.84 L 197.47 904.59 L 198.94 904.86 L 200.42 907.71 L 201.89 903.21 L 203.36 901.68 L 204.83 904.54 L 206.31 902.99 L 207.78 907.85 L 209.25 902.03 L 210.72 901.62 L 212.19 902.61 L 213.67 902.37 L 215.14 905.72 L 216.61 898.65 L 218.08 902.17 L 219.56 903.97 L 221.03 905.71 L 222.50 901.71 L 223.97 904.38 L 225.44 901.67 L 226.92 899.07 L 228.39 895.94 L 229.86 899.78 L 231.33 898.46 L 232.81 895.99 L 234.28 898.37 L 235.75 898.68 L 237.22 890.91 L 238.69 888.54 L 240.17 887.03 L 241.64 890.11 L 243.11 889.64 L 244.58 889.16 L 246.06 884.20 L 247.53 888.87 L 249.00 904.12 L 250.47 893.22 L 251.94 891.59 L 253.42 899.10 L 254.89 887.90 L 256.36 893.48 L 257.83 888.10 L 259.31 893.62 L 260.78 899.27 L 262.25 895.78 L 263.72 899.22 L 265.19 892.60 L 266.67 892.87 L 268.14 892.92 L 269.61 882.06 L 271.08 887.21 L 272.56 871.60 L 274.03 885.69 L 275.50 888.93 L 276.97 890.21 L 278.44 897.30 L 279.92 888.98 L 281.39 886.56 L 282.86 891.57 L 284.33 883.10 L 285.81 846.18 L 287.28 843.39 L 288.75 836.65 L 290.22 839.90 L 291.69 825.93 L 293.17 821.82 L 294.64 792.30 L 296.11 829.26 L 297.58 860.38 L 299.06 873.52 L 300.53 873.52 L 302.00 878.54 L 303.47 848.73 L 304.94 834.95 L 306.42 841.64 L 307.89 819.50 L 309.36 821.24 L 310.83 854.74 L 312.31 896.51 L 313.78 899.99 L 315.25 897.99 L 316.72 901.79 L 318.19 871.57 L 319.67 903.80 L 321.14 885.62 L 322.61 875.98 L 324.08 887.34 L 325.56 871.90 L 327.03 872.25 L 328.50 864.13 L 329.97 871.32 L 331.44 883.00 L 332.92 897.72 L 334.39 862.55 L 335.86 847.40 L 337.33 837.58 L 338.81 831.64 L 340.28 841.89 L 341.75 865.51 L 343.22 880.46 L 344.69 881.91 L 346.17 873.45 L 347.64 831.41 L 349.11 836.48 L 350.58 841.93 L 352.06 831.19 L 353.53 784.85 L 355.00 789.31 L 356.47 788.83 L 357.94 827.86 L 359.42 868.39 L 360.89 875.87 L 362.36 896.48 L 363.83 897.74 L 365.31 906.90 L 366.78 907.05 L 368.25 905.69 L 369.72 882.34 L 371.19 866.71 L 372.67 862.18 L 374.14 852.97 L 375.61 838.40 L 377.08 846.03 L 378.56 863.44 L 380.03 864.00 L 381.50 869.23 L 382.97 863.64 L 384.44 871.28 L 385.92 867.24 L 387.39 865.55 L 388.86 865.48 L 390.33 842.02 L 391.81 843.26 L 393.28 837.30 L 394.75 840.11 L 396.22 839.78 L 397.69 836.13 L 399.17 844.31 L 400.64 849.40 L 402.11 846.70 L 403.58 852.18 L 405.06 861.38 L 406.53 885.86 L 408.00 904.13 L 409.47 880.01 L 410.94 851.47 L 412.42 850.03 L 413.89 846.09 L 415.36 843.54 L 416.83 846.96 L 418.31 840.38 L 419.78 870.57 L 421.25 878.96 L 422.72 880.52 L 424.19 882.06 L 425.67 891.56 L 427.14 902.96 L 428.61 901.25 L 430.08 889.30 L 431.56 882.37 L 433.03 885.26 L 434.50 881.58 L 435.97 881.13 L 437.44 887.29 L 438.92 894.94 L 440.39 899.21 L 441.86 902.81 L 443.33 905.75 L 444.81 907.57 L 446.28 907.62 L 447.75 908.31 L 449.22 907.68 L 450.69 907.13 L 452.17 907.60 L 453.64 908.12 L 455.11 908.23 L 456.58 908.30 L 458.06 908.16 L 459.53 908.25 L 461.00 908.28 L 462.47 907.89 L 463.94 907.39 L 465.42 908.52 L 466.89 908.22 L 468.36 908.34 L 469.83 908.43 L 471.31 908.33 L 472.78 908.33 L 474.25 908.28 L 475.72 908.31 L 477.19 908.38 L 478.67 908.08 L 480.14 908.02 L 481.61 908.30 L 483.08 908.06 L 484.56 908.40 L 486.03 907.96 L 487.50 908.25 L 488.97 908.01 L 490.44 907.64 L 491.92 907.98 L 493.39 907.40 L 494.86 908.12 L 496.33 907.69 L 497.81 908.85 L 499.28 898.57 L 500.75 898.36 L 502.22 896.33 L 503.69 894.23 L 505.17 896.33 L 506.64 903.67 L 508.11 905.89 L 509.58 904.27 L 511.06 901.58 L 512.53 897.48 L 514.00 889.17 L 515.47 894.39 L 516.94 905.78 L 518.42 907.89 L 519.89 907.44 L 521.36 908.12 L 522.83 907.77 L 524.31 908.22 L 525.78 907.83 L 527.25 908.07 L 528.72 908.01 L 530.19 908.06 L 531.67 908.44 L 533.14 907.65 L 534.61 908.37 L 536.08 908.07 L 537.56 908.53 L 539.03 902.43 L 540.50 889.14 L 541.97 877.86 L 543.44 874.59 L 544.92 874.39 L 546.39 902.31 L 547.86 867.02 L 549.33 849.27 L 550.81 800.32 L 552.28 776.53 L 553.75 773.97 L 555.22 774.81 L 556.69 765.64 L 558.17 825.17 L 559.64 852.20 L 561.11 861.17 L 562.58 868.91 L 564.06 868.81 L 565.53 862.01 L 567.00 850.90 L 568.47 869.67 L 569.94 886.12 L 571.42 899.24 L 572.89 899.58 L 574.36 905.76 L 575.83 898.62 L 577.31 883.69 L 578.78 889.59 L 580.25 880.88 L 581.72 880.55 L 583.19 895.27 L 584.67 886.04 L 586.14 892.07 L 587.61 892.69 L 589.08 890.54 L 590.56 882.66 L 592.03 855.45 L 593.50 808.88 L 594.97 769.44 L 596.44 777.71 L 597.92 810.92 L 599.39 809.96 L 600.86 811.03 L 602.33 811.25 L 603.81 806.44 L 605.28 811.33 L 606.75 816.91 L 608.22 796.66 L 609.69 766.51 L 611.17 798.58 L 612.64 852.04 L 614.11 867.15 L 615.58 871.19 L 617.06 889.15 L 618.53 882.71 L 620.00 890.36 L 621.47 896.78 L 622.94 900.86 L 624.42 902.15 L 625.89 900.46 L 627.36 905.38 L 628.83 907.20 L 630.31 907.87 L 631.78 908.07 L 633.25 907.98 L 634.72 907.86 L 636.19 907.98 L 637.67 908.32 L 639.14 908.08 L 640.61 908.04 L 642.08 908.02 L 643.56 908.04 L 645.03 908.05 L 646.50 907.96 L 647.97 907.96 L 649.44 908.09 L 650.92 909.54 L 652.39 909.88 L 653.86 909.85 L 655.33 909.73 L 656.81 909.72 L 658.28 909.72 L 659.75 909.79 L 661.22 909.92 L 662.69 909.91 L 664.17 909.88 L 665.64 909.92 L 667.11 909.91 L 668.58 909.96 L 670.06 909.89 L 671.53 909.82 L 673.00 909.86 L 674.47 909.84 L 675.94 909.92 L 677.42 909.94 L 678.89 909.88 L 680.36 909.82 L 681.83 909.93 L 683.31 909.65 L 684.78 909.88 L 686.25 909.65 L 687.72 909.76 L 689.19 909.85 L 690.67 909.74 L 692.14 909.86 L 693.61 909.85 L 695.08 909.90 L 696.56 909.79 L 698.03 909.73 L 699.50 909.70 L 700.97 909.81 L 702.44 909.84 L 703.92 909.90 L 705.39 909.86 L 706.86 909.91 L 708.33 909.84 L 709.81 909.91 L 711.28 909.81 L 712.75 909.91 L 714.22 909.83 L 715.69 909.85 L 717.17 909.84 L 718.64 909.84 L 720.11 909.92 L 721.58 909.73 L 723.06 909.81 L 724.53 909.84 L 726.00 909.91 L 727.47 909.73 L 728.94 909.75 L 730.42 909.60 L 731.89 909.62 L 733.36 909.59 L 734.83 909.77 L 736.31 909.81 L 737.78 909.57 L 739.25 909.74 L 740.72 909.72 L 742.19 909.68 L 743.67 909.71 L 745.14 909.75 L 746.61 909.64 L 748.08 909.72 L 749.56 909.76 L 751.03 909.78 L 752.50 909.61 L 753.97 909.70 L 755.44 909.69 L 756.92 909.70 L 758.39 909.72 L 759.86 909.70 L 761.33 909.56 L 762.81 909.76 L 764.28 909.75" stroke="#E53935" />
<text x="620.00" y="952" font-size="15" text-anchor="middle">minutos (relativo ao início do evento)</text>
<text class="small" x="90.00" y="936" text-anchor="middle">-4.00</text>
<text class="small" x="266.67" y="936" text-anchor="middle">-2.00</text>
<text class="small" x="443.33" y="936" text-anchor="middle">0.00</text>
<text class="small" x="620.00" y="936" text-anchor="middle">2.00</text>
<text class="small" x="796.67" y="936" text-anchor="middle">4.00</text>
<text class="small" x="973.33" y="936" text-anchor="middle">6.00</text>
<text class="small" x="1150.00" y="936" text-anchor="middle">8.00</text>
</svg>