<?xml version="1.0" encoding="UTF-8"?>
<svg xmlns="http://www.w3.org/2000/svg" width="1180" height="980" viewBox="0 0 1180 980">
<style>
text { font-family: -apple-system, BlinkMacSystemFont, 'Segoe UI', Roboto, Helvetica, Arial, sans-serif; fill: #111; }
.small { font-size: 12px; fill: #222; }
.title { font-size: 18px; font-weight: 700; }
.axis { stroke: #111; stroke-width: 1.4; }
.grid { stroke: #E6E6E6; stroke-width: 1; }
.event { fill: #FFEB3B; fill-opacity: 0.18; }
.eventline { stroke: #F9A825; stroke-width: 1.2; stroke-dasharray: 4 3; }
.series { fill: none; stroke-width: 1.8; }
</style>
<text class="title" x="90" y="34">ciclo 12 — espera_basculamento — 2025-12-13T01:00:15-03:00 → 2025-12-13T01:00:30-03:00 (span 15s, dur 16s)</text>
<text class="small" x="90" y="54">GPS: -11.692846,-47.165221  hotspot: -11.693,-47.165</text>
<text class="small" x="90" y="70">Janela: -3.00 → 3.25 min (relativo ao início do evento)</text>
<text x="90" y="79.00" font-size="14" font-weight="700">Velocidade (km/h)</text>
<rect class="event" x="443.33" y="85.00" width="22.08" height="192.75" />
<line class="eventline" x1="443.33" y1="85.00" x2="443.33" y2="277.75" />
<line class="eventline" x1="465.42" y1="85.00" x2="465.42" y2="277.75" />
<line class="grid" x1="90" y1="277.75" x2="1150" y2="277.75" />
<text class="small" x="80" y="281.75" text-anchor="end">0.00</text>
<line class="grid" x1="90" y1="239.20" x2="1150" y2="239.20" />
<text class="small" x="80" y="243.20" text-anchor="end">5.00</text>
<line class="grid" x1="90" y1="200.65" x2="1150" y2="200.65" />
<text class="small" x="80" y="204.65" text-anchor="end">10.0</text>
<line class="grid" x1="90" y1="162.10" x2="1150" y2="162.10" />
<text class="small" x="80" y="166.10" text-anchor="end">15.0</text>
<line class="grid" x1="90" y1="123.55" x2="1150" y2="123.55" />
<text class="small" x="80" y="127.55" text-anchor="end">20.0</text>
<line class="grid" x1="90" y1="85.00" x2="1150" y2="85.00" />
<text class="small" x="80" y="89.00" text-anchor="end">25.0</text>
<line class="grid" x1="90.00" y1="85.00" x2="90.00" y2="277.75" />
<line class="grid" x1="266.67" y1="85.00" x2="266.67" y2="277.75" />
<line class="grid" x1="443.33" y1="85.00" x2="443.33" y2="277.75" />
<line class="grid" x1="620.00" y1="85.00" x2="620.00" y2="277.75" />
<line class="grid" x1="796.67" y1="85.00" x2="796.67" y2="277.75" />
<line class="grid" x1="973.33" y1="85.00" x2="973.33" y2="277.75" />
<line class="grid" x1="1150.00" y1="85.00" x2="1150.00" y2="277.75" />
<line class="axis" x1="90" y1="85.00" x2="90" y2="277.75" />
<line class="axis" x1="90" y1="277.75" x2="1150" y2="277.75" />
<path class="series" d="M 178.33 213.08 L 179.81 212.25 L 181.28 212.25 L 182.75 217.24 L 184.22 215.02 L 185.69 215.30 L 187.17 212.80 L 188.64 207.80 L 190.11 205.58 L 191.58 193.65 L 193.06 180.88 L 194.53 175.05 L 196.00 163.40 L 197.47 150.63 L 198.94 148.13 L 200.42 147.85 L 201.89 154.24 L 203.36 154.24 L 204.83 148.13 L 206.31 143.69 L 207.78 152.85 L 209.25 154.24 L 210.72 149.52 L 212.19 156.73 L 213.67 154.51 L 215.14 159.23 L 216.61 154.51 L 218.08 160.34 L 219.56 147.85 L 221.03 149.24 L 222.50 161.17 L 223.97 156.18 L 225.44 161.45 L 226.92 165.62 L 228.39 172.00 L 229.86 176.72 L 231.33 184.49 L 232.81 188.65 L 234.28 183.93 L 235.75 188.93 L 237.22 186.99 L 238.69 185.60 L 240.17 185.60 L 241.64 185.04 L 243.11 188.93 L 244.58 186.71 L 246.06 187.82 L 247.53 179.22 L 249.00 182.27 L 250.47 178.94 L 251.94 169.78 L 253.42 167.00 L 254.89 170.06 L 256.36 178.38 L 257.83 175.61 L 259.31 175.33 L 260.78 173.66 L 262.25 176.16 L 263.72 171.72 L 265.19 172.55 L 266.67 180.33 L 268.14 182.27 L 269.61 185.88 L 271.08 183.66 L 272.56 186.99 L 274.03 184.21 L 275.50 199.48 L 276.97 193.65 L 278.44 195.59 L 279.92 197.26 L 281.39 211.14 L 282.86 210.30 L 284.33 221.41 L 285.81 231.95 L 287.28 235.84 L 288.75 258.04 L 290.22 272.48 L 291.69 277.75 L 293.17 277.75 L 294.64 277.75 L 296.11 263.32 L 297.58 253.05 L 299.06 249.72 L 300.53 242.50 L 302.00 241.39 L 303.47 241.11 L 304.94 244.17 L 306.42 244.44 L 307.89 245.28 L 309.36 246.11 L 310.83 248.05 L 312.31 250.27 L 313.78 249.72 L 315.25 250.55 L 316.72 252.77 L 318.19 251.66 L 319.67 248.33 L 321.14 250.83 L 322.61 248.61 L 324.08 248.05 L 325.56 252.21 L 327.03 250.55 L 328.50 250.83 L 329.97 255.55 L 331.44 254.99 L 332.92 250.83 L 334.39 252.21 L 335.86 249.16 L 337.33 247.22 L 338.81 251.38 L 340.28 247.50 L 341.75 249.16 L 343.22 246.66 L 344.69 246.94 L 346.17 257.49 L 347.64 257.77 L 349.11 261.93 L 350.58 264.43 L 352.06 261.65 L 353.53 262.21 L 355.00 256.93 L 356.47 255.27 L 357.94 254.43 L 359.42 257.77 L 360.89 259.99 L 362.36 261.37 L 363.83 260.82 L 365.31 265.54 L 366.78 267.20 L 368.25 268.31 L 369.72 277.75 L 371.19 277.75 L 372.67 277.75 L 374.14 277.75 L 375.61 277.75 L 377.08 277.75 L 378.56 277.75 L 380.03 277.75 L 381.50 277.75 L 382.97 277.75 L 384.44 277.75 L 385.92 277.75 L 387.39 277.75 L 388.86 277.75 L 390.33 277.75 L 391.81 277.75 L 393.28 277.75 L 394.75 277.75 L 396.22 277.75 L 397.69 277.75 L 399.17 277.75 L 400.64 277.75 L 402.11 277.75 L 403.58 277.75 L 405.06 277.75 L 406.53 277.75 L 408.00 277.75 L 409.47 277.75 L 410.94 277.75 L 412.42 277.75 L 413.89 277.75 L 415.36 277.75 L 416.83 277.75 L 418.31 277.75 L 419.78 277.75 L 421.25 277.75 L 422.72 277.75 L 424.19 277.75 L 425.67 277.75 L 427.14 254.99 L 428.61 231.12 L 430.08 241.11 L 431.56 258.32 L 433.03 277.75 L 434.50 277.75 L 435.97 277.75 L 437.44 257.77 L 438.92 252.49 L 440.39 248.33 L 441.86 262.48 L 443.33 277.75 L 444.81 277.75 L 446.28 277.75 L 447.75 277.75 L 449.22 277.75 L 450.69 277.75 L 452.17 277.75 L 453.64 277.75 L 455.11 277.75 L 456.58 277.75 L 458.06 277.75 L 459.53 277.75 L 461.00 277.75 L 462.47 277.75 L 463.94 277.75 L 465.42 277.75 L 466.89 251.94 L 468.36 233.34 L 469.83 221.96 L 471.31 214.74 L 472.78 209.19 L 474.25 210.58 L 475.72 200.31 L 477.19 196.70 L 478.67 196.98 L 480.14 196.42 L 481.61 192.82 L 483.08 189.76 L 484.56 190.04 L 486.03 178.11 L 487.50 173.94 L 488.97 162.56 L 490.44 164.51 L 491.92 161.17 L 493.39 160.62 L 494.86 160.06 L 496.33 165.89 L 497.81 157.01 L 499.28 163.40 L 500.75 169.22 L 502.22 175.89 L 503.69 181.71 L 505.17 181.71 L 506.64 177.83 L 508.11 176.72 L 509.58 176.16 L 511.06 172.83 L 512.53 175.05 L 514.00 173.66 L 515.47 174.50 L 516.94 176.72 L 518.42 174.78 L 519.89 177.55 L 521.36 176.44 L 522.83 176.72 L 524.31 183.38 L 525.78 187.54 L 527.25 187.27 L 528.72 192.82 L 530.19 197.81 L 531.67 196.15 L 533.14 197.54 L 534.61 199.48 L 536.08 216.69 L 537.56 214.19 L 539.03 225.85 L 540.50 237.78 L 541.97 237.78 L 543.44 241.94 L 544.92 247.50 L 546.39 251.38 L 547.86 260.82 L 549.33 262.21 L 550.81 261.93 L 552.28 263.59 L 553.75 277.75 L 555.22 277.75 L 556.69 277.75 L 558.17 277.75 L 559.64 277.75 L 561.11 277.75 L 562.58 277.75 L 564.06 277.75 L 565.53 277.75 L 567.00 277.75 L 568.47 277.75 L 569.94 277.75 L 571.42 277.75 L 572.89 277.75 L 574.36 277.75 L 575.83 277.75 L 577.31 277.75 L 578.78 277.75 L 580.25 277.75 L 581.72 277.75 L 583.19 277.75 L 584.67 277.75 L 586.14 277.75 L 587.61 277.75 L 589.08 277.75 L 590.56 277.75 L 592.03 277.75 L 593.50 277.75 L 594.97 277.75 L 596.44 277.75 L 597.92 277.75 L 599.39 277.75 L 600.86 277.75 L 602.33 277.75 L 603.81 277.75 L 605.28 277.75 L 606.75 277.75 L 608.22 277.75 L 609.69 277.75 L 611.17 277.75 L 612.64 277.75 L 614.11 277.75 L 615.58 277.75 L 617.06 277.75 L 618.53 277.75 L 620.00 277.75 L 621.47 277.75 L 622.94 277.75 L 624.42 277.75 L 625.89 277.75 L 627.36 277.75 L 628.83 277.75 L 630.31 277.75 L 631.78 277.75 L 633.25 277.75 L 634.72 277.75 L 636.19 277.75 L 637.67 277.75 L 639.14 277.75 L 640.61 277.75 L 642.08 277.75 L 643.56 277.75 L 645.03 277.75 L 646.50 277.75 L 647.97 277.75 L 649.44 277.75 L 650.92 277.75 L 652.39 277.75 L 653.86 277.75 L 655.33 277.75 L 656.81 277.75 L 658.28 277.75 L 659.75 277.75 L 661.22 277.75 L 662.69 277.75 L 664.17 277.75 L 665.64 277.75 L 667.11 277.75 L 668.58 277.75 L 670.06 277.75 L 671.53 277.75 L 673.00 277.75 L 674.47 277.75 L 675.94 277.75 L 677.42 277.75 L 678.89 277.75 L 680.36 277.75 L 681.83 277.75 L 683.31 277.75 L 684.78 277.75 L 686.25 277.75 L 687.72 277.75 L 689.19 277.75 L 690.67 277.75 L 692.14 277.75 L 693.61 277.75 L 695.08 277.75 L 696.56 277.75 L 698.03 277.75 L 699.50 277.75 L 700.97 277.75 L 702.44 277.75 L 703.92 277.75 L 705.39 277.75 L 706.86 277.75 L 708.33 277.75 L 709.81 277.75 L 711.28 277.75 L 712.75 277.75 L 714.22 277.75 L 715.69 277.75 L 717.17 277.75 L 718.64 277.75 L 720.11 277.75 L 721.58 277.75 L 723.06 277.75 L 724.53 277.75 L 726.00 277.75 L 727.47 277.75 L 728.94 277.75 L 730.42 277.75" stroke="#1976D2" />
<text x="90" y="289.75" font-size="14" font-weight="700">Inclinação (graus)</text>
<rect class="event" x="443.33" y="295.75" width="22.08" height="192.75" />
<line class="eventline" x1="443.33" y1="295.75" x2="443.33" y2="488.50" />
<line class="eventline" x1="465.42" y1="295.75" x2="465.42" y2="488.50" />
<line class="grid" x1="90" y1="488.50" x2="1150" y2="488.50" />
<text class="small" x="80" y="492.50" text-anchor="end">-10.0</text>
<line class="grid" x1="90" y1="449.95" x2="1150" y2="449.95" />
<text class="small" x="80" y="453.95" text-anchor="end">0.00</text>
<line class="grid" x1="90" y1="411.40" x2="1150" y2="411.40" />
<text class="small" x="80" y="415.40" text-anchor="end">10.0</text>
<line class="grid" x1="90" y1="372.85" x2="1150" y2="372.85" />
<text class="small" x="80" y="376.85" text-anchor="end">20.0</text>
<line class="grid" x1="90" y1="334.30" x2="1150" y2="334.30" />
<text class="small" x="80" y="338.30" text-anchor="end">30.0</text>
<line class="grid" x1="90" y1="295.75" x2="1150" y2="295.75" />
<text class="small" x="80" y="299.75" text-anchor="end">40.0</text>
<line class="grid" x1="90.00" y1="295.75" x2="90.00" y2="488.50" />
<line class="grid" x1="266.67" y1="295.75" x2="266.67" y2="488.50" />
<line class="grid" x1="443.33" y1="295.75" x2="443.33" y2="488.50" />
<line class="grid" x1="620.00" y1="295.75" x2="620.00" y2="488.50" />
<line class="grid" x1="796.67" y1="295.75" x2="796.67" y2="488.50" />
<line class="grid" x1="973.33" y1="295.75" x2="973.33" y2="488.50" />
<line class="grid" x1="1150.00" y1="295.75" x2="1150.00" y2="488.50" />
<line class="axis" x1="90" y1="295.75" x2="90" y2="488.50" />
<line class="axis" x1="90" y1="488.50" x2="1150" y2="488.50" />
<path class="series" d="M 178.33 428.66 L 179.81 425.29 L 181.28 420.21 L 182.75 427.76 L 184.22 424.83 L 185.69 422.49 L 187.17 420.42 L 188.64 417.43 L 190.11 418.55 L 191.58 418.12 L 193.06 413.11 L 194.53 415.89 L 196.00 414.10 L 197.47 399.61 L 198.94 402.29 L 200.42 402.90 L 201.89 406.31 L 203.36 409.39 L 204.83 410.38 L 206.31 405.15 L 207.78 407.13 L 209.25 407.85 L 210.72 412.07 L 212.19 413.75 L 213.67 406.01 L 215.14 412.05 L 216.61 407.06 L 218.08 409.27 L 219.56 412.72 L 221.03 413.31 L 222.50 422.33 L 223.97 414.97 L 225.44 418.86 L 226.92 420.38 L 228.39 421.95 L 229.86 415.52 L 231.33 415.46 L 232.81 423.32 L 234.28 420.35 L 235.75 422.06 L 237.22 422.82 L 238.69 423.63 L 240.17 423.88 L 241.64 422.77 L 243.11 421.37 L 244.58 416.63 L 246.06 418.01 L 247.53 410.02 L 249.00 405.69 L 250.47 414.46 L 251.94 405.74 L 253.42 398.55 L 254.89 396.44 L 256.36 395.33 L 257.83 400.81 L 259.31 396.31 L 260.78 397.45 L 262.25 403.75 L 263.72 404.71 L 265.19 409.63 L 266.67 408.69 L 268.14 409.30 L 269.61 412.52 L 271.08 413.00 L 272.56 407.73 L 274.03 405.95 L 275.50 402.33 L 276.97 400.67 L 278.44 400.73 L 279.92 400.73 L 281.39 397.27 L 282.86 405.31 L 284.33 394.01 L 285.81 396.77 L 287.28 391.30 L 288.75 393.29 L 290.22 387.35 L 291.69 408.73 L 293.17 404.80 L 294.64 398.63 L 296.11 399.67 L 297.58 397.57 L 299.06 402.65 L 300.53 397.22 L 302.00 400.96 L 303.47 399.66 L 304.94 400.72 L 306.42 402.02 L 307.89 400.74 L 309.36 405.18 L 310.83 401.38 L 312.31 400.02 L 313.78 399.76 L 315.25 403.46 L 316.72 401.98 L 318.19 401.75 L 319.67 400.57 L 321.14 402.39 L 322.61 402.59 L 324.08 405.32 L 325.56 404.48 L 327.03 403.30 L 328.50 406.38 L 329.97 405.29 L 331.44 407.90 L 332.92 401.98 L 334.39 406.89 L 335.86 406.98 L 337.33 410.38 L 338.81 410.58 L 340.28 408.79 L 341.75 411.00 L 343.22 408.72 L 344.69 411.38 L 346.17 419.44 L 347.64 413.07 L 349.11 410.80 L 350.58 409.08 L 352.06 408.01 L 353.53 406.87 L 355.00 405.94 L 356.47 409.41 L 357.94 411.47 L 359.42 412.12 L 360.89 412.52 L 362.36 411.24 L 363.83 414.07 L 365.31 413.49 L 366.78 414.93 L 368.25 414.89 L 369.72 420.69 L 371.19 412.73 L 372.67 413.58 L 374.14 413.76 L 375.61 413.81 L 377.08 413.47 L 378.56 413.28 L 380.03 413.20 L 381.50 413.00 L 382.97 413.17 L 384.44 413.14 L 385.92 413.17 L 387.39 413.29 L 388.86 413.51 L 390.33 413.37 L 391.81 412.71 L 393.28 413.20 L 394.75 413.23 L 396.22 413.10 L 397.69 413.11 L 399.17 415.31 L 400.64 411.28 L 402.11 413.75 L 403.58 414.11 L 405.06 413.75 L 406.53 413.70 L 408.00 413.68 L 409.47 413.64 L 410.94 413.91 L 412.42 413.91 L 413.89 413.98 L 415.36 413.20 L 416.83 415.38 L 418.31 413.93 L 419.78 413.74 L 421.25 415.05 L 422.72 414.43 L 424.19 418.27 L 425.67 425.68 L 427.14 436.86 L 428.61 411.51 L 430.08 406.73 L 431.56 390.12 L 433.03 412.61 L 434.50 411.13 L 435.97 424.20 L 437.44 422.30 L 438.92 418.53 L 440.39 411.87 L 441.86 388.00 L 443.33 411.70 L 444.81 411.57 L 446.28 411.23 L 447.75 411.19 L 449.22 411.14 L 450.69 410.99 L 452.17 410.85 L 453.64 410.76 L 455.11 410.71 L 456.58 410.58 L 458.06 410.63 L 459.53 411.24 L 461.00 409.57 L 462.47 410.53 L 463.94 414.37 L 465.42 430.13 L 466.89 424.43 L 468.36 426.25 L 469.83 406.86 L 471.31 421.35 L 472.78 406.91 L 474.25 414.85 L 475.72 407.99 L 477.19 393.22 L 478.67 400.44 L 480.14 394.35 L 481.61 394.63 L 483.08 401.77 L 484.56 416.69 L 486.03 412.96 L 487.50 413.47 L 488.97 407.76 L 490.44 408.79 L 491.92 406.16 L 493.39 404.28 L 494.86 398.09 L 496.33 404.44 L 497.81 398.28 L 499.28 395.57 L 500.75 396.57 L 502.22 393.53 L 503.69 402.80 L 505.17 412.66 L 506.64 408.27 L 508.11 400.98 L 509.58 403.82 L 511.06 403.66 L 512.53 405.96 L 514.00 405.71 L 515.47 404.47 L 516.94 406.22 L 518.42 400.66 L 519.89 398.60 L 521.36 399.84 L 522.83 393.74 L 524.31 400.34 L 525.78 406.21 L 527.25 401.05 L 528.72 404.27 L 530.19 402.86 L 531.67 405.35 L 533.14 404.81 L 534.61 396.21 L 536.08 393.40 L 537.56 399.29 L 539.03 396.88 L 540.50 406.25 L 541.97 404.80 L 543.44 401.52 L 544.92 403.23 L 546.39 400.80 L 547.86 403.37 L 549.33 405.10 L 550.81 402.25 L 552.28 397.00 L 553.75 400.71 L 555.22 398.88 L 556.69 401.63 L 558.17 402.08 L 559.64 402.03 L 561.11 401.96 L 562.58 401.99 L 564.06 401.96 L 565.53 401.99 L 567.00 401.96 L 568.47 401.95 L 569.94 401.95 L 571.42 401.93 L 572.89 401.97 L 574.36 401.98 L 575.83 401.97 L 577.31 401.96 L 578.78 402.00 L 580.25 402.00 L 581.72 402.00 L 583.19 401.94 L 584.67 402.02 L 586.14 401.98 L 587.61 401.94 L 589.08 401.96 L 590.56 401.99 L 592.03 401.95 L 593.50 401.96 L 594.97 401.99 L 596.44 401.95 L 597.92 401.98 L 599.39 401.94 L 600.86 401.99 L 602.33 402.00 L 603.81 401.94 L 605.28 401.97 L 606.75 401.97 L 608.22 402.01 L 609.69 402.00 L 611.17 402.05 L 612.64 402.01 L 614.11 402.00 L 615.58 402.03 L 617.06 402.05 L 618.53 402.02 L 620.00 401.95 L 621.47 402.01 L 622.94 402.02 L 624.42 402.04 L 625.89 401.99 L 627.36 401.98 L 628.83 401.96 L 630.31 402.05 L 631.78 401.98 L 633.25 401.99 L 634.72 402.00 L 636.19 402.05 L 637.67 402.00 L 639.14 401.98 L 640.61 402.06 L 642.08 401.99 L 643.56 401.98 L 645.03 402.02 L 646.50 402.00 L 647.97 401.97 L 649.44 402.03 L 650.92 401.95 L 652.39 402.02 L 653.86 402.00 L 655.33 402.00 L 656.81 402.06 L 658.28 401.97 L 659.75 402.00 L 661.22 401.98 L 662.69 401.96 L 664.17 402.01 L 665.64 401.98 L 667.11 402.09 L 668.58 402.01 L 670.06 402.02 L 671.53 402.01 L 673.00 402.01 L 674.47 402.00 L 675.94 402.02 L 677.42 401.99 L 678.89 402.02 L 680.36 402.03 L 681.83 401.97 L 683.31 402.06 L 684.78 401.97 L 686.25 402.02 L 687.72 402.04 L 689.19 401.98 L 690.67 402.02 L 692.14 401.99 L 693.61 402.01 L 695.08 401.97 L 696.56 402.03 L 698.03 401.99 L 699.50 402.03 L 700.97 402.01 L 702.44 402.00 L 703.92 401.99 L 705.39 402.01 L 706.86 402.00 L 708.33 401.98 L 709.81 402.06 L 711.28 401.98 L 712.75 402.00 L 714.22 401.94 L 715.69 402.03 L 717.17 401.98 L 718.64 401.93 L 720.11 402.02 L 721.58 401.95 L 723.06 402.02 L 724.53 402.02 L 726.00 402.03 L 727.47 401.92 L 728.94 401.96 L 730.42 401.93" stroke="#2E7D32" />
<path class="series" d="M 178.33 445.95 L 179.81 453.58 L 181.28 453.31 L 182.75 451.19 L 184.22 448.96 L 185.69 448.86 L 187.17 447.25 L 188.64 447.35 L 190.11 448.24 L 191.58 449.82 L 193.06 443.87 L 194.53 451.56 L 196.00 446.96 L 197.47 460.42 L 198.94 450.42 L 200.42 458.89 L 201.89 450.26 L 203.36 450.80 L 204.83 444.13 L 206.31 451.39 L 207.78 444.95 L 209.25 447.12 L 210.72 457.68 L 212.19 467.19 L 213.67 456.27 L 215.14 458.64 L 216.61 458.67 L 218.08 464.36 L 219.56 464.67 L 221.03 472.46 L 222.50 471.72 L 223.97 451.43 L 225.44 450.57 L 226.92 445.36 L 228.39 456.19 L 229.86 455.03 L 231.33 457.69 L 232.81 458.54 L 234.28 443.55 L 235.75 438.96 L 237.22 432.84 L 238.69 431.16 L 240.17 434.55 L 241.64 435.58 L 243.11 430.72 L 244.58 443.15 L 246.06 439.03 L 247.53 439.59 L 249.00 441.34 L 250.47 448.23 L 251.94 452.04 L 253.42 436.24 L 254.89 449.96 L 256.36 446.97 L 257.83 440.25 L 259.31 442.65 L 260.78 437.56 L 262.25 436.25 L 263.72 434.55 L 265.19 436.10 L 266.67 440.52 L 268.14 439.82 L 269.61 446.48 L 271.08 448.25 L 272.56 459.24 L 274.03 454.36 L 275.50 455.08 L 276.97 455.96 L 278.44 466.39 L 279.92 466.39 L 281.39 450.30 L 282.86 452.17 L 284.33 443.35 L 285.81 438.71 L 287.28 444.97 L 288.75 444.51 L 290.22 436.30 L 291.69 443.19 L 293.17 443.53 L 294.64 444.16 L 296.11 445.76 L 297.58 447.52 L 299.06 440.06 L 300.53 450.30 L 302.00 442.10 L 303.47 438.34 L 304.94 442.12 L 306.42 441.34 L 307.89 437.61 L 309.36 443.61 L 310.83 435.19 L 312.31 440.57 L 313.78 430.21 L 315.25 442.49 L 316.72 442.52 L 318.19 444.38 L 319.67 440.84 L 321.14 445.61 L 322.61 441.17 L 324.08 445.90 L 325.56 443.13 L 327.03 440.81 L 328.50 448.51 L 329.97 441.63 L 331.44 441.60 L 332.92 439.56 L 334.39 437.61 L 335.86 437.35 L 337.33 438.95 L 338.81 452.26 L 340.28 441.32 L 341.75 451.05 L 343.22 446.45 L 344.69 445.34 L 346.17 454.19 L 347.64 449.07 L 349.11 445.78 L 350.58 443.90 L 352.06 446.95 L 353.53 447.99 L 355.00 445.08 L 356.47 447.54 L 357.94 447.33 L 359.42 444.44 L 360.89 448.34 L 362.36 448.58 L 363.83 445.83 L 365.31 443.67 L 366.78 447.40 L 368.25 447.99 L 369.72 445.00 L 371.19 447.93 L 372.67 447.75 L 374.14 448.17 L 375.61 447.82 L 377.08 446.88 L 378.56 448.08 L 380.03 447.80 L 381.50 447.76 L 382.97 447.90 L 384.44 447.64 L 385.92 447.93 L 387.39 447.90 L 388.86 448.00 L 390.33 448.12 L 391.81 447.32 L 393.28 448.38 L 394.75 447.68 L 396.22 447.86 L 397.69 447.81 L 399.17 448.66 L 400.64 447.28 L 402.11 447.84 L 403.58 447.99 L 405.06 448.26 L 406.53 448.04 L 408.00 447.95 L 409.47 448.18 L 410.94 448.01 L 412.42 448.26 L 413.89 447.98 L 415.36 447.95 L 416.83 449.03 L 418.31 448.55 L 419.78 448.03 L 421.25 449.34 L 422.72 448.30 L 424.19 447.81 L 425.67 446.81 L 427.14 446.71 L 428.61 451.96 L 430.08 450.97 L 431.56 445.26 L 433.03 446.13 L 434.50 447.30 L 435.97 447.86 L 437.44 445.55 L 438.92 447.59 L 440.39 452.54 L 441.86 446.94 L 443.33 449.05 L 444.81 448.48 L 446.28 448.33 L 447.75 449.25 L 449.22 449.55 L 450.69 448.79 L 452.17 448.97 L 453.64 449.28 L 455.11 448.80 L 456.58 449.23 L 458.06 448.93 L 459.53 449.39 L 461.00 448.41 L 462.47 449.32 L 463.94 449.07 L 465.42 450.60 L 466.89 453.59 L 468.36 453.59 L 469.83 449.29 L 471.31 451.74 L 472.78 432.59 L 474.25 440.72 L 475.72 435.30 L 477.19 426.16 L 478.67 433.04 L 480.14 429.19 L 481.61 433.30 L 483.08 441.20 L 484.56 445.13 L 486.03 444.48 L 487.50 440.27 L 488.97 441.02 L 490.44 448.54 L 491.92 437.93 L 493.39 437.18 L 494.86 443.53 L 496.33 447.91 L 497.81 454.28 L 499.28 451.86 L 500.75 452.82 L 502.22 453.40 L 503.69 451.17 L 505.17 452.10 L 506.64 448.10 L 508.11 443.14 L 509.58 441.80 L 511.06 447.13 L 512.53 451.99 L 514.00 449.57 L 515.47 446.66 L 516.94 453.78 L 518.42 463.13 L 519.89 460.14 L 521.36 469.32 L 522.83 446.92 L 524.31 457.98 L 525.78 461.17 L 527.25 462.93 L 528.72 462.79 L 530.19 461.30 L 531.67 463.97 L 533.14 467.02 L 534.61 470.30 L 536.08 463.56 L 537.56 446.63 L 539.03 447.90 L 540.50 455.02 L 541.97 449.55 L 543.44 453.57 L 544.92 451.30 L 546.39 450.73 L 547.86 451.14 L 549.33 450.45 L 550.81 454.00 L 552.28 451.04 L 553.75 451.74 L 555.22 452.24 L 556.69 452.05 L 558.17 452.14 L 559.64 451.92 L 561.11 452.16 L 562.58 452.13 L 564.06 452.28 L 565.53 452.05 L 567.00 452.25 L 568.47 452.24 L 569.94 452.20 L 571.42 452.26 L 572.89 452.23 L 574.36 452.21 L 575.83 452.19 L 577.31 452.19 L 578.78 452.18 L 580.25 452.20 L 581.72 452.20 L 583.19 452.25 L 584.67 452.24 L 586.14 452.21 L 587.61 452.22 L 589.08 452.31 L 590.56 452.19 L 592.03 452.30 L 593.50 452.26 L 594.97 452.24 L 596.44 452.27 L 597.92 452.23 L 599.39 452.29 L 600.86 452.28 L 602.33 452.22 L 603.81 452.30 L 605.28 452.23 L 606.75 452.33 L 608.22 452.24 L 609.69 452.29 L 611.17 452.30 L 612.64 452.31 L 614.11 452.32 L 615.58 452.31 L 617.06 452.25 L 618.53 452.31 L 620.00 452.36 L 621.47 452.30 L 622.94 452.30 L 624.42 452.29 L 625.89 452.32 L 627.36 452.34 L 628.83 452.27 L 630.31 452.27 L 631.78 452.29 L 633.25 452.34 L 634.72 452.25 L 636.19 452.27 L 637.67 452.35 L 639.14 452.30 L 640.61 452.33 L 642.08 452.25 L 643.56 452.28 L 645.03 452.24 L 646.50 452.31 L 647.97 452.33 L 649.44 452.24 L 650.92 452.30 L 652.39 452.30 L 653.86 452.27 L 655.33 452.27 L 656.81 452.25 L 658.28 452.30 L 659.75 452.23 L 661.22 452.24 L 662.69 452.27 L 664.17 452.28 L 665.64 452.30 L 667.11 452.27 L 668.58 452.27 L 670.06 452.28 L 671.53 452.24 L 673.00 452.29 L 674.47 452.30 L 675.94 452.32 L 677.42 452.27 L 678.89 452.27 L 680.36 452.26 L 681.83 452.36 L 683.31 452.21 L 684.78 452.32 L 686.25 452.28 L 687.72 452.27 L 689.19 452.26 L 690.67 452.25 L 692.14 452.25 L 693.61 452.29 L 695.08 452.30 L 696.56 452.26 L 698.03 452.31 L 699.50 452.27 L 700.97 452.24 L 702.44 452.26 L 703.92 452.31 L 705.39 452.23 L 706.86 452.32 L 708.33 452.28 L 709.81 452.24 L 711.28 452.30 L 712.75 452.30 L 714.22 452.29 L 715.69 452.23 L 717.17 452.25 L 718.64 452.35 L 720.11 452.20 L 721.58 452.34 L 723.06 452.27 L 724.53 452.26 L 726.00 452.28 L 727.47 452.22 L 728.94 452.25 L 730.42 452.25" stroke="#6A1B9A" />
<line x1="900.00" y1="307.75" x2="918.00" y2="307.75" stroke="#2E7D32" stroke-width="3" />
<text class="small" x="924.00" y="311.75">pitch</text>
<line x1="900.00" y1="323.75" x2="918.00" y2="323.75" stroke="#6A1B9A" stroke-width="3" />
<text class="small" x="924.00" y="327.75">roll</text>
<text x="90" y="500.50" font-size="14" font-weight="700">Aceleração (magnitude) (u.a.)</text>
<rect class="event" x="443.33" y="506.50" width="22.08" height="192.75" />
<line class="eventline" x1="443.33" y1="506.50" x2="443.33" y2="699.25" />
<line class="eventline" x1="465.42" y1="506.50" x2="465.42" y2="699.25" />
<line class="grid" x1="90" y1="699.25" x2="1150" y2="699.25" />
<text class="small" x="80" y="703.25" text-anchor="end">0.00</text>
<line class="grid" x1="90" y1="660.70" x2="1150" y2="660.70" />
<text class="small" x="80" y="664.70" text-anchor="end">0.50</text>
<line class="grid" x1="90" y1="622.15" x2="1150" y2="622.15" />
<text class="small" x="80" y="626.15" text-anchor="end">1.00</text>
<line class="grid" x1="90" y1="583.60" x2="1150" y2="583.60" />
<text class="small" x="80" y="587.60" text-anchor="end">1.50</text>
<line class="grid" x1="90" y1="545.05" x2="1150" y2="545.05" />
<text class="small" x="80" y="549.05" text-anchor="end">2.00</text>
<line class="grid" x1="90" y1="506.50" x2="1150" y2="506.50" />
<text class="small" x="80" y="510.50" text-anchor="end">2.50</text>
<line class="grid" x1="90.00" y1="506.50" x2="90.00" y2="699.25" />
<line class="grid" x1="266.67" y1="506.50" x2="266.67" y2="699.25" />
<line class="grid" x1="443.33" y1="506.50" x2="443.33" y2="699.25" />
<line class="grid" x1="620.00" y1="506.50" x2="620.00" y2="699.25" />
<line class="grid" x1="796.67" y1="506.50" x2="796.67" y2="699.25" />
<line class="grid" x1="973.33" y1="506.50" x2="973.33" y2="699.25" />
<line class="grid" x1="1150.00" y1="506.50" x2="1150.00" y2="699.25" />
<line class="axis" x1="90" y1="506.50" x2="90" y2="699.25" />
<line class="axis" x1="90" y1="699.25" x2="1150" y2="699.25" />
<path class="series" d="M 178.33 674.85 L 179.81 688.06 L 181.28 673.30 L 182.75 684.44 L 184.22 686.86 L 185.69 690.30 L 187.17 685.34 L 188.64 683.77 L 190.11 672.18 L 191.58 670.98 L 193.06 686.05 L 194.53 661.69 L 196.00 687.90 L 197.47 682.98 L 198.94 678.22 L 200.42 656.05 L 201.89 669.78 L 203.36 678.26 L 204.83 663.00 L 206.31 658.93 L 207.78 657.53 L 209.25 648.05 L 210.72 671.47 L 212.19 651.68 L 213.67 680.42 L 215.14 655.69 L 216.61 661.17 L 218.08 679.23 L 219.56 687.82 L 221.03 680.82 L 222.50 636.21 L 223.97 641.64 L 225.44 684.33 L 226.92 684.33 L 228.39 675.14 L 229.86 662.27 L 231.33 678.22 L 232.81 680.83 L 234.28 681.87 L 235.75 667.19 L 237.22 658.71 L 238.69 668.52 L 240.17 675.20 L 241.64 685.30 L 243.11 696.36 L 244.58 679.87 L 246.06 688.62 L 247.53 683.94 L 249.00 669.44 L 250.47 686.82 L 251.94 669.76 L 253.42 674.51 L 254.89 673.79 L 256.36 686.73 L 257.83 672.60 L 259.31 636.54 L 260.78 647.34 L 262.25 661.17 L 263.72 679.47 L 265.19 675.02 L 266.67 682.54 L 268.14 683.53 L 269.61 688.47 L 271.08 653.19 L 272.56 658.33 L 274.03 669.49 L 275.50 691.87 L 276.97 683.42 L 278.44 663.15 L 279.92 666.09 L 281.39 673.69 L 282.86 682.53 L 284.33 643.59 L 285.81 670.98 L 287.28 655.47 L 288.75 665.19 L 290.22 675.96 L 291.69 673.97 L 293.17 692.13 L 294.64 686.42 L 296.11 677.58 L 297.58 690.32 L 299.06 681.66 L 300.53 693.38 L 302.00 670.69 L 303.47 661.49 L 304.94 685.79 L 306.42 686.13 L 307.89 691.53 L 309.36 690.06 L 310.83 690.16 L 312.31 687.44 L 313.78 689.19 L 315.25 693.39 L 316.72 690.92 L 318.19 691.09 L 319.67 683.08 L 321.14 679.33 L 322.61 678.57 L 324.08 685.22 L 325.56 685.69 L 327.03 693.84 L 328.50 695.14 L 329.97 695.67 L 331.44 693.89 L 332.92 683.01 L 334.39 693.31 L 335.86 691.43 L 337.33 694.14 L 338.81 694.84 L 340.28 694.60 L 341.75 696.74 L 343.22 682.66 L 344.69 676.09 L 346.17 690.23 L 347.64 695.96 L 349.11 691.80 L 350.58 696.49 L 352.06 693.90 L 353.53 697.35 L 355.00 691.58 L 356.47 691.17 L 357.94 694.40 L 359.42 695.86 L 360.89 695.48 L 362.36 694.36 L 363.83 696.93 L 365.31 692.10 L 366.78 692.84 L 368.25 687.88 L 369.72 695.93 L 371.19 693.22 L 372.67 697.25 L 374.14 696.63 L 375.61 697.69 L 377.08 697.31 L 378.56 697.91 L 380.03 697.75 L 381.50 697.08 L 382.97 696.64 L 384.44 696.55 L 385.92 697.55 L 387.39 697.61 L 388.86 696.81 L 390.33 698.22 L 391.81 694.68 L 393.28 695.86 L 394.75 696.11 L 396.22 697.93 L 397.69 698.23 L 399.17 698.23 L 400.64 695.58 L 402.11 688.90 L 403.58 696.41 L 405.06 698.49 L 406.53 697.86 L 408.00 696.02 L 409.47 696.84 L 410.94 698.71 L 412.42 697.75 L 413.89 698.15 L 415.36 689.42 L 416.83 690.35 L 418.31 694.12 L 419.78 697.05 L 421.25 696.91 L 422.72 696.39 L 424.19 693.87 L 425.67 691.24 L 427.14 655.69 L 428.61 675.96 L 430.08 655.07 L 431.56 643.76 L 433.03 681.67 L 434.50 686.86 L 435.97 667.42 L 437.44 672.91 L 438.92 690.99 L 440.39 667.79 L 441.86 624.13 L 443.33 684.57 L 444.81 694.89 L 446.28 694.31 L 447.75 696.78 L 449.22 697.97 L 450.69 697.96 L 452.17 695.93 L 453.64 696.74 L 455.11 698.84 L 456.58 698.26 L 458.06 698.66 L 459.53 696.77 L 461.00 696.54 L 462.47 697.39 L 463.94 696.96 L 465.42 651.09 L 466.89 675.69 L 468.36 660.13 L 469.83 642.60 L 471.31 673.31 L 472.78 652.67 L 474.25 675.64 L 475.72 666.38 L 477.19 658.47 L 478.67 659.43 L 480.14 668.50 L 481.61 666.85 L 483.08 667.82 L 484.56 666.18 L 486.03 680.36 L 487.50 690.06 L 488.97 681.35 L 490.44 689.74 L 491.92 689.02 L 493.39 687.00 L 494.86 671.09 L 496.33 697.07 L 497.81 684.05 L 499.28 686.56 L 500.75 685.72 L 502.22 684.92 L 503.69 695.96 L 505.17 679.49 L 506.64 670.39 L 508.11 687.72 L 509.58 687.11 L 511.06 687.08 L 512.53 694.12 L 514.00 691.11 L 515.47 695.33 L 516.94 691.85 L 518.42 655.94 L 519.89 668.02 L 521.36 662.35 L 522.83 673.07 L 524.31 668.99 L 525.78 676.20 L 527.25 672.82 L 528.72 689.05 L 530.19 677.18 L 531.67 688.55 L 533.14 683.56 L 534.61 666.33 L 536.08 656.19 L 537.56 636.54 L 539.03 652.39 L 540.50 687.74 L 541.97 673.08 L 543.44 685.39 L 544.92 692.20 L 546.39 681.81 L 547.86 692.58 L 549.33 692.89 L 550.81 691.09 L 552.28 683.74 L 553.75 696.84 L 555.22 697.36 L 556.69 689.27 L 558.17 692.21 L 559.64 697.08 L 561.11 698.13 L 562.58 698.55 L 564.06 698.48 L 565.53 698.17 L 567.00 698.66 L 568.47 698.86 L 569.94 698.55 L 571.42 698.54 L 572.89 698.53 L 574.36 698.53 L 575.83 698.62 L 577.31 698.92 L 578.78 698.84 L 580.25 698.94 L 581.72 699.18 L 583.19 699.07 L 584.67 699.03 L 586.14 699.13 L 587.61 699.20 L 589.08 699.15 L 590.56 699.20 L 592.03 699.05 L 593.50 699.15 L 594.97 699.05 L 596.44 698.93 L 597.92 699.03 L 599.39 699.15 L 600.86 699.16 L 602.33 699.20 L 603.81 699.19 L 605.28 699.18 L 606.75 699.02 L 608.22 698.97 L 609.69 699.11 L 611.17 699.07 L 612.64 699.13 L 614.11 698.99 L 615.58 699.08 L 617.06 699.10 L 618.53 699.10 L 620.00 699.02 L 621.47 699.22 L 622.94 698.89 L 624.42 699.12 L 625.89 698.98 L 627.36 699.20 L 628.83 699.06 L 630.31 698.78 L 631.78 698.81 L 633.25 698.99 L 634.72 699.13 L 636.19 699.03 L 637.67 699.06 L 639.14 698.97 L 640.61 699.05 L 642.08 699.04 L 643.56 698.99 L 645.03 699.08 L 646.50 698.99 L 647.97 699.14 L 649.44 699.15 L 650.92 699.01 L 652.39 699.13 L 653.86 699.01 L 655.33 699.09 L 656.81 699.13 L 658.28 699.02 L 659.75 699.04 L 661.22 699.09 L 662.69 699.21 L 664.17 699.05 L 665.64 699.06 L 667.11 699.06 L 668.58 699.06 L 670.06 699.17 L 671.53 698.89 L 673.00 699.05 L 674.47 698.92 L 675.94 699.03 L 677.42 699.14 L 678.89 698.94 L 680.36 699.05 L 681.83 698.97 L 683.31 698.93 L 684.78 698.98 L 686.25 699.07 L 687.72 699.16 L 689.19 699.17 L 690.67 699.12 L 692.14 699.05 L 693.61 698.96 L 695.08 699.18 L 696.56 699.14 L 698.03 699.10 L 699.50 699.04 L 700.97 699.00 L 702.44 698.94 L 703.92 699.08 L 705.39 698.91 L 706.86 699.10 L 708.33 698.99 L 709.81 698.87 L 711.28 699.06 L 712.75 699.19 L 714.22 699.18 L 715.69 699.10 L 717.17 699.11 L 718.64 699.05 L 720.11 699.09 L 721.58 699.06 L 723.06 698.96 L 724.53 698.99 L 726.00 698.89 L 727.47 699.18 L 728.94 699.20 L 730.42 699.02" stroke="#FB8C00" />
<text x="90" y="711.25" font-size="14" font-weight="700">Giroscópio (magnitude) (u.a.)</text>
<rect class="event" x="443.33" y="717.25" width="22.08" height="192.75" />
<line class="eventline" x1="443.33" y1="717.25" x2="443.33" y2="910.00" />
<line class="eventline" x1="465.42" y1="717.25" x2="465.42" y2="910.00" />
<line class="grid" x1="90" y1="910.00" x2="1150" y2="910.00" />
<text class="small" x="80" y="914.00" text-anchor="end">0.00</text>
<line class="grid" x1="90" y1="871.45" x2="1150" y2="871.45" />
<text class="small" x="80" y="875.45" text-anchor="end">0.05</text>
<line class="grid" x1="90" y1="832.90" x2="1150" y2="832.90" />
<text class="small" x="80" y="836.90" text-anchor="end">0.10</text>
<line class="grid" x1="90" y1="794.35" x2="1150" y2="794.35" />
<text class="small" x="80" y="798.35" text-anchor="end">0.15</text>
<line class="grid" x1="90" y1="755.80" x2="1150" y2="755.80" />
<text class="small" x="80" y="759.80" text-anchor="end">0.20</text>
<line class="grid" x1="90" y1="717.25" x2="1150" y2="717.25" />
<text class="small" x="80" y="721.25" text-anchor="end">0.25</text>
<line class="grid" x1="90.00" y1="717.25" x2="90.00" y2="910.00" />
<line class="grid" x1="266.67" y1="717.25" x2="266.67" y2="910.00" />
<line class="grid" x1="443.33" y1="717.25" x2="443.33" y2="910.00" />
<line class="grid" x1="620.00" y1="717.25" x2="620.00" y2="910.00" />
<line class="grid" x1="796.67" y1="717.25" x2="796.67" y2="910.00" />
<line class="grid" x1="973.33" y1="717.25" x2="973.33" y2="910.00" />
<line class="grid" x1="1150.00" y1="717.25" x2="1150.00" y2="910.00" />
<line class="axis" x1="90" y1="717.25" x2="90" y2="910.00" />
<line class="axis" x1="90" y1="910.00" x2="1150" y2="910.00" />
<path class="series" d="M 178.33 891.59 L 179.81 899.10 L 181.28 887.90 L 182.75 893.48 L 184.22 888.10 L 185.69 893.62 L 187.17 899.27 L 188.64 895.78 L 190.11 899.22 L 191.58 892.60 L 193.06 892.87 L 194.53 892.92 L 196.00 882.06 L 197.47 887.21 L 198.94 871.60 L 200.42 885.69 L 201.89 888.93 L 203.36 890.21 L 204.83 897.30 L 206.31 888.98 L 207.78 886.56 L 209.25 891.57 L 210.72 883.10 L 212.19 846.18 L 213.67 843.39 L 215.14 836.65 L 216.61 839.90 L 218.08 825.93 L 219.56 821.82 L 221.03 792.30 L 222.50 829.26 L 223.97 860.38 L 225.44 873.52 L 226.92 873.52 L 228.39 878.54 L 229.86 848.73 L 231.33 834.95 L 232.81 841.64 L 234.28 819.50 L 235.75 821.24 L 237.22 854.74 L 238.69 896.51 L 240.17 899.99 L 241.64 897.99 L 243.11 901.79 L 244.58 871.57 L 246.06 903.80 L 247.53 885.62 L 249.00 875.98 L 250.47 887.34 L 251.94 871.90 L 253.42 872.25 L 254.89 864.13 L 256.36 871.32 L 257.83 883.00 L 259.31 897.72 L 260.78 862.55 L 262.25 847.40 L 263.72 837.58 L 265.19 831.64 L 266.67 841.89 L 268.14 865.51 L 269.61 880.46 L 271.08 881.91 L 272.56 873.45 L 274.03 831.41 L 275.50 836.48 L 276.97 841.93 L 278.44 831.19 L 279.92 784.85 L 281.39 789.31 L 282.86 788.83 L 284.33 827.86 L 285.81 868.39 L 287.28 875.87 L 288.75 896.48 L 290.22 897.74 L 291.69 906.90 L 293.17 907.05 L 294.64 905.69 L 296.11 882.34 L 297.58 866.71 L 299.06 862.18 L 300.53 852.97 L 302.00 838.40 L 303.47 846.03 L 304.94 863.44 L 306.42 864.00 L 307.89 869.23 L 309.36 863.64 L 310.83 871.28 L 312.31 867.24 L 313.78 865.55 L 315.25 865.48 L 316.72 842.02 L 318.19 843.26 L 319.67 837.30 L 321.14 840.11 L 322.61 839.78 L 324.08 836.13 L 325.56 844.31 L 327.03 849.40 L 328.50 846.70 L 329.97 852.18 L 331.44 861.38 L 332.92 885.86 L 334.39 904.13 L 335.86 880.01 L 337.33 851.47 L 338.81 850.03 L 340.28 846.09 L 341.75 843.54 L 343.22 846.96 L 344.69 840.38 L 346.17 870.57 L 347.64 878.96 L 349.11 880.52 L 350.58 882.06 L 352.06 891.56 L 353.53 902.96 L 355.00 901.25 L 356.47 889.30 L 357.94 882.37 L 359.42 885.26 L 360.89 881.58 L 362.36 881.13 L 363.83 887.29 L 365.31 894.94 L 366.78 899.21 L 368.25 902.81 L 369.72 905.75 L 371.19 907.57 L 372.67 907.62 L 374.14 908.31 L 375.61 907.68 L 377.08 907.13 L 378.56 907.60 L 380.03 908.12 L 381.50 908.23 L 382.97 908.30 L 384.44 908.16 L 385.92 908.25 L 387.39 908.28 L 388.86 907.89 L 390.33 907.39 L 391.81 908.52 L 393.28 908.22 L 394.75 908.34 L 396.22 908.43 L 397.69 908.33 L 399.17 908.33 L 400.64 908.28 L 402.11 908.31 L 403.58 908.38 L 405.06 908.08 L 406.53 908.02 L 408.00 908.30 L 409.47 908.06 L 410.94 908.40 L 412.42 907.96 L 413.89 908.25 L 415.36 908.01 L 416.83 907.64 L 418.31 907.98 L 419.78 907.40 L 421.25 908.12 L 422.72 907.69 L 424.19 908.85 L 425.67 898.57 L 427.14 898.36 L 428.61 896.33 L 430.08 894.23 L 431.56 896.33 L 433.03 903.67 L 434.50 905.89 L 435.97 904.27 L 437.44 901.58 L 438.92 897.48 L 440.39 889.17 L 441.86 894.39 L 443.33 905.78 L 444.81 907.89 L 446.28 907.44 L 447.75 908.12 L 449.22 907.77 L 450.69 908.22 L 452.17 907.83 L 453.64 908.07 L 455.11 908.01 L 456.58 908.06 L 458.06 908.44 L 459.53 907.65 L 461.00 908.37 L 462.47 908.07 L 463.94 908.53 L 465.42 902.43 L 466.89 889.14 L 468.36 877.86 L 469.83 874.59 L 471.31 874.39 L 472.78 902.31 L 474.25 867.02 L 475.72 849.27 L 477.19 800.32 L 478.67 776.53 L 480.14 773.97 L 481.61 774.81 L 483.08 765.64 L 484.56 825.17 L 486.03 852.20 L 487.50 861.17 L 488.97 868.91 L 490.44 868.81 L 491.92 862.01 L 493.39 850.90 L 494.86 869.67 L 496.33 886.12 L 497.81 899.24 L 499.28 899.58 L 500.75 905.76 L 502.22 898.62 L 503.69 883.69 L 505.17 889.59 L 506.64 880.88 L 508.11 880.55 L 509.58 895.27 L 511.06 886.04 L 512.53 892.07 L 514.00 892.69 L 515.47 890.54 L 516.94 882.66 L 518.42 855.45 L 519.89 808.88 L 521.36 769.44 L 522.83 777.71 L 524.31 810.92 L 525.78 809.96 L 527.25 811.03 L 528.72 811.25 L 530.19 806.44 L 531.67 811.33 L 533.14 816.91 L 534.61 796.66 L 536.08 766.51 L 537.56 798.58 L 539.03 852.04 L 540.50 867.15 L 541.97 871.19 L 543.44 889.15 L 544.92 882.71 L 546.39 890.36 L 547.86 896.78 L 549.33 900.86 L 550.81 902.15 L 552.28 900.46 L 553.75 905.38 L 555.22 907.20 L 556.69 907.87 L 558.17 908.07 L 559.64 907.98 L 561.11 907.86 L 562.58 907.98 L 564.06 908.32 L 565.53 908.08 L 567.00 908.04 L 568.47 908.02 L 569.94 908.04 L 571.42 908.05 L 572.89 907.96 L 574.36 907.96 L 575.83 908.09 L 577.31 909.54 L 578.78 909.88 L 580.25 909.85 L 581.72 909.73 L 583.19 909.72 L 584.67 909.72 L 586.14 909.79 L 587.61 909.92 L 589.08 909.91 L 590.56 909.88 L 592.03 909.92 L 593.50 909.91 L 594.97 909.96 L 596.44 909.89 L 597.92 909.82 L 599.39 909.86 L 600.86 909.84 L 602.33 909.92 L 603.81 909.94 L 605.28 909.88 L 606.75 909.82 L 608.22 909.93 L 609.69 909.65 L 611.17 909.88 L 612.64 909.65 L 614.11 909.76 L 615.58 909.85 L 617.06 909.74 L 618.53 909.86 L 620.00 909.85 L 621.47 909.90 L 622.94 909.79 L 624.42 909.73 L 625.89 909.70 L 627.36 909.81 L 628.83 909.84 L 630.31 909.90 L 631.78 909.86 L 633.25 909.91 L 634.72 909.84 L 636.19 909.91 L 637.67 909.81 L 639.14 909.91 L 640.61 909.83 L 642.08 909.85 L 643.56 909.84 L 645.03 909.84 L 646.50 909.92 L 647.97 909.73 L 649.44 909.81 L 650.92 909.84 L 652.39 909.91 L 653.86 909.73 L 655.33 909.75 L 656.81 909.60 L 658.28 909.62 L 659.75 909.59 L 661.22 909.77 L 662.69 909.81 L 664.17 909.57 L 665.64 909.74 L 667.11 909.72 L 668.58 909.68 L 670.06 909.71 L 671.53 909.75 L 673.00 909.64 L 674.47 909.72 L 675.94 909.76 L 677.42 909.78 L 678.89 909.61 L 680.36 909.70 L 681.83 909.69 L 683.31 909.70 L 684.78 909.72 L 686.25 909.70 L 687.72 909.56 L 689.19 909.76 L 690.67 909.75 L 692.14 909.76 L 693.61 909.77 L 695.08 909.89 L 696.56 909.80 L 698.03 909.71 L 699.50 909.61 L 700.97 909.67 L 702.44 909.82 L 703.92 909.64 L 705.39 909.78 L 706.86 909.79 L 708.33 909.66 L 709.81 909.79 L 711.28 909.83 L 712.75 909.81 L 714.22 909.74 L 715.69 909.80 L 717.17 909.79 L 718.64 909.67 L 720.11 909.71 L 721.58 909.61 L 723.06 909.60 L 724.53 909.73 L 726.00 909.87 L 727.47 909.88 L 728.94 909.73 L 730.42 909.65" stroke="#E53935" />
<text x="620.00" y="952" font-size="15" text-anchor="middle">minutos (relativo ao início do evento)</text>
<text class="small" x="90.00" y="936" text-anchor="middle">-4.00</text>
<text class="small" x="266.67" y="936" text-anchor="middle">-2.00</text>
<text class="small" x="443.33" y="936" text-anchor="middle">0.00</text>
<text class="small" x="620.00" y="936" text-anchor="middle">2.00</text>
<text class="small" x="796.67" y="936" text-anchor="middle">4.00</text>
<text class="small" x="973.33" y="936" text-anchor="middle">6.00</text>
<text class="small" x="1150.00" y="936" text-anchor="middle">8.00</text>
</svg>