<?xml version="1.0" encoding="UTF-8"?>
<svg xmlns="http://www.w3.org/2000/svg" width="1180" height="980" viewBox="0 0 1180 980">
<style>
text { font-family: -apple-system, BlinkMacSystemFont, 'Segoe UI', Roboto, Helvetica, Arial, sans-serif; fill: #111; }
.small { font-size: 12px; fill: #222; }
.title { font-size: 18px; font-weight: 700; }
.axis { stroke: #111; stroke-width: 1.4; }
.grid { stroke: #E6E6E6; stroke-width: 1; }
.event { fill: #FFEB3B; fill-opacity: 0.18; }
.eventline { stroke: #F9A825; stroke-width: 1.2; stroke-dasharray: 4 3; }
.series { fill: none; stroke-width: 1.8; }
</style>
<text class="title" x="90" y="34">ciclo 12 — espera_basculamento — 2025-12-13T01:01:30-03:00 → 2025-12-13T01:03:45-03:00 (span 135s, dur 136s)</text>
<text class="small" x="90" y="54">GPS: -11.693517,-47.164250  hotspot: -11.694,-47.164</text>
<text class="small" x="90" y="70">Janela: -3.00 → 5.25 min (relativo ao início do evento)</text>
<text x="90" y="79.00" font-size="14" font-weight="700">Velocidade (km/h)</text>
<rect class="event" x="443.33" y="85.00" width="198.75" height="192.75" />
<line class="eventline" x1="443.33" y1="85.00" x2="443.33" y2="277.75" />
<line class="eventline" x1="642.08" y1="85.00" x2="642.08" y2="277.75" />
<line class="grid" x1="90" y1="277.75" x2="1150" y2="277.75" />
<text class="small" x="80" y="281.75" text-anchor="end">0.00</text>
<line class="grid" x1="90" y1="239.20" x2="1150" y2="239.20" />
<text class="small" x="80" y="243.20" text-anchor="end">5.00</text>
<line class="grid" x1="90" y1="200.65" x2="1150" y2="200.65" />
<text class="small" x="80" y="204.65" text-anchor="end">10.0</text>
<line class="grid" x1="90" y1="162.10" x2="1150" y2="162.10" />
<text class="small" x="80" y="166.10" text-anchor="end">15.0</text>
<line class="grid" x1="90" y1="123.55" x2="1150" y2="123.55" />
<text class="small" x="80" y="127.55" text-anchor="end">20.0</text>
<line class="grid" x1="90" y1="85.00" x2="1150" y2="85.00" />
<text class="small" x="80" y="89.00" text-anchor="end">25.0</text>
<line class="grid" x1="90.00" y1="85.00" x2="90.00" y2="277.75" />
<line class="grid" x1="266.67" y1="85.00" x2="266.67" y2="277.75" />
<line class="grid" x1="443.33" y1="85.00" x2="443.33" y2="277.75" />
<line class="grid" x1="620.00" y1="85.00" x2="620.00" y2="277.75" />
<line class="grid" x1="796.67" y1="85.00" x2="796.67" y2="277.75" />
<line class="grid" x1="973.33" y1="85.00" x2="973.33" y2="277.75" />
<line class="grid" x1="1150.00" y1="85.00" x2="1150.00" y2="277.75" />
<line class="axis" x1="90" y1="85.00" x2="90" y2="277.75" />
<line class="axis" x1="90" y1="277.75" x2="1150" y2="277.75" />
<path class="series" d="M 178.33 258.04 L 179.81 272.48 L 181.28 277.75 L 182.75 277.75 L 184.22 277.75 L 185.69 263.32 L 187.17 253.05 L 188.64 249.72 L 190.11 242.50 L 191.58 241.39 L 193.06 241.11 L 194.53 244.17 L 196.00 244.44 L 197.47 245.28 L 198.94 246.11 L 200.42 248.05 L 201.89 250.27 L 203.36 249.72 L 204.83 250.55 L 206.31 252.77 L 207.78 251.66 L 209.25 248.33 L 210.72 250.83 L 212.19 248.61 L 213.67 248.05 L 215.14 252.21 L 216.61 250.55 L 218.08 250.83 L 219.56 255.55 L 221.03 254.99 L 222.50 250.83 L 223.97 252.21 L 225.44 249.16 L 226.92 247.22 L 228.39 251.38 L 229.86 247.50 L 231.33 249.16 L 232.81 246.66 L 234.28 246.94 L 235.75 257.49 L 237.22 257.77 L 238.69 261.93 L 240.17 264.43 L 241.64 261.65 L 243.11 262.21 L 244.58 256.93 L 246.06 255.27 L 247.53 254.43 L 249.00 257.77 L 250.47 259.99 L 251.94 261.37 L 253.42 260.82 L 254.89 265.54 L 256.36 267.20 L 257.83 268.31 L 259.31 277.75 L 260.78 277.75 L 262.25 277.75 L 263.72 277.75 L 265.19 277.75 L 266.67 277.75 L 268.14 277.75 L 269.61 277.75 L 271.08 277.75 L 272.56 277.75 L 274.03 277.75 L 275.50 277.75 L 276.97 277.75 L 278.44 277.75 L 279.92 277.75 L 281.39 277.75 L 282.86 277.75 L 284.33 277.75 L 285.81 277.75 L 287.28 277.75 L 288.75 277.75 L 290.22 277.75 L 291.69 277.75 L 293.17 277.75 L 294.64 277.75 L 296.11 277.75 L 297.58 277.75 L 299.06 277.75 L 300.53 277.75 L 302.00 277.75 L 303.47 277.75 L 304.94 277.75 L 306.42 277.75 L 307.89 277.75 L 309.36 277.75 L 310.83 277.75 L 312.31 277.75 L 313.78 277.75 L 315.25 277.75 L 316.72 254.99 L 318.19 231.12 L 319.67 241.11 L 321.14 258.32 L 322.61 277.75 L 324.08 277.75 L 325.56 277.75 L 327.03 257.77 L 328.50 252.49 L 329.97 248.33 L 331.44 262.48 L 332.92 277.75 L 334.39 277.75 L 335.86 277.75 L 337.33 277.75 L 338.81 277.75 L 340.28 277.75 L 341.75 277.75 L 343.22 277.75 L 344.69 277.75 L 346.17 277.75 L 347.64 277.75 L 349.11 277.75 L 350.58 277.75 L 352.06 277.75 L 353.53 277.75 L 355.00 277.75 L 356.47 251.94 L 357.94 233.34 L 359.42 221.96 L 360.89 214.74 L 362.36 209.19 L 363.83 210.58 L 365.31 200.31 L 366.78 196.70 L 368.25 196.98 L 369.72 196.42 L 371.19 192.82 L 372.67 189.76 L 374.14 190.04 L 375.61 178.11 L 377.08 173.94 L 378.56 162.56 L 380.03 164.51 L 381.50 161.17 L 382.97 160.62 L 384.44 160.06 L 385.92 165.89 L 387.39 157.01 L 388.86 163.40 L 390.33 169.22 L 391.81 175.89 L 393.28 181.71 L 394.75 181.71 L 396.22 177.83 L 397.69 176.72 L 399.17 176.16 L 400.64 172.83 L 402.11 175.05 L 403.58 173.66 L 405.06 174.50 L 406.53 176.72 L 408.00 174.78 L 409.47 177.55 L 410.94 176.44 L 412.42 176.72 L 413.89 183.38 L 415.36 187.54 L 416.83 187.27 L 418.31 192.82 L 419.78 197.81 L 421.25 196.15 L 422.72 197.54 L 424.19 199.48 L 425.67 216.69 L 427.14 214.19 L 428.61 225.85 L 430.08 237.78 L 431.56 237.78 L 433.03 241.94 L 434.50 247.50 L 435.97 251.38 L 437.44 260.82 L 438.92 262.21 L 440.39 261.93 L 441.86 263.59 L 443.33 277.75 L 444.81 277.75 L 446.28 277.75 L 447.75 277.75 L 449.22 277.75 L 450.69 277.75 L 452.17 277.75 L 453.64 277.75 L 455.11 277.75 L 456.58 277.75 L 458.06 277.75 L 459.53 277.75 L 461.00 277.75 L 462.47 277.75 L 463.94 277.75 L 465.42 277.75 L 466.89 277.75 L 468.36 277.75 L 469.83 277.75 L 471.31 277.75 L 472.78 277.75 L 474.25 277.75 L 475.72 277.75 L 477.19 277.75 L 478.67 277.75 L 480.14 277.75 L 481.61 277.75 L 483.08 277.75 L 484.56 277.75 L 486.03 277.75 L 487.50 277.75 L 488.97 277.75 L 490.44 277.75 L 491.92 277.75 L 493.39 277.75 L 494.86 277.75 L 496.33 277.75 L 497.81 277.75 L 499.28 277.75 L 500.75 277.75 L 502.22 277.75 L 503.69 277.75 L 505.17 277.75 L 506.64 277.75 L 508.11 277.75 L 509.58 277.75 L 511.06 277.75 L 512.53 277.75 L 514.00 277.75 L 515.47 277.75 L 516.94 277.75 L 518.42 277.75 L 519.89 277.75 L 521.36 277.75 L 522.83 277.75 L 524.31 277.75 L 525.78 277.75 L 527.25 277.75 L 528.72 277.75 L 530.19 277.75 L 531.67 277.75 L 533.14 277.75 L 534.61 277.75 L 536.08 277.75 L 537.56 277.75 L 539.03 277.75 L 540.50 277.75 L 541.97 277.75 L 543.44 277.75 L 544.92 277.75 L 546.39 277.75 L 547.86 277.75 L 549.33 277.75 L 550.81 277.75 L 552.28 277.75 L 553.75 277.75 L 555.22 277.75 L 556.69 277.75 L 558.17 277.75 L 559.64 277.75 L 561.11 277.75 L 562.58 277.75 L 564.06 277.75 L 565.53 277.75 L 567.00 277.75 L 568.47 277.75 L 569.94 277.75 L 571.42 277.75 L 572.89 277.75 L 574.36 277.75 L 575.83 277.75 L 577.31 277.75 L 578.78 277.75 L 580.25 277.75 L 581.72 277.75 L 583.19 277.75 L 584.67 277.75 L 586.14 277.75 L 587.61 277.75 L 589.08 277.75 L 590.56 277.75 L 592.03 277.75 L 593.50 277.75 L 594.97 277.75 L 596.44 277.75 L 597.92 277.75 L 599.39 277.75 L 600.86 277.75 L 602.33 277.75 L 603.81 277.75 L 605.28 277.75 L 606.75 277.75 L 608.22 277.75 L 609.69 277.75 L 611.17 277.75 L 612.64 277.75 L 614.11 277.75 L 615.58 277.75 L 617.06 277.75 L 618.53 277.75 L 620.00 277.75 L 621.47 277.75 L 622.94 277.75 L 624.42 277.75 L 625.89 277.75 L 627.36 277.75 L 628.83 277.75 L 630.31 277.75 L 631.78 277.75 L 633.25 277.75 L 634.72 277.75 L 636.19 277.75 L 637.67 277.75 L 639.14 277.75 L 640.61 277.75 L 642.08 277.75 L 643.56 258.88 L 645.03 261.93 L 646.50 260.82 L 647.97 257.77 L 649.44 260.26 L 650.92 263.87 L 652.39 260.26 L 653.86 253.88 L 655.33 255.55 L 656.81 250.27 L 658.28 255.55 L 659.75 257.21 L 661.22 253.88 L 662.69 259.43 L 664.17 263.87 L 665.64 269.15 L 667.11 264.43 L 668.58 263.59 L 670.06 264.43 L 671.53 277.75 L 673.00 277.75 L 674.47 277.75 L 675.94 277.75 L 677.42 277.75 L 678.89 277.75 L 680.36 277.75 L 681.83 277.75 L 683.31 277.75 L 684.78 277.75 L 686.25 277.75 L 687.72 277.75 L 689.19 277.75 L 690.67 277.75 L 692.14 277.75 L 693.61 277.75 L 695.08 277.75 L 696.56 277.75 L 698.03 277.75 L 699.50 277.75 L 700.97 277.75 L 702.44 277.75 L 703.92 277.75 L 705.39 277.75 L 706.86 277.75 L 708.33 277.75 L 709.81 277.75 L 711.28 277.75 L 712.75 277.75 L 714.22 277.75 L 715.69 277.75 L 717.17 277.75 L 718.64 277.75 L 720.11 277.75 L 721.58 277.75 L 723.06 277.75 L 724.53 277.75 L 726.00 277.75 L 727.47 277.75 L 728.94 277.75 L 730.42 277.75 L 731.89 277.75 L 733.36 277.75 L 734.83 277.75 L 736.31 277.75 L 737.78 277.75 L 739.25 277.75 L 740.72 277.75 L 742.19 277.75 L 743.67 277.75 L 745.14 277.75 L 746.61 277.75 L 748.08 277.75 L 749.56 277.75 L 751.03 277.75 L 752.50 277.75 L 753.97 277.75 L 755.44 277.75 L 756.92 277.75 L 758.39 277.75 L 759.86 277.75 L 761.33 277.75 L 762.81 277.75 L 764.28 277.75 L 765.75 277.75 L 767.22 277.75 L 768.69 277.75 L 770.17 277.75 L 771.64 277.75 L 773.11 277.75 L 774.58 277.75 L 776.06 277.75 L 777.53 277.75 L 779.00 277.75 L 780.47 277.75 L 781.94 277.75 L 783.42 277.75 L 784.89 277.75 L 786.36 277.75 L 787.83 277.75 L 789.31 277.75 L 790.78 277.75 L 792.25 277.75 L 793.72 277.75 L 795.19 277.75 L 796.67 277.75 L 798.14 277.75 L 799.61 277.75 L 801.08 277.75 L 802.56 277.75 L 804.03 277.75 L 805.50 277.75 L 806.97 277.75 L 808.44 277.75 L 809.92 277.75 L 811.39 277.75 L 812.86 277.75 L 814.33 277.75 L 815.81 277.75 L 817.28 277.75 L 818.75 277.75 L 820.22 277.75 L 821.69 277.75 L 823.17 277.75 L 824.64 277.75 L 826.11 277.75 L 827.58 277.75 L 829.06 277.75 L 830.53 277.75 L 832.00 277.75 L 833.47 277.75 L 834.94 277.75 L 836.42 277.75 L 837.89 277.75 L 839.36 277.75 L 840.83 277.75 L 842.31 277.75 L 843.78 277.75 L 845.25 277.75 L 846.72 277.75 L 848.19 277.75 L 849.67 277.75 L 851.14 277.75 L 852.61 277.75 L 854.08 277.75 L 855.56 277.75 L 857.03 277.75 L 858.50 277.75 L 859.97 277.75 L 861.44 277.75 L 862.92 277.75 L 864.39 277.75 L 865.86 277.75 L 867.33 277.75 L 868.81 277.75 L 870.28 277.75 L 871.75 277.75 L 873.22 277.75 L 874.69 277.75 L 876.17 277.75 L 877.64 277.75 L 879.11 277.75 L 880.58 277.75 L 882.06 277.75 L 883.53 277.75 L 885.00 277.75 L 886.47 277.75 L 887.94 277.75 L 889.42 277.75 L 890.89 277.75 L 892.36 277.75 L 893.83 277.75 L 895.31 277.75 L 896.78 277.75 L 898.25 277.75 L 899.72 277.75 L 901.19 277.75 L 902.67 277.75 L 904.14 277.75 L 905.61 277.75 L 907.08 277.75" stroke="#1976D2" />
<text x="90" y="289.75" font-size="14" font-weight="700">Inclinação (graus)</text>
<rect class="event" x="443.33" y="295.75" width="198.75" height="192.75" />
<line class="eventline" x1="443.33" y1="295.75" x2="443.33" y2="488.50" />
<line class="eventline" x1="642.08" y1="295.75" x2="642.08" y2="488.50" />
<line class="grid" x1="90" y1="488.50" x2="1150" y2="488.50" />
<text class="small" x="80" y="492.50" text-anchor="end">-10.0</text>
<line class="grid" x1="90" y1="456.38" x2="1150" y2="456.38" />
<text class="small" x="80" y="460.38" text-anchor="end">-5.00</text>
<line class="grid" x1="90" y1="424.25" x2="1150" y2="424.25" />
<text class="small" x="80" y="428.25" text-anchor="end">0.00</text>
<line class="grid" x1="90" y1="392.12" x2="1150" y2="392.12" />
<text class="small" x="80" y="396.12" text-anchor="end">5.00</text>
<line class="grid" x1="90" y1="360.00" x2="1150" y2="360.00" />
<text class="small" x="80" y="364.00" text-anchor="end">10.0</text>
<line class="grid" x1="90" y1="327.88" x2="1150" y2="327.88" />
<text class="small" x="80" y="331.88" text-anchor="end">15.0</text>
<line class="grid" x1="90" y1="295.75" x2="1150" y2="295.75" />
<text class="small" x="80" y="299.75" text-anchor="end">20.0</text>
<line class="grid" x1="90.00" y1="295.75" x2="90.00" y2="488.50" />
<line class="grid" x1="266.67" y1="295.75" x2="266.67" y2="488.50" />
<line class="grid" x1="443.33" y1="295.75" x2="443.33" y2="488.50" />
<line class="grid" x1="620.00" y1="295.75" x2="620.00" y2="488.50" />
<line class="grid" x1="796.67" y1="295.75" x2="796.67" y2="488.50" />
<line class="grid" x1="973.33" y1="295.75" x2="973.33" y2="488.50" />
<line class="grid" x1="1150.00" y1="295.75" x2="1150.00" y2="488.50" />
<line class="axis" x1="90" y1="295.75" x2="90" y2="488.50" />
<line class="axis" x1="90" y1="488.50" x2="1150" y2="488.50" />
<path class="series" d="M 178.33 329.82 L 179.81 319.92 L 181.28 355.55 L 182.75 349.00 L 184.22 338.72 L 185.69 340.44 L 187.17 336.95 L 188.64 345.41 L 190.11 336.36 L 191.58 342.60 L 193.06 340.44 L 194.53 342.21 L 196.00 344.36 L 197.47 342.24 L 198.94 349.64 L 200.42 343.30 L 201.89 341.03 L 203.36 340.61 L 204.83 346.77 L 206.31 344.30 L 207.78 343.91 L 209.25 341.95 L 210.72 344.98 L 212.19 345.31 L 213.67 349.86 L 215.14 348.47 L 216.61 346.49 L 218.08 351.63 L 219.56 349.81 L 221.03 354.17 L 222.50 344.29 L 223.97 352.49 L 225.44 352.63 L 226.92 358.30 L 228.39 358.63 L 229.86 355.65 L 231.33 359.34 L 232.81 355.54 L 234.28 359.97 L 235.75 373.40 L 237.22 362.78 L 238.69 359.00 L 240.17 356.14 L 241.64 354.36 L 243.11 352.44 L 244.58 350.91 L 246.06 356.68 L 247.53 360.12 L 249.00 361.20 L 250.47 361.87 L 251.94 359.73 L 253.42 364.45 L 254.89 363.48 L 256.36 365.88 L 257.83 365.82 L 259.31 375.49 L 260.78 362.21 L 262.25 363.63 L 263.72 363.94 L 265.19 364.01 L 266.67 363.44 L 268.14 363.13 L 269.61 363.00 L 271.08 362.67 L 272.56 362.95 L 274.03 362.91 L 275.50 362.95 L 276.97 363.14 L 278.44 363.51 L 279.92 363.28 L 281.39 362.18 L 282.86 363.00 L 284.33 363.05 L 285.81 362.83 L 287.28 362.85 L 288.75 366.52 L 290.22 359.79 L 291.69 363.91 L 293.17 364.52 L 294.64 363.92 L 296.11 363.84 L 297.58 363.81 L 299.06 363.73 L 300.53 364.18 L 302.00 364.18 L 303.47 364.29 L 304.94 363.01 L 306.42 366.63 L 307.89 364.21 L 309.36 363.91 L 310.83 366.09 L 312.31 365.04 L 313.78 371.44 L 315.25 383.81 L 316.72 402.43 L 318.19 360.19 L 319.67 352.21 L 321.14 324.53 L 322.61 362.02 L 324.08 359.55 L 325.56 381.34 L 327.03 378.17 L 328.50 371.89 L 329.97 360.79 L 331.44 321.00 L 332.92 360.50 L 334.39 360.28 L 335.86 359.72 L 337.33 359.65 L 338.81 359.56 L 340.28 359.32 L 341.75 359.08 L 343.22 358.93 L 344.69 358.85 L 346.17 358.63 L 347.64 358.71 L 349.11 359.73 L 350.58 356.95 L 352.06 358.55 L 353.53 364.95 L 355.00 391.21 L 356.47 381.71 L 357.94 384.75 L 359.42 352.44 L 360.89 376.58 L 362.36 352.52 L 363.83 365.75 L 365.31 354.32 L 366.78 329.71 L 368.25 341.74 L 369.72 331.58 L 371.19 332.04 L 372.67 343.94 L 374.14 368.81 L 375.61 362.60 L 377.08 363.45 L 378.56 353.93 L 380.03 355.65 L 381.50 351.26 L 382.97 348.13 L 384.44 337.82 L 385.92 348.40 L 387.39 338.13 L 388.86 333.62 L 390.33 335.29 L 391.81 330.21 L 393.28 345.67 L 394.75 362.09 L 396.22 354.78 L 397.69 342.64 L 399.17 347.36 L 400.64 347.11 L 402.11 350.93 L 403.58 350.52 L 405.06 348.46 L 406.53 351.36 L 408.00 342.09 L 409.47 338.66 L 410.94 340.73 L 412.42 330.56 L 413.89 341.57 L 415.36 351.35 L 416.83 342.75 L 418.31 348.12 L 419.78 345.77 L 421.25 349.92 L 422.72 349.02 L 424.19 334.68 L 425.67 330.00 L 427.14 339.81 L 428.61 335.79 L 430.08 351.42 L 431.56 349.00 L 433.03 343.54 L 434.50 346.39 L 435.97 342.33 L 437.44 346.61 L 438.92 349.51 L 440.39 344.75 L 441.86 336.01 L 443.33 342.19 L 444.81 339.13 L 446.28 343.71 L 447.75 344.46 L 449.22 344.38 L 450.69 344.27 L 452.17 344.32 L 453.64 344.26 L 455.11 344.31 L 456.58 344.27 L 458.06 344.25 L 459.53 344.25 L 461.00 344.22 L 462.47 344.28 L 463.94 344.30 L 465.42 344.28 L 466.89 344.27 L 468.36 344.33 L 469.83 344.33 L 471.31 344.33 L 472.78 344.23 L 474.25 344.36 L 475.72 344.30 L 477.19 344.23 L 478.67 344.26 L 480.14 344.32 L 481.61 344.25 L 483.08 344.26 L 484.56 344.31 L 486.03 344.24 L 487.50 344.29 L 488.97 344.23 L 490.44 344.31 L 491.92 344.33 L 493.39 344.24 L 494.86 344.28 L 496.33 344.28 L 497.81 344.36 L 499.28 344.33 L 500.75 344.42 L 502.22 344.36 L 503.69 344.33 L 505.17 344.39 L 506.64 344.42 L 508.11 344.37 L 509.58 344.25 L 511.06 344.36 L 512.53 344.37 L 514.00 344.39 L 515.47 344.32 L 516.94 344.30 L 518.42 344.27 L 519.89 344.42 L 521.36 344.31 L 522.83 344.31 L 524.31 344.33 L 525.78 344.42 L 527.25 344.33 L 528.72 344.29 L 530.19 344.43 L 531.67 344.32 L 533.14 344.31 L 534.61 344.36 L 536.08 344.33 L 537.56 344.28 L 539.03 344.38 L 540.50 344.26 L 541.97 344.37 L 543.44 344.34 L 544.92 344.33 L 546.39 344.44 L 547.86 344.28 L 549.33 344.33 L 550.81 344.29 L 552.28 344.27 L 553.75 344.35 L 555.22 344.29 L 556.69 344.48 L 558.17 344.36 L 559.64 344.37 L 561.11 344.35 L 562.58 344.35 L 564.06 344.33 L 565.53 344.36 L 567.00 344.31 L 568.47 344.37 L 569.94 344.38 L 571.42 344.29 L 572.89 344.43 L 574.36 344.28 L 575.83 344.37 L 577.31 344.41 L 578.78 344.31 L 580.25 344.37 L 581.72 344.31 L 583.19 344.36 L 584.67 344.29 L 586.14 344.38 L 587.61 344.31 L 589.08 344.38 L 590.56 344.35 L 592.03 344.33 L 593.50 344.32 L 594.97 344.35 L 596.44 344.33 L 597.92 344.30 L 599.39 344.44 L 600.86 344.31 L 602.33 344.34 L 603.81 344.23 L 605.28 344.39 L 606.75 344.30 L 608.22 344.21 L 609.69 344.36 L 611.17 344.24 L 612.64 344.36 L 614.11 344.37 L 615.58 344.38 L 617.06 344.21 L 618.53 344.26 L 620.00 344.22 L 621.47 344.29 L 622.94 344.27 L 624.42 344.20 L 625.89 344.22 L 627.36 344.36 L 628.83 343.83 L 630.31 344.27 L 631.78 347.27 L 633.25 347.34 L 634.72 337.67 L 636.19 343.42 L 637.67 343.47 L 639.14 343.58 L 640.61 365.61 L 642.08 347.19 L 643.56 344.42 L 645.03 340.14 L 646.50 344.56 L 647.97 343.14 L 649.44 336.01 L 650.92 349.34 L 652.39 347.40 L 653.86 349.36 L 655.33 346.34 L 656.81 340.04 L 658.28 349.84 L 659.75 346.19 L 661.22 346.33 L 662.69 339.26 L 664.17 345.75 L 665.64 349.84 L 667.11 353.39 L 668.58 352.11 L 670.06 328.10 L 671.53 351.42 L 673.00 349.15 L 674.47 349.09 L 675.94 348.88 L 677.42 349.59 L 678.89 348.98 L 680.36 349.23 L 681.83 349.22 L 683.31 349.23 L 684.78 349.31 L 686.25 349.24 L 687.72 349.24 L 689.19 349.24 L 690.67 349.24 L 692.14 349.25 L 693.61 349.24 L 695.08 349.22 L 696.56 349.25 L 698.03 349.19 L 699.50 349.24 L 700.97 349.23 L 702.44 349.28 L 703.92 349.29 L 705.39 349.28 L 706.86 349.33 L 708.33 349.35 L 709.81 349.31 L 711.28 349.11 L 712.75 349.13 L 714.22 349.39 L 715.69 349.33 L 717.17 349.28 L 718.64 349.35 L 720.11 349.31 L 721.58 349.25 L 723.06 349.28 L 724.53 349.28 L 726.00 349.25 L 727.47 349.27 L 728.94 349.27 L 730.42 349.25 L 731.89 349.30 L 733.36 349.25 L 734.83 349.28 L 736.31 349.25 L 737.78 349.26 L 739.25 349.28 L 740.72 349.29 L 742.19 349.31 L 743.67 349.36 L 745.14 349.36 L 746.61 350.07 L 748.08 349.49 L 749.56 349.90 L 751.03 349.96 L 752.50 350.04 L 753.97 350.02 L 755.44 349.98 L 756.92 349.91 L 758.39 349.93 L 759.86 349.13 L 761.33 349.43 L 762.81 349.17 L 764.28 349.25 L 765.75 349.00 L 767.22 348.94 L 768.69 348.95 L 770.17 348.98 L 771.64 349.09 L 773.11 349.10 L 774.58 349.63 L 776.06 349.46 L 777.53 349.46 L 779.00 349.38 L 780.47 349.35 L 781.94 349.71 L 783.42 349.82 L 784.89 349.91 L 786.36 349.84 L 787.83 349.90 L 789.31 349.86 L 790.78 349.88 L 792.25 349.91 L 793.72 349.94 L 795.19 349.82 L 796.67 349.90 L 798.14 349.89 L 799.61 349.88 L 801.08 349.92 L 802.56 349.81 L 804.03 349.98 L 805.50 349.97 L 806.97 349.96 L 808.44 349.88 L 809.92 350.14 L 811.39 351.47 L 812.86 350.30 L 814.33 350.18 L 815.81 350.17 L 817.28 350.19 L 818.75 350.35 L 820.22 350.43 L 821.69 350.34 L 823.17 350.19 L 824.64 350.16 L 826.11 350.16 L 827.58 350.14 L 829.06 350.08 L 830.53 350.20 L 832.00 350.18 L 833.47 350.20 L 834.94 350.24 L 836.42 350.17 L 837.89 350.15 L 839.36 350.17 L 840.83 350.21 L 842.31 350.14 L 843.78 350.18 L 845.25 350.13 L 846.72 350.11 L 848.19 350.23 L 849.67 350.22 L 851.14 350.21 L 852.61 350.23 L 854.08 350.17 L 855.56 350.13 L 857.03 350.19 L 858.50 350.12 L 859.97 350.14 L 861.44 350.15 L 862.92 350.12 L 864.39 350.20 L 865.86 350.13 L 867.33 349.76 L 868.81 349.66 L 870.28 349.66 L 871.75 349.68 L 873.22 349.76 L 874.69 349.74 L 876.17 349.74 L 877.64 349.73 L 879.11 349.77 L 880.58 349.75 L 882.06 349.75 L 883.53 349.74 L 885.00 349.73 L 886.47 349.69 L 887.94 349.70 L 889.42 349.72 L 890.89 349.73 L 892.36 349.70 L 893.83 349.72 L 895.31 349.71 L 896.78 349.69 L 898.25 349.73 L 899.72 349.70 L 901.19 349.70 L 902.67 349.71 L 904.14 349.70 L 905.61 349.77 L 907.08 349.68" stroke="#2E7D32" />
<path class="series" d="M 178.33 415.19 L 179.81 401.49 L 181.28 412.98 L 182.75 413.55 L 184.22 414.61 L 185.69 417.26 L 187.17 420.19 L 188.64 407.76 L 190.11 424.84 L 191.58 411.17 L 193.06 404.91 L 194.53 411.20 L 196.00 409.90 L 197.47 403.69 L 198.94 413.69 L 200.42 399.66 L 201.89 408.62 L 203.36 391.35 L 204.83 411.81 L 206.31 411.87 L 207.78 414.97 L 209.25 409.07 L 210.72 417.02 L 212.19 409.61 L 213.67 417.50 L 215.14 412.89 L 216.61 409.02 L 218.08 421.85 L 219.56 410.39 L 221.03 410.34 L 222.50 406.93 L 223.97 403.68 L 225.44 403.25 L 226.92 405.91 L 228.39 428.09 L 229.86 409.87 L 231.33 426.08 L 232.81 418.41 L 234.28 416.57 L 235.75 431.32 L 237.22 422.79 L 238.69 417.29 L 240.17 414.16 L 241.64 419.25 L 243.11 420.98 L 244.58 416.14 L 246.06 420.24 L 247.53 419.88 L 249.00 415.07 L 250.47 421.56 L 251.94 421.97 L 253.42 417.38 L 254.89 413.79 L 256.36 419.99 L 257.83 420.98 L 259.31 416.00 L 260.78 420.88 L 262.25 420.58 L 263.72 421.29 L 265.19 420.70 L 266.67 419.14 L 268.14 421.13 L 269.61 420.67 L 271.08 420.60 L 272.56 420.84 L 274.03 420.39 L 275.50 420.88 L 276.97 420.83 L 278.44 421.00 L 279.92 421.20 L 281.39 419.86 L 282.86 421.63 L 284.33 420.47 L 285.81 420.77 L 287.28 420.68 L 288.75 422.10 L 290.22 419.80 L 291.69 420.74 L 293.17 420.98 L 294.64 421.43 L 296.11 421.06 L 297.58 420.91 L 299.06 421.31 L 300.53 421.01 L 302.00 421.44 L 303.47 420.97 L 304.94 420.92 L 306.42 422.71 L 307.89 421.92 L 309.36 421.05 L 310.83 423.24 L 312.31 421.51 L 313.78 420.68 L 315.25 419.02 L 316.72 418.85 L 318.19 427.60 L 319.67 425.94 L 321.14 416.43 L 322.61 417.89 L 324.08 419.83 L 325.56 420.76 L 327.03 416.91 L 328.50 420.32 L 329.97 428.57 L 331.44 419.23 L 332.92 422.75 L 334.39 421.79 L 335.86 421.55 L 337.33 423.08 L 338.81 423.58 L 340.28 422.31 L 341.75 422.62 L 343.22 423.13 L 344.69 422.33 L 346.17 423.06 L 347.64 422.54 L 349.11 423.31 L 350.58 421.69 L 352.06 423.20 L 353.53 422.78 L 355.00 425.33 L 356.47 430.32 L 357.94 430.32 L 359.42 423.14 L 360.89 427.24 L 362.36 395.32 L 363.83 408.87 L 365.31 399.83 L 366.78 384.60 L 368.25 396.07 L 369.72 389.65 L 371.19 396.49 L 372.67 409.67 L 374.14 416.21 L 375.61 415.13 L 377.08 408.11 L 378.56 409.37 L 380.03 421.90 L 381.50 404.21 L 382.97 402.96 L 384.44 413.56 L 385.92 420.85 L 387.39 431.46 L 388.86 427.43 L 390.33 429.03 L 391.81 430.00 L 393.28 426.28 L 394.75 427.84 L 396.22 421.17 L 397.69 412.91 L 399.17 410.67 L 400.64 419.54 L 402.11 427.65 L 403.58 423.62 L 405.06 418.76 L 406.53 430.64 L 408.00 446.22 L 409.47 441.23 L 410.94 456.53 L 412.42 419.19 L 413.89 437.63 L 415.36 442.94 L 416.83 445.88 L 418.31 445.66 L 419.78 443.17 L 421.25 447.61 L 422.72 452.71 L 424.19 458.17 L 425.67 446.94 L 427.14 418.71 L 428.61 420.83 L 430.08 432.70 L 431.56 423.58 L 433.03 430.29 L 434.50 426.49 L 435.97 425.55 L 437.44 426.23 L 438.92 425.08 L 440.39 431.00 L 441.86 426.06 L 443.33 427.24 L 444.81 428.07 L 446.28 427.75 L 447.75 427.91 L 449.22 427.54 L 450.69 427.93 L 452.17 427.89 L 453.64 428.13 L 455.11 427.75 L 456.58 428.08 L 458.06 428.06 L 459.53 428.00 L 461.00 428.10 L 462.47 428.05 L 463.94 428.02 L 465.42 427.98 L 466.89 427.99 L 468.36 427.97 L 469.83 427.99 L 471.31 427.99 L 472.78 428.08 L 474.25 428.07 L 475.72 428.02 L 477.19 428.04 L 478.67 428.18 L 480.14 427.98 L 481.61 428.17 L 483.08 428.10 L 484.56 428.07 L 486.03 428.12 L 487.50 428.05 L 488.97 428.16 L 490.44 428.13 L 491.92 428.04 L 493.39 428.17 L 494.86 428.05 L 496.33 428.22 L 497.81 428.06 L 499.28 428.16 L 500.75 428.17 L 502.22 428.19 L 503.69 428.20 L 505.17 428.18 L 506.64 428.09 L 508.11 428.19 L 509.58 428.26 L 511.06 428.16 L 512.53 428.17 L 514.00 428.15 L 515.47 428.19 L 516.94 428.24 L 518.42 428.12 L 519.89 428.12 L 521.36 428.14 L 522.83 428.23 L 524.31 428.08 L 525.78 428.11 L 527.25 428.25 L 528.72 428.17 L 530.19 428.21 L 531.67 428.09 L 533.14 428.14 L 534.61 428.06 L 536.08 428.18 L 537.56 428.22 L 539.03 428.06 L 540.50 428.17 L 541.97 428.16 L 543.44 428.11 L 544.92 428.11 L 546.39 428.08 L 547.86 428.17 L 549.33 428.05 L 550.81 428.07 L 552.28 428.11 L 553.75 428.13 L 555.22 428.16 L 556.69 428.12 L 558.17 428.11 L 559.64 428.14 L 561.11 428.07 L 562.58 428.15 L 564.06 428.17 L 565.53 428.20 L 567.00 428.12 L 568.47 428.11 L 569.94 428.10 L 571.42 428.27 L 572.89 428.01 L 574.36 428.20 L 575.83 428.13 L 577.31 428.12 L 578.78 428.11 L 580.25 428.08 L 581.72 428.09 L 583.19 428.14 L 584.67 428.16 L 586.14 428.10 L 587.61 428.18 L 589.08 428.11 L 590.56 428.07 L 592.03 428.10 L 593.50 428.18 L 594.97 428.05 L 596.44 428.20 L 597.92 428.13 L 599.39 428.06 L 600.86 428.16 L 602.33 428.16 L 603.81 428.16 L 605.28 428.04 L 606.75 428.09 L 608.22 428.25 L 609.69 428.00 L 611.17 428.24 L 612.64 428.12 L 614.11 428.09 L 615.58 428.13 L 617.06 428.03 L 618.53 428.08 L 620.00 428.08 L 621.47 428.03 L 622.94 427.97 L 624.42 428.10 L 625.89 427.96 L 627.36 428.37 L 628.83 426.81 L 630.31 427.64 L 631.78 427.36 L 633.25 427.79 L 634.72 427.07 L 636.19 426.18 L 637.67 427.05 L 639.14 426.61 L 640.61 426.21 L 642.08 424.32 L 643.56 427.30 L 645.03 429.61 L 646.50 426.88 L 647.97 430.85 L 649.44 424.27 L 650.92 415.60 L 652.39 428.05 L 653.86 429.42 L 655.33 424.67 L 656.81 426.56 L 658.28 423.86 L 659.75 421.66 L 661.22 424.38 L 662.69 418.36 L 664.17 419.26 L 665.64 422.27 L 667.11 418.85 L 668.58 420.18 L 670.06 421.18 L 671.53 417.80 L 673.00 419.77 L 674.47 418.87 L 675.94 418.45 L 677.42 420.00 L 678.89 418.98 L 680.36 419.25 L 681.83 419.43 L 683.31 419.26 L 684.78 419.32 L 686.25 419.29 L 687.72 419.26 L 689.19 419.32 L 690.67 419.33 L 692.14 419.31 L 693.61 419.34 L 695.08 419.33 L 696.56 419.33 L 698.03 419.34 L 699.50 419.37 L 700.97 419.30 L 702.44 419.34 L 703.92 419.41 L 705.39 419.32 L 706.86 419.36 L 708.33 419.37 L 709.81 419.41 L 711.28 418.82 L 712.75 419.08 L 714.22 419.14 L 715.69 419.16 L 717.17 419.09 L 718.64 419.13 L 720.11 419.11 L 721.58 419.13 L 723.06 419.11 L 724.53 419.14 L 726.00 419.17 L 727.47 419.10 L 728.94 419.16 L 730.42 419.13 L 731.89 419.16 L 733.36 419.12 L 734.83 419.13 L 736.31 419.12 L 737.78 419.16 L 739.25 419.09 L 740.72 419.16 L 742.19 419.18 L 743.67 419.24 L 745.14 419.49 L 746.61 418.92 L 748.08 419.68 L 749.56 419.19 L 751.03 419.30 L 752.50 419.43 L 753.97 419.36 L 755.44 419.22 L 756.92 419.39 L 758.39 420.09 L 759.86 419.95 L 761.33 419.60 L 762.81 419.47 L 764.28 419.39 L 765.75 419.56 L 767.22 419.56 L 768.69 419.64 L 770.17 419.70 L 771.64 419.62 L 773.11 419.52 L 774.58 419.95 L 776.06 420.51 L 777.53 420.51 L 779.00 420.73 L 780.47 420.63 L 781.94 420.41 L 783.42 420.32 L 784.89 420.26 L 786.36 420.27 L 787.83 420.27 L 789.31 420.12 L 790.78 420.15 L 792.25 420.37 L 793.72 420.22 L 795.19 420.06 L 796.67 420.15 L 798.14 420.18 L 799.61 420.06 L 801.08 420.16 L 802.56 420.22 L 804.03 420.08 L 805.50 420.15 L 806.97 420.10 L 808.44 420.12 L 809.92 419.50 L 811.39 419.19 L 812.86 418.97 L 814.33 419.19 L 815.81 419.24 L 817.28 419.12 L 818.75 419.22 L 820.22 419.25 L 821.69 419.32 L 823.17 419.24 L 824.64 419.13 L 826.11 419.27 L 827.58 419.27 L 829.06 419.14 L 830.53 419.33 L 832.00 419.20 L 833.47 419.26 L 834.94 419.21 L 836.42 419.29 L 837.89 419.25 L 839.36 419.28 L 840.83 419.24 L 842.31 419.28 L 843.78 419.28 L 845.25 419.33 L 846.72 419.29 L 848.19 419.33 L 849.67 419.35 L 851.14 419.31 L 852.61 419.34 L 854.08 419.28 L 855.56 419.32 L 857.03 419.28 L 858.50 419.28 L 859.97 419.21 L 861.44 419.33 L 862.92 419.22 L 864.39 419.30 L 865.86 419.35 L 867.33 419.49 L 868.81 419.15 L 870.28 419.28 L 871.75 419.04 L 873.22 419.25 L 874.69 419.34 L 876.17 419.13 L 877.64 419.17 L 879.11 419.32 L 880.58 419.20 L 882.06 419.22 L 883.53 419.24 L 885.00 419.23 L 886.47 419.17 L 887.94 419.20 L 889.42 419.24 L 890.89 419.30 L 892.36 419.30 L 893.83 419.27 L 895.31 419.27 L 896.78 419.27 L 898.25 419.25 L 899.72 419.25 L 901.19 419.25 L 902.67 419.21 L 904.14 419.28 L 905.61 419.24 L 907.08 419.28" stroke="#6A1B9A" />
<line x1="900.00" y1="307.75" x2="918.00" y2="307.75" stroke="#2E7D32" stroke-width="3" />
<text class="small" x="924.00" y="311.75">pitch</text>
<line x1="900.00" y1="323.75" x2="918.00" y2="323.75" stroke="#6A1B9A" stroke-width="3" />
<text class="small" x="924.00" y="327.75">roll</text>
<text x="90" y="500.50" font-size="14" font-weight="700">Aceleração (magnitude) (u.a.)</text>
<rect class="event" x="443.33" y="506.50" width="198.75" height="192.75" />
<line class="eventline" x1="443.33" y1="506.50" x2="443.33" y2="699.25" />
<line class="eventline" x1="642.08" y1="506.50" x2="642.08" y2="699.25" />
<line class="grid" x1="90" y1="699.25" x2="1150" y2="699.25" />
<text class="small" x="80" y="703.25" text-anchor="end">0.00</text>
<line class="grid" x1="90" y1="660.70" x2="1150" y2="660.70" />
<text class="small" x="80" y="664.70" text-anchor="end">0.50</text>
<line class="grid" x1="90" y1="622.15" x2="1150" y2="622.15" />
<text class="small" x="80" y="626.15" text-anchor="end">1.00</text>
<line class="grid" x1="90" y1="583.60" x2="1150" y2="583.60" />
<text class="small" x="80" y="587.60" text-anchor="end">1.50</text>
<line class="grid" x1="90" y1="545.05" x2="1150" y2="545.05" />
<text class="small" x="80" y="549.05" text-anchor="end">2.00</text>
<line class="grid" x1="90" y1="506.50" x2="1150" y2="506.50" />
<text class="small" x="80" y="510.50" text-anchor="end">2.50</text>
<line class="grid" x1="90.00" y1="506.50" x2="90.00" y2="699.25" />
<line class="grid" x1="266.67" y1="506.50" x2="266.67" y2="699.25" />
<line class="grid" x1="443.33" y1="506.50" x2="443.33" y2="699.25" />
<line class="grid" x1="620.00" y1="506.50" x2="620.00" y2="699.25" />
<line class="grid" x1="796.67" y1="506.50" x2="796.67" y2="699.25" />
<line class="grid" x1="973.33" y1="506.50" x2="973.33" y2="699.25" />
<line class="grid" x1="1150.00" y1="506.50" x2="1150.00" y2="699.25" />
<line class="axis" x1="90" y1="506.50" x2="90" y2="699.25" />
<line class="axis" x1="90" y1="699.25" x2="1150" y2="699.25" />
<path class="series" d="M 178.33 665.19 L 179.81 675.96 L 181.28 673.97 L 182.75 692.13 L 184.22 686.42 L 185.69 677.58 L 187.17 690.32 L 188.64 681.66 L 190.11 693.38 L 191.58 670.69 L 193.06 661.49 L 194.53 685.79 L 196.00 686.13 L 197.47 691.53 L 198.94 690.06 L 200.42 690.16 L 201.89 687.44 L 203.36 689.19 L 204.83 693.39 L 206.31 690.92 L 207.78 691.09 L 209.25 683.08 L 210.72 679.33 L 212.19 678.57 L 213.67 685.22 L 215.14 685.69 L 216.61 693.84 L 218.08 695.14 L 219.56 695.67 L 221.03 693.89 L 222.50 683.01 L 223.97 693.31 L 225.44 691.43 L 226.92 694.14 L 228.39 694.84 L 229.86 694.60 L 231.33 696.74 L 232.81 682.66 L 234.28 676.09 L 235.75 690.23 L 237.22 695.96 L 238.69 691.80 L 240.17 696.49 L 241.64 693.90 L 243.11 697.35 L 244.58 691.58 L 246.06 691.17 L 247.53 694.40 L 249.00 695.86 L 250.47 695.48 L 251.94 694.36 L 253.42 696.93 L 254.89 692.10 L 256.36 692.84 L 257.83 687.88 L 259.31 695.93 L 260.78 693.22 L 262.25 697.25 L 263.72 696.63 L 265.19 697.69 L 266.67 697.31 L 268.14 697.91 L 269.61 697.75 L 271.08 697.08 L 272.56 696.64 L 274.03 696.55 L 275.50 697.55 L 276.97 697.61 L 278.44 696.81 L 279.92 698.22 L 281.39 694.68 L 282.86 695.86 L 284.33 696.11 L 285.81 697.93 L 287.28 698.23 L 288.75 698.23 L 290.22 695.58 L 291.69 688.90 L 293.17 696.41 L 294.64 698.49 L 296.11 697.86 L 297.58 696.02 L 299.06 696.84 L 300.53 698.71 L 302.00 697.75 L 303.47 698.15 L 304.94 689.42 L 306.42 690.35 L 307.89 694.12 L 309.36 697.05 L 310.83 696.91 L 312.31 696.39 L 313.78 693.87 L 315.25 691.24 L 316.72 655.69 L 318.19 675.96 L 319.67 655.07 L 321.14 643.76 L 322.61 681.67 L 324.08 686.86 L 325.56 667.42 L 327.03 672.91 L 328.50 690.99 L 329.97 667.79 L 331.44 624.13 L 332.92 684.57 L 334.39 694.89 L 335.86 694.31 L 337.33 696.78 L 338.81 697.97 L 340.28 697.96 L 341.75 695.93 L 343.22 696.74 L 344.69 698.84 L 346.17 698.26 L 347.64 698.66 L 349.11 696.77 L 350.58 696.54 L 352.06 697.39 L 353.53 696.96 L 355.00 651.09 L 356.47 675.69 L 357.94 660.13 L 359.42 642.60 L 360.89 673.31 L 362.36 652.67 L 363.83 675.64 L 365.31 666.38 L 366.78 658.47 L 368.25 659.43 L 369.72 668.50 L 371.19 666.85 L 372.67 667.82 L 374.14 666.18 L 375.61 680.36 L 377.08 690.06 L 378.56 681.35 L 380.03 689.74 L 381.50 689.02 L 382.97 687.00 L 384.44 671.09 L 385.92 697.07 L 387.39 684.05 L 388.86 686.56 L 390.33 685.72 L 391.81 684.92 L 393.28 695.96 L 394.75 679.49 L 396.22 670.39 L 397.69 687.72 L 399.17 687.11 L 400.64 687.08 L 402.11 694.12 L 403.58 691.11 L 405.06 695.33 L 406.53 691.85 L 408.00 655.94 L 409.47 668.02 L 410.94 662.35 L 412.42 673.07 L 413.89 668.99 L 415.36 676.20 L 416.83 672.82 L 418.31 689.05 L 419.78 677.18 L 421.25 688.55 L 422.72 683.56 L 424.19 666.33 L 425.67 656.19 L 427.14 636.54 L 428.61 652.39 L 430.08 687.74 L 431.56 673.08 L 433.03 685.39 L 434.50 692.20 L 435.97 681.81 L 437.44 692.58 L 438.92 692.89 L 440.39 691.09 L 441.86 683.74 L 443.33 696.84 L 444.81 697.36 L 446.28 689.27 L 447.75 692.21 L 449.22 697.08 L 450.69 698.13 L 452.17 698.55 L 453.64 698.48 L 455.11 698.17 L 456.58 698.66 L 458.06 698.86 L 459.53 698.55 L 461.00 698.54 L 462.47 698.53 L 463.94 698.53 L 465.42 698.62 L 466.89 698.92 L 468.36 698.84 L 469.83 698.94 L 471.31 699.18 L 472.78 699.07 L 474.25 699.03 L 475.72 699.13 L 477.19 699.20 L 478.67 699.15 L 480.14 699.20 L 481.61 699.05 L 483.08 699.15 L 484.56 699.05 L 486.03 698.93 L 487.50 699.03 L 488.97 699.15 L 490.44 699.16 L 491.92 699.20 L 493.39 699.19 L 494.86 699.18 L 496.33 699.02 L 497.81 698.97 L 499.28 699.11 L 500.75 699.07 L 502.22 699.13 L 503.69 698.99 L 505.17 699.08 L 506.64 699.10 L 508.11 699.10 L 509.58 699.02 L 511.06 699.22 L 512.53 698.89 L 514.00 699.12 L 515.47 698.98 L 516.94 699.20 L 518.42 699.06 L 519.89 698.78 L 521.36 698.81 L 522.83 698.99 L 524.31 699.13 L 525.78 699.03 L 527.25 699.06 L 528.72 698.97 L 530.19 699.05 L 531.67 699.04 L 533.14 698.99 L 534.61 699.08 L 536.08 698.99 L 537.56 699.14 L 539.03 699.15 L 540.50 699.01 L 541.97 699.13 L 543.44 699.01 L 544.92 699.09 L 546.39 699.13 L 547.86 699.02 L 549.33 699.04 L 550.81 699.09 L 552.28 699.21 L 553.75 699.05 L 555.22 699.06 L 556.69 699.06 L 558.17 699.06 L 559.64 699.17 L 561.11 698.89 L 562.58 699.05 L 564.06 698.92 L 565.53 699.03 L 567.00 699.14 L 568.47 698.94 L 569.94 699.05 L 571.42 698.97 L 572.89 698.93 L 574.36 698.98 L 575.83 699.07 L 577.31 699.16 L 578.78 699.17 L 580.25 699.12 L 581.72 699.05 L 583.19 698.96 L 584.67 699.18 L 586.14 699.14 L 587.61 699.10 L 589.08 699.04 L 590.56 699.00 L 592.03 698.94 L 593.50 699.08 L 594.97 698.91 L 596.44 699.10 L 597.92 698.99 L 599.39 698.87 L 600.86 699.06 L 602.33 699.19 L 603.81 699.18 L 605.28 699.10 L 606.75 699.11 L 608.22 699.05 L 609.69 699.09 L 611.17 699.06 L 612.64 698.96 L 614.11 698.99 L 615.58 698.89 L 617.06 699.18 L 618.53 699.20 L 620.00 699.02 L 621.47 699.11 L 622.94 699.09 L 624.42 698.79 L 625.89 698.93 L 627.36 698.16 L 628.83 698.02 L 630.31 699.12 L 631.78 699.12 L 633.25 684.00 L 634.72 679.48 L 636.19 698.11 L 637.67 698.83 L 639.14 698.78 L 640.61 688.27 L 642.08 678.03 L 643.56 694.83 L 645.03 687.35 L 646.50 691.56 L 647.97 694.47 L 649.44 679.29 L 650.92 686.01 L 652.39 695.76 L 653.86 683.91 L 655.33 692.62 L 656.81 696.27 L 658.28 693.97 L 659.75 684.55 L 661.22 698.66 L 662.69 686.60 L 664.17 689.64 L 665.64 692.38 L 667.11 680.19 L 668.58 697.33 L 670.06 674.25 L 671.53 696.97 L 673.00 693.16 L 674.47 695.80 L 675.94 698.54 L 677.42 697.94 L 678.89 698.65 L 680.36 698.28 L 681.83 697.64 L 683.31 698.80 L 684.78 699.13 L 686.25 699.13 L 687.72 699.11 L 689.19 699.19 L 690.67 699.09 L 692.14 699.19 L 693.61 699.18 L 695.08 699.23 L 696.56 699.18 L 698.03 699.13 L 699.50 699.12 L 700.97 699.17 L 702.44 699.20 L 703.92 699.13 L 705.39 699.16 L 706.86 699.14 L 708.33 699.14 L 709.81 699.13 L 711.28 699.11 L 712.75 699.02 L 714.22 699.13 L 715.69 699.15 L 717.17 699.11 L 718.64 699.11 L 720.11 699.21 L 721.58 699.11 L 723.06 699.18 L 724.53 699.15 L 726.00 699.16 L 727.47 699.16 L 728.94 699.11 L 730.42 699.19 L 731.89 699.23 L 733.36 699.15 L 734.83 699.10 L 736.31 699.18 L 737.78 699.19 L 739.25 699.21 L 740.72 699.17 L 742.19 699.14 L 743.67 699.12 L 745.14 698.97 L 746.61 698.49 L 748.08 698.67 L 749.56 699.14 L 751.03 698.99 L 752.50 699.12 L 753.97 699.05 L 755.44 699.09 L 756.92 699.06 L 758.39 698.95 L 759.86 698.91 L 761.33 699.06 L 762.81 699.07 L 764.28 699.03 L 765.75 699.15 L 767.22 699.10 L 768.69 699.11 L 770.17 699.14 L 771.64 699.16 L 773.11 699.15 L 774.58 699.20 L 776.06 699.12 L 777.53 699.09 L 779.00 699.14 L 780.47 699.09 L 781.94 699.02 L 783.42 699.15 L 784.89 699.14 L 786.36 699.03 L 787.83 699.07 L 789.31 699.01 L 790.78 699.11 L 792.25 698.91 L 793.72 699.03 L 795.19 698.99 L 796.67 698.97 L 798.14 699.03 L 799.61 699.08 L 801.08 699.02 L 802.56 696.29 L 804.03 698.31 L 805.50 699.02 L 806.97 699.03 L 808.44 698.94 L 809.92 698.97 L 811.39 698.91 L 812.86 699.10 L 814.33 699.08 L 815.81 699.00 L 817.28 699.00 L 818.75 699.10 L 820.22 699.08 L 821.69 699.07 L 823.17 699.05 L 824.64 699.02 L 826.11 699.15 L 827.58 699.06 L 829.06 699.03 L 830.53 698.99 L 832.00 699.05 L 833.47 699.11 L 834.94 699.07 L 836.42 699.14 L 837.89 699.09 L 839.36 699.19 L 840.83 699.18 L 842.31 699.16 L 843.78 699.14 L 845.25 699.19 L 846.72 699.24 L 848.19 699.10 L 849.67 699.10 L 851.14 699.20 L 852.61 699.16 L 854.08 699.20 L 855.56 699.14 L 857.03 699.16 L 858.50 699.21 L 859.97 699.10 L 861.44 698.97 L 862.92 699.09 L 864.39 699.06 L 865.86 698.89 L 867.33 698.76 L 868.81 698.72 L 870.28 698.84 L 871.75 699.06 L 873.22 699.04 L 874.69 698.94 L 876.17 699.07 L 877.64 699.19 L 879.11 699.08 L 880.58 699.21 L 882.06 699.14 L 883.53 699.17 L 885.00 699.09 L 886.47 699.18 L 887.94 699.12 L 889.42 699.18 L 890.89 699.07 L 892.36 699.17 L 893.83 699.18 L 895.31 699.12 L 896.78 699.20 L 898.25 699.18 L 899.72 699.15 L 901.19 699.12 L 902.67 699.20 L 904.14 699.13 L 905.61 699.11 L 907.08 699.10" stroke="#FB8C00" />
<text x="90" y="711.25" font-size="14" font-weight="700">Giroscópio (magnitude) (u.a.)</text>
<rect class="event" x="443.33" y="717.25" width="198.75" height="192.75" />
<line class="eventline" x1="443.33" y1="717.25" x2="443.33" y2="910.00" />
<line class="eventline" x1="642.08" y1="717.25" x2="642.08" y2="910.00" />
<line class="grid" x1="90" y1="910.00" x2="1150" y2="910.00" />
<text class="small" x="80" y="914.00" text-anchor="end">0.00</text>
<line class="grid" x1="90" y1="871.45" x2="1150" y2="871.45" />
<text class="small" x="80" y="875.45" text-anchor="end">0.05</text>
<line class="grid" x1="90" y1="832.90" x2="1150" y2="832.90" />
<text class="small" x="80" y="836.90" text-anchor="end">0.10</text>
<line class="grid" x1="90" y1="794.35" x2="1150" y2="794.35" />
<text class="small" x="80" y="798.35" text-anchor="end">0.15</text>
<line class="grid" x1="90" y1="755.80" x2="1150" y2="755.80" />
<text class="small" x="80" y="759.80" text-anchor="end">0.20</text>
<line class="grid" x1="90" y1="717.25" x2="1150" y2="717.25" />
<text class="small" x="80" y="721.25" text-anchor="end">0.25</text>
<line class="grid" x1="90.00" y1="717.25" x2="90.00" y2="910.00" />
<line class="grid" x1="266.67" y1="717.25" x2="266.67" y2="910.00" />
<line class="grid" x1="443.33" y1="717.25" x2="443.33" y2="910.00" />
<line class="grid" x1="620.00" y1="717.25" x2="620.00" y2="910.00" />
<line class="grid" x1="796.67" y1="717.25" x2="796.67" y2="910.00" />
<line class="grid" x1="973.33" y1="717.25" x2="973.33" y2="910.00" />
<line class="grid" x1="1150.00" y1="717.25" x2="1150.00" y2="910.00" />
<line class="axis" x1="90" y1="717.25" x2="90" y2="910.00" />
<line class="axis" x1="90" y1="910.00" x2="1150" y2="910.00" />
<path class="series" d="M 178.33 896.48 L 179.81 897.74 L 181.28 906.90 L 182.75 907.05 L 184.22 905.69 L 185.69 882.34 L 187.17 866.71 L 188.64 862.18 L 190.11 852.97 L 191.58 838.40 L 193.06 846.03 L 194.53 863.44 L 196.00 864.00 L 197.47 869.23 L 198.94 863.64 L 200.42 871.28 L 201.89 867.24 L 203.36 865.55 L 204.83 865.48 L 206.31 842.02 L 207.78 843.26 L 209.25 837.30 L 210.72 840.11 L 212.19 839.78 L 213.67 836.13 L 215.14 844.31 L 216.61 849.40 L 218.08 846.70 L 219.56 852.18 L 221.03 861.38 L 222.50 885.86 L 223.97 904.13 L 225.44 880.01 L 226.92 851.47 L 228.39 850.03 L 229.86 846.09 L 231.33 843.54 L 232.81 846.96 L 234.28 840.38 L 235.75 870.57 L 237.22 878.96 L 238.69 880.52 L 240.17 882.06 L 241.64 891.56 L 243.11 902.96 L 244.58 901.25 L 246.06 889.30 L 247.53 882.37 L 249.00 885.26 L 250.47 881.58 L 251.94 881.13 L 253.42 887.29 L 254.89 894.94 L 256.36 899.21 L 257.83 902.81 L 259.31 905.75 L 260.78 907.57 L 262.25 907.62 L 263.72 908.31 L 265.19 907.68 L 266.67 907.13 L 268.14 907.60 L 269.61 908.12 L 271.08 908.23 L 272.56 908.30 L 274.03 908.16 L 275.50 908.25 L 276.97 908.28 L 278.44 907.89 L 279.92 907.39 L 281.39 908.52 L 282.86 908.22 L 284.33 908.34 L 285.81 908.43 L 287.28 908.33 L 288.75 908.33 L 290.22 908.28 L 291.69 908.31 L 293.17 908.38 L 294.64 908.08 L 296.11 908.02 L 297.58 908.30 L 299.06 908.06 L 300.53 908.40 L 302.00 907.96 L 303.47 908.25 L 304.94 908.01 L 306.42 907.64 L 307.89 907.98 L 309.36 907.40 L 310.83 908.12 L 312.31 907.69 L 313.78 908.85 L 315.25 898.57 L 316.72 898.36 L 318.19 896.33 L 319.67 894.23 L 321.14 896.33 L 322.61 903.67 L 324.08 905.89 L 325.56 904.27 L 327.03 901.58 L 328.50 897.48 L 329.97 889.17 L 331.44 894.39 L 332.92 905.78 L 334.39 907.89 L 335.86 907.44 L 337.33 908.12 L 338.81 907.77 L 340.28 908.22 L 341.75 907.83 L 343.22 908.07 L 344.69 908.01 L 346.17 908.06 L 347.64 908.44 L 349.11 907.65 L 350.58 908.37 L 352.06 908.07 L 353.53 908.53 L 355.00 902.43 L 356.47 889.14 L 357.94 877.86 L 359.42 874.59 L 360.89 874.39 L 362.36 902.31 L 363.83 867.02 L 365.31 849.27 L 366.78 800.32 L 368.25 776.53 L 369.72 773.97 L 371.19 774.81 L 372.67 765.64 L 374.14 825.17 L 375.61 852.20 L 377.08 861.17 L 378.56 868.91 L 380.03 868.81 L 381.50 862.01 L 382.97 850.90 L 384.44 869.67 L 385.92 886.12 L 387.39 899.24 L 388.86 899.58 L 390.33 905.76 L 391.81 898.62 L 393.28 883.69 L 394.75 889.59 L 396.22 880.88 L 397.69 880.55 L 399.17 895.27 L 400.64 886.04 L 402.11 892.07 L 403.58 892.69 L 405.06 890.54 L 406.53 882.66 L 408.00 855.45 L 409.47 808.88 L 410.94 769.44 L 412.42 777.71 L 413.89 810.92 L 415.36 809.96 L 416.83 811.03 L 418.31 811.25 L 419.78 806.44 L 421.25 811.33 L 422.72 816.91 L 424.19 796.66 L 425.67 766.51 L 427.14 798.58 L 428.61 852.04 L 430.08 867.15 L 431.56 871.19 L 433.03 889.15 L 434.50 882.71 L 435.97 890.36 L 437.44 896.78 L 438.92 900.86 L 440.39 902.15 L 441.86 900.46 L 443.33 905.38 L 444.81 907.20 L 446.28 907.87 L 447.75 908.07 L 449.22 907.98 L 450.69 907.86 L 452.17 907.98 L 453.64 908.32 L 455.11 908.08 L 456.58 908.04 L 458.06 908.02 L 459.53 908.04 L 461.00 908.05 L 462.47 907.96 L 463.94 907.96 L 465.42 908.09 L 466.89 909.54 L 468.36 909.88 L 469.83 909.85 L 471.31 909.73 L 472.78 909.72 L 474.25 909.72 L 475.72 909.79 L 477.19 909.92 L 478.67 909.91 L 480.14 909.88 L 481.61 909.92 L 483.08 909.91 L 484.56 909.96 L 486.03 909.89 L 487.50 909.82 L 488.97 909.86 L 490.44 909.84 L 491.92 909.92 L 493.39 909.94 L 494.86 909.88 L 496.33 909.82 L 497.81 909.93 L 499.28 909.65 L 500.75 909.88 L 502.22 909.65 L 503.69 909.76 L 505.17 909.85 L 506.64 909.74 L 508.11 909.86 L 509.58 909.85 L 511.06 909.90 L 512.53 909.79 L 514.00 909.73 L 515.47 909.70 L 516.94 909.81 L 518.42 909.84 L 519.89 909.90 L 521.36 909.86 L 522.83 909.91 L 524.31 909.84 L 525.78 909.91 L 527.25 909.81 L 528.72 909.91 L 530.19 909.83 L 531.67 909.85 L 533.14 909.84 L 534.61 909.84 L 536.08 909.92 L 537.56 909.73 L 539.03 909.81 L 540.50 909.84 L 541.97 909.91 L 543.44 909.73 L 544.92 909.75 L 546.39 909.60 L 547.86 909.62 L 549.33 909.59 L 550.81 909.77 L 552.28 909.81 L 553.75 909.57 L 555.22 909.74 L 556.69 909.72 L 558.17 909.68 L 559.64 909.71 L 561.11 909.75 L 562.58 909.64 L 564.06 909.72 L 565.53 909.76 L 567.00 909.78 L 568.47 909.61 L 569.94 909.70 L 571.42 909.69 L 572.89 909.70 L 574.36 909.72 L 575.83 909.70 L 577.31 909.56 L 578.78 909.76 L 580.25 909.75 L 581.72 909.76 L 583.19 909.77 L 584.67 909.89 L 586.14 909.80 L 587.61 909.71 L 589.08 909.61 L 590.56 909.67 L 592.03 909.82 L 593.50 909.64 L 594.97 909.78 L 596.44 909.79 L 597.92 909.66 L 599.39 909.79 L 600.86 909.83 L 602.33 909.81 L 603.81 909.74 L 605.28 909.80 L 606.75 909.79 L 608.22 909.67 L 609.69 909.71 L 611.17 909.61 L 612.64 909.60 L 614.11 909.73 L 615.58 909.87 L 617.06 909.88 L 618.53 909.73 L 620.00 909.65 L 621.47 909.81 L 622.94 909.65 L 624.42 909.55 L 625.89 909.88 L 627.36 908.58 L 628.83 909.76 L 630.31 909.72 L 631.78 909.72 L 633.25 908.62 L 634.72 906.24 L 636.19 909.37 L 637.67 909.78 L 639.14 909.87 L 640.61 905.71 L 642.08 907.11 L 643.56 906.67 L 645.03 908.15 L 646.50 907.12 L 647.97 906.26 L 649.44 904.92 L 650.92 904.07 L 652.39 903.94 L 653.86 909.36 L 655.33 906.44 L 656.81 905.54 L 658.28 902.14 L 659.75 906.92 L 661.22 904.25 L 662.69 902.43 L 664.17 903.48 L 665.64 906.89 L 667.11 906.59 L 668.58 906.01 L 670.06 902.38 L 671.53 907.99 L 673.00 908.68 L 674.47 908.88 L 675.94 909.69 L 677.42 909.72 L 678.89 909.88 L 680.36 909.73 L 681.83 909.75 L 683.31 909.87 L 684.78 909.90 L 686.25 909.83 L 687.72 909.88 L 689.19 909.88 L 690.67 909.90 L 692.14 909.87 L 693.61 909.91 L 695.08 909.81 L 696.56 909.80 L 698.03 909.78 L 699.50 909.75 L 700.97 909.84 L 702.44 909.85 L 703.92 909.78 L 705.39 909.81 L 706.86 909.72 L 708.33 909.77 L 709.81 909.69 L 711.28 905.46 L 712.75 907.59 L 714.22 909.32 L 715.69 909.65 L 717.17 909.60 L 718.64 909.68 L 720.11 909.67 L 721.58 909.68 L 723.06 909.66 L 724.53 909.63 L 726.00 909.68 L 727.47 909.65 L 728.94 909.69 L 730.42 909.69 L 731.89 909.65 L 733.36 909.71 L 734.83 909.79 L 736.31 909.69 L 737.78 909.60 L 739.25 909.69 L 740.72 909.73 L 742.19 909.91 L 743.67 909.68 L 745.14 909.66 L 746.61 909.07 L 748.08 909.47 L 749.56 909.54 L 751.03 909.79 L 752.50 909.57 L 753.97 909.71 L 755.44 909.59 L 756.92 909.64 L 758.39 906.40 L 759.86 904.11 L 761.33 907.65 L 762.81 909.39 L 764.28 909.17 L 765.75 909.28 L 767.22 909.95 L 768.69 909.83 L 770.17 909.81 L 771.64 909.56 L 773.11 909.83 L 774.58 907.40 L 776.06 909.03 L 777.53 909.38 L 779.00 909.33 L 780.47 909.05 L 781.94 909.89 L 783.42 909.79 L 784.89 909.77 L 786.36 909.81 L 787.83 909.81 L 789.31 909.78 L 790.78 909.75 L 792.25 909.74 L 793.72 909.79 L 795.19 909.78 L 796.67 909.88 L 798.14 909.80 L 799.61 909.67 L 801.08 909.79 L 802.56 909.88 L 804.03 909.69 L 805.50 909.67 L 806.97 909.80 L 808.44 906.64 L 809.92 903.36 L 811.39 906.45 L 812.86 909.68 L 814.33 909.73 L 815.81 909.84 L 817.28 909.84 L 818.75 909.76 L 820.22 909.83 L 821.69 909.24 L 823.17 909.72 L 824.64 909.77 L 826.11 909.72 L 827.58 909.76 L 829.06 909.71 L 830.53 909.80 L 832.00 909.86 L 833.47 909.91 L 834.94 909.89 L 836.42 909.93 L 837.89 909.85 L 839.36 909.83 L 840.83 909.91 L 842.31 909.84 L 843.78 909.89 L 845.25 909.94 L 846.72 909.95 L 848.19 909.80 L 849.67 909.84 L 851.14 909.95 L 852.61 909.96 L 854.08 909.92 L 855.56 909.85 L 857.03 909.88 L 858.50 909.93 L 859.97 909.74 L 861.44 909.91 L 862.92 909.86 L 864.39 909.74 L 865.86 909.18 L 867.33 909.97 L 868.81 909.45 L 870.28 909.78 L 871.75 909.89 L 873.22 909.82 L 874.69 909.79 L 876.17 909.80 L 877.64 909.90 L 879.11 909.83 L 880.58 909.96 L 882.06 909.89 L 883.53 909.92 L 885.00 909.88 L 886.47 909.82 L 887.94 909.84 L 889.42 909.93 L 890.89 909.80 L 892.36 909.87 L 893.83 909.81 L 895.31 909.89 L 896.78 909.77 L 898.25 909.81 L 899.72 909.80 L 901.19 909.69 L 902.67 909.86 L 904.14 909.82 L 905.61 909.86 L 907.08 909.84" stroke="#E53935" />
<text x="620.00" y="952" font-size="15" text-anchor="middle">minutos (relativo ao início do evento)</text>
<text class="small" x="90.00" y="936" text-anchor="middle">-4.00</text>
<text class="small" x="266.67" y="936" text-anchor="middle">-2.00</text>
<text class="small" x="443.33" y="936" text-anchor="middle">0.00</text>
<text class="small" x="620.00" y="936" text-anchor="middle">2.00</text>
<text class="small" x="796.67" y="936" text-anchor="middle">4.00</text>
<text class="small" x="973.33" y="936" text-anchor="middle">6.00</text>
<text class="small" x="1150.00" y="936" text-anchor="middle">8.00</text>
</svg>