<?xml version="1.0" encoding="UTF-8"?>
<svg xmlns="http://www.w3.org/2000/svg" width="1180" height="980" viewBox="0 0 1180 980">
<style>
text { font-family: -apple-system, BlinkMacSystemFont, 'Segoe UI', Roboto, Helvetica, Arial, sans-serif; fill: #111; }
.small { font-size: 12px; fill: #222; }
.title { font-size: 18px; font-weight: 700; }
.axis { stroke: #111; stroke-width: 1.4; }
.grid { stroke: #E6E6E6; stroke-width: 1; }
.event { fill: #FFEB3B; fill-opacity: 0.18; }
.eventline { stroke: #F9A825; stroke-width: 1.2; stroke-dasharray: 4 3; }
.series { fill: none; stroke-width: 1.8; }
</style>
<text class="title" x="90" y="34">ciclo 12 — espera_carregamento — 2025-12-13T01:15:38-03:00 → 2025-12-13T01:16:12-03:00 (span 34s, dur 35s)</text>
<text class="small" x="90" y="54">GPS: -11.699039,-47.157389  hotspot: -11.699,-47.157</text>
<text class="small" x="90" y="70">Janela: -3.00 → 3.57 min (relativo ao início do evento)</text>
<text x="90" y="79.00" font-size="14" font-weight="700">Velocidade (km/h)</text>
<rect class="event" x="443.33" y="85.00" width="50.06" height="192.75" />
<line class="eventline" x1="443.33" y1="85.00" x2="443.33" y2="277.75" />
<line class="eventline" x1="493.39" y1="85.00" x2="493.39" y2="277.75" />
<line class="grid" x1="90" y1="277.75" x2="1150" y2="277.75" />
<text class="small" x="80" y="281.75" text-anchor="end">0.00</text>
<line class="grid" x1="90" y1="239.20" x2="1150" y2="239.20" />
<text class="small" x="80" y="243.20" text-anchor="end">10.0</text>
<line class="grid" x1="90" y1="200.65" x2="1150" y2="200.65" />
<text class="small" x="80" y="204.65" text-anchor="end">20.0</text>
<line class="grid" x1="90" y1="162.10" x2="1150" y2="162.10" />
<text class="small" x="80" y="166.10" text-anchor="end">30.0</text>
<line class="grid" x1="90" y1="123.55" x2="1150" y2="123.55" />
<text class="small" x="80" y="127.55" text-anchor="end">40.0</text>
<line class="grid" x1="90" y1="85.00" x2="1150" y2="85.00" />
<text class="small" x="80" y="89.00" text-anchor="end">50.0</text>
<line class="grid" x1="90.00" y1="85.00" x2="90.00" y2="277.75" />
<line class="grid" x1="266.67" y1="85.00" x2="266.67" y2="277.75" />
<line class="grid" x1="443.33" y1="85.00" x2="443.33" y2="277.75" />
<line class="grid" x1="620.00" y1="85.00" x2="620.00" y2="277.75" />
<line class="grid" x1="796.67" y1="85.00" x2="796.67" y2="277.75" />
<line class="grid" x1="973.33" y1="85.00" x2="973.33" y2="277.75" />
<line class="grid" x1="1150.00" y1="85.00" x2="1150.00" y2="277.75" />
<line class="axis" x1="90" y1="85.00" x2="90" y2="277.75" />
<line class="axis" x1="90" y1="277.75" x2="1150" y2="277.75" />
<path class="series" d="M 178.33 191.15 L 179.81 187.96 L 181.28 192.12 L 182.75 195.04 L 184.22 202.53 L 185.69 209.47 L 187.17 206.42 L 188.64 211.14 L 190.11 215.44 L 191.58 216.55 L 193.06 216.83 L 194.53 221.41 L 196.00 220.30 L 197.47 222.24 L 198.94 225.29 L 200.42 232.23 L 201.89 237.09 L 203.36 240.00 L 204.83 243.06 L 206.31 252.21 L 207.78 258.32 L 209.25 263.04 L 210.72 267.34 L 212.19 260.96 L 213.67 260.96 L 215.14 256.24 L 216.61 254.16 L 218.08 250.41 L 219.56 244.03 L 221.03 240.70 L 222.50 238.75 L 223.97 242.50 L 225.44 244.72 L 226.92 248.88 L 228.39 249.99 L 229.86 250.83 L 231.33 248.47 L 232.81 242.36 L 234.28 245.97 L 235.75 245.28 L 237.22 248.88 L 238.69 247.77 L 240.17 246.11 L 241.64 243.47 L 243.11 241.25 L 244.58 243.06 L 246.06 243.75 L 247.53 247.22 L 249.00 246.11 L 250.47 248.05 L 251.94 248.88 L 253.42 252.49 L 254.89 253.19 L 256.36 256.79 L 257.83 267.76 L 259.31 271.64 L 260.78 277.75 L 262.25 277.75 L 263.72 277.75 L 265.19 277.75 L 266.67 277.75 L 268.14 277.75 L 269.61 277.75 L 271.08 277.75 L 272.56 277.75 L 274.03 277.75 L 275.50 277.75 L 276.97 277.75 L 278.44 277.75 L 279.92 277.75 L 281.39 277.75 L 282.86 277.75 L 284.33 277.75 L 285.81 277.75 L 287.28 277.75 L 288.75 277.75 L 290.22 277.75 L 291.69 277.75 L 293.17 277.75 L 294.64 277.75 L 296.11 277.75 L 297.58 277.75 L 299.06 277.75 L 300.53 277.75 L 302.00 277.75 L 303.47 277.75 L 304.94 277.75 L 306.42 277.75 L 307.89 277.75 L 309.36 277.75 L 310.83 277.75 L 312.31 277.75 L 313.78 277.75 L 315.25 277.75 L 316.72 277.75 L 318.19 277.75 L 319.67 277.75 L 321.14 277.75 L 322.61 277.75 L 324.08 277.75 L 325.56 277.75 L 327.03 277.75 L 328.50 277.75 L 329.97 277.75 L 331.44 277.75 L 332.92 277.75 L 334.39 277.75 L 335.86 277.75 L 337.33 277.75 L 338.81 277.75 L 340.28 277.75 L 341.75 277.75 L 343.22 277.75 L 344.69 277.75 L 346.17 277.75 L 347.64 277.75 L 349.11 277.75 L 350.58 277.75 L 352.06 277.75 L 353.53 277.75 L 355.00 277.75 L 356.47 277.75 L 357.94 277.75 L 359.42 277.75 L 360.89 277.75 L 362.36 277.75 L 363.83 277.75 L 365.31 277.75 L 366.78 277.75 L 368.25 277.75 L 369.72 277.75 L 371.19 277.75 L 372.67 277.75 L 374.14 277.75 L 375.61 277.75 L 377.08 277.75 L 378.56 277.75 L 380.03 277.75 L 381.50 277.75 L 382.97 277.75 L 384.44 277.75 L 385.92 277.75 L 387.39 277.75 L 388.86 277.75 L 390.33 277.75 L 391.81 277.75 L 393.28 277.75 L 394.75 277.75 L 396.22 277.75 L 397.69 277.75 L 399.17 277.75 L 400.64 277.75 L 402.11 277.75 L 403.58 277.75 L 405.06 277.75 L 406.53 277.75 L 408.00 277.75 L 409.47 277.75 L 410.94 277.75 L 412.42 277.75 L 413.89 277.75 L 415.36 277.75 L 416.83 266.65 L 418.31 266.65 L 419.78 266.09 L 421.25 266.79 L 422.72 265.68 L 424.19 266.51 L 425.67 268.04 L 427.14 268.31 L 428.61 268.04 L 430.08 266.65 L 431.56 266.51 L 433.03 264.43 L 434.50 267.62 L 435.97 266.65 L 437.44 266.23 L 438.92 277.75 L 440.39 270.39 L 441.86 272.34 L 443.33 277.75 L 444.81 277.75 L 446.28 277.75 L 447.75 277.75 L 449.22 277.75 L 450.69 277.75 L 452.17 277.75 L 453.64 277.75 L 455.11 277.75 L 456.58 277.75 L 458.06 277.75 L 459.53 277.75 L 461.00 277.75 L 462.47 277.75 L 463.94 277.75 L 465.42 277.75 L 466.89 277.75 L 468.36 277.75 L 469.83 277.75 L 471.31 277.75 L 472.78 277.75 L 474.25 277.75 L 475.72 277.75 L 477.19 277.75 L 478.67 277.75 L 480.14 277.75 L 481.61 277.75 L 483.08 277.75 L 484.56 277.75 L 486.03 277.75 L 487.50 277.75 L 488.97 277.75 L 490.44 277.75 L 491.92 277.75 L 493.39 277.75 L 494.86 268.04 L 496.33 266.79 L 497.81 264.98 L 499.28 263.87 L 500.75 261.51 L 502.22 262.48 L 503.69 262.90 L 505.17 261.65 L 506.64 262.48 L 508.11 262.76 L 509.58 262.35 L 511.06 262.62 L 512.53 259.01 L 514.00 259.85 L 515.47 261.93 L 516.94 261.79 L 518.42 263.87 L 519.89 277.75 L 521.36 270.12 L 522.83 269.01 L 524.31 268.59 L 525.78 268.17 L 527.25 269.70 L 528.72 277.75 L 530.19 277.75 L 531.67 277.75 L 533.14 277.75 L 534.61 277.75 L 536.08 277.75 L 537.56 277.75 L 539.03 277.75 L 540.50 277.75 L 541.97 277.75 L 543.44 277.75 L 544.92 277.75 L 546.39 277.75 L 547.86 277.75 L 549.33 277.75 L 550.81 277.75 L 552.28 277.75 L 553.75 277.75 L 555.22 277.75 L 556.69 277.75 L 558.17 277.75 L 559.64 277.75 L 561.11 277.75 L 562.58 277.75 L 564.06 277.75 L 565.53 277.75 L 567.00 277.75 L 568.47 277.75 L 569.94 277.75 L 571.42 268.87 L 572.89 267.48 L 574.36 271.64 L 575.83 267.62 L 577.31 263.04 L 578.78 261.37 L 580.25 261.51 L 581.72 260.82 L 583.19 259.01 L 584.67 255.68 L 586.14 257.77 L 587.61 258.88 L 589.08 261.65 L 590.56 265.81 L 592.03 269.56 L 593.50 277.75 L 594.97 277.75 L 596.44 277.75 L 597.92 277.75 L 599.39 277.75 L 600.86 277.75 L 602.33 277.75 L 603.81 277.75 L 605.28 277.75 L 606.75 277.75 L 608.22 277.75 L 609.69 277.75 L 611.17 277.75 L 612.64 277.75 L 614.11 277.75 L 615.58 277.75 L 617.06 277.75 L 618.53 277.75 L 620.00 277.75 L 621.47 277.75 L 622.94 277.75 L 624.42 277.75 L 625.89 277.75 L 627.36 277.75 L 628.83 277.75 L 630.31 277.75 L 631.78 277.75 L 633.25 277.75 L 634.72 277.75 L 636.19 277.75 L 637.67 277.75 L 639.14 277.75 L 640.61 277.75 L 642.08 277.75 L 643.56 277.75 L 645.03 277.75 L 646.50 277.75 L 647.97 277.75 L 649.44 277.75 L 650.92 277.75 L 652.39 277.75 L 653.86 277.75 L 655.33 277.75 L 656.81 277.75 L 658.28 277.75 L 659.75 277.75 L 661.22 277.75 L 662.69 277.75 L 664.17 277.75 L 665.64 277.75 L 667.11 277.75 L 668.58 277.75 L 670.06 277.75 L 671.53 268.59 L 673.00 260.96 L 674.47 270.81 L 675.94 261.37 L 677.42 263.46 L 678.89 267.62 L 680.36 268.04 L 681.83 277.75 L 683.31 277.75 L 684.78 277.75 L 686.25 277.75 L 687.72 271.09 L 689.19 270.67 L 690.67 271.37 L 692.14 277.75 L 693.61 277.75 L 695.08 277.75 L 696.56 277.75 L 698.03 277.75 L 699.50 277.75 L 700.97 277.75 L 702.44 277.75 L 703.92 268.17 L 705.39 267.62 L 706.86 277.75 L 708.33 277.75 L 709.81 277.75 L 711.28 277.75 L 712.75 266.23 L 714.22 266.79 L 715.69 263.87 L 717.17 260.54 L 718.64 262.48 L 720.11 258.88 L 721.58 265.95 L 723.06 266.93 L 724.53 265.95 L 726.00 264.70 L 727.47 268.45 L 728.94 268.59 L 730.42 265.95 L 731.89 269.56 L 733.36 274.14 L 734.83 271.23 L 736.31 264.70 L 737.78 273.31 L 739.25 277.75 L 740.72 269.28 L 742.19 274.14 L 743.67 277.75 L 745.14 277.75 L 746.61 277.75 L 748.08 277.75 L 749.56 277.75 L 751.03 277.75 L 752.50 277.75 L 753.97 277.75 L 755.44 277.75 L 756.92 277.75 L 758.39 277.75" stroke="#1976D2" />
<text x="90" y="289.75" font-size="14" font-weight="700">Inclinação (graus)</text>
<rect class="event" x="443.33" y="295.75" width="50.06" height="192.75" />
<line class="eventline" x1="443.33" y1="295.75" x2="443.33" y2="488.50" />
<line class="eventline" x1="493.39" y1="295.75" x2="493.39" y2="488.50" />
<line class="grid" x1="90" y1="488.50" x2="1150" y2="488.50" />
<text class="small" x="80" y="492.50" text-anchor="end">-10.0</text>
<line class="grid" x1="90" y1="449.95" x2="1150" y2="449.95" />
<text class="small" x="80" y="453.95" text-anchor="end">0.00</text>
<line class="grid" x1="90" y1="411.40" x2="1150" y2="411.40" />
<text class="small" x="80" y="415.40" text-anchor="end">10.0</text>
<line class="grid" x1="90" y1="372.85" x2="1150" y2="372.85" />
<text class="small" x="80" y="376.85" text-anchor="end">20.0</text>
<line class="grid" x1="90" y1="334.30" x2="1150" y2="334.30" />
<text class="small" x="80" y="338.30" text-anchor="end">30.0</text>
<line class="grid" x1="90" y1="295.75" x2="1150" y2="295.75" />
<text class="small" x="80" y="299.75" text-anchor="end">40.0</text>
<line class="grid" x1="90.00" y1="295.75" x2="90.00" y2="488.50" />
<line class="grid" x1="266.67" y1="295.75" x2="266.67" y2="488.50" />
<line class="grid" x1="443.33" y1="295.75" x2="443.33" y2="488.50" />
<line class="grid" x1="620.00" y1="295.75" x2="620.00" y2="488.50" />
<line class="grid" x1="796.67" y1="295.75" x2="796.67" y2="488.50" />
<line class="grid" x1="973.33" y1="295.75" x2="973.33" y2="488.50" />
<line class="grid" x1="1150.00" y1="295.75" x2="1150.00" y2="488.50" />
<line class="axis" x1="90" y1="295.75" x2="90" y2="488.50" />
<line class="axis" x1="90" y1="488.50" x2="1150" y2="488.50" />
<path class="series" d="M 178.33 404.55 L 179.81 400.06 L 181.28 394.73 L 182.75 395.50 L 184.22 394.97 L 185.69 398.68 L 187.17 396.34 L 188.64 393.88 L 190.11 396.56 L 191.58 392.41 L 193.06 393.40 L 194.53 396.00 L 196.00 412.78 L 197.47 399.57 L 198.94 399.19 L 200.42 390.59 L 201.89 391.44 L 203.36 396.75 L 204.83 398.64 L 206.31 391.80 L 207.78 394.85 L 209.25 390.26 L 210.72 415.00 L 212.19 406.87 L 213.67 412.52 L 215.14 409.37 L 216.61 412.28 L 218.08 411.09 L 219.56 421.57 L 221.03 403.57 L 222.50 402.90 L 223.97 400.86 L 225.44 397.60 L 226.92 398.57 L 228.39 400.66 L 229.86 404.18 L 231.33 410.70 L 232.81 402.55 L 234.28 405.28 L 235.75 406.59 L 237.22 413.89 L 238.69 419.24 L 240.17 413.22 L 241.64 413.32 L 243.11 403.39 L 244.58 395.90 L 246.06 397.14 L 247.53 396.25 L 249.00 400.52 L 250.47 402.87 L 251.94 402.74 L 253.42 403.95 L 254.89 403.40 L 256.36 403.10 L 257.83 403.76 L 259.31 410.94 L 260.78 414.67 L 262.25 417.27 L 263.72 418.02 L 265.19 417.76 L 266.67 417.74 L 268.14 417.68 L 269.61 418.00 L 271.08 417.89 L 272.56 417.85 L 274.03 417.87 L 275.50 417.85 L 276.97 417.87 L 278.44 417.85 L 279.92 417.86 L 281.39 417.83 L 282.86 417.90 L 284.33 417.84 L 285.81 417.92 L 287.28 417.85 L 288.75 417.87 L 290.22 417.77 L 291.69 417.79 L 293.17 417.80 L 294.64 417.85 L 296.11 417.83 L 297.58 417.88 L 299.06 417.88 L 300.53 417.84 L 302.00 417.89 L 303.47 417.85 L 304.94 417.87 L 306.42 417.87 L 307.89 417.86 L 309.36 417.83 L 310.83 417.86 L 312.31 417.87 L 313.78 417.87 L 315.25 417.85 L 316.72 417.91 L 318.19 417.83 L 319.67 417.88 L 321.14 417.90 L 322.61 417.88 L 324.08 417.84 L 325.56 417.88 L 327.03 417.93 L 328.50 417.83 L 329.97 417.95 L 331.44 417.88 L 332.92 417.89 L 334.39 417.84 L 335.86 417.84 L 337.33 417.87 L 338.81 417.89 L 340.28 417.92 L 341.75 417.91 L 343.22 417.87 L 344.69 417.88 L 346.17 417.88 L 347.64 417.90 L 349.11 417.86 L 350.58 417.94 L 352.06 417.88 L 353.53 417.89 L 355.00 417.89 L 356.47 417.83 L 357.94 417.88 L 359.42 417.88 L 360.89 417.86 L 362.36 417.87 L 363.83 417.86 L 365.31 417.86 L 366.78 417.91 L 368.25 417.89 L 369.72 417.86 L 371.19 417.89 L 372.67 417.87 L 374.14 417.88 L 375.61 417.89 L 377.08 417.90 L 378.56 417.86 L 380.03 417.87 L 381.50 417.89 L 382.97 417.87 L 384.44 417.86 L 385.92 417.84 L 387.39 417.89 L 388.86 417.81 L 390.33 417.87 L 391.81 417.87 L 393.28 417.87 L 394.75 417.85 L 396.22 417.87 L 397.69 417.90 L 399.17 417.88 L 400.64 417.88 L 402.11 417.93 L 403.58 417.85 L 405.06 417.93 L 406.53 417.95 L 408.00 417.94 L 409.47 417.97 L 410.94 419.54 L 412.42 419.68 L 413.89 428.47 L 415.36 422.17 L 416.83 418.95 L 418.31 419.77 L 419.78 420.95 L 421.25 419.76 L 422.72 420.56 L 424.19 420.01 L 425.67 413.45 L 427.14 412.79 L 428.61 415.72 L 430.08 412.24 L 431.56 405.39 L 433.03 406.88 L 434.50 401.25 L 435.97 403.72 L 437.44 402.13 L 438.92 396.94 L 440.39 400.41 L 441.86 397.83 L 443.33 397.13 L 444.81 402.83 L 446.28 403.02 L 447.75 403.06 L 449.22 403.09 L 450.69 403.07 L 452.17 403.13 L 453.64 403.07 L 455.11 403.12 L 456.58 403.19 L 458.06 403.10 L 459.53 403.11 L 461.00 403.10 L 462.47 403.09 L 463.94 403.08 L 465.42 403.13 L 466.89 403.07 L 468.36 403.08 L 469.83 403.09 L 471.31 403.07 L 472.78 403.14 L 474.25 403.03 L 475.72 403.13 L 477.19 403.10 L 478.67 403.05 L 480.14 403.10 L 481.61 403.11 L 483.08 403.07 L 484.56 403.10 L 486.03 401.45 L 487.50 406.39 L 488.97 401.91 L 490.44 407.55 L 491.92 407.07 L 493.39 406.38 L 494.86 409.90 L 496.33 409.43 L 497.81 411.88 L 499.28 417.03 L 500.75 421.72 L 502.22 422.22 L 503.69 426.03 L 505.17 420.99 L 506.64 417.49 L 508.11 416.75 L 509.58 415.87 L 511.06 415.58 L 512.53 416.23 L 514.00 414.63 L 515.47 417.07 L 516.94 407.61 L 518.42 399.48 L 519.89 400.42 L 521.36 402.35 L 522.83 395.14 L 524.31 394.73 L 525.78 393.45 L 527.25 377.56 L 528.72 377.90 L 530.19 384.60 L 531.67 383.93 L 533.14 384.11 L 534.61 384.17 L 536.08 384.24 L 537.56 384.23 L 539.03 384.10 L 540.50 384.01 L 541.97 383.57 L 543.44 385.99 L 544.92 384.85 L 546.39 384.90 L 547.86 384.84 L 549.33 384.88 L 550.81 384.86 L 552.28 384.84 L 553.75 384.87 L 555.22 384.85 L 556.69 384.82 L 558.17 384.79 L 559.64 384.80 L 561.11 384.79 L 562.58 384.83 L 564.06 384.74 L 565.53 384.83 L 567.00 385.44 L 568.47 392.66 L 569.94 389.98 L 571.42 388.11 L 572.89 381.02 L 574.36 392.90 L 575.83 402.75 L 577.31 396.28 L 578.78 403.17 L 580.25 397.90 L 581.72 401.70 L 583.19 395.78 L 584.67 399.42 L 586.14 398.39 L 587.61 399.44 L 589.08 390.50 L 590.56 392.07 L 592.03 390.94 L 593.50 394.71 L 594.97 399.07 L 596.44 399.99 L 597.92 399.68 L 599.39 399.72 L 600.86 399.78 L 602.33 399.83 L 603.81 399.79 L 605.28 399.79 L 606.75 399.86 L 608.22 399.82 L 609.69 399.83 L 611.17 399.82 L 612.64 399.88 L 614.11 399.85 L 615.58 399.81 L 617.06 399.79 L 618.53 399.78 L 620.00 399.84 L 621.47 399.76 L 622.94 399.76 L 624.42 399.81 L 625.89 399.84 L 627.36 399.77 L 628.83 399.80 L 630.31 399.80 L 631.78 399.80 L 633.25 399.75 L 634.72 399.85 L 636.19 399.80 L 637.67 399.87 L 639.14 399.84 L 640.61 399.81 L 642.08 399.84 L 643.56 399.83 L 645.03 399.82 L 646.50 399.77 L 647.97 399.78 L 649.44 399.74 L 650.92 399.72 L 652.39 399.75 L 653.86 399.79 L 655.33 399.80 L 656.81 399.83 L 658.28 399.80 L 659.75 399.74 L 661.22 399.83 L 662.69 399.69 L 664.17 400.01 L 665.64 399.99 L 667.11 396.23 L 668.58 395.44 L 670.06 393.82 L 671.53 390.83 L 673.00 405.97 L 674.47 383.54 L 675.94 397.28 L 677.42 398.19 L 678.89 392.87 L 680.36 395.55 L 681.83 392.66 L 683.31 391.55 L 684.78 391.01 L 686.25 395.24 L 687.72 393.79 L 689.19 399.88 L 690.67 400.07 L 692.14 402.55 L 693.61 396.25 L 695.08 394.44 L 696.56 399.68 L 698.03 410.24 L 699.50 396.67 L 700.97 395.58 L 702.44 395.58 L 703.92 392.82 L 705.39 392.20 L 706.86 368.50 L 708.33 379.14 L 709.81 391.45 L 711.28 384.49 L 712.75 398.82 L 714.22 398.33 L 715.69 391.87 L 717.17 399.00 L 718.64 401.09 L 720.11 395.88 L 721.58 393.26 L 723.06 393.09 L 724.53 386.24 L 726.00 385.48 L 727.47 394.18 L 728.94 391.09 L 730.42 395.69 L 731.89 396.31 L 733.36 402.41 L 734.83 393.57 L 736.31 393.74 L 737.78 407.28 L 739.25 402.26 L 740.72 395.14 L 742.19 412.71 L 743.67 401.12 L 745.14 400.08 L 746.61 402.71 L 748.08 400.79 L 749.56 401.28 L 751.03 401.31 L 752.50 401.18 L 753.97 401.16 L 755.44 401.15 L 756.92 401.19 L 758.39 401.21" stroke="#2E7D32" />
<path class="series" d="M 178.33 430.61 L 179.81 425.54 L 181.28 427.74 L 182.75 439.97 L 184.22 444.12 L 185.69 447.48 L 187.17 459.90 L 188.64 459.98 L 190.11 451.86 L 191.58 447.98 L 193.06 455.65 L 194.53 448.65 L 196.00 450.23 L 197.47 453.82 L 198.94 449.79 L 200.42 448.45 L 201.89 456.55 L 203.36 456.97 L 204.83 456.89 L 206.31 453.48 L 207.78 449.64 L 209.25 454.05 L 210.72 449.05 L 212.19 449.82 L 213.67 450.66 L 215.14 449.87 L 216.61 447.01 L 218.08 447.40 L 219.56 443.59 L 221.03 451.39 L 222.50 452.06 L 223.97 450.03 L 225.44 456.05 L 226.92 458.36 L 228.39 457.30 L 229.86 454.59 L 231.33 468.99 L 232.81 463.17 L 234.28 460.61 L 235.75 462.53 L 237.22 464.48 L 238.69 455.60 L 240.17 454.33 L 241.64 450.14 L 243.11 457.14 L 244.58 438.93 L 246.06 444.65 L 247.53 434.45 L 249.00 431.84 L 250.47 435.92 L 251.94 431.91 L 253.42 436.26 L 254.89 440.42 L 256.36 446.77 L 257.83 457.03 L 259.31 455.63 L 260.78 450.78 L 262.25 447.56 L 263.72 449.53 L 265.19 448.71 L 266.67 448.55 L 268.14 448.98 L 269.61 448.92 L 271.08 448.93 L 272.56 448.91 L 274.03 448.89 L 275.50 448.93 L 276.97 448.91 L 278.44 448.97 L 279.92 448.95 L 281.39 448.95 L 282.86 448.96 L 284.33 448.88 L 285.81 448.98 L 287.28 448.92 L 288.75 448.97 L 290.22 448.90 L 291.69 448.86 L 293.17 448.96 L 294.64 448.92 L 296.11 448.92 L 297.58 448.94 L 299.06 448.94 L 300.53 448.90 L 302.00 448.98 L 303.47 448.94 L 304.94 448.97 L 306.42 448.91 L 307.89 448.95 L 309.36 448.99 L 310.83 448.93 L 312.31 448.91 L 313.78 448.96 L 315.25 448.95 L 316.72 448.99 L 318.19 448.98 L 319.67 448.90 L 321.14 449.03 L 322.61 448.95 L 324.08 448.89 L 325.56 449.00 L 327.03 448.94 L 328.50 448.95 L 329.97 449.01 L 331.44 448.98 L 332.92 448.97 L 334.39 448.92 L 335.86 448.98 L 337.33 448.96 L 338.81 448.99 L 340.28 448.95 L 341.75 448.97 L 343.22 448.92 L 344.69 448.97 L 346.17 448.98 L 347.64 448.97 L 349.11 448.95 L 350.58 448.92 L 352.06 448.99 L 353.53 449.00 L 355.00 448.95 L 356.47 448.91 L 357.94 449.01 L 359.42 448.95 L 360.89 448.99 L 362.36 448.96 L 363.83 448.96 L 365.31 448.96 L 366.78 448.96 L 368.25 448.94 L 369.72 448.96 L 371.19 448.95 L 372.67 448.92 L 374.14 448.96 L 375.61 448.95 L 377.08 448.96 L 378.56 448.93 L 380.03 448.93 L 381.50 448.90 L 382.97 449.01 L 384.44 448.91 L 385.92 448.94 L 387.39 448.93 L 388.86 448.93 L 390.33 448.90 L 391.81 448.92 L 393.28 448.99 L 394.75 448.89 L 396.22 448.93 L 397.69 448.96 L 399.17 448.97 L 400.64 448.97 L 402.11 448.97 L 403.58 449.02 L 405.06 448.93 L 406.53 448.92 L 408.00 448.99 L 409.47 448.91 L 410.94 448.12 L 412.42 448.70 L 413.89 442.23 L 415.36 450.71 L 416.83 453.00 L 418.31 451.19 L 419.78 453.45 L 421.25 454.82 L 422.72 457.60 L 424.19 451.91 L 425.67 461.39 L 427.14 448.84 L 428.61 454.65 L 430.08 451.47 L 431.56 446.43 L 433.03 452.26 L 434.50 451.28 L 435.97 453.82 L 437.44 451.67 L 438.92 449.67 L 440.39 452.76 L 441.86 454.15 L 443.33 453.60 L 444.81 450.55 L 446.28 449.93 L 447.75 450.58 L 449.22 450.66 L 450.69 450.11 L 452.17 450.53 L 453.64 450.36 L 455.11 450.28 L 456.58 450.40 L 458.06 450.29 L 459.53 450.28 L 461.00 450.39 L 462.47 450.34 L 463.94 450.36 L 465.42 450.38 L 466.89 450.34 L 468.36 450.35 L 469.83 450.32 L 471.31 450.31 L 472.78 450.34 L 474.25 450.36 L 475.72 450.33 L 477.19 450.35 L 478.67 450.31 L 480.14 450.31 L 481.61 450.28 L 483.08 450.29 L 484.56 450.30 L 486.03 451.43 L 487.50 447.67 L 488.97 451.94 L 490.44 447.53 L 491.92 446.27 L 493.39 450.67 L 494.86 445.58 L 496.33 450.93 L 497.81 447.15 L 499.28 444.07 L 500.75 452.25 L 502.22 449.40 L 503.69 449.58 L 505.17 449.89 L 506.64 446.26 L 508.11 445.81 L 509.58 440.18 L 511.06 441.12 L 512.53 445.36 L 514.00 450.15 L 515.47 460.47 L 516.94 457.82 L 518.42 456.32 L 519.89 450.59 L 521.36 449.93 L 522.83 456.43 L 524.31 451.69 L 525.78 444.28 L 527.25 455.12 L 528.72 456.09 L 530.19 449.46 L 531.67 449.54 L 533.14 449.59 L 534.61 449.50 L 536.08 449.41 L 537.56 449.48 L 539.03 449.33 L 540.50 448.95 L 541.97 450.12 L 543.44 448.54 L 544.92 450.78 L 546.39 449.30 L 547.86 449.70 L 549.33 449.61 L 550.81 449.57 L 552.28 449.68 L 553.75 449.59 L 555.22 449.72 L 556.69 449.53 L 558.17 449.61 L 559.64 449.58 L 561.11 449.62 L 562.58 449.58 L 564.06 449.35 L 565.53 450.18 L 567.00 449.87 L 568.47 447.75 L 569.94 450.88 L 571.42 451.09 L 572.89 449.42 L 574.36 453.93 L 575.83 448.48 L 577.31 448.76 L 578.78 451.88 L 580.25 443.88 L 581.72 448.06 L 583.19 441.77 L 584.67 453.03 L 586.14 460.59 L 587.61 468.15 L 589.08 469.74 L 590.56 464.98 L 592.03 467.51 L 593.50 470.45 L 594.97 471.82 L 596.44 470.86 L 597.92 471.83 L 599.39 471.60 L 600.86 471.50 L 602.33 471.58 L 603.81 471.51 L 605.28 471.58 L 606.75 471.50 L 608.22 471.49 L 609.69 471.54 L 611.17 471.49 L 612.64 471.55 L 614.11 471.51 L 615.58 471.58 L 617.06 471.52 L 618.53 471.57 L 620.00 471.51 L 621.47 471.61 L 622.94 471.51 L 624.42 471.56 L 625.89 471.52 L 627.36 471.55 L 628.83 471.56 L 630.31 471.52 L 631.78 471.58 L 633.25 471.56 L 634.72 471.55 L 636.19 471.59 L 637.67 471.52 L 639.14 471.60 L 640.61 471.52 L 642.08 471.56 L 643.56 471.54 L 645.03 471.51 L 646.50 471.52 L 647.97 471.51 L 649.44 471.56 L 650.92 471.52 L 652.39 471.55 L 653.86 471.54 L 655.33 471.50 L 656.81 471.54 L 658.28 471.55 L 659.75 471.49 L 661.22 471.52 L 662.69 471.45 L 664.17 471.39 L 665.64 471.66 L 667.11 471.24 L 668.58 467.77 L 670.06 465.57 L 671.53 453.13 L 673.00 478.62 L 674.47 450.17 L 675.94 464.13 L 677.42 464.32 L 678.89 452.17 L 680.36 462.06 L 681.83 451.79 L 683.31 450.83 L 684.78 448.81 L 686.25 447.25 L 687.72 443.84 L 689.19 448.69 L 690.67 446.96 L 692.14 446.28 L 693.61 443.48 L 695.08 442.97 L 696.56 445.51 L 698.03 451.46 L 699.50 442.72 L 700.97 443.92 L 702.44 443.92 L 703.92 451.84 L 705.39 455.31 L 706.86 444.96 L 708.33 446.83 L 709.81 452.43 L 711.28 464.27 L 712.75 443.52 L 714.22 443.69 L 715.69 438.48 L 717.17 433.66 L 718.64 445.29 L 720.11 441.03 L 721.58 438.11 L 723.06 437.04 L 724.53 443.32 L 726.00 448.77 L 727.47 449.65 L 728.94 451.91 L 730.42 442.76 L 731.89 439.51 L 733.36 443.94 L 734.83 446.25 L 736.31 440.26 L 737.78 444.15 L 739.25 443.45 L 740.72 449.03 L 742.19 439.69 L 743.67 440.59 L 745.14 441.67 L 746.61 442.01 L 748.08 440.82 L 749.56 441.21 L 751.03 441.15 L 752.50 441.92 L 753.97 441.23 L 755.44 441.68 L 756.92 441.35 L 758.39 441.58" stroke="#6A1B9A" />
<line x1="900.00" y1="307.75" x2="918.00" y2="307.75" stroke="#2E7D32" stroke-width="3" />
<text class="small" x="924.00" y="311.75">pitch</text>
<line x1="900.00" y1="323.75" x2="918.00" y2="323.75" stroke="#6A1B9A" stroke-width="3" />
<text class="small" x="924.00" y="327.75">roll</text>
<text x="90" y="500.50" font-size="14" font-weight="700">Aceleração (magnitude) (u.a.)</text>
<rect class="event" x="443.33" y="506.50" width="50.06" height="192.75" />
<line class="eventline" x1="443.33" y1="506.50" x2="443.33" y2="699.25" />
<line class="eventline" x1="493.39" y1="506.50" x2="493.39" y2="699.25" />
<line class="grid" x1="90" y1="699.25" x2="1150" y2="699.25" />
<text class="small" x="80" y="703.25" text-anchor="end">0.00</text>
<line class="grid" x1="90" y1="660.70" x2="1150" y2="660.70" />
<text class="small" x="80" y="664.70" text-anchor="end">0.20</text>
<line class="grid" x1="90" y1="622.15" x2="1150" y2="622.15" />
<text class="small" x="80" y="626.15" text-anchor="end">0.40</text>
<line class="grid" x1="90" y1="583.60" x2="1150" y2="583.60" />
<text class="small" x="80" y="587.60" text-anchor="end">0.60</text>
<line class="grid" x1="90" y1="545.05" x2="1150" y2="545.05" />
<text class="small" x="80" y="549.05" text-anchor="end">0.80</text>
<line class="grid" x1="90" y1="506.50" x2="1150" y2="506.50" />
<text class="small" x="80" y="510.50" text-anchor="end">1.00</text>
<line class="grid" x1="90.00" y1="506.50" x2="90.00" y2="699.25" />
<line class="grid" x1="266.67" y1="506.50" x2="266.67" y2="699.25" />
<line class="grid" x1="443.33" y1="506.50" x2="443.33" y2="699.25" />
<line class="grid" x1="620.00" y1="506.50" x2="620.00" y2="699.25" />
<line class="grid" x1="796.67" y1="506.50" x2="796.67" y2="699.25" />
<line class="grid" x1="973.33" y1="506.50" x2="973.33" y2="699.25" />
<line class="grid" x1="1150.00" y1="506.50" x2="1150.00" y2="699.25" />
<line class="axis" x1="90" y1="506.50" x2="90" y2="699.25" />
<line class="axis" x1="90" y1="699.25" x2="1150" y2="699.25" />
<path class="series" d="M 178.33 582.04 L 179.81 612.03 L 181.28 627.67 L 182.75 638.17 L 184.22 668.46 L 185.69 629.88 L 187.17 563.22 L 188.64 681.71 L 190.11 614.49 L 191.58 677.78 L 193.06 643.29 L 194.53 619.13 L 196.00 673.93 L 197.47 650.20 L 198.94 640.70 L 200.42 629.30 L 201.89 613.49 L 203.36 670.28 L 204.83 636.86 L 206.31 673.75 L 207.78 686.33 L 209.25 659.94 L 210.72 575.53 L 212.19 626.44 L 213.67 645.83 L 215.14 669.62 L 216.61 651.16 L 218.08 616.20 L 219.56 688.73 L 221.03 656.30 L 222.50 668.85 L 223.97 655.35 L 225.44 646.03 L 226.92 670.10 L 228.39 666.51 L 229.86 627.77 L 231.33 614.83 L 232.81 638.60 L 234.28 649.93 L 235.75 649.93 L 237.22 603.19 L 238.69 657.75 L 240.17 624.52 L 241.64 645.89 L 243.11 621.09 L 244.58 648.26 L 246.06 665.77 L 247.53 633.49 L 249.00 608.94 L 250.47 647.51 L 251.94 659.74 L 253.42 645.23 L 254.89 686.29 L 256.36 526.47 L 257.83 546.80 L 259.31 658.40 L 260.78 662.84 L 262.25 651.31 L 263.72 689.53 L 265.19 693.68 L 266.67 698.55 L 268.14 694.23 L 269.61 694.68 L 271.08 698.59 L 272.56 698.67 L 274.03 699.02 L 275.50 699.00 L 276.97 698.90 L 278.44 698.62 L 279.92 698.76 L 281.39 698.78 L 282.86 699.07 L 284.33 698.82 L 285.81 698.93 L 287.28 698.99 L 288.75 698.33 L 290.22 698.80 L 291.69 698.38 L 293.17 698.52 L 294.64 698.83 L 296.11 698.79 L 297.58 698.87 L 299.06 698.90 L 300.53 698.65 L 302.00 698.83 L 303.47 698.85 L 304.94 698.90 L 306.42 698.93 L 307.89 698.96 L 309.36 698.89 L 310.83 698.82 L 312.31 698.31 L 313.78 698.55 L 315.25 699.15 L 316.72 698.63 L 318.19 698.30 L 319.67 698.00 L 321.14 698.58 L 322.61 698.99 L 324.08 698.82 L 325.56 698.40 L 327.03 699.09 L 328.50 698.57 L 329.97 699.06 L 331.44 698.92 L 332.92 698.65 L 334.39 698.99 L 335.86 698.74 L 337.33 698.54 L 338.81 697.97 L 340.28 698.78 L 341.75 698.79 L 343.22 698.96 L 344.69 698.77 L 346.17 698.75 L 347.64 698.84 L 349.11 698.16 L 350.58 699.03 L 352.06 699.08 L 353.53 698.82 L 355.00 699.05 L 356.47 698.84 L 357.94 699.14 L 359.42 698.77 L 360.89 699.01 L 362.36 699.08 L 363.83 699.07 L 365.31 699.04 L 366.78 698.93 L 368.25 698.74 L 369.72 699.07 L 371.19 699.10 L 372.67 699.06 L 374.14 698.80 L 375.61 699.10 L 377.08 698.47 L 378.56 698.66 L 380.03 698.82 L 381.50 698.68 L 382.97 698.93 L 384.44 698.77 L 385.92 698.50 L 387.39 698.60 L 388.86 698.49 L 390.33 698.95 L 391.81 698.97 L 393.28 699.05 L 394.75 698.57 L 396.22 698.94 L 397.69 698.98 L 399.17 698.68 L 400.64 698.78 L 402.11 698.56 L 403.58 697.51 L 405.06 697.51 L 406.53 698.30 L 408.00 697.97 L 409.47 699.11 L 410.94 686.39 L 412.42 677.27 L 413.89 662.26 L 415.36 653.16 L 416.83 674.06 L 418.31 679.72 L 419.78 692.07 L 421.25 687.18 L 422.72 670.67 L 424.19 668.38 L 425.67 662.53 L 427.14 653.03 L 428.61 663.96 L 430.08 687.96 L 431.56 664.67 L 433.03 689.13 L 434.50 654.19 L 435.97 684.19 L 437.44 687.79 L 438.92 689.60 L 440.39 673.03 L 441.86 662.31 L 443.33 661.72 L 444.81 663.70 L 446.28 688.63 L 447.75 695.22 L 449.22 696.72 L 450.69 697.62 L 452.17 698.10 L 453.64 698.06 L 455.11 697.74 L 456.58 698.84 L 458.06 698.67 L 459.53 698.75 L 461.00 698.95 L 462.47 698.29 L 463.94 698.88 L 465.42 698.49 L 466.89 698.99 L 468.36 698.82 L 469.83 698.63 L 471.31 699.10 L 472.78 698.83 L 474.25 698.61 L 475.72 698.93 L 477.19 698.48 L 478.67 698.62 L 480.14 698.95 L 481.61 698.93 L 483.08 698.75 L 484.56 698.95 L 486.03 689.48 L 487.50 669.88 L 488.97 667.24 L 490.44 632.41 L 491.92 643.93 L 493.39 691.08 L 494.86 671.83 L 496.33 696.34 L 497.81 675.70 L 499.28 679.36 L 500.75 655.56 L 502.22 679.31 L 503.69 677.00 L 505.17 678.91 L 506.64 660.03 L 508.11 655.72 L 509.58 654.85 L 511.06 660.71 L 512.53 662.10 L 514.00 668.22 L 515.47 661.09 L 516.94 645.36 L 518.42 639.17 L 519.89 687.00 L 521.36 671.13 L 522.83 686.00 L 524.31 683.06 L 525.78 644.23 L 527.25 636.18 L 528.72 681.69 L 530.19 688.34 L 531.67 695.76 L 533.14 697.46 L 534.61 698.45 L 536.08 699.01 L 537.56 698.50 L 539.03 699.07 L 540.50 678.95 L 541.97 645.58 L 543.44 688.68 L 544.92 693.17 L 546.39 695.39 L 547.86 697.41 L 549.33 698.31 L 550.81 698.34 L 552.28 698.85 L 553.75 698.56 L 555.22 698.85 L 556.69 698.99 L 558.17 699.00 L 559.64 699.03 L 561.11 698.88 L 562.58 695.00 L 564.06 694.92 L 565.53 695.22 L 567.00 650.49 L 568.47 676.09 L 569.94 662.33 L 571.42 662.33 L 572.89 631.38 L 574.36 639.57 L 575.83 683.07 L 577.31 657.80 L 578.78 653.79 L 580.25 618.12 L 581.72 672.56 L 583.19 653.38 L 584.67 598.90 L 586.14 632.10 L 587.61 584.73 L 589.08 626.12 L 590.56 679.12 L 592.03 641.44 L 593.50 641.78 L 594.97 587.18 L 596.44 685.67 L 597.92 682.77 L 599.39 692.74 L 600.86 697.44 L 602.33 698.38 L 603.81 698.46 L 605.28 698.99 L 606.75 698.47 L 608.22 698.50 L 609.69 698.67 L 611.17 698.66 L 612.64 698.92 L 614.11 698.56 L 615.58 698.39 L 617.06 698.64 L 618.53 698.55 L 620.00 698.96 L 621.47 698.75 L 622.94 697.84 L 624.42 698.36 L 625.89 699.09 L 627.36 698.95 L 628.83 698.96 L 630.31 698.94 L 631.78 698.53 L 633.25 698.69 L 634.72 698.76 L 636.19 698.90 L 637.67 698.86 L 639.14 698.80 L 640.61 698.95 L 642.08 698.73 L 643.56 698.69 L 645.03 698.64 L 646.50 698.42 L 647.97 698.87 L 649.44 698.76 L 650.92 698.86 L 652.39 698.85 L 653.86 698.79 L 655.33 698.88 L 656.81 698.77 L 658.28 698.17 L 659.75 698.57 L 661.22 698.49 L 662.69 698.61 L 664.17 693.96 L 665.64 694.10 L 667.11 691.83 L 668.58 679.85 L 670.06 687.97 L 671.53 640.34 L 673.00 564.54 L 674.47 582.77 L 675.94 655.48 L 677.42 629.47 L 678.89 692.10 L 680.36 674.86 L 681.83 691.57 L 683.31 667.07 L 684.78 656.11 L 686.25 679.96 L 687.72 692.81 L 689.19 678.24 L 690.67 645.94 L 692.14 628.93 L 693.61 614.17 L 695.08 640.03 L 696.56 657.60 L 698.03 602.71 L 699.50 666.18 L 700.97 678.87 L 702.44 685.14 L 703.92 678.69 L 705.39 587.42 L 706.86 632.17 L 708.33 645.47 L 709.81 622.83 L 711.28 592.03 L 712.75 674.21 L 714.22 643.61 L 715.69 624.36 L 717.17 663.36 L 718.64 679.02 L 720.11 610.96 L 721.58 668.03 L 723.06 684.21 L 724.53 659.81 L 726.00 642.81 L 727.47 690.51 L 728.94 665.11 L 730.42 659.54 L 731.89 637.78 L 733.36 677.73 L 734.83 650.89 L 736.31 601.52 L 737.78 656.84 L 739.25 660.44 L 740.72 584.61 L 742.19 676.04 L 743.67 687.67 L 745.14 685.21 L 746.61 674.37 L 748.08 674.37 L 749.56 681.42 L 751.03 696.22 L 752.50 695.35 L 753.97 696.60 L 755.44 697.49 L 756.92 697.44 L 758.39 697.52" stroke="#FB8C00" />
<text x="90" y="711.25" font-size="14" font-weight="700">Giroscópio (magnitude) (u.a.)</text>
<rect class="event" x="443.33" y="717.25" width="50.06" height="192.75" />
<line class="eventline" x1="443.33" y1="717.25" x2="443.33" y2="910.00" />
<line class="eventline" x1="493.39" y1="717.25" x2="493.39" y2="910.00" />
<line class="grid" x1="90" y1="910.00" x2="1150" y2="910.00" />
<text class="small" x="80" y="914.00" text-anchor="end">0.00</text>
<line class="grid" x1="90" y1="871.45" x2="1150" y2="871.45" />
<text class="small" x="80" y="875.45" text-anchor="end">0.05</text>
<line class="grid" x1="90" y1="832.90" x2="1150" y2="832.90" />
<text class="small" x="80" y="836.90" text-anchor="end">0.10</text>
<line class="grid" x1="90" y1="794.35" x2="1150" y2="794.35" />
<text class="small" x="80" y="798.35" text-anchor="end">0.15</text>
<line class="grid" x1="90" y1="755.80" x2="1150" y2="755.80" />
<text class="small" x="80" y="759.80" text-anchor="end">0.20</text>
<line class="grid" x1="90" y1="717.25" x2="1150" y2="717.25" />
<text class="small" x="80" y="721.25" text-anchor="end">0.25</text>
<line class="grid" x1="90.00" y1="717.25" x2="90.00" y2="910.00" />
<line class="grid" x1="266.67" y1="717.25" x2="266.67" y2="910.00" />
<line class="grid" x1="443.33" y1="717.25" x2="443.33" y2="910.00" />
<line class="grid" x1="620.00" y1="717.25" x2="620.00" y2="910.00" />
<line class="grid" x1="796.67" y1="717.25" x2="796.67" y2="910.00" />
<line class="grid" x1="973.33" y1="717.25" x2="973.33" y2="910.00" />
<line class="grid" x1="1150.00" y1="717.25" x2="1150.00" y2="910.00" />
<line class="axis" x1="90" y1="717.25" x2="90" y2="910.00" />
<line class="axis" x1="90" y1="910.00" x2="1150" y2="910.00" />
<path class="series" d="M 178.33 881.65 L 179.81 858.27 L 181.28 869.38 L 182.75 887.24 L 184.22 902.53 L 185.69 892.53 L 187.17 867.97 L 188.64 863.80 L 190.11 902.43 L 191.58 884.97 L 193.06 898.24 L 194.53 877.35 L 196.00 885.98 L 197.47 896.01 L 198.94 882.53 L 200.42 882.25 L 201.89 901.26 L 203.36 898.43 L 204.83 897.76 L 206.31 892.78 L 207.78 906.75 L 209.25 905.31 L 210.72 905.27 L 212.19 900.20 L 213.67 900.64 L 215.14 897.43 L 216.61 896.36 L 218.08 893.00 L 219.56 878.94 L 221.03 890.62 L 222.50 897.40 L 223.97 903.88 L 225.44 899.75 L 226.92 908.14 L 228.39 904.14 L 229.86 895.80 L 231.33 858.28 L 232.81 846.06 L 234.28 845.71 L 235.75 845.71 L 237.22 846.60 L 238.69 862.08 L 240.17 888.59 L 241.64 876.57 L 243.11 880.44 L 244.58 875.86 L 246.06 839.37 L 247.53 831.74 L 249.00 804.42 L 250.47 775.99 L 251.94 782.33 L 253.42 774.53 L 254.89 782.50 L 256.36 801.99 L 257.83 850.21 L 259.31 878.85 L 260.78 903.66 L 262.25 909.43 L 263.72 909.76 L 265.19 909.75 L 266.67 909.66 L 268.14 909.87 L 269.61 909.11 L 271.08 909.91 L 272.56 909.92 L 274.03 909.83 L 275.50 909.86 L 276.97 909.89 L 278.44 909.85 L 279.92 909.79 L 281.39 909.88 L 282.86 909.92 L 284.33 909.89 L 285.81 909.74 L 287.28 909.85 L 288.75 909.64 L 290.22 909.79 L 291.69 909.71 L 293.17 909.71 L 294.64 909.65 L 296.11 909.62 L 297.58 909.65 L 299.06 909.68 L 300.53 909.65 L 302.00 909.72 L 303.47 909.78 L 304.94 909.76 L 306.42 909.73 L 307.89 909.80 L 309.36 909.75 L 310.83 909.71 L 312.31 909.73 L 313.78 909.69 L 315.25 909.70 L 316.72 909.81 L 318.19 909.73 L 319.67 909.80 L 321.14 909.91 L 322.61 909.75 L 324.08 909.79 L 325.56 909.64 L 327.03 909.87 L 328.50 909.77 L 329.97 909.67 L 331.44 909.65 L 332.92 909.66 L 334.39 909.72 L 335.86 909.70 L 337.33 909.73 L 338.81 909.68 L 340.28 909.79 L 341.75 909.91 L 343.22 909.68 L 344.69 909.79 L 346.17 909.70 L 347.64 909.71 L 349.11 909.60 L 350.58 909.64 L 352.06 909.74 L 353.53 909.60 L 355.00 909.48 L 356.47 909.70 L 357.94 909.75 L 359.42 909.64 L 360.89 909.78 L 362.36 909.77 L 363.83 909.63 L 365.31 909.74 L 366.78 909.63 L 368.25 909.70 L 369.72 909.58 L 371.19 909.51 L 372.67 909.76 L 374.14 909.86 L 375.61 909.86 L 377.08 909.89 L 378.56 909.96 L 380.03 909.91 L 381.50 909.95 L 382.97 909.89 L 384.44 909.90 L 385.92 909.90 L 387.39 909.93 L 388.86 909.97 L 390.33 909.84 L 391.81 909.92 L 393.28 909.72 L 394.75 909.80 L 396.22 909.90 L 397.69 909.89 L 399.17 909.81 L 400.64 909.69 L 402.11 909.83 L 403.58 909.70 L 405.06 909.70 L 406.53 909.88 L 408.00 909.81 L 409.47 909.73 L 410.94 908.74 L 412.42 907.02 L 413.89 889.66 L 415.36 866.64 L 416.83 864.71 L 418.31 870.77 L 419.78 881.77 L 421.25 873.76 L 422.72 879.98 L 424.19 884.42 L 425.67 888.74 L 427.14 893.29 L 428.61 897.84 L 430.08 882.31 L 431.56 888.27 L 433.03 885.17 L 434.50 886.61 L 435.97 876.55 L 437.44 857.76 L 438.92 869.58 L 440.39 873.46 L 441.86 887.80 L 443.33 904.00 L 444.81 908.51 L 446.28 909.20 L 447.75 909.71 L 449.22 909.61 L 450.69 909.52 L 452.17 909.57 L 453.64 909.37 L 455.11 909.57 L 456.58 909.43 L 458.06 909.47 L 459.53 909.34 L 461.00 909.76 L 462.47 909.74 L 463.94 909.90 L 465.42 909.88 L 466.89 909.87 L 468.36 909.88 L 469.83 909.81 L 471.31 909.79 L 472.78 909.84 L 474.25 909.85 L 475.72 909.89 L 477.19 909.85 L 478.67 909.81 L 480.14 909.82 L 481.61 909.79 L 483.08 909.84 L 484.56 909.76 L 486.03 907.24 L 487.50 906.19 L 488.97 908.77 L 490.44 905.85 L 491.92 887.37 L 493.39 885.00 L 494.86 864.70 L 496.33 862.57 L 497.81 852.17 L 499.28 847.51 L 500.75 851.93 L 502.22 854.74 L 503.69 847.69 L 505.17 845.62 L 506.64 849.49 L 508.11 849.48 L 509.58 852.50 L 511.06 848.96 L 512.53 842.74 L 514.00 856.69 L 515.47 863.57 L 516.94 873.15 L 518.42 869.46 L 519.89 874.32 L 521.36 853.40 L 522.83 862.91 L 524.31 863.64 L 525.78 853.48 L 527.25 880.72 L 528.72 908.60 L 530.19 909.46 L 531.67 909.65 L 533.14 909.86 L 534.61 909.71 L 536.08 909.71 L 537.56 909.82 L 539.03 909.75 L 540.50 904.57 L 541.97 906.63 L 543.44 908.12 L 544.92 909.57 L 546.39 909.59 L 547.86 909.76 L 549.33 909.69 L 550.81 909.84 L 552.28 909.70 L 553.75 909.87 L 555.22 909.85 L 556.69 909.87 L 558.17 909.92 L 559.64 909.86 L 561.11 909.73 L 562.58 909.50 L 564.06 908.22 L 565.53 909.39 L 567.00 906.94 L 568.47 894.87 L 569.94 901.56 L 571.42 901.56 L 572.89 903.65 L 574.36 893.87 L 575.83 889.91 L 577.31 886.00 L 578.78 892.89 L 580.25 896.27 L 581.72 885.28 L 583.19 877.87 L 584.67 850.29 L 586.14 852.71 L 587.61 877.73 L 589.08 888.19 L 590.56 871.26 L 592.03 868.20 L 593.50 894.22 L 594.97 909.16 L 596.44 908.43 L 597.92 909.29 L 599.39 909.43 L 600.86 909.86 L 602.33 909.82 L 603.81 909.84 L 605.28 909.88 L 606.75 909.93 L 608.22 909.88 L 609.69 909.83 L 611.17 909.90 L 612.64 909.89 L 614.11 909.80 L 615.58 909.76 L 617.06 909.89 L 618.53 909.69 L 620.00 909.71 L 621.47 909.86 L 622.94 909.87 L 624.42 909.88 L 625.89 909.86 L 627.36 909.84 L 628.83 909.79 L 630.31 909.93 L 631.78 909.88 L 633.25 909.80 L 634.72 909.71 L 636.19 909.69 L 637.67 909.82 L 639.14 909.73 L 640.61 909.81 L 642.08 909.80 L 643.56 909.79 L 645.03 909.82 L 646.50 909.82 L 647.97 909.78 L 649.44 909.69 L 650.92 909.73 L 652.39 909.72 L 653.86 909.74 L 655.33 909.79 L 656.81 909.77 L 658.28 909.80 L 659.75 909.96 L 661.22 909.71 L 662.69 909.80 L 664.17 908.30 L 665.64 909.30 L 667.11 909.52 L 668.58 901.42 L 670.06 885.10 L 671.53 864.62 L 673.00 837.55 L 674.47 869.61 L 675.94 838.01 L 677.42 850.63 L 678.89 864.43 L 680.36 857.79 L 681.83 880.09 L 683.31 876.83 L 684.78 876.92 L 686.25 872.39 L 687.72 870.36 L 689.19 869.84 L 690.67 898.95 L 692.14 897.48 L 693.61 906.35 L 695.08 906.06 L 696.56 908.20 L 698.03 904.82 L 699.50 881.04 L 700.97 880.40 L 702.44 878.66 L 703.92 885.90 L 705.39 882.92 L 706.86 904.83 L 708.33 885.39 L 709.81 898.84 L 711.28 876.24 L 712.75 877.62 L 714.22 874.74 L 715.69 891.60 L 717.17 898.07 L 718.64 892.86 L 720.11 894.11 L 721.58 896.01 L 723.06 892.68 L 724.53 902.05 L 726.00 897.29 L 727.47 904.35 L 728.94 892.47 L 730.42 900.28 L 731.89 898.43 L 733.36 900.28 L 734.83 888.45 L 736.31 901.12 L 737.78 899.66 L 739.25 901.71 L 740.72 894.76 L 742.19 906.18 L 743.67 907.85 L 745.14 907.48 L 746.61 905.51 L 748.08 905.51 L 749.56 908.22 L 751.03 908.60 L 752.50 907.95 L 753.97 908.51 L 755.44 908.26 L 756.92 908.36 L 758.39 908.26" stroke="#E53935" />
<text x="620.00" y="952" font-size="15" text-anchor="middle">minutos (relativo ao início do evento)</text>
<text class="small" x="90.00" y="936" text-anchor="middle">-4.00</text>
<text class="small" x="266.67" y="936" text-anchor="middle">-2.00</text>
<text class="small" x="443.33" y="936" text-anchor="middle">0.00</text>
<text class="small" x="620.00" y="936" text-anchor="middle">2.00</text>
<text class="small" x="796.67" y="936" text-anchor="middle">4.00</text>
<text class="small" x="973.33" y="936" text-anchor="middle">6.00</text>
<text class="small" x="1150.00" y="936" text-anchor="middle">8.00</text>
</svg>