<?xml version="1.0" encoding="UTF-8"?>
<svg xmlns="http://www.w3.org/2000/svg" width="1180" height="980" viewBox="0 0 1180 980">
<style>
text { font-family: -apple-system, BlinkMacSystemFont, 'Segoe UI', Roboto, Helvetica, Arial, sans-serif; fill: #111; }
.small { font-size: 12px; fill: #222; }
.title { font-size: 18px; font-weight: 700; }
.axis { stroke: #111; stroke-width: 1.4; }
.grid { stroke: #E6E6E6; stroke-width: 1; }
.event { fill: #FFEB3B; fill-opacity: 0.18; }
.eventline { stroke: #F9A825; stroke-width: 1.2; stroke-dasharray: 4 3; }
.series { fill: none; stroke-width: 1.8; }
</style>
<text class="title" x="90" y="34">ciclo 12 — espera_carregamento — 2025-12-13T01:16:36-03:00 → 2025-12-13T01:17:04-03:00 (span 28s, dur 29s)</text>
<text class="small" x="90" y="54">GPS: -11.699194,-47.157489  hotspot: -11.699,-47.157</text>
<text class="small" x="90" y="70">Janela: -3.00 → 3.47 min (relativo ao início do evento)</text>
<text x="90" y="79.00" font-size="14" font-weight="700">Velocidade (km/h)</text>
<rect class="event" x="443.33" y="85.00" width="41.22" height="192.75" />
<line class="eventline" x1="443.33" y1="85.00" x2="443.33" y2="277.75" />
<line class="eventline" x1="484.56" y1="85.00" x2="484.56" y2="277.75" />
<line class="grid" x1="90" y1="277.75" x2="1150" y2="277.75" />
<text class="small" x="80" y="281.75" text-anchor="end">0.00</text>
<line class="grid" x1="90" y1="239.20" x2="1150" y2="239.20" />
<text class="small" x="80" y="243.20" text-anchor="end">2.00</text>
<line class="grid" x1="90" y1="200.65" x2="1150" y2="200.65" />
<text class="small" x="80" y="204.65" text-anchor="end">4.00</text>
<line class="grid" x1="90" y1="162.10" x2="1150" y2="162.10" />
<text class="small" x="80" y="166.10" text-anchor="end">6.00</text>
<line class="grid" x1="90" y1="123.55" x2="1150" y2="123.55" />
<text class="small" x="80" y="127.55" text-anchor="end">8.00</text>
<line class="grid" x1="90" y1="85.00" x2="1150" y2="85.00" />
<text class="small" x="80" y="89.00" text-anchor="end">10.0</text>
<line class="grid" x1="90.00" y1="85.00" x2="90.00" y2="277.75" />
<line class="grid" x1="266.67" y1="85.00" x2="266.67" y2="277.75" />
<line class="grid" x1="443.33" y1="85.00" x2="443.33" y2="277.75" />
<line class="grid" x1="620.00" y1="85.00" x2="620.00" y2="277.75" />
<line class="grid" x1="796.67" y1="85.00" x2="796.67" y2="277.75" />
<line class="grid" x1="973.33" y1="85.00" x2="973.33" y2="277.75" />
<line class="grid" x1="1150.00" y1="85.00" x2="1150.00" y2="277.75" />
<line class="axis" x1="90" y1="85.00" x2="90" y2="277.75" />
<line class="axis" x1="90" y1="277.75" x2="1150" y2="277.75" />
<path class="series" d="M 178.33 277.75 L 179.81 277.75 L 181.28 277.75 L 182.75 277.75 L 184.22 277.75 L 185.69 277.75 L 187.17 277.75 L 188.64 277.75 L 190.11 277.75 L 191.58 277.75 L 193.06 277.75 L 194.53 277.75 L 196.00 277.75 L 197.47 277.75 L 198.94 277.75 L 200.42 277.75 L 201.89 277.75 L 203.36 277.75 L 204.83 277.75 L 206.31 277.75 L 207.78 277.75 L 209.25 277.75 L 210.72 277.75 L 212.19 277.75 L 213.67 277.75 L 215.14 277.75 L 216.61 277.75 L 218.08 277.75 L 219.56 277.75 L 221.03 277.75 L 222.50 277.75 L 223.97 277.75 L 225.44 277.75 L 226.92 277.75 L 228.39 277.75 L 229.86 277.75 L 231.33 277.75 L 232.81 277.75 L 234.28 277.75 L 235.75 277.75 L 237.22 277.75 L 238.69 277.75 L 240.17 277.75 L 241.64 277.75 L 243.11 277.75 L 244.58 277.75 L 246.06 277.75 L 247.53 277.75 L 249.00 277.75 L 250.47 277.75 L 251.94 277.75 L 253.42 277.75 L 254.89 277.75 L 256.36 277.75 L 257.83 277.75 L 259.31 277.75 L 260.78 277.75 L 262.25 277.75 L 263.72 277.75 L 265.19 277.75 L 266.67 277.75 L 268.14 277.75 L 269.61 277.75 L 271.08 277.75 L 272.56 277.75 L 274.03 277.75 L 275.50 277.75 L 276.97 277.75 L 278.44 277.75 L 279.92 277.75 L 281.39 277.75 L 282.86 277.75 L 284.33 277.75 L 285.81 277.75 L 287.28 277.75 L 288.75 277.75 L 290.22 277.75 L 291.69 277.75 L 293.17 277.75 L 294.64 277.75 L 296.11 277.75 L 297.58 277.75 L 299.06 277.75 L 300.53 277.75 L 302.00 277.75 L 303.47 277.75 L 304.94 277.75 L 306.42 277.75 L 307.89 277.75 L 309.36 277.75 L 310.83 277.75 L 312.31 277.75 L 313.78 277.75 L 315.25 277.75 L 316.72 277.75 L 318.19 277.75 L 319.67 277.75 L 321.14 277.75 L 322.61 277.75 L 324.08 277.75 L 325.56 277.75 L 327.03 277.75 L 328.50 277.75 L 329.97 277.75 L 331.44 222.24 L 332.92 222.24 L 334.39 219.46 L 335.86 222.93 L 337.33 217.38 L 338.81 221.54 L 340.28 229.18 L 341.75 230.56 L 343.22 229.18 L 344.69 222.24 L 346.17 221.54 L 347.64 211.14 L 349.11 227.10 L 350.58 222.24 L 352.06 220.16 L 353.53 277.75 L 355.00 240.97 L 356.47 250.69 L 357.94 277.75 L 359.42 277.75 L 360.89 277.75 L 362.36 277.75 L 363.83 277.75 L 365.31 277.75 L 366.78 277.75 L 368.25 277.75 L 369.72 277.75 L 371.19 277.75 L 372.67 277.75 L 374.14 277.75 L 375.61 277.75 L 377.08 277.75 L 378.56 277.75 L 380.03 277.75 L 381.50 277.75 L 382.97 277.75 L 384.44 277.75 L 385.92 277.75 L 387.39 277.75 L 388.86 277.75 L 390.33 277.75 L 391.81 277.75 L 393.28 277.75 L 394.75 277.75 L 396.22 277.75 L 397.69 277.75 L 399.17 277.75 L 400.64 277.75 L 402.11 277.75 L 403.58 277.75 L 405.06 277.75 L 406.53 277.75 L 408.00 277.75 L 409.47 229.18 L 410.94 222.93 L 412.42 213.91 L 413.89 208.36 L 415.36 196.56 L 416.83 201.42 L 418.31 203.50 L 419.78 197.26 L 421.25 201.42 L 422.72 202.81 L 424.19 200.73 L 425.67 202.11 L 427.14 184.07 L 428.61 188.24 L 430.08 198.65 L 431.56 197.95 L 433.03 208.36 L 434.50 277.75 L 435.97 239.59 L 437.44 234.03 L 438.92 231.95 L 440.39 229.87 L 441.86 237.50 L 443.33 277.75 L 444.81 277.75 L 446.28 277.75 L 447.75 277.75 L 449.22 277.75 L 450.69 277.75 L 452.17 277.75 L 453.64 277.75 L 455.11 277.75 L 456.58 277.75 L 458.06 277.75 L 459.53 277.75 L 461.00 277.75 L 462.47 277.75 L 463.94 277.75 L 465.42 277.75 L 466.89 277.75 L 468.36 277.75 L 469.83 277.75 L 471.31 277.75 L 472.78 277.75 L 474.25 277.75 L 475.72 277.75 L 477.19 277.75 L 478.67 277.75 L 480.14 277.75 L 481.61 277.75 L 483.08 277.75 L 484.56 277.75 L 486.03 233.34 L 487.50 226.40 L 488.97 247.22 L 490.44 227.10 L 491.92 204.20 L 493.39 195.87 L 494.86 196.56 L 496.33 193.09 L 497.81 184.07 L 499.28 167.42 L 500.75 177.83 L 502.22 183.38 L 503.69 197.26 L 505.17 218.07 L 506.64 236.81 L 508.11 277.75 L 509.58 277.75 L 511.06 277.75 L 512.53 277.75 L 514.00 277.75 L 515.47 277.75 L 516.94 277.75 L 518.42 277.75 L 519.89 277.75 L 521.36 277.75 L 522.83 277.75 L 524.31 277.75 L 525.78 277.75 L 527.25 277.75 L 528.72 277.75 L 530.19 277.75 L 531.67 277.75 L 533.14 277.75 L 534.61 277.75 L 536.08 277.75 L 537.56 277.75 L 539.03 277.75 L 540.50 277.75 L 541.97 277.75 L 543.44 277.75 L 544.92 277.75 L 546.39 277.75 L 547.86 277.75 L 549.33 277.75 L 550.81 277.75 L 552.28 277.75 L 553.75 277.75 L 555.22 277.75 L 556.69 277.75 L 558.17 277.75 L 559.64 277.75 L 561.11 277.75 L 562.58 277.75 L 564.06 277.75 L 565.53 277.75 L 567.00 277.75 L 568.47 277.75 L 569.94 277.75 L 571.42 277.75 L 572.89 277.75 L 574.36 277.75 L 575.83 277.75 L 577.31 277.75 L 578.78 277.75 L 580.25 277.75 L 581.72 277.75 L 583.19 277.75 L 584.67 277.75 L 586.14 231.95 L 587.61 193.79 L 589.08 243.06 L 590.56 195.87 L 592.03 206.28 L 593.50 227.10 L 594.97 229.18 L 596.44 277.75 L 597.92 277.75 L 599.39 277.75 L 600.86 277.75 L 602.33 244.44 L 603.81 242.36 L 605.28 245.83 L 606.75 277.75 L 608.22 277.75 L 609.69 277.75 L 611.17 277.75 L 612.64 277.75 L 614.11 277.75 L 615.58 277.75 L 617.06 277.75 L 618.53 229.87 L 620.00 227.10 L 621.47 277.75 L 622.94 277.75 L 624.42 277.75 L 625.89 277.75 L 627.36 220.16 L 628.83 222.93 L 630.31 208.36 L 631.78 191.71 L 633.25 201.42 L 634.72 183.38 L 636.19 218.77 L 637.67 223.63 L 639.14 218.77 L 640.61 212.52 L 642.08 231.26 L 643.56 231.95 L 645.03 218.77 L 646.50 236.81 L 647.97 259.71 L 649.44 245.14 L 650.92 212.52 L 652.39 255.55 L 653.86 277.75 L 655.33 235.42 L 656.81 259.71 L 658.28 277.75 L 659.75 277.75 L 661.22 277.75 L 662.69 277.75 L 664.17 277.75 L 665.64 277.75 L 667.11 277.75 L 668.58 277.75 L 670.06 277.75 L 671.53 277.75 L 673.00 277.75 L 674.47 277.75 L 675.94 277.75 L 677.42 277.75 L 678.89 277.75 L 680.36 277.75 L 681.83 277.75 L 683.31 277.75 L 684.78 277.75 L 686.25 277.75 L 687.72 277.75 L 689.19 277.75 L 690.67 277.75 L 692.14 277.75 L 693.61 277.75 L 695.08 277.75 L 696.56 277.75 L 698.03 277.75 L 699.50 277.75 L 700.97 277.75 L 702.44 277.75 L 703.92 277.75 L 705.39 277.75 L 706.86 277.75 L 708.33 277.75 L 709.81 277.75 L 711.28 277.75 L 712.75 277.75 L 714.22 277.75 L 715.69 277.75 L 717.17 277.75 L 718.64 277.75 L 720.11 277.75 L 721.58 277.75 L 723.06 277.75 L 724.53 277.75 L 726.00 277.75 L 727.47 277.75 L 728.94 277.75 L 730.42 277.75 L 731.89 277.75 L 733.36 277.75 L 734.83 277.75 L 736.31 277.75 L 737.78 277.75 L 739.25 277.75 L 740.72 277.75 L 742.19 277.75 L 743.67 277.75 L 745.14 277.75 L 746.61 277.75 L 748.08 277.75 L 749.56 277.75" stroke="#1976D2" />
<text x="90" y="289.75" font-size="14" font-weight="700">Inclinação (graus)</text>
<rect class="event" x="443.33" y="295.75" width="41.22" height="192.75" />
<line class="eventline" x1="443.33" y1="295.75" x2="443.33" y2="488.50" />
<line class="eventline" x1="484.56" y1="295.75" x2="484.56" y2="488.50" />
<line class="grid" x1="90" y1="488.50" x2="1150" y2="488.50" />
<text class="small" x="80" y="492.50" text-anchor="end">-10.0</text>
<line class="grid" x1="90" y1="449.95" x2="1150" y2="449.95" />
<text class="small" x="80" y="453.95" text-anchor="end">0.00</text>
<line class="grid" x1="90" y1="411.40" x2="1150" y2="411.40" />
<text class="small" x="80" y="415.40" text-anchor="end">10.0</text>
<line class="grid" x1="90" y1="372.85" x2="1150" y2="372.85" />
<text class="small" x="80" y="376.85" text-anchor="end">20.0</text>
<line class="grid" x1="90" y1="334.30" x2="1150" y2="334.30" />
<text class="small" x="80" y="338.30" text-anchor="end">30.0</text>
<line class="grid" x1="90" y1="295.75" x2="1150" y2="295.75" />
<text class="small" x="80" y="299.75" text-anchor="end">40.0</text>
<line class="grid" x1="90.00" y1="295.75" x2="90.00" y2="488.50" />
<line class="grid" x1="266.67" y1="295.75" x2="266.67" y2="488.50" />
<line class="grid" x1="443.33" y1="295.75" x2="443.33" y2="488.50" />
<line class="grid" x1="620.00" y1="295.75" x2="620.00" y2="488.50" />
<line class="grid" x1="796.67" y1="295.75" x2="796.67" y2="488.50" />
<line class="grid" x1="973.33" y1="295.75" x2="973.33" y2="488.50" />
<line class="grid" x1="1150.00" y1="295.75" x2="1150.00" y2="488.50" />
<line class="axis" x1="90" y1="295.75" x2="90" y2="488.50" />
<line class="axis" x1="90" y1="488.50" x2="1150" y2="488.50" />
<path class="series" d="M 178.33 418.02 L 179.81 417.76 L 181.28 417.74 L 182.75 417.68 L 184.22 418.00 L 185.69 417.89 L 187.17 417.85 L 188.64 417.87 L 190.11 417.85 L 191.58 417.87 L 193.06 417.85 L 194.53 417.86 L 196.00 417.83 L 197.47 417.90 L 198.94 417.84 L 200.42 417.92 L 201.89 417.85 L 203.36 417.87 L 204.83 417.77 L 206.31 417.79 L 207.78 417.80 L 209.25 417.85 L 210.72 417.83 L 212.19 417.88 L 213.67 417.88 L 215.14 417.84 L 216.61 417.89 L 218.08 417.85 L 219.56 417.87 L 221.03 417.87 L 222.50 417.86 L 223.97 417.83 L 225.44 417.86 L 226.92 417.87 L 228.39 417.87 L 229.86 417.85 L 231.33 417.91 L 232.81 417.83 L 234.28 417.88 L 235.75 417.90 L 237.22 417.88 L 238.69 417.84 L 240.17 417.88 L 241.64 417.93 L 243.11 417.83 L 244.58 417.95 L 246.06 417.88 L 247.53 417.89 L 249.00 417.84 L 250.47 417.84 L 251.94 417.87 L 253.42 417.89 L 254.89 417.92 L 256.36 417.91 L 257.83 417.87 L 259.31 417.88 L 260.78 417.88 L 262.25 417.90 L 263.72 417.86 L 265.19 417.94 L 266.67 417.88 L 268.14 417.89 L 269.61 417.89 L 271.08 417.83 L 272.56 417.88 L 274.03 417.88 L 275.50 417.86 L 276.97 417.87 L 278.44 417.86 L 279.92 417.86 L 281.39 417.91 L 282.86 417.89 L 284.33 417.86 L 285.81 417.89 L 287.28 417.87 L 288.75 417.88 L 290.22 417.89 L 291.69 417.90 L 293.17 417.86 L 294.64 417.87 L 296.11 417.89 L 297.58 417.87 L 299.06 417.86 L 300.53 417.84 L 302.00 417.89 L 303.47 417.81 L 304.94 417.87 L 306.42 417.87 L 307.89 417.87 L 309.36 417.85 L 310.83 417.87 L 312.31 417.90 L 313.78 417.88 L 315.25 417.88 L 316.72 417.93 L 318.19 417.85 L 319.67 417.93 L 321.14 417.95 L 322.61 417.94 L 324.08 417.97 L 325.56 419.54 L 327.03 419.68 L 328.50 428.47 L 329.97 422.17 L 331.44 418.95 L 332.92 419.77 L 334.39 420.95 L 335.86 419.76 L 337.33 420.56 L 338.81 420.01 L 340.28 413.45 L 341.75 412.79 L 343.22 415.72 L 344.69 412.24 L 346.17 405.39 L 347.64 406.88 L 349.11 401.25 L 350.58 403.72 L 352.06 402.13 L 353.53 396.94 L 355.00 400.41 L 356.47 397.83 L 357.94 397.13 L 359.42 402.83 L 360.89 403.02 L 362.36 403.06 L 363.83 403.09 L 365.31 403.07 L 366.78 403.13 L 368.25 403.07 L 369.72 403.12 L 371.19 403.19 L 372.67 403.10 L 374.14 403.11 L 375.61 403.10 L 377.08 403.09 L 378.56 403.08 L 380.03 403.13 L 381.50 403.07 L 382.97 403.08 L 384.44 403.09 L 385.92 403.07 L 387.39 403.14 L 388.86 403.03 L 390.33 403.13 L 391.81 403.10 L 393.28 403.05 L 394.75 403.10 L 396.22 403.11 L 397.69 403.07 L 399.17 403.10 L 400.64 401.45 L 402.11 406.39 L 403.58 401.91 L 405.06 407.55 L 406.53 407.07 L 408.00 406.38 L 409.47 409.90 L 410.94 409.43 L 412.42 411.88 L 413.89 417.03 L 415.36 421.72 L 416.83 422.22 L 418.31 426.03 L 419.78 420.99 L 421.25 417.49 L 422.72 416.75 L 424.19 415.87 L 425.67 415.58 L 427.14 416.23 L 428.61 414.63 L 430.08 417.07 L 431.56 407.61 L 433.03 399.48 L 434.50 400.42 L 435.97 402.35 L 437.44 395.14 L 438.92 394.73 L 440.39 393.45 L 441.86 377.56 L 443.33 377.90 L 444.81 384.60 L 446.28 383.93 L 447.75 384.11 L 449.22 384.17 L 450.69 384.24 L 452.17 384.23 L 453.64 384.10 L 455.11 384.01 L 456.58 383.57 L 458.06 385.99 L 459.53 384.85 L 461.00 384.90 L 462.47 384.84 L 463.94 384.88 L 465.42 384.86 L 466.89 384.84 L 468.36 384.87 L 469.83 384.85 L 471.31 384.82 L 472.78 384.79 L 474.25 384.80 L 475.72 384.79 L 477.19 384.83 L 478.67 384.74 L 480.14 384.83 L 481.61 385.44 L 483.08 392.66 L 484.56 389.98 L 486.03 388.11 L 487.50 381.02 L 488.97 392.90 L 490.44 402.75 L 491.92 396.28 L 493.39 403.17 L 494.86 397.90 L 496.33 401.70 L 497.81 395.78 L 499.28 399.42 L 500.75 398.39 L 502.22 399.44 L 503.69 390.50 L 505.17 392.07 L 506.64 390.94 L 508.11 394.71 L 509.58 399.07 L 511.06 399.99 L 512.53 399.68 L 514.00 399.72 L 515.47 399.78 L 516.94 399.83 L 518.42 399.79 L 519.89 399.79 L 521.36 399.86 L 522.83 399.82 L 524.31 399.83 L 525.78 399.82 L 527.25 399.88 L 528.72 399.85 L 530.19 399.81 L 531.67 399.79 L 533.14 399.78 L 534.61 399.84 L 536.08 399.76 L 537.56 399.76 L 539.03 399.81 L 540.50 399.84 L 541.97 399.77 L 543.44 399.80 L 544.92 399.80 L 546.39 399.80 L 547.86 399.75 L 549.33 399.85 L 550.81 399.80 L 552.28 399.87 L 553.75 399.84 L 555.22 399.81 L 556.69 399.84 L 558.17 399.83 L 559.64 399.82 L 561.11 399.77 L 562.58 399.78 L 564.06 399.74 L 565.53 399.72 L 567.00 399.75 L 568.47 399.79 L 569.94 399.80 L 571.42 399.83 L 572.89 399.80 L 574.36 399.74 L 575.83 399.83 L 577.31 399.69 L 578.78 400.01 L 580.25 399.99 L 581.72 396.23 L 583.19 395.44 L 584.67 393.82 L 586.14 390.83 L 587.61 405.97 L 589.08 383.54 L 590.56 397.28 L 592.03 398.19 L 593.50 392.87 L 594.97 395.55 L 596.44 392.66 L 597.92 391.55 L 599.39 391.01 L 600.86 395.24 L 602.33 393.79 L 603.81 399.88 L 605.28 400.07 L 606.75 402.55 L 608.22 396.25 L 609.69 394.44 L 611.17 399.68 L 612.64 410.24 L 614.11 396.67 L 615.58 395.58 L 617.06 395.58 L 618.53 392.82 L 620.00 392.20 L 621.47 368.50 L 622.94 379.14 L 624.42 391.45 L 625.89 384.49 L 627.36 398.82 L 628.83 398.33 L 630.31 391.87 L 631.78 399.00 L 633.25 401.09 L 634.72 395.88 L 636.19 393.26 L 637.67 393.09 L 639.14 386.24 L 640.61 385.48 L 642.08 394.18 L 643.56 391.09 L 645.03 395.69 L 646.50 396.31 L 647.97 402.41 L 649.44 393.57 L 650.92 393.74 L 652.39 407.28 L 653.86 402.26 L 655.33 395.14 L 656.81 412.71 L 658.28 401.12 L 659.75 400.08 L 661.22 402.71 L 662.69 400.79 L 664.17 401.28 L 665.64 401.31 L 667.11 401.18 L 668.58 401.16 L 670.06 401.15 L 671.53 401.19 L 673.00 401.21 L 674.47 401.17 L 675.94 401.24 L 677.42 401.20 L 678.89 401.22 L 680.36 401.20 L 681.83 401.20 L 683.31 401.22 L 684.78 401.16 L 686.25 401.17 L 687.72 401.16 L 689.19 401.17 L 690.67 401.15 L 692.14 401.19 L 693.61 401.16 L 695.08 401.14 L 696.56 401.19 L 698.03 401.17 L 699.50 401.11 L 700.97 401.34 L 702.44 401.34 L 703.92 399.11 L 705.39 399.76 L 706.86 399.94 L 708.33 400.02 L 709.81 399.95 L 711.28 399.94 L 712.75 399.97 L 714.22 399.92 L 715.69 399.92 L 717.17 399.92 L 718.64 399.92 L 720.11 399.88 L 721.58 399.86 L 723.06 399.88 L 724.53 399.79 L 726.00 399.86 L 727.47 399.75 L 728.94 399.79 L 730.42 399.71 L 731.89 399.75 L 733.36 399.80 L 734.83 399.79 L 736.31 399.75 L 737.78 399.78 L 739.25 399.75 L 740.72 399.75 L 742.19 399.76 L 743.67 399.78 L 745.14 400.11 L 746.61 399.78 L 748.08 398.82 L 749.56 399.89" stroke="#2E7D32" />
<path class="series" d="M 178.33 449.53 L 179.81 448.71 L 181.28 448.55 L 182.75 448.98 L 184.22 448.92 L 185.69 448.93 L 187.17 448.91 L 188.64 448.89 L 190.11 448.93 L 191.58 448.91 L 193.06 448.97 L 194.53 448.95 L 196.00 448.95 L 197.47 448.96 L 198.94 448.88 L 200.42 448.98 L 201.89 448.92 L 203.36 448.97 L 204.83 448.90 L 206.31 448.86 L 207.78 448.96 L 209.25 448.92 L 210.72 448.92 L 212.19 448.94 L 213.67 448.94 L 215.14 448.90 L 216.61 448.98 L 218.08 448.94 L 219.56 448.97 L 221.03 448.91 L 222.50 448.95 L 223.97 448.99 L 225.44 448.93 L 226.92 448.91 L 228.39 448.96 L 229.86 448.95 L 231.33 448.99 L 232.81 448.98 L 234.28 448.90 L 235.75 449.03 L 237.22 448.95 L 238.69 448.89 L 240.17 449.00 L 241.64 448.94 L 243.11 448.95 L 244.58 449.01 L 246.06 448.98 L 247.53 448.97 L 249.00 448.92 L 250.47 448.98 L 251.94 448.96 L 253.42 448.99 L 254.89 448.95 L 256.36 448.97 L 257.83 448.92 L 259.31 448.97 L 260.78 448.98 L 262.25 448.97 L 263.72 448.95 L 265.19 448.92 L 266.67 448.99 L 268.14 449.00 L 269.61 448.95 L 271.08 448.91 L 272.56 449.01 L 274.03 448.95 L 275.50 448.99 L 276.97 448.96 L 278.44 448.96 L 279.92 448.96 L 281.39 448.96 L 282.86 448.94 L 284.33 448.96 L 285.81 448.95 L 287.28 448.92 L 288.75 448.96 L 290.22 448.95 L 291.69 448.96 L 293.17 448.93 L 294.64 448.93 L 296.11 448.90 L 297.58 449.01 L 299.06 448.91 L 300.53 448.94 L 302.00 448.93 L 303.47 448.93 L 304.94 448.90 L 306.42 448.92 L 307.89 448.99 L 309.36 448.89 L 310.83 448.93 L 312.31 448.96 L 313.78 448.97 L 315.25 448.97 L 316.72 448.97 L 318.19 449.02 L 319.67 448.93 L 321.14 448.92 L 322.61 448.99 L 324.08 448.91 L 325.56 448.12 L 327.03 448.70 L 328.50 442.23 L 329.97 450.71 L 331.44 453.00 L 332.92 451.19 L 334.39 453.45 L 335.86 454.82 L 337.33 457.60 L 338.81 451.91 L 340.28 461.39 L 341.75 448.84 L 343.22 454.65 L 344.69 451.47 L 346.17 446.43 L 347.64 452.26 L 349.11 451.28 L 350.58 453.82 L 352.06 451.67 L 353.53 449.67 L 355.00 452.76 L 356.47 454.15 L 357.94 453.60 L 359.42 450.55 L 360.89 449.93 L 362.36 450.58 L 363.83 450.66 L 365.31 450.11 L 366.78 450.53 L 368.25 450.36 L 369.72 450.28 L 371.19 450.40 L 372.67 450.29 L 374.14 450.28 L 375.61 450.39 L 377.08 450.34 L 378.56 450.36 L 380.03 450.38 L 381.50 450.34 L 382.97 450.35 L 384.44 450.32 L 385.92 450.31 L 387.39 450.34 L 388.86 450.36 L 390.33 450.33 L 391.81 450.35 L 393.28 450.31 L 394.75 450.31 L 396.22 450.28 L 397.69 450.29 L 399.17 450.30 L 400.64 451.43 L 402.11 447.67 L 403.58 451.94 L 405.06 447.53 L 406.53 446.27 L 408.00 450.67 L 409.47 445.58 L 410.94 450.93 L 412.42 447.15 L 413.89 444.07 L 415.36 452.25 L 416.83 449.40 L 418.31 449.58 L 419.78 449.89 L 421.25 446.26 L 422.72 445.81 L 424.19 440.18 L 425.67 441.12 L 427.14 445.36 L 428.61 450.15 L 430.08 460.47 L 431.56 457.82 L 433.03 456.32 L 434.50 450.59 L 435.97 449.93 L 437.44 456.43 L 438.92 451.69 L 440.39 444.28 L 441.86 455.12 L 443.33 456.09 L 444.81 449.46 L 446.28 449.54 L 447.75 449.59 L 449.22 449.50 L 450.69 449.41 L 452.17 449.48 L 453.64 449.33 L 455.11 448.95 L 456.58 450.12 L 458.06 448.54 L 459.53 450.78 L 461.00 449.30 L 462.47 449.70 L 463.94 449.61 L 465.42 449.57 L 466.89 449.68 L 468.36 449.59 L 469.83 449.72 L 471.31 449.53 L 472.78 449.61 L 474.25 449.58 L 475.72 449.62 L 477.19 449.58 L 478.67 449.35 L 480.14 450.18 L 481.61 449.87 L 483.08 447.75 L 484.56 450.88 L 486.03 451.09 L 487.50 449.42 L 488.97 453.93 L 490.44 448.48 L 491.92 448.76 L 493.39 451.88 L 494.86 443.88 L 496.33 448.06 L 497.81 441.77 L 499.28 453.03 L 500.75 460.59 L 502.22 468.15 L 503.69 469.74 L 505.17 464.98 L 506.64 467.51 L 508.11 470.45 L 509.58 471.82 L 511.06 470.86 L 512.53 471.83 L 514.00 471.60 L 515.47 471.50 L 516.94 471.58 L 518.42 471.51 L 519.89 471.58 L 521.36 471.50 L 522.83 471.49 L 524.31 471.54 L 525.78 471.49 L 527.25 471.55 L 528.72 471.51 L 530.19 471.58 L 531.67 471.52 L 533.14 471.57 L 534.61 471.51 L 536.08 471.61 L 537.56 471.51 L 539.03 471.56 L 540.50 471.52 L 541.97 471.55 L 543.44 471.56 L 544.92 471.52 L 546.39 471.58 L 547.86 471.56 L 549.33 471.55 L 550.81 471.59 L 552.28 471.52 L 553.75 471.60 L 555.22 471.52 L 556.69 471.56 L 558.17 471.54 L 559.64 471.51 L 561.11 471.52 L 562.58 471.51 L 564.06 471.56 L 565.53 471.52 L 567.00 471.55 L 568.47 471.54 L 569.94 471.50 L 571.42 471.54 L 572.89 471.55 L 574.36 471.49 L 575.83 471.52 L 577.31 471.45 L 578.78 471.39 L 580.25 471.66 L 581.72 471.24 L 583.19 467.77 L 584.67 465.57 L 586.14 453.13 L 587.61 478.62 L 589.08 450.17 L 590.56 464.13 L 592.03 464.32 L 593.50 452.17 L 594.97 462.06 L 596.44 451.79 L 597.92 450.83 L 599.39 448.81 L 600.86 447.25 L 602.33 443.84 L 603.81 448.69 L 605.28 446.96 L 606.75 446.28 L 608.22 443.48 L 609.69 442.97 L 611.17 445.51 L 612.64 451.46 L 614.11 442.72 L 615.58 443.92 L 617.06 443.92 L 618.53 451.84 L 620.00 455.31 L 621.47 444.96 L 622.94 446.83 L 624.42 452.43 L 625.89 464.27 L 627.36 443.52 L 628.83 443.69 L 630.31 438.48 L 631.78 433.66 L 633.25 445.29 L 634.72 441.03 L 636.19 438.11 L 637.67 437.04 L 639.14 443.32 L 640.61 448.77 L 642.08 449.65 L 643.56 451.91 L 645.03 442.76 L 646.50 439.51 L 647.97 443.94 L 649.44 446.25 L 650.92 440.26 L 652.39 444.15 L 653.86 443.45 L 655.33 449.03 L 656.81 439.69 L 658.28 440.59 L 659.75 441.67 L 661.22 442.01 L 662.69 440.82 L 664.17 441.21 L 665.64 441.15 L 667.11 441.92 L 668.58 441.23 L 670.06 441.68 L 671.53 441.35 L 673.00 441.58 L 674.47 441.49 L 675.94 441.52 L 677.42 441.45 L 678.89 441.51 L 680.36 441.49 L 681.83 441.45 L 683.31 441.49 L 684.78 441.43 L 686.25 441.53 L 687.72 441.47 L 689.19 441.48 L 690.67 441.49 L 692.14 441.50 L 693.61 441.46 L 695.08 441.46 L 696.56 441.44 L 698.03 441.49 L 699.50 441.47 L 700.97 441.66 L 702.44 440.11 L 703.92 440.05 L 705.39 439.82 L 706.86 439.49 L 708.33 440.07 L 709.81 440.14 L 711.28 439.86 L 712.75 439.77 L 714.22 439.90 L 715.69 440.00 L 717.17 439.86 L 718.64 439.86 L 720.11 439.92 L 721.58 439.89 L 723.06 439.85 L 724.53 439.86 L 726.00 439.87 L 727.47 439.84 L 728.94 439.85 L 730.42 439.81 L 731.89 439.87 L 733.36 439.85 L 734.83 439.86 L 736.31 439.82 L 737.78 439.82 L 739.25 439.82 L 740.72 439.84 L 742.19 439.85 L 743.67 439.85 L 745.14 439.99 L 746.61 440.53 L 748.08 437.74 L 749.56 438.74" stroke="#6A1B9A" />
<line x1="900.00" y1="307.75" x2="918.00" y2="307.75" stroke="#2E7D32" stroke-width="3" />
<text class="small" x="924.00" y="311.75">pitch</text>
<line x1="900.00" y1="323.75" x2="918.00" y2="323.75" stroke="#6A1B9A" stroke-width="3" />
<text class="small" x="924.00" y="327.75">roll</text>
<text x="90" y="500.50" font-size="14" font-weight="700">Aceleração (magnitude) (u.a.)</text>
<rect class="event" x="443.33" y="506.50" width="41.22" height="192.75" />
<line class="eventline" x1="443.33" y1="506.50" x2="443.33" y2="699.25" />
<line class="eventline" x1="484.56" y1="506.50" x2="484.56" y2="699.25" />
<line class="grid" x1="90" y1="699.25" x2="1150" y2="699.25" />
<text class="small" x="80" y="703.25" text-anchor="end">0.00</text>
<line class="grid" x1="90" y1="660.70" x2="1150" y2="660.70" />
<text class="small" x="80" y="664.70" text-anchor="end">0.20</text>
<line class="grid" x1="90" y1="622.15" x2="1150" y2="622.15" />
<text class="small" x="80" y="626.15" text-anchor="end">0.40</text>
<line class="grid" x1="90" y1="583.60" x2="1150" y2="583.60" />
<text class="small" x="80" y="587.60" text-anchor="end">0.60</text>
<line class="grid" x1="90" y1="545.05" x2="1150" y2="545.05" />
<text class="small" x="80" y="549.05" text-anchor="end">0.80</text>
<line class="grid" x1="90" y1="506.50" x2="1150" y2="506.50" />
<text class="small" x="80" y="510.50" text-anchor="end">1.00</text>
<line class="grid" x1="90.00" y1="506.50" x2="90.00" y2="699.25" />
<line class="grid" x1="266.67" y1="506.50" x2="266.67" y2="699.25" />
<line class="grid" x1="443.33" y1="506.50" x2="443.33" y2="699.25" />
<line class="grid" x1="620.00" y1="506.50" x2="620.00" y2="699.25" />
<line class="grid" x1="796.67" y1="506.50" x2="796.67" y2="699.25" />
<line class="grid" x1="973.33" y1="506.50" x2="973.33" y2="699.25" />
<line class="grid" x1="1150.00" y1="506.50" x2="1150.00" y2="699.25" />
<line class="axis" x1="90" y1="506.50" x2="90" y2="699.25" />
<line class="axis" x1="90" y1="699.25" x2="1150" y2="699.25" />
<path class="series" d="M 178.33 689.53 L 179.81 693.68 L 181.28 698.55 L 182.75 694.23 L 184.22 694.68 L 185.69 698.59 L 187.17 698.67 L 188.64 699.02 L 190.11 699.00 L 191.58 698.90 L 193.06 698.62 L 194.53 698.76 L 196.00 698.78 L 197.47 699.07 L 198.94 698.82 L 200.42 698.93 L 201.89 698.99 L 203.36 698.33 L 204.83 698.80 L 206.31 698.38 L 207.78 698.52 L 209.25 698.83 L 210.72 698.79 L 212.19 698.87 L 213.67 698.90 L 215.14 698.65 L 216.61 698.83 L 218.08 698.85 L 219.56 698.90 L 221.03 698.93 L 222.50 698.96 L 223.97 698.89 L 225.44 698.82 L 226.92 698.31 L 228.39 698.55 L 229.86 699.15 L 231.33 698.63 L 232.81 698.30 L 234.28 698.00 L 235.75 698.58 L 237.22 698.99 L 238.69 698.82 L 240.17 698.40 L 241.64 699.09 L 243.11 698.57 L 244.58 699.06 L 246.06 698.92 L 247.53 698.65 L 249.00 698.99 L 250.47 698.74 L 251.94 698.54 L 253.42 697.97 L 254.89 698.78 L 256.36 698.79 L 257.83 698.96 L 259.31 698.77 L 260.78 698.75 L 262.25 698.84 L 263.72 698.16 L 265.19 699.03 L 266.67 699.08 L 268.14 698.82 L 269.61 699.05 L 271.08 698.84 L 272.56 699.14 L 274.03 698.77 L 275.50 699.01 L 276.97 699.08 L 278.44 699.07 L 279.92 699.04 L 281.39 698.93 L 282.86 698.74 L 284.33 699.07 L 285.81 699.10 L 287.28 699.06 L 288.75 698.80 L 290.22 699.10 L 291.69 698.47 L 293.17 698.66 L 294.64 698.82 L 296.11 698.68 L 297.58 698.93 L 299.06 698.77 L 300.53 698.50 L 302.00 698.60 L 303.47 698.49 L 304.94 698.95 L 306.42 698.97 L 307.89 699.05 L 309.36 698.57 L 310.83 698.94 L 312.31 698.98 L 313.78 698.68 L 315.25 698.78 L 316.72 698.56 L 318.19 697.51 L 319.67 697.51 L 321.14 698.30 L 322.61 697.97 L 324.08 699.11 L 325.56 686.39 L 327.03 677.27 L 328.50 662.26 L 329.97 653.16 L 331.44 674.06 L 332.92 679.72 L 334.39 692.07 L 335.86 687.18 L 337.33 670.67 L 338.81 668.38 L 340.28 662.53 L 341.75 653.03 L 343.22 663.96 L 344.69 687.96 L 346.17 664.67 L 347.64 689.13 L 349.11 654.19 L 350.58 684.19 L 352.06 687.79 L 353.53 689.60 L 355.00 673.03 L 356.47 662.31 L 357.94 661.72 L 359.42 663.70 L 360.89 688.63 L 362.36 695.22 L 363.83 696.72 L 365.31 697.62 L 366.78 698.10 L 368.25 698.06 L 369.72 697.74 L 371.19 698.84 L 372.67 698.67 L 374.14 698.75 L 375.61 698.95 L 377.08 698.29 L 378.56 698.88 L 380.03 698.49 L 381.50 698.99 L 382.97 698.82 L 384.44 698.63 L 385.92 699.10 L 387.39 698.83 L 388.86 698.61 L 390.33 698.93 L 391.81 698.48 L 393.28 698.62 L 394.75 698.95 L 396.22 698.93 L 397.69 698.75 L 399.17 698.95 L 400.64 689.48 L 402.11 669.88 L 403.58 667.24 L 405.06 632.41 L 406.53 643.93 L 408.00 691.08 L 409.47 671.83 L 410.94 696.34 L 412.42 675.70 L 413.89 679.36 L 415.36 655.56 L 416.83 679.31 L 418.31 677.00 L 419.78 678.91 L 421.25 660.03 L 422.72 655.72 L 424.19 654.85 L 425.67 660.71 L 427.14 662.10 L 428.61 668.22 L 430.08 661.09 L 431.56 645.36 L 433.03 639.17 L 434.50 687.00 L 435.97 671.13 L 437.44 686.00 L 438.92 683.06 L 440.39 644.23 L 441.86 636.18 L 443.33 681.69 L 444.81 688.34 L 446.28 695.76 L 447.75 697.46 L 449.22 698.45 L 450.69 699.01 L 452.17 698.50 L 453.64 699.07 L 455.11 678.95 L 456.58 645.58 L 458.06 688.68 L 459.53 693.17 L 461.00 695.39 L 462.47 697.41 L 463.94 698.31 L 465.42 698.34 L 466.89 698.85 L 468.36 698.56 L 469.83 698.85 L 471.31 698.99 L 472.78 699.00 L 474.25 699.03 L 475.72 698.88 L 477.19 695.00 L 478.67 694.92 L 480.14 695.22 L 481.61 650.49 L 483.08 676.09 L 484.56 662.33 L 486.03 662.33 L 487.50 631.38 L 488.97 639.57 L 490.44 683.07 L 491.92 657.80 L 493.39 653.79 L 494.86 618.12 L 496.33 672.56 L 497.81 653.38 L 499.28 598.90 L 500.75 632.10 L 502.22 584.73 L 503.69 626.12 L 505.17 679.12 L 506.64 641.44 L 508.11 641.78 L 509.58 587.18 L 511.06 685.67 L 512.53 682.77 L 514.00 692.74 L 515.47 697.44 L 516.94 698.38 L 518.42 698.46 L 519.89 698.99 L 521.36 698.47 L 522.83 698.50 L 524.31 698.67 L 525.78 698.66 L 527.25 698.92 L 528.72 698.56 L 530.19 698.39 L 531.67 698.64 L 533.14 698.55 L 534.61 698.96 L 536.08 698.75 L 537.56 697.84 L 539.03 698.36 L 540.50 699.09 L 541.97 698.95 L 543.44 698.96 L 544.92 698.94 L 546.39 698.53 L 547.86 698.69 L 549.33 698.76 L 550.81 698.90 L 552.28 698.86 L 553.75 698.80 L 555.22 698.95 L 556.69 698.73 L 558.17 698.69 L 559.64 698.64 L 561.11 698.42 L 562.58 698.87 L 564.06 698.76 L 565.53 698.86 L 567.00 698.85 L 568.47 698.79 L 569.94 698.88 L 571.42 698.77 L 572.89 698.17 L 574.36 698.57 L 575.83 698.49 L 577.31 698.61 L 578.78 693.96 L 580.25 694.10 L 581.72 691.83 L 583.19 679.85 L 584.67 687.97 L 586.14 640.34 L 587.61 564.54 L 589.08 582.77 L 590.56 655.48 L 592.03 629.47 L 593.50 692.10 L 594.97 674.86 L 596.44 691.57 L 597.92 667.07 L 599.39 656.11 L 600.86 679.96 L 602.33 692.81 L 603.81 678.24 L 605.28 645.94 L 606.75 628.93 L 608.22 614.17 L 609.69 640.03 L 611.17 657.60 L 612.64 602.71 L 614.11 666.18 L 615.58 678.87 L 617.06 685.14 L 618.53 678.69 L 620.00 587.42 L 621.47 632.17 L 622.94 645.47 L 624.42 622.83 L 625.89 592.03 L 627.36 674.21 L 628.83 643.61 L 630.31 624.36 L 631.78 663.36 L 633.25 679.02 L 634.72 610.96 L 636.19 668.03 L 637.67 684.21 L 639.14 659.81 L 640.61 642.81 L 642.08 690.51 L 643.56 665.11 L 645.03 659.54 L 646.50 637.78 L 647.97 677.73 L 649.44 650.89 L 650.92 601.52 L 652.39 656.84 L 653.86 660.44 L 655.33 584.61 L 656.81 676.04 L 658.28 687.67 L 659.75 685.21 L 661.22 674.37 L 662.69 674.37 L 664.17 681.42 L 665.64 696.22 L 667.11 695.35 L 668.58 696.60 L 670.06 697.49 L 671.53 697.44 L 673.00 697.52 L 674.47 697.51 L 675.94 697.16 L 677.42 697.65 L 678.89 697.45 L 680.36 697.52 L 681.83 698.34 L 683.31 698.85 L 684.78 698.04 L 686.25 699.02 L 687.72 698.95 L 689.19 698.81 L 690.67 698.75 L 692.14 698.87 L 693.61 698.71 L 695.08 698.99 L 696.56 699.20 L 698.03 698.99 L 699.50 698.91 L 700.97 692.75 L 702.44 684.80 L 703.92 685.04 L 705.39 692.99 L 706.86 695.29 L 708.33 698.30 L 709.81 697.23 L 711.28 698.32 L 712.75 698.42 L 714.22 697.96 L 715.69 698.26 L 717.17 698.59 L 718.64 699.02 L 720.11 698.82 L 721.58 698.91 L 723.06 698.89 L 724.53 698.83 L 726.00 698.70 L 727.47 698.59 L 728.94 698.59 L 730.42 698.72 L 731.89 698.78 L 733.36 698.77 L 734.83 699.06 L 736.31 699.00 L 737.78 698.98 L 739.25 698.88 L 740.72 698.92 L 742.19 698.73 L 743.67 698.79 L 745.14 694.99 L 746.61 687.39 L 748.08 687.87 L 749.56 679.43" stroke="#FB8C00" />
<text x="90" y="711.25" font-size="14" font-weight="700">Giroscópio (magnitude) (u.a.)</text>
<rect class="event" x="443.33" y="717.25" width="41.22" height="192.75" />
<line class="eventline" x1="443.33" y1="717.25" x2="443.33" y2="910.00" />
<line class="eventline" x1="484.56" y1="717.25" x2="484.56" y2="910.00" />
<line class="grid" x1="90" y1="910.00" x2="1150" y2="910.00" />
<text class="small" x="80" y="914.00" text-anchor="end">0.00</text>
<line class="grid" x1="90" y1="871.45" x2="1150" y2="871.45" />
<text class="small" x="80" y="875.45" text-anchor="end">0.05</text>
<line class="grid" x1="90" y1="832.90" x2="1150" y2="832.90" />
<text class="small" x="80" y="836.90" text-anchor="end">0.10</text>
<line class="grid" x1="90" y1="794.35" x2="1150" y2="794.35" />
<text class="small" x="80" y="798.35" text-anchor="end">0.15</text>
<line class="grid" x1="90" y1="755.80" x2="1150" y2="755.80" />
<text class="small" x="80" y="759.80" text-anchor="end">0.20</text>
<line class="grid" x1="90" y1="717.25" x2="1150" y2="717.25" />
<text class="small" x="80" y="721.25" text-anchor="end">0.25</text>
<line class="grid" x1="90.00" y1="717.25" x2="90.00" y2="910.00" />
<line class="grid" x1="266.67" y1="717.25" x2="266.67" y2="910.00" />
<line class="grid" x1="443.33" y1="717.25" x2="443.33" y2="910.00" />
<line class="grid" x1="620.00" y1="717.25" x2="620.00" y2="910.00" />
<line class="grid" x1="796.67" y1="717.25" x2="796.67" y2="910.00" />
<line class="grid" x1="973.33" y1="717.25" x2="973.33" y2="910.00" />
<line class="grid" x1="1150.00" y1="717.25" x2="1150.00" y2="910.00" />
<line class="axis" x1="90" y1="717.25" x2="90" y2="910.00" />
<line class="axis" x1="90" y1="910.00" x2="1150" y2="910.00" />
<path class="series" d="M 178.33 909.76 L 179.81 909.75 L 181.28 909.66 L 182.75 909.87 L 184.22 909.11 L 185.69 909.91 L 187.17 909.92 L 188.64 909.83 L 190.11 909.86 L 191.58 909.89 L 193.06 909.85 L 194.53 909.79 L 196.00 909.88 L 197.47 909.92 L 198.94 909.89 L 200.42 909.74 L 201.89 909.85 L 203.36 909.64 L 204.83 909.79 L 206.31 909.71 L 207.78 909.71 L 209.25 909.65 L 210.72 909.62 L 212.19 909.65 L 213.67 909.68 L 215.14 909.65 L 216.61 909.72 L 218.08 909.78 L 219.56 909.76 L 221.03 909.73 L 222.50 909.80 L 223.97 909.75 L 225.44 909.71 L 226.92 909.73 L 228.39 909.69 L 229.86 909.70 L 231.33 909.81 L 232.81 909.73 L 234.28 909.80 L 235.75 909.91 L 237.22 909.75 L 238.69 909.79 L 240.17 909.64 L 241.64 909.87 L 243.11 909.77 L 244.58 909.67 L 246.06 909.65 L 247.53 909.66 L 249.00 909.72 L 250.47 909.70 L 251.94 909.73 L 253.42 909.68 L 254.89 909.79 L 256.36 909.91 L 257.83 909.68 L 259.31 909.79 L 260.78 909.70 L 262.25 909.71 L 263.72 909.60 L 265.19 909.64 L 266.67 909.74 L 268.14 909.60 L 269.61 909.48 L 271.08 909.70 L 272.56 909.75 L 274.03 909.64 L 275.50 909.78 L 276.97 909.77 L 278.44 909.63 L 279.92 909.74 L 281.39 909.63 L 282.86 909.70 L 284.33 909.58 L 285.81 909.51 L 287.28 909.76 L 288.75 909.86 L 290.22 909.86 L 291.69 909.89 L 293.17 909.96 L 294.64 909.91 L 296.11 909.95 L 297.58 909.89 L 299.06 909.90 L 300.53 909.90 L 302.00 909.93 L 303.47 909.97 L 304.94 909.84 L 306.42 909.92 L 307.89 909.72 L 309.36 909.80 L 310.83 909.90 L 312.31 909.89 L 313.78 909.81 L 315.25 909.69 L 316.72 909.83 L 318.19 909.70 L 319.67 909.70 L 321.14 909.88 L 322.61 909.81 L 324.08 909.73 L 325.56 908.74 L 327.03 907.02 L 328.50 889.66 L 329.97 866.64 L 331.44 864.71 L 332.92 870.77 L 334.39 881.77 L 335.86 873.76 L 337.33 879.98 L 338.81 884.42 L 340.28 888.74 L 341.75 893.29 L 343.22 897.84 L 344.69 882.31 L 346.17 888.27 L 347.64 885.17 L 349.11 886.61 L 350.58 876.55 L 352.06 857.76 L 353.53 869.58 L 355.00 873.46 L 356.47 887.80 L 357.94 904.00 L 359.42 908.51 L 360.89 909.20 L 362.36 909.71 L 363.83 909.61 L 365.31 909.52 L 366.78 909.57 L 368.25 909.37 L 369.72 909.57 L 371.19 909.43 L 372.67 909.47 L 374.14 909.34 L 375.61 909.76 L 377.08 909.74 L 378.56 909.90 L 380.03 909.88 L 381.50 909.87 L 382.97 909.88 L 384.44 909.81 L 385.92 909.79 L 387.39 909.84 L 388.86 909.85 L 390.33 909.89 L 391.81 909.85 L 393.28 909.81 L 394.75 909.82 L 396.22 909.79 L 397.69 909.84 L 399.17 909.76 L 400.64 907.24 L 402.11 906.19 L 403.58 908.77 L 405.06 905.85 L 406.53 887.37 L 408.00 885.00 L 409.47 864.70 L 410.94 862.57 L 412.42 852.17 L 413.89 847.51 L 415.36 851.93 L 416.83 854.74 L 418.31 847.69 L 419.78 845.62 L 421.25 849.49 L 422.72 849.48 L 424.19 852.50 L 425.67 848.96 L 427.14 842.74 L 428.61 856.69 L 430.08 863.57 L 431.56 873.15 L 433.03 869.46 L 434.50 874.32 L 435.97 853.40 L 437.44 862.91 L 438.92 863.64 L 440.39 853.48 L 441.86 880.72 L 443.33 908.60 L 444.81 909.46 L 446.28 909.65 L 447.75 909.86 L 449.22 909.71 L 450.69 909.71 L 452.17 909.82 L 453.64 909.75 L 455.11 904.57 L 456.58 906.63 L 458.06 908.12 L 459.53 909.57 L 461.00 909.59 L 462.47 909.76 L 463.94 909.69 L 465.42 909.84 L 466.89 909.70 L 468.36 909.87 L 469.83 909.85 L 471.31 909.87 L 472.78 909.92 L 474.25 909.86 L 475.72 909.73 L 477.19 909.50 L 478.67 908.22 L 480.14 909.39 L 481.61 906.94 L 483.08 894.87 L 484.56 901.56 L 486.03 901.56 L 487.50 903.65 L 488.97 893.87 L 490.44 889.91 L 491.92 886.00 L 493.39 892.89 L 494.86 896.27 L 496.33 885.28 L 497.81 877.87 L 499.28 850.29 L 500.75 852.71 L 502.22 877.73 L 503.69 888.19 L 505.17 871.26 L 506.64 868.20 L 508.11 894.22 L 509.58 909.16 L 511.06 908.43 L 512.53 909.29 L 514.00 909.43 L 515.47 909.86 L 516.94 909.82 L 518.42 909.84 L 519.89 909.88 L 521.36 909.93 L 522.83 909.88 L 524.31 909.83 L 525.78 909.90 L 527.25 909.89 L 528.72 909.80 L 530.19 909.76 L 531.67 909.89 L 533.14 909.69 L 534.61 909.71 L 536.08 909.86 L 537.56 909.87 L 539.03 909.88 L 540.50 909.86 L 541.97 909.84 L 543.44 909.79 L 544.92 909.93 L 546.39 909.88 L 547.86 909.80 L 549.33 909.71 L 550.81 909.69 L 552.28 909.82 L 553.75 909.73 L 555.22 909.81 L 556.69 909.80 L 558.17 909.79 L 559.64 909.82 L 561.11 909.82 L 562.58 909.78 L 564.06 909.69 L 565.53 909.73 L 567.00 909.72 L 568.47 909.74 L 569.94 909.79 L 571.42 909.77 L 572.89 909.80 L 574.36 909.96 L 575.83 909.71 L 577.31 909.80 L 578.78 908.30 L 580.25 909.30 L 581.72 909.52 L 583.19 901.42 L 584.67 885.10 L 586.14 864.62 L 587.61 837.55 L 589.08 869.61 L 590.56 838.01 L 592.03 850.63 L 593.50 864.43 L 594.97 857.79 L 596.44 880.09 L 597.92 876.83 L 599.39 876.92 L 600.86 872.39 L 602.33 870.36 L 603.81 869.84 L 605.28 898.95 L 606.75 897.48 L 608.22 906.35 L 609.69 906.06 L 611.17 908.20 L 612.64 904.82 L 614.11 881.04 L 615.58 880.40 L 617.06 878.66 L 618.53 885.90 L 620.00 882.92 L 621.47 904.83 L 622.94 885.39 L 624.42 898.84 L 625.89 876.24 L 627.36 877.62 L 628.83 874.74 L 630.31 891.60 L 631.78 898.07 L 633.25 892.86 L 634.72 894.11 L 636.19 896.01 L 637.67 892.68 L 639.14 902.05 L 640.61 897.29 L 642.08 904.35 L 643.56 892.47 L 645.03 900.28 L 646.50 898.43 L 647.97 900.28 L 649.44 888.45 L 650.92 901.12 L 652.39 899.66 L 653.86 901.71 L 655.33 894.76 L 656.81 906.18 L 658.28 907.85 L 659.75 907.48 L 661.22 905.51 L 662.69 905.51 L 664.17 908.22 L 665.64 908.60 L 667.11 907.95 L 668.58 908.51 L 670.06 908.26 L 671.53 908.36 L 673.00 908.26 L 674.47 908.32 L 675.94 908.28 L 677.42 908.21 L 678.89 908.39 L 680.36 908.85 L 681.83 909.87 L 683.31 909.91 L 684.78 909.91 L 686.25 909.92 L 687.72 909.81 L 689.19 909.88 L 690.67 909.93 L 692.14 909.84 L 693.61 909.94 L 695.08 909.81 L 696.56 909.90 L 698.03 909.89 L 699.50 909.79 L 700.97 908.11 L 702.44 906.79 L 703.92 908.74 L 705.39 909.33 L 706.86 909.89 L 708.33 909.71 L 709.81 909.90 L 711.28 909.91 L 712.75 909.87 L 714.22 909.81 L 715.69 909.93 L 717.17 909.94 L 718.64 909.92 L 720.11 909.90 L 721.58 909.84 L 723.06 909.79 L 724.53 909.90 L 726.00 909.83 L 727.47 909.91 L 728.94 909.82 L 730.42 909.88 L 731.89 909.81 L 733.36 909.88 L 734.83 909.89 L 736.31 909.86 L 737.78 909.96 L 739.25 909.90 L 740.72 909.93 L 742.19 909.82 L 743.67 909.91 L 745.14 909.06 L 746.61 904.76 L 748.08 908.84 L 749.56 907.44" stroke="#E53935" />
<text x="620.00" y="952" font-size="15" text-anchor="middle">minutos (relativo ao início do evento)</text>
<text class="small" x="90.00" y="936" text-anchor="middle">-4.00</text>
<text class="small" x="266.67" y="936" text-anchor="middle">-2.00</text>
<text class="small" x="443.33" y="936" text-anchor="middle">0.00</text>
<text class="small" x="620.00" y="936" text-anchor="middle">2.00</text>
<text class="small" x="796.67" y="936" text-anchor="middle">4.00</text>
<text class="small" x="973.33" y="936" text-anchor="middle">6.00</text>
<text class="small" x="1150.00" y="936" text-anchor="middle">8.00</text>
</svg>