<?xml version="1.0" encoding="UTF-8"?>
<svg xmlns="http://www.w3.org/2000/svg" width="1180" height="980" viewBox="0 0 1180 980">
<style>
text { font-family: -apple-system, BlinkMacSystemFont, 'Segoe UI', Roboto, Helvetica, Arial, sans-serif; fill: #111; }
.small { font-size: 12px; fill: #222; }
.title { font-size: 18px; font-weight: 700; }
.axis { stroke: #111; stroke-width: 1.4; }
.grid { stroke: #E6E6E6; stroke-width: 1; }
.event { fill: #FFEB3B; fill-opacity: 0.18; }
.eventline { stroke: #F9A825; stroke-width: 1.2; stroke-dasharray: 4 3; }
.series { fill: none; stroke-width: 1.8; }
</style>
<text class="title" x="90" y="34">ciclo 12 — espera_carregamento — 2025-12-13T01:17:20-03:00 → 2025-12-13T01:18:12-03:00 (span 52s, dur 53s)</text>
<text class="small" x="90" y="54">GPS: -11.699317,-47.157496  hotspot: -11.699,-47.157</text>
<text class="small" x="90" y="70">Janela: -3.00 → 3.87 min (relativo ao início do evento)</text>
<text x="90" y="79.00" font-size="14" font-weight="700">Velocidade (km/h)</text>
<rect class="event" x="443.33" y="85.00" width="76.56" height="192.75" />
<line class="eventline" x1="443.33" y1="85.00" x2="443.33" y2="277.75" />
<line class="eventline" x1="519.89" y1="85.00" x2="519.89" y2="277.75" />
<line class="grid" x1="90" y1="277.75" x2="1150" y2="277.75" />
<text class="small" x="80" y="281.75" text-anchor="end">0.00</text>
<line class="grid" x1="90" y1="239.20" x2="1150" y2="239.20" />
<text class="small" x="80" y="243.20" text-anchor="end">2.00</text>
<line class="grid" x1="90" y1="200.65" x2="1150" y2="200.65" />
<text class="small" x="80" y="204.65" text-anchor="end">4.00</text>
<line class="grid" x1="90" y1="162.10" x2="1150" y2="162.10" />
<text class="small" x="80" y="166.10" text-anchor="end">6.00</text>
<line class="grid" x1="90" y1="123.55" x2="1150" y2="123.55" />
<text class="small" x="80" y="127.55" text-anchor="end">8.00</text>
<line class="grid" x1="90" y1="85.00" x2="1150" y2="85.00" />
<text class="small" x="80" y="89.00" text-anchor="end">10.0</text>
<line class="grid" x1="90.00" y1="85.00" x2="90.00" y2="277.75" />
<line class="grid" x1="266.67" y1="85.00" x2="266.67" y2="277.75" />
<line class="grid" x1="443.33" y1="85.00" x2="443.33" y2="277.75" />
<line class="grid" x1="620.00" y1="85.00" x2="620.00" y2="277.75" />
<line class="grid" x1="796.67" y1="85.00" x2="796.67" y2="277.75" />
<line class="grid" x1="973.33" y1="85.00" x2="973.33" y2="277.75" />
<line class="grid" x1="1150.00" y1="85.00" x2="1150.00" y2="277.75" />
<line class="axis" x1="90" y1="85.00" x2="90" y2="277.75" />
<line class="axis" x1="90" y1="277.75" x2="1150" y2="277.75" />
<path class="series" d="M 178.33 277.75 L 179.81 277.75 L 181.28 277.75 L 182.75 277.75 L 184.22 277.75 L 185.69 277.75 L 187.17 277.75 L 188.64 277.75 L 190.11 277.75 L 191.58 277.75 L 193.06 277.75 L 194.53 277.75 L 196.00 277.75 L 197.47 277.75 L 198.94 277.75 L 200.42 277.75 L 201.89 277.75 L 203.36 277.75 L 204.83 277.75 L 206.31 277.75 L 207.78 277.75 L 209.25 277.75 L 210.72 277.75 L 212.19 277.75 L 213.67 277.75 L 215.14 277.75 L 216.61 277.75 L 218.08 277.75 L 219.56 277.75 L 221.03 277.75 L 222.50 277.75 L 223.97 277.75 L 225.44 277.75 L 226.92 277.75 L 228.39 277.75 L 229.86 277.75 L 231.33 277.75 L 232.81 277.75 L 234.28 277.75 L 235.75 277.75 L 237.22 277.75 L 238.69 277.75 L 240.17 277.75 L 241.64 277.75 L 243.11 277.75 L 244.58 277.75 L 246.06 277.75 L 247.53 277.75 L 249.00 277.75 L 250.47 277.75 L 251.94 277.75 L 253.42 277.75 L 254.89 277.75 L 256.36 277.75 L 257.83 277.75 L 259.31 277.75 L 260.78 277.75 L 262.25 277.75 L 263.72 277.75 L 265.19 277.75 L 266.67 222.24 L 268.14 222.24 L 269.61 219.46 L 271.08 222.93 L 272.56 217.38 L 274.03 221.54 L 275.50 229.18 L 276.97 230.56 L 278.44 229.18 L 279.92 222.24 L 281.39 221.54 L 282.86 211.14 L 284.33 227.10 L 285.81 222.24 L 287.28 220.16 L 288.75 277.75 L 290.22 240.97 L 291.69 250.69 L 293.17 277.75 L 294.64 277.75 L 296.11 277.75 L 297.58 277.75 L 299.06 277.75 L 300.53 277.75 L 302.00 277.75 L 303.47 277.75 L 304.94 277.75 L 306.42 277.75 L 307.89 277.75 L 309.36 277.75 L 310.83 277.75 L 312.31 277.75 L 313.78 277.75 L 315.25 277.75 L 316.72 277.75 L 318.19 277.75 L 319.67 277.75 L 321.14 277.75 L 322.61 277.75 L 324.08 277.75 L 325.56 277.75 L 327.03 277.75 L 328.50 277.75 L 329.97 277.75 L 331.44 277.75 L 332.92 277.75 L 334.39 277.75 L 335.86 277.75 L 337.33 277.75 L 338.81 277.75 L 340.28 277.75 L 341.75 277.75 L 343.22 277.75 L 344.69 229.18 L 346.17 222.93 L 347.64 213.91 L 349.11 208.36 L 350.58 196.56 L 352.06 201.42 L 353.53 203.50 L 355.00 197.26 L 356.47 201.42 L 357.94 202.81 L 359.42 200.73 L 360.89 202.11 L 362.36 184.07 L 363.83 188.24 L 365.31 198.65 L 366.78 197.95 L 368.25 208.36 L 369.72 277.75 L 371.19 239.59 L 372.67 234.03 L 374.14 231.95 L 375.61 229.87 L 377.08 237.50 L 378.56 277.75 L 380.03 277.75 L 381.50 277.75 L 382.97 277.75 L 384.44 277.75 L 385.92 277.75 L 387.39 277.75 L 388.86 277.75 L 390.33 277.75 L 391.81 277.75 L 393.28 277.75 L 394.75 277.75 L 396.22 277.75 L 397.69 277.75 L 399.17 277.75 L 400.64 277.75 L 402.11 277.75 L 403.58 277.75 L 405.06 277.75 L 406.53 277.75 L 408.00 277.75 L 409.47 277.75 L 410.94 277.75 L 412.42 277.75 L 413.89 277.75 L 415.36 277.75 L 416.83 277.75 L 418.31 277.75 L 419.78 277.75 L 421.25 233.34 L 422.72 226.40 L 424.19 247.22 L 425.67 227.10 L 427.14 204.20 L 428.61 195.87 L 430.08 196.56 L 431.56 193.09 L 433.03 184.07 L 434.50 167.42 L 435.97 177.83 L 437.44 183.38 L 438.92 197.26 L 440.39 218.07 L 441.86 236.81 L 443.33 277.75 L 444.81 277.75 L 446.28 277.75 L 447.75 277.75 L 449.22 277.75 L 450.69 277.75 L 452.17 277.75 L 453.64 277.75 L 455.11 277.75 L 456.58 277.75 L 458.06 277.75 L 459.53 277.75 L 461.00 277.75 L 462.47 277.75 L 463.94 277.75 L 465.42 277.75 L 466.89 277.75 L 468.36 277.75 L 469.83 277.75 L 471.31 277.75 L 472.78 277.75 L 474.25 277.75 L 475.72 277.75 L 477.19 277.75 L 478.67 277.75 L 480.14 277.75 L 481.61 277.75 L 483.08 277.75 L 484.56 277.75 L 486.03 277.75 L 487.50 277.75 L 488.97 277.75 L 490.44 277.75 L 491.92 277.75 L 493.39 277.75 L 494.86 277.75 L 496.33 277.75 L 497.81 277.75 L 499.28 277.75 L 500.75 277.75 L 502.22 277.75 L 503.69 277.75 L 505.17 277.75 L 506.64 277.75 L 508.11 277.75 L 509.58 277.75 L 511.06 277.75 L 512.53 277.75 L 514.00 277.75 L 515.47 277.75 L 516.94 277.75 L 518.42 277.75 L 519.89 277.75 L 521.36 231.95 L 522.83 193.79 L 524.31 243.06 L 525.78 195.87 L 527.25 206.28 L 528.72 227.10 L 530.19 229.18 L 531.67 277.75 L 533.14 277.75 L 534.61 277.75 L 536.08 277.75 L 537.56 244.44 L 539.03 242.36 L 540.50 245.83 L 541.97 277.75 L 543.44 277.75 L 544.92 277.75 L 546.39 277.75 L 547.86 277.75 L 549.33 277.75 L 550.81 277.75 L 552.28 277.75 L 553.75 229.87 L 555.22 227.10 L 556.69 277.75 L 558.17 277.75 L 559.64 277.75 L 561.11 277.75 L 562.58 220.16 L 564.06 222.93 L 565.53 208.36 L 567.00 191.71 L 568.47 201.42 L 569.94 183.38 L 571.42 218.77 L 572.89 223.63 L 574.36 218.77 L 575.83 212.52 L 577.31 231.26 L 578.78 231.95 L 580.25 218.77 L 581.72 236.81 L 583.19 259.71 L 584.67 245.14 L 586.14 212.52 L 587.61 255.55 L 589.08 277.75 L 590.56 235.42 L 592.03 259.71 L 593.50 277.75 L 594.97 277.75 L 596.44 277.75 L 597.92 277.75 L 599.39 277.75 L 600.86 277.75 L 602.33 277.75 L 603.81 277.75 L 605.28 277.75 L 606.75 277.75 L 608.22 277.75 L 609.69 277.75 L 611.17 277.75 L 612.64 277.75 L 614.11 277.75 L 615.58 277.75 L 617.06 277.75 L 618.53 277.75 L 620.00 277.75 L 621.47 277.75 L 622.94 277.75 L 624.42 277.75 L 625.89 277.75 L 627.36 277.75 L 628.83 277.75 L 630.31 277.75 L 631.78 277.75 L 633.25 277.75 L 634.72 277.75 L 636.19 277.75 L 637.67 277.75 L 639.14 277.75 L 640.61 277.75 L 642.08 277.75 L 643.56 277.75 L 645.03 277.75 L 646.50 277.75 L 647.97 277.75 L 649.44 277.75 L 650.92 277.75 L 652.39 277.75 L 653.86 277.75 L 655.33 277.75 L 656.81 277.75 L 658.28 277.75 L 659.75 277.75 L 661.22 277.75 L 662.69 277.75 L 664.17 277.75 L 665.64 277.75 L 667.11 277.75 L 668.58 277.75 L 670.06 277.75 L 671.53 277.75 L 673.00 277.75 L 674.47 277.75 L 675.94 277.75 L 677.42 277.75 L 678.89 277.75 L 680.36 277.75 L 681.83 277.75 L 683.31 277.75 L 684.78 277.75 L 686.25 277.75 L 687.72 277.75 L 689.19 277.75 L 690.67 277.75 L 692.14 277.75 L 693.61 277.75 L 695.08 277.75 L 696.56 277.75 L 698.03 277.75 L 699.50 277.75 L 700.97 277.75 L 702.44 277.75 L 703.92 277.75 L 705.39 277.75 L 706.86 277.75 L 708.33 277.75 L 709.81 277.75 L 711.28 277.75 L 712.75 277.75 L 714.22 277.75 L 715.69 277.75 L 717.17 277.75 L 718.64 277.75 L 720.11 277.75 L 721.58 277.75 L 723.06 277.75 L 724.53 277.75 L 726.00 277.75 L 727.47 277.75 L 728.94 277.75 L 730.42 277.75 L 731.89 277.75 L 733.36 277.75 L 734.83 277.75 L 736.31 277.75 L 737.78 277.75 L 739.25 277.75 L 740.72 277.75 L 742.19 277.75 L 743.67 277.75 L 745.14 277.75 L 746.61 277.75 L 748.08 277.75 L 749.56 277.75 L 751.03 277.75 L 752.50 277.75 L 753.97 277.75 L 755.44 277.75 L 756.92 277.75 L 758.39 277.75 L 759.86 277.75 L 761.33 277.75 L 762.81 277.75 L 764.28 277.75 L 765.75 277.75 L 767.22 277.75 L 768.69 277.75 L 770.17 277.75 L 771.64 277.75 L 773.11 277.75 L 774.58 277.75 L 776.06 277.75 L 777.53 277.75 L 779.00 277.75 L 780.47 277.75 L 781.94 277.75 L 783.42 277.75 L 784.89 277.75" stroke="#1976D2" />
<text x="90" y="289.75" font-size="14" font-weight="700">Inclinação (graus)</text>
<rect class="event" x="443.33" y="295.75" width="76.56" height="192.75" />
<line class="eventline" x1="443.33" y1="295.75" x2="443.33" y2="488.50" />
<line class="eventline" x1="519.89" y1="295.75" x2="519.89" y2="488.50" />
<line class="grid" x1="90" y1="488.50" x2="1150" y2="488.50" />
<text class="small" x="80" y="492.50" text-anchor="end">-10.0</text>
<line class="grid" x1="90" y1="449.95" x2="1150" y2="449.95" />
<text class="small" x="80" y="453.95" text-anchor="end">0.00</text>
<line class="grid" x1="90" y1="411.40" x2="1150" y2="411.40" />
<text class="small" x="80" y="415.40" text-anchor="end">10.0</text>
<line class="grid" x1="90" y1="372.85" x2="1150" y2="372.85" />
<text class="small" x="80" y="376.85" text-anchor="end">20.0</text>
<line class="grid" x1="90" y1="334.30" x2="1150" y2="334.30" />
<text class="small" x="80" y="338.30" text-anchor="end">30.0</text>
<line class="grid" x1="90" y1="295.75" x2="1150" y2="295.75" />
<text class="small" x="80" y="299.75" text-anchor="end">40.0</text>
<line class="grid" x1="90.00" y1="295.75" x2="90.00" y2="488.50" />
<line class="grid" x1="266.67" y1="295.75" x2="266.67" y2="488.50" />
<line class="grid" x1="443.33" y1="295.75" x2="443.33" y2="488.50" />
<line class="grid" x1="620.00" y1="295.75" x2="620.00" y2="488.50" />
<line class="grid" x1="796.67" y1="295.75" x2="796.67" y2="488.50" />
<line class="grid" x1="973.33" y1="295.75" x2="973.33" y2="488.50" />
<line class="grid" x1="1150.00" y1="295.75" x2="1150.00" y2="488.50" />
<line class="axis" x1="90" y1="295.75" x2="90" y2="488.50" />
<line class="axis" x1="90" y1="488.50" x2="1150" y2="488.50" />
<path class="series" d="M 178.33 417.83 L 179.81 417.95 L 181.28 417.88 L 182.75 417.89 L 184.22 417.84 L 185.69 417.84 L 187.17 417.87 L 188.64 417.89 L 190.11 417.92 L 191.58 417.91 L 193.06 417.87 L 194.53 417.88 L 196.00 417.88 L 197.47 417.90 L 198.94 417.86 L 200.42 417.94 L 201.89 417.88 L 203.36 417.89 L 204.83 417.89 L 206.31 417.83 L 207.78 417.88 L 209.25 417.88 L 210.72 417.86 L 212.19 417.87 L 213.67 417.86 L 215.14 417.86 L 216.61 417.91 L 218.08 417.89 L 219.56 417.86 L 221.03 417.89 L 222.50 417.87 L 223.97 417.88 L 225.44 417.89 L 226.92 417.90 L 228.39 417.86 L 229.86 417.87 L 231.33 417.89 L 232.81 417.87 L 234.28 417.86 L 235.75 417.84 L 237.22 417.89 L 238.69 417.81 L 240.17 417.87 L 241.64 417.87 L 243.11 417.87 L 244.58 417.85 L 246.06 417.87 L 247.53 417.90 L 249.00 417.88 L 250.47 417.88 L 251.94 417.93 L 253.42 417.85 L 254.89 417.93 L 256.36 417.95 L 257.83 417.94 L 259.31 417.97 L 260.78 419.54 L 262.25 419.68 L 263.72 428.47 L 265.19 422.17 L 266.67 418.95 L 268.14 419.77 L 269.61 420.95 L 271.08 419.76 L 272.56 420.56 L 274.03 420.01 L 275.50 413.45 L 276.97 412.79 L 278.44 415.72 L 279.92 412.24 L 281.39 405.39 L 282.86 406.88 L 284.33 401.25 L 285.81 403.72 L 287.28 402.13 L 288.75 396.94 L 290.22 400.41 L 291.69 397.83 L 293.17 397.13 L 294.64 402.83 L 296.11 403.02 L 297.58 403.06 L 299.06 403.09 L 300.53 403.07 L 302.00 403.13 L 303.47 403.07 L 304.94 403.12 L 306.42 403.19 L 307.89 403.10 L 309.36 403.11 L 310.83 403.10 L 312.31 403.09 L 313.78 403.08 L 315.25 403.13 L 316.72 403.07 L 318.19 403.08 L 319.67 403.09 L 321.14 403.07 L 322.61 403.14 L 324.08 403.03 L 325.56 403.13 L 327.03 403.10 L 328.50 403.05 L 329.97 403.10 L 331.44 403.11 L 332.92 403.07 L 334.39 403.10 L 335.86 401.45 L 337.33 406.39 L 338.81 401.91 L 340.28 407.55 L 341.75 407.07 L 343.22 406.38 L 344.69 409.90 L 346.17 409.43 L 347.64 411.88 L 349.11 417.03 L 350.58 421.72 L 352.06 422.22 L 353.53 426.03 L 355.00 420.99 L 356.47 417.49 L 357.94 416.75 L 359.42 415.87 L 360.89 415.58 L 362.36 416.23 L 363.83 414.63 L 365.31 417.07 L 366.78 407.61 L 368.25 399.48 L 369.72 400.42 L 371.19 402.35 L 372.67 395.14 L 374.14 394.73 L 375.61 393.45 L 377.08 377.56 L 378.56 377.90 L 380.03 384.60 L 381.50 383.93 L 382.97 384.11 L 384.44 384.17 L 385.92 384.24 L 387.39 384.23 L 388.86 384.10 L 390.33 384.01 L 391.81 383.57 L 393.28 385.99 L 394.75 384.85 L 396.22 384.90 L 397.69 384.84 L 399.17 384.88 L 400.64 384.86 L 402.11 384.84 L 403.58 384.87 L 405.06 384.85 L 406.53 384.82 L 408.00 384.79 L 409.47 384.80 L 410.94 384.79 L 412.42 384.83 L 413.89 384.74 L 415.36 384.83 L 416.83 385.44 L 418.31 392.66 L 419.78 389.98 L 421.25 388.11 L 422.72 381.02 L 424.19 392.90 L 425.67 402.75 L 427.14 396.28 L 428.61 403.17 L 430.08 397.90 L 431.56 401.70 L 433.03 395.78 L 434.50 399.42 L 435.97 398.39 L 437.44 399.44 L 438.92 390.50 L 440.39 392.07 L 441.86 390.94 L 443.33 394.71 L 444.81 399.07 L 446.28 399.99 L 447.75 399.68 L 449.22 399.72 L 450.69 399.78 L 452.17 399.83 L 453.64 399.79 L 455.11 399.79 L 456.58 399.86 L 458.06 399.82 L 459.53 399.83 L 461.00 399.82 L 462.47 399.88 L 463.94 399.85 L 465.42 399.81 L 466.89 399.79 L 468.36 399.78 L 469.83 399.84 L 471.31 399.76 L 472.78 399.76 L 474.25 399.81 L 475.72 399.84 L 477.19 399.77 L 478.67 399.80 L 480.14 399.80 L 481.61 399.80 L 483.08 399.75 L 484.56 399.85 L 486.03 399.80 L 487.50 399.87 L 488.97 399.84 L 490.44 399.81 L 491.92 399.84 L 493.39 399.83 L 494.86 399.82 L 496.33 399.77 L 497.81 399.78 L 499.28 399.74 L 500.75 399.72 L 502.22 399.75 L 503.69 399.79 L 505.17 399.80 L 506.64 399.83 L 508.11 399.80 L 509.58 399.74 L 511.06 399.83 L 512.53 399.69 L 514.00 400.01 L 515.47 399.99 L 516.94 396.23 L 518.42 395.44 L 519.89 393.82 L 521.36 390.83 L 522.83 405.97 L 524.31 383.54 L 525.78 397.28 L 527.25 398.19 L 528.72 392.87 L 530.19 395.55 L 531.67 392.66 L 533.14 391.55 L 534.61 391.01 L 536.08 395.24 L 537.56 393.79 L 539.03 399.88 L 540.50 400.07 L 541.97 402.55 L 543.44 396.25 L 544.92 394.44 L 546.39 399.68 L 547.86 410.24 L 549.33 396.67 L 550.81 395.58 L 552.28 395.58 L 553.75 392.82 L 555.22 392.20 L 556.69 368.50 L 558.17 379.14 L 559.64 391.45 L 561.11 384.49 L 562.58 398.82 L 564.06 398.33 L 565.53 391.87 L 567.00 399.00 L 568.47 401.09 L 569.94 395.88 L 571.42 393.26 L 572.89 393.09 L 574.36 386.24 L 575.83 385.48 L 577.31 394.18 L 578.78 391.09 L 580.25 395.69 L 581.72 396.31 L 583.19 402.41 L 584.67 393.57 L 586.14 393.74 L 587.61 407.28 L 589.08 402.26 L 590.56 395.14 L 592.03 412.71 L 593.50 401.12 L 594.97 400.08 L 596.44 402.71 L 597.92 400.79 L 599.39 401.28 L 600.86 401.31 L 602.33 401.18 L 603.81 401.16 L 605.28 401.15 L 606.75 401.19 L 608.22 401.21 L 609.69 401.17 L 611.17 401.24 L 612.64 401.20 L 614.11 401.22 L 615.58 401.20 L 617.06 401.20 L 618.53 401.22 L 620.00 401.16 L 621.47 401.17 L 622.94 401.16 L 624.42 401.17 L 625.89 401.15 L 627.36 401.19 L 628.83 401.16 L 630.31 401.14 L 631.78 401.19 L 633.25 401.17 L 634.72 401.11 L 636.19 401.34 L 637.67 401.34 L 639.14 399.11 L 640.61 399.76 L 642.08 399.94 L 643.56 400.02 L 645.03 399.95 L 646.50 399.94 L 647.97 399.97 L 649.44 399.92 L 650.92 399.92 L 652.39 399.92 L 653.86 399.92 L 655.33 399.88 L 656.81 399.86 L 658.28 399.88 L 659.75 399.79 L 661.22 399.86 L 662.69 399.75 L 664.17 399.79 L 665.64 399.71 L 667.11 399.75 L 668.58 399.80 L 670.06 399.79 L 671.53 399.75 L 673.00 399.78 L 674.47 399.75 L 675.94 399.75 L 677.42 399.76 L 678.89 399.78 L 680.36 400.11 L 681.83 399.78 L 683.31 398.82 L 684.78 399.89 L 686.25 399.72 L 687.72 399.75 L 689.19 399.43 L 690.67 399.64 L 692.14 399.60 L 693.61 399.60 L 695.08 399.56 L 696.56 399.56 L 698.03 399.56 L 699.50 399.62 L 700.97 399.52 L 702.44 399.59 L 703.92 399.57 L 705.39 399.56 L 706.86 399.54 L 708.33 399.56 L 709.81 399.58 L 711.28 399.56 L 712.75 399.55 L 714.22 399.54 L 715.69 399.55 L 717.17 399.53 L 718.64 399.58 L 720.11 399.54 L 721.58 399.54 L 723.06 399.59 L 724.53 399.52 L 726.00 399.57 L 727.47 399.63 L 728.94 400.03 L 730.42 398.19 L 731.89 398.82 L 733.36 399.05 L 734.83 398.83 L 736.31 398.83 L 737.78 398.88 L 739.25 398.90 L 740.72 398.90 L 742.19 398.89 L 743.67 398.85 L 745.14 398.84 L 746.61 398.86 L 748.08 398.87 L 749.56 398.92 L 751.03 398.88 L 752.50 398.91 L 753.97 398.90 L 755.44 398.82 L 756.92 398.86 L 758.39 398.84 L 759.86 398.84 L 761.33 398.79 L 762.81 398.81 L 764.28 398.88 L 765.75 399.31 L 767.22 398.93 L 768.69 397.98 L 770.17 398.28 L 771.64 398.33 L 773.11 398.51 L 774.58 398.55 L 776.06 398.52 L 777.53 398.44 L 779.00 398.51 L 780.47 398.50 L 781.94 398.48 L 783.42 398.49 L 784.89 398.48" stroke="#2E7D32" />
<path class="series" d="M 178.33 448.95 L 179.81 449.01 L 181.28 448.98 L 182.75 448.97 L 184.22 448.92 L 185.69 448.98 L 187.17 448.96 L 188.64 448.99 L 190.11 448.95 L 191.58 448.97 L 193.06 448.92 L 194.53 448.97 L 196.00 448.98 L 197.47 448.97 L 198.94 448.95 L 200.42 448.92 L 201.89 448.99 L 203.36 449.00 L 204.83 448.95 L 206.31 448.91 L 207.78 449.01 L 209.25 448.95 L 210.72 448.99 L 212.19 448.96 L 213.67 448.96 L 215.14 448.96 L 216.61 448.96 L 218.08 448.94 L 219.56 448.96 L 221.03 448.95 L 222.50 448.92 L 223.97 448.96 L 225.44 448.95 L 226.92 448.96 L 228.39 448.93 L 229.86 448.93 L 231.33 448.90 L 232.81 449.01 L 234.28 448.91 L 235.75 448.94 L 237.22 448.93 L 238.69 448.93 L 240.17 448.90 L 241.64 448.92 L 243.11 448.99 L 244.58 448.89 L 246.06 448.93 L 247.53 448.96 L 249.00 448.97 L 250.47 448.97 L 251.94 448.97 L 253.42 449.02 L 254.89 448.93 L 256.36 448.92 L 257.83 448.99 L 259.31 448.91 L 260.78 448.12 L 262.25 448.70 L 263.72 442.23 L 265.19 450.71 L 266.67 453.00 L 268.14 451.19 L 269.61 453.45 L 271.08 454.82 L 272.56 457.60 L 274.03 451.91 L 275.50 461.39 L 276.97 448.84 L 278.44 454.65 L 279.92 451.47 L 281.39 446.43 L 282.86 452.26 L 284.33 451.28 L 285.81 453.82 L 287.28 451.67 L 288.75 449.67 L 290.22 452.76 L 291.69 454.15 L 293.17 453.60 L 294.64 450.55 L 296.11 449.93 L 297.58 450.58 L 299.06 450.66 L 300.53 450.11 L 302.00 450.53 L 303.47 450.36 L 304.94 450.28 L 306.42 450.40 L 307.89 450.29 L 309.36 450.28 L 310.83 450.39 L 312.31 450.34 L 313.78 450.36 L 315.25 450.38 L 316.72 450.34 L 318.19 450.35 L 319.67 450.32 L 321.14 450.31 L 322.61 450.34 L 324.08 450.36 L 325.56 450.33 L 327.03 450.35 L 328.50 450.31 L 329.97 450.31 L 331.44 450.28 L 332.92 450.29 L 334.39 450.30 L 335.86 451.43 L 337.33 447.67 L 338.81 451.94 L 340.28 447.53 L 341.75 446.27 L 343.22 450.67 L 344.69 445.58 L 346.17 450.93 L 347.64 447.15 L 349.11 444.07 L 350.58 452.25 L 352.06 449.40 L 353.53 449.58 L 355.00 449.89 L 356.47 446.26 L 357.94 445.81 L 359.42 440.18 L 360.89 441.12 L 362.36 445.36 L 363.83 450.15 L 365.31 460.47 L 366.78 457.82 L 368.25 456.32 L 369.72 450.59 L 371.19 449.93 L 372.67 456.43 L 374.14 451.69 L 375.61 444.28 L 377.08 455.12 L 378.56 456.09 L 380.03 449.46 L 381.50 449.54 L 382.97 449.59 L 384.44 449.50 L 385.92 449.41 L 387.39 449.48 L 388.86 449.33 L 390.33 448.95 L 391.81 450.12 L 393.28 448.54 L 394.75 450.78 L 396.22 449.30 L 397.69 449.70 L 399.17 449.61 L 400.64 449.57 L 402.11 449.68 L 403.58 449.59 L 405.06 449.72 L 406.53 449.53 L 408.00 449.61 L 409.47 449.58 L 410.94 449.62 L 412.42 449.58 L 413.89 449.35 L 415.36 450.18 L 416.83 449.87 L 418.31 447.75 L 419.78 450.88 L 421.25 451.09 L 422.72 449.42 L 424.19 453.93 L 425.67 448.48 L 427.14 448.76 L 428.61 451.88 L 430.08 443.88 L 431.56 448.06 L 433.03 441.77 L 434.50 453.03 L 435.97 460.59 L 437.44 468.15 L 438.92 469.74 L 440.39 464.98 L 441.86 467.51 L 443.33 470.45 L 444.81 471.82 L 446.28 470.86 L 447.75 471.83 L 449.22 471.60 L 450.69 471.50 L 452.17 471.58 L 453.64 471.51 L 455.11 471.58 L 456.58 471.50 L 458.06 471.49 L 459.53 471.54 L 461.00 471.49 L 462.47 471.55 L 463.94 471.51 L 465.42 471.58 L 466.89 471.52 L 468.36 471.57 L 469.83 471.51 L 471.31 471.61 L 472.78 471.51 L 474.25 471.56 L 475.72 471.52 L 477.19 471.55 L 478.67 471.56 L 480.14 471.52 L 481.61 471.58 L 483.08 471.56 L 484.56 471.55 L 486.03 471.59 L 487.50 471.52 L 488.97 471.60 L 490.44 471.52 L 491.92 471.56 L 493.39 471.54 L 494.86 471.51 L 496.33 471.52 L 497.81 471.51 L 499.28 471.56 L 500.75 471.52 L 502.22 471.55 L 503.69 471.54 L 505.17 471.50 L 506.64 471.54 L 508.11 471.55 L 509.58 471.49 L 511.06 471.52 L 512.53 471.45 L 514.00 471.39 L 515.47 471.66 L 516.94 471.24 L 518.42 467.77 L 519.89 465.57 L 521.36 453.13 L 522.83 478.62 L 524.31 450.17 L 525.78 464.13 L 527.25 464.32 L 528.72 452.17 L 530.19 462.06 L 531.67 451.79 L 533.14 450.83 L 534.61 448.81 L 536.08 447.25 L 537.56 443.84 L 539.03 448.69 L 540.50 446.96 L 541.97 446.28 L 543.44 443.48 L 544.92 442.97 L 546.39 445.51 L 547.86 451.46 L 549.33 442.72 L 550.81 443.92 L 552.28 443.92 L 553.75 451.84 L 555.22 455.31 L 556.69 444.96 L 558.17 446.83 L 559.64 452.43 L 561.11 464.27 L 562.58 443.52 L 564.06 443.69 L 565.53 438.48 L 567.00 433.66 L 568.47 445.29 L 569.94 441.03 L 571.42 438.11 L 572.89 437.04 L 574.36 443.32 L 575.83 448.77 L 577.31 449.65 L 578.78 451.91 L 580.25 442.76 L 581.72 439.51 L 583.19 443.94 L 584.67 446.25 L 586.14 440.26 L 587.61 444.15 L 589.08 443.45 L 590.56 449.03 L 592.03 439.69 L 593.50 440.59 L 594.97 441.67 L 596.44 442.01 L 597.92 440.82 L 599.39 441.21 L 600.86 441.15 L 602.33 441.92 L 603.81 441.23 L 605.28 441.68 L 606.75 441.35 L 608.22 441.58 L 609.69 441.49 L 611.17 441.52 L 612.64 441.45 L 614.11 441.51 L 615.58 441.49 L 617.06 441.45 L 618.53 441.49 L 620.00 441.43 L 621.47 441.53 L 622.94 441.47 L 624.42 441.48 L 625.89 441.49 L 627.36 441.50 L 628.83 441.46 L 630.31 441.46 L 631.78 441.44 L 633.25 441.49 L 634.72 441.47 L 636.19 441.66 L 637.67 440.11 L 639.14 440.05 L 640.61 439.82 L 642.08 439.49 L 643.56 440.07 L 645.03 440.14 L 646.50 439.86 L 647.97 439.77 L 649.44 439.90 L 650.92 440.00 L 652.39 439.86 L 653.86 439.86 L 655.33 439.92 L 656.81 439.89 L 658.28 439.85 L 659.75 439.86 L 661.22 439.87 L 662.69 439.84 L 664.17 439.85 L 665.64 439.81 L 667.11 439.87 L 668.58 439.85 L 670.06 439.86 L 671.53 439.82 L 673.00 439.82 L 674.47 439.82 L 675.94 439.84 L 677.42 439.85 L 678.89 439.85 L 680.36 439.99 L 681.83 440.53 L 683.31 437.74 L 684.78 438.74 L 686.25 440.77 L 687.72 438.32 L 689.19 438.76 L 690.67 439.37 L 692.14 439.30 L 693.61 439.12 L 695.08 439.07 L 696.56 439.08 L 698.03 439.09 L 699.50 439.18 L 700.97 439.10 L 702.44 439.14 L 703.92 439.03 L 705.39 439.11 L 706.86 439.08 L 708.33 439.07 L 709.81 439.08 L 711.28 439.06 L 712.75 439.18 L 714.22 439.10 L 715.69 439.10 L 717.17 439.08 L 718.64 439.14 L 720.11 439.08 L 721.58 439.03 L 723.06 439.09 L 724.53 439.09 L 726.00 439.11 L 727.47 438.90 L 728.94 439.91 L 730.42 436.82 L 731.89 439.78 L 733.36 438.70 L 734.83 438.45 L 736.31 438.88 L 737.78 438.71 L 739.25 438.66 L 740.72 438.59 L 742.19 438.69 L 743.67 438.69 L 745.14 438.65 L 746.61 438.60 L 748.08 438.63 L 749.56 438.66 L 751.03 438.61 L 752.50 438.60 L 753.97 438.62 L 755.44 438.69 L 756.92 438.59 L 758.39 438.61 L 759.86 438.62 L 761.33 438.63 L 762.81 438.64 L 764.28 438.63 L 765.75 438.74 L 767.22 439.42 L 768.69 439.07 L 770.17 438.69 L 771.64 438.89 L 773.11 438.85 L 774.58 438.89 L 776.06 438.99 L 777.53 438.98 L 779.00 438.98 L 780.47 438.98 L 781.94 438.98 L 783.42 439.04 L 784.89 438.97" stroke="#6A1B9A" />
<line x1="900.00" y1="307.75" x2="918.00" y2="307.75" stroke="#2E7D32" stroke-width="3" />
<text class="small" x="924.00" y="311.75">pitch</text>
<line x1="900.00" y1="323.75" x2="918.00" y2="323.75" stroke="#6A1B9A" stroke-width="3" />
<text class="small" x="924.00" y="327.75">roll</text>
<text x="90" y="500.50" font-size="14" font-weight="700">Aceleração (magnitude) (u.a.)</text>
<rect class="event" x="443.33" y="506.50" width="76.56" height="192.75" />
<line class="eventline" x1="443.33" y1="506.50" x2="443.33" y2="699.25" />
<line class="eventline" x1="519.89" y1="506.50" x2="519.89" y2="699.25" />
<line class="grid" x1="90" y1="699.25" x2="1150" y2="699.25" />
<text class="small" x="80" y="703.25" text-anchor="end">0.00</text>
<line class="grid" x1="90" y1="660.70" x2="1150" y2="660.70" />
<text class="small" x="80" y="664.70" text-anchor="end">0.20</text>
<line class="grid" x1="90" y1="622.15" x2="1150" y2="622.15" />
<text class="small" x="80" y="626.15" text-anchor="end">0.40</text>
<line class="grid" x1="90" y1="583.60" x2="1150" y2="583.60" />
<text class="small" x="80" y="587.60" text-anchor="end">0.60</text>
<line class="grid" x1="90" y1="545.05" x2="1150" y2="545.05" />
<text class="small" x="80" y="549.05" text-anchor="end">0.80</text>
<line class="grid" x1="90" y1="506.50" x2="1150" y2="506.50" />
<text class="small" x="80" y="510.50" text-anchor="end">1.00</text>
<line class="grid" x1="90.00" y1="506.50" x2="90.00" y2="699.25" />
<line class="grid" x1="266.67" y1="506.50" x2="266.67" y2="699.25" />
<line class="grid" x1="443.33" y1="506.50" x2="443.33" y2="699.25" />
<line class="grid" x1="620.00" y1="506.50" x2="620.00" y2="699.25" />
<line class="grid" x1="796.67" y1="506.50" x2="796.67" y2="699.25" />
<line class="grid" x1="973.33" y1="506.50" x2="973.33" y2="699.25" />
<line class="grid" x1="1150.00" y1="506.50" x2="1150.00" y2="699.25" />
<line class="axis" x1="90" y1="506.50" x2="90" y2="699.25" />
<line class="axis" x1="90" y1="699.25" x2="1150" y2="699.25" />
<path class="series" d="M 178.33 698.57 L 179.81 699.06 L 181.28 698.92 L 182.75 698.65 L 184.22 698.99 L 185.69 698.74 L 187.17 698.54 L 188.64 697.97 L 190.11 698.78 L 191.58 698.79 L 193.06 698.96 L 194.53 698.77 L 196.00 698.75 L 197.47 698.84 L 198.94 698.16 L 200.42 699.03 L 201.89 699.08 L 203.36 698.82 L 204.83 699.05 L 206.31 698.84 L 207.78 699.14 L 209.25 698.77 L 210.72 699.01 L 212.19 699.08 L 213.67 699.07 L 215.14 699.04 L 216.61 698.93 L 218.08 698.74 L 219.56 699.07 L 221.03 699.10 L 222.50 699.06 L 223.97 698.80 L 225.44 699.10 L 226.92 698.47 L 228.39 698.66 L 229.86 698.82 L 231.33 698.68 L 232.81 698.93 L 234.28 698.77 L 235.75 698.50 L 237.22 698.60 L 238.69 698.49 L 240.17 698.95 L 241.64 698.97 L 243.11 699.05 L 244.58 698.57 L 246.06 698.94 L 247.53 698.98 L 249.00 698.68 L 250.47 698.78 L 251.94 698.56 L 253.42 697.51 L 254.89 697.51 L 256.36 698.30 L 257.83 697.97 L 259.31 699.11 L 260.78 686.39 L 262.25 677.27 L 263.72 662.26 L 265.19 653.16 L 266.67 674.06 L 268.14 679.72 L 269.61 692.07 L 271.08 687.18 L 272.56 670.67 L 274.03 668.38 L 275.50 662.53 L 276.97 653.03 L 278.44 663.96 L 279.92 687.96 L 281.39 664.67 L 282.86 689.13 L 284.33 654.19 L 285.81 684.19 L 287.28 687.79 L 288.75 689.60 L 290.22 673.03 L 291.69 662.31 L 293.17 661.72 L 294.64 663.70 L 296.11 688.63 L 297.58 695.22 L 299.06 696.72 L 300.53 697.62 L 302.00 698.10 L 303.47 698.06 L 304.94 697.74 L 306.42 698.84 L 307.89 698.67 L 309.36 698.75 L 310.83 698.95 L 312.31 698.29 L 313.78 698.88 L 315.25 698.49 L 316.72 698.99 L 318.19 698.82 L 319.67 698.63 L 321.14 699.10 L 322.61 698.83 L 324.08 698.61 L 325.56 698.93 L 327.03 698.48 L 328.50 698.62 L 329.97 698.95 L 331.44 698.93 L 332.92 698.75 L 334.39 698.95 L 335.86 689.48 L 337.33 669.88 L 338.81 667.24 L 340.28 632.41 L 341.75 643.93 L 343.22 691.08 L 344.69 671.83 L 346.17 696.34 L 347.64 675.70 L 349.11 679.36 L 350.58 655.56 L 352.06 679.31 L 353.53 677.00 L 355.00 678.91 L 356.47 660.03 L 357.94 655.72 L 359.42 654.85 L 360.89 660.71 L 362.36 662.10 L 363.83 668.22 L 365.31 661.09 L 366.78 645.36 L 368.25 639.17 L 369.72 687.00 L 371.19 671.13 L 372.67 686.00 L 374.14 683.06 L 375.61 644.23 L 377.08 636.18 L 378.56 681.69 L 380.03 688.34 L 381.50 695.76 L 382.97 697.46 L 384.44 698.45 L 385.92 699.01 L 387.39 698.50 L 388.86 699.07 L 390.33 678.95 L 391.81 645.58 L 393.28 688.68 L 394.75 693.17 L 396.22 695.39 L 397.69 697.41 L 399.17 698.31 L 400.64 698.34 L 402.11 698.85 L 403.58 698.56 L 405.06 698.85 L 406.53 698.99 L 408.00 699.00 L 409.47 699.03 L 410.94 698.88 L 412.42 695.00 L 413.89 694.92 L 415.36 695.22 L 416.83 650.49 L 418.31 676.09 L 419.78 662.33 L 421.25 662.33 L 422.72 631.38 L 424.19 639.57 L 425.67 683.07 L 427.14 657.80 L 428.61 653.79 L 430.08 618.12 L 431.56 672.56 L 433.03 653.38 L 434.50 598.90 L 435.97 632.10 L 437.44 584.73 L 438.92 626.12 L 440.39 679.12 L 441.86 641.44 L 443.33 641.78 L 444.81 587.18 L 446.28 685.67 L 447.75 682.77 L 449.22 692.74 L 450.69 697.44 L 452.17 698.38 L 453.64 698.46 L 455.11 698.99 L 456.58 698.47 L 458.06 698.50 L 459.53 698.67 L 461.00 698.66 L 462.47 698.92 L 463.94 698.56 L 465.42 698.39 L 466.89 698.64 L 468.36 698.55 L 469.83 698.96 L 471.31 698.75 L 472.78 697.84 L 474.25 698.36 L 475.72 699.09 L 477.19 698.95 L 478.67 698.96 L 480.14 698.94 L 481.61 698.53 L 483.08 698.69 L 484.56 698.76 L 486.03 698.90 L 487.50 698.86 L 488.97 698.80 L 490.44 698.95 L 491.92 698.73 L 493.39 698.69 L 494.86 698.64 L 496.33 698.42 L 497.81 698.87 L 499.28 698.76 L 500.75 698.86 L 502.22 698.85 L 503.69 698.79 L 505.17 698.88 L 506.64 698.77 L 508.11 698.17 L 509.58 698.57 L 511.06 698.49 L 512.53 698.61 L 514.00 693.96 L 515.47 694.10 L 516.94 691.83 L 518.42 679.85 L 519.89 687.97 L 521.36 640.34 L 522.83 564.54 L 524.31 582.77 L 525.78 655.48 L 527.25 629.47 L 528.72 692.10 L 530.19 674.86 L 531.67 691.57 L 533.14 667.07 L 534.61 656.11 L 536.08 679.96 L 537.56 692.81 L 539.03 678.24 L 540.50 645.94 L 541.97 628.93 L 543.44 614.17 L 544.92 640.03 L 546.39 657.60 L 547.86 602.71 L 549.33 666.18 L 550.81 678.87 L 552.28 685.14 L 553.75 678.69 L 555.22 587.42 L 556.69 632.17 L 558.17 645.47 L 559.64 622.83 L 561.11 592.03 L 562.58 674.21 L 564.06 643.61 L 565.53 624.36 L 567.00 663.36 L 568.47 679.02 L 569.94 610.96 L 571.42 668.03 L 572.89 684.21 L 574.36 659.81 L 575.83 642.81 L 577.31 690.51 L 578.78 665.11 L 580.25 659.54 L 581.72 637.78 L 583.19 677.73 L 584.67 650.89 L 586.14 601.52 L 587.61 656.84 L 589.08 660.44 L 590.56 584.61 L 592.03 676.04 L 593.50 687.67 L 594.97 685.21 L 596.44 674.37 L 597.92 674.37 L 599.39 681.42 L 600.86 696.22 L 602.33 695.35 L 603.81 696.60 L 605.28 697.49 L 606.75 697.44 L 608.22 697.52 L 609.69 697.51 L 611.17 697.16 L 612.64 697.65 L 614.11 697.45 L 615.58 697.52 L 617.06 698.34 L 618.53 698.85 L 620.00 698.04 L 621.47 699.02 L 622.94 698.95 L 624.42 698.81 L 625.89 698.75 L 627.36 698.87 L 628.83 698.71 L 630.31 698.99 L 631.78 699.20 L 633.25 698.99 L 634.72 698.91 L 636.19 692.75 L 637.67 684.80 L 639.14 685.04 L 640.61 692.99 L 642.08 695.29 L 643.56 698.30 L 645.03 697.23 L 646.50 698.32 L 647.97 698.42 L 649.44 697.96 L 650.92 698.26 L 652.39 698.59 L 653.86 699.02 L 655.33 698.82 L 656.81 698.91 L 658.28 698.89 L 659.75 698.83 L 661.22 698.70 L 662.69 698.59 L 664.17 698.59 L 665.64 698.72 L 667.11 698.78 L 668.58 698.77 L 670.06 699.06 L 671.53 699.00 L 673.00 698.98 L 674.47 698.88 L 675.94 698.92 L 677.42 698.73 L 678.89 698.79 L 680.36 694.99 L 681.83 687.39 L 683.31 687.87 L 684.78 679.43 L 686.25 684.64 L 687.72 697.57 L 689.19 695.01 L 690.67 697.53 L 692.14 696.94 L 693.61 698.77 L 695.08 698.85 L 696.56 698.49 L 698.03 698.81 L 699.50 698.66 L 700.97 698.60 L 702.44 698.93 L 703.92 698.42 L 705.39 699.04 L 706.86 698.69 L 708.33 698.89 L 709.81 698.76 L 711.28 698.76 L 712.75 698.75 L 714.22 698.91 L 715.69 698.89 L 717.17 698.80 L 718.64 699.01 L 720.11 698.62 L 721.58 698.72 L 723.06 698.84 L 724.53 698.92 L 726.00 699.00 L 727.47 697.11 L 728.94 694.31 L 730.42 688.98 L 731.89 692.24 L 733.36 694.73 L 734.83 698.20 L 736.31 698.01 L 737.78 698.86 L 739.25 698.43 L 740.72 698.62 L 742.19 698.45 L 743.67 698.88 L 745.14 698.86 L 746.61 698.74 L 748.08 698.85 L 749.56 698.51 L 751.03 698.64 L 752.50 698.91 L 753.97 699.04 L 755.44 698.72 L 756.92 698.68 L 758.39 698.65 L 759.86 699.11 L 761.33 699.04 L 762.81 698.99 L 764.28 698.95 L 765.75 689.49 L 767.22 692.39 L 768.69 695.69 L 770.17 695.69 L 771.64 696.52 L 773.11 696.11 L 774.58 698.10 L 776.06 698.56 L 777.53 698.51 L 779.00 698.57 L 780.47 698.82 L 781.94 698.70 L 783.42 699.01 L 784.89 698.69" stroke="#FB8C00" />
<text x="90" y="711.25" font-size="14" font-weight="700">Giroscópio (magnitude) (u.a.)</text>
<rect class="event" x="443.33" y="717.25" width="76.56" height="192.75" />
<line class="eventline" x1="443.33" y1="717.25" x2="443.33" y2="910.00" />
<line class="eventline" x1="519.89" y1="717.25" x2="519.89" y2="910.00" />
<line class="grid" x1="90" y1="910.00" x2="1150" y2="910.00" />
<text class="small" x="80" y="914.00" text-anchor="end">0.00</text>
<line class="grid" x1="90" y1="871.45" x2="1150" y2="871.45" />
<text class="small" x="80" y="875.45" text-anchor="end">0.05</text>
<line class="grid" x1="90" y1="832.90" x2="1150" y2="832.90" />
<text class="small" x="80" y="836.90" text-anchor="end">0.10</text>
<line class="grid" x1="90" y1="794.35" x2="1150" y2="794.35" />
<text class="small" x="80" y="798.35" text-anchor="end">0.15</text>
<line class="grid" x1="90" y1="755.80" x2="1150" y2="755.80" />
<text class="small" x="80" y="759.80" text-anchor="end">0.20</text>
<line class="grid" x1="90" y1="717.25" x2="1150" y2="717.25" />
<text class="small" x="80" y="721.25" text-anchor="end">0.25</text>
<line class="grid" x1="90.00" y1="717.25" x2="90.00" y2="910.00" />
<line class="grid" x1="266.67" y1="717.25" x2="266.67" y2="910.00" />
<line class="grid" x1="443.33" y1="717.25" x2="443.33" y2="910.00" />
<line class="grid" x1="620.00" y1="717.25" x2="620.00" y2="910.00" />
<line class="grid" x1="796.67" y1="717.25" x2="796.67" y2="910.00" />
<line class="grid" x1="973.33" y1="717.25" x2="973.33" y2="910.00" />
<line class="grid" x1="1150.00" y1="717.25" x2="1150.00" y2="910.00" />
<line class="axis" x1="90" y1="717.25" x2="90" y2="910.00" />
<line class="axis" x1="90" y1="910.00" x2="1150" y2="910.00" />
<path class="series" d="M 178.33 909.77 L 179.81 909.67 L 181.28 909.65 L 182.75 909.66 L 184.22 909.72 L 185.69 909.70 L 187.17 909.73 L 188.64 909.68 L 190.11 909.79 L 191.58 909.91 L 193.06 909.68 L 194.53 909.79 L 196.00 909.70 L 197.47 909.71 L 198.94 909.60 L 200.42 909.64 L 201.89 909.74 L 203.36 909.60 L 204.83 909.48 L 206.31 909.70 L 207.78 909.75 L 209.25 909.64 L 210.72 909.78 L 212.19 909.77 L 213.67 909.63 L 215.14 909.74 L 216.61 909.63 L 218.08 909.70 L 219.56 909.58 L 221.03 909.51 L 222.50 909.76 L 223.97 909.86 L 225.44 909.86 L 226.92 909.89 L 228.39 909.96 L 229.86 909.91 L 231.33 909.95 L 232.81 909.89 L 234.28 909.90 L 235.75 909.90 L 237.22 909.93 L 238.69 909.97 L 240.17 909.84 L 241.64 909.92 L 243.11 909.72 L 244.58 909.80 L 246.06 909.90 L 247.53 909.89 L 249.00 909.81 L 250.47 909.69 L 251.94 909.83 L 253.42 909.70 L 254.89 909.70 L 256.36 909.88 L 257.83 909.81 L 259.31 909.73 L 260.78 908.74 L 262.25 907.02 L 263.72 889.66 L 265.19 866.64 L 266.67 864.71 L 268.14 870.77 L 269.61 881.77 L 271.08 873.76 L 272.56 879.98 L 274.03 884.42 L 275.50 888.74 L 276.97 893.29 L 278.44 897.84 L 279.92 882.31 L 281.39 888.27 L 282.86 885.17 L 284.33 886.61 L 285.81 876.55 L 287.28 857.76 L 288.75 869.58 L 290.22 873.46 L 291.69 887.80 L 293.17 904.00 L 294.64 908.51 L 296.11 909.20 L 297.58 909.71 L 299.06 909.61 L 300.53 909.52 L 302.00 909.57 L 303.47 909.37 L 304.94 909.57 L 306.42 909.43 L 307.89 909.47 L 309.36 909.34 L 310.83 909.76 L 312.31 909.74 L 313.78 909.90 L 315.25 909.88 L 316.72 909.87 L 318.19 909.88 L 319.67 909.81 L 321.14 909.79 L 322.61 909.84 L 324.08 909.85 L 325.56 909.89 L 327.03 909.85 L 328.50 909.81 L 329.97 909.82 L 331.44 909.79 L 332.92 909.84 L 334.39 909.76 L 335.86 907.24 L 337.33 906.19 L 338.81 908.77 L 340.28 905.85 L 341.75 887.37 L 343.22 885.00 L 344.69 864.70 L 346.17 862.57 L 347.64 852.17 L 349.11 847.51 L 350.58 851.93 L 352.06 854.74 L 353.53 847.69 L 355.00 845.62 L 356.47 849.49 L 357.94 849.48 L 359.42 852.50 L 360.89 848.96 L 362.36 842.74 L 363.83 856.69 L 365.31 863.57 L 366.78 873.15 L 368.25 869.46 L 369.72 874.32 L 371.19 853.40 L 372.67 862.91 L 374.14 863.64 L 375.61 853.48 L 377.08 880.72 L 378.56 908.60 L 380.03 909.46 L 381.50 909.65 L 382.97 909.86 L 384.44 909.71 L 385.92 909.71 L 387.39 909.82 L 388.86 909.75 L 390.33 904.57 L 391.81 906.63 L 393.28 908.12 L 394.75 909.57 L 396.22 909.59 L 397.69 909.76 L 399.17 909.69 L 400.64 909.84 L 402.11 909.70 L 403.58 909.87 L 405.06 909.85 L 406.53 909.87 L 408.00 909.92 L 409.47 909.86 L 410.94 909.73 L 412.42 909.50 L 413.89 908.22 L 415.36 909.39 L 416.83 906.94 L 418.31 894.87 L 419.78 901.56 L 421.25 901.56 L 422.72 903.65 L 424.19 893.87 L 425.67 889.91 L 427.14 886.00 L 428.61 892.89 L 430.08 896.27 L 431.56 885.28 L 433.03 877.87 L 434.50 850.29 L 435.97 852.71 L 437.44 877.73 L 438.92 888.19 L 440.39 871.26 L 441.86 868.20 L 443.33 894.22 L 444.81 909.16 L 446.28 908.43 L 447.75 909.29 L 449.22 909.43 L 450.69 909.86 L 452.17 909.82 L 453.64 909.84 L 455.11 909.88 L 456.58 909.93 L 458.06 909.88 L 459.53 909.83 L 461.00 909.90 L 462.47 909.89 L 463.94 909.80 L 465.42 909.76 L 466.89 909.89 L 468.36 909.69 L 469.83 909.71 L 471.31 909.86 L 472.78 909.87 L 474.25 909.88 L 475.72 909.86 L 477.19 909.84 L 478.67 909.79 L 480.14 909.93 L 481.61 909.88 L 483.08 909.80 L 484.56 909.71 L 486.03 909.69 L 487.50 909.82 L 488.97 909.73 L 490.44 909.81 L 491.92 909.80 L 493.39 909.79 L 494.86 909.82 L 496.33 909.82 L 497.81 909.78 L 499.28 909.69 L 500.75 909.73 L 502.22 909.72 L 503.69 909.74 L 505.17 909.79 L 506.64 909.77 L 508.11 909.80 L 509.58 909.96 L 511.06 909.71 L 512.53 909.80 L 514.00 908.30 L 515.47 909.30 L 516.94 909.52 L 518.42 901.42 L 519.89 885.10 L 521.36 864.62 L 522.83 837.55 L 524.31 869.61 L 525.78 838.01 L 527.25 850.63 L 528.72 864.43 L 530.19 857.79 L 531.67 880.09 L 533.14 876.83 L 534.61 876.92 L 536.08 872.39 L 537.56 870.36 L 539.03 869.84 L 540.50 898.95 L 541.97 897.48 L 543.44 906.35 L 544.92 906.06 L 546.39 908.20 L 547.86 904.82 L 549.33 881.04 L 550.81 880.40 L 552.28 878.66 L 553.75 885.90 L 555.22 882.92 L 556.69 904.83 L 558.17 885.39 L 559.64 898.84 L 561.11 876.24 L 562.58 877.62 L 564.06 874.74 L 565.53 891.60 L 567.00 898.07 L 568.47 892.86 L 569.94 894.11 L 571.42 896.01 L 572.89 892.68 L 574.36 902.05 L 575.83 897.29 L 577.31 904.35 L 578.78 892.47 L 580.25 900.28 L 581.72 898.43 L 583.19 900.28 L 584.67 888.45 L 586.14 901.12 L 587.61 899.66 L 589.08 901.71 L 590.56 894.76 L 592.03 906.18 L 593.50 907.85 L 594.97 907.48 L 596.44 905.51 L 597.92 905.51 L 599.39 908.22 L 600.86 908.60 L 602.33 907.95 L 603.81 908.51 L 605.28 908.26 L 606.75 908.36 L 608.22 908.26 L 609.69 908.32 L 611.17 908.28 L 612.64 908.21 L 614.11 908.39 L 615.58 908.85 L 617.06 909.87 L 618.53 909.91 L 620.00 909.91 L 621.47 909.92 L 622.94 909.81 L 624.42 909.88 L 625.89 909.93 L 627.36 909.84 L 628.83 909.94 L 630.31 909.81 L 631.78 909.90 L 633.25 909.89 L 634.72 909.79 L 636.19 908.11 L 637.67 906.79 L 639.14 908.74 L 640.61 909.33 L 642.08 909.89 L 643.56 909.71 L 645.03 909.90 L 646.50 909.91 L 647.97 909.87 L 649.44 909.81 L 650.92 909.93 L 652.39 909.94 L 653.86 909.92 L 655.33 909.90 L 656.81 909.84 L 658.28 909.79 L 659.75 909.90 L 661.22 909.83 L 662.69 909.91 L 664.17 909.82 L 665.64 909.88 L 667.11 909.81 L 668.58 909.88 L 670.06 909.89 L 671.53 909.86 L 673.00 909.96 L 674.47 909.90 L 675.94 909.93 L 677.42 909.82 L 678.89 909.91 L 680.36 909.06 L 681.83 904.76 L 683.31 908.84 L 684.78 907.44 L 686.25 908.89 L 687.72 909.47 L 689.19 909.75 L 690.67 909.83 L 692.14 909.85 L 693.61 909.91 L 695.08 909.95 L 696.56 909.94 L 698.03 909.84 L 699.50 909.89 L 700.97 909.87 L 702.44 909.85 L 703.92 909.91 L 705.39 909.83 L 706.86 909.90 L 708.33 909.74 L 709.81 909.88 L 711.28 909.84 L 712.75 909.91 L 714.22 909.88 L 715.69 909.94 L 717.17 909.84 L 718.64 909.86 L 720.11 909.97 L 721.58 909.88 L 723.06 909.90 L 724.53 909.93 L 726.00 909.80 L 727.47 909.32 L 728.94 907.49 L 730.42 909.47 L 731.89 909.44 L 733.36 909.74 L 734.83 909.71 L 736.31 909.76 L 737.78 909.76 L 739.25 909.89 L 740.72 909.80 L 742.19 909.78 L 743.67 909.91 L 745.14 909.75 L 746.61 909.80 L 748.08 909.92 L 749.56 909.80 L 751.03 909.85 L 752.50 909.85 L 753.97 909.85 L 755.44 909.90 L 756.92 909.94 L 758.39 909.86 L 759.86 909.77 L 761.33 909.95 L 762.81 909.89 L 764.28 909.80 L 765.75 908.25 L 767.22 908.84 L 768.69 909.32 L 770.17 909.32 L 771.64 909.66 L 773.11 909.89 L 774.58 909.75 L 776.06 909.81 L 777.53 909.80 L 779.00 909.88 L 780.47 909.63 L 781.94 909.82 L 783.42 909.61 L 784.89 909.82" stroke="#E53935" />
<text x="620.00" y="952" font-size="15" text-anchor="middle">minutos (relativo ao início do evento)</text>
<text class="small" x="90.00" y="936" text-anchor="middle">-4.00</text>
<text class="small" x="266.67" y="936" text-anchor="middle">-2.00</text>
<text class="small" x="443.33" y="936" text-anchor="middle">0.00</text>
<text class="small" x="620.00" y="936" text-anchor="middle">2.00</text>
<text class="small" x="796.67" y="936" text-anchor="middle">4.00</text>
<text class="small" x="973.33" y="936" text-anchor="middle">6.00</text>
<text class="small" x="1150.00" y="936" text-anchor="middle">8.00</text>
</svg>