<?xml version="1.0" encoding="UTF-8"?>
<svg xmlns="http://www.w3.org/2000/svg" width="1180" height="980" viewBox="0 0 1180 980">
<style>
text { font-family: -apple-system, BlinkMacSystemFont, 'Segoe UI', Roboto, Helvetica, Arial, sans-serif; fill: #111; }
.small { font-size: 12px; fill: #222; }
.title { font-size: 18px; font-weight: 700; }
.axis { stroke: #111; stroke-width: 1.4; }
.grid { stroke: #E6E6E6; stroke-width: 1; }
.event { fill: #FFEB3B; fill-opacity: 0.18; }
.eventline { stroke: #F9A825; stroke-width: 1.2; stroke-dasharray: 4 3; }
.series { fill: none; stroke-width: 1.8; }
</style>
<text class="title" x="90" y="34">ciclo 12 — basculamento — 2025-12-13T01:33:14-03:00 → 2025-12-13T01:33:50-03:00 (span 36s, dur 37s)</text>
<text class="small" x="90" y="54">GPS: -11.692857,-47.165194  hotspot: -11.693,-47.165</text>
<text class="small" x="90" y="70">Janela: -3.00 → 3.60 min (relativo ao início do evento)</text>
<text x="90" y="79.00" font-size="14" font-weight="700">Velocidade (km/h)</text>
<rect class="event" x="443.33" y="85.00" width="53.00" height="192.75" />
<line class="eventline" x1="443.33" y1="85.00" x2="443.33" y2="277.75" />
<line class="eventline" x1="496.33" y1="85.00" x2="496.33" y2="277.75" />
<line class="grid" x1="90" y1="277.75" x2="1150" y2="277.75" />
<text class="small" x="80" y="281.75" text-anchor="end">0.00</text>
<line class="grid" x1="90" y1="239.20" x2="1150" y2="239.20" />
<text class="small" x="80" y="243.20" text-anchor="end">10.0</text>
<line class="grid" x1="90" y1="200.65" x2="1150" y2="200.65" />
<text class="small" x="80" y="204.65" text-anchor="end">20.0</text>
<line class="grid" x1="90" y1="162.10" x2="1150" y2="162.10" />
<text class="small" x="80" y="166.10" text-anchor="end">30.0</text>
<line class="grid" x1="90" y1="123.55" x2="1150" y2="123.55" />
<text class="small" x="80" y="127.55" text-anchor="end">40.0</text>
<line class="grid" x1="90" y1="85.00" x2="1150" y2="85.00" />
<text class="small" x="80" y="89.00" text-anchor="end">50.0</text>
<line class="grid" x1="90.00" y1="85.00" x2="90.00" y2="277.75" />
<line class="grid" x1="266.67" y1="85.00" x2="266.67" y2="277.75" />
<line class="grid" x1="443.33" y1="85.00" x2="443.33" y2="277.75" />
<line class="grid" x1="620.00" y1="85.00" x2="620.00" y2="277.75" />
<line class="grid" x1="796.67" y1="85.00" x2="796.67" y2="277.75" />
<line class="grid" x1="973.33" y1="85.00" x2="973.33" y2="277.75" />
<line class="grid" x1="1150.00" y1="85.00" x2="1150.00" y2="277.75" />
<line class="axis" x1="90" y1="85.00" x2="90" y2="277.75" />
<line class="axis" x1="90" y1="277.75" x2="1150" y2="277.75" />
<path class="series" d="M 178.33 245.97 L 179.81 247.36 L 181.28 245.28 L 182.75 243.89 L 184.22 246.39 L 185.69 245.41 L 187.17 246.94 L 188.64 245.55 L 190.11 246.66 L 191.58 246.80 L 193.06 246.39 L 194.53 246.94 L 196.00 246.25 L 197.47 247.22 L 198.94 246.25 L 200.42 249.02 L 201.89 252.21 L 203.36 248.88 L 204.83 249.72 L 206.31 249.99 L 207.78 249.44 L 209.25 248.74 L 210.72 249.02 L 212.19 248.05 L 213.67 246.80 L 215.14 245.14 L 216.61 245.14 L 218.08 245.14 L 219.56 245.69 L 221.03 246.11 L 222.50 246.39 L 223.97 245.55 L 225.44 244.44 L 226.92 245.55 L 228.39 245.83 L 229.86 246.94 L 231.33 246.39 L 232.81 246.66 L 234.28 246.94 L 235.75 248.19 L 237.22 246.52 L 238.69 247.22 L 240.17 247.08 L 241.64 249.02 L 243.11 245.69 L 244.58 246.11 L 246.06 245.28 L 247.53 244.30 L 249.00 245.69 L 250.47 245.69 L 251.94 247.77 L 253.42 243.19 L 254.89 241.67 L 256.36 240.56 L 257.83 234.59 L 259.31 229.73 L 260.78 223.49 L 262.25 219.46 L 263.72 209.89 L 265.19 207.11 L 266.67 203.92 L 268.14 202.81 L 269.61 202.95 L 271.08 201.56 L 272.56 204.06 L 274.03 203.64 L 275.50 204.47 L 276.97 212.66 L 278.44 212.80 L 279.92 209.47 L 281.39 210.16 L 282.86 209.75 L 284.33 209.33 L 285.81 209.47 L 287.28 217.94 L 288.75 221.41 L 290.22 224.18 L 291.69 227.23 L 293.17 233.20 L 294.64 237.78 L 296.11 237.37 L 297.58 235.56 L 299.06 236.12 L 300.53 235.14 L 302.00 236.25 L 303.47 235.42 L 304.94 238.20 L 306.42 235.56 L 307.89 236.39 L 309.36 235.28 L 310.83 231.81 L 312.31 228.62 L 313.78 224.87 L 315.25 223.90 L 316.72 224.46 L 318.19 227.65 L 319.67 225.99 L 321.14 229.59 L 322.61 225.15 L 324.08 224.04 L 325.56 225.57 L 327.03 225.43 L 328.50 230.84 L 329.97 238.20 L 331.44 242.92 L 332.92 251.52 L 334.39 253.60 L 335.86 252.35 L 337.33 253.05 L 338.81 250.83 L 340.28 250.13 L 341.75 249.44 L 343.22 249.02 L 344.69 249.58 L 346.17 244.58 L 347.64 244.86 L 349.11 247.36 L 350.58 245.14 L 352.06 245.14 L 353.53 240.00 L 355.00 240.14 L 356.47 244.86 L 357.94 252.49 L 359.42 256.52 L 360.89 259.15 L 362.36 270.81 L 363.83 277.75 L 365.31 277.75 L 366.78 277.75 L 368.25 277.75 L 369.72 263.59 L 371.19 261.65 L 372.67 261.24 L 374.14 259.85 L 375.61 261.79 L 377.08 262.76 L 378.56 262.76 L 380.03 261.65 L 381.50 262.76 L 382.97 261.79 L 384.44 261.79 L 385.92 263.46 L 387.39 261.10 L 388.86 262.07 L 390.33 261.24 L 391.81 262.21 L 393.28 260.82 L 394.75 262.21 L 396.22 260.12 L 397.69 261.37 L 399.17 262.90 L 400.64 266.37 L 402.11 269.42 L 403.58 272.34 L 405.06 275.11 L 406.53 277.75 L 408.00 277.75 L 409.47 277.75 L 410.94 271.78 L 412.42 266.51 L 413.89 264.57 L 415.36 259.43 L 416.83 256.24 L 418.31 262.48 L 419.78 273.73 L 421.25 277.75 L 422.72 277.75 L 424.19 277.75 L 425.67 268.87 L 427.14 264.57 L 428.61 264.98 L 430.08 263.18 L 431.56 263.59 L 433.03 263.87 L 434.50 262.90 L 435.97 263.46 L 437.44 265.12 L 438.92 269.70 L 440.39 273.31 L 441.86 271.09 L 443.33 277.75 L 444.81 277.75 L 446.28 277.75 L 447.75 277.75 L 449.22 277.75 L 450.69 277.75 L 452.17 277.75 L 453.64 277.75 L 455.11 277.75 L 456.58 277.75 L 458.06 277.75 L 459.53 277.75 L 461.00 277.75 L 462.47 277.75 L 463.94 277.75 L 465.42 277.75 L 466.89 277.75 L 468.36 277.75 L 469.83 277.75 L 471.31 277.75 L 472.78 277.75 L 474.25 277.75 L 475.72 277.75 L 477.19 277.75 L 478.67 277.75 L 480.14 277.75 L 481.61 277.75 L 483.08 277.75 L 484.56 277.75 L 486.03 277.75 L 487.50 277.75 L 488.97 277.75 L 490.44 277.75 L 491.92 277.75 L 493.39 277.75 L 494.86 277.75 L 496.33 277.75 L 497.81 260.68 L 499.28 258.32 L 500.75 271.50 L 502.22 277.75 L 503.69 277.75 L 505.17 277.75 L 506.64 277.75 L 508.11 266.37 L 509.58 263.46 L 511.06 257.90 L 512.53 273.17 L 514.00 277.75 L 515.47 277.75 L 516.94 277.75 L 518.42 277.75 L 519.89 277.75 L 521.36 277.75 L 522.83 277.75 L 524.31 264.29 L 525.78 271.92 L 527.25 277.75 L 528.72 277.75 L 530.19 277.75 L 531.67 277.75 L 533.14 277.75 L 534.61 277.75 L 536.08 277.75 L 537.56 277.75 L 539.03 277.75 L 540.50 265.95 L 541.97 259.01 L 543.44 254.99 L 544.92 249.99 L 546.39 242.08 L 547.86 236.95 L 549.33 228.34 L 550.81 231.12 L 552.28 222.52 L 553.75 215.99 L 555.22 216.13 L 556.69 217.24 L 558.17 217.52 L 559.64 218.91 L 561.11 218.07 L 562.58 220.02 L 564.06 217.66 L 565.53 228.62 L 567.00 225.15 L 568.47 225.57 L 569.94 222.65 L 571.42 219.18 L 572.89 216.83 L 574.36 213.77 L 575.83 214.88 L 577.31 210.03 L 578.78 208.22 L 580.25 214.88 L 581.72 207.80 L 583.19 202.39 L 584.67 203.23 L 586.14 196.70 L 587.61 190.46 L 589.08 188.51 L 590.56 184.63 L 592.03 181.02 L 593.50 176.72 L 594.97 180.05 L 596.44 176.44 L 597.92 173.80 L 599.39 173.11 L 600.86 168.53 L 602.33 164.23 L 603.81 162.42 L 605.28 160.90 L 606.75 163.81 L 608.22 168.53 L 609.69 172.28 L 611.17 174.08 L 612.64 173.53 L 614.11 173.11 L 615.58 171.44 L 617.06 168.11 L 618.53 161.73 L 620.00 157.98 L 621.47 158.82 L 622.94 161.87 L 624.42 167.42 L 625.89 176.58 L 627.36 179.49 L 628.83 183.38 L 630.31 180.05 L 631.78 180.19 L 633.25 182.82 L 634.72 186.43 L 636.19 190.46 L 637.67 201.56 L 639.14 206.14 L 640.61 206.00 L 642.08 201.98 L 643.56 191.85 L 645.03 186.02 L 646.50 181.58 L 647.97 177.13 L 649.44 169.22 L 650.92 161.73 L 652.39 158.54 L 653.86 157.84 L 655.33 162.01 L 656.81 163.67 L 658.28 167.14 L 659.75 166.59 L 661.22 168.67 L 662.69 167.00 L 664.17 169.64 L 665.64 168.81 L 667.11 167.56 L 668.58 168.39 L 670.06 169.78 L 671.53 168.39 L 673.00 169.78 L 674.47 171.44 L 675.94 172.83 L 677.42 168.95 L 678.89 162.84 L 680.36 158.54 L 681.83 156.87 L 683.31 155.35 L 684.78 155.62 L 686.25 155.35 L 687.72 158.54 L 689.19 159.65 L 690.67 163.12 L 692.14 164.51 L 693.61 166.59 L 695.08 169.36 L 696.56 170.06 L 698.03 171.31 L 699.50 170.33 L 700.97 171.86 L 702.44 169.36 L 703.92 168.11 L 705.39 168.67 L 706.86 168.39 L 708.33 165.34 L 709.81 162.56 L 711.28 164.23 L 712.75 164.92 L 714.22 163.12 L 715.69 162.98 L 717.17 163.53 L 718.64 166.73 L 720.11 173.66 L 721.58 180.47 L 723.06 185.46 L 724.53 196.84 L 726.00 204.89 L 727.47 214.19 L 728.94 210.44 L 730.42 206.00 L 731.89 199.76 L 733.36 197.54 L 734.83 193.09 L 736.31 191.85 L 737.78 198.23 L 739.25 202.53 L 740.72 199.89 L 742.19 194.20 L 743.67 188.65 L 745.14 180.47 L 746.61 173.66 L 748.08 172.28 L 749.56 165.34 L 751.03 157.57 L 752.50 152.29 L 753.97 147.57 L 755.44 147.30 L 756.92 152.15 L 758.39 152.71 L 759.86 155.62 L 761.33 158.54" stroke="#1976D2" />
<text x="90" y="289.75" font-size="14" font-weight="700">Inclinação (graus)</text>
<rect class="event" x="443.33" y="295.75" width="53.00" height="192.75" />
<line class="eventline" x1="443.33" y1="295.75" x2="443.33" y2="488.50" />
<line class="eventline" x1="496.33" y1="295.75" x2="496.33" y2="488.50" />
<line class="grid" x1="90" y1="488.50" x2="1150" y2="488.50" />
<text class="small" x="80" y="492.50" text-anchor="end">-20.0</text>
<line class="grid" x1="90" y1="449.95" x2="1150" y2="449.95" />
<text class="small" x="80" y="453.95" text-anchor="end">-10.0</text>
<line class="grid" x1="90" y1="411.40" x2="1150" y2="411.40" />
<text class="small" x="80" y="415.40" text-anchor="end">0.00</text>
<line class="grid" x1="90" y1="372.85" x2="1150" y2="372.85" />
<text class="small" x="80" y="376.85" text-anchor="end">10.0</text>
<line class="grid" x1="90" y1="334.30" x2="1150" y2="334.30" />
<text class="small" x="80" y="338.30" text-anchor="end">20.0</text>
<line class="grid" x1="90" y1="295.75" x2="1150" y2="295.75" />
<text class="small" x="80" y="299.75" text-anchor="end">30.0</text>
<line class="grid" x1="90.00" y1="295.75" x2="90.00" y2="488.50" />
<line class="grid" x1="266.67" y1="295.75" x2="266.67" y2="488.50" />
<line class="grid" x1="443.33" y1="295.75" x2="443.33" y2="488.50" />
<line class="grid" x1="620.00" y1="295.75" x2="620.00" y2="488.50" />
<line class="grid" x1="796.67" y1="295.75" x2="796.67" y2="488.50" />
<line class="grid" x1="973.33" y1="295.75" x2="973.33" y2="488.50" />
<line class="grid" x1="1150.00" y1="295.75" x2="1150.00" y2="488.50" />
<line class="axis" x1="90" y1="295.75" x2="90" y2="488.50" />
<line class="axis" x1="90" y1="488.50" x2="1150" y2="488.50" />
<path class="series" d="M 178.33 389.39 L 179.81 387.91 L 181.28 389.08 L 182.75 383.32 L 184.22 384.40 L 185.69 383.04 L 187.17 386.51 L 188.64 387.34 L 190.11 386.75 L 191.58 387.76 L 193.06 390.05 L 194.53 389.76 L 196.00 389.80 L 197.47 394.64 L 198.94 392.84 L 200.42 394.65 L 201.89 398.36 L 203.36 395.60 L 204.83 395.03 L 206.31 393.74 L 207.78 394.43 L 209.25 393.39 L 210.72 392.45 L 212.19 392.01 L 213.67 391.85 L 215.14 391.03 L 216.61 390.47 L 218.08 390.46 L 219.56 388.28 L 221.03 386.81 L 222.50 387.82 L 223.97 388.98 L 225.44 388.31 L 226.92 390.62 L 228.39 392.77 L 229.86 391.78 L 231.33 392.32 L 232.81 394.11 L 234.28 391.93 L 235.75 393.75 L 237.22 392.30 L 238.69 392.20 L 240.17 392.92 L 241.64 396.06 L 243.11 388.20 L 244.58 384.29 L 246.06 387.51 L 247.53 389.01 L 249.00 386.57 L 250.47 380.85 L 251.94 389.71 L 253.42 380.63 L 254.89 378.42 L 256.36 384.39 L 257.83 377.03 L 259.31 374.23 L 260.78 372.39 L 262.25 377.88 L 263.72 368.40 L 265.19 370.23 L 266.67 372.18 L 268.14 370.59 L 269.61 368.37 L 271.08 373.78 L 272.56 367.01 L 274.03 368.73 L 275.50 367.55 L 276.97 369.62 L 278.44 373.90 L 279.92 369.70 L 281.39 371.53 L 282.86 375.21 L 284.33 375.19 L 285.81 374.28 L 287.28 375.85 L 288.75 382.10 L 290.22 380.14 L 291.69 378.36 L 293.17 379.94 L 294.64 384.54 L 296.11 384.39 L 297.58 386.08 L 299.06 383.74 L 300.53 385.79 L 302.00 384.53 L 303.47 383.23 L 304.94 386.97 L 306.42 383.92 L 307.89 377.99 L 309.36 379.63 L 310.83 379.63 L 312.31 374.69 L 313.78 370.97 L 315.25 371.09 L 316.72 372.07 L 318.19 363.96 L 319.67 361.70 L 321.14 358.43 L 322.61 357.82 L 324.08 362.12 L 325.56 360.50 L 327.03 357.73 L 328.50 366.55 L 329.97 362.81 L 331.44 358.21 L 332.92 361.64 L 334.39 370.41 L 335.86 374.20 L 337.33 375.09 L 338.81 378.38 L 340.28 374.61 L 341.75 369.85 L 343.22 371.77 L 344.69 369.78 L 346.17 371.52 L 347.64 369.63 L 349.11 367.61 L 350.58 366.01 L 352.06 366.86 L 353.53 367.59 L 355.00 359.57 L 356.47 350.18 L 357.94 354.70 L 359.42 357.06 L 360.89 353.39 L 362.36 343.00 L 363.83 369.14 L 365.31 363.60 L 366.78 355.56 L 368.25 358.13 L 369.72 360.27 L 371.19 361.65 L 372.67 361.68 L 374.14 361.73 L 375.61 362.84 L 377.08 363.14 L 378.56 360.61 L 380.03 363.38 L 381.50 360.40 L 382.97 360.34 L 384.44 364.67 L 385.92 360.95 L 387.39 359.04 L 388.86 365.76 L 390.33 363.17 L 391.81 367.69 L 393.28 365.64 L 394.75 367.55 L 396.22 366.48 L 397.69 367.83 L 399.17 370.53 L 400.64 373.38 L 402.11 373.88 L 403.58 372.46 L 405.06 373.72 L 406.53 367.92 L 408.00 368.65 L 409.47 371.33 L 410.94 380.70 L 412.42 375.00 L 413.89 375.60 L 415.36 376.95 L 416.83 360.43 L 418.31 350.46 L 419.78 347.49 L 421.25 368.14 L 422.72 365.16 L 424.19 354.84 L 425.67 356.55 L 427.14 365.11 L 428.61 364.40 L 430.08 364.71 L 431.56 364.94 L 433.03 364.94 L 434.50 369.24 L 435.97 366.41 L 437.44 371.95 L 438.92 370.96 L 440.39 364.04 L 441.86 365.91 L 443.33 370.59 L 444.81 361.22 L 446.28 364.19 L 447.75 368.16 L 449.22 372.77 L 450.69 362.24 L 452.17 363.43 L 453.64 363.75 L 455.11 363.68 L 456.58 363.76 L 458.06 363.80 L 459.53 363.85 L 461.00 363.85 L 462.47 363.95 L 463.94 364.00 L 465.42 363.35 L 466.89 364.56 L 468.36 363.46 L 469.83 363.76 L 471.31 363.66 L 472.78 363.62 L 474.25 362.80 L 475.72 365.31 L 477.19 363.85 L 478.67 363.75 L 480.14 364.02 L 481.61 364.54 L 483.08 363.78 L 484.56 363.88 L 486.03 363.32 L 487.50 364.39 L 488.97 366.56 L 490.44 364.07 L 491.92 364.75 L 493.39 365.17 L 494.86 376.29 L 496.33 387.22 L 497.81 372.36 L 499.28 352.83 L 500.75 358.71 L 502.22 369.89 L 503.69 369.80 L 505.17 369.34 L 506.64 385.84 L 508.11 374.65 L 509.58 373.99 L 511.06 354.46 L 512.53 356.76 L 514.00 369.99 L 515.47 371.78 L 516.94 368.87 L 518.42 369.68 L 519.89 369.69 L 521.36 369.50 L 522.83 387.22 L 524.31 360.45 L 525.78 359.20 L 527.25 364.90 L 528.72 367.79 L 530.19 366.96 L 531.67 366.90 L 533.14 367.06 L 534.61 367.28 L 536.08 366.68 L 537.56 370.51 L 539.03 381.00 L 540.50 375.79 L 541.97 371.55 L 543.44 373.14 L 544.92 377.22 L 546.39 371.23 L 547.86 380.49 L 549.33 372.16 L 550.81 366.45 L 552.28 367.14 L 553.75 363.63 L 555.22 359.57 L 556.69 359.54 L 558.17 358.96 L 559.64 359.93 L 561.11 363.97 L 562.58 368.68 L 564.06 355.46 L 565.53 384.60 L 567.00 372.46 L 568.47 373.75 L 569.94 375.27 L 571.42 371.78 L 572.89 369.00 L 574.36 356.49 L 575.83 375.50 L 577.31 365.60 L 578.78 350.03 L 580.25 367.22 L 581.72 355.52 L 583.19 353.44 L 584.67 350.04 L 586.14 350.89 L 587.61 354.37 L 589.08 351.05 L 590.56 356.54 L 592.03 354.85 L 593.50 350.63 L 594.97 369.37 L 596.44 368.31 L 597.92 367.41 L 599.39 365.57 L 600.86 368.22 L 602.33 368.22 L 603.81 367.34 L 605.28 361.57 L 606.75 356.83 L 608.22 357.33 L 609.69 367.45 L 611.17 359.87 L 612.64 360.32 L 614.11 354.25 L 615.58 360.87 L 617.06 355.65 L 618.53 354.86 L 620.00 351.32 L 621.47 339.59 L 622.94 342.86 L 624.42 333.12 L 625.89 331.16 L 627.36 331.73 L 628.83 340.81 L 630.31 341.76 L 631.78 343.71 L 633.25 343.92 L 634.72 347.34 L 636.19 334.17 L 637.67 329.53 L 639.14 334.00 L 640.61 345.35 L 642.08 355.07 L 643.56 357.22 L 645.03 354.02 L 646.50 354.21 L 647.97 354.69 L 649.44 355.45 L 650.92 353.77 L 652.39 345.16 L 653.86 342.01 L 655.33 340.32 L 656.81 339.08 L 658.28 338.19 L 659.75 339.39 L 661.22 341.52 L 662.69 342.70 L 664.17 341.95 L 665.64 343.34 L 667.11 343.63 L 668.58 343.14 L 670.06 342.75 L 671.53 344.48 L 673.00 342.25 L 674.47 343.56 L 675.94 345.15 L 677.42 355.59 L 678.89 353.59 L 680.36 350.70 L 681.83 338.20 L 683.31 344.00 L 684.78 342.86 L 686.25 343.11 L 687.72 342.47 L 689.19 344.09 L 690.67 341.76 L 692.14 342.68 L 693.61 343.10 L 695.08 343.18 L 696.56 342.85 L 698.03 343.69 L 699.50 341.75 L 700.97 342.66 L 702.44 342.01 L 703.92 342.70 L 705.39 343.81 L 706.86 340.73 L 708.33 341.75 L 709.81 342.48 L 711.28 343.24 L 712.75 341.92 L 714.22 342.16 L 715.69 341.54 L 717.17 342.33 L 718.64 342.33 L 720.11 344.83 L 721.58 344.77 L 723.06 339.10 L 724.53 325.13 L 726.00 332.35 L 727.47 352.52 L 728.94 361.59 L 730.42 373.04 L 731.89 361.34 L 733.36 368.40 L 734.83 364.76 L 736.31 357.38 L 737.78 336.25 L 739.25 361.41 L 740.72 379.61 L 742.19 381.61 L 743.67 381.96 L 745.14 376.89 L 746.61 380.13 L 748.08 385.48 L 749.56 384.37 L 751.03 379.27 L 752.50 375.75 L 753.97 370.28 L 755.44 360.02 L 756.92 361.59 L 758.39 364.44 L 759.86 361.14 L 761.33 363.19" stroke="#2E7D32" />
<path class="series" d="M 178.33 402.24 L 179.81 400.43 L 181.28 404.24 L 182.75 401.94 L 184.22 401.36 L 185.69 400.10 L 187.17 400.84 L 188.64 397.16 L 190.11 401.19 L 191.58 394.00 L 193.06 398.53 L 194.53 401.78 L 196.00 402.59 L 197.47 403.19 L 198.94 400.27 L 200.42 403.98 L 201.89 407.53 L 203.36 402.89 L 204.83 401.64 L 206.31 399.89 L 207.78 400.02 L 209.25 398.71 L 210.72 402.90 L 212.19 402.31 L 213.67 407.12 L 215.14 403.26 L 216.61 400.08 L 218.08 399.91 L 219.56 401.35 L 221.03 400.08 L 222.50 404.56 L 223.97 403.07 L 225.44 406.44 L 226.92 405.05 L 228.39 406.48 L 229.86 406.60 L 231.33 406.81 L 232.81 406.71 L 234.28 408.67 L 235.75 406.31 L 237.22 407.16 L 238.69 405.48 L 240.17 408.49 L 241.64 413.34 L 243.11 408.12 L 244.58 408.76 L 246.06 415.84 L 247.53 415.31 L 249.00 413.11 L 250.47 418.46 L 251.94 415.50 L 253.42 413.52 L 254.89 417.99 L 256.36 407.07 L 257.83 414.95 L 259.31 405.14 L 260.78 404.65 L 262.25 414.69 L 263.72 416.93 L 265.19 406.63 L 266.67 417.09 L 268.14 413.90 L 269.61 413.18 L 271.08 411.52 L 272.56 410.33 L 274.03 414.45 L 275.50 412.00 L 276.97 412.31 L 278.44 420.47 L 279.92 421.25 L 281.39 425.05 L 282.86 428.47 L 284.33 439.73 L 285.81 416.71 L 287.28 414.86 L 288.75 411.28 L 290.22 409.50 L 291.69 421.36 L 293.17 415.99 L 294.64 417.59 L 296.11 415.11 L 297.58 405.03 L 299.06 402.26 L 300.53 401.48 L 302.00 407.37 L 303.47 394.99 L 304.94 400.38 L 306.42 395.28 L 307.89 396.38 L 309.36 393.70 L 310.83 393.70 L 312.31 386.59 L 313.78 393.93 L 315.25 387.66 L 316.72 399.60 L 318.19 401.29 L 319.67 405.74 L 321.14 406.04 L 322.61 407.36 L 324.08 408.64 L 325.56 412.97 L 327.03 392.33 L 328.50 404.32 L 329.97 397.20 L 331.44 405.41 L 332.92 402.17 L 334.39 408.85 L 335.86 403.86 L 337.33 401.82 L 338.81 405.16 L 340.28 407.25 L 341.75 406.19 L 343.22 411.37 L 344.69 420.18 L 346.17 433.82 L 347.64 425.95 L 349.11 426.66 L 350.58 425.79 L 352.06 418.29 L 353.53 428.84 L 355.00 417.98 L 356.47 411.46 L 357.94 403.73 L 359.42 397.91 L 360.89 399.58 L 362.36 411.75 L 363.83 410.93 L 365.31 401.71 L 366.78 407.84 L 368.25 419.13 L 369.72 403.66 L 371.19 404.68 L 372.67 399.80 L 374.14 407.56 L 375.61 405.02 L 377.08 401.12 L 378.56 404.03 L 380.03 402.37 L 381.50 398.03 L 382.97 392.52 L 384.44 408.34 L 385.92 400.87 L 387.39 399.31 L 388.86 403.20 L 390.33 393.42 L 391.81 405.78 L 393.28 405.37 L 394.75 407.44 L 396.22 403.39 L 397.69 405.35 L 399.17 395.79 L 400.64 403.42 L 402.11 396.32 L 403.58 403.03 L 405.06 398.77 L 406.53 407.15 L 408.00 403.82 L 409.47 402.87 L 410.94 401.65 L 412.42 406.87 L 413.89 412.61 L 415.36 413.85 L 416.83 409.99 L 418.31 396.49 L 419.78 396.90 L 421.25 405.85 L 422.72 405.28 L 424.19 402.32 L 425.67 406.12 L 427.14 408.78 L 428.61 407.49 L 430.08 403.92 L 431.56 397.69 L 433.03 401.36 L 434.50 404.22 L 435.97 405.97 L 437.44 396.56 L 438.92 395.00 L 440.39 402.29 L 441.86 401.09 L 443.33 402.84 L 444.81 402.91 L 446.28 402.81 L 447.75 401.90 L 449.22 401.41 L 450.69 400.31 L 452.17 401.57 L 453.64 401.99 L 455.11 401.23 L 456.58 401.28 L 458.06 401.79 L 459.53 401.64 L 461.00 401.27 L 462.47 401.47 L 463.94 401.70 L 465.42 400.86 L 466.89 403.02 L 468.36 400.29 L 469.83 401.51 L 471.31 401.65 L 472.78 401.62 L 474.25 401.04 L 475.72 401.93 L 477.19 402.10 L 478.67 401.39 L 480.14 401.46 L 481.61 401.90 L 483.08 401.30 L 484.56 401.21 L 486.03 401.33 L 487.50 401.73 L 488.97 401.39 L 490.44 402.06 L 491.92 402.36 L 493.39 401.10 L 494.86 402.22 L 496.33 398.35 L 497.81 400.42 L 499.28 401.39 L 500.75 411.81 L 502.22 401.69 L 503.69 403.69 L 505.17 403.97 L 506.64 392.45 L 508.11 400.18 L 509.58 393.31 L 511.06 413.26 L 512.53 413.62 L 514.00 403.20 L 515.47 404.60 L 516.94 404.31 L 518.42 404.08 L 519.89 403.96 L 521.36 403.03 L 522.83 392.79 L 524.31 413.19 L 525.78 408.72 L 527.25 406.76 L 528.72 404.29 L 530.19 406.58 L 531.67 404.98 L 533.14 406.26 L 534.61 405.47 L 536.08 406.37 L 537.56 403.65 L 539.03 395.92 L 540.50 399.66 L 541.97 404.73 L 543.44 405.64 L 544.92 405.85 L 546.39 413.57 L 547.86 412.36 L 549.33 416.94 L 550.81 411.93 L 552.28 416.18 L 553.75 424.08 L 555.22 429.57 L 556.69 425.77 L 558.17 428.22 L 559.64 442.15 L 561.11 438.44 L 562.58 427.42 L 564.06 414.35 L 565.53 411.08 L 567.00 418.15 L 568.47 407.09 L 569.94 394.52 L 571.42 401.79 L 572.89 400.05 L 574.36 401.11 L 575.83 408.69 L 577.31 400.02 L 578.78 402.51 L 580.25 400.20 L 581.72 392.86 L 583.19 399.36 L 584.67 394.16 L 586.14 386.47 L 587.61 402.99 L 589.08 422.19 L 590.56 406.80 L 592.03 395.24 L 593.50 412.10 L 594.97 393.83 L 596.44 403.21 L 597.92 406.96 L 599.39 404.98 L 600.86 407.77 L 602.33 407.77 L 603.81 408.15 L 605.28 392.38 L 606.75 408.64 L 608.22 393.43 L 609.69 410.44 L 611.17 397.13 L 612.64 404.22 L 614.11 391.77 L 615.58 400.35 L 617.06 407.17 L 618.53 410.10 L 620.00 407.96 L 621.47 420.94 L 622.94 418.03 L 624.42 394.60 L 625.89 414.71 L 627.36 405.57 L 628.83 415.39 L 630.31 416.51 L 631.78 413.51 L 633.25 411.09 L 634.72 415.00 L 636.19 416.35 L 637.67 414.88 L 639.14 411.76 L 640.61 410.79 L 642.08 408.28 L 643.56 409.00 L 645.03 410.45 L 646.50 415.65 L 647.97 415.12 L 649.44 411.01 L 650.92 415.23 L 652.39 415.79 L 653.86 429.34 L 655.33 418.30 L 656.81 424.96 L 658.28 426.23 L 659.75 394.15 L 661.22 398.95 L 662.69 413.18 L 664.17 407.37 L 665.64 406.84 L 667.11 412.41 L 668.58 407.82 L 670.06 412.26 L 671.53 411.02 L 673.00 417.50 L 674.47 413.85 L 675.94 417.99 L 677.42 417.63 L 678.89 410.24 L 680.36 420.29 L 681.83 421.10 L 683.31 411.35 L 684.78 410.43 L 686.25 409.09 L 687.72 411.98 L 689.19 411.82 L 690.67 412.70 L 692.14 401.33 L 693.61 405.19 L 695.08 405.09 L 696.56 412.61 L 698.03 404.62 L 699.50 404.02 L 700.97 401.85 L 702.44 402.50 L 703.92 405.72 L 705.39 406.33 L 706.86 399.16 L 708.33 402.40 L 709.81 408.36 L 711.28 419.45 L 712.75 422.81 L 714.22 426.00 L 715.69 429.34 L 717.17 430.17 L 718.64 438.15 L 720.11 443.21 L 721.58 430.15 L 723.06 440.16 L 724.53 436.95 L 726.00 429.66 L 727.47 416.17 L 728.94 413.10 L 730.42 384.71 L 731.89 380.99 L 733.36 386.47 L 734.83 374.49 L 736.31 367.37 L 737.78 355.60 L 739.25 392.84 L 740.72 425.80 L 742.19 425.32 L 743.67 429.75 L 745.14 429.24 L 746.61 413.92 L 748.08 426.88 L 749.56 425.65 L 751.03 426.48 L 752.50 415.91 L 753.97 413.13 L 755.44 417.58 L 756.92 407.57 L 758.39 401.39 L 759.86 405.81 L 761.33 402.94" stroke="#6A1B9A" />
<line x1="900.00" y1="307.75" x2="918.00" y2="307.75" stroke="#2E7D32" stroke-width="3" />
<text class="small" x="924.00" y="311.75">pitch</text>
<line x1="900.00" y1="323.75" x2="918.00" y2="323.75" stroke="#6A1B9A" stroke-width="3" />
<text class="small" x="924.00" y="327.75">roll</text>
<text x="90" y="500.50" font-size="14" font-weight="700">Aceleração (magnitude) (u.a.)</text>
<rect class="event" x="443.33" y="506.50" width="53.00" height="192.75" />
<line class="eventline" x1="443.33" y1="506.50" x2="443.33" y2="699.25" />
<line class="eventline" x1="496.33" y1="506.50" x2="496.33" y2="699.25" />
<line class="grid" x1="90" y1="699.25" x2="1150" y2="699.25" />
<text class="small" x="80" y="703.25" text-anchor="end">0.00</text>
<line class="grid" x1="90" y1="660.70" x2="1150" y2="660.70" />
<text class="small" x="80" y="664.70" text-anchor="end">0.50</text>
<line class="grid" x1="90" y1="622.15" x2="1150" y2="622.15" />
<text class="small" x="80" y="626.15" text-anchor="end">1.00</text>
<line class="grid" x1="90" y1="583.60" x2="1150" y2="583.60" />
<text class="small" x="80" y="587.60" text-anchor="end">1.50</text>
<line class="grid" x1="90" y1="545.05" x2="1150" y2="545.05" />
<text class="small" x="80" y="549.05" text-anchor="end">2.00</text>
<line class="grid" x1="90" y1="506.50" x2="1150" y2="506.50" />
<text class="small" x="80" y="510.50" text-anchor="end">2.50</text>
<line class="grid" x1="90.00" y1="506.50" x2="90.00" y2="699.25" />
<line class="grid" x1="266.67" y1="506.50" x2="266.67" y2="699.25" />
<line class="grid" x1="443.33" y1="506.50" x2="443.33" y2="699.25" />
<line class="grid" x1="620.00" y1="506.50" x2="620.00" y2="699.25" />
<line class="grid" x1="796.67" y1="506.50" x2="796.67" y2="699.25" />
<line class="grid" x1="973.33" y1="506.50" x2="973.33" y2="699.25" />
<line class="grid" x1="1150.00" y1="506.50" x2="1150.00" y2="699.25" />
<line class="axis" x1="90" y1="506.50" x2="90" y2="699.25" />
<line class="axis" x1="90" y1="699.25" x2="1150" y2="699.25" />
<path class="series" d="M 178.33 691.82 L 179.81 693.05 L 181.28 689.72 L 182.75 685.29 L 184.22 689.93 L 185.69 689.54 L 187.17 693.65 L 188.64 687.18 L 190.11 693.22 L 191.58 692.74 L 193.06 689.59 L 194.53 694.54 L 196.00 694.76 L 197.47 694.76 L 198.94 690.66 L 200.42 693.77 L 201.89 681.65 L 203.36 696.21 L 204.83 688.12 L 206.31 691.09 L 207.78 685.48 L 209.25 692.61 L 210.72 694.76 L 212.19 690.80 L 213.67 690.33 L 215.14 687.67 L 216.61 693.83 L 218.08 689.32 L 219.56 694.75 L 221.03 692.45 L 222.50 685.81 L 223.97 684.77 L 225.44 693.27 L 226.92 696.95 L 228.39 690.67 L 229.86 693.91 L 231.33 691.91 L 232.81 690.94 L 234.28 690.78 L 235.75 691.23 L 237.22 692.69 L 238.69 698.46 L 240.17 691.42 L 241.64 691.04 L 243.11 682.49 L 244.58 674.01 L 246.06 676.13 L 247.53 691.68 L 249.00 680.25 L 250.47 694.59 L 251.94 687.55 L 253.42 676.54 L 254.89 685.58 L 256.36 669.90 L 257.83 675.01 L 259.31 682.58 L 260.78 692.17 L 262.25 670.14 L 263.72 655.98 L 265.19 680.66 L 266.67 665.28 L 268.14 651.11 L 269.61 662.08 L 271.08 670.31 L 272.56 680.40 L 274.03 653.45 L 275.50 646.19 L 276.97 676.38 L 278.44 647.12 L 279.92 684.24 L 281.39 646.86 L 282.86 679.55 L 284.33 603.56 L 285.81 613.75 L 287.28 647.90 L 288.75 682.83 L 290.22 681.24 L 291.69 675.29 L 293.17 660.89 L 294.64 659.44 L 296.11 676.11 L 297.58 676.51 L 299.06 683.95 L 300.53 693.72 L 302.00 673.45 L 303.47 695.33 L 304.94 660.57 L 306.42 685.68 L 307.89 671.73 L 309.36 679.76 L 310.83 657.32 L 312.31 670.61 L 313.78 677.78 L 315.25 682.36 L 316.72 674.53 L 318.19 680.80 L 319.67 688.11 L 321.14 676.36 L 322.61 676.66 L 324.08 686.61 L 325.56 649.55 L 327.03 672.17 L 328.50 637.90 L 329.97 671.11 L 331.44 670.68 L 332.92 683.61 L 334.39 668.32 L 335.86 682.22 L 337.33 682.04 L 338.81 682.96 L 340.28 693.78 L 341.75 685.80 L 343.22 689.02 L 344.69 650.99 L 346.17 674.54 L 347.64 666.07 L 349.11 667.69 L 350.58 678.86 L 352.06 667.01 L 353.53 670.68 L 355.00 638.80 L 356.47 645.53 L 357.94 648.46 L 359.42 674.61 L 360.89 651.14 L 362.36 671.17 L 363.83 671.17 L 365.31 681.21 L 366.78 682.95 L 368.25 672.18 L 369.72 674.14 L 371.19 685.99 L 372.67 682.53 L 374.14 690.23 L 375.61 695.78 L 377.08 692.75 L 378.56 683.54 L 380.03 682.59 L 381.50 694.85 L 382.97 675.56 L 384.44 666.52 L 385.92 696.21 L 387.39 686.24 L 388.86 680.81 L 390.33 678.94 L 391.81 678.02 L 393.28 681.34 L 394.75 696.39 L 396.22 691.62 L 397.69 694.47 L 399.17 684.44 L 400.64 686.26 L 402.11 690.66 L 403.58 692.13 L 405.06 690.72 L 406.53 682.27 L 408.00 695.61 L 409.47 688.45 L 410.94 670.42 L 412.42 674.24 L 413.89 672.12 L 415.36 658.82 L 416.83 652.05 L 418.31 637.25 L 419.78 669.58 L 421.25 664.98 L 422.72 690.26 L 424.19 668.26 L 425.67 681.18 L 427.14 682.17 L 428.61 690.23 L 430.08 687.30 L 431.56 687.12 L 433.03 695.52 L 434.50 684.90 L 435.97 687.28 L 437.44 683.56 L 438.92 691.71 L 440.39 688.22 L 441.86 694.34 L 443.33 682.12 L 444.81 694.44 L 446.28 695.81 L 447.75 685.18 L 449.22 689.50 L 450.69 686.92 L 452.17 691.87 L 453.64 697.81 L 455.11 698.01 L 456.58 698.33 L 458.06 697.51 L 459.53 697.81 L 461.00 697.94 L 462.47 698.37 L 463.94 698.69 L 465.42 697.37 L 466.89 695.53 L 468.36 694.57 L 469.83 695.69 L 471.31 697.33 L 472.78 698.24 L 474.25 691.23 L 475.72 693.19 L 477.19 695.31 L 478.67 696.10 L 480.14 698.18 L 481.61 697.12 L 483.08 698.60 L 484.56 698.26 L 486.03 697.04 L 487.50 694.77 L 488.97 694.13 L 490.44 692.57 L 491.92 697.32 L 493.39 696.60 L 494.86 680.48 L 496.33 676.26 L 497.81 673.42 L 499.28 586.80 L 500.75 662.50 L 502.22 688.49 L 503.69 696.48 L 505.17 697.00 L 506.64 639.42 L 508.11 696.29 L 509.58 665.20 L 511.06 602.70 L 512.53 672.22 L 514.00 683.14 L 515.47 686.14 L 516.94 690.20 L 518.42 694.34 L 519.89 698.02 L 521.36 682.12 L 522.83 648.98 L 524.31 632.34 L 525.78 667.69 L 527.25 673.92 L 528.72 684.55 L 530.19 685.93 L 531.67 696.85 L 533.14 697.24 L 534.61 697.24 L 536.08 697.09 L 537.56 696.83 L 539.03 680.08 L 540.50 659.02 L 541.97 691.03 L 543.44 686.30 L 544.92 686.54 L 546.39 676.58 L 547.86 678.13 L 549.33 672.60 L 550.81 671.78 L 552.28 647.50 L 553.75 687.59 L 555.22 655.16 L 556.69 673.11 L 558.17 675.07 L 559.64 631.83 L 561.11 650.80 L 562.58 649.72 L 564.06 637.14 L 565.53 653.64 L 567.00 655.48 L 568.47 665.31 L 569.94 657.08 L 571.42 656.51 L 572.89 669.60 L 574.36 663.91 L 575.83 677.54 L 577.31 673.23 L 578.78 662.87 L 580.25 664.76 L 581.72 641.55 L 583.19 654.08 L 584.67 663.57 L 586.14 676.30 L 587.61 657.04 L 589.08 665.60 L 590.56 633.83 L 592.03 661.92 L 593.50 641.20 L 594.97 651.12 L 596.44 684.71 L 597.92 686.69 L 599.39 673.22 L 600.86 685.92 L 602.33 668.37 L 603.81 673.83 L 605.28 617.37 L 606.75 633.55 L 608.22 666.07 L 609.69 656.56 L 611.17 686.71 L 612.64 681.10 L 614.11 686.56 L 615.58 683.89 L 617.06 673.20 L 618.53 672.58 L 620.00 666.40 L 621.47 666.29 L 622.94 658.77 L 624.42 664.08 L 625.89 662.33 L 627.36 661.72 L 628.83 657.60 L 630.31 678.90 L 631.78 691.01 L 633.25 682.35 L 634.72 683.68 L 636.19 662.76 L 637.67 690.93 L 639.14 686.70 L 640.61 651.68 L 642.08 633.81 L 643.56 671.04 L 645.03 673.02 L 646.50 668.54 L 647.97 665.58 L 649.44 673.73 L 650.92 692.47 L 652.39 666.31 L 653.86 665.72 L 655.33 678.88 L 656.81 670.48 L 658.28 648.90 L 659.75 641.29 L 661.22 686.29 L 662.69 690.39 L 664.17 688.26 L 665.64 680.84 L 667.11 686.44 L 668.58 692.71 L 670.06 693.32 L 671.53 692.70 L 673.00 686.34 L 674.47 686.95 L 675.94 667.60 L 677.42 660.05 L 678.89 679.19 L 680.36 680.42 L 681.83 684.14 L 683.31 683.73 L 684.78 688.07 L 686.25 686.53 L 687.72 683.35 L 689.19 669.10 L 690.67 672.77 L 692.14 674.45 L 693.61 690.66 L 695.08 692.04 L 696.56 690.56 L 698.03 686.57 L 699.50 685.42 L 700.97 685.42 L 702.44 687.19 L 703.92 688.65 L 705.39 692.56 L 706.86 687.55 L 708.33 683.34 L 709.81 691.92 L 711.28 660.97 L 712.75 664.10 L 714.22 670.63 L 715.69 657.22 L 717.17 653.29 L 718.64 651.69 L 720.11 642.73 L 721.58 651.39 L 723.06 635.19 L 724.53 604.56 L 726.00 640.91 L 727.47 619.50 L 728.94 639.75 L 730.42 625.25 L 731.89 557.92 L 733.36 623.02 L 734.83 621.46 L 736.31 596.57 L 737.78 537.06 L 739.25 642.25 L 740.72 581.55 L 742.19 595.57 L 743.67 596.91 L 745.14 621.43 L 746.61 676.52 L 748.08 677.69 L 749.56 680.48 L 751.03 675.13 L 752.50 675.32 L 753.97 687.45 L 755.44 656.64 L 756.92 656.00 L 758.39 677.38 L 759.86 679.48 L 761.33 686.32" stroke="#FB8C00" />
<text x="90" y="711.25" font-size="14" font-weight="700">Giroscópio (magnitude) (u.a.)</text>
<rect class="event" x="443.33" y="717.25" width="53.00" height="192.75" />
<line class="eventline" x1="443.33" y1="717.25" x2="443.33" y2="910.00" />
<line class="eventline" x1="496.33" y1="717.25" x2="496.33" y2="910.00" />
<line class="grid" x1="90" y1="910.00" x2="1150" y2="910.00" />
<text class="small" x="80" y="914.00" text-anchor="end">0.00</text>
<line class="grid" x1="90" y1="871.45" x2="1150" y2="871.45" />
<text class="small" x="80" y="875.45" text-anchor="end">0.10</text>
<line class="grid" x1="90" y1="832.90" x2="1150" y2="832.90" />
<text class="small" x="80" y="836.90" text-anchor="end">0.20</text>
<line class="grid" x1="90" y1="794.35" x2="1150" y2="794.35" />
<text class="small" x="80" y="798.35" text-anchor="end">0.30</text>
<line class="grid" x1="90" y1="755.80" x2="1150" y2="755.80" />
<text class="small" x="80" y="759.80" text-anchor="end">0.40</text>
<line class="grid" x1="90" y1="717.25" x2="1150" y2="717.25" />
<text class="small" x="80" y="721.25" text-anchor="end">0.50</text>
<line class="grid" x1="90.00" y1="717.25" x2="90.00" y2="910.00" />
<line class="grid" x1="266.67" y1="717.25" x2="266.67" y2="910.00" />
<line class="grid" x1="443.33" y1="717.25" x2="443.33" y2="910.00" />
<line class="grid" x1="620.00" y1="717.25" x2="620.00" y2="910.00" />
<line class="grid" x1="796.67" y1="717.25" x2="796.67" y2="910.00" />
<line class="grid" x1="973.33" y1="717.25" x2="973.33" y2="910.00" />
<line class="grid" x1="1150.00" y1="717.25" x2="1150.00" y2="910.00" />
<line class="axis" x1="90" y1="717.25" x2="90" y2="910.00" />
<line class="axis" x1="90" y1="910.00" x2="1150" y2="910.00" />
<path class="series" d="M 178.33 905.75 L 179.81 906.98 L 181.28 904.37 L 182.75 909.32 L 184.22 908.42 L 185.69 906.38 L 187.17 906.85 L 188.64 906.49 L 190.11 907.85 L 191.58 904.91 L 193.06 907.17 L 194.53 907.43 L 196.00 904.88 L 197.47 904.88 L 198.94 907.27 L 200.42 904.77 L 201.89 908.33 L 203.36 904.05 L 204.83 905.88 L 206.31 906.86 L 207.78 907.72 L 209.25 908.55 L 210.72 904.11 L 212.19 905.45 L 213.67 906.34 L 215.14 906.99 L 216.61 905.67 L 218.08 907.59 L 219.56 905.45 L 221.03 905.30 L 222.50 905.36 L 223.97 908.03 L 225.44 906.54 L 226.92 904.13 L 228.39 905.02 L 229.86 902.32 L 231.33 898.72 L 232.81 898.36 L 234.28 898.87 L 235.75 899.81 L 237.22 899.98 L 238.69 898.60 L 240.17 899.11 L 241.64 903.40 L 243.11 897.84 L 244.58 899.64 L 246.06 903.77 L 247.53 898.29 L 249.00 903.44 L 250.47 899.42 L 251.94 906.96 L 253.42 900.56 L 254.89 904.15 L 256.36 901.80 L 257.83 899.35 L 259.31 893.67 L 260.78 898.71 L 262.25 895.09 L 263.72 899.81 L 265.19 897.75 L 266.67 895.52 L 268.14 896.44 L 269.61 896.27 L 271.08 896.51 L 272.56 892.94 L 274.03 892.00 L 275.50 888.68 L 276.97 889.34 L 278.44 886.57 L 279.92 885.25 L 281.39 870.95 L 282.86 873.11 L 284.33 849.84 L 285.81 870.47 L 287.28 892.77 L 288.75 893.04 L 290.22 893.71 L 291.69 876.90 L 293.17 871.69 L 294.64 878.89 L 296.11 881.35 L 297.58 880.84 L 299.06 884.38 L 300.53 881.06 L 302.00 882.38 L 303.47 882.27 L 304.94 880.72 L 306.42 888.36 L 307.89 878.77 L 309.36 897.55 L 310.83 897.94 L 312.31 891.61 L 313.78 893.73 L 315.25 893.18 L 316.72 897.94 L 318.19 901.38 L 319.67 896.17 L 321.14 902.43 L 322.61 898.36 L 324.08 901.67 L 325.56 883.71 L 327.03 884.09 L 328.50 887.97 L 329.97 892.24 L 331.44 896.37 L 332.92 892.98 L 334.39 895.58 L 335.86 890.26 L 337.33 893.57 L 338.81 892.32 L 340.28 898.53 L 341.75 906.07 L 343.22 894.94 L 344.69 871.37 L 346.17 857.39 L 347.64 851.98 L 349.11 850.10 L 350.58 831.27 L 352.06 826.43 L 353.53 817.37 L 355.00 822.73 L 356.47 850.18 L 357.94 873.08 L 359.42 887.53 L 360.89 901.46 L 362.36 902.87 L 363.83 902.87 L 365.31 906.05 L 366.78 906.92 L 368.25 902.99 L 369.72 897.06 L 371.19 890.04 L 372.67 894.13 L 374.14 892.51 L 375.61 894.28 L 377.08 894.25 L 378.56 896.46 L 380.03 894.53 L 381.50 887.80 L 382.97 896.03 L 384.44 887.19 L 385.92 887.48 L 387.39 875.74 L 388.86 865.37 L 390.33 871.10 L 391.81 870.24 L 393.28 876.19 L 394.75 871.82 L 396.22 869.75 L 397.69 868.92 L 399.17 871.60 L 400.64 884.99 L 402.11 889.60 L 403.58 897.89 L 405.06 905.60 L 406.53 908.18 L 408.00 908.29 L 409.47 909.48 L 410.94 901.05 L 412.42 904.95 L 413.89 902.31 L 415.36 878.27 L 416.83 866.14 L 418.31 882.66 L 419.78 903.75 L 421.25 907.81 L 422.72 908.16 L 424.19 906.65 L 425.67 906.54 L 427.14 901.22 L 428.61 889.60 L 430.08 884.17 L 431.56 893.85 L 433.03 898.88 L 434.50 898.29 L 435.97 887.67 L 437.44 889.56 L 438.92 900.06 L 440.39 904.92 L 441.86 907.85 L 443.33 907.99 L 444.81 909.05 L 446.28 907.54 L 447.75 909.32 L 449.22 908.06 L 450.69 909.10 L 452.17 908.17 L 453.64 908.99 L 455.11 909.11 L 456.58 909.27 L 458.06 909.26 L 459.53 909.15 L 461.00 909.22 L 462.47 909.29 L 463.94 909.21 L 465.42 909.10 L 466.89 908.73 L 468.36 908.71 L 469.83 909.20 L 471.31 909.12 L 472.78 909.24 L 474.25 908.99 L 475.72 909.39 L 477.19 909.23 L 478.67 909.24 L 480.14 909.29 L 481.61 908.94 L 483.08 909.26 L 484.56 909.16 L 486.03 909.23 L 487.50 909.18 L 488.97 908.50 L 490.44 909.27 L 491.92 909.22 L 493.39 909.08 L 494.86 906.14 L 496.33 900.35 L 497.81 897.44 L 499.28 895.28 L 500.75 905.43 L 502.22 909.36 L 503.69 909.02 L 505.17 908.85 L 506.64 896.13 L 508.11 877.37 L 509.58 868.41 L 511.06 873.88 L 512.53 904.56 L 514.00 908.81 L 515.47 908.84 L 516.94 909.11 L 518.42 908.82 L 519.89 908.78 L 521.36 908.63 L 522.83 889.76 L 524.31 888.77 L 525.78 908.48 L 527.25 909.08 L 528.72 908.56 L 530.19 909.10 L 531.67 908.96 L 533.14 909.03 L 534.61 909.03 L 536.08 908.99 L 537.56 908.97 L 539.03 906.36 L 540.50 888.13 L 541.97 870.48 L 543.44 866.61 L 544.92 868.30 L 546.39 884.42 L 547.86 897.15 L 549.33 901.23 L 550.81 892.87 L 552.28 879.85 L 553.75 873.31 L 555.22 876.12 L 556.69 881.78 L 558.17 871.78 L 559.64 869.68 L 561.11 853.60 L 562.58 839.10 L 564.06 839.99 L 565.53 852.82 L 567.00 887.12 L 568.47 894.50 L 569.94 903.31 L 571.42 888.47 L 572.89 873.35 L 574.36 870.43 L 575.83 873.92 L 577.31 885.96 L 578.78 874.55 L 580.25 870.80 L 581.72 853.11 L 583.19 839.94 L 584.67 846.99 L 586.14 859.83 L 587.61 858.93 L 589.08 874.76 L 590.56 905.30 L 592.03 903.72 L 593.50 887.43 L 594.97 870.71 L 596.44 881.02 L 597.92 887.50 L 599.39 889.49 L 600.86 890.29 L 602.33 888.45 L 603.81 886.00 L 605.28 881.61 L 606.75 874.60 L 608.22 878.71 L 609.69 881.60 L 611.17 889.60 L 612.64 896.87 L 614.11 890.84 L 615.58 884.13 L 617.06 892.35 L 618.53 900.36 L 620.00 906.31 L 621.47 901.62 L 622.94 903.50 L 624.42 891.34 L 625.89 902.73 L 627.36 897.41 L 628.83 896.92 L 630.31 898.75 L 631.78 903.31 L 633.25 898.68 L 634.72 898.29 L 636.19 899.92 L 637.67 904.36 L 639.14 907.01 L 640.61 901.30 L 642.08 904.84 L 643.56 905.86 L 645.03 902.14 L 646.50 900.95 L 647.97 903.64 L 649.44 901.43 L 650.92 897.73 L 652.39 896.98 L 653.86 889.39 L 655.33 895.86 L 656.81 892.70 L 658.28 900.80 L 659.75 880.78 L 661.22 894.08 L 662.69 903.11 L 664.17 894.43 L 665.64 907.27 L 667.11 905.06 L 668.58 902.51 L 670.06 901.76 L 671.53 903.39 L 673.00 905.18 L 674.47 895.69 L 675.94 907.99 L 677.42 904.72 L 678.89 898.09 L 680.36 903.83 L 681.83 895.92 L 683.31 903.57 L 684.78 902.80 L 686.25 896.49 L 687.72 896.98 L 689.19 905.43 L 690.67 902.66 L 692.14 893.60 L 693.61 895.94 L 695.08 901.33 L 696.56 904.51 L 698.03 900.75 L 699.50 903.03 L 700.97 903.03 L 702.44 903.69 L 703.92 902.17 L 705.39 904.39 L 706.86 896.65 L 708.33 902.62 L 709.81 904.00 L 711.28 899.66 L 712.75 888.48 L 714.22 884.34 L 715.69 874.90 L 717.17 864.91 L 718.64 858.34 L 720.11 846.18 L 721.58 855.24 L 723.06 840.65 L 724.53 822.60 L 726.00 837.32 L 727.47 853.11 L 728.94 886.21 L 730.42 894.26 L 731.89 873.07 L 733.36 855.68 L 734.83 846.33 L 736.31 812.93 L 737.78 782.13 L 739.25 779.54 L 740.72 875.30 L 742.19 875.25 L 743.67 860.95 L 745.14 839.39 L 746.61 849.98 L 748.08 877.87 L 749.56 879.52 L 751.03 878.50 L 752.50 894.36 L 753.97 893.75 L 755.44 899.74 L 756.92 898.23 L 758.39 906.31 L 759.86 904.15 L 761.33 904.26" stroke="#E53935" />
<text x="620.00" y="952" font-size="15" text-anchor="middle">minutos (relativo ao início do evento)</text>
<text class="small" x="90.00" y="936" text-anchor="middle">-4.00</text>
<text class="small" x="266.67" y="936" text-anchor="middle">-2.00</text>
<text class="small" x="443.33" y="936" text-anchor="middle">0.00</text>
<text class="small" x="620.00" y="936" text-anchor="middle">2.00</text>
<text class="small" x="796.67" y="936" text-anchor="middle">4.00</text>
<text class="small" x="973.33" y="936" text-anchor="middle">6.00</text>
<text class="small" x="1150.00" y="936" text-anchor="middle">8.00</text>
</svg>