<?xml version="1.0" encoding="UTF-8"?>
<svg xmlns="http://www.w3.org/2000/svg" width="1180" height="980" viewBox="0 0 1180 980">
<style>
text { font-family: -apple-system, BlinkMacSystemFont, 'Segoe UI', Roboto, Helvetica, Arial, sans-serif; fill: #111; }
.small { font-size: 12px; fill: #222; }
.title { font-size: 18px; font-weight: 700; }
.axis { stroke: #111; stroke-width: 1.4; }
.grid { stroke: #E6E6E6; stroke-width: 1; }
.event { fill: #FFEB3B; fill-opacity: 0.18; }
.eventline { stroke: #F9A825; stroke-width: 1.2; stroke-dasharray: 4 3; }
.series { fill: none; stroke-width: 1.8; }
</style>
<text class="title" x="90" y="34">ciclo 13 — carregamento — 2025-12-13T01:46:14-03:00 → 2025-12-13T01:50:07-03:00 (span 233s, dur 234s)</text>
<text class="small" x="90" y="54">GPS: -11.699196,-47.157579  hotspot: -11.699,-47.158</text>
<text class="small" x="90" y="70">Janela: -3.00 → 6.88 min (relativo ao início do evento)</text>
<text x="90" y="79.00" font-size="14" font-weight="700">Velocidade (km/h)</text>
<rect class="event" x="443.33" y="85.00" width="343.03" height="192.75" />
<line class="eventline" x1="443.33" y1="85.00" x2="443.33" y2="277.75" />
<line class="eventline" x1="786.36" y1="85.00" x2="786.36" y2="277.75" />
<line class="grid" x1="90" y1="277.75" x2="1150" y2="277.75" />
<text class="small" x="80" y="281.75" text-anchor="end">0.00</text>
<line class="grid" x1="90" y1="239.20" x2="1150" y2="239.20" />
<text class="small" x="80" y="243.20" text-anchor="end">5.00</text>
<line class="grid" x1="90" y1="200.65" x2="1150" y2="200.65" />
<text class="small" x="80" y="204.65" text-anchor="end">10.0</text>
<line class="grid" x1="90" y1="162.10" x2="1150" y2="162.10" />
<text class="small" x="80" y="166.10" text-anchor="end">15.0</text>
<line class="grid" x1="90" y1="123.55" x2="1150" y2="123.55" />
<text class="small" x="80" y="127.55" text-anchor="end">20.0</text>
<line class="grid" x1="90" y1="85.00" x2="1150" y2="85.00" />
<text class="small" x="80" y="89.00" text-anchor="end">25.0</text>
<line class="grid" x1="90.00" y1="85.00" x2="90.00" y2="277.75" />
<line class="grid" x1="266.67" y1="85.00" x2="266.67" y2="277.75" />
<line class="grid" x1="443.33" y1="85.00" x2="443.33" y2="277.75" />
<line class="grid" x1="620.00" y1="85.00" x2="620.00" y2="277.75" />
<line class="grid" x1="796.67" y1="85.00" x2="796.67" y2="277.75" />
<line class="grid" x1="973.33" y1="85.00" x2="973.33" y2="277.75" />
<line class="grid" x1="1150.00" y1="85.00" x2="1150.00" y2="277.75" />
<line class="axis" x1="90" y1="85.00" x2="90" y2="277.75" />
<line class="axis" x1="90" y1="277.75" x2="1150" y2="277.75" />
<path class="series" d="M 178.33 277.75 L 179.81 277.75 L 181.28 277.75 L 182.75 277.75 L 184.22 277.75 L 185.69 277.75 L 187.17 277.75 L 188.64 277.75 L 190.11 277.75 L 191.58 277.75 L 193.06 277.75 L 194.53 277.75 L 196.00 277.75 L 197.47 277.75 L 198.94 277.75 L 200.42 277.75 L 201.89 277.75 L 203.36 277.75 L 204.83 277.75 L 206.31 277.75 L 207.78 277.75 L 209.25 277.75 L 210.72 277.75 L 212.19 277.75 L 213.67 277.75 L 215.14 277.75 L 216.61 277.75 L 218.08 277.75 L 219.56 277.75 L 221.03 277.75 L 222.50 277.75 L 223.97 277.75 L 225.44 277.75 L 226.92 277.75 L 228.39 277.75 L 229.86 277.75 L 231.33 277.75 L 232.81 277.75 L 234.28 277.75 L 235.75 277.75 L 237.22 277.75 L 238.69 277.75 L 240.17 277.75 L 241.64 277.75 L 243.11 277.75 L 244.58 277.75 L 246.06 277.75 L 247.53 277.75 L 249.00 277.75 L 250.47 277.75 L 251.94 277.75 L 253.42 277.75 L 254.89 277.75 L 256.36 277.75 L 257.83 277.75 L 259.31 277.75 L 260.78 277.75 L 262.25 277.75 L 263.72 277.75 L 265.19 277.75 L 266.67 277.75 L 268.14 277.75 L 269.61 277.75 L 271.08 277.75 L 272.56 277.75 L 274.03 277.75 L 275.50 277.75 L 276.97 277.75 L 278.44 277.75 L 279.92 277.75 L 281.39 277.75 L 282.86 277.75 L 284.33 277.75 L 285.81 277.75 L 287.28 277.75 L 288.75 277.75 L 290.22 277.75 L 291.69 277.75 L 293.17 277.75 L 294.64 277.75 L 296.11 277.75 L 297.58 277.75 L 299.06 277.75 L 300.53 277.75 L 302.00 277.75 L 303.47 277.75 L 304.94 277.75 L 306.42 277.75 L 307.89 277.75 L 309.36 277.75 L 310.83 277.75 L 312.31 277.75 L 313.78 277.75 L 315.25 277.75 L 316.72 277.75 L 318.19 277.75 L 319.67 277.75 L 321.14 277.75 L 322.61 277.75 L 324.08 277.75 L 325.56 277.75 L 327.03 277.75 L 328.50 277.75 L 329.97 277.75 L 331.44 277.75 L 332.92 277.75 L 334.39 277.75 L 335.86 277.75 L 337.33 277.75 L 338.81 277.75 L 340.28 277.75 L 341.75 277.75 L 343.22 277.75 L 344.69 277.75 L 346.17 277.75 L 347.64 277.75 L 349.11 277.75 L 350.58 277.75 L 352.06 277.75 L 353.53 277.75 L 355.00 277.75 L 356.47 277.75 L 357.94 277.75 L 359.42 277.75 L 360.89 277.75 L 362.36 256.38 L 363.83 255.27 L 365.31 247.50 L 366.78 257.49 L 368.25 259.15 L 369.72 264.15 L 371.19 272.20 L 372.67 277.75 L 374.14 277.75 L 375.61 262.48 L 377.08 264.15 L 378.56 263.59 L 380.03 254.99 L 381.50 254.99 L 382.97 242.78 L 384.44 250.55 L 385.92 253.32 L 387.39 253.60 L 388.86 253.88 L 390.33 255.55 L 391.81 259.99 L 393.28 277.75 L 394.75 262.21 L 396.22 229.18 L 397.69 240.00 L 399.17 234.45 L 400.64 226.96 L 402.11 230.01 L 403.58 232.51 L 405.06 234.45 L 406.53 235.28 L 408.00 237.50 L 409.47 251.94 L 410.94 237.78 L 412.42 230.01 L 413.89 242.50 L 415.36 254.99 L 416.83 263.87 L 418.31 277.75 L 419.78 277.75 L 421.25 277.75 L 422.72 277.75 L 424.19 277.75 L 425.67 263.04 L 427.14 263.04 L 428.61 260.54 L 430.08 265.81 L 431.56 277.75 L 433.03 266.93 L 434.50 265.54 L 435.97 264.70 L 437.44 266.37 L 438.92 266.09 L 440.39 267.76 L 441.86 264.70 L 443.33 277.75 L 444.81 277.75 L 446.28 277.75 L 447.75 277.75 L 449.22 277.75 L 450.69 277.75 L 452.17 277.75 L 453.64 277.75 L 455.11 277.75 L 456.58 277.75 L 458.06 277.75 L 459.53 277.75 L 461.00 277.75 L 462.47 277.75 L 463.94 277.75 L 465.42 277.75 L 466.89 277.75 L 468.36 277.75 L 469.83 277.75 L 471.31 277.75 L 472.78 277.75 L 474.25 277.75 L 475.72 277.75 L 477.19 277.75 L 478.67 277.75 L 480.14 277.75 L 481.61 277.75 L 483.08 277.75 L 484.56 277.75 L 486.03 277.75 L 487.50 277.75 L 488.97 277.75 L 490.44 277.75 L 491.92 277.75 L 493.39 277.75 L 494.86 277.75 L 496.33 277.75 L 497.81 277.75 L 499.28 277.75 L 500.75 277.75 L 502.22 277.75 L 503.69 277.75 L 505.17 277.75 L 506.64 277.75 L 508.11 277.75 L 509.58 277.75 L 511.06 277.75 L 512.53 277.75 L 514.00 277.75 L 515.47 277.75 L 516.94 277.75 L 518.42 277.75 L 519.89 277.75 L 521.36 277.75 L 522.83 277.75 L 524.31 277.75 L 525.78 277.75 L 527.25 277.75 L 528.72 277.75 L 530.19 277.75 L 531.67 277.75 L 533.14 277.75 L 534.61 277.75 L 536.08 277.75 L 537.56 277.75 L 539.03 277.75 L 540.50 277.75 L 541.97 277.75 L 543.44 277.75 L 544.92 277.75 L 546.39 277.75 L 547.86 277.75 L 549.33 277.75 L 550.81 277.75 L 552.28 277.75 L 553.75 277.75 L 555.22 277.75 L 556.69 277.75 L 558.17 277.75 L 559.64 277.75 L 561.11 277.75 L 562.58 277.75 L 564.06 277.75 L 565.53 277.75 L 567.00 277.75 L 568.47 277.75 L 569.94 277.75 L 571.42 277.75 L 572.89 277.75 L 574.36 277.75 L 575.83 277.75 L 577.31 277.75 L 578.78 277.75 L 580.25 277.75 L 581.72 277.75 L 583.19 277.75 L 584.67 277.75 L 586.14 277.75 L 587.61 277.75 L 589.08 277.75 L 590.56 277.75 L 592.03 277.75 L 593.50 277.75 L 594.97 277.75 L 596.44 277.75 L 597.92 277.75 L 599.39 277.75 L 600.86 277.75 L 602.33 277.75 L 603.81 277.75 L 605.28 277.75 L 606.75 277.75 L 608.22 277.75 L 609.69 277.75 L 611.17 277.75 L 612.64 277.75 L 614.11 277.75 L 615.58 277.75 L 617.06 277.75 L 618.53 277.75 L 620.00 277.75 L 621.47 277.75 L 622.94 277.75 L 624.42 277.75 L 625.89 277.75 L 627.36 277.75 L 628.83 277.75 L 630.31 277.75 L 631.78 277.75 L 633.25 277.75 L 634.72 277.75 L 636.19 277.75 L 637.67 277.75 L 639.14 277.75 L 640.61 277.75 L 642.08 277.75 L 643.56 277.75 L 645.03 277.75 L 646.50 277.75 L 647.97 277.75 L 649.44 277.75 L 650.92 277.75 L 652.39 277.75 L 653.86 277.75 L 655.33 277.75 L 656.81 277.75 L 658.28 277.75 L 659.75 277.75 L 661.22 277.75 L 662.69 277.75 L 664.17 277.75 L 665.64 277.75 L 667.11 277.75 L 668.58 277.75 L 670.06 277.75 L 671.53 277.75 L 673.00 277.75 L 674.47 277.75 L 675.94 277.75 L 677.42 277.75 L 678.89 277.75 L 680.36 277.75 L 681.83 277.75 L 683.31 277.75 L 684.78 277.75 L 686.25 277.75 L 687.72 277.75 L 689.19 277.75 L 690.67 277.75 L 692.14 277.75 L 693.61 277.75 L 695.08 277.75 L 696.56 277.75 L 698.03 277.75 L 699.50 277.75 L 700.97 277.75 L 702.44 277.75 L 703.92 277.75 L 705.39 277.75 L 706.86 277.75 L 708.33 277.75 L 709.81 277.75 L 711.28 277.75 L 712.75 277.75 L 714.22 277.75 L 715.69 277.75 L 717.17 277.75 L 718.64 277.75 L 720.11 277.75 L 721.58 277.75 L 723.06 277.75 L 724.53 277.75 L 726.00 277.75 L 727.47 277.75 L 728.94 277.75 L 730.42 277.75 L 731.89 277.75 L 733.36 277.75 L 734.83 277.75 L 736.31 277.75 L 737.78 277.75 L 739.25 277.75 L 740.72 277.75 L 742.19 277.75 L 743.67 277.75 L 745.14 277.75 L 746.61 277.75 L 748.08 277.75 L 749.56 277.75 L 751.03 277.75 L 752.50 277.75 L 753.97 277.75 L 755.44 277.75 L 756.92 277.75 L 758.39 277.75 L 759.86 277.75 L 761.33 277.75 L 762.81 277.75 L 764.28 277.75 L 765.75 277.75 L 767.22 277.75 L 768.69 277.75 L 770.17 277.75 L 771.64 277.75 L 773.11 277.75 L 774.58 277.75 L 776.06 277.75 L 777.53 277.75 L 779.00 277.75 L 780.47 277.75 L 781.94 277.75 L 783.42 277.75 L 784.89 277.75 L 786.36 277.75 L 787.83 256.10 L 789.31 251.94 L 790.78 250.55 L 792.25 246.11 L 793.72 252.77 L 795.19 246.94 L 796.67 247.77 L 798.14 242.78 L 799.61 243.89 L 801.08 245.00 L 802.56 236.67 L 804.03 236.12 L 805.50 217.80 L 806.97 206.69 L 808.44 200.31 L 809.92 196.15 L 811.39 189.76 L 812.86 183.10 L 814.33 184.49 L 815.81 173.66 L 817.28 170.33 L 818.75 164.51 L 820.22 158.12 L 821.69 157.29 L 823.17 160.62 L 824.64 174.78 L 826.11 175.61 L 827.58 181.71 L 829.06 195.31 L 830.53 203.64 L 832.00 197.26 L 833.47 195.87 L 834.94 194.48 L 836.42 196.70 L 837.89 194.76 L 839.36 199.20 L 840.83 200.59 L 842.31 191.98 L 843.78 183.10 L 845.25 180.33 L 846.72 169.78 L 848.19 167.00 L 849.67 164.51 L 851.14 153.13 L 852.61 145.35 L 854.08 139.25 L 855.56 136.47 L 857.03 128.70 L 858.50 132.03 L 859.97 137.86 L 861.44 141.19 L 862.92 149.79 L 864.39 148.68 L 865.86 156.46 L 867.33 156.46 L 868.81 158.95 L 870.28 157.01 L 871.75 157.01 L 873.22 152.57 L 874.69 146.74 L 876.17 150.35 L 877.64 157.01 L 879.11 160.90 L 880.58 165.06 L 882.06 180.05 L 883.53 188.65 L 885.00 195.59 L 886.47 210.86 L 887.94 217.24 L 889.42 209.19 L 890.89 207.53 L 892.36 208.92 L 893.83 213.08 L 895.31 211.69 L 896.78 209.47 L 898.25 208.64 L 899.72 210.03 L 901.19 214.74 L 902.67 209.75 L 904.14 202.81 L 905.61 205.31 L 907.08 189.76 L 908.56 206.69 L 910.03 209.47 L 911.50 219.46 L 912.97 225.01 L 914.44 238.61 L 915.92 234.73 L 917.39 231.68 L 918.86 232.23 L 920.33 229.45 L 921.81 222.79 L 923.28 209.75 L 924.75 213.08 L 926.22 213.91 L 927.69 218.91 L 929.17 223.90 L 930.64 226.96 L 932.11 237.50 L 933.58 239.45 L 935.06 242.78 L 936.53 238.89 L 938.00 236.67 L 939.47 230.84 L 940.94 226.96 L 942.42 227.23 L 943.89 223.90 L 945.36 213.91 L 946.83 206.14 L 948.31 201.42 L 949.78 196.15 L 951.25 196.42 L 952.72 190.60 L 954.19 190.04 L 955.67 194.20 L 957.14 197.81 L 958.61 200.59 L 960.08 209.47 L 961.56 213.91 L 963.03 205.31 L 964.50 206.14 L 965.97 205.58 L 967.44 206.42 L 968.92 202.53 L 970.39 201.42 L 971.86 201.42 L 973.33 201.70 L 974.81 201.70 L 976.28 204.47 L 977.75 208.08 L 979.22 220.85 L 980.69 223.35 L 982.17 221.68 L 983.64 222.79 L 985.11 224.74 L 986.58 224.74 L 988.06 223.90 L 989.53 225.57 L 991.00 228.34 L 992.47 228.34 L 993.94 229.73 L 995.42 230.56 L 996.89 231.12 L 998.36 232.23 L 999.83 232.23 L 1001.31 233.62 L 1002.78 233.90 L 1004.25 233.62 L 1005.72 231.12 L 1007.19 228.07 L 1008.67 225.85 L 1010.14 225.85 L 1011.61 224.46 L 1013.08 225.57 L 1014.56 225.85 L 1016.03 224.46 L 1017.50 222.79 L 1018.97 223.07 L 1020.44 222.52 L 1021.92 221.68 L 1023.39 223.07 L 1024.86 224.74 L 1026.33 225.57 L 1027.81 223.35 L 1029.28 220.57 L 1030.75 220.57 L 1032.22 217.52 L 1033.69 217.24 L 1035.17 218.07 L 1036.64 220.02 L 1038.11 224.18 L 1039.58 222.24 L 1041.06 226.68 L 1042.53 227.51 L 1044.00 231.12 L 1045.47 230.01 L 1046.94 229.73 L 1048.42 229.18 L 1049.89 228.62 L 1051.36 226.68" stroke="#1976D2" />
<text x="90" y="289.75" font-size="14" font-weight="700">Inclinação (graus)</text>
<rect class="event" x="443.33" y="295.75" width="343.03" height="192.75" />
<line class="eventline" x1="443.33" y1="295.75" x2="443.33" y2="488.50" />
<line class="eventline" x1="786.36" y1="295.75" x2="786.36" y2="488.50" />
<line class="grid" x1="90" y1="488.50" x2="1150" y2="488.50" />
<text class="small" x="80" y="492.50" text-anchor="end">-20.0</text>
<line class="grid" x1="90" y1="449.95" x2="1150" y2="449.95" />
<text class="small" x="80" y="453.95" text-anchor="end">-10.0</text>
<line class="grid" x1="90" y1="411.40" x2="1150" y2="411.40" />
<text class="small" x="80" y="415.40" text-anchor="end">0.00</text>
<line class="grid" x1="90" y1="372.85" x2="1150" y2="372.85" />
<text class="small" x="80" y="376.85" text-anchor="end">10.0</text>
<line class="grid" x1="90" y1="334.30" x2="1150" y2="334.30" />
<text class="small" x="80" y="338.30" text-anchor="end">20.0</text>
<line class="grid" x1="90" y1="295.75" x2="1150" y2="295.75" />
<text class="small" x="80" y="299.75" text-anchor="end">30.0</text>
<line class="grid" x1="90.00" y1="295.75" x2="90.00" y2="488.50" />
<line class="grid" x1="266.67" y1="295.75" x2="266.67" y2="488.50" />
<line class="grid" x1="443.33" y1="295.75" x2="443.33" y2="488.50" />
<line class="grid" x1="620.00" y1="295.75" x2="620.00" y2="488.50" />
<line class="grid" x1="796.67" y1="295.75" x2="796.67" y2="488.50" />
<line class="grid" x1="973.33" y1="295.75" x2="973.33" y2="488.50" />
<line class="grid" x1="1150.00" y1="295.75" x2="1150.00" y2="488.50" />
<line class="axis" x1="90" y1="295.75" x2="90" y2="488.50" />
<line class="axis" x1="90" y1="488.50" x2="1150" y2="488.50" />
<path class="series" d="M 178.33 352.60 L 179.81 352.62 L 181.28 352.59 L 182.75 352.52 L 184.22 352.61 L 185.69 352.56 L 187.17 352.59 L 188.64 352.59 L 190.11 352.57 L 191.58 352.63 L 193.06 352.61 L 194.53 352.66 L 196.00 352.59 L 197.47 352.67 L 198.94 352.62 L 200.42 352.55 L 201.89 352.64 L 203.36 352.60 L 204.83 352.62 L 206.31 352.59 L 207.78 352.57 L 209.25 352.62 L 210.72 352.62 L 212.19 352.53 L 213.67 352.61 L 215.14 352.59 L 216.61 352.59 L 218.08 352.57 L 219.56 352.58 L 221.03 352.63 L 222.50 352.59 L 223.97 352.59 L 225.44 352.61 L 226.92 352.57 L 228.39 352.58 L 229.86 352.60 L 231.33 352.62 L 232.81 352.60 L 234.28 352.67 L 235.75 352.64 L 237.22 352.63 L 238.69 352.66 L 240.17 352.58 L 241.64 352.64 L 243.11 352.58 L 244.58 352.63 L 246.06 352.65 L 247.53 352.61 L 249.00 352.59 L 250.47 352.62 L 251.94 352.64 L 253.42 352.55 L 254.89 352.56 L 256.36 352.54 L 257.83 352.60 L 259.31 352.57 L 260.78 352.54 L 262.25 352.60 L 263.72 352.56 L 265.19 352.57 L 266.67 352.60 L 268.14 352.56 L 269.61 352.56 L 271.08 352.58 L 272.56 352.55 L 274.03 352.57 L 275.50 352.59 L 276.97 352.60 L 278.44 352.58 L 279.92 352.55 L 281.39 352.56 L 282.86 352.60 L 284.33 352.58 L 285.81 352.58 L 287.28 352.57 L 288.75 352.62 L 290.22 352.62 L 291.69 352.65 L 293.17 352.65 L 294.64 352.63 L 296.11 352.70 L 297.58 352.66 L 299.06 352.61 L 300.53 352.64 L 302.00 352.60 L 303.47 352.61 L 304.94 352.59 L 306.42 352.62 L 307.89 352.60 L 309.36 352.63 L 310.83 352.62 L 312.31 352.65 L 313.78 352.59 L 315.25 352.67 L 316.72 352.64 L 318.19 352.65 L 319.67 352.65 L 321.14 352.63 L 322.61 352.67 L 324.08 352.64 L 325.56 352.69 L 327.03 352.64 L 328.50 352.66 L 329.97 352.65 L 331.44 352.61 L 332.92 352.59 L 334.39 352.68 L 335.86 352.61 L 337.33 352.58 L 338.81 352.65 L 340.28 352.63 L 341.75 352.66 L 343.22 352.64 L 344.69 352.61 L 346.17 352.65 L 347.64 352.71 L 349.11 352.67 L 350.58 352.64 L 352.06 352.67 L 353.53 352.74 L 355.00 354.15 L 356.47 359.38 L 357.94 357.27 L 359.42 354.76 L 360.89 357.11 L 362.36 371.62 L 363.83 364.48 L 365.31 370.92 L 366.78 369.60 L 368.25 372.81 L 369.72 375.58 L 371.19 377.13 L 372.67 379.27 L 374.14 379.30 L 375.61 383.89 L 377.08 377.40 L 378.56 387.19 L 380.03 383.72 L 381.50 386.91 L 382.97 380.30 L 384.44 370.68 L 385.92 374.41 L 387.39 373.24 L 388.86 377.29 L 390.33 372.54 L 391.81 381.13 L 393.28 380.09 L 394.75 386.06 L 396.22 379.32 L 397.69 387.06 L 399.17 367.51 L 400.64 366.68 L 402.11 363.57 L 403.58 361.42 L 405.06 356.20 L 406.53 344.46 L 408.00 336.72 L 409.47 343.47 L 410.94 354.35 L 412.42 345.06 L 413.89 355.31 L 415.36 359.96 L 416.83 350.29 L 418.31 359.32 L 419.78 362.89 L 421.25 360.44 L 422.72 357.23 L 424.19 360.24 L 425.67 361.09 L 427.14 360.35 L 428.61 361.28 L 430.08 358.34 L 431.56 360.64 L 433.03 352.13 L 434.50 358.08 L 435.97 354.50 L 437.44 352.95 L 438.92 353.66 L 440.39 346.36 L 441.86 349.72 L 443.33 352.70 L 444.81 340.63 L 446.28 345.97 L 447.75 351.99 L 449.22 345.78 L 450.69 351.35 L 452.17 347.00 L 453.64 354.18 L 455.11 355.89 L 456.58 353.39 L 458.06 344.37 L 459.53 361.09 L 461.00 353.60 L 462.47 353.99 L 463.94 349.92 L 465.42 356.83 L 466.89 355.74 L 468.36 359.40 L 469.83 362.89 L 471.31 353.91 L 472.78 357.01 L 474.25 356.75 L 475.72 355.67 L 477.19 356.23 L 478.67 356.15 L 480.14 356.12 L 481.61 356.26 L 483.08 356.16 L 484.56 356.18 L 486.03 356.19 L 487.50 356.13 L 488.97 356.17 L 490.44 356.17 L 491.92 356.20 L 493.39 356.20 L 494.86 356.17 L 496.33 356.16 L 497.81 356.18 L 499.28 356.15 L 500.75 356.18 L 502.22 356.12 L 503.69 356.19 L 505.17 356.19 L 506.64 356.20 L 508.11 356.24 L 509.58 356.15 L 511.06 356.18 L 512.53 356.23 L 514.00 356.25 L 515.47 356.25 L 516.94 356.22 L 518.42 356.18 L 519.89 355.95 L 521.36 355.48 L 522.83 356.35 L 524.31 355.47 L 525.78 355.71 L 527.25 355.67 L 528.72 355.57 L 530.19 355.74 L 531.67 355.68 L 533.14 355.56 L 534.61 355.66 L 536.08 355.66 L 537.56 355.63 L 539.03 355.66 L 540.50 355.69 L 541.97 355.67 L 543.44 355.63 L 544.92 355.64 L 546.39 355.66 L 547.86 355.63 L 549.33 355.64 L 550.81 355.67 L 552.28 355.64 L 553.75 355.68 L 555.22 355.63 L 556.69 355.72 L 558.17 355.65 L 559.64 355.66 L 561.11 355.68 L 562.58 355.66 L 564.06 355.52 L 565.53 353.17 L 567.00 359.06 L 568.47 356.94 L 569.94 356.06 L 571.42 356.45 L 572.89 356.90 L 574.36 356.26 L 575.83 356.36 L 577.31 356.45 L 578.78 356.58 L 580.25 356.44 L 581.72 356.40 L 583.19 356.47 L 584.67 356.51 L 586.14 356.52 L 587.61 356.42 L 589.08 356.43 L 590.56 356.47 L 592.03 356.41 L 593.50 356.44 L 594.97 356.46 L 596.44 356.42 L 597.92 356.49 L 599.39 356.43 L 600.86 356.46 L 602.33 356.40 L 603.81 356.61 L 605.28 356.72 L 606.75 354.90 L 608.22 354.90 L 609.69 356.00 L 611.17 355.48 L 612.64 355.87 L 614.11 355.72 L 615.58 355.77 L 617.06 355.76 L 618.53 355.76 L 620.00 355.78 L 621.47 355.75 L 622.94 355.73 L 624.42 355.75 L 625.89 355.79 L 627.36 355.74 L 628.83 355.77 L 630.31 355.69 L 631.78 355.71 L 633.25 355.71 L 634.72 355.73 L 636.19 355.73 L 637.67 355.71 L 639.14 355.73 L 640.61 355.69 L 642.08 355.67 L 643.56 355.71 L 645.03 355.71 L 646.50 355.67 L 647.97 355.76 L 649.44 355.50 L 650.92 355.81 L 652.39 355.35 L 653.86 355.27 L 655.33 355.33 L 656.81 355.27 L 658.28 355.26 L 659.75 355.33 L 661.22 355.25 L 662.69 355.27 L 664.17 355.30 L 665.64 355.25 L 667.11 355.29 L 668.58 355.28 L 670.06 355.24 L 671.53 355.30 L 673.00 355.26 L 674.47 355.31 L 675.94 355.30 L 677.42 355.32 L 678.89 355.33 L 680.36 355.28 L 681.83 355.36 L 683.31 355.33 L 684.78 355.34 L 686.25 355.32 L 687.72 355.33 L 689.19 355.33 L 690.67 355.33 L 692.14 355.32 L 693.61 355.34 L 695.08 355.30 L 696.56 355.29 L 698.03 355.28 L 699.50 355.32 L 700.97 355.29 L 702.44 355.31 L 703.92 355.32 L 705.39 355.31 L 706.86 355.37 L 708.33 355.31 L 709.81 355.84 L 711.28 354.47 L 712.75 356.51 L 714.22 355.62 L 715.69 357.82 L 717.17 357.12 L 718.64 355.92 L 720.11 356.68 L 721.58 356.91 L 723.06 356.75 L 724.53 356.84 L 726.00 356.78 L 727.47 356.82 L 728.94 356.78 L 730.42 356.71 L 731.89 356.77 L 733.36 356.73 L 734.83 356.76 L 736.31 356.71 L 737.78 356.73 L 739.25 356.68 L 740.72 356.73 L 742.19 356.73 L 743.67 356.78 L 745.14 356.75 L 746.61 356.74 L 748.08 356.73 L 749.56 356.72 L 751.03 356.79 L 752.50 358.45 L 753.97 356.67 L 755.44 357.22 L 756.92 357.32 L 758.39 357.29 L 759.86 357.37 L 761.33 357.36 L 762.81 357.41 L 764.28 357.43 L 765.75 357.87 L 767.22 356.10 L 768.69 362.77 L 770.17 354.28 L 771.64 356.53 L 773.11 356.07 L 774.58 356.39 L 776.06 356.80 L 777.53 356.76 L 779.00 356.72 L 780.47 362.34 L 781.94 356.03 L 783.42 358.82 L 784.89 359.98 L 786.36 364.63 L 787.83 365.36 L 789.31 355.72 L 790.78 354.13 L 792.25 344.83 L 793.72 349.82 L 795.19 349.45 L 796.67 359.10 L 798.14 358.50 L 799.61 357.40 L 801.08 369.88 L 802.56 369.33 L 804.03 379.66 L 805.50 376.42 L 806.97 376.94 L 808.44 372.64 L 809.92 374.61 L 811.39 371.27 L 812.86 374.01 L 814.33 361.46 L 815.81 361.37 L 817.28 358.74 L 818.75 356.27 L 820.22 357.60 L 821.69 355.07 L 823.17 350.37 L 824.64 359.37 L 826.11 369.50 L 827.58 354.83 L 829.06 365.13 L 830.53 368.79 L 832.00 369.87 L 833.47 371.62 L 834.94 377.15 L 836.42 376.77 L 837.89 374.83 L 839.36 372.83 L 840.83 376.29 L 842.31 383.86 L 843.78 382.97 L 845.25 380.53 L 846.72 374.11 L 848.19 372.84 L 849.67 377.52 L 851.14 376.87 L 852.61 376.40 L 854.08 375.22 L 855.56 378.04 L 857.03 371.82 L 858.50 364.13 L 859.97 362.67 L 861.44 369.45 L 862.92 364.49 L 864.39 360.64 L 865.86 359.03 L 867.33 366.68 L 868.81 367.23 L 870.28 368.54 L 871.75 362.87 L 873.22 366.62 L 874.69 363.41 L 876.17 363.61 L 877.64 364.56 L 879.11 362.47 L 880.58 364.17 L 882.06 364.29 L 883.53 357.80 L 885.00 359.59 L 886.47 360.62 L 887.94 364.22 L 889.42 369.29 L 890.89 361.44 L 892.36 360.38 L 893.83 363.54 L 895.31 363.41 L 896.78 362.91 L 898.25 362.51 L 899.72 362.38 L 901.19 370.14 L 902.67 364.30 L 904.14 362.73 L 905.61 361.51 L 907.08 361.51 L 908.56 361.05 L 910.03 367.21 L 911.50 364.82 L 912.97 357.70 L 914.44 362.47 L 915.92 362.74 L 917.39 370.72 L 918.86 379.39 L 920.33 378.69 L 921.81 379.81 L 923.28 381.99 L 924.75 373.07 L 926.22 382.24 L 927.69 395.37 L 929.17 399.30 L 930.64 402.51 L 932.11 400.95 L 933.58 403.12 L 935.06 409.33 L 936.53 407.42 L 938.00 405.17 L 939.47 403.21 L 940.94 398.67 L 942.42 393.31 L 943.89 389.91 L 945.36 386.45 L 946.83 371.69 L 948.31 369.78 L 949.78 359.66 L 951.25 364.98 L 952.72 366.68 L 954.19 361.92 L 955.67 367.00 L 957.14 369.44 L 958.61 387.40 L 960.08 382.50 L 961.56 376.40 L 963.03 380.08 L 964.50 373.19 L 965.97 375.26 L 967.44 374.72 L 968.92 373.27 L 970.39 374.57 L 971.86 381.89 L 973.33 379.99 L 974.81 380.90 L 976.28 384.21 L 977.75 384.99 L 979.22 379.61 L 980.69 389.30 L 982.17 386.55 L 983.64 382.82 L 985.11 384.57 L 986.58 385.28 L 988.06 386.21 L 989.53 383.94 L 991.00 384.50 L 992.47 385.75 L 993.94 386.29 L 995.42 386.35 L 996.89 386.59 L 998.36 386.42 L 999.83 385.98 L 1001.31 385.76 L 1002.78 386.25 L 1004.25 386.98 L 1005.72 387.34 L 1007.19 388.47 L 1008.67 388.13 L 1010.14 387.61 L 1011.61 388.03 L 1013.08 387.69 L 1014.56 387.78 L 1016.03 387.73 L 1017.50 387.56 L 1018.97 388.57 L 1020.44 389.58 L 1021.92 390.64 L 1023.39 390.64 L 1024.86 391.88 L 1026.33 394.19 L 1027.81 395.59 L 1029.28 394.71 L 1030.75 395.42 L 1032.22 394.47 L 1033.69 394.80 L 1035.17 392.87 L 1036.64 393.79 L 1038.11 394.32 L 1039.58 398.23 L 1041.06 402.25 L 1042.53 398.29 L 1044.00 401.14 L 1045.47 402.82 L 1046.94 402.20 L 1048.42 402.10 L 1049.89 402.38 L 1051.36 402.18" stroke="#2E7D32" />
<path class="series" d="M 178.33 422.53 L 179.81 422.53 L 181.28 422.52 L 182.75 422.53 L 184.22 422.55 L 185.69 422.51 L 187.17 422.50 L 188.64 422.56 L 190.11 422.51 L 191.58 422.52 L 193.06 422.49 L 194.53 422.52 L 196.00 422.53 L 197.47 422.54 L 198.94 422.49 L 200.42 422.52 L 201.89 422.55 L 203.36 422.51 L 204.83 422.53 L 206.31 422.50 L 207.78 422.56 L 209.25 422.51 L 210.72 422.50 L 212.19 422.56 L 213.67 422.56 L 215.14 422.50 L 216.61 422.52 L 218.08 422.50 L 219.56 422.50 L 221.03 422.55 L 222.50 422.46 L 223.97 422.49 L 225.44 422.50 L 226.92 422.51 L 228.39 422.50 L 229.86 422.53 L 231.33 422.52 L 232.81 422.54 L 234.28 422.53 L 235.75 422.49 L 237.22 422.51 L 238.69 422.54 L 240.17 422.49 L 241.64 422.50 L 243.11 422.50 L 244.58 422.54 L 246.06 422.50 L 247.53 422.47 L 249.00 422.52 L 250.47 422.51 L 251.94 422.51 L 253.42 422.50 L 254.89 422.49 L 256.36 422.47 L 257.83 422.50 L 259.31 422.45 L 260.78 422.43 L 262.25 422.51 L 263.72 422.50 L 265.19 422.48 L 266.67 422.49 L 268.14 422.49 L 269.61 422.47 L 271.08 422.52 L 272.56 422.45 L 274.03 422.47 L 275.50 422.47 L 276.97 422.44 L 278.44 422.50 L 279.92 422.49 L 281.39 422.45 L 282.86 422.54 L 284.33 422.44 L 285.81 422.43 L 287.28 422.54 L 288.75 422.47 L 290.22 422.47 L 291.69 422.49 L 293.17 422.51 L 294.64 422.53 L 296.11 422.51 L 297.58 422.48 L 299.06 422.53 L 300.53 422.59 L 302.00 422.48 L 303.47 422.52 L 304.94 422.51 L 306.42 422.50 L 307.89 422.55 L 309.36 422.50 L 310.83 422.51 L 312.31 422.58 L 313.78 422.54 L 315.25 422.50 L 316.72 422.55 L 318.19 422.51 L 319.67 422.51 L 321.14 422.56 L 322.61 422.50 L 324.08 422.50 L 325.56 422.54 L 327.03 422.52 L 328.50 422.50 L 329.97 422.50 L 331.44 422.51 L 332.92 422.57 L 334.39 422.53 L 335.86 422.51 L 337.33 422.54 L 338.81 422.55 L 340.28 422.50 L 341.75 422.52 L 343.22 422.53 L 344.69 422.50 L 346.17 422.56 L 347.64 422.50 L 349.11 422.49 L 350.58 422.52 L 352.06 422.55 L 353.53 422.55 L 355.00 419.48 L 356.47 420.29 L 357.94 425.46 L 359.42 425.09 L 360.89 421.97 L 362.36 424.48 L 363.83 420.08 L 365.31 416.55 L 366.78 421.71 L 368.25 414.72 L 369.72 417.28 L 371.19 417.75 L 372.67 421.23 L 374.14 423.27 L 375.61 423.51 L 377.08 421.62 L 378.56 423.06 L 380.03 422.76 L 381.50 420.77 L 382.97 417.53 L 384.44 423.02 L 385.92 427.40 L 387.39 412.39 L 388.86 415.20 L 390.33 418.66 L 391.81 413.34 L 393.28 416.63 L 394.75 407.80 L 396.22 421.23 L 397.69 413.72 L 399.17 417.81 L 400.64 416.30 L 402.11 417.20 L 403.58 411.81 L 405.06 413.79 L 406.53 410.91 L 408.00 417.42 L 409.47 416.12 L 410.94 409.51 L 412.42 410.05 L 413.89 401.13 L 415.36 410.33 L 416.83 416.09 L 418.31 413.36 L 419.78 412.07 L 421.25 412.61 L 422.72 405.62 L 424.19 403.05 L 425.67 403.56 L 427.14 404.30 L 428.61 402.38 L 430.08 397.80 L 431.56 398.32 L 433.03 401.22 L 434.50 398.50 L 435.97 397.86 L 437.44 396.20 L 438.92 391.20 L 440.39 394.40 L 441.86 394.95 L 443.33 399.02 L 444.81 393.82 L 446.28 395.92 L 447.75 405.97 L 449.22 407.06 L 450.69 410.92 L 452.17 408.93 L 453.64 402.92 L 455.11 408.22 L 456.58 411.06 L 458.06 415.74 L 459.53 416.26 L 461.00 414.39 L 462.47 420.81 L 463.94 419.21 L 465.42 413.91 L 466.89 416.38 L 468.36 415.17 L 469.83 418.13 L 471.31 418.22 L 472.78 418.13 L 474.25 418.60 L 475.72 417.70 L 477.19 417.68 L 478.67 418.18 L 480.14 417.88 L 481.61 418.05 L 483.08 417.90 L 484.56 418.05 L 486.03 418.01 L 487.50 417.94 L 488.97 418.05 L 490.44 417.99 L 491.92 418.05 L 493.39 417.99 L 494.86 418.03 L 496.33 418.02 L 497.81 418.05 L 499.28 417.96 L 500.75 417.99 L 502.22 418.11 L 503.69 417.99 L 505.17 418.00 L 506.64 418.07 L 508.11 417.98 L 509.58 418.09 L 511.06 418.07 L 512.53 418.11 L 514.00 418.09 L 515.47 418.07 L 516.94 418.08 L 518.42 418.16 L 519.89 416.62 L 521.36 420.58 L 522.83 417.40 L 524.31 418.27 L 525.78 418.50 L 527.25 418.16 L 528.72 418.14 L 530.19 418.41 L 531.67 418.27 L 533.14 418.21 L 534.61 418.39 L 536.08 418.17 L 537.56 418.26 L 539.03 418.33 L 540.50 418.19 L 541.97 418.23 L 543.44 418.33 L 544.92 418.35 L 546.39 418.25 L 547.86 418.27 L 549.33 418.35 L 550.81 418.34 L 552.28 418.31 L 553.75 418.31 L 555.22 418.37 L 556.69 418.35 L 558.17 418.35 L 559.64 418.23 L 561.11 418.35 L 562.58 418.30 L 564.06 418.24 L 565.53 415.54 L 567.00 419.38 L 568.47 419.11 L 569.94 420.09 L 571.42 420.31 L 572.89 418.98 L 574.36 418.13 L 575.83 418.23 L 577.31 418.87 L 578.78 419.25 L 580.25 418.91 L 581.72 418.62 L 583.19 418.61 L 584.67 418.91 L 586.14 418.87 L 587.61 418.73 L 589.08 418.66 L 590.56 418.89 L 592.03 418.85 L 593.50 418.72 L 594.97 418.71 L 596.44 418.86 L 597.92 418.87 L 599.39 418.78 L 600.86 418.72 L 602.33 418.81 L 603.81 418.61 L 605.28 420.39 L 606.75 417.53 L 608.22 417.53 L 609.69 418.39 L 611.17 418.15 L 612.64 418.27 L 614.11 418.35 L 615.58 418.47 L 617.06 418.57 L 618.53 418.67 L 620.00 418.53 L 621.47 418.43 L 622.94 418.40 L 624.42 418.55 L 625.89 418.54 L 627.36 418.52 L 628.83 418.59 L 630.31 418.53 L 631.78 418.50 L 633.25 418.50 L 634.72 418.49 L 636.19 418.56 L 637.67 418.50 L 639.14 418.51 L 640.61 418.53 L 642.08 418.46 L 643.56 418.53 L 645.03 418.50 L 646.50 418.57 L 647.97 418.57 L 649.44 418.64 L 650.92 417.84 L 652.39 417.78 L 653.86 417.48 L 655.33 417.25 L 656.81 417.55 L 658.28 417.62 L 659.75 417.47 L 661.22 417.55 L 662.69 417.59 L 664.17 417.55 L 665.64 417.56 L 667.11 417.55 L 668.58 417.58 L 670.06 417.53 L 671.53 417.49 L 673.00 417.61 L 674.47 417.62 L 675.94 417.57 L 677.42 417.63 L 678.89 417.63 L 680.36 417.68 L 681.83 417.60 L 683.31 417.70 L 684.78 417.61 L 686.25 417.63 L 687.72 417.62 L 689.19 417.58 L 690.67 417.66 L 692.14 417.65 L 693.61 417.62 L 695.08 417.62 L 696.56 417.67 L 698.03 417.68 L 699.50 417.64 L 700.97 417.61 L 702.44 417.64 L 703.92 417.63 L 705.39 417.62 L 706.86 417.63 L 708.33 417.69 L 709.81 417.51 L 711.28 415.20 L 712.75 417.39 L 714.22 419.40 L 715.69 417.15 L 717.17 416.94 L 718.64 419.27 L 720.11 416.42 L 721.58 418.37 L 723.06 417.40 L 724.53 418.02 L 726.00 417.73 L 727.47 417.98 L 728.94 417.75 L 730.42 417.78 L 731.89 417.83 L 733.36 417.80 L 734.83 417.81 L 736.31 417.79 L 737.78 417.81 L 739.25 417.80 L 740.72 417.79 L 742.19 417.80 L 743.67 417.77 L 745.14 417.75 L 746.61 417.78 L 748.08 417.81 L 749.56 417.82 L 751.03 417.86 L 752.50 418.86 L 753.97 418.08 L 755.44 418.37 L 756.92 418.61 L 758.39 418.42 L 759.86 418.65 L 761.33 418.59 L 762.81 418.76 L 764.28 418.61 L 765.75 418.32 L 767.22 418.37 L 768.69 418.45 L 770.17 418.94 L 771.64 415.44 L 773.11 415.95 L 774.58 416.95 L 776.06 416.99 L 777.53 417.34 L 779.00 416.82 L 780.47 418.66 L 781.94 414.89 L 783.42 416.69 L 784.89 418.06 L 786.36 418.43 L 787.83 426.40 L 789.31 413.46 L 790.78 403.87 L 792.25 409.09 L 793.72 393.60 L 795.19 396.23 L 796.67 402.49 L 798.14 401.85 L 799.61 404.92 L 801.08 406.36 L 802.56 413.20 L 804.03 414.06 L 805.50 412.42 L 806.97 414.11 L 808.44 417.37 L 809.92 419.29 L 811.39 412.11 L 812.86 402.13 L 814.33 414.52 L 815.81 408.04 L 817.28 411.99 L 818.75 402.79 L 820.22 405.16 L 821.69 400.38 L 823.17 405.32 L 824.64 408.42 L 826.11 431.46 L 827.58 413.59 L 829.06 437.52 L 830.53 425.47 L 832.00 414.39 L 833.47 412.32 L 834.94 433.86 L 836.42 414.20 L 837.89 431.54 L 839.36 416.03 L 840.83 414.68 L 842.31 417.84 L 843.78 414.26 L 845.25 414.87 L 846.72 419.99 L 848.19 418.33 L 849.67 419.99 L 851.14 417.10 L 852.61 419.66 L 854.08 422.02 L 855.56 418.32 L 857.03 404.09 L 858.50 406.37 L 859.97 408.86 L 861.44 409.51 L 862.92 417.78 L 864.39 415.73 L 865.86 424.08 L 867.33 421.50 L 868.81 413.28 L 870.28 417.73 L 871.75 424.54 L 873.22 420.20 L 874.69 422.11 L 876.17 421.86 L 877.64 425.85 L 879.11 404.96 L 880.58 404.10 L 882.06 417.31 L 883.53 415.31 L 885.00 414.41 L 886.47 410.78 L 887.94 414.75 L 889.42 413.66 L 890.89 423.87 L 892.36 429.79 L 893.83 431.56 L 895.31 439.64 L 896.78 432.04 L 898.25 432.71 L 899.72 430.93 L 901.19 425.57 L 902.67 422.27 L 904.14 418.28 L 905.61 417.21 L 907.08 417.21 L 908.56 427.96 L 910.03 426.05 L 911.50 419.30 L 912.97 424.30 L 914.44 414.12 L 915.92 418.30 L 917.39 422.12 L 918.86 419.09 L 920.33 418.05 L 921.81 417.03 L 923.28 411.45 L 924.75 408.35 L 926.22 395.10 L 927.69 407.83 L 929.17 410.81 L 930.64 421.39 L 932.11 424.28 L 933.58 429.79 L 935.06 430.44 L 936.53 428.74 L 938.00 428.81 L 939.47 429.29 L 940.94 428.92 L 942.42 426.76 L 943.89 431.10 L 945.36 436.43 L 946.83 438.45 L 948.31 437.12 L 949.78 437.98 L 951.25 440.90 L 952.72 433.30 L 954.19 429.45 L 955.67 425.24 L 957.14 433.19 L 958.61 441.93 L 960.08 450.00 L 961.56 444.54 L 963.03 437.66 L 964.50 437.74 L 965.97 436.82 L 967.44 436.71 L 968.92 433.28 L 970.39 429.52 L 971.86 434.41 L 973.33 428.69 L 974.81 427.05 L 976.28 423.26 L 977.75 424.04 L 979.22 419.45 L 980.69 420.02 L 982.17 419.47 L 983.64 420.47 L 985.11 421.07 L 986.58 419.04 L 988.06 418.71 L 989.53 418.55 L 991.00 417.18 L 992.47 415.84 L 993.94 415.93 L 995.42 414.60 L 996.89 415.25 L 998.36 413.21 L 999.83 413.36 L 1001.31 412.75 L 1002.78 412.96 L 1004.25 408.03 L 1005.72 412.61 L 1007.19 412.79 L 1008.67 414.48 L 1010.14 414.42 L 1011.61 415.61 L 1013.08 414.89 L 1014.56 417.06 L 1016.03 415.51 L 1017.50 415.21 L 1018.97 413.90 L 1020.44 410.88 L 1021.92 412.32 L 1023.39 411.75 L 1024.86 410.33 L 1026.33 410.75 L 1027.81 410.19 L 1029.28 410.47 L 1030.75 412.19 L 1032.22 409.94 L 1033.69 409.56 L 1035.17 408.43 L 1036.64 406.21 L 1038.11 408.84 L 1039.58 404.29 L 1041.06 409.85 L 1042.53 406.29 L 1044.00 407.80 L 1045.47 409.34 L 1046.94 414.65 L 1048.42 412.96 L 1049.89 411.32 L 1051.36 412.43" stroke="#6A1B9A" />
<line x1="900.00" y1="307.75" x2="918.00" y2="307.75" stroke="#2E7D32" stroke-width="3" />
<text class="small" x="924.00" y="311.75">pitch</text>
<line x1="900.00" y1="323.75" x2="918.00" y2="323.75" stroke="#6A1B9A" stroke-width="3" />
<text class="small" x="924.00" y="327.75">roll</text>
<text x="90" y="500.50" font-size="14" font-weight="700">Aceleração (magnitude) (u.a.)</text>
<rect class="event" x="443.33" y="506.50" width="343.03" height="192.75" />
<line class="eventline" x1="443.33" y1="506.50" x2="443.33" y2="699.25" />
<line class="eventline" x1="786.36" y1="506.50" x2="786.36" y2="699.25" />
<line class="grid" x1="90" y1="699.25" x2="1150" y2="699.25" />
<text class="small" x="80" y="703.25" text-anchor="end">0.00</text>
<line class="grid" x1="90" y1="660.70" x2="1150" y2="660.70" />
<text class="small" x="80" y="664.70" text-anchor="end">0.50</text>
<line class="grid" x1="90" y1="622.15" x2="1150" y2="622.15" />
<text class="small" x="80" y="626.15" text-anchor="end">1.00</text>
<line class="grid" x1="90" y1="583.60" x2="1150" y2="583.60" />
<text class="small" x="80" y="587.60" text-anchor="end">1.50</text>
<line class="grid" x1="90" y1="545.05" x2="1150" y2="545.05" />
<text class="small" x="80" y="549.05" text-anchor="end">2.00</text>
<line class="grid" x1="90" y1="506.50" x2="1150" y2="506.50" />
<text class="small" x="80" y="510.50" text-anchor="end">2.50</text>
<line class="grid" x1="90.00" y1="506.50" x2="90.00" y2="699.25" />
<line class="grid" x1="266.67" y1="506.50" x2="266.67" y2="699.25" />
<line class="grid" x1="443.33" y1="506.50" x2="443.33" y2="699.25" />
<line class="grid" x1="620.00" y1="506.50" x2="620.00" y2="699.25" />
<line class="grid" x1="796.67" y1="506.50" x2="796.67" y2="699.25" />
<line class="grid" x1="973.33" y1="506.50" x2="973.33" y2="699.25" />
<line class="grid" x1="1150.00" y1="506.50" x2="1150.00" y2="699.25" />
<line class="axis" x1="90" y1="506.50" x2="90" y2="699.25" />
<line class="axis" x1="90" y1="699.25" x2="1150" y2="699.25" />
<path class="series" d="M 178.33 699.11 L 179.81 699.15 L 181.28 699.05 L 182.75 698.91 L 184.22 699.11 L 185.69 699.03 L 187.17 698.98 L 188.64 699.09 L 190.11 699.00 L 191.58 699.01 L 193.06 699.17 L 194.53 698.94 L 196.00 699.11 L 197.47 698.90 L 198.94 699.00 L 200.42 699.09 L 201.89 699.14 L 203.36 699.22 L 204.83 699.15 L 206.31 698.97 L 207.78 698.97 L 209.25 699.16 L 210.72 699.19 L 212.19 699.02 L 213.67 699.10 L 215.14 699.09 L 216.61 698.88 L 218.08 698.95 L 219.56 698.85 L 221.03 698.96 L 222.50 699.17 L 223.97 699.13 L 225.44 699.19 L 226.92 699.20 L 228.39 699.18 L 229.86 699.13 L 231.33 699.08 L 232.81 698.91 L 234.28 699.05 L 235.75 698.95 L 237.22 699.11 L 238.69 699.15 L 240.17 699.04 L 241.64 699.01 L 243.11 699.07 L 244.58 699.04 L 246.06 699.12 L 247.53 699.17 L 249.00 699.01 L 250.47 698.87 L 251.94 699.09 L 253.42 699.18 L 254.89 699.11 L 256.36 698.86 L 257.83 698.95 L 259.31 698.96 L 260.78 698.96 L 262.25 699.03 L 263.72 699.02 L 265.19 699.19 L 266.67 699.07 L 268.14 699.08 L 269.61 698.76 L 271.08 699.08 L 272.56 699.11 L 274.03 699.12 L 275.50 699.09 L 276.97 698.99 L 278.44 699.07 L 279.92 699.17 L 281.39 699.11 L 282.86 699.12 L 284.33 699.05 L 285.81 699.14 L 287.28 699.20 L 288.75 699.11 L 290.22 699.09 L 291.69 698.97 L 293.17 699.07 L 294.64 699.09 L 296.11 699.12 L 297.58 699.11 L 299.06 699.17 L 300.53 698.78 L 302.00 699.19 L 303.47 699.11 L 304.94 699.04 L 306.42 699.13 L 307.89 699.15 L 309.36 699.02 L 310.83 698.94 L 312.31 698.96 L 313.78 698.95 L 315.25 699.14 L 316.72 699.19 L 318.19 698.94 L 319.67 699.06 L 321.14 698.85 L 322.61 698.94 L 324.08 699.12 L 325.56 699.09 L 327.03 699.14 L 328.50 699.07 L 329.97 699.05 L 331.44 699.00 L 332.92 699.19 L 334.39 699.14 L 335.86 699.13 L 337.33 699.16 L 338.81 699.13 L 340.28 699.10 L 341.75 699.05 L 343.22 699.17 L 344.69 699.18 L 346.17 699.10 L 347.64 699.12 L 349.11 699.07 L 350.58 699.06 L 352.06 698.44 L 353.53 693.10 L 355.00 684.43 L 356.47 682.34 L 357.94 695.04 L 359.42 679.10 L 360.89 677.29 L 362.36 673.66 L 363.83 680.07 L 365.31 666.89 L 366.78 680.48 L 368.25 696.95 L 369.72 695.38 L 371.19 695.38 L 372.67 694.42 L 374.14 695.08 L 375.61 685.22 L 377.08 689.76 L 378.56 677.14 L 380.03 692.46 L 381.50 679.82 L 382.97 697.08 L 384.44 672.68 L 385.92 674.52 L 387.39 680.02 L 388.86 675.07 L 390.33 683.48 L 391.81 682.28 L 393.28 692.59 L 394.75 669.94 L 396.22 684.41 L 397.69 652.44 L 399.17 677.44 L 400.64 671.86 L 402.11 676.20 L 403.58 669.13 L 405.06 665.89 L 406.53 677.27 L 408.00 670.30 L 409.47 676.35 L 410.94 674.62 L 412.42 662.79 L 413.89 688.61 L 415.36 672.44 L 416.83 665.61 L 418.31 691.78 L 419.78 689.23 L 421.25 685.00 L 422.72 686.39 L 424.19 692.65 L 425.67 692.52 L 427.14 694.10 L 428.61 689.60 L 430.08 695.36 L 431.56 695.55 L 433.03 689.19 L 434.50 691.85 L 435.97 695.06 L 437.44 695.48 L 438.92 691.72 L 440.39 688.57 L 441.86 690.96 L 443.33 686.70 L 444.81 675.31 L 446.28 689.46 L 447.75 679.29 L 449.22 689.98 L 450.69 688.46 L 452.17 686.46 L 453.64 679.69 L 455.11 682.63 L 456.58 693.51 L 458.06 683.57 L 459.53 684.27 L 461.00 694.07 L 462.47 690.32 L 463.94 696.05 L 465.42 677.49 L 466.89 695.53 L 468.36 681.78 L 469.83 681.02 L 471.31 684.68 L 472.78 695.16 L 474.25 698.36 L 475.72 696.41 L 477.19 698.32 L 478.67 698.48 L 480.14 698.48 L 481.61 698.87 L 483.08 698.79 L 484.56 698.74 L 486.03 698.97 L 487.50 698.99 L 488.97 698.92 L 490.44 699.08 L 491.92 699.03 L 493.39 699.11 L 494.86 699.17 L 496.33 699.07 L 497.81 699.20 L 499.28 699.13 L 500.75 699.15 L 502.22 699.10 L 503.69 699.01 L 505.17 699.01 L 506.64 699.04 L 508.11 698.95 L 509.58 699.03 L 511.06 698.99 L 512.53 699.19 L 514.00 699.01 L 515.47 698.87 L 516.94 698.63 L 518.42 696.69 L 519.89 695.85 L 521.36 695.78 L 522.83 697.81 L 524.31 697.53 L 525.78 698.58 L 527.25 698.50 L 528.72 698.62 L 530.19 698.78 L 531.67 698.81 L 533.14 698.77 L 534.61 699.12 L 536.08 699.14 L 537.56 699.13 L 539.03 699.19 L 540.50 699.07 L 541.97 699.07 L 543.44 699.07 L 544.92 699.14 L 546.39 699.14 L 547.86 699.11 L 549.33 699.04 L 550.81 699.10 L 552.28 699.17 L 553.75 699.02 L 555.22 699.07 L 556.69 699.15 L 558.17 699.02 L 559.64 699.05 L 561.11 699.01 L 562.58 699.10 L 564.06 698.62 L 565.53 695.09 L 567.00 688.64 L 568.47 692.49 L 569.94 691.89 L 571.42 694.05 L 572.89 695.07 L 574.36 695.85 L 575.83 698.75 L 577.31 697.41 L 578.78 698.51 L 580.25 698.38 L 581.72 698.32 L 583.19 698.90 L 584.67 698.55 L 586.14 698.87 L 587.61 698.62 L 589.08 699.04 L 590.56 699.00 L 592.03 698.98 L 593.50 699.03 L 594.97 699.01 L 596.44 699.14 L 597.92 699.09 L 599.39 699.15 L 600.86 699.14 L 602.33 699.06 L 603.81 698.19 L 605.28 697.62 L 606.75 692.73 L 608.22 695.81 L 609.69 696.03 L 611.17 697.87 L 612.64 698.35 L 614.11 698.65 L 615.58 699.12 L 617.06 698.93 L 618.53 698.85 L 620.00 699.15 L 621.47 699.10 L 622.94 698.85 L 624.42 699.03 L 625.89 699.17 L 627.36 698.85 L 628.83 699.04 L 630.31 699.07 L 631.78 699.05 L 633.25 699.02 L 634.72 699.00 L 636.19 699.05 L 637.67 699.11 L 639.14 698.92 L 640.61 699.08 L 642.08 698.99 L 643.56 699.21 L 645.03 699.07 L 646.50 698.97 L 647.97 698.30 L 649.44 688.41 L 650.92 688.63 L 652.39 685.94 L 653.86 696.74 L 655.33 698.42 L 656.81 698.12 L 658.28 698.67 L 659.75 698.98 L 661.22 698.92 L 662.69 698.88 L 664.17 699.07 L 665.64 699.16 L 667.11 699.08 L 668.58 699.01 L 670.06 699.04 L 671.53 699.04 L 673.00 699.08 L 674.47 699.09 L 675.94 699.15 L 677.42 699.07 L 678.89 699.08 L 680.36 699.10 L 681.83 699.18 L 683.31 699.10 L 684.78 699.02 L 686.25 699.16 L 687.72 699.18 L 689.19 699.18 L 690.67 699.05 L 692.14 699.21 L 693.61 699.13 L 695.08 699.11 L 696.56 699.18 L 698.03 699.15 L 699.50 699.18 L 700.97 699.14 L 702.44 699.11 L 703.92 699.10 L 705.39 699.12 L 706.86 699.11 L 708.33 699.11 L 709.81 696.09 L 711.28 691.31 L 712.75 683.80 L 714.22 688.50 L 715.69 694.36 L 717.17 694.32 L 718.64 689.33 L 720.11 696.26 L 721.58 697.09 L 723.06 697.43 L 724.53 698.71 L 726.00 698.52 L 727.47 698.91 L 728.94 699.16 L 730.42 698.85 L 731.89 698.94 L 733.36 698.98 L 734.83 698.86 L 736.31 699.03 L 737.78 698.96 L 739.25 699.16 L 740.72 699.10 L 742.19 698.98 L 743.67 699.11 L 745.14 699.09 L 746.61 699.03 L 748.08 699.23 L 749.56 699.12 L 751.03 698.57 L 752.50 697.93 L 753.97 698.37 L 755.44 697.03 L 756.92 698.48 L 758.39 698.64 L 759.86 699.07 L 761.33 698.89 L 762.81 698.97 L 764.28 699.04 L 765.75 698.54 L 767.22 696.76 L 768.69 688.63 L 770.17 687.73 L 771.64 680.45 L 773.11 684.41 L 774.58 691.89 L 776.06 696.09 L 777.53 697.88 L 779.00 698.87 L 780.47 687.99 L 781.94 685.48 L 783.42 697.64 L 784.89 688.71 L 786.36 683.81 L 787.83 673.85 L 789.31 677.12 L 790.78 681.33 L 792.25 671.92 L 793.72 672.38 L 795.19 691.90 L 796.67 672.50 L 798.14 692.57 L 799.61 676.41 L 801.08 692.18 L 802.56 686.39 L 804.03 668.22 L 805.50 683.00 L 806.97 687.35 L 808.44 674.76 L 809.92 685.45 L 811.39 689.36 L 812.86 663.16 L 814.33 676.50 L 815.81 681.25 L 817.28 679.64 L 818.75 672.09 L 820.22 695.81 L 821.69 657.36 L 823.17 656.78 L 824.64 630.29 L 826.11 649.26 L 827.58 637.57 L 829.06 661.08 L 830.53 677.54 L 832.00 667.68 L 833.47 668.39 L 834.94 644.99 L 836.42 678.98 L 837.89 669.86 L 839.36 691.97 L 840.83 679.87 L 842.31 672.95 L 843.78 680.87 L 845.25 688.87 L 846.72 680.66 L 848.19 693.92 L 849.67 687.93 L 851.14 687.54 L 852.61 693.13 L 854.08 672.02 L 855.56 690.47 L 857.03 651.89 L 858.50 647.45 L 859.97 658.31 L 861.44 664.15 L 862.92 634.37 L 864.39 662.73 L 865.86 621.37 L 867.33 682.47 L 868.81 667.31 L 870.28 661.73 L 871.75 654.15 L 873.22 679.61 L 874.69 679.61 L 876.17 677.83 L 877.64 683.89 L 879.11 662.41 L 880.58 653.58 L 882.06 671.13 L 883.53 662.56 L 885.00 682.48 L 886.47 689.69 L 887.94 685.39 L 889.42 671.10 L 890.89 679.66 L 892.36 692.33 L 893.83 679.62 L 895.31 681.22 L 896.78 677.14 L 898.25 696.36 L 899.72 673.01 L 901.19 696.55 L 902.67 672.37 L 904.14 690.52 L 905.61 692.79 L 907.08 675.22 L 908.56 677.13 L 910.03 680.26 L 911.50 656.26 L 912.97 652.32 L 914.44 664.23 L 915.92 676.94 L 917.39 677.24 L 918.86 670.06 L 920.33 688.52 L 921.81 682.31 L 923.28 664.34 L 924.75 667.03 L 926.22 651.71 L 927.69 678.31 L 929.17 672.69 L 930.64 676.87 L 932.11 689.81 L 933.58 671.87 L 935.06 671.15 L 936.53 682.10 L 938.00 686.09 L 939.47 686.43 L 940.94 696.92 L 942.42 695.82 L 943.89 682.03 L 945.36 669.14 L 946.83 686.80 L 948.31 687.09 L 949.78 683.23 L 951.25 683.75 L 952.72 673.17 L 954.19 673.54 L 955.67 640.45 L 957.14 665.15 L 958.61 650.77 L 960.08 676.69 L 961.56 672.65 L 963.03 688.57 L 964.50 677.78 L 965.97 690.49 L 967.44 688.79 L 968.92 687.93 L 970.39 679.69 L 971.86 688.14 L 973.33 680.73 L 974.81 684.68 L 976.28 678.45 L 977.75 673.87 L 979.22 693.24 L 980.69 688.00 L 982.17 696.80 L 983.64 696.07 L 985.11 695.73 L 986.58 696.81 L 988.06 696.76 L 989.53 694.78 L 991.00 698.87 L 992.47 695.80 L 993.94 698.10 L 995.42 697.98 L 996.89 695.82 L 998.36 697.21 L 999.83 697.14 L 1001.31 697.93 L 1002.78 696.11 L 1004.25 686.01 L 1005.72 694.36 L 1007.19 693.14 L 1008.67 694.67 L 1010.14 692.50 L 1011.61 693.76 L 1013.08 693.88 L 1014.56 693.63 L 1016.03 692.73 L 1017.50 696.03 L 1018.97 692.48 L 1020.44 690.79 L 1021.92 695.47 L 1023.39 694.77 L 1024.86 695.74 L 1026.33 694.30 L 1027.81 695.36 L 1029.28 692.51 L 1030.75 695.60 L 1032.22 693.03 L 1033.69 690.65 L 1035.17 688.15 L 1036.64 689.66 L 1038.11 695.57 L 1039.58 688.67 L 1041.06 689.48 L 1042.53 686.07 L 1044.00 691.53 L 1045.47 692.62 L 1046.94 689.69 L 1048.42 695.49 L 1049.89 696.34 L 1051.36 696.34" stroke="#FB8C00" />
<text x="90" y="711.25" font-size="14" font-weight="700">Giroscópio (magnitude) (u.a.)</text>
<rect class="event" x="443.33" y="717.25" width="343.03" height="192.75" />
<line class="eventline" x1="443.33" y1="717.25" x2="443.33" y2="910.00" />
<line class="eventline" x1="786.36" y1="717.25" x2="786.36" y2="910.00" />
<line class="grid" x1="90" y1="910.00" x2="1150" y2="910.00" />
<text class="small" x="80" y="914.00" text-anchor="end">0.00</text>
<line class="grid" x1="90" y1="871.45" x2="1150" y2="871.45" />
<text class="small" x="80" y="875.45" text-anchor="end">0.05</text>
<line class="grid" x1="90" y1="832.90" x2="1150" y2="832.90" />
<text class="small" x="80" y="836.90" text-anchor="end">0.10</text>
<line class="grid" x1="90" y1="794.35" x2="1150" y2="794.35" />
<text class="small" x="80" y="798.35" text-anchor="end">0.15</text>
<line class="grid" x1="90" y1="755.80" x2="1150" y2="755.80" />
<text class="small" x="80" y="759.80" text-anchor="end">0.20</text>
<line class="grid" x1="90" y1="717.25" x2="1150" y2="717.25" />
<text class="small" x="80" y="721.25" text-anchor="end">0.25</text>
<line class="grid" x1="90.00" y1="717.25" x2="90.00" y2="910.00" />
<line class="grid" x1="266.67" y1="717.25" x2="266.67" y2="910.00" />
<line class="grid" x1="443.33" y1="717.25" x2="443.33" y2="910.00" />
<line class="grid" x1="620.00" y1="717.25" x2="620.00" y2="910.00" />
<line class="grid" x1="796.67" y1="717.25" x2="796.67" y2="910.00" />
<line class="grid" x1="973.33" y1="717.25" x2="973.33" y2="910.00" />
<line class="grid" x1="1150.00" y1="717.25" x2="1150.00" y2="910.00" />
<line class="axis" x1="90" y1="717.25" x2="90" y2="910.00" />
<line class="axis" x1="90" y1="910.00" x2="1150" y2="910.00" />
<path class="series" d="M 178.33 909.65 L 179.81 909.77 L 181.28 909.84 L 182.75 909.80 L 184.22 909.84 L 185.69 909.87 L 187.17 909.73 L 188.64 909.64 L 190.11 909.77 L 191.58 909.82 L 193.06 909.78 L 194.53 909.77 L 196.00 909.73 L 197.47 909.73 L 198.94 909.84 L 200.42 909.83 L 201.89 909.72 L 203.36 909.72 L 204.83 909.67 L 206.31 909.74 L 207.78 909.74 L 209.25 909.82 L 210.72 909.77 L 212.19 909.86 L 213.67 909.86 L 215.14 909.77 L 216.61 909.72 L 218.08 909.76 L 219.56 909.76 L 221.03 909.78 L 222.50 909.62 L 223.97 909.75 L 225.44 909.74 L 226.92 909.80 L 228.39 909.73 L 229.86 909.86 L 231.33 909.82 L 232.81 909.84 L 234.28 909.73 L 235.75 909.85 L 237.22 909.78 L 238.69 909.87 L 240.17 909.75 L 241.64 909.96 L 243.11 909.83 L 244.58 909.97 L 246.06 909.83 L 247.53 909.91 L 249.00 909.92 L 250.47 909.93 L 251.94 909.92 L 253.42 909.83 L 254.89 909.90 L 256.36 909.92 L 257.83 909.95 L 259.31 909.93 L 260.78 909.91 L 262.25 909.93 L 263.72 909.90 L 265.19 909.93 L 266.67 909.90 L 268.14 909.89 L 269.61 909.81 L 271.08 909.86 L 272.56 909.83 L 274.03 909.77 L 275.50 909.68 L 276.97 909.67 L 278.44 909.72 L 279.92 909.78 L 281.39 909.67 L 282.86 909.75 L 284.33 909.78 L 285.81 909.80 L 287.28 909.75 L 288.75 909.69 L 290.22 909.65 L 291.69 909.61 L 293.17 909.68 L 294.64 909.80 L 296.11 909.72 L 297.58 909.74 L 299.06 909.74 L 300.53 909.74 L 302.00 909.58 L 303.47 909.65 L 304.94 909.66 L 306.42 909.63 L 307.89 909.60 L 309.36 909.55 L 310.83 909.57 L 312.31 909.69 L 313.78 909.75 L 315.25 909.80 L 316.72 909.61 L 318.19 909.62 L 319.67 909.57 L 321.14 909.66 L 322.61 909.67 L 324.08 909.74 L 325.56 909.63 L 327.03 909.70 L 328.50 909.65 L 329.97 909.70 L 331.44 909.77 L 332.92 909.79 L 334.39 909.85 L 335.86 909.73 L 337.33 909.72 L 338.81 909.60 L 340.28 909.75 L 341.75 909.68 L 343.22 909.81 L 344.69 909.89 L 346.17 909.83 L 347.64 909.79 L 349.11 909.85 L 350.58 909.78 L 352.06 909.83 L 353.53 908.89 L 355.00 894.28 L 356.47 889.44 L 357.94 892.42 L 359.42 896.28 L 360.89 881.29 L 362.36 874.89 L 363.83 875.44 L 365.31 883.12 L 366.78 894.20 L 368.25 896.31 L 369.72 891.31 L 371.19 891.31 L 372.67 897.26 L 374.14 898.74 L 375.61 903.60 L 377.08 904.95 L 378.56 903.60 L 380.03 903.56 L 381.50 895.38 L 382.97 886.47 L 384.44 886.38 L 385.92 878.41 L 387.39 894.98 L 388.86 879.81 L 390.33 882.21 L 391.81 880.41 L 393.28 882.82 L 394.75 875.38 L 396.22 845.94 L 397.69 869.48 L 399.17 868.39 L 400.64 889.41 L 402.11 893.99 L 403.58 893.10 L 405.06 845.19 L 406.53 843.60 L 408.00 811.60 L 409.47 834.81 L 410.94 790.99 L 412.42 803.09 L 413.89 811.36 L 415.36 845.77 L 416.83 885.87 L 418.31 905.47 L 419.78 905.30 L 421.25 906.22 L 422.72 895.78 L 424.19 886.19 L 425.67 881.60 L 427.14 877.18 L 428.61 869.83 L 430.08 885.90 L 431.56 894.32 L 433.03 903.91 L 434.50 905.06 L 435.97 896.82 L 437.44 894.62 L 438.92 896.39 L 440.39 900.54 L 441.86 899.19 L 443.33 897.83 L 444.81 894.23 L 446.28 888.45 L 447.75 890.31 L 449.22 903.34 L 450.69 901.20 L 452.17 894.24 L 453.64 899.50 L 455.11 897.92 L 456.58 904.15 L 458.06 894.81 L 459.53 905.82 L 461.00 902.23 L 462.47 902.98 L 463.94 904.07 L 465.42 903.11 L 466.89 904.90 L 468.36 904.13 L 469.83 904.70 L 471.31 908.09 L 472.78 908.08 L 474.25 908.93 L 475.72 909.40 L 477.19 909.68 L 478.67 909.77 L 480.14 909.54 L 481.61 909.56 L 483.08 909.67 L 484.56 909.69 L 486.03 909.59 L 487.50 909.62 L 488.97 909.72 L 490.44 909.84 L 491.92 909.77 L 493.39 909.85 L 494.86 909.86 L 496.33 909.92 L 497.81 909.86 L 499.28 909.92 L 500.75 909.86 L 502.22 909.84 L 503.69 909.94 L 505.17 909.88 L 506.64 909.89 L 508.11 909.87 L 509.58 909.86 L 511.06 909.86 L 512.53 909.93 L 514.00 909.80 L 515.47 909.83 L 516.94 909.90 L 518.42 909.15 L 519.89 908.92 L 521.36 909.20 L 522.83 909.62 L 524.31 909.81 L 525.78 909.76 L 527.25 909.89 L 528.72 909.93 L 530.19 909.84 L 531.67 909.81 L 533.14 909.96 L 534.61 909.87 L 536.08 909.86 L 537.56 909.87 L 539.03 909.90 L 540.50 909.93 L 541.97 909.93 L 543.44 909.85 L 544.92 909.85 L 546.39 909.97 L 547.86 909.85 L 549.33 909.68 L 550.81 909.80 L 552.28 909.87 L 553.75 909.80 L 555.22 909.86 L 556.69 909.91 L 558.17 909.90 L 559.64 909.89 L 561.11 909.96 L 562.58 909.87 L 564.06 909.86 L 565.53 909.33 L 567.00 901.96 L 568.47 907.13 L 569.94 906.75 L 571.42 907.92 L 572.89 908.90 L 574.36 909.63 L 575.83 909.41 L 577.31 909.72 L 578.78 909.60 L 580.25 909.69 L 581.72 909.80 L 583.19 909.68 L 584.67 909.82 L 586.14 909.66 L 587.61 909.70 L 589.08 909.82 L 590.56 909.80 L 592.03 909.91 L 593.50 909.86 L 594.97 909.83 L 596.44 909.87 L 597.92 909.85 L 599.39 909.88 L 600.86 909.91 L 602.33 909.89 L 603.81 909.84 L 605.28 908.61 L 606.75 907.01 L 608.22 907.84 L 609.69 909.31 L 611.17 909.61 L 612.64 909.76 L 614.11 909.86 L 615.58 909.87 L 617.06 909.90 L 618.53 909.90 L 620.00 909.80 L 621.47 909.88 L 622.94 909.84 L 624.42 909.90 L 625.89 909.97 L 627.36 909.93 L 628.83 909.88 L 630.31 909.93 L 631.78 909.97 L 633.25 909.90 L 634.72 909.77 L 636.19 909.92 L 637.67 909.87 L 639.14 909.84 L 640.61 909.92 L 642.08 909.83 L 643.56 909.95 L 645.03 909.78 L 646.50 909.89 L 647.97 909.50 L 649.44 906.19 L 650.92 907.11 L 652.39 909.49 L 653.86 909.81 L 655.33 909.91 L 656.81 909.82 L 658.28 909.82 L 659.75 909.90 L 661.22 909.85 L 662.69 909.87 L 664.17 909.74 L 665.64 909.88 L 667.11 909.82 L 668.58 909.84 L 670.06 909.84 L 671.53 909.94 L 673.00 909.74 L 674.47 909.75 L 675.94 909.90 L 677.42 909.70 L 678.89 909.91 L 680.36 909.84 L 681.83 909.87 L 683.31 909.89 L 684.78 909.94 L 686.25 909.85 L 687.72 909.80 L 689.19 909.84 L 690.67 909.75 L 692.14 909.88 L 693.61 909.81 L 695.08 909.90 L 696.56 909.88 L 698.03 909.87 L 699.50 909.81 L 700.97 909.91 L 702.44 909.90 L 703.92 909.79 L 705.39 909.79 L 706.86 909.90 L 708.33 909.90 L 709.81 909.66 L 711.28 905.78 L 712.75 906.59 L 714.22 906.36 L 715.69 906.45 L 717.17 907.66 L 718.64 908.31 L 720.11 908.99 L 721.58 909.68 L 723.06 909.75 L 724.53 909.84 L 726.00 909.74 L 727.47 909.99 L 728.94 909.76 L 730.42 909.88 L 731.89 909.95 L 733.36 909.86 L 734.83 909.83 L 736.31 909.80 L 737.78 909.89 L 739.25 909.91 L 740.72 909.78 L 742.19 909.80 L 743.67 909.85 L 745.14 909.82 L 746.61 909.84 L 748.08 909.80 L 749.56 909.87 L 751.03 909.67 L 752.50 905.11 L 753.97 908.22 L 755.44 909.60 L 756.92 909.80 L 758.39 909.83 L 759.86 909.87 L 761.33 909.90 L 762.81 909.80 L 764.28 909.94 L 765.75 909.86 L 767.22 907.48 L 768.69 905.64 L 770.17 900.90 L 771.64 905.59 L 773.11 908.03 L 774.58 908.64 L 776.06 909.61 L 777.53 909.12 L 779.00 909.52 L 780.47 905.30 L 781.94 901.23 L 783.42 905.10 L 784.89 900.81 L 786.36 897.82 L 787.83 896.61 L 789.31 894.00 L 790.78 864.57 L 792.25 899.12 L 793.72 902.28 L 795.19 891.03 L 796.67 882.99 L 798.14 883.03 L 799.61 870.53 L 801.08 878.20 L 802.56 881.22 L 804.03 879.18 L 805.50 880.66 L 806.97 867.35 L 808.44 863.71 L 809.92 847.55 L 811.39 841.56 L 812.86 884.39 L 814.33 875.25 L 815.81 889.28 L 817.28 893.92 L 818.75 879.69 L 820.22 870.96 L 821.69 869.67 L 823.17 847.78 L 824.64 831.33 L 826.11 864.32 L 827.58 874.49 L 829.06 899.87 L 830.53 895.47 L 832.00 877.63 L 833.47 880.83 L 834.94 882.55 L 836.42 871.64 L 837.89 874.14 L 839.36 874.89 L 840.83 878.14 L 842.31 874.63 L 843.78 873.33 L 845.25 863.34 L 846.72 866.71 L 848.19 873.56 L 849.67 872.58 L 851.14 876.62 L 852.61 887.97 L 854.08 903.38 L 855.56 888.62 L 857.03 881.33 L 858.50 856.84 L 859.97 862.02 L 861.44 875.32 L 862.92 896.55 L 864.39 881.69 L 865.86 887.07 L 867.33 897.60 L 868.81 881.94 L 870.28 890.00 L 871.75 891.03 L 873.22 888.47 L 874.69 888.47 L 876.17 889.75 L 877.64 883.75 L 879.11 865.18 L 880.58 879.43 L 882.06 875.07 L 883.53 875.00 L 885.00 896.03 L 886.47 900.65 L 887.94 904.31 L 889.42 893.88 L 890.89 881.83 L 892.36 878.17 L 893.83 878.13 L 895.31 882.17 L 896.78 900.15 L 898.25 900.06 L 899.72 904.98 L 901.19 887.03 L 902.67 891.42 L 904.14 895.02 L 905.61 892.73 L 907.08 880.79 L 908.56 871.37 L 910.03 880.34 L 911.50 885.60 L 912.97 893.30 L 914.44 895.55 L 915.92 887.36 L 917.39 888.60 L 918.86 882.62 L 920.33 848.64 L 921.81 860.06 L 923.28 880.57 L 924.75 866.61 L 926.22 833.62 L 927.69 824.80 L 929.17 829.91 L 930.64 844.40 L 932.11 865.55 L 933.58 873.52 L 935.06 898.05 L 936.53 903.44 L 938.00 896.70 L 939.47 899.96 L 940.94 888.19 L 942.42 877.93 L 943.89 861.88 L 945.36 858.83 L 946.83 852.56 L 948.31 853.18 L 949.78 856.51 L 951.25 853.83 L 952.72 855.92 L 954.19 858.23 L 955.67 861.62 L 957.14 823.43 L 958.61 831.45 L 960.08 860.43 L 961.56 862.13 L 963.03 861.36 L 964.50 867.21 L 965.97 873.07 L 967.44 873.33 L 968.92 876.91 L 970.39 878.70 L 971.86 881.61 L 973.33 891.89 L 974.81 888.54 L 976.28 895.01 L 977.75 893.87 L 979.22 905.21 L 980.69 899.33 L 982.17 907.26 L 983.64 907.90 L 985.11 907.62 L 986.58 905.16 L 988.06 906.24 L 989.53 902.07 L 991.00 903.59 L 992.47 902.57 L 993.94 900.70 L 995.42 902.37 L 996.89 902.28 L 998.36 902.67 L 999.83 902.90 L 1001.31 903.06 L 1002.78 902.58 L 1004.25 903.00 L 1005.72 900.59 L 1007.19 898.49 L 1008.67 899.54 L 1010.14 898.71 L 1011.61 901.86 L 1013.08 904.09 L 1014.56 905.62 L 1016.03 905.28 L 1017.50 902.97 L 1018.97 903.69 L 1020.44 903.62 L 1021.92 906.60 L 1023.39 905.53 L 1024.86 905.59 L 1026.33 904.16 L 1027.81 903.33 L 1029.28 902.04 L 1030.75 902.59 L 1032.22 901.69 L 1033.69 901.31 L 1035.17 899.76 L 1036.64 902.21 L 1038.11 886.88 L 1039.58 887.74 L 1041.06 896.67 L 1042.53 904.48 L 1044.00 895.02 L 1045.47 899.84 L 1046.94 896.19 L 1048.42 895.61 L 1049.89 905.11 L 1051.36 905.11" stroke="#E53935" />
<text x="620.00" y="952" font-size="15" text-anchor="middle">minutos (relativo ao início do evento)</text>
<text class="small" x="90.00" y="936" text-anchor="middle">-4.00</text>
<text class="small" x="266.67" y="936" text-anchor="middle">-2.00</text>
<text class="small" x="443.33" y="936" text-anchor="middle">0.00</text>
<text class="small" x="620.00" y="936" text-anchor="middle">2.00</text>
<text class="small" x="796.67" y="936" text-anchor="middle">4.00</text>
<text class="small" x="973.33" y="936" text-anchor="middle">6.00</text>
<text class="small" x="1150.00" y="936" text-anchor="middle">8.00</text>
</svg>