<?xml version="1.0" encoding="UTF-8"?>
<svg xmlns="http://www.w3.org/2000/svg" width="1180" height="980" viewBox="0 0 1180 980">
<style>
text { font-family: -apple-system, BlinkMacSystemFont, 'Segoe UI', Roboto, Helvetica, Arial, sans-serif; fill: #111; }
.small { font-size: 12px; fill: #222; }
.title { font-size: 18px; font-weight: 700; }
.axis { stroke: #111; stroke-width: 1.4; }
.grid { stroke: #E6E6E6; stroke-width: 1; }
.event { fill: #FFEB3B; fill-opacity: 0.18; }
.eventline { stroke: #F9A825; stroke-width: 1.2; stroke-dasharray: 4 3; }
.series { fill: none; stroke-width: 1.8; }
</style>
<text class="title" x="90" y="34">ciclo 14 — espera_carregamento — 2025-12-13T02:08:18-03:00 → 2025-12-13T02:10:20-03:00 (span 122s, dur 123s)</text>
<text class="small" x="90" y="54">GPS: -11.699023,-47.157439  hotspot: -11.699,-47.157</text>
<text class="small" x="90" y="70">Janela: -3.00 → 5.03 min (relativo ao início do evento)</text>
<text x="90" y="79.00" font-size="14" font-weight="700">Velocidade (km/h)</text>
<rect class="event" x="443.33" y="85.00" width="179.61" height="192.75" />
<line class="eventline" x1="443.33" y1="85.00" x2="443.33" y2="277.75" />
<line class="eventline" x1="622.94" y1="85.00" x2="622.94" y2="277.75" />
<line class="grid" x1="90" y1="277.75" x2="1150" y2="277.75" />
<text class="small" x="80" y="281.75" text-anchor="end">0.00</text>
<line class="grid" x1="90" y1="239.20" x2="1150" y2="239.20" />
<text class="small" x="80" y="243.20" text-anchor="end">10.0</text>
<line class="grid" x1="90" y1="200.65" x2="1150" y2="200.65" />
<text class="small" x="80" y="204.65" text-anchor="end">20.0</text>
<line class="grid" x1="90" y1="162.10" x2="1150" y2="162.10" />
<text class="small" x="80" y="166.10" text-anchor="end">30.0</text>
<line class="grid" x1="90" y1="123.55" x2="1150" y2="123.55" />
<text class="small" x="80" y="127.55" text-anchor="end">40.0</text>
<line class="grid" x1="90" y1="85.00" x2="1150" y2="85.00" />
<text class="small" x="80" y="89.00" text-anchor="end">50.0</text>
<line class="grid" x1="90.00" y1="85.00" x2="90.00" y2="277.75" />
<line class="grid" x1="266.67" y1="85.00" x2="266.67" y2="277.75" />
<line class="grid" x1="443.33" y1="85.00" x2="443.33" y2="277.75" />
<line class="grid" x1="620.00" y1="85.00" x2="620.00" y2="277.75" />
<line class="grid" x1="796.67" y1="85.00" x2="796.67" y2="277.75" />
<line class="grid" x1="973.33" y1="85.00" x2="973.33" y2="277.75" />
<line class="grid" x1="1150.00" y1="85.00" x2="1150.00" y2="277.75" />
<line class="axis" x1="90" y1="85.00" x2="90" y2="277.75" />
<line class="axis" x1="90" y1="277.75" x2="1150" y2="277.75" />
<path class="series" d="M 178.33 157.57 L 179.81 159.51 L 181.28 159.79 L 182.75 160.34 L 184.22 159.23 L 185.69 158.82 L 187.17 158.68 L 188.64 160.06 L 190.11 162.15 L 191.58 161.73 L 193.06 162.84 L 194.53 164.78 L 196.00 164.51 L 197.47 163.53 L 198.94 162.01 L 200.42 164.51 L 201.89 166.45 L 203.36 167.42 L 204.83 168.39 L 206.31 175.33 L 207.78 179.08 L 209.25 185.46 L 210.72 184.07 L 212.19 196.84 L 213.67 201.56 L 215.14 204.06 L 216.61 204.61 L 218.08 204.47 L 219.56 194.62 L 221.03 190.60 L 222.50 175.89 L 223.97 175.19 L 225.44 172.83 L 226.92 169.50 L 228.39 169.78 L 229.86 169.36 L 231.33 171.58 L 232.81 173.11 L 234.28 177.97 L 235.75 176.44 L 237.22 182.96 L 238.69 196.70 L 240.17 203.64 L 241.64 216.69 L 243.11 217.52 L 244.58 224.18 L 246.06 224.87 L 247.53 223.90 L 249.00 217.24 L 250.47 224.04 L 251.94 219.88 L 253.42 224.04 L 254.89 233.48 L 256.36 232.65 L 257.83 235.01 L 259.31 236.53 L 260.78 240.83 L 262.25 245.41 L 263.72 252.35 L 265.19 260.12 L 266.67 265.95 L 268.14 274.42 L 269.61 277.75 L 271.08 277.75 L 272.56 277.75 L 274.03 277.75 L 275.50 277.75 L 276.97 277.75 L 278.44 277.75 L 279.92 277.75 L 281.39 277.75 L 282.86 277.75 L 284.33 277.75 L 285.81 271.50 L 287.28 271.23 L 288.75 273.17 L 290.22 274.28 L 291.69 277.75 L 293.17 277.75 L 294.64 277.75 L 296.11 277.75 L 297.58 277.75 L 299.06 277.75 L 300.53 277.75 L 302.00 277.75 L 303.47 277.75 L 304.94 277.75 L 306.42 277.75 L 307.89 277.75 L 309.36 277.75 L 310.83 277.75 L 312.31 277.75 L 313.78 272.75 L 315.25 271.64 L 316.72 269.15 L 318.19 262.48 L 319.67 259.99 L 321.14 253.74 L 322.61 243.61 L 324.08 241.25 L 325.56 243.06 L 327.03 243.89 L 328.50 247.50 L 329.97 246.80 L 331.44 243.06 L 332.92 238.20 L 334.39 234.87 L 335.86 235.14 L 337.33 232.09 L 338.81 225.01 L 340.28 222.79 L 341.75 221.68 L 343.22 224.32 L 344.69 211.14 L 346.17 223.07 L 347.64 219.60 L 349.11 216.96 L 350.58 216.83 L 352.06 219.32 L 353.53 217.10 L 355.00 213.77 L 356.47 213.36 L 357.94 212.38 L 359.42 204.20 L 360.89 201.42 L 362.36 200.73 L 363.83 200.73 L 365.31 197.26 L 366.78 190.60 L 368.25 186.02 L 369.72 191.98 L 371.19 189.49 L 372.67 189.90 L 374.14 194.34 L 375.61 187.82 L 377.08 185.60 L 378.56 183.52 L 380.03 179.49 L 381.50 176.58 L 382.97 178.66 L 384.44 182.41 L 385.92 184.63 L 387.39 188.79 L 388.86 186.71 L 390.33 188.79 L 391.81 191.85 L 393.28 196.84 L 394.75 202.11 L 396.22 204.61 L 397.69 207.39 L 399.17 212.80 L 400.64 222.24 L 402.11 218.63 L 403.58 216.83 L 405.06 219.32 L 406.53 220.71 L 408.00 219.18 L 409.47 223.07 L 410.94 226.40 L 412.42 234.59 L 413.89 235.70 L 415.36 241.81 L 416.83 239.72 L 418.31 238.34 L 419.78 237.64 L 421.25 240.28 L 422.72 238.61 L 424.19 235.98 L 425.67 236.12 L 427.14 240.56 L 428.61 240.42 L 430.08 250.27 L 431.56 241.11 L 433.03 243.33 L 434.50 239.17 L 435.97 247.22 L 437.44 254.57 L 438.92 261.51 L 440.39 266.93 L 441.86 270.53 L 443.33 277.75 L 444.81 277.75 L 446.28 277.75 L 447.75 277.75 L 449.22 277.75 L 450.69 277.75 L 452.17 277.75 L 453.64 277.75 L 455.11 277.75 L 456.58 277.75 L 458.06 277.75 L 459.53 277.75 L 461.00 277.75 L 462.47 277.75 L 463.94 277.75 L 465.42 277.75 L 466.89 277.75 L 468.36 277.75 L 469.83 277.75 L 471.31 277.75 L 472.78 277.75 L 474.25 277.75 L 475.72 277.75 L 477.19 277.75 L 478.67 277.75 L 480.14 277.75 L 481.61 277.75 L 483.08 277.75 L 484.56 277.75 L 486.03 277.75 L 487.50 277.75 L 488.97 277.75 L 490.44 277.75 L 491.92 277.75 L 493.39 277.75 L 494.86 277.75 L 496.33 277.75 L 497.81 277.75 L 499.28 277.75 L 500.75 277.75 L 502.22 277.75 L 503.69 277.75 L 505.17 277.75 L 506.64 277.75 L 508.11 277.75 L 509.58 277.75 L 511.06 277.75 L 512.53 277.75 L 514.00 277.75 L 515.47 277.75 L 516.94 277.75 L 518.42 277.75 L 519.89 277.75 L 521.36 277.75 L 522.83 277.75 L 524.31 277.75 L 525.78 277.75 L 527.25 277.75 L 528.72 277.75 L 530.19 277.75 L 531.67 277.75 L 533.14 277.75 L 534.61 277.75 L 536.08 277.75 L 537.56 277.75 L 539.03 277.75 L 540.50 277.75 L 541.97 277.75 L 543.44 277.75 L 544.92 277.75 L 546.39 277.75 L 547.86 277.75 L 549.33 277.75 L 550.81 277.75 L 552.28 277.75 L 553.75 277.75 L 555.22 277.75 L 556.69 277.75 L 558.17 277.75 L 559.64 277.75 L 561.11 277.75 L 562.58 277.75 L 564.06 277.75 L 565.53 277.75 L 567.00 277.75 L 568.47 277.75 L 569.94 277.75 L 571.42 277.75 L 572.89 277.75 L 574.36 277.75 L 575.83 277.75 L 577.31 277.75 L 578.78 277.75 L 580.25 277.75 L 581.72 277.75 L 583.19 277.75 L 584.67 277.75 L 586.14 277.75 L 587.61 277.75 L 589.08 277.75 L 590.56 277.75 L 592.03 277.75 L 593.50 277.75 L 594.97 277.75 L 596.44 277.75 L 597.92 277.75 L 599.39 277.75 L 600.86 277.75 L 602.33 277.75 L 603.81 277.75 L 605.28 277.75 L 606.75 277.75 L 608.22 277.75 L 609.69 277.75 L 611.17 277.75 L 612.64 277.75 L 614.11 277.75 L 615.58 277.75 L 617.06 277.75 L 618.53 277.75 L 620.00 277.75 L 621.47 277.75 L 622.94 277.75 L 624.42 271.09 L 625.89 272.06 L 627.36 270.12 L 628.83 268.87 L 630.31 269.28 L 631.78 263.04 L 633.25 259.85 L 634.72 260.40 L 636.19 263.32 L 637.67 270.67 L 639.14 267.34 L 640.61 266.65 L 642.08 261.37 L 643.56 263.87 L 645.03 259.15 L 646.50 258.74 L 647.97 257.35 L 649.44 256.52 L 650.92 256.10 L 652.39 260.12 L 653.86 256.52 L 655.33 256.66 L 656.81 257.63 L 658.28 258.32 L 659.75 257.90 L 661.22 263.04 L 662.69 261.65 L 664.17 263.32 L 665.64 277.75 L 667.11 277.75 L 668.58 277.75 L 670.06 277.75 L 671.53 277.75 L 673.00 277.75 L 674.47 277.75 L 675.94 277.75 L 677.42 277.75 L 678.89 277.75 L 680.36 277.75 L 681.83 277.75 L 683.31 277.75 L 684.78 277.75 L 686.25 277.75 L 687.72 277.75 L 689.19 277.75 L 690.67 263.04 L 692.14 261.93 L 693.61 262.76 L 695.08 266.23 L 696.56 265.95 L 698.03 268.59 L 699.50 267.48 L 700.97 264.84 L 702.44 268.59 L 703.92 269.28 L 705.39 269.70 L 706.86 271.37 L 708.33 270.53 L 709.81 269.42 L 711.28 272.34 L 712.75 270.12 L 714.22 269.70 L 715.69 277.75 L 717.17 277.75 L 718.64 277.75 L 720.11 277.75 L 721.58 277.75 L 723.06 277.75 L 724.53 277.75 L 726.00 277.75 L 727.47 277.75 L 728.94 277.75 L 730.42 277.75 L 731.89 277.75 L 733.36 277.75 L 734.83 277.75 L 736.31 277.75 L 737.78 277.75 L 739.25 277.75 L 740.72 277.75 L 742.19 277.75 L 743.67 277.75 L 745.14 277.75 L 746.61 277.75 L 748.08 277.75 L 749.56 277.75 L 751.03 277.75 L 752.50 277.75 L 753.97 277.75 L 755.44 277.75 L 756.92 277.75 L 758.39 277.75 L 759.86 277.75 L 761.33 277.75 L 762.81 277.75 L 764.28 277.75 L 765.75 277.75 L 767.22 277.75 L 768.69 277.75 L 770.17 277.75 L 771.64 277.75 L 773.11 277.75 L 774.58 277.75 L 776.06 277.75 L 777.53 277.75 L 779.00 277.75 L 780.47 277.75 L 781.94 277.75 L 783.42 277.75 L 784.89 277.75 L 786.36 277.75 L 787.83 277.75 L 789.31 277.75 L 790.78 277.75 L 792.25 277.75 L 793.72 277.75 L 795.19 277.75 L 796.67 277.75 L 798.14 277.75 L 799.61 277.75 L 801.08 277.75 L 802.56 277.75 L 804.03 277.75 L 805.50 277.75 L 806.97 277.75 L 808.44 277.75 L 809.92 277.75 L 811.39 277.75 L 812.86 277.75 L 814.33 277.75 L 815.81 277.75 L 817.28 277.75 L 818.75 277.75 L 820.22 277.75 L 821.69 277.75 L 823.17 277.75 L 824.64 277.75 L 826.11 277.75 L 827.58 277.75 L 829.06 277.75 L 830.53 277.75 L 832.00 277.75 L 833.47 277.75 L 834.94 277.75 L 836.42 277.75 L 837.89 277.75 L 839.36 277.75 L 840.83 277.75 L 842.31 277.75 L 843.78 277.75 L 845.25 277.75 L 846.72 277.75 L 848.19 277.75 L 849.67 277.75 L 851.14 277.75 L 852.61 277.75 L 854.08 277.75 L 855.56 277.75 L 857.03 277.75 L 858.50 277.75 L 859.97 277.75 L 861.44 277.75 L 862.92 277.75 L 864.39 277.75 L 865.86 277.75 L 867.33 277.75 L 868.81 277.75 L 870.28 277.75 L 871.75 277.75 L 873.22 277.75 L 874.69 277.75 L 876.17 277.75 L 877.64 277.75 L 879.11 277.75 L 880.58 277.75 L 882.06 277.75 L 883.53 277.75 L 885.00 277.75 L 886.47 277.75 L 887.94 277.75" stroke="#1976D2" />
<text x="90" y="289.75" font-size="14" font-weight="700">Inclinação (graus)</text>
<rect class="event" x="443.33" y="295.75" width="179.61" height="192.75" />
<line class="eventline" x1="443.33" y1="295.75" x2="443.33" y2="488.50" />
<line class="eventline" x1="622.94" y1="295.75" x2="622.94" y2="488.50" />
<line class="grid" x1="90" y1="488.50" x2="1150" y2="488.50" />
<text class="small" x="80" y="492.50" text-anchor="end">-10.0</text>
<line class="grid" x1="90" y1="449.95" x2="1150" y2="449.95" />
<text class="small" x="80" y="453.95" text-anchor="end">0.00</text>
<line class="grid" x1="90" y1="411.40" x2="1150" y2="411.40" />
<text class="small" x="80" y="415.40" text-anchor="end">10.0</text>
<line class="grid" x1="90" y1="372.85" x2="1150" y2="372.85" />
<text class="small" x="80" y="376.85" text-anchor="end">20.0</text>
<line class="grid" x1="90" y1="334.30" x2="1150" y2="334.30" />
<text class="small" x="80" y="338.30" text-anchor="end">30.0</text>
<line class="grid" x1="90" y1="295.75" x2="1150" y2="295.75" />
<text class="small" x="80" y="299.75" text-anchor="end">40.0</text>
<line class="grid" x1="90.00" y1="295.75" x2="90.00" y2="488.50" />
<line class="grid" x1="266.67" y1="295.75" x2="266.67" y2="488.50" />
<line class="grid" x1="443.33" y1="295.75" x2="443.33" y2="488.50" />
<line class="grid" x1="620.00" y1="295.75" x2="620.00" y2="488.50" />
<line class="grid" x1="796.67" y1="295.75" x2="796.67" y2="488.50" />
<line class="grid" x1="973.33" y1="295.75" x2="973.33" y2="488.50" />
<line class="grid" x1="1150.00" y1="295.75" x2="1150.00" y2="488.50" />
<line class="axis" x1="90" y1="295.75" x2="90" y2="488.50" />
<line class="axis" x1="90" y1="488.50" x2="1150" y2="488.50" />
<path class="series" d="M 178.33 401.77 L 179.81 405.88 L 181.28 407.29 L 182.75 408.03 L 184.22 407.96 L 185.69 411.09 L 187.17 410.76 L 188.64 406.00 L 190.11 406.92 L 191.58 403.62 L 193.06 401.06 L 194.53 407.57 L 196.00 407.91 L 197.47 406.14 L 198.94 404.04 L 200.42 398.70 L 201.89 397.66 L 203.36 394.78 L 204.83 396.53 L 206.31 390.89 L 207.78 383.26 L 209.25 383.99 L 210.72 375.48 L 212.19 371.93 L 213.67 375.78 L 215.14 374.43 L 216.61 381.39 L 218.08 391.96 L 219.56 392.90 L 221.03 385.39 L 222.50 383.13 L 223.97 382.08 L 225.44 381.69 L 226.92 381.67 L 228.39 383.49 L 229.86 381.86 L 231.33 384.81 L 232.81 382.44 L 234.28 382.69 L 235.75 376.49 L 237.22 371.16 L 238.69 359.70 L 240.17 371.36 L 241.64 372.01 L 243.11 384.60 L 244.58 390.77 L 246.06 399.64 L 247.53 400.41 L 249.00 402.92 L 250.47 389.97 L 251.94 399.37 L 253.42 394.19 L 254.89 391.52 L 256.36 383.45 L 257.83 395.86 L 259.31 397.52 L 260.78 395.68 L 262.25 389.14 L 263.72 396.47 L 265.19 392.10 L 266.67 391.59 L 268.14 402.31 L 269.61 404.89 L 271.08 416.02 L 272.56 400.33 L 274.03 404.89 L 275.50 406.55 L 276.97 406.96 L 278.44 407.13 L 279.92 407.06 L 281.39 407.01 L 282.86 405.16 L 284.33 399.37 L 285.81 405.48 L 287.28 408.19 L 288.75 408.34 L 290.22 410.57 L 291.69 407.92 L 293.17 405.35 L 294.64 405.66 L 296.11 405.62 L 297.58 405.65 L 299.06 405.61 L 300.53 405.67 L 302.00 405.70 L 303.47 405.69 L 304.94 405.60 L 306.42 405.42 L 307.89 405.31 L 309.36 405.30 L 310.83 406.76 L 312.31 410.70 L 313.78 410.45 L 315.25 410.12 L 316.72 416.14 L 318.19 412.41 L 319.67 419.78 L 321.14 416.89 L 322.61 420.07 L 324.08 403.86 L 325.56 392.46 L 327.03 389.20 L 328.50 385.46 L 329.97 384.35 L 331.44 382.03 L 332.92 377.79 L 334.39 376.03 L 335.86 372.91 L 337.33 393.05 L 338.81 399.42 L 340.28 403.04 L 341.75 393.50 L 343.22 420.78 L 344.69 394.88 L 346.17 414.28 L 347.64 412.99 L 349.11 413.89 L 350.58 406.44 L 352.06 411.75 L 353.53 414.99 L 355.00 411.07 L 356.47 410.50 L 357.94 419.54 L 359.42 406.70 L 360.89 405.86 L 362.36 401.54 L 363.83 407.23 L 365.31 421.60 L 366.78 420.48 L 368.25 399.02 L 369.72 414.12 L 371.19 405.57 L 372.67 409.14 L 374.14 413.16 L 375.61 402.76 L 377.08 401.16 L 378.56 401.91 L 380.03 408.77 L 381.50 401.17 L 382.97 395.69 L 384.44 400.54 L 385.92 395.53 L 387.39 395.91 L 388.86 397.44 L 390.33 395.91 L 391.81 396.30 L 393.28 401.40 L 394.75 396.99 L 396.22 397.43 L 397.69 395.70 L 399.17 390.50 L 400.64 390.50 L 402.11 415.10 L 403.58 411.76 L 405.06 397.60 L 406.53 403.05 L 408.00 402.30 L 409.47 399.57 L 410.94 401.77 L 412.42 397.06 L 413.89 409.88 L 415.36 406.12 L 416.83 404.19 L 418.31 402.45 L 419.78 399.67 L 421.25 397.08 L 422.72 410.56 L 424.19 404.74 L 425.67 401.39 L 427.14 408.72 L 428.61 411.88 L 430.08 414.36 L 431.56 414.48 L 433.03 401.80 L 434.50 408.78 L 435.97 396.35 L 437.44 388.96 L 438.92 394.46 L 440.39 408.08 L 441.86 408.50 L 443.33 405.33 L 444.81 419.67 L 446.28 417.50 L 447.75 417.14 L 449.22 417.32 L 450.69 417.45 L 452.17 417.37 L 453.64 417.41 L 455.11 417.38 L 456.58 417.42 L 458.06 417.42 L 459.53 417.42 L 461.00 417.40 L 462.47 417.42 L 463.94 417.41 L 465.42 417.38 L 466.89 417.42 L 468.36 417.46 L 469.83 417.44 L 471.31 417.41 L 472.78 417.41 L 474.25 417.42 L 475.72 417.39 L 477.19 417.47 L 478.67 417.45 L 480.14 417.51 L 481.61 417.49 L 483.08 417.48 L 484.56 417.51 L 486.03 417.50 L 487.50 417.47 L 488.97 417.48 L 490.44 417.52 L 491.92 417.47 L 493.39 417.48 L 494.86 417.46 L 496.33 417.47 L 497.81 417.46 L 499.28 417.51 L 500.75 417.45 L 502.22 417.47 L 503.69 417.46 L 505.17 417.47 L 506.64 417.48 L 508.11 417.49 L 509.58 417.46 L 511.06 417.48 L 512.53 417.47 L 514.00 417.46 L 515.47 417.44 L 516.94 417.40 L 518.42 417.41 L 519.89 417.44 L 521.36 417.41 L 522.83 417.48 L 524.31 417.49 L 525.78 417.43 L 527.25 417.45 L 528.72 417.46 L 530.19 417.43 L 531.67 417.44 L 533.14 417.40 L 534.61 417.37 L 536.08 417.41 L 537.56 417.47 L 539.03 417.45 L 540.50 417.46 L 541.97 417.47 L 543.44 417.51 L 544.92 417.42 L 546.39 417.47 L 547.86 417.47 L 549.33 417.46 L 550.81 417.48 L 552.28 417.47 L 553.75 417.47 L 555.22 417.46 L 556.69 417.47 L 558.17 417.43 L 559.64 417.46 L 561.11 417.48 L 562.58 417.48 L 564.06 417.47 L 565.53 417.46 L 567.00 417.45 L 568.47 417.47 L 569.94 417.47 L 571.42 417.48 L 572.89 417.44 L 574.36 417.46 L 575.83 417.48 L 577.31 417.47 L 578.78 417.51 L 580.25 417.54 L 581.72 417.46 L 583.19 417.48 L 584.67 417.46 L 586.14 417.48 L 587.61 417.49 L 589.08 417.49 L 590.56 417.48 L 592.03 417.46 L 593.50 417.48 L 594.97 417.53 L 596.44 417.48 L 597.92 417.47 L 599.39 417.49 L 600.86 417.51 L 602.33 417.48 L 603.81 417.59 L 605.28 417.41 L 606.75 417.57 L 608.22 417.55 L 609.69 417.62 L 611.17 418.62 L 612.64 415.92 L 614.11 418.11 L 615.58 414.03 L 617.06 412.99 L 618.53 418.72 L 620.00 419.24 L 621.47 415.85 L 622.94 423.47 L 624.42 416.33 L 625.89 419.96 L 627.36 418.06 L 628.83 417.93 L 630.31 431.16 L 631.78 425.29 L 633.25 414.72 L 634.72 419.11 L 636.19 407.00 L 637.67 423.00 L 639.14 419.37 L 640.61 429.91 L 642.08 409.88 L 643.56 431.71 L 645.03 415.84 L 646.50 414.28 L 647.97 414.51 L 649.44 409.14 L 650.92 401.07 L 652.39 404.67 L 653.86 398.07 L 655.33 398.00 L 656.81 385.23 L 658.28 382.56 L 659.75 383.03 L 661.22 389.80 L 662.69 390.69 L 664.17 377.75 L 665.64 395.02 L 667.11 396.91 L 668.58 397.71 L 670.06 397.15 L 671.53 388.31 L 673.00 400.89 L 674.47 390.02 L 675.94 402.13 L 677.42 396.25 L 678.89 393.54 L 680.36 393.92 L 681.83 393.93 L 683.31 393.88 L 684.78 393.90 L 686.25 391.26 L 687.72 383.84 L 689.19 379.10 L 690.67 392.79 L 692.14 392.37 L 693.61 389.80 L 695.08 390.79 L 696.56 393.95 L 698.03 390.02 L 699.50 390.02 L 700.97 394.17 L 702.44 403.07 L 703.92 404.32 L 705.39 392.33 L 706.86 406.47 L 708.33 396.35 L 709.81 402.46 L 711.28 403.58 L 712.75 400.35 L 714.22 402.71 L 715.69 404.14 L 717.17 405.99 L 718.64 407.15 L 720.11 401.92 L 721.58 402.30 L 723.06 401.54 L 724.53 401.16 L 726.00 401.95 L 727.47 401.63 L 728.94 401.43 L 730.42 401.62 L 731.89 401.53 L 733.36 401.51 L 734.83 401.56 L 736.31 401.53 L 737.78 401.54 L 739.25 401.57 L 740.72 401.52 L 742.19 401.50 L 743.67 401.51 L 745.14 401.51 L 746.61 401.53 L 748.08 401.54 L 749.56 401.52 L 751.03 401.43 L 752.50 401.47 L 753.97 401.62 L 755.44 401.50 L 756.92 401.34 L 758.39 401.68 L 759.86 401.54 L 761.33 401.23 L 762.81 401.35 L 764.28 401.45 L 765.75 401.28 L 767.22 401.38 L 768.69 401.43 L 770.17 401.36 L 771.64 401.36 L 773.11 401.38 L 774.58 401.39 L 776.06 401.34 L 777.53 401.39 L 779.00 401.38 L 780.47 401.36 L 781.94 401.30 L 783.42 401.35 L 784.89 401.36 L 786.36 401.47 L 787.83 401.37 L 789.31 399.98 L 790.78 400.22 L 792.25 400.70 L 793.72 400.37 L 795.19 400.46 L 796.67 400.51 L 798.14 400.48 L 799.61 400.47 L 801.08 400.51 L 802.56 400.47 L 804.03 400.50 L 805.50 400.47 L 806.97 400.41 L 808.44 400.49 L 809.92 400.43 L 811.39 400.44 L 812.86 400.42 L 814.33 400.47 L 815.81 400.46 L 817.28 400.46 L 818.75 400.36 L 820.22 400.85 L 821.69 399.23 L 823.17 400.79 L 824.64 400.19 L 826.11 400.82 L 827.58 400.09 L 829.06 400.31 L 830.53 400.35 L 832.00 400.36 L 833.47 400.31 L 834.94 400.30 L 836.42 400.30 L 837.89 400.33 L 839.36 400.28 L 840.83 400.32 L 842.31 400.30 L 843.78 400.29 L 845.25 400.27 L 846.72 400.27 L 848.19 400.26 L 849.67 400.29 L 851.14 400.25 L 852.61 400.27 L 854.08 400.25 L 855.56 400.27 L 857.03 400.31 L 858.50 399.45 L 859.97 401.43 L 861.44 399.37 L 862.92 400.26 L 864.39 400.36 L 865.86 400.12 L 867.33 400.22 L 868.81 400.18 L 870.28 400.23 L 871.75 400.14 L 873.22 400.15 L 874.69 400.14 L 876.17 400.22 L 877.64 400.15 L 879.11 400.21 L 880.58 400.22 L 882.06 400.17 L 883.53 400.18 L 885.00 400.23 L 886.47 400.14 L 887.94 400.14" stroke="#2E7D32" />
<path class="series" d="M 178.33 431.01 L 179.81 423.26 L 181.28 427.40 L 182.75 428.17 L 184.22 429.71 L 185.69 430.55 L 187.17 441.63 L 188.64 440.18 L 190.11 428.56 L 191.58 435.72 L 193.06 425.60 L 194.53 431.80 L 196.00 421.48 L 197.47 419.93 L 198.94 424.25 L 200.42 423.67 L 201.89 426.55 L 203.36 422.54 L 204.83 425.21 L 206.31 424.58 L 207.78 425.76 L 209.25 434.34 L 210.72 438.21 L 212.19 446.49 L 213.67 443.81 L 215.14 443.87 L 216.61 440.86 L 218.08 435.73 L 219.56 437.89 L 221.03 433.89 L 222.50 429.71 L 223.97 433.68 L 225.44 443.50 L 226.92 439.42 L 228.39 428.31 L 229.86 437.20 L 231.33 444.41 L 232.81 449.18 L 234.28 441.53 L 235.75 438.09 L 237.22 426.94 L 238.69 439.08 L 240.17 436.90 L 241.64 435.81 L 243.11 424.62 L 244.58 430.21 L 246.06 436.20 L 247.53 430.57 L 249.00 415.12 L 250.47 415.17 L 251.94 416.40 L 253.42 442.12 L 254.89 436.78 L 256.36 432.95 L 257.83 417.11 L 259.31 431.05 L 260.78 439.33 L 262.25 435.45 L 263.72 434.71 L 265.19 434.17 L 266.67 438.79 L 268.14 433.11 L 269.61 435.08 L 271.08 432.63 L 272.56 436.47 L 274.03 432.17 L 275.50 434.80 L 276.97 433.03 L 278.44 433.92 L 279.92 433.95 L 281.39 433.60 L 282.86 433.75 L 284.33 436.20 L 285.81 433.57 L 287.28 434.03 L 288.75 435.08 L 290.22 432.59 L 291.69 434.54 L 293.17 435.46 L 294.64 434.47 L 296.11 434.60 L 297.58 434.91 L 299.06 434.44 L 300.53 434.80 L 302.00 434.62 L 303.47 434.67 L 304.94 434.30 L 306.42 434.76 L 307.89 434.55 L 309.36 434.34 L 310.83 434.35 L 312.31 433.08 L 313.78 432.22 L 315.25 433.81 L 316.72 429.84 L 318.19 428.25 L 319.67 425.33 L 321.14 431.67 L 322.61 418.28 L 324.08 409.12 L 325.56 437.96 L 327.03 437.10 L 328.50 439.00 L 329.97 447.97 L 331.44 439.67 L 332.92 442.96 L 334.39 444.68 L 335.86 440.81 L 337.33 448.73 L 338.81 448.30 L 340.28 445.17 L 341.75 438.37 L 343.22 440.51 L 344.69 449.40 L 346.17 440.45 L 347.64 443.12 L 349.11 445.05 L 350.58 444.54 L 352.06 429.83 L 353.53 431.99 L 355.00 428.87 L 356.47 438.08 L 357.94 455.09 L 359.42 442.21 L 360.89 446.27 L 362.36 447.86 L 363.83 445.44 L 365.31 438.81 L 366.78 446.82 L 368.25 461.41 L 369.72 452.75 L 371.19 450.27 L 372.67 452.76 L 374.14 449.98 L 375.61 443.55 L 377.08 446.54 L 378.56 427.56 L 380.03 429.52 L 381.50 434.52 L 382.97 435.17 L 384.44 446.35 L 385.92 449.21 L 387.39 453.12 L 388.86 453.99 L 390.33 447.22 L 391.81 441.15 L 393.28 436.51 L 394.75 448.07 L 396.22 447.33 L 397.69 446.38 L 399.17 448.08 L 400.64 448.08 L 402.11 442.06 L 403.58 450.70 L 405.06 456.12 L 406.53 458.05 L 408.00 464.47 L 409.47 466.55 L 410.94 466.46 L 412.42 462.08 L 413.89 460.57 L 415.36 456.18 L 416.83 438.99 L 418.31 445.96 L 419.78 425.48 L 421.25 431.78 L 422.72 429.59 L 424.19 423.32 L 425.67 435.28 L 427.14 440.91 L 428.61 439.39 L 430.08 446.54 L 431.56 430.43 L 433.03 456.21 L 434.50 425.44 L 435.97 450.57 L 437.44 446.75 L 438.92 455.59 L 440.39 452.10 L 441.86 452.17 L 443.33 455.12 L 444.81 449.90 L 446.28 449.45 L 447.75 451.31 L 449.22 449.40 L 450.69 450.59 L 452.17 449.88 L 453.64 450.01 L 455.11 450.31 L 456.58 449.95 L 458.06 450.05 L 459.53 450.17 L 461.00 450.04 L 462.47 450.08 L 463.94 450.06 L 465.42 450.07 L 466.89 450.04 L 468.36 450.17 L 469.83 450.11 L 471.31 450.04 L 472.78 450.11 L 474.25 450.14 L 475.72 450.10 L 477.19 450.11 L 478.67 450.09 L 480.14 450.13 L 481.61 450.09 L 483.08 450.13 L 484.56 450.10 L 486.03 450.12 L 487.50 450.07 L 488.97 450.13 L 490.44 450.15 L 491.92 450.14 L 493.39 450.11 L 494.86 450.05 L 496.33 450.14 L 497.81 450.08 L 499.28 450.15 L 500.75 450.14 L 502.22 450.09 L 503.69 450.16 L 505.17 450.10 L 506.64 450.13 L 508.11 450.10 L 509.58 450.12 L 511.06 450.07 L 512.53 450.08 L 514.00 450.13 L 515.47 450.10 L 516.94 450.04 L 518.42 450.06 L 519.89 450.06 L 521.36 450.07 L 522.83 450.09 L 524.31 450.08 L 525.78 450.08 L 527.25 450.08 L 528.72 450.05 L 530.19 450.06 L 531.67 450.07 L 533.14 450.05 L 534.61 450.05 L 536.08 450.07 L 537.56 450.06 L 539.03 450.19 L 540.50 450.09 L 541.97 450.14 L 543.44 450.18 L 544.92 449.96 L 546.39 450.18 L 547.86 450.09 L 549.33 450.04 L 550.81 450.11 L 552.28 450.12 L 553.75 450.06 L 555.22 450.11 L 556.69 450.13 L 558.17 450.08 L 559.64 450.12 L 561.11 450.11 L 562.58 450.14 L 564.06 450.07 L 565.53 450.10 L 567.00 450.07 L 568.47 450.10 L 569.94 450.10 L 571.42 450.11 L 572.89 450.09 L 574.36 450.17 L 575.83 450.12 L 577.31 450.10 L 578.78 450.10 L 580.25 450.14 L 581.72 450.10 L 583.19 450.12 L 584.67 450.08 L 586.14 450.12 L 587.61 450.07 L 589.08 450.15 L 590.56 450.06 L 592.03 450.12 L 593.50 450.07 L 594.97 450.11 L 596.44 450.06 L 597.92 450.09 L 599.39 450.06 L 600.86 450.09 L 602.33 450.03 L 603.81 450.06 L 605.28 450.13 L 606.75 450.13 L 608.22 449.99 L 609.69 450.09 L 611.17 449.58 L 612.64 450.48 L 614.11 450.35 L 615.58 452.52 L 617.06 451.96 L 618.53 446.38 L 620.00 447.20 L 621.47 450.61 L 622.94 442.86 L 624.42 448.20 L 625.89 449.41 L 627.36 447.76 L 628.83 452.01 L 630.31 450.20 L 631.78 452.23 L 633.25 457.83 L 634.72 463.84 L 636.19 460.22 L 637.67 463.21 L 639.14 457.48 L 640.61 451.50 L 642.08 456.73 L 643.56 456.03 L 645.03 447.69 L 646.50 443.62 L 647.97 455.46 L 649.44 445.15 L 650.92 442.95 L 652.39 448.23 L 653.86 451.06 L 655.33 452.33 L 656.81 455.76 L 658.28 449.84 L 659.75 456.67 L 661.22 449.17 L 662.69 447.65 L 664.17 454.79 L 665.64 444.34 L 667.11 446.22 L 668.58 444.44 L 670.06 447.26 L 671.53 444.41 L 673.00 442.21 L 674.47 442.29 L 675.94 448.45 L 677.42 444.96 L 678.89 444.92 L 680.36 444.67 L 681.83 444.98 L 683.31 444.78 L 684.78 444.94 L 686.25 443.46 L 687.72 440.94 L 689.19 437.61 L 690.67 441.43 L 692.14 454.99 L 693.61 453.90 L 695.08 453.96 L 696.56 451.11 L 698.03 452.46 L 699.50 452.46 L 700.97 444.66 L 702.44 449.07 L 703.92 440.78 L 705.39 435.12 L 706.86 440.49 L 708.33 439.13 L 709.81 445.04 L 711.28 439.02 L 712.75 441.69 L 714.22 447.29 L 715.69 451.08 L 717.17 452.20 L 718.64 453.17 L 720.11 452.40 L 721.58 453.44 L 723.06 453.84 L 724.53 452.17 L 726.00 452.99 L 727.47 453.38 L 728.94 452.58 L 730.42 453.17 L 731.89 452.82 L 733.36 452.89 L 734.83 453.04 L 736.31 452.87 L 737.78 453.07 L 739.25 452.91 L 740.72 453.02 L 742.19 453.02 L 743.67 453.00 L 745.14 453.03 L 746.61 452.99 L 748.08 453.04 L 749.56 453.00 L 751.03 453.05 L 752.50 452.90 L 753.97 453.09 L 755.44 452.76 L 756.92 452.69 L 758.39 453.20 L 759.86 452.22 L 761.33 452.58 L 762.81 452.94 L 764.28 452.76 L 765.75 452.68 L 767.22 452.69 L 768.69 452.79 L 770.17 452.70 L 771.64 452.68 L 773.11 452.74 L 774.58 452.76 L 776.06 452.73 L 777.53 452.76 L 779.00 452.73 L 780.47 452.75 L 781.94 452.78 L 783.42 452.78 L 784.89 452.69 L 786.36 452.98 L 787.83 450.69 L 789.31 451.97 L 790.78 451.54 L 792.25 451.09 L 793.72 451.43 L 795.19 451.37 L 796.67 451.33 L 798.14 451.31 L 799.61 451.36 L 801.08 451.38 L 802.56 451.34 L 804.03 451.34 L 805.50 451.30 L 806.97 451.37 L 808.44 451.30 L 809.92 451.30 L 811.39 451.38 L 812.86 451.34 L 814.33 451.26 L 815.81 451.41 L 817.28 451.36 L 818.75 450.90 L 820.22 452.00 L 821.69 450.12 L 823.17 450.55 L 824.64 451.58 L 826.11 450.91 L 827.58 450.62 L 829.06 450.83 L 830.53 450.92 L 832.00 450.98 L 833.47 450.90 L 834.94 450.88 L 836.42 450.82 L 837.89 450.85 L 839.36 450.91 L 840.83 450.89 L 842.31 450.94 L 843.78 450.86 L 845.25 450.82 L 846.72 450.89 L 848.19 450.90 L 849.67 450.86 L 851.14 450.84 L 852.61 450.87 L 854.08 450.90 L 855.56 450.88 L 857.03 450.81 L 858.50 450.41 L 859.97 450.61 L 861.44 450.95 L 862.92 450.78 L 864.39 450.82 L 865.86 450.86 L 867.33 450.85 L 868.81 450.85 L 870.28 450.85 L 871.75 450.79 L 873.22 450.83 L 874.69 450.81 L 876.17 450.88 L 877.64 450.89 L 879.11 450.87 L 880.58 450.85 L 882.06 450.86 L 883.53 450.88 L 885.00 450.82 L 886.47 450.81 L 887.94 450.85" stroke="#6A1B9A" />
<line x1="900.00" y1="307.75" x2="918.00" y2="307.75" stroke="#2E7D32" stroke-width="3" />
<text class="small" x="924.00" y="311.75">pitch</text>
<line x1="900.00" y1="323.75" x2="918.00" y2="323.75" stroke="#6A1B9A" stroke-width="3" />
<text class="small" x="924.00" y="327.75">roll</text>
<text x="90" y="500.50" font-size="14" font-weight="700">Aceleração (magnitude) (u.a.)</text>
<rect class="event" x="443.33" y="506.50" width="179.61" height="192.75" />
<line class="eventline" x1="443.33" y1="506.50" x2="443.33" y2="699.25" />
<line class="eventline" x1="622.94" y1="506.50" x2="622.94" y2="699.25" />
<line class="grid" x1="90" y1="699.25" x2="1150" y2="699.25" />
<text class="small" x="80" y="703.25" text-anchor="end">0.00</text>
<line class="grid" x1="90" y1="660.70" x2="1150" y2="660.70" />
<text class="small" x="80" y="664.70" text-anchor="end">0.50</text>
<line class="grid" x1="90" y1="622.15" x2="1150" y2="622.15" />
<text class="small" x="80" y="626.15" text-anchor="end">1.00</text>
<line class="grid" x1="90" y1="583.60" x2="1150" y2="583.60" />
<text class="small" x="80" y="587.60" text-anchor="end">1.50</text>
<line class="grid" x1="90" y1="545.05" x2="1150" y2="545.05" />
<text class="small" x="80" y="549.05" text-anchor="end">2.00</text>
<line class="grid" x1="90" y1="506.50" x2="1150" y2="506.50" />
<text class="small" x="80" y="510.50" text-anchor="end">2.50</text>
<line class="grid" x1="90.00" y1="506.50" x2="90.00" y2="699.25" />
<line class="grid" x1="266.67" y1="506.50" x2="266.67" y2="699.25" />
<line class="grid" x1="443.33" y1="506.50" x2="443.33" y2="699.25" />
<line class="grid" x1="620.00" y1="506.50" x2="620.00" y2="699.25" />
<line class="grid" x1="796.67" y1="506.50" x2="796.67" y2="699.25" />
<line class="grid" x1="973.33" y1="506.50" x2="973.33" y2="699.25" />
<line class="grid" x1="1150.00" y1="506.50" x2="1150.00" y2="699.25" />
<line class="axis" x1="90" y1="506.50" x2="90" y2="699.25" />
<line class="axis" x1="90" y1="699.25" x2="1150" y2="699.25" />
<path class="series" d="M 178.33 660.28 L 179.81 666.83 L 181.28 678.29 L 182.75 683.04 L 184.22 692.05 L 185.69 675.76 L 187.17 673.05 L 188.64 658.72 L 190.11 689.40 L 191.58 684.67 L 193.06 685.76 L 194.53 696.73 L 196.00 667.90 L 197.47 670.31 L 198.94 687.81 L 200.42 685.13 L 201.89 676.09 L 203.36 668.57 L 204.83 680.31 L 206.31 648.90 L 207.78 629.47 L 209.25 646.23 L 210.72 652.62 L 212.19 667.21 L 213.67 680.16 L 215.14 682.38 L 216.61 665.84 L 218.08 642.90 L 219.56 660.66 L 221.03 671.48 L 222.50 674.12 L 223.97 693.03 L 225.44 674.65 L 226.92 688.98 L 228.39 683.62 L 229.86 685.59 L 231.33 675.53 L 232.81 675.01 L 234.28 683.29 L 235.75 662.61 L 237.22 641.74 L 238.69 659.59 L 240.17 673.30 L 241.64 653.63 L 243.11 661.15 L 244.58 669.88 L 246.06 652.82 L 247.53 663.84 L 249.00 653.85 L 250.47 666.93 L 251.94 676.27 L 253.42 634.76 L 254.89 623.22 L 256.36 670.12 L 257.83 652.35 L 259.31 658.72 L 260.78 679.51 L 262.25 685.28 L 263.72 660.13 L 265.19 675.62 L 266.67 678.82 L 268.14 682.72 L 269.61 678.57 L 271.08 681.75 L 272.56 681.75 L 274.03 685.35 L 275.50 685.09 L 276.97 698.07 L 278.44 697.22 L 279.92 697.92 L 281.39 697.84 L 282.86 698.68 L 284.33 689.03 L 285.81 696.06 L 287.28 688.28 L 288.75 694.68 L 290.22 698.15 L 291.69 689.42 L 293.17 685.86 L 294.64 695.43 L 296.11 697.30 L 297.58 698.50 L 299.06 698.58 L 300.53 698.33 L 302.00 698.57 L 303.47 698.58 L 304.94 698.26 L 306.42 697.59 L 307.89 698.80 L 309.36 698.37 L 310.83 695.50 L 312.31 696.93 L 313.78 685.69 L 315.25 693.41 L 316.72 690.42 L 318.19 683.93 L 319.67 694.56 L 321.14 667.69 L 322.61 674.20 L 324.08 641.71 L 325.56 652.89 L 327.03 650.00 L 328.50 650.26 L 329.97 684.07 L 331.44 682.52 L 332.92 674.81 L 334.39 680.52 L 335.86 671.16 L 337.33 652.02 L 338.81 667.36 L 340.28 677.71 L 341.75 645.25 L 343.22 665.11 L 344.69 659.78 L 346.17 660.00 L 347.64 674.06 L 349.11 639.64 L 350.58 674.20 L 352.06 663.87 L 353.53 686.34 L 355.00 679.59 L 356.47 680.81 L 357.94 654.46 L 359.42 684.05 L 360.89 664.13 L 362.36 660.51 L 363.83 655.39 L 365.31 664.10 L 366.78 690.95 L 368.25 660.46 L 369.72 688.14 L 371.19 681.60 L 372.67 671.08 L 374.14 659.72 L 375.61 637.89 L 377.08 674.23 L 378.56 667.53 L 380.03 654.74 L 381.50 674.75 L 382.97 668.03 L 384.44 673.57 L 385.92 684.32 L 387.39 675.89 L 388.86 674.52 L 390.33 679.59 L 391.81 678.71 L 393.28 678.34 L 394.75 680.84 L 396.22 677.19 L 397.69 667.95 L 399.17 640.16 L 400.64 658.08 L 402.11 656.54 L 403.58 673.91 L 405.06 681.42 L 406.53 678.29 L 408.00 673.91 L 409.47 679.73 L 410.94 670.44 L 412.42 652.66 L 413.89 661.03 L 415.36 645.95 L 416.83 681.27 L 418.31 671.23 L 419.78 664.13 L 421.25 671.68 L 422.72 686.84 L 424.19 664.72 L 425.67 677.62 L 427.14 655.14 L 428.61 681.05 L 430.08 693.33 L 431.56 656.81 L 433.03 664.46 L 434.50 676.85 L 435.97 661.22 L 437.44 661.67 L 438.92 673.97 L 440.39 683.78 L 441.86 679.38 L 443.33 656.52 L 444.81 680.45 L 446.28 680.45 L 447.75 695.99 L 449.22 697.49 L 450.69 699.01 L 452.17 697.68 L 453.64 698.44 L 455.11 698.66 L 456.58 698.42 L 458.06 698.65 L 459.53 698.67 L 461.00 698.60 L 462.47 698.86 L 463.94 698.70 L 465.42 698.86 L 466.89 699.08 L 468.36 699.03 L 469.83 699.08 L 471.31 698.92 L 472.78 699.09 L 474.25 698.94 L 475.72 698.93 L 477.19 699.12 L 478.67 699.09 L 480.14 699.11 L 481.61 699.14 L 483.08 699.01 L 484.56 698.93 L 486.03 699.19 L 487.50 698.91 L 488.97 699.05 L 490.44 699.20 L 491.92 699.12 L 493.39 699.06 L 494.86 699.13 L 496.33 699.15 L 497.81 699.01 L 499.28 699.06 L 500.75 699.07 L 502.22 699.20 L 503.69 699.17 L 505.17 699.21 L 506.64 698.84 L 508.11 699.13 L 509.58 699.13 L 511.06 699.08 L 512.53 699.15 L 514.00 699.20 L 515.47 699.06 L 516.94 698.90 L 518.42 699.08 L 519.89 699.09 L 521.36 699.00 L 522.83 699.20 L 524.31 699.13 L 525.78 699.13 L 527.25 699.13 L 528.72 699.02 L 530.19 699.15 L 531.67 699.03 L 533.14 699.03 L 534.61 699.04 L 536.08 699.16 L 537.56 699.14 L 539.03 698.98 L 540.50 699.02 L 541.97 699.06 L 543.44 698.91 L 544.92 698.90 L 546.39 699.06 L 547.86 699.13 L 549.33 699.02 L 550.81 699.19 L 552.28 699.09 L 553.75 699.12 L 555.22 699.14 L 556.69 699.11 L 558.17 699.05 L 559.64 698.95 L 561.11 699.19 L 562.58 699.12 L 564.06 699.14 L 565.53 698.93 L 567.00 699.05 L 568.47 698.93 L 569.94 699.17 L 571.42 698.70 L 572.89 699.13 L 574.36 698.90 L 575.83 699.19 L 577.31 699.06 L 578.78 699.01 L 580.25 699.06 L 581.72 699.17 L 583.19 698.73 L 584.67 699.18 L 586.14 699.16 L 587.61 699.17 L 589.08 699.09 L 590.56 698.93 L 592.03 698.86 L 593.50 699.15 L 594.97 699.18 L 596.44 699.05 L 597.92 699.10 L 599.39 699.19 L 600.86 699.13 L 602.33 699.14 L 603.81 698.66 L 605.28 698.77 L 606.75 699.09 L 608.22 699.05 L 609.69 697.96 L 611.17 697.21 L 612.64 695.52 L 614.11 696.71 L 615.58 682.81 L 617.06 694.49 L 618.53 668.16 L 620.00 655.83 L 621.47 692.91 L 622.94 692.91 L 624.42 683.93 L 625.89 664.83 L 627.36 687.85 L 628.83 695.04 L 630.31 685.47 L 631.78 650.54 L 633.25 689.55 L 634.72 674.34 L 636.19 686.11 L 637.67 648.26 L 639.14 653.88 L 640.61 686.49 L 642.08 673.91 L 643.56 675.16 L 645.03 667.19 L 646.50 682.83 L 647.97 668.31 L 649.44 670.26 L 650.92 697.12 L 652.39 667.60 L 653.86 676.66 L 655.33 673.40 L 656.81 677.76 L 658.28 663.67 L 659.75 690.84 L 661.22 674.70 L 662.69 683.91 L 664.17 643.03 L 665.64 679.80 L 667.11 685.19 L 668.58 692.32 L 670.06 679.72 L 671.53 688.76 L 673.00 675.41 L 674.47 685.25 L 675.94 689.29 L 677.42 680.34 L 678.89 683.62 L 680.36 697.32 L 681.83 698.55 L 683.31 698.75 L 684.78 699.14 L 686.25 699.15 L 687.72 687.44 L 689.19 689.90 L 690.67 685.25 L 692.14 663.11 L 693.61 657.19 L 695.08 687.55 L 696.56 665.00 L 698.03 670.03 L 699.50 688.07 L 700.97 692.52 L 702.44 680.09 L 703.92 681.16 L 705.39 687.25 L 706.86 694.90 L 708.33 696.68 L 709.81 689.29 L 711.28 687.20 L 712.75 693.37 L 714.22 682.95 L 715.69 671.38 L 717.17 683.87 L 718.64 690.20 L 720.11 691.75 L 721.58 693.32 L 723.06 696.53 L 724.53 695.44 L 726.00 696.95 L 727.47 697.70 L 728.94 699.05 L 730.42 698.59 L 731.89 698.69 L 733.36 698.69 L 734.83 698.91 L 736.31 699.10 L 737.78 699.02 L 739.25 699.08 L 740.72 699.10 L 742.19 699.04 L 743.67 699.17 L 745.14 699.11 L 746.61 699.14 L 748.08 699.07 L 749.56 699.02 L 751.03 698.41 L 752.50 697.80 L 753.97 698.23 L 755.44 695.70 L 756.92 696.46 L 758.39 696.78 L 759.86 698.10 L 761.33 698.22 L 762.81 699.00 L 764.28 698.54 L 765.75 699.01 L 767.22 698.98 L 768.69 699.08 L 770.17 699.04 L 771.64 699.16 L 773.11 699.09 L 774.58 699.19 L 776.06 699.19 L 777.53 699.17 L 779.00 699.06 L 780.47 699.01 L 781.94 699.11 L 783.42 699.21 L 784.89 698.45 L 786.36 696.42 L 787.83 694.96 L 789.31 696.96 L 790.78 698.96 L 792.25 698.96 L 793.72 698.74 L 795.19 698.84 L 796.67 698.89 L 798.14 699.00 L 799.61 699.13 L 801.08 699.02 L 802.56 699.02 L 804.03 699.00 L 805.50 699.20 L 806.97 699.16 L 808.44 699.06 L 809.92 699.07 L 811.39 699.04 L 812.86 699.13 L 814.33 699.08 L 815.81 699.09 L 817.28 699.10 L 818.75 698.62 L 820.22 698.23 L 821.69 693.67 L 823.17 697.58 L 824.64 697.56 L 826.11 696.18 L 827.58 698.23 L 829.06 698.05 L 830.53 698.81 L 832.00 698.93 L 833.47 699.06 L 834.94 699.05 L 836.42 699.08 L 837.89 699.10 L 839.36 699.14 L 840.83 699.09 L 842.31 699.08 L 843.78 699.15 L 845.25 699.22 L 846.72 699.08 L 848.19 699.03 L 849.67 699.03 L 851.14 699.18 L 852.61 699.17 L 854.08 699.05 L 855.56 699.02 L 857.03 698.63 L 858.50 696.28 L 859.97 692.63 L 861.44 691.87 L 862.92 698.12 L 864.39 698.29 L 865.86 698.64 L 867.33 698.87 L 868.81 699.15 L 870.28 699.04 L 871.75 699.01 L 873.22 698.95 L 874.69 698.88 L 876.17 698.99 L 877.64 699.08 L 879.11 699.12 L 880.58 698.99 L 882.06 699.07 L 883.53 699.17 L 885.00 699.16 L 886.47 699.10 L 887.94 699.21" stroke="#FB8C00" />
<text x="90" y="711.25" font-size="14" font-weight="700">Giroscópio (magnitude) (u.a.)</text>
<rect class="event" x="443.33" y="717.25" width="179.61" height="192.75" />
<line class="eventline" x1="443.33" y1="717.25" x2="443.33" y2="910.00" />
<line class="eventline" x1="622.94" y1="717.25" x2="622.94" y2="910.00" />
<line class="grid" x1="90" y1="910.00" x2="1150" y2="910.00" />
<text class="small" x="80" y="914.00" text-anchor="end">0.00</text>
<line class="grid" x1="90" y1="871.45" x2="1150" y2="871.45" />
<text class="small" x="80" y="875.45" text-anchor="end">0.05</text>
<line class="grid" x1="90" y1="832.90" x2="1150" y2="832.90" />
<text class="small" x="80" y="836.90" text-anchor="end">0.10</text>
<line class="grid" x1="90" y1="794.35" x2="1150" y2="794.35" />
<text class="small" x="80" y="798.35" text-anchor="end">0.15</text>
<line class="grid" x1="90" y1="755.80" x2="1150" y2="755.80" />
<text class="small" x="80" y="759.80" text-anchor="end">0.20</text>
<line class="grid" x1="90" y1="717.25" x2="1150" y2="717.25" />
<text class="small" x="80" y="721.25" text-anchor="end">0.25</text>
<line class="grid" x1="90.00" y1="717.25" x2="90.00" y2="910.00" />
<line class="grid" x1="266.67" y1="717.25" x2="266.67" y2="910.00" />
<line class="grid" x1="443.33" y1="717.25" x2="443.33" y2="910.00" />
<line class="grid" x1="620.00" y1="717.25" x2="620.00" y2="910.00" />
<line class="grid" x1="796.67" y1="717.25" x2="796.67" y2="910.00" />
<line class="grid" x1="973.33" y1="717.25" x2="973.33" y2="910.00" />
<line class="grid" x1="1150.00" y1="717.25" x2="1150.00" y2="910.00" />
<line class="axis" x1="90" y1="717.25" x2="90" y2="910.00" />
<line class="axis" x1="90" y1="910.00" x2="1150" y2="910.00" />
<path class="series" d="M 178.33 845.02 L 179.81 834.42 L 181.28 839.71 L 182.75 837.83 L 184.22 850.73 L 185.69 865.65 L 187.17 893.15 L 188.64 899.96 L 190.11 889.98 L 191.58 897.41 L 193.06 890.26 L 194.53 890.95 L 196.00 869.41 L 197.47 849.75 L 198.94 856.24 L 200.42 861.09 L 201.89 853.30 L 203.36 830.96 L 204.83 835.40 L 206.31 816.07 L 207.78 863.79 L 209.25 881.87 L 210.72 874.47 L 212.19 906.09 L 213.67 899.48 L 215.14 900.82 L 216.61 902.62 L 218.08 896.84 L 219.56 887.89 L 221.03 880.32 L 222.50 870.89 L 223.97 869.83 L 225.44 882.25 L 226.92 878.03 L 228.39 893.19 L 229.86 887.89 L 231.33 891.41 L 232.81 902.59 L 234.28 906.00 L 235.75 888.21 L 237.22 870.26 L 238.69 882.45 L 240.17 876.15 L 241.64 886.16 L 243.11 878.79 L 244.58 888.14 L 246.06 888.78 L 247.53 870.27 L 249.00 821.27 L 250.47 817.63 L 251.94 826.01 L 253.42 873.44 L 254.89 842.99 L 256.36 817.34 L 257.83 844.98 L 259.31 884.51 L 260.78 856.82 L 262.25 870.90 L 263.72 875.16 L 265.19 885.86 L 266.67 901.88 L 268.14 909.27 L 269.61 908.28 L 271.08 901.77 L 272.56 901.77 L 274.03 904.05 L 275.50 909.16 L 276.97 907.75 L 278.44 908.14 L 279.92 908.06 L 281.39 908.23 L 282.86 908.11 L 284.33 907.26 L 285.81 901.86 L 287.28 900.23 L 288.75 901.25 L 290.22 903.42 L 291.69 906.71 L 293.17 908.21 L 294.64 908.46 L 296.11 908.19 L 297.58 908.33 L 299.06 908.26 L 300.53 908.26 L 302.00 908.10 L 303.47 908.17 L 304.94 908.00 L 306.42 908.05 L 307.89 907.77 L 309.36 907.46 L 310.83 907.47 L 312.31 908.28 L 313.78 905.53 L 315.25 896.20 L 316.72 888.64 L 318.19 872.78 L 319.67 855.83 L 321.14 829.20 L 322.61 841.68 L 324.08 812.02 L 325.56 758.86 L 327.03 831.85 L 328.50 879.52 L 329.97 861.74 L 331.44 828.53 L 332.92 836.91 L 334.39 838.07 L 335.86 846.16 L 337.33 844.96 L 338.81 845.65 L 340.28 896.46 L 341.75 881.77 L 343.22 871.52 L 344.69 868.06 L 346.17 876.77 L 347.64 891.25 L 349.11 864.85 L 350.58 867.63 L 352.06 891.06 L 353.53 891.55 L 355.00 891.54 L 356.47 854.46 L 357.94 892.99 L 359.42 879.79 L 360.89 899.51 L 362.36 882.97 L 363.83 886.67 L 365.31 873.90 L 366.78 893.23 L 368.25 869.10 L 369.72 893.09 L 371.19 876.93 L 372.67 879.56 L 374.14 864.33 L 375.61 856.75 L 377.08 891.07 L 378.56 894.92 L 380.03 868.92 L 381.50 875.10 L 382.97 872.79 L 384.44 869.03 L 385.92 863.45 L 387.39 876.82 L 388.86 871.36 L 390.33 864.55 L 391.81 863.95 L 393.28 864.42 L 394.75 890.50 L 396.22 889.12 L 397.69 893.95 L 399.17 881.38 L 400.64 879.75 L 402.11 878.62 L 403.58 889.66 L 405.06 880.25 L 406.53 884.58 L 408.00 866.91 L 409.47 846.97 L 410.94 826.40 L 412.42 843.18 L 413.89 881.39 L 415.36 863.15 L 416.83 853.78 L 418.31 823.27 L 419.78 823.40 L 421.25 795.23 L 422.72 767.36 L 424.19 765.58 L 425.67 775.92 L 427.14 792.94 L 428.61 803.33 L 430.08 807.67 L 431.56 802.05 L 433.03 835.40 L 434.50 830.07 L 435.97 823.61 L 437.44 830.57 L 438.92 852.58 L 440.39 877.30 L 441.86 897.39 L 443.33 907.08 L 444.81 909.10 L 446.28 909.10 L 447.75 908.45 L 449.22 908.27 L 450.69 908.15 L 452.17 908.30 L 453.64 908.20 L 455.11 908.18 L 456.58 908.26 L 458.06 908.22 L 459.53 908.20 L 461.00 908.07 L 462.47 908.22 L 463.94 908.12 L 465.42 909.81 L 466.89 909.76 L 468.36 909.84 L 469.83 909.82 L 471.31 909.79 L 472.78 909.83 L 474.25 909.81 L 475.72 909.77 L 477.19 909.85 L 478.67 909.83 L 480.14 909.77 L 481.61 909.88 L 483.08 909.76 L 484.56 909.78 L 486.03 909.82 L 487.50 909.86 L 488.97 909.72 L 490.44 909.75 L 491.92 909.91 L 493.39 909.81 L 494.86 909.85 L 496.33 909.74 L 497.81 909.90 L 499.28 909.96 L 500.75 909.95 L 502.22 909.91 L 503.69 909.91 L 505.17 909.90 L 506.64 909.86 L 508.11 909.87 L 509.58 909.88 L 511.06 909.87 L 512.53 909.98 L 514.00 909.83 L 515.47 909.92 L 516.94 909.87 L 518.42 909.87 L 519.89 909.80 L 521.36 909.75 L 522.83 909.86 L 524.31 909.91 L 525.78 909.89 L 527.25 909.89 L 528.72 909.89 L 530.19 909.92 L 531.67 909.84 L 533.14 909.84 L 534.61 909.85 L 536.08 909.90 L 537.56 909.86 L 539.03 909.92 L 540.50 909.91 L 541.97 909.92 L 543.44 909.68 L 544.92 909.85 L 546.39 909.72 L 547.86 909.97 L 549.33 909.98 L 550.81 909.95 L 552.28 909.87 L 553.75 909.90 L 555.22 909.88 L 556.69 909.94 L 558.17 909.89 L 559.64 909.89 L 561.11 909.89 L 562.58 909.82 L 564.06 909.86 L 565.53 909.98 L 567.00 909.81 L 568.47 909.76 L 569.94 909.87 L 571.42 909.82 L 572.89 909.73 L 574.36 909.85 L 575.83 909.89 L 577.31 909.84 L 578.78 909.90 L 580.25 909.87 L 581.72 909.91 L 583.19 909.96 L 584.67 909.92 L 586.14 909.88 L 587.61 909.88 L 589.08 909.78 L 590.56 909.78 L 592.03 909.75 L 593.50 909.87 L 594.97 909.93 L 596.44 909.88 L 597.92 909.92 L 599.39 909.90 L 600.86 909.87 L 602.33 909.94 L 603.81 909.33 L 605.28 909.07 L 606.75 909.94 L 608.22 909.97 L 609.69 909.81 L 611.17 908.97 L 612.64 907.51 L 614.11 909.77 L 615.58 904.43 L 617.06 890.92 L 618.53 898.17 L 620.00 905.58 L 621.47 906.69 L 622.94 906.69 L 624.42 885.23 L 625.89 876.48 L 627.36 873.00 L 628.83 856.88 L 630.31 868.71 L 631.78 843.60 L 633.25 825.49 L 634.72 857.02 L 636.19 854.32 L 637.67 871.97 L 639.14 878.95 L 640.61 872.17 L 642.08 869.17 L 643.56 871.83 L 645.03 878.96 L 646.50 886.30 L 647.97 885.12 L 649.44 896.62 L 650.92 882.68 L 652.39 868.06 L 653.86 859.78 L 655.33 862.04 L 656.81 829.10 L 658.28 829.98 L 659.75 816.87 L 661.22 824.73 L 662.69 822.67 L 664.17 844.80 L 665.64 903.25 L 667.11 907.90 L 668.58 904.16 L 670.06 907.59 L 671.53 904.06 L 673.00 907.16 L 674.47 905.65 L 675.94 897.31 L 677.42 901.98 L 678.89 909.69 L 680.36 909.44 L 681.83 909.76 L 683.31 909.77 L 684.78 909.79 L 686.25 909.78 L 687.72 904.00 L 689.19 889.58 L 690.67 847.82 L 692.14 829.95 L 693.61 845.51 L 695.08 861.28 L 696.56 856.79 L 698.03 881.85 L 699.50 889.03 L 700.97 893.28 L 702.44 896.34 L 703.92 899.72 L 705.39 896.78 L 706.86 903.93 L 708.33 896.03 L 709.81 897.86 L 711.28 902.78 L 712.75 889.08 L 714.22 898.66 L 715.69 908.15 L 717.17 903.38 L 718.64 906.19 L 720.11 909.00 L 721.58 908.37 L 723.06 909.80 L 724.53 909.13 L 726.00 909.73 L 727.47 909.53 L 728.94 909.73 L 730.42 909.73 L 731.89 909.86 L 733.36 909.79 L 734.83 909.68 L 736.31 909.94 L 737.78 909.80 L 739.25 909.77 L 740.72 909.82 L 742.19 909.88 L 743.67 909.90 L 745.14 909.81 L 746.61 909.94 L 748.08 909.88 L 749.56 909.89 L 751.03 909.70 L 752.50 909.57 L 753.97 908.34 L 755.44 909.41 L 756.92 909.07 L 758.39 909.41 L 759.86 909.86 L 761.33 909.72 L 762.81 909.84 L 764.28 909.92 L 765.75 909.84 L 767.22 909.89 L 768.69 909.90 L 770.17 909.91 L 771.64 909.88 L 773.11 909.89 L 774.58 909.88 L 776.06 909.97 L 777.53 909.90 L 779.00 909.88 L 780.47 909.76 L 781.94 909.86 L 783.42 909.83 L 784.89 909.81 L 786.36 904.42 L 787.83 909.47 L 789.31 909.42 L 790.78 909.69 L 792.25 909.69 L 793.72 909.83 L 795.19 909.78 L 796.67 909.85 L 798.14 909.88 L 799.61 909.96 L 801.08 909.80 L 802.56 909.71 L 804.03 909.86 L 805.50 909.87 L 806.97 909.84 L 808.44 909.86 L 809.92 909.82 L 811.39 909.88 L 812.86 909.85 L 814.33 909.89 L 815.81 909.93 L 817.28 909.87 L 818.75 909.65 L 820.22 909.42 L 821.69 907.34 L 823.17 909.01 L 824.64 909.37 L 826.11 909.68 L 827.58 909.79 L 829.06 909.82 L 830.53 909.75 L 832.00 909.98 L 833.47 909.91 L 834.94 909.86 L 836.42 909.84 L 837.89 909.91 L 839.36 909.78 L 840.83 909.88 L 842.31 909.88 L 843.78 909.80 L 845.25 909.84 L 846.72 909.88 L 848.19 909.89 L 849.67 909.83 L 851.14 909.86 L 852.61 909.85 L 854.08 909.94 L 855.56 909.94 L 857.03 909.76 L 858.50 907.21 L 859.97 907.80 L 861.44 909.85 L 862.92 909.76 L 864.39 909.86 L 865.86 909.85 L 867.33 909.98 L 868.81 909.91 L 870.28 909.82 L 871.75 909.91 L 873.22 909.87 L 874.69 909.91 L 876.17 909.88 L 877.64 909.92 L 879.11 909.91 L 880.58 909.90 L 882.06 909.87 L 883.53 909.85 L 885.00 909.83 L 886.47 909.88 L 887.94 909.81" stroke="#E53935" />
<text x="620.00" y="952" font-size="15" text-anchor="middle">minutos (relativo ao início do evento)</text>
<text class="small" x="90.00" y="936" text-anchor="middle">-4.00</text>
<text class="small" x="266.67" y="936" text-anchor="middle">-2.00</text>
<text class="small" x="443.33" y="936" text-anchor="middle">0.00</text>
<text class="small" x="620.00" y="936" text-anchor="middle">2.00</text>
<text class="small" x="796.67" y="936" text-anchor="middle">4.00</text>
<text class="small" x="973.33" y="936" text-anchor="middle">6.00</text>
<text class="small" x="1150.00" y="936" text-anchor="middle">8.00</text>
</svg>