<?xml version="1.0" encoding="UTF-8"?>
<svg xmlns="http://www.w3.org/2000/svg" width="1180" height="980" viewBox="0 0 1180 980">
<style>
text { font-family: -apple-system, BlinkMacSystemFont, 'Segoe UI', Roboto, Helvetica, Arial, sans-serif; fill: #111; }
.small { font-size: 12px; fill: #222; }
.title { font-size: 18px; font-weight: 700; }
.axis { stroke: #111; stroke-width: 1.4; }
.grid { stroke: #E6E6E6; stroke-width: 1; }
.event { fill: #FFEB3B; fill-opacity: 0.18; }
.eventline { stroke: #F9A825; stroke-width: 1.2; stroke-dasharray: 4 3; }
.series { fill: none; stroke-width: 1.8; }
</style>
<text class="title" x="90" y="34">ciclo 14 — espera_basculamento — 2025-12-13T02:25:42-03:00 → 2025-12-13T02:25:58-03:00 (span 16s, dur 17s)</text>
<text class="small" x="90" y="54">GPS: -11.693000,-47.165252  hotspot: -11.693,-47.165</text>
<text class="small" x="90" y="70">Janela: -3.00 → 3.27 min (relativo ao início do evento)</text>
<text x="90" y="79.00" font-size="14" font-weight="700">Velocidade (km/h)</text>
<rect class="event" x="443.33" y="85.00" width="23.56" height="192.75" />
<line class="eventline" x1="443.33" y1="85.00" x2="443.33" y2="277.75" />
<line class="eventline" x1="466.89" y1="85.00" x2="466.89" y2="277.75" />
<line class="grid" x1="90" y1="277.75" x2="1150" y2="277.75" />
<text class="small" x="80" y="281.75" text-anchor="end">0.00</text>
<line class="grid" x1="90" y1="239.20" x2="1150" y2="239.20" />
<text class="small" x="80" y="243.20" text-anchor="end">10.0</text>
<line class="grid" x1="90" y1="200.65" x2="1150" y2="200.65" />
<text class="small" x="80" y="204.65" text-anchor="end">20.0</text>
<line class="grid" x1="90" y1="162.10" x2="1150" y2="162.10" />
<text class="small" x="80" y="166.10" text-anchor="end">30.0</text>
<line class="grid" x1="90" y1="123.55" x2="1150" y2="123.55" />
<text class="small" x="80" y="127.55" text-anchor="end">40.0</text>
<line class="grid" x1="90" y1="85.00" x2="1150" y2="85.00" />
<text class="small" x="80" y="89.00" text-anchor="end">50.0</text>
<line class="grid" x1="90.00" y1="85.00" x2="90.00" y2="277.75" />
<line class="grid" x1="266.67" y1="85.00" x2="266.67" y2="277.75" />
<line class="grid" x1="443.33" y1="85.00" x2="443.33" y2="277.75" />
<line class="grid" x1="620.00" y1="85.00" x2="620.00" y2="277.75" />
<line class="grid" x1="796.67" y1="85.00" x2="796.67" y2="277.75" />
<line class="grid" x1="973.33" y1="85.00" x2="973.33" y2="277.75" />
<line class="grid" x1="1150.00" y1="85.00" x2="1150.00" y2="277.75" />
<line class="axis" x1="90" y1="85.00" x2="90" y2="277.75" />
<line class="axis" x1="90" y1="277.75" x2="1150" y2="277.75" />
<path class="series" d="M 178.33 243.89 L 179.81 245.41 L 181.28 240.83 L 182.75 235.56 L 184.22 230.43 L 185.69 230.43 L 187.17 232.92 L 188.64 231.26 L 190.11 229.73 L 191.58 226.40 L 193.06 221.68 L 194.53 216.83 L 196.00 215.02 L 197.47 213.49 L 198.94 210.72 L 200.42 209.05 L 201.89 209.19 L 203.36 207.53 L 204.83 205.03 L 206.31 203.09 L 207.78 205.86 L 209.25 202.67 L 210.72 200.17 L 212.19 197.67 L 213.67 198.51 L 215.14 202.81 L 216.61 211.41 L 218.08 216.55 L 219.56 218.63 L 221.03 222.10 L 222.50 226.54 L 223.97 228.34 L 225.44 230.15 L 226.92 233.34 L 228.39 231.95 L 229.86 236.12 L 231.33 233.76 L 232.81 234.31 L 234.28 233.34 L 235.75 234.17 L 237.22 232.92 L 238.69 231.26 L 240.17 229.18 L 241.64 225.85 L 243.11 226.40 L 244.58 224.87 L 246.06 225.01 L 247.53 225.99 L 249.00 226.54 L 250.47 228.34 L 251.94 227.65 L 253.42 228.21 L 254.89 229.32 L 256.36 229.18 L 257.83 230.70 L 259.31 231.40 L 260.78 233.48 L 262.25 232.37 L 263.72 232.92 L 265.19 233.06 L 266.67 231.12 L 268.14 231.40 L 269.61 232.79 L 271.08 235.70 L 272.56 235.70 L 274.03 243.61 L 275.50 245.00 L 276.97 259.15 L 278.44 272.48 L 279.92 277.75 L 281.39 277.75 L 282.86 271.50 L 284.33 265.12 L 285.81 262.07 L 287.28 264.01 L 288.75 263.87 L 290.22 266.09 L 291.69 265.12 L 293.17 264.43 L 294.64 265.68 L 296.11 265.12 L 297.58 265.12 L 299.06 265.12 L 300.53 264.70 L 302.00 265.26 L 303.47 266.37 L 304.94 265.81 L 306.42 266.37 L 307.89 268.31 L 309.36 267.34 L 310.83 266.65 L 312.31 265.81 L 313.78 265.26 L 315.25 267.34 L 316.72 265.81 L 318.19 263.73 L 319.67 267.48 L 321.14 267.34 L 322.61 265.95 L 324.08 277.75 L 325.56 265.81 L 327.03 269.42 L 328.50 272.75 L 329.97 277.75 L 331.44 277.75 L 332.92 277.75 L 334.39 277.75 L 335.86 277.75 L 337.33 277.75 L 338.81 277.75 L 340.28 265.68 L 341.75 258.74 L 343.22 256.79 L 344.69 261.24 L 346.17 277.75 L 347.64 277.75 L 349.11 277.75 L 350.58 277.75 L 352.06 268.73 L 353.53 267.62 L 355.00 266.23 L 356.47 264.98 L 357.94 264.70 L 359.42 266.79 L 360.89 267.34 L 362.36 277.75 L 363.83 277.75 L 365.31 277.75 L 366.78 277.75 L 368.25 277.75 L 369.72 277.75 L 371.19 277.75 L 372.67 277.75 L 374.14 277.75 L 375.61 277.75 L 377.08 277.75 L 378.56 277.75 L 380.03 277.75 L 381.50 277.75 L 382.97 277.75 L 384.44 277.75 L 385.92 277.75 L 387.39 277.75 L 388.86 277.75 L 390.33 277.75 L 391.81 277.75 L 393.28 277.75 L 394.75 277.75 L 396.22 277.75 L 397.69 277.75 L 399.17 277.75 L 400.64 277.75 L 402.11 277.75 L 403.58 277.75 L 405.06 277.75 L 406.53 277.75 L 408.00 277.75 L 409.47 277.75 L 410.94 277.75 L 412.42 277.75 L 413.89 277.75 L 415.36 277.75 L 416.83 277.75 L 418.31 277.75 L 419.78 277.75 L 421.25 277.75 L 422.72 277.75 L 424.19 277.75 L 425.67 262.90 L 427.14 271.64 L 428.61 262.48 L 430.08 268.87 L 431.56 277.75 L 433.03 277.75 L 434.50 277.75 L 435.97 269.98 L 437.44 262.90 L 438.92 257.90 L 440.39 264.29 L 441.86 272.34 L 443.33 277.75 L 444.81 277.75 L 446.28 277.75 L 447.75 277.75 L 449.22 277.75 L 450.69 277.75 L 452.17 277.75 L 453.64 277.75 L 455.11 277.75 L 456.58 277.75 L 458.06 277.75 L 459.53 277.75 L 461.00 277.75 L 462.47 277.75 L 463.94 277.75 L 465.42 277.75 L 466.89 277.75 L 468.36 264.29 L 469.83 258.60 L 471.31 249.30 L 472.78 248.33 L 474.25 236.12 L 475.72 228.90 L 477.19 221.82 L 478.67 220.85 L 480.14 219.32 L 481.61 219.74 L 483.08 218.49 L 484.56 218.21 L 486.03 218.63 L 487.50 220.43 L 488.97 214.19 L 490.44 208.92 L 491.92 202.81 L 493.39 201.28 L 494.86 200.03 L 496.33 197.81 L 497.81 201.70 L 499.28 199.34 L 500.75 201.56 L 502.22 202.39 L 503.69 201.28 L 505.17 198.92 L 506.64 195.31 L 508.11 189.90 L 509.58 188.10 L 511.06 181.85 L 512.53 179.77 L 514.00 177.00 L 515.47 172.97 L 516.94 171.03 L 518.42 168.25 L 519.89 168.95 L 521.36 168.67 L 522.83 166.17 L 524.31 162.98 L 525.78 164.09 L 527.25 166.45 L 528.72 171.86 L 530.19 178.52 L 531.67 183.38 L 533.14 185.88 L 534.61 183.24 L 536.08 180.33 L 537.56 177.00 L 539.03 170.06 L 540.50 166.45 L 541.97 167.84 L 543.44 167.56 L 544.92 168.67 L 546.39 167.42 L 547.86 168.53 L 549.33 167.98 L 550.81 165.20 L 552.28 164.92 L 553.75 168.11 L 555.22 172.69 L 556.69 175.05 L 558.17 174.64 L 559.64 173.39 L 561.11 173.11 L 562.58 174.50 L 564.06 175.05 L 565.53 176.44 L 567.00 175.61 L 568.47 175.33 L 569.94 174.78 L 571.42 175.05 L 572.89 177.97 L 574.36 177.69 L 575.83 178.11 L 577.31 178.11 L 578.78 176.72 L 580.25 176.16 L 581.72 175.75 L 583.19 169.09 L 584.67 162.56 L 586.14 154.24 L 587.61 150.21 L 589.08 150.63 L 590.56 150.49 L 592.03 153.40 L 593.50 159.09 L 594.97 164.78 L 596.44 170.47 L 597.92 172.14 L 599.39 169.36 L 600.86 162.42 L 602.33 160.90 L 603.81 160.06 L 605.28 160.34 L 606.75 159.93 L 608.22 161.73 L 609.69 163.53 L 611.17 164.23 L 612.64 166.03 L 614.11 166.59 L 615.58 167.14 L 617.06 169.64 L 618.53 175.33 L 620.00 179.35 L 621.47 179.35 L 622.94 172.28 L 624.42 171.44 L 625.89 172.69 L 627.36 175.75 L 628.83 178.11 L 630.31 182.55 L 631.78 188.51 L 633.25 201.00 L 634.72 204.89 L 636.19 208.92 L 637.67 211.97 L 639.14 214.88 L 640.61 219.32 L 642.08 221.54 L 643.56 215.16 L 645.03 210.03 L 646.50 198.78 L 647.97 201.84 L 649.44 201.42 L 650.92 201.56 L 652.39 200.59 L 653.86 197.26 L 655.33 198.51 L 656.81 197.54 L 658.28 199.76 L 659.75 199.48 L 661.22 199.48 L 662.69 195.18 L 664.17 189.35 L 665.64 189.62 L 667.11 189.76 L 668.58 184.77 L 670.06 179.63 L 671.53 173.39 L 673.00 169.09 L 674.47 164.64 L 675.94 161.45 L 677.42 159.23 L 678.89 158.12 L 680.36 159.51 L 681.83 159.79 L 683.31 164.09 L 684.78 167.28 L 686.25 168.81 L 687.72 169.36 L 689.19 167.00 L 690.67 167.28 L 692.14 168.25 L 693.61 166.86 L 695.08 165.34 L 696.56 163.95 L 698.03 161.45 L 699.50 158.40 L 700.97 154.93 L 702.44 154.51 L 703.92 153.82 L 705.39 151.88 L 706.86 152.57 L 708.33 150.35 L 709.81 149.52 L 711.28 148.68 L 712.75 148.13 L 714.22 151.04 L 715.69 151.04 L 717.17 149.79 L 718.64 151.60 L 720.11 149.93 L 721.58 151.88 L 723.06 152.85 L 724.53 153.40 L 726.00 153.40 L 727.47 153.40 L 728.94 151.74 L 730.42 151.60 L 731.89 147.02" stroke="#1976D2" />
<text x="90" y="289.75" font-size="14" font-weight="700">Inclinação (graus)</text>
<rect class="event" x="443.33" y="295.75" width="23.56" height="192.75" />
<line class="eventline" x1="443.33" y1="295.75" x2="443.33" y2="488.50" />
<line class="eventline" x1="466.89" y1="295.75" x2="466.89" y2="488.50" />
<line class="grid" x1="90" y1="488.50" x2="1150" y2="488.50" />
<text class="small" x="80" y="492.50" text-anchor="end">-20.0</text>
<line class="grid" x1="90" y1="449.95" x2="1150" y2="449.95" />
<text class="small" x="80" y="453.95" text-anchor="end">-10.0</text>
<line class="grid" x1="90" y1="411.40" x2="1150" y2="411.40" />
<text class="small" x="80" y="415.40" text-anchor="end">0.00</text>
<line class="grid" x1="90" y1="372.85" x2="1150" y2="372.85" />
<text class="small" x="80" y="376.85" text-anchor="end">10.0</text>
<line class="grid" x1="90" y1="334.30" x2="1150" y2="334.30" />
<text class="small" x="80" y="338.30" text-anchor="end">20.0</text>
<line class="grid" x1="90" y1="295.75" x2="1150" y2="295.75" />
<text class="small" x="80" y="299.75" text-anchor="end">30.0</text>
<line class="grid" x1="90.00" y1="295.75" x2="90.00" y2="488.50" />
<line class="grid" x1="266.67" y1="295.75" x2="266.67" y2="488.50" />
<line class="grid" x1="443.33" y1="295.75" x2="443.33" y2="488.50" />
<line class="grid" x1="620.00" y1="295.75" x2="620.00" y2="488.50" />
<line class="grid" x1="796.67" y1="295.75" x2="796.67" y2="488.50" />
<line class="grid" x1="973.33" y1="295.75" x2="973.33" y2="488.50" />
<line class="grid" x1="1150.00" y1="295.75" x2="1150.00" y2="488.50" />
<line class="axis" x1="90" y1="295.75" x2="90" y2="488.50" />
<line class="axis" x1="90" y1="488.50" x2="1150" y2="488.50" />
<path class="series" d="M 178.33 389.91 L 179.81 387.11 L 181.28 386.31 L 182.75 384.11 L 184.22 374.51 L 185.69 368.40 L 187.17 365.99 L 188.64 366.89 L 190.11 372.29 L 191.58 372.62 L 193.06 371.11 L 194.53 373.43 L 196.00 369.06 L 197.47 371.63 L 198.94 374.61 L 200.42 375.34 L 201.89 375.00 L 203.36 374.19 L 204.83 378.46 L 206.31 375.71 L 207.78 375.22 L 209.25 371.65 L 210.72 369.82 L 212.19 372.49 L 213.67 377.03 L 215.14 374.35 L 216.61 373.29 L 218.08 383.09 L 219.56 382.00 L 221.03 382.78 L 222.50 380.31 L 223.97 382.13 L 225.44 378.35 L 226.92 383.21 L 228.39 386.32 L 229.86 382.70 L 231.33 384.19 L 232.81 384.09 L 234.28 376.89 L 235.75 374.06 L 237.22 371.58 L 238.69 371.34 L 240.17 375.17 L 241.64 369.15 L 243.11 367.24 L 244.58 362.80 L 246.06 357.74 L 247.53 365.58 L 249.00 363.07 L 250.47 361.18 L 251.94 362.59 L 253.42 362.81 L 254.89 369.86 L 256.36 371.72 L 257.83 371.16 L 259.31 373.69 L 260.78 376.25 L 262.25 372.50 L 263.72 370.90 L 265.19 369.71 L 266.67 368.58 L 268.14 363.34 L 269.61 357.07 L 271.08 357.03 L 272.56 351.13 L 274.03 360.15 L 275.50 345.52 L 276.97 344.00 L 278.44 351.86 L 279.92 367.86 L 281.39 358.06 L 282.86 355.79 L 284.33 362.37 L 285.81 366.71 L 287.28 367.50 L 288.75 367.51 L 290.22 368.45 L 291.69 365.86 L 293.17 366.64 L 294.64 363.83 L 296.11 364.61 L 297.58 362.00 L 299.06 362.55 L 300.53 362.44 L 302.00 364.78 L 303.47 363.78 L 304.94 363.74 L 306.42 364.94 L 307.89 361.17 L 309.36 361.75 L 310.83 361.06 L 312.31 362.69 L 313.78 362.03 L 315.25 361.53 L 316.72 361.05 L 318.19 365.09 L 319.67 365.54 L 321.14 364.44 L 322.61 369.22 L 324.08 366.41 L 325.56 374.33 L 327.03 373.49 L 328.50 378.53 L 329.97 367.89 L 331.44 368.69 L 332.92 367.82 L 334.39 368.84 L 335.86 370.79 L 337.33 381.79 L 338.81 375.53 L 340.28 373.27 L 341.75 370.95 L 343.22 351.75 L 344.69 344.93 L 346.17 358.68 L 347.64 360.43 L 349.11 356.63 L 350.58 357.24 L 352.06 359.98 L 353.53 362.30 L 355.00 363.86 L 356.47 366.68 L 357.94 369.05 L 359.42 369.05 L 360.89 367.80 L 362.36 373.74 L 363.83 376.73 L 365.31 366.67 L 366.78 364.86 L 368.25 366.03 L 369.72 365.16 L 371.19 366.40 L 372.67 365.64 L 374.14 365.54 L 375.61 365.69 L 377.08 365.61 L 378.56 365.66 L 380.03 365.82 L 381.50 365.82 L 382.97 365.86 L 384.44 365.74 L 385.92 365.86 L 387.39 365.41 L 388.86 365.62 L 390.33 365.32 L 391.81 365.65 L 393.28 367.00 L 394.75 364.97 L 396.22 365.33 L 397.69 365.95 L 399.17 365.73 L 400.64 365.78 L 402.11 365.71 L 403.58 366.30 L 405.06 365.83 L 406.53 366.10 L 408.00 366.11 L 409.47 366.34 L 410.94 366.26 L 412.42 366.41 L 413.89 366.88 L 415.36 366.88 L 416.83 366.96 L 418.31 366.93 L 419.78 367.00 L 421.25 366.60 L 422.72 367.33 L 424.19 372.44 L 425.67 391.60 L 427.14 359.62 L 428.61 381.54 L 430.08 353.51 L 431.56 359.87 L 433.03 368.38 L 434.50 371.70 L 435.97 382.02 L 437.44 374.20 L 438.92 367.29 L 440.39 357.48 L 441.86 351.39 L 443.33 358.35 L 444.81 365.56 L 446.28 364.78 L 447.75 364.33 L 449.22 364.41 L 450.69 363.63 L 452.17 363.96 L 453.64 363.76 L 455.11 363.81 L 456.58 363.34 L 458.06 363.36 L 459.53 363.37 L 461.00 363.36 L 462.47 363.43 L 463.94 363.01 L 465.42 362.98 L 466.89 373.49 L 468.36 380.82 L 469.83 377.69 L 471.31 369.32 L 472.78 376.76 L 474.25 379.37 L 475.72 378.65 L 477.19 367.59 L 478.67 355.31 L 480.14 370.25 L 481.61 357.69 L 483.08 357.43 L 484.56 365.48 L 486.03 361.34 L 487.50 380.84 L 488.97 376.31 L 490.44 387.45 L 491.92 377.19 L 493.39 375.28 L 494.86 369.92 L 496.33 364.42 L 497.81 360.56 L 499.28 361.29 L 500.75 350.48 L 502.22 350.22 L 503.69 352.41 L 505.17 351.46 L 506.64 348.69 L 508.11 354.33 L 509.58 355.61 L 511.06 352.77 L 512.53 355.91 L 514.00 356.69 L 515.47 367.78 L 516.94 372.15 L 518.42 359.11 L 519.89 362.38 L 521.36 364.63 L 522.83 364.00 L 524.31 360.90 L 525.78 353.62 L 527.25 367.78 L 528.72 360.37 L 530.19 363.67 L 531.67 356.27 L 533.14 360.47 L 534.61 357.76 L 536.08 357.60 L 537.56 354.81 L 539.03 352.63 L 540.50 342.87 L 541.97 348.00 L 543.44 347.28 L 544.92 343.37 L 546.39 342.83 L 547.86 345.40 L 549.33 339.93 L 550.81 343.84 L 552.28 344.77 L 553.75 345.69 L 555.22 344.83 L 556.69 342.79 L 558.17 343.77 L 559.64 343.05 L 561.11 343.29 L 562.58 343.86 L 564.06 343.87 L 565.53 343.20 L 567.00 343.63 L 568.47 343.58 L 569.94 340.71 L 571.42 348.19 L 572.89 338.22 L 574.36 346.11 L 575.83 344.04 L 577.31 344.78 L 578.78 343.22 L 580.25 342.60 L 581.72 350.05 L 583.19 357.85 L 584.67 356.15 L 586.14 350.82 L 587.61 347.02 L 589.08 343.81 L 590.56 339.84 L 592.03 336.46 L 593.50 336.53 L 594.97 336.13 L 596.44 341.33 L 597.92 346.37 L 599.39 348.71 L 600.86 346.08 L 602.33 345.40 L 603.81 345.49 L 605.28 344.84 L 606.75 345.17 L 608.22 345.77 L 609.69 344.79 L 611.17 345.49 L 612.64 345.06 L 614.11 343.63 L 615.58 339.42 L 617.06 331.24 L 618.53 336.16 L 620.00 342.08 L 621.47 351.61 L 622.94 346.27 L 624.42 336.65 L 625.89 333.53 L 627.36 332.54 L 628.83 334.05 L 630.31 332.58 L 631.78 325.81 L 633.25 336.10 L 634.72 335.25 L 636.19 335.44 L 637.67 334.95 L 639.14 337.34 L 640.61 346.21 L 642.08 362.18 L 643.56 361.51 L 645.03 374.06 L 646.50 354.92 L 647.97 349.57 L 649.44 354.18 L 650.92 353.74 L 652.39 353.74 L 653.86 351.64 L 655.33 356.69 L 656.81 357.08 L 658.28 354.52 L 659.75 357.87 L 661.22 357.31 L 662.69 368.73 L 664.17 369.84 L 665.64 362.11 L 667.11 372.47 L 668.58 382.86 L 670.06 381.40 L 671.53 382.19 L 673.00 380.76 L 674.47 378.54 L 675.94 376.74 L 677.42 373.28 L 678.89 369.58 L 680.36 364.63 L 681.83 361.85 L 683.31 360.95 L 684.78 362.52 L 686.25 362.47 L 687.72 365.13 L 689.19 361.48 L 690.67 359.58 L 692.14 360.29 L 693.61 358.51 L 695.08 360.82 L 696.56 360.85 L 698.03 356.76 L 699.50 361.22 L 700.97 362.72 L 702.44 359.66 L 703.92 361.97 L 705.39 362.81 L 706.86 362.31 L 708.33 366.17 L 709.81 363.81 L 711.28 364.73 L 712.75 362.86 L 714.22 362.90 L 715.69 365.29 L 717.17 364.28 L 718.64 365.85 L 720.11 362.57 L 721.58 363.13 L 723.06 367.11 L 724.53 365.61 L 726.00 365.52 L 727.47 361.02 L 728.94 364.41 L 730.42 366.48 L 731.89 362.25" stroke="#2E7D32" />
<path class="series" d="M 178.33 412.19 L 179.81 413.85 L 181.28 409.38 L 182.75 406.01 L 184.22 417.72 L 185.69 409.85 L 187.17 414.56 L 188.64 409.57 L 190.11 415.74 L 191.58 411.49 L 193.06 411.13 L 194.53 418.10 L 196.00 413.33 L 197.47 413.59 L 198.94 406.39 L 200.42 415.32 L 201.89 413.29 L 203.36 409.98 L 204.83 422.89 L 206.31 422.11 L 207.78 425.16 L 209.25 438.37 L 210.72 441.16 L 212.19 437.92 L 213.67 443.74 L 215.14 417.66 L 216.61 411.10 L 218.08 411.12 L 219.56 408.38 L 221.03 408.05 L 222.50 423.60 L 223.97 407.61 L 225.44 414.73 L 226.92 409.97 L 228.39 410.28 L 229.86 396.94 L 231.33 403.13 L 232.81 389.08 L 234.28 398.65 L 235.75 390.03 L 237.22 399.59 L 238.69 393.47 L 240.17 398.35 L 241.64 400.77 L 243.11 397.45 L 244.58 397.15 L 246.06 397.60 L 247.53 409.11 L 249.00 418.98 L 250.47 408.06 L 251.94 397.71 L 253.42 407.37 L 254.89 389.56 L 256.36 396.61 L 257.83 404.76 L 259.31 405.42 L 260.78 415.66 L 262.25 417.09 L 263.72 416.83 L 265.19 422.06 L 266.67 421.92 L 268.14 433.94 L 269.61 433.55 L 271.08 429.09 L 272.56 407.62 L 274.03 406.56 L 275.50 404.52 L 276.97 407.38 L 278.44 407.94 L 279.92 407.45 L 281.39 406.07 L 282.86 411.17 L 284.33 411.28 L 285.81 403.88 L 287.28 413.88 L 288.75 404.92 L 290.22 410.16 L 291.69 406.78 L 293.17 403.80 L 294.64 406.21 L 296.11 407.77 L 297.58 404.42 L 299.06 404.69 L 300.53 406.69 L 302.00 405.58 L 303.47 407.77 L 304.94 405.16 L 306.42 400.26 L 307.89 407.26 L 309.36 401.32 L 310.83 405.17 L 312.31 401.71 L 313.78 398.85 L 315.25 405.91 L 316.72 404.01 L 318.19 402.42 L 319.67 406.88 L 321.14 403.53 L 322.61 405.22 L 324.08 411.43 L 325.56 401.63 L 327.03 406.02 L 328.50 407.08 L 329.97 408.88 L 331.44 408.16 L 332.92 410.90 L 334.39 409.70 L 335.86 408.47 L 337.33 412.11 L 338.81 414.84 L 340.28 413.52 L 341.75 420.21 L 343.22 402.92 L 344.69 403.49 L 346.17 407.81 L 347.64 409.67 L 349.11 409.71 L 350.58 412.41 L 352.06 407.93 L 353.53 412.35 L 355.00 410.21 L 356.47 405.80 L 357.94 406.00 L 359.42 406.00 L 360.89 401.93 L 362.36 399.11 L 363.83 399.72 L 365.31 402.20 L 366.78 404.75 L 368.25 400.77 L 369.72 401.11 L 371.19 404.29 L 372.67 403.26 L 374.14 402.69 L 375.61 403.13 L 377.08 402.12 L 378.56 402.90 L 380.03 402.85 L 381.50 402.47 L 382.97 402.54 L 384.44 402.50 L 385.92 402.68 L 387.39 402.59 L 388.86 402.72 L 390.33 402.49 L 391.81 402.63 L 393.28 403.05 L 394.75 402.35 L 396.22 402.73 L 397.69 402.15 L 399.17 403.14 L 400.64 402.29 L 402.11 402.70 L 403.58 402.27 L 405.06 403.07 L 406.53 402.09 L 408.00 402.46 L 409.47 401.37 L 410.94 403.98 L 412.42 402.12 L 413.89 402.58 L 415.36 402.05 L 416.83 402.48 L 418.31 402.47 L 419.78 402.25 L 421.25 402.73 L 422.72 402.81 L 424.19 400.23 L 425.67 401.68 L 427.14 409.17 L 428.61 397.05 L 430.08 413.49 L 431.56 413.54 L 433.03 410.05 L 434.50 407.71 L 435.97 402.30 L 437.44 403.99 L 438.92 403.68 L 440.39 411.94 L 441.86 416.98 L 443.33 409.84 L 444.81 409.29 L 446.28 409.49 L 447.75 409.42 L 449.22 409.15 L 450.69 409.14 L 452.17 409.32 L 453.64 409.28 L 455.11 409.40 L 456.58 409.10 L 458.06 409.20 L 459.53 409.30 L 461.00 409.22 L 462.47 409.16 L 463.94 409.36 L 465.42 409.26 L 466.89 405.84 L 468.36 404.66 L 469.83 409.66 L 471.31 413.87 L 472.78 412.86 L 474.25 411.91 L 475.72 407.60 L 477.19 416.36 L 478.67 419.43 L 480.14 438.67 L 481.61 431.06 L 483.08 426.70 L 484.56 422.60 L 486.03 424.00 L 487.50 431.22 L 488.97 419.95 L 490.44 411.92 L 491.92 417.81 L 493.39 411.93 L 494.86 404.06 L 496.33 399.53 L 497.81 391.34 L 499.28 391.83 L 500.75 394.54 L 502.22 392.59 L 503.69 399.67 L 505.17 390.78 L 506.64 391.85 L 508.11 393.87 L 509.58 425.90 L 511.06 406.61 L 512.53 403.63 L 514.00 402.96 L 515.47 409.62 L 516.94 380.28 L 518.42 381.66 L 519.89 395.97 L 521.36 397.75 L 522.83 401.94 L 524.31 406.32 L 525.78 401.86 L 527.25 403.53 L 528.72 421.81 L 530.19 414.48 L 531.67 397.74 L 533.14 414.25 L 534.61 400.62 L 536.08 399.37 L 537.56 406.76 L 539.03 402.62 L 540.50 407.55 L 541.97 405.40 L 543.44 409.16 L 544.92 408.15 L 546.39 406.24 L 547.86 405.88 L 549.33 410.91 L 550.81 420.72 L 552.28 418.41 L 553.75 410.91 L 555.22 420.60 L 556.69 410.10 L 558.17 412.07 L 559.64 411.84 L 561.11 400.94 L 562.58 409.39 L 564.06 413.19 L 565.53 412.24 L 567.00 417.78 L 568.47 417.18 L 569.94 416.09 L 571.42 434.03 L 572.89 412.81 L 574.36 413.32 L 575.83 410.04 L 577.31 413.97 L 578.78 405.79 L 580.25 410.32 L 581.72 412.88 L 583.19 412.11 L 584.67 405.81 L 586.14 407.61 L 587.61 407.52 L 589.08 410.84 L 590.56 417.06 L 592.03 420.49 L 593.50 420.49 L 594.97 419.00 L 596.44 414.79 L 597.92 413.21 L 599.39 417.64 L 600.86 412.35 L 602.33 407.74 L 603.81 411.22 L 605.28 408.78 L 606.75 411.30 L 608.22 413.07 L 609.69 409.00 L 611.17 406.86 L 612.64 406.75 L 614.11 405.12 L 615.58 401.91 L 617.06 402.79 L 618.53 405.66 L 620.00 403.34 L 621.47 407.91 L 622.94 408.41 L 624.42 405.28 L 625.89 405.68 L 627.36 407.02 L 628.83 406.66 L 630.31 410.04 L 631.78 412.26 L 633.25 411.81 L 634.72 411.60 L 636.19 408.33 L 637.67 409.94 L 639.14 411.32 L 640.61 412.75 L 642.08 415.84 L 643.56 428.73 L 645.03 438.90 L 646.50 431.51 L 647.97 429.78 L 649.44 412.10 L 650.92 427.17 L 652.39 427.17 L 653.86 441.70 L 655.33 419.83 L 656.81 397.31 L 658.28 367.95 L 659.75 369.39 L 661.22 366.76 L 662.69 383.73 L 664.17 395.76 L 665.64 387.47 L 667.11 401.82 L 668.58 419.61 L 670.06 430.67 L 671.53 419.94 L 673.00 433.84 L 674.47 435.71 L 675.94 434.56 L 677.42 415.68 L 678.89 412.61 L 680.36 410.88 L 681.83 409.07 L 683.31 405.20 L 684.78 407.14 L 686.25 407.39 L 687.72 405.96 L 689.19 402.14 L 690.67 405.16 L 692.14 406.69 L 693.61 403.36 L 695.08 405.64 L 696.56 398.51 L 698.03 401.01 L 699.50 399.01 L 700.97 401.56 L 702.44 402.97 L 703.92 400.61 L 705.39 402.62 L 706.86 405.54 L 708.33 409.48 L 709.81 409.48 L 711.28 412.97 L 712.75 409.46 L 714.22 407.93 L 715.69 404.53 L 717.17 405.15 L 718.64 404.46 L 720.11 402.57 L 721.58 406.00 L 723.06 404.73 L 724.53 403.48 L 726.00 412.03 L 727.47 408.10 L 728.94 398.53 L 730.42 388.99 L 731.89 387.39" stroke="#6A1B9A" />
<line x1="900.00" y1="307.75" x2="918.00" y2="307.75" stroke="#2E7D32" stroke-width="3" />
<text class="small" x="924.00" y="311.75">pitch</text>
<line x1="900.00" y1="323.75" x2="918.00" y2="323.75" stroke="#6A1B9A" stroke-width="3" />
<text class="small" x="924.00" y="327.75">roll</text>
<text x="90" y="500.50" font-size="14" font-weight="700">Aceleração (magnitude) (u.a.)</text>
<rect class="event" x="443.33" y="506.50" width="23.56" height="192.75" />
<line class="eventline" x1="443.33" y1="506.50" x2="443.33" y2="699.25" />
<line class="eventline" x1="466.89" y1="506.50" x2="466.89" y2="699.25" />
<line class="grid" x1="90" y1="699.25" x2="1150" y2="699.25" />
<text class="small" x="80" y="703.25" text-anchor="end">0.00</text>
<line class="grid" x1="90" y1="660.70" x2="1150" y2="660.70" />
<text class="small" x="80" y="664.70" text-anchor="end">0.50</text>
<line class="grid" x1="90" y1="622.15" x2="1150" y2="622.15" />
<text class="small" x="80" y="626.15" text-anchor="end">1.00</text>
<line class="grid" x1="90" y1="583.60" x2="1150" y2="583.60" />
<text class="small" x="80" y="587.60" text-anchor="end">1.50</text>
<line class="grid" x1="90" y1="545.05" x2="1150" y2="545.05" />
<text class="small" x="80" y="549.05" text-anchor="end">2.00</text>
<line class="grid" x1="90" y1="506.50" x2="1150" y2="506.50" />
<text class="small" x="80" y="510.50" text-anchor="end">2.50</text>
<line class="grid" x1="90.00" y1="506.50" x2="90.00" y2="699.25" />
<line class="grid" x1="266.67" y1="506.50" x2="266.67" y2="699.25" />
<line class="grid" x1="443.33" y1="506.50" x2="443.33" y2="699.25" />
<line class="grid" x1="620.00" y1="506.50" x2="620.00" y2="699.25" />
<line class="grid" x1="796.67" y1="506.50" x2="796.67" y2="699.25" />
<line class="grid" x1="973.33" y1="506.50" x2="973.33" y2="699.25" />
<line class="grid" x1="1150.00" y1="506.50" x2="1150.00" y2="699.25" />
<line class="axis" x1="90" y1="506.50" x2="90" y2="699.25" />
<line class="axis" x1="90" y1="699.25" x2="1150" y2="699.25" />
<path class="series" d="M 178.33 685.70 L 179.81 685.04 L 181.28 680.96 L 182.75 677.01 L 184.22 680.78 L 185.69 679.30 L 187.17 685.43 L 188.64 679.63 L 190.11 692.04 L 191.58 676.23 L 193.06 682.41 L 194.53 684.34 L 196.00 652.73 L 197.47 682.32 L 198.94 652.69 L 200.42 676.78 L 201.89 683.95 L 203.36 671.14 L 204.83 664.36 L 206.31 669.38 L 207.78 670.87 L 209.25 648.72 L 210.72 597.50 L 212.19 667.58 L 213.67 637.17 L 215.14 639.90 L 216.61 657.76 L 218.08 666.06 L 219.56 665.18 L 221.03 667.60 L 222.50 646.55 L 223.97 685.75 L 225.44 666.63 L 226.92 674.61 L 228.39 693.30 L 229.86 670.79 L 231.33 682.01 L 232.81 638.94 L 234.28 681.60 L 235.75 666.05 L 237.22 685.55 L 238.69 681.82 L 240.17 686.72 L 241.64 679.49 L 243.11 684.65 L 244.58 674.11 L 246.06 671.71 L 247.53 679.48 L 249.00 686.16 L 250.47 676.56 L 251.94 649.48 L 253.42 692.16 L 254.89 665.36 L 256.36 675.08 L 257.83 680.87 L 259.31 672.86 L 260.78 658.63 L 262.25 668.91 L 263.72 684.90 L 265.19 684.90 L 266.67 670.59 L 268.14 683.44 L 269.61 641.36 L 271.08 632.87 L 272.56 640.84 L 274.03 597.19 L 275.50 654.76 L 276.97 626.50 L 278.44 635.44 L 279.92 676.31 L 281.39 685.62 L 282.86 693.93 L 284.33 690.72 L 285.81 675.96 L 287.28 672.57 L 288.75 689.10 L 290.22 685.32 L 291.69 687.48 L 293.17 697.22 L 294.64 690.45 L 296.11 695.59 L 297.58 694.25 L 299.06 693.00 L 300.53 695.01 L 302.00 691.78 L 303.47 689.52 L 304.94 696.86 L 306.42 692.43 L 307.89 690.24 L 309.36 695.09 L 310.83 695.28 L 312.31 696.06 L 313.78 694.53 L 315.25 695.42 L 316.72 688.68 L 318.19 694.02 L 319.67 686.86 L 321.14 689.55 L 322.61 685.94 L 324.08 694.02 L 325.56 685.17 L 327.03 684.27 L 328.50 696.70 L 329.97 686.80 L 331.44 692.33 L 332.92 695.98 L 334.39 694.10 L 335.86 698.74 L 337.33 679.50 L 338.81 678.91 L 340.28 683.96 L 341.75 669.83 L 343.22 648.82 L 344.69 646.11 L 346.17 666.18 L 347.64 669.84 L 349.11 695.00 L 350.58 683.86 L 352.06 685.72 L 353.53 691.88 L 355.00 688.17 L 356.47 697.28 L 357.94 682.99 L 359.42 691.03 L 360.89 672.45 L 362.36 684.51 L 363.83 666.17 L 365.31 674.71 L 366.78 695.18 L 368.25 689.51 L 369.72 694.69 L 371.19 697.68 L 372.67 696.81 L 374.14 696.24 L 375.61 697.49 L 377.08 697.07 L 378.56 695.25 L 380.03 697.28 L 381.50 698.10 L 382.97 698.37 L 384.44 697.17 L 385.92 697.35 L 387.39 698.04 L 388.86 698.45 L 390.33 696.10 L 391.81 695.60 L 393.28 690.93 L 394.75 696.05 L 396.22 696.68 L 397.69 697.85 L 399.17 696.25 L 400.64 697.84 L 402.11 698.30 L 403.58 697.51 L 405.06 698.60 L 406.53 698.11 L 408.00 691.89 L 409.47 684.39 L 410.94 697.88 L 412.42 697.57 L 413.89 697.36 L 415.36 699.14 L 416.83 698.34 L 418.31 697.24 L 419.78 698.64 L 421.25 696.73 L 422.72 694.63 L 424.19 625.13 L 425.67 638.52 L 427.14 644.81 L 428.61 647.84 L 430.08 660.97 L 431.56 661.02 L 433.03 687.19 L 434.50 672.34 L 435.97 683.18 L 437.44 674.20 L 438.92 634.85 L 440.39 639.27 L 441.86 673.60 L 443.33 673.60 L 444.81 695.40 L 446.28 693.06 L 447.75 698.02 L 449.22 698.80 L 450.69 693.82 L 452.17 697.30 L 453.64 698.56 L 455.11 698.50 L 456.58 694.20 L 458.06 698.04 L 459.53 698.44 L 461.00 698.55 L 462.47 697.03 L 463.94 697.68 L 465.42 699.01 L 466.89 682.66 L 468.36 663.83 L 469.83 679.83 L 471.31 692.77 L 472.78 677.75 L 474.25 654.62 L 475.72 671.39 L 477.19 679.04 L 478.67 655.69 L 480.14 648.16 L 481.61 648.16 L 483.08 665.09 L 484.56 683.36 L 486.03 655.78 L 487.50 688.44 L 488.97 679.50 L 490.44 648.28 L 491.92 641.66 L 493.39 658.00 L 494.86 667.76 L 496.33 635.96 L 497.81 651.32 L 499.28 653.97 L 500.75 647.23 L 502.22 632.69 L 503.69 658.35 L 505.17 665.95 L 506.64 679.30 L 508.11 660.65 L 509.58 626.01 L 511.06 686.88 L 512.53 675.99 L 514.00 647.72 L 515.47 681.05 L 516.94 632.34 L 518.42 643.69 L 519.89 652.26 L 521.36 676.80 L 522.83 676.01 L 524.31 671.78 L 525.78 616.41 L 527.25 659.31 L 528.72 627.70 L 530.19 643.61 L 531.67 675.47 L 533.14 671.62 L 534.61 682.75 L 536.08 664.73 L 537.56 665.88 L 539.03 671.67 L 540.50 675.56 L 541.97 694.43 L 543.44 682.32 L 544.92 685.66 L 546.39 695.06 L 547.86 673.18 L 549.33 658.91 L 550.81 673.76 L 552.28 678.64 L 553.75 678.63 L 555.22 680.34 L 556.69 676.04 L 558.17 680.53 L 559.64 667.58 L 561.11 668.66 L 562.58 693.61 L 564.06 698.30 L 565.53 692.13 L 567.00 675.12 L 568.47 689.34 L 569.94 666.11 L 571.42 652.70 L 572.89 666.44 L 574.36 678.45 L 575.83 689.32 L 577.31 670.11 L 578.78 674.00 L 580.25 684.64 L 581.72 670.94 L 583.19 663.71 L 584.67 677.68 L 586.14 695.51 L 587.61 680.94 L 589.08 674.14 L 590.56 670.28 L 592.03 666.19 L 593.50 666.89 L 594.97 674.00 L 596.44 671.78 L 597.92 665.34 L 599.39 668.43 L 600.86 687.68 L 602.33 692.36 L 603.81 674.51 L 605.28 683.50 L 606.75 674.02 L 608.22 680.40 L 609.69 667.11 L 611.17 667.11 L 612.64 680.79 L 614.11 674.54 L 615.58 689.95 L 617.06 686.59 L 618.53 667.74 L 620.00 689.09 L 621.47 668.44 L 622.94 658.32 L 624.42 689.36 L 625.89 680.87 L 627.36 685.65 L 628.83 686.36 L 630.31 677.79 L 631.78 662.70 L 633.25 680.27 L 634.72 681.41 L 636.19 691.35 L 637.67 694.87 L 639.14 690.91 L 640.61 689.69 L 642.08 677.54 L 643.56 641.95 L 645.03 652.14 L 646.50 658.61 L 647.97 634.17 L 649.44 656.42 L 650.92 663.34 L 652.39 654.38 L 653.86 666.41 L 655.33 645.97 L 656.81 598.60 L 658.28 557.07 L 659.75 577.39 L 661.22 604.44 L 662.69 667.04 L 664.17 680.23 L 665.64 648.52 L 667.11 636.01 L 668.58 605.12 L 670.06 610.44 L 671.53 654.34 L 673.00 647.77 L 674.47 658.28 L 675.94 677.49 L 677.42 673.48 L 678.89 662.76 L 680.36 676.82 L 681.83 652.22 L 683.31 661.64 L 684.78 680.35 L 686.25 687.75 L 687.72 670.97 L 689.19 672.98 L 690.67 693.15 L 692.14 686.98 L 693.61 679.43 L 695.08 679.70 L 696.56 677.30 L 698.03 680.50 L 699.50 678.20 L 700.97 690.34 L 702.44 685.60 L 703.92 687.24 L 705.39 690.49 L 706.86 691.66 L 708.33 695.21 L 709.81 696.81 L 711.28 686.80 L 712.75 678.44 L 714.22 692.18 L 715.69 688.58 L 717.17 686.60 L 718.64 689.11 L 720.11 687.60 L 721.58 692.31 L 723.06 694.56 L 724.53 681.98 L 726.00 678.64 L 727.47 667.26 L 728.94 664.47 L 730.42 659.06 L 731.89 671.92" stroke="#FB8C00" />
<text x="90" y="711.25" font-size="14" font-weight="700">Giroscópio (magnitude) (u.a.)</text>
<rect class="event" x="443.33" y="717.25" width="23.56" height="192.75" />
<line class="eventline" x1="443.33" y1="717.25" x2="443.33" y2="910.00" />
<line class="eventline" x1="466.89" y1="717.25" x2="466.89" y2="910.00" />
<line class="grid" x1="90" y1="910.00" x2="1150" y2="910.00" />
<text class="small" x="80" y="914.00" text-anchor="end">0.00</text>
<line class="grid" x1="90" y1="871.45" x2="1150" y2="871.45" />
<text class="small" x="80" y="875.45" text-anchor="end">0.10</text>
<line class="grid" x1="90" y1="832.90" x2="1150" y2="832.90" />
<text class="small" x="80" y="836.90" text-anchor="end">0.20</text>
<line class="grid" x1="90" y1="794.35" x2="1150" y2="794.35" />
<text class="small" x="80" y="798.35" text-anchor="end">0.30</text>
<line class="grid" x1="90" y1="755.80" x2="1150" y2="755.80" />
<text class="small" x="80" y="759.80" text-anchor="end">0.40</text>
<line class="grid" x1="90" y1="717.25" x2="1150" y2="717.25" />
<text class="small" x="80" y="721.25" text-anchor="end">0.50</text>
<line class="grid" x1="90.00" y1="717.25" x2="90.00" y2="910.00" />
<line class="grid" x1="266.67" y1="717.25" x2="266.67" y2="910.00" />
<line class="grid" x1="443.33" y1="717.25" x2="443.33" y2="910.00" />
<line class="grid" x1="620.00" y1="717.25" x2="620.00" y2="910.00" />
<line class="grid" x1="796.67" y1="717.25" x2="796.67" y2="910.00" />
<line class="grid" x1="973.33" y1="717.25" x2="973.33" y2="910.00" />
<line class="grid" x1="1150.00" y1="717.25" x2="1150.00" y2="910.00" />
<line class="axis" x1="90" y1="717.25" x2="90" y2="910.00" />
<line class="axis" x1="90" y1="910.00" x2="1150" y2="910.00" />
<path class="series" d="M 178.33 898.11 L 179.81 903.35 L 181.28 903.66 L 182.75 900.56 L 184.22 900.57 L 185.69 904.55 L 187.17 908.48 L 188.64 903.94 L 190.11 899.04 L 191.58 903.18 L 193.06 900.17 L 194.53 904.97 L 196.00 905.21 L 197.47 902.89 L 198.94 903.17 L 200.42 897.20 L 201.89 906.19 L 203.36 906.57 L 204.83 895.49 L 206.31 883.16 L 207.78 874.29 L 209.25 855.51 L 210.72 844.03 L 212.19 838.22 L 213.67 844.79 L 215.14 873.12 L 216.61 888.52 L 218.08 891.34 L 219.56 896.76 L 221.03 903.06 L 222.50 882.17 L 223.97 875.34 L 225.44 873.98 L 226.92 867.32 L 228.39 873.21 L 229.86 867.53 L 231.33 876.82 L 232.81 882.26 L 234.28 897.55 L 235.75 902.77 L 237.22 901.23 L 238.69 905.10 L 240.17 901.00 L 241.64 905.01 L 243.11 897.86 L 244.58 888.57 L 246.06 888.32 L 247.53 895.27 L 249.00 906.49 L 250.47 899.92 L 251.94 896.45 L 253.42 886.45 L 254.89 879.38 L 256.36 876.22 L 257.83 883.59 L 259.31 896.82 L 260.78 898.50 L 262.25 871.85 L 263.72 863.71 L 265.19 863.71 L 266.67 857.51 L 268.14 848.25 L 269.61 832.42 L 271.08 808.02 L 272.56 800.86 L 274.03 832.66 L 275.50 872.19 L 276.97 894.12 L 278.44 902.54 L 279.92 906.17 L 281.39 906.76 L 282.86 907.76 L 284.33 900.65 L 285.81 896.73 L 287.28 896.64 L 288.75 898.14 L 290.22 897.31 L 291.69 899.63 L 293.17 899.18 L 294.64 899.84 L 296.11 901.03 L 297.58 897.56 L 299.06 899.11 L 300.53 901.09 L 302.00 899.86 L 303.47 900.97 L 304.94 899.39 L 306.42 898.92 L 307.89 900.84 L 309.36 895.13 L 310.83 890.80 L 312.31 884.54 L 313.78 883.89 L 315.25 888.03 L 316.72 882.65 L 318.19 883.42 L 319.67 883.93 L 321.14 880.91 L 322.61 881.24 L 324.08 886.37 L 325.56 885.80 L 327.03 890.99 L 328.50 903.21 L 329.97 907.53 L 331.44 908.29 L 332.92 909.08 L 334.39 909.21 L 335.86 908.93 L 337.33 907.61 L 338.81 905.62 L 340.28 887.62 L 341.75 881.86 L 343.22 866.96 L 344.69 888.41 L 346.17 905.37 L 347.64 908.73 L 349.11 908.63 L 350.58 908.35 L 352.06 907.08 L 353.53 905.32 L 355.00 897.19 L 356.47 892.11 L 357.94 893.51 L 359.42 893.50 L 360.89 898.33 L 362.36 906.18 L 363.83 906.63 L 365.31 906.77 L 366.78 909.56 L 368.25 909.59 L 369.72 907.70 L 371.19 908.67 L 372.67 908.86 L 374.14 909.02 L 375.61 909.19 L 377.08 908.83 L 378.56 908.88 L 380.03 909.08 L 381.50 909.00 L 382.97 908.80 L 384.44 908.85 L 385.92 908.89 L 387.39 908.85 L 388.86 908.93 L 390.33 908.77 L 391.81 909.00 L 393.28 909.01 L 394.75 908.90 L 396.22 908.97 L 397.69 908.88 L 399.17 908.96 L 400.64 908.86 L 402.11 909.00 L 403.58 908.73 L 405.06 908.96 L 406.53 908.91 L 408.00 908.47 L 409.47 909.21 L 410.94 908.94 L 412.42 908.92 L 413.89 908.86 L 415.36 909.11 L 416.83 908.69 L 418.31 908.94 L 419.78 908.84 L 421.25 908.67 L 422.72 908.22 L 424.19 897.36 L 425.67 901.23 L 427.14 901.61 L 428.61 890.45 L 430.08 904.19 L 431.56 909.15 L 433.03 908.76 L 434.50 903.72 L 435.97 886.95 L 437.44 878.15 L 438.92 875.49 L 440.39 895.10 L 441.86 908.83 L 443.33 908.83 L 444.81 908.78 L 446.28 908.87 L 447.75 908.72 L 449.22 908.84 L 450.69 908.91 L 452.17 908.90 L 453.64 908.82 L 455.11 908.88 L 456.58 908.88 L 458.06 908.91 L 459.53 908.80 L 461.00 908.88 L 462.47 908.80 L 463.94 908.74 L 465.42 908.86 L 466.89 908.27 L 468.36 894.31 L 469.83 892.34 L 471.31 906.72 L 472.78 897.18 L 474.25 898.85 L 475.72 898.80 L 477.19 891.13 L 478.67 892.78 L 480.14 884.65 L 481.61 853.82 L 483.08 857.29 L 484.56 859.08 L 486.03 852.00 L 487.50 849.05 L 488.97 866.65 L 490.44 883.03 L 491.92 883.32 L 493.39 895.28 L 494.86 905.38 L 496.33 891.53 L 497.81 879.42 L 499.28 871.83 L 500.75 863.42 L 502.22 850.98 L 503.69 840.90 L 505.17 843.44 L 506.64 848.69 L 508.11 856.60 L 509.58 895.37 L 511.06 905.53 L 512.53 902.59 L 514.00 884.50 L 515.47 878.20 L 516.94 873.84 L 518.42 859.33 L 519.89 856.22 L 521.36 863.90 L 522.83 881.20 L 524.31 888.97 L 525.78 877.57 L 527.25 884.38 L 528.72 897.54 L 530.19 894.57 L 531.67 889.99 L 533.14 901.63 L 534.61 902.76 L 536.08 892.04 L 537.56 883.19 L 539.03 882.15 L 540.50 889.49 L 541.97 895.73 L 543.44 902.77 L 544.92 905.68 L 546.39 899.80 L 547.86 904.16 L 549.33 902.81 L 550.81 894.32 L 552.28 898.69 L 553.75 895.33 L 555.22 896.13 L 556.69 900.89 L 558.17 905.09 L 559.64 897.92 L 561.11 903.97 L 562.58 900.61 L 564.06 906.28 L 565.53 905.22 L 567.00 899.49 L 568.47 896.58 L 569.94 900.56 L 571.42 890.93 L 572.89 896.83 L 574.36 901.92 L 575.83 904.33 L 577.31 905.19 L 578.78 896.59 L 580.25 901.53 L 581.72 904.60 L 583.19 901.85 L 584.67 906.82 L 586.14 906.83 L 587.61 906.05 L 589.08 903.85 L 590.56 901.04 L 592.03 893.03 L 593.50 901.17 L 594.97 905.86 L 596.44 903.72 L 597.92 901.24 L 599.39 903.49 L 600.86 897.28 L 602.33 901.43 L 603.81 894.00 L 605.28 898.09 L 606.75 902.25 L 608.22 906.94 L 609.69 902.60 L 611.17 902.60 L 612.64 900.13 L 614.11 898.74 L 615.58 899.57 L 617.06 899.36 L 618.53 900.22 L 620.00 903.33 L 621.47 904.86 L 622.94 903.91 L 624.42 906.83 L 625.89 901.32 L 627.36 905.84 L 628.83 905.15 L 630.31 905.46 L 631.78 902.14 L 633.25 899.32 L 634.72 902.17 L 636.19 901.62 L 637.67 901.95 L 639.14 895.97 L 640.61 890.98 L 642.08 885.10 L 643.56 878.14 L 645.03 868.01 L 646.50 854.69 L 647.97 838.64 L 649.44 822.84 L 650.92 857.38 L 652.39 859.40 L 653.86 838.42 L 655.33 862.03 L 656.81 896.93 L 658.28 857.64 L 659.75 813.35 L 661.22 793.40 L 662.69 806.13 L 664.17 847.74 L 665.64 859.54 L 667.11 886.23 L 668.58 891.17 L 670.06 851.22 L 671.53 855.14 L 673.00 862.69 L 674.47 862.42 L 675.94 870.71 L 677.42 895.71 L 678.89 900.41 L 680.36 901.90 L 681.83 901.01 L 683.31 900.59 L 684.78 901.02 L 686.25 901.32 L 687.72 903.82 L 689.19 907.19 L 690.67 903.82 L 692.14 898.15 L 693.61 902.87 L 695.08 907.43 L 696.56 901.61 L 698.03 905.24 L 699.50 902.05 L 700.97 905.33 L 702.44 906.53 L 703.92 906.94 L 705.39 906.55 L 706.86 903.51 L 708.33 901.54 L 709.81 902.34 L 711.28 907.14 L 712.75 906.07 L 714.22 904.91 L 715.69 908.16 L 717.17 907.76 L 718.64 903.65 L 720.11 904.69 L 721.58 906.33 L 723.06 906.80 L 724.53 902.62 L 726.00 897.78 L 727.47 905.81 L 728.94 895.72 L 730.42 887.34 L 731.89 887.44" stroke="#E53935" />
<text x="620.00" y="952" font-size="15" text-anchor="middle">minutos (relativo ao início do evento)</text>
<text class="small" x="90.00" y="936" text-anchor="middle">-4.00</text>
<text class="small" x="266.67" y="936" text-anchor="middle">-2.00</text>
<text class="small" x="443.33" y="936" text-anchor="middle">0.00</text>
<text class="small" x="620.00" y="936" text-anchor="middle">2.00</text>
<text class="small" x="796.67" y="936" text-anchor="middle">4.00</text>
<text class="small" x="973.33" y="936" text-anchor="middle">6.00</text>
<text class="small" x="1150.00" y="936" text-anchor="middle">8.00</text>
</svg>