<?xml version="1.0" encoding="UTF-8"?>
<svg xmlns="http://www.w3.org/2000/svg" width="1180" height="980" viewBox="0 0 1180 980">
<style>
text { font-family: -apple-system, BlinkMacSystemFont, 'Segoe UI', Roboto, Helvetica, Arial, sans-serif; fill: #111; }
.small { font-size: 12px; fill: #222; }
.title { font-size: 18px; font-weight: 700; }
.axis { stroke: #111; stroke-width: 1.4; }
.grid { stroke: #E6E6E6; stroke-width: 1; }
.event { fill: #FFEB3B; fill-opacity: 0.18; }
.eventline { stroke: #F9A825; stroke-width: 1.2; stroke-dasharray: 4 3; }
.series { fill: none; stroke-width: 1.8; }
</style>
<text class="title" x="90" y="34">ciclo 14 — espera_basculamento — 2025-12-13T02:47:53-03:00 → 2025-12-13T02:48:10-03:00 (span 17s, dur 18s)</text>
<text class="small" x="90" y="54">GPS: -11.692986,-47.165252  hotspot: -11.693,-47.165</text>
<text class="small" x="90" y="70">Janela: -3.00 → 3.28 min (relativo ao início do evento)</text>
<text x="90" y="79.00" font-size="14" font-weight="700">Velocidade (km/h)</text>
<rect class="event" x="443.33" y="85.00" width="25.03" height="192.75" />
<line class="eventline" x1="443.33" y1="85.00" x2="443.33" y2="277.75" />
<line class="eventline" x1="468.36" y1="85.00" x2="468.36" y2="277.75" />
<line class="grid" x1="90" y1="277.75" x2="1150" y2="277.75" />
<text class="small" x="80" y="281.75" text-anchor="end">0.00</text>
<line class="grid" x1="90" y1="239.20" x2="1150" y2="239.20" />
<text class="small" x="80" y="243.20" text-anchor="end">10.0</text>
<line class="grid" x1="90" y1="200.65" x2="1150" y2="200.65" />
<text class="small" x="80" y="204.65" text-anchor="end">20.0</text>
<line class="grid" x1="90" y1="162.10" x2="1150" y2="162.10" />
<text class="small" x="80" y="166.10" text-anchor="end">30.0</text>
<line class="grid" x1="90" y1="123.55" x2="1150" y2="123.55" />
<text class="small" x="80" y="127.55" text-anchor="end">40.0</text>
<line class="grid" x1="90" y1="85.00" x2="1150" y2="85.00" />
<text class="small" x="80" y="89.00" text-anchor="end">50.0</text>
<line class="grid" x1="90.00" y1="85.00" x2="90.00" y2="277.75" />
<line class="grid" x1="266.67" y1="85.00" x2="266.67" y2="277.75" />
<line class="grid" x1="443.33" y1="85.00" x2="443.33" y2="277.75" />
<line class="grid" x1="620.00" y1="85.00" x2="620.00" y2="277.75" />
<line class="grid" x1="796.67" y1="85.00" x2="796.67" y2="277.75" />
<line class="grid" x1="973.33" y1="85.00" x2="973.33" y2="277.75" />
<line class="grid" x1="1150.00" y1="85.00" x2="1150.00" y2="277.75" />
<line class="axis" x1="90" y1="85.00" x2="90" y2="277.75" />
<line class="axis" x1="90" y1="277.75" x2="1150" y2="277.75" />
<path class="series" d="M 178.33 246.80 L 179.81 247.91 L 181.28 246.94 L 182.75 246.94 L 184.22 247.36 L 185.69 246.25 L 187.17 248.61 L 188.64 248.19 L 190.11 247.91 L 191.58 247.08 L 193.06 247.77 L 194.53 246.94 L 196.00 245.97 L 197.47 245.14 L 198.94 243.06 L 200.42 245.55 L 201.89 244.03 L 203.36 243.89 L 204.83 242.50 L 206.31 236.25 L 207.78 229.45 L 209.25 230.15 L 210.72 224.32 L 212.19 218.49 L 213.67 213.36 L 215.14 209.89 L 216.61 204.34 L 218.08 201.70 L 219.56 202.53 L 221.03 194.76 L 222.50 198.37 L 223.97 201.98 L 225.44 195.18 L 226.92 196.42 L 228.39 197.95 L 229.86 200.87 L 231.33 198.37 L 232.81 196.70 L 234.28 200.45 L 235.75 206.00 L 237.22 213.77 L 238.69 216.96 L 240.17 221.54 L 241.64 225.71 L 243.11 228.34 L 244.58 230.84 L 246.06 232.09 L 247.53 239.45 L 249.00 236.95 L 250.47 235.98 L 251.94 236.12 L 253.42 236.25 L 254.89 235.56 L 256.36 233.20 L 257.83 234.17 L 259.31 230.01 L 260.78 228.07 L 262.25 229.04 L 263.72 222.52 L 265.19 224.32 L 266.67 222.52 L 268.14 223.49 L 269.61 220.71 L 271.08 219.74 L 272.56 220.57 L 274.03 222.79 L 275.50 224.32 L 276.97 233.76 L 278.44 235.28 L 279.92 243.75 L 281.39 247.36 L 282.86 244.58 L 284.33 246.25 L 285.81 246.66 L 287.28 250.83 L 288.75 254.30 L 290.22 258.04 L 291.69 256.38 L 293.17 255.13 L 294.64 257.21 L 296.11 257.63 L 297.58 257.49 L 299.06 253.19 L 300.53 249.02 L 302.00 250.69 L 303.47 252.08 L 304.94 248.61 L 306.42 255.13 L 307.89 261.93 L 309.36 265.26 L 310.83 277.75 L 312.31 277.75 L 313.78 277.75 L 315.25 277.75 L 316.72 271.50 L 318.19 270.12 L 319.67 269.15 L 321.14 266.51 L 322.61 264.70 L 324.08 265.12 L 325.56 264.43 L 327.03 264.01 L 328.50 263.73 L 329.97 264.98 L 331.44 264.84 L 332.92 263.87 L 334.39 264.43 L 335.86 263.87 L 337.33 264.29 L 338.81 263.59 L 340.28 264.84 L 341.75 266.51 L 343.22 264.15 L 344.69 266.23 L 346.17 268.59 L 347.64 268.17 L 349.11 270.26 L 350.58 270.67 L 352.06 277.75 L 353.53 266.65 L 355.00 277.75 L 356.47 277.75 L 357.94 277.75 L 359.42 277.75 L 360.89 277.75 L 362.36 277.75 L 363.83 277.75 L 365.31 277.75 L 366.78 277.75 L 368.25 277.75 L 369.72 277.75 L 371.19 277.75 L 372.67 277.75 L 374.14 277.75 L 375.61 277.75 L 377.08 277.75 L 378.56 277.75 L 380.03 277.75 L 381.50 277.75 L 382.97 277.75 L 384.44 277.75 L 385.92 277.75 L 387.39 277.75 L 388.86 277.75 L 390.33 277.75 L 391.81 277.75 L 393.28 277.75 L 394.75 277.75 L 396.22 277.75 L 397.69 277.75 L 399.17 277.75 L 400.64 277.75 L 402.11 277.75 L 403.58 277.75 L 405.06 277.75 L 406.53 277.75 L 408.00 277.75 L 409.47 277.75 L 410.94 277.75 L 412.42 277.75 L 413.89 277.75 L 415.36 277.75 L 416.83 277.75 L 418.31 277.75 L 419.78 277.75 L 421.25 277.75 L 422.72 277.75 L 424.19 277.75 L 425.67 277.75 L 427.14 263.59 L 428.61 272.75 L 430.08 277.75 L 431.56 277.75 L 433.03 277.75 L 434.50 277.75 L 435.97 277.75 L 437.44 264.01 L 438.92 260.26 L 440.39 262.62 L 441.86 269.28 L 443.33 277.75 L 444.81 277.75 L 446.28 277.75 L 447.75 277.75 L 449.22 277.75 L 450.69 277.75 L 452.17 277.75 L 453.64 277.75 L 455.11 277.75 L 456.58 277.75 L 458.06 277.75 L 459.53 277.75 L 461.00 277.75 L 462.47 277.75 L 463.94 277.75 L 465.42 277.75 L 466.89 277.75 L 468.36 277.75 L 469.83 257.07 L 471.31 250.41 L 472.78 249.58 L 474.25 240.42 L 475.72 229.73 L 477.19 225.57 L 478.67 227.23 L 480.14 225.01 L 481.61 226.26 L 483.08 225.01 L 484.56 222.93 L 486.03 223.35 L 487.50 224.87 L 488.97 222.93 L 490.44 221.96 L 491.92 227.51 L 493.39 230.56 L 494.86 244.30 L 496.33 232.79 L 497.81 225.99 L 499.28 218.91 L 500.75 216.55 L 502.22 211.14 L 503.69 212.52 L 505.17 213.63 L 506.64 217.66 L 508.11 214.74 L 509.58 212.80 L 511.06 216.69 L 512.53 216.13 L 514.00 216.13 L 515.47 210.30 L 516.94 206.00 L 518.42 202.25 L 519.89 197.54 L 521.36 193.65 L 522.83 191.98 L 524.31 189.35 L 525.78 188.65 L 527.25 186.71 L 528.72 190.04 L 530.19 189.76 L 531.67 187.40 L 533.14 188.38 L 534.61 189.49 L 536.08 184.77 L 537.56 187.96 L 539.03 187.82 L 540.50 189.49 L 541.97 190.87 L 543.44 194.34 L 544.92 190.46 L 546.39 193.09 L 547.86 189.35 L 549.33 188.79 L 550.81 188.24 L 552.28 184.91 L 553.75 180.05 L 555.22 175.47 L 556.69 168.95 L 558.17 167.84 L 559.64 167.70 L 561.11 167.84 L 562.58 169.36 L 564.06 167.56 L 565.53 165.62 L 567.00 164.23 L 568.47 167.42 L 569.94 169.64 L 571.42 172.00 L 572.89 172.28 L 574.36 172.42 L 575.83 172.14 L 577.31 171.86 L 578.78 173.39 L 580.25 172.14 L 581.72 173.11 L 583.19 173.66 L 584.67 172.69 L 586.14 175.33 L 587.61 174.64 L 589.08 175.33 L 590.56 169.78 L 592.03 163.26 L 593.50 160.48 L 594.97 158.12 L 596.44 157.29 L 597.92 157.43 L 599.39 157.57 L 600.86 158.54 L 602.33 158.54 L 603.81 160.48 L 605.28 161.45 L 606.75 162.42 L 608.22 163.53 L 609.69 164.78 L 611.17 165.75 L 612.64 165.48 L 614.11 164.23 L 615.58 163.12 L 617.06 162.01 L 618.53 164.09 L 620.00 164.23 L 621.47 167.42 L 622.94 169.64 L 624.42 171.31 L 625.89 173.11 L 627.36 175.19 L 628.83 176.16 L 630.31 177.27 L 631.78 177.00 L 633.25 177.00 L 634.72 175.33 L 636.19 173.53 L 637.67 172.55 L 639.14 173.53 L 640.61 171.31 L 642.08 168.11 L 643.56 167.42 L 645.03 166.45 L 646.50 167.28 L 647.97 166.45 L 649.44 165.89 L 650.92 164.92 L 652.39 166.73 L 653.86 173.66 L 655.33 178.52 L 656.81 186.99 L 658.28 195.04 L 659.75 208.78 L 661.22 216.69 L 662.69 222.24 L 664.17 215.58 L 665.64 213.63 L 667.11 214.74 L 668.58 210.16 L 670.06 208.36 L 671.53 201.00 L 673.00 198.92 L 674.47 199.20 L 675.94 202.25 L 677.42 201.14 L 678.89 202.25 L 680.36 194.90 L 681.83 184.91 L 683.31 177.41 L 684.78 171.58 L 686.25 164.92 L 687.72 158.95 L 689.19 155.48 L 690.67 154.10 L 692.14 152.29 L 693.61 155.48 L 695.08 156.73 L 696.56 159.37 L 698.03 161.59 L 699.50 159.79 L 700.97 160.20 L 702.44 156.46 L 703.92 156.32 L 705.39 153.96 L 706.86 152.71 L 708.33 150.21 L 709.81 148.13 L 711.28 147.85 L 712.75 148.27 L 714.22 148.82 L 715.69 148.41 L 717.17 151.74 L 718.64 153.82 L 720.11 152.71 L 721.58 152.71 L 723.06 151.46 L 724.53 154.37 L 726.00 153.68 L 727.47 156.46 L 728.94 154.10 L 730.42 153.96 L 731.89 154.37 L 733.36 154.10" stroke="#1976D2" />
<text x="90" y="289.75" font-size="14" font-weight="700">Inclinação (graus)</text>
<rect class="event" x="443.33" y="295.75" width="25.03" height="192.75" />
<line class="eventline" x1="443.33" y1="295.75" x2="443.33" y2="488.50" />
<line class="eventline" x1="468.36" y1="295.75" x2="468.36" y2="488.50" />
<line class="grid" x1="90" y1="488.50" x2="1150" y2="488.50" />
<text class="small" x="80" y="492.50" text-anchor="end">-20.0</text>
<line class="grid" x1="90" y1="449.95" x2="1150" y2="449.95" />
<text class="small" x="80" y="453.95" text-anchor="end">-10.0</text>
<line class="grid" x1="90" y1="411.40" x2="1150" y2="411.40" />
<text class="small" x="80" y="415.40" text-anchor="end">0.00</text>
<line class="grid" x1="90" y1="372.85" x2="1150" y2="372.85" />
<text class="small" x="80" y="376.85" text-anchor="end">10.0</text>
<line class="grid" x1="90" y1="334.30" x2="1150" y2="334.30" />
<text class="small" x="80" y="338.30" text-anchor="end">20.0</text>
<line class="grid" x1="90" y1="295.75" x2="1150" y2="295.75" />
<text class="small" x="80" y="299.75" text-anchor="end">30.0</text>
<line class="grid" x1="90.00" y1="295.75" x2="90.00" y2="488.50" />
<line class="grid" x1="266.67" y1="295.75" x2="266.67" y2="488.50" />
<line class="grid" x1="443.33" y1="295.75" x2="443.33" y2="488.50" />
<line class="grid" x1="620.00" y1="295.75" x2="620.00" y2="488.50" />
<line class="grid" x1="796.67" y1="295.75" x2="796.67" y2="488.50" />
<line class="grid" x1="973.33" y1="295.75" x2="973.33" y2="488.50" />
<line class="grid" x1="1150.00" y1="295.75" x2="1150.00" y2="488.50" />
<line class="axis" x1="90" y1="295.75" x2="90" y2="488.50" />
<line class="axis" x1="90" y1="488.50" x2="1150" y2="488.50" />
<path class="series" d="M 178.33 387.74 L 179.81 389.60 L 181.28 390.35 L 182.75 391.62 L 184.22 391.84 L 185.69 391.14 L 187.17 392.54 L 188.64 390.23 L 190.11 392.24 L 191.58 393.37 L 193.06 395.50 L 194.53 391.76 L 196.00 388.78 L 197.47 384.71 L 198.94 386.16 L 200.42 383.61 L 201.89 386.01 L 203.36 384.91 L 204.83 385.45 L 206.31 381.63 L 207.78 377.69 L 209.25 371.68 L 210.72 372.56 L 212.19 375.00 L 213.67 372.59 L 215.14 364.36 L 216.61 373.87 L 218.08 366.77 L 219.56 375.24 L 221.03 370.43 L 222.50 372.82 L 223.97 373.03 L 225.44 370.72 L 226.92 374.99 L 228.39 365.91 L 229.86 371.20 L 231.33 368.89 L 232.81 370.32 L 234.28 374.85 L 235.75 373.01 L 237.22 372.45 L 238.69 378.71 L 240.17 381.22 L 241.64 377.01 L 243.11 379.88 L 244.58 380.15 L 246.06 380.12 L 247.53 378.36 L 249.00 384.22 L 250.47 384.46 L 251.94 382.09 L 253.42 386.16 L 254.89 381.94 L 256.36 378.75 L 257.83 376.44 L 259.31 372.86 L 260.78 369.90 L 262.25 372.68 L 263.72 368.42 L 265.19 367.28 L 266.67 361.34 L 268.14 356.63 L 269.61 359.50 L 271.08 360.56 L 272.56 354.72 L 274.03 359.41 L 275.50 358.69 L 276.97 366.88 L 278.44 363.08 L 279.92 363.40 L 281.39 367.49 L 282.86 374.27 L 284.33 375.20 L 285.81 367.10 L 287.28 360.11 L 288.75 363.50 L 290.22 366.23 L 291.69 367.02 L 293.17 366.70 L 294.64 371.27 L 296.11 370.47 L 297.58 372.63 L 299.06 369.86 L 300.53 366.66 L 302.00 362.13 L 303.47 363.03 L 304.94 356.70 L 306.42 354.45 L 307.89 355.37 L 309.36 343.16 L 310.83 358.90 L 312.31 363.35 L 313.78 363.55 L 315.25 356.01 L 316.72 358.88 L 318.19 361.44 L 319.67 358.91 L 321.14 360.54 L 322.61 361.90 L 324.08 363.65 L 325.56 362.16 L 327.03 365.53 L 328.50 363.31 L 329.97 363.41 L 331.44 362.66 L 332.92 362.23 L 334.39 362.31 L 335.86 363.18 L 337.33 363.40 L 338.81 362.84 L 340.28 361.80 L 341.75 362.51 L 343.22 366.67 L 344.69 373.79 L 346.17 364.86 L 347.64 369.66 L 349.11 369.76 L 350.58 366.54 L 352.06 368.36 L 353.53 373.71 L 355.00 369.76 L 356.47 370.70 L 357.94 370.21 L 359.42 370.74 L 360.89 374.74 L 362.36 378.40 L 363.83 370.22 L 365.31 363.76 L 366.78 369.25 L 368.25 378.28 L 369.72 370.87 L 371.19 371.97 L 372.67 370.35 L 374.14 369.90 L 375.61 370.40 L 377.08 370.10 L 378.56 370.03 L 380.03 370.09 L 381.50 370.16 L 382.97 370.25 L 384.44 370.25 L 385.92 370.35 L 387.39 370.43 L 388.86 370.52 L 390.33 370.69 L 391.81 370.72 L 393.28 371.40 L 394.75 370.10 L 396.22 371.55 L 397.69 369.93 L 399.17 370.39 L 400.64 370.83 L 402.11 370.72 L 403.58 370.65 L 405.06 370.83 L 406.53 371.08 L 408.00 370.85 L 409.47 371.12 L 410.94 371.65 L 412.42 370.95 L 413.89 369.31 L 415.36 373.24 L 416.83 370.92 L 418.31 370.74 L 419.78 370.29 L 421.25 371.44 L 422.72 370.58 L 424.19 382.43 L 425.67 389.81 L 427.14 362.16 L 428.61 370.91 L 430.08 377.84 L 431.56 387.94 L 433.03 385.97 L 434.50 378.61 L 435.97 377.70 L 437.44 375.33 L 438.92 365.21 L 440.39 353.49 L 441.86 354.90 L 443.33 369.81 L 444.81 365.75 L 446.28 366.58 L 447.75 366.53 L 449.22 366.53 L 450.69 365.56 L 452.17 366.02 L 453.64 365.77 L 455.11 366.11 L 456.58 365.01 L 458.06 365.39 L 459.53 365.29 L 461.00 365.34 L 462.47 364.81 L 463.94 365.63 L 465.42 365.03 L 466.89 377.71 L 468.36 382.60 L 469.83 371.95 L 471.31 374.32 L 472.78 373.29 L 474.25 372.68 L 475.72 377.58 L 477.19 373.38 L 478.67 361.85 L 480.14 356.55 L 481.61 358.06 L 483.08 361.33 L 484.56 360.83 L 486.03 357.41 L 487.50 367.69 L 488.97 368.59 L 490.44 372.20 L 491.92 364.01 L 493.39 363.93 L 494.86 367.50 L 496.33 381.66 L 497.81 387.28 L 499.28 374.59 L 500.75 378.07 L 502.22 374.53 L 503.69 368.69 L 505.17 357.24 L 506.64 364.27 L 508.11 361.73 L 509.58 351.48 L 511.06 349.92 L 512.53 345.87 L 514.00 346.34 L 515.47 352.01 L 516.94 351.83 L 518.42 354.92 L 519.89 356.15 L 521.36 353.83 L 522.83 354.54 L 524.31 355.07 L 525.78 355.55 L 527.25 355.66 L 528.72 368.13 L 530.19 368.52 L 531.67 357.32 L 533.14 365.95 L 534.61 368.17 L 536.08 357.98 L 537.56 358.88 L 539.03 358.54 L 540.50 369.18 L 541.97 367.07 L 543.44 367.80 L 544.92 367.77 L 546.39 367.20 L 547.86 361.86 L 549.33 356.62 L 550.81 356.51 L 552.28 355.34 L 553.75 354.09 L 555.22 355.94 L 556.69 349.95 L 558.17 347.08 L 559.64 346.67 L 561.11 345.45 L 562.58 343.82 L 564.06 343.82 L 565.53 340.71 L 567.00 346.14 L 568.47 343.76 L 569.94 345.56 L 571.42 343.24 L 572.89 344.49 L 574.36 342.64 L 575.83 344.47 L 577.31 343.79 L 578.78 345.60 L 580.25 343.02 L 581.72 342.44 L 583.19 344.72 L 584.67 343.65 L 586.14 343.32 L 587.61 343.40 L 589.08 351.20 L 590.56 351.52 L 592.03 352.69 L 593.50 345.54 L 594.97 342.51 L 596.44 343.77 L 597.92 343.34 L 599.39 344.65 L 600.86 340.82 L 602.33 343.67 L 603.81 344.54 L 605.28 342.04 L 606.75 343.01 L 608.22 345.04 L 609.69 343.83 L 611.17 342.60 L 612.64 341.96 L 614.11 342.99 L 615.58 343.97 L 617.06 343.04 L 618.53 342.99 L 620.00 342.70 L 621.47 345.01 L 622.94 342.43 L 624.42 343.43 L 625.89 344.22 L 627.36 344.83 L 628.83 343.62 L 630.31 344.23 L 631.78 343.96 L 633.25 343.78 L 634.72 343.41 L 636.19 343.24 L 637.67 343.83 L 639.14 344.01 L 640.61 341.40 L 642.08 342.90 L 643.56 343.18 L 645.03 343.37 L 646.50 343.55 L 647.97 342.50 L 649.44 342.46 L 650.92 342.30 L 652.39 342.93 L 653.86 345.19 L 655.33 345.24 L 656.81 332.72 L 658.28 332.14 L 659.75 334.16 L 661.22 342.01 L 662.69 366.12 L 664.17 356.57 L 665.64 364.69 L 667.11 368.33 L 668.58 363.09 L 670.06 359.78 L 671.53 366.13 L 673.00 361.60 L 674.47 368.51 L 675.94 364.82 L 677.42 372.13 L 678.89 383.98 L 680.36 386.94 L 681.83 387.65 L 683.31 383.33 L 684.78 383.41 L 686.25 382.79 L 687.72 375.92 L 689.19 372.24 L 690.67 366.26 L 692.14 361.94 L 693.61 367.00 L 695.08 363.07 L 696.56 361.75 L 698.03 361.88 L 699.50 359.81 L 700.97 367.64 L 702.44 360.14 L 703.92 362.37 L 705.39 359.87 L 706.86 356.98 L 708.33 358.23 L 709.81 359.78 L 711.28 358.29 L 712.75 360.16 L 714.22 359.42 L 715.69 359.24 L 717.17 361.44 L 718.64 363.20 L 720.11 363.48 L 721.58 364.03 L 723.06 362.21 L 724.53 365.99 L 726.00 362.72 L 727.47 366.89 L 728.94 365.11 L 730.42 363.98 L 731.89 367.04 L 733.36 367.16" stroke="#2E7D32" />
<path class="series" d="M 178.33 406.10 L 179.81 405.20 L 181.28 403.49 L 182.75 404.85 L 184.22 405.35 L 185.69 406.28 L 187.17 407.90 L 188.64 404.51 L 190.11 407.26 L 191.58 413.50 L 193.06 412.56 L 194.53 415.98 L 196.00 404.69 L 197.47 415.75 L 198.94 420.25 L 200.42 410.25 L 201.89 410.15 L 203.36 418.31 L 204.83 415.67 L 206.31 414.30 L 207.78 410.10 L 209.25 414.22 L 210.72 402.73 L 212.19 407.91 L 213.67 419.63 L 215.14 417.23 L 216.61 410.30 L 218.08 412.64 L 219.56 417.15 L 221.03 410.86 L 222.50 413.53 L 223.97 412.95 L 225.44 413.20 L 226.92 417.92 L 228.39 420.71 L 229.86 421.01 L 231.33 427.52 L 232.81 425.36 L 234.28 444.11 L 235.75 427.47 L 237.22 417.72 L 238.69 412.83 L 240.17 410.61 L 241.64 418.42 L 243.11 426.75 L 244.58 418.67 L 246.06 405.60 L 247.53 404.56 L 249.00 400.46 L 250.47 402.77 L 251.94 383.88 L 253.42 392.14 L 254.89 393.90 L 256.36 402.02 L 257.83 406.97 L 259.31 395.55 L 260.78 405.33 L 262.25 411.54 L 263.72 412.11 L 265.19 410.99 L 266.67 401.69 L 268.14 399.37 L 269.61 402.13 L 271.08 401.97 L 272.56 398.71 L 274.03 396.18 L 275.50 395.49 L 276.97 403.16 L 278.44 399.84 L 279.92 404.54 L 281.39 407.29 L 282.86 407.77 L 284.33 405.14 L 285.81 409.65 L 287.28 411.22 L 288.75 420.70 L 290.22 426.10 L 291.69 425.67 L 293.17 419.74 L 294.64 416.64 L 296.11 426.27 L 297.58 417.62 L 299.06 421.64 L 300.53 419.27 L 302.00 420.72 L 303.47 410.32 L 304.94 410.91 L 306.42 401.47 L 307.89 405.45 L 309.36 393.72 L 310.83 405.76 L 312.31 404.75 L 313.78 402.76 L 315.25 401.67 L 316.72 403.58 L 318.19 407.59 L 319.67 409.51 L 321.14 403.87 L 322.61 405.26 L 324.08 406.52 L 325.56 405.36 L 327.03 407.12 L 328.50 405.86 L 329.97 402.96 L 331.44 406.04 L 332.92 403.48 L 334.39 402.83 L 335.86 406.60 L 337.33 407.54 L 338.81 406.02 L 340.28 397.02 L 341.75 404.29 L 343.22 402.83 L 344.69 408.79 L 346.17 413.66 L 347.64 405.91 L 349.11 407.93 L 350.58 410.24 L 352.06 409.44 L 353.53 402.47 L 355.00 404.84 L 356.47 402.92 L 357.94 406.53 L 359.42 407.67 L 360.89 404.81 L 362.36 407.21 L 363.83 408.72 L 365.31 409.54 L 366.78 407.13 L 368.25 406.99 L 369.72 409.25 L 371.19 410.34 L 372.67 407.25 L 374.14 408.29 L 375.61 409.34 L 377.08 408.79 L 378.56 408.61 L 380.03 409.04 L 381.50 408.53 L 382.97 408.96 L 384.44 408.78 L 385.92 408.87 L 387.39 408.85 L 388.86 408.97 L 390.33 408.92 L 391.81 408.84 L 393.28 409.16 L 394.75 407.69 L 396.22 410.86 L 397.69 408.33 L 399.17 409.15 L 400.64 408.77 L 402.11 409.42 L 403.58 408.99 L 405.06 408.94 L 406.53 409.29 L 408.00 409.22 L 409.47 409.33 L 410.94 409.03 L 412.42 409.58 L 413.89 408.77 L 415.36 409.58 L 416.83 409.25 L 418.31 409.88 L 419.78 409.70 L 421.25 409.32 L 422.72 410.64 L 424.19 405.97 L 425.67 406.66 L 427.14 410.00 L 428.61 410.68 L 430.08 406.76 L 431.56 406.32 L 433.03 406.57 L 434.50 406.59 L 435.97 406.56 L 437.44 404.95 L 438.92 411.44 L 440.39 407.66 L 441.86 406.18 L 443.33 407.19 L 444.81 406.56 L 446.28 406.63 L 447.75 407.25 L 449.22 407.25 L 450.69 407.48 L 452.17 406.69 L 453.64 407.24 L 455.11 407.24 L 456.58 406.91 L 458.06 407.20 L 459.53 406.94 L 461.00 407.18 L 462.47 407.03 L 463.94 407.10 L 465.42 407.27 L 466.89 405.35 L 468.36 406.37 L 469.83 408.85 L 471.31 406.51 L 472.78 414.08 L 474.25 417.86 L 475.72 417.78 L 477.19 426.97 L 478.67 418.74 L 480.14 424.66 L 481.61 430.36 L 483.08 424.93 L 484.56 431.13 L 486.03 417.15 L 487.50 411.53 L 488.97 392.49 L 490.44 417.62 L 491.92 431.34 L 493.39 418.53 L 494.86 418.70 L 496.33 422.84 L 497.81 424.10 L 499.28 429.63 L 500.75 419.19 L 502.22 410.13 L 503.69 410.72 L 505.17 405.62 L 506.64 411.46 L 508.11 403.45 L 509.58 391.04 L 511.06 390.24 L 512.53 388.67 L 514.00 402.16 L 515.47 400.29 L 516.94 404.96 L 518.42 408.57 L 519.89 416.13 L 521.36 403.83 L 522.83 414.26 L 524.31 395.82 L 525.78 412.95 L 527.25 387.66 L 528.72 414.31 L 530.19 404.42 L 531.67 408.74 L 533.14 412.80 L 534.61 402.91 L 536.08 411.78 L 537.56 409.09 L 539.03 409.49 L 540.50 404.69 L 541.97 400.71 L 543.44 411.56 L 544.92 413.46 L 546.39 406.69 L 547.86 409.77 L 549.33 387.95 L 550.81 401.18 L 552.28 410.81 L 553.75 406.18 L 555.22 404.66 L 556.69 406.76 L 558.17 417.78 L 559.64 411.46 L 561.11 414.21 L 562.58 412.18 L 564.06 411.22 L 565.53 415.34 L 567.00 413.32 L 568.47 414.59 L 569.94 413.90 L 571.42 411.14 L 572.89 413.88 L 574.36 419.07 L 575.83 404.66 L 577.31 408.70 L 578.78 412.98 L 580.25 413.36 L 581.72 408.54 L 583.19 415.37 L 584.67 419.07 L 586.14 427.01 L 587.61 417.07 L 589.08 415.59 L 590.56 418.82 L 592.03 414.03 L 593.50 413.54 L 594.97 406.75 L 596.44 405.63 L 597.92 403.42 L 599.39 410.18 L 600.86 408.21 L 602.33 410.29 L 603.81 412.51 L 605.28 417.57 L 606.75 416.30 L 608.22 418.01 L 609.69 421.37 L 611.17 411.87 L 612.64 420.13 L 614.11 416.43 L 615.58 405.13 L 617.06 409.61 L 618.53 421.14 L 620.00 406.88 L 621.47 411.79 L 622.94 406.87 L 624.42 405.21 L 625.89 404.64 L 627.36 405.02 L 628.83 410.26 L 630.31 406.35 L 631.78 405.23 L 633.25 405.92 L 634.72 403.20 L 636.19 405.84 L 637.67 408.25 L 639.14 406.76 L 640.61 404.79 L 642.08 406.03 L 643.56 409.11 L 645.03 418.32 L 646.50 416.41 L 647.97 421.50 L 649.44 427.83 L 650.92 431.44 L 652.39 437.84 L 653.86 442.78 L 655.33 428.54 L 656.81 432.04 L 658.28 424.05 L 659.75 426.81 L 661.22 423.88 L 662.69 419.30 L 664.17 396.92 L 665.64 393.06 L 667.11 381.27 L 668.58 380.08 L 670.06 376.56 L 671.53 382.37 L 673.00 388.28 L 674.47 400.26 L 675.94 393.13 L 677.42 417.00 L 678.89 415.82 L 680.36 419.83 L 681.83 425.43 L 683.31 434.16 L 684.78 422.52 L 686.25 425.97 L 687.72 417.71 L 689.19 414.17 L 690.67 410.22 L 692.14 413.93 L 693.61 404.11 L 695.08 405.24 L 696.56 407.22 L 698.03 404.43 L 699.50 404.38 L 700.97 403.32 L 702.44 404.43 L 703.92 405.45 L 705.39 403.20 L 706.86 403.92 L 708.33 401.85 L 709.81 405.29 L 711.28 402.95 L 712.75 401.38 L 714.22 407.49 L 715.69 405.77 L 717.17 408.55 L 718.64 409.38 L 720.11 412.30 L 721.58 408.87 L 723.06 406.50 L 724.53 404.42 L 726.00 405.33 L 727.47 407.14 L 728.94 405.67 L 730.42 408.04 L 731.89 409.75 L 733.36 406.49" stroke="#6A1B9A" />
<line x1="900.00" y1="307.75" x2="918.00" y2="307.75" stroke="#2E7D32" stroke-width="3" />
<text class="small" x="924.00" y="311.75">pitch</text>
<line x1="900.00" y1="323.75" x2="918.00" y2="323.75" stroke="#6A1B9A" stroke-width="3" />
<text class="small" x="924.00" y="327.75">roll</text>
<text x="90" y="500.50" font-size="14" font-weight="700">Aceleração (magnitude) (u.a.)</text>
<rect class="event" x="443.33" y="506.50" width="25.03" height="192.75" />
<line class="eventline" x1="443.33" y1="506.50" x2="443.33" y2="699.25" />
<line class="eventline" x1="468.36" y1="506.50" x2="468.36" y2="699.25" />
<line class="grid" x1="90" y1="699.25" x2="1150" y2="699.25" />
<text class="small" x="80" y="703.25" text-anchor="end">0.00</text>
<line class="grid" x1="90" y1="660.70" x2="1150" y2="660.70" />
<text class="small" x="80" y="664.70" text-anchor="end">0.50</text>
<line class="grid" x1="90" y1="622.15" x2="1150" y2="622.15" />
<text class="small" x="80" y="626.15" text-anchor="end">1.00</text>
<line class="grid" x1="90" y1="583.60" x2="1150" y2="583.60" />
<text class="small" x="80" y="587.60" text-anchor="end">1.50</text>
<line class="grid" x1="90" y1="545.05" x2="1150" y2="545.05" />
<text class="small" x="80" y="549.05" text-anchor="end">2.00</text>
<line class="grid" x1="90" y1="506.50" x2="1150" y2="506.50" />
<text class="small" x="80" y="510.50" text-anchor="end">2.50</text>
<line class="grid" x1="90.00" y1="506.50" x2="90.00" y2="699.25" />
<line class="grid" x1="266.67" y1="506.50" x2="266.67" y2="699.25" />
<line class="grid" x1="443.33" y1="506.50" x2="443.33" y2="699.25" />
<line class="grid" x1="620.00" y1="506.50" x2="620.00" y2="699.25" />
<line class="grid" x1="796.67" y1="506.50" x2="796.67" y2="699.25" />
<line class="grid" x1="973.33" y1="506.50" x2="973.33" y2="699.25" />
<line class="grid" x1="1150.00" y1="506.50" x2="1150.00" y2="699.25" />
<line class="axis" x1="90" y1="506.50" x2="90" y2="699.25" />
<line class="axis" x1="90" y1="699.25" x2="1150" y2="699.25" />
<path class="series" d="M 178.33 693.27 L 179.81 688.99 L 181.28 693.42 L 182.75 693.59 L 184.22 693.96 L 185.69 694.08 L 187.17 691.64 L 188.64 683.15 L 190.11 685.66 L 191.58 694.43 L 193.06 672.32 L 194.53 675.66 L 196.00 663.65 L 197.47 685.33 L 198.94 667.84 L 200.42 675.81 L 201.89 683.54 L 203.36 679.28 L 204.83 674.23 L 206.31 679.98 L 207.78 681.45 L 209.25 680.17 L 210.72 671.19 L 212.19 675.66 L 213.67 665.24 L 215.14 652.25 L 216.61 649.40 L 218.08 661.62 L 219.56 686.81 L 221.03 666.08 L 222.50 652.65 L 223.97 653.41 L 225.44 651.05 L 226.92 670.36 L 228.39 668.42 L 229.86 669.87 L 231.33 692.82 L 232.81 625.29 L 234.28 644.74 L 235.75 648.33 L 237.22 654.17 L 238.69 662.02 L 240.17 678.24 L 241.64 676.28 L 243.11 686.06 L 244.58 685.24 L 246.06 661.48 L 247.53 670.52 L 249.00 684.37 L 250.47 679.91 L 251.94 651.44 L 253.42 660.96 L 254.89 687.76 L 256.36 680.10 L 257.83 680.62 L 259.31 674.15 L 260.78 677.50 L 262.25 683.48 L 263.72 691.06 L 265.19 676.00 L 266.67 671.95 L 268.14 653.55 L 269.61 653.57 L 271.08 666.71 L 272.56 673.47 L 274.03 676.07 L 275.50 655.19 L 276.97 671.31 L 278.44 677.76 L 279.92 670.49 L 281.39 665.76 L 282.86 666.58 L 284.33 679.08 L 285.81 668.74 L 287.28 689.77 L 288.75 672.83 L 290.22 678.04 L 291.69 646.42 L 293.17 691.85 L 294.64 668.17 L 296.11 667.41 L 297.58 687.58 L 299.06 690.95 L 300.53 673.81 L 302.00 673.37 L 303.47 690.52 L 304.94 650.23 L 306.42 657.34 L 307.89 669.91 L 309.36 661.24 L 310.83 629.08 L 312.31 671.17 L 313.78 694.16 L 315.25 685.78 L 316.72 684.26 L 318.19 695.97 L 319.67 690.47 L 321.14 696.16 L 322.61 682.40 L 324.08 694.16 L 325.56 685.15 L 327.03 694.35 L 328.50 691.74 L 329.97 687.30 L 331.44 696.77 L 332.92 689.43 L 334.39 687.86 L 335.86 673.16 L 337.33 694.92 L 338.81 690.17 L 340.28 667.95 L 341.75 667.95 L 343.22 685.08 L 344.69 677.72 L 346.17 692.93 L 347.64 693.29 L 349.11 690.89 L 350.58 691.92 L 352.06 692.51 L 353.53 688.10 L 355.00 684.28 L 356.47 694.37 L 357.94 692.82 L 359.42 696.19 L 360.89 694.52 L 362.36 689.50 L 363.83 687.48 L 365.31 692.94 L 366.78 693.23 L 368.25 679.77 L 369.72 681.25 L 371.19 696.60 L 372.67 693.63 L 374.14 692.27 L 375.61 691.12 L 377.08 696.05 L 378.56 697.83 L 380.03 696.80 L 381.50 696.72 L 382.97 696.82 L 384.44 695.69 L 385.92 695.90 L 387.39 695.43 L 388.86 695.40 L 390.33 695.02 L 391.81 695.14 L 393.28 695.65 L 394.75 694.25 L 396.22 693.02 L 397.69 694.29 L 399.17 691.30 L 400.64 695.80 L 402.11 697.72 L 403.58 698.17 L 405.06 698.04 L 406.53 697.89 L 408.00 697.76 L 409.47 697.81 L 410.94 697.29 L 412.42 697.93 L 413.89 697.63 L 415.36 697.16 L 416.83 697.24 L 418.31 697.02 L 419.78 695.80 L 421.25 696.25 L 422.72 696.26 L 424.19 685.04 L 425.67 666.62 L 427.14 646.31 L 428.61 670.46 L 430.08 655.56 L 431.56 696.85 L 433.03 687.12 L 434.50 671.32 L 435.97 689.56 L 437.44 679.46 L 438.92 663.59 L 440.39 666.19 L 441.86 653.90 L 443.33 688.75 L 444.81 693.43 L 446.28 693.57 L 447.75 696.88 L 449.22 697.89 L 450.69 697.40 L 452.17 698.50 L 453.64 698.48 L 455.11 697.87 L 456.58 698.39 L 458.06 698.61 L 459.53 698.75 L 461.00 696.87 L 462.47 697.64 L 463.94 697.22 L 465.42 686.41 L 466.89 652.60 L 468.36 680.64 L 469.83 690.16 L 471.31 664.95 L 472.78 672.86 L 474.25 660.55 L 475.72 680.83 L 477.19 645.56 L 478.67 678.41 L 480.14 651.79 L 481.61 664.92 L 483.08 671.09 L 484.56 678.42 L 486.03 663.99 L 487.50 661.95 L 488.97 647.07 L 490.44 626.68 L 491.92 637.36 L 493.39 625.69 L 494.86 641.15 L 496.33 668.96 L 497.81 674.72 L 499.28 663.94 L 500.75 682.08 L 502.22 654.23 L 503.69 668.74 L 505.17 654.13 L 506.64 664.85 L 508.11 617.68 L 509.58 649.27 L 511.06 638.71 L 512.53 670.86 L 514.00 670.86 L 515.47 667.24 L 516.94 686.80 L 518.42 675.12 L 519.89 645.70 L 521.36 666.18 L 522.83 689.17 L 524.31 662.61 L 525.78 643.46 L 527.25 646.49 L 528.72 673.11 L 530.19 686.69 L 531.67 675.10 L 533.14 670.19 L 534.61 668.07 L 536.08 676.23 L 537.56 686.53 L 539.03 671.89 L 540.50 660.28 L 541.97 656.38 L 543.44 671.42 L 544.92 667.23 L 546.39 657.16 L 547.86 663.20 L 549.33 660.94 L 550.81 680.41 L 552.28 677.10 L 553.75 675.10 L 555.22 677.85 L 556.69 687.80 L 558.17 671.04 L 559.64 683.40 L 561.11 674.29 L 562.58 681.20 L 564.06 669.30 L 565.53 655.77 L 567.00 685.90 L 568.47 667.91 L 569.94 654.26 L 571.42 679.95 L 572.89 685.88 L 574.36 668.56 L 575.83 684.18 L 577.31 689.85 L 578.78 674.46 L 580.25 691.10 L 581.72 692.04 L 583.19 684.77 L 584.67 673.12 L 586.14 671.65 L 587.61 681.89 L 589.08 670.86 L 590.56 673.65 L 592.03 681.18 L 593.50 691.43 L 594.97 667.99 L 596.44 683.14 L 597.92 684.22 L 599.39 673.95 L 600.86 680.15 L 602.33 688.42 L 603.81 675.88 L 605.28 690.98 L 606.75 683.10 L 608.22 690.26 L 609.69 693.00 L 611.17 679.15 L 612.64 683.91 L 614.11 681.92 L 615.58 682.53 L 617.06 664.04 L 618.53 668.06 L 620.00 679.73 L 621.47 670.16 L 622.94 677.03 L 624.42 672.59 L 625.89 685.21 L 627.36 684.92 L 628.83 693.33 L 630.31 689.54 L 631.78 687.31 L 633.25 689.04 L 634.72 690.57 L 636.19 687.94 L 637.67 685.40 L 639.14 681.14 L 640.61 684.08 L 642.08 689.28 L 643.56 686.44 L 645.03 674.01 L 646.50 675.37 L 647.97 667.02 L 649.44 642.19 L 650.92 651.17 L 652.39 622.58 L 653.86 640.27 L 655.33 652.92 L 656.81 616.00 L 658.28 644.04 L 659.75 659.04 L 661.22 666.27 L 662.69 649.81 L 664.17 623.79 L 665.64 623.29 L 667.11 616.67 L 668.58 603.90 L 670.06 627.05 L 671.53 647.17 L 673.00 665.87 L 674.47 665.87 L 675.94 672.42 L 677.42 658.59 L 678.89 623.13 L 680.36 628.38 L 681.83 631.95 L 683.31 634.06 L 684.78 663.04 L 686.25 688.33 L 687.72 678.28 L 689.19 686.54 L 690.67 668.22 L 692.14 670.33 L 693.61 662.89 L 695.08 675.43 L 696.56 674.26 L 698.03 689.78 L 699.50 695.71 L 700.97 686.33 L 702.44 678.57 L 703.92 687.61 L 705.39 685.19 L 706.86 679.30 L 708.33 684.55 L 709.81 684.30 L 711.28 692.97 L 712.75 687.52 L 714.22 690.23 L 715.69 690.61 L 717.17 694.64 L 718.64 692.86 L 720.11 688.22 L 721.58 693.80 L 723.06 690.51 L 724.53 690.98 L 726.00 692.00 L 727.47 686.56 L 728.94 688.56 L 730.42 693.62 L 731.89 691.94 L 733.36 697.02" stroke="#FB8C00" />
<text x="90" y="711.25" font-size="14" font-weight="700">Giroscópio (magnitude) (u.a.)</text>
<rect class="event" x="443.33" y="717.25" width="25.03" height="192.75" />
<line class="eventline" x1="443.33" y1="717.25" x2="443.33" y2="910.00" />
<line class="eventline" x1="468.36" y1="717.25" x2="468.36" y2="910.00" />
<line class="grid" x1="90" y1="910.00" x2="1150" y2="910.00" />
<text class="small" x="80" y="914.00" text-anchor="end">0.00</text>
<line class="grid" x1="90" y1="871.45" x2="1150" y2="871.45" />
<text class="small" x="80" y="875.45" text-anchor="end">0.10</text>
<line class="grid" x1="90" y1="832.90" x2="1150" y2="832.90" />
<text class="small" x="80" y="836.90" text-anchor="end">0.20</text>
<line class="grid" x1="90" y1="794.35" x2="1150" y2="794.35" />
<text class="small" x="80" y="798.35" text-anchor="end">0.30</text>
<line class="grid" x1="90" y1="755.80" x2="1150" y2="755.80" />
<text class="small" x="80" y="759.80" text-anchor="end">0.40</text>
<line class="grid" x1="90" y1="717.25" x2="1150" y2="717.25" />
<text class="small" x="80" y="721.25" text-anchor="end">0.50</text>
<line class="grid" x1="90.00" y1="717.25" x2="90.00" y2="910.00" />
<line class="grid" x1="266.67" y1="717.25" x2="266.67" y2="910.00" />
<line class="grid" x1="443.33" y1="717.25" x2="443.33" y2="910.00" />
<line class="grid" x1="620.00" y1="717.25" x2="620.00" y2="910.00" />
<line class="grid" x1="796.67" y1="717.25" x2="796.67" y2="910.00" />
<line class="grid" x1="973.33" y1="717.25" x2="973.33" y2="910.00" />
<line class="grid" x1="1150.00" y1="717.25" x2="1150.00" y2="910.00" />
<line class="axis" x1="90" y1="717.25" x2="90" y2="910.00" />
<line class="axis" x1="90" y1="910.00" x2="1150" y2="910.00" />
<path class="series" d="M 178.33 901.64 L 179.81 899.28 L 181.28 899.15 L 182.75 899.04 L 184.22 899.33 L 185.69 901.03 L 187.17 900.56 L 188.64 899.87 L 190.11 905.36 L 191.58 905.45 L 193.06 907.80 L 194.53 902.21 L 196.00 899.44 L 197.47 907.72 L 198.94 898.78 L 200.42 905.29 L 201.89 902.15 L 203.36 903.27 L 204.83 900.68 L 206.31 903.45 L 207.78 897.84 L 209.25 901.01 L 210.72 900.12 L 212.19 899.01 L 213.67 893.71 L 215.14 894.34 L 216.61 896.40 L 218.08 898.02 L 219.56 900.37 L 221.03 902.42 L 222.50 894.87 L 223.97 889.78 L 225.44 885.41 L 226.92 887.47 L 228.39 878.37 L 229.86 880.88 L 231.33 872.40 L 232.81 867.89 L 234.28 862.19 L 235.75 872.71 L 237.22 878.73 L 238.69 886.78 L 240.17 883.43 L 241.64 879.94 L 243.11 876.71 L 244.58 872.40 L 246.06 873.49 L 247.53 877.61 L 249.00 872.33 L 250.47 882.59 L 251.94 900.47 L 253.42 903.95 L 254.89 900.91 L 256.36 897.50 L 257.83 901.70 L 259.31 899.84 L 260.78 897.67 L 262.25 890.42 L 263.72 886.68 L 265.19 888.54 L 266.67 894.25 L 268.14 899.30 L 269.61 885.43 L 271.08 883.00 L 272.56 871.87 L 274.03 878.59 L 275.50 875.19 L 276.97 877.69 L 278.44 883.67 L 279.92 889.17 L 281.39 890.70 L 282.86 895.63 L 284.33 896.36 L 285.81 901.93 L 287.28 904.93 L 288.75 889.28 L 290.22 879.62 L 291.69 884.96 L 293.17 864.80 L 294.64 866.48 L 296.11 868.77 L 297.58 857.75 L 299.06 839.85 L 300.53 835.41 L 302.00 838.70 L 303.47 842.00 L 304.94 845.79 L 306.42 871.16 L 307.89 885.99 L 309.36 899.50 L 310.83 907.73 L 312.31 908.48 L 313.78 908.82 L 315.25 906.51 L 316.72 903.76 L 318.19 907.81 L 319.67 901.48 L 321.14 897.25 L 322.61 895.66 L 324.08 894.75 L 325.56 892.75 L 327.03 891.03 L 328.50 887.46 L 329.97 889.87 L 331.44 884.53 L 332.92 886.52 L 334.39 883.25 L 335.86 881.16 L 337.33 881.13 L 338.81 879.86 L 340.28 896.27 L 341.75 896.27 L 343.22 906.45 L 344.69 903.89 L 346.17 908.29 L 347.64 899.19 L 349.11 895.66 L 350.58 895.54 L 352.06 887.49 L 353.53 880.18 L 355.00 890.00 L 356.47 896.38 L 357.94 899.94 L 359.42 899.03 L 360.89 901.94 L 362.36 906.50 L 363.83 908.01 L 365.31 907.87 L 366.78 905.29 L 368.25 906.11 L 369.72 907.89 L 371.19 908.73 L 372.67 908.19 L 374.14 908.61 L 375.61 908.98 L 377.08 908.88 L 378.56 909.12 L 380.03 909.06 L 381.50 909.13 L 382.97 909.05 L 384.44 909.01 L 385.92 909.02 L 387.39 908.97 L 388.86 909.02 L 390.33 908.99 L 391.81 909.31 L 393.28 909.90 L 394.75 909.31 L 396.22 909.12 L 397.69 909.23 L 399.17 909.64 L 400.64 909.57 L 402.11 909.72 L 403.58 909.92 L 405.06 909.78 L 406.53 909.71 L 408.00 909.80 L 409.47 909.80 L 410.94 909.68 L 412.42 909.27 L 413.89 909.74 L 415.36 909.54 L 416.83 909.60 L 418.31 909.19 L 419.78 909.42 L 421.25 908.29 L 422.72 908.69 L 424.19 906.04 L 425.67 902.72 L 427.14 903.53 L 428.61 899.91 L 430.08 908.82 L 431.56 909.42 L 433.03 904.03 L 434.50 901.53 L 435.97 903.23 L 437.44 899.44 L 438.92 898.92 L 440.39 901.02 L 441.86 906.90 L 443.33 909.62 L 444.81 909.37 L 446.28 909.45 L 447.75 909.25 L 449.22 909.48 L 450.69 909.66 L 452.17 909.47 L 453.64 909.71 L 455.11 909.32 L 456.58 909.85 L 458.06 909.64 L 459.53 909.77 L 461.00 909.61 L 462.47 909.57 L 463.94 909.95 L 465.42 908.06 L 466.89 903.95 L 468.36 902.99 L 469.83 906.22 L 471.31 905.12 L 472.78 890.98 L 474.25 879.15 L 475.72 872.29 L 477.19 868.82 L 478.67 871.30 L 480.14 866.98 L 481.61 860.92 L 483.08 857.73 L 484.56 858.04 L 486.03 881.34 L 487.50 899.81 L 488.97 881.82 L 490.44 889.21 L 491.92 882.92 L 493.39 886.96 L 494.86 878.14 L 496.33 867.00 L 497.81 860.07 L 499.28 874.52 L 500.75 893.70 L 502.22 899.34 L 503.69 897.40 L 505.17 896.19 L 506.64 891.60 L 508.11 862.54 L 509.58 840.41 L 511.06 830.80 L 512.53 815.34 L 514.00 815.34 L 515.47 833.79 L 516.94 860.19 L 518.42 878.74 L 519.89 889.13 L 521.36 905.42 L 522.83 898.82 L 524.31 889.91 L 525.78 876.83 L 527.25 861.66 L 528.72 877.73 L 530.19 890.02 L 531.67 892.48 L 533.14 893.20 L 534.61 887.79 L 536.08 886.95 L 537.56 884.84 L 539.03 888.15 L 540.50 881.44 L 541.97 882.59 L 543.44 882.71 L 544.92 892.52 L 546.39 893.89 L 547.86 901.97 L 549.33 891.23 L 550.81 890.17 L 552.28 891.04 L 553.75 896.17 L 555.22 893.42 L 556.69 894.90 L 558.17 903.97 L 559.64 900.96 L 561.11 904.04 L 562.58 905.77 L 564.06 899.10 L 565.53 897.42 L 567.00 900.68 L 568.47 901.74 L 569.94 902.09 L 571.42 898.45 L 572.89 896.20 L 574.36 902.48 L 575.83 902.66 L 577.31 904.32 L 578.78 904.68 L 580.25 904.49 L 581.72 906.61 L 583.19 903.53 L 584.67 895.74 L 586.14 889.82 L 587.61 894.85 L 589.08 901.48 L 590.56 900.92 L 592.03 905.70 L 593.50 904.26 L 594.97 903.85 L 596.44 895.67 L 597.92 893.02 L 599.39 905.67 L 600.86 906.52 L 602.33 908.31 L 603.81 899.34 L 605.28 902.46 L 606.75 898.48 L 608.22 907.01 L 609.69 905.95 L 611.17 900.95 L 612.64 905.58 L 614.11 898.61 L 615.58 900.31 L 617.06 904.44 L 618.53 886.77 L 620.00 898.05 L 621.47 904.86 L 622.94 900.18 L 624.42 895.19 L 625.89 892.75 L 627.36 897.33 L 628.83 902.49 L 630.31 903.12 L 631.78 901.11 L 633.25 902.82 L 634.72 904.55 L 636.19 904.49 L 637.67 906.29 L 639.14 901.13 L 640.61 906.27 L 642.08 906.28 L 643.56 903.84 L 645.03 898.46 L 646.50 894.70 L 647.97 889.66 L 649.44 873.13 L 650.92 861.64 L 652.39 849.65 L 653.86 852.75 L 655.33 854.48 L 656.81 838.47 L 658.28 850.08 L 659.75 854.37 L 661.22 855.65 L 662.69 864.60 L 664.17 897.65 L 665.64 896.49 L 667.11 863.92 L 668.58 834.25 L 670.06 815.72 L 671.53 813.11 L 673.00 824.70 L 674.47 824.70 L 675.94 862.61 L 677.42 867.66 L 678.89 904.74 L 680.36 883.86 L 681.83 863.37 L 683.31 852.32 L 684.78 856.83 L 686.25 876.98 L 687.72 880.25 L 689.19 893.03 L 690.67 899.34 L 692.14 902.52 L 693.61 900.51 L 695.08 903.39 L 696.56 905.15 L 698.03 905.35 L 699.50 900.65 L 700.97 903.40 L 702.44 903.10 L 703.92 904.36 L 705.39 905.71 L 706.86 903.16 L 708.33 906.37 L 709.81 902.56 L 711.28 908.54 L 712.75 907.47 L 714.22 908.57 L 715.69 905.61 L 717.17 906.24 L 718.64 904.42 L 720.11 905.41 L 721.58 908.12 L 723.06 904.26 L 724.53 902.98 L 726.00 907.04 L 727.47 906.80 L 728.94 901.04 L 730.42 903.26 L 731.89 905.77 L 733.36 907.20" stroke="#E53935" />
<text x="620.00" y="952" font-size="15" text-anchor="middle">minutos (relativo ao início do evento)</text>
<text class="small" x="90.00" y="936" text-anchor="middle">-4.00</text>
<text class="small" x="266.67" y="936" text-anchor="middle">-2.00</text>
<text class="small" x="443.33" y="936" text-anchor="middle">0.00</text>
<text class="small" x="620.00" y="936" text-anchor="middle">2.00</text>
<text class="small" x="796.67" y="936" text-anchor="middle">4.00</text>
<text class="small" x="973.33" y="936" text-anchor="middle">6.00</text>
<text class="small" x="1150.00" y="936" text-anchor="middle">8.00</text>
</svg>