<?xml version="1.0" encoding="UTF-8"?>
<svg xmlns="http://www.w3.org/2000/svg" width="1180" height="980" viewBox="0 0 1180 980">
<style>
text { font-family: -apple-system, BlinkMacSystemFont, 'Segoe UI', Roboto, Helvetica, Arial, sans-serif; fill: #111; }
.small { font-size: 12px; fill: #222; }
.title { font-size: 18px; font-weight: 700; }
.axis { stroke: #111; stroke-width: 1.4; }
.grid { stroke: #E6E6E6; stroke-width: 1; }
.event { fill: #FFEB3B; fill-opacity: 0.18; }
.eventline { stroke: #F9A825; stroke-width: 1.2; stroke-dasharray: 4 3; }
.series { fill: none; stroke-width: 1.8; }
</style>
<text class="title" x="90" y="34">ciclo 15 — espera_carregamento — 2025-12-13T02:53:33-03:00 → 2025-12-13T02:55:13-03:00 (span 100s, dur 101s)</text>
<text class="small" x="90" y="54">GPS: -11.699220,-47.157560  hotspot: -11.699,-47.158</text>
<text class="small" x="90" y="70">Janela: -3.00 → 4.67 min (relativo ao início do evento)</text>
<text x="90" y="79.00" font-size="14" font-weight="700">Velocidade (km/h)</text>
<rect class="event" x="443.33" y="85.00" width="147.22" height="192.75" />
<line class="eventline" x1="443.33" y1="85.00" x2="443.33" y2="277.75" />
<line class="eventline" x1="590.56" y1="85.00" x2="590.56" y2="277.75" />
<line class="grid" x1="90" y1="277.75" x2="1150" y2="277.75" />
<text class="small" x="80" y="281.75" text-anchor="end">0.00</text>
<line class="grid" x1="90" y1="239.20" x2="1150" y2="239.20" />
<text class="small" x="80" y="243.20" text-anchor="end">10.0</text>
<line class="grid" x1="90" y1="200.65" x2="1150" y2="200.65" />
<text class="small" x="80" y="204.65" text-anchor="end">20.0</text>
<line class="grid" x1="90" y1="162.10" x2="1150" y2="162.10" />
<text class="small" x="80" y="166.10" text-anchor="end">30.0</text>
<line class="grid" x1="90" y1="123.55" x2="1150" y2="123.55" />
<text class="small" x="80" y="127.55" text-anchor="end">40.0</text>
<line class="grid" x1="90" y1="85.00" x2="1150" y2="85.00" />
<text class="small" x="80" y="89.00" text-anchor="end">50.0</text>
<line class="grid" x1="90.00" y1="85.00" x2="90.00" y2="277.75" />
<line class="grid" x1="266.67" y1="85.00" x2="266.67" y2="277.75" />
<line class="grid" x1="443.33" y1="85.00" x2="443.33" y2="277.75" />
<line class="grid" x1="620.00" y1="85.00" x2="620.00" y2="277.75" />
<line class="grid" x1="796.67" y1="85.00" x2="796.67" y2="277.75" />
<line class="grid" x1="973.33" y1="85.00" x2="973.33" y2="277.75" />
<line class="grid" x1="1150.00" y1="85.00" x2="1150.00" y2="277.75" />
<line class="axis" x1="90" y1="85.00" x2="90" y2="277.75" />
<line class="axis" x1="90" y1="277.75" x2="1150" y2="277.75" />
<path class="series" d="M 178.33 202.25 L 179.81 194.90 L 181.28 184.91 L 182.75 177.41 L 184.22 171.58 L 185.69 164.92 L 187.17 158.95 L 188.64 155.48 L 190.11 154.10 L 191.58 152.29 L 193.06 155.48 L 194.53 156.73 L 196.00 159.37 L 197.47 161.59 L 198.94 159.79 L 200.42 160.20 L 201.89 156.46 L 203.36 156.32 L 204.83 153.96 L 206.31 152.71 L 207.78 150.21 L 209.25 148.13 L 210.72 147.85 L 212.19 148.27 L 213.67 148.82 L 215.14 148.41 L 216.61 151.74 L 218.08 153.82 L 219.56 152.71 L 221.03 152.71 L 222.50 151.46 L 223.97 154.37 L 225.44 153.68 L 226.92 156.46 L 228.39 154.10 L 229.86 153.96 L 231.33 154.37 L 232.81 154.10 L 234.28 154.51 L 235.75 153.26 L 237.22 150.35 L 238.69 151.60 L 240.17 155.35 L 241.64 154.93 L 243.11 155.21 L 244.58 158.40 L 246.06 157.01 L 247.53 158.95 L 249.00 159.37 L 250.47 159.79 L 251.94 159.65 L 253.42 160.20 L 254.89 159.93 L 256.36 160.62 L 257.83 161.31 L 259.31 159.79 L 260.78 159.51 L 262.25 159.23 L 263.72 161.87 L 265.19 163.81 L 266.67 169.09 L 268.14 166.17 L 269.61 170.33 L 271.08 171.03 L 272.56 171.72 L 274.03 176.02 L 275.50 178.52 L 276.97 179.08 L 278.44 178.80 L 279.92 172.83 L 281.39 168.25 L 282.86 164.64 L 284.33 163.81 L 285.81 161.31 L 287.28 157.57 L 288.75 154.79 L 290.22 153.96 L 291.69 151.32 L 293.17 149.66 L 294.64 155.90 L 296.11 156.60 L 297.58 162.29 L 299.06 162.15 L 300.53 163.12 L 302.00 170.06 L 303.47 174.64 L 304.94 181.30 L 306.42 193.37 L 307.89 214.61 L 309.36 229.32 L 310.83 228.76 L 312.31 228.07 L 313.78 218.49 L 315.25 205.86 L 316.72 196.56 L 318.19 203.23 L 319.67 208.22 L 321.14 211.00 L 322.61 210.16 L 324.08 203.50 L 325.56 199.48 L 327.03 209.61 L 328.50 224.87 L 329.97 239.17 L 331.44 240.14 L 332.92 246.11 L 334.39 252.91 L 335.86 259.99 L 337.33 251.66 L 338.81 243.47 L 340.28 246.66 L 341.75 245.69 L 343.22 239.59 L 344.69 238.34 L 346.17 229.45 L 347.64 223.49 L 349.11 220.99 L 350.58 221.82 L 352.06 222.65 L 353.53 223.35 L 355.00 221.96 L 356.47 220.57 L 357.94 228.76 L 359.42 221.82 L 360.89 219.46 L 362.36 218.63 L 363.83 217.66 L 365.31 219.88 L 366.78 220.16 L 368.25 218.35 L 369.72 216.41 L 371.19 215.44 L 372.67 215.72 L 374.14 212.80 L 375.61 207.39 L 377.08 199.48 L 378.56 197.54 L 380.03 190.18 L 381.50 185.60 L 382.97 186.29 L 384.44 189.35 L 385.92 189.62 L 387.39 193.93 L 388.86 196.84 L 390.33 198.23 L 391.81 202.95 L 393.28 203.92 L 394.75 208.64 L 396.22 211.00 L 397.69 209.61 L 399.17 215.99 L 400.64 220.02 L 402.11 230.01 L 403.58 236.25 L 405.06 242.64 L 406.53 241.39 L 408.00 242.22 L 409.47 240.97 L 410.94 238.75 L 412.42 237.37 L 413.89 238.20 L 415.36 238.34 L 416.83 236.12 L 418.31 236.53 L 419.78 238.75 L 421.25 240.97 L 422.72 239.86 L 424.19 239.59 L 425.67 242.78 L 427.14 247.91 L 428.61 249.99 L 430.08 248.19 L 431.56 246.94 L 433.03 252.35 L 434.50 255.13 L 435.97 264.15 L 437.44 268.17 L 438.92 270.67 L 440.39 268.87 L 441.86 271.50 L 443.33 277.75 L 444.81 277.75 L 446.28 277.75 L 447.75 277.75 L 449.22 277.75 L 450.69 277.75 L 452.17 277.75 L 453.64 277.75 L 455.11 277.75 L 456.58 277.75 L 458.06 277.75 L 459.53 277.75 L 461.00 277.75 L 462.47 277.75 L 463.94 277.75 L 465.42 277.75 L 466.89 277.75 L 468.36 277.75 L 469.83 277.75 L 471.31 277.75 L 472.78 277.75 L 474.25 277.75 L 475.72 277.75 L 477.19 277.75 L 478.67 277.75 L 480.14 277.75 L 481.61 277.75 L 483.08 277.75 L 484.56 277.75 L 486.03 277.75 L 487.50 277.75 L 488.97 277.75 L 490.44 277.75 L 491.92 277.75 L 493.39 277.75 L 494.86 277.75 L 496.33 277.75 L 497.81 277.75 L 499.28 277.75 L 500.75 277.75 L 502.22 277.75 L 503.69 277.75 L 505.17 277.75 L 506.64 277.75 L 508.11 277.75 L 509.58 277.75 L 511.06 277.75 L 512.53 277.75 L 514.00 277.75 L 515.47 277.75 L 516.94 277.75 L 518.42 277.75 L 519.89 277.75 L 521.36 277.75 L 522.83 277.75 L 524.31 277.75 L 525.78 277.75 L 527.25 277.75 L 528.72 277.75 L 530.19 277.75 L 531.67 277.75 L 533.14 277.75 L 534.61 277.75 L 536.08 277.75 L 537.56 277.75 L 539.03 277.75 L 540.50 277.75 L 541.97 277.75 L 543.44 277.75 L 544.92 277.75 L 546.39 277.75 L 547.86 277.75 L 549.33 277.75 L 550.81 277.75 L 552.28 277.75 L 553.75 277.75 L 555.22 277.75 L 556.69 277.75 L 558.17 277.75 L 559.64 277.75 L 561.11 277.75 L 562.58 277.75 L 564.06 277.75 L 565.53 277.75 L 567.00 277.75 L 568.47 277.75 L 569.94 277.75 L 571.42 277.75 L 572.89 277.75 L 574.36 277.75 L 575.83 277.75 L 577.31 277.75 L 578.78 277.75 L 580.25 277.75 L 581.72 277.75 L 583.19 277.75 L 584.67 277.75 L 586.14 277.75 L 587.61 277.75 L 589.08 277.75 L 590.56 277.75 L 592.03 269.28 L 593.50 269.98 L 594.97 265.81 L 596.44 266.93 L 597.92 264.15 L 599.39 264.70 L 600.86 264.57 L 602.33 260.26 L 603.81 261.65 L 605.28 257.77 L 606.75 257.07 L 608.22 259.57 L 609.69 256.66 L 611.17 257.77 L 612.64 254.85 L 614.11 258.46 L 615.58 258.04 L 617.06 265.68 L 618.53 262.48 L 620.00 258.46 L 621.47 258.88 L 622.94 277.75 L 624.42 277.75 L 625.89 277.75 L 627.36 277.75 L 628.83 266.93 L 630.31 268.59 L 631.78 265.40 L 633.25 264.70 L 634.72 263.73 L 636.19 266.09 L 637.67 264.01 L 639.14 262.35 L 640.61 277.75 L 642.08 268.59 L 643.56 268.87 L 645.03 269.42 L 646.50 267.48 L 647.97 266.79 L 649.44 269.42 L 650.92 269.56 L 652.39 267.76 L 653.86 269.84 L 655.33 272.48 L 656.81 277.75 L 658.28 277.75 L 659.75 277.75 L 661.22 277.75 L 662.69 277.75 L 664.17 277.75 L 665.64 277.75 L 667.11 277.75 L 668.58 277.75 L 670.06 277.75 L 671.53 277.75 L 673.00 277.75 L 674.47 277.75 L 675.94 277.75 L 677.42 277.75 L 678.89 277.75 L 680.36 277.75 L 681.83 277.75 L 683.31 277.75 L 684.78 277.75 L 686.25 277.75 L 687.72 277.75 L 689.19 277.75 L 690.67 277.75 L 692.14 277.75 L 693.61 277.75 L 695.08 277.75 L 696.56 277.75 L 698.03 277.75 L 699.50 277.75 L 700.97 277.75 L 702.44 277.75 L 703.92 277.75 L 705.39 277.75 L 706.86 277.75 L 708.33 277.75 L 709.81 277.75 L 711.28 277.75 L 712.75 277.75 L 714.22 277.75 L 715.69 277.75 L 717.17 277.75 L 718.64 277.75 L 720.11 277.75 L 721.58 277.75 L 723.06 277.75 L 724.53 277.75 L 726.00 277.75 L 727.47 277.75 L 728.94 277.75 L 730.42 277.75 L 731.89 277.75 L 733.36 277.75 L 734.83 277.75 L 736.31 277.75 L 737.78 277.75 L 739.25 277.75 L 740.72 277.75 L 742.19 277.75 L 743.67 277.75 L 745.14 277.75 L 746.61 277.75 L 748.08 277.75 L 749.56 277.75 L 751.03 277.75 L 752.50 277.75 L 753.97 277.75 L 755.44 277.75 L 756.92 277.75 L 758.39 277.75 L 759.86 277.75 L 761.33 277.75 L 762.81 277.75 L 764.28 277.75 L 765.75 277.75 L 767.22 277.75 L 768.69 277.75 L 770.17 277.75 L 771.64 277.75 L 773.11 277.75 L 774.58 277.75 L 776.06 277.75 L 777.53 277.75 L 779.00 277.75 L 780.47 277.75 L 781.94 277.75 L 783.42 277.75 L 784.89 277.75 L 786.36 277.75 L 787.83 277.75 L 789.31 277.75 L 790.78 277.75 L 792.25 277.75 L 793.72 277.75 L 795.19 277.75 L 796.67 277.75 L 798.14 277.75 L 799.61 277.75 L 801.08 277.75 L 802.56 277.75 L 804.03 277.75 L 805.50 277.75 L 806.97 277.75 L 808.44 277.75 L 809.92 277.75 L 811.39 277.75 L 812.86 277.75 L 814.33 277.75 L 815.81 277.75 L 817.28 277.75 L 818.75 277.75 L 820.22 277.75 L 821.69 277.75 L 823.17 277.75 L 824.64 277.75 L 826.11 277.75 L 827.58 277.75 L 829.06 277.75 L 830.53 277.75 L 832.00 277.75 L 833.47 277.75 L 834.94 277.75 L 836.42 277.75 L 837.89 277.75 L 839.36 277.75 L 840.83 277.75 L 842.31 277.75 L 843.78 277.75 L 845.25 277.75 L 846.72 277.75 L 848.19 277.75 L 849.67 277.75 L 851.14 277.75 L 852.61 277.75 L 854.08 277.75 L 855.56 277.75" stroke="#1976D2" />
<text x="90" y="289.75" font-size="14" font-weight="700">Inclinação (graus)</text>
<rect class="event" x="443.33" y="295.75" width="147.22" height="192.75" />
<line class="eventline" x1="443.33" y1="295.75" x2="443.33" y2="488.50" />
<line class="eventline" x1="590.56" y1="295.75" x2="590.56" y2="488.50" />
<line class="grid" x1="90" y1="488.50" x2="1150" y2="488.50" />
<text class="small" x="80" y="492.50" text-anchor="end">-20.0</text>
<line class="grid" x1="90" y1="449.95" x2="1150" y2="449.95" />
<text class="small" x="80" y="453.95" text-anchor="end">-10.0</text>
<line class="grid" x1="90" y1="411.40" x2="1150" y2="411.40" />
<text class="small" x="80" y="415.40" text-anchor="end">0.00</text>
<line class="grid" x1="90" y1="372.85" x2="1150" y2="372.85" />
<text class="small" x="80" y="376.85" text-anchor="end">10.0</text>
<line class="grid" x1="90" y1="334.30" x2="1150" y2="334.30" />
<text class="small" x="80" y="338.30" text-anchor="end">20.0</text>
<line class="grid" x1="90" y1="295.75" x2="1150" y2="295.75" />
<text class="small" x="80" y="299.75" text-anchor="end">30.0</text>
<line class="grid" x1="90.00" y1="295.75" x2="90.00" y2="488.50" />
<line class="grid" x1="266.67" y1="295.75" x2="266.67" y2="488.50" />
<line class="grid" x1="443.33" y1="295.75" x2="443.33" y2="488.50" />
<line class="grid" x1="620.00" y1="295.75" x2="620.00" y2="488.50" />
<line class="grid" x1="796.67" y1="295.75" x2="796.67" y2="488.50" />
<line class="grid" x1="973.33" y1="295.75" x2="973.33" y2="488.50" />
<line class="grid" x1="1150.00" y1="295.75" x2="1150.00" y2="488.50" />
<line class="axis" x1="90" y1="295.75" x2="90" y2="488.50" />
<line class="axis" x1="90" y1="488.50" x2="1150" y2="488.50" />
<path class="series" d="M 178.33 383.98 L 179.81 386.94 L 181.28 387.65 L 182.75 383.33 L 184.22 383.41 L 185.69 382.79 L 187.17 375.92 L 188.64 372.24 L 190.11 366.26 L 191.58 361.94 L 193.06 367.00 L 194.53 363.07 L 196.00 361.75 L 197.47 361.88 L 198.94 359.81 L 200.42 367.64 L 201.89 360.14 L 203.36 362.37 L 204.83 359.87 L 206.31 356.98 L 207.78 358.23 L 209.25 359.78 L 210.72 358.29 L 212.19 360.16 L 213.67 359.42 L 215.14 359.24 L 216.61 361.44 L 218.08 363.20 L 219.56 363.48 L 221.03 364.03 L 222.50 362.21 L 223.97 365.99 L 225.44 362.72 L 226.92 366.89 L 228.39 365.11 L 229.86 363.98 L 231.33 367.04 L 232.81 367.16 L 234.28 363.98 L 235.75 366.65 L 237.22 362.83 L 238.69 362.98 L 240.17 365.19 L 241.64 365.19 L 243.11 361.24 L 244.58 364.15 L 246.06 368.59 L 247.53 366.48 L 249.00 368.45 L 250.47 367.39 L 251.94 371.66 L 253.42 369.29 L 254.89 372.03 L 256.36 371.06 L 257.83 370.79 L 259.31 370.23 L 260.78 367.44 L 262.25 366.60 L 263.72 365.92 L 265.19 365.53 L 266.67 364.42 L 268.14 361.81 L 269.61 357.96 L 271.08 358.13 L 272.56 356.84 L 274.03 358.41 L 275.50 360.57 L 276.97 354.54 L 278.44 359.26 L 279.92 354.66 L 281.39 351.36 L 282.86 341.67 L 284.33 346.58 L 285.81 344.09 L 287.28 342.36 L 288.75 340.59 L 290.22 341.05 L 291.69 341.92 L 293.17 342.94 L 294.64 343.40 L 296.11 344.38 L 297.58 343.89 L 299.06 342.20 L 300.53 343.93 L 302.00 340.98 L 303.47 337.36 L 304.94 335.09 L 306.42 329.18 L 307.89 334.95 L 309.36 346.46 L 310.83 359.91 L 312.31 373.09 L 313.78 383.81 L 315.25 366.56 L 316.72 368.56 L 318.19 358.22 L 319.67 361.02 L 321.14 358.26 L 322.61 352.78 L 324.08 349.36 L 325.56 322.16 L 327.03 316.42 L 328.50 330.11 L 329.97 344.73 L 331.44 355.75 L 332.92 345.56 L 334.39 356.34 L 335.86 373.38 L 337.33 375.91 L 338.81 375.32 L 340.28 364.17 L 341.75 367.53 L 343.22 378.06 L 344.69 381.46 L 346.17 381.49 L 347.64 380.46 L 349.11 369.79 L 350.58 374.15 L 352.06 370.37 L 353.53 373.67 L 355.00 374.88 L 356.47 361.09 L 357.94 368.56 L 359.42 374.88 L 360.89 362.44 L 362.36 366.82 L 363.83 353.45 L 365.31 363.90 L 366.78 377.79 L 368.25 379.32 L 369.72 377.49 L 371.19 372.86 L 372.67 370.03 L 374.14 370.63 L 375.61 388.84 L 377.08 380.89 L 378.56 371.90 L 380.03 378.20 L 381.50 359.52 L 382.97 355.46 L 384.44 358.57 L 385.92 367.21 L 387.39 357.29 L 388.86 358.77 L 390.33 360.91 L 391.81 355.37 L 393.28 359.91 L 394.75 353.31 L 396.22 354.64 L 397.69 356.24 L 399.17 351.69 L 400.64 349.90 L 402.11 350.18 L 403.58 360.02 L 405.06 362.06 L 406.53 367.75 L 408.00 370.17 L 409.47 377.59 L 410.94 380.66 L 412.42 375.73 L 413.89 382.02 L 415.36 380.64 L 416.83 381.33 L 418.31 375.55 L 419.78 372.13 L 421.25 373.86 L 422.72 375.23 L 424.19 367.36 L 425.67 356.62 L 427.14 365.70 L 428.61 364.46 L 430.08 367.49 L 431.56 360.12 L 433.03 363.55 L 434.50 353.09 L 435.97 360.71 L 437.44 361.85 L 438.92 370.91 L 440.39 365.56 L 441.86 361.45 L 443.33 365.37 L 444.81 364.28 L 446.28 368.28 L 447.75 367.99 L 449.22 368.08 L 450.69 368.07 L 452.17 368.18 L 453.64 368.15 L 455.11 368.14 L 456.58 368.12 L 458.06 368.11 L 459.53 368.13 L 461.00 368.06 L 462.47 368.12 L 463.94 368.10 L 465.42 368.07 L 466.89 368.04 L 468.36 368.09 L 469.83 368.07 L 471.31 368.09 L 472.78 368.06 L 474.25 368.09 L 475.72 368.08 L 477.19 368.13 L 478.67 368.11 L 480.14 368.11 L 481.61 368.10 L 483.08 368.13 L 484.56 368.09 L 486.03 368.11 L 487.50 368.09 L 488.97 368.09 L 490.44 368.10 L 491.92 368.08 L 493.39 368.12 L 494.86 368.05 L 496.33 368.06 L 497.81 368.08 L 499.28 368.06 L 500.75 368.09 L 502.22 368.04 L 503.69 368.08 L 505.17 368.07 L 506.64 368.04 L 508.11 368.00 L 509.58 368.04 L 511.06 368.06 L 512.53 368.05 L 514.00 368.05 L 515.47 367.97 L 516.94 368.02 L 518.42 368.05 L 519.89 368.02 L 521.36 368.00 L 522.83 368.04 L 524.31 368.04 L 525.78 368.05 L 527.25 368.05 L 528.72 368.05 L 530.19 368.04 L 531.67 368.06 L 533.14 368.08 L 534.61 368.10 L 536.08 368.06 L 537.56 368.13 L 539.03 368.09 L 540.50 368.07 L 541.97 368.08 L 543.44 368.06 L 544.92 368.07 L 546.39 368.05 L 547.86 368.05 L 549.33 368.08 L 550.81 368.00 L 552.28 368.01 L 553.75 368.04 L 555.22 368.05 L 556.69 368.01 L 558.17 368.01 L 559.64 368.01 L 561.11 368.03 L 562.58 368.05 L 564.06 368.01 L 565.53 368.04 L 567.00 368.01 L 568.47 368.05 L 569.94 368.09 L 571.42 368.01 L 572.89 368.08 L 574.36 368.10 L 575.83 368.10 L 577.31 368.07 L 578.78 368.07 L 580.25 368.08 L 581.72 368.07 L 583.19 368.07 L 584.67 368.10 L 586.14 368.05 L 587.61 369.35 L 589.08 379.15 L 590.56 373.63 L 592.03 371.12 L 593.50 374.76 L 594.97 383.54 L 596.44 385.84 L 597.92 388.88 L 599.39 387.51 L 600.86 386.83 L 602.33 391.65 L 603.81 373.28 L 605.28 378.90 L 606.75 371.90 L 608.22 371.56 L 609.69 364.25 L 611.17 377.81 L 612.64 361.27 L 614.11 350.82 L 615.58 353.28 L 617.06 353.11 L 618.53 359.39 L 620.00 354.82 L 621.47 343.89 L 622.94 340.39 L 624.42 354.39 L 625.89 350.66 L 627.36 349.72 L 628.83 346.62 L 630.31 359.83 L 631.78 356.71 L 633.25 359.94 L 634.72 354.53 L 636.19 356.60 L 637.67 356.37 L 639.14 360.82 L 640.61 366.31 L 642.08 359.58 L 643.56 365.61 L 645.03 360.30 L 646.50 371.44 L 647.97 368.00 L 649.44 378.59 L 650.92 370.74 L 652.39 375.35 L 653.86 368.93 L 655.33 373.81 L 656.81 378.11 L 658.28 374.00 L 659.75 369.19 L 661.22 364.11 L 662.69 373.03 L 664.17 372.17 L 665.64 368.43 L 667.11 368.88 L 668.58 369.20 L 670.06 369.24 L 671.53 369.07 L 673.00 369.13 L 674.47 369.15 L 675.94 369.07 L 677.42 369.13 L 678.89 369.12 L 680.36 369.08 L 681.83 369.07 L 683.31 369.05 L 684.78 369.08 L 686.25 369.09 L 687.72 369.07 L 689.19 369.08 L 690.67 369.02 L 692.14 369.07 L 693.61 369.05 L 695.08 369.05 L 696.56 369.07 L 698.03 369.00 L 699.50 369.14 L 700.97 369.03 L 702.44 369.55 L 703.92 369.04 L 705.39 368.67 L 706.86 368.69 L 708.33 368.80 L 709.81 368.66 L 711.28 368.73 L 712.75 368.73 L 714.22 368.70 L 715.69 368.65 L 717.17 368.71 L 718.64 368.66 L 720.11 368.72 L 721.58 368.65 L 723.06 368.66 L 724.53 368.63 L 726.00 368.68 L 727.47 368.62 L 728.94 368.64 L 730.42 368.57 L 731.89 368.60 L 733.36 368.63 L 734.83 368.61 L 736.31 368.60 L 737.78 368.63 L 739.25 368.59 L 740.72 368.62 L 742.19 368.60 L 743.67 368.63 L 745.14 368.59 L 746.61 368.63 L 748.08 368.68 L 749.56 368.64 L 751.03 368.64 L 752.50 369.39 L 753.97 367.72 L 755.44 369.36 L 756.92 366.78 L 758.39 367.49 L 759.86 368.13 L 761.33 367.76 L 762.81 367.88 L 764.28 367.91 L 765.75 367.79 L 767.22 367.96 L 768.69 367.80 L 770.17 367.88 L 771.64 367.83 L 773.11 367.82 L 774.58 367.86 L 776.06 367.86 L 777.53 367.78 L 779.00 367.87 L 780.47 367.87 L 781.94 367.87 L 783.42 367.84 L 784.89 367.79 L 786.36 367.86 L 787.83 367.79 L 789.31 367.85 L 790.78 367.79 L 792.25 367.81 L 793.72 367.81 L 795.19 367.87 L 796.67 368.76 L 798.14 367.51 L 799.61 369.59 L 801.08 368.36 L 802.56 368.59 L 804.03 369.02 L 805.50 368.65 L 806.97 368.77 L 808.44 368.80 L 809.92 368.69 L 811.39 368.83 L 812.86 368.76 L 814.33 368.76 L 815.81 368.79 L 817.28 368.78 L 818.75 368.76 L 820.22 368.76 L 821.69 368.79 L 823.17 368.78 L 824.64 368.76 L 826.11 368.75 L 827.58 368.78 L 829.06 368.73 L 830.53 368.80 L 832.00 368.76 L 833.47 368.76 L 834.94 368.75 L 836.42 368.69 L 837.89 368.80 L 839.36 368.74 L 840.83 369.43 L 842.31 366.38 L 843.78 371.04 L 845.25 368.08 L 846.72 368.24 L 848.19 368.17 L 849.67 368.32 L 851.14 368.61 L 852.61 368.54 L 854.08 368.41 L 855.56 368.51" stroke="#2E7D32" />
<path class="series" d="M 178.33 415.82 L 179.81 419.83 L 181.28 425.43 L 182.75 434.16 L 184.22 422.52 L 185.69 425.97 L 187.17 417.71 L 188.64 414.17 L 190.11 410.22 L 191.58 413.93 L 193.06 404.11 L 194.53 405.24 L 196.00 407.22 L 197.47 404.43 L 198.94 404.38 L 200.42 403.32 L 201.89 404.43 L 203.36 405.45 L 204.83 403.20 L 206.31 403.92 L 207.78 401.85 L 209.25 405.29 L 210.72 402.95 L 212.19 401.38 L 213.67 407.49 L 215.14 405.77 L 216.61 408.55 L 218.08 409.38 L 219.56 412.30 L 221.03 408.87 L 222.50 406.50 L 223.97 404.42 L 225.44 405.33 L 226.92 407.14 L 228.39 405.67 L 229.86 408.04 L 231.33 409.75 L 232.81 406.49 L 234.28 403.92 L 235.75 404.97 L 237.22 396.62 L 238.69 397.80 L 240.17 395.35 L 241.64 395.35 L 243.11 391.36 L 244.58 390.68 L 246.06 394.34 L 247.53 395.33 L 249.00 394.49 L 250.47 397.85 L 251.94 391.55 L 253.42 397.40 L 254.89 400.69 L 256.36 399.60 L 257.83 396.29 L 259.31 391.67 L 260.78 392.05 L 262.25 390.33 L 263.72 392.83 L 265.19 387.32 L 266.67 392.28 L 268.14 391.71 L 269.61 381.36 L 271.08 384.65 L 272.56 387.39 L 274.03 381.96 L 275.50 387.49 L 276.97 393.11 L 278.44 392.21 L 279.92 404.56 L 281.39 398.14 L 282.86 400.54 L 284.33 398.17 L 285.81 396.89 L 287.28 390.79 L 288.75 391.78 L 290.22 401.69 L 291.69 399.94 L 293.17 395.64 L 294.64 400.48 L 296.11 405.49 L 297.58 408.17 L 299.06 398.38 L 300.53 400.77 L 302.00 390.81 L 303.47 393.32 L 304.94 391.96 L 306.42 395.04 L 307.89 389.88 L 309.36 393.17 L 310.83 385.45 L 312.31 390.24 L 313.78 387.62 L 315.25 390.27 L 316.72 372.74 L 318.19 379.65 L 319.67 397.42 L 321.14 408.05 L 322.61 413.89 L 324.08 415.59 L 325.56 406.21 L 327.03 409.37 L 328.50 413.75 L 329.97 408.98 L 331.44 409.81 L 332.92 410.04 L 334.39 405.52 L 335.86 408.21 L 337.33 409.24 L 338.81 407.49 L 340.28 409.48 L 341.75 401.93 L 343.22 399.19 L 344.69 395.42 L 346.17 402.65 L 347.64 399.46 L 349.11 394.59 L 350.58 399.37 L 352.06 394.35 L 353.53 394.34 L 355.00 406.59 L 356.47 407.54 L 357.94 407.79 L 359.42 414.54 L 360.89 411.71 L 362.36 412.40 L 363.83 398.40 L 365.31 410.04 L 366.78 412.47 L 368.25 408.89 L 369.72 416.98 L 371.19 421.59 L 372.67 420.55 L 374.14 416.15 L 375.61 399.23 L 377.08 410.02 L 378.56 399.29 L 380.03 407.18 L 381.50 404.12 L 382.97 401.21 L 384.44 392.20 L 385.92 395.39 L 387.39 396.26 L 388.86 395.58 L 390.33 402.90 L 391.81 418.41 L 393.28 409.71 L 394.75 420.14 L 396.22 398.28 L 397.69 390.80 L 399.17 396.35 L 400.64 414.19 L 402.11 414.00 L 403.58 426.81 L 405.06 418.02 L 406.53 416.86 L 408.00 413.53 L 409.47 413.86 L 410.94 420.16 L 412.42 418.74 L 413.89 410.08 L 415.36 414.11 L 416.83 414.88 L 418.31 406.16 L 419.78 419.06 L 421.25 404.07 L 422.72 409.24 L 424.19 405.52 L 425.67 411.15 L 427.14 408.35 L 428.61 406.10 L 430.08 403.82 L 431.56 415.94 L 433.03 415.39 L 434.50 414.01 L 435.97 408.78 L 437.44 406.40 L 438.92 407.18 L 440.39 409.27 L 441.86 410.12 L 443.33 412.27 L 444.81 409.46 L 446.28 410.07 L 447.75 410.29 L 449.22 410.44 L 450.69 410.19 L 452.17 410.39 L 453.64 410.16 L 455.11 410.26 L 456.58 410.25 L 458.06 410.20 L 459.53 410.27 L 461.00 410.22 L 462.47 410.23 L 463.94 410.20 L 465.42 410.21 L 466.89 410.25 L 468.36 410.22 L 469.83 410.20 L 471.31 410.17 L 472.78 410.16 L 474.25 410.17 L 475.72 410.20 L 477.19 410.17 L 478.67 410.18 L 480.14 410.19 L 481.61 410.16 L 483.08 410.20 L 484.56 410.19 L 486.03 410.16 L 487.50 410.18 L 488.97 410.16 L 490.44 410.22 L 491.92 410.18 L 493.39 410.14 L 494.86 410.13 L 496.33 410.19 L 497.81 410.13 L 499.28 410.18 L 500.75 410.15 L 502.22 410.15 L 503.69 410.15 L 505.17 410.15 L 506.64 410.09 L 508.11 410.09 L 509.58 410.08 L 511.06 410.12 L 512.53 410.10 L 514.00 410.08 L 515.47 410.12 L 516.94 410.13 L 518.42 410.05 L 519.89 410.07 L 521.36 410.10 L 522.83 410.09 L 524.31 410.13 L 525.78 410.07 L 527.25 410.15 L 528.72 410.15 L 530.19 410.11 L 531.67 410.10 L 533.14 410.09 L 534.61 410.11 L 536.08 410.12 L 537.56 410.10 L 539.03 410.08 L 540.50 410.13 L 541.97 410.14 L 543.44 410.09 L 544.92 410.10 L 546.39 410.13 L 547.86 410.09 L 549.33 410.11 L 550.81 410.04 L 552.28 410.07 L 553.75 410.10 L 555.22 410.09 L 556.69 410.07 L 558.17 410.07 L 559.64 410.08 L 561.11 410.11 L 562.58 410.06 L 564.06 410.06 L 565.53 410.11 L 567.00 410.08 L 568.47 410.04 L 569.94 410.08 L 571.42 410.06 L 572.89 410.08 L 574.36 410.07 L 575.83 410.10 L 577.31 410.16 L 578.78 410.07 L 580.25 410.08 L 581.72 410.11 L 583.19 410.14 L 584.67 410.10 L 586.14 410.08 L 587.61 409.74 L 589.08 410.50 L 590.56 410.61 L 592.03 411.35 L 593.50 408.84 L 594.97 406.43 L 596.44 410.70 L 597.92 414.41 L 599.39 411.81 L 600.86 417.85 L 602.33 407.92 L 603.81 413.86 L 605.28 408.04 L 606.75 407.80 L 608.22 407.23 L 609.69 413.58 L 611.17 416.72 L 612.64 416.89 L 614.11 408.08 L 615.58 404.14 L 617.06 415.71 L 618.53 411.11 L 620.00 428.90 L 621.47 401.54 L 622.94 395.16 L 624.42 407.19 L 625.89 408.87 L 627.36 407.29 L 628.83 404.95 L 630.31 416.49 L 631.78 413.23 L 633.25 429.13 L 634.72 423.88 L 636.19 423.02 L 637.67 417.76 L 639.14 421.99 L 640.61 432.29 L 642.08 438.03 L 643.56 425.76 L 645.03 424.84 L 646.50 429.88 L 647.97 421.90 L 649.44 443.94 L 650.92 423.68 L 652.39 426.05 L 653.86 429.92 L 655.33 428.10 L 656.81 420.68 L 658.28 426.59 L 659.75 425.44 L 661.22 422.48 L 662.69 425.32 L 664.17 426.59 L 665.64 425.71 L 667.11 424.80 L 668.58 425.08 L 670.06 425.88 L 671.53 425.07 L 673.00 425.25 L 674.47 425.53 L 675.94 425.17 L 677.42 425.34 L 678.89 425.32 L 680.36 425.23 L 681.83 425.38 L 683.31 425.35 L 684.78 425.29 L 686.25 425.31 L 687.72 425.30 L 689.19 425.33 L 690.67 425.29 L 692.14 425.28 L 693.61 425.29 L 695.08 425.28 L 696.56 425.32 L 698.03 425.29 L 699.50 425.41 L 700.97 425.52 L 702.44 425.01 L 703.92 424.64 L 705.39 425.74 L 706.86 424.64 L 708.33 424.50 L 709.81 425.02 L 711.28 425.39 L 712.75 425.27 L 714.22 424.94 L 715.69 424.84 L 717.17 424.97 L 718.64 425.16 L 720.11 425.12 L 721.58 425.02 L 723.06 425.03 L 724.53 425.06 L 726.00 425.09 L 727.47 425.07 L 728.94 425.04 L 730.42 425.04 L 731.89 425.06 L 733.36 425.04 L 734.83 425.07 L 736.31 425.02 L 737.78 425.05 L 739.25 425.01 L 740.72 425.08 L 742.19 425.05 L 743.67 425.01 L 745.14 425.08 L 746.61 425.10 L 748.08 424.99 L 749.56 425.02 L 751.03 425.08 L 752.50 424.89 L 753.97 424.77 L 755.44 426.53 L 756.92 425.17 L 758.39 424.99 L 759.86 425.17 L 761.33 425.14 L 762.81 425.26 L 764.28 425.33 L 765.75 425.37 L 767.22 425.34 L 768.69 425.28 L 770.17 425.40 L 771.64 425.34 L 773.11 425.36 L 774.58 425.28 L 776.06 425.39 L 777.53 425.37 L 779.00 425.38 L 780.47 425.33 L 781.94 425.34 L 783.42 425.43 L 784.89 425.38 L 786.36 425.38 L 787.83 425.32 L 789.31 425.38 L 790.78 425.35 L 792.25 425.29 L 793.72 425.32 L 795.19 425.38 L 796.67 427.17 L 798.14 423.43 L 799.61 426.33 L 801.08 425.05 L 802.56 425.59 L 804.03 425.64 L 805.50 425.41 L 806.97 425.55 L 808.44 425.61 L 809.92 425.54 L 811.39 425.43 L 812.86 425.57 L 814.33 425.55 L 815.81 425.54 L 817.28 425.46 L 818.75 425.48 L 820.22 425.48 L 821.69 425.53 L 823.17 425.49 L 824.64 425.49 L 826.11 425.46 L 827.58 425.55 L 829.06 425.53 L 830.53 425.47 L 832.00 425.50 L 833.47 425.52 L 834.94 425.50 L 836.42 425.46 L 837.89 425.54 L 839.36 425.50 L 840.83 425.60 L 842.31 425.31 L 843.78 425.70 L 845.25 425.23 L 846.72 425.71 L 848.19 425.26 L 849.67 425.50 L 851.14 425.38 L 852.61 425.40 L 854.08 425.49 L 855.56 425.35" stroke="#6A1B9A" />
<line x1="900.00" y1="307.75" x2="918.00" y2="307.75" stroke="#2E7D32" stroke-width="3" />
<text class="small" x="924.00" y="311.75">pitch</text>
<line x1="900.00" y1="323.75" x2="918.00" y2="323.75" stroke="#6A1B9A" stroke-width="3" />
<text class="small" x="924.00" y="327.75">roll</text>
<text x="90" y="500.50" font-size="14" font-weight="700">Aceleração (magnitude) (u.a.)</text>
<rect class="event" x="443.33" y="506.50" width="147.22" height="192.75" />
<line class="eventline" x1="443.33" y1="506.50" x2="443.33" y2="699.25" />
<line class="eventline" x1="590.56" y1="506.50" x2="590.56" y2="699.25" />
<line class="grid" x1="90" y1="699.25" x2="1150" y2="699.25" />
<text class="small" x="80" y="703.25" text-anchor="end">0.00</text>
<line class="grid" x1="90" y1="660.70" x2="1150" y2="660.70" />
<text class="small" x="80" y="664.70" text-anchor="end">0.50</text>
<line class="grid" x1="90" y1="622.15" x2="1150" y2="622.15" />
<text class="small" x="80" y="626.15" text-anchor="end">1.00</text>
<line class="grid" x1="90" y1="583.60" x2="1150" y2="583.60" />
<text class="small" x="80" y="587.60" text-anchor="end">1.50</text>
<line class="grid" x1="90" y1="545.05" x2="1150" y2="545.05" />
<text class="small" x="80" y="549.05" text-anchor="end">2.00</text>
<line class="grid" x1="90" y1="506.50" x2="1150" y2="506.50" />
<text class="small" x="80" y="510.50" text-anchor="end">2.50</text>
<line class="grid" x1="90.00" y1="506.50" x2="90.00" y2="699.25" />
<line class="grid" x1="266.67" y1="506.50" x2="266.67" y2="699.25" />
<line class="grid" x1="443.33" y1="506.50" x2="443.33" y2="699.25" />
<line class="grid" x1="620.00" y1="506.50" x2="620.00" y2="699.25" />
<line class="grid" x1="796.67" y1="506.50" x2="796.67" y2="699.25" />
<line class="grid" x1="973.33" y1="506.50" x2="973.33" y2="699.25" />
<line class="grid" x1="1150.00" y1="506.50" x2="1150.00" y2="699.25" />
<line class="axis" x1="90" y1="506.50" x2="90" y2="699.25" />
<line class="axis" x1="90" y1="699.25" x2="1150" y2="699.25" />
<path class="series" d="M 178.33 623.13 L 179.81 628.38 L 181.28 631.95 L 182.75 634.06 L 184.22 663.04 L 185.69 688.33 L 187.17 678.28 L 188.64 686.54 L 190.11 668.22 L 191.58 670.33 L 193.06 662.89 L 194.53 675.43 L 196.00 674.26 L 197.47 689.78 L 198.94 695.71 L 200.42 686.33 L 201.89 678.57 L 203.36 687.61 L 204.83 685.19 L 206.31 679.30 L 207.78 684.55 L 209.25 684.30 L 210.72 692.97 L 212.19 687.52 L 213.67 690.23 L 215.14 690.61 L 216.61 694.64 L 218.08 692.86 L 219.56 688.22 L 221.03 693.80 L 222.50 690.51 L 223.97 690.98 L 225.44 692.00 L 226.92 686.56 L 228.39 688.56 L 229.86 693.62 L 231.33 691.94 L 232.81 697.02 L 234.28 679.47 L 235.75 688.67 L 237.22 680.48 L 238.69 676.94 L 240.17 679.44 L 241.64 685.34 L 243.11 667.42 L 244.58 673.08 L 246.06 689.89 L 247.53 685.18 L 249.00 691.28 L 250.47 686.97 L 251.94 685.43 L 253.42 681.30 L 254.89 674.81 L 256.36 683.07 L 257.83 687.31 L 259.31 692.00 L 260.78 684.43 L 262.25 683.87 L 263.72 682.72 L 265.19 691.20 L 266.67 691.60 L 268.14 678.24 L 269.61 670.68 L 271.08 672.99 L 272.56 673.10 L 274.03 679.82 L 275.50 660.16 L 276.97 674.93 L 278.44 650.28 L 279.92 666.93 L 281.39 689.56 L 282.86 681.33 L 284.33 695.03 L 285.81 689.99 L 287.28 676.18 L 288.75 688.87 L 290.22 670.41 L 291.69 677.41 L 293.17 669.38 L 294.64 681.47 L 296.11 682.88 L 297.58 684.19 L 299.06 686.12 L 300.53 678.59 L 302.00 660.58 L 303.47 628.17 L 304.94 652.80 L 306.42 628.89 L 307.89 667.12 L 309.36 670.64 L 310.83 629.85 L 312.31 625.40 L 313.78 641.38 L 315.25 650.37 L 316.72 640.70 L 318.19 643.28 L 319.67 669.36 L 321.14 680.02 L 322.61 642.38 L 324.08 665.16 L 325.56 630.18 L 327.03 610.81 L 328.50 645.50 L 329.97 678.46 L 331.44 694.20 L 332.92 687.74 L 334.39 688.03 L 335.86 632.48 L 337.33 654.38 L 338.81 663.09 L 340.28 668.65 L 341.75 668.65 L 343.22 673.58 L 344.69 685.37 L 346.17 661.44 L 347.64 675.54 L 349.11 649.51 L 350.58 683.74 L 352.06 676.43 L 353.53 682.50 L 355.00 687.05 L 356.47 674.43 L 357.94 679.09 L 359.42 658.71 L 360.89 662.75 L 362.36 671.11 L 363.83 660.38 L 365.31 666.44 L 366.78 680.00 L 368.25 686.24 L 369.72 677.84 L 371.19 676.34 L 372.67 683.05 L 374.14 677.12 L 375.61 671.64 L 377.08 662.94 L 378.56 674.52 L 380.03 658.28 L 381.50 679.90 L 382.97 670.90 L 384.44 674.72 L 385.92 680.53 L 387.39 669.41 L 388.86 664.89 L 390.33 673.50 L 391.81 659.47 L 393.28 685.35 L 394.75 649.95 L 396.22 606.50 L 397.69 631.94 L 399.17 655.67 L 400.64 678.66 L 402.11 652.97 L 403.58 635.11 L 405.06 663.95 L 406.53 634.66 L 408.00 666.57 L 409.47 674.69 L 410.94 677.84 L 412.42 681.17 L 413.89 692.85 L 415.36 682.36 L 416.83 687.73 L 418.31 662.76 L 419.78 681.95 L 421.25 669.18 L 422.72 681.95 L 424.19 671.69 L 425.67 669.94 L 427.14 682.20 L 428.61 678.82 L 430.08 675.56 L 431.56 688.70 L 433.03 679.17 L 434.50 658.05 L 435.97 686.54 L 437.44 690.79 L 438.92 676.28 L 440.39 697.64 L 441.86 691.23 L 443.33 689.65 L 444.81 695.13 L 446.28 691.45 L 447.75 696.91 L 449.22 698.66 L 450.69 698.96 L 452.17 698.60 L 453.64 699.01 L 455.11 698.77 L 456.58 699.12 L 458.06 699.03 L 459.53 698.98 L 461.00 699.04 L 462.47 698.82 L 463.94 698.99 L 465.42 699.15 L 466.89 698.94 L 468.36 698.92 L 469.83 699.17 L 471.31 699.06 L 472.78 699.01 L 474.25 699.04 L 475.72 699.06 L 477.19 699.05 L 478.67 698.91 L 480.14 699.06 L 481.61 699.01 L 483.08 699.18 L 484.56 699.13 L 486.03 699.13 L 487.50 699.03 L 488.97 699.13 L 490.44 699.04 L 491.92 698.98 L 493.39 699.12 L 494.86 699.17 L 496.33 699.04 L 497.81 699.16 L 499.28 699.05 L 500.75 699.17 L 502.22 699.00 L 503.69 699.00 L 505.17 699.12 L 506.64 699.07 L 508.11 699.07 L 509.58 699.06 L 511.06 699.04 L 512.53 699.07 L 514.00 699.07 L 515.47 699.12 L 516.94 699.15 L 518.42 699.07 L 519.89 699.02 L 521.36 699.04 L 522.83 699.15 L 524.31 699.06 L 525.78 699.17 L 527.25 699.12 L 528.72 699.04 L 530.19 699.01 L 531.67 699.19 L 533.14 699.00 L 534.61 699.06 L 536.08 699.03 L 537.56 699.02 L 539.03 699.09 L 540.50 699.12 L 541.97 698.91 L 543.44 699.22 L 544.92 699.08 L 546.39 698.98 L 547.86 699.18 L 549.33 699.07 L 550.81 698.81 L 552.28 699.19 L 553.75 698.88 L 555.22 699.00 L 556.69 699.13 L 558.17 699.08 L 559.64 699.12 L 561.11 699.02 L 562.58 699.04 L 564.06 699.02 L 565.53 699.02 L 567.00 699.10 L 568.47 698.93 L 569.94 698.89 L 571.42 698.98 L 572.89 699.08 L 574.36 699.18 L 575.83 698.99 L 577.31 699.14 L 578.78 699.00 L 580.25 699.08 L 581.72 699.07 L 583.19 698.57 L 584.67 698.07 L 586.14 698.53 L 587.61 682.54 L 589.08 687.54 L 590.56 689.17 L 592.03 691.64 L 593.50 691.14 L 594.97 675.81 L 596.44 674.26 L 597.92 691.93 L 599.39 688.68 L 600.86 683.84 L 602.33 683.59 L 603.81 677.67 L 605.28 678.21 L 606.75 687.31 L 608.22 654.83 L 609.69 656.20 L 611.17 664.75 L 612.64 661.70 L 614.11 683.93 L 615.58 685.54 L 617.06 676.00 L 618.53 674.93 L 620.00 677.26 L 621.47 620.91 L 622.94 661.74 L 624.42 686.59 L 625.89 669.39 L 627.36 687.53 L 628.83 671.54 L 630.31 665.74 L 631.78 679.58 L 633.25 680.97 L 634.72 658.90 L 636.19 676.84 L 637.67 669.62 L 639.14 644.79 L 640.61 685.74 L 642.08 683.70 L 643.56 694.68 L 645.03 692.87 L 646.50 692.88 L 647.97 675.63 L 649.44 692.01 L 650.92 667.90 L 652.39 691.87 L 653.86 684.75 L 655.33 693.36 L 656.81 647.74 L 658.28 671.44 L 659.75 686.70 L 661.22 676.66 L 662.69 686.53 L 664.17 689.93 L 665.64 696.11 L 667.11 696.82 L 668.58 697.92 L 670.06 698.05 L 671.53 698.27 L 673.00 698.17 L 674.47 698.63 L 675.94 698.79 L 677.42 698.42 L 678.89 698.88 L 680.36 698.71 L 681.83 698.68 L 683.31 698.68 L 684.78 699.05 L 686.25 699.13 L 687.72 699.12 L 689.19 699.12 L 690.67 698.98 L 692.14 699.14 L 693.61 699.09 L 695.08 699.10 L 696.56 699.23 L 698.03 699.19 L 699.50 699.01 L 700.97 697.44 L 702.44 695.34 L 703.92 696.56 L 705.39 695.87 L 706.86 695.41 L 708.33 692.56 L 709.81 697.69 L 711.28 698.45 L 712.75 698.24 L 714.22 698.96 L 715.69 698.44 L 717.17 698.98 L 718.64 698.71 L 720.11 698.99 L 721.58 699.13 L 723.06 698.94 L 724.53 699.19 L 726.00 698.99 L 727.47 699.12 L 728.94 699.04 L 730.42 698.98 L 731.89 699.07 L 733.36 699.14 L 734.83 699.01 L 736.31 699.15 L 737.78 699.09 L 739.25 698.97 L 740.72 699.17 L 742.19 699.14 L 743.67 699.10 L 745.14 699.06 L 746.61 698.98 L 748.08 699.09 L 749.56 699.13 L 751.03 699.10 L 752.50 698.95 L 753.97 696.57 L 755.44 696.83 L 756.92 694.92 L 758.39 696.64 L 759.86 696.59 L 761.33 698.64 L 762.81 699.13 L 764.28 698.95 L 765.75 698.90 L 767.22 698.81 L 768.69 699.09 L 770.17 699.14 L 771.64 699.10 L 773.11 699.16 L 774.58 699.11 L 776.06 699.11 L 777.53 699.12 L 779.00 698.97 L 780.47 699.12 L 781.94 699.02 L 783.42 699.09 L 784.89 699.07 L 786.36 699.01 L 787.83 699.12 L 789.31 699.20 L 790.78 698.98 L 792.25 698.99 L 793.72 699.18 L 795.19 699.02 L 796.67 693.08 L 798.14 694.39 L 799.61 685.15 L 801.08 693.85 L 802.56 698.29 L 804.03 698.71 L 805.50 698.50 L 806.97 698.72 L 808.44 698.91 L 809.92 699.15 L 811.39 699.01 L 812.86 699.03 L 814.33 698.99 L 815.81 699.14 L 817.28 699.15 L 818.75 699.19 L 820.22 699.07 L 821.69 699.20 L 823.17 699.07 L 824.64 699.09 L 826.11 699.05 L 827.58 699.12 L 829.06 699.22 L 830.53 699.09 L 832.00 699.16 L 833.47 698.98 L 834.94 699.04 L 836.42 699.02 L 837.89 699.12 L 839.36 698.96 L 840.83 689.99 L 842.31 687.73 L 843.78 698.34 L 845.25 698.14 L 846.72 698.48 L 848.19 697.86 L 849.67 698.64 L 851.14 698.39 L 852.61 699.09 L 854.08 698.71 L 855.56 698.71" stroke="#FB8C00" />
<text x="90" y="711.25" font-size="14" font-weight="700">Giroscópio (magnitude) (u.a.)</text>
<rect class="event" x="443.33" y="717.25" width="147.22" height="192.75" />
<line class="eventline" x1="443.33" y1="717.25" x2="443.33" y2="910.00" />
<line class="eventline" x1="590.56" y1="717.25" x2="590.56" y2="910.00" />
<line class="grid" x1="90" y1="910.00" x2="1150" y2="910.00" />
<text class="small" x="80" y="914.00" text-anchor="end">0.00</text>
<line class="grid" x1="90" y1="871.45" x2="1150" y2="871.45" />
<text class="small" x="80" y="875.45" text-anchor="end">0.05</text>
<line class="grid" x1="90" y1="832.90" x2="1150" y2="832.90" />
<text class="small" x="80" y="836.90" text-anchor="end">0.10</text>
<line class="grid" x1="90" y1="794.35" x2="1150" y2="794.35" />
<text class="small" x="80" y="798.35" text-anchor="end">0.15</text>
<line class="grid" x1="90" y1="755.80" x2="1150" y2="755.80" />
<text class="small" x="80" y="759.80" text-anchor="end">0.20</text>
<line class="grid" x1="90" y1="717.25" x2="1150" y2="717.25" />
<text class="small" x="80" y="721.25" text-anchor="end">0.25</text>
<line class="grid" x1="90.00" y1="717.25" x2="90.00" y2="910.00" />
<line class="grid" x1="266.67" y1="717.25" x2="266.67" y2="910.00" />
<line class="grid" x1="443.33" y1="717.25" x2="443.33" y2="910.00" />
<line class="grid" x1="620.00" y1="717.25" x2="620.00" y2="910.00" />
<line class="grid" x1="796.67" y1="717.25" x2="796.67" y2="910.00" />
<line class="grid" x1="973.33" y1="717.25" x2="973.33" y2="910.00" />
<line class="grid" x1="1150.00" y1="717.25" x2="1150.00" y2="910.00" />
<line class="axis" x1="90" y1="717.25" x2="90" y2="910.00" />
<line class="axis" x1="90" y1="910.00" x2="1150" y2="910.00" />
<path class="series" d="M 178.33 899.48 L 179.81 857.72 L 181.28 816.75 L 182.75 794.64 L 184.22 803.67 L 185.69 843.97 L 187.17 850.50 L 188.64 876.05 L 190.11 888.67 L 191.58 895.03 L 193.06 891.01 L 194.53 896.79 L 196.00 900.31 L 197.47 900.71 L 198.94 891.30 L 200.42 896.79 L 201.89 896.21 L 203.36 898.71 L 204.83 901.43 L 206.31 896.32 L 207.78 902.74 L 209.25 895.11 L 210.72 907.08 L 212.19 904.94 L 213.67 907.13 L 215.14 901.22 L 216.61 902.48 L 218.08 898.83 L 219.56 900.83 L 221.03 906.25 L 222.50 898.53 L 223.97 895.96 L 225.44 904.08 L 226.92 903.61 L 228.39 892.07 L 229.86 896.53 L 231.33 901.53 L 232.81 904.41 L 234.28 897.27 L 235.75 899.51 L 237.22 892.84 L 238.69 876.82 L 240.17 878.16 L 241.64 877.45 L 243.11 856.36 L 244.58 847.69 L 246.06 859.73 L 247.53 849.18 L 249.00 856.63 L 250.47 846.47 L 251.94 847.09 L 253.42 857.49 L 254.89 884.95 L 256.36 880.88 L 257.83 876.53 L 259.31 879.06 L 260.78 884.03 L 262.25 885.46 L 263.72 883.69 L 265.19 875.30 L 266.67 871.79 L 268.14 863.67 L 269.61 844.36 L 271.08 830.06 L 272.56 829.79 L 274.03 831.07 L 275.50 845.12 L 276.97 881.12 L 278.44 866.60 L 279.92 894.88 L 281.39 887.73 L 282.86 889.93 L 284.33 891.10 L 285.81 885.28 L 287.28 868.19 L 288.75 867.76 L 290.22 878.94 L 291.69 880.72 L 293.17 881.97 L 294.64 884.50 L 296.11 889.49 L 297.58 881.93 L 299.06 889.41 L 300.53 881.39 L 302.00 863.79 L 303.47 866.90 L 304.94 876.22 L 306.42 882.69 L 307.89 891.37 L 309.36 878.21 L 310.83 854.57 L 312.31 842.78 L 313.78 827.26 L 315.25 831.98 L 316.72 852.52 L 318.19 851.61 L 319.67 843.41 L 321.14 855.14 L 322.61 870.64 L 324.08 871.70 L 325.56 880.47 L 327.03 830.85 L 328.50 889.38 L 329.97 890.77 L 331.44 889.74 L 332.92 893.13 L 334.39 886.45 L 335.86 900.17 L 337.33 893.89 L 338.81 892.78 L 340.28 887.22 L 341.75 887.22 L 343.22 887.76 L 344.69 887.64 L 346.17 885.21 L 347.64 879.26 L 349.11 900.18 L 350.58 891.79 L 352.06 899.81 L 353.53 889.67 L 355.00 871.29 L 356.47 887.75 L 357.94 882.72 L 359.42 894.35 L 360.89 869.30 L 362.36 873.21 L 363.83 886.41 L 365.31 869.54 L 366.78 870.98 L 368.25 882.56 L 369.72 892.05 L 371.19 888.07 L 372.67 874.98 L 374.14 882.22 L 375.61 867.88 L 377.08 887.55 L 378.56 891.90 L 380.03 869.89 L 381.50 889.07 L 382.97 891.44 L 384.44 886.86 L 385.92 899.73 L 387.39 878.29 L 388.86 865.83 L 390.33 864.06 L 391.81 872.45 L 393.28 884.16 L 394.75 883.51 L 396.22 891.00 L 397.69 827.11 L 399.17 802.59 L 400.64 807.65 L 402.11 818.66 L 403.58 848.02 L 405.06 895.53 L 406.53 881.56 L 408.00 842.86 L 409.47 839.14 L 410.94 840.12 L 412.42 842.11 L 413.89 839.28 L 415.36 862.58 L 416.83 876.02 L 418.31 881.90 L 419.78 902.29 L 421.25 891.40 L 422.72 895.12 L 424.19 892.55 L 425.67 893.66 L 427.14 896.31 L 428.61 886.50 L 430.08 883.57 L 431.56 880.70 L 433.03 888.80 L 434.50 900.63 L 435.97 903.76 L 437.44 902.72 L 438.92 906.30 L 440.39 904.91 L 441.86 908.46 L 443.33 908.31 L 444.81 908.65 L 446.28 909.50 L 447.75 909.49 L 449.22 909.54 L 450.69 909.63 L 452.17 909.67 L 453.64 909.37 L 455.11 909.71 L 456.58 909.64 L 458.06 909.38 L 459.53 909.60 L 461.00 909.81 L 462.47 909.75 L 463.94 909.81 L 465.42 909.77 L 466.89 909.94 L 468.36 909.73 L 469.83 909.75 L 471.31 909.84 L 472.78 909.74 L 474.25 909.90 L 475.72 909.81 L 477.19 909.84 L 478.67 909.71 L 480.14 909.88 L 481.61 909.92 L 483.08 909.86 L 484.56 909.70 L 486.03 909.91 L 487.50 909.82 L 488.97 909.86 L 490.44 909.68 L 491.92 909.90 L 493.39 909.94 L 494.86 909.94 L 496.33 909.80 L 497.81 909.86 L 499.28 909.91 L 500.75 909.83 L 502.22 909.92 L 503.69 909.86 L 505.17 909.85 L 506.64 909.85 L 508.11 909.85 L 509.58 909.97 L 511.06 909.79 L 512.53 909.97 L 514.00 909.93 L 515.47 909.78 L 516.94 909.84 L 518.42 909.87 L 519.89 909.73 L 521.36 909.91 L 522.83 909.89 L 524.31 909.75 L 525.78 909.77 L 527.25 909.73 L 528.72 909.80 L 530.19 909.79 L 531.67 909.83 L 533.14 909.77 L 534.61 909.80 L 536.08 909.81 L 537.56 909.89 L 539.03 909.82 L 540.50 909.74 L 541.97 909.93 L 543.44 909.94 L 544.92 909.77 L 546.39 909.78 L 547.86 909.92 L 549.33 909.87 L 550.81 909.84 L 552.28 909.82 L 553.75 909.74 L 555.22 909.80 L 556.69 909.82 L 558.17 909.74 L 559.64 909.74 L 561.11 909.79 L 562.58 909.86 L 564.06 909.82 L 565.53 909.82 L 567.00 909.73 L 568.47 909.87 L 569.94 909.76 L 571.42 909.92 L 572.89 909.78 L 574.36 909.75 L 575.83 909.90 L 577.31 909.94 L 578.78 909.90 L 580.25 909.83 L 581.72 909.77 L 583.19 909.43 L 584.67 908.29 L 586.14 908.28 L 587.61 905.93 L 589.08 905.23 L 590.56 898.95 L 592.03 901.82 L 593.50 900.80 L 594.97 892.75 L 596.44 898.19 L 597.92 899.33 L 599.39 891.42 L 600.86 894.79 L 602.33 884.95 L 603.81 896.82 L 605.28 894.77 L 606.75 891.06 L 608.22 891.06 L 609.69 860.29 L 611.17 853.82 L 612.64 813.34 L 614.11 806.11 L 615.58 800.77 L 617.06 799.53 L 618.53 799.98 L 620.00 800.16 L 621.47 823.38 L 622.94 900.29 L 624.42 905.99 L 625.89 902.17 L 627.36 887.82 L 628.83 891.35 L 630.31 888.81 L 631.78 874.88 L 633.25 845.53 L 634.72 821.86 L 636.19 830.53 L 637.67 833.55 L 639.14 875.12 L 640.61 889.60 L 642.08 884.54 L 643.56 902.01 L 645.03 896.82 L 646.50 904.02 L 647.97 885.02 L 649.44 886.86 L 650.92 899.79 L 652.39 900.37 L 653.86 905.78 L 655.33 899.43 L 656.81 906.52 L 658.28 906.98 L 659.75 908.14 L 661.22 906.87 L 662.69 906.34 L 664.17 906.35 L 665.64 908.39 L 667.11 908.10 L 668.58 908.36 L 670.06 908.32 L 671.53 908.38 L 673.00 908.36 L 674.47 908.36 L 675.94 908.29 L 677.42 908.30 L 678.89 908.26 L 680.36 908.41 L 681.83 909.10 L 683.31 909.10 L 684.78 909.86 L 686.25 909.88 L 687.72 909.90 L 689.19 909.97 L 690.67 909.93 L 692.14 909.95 L 693.61 909.91 L 695.08 909.88 L 696.56 909.81 L 698.03 909.94 L 699.50 909.74 L 700.97 909.32 L 702.44 909.47 L 703.92 907.23 L 705.39 908.09 L 706.86 908.93 L 708.33 909.74 L 709.81 909.65 L 711.28 909.80 L 712.75 909.73 L 714.22 909.84 L 715.69 909.70 L 717.17 909.81 L 718.64 909.75 L 720.11 909.89 L 721.58 909.78 L 723.06 909.77 L 724.53 909.87 L 726.00 909.88 L 727.47 909.89 L 728.94 909.91 L 730.42 909.90 L 731.89 909.92 L 733.36 909.88 L 734.83 909.89 L 736.31 909.85 L 737.78 909.84 L 739.25 909.92 L 740.72 909.92 L 742.19 909.94 L 743.67 909.96 L 745.14 909.97 L 746.61 909.95 L 748.08 909.84 L 749.56 909.85 L 751.03 909.83 L 752.50 909.96 L 753.97 909.67 L 755.44 907.49 L 756.92 909.39 L 758.39 909.23 L 759.86 909.71 L 761.33 909.76 L 762.81 909.68 L 764.28 909.88 L 765.75 909.87 L 767.22 909.85 L 768.69 909.95 L 770.17 909.87 L 771.64 909.83 L 773.11 909.94 L 774.58 909.86 L 776.06 909.97 L 777.53 909.82 L 779.00 909.85 L 780.47 909.89 L 781.94 909.92 L 783.42 909.85 L 784.89 909.87 L 786.36 909.95 L 787.83 909.97 L 789.31 909.87 L 790.78 909.94 L 792.25 909.85 L 793.72 909.71 L 795.19 909.83 L 796.67 908.08 L 798.14 906.60 L 799.61 909.06 L 801.08 909.58 L 802.56 909.59 L 804.03 909.95 L 805.50 909.85 L 806.97 909.90 L 808.44 909.73 L 809.92 909.92 L 811.39 909.83 L 812.86 909.83 L 814.33 909.87 L 815.81 909.97 L 817.28 909.85 L 818.75 909.91 L 820.22 909.90 L 821.69 909.88 L 823.17 909.93 L 824.64 909.89 L 826.11 909.90 L 827.58 909.89 L 829.06 909.92 L 830.53 909.93 L 832.00 909.97 L 833.47 909.92 L 834.94 909.91 L 836.42 909.93 L 837.89 909.92 L 839.36 909.94 L 840.83 906.70 L 842.31 906.07 L 843.78 908.81 L 845.25 909.47 L 846.72 909.56 L 848.19 909.85 L 849.67 909.89 L 851.14 909.87 L 852.61 909.84 L 854.08 909.78 L 855.56 909.78" stroke="#E53935" />
<text x="620.00" y="952" font-size="15" text-anchor="middle">minutos (relativo ao início do evento)</text>
<text class="small" x="90.00" y="936" text-anchor="middle">-4.00</text>
<text class="small" x="266.67" y="936" text-anchor="middle">-2.00</text>
<text class="small" x="443.33" y="936" text-anchor="middle">0.00</text>
<text class="small" x="620.00" y="936" text-anchor="middle">2.00</text>
<text class="small" x="796.67" y="936" text-anchor="middle">4.00</text>
<text class="small" x="973.33" y="936" text-anchor="middle">6.00</text>
<text class="small" x="1150.00" y="936" text-anchor="middle">8.00</text>
</svg>