<?xml version="1.0" encoding="UTF-8"?>
<svg xmlns="http://www.w3.org/2000/svg" width="1180" height="980" viewBox="0 0 1180 980">
<style>
text { font-family: -apple-system, BlinkMacSystemFont, 'Segoe UI', Roboto, Helvetica, Arial, sans-serif; fill: #111; }
.small { font-size: 12px; fill: #222; }
.title { font-size: 18px; font-weight: 700; }
.axis { stroke: #111; stroke-width: 1.4; }
.grid { stroke: #E6E6E6; stroke-width: 1; }
.event { fill: #FFEB3B; fill-opacity: 0.18; }
.eventline { stroke: #F9A825; stroke-width: 1.2; stroke-dasharray: 4 3; }
.series { fill: none; stroke-width: 1.8; }
</style>
<text class="title" x="90" y="34">ciclo 15 — espera_basculamento — 2025-12-13T03:10:07-03:00 → 2025-12-13T03:10:24-03:00 (span 17s, dur 18s)</text>
<text class="small" x="90" y="54">GPS: -11.692989,-47.165238  hotspot: -11.693,-47.165</text>
<text class="small" x="90" y="70">Janela: -3.00 → 3.28 min (relativo ao início do evento)</text>
<text x="90" y="79.00" font-size="14" font-weight="700">Velocidade (km/h)</text>
<rect class="event" x="443.33" y="85.00" width="25.03" height="192.75" />
<line class="eventline" x1="443.33" y1="85.00" x2="443.33" y2="277.75" />
<line class="eventline" x1="468.36" y1="85.00" x2="468.36" y2="277.75" />
<line class="grid" x1="90" y1="277.75" x2="1150" y2="277.75" />
<text class="small" x="80" y="281.75" text-anchor="end">0.00</text>
<line class="grid" x1="90" y1="239.20" x2="1150" y2="239.20" />
<text class="small" x="80" y="243.20" text-anchor="end">10.0</text>
<line class="grid" x1="90" y1="200.65" x2="1150" y2="200.65" />
<text class="small" x="80" y="204.65" text-anchor="end">20.0</text>
<line class="grid" x1="90" y1="162.10" x2="1150" y2="162.10" />
<text class="small" x="80" y="166.10" text-anchor="end">30.0</text>
<line class="grid" x1="90" y1="123.55" x2="1150" y2="123.55" />
<text class="small" x="80" y="127.55" text-anchor="end">40.0</text>
<line class="grid" x1="90" y1="85.00" x2="1150" y2="85.00" />
<text class="small" x="80" y="89.00" text-anchor="end">50.0</text>
<line class="grid" x1="90.00" y1="85.00" x2="90.00" y2="277.75" />
<line class="grid" x1="266.67" y1="85.00" x2="266.67" y2="277.75" />
<line class="grid" x1="443.33" y1="85.00" x2="443.33" y2="277.75" />
<line class="grid" x1="620.00" y1="85.00" x2="620.00" y2="277.75" />
<line class="grid" x1="796.67" y1="85.00" x2="796.67" y2="277.75" />
<line class="grid" x1="973.33" y1="85.00" x2="973.33" y2="277.75" />
<line class="grid" x1="1150.00" y1="85.00" x2="1150.00" y2="277.75" />
<line class="axis" x1="90" y1="85.00" x2="90" y2="277.75" />
<line class="axis" x1="90" y1="277.75" x2="1150" y2="277.75" />
<path class="series" d="M 178.33 245.14 L 179.81 247.36 L 181.28 245.28 L 182.75 246.39 L 184.22 245.55 L 185.69 245.97 L 187.17 245.28 L 188.64 245.41 L 190.11 245.97 L 191.58 246.52 L 193.06 246.52 L 194.53 246.11 L 196.00 246.80 L 197.47 246.11 L 198.94 247.77 L 200.42 247.91 L 201.89 248.47 L 203.36 246.94 L 204.83 246.39 L 206.31 244.44 L 207.78 245.00 L 209.25 243.75 L 210.72 243.89 L 212.19 243.89 L 213.67 241.94 L 215.14 239.45 L 216.61 234.31 L 218.08 227.65 L 219.56 218.77 L 221.03 219.88 L 222.50 213.63 L 223.97 213.63 L 225.44 211.69 L 226.92 212.52 L 228.39 211.14 L 229.86 211.83 L 231.33 209.61 L 232.81 205.03 L 234.28 206.00 L 235.75 201.70 L 237.22 205.31 L 238.69 206.69 L 240.17 204.20 L 241.64 202.11 L 243.11 200.03 L 244.58 202.95 L 246.06 205.58 L 247.53 216.13 L 249.00 217.66 L 250.47 221.27 L 251.94 226.40 L 253.42 231.40 L 254.89 232.23 L 256.36 231.68 L 257.83 230.43 L 259.31 232.65 L 260.78 232.92 L 262.25 233.90 L 263.72 233.90 L 265.19 233.62 L 266.67 236.53 L 268.14 233.34 L 269.61 225.85 L 271.08 229.45 L 272.56 227.10 L 274.03 225.15 L 275.50 229.87 L 276.97 227.93 L 278.44 230.70 L 279.92 237.92 L 281.39 227.23 L 282.86 225.43 L 284.33 225.85 L 285.81 225.99 L 287.28 231.68 L 288.75 233.62 L 290.22 236.12 L 291.69 237.92 L 293.17 238.89 L 294.64 239.17 L 296.11 241.53 L 297.58 240.97 L 299.06 238.61 L 300.53 238.75 L 302.00 239.72 L 303.47 240.56 L 304.94 251.66 L 306.42 259.15 L 307.89 266.79 L 309.36 274.14 L 310.83 277.75 L 312.31 277.75 L 313.78 277.75 L 315.25 271.50 L 316.72 267.76 L 318.19 260.96 L 319.67 262.21 L 321.14 262.07 L 322.61 262.35 L 324.08 262.90 L 325.56 262.76 L 327.03 259.71 L 328.50 263.59 L 329.97 264.29 L 331.44 263.32 L 332.92 263.46 L 334.39 263.32 L 335.86 261.10 L 337.33 257.07 L 338.81 264.57 L 340.28 265.26 L 341.75 267.48 L 343.22 270.12 L 344.69 269.15 L 346.17 268.04 L 347.64 267.48 L 349.11 268.17 L 350.58 266.65 L 352.06 269.56 L 353.53 271.37 L 355.00 271.23 L 356.47 270.67 L 357.94 271.09 L 359.42 270.81 L 360.89 269.28 L 362.36 269.28 L 363.83 271.23 L 365.31 270.95 L 366.78 277.75 L 368.25 277.75 L 369.72 277.75 L 371.19 277.75 L 372.67 277.75 L 374.14 277.75 L 375.61 277.75 L 377.08 277.75 L 378.56 277.75 L 380.03 277.75 L 381.50 277.75 L 382.97 277.75 L 384.44 277.75 L 385.92 277.75 L 387.39 277.75 L 388.86 277.75 L 390.33 277.75 L 391.81 277.75 L 393.28 277.75 L 394.75 277.75 L 396.22 277.75 L 397.69 277.75 L 399.17 277.75 L 400.64 277.75 L 402.11 277.75 L 403.58 277.75 L 405.06 277.75 L 406.53 277.75 L 408.00 277.75 L 409.47 277.75 L 410.94 277.75 L 412.42 277.75 L 413.89 277.75 L 415.36 277.75 L 416.83 277.75 L 418.31 277.75 L 419.78 277.75 L 421.25 277.75 L 422.72 277.75 L 424.19 277.75 L 425.67 277.75 L 427.14 267.34 L 428.61 258.32 L 430.08 264.15 L 431.56 258.88 L 433.03 266.79 L 434.50 277.75 L 435.97 277.75 L 437.44 269.98 L 438.92 262.21 L 440.39 263.73 L 441.86 265.12 L 443.33 277.75 L 444.81 277.75 L 446.28 277.75 L 447.75 277.75 L 449.22 277.75 L 450.69 277.75 L 452.17 277.75 L 453.64 277.75 L 455.11 277.75 L 456.58 277.75 L 458.06 277.75 L 459.53 277.75 L 461.00 277.75 L 462.47 277.75 L 463.94 277.75 L 465.42 277.75 L 466.89 277.75 L 468.36 277.75 L 469.83 254.02 L 471.31 256.79 L 472.78 249.72 L 474.25 240.97 L 475.72 240.00 L 477.19 234.73 L 478.67 227.51 L 480.14 222.10 L 481.61 215.72 L 483.08 219.88 L 484.56 217.94 L 486.03 215.85 L 487.50 214.05 L 488.97 217.38 L 490.44 225.57 L 491.92 230.15 L 493.39 228.21 L 494.86 220.16 L 496.33 221.68 L 497.81 220.16 L 499.28 218.07 L 500.75 219.60 L 502.22 219.60 L 503.69 220.02 L 505.17 216.96 L 506.64 218.49 L 508.11 220.02 L 509.58 223.76 L 511.06 221.41 L 512.53 218.91 L 514.00 216.55 L 515.47 212.52 L 516.94 210.58 L 518.42 203.92 L 519.89 199.06 L 521.36 194.34 L 522.83 190.04 L 524.31 187.68 L 525.78 183.93 L 527.25 182.69 L 528.72 181.58 L 530.19 183.66 L 531.67 184.35 L 533.14 180.33 L 534.61 179.22 L 536.08 179.22 L 537.56 180.74 L 539.03 180.05 L 540.50 184.77 L 541.97 182.13 L 543.44 182.13 L 544.92 183.24 L 546.39 183.80 L 547.86 179.22 L 549.33 175.05 L 550.81 165.89 L 552.28 163.67 L 553.75 153.96 L 555.22 152.15 L 556.69 147.85 L 558.17 148.41 L 559.64 157.84 L 561.11 156.60 L 562.58 161.87 L 564.06 161.59 L 565.53 169.22 L 567.00 176.86 L 568.47 181.99 L 569.94 184.77 L 571.42 185.60 L 572.89 188.51 L 574.36 190.18 L 575.83 188.24 L 577.31 184.63 L 578.78 184.49 L 580.25 179.77 L 581.72 179.08 L 583.19 175.89 L 584.67 172.97 L 586.14 171.58 L 587.61 175.05 L 589.08 177.13 L 590.56 179.91 L 592.03 179.91 L 593.50 180.88 L 594.97 180.33 L 596.44 185.60 L 597.92 186.85 L 599.39 188.93 L 600.86 189.76 L 602.33 187.96 L 603.81 188.24 L 605.28 189.62 L 606.75 188.79 L 608.22 188.10 L 609.69 188.24 L 611.17 187.68 L 612.64 186.71 L 614.11 186.71 L 615.58 185.74 L 617.06 184.77 L 618.53 183.80 L 620.00 181.85 L 621.47 180.60 L 622.94 180.33 L 624.42 180.74 L 625.89 181.30 L 627.36 183.10 L 628.83 184.77 L 630.31 185.60 L 631.78 184.63 L 633.25 188.38 L 634.72 188.24 L 636.19 189.21 L 637.67 188.51 L 639.14 188.79 L 640.61 187.82 L 642.08 186.57 L 643.56 184.49 L 645.03 182.27 L 646.50 181.30 L 647.97 180.05 L 649.44 178.38 L 650.92 175.61 L 652.39 171.58 L 653.86 163.12 L 655.33 154.51 L 656.81 149.24 L 658.28 151.60 L 659.75 156.04 L 661.22 170.06 L 662.69 170.75 L 664.17 171.17 L 665.64 167.98 L 667.11 174.78 L 668.58 177.41 L 670.06 190.87 L 671.53 202.53 L 673.00 207.11 L 674.47 201.28 L 675.94 199.20 L 677.42 194.48 L 678.89 193.51 L 680.36 190.04 L 681.83 186.02 L 683.31 181.30 L 684.78 188.51 L 686.25 178.24 L 687.72 175.19 L 689.19 173.39 L 690.67 167.00 L 692.14 160.06 L 693.61 153.96 L 695.08 153.82 L 696.56 152.71 L 698.03 156.04 L 699.50 161.59 L 700.97 162.15 L 702.44 165.89 L 703.92 165.89 L 705.39 164.64 L 706.86 163.81 L 708.33 163.53 L 709.81 164.09 L 711.28 161.45 L 712.75 158.82 L 714.22 156.46 L 715.69 154.65 L 717.17 154.37 L 718.64 151.74 L 720.11 150.91 L 721.58 150.63 L 723.06 149.66 L 724.53 152.43 L 726.00 153.54 L 727.47 153.82 L 728.94 153.82 L 730.42 151.04 L 731.89 152.71 L 733.36 152.02" stroke="#1976D2" />
<text x="90" y="289.75" font-size="14" font-weight="700">Inclinação (graus)</text>
<rect class="event" x="443.33" y="295.75" width="25.03" height="192.75" />
<line class="eventline" x1="443.33" y1="295.75" x2="443.33" y2="488.50" />
<line class="eventline" x1="468.36" y1="295.75" x2="468.36" y2="488.50" />
<line class="grid" x1="90" y1="488.50" x2="1150" y2="488.50" />
<text class="small" x="80" y="492.50" text-anchor="end">-20.0</text>
<line class="grid" x1="90" y1="449.95" x2="1150" y2="449.95" />
<text class="small" x="80" y="453.95" text-anchor="end">-10.0</text>
<line class="grid" x1="90" y1="411.40" x2="1150" y2="411.40" />
<text class="small" x="80" y="415.40" text-anchor="end">0.00</text>
<line class="grid" x1="90" y1="372.85" x2="1150" y2="372.85" />
<text class="small" x="80" y="376.85" text-anchor="end">10.0</text>
<line class="grid" x1="90" y1="334.30" x2="1150" y2="334.30" />
<text class="small" x="80" y="338.30" text-anchor="end">20.0</text>
<line class="grid" x1="90" y1="295.75" x2="1150" y2="295.75" />
<text class="small" x="80" y="299.75" text-anchor="end">30.0</text>
<line class="grid" x1="90.00" y1="295.75" x2="90.00" y2="488.50" />
<line class="grid" x1="266.67" y1="295.75" x2="266.67" y2="488.50" />
<line class="grid" x1="443.33" y1="295.75" x2="443.33" y2="488.50" />
<line class="grid" x1="620.00" y1="295.75" x2="620.00" y2="488.50" />
<line class="grid" x1="796.67" y1="295.75" x2="796.67" y2="488.50" />
<line class="grid" x1="973.33" y1="295.75" x2="973.33" y2="488.50" />
<line class="grid" x1="1150.00" y1="295.75" x2="1150.00" y2="488.50" />
<line class="axis" x1="90" y1="295.75" x2="90" y2="488.50" />
<line class="axis" x1="90" y1="488.50" x2="1150" y2="488.50" />
<path class="series" d="M 178.33 389.51 L 179.81 390.46 L 181.28 390.37 L 182.75 389.54 L 184.22 388.83 L 185.69 391.25 L 187.17 392.19 L 188.64 391.81 L 190.11 394.59 L 191.58 394.23 L 193.06 394.75 L 194.53 395.07 L 196.00 393.31 L 197.47 395.17 L 198.94 395.88 L 200.42 395.89 L 201.89 392.62 L 203.36 392.93 L 204.83 387.81 L 206.31 387.88 L 207.78 389.87 L 209.25 388.48 L 210.72 386.42 L 212.19 380.61 L 213.67 381.19 L 215.14 384.01 L 216.61 378.83 L 218.08 372.96 L 219.56 374.46 L 221.03 369.39 L 222.50 365.34 L 223.97 369.42 L 225.44 368.66 L 226.92 370.47 L 228.39 369.46 L 229.86 378.25 L 231.33 375.31 L 232.81 375.31 L 234.28 376.99 L 235.75 375.23 L 237.22 376.92 L 238.69 373.65 L 240.17 372.45 L 241.64 373.01 L 243.11 374.44 L 244.58 373.00 L 246.06 374.74 L 247.53 374.18 L 249.00 380.93 L 250.47 381.00 L 251.94 377.96 L 253.42 379.16 L 254.89 383.30 L 256.36 384.94 L 257.83 382.63 L 259.31 384.99 L 260.78 383.76 L 262.25 384.87 L 263.72 384.44 L 265.19 385.82 L 266.67 379.19 L 268.14 380.90 L 269.61 372.27 L 271.08 370.83 L 272.56 375.18 L 274.03 372.79 L 275.50 365.20 L 276.97 361.81 L 278.44 360.13 L 279.92 360.93 L 281.39 365.14 L 282.86 360.31 L 284.33 360.27 L 285.81 367.09 L 287.28 367.55 L 288.75 371.72 L 290.22 371.27 L 291.69 370.31 L 293.17 373.35 L 294.64 372.63 L 296.11 372.41 L 297.58 371.38 L 299.06 370.07 L 300.53 367.65 L 302.00 359.62 L 303.47 348.94 L 304.94 349.31 L 306.42 355.60 L 307.89 356.86 L 309.36 354.71 L 310.83 371.43 L 312.31 368.95 L 313.78 360.74 L 315.25 361.12 L 316.72 363.80 L 318.19 365.79 L 319.67 364.66 L 321.14 367.11 L 322.61 362.06 L 324.08 363.91 L 325.56 362.03 L 327.03 361.12 L 328.50 363.57 L 329.97 366.93 L 331.44 363.68 L 332.92 360.95 L 334.39 363.58 L 335.86 359.86 L 337.33 367.79 L 338.81 367.48 L 340.28 366.95 L 341.75 369.84 L 343.22 368.53 L 344.69 363.20 L 346.17 364.65 L 347.64 368.35 L 349.11 365.70 L 350.58 370.20 L 352.06 372.83 L 353.53 370.02 L 355.00 368.67 L 356.47 369.64 L 357.94 372.22 L 359.42 366.87 L 360.89 371.56 L 362.36 373.15 L 363.83 374.27 L 365.31 372.11 L 366.78 381.69 L 368.25 371.99 L 369.72 373.49 L 371.19 371.41 L 372.67 369.80 L 374.14 372.22 L 375.61 371.19 L 377.08 371.13 L 378.56 371.34 L 380.03 371.35 L 381.50 371.47 L 382.97 371.60 L 384.44 371.73 L 385.92 371.72 L 387.39 371.95 L 388.86 372.12 L 390.33 371.71 L 391.81 371.97 L 393.28 372.27 L 394.75 370.95 L 396.22 372.68 L 397.69 371.76 L 399.17 372.18 L 400.64 372.55 L 402.11 371.67 L 403.58 371.48 L 405.06 372.66 L 406.53 372.12 L 408.00 371.29 L 409.47 370.84 L 410.94 373.06 L 412.42 371.71 L 413.89 372.13 L 415.36 372.08 L 416.83 372.72 L 418.31 373.07 L 419.78 372.89 L 421.25 372.64 L 422.72 373.76 L 424.19 373.25 L 425.67 389.75 L 427.14 389.92 L 428.61 371.84 L 430.08 385.12 L 431.56 361.71 L 433.03 350.48 L 434.50 369.77 L 435.97 382.34 L 437.44 382.54 L 438.92 368.80 L 440.39 354.58 L 441.86 361.23 L 443.33 369.87 L 444.81 369.81 L 446.28 369.60 L 447.75 368.87 L 449.22 368.51 L 450.69 368.34 L 452.17 368.23 L 453.64 368.18 L 455.11 367.98 L 456.58 367.70 L 458.06 367.82 L 459.53 367.78 L 461.00 367.63 L 462.47 367.73 L 463.94 366.95 L 465.42 367.97 L 466.89 376.13 L 468.36 388.08 L 469.83 371.07 L 471.31 374.97 L 472.78 376.11 L 474.25 364.03 L 475.72 370.26 L 477.19 370.93 L 478.67 370.93 L 480.14 359.40 L 481.61 362.18 L 483.08 366.70 L 484.56 359.21 L 486.03 363.34 L 487.50 354.80 L 488.97 360.05 L 490.44 363.71 L 491.92 377.64 L 493.39 389.74 L 494.86 370.81 L 496.33 375.60 L 497.81 374.55 L 499.28 363.83 L 500.75 356.77 L 502.22 371.90 L 503.69 363.18 L 505.17 366.59 L 506.64 358.74 L 508.11 358.37 L 509.58 372.87 L 511.06 357.38 L 512.53 352.93 L 514.00 356.76 L 515.47 352.71 L 516.94 353.93 L 518.42 353.93 L 519.89 354.43 L 521.36 358.38 L 522.83 355.34 L 524.31 354.86 L 525.78 353.55 L 527.25 355.30 L 528.72 364.30 L 530.19 359.89 L 531.67 363.97 L 533.14 366.25 L 534.61 361.52 L 536.08 361.99 L 537.56 362.83 L 539.03 358.70 L 540.50 365.96 L 541.97 370.15 L 543.44 370.94 L 544.92 364.79 L 546.39 363.43 L 547.86 365.34 L 549.33 361.64 L 550.81 362.75 L 552.28 354.24 L 553.75 357.48 L 555.22 350.02 L 556.69 351.72 L 558.17 344.94 L 559.64 332.80 L 561.11 339.82 L 562.58 335.06 L 564.06 339.27 L 565.53 338.24 L 567.00 340.82 L 568.47 338.05 L 569.94 339.10 L 571.42 336.85 L 572.89 342.25 L 574.36 340.44 L 575.83 350.02 L 577.31 351.74 L 578.78 348.04 L 580.25 348.60 L 581.72 348.29 L 583.19 349.56 L 584.67 345.40 L 586.14 341.08 L 587.61 342.71 L 589.08 339.21 L 590.56 340.20 L 592.03 341.60 L 593.50 336.43 L 594.97 340.65 L 596.44 341.14 L 597.92 340.08 L 599.39 340.79 L 600.86 346.38 L 602.33 344.74 L 603.81 346.27 L 605.28 342.98 L 606.75 349.33 L 608.22 344.46 L 609.69 345.02 L 611.17 345.59 L 612.64 347.42 L 614.11 345.29 L 615.58 346.25 L 617.06 345.24 L 618.53 342.53 L 620.00 345.33 L 621.47 344.05 L 622.94 343.60 L 624.42 344.82 L 625.89 344.15 L 627.36 345.26 L 628.83 344.80 L 630.31 345.14 L 631.78 345.32 L 633.25 344.68 L 634.72 346.07 L 636.19 345.82 L 637.67 344.59 L 639.14 346.13 L 640.61 344.60 L 642.08 345.28 L 643.56 344.37 L 645.03 344.01 L 646.50 344.01 L 647.97 345.27 L 649.44 342.46 L 650.92 343.32 L 652.39 354.34 L 653.86 357.61 L 655.33 356.03 L 656.81 341.69 L 658.28 333.56 L 659.75 336.78 L 661.22 337.16 L 662.69 354.69 L 664.17 353.24 L 665.64 348.94 L 667.11 333.53 L 668.58 339.24 L 670.06 338.24 L 671.53 347.08 L 673.00 361.34 L 674.47 366.54 L 675.94 359.60 L 677.42 366.48 L 678.89 373.35 L 680.36 376.32 L 681.83 378.40 L 683.31 374.67 L 684.78 375.38 L 686.25 380.74 L 687.72 374.99 L 689.19 383.13 L 690.67 382.21 L 692.14 382.31 L 693.61 367.78 L 695.08 368.03 L 696.56 360.77 L 698.03 361.70 L 699.50 363.24 L 700.97 361.22 L 702.44 360.33 L 703.92 358.16 L 705.39 361.94 L 706.86 358.33 L 708.33 359.05 L 709.81 362.67 L 711.28 358.41 L 712.75 357.17 L 714.22 360.10 L 715.69 360.54 L 717.17 365.75 L 718.64 361.94 L 720.11 363.90 L 721.58 364.07 L 723.06 359.65 L 724.53 359.61 L 726.00 364.27 L 727.47 364.69 L 728.94 367.84 L 730.42 363.25 L 731.89 367.59 L 733.36 362.43" stroke="#2E7D32" />
<path class="series" d="M 178.33 403.30 L 179.81 404.09 L 181.28 406.74 L 182.75 406.30 L 184.22 405.22 L 185.69 404.43 L 187.17 405.46 L 188.64 404.19 L 190.11 407.15 L 191.58 408.98 L 193.06 407.52 L 194.53 409.59 L 196.00 408.19 L 197.47 412.71 L 198.94 414.15 L 200.42 408.60 L 201.89 415.92 L 203.36 405.27 L 204.83 415.29 L 206.31 419.17 L 207.78 417.75 L 209.25 417.89 L 210.72 419.12 L 212.19 414.21 L 213.67 409.50 L 215.14 407.98 L 216.61 411.83 L 218.08 410.64 L 219.56 407.57 L 221.03 413.49 L 222.50 410.40 L 223.97 414.07 L 225.44 411.08 L 226.92 415.04 L 228.39 413.71 L 229.86 407.40 L 231.33 419.50 L 232.81 419.50 L 234.28 416.48 L 235.75 415.18 L 237.22 427.05 L 238.69 428.98 L 240.17 424.65 L 241.64 428.71 L 243.11 433.46 L 244.58 435.79 L 246.06 436.40 L 247.53 426.15 L 249.00 420.41 L 250.47 406.00 L 251.94 414.96 L 253.42 418.89 L 254.89 407.33 L 256.36 406.45 L 257.83 413.44 L 259.31 406.45 L 260.78 398.79 L 262.25 390.22 L 263.72 392.17 L 265.19 391.12 L 266.67 392.40 L 268.14 392.80 L 269.61 399.31 L 271.08 394.16 L 272.56 399.53 L 274.03 406.46 L 275.50 400.54 L 276.97 413.91 L 278.44 406.57 L 279.92 408.26 L 281.39 407.70 L 282.86 414.90 L 284.33 397.11 L 285.81 398.94 L 287.28 393.80 L 288.75 403.33 L 290.22 412.70 L 291.69 413.99 L 293.17 406.88 L 294.64 410.45 L 296.11 414.09 L 297.58 410.99 L 299.06 411.40 L 300.53 420.53 L 302.00 429.77 L 303.47 418.01 L 304.94 401.45 L 306.42 399.29 L 307.89 407.47 L 309.36 405.42 L 310.83 408.16 L 312.31 408.73 L 313.78 408.51 L 315.25 414.99 L 316.72 412.31 L 318.19 406.91 L 319.67 404.39 L 321.14 406.92 L 322.61 402.65 L 324.08 408.34 L 325.56 404.79 L 327.03 405.69 L 328.50 406.15 L 329.97 403.65 L 331.44 402.53 L 332.92 401.08 L 334.39 403.38 L 335.86 397.97 L 337.33 408.60 L 338.81 413.68 L 340.28 406.87 L 341.75 406.30 L 343.22 402.88 L 344.69 403.09 L 346.17 405.88 L 347.64 407.71 L 349.11 406.96 L 350.58 405.32 L 352.06 407.79 L 353.53 406.33 L 355.00 406.41 L 356.47 407.08 L 357.94 408.35 L 359.42 409.62 L 360.89 407.98 L 362.36 406.19 L 363.83 409.35 L 365.31 408.36 L 366.78 412.57 L 368.25 409.94 L 369.72 413.39 L 371.19 409.59 L 372.67 410.58 L 374.14 410.95 L 375.61 411.04 L 377.08 410.77 L 378.56 410.91 L 380.03 411.42 L 381.50 410.85 L 382.97 411.00 L 384.44 411.47 L 385.92 411.09 L 387.39 411.27 L 388.86 411.56 L 390.33 411.55 L 391.81 411.04 L 393.28 411.67 L 394.75 410.56 L 396.22 412.08 L 397.69 411.10 L 399.17 411.68 L 400.64 411.82 L 402.11 411.30 L 403.58 411.51 L 405.06 411.73 L 406.53 411.70 L 408.00 411.28 L 409.47 410.94 L 410.94 412.37 L 412.42 411.34 L 413.89 411.46 L 415.36 411.48 L 416.83 411.79 L 418.31 412.01 L 419.78 411.74 L 421.25 411.57 L 422.72 412.25 L 424.19 412.03 L 425.67 413.28 L 427.14 407.90 L 428.61 410.11 L 430.08 408.98 L 431.56 406.84 L 433.03 410.33 L 434.50 408.12 L 435.97 408.50 L 437.44 406.39 L 438.92 407.09 L 440.39 407.98 L 441.86 407.77 L 443.33 407.42 L 444.81 407.19 L 446.28 406.94 L 447.75 407.36 L 449.22 407.44 L 450.69 407.18 L 452.17 407.04 L 453.64 407.28 L 455.11 407.16 L 456.58 407.12 L 458.06 407.15 L 459.53 407.19 L 461.00 407.13 L 462.47 407.25 L 463.94 407.17 L 465.42 407.38 L 466.89 406.83 L 468.36 415.56 L 469.83 410.29 L 471.31 411.99 L 472.78 418.97 L 474.25 423.57 L 475.72 423.13 L 477.19 427.10 L 478.67 435.87 L 480.14 427.97 L 481.61 412.28 L 483.08 431.13 L 484.56 433.29 L 486.03 436.62 L 487.50 435.83 L 488.97 427.30 L 490.44 412.30 L 491.92 404.91 L 493.39 423.01 L 494.86 409.99 L 496.33 412.95 L 497.81 405.37 L 499.28 391.44 L 500.75 403.31 L 502.22 400.14 L 503.69 398.83 L 505.17 394.91 L 506.64 405.37 L 508.11 400.15 L 509.58 394.55 L 511.06 401.16 L 512.53 394.27 L 514.00 390.29 L 515.47 399.86 L 516.94 410.41 L 518.42 410.41 L 519.89 411.84 L 521.36 413.47 L 522.83 398.07 L 524.31 401.69 L 525.78 401.39 L 527.25 398.68 L 528.72 399.42 L 530.19 394.19 L 531.67 403.04 L 533.14 404.83 L 534.61 411.13 L 536.08 408.31 L 537.56 409.51 L 539.03 404.62 L 540.50 402.30 L 541.97 405.31 L 543.44 409.58 L 544.92 406.98 L 546.39 405.81 L 547.86 401.94 L 549.33 393.10 L 550.81 402.05 L 552.28 404.22 L 553.75 404.02 L 555.22 404.58 L 556.69 405.54 L 558.17 409.37 L 559.64 422.11 L 561.11 413.79 L 562.58 419.24 L 564.06 417.72 L 565.53 405.23 L 567.00 416.37 L 568.47 411.41 L 569.94 414.64 L 571.42 417.86 L 572.89 409.93 L 574.36 408.66 L 575.83 413.13 L 577.31 407.10 L 578.78 415.45 L 580.25 409.92 L 581.72 413.15 L 583.19 415.62 L 584.67 421.02 L 586.14 427.81 L 587.61 418.53 L 589.08 414.28 L 590.56 420.91 L 592.03 411.53 L 593.50 400.45 L 594.97 412.16 L 596.44 409.18 L 597.92 407.25 L 599.39 410.86 L 600.86 406.89 L 602.33 407.82 L 603.81 413.54 L 605.28 407.66 L 606.75 414.28 L 608.22 416.43 L 609.69 411.96 L 611.17 419.21 L 612.64 417.30 L 614.11 418.75 L 615.58 415.38 L 617.06 414.74 L 618.53 417.48 L 620.00 416.03 L 621.47 408.03 L 622.94 408.86 L 624.42 406.48 L 625.89 411.61 L 627.36 414.42 L 628.83 414.34 L 630.31 412.67 L 631.78 407.38 L 633.25 404.84 L 634.72 408.25 L 636.19 406.08 L 637.67 404.85 L 639.14 404.26 L 640.61 405.73 L 642.08 406.87 L 643.56 404.44 L 645.03 406.08 L 646.50 410.79 L 647.97 407.85 L 649.44 403.59 L 650.92 406.38 L 652.39 406.44 L 653.86 412.91 L 655.33 418.49 L 656.81 421.83 L 658.28 424.87 L 659.75 432.52 L 661.22 447.75 L 662.69 453.74 L 664.17 436.56 L 665.64 456.08 L 667.11 447.85 L 668.58 438.55 L 670.06 395.83 L 671.53 370.23 L 673.00 382.50 L 674.47 368.92 L 675.94 371.25 L 677.42 392.52 L 678.89 399.42 L 680.36 399.54 L 681.83 413.90 L 683.31 414.92 L 684.78 426.12 L 686.25 418.01 L 687.72 431.04 L 689.19 434.02 L 690.67 437.17 L 692.14 409.87 L 693.61 413.36 L 695.08 405.98 L 696.56 410.31 L 698.03 404.95 L 699.50 408.50 L 700.97 411.35 L 702.44 408.96 L 703.92 400.23 L 705.39 398.31 L 706.86 393.78 L 708.33 398.51 L 709.81 399.13 L 711.28 405.59 L 712.75 401.86 L 714.22 399.55 L 715.69 403.16 L 717.17 401.77 L 718.64 403.65 L 720.11 403.61 L 721.58 405.13 L 723.06 409.86 L 724.53 411.39 L 726.00 411.46 L 727.47 405.06 L 728.94 404.79 L 730.42 407.85 L 731.89 407.77 L 733.36 400.42" stroke="#6A1B9A" />
<line x1="900.00" y1="307.75" x2="918.00" y2="307.75" stroke="#2E7D32" stroke-width="3" />
<text class="small" x="924.00" y="311.75">pitch</text>
<line x1="900.00" y1="323.75" x2="918.00" y2="323.75" stroke="#6A1B9A" stroke-width="3" />
<text class="small" x="924.00" y="327.75">roll</text>
<text x="90" y="500.50" font-size="14" font-weight="700">Aceleração (magnitude) (u.a.)</text>
<rect class="event" x="443.33" y="506.50" width="25.03" height="192.75" />
<line class="eventline" x1="443.33" y1="506.50" x2="443.33" y2="699.25" />
<line class="eventline" x1="468.36" y1="506.50" x2="468.36" y2="699.25" />
<line class="grid" x1="90" y1="699.25" x2="1150" y2="699.25" />
<text class="small" x="80" y="703.25" text-anchor="end">0.00</text>
<line class="grid" x1="90" y1="660.70" x2="1150" y2="660.70" />
<text class="small" x="80" y="664.70" text-anchor="end">0.50</text>
<line class="grid" x1="90" y1="622.15" x2="1150" y2="622.15" />
<text class="small" x="80" y="626.15" text-anchor="end">1.00</text>
<line class="grid" x1="90" y1="583.60" x2="1150" y2="583.60" />
<text class="small" x="80" y="587.60" text-anchor="end">1.50</text>
<line class="grid" x1="90" y1="545.05" x2="1150" y2="545.05" />
<text class="small" x="80" y="549.05" text-anchor="end">2.00</text>
<line class="grid" x1="90" y1="506.50" x2="1150" y2="506.50" />
<text class="small" x="80" y="510.50" text-anchor="end">2.50</text>
<line class="grid" x1="90.00" y1="506.50" x2="90.00" y2="699.25" />
<line class="grid" x1="266.67" y1="506.50" x2="266.67" y2="699.25" />
<line class="grid" x1="443.33" y1="506.50" x2="443.33" y2="699.25" />
<line class="grid" x1="620.00" y1="506.50" x2="620.00" y2="699.25" />
<line class="grid" x1="796.67" y1="506.50" x2="796.67" y2="699.25" />
<line class="grid" x1="973.33" y1="506.50" x2="973.33" y2="699.25" />
<line class="grid" x1="1150.00" y1="506.50" x2="1150.00" y2="699.25" />
<line class="axis" x1="90" y1="506.50" x2="90" y2="699.25" />
<line class="axis" x1="90" y1="699.25" x2="1150" y2="699.25" />
<path class="series" d="M 178.33 693.81 L 179.81 694.14 L 181.28 692.18 L 182.75 692.97 L 184.22 689.60 L 185.69 692.86 L 187.17 697.25 L 188.64 690.46 L 190.11 695.68 L 191.58 694.79 L 193.06 692.48 L 194.53 693.52 L 196.00 691.36 L 197.47 693.11 L 198.94 691.14 L 200.42 679.02 L 201.89 678.25 L 203.36 668.51 L 204.83 682.53 L 206.31 692.51 L 207.78 686.82 L 209.25 688.42 L 210.72 686.47 L 212.19 686.29 L 213.67 672.51 L 215.14 657.27 L 216.61 677.55 L 218.08 651.14 L 219.56 676.42 L 221.03 684.93 L 222.50 691.06 L 223.97 683.02 L 225.44 674.54 L 226.92 658.45 L 228.39 688.67 L 229.86 661.20 L 231.33 689.36 L 232.81 696.35 L 234.28 679.53 L 235.75 656.83 L 237.22 656.83 L 238.69 632.11 L 240.17 688.63 L 241.64 672.58 L 243.11 677.33 L 244.58 645.75 L 246.06 644.70 L 247.53 662.84 L 249.00 680.33 L 250.47 651.62 L 251.94 665.29 L 253.42 685.57 L 254.89 669.81 L 256.36 682.88 L 257.83 689.89 L 259.31 679.63 L 260.78 686.06 L 262.25 668.96 L 263.72 676.81 L 265.19 660.71 L 266.67 672.99 L 268.14 665.93 L 269.61 687.92 L 271.08 680.91 L 272.56 679.78 L 274.03 689.32 L 275.50 675.25 L 276.97 682.85 L 278.44 682.07 L 279.92 644.45 L 281.39 680.04 L 282.86 674.68 L 284.33 657.33 L 285.81 646.10 L 287.28 679.44 L 288.75 688.87 L 290.22 667.29 L 291.69 690.28 L 293.17 677.30 L 294.64 672.85 L 296.11 685.13 L 297.58 693.74 L 299.06 691.36 L 300.53 673.81 L 302.00 652.60 L 303.47 639.25 L 304.94 617.21 L 306.42 648.11 L 307.89 686.54 L 309.36 687.15 L 310.83 677.76 L 312.31 693.77 L 313.78 682.14 L 315.25 685.15 L 316.72 695.31 L 318.19 676.76 L 319.67 673.71 L 321.14 689.46 L 322.61 678.64 L 324.08 689.12 L 325.56 696.19 L 327.03 671.32 L 328.50 684.94 L 329.97 684.43 L 331.44 666.50 L 332.92 672.99 L 334.39 679.45 L 335.86 675.22 L 337.33 674.46 L 338.81 687.58 L 340.28 693.76 L 341.75 689.77 L 343.22 688.88 L 344.69 680.85 L 346.17 696.48 L 347.64 691.74 L 349.11 691.50 L 350.58 689.14 L 352.06 694.74 L 353.53 694.32 L 355.00 694.79 L 356.47 695.71 L 357.94 695.12 L 359.42 693.32 L 360.89 692.23 L 362.36 694.66 L 363.83 694.70 L 365.31 692.45 L 366.78 671.45 L 368.25 687.38 L 369.72 690.63 L 371.19 687.78 L 372.67 693.31 L 374.14 691.90 L 375.61 694.97 L 377.08 697.42 L 378.56 698.33 L 380.03 698.55 L 381.50 698.61 L 382.97 698.46 L 384.44 698.32 L 385.92 698.89 L 387.39 698.22 L 388.86 697.56 L 390.33 696.99 L 391.81 696.67 L 393.28 692.50 L 394.75 696.00 L 396.22 695.36 L 397.69 696.33 L 399.17 698.06 L 400.64 698.02 L 402.11 695.37 L 403.58 696.20 L 405.06 691.26 L 406.53 693.96 L 408.00 693.96 L 409.47 696.98 L 410.94 693.39 L 412.42 695.75 L 413.89 696.16 L 415.36 698.18 L 416.83 698.04 L 418.31 696.42 L 419.78 698.27 L 421.25 698.03 L 422.72 698.43 L 424.19 695.93 L 425.67 692.37 L 427.14 626.24 L 428.61 676.55 L 430.08 650.43 L 431.56 684.07 L 433.03 669.12 L 434.50 668.68 L 435.97 655.95 L 437.44 631.46 L 438.92 670.42 L 440.39 678.88 L 441.86 647.85 L 443.33 681.58 L 444.81 683.48 L 446.28 688.27 L 447.75 693.12 L 449.22 697.54 L 450.69 696.07 L 452.17 696.75 L 453.64 698.42 L 455.11 697.94 L 456.58 697.18 L 458.06 696.36 L 459.53 697.98 L 461.00 698.02 L 462.47 698.47 L 463.94 698.27 L 465.42 697.60 L 466.89 696.84 L 468.36 663.40 L 469.83 673.48 L 471.31 680.19 L 472.78 676.78 L 474.25 672.84 L 475.72 650.46 L 477.19 671.42 L 478.67 654.06 L 480.14 655.38 L 481.61 647.79 L 483.08 683.80 L 484.56 648.10 L 486.03 638.45 L 487.50 661.95 L 488.97 644.73 L 490.44 659.33 L 491.92 667.61 L 493.39 647.67 L 494.86 659.36 L 496.33 676.05 L 497.81 686.13 L 499.28 639.67 L 500.75 635.48 L 502.22 676.67 L 503.69 647.86 L 505.17 638.35 L 506.64 655.53 L 508.11 676.93 L 509.58 690.79 L 511.06 666.67 L 512.53 670.18 L 514.00 649.87 L 515.47 689.56 L 516.94 674.23 L 518.42 647.18 L 519.89 663.09 L 521.36 687.94 L 522.83 671.83 L 524.31 685.31 L 525.78 647.38 L 527.25 673.42 L 528.72 665.55 L 530.19 668.70 L 531.67 665.50 L 533.14 669.49 L 534.61 673.70 L 536.08 686.36 L 537.56 679.04 L 539.03 684.52 L 540.50 688.65 L 541.97 673.96 L 543.44 647.40 L 544.92 686.35 L 546.39 675.92 L 547.86 674.14 L 549.33 658.20 L 550.81 684.01 L 552.28 668.83 L 553.75 688.26 L 555.22 679.70 L 556.69 676.69 L 558.17 643.54 L 559.64 667.21 L 561.11 646.39 L 562.58 682.60 L 564.06 672.91 L 565.53 651.73 L 567.00 677.40 L 568.47 689.29 L 569.94 687.02 L 571.42 683.32 L 572.89 688.79 L 574.36 670.79 L 575.83 674.06 L 577.31 669.41 L 578.78 677.41 L 580.25 683.11 L 581.72 683.11 L 583.19 682.46 L 584.67 673.63 L 586.14 643.65 L 587.61 671.75 L 589.08 683.87 L 590.56 686.43 L 592.03 672.29 L 593.50 657.55 L 594.97 677.18 L 596.44 690.69 L 597.92 678.63 L 599.39 686.65 L 600.86 690.91 L 602.33 684.71 L 603.81 673.27 L 605.28 670.36 L 606.75 676.56 L 608.22 664.55 L 609.69 667.54 L 611.17 695.58 L 612.64 679.36 L 614.11 692.30 L 615.58 679.42 L 617.06 688.11 L 618.53 685.85 L 620.00 685.30 L 621.47 692.78 L 622.94 685.89 L 624.42 687.17 L 625.89 692.67 L 627.36 686.39 L 628.83 680.17 L 630.31 684.36 L 631.78 674.03 L 633.25 675.18 L 634.72 684.54 L 636.19 681.97 L 637.67 682.37 L 639.14 687.55 L 640.61 691.94 L 642.08 687.69 L 643.56 691.20 L 645.03 686.76 L 646.50 695.21 L 647.97 684.14 L 649.44 690.08 L 650.92 689.30 L 652.39 664.72 L 653.86 667.40 L 655.33 672.10 L 656.81 658.23 L 658.28 638.00 L 659.75 628.80 L 661.22 601.88 L 662.69 628.43 L 664.17 658.45 L 665.64 617.99 L 667.11 604.72 L 668.58 611.04 L 670.06 551.94 L 671.53 542.17 L 673.00 603.75 L 674.47 579.39 L 675.94 606.15 L 677.42 680.28 L 678.89 683.68 L 680.36 682.52 L 681.83 631.71 L 683.31 634.87 L 684.78 620.66 L 686.25 674.42 L 687.72 655.00 L 689.19 657.32 L 690.67 681.46 L 692.14 668.26 L 693.61 651.89 L 695.08 665.61 L 696.56 657.27 L 698.03 666.85 L 699.50 688.26 L 700.97 683.38 L 702.44 696.42 L 703.92 673.19 L 705.39 676.05 L 706.86 678.26 L 708.33 681.76 L 709.81 682.35 L 711.28 689.77 L 712.75 677.81 L 714.22 686.06 L 715.69 685.44 L 717.17 691.30 L 718.64 696.78 L 720.11 696.47 L 721.58 692.84 L 723.06 686.06 L 724.53 686.71 L 726.00 694.01 L 727.47 679.56 L 728.94 688.11 L 730.42 686.77 L 731.89 674.82 L 733.36 678.22" stroke="#FB8C00" />
<text x="90" y="711.25" font-size="14" font-weight="700">Giroscópio (magnitude) (u.a.)</text>
<rect class="event" x="443.33" y="717.25" width="25.03" height="192.75" />
<line class="eventline" x1="443.33" y1="717.25" x2="443.33" y2="910.00" />
<line class="eventline" x1="468.36" y1="717.25" x2="468.36" y2="910.00" />
<line class="grid" x1="90" y1="910.00" x2="1150" y2="910.00" />
<text class="small" x="80" y="914.00" text-anchor="end">0.00</text>
<line class="grid" x1="90" y1="871.45" x2="1150" y2="871.45" />
<text class="small" x="80" y="875.45" text-anchor="end">0.10</text>
<line class="grid" x1="90" y1="832.90" x2="1150" y2="832.90" />
<text class="small" x="80" y="836.90" text-anchor="end">0.20</text>
<line class="grid" x1="90" y1="794.35" x2="1150" y2="794.35" />
<text class="small" x="80" y="798.35" text-anchor="end">0.30</text>
<line class="grid" x1="90" y1="755.80" x2="1150" y2="755.80" />
<text class="small" x="80" y="759.80" text-anchor="end">0.40</text>
<line class="grid" x1="90" y1="717.25" x2="1150" y2="717.25" />
<text class="small" x="80" y="721.25" text-anchor="end">0.50</text>
<line class="grid" x1="90.00" y1="717.25" x2="90.00" y2="910.00" />
<line class="grid" x1="266.67" y1="717.25" x2="266.67" y2="910.00" />
<line class="grid" x1="443.33" y1="717.25" x2="443.33" y2="910.00" />
<line class="grid" x1="620.00" y1="717.25" x2="620.00" y2="910.00" />
<line class="grid" x1="796.67" y1="717.25" x2="796.67" y2="910.00" />
<line class="grid" x1="973.33" y1="717.25" x2="973.33" y2="910.00" />
<line class="grid" x1="1150.00" y1="717.25" x2="1150.00" y2="910.00" />
<line class="axis" x1="90" y1="717.25" x2="90" y2="910.00" />
<line class="axis" x1="90" y1="910.00" x2="1150" y2="910.00" />
<path class="series" d="M 178.33 905.47 L 179.81 906.70 L 181.28 902.64 L 182.75 902.98 L 184.22 902.99 L 185.69 902.95 L 187.17 901.48 L 188.64 902.25 L 190.11 902.09 L 191.58 901.69 L 193.06 900.28 L 194.53 899.27 L 196.00 898.65 L 197.47 896.95 L 198.94 898.68 L 200.42 904.59 L 201.89 900.38 L 203.36 902.70 L 204.83 908.41 L 206.31 898.03 L 207.78 903.19 L 209.25 889.93 L 210.72 890.13 L 212.19 890.39 L 213.67 900.09 L 215.14 901.22 L 216.61 898.15 L 218.08 901.22 L 219.56 898.04 L 221.03 896.25 L 222.50 900.41 L 223.97 901.07 L 225.44 902.96 L 226.92 897.90 L 228.39 902.81 L 229.86 891.28 L 231.33 901.13 L 232.81 904.20 L 234.28 897.30 L 235.75 886.97 L 237.22 886.97 L 238.69 869.05 L 240.17 867.63 L 241.64 862.25 L 243.11 865.76 L 244.58 845.08 L 246.06 868.60 L 247.53 867.61 L 249.00 872.72 L 250.47 874.20 L 251.94 873.83 L 253.42 883.50 L 254.89 883.38 L 256.36 881.69 L 257.83 879.85 L 259.31 881.51 L 260.78 883.41 L 262.25 892.27 L 263.72 904.09 L 265.19 899.73 L 266.67 899.50 L 268.14 896.82 L 269.61 900.29 L 271.08 906.36 L 272.56 899.95 L 274.03 903.86 L 275.50 901.75 L 276.97 893.97 L 278.44 899.24 L 279.92 898.19 L 281.39 898.91 L 282.86 897.56 L 284.33 879.77 L 285.81 881.59 L 287.28 884.20 L 288.75 885.58 L 290.22 897.18 L 291.69 900.42 L 293.17 898.37 L 294.64 889.84 L 296.11 873.45 L 297.58 874.30 L 299.06 871.69 L 300.53 866.01 L 302.00 842.85 L 303.47 830.36 L 304.94 854.42 L 306.42 888.10 L 307.89 904.01 L 309.36 907.00 L 310.83 909.09 L 312.31 908.93 L 313.78 906.73 L 315.25 900.24 L 316.72 888.31 L 318.19 871.56 L 319.67 870.33 L 321.14 869.60 L 322.61 873.48 L 324.08 872.30 L 325.56 872.53 L 327.03 872.37 L 328.50 872.47 L 329.97 883.24 L 331.44 884.72 L 332.92 900.52 L 334.39 907.25 L 335.86 892.78 L 337.33 877.07 L 338.81 892.10 L 340.28 902.20 L 341.75 907.81 L 343.22 906.92 L 344.69 906.54 L 346.17 907.28 L 347.64 907.65 L 349.11 907.74 L 350.58 905.29 L 352.06 908.44 L 353.53 908.33 L 355.00 908.49 L 356.47 908.40 L 357.94 907.63 L 359.42 908.90 L 360.89 908.71 L 362.36 907.89 L 363.83 907.09 L 365.31 906.62 L 366.78 907.34 L 368.25 908.53 L 369.72 906.58 L 371.19 908.91 L 372.67 908.59 L 374.14 908.75 L 375.61 908.45 L 377.08 908.73 L 378.56 908.99 L 380.03 908.73 L 381.50 908.64 L 382.97 908.76 L 384.44 908.82 L 385.92 908.64 L 387.39 908.76 L 388.86 908.82 L 390.33 908.91 L 391.81 908.50 L 393.28 908.49 L 394.75 909.01 L 396.22 908.64 L 397.69 908.65 L 399.17 908.79 L 400.64 908.45 L 402.11 908.71 L 403.58 908.87 L 405.06 908.62 L 406.53 908.82 L 408.00 908.82 L 409.47 908.69 L 410.94 908.96 L 412.42 908.47 L 413.89 908.74 L 415.36 908.71 L 416.83 908.38 L 418.31 908.87 L 419.78 908.65 L 421.25 908.71 L 422.72 908.62 L 424.19 908.58 L 425.67 908.36 L 427.14 901.88 L 428.61 907.90 L 430.08 904.97 L 431.56 901.67 L 433.03 906.21 L 434.50 906.97 L 435.97 908.69 L 437.44 907.24 L 438.92 905.29 L 440.39 905.79 L 441.86 908.07 L 443.33 908.34 L 444.81 908.83 L 446.28 908.11 L 447.75 908.87 L 449.22 908.87 L 450.69 908.63 L 452.17 908.92 L 453.64 908.92 L 455.11 908.82 L 456.58 908.83 L 458.06 908.89 L 459.53 908.87 L 461.00 908.86 L 462.47 908.90 L 463.94 908.77 L 465.42 908.79 L 466.89 908.95 L 468.36 907.54 L 469.83 890.46 L 471.31 880.16 L 472.78 872.43 L 474.25 860.38 L 475.72 848.96 L 477.19 843.19 L 478.67 834.40 L 480.14 824.61 L 481.61 849.42 L 483.08 878.84 L 484.56 862.45 L 486.03 856.81 L 487.50 849.99 L 488.97 853.79 L 490.44 863.48 L 491.92 872.60 L 493.39 865.63 L 494.86 884.09 L 496.33 899.92 L 497.81 904.71 L 499.28 893.55 L 500.75 878.67 L 502.22 876.90 L 503.69 868.55 L 505.17 857.33 L 506.64 854.24 L 508.11 860.21 L 509.58 863.92 L 511.06 857.60 L 512.53 852.05 L 514.00 854.82 L 515.47 853.45 L 516.94 868.34 L 518.42 903.63 L 519.89 896.62 L 521.36 902.51 L 522.83 898.11 L 524.31 895.68 L 525.78 891.18 L 527.25 879.48 L 528.72 887.33 L 530.19 884.03 L 531.67 884.01 L 533.14 885.03 L 534.61 883.15 L 536.08 890.35 L 537.56 886.06 L 539.03 880.20 L 540.50 888.75 L 541.97 891.44 L 543.44 894.30 L 544.92 886.95 L 546.39 902.25 L 547.86 895.34 L 549.33 887.22 L 550.81 888.92 L 552.28 888.85 L 553.75 893.94 L 555.22 896.30 L 556.69 895.30 L 558.17 896.53 L 559.64 898.14 L 561.11 893.28 L 562.58 895.20 L 564.06 899.26 L 565.53 893.80 L 567.00 892.80 L 568.47 899.19 L 569.94 908.39 L 571.42 903.75 L 572.89 904.98 L 574.36 901.73 L 575.83 905.97 L 577.31 902.92 L 578.78 906.04 L 580.25 906.58 L 581.72 906.58 L 583.19 902.91 L 584.67 899.66 L 586.14 892.37 L 587.61 896.34 L 589.08 897.49 L 590.56 907.18 L 592.03 902.82 L 593.50 898.87 L 594.97 897.64 L 596.44 901.21 L 597.92 898.58 L 599.39 900.58 L 600.86 907.82 L 602.33 907.81 L 603.81 906.37 L 605.28 901.88 L 606.75 898.71 L 608.22 899.07 L 609.69 904.00 L 611.17 897.28 L 612.64 907.76 L 614.11 906.28 L 615.58 904.46 L 617.06 903.57 L 618.53 906.52 L 620.00 900.93 L 621.47 901.27 L 622.94 901.21 L 624.42 900.66 L 625.89 897.44 L 627.36 898.20 L 628.83 902.76 L 630.31 906.84 L 631.78 908.15 L 633.25 896.40 L 634.72 897.97 L 636.19 897.83 L 637.67 897.98 L 639.14 898.40 L 640.61 900.40 L 642.08 908.70 L 643.56 907.12 L 645.03 904.07 L 646.50 906.10 L 647.97 905.57 L 649.44 903.18 L 650.92 904.33 L 652.39 905.98 L 653.86 904.25 L 655.33 895.46 L 656.81 887.67 L 658.28 881.54 L 659.75 865.16 L 661.22 847.12 L 662.69 839.52 L 664.17 828.24 L 665.64 813.12 L 667.11 816.76 L 668.58 838.49 L 670.06 877.69 L 671.53 876.89 L 673.00 849.31 L 674.47 828.56 L 675.94 796.80 L 677.42 806.20 L 678.89 858.36 L 680.36 870.78 L 681.83 899.57 L 683.31 891.39 L 684.78 854.94 L 686.25 864.37 L 687.72 870.02 L 689.19 863.21 L 690.67 864.30 L 692.14 896.21 L 693.61 894.61 L 695.08 904.16 L 696.56 899.26 L 698.03 904.66 L 699.50 898.30 L 700.97 898.87 L 702.44 895.31 L 703.92 905.13 L 705.39 909.09 L 706.86 902.29 L 708.33 904.61 L 709.81 905.85 L 711.28 900.64 L 712.75 902.79 L 714.22 903.16 L 715.69 905.98 L 717.17 907.85 L 718.64 905.42 L 720.11 906.12 L 721.58 903.88 L 723.06 903.55 L 724.53 904.72 L 726.00 907.21 L 727.47 903.44 L 728.94 905.44 L 730.42 904.21 L 731.89 902.46 L 733.36 907.41" stroke="#E53935" />
<text x="620.00" y="952" font-size="15" text-anchor="middle">minutos (relativo ao início do evento)</text>
<text class="small" x="90.00" y="936" text-anchor="middle">-4.00</text>
<text class="small" x="266.67" y="936" text-anchor="middle">-2.00</text>
<text class="small" x="443.33" y="936" text-anchor="middle">0.00</text>
<text class="small" x="620.00" y="936" text-anchor="middle">2.00</text>
<text class="small" x="796.67" y="936" text-anchor="middle">4.00</text>
<text class="small" x="973.33" y="936" text-anchor="middle">6.00</text>
<text class="small" x="1150.00" y="936" text-anchor="middle">8.00</text>
</svg>