<?xml version="1.0" encoding="UTF-8"?>
<svg xmlns="http://www.w3.org/2000/svg" width="1180" height="980" viewBox="0 0 1180 980">
<style>
text { font-family: -apple-system, BlinkMacSystemFont, 'Segoe UI', Roboto, Helvetica, Arial, sans-serif; fill: #111; }
.small { font-size: 12px; fill: #222; }
.title { font-size: 18px; font-weight: 700; }
.axis { stroke: #111; stroke-width: 1.4; }
.grid { stroke: #E6E6E6; stroke-width: 1; }
.event { fill: #FFEB3B; fill-opacity: 0.18; }
.eventline { stroke: #F9A825; stroke-width: 1.2; stroke-dasharray: 4 3; }
.series { fill: none; stroke-width: 1.8; }
</style>
<text class="title" x="90" y="34">ciclo 16 — espera_carregamento — 2025-12-13T03:16:50-03:00 → 2025-12-13T03:17:48-03:00 (span 58s, dur 59s)</text>
<text class="small" x="90" y="54">GPS: -11.699004,-47.157393  hotspot: -11.699,-47.157</text>
<text class="small" x="90" y="70">Janela: -3.00 → 3.97 min (relativo ao início do evento)</text>
<text x="90" y="79.00" font-size="14" font-weight="700">Velocidade (km/h)</text>
<rect class="event" x="443.33" y="85.00" width="85.39" height="192.75" />
<line class="eventline" x1="443.33" y1="85.00" x2="443.33" y2="277.75" />
<line class="eventline" x1="528.72" y1="85.00" x2="528.72" y2="277.75" />
<line class="grid" x1="90" y1="277.75" x2="1150" y2="277.75" />
<text class="small" x="80" y="281.75" text-anchor="end">0.00</text>
<line class="grid" x1="90" y1="239.20" x2="1150" y2="239.20" />
<text class="small" x="80" y="243.20" text-anchor="end">10.0</text>
<line class="grid" x1="90" y1="200.65" x2="1150" y2="200.65" />
<text class="small" x="80" y="204.65" text-anchor="end">20.0</text>
<line class="grid" x1="90" y1="162.10" x2="1150" y2="162.10" />
<text class="small" x="80" y="166.10" text-anchor="end">30.0</text>
<line class="grid" x1="90" y1="123.55" x2="1150" y2="123.55" />
<text class="small" x="80" y="127.55" text-anchor="end">40.0</text>
<line class="grid" x1="90" y1="85.00" x2="1150" y2="85.00" />
<text class="small" x="80" y="89.00" text-anchor="end">50.0</text>
<line class="grid" x1="90.00" y1="85.00" x2="90.00" y2="277.75" />
<line class="grid" x1="266.67" y1="85.00" x2="266.67" y2="277.75" />
<line class="grid" x1="443.33" y1="85.00" x2="443.33" y2="277.75" />
<line class="grid" x1="620.00" y1="85.00" x2="620.00" y2="277.75" />
<line class="grid" x1="796.67" y1="85.00" x2="796.67" y2="277.75" />
<line class="grid" x1="973.33" y1="85.00" x2="973.33" y2="277.75" />
<line class="grid" x1="1150.00" y1="85.00" x2="1150.00" y2="277.75" />
<line class="axis" x1="90" y1="85.00" x2="90" y2="277.75" />
<line class="axis" x1="90" y1="277.75" x2="1150" y2="277.75" />
<path class="series" d="M 178.33 159.37 L 179.81 161.04 L 181.28 164.51 L 182.75 167.70 L 184.22 171.03 L 185.69 173.25 L 187.17 175.89 L 188.64 174.08 L 190.11 173.39 L 191.58 167.98 L 193.06 162.84 L 194.53 163.95 L 196.00 163.26 L 197.47 160.48 L 198.94 158.82 L 200.42 160.76 L 201.89 163.12 L 203.36 166.17 L 204.83 167.00 L 206.31 175.89 L 207.78 177.55 L 209.25 183.10 L 210.72 187.96 L 212.19 191.57 L 213.67 206.56 L 215.14 213.49 L 216.61 220.30 L 218.08 221.54 L 219.56 217.52 L 221.03 217.94 L 222.50 213.36 L 223.97 207.80 L 225.44 204.89 L 226.92 209.33 L 228.39 206.00 L 229.86 206.69 L 231.33 200.17 L 232.81 193.51 L 234.28 193.51 L 235.75 198.23 L 237.22 200.73 L 238.69 195.87 L 240.17 186.02 L 241.64 176.72 L 243.11 173.11 L 244.58 178.52 L 246.06 179.77 L 247.53 187.96 L 249.00 195.73 L 250.47 197.26 L 251.94 198.78 L 253.42 196.98 L 254.89 204.06 L 256.36 207.67 L 257.83 203.92 L 259.31 198.23 L 260.78 192.96 L 262.25 191.15 L 263.72 191.01 L 265.19 191.71 L 266.67 195.87 L 268.14 193.65 L 269.61 192.96 L 271.08 192.54 L 272.56 195.04 L 274.03 191.01 L 275.50 186.71 L 276.97 182.41 L 278.44 180.74 L 279.92 185.74 L 281.39 190.73 L 282.86 195.18 L 284.33 195.04 L 285.81 198.92 L 287.28 202.95 L 288.75 205.58 L 290.22 209.89 L 291.69 212.25 L 293.17 218.77 L 294.64 223.63 L 296.11 231.54 L 297.58 239.45 L 299.06 248.74 L 300.53 260.82 L 302.00 264.15 L 303.47 269.15 L 304.94 270.26 L 306.42 270.67 L 307.89 271.92 L 309.36 270.81 L 310.83 270.95 L 312.31 270.53 L 313.78 270.26 L 315.25 271.64 L 316.72 272.75 L 318.19 270.53 L 319.67 272.06 L 321.14 272.62 L 322.61 270.95 L 324.08 271.92 L 325.56 272.20 L 327.03 271.09 L 328.50 270.81 L 329.97 270.81 L 331.44 270.95 L 332.92 271.23 L 334.39 271.37 L 335.86 271.37 L 337.33 271.23 L 338.81 270.81 L 340.28 270.53 L 341.75 270.95 L 343.22 270.95 L 344.69 270.39 L 346.17 271.37 L 347.64 270.95 L 349.11 270.53 L 350.58 270.53 L 352.06 269.42 L 353.53 269.84 L 355.00 269.15 L 356.47 269.42 L 357.94 269.56 L 359.42 270.39 L 360.89 269.84 L 362.36 269.15 L 363.83 268.87 L 365.31 269.42 L 366.78 269.84 L 368.25 269.56 L 369.72 268.45 L 371.19 267.06 L 372.67 267.20 L 374.14 267.76 L 375.61 268.17 L 377.08 269.01 L 378.56 267.06 L 380.03 267.06 L 381.50 267.76 L 382.97 265.54 L 384.44 265.40 L 385.92 265.40 L 387.39 265.54 L 388.86 265.26 L 390.33 266.37 L 391.81 266.93 L 393.28 265.40 L 394.75 264.29 L 396.22 266.37 L 397.69 265.26 L 399.17 265.68 L 400.64 265.68 L 402.11 265.40 L 403.58 263.04 L 405.06 264.43 L 406.53 264.01 L 408.00 264.84 L 409.47 264.15 L 410.94 260.68 L 412.42 265.95 L 413.89 264.15 L 415.36 261.79 L 416.83 251.66 L 418.31 247.63 L 419.78 247.77 L 421.25 248.88 L 422.72 252.35 L 424.19 253.74 L 425.67 257.90 L 427.14 256.38 L 428.61 254.85 L 430.08 254.02 L 431.56 254.57 L 433.03 255.68 L 434.50 252.21 L 435.97 253.74 L 437.44 253.19 L 438.92 256.93 L 440.39 260.40 L 441.86 266.37 L 443.33 277.75 L 444.81 277.75 L 446.28 277.75 L 447.75 277.75 L 449.22 277.75 L 450.69 277.75 L 452.17 277.75 L 453.64 277.75 L 455.11 277.75 L 456.58 277.75 L 458.06 277.75 L 459.53 277.75 L 461.00 277.75 L 462.47 277.75 L 463.94 277.75 L 465.42 277.75 L 466.89 277.75 L 468.36 277.75 L 469.83 277.75 L 471.31 277.75 L 472.78 277.75 L 474.25 277.75 L 475.72 277.75 L 477.19 277.75 L 478.67 277.75 L 480.14 277.75 L 481.61 277.75 L 483.08 277.75 L 484.56 277.75 L 486.03 277.75 L 487.50 277.75 L 488.97 277.75 L 490.44 277.75 L 491.92 277.75 L 493.39 277.75 L 494.86 277.75 L 496.33 277.75 L 497.81 277.75 L 499.28 277.75 L 500.75 277.75 L 502.22 277.75 L 503.69 277.75 L 505.17 277.75 L 506.64 277.75 L 508.11 277.75 L 509.58 277.75 L 511.06 277.75 L 512.53 277.75 L 514.00 277.75 L 515.47 277.75 L 516.94 277.75 L 518.42 277.75 L 519.89 277.75 L 521.36 277.75 L 522.83 277.75 L 524.31 277.75 L 525.78 277.75 L 527.25 277.75 L 528.72 277.75 L 530.19 268.59 L 531.67 270.67 L 533.14 277.75 L 534.61 277.75 L 536.08 277.75 L 537.56 277.75 L 539.03 277.75 L 540.50 277.75 L 541.97 277.75 L 543.44 277.75 L 544.92 277.75 L 546.39 277.75 L 547.86 277.75 L 549.33 277.75 L 550.81 277.75 L 552.28 277.75 L 553.75 277.75 L 555.22 277.75 L 556.69 277.75 L 558.17 277.75 L 559.64 277.75 L 561.11 277.75 L 562.58 277.75 L 564.06 277.75 L 565.53 277.75 L 567.00 277.75 L 568.47 277.75 L 569.94 277.75 L 571.42 277.75 L 572.89 277.75 L 574.36 277.75 L 575.83 277.75 L 577.31 277.75 L 578.78 271.23 L 580.25 267.90 L 581.72 277.75 L 583.19 277.75 L 584.67 277.75 L 586.14 277.75 L 587.61 266.93 L 589.08 270.26 L 590.56 277.75 L 592.03 277.75 L 593.50 277.75 L 594.97 277.75 L 596.44 277.75 L 597.92 277.75 L 599.39 277.75 L 600.86 277.75 L 602.33 277.75 L 603.81 277.75 L 605.28 277.75 L 606.75 277.75 L 608.22 277.75 L 609.69 277.75 L 611.17 277.75 L 612.64 277.75 L 614.11 277.75 L 615.58 277.75 L 617.06 277.75 L 618.53 277.75 L 620.00 277.75 L 621.47 277.75 L 622.94 277.75 L 624.42 277.75 L 625.89 277.75 L 627.36 277.75 L 628.83 277.75 L 630.31 277.75 L 631.78 277.75 L 633.25 277.75 L 634.72 277.75 L 636.19 277.75 L 637.67 277.75 L 639.14 277.75 L 640.61 277.75 L 642.08 277.75 L 643.56 277.75 L 645.03 277.75 L 646.50 277.75 L 647.97 277.75 L 649.44 277.75 L 650.92 277.75 L 652.39 277.75 L 653.86 277.75 L 655.33 277.75 L 656.81 277.75 L 658.28 277.75 L 659.75 277.75 L 661.22 277.75 L 662.69 277.75 L 664.17 277.75 L 665.64 277.75 L 667.11 277.75 L 668.58 277.75 L 670.06 277.75 L 671.53 277.75 L 673.00 277.75 L 674.47 277.75 L 675.94 277.75 L 677.42 277.75 L 678.89 277.75 L 680.36 277.75 L 681.83 277.75 L 683.31 277.75 L 684.78 277.75 L 686.25 277.75 L 687.72 277.75 L 689.19 277.75 L 690.67 277.75 L 692.14 277.75 L 693.61 277.75 L 695.08 277.75 L 696.56 277.75 L 698.03 277.75 L 699.50 277.75 L 700.97 277.75 L 702.44 277.75 L 703.92 277.75 L 705.39 277.75 L 706.86 277.75 L 708.33 277.75 L 709.81 277.75 L 711.28 277.75 L 712.75 277.75 L 714.22 277.75 L 715.69 277.75 L 717.17 277.75 L 718.64 277.75 L 720.11 277.75 L 721.58 277.75 L 723.06 277.75 L 724.53 277.75 L 726.00 277.75 L 727.47 277.75 L 728.94 277.75 L 730.42 277.75 L 731.89 277.75 L 733.36 277.75 L 734.83 277.75 L 736.31 277.75 L 737.78 277.75 L 739.25 277.75 L 740.72 277.75 L 742.19 277.75 L 743.67 277.75 L 745.14 277.75 L 746.61 277.75 L 748.08 277.75 L 749.56 277.75 L 751.03 277.75 L 752.50 277.75 L 753.97 277.75 L 755.44 277.75 L 756.92 277.75 L 758.39 277.75 L 759.86 277.75 L 761.33 277.75 L 762.81 277.75 L 764.28 277.75 L 765.75 277.75 L 767.22 277.75 L 768.69 277.75 L 770.17 277.75 L 771.64 277.75 L 773.11 277.75 L 774.58 277.75 L 776.06 277.75 L 777.53 277.75 L 779.00 277.75 L 780.47 277.75 L 781.94 277.75 L 783.42 277.75 L 784.89 277.75 L 786.36 277.75 L 787.83 277.75 L 789.31 277.75 L 790.78 277.75 L 792.25 277.75 L 793.72 277.75" stroke="#1976D2" />
<text x="90" y="289.75" font-size="14" font-weight="700">Inclinação (graus)</text>
<rect class="event" x="443.33" y="295.75" width="85.39" height="192.75" />
<line class="eventline" x1="443.33" y1="295.75" x2="443.33" y2="488.50" />
<line class="eventline" x1="528.72" y1="295.75" x2="528.72" y2="488.50" />
<line class="grid" x1="90" y1="488.50" x2="1150" y2="488.50" />
<text class="small" x="80" y="492.50" text-anchor="end">-20.0</text>
<line class="grid" x1="90" y1="449.95" x2="1150" y2="449.95" />
<text class="small" x="80" y="453.95" text-anchor="end">-10.0</text>
<line class="grid" x1="90" y1="411.40" x2="1150" y2="411.40" />
<text class="small" x="80" y="415.40" text-anchor="end">0.00</text>
<line class="grid" x1="90" y1="372.85" x2="1150" y2="372.85" />
<text class="small" x="80" y="376.85" text-anchor="end">10.0</text>
<line class="grid" x1="90" y1="334.30" x2="1150" y2="334.30" />
<text class="small" x="80" y="338.30" text-anchor="end">20.0</text>
<line class="grid" x1="90" y1="295.75" x2="1150" y2="295.75" />
<text class="small" x="80" y="299.75" text-anchor="end">30.0</text>
<line class="grid" x1="90.00" y1="295.75" x2="90.00" y2="488.50" />
<line class="grid" x1="266.67" y1="295.75" x2="266.67" y2="488.50" />
<line class="grid" x1="443.33" y1="295.75" x2="443.33" y2="488.50" />
<line class="grid" x1="620.00" y1="295.75" x2="620.00" y2="488.50" />
<line class="grid" x1="796.67" y1="295.75" x2="796.67" y2="488.50" />
<line class="grid" x1="973.33" y1="295.75" x2="973.33" y2="488.50" />
<line class="grid" x1="1150.00" y1="295.75" x2="1150.00" y2="488.50" />
<line class="axis" x1="90" y1="295.75" x2="90" y2="488.50" />
<line class="axis" x1="90" y1="488.50" x2="1150" y2="488.50" />
<path class="series" d="M 178.33 360.80 L 179.81 355.83 L 181.28 356.43 L 182.75 359.21 L 184.22 358.63 L 185.69 359.72 L 187.17 356.04 L 188.64 357.08 L 190.11 349.02 L 191.58 342.35 L 193.06 346.25 L 194.53 344.66 L 196.00 343.03 L 197.47 337.26 L 198.94 336.94 L 200.42 334.63 L 201.89 336.16 L 203.36 338.04 L 204.83 337.91 L 206.31 339.61 L 207.78 339.20 L 209.25 339.20 L 210.72 340.42 L 212.19 335.45 L 213.67 329.28 L 215.14 336.31 L 216.61 338.10 L 218.08 350.96 L 219.56 354.61 L 221.03 343.47 L 222.50 363.12 L 223.97 365.30 L 225.44 362.85 L 226.92 354.19 L 228.39 368.57 L 229.86 361.92 L 231.33 357.90 L 232.81 376.69 L 234.28 372.42 L 235.75 362.85 L 237.22 355.09 L 238.69 348.20 L 240.17 346.51 L 241.64 346.95 L 243.11 366.47 L 244.58 352.56 L 246.06 354.66 L 247.53 362.93 L 249.00 355.50 L 250.47 371.22 L 251.94 366.99 L 253.42 376.70 L 254.89 363.17 L 256.36 365.84 L 257.83 371.30 L 259.31 371.60 L 260.78 363.54 L 262.25 367.44 L 263.72 368.98 L 265.19 377.35 L 266.67 373.83 L 268.14 365.53 L 269.61 372.05 L 271.08 370.80 L 272.56 368.13 L 274.03 374.79 L 275.50 367.92 L 276.97 364.44 L 278.44 360.16 L 279.92 356.77 L 281.39 359.52 L 282.86 357.35 L 284.33 358.03 L 285.81 353.53 L 287.28 356.67 L 288.75 356.25 L 290.22 351.87 L 291.69 349.82 L 293.17 363.25 L 294.64 353.78 L 296.11 353.77 L 297.58 344.17 L 299.06 358.32 L 300.53 351.58 L 302.00 364.89 L 303.47 365.59 L 304.94 376.07 L 306.42 373.22 L 307.89 378.49 L 309.36 378.72 L 310.83 376.56 L 312.31 379.95 L 313.78 375.79 L 315.25 375.61 L 316.72 379.05 L 318.19 379.04 L 319.67 375.66 L 321.14 379.31 L 322.61 376.60 L 324.08 373.56 L 325.56 376.70 L 327.03 376.67 L 328.50 376.51 L 329.97 376.36 L 331.44 376.76 L 332.92 379.86 L 334.39 378.95 L 335.86 378.72 L 337.33 381.30 L 338.81 381.65 L 340.28 381.43 L 341.75 381.34 L 343.22 382.36 L 344.69 379.96 L 346.17 385.28 L 347.64 380.30 L 349.11 381.02 L 350.58 382.11 L 352.06 380.52 L 353.53 380.32 L 355.00 378.31 L 356.47 380.26 L 357.94 377.16 L 359.42 377.16 L 360.89 378.43 L 362.36 375.95 L 363.83 377.24 L 365.31 377.61 L 366.78 378.15 L 368.25 376.25 L 369.72 376.48 L 371.19 378.73 L 372.67 374.67 L 374.14 373.58 L 375.61 372.83 L 377.08 369.82 L 378.56 367.97 L 380.03 367.12 L 381.50 369.31 L 382.97 368.35 L 384.44 366.58 L 385.92 367.45 L 387.39 367.45 L 388.86 369.47 L 390.33 365.98 L 391.81 368.02 L 393.28 367.90 L 394.75 364.90 L 396.22 366.68 L 397.69 366.60 L 399.17 366.95 L 400.64 365.67 L 402.11 371.21 L 403.58 367.01 L 405.06 366.63 L 406.53 367.42 L 408.00 370.27 L 409.47 371.04 L 410.94 366.90 L 412.42 374.93 L 413.89 383.09 L 415.36 398.39 L 416.83 392.61 L 418.31 382.37 L 419.78 369.98 L 421.25 368.51 L 422.72 362.96 L 424.19 357.26 L 425.67 363.38 L 427.14 359.74 L 428.61 358.63 L 430.08 360.27 L 431.56 360.07 L 433.03 349.13 L 434.50 359.99 L 435.97 366.35 L 437.44 350.15 L 438.92 350.78 L 440.39 348.92 L 441.86 349.96 L 443.33 357.91 L 444.81 362.54 L 446.28 364.05 L 447.75 364.57 L 449.22 366.97 L 450.69 366.99 L 452.17 367.09 L 453.64 367.03 L 455.11 367.06 L 456.58 367.12 L 458.06 367.02 L 459.53 367.12 L 461.00 367.03 L 462.47 367.10 L 463.94 366.92 L 465.42 367.14 L 466.89 367.15 L 468.36 367.10 L 469.83 367.02 L 471.31 367.01 L 472.78 367.05 L 474.25 367.02 L 475.72 367.11 L 477.19 367.04 L 478.67 367.03 L 480.14 367.08 L 481.61 367.01 L 483.08 367.60 L 484.56 366.83 L 486.03 367.35 L 487.50 367.26 L 488.97 367.31 L 490.44 367.29 L 491.92 367.30 L 493.39 367.28 L 494.86 367.30 L 496.33 367.29 L 497.81 367.29 L 499.28 367.28 L 500.75 367.31 L 502.22 367.31 L 503.69 367.23 L 505.17 359.83 L 506.64 363.27 L 508.11 365.12 L 509.58 359.30 L 511.06 356.91 L 512.53 355.65 L 514.00 356.07 L 515.47 358.12 L 516.94 355.82 L 518.42 354.18 L 519.89 352.72 L 521.36 360.57 L 522.83 357.25 L 524.31 355.91 L 525.78 358.02 L 527.25 362.92 L 528.72 359.73 L 530.19 358.39 L 531.67 359.54 L 533.14 366.96 L 534.61 357.57 L 536.08 359.15 L 537.56 356.30 L 539.03 357.71 L 540.50 357.52 L 541.97 363.54 L 543.44 362.08 L 544.92 358.09 L 546.39 358.33 L 547.86 358.26 L 549.33 358.32 L 550.81 358.33 L 552.28 358.33 L 553.75 358.15 L 555.22 348.89 L 556.69 350.89 L 558.17 361.11 L 559.64 362.12 L 561.11 361.56 L 562.58 359.20 L 564.06 354.35 L 565.53 359.24 L 567.00 357.52 L 568.47 364.28 L 569.94 362.72 L 571.42 357.14 L 572.89 370.83 L 574.36 362.72 L 575.83 363.82 L 577.31 371.34 L 578.78 369.05 L 580.25 371.70 L 581.72 370.39 L 583.19 370.17 L 584.67 368.19 L 586.14 369.02 L 587.61 368.27 L 589.08 366.25 L 590.56 367.56 L 592.03 368.02 L 593.50 363.48 L 594.97 362.53 L 596.44 364.81 L 597.92 365.94 L 599.39 362.09 L 600.86 366.31 L 602.33 360.47 L 603.81 364.50 L 605.28 364.38 L 606.75 361.97 L 608.22 362.56 L 609.69 359.96 L 611.17 361.89 L 612.64 361.03 L 614.11 361.16 L 615.58 361.31 L 617.06 361.02 L 618.53 361.17 L 620.00 361.07 L 621.47 361.07 L 622.94 361.07 L 624.42 361.08 L 625.89 361.13 L 627.36 361.07 L 628.83 361.07 L 630.31 361.02 L 631.78 361.03 L 633.25 361.08 L 634.72 361.02 L 636.19 361.01 L 637.67 361.07 L 639.14 361.34 L 640.61 360.38 L 642.08 360.27 L 643.56 360.26 L 645.03 360.36 L 646.50 360.26 L 647.97 360.26 L 649.44 360.24 L 650.92 360.29 L 652.39 360.22 L 653.86 360.20 L 655.33 360.20 L 656.81 360.16 L 658.28 360.14 L 659.75 360.16 L 661.22 360.14 L 662.69 360.12 L 664.17 360.12 L 665.64 360.10 L 667.11 360.12 L 668.58 360.27 L 670.06 359.96 L 671.53 359.75 L 673.00 359.35 L 674.47 359.84 L 675.94 359.52 L 677.42 359.76 L 678.89 359.62 L 680.36 359.64 L 681.83 359.66 L 683.31 359.64 L 684.78 359.64 L 686.25 359.68 L 687.72 359.65 L 689.19 359.61 L 690.67 359.67 L 692.14 359.67 L 693.61 359.66 L 695.08 359.60 L 696.56 359.65 L 698.03 359.62 L 699.50 359.56 L 700.97 359.79 L 702.44 359.55 L 703.92 359.52 L 705.39 359.20 L 706.86 359.37 L 708.33 359.44 L 709.81 359.34 L 711.28 359.43 L 712.75 359.29 L 714.22 359.38 L 715.69 359.30 L 717.17 359.36 L 718.64 359.32 L 720.11 359.33 L 721.58 359.33 L 723.06 359.32 L 724.53 359.31 L 726.00 359.30 L 727.47 359.28 L 728.94 359.31 L 730.42 359.27 L 731.89 359.36 L 733.36 361.28 L 734.83 357.88 L 736.31 359.34 L 737.78 359.75 L 739.25 360.00 L 740.72 359.63 L 742.19 359.72 L 743.67 359.69 L 745.14 359.60 L 746.61 359.75 L 748.08 359.77 L 749.56 359.64 L 751.03 359.74 L 752.50 359.72 L 753.97 359.68 L 755.44 359.72 L 756.92 359.70 L 758.39 359.73 L 759.86 359.76 L 761.33 359.79 L 762.81 359.79 L 764.28 359.73 L 765.75 359.91 L 767.22 361.09 L 768.69 360.28 L 770.17 360.62 L 771.64 360.54 L 773.11 360.58 L 774.58 360.48 L 776.06 360.59 L 777.53 360.53 L 779.00 360.56 L 780.47 360.54 L 781.94 360.51 L 783.42 360.58 L 784.89 360.49 L 786.36 360.55 L 787.83 360.53 L 789.31 360.55 L 790.78 360.60 L 792.25 360.59 L 793.72 360.58" stroke="#2E7D32" />
<path class="series" d="M 178.33 381.60 L 179.81 369.06 L 181.28 387.44 L 182.75 387.73 L 184.22 389.88 L 185.69 389.70 L 187.17 389.83 L 188.64 392.42 L 190.11 403.78 L 191.58 401.79 L 193.06 398.39 L 194.53 397.79 L 196.00 400.81 L 197.47 391.66 L 198.94 394.20 L 200.42 398.96 L 201.89 401.09 L 203.36 388.23 L 204.83 397.69 L 206.31 401.52 L 207.78 408.18 L 209.25 408.18 L 210.72 400.45 L 212.19 402.72 L 213.67 399.48 L 215.14 403.30 L 216.61 401.45 L 218.08 402.40 L 219.56 399.53 L 221.03 398.17 L 222.50 400.66 L 223.97 393.20 L 225.44 388.02 L 226.92 380.12 L 228.39 374.60 L 229.86 377.23 L 231.33 377.18 L 232.81 376.11 L 234.28 385.79 L 235.75 395.22 L 237.22 387.66 L 238.69 396.95 L 240.17 387.75 L 241.64 390.58 L 243.11 415.10 L 244.58 413.81 L 246.06 432.85 L 247.53 417.60 L 249.00 397.50 L 250.47 391.65 L 251.94 397.20 L 253.42 386.34 L 254.89 414.81 L 256.36 413.17 L 257.83 408.74 L 259.31 408.40 L 260.78 409.19 L 262.25 413.54 L 263.72 413.53 L 265.19 406.80 L 266.67 406.41 L 268.14 412.29 L 269.61 408.65 L 271.08 405.29 L 272.56 408.91 L 274.03 406.25 L 275.50 408.84 L 276.97 401.65 L 278.44 395.66 L 279.92 397.54 L 281.39 395.56 L 282.86 402.98 L 284.33 402.22 L 285.81 413.19 L 287.28 397.33 L 288.75 414.52 L 290.22 412.65 L 291.69 390.35 L 293.17 397.40 L 294.64 398.38 L 296.11 410.44 L 297.58 407.60 L 299.06 409.30 L 300.53 399.41 L 302.00 403.77 L 303.47 404.64 L 304.94 405.75 L 306.42 405.92 L 307.89 406.34 L 309.36 405.71 L 310.83 410.70 L 312.31 409.76 L 313.78 407.49 L 315.25 408.88 L 316.72 412.93 L 318.19 410.26 L 319.67 408.52 L 321.14 408.06 L 322.61 410.05 L 324.08 409.83 L 325.56 408.70 L 327.03 409.71 L 328.50 410.25 L 329.97 411.13 L 331.44 413.12 L 332.92 414.51 L 334.39 411.94 L 335.86 412.97 L 337.33 414.92 L 338.81 413.53 L 340.28 412.11 L 341.75 411.75 L 343.22 410.82 L 344.69 413.06 L 346.17 410.22 L 347.64 412.42 L 349.11 412.54 L 350.58 410.98 L 352.06 409.97 L 353.53 410.52 L 355.00 412.31 L 356.47 409.95 L 357.94 413.36 L 359.42 414.74 L 360.89 409.14 L 362.36 416.47 L 363.83 412.92 L 365.31 413.91 L 366.78 410.96 L 368.25 410.65 L 369.72 410.71 L 371.19 411.48 L 372.67 412.86 L 374.14 412.92 L 375.61 412.73 L 377.08 409.72 L 378.56 412.10 L 380.03 409.62 L 381.50 409.14 L 382.97 411.07 L 384.44 412.43 L 385.92 411.26 L 387.39 412.07 L 388.86 414.46 L 390.33 412.05 L 391.81 415.18 L 393.28 411.02 L 394.75 410.71 L 396.22 412.82 L 397.69 413.14 L 399.17 413.16 L 400.64 412.68 L 402.11 410.68 L 403.58 414.06 L 405.06 411.06 L 406.53 412.96 L 408.00 410.24 L 409.47 415.74 L 410.94 412.23 L 412.42 417.39 L 413.89 411.09 L 415.36 406.72 L 416.83 421.76 L 418.31 402.75 L 419.78 405.89 L 421.25 408.15 L 422.72 402.25 L 424.19 410.84 L 425.67 411.44 L 427.14 410.81 L 428.61 406.74 L 430.08 412.07 L 431.56 412.71 L 433.03 408.97 L 434.50 400.17 L 435.97 412.76 L 437.44 422.90 L 438.92 395.60 L 440.39 394.64 L 441.86 402.44 L 443.33 401.82 L 444.81 398.89 L 446.28 399.22 L 447.75 400.81 L 449.22 402.24 L 450.69 401.69 L 452.17 401.66 L 453.64 401.87 L 455.11 401.67 L 456.58 401.72 L 458.06 401.77 L 459.53 401.71 L 461.00 401.72 L 462.47 401.69 L 463.94 401.57 L 465.42 401.84 L 466.89 401.77 L 468.36 401.62 L 469.83 401.71 L 471.31 401.66 L 472.78 401.64 L 474.25 401.72 L 475.72 401.62 L 477.19 401.66 L 478.67 401.66 L 480.14 401.68 L 481.61 401.57 L 483.08 401.86 L 484.56 401.08 L 486.03 401.71 L 487.50 401.65 L 488.97 401.48 L 490.44 401.67 L 491.92 401.56 L 493.39 401.50 L 494.86 401.56 L 496.33 401.49 L 497.81 401.55 L 499.28 401.59 L 500.75 401.56 L 502.22 401.56 L 503.69 401.54 L 505.17 398.78 L 506.64 398.44 L 508.11 404.05 L 509.58 402.45 L 511.06 398.43 L 512.53 402.75 L 514.00 398.00 L 515.47 397.35 L 516.94 397.41 L 518.42 402.08 L 519.89 404.83 L 521.36 406.67 L 522.83 408.97 L 524.31 415.24 L 525.78 418.74 L 527.25 420.43 L 528.72 415.20 L 530.19 416.55 L 531.67 411.10 L 533.14 417.62 L 534.61 418.01 L 536.08 418.32 L 537.56 418.07 L 539.03 417.20 L 540.50 416.21 L 541.97 410.91 L 543.44 415.79 L 544.92 415.84 L 546.39 416.72 L 547.86 416.40 L 549.33 416.59 L 550.81 416.46 L 552.28 416.55 L 553.75 417.23 L 555.22 417.13 L 556.69 414.84 L 558.17 420.85 L 559.64 418.80 L 561.11 418.70 L 562.58 420.34 L 564.06 422.60 L 565.53 417.38 L 567.00 421.40 L 568.47 423.16 L 569.94 426.78 L 571.42 416.30 L 572.89 423.54 L 574.36 425.99 L 575.83 428.80 L 577.31 428.75 L 578.78 428.74 L 580.25 427.54 L 581.72 428.89 L 583.19 435.89 L 584.67 432.47 L 586.14 440.91 L 587.61 433.49 L 589.08 427.11 L 590.56 441.34 L 592.03 428.15 L 593.50 431.26 L 594.97 431.18 L 596.44 435.30 L 597.92 430.21 L 599.39 427.12 L 600.86 429.65 L 602.33 428.14 L 603.81 424.78 L 605.28 423.33 L 606.75 423.80 L 608.22 422.65 L 609.69 426.30 L 611.17 424.44 L 612.64 425.07 L 614.11 424.82 L 615.58 425.74 L 617.06 425.34 L 618.53 425.09 L 620.00 425.37 L 621.47 425.22 L 622.94 425.16 L 624.42 425.31 L 625.89 425.12 L 627.36 425.25 L 628.83 425.27 L 630.31 425.23 L 631.78 425.15 L 633.25 425.23 L 634.72 425.24 L 636.19 425.20 L 637.67 424.94 L 639.14 426.46 L 640.61 424.38 L 642.08 427.03 L 643.56 426.83 L 645.03 426.15 L 646.50 425.80 L 647.97 426.10 L 649.44 426.47 L 650.92 426.34 L 652.39 426.14 L 653.86 426.20 L 655.33 426.25 L 656.81 426.24 L 658.28 426.14 L 659.75 426.18 L 661.22 426.24 L 662.69 426.13 L 664.17 426.24 L 665.64 426.25 L 667.11 426.18 L 668.58 426.59 L 670.06 426.29 L 671.53 426.08 L 673.00 425.99 L 674.47 426.13 L 675.94 426.25 L 677.42 426.32 L 678.89 426.15 L 680.36 426.10 L 681.83 426.16 L 683.31 426.12 L 684.78 426.19 L 686.25 426.20 L 687.72 426.27 L 689.19 426.21 L 690.67 426.25 L 692.14 426.20 L 693.61 426.24 L 695.08 426.20 L 696.56 426.23 L 698.03 426.23 L 699.50 426.20 L 700.97 426.14 L 702.44 426.12 L 703.92 427.06 L 705.39 426.62 L 706.86 426.76 L 708.33 426.77 L 709.81 426.70 L 711.28 426.69 L 712.75 426.70 L 714.22 426.76 L 715.69 426.74 L 717.17 426.69 L 718.64 426.73 L 720.11 426.73 L 721.58 426.77 L 723.06 426.73 L 724.53 426.72 L 726.00 426.69 L 727.47 426.78 L 728.94 426.67 L 730.42 426.67 L 731.89 426.75 L 733.36 426.87 L 734.83 426.40 L 736.31 427.83 L 737.78 427.59 L 739.25 427.21 L 740.72 427.37 L 742.19 427.44 L 743.67 427.35 L 745.14 427.14 L 746.61 428.08 L 748.08 426.98 L 749.56 427.16 L 751.03 427.55 L 752.50 427.42 L 753.97 427.39 L 755.44 427.46 L 756.92 427.44 L 758.39 427.41 L 759.86 427.34 L 761.33 427.44 L 762.81 427.47 L 764.28 427.50 L 765.75 428.10 L 767.22 426.64 L 768.69 427.66 L 770.17 427.39 L 771.64 427.25 L 773.11 427.47 L 774.58 427.45 L 776.06 427.43 L 777.53 427.45 L 779.00 427.38 L 780.47 427.40 L 781.94 427.38 L 783.42 427.40 L 784.89 427.37 L 786.36 427.38 L 787.83 427.43 L 789.31 427.36 L 790.78 427.37 L 792.25 427.39 L 793.72 427.48" stroke="#6A1B9A" />
<line x1="900.00" y1="307.75" x2="918.00" y2="307.75" stroke="#2E7D32" stroke-width="3" />
<text class="small" x="924.00" y="311.75">pitch</text>
<line x1="900.00" y1="323.75" x2="918.00" y2="323.75" stroke="#6A1B9A" stroke-width="3" />
<text class="small" x="924.00" y="327.75">roll</text>
<text x="90" y="500.50" font-size="14" font-weight="700">Aceleração (magnitude) (u.a.)</text>
<rect class="event" x="443.33" y="506.50" width="85.39" height="192.75" />
<line class="eventline" x1="443.33" y1="506.50" x2="443.33" y2="699.25" />
<line class="eventline" x1="528.72" y1="506.50" x2="528.72" y2="699.25" />
<line class="grid" x1="90" y1="699.25" x2="1150" y2="699.25" />
<text class="small" x="80" y="703.25" text-anchor="end">0.00</text>
<line class="grid" x1="90" y1="660.70" x2="1150" y2="660.70" />
<text class="small" x="80" y="664.70" text-anchor="end">0.50</text>
<line class="grid" x1="90" y1="622.15" x2="1150" y2="622.15" />
<text class="small" x="80" y="626.15" text-anchor="end">1.00</text>
<line class="grid" x1="90" y1="583.60" x2="1150" y2="583.60" />
<text class="small" x="80" y="587.60" text-anchor="end">1.50</text>
<line class="grid" x1="90" y1="545.05" x2="1150" y2="545.05" />
<text class="small" x="80" y="549.05" text-anchor="end">2.00</text>
<line class="grid" x1="90" y1="506.50" x2="1150" y2="506.50" />
<text class="small" x="80" y="510.50" text-anchor="end">2.50</text>
<line class="grid" x1="90.00" y1="506.50" x2="90.00" y2="699.25" />
<line class="grid" x1="266.67" y1="506.50" x2="266.67" y2="699.25" />
<line class="grid" x1="443.33" y1="506.50" x2="443.33" y2="699.25" />
<line class="grid" x1="620.00" y1="506.50" x2="620.00" y2="699.25" />
<line class="grid" x1="796.67" y1="506.50" x2="796.67" y2="699.25" />
<line class="grid" x1="973.33" y1="506.50" x2="973.33" y2="699.25" />
<line class="grid" x1="1150.00" y1="506.50" x2="1150.00" y2="699.25" />
<line class="axis" x1="90" y1="506.50" x2="90" y2="699.25" />
<line class="axis" x1="90" y1="699.25" x2="1150" y2="699.25" />
<path class="series" d="M 178.33 661.12 L 179.81 653.72 L 181.28 651.77 L 182.75 682.28 L 184.22 681.14 L 185.69 668.33 L 187.17 665.92 L 188.64 668.02 L 190.11 652.88 L 191.58 678.21 L 193.06 686.85 L 194.53 681.70 L 196.00 690.20 L 197.47 693.05 L 198.94 670.11 L 200.42 674.11 L 201.89 675.61 L 203.36 688.72 L 204.83 676.64 L 206.31 681.57 L 207.78 681.50 L 209.25 680.34 L 210.72 671.10 L 212.19 647.76 L 213.67 674.23 L 215.14 685.35 L 216.61 689.51 L 218.08 647.55 L 219.56 668.66 L 221.03 660.18 L 222.50 659.20 L 223.97 667.95 L 225.44 668.22 L 226.92 657.57 L 228.39 652.05 L 229.86 666.86 L 231.33 640.11 L 232.81 686.07 L 234.28 670.60 L 235.75 650.05 L 237.22 681.56 L 238.69 656.95 L 240.17 633.74 L 241.64 641.61 L 243.11 662.01 L 244.58 619.45 L 246.06 622.11 L 247.53 662.96 L 249.00 636.51 L 250.47 671.08 L 251.94 686.73 L 253.42 649.16 L 254.89 662.67 L 256.36 668.84 L 257.83 668.73 L 259.31 664.65 L 260.78 662.68 L 262.25 676.90 L 263.72 674.51 L 265.19 677.36 L 266.67 691.57 L 268.14 654.55 L 269.61 659.45 L 271.08 689.02 L 272.56 667.95 L 274.03 663.70 L 275.50 681.94 L 276.97 662.81 L 278.44 655.92 L 279.92 670.15 L 281.39 669.82 L 282.86 662.73 L 284.33 669.51 L 285.81 668.10 L 287.28 649.92 L 288.75 653.80 L 290.22 635.01 L 291.69 659.42 L 293.17 682.78 L 294.64 651.32 L 296.11 652.91 L 297.58 678.55 L 299.06 665.85 L 300.53 673.38 L 302.00 693.51 L 303.47 682.46 L 304.94 696.81 L 306.42 691.50 L 307.89 696.08 L 309.36 692.59 L 310.83 692.69 L 312.31 695.61 L 313.78 696.95 L 315.25 693.05 L 316.72 693.05 L 318.19 690.80 L 319.67 691.28 L 321.14 693.69 L 322.61 696.85 L 324.08 694.28 L 325.56 694.19 L 327.03 695.85 L 328.50 698.25 L 329.97 694.83 L 331.44 697.34 L 332.92 697.98 L 334.39 696.13 L 335.86 696.33 L 337.33 696.75 L 338.81 697.42 L 340.28 696.97 L 341.75 695.13 L 343.22 696.35 L 344.69 695.61 L 346.17 690.69 L 347.64 688.54 L 349.11 696.58 L 350.58 694.99 L 352.06 696.80 L 353.53 696.71 L 355.00 697.18 L 356.47 695.54 L 357.94 696.19 L 359.42 696.69 L 360.89 695.39 L 362.36 692.72 L 363.83 692.84 L 365.31 694.25 L 366.78 694.92 L 368.25 692.36 L 369.72 696.19 L 371.19 689.35 L 372.67 696.04 L 374.14 696.31 L 375.61 695.77 L 377.08 695.92 L 378.56 696.65 L 380.03 697.70 L 381.50 695.20 L 382.97 694.49 L 384.44 695.52 L 385.92 693.57 L 387.39 697.12 L 388.86 695.44 L 390.33 691.20 L 391.81 686.38 L 393.28 692.63 L 394.75 688.07 L 396.22 697.25 L 397.69 694.90 L 399.17 693.07 L 400.64 693.75 L 402.11 691.05 L 403.58 692.95 L 405.06 687.12 L 406.53 683.69 L 408.00 691.06 L 409.47 676.32 L 410.94 685.67 L 412.42 687.96 L 413.89 679.60 L 415.36 670.09 L 416.83 672.06 L 418.31 648.65 L 419.78 656.39 L 421.25 680.94 L 422.72 670.38 L 424.19 675.17 L 425.67 677.06 L 427.14 681.36 L 428.61 696.89 L 430.08 677.11 L 431.56 678.09 L 433.03 677.84 L 434.50 676.50 L 435.97 666.06 L 437.44 633.90 L 438.92 661.79 L 440.39 670.02 L 441.86 671.52 L 443.33 685.53 L 444.81 691.72 L 446.28 696.30 L 447.75 696.56 L 449.22 694.74 L 450.69 697.95 L 452.17 698.56 L 453.64 698.50 L 455.11 698.34 L 456.58 698.43 L 458.06 698.56 L 459.53 698.49 L 461.00 698.40 L 462.47 698.48 L 463.94 698.03 L 465.42 698.45 L 466.89 698.84 L 468.36 698.83 L 469.83 698.98 L 471.31 699.04 L 472.78 699.05 L 474.25 699.05 L 475.72 699.18 L 477.19 699.08 L 478.67 699.13 L 480.14 699.00 L 481.61 698.73 L 483.08 696.09 L 484.56 696.35 L 486.03 698.90 L 487.50 698.59 L 488.97 698.78 L 490.44 698.78 L 491.92 699.00 L 493.39 699.16 L 494.86 698.91 L 496.33 698.82 L 497.81 698.89 L 499.28 699.03 L 500.75 699.02 L 502.22 699.11 L 503.69 699.05 L 505.17 686.49 L 506.64 691.12 L 508.11 689.65 L 509.58 694.88 L 511.06 690.60 L 512.53 685.82 L 514.00 693.03 L 515.47 689.43 L 516.94 697.33 L 518.42 693.54 L 519.89 694.17 L 521.36 678.39 L 522.83 692.87 L 524.31 694.72 L 525.78 694.19 L 527.25 694.01 L 528.72 681.42 L 530.19 688.53 L 531.67 693.19 L 533.14 686.19 L 534.61 681.42 L 536.08 691.73 L 537.56 685.22 L 539.03 692.52 L 540.50 696.83 L 541.97 678.77 L 543.44 693.86 L 544.92 696.62 L 546.39 698.70 L 547.86 698.82 L 549.33 698.91 L 550.81 698.99 L 552.28 699.10 L 553.75 691.31 L 555.22 689.53 L 556.69 691.51 L 558.17 688.52 L 559.64 682.56 L 561.11 692.66 L 562.58 692.75 L 564.06 692.57 L 565.53 690.58 L 567.00 688.08 L 568.47 677.85 L 569.94 687.02 L 571.42 690.14 L 572.89 691.63 L 574.36 685.89 L 575.83 679.38 L 577.31 675.66 L 578.78 688.02 L 580.25 685.75 L 581.72 691.08 L 583.19 678.51 L 584.67 689.89 L 586.14 679.98 L 587.61 690.93 L 589.08 689.78 L 590.56 686.16 L 592.03 673.17 L 593.50 685.99 L 594.97 683.10 L 596.44 687.37 L 597.92 678.72 L 599.39 688.29 L 600.86 693.05 L 602.33 692.79 L 603.81 688.96 L 605.28 691.36 L 606.75 692.14 L 608.22 688.06 L 609.69 694.69 L 611.17 696.34 L 612.64 697.43 L 614.11 693.45 L 615.58 695.98 L 617.06 699.08 L 618.53 698.88 L 620.00 698.66 L 621.47 699.17 L 622.94 699.20 L 624.42 699.04 L 625.89 698.95 L 627.36 699.10 L 628.83 699.07 L 630.31 699.15 L 631.78 699.08 L 633.25 699.12 L 634.72 699.03 L 636.19 699.06 L 637.67 696.89 L 639.14 695.18 L 640.61 688.62 L 642.08 695.27 L 643.56 697.00 L 645.03 698.62 L 646.50 698.08 L 647.97 699.09 L 649.44 698.68 L 650.92 699.10 L 652.39 698.90 L 653.86 698.98 L 655.33 698.94 L 656.81 698.99 L 658.28 699.15 L 659.75 699.15 L 661.22 699.07 L 662.69 698.97 L 664.17 699.04 L 665.64 698.89 L 667.11 699.12 L 668.58 697.15 L 670.06 696.35 L 671.53 692.98 L 673.00 697.29 L 674.47 697.97 L 675.94 698.35 L 677.42 698.71 L 678.89 698.87 L 680.36 698.88 L 681.83 698.72 L 683.31 698.98 L 684.78 699.05 L 686.25 698.87 L 687.72 698.88 L 689.19 699.00 L 690.67 699.15 L 692.14 699.13 L 693.61 699.20 L 695.08 699.07 L 696.56 699.10 L 698.03 699.05 L 699.50 699.04 L 700.97 698.72 L 702.44 697.44 L 703.92 697.28 L 705.39 696.80 L 706.86 698.25 L 708.33 698.12 L 709.81 698.66 L 711.28 698.93 L 712.75 698.81 L 714.22 699.15 L 715.69 699.02 L 717.17 699.13 L 718.64 699.17 L 720.11 699.11 L 721.58 699.05 L 723.06 699.11 L 724.53 699.22 L 726.00 699.22 L 727.47 699.03 L 728.94 699.07 L 730.42 699.15 L 731.89 698.71 L 733.36 698.53 L 734.83 694.85 L 736.31 692.20 L 737.78 694.52 L 739.25 696.14 L 740.72 698.63 L 742.19 698.45 L 743.67 699.00 L 745.14 698.87 L 746.61 698.19 L 748.08 698.49 L 749.56 698.25 L 751.03 698.72 L 752.50 698.83 L 753.97 698.84 L 755.44 699.14 L 756.92 698.98 L 758.39 699.02 L 759.86 699.01 L 761.33 699.16 L 762.81 699.11 L 764.28 698.10 L 765.75 697.50 L 767.22 695.71 L 768.69 696.19 L 770.17 698.03 L 771.64 698.19 L 773.11 698.51 L 774.58 698.90 L 776.06 699.20 L 777.53 699.08 L 779.00 699.18 L 780.47 699.08 L 781.94 699.00 L 783.42 698.98 L 784.89 699.15 L 786.36 699.03 L 787.83 699.04 L 789.31 699.09 L 790.78 699.06 L 792.25 699.09 L 793.72 699.11" stroke="#FB8C00" />
<text x="90" y="711.25" font-size="14" font-weight="700">Giroscópio (magnitude) (u.a.)</text>
<rect class="event" x="443.33" y="717.25" width="85.39" height="192.75" />
<line class="eventline" x1="443.33" y1="717.25" x2="443.33" y2="910.00" />
<line class="eventline" x1="528.72" y1="717.25" x2="528.72" y2="910.00" />
<line class="grid" x1="90" y1="910.00" x2="1150" y2="910.00" />
<text class="small" x="80" y="914.00" text-anchor="end">0.00</text>
<line class="grid" x1="90" y1="871.45" x2="1150" y2="871.45" />
<text class="small" x="80" y="875.45" text-anchor="end">0.05</text>
<line class="grid" x1="90" y1="832.90" x2="1150" y2="832.90" />
<text class="small" x="80" y="836.90" text-anchor="end">0.10</text>
<line class="grid" x1="90" y1="794.35" x2="1150" y2="794.35" />
<text class="small" x="80" y="798.35" text-anchor="end">0.15</text>
<line class="grid" x1="90" y1="755.80" x2="1150" y2="755.80" />
<text class="small" x="80" y="759.80" text-anchor="end">0.20</text>
<line class="grid" x1="90" y1="717.25" x2="1150" y2="717.25" />
<text class="small" x="80" y="721.25" text-anchor="end">0.25</text>
<line class="grid" x1="90.00" y1="717.25" x2="90.00" y2="910.00" />
<line class="grid" x1="266.67" y1="717.25" x2="266.67" y2="910.00" />
<line class="grid" x1="443.33" y1="717.25" x2="443.33" y2="910.00" />
<line class="grid" x1="620.00" y1="717.25" x2="620.00" y2="910.00" />
<line class="grid" x1="796.67" y1="717.25" x2="796.67" y2="910.00" />
<line class="grid" x1="973.33" y1="717.25" x2="973.33" y2="910.00" />
<line class="grid" x1="1150.00" y1="717.25" x2="1150.00" y2="910.00" />
<line class="axis" x1="90" y1="717.25" x2="90" y2="910.00" />
<line class="axis" x1="90" y1="910.00" x2="1150" y2="910.00" />
<path class="series" d="M 178.33 855.77 L 179.81 838.57 L 181.28 809.28 L 182.75 825.04 L 184.22 851.56 L 185.69 877.64 L 187.17 861.66 L 188.64 879.11 L 190.11 862.19 L 191.58 885.98 L 193.06 889.39 L 194.53 894.61 L 196.00 892.80 L 197.47 889.18 L 198.94 873.86 L 200.42 867.41 L 201.89 874.93 L 203.36 867.04 L 204.83 887.79 L 206.31 883.50 L 207.78 888.34 L 209.25 896.35 L 210.72 894.85 L 212.19 892.08 L 213.67 889.33 L 215.14 889.20 L 216.61 890.31 L 218.08 892.61 L 219.56 888.19 L 221.03 871.84 L 222.50 904.96 L 223.97 877.37 L 225.44 870.16 L 226.92 848.00 L 228.39 826.25 L 229.86 814.17 L 231.33 809.81 L 232.81 852.04 L 234.28 864.59 L 235.75 850.34 L 237.22 838.34 L 238.69 860.97 L 240.17 858.26 L 241.64 790.66 L 243.11 889.74 L 244.58 858.46 L 246.06 831.21 L 247.53 840.17 L 249.00 869.59 L 250.47 882.90 L 251.94 899.14 L 253.42 871.02 L 254.89 863.04 L 256.36 878.33 L 257.83 889.22 L 259.31 880.45 L 260.78 883.39 L 262.25 866.36 L 263.72 890.73 L 265.19 882.55 L 266.67 882.54 L 268.14 884.42 L 269.61 893.90 L 271.08 892.30 L 272.56 889.41 L 274.03 882.00 L 275.50 876.28 L 276.97 892.86 L 278.44 894.19 L 279.92 888.94 L 281.39 876.33 L 282.86 876.29 L 284.33 871.50 L 285.81 873.23 L 287.28 866.82 L 288.75 892.29 L 290.22 899.60 L 291.69 855.44 L 293.17 846.69 L 294.64 845.35 L 296.11 901.43 L 297.58 869.82 L 299.06 881.49 L 300.53 889.83 L 302.00 898.09 L 303.47 899.48 L 304.94 903.90 L 306.42 899.57 L 307.89 901.54 L 309.36 895.82 L 310.83 905.47 L 312.31 903.62 L 313.78 902.82 L 315.25 901.48 L 316.72 901.48 L 318.19 905.41 L 319.67 902.73 L 321.14 904.20 L 322.61 897.31 L 324.08 903.79 L 325.56 903.84 L 327.03 900.24 L 328.50 899.27 L 329.97 899.91 L 331.44 900.38 L 332.92 902.11 L 334.39 900.71 L 335.86 901.49 L 337.33 901.64 L 338.81 901.15 L 340.28 902.96 L 341.75 903.30 L 343.22 903.75 L 344.69 904.28 L 346.17 900.25 L 347.64 901.37 L 349.11 901.45 L 350.58 900.31 L 352.06 901.39 L 353.53 898.03 L 355.00 902.98 L 356.47 899.58 L 357.94 896.07 L 359.42 904.24 L 360.89 903.01 L 362.36 903.12 L 363.83 902.92 L 365.31 905.90 L 366.78 901.34 L 368.25 904.14 L 369.72 905.69 L 371.19 902.26 L 372.67 900.91 L 374.14 900.27 L 375.61 901.48 L 377.08 900.45 L 378.56 903.55 L 380.03 903.81 L 381.50 905.68 L 382.97 904.21 L 384.44 906.72 L 385.92 905.23 L 387.39 906.84 L 388.86 905.18 L 390.33 904.92 L 391.81 905.61 L 393.28 903.85 L 394.75 900.76 L 396.22 898.02 L 397.69 898.39 L 399.17 897.03 L 400.64 898.23 L 402.11 889.22 L 403.58 886.25 L 405.06 896.10 L 406.53 896.21 L 408.00 904.23 L 409.47 900.78 L 410.94 874.72 L 412.42 880.65 L 413.89 871.33 L 415.36 861.22 L 416.83 863.24 L 418.31 867.68 L 419.78 887.97 L 421.25 891.79 L 422.72 892.01 L 424.19 876.59 L 425.67 866.55 L 427.14 847.04 L 428.61 834.03 L 430.08 850.17 L 431.56 846.66 L 433.03 837.85 L 434.50 827.52 L 435.97 832.04 L 437.44 832.57 L 438.92 850.52 L 440.39 863.65 L 441.86 876.56 L 443.33 880.21 L 444.81 893.71 L 446.28 899.47 L 447.75 906.53 L 449.22 907.81 L 450.69 907.83 L 452.17 907.93 L 453.64 908.17 L 455.11 907.96 L 456.58 908.18 L 458.06 908.19 L 459.53 907.91 L 461.00 908.12 L 462.47 909.62 L 463.94 909.26 L 465.42 909.75 L 466.89 909.84 L 468.36 909.81 L 469.83 909.90 L 471.31 909.88 L 472.78 909.88 L 474.25 909.87 L 475.72 909.93 L 477.19 909.93 L 478.67 909.83 L 480.14 909.82 L 481.61 909.86 L 483.08 907.68 L 484.56 909.71 L 486.03 909.83 L 487.50 909.81 L 488.97 909.81 L 490.44 909.81 L 491.92 909.88 L 493.39 909.82 L 494.86 909.92 L 496.33 909.83 L 497.81 909.73 L 499.28 909.88 L 500.75 909.82 L 502.22 909.82 L 503.69 909.76 L 505.17 903.57 L 506.64 889.98 L 508.11 889.94 L 509.58 895.44 L 511.06 894.13 L 512.53 886.31 L 514.00 893.80 L 515.47 900.26 L 516.94 898.71 L 518.42 900.41 L 519.89 898.39 L 521.36 898.09 L 522.83 894.37 L 524.31 898.36 L 525.78 895.39 L 527.25 899.89 L 528.72 906.59 L 530.19 900.71 L 531.67 903.45 L 533.14 903.30 L 534.61 901.03 L 536.08 899.24 L 537.56 895.40 L 539.03 884.61 L 540.50 886.12 L 541.97 902.52 L 543.44 908.29 L 544.92 909.59 L 546.39 909.71 L 547.86 909.88 L 549.33 909.80 L 550.81 909.87 L 552.28 909.91 L 553.75 905.99 L 555.22 904.43 L 556.69 892.34 L 558.17 908.17 L 559.64 905.96 L 561.11 905.69 L 562.58 906.65 L 564.06 902.41 L 565.53 904.61 L 567.00 892.01 L 568.47 905.90 L 569.94 895.22 L 571.42 897.35 L 572.89 893.93 L 574.36 903.89 L 575.83 904.52 L 577.31 899.75 L 578.78 904.43 L 580.25 899.43 L 581.72 900.76 L 583.19 901.91 L 584.67 898.86 L 586.14 896.67 L 587.61 903.49 L 589.08 893.40 L 590.56 890.34 L 592.03 900.06 L 593.50 892.52 L 594.97 891.98 L 596.44 891.16 L 597.92 892.77 L 599.39 899.26 L 600.86 906.36 L 602.33 902.36 L 603.81 899.03 L 605.28 908.13 L 606.75 906.21 L 608.22 905.76 L 609.69 905.38 L 611.17 908.34 L 612.64 909.71 L 614.11 907.48 L 615.58 909.70 L 617.06 909.77 L 618.53 909.92 L 620.00 909.91 L 621.47 909.84 L 622.94 909.93 L 624.42 909.87 L 625.89 909.86 L 627.36 909.86 L 628.83 909.90 L 630.31 909.91 L 631.78 909.84 L 633.25 909.85 L 634.72 909.79 L 636.19 909.69 L 637.67 909.43 L 639.14 905.57 L 640.61 908.98 L 642.08 908.67 L 643.56 909.28 L 645.03 909.38 L 646.50 909.74 L 647.97 909.81 L 649.44 909.67 L 650.92 909.67 L 652.39 909.81 L 653.86 909.73 L 655.33 909.65 L 656.81 909.71 L 658.28 909.84 L 659.75 909.84 L 661.22 909.92 L 662.69 909.77 L 664.17 909.95 L 665.64 909.88 L 667.11 909.91 L 668.58 909.62 L 670.06 908.80 L 671.53 909.28 L 673.00 909.65 L 674.47 909.79 L 675.94 909.85 L 677.42 909.81 L 678.89 909.85 L 680.36 909.95 L 681.83 909.82 L 683.31 909.87 L 684.78 909.92 L 686.25 909.87 L 687.72 909.84 L 689.19 909.94 L 690.67 909.90 L 692.14 909.97 L 693.61 909.90 L 695.08 909.94 L 696.56 909.95 L 698.03 909.88 L 699.50 909.94 L 700.97 909.83 L 702.44 909.53 L 703.92 908.81 L 705.39 909.52 L 706.86 909.51 L 708.33 909.78 L 709.81 909.90 L 711.28 909.95 L 712.75 909.91 L 714.22 909.97 L 715.69 909.93 L 717.17 909.87 L 718.64 909.88 L 720.11 909.92 L 721.58 909.79 L 723.06 909.87 L 724.53 909.94 L 726.00 909.83 L 727.47 909.90 L 728.94 909.92 L 730.42 909.72 L 731.89 909.62 L 733.36 909.39 L 734.83 907.30 L 736.31 908.80 L 737.78 909.22 L 739.25 909.67 L 740.72 909.73 L 742.19 909.69 L 743.67 909.67 L 745.14 909.69 L 746.61 909.51 L 748.08 908.88 L 749.56 909.79 L 751.03 909.62 L 752.50 909.56 L 753.97 909.72 L 755.44 909.67 L 756.92 909.82 L 758.39 909.78 L 759.86 909.59 L 761.33 909.79 L 762.81 909.98 L 764.28 909.91 L 765.75 907.63 L 767.22 907.59 L 768.69 909.44 L 770.17 909.78 L 771.64 909.85 L 773.11 909.96 L 774.58 909.93 L 776.06 909.88 L 777.53 909.95 L 779.00 909.83 L 780.47 909.91 L 781.94 909.93 L 783.42 909.91 L 784.89 909.86 L 786.36 909.81 L 787.83 909.92 L 789.31 909.86 L 790.78 909.91 L 792.25 909.90 L 793.72 909.77" stroke="#E53935" />
<text x="620.00" y="952" font-size="15" text-anchor="middle">minutos (relativo ao início do evento)</text>
<text class="small" x="90.00" y="936" text-anchor="middle">-4.00</text>
<text class="small" x="266.67" y="936" text-anchor="middle">-2.00</text>
<text class="small" x="443.33" y="936" text-anchor="middle">0.00</text>
<text class="small" x="620.00" y="936" text-anchor="middle">2.00</text>
<text class="small" x="796.67" y="936" text-anchor="middle">4.00</text>
<text class="small" x="973.33" y="936" text-anchor="middle">6.00</text>
<text class="small" x="1150.00" y="936" text-anchor="middle">8.00</text>
</svg>