<?xml version="1.0" encoding="UTF-8"?>
<svg xmlns="http://www.w3.org/2000/svg" width="1180" height="980" viewBox="0 0 1180 980">
<style>
text { font-family: -apple-system, BlinkMacSystemFont, 'Segoe UI', Roboto, Helvetica, Arial, sans-serif; fill: #111; }
.small { font-size: 12px; fill: #222; }
.title { font-size: 18px; font-weight: 700; }
.axis { stroke: #111; stroke-width: 1.4; }
.grid { stroke: #E6E6E6; stroke-width: 1; }
.event { fill: #FFEB3B; fill-opacity: 0.18; }
.eventline { stroke: #F9A825; stroke-width: 1.2; stroke-dasharray: 4 3; }
.series { fill: none; stroke-width: 1.8; }
</style>
<text class="title" x="90" y="34">ciclo 16 — espera_basculamento — 2025-12-13T03:30:33-03:00 → 2025-12-13T03:47:33-03:00 (span 1020s, dur 1021s)</text>
<text class="small" x="90" y="54">GPS: -11.694533,-47.165957  hotspot: -11.695,-47.166</text>
<text class="small" x="90" y="70">Janela: -3.00 → 20.0 min (relativo ao início do evento)</text>
<text x="90" y="79.00" font-size="14" font-weight="700">Velocidade (km/h)</text>
<rect class="event" x="266.67" y="85.00" width="600.67" height="192.75" />
<line class="eventline" x1="266.67" y1="85.00" x2="266.67" y2="277.75" />
<line class="eventline" x1="867.33" y1="85.00" x2="867.33" y2="277.75" />
<line class="grid" x1="90" y1="277.75" x2="1150" y2="277.75" />
<text class="small" x="80" y="281.75" text-anchor="end">0.00</text>
<line class="grid" x1="90" y1="239.20" x2="1150" y2="239.20" />
<text class="small" x="80" y="243.20" text-anchor="end">5.00</text>
<line class="grid" x1="90" y1="200.65" x2="1150" y2="200.65" />
<text class="small" x="80" y="204.65" text-anchor="end">10.0</text>
<line class="grid" x1="90" y1="162.10" x2="1150" y2="162.10" />
<text class="small" x="80" y="166.10" text-anchor="end">15.0</text>
<line class="grid" x1="90" y1="123.55" x2="1150" y2="123.55" />
<text class="small" x="80" y="127.55" text-anchor="end">20.0</text>
<line class="grid" x1="90" y1="85.00" x2="1150" y2="85.00" />
<text class="small" x="80" y="89.00" text-anchor="end">25.0</text>
<line class="grid" x1="90.00" y1="85.00" x2="90.00" y2="277.75" />
<line class="grid" x1="266.67" y1="85.00" x2="266.67" y2="277.75" />
<line class="grid" x1="443.33" y1="85.00" x2="443.33" y2="277.75" />
<line class="grid" x1="620.00" y1="85.00" x2="620.00" y2="277.75" />
<line class="grid" x1="796.67" y1="85.00" x2="796.67" y2="277.75" />
<line class="grid" x1="973.33" y1="85.00" x2="973.33" y2="277.75" />
<line class="grid" x1="1150.00" y1="85.00" x2="1150.00" y2="277.75" />
<line class="axis" x1="90" y1="85.00" x2="90" y2="277.75" />
<line class="axis" x1="90" y1="277.75" x2="1150" y2="277.75" />
<path class="series" d="M 160.67 215.85 L 161.84 220.02 L 163.02 220.85 L 164.20 216.41 L 165.38 218.63 L 166.56 216.69 L 167.73 220.02 L 168.91 219.46 L 170.09 218.63 L 171.27 216.41 L 172.44 214.19 L 173.62 216.13 L 174.80 216.13 L 175.98 216.41 L 177.16 214.19 L 178.33 216.13 L 179.51 217.24 L 180.69 213.63 L 181.87 214.47 L 183.04 213.63 L 184.22 216.41 L 185.40 216.13 L 186.58 219.74 L 187.76 217.52 L 188.93 214.74 L 190.11 213.91 L 191.29 214.19 L 192.47 217.52 L 193.64 220.57 L 194.82 214.47 L 196.00 215.30 L 197.18 215.30 L 198.36 217.80 L 199.53 212.80 L 200.71 216.13 L 201.89 218.35 L 203.07 216.96 L 204.24 220.30 L 205.42 214.74 L 206.60 216.41 L 207.78 215.58 L 208.96 214.19 L 210.13 215.58 L 211.31 217.24 L 212.49 218.91 L 213.67 218.91 L 214.84 216.41 L 216.02 218.07 L 217.20 219.18 L 218.38 218.07 L 219.56 214.74 L 220.73 214.19 L 221.91 217.52 L 223.09 213.08 L 224.27 215.85 L 225.44 216.41 L 226.62 218.35 L 227.80 213.63 L 228.98 213.36 L 230.16 215.85 L 231.33 211.41 L 232.51 213.08 L 233.69 211.97 L 234.87 212.80 L 236.04 216.96 L 237.22 215.30 L 238.40 213.36 L 239.58 212.25 L 240.76 214.19 L 241.93 215.85 L 243.11 213.08 L 244.29 213.08 L 245.47 211.14 L 246.64 211.69 L 247.82 216.13 L 249.00 222.79 L 250.18 216.69 L 251.36 220.57 L 252.53 218.63 L 253.71 217.80 L 254.89 210.03 L 256.07 212.52 L 257.24 204.75 L 258.42 217.52 L 259.60 216.69 L 260.78 213.91 L 261.96 216.13 L 263.13 220.85 L 264.31 241.67 L 265.49 259.71 L 266.67 277.75 L 267.84 277.75 L 269.02 277.75 L 270.20 277.75 L 271.38 277.75 L 272.56 277.75 L 273.73 277.75 L 274.91 277.75 L 276.09 277.75 L 277.27 277.75 L 278.44 277.75 L 279.62 277.75 L 280.80 277.75 L 281.98 277.75 L 283.16 277.75 L 284.33 277.75 L 285.51 277.75 L 286.69 277.75 L 287.87 277.75 L 289.04 277.75 L 290.22 277.75 L 291.40 277.75 L 292.58 277.75 L 293.76 277.75 L 294.93 277.75 L 296.11 277.75 L 297.29 277.75 L 298.47 277.75 L 299.64 277.75 L 300.82 277.75 L 302.00 277.75 L 303.18 277.75 L 304.36 277.75 L 305.53 277.75 L 306.71 277.75 L 307.89 277.75 L 309.07 277.75 L 310.24 277.75 L 311.42 277.75 L 312.60 277.75 L 313.78 277.75 L 314.96 277.75 L 316.13 277.75 L 317.31 277.75 L 318.49 277.75 L 319.67 277.75 L 320.84 277.75 L 322.02 277.75 L 323.20 277.75 L 324.38 277.75 L 325.56 277.75 L 326.73 277.75 L 327.91 277.75 L 329.09 277.75 L 330.27 277.75 L 331.44 277.75 L 332.62 277.75 L 333.80 277.75 L 334.98 277.75 L 336.16 277.75 L 337.33 277.75 L 338.51 277.75 L 339.69 277.75 L 340.87 277.75 L 342.04 277.75 L 343.22 277.75 L 344.40 277.75 L 345.58 277.75 L 346.76 277.75 L 347.93 277.75 L 349.11 277.75 L 350.29 277.75 L 351.47 277.75 L 352.64 277.75 L 353.82 277.75 L 355.00 277.75 L 356.18 277.75 L 357.36 277.75 L 358.53 277.75 L 359.71 277.75 L 360.89 277.75 L 362.07 277.75 L 363.24 277.75 L 364.42 277.75 L 365.60 277.75 L 366.78 277.75 L 367.96 277.75 L 369.13 277.75 L 370.31 277.75 L 371.49 277.75 L 372.67 277.75 L 373.84 277.75 L 375.02 277.75 L 376.20 277.75 L 377.38 277.75 L 378.56 277.75 L 379.73 277.75 L 380.91 277.75 L 382.09 277.75 L 383.27 277.75 L 384.44 277.75 L 385.62 277.75 L 386.80 277.75 L 387.98 277.75 L 389.16 277.75 L 390.33 277.75 L 391.51 277.75 L 392.69 277.75 L 393.87 277.75 L 395.04 277.75 L 396.22 277.75 L 397.40 277.75 L 398.58 277.75 L 399.76 277.75 L 400.93 277.75 L 402.11 277.75 L 403.29 277.75 L 404.47 277.75 L 405.64 277.75 L 406.82 277.75 L 408.00 277.75 L 409.18 277.75 L 410.36 277.75 L 411.53 277.75 L 412.71 277.75 L 413.89 277.75 L 415.07 277.75 L 416.24 277.75 L 417.42 277.75 L 418.60 277.75 L 419.78 277.75 L 420.96 277.75 L 422.13 277.75 L 423.31 277.75 L 424.49 277.75 L 425.67 277.75 L 426.84 277.75 L 428.02 277.75 L 429.20 277.75 L 430.38 277.75 L 431.56 277.75 L 432.73 277.75 L 433.91 277.75 L 435.09 277.75 L 436.27 277.75 L 437.44 277.75 L 438.62 277.75 L 439.80 277.75 L 440.98 277.75 L 442.16 277.75 L 443.33 277.75 L 444.51 277.75 L 445.69 277.75 L 446.87 277.75 L 448.04 277.75 L 449.22 277.75 L 450.40 277.75 L 451.58 277.75 L 452.76 277.75 L 453.93 277.75 L 455.11 277.75 L 456.29 277.75 L 457.47 277.75 L 458.64 277.75 L 459.82 277.75 L 461.00 277.75 L 462.18 277.75 L 463.36 277.75 L 464.53 277.75 L 465.71 277.75 L 466.89 277.75 L 468.07 277.75 L 469.24 277.75 L 470.42 277.75 L 471.60 277.75 L 472.78 277.75 L 473.96 277.75 L 475.13 277.75 L 476.31 277.75 L 477.49 277.75 L 478.67 277.75 L 479.84 277.75 L 481.02 277.75 L 482.20 277.75 L 483.38 277.75 L 484.56 277.75 L 485.73 277.75 L 486.91 277.75 L 488.09 277.75 L 489.27 277.75 L 490.44 277.75 L 491.62 277.75 L 492.80 277.75 L 493.98 277.75 L 495.16 277.75 L 496.33 277.75 L 497.51 277.75 L 498.69 277.75 L 499.87 277.75 L 501.04 277.75 L 502.22 277.75 L 503.40 277.75 L 504.58 277.75 L 505.76 277.75 L 506.93 277.75 L 508.11 277.75 L 509.29 277.75 L 510.47 277.75 L 511.64 277.75 L 512.82 277.75 L 514.00 277.75 L 515.18 277.75 L 516.36 277.75 L 517.53 277.75 L 518.71 277.75 L 519.89 277.75 L 521.07 277.75 L 522.24 277.75 L 523.42 277.75 L 524.60 277.75 L 525.78 277.75 L 526.96 277.75 L 528.13 277.75 L 529.31 277.75 L 530.49 277.75 L 531.67 277.75 L 532.84 277.75 L 534.02 277.75 L 535.20 277.75 L 536.38 277.75 L 537.56 277.75 L 538.73 277.75 L 539.91 277.75 L 541.09 277.75 L 542.27 277.75 L 543.44 277.75 L 544.62 277.75 L 545.80 277.75 L 546.98 277.75 L 548.16 277.75 L 549.33 277.75 L 550.51 277.75 L 551.69 277.75 L 552.87 277.75 L 554.04 277.75 L 555.22 277.75 L 556.40 277.75 L 557.58 277.75 L 558.76 277.75 L 559.93 277.75 L 561.11 277.75 L 562.29 277.75 L 563.47 277.75 L 564.64 277.75 L 565.82 277.75 L 567.00 277.75 L 568.18 277.75 L 569.36 277.75 L 570.53 277.75 L 571.71 277.75 L 572.89 277.75 L 574.07 277.75 L 575.24 277.75 L 576.42 277.75 L 577.60 277.75 L 578.78 277.75 L 579.96 277.75 L 581.13 277.75 L 582.31 277.75 L 583.49 277.75 L 584.67 277.75 L 585.84 277.75 L 587.02 277.75 L 588.20 277.75 L 589.38 277.75 L 590.56 277.75 L 591.73 277.75 L 592.91 277.75 L 594.09 277.75 L 595.27 277.75 L 596.44 277.75 L 597.62 277.75 L 598.80 277.75 L 599.98 277.75 L 601.16 277.75 L 602.33 277.75 L 603.51 277.75 L 604.69 277.75 L 605.87 277.75 L 607.04 277.75 L 608.22 277.75 L 609.40 277.75 L 610.58 277.75 L 611.76 277.75 L 612.93 277.75 L 614.11 277.75 L 615.29 277.75 L 616.47 277.75 L 617.64 277.75 L 618.82 277.75 L 620.00 277.75 L 621.18 277.75 L 622.36 277.75 L 623.53 277.75 L 624.71 277.75 L 625.89 277.75 L 627.07 277.75 L 628.24 277.75 L 629.42 277.75 L 630.60 277.75 L 631.78 277.75 L 632.96 277.75 L 634.13 277.75 L 635.31 277.75 L 636.49 277.75 L 637.67 277.75 L 638.84 277.75 L 640.02 277.75 L 641.20 277.75 L 642.38 277.75 L 643.56 277.75 L 644.73 277.75 L 645.91 277.75 L 647.09 277.75 L 648.27 277.75 L 649.44 277.75 L 650.62 277.75 L 651.80 277.75 L 652.98 277.75 L 654.16 277.75 L 655.33 277.75 L 656.51 277.75 L 657.69 277.75 L 658.87 277.75 L 660.04 277.75 L 661.22 277.75 L 662.40 277.75 L 663.58 277.75 L 664.76 277.75 L 665.93 277.75 L 667.11 277.75 L 668.29 277.75 L 669.47 277.75 L 670.64 277.75 L 671.82 277.75 L 673.00 277.75 L 674.18 277.75 L 675.36 277.75 L 676.53 277.75 L 677.71 277.75 L 678.89 277.75 L 680.07 277.75 L 681.24 277.75 L 682.42 277.75 L 683.60 277.75 L 684.78 277.75 L 685.96 277.75 L 687.13 277.75 L 688.31 277.75 L 689.49 277.75 L 690.67 277.75 L 691.84 277.75 L 693.02 277.75 L 694.20 277.75 L 695.38 277.75 L 696.56 277.75 L 697.73 277.75 L 698.91 277.75 L 700.09 277.75 L 701.27 277.75 L 702.44 277.75 L 703.62 277.75 L 704.80 277.75 L 705.98 277.75 L 707.16 277.75 L 708.33 277.75 L 709.51 277.75 L 710.69 277.75 L 711.87 277.75 L 713.04 277.75 L 714.22 277.75 L 715.40 277.75 L 716.58 277.75 L 717.76 277.75 L 718.93 277.75 L 720.11 277.75 L 721.29 277.75 L 722.47 277.75 L 723.64 277.75 L 724.82 277.75 L 726.00 277.75 L 727.18 277.75 L 728.36 277.75 L 729.53 277.75 L 730.71 277.75 L 731.89 277.75 L 733.07 277.75 L 734.24 277.75 L 735.42 277.75 L 736.60 277.75 L 737.78 277.75 L 738.96 277.75 L 740.13 277.75 L 741.31 277.75 L 742.49 277.75 L 743.67 277.75 L 744.84 277.75 L 746.02 277.75 L 747.20 277.75 L 748.38 277.75 L 749.56 277.75 L 750.73 277.75 L 751.91 277.75 L 753.09 277.75 L 754.27 277.75 L 755.44 277.75 L 756.62 277.75 L 757.80 277.75 L 758.98 277.75 L 760.16 277.75 L 761.33 277.75 L 762.51 277.75 L 763.69 277.75 L 764.87 277.75 L 766.04 277.75 L 767.22 277.75 L 768.40 277.75 L 769.58 277.75 L 770.76 277.75 L 771.93 277.75 L 773.11 277.75 L 774.29 277.75 L 775.47 277.75 L 776.64 277.75 L 777.82 277.75 L 779.00 277.75 L 780.18 277.75 L 781.36 277.75 L 782.53 277.75 L 783.71 277.75 L 784.89 277.75 L 786.07 277.75 L 787.24 277.75 L 788.42 277.75 L 789.60 277.75 L 790.78 277.75 L 791.96 277.75 L 793.13 277.75 L 794.31 277.75 L 795.49 277.75 L 796.67 277.75 L 797.84 277.75 L 799.02 277.75 L 800.20 277.75 L 801.38 277.75 L 802.56 277.75 L 803.73 277.75 L 804.91 277.75 L 806.09 277.75 L 807.27 277.75 L 808.44 277.75 L 809.62 277.75 L 810.80 277.75 L 811.98 277.75 L 813.16 277.75 L 814.33 277.75 L 815.51 277.75 L 816.69 277.75 L 817.87 277.75 L 819.04 277.75 L 820.22 277.75 L 821.40 277.75 L 822.58 277.75 L 823.76 277.75 L 824.93 277.75 L 826.11 277.75 L 827.29 277.75 L 828.47 277.75 L 829.64 277.75 L 830.82 277.75 L 832.00 277.75 L 833.18 277.75 L 834.36 277.75 L 835.53 277.75 L 836.71 277.75 L 837.89 277.75 L 839.07 277.75 L 840.24 277.75 L 841.42 277.75 L 842.60 277.75 L 843.78 277.75 L 844.96 277.75 L 846.13 277.75 L 847.31 277.75 L 848.49 277.75 L 849.67 277.75 L 850.84 277.75 L 852.02 277.75 L 853.20 277.75 L 854.38 277.75 L 855.56 277.75 L 856.73 277.75 L 857.91 277.75 L 859.09 277.75 L 860.27 277.75 L 861.44 277.75 L 862.62 277.75 L 863.80 277.75 L 864.98 277.75 L 866.16 277.75 L 867.33 277.75 L 868.51 245.55 L 869.69 239.72 L 870.87 227.23 L 872.04 217.24 L 873.22 200.31 L 874.40 184.77 L 875.58 172.28 L 876.76 169.78 L 877.93 155.07 L 879.11 166.45 L 880.29 161.17 L 881.47 150.35 L 882.64 150.63 L 883.82 180.88 L 885.00 185.04 L 886.18 204.47 L 887.36 195.87 L 888.53 199.76 L 889.71 196.70 L 890.89 277.75 L 892.07 191.43 L 893.24 185.88 L 894.42 183.93 L 895.60 179.49 L 896.78 180.88 L 897.96 183.93 L 899.13 176.72 L 900.31 176.44 L 901.49 187.82 L 902.67 190.32 L 903.84 201.42 L 905.02 207.80 L 906.20 206.42 L 907.38 205.58 L 908.56 205.86 L 909.73 211.69 L 910.91 216.41 L 912.09 248.88 L 913.27 260.26 L 914.44 277.75 L 915.62 277.75 L 916.80 256.10 L 917.98 249.16 L 919.16 249.16 L 920.33 251.94 L 921.51 255.82 L 922.69 255.27 L 923.87 251.38 L 925.04 254.71 L 926.22 261.65 L 927.40 264.98 L 928.58 277.75 L 929.76 277.75 L 930.93 277.75 L 932.11 277.75 L 933.29 277.75 L 934.47 277.75 L 935.64 277.75 L 936.82 277.75 L 938.00 277.75 L 939.18 277.75 L 940.36 277.75 L 941.53 277.75 L 942.71 277.75 L 943.89 277.75 L 945.07 277.75 L 946.24 277.75 L 947.42 277.75 L 948.60 277.75 L 949.78 277.75 L 950.96 277.75 L 952.13 277.75 L 953.31 277.75 L 954.49 277.75 L 955.67 277.75 L 956.84 251.66 L 958.02 277.75 L 959.20 277.75 L 960.38 277.75 L 961.56 250.27 L 962.73 266.65 L 963.91 277.75 L 965.09 277.75 L 966.27 277.75 L 967.44 277.75 L 968.62 277.75 L 969.80 277.75 L 970.98 277.75 L 972.16 277.75 L 973.33 258.32" stroke="#1976D2" />
<text x="90" y="289.75" font-size="14" font-weight="700">Inclinação (graus)</text>
<rect class="event" x="266.67" y="295.75" width="600.67" height="192.75" />
<line class="eventline" x1="266.67" y1="295.75" x2="266.67" y2="488.50" />
<line class="eventline" x1="867.33" y1="295.75" x2="867.33" y2="488.50" />
<line class="grid" x1="90" y1="488.50" x2="1150" y2="488.50" />
<text class="small" x="80" y="492.50" text-anchor="end">-10.0</text>
<line class="grid" x1="90" y1="456.38" x2="1150" y2="456.38" />
<text class="small" x="80" y="460.38" text-anchor="end">-5.00</text>
<line class="grid" x1="90" y1="424.25" x2="1150" y2="424.25" />
<text class="small" x="80" y="428.25" text-anchor="end">0.00</text>
<line class="grid" x1="90" y1="392.12" x2="1150" y2="392.12" />
<text class="small" x="80" y="396.12" text-anchor="end">5.00</text>
<line class="grid" x1="90" y1="360.00" x2="1150" y2="360.00" />
<text class="small" x="80" y="364.00" text-anchor="end">10.0</text>
<line class="grid" x1="90" y1="327.88" x2="1150" y2="327.88" />
<text class="small" x="80" y="331.88" text-anchor="end">15.0</text>
<line class="grid" x1="90" y1="295.75" x2="1150" y2="295.75" />
<text class="small" x="80" y="299.75" text-anchor="end">20.0</text>
<line class="grid" x1="90.00" y1="295.75" x2="90.00" y2="488.50" />
<line class="grid" x1="266.67" y1="295.75" x2="266.67" y2="488.50" />
<line class="grid" x1="443.33" y1="295.75" x2="443.33" y2="488.50" />
<line class="grid" x1="620.00" y1="295.75" x2="620.00" y2="488.50" />
<line class="grid" x1="796.67" y1="295.75" x2="796.67" y2="488.50" />
<line class="grid" x1="973.33" y1="295.75" x2="973.33" y2="488.50" />
<line class="grid" x1="1150.00" y1="295.75" x2="1150.00" y2="488.50" />
<line class="axis" x1="90" y1="295.75" x2="90" y2="488.50" />
<line class="axis" x1="90" y1="488.50" x2="1150" y2="488.50" />
<path class="series" d="M 160.67 389.31 L 161.84 392.24 L 163.02 396.51 L 164.20 394.18 L 165.38 393.50 L 166.56 392.77 L 167.73 394.10 L 168.91 395.42 L 170.09 397.88 L 171.27 393.51 L 172.44 388.91 L 173.62 383.06 L 174.80 390.54 L 175.98 392.81 L 177.16 395.87 L 178.33 395.48 L 179.51 394.18 L 180.69 393.29 L 181.87 392.77 L 183.04 389.94 L 184.22 390.14 L 185.40 393.52 L 186.58 393.09 L 187.76 392.41 L 188.93 395.38 L 190.11 391.94 L 191.29 392.82 L 192.47 396.26 L 193.64 394.84 L 194.82 392.35 L 196.00 388.88 L 197.18 389.72 L 198.36 389.91 L 199.53 391.60 L 200.71 396.81 L 201.89 396.12 L 203.07 392.88 L 204.24 391.37 L 205.42 391.43 L 206.60 385.82 L 207.78 395.82 L 208.96 396.61 L 210.13 392.22 L 211.31 393.22 L 212.49 394.55 L 213.67 395.47 L 214.84 394.17 L 216.02 394.60 L 217.20 397.51 L 218.38 387.61 L 219.56 391.85 L 220.73 392.53 L 221.91 395.67 L 223.09 392.51 L 224.27 392.48 L 225.44 391.83 L 226.62 392.27 L 227.80 389.03 L 228.98 378.92 L 230.16 384.05 L 231.33 389.03 L 232.51 387.45 L 233.69 392.33 L 234.87 396.89 L 236.04 404.30 L 237.22 401.24 L 238.40 398.16 L 239.58 393.12 L 240.76 392.23 L 241.93 391.56 L 243.11 386.65 L 244.29 387.31 L 245.47 385.40 L 246.64 392.75 L 247.82 394.69 L 249.00 392.11 L 250.18 393.29 L 251.36 392.12 L 252.53 387.19 L 253.71 386.34 L 254.89 381.51 L 256.07 374.67 L 257.24 365.42 L 258.42 363.61 L 259.60 362.16 L 260.78 359.95 L 261.96 353.69 L 263.13 334.34 L 264.31 342.25 L 265.49 334.31 L 266.67 353.35 L 267.84 353.39 L 269.02 352.92 L 270.20 352.93 L 271.38 353.05 L 272.56 352.92 L 273.73 353.00 L 274.91 352.98 L 276.09 352.99 L 277.27 352.99 L 278.44 353.69 L 279.62 353.77 L 280.80 353.00 L 281.98 352.10 L 283.16 352.65 L 284.33 352.61 L 285.51 352.54 L 286.69 352.58 L 287.87 352.60 L 289.04 352.55 L 290.22 352.51 L 291.40 352.68 L 292.58 352.72 L 293.76 352.67 L 294.93 352.74 L 296.11 352.83 L 297.29 352.75 L 298.47 352.74 L 299.64 352.73 L 300.82 352.76 L 302.00 352.75 L 303.18 352.71 L 304.36 352.74 L 305.53 352.67 L 306.71 352.66 L 307.89 352.66 L 309.07 352.69 L 310.24 352.67 L 311.42 352.70 L 312.60 352.68 L 313.78 352.71 L 314.96 352.79 L 316.13 352.75 L 317.31 352.72 L 318.49 352.67 L 319.67 352.65 L 320.84 352.66 L 322.02 352.66 L 323.20 352.62 L 324.38 352.68 L 325.56 352.65 L 326.73 352.63 L 327.91 352.65 L 329.09 352.68 L 330.27 352.62 L 331.44 352.69 L 332.62 352.64 L 333.80 352.64 L 334.98 352.66 L 336.16 352.66 L 337.33 352.60 L 338.51 352.63 L 339.69 352.68 L 340.87 352.63 L 342.04 352.64 L 343.22 352.62 L 344.40 352.65 L 345.58 352.59 L 346.76 352.62 L 347.93 352.61 L 349.11 352.59 L 350.29 352.61 L 351.47 352.57 L 352.64 352.62 L 353.82 352.60 L 355.00 352.62 L 356.18 352.59 L 357.36 352.57 L 358.53 352.53 L 359.71 352.49 L 360.89 352.48 L 362.07 352.55 L 363.24 352.46 L 364.42 352.55 L 365.60 352.53 L 366.78 352.49 L 367.96 352.48 L 369.13 352.49 L 370.31 352.41 L 371.49 352.44 L 372.67 352.47 L 373.84 352.58 L 375.02 352.53 L 376.20 352.53 L 377.38 352.57 L 378.56 352.55 L 379.73 352.51 L 380.91 352.57 L 382.09 352.56 L 383.27 352.54 L 384.44 352.40 L 385.62 352.38 L 386.80 352.44 L 387.98 352.39 L 389.16 352.40 L 390.33 352.40 L 391.51 352.47 L 392.69 352.42 L 393.87 352.35 L 395.04 352.34 L 396.22 352.36 L 397.40 352.36 L 398.58 352.34 L 399.76 352.38 L 400.93 352.39 L 402.11 352.45 L 403.29 352.47 L 404.47 352.44 L 405.64 352.41 L 406.82 352.44 L 408.00 352.43 L 409.18 352.44 L 410.36 352.41 L 411.53 352.39 L 412.71 352.45 L 413.89 352.47 L 415.07 352.44 L 416.24 352.44 L 417.42 352.38 L 418.60 352.40 L 419.78 352.38 L 420.96 352.39 L 422.13 352.36 L 423.31 352.37 L 424.49 352.34 L 425.67 352.44 L 426.84 352.26 L 428.02 352.34 L 429.20 352.30 L 430.38 352.30 L 431.56 352.32 L 432.73 352.28 L 433.91 352.26 L 435.09 352.30 L 436.27 352.35 L 437.44 352.34 L 438.62 352.31 L 439.80 352.31 L 440.98 352.33 L 442.16 352.30 L 443.33 352.28 L 444.51 352.26 L 445.69 352.34 L 446.87 352.31 L 448.04 352.35 L 449.22 352.34 L 450.40 352.31 L 451.58 352.27 L 452.76 352.27 L 453.93 352.25 L 455.11 352.25 L 456.29 352.25 L 457.47 352.27 L 458.64 352.25 L 459.82 352.25 L 461.00 352.22 L 462.18 352.21 L 463.36 352.20 L 464.53 352.19 L 465.71 352.20 L 466.89 352.20 L 468.07 352.18 L 469.24 352.25 L 470.42 352.25 L 471.60 352.18 L 472.78 352.21 L 473.96 352.21 L 475.13 352.25 L 476.31 352.16 L 477.49 352.19 L 478.67 352.22 L 479.84 352.18 L 481.02 352.17 L 482.20 352.20 L 483.38 352.21 L 484.56 352.15 L 485.73 352.19 L 486.91 352.19 L 488.09 352.25 L 489.27 352.31 L 490.44 352.23 L 491.62 352.25 L 492.80 352.30 L 493.98 352.24 L 495.16 352.26 L 496.33 352.28 L 497.51 352.22 L 498.69 352.25 L 499.87 352.23 L 501.04 352.24 L 502.22 352.22 L 503.40 352.27 L 504.58 352.22 L 505.76 352.23 L 506.93 352.20 L 508.11 352.25 L 509.29 352.21 L 510.47 352.20 L 511.64 352.19 L 512.82 352.20 L 514.00 352.19 L 515.18 352.16 L 516.36 352.19 L 517.53 352.19 L 518.71 352.16 L 519.89 352.20 L 521.07 352.16 L 522.24 352.20 L 523.42 352.19 L 524.60 352.23 L 525.78 352.22 L 526.96 352.17 L 528.13 352.12 L 529.31 352.17 L 530.49 352.19 L 531.67 352.12 L 532.84 352.13 L 534.02 352.13 L 535.20 352.20 L 536.38 352.17 L 537.56 352.17 L 538.73 352.21 L 539.91 352.17 L 541.09 352.17 L 542.27 352.16 L 543.44 352.23 L 544.62 352.19 L 545.80 352.18 L 546.98 352.18 L 548.16 352.17 L 549.33 352.19 L 550.51 352.09 L 551.69 352.13 L 552.87 352.17 L 554.04 352.13 L 555.22 352.16 L 556.40 352.12 L 557.58 352.13 L 558.76 352.18 L 559.93 352.13 L 561.11 352.13 L 562.29 352.16 L 563.47 352.11 L 564.64 352.16 L 565.82 352.14 L 567.00 352.15 L 568.18 352.12 L 569.36 352.09 L 570.53 352.09 L 571.71 352.09 L 572.89 352.11 L 574.07 352.12 L 575.24 352.09 L 576.42 352.06 L 577.60 352.06 L 578.78 352.11 L 579.96 352.12 L 581.13 352.11 L 582.31 352.05 L 583.49 352.07 L 584.67 352.13 L 585.84 352.10 L 587.02 352.08 L 588.20 352.08 L 589.38 352.10 L 590.56 352.12 L 591.73 352.06 L 592.91 352.03 L 594.09 352.08 L 595.27 352.09 L 596.44 352.11 L 597.62 352.09 L 598.80 352.00 L 599.98 351.94 L 601.16 351.98 L 602.33 351.99 L 603.51 351.98 L 604.69 352.04 L 605.87 351.98 L 607.04 351.97 L 608.22 352.03 L 609.40 352.05 L 610.58 352.01 L 611.76 352.10 L 612.93 352.04 L 614.11 352.08 L 615.29 352.03 L 616.47 352.08 L 617.64 352.04 L 618.82 351.97 L 620.00 352.05 L 621.18 352.06 L 622.36 352.03 L 623.53 352.03 L 624.71 352.06 L 625.89 351.97 L 627.07 352.06 L 628.24 352.07 L 629.42 352.06 L 630.60 352.07 L 631.78 352.03 L 632.96 352.04 L 634.13 352.03 L 635.31 352.01 L 636.49 352.03 L 637.67 352.01 L 638.84 352.03 L 640.02 352.07 L 641.20 352.07 L 642.38 352.00 L 643.56 352.11 L 644.73 352.03 L 645.91 352.05 L 647.09 352.10 L 648.27 352.06 L 649.44 352.08 L 650.62 352.12 L 651.80 352.10 L 652.98 352.03 L 654.16 352.08 L 655.33 352.09 L 656.51 352.07 L 657.69 352.07 L 658.87 352.07 L 660.04 352.13 L 661.22 352.12 L 662.40 352.08 L 663.58 352.07 L 664.76 352.05 L 665.93 352.06 L 667.11 352.11 L 668.29 352.06 L 669.47 352.11 L 670.64 352.10 L 671.82 352.03 L 673.00 352.05 L 674.18 352.02 L 675.36 351.91 L 676.53 351.93 L 677.71 351.99 L 678.89 352.02 L 680.07 351.98 L 681.24 352.04 L 682.42 351.99 L 683.60 352.04 L 684.78 352.04 L 685.96 352.02 L 687.13 352.06 L 688.31 351.98 L 689.49 352.02 L 690.67 352.05 L 691.84 351.96 L 693.02 351.96 L 694.20 351.94 L 695.38 352.02 L 696.56 352.06 L 697.73 352.01 L 698.91 352.02 L 700.09 352.03 L 701.27 351.99 L 702.44 351.93 L 703.62 351.97 L 704.80 351.92 L 705.98 351.93 L 707.16 351.93 L 708.33 351.89 L 709.51 351.92 L 710.69 351.97 L 711.87 351.93 L 713.04 351.92 L 714.22 351.92 L 715.40 351.94 L 716.58 351.94 L 717.76 351.97 L 718.93 351.98 L 720.11 351.90 L 721.29 351.93 L 722.47 351.94 L 723.64 351.87 L 724.82 351.89 L 726.00 351.92 L 727.18 351.91 L 728.36 351.86 L 729.53 351.90 L 730.71 351.93 L 731.89 351.92 L 733.07 351.91 L 734.24 351.92 L 735.42 351.92 L 736.60 351.99 L 737.78 351.99 L 738.96 352.01 L 740.13 352.00 L 741.31 351.96 L 742.49 351.98 L 743.67 351.99 L 744.84 352.01 L 746.02 351.96 L 747.20 352.01 L 748.38 351.94 L 749.56 351.89 L 750.73 351.89 L 751.91 351.91 L 753.09 351.89 L 754.27 351.92 L 755.44 351.91 L 756.62 351.92 L 757.80 351.85 L 758.98 351.97 L 760.16 351.99 L 761.33 352.02 L 762.51 352.02 L 763.69 351.95 L 764.87 351.92 L 766.04 351.90 L 767.22 351.94 L 768.40 351.94 L 769.58 351.92 L 770.76 351.94 L 771.93 351.97 L 773.11 351.99 L 774.29 351.68 L 775.47 352.02 L 776.64 352.09 L 777.82 352.05 L 779.00 352.07 L 780.18 352.02 L 781.36 351.97 L 782.53 352.01 L 783.71 351.96 L 784.89 351.96 L 786.07 351.87 L 787.24 351.81 L 788.42 351.87 L 789.60 351.88 L 790.78 351.92 L 791.96 351.66 L 793.13 351.77 L 794.31 351.86 L 795.49 351.77 L 796.67 351.74 L 797.84 351.72 L 799.02 351.69 L 800.20 351.71 L 801.38 351.74 L 802.56 351.81 L 803.73 351.86 L 804.91 351.78 L 806.09 351.81 L 807.27 351.84 L 808.44 351.75 L 809.62 351.76 L 810.80 351.74 L 811.98 351.73 L 813.16 351.72 L 814.33 351.52 L 815.51 351.78 L 816.69 351.68 L 817.87 351.72 L 819.04 351.62 L 820.22 351.69 L 821.40 351.50 L 822.58 351.90 L 823.76 351.73 L 824.93 351.79 L 826.11 351.74 L 827.29 351.82 L 828.47 351.84 L 829.64 351.91 L 830.82 351.81 L 832.00 351.88 L 833.18 352.03 L 834.36 351.70 L 835.53 351.85 L 836.71 351.89 L 837.89 351.70 L 839.07 351.83 L 840.24 351.74 L 841.42 351.83 L 842.60 351.68 L 843.78 351.79 L 844.96 351.72 L 846.13 351.73 L 847.31 351.81 L 848.49 351.78 L 849.67 351.84 L 850.84 351.88 L 852.02 351.81 L 853.20 351.72 L 854.38 351.78 L 855.56 351.82 L 856.73 351.86 L 857.91 351.88 L 859.09 351.89 L 860.27 351.88 L 861.44 352.05 L 862.62 351.89 L 863.80 352.07 L 864.98 359.37 L 866.16 364.31 L 867.33 345.30 L 868.51 351.76 L 869.69 349.50 L 870.87 355.44 L 872.04 358.67 L 873.22 365.61 L 874.40 360.87 L 875.58 368.82 L 876.76 359.51 L 877.93 361.42 L 879.11 366.26 L 880.29 358.88 L 881.47 358.56 L 882.64 374.27 L 883.82 372.07 L 885.00 379.30 L 886.18 372.82 L 887.36 386.35 L 888.53 380.06 L 889.71 383.97 L 890.89 381.45 L 892.07 377.78 L 893.24 362.45 L 894.42 354.52 L 895.60 364.38 L 896.78 341.04 L 897.96 334.69 L 899.13 343.66 L 900.31 336.96 L 901.49 354.32 L 902.67 358.92 L 903.84 355.99 L 905.02 359.66 L 906.20 359.00 L 907.38 354.81 L 908.56 344.36 L 909.73 349.14 L 910.91 333.45 L 912.09 325.77 L 913.27 327.28 L 914.44 347.53 L 915.62 337.26 L 916.80 335.57 L 917.98 343.34 L 919.16 343.40 L 920.33 343.36 L 921.51 344.12 L 922.69 346.51 L 923.87 344.98 L 925.04 355.42 L 926.22 362.77 L 927.40 362.04 L 928.58 361.28 L 929.76 356.88 L 930.93 355.43 L 932.11 355.40 L 933.29 355.78 L 934.47 356.01 L 935.64 356.20 L 936.82 356.83 L 938.00 355.68 L 939.18 355.34 L 940.36 355.64 L 941.53 357.10 L 942.71 355.19 L 943.89 356.50 L 945.07 356.18 L 946.24 356.32 L 947.42 357.03 L 948.60 356.51 L 949.78 357.28 L 950.96 357.07 L 952.13 357.25 L 953.31 360.97 L 954.49 371.80 L 955.67 357.67 L 956.84 339.27 L 958.02 348.96 L 959.20 349.26 L 960.38 374.79 L 961.56 329.63 L 962.73 327.97 L 963.91 344.79 L 965.09 343.01 L 966.27 343.08 L 967.44 342.67 L 968.62 342.35 L 969.80 342.34 L 970.98 341.59 L 972.16 345.70 L 973.33 358.32" stroke="#2E7D32" />
<path class="series" d="M 160.67 426.36 L 161.84 429.11 L 163.02 429.21 L 164.20 429.62 L 165.38 427.95 L 166.56 417.77 L 167.73 409.28 L 168.91 419.55 L 170.09 426.54 L 171.27 424.37 L 172.44 419.29 L 173.62 416.82 L 174.80 418.48 L 175.98 421.38 L 177.16 420.03 L 178.33 421.68 L 179.51 422.68 L 180.69 424.81 L 181.87 425.40 L 183.04 423.01 L 184.22 420.43 L 185.40 421.46 L 186.58 421.44 L 187.76 421.72 L 188.93 425.11 L 190.11 423.91 L 191.29 426.57 L 192.47 428.21 L 193.64 427.04 L 194.82 422.87 L 196.00 423.00 L 197.18 417.43 L 198.36 411.15 L 199.53 407.97 L 200.71 411.83 L 201.89 418.43 L 203.07 416.16 L 204.24 419.77 L 205.42 426.96 L 206.60 427.21 L 207.78 426.68 L 208.96 418.06 L 210.13 411.90 L 211.31 409.48 L 212.49 410.36 L 213.67 409.28 L 214.84 416.24 L 216.02 419.95 L 217.20 426.42 L 218.38 434.51 L 219.56 428.33 L 220.73 409.77 L 221.91 414.63 L 223.09 423.25 L 224.27 420.23 L 225.44 415.26 L 226.62 417.13 L 227.80 413.33 L 228.98 412.54 L 230.16 413.89 L 231.33 411.52 L 232.51 414.66 L 233.69 417.05 L 234.87 419.52 L 236.04 422.02 L 237.22 416.29 L 238.40 416.67 L 239.58 419.84 L 240.76 409.77 L 241.93 404.23 L 243.11 410.30 L 244.29 413.93 L 245.47 414.65 L 246.64 418.82 L 247.82 418.84 L 249.00 413.23 L 250.18 418.56 L 251.36 423.19 L 252.53 424.51 L 253.71 431.33 L 254.89 426.80 L 256.07 434.09 L 257.24 457.83 L 258.42 445.43 L 259.60 440.49 L 260.78 439.99 L 261.96 436.34 L 263.13 435.18 L 264.31 417.38 L 265.49 424.32 L 266.67 428.28 L 267.84 430.24 L 269.02 429.06 L 270.20 428.90 L 271.38 429.31 L 272.56 429.45 L 273.73 429.30 L 274.91 429.18 L 276.09 429.20 L 277.27 429.31 L 278.44 430.20 L 279.62 428.62 L 280.80 429.26 L 281.98 428.82 L 283.16 429.31 L 284.33 429.36 L 285.51 429.33 L 286.69 429.38 L 287.87 429.40 L 289.04 429.35 L 290.22 429.35 L 291.40 429.48 L 292.58 429.44 L 293.76 429.39 L 294.93 429.41 L 296.11 429.45 L 297.29 429.35 L 298.47 429.37 L 299.64 429.40 L 300.82 429.43 L 302.00 429.43 L 303.18 429.39 L 304.36 429.40 L 305.53 429.39 L 306.71 429.40 L 307.89 429.41 L 309.07 429.43 L 310.24 429.37 L 311.42 429.42 L 312.60 429.40 L 313.78 429.51 L 314.96 429.41 L 316.13 429.41 L 317.31 429.44 L 318.49 429.38 L 319.67 429.42 L 320.84 429.43 L 322.02 429.42 L 323.20 429.42 L 324.38 429.40 L 325.56 429.36 L 326.73 429.40 L 327.91 429.50 L 329.09 429.43 L 330.27 429.41 L 331.44 429.45 L 332.62 429.41 L 333.80 429.47 L 334.98 429.40 L 336.16 429.40 L 337.33 429.46 L 338.51 429.45 L 339.69 429.47 L 340.87 429.39 L 342.04 429.43 L 343.22 429.37 L 344.40 429.45 L 345.58 429.41 L 346.76 429.42 L 347.93 429.44 L 349.11 429.42 L 350.29 429.39 L 351.47 429.39 L 352.64 429.37 L 353.82 429.42 L 355.00 429.37 L 356.18 429.47 L 357.36 429.42 L 358.53 429.32 L 359.71 429.36 L 360.89 429.36 L 362.07 429.40 L 363.24 429.35 L 364.42 429.35 L 365.60 429.36 L 366.78 429.35 L 367.96 429.34 L 369.13 429.34 L 370.31 429.37 L 371.49 429.33 L 372.67 429.34 L 373.84 429.41 L 375.02 429.38 L 376.20 429.38 L 377.38 429.41 L 378.56 429.46 L 379.73 429.36 L 380.91 429.43 L 382.09 429.38 L 383.27 429.34 L 384.44 429.38 L 385.62 429.33 L 386.80 429.36 L 387.98 429.33 L 389.16 429.28 L 390.33 429.39 L 391.51 429.33 L 392.69 429.34 L 393.87 429.36 L 395.04 429.29 L 396.22 429.35 L 397.40 429.37 L 398.58 429.34 L 399.76 429.33 L 400.93 429.29 L 402.11 429.40 L 403.29 429.39 L 404.47 429.39 L 405.64 429.36 L 406.82 429.40 L 408.00 429.40 L 409.18 429.39 L 410.36 429.37 L 411.53 429.39 L 412.71 429.43 L 413.89 429.36 L 415.07 429.38 L 416.24 429.36 L 417.42 429.38 L 418.60 429.38 L 419.78 429.40 L 420.96 429.38 L 422.13 429.34 L 423.31 429.43 L 424.49 429.38 L 425.67 429.39 L 426.84 429.42 L 428.02 429.40 L 429.20 429.41 L 430.38 429.43 L 431.56 429.42 L 432.73 429.41 L 433.91 429.39 L 435.09 429.37 L 436.27 429.36 L 437.44 429.42 L 438.62 429.35 L 439.80 429.40 L 440.98 429.36 L 442.16 429.43 L 443.33 429.40 L 444.51 429.40 L 445.69 429.38 L 446.87 429.38 L 448.04 429.40 L 449.22 429.39 L 450.40 429.42 L 451.58 429.34 L 452.76 429.36 L 453.93 429.37 L 455.11 429.33 L 456.29 429.37 L 457.47 429.31 L 458.64 429.32 L 459.82 429.38 L 461.00 429.34 L 462.18 429.31 L 463.36 429.31 L 464.53 429.31 L 465.71 429.32 L 466.89 429.39 L 468.07 429.35 L 469.24 429.34 L 470.42 429.35 L 471.60 429.35 L 472.78 429.32 L 473.96 429.32 L 475.13 429.34 L 476.31 429.33 L 477.49 429.31 L 478.67 429.34 L 479.84 429.31 L 481.02 429.29 L 482.20 429.35 L 483.38 429.36 L 484.56 429.33 L 485.73 429.34 L 486.91 429.30 L 488.09 429.43 L 489.27 429.41 L 490.44 429.41 L 491.62 429.40 L 492.80 429.40 L 493.98 429.41 L 495.16 429.44 L 496.33 429.40 L 497.51 429.39 L 498.69 429.41 L 499.87 429.38 L 501.04 429.42 L 502.22 429.40 L 503.40 429.40 L 504.58 429.41 L 505.76 429.39 L 506.93 429.35 L 508.11 429.40 L 509.29 429.45 L 510.47 429.38 L 511.64 429.42 L 512.82 429.41 L 514.00 429.41 L 515.18 429.37 L 516.36 429.39 L 517.53 429.39 L 518.71 429.35 L 519.89 429.35 L 521.07 429.41 L 522.24 429.39 L 523.42 429.39 L 524.60 429.40 L 525.78 429.39 L 526.96 429.44 L 528.13 429.41 L 529.31 429.38 L 530.49 429.36 L 531.67 429.41 L 532.84 429.43 L 534.02 429.36 L 535.20 429.39 L 536.38 429.42 L 537.56 429.44 L 538.73 429.44 L 539.91 429.37 L 541.09 429.38 L 542.27 429.41 L 543.44 429.41 L 544.62 429.39 L 545.80 429.39 L 546.98 429.44 L 548.16 429.45 L 549.33 429.36 L 550.51 429.36 L 551.69 429.43 L 552.87 429.44 L 554.04 429.39 L 555.22 429.36 L 556.40 429.42 L 557.58 429.38 L 558.76 429.40 L 559.93 429.42 L 561.11 429.37 L 562.29 429.40 L 563.47 429.39 L 564.64 429.39 L 565.82 429.37 L 567.00 429.37 L 568.18 429.35 L 569.36 429.40 L 570.53 429.41 L 571.71 429.39 L 572.89 429.38 L 574.07 429.38 L 575.24 429.39 L 576.42 429.37 L 577.60 429.35 L 578.78 429.37 L 579.96 429.37 L 581.13 429.38 L 582.31 429.39 L 583.49 429.40 L 584.67 429.37 L 585.84 429.42 L 587.02 429.41 L 588.20 429.41 L 589.38 429.40 L 590.56 429.37 L 591.73 429.37 L 592.91 429.37 L 594.09 429.42 L 595.27 429.38 L 596.44 429.33 L 597.62 429.41 L 598.80 429.30 L 599.98 429.31 L 601.16 429.37 L 602.33 429.34 L 603.51 429.28 L 604.69 429.34 L 605.87 429.36 L 607.04 429.32 L 608.22 429.39 L 609.40 429.43 L 610.58 429.39 L 611.76 429.36 L 612.93 429.40 L 614.11 429.40 L 615.29 429.41 L 616.47 429.38 L 617.64 429.44 L 618.82 429.36 L 620.00 429.39 L 621.18 429.38 L 622.36 429.34 L 623.53 429.38 L 624.71 429.37 L 625.89 429.35 L 627.07 429.35 L 628.24 429.41 L 629.42 429.33 L 630.60 429.38 L 631.78 429.38 L 632.96 429.36 L 634.13 429.36 L 635.31 429.35 L 636.49 429.38 L 637.67 429.35 L 638.84 429.38 L 640.02 429.42 L 641.20 429.33 L 642.38 429.32 L 643.56 429.35 L 644.73 429.38 L 645.91 429.42 L 647.09 429.35 L 648.27 429.39 L 649.44 429.44 L 650.62 429.38 L 651.80 429.35 L 652.98 429.34 L 654.16 429.35 L 655.33 429.41 L 656.51 429.39 L 657.69 429.34 L 658.87 429.39 L 660.04 429.36 L 661.22 429.43 L 662.40 429.34 L 663.58 429.32 L 664.76 429.35 L 665.93 429.36 L 667.11 429.38 L 668.29 429.40 L 669.47 429.35 L 670.64 429.38 L 671.82 429.35 L 673.00 429.37 L 674.18 429.33 L 675.36 429.38 L 676.53 429.33 L 677.71 429.31 L 678.89 429.37 L 680.07 429.33 L 681.24 429.42 L 682.42 429.40 L 683.60 429.41 L 684.78 429.42 L 685.96 429.47 L 687.13 429.34 L 688.31 429.43 L 689.49 429.40 L 690.67 429.40 L 691.84 429.30 L 693.02 429.38 L 694.20 429.38 L 695.38 429.40 L 696.56 429.42 L 697.73 429.42 L 698.91 429.40 L 700.09 429.40 L 701.27 429.43 L 702.44 429.34 L 703.62 429.35 L 704.80 429.37 L 705.98 429.34 L 707.16 429.37 L 708.33 429.39 L 709.51 429.36 L 710.69 429.37 L 711.87 429.36 L 713.04 429.34 L 714.22 429.34 L 715.40 429.38 L 716.58 429.38 L 717.76 429.35 L 718.93 429.40 L 720.11 429.41 L 721.29 429.39 L 722.47 429.39 L 723.64 429.38 L 724.82 429.38 L 726.00 429.42 L 727.18 429.38 L 728.36 429.40 L 729.53 429.37 L 730.71 429.38 L 731.89 429.43 L 733.07 429.34 L 734.24 429.38 L 735.42 429.35 L 736.60 429.41 L 737.78 429.44 L 738.96 429.44 L 740.13 429.35 L 741.31 429.41 L 742.49 429.38 L 743.67 429.47 L 744.84 429.47 L 746.02 429.45 L 747.20 429.43 L 748.38 429.50 L 749.56 429.53 L 750.73 429.45 L 751.91 429.41 L 753.09 429.46 L 754.27 429.47 L 755.44 429.39 L 756.62 429.45 L 757.80 429.43 L 758.98 429.35 L 760.16 429.39 L 761.33 429.35 L 762.51 429.45 L 763.69 429.32 L 764.87 429.31 L 766.04 429.37 L 767.22 429.35 L 768.40 429.33 L 769.58 429.34 L 770.76 429.35 L 771.93 429.37 L 773.11 429.42 L 774.29 429.40 L 775.47 429.36 L 776.64 429.39 L 777.82 429.35 L 779.00 429.38 L 780.18 429.35 L 781.36 429.24 L 782.53 429.17 L 783.71 429.33 L 784.89 429.30 L 786.07 429.51 L 787.24 429.31 L 788.42 429.30 L 789.60 429.36 L 790.78 429.40 L 791.96 429.34 L 793.13 429.30 L 794.31 429.39 L 795.49 429.33 L 796.67 429.32 L 797.84 429.29 L 799.02 429.29 L 800.20 429.37 L 801.38 429.33 L 802.56 429.35 L 803.73 429.36 L 804.91 429.38 L 806.09 429.37 L 807.27 429.34 L 808.44 429.31 L 809.62 429.30 L 810.80 429.31 L 811.98 429.27 L 813.16 429.31 L 814.33 428.53 L 815.51 429.25 L 816.69 429.24 L 817.87 429.20 L 819.04 429.30 L 820.22 429.26 L 821.40 429.22 L 822.58 429.65 L 823.76 429.60 L 824.93 429.57 L 826.11 429.53 L 827.29 429.49 L 828.47 429.58 L 829.64 429.57 L 830.82 429.64 L 832.00 429.54 L 833.18 429.81 L 834.36 429.65 L 835.53 429.60 L 836.71 429.38 L 837.89 429.55 L 839.07 429.44 L 840.24 429.54 L 841.42 429.42 L 842.60 429.45 L 843.78 429.47 L 844.96 429.45 L 846.13 429.48 L 847.31 429.39 L 848.49 429.51 L 849.67 429.50 L 850.84 429.57 L 852.02 429.45 L 853.20 429.55 L 854.38 429.40 L 855.56 429.53 L 856.73 429.40 L 857.91 429.50 L 859.09 429.32 L 860.27 429.48 L 861.44 429.46 L 862.62 429.48 L 863.80 429.46 L 864.98 430.45 L 866.16 436.76 L 867.33 429.65 L 868.51 427.87 L 869.69 449.04 L 870.87 401.51 L 872.04 422.79 L 873.22 414.70 L 874.40 416.14 L 875.58 411.36 L 876.76 410.90 L 877.93 431.77 L 879.11 426.00 L 880.29 441.64 L 881.47 444.95 L 882.64 444.11 L 883.82 436.63 L 885.00 418.78 L 886.18 419.94 L 887.36 426.35 L 888.53 415.78 L 889.71 409.96 L 890.89 413.01 L 892.07 423.84 L 893.24 424.07 L 894.42 444.08 L 895.60 421.82 L 896.78 419.49 L 897.96 429.72 L 899.13 403.80 L 900.31 393.17 L 901.49 406.94 L 902.67 412.68 L 903.84 417.44 L 905.02 425.78 L 906.20 439.41 L 907.38 446.62 L 908.56 452.56 L 909.73 442.07 L 910.91 429.49 L 912.09 408.19 L 913.27 412.47 L 914.44 414.68 L 915.62 418.91 L 916.80 419.31 L 917.98 414.39 L 919.16 415.23 L 920.33 408.29 L 921.51 410.97 L 922.69 416.33 L 923.87 410.66 L 925.04 415.80 L 926.22 423.43 L 927.40 418.13 L 928.58 417.52 L 929.76 416.99 L 930.93 416.82 L 932.11 418.10 L 933.29 418.20 L 934.47 418.35 L 935.64 418.47 L 936.82 418.80 L 938.00 417.52 L 939.18 417.74 L 940.36 417.53 L 941.53 418.21 L 942.71 417.56 L 943.89 418.53 L 945.07 418.43 L 946.24 418.06 L 947.42 419.24 L 948.60 418.45 L 949.78 417.49 L 950.96 417.62 L 952.13 418.14 L 953.31 416.98 L 954.49 417.24 L 955.67 422.65 L 956.84 409.58 L 958.02 415.01 L 959.20 415.31 L 960.38 410.98 L 961.56 415.48 L 962.73 406.01 L 963.91 405.68 L 965.09 407.18 L 966.27 406.37 L 967.44 406.97 L 968.62 406.70 L 969.80 406.67 L 970.98 406.14 L 972.16 409.08 L 973.33 418.68" stroke="#6A1B9A" />
<line x1="900.00" y1="307.75" x2="918.00" y2="307.75" stroke="#2E7D32" stroke-width="3" />
<text class="small" x="924.00" y="311.75">pitch</text>
<line x1="900.00" y1="323.75" x2="918.00" y2="323.75" stroke="#6A1B9A" stroke-width="3" />
<text class="small" x="924.00" y="327.75">roll</text>
<text x="90" y="500.50" font-size="14" font-weight="700">Aceleração (magnitude) (u.a.)</text>
<rect class="event" x="266.67" y="506.50" width="600.67" height="192.75" />
<line class="eventline" x1="266.67" y1="506.50" x2="266.67" y2="699.25" />
<line class="eventline" x1="867.33" y1="506.50" x2="867.33" y2="699.25" />
<line class="grid" x1="90" y1="699.25" x2="1150" y2="699.25" />
<text class="small" x="80" y="703.25" text-anchor="end">0.00</text>
<line class="grid" x1="90" y1="660.70" x2="1150" y2="660.70" />
<text class="small" x="80" y="664.70" text-anchor="end">0.20</text>
<line class="grid" x1="90" y1="622.15" x2="1150" y2="622.15" />
<text class="small" x="80" y="626.15" text-anchor="end">0.40</text>
<line class="grid" x1="90" y1="583.60" x2="1150" y2="583.60" />
<text class="small" x="80" y="587.60" text-anchor="end">0.60</text>
<line class="grid" x1="90" y1="545.05" x2="1150" y2="545.05" />
<text class="small" x="80" y="549.05" text-anchor="end">0.80</text>
<line class="grid" x1="90" y1="506.50" x2="1150" y2="506.50" />
<text class="small" x="80" y="510.50" text-anchor="end">1.00</text>
<line class="grid" x1="90.00" y1="506.50" x2="90.00" y2="699.25" />
<line class="grid" x1="266.67" y1="506.50" x2="266.67" y2="699.25" />
<line class="grid" x1="443.33" y1="506.50" x2="443.33" y2="699.25" />
<line class="grid" x1="620.00" y1="506.50" x2="620.00" y2="699.25" />
<line class="grid" x1="796.67" y1="506.50" x2="796.67" y2="699.25" />
<line class="grid" x1="973.33" y1="506.50" x2="973.33" y2="699.25" />
<line class="grid" x1="1150.00" y1="506.50" x2="1150.00" y2="699.25" />
<line class="axis" x1="90" y1="506.50" x2="90" y2="699.25" />
<line class="axis" x1="90" y1="699.25" x2="1150" y2="699.25" />
<path class="series" d="M 160.67 689.82 L 161.84 695.45 L 163.02 678.64 L 164.20 687.78 L 165.38 680.83 L 166.56 690.48 L 167.73 689.59 L 168.91 688.12 L 170.09 676.28 L 171.27 680.68 L 172.44 695.85 L 173.62 684.00 L 174.80 688.53 L 175.98 686.53 L 177.16 694.88 L 178.33 689.96 L 179.51 687.03 L 180.69 695.19 L 181.87 689.84 L 183.04 691.25 L 184.22 689.35 L 185.40 688.05 L 186.58 696.00 L 187.76 690.60 L 188.93 691.52 L 190.11 680.76 L 191.29 689.60 L 192.47 696.00 L 193.64 691.47 L 194.82 684.24 L 196.00 685.74 L 197.18 696.21 L 198.36 690.04 L 199.53 681.18 L 200.71 695.73 L 201.89 683.94 L 203.07 695.98 L 204.24 675.27 L 205.42 687.25 L 206.60 670.58 L 207.78 665.08 L 208.96 668.78 L 210.13 693.41 L 211.31 686.77 L 212.49 692.78 L 213.67 691.81 L 214.84 691.30 L 216.02 668.97 L 217.20 681.51 L 218.38 669.41 L 219.56 670.19 L 220.73 683.36 L 221.91 678.58 L 223.09 690.77 L 224.27 678.85 L 225.44 677.61 L 226.62 686.47 L 227.80 681.22 L 228.98 693.66 L 230.16 680.41 L 231.33 686.12 L 232.51 686.23 L 233.69 691.49 L 234.87 688.44 L 236.04 688.51 L 237.22 688.38 L 238.40 684.28 L 239.58 687.88 L 240.76 668.84 L 241.93 673.18 L 243.11 690.70 L 244.29 678.40 L 245.47 679.90 L 246.64 692.79 L 247.82 689.64 L 249.00 652.32 L 250.18 682.95 L 251.36 678.07 L 252.53 656.85 L 253.71 667.23 L 254.89 654.86 L 256.07 672.79 L 257.24 597.88 L 258.42 672.19 L 259.60 658.51 L 260.78 691.26 L 261.96 678.26 L 263.13 604.25 L 264.31 637.34 L 265.49 694.23 L 266.67 680.22 L 267.84 694.94 L 269.02 698.41 L 270.20 696.62 L 271.38 698.82 L 272.56 698.29 L 273.73 698.41 L 274.91 698.25 L 276.09 698.79 L 277.27 698.88 L 278.44 698.97 L 279.62 678.11 L 280.80 696.33 L 281.98 698.08 L 283.16 691.99 L 284.33 698.40 L 285.51 698.78 L 286.69 699.21 L 287.87 698.87 L 289.04 698.78 L 290.22 698.61 L 291.40 698.85 L 292.58 698.98 L 293.76 698.96 L 294.93 698.87 L 296.11 698.70 L 297.29 698.57 L 298.47 699.04 L 299.64 699.03 L 300.82 698.98 L 302.00 699.00 L 303.18 699.16 L 304.36 699.01 L 305.53 699.16 L 306.71 698.98 L 307.89 698.75 L 309.07 699.06 L 310.24 698.86 L 311.42 698.95 L 312.60 699.15 L 313.78 699.02 L 314.96 699.02 L 316.13 699.18 L 317.31 699.08 L 318.49 699.14 L 319.67 699.05 L 320.84 698.86 L 322.02 698.91 L 323.20 699.09 L 324.38 699.12 L 325.56 699.03 L 326.73 699.09 L 327.91 699.07 L 329.09 698.99 L 330.27 699.14 L 331.44 699.09 L 332.62 699.01 L 333.80 699.05 L 334.98 699.10 L 336.16 699.15 L 337.33 699.18 L 338.51 699.18 L 339.69 699.16 L 340.87 699.16 L 342.04 699.12 L 343.22 699.01 L 344.40 698.96 L 345.58 699.17 L 346.76 699.10 L 347.93 699.00 L 349.11 699.12 L 350.29 699.07 L 351.47 698.97 L 352.64 699.05 L 353.82 699.09 L 355.00 699.03 L 356.18 698.98 L 357.36 698.89 L 358.53 699.05 L 359.71 699.07 L 360.89 699.15 L 362.07 699.06 L 363.24 699.17 L 364.42 699.06 L 365.60 698.90 L 366.78 698.94 L 367.96 699.04 L 369.13 699.04 L 370.31 698.85 L 371.49 699.19 L 372.67 699.16 L 373.84 698.97 L 375.02 699.09 L 376.20 698.94 L 377.38 699.08 L 378.56 699.21 L 379.73 698.80 L 380.91 698.99 L 382.09 698.97 L 383.27 698.91 L 384.44 699.12 L 385.62 699.15 L 386.80 699.11 L 387.98 699.09 L 389.16 699.07 L 390.33 698.95 L 391.51 699.02 L 392.69 699.04 L 393.87 698.98 L 395.04 699.08 L 396.22 699.12 L 397.40 699.20 L 398.58 699.15 L 399.76 698.88 L 400.93 698.90 L 402.11 699.06 L 403.29 698.86 L 404.47 699.17 L 405.64 699.03 L 406.82 698.98 L 408.00 699.18 L 409.18 699.15 L 410.36 699.19 L 411.53 699.12 L 412.71 699.05 L 413.89 699.11 L 415.07 699.01 L 416.24 699.07 L 417.42 699.03 L 418.60 698.92 L 419.78 699.05 L 420.96 699.09 L 422.13 699.18 L 423.31 698.78 L 424.49 699.12 L 425.67 698.93 L 426.84 699.09 L 428.02 698.98 L 429.20 699.23 L 430.38 699.17 L 431.56 699.12 L 432.73 699.07 L 433.91 699.16 L 435.09 699.07 L 436.27 699.14 L 437.44 698.91 L 438.62 699.09 L 439.80 699.09 L 440.98 699.01 L 442.16 699.15 L 443.33 699.05 L 444.51 699.07 L 445.69 699.00 L 446.87 699.08 L 448.04 698.97 L 449.22 699.02 L 450.40 699.07 L 451.58 699.04 L 452.76 699.19 L 453.93 699.09 L 455.11 699.14 L 456.29 699.13 L 457.47 699.05 L 458.64 698.97 L 459.82 699.00 L 461.00 699.06 L 462.18 699.02 L 463.36 699.10 L 464.53 698.94 L 465.71 699.14 L 466.89 699.13 L 468.07 699.17 L 469.24 698.91 L 470.42 699.14 L 471.60 699.12 L 472.78 699.07 L 473.96 699.02 L 475.13 699.11 L 476.31 699.18 L 477.49 699.02 L 478.67 699.18 L 479.84 699.09 L 481.02 698.97 L 482.20 699.14 L 483.38 699.17 L 484.56 699.09 L 485.73 698.96 L 486.91 698.97 L 488.09 698.99 L 489.27 699.00 L 490.44 698.98 L 491.62 699.05 L 492.80 698.97 L 493.98 699.16 L 495.16 699.06 L 496.33 699.03 L 497.51 698.99 L 498.69 699.13 L 499.87 699.09 L 501.04 699.11 L 502.22 699.08 L 503.40 699.10 L 504.58 699.05 L 505.76 699.13 L 506.93 699.06 L 508.11 699.12 L 509.29 699.16 L 510.47 699.02 L 511.64 699.12 L 512.82 699.09 L 514.00 699.04 L 515.18 699.01 L 516.36 699.05 L 517.53 699.08 L 518.71 698.96 L 519.89 699.21 L 521.07 699.03 L 522.24 698.95 L 523.42 699.14 L 524.60 699.08 L 525.78 699.00 L 526.96 699.10 L 528.13 699.17 L 529.31 698.97 L 530.49 699.00 L 531.67 699.05 L 532.84 699.15 L 534.02 699.00 L 535.20 699.06 L 536.38 699.13 L 537.56 698.98 L 538.73 699.04 L 539.91 699.19 L 541.09 699.03 L 542.27 698.97 L 543.44 699.04 L 544.62 699.13 L 545.80 699.13 L 546.98 699.15 L 548.16 699.05 L 549.33 699.05 L 550.51 699.09 L 551.69 699.07 L 552.87 698.76 L 554.04 699.09 L 555.22 698.97 L 556.40 698.82 L 557.58 699.06 L 558.76 698.94 L 559.93 699.05 L 561.11 699.04 L 562.29 699.02 L 563.47 699.11 L 564.64 699.14 L 565.82 699.04 L 567.00 699.11 L 568.18 698.95 L 569.36 699.05 L 570.53 698.95 L 571.71 699.00 L 572.89 699.17 L 574.07 698.95 L 575.24 699.09 L 576.42 699.11 L 577.60 699.17 L 578.78 699.20 L 579.96 699.00 L 581.13 699.18 L 582.31 699.01 L 583.49 699.16 L 584.67 699.07 L 585.84 699.04 L 587.02 699.06 L 588.20 699.01 L 589.38 699.07 L 590.56 698.92 L 591.73 699.19 L 592.91 699.14 L 594.09 699.07 L 595.27 699.09 L 596.44 699.16 L 597.62 699.22 L 598.80 698.79 L 599.98 699.07 L 601.16 699.01 L 602.33 699.19 L 603.51 699.06 L 604.69 699.08 L 605.87 698.86 L 607.04 698.93 L 608.22 699.05 L 609.40 699.12 L 610.58 699.04 L 611.76 699.05 L 612.93 699.15 L 614.11 699.02 L 615.29 699.07 L 616.47 699.01 L 617.64 698.98 L 618.82 698.94 L 620.00 699.11 L 621.18 699.16 L 622.36 699.10 L 623.53 699.05 L 624.71 699.19 L 625.89 698.95 L 627.07 699.14 L 628.24 699.12 L 629.42 699.10 L 630.60 699.18 L 631.78 699.18 L 632.96 699.13 L 634.13 699.08 L 635.31 699.03 L 636.49 698.93 L 637.67 699.08 L 638.84 698.97 L 640.02 698.66 L 641.20 699.09 L 642.38 699.06 L 643.56 699.05 L 644.73 699.07 L 645.91 699.13 L 647.09 699.09 L 648.27 699.05 L 649.44 699.18 L 650.62 699.05 L 651.80 699.04 L 652.98 699.13 L 654.16 699.07 L 655.33 698.78 L 656.51 699.18 L 657.69 698.99 L 658.87 699.04 L 660.04 699.15 L 661.22 699.19 L 662.40 698.93 L 663.58 699.07 L 664.76 699.04 L 665.93 699.04 L 667.11 699.04 L 668.29 699.11 L 669.47 699.08 L 670.64 698.96 L 671.82 699.14 L 673.00 699.06 L 674.18 698.98 L 675.36 699.00 L 676.53 699.10 L 677.71 698.80 L 678.89 699.06 L 680.07 699.12 L 681.24 699.05 L 682.42 698.96 L 683.60 699.02 L 684.78 699.07 L 685.96 699.13 L 687.13 699.10 L 688.31 699.10 L 689.49 699.04 L 690.67 699.19 L 691.84 698.90 L 693.02 698.92 L 694.20 699.02 L 695.38 699.11 L 696.56 699.03 L 697.73 699.17 L 698.91 699.10 L 700.09 698.98 L 701.27 698.98 L 702.44 698.94 L 703.62 699.08 L 704.80 699.02 L 705.98 699.05 L 707.16 699.12 L 708.33 698.98 L 709.51 699.09 L 710.69 699.16 L 711.87 699.20 L 713.04 699.10 L 714.22 699.06 L 715.40 699.03 L 716.58 699.06 L 717.76 699.04 L 718.93 699.10 L 720.11 698.96 L 721.29 699.12 L 722.47 699.12 L 723.64 699.00 L 724.82 699.14 L 726.00 699.21 L 727.18 699.11 L 728.36 699.21 L 729.53 699.05 L 730.71 699.10 L 731.89 699.02 L 733.07 699.00 L 734.24 699.08 L 735.42 699.17 L 736.60 699.12 L 737.78 699.19 L 738.96 698.99 L 740.13 698.85 L 741.31 699.13 L 742.49 698.79 L 743.67 698.96 L 744.84 699.12 L 746.02 699.19 L 747.20 698.99 L 748.38 698.80 L 749.56 698.95 L 750.73 699.11 L 751.91 698.98 L 753.09 699.00 L 754.27 699.07 L 755.44 699.05 L 756.62 699.03 L 757.80 698.97 L 758.98 698.50 L 760.16 698.60 L 761.33 698.86 L 762.51 698.96 L 763.69 698.83 L 764.87 698.94 L 766.04 699.02 L 767.22 698.98 L 768.40 698.92 L 769.58 698.99 L 770.76 699.03 L 771.93 699.08 L 773.11 699.03 L 774.29 694.86 L 775.47 698.86 L 776.64 699.15 L 777.82 699.13 L 779.00 698.92 L 780.18 698.84 L 781.36 699.13 L 782.53 699.05 L 783.71 698.86 L 784.89 698.27 L 786.07 698.49 L 787.24 698.91 L 788.42 698.78 L 789.60 699.05 L 790.78 699.06 L 791.96 696.97 L 793.13 698.92 L 794.31 698.99 L 795.49 698.97 L 796.67 699.06 L 797.84 699.03 L 799.02 699.01 L 800.20 698.92 L 801.38 698.92 L 802.56 698.91 L 803.73 699.16 L 804.91 698.98 L 806.09 699.07 L 807.27 699.18 L 808.44 698.99 L 809.62 699.00 L 810.80 699.05 L 811.98 699.11 L 813.16 699.05 L 814.33 697.28 L 815.51 698.49 L 816.69 698.79 L 817.87 698.73 L 819.04 698.78 L 820.22 698.79 L 821.40 697.15 L 822.58 698.49 L 823.76 698.63 L 824.93 698.55 L 826.11 699.00 L 827.29 698.89 L 828.47 698.93 L 829.64 698.60 L 830.82 698.61 L 832.00 698.79 L 833.18 697.02 L 834.36 698.34 L 835.53 697.88 L 836.71 698.49 L 837.89 699.08 L 839.07 698.76 L 840.24 698.64 L 841.42 698.78 L 842.60 698.69 L 843.78 698.35 L 844.96 698.91 L 846.13 698.68 L 847.31 698.59 L 848.49 698.77 L 849.67 698.86 L 850.84 698.47 L 852.02 698.39 L 853.20 698.38 L 854.38 698.97 L 855.56 698.50 L 856.73 698.60 L 857.91 698.59 L 859.09 698.91 L 860.27 698.98 L 861.44 698.16 L 862.62 697.69 L 863.80 698.86 L 864.98 662.87 L 866.16 677.11 L 867.33 679.30 L 868.51 671.91 L 869.69 637.67 L 870.87 625.23 L 872.04 673.37 L 873.22 664.90 L 874.40 651.31 L 875.58 676.80 L 876.76 654.98 L 877.93 589.23 L 879.11 634.01 L 880.29 640.49 L 881.47 563.50 L 882.64 556.92 L 883.82 656.65 L 885.00 641.84 L 886.18 663.61 L 887.36 642.81 L 888.53 665.04 L 889.71 655.24 L 890.89 676.95 L 892.07 652.41 L 893.24 674.13 L 894.42 674.89 L 895.60 615.54 L 896.78 659.19 L 897.96 672.93 L 899.13 594.93 L 900.31 609.58 L 901.49 571.54 L 902.67 580.47 L 903.84 642.89 L 905.02 628.36 L 906.20 642.14 L 907.38 662.49 L 908.56 603.81 L 909.73 652.96 L 910.91 585.18 L 912.09 588.88 L 913.27 633.16 L 914.44 682.48 L 915.62 680.73 L 916.80 684.42 L 917.98 667.85 L 919.16 691.91 L 920.33 679.14 L 921.51 654.90 L 922.69 689.97 L 923.87 694.13 L 925.04 678.12 L 926.22 691.03 L 927.40 682.15 L 928.58 685.29 L 929.76 689.82 L 930.93 698.30 L 932.11 696.96 L 933.29 697.20 L 934.47 698.20 L 935.64 698.61 L 936.82 693.34 L 938.00 692.71 L 939.18 695.62 L 940.36 698.92 L 941.53 690.17 L 942.71 695.81 L 943.89 697.36 L 945.07 694.46 L 946.24 692.38 L 947.42 697.46 L 948.60 696.55 L 949.78 697.46 L 950.96 696.02 L 952.13 690.71 L 953.31 689.13 L 954.49 607.18 L 955.67 589.81 L 956.84 633.08 L 958.02 636.84 L 959.20 674.72 L 960.38 652.39 L 961.56 586.96 L 962.73 640.49 L 963.91 673.41 L 965.09 684.34 L 966.27 696.59 L 967.44 697.03 L 968.62 698.01 L 969.80 697.27 L 970.98 698.84 L 972.16 633.71 L 973.33 658.74" stroke="#FB8C00" />
<text x="90" y="711.25" font-size="14" font-weight="700">Giroscópio (magnitude) (u.a.)</text>
<rect class="event" x="266.67" y="717.25" width="600.67" height="192.75" />
<line class="eventline" x1="266.67" y1="717.25" x2="266.67" y2="910.00" />
<line class="eventline" x1="867.33" y1="717.25" x2="867.33" y2="910.00" />
<line class="grid" x1="90" y1="910.00" x2="1150" y2="910.00" />
<text class="small" x="80" y="914.00" text-anchor="end">0.00</text>
<line class="grid" x1="90" y1="871.45" x2="1150" y2="871.45" />
<text class="small" x="80" y="875.45" text-anchor="end">0.05</text>
<line class="grid" x1="90" y1="832.90" x2="1150" y2="832.90" />
<text class="small" x="80" y="836.90" text-anchor="end">0.10</text>
<line class="grid" x1="90" y1="794.35" x2="1150" y2="794.35" />
<text class="small" x="80" y="798.35" text-anchor="end">0.15</text>
<line class="grid" x1="90" y1="755.80" x2="1150" y2="755.80" />
<text class="small" x="80" y="759.80" text-anchor="end">0.20</text>
<line class="grid" x1="90" y1="717.25" x2="1150" y2="717.25" />
<text class="small" x="80" y="721.25" text-anchor="end">0.25</text>
<line class="grid" x1="90.00" y1="717.25" x2="90.00" y2="910.00" />
<line class="grid" x1="266.67" y1="717.25" x2="266.67" y2="910.00" />
<line class="grid" x1="443.33" y1="717.25" x2="443.33" y2="910.00" />
<line class="grid" x1="620.00" y1="717.25" x2="620.00" y2="910.00" />
<line class="grid" x1="796.67" y1="717.25" x2="796.67" y2="910.00" />
<line class="grid" x1="973.33" y1="717.25" x2="973.33" y2="910.00" />
<line class="grid" x1="1150.00" y1="717.25" x2="1150.00" y2="910.00" />
<line class="axis" x1="90" y1="717.25" x2="90" y2="910.00" />
<line class="axis" x1="90" y1="910.00" x2="1150" y2="910.00" />
<path class="series" d="M 160.67 901.92 L 161.84 902.99 L 163.02 906.97 L 164.20 906.62 L 165.38 904.63 L 166.56 905.68 L 167.73 903.75 L 168.91 903.64 L 170.09 903.32 L 171.27 901.01 L 172.44 904.19 L 173.62 904.05 L 174.80 902.34 L 175.98 902.60 L 177.16 906.83 L 178.33 908.61 L 179.51 906.17 L 180.69 907.84 L 181.87 907.43 L 183.04 904.93 L 184.22 905.75 L 185.40 907.94 L 186.58 909.59 L 187.76 906.05 L 188.93 908.28 L 190.11 907.99 L 191.29 903.90 L 192.47 907.51 L 193.64 904.30 L 194.82 907.21 L 196.00 902.67 L 197.18 905.41 L 198.36 903.15 L 199.53 903.07 L 200.71 902.98 L 201.89 905.55 L 203.07 906.84 L 204.24 903.48 L 205.42 905.96 L 206.60 899.67 L 207.78 886.02 L 208.96 900.41 L 210.13 897.11 L 211.31 906.63 L 212.49 908.13 L 213.67 907.02 L 214.84 906.81 L 216.02 900.94 L 217.20 893.89 L 218.38 903.12 L 219.56 898.01 L 220.73 901.97 L 221.91 892.49 L 223.09 900.47 L 224.27 902.35 L 225.44 906.84 L 226.62 905.05 L 227.80 902.62 L 228.98 897.58 L 230.16 900.27 L 231.33 906.44 L 232.51 905.82 L 233.69 905.59 L 234.87 902.36 L 236.04 904.21 L 237.22 900.87 L 238.40 900.99 L 239.58 888.83 L 240.76 902.46 L 241.93 897.90 L 243.11 902.05 L 244.29 903.34 L 245.47 901.30 L 246.64 905.48 L 247.82 889.58 L 249.00 893.68 L 250.18 900.29 L 251.36 896.25 L 252.53 892.28 L 253.71 880.60 L 254.89 855.58 L 256.07 844.31 L 257.24 865.07 L 258.42 886.65 L 259.60 884.94 L 260.78 886.49 L 261.96 884.73 L 263.13 851.97 L 264.31 849.62 L 265.49 887.28 L 266.67 907.64 L 267.84 909.51 L 269.02 909.06 L 270.20 909.59 L 271.38 909.62 L 272.56 909.74 L 273.73 909.75 L 274.91 909.76 L 276.09 909.77 L 277.27 909.69 L 278.44 909.69 L 279.62 906.70 L 280.80 909.73 L 281.98 909.56 L 283.16 909.78 L 284.33 909.81 L 285.51 909.84 L 286.69 909.83 L 287.87 909.85 L 289.04 909.82 L 290.22 909.48 L 291.40 909.79 L 292.58 909.83 L 293.76 909.84 L 294.93 909.84 L 296.11 909.74 L 297.29 909.81 L 298.47 909.87 L 299.64 909.95 L 300.82 909.78 L 302.00 909.84 L 303.18 909.97 L 304.36 909.88 L 305.53 909.94 L 306.71 909.90 L 307.89 909.87 L 309.07 909.95 L 310.24 909.87 L 311.42 909.92 L 312.60 909.80 L 313.78 909.79 L 314.96 909.90 L 316.13 909.81 L 317.31 909.88 L 318.49 909.80 L 319.67 909.91 L 320.84 909.87 L 322.02 909.84 L 323.20 909.96 L 324.38 909.80 L 325.56 909.85 L 326.73 909.88 L 327.91 909.88 L 329.09 909.77 L 330.27 909.91 L 331.44 909.86 L 332.62 909.84 L 333.80 909.86 L 334.98 909.93 L 336.16 909.88 L 337.33 909.91 L 338.51 909.96 L 339.69 909.88 L 340.87 909.82 L 342.04 909.93 L 343.22 909.92 L 344.40 909.86 L 345.58 909.92 L 346.76 909.91 L 347.93 909.92 L 349.11 909.92 L 350.29 909.83 L 351.47 909.98 L 352.64 909.90 L 353.82 909.86 L 355.00 909.80 L 356.18 909.79 L 357.36 909.72 L 358.53 909.78 L 359.71 909.85 L 360.89 909.60 L 362.07 909.83 L 363.24 909.79 L 364.42 909.75 L 365.60 909.77 L 366.78 909.79 L 367.96 909.66 L 369.13 909.69 L 370.31 909.74 L 371.49 909.76 L 372.67 909.80 L 373.84 909.85 L 375.02 909.82 L 376.20 909.90 L 377.38 909.87 L 378.56 909.90 L 379.73 909.97 L 380.91 909.93 L 382.09 909.88 L 383.27 909.91 L 384.44 909.95 L 385.62 909.94 L 386.80 909.80 L 387.98 909.88 L 389.16 909.90 L 390.33 909.88 L 391.51 909.94 L 392.69 909.87 L 393.87 909.87 L 395.04 909.90 L 396.22 909.92 L 397.40 909.95 L 398.58 909.75 L 399.76 909.87 L 400.93 909.62 L 402.11 909.68 L 403.29 909.58 L 404.47 909.60 L 405.64 909.64 L 406.82 909.66 L 408.00 909.60 L 409.18 909.79 L 410.36 909.89 L 411.53 909.87 L 412.71 909.90 L 413.89 909.93 L 415.07 909.93 L 416.24 909.92 L 417.42 909.97 L 418.60 909.89 L 419.78 909.85 L 420.96 909.92 L 422.13 909.87 L 423.31 909.91 L 424.49 909.88 L 425.67 909.83 L 426.84 909.94 L 428.02 909.87 L 429.20 909.93 L 430.38 909.85 L 431.56 909.95 L 432.73 909.88 L 433.91 909.93 L 435.09 909.90 L 436.27 909.94 L 437.44 909.82 L 438.62 909.81 L 439.80 909.94 L 440.98 909.87 L 442.16 909.87 L 443.33 909.81 L 444.51 909.91 L 445.69 909.90 L 446.87 909.78 L 448.04 909.84 L 449.22 909.88 L 450.40 909.92 L 451.58 909.95 L 452.76 909.90 L 453.93 909.89 L 455.11 909.84 L 456.29 909.94 L 457.47 909.93 L 458.64 909.85 L 459.82 909.83 L 461.00 909.93 L 462.18 909.92 L 463.36 909.88 L 464.53 909.94 L 465.71 909.92 L 466.89 909.81 L 468.07 909.92 L 469.24 909.89 L 470.42 909.83 L 471.60 909.90 L 472.78 909.89 L 473.96 909.76 L 475.13 909.81 L 476.31 909.92 L 477.49 909.88 L 478.67 909.94 L 479.84 909.91 L 481.02 909.95 L 482.20 909.87 L 483.38 909.83 L 484.56 909.78 L 485.73 909.80 L 486.91 909.91 L 488.09 909.80 L 489.27 909.79 L 490.44 909.81 L 491.62 909.85 L 492.80 909.89 L 493.98 909.94 L 495.16 909.91 L 496.33 909.90 L 497.51 909.69 L 498.69 909.91 L 499.87 909.88 L 501.04 909.74 L 502.22 909.82 L 503.40 909.83 L 504.58 909.94 L 505.76 909.94 L 506.93 909.86 L 508.11 909.76 L 509.29 909.86 L 510.47 909.94 L 511.64 909.79 L 512.82 909.80 L 514.00 909.83 L 515.18 909.87 L 516.36 909.93 L 517.53 909.87 L 518.71 909.91 L 519.89 909.74 L 521.07 909.86 L 522.24 909.94 L 523.42 909.83 L 524.60 909.86 L 525.78 909.79 L 526.96 909.87 L 528.13 909.88 L 529.31 909.97 L 530.49 909.84 L 531.67 909.88 L 532.84 909.88 L 534.02 909.89 L 535.20 909.96 L 536.38 909.94 L 537.56 909.87 L 538.73 909.87 L 539.91 909.87 L 541.09 909.83 L 542.27 909.86 L 543.44 909.92 L 544.62 909.87 L 545.80 909.84 L 546.98 909.92 L 548.16 909.89 L 549.33 909.88 L 550.51 909.85 L 551.69 909.90 L 552.87 909.92 L 554.04 909.93 L 555.22 909.81 L 556.40 909.97 L 557.58 909.94 L 558.76 909.92 L 559.93 909.92 L 561.11 909.88 L 562.29 909.93 L 563.47 909.97 L 564.64 909.91 L 565.82 909.92 L 567.00 909.91 L 568.18 909.89 L 569.36 909.96 L 570.53 909.92 L 571.71 909.96 L 572.89 909.86 L 574.07 909.93 L 575.24 909.87 L 576.42 909.74 L 577.60 909.75 L 578.78 909.81 L 579.96 909.73 L 581.13 909.85 L 582.31 909.82 L 583.49 909.83 L 584.67 909.76 L 585.84 909.77 L 587.02 909.92 L 588.20 909.95 L 589.38 909.85 L 590.56 909.90 L 591.73 909.90 L 592.91 909.90 L 594.09 909.89 L 595.27 909.92 L 596.44 909.91 L 597.62 909.93 L 598.80 909.91 L 599.98 909.88 L 601.16 909.94 L 602.33 909.96 L 603.51 909.95 L 604.69 909.88 L 605.87 909.95 L 607.04 909.86 L 608.22 909.99 L 609.40 909.86 L 610.58 909.85 L 611.76 909.97 L 612.93 909.92 L 614.11 909.93 L 615.29 909.88 L 616.47 909.94 L 617.64 909.91 L 618.82 909.74 L 620.00 909.71 L 621.18 909.82 L 622.36 909.79 L 623.53 909.83 L 624.71 909.79 L 625.89 909.76 L 627.07 909.88 L 628.24 909.87 L 629.42 909.84 L 630.60 909.95 L 631.78 909.86 L 632.96 909.91 L 634.13 909.87 L 635.31 909.76 L 636.49 909.78 L 637.67 909.91 L 638.84 909.77 L 640.02 909.74 L 641.20 909.71 L 642.38 909.78 L 643.56 909.74 L 644.73 909.69 L 645.91 909.76 L 647.09 909.82 L 648.27 909.85 L 649.44 909.83 L 650.62 909.82 L 651.80 909.79 L 652.98 909.82 L 654.16 909.82 L 655.33 909.84 L 656.51 909.80 L 657.69 909.92 L 658.87 909.89 L 660.04 909.90 L 661.22 909.85 L 662.40 909.94 L 663.58 909.89 L 664.76 909.85 L 665.93 909.94 L 667.11 909.95 L 668.29 909.87 L 669.47 909.93 L 670.64 909.78 L 671.82 909.89 L 673.00 909.80 L 674.18 909.84 L 675.36 909.81 L 676.53 909.86 L 677.71 909.90 L 678.89 909.91 L 680.07 909.81 L 681.24 909.83 L 682.42 909.87 L 683.60 909.95 L 684.78 909.86 L 685.96 909.61 L 687.13 909.82 L 688.31 909.93 L 689.49 909.87 L 690.67 909.90 L 691.84 909.77 L 693.02 909.94 L 694.20 909.92 L 695.38 909.93 L 696.56 909.90 L 697.73 909.96 L 698.91 909.94 L 700.09 909.93 L 701.27 909.91 L 702.44 909.86 L 703.62 909.86 L 704.80 909.94 L 705.98 909.92 L 707.16 909.86 L 708.33 909.91 L 709.51 909.91 L 710.69 909.92 L 711.87 909.90 L 713.04 909.81 L 714.22 909.92 L 715.40 909.90 L 716.58 909.78 L 717.76 909.86 L 718.93 909.94 L 720.11 909.98 L 721.29 909.88 L 722.47 909.90 L 723.64 909.94 L 724.82 909.79 L 726.00 909.88 L 727.18 909.79 L 728.36 909.89 L 729.53 909.97 L 730.71 909.91 L 731.89 909.84 L 733.07 909.89 L 734.24 909.95 L 735.42 909.87 L 736.60 909.86 L 737.78 909.86 L 738.96 909.92 L 740.13 909.83 L 741.31 909.88 L 742.49 909.93 L 743.67 909.83 L 744.84 909.89 L 746.02 909.95 L 747.20 909.81 L 748.38 909.86 L 749.56 909.84 L 750.73 909.80 L 751.91 909.89 L 753.09 909.88 L 754.27 909.88 L 755.44 909.84 L 756.62 909.88 L 757.80 909.84 L 758.98 909.79 L 760.16 909.90 L 761.33 909.86 L 762.51 909.82 L 763.69 909.89 L 764.87 909.86 L 766.04 909.89 L 767.22 909.85 L 768.40 909.87 L 769.58 909.82 L 770.76 909.79 L 771.93 909.85 L 773.11 909.87 L 774.29 909.76 L 775.47 909.91 L 776.64 909.86 L 777.82 909.87 L 779.00 909.88 L 780.18 909.88 L 781.36 909.77 L 782.53 909.81 L 783.71 909.94 L 784.89 909.82 L 786.07 909.88 L 787.24 909.85 L 788.42 909.92 L 789.60 909.86 L 790.78 909.85 L 791.96 909.49 L 793.13 909.87 L 794.31 909.90 L 795.49 909.74 L 796.67 909.88 L 797.84 909.88 L 799.02 909.96 L 800.20 909.83 L 801.38 909.95 L 802.56 909.98 L 803.73 909.86 L 804.91 909.87 L 806.09 909.92 L 807.27 909.94 L 808.44 909.91 L 809.62 909.90 L 810.80 909.91 L 811.98 909.90 L 813.16 909.90 L 814.33 909.84 L 815.51 909.85 L 816.69 909.85 L 817.87 909.94 L 819.04 909.86 L 820.22 909.97 L 821.40 909.82 L 822.58 909.97 L 823.76 909.83 L 824.93 909.94 L 826.11 909.89 L 827.29 909.94 L 828.47 909.87 L 829.64 909.90 L 830.82 909.84 L 832.00 909.90 L 833.18 909.73 L 834.36 909.88 L 835.53 909.65 L 836.71 909.84 L 837.89 909.87 L 839.07 909.85 L 840.24 909.91 L 841.42 909.90 L 842.60 909.86 L 843.78 909.87 L 844.96 909.75 L 846.13 909.71 L 847.31 909.93 L 848.49 909.69 L 849.67 909.79 L 850.84 909.82 L 852.02 909.82 L 853.20 909.83 L 854.38 909.90 L 855.56 909.97 L 856.73 909.86 L 857.91 909.78 L 859.09 909.93 L 860.27 909.87 L 861.44 909.76 L 862.62 909.89 L 863.80 909.84 L 864.98 905.20 L 866.16 882.46 L 867.33 857.90 L 868.51 843.39 L 869.69 817.99 L 870.87 868.55 L 872.04 879.55 L 873.22 848.13 L 874.40 851.41 L 875.58 884.49 L 876.76 895.01 L 877.93 896.44 L 879.11 868.65 L 880.29 848.61 L 881.47 844.98 L 882.64 868.11 L 883.82 873.60 L 885.00 868.30 L 886.18 879.58 L 887.36 885.78 L 888.53 871.10 L 889.71 869.73 L 890.89 868.14 L 892.07 866.37 L 893.24 841.71 L 894.42 831.54 L 895.60 877.73 L 896.78 897.09 L 897.96 888.50 L 899.13 880.44 L 900.31 822.24 L 901.49 804.97 L 902.67 830.76 L 903.84 855.15 L 905.02 898.52 L 906.20 864.94 L 907.38 815.97 L 908.56 770.66 L 909.73 762.73 L 910.91 763.93 L 912.09 859.52 L 913.27 895.28 L 914.44 906.75 L 915.62 908.23 L 916.80 881.57 L 917.98 869.85 L 919.16 868.05 L 920.33 880.41 L 921.51 886.67 L 922.69 884.12 L 923.87 891.76 L 925.04 885.82 L 926.22 903.53 L 927.40 905.09 L 928.58 906.86 L 929.76 909.00 L 930.93 909.02 L 932.11 909.72 L 933.29 909.71 L 934.47 909.74 L 935.64 909.67 L 936.82 909.31 L 938.00 908.42 L 939.18 909.26 L 940.36 909.49 L 941.53 909.58 L 942.71 909.73 L 943.89 909.41 L 945.07 909.50 L 946.24 908.98 L 947.42 909.48 L 948.60 909.50 L 949.78 909.49 L 950.96 909.21 L 952.13 905.86 L 953.31 908.74 L 954.49 904.39 L 955.67 900.12 L 956.84 906.10 L 958.02 908.49 L 959.20 909.74 L 960.38 906.11 L 961.56 898.88 L 962.73 900.15 L 963.91 908.77 L 965.09 907.87 L 966.27 909.27 L 967.44 908.55 L 968.62 909.59 L 969.80 909.47 L 970.98 909.11 L 972.16 904.12 L 973.33 894.88" stroke="#E53935" />
<text x="620.00" y="952" font-size="15" text-anchor="middle">minutos (relativo ao início do evento)</text>
<text class="small" x="90.00" y="936" text-anchor="middle">-5.00</text>
<text class="small" x="266.67" y="936" text-anchor="middle">0.00</text>
<text class="small" x="443.33" y="936" text-anchor="middle">5.00</text>
<text class="small" x="620.00" y="936" text-anchor="middle">10.0</text>
<text class="small" x="796.67" y="936" text-anchor="middle">15.0</text>
<text class="small" x="973.33" y="936" text-anchor="middle">20.0</text>
<text class="small" x="1150.00" y="936" text-anchor="middle">25.0</text>
</svg>