<?xml version="1.0" encoding="UTF-8"?>
<svg xmlns="http://www.w3.org/2000/svg" width="1180" height="980" viewBox="0 0 1180 980">
<style>
text { font-family: -apple-system, BlinkMacSystemFont, 'Segoe UI', Roboto, Helvetica, Arial, sans-serif; fill: #111; }
.small { font-size: 12px; fill: #222; }
.title { font-size: 18px; font-weight: 700; }
.axis { stroke: #111; stroke-width: 1.4; }
.grid { stroke: #E6E6E6; stroke-width: 1; }
.event { fill: #FFEB3B; fill-opacity: 0.18; }
.eventline { stroke: #F9A825; stroke-width: 1.2; stroke-dasharray: 4 3; }
.series { fill: none; stroke-width: 1.8; }
</style>
<text class="title" x="90" y="34">ciclo 16 — basculamento — 2025-12-13T03:50:16-03:00 → 2025-12-13T03:50:32-03:00 (span 16s, dur 17s)</text>
<text class="small" x="90" y="54">GPS: -11.692979,-47.165171  hotspot: -11.693,-47.165</text>
<text class="small" x="90" y="70">Janela: -3.00 → 3.27 min (relativo ao início do evento)</text>
<text x="90" y="79.00" font-size="14" font-weight="700">Velocidade (km/h)</text>
<rect class="event" x="443.33" y="85.00" width="23.56" height="192.75" />
<line class="eventline" x1="443.33" y1="85.00" x2="443.33" y2="277.75" />
<line class="eventline" x1="466.89" y1="85.00" x2="466.89" y2="277.75" />
<line class="grid" x1="90" y1="277.75" x2="1150" y2="277.75" />
<text class="small" x="80" y="281.75" text-anchor="end">0.00</text>
<line class="grid" x1="90" y1="239.20" x2="1150" y2="239.20" />
<text class="small" x="80" y="243.20" text-anchor="end">10.0</text>
<line class="grid" x1="90" y1="200.65" x2="1150" y2="200.65" />
<text class="small" x="80" y="204.65" text-anchor="end">20.0</text>
<line class="grid" x1="90" y1="162.10" x2="1150" y2="162.10" />
<text class="small" x="80" y="166.10" text-anchor="end">30.0</text>
<line class="grid" x1="90" y1="123.55" x2="1150" y2="123.55" />
<text class="small" x="80" y="127.55" text-anchor="end">40.0</text>
<line class="grid" x1="90" y1="85.00" x2="1150" y2="85.00" />
<text class="small" x="80" y="89.00" text-anchor="end">50.0</text>
<line class="grid" x1="90.00" y1="85.00" x2="90.00" y2="277.75" />
<line class="grid" x1="266.67" y1="85.00" x2="266.67" y2="277.75" />
<line class="grid" x1="443.33" y1="85.00" x2="443.33" y2="277.75" />
<line class="grid" x1="620.00" y1="85.00" x2="620.00" y2="277.75" />
<line class="grid" x1="796.67" y1="85.00" x2="796.67" y2="277.75" />
<line class="grid" x1="973.33" y1="85.00" x2="973.33" y2="277.75" />
<line class="grid" x1="1150.00" y1="85.00" x2="1150.00" y2="277.75" />
<line class="axis" x1="90" y1="85.00" x2="90" y2="277.75" />
<line class="axis" x1="90" y1="277.75" x2="1150" y2="277.75" />
<path class="series" d="M 178.33 277.75 L 179.81 277.75 L 181.28 277.75 L 182.75 277.75 L 184.22 277.75 L 185.69 277.75 L 187.17 277.75 L 188.64 277.75 L 190.11 277.75 L 191.58 277.75 L 193.06 277.75 L 194.53 277.75 L 196.00 277.75 L 197.47 277.75 L 198.94 277.75 L 200.42 277.75 L 201.89 277.75 L 203.36 277.75 L 204.83 265.81 L 206.31 261.65 L 207.78 259.57 L 209.25 258.74 L 210.72 254.99 L 212.19 252.49 L 213.67 251.52 L 215.14 247.50 L 216.61 242.08 L 218.08 239.03 L 219.56 235.42 L 221.03 231.26 L 222.50 231.12 L 223.97 225.01 L 225.44 223.76 L 226.92 223.76 L 228.39 220.71 L 229.86 216.41 L 231.33 218.35 L 232.81 222.10 L 234.28 218.77 L 235.75 219.46 L 237.22 215.02 L 238.69 214.05 L 240.17 212.25 L 241.64 214.19 L 243.11 220.02 L 244.58 229.32 L 246.06 227.23 L 247.53 231.40 L 249.00 232.65 L 250.47 241.11 L 251.94 238.06 L 253.42 236.81 L 254.89 236.67 L 256.36 238.75 L 257.83 236.39 L 259.31 237.23 L 260.78 237.23 L 262.25 277.75 L 263.72 256.52 L 265.19 234.59 L 266.67 233.62 L 268.14 231.81 L 269.61 231.54 L 271.08 230.84 L 272.56 230.70 L 274.03 228.62 L 275.50 225.99 L 276.97 229.32 L 278.44 230.70 L 279.92 230.84 L 281.39 230.70 L 282.86 227.23 L 284.33 226.54 L 285.81 227.10 L 287.28 231.26 L 288.75 232.79 L 290.22 235.56 L 291.69 234.03 L 293.17 236.95 L 294.64 239.59 L 296.11 242.08 L 297.58 242.78 L 299.06 244.44 L 300.53 242.08 L 302.00 243.33 L 303.47 241.67 L 304.94 241.81 L 306.42 241.81 L 307.89 247.22 L 309.36 244.72 L 310.83 245.83 L 312.31 247.08 L 313.78 253.19 L 315.25 263.32 L 316.72 264.57 L 318.19 269.01 L 319.67 277.75 L 321.14 277.75 L 322.61 277.75 L 324.08 277.75 L 325.56 277.75 L 327.03 266.93 L 328.50 264.43 L 329.97 263.46 L 331.44 262.76 L 332.92 263.46 L 334.39 265.40 L 335.86 264.84 L 337.33 263.18 L 338.81 266.79 L 340.28 265.26 L 341.75 266.51 L 343.22 266.65 L 344.69 264.57 L 346.17 265.12 L 347.64 266.23 L 349.11 266.65 L 350.58 269.70 L 352.06 271.23 L 353.53 271.37 L 355.00 277.75 L 356.47 277.75 L 357.94 277.75 L 359.42 277.75 L 360.89 277.75 L 362.36 277.75 L 363.83 277.75 L 365.31 277.75 L 366.78 277.75 L 368.25 277.75 L 369.72 277.75 L 371.19 277.75 L 372.67 277.75 L 374.14 277.75 L 375.61 277.75 L 377.08 277.75 L 378.56 277.75 L 380.03 277.75 L 381.50 277.75 L 382.97 277.75 L 384.44 277.75 L 385.92 277.75 L 387.39 277.75 L 388.86 277.75 L 390.33 277.75 L 391.81 277.75 L 393.28 277.75 L 394.75 277.75 L 396.22 277.75 L 397.69 277.75 L 399.17 277.75 L 400.64 277.75 L 402.11 277.75 L 403.58 277.75 L 405.06 277.75 L 406.53 277.75 L 408.00 277.75 L 409.47 277.75 L 410.94 277.75 L 412.42 277.75 L 413.89 277.75 L 415.36 277.75 L 416.83 277.75 L 418.31 277.75 L 419.78 277.75 L 421.25 277.75 L 422.72 277.75 L 424.19 277.75 L 425.67 264.01 L 427.14 264.70 L 428.61 271.50 L 430.08 277.75 L 431.56 277.75 L 433.03 277.75 L 434.50 277.75 L 435.97 277.75 L 437.44 260.26 L 438.92 264.01 L 440.39 270.39 L 441.86 272.20 L 443.33 277.75 L 444.81 277.75 L 446.28 277.75 L 447.75 277.75 L 449.22 277.75 L 450.69 277.75 L 452.17 277.75 L 453.64 277.75 L 455.11 277.75 L 456.58 277.75 L 458.06 277.75 L 459.53 277.75 L 461.00 277.75 L 462.47 277.75 L 463.94 277.75 L 465.42 277.75 L 466.89 277.75 L 468.36 268.04 L 469.83 259.57 L 471.31 249.86 L 472.78 247.91 L 474.25 238.06 L 475.72 230.01 L 477.19 224.87 L 478.67 231.95 L 480.14 224.60 L 481.61 227.10 L 483.08 223.35 L 484.56 218.63 L 486.03 215.02 L 487.50 221.27 L 488.97 215.44 L 490.44 223.07 L 491.92 221.82 L 493.39 224.87 L 494.86 225.01 L 496.33 224.74 L 497.81 220.16 L 499.28 224.87 L 500.75 220.99 L 502.22 215.30 L 503.69 212.66 L 505.17 208.64 L 506.64 213.36 L 508.11 212.38 L 509.58 209.61 L 511.06 207.39 L 512.53 203.09 L 514.00 200.03 L 515.47 195.18 L 516.94 191.43 L 518.42 188.38 L 519.89 184.91 L 521.36 181.30 L 522.83 179.63 L 524.31 177.69 L 525.78 184.91 L 527.25 181.85 L 528.72 181.99 L 530.19 182.82 L 531.67 181.99 L 533.14 185.60 L 534.61 182.41 L 536.08 190.32 L 537.56 193.23 L 539.03 196.84 L 540.50 200.17 L 541.97 194.34 L 543.44 194.48 L 544.92 193.65 L 546.39 191.29 L 547.86 187.68 L 549.33 183.80 L 550.81 176.72 L 552.28 169.64 L 553.75 161.45 L 555.22 154.65 L 556.69 149.10 L 558.17 147.02 L 559.64 144.80 L 561.11 143.41 L 562.58 143.83 L 564.06 146.60 L 565.53 150.35 L 567.00 158.68 L 568.47 161.17 L 569.94 164.78 L 571.42 169.92 L 572.89 173.39 L 574.36 168.67 L 575.83 165.06 L 577.31 160.48 L 578.78 155.76 L 580.25 152.99 L 581.72 151.60 L 583.19 148.13 L 584.67 143.13 L 586.14 139.94 L 587.61 142.72 L 589.08 140.36 L 590.56 142.86 L 592.03 144.10 L 593.50 143.27 L 594.97 147.02 L 596.44 147.99 L 597.92 155.76 L 599.39 162.15 L 600.86 170.20 L 602.33 175.47 L 603.81 176.72 L 605.28 175.33 L 606.75 175.47 L 608.22 174.08 L 609.69 175.19 L 611.17 176.86 L 612.64 178.38 L 614.11 178.94 L 615.58 182.41 L 617.06 182.82 L 618.53 184.63 L 620.00 186.43 L 621.47 186.57 L 622.94 187.27 L 624.42 186.85 L 625.89 185.18 L 627.36 184.35 L 628.83 182.27 L 630.31 181.58 L 631.78 180.33 L 633.25 179.22 L 634.72 177.69 L 636.19 175.05 L 637.67 173.66 L 639.14 172.97 L 640.61 173.53 L 642.08 173.80 L 643.56 172.83 L 645.03 171.03 L 646.50 173.25 L 647.97 177.27 L 649.44 184.77 L 650.92 188.79 L 652.39 206.83 L 653.86 215.16 L 655.33 221.54 L 656.81 220.02 L 658.28 219.18 L 659.75 214.33 L 661.22 209.75 L 662.69 199.06 L 664.17 186.57 L 665.64 191.29 L 667.11 181.16 L 668.58 186.85 L 670.06 181.30 L 671.53 178.38 L 673.00 173.80 L 674.47 170.06 L 675.94 167.28 L 677.42 164.37 L 678.89 165.20 L 680.36 166.03 L 681.83 163.53 L 683.31 163.67 L 684.78 162.56 L 686.25 158.54 L 687.72 157.29 L 689.19 156.87 L 690.67 156.04 L 692.14 153.96 L 693.61 156.04 L 695.08 152.29 L 696.56 153.96 L 698.03 154.10 L 699.50 156.87 L 700.97 154.51 L 702.44 150.91 L 703.92 150.91 L 705.39 154.37 L 706.86 148.96 L 708.33 150.35 L 709.81 146.60 L 711.28 148.96 L 712.75 149.24 L 714.22 150.49 L 715.69 153.13 L 717.17 149.10 L 718.64 146.74 L 720.11 154.37 L 721.58 145.08 L 723.06 148.96 L 724.53 150.49 L 726.00 152.29 L 727.47 153.40 L 728.94 149.79 L 730.42 148.13 L 731.89 150.07" stroke="#1976D2" />
<text x="90" y="289.75" font-size="14" font-weight="700">Inclinação (graus)</text>
<rect class="event" x="443.33" y="295.75" width="23.56" height="192.75" />
<line class="eventline" x1="443.33" y1="295.75" x2="443.33" y2="488.50" />
<line class="eventline" x1="466.89" y1="295.75" x2="466.89" y2="488.50" />
<line class="grid" x1="90" y1="488.50" x2="1150" y2="488.50" />
<text class="small" x="80" y="492.50" text-anchor="end">-20.0</text>
<line class="grid" x1="90" y1="449.95" x2="1150" y2="449.95" />
<text class="small" x="80" y="453.95" text-anchor="end">-10.0</text>
<line class="grid" x1="90" y1="411.40" x2="1150" y2="411.40" />
<text class="small" x="80" y="415.40" text-anchor="end">0.00</text>
<line class="grid" x1="90" y1="372.85" x2="1150" y2="372.85" />
<text class="small" x="80" y="376.85" text-anchor="end">10.0</text>
<line class="grid" x1="90" y1="334.30" x2="1150" y2="334.30" />
<text class="small" x="80" y="338.30" text-anchor="end">20.0</text>
<line class="grid" x1="90" y1="295.75" x2="1150" y2="295.75" />
<text class="small" x="80" y="299.75" text-anchor="end">30.0</text>
<line class="grid" x1="90.00" y1="295.75" x2="90.00" y2="488.50" />
<line class="grid" x1="266.67" y1="295.75" x2="266.67" y2="488.50" />
<line class="grid" x1="443.33" y1="295.75" x2="443.33" y2="488.50" />
<line class="grid" x1="620.00" y1="295.75" x2="620.00" y2="488.50" />
<line class="grid" x1="796.67" y1="295.75" x2="796.67" y2="488.50" />
<line class="grid" x1="973.33" y1="295.75" x2="973.33" y2="488.50" />
<line class="grid" x1="1150.00" y1="295.75" x2="1150.00" y2="488.50" />
<line class="axis" x1="90" y1="295.75" x2="90" y2="488.50" />
<line class="axis" x1="90" y1="488.50" x2="1150" y2="488.50" />
<path class="series" d="M 178.33 367.97 L 179.81 367.98 L 181.28 367.93 L 182.75 367.99 L 184.22 367.95 L 185.69 367.98 L 187.17 367.98 L 188.64 368.08 L 190.11 367.99 L 191.58 367.99 L 193.06 368.01 L 194.53 368.09 L 196.00 368.00 L 197.47 372.47 L 198.94 373.39 L 200.42 375.43 L 201.89 367.74 L 203.36 364.03 L 204.83 365.72 L 206.31 367.91 L 207.78 366.03 L 209.25 366.55 L 210.72 370.29 L 212.19 370.11 L 213.67 366.53 L 215.14 372.05 L 216.61 375.58 L 218.08 376.21 L 219.56 376.24 L 221.03 373.37 L 222.50 377.71 L 223.97 378.14 L 225.44 375.18 L 226.92 372.56 L 228.39 374.80 L 229.86 373.70 L 231.33 372.72 L 232.81 376.61 L 234.28 372.18 L 235.75 372.18 L 237.22 372.01 L 238.69 371.99 L 240.17 377.65 L 241.64 381.41 L 243.11 373.72 L 244.58 380.09 L 246.06 382.58 L 247.53 384.43 L 249.00 382.72 L 250.47 380.54 L 251.94 387.91 L 253.42 388.66 L 254.89 390.11 L 256.36 384.88 L 257.83 387.50 L 259.31 387.23 L 260.78 389.61 L 262.25 385.72 L 263.72 385.27 L 265.19 383.52 L 266.67 380.51 L 268.14 374.32 L 269.61 370.46 L 271.08 369.56 L 272.56 369.10 L 274.03 375.48 L 275.50 364.40 L 276.97 361.47 L 278.44 361.73 L 279.92 357.67 L 281.39 361.97 L 282.86 363.04 L 284.33 353.71 L 285.81 359.02 L 287.28 360.28 L 288.75 369.44 L 290.22 370.42 L 291.69 372.20 L 293.17 367.85 L 294.64 370.44 L 296.11 371.77 L 297.58 372.65 L 299.06 371.45 L 300.53 372.25 L 302.00 368.33 L 303.47 369.73 L 304.94 367.58 L 306.42 363.47 L 307.89 363.57 L 309.36 366.34 L 310.83 366.44 L 312.31 356.92 L 313.78 356.30 L 315.25 352.31 L 316.72 357.61 L 318.19 353.22 L 319.67 354.09 L 321.14 365.37 L 322.61 365.59 L 324.08 359.21 L 325.56 356.21 L 327.03 358.19 L 328.50 361.59 L 329.97 362.85 L 331.44 365.21 L 332.92 362.89 L 334.39 362.68 L 335.86 362.86 L 337.33 366.42 L 338.81 363.32 L 340.28 360.92 L 341.75 364.75 L 343.22 364.48 L 344.69 363.84 L 346.17 367.23 L 347.64 370.10 L 349.11 371.52 L 350.58 374.51 L 352.06 370.40 L 353.53 374.08 L 355.00 373.30 L 356.47 373.62 L 357.94 373.19 L 359.42 370.98 L 360.89 370.47 L 362.36 370.11 L 363.83 370.26 L 365.31 370.09 L 366.78 370.24 L 368.25 370.32 L 369.72 370.31 L 371.19 370.45 L 372.67 370.58 L 374.14 370.57 L 375.61 370.50 L 377.08 370.95 L 378.56 369.84 L 380.03 370.26 L 381.50 370.15 L 382.97 370.05 L 384.44 370.44 L 385.92 370.23 L 387.39 370.25 L 388.86 371.11 L 390.33 370.56 L 391.81 369.96 L 393.28 370.29 L 394.75 370.75 L 396.22 370.61 L 397.69 370.56 L 399.17 370.54 L 400.64 370.64 L 402.11 370.24 L 403.58 371.07 L 405.06 370.49 L 406.53 370.76 L 408.00 370.43 L 409.47 371.22 L 410.94 370.42 L 412.42 371.09 L 413.89 371.17 L 415.36 371.20 L 416.83 374.24 L 418.31 373.43 L 419.78 373.12 L 421.25 379.93 L 422.72 394.17 L 424.19 371.45 L 425.67 370.03 L 427.14 360.41 L 428.61 359.68 L 430.08 366.22 L 431.56 369.93 L 433.03 366.40 L 434.50 382.59 L 435.97 381.72 L 437.44 368.22 L 438.92 354.63 L 440.39 361.11 L 441.86 353.63 L 443.33 363.74 L 444.81 363.73 L 446.28 363.35 L 447.75 362.66 L 449.22 362.83 L 450.69 362.70 L 452.17 362.53 L 453.64 362.45 L 455.11 362.34 L 456.58 362.26 L 458.06 362.12 L 459.53 362.25 L 461.00 361.96 L 462.47 361.81 L 463.94 374.53 L 465.42 364.27 L 466.89 365.18 L 468.36 371.84 L 469.83 366.91 L 471.31 371.08 L 472.78 373.22 L 474.25 369.06 L 475.72 363.32 L 477.19 342.28 L 478.67 366.32 L 480.14 362.88 L 481.61 367.02 L 483.08 370.30 L 484.56 366.59 L 486.03 354.53 L 487.50 368.28 L 488.97 358.19 L 490.44 375.28 L 491.92 370.30 L 493.39 379.07 L 494.86 369.57 L 496.33 377.50 L 497.81 362.06 L 499.28 375.38 L 500.75 377.76 L 502.22 365.57 L 503.69 368.67 L 505.17 364.58 L 506.64 360.33 L 508.11 357.10 L 509.58 360.94 L 511.06 350.66 L 512.53 346.67 L 514.00 346.98 L 515.47 351.37 L 516.94 354.98 L 518.42 354.20 L 519.89 354.17 L 521.36 349.47 L 522.83 365.39 L 524.31 356.29 L 525.78 366.64 L 527.25 358.06 L 528.72 362.09 L 530.19 362.09 L 531.67 362.42 L 533.14 357.12 L 534.61 358.37 L 536.08 362.18 L 537.56 360.32 L 539.03 356.64 L 540.50 378.95 L 541.97 368.05 L 543.44 365.52 L 544.92 361.15 L 546.39 357.87 L 547.86 357.73 L 549.33 355.33 L 550.81 356.41 L 552.28 356.65 L 553.75 357.02 L 555.22 355.76 L 556.69 353.65 L 558.17 349.70 L 559.64 343.54 L 561.11 340.77 L 562.58 344.77 L 564.06 343.75 L 565.53 334.72 L 567.00 335.57 L 568.47 337.31 L 569.94 338.51 L 571.42 336.11 L 572.89 343.11 L 574.36 349.33 L 575.83 349.70 L 577.31 351.06 L 578.78 347.91 L 580.25 349.92 L 581.72 351.91 L 583.19 348.40 L 584.67 348.76 L 586.14 342.28 L 587.61 342.37 L 589.08 342.58 L 590.56 342.08 L 592.03 343.31 L 593.50 341.38 L 594.97 343.55 L 596.44 334.91 L 597.92 334.44 L 599.39 336.46 L 600.86 332.44 L 602.33 333.45 L 603.81 340.90 L 605.28 342.44 L 606.75 343.61 L 608.22 343.44 L 609.69 343.46 L 611.17 343.24 L 612.64 342.78 L 614.11 344.62 L 615.58 343.29 L 617.06 343.81 L 618.53 344.18 L 620.00 345.51 L 621.47 344.18 L 622.94 344.64 L 624.42 345.41 L 625.89 343.82 L 627.36 343.69 L 628.83 343.84 L 630.31 342.84 L 631.78 343.42 L 633.25 344.10 L 634.72 341.52 L 636.19 342.88 L 637.67 342.65 L 639.14 343.05 L 640.61 342.57 L 642.08 343.10 L 643.56 341.65 L 645.03 342.51 L 646.50 343.98 L 647.97 343.60 L 649.44 342.94 L 650.92 326.67 L 652.39 336.06 L 653.86 345.97 L 655.33 348.20 L 656.81 348.81 L 658.28 355.84 L 659.75 372.01 L 661.22 372.40 L 662.69 363.41 L 664.17 361.03 L 665.64 363.05 L 667.11 368.30 L 668.58 367.38 L 670.06 370.07 L 671.53 380.24 L 673.00 375.50 L 674.47 380.30 L 675.94 373.85 L 677.42 374.18 L 678.89 370.70 L 680.36 375.54 L 681.83 373.70 L 683.31 369.29 L 684.78 368.29 L 686.25 366.36 L 687.72 368.35 L 689.19 366.44 L 690.67 364.15 L 692.14 356.95 L 693.61 359.44 L 695.08 361.80 L 696.56 358.41 L 698.03 357.66 L 699.50 358.47 L 700.97 357.42 L 702.44 358.84 L 703.92 357.97 L 705.39 358.81 L 706.86 362.37 L 708.33 361.90 L 709.81 362.47 L 711.28 360.65 L 712.75 363.25 L 714.22 361.66 L 715.69 366.88 L 717.17 367.19 L 718.64 359.23 L 720.11 369.62 L 721.58 364.77 L 723.06 363.64 L 724.53 364.31 L 726.00 365.98 L 727.47 364.94 L 728.94 366.97 L 730.42 364.22 L 731.89 364.28" stroke="#2E7D32" />
<path class="series" d="M 178.33 414.56 L 179.81 414.55 L 181.28 414.55 L 182.75 414.44 L 184.22 414.53 L 185.69 414.54 L 187.17 414.59 L 188.64 414.52 L 190.11 414.53 L 191.58 414.54 L 193.06 414.49 L 194.53 414.52 L 196.00 414.80 L 197.47 415.12 L 198.94 418.78 L 200.42 418.91 L 201.89 412.53 L 203.36 414.64 L 204.83 410.33 L 206.31 413.57 L 207.78 413.46 L 209.25 426.28 L 210.72 408.04 L 212.19 397.76 L 213.67 400.92 L 215.14 410.53 L 216.61 406.78 L 218.08 405.67 L 219.56 401.86 L 221.03 406.54 L 222.50 403.44 L 223.97 403.66 L 225.44 404.66 L 226.92 403.39 L 228.39 403.97 L 229.86 415.91 L 231.33 417.31 L 232.81 412.45 L 234.28 421.83 L 235.75 421.83 L 237.22 423.60 L 238.69 423.82 L 240.17 420.67 L 241.64 423.31 L 243.11 418.86 L 244.58 418.83 L 246.06 417.09 L 247.53 408.12 L 249.00 415.17 L 250.47 408.82 L 251.94 419.98 L 253.42 412.66 L 254.89 415.68 L 256.36 406.32 L 257.83 412.01 L 259.31 402.82 L 260.78 400.80 L 262.25 404.66 L 263.72 405.82 L 265.19 411.15 L 266.67 422.95 L 268.14 411.29 L 269.61 421.08 L 271.08 423.30 L 272.56 413.65 L 274.03 409.94 L 275.50 412.21 L 276.97 408.55 L 278.44 411.48 L 279.92 414.68 L 281.39 409.76 L 282.86 399.13 L 284.33 404.14 L 285.81 392.75 L 287.28 405.28 L 288.75 401.02 L 290.22 392.76 L 291.69 404.46 L 293.17 402.60 L 294.64 407.32 L 296.11 408.43 L 297.58 412.32 L 299.06 410.05 L 300.53 420.49 L 302.00 432.67 L 303.47 424.82 L 304.94 427.91 L 306.42 428.39 L 307.89 419.92 L 309.36 422.09 L 310.83 417.95 L 312.31 414.55 L 313.78 404.43 L 315.25 401.76 L 316.72 408.25 L 318.19 404.33 L 319.67 401.73 L 321.14 405.66 L 322.61 407.32 L 324.08 408.20 L 325.56 411.10 L 327.03 408.43 L 328.50 408.67 L 329.97 405.48 L 331.44 407.66 L 332.92 405.99 L 334.39 402.48 L 335.86 401.82 L 337.33 397.91 L 338.81 403.43 L 340.28 395.25 L 341.75 406.65 L 343.22 400.47 L 344.69 403.24 L 346.17 402.28 L 347.64 406.33 L 349.11 412.05 L 350.58 410.91 L 352.06 410.93 L 353.53 407.73 L 355.00 408.97 L 356.47 407.36 L 357.94 408.05 L 359.42 407.04 L 360.89 408.88 L 362.36 406.94 L 363.83 408.05 L 365.31 407.71 L 366.78 407.70 L 368.25 407.77 L 369.72 407.68 L 371.19 407.86 L 372.67 407.80 L 374.14 407.93 L 375.61 407.87 L 377.08 408.13 L 378.56 407.56 L 380.03 407.36 L 381.50 407.86 L 382.97 407.49 L 384.44 408.09 L 385.92 407.37 L 387.39 408.06 L 388.86 407.77 L 390.33 407.82 L 391.81 407.39 L 393.28 407.84 L 394.75 407.97 L 396.22 407.76 L 397.69 407.91 L 399.17 407.99 L 400.64 407.69 L 402.11 407.52 L 403.58 408.40 L 405.06 407.60 L 406.53 407.92 L 408.00 407.83 L 409.47 407.35 L 410.94 407.46 L 412.42 407.42 L 413.89 407.57 L 415.36 407.73 L 416.83 407.16 L 418.31 407.04 L 419.78 408.03 L 421.25 407.19 L 422.72 406.05 L 424.19 410.44 L 425.67 406.84 L 427.14 402.60 L 428.61 406.50 L 430.08 405.86 L 431.56 404.03 L 433.03 406.04 L 434.50 404.45 L 435.97 403.44 L 437.44 402.32 L 438.92 406.14 L 440.39 402.51 L 441.86 400.46 L 443.33 400.11 L 444.81 400.26 L 446.28 400.85 L 447.75 401.16 L 449.22 401.02 L 450.69 400.67 L 452.17 400.93 L 453.64 401.03 L 455.11 400.69 L 456.58 400.87 L 458.06 400.76 L 459.53 400.85 L 461.00 401.24 L 462.47 400.53 L 463.94 402.17 L 465.42 402.30 L 466.89 402.79 L 468.36 408.06 L 469.83 411.18 L 471.31 421.88 L 472.78 431.75 L 474.25 435.30 L 475.72 435.40 L 477.19 426.38 L 478.67 431.01 L 480.14 412.54 L 481.61 401.69 L 483.08 411.45 L 484.56 420.41 L 486.03 431.68 L 487.50 428.17 L 488.97 416.13 L 490.44 416.03 L 491.92 410.49 L 493.39 424.41 L 494.86 417.09 L 496.33 408.01 L 497.81 411.12 L 499.28 404.52 L 500.75 410.84 L 502.22 406.85 L 503.69 403.33 L 505.17 399.84 L 506.64 401.56 L 508.11 396.74 L 509.58 404.80 L 511.06 400.27 L 512.53 387.24 L 514.00 383.47 L 515.47 402.08 L 516.94 411.60 L 518.42 409.91 L 519.89 411.98 L 521.36 394.29 L 522.83 386.97 L 524.31 382.32 L 525.78 413.74 L 527.25 408.00 L 528.72 408.18 L 530.19 408.18 L 531.67 415.92 L 533.14 410.48 L 534.61 406.63 L 536.08 413.05 L 537.56 411.87 L 539.03 412.09 L 540.50 409.70 L 541.97 411.14 L 543.44 395.98 L 544.92 398.27 L 546.39 397.12 L 547.86 398.36 L 549.33 405.58 L 550.81 405.21 L 552.28 407.70 L 553.75 410.41 L 555.22 408.18 L 556.69 399.14 L 558.17 417.02 L 559.64 410.23 L 561.11 415.33 L 562.58 416.69 L 564.06 411.20 L 565.53 418.22 L 567.00 419.22 L 568.47 418.39 L 569.94 407.24 L 571.42 411.77 L 572.89 419.35 L 574.36 414.56 L 575.83 406.98 L 577.31 408.44 L 578.78 423.07 L 580.25 418.96 L 581.72 423.95 L 583.19 422.38 L 584.67 419.34 L 586.14 396.64 L 587.61 410.58 L 589.08 405.08 L 590.56 406.07 L 592.03 406.51 L 593.50 410.10 L 594.97 410.22 L 596.44 414.29 L 597.92 418.05 L 599.39 419.13 L 600.86 421.70 L 602.33 417.88 L 603.81 420.46 L 605.28 410.92 L 606.75 407.78 L 608.22 417.16 L 609.69 408.17 L 611.17 414.58 L 612.64 413.96 L 614.11 405.05 L 615.58 407.78 L 617.06 401.52 L 618.53 405.10 L 620.00 414.62 L 621.47 409.86 L 622.94 407.72 L 624.42 404.35 L 625.89 404.58 L 627.36 403.82 L 628.83 402.17 L 630.31 406.69 L 631.78 409.77 L 633.25 407.29 L 634.72 404.34 L 636.19 408.71 L 637.67 409.19 L 639.14 410.04 L 640.61 417.45 L 642.08 416.96 L 643.56 418.69 L 645.03 421.24 L 646.50 420.16 L 647.97 442.90 L 649.44 441.54 L 650.92 420.56 L 652.39 419.85 L 653.86 420.44 L 655.33 423.36 L 656.81 423.97 L 658.28 414.69 L 659.75 416.53 L 661.22 390.69 L 662.69 367.42 L 664.17 366.30 L 665.64 373.99 L 667.11 372.72 L 668.58 379.83 L 670.06 392.95 L 671.53 422.64 L 673.00 412.05 L 674.47 422.59 L 675.94 434.83 L 677.42 441.42 L 678.89 441.50 L 680.36 429.03 L 681.83 415.08 L 683.31 412.70 L 684.78 414.39 L 686.25 406.83 L 687.72 399.89 L 689.19 405.92 L 690.67 404.71 L 692.14 402.01 L 693.61 404.68 L 695.08 401.23 L 696.56 400.90 L 698.03 400.14 L 699.50 400.93 L 700.97 399.73 L 702.44 399.52 L 703.92 400.89 L 705.39 401.95 L 706.86 405.19 L 708.33 404.22 L 709.81 406.31 L 711.28 402.90 L 712.75 407.79 L 714.22 408.39 L 715.69 405.41 L 717.17 404.74 L 718.64 406.31 L 720.11 407.51 L 721.58 403.30 L 723.06 406.95 L 724.53 410.02 L 726.00 407.72 L 727.47 401.67 L 728.94 402.08 L 730.42 401.68 L 731.89 396.31" stroke="#6A1B9A" />
<line x1="900.00" y1="307.75" x2="918.00" y2="307.75" stroke="#2E7D32" stroke-width="3" />
<text class="small" x="924.00" y="311.75">pitch</text>
<line x1="900.00" y1="323.75" x2="918.00" y2="323.75" stroke="#6A1B9A" stroke-width="3" />
<text class="small" x="924.00" y="327.75">roll</text>
<text x="90" y="500.50" font-size="14" font-weight="700">Aceleração (magnitude) (u.a.)</text>
<rect class="event" x="443.33" y="506.50" width="23.56" height="192.75" />
<line class="eventline" x1="443.33" y1="506.50" x2="443.33" y2="699.25" />
<line class="eventline" x1="466.89" y1="506.50" x2="466.89" y2="699.25" />
<line class="grid" x1="90" y1="699.25" x2="1150" y2="699.25" />
<text class="small" x="80" y="703.25" text-anchor="end">0.00</text>
<line class="grid" x1="90" y1="660.70" x2="1150" y2="660.70" />
<text class="small" x="80" y="664.70" text-anchor="end">0.50</text>
<line class="grid" x1="90" y1="622.15" x2="1150" y2="622.15" />
<text class="small" x="80" y="626.15" text-anchor="end">1.00</text>
<line class="grid" x1="90" y1="583.60" x2="1150" y2="583.60" />
<text class="small" x="80" y="587.60" text-anchor="end">1.50</text>
<line class="grid" x1="90" y1="545.05" x2="1150" y2="545.05" />
<text class="small" x="80" y="549.05" text-anchor="end">2.00</text>
<line class="grid" x1="90" y1="506.50" x2="1150" y2="506.50" />
<text class="small" x="80" y="510.50" text-anchor="end">2.50</text>
<line class="grid" x1="90.00" y1="506.50" x2="90.00" y2="699.25" />
<line class="grid" x1="266.67" y1="506.50" x2="266.67" y2="699.25" />
<line class="grid" x1="443.33" y1="506.50" x2="443.33" y2="699.25" />
<line class="grid" x1="620.00" y1="506.50" x2="620.00" y2="699.25" />
<line class="grid" x1="796.67" y1="506.50" x2="796.67" y2="699.25" />
<line class="grid" x1="973.33" y1="506.50" x2="973.33" y2="699.25" />
<line class="grid" x1="1150.00" y1="506.50" x2="1150.00" y2="699.25" />
<line class="axis" x1="90" y1="506.50" x2="90" y2="699.25" />
<line class="axis" x1="90" y1="699.25" x2="1150" y2="699.25" />
<path class="series" d="M 178.33 699.21 L 179.81 698.99 L 181.28 698.91 L 182.75 699.11 L 184.22 699.12 L 185.69 699.14 L 187.17 698.86 L 188.64 698.81 L 190.11 698.66 L 191.58 698.63 L 193.06 698.94 L 194.53 699.09 L 196.00 698.80 L 197.47 684.70 L 198.94 685.62 L 200.42 690.40 L 201.89 692.95 L 203.36 691.27 L 204.83 696.45 L 206.31 688.32 L 207.78 685.36 L 209.25 674.62 L 210.72 665.29 L 212.19 669.64 L 213.67 692.45 L 215.14 688.90 L 216.61 681.13 L 218.08 685.51 L 219.56 676.57 L 221.03 680.07 L 222.50 661.78 L 223.97 690.27 L 225.44 670.66 L 226.92 681.54 L 228.39 695.26 L 229.86 655.24 L 231.33 676.67 L 232.81 673.16 L 234.28 672.96 L 235.75 675.75 L 237.22 665.84 L 238.69 644.95 L 240.17 653.27 L 241.64 642.32 L 243.11 636.32 L 244.58 682.21 L 246.06 688.69 L 247.53 676.28 L 249.00 674.11 L 250.47 685.00 L 251.94 682.47 L 253.42 676.67 L 254.89 687.27 L 256.36 685.56 L 257.83 690.53 L 259.31 681.65 L 260.78 696.23 L 262.25 690.33 L 263.72 680.51 L 265.19 680.51 L 266.67 667.04 L 268.14 689.20 L 269.61 677.73 L 271.08 689.51 L 272.56 678.04 L 274.03 665.77 L 275.50 674.99 L 276.97 683.23 L 278.44 680.96 L 279.92 688.72 L 281.39 683.90 L 282.86 657.52 L 284.33 661.97 L 285.81 663.38 L 287.28 652.60 L 288.75 648.17 L 290.22 675.83 L 291.69 651.74 L 293.17 660.28 L 294.64 676.70 L 296.11 669.53 L 297.58 670.89 L 299.06 692.64 L 300.53 676.41 L 302.00 656.09 L 303.47 684.55 L 304.94 672.34 L 306.42 661.07 L 307.89 669.84 L 309.36 680.73 L 310.83 682.67 L 312.31 653.62 L 313.78 649.56 L 315.25 655.10 L 316.72 688.36 L 318.19 672.82 L 319.67 684.27 L 321.14 692.54 L 322.61 692.54 L 324.08 691.84 L 325.56 687.00 L 327.03 693.32 L 328.50 691.47 L 329.97 686.69 L 331.44 692.88 L 332.92 696.31 L 334.39 694.39 L 335.86 691.21 L 337.33 688.76 L 338.81 681.51 L 340.28 686.41 L 341.75 695.54 L 343.22 692.83 L 344.69 697.20 L 346.17 690.27 L 347.64 690.80 L 349.11 694.17 L 350.58 695.96 L 352.06 692.17 L 353.53 692.41 L 355.00 692.24 L 356.47 693.67 L 357.94 689.79 L 359.42 695.48 L 360.89 698.19 L 362.36 698.87 L 363.83 698.53 L 365.31 698.33 L 366.78 699.00 L 368.25 698.43 L 369.72 698.73 L 371.19 698.83 L 372.67 699.04 L 374.14 699.00 L 375.61 698.53 L 377.08 696.89 L 378.56 698.65 L 380.03 696.64 L 381.50 697.51 L 382.97 697.80 L 384.44 698.21 L 385.92 699.12 L 387.39 698.36 L 388.86 695.62 L 390.33 694.27 L 391.81 697.87 L 393.28 698.48 L 394.75 698.49 L 396.22 698.89 L 397.69 697.34 L 399.17 694.01 L 400.64 696.50 L 402.11 698.33 L 403.58 698.53 L 405.06 698.20 L 406.53 698.17 L 408.00 697.75 L 409.47 698.53 L 410.94 698.22 L 412.42 697.96 L 413.89 697.10 L 415.36 695.83 L 416.83 698.18 L 418.31 695.20 L 419.78 695.40 L 421.25 662.42 L 422.72 652.88 L 424.19 655.47 L 425.67 671.46 L 427.14 672.78 L 428.61 684.66 L 430.08 674.29 L 431.56 689.64 L 433.03 689.44 L 434.50 689.44 L 435.97 680.50 L 437.44 683.84 L 438.92 654.33 L 440.39 646.39 L 441.86 675.75 L 443.33 679.69 L 444.81 688.91 L 446.28 695.72 L 447.75 693.29 L 449.22 688.57 L 450.69 698.19 L 452.17 698.72 L 453.64 698.36 L 455.11 696.59 L 456.58 698.75 L 458.06 698.72 L 459.53 698.46 L 461.00 697.15 L 462.47 699.09 L 463.94 695.70 L 465.42 673.03 L 466.89 686.89 L 468.36 683.05 L 469.83 680.49 L 471.31 642.45 L 472.78 674.21 L 474.25 620.18 L 475.72 645.53 L 477.19 601.25 L 478.67 642.34 L 480.14 669.55 L 481.61 647.88 L 483.08 660.68 L 484.56 688.56 L 486.03 665.28 L 487.50 672.93 L 488.97 651.39 L 490.44 680.45 L 491.92 682.66 L 493.39 674.32 L 494.86 649.96 L 496.33 659.95 L 497.81 660.01 L 499.28 672.08 L 500.75 664.51 L 502.22 674.66 L 503.69 679.66 L 505.17 669.86 L 506.64 652.79 L 508.11 673.45 L 509.58 659.88 L 511.06 663.97 L 512.53 646.58 L 514.00 640.14 L 515.47 645.52 L 516.94 665.36 L 518.42 641.62 L 519.89 684.23 L 521.36 641.24 L 522.83 665.95 L 524.31 615.43 L 525.78 667.22 L 527.25 668.55 L 528.72 662.63 L 530.19 659.27 L 531.67 673.72 L 533.14 678.89 L 534.61 647.09 L 536.08 663.30 L 537.56 661.88 L 539.03 664.34 L 540.50 673.40 L 541.97 671.40 L 543.44 680.80 L 544.92 689.67 L 546.39 679.80 L 547.86 683.62 L 549.33 665.94 L 550.81 679.87 L 552.28 678.36 L 553.75 682.93 L 555.22 685.64 L 556.69 677.03 L 558.17 667.41 L 559.64 648.06 L 561.11 681.05 L 562.58 657.04 L 564.06 655.83 L 565.53 659.48 L 567.00 688.50 L 568.47 686.79 L 569.94 676.84 L 571.42 671.37 L 572.89 663.62 L 574.36 661.20 L 575.83 677.37 L 577.31 653.74 L 578.78 668.92 L 580.25 674.87 L 581.72 683.91 L 583.19 688.09 L 584.67 657.99 L 586.14 676.80 L 587.61 685.81 L 589.08 680.10 L 590.56 675.73 L 592.03 680.22 L 593.50 685.29 L 594.97 685.20 L 596.44 660.58 L 597.92 679.95 L 599.39 675.01 L 600.86 681.33 L 602.33 673.36 L 603.81 672.08 L 605.28 682.43 L 606.75 682.43 L 608.22 672.69 L 609.69 685.19 L 611.17 689.40 L 612.64 694.19 L 614.11 662.66 L 615.58 681.75 L 617.06 667.73 L 618.53 682.06 L 620.00 670.02 L 621.47 688.03 L 622.94 692.45 L 624.42 692.35 L 625.89 690.37 L 627.36 689.63 L 628.83 691.41 L 630.31 692.18 L 631.78 681.10 L 633.25 681.05 L 634.72 690.85 L 636.19 682.65 L 637.67 687.43 L 639.14 687.71 L 640.61 680.93 L 642.08 680.58 L 643.56 679.04 L 645.03 652.03 L 646.50 670.25 L 647.97 614.85 L 649.44 617.14 L 650.92 602.79 L 652.39 652.16 L 653.86 673.60 L 655.33 684.23 L 656.81 682.03 L 658.28 653.05 L 659.75 671.20 L 661.22 628.20 L 662.69 558.57 L 664.17 575.03 L 665.64 626.94 L 667.11 623.66 L 668.58 629.16 L 670.06 669.36 L 671.53 601.36 L 673.00 625.12 L 674.47 638.30 L 675.94 615.59 L 677.42 636.15 L 678.89 659.42 L 680.36 678.04 L 681.83 669.58 L 683.31 676.45 L 684.78 681.24 L 686.25 666.16 L 687.72 674.69 L 689.19 688.50 L 690.67 686.72 L 692.14 681.65 L 693.61 692.85 L 695.08 682.93 L 696.56 691.32 L 698.03 686.85 L 699.50 682.82 L 700.97 684.42 L 702.44 689.75 L 703.92 688.62 L 705.39 688.59 L 706.86 687.07 L 708.33 694.66 L 709.81 692.04 L 711.28 683.67 L 712.75 692.52 L 714.22 692.21 L 715.69 686.85 L 717.17 692.12 L 718.64 675.74 L 720.11 674.78 L 721.58 690.11 L 723.06 685.72 L 724.53 687.30 L 726.00 696.51 L 727.47 685.27 L 728.94 681.82 L 730.42 682.53 L 731.89 683.69" stroke="#FB8C00" />
<text x="90" y="711.25" font-size="14" font-weight="700">Giroscópio (magnitude) (u.a.)</text>
<rect class="event" x="443.33" y="717.25" width="23.56" height="192.75" />
<line class="eventline" x1="443.33" y1="717.25" x2="443.33" y2="910.00" />
<line class="eventline" x1="466.89" y1="717.25" x2="466.89" y2="910.00" />
<line class="grid" x1="90" y1="910.00" x2="1150" y2="910.00" />
<text class="small" x="80" y="914.00" text-anchor="end">0.00</text>
<line class="grid" x1="90" y1="871.45" x2="1150" y2="871.45" />
<text class="small" x="80" y="875.45" text-anchor="end">0.10</text>
<line class="grid" x1="90" y1="832.90" x2="1150" y2="832.90" />
<text class="small" x="80" y="836.90" text-anchor="end">0.20</text>
<line class="grid" x1="90" y1="794.35" x2="1150" y2="794.35" />
<text class="small" x="80" y="798.35" text-anchor="end">0.30</text>
<line class="grid" x1="90" y1="755.80" x2="1150" y2="755.80" />
<text class="small" x="80" y="759.80" text-anchor="end">0.40</text>
<line class="grid" x1="90" y1="717.25" x2="1150" y2="717.25" />
<text class="small" x="80" y="721.25" text-anchor="end">0.50</text>
<line class="grid" x1="90.00" y1="717.25" x2="90.00" y2="910.00" />
<line class="grid" x1="266.67" y1="717.25" x2="266.67" y2="910.00" />
<line class="grid" x1="443.33" y1="717.25" x2="443.33" y2="910.00" />
<line class="grid" x1="620.00" y1="717.25" x2="620.00" y2="910.00" />
<line class="grid" x1="796.67" y1="717.25" x2="796.67" y2="910.00" />
<line class="grid" x1="973.33" y1="717.25" x2="973.33" y2="910.00" />
<line class="grid" x1="1150.00" y1="717.25" x2="1150.00" y2="910.00" />
<line class="axis" x1="90" y1="717.25" x2="90" y2="910.00" />
<line class="axis" x1="90" y1="910.00" x2="1150" y2="910.00" />
<path class="series" d="M 178.33 909.94 L 179.81 909.89 L 181.28 909.95 L 182.75 909.97 L 184.22 909.99 L 185.69 909.94 L 187.17 909.88 L 188.64 909.88 L 190.11 909.96 L 191.58 909.95 L 193.06 909.94 L 194.53 909.92 L 196.00 909.89 L 197.47 907.60 L 198.94 905.32 L 200.42 896.23 L 201.89 883.37 L 203.36 883.95 L 204.83 878.86 L 206.31 876.70 L 207.78 869.51 L 209.25 863.99 L 210.72 864.84 L 212.19 889.27 L 213.67 903.46 L 215.14 894.77 L 216.61 884.29 L 218.08 879.06 L 219.56 880.81 L 221.03 880.70 L 222.50 892.29 L 223.97 897.24 L 225.44 901.84 L 226.92 902.51 L 228.39 899.67 L 229.86 903.22 L 231.33 888.56 L 232.81 889.32 L 234.28 883.44 L 235.75 879.31 L 237.22 880.18 L 238.69 877.49 L 240.17 876.09 L 241.64 889.05 L 243.11 889.44 L 244.58 891.80 L 246.06 890.63 L 247.53 889.15 L 249.00 895.01 L 250.47 894.79 L 251.94 894.32 L 253.42 897.89 L 254.89 894.09 L 256.36 890.55 L 257.83 891.99 L 259.31 889.87 L 260.78 888.13 L 262.25 889.07 L 263.72 888.19 L 265.19 888.19 L 266.67 884.08 L 268.14 875.85 L 269.61 873.16 L 271.08 870.77 L 272.56 877.34 L 274.03 893.87 L 275.50 901.67 L 276.97 903.54 L 278.44 905.01 L 279.92 899.25 L 281.39 902.43 L 282.86 895.22 L 284.33 873.54 L 285.81 866.12 L 287.28 863.46 L 288.75 857.48 L 290.22 861.97 L 291.69 870.38 L 293.17 880.12 L 294.64 882.58 L 296.11 892.48 L 297.58 904.26 L 299.06 896.34 L 300.53 887.47 L 302.00 874.92 L 303.47 862.98 L 304.94 860.25 L 306.42 840.33 L 307.89 831.39 L 309.36 836.36 L 310.83 832.30 L 312.31 836.96 L 313.78 860.05 L 315.25 884.76 L 316.72 895.53 L 318.19 902.64 L 319.67 906.36 L 321.14 908.38 L 322.61 908.95 L 324.08 909.12 L 325.56 905.44 L 327.03 895.78 L 328.50 891.20 L 329.97 889.93 L 331.44 889.96 L 332.92 889.02 L 334.39 893.25 L 335.86 895.21 L 337.33 897.49 L 338.81 898.33 L 340.28 900.38 L 341.75 897.06 L 343.22 900.61 L 344.69 900.88 L 346.17 905.03 L 347.64 897.91 L 349.11 902.98 L 350.58 906.76 L 352.06 908.06 L 353.53 907.54 L 355.00 908.81 L 356.47 908.43 L 357.94 908.36 L 359.42 909.50 L 360.89 909.50 L 362.36 909.51 L 363.83 909.84 L 365.31 909.86 L 366.78 909.76 L 368.25 909.86 L 369.72 909.75 L 371.19 909.87 L 372.67 909.81 L 374.14 909.84 L 375.61 909.77 L 377.08 909.66 L 378.56 909.53 L 380.03 909.21 L 381.50 909.80 L 382.97 909.63 L 384.44 909.93 L 385.92 909.75 L 387.39 909.84 L 388.86 909.79 L 390.33 909.81 L 391.81 909.87 L 393.28 909.79 L 394.75 909.70 L 396.22 909.75 L 397.69 909.75 L 399.17 909.45 L 400.64 909.49 L 402.11 909.70 L 403.58 909.74 L 405.06 909.68 L 406.53 909.75 L 408.00 909.65 L 409.47 909.75 L 410.94 909.55 L 412.42 909.61 L 413.89 909.11 L 415.36 907.93 L 416.83 909.17 L 418.31 909.37 L 419.78 909.27 L 421.25 907.20 L 422.72 908.46 L 424.19 905.06 L 425.67 901.81 L 427.14 908.05 L 428.61 908.68 L 430.08 909.24 L 431.56 909.67 L 433.03 909.87 L 434.50 909.87 L 435.97 908.06 L 437.44 904.57 L 438.92 904.44 L 440.39 904.35 L 441.86 905.07 L 443.33 909.02 L 444.81 909.39 L 446.28 909.51 L 447.75 908.93 L 449.22 909.62 L 450.69 909.64 L 452.17 909.52 L 453.64 909.28 L 455.11 909.58 L 456.58 909.79 L 458.06 909.77 L 459.53 909.74 L 461.00 909.64 L 462.47 909.55 L 463.94 909.72 L 465.42 907.06 L 466.89 904.23 L 468.36 902.44 L 469.83 891.04 L 471.31 877.00 L 472.78 857.48 L 474.25 824.21 L 475.72 801.58 L 477.19 789.29 L 478.67 819.89 L 480.14 831.52 L 481.61 866.35 L 483.08 906.76 L 484.56 898.70 L 486.03 897.29 L 487.50 897.02 L 488.97 890.69 L 490.44 884.41 L 491.92 895.48 L 493.39 878.21 L 494.86 885.31 L 496.33 892.23 L 497.81 900.79 L 499.28 895.82 L 500.75 894.75 L 502.22 884.30 L 503.69 890.39 L 505.17 886.12 L 506.64 881.30 L 508.11 873.83 L 509.58 874.18 L 511.06 860.56 L 512.53 850.80 L 514.00 830.13 L 515.47 838.92 L 516.94 863.84 L 518.42 899.46 L 519.89 900.60 L 521.36 901.75 L 522.83 870.33 L 524.31 864.41 L 525.78 854.71 L 527.25 891.68 L 528.72 890.81 L 530.19 895.05 L 531.67 897.72 L 533.14 889.76 L 534.61 892.23 L 536.08 896.42 L 537.56 904.20 L 539.03 897.77 L 540.50 901.11 L 541.97 884.59 L 543.44 896.61 L 544.92 888.21 L 546.39 888.73 L 547.86 886.69 L 549.33 887.60 L 550.81 888.31 L 552.28 899.67 L 553.75 904.29 L 555.22 895.59 L 556.69 896.89 L 558.17 898.20 L 559.64 901.78 L 561.11 899.10 L 562.58 898.77 L 564.06 896.15 L 565.53 901.24 L 567.00 908.23 L 568.47 897.21 L 569.94 906.43 L 571.42 904.47 L 572.89 904.03 L 574.36 903.15 L 575.83 904.52 L 577.31 898.47 L 578.78 892.25 L 580.25 894.79 L 581.72 896.48 L 583.19 899.90 L 584.67 898.40 L 586.14 897.76 L 587.61 896.41 L 589.08 899.15 L 590.56 907.67 L 592.03 908.34 L 593.50 903.87 L 594.97 900.51 L 596.44 898.36 L 597.92 905.95 L 599.39 905.18 L 600.86 902.08 L 602.33 904.48 L 603.81 901.68 L 605.28 902.05 L 606.75 902.05 L 608.22 902.78 L 609.69 897.83 L 611.17 894.70 L 612.64 895.54 L 614.11 905.51 L 615.58 897.34 L 617.06 888.96 L 618.53 888.17 L 620.00 902.15 L 621.47 905.91 L 622.94 906.47 L 624.42 903.26 L 625.89 900.49 L 627.36 903.11 L 628.83 903.59 L 630.31 902.88 L 631.78 905.78 L 633.25 902.87 L 634.72 904.56 L 636.19 903.84 L 637.67 905.66 L 639.14 904.87 L 640.61 900.76 L 642.08 896.19 L 643.56 892.70 L 645.03 881.67 L 646.50 875.90 L 647.97 856.85 L 649.44 846.05 L 650.92 840.90 L 652.39 853.05 L 653.86 855.38 L 655.33 857.91 L 656.81 857.35 L 658.28 868.37 L 659.75 879.05 L 661.22 891.09 L 662.69 870.52 L 664.17 819.64 L 665.64 806.67 L 667.11 813.92 L 668.58 817.04 L 670.06 847.31 L 671.53 897.71 L 673.00 887.17 L 674.47 866.07 L 675.94 858.82 L 677.42 857.89 L 678.89 856.95 L 680.36 871.70 L 681.83 890.94 L 683.31 901.56 L 684.78 903.35 L 686.25 897.32 L 687.72 903.17 L 689.19 906.12 L 690.67 904.54 L 692.14 902.24 L 693.61 905.08 L 695.08 904.79 L 696.56 905.48 L 698.03 906.00 L 699.50 901.75 L 700.97 906.90 L 702.44 902.95 L 703.92 906.04 L 705.39 901.65 L 706.86 904.28 L 708.33 905.37 L 709.81 905.05 L 711.28 905.66 L 712.75 905.27 L 714.22 906.02 L 715.69 902.68 L 717.17 904.23 L 718.64 906.26 L 720.11 906.56 L 721.58 905.36 L 723.06 903.51 L 724.53 906.21 L 726.00 905.39 L 727.47 904.24 L 728.94 903.82 L 730.42 898.45 L 731.89 897.28" stroke="#E53935" />
<text x="620.00" y="952" font-size="15" text-anchor="middle">minutos (relativo ao início do evento)</text>
<text class="small" x="90.00" y="936" text-anchor="middle">-4.00</text>
<text class="small" x="266.67" y="936" text-anchor="middle">-2.00</text>
<text class="small" x="443.33" y="936" text-anchor="middle">0.00</text>
<text class="small" x="620.00" y="936" text-anchor="middle">2.00</text>
<text class="small" x="796.67" y="936" text-anchor="middle">4.00</text>
<text class="small" x="973.33" y="936" text-anchor="middle">6.00</text>
<text class="small" x="1150.00" y="936" text-anchor="middle">8.00</text>
</svg>