<?xml version="1.0" encoding="UTF-8"?>
<svg xmlns="http://www.w3.org/2000/svg" width="1180" height="980" viewBox="0 0 1180 980">
<style>
text { font-family: -apple-system, BlinkMacSystemFont, 'Segoe UI', Roboto, Helvetica, Arial, sans-serif; fill: #111; }
.small { font-size: 12px; fill: #222; }
.title { font-size: 18px; font-weight: 700; }
.axis { stroke: #111; stroke-width: 1.4; }
.grid { stroke: #E6E6E6; stroke-width: 1; }
.event { fill: #FFEB3B; fill-opacity: 0.18; }
.eventline { stroke: #F9A825; stroke-width: 1.2; stroke-dasharray: 4 3; }
.series { fill: none; stroke-width: 1.8; }
</style>
<text class="title" x="90" y="34">ciclo 18 — espera_carregamento — 2025-12-13T04:21:06-03:00 → 2025-12-13T04:23:31-03:00 (span 145s, dur 146s)</text>
<text class="small" x="90" y="54">GPS: -11.698919,-47.157438  hotspot: -11.699,-47.157</text>
<text class="small" x="90" y="70">Janela: -3.00 → 5.42 min (relativo ao início do evento)</text>
<text x="90" y="79.00" font-size="14" font-weight="700">Velocidade (km/h)</text>
<rect class="event" x="443.33" y="85.00" width="213.47" height="192.75" />
<line class="eventline" x1="443.33" y1="85.00" x2="443.33" y2="277.75" />
<line class="eventline" x1="656.81" y1="85.00" x2="656.81" y2="277.75" />
<line class="grid" x1="90" y1="277.75" x2="1150" y2="277.75" />
<text class="small" x="80" y="281.75" text-anchor="end">0.00</text>
<line class="grid" x1="90" y1="239.20" x2="1150" y2="239.20" />
<text class="small" x="80" y="243.20" text-anchor="end">5.00</text>
<line class="grid" x1="90" y1="200.65" x2="1150" y2="200.65" />
<text class="small" x="80" y="204.65" text-anchor="end">10.0</text>
<line class="grid" x1="90" y1="162.10" x2="1150" y2="162.10" />
<text class="small" x="80" y="166.10" text-anchor="end">15.0</text>
<line class="grid" x1="90" y1="123.55" x2="1150" y2="123.55" />
<text class="small" x="80" y="127.55" text-anchor="end">20.0</text>
<line class="grid" x1="90" y1="85.00" x2="1150" y2="85.00" />
<text class="small" x="80" y="89.00" text-anchor="end">25.0</text>
<line class="grid" x1="90.00" y1="85.00" x2="90.00" y2="277.75" />
<line class="grid" x1="266.67" y1="85.00" x2="266.67" y2="277.75" />
<line class="grid" x1="443.33" y1="85.00" x2="443.33" y2="277.75" />
<line class="grid" x1="620.00" y1="85.00" x2="620.00" y2="277.75" />
<line class="grid" x1="796.67" y1="85.00" x2="796.67" y2="277.75" />
<line class="grid" x1="973.33" y1="85.00" x2="973.33" y2="277.75" />
<line class="grid" x1="1150.00" y1="85.00" x2="1150.00" y2="277.75" />
<line class="axis" x1="90" y1="85.00" x2="90" y2="277.75" />
<line class="axis" x1="90" y1="277.75" x2="1150" y2="277.75" />
<path class="series" d="M 178.33 194.76 L 179.81 199.48 L 181.28 202.53 L 182.75 207.25 L 184.22 211.97 L 185.69 225.57 L 187.17 227.51 L 188.64 240.28 L 190.11 244.44 L 191.58 248.05 L 193.06 249.16 L 194.53 252.49 L 196.00 250.27 L 197.47 253.32 L 198.94 251.94 L 200.42 250.27 L 201.89 249.99 L 203.36 245.83 L 204.83 251.10 L 206.31 252.21 L 207.78 250.27 L 209.25 246.94 L 210.72 247.50 L 212.19 248.88 L 213.67 249.16 L 215.14 251.10 L 216.61 249.72 L 218.08 252.21 L 219.56 260.26 L 221.03 262.76 L 222.50 264.15 L 223.97 265.54 L 225.44 277.75 L 226.92 277.75 L 228.39 277.75 L 229.86 277.75 L 231.33 277.75 L 232.81 277.75 L 234.28 277.75 L 235.75 277.75 L 237.22 277.75 L 238.69 277.75 L 240.17 277.75 L 241.64 277.75 L 243.11 277.75 L 244.58 277.75 L 246.06 277.75 L 247.53 277.75 L 249.00 277.75 L 250.47 277.75 L 251.94 277.75 L 253.42 277.75 L 254.89 277.75 L 256.36 277.75 L 257.83 277.75 L 259.31 277.75 L 260.78 277.75 L 262.25 277.75 L 263.72 277.75 L 265.19 277.75 L 266.67 277.75 L 268.14 277.75 L 269.61 277.75 L 271.08 277.75 L 272.56 277.75 L 274.03 277.75 L 275.50 277.75 L 276.97 277.75 L 278.44 277.75 L 279.92 277.75 L 281.39 277.75 L 282.86 277.75 L 284.33 277.75 L 285.81 277.75 L 287.28 277.75 L 288.75 277.75 L 290.22 277.75 L 291.69 277.75 L 293.17 277.75 L 294.64 277.75 L 296.11 277.75 L 297.58 277.75 L 299.06 277.75 L 300.53 277.75 L 302.00 277.75 L 303.47 277.75 L 304.94 277.75 L 306.42 277.75 L 307.89 277.75 L 309.36 277.75 L 310.83 277.75 L 312.31 277.75 L 313.78 277.75 L 315.25 277.75 L 316.72 277.75 L 318.19 277.75 L 319.67 277.75 L 321.14 277.75 L 322.61 277.75 L 324.08 277.75 L 325.56 277.75 L 327.03 277.75 L 328.50 277.75 L 329.97 277.75 L 331.44 277.75 L 332.92 277.75 L 334.39 277.75 L 335.86 277.75 L 337.33 277.75 L 338.81 277.75 L 340.28 277.75 L 341.75 277.75 L 343.22 277.75 L 344.69 277.75 L 346.17 277.75 L 347.64 277.75 L 349.11 277.75 L 350.58 277.75 L 352.06 277.75 L 353.53 277.75 L 355.00 277.75 L 356.47 277.75 L 357.94 277.75 L 359.42 277.75 L 360.89 277.75 L 362.36 277.75 L 363.83 277.75 L 365.31 277.75 L 366.78 277.75 L 368.25 277.75 L 369.72 277.75 L 371.19 277.75 L 372.67 277.75 L 374.14 277.75 L 375.61 243.06 L 377.08 241.39 L 378.56 235.01 L 380.03 235.01 L 381.50 233.34 L 382.97 233.34 L 384.44 236.95 L 385.92 232.79 L 387.39 239.72 L 388.86 231.12 L 390.33 240.00 L 391.81 259.15 L 393.28 266.37 L 394.75 277.75 L 396.22 277.75 L 397.69 258.32 L 399.17 264.98 L 400.64 263.59 L 402.11 254.71 L 403.58 249.16 L 405.06 249.99 L 406.53 246.94 L 408.00 253.32 L 409.47 249.16 L 410.94 249.72 L 412.42 252.49 L 413.89 251.10 L 415.36 257.21 L 416.83 257.21 L 418.31 243.61 L 419.78 245.83 L 421.25 253.05 L 422.72 254.71 L 424.19 250.55 L 425.67 249.72 L 427.14 253.88 L 428.61 252.77 L 430.08 248.88 L 431.56 252.49 L 433.03 256.38 L 434.50 252.21 L 435.97 255.55 L 437.44 259.99 L 438.92 252.49 L 440.39 253.05 L 441.86 266.93 L 443.33 277.75 L 444.81 277.75 L 446.28 277.75 L 447.75 277.75 L 449.22 277.75 L 450.69 277.75 L 452.17 277.75 L 453.64 277.75 L 455.11 277.75 L 456.58 277.75 L 458.06 277.75 L 459.53 277.75 L 461.00 277.75 L 462.47 277.75 L 463.94 277.75 L 465.42 277.75 L 466.89 277.75 L 468.36 277.75 L 469.83 277.75 L 471.31 277.75 L 472.78 277.75 L 474.25 277.75 L 475.72 277.75 L 477.19 277.75 L 478.67 277.75 L 480.14 277.75 L 481.61 277.75 L 483.08 277.75 L 484.56 277.75 L 486.03 277.75 L 487.50 277.75 L 488.97 277.75 L 490.44 277.75 L 491.92 277.75 L 493.39 277.75 L 494.86 277.75 L 496.33 277.75 L 497.81 277.75 L 499.28 277.75 L 500.75 277.75 L 502.22 277.75 L 503.69 277.75 L 505.17 277.75 L 506.64 277.75 L 508.11 277.75 L 509.58 277.75 L 511.06 277.75 L 512.53 277.75 L 514.00 277.75 L 515.47 277.75 L 516.94 277.75 L 518.42 277.75 L 519.89 277.75 L 521.36 277.75 L 522.83 277.75 L 524.31 277.75 L 525.78 277.75 L 527.25 277.75 L 528.72 277.75 L 530.19 277.75 L 531.67 277.75 L 533.14 277.75 L 534.61 277.75 L 536.08 277.75 L 537.56 277.75 L 539.03 277.75 L 540.50 277.75 L 541.97 277.75 L 543.44 277.75 L 544.92 277.75 L 546.39 277.75 L 547.86 277.75 L 549.33 277.75 L 550.81 277.75 L 552.28 277.75 L 553.75 277.75 L 555.22 277.75 L 556.69 277.75 L 558.17 277.75 L 559.64 277.75 L 561.11 277.75 L 562.58 277.75 L 564.06 277.75 L 565.53 277.75 L 567.00 277.75 L 568.47 277.75 L 569.94 277.75 L 571.42 277.75 L 572.89 277.75 L 574.36 277.75 L 575.83 277.75 L 577.31 277.75 L 578.78 277.75 L 580.25 277.75 L 581.72 277.75 L 583.19 277.75 L 584.67 277.75 L 586.14 277.75 L 587.61 277.75 L 589.08 277.75 L 590.56 277.75 L 592.03 277.75 L 593.50 277.75 L 594.97 277.75 L 596.44 277.75 L 597.92 277.75 L 599.39 277.75 L 600.86 277.75 L 602.33 277.75 L 603.81 277.75 L 605.28 277.75 L 606.75 277.75 L 608.22 277.75 L 609.69 277.75 L 611.17 277.75 L 612.64 277.75 L 614.11 277.75 L 615.58 277.75 L 617.06 277.75 L 618.53 277.75 L 620.00 277.75 L 621.47 277.75 L 622.94 277.75 L 624.42 277.75 L 625.89 277.75 L 627.36 277.75 L 628.83 277.75 L 630.31 277.75 L 631.78 277.75 L 633.25 277.75 L 634.72 277.75 L 636.19 277.75 L 637.67 277.75 L 639.14 277.75 L 640.61 277.75 L 642.08 277.75 L 643.56 277.75 L 645.03 277.75 L 646.50 277.75 L 647.97 277.75 L 649.44 277.75 L 650.92 277.75 L 652.39 277.75 L 653.86 277.75 L 655.33 277.75 L 656.81 277.75 L 658.28 258.04 L 659.75 257.77 L 661.22 241.39 L 662.69 249.16 L 664.17 257.49 L 665.64 258.88 L 667.11 253.05 L 668.58 254.43 L 670.06 255.27 L 671.53 255.55 L 673.00 258.60 L 674.47 261.93 L 675.94 261.37 L 677.42 263.32 L 678.89 264.70 L 680.36 277.75 L 681.83 277.75 L 683.31 277.75 L 684.78 277.75 L 686.25 277.75 L 687.72 277.75 L 689.19 277.75 L 690.67 265.81 L 692.14 262.76 L 693.61 266.37 L 695.08 277.75 L 696.56 277.75 L 698.03 277.75 L 699.50 277.75 L 700.97 277.75 L 702.44 264.70 L 703.92 277.75 L 705.39 262.76 L 706.86 259.71 L 708.33 260.54 L 709.81 264.43 L 711.28 264.98 L 712.75 277.75 L 714.22 261.10 L 715.69 259.43 L 717.17 263.04 L 718.64 266.93 L 720.11 267.48 L 721.58 261.10 L 723.06 261.10 L 724.53 265.81 L 726.00 265.54 L 727.47 264.98 L 728.94 262.48 L 730.42 277.75 L 731.89 277.75 L 733.36 277.75 L 734.83 277.75 L 736.31 277.75 L 737.78 263.59 L 739.25 277.75 L 740.72 277.75 L 742.19 277.75 L 743.67 277.75 L 745.14 277.75 L 746.61 277.75 L 748.08 277.75 L 749.56 277.75 L 751.03 277.75 L 752.50 277.75 L 753.97 277.75 L 755.44 277.75 L 756.92 277.75 L 758.39 277.75 L 759.86 277.75 L 761.33 277.75 L 762.81 277.75 L 764.28 277.75 L 765.75 277.75 L 767.22 277.75 L 768.69 277.75 L 770.17 277.75 L 771.64 277.75 L 773.11 277.75 L 774.58 277.75 L 776.06 277.75 L 777.53 277.75 L 779.00 277.75 L 780.47 277.75 L 781.94 277.75 L 783.42 277.75 L 784.89 277.75 L 786.36 277.75 L 787.83 277.75 L 789.31 277.75 L 790.78 277.75 L 792.25 277.75 L 793.72 277.75 L 795.19 277.75 L 796.67 277.75 L 798.14 277.75 L 799.61 277.75 L 801.08 277.75 L 802.56 277.75 L 804.03 277.75 L 805.50 277.75 L 806.97 277.75 L 808.44 277.75 L 809.92 277.75 L 811.39 277.75 L 812.86 277.75 L 814.33 277.75 L 815.81 277.75 L 817.28 277.75 L 818.75 277.75 L 820.22 277.75 L 821.69 277.75 L 823.17 277.75 L 824.64 277.75 L 826.11 277.75 L 827.58 277.75 L 829.06 277.75 L 830.53 277.75 L 832.00 277.75 L 833.47 277.75 L 834.94 277.75 L 836.42 277.75 L 837.89 277.75 L 839.36 277.75 L 840.83 277.75 L 842.31 277.75 L 843.78 277.75 L 845.25 277.75 L 846.72 277.75 L 848.19 277.75 L 849.67 277.75 L 851.14 277.75 L 852.61 277.75 L 854.08 277.75 L 855.56 277.75 L 857.03 277.75 L 858.50 277.75 L 859.97 277.75 L 861.44 277.75 L 862.92 277.75 L 864.39 277.75 L 865.86 277.75 L 867.33 277.75 L 868.81 277.75 L 870.28 277.75 L 871.75 277.75 L 873.22 277.75 L 874.69 277.75 L 876.17 277.75 L 877.64 277.75 L 879.11 277.75 L 880.58 277.75 L 882.06 277.75 L 883.53 277.75 L 885.00 277.75 L 886.47 277.75 L 887.94 277.75 L 889.42 277.75 L 890.89 277.75 L 892.36 277.75 L 893.83 277.75 L 895.31 277.75 L 896.78 277.75 L 898.25 277.75 L 899.72 277.75 L 901.19 277.75 L 902.67 277.75 L 904.14 277.75 L 905.61 277.75 L 907.08 277.75 L 908.56 277.75 L 910.03 277.75 L 911.50 277.75 L 912.97 277.75 L 914.44 277.75 L 915.92 277.75 L 917.39 277.75 L 918.86 277.75 L 920.33 277.75 L 921.81 277.75" stroke="#1976D2" />
<text x="90" y="289.75" font-size="14" font-weight="700">Inclinação (graus)</text>
<rect class="event" x="443.33" y="295.75" width="213.47" height="192.75" />
<line class="eventline" x1="443.33" y1="295.75" x2="443.33" y2="488.50" />
<line class="eventline" x1="656.81" y1="295.75" x2="656.81" y2="488.50" />
<line class="grid" x1="90" y1="488.50" x2="1150" y2="488.50" />
<text class="small" x="80" y="492.50" text-anchor="end">-10.0</text>
<line class="grid" x1="90" y1="449.95" x2="1150" y2="449.95" />
<text class="small" x="80" y="453.95" text-anchor="end">0.00</text>
<line class="grid" x1="90" y1="411.40" x2="1150" y2="411.40" />
<text class="small" x="80" y="415.40" text-anchor="end">10.0</text>
<line class="grid" x1="90" y1="372.85" x2="1150" y2="372.85" />
<text class="small" x="80" y="376.85" text-anchor="end">20.0</text>
<line class="grid" x1="90" y1="334.30" x2="1150" y2="334.30" />
<text class="small" x="80" y="338.30" text-anchor="end">30.0</text>
<line class="grid" x1="90" y1="295.75" x2="1150" y2="295.75" />
<text class="small" x="80" y="299.75" text-anchor="end">40.0</text>
<line class="grid" x1="90.00" y1="295.75" x2="90.00" y2="488.50" />
<line class="grid" x1="266.67" y1="295.75" x2="266.67" y2="488.50" />
<line class="grid" x1="443.33" y1="295.75" x2="443.33" y2="488.50" />
<line class="grid" x1="620.00" y1="295.75" x2="620.00" y2="488.50" />
<line class="grid" x1="796.67" y1="295.75" x2="796.67" y2="488.50" />
<line class="grid" x1="973.33" y1="295.75" x2="973.33" y2="488.50" />
<line class="grid" x1="1150.00" y1="295.75" x2="1150.00" y2="488.50" />
<line class="axis" x1="90" y1="295.75" x2="90" y2="488.50" />
<line class="axis" x1="90" y1="488.50" x2="1150" y2="488.50" />
<path class="series" d="M 178.33 396.33 L 179.81 401.82 L 181.28 405.36 L 182.75 403.56 L 184.22 403.08 L 185.69 397.57 L 187.17 397.26 L 188.64 393.15 L 190.11 399.46 L 191.58 399.44 L 193.06 400.88 L 194.53 401.45 L 196.00 403.57 L 197.47 401.89 L 198.94 402.62 L 200.42 405.61 L 201.89 405.14 L 203.36 398.01 L 204.83 400.29 L 206.31 401.93 L 207.78 401.66 L 209.25 404.11 L 210.72 404.38 L 212.19 406.54 L 213.67 406.99 L 215.14 407.32 L 216.61 407.59 L 218.08 404.06 L 219.56 406.24 L 221.03 407.12 L 222.50 410.38 L 223.97 405.57 L 225.44 401.56 L 226.92 412.32 L 228.39 410.80 L 229.86 410.74 L 231.33 410.71 L 232.81 410.79 L 234.28 410.70 L 235.75 410.76 L 237.22 410.76 L 238.69 410.75 L 240.17 410.72 L 241.64 410.80 L 243.11 410.75 L 244.58 410.75 L 246.06 410.75 L 247.53 410.75 L 249.00 410.79 L 250.47 410.75 L 251.94 410.78 L 253.42 410.76 L 254.89 410.77 L 256.36 410.74 L 257.83 410.75 L 259.31 410.77 L 260.78 410.77 L 262.25 410.76 L 263.72 410.73 L 265.19 410.75 L 266.67 410.79 L 268.14 410.75 L 269.61 410.75 L 271.08 410.73 L 272.56 410.76 L 274.03 410.74 L 275.50 410.72 L 276.97 410.79 L 278.44 410.72 L 279.92 410.76 L 281.39 410.70 L 282.86 410.64 L 284.33 410.72 L 285.81 410.71 L 287.28 410.71 L 288.75 410.71 L 290.22 410.74 L 291.69 410.71 L 293.17 410.73 L 294.64 410.71 L 296.11 410.75 L 297.58 410.74 L 299.06 410.73 L 300.53 410.72 L 302.00 410.71 L 303.47 410.74 L 304.94 410.75 L 306.42 410.78 L 307.89 410.70 L 309.36 410.81 L 310.83 410.73 L 312.31 410.78 L 313.78 410.73 L 315.25 410.74 L 316.72 410.77 L 318.19 410.75 L 319.67 410.71 L 321.14 410.75 L 322.61 410.80 L 324.08 410.75 L 325.56 410.80 L 327.03 410.77 L 328.50 410.78 L 329.97 410.76 L 331.44 410.74 L 332.92 410.75 L 334.39 410.77 L 335.86 410.75 L 337.33 410.72 L 338.81 410.77 L 340.28 410.71 L 341.75 410.75 L 343.22 410.76 L 344.69 410.70 L 346.17 410.75 L 347.64 410.76 L 349.11 410.70 L 350.58 410.72 L 352.06 410.75 L 353.53 410.75 L 355.00 410.81 L 356.47 410.72 L 357.94 410.76 L 359.42 410.74 L 360.89 410.75 L 362.36 410.74 L 363.83 410.79 L 365.31 410.76 L 366.78 410.76 L 368.25 410.75 L 369.72 410.96 L 371.19 415.97 L 372.67 423.03 L 374.14 415.00 L 375.61 418.50 L 377.08 415.67 L 378.56 414.94 L 380.03 421.21 L 381.50 419.10 L 382.97 415.15 L 384.44 419.76 L 385.92 413.93 L 387.39 427.48 L 388.86 417.16 L 390.33 413.87 L 391.81 413.88 L 393.28 420.62 L 394.75 421.06 L 396.22 427.38 L 397.69 409.63 L 399.17 416.38 L 400.64 421.97 L 402.11 421.39 L 403.58 416.60 L 405.06 418.80 L 406.53 408.38 L 408.00 414.30 L 409.47 403.55 L 410.94 405.69 L 412.42 407.73 L 413.89 409.15 L 415.36 407.44 L 416.83 415.36 L 418.31 401.36 L 419.78 397.64 L 421.25 396.91 L 422.72 407.52 L 424.19 408.52 L 425.67 412.35 L 427.14 400.55 L 428.61 411.00 L 430.08 398.50 L 431.56 398.50 L 433.03 395.76 L 434.50 399.74 L 435.97 398.57 L 437.44 393.05 L 438.92 395.43 L 440.39 391.95 L 441.86 388.12 L 443.33 386.39 L 444.81 382.47 L 446.28 391.86 L 447.75 402.10 L 449.22 400.72 L 450.69 396.61 L 452.17 395.95 L 453.64 410.89 L 455.11 396.97 L 456.58 398.58 L 458.06 398.29 L 459.53 398.29 L 461.00 398.27 L 462.47 398.19 L 463.94 398.22 L 465.42 398.18 L 466.89 398.19 L 468.36 398.17 L 469.83 398.14 L 471.31 398.16 L 472.78 398.16 L 474.25 398.12 L 475.72 398.14 L 477.19 398.10 L 478.67 398.15 L 480.14 398.11 L 481.61 398.11 L 483.08 398.16 L 484.56 398.17 L 486.03 398.21 L 487.50 398.22 L 488.97 398.17 L 490.44 398.12 L 491.92 398.12 L 493.39 398.13 L 494.86 398.08 L 496.33 398.18 L 497.81 398.16 L 499.28 398.18 L 500.75 398.18 L 502.22 398.15 L 503.69 398.17 L 505.17 398.17 L 506.64 398.14 L 508.11 398.19 L 509.58 398.18 L 511.06 398.14 L 512.53 398.20 L 514.00 398.13 L 515.47 398.17 L 516.94 398.16 L 518.42 398.12 L 519.89 398.22 L 521.36 398.16 L 522.83 398.16 L 524.31 398.16 L 525.78 398.19 L 527.25 398.22 L 528.72 398.20 L 530.19 398.15 L 531.67 398.16 L 533.14 398.21 L 534.61 398.13 L 536.08 398.16 L 537.56 398.18 L 539.03 398.17 L 540.50 398.17 L 541.97 398.16 L 543.44 398.12 L 544.92 398.19 L 546.39 398.14 L 547.86 398.15 L 549.33 398.11 L 550.81 398.16 L 552.28 398.19 L 553.75 398.11 L 555.22 398.14 L 556.69 398.19 L 558.17 398.14 L 559.64 398.18 L 561.11 398.17 L 562.58 398.19 L 564.06 398.18 L 565.53 398.18 L 567.00 398.17 L 568.47 398.20 L 569.94 398.16 L 571.42 398.11 L 572.89 398.12 L 574.36 398.13 L 575.83 398.16 L 577.31 398.18 L 578.78 398.12 L 580.25 398.16 L 581.72 398.17 L 583.19 398.14 L 584.67 398.16 L 586.14 398.16 L 587.61 398.17 L 589.08 398.14 L 590.56 398.13 L 592.03 398.15 L 593.50 398.17 L 594.97 398.12 L 596.44 398.13 L 597.92 398.13 L 599.39 398.10 L 600.86 398.16 L 602.33 398.09 L 603.81 398.11 L 605.28 398.13 L 606.75 398.09 L 608.22 398.10 L 609.69 398.11 L 611.17 398.12 L 612.64 398.13 L 614.11 398.15 L 615.58 398.09 L 617.06 398.11 L 618.53 398.28 L 620.00 398.18 L 621.47 398.25 L 622.94 398.21 L 624.42 398.24 L 625.89 398.23 L 627.36 398.20 L 628.83 398.28 L 630.31 398.27 L 631.78 398.25 L 633.25 398.24 L 634.72 398.29 L 636.19 398.25 L 637.67 398.26 L 639.14 398.18 L 640.61 397.80 L 642.08 398.75 L 643.56 398.24 L 645.03 398.24 L 646.50 398.23 L 647.97 398.23 L 649.44 398.27 L 650.92 398.21 L 652.39 398.11 L 653.86 396.23 L 655.33 391.47 L 656.81 392.22 L 658.28 398.15 L 659.75 395.45 L 661.22 411.88 L 662.69 419.43 L 664.17 414.96 L 665.64 409.40 L 667.11 411.51 L 668.58 407.45 L 670.06 406.23 L 671.53 402.84 L 673.00 402.35 L 674.47 402.05 L 675.94 401.05 L 677.42 401.41 L 678.89 400.38 L 680.36 397.10 L 681.83 397.86 L 683.31 398.30 L 684.78 399.27 L 686.25 402.78 L 687.72 397.79 L 689.19 405.12 L 690.67 401.39 L 692.14 406.51 L 693.61 404.26 L 695.08 410.40 L 696.56 402.65 L 698.03 405.42 L 699.50 404.74 L 700.97 404.32 L 702.44 404.43 L 703.92 398.14 L 705.39 399.19 L 706.86 400.91 L 708.33 401.43 L 709.81 404.00 L 711.28 397.13 L 712.75 391.98 L 714.22 396.62 L 715.69 401.89 L 717.17 402.12 L 718.64 398.82 L 720.11 395.81 L 721.58 402.06 L 723.06 405.23 L 724.53 401.08 L 726.00 401.08 L 727.47 400.59 L 728.94 400.96 L 730.42 407.55 L 731.89 401.90 L 733.36 412.05 L 734.83 410.53 L 736.31 416.88 L 737.78 398.90 L 739.25 422.49 L 740.72 404.48 L 742.19 406.59 L 743.67 409.80 L 745.14 407.49 L 746.61 406.91 L 748.08 407.47 L 749.56 408.33 L 751.03 406.70 L 752.50 407.67 L 753.97 407.52 L 755.44 407.52 L 756.92 407.45 L 758.39 407.47 L 759.86 407.45 L 761.33 407.48 L 762.81 407.47 L 764.28 407.44 L 765.75 407.44 L 767.22 407.43 L 768.69 407.43 L 770.17 407.40 L 771.64 407.45 L 773.11 407.43 L 774.58 407.52 L 776.06 406.86 L 777.53 410.76 L 779.00 404.27 L 780.47 407.65 L 781.94 407.23 L 783.42 407.14 L 784.89 407.21 L 786.36 407.17 L 787.83 407.16 L 789.31 407.11 L 790.78 407.18 L 792.25 407.18 L 793.72 407.17 L 795.19 407.11 L 796.67 407.15 L 798.14 407.11 L 799.61 407.14 L 801.08 407.18 L 802.56 407.15 L 804.03 407.14 L 805.50 407.17 L 806.97 407.13 L 808.44 407.11 L 809.92 407.16 L 811.39 407.13 L 812.86 407.11 L 814.33 407.10 L 815.81 407.40 L 817.28 407.38 L 818.75 406.48 L 820.22 406.02 L 821.69 406.23 L 823.17 406.66 L 824.64 406.31 L 826.11 406.47 L 827.58 406.36 L 829.06 406.42 L 830.53 406.41 L 832.00 406.36 L 833.47 406.33 L 834.94 406.35 L 836.42 406.34 L 837.89 406.35 L 839.36 406.36 L 840.83 406.34 L 842.31 406.37 L 843.78 406.91 L 845.25 407.02 L 846.72 406.42 L 848.19 407.66 L 849.67 406.92 L 851.14 407.17 L 852.61 407.27 L 854.08 407.19 L 855.56 407.31 L 857.03 407.22 L 858.50 407.25 L 859.97 407.27 L 861.44 407.23 L 862.92 407.28 L 864.39 407.22 L 865.86 407.26 L 867.33 407.25 L 868.81 407.22 L 870.28 407.27 L 871.75 407.21 L 873.22 407.29 L 874.69 407.22 L 876.17 407.29 L 877.64 407.27 L 879.11 407.27 L 880.58 407.19 L 882.06 407.26 L 883.53 407.29 L 885.00 407.26 L 886.47 407.25 L 887.94 407.26 L 889.42 407.24 L 890.89 407.27 L 892.36 407.28 L 893.83 407.26 L 895.31 407.30 L 896.78 407.29 L 898.25 407.28 L 899.72 407.28 L 901.19 407.68 L 902.67 408.23 L 904.14 406.59 L 905.61 407.36 L 907.08 407.34 L 908.56 407.70 L 910.03 407.58 L 911.50 407.44 L 912.97 407.43 L 914.44 407.52 L 915.92 407.46 L 917.39 407.39 L 918.86 407.53 L 920.33 407.47 L 921.81 407.42" stroke="#2E7D32" />
<path class="series" d="M 178.33 448.46 L 179.81 451.71 L 181.28 456.24 L 182.75 455.30 L 184.22 460.90 L 185.69 464.79 L 187.17 456.14 L 188.64 455.53 L 190.11 454.90 L 191.58 452.62 L 193.06 452.88 L 194.53 456.98 L 196.00 456.27 L 197.47 454.94 L 198.94 455.49 L 200.42 455.77 L 201.89 455.08 L 203.36 459.11 L 204.83 456.41 L 206.31 454.75 L 207.78 451.22 L 209.25 453.53 L 210.72 449.78 L 212.19 449.00 L 213.67 446.94 L 215.14 449.55 L 216.61 446.89 L 218.08 451.26 L 219.56 447.24 L 221.03 447.54 L 222.50 449.45 L 223.97 450.76 L 225.44 453.27 L 226.92 451.34 L 228.39 451.22 L 229.86 451.40 L 231.33 451.24 L 232.81 451.33 L 234.28 451.25 L 235.75 451.37 L 237.22 451.24 L 238.69 451.33 L 240.17 451.31 L 241.64 451.28 L 243.11 451.28 L 244.58 451.23 L 246.06 451.29 L 247.53 451.28 L 249.00 451.25 L 250.47 451.23 L 251.94 451.26 L 253.42 451.28 L 254.89 451.25 L 256.36 451.20 L 257.83 451.25 L 259.31 451.27 L 260.78 451.26 L 262.25 451.19 L 263.72 451.24 L 265.19 451.30 L 266.67 451.21 L 268.14 451.21 L 269.61 451.20 L 271.08 451.29 L 272.56 451.20 L 274.03 451.21 L 275.50 451.20 L 276.97 451.30 L 278.44 451.18 L 279.92 451.25 L 281.39 451.18 L 282.86 451.20 L 284.33 451.24 L 285.81 451.13 L 287.28 451.19 L 288.75 451.20 L 290.22 451.25 L 291.69 451.14 L 293.17 451.22 L 294.64 451.28 L 296.11 451.27 L 297.58 451.24 L 299.06 451.23 L 300.53 451.23 L 302.00 451.26 L 303.47 451.24 L 304.94 451.20 L 306.42 451.24 L 307.89 451.26 L 309.36 451.22 L 310.83 451.26 L 312.31 451.23 L 313.78 451.22 L 315.25 451.24 L 316.72 451.25 L 318.19 451.16 L 319.67 451.31 L 321.14 451.22 L 322.61 451.24 L 324.08 451.24 L 325.56 451.20 L 327.03 451.24 L 328.50 451.24 L 329.97 451.24 L 331.44 451.20 L 332.92 451.26 L 334.39 451.24 L 335.86 451.23 L 337.33 451.21 L 338.81 451.27 L 340.28 451.20 L 341.75 451.21 L 343.22 451.17 L 344.69 451.24 L 346.17 451.24 L 347.64 451.23 L 349.11 451.18 L 350.58 451.22 L 352.06 451.25 L 353.53 451.20 L 355.00 451.22 L 356.47 451.27 L 357.94 451.24 L 359.42 451.17 L 360.89 451.24 L 362.36 451.21 L 363.83 451.19 L 365.31 451.26 L 366.78 451.18 L 368.25 451.18 L 369.72 451.33 L 371.19 449.39 L 372.67 450.01 L 374.14 447.72 L 375.61 449.49 L 377.08 447.51 L 378.56 448.19 L 380.03 457.92 L 381.50 453.47 L 382.97 442.12 L 384.44 447.02 L 385.92 454.20 L 387.39 436.54 L 388.86 441.33 L 390.33 454.97 L 391.81 446.84 L 393.28 442.17 L 394.75 437.71 L 396.22 436.86 L 397.69 442.42 L 399.17 441.04 L 400.64 436.63 L 402.11 431.57 L 403.58 429.86 L 405.06 432.72 L 406.53 436.57 L 408.00 442.48 L 409.47 436.11 L 410.94 439.38 L 412.42 438.76 L 413.89 440.58 L 415.36 441.21 L 416.83 435.79 L 418.31 442.45 L 419.78 441.47 L 421.25 441.78 L 422.72 453.56 L 424.19 447.68 L 425.67 456.82 L 427.14 453.25 L 428.61 452.10 L 430.08 464.42 L 431.56 464.42 L 433.03 447.58 L 434.50 459.37 L 435.97 457.52 L 437.44 461.84 L 438.92 451.06 L 440.39 451.33 L 441.86 451.08 L 443.33 454.48 L 444.81 451.40 L 446.28 456.45 L 447.75 456.99 L 449.22 457.09 L 450.69 455.14 L 452.17 462.32 L 453.64 459.91 L 455.11 458.54 L 456.58 462.54 L 458.06 460.48 L 459.53 461.55 L 461.00 461.21 L 462.47 461.07 L 463.94 461.42 L 465.42 461.12 L 466.89 461.17 L 468.36 461.34 L 469.83 461.15 L 471.31 461.20 L 472.78 461.23 L 474.25 461.19 L 475.72 461.22 L 477.19 461.16 L 478.67 461.17 L 480.14 461.21 L 481.61 461.27 L 483.08 461.21 L 484.56 461.19 L 486.03 461.25 L 487.50 461.25 L 488.97 461.16 L 490.44 461.17 L 491.92 461.22 L 493.39 461.22 L 494.86 461.21 L 496.33 461.26 L 497.81 461.20 L 499.28 461.28 L 500.75 461.27 L 502.22 461.21 L 503.69 461.25 L 505.17 461.28 L 506.64 461.32 L 508.11 461.23 L 509.58 461.21 L 511.06 461.31 L 512.53 461.22 L 514.00 461.21 L 515.47 461.20 L 516.94 461.28 L 518.42 461.28 L 519.89 461.23 L 521.36 461.22 L 522.83 461.25 L 524.31 461.31 L 525.78 461.23 L 527.25 461.22 L 528.72 461.30 L 530.19 461.29 L 531.67 461.24 L 533.14 461.29 L 534.61 461.23 L 536.08 461.31 L 537.56 461.27 L 539.03 461.22 L 540.50 461.28 L 541.97 461.32 L 543.44 461.29 L 544.92 461.19 L 546.39 461.25 L 547.86 461.30 L 549.33 461.27 L 550.81 461.25 L 552.28 461.24 L 553.75 461.26 L 555.22 461.29 L 556.69 461.21 L 558.17 461.22 L 559.64 461.37 L 561.11 461.23 L 562.58 461.27 L 564.06 461.20 L 565.53 461.24 L 567.00 461.30 L 568.47 461.27 L 569.94 461.25 L 571.42 461.27 L 572.89 461.34 L 574.36 461.26 L 575.83 461.24 L 577.31 461.30 L 578.78 461.31 L 580.25 461.30 L 581.72 461.20 L 583.19 461.32 L 584.67 461.35 L 586.14 461.29 L 587.61 461.30 L 589.08 461.23 L 590.56 461.31 L 592.03 461.22 L 593.50 461.18 L 594.97 461.21 L 596.44 461.26 L 597.92 461.26 L 599.39 461.24 L 600.86 461.25 L 602.33 461.26 L 603.81 461.28 L 605.28 461.29 L 606.75 461.25 L 608.22 461.31 L 609.69 461.28 L 611.17 461.23 L 612.64 461.22 L 614.11 461.22 L 615.58 461.29 L 617.06 461.28 L 618.53 461.23 L 620.00 461.21 L 621.47 461.24 L 622.94 461.30 L 624.42 461.23 L 625.89 461.21 L 627.36 461.29 L 628.83 461.26 L 630.31 461.22 L 631.78 461.16 L 633.25 461.28 L 634.72 461.23 L 636.19 461.22 L 637.67 461.21 L 639.14 461.29 L 640.61 460.87 L 642.08 461.78 L 643.56 461.28 L 645.03 461.38 L 646.50 461.18 L 647.97 461.34 L 649.44 461.37 L 650.92 461.33 L 652.39 461.32 L 653.86 461.79 L 655.33 464.96 L 656.81 463.76 L 658.28 465.92 L 659.75 461.17 L 661.22 457.83 L 662.69 448.06 L 664.17 450.69 L 665.64 460.64 L 667.11 453.92 L 668.58 460.63 L 670.06 463.47 L 671.53 472.16 L 673.00 465.01 L 674.47 471.89 L 675.94 464.09 L 677.42 459.39 L 678.89 459.21 L 680.36 459.15 L 681.83 456.52 L 683.31 456.30 L 684.78 460.38 L 686.25 466.02 L 687.72 462.53 L 689.19 461.62 L 690.67 463.65 L 692.14 466.32 L 693.61 467.08 L 695.08 470.96 L 696.56 469.50 L 698.03 467.63 L 699.50 469.86 L 700.97 469.72 L 702.44 464.99 L 703.92 474.12 L 705.39 473.82 L 706.86 468.94 L 708.33 470.37 L 709.81 474.20 L 711.28 466.99 L 712.75 457.65 L 714.22 454.40 L 715.69 456.77 L 717.17 450.62 L 718.64 451.04 L 720.11 454.76 L 721.58 455.15 L 723.06 458.97 L 724.53 461.97 L 726.00 461.97 L 727.47 465.20 L 728.94 467.58 L 730.42 458.13 L 731.89 460.35 L 733.36 454.75 L 734.83 457.03 L 736.31 457.68 L 737.78 462.95 L 739.25 455.86 L 740.72 454.89 L 742.19 457.54 L 743.67 459.20 L 745.14 459.65 L 746.61 459.56 L 748.08 459.61 L 749.56 459.96 L 751.03 459.06 L 752.50 459.53 L 753.97 459.46 L 755.44 459.54 L 756.92 459.54 L 758.39 459.57 L 759.86 459.58 L 761.33 459.54 L 762.81 459.56 L 764.28 459.57 L 765.75 459.56 L 767.22 459.49 L 768.69 459.56 L 770.17 459.57 L 771.64 459.60 L 773.11 459.47 L 774.58 459.62 L 776.06 459.32 L 777.53 459.08 L 779.00 459.09 L 780.47 458.48 L 781.94 458.22 L 783.42 458.46 L 784.89 458.70 L 786.36 458.79 L 787.83 458.59 L 789.31 458.49 L 790.78 458.48 L 792.25 458.67 L 793.72 458.64 L 795.19 458.61 L 796.67 458.60 L 798.14 458.56 L 799.61 458.62 L 801.08 458.60 L 802.56 458.62 L 804.03 458.54 L 805.50 458.55 L 806.97 458.66 L 808.44 458.61 L 809.92 458.60 L 811.39 458.56 L 812.86 458.65 L 814.33 458.61 L 815.81 458.68 L 817.28 458.86 L 818.75 458.66 L 820.22 457.47 L 821.69 457.53 L 823.17 457.74 L 824.64 457.61 L 826.11 457.82 L 827.58 457.93 L 829.06 458.03 L 830.53 458.02 L 832.00 457.94 L 833.47 457.73 L 834.94 457.73 L 836.42 457.77 L 837.89 457.91 L 839.36 457.89 L 840.83 457.83 L 842.31 457.84 L 843.78 457.77 L 845.25 457.55 L 846.72 458.84 L 848.19 457.82 L 849.67 458.19 L 851.14 458.26 L 852.61 458.13 L 854.08 458.13 L 855.56 458.20 L 857.03 458.23 L 858.50 458.11 L 859.97 458.09 L 861.44 458.14 L 862.92 458.17 L 864.39 458.12 L 865.86 458.15 L 867.33 458.18 L 868.81 458.22 L 870.28 458.19 L 871.75 458.13 L 873.22 458.19 L 874.69 458.19 L 876.17 458.14 L 877.64 458.10 L 879.11 458.16 L 880.58 458.15 L 882.06 458.14 L 883.53 458.08 L 885.00 458.15 L 886.47 458.20 L 887.94 458.15 L 889.42 458.14 L 890.89 458.14 L 892.36 458.19 L 893.83 458.16 L 895.31 458.14 L 896.78 458.11 L 898.25 458.23 L 899.72 457.99 L 901.19 458.00 L 902.67 458.18 L 904.14 458.04 L 905.61 457.49 L 907.08 457.89 L 908.56 457.88 L 910.03 457.77 L 911.50 457.96 L 912.97 457.87 L 914.44 457.87 L 915.92 457.88 L 917.39 457.92 L 918.86 457.92 L 920.33 457.86 L 921.81 457.89" stroke="#6A1B9A" />
<line x1="900.00" y1="307.75" x2="918.00" y2="307.75" stroke="#2E7D32" stroke-width="3" />
<text class="small" x="924.00" y="311.75">pitch</text>
<line x1="900.00" y1="323.75" x2="918.00" y2="323.75" stroke="#6A1B9A" stroke-width="3" />
<text class="small" x="924.00" y="327.75">roll</text>
<text x="90" y="500.50" font-size="14" font-weight="700">Aceleração (magnitude) (u.a.)</text>
<rect class="event" x="443.33" y="506.50" width="213.47" height="192.75" />
<line class="eventline" x1="443.33" y1="506.50" x2="443.33" y2="699.25" />
<line class="eventline" x1="656.81" y1="506.50" x2="656.81" y2="699.25" />
<line class="grid" x1="90" y1="699.25" x2="1150" y2="699.25" />
<text class="small" x="80" y="703.25" text-anchor="end">0.00</text>
<line class="grid" x1="90" y1="660.70" x2="1150" y2="660.70" />
<text class="small" x="80" y="664.70" text-anchor="end">0.20</text>
<line class="grid" x1="90" y1="622.15" x2="1150" y2="622.15" />
<text class="small" x="80" y="626.15" text-anchor="end">0.40</text>
<line class="grid" x1="90" y1="583.60" x2="1150" y2="583.60" />
<text class="small" x="80" y="587.60" text-anchor="end">0.60</text>
<line class="grid" x1="90" y1="545.05" x2="1150" y2="545.05" />
<text class="small" x="80" y="549.05" text-anchor="end">0.80</text>
<line class="grid" x1="90" y1="506.50" x2="1150" y2="506.50" />
<text class="small" x="80" y="510.50" text-anchor="end">1.00</text>
<line class="grid" x1="90.00" y1="506.50" x2="90.00" y2="699.25" />
<line class="grid" x1="266.67" y1="506.50" x2="266.67" y2="699.25" />
<line class="grid" x1="443.33" y1="506.50" x2="443.33" y2="699.25" />
<line class="grid" x1="620.00" y1="506.50" x2="620.00" y2="699.25" />
<line class="grid" x1="796.67" y1="506.50" x2="796.67" y2="699.25" />
<line class="grid" x1="973.33" y1="506.50" x2="973.33" y2="699.25" />
<line class="grid" x1="1150.00" y1="506.50" x2="1150.00" y2="699.25" />
<line class="axis" x1="90" y1="506.50" x2="90" y2="699.25" />
<line class="axis" x1="90" y1="699.25" x2="1150" y2="699.25" />
<path class="series" d="M 178.33 650.20 L 179.81 657.84 L 181.28 670.89 L 182.75 666.91 L 184.22 659.08 L 185.69 673.67 L 187.17 634.19 L 188.64 640.11 L 190.11 678.19 L 191.58 676.30 L 193.06 694.14 L 194.53 682.78 L 196.00 685.95 L 197.47 691.29 L 198.94 684.36 L 200.42 694.05 L 201.89 688.32 L 203.36 690.25 L 204.83 693.94 L 206.31 684.09 L 207.78 683.09 L 209.25 685.35 L 210.72 695.07 L 212.19 690.37 L 213.67 694.70 L 215.14 689.93 L 216.61 673.74 L 218.08 672.50 L 219.56 688.03 L 221.03 687.18 L 222.50 687.67 L 223.97 652.30 L 225.44 664.31 L 226.92 691.90 L 228.39 697.01 L 229.86 697.43 L 231.33 697.77 L 232.81 697.55 L 234.28 697.15 L 235.75 697.77 L 237.22 697.63 L 238.69 697.75 L 240.17 698.56 L 241.64 698.56 L 243.11 698.62 L 244.58 699.09 L 246.06 698.78 L 247.53 698.58 L 249.00 698.72 L 250.47 698.67 L 251.94 699.08 L 253.42 698.85 L 254.89 699.08 L 256.36 698.67 L 257.83 699.14 L 259.31 699.05 L 260.78 699.01 L 262.25 698.73 L 263.72 698.95 L 265.19 698.89 L 266.67 698.91 L 268.14 698.86 L 269.61 698.96 L 271.08 698.71 L 272.56 699.05 L 274.03 698.74 L 275.50 699.20 L 276.97 698.77 L 278.44 699.03 L 279.92 698.60 L 281.39 698.77 L 282.86 698.98 L 284.33 698.92 L 285.81 699.02 L 287.28 698.63 L 288.75 698.82 L 290.22 698.62 L 291.69 699.00 L 293.17 698.68 L 294.64 698.95 L 296.11 698.67 L 297.58 698.89 L 299.06 698.80 L 300.53 699.04 L 302.00 698.78 L 303.47 699.16 L 304.94 698.68 L 306.42 698.65 L 307.89 698.69 L 309.36 698.88 L 310.83 699.08 L 312.31 698.72 L 313.78 698.80 L 315.25 699.02 L 316.72 698.81 L 318.19 699.11 L 319.67 698.87 L 321.14 698.84 L 322.61 698.85 L 324.08 698.78 L 325.56 699.10 L 327.03 698.90 L 328.50 698.87 L 329.97 698.92 L 331.44 698.73 L 332.92 698.78 L 334.39 699.07 L 335.86 698.96 L 337.33 698.87 L 338.81 698.94 L 340.28 698.76 L 341.75 699.09 L 343.22 698.85 L 344.69 698.57 L 346.17 698.63 L 347.64 698.70 L 349.11 699.12 L 350.58 698.66 L 352.06 698.52 L 353.53 699.14 L 355.00 698.90 L 356.47 698.84 L 357.94 698.48 L 359.42 699.01 L 360.89 698.87 L 362.36 698.87 L 363.83 698.86 L 365.31 698.42 L 366.78 698.01 L 368.25 698.52 L 369.72 696.61 L 371.19 657.88 L 372.67 649.70 L 374.14 681.15 L 375.61 686.78 L 377.08 679.38 L 378.56 645.53 L 380.03 626.26 L 381.50 639.97 L 382.97 621.22 L 384.44 677.88 L 385.92 628.76 L 387.39 603.69 L 388.86 598.93 L 390.33 577.64 L 391.81 643.23 L 393.28 667.39 L 394.75 658.58 L 396.22 604.65 L 397.69 627.40 L 399.17 667.91 L 400.64 632.77 L 402.11 631.83 L 403.58 672.70 L 405.06 693.20 L 406.53 693.20 L 408.00 626.95 L 409.47 654.33 L 410.94 630.50 L 412.42 652.11 L 413.89 689.21 L 415.36 674.66 L 416.83 658.20 L 418.31 663.22 L 419.78 657.97 L 421.25 660.10 L 422.72 641.05 L 424.19 619.55 L 425.67 649.40 L 427.14 658.36 L 428.61 597.28 L 430.08 669.20 L 431.56 633.61 L 433.03 638.38 L 434.50 671.43 L 435.97 648.17 L 437.44 630.61 L 438.92 627.40 L 440.39 683.85 L 441.86 662.08 L 443.33 643.64 L 444.81 647.31 L 446.28 641.95 L 447.75 562.61 L 449.22 670.71 L 450.69 668.60 L 452.17 677.27 L 453.64 649.50 L 455.11 600.89 L 456.58 667.67 L 458.06 689.95 L 459.53 695.45 L 461.00 697.55 L 462.47 698.99 L 463.94 697.93 L 465.42 698.53 L 466.89 698.83 L 468.36 699.02 L 469.83 698.51 L 471.31 698.67 L 472.78 699.03 L 474.25 698.54 L 475.72 698.86 L 477.19 698.98 L 478.67 698.85 L 480.14 698.99 L 481.61 698.91 L 483.08 698.99 L 484.56 698.85 L 486.03 698.68 L 487.50 698.88 L 488.97 698.73 L 490.44 698.69 L 491.92 698.97 L 493.39 699.04 L 494.86 699.04 L 496.33 698.94 L 497.81 698.84 L 499.28 698.63 L 500.75 698.91 L 502.22 698.69 L 503.69 698.93 L 505.17 698.82 L 506.64 698.64 L 508.11 699.03 L 509.58 699.15 L 511.06 698.97 L 512.53 698.93 L 514.00 698.92 L 515.47 699.11 L 516.94 698.82 L 518.42 698.93 L 519.89 698.84 L 521.36 698.61 L 522.83 698.83 L 524.31 699.09 L 525.78 698.64 L 527.25 698.90 L 528.72 698.95 L 530.19 698.90 L 531.67 698.76 L 533.14 698.99 L 534.61 698.96 L 536.08 698.89 L 537.56 698.71 L 539.03 698.99 L 540.50 699.04 L 541.97 699.02 L 543.44 698.93 L 544.92 698.88 L 546.39 698.91 L 547.86 698.88 L 549.33 699.10 L 550.81 698.78 L 552.28 698.80 L 553.75 699.06 L 555.22 698.79 L 556.69 698.48 L 558.17 698.89 L 559.64 698.70 L 561.11 698.92 L 562.58 698.72 L 564.06 698.93 L 565.53 699.01 L 567.00 698.91 L 568.47 698.61 L 569.94 698.78 L 571.42 698.78 L 572.89 698.90 L 574.36 698.86 L 575.83 698.87 L 577.31 698.86 L 578.78 698.74 L 580.25 698.78 L 581.72 698.78 L 583.19 699.11 L 584.67 698.60 L 586.14 698.59 L 587.61 698.80 L 589.08 698.62 L 590.56 698.78 L 592.03 698.67 L 593.50 698.88 L 594.97 698.93 L 596.44 699.16 L 597.92 698.94 L 599.39 698.63 L 600.86 699.02 L 602.33 698.72 L 603.81 698.68 L 605.28 698.74 L 606.75 698.48 L 608.22 699.09 L 609.69 698.96 L 611.17 698.96 L 612.64 699.15 L 614.11 699.01 L 615.58 698.79 L 617.06 698.80 L 618.53 698.87 L 620.00 698.53 L 621.47 698.18 L 622.94 698.99 L 624.42 698.90 L 625.89 699.08 L 627.36 698.88 L 628.83 698.92 L 630.31 698.67 L 631.78 698.69 L 633.25 698.77 L 634.72 699.00 L 636.19 698.02 L 637.67 695.54 L 639.14 698.17 L 640.61 698.84 L 642.08 698.14 L 643.56 698.26 L 645.03 698.22 L 646.50 697.88 L 647.97 698.50 L 649.44 698.81 L 650.92 698.73 L 652.39 698.93 L 653.86 698.49 L 655.33 671.91 L 656.81 693.43 L 658.28 650.77 L 659.75 658.40 L 661.22 619.16 L 662.69 625.69 L 664.17 621.86 L 665.64 649.90 L 667.11 641.11 L 668.58 693.70 L 670.06 648.45 L 671.53 680.23 L 673.00 665.78 L 674.47 657.09 L 675.94 674.94 L 677.42 683.31 L 678.89 689.95 L 680.36 682.58 L 681.83 693.50 L 683.31 689.63 L 684.78 691.54 L 686.25 682.99 L 687.72 676.38 L 689.19 673.80 L 690.67 675.75 L 692.14 678.77 L 693.61 685.42 L 695.08 672.49 L 696.56 667.97 L 698.03 678.94 L 699.50 685.07 L 700.97 691.95 L 702.44 661.40 L 703.92 685.48 L 705.39 658.01 L 706.86 654.63 L 708.33 682.70 L 709.81 679.93 L 711.28 678.02 L 712.75 666.39 L 714.22 663.89 L 715.69 663.17 L 717.17 672.75 L 718.64 684.06 L 720.11 680.14 L 721.58 668.73 L 723.06 666.19 L 724.53 686.55 L 726.00 694.72 L 727.47 677.94 L 728.94 660.27 L 730.42 650.44 L 731.89 660.15 L 733.36 690.34 L 734.83 670.18 L 736.31 605.09 L 737.78 568.08 L 739.25 645.80 L 740.72 672.00 L 742.19 672.00 L 743.67 684.15 L 745.14 685.48 L 746.61 690.30 L 748.08 697.65 L 749.56 691.14 L 751.03 683.94 L 752.50 697.70 L 753.97 698.19 L 755.44 699.10 L 756.92 698.91 L 758.39 699.00 L 759.86 698.73 L 761.33 698.92 L 762.81 698.90 L 764.28 698.85 L 765.75 698.89 L 767.22 699.09 L 768.69 699.03 L 770.17 698.73 L 771.64 698.64 L 773.11 698.92 L 774.58 698.39 L 776.06 695.82 L 777.53 672.09 L 779.00 673.20 L 780.47 691.16 L 781.94 696.67 L 783.42 698.17 L 784.89 697.03 L 786.36 697.42 L 787.83 698.30 L 789.31 698.40 L 790.78 698.70 L 792.25 699.00 L 793.72 699.06 L 795.19 698.54 L 796.67 698.45 L 798.14 698.98 L 799.61 698.90 L 801.08 698.53 L 802.56 699.08 L 804.03 698.44 L 805.50 699.02 L 806.97 699.12 L 808.44 698.83 L 809.92 698.72 L 811.39 698.81 L 812.86 698.80 L 814.33 698.89 L 815.81 694.64 L 817.28 694.01 L 818.75 659.29 L 820.22 687.36 L 821.69 692.54 L 823.17 695.47 L 824.64 697.93 L 826.11 697.80 L 827.58 697.41 L 829.06 698.60 L 830.53 698.78 L 832.00 698.28 L 833.47 698.52 L 834.94 698.93 L 836.42 698.58 L 837.89 698.97 L 839.36 698.46 L 840.83 699.07 L 842.31 698.69 L 843.78 691.36 L 845.25 693.59 L 846.72 671.20 L 848.19 691.16 L 849.67 697.72 L 851.14 698.03 L 852.61 698.59 L 854.08 698.29 L 855.56 698.77 L 857.03 698.60 L 858.50 698.89 L 859.97 698.83 L 861.44 698.82 L 862.92 698.67 L 864.39 699.08 L 865.86 699.08 L 867.33 698.89 L 868.81 698.87 L 870.28 699.04 L 871.75 698.80 L 873.22 698.70 L 874.69 698.61 L 876.17 698.98 L 877.64 698.90 L 879.11 698.92 L 880.58 698.91 L 882.06 698.98 L 883.53 698.95 L 885.00 698.69 L 886.47 698.80 L 887.94 698.85 L 889.42 699.04 L 890.89 698.92 L 892.36 698.87 L 893.83 698.97 L 895.31 699.05 L 896.78 698.89 L 898.25 698.62 L 899.72 695.70 L 901.19 660.57 L 902.67 678.54 L 904.14 691.11 L 905.61 696.09 L 907.08 697.07 L 908.56 697.42 L 910.03 697.98 L 911.50 697.98 L 912.97 698.52 L 914.44 698.66 L 915.92 698.61 L 917.39 698.98 L 918.86 698.70 L 920.33 698.48 L 921.81 698.95" stroke="#FB8C00" />
<text x="90" y="711.25" font-size="14" font-weight="700">Giroscópio (magnitude) (u.a.)</text>
<rect class="event" x="443.33" y="717.25" width="213.47" height="192.75" />
<line class="eventline" x1="443.33" y1="717.25" x2="443.33" y2="910.00" />
<line class="eventline" x1="656.81" y1="717.25" x2="656.81" y2="910.00" />
<line class="grid" x1="90" y1="910.00" x2="1150" y2="910.00" />
<text class="small" x="80" y="914.00" text-anchor="end">0.00</text>
<line class="grid" x1="90" y1="871.45" x2="1150" y2="871.45" />
<text class="small" x="80" y="875.45" text-anchor="end">0.05</text>
<line class="grid" x1="90" y1="832.90" x2="1150" y2="832.90" />
<text class="small" x="80" y="836.90" text-anchor="end">0.10</text>
<line class="grid" x1="90" y1="794.35" x2="1150" y2="794.35" />
<text class="small" x="80" y="798.35" text-anchor="end">0.15</text>
<line class="grid" x1="90" y1="755.80" x2="1150" y2="755.80" />
<text class="small" x="80" y="759.80" text-anchor="end">0.20</text>
<line class="grid" x1="90" y1="717.25" x2="1150" y2="717.25" />
<text class="small" x="80" y="721.25" text-anchor="end">0.25</text>
<line class="grid" x1="90.00" y1="717.25" x2="90.00" y2="910.00" />
<line class="grid" x1="266.67" y1="717.25" x2="266.67" y2="910.00" />
<line class="grid" x1="443.33" y1="717.25" x2="443.33" y2="910.00" />
<line class="grid" x1="620.00" y1="717.25" x2="620.00" y2="910.00" />
<line class="grid" x1="796.67" y1="717.25" x2="796.67" y2="910.00" />
<line class="grid" x1="973.33" y1="717.25" x2="973.33" y2="910.00" />
<line class="grid" x1="1150.00" y1="717.25" x2="1150.00" y2="910.00" />
<line class="axis" x1="90" y1="717.25" x2="90" y2="910.00" />
<line class="axis" x1="90" y1="910.00" x2="1150" y2="910.00" />
<path class="series" d="M 178.33 900.67 L 179.81 895.14 L 181.28 892.97 L 182.75 898.19 L 184.22 897.11 L 185.69 886.18 L 187.17 898.89 L 188.64 906.98 L 190.11 908.36 L 191.58 906.49 L 193.06 904.05 L 194.53 908.86 L 196.00 906.95 L 197.47 907.30 L 198.94 905.35 L 200.42 904.02 L 201.89 898.58 L 203.36 906.07 L 204.83 903.96 L 206.31 905.12 L 207.78 900.52 L 209.25 902.33 L 210.72 902.07 L 212.19 902.84 L 213.67 901.32 L 215.14 901.07 L 216.61 901.50 L 218.08 902.24 L 219.56 907.09 L 221.03 903.84 L 222.50 903.64 L 223.97 905.94 L 225.44 908.33 L 226.92 907.95 L 228.39 908.16 L 229.86 908.16 L 231.33 908.35 L 232.81 908.14 L 234.28 908.20 L 235.75 908.21 L 237.22 908.23 L 238.69 908.76 L 240.17 909.90 L 241.64 909.90 L 243.11 909.96 L 244.58 909.95 L 246.06 909.83 L 247.53 909.90 L 249.00 909.92 L 250.47 909.78 L 251.94 909.88 L 253.42 909.91 L 254.89 909.84 L 256.36 909.75 L 257.83 909.90 L 259.31 909.90 L 260.78 909.92 L 262.25 909.93 L 263.72 909.90 L 265.19 909.90 L 266.67 909.88 L 268.14 909.96 L 269.61 909.91 L 271.08 909.90 L 272.56 909.90 L 274.03 909.93 L 275.50 909.92 L 276.97 909.88 L 278.44 909.85 L 279.92 909.89 L 281.39 909.88 L 282.86 909.93 L 284.33 909.96 L 285.81 909.89 L 287.28 909.92 L 288.75 909.79 L 290.22 909.94 L 291.69 909.77 L 293.17 909.87 L 294.64 909.90 L 296.11 909.81 L 297.58 909.73 L 299.06 909.86 L 300.53 909.90 L 302.00 909.87 L 303.47 909.92 L 304.94 909.80 L 306.42 909.84 L 307.89 909.87 L 309.36 909.89 L 310.83 909.90 L 312.31 909.85 L 313.78 909.80 L 315.25 909.84 L 316.72 909.74 L 318.19 909.79 L 319.67 909.87 L 321.14 909.84 L 322.61 909.94 L 324.08 909.84 L 325.56 909.95 L 327.03 909.68 L 328.50 909.84 L 329.97 909.87 L 331.44 909.87 L 332.92 909.77 L 334.39 909.88 L 335.86 909.86 L 337.33 909.74 L 338.81 909.82 L 340.28 909.86 L 341.75 909.86 L 343.22 909.86 L 344.69 909.85 L 346.17 909.82 L 347.64 909.96 L 349.11 909.83 L 350.58 909.86 L 352.06 909.91 L 353.53 909.82 L 355.00 909.78 L 356.47 909.82 L 357.94 909.93 L 359.42 909.86 L 360.89 909.83 L 362.36 909.88 L 363.83 909.92 L 365.31 909.48 L 366.78 909.85 L 368.25 909.87 L 369.72 909.89 L 371.19 907.90 L 372.67 904.19 L 374.14 893.37 L 375.61 878.58 L 377.08 866.09 L 378.56 876.21 L 380.03 858.37 L 381.50 849.06 L 382.97 865.97 L 384.44 866.70 L 385.92 856.91 L 387.39 846.81 L 388.86 824.22 L 390.33 861.66 L 391.81 887.08 L 393.28 894.76 L 394.75 900.22 L 396.22 889.75 L 397.69 882.40 L 399.17 888.71 L 400.64 891.47 L 402.11 893.16 L 403.58 888.81 L 405.06 888.65 L 406.53 888.65 L 408.00 897.51 L 409.47 891.43 L 410.94 878.11 L 412.42 865.73 L 413.89 860.96 L 415.36 844.80 L 416.83 851.26 L 418.31 840.11 L 419.78 856.11 L 421.25 867.42 L 422.72 863.54 L 424.19 869.47 L 425.67 852.31 L 427.14 845.49 L 428.61 852.91 L 430.08 832.66 L 431.56 841.71 L 433.03 851.44 L 434.50 852.35 L 435.97 853.67 L 437.44 839.37 L 438.92 840.02 L 440.39 872.72 L 441.86 885.04 L 443.33 902.98 L 444.81 901.48 L 446.28 897.37 L 447.75 892.37 L 449.22 893.70 L 450.69 900.58 L 452.17 891.16 L 453.64 904.37 L 455.11 908.00 L 456.58 909.10 L 458.06 909.62 L 459.53 909.87 L 461.00 909.92 L 462.47 909.78 L 463.94 909.80 L 465.42 909.69 L 466.89 909.85 L 468.36 909.89 L 469.83 909.91 L 471.31 909.92 L 472.78 909.91 L 474.25 909.87 L 475.72 909.94 L 477.19 909.91 L 478.67 909.86 L 480.14 909.86 L 481.61 909.83 L 483.08 909.82 L 484.56 909.76 L 486.03 909.87 L 487.50 909.90 L 488.97 909.79 L 490.44 909.85 L 491.92 909.89 L 493.39 909.91 L 494.86 909.93 L 496.33 909.91 L 497.81 909.88 L 499.28 909.92 L 500.75 909.89 L 502.22 909.91 L 503.69 909.87 L 505.17 909.91 L 506.64 909.87 L 508.11 909.90 L 509.58 909.90 L 511.06 909.91 L 512.53 909.87 L 514.00 909.95 L 515.47 909.86 L 516.94 909.93 L 518.42 909.96 L 519.89 909.95 L 521.36 909.80 L 522.83 909.76 L 524.31 909.84 L 525.78 909.91 L 527.25 909.93 L 528.72 909.93 L 530.19 909.86 L 531.67 909.83 L 533.14 909.90 L 534.61 909.85 L 536.08 909.88 L 537.56 909.75 L 539.03 909.82 L 540.50 909.86 L 541.97 909.90 L 543.44 909.86 L 544.92 909.85 L 546.39 909.88 L 547.86 909.87 L 549.33 909.94 L 550.81 909.91 L 552.28 909.88 L 553.75 909.85 L 555.22 909.84 L 556.69 909.77 L 558.17 909.84 L 559.64 909.81 L 561.11 909.83 L 562.58 909.87 L 564.06 909.88 L 565.53 909.80 L 567.00 909.79 L 568.47 909.77 L 569.94 909.88 L 571.42 909.88 L 572.89 909.84 L 574.36 909.89 L 575.83 909.80 L 577.31 909.87 L 578.78 909.89 L 580.25 909.87 L 581.72 909.92 L 583.19 909.86 L 584.67 909.77 L 586.14 909.88 L 587.61 909.85 L 589.08 909.91 L 590.56 909.85 L 592.03 909.92 L 593.50 909.93 L 594.97 909.90 L 596.44 909.88 L 597.92 909.91 L 599.39 909.89 L 600.86 909.97 L 602.33 909.84 L 603.81 909.83 L 605.28 909.89 L 606.75 909.87 L 608.22 909.80 L 609.69 909.95 L 611.17 909.93 L 612.64 909.85 L 614.11 909.92 L 615.58 909.84 L 617.06 909.71 L 618.53 909.55 L 620.00 909.71 L 621.47 909.95 L 622.94 909.91 L 624.42 909.91 L 625.89 909.90 L 627.36 909.79 L 628.83 909.86 L 630.31 909.87 L 631.78 909.90 L 633.25 909.87 L 634.72 909.96 L 636.19 909.67 L 637.67 909.49 L 639.14 909.56 L 640.61 909.66 L 642.08 909.23 L 643.56 909.54 L 645.03 909.79 L 646.50 909.84 L 647.97 909.87 L 649.44 909.83 L 650.92 909.79 L 652.39 909.73 L 653.86 909.74 L 655.33 901.26 L 656.81 891.60 L 658.28 881.53 L 659.75 873.02 L 661.22 858.02 L 662.69 876.46 L 664.17 888.29 L 665.64 891.49 L 667.11 887.52 L 668.58 892.90 L 670.06 886.35 L 671.53 893.61 L 673.00 901.93 L 674.47 900.82 L 675.94 892.63 L 677.42 894.74 L 678.89 906.98 L 680.36 902.59 L 681.83 901.44 L 683.31 902.64 L 684.78 899.11 L 686.25 899.50 L 687.72 903.04 L 689.19 896.34 L 690.67 905.79 L 692.14 903.18 L 693.61 902.22 L 695.08 905.71 L 696.56 904.87 L 698.03 906.78 L 699.50 904.50 L 700.97 902.67 L 702.44 901.55 L 703.92 896.20 L 705.39 905.42 L 706.86 901.68 L 708.33 896.53 L 709.81 899.42 L 711.28 890.29 L 712.75 877.75 L 714.22 905.67 L 715.69 890.98 L 717.17 900.51 L 718.64 907.33 L 720.11 894.07 L 721.58 884.36 L 723.06 893.97 L 724.53 893.76 L 726.00 904.99 L 727.47 897.31 L 728.94 890.52 L 730.42 896.15 L 731.89 897.71 L 733.36 898.40 L 734.83 906.77 L 736.31 901.28 L 737.78 903.82 L 739.25 905.66 L 740.72 908.28 L 742.19 908.28 L 743.67 903.01 L 745.14 907.24 L 746.61 909.87 L 748.08 909.77 L 749.56 908.15 L 751.03 909.90 L 752.50 909.94 L 753.97 909.96 L 755.44 909.82 L 756.92 909.92 L 758.39 909.89 L 759.86 909.81 L 761.33 909.77 L 762.81 909.74 L 764.28 909.81 L 765.75 909.91 L 767.22 909.91 L 768.69 909.88 L 770.17 909.86 L 771.64 909.78 L 773.11 909.94 L 774.58 909.61 L 776.06 909.40 L 777.53 905.48 L 779.00 909.19 L 780.47 909.47 L 781.94 909.72 L 783.42 909.74 L 784.89 909.70 L 786.36 909.82 L 787.83 909.76 L 789.31 909.85 L 790.78 909.87 L 792.25 909.97 L 793.72 909.97 L 795.19 909.84 L 796.67 909.97 L 798.14 909.91 L 799.61 909.81 L 801.08 909.88 L 802.56 909.78 L 804.03 909.83 L 805.50 909.80 L 806.97 909.82 L 808.44 909.80 L 809.92 909.84 L 811.39 909.85 L 812.86 909.77 L 814.33 909.85 L 815.81 909.16 L 817.28 908.13 L 818.75 907.70 L 820.22 909.52 L 821.69 909.54 L 823.17 909.77 L 824.64 909.86 L 826.11 909.82 L 827.58 909.87 L 829.06 909.78 L 830.53 909.72 L 832.00 909.89 L 833.47 909.91 L 834.94 909.84 L 836.42 909.90 L 837.89 909.81 L 839.36 909.79 L 840.83 909.79 L 842.31 909.85 L 843.78 908.91 L 845.25 908.61 L 846.72 909.41 L 848.19 909.37 L 849.67 909.90 L 851.14 909.80 L 852.61 909.79 L 854.08 909.86 L 855.56 909.85 L 857.03 909.81 L 858.50 909.82 L 859.97 909.95 L 861.44 909.73 L 862.92 909.70 L 864.39 909.92 L 865.86 909.82 L 867.33 909.92 L 868.81 909.86 L 870.28 909.89 L 871.75 909.81 L 873.22 909.93 L 874.69 909.87 L 876.17 909.89 L 877.64 909.94 L 879.11 909.77 L 880.58 909.87 L 882.06 909.89 L 883.53 909.94 L 885.00 909.86 L 886.47 909.85 L 887.94 909.94 L 889.42 909.91 L 890.89 909.92 L 892.36 909.91 L 893.83 909.91 L 895.31 909.87 L 896.78 909.92 L 898.25 909.69 L 899.72 908.93 L 901.19 907.00 L 902.67 908.00 L 904.14 909.23 L 905.61 909.81 L 907.08 909.80 L 908.56 909.87 L 910.03 909.81 L 911.50 909.81 L 912.97 909.93 L 914.44 909.93 L 915.92 909.77 L 917.39 909.86 L 918.86 909.89 L 920.33 909.89 L 921.81 909.93" stroke="#E53935" />
<text x="620.00" y="952" font-size="15" text-anchor="middle">minutos (relativo ao início do evento)</text>
<text class="small" x="90.00" y="936" text-anchor="middle">-4.00</text>
<text class="small" x="266.67" y="936" text-anchor="middle">-2.00</text>
<text class="small" x="443.33" y="936" text-anchor="middle">0.00</text>
<text class="small" x="620.00" y="936" text-anchor="middle">2.00</text>
<text class="small" x="796.67" y="936" text-anchor="middle">4.00</text>
<text class="small" x="973.33" y="936" text-anchor="middle">6.00</text>
<text class="small" x="1150.00" y="936" text-anchor="middle">8.00</text>
</svg>