<?xml version="1.0" encoding="UTF-8"?>
<svg xmlns="http://www.w3.org/2000/svg" width="1180" height="980" viewBox="0 0 1180 980">
<style>
text { font-family: -apple-system, BlinkMacSystemFont, 'Segoe UI', Roboto, Helvetica, Arial, sans-serif; fill: #111; }
.small { font-size: 12px; fill: #222; }
.title { font-size: 18px; font-weight: 700; }
.axis { stroke: #111; stroke-width: 1.4; }
.grid { stroke: #E6E6E6; stroke-width: 1; }
.event { fill: #FFEB3B; fill-opacity: 0.18; }
.eventline { stroke: #F9A825; stroke-width: 1.2; stroke-dasharray: 4 3; }
.series { fill: none; stroke-width: 1.8; }
</style>
<text class="title" x="90" y="34">ciclo 18 — basculamento — 2025-12-13T04:37:00-03:00 → 2025-12-13T04:37:44-03:00 (span 44s, dur 45s)</text>
<text class="small" x="90" y="54">GPS: -11.692997,-47.165249  hotspot: -11.693,-47.165</text>
<text class="small" x="90" y="70">Janela: -3.00 → 3.73 min (relativo ao início do evento)</text>
<text x="90" y="79.00" font-size="14" font-weight="700">Velocidade (km/h)</text>
<rect class="event" x="443.33" y="85.00" width="64.78" height="192.75" />
<line class="eventline" x1="443.33" y1="85.00" x2="443.33" y2="277.75" />
<line class="eventline" x1="508.11" y1="85.00" x2="508.11" y2="277.75" />
<line class="grid" x1="90" y1="277.75" x2="1150" y2="277.75" />
<text class="small" x="80" y="281.75" text-anchor="end">0.00</text>
<line class="grid" x1="90" y1="239.20" x2="1150" y2="239.20" />
<text class="small" x="80" y="243.20" text-anchor="end">10.0</text>
<line class="grid" x1="90" y1="200.65" x2="1150" y2="200.65" />
<text class="small" x="80" y="204.65" text-anchor="end">20.0</text>
<line class="grid" x1="90" y1="162.10" x2="1150" y2="162.10" />
<text class="small" x="80" y="166.10" text-anchor="end">30.0</text>
<line class="grid" x1="90" y1="123.55" x2="1150" y2="123.55" />
<text class="small" x="80" y="127.55" text-anchor="end">40.0</text>
<line class="grid" x1="90" y1="85.00" x2="1150" y2="85.00" />
<text class="small" x="80" y="89.00" text-anchor="end">50.0</text>
<line class="grid" x1="90.00" y1="85.00" x2="90.00" y2="277.75" />
<line class="grid" x1="266.67" y1="85.00" x2="266.67" y2="277.75" />
<line class="grid" x1="443.33" y1="85.00" x2="443.33" y2="277.75" />
<line class="grid" x1="620.00" y1="85.00" x2="620.00" y2="277.75" />
<line class="grid" x1="796.67" y1="85.00" x2="796.67" y2="277.75" />
<line class="grid" x1="973.33" y1="85.00" x2="973.33" y2="277.75" />
<line class="grid" x1="1150.00" y1="85.00" x2="1150.00" y2="277.75" />
<line class="axis" x1="90" y1="85.00" x2="90" y2="277.75" />
<line class="axis" x1="90" y1="277.75" x2="1150" y2="277.75" />
<path class="series" d="M 178.33 247.63 L 179.81 248.47 L 181.28 248.61 L 182.75 247.77 L 184.22 249.30 L 185.69 247.91 L 187.17 246.80 L 188.64 246.52 L 190.11 247.63 L 191.58 246.66 L 193.06 247.22 L 194.53 247.22 L 196.00 247.36 L 197.47 247.22 L 198.94 247.08 L 200.42 246.52 L 201.89 246.52 L 203.36 247.50 L 204.83 247.50 L 206.31 246.80 L 207.78 245.41 L 209.25 245.41 L 210.72 245.69 L 212.19 246.52 L 213.67 246.94 L 215.14 246.80 L 216.61 247.50 L 218.08 246.94 L 219.56 245.97 L 221.03 246.52 L 222.50 246.25 L 223.97 245.97 L 225.44 246.39 L 226.92 246.94 L 228.39 247.63 L 229.86 247.91 L 231.33 248.33 L 232.81 247.36 L 234.28 246.39 L 235.75 246.66 L 237.22 247.50 L 238.69 247.50 L 240.17 247.22 L 241.64 246.52 L 243.11 245.69 L 244.58 246.39 L 246.06 245.14 L 247.53 246.39 L 249.00 246.94 L 250.47 246.80 L 251.94 248.33 L 253.42 248.61 L 254.89 248.19 L 256.36 247.77 L 257.83 245.83 L 259.31 246.25 L 260.78 246.94 L 262.25 247.22 L 263.72 247.50 L 265.19 247.08 L 266.67 246.39 L 268.14 246.25 L 269.61 246.52 L 271.08 246.66 L 272.56 245.14 L 274.03 245.55 L 275.50 246.66 L 276.97 246.80 L 278.44 246.39 L 279.92 247.36 L 281.39 246.39 L 282.86 246.11 L 284.33 246.11 L 285.81 245.97 L 287.28 246.94 L 288.75 246.66 L 290.22 245.14 L 291.69 243.89 L 293.17 245.55 L 294.64 244.58 L 296.11 242.92 L 297.58 247.91 L 299.06 246.25 L 300.53 247.36 L 302.00 241.67 L 303.47 242.50 L 304.94 239.45 L 306.42 231.12 L 307.89 225.15 L 309.36 223.21 L 310.83 213.91 L 312.31 207.39 L 313.78 201.70 L 315.25 200.87 L 316.72 199.62 L 318.19 195.31 L 319.67 192.96 L 321.14 190.46 L 322.61 189.76 L 324.08 188.51 L 325.56 191.43 L 327.03 185.46 L 328.50 185.18 L 329.97 192.40 L 331.44 189.35 L 332.92 196.98 L 334.39 201.14 L 335.86 205.31 L 337.33 216.41 L 338.81 218.49 L 340.28 220.85 L 341.75 223.49 L 343.22 225.15 L 344.69 229.18 L 346.17 234.03 L 347.64 232.79 L 349.11 231.54 L 350.58 229.59 L 352.06 225.57 L 353.53 222.93 L 355.00 219.05 L 356.47 221.82 L 357.94 223.90 L 359.42 224.74 L 360.89 225.01 L 362.36 222.10 L 363.83 221.27 L 365.31 225.01 L 366.78 225.99 L 368.25 232.65 L 369.72 229.59 L 371.19 232.79 L 372.67 235.56 L 374.14 234.31 L 375.61 235.70 L 377.08 240.56 L 378.56 245.55 L 380.03 246.25 L 381.50 244.86 L 382.97 245.97 L 384.44 244.58 L 385.92 243.19 L 387.39 247.63 L 388.86 256.24 L 390.33 264.01 L 391.81 270.67 L 393.28 277.75 L 394.75 277.75 L 396.22 277.75 L 397.69 277.75 L 399.17 277.75 L 400.64 277.75 L 402.11 277.75 L 403.58 277.75 L 405.06 268.73 L 406.53 267.06 L 408.00 265.81 L 409.47 267.62 L 410.94 267.76 L 412.42 267.90 L 413.89 267.34 L 415.36 268.45 L 416.83 267.90 L 418.31 269.28 L 419.78 269.42 L 421.25 267.90 L 422.72 277.75 L 424.19 277.75 L 425.67 277.75 L 427.14 269.28 L 428.61 264.84 L 430.08 268.87 L 431.56 267.06 L 433.03 267.34 L 434.50 273.59 L 435.97 270.67 L 437.44 277.75 L 438.92 277.75 L 440.39 277.75 L 441.86 272.34 L 443.33 277.75 L 444.81 277.75 L 446.28 277.75 L 447.75 277.75 L 449.22 277.75 L 450.69 277.75 L 452.17 277.75 L 453.64 277.75 L 455.11 277.75 L 456.58 277.75 L 458.06 277.75 L 459.53 277.75 L 461.00 277.75 L 462.47 277.75 L 463.94 277.75 L 465.42 277.75 L 466.89 277.75 L 468.36 277.75 L 469.83 277.75 L 471.31 277.75 L 472.78 277.75 L 474.25 277.75 L 475.72 277.75 L 477.19 277.75 L 478.67 277.75 L 480.14 277.75 L 481.61 277.75 L 483.08 277.75 L 484.56 277.75 L 486.03 277.75 L 487.50 277.75 L 488.97 277.75 L 490.44 277.75 L 491.92 277.75 L 493.39 277.75 L 494.86 277.75 L 496.33 277.75 L 497.81 277.75 L 499.28 277.75 L 500.75 277.75 L 502.22 277.75 L 503.69 277.75 L 505.17 277.75 L 506.64 277.75 L 508.11 277.75 L 509.58 260.40 L 511.06 257.77 L 512.53 261.65 L 514.00 267.48 L 515.47 273.73 L 516.94 277.75 L 518.42 277.75 L 519.89 277.75 L 521.36 277.75 L 522.83 277.75 L 524.31 269.01 L 525.78 277.75 L 527.25 277.75 L 528.72 277.75 L 530.19 277.75 L 531.67 277.75 L 533.14 277.75 L 534.61 277.75 L 536.08 277.75 L 537.56 277.75 L 539.03 277.75 L 540.50 277.75 L 541.97 277.75 L 543.44 277.75 L 544.92 277.75 L 546.39 277.75 L 547.86 277.75 L 549.33 277.75 L 550.81 277.75 L 552.28 265.68 L 553.75 258.88 L 555.22 254.71 L 556.69 248.61 L 558.17 231.54 L 559.64 230.98 L 561.11 220.99 L 562.58 219.05 L 564.06 216.55 L 565.53 211.14 L 567.00 214.61 L 568.47 216.27 L 569.94 217.52 L 571.42 221.13 L 572.89 228.62 L 574.36 229.32 L 575.83 225.15 L 577.31 225.71 L 578.78 222.24 L 580.25 223.63 L 581.72 223.63 L 583.19 222.24 L 584.67 218.49 L 586.14 221.82 L 587.61 226.82 L 589.08 227.23 L 590.56 227.23 L 592.03 229.73 L 593.50 227.79 L 594.97 225.29 L 596.44 224.46 L 597.92 220.57 L 599.39 219.46 L 600.86 218.07 L 602.33 214.47 L 603.81 212.38 L 605.28 209.61 L 606.75 203.23 L 608.22 196.56 L 609.69 194.20 L 611.17 193.23 L 612.64 191.15 L 614.11 194.34 L 615.58 200.31 L 617.06 194.90 L 618.53 201.14 L 620.00 201.28 L 621.47 206.97 L 622.94 207.25 L 624.42 207.11 L 625.89 203.92 L 627.36 212.25 L 628.83 204.89 L 630.31 211.00 L 631.78 212.11 L 633.25 214.88 L 634.72 217.24 L 636.19 217.38 L 637.67 218.63 L 639.14 216.13 L 640.61 215.99 L 642.08 214.47 L 643.56 212.38 L 645.03 209.47 L 646.50 204.34 L 647.97 204.34 L 649.44 204.75 L 650.92 207.39 L 652.39 209.61 L 653.86 214.05 L 655.33 217.52 L 656.81 217.24 L 658.28 214.05 L 659.75 210.86 L 661.22 206.97 L 662.69 206.69 L 664.17 208.08 L 665.64 210.16 L 667.11 210.58 L 668.58 211.69 L 670.06 207.80 L 671.53 212.80 L 673.00 214.33 L 674.47 211.69 L 675.94 214.19 L 677.42 210.86 L 678.89 210.58 L 680.36 212.80 L 681.83 214.61 L 683.31 217.24 L 684.78 219.46 L 686.25 217.10 L 687.72 210.58 L 689.19 213.63 L 690.67 215.58 L 692.14 208.78 L 693.61 211.14 L 695.08 211.97 L 696.56 209.61 L 698.03 204.75 L 699.50 207.80 L 700.97 206.42 L 702.44 204.06 L 703.92 200.45 L 705.39 197.54 L 706.86 197.67 L 708.33 201.00 L 709.81 204.34 L 711.28 206.28 L 712.75 210.44 L 714.22 206.56 L 715.69 201.84 L 717.17 204.20 L 718.64 207.25 L 720.11 204.47 L 721.58 200.03 L 723.06 202.39 L 724.53 203.78 L 726.00 197.40 L 727.47 190.73 L 728.94 184.91 L 730.42 177.97 L 731.89 178.11 L 733.36 175.47 L 734.83 174.91 L 736.31 174.36 L 737.78 170.61 L 739.25 169.22 L 740.72 168.95 L 742.19 167.14 L 743.67 169.50 L 745.14 168.95 L 746.61 171.72 L 748.08 173.25 L 749.56 174.22 L 751.03 175.89 L 752.50 177.00 L 753.97 177.69 L 755.44 177.13 L 756.92 176.72 L 758.39 175.19 L 759.86 174.22 L 761.33 172.55 L 762.81 171.31 L 764.28 170.20 L 765.75 168.11 L 767.22 166.86 L 768.69 165.89 L 770.17 168.53 L 771.64 170.47 L 773.11 173.94" stroke="#1976D2" />
<text x="90" y="289.75" font-size="14" font-weight="700">Inclinação (graus)</text>
<rect class="event" x="443.33" y="295.75" width="64.78" height="192.75" />
<line class="eventline" x1="443.33" y1="295.75" x2="443.33" y2="488.50" />
<line class="eventline" x1="508.11" y1="295.75" x2="508.11" y2="488.50" />
<line class="grid" x1="90" y1="488.50" x2="1150" y2="488.50" />
<text class="small" x="80" y="492.50" text-anchor="end">-20.0</text>
<line class="grid" x1="90" y1="449.95" x2="1150" y2="449.95" />
<text class="small" x="80" y="453.95" text-anchor="end">-10.0</text>
<line class="grid" x1="90" y1="411.40" x2="1150" y2="411.40" />
<text class="small" x="80" y="415.40" text-anchor="end">0.00</text>
<line class="grid" x1="90" y1="372.85" x2="1150" y2="372.85" />
<text class="small" x="80" y="376.85" text-anchor="end">10.0</text>
<line class="grid" x1="90" y1="334.30" x2="1150" y2="334.30" />
<text class="small" x="80" y="338.30" text-anchor="end">20.0</text>
<line class="grid" x1="90" y1="295.75" x2="1150" y2="295.75" />
<text class="small" x="80" y="299.75" text-anchor="end">30.0</text>
<line class="grid" x1="90.00" y1="295.75" x2="90.00" y2="488.50" />
<line class="grid" x1="266.67" y1="295.75" x2="266.67" y2="488.50" />
<line class="grid" x1="443.33" y1="295.75" x2="443.33" y2="488.50" />
<line class="grid" x1="620.00" y1="295.75" x2="620.00" y2="488.50" />
<line class="grid" x1="796.67" y1="295.75" x2="796.67" y2="488.50" />
<line class="grid" x1="973.33" y1="295.75" x2="973.33" y2="488.50" />
<line class="grid" x1="1150.00" y1="295.75" x2="1150.00" y2="488.50" />
<line class="axis" x1="90" y1="295.75" x2="90" y2="488.50" />
<line class="axis" x1="90" y1="488.50" x2="1150" y2="488.50" />
<path class="series" d="M 178.33 389.12 L 179.81 394.70 L 181.28 398.96 L 182.75 393.99 L 184.22 396.15 L 185.69 394.18 L 187.17 393.81 L 188.64 394.12 L 190.11 394.49 L 191.58 394.34 L 193.06 394.73 L 194.53 395.78 L 196.00 393.97 L 197.47 393.84 L 198.94 393.96 L 200.42 394.41 L 201.89 394.88 L 203.36 394.15 L 204.83 393.50 L 206.31 391.20 L 207.78 389.04 L 209.25 388.60 L 210.72 388.60 L 212.19 393.07 L 213.67 395.02 L 215.14 396.14 L 216.61 392.94 L 218.08 393.51 L 219.56 394.74 L 221.03 394.60 L 222.50 392.75 L 223.97 393.40 L 225.44 392.17 L 226.92 391.45 L 228.39 389.56 L 229.86 390.65 L 231.33 390.47 L 232.81 388.03 L 234.28 386.82 L 235.75 385.16 L 237.22 389.69 L 238.69 389.95 L 240.17 388.44 L 241.64 389.34 L 243.11 392.51 L 244.58 391.75 L 246.06 394.47 L 247.53 395.58 L 249.00 394.14 L 250.47 399.34 L 251.94 398.93 L 253.42 397.91 L 254.89 397.45 L 256.36 396.20 L 257.83 396.71 L 259.31 396.42 L 260.78 393.70 L 262.25 390.76 L 263.72 394.85 L 265.19 392.87 L 266.67 393.13 L 268.14 392.50 L 269.61 391.38 L 271.08 389.81 L 272.56 388.14 L 274.03 389.39 L 275.50 390.10 L 276.97 393.09 L 278.44 393.91 L 279.92 393.83 L 281.39 396.36 L 282.86 396.84 L 284.33 393.45 L 285.81 397.37 L 287.28 396.43 L 288.75 396.42 L 290.22 395.67 L 291.69 398.88 L 293.17 390.88 L 294.64 386.92 L 296.11 390.66 L 297.58 390.42 L 299.06 390.10 L 300.53 382.06 L 302.00 387.12 L 303.47 380.62 L 304.94 386.65 L 306.42 382.44 L 307.89 375.06 L 309.36 378.01 L 310.83 379.90 L 312.31 374.42 L 313.78 374.63 L 315.25 368.70 L 316.72 374.91 L 318.19 376.77 L 319.67 377.22 L 321.14 375.88 L 322.61 376.86 L 324.08 376.62 L 325.56 376.68 L 327.03 372.88 L 328.50 374.82 L 329.97 374.60 L 331.44 376.75 L 332.92 379.87 L 334.39 376.14 L 335.86 376.89 L 337.33 376.54 L 338.81 382.55 L 340.28 385.04 L 341.75 383.84 L 343.22 382.43 L 344.69 379.67 L 346.17 383.94 L 347.64 381.00 L 349.11 375.37 L 350.58 380.47 L 352.06 374.84 L 353.53 372.69 L 355.00 368.91 L 356.47 362.98 L 357.94 363.06 L 359.42 360.45 L 360.89 361.16 L 362.36 362.62 L 363.83 361.16 L 365.31 361.58 L 366.78 366.57 L 368.25 367.33 L 369.72 372.93 L 371.19 370.22 L 372.67 374.34 L 374.14 367.49 L 375.61 370.76 L 377.08 363.15 L 378.56 366.83 L 380.03 371.05 L 381.50 368.78 L 382.97 367.83 L 384.44 370.15 L 385.92 358.70 L 387.39 354.03 L 388.86 355.56 L 390.33 357.66 L 391.81 350.03 L 393.28 369.50 L 394.75 366.14 L 396.22 366.18 L 397.69 366.41 L 399.17 365.23 L 400.64 359.50 L 402.11 363.93 L 403.58 367.71 L 405.06 366.59 L 406.53 365.16 L 408.00 365.23 L 409.47 367.74 L 410.94 366.76 L 412.42 366.49 L 413.89 365.22 L 415.36 366.39 L 416.83 366.11 L 418.31 365.50 L 419.78 365.78 L 421.25 365.30 L 422.72 365.60 L 424.19 364.04 L 425.67 363.11 L 427.14 365.71 L 428.61 363.28 L 430.08 366.18 L 431.56 367.88 L 433.03 367.82 L 434.50 368.54 L 435.97 368.62 L 437.44 369.21 L 438.92 369.77 L 440.39 370.22 L 441.86 374.00 L 443.33 372.99 L 444.81 368.88 L 446.28 367.53 L 447.75 367.85 L 449.22 368.34 L 450.69 368.36 L 452.17 368.28 L 453.64 368.31 L 455.11 368.45 L 456.58 368.46 L 458.06 368.52 L 459.53 368.70 L 461.00 368.75 L 462.47 368.29 L 463.94 368.90 L 465.42 368.64 L 466.89 368.54 L 468.36 368.67 L 469.83 368.77 L 471.31 368.43 L 472.78 369.32 L 474.25 369.78 L 475.72 369.37 L 477.19 369.72 L 478.67 369.56 L 480.14 369.64 L 481.61 369.74 L 483.08 369.74 L 484.56 368.90 L 486.03 369.36 L 487.50 368.51 L 488.97 369.91 L 490.44 368.89 L 491.92 368.97 L 493.39 369.91 L 494.86 370.56 L 496.33 370.79 L 497.81 370.76 L 499.28 371.25 L 500.75 372.08 L 502.22 370.98 L 503.69 372.02 L 505.17 372.02 L 506.64 376.03 L 508.11 383.15 L 509.58 387.41 L 511.06 375.78 L 512.53 364.34 L 514.00 361.49 L 515.47 357.84 L 516.94 364.16 L 518.42 367.75 L 519.89 366.35 L 521.36 382.66 L 522.83 372.78 L 524.31 363.51 L 525.78 355.56 L 527.25 366.55 L 528.72 368.40 L 530.19 366.63 L 531.67 366.60 L 533.14 366.67 L 534.61 365.71 L 536.08 366.06 L 537.56 365.95 L 539.03 365.69 L 540.50 365.71 L 541.97 365.47 L 543.44 365.47 L 544.92 365.47 L 546.39 365.10 L 547.86 365.48 L 549.33 365.31 L 550.81 376.98 L 552.28 380.83 L 553.75 372.35 L 555.22 368.37 L 556.69 377.15 L 558.17 380.77 L 559.64 365.40 L 561.11 363.43 L 562.58 361.84 L 564.06 362.51 L 565.53 358.27 L 567.00 361.49 L 568.47 355.59 L 569.94 366.52 L 571.42 362.69 L 572.89 358.77 L 574.36 389.29 L 575.83 378.12 L 577.31 371.12 L 578.78 375.23 L 580.25 370.19 L 581.72 369.03 L 583.19 367.92 L 584.67 361.27 L 586.14 359.08 L 587.61 365.08 L 589.08 365.79 L 590.56 351.72 L 592.03 362.65 L 593.50 356.77 L 594.97 351.00 L 596.44 347.44 L 597.92 348.67 L 599.39 347.99 L 600.86 350.03 L 602.33 351.56 L 603.81 355.06 L 605.28 356.22 L 606.75 356.35 L 608.22 358.85 L 609.69 354.20 L 611.17 363.45 L 612.64 357.43 L 614.11 361.95 L 615.58 361.73 L 617.06 358.87 L 618.53 357.71 L 620.00 362.42 L 621.47 357.99 L 622.94 357.59 L 624.42 367.82 L 625.89 365.87 L 627.36 363.13 L 628.83 364.90 L 630.31 362.14 L 631.78 368.55 L 633.25 366.38 L 634.72 361.50 L 636.19 358.45 L 637.67 357.36 L 639.14 358.36 L 640.61 359.74 L 642.08 356.90 L 643.56 357.28 L 645.03 356.45 L 646.50 345.55 L 647.97 344.26 L 649.44 340.83 L 650.92 340.49 L 652.39 339.85 L 653.86 339.86 L 655.33 341.67 L 656.81 356.20 L 658.28 352.28 L 659.75 350.67 L 661.22 342.71 L 662.69 338.99 L 664.17 335.05 L 665.64 338.71 L 667.11 339.98 L 668.58 354.37 L 670.06 345.00 L 671.53 343.85 L 673.00 357.10 L 674.47 345.11 L 675.94 348.03 L 677.42 343.75 L 678.89 341.24 L 680.36 339.09 L 681.83 339.38 L 683.31 339.85 L 684.78 348.55 L 686.25 352.77 L 687.72 345.73 L 689.19 345.39 L 690.67 349.38 L 692.14 340.32 L 693.61 340.32 L 695.08 346.96 L 696.56 349.52 L 698.03 339.92 L 699.50 345.67 L 700.97 351.01 L 702.44 350.77 L 703.92 351.54 L 705.39 340.69 L 706.86 337.98 L 708.33 337.53 L 709.81 336.82 L 711.28 336.44 L 712.75 347.35 L 714.22 350.72 L 715.69 338.97 L 717.17 339.49 L 718.64 346.55 L 720.11 350.85 L 721.58 342.74 L 723.06 340.04 L 724.53 354.91 L 726.00 358.81 L 727.47 355.55 L 728.94 354.55 L 730.42 348.30 L 731.89 349.14 L 733.36 347.45 L 734.83 345.52 L 736.31 343.52 L 737.78 345.34 L 739.25 343.46 L 740.72 344.37 L 742.19 343.93 L 743.67 345.21 L 745.14 343.68 L 746.61 343.71 L 748.08 345.52 L 749.56 344.79 L 751.03 344.80 L 752.50 344.46 L 753.97 344.66 L 755.44 344.10 L 756.92 344.05 L 758.39 342.62 L 759.86 344.36 L 761.33 343.67 L 762.81 344.57 L 764.28 342.60 L 765.75 341.62 L 767.22 343.23 L 768.69 339.20 L 770.17 337.32 L 771.64 338.16 L 773.11 337.33" stroke="#2E7D32" />
<path class="series" d="M 178.33 414.03 L 179.81 411.17 L 181.28 404.62 L 182.75 404.76 L 184.22 406.98 L 185.69 401.78 L 187.17 398.65 L 188.64 399.72 L 190.11 401.69 L 191.58 402.21 L 193.06 404.65 L 194.53 404.23 L 196.00 405.73 L 197.47 406.69 L 198.94 408.22 L 200.42 407.96 L 201.89 409.20 L 203.36 412.93 L 204.83 413.91 L 206.31 411.37 L 207.78 412.08 L 209.25 405.55 L 210.72 405.55 L 212.19 401.89 L 213.67 402.54 L 215.14 405.48 L 216.61 404.85 L 218.08 407.00 L 219.56 411.13 L 221.03 408.14 L 222.50 406.79 L 223.97 406.66 L 225.44 406.74 L 226.92 408.46 L 228.39 406.25 L 229.86 407.12 L 231.33 407.14 L 232.81 405.81 L 234.28 406.08 L 235.75 401.78 L 237.22 400.53 L 238.69 398.39 L 240.17 400.23 L 241.64 399.63 L 243.11 400.93 L 244.58 399.67 L 246.06 400.51 L 247.53 402.21 L 249.00 403.32 L 250.47 407.96 L 251.94 406.88 L 253.42 404.02 L 254.89 402.56 L 256.36 402.39 L 257.83 401.10 L 259.31 403.78 L 260.78 406.76 L 262.25 403.59 L 263.72 406.21 L 265.19 406.01 L 266.67 401.05 L 268.14 401.90 L 269.61 402.46 L 271.08 403.86 L 272.56 405.57 L 274.03 402.83 L 275.50 403.48 L 276.97 408.42 L 278.44 407.10 L 279.92 406.94 L 281.39 406.60 L 282.86 405.47 L 284.33 406.54 L 285.81 406.73 L 287.28 406.48 L 288.75 409.08 L 290.22 413.20 L 291.69 411.32 L 293.17 408.04 L 294.64 415.45 L 296.11 407.25 L 297.58 411.88 L 299.06 414.75 L 300.53 413.73 L 302.00 408.89 L 303.47 407.44 L 304.94 411.90 L 306.42 412.68 L 307.89 408.44 L 309.36 412.15 L 310.83 410.34 L 312.31 409.29 L 313.78 412.73 L 315.25 417.23 L 316.72 421.37 L 318.19 414.29 L 319.67 420.08 L 321.14 410.73 L 322.61 425.33 L 324.08 423.85 L 325.56 425.15 L 327.03 432.19 L 328.50 437.37 L 329.97 445.25 L 331.44 434.23 L 332.92 423.52 L 334.39 409.03 L 335.86 423.15 L 337.33 424.17 L 338.81 416.36 L 340.28 409.94 L 341.75 406.72 L 343.22 404.66 L 344.69 407.72 L 346.17 403.20 L 347.64 405.19 L 349.11 407.79 L 350.58 399.55 L 352.06 411.01 L 353.53 402.91 L 355.00 405.72 L 356.47 406.12 L 357.94 405.70 L 359.42 408.86 L 360.89 412.03 L 362.36 406.27 L 363.83 411.97 L 365.31 414.26 L 366.78 395.65 L 368.25 391.79 L 369.72 399.07 L 371.19 398.81 L 372.67 400.58 L 374.14 403.16 L 375.61 408.93 L 377.08 417.21 L 378.56 419.54 L 380.03 427.34 L 381.50 419.07 L 382.97 422.20 L 384.44 424.22 L 385.92 418.79 L 387.39 395.14 L 388.86 392.73 L 390.33 403.30 L 391.81 399.21 L 393.28 403.92 L 394.75 400.04 L 396.22 401.91 L 397.69 402.21 L 399.17 401.96 L 400.64 401.87 L 402.11 404.90 L 403.58 405.87 L 405.06 407.91 L 406.53 397.37 L 408.00 401.07 L 409.47 404.12 L 410.94 402.66 L 412.42 405.07 L 413.89 402.16 L 415.36 404.59 L 416.83 404.88 L 418.31 406.32 L 419.78 407.55 L 421.25 402.51 L 422.72 403.64 L 424.19 401.28 L 425.67 405.03 L 427.14 403.58 L 428.61 407.01 L 430.08 405.28 L 431.56 405.45 L 433.03 405.11 L 434.50 404.04 L 435.97 407.10 L 437.44 406.78 L 438.92 406.39 L 440.39 406.31 L 441.86 407.61 L 443.33 408.13 L 444.81 406.93 L 446.28 406.98 L 447.75 406.66 L 449.22 407.69 L 450.69 407.27 L 452.17 406.92 L 453.64 407.10 L 455.11 407.21 L 456.58 407.44 L 458.06 407.15 L 459.53 407.20 L 461.00 407.24 L 462.47 407.03 L 463.94 408.05 L 465.42 406.39 L 466.89 407.42 L 468.36 407.32 L 469.83 407.12 L 471.31 407.24 L 472.78 406.88 L 474.25 407.84 L 475.72 407.20 L 477.19 407.54 L 478.67 407.36 L 480.14 407.41 L 481.61 407.09 L 483.08 408.02 L 484.56 407.27 L 486.03 407.80 L 487.50 406.59 L 488.97 408.25 L 490.44 407.62 L 491.92 407.53 L 493.39 407.94 L 494.86 407.76 L 496.33 407.77 L 497.81 407.68 L 499.28 407.85 L 500.75 407.89 L 502.22 407.51 L 503.69 407.98 L 505.17 407.98 L 506.64 407.22 L 508.11 409.92 L 509.58 408.77 L 511.06 410.74 L 512.53 402.27 L 514.00 404.83 L 515.47 409.58 L 516.94 405.83 L 518.42 408.37 L 519.89 407.22 L 521.36 409.45 L 522.83 407.52 L 524.31 410.06 L 525.78 403.68 L 527.25 406.21 L 528.72 406.66 L 530.19 406.41 L 531.67 406.45 L 533.14 406.46 L 534.61 406.62 L 536.08 406.39 L 537.56 406.50 L 539.03 406.44 L 540.50 406.45 L 541.97 406.44 L 543.44 406.43 L 544.92 406.46 L 546.39 406.52 L 547.86 406.12 L 549.33 406.55 L 550.81 407.55 L 552.28 410.59 L 553.75 419.12 L 555.22 411.89 L 556.69 426.50 L 558.17 430.26 L 559.64 434.96 L 561.11 442.43 L 562.58 426.19 L 564.06 428.74 L 565.53 427.16 L 567.00 420.03 L 568.47 426.21 L 569.94 420.89 L 571.42 407.19 L 572.89 414.76 L 574.36 410.23 L 575.83 416.44 L 577.31 415.35 L 578.78 414.22 L 580.25 415.96 L 581.72 407.53 L 583.19 410.65 L 584.67 410.99 L 586.14 401.06 L 587.61 399.20 L 589.08 395.76 L 590.56 409.18 L 592.03 410.07 L 593.50 404.83 L 594.97 407.73 L 596.44 399.20 L 597.92 398.91 L 599.39 398.50 L 600.86 411.94 L 602.33 408.95 L 603.81 408.62 L 605.28 421.09 L 606.75 414.47 L 608.22 404.56 L 609.69 397.71 L 611.17 413.41 L 612.64 394.29 L 614.11 414.39 L 615.58 406.83 L 617.06 406.06 L 618.53 411.33 L 620.00 410.28 L 621.47 411.28 L 622.94 412.21 L 624.42 415.50 L 625.89 410.45 L 627.36 408.76 L 628.83 410.74 L 630.31 417.09 L 631.78 411.00 L 633.25 407.11 L 634.72 407.20 L 636.19 405.52 L 637.67 405.19 L 639.14 405.28 L 640.61 399.22 L 642.08 406.49 L 643.56 408.13 L 645.03 411.78 L 646.50 409.43 L 647.97 410.41 L 649.44 406.05 L 650.92 411.39 L 652.39 414.33 L 653.86 410.12 L 655.33 415.06 L 656.81 409.72 L 658.28 413.36 L 659.75 415.23 L 661.22 410.08 L 662.69 410.55 L 664.17 413.77 L 665.64 411.26 L 667.11 411.17 L 668.58 412.55 L 670.06 408.58 L 671.53 415.67 L 673.00 417.52 L 674.47 417.29 L 675.94 416.14 L 677.42 419.16 L 678.89 418.39 L 680.36 413.91 L 681.83 407.98 L 683.31 407.94 L 684.78 408.41 L 686.25 412.96 L 687.72 412.94 L 689.19 414.06 L 690.67 410.82 L 692.14 411.20 L 693.61 413.26 L 695.08 412.75 L 696.56 417.49 L 698.03 420.70 L 699.50 418.69 L 700.97 424.24 L 702.44 416.88 L 703.92 420.45 L 705.39 410.78 L 706.86 411.90 L 708.33 405.71 L 709.81 403.94 L 711.28 408.18 L 712.75 411.83 L 714.22 412.18 L 715.69 410.26 L 717.17 405.86 L 718.64 410.52 L 720.11 409.15 L 721.58 403.65 L 723.06 406.78 L 724.53 412.37 L 726.00 412.96 L 727.47 417.73 L 728.94 416.62 L 730.42 418.77 L 731.89 413.11 L 733.36 417.22 L 734.83 414.87 L 736.31 420.38 L 737.78 420.92 L 739.25 407.49 L 740.72 408.69 L 742.19 408.93 L 743.67 408.39 L 745.14 413.82 L 746.61 409.08 L 748.08 410.76 L 749.56 408.87 L 751.03 408.67 L 752.50 405.09 L 753.97 404.18 L 755.44 399.11 L 756.92 402.66 L 758.39 402.87 L 759.86 404.70 L 761.33 405.99 L 762.81 407.40 L 764.28 400.42 L 765.75 403.52 L 767.22 404.81 L 768.69 410.93 L 770.17 417.71 L 771.64 424.77 L 773.11 418.22" stroke="#6A1B9A" />
<line x1="900.00" y1="307.75" x2="918.00" y2="307.75" stroke="#2E7D32" stroke-width="3" />
<text class="small" x="924.00" y="311.75">pitch</text>
<line x1="900.00" y1="323.75" x2="918.00" y2="323.75" stroke="#6A1B9A" stroke-width="3" />
<text class="small" x="924.00" y="327.75">roll</text>
<text x="90" y="500.50" font-size="14" font-weight="700">Aceleração (magnitude) (u.a.)</text>
<rect class="event" x="443.33" y="506.50" width="64.78" height="192.75" />
<line class="eventline" x1="443.33" y1="506.50" x2="443.33" y2="699.25" />
<line class="eventline" x1="508.11" y1="506.50" x2="508.11" y2="699.25" />
<line class="grid" x1="90" y1="699.25" x2="1150" y2="699.25" />
<text class="small" x="80" y="703.25" text-anchor="end">0.00</text>
<line class="grid" x1="90" y1="660.70" x2="1150" y2="660.70" />
<text class="small" x="80" y="664.70" text-anchor="end">0.50</text>
<line class="grid" x1="90" y1="622.15" x2="1150" y2="622.15" />
<text class="small" x="80" y="626.15" text-anchor="end">1.00</text>
<line class="grid" x1="90" y1="583.60" x2="1150" y2="583.60" />
<text class="small" x="80" y="587.60" text-anchor="end">1.50</text>
<line class="grid" x1="90" y1="545.05" x2="1150" y2="545.05" />
<text class="small" x="80" y="549.05" text-anchor="end">2.00</text>
<line class="grid" x1="90" y1="506.50" x2="1150" y2="506.50" />
<text class="small" x="80" y="510.50" text-anchor="end">2.50</text>
<line class="grid" x1="90.00" y1="506.50" x2="90.00" y2="699.25" />
<line class="grid" x1="266.67" y1="506.50" x2="266.67" y2="699.25" />
<line class="grid" x1="443.33" y1="506.50" x2="443.33" y2="699.25" />
<line class="grid" x1="620.00" y1="506.50" x2="620.00" y2="699.25" />
<line class="grid" x1="796.67" y1="506.50" x2="796.67" y2="699.25" />
<line class="grid" x1="973.33" y1="506.50" x2="973.33" y2="699.25" />
<line class="grid" x1="1150.00" y1="506.50" x2="1150.00" y2="699.25" />
<line class="axis" x1="90" y1="506.50" x2="90" y2="699.25" />
<line class="axis" x1="90" y1="699.25" x2="1150" y2="699.25" />
<path class="series" d="M 178.33 684.55 L 179.81 691.54 L 181.28 691.95 L 182.75 676.21 L 184.22 689.04 L 185.69 690.43 L 187.17 692.72 L 188.64 687.64 L 190.11 694.05 L 191.58 692.98 L 193.06 697.13 L 194.53 693.23 L 196.00 688.87 L 197.47 697.29 L 198.94 690.61 L 200.42 692.59 L 201.89 688.95 L 203.36 689.81 L 204.83 689.91 L 206.31 689.16 L 207.78 694.11 L 209.25 682.83 L 210.72 686.75 L 212.19 686.76 L 213.67 689.05 L 215.14 686.50 L 216.61 680.99 L 218.08 689.72 L 219.56 685.10 L 221.03 690.15 L 222.50 692.52 L 223.97 693.70 L 225.44 694.73 L 226.92 692.29 L 228.39 690.04 L 229.86 696.47 L 231.33 691.77 L 232.81 690.66 L 234.28 692.93 L 235.75 688.88 L 237.22 689.62 L 238.69 688.76 L 240.17 692.37 L 241.64 682.09 L 243.11 693.96 L 244.58 687.34 L 246.06 687.57 L 247.53 688.46 L 249.00 682.39 L 250.47 688.80 L 251.94 676.07 L 253.42 693.21 L 254.89 695.65 L 256.36 693.56 L 257.83 686.91 L 259.31 696.68 L 260.78 689.65 L 262.25 690.09 L 263.72 689.65 L 265.19 693.05 L 266.67 691.74 L 268.14 690.42 L 269.61 693.82 L 271.08 690.91 L 272.56 694.16 L 274.03 687.07 L 275.50 694.36 L 276.97 695.04 L 278.44 691.37 L 279.92 689.94 L 281.39 685.89 L 282.86 684.00 L 284.33 688.54 L 285.81 688.55 L 287.28 695.44 L 288.75 689.40 L 290.22 688.27 L 291.69 678.70 L 293.17 651.01 L 294.64 671.66 L 296.11 672.42 L 297.58 686.82 L 299.06 691.93 L 300.53 666.79 L 302.00 679.55 L 303.47 675.31 L 304.94 668.33 L 306.42 675.92 L 307.89 674.05 L 309.36 679.76 L 310.83 681.52 L 312.31 682.18 L 313.78 656.10 L 315.25 666.17 L 316.72 678.71 L 318.19 672.92 L 319.67 676.86 L 321.14 674.64 L 322.61 661.77 L 324.08 674.90 L 325.56 674.28 L 327.03 660.26 L 328.50 625.48 L 329.97 610.45 L 331.44 644.19 L 332.92 658.33 L 334.39 661.14 L 335.86 660.05 L 337.33 665.79 L 338.81 676.90 L 340.28 676.51 L 341.75 681.76 L 343.22 686.68 L 344.69 675.07 L 346.17 678.22 L 347.64 678.22 L 349.11 682.63 L 350.58 664.45 L 352.06 681.59 L 353.53 678.77 L 355.00 657.57 L 356.47 673.17 L 357.94 686.89 L 359.42 688.12 L 360.89 678.83 L 362.36 658.69 L 363.83 670.39 L 365.31 675.31 L 366.78 635.61 L 368.25 666.01 L 369.72 683.70 L 371.19 683.74 L 372.67 681.98 L 374.14 675.24 L 375.61 660.46 L 377.08 654.44 L 378.56 673.96 L 380.03 671.24 L 381.50 688.05 L 382.97 657.67 L 384.44 671.40 L 385.92 677.30 L 387.39 622.65 L 388.86 681.41 L 390.33 685.71 L 391.81 691.49 L 393.28 668.18 L 394.75 691.77 L 396.22 697.32 L 397.69 697.18 L 399.17 697.41 L 400.64 688.48 L 402.11 691.48 L 403.58 692.90 L 405.06 694.99 L 406.53 690.72 L 408.00 690.18 L 409.47 681.55 L 410.94 689.66 L 412.42 693.40 L 413.89 688.86 L 415.36 695.13 L 416.83 697.76 L 418.31 695.11 L 419.78 696.63 L 421.25 693.09 L 422.72 695.94 L 424.19 692.37 L 425.67 690.64 L 427.14 695.43 L 428.61 689.79 L 430.08 690.49 L 431.56 695.77 L 433.03 696.34 L 434.50 692.10 L 435.97 697.02 L 437.44 697.14 L 438.92 696.99 L 440.39 697.39 L 441.86 693.20 L 443.33 693.70 L 444.81 690.00 L 446.28 692.10 L 447.75 697.76 L 449.22 697.08 L 450.69 697.01 L 452.17 695.15 L 453.64 695.60 L 455.11 695.73 L 456.58 695.46 L 458.06 694.99 L 459.53 694.57 L 461.00 694.63 L 462.47 693.67 L 463.94 693.00 L 465.42 695.77 L 466.89 692.82 L 468.36 694.94 L 469.83 693.70 L 471.31 695.49 L 472.78 693.42 L 474.25 691.89 L 475.72 694.62 L 477.19 696.54 L 478.67 696.55 L 480.14 697.18 L 481.61 697.46 L 483.08 696.30 L 484.56 693.81 L 486.03 696.25 L 487.50 696.69 L 488.97 694.16 L 490.44 696.96 L 491.92 698.97 L 493.39 694.55 L 494.86 694.00 L 496.33 695.26 L 497.81 695.87 L 499.28 684.83 L 500.75 691.34 L 502.22 694.29 L 503.69 694.18 L 505.17 686.50 L 506.64 673.25 L 508.11 684.54 L 509.58 675.77 L 511.06 648.51 L 512.53 662.56 L 514.00 669.24 L 515.47 693.38 L 516.94 693.38 L 518.42 690.02 L 519.89 696.64 L 521.36 659.57 L 522.83 678.81 L 524.31 663.44 L 525.78 665.78 L 527.25 679.81 L 528.72 687.03 L 530.19 694.32 L 531.67 696.68 L 533.14 697.50 L 534.61 697.44 L 536.08 698.00 L 537.56 698.68 L 539.03 698.16 L 540.50 697.01 L 541.97 698.08 L 543.44 698.15 L 544.92 697.81 L 546.39 697.23 L 547.86 698.03 L 549.33 695.05 L 550.81 674.52 L 552.28 672.74 L 553.75 671.44 L 555.22 681.41 L 556.69 654.12 L 558.17 650.70 L 559.64 656.42 L 561.11 636.00 L 562.58 663.52 L 564.06 656.00 L 565.53 658.39 L 567.00 666.83 L 568.47 658.70 L 569.94 671.91 L 571.42 660.71 L 572.89 631.60 L 574.36 633.64 L 575.83 678.74 L 577.31 672.75 L 578.78 687.41 L 580.25 684.42 L 581.72 687.96 L 583.19 670.27 L 584.67 665.41 L 586.14 659.93 L 587.61 676.19 L 589.08 662.32 L 590.56 650.97 L 592.03 658.19 L 593.50 695.24 L 594.97 682.37 L 596.44 686.52 L 597.92 683.94 L 599.39 686.29 L 600.86 655.85 L 602.33 673.09 L 603.81 661.86 L 605.28 654.24 L 606.75 671.78 L 608.22 640.71 L 609.69 636.85 L 611.17 682.19 L 612.64 665.22 L 614.11 655.68 L 615.58 672.14 L 617.06 669.91 L 618.53 668.12 L 620.00 666.67 L 621.47 678.27 L 622.94 689.94 L 624.42 658.77 L 625.89 684.31 L 627.36 683.11 L 628.83 680.39 L 630.31 670.70 L 631.78 679.17 L 633.25 679.94 L 634.72 675.88 L 636.19 671.27 L 637.67 679.42 L 639.14 681.83 L 640.61 687.01 L 642.08 678.19 L 643.56 671.22 L 645.03 674.78 L 646.50 692.90 L 647.97 685.38 L 649.44 681.80 L 650.92 679.23 L 652.39 685.39 L 653.86 683.79 L 655.33 682.64 L 656.81 670.16 L 658.28 674.97 L 659.75 681.76 L 661.22 690.20 L 662.69 683.99 L 664.17 672.62 L 665.64 682.26 L 667.11 689.84 L 668.58 678.21 L 670.06 663.78 L 671.53 666.13 L 673.00 681.48 L 674.47 689.78 L 675.94 670.34 L 677.42 691.57 L 678.89 696.41 L 680.36 689.69 L 681.83 690.17 L 683.31 691.61 L 684.78 664.53 L 686.25 676.80 L 687.72 689.48 L 689.19 689.48 L 690.67 686.24 L 692.14 686.19 L 693.61 683.18 L 695.08 691.99 L 696.56 670.37 L 698.03 667.35 L 699.50 647.67 L 700.97 647.76 L 702.44 651.50 L 703.92 658.05 L 705.39 684.65 L 706.86 656.04 L 708.33 681.48 L 709.81 677.68 L 711.28 686.90 L 712.75 695.19 L 714.22 658.89 L 715.69 684.89 L 717.17 686.49 L 718.64 683.20 L 720.11 666.65 L 721.58 690.34 L 723.06 669.56 L 724.53 661.70 L 726.00 671.82 L 727.47 672.69 L 728.94 663.82 L 730.42 672.20 L 731.89 682.66 L 733.36 680.12 L 734.83 684.69 L 736.31 686.13 L 737.78 669.69 L 739.25 673.93 L 740.72 674.60 L 742.19 683.23 L 743.67 684.89 L 745.14 689.44 L 746.61 687.98 L 748.08 682.46 L 749.56 672.72 L 751.03 686.84 L 752.50 688.51 L 753.97 680.92 L 755.44 688.41 L 756.92 691.20 L 758.39 680.38 L 759.86 683.86 L 761.33 687.18 L 762.81 691.41 L 764.28 679.90 L 765.75 682.02 L 767.22 691.31 L 768.69 683.85 L 770.17 671.67 L 771.64 667.51 L 773.11 677.50" stroke="#FB8C00" />
<text x="90" y="711.25" font-size="14" font-weight="700">Giroscópio (magnitude) (u.a.)</text>
<rect class="event" x="443.33" y="717.25" width="64.78" height="192.75" />
<line class="eventline" x1="443.33" y1="717.25" x2="443.33" y2="910.00" />
<line class="eventline" x1="508.11" y1="717.25" x2="508.11" y2="910.00" />
<line class="grid" x1="90" y1="910.00" x2="1150" y2="910.00" />
<text class="small" x="80" y="914.00" text-anchor="end">0.00</text>
<line class="grid" x1="90" y1="871.45" x2="1150" y2="871.45" />
<text class="small" x="80" y="875.45" text-anchor="end">0.10</text>
<line class="grid" x1="90" y1="832.90" x2="1150" y2="832.90" />
<text class="small" x="80" y="836.90" text-anchor="end">0.20</text>
<line class="grid" x1="90" y1="794.35" x2="1150" y2="794.35" />
<text class="small" x="80" y="798.35" text-anchor="end">0.30</text>
<line class="grid" x1="90" y1="755.80" x2="1150" y2="755.80" />
<text class="small" x="80" y="759.80" text-anchor="end">0.40</text>
<line class="grid" x1="90" y1="717.25" x2="1150" y2="717.25" />
<text class="small" x="80" y="721.25" text-anchor="end">0.50</text>
<line class="grid" x1="90.00" y1="717.25" x2="90.00" y2="910.00" />
<line class="grid" x1="266.67" y1="717.25" x2="266.67" y2="910.00" />
<line class="grid" x1="443.33" y1="717.25" x2="443.33" y2="910.00" />
<line class="grid" x1="620.00" y1="717.25" x2="620.00" y2="910.00" />
<line class="grid" x1="796.67" y1="717.25" x2="796.67" y2="910.00" />
<line class="grid" x1="973.33" y1="717.25" x2="973.33" y2="910.00" />
<line class="grid" x1="1150.00" y1="717.25" x2="1150.00" y2="910.00" />
<line class="axis" x1="90" y1="717.25" x2="90" y2="910.00" />
<line class="axis" x1="90" y1="910.00" x2="1150" y2="910.00" />
<path class="series" d="M 178.33 906.25 L 179.81 901.02 L 181.28 899.05 L 182.75 903.32 L 184.22 902.66 L 185.69 901.68 L 187.17 901.77 L 188.64 908.06 L 190.11 908.37 L 191.58 907.44 L 193.06 908.26 L 194.53 908.19 L 196.00 908.41 L 197.47 907.13 L 198.94 906.27 L 200.42 907.21 L 201.89 906.83 L 203.36 901.21 L 204.83 905.04 L 206.31 902.64 L 207.78 901.42 L 209.25 902.49 L 210.72 900.31 L 212.19 902.62 L 213.67 906.51 L 215.14 904.31 L 216.61 904.15 L 218.08 903.97 L 219.56 901.01 L 221.03 903.87 L 222.50 904.28 L 223.97 906.79 L 225.44 907.58 L 226.92 908.11 L 228.39 908.12 L 229.86 906.17 L 231.33 905.97 L 232.81 905.62 L 234.28 905.14 L 235.75 904.63 L 237.22 906.11 L 238.69 905.57 L 240.17 906.92 L 241.64 907.12 L 243.11 908.59 L 244.58 905.29 L 246.06 905.81 L 247.53 905.68 L 249.00 904.02 L 250.47 908.31 L 251.94 905.56 L 253.42 905.81 L 254.89 906.11 L 256.36 905.67 L 257.83 908.93 L 259.31 903.71 L 260.78 906.17 L 262.25 907.05 L 263.72 907.34 L 265.19 905.42 L 266.67 907.34 L 268.14 904.37 L 269.61 904.35 L 271.08 904.79 L 272.56 905.12 L 274.03 906.35 L 275.50 904.71 L 276.97 900.46 L 278.44 898.07 L 279.92 897.15 L 281.39 896.23 L 282.86 897.02 L 284.33 897.46 L 285.81 897.38 L 287.28 898.57 L 288.75 900.42 L 290.22 905.96 L 291.69 899.87 L 293.17 901.17 L 294.64 902.43 L 296.11 901.31 L 297.58 907.80 L 299.06 901.26 L 300.53 906.92 L 302.00 902.76 L 303.47 899.08 L 304.94 901.10 L 306.42 895.30 L 307.89 899.76 L 309.36 900.66 L 310.83 898.43 L 312.31 902.62 L 313.78 901.60 L 315.25 906.36 L 316.72 896.77 L 318.19 888.98 L 319.67 892.08 L 321.14 890.37 L 322.61 878.78 L 324.08 878.04 L 325.56 870.35 L 327.03 860.43 L 328.50 850.65 L 329.97 858.62 L 331.44 876.84 L 332.92 877.93 L 334.39 876.01 L 335.86 879.83 L 337.33 884.03 L 338.81 886.09 L 340.28 880.21 L 341.75 870.80 L 343.22 874.60 L 344.69 878.87 L 346.17 882.63 L 347.64 882.63 L 349.11 880.66 L 350.58 887.94 L 352.06 894.43 L 353.53 901.20 L 355.00 902.32 L 356.47 901.15 L 357.94 901.93 L 359.42 897.25 L 360.89 902.76 L 362.36 903.60 L 363.83 896.20 L 365.31 901.82 L 366.78 890.45 L 368.25 879.88 L 369.72 877.63 L 371.19 879.86 L 372.67 873.83 L 374.14 873.22 L 375.61 896.24 L 377.08 893.92 L 378.56 889.35 L 380.03 877.71 L 381.50 864.03 L 382.97 856.82 L 384.44 842.15 L 385.92 830.80 L 387.39 840.68 L 388.86 877.01 L 390.33 893.57 L 391.81 902.29 L 393.28 905.77 L 394.75 909.49 L 396.22 909.35 L 397.69 909.72 L 399.17 909.51 L 400.64 908.81 L 402.11 907.24 L 403.58 900.85 L 405.06 894.51 L 406.53 885.61 L 408.00 882.25 L 409.47 887.60 L 410.94 887.05 L 412.42 884.65 L 413.89 885.01 L 415.36 888.76 L 416.83 889.32 L 418.31 888.16 L 419.78 891.76 L 421.25 885.55 L 422.72 891.47 L 424.19 898.15 L 425.67 905.36 L 427.14 908.47 L 428.61 901.08 L 430.08 906.01 L 431.56 904.20 L 433.03 905.59 L 434.50 906.17 L 435.97 906.47 L 437.44 907.36 L 438.92 908.40 L 440.39 908.62 L 441.86 908.75 L 443.33 907.45 L 444.81 908.62 L 446.28 908.18 L 447.75 908.39 L 449.22 909.02 L 450.69 908.86 L 452.17 909.09 L 453.64 909.19 L 455.11 909.10 L 456.58 909.04 L 458.06 909.13 L 459.53 909.19 L 461.00 908.96 L 462.47 909.02 L 463.94 909.24 L 465.42 908.92 L 466.89 909.10 L 468.36 909.13 L 469.83 909.06 L 471.31 909.06 L 472.78 909.30 L 474.25 909.25 L 475.72 909.17 L 477.19 909.19 L 478.67 908.82 L 480.14 909.21 L 481.61 908.81 L 483.08 908.99 L 484.56 908.24 L 486.03 908.82 L 487.50 909.14 L 488.97 908.72 L 490.44 908.92 L 491.92 909.14 L 493.39 909.12 L 494.86 909.18 L 496.33 909.16 L 497.81 909.11 L 499.28 909.06 L 500.75 908.96 L 502.22 908.83 L 503.69 908.94 L 505.17 908.36 L 506.64 907.69 L 508.11 903.07 L 509.58 896.35 L 511.06 897.95 L 512.53 902.06 L 514.00 903.70 L 515.47 908.18 L 516.94 908.18 L 518.42 908.63 L 519.89 908.52 L 521.36 906.85 L 522.83 901.66 L 524.31 902.23 L 525.78 903.93 L 527.25 908.14 L 528.72 907.64 L 530.19 908.91 L 531.67 908.86 L 533.14 908.41 L 534.61 909.07 L 536.08 909.02 L 537.56 909.01 L 539.03 908.66 L 540.50 909.12 L 541.97 909.02 L 543.44 908.90 L 544.92 908.93 L 546.39 908.96 L 547.86 908.96 L 549.33 909.16 L 550.81 907.26 L 552.28 899.59 L 553.75 882.06 L 555.22 871.44 L 556.69 860.25 L 558.17 831.09 L 559.64 815.75 L 561.11 808.08 L 562.58 821.82 L 564.06 841.97 L 565.53 843.40 L 567.00 872.45 L 568.47 880.69 L 569.94 881.00 L 571.42 885.07 L 572.89 896.75 L 574.36 892.19 L 575.83 903.77 L 577.31 900.42 L 578.78 900.91 L 580.25 899.03 L 581.72 899.26 L 583.19 898.86 L 584.67 901.53 L 586.14 889.11 L 587.61 872.35 L 589.08 863.20 L 590.56 863.67 L 592.03 866.98 L 593.50 859.59 L 594.97 863.14 L 596.44 860.20 L 597.92 860.62 L 599.39 859.97 L 600.86 885.89 L 602.33 893.37 L 603.81 895.80 L 605.28 897.46 L 606.75 890.00 L 608.22 902.99 L 609.69 877.35 L 611.17 867.12 L 612.64 878.27 L 614.11 892.59 L 615.58 896.29 L 617.06 893.25 L 618.53 893.12 L 620.00 890.55 L 621.47 889.74 L 622.94 893.75 L 624.42 888.60 L 625.89 891.53 L 627.36 883.49 L 628.83 892.26 L 630.31 901.38 L 631.78 900.56 L 633.25 894.50 L 634.72 898.10 L 636.19 898.67 L 637.67 900.48 L 639.14 900.90 L 640.61 900.41 L 642.08 897.68 L 643.56 894.27 L 645.03 898.11 L 646.50 897.45 L 647.97 898.44 L 649.44 897.47 L 650.92 900.87 L 652.39 905.06 L 653.86 905.32 L 655.33 908.50 L 656.81 903.68 L 658.28 900.53 L 659.75 904.67 L 661.22 902.47 L 662.69 894.79 L 664.17 898.97 L 665.64 902.20 L 667.11 905.03 L 668.58 906.72 L 670.06 905.26 L 671.53 900.95 L 673.00 899.97 L 674.47 903.73 L 675.94 906.88 L 677.42 906.52 L 678.89 904.81 L 680.36 902.46 L 681.83 906.01 L 683.31 907.25 L 684.78 904.13 L 686.25 907.88 L 687.72 906.44 L 689.19 906.44 L 690.67 908.41 L 692.14 904.21 L 693.61 904.84 L 695.08 902.09 L 696.56 903.08 L 698.03 897.39 L 699.50 889.81 L 700.97 893.82 L 702.44 896.34 L 703.92 892.68 L 705.39 893.41 L 706.86 902.47 L 708.33 895.46 L 709.81 893.31 L 711.28 897.69 L 712.75 900.29 L 714.22 903.72 L 715.69 904.62 L 717.17 903.11 L 718.64 906.32 L 720.11 908.98 L 721.58 905.86 L 723.06 908.13 L 724.53 908.05 L 726.00 899.80 L 727.47 897.99 L 728.94 898.71 L 730.42 897.26 L 731.89 903.29 L 733.36 903.80 L 734.83 903.09 L 736.31 902.21 L 737.78 904.20 L 739.25 897.94 L 740.72 902.55 L 742.19 903.17 L 743.67 896.31 L 745.14 899.15 L 746.61 904.84 L 748.08 908.18 L 749.56 901.34 L 751.03 900.01 L 752.50 899.55 L 753.97 895.61 L 755.44 898.21 L 756.92 899.85 L 758.39 906.05 L 759.86 906.44 L 761.33 903.06 L 762.81 906.57 L 764.28 899.84 L 765.75 905.54 L 767.22 905.80 L 768.69 904.75 L 770.17 897.58 L 771.64 891.56 L 773.11 883.97" stroke="#E53935" />
<text x="620.00" y="952" font-size="15" text-anchor="middle">minutos (relativo ao início do evento)</text>
<text class="small" x="90.00" y="936" text-anchor="middle">-4.00</text>
<text class="small" x="266.67" y="936" text-anchor="middle">-2.00</text>
<text class="small" x="443.33" y="936" text-anchor="middle">0.00</text>
<text class="small" x="620.00" y="936" text-anchor="middle">2.00</text>
<text class="small" x="796.67" y="936" text-anchor="middle">4.00</text>
<text class="small" x="973.33" y="936" text-anchor="middle">6.00</text>
<text class="small" x="1150.00" y="936" text-anchor="middle">8.00</text>
</svg>