<?xml version="1.0" encoding="UTF-8"?>
<svg xmlns="http://www.w3.org/2000/svg" width="1180" height="980" viewBox="0 0 1180 980">
<style>
text { font-family: -apple-system, BlinkMacSystemFont, 'Segoe UI', Roboto, Helvetica, Arial, sans-serif; fill: #111; }
.small { font-size: 12px; fill: #222; }
.title { font-size: 18px; font-weight: 700; }
.axis { stroke: #111; stroke-width: 1.4; }
.grid { stroke: #E6E6E6; stroke-width: 1; }
.event { fill: #FFEB3B; fill-opacity: 0.18; }
.eventline { stroke: #F9A825; stroke-width: 1.2; stroke-dasharray: 4 3; }
.series { fill: none; stroke-width: 1.8; }
</style>
<text class="title" x="90" y="34">ciclo 19 — espera_basculamento — 2025-12-13T05:00:58-03:00 → 2025-12-13T05:04:41-03:00 (span 223s, dur 224s)</text>
<text class="small" x="90" y="54">GPS: -11.693031,-47.165149  hotspot: -11.693,-47.165</text>
<text class="small" x="90" y="70">Janela: -3.00 → 6.72 min (relativo ao início do evento)</text>
<text x="90" y="79.00" font-size="14" font-weight="700">Velocidade (km/h)</text>
<rect class="event" x="443.33" y="85.00" width="328.31" height="192.75" />
<line class="eventline" x1="443.33" y1="85.00" x2="443.33" y2="277.75" />
<line class="eventline" x1="771.64" y1="85.00" x2="771.64" y2="277.75" />
<line class="grid" x1="90" y1="277.75" x2="1150" y2="277.75" />
<text class="small" x="80" y="281.75" text-anchor="end">0.00</text>
<line class="grid" x1="90" y1="239.20" x2="1150" y2="239.20" />
<text class="small" x="80" y="243.20" text-anchor="end">10.0</text>
<line class="grid" x1="90" y1="200.65" x2="1150" y2="200.65" />
<text class="small" x="80" y="204.65" text-anchor="end">20.0</text>
<line class="grid" x1="90" y1="162.10" x2="1150" y2="162.10" />
<text class="small" x="80" y="166.10" text-anchor="end">30.0</text>
<line class="grid" x1="90" y1="123.55" x2="1150" y2="123.55" />
<text class="small" x="80" y="127.55" text-anchor="end">40.0</text>
<line class="grid" x1="90" y1="85.00" x2="1150" y2="85.00" />
<text class="small" x="80" y="89.00" text-anchor="end">50.0</text>
<line class="grid" x1="90.00" y1="85.00" x2="90.00" y2="277.75" />
<line class="grid" x1="266.67" y1="85.00" x2="266.67" y2="277.75" />
<line class="grid" x1="443.33" y1="85.00" x2="443.33" y2="277.75" />
<line class="grid" x1="620.00" y1="85.00" x2="620.00" y2="277.75" />
<line class="grid" x1="796.67" y1="85.00" x2="796.67" y2="277.75" />
<line class="grid" x1="973.33" y1="85.00" x2="973.33" y2="277.75" />
<line class="grid" x1="1150.00" y1="85.00" x2="1150.00" y2="277.75" />
<line class="axis" x1="90" y1="85.00" x2="90" y2="277.75" />
<line class="axis" x1="90" y1="277.75" x2="1150" y2="277.75" />
<path class="series" d="M 178.33 247.08 L 179.81 247.77 L 181.28 248.05 L 182.75 247.08 L 184.22 246.80 L 185.69 247.36 L 187.17 245.97 L 188.64 246.11 L 190.11 246.11 L 191.58 246.52 L 193.06 245.69 L 194.53 247.50 L 196.00 247.22 L 197.47 248.05 L 198.94 247.77 L 200.42 248.61 L 201.89 247.50 L 203.36 247.36 L 204.83 247.50 L 206.31 247.08 L 207.78 245.41 L 209.25 245.83 L 210.72 244.86 L 212.19 246.66 L 213.67 246.94 L 215.14 241.11 L 216.61 242.78 L 218.08 236.39 L 219.56 231.68 L 221.03 225.85 L 222.50 222.24 L 223.97 215.02 L 225.44 212.94 L 226.92 208.64 L 228.39 201.70 L 229.86 199.20 L 231.33 195.18 L 232.81 193.79 L 234.28 192.96 L 235.75 188.10 L 237.22 188.79 L 238.69 190.18 L 240.17 194.34 L 241.64 187.54 L 243.11 186.71 L 244.58 193.09 L 246.06 189.76 L 247.53 196.70 L 249.00 205.31 L 250.47 211.27 L 251.94 216.13 L 253.42 220.85 L 254.89 220.99 L 256.36 223.35 L 257.83 224.18 L 259.31 229.32 L 260.78 229.32 L 262.25 230.98 L 263.72 229.45 L 265.19 229.73 L 266.67 226.82 L 268.14 224.74 L 269.61 226.96 L 271.08 234.03 L 272.56 229.59 L 274.03 231.40 L 275.50 231.95 L 276.97 228.34 L 278.44 227.23 L 279.92 227.79 L 281.39 228.90 L 282.86 229.73 L 284.33 240.70 L 285.81 239.17 L 287.28 237.92 L 288.75 240.83 L 290.22 240.14 L 291.69 241.53 L 293.17 244.03 L 294.64 244.44 L 296.11 242.50 L 297.58 237.92 L 299.06 239.03 L 300.53 239.72 L 302.00 242.92 L 303.47 240.00 L 304.94 240.14 L 306.42 239.31 L 307.89 249.72 L 309.36 253.74 L 310.83 265.12 L 312.31 273.03 L 313.78 277.75 L 315.25 277.75 L 316.72 277.75 L 318.19 277.75 L 319.67 277.75 L 321.14 277.75 L 322.61 271.50 L 324.08 268.87 L 325.56 267.48 L 327.03 266.79 L 328.50 267.06 L 329.97 267.34 L 331.44 267.48 L 332.92 267.48 L 334.39 267.90 L 335.86 267.90 L 337.33 268.17 L 338.81 265.68 L 340.28 265.54 L 341.75 266.09 L 343.22 266.09 L 344.69 268.45 L 346.17 268.17 L 347.64 269.01 L 349.11 269.42 L 350.58 271.64 L 352.06 272.62 L 353.53 277.75 L 355.00 277.75 L 356.47 277.75 L 357.94 277.75 L 359.42 277.75 L 360.89 277.75 L 362.36 277.75 L 363.83 277.75 L 365.31 277.75 L 366.78 277.75 L 368.25 277.75 L 369.72 277.75 L 371.19 277.75 L 372.67 277.75 L 374.14 277.75 L 375.61 277.75 L 377.08 277.75 L 378.56 277.75 L 380.03 277.75 L 381.50 277.75 L 382.97 277.75 L 384.44 277.75 L 385.92 277.75 L 387.39 277.75 L 388.86 277.75 L 390.33 277.75 L 391.81 277.75 L 393.28 277.75 L 394.75 277.75 L 396.22 277.75 L 397.69 277.75 L 399.17 277.75 L 400.64 277.75 L 402.11 277.75 L 403.58 277.75 L 405.06 277.75 L 406.53 277.75 L 408.00 277.75 L 409.47 277.75 L 410.94 277.75 L 412.42 277.75 L 413.89 277.75 L 415.36 277.75 L 416.83 277.75 L 418.31 277.75 L 419.78 277.75 L 421.25 266.09 L 422.72 265.54 L 424.19 262.76 L 425.67 264.98 L 427.14 270.12 L 428.61 270.95 L 430.08 277.75 L 431.56 277.75 L 433.03 277.75 L 434.50 277.75 L 435.97 277.75 L 437.44 277.75 L 438.92 277.75 L 440.39 269.42 L 441.86 270.81 L 443.33 277.75 L 444.81 277.75 L 446.28 277.75 L 447.75 277.75 L 449.22 277.75 L 450.69 277.75 L 452.17 277.75 L 453.64 277.75 L 455.11 277.75 L 456.58 277.75 L 458.06 277.75 L 459.53 277.75 L 461.00 277.75 L 462.47 277.75 L 463.94 277.75 L 465.42 277.75 L 466.89 277.75 L 468.36 277.75 L 469.83 277.75 L 471.31 277.75 L 472.78 277.75 L 474.25 277.75 L 475.72 277.75 L 477.19 277.75 L 478.67 277.75 L 480.14 277.75 L 481.61 277.75 L 483.08 277.75 L 484.56 277.75 L 486.03 277.75 L 487.50 277.75 L 488.97 277.75 L 490.44 277.75 L 491.92 277.75 L 493.39 277.75 L 494.86 277.75 L 496.33 277.75 L 497.81 277.75 L 499.28 277.75 L 500.75 277.75 L 502.22 277.75 L 503.69 277.75 L 505.17 277.75 L 506.64 277.75 L 508.11 277.75 L 509.58 277.75 L 511.06 277.75 L 512.53 277.75 L 514.00 277.75 L 515.47 277.75 L 516.94 277.75 L 518.42 277.75 L 519.89 277.75 L 521.36 277.75 L 522.83 277.75 L 524.31 277.75 L 525.78 277.75 L 527.25 277.75 L 528.72 277.75 L 530.19 277.75 L 531.67 277.75 L 533.14 277.75 L 534.61 277.75 L 536.08 277.75 L 537.56 277.75 L 539.03 277.75 L 540.50 277.75 L 541.97 277.75 L 543.44 277.75 L 544.92 277.75 L 546.39 277.75 L 547.86 277.75 L 549.33 277.75 L 550.81 277.75 L 552.28 277.75 L 553.75 277.75 L 555.22 277.75 L 556.69 277.75 L 558.17 277.75 L 559.64 277.75 L 561.11 277.75 L 562.58 277.75 L 564.06 277.75 L 565.53 277.75 L 567.00 277.75 L 568.47 277.75 L 569.94 277.75 L 571.42 277.75 L 572.89 277.75 L 574.36 277.75 L 575.83 277.75 L 577.31 277.75 L 578.78 277.75 L 580.25 277.75 L 581.72 277.75 L 583.19 277.75 L 584.67 277.75 L 586.14 277.75 L 587.61 277.75 L 589.08 277.75 L 590.56 277.75 L 592.03 277.75 L 593.50 277.75 L 594.97 277.75 L 596.44 277.75 L 597.92 277.75 L 599.39 277.75 L 600.86 277.75 L 602.33 277.75 L 603.81 277.75 L 605.28 277.75 L 606.75 277.75 L 608.22 277.75 L 609.69 277.75 L 611.17 277.75 L 612.64 277.75 L 614.11 277.75 L 615.58 277.75 L 617.06 277.75 L 618.53 277.75 L 620.00 277.75 L 621.47 277.75 L 622.94 277.75 L 624.42 277.75 L 625.89 277.75 L 627.36 277.75 L 628.83 277.75 L 630.31 277.75 L 631.78 277.75 L 633.25 277.75 L 634.72 277.75 L 636.19 277.75 L 637.67 277.75 L 639.14 277.75 L 640.61 277.75 L 642.08 277.75 L 643.56 277.75 L 645.03 277.75 L 646.50 277.75 L 647.97 277.75 L 649.44 277.75 L 650.92 277.75 L 652.39 277.75 L 653.86 277.75 L 655.33 277.75 L 656.81 277.75 L 658.28 277.75 L 659.75 277.75 L 661.22 277.75 L 662.69 277.75 L 664.17 277.75 L 665.64 277.75 L 667.11 277.75 L 668.58 277.75 L 670.06 277.75 L 671.53 277.75 L 673.00 277.75 L 674.47 277.75 L 675.94 277.75 L 677.42 277.75 L 678.89 277.75 L 680.36 277.75 L 681.83 277.75 L 683.31 277.75 L 684.78 277.75 L 686.25 277.75 L 687.72 277.75 L 689.19 277.75 L 690.67 277.75 L 692.14 277.75 L 693.61 277.75 L 695.08 277.75 L 696.56 277.75 L 698.03 277.75 L 699.50 277.75 L 700.97 277.75 L 702.44 277.75 L 703.92 277.75 L 705.39 277.75 L 706.86 277.75 L 708.33 277.75 L 709.81 277.75 L 711.28 277.75 L 712.75 277.75 L 714.22 277.75 L 715.69 277.75 L 717.17 277.75 L 718.64 277.75 L 720.11 277.75 L 721.58 277.75 L 723.06 277.75 L 724.53 277.75 L 726.00 277.75 L 727.47 277.75 L 728.94 277.75 L 730.42 277.75 L 731.89 277.75 L 733.36 277.75 L 734.83 277.75 L 736.31 277.75 L 737.78 277.75 L 739.25 277.75 L 740.72 277.75 L 742.19 277.75 L 743.67 277.75 L 745.14 277.75 L 746.61 277.75 L 748.08 277.75 L 749.56 277.75 L 751.03 277.75 L 752.50 277.75 L 753.97 277.75 L 755.44 277.75 L 756.92 277.75 L 758.39 277.75 L 759.86 277.75 L 761.33 277.75 L 762.81 277.75 L 764.28 277.75 L 765.75 277.75 L 767.22 277.75 L 768.69 277.75 L 770.17 277.75 L 771.64 277.75 L 773.11 266.09 L 774.58 260.12 L 776.06 254.43 L 777.53 245.55 L 779.00 234.45 L 780.47 233.20 L 781.94 226.26 L 783.42 218.63 L 784.89 212.80 L 786.36 208.78 L 787.83 201.28 L 789.31 199.62 L 790.78 203.64 L 792.25 206.69 L 793.72 206.28 L 795.19 214.88 L 796.67 222.38 L 798.14 220.85 L 799.61 225.85 L 801.08 215.30 L 802.56 215.02 L 804.03 209.89 L 805.50 205.45 L 806.97 205.31 L 808.44 206.69 L 809.92 208.78 L 811.39 211.41 L 812.86 207.25 L 814.33 202.81 L 815.81 197.67 L 817.28 187.82 L 818.75 182.82 L 820.22 180.60 L 821.69 177.83 L 823.17 173.53 L 824.64 174.64 L 826.11 176.02 L 827.58 179.91 L 829.06 182.96 L 830.53 184.35 L 832.00 182.27 L 833.47 182.96 L 834.94 181.58 L 836.42 189.35 L 837.89 187.96 L 839.36 187.96 L 840.83 187.68 L 842.31 188.65 L 843.78 185.60 L 845.25 183.52 L 846.72 181.30 L 848.19 178.24 L 849.67 176.02 L 851.14 170.33 L 852.61 167.56 L 854.08 164.37 L 855.56 166.03 L 857.03 167.42 L 858.50 167.84 L 859.97 162.84 L 861.44 165.20 L 862.92 163.40 L 864.39 163.67 L 865.86 166.03 L 867.33 169.22 L 868.81 165.75 L 870.28 167.14 L 871.75 166.45 L 873.22 170.61 L 874.69 168.81 L 876.17 168.95 L 877.64 168.81 L 879.11 168.11 L 880.58 168.39 L 882.06 173.94 L 883.53 172.14 L 885.00 171.31 L 886.47 173.39 L 887.94 170.20 L 889.42 169.92 L 890.89 169.36 L 892.36 167.28 L 893.83 167.42 L 895.31 167.42 L 896.78 168.25 L 898.25 167.98 L 899.72 170.61 L 901.19 174.36 L 902.67 169.22 L 904.14 171.44 L 905.61 172.69 L 907.08 172.83 L 908.56 172.00 L 910.03 169.92 L 911.50 169.09 L 912.97 169.50 L 914.44 168.53 L 915.92 170.06 L 917.39 170.47 L 918.86 172.00 L 920.33 173.80 L 921.81 175.47 L 923.28 176.30 L 924.75 177.41 L 926.22 178.11 L 927.69 178.80 L 929.17 178.11 L 930.64 178.24 L 932.11 177.69 L 933.58 176.02 L 935.06 173.66 L 936.53 172.97 L 938.00 171.03 L 939.47 169.22 L 940.94 167.00 L 942.42 167.14 L 943.89 167.28 L 945.36 165.06 L 946.83 164.78 L 948.31 164.37 L 949.78 166.03 L 951.25 171.58 L 952.72 175.47 L 954.19 184.77 L 955.67 189.21 L 957.14 184.63 L 958.61 184.77 L 960.08 184.63 L 961.56 182.13 L 963.03 182.27 L 964.50 181.58 L 965.97 176.16 L 967.44 170.33 L 968.92 168.11 L 970.39 169.22 L 971.86 163.67 L 973.33 156.32 L 974.81 151.88 L 976.28 149.52 L 977.75 152.02 L 979.22 151.60 L 980.69 152.02 L 982.17 155.21 L 983.64 153.96 L 985.11 155.07 L 986.58 155.62 L 988.06 154.93 L 989.53 158.54 L 991.00 157.84 L 992.47 156.87 L 993.94 151.88 L 995.42 152.29 L 996.89 149.10 L 998.36 148.27 L 999.83 146.46 L 1001.31 145.49 L 1002.78 145.35 L 1004.25 146.05 L 1005.72 148.96 L 1007.19 149.10 L 1008.67 150.35 L 1010.14 151.18 L 1011.61 150.35 L 1013.08 147.99 L 1014.56 148.96 L 1016.03 144.80 L 1017.50 153.96 L 1018.97 152.15 L 1020.44 151.18 L 1021.92 152.02 L 1023.39 148.96 L 1024.86 148.82 L 1026.33 147.02 L 1027.81 154.65 L 1029.28 153.54 L 1030.75 143.55 L 1032.22 147.30 L 1033.69 151.60 L 1035.17 151.18 L 1036.64 153.54" stroke="#1976D2" />
<text x="90" y="289.75" font-size="14" font-weight="700">Inclinação (graus)</text>
<rect class="event" x="443.33" y="295.75" width="328.31" height="192.75" />
<line class="eventline" x1="443.33" y1="295.75" x2="443.33" y2="488.50" />
<line class="eventline" x1="771.64" y1="295.75" x2="771.64" y2="488.50" />
<line class="grid" x1="90" y1="488.50" x2="1150" y2="488.50" />
<text class="small" x="80" y="492.50" text-anchor="end">-20.0</text>
<line class="grid" x1="90" y1="449.95" x2="1150" y2="449.95" />
<text class="small" x="80" y="453.95" text-anchor="end">-10.0</text>
<line class="grid" x1="90" y1="411.40" x2="1150" y2="411.40" />
<text class="small" x="80" y="415.40" text-anchor="end">0.00</text>
<line class="grid" x1="90" y1="372.85" x2="1150" y2="372.85" />
<text class="small" x="80" y="376.85" text-anchor="end">10.0</text>
<line class="grid" x1="90" y1="334.30" x2="1150" y2="334.30" />
<text class="small" x="80" y="338.30" text-anchor="end">20.0</text>
<line class="grid" x1="90" y1="295.75" x2="1150" y2="295.75" />
<text class="small" x="80" y="299.75" text-anchor="end">30.0</text>
<line class="grid" x1="90.00" y1="295.75" x2="90.00" y2="488.50" />
<line class="grid" x1="266.67" y1="295.75" x2="266.67" y2="488.50" />
<line class="grid" x1="443.33" y1="295.75" x2="443.33" y2="488.50" />
<line class="grid" x1="620.00" y1="295.75" x2="620.00" y2="488.50" />
<line class="grid" x1="796.67" y1="295.75" x2="796.67" y2="488.50" />
<line class="grid" x1="973.33" y1="295.75" x2="973.33" y2="488.50" />
<line class="grid" x1="1150.00" y1="295.75" x2="1150.00" y2="488.50" />
<line class="axis" x1="90" y1="295.75" x2="90" y2="488.50" />
<line class="axis" x1="90" y1="488.50" x2="1150" y2="488.50" />
<path class="series" d="M 178.33 389.78 L 179.81 389.46 L 181.28 390.81 L 182.75 389.43 L 184.22 388.51 L 185.69 386.97 L 187.17 386.06 L 188.64 387.35 L 190.11 386.81 L 191.58 390.31 L 193.06 389.13 L 194.53 391.14 L 196.00 391.28 L 197.47 392.82 L 198.94 391.81 L 200.42 392.54 L 201.89 393.32 L 203.36 393.10 L 204.83 395.31 L 206.31 395.62 L 207.78 390.92 L 209.25 388.77 L 210.72 385.11 L 212.19 386.13 L 213.67 389.77 L 215.14 386.17 L 216.61 387.58 L 218.08 386.61 L 219.56 382.51 L 221.03 374.72 L 222.50 373.21 L 223.97 376.88 L 225.44 373.19 L 226.92 368.61 L 228.39 374.34 L 229.86 370.42 L 231.33 376.04 L 232.81 373.91 L 234.28 373.11 L 235.75 373.13 L 237.22 375.32 L 238.69 370.22 L 240.17 372.74 L 241.64 370.70 L 243.11 370.98 L 244.58 374.74 L 246.06 373.01 L 247.53 379.77 L 249.00 373.41 L 250.47 374.99 L 251.94 380.45 L 253.42 379.49 L 254.89 378.93 L 256.36 381.87 L 257.83 381.62 L 259.31 377.59 L 260.78 378.69 L 262.25 379.24 L 263.72 376.03 L 265.19 373.92 L 266.67 371.51 L 268.14 371.29 L 269.61 357.35 L 271.08 360.48 L 272.56 365.76 L 274.03 356.03 L 275.50 360.07 L 276.97 359.66 L 278.44 363.40 L 279.92 354.96 L 281.39 365.46 L 282.86 362.62 L 284.33 369.60 L 285.81 374.01 L 287.28 369.38 L 288.75 373.77 L 290.22 373.30 L 291.69 370.87 L 293.17 370.44 L 294.64 370.57 L 296.11 370.98 L 297.58 370.17 L 299.06 367.90 L 300.53 367.00 L 302.00 368.26 L 303.47 366.82 L 304.94 364.55 L 306.42 352.50 L 307.89 353.94 L 309.36 347.05 L 310.83 354.07 L 312.31 356.81 L 313.78 365.53 L 315.25 366.21 L 316.72 367.46 L 318.19 361.96 L 319.67 363.29 L 321.14 365.39 L 322.61 360.97 L 324.08 361.97 L 325.56 364.51 L 327.03 364.73 L 328.50 363.21 L 329.97 363.34 L 331.44 363.76 L 332.92 362.70 L 334.39 364.90 L 335.86 365.50 L 337.33 360.26 L 338.81 361.83 L 340.28 364.56 L 341.75 364.15 L 343.22 363.10 L 344.69 362.69 L 346.17 361.75 L 347.64 365.70 L 349.11 365.16 L 350.58 362.46 L 352.06 365.74 L 353.53 366.87 L 355.00 362.17 L 356.47 362.26 L 357.94 362.24 L 359.42 362.43 L 360.89 362.43 L 362.36 362.52 L 363.83 361.62 L 365.31 361.64 L 366.78 361.72 L 368.25 361.78 L 369.72 361.85 L 371.19 361.66 L 372.67 361.74 L 374.14 361.75 L 375.61 361.80 L 377.08 361.84 L 378.56 361.93 L 380.03 361.99 L 381.50 362.05 L 382.97 362.17 L 384.44 362.00 L 385.92 362.32 L 387.39 361.75 L 388.86 361.77 L 390.33 361.86 L 391.81 362.00 L 393.28 360.85 L 394.75 363.82 L 396.22 361.98 L 397.69 362.13 L 399.17 362.38 L 400.64 362.86 L 402.11 362.14 L 403.58 362.67 L 405.06 362.65 L 406.53 362.59 L 408.00 362.90 L 409.47 364.05 L 410.94 363.56 L 412.42 363.74 L 413.89 363.92 L 415.36 364.95 L 416.83 364.83 L 418.31 366.74 L 419.78 384.25 L 421.25 370.25 L 422.72 367.39 L 424.19 364.67 L 425.67 359.22 L 427.14 363.34 L 428.61 360.70 L 430.08 360.70 L 431.56 361.63 L 433.03 367.73 L 434.50 366.78 L 435.97 366.04 L 437.44 367.58 L 438.92 370.63 L 440.39 376.34 L 441.86 360.97 L 443.33 358.76 L 444.81 364.29 L 446.28 366.32 L 447.75 365.89 L 449.22 365.48 L 450.69 365.31 L 452.17 364.90 L 453.64 364.93 L 455.11 364.77 L 456.58 365.04 L 458.06 364.00 L 459.53 364.38 L 461.00 364.33 L 462.47 364.38 L 463.94 363.86 L 465.42 364.25 L 466.89 364.00 L 468.36 364.11 L 469.83 364.19 L 471.31 364.07 L 472.78 364.08 L 474.25 364.09 L 475.72 364.08 L 477.19 364.11 L 478.67 364.12 L 480.14 363.99 L 481.61 364.11 L 483.08 364.04 L 484.56 364.04 L 486.03 364.06 L 487.50 364.05 L 488.97 364.00 L 490.44 364.00 L 491.92 363.98 L 493.39 364.08 L 494.86 364.05 L 496.33 363.93 L 497.81 363.98 L 499.28 363.96 L 500.75 364.00 L 502.22 363.99 L 503.69 364.00 L 505.17 363.97 L 506.64 364.02 L 508.11 364.00 L 509.58 363.98 L 511.06 364.01 L 512.53 363.98 L 514.00 364.01 L 515.47 363.98 L 516.94 363.92 L 518.42 364.02 L 519.89 363.99 L 521.36 364.01 L 522.83 364.04 L 524.31 364.02 L 525.78 363.98 L 527.25 364.03 L 528.72 364.05 L 530.19 364.05 L 531.67 364.05 L 533.14 363.99 L 534.61 364.00 L 536.08 364.04 L 537.56 364.01 L 539.03 364.05 L 540.50 363.98 L 541.97 364.04 L 543.44 363.93 L 544.92 363.98 L 546.39 363.96 L 547.86 363.99 L 549.33 364.00 L 550.81 363.95 L 552.28 363.96 L 553.75 364.00 L 555.22 363.99 L 556.69 363.98 L 558.17 363.99 L 559.64 363.91 L 561.11 363.99 L 562.58 363.95 L 564.06 363.94 L 565.53 364.00 L 567.00 363.95 L 568.47 363.98 L 569.94 363.94 L 571.42 364.01 L 572.89 364.04 L 574.36 363.96 L 575.83 364.00 L 577.31 363.98 L 578.78 364.08 L 580.25 363.98 L 581.72 364.01 L 583.19 363.96 L 584.67 364.03 L 586.14 364.01 L 587.61 363.96 L 589.08 364.02 L 590.56 364.00 L 592.03 363.98 L 593.50 363.95 L 594.97 363.98 L 596.44 364.00 L 597.92 363.98 L 599.39 363.96 L 600.86 363.98 L 602.33 364.01 L 603.81 364.00 L 605.28 363.95 L 606.75 364.00 L 608.22 363.98 L 609.69 363.99 L 611.17 363.99 L 612.64 363.99 L 614.11 364.04 L 615.58 364.01 L 617.06 363.95 L 618.53 364.00 L 620.00 364.02 L 621.47 363.99 L 622.94 364.03 L 624.42 363.95 L 625.89 363.99 L 627.36 363.99 L 628.83 363.99 L 630.31 363.97 L 631.78 363.98 L 633.25 364.00 L 634.72 364.04 L 636.19 363.99 L 637.67 363.98 L 639.14 364.05 L 640.61 364.00 L 642.08 363.97 L 643.56 364.02 L 645.03 363.99 L 646.50 364.03 L 647.97 363.95 L 649.44 363.98 L 650.92 364.02 L 652.39 363.97 L 653.86 363.97 L 655.33 363.99 L 656.81 364.03 L 658.28 363.97 L 659.75 363.96 L 661.22 363.94 L 662.69 364.00 L 664.17 364.05 L 665.64 363.99 L 667.11 363.98 L 668.58 363.99 L 670.06 364.01 L 671.53 363.99 L 673.00 363.92 L 674.47 363.97 L 675.94 364.01 L 677.42 363.98 L 678.89 363.94 L 680.36 364.03 L 681.83 363.97 L 683.31 364.04 L 684.78 363.94 L 686.25 363.97 L 687.72 364.06 L 689.19 363.96 L 690.67 363.94 L 692.14 363.88 L 693.61 363.97 L 695.08 363.97 L 696.56 363.99 L 698.03 363.96 L 699.50 363.95 L 700.97 363.93 L 702.44 363.96 L 703.92 363.98 L 705.39 364.01 L 706.86 364.00 L 708.33 364.00 L 709.81 363.94 L 711.28 363.92 L 712.75 363.96 L 714.22 364.00 L 715.69 363.99 L 717.17 364.02 L 718.64 364.01 L 720.11 363.96 L 721.58 364.01 L 723.06 363.97 L 724.53 364.00 L 726.00 363.97 L 727.47 364.00 L 728.94 363.94 L 730.42 364.00 L 731.89 363.94 L 733.36 363.95 L 734.83 363.95 L 736.31 363.95 L 737.78 363.89 L 739.25 363.95 L 740.72 363.89 L 742.19 363.97 L 743.67 363.95 L 745.14 364.11 L 746.61 364.04 L 748.08 364.05 L 749.56 364.07 L 751.03 364.06 L 752.50 363.90 L 753.97 363.92 L 755.44 363.96 L 756.92 363.91 L 758.39 363.90 L 759.86 363.85 L 761.33 363.92 L 762.81 363.86 L 764.28 363.85 L 765.75 363.86 L 767.22 363.85 L 768.69 363.82 L 770.17 372.92 L 771.64 373.37 L 773.11 366.35 L 774.58 374.78 L 776.06 374.43 L 777.53 370.93 L 779.00 368.24 L 780.47 365.95 L 781.94 372.89 L 783.42 367.11 L 784.89 370.01 L 786.36 371.82 L 787.83 365.56 L 789.31 360.93 L 790.78 352.95 L 792.25 360.97 L 793.72 371.93 L 795.19 362.35 L 796.67 366.23 L 798.14 362.46 L 799.61 379.91 L 801.08 377.90 L 802.56 377.42 L 804.03 378.04 L 805.50 370.30 L 806.97 358.95 L 808.44 358.12 L 809.92 351.54 L 811.39 353.03 L 812.86 353.01 L 814.33 352.43 L 815.81 356.64 L 817.28 355.30 L 818.75 356.02 L 820.22 353.33 L 821.69 360.98 L 823.17 350.61 L 824.64 361.26 L 826.11 357.33 L 827.58 357.18 L 829.06 357.28 L 830.53 363.32 L 832.00 366.45 L 833.47 358.48 L 834.94 360.85 L 836.42 361.50 L 837.89 365.16 L 839.36 373.68 L 840.83 369.46 L 842.31 367.04 L 843.78 361.12 L 845.25 358.24 L 846.72 357.63 L 848.19 350.26 L 849.67 353.93 L 851.14 351.15 L 852.61 347.57 L 854.08 348.35 L 855.56 345.86 L 857.03 345.08 L 858.50 344.70 L 859.97 342.63 L 861.44 344.54 L 862.92 345.71 L 864.39 346.29 L 865.86 345.14 L 867.33 342.85 L 868.81 342.62 L 870.28 342.47 L 871.75 345.13 L 873.22 345.16 L 874.69 343.15 L 876.17 343.16 L 877.64 344.52 L 879.11 342.73 L 880.58 342.21 L 882.06 343.46 L 883.53 344.50 L 885.00 343.29 L 886.47 344.60 L 887.94 344.00 L 889.42 343.89 L 890.89 343.86 L 892.36 342.24 L 893.83 343.77 L 895.31 342.53 L 896.78 344.04 L 898.25 343.29 L 899.72 347.12 L 901.19 342.81 L 902.67 343.81 L 904.14 346.28 L 905.61 344.02 L 907.08 344.72 L 908.56 343.06 L 910.03 342.94 L 911.50 343.38 L 912.97 345.02 L 914.44 344.57 L 915.92 343.86 L 917.39 343.07 L 918.86 344.66 L 920.33 344.20 L 921.81 343.66 L 923.28 345.22 L 924.75 344.36 L 926.22 344.59 L 927.69 344.93 L 929.17 344.57 L 930.64 343.92 L 932.11 343.49 L 933.58 344.32 L 935.06 344.23 L 936.53 344.26 L 938.00 341.98 L 939.47 343.29 L 940.94 343.09 L 942.42 343.64 L 943.89 342.80 L 945.36 343.57 L 946.83 342.65 L 948.31 343.82 L 949.78 343.05 L 951.25 347.01 L 952.72 342.07 L 954.19 342.63 L 955.67 351.97 L 957.14 351.56 L 958.61 358.79 L 960.08 361.17 L 961.56 357.54 L 963.03 353.58 L 964.50 369.38 L 965.97 369.23 L 967.44 369.88 L 968.92 375.18 L 970.39 378.41 L 971.86 385.71 L 973.33 380.83 L 974.81 372.56 L 976.28 372.90 L 977.75 368.26 L 979.22 367.49 L 980.69 361.54 L 982.17 369.31 L 983.64 363.60 L 985.11 365.11 L 986.58 360.01 L 988.06 357.57 L 989.53 361.40 L 991.00 360.20 L 992.47 364.19 L 993.94 359.75 L 995.42 359.78 L 996.89 357.52 L 998.36 360.30 L 999.83 359.76 L 1001.31 360.51 L 1002.78 359.69 L 1004.25 359.37 L 1005.72 360.15 L 1007.19 362.97 L 1008.67 361.86 L 1010.14 365.55 L 1011.61 367.04 L 1013.08 362.17 L 1014.56 361.91 L 1016.03 364.34 L 1017.50 363.97 L 1018.97 367.46 L 1020.44 366.30 L 1021.92 370.19 L 1023.39 370.19 L 1024.86 366.70 L 1026.33 363.80 L 1027.81 360.09 L 1029.28 361.03 L 1030.75 368.84 L 1032.22 366.98 L 1033.69 366.35 L 1035.17 366.45 L 1036.64 366.49" stroke="#2E7D32" />
<path class="series" d="M 178.33 408.49 L 179.81 405.78 L 181.28 402.39 L 182.75 402.97 L 184.22 404.34 L 185.69 402.64 L 187.17 404.34 L 188.64 403.91 L 190.11 404.68 L 191.58 403.65 L 193.06 403.55 L 194.53 403.69 L 196.00 400.68 L 197.47 403.40 L 198.94 405.09 L 200.42 406.94 L 201.89 407.03 L 203.36 412.25 L 204.83 415.81 L 206.31 414.69 L 207.78 417.83 L 209.25 403.91 L 210.72 413.83 L 212.19 411.80 L 213.67 418.71 L 215.14 409.24 L 216.61 411.57 L 218.08 408.95 L 219.56 410.27 L 221.03 411.31 L 222.50 408.31 L 223.97 408.15 L 225.44 414.35 L 226.92 414.89 L 228.39 416.16 L 229.86 410.19 L 231.33 418.53 L 232.81 417.18 L 234.28 414.97 L 235.75 414.60 L 237.22 424.36 L 238.69 420.23 L 240.17 423.46 L 241.64 426.73 L 243.11 439.38 L 244.58 441.68 L 246.06 425.00 L 247.53 430.58 L 249.00 414.28 L 250.47 424.73 L 251.94 427.38 L 253.42 416.93 L 254.89 407.33 L 256.36 403.11 L 257.83 405.48 L 259.31 400.87 L 260.78 390.88 L 262.25 401.38 L 263.72 399.27 L 265.19 402.89 L 266.67 394.04 L 268.14 405.26 L 269.61 396.44 L 271.08 401.63 L 272.56 402.67 L 274.03 401.68 L 275.50 402.55 L 276.97 405.43 L 278.44 411.57 L 279.92 404.16 L 281.39 397.76 L 282.86 406.22 L 284.33 404.07 L 285.81 405.40 L 287.28 399.44 L 288.75 414.84 L 290.22 403.87 L 291.69 407.55 L 293.17 413.63 L 294.64 411.06 L 296.11 419.27 L 297.58 424.90 L 299.06 415.89 L 300.53 419.86 L 302.00 422.49 L 303.47 417.56 L 304.94 422.12 L 306.42 404.84 L 307.89 408.46 L 309.36 399.04 L 310.83 409.38 L 312.31 406.47 L 313.78 403.51 L 315.25 403.36 L 316.72 406.01 L 318.19 406.74 L 319.67 407.94 L 321.14 407.32 L 322.61 406.92 L 324.08 404.86 L 325.56 404.89 L 327.03 408.07 L 328.50 406.42 L 329.97 409.35 L 331.44 405.55 L 332.92 403.70 L 334.39 405.47 L 335.86 406.73 L 337.33 404.74 L 338.81 401.82 L 340.28 402.86 L 341.75 397.80 L 343.22 394.81 L 344.69 398.73 L 346.17 397.32 L 347.64 398.81 L 349.11 401.98 L 350.58 400.10 L 352.06 397.00 L 353.53 399.79 L 355.00 400.97 L 356.47 401.47 L 357.94 401.07 L 359.42 401.36 L 360.89 400.45 L 362.36 401.90 L 363.83 401.94 L 365.31 401.54 L 366.78 401.77 L 368.25 401.40 L 369.72 401.52 L 371.19 401.50 L 372.67 401.54 L 374.14 401.52 L 375.61 401.46 L 377.08 401.37 L 378.56 401.40 L 380.03 401.39 L 381.50 401.39 L 382.97 401.31 L 384.44 401.32 L 385.92 401.81 L 387.39 400.78 L 388.86 401.51 L 390.33 401.26 L 391.81 401.40 L 393.28 400.71 L 394.75 402.16 L 396.22 400.96 L 397.69 401.13 L 399.17 401.08 L 400.64 401.82 L 402.11 400.49 L 403.58 401.15 L 405.06 401.38 L 406.53 401.25 L 408.00 400.66 L 409.47 401.49 L 410.94 400.81 L 412.42 401.17 L 413.89 401.07 L 415.36 401.11 L 416.83 401.29 L 418.31 400.53 L 419.78 395.16 L 421.25 402.34 L 422.72 399.86 L 424.19 405.15 L 425.67 404.87 L 427.14 407.40 L 428.61 406.71 L 430.08 406.71 L 431.56 407.56 L 433.03 406.90 L 434.50 406.80 L 435.97 407.10 L 437.44 406.74 L 438.92 406.55 L 440.39 407.45 L 441.86 409.55 L 443.33 405.69 L 444.81 407.30 L 446.28 407.10 L 447.75 407.36 L 449.22 407.53 L 450.69 407.53 L 452.17 407.30 L 453.64 407.32 L 455.11 407.45 L 456.58 407.45 L 458.06 407.40 L 459.53 407.42 L 461.00 407.43 L 462.47 407.57 L 463.94 407.53 L 465.42 407.29 L 466.89 407.86 L 468.36 407.55 L 469.83 407.52 L 471.31 407.80 L 472.78 407.59 L 474.25 407.64 L 475.72 407.68 L 477.19 407.57 L 478.67 407.65 L 480.14 407.67 L 481.61 407.62 L 483.08 407.62 L 484.56 407.65 L 486.03 407.60 L 487.50 407.62 L 488.97 407.57 L 490.44 407.59 L 491.92 407.62 L 493.39 407.62 L 494.86 407.64 L 496.33 407.64 L 497.81 407.63 L 499.28 407.58 L 500.75 407.61 L 502.22 407.63 L 503.69 407.62 L 505.17 407.59 L 506.64 407.58 L 508.11 407.63 L 509.58 407.60 L 511.06 407.59 L 512.53 407.60 L 514.00 407.60 L 515.47 407.62 L 516.94 407.60 L 518.42 407.63 L 519.89 407.61 L 521.36 407.69 L 522.83 407.61 L 524.31 407.66 L 525.78 407.60 L 527.25 407.63 L 528.72 407.65 L 530.19 407.67 L 531.67 407.63 L 533.14 407.66 L 534.61 407.67 L 536.08 407.64 L 537.56 407.62 L 539.03 407.68 L 540.50 407.67 L 541.97 407.63 L 543.44 407.58 L 544.92 407.64 L 546.39 407.61 L 547.86 407.57 L 549.33 407.64 L 550.81 407.59 L 552.28 407.64 L 553.75 407.64 L 555.22 407.64 L 556.69 407.56 L 558.17 407.60 L 559.64 407.59 L 561.11 407.61 L 562.58 407.62 L 564.06 407.63 L 565.53 407.63 L 567.00 407.52 L 568.47 407.70 L 569.94 407.61 L 571.42 407.59 L 572.89 407.67 L 574.36 407.63 L 575.83 407.70 L 577.31 407.60 L 578.78 407.66 L 580.25 407.65 L 581.72 407.69 L 583.19 407.63 L 584.67 407.65 L 586.14 407.68 L 587.61 407.65 L 589.08 407.59 L 590.56 407.65 L 592.03 407.66 L 593.50 407.67 L 594.97 407.67 L 596.44 407.64 L 597.92 407.66 L 599.39 407.69 L 600.86 407.66 L 602.33 407.67 L 603.81 407.61 L 605.28 407.68 L 606.75 407.69 L 608.22 407.61 L 609.69 407.66 L 611.17 407.62 L 612.64 407.69 L 614.11 407.60 L 615.58 407.66 L 617.06 407.66 L 618.53 407.69 L 620.00 407.66 L 621.47 407.66 L 622.94 407.70 L 624.42 407.65 L 625.89 407.70 L 627.36 407.59 L 628.83 407.65 L 630.31 407.69 L 631.78 407.64 L 633.25 407.68 L 634.72 407.63 L 636.19 407.71 L 637.67 407.70 L 639.14 407.62 L 640.61 407.65 L 642.08 407.68 L 643.56 407.69 L 645.03 407.62 L 646.50 407.66 L 647.97 407.67 L 649.44 407.68 L 650.92 407.58 L 652.39 407.67 L 653.86 407.68 L 655.33 407.66 L 656.81 407.67 L 658.28 407.64 L 659.75 407.69 L 661.22 407.67 L 662.69 407.65 L 664.17 407.64 L 665.64 407.60 L 667.11 407.71 L 668.58 407.62 L 670.06 407.67 L 671.53 407.67 L 673.00 407.64 L 674.47 407.69 L 675.94 407.64 L 677.42 407.67 L 678.89 407.63 L 680.36 407.69 L 681.83 407.69 L 683.31 407.64 L 684.78 407.71 L 686.25 407.70 L 687.72 407.66 L 689.19 407.64 L 690.67 407.63 L 692.14 407.69 L 693.61 407.62 L 695.08 407.69 L 696.56 407.68 L 698.03 407.68 L 699.50 407.67 L 700.97 407.63 L 702.44 407.68 L 703.92 407.72 L 705.39 407.71 L 706.86 407.77 L 708.33 407.72 L 709.81 407.76 L 711.28 407.73 L 712.75 407.75 L 714.22 407.73 L 715.69 407.71 L 717.17 407.68 L 718.64 407.70 L 720.11 407.70 L 721.58 407.71 L 723.06 407.64 L 724.53 407.73 L 726.00 407.71 L 727.47 407.66 L 728.94 407.75 L 730.42 407.71 L 731.89 407.71 L 733.36 407.75 L 734.83 407.75 L 736.31 407.66 L 737.78 407.69 L 739.25 407.71 L 740.72 407.69 L 742.19 407.71 L 743.67 407.55 L 745.14 407.42 L 746.61 407.44 L 748.08 407.50 L 749.56 407.59 L 751.03 407.44 L 752.50 407.52 L 753.97 407.65 L 755.44 407.44 L 756.92 407.46 L 758.39 407.62 L 759.86 407.44 L 761.33 407.49 L 762.81 407.50 L 764.28 407.59 L 765.75 407.54 L 767.22 407.40 L 768.69 407.73 L 770.17 407.44 L 771.64 411.53 L 773.11 414.04 L 774.58 412.06 L 776.06 418.88 L 777.53 421.57 L 779.00 430.60 L 780.47 423.50 L 781.94 433.17 L 783.42 432.78 L 784.89 426.00 L 786.36 430.97 L 787.83 431.32 L 789.31 429.29 L 790.78 411.88 L 792.25 413.55 L 793.72 396.06 L 795.19 405.21 L 796.67 412.94 L 798.14 412.26 L 799.61 414.49 L 801.08 406.53 L 802.56 406.73 L 804.03 413.21 L 805.50 405.60 L 806.97 394.57 L 808.44 398.91 L 809.92 403.25 L 811.39 395.39 L 812.86 399.92 L 814.33 392.45 L 815.81 385.53 L 817.28 412.51 L 818.75 406.45 L 820.22 403.34 L 821.69 409.37 L 823.17 401.11 L 824.64 391.55 L 826.11 394.95 L 827.58 394.52 L 829.06 402.02 L 830.53 421.77 L 832.00 403.92 L 833.47 416.45 L 834.94 408.55 L 836.42 403.47 L 837.89 404.97 L 839.36 410.02 L 840.83 412.65 L 842.31 402.98 L 843.78 400.75 L 845.25 398.59 L 846.72 400.71 L 848.19 411.60 L 849.67 405.83 L 851.14 401.14 L 852.61 405.55 L 854.08 408.24 L 855.56 422.93 L 857.03 417.68 L 858.50 404.09 L 859.97 416.85 L 861.44 417.40 L 862.92 415.42 L 864.39 411.41 L 865.86 422.94 L 867.33 408.10 L 868.81 401.62 L 870.28 395.84 L 871.75 407.52 L 873.22 412.75 L 874.69 413.99 L 876.17 416.35 L 877.64 415.35 L 879.11 418.23 L 880.58 424.28 L 882.06 423.25 L 883.53 418.68 L 885.00 411.09 L 886.47 414.47 L 887.94 410.76 L 889.42 411.10 L 890.89 412.49 L 892.36 406.31 L 893.83 403.05 L 895.31 408.05 L 896.78 413.24 L 898.25 405.63 L 899.72 412.23 L 901.19 415.20 L 902.67 418.62 L 904.14 418.86 L 905.61 418.94 L 907.08 414.29 L 908.56 415.83 L 910.03 415.89 L 911.50 408.75 L 912.97 416.18 L 914.44 407.60 L 915.92 412.12 L 917.39 415.16 L 918.86 413.96 L 920.33 405.63 L 921.81 404.88 L 923.28 407.40 L 924.75 404.68 L 926.22 405.83 L 927.69 404.96 L 929.17 402.35 L 930.64 403.18 L 932.11 408.88 L 933.58 410.94 L 935.06 412.49 L 936.53 410.05 L 938.00 409.84 L 939.47 410.25 L 940.94 404.00 L 942.42 410.20 L 943.89 416.72 L 945.36 419.47 L 946.83 423.59 L 948.31 430.54 L 949.78 443.92 L 951.25 451.61 L 952.72 433.02 L 954.19 442.42 L 955.67 443.88 L 957.14 424.26 L 958.61 418.31 L 960.08 371.98 L 961.56 359.09 L 963.03 360.88 L 964.50 359.86 L 965.97 375.12 L 967.44 400.11 L 968.92 425.97 L 970.39 420.20 L 971.86 433.25 L 973.33 445.00 L 974.81 429.92 L 976.28 425.37 L 977.75 423.41 L 979.22 413.01 L 980.69 418.43 L 982.17 407.81 L 983.64 403.51 L 985.11 403.21 L 986.58 402.99 L 988.06 398.61 L 989.53 398.45 L 991.00 400.37 L 992.47 404.82 L 993.94 402.91 L 995.42 406.90 L 996.89 402.18 L 998.36 405.79 L 999.83 405.04 L 1001.31 404.45 L 1002.78 404.31 L 1004.25 400.84 L 1005.72 402.63 L 1007.19 406.64 L 1008.67 410.62 L 1010.14 409.42 L 1011.61 407.43 L 1013.08 405.03 L 1014.56 405.49 L 1016.03 404.18 L 1017.50 400.83 L 1018.97 407.20 L 1020.44 404.24 L 1021.92 405.34 L 1023.39 405.34 L 1024.86 408.75 L 1026.33 408.62 L 1027.81 401.71 L 1029.28 400.48 L 1030.75 397.58 L 1032.22 394.13 L 1033.69 386.63 L 1035.17 395.95 L 1036.64 388.15" stroke="#6A1B9A" />
<line x1="900.00" y1="307.75" x2="918.00" y2="307.75" stroke="#2E7D32" stroke-width="3" />
<text class="small" x="924.00" y="311.75">pitch</text>
<line x1="900.00" y1="323.75" x2="918.00" y2="323.75" stroke="#6A1B9A" stroke-width="3" />
<text class="small" x="924.00" y="327.75">roll</text>
<text x="90" y="500.50" font-size="14" font-weight="700">Aceleração (magnitude) (u.a.)</text>
<rect class="event" x="443.33" y="506.50" width="328.31" height="192.75" />
<line class="eventline" x1="443.33" y1="506.50" x2="443.33" y2="699.25" />
<line class="eventline" x1="771.64" y1="506.50" x2="771.64" y2="699.25" />
<line class="grid" x1="90" y1="699.25" x2="1150" y2="699.25" />
<text class="small" x="80" y="703.25" text-anchor="end">0.00</text>
<line class="grid" x1="90" y1="660.70" x2="1150" y2="660.70" />
<text class="small" x="80" y="664.70" text-anchor="end">1.00</text>
<line class="grid" x1="90" y1="622.15" x2="1150" y2="622.15" />
<text class="small" x="80" y="626.15" text-anchor="end">2.00</text>
<line class="grid" x1="90" y1="583.60" x2="1150" y2="583.60" />
<text class="small" x="80" y="587.60" text-anchor="end">3.00</text>
<line class="grid" x1="90" y1="545.05" x2="1150" y2="545.05" />
<text class="small" x="80" y="549.05" text-anchor="end">4.00</text>
<line class="grid" x1="90" y1="506.50" x2="1150" y2="506.50" />
<text class="small" x="80" y="510.50" text-anchor="end">5.00</text>
<line class="grid" x1="90.00" y1="506.50" x2="90.00" y2="699.25" />
<line class="grid" x1="266.67" y1="506.50" x2="266.67" y2="699.25" />
<line class="grid" x1="443.33" y1="506.50" x2="443.33" y2="699.25" />
<line class="grid" x1="620.00" y1="506.50" x2="620.00" y2="699.25" />
<line class="grid" x1="796.67" y1="506.50" x2="796.67" y2="699.25" />
<line class="grid" x1="973.33" y1="506.50" x2="973.33" y2="699.25" />
<line class="grid" x1="1150.00" y1="506.50" x2="1150.00" y2="699.25" />
<line class="axis" x1="90" y1="506.50" x2="90" y2="699.25" />
<line class="axis" x1="90" y1="699.25" x2="1150" y2="699.25" />
<path class="series" d="M 178.33 693.51 L 179.81 696.69 L 181.28 693.03 L 182.75 696.65 L 184.22 695.67 L 185.69 696.34 L 187.17 695.04 L 188.64 694.79 L 190.11 696.06 L 191.58 695.58 L 193.06 697.03 L 194.53 698.49 L 196.00 697.99 L 197.47 693.65 L 198.94 693.76 L 200.42 695.51 L 201.89 694.06 L 203.36 692.02 L 204.83 690.76 L 206.31 688.88 L 207.78 696.77 L 209.25 679.61 L 210.72 689.91 L 212.19 690.28 L 213.67 690.34 L 215.14 690.39 L 216.61 685.39 L 218.08 687.59 L 219.56 687.24 L 221.03 689.83 L 222.50 682.29 L 223.97 685.19 L 225.44 687.93 L 226.92 673.27 L 228.39 695.57 L 229.86 664.80 L 231.33 669.82 L 232.81 691.59 L 234.28 672.26 L 235.75 685.73 L 237.22 688.29 L 238.69 691.78 L 240.17 686.96 L 241.64 662.50 L 243.11 680.51 L 244.58 659.47 L 246.06 673.95 L 247.53 678.92 L 249.00 667.81 L 250.47 685.14 L 251.94 687.96 L 253.42 684.83 L 254.89 685.17 L 256.36 692.55 L 257.83 687.64 L 259.31 676.62 L 260.78 685.11 L 262.25 687.55 L 263.72 689.14 L 265.19 690.87 L 266.67 690.87 L 268.14 678.53 L 269.61 688.53 L 271.08 693.63 L 272.56 675.01 L 274.03 684.19 L 275.50 686.88 L 276.97 690.04 L 278.44 693.49 L 279.92 678.99 L 281.39 683.99 L 282.86 678.12 L 284.33 664.44 L 285.81 693.98 L 287.28 680.38 L 288.75 687.87 L 290.22 691.24 L 291.69 687.93 L 293.17 689.15 L 294.64 690.69 L 296.11 690.60 L 297.58 687.38 L 299.06 684.55 L 300.53 687.19 L 302.00 690.33 L 303.47 686.71 L 304.94 690.93 L 306.42 678.86 L 307.89 675.82 L 309.36 674.45 L 310.83 687.50 L 312.31 689.58 L 313.78 691.06 L 315.25 695.31 L 316.72 697.34 L 318.19 693.49 L 319.67 696.98 L 321.14 695.32 L 322.61 698.36 L 324.08 695.95 L 325.56 693.23 L 327.03 695.91 L 328.50 697.31 L 329.97 696.96 L 331.44 695.73 L 332.92 696.83 L 334.39 688.06 L 335.86 693.80 L 337.33 695.46 L 338.81 693.55 L 340.28 694.04 L 341.75 691.15 L 343.22 698.55 L 344.69 695.85 L 346.17 697.31 L 347.64 695.99 L 349.11 697.50 L 350.58 697.05 L 352.06 695.33 L 353.53 695.93 L 355.00 695.03 L 356.47 698.55 L 357.94 698.88 L 359.42 698.89 L 360.89 698.07 L 362.36 698.21 L 363.83 697.80 L 365.31 698.60 L 366.78 698.98 L 368.25 698.57 L 369.72 698.81 L 371.19 698.81 L 372.67 699.02 L 374.14 698.85 L 375.61 698.64 L 377.08 698.84 L 378.56 698.86 L 380.03 699.15 L 381.50 698.90 L 382.97 699.16 L 384.44 698.82 L 385.92 698.17 L 387.39 698.32 L 388.86 697.77 L 390.33 698.88 L 391.81 698.50 L 393.28 697.71 L 394.75 697.91 L 396.22 698.33 L 397.69 698.87 L 399.17 698.86 L 400.64 698.84 L 402.11 698.59 L 403.58 698.26 L 405.06 698.85 L 406.53 698.59 L 408.00 696.71 L 409.47 697.74 L 410.94 699.04 L 412.42 699.04 L 413.89 698.76 L 415.36 698.45 L 416.83 698.87 L 418.31 693.00 L 419.78 671.55 L 421.25 695.45 L 422.72 691.42 L 424.19 689.58 L 425.67 684.83 L 427.14 696.02 L 428.61 696.83 L 430.08 697.90 L 431.56 694.49 L 433.03 694.49 L 434.50 697.96 L 435.97 697.76 L 437.44 698.03 L 438.92 696.01 L 440.39 694.18 L 441.86 686.46 L 443.33 695.71 L 444.81 694.62 L 446.28 694.46 L 447.75 696.68 L 449.22 698.81 L 450.69 696.62 L 452.17 696.04 L 453.64 699.05 L 455.11 699.13 L 456.58 698.74 L 458.06 698.23 L 459.53 699.14 L 461.00 699.17 L 462.47 698.80 L 463.94 698.30 L 465.42 698.56 L 466.89 698.10 L 468.36 698.88 L 469.83 698.78 L 471.31 698.86 L 472.78 699.15 L 474.25 699.06 L 475.72 699.18 L 477.19 699.14 L 478.67 699.21 L 480.14 699.13 L 481.61 699.16 L 483.08 699.12 L 484.56 699.05 L 486.03 699.04 L 487.50 699.14 L 488.97 699.19 L 490.44 699.10 L 491.92 699.18 L 493.39 699.18 L 494.86 699.13 L 496.33 699.19 L 497.81 699.12 L 499.28 699.20 L 500.75 699.22 L 502.22 699.14 L 503.69 699.18 L 505.17 699.10 L 506.64 699.22 L 508.11 699.17 L 509.58 699.24 L 511.06 699.18 L 512.53 699.21 L 514.00 699.20 L 515.47 699.17 L 516.94 699.17 L 518.42 699.19 L 519.89 699.14 L 521.36 699.15 L 522.83 699.15 L 524.31 699.15 L 525.78 699.17 L 527.25 699.17 L 528.72 699.16 L 530.19 699.17 L 531.67 699.18 L 533.14 699.20 L 534.61 699.14 L 536.08 699.16 L 537.56 699.17 L 539.03 699.18 L 540.50 699.17 L 541.97 699.17 L 543.44 699.19 L 544.92 699.20 L 546.39 699.14 L 547.86 699.16 L 549.33 699.18 L 550.81 699.18 L 552.28 699.16 L 553.75 699.20 L 555.22 699.17 L 556.69 699.17 L 558.17 699.11 L 559.64 699.16 L 561.11 699.12 L 562.58 699.12 L 564.06 699.16 L 565.53 699.13 L 567.00 699.10 L 568.47 699.22 L 569.94 699.10 L 571.42 699.14 L 572.89 699.18 L 574.36 699.13 L 575.83 699.14 L 577.31 699.19 L 578.78 699.20 L 580.25 699.17 L 581.72 699.10 L 583.19 699.18 L 584.67 699.15 L 586.14 699.21 L 587.61 699.16 L 589.08 699.14 L 590.56 699.17 L 592.03 699.16 L 593.50 699.21 L 594.97 699.19 L 596.44 699.17 L 597.92 699.18 L 599.39 699.20 L 600.86 699.21 L 602.33 699.22 L 603.81 699.15 L 605.28 699.18 L 606.75 699.17 L 608.22 699.19 L 609.69 699.19 L 611.17 699.21 L 612.64 699.12 L 614.11 699.12 L 615.58 699.15 L 617.06 699.16 L 618.53 699.19 L 620.00 699.19 L 621.47 699.14 L 622.94 699.18 L 624.42 699.10 L 625.89 699.19 L 627.36 699.17 L 628.83 699.19 L 630.31 699.14 L 631.78 699.18 L 633.25 699.20 L 634.72 699.16 L 636.19 699.15 L 637.67 699.22 L 639.14 699.20 L 640.61 699.14 L 642.08 699.14 L 643.56 699.11 L 645.03 699.16 L 646.50 699.19 L 647.97 699.14 L 649.44 699.11 L 650.92 699.14 L 652.39 699.18 L 653.86 699.18 L 655.33 699.19 L 656.81 699.20 L 658.28 699.17 L 659.75 699.15 L 661.22 699.16 L 662.69 699.21 L 664.17 699.21 L 665.64 699.20 L 667.11 699.18 L 668.58 699.18 L 670.06 699.19 L 671.53 699.21 L 673.00 699.17 L 674.47 699.21 L 675.94 699.19 L 677.42 699.17 L 678.89 699.19 L 680.36 699.13 L 681.83 699.17 L 683.31 699.21 L 684.78 699.10 L 686.25 698.99 L 687.72 699.06 L 689.19 699.18 L 690.67 699.01 L 692.14 699.15 L 693.61 699.07 L 695.08 699.17 L 696.56 698.85 L 698.03 699.16 L 699.50 699.03 L 700.97 699.17 L 702.44 699.04 L 703.92 699.14 L 705.39 699.20 L 706.86 699.12 L 708.33 699.21 L 709.81 699.15 L 711.28 699.17 L 712.75 699.15 L 714.22 699.09 L 715.69 699.08 L 717.17 699.19 L 718.64 699.15 L 720.11 699.19 L 721.58 699.12 L 723.06 699.18 L 724.53 699.15 L 726.00 699.02 L 727.47 699.01 L 728.94 699.22 L 730.42 699.17 L 731.89 699.15 L 733.36 699.11 L 734.83 699.13 L 736.31 699.21 L 737.78 699.07 L 739.25 699.13 L 740.72 699.12 L 742.19 698.48 L 743.67 698.53 L 745.14 699.09 L 746.61 699.05 L 748.08 698.97 L 749.56 698.89 L 751.03 697.20 L 752.50 698.75 L 753.97 699.15 L 755.44 699.12 L 756.92 699.15 L 758.39 699.19 L 759.86 699.12 L 761.33 699.19 L 762.81 699.15 L 764.28 699.17 L 765.75 699.06 L 767.22 698.70 L 768.69 690.87 L 770.17 690.53 L 771.64 689.72 L 773.11 683.22 L 774.58 685.99 L 776.06 689.22 L 777.53 679.71 L 779.00 676.50 L 780.47 682.59 L 781.94 663.80 L 783.42 663.80 L 784.89 677.51 L 786.36 683.62 L 787.83 673.59 L 789.31 678.37 L 790.78 666.53 L 792.25 674.86 L 793.72 671.41 L 795.19 661.01 L 796.67 684.15 L 798.14 679.61 L 799.61 684.71 L 801.08 681.74 L 802.56 692.62 L 804.03 676.81 L 805.50 687.05 L 806.97 677.19 L 808.44 681.62 L 809.92 675.52 L 811.39 682.13 L 812.86 686.56 L 814.33 676.32 L 815.81 677.99 L 817.28 683.53 L 818.75 683.05 L 820.22 683.36 L 821.69 687.89 L 823.17 676.04 L 824.64 668.10 L 826.11 672.25 L 827.58 682.82 L 829.06 682.32 L 830.53 675.37 L 832.00 687.84 L 833.47 678.20 L 834.94 680.32 L 836.42 686.67 L 837.89 689.02 L 839.36 684.28 L 840.83 677.92 L 842.31 690.45 L 843.78 692.30 L 845.25 695.58 L 846.72 694.97 L 848.19 689.77 L 849.67 686.73 L 851.14 690.38 L 852.61 693.24 L 854.08 692.35 L 855.56 674.08 L 857.03 686.57 L 858.50 686.65 L 859.97 687.04 L 861.44 688.22 L 862.92 692.75 L 864.39 687.59 L 865.86 689.65 L 867.33 684.55 L 868.81 689.49 L 870.28 684.46 L 871.75 695.04 L 873.22 688.05 L 874.69 690.40 L 876.17 684.99 L 877.64 695.25 L 879.11 683.24 L 880.58 688.62 L 882.06 689.90 L 883.53 691.48 L 885.00 695.62 L 886.47 690.57 L 887.94 680.05 L 889.42 692.21 L 890.89 695.71 L 892.36 685.50 L 893.83 696.12 L 895.31 689.66 L 896.78 689.60 L 898.25 691.96 L 899.72 685.38 L 901.19 696.15 L 902.67 689.38 L 904.14 694.07 L 905.61 692.50 L 907.08 691.44 L 908.56 694.05 L 910.03 691.86 L 911.50 696.43 L 912.97 689.82 L 914.44 694.89 L 915.92 696.42 L 917.39 692.75 L 918.86 682.80 L 920.33 688.47 L 921.81 689.35 L 923.28 691.24 L 924.75 691.96 L 926.22 691.81 L 927.69 692.65 L 929.17 694.68 L 930.64 691.21 L 932.11 687.74 L 933.58 692.56 L 935.06 692.82 L 936.53 691.03 L 938.00 690.30 L 939.47 691.59 L 940.94 693.99 L 942.42 695.38 L 943.89 689.10 L 945.36 689.12 L 946.83 689.12 L 948.31 665.97 L 949.78 680.11 L 951.25 657.74 L 952.72 664.74 L 954.19 668.77 L 955.67 677.12 L 957.14 685.32 L 958.61 663.39 L 960.08 659.90 L 961.56 606.42 L 963.03 632.37 L 964.50 620.09 L 965.97 652.03 L 967.44 684.46 L 968.92 655.36 L 970.39 650.21 L 971.86 654.33 L 973.33 654.47 L 974.81 667.79 L 976.28 679.82 L 977.75 690.31 L 979.22 686.59 L 980.69 684.96 L 982.17 684.30 L 983.64 683.53 L 985.11 688.73 L 986.58 687.93 L 988.06 682.28 L 989.53 684.49 L 991.00 693.34 L 992.47 690.24 L 993.94 692.15 L 995.42 693.49 L 996.89 692.66 L 998.36 690.48 L 999.83 697.87 L 1001.31 697.53 L 1002.78 694.45 L 1004.25 694.29 L 1005.72 696.37 L 1007.19 691.38 L 1008.67 694.34 L 1010.14 697.53 L 1011.61 689.63 L 1013.08 693.90 L 1014.56 692.43 L 1016.03 690.27 L 1017.50 688.09 L 1018.97 697.18 L 1020.44 695.19 L 1021.92 691.59 L 1023.39 694.70 L 1024.86 688.19 L 1026.33 690.05 L 1027.81 689.46 L 1029.28 685.96 L 1030.75 686.53 L 1032.22 679.18 L 1033.69 682.04 L 1035.17 682.50 L 1036.64 686.56" stroke="#FB8C00" />
<text x="90" y="711.25" font-size="14" font-weight="700">Giroscópio (magnitude) (u.a.)</text>
<rect class="event" x="443.33" y="717.25" width="328.31" height="192.75" />
<line class="eventline" x1="443.33" y1="717.25" x2="443.33" y2="910.00" />
<line class="eventline" x1="771.64" y1="717.25" x2="771.64" y2="910.00" />
<line class="grid" x1="90" y1="910.00" x2="1150" y2="910.00" />
<text class="small" x="80" y="914.00" text-anchor="end">0.00</text>
<line class="grid" x1="90" y1="871.45" x2="1150" y2="871.45" />
<text class="small" x="80" y="875.45" text-anchor="end">0.10</text>
<line class="grid" x1="90" y1="832.90" x2="1150" y2="832.90" />
<text class="small" x="80" y="836.90" text-anchor="end">0.20</text>
<line class="grid" x1="90" y1="794.35" x2="1150" y2="794.35" />
<text class="small" x="80" y="798.35" text-anchor="end">0.30</text>
<line class="grid" x1="90" y1="755.80" x2="1150" y2="755.80" />
<text class="small" x="80" y="759.80" text-anchor="end">0.40</text>
<line class="grid" x1="90" y1="717.25" x2="1150" y2="717.25" />
<text class="small" x="80" y="721.25" text-anchor="end">0.50</text>
<line class="grid" x1="90.00" y1="717.25" x2="90.00" y2="910.00" />
<line class="grid" x1="266.67" y1="717.25" x2="266.67" y2="910.00" />
<line class="grid" x1="443.33" y1="717.25" x2="443.33" y2="910.00" />
<line class="grid" x1="620.00" y1="717.25" x2="620.00" y2="910.00" />
<line class="grid" x1="796.67" y1="717.25" x2="796.67" y2="910.00" />
<line class="grid" x1="973.33" y1="717.25" x2="973.33" y2="910.00" />
<line class="grid" x1="1150.00" y1="717.25" x2="1150.00" y2="910.00" />
<line class="axis" x1="90" y1="717.25" x2="90" y2="910.00" />
<line class="axis" x1="90" y1="910.00" x2="1150" y2="910.00" />
<path class="series" d="M 178.33 905.77 L 179.81 905.89 L 181.28 905.09 L 182.75 900.89 L 184.22 899.76 L 185.69 898.57 L 187.17 899.16 L 188.64 899.41 L 190.11 898.65 L 191.58 899.67 L 193.06 900.13 L 194.53 899.83 L 196.00 903.24 L 197.47 902.93 L 198.94 904.81 L 200.42 907.84 L 201.89 904.38 L 203.36 902.20 L 204.83 904.01 L 206.31 902.07 L 207.78 899.83 L 209.25 905.22 L 210.72 902.76 L 212.19 898.34 L 213.67 897.46 L 215.14 902.38 L 216.61 902.08 L 218.08 902.82 L 219.56 902.08 L 221.03 900.84 L 222.50 904.19 L 223.97 901.78 L 225.44 899.48 L 226.92 896.43 L 228.39 900.53 L 229.86 895.80 L 231.33 895.78 L 232.81 896.92 L 234.28 889.79 L 235.75 875.64 L 237.22 878.31 L 238.69 876.94 L 240.17 879.49 L 241.64 866.20 L 243.11 847.54 L 244.58 865.55 L 246.06 870.56 L 247.53 876.72 L 249.00 872.46 L 250.47 871.39 L 251.94 871.38 L 253.42 873.39 L 254.89 877.17 L 256.36 867.99 L 257.83 879.08 L 259.31 883.23 L 260.78 886.20 L 262.25 893.32 L 263.72 899.65 L 265.19 893.73 L 266.67 893.73 L 268.14 899.99 L 269.61 905.02 L 271.08 903.64 L 272.56 903.56 L 274.03 897.13 L 275.50 897.78 L 276.97 893.70 L 278.44 894.96 L 279.92 893.12 L 281.39 886.88 L 282.86 885.61 L 284.33 894.62 L 285.81 894.10 L 287.28 899.88 L 288.75 898.43 L 290.22 898.08 L 291.69 906.90 L 293.17 905.54 L 294.64 895.25 L 296.11 891.87 L 297.58 884.67 L 299.06 875.96 L 300.53 871.35 L 302.00 862.19 L 303.47 844.47 L 304.94 843.79 L 306.42 840.60 L 307.89 866.75 L 309.36 882.84 L 310.83 899.62 L 312.31 903.06 L 313.78 907.56 L 315.25 908.05 L 316.72 908.84 L 318.19 907.81 L 319.67 908.90 L 321.14 907.31 L 322.61 904.43 L 324.08 905.87 L 325.56 908.65 L 327.03 907.48 L 328.50 907.14 L 329.97 908.04 L 331.44 902.22 L 332.92 899.74 L 334.39 894.52 L 335.86 892.58 L 337.33 892.33 L 338.81 883.98 L 340.28 881.26 L 341.75 884.43 L 343.22 883.94 L 344.69 883.37 L 346.17 886.42 L 347.64 890.05 L 349.11 890.52 L 350.58 893.36 L 352.06 899.14 L 353.53 906.71 L 355.00 908.68 L 356.47 908.87 L 357.94 908.90 L 359.42 908.93 L 360.89 907.47 L 362.36 908.81 L 363.83 908.56 L 365.31 908.87 L 366.78 908.88 L 368.25 909.00 L 369.72 908.99 L 371.19 908.98 L 372.67 908.89 L 374.14 908.99 L 375.61 908.98 L 377.08 909.94 L 378.56 909.90 L 380.03 909.87 L 381.50 909.94 L 382.97 909.86 L 384.44 909.89 L 385.92 909.58 L 387.39 909.86 L 388.86 909.96 L 390.33 909.90 L 391.81 909.89 L 393.28 909.85 L 394.75 909.74 L 396.22 909.93 L 397.69 909.76 L 399.17 909.78 L 400.64 909.87 L 402.11 909.84 L 403.58 909.88 L 405.06 909.81 L 406.53 909.48 L 408.00 908.90 L 409.47 909.44 L 410.94 909.90 L 412.42 909.50 L 413.89 909.51 L 415.36 908.84 L 416.83 909.77 L 418.31 908.97 L 419.78 894.56 L 421.25 897.60 L 422.72 898.00 L 424.19 899.37 L 425.67 900.58 L 427.14 907.45 L 428.61 908.98 L 430.08 909.84 L 431.56 909.74 L 433.03 909.74 L 434.50 909.64 L 435.97 909.82 L 437.44 909.52 L 438.92 909.72 L 440.39 909.51 L 441.86 907.44 L 443.33 908.43 L 444.81 909.59 L 446.28 908.00 L 447.75 909.85 L 449.22 909.69 L 450.69 909.27 L 452.17 909.66 L 453.64 909.85 L 455.11 909.76 L 456.58 909.56 L 458.06 909.87 L 459.53 909.71 L 461.00 909.81 L 462.47 909.52 L 463.94 909.71 L 465.42 909.67 L 466.89 909.85 L 468.36 909.78 L 469.83 909.83 L 471.31 909.85 L 472.78 909.86 L 474.25 909.85 L 475.72 909.81 L 477.19 909.77 L 478.67 909.83 L 480.14 909.81 L 481.61 909.80 L 483.08 909.77 L 484.56 909.89 L 486.03 909.80 L 487.50 909.82 L 488.97 909.82 L 490.44 909.80 L 491.92 909.83 L 493.39 909.84 L 494.86 909.79 L 496.33 909.82 L 497.81 909.97 L 499.28 909.96 L 500.75 909.93 L 502.22 909.95 L 503.69 909.95 L 505.17 909.94 L 506.64 909.98 L 508.11 909.94 L 509.58 909.96 L 511.06 909.96 L 512.53 909.92 L 514.00 909.95 L 515.47 909.90 L 516.94 909.93 L 518.42 909.92 L 519.89 909.93 L 521.36 909.94 L 522.83 909.93 L 524.31 909.96 L 525.78 909.94 L 527.25 909.95 L 528.72 909.95 L 530.19 909.90 L 531.67 909.95 L 533.14 909.94 L 534.61 909.97 L 536.08 909.94 L 537.56 909.95 L 539.03 909.96 L 540.50 909.97 L 541.97 909.89 L 543.44 909.94 L 544.92 909.96 L 546.39 909.93 L 547.86 909.97 L 549.33 909.92 L 550.81 909.95 L 552.28 909.92 L 553.75 909.94 L 555.22 909.94 L 556.69 909.94 L 558.17 909.95 L 559.64 909.94 L 561.11 909.93 L 562.58 909.91 L 564.06 909.95 L 565.53 909.88 L 567.00 909.93 L 568.47 909.97 L 569.94 909.91 L 571.42 909.95 L 572.89 909.96 L 574.36 909.93 L 575.83 909.93 L 577.31 909.91 L 578.78 909.94 L 580.25 909.94 L 581.72 909.92 L 583.19 909.92 L 584.67 909.93 L 586.14 909.90 L 587.61 909.94 L 589.08 909.97 L 590.56 909.95 L 592.03 909.98 L 593.50 909.94 L 594.97 909.96 L 596.44 909.94 L 597.92 909.96 L 599.39 909.94 L 600.86 909.93 L 602.33 909.94 L 603.81 909.85 L 605.28 909.94 L 606.75 909.95 L 608.22 909.88 L 609.69 909.88 L 611.17 909.97 L 612.64 909.87 L 614.11 909.93 L 615.58 909.97 L 617.06 909.95 L 618.53 909.95 L 620.00 909.94 L 621.47 909.95 L 622.94 909.92 L 624.42 909.99 L 625.89 909.96 L 627.36 909.92 L 628.83 909.93 L 630.31 909.94 L 631.78 909.88 L 633.25 909.87 L 634.72 909.91 L 636.19 909.94 L 637.67 909.93 L 639.14 909.95 L 640.61 909.93 L 642.08 909.97 L 643.56 909.96 L 645.03 909.94 L 646.50 909.95 L 647.97 909.94 L 649.44 909.97 L 650.92 909.94 L 652.39 909.92 L 653.86 909.93 L 655.33 909.95 L 656.81 909.94 L 658.28 909.96 L 659.75 909.98 L 661.22 909.98 L 662.69 909.94 L 664.17 909.90 L 665.64 909.93 L 667.11 909.94 L 668.58 909.95 L 670.06 909.92 L 671.53 909.92 L 673.00 909.96 L 674.47 909.94 L 675.94 909.94 L 677.42 909.95 L 678.89 909.91 L 680.36 909.97 L 681.83 909.94 L 683.31 909.96 L 684.78 909.86 L 686.25 909.79 L 687.72 909.87 L 689.19 909.91 L 690.67 909.81 L 692.14 909.94 L 693.61 909.93 L 695.08 909.88 L 696.56 909.94 L 698.03 909.86 L 699.50 909.87 L 700.97 909.89 L 702.44 909.92 L 703.92 909.97 L 705.39 909.88 L 706.86 909.82 L 708.33 909.92 L 709.81 909.79 L 711.28 909.95 L 712.75 909.97 L 714.22 909.99 L 715.69 909.88 L 717.17 909.90 L 718.64 909.87 L 720.11 909.98 L 721.58 909.89 L 723.06 909.89 L 724.53 909.88 L 726.00 909.88 L 727.47 909.91 L 728.94 909.95 L 730.42 909.94 L 731.89 909.96 L 733.36 909.93 L 734.83 909.93 L 736.31 909.94 L 737.78 909.96 L 739.25 909.91 L 740.72 909.91 L 742.19 909.44 L 743.67 909.68 L 745.14 909.93 L 746.61 909.93 L 748.08 909.89 L 749.56 909.82 L 751.03 909.89 L 752.50 909.99 L 753.97 909.90 L 755.44 909.94 L 756.92 909.94 L 758.39 909.89 L 759.86 909.94 L 761.33 909.93 L 762.81 909.93 L 764.28 909.96 L 765.75 909.95 L 767.22 909.88 L 768.69 907.45 L 770.17 907.04 L 771.64 897.61 L 773.11 885.93 L 774.58 867.17 L 776.06 848.00 L 777.53 831.83 L 779.00 827.95 L 780.47 821.74 L 781.94 813.11 L 783.42 813.11 L 784.89 820.28 L 786.36 831.30 L 787.83 841.73 L 789.31 853.03 L 790.78 867.99 L 792.25 899.49 L 793.72 896.18 L 795.19 891.96 L 796.67 896.84 L 798.14 898.05 L 799.61 894.23 L 801.08 897.84 L 802.56 900.35 L 804.03 896.39 L 805.50 894.82 L 806.97 880.98 L 808.44 873.01 L 809.92 867.51 L 811.39 864.26 L 812.86 864.53 L 814.33 845.60 L 815.81 842.02 L 817.28 854.34 L 818.75 881.08 L 820.22 898.48 L 821.69 899.51 L 823.17 884.15 L 824.64 869.16 L 826.11 860.16 L 827.58 862.24 L 829.06 881.20 L 830.53 889.51 L 832.00 889.18 L 833.47 890.36 L 834.94 896.68 L 836.42 885.91 L 837.89 893.45 L 839.36 892.25 L 840.83 890.90 L 842.31 885.18 L 843.78 899.96 L 845.25 894.89 L 846.72 889.63 L 848.19 895.30 L 849.67 898.62 L 851.14 890.29 L 852.61 890.92 L 854.08 893.64 L 855.56 904.06 L 857.03 894.91 L 858.50 899.22 L 859.97 898.04 L 861.44 893.64 L 862.92 900.74 L 864.39 899.48 L 865.86 897.69 L 867.33 896.91 L 868.81 894.91 L 870.28 887.89 L 871.75 898.05 L 873.22 903.78 L 874.69 901.23 L 876.17 900.25 L 877.64 898.44 L 879.11 899.34 L 880.58 890.91 L 882.06 892.61 L 883.53 902.44 L 885.00 903.25 L 886.47 906.68 L 887.94 894.44 L 889.42 901.08 L 890.89 907.29 L 892.36 899.13 L 893.83 897.84 L 895.31 903.24 L 896.78 906.72 L 898.25 903.87 L 899.72 903.58 L 901.19 903.07 L 902.67 897.82 L 904.14 905.56 L 905.61 905.50 L 907.08 902.11 L 908.56 903.52 L 910.03 903.61 L 911.50 900.58 L 912.97 900.29 L 914.44 899.32 L 915.92 896.47 L 917.39 897.30 L 918.86 902.67 L 920.33 900.51 L 921.81 898.92 L 923.28 898.94 L 924.75 897.28 L 926.22 898.71 L 927.69 896.88 L 929.17 897.29 L 930.64 899.50 L 932.11 907.41 L 933.58 900.14 L 935.06 900.74 L 936.53 898.70 L 938.00 903.66 L 939.47 905.51 L 940.94 904.90 L 942.42 907.68 L 943.89 899.72 L 945.36 892.30 L 946.83 892.30 L 948.31 876.33 L 949.78 861.70 L 951.25 846.87 L 952.72 843.34 L 954.19 833.87 L 955.67 821.46 L 957.14 822.38 L 958.61 855.47 L 960.08 880.34 L 961.56 875.40 L 963.03 824.28 L 964.50 791.01 L 965.97 795.00 L 967.44 825.03 L 968.92 879.42 L 970.39 886.31 L 971.86 862.29 L 973.33 848.96 L 974.81 850.19 L 976.28 872.91 L 977.75 888.05 L 979.22 888.54 L 980.69 896.87 L 982.17 900.25 L 983.64 898.37 L 985.11 904.36 L 986.58 905.05 L 988.06 897.14 L 989.53 905.13 L 991.00 908.16 L 992.47 904.03 L 993.94 904.22 L 995.42 904.96 L 996.89 903.85 L 998.36 902.20 L 999.83 905.25 L 1001.31 906.56 L 1002.78 907.93 L 1004.25 906.76 L 1005.72 908.07 L 1007.19 904.67 L 1008.67 903.67 L 1010.14 907.68 L 1011.61 905.78 L 1013.08 904.73 L 1014.56 907.43 L 1016.03 907.50 L 1017.50 904.71 L 1018.97 905.05 L 1020.44 906.85 L 1021.92 905.32 L 1023.39 902.60 L 1024.86 907.04 L 1026.33 906.78 L 1027.81 903.18 L 1029.28 894.76 L 1030.75 893.84 L 1032.22 885.22 L 1033.69 883.19 L 1035.17 879.25 L 1036.64 873.92" stroke="#E53935" />
<text x="620.00" y="952" font-size="15" text-anchor="middle">minutos (relativo ao início do evento)</text>
<text class="small" x="90.00" y="936" text-anchor="middle">-4.00</text>
<text class="small" x="266.67" y="936" text-anchor="middle">-2.00</text>
<text class="small" x="443.33" y="936" text-anchor="middle">0.00</text>
<text class="small" x="620.00" y="936" text-anchor="middle">2.00</text>
<text class="small" x="796.67" y="936" text-anchor="middle">4.00</text>
<text class="small" x="973.33" y="936" text-anchor="middle">6.00</text>
<text class="small" x="1150.00" y="936" text-anchor="middle">8.00</text>
</svg>