<?xml version="1.0" encoding="UTF-8"?>
<svg xmlns="http://www.w3.org/2000/svg" width="1180" height="980" viewBox="0 0 1180 980">
<style>
text { font-family: -apple-system, BlinkMacSystemFont, 'Segoe UI', Roboto, Helvetica, Arial, sans-serif; fill: #111; }
.small { font-size: 12px; fill: #222; }
.title { font-size: 18px; font-weight: 700; }
.axis { stroke: #111; stroke-width: 1.4; }
.grid { stroke: #E6E6E6; stroke-width: 1; }
.event { fill: #FFEB3B; fill-opacity: 0.18; }
.eventline { stroke: #F9A825; stroke-width: 1.2; stroke-dasharray: 4 3; }
.series { fill: none; stroke-width: 1.8; }
</style>
<text class="title" x="90" y="34">ciclo 19 — espera_carregamento — 2025-12-13T05:09:24-03:00 → 2025-12-13T05:13:28-03:00 (span 244s, dur 245s)</text>
<text class="small" x="90" y="54">GPS: -11.699081,-47.157536  hotspot: -11.699,-47.158</text>
<text class="small" x="90" y="70">Janela: -3.00 → 7.07 min (relativo ao início do evento)</text>
<text x="90" y="79.00" font-size="14" font-weight="700">Velocidade (km/h)</text>
<rect class="event" x="443.33" y="85.00" width="359.22" height="192.75" />
<line class="eventline" x1="443.33" y1="85.00" x2="443.33" y2="277.75" />
<line class="eventline" x1="802.56" y1="85.00" x2="802.56" y2="277.75" />
<line class="grid" x1="90" y1="277.75" x2="1150" y2="277.75" />
<text class="small" x="80" y="281.75" text-anchor="end">0.00</text>
<line class="grid" x1="90" y1="239.20" x2="1150" y2="239.20" />
<text class="small" x="80" y="243.20" text-anchor="end">10.0</text>
<line class="grid" x1="90" y1="200.65" x2="1150" y2="200.65" />
<text class="small" x="80" y="204.65" text-anchor="end">20.0</text>
<line class="grid" x1="90" y1="162.10" x2="1150" y2="162.10" />
<text class="small" x="80" y="166.10" text-anchor="end">30.0</text>
<line class="grid" x1="90" y1="123.55" x2="1150" y2="123.55" />
<text class="small" x="80" y="127.55" text-anchor="end">40.0</text>
<line class="grid" x1="90" y1="85.00" x2="1150" y2="85.00" />
<text class="small" x="80" y="89.00" text-anchor="end">50.0</text>
<line class="grid" x1="90.00" y1="85.00" x2="90.00" y2="277.75" />
<line class="grid" x1="266.67" y1="85.00" x2="266.67" y2="277.75" />
<line class="grid" x1="443.33" y1="85.00" x2="443.33" y2="277.75" />
<line class="grid" x1="620.00" y1="85.00" x2="620.00" y2="277.75" />
<line class="grid" x1="796.67" y1="85.00" x2="796.67" y2="277.75" />
<line class="grid" x1="973.33" y1="85.00" x2="973.33" y2="277.75" />
<line class="grid" x1="1150.00" y1="85.00" x2="1150.00" y2="277.75" />
<line class="axis" x1="90" y1="85.00" x2="90" y2="277.75" />
<line class="axis" x1="90" y1="277.75" x2="1150" y2="277.75" />
<path class="series" d="M 178.33 176.30 L 179.81 177.41 L 181.28 178.11 L 182.75 178.80 L 184.22 178.11 L 185.69 178.24 L 187.17 177.69 L 188.64 176.02 L 190.11 173.66 L 191.58 172.97 L 193.06 171.03 L 194.53 169.22 L 196.00 167.00 L 197.47 167.14 L 198.94 167.28 L 200.42 165.06 L 201.89 164.78 L 203.36 164.37 L 204.83 166.03 L 206.31 171.58 L 207.78 175.47 L 209.25 184.77 L 210.72 189.21 L 212.19 184.63 L 213.67 184.77 L 215.14 184.63 L 216.61 182.13 L 218.08 182.27 L 219.56 181.58 L 221.03 176.16 L 222.50 170.33 L 223.97 168.11 L 225.44 169.22 L 226.92 163.67 L 228.39 156.32 L 229.86 151.88 L 231.33 149.52 L 232.81 152.02 L 234.28 151.60 L 235.75 152.02 L 237.22 155.21 L 238.69 153.96 L 240.17 155.07 L 241.64 155.62 L 243.11 154.93 L 244.58 158.54 L 246.06 157.84 L 247.53 156.87 L 249.00 151.88 L 250.47 152.29 L 251.94 149.10 L 253.42 148.27 L 254.89 146.46 L 256.36 145.49 L 257.83 145.35 L 259.31 146.05 L 260.78 148.96 L 262.25 149.10 L 263.72 150.35 L 265.19 151.18 L 266.67 150.35 L 268.14 147.99 L 269.61 148.96 L 271.08 144.80 L 272.56 153.96 L 274.03 152.15 L 275.50 151.18 L 276.97 152.02 L 278.44 148.96 L 279.92 148.82 L 281.39 147.02 L 282.86 154.65 L 284.33 153.54 L 285.81 143.55 L 287.28 147.30 L 288.75 151.60 L 290.22 151.18 L 291.69 153.54 L 293.17 152.71 L 294.64 153.26 L 296.11 154.37 L 297.58 152.71 L 299.06 150.63 L 300.53 152.99 L 302.00 154.79 L 303.47 151.60 L 304.94 157.01 L 306.42 154.51 L 307.89 157.43 L 309.36 154.93 L 310.83 156.73 L 312.31 157.57 L 313.78 162.70 L 315.25 165.62 L 316.72 166.59 L 318.19 167.42 L 319.67 167.00 L 321.14 162.70 L 322.61 158.54 L 324.08 149.93 L 325.56 144.24 L 327.03 142.02 L 328.50 144.24 L 329.97 151.32 L 331.44 160.20 L 332.92 172.83 L 334.39 183.80 L 335.86 206.83 L 337.33 218.91 L 338.81 215.58 L 340.28 215.99 L 341.75 212.80 L 343.22 211.83 L 344.69 209.47 L 346.17 207.80 L 347.64 202.39 L 349.11 192.26 L 350.58 185.60 L 352.06 180.33 L 353.53 176.44 L 355.00 178.80 L 356.47 174.91 L 357.94 178.11 L 359.42 178.38 L 360.89 183.66 L 362.36 182.13 L 363.83 181.99 L 365.31 180.74 L 366.78 171.72 L 368.25 164.37 L 369.72 172.83 L 371.19 177.97 L 372.67 179.63 L 374.14 181.85 L 375.61 184.91 L 377.08 189.21 L 378.56 186.71 L 380.03 185.88 L 381.50 183.93 L 382.97 182.55 L 384.44 179.49 L 385.92 180.05 L 387.39 184.07 L 388.86 188.79 L 390.33 187.40 L 391.81 186.02 L 393.28 189.90 L 394.75 194.90 L 396.22 198.65 L 397.69 193.65 L 399.17 188.51 L 400.64 187.40 L 402.11 189.76 L 403.58 188.65 L 405.06 190.18 L 406.53 194.62 L 408.00 194.62 L 409.47 199.20 L 410.94 199.89 L 412.42 206.42 L 413.89 203.36 L 415.36 201.28 L 416.83 202.39 L 418.31 203.50 L 419.78 204.47 L 421.25 202.95 L 422.72 202.67 L 424.19 204.61 L 425.67 201.70 L 427.14 205.17 L 428.61 204.89 L 430.08 208.92 L 431.56 214.88 L 433.03 217.38 L 434.50 226.54 L 435.97 236.25 L 437.44 244.58 L 438.92 251.80 L 440.39 250.69 L 441.86 259.43 L 443.33 277.75 L 444.81 277.75 L 446.28 277.75 L 447.75 277.75 L 449.22 277.75 L 450.69 277.75 L 452.17 277.75 L 453.64 277.75 L 455.11 277.75 L 456.58 277.75 L 458.06 277.75 L 459.53 277.75 L 461.00 277.75 L 462.47 277.75 L 463.94 277.75 L 465.42 277.75 L 466.89 277.75 L 468.36 277.75 L 469.83 277.75 L 471.31 277.75 L 472.78 277.75 L 474.25 277.75 L 475.72 277.75 L 477.19 277.75 L 478.67 277.75 L 480.14 277.75 L 481.61 277.75 L 483.08 277.75 L 484.56 277.75 L 486.03 277.75 L 487.50 277.75 L 488.97 277.75 L 490.44 277.75 L 491.92 277.75 L 493.39 277.75 L 494.86 277.75 L 496.33 277.75 L 497.81 277.75 L 499.28 277.75 L 500.75 277.75 L 502.22 277.75 L 503.69 277.75 L 505.17 277.75 L 506.64 277.75 L 508.11 277.75 L 509.58 277.75 L 511.06 277.75 L 512.53 277.75 L 514.00 277.75 L 515.47 277.75 L 516.94 277.75 L 518.42 277.75 L 519.89 277.75 L 521.36 277.75 L 522.83 277.75 L 524.31 277.75 L 525.78 277.75 L 527.25 277.75 L 528.72 277.75 L 530.19 277.75 L 531.67 277.75 L 533.14 277.75 L 534.61 277.75 L 536.08 277.75 L 537.56 277.75 L 539.03 277.75 L 540.50 277.75 L 541.97 277.75 L 543.44 277.75 L 544.92 277.75 L 546.39 277.75 L 547.86 277.75 L 549.33 277.75 L 550.81 277.75 L 552.28 277.75 L 553.75 277.75 L 555.22 277.75 L 556.69 277.75 L 558.17 277.75 L 559.64 277.75 L 561.11 277.75 L 562.58 277.75 L 564.06 277.75 L 565.53 277.75 L 567.00 277.75 L 568.47 277.75 L 569.94 277.75 L 571.42 277.75 L 572.89 277.75 L 574.36 277.75 L 575.83 277.75 L 577.31 277.75 L 578.78 277.75 L 580.25 277.75 L 581.72 277.75 L 583.19 277.75 L 584.67 277.75 L 586.14 277.75 L 587.61 277.75 L 589.08 277.75 L 590.56 277.75 L 592.03 277.75 L 593.50 277.75 L 594.97 277.75 L 596.44 277.75 L 597.92 277.75 L 599.39 277.75 L 600.86 277.75 L 602.33 277.75 L 603.81 277.75 L 605.28 277.75 L 606.75 277.75 L 608.22 277.75 L 609.69 277.75 L 611.17 277.75 L 612.64 277.75 L 614.11 277.75 L 615.58 277.75 L 617.06 277.75 L 618.53 277.75 L 620.00 277.75 L 621.47 277.75 L 622.94 277.75 L 624.42 277.75 L 625.89 277.75 L 627.36 277.75 L 628.83 277.75 L 630.31 277.75 L 631.78 277.75 L 633.25 277.75 L 634.72 277.75 L 636.19 277.75 L 637.67 277.75 L 639.14 277.75 L 640.61 277.75 L 642.08 277.75 L 643.56 277.75 L 645.03 277.75 L 646.50 277.75 L 647.97 277.75 L 649.44 277.75 L 650.92 277.75 L 652.39 277.75 L 653.86 277.75 L 655.33 277.75 L 656.81 277.75 L 658.28 277.75 L 659.75 277.75 L 661.22 277.75 L 662.69 277.75 L 664.17 277.75 L 665.64 277.75 L 667.11 277.75 L 668.58 277.75 L 670.06 277.75 L 671.53 277.75 L 673.00 277.75 L 674.47 277.75 L 675.94 277.75 L 677.42 277.75 L 678.89 277.75 L 680.36 277.75 L 681.83 277.75 L 683.31 277.75 L 684.78 277.75 L 686.25 277.75 L 687.72 277.75 L 689.19 277.75 L 690.67 277.75 L 692.14 277.75 L 693.61 277.75 L 695.08 277.75 L 696.56 277.75 L 698.03 277.75 L 699.50 277.75 L 700.97 277.75 L 702.44 277.75 L 703.92 277.75 L 705.39 277.75 L 706.86 277.75 L 708.33 277.75 L 709.81 277.75 L 711.28 277.75 L 712.75 277.75 L 714.22 277.75 L 715.69 277.75 L 717.17 277.75 L 718.64 277.75 L 720.11 277.75 L 721.58 277.75 L 723.06 277.75 L 724.53 277.75 L 726.00 277.75 L 727.47 277.75 L 728.94 277.75 L 730.42 277.75 L 731.89 277.75 L 733.36 277.75 L 734.83 277.75 L 736.31 277.75 L 737.78 277.75 L 739.25 277.75 L 740.72 277.75 L 742.19 277.75 L 743.67 277.75 L 745.14 277.75 L 746.61 277.75 L 748.08 277.75 L 749.56 277.75 L 751.03 277.75 L 752.50 277.75 L 753.97 277.75 L 755.44 277.75 L 756.92 277.75 L 758.39 277.75 L 759.86 277.75 L 761.33 277.75 L 762.81 277.75 L 764.28 277.75 L 765.75 277.75 L 767.22 277.75 L 768.69 277.75 L 770.17 277.75 L 771.64 277.75 L 773.11 277.75 L 774.58 277.75 L 776.06 277.75 L 777.53 277.75 L 779.00 277.75 L 780.47 277.75 L 781.94 277.75 L 783.42 277.75 L 784.89 277.75 L 786.36 277.75 L 787.83 277.75 L 789.31 277.75 L 790.78 277.75 L 792.25 277.75 L 793.72 277.75 L 795.19 277.75 L 796.67 277.75 L 798.14 277.75 L 799.61 277.75 L 801.08 277.75 L 802.56 277.75 L 804.03 264.15 L 805.50 267.62 L 806.97 265.68 L 808.44 266.37 L 809.92 266.65 L 811.39 264.15 L 812.86 262.35 L 814.33 264.98 L 815.81 266.37 L 817.28 267.48 L 818.75 265.12 L 820.22 268.73 L 821.69 265.26 L 823.17 264.29 L 824.64 267.62 L 826.11 266.09 L 827.58 264.98 L 829.06 263.04 L 830.53 262.07 L 832.00 260.54 L 833.47 264.15 L 834.94 264.43 L 836.42 264.43 L 837.89 266.23 L 839.36 258.74 L 840.83 259.15 L 842.31 261.24 L 843.78 261.37 L 845.25 264.01 L 846.72 258.60 L 848.19 263.59 L 849.67 266.93 L 851.14 269.15 L 852.61 268.17 L 854.08 265.26 L 855.56 265.26 L 857.03 265.26 L 858.50 264.70 L 859.97 266.93 L 861.44 262.90 L 862.92 266.23 L 864.39 264.70 L 865.86 266.65 L 867.33 266.23 L 868.81 264.43 L 870.28 260.40 L 871.75 261.10 L 873.22 262.62 L 874.69 266.79 L 876.17 277.75 L 877.64 272.20 L 879.11 277.75 L 880.58 277.75 L 882.06 277.75 L 883.53 277.75 L 885.00 277.75 L 886.47 270.12 L 887.94 269.84 L 889.42 270.39 L 890.89 270.53 L 892.36 270.26 L 893.83 269.56 L 895.31 270.95 L 896.78 271.50 L 898.25 270.39 L 899.72 277.75 L 901.19 277.75 L 902.67 271.78 L 904.14 277.75 L 905.61 277.75 L 907.08 277.75 L 908.56 277.75 L 910.03 270.53 L 911.50 268.04 L 912.97 271.78 L 914.44 272.62 L 915.92 271.50 L 917.39 277.75 L 918.86 277.75 L 920.33 277.75 L 921.81 277.75 L 923.28 277.75 L 924.75 277.75 L 926.22 277.75 L 927.69 277.75 L 929.17 277.75 L 930.64 277.75 L 932.11 277.75 L 933.58 277.75 L 935.06 277.75 L 936.53 277.75 L 938.00 277.75 L 939.47 277.75 L 940.94 277.75 L 942.42 277.75 L 943.89 277.75 L 945.36 277.75 L 946.83 277.75 L 948.31 277.75 L 949.78 277.75 L 951.25 277.75 L 952.72 277.75 L 954.19 277.75 L 955.67 277.75 L 957.14 277.75 L 958.61 277.75 L 960.08 277.75 L 961.56 277.75 L 963.03 277.75 L 964.50 277.75 L 965.97 277.75 L 967.44 277.75 L 968.92 277.75 L 970.39 277.75 L 971.86 277.75 L 973.33 277.75 L 974.81 277.75 L 976.28 277.75 L 977.75 277.75 L 979.22 277.75 L 980.69 277.75 L 982.17 277.75 L 983.64 277.75 L 985.11 277.75 L 986.58 277.75 L 988.06 277.75 L 989.53 277.75 L 991.00 277.75 L 992.47 269.98 L 993.94 269.56 L 995.42 269.15 L 996.89 267.48 L 998.36 263.87 L 999.83 269.15 L 1001.31 270.53 L 1002.78 268.04 L 1004.25 269.28 L 1005.72 277.75 L 1007.19 277.75 L 1008.67 277.75 L 1010.14 277.75 L 1011.61 277.75 L 1013.08 277.75 L 1014.56 277.75 L 1016.03 277.75 L 1017.50 277.75 L 1018.97 277.75 L 1020.44 277.75 L 1021.92 277.75 L 1023.39 277.75 L 1024.86 277.75 L 1026.33 277.75 L 1027.81 277.75 L 1029.28 277.75 L 1030.75 277.75 L 1032.22 277.75 L 1033.69 277.75 L 1035.17 277.75 L 1036.64 277.75 L 1038.11 277.75 L 1039.58 277.75 L 1041.06 277.75 L 1042.53 277.75 L 1044.00 277.75 L 1045.47 277.75 L 1046.94 277.75 L 1048.42 277.75 L 1049.89 277.75 L 1051.36 277.75 L 1052.83 277.75 L 1054.31 277.75 L 1055.78 277.75 L 1057.25 277.75 L 1058.72 277.75 L 1060.19 277.75 L 1061.67 277.75 L 1063.14 277.75 L 1064.61 277.75 L 1066.08 277.75 L 1067.56 277.75" stroke="#1976D2" />
<text x="90" y="289.75" font-size="14" font-weight="700">Inclinação (graus)</text>
<rect class="event" x="443.33" y="295.75" width="359.22" height="192.75" />
<line class="eventline" x1="443.33" y1="295.75" x2="443.33" y2="488.50" />
<line class="eventline" x1="802.56" y1="295.75" x2="802.56" y2="488.50" />
<line class="grid" x1="90" y1="488.50" x2="1150" y2="488.50" />
<text class="small" x="80" y="492.50" text-anchor="end">-20.0</text>
<line class="grid" x1="90" y1="449.95" x2="1150" y2="449.95" />
<text class="small" x="80" y="453.95" text-anchor="end">-10.0</text>
<line class="grid" x1="90" y1="411.40" x2="1150" y2="411.40" />
<text class="small" x="80" y="415.40" text-anchor="end">0.00</text>
<line class="grid" x1="90" y1="372.85" x2="1150" y2="372.85" />
<text class="small" x="80" y="376.85" text-anchor="end">10.0</text>
<line class="grid" x1="90" y1="334.30" x2="1150" y2="334.30" />
<text class="small" x="80" y="338.30" text-anchor="end">20.0</text>
<line class="grid" x1="90" y1="295.75" x2="1150" y2="295.75" />
<text class="small" x="80" y="299.75" text-anchor="end">30.0</text>
<line class="grid" x1="90.00" y1="295.75" x2="90.00" y2="488.50" />
<line class="grid" x1="266.67" y1="295.75" x2="266.67" y2="488.50" />
<line class="grid" x1="443.33" y1="295.75" x2="443.33" y2="488.50" />
<line class="grid" x1="620.00" y1="295.75" x2="620.00" y2="488.50" />
<line class="grid" x1="796.67" y1="295.75" x2="796.67" y2="488.50" />
<line class="grid" x1="973.33" y1="295.75" x2="973.33" y2="488.50" />
<line class="grid" x1="1150.00" y1="295.75" x2="1150.00" y2="488.50" />
<line class="axis" x1="90" y1="295.75" x2="90" y2="488.50" />
<line class="axis" x1="90" y1="488.50" x2="1150" y2="488.50" />
<path class="series" d="M 178.33 345.22 L 179.81 344.36 L 181.28 344.59 L 182.75 344.93 L 184.22 344.57 L 185.69 343.92 L 187.17 343.49 L 188.64 344.32 L 190.11 344.23 L 191.58 344.26 L 193.06 341.98 L 194.53 343.29 L 196.00 343.09 L 197.47 343.64 L 198.94 342.80 L 200.42 343.57 L 201.89 342.65 L 203.36 343.82 L 204.83 343.05 L 206.31 347.01 L 207.78 342.07 L 209.25 342.63 L 210.72 351.97 L 212.19 351.56 L 213.67 358.79 L 215.14 361.17 L 216.61 357.54 L 218.08 353.58 L 219.56 369.38 L 221.03 369.23 L 222.50 369.88 L 223.97 375.18 L 225.44 378.41 L 226.92 385.71 L 228.39 380.83 L 229.86 372.56 L 231.33 372.90 L 232.81 368.26 L 234.28 367.49 L 235.75 361.54 L 237.22 369.31 L 238.69 363.60 L 240.17 365.11 L 241.64 360.01 L 243.11 357.57 L 244.58 361.40 L 246.06 360.20 L 247.53 364.19 L 249.00 359.75 L 250.47 359.78 L 251.94 357.52 L 253.42 360.30 L 254.89 359.76 L 256.36 360.51 L 257.83 359.69 L 259.31 359.37 L 260.78 360.15 L 262.25 362.97 L 263.72 361.86 L 265.19 365.55 L 266.67 367.04 L 268.14 362.17 L 269.61 361.91 L 271.08 364.34 L 272.56 363.97 L 274.03 367.46 L 275.50 366.30 L 276.97 370.19 L 278.44 370.19 L 279.92 366.70 L 281.39 363.80 L 282.86 360.09 L 284.33 361.03 L 285.81 368.84 L 287.28 366.98 L 288.75 366.35 L 290.22 366.45 L 291.69 366.49 L 293.17 366.84 L 294.64 368.74 L 296.11 369.53 L 297.58 372.15 L 299.06 371.63 L 300.53 370.30 L 302.00 372.01 L 303.47 365.87 L 304.94 365.02 L 306.42 367.23 L 307.89 369.29 L 309.36 364.17 L 310.83 359.10 L 312.31 357.59 L 313.78 357.42 L 315.25 357.65 L 316.72 362.09 L 318.19 356.58 L 319.67 355.46 L 321.14 357.27 L 322.61 356.46 L 324.08 350.64 L 325.56 349.54 L 327.03 337.91 L 328.50 331.29 L 329.97 320.91 L 331.44 320.34 L 332.92 324.17 L 334.39 320.58 L 335.86 314.00 L 337.33 339.00 L 338.81 351.94 L 340.28 349.93 L 341.75 348.49 L 343.22 352.53 L 344.69 348.93 L 346.17 351.73 L 347.64 367.59 L 349.11 365.38 L 350.58 364.04 L 352.06 352.90 L 353.53 358.94 L 355.00 366.04 L 356.47 365.64 L 357.94 350.02 L 359.42 352.58 L 360.89 359.17 L 362.36 353.93 L 363.83 346.58 L 365.31 346.92 L 366.78 350.38 L 368.25 356.02 L 369.72 355.13 L 371.19 359.26 L 372.67 371.26 L 374.14 374.49 L 375.61 364.79 L 377.08 363.38 L 378.56 372.38 L 380.03 370.36 L 381.50 368.60 L 382.97 367.86 L 384.44 371.95 L 385.92 363.27 L 387.39 361.69 L 388.86 367.31 L 390.33 372.38 L 391.81 368.26 L 393.28 356.18 L 394.75 360.83 L 396.22 370.01 L 397.69 368.05 L 399.17 371.61 L 400.64 360.27 L 402.11 359.97 L 403.58 365.34 L 405.06 356.65 L 406.53 359.83 L 408.00 351.77 L 409.47 358.59 L 410.94 356.16 L 412.42 359.47 L 413.89 356.14 L 415.36 367.52 L 416.83 372.30 L 418.31 351.70 L 419.78 383.60 L 421.25 380.04 L 422.72 375.06 L 424.19 376.25 L 425.67 378.73 L 427.14 372.28 L 428.61 359.50 L 430.08 358.59 L 431.56 360.83 L 433.03 361.68 L 434.50 354.54 L 435.97 370.08 L 437.44 361.29 L 438.92 381.27 L 440.39 361.81 L 441.86 351.19 L 443.33 349.20 L 444.81 369.38 L 446.28 368.42 L 447.75 367.97 L 449.22 367.99 L 450.69 368.08 L 452.17 368.06 L 453.64 368.11 L 455.11 368.10 L 456.58 368.08 L 458.06 368.11 L 459.53 368.09 L 461.00 368.11 L 462.47 368.06 L 463.94 368.13 L 465.42 368.11 L 466.89 368.13 L 468.36 368.03 L 469.83 368.11 L 471.31 368.06 L 472.78 368.04 L 474.25 368.00 L 475.72 368.04 L 477.19 368.00 L 478.67 368.01 L 480.14 368.05 L 481.61 368.04 L 483.08 368.05 L 484.56 368.09 L 486.03 368.07 L 487.50 368.09 L 488.97 368.10 L 490.44 368.06 L 491.92 368.03 L 493.39 368.06 L 494.86 368.03 L 496.33 368.03 L 497.81 368.03 L 499.28 368.04 L 500.75 367.99 L 502.22 368.03 L 503.69 368.04 L 505.17 368.02 L 506.64 368.04 L 508.11 368.03 L 509.58 368.07 L 511.06 368.08 L 512.53 368.08 L 514.00 368.06 L 515.47 368.08 L 516.94 368.07 L 518.42 368.08 L 519.89 368.05 L 521.36 368.09 L 522.83 368.05 L 524.31 368.07 L 525.78 368.07 L 527.25 368.06 L 528.72 368.08 L 530.19 368.07 L 531.67 368.04 L 533.14 368.06 L 534.61 368.06 L 536.08 368.10 L 537.56 368.09 L 539.03 368.11 L 540.50 368.07 L 541.97 368.03 L 543.44 368.03 L 544.92 367.97 L 546.39 368.02 L 547.86 367.97 L 549.33 367.98 L 550.81 367.99 L 552.28 368.01 L 553.75 368.00 L 555.22 367.98 L 556.69 367.97 L 558.17 368.03 L 559.64 368.00 L 561.11 367.97 L 562.58 368.01 L 564.06 367.94 L 565.53 368.02 L 567.00 368.00 L 568.47 368.01 L 569.94 368.02 L 571.42 367.98 L 572.89 367.98 L 574.36 368.01 L 575.83 368.01 L 577.31 368.01 L 578.78 367.99 L 580.25 368.04 L 581.72 367.96 L 583.19 367.98 L 584.67 368.00 L 586.14 367.98 L 587.61 367.96 L 589.08 368.00 L 590.56 368.04 L 592.03 368.03 L 593.50 368.02 L 594.97 368.02 L 596.44 368.02 L 597.92 367.96 L 599.39 368.02 L 600.86 368.05 L 602.33 368.05 L 603.81 368.03 L 605.28 368.02 L 606.75 368.07 L 608.22 368.02 L 609.69 368.11 L 611.17 368.04 L 612.64 368.06 L 614.11 368.04 L 615.58 368.07 L 617.06 368.07 L 618.53 368.00 L 620.00 368.06 L 621.47 368.08 L 622.94 368.03 L 624.42 368.06 L 625.89 368.05 L 627.36 367.99 L 628.83 368.01 L 630.31 368.08 L 631.78 368.03 L 633.25 368.06 L 634.72 368.02 L 636.19 368.02 L 637.67 368.06 L 639.14 368.02 L 640.61 368.06 L 642.08 368.11 L 643.56 368.04 L 645.03 368.12 L 646.50 368.10 L 647.97 368.04 L 649.44 368.04 L 650.92 368.04 L 652.39 368.07 L 653.86 368.08 L 655.33 368.06 L 656.81 368.03 L 658.28 368.07 L 659.75 368.03 L 661.22 368.05 L 662.69 368.04 L 664.17 368.07 L 665.64 368.03 L 667.11 368.01 L 668.58 368.02 L 670.06 368.04 L 671.53 368.09 L 673.00 368.02 L 674.47 368.07 L 675.94 368.04 L 677.42 368.05 L 678.89 368.07 L 680.36 368.05 L 681.83 368.01 L 683.31 368.08 L 684.78 368.07 L 686.25 368.09 L 687.72 368.10 L 689.19 368.06 L 690.67 368.02 L 692.14 368.05 L 693.61 368.07 L 695.08 368.08 L 696.56 368.05 L 698.03 368.08 L 699.50 368.03 L 700.97 368.06 L 702.44 368.06 L 703.92 368.06 L 705.39 368.06 L 706.86 368.06 L 708.33 368.05 L 709.81 368.12 L 711.28 368.03 L 712.75 368.08 L 714.22 368.08 L 715.69 368.08 L 717.17 368.04 L 718.64 368.08 L 720.11 368.06 L 721.58 368.05 L 723.06 368.12 L 724.53 368.02 L 726.00 368.01 L 727.47 368.03 L 728.94 368.00 L 730.42 367.98 L 731.89 368.03 L 733.36 368.02 L 734.83 368.03 L 736.31 368.03 L 737.78 368.00 L 739.25 368.05 L 740.72 368.01 L 742.19 368.02 L 743.67 368.00 L 745.14 368.00 L 746.61 368.05 L 748.08 368.07 L 749.56 368.05 L 751.03 367.99 L 752.50 368.03 L 753.97 368.01 L 755.44 368.01 L 756.92 367.99 L 758.39 368.04 L 759.86 368.00 L 761.33 367.96 L 762.81 368.04 L 764.28 368.02 L 765.75 368.02 L 767.22 368.01 L 768.69 367.97 L 770.17 368.04 L 771.64 368.03 L 773.11 368.06 L 774.58 368.03 L 776.06 367.97 L 777.53 367.97 L 779.00 368.02 L 780.47 368.04 L 781.94 368.06 L 783.42 368.00 L 784.89 368.00 L 786.36 368.03 L 787.83 368.04 L 789.31 368.00 L 790.78 368.02 L 792.25 368.02 L 793.72 368.03 L 795.19 368.12 L 796.67 367.98 L 798.14 367.12 L 799.61 375.60 L 801.08 377.99 L 802.56 371.09 L 804.03 358.08 L 805.50 364.04 L 806.97 357.66 L 808.44 355.31 L 809.92 364.36 L 811.39 359.62 L 812.86 355.22 L 814.33 356.30 L 815.81 363.14 L 817.28 365.05 L 818.75 358.21 L 820.22 362.50 L 821.69 358.89 L 823.17 353.01 L 824.64 362.00 L 826.11 366.47 L 827.58 373.83 L 829.06 370.98 L 830.53 369.41 L 832.00 359.16 L 833.47 365.19 L 834.94 359.15 L 836.42 358.00 L 837.89 371.95 L 839.36 365.05 L 840.83 357.60 L 842.31 370.83 L 843.78 365.40 L 845.25 370.83 L 846.72 352.06 L 848.19 353.02 L 849.67 354.34 L 851.14 356.00 L 852.61 350.21 L 854.08 349.36 L 855.56 347.06 L 857.03 345.29 L 858.50 348.32 L 859.97 349.82 L 861.44 347.38 L 862.92 347.71 L 864.39 348.11 L 865.86 350.45 L 867.33 357.41 L 868.81 359.06 L 870.28 359.06 L 871.75 361.42 L 873.22 361.88 L 874.69 362.36 L 876.17 368.49 L 877.64 363.44 L 879.11 364.28 L 880.58 361.57 L 882.06 362.13 L 883.53 370.52 L 885.00 371.35 L 886.47 370.70 L 887.94 369.30 L 889.42 369.82 L 890.89 368.61 L 892.36 367.69 L 893.83 367.60 L 895.31 369.24 L 896.78 367.42 L 898.25 366.05 L 899.72 367.98 L 901.19 369.75 L 902.67 369.39 L 904.14 369.73 L 905.61 370.74 L 907.08 373.43 L 908.56 367.95 L 910.03 375.19 L 911.50 371.08 L 912.97 383.04 L 914.44 377.76 L 915.92 376.92 L 917.39 386.57 L 918.86 382.14 L 920.33 379.69 L 921.81 379.91 L 923.28 379.89 L 924.75 379.89 L 926.22 379.85 L 927.69 379.86 L 929.17 379.86 L 930.64 379.88 L 932.11 379.88 L 933.58 379.89 L 935.06 379.86 L 936.53 379.83 L 938.00 379.83 L 939.47 379.84 L 940.94 379.83 L 942.42 379.86 L 943.89 379.81 L 945.36 379.83 L 946.83 379.88 L 948.31 379.87 L 949.78 379.82 L 951.25 379.87 L 952.72 379.85 L 954.19 379.84 L 955.67 379.84 L 957.14 379.92 L 958.61 379.85 L 960.08 379.78 L 961.56 379.82 L 963.03 379.80 L 964.50 379.81 L 965.97 379.81 L 967.44 379.83 L 968.92 379.82 L 970.39 379.85 L 971.86 379.81 L 973.33 379.85 L 974.81 373.50 L 976.28 386.01 L 977.75 381.79 L 979.22 381.45 L 980.69 381.03 L 982.17 381.11 L 983.64 381.00 L 985.11 381.05 L 986.58 380.59 L 988.06 370.75 L 989.53 386.72 L 991.00 377.37 L 992.47 377.89 L 993.94 384.67 L 995.42 377.41 L 996.89 369.42 L 998.36 383.13 L 999.83 370.31 L 1001.31 373.99 L 1002.78 370.46 L 1004.25 375.28 L 1005.72 369.75 L 1007.19 366.41 L 1008.67 361.05 L 1010.14 369.49 L 1011.61 357.57 L 1013.08 360.89 L 1014.56 359.07 L 1016.03 359.56 L 1017.50 358.48 L 1018.97 359.10 L 1020.44 359.12 L 1021.92 359.08 L 1023.39 359.08 L 1024.86 359.04 L 1026.33 359.09 L 1027.81 359.07 L 1029.28 359.07 L 1030.75 359.11 L 1032.22 359.07 L 1033.69 359.05 L 1035.17 359.05 L 1036.64 359.07 L 1038.11 359.04 L 1039.58 359.00 L 1041.06 358.93 L 1042.53 359.05 L 1044.00 358.74 L 1045.47 360.47 L 1046.94 357.25 L 1048.42 359.36 L 1049.89 358.74 L 1051.36 358.75 L 1052.83 358.76 L 1054.31 358.77 L 1055.78 358.78 L 1057.25 358.82 L 1058.72 358.77 L 1060.19 358.80 L 1061.67 358.76 L 1063.14 358.80 L 1064.61 358.76 L 1066.08 358.69 L 1067.56 358.74" stroke="#2E7D32" />
<path class="series" d="M 178.33 407.40 L 179.81 404.68 L 181.28 405.83 L 182.75 404.96 L 184.22 402.35 L 185.69 403.18 L 187.17 408.88 L 188.64 410.94 L 190.11 412.49 L 191.58 410.05 L 193.06 409.84 L 194.53 410.25 L 196.00 404.00 L 197.47 410.20 L 198.94 416.72 L 200.42 419.47 L 201.89 423.59 L 203.36 430.54 L 204.83 443.92 L 206.31 451.61 L 207.78 433.02 L 209.25 442.42 L 210.72 443.88 L 212.19 424.26 L 213.67 418.31 L 215.14 371.98 L 216.61 359.09 L 218.08 360.88 L 219.56 359.86 L 221.03 375.12 L 222.50 400.11 L 223.97 425.97 L 225.44 420.20 L 226.92 433.25 L 228.39 445.00 L 229.86 429.92 L 231.33 425.37 L 232.81 423.41 L 234.28 413.01 L 235.75 418.43 L 237.22 407.81 L 238.69 403.51 L 240.17 403.21 L 241.64 402.99 L 243.11 398.61 L 244.58 398.45 L 246.06 400.37 L 247.53 404.82 L 249.00 402.91 L 250.47 406.90 L 251.94 402.18 L 253.42 405.79 L 254.89 405.04 L 256.36 404.45 L 257.83 404.31 L 259.31 400.84 L 260.78 402.63 L 262.25 406.64 L 263.72 410.62 L 265.19 409.42 L 266.67 407.43 L 268.14 405.03 L 269.61 405.49 L 271.08 404.18 L 272.56 400.83 L 274.03 407.20 L 275.50 404.24 L 276.97 405.34 L 278.44 405.34 L 279.92 408.75 L 281.39 408.62 L 282.86 401.71 L 284.33 400.48 L 285.81 397.58 L 287.28 394.13 L 288.75 386.63 L 290.22 395.95 L 291.69 388.15 L 293.17 386.26 L 294.64 386.62 L 296.11 388.38 L 297.58 389.99 L 299.06 396.46 L 300.53 405.01 L 302.00 400.20 L 303.47 397.80 L 304.94 394.82 L 306.42 392.32 L 307.89 389.31 L 309.36 377.83 L 310.83 367.63 L 312.31 370.78 L 313.78 376.18 L 315.25 382.68 L 316.72 396.00 L 318.19 393.69 L 319.67 385.58 L 321.14 409.77 L 322.61 403.91 L 324.08 403.66 L 325.56 400.55 L 327.03 397.80 L 328.50 387.36 L 329.97 384.22 L 331.44 395.95 L 332.92 384.15 L 334.39 380.90 L 335.86 388.46 L 337.33 395.24 L 338.81 399.64 L 340.28 400.82 L 341.75 399.20 L 343.22 400.41 L 344.69 402.54 L 346.17 400.55 L 347.64 403.71 L 349.11 398.14 L 350.58 399.12 L 352.06 394.61 L 353.53 394.27 L 355.00 388.42 L 356.47 381.35 L 357.94 373.74 L 359.42 361.08 L 360.89 408.75 L 362.36 395.98 L 363.83 405.46 L 365.31 409.02 L 366.78 399.90 L 368.25 401.99 L 369.72 415.22 L 371.19 423.71 L 372.67 422.96 L 374.14 393.36 L 375.61 411.97 L 377.08 411.46 L 378.56 413.12 L 380.03 407.40 L 381.50 408.61 L 382.97 398.50 L 384.44 402.65 L 385.92 400.29 L 387.39 423.90 L 388.86 414.30 L 390.33 388.06 L 391.81 386.46 L 393.28 397.79 L 394.75 413.44 L 396.22 421.82 L 397.69 429.75 L 399.17 421.91 L 400.64 415.10 L 402.11 387.10 L 403.58 397.00 L 405.06 402.99 L 406.53 398.89 L 408.00 410.01 L 409.47 406.77 L 410.94 401.57 L 412.42 405.65 L 413.89 404.09 L 415.36 403.79 L 416.83 404.62 L 418.31 402.47 L 419.78 415.78 L 421.25 422.78 L 422.72 426.44 L 424.19 430.87 L 425.67 406.93 L 427.14 406.65 L 428.61 410.42 L 430.08 407.76 L 431.56 405.27 L 433.03 411.68 L 434.50 429.51 L 435.97 408.01 L 437.44 404.34 L 438.92 408.18 L 440.39 412.38 L 441.86 407.33 L 443.33 404.75 L 444.81 407.32 L 446.28 408.39 L 447.75 408.02 L 449.22 407.39 L 450.69 408.03 L 452.17 407.43 L 453.64 407.81 L 455.11 407.79 L 456.58 407.62 L 458.06 407.87 L 459.53 407.72 L 461.00 407.74 L 462.47 407.80 L 463.94 407.71 L 465.42 407.76 L 466.89 407.74 L 468.36 407.71 L 469.83 407.70 L 471.31 407.70 L 472.78 407.68 L 474.25 407.66 L 475.72 407.70 L 477.19 407.64 L 478.67 407.69 L 480.14 407.69 L 481.61 407.66 L 483.08 407.74 L 484.56 407.70 L 486.03 407.66 L 487.50 407.70 L 488.97 407.68 L 490.44 407.69 L 491.92 407.68 L 493.39 407.69 L 494.86 407.65 L 496.33 407.71 L 497.81 407.65 L 499.28 407.66 L 500.75 407.69 L 502.22 407.69 L 503.69 407.70 L 505.17 407.65 L 506.64 407.72 L 508.11 407.70 L 509.58 407.72 L 511.06 407.66 L 512.53 407.75 L 514.00 407.68 L 515.47 407.72 L 516.94 407.72 L 518.42 407.74 L 519.89 407.71 L 521.36 407.68 L 522.83 407.70 L 524.31 407.70 L 525.78 407.73 L 527.25 407.65 L 528.72 407.70 L 530.19 407.67 L 531.67 407.73 L 533.14 407.67 L 534.61 407.66 L 536.08 407.74 L 537.56 407.74 L 539.03 407.72 L 540.50 407.64 L 541.97 407.63 L 543.44 407.66 L 544.92 407.71 L 546.39 407.61 L 547.86 407.65 L 549.33 407.69 L 550.81 407.64 L 552.28 407.65 L 553.75 407.66 L 555.22 407.64 L 556.69 407.67 L 558.17 407.65 L 559.64 407.61 L 561.11 407.73 L 562.58 407.65 L 564.06 407.64 L 565.53 407.65 L 567.00 407.63 L 568.47 407.70 L 569.94 407.64 L 571.42 407.67 L 572.89 407.67 L 574.36 407.65 L 575.83 407.61 L 577.31 407.70 L 578.78 407.65 L 580.25 407.66 L 581.72 407.65 L 583.19 407.70 L 584.67 407.58 L 586.14 407.64 L 587.61 407.64 L 589.08 407.67 L 590.56 407.64 L 592.03 407.69 L 593.50 407.69 L 594.97 407.71 L 596.44 407.66 L 597.92 407.64 L 599.39 407.70 L 600.86 407.71 L 602.33 407.68 L 603.81 407.66 L 605.28 407.69 L 606.75 407.69 L 608.22 407.67 L 609.69 407.64 L 611.17 407.66 L 612.64 407.72 L 614.11 407.65 L 615.58 407.69 L 617.06 407.67 L 618.53 407.72 L 620.00 407.71 L 621.47 407.67 L 622.94 407.68 L 624.42 407.73 L 625.89 407.60 L 627.36 407.72 L 628.83 407.67 L 630.31 407.67 L 631.78 407.70 L 633.25 407.60 L 634.72 407.70 L 636.19 407.71 L 637.67 407.63 L 639.14 407.67 L 640.61 407.68 L 642.08 407.68 L 643.56 407.69 L 645.03 407.66 L 646.50 407.69 L 647.97 407.68 L 649.44 407.69 L 650.92 407.69 L 652.39 407.66 L 653.86 407.67 L 655.33 407.70 L 656.81 407.66 L 658.28 407.67 L 659.75 407.69 L 661.22 407.68 L 662.69 407.68 L 664.17 407.64 L 665.64 407.71 L 667.11 407.70 L 668.58 407.70 L 670.06 407.72 L 671.53 407.65 L 673.00 407.68 L 674.47 407.67 L 675.94 407.66 L 677.42 407.69 L 678.89 407.69 L 680.36 407.70 L 681.83 407.68 L 683.31 407.70 L 684.78 407.68 L 686.25 407.68 L 687.72 407.67 L 689.19 407.69 L 690.67 407.68 L 692.14 407.71 L 693.61 407.69 L 695.08 407.68 L 696.56 407.70 L 698.03 407.68 L 699.50 407.67 L 700.97 407.67 L 702.44 407.66 L 703.92 407.70 L 705.39 407.63 L 706.86 407.72 L 708.33 407.64 L 709.81 407.65 L 711.28 407.72 L 712.75 407.64 L 714.22 407.71 L 715.69 407.69 L 717.17 407.67 L 718.64 407.67 L 720.11 407.66 L 721.58 407.67 L 723.06 407.70 L 724.53 407.67 L 726.00 407.66 L 727.47 407.60 L 728.94 407.66 L 730.42 407.67 L 731.89 407.66 L 733.36 407.60 L 734.83 407.67 L 736.31 407.65 L 737.78 407.65 L 739.25 407.60 L 740.72 407.61 L 742.19 407.67 L 743.67 407.63 L 745.14 407.68 L 746.61 407.66 L 748.08 407.60 L 749.56 407.61 L 751.03 407.63 L 752.50 407.65 L 753.97 407.62 L 755.44 407.67 L 756.92 407.64 L 758.39 407.59 L 759.86 407.66 L 761.33 407.64 L 762.81 407.62 L 764.28 407.60 L 765.75 407.66 L 767.22 407.62 L 768.69 407.67 L 770.17 407.69 L 771.64 407.65 L 773.11 407.66 L 774.58 407.59 L 776.06 407.62 L 777.53 407.64 L 779.00 407.64 L 780.47 407.65 L 781.94 407.65 L 783.42 407.63 L 784.89 407.60 L 786.36 407.63 L 787.83 407.64 L 789.31 407.67 L 790.78 407.61 L 792.25 407.68 L 793.72 407.59 L 795.19 407.72 L 796.67 407.62 L 798.14 406.93 L 799.61 410.04 L 801.08 407.47 L 802.56 407.04 L 804.03 408.08 L 805.50 409.77 L 806.97 410.48 L 808.44 413.22 L 809.92 403.52 L 811.39 409.61 L 812.86 403.29 L 814.33 402.51 L 815.81 400.27 L 817.28 404.27 L 818.75 412.12 L 820.22 399.45 L 821.69 406.42 L 823.17 399.83 L 824.64 409.34 L 826.11 401.61 L 827.58 422.65 L 829.06 416.22 L 830.53 415.09 L 832.00 400.12 L 833.47 403.13 L 834.94 401.46 L 836.42 402.88 L 837.89 410.70 L 839.36 408.19 L 840.83 408.91 L 842.31 417.43 L 843.78 397.18 L 845.25 425.96 L 846.72 400.39 L 848.19 413.56 L 849.67 409.02 L 851.14 409.87 L 852.61 421.72 L 854.08 420.25 L 855.56 420.25 L 857.03 422.55 L 858.50 429.85 L 859.97 433.20 L 861.44 430.75 L 862.92 430.95 L 864.39 431.53 L 865.86 434.31 L 867.33 435.62 L 868.81 436.16 L 870.28 436.16 L 871.75 431.54 L 873.22 434.08 L 874.69 431.15 L 876.17 431.55 L 877.64 428.75 L 879.11 429.75 L 880.58 426.89 L 882.06 430.34 L 883.53 433.77 L 885.00 436.06 L 886.47 438.00 L 887.94 430.93 L 889.42 434.57 L 890.89 435.10 L 892.36 434.99 L 893.83 435.40 L 895.31 436.54 L 896.78 440.65 L 898.25 434.58 L 899.72 434.37 L 901.19 436.71 L 902.67 436.23 L 904.14 433.62 L 905.61 434.32 L 907.08 436.03 L 908.56 434.15 L 910.03 429.86 L 911.50 434.06 L 912.97 431.04 L 914.44 430.11 L 915.92 433.70 L 917.39 432.92 L 918.86 433.27 L 920.33 432.71 L 921.81 433.06 L 923.28 433.07 L 924.75 433.09 L 926.22 433.00 L 927.69 433.07 L 929.17 433.10 L 930.64 433.07 L 932.11 433.08 L 933.58 433.04 L 935.06 433.07 L 936.53 433.10 L 938.00 433.08 L 939.47 433.11 L 940.94 433.09 L 942.42 433.09 L 943.89 433.06 L 945.36 433.09 L 946.83 433.04 L 948.31 433.04 L 949.78 433.00 L 951.25 433.05 L 952.72 433.08 L 954.19 433.05 L 955.67 433.08 L 957.14 433.03 L 958.61 432.99 L 960.08 433.10 L 961.56 433.04 L 963.03 432.99 L 964.50 433.00 L 965.97 433.07 L 967.44 433.04 L 968.92 433.00 L 970.39 432.99 L 971.86 433.05 L 973.33 433.03 L 974.81 433.29 L 976.28 431.18 L 977.75 433.92 L 979.22 432.28 L 980.69 432.22 L 982.17 432.99 L 983.64 432.17 L 985.11 432.64 L 986.58 431.97 L 988.06 433.14 L 989.53 432.70 L 991.00 438.76 L 992.47 435.88 L 993.94 429.66 L 995.42 430.21 L 996.89 432.51 L 998.36 410.57 L 999.83 423.77 L 1001.31 405.02 L 1002.78 419.87 L 1004.25 421.99 L 1005.72 411.78 L 1007.19 413.05 L 1008.67 412.31 L 1010.14 408.67 L 1011.61 407.50 L 1013.08 409.55 L 1014.56 409.54 L 1016.03 410.13 L 1017.50 408.57 L 1018.97 409.39 L 1020.44 409.19 L 1021.92 409.35 L 1023.39 409.25 L 1024.86 409.28 L 1026.33 409.27 L 1027.81 409.28 L 1029.28 409.33 L 1030.75 409.28 L 1032.22 409.31 L 1033.69 409.36 L 1035.17 409.31 L 1036.64 409.28 L 1038.11 409.28 L 1039.58 409.36 L 1041.06 409.25 L 1042.53 409.23 L 1044.00 409.48 L 1045.47 410.35 L 1046.94 410.16 L 1048.42 410.86 L 1049.89 410.28 L 1051.36 410.18 L 1052.83 410.46 L 1054.31 410.38 L 1055.78 410.27 L 1057.25 410.44 L 1058.72 410.41 L 1060.19 410.36 L 1061.67 410.35 L 1063.14 410.36 L 1064.61 410.41 L 1066.08 410.37 L 1067.56 410.42" stroke="#6A1B9A" />
<line x1="900.00" y1="307.75" x2="918.00" y2="307.75" stroke="#2E7D32" stroke-width="3" />
<text class="small" x="924.00" y="311.75">pitch</text>
<line x1="900.00" y1="323.75" x2="918.00" y2="323.75" stroke="#6A1B9A" stroke-width="3" />
<text class="small" x="924.00" y="327.75">roll</text>
<text x="90" y="500.50" font-size="14" font-weight="700">Aceleração (magnitude) (u.a.)</text>
<rect class="event" x="443.33" y="506.50" width="359.22" height="192.75" />
<line class="eventline" x1="443.33" y1="506.50" x2="443.33" y2="699.25" />
<line class="eventline" x1="802.56" y1="506.50" x2="802.56" y2="699.25" />
<line class="grid" x1="90" y1="699.25" x2="1150" y2="699.25" />
<text class="small" x="80" y="703.25" text-anchor="end">0.00</text>
<line class="grid" x1="90" y1="660.70" x2="1150" y2="660.70" />
<text class="small" x="80" y="664.70" text-anchor="end">1.00</text>
<line class="grid" x1="90" y1="622.15" x2="1150" y2="622.15" />
<text class="small" x="80" y="626.15" text-anchor="end">2.00</text>
<line class="grid" x1="90" y1="583.60" x2="1150" y2="583.60" />
<text class="small" x="80" y="587.60" text-anchor="end">3.00</text>
<line class="grid" x1="90" y1="545.05" x2="1150" y2="545.05" />
<text class="small" x="80" y="549.05" text-anchor="end">4.00</text>
<line class="grid" x1="90" y1="506.50" x2="1150" y2="506.50" />
<text class="small" x="80" y="510.50" text-anchor="end">5.00</text>
<line class="grid" x1="90.00" y1="506.50" x2="90.00" y2="699.25" />
<line class="grid" x1="266.67" y1="506.50" x2="266.67" y2="699.25" />
<line class="grid" x1="443.33" y1="506.50" x2="443.33" y2="699.25" />
<line class="grid" x1="620.00" y1="506.50" x2="620.00" y2="699.25" />
<line class="grid" x1="796.67" y1="506.50" x2="796.67" y2="699.25" />
<line class="grid" x1="973.33" y1="506.50" x2="973.33" y2="699.25" />
<line class="grid" x1="1150.00" y1="506.50" x2="1150.00" y2="699.25" />
<line class="axis" x1="90" y1="506.50" x2="90" y2="699.25" />
<line class="axis" x1="90" y1="699.25" x2="1150" y2="699.25" />
<path class="series" d="M 178.33 691.24 L 179.81 691.96 L 181.28 691.81 L 182.75 692.65 L 184.22 694.68 L 185.69 691.21 L 187.17 687.74 L 188.64 692.56 L 190.11 692.82 L 191.58 691.03 L 193.06 690.30 L 194.53 691.59 L 196.00 693.99 L 197.47 695.38 L 198.94 689.10 L 200.42 689.12 L 201.89 689.12 L 203.36 665.97 L 204.83 680.11 L 206.31 657.74 L 207.78 664.74 L 209.25 668.77 L 210.72 677.12 L 212.19 685.32 L 213.67 663.39 L 215.14 659.90 L 216.61 606.42 L 218.08 632.37 L 219.56 620.09 L 221.03 652.03 L 222.50 684.46 L 223.97 655.36 L 225.44 650.21 L 226.92 654.33 L 228.39 654.47 L 229.86 667.79 L 231.33 679.82 L 232.81 690.31 L 234.28 686.59 L 235.75 684.96 L 237.22 684.30 L 238.69 683.53 L 240.17 688.73 L 241.64 687.93 L 243.11 682.28 L 244.58 684.49 L 246.06 693.34 L 247.53 690.24 L 249.00 692.15 L 250.47 693.49 L 251.94 692.66 L 253.42 690.48 L 254.89 697.87 L 256.36 697.53 L 257.83 694.45 L 259.31 694.29 L 260.78 696.37 L 262.25 691.38 L 263.72 694.34 L 265.19 697.53 L 266.67 689.63 L 268.14 693.90 L 269.61 692.43 L 271.08 690.27 L 272.56 688.09 L 274.03 697.18 L 275.50 695.19 L 276.97 691.59 L 278.44 694.70 L 279.92 688.19 L 281.39 690.05 L 282.86 689.46 L 284.33 685.96 L 285.81 686.53 L 287.28 679.18 L 288.75 682.04 L 290.22 682.50 L 291.69 686.56 L 293.17 685.18 L 294.64 689.92 L 296.11 693.26 L 297.58 691.85 L 299.06 681.62 L 300.53 682.48 L 302.00 683.46 L 303.47 688.03 L 304.94 695.17 L 306.42 695.25 L 307.89 682.72 L 309.36 672.45 L 310.83 672.03 L 312.31 680.18 L 313.78 688.21 L 315.25 678.05 L 316.72 677.33 L 318.19 678.35 L 319.67 672.85 L 321.14 679.43 L 322.61 680.81 L 324.08 693.58 L 325.56 694.68 L 327.03 680.19 L 328.50 666.86 L 329.97 671.51 L 331.44 677.94 L 332.92 676.45 L 334.39 661.56 L 335.86 687.98 L 337.33 671.13 L 338.81 677.11 L 340.28 675.24 L 341.75 682.44 L 343.22 680.94 L 344.69 691.60 L 346.17 676.90 L 347.64 678.96 L 349.11 676.65 L 350.58 675.83 L 352.06 690.50 L 353.53 682.95 L 355.00 679.96 L 356.47 650.95 L 357.94 669.59 L 359.42 674.41 L 360.89 674.60 L 362.36 693.06 L 363.83 682.19 L 365.31 682.19 L 366.78 669.50 L 368.25 663.08 L 369.72 668.70 L 371.19 671.44 L 372.67 692.10 L 374.14 690.84 L 375.61 685.89 L 377.08 668.86 L 378.56 673.23 L 380.03 685.21 L 381.50 676.10 L 382.97 677.02 L 384.44 681.57 L 385.92 685.80 L 387.39 678.31 L 388.86 685.29 L 390.33 668.06 L 391.81 688.40 L 393.28 674.73 L 394.75 688.69 L 396.22 685.95 L 397.69 675.21 L 399.17 684.97 L 400.64 694.99 L 402.11 667.06 L 403.58 678.20 L 405.06 684.69 L 406.53 683.69 L 408.00 688.47 L 409.47 691.83 L 410.94 695.35 L 412.42 672.05 L 413.89 672.31 L 415.36 682.84 L 416.83 690.95 L 418.31 693.13 L 419.78 676.79 L 421.25 670.91 L 422.72 675.04 L 424.19 679.58 L 425.67 681.54 L 427.14 682.10 L 428.61 675.07 L 430.08 681.39 L 431.56 672.49 L 433.03 673.99 L 434.50 661.89 L 435.97 684.20 L 437.44 678.03 L 438.92 675.77 L 440.39 689.75 L 441.86 681.45 L 443.33 678.66 L 444.81 681.48 L 446.28 694.26 L 447.75 697.42 L 449.22 698.85 L 450.69 698.84 L 452.17 698.51 L 453.64 698.87 L 455.11 698.88 L 456.58 698.82 L 458.06 698.94 L 459.53 698.92 L 461.00 698.87 L 462.47 698.93 L 463.94 699.10 L 465.42 699.15 L 466.89 699.18 L 468.36 699.18 L 469.83 699.19 L 471.31 699.12 L 472.78 699.19 L 474.25 699.08 L 475.72 699.12 L 477.19 699.17 L 478.67 699.17 L 480.14 699.19 L 481.61 699.16 L 483.08 699.14 L 484.56 699.19 L 486.03 699.15 L 487.50 699.14 L 488.97 699.18 L 490.44 699.20 L 491.92 699.23 L 493.39 699.20 L 494.86 699.21 L 496.33 699.12 L 497.81 699.20 L 499.28 699.20 L 500.75 699.19 L 502.22 699.21 L 503.69 699.22 L 505.17 699.19 L 506.64 699.20 L 508.11 699.23 L 509.58 699.18 L 511.06 699.13 L 512.53 699.12 L 514.00 699.20 L 515.47 699.22 L 516.94 699.15 L 518.42 699.17 L 519.89 699.18 L 521.36 699.20 L 522.83 699.20 L 524.31 699.21 L 525.78 699.16 L 527.25 699.11 L 528.72 699.17 L 530.19 699.22 L 531.67 699.22 L 533.14 699.19 L 534.61 699.12 L 536.08 699.10 L 537.56 699.21 L 539.03 699.14 L 540.50 699.19 L 541.97 699.15 L 543.44 699.13 L 544.92 698.99 L 546.39 699.13 L 547.86 699.20 L 549.33 699.14 L 550.81 699.19 L 552.28 699.16 L 553.75 699.16 L 555.22 699.18 L 556.69 699.21 L 558.17 699.18 L 559.64 699.20 L 561.11 699.15 L 562.58 699.11 L 564.06 699.15 L 565.53 699.16 L 567.00 699.13 L 568.47 699.21 L 569.94 699.13 L 571.42 699.13 L 572.89 699.19 L 574.36 699.20 L 575.83 699.12 L 577.31 699.16 L 578.78 699.19 L 580.25 699.16 L 581.72 699.17 L 583.19 699.15 L 584.67 699.20 L 586.14 699.14 L 587.61 699.10 L 589.08 699.16 L 590.56 699.10 L 592.03 699.12 L 593.50 699.14 L 594.97 699.17 L 596.44 699.16 L 597.92 699.19 L 599.39 699.16 L 600.86 699.15 L 602.33 699.15 L 603.81 699.12 L 605.28 699.18 L 606.75 699.18 L 608.22 699.21 L 609.69 699.21 L 611.17 699.13 L 612.64 699.20 L 614.11 699.18 L 615.58 699.14 L 617.06 699.18 L 618.53 699.17 L 620.00 699.18 L 621.47 699.18 L 622.94 699.16 L 624.42 699.21 L 625.89 699.21 L 627.36 699.12 L 628.83 699.20 L 630.31 699.17 L 631.78 699.14 L 633.25 699.21 L 634.72 699.16 L 636.19 699.09 L 637.67 699.05 L 639.14 699.19 L 640.61 699.16 L 642.08 699.02 L 643.56 699.18 L 645.03 699.13 L 646.50 699.16 L 647.97 699.16 L 649.44 699.07 L 650.92 699.18 L 652.39 699.14 L 653.86 699.17 L 655.33 699.17 L 656.81 699.23 L 658.28 699.09 L 659.75 699.16 L 661.22 699.21 L 662.69 699.22 L 664.17 699.15 L 665.64 699.19 L 667.11 699.20 L 668.58 699.11 L 670.06 699.18 L 671.53 699.15 L 673.00 699.16 L 674.47 699.13 L 675.94 699.17 L 677.42 699.17 L 678.89 699.20 L 680.36 699.20 L 681.83 699.16 L 683.31 699.13 L 684.78 699.23 L 686.25 699.16 L 687.72 699.20 L 689.19 699.20 L 690.67 699.11 L 692.14 699.01 L 693.61 699.21 L 695.08 699.12 L 696.56 699.14 L 698.03 699.14 L 699.50 699.21 L 700.97 699.19 L 702.44 699.16 L 703.92 699.20 L 705.39 699.19 L 706.86 699.22 L 708.33 699.21 L 709.81 699.07 L 711.28 699.14 L 712.75 699.11 L 714.22 699.19 L 715.69 699.17 L 717.17 699.12 L 718.64 699.16 L 720.11 699.21 L 721.58 699.14 L 723.06 699.20 L 724.53 699.20 L 726.00 699.07 L 727.47 699.17 L 728.94 699.19 L 730.42 699.14 L 731.89 699.13 L 733.36 699.08 L 734.83 699.14 L 736.31 699.17 L 737.78 699.20 L 739.25 699.16 L 740.72 699.12 L 742.19 699.22 L 743.67 699.13 L 745.14 699.16 L 746.61 699.05 L 748.08 699.20 L 749.56 699.14 L 751.03 699.10 L 752.50 699.20 L 753.97 699.20 L 755.44 699.19 L 756.92 699.15 L 758.39 699.18 L 759.86 699.22 L 761.33 699.11 L 762.81 699.15 L 764.28 699.18 L 765.75 699.17 L 767.22 698.98 L 768.69 699.19 L 770.17 699.02 L 771.64 699.16 L 773.11 699.22 L 774.58 699.10 L 776.06 699.12 L 777.53 699.19 L 779.00 699.17 L 780.47 699.12 L 781.94 699.16 L 783.42 699.17 L 784.89 699.19 L 786.36 699.16 L 787.83 699.11 L 789.31 699.20 L 790.78 699.12 L 792.25 699.12 L 793.72 699.15 L 795.19 699.11 L 796.67 698.72 L 798.14 699.10 L 799.61 686.93 L 801.08 685.01 L 802.56 695.37 L 804.03 681.72 L 805.50 696.75 L 806.97 693.50 L 808.44 690.17 L 809.92 681.53 L 811.39 697.14 L 812.86 696.88 L 814.33 683.60 L 815.81 692.89 L 817.28 689.77 L 818.75 687.83 L 820.22 686.78 L 821.69 697.91 L 823.17 689.82 L 824.64 691.72 L 826.11 692.74 L 827.58 691.93 L 829.06 693.99 L 830.53 693.97 L 832.00 687.84 L 833.47 682.98 L 834.94 696.01 L 836.42 691.78 L 837.89 678.65 L 839.36 695.18 L 840.83 682.23 L 842.31 687.22 L 843.78 681.68 L 845.25 681.35 L 846.72 672.93 L 848.19 692.73 L 849.67 692.51 L 851.14 692.18 L 852.61 693.01 L 854.08 694.45 L 855.56 694.75 L 857.03 688.93 L 858.50 696.89 L 859.97 693.67 L 861.44 691.99 L 862.92 692.02 L 864.39 692.02 L 865.86 696.77 L 867.33 698.41 L 868.81 693.47 L 870.28 695.15 L 871.75 694.05 L 873.22 693.66 L 874.69 695.18 L 876.17 695.57 L 877.64 694.02 L 879.11 689.80 L 880.58 692.23 L 882.06 692.68 L 883.53 689.82 L 885.00 692.54 L 886.47 695.08 L 887.94 687.38 L 889.42 697.67 L 890.89 696.84 L 892.36 695.79 L 893.83 697.80 L 895.31 696.45 L 896.78 698.73 L 898.25 697.75 L 899.72 696.38 L 901.19 698.20 L 902.67 696.92 L 904.14 698.18 L 905.61 698.48 L 907.08 695.84 L 908.56 694.28 L 910.03 697.75 L 911.50 694.11 L 912.97 688.25 L 914.44 696.03 L 915.92 696.04 L 917.39 690.30 L 918.86 696.05 L 920.33 697.33 L 921.81 698.92 L 923.28 699.15 L 924.75 699.18 L 926.22 699.19 L 927.69 699.11 L 929.17 699.17 L 930.64 699.19 L 932.11 699.19 L 933.58 699.15 L 935.06 699.23 L 936.53 699.10 L 938.00 699.10 L 939.47 699.15 L 940.94 699.15 L 942.42 699.07 L 943.89 699.16 L 945.36 699.17 L 946.83 699.15 L 948.31 699.17 L 949.78 699.19 L 951.25 699.12 L 952.72 699.19 L 954.19 699.13 L 955.67 699.11 L 957.14 699.14 L 958.61 699.20 L 960.08 699.18 L 961.56 699.10 L 963.03 699.20 L 964.50 699.13 L 965.97 699.16 L 967.44 699.17 L 968.92 699.18 L 970.39 699.19 L 971.86 699.19 L 973.33 699.18 L 974.81 688.58 L 976.28 686.90 L 977.75 694.74 L 979.22 698.19 L 980.69 698.85 L 982.17 698.54 L 983.64 698.75 L 985.11 699.07 L 986.58 697.18 L 988.06 696.96 L 989.53 693.80 L 991.00 690.10 L 992.47 692.71 L 993.94 695.23 L 995.42 690.89 L 996.89 690.48 L 998.36 681.40 L 999.83 693.60 L 1001.31 687.75 L 1002.78 693.12 L 1004.25 696.17 L 1005.72 695.68 L 1007.19 695.19 L 1008.67 696.27 L 1010.14 694.24 L 1011.61 694.73 L 1013.08 695.66 L 1014.56 698.34 L 1016.03 698.02 L 1017.50 697.37 L 1018.97 698.80 L 1020.44 698.93 L 1021.92 699.09 L 1023.39 699.14 L 1024.86 699.17 L 1026.33 699.13 L 1027.81 699.21 L 1029.28 699.17 L 1030.75 699.11 L 1032.22 699.16 L 1033.69 699.15 L 1035.17 699.17 L 1036.64 699.17 L 1038.11 699.17 L 1039.58 699.16 L 1041.06 699.22 L 1042.53 699.08 L 1044.00 699.12 L 1045.47 695.64 L 1046.94 694.78 L 1048.42 696.42 L 1049.89 698.59 L 1051.36 698.93 L 1052.83 699.07 L 1054.31 698.76 L 1055.78 698.92 L 1057.25 698.96 L 1058.72 698.82 L 1060.19 698.92 L 1061.67 698.87 L 1063.14 698.97 L 1064.61 699.07 L 1066.08 699.15 L 1067.56 699.21" stroke="#FB8C00" />
<text x="90" y="711.25" font-size="14" font-weight="700">Giroscópio (magnitude) (u.a.)</text>
<rect class="event" x="443.33" y="717.25" width="359.22" height="192.75" />
<line class="eventline" x1="443.33" y1="717.25" x2="443.33" y2="910.00" />
<line class="eventline" x1="802.56" y1="717.25" x2="802.56" y2="910.00" />
<line class="grid" x1="90" y1="910.00" x2="1150" y2="910.00" />
<text class="small" x="80" y="914.00" text-anchor="end">0.00</text>
<line class="grid" x1="90" y1="871.45" x2="1150" y2="871.45" />
<text class="small" x="80" y="875.45" text-anchor="end">0.10</text>
<line class="grid" x1="90" y1="832.90" x2="1150" y2="832.90" />
<text class="small" x="80" y="836.90" text-anchor="end">0.20</text>
<line class="grid" x1="90" y1="794.35" x2="1150" y2="794.35" />
<text class="small" x="80" y="798.35" text-anchor="end">0.30</text>
<line class="grid" x1="90" y1="755.80" x2="1150" y2="755.80" />
<text class="small" x="80" y="759.80" text-anchor="end">0.40</text>
<line class="grid" x1="90" y1="717.25" x2="1150" y2="717.25" />
<text class="small" x="80" y="721.25" text-anchor="end">0.50</text>
<line class="grid" x1="90.00" y1="717.25" x2="90.00" y2="910.00" />
<line class="grid" x1="266.67" y1="717.25" x2="266.67" y2="910.00" />
<line class="grid" x1="443.33" y1="717.25" x2="443.33" y2="910.00" />
<line class="grid" x1="620.00" y1="717.25" x2="620.00" y2="910.00" />
<line class="grid" x1="796.67" y1="717.25" x2="796.67" y2="910.00" />
<line class="grid" x1="973.33" y1="717.25" x2="973.33" y2="910.00" />
<line class="grid" x1="1150.00" y1="717.25" x2="1150.00" y2="910.00" />
<line class="axis" x1="90" y1="717.25" x2="90" y2="910.00" />
<line class="axis" x1="90" y1="910.00" x2="1150" y2="910.00" />
<path class="series" d="M 178.33 898.94 L 179.81 897.28 L 181.28 898.71 L 182.75 896.88 L 184.22 897.29 L 185.69 899.50 L 187.17 907.41 L 188.64 900.14 L 190.11 900.74 L 191.58 898.70 L 193.06 903.66 L 194.53 905.51 L 196.00 904.90 L 197.47 907.68 L 198.94 899.72 L 200.42 892.30 L 201.89 892.30 L 203.36 876.33 L 204.83 861.70 L 206.31 846.87 L 207.78 843.34 L 209.25 833.87 L 210.72 821.46 L 212.19 822.38 L 213.67 855.47 L 215.14 880.34 L 216.61 875.40 L 218.08 824.28 L 219.56 791.01 L 221.03 795.00 L 222.50 825.03 L 223.97 879.42 L 225.44 886.31 L 226.92 862.29 L 228.39 848.96 L 229.86 850.19 L 231.33 872.91 L 232.81 888.05 L 234.28 888.54 L 235.75 896.87 L 237.22 900.25 L 238.69 898.37 L 240.17 904.36 L 241.64 905.05 L 243.11 897.14 L 244.58 905.13 L 246.06 908.16 L 247.53 904.03 L 249.00 904.22 L 250.47 904.96 L 251.94 903.85 L 253.42 902.20 L 254.89 905.25 L 256.36 906.56 L 257.83 907.93 L 259.31 906.76 L 260.78 908.07 L 262.25 904.67 L 263.72 903.67 L 265.19 907.68 L 266.67 905.78 L 268.14 904.73 L 269.61 907.43 L 271.08 907.50 L 272.56 904.71 L 274.03 905.05 L 275.50 906.85 L 276.97 905.32 L 278.44 902.60 L 279.92 907.04 L 281.39 906.78 L 282.86 903.18 L 284.33 894.76 L 285.81 893.84 L 287.28 885.22 L 288.75 883.19 L 290.22 879.25 L 291.69 873.92 L 293.17 872.26 L 294.64 872.46 L 296.11 873.13 L 297.58 884.51 L 299.06 893.53 L 300.53 901.45 L 302.00 899.20 L 303.47 907.26 L 304.94 904.99 L 306.42 897.40 L 307.89 892.26 L 309.36 873.83 L 310.83 856.00 L 312.31 857.40 L 313.78 859.97 L 315.25 879.51 L 316.72 888.03 L 318.19 890.32 L 319.67 882.36 L 321.14 899.84 L 322.61 904.65 L 324.08 908.11 L 325.56 904.28 L 327.03 893.47 L 328.50 882.40 L 329.97 882.14 L 331.44 881.00 L 332.92 881.03 L 334.39 894.20 L 335.86 895.87 L 337.33 899.85 L 338.81 898.53 L 340.28 896.04 L 341.75 892.95 L 343.22 899.13 L 344.69 903.10 L 346.17 903.17 L 347.64 901.90 L 349.11 906.28 L 350.58 904.62 L 352.06 900.21 L 353.53 892.96 L 355.00 883.78 L 356.47 852.25 L 357.94 838.66 L 359.42 856.18 L 360.89 884.90 L 362.36 874.47 L 363.83 870.22 L 365.31 870.22 L 366.78 895.43 L 368.25 867.58 L 369.72 886.15 L 371.19 888.92 L 372.67 884.76 L 374.14 890.34 L 375.61 899.00 L 377.08 889.68 L 378.56 897.82 L 380.03 902.98 L 381.50 898.57 L 382.97 899.31 L 384.44 906.76 L 385.92 906.08 L 387.39 884.51 L 388.86 872.71 L 390.33 890.82 L 391.81 895.88 L 393.28 884.97 L 394.75 896.21 L 396.22 902.01 L 397.69 887.83 L 399.17 883.18 L 400.64 884.65 L 402.11 900.53 L 403.58 882.51 L 405.06 881.95 L 406.53 885.89 L 408.00 888.02 L 409.47 889.16 L 410.94 887.97 L 412.42 894.65 L 413.89 889.88 L 415.36 888.25 L 416.83 886.97 L 418.31 891.70 L 419.78 881.81 L 421.25 889.96 L 422.72 870.06 L 424.19 865.54 L 425.67 884.96 L 427.14 894.09 L 428.61 906.82 L 430.08 906.36 L 431.56 894.18 L 433.03 895.80 L 434.50 884.63 L 435.97 882.31 L 437.44 892.66 L 438.92 897.08 L 440.39 888.32 L 441.86 893.65 L 443.33 907.38 L 444.81 908.72 L 446.28 909.02 L 447.75 909.15 L 449.22 909.19 L 450.69 909.15 L 452.17 909.08 L 453.64 909.15 L 455.11 909.12 L 456.58 909.14 L 458.06 909.11 L 459.53 909.13 L 461.00 909.13 L 462.47 909.26 L 463.94 909.90 L 465.42 909.93 L 466.89 909.89 L 468.36 909.95 L 469.83 909.91 L 471.31 909.94 L 472.78 909.97 L 474.25 909.97 L 475.72 909.97 L 477.19 909.97 L 478.67 909.94 L 480.14 909.94 L 481.61 909.95 L 483.08 909.94 L 484.56 909.93 L 486.03 909.93 L 487.50 909.94 L 488.97 909.93 L 490.44 909.92 L 491.92 909.93 L 493.39 909.91 L 494.86 909.94 L 496.33 909.92 L 497.81 909.92 L 499.28 909.94 L 500.75 909.92 L 502.22 909.94 L 503.69 909.93 L 505.17 909.97 L 506.64 909.92 L 508.11 909.96 L 509.58 909.94 L 511.06 909.97 L 512.53 909.92 L 514.00 909.93 L 515.47 909.93 L 516.94 909.92 L 518.42 909.92 L 519.89 909.91 L 521.36 909.95 L 522.83 909.95 L 524.31 909.95 L 525.78 909.91 L 527.25 909.96 L 528.72 909.94 L 530.19 909.93 L 531.67 909.93 L 533.14 909.93 L 534.61 909.92 L 536.08 909.95 L 537.56 909.86 L 539.03 909.79 L 540.50 909.83 L 541.97 909.82 L 543.44 909.77 L 544.92 909.88 L 546.39 909.93 L 547.86 909.95 L 549.33 909.96 L 550.81 909.91 L 552.28 909.95 L 553.75 909.92 L 555.22 909.93 L 556.69 909.92 L 558.17 909.93 L 559.64 909.97 L 561.11 909.89 L 562.58 909.91 L 564.06 909.96 L 565.53 909.91 L 567.00 909.95 L 568.47 909.95 L 569.94 909.92 L 571.42 909.95 L 572.89 909.95 L 574.36 909.94 L 575.83 909.96 L 577.31 909.93 L 578.78 909.89 L 580.25 909.93 L 581.72 909.87 L 583.19 909.93 L 584.67 909.96 L 586.14 909.90 L 587.61 909.90 L 589.08 909.89 L 590.56 909.88 L 592.03 909.91 L 593.50 909.91 L 594.97 909.96 L 596.44 909.88 L 597.92 909.93 L 599.39 909.91 L 600.86 909.93 L 602.33 909.90 L 603.81 909.92 L 605.28 909.92 L 606.75 909.91 L 608.22 909.93 L 609.69 909.93 L 611.17 909.94 L 612.64 909.90 L 614.11 909.91 L 615.58 909.91 L 617.06 909.91 L 618.53 909.91 L 620.00 909.91 L 621.47 909.92 L 622.94 909.87 L 624.42 909.88 L 625.89 909.88 L 627.36 909.95 L 628.83 909.94 L 630.31 909.94 L 631.78 909.97 L 633.25 909.96 L 634.72 909.94 L 636.19 909.96 L 637.67 909.92 L 639.14 909.94 L 640.61 909.81 L 642.08 909.92 L 643.56 909.95 L 645.03 909.89 L 646.50 909.87 L 647.97 909.91 L 649.44 909.90 L 650.92 909.95 L 652.39 909.92 L 653.86 909.96 L 655.33 909.83 L 656.81 909.87 L 658.28 909.95 L 659.75 909.82 L 661.22 909.89 L 662.69 909.93 L 664.17 909.98 L 665.64 909.87 L 667.11 909.93 L 668.58 909.94 L 670.06 909.86 L 671.53 909.87 L 673.00 909.96 L 674.47 909.95 L 675.94 909.98 L 677.42 909.83 L 678.89 909.91 L 680.36 909.95 L 681.83 909.84 L 683.31 909.93 L 684.78 909.85 L 686.25 909.86 L 687.72 909.92 L 689.19 909.89 L 690.67 909.93 L 692.14 909.95 L 693.61 909.90 L 695.08 909.86 L 696.56 909.90 L 698.03 909.90 L 699.50 909.89 L 700.97 909.90 L 702.44 909.82 L 703.92 909.93 L 705.39 909.92 L 706.86 909.98 L 708.33 909.95 L 709.81 909.97 L 711.28 909.97 L 712.75 909.85 L 714.22 909.89 L 715.69 909.94 L 717.17 909.94 L 718.64 909.95 L 720.11 909.96 L 721.58 909.86 L 723.06 909.91 L 724.53 909.94 L 726.00 909.92 L 727.47 909.92 L 728.94 909.95 L 730.42 909.93 L 731.89 909.94 L 733.36 909.98 L 734.83 909.86 L 736.31 909.86 L 737.78 909.94 L 739.25 909.93 L 740.72 909.90 L 742.19 909.90 L 743.67 909.97 L 745.14 909.96 L 746.61 909.88 L 748.08 909.84 L 749.56 909.84 L 751.03 909.92 L 752.50 909.92 L 753.97 909.91 L 755.44 909.90 L 756.92 909.92 L 758.39 909.89 L 759.86 909.92 L 761.33 909.92 L 762.81 909.86 L 764.28 909.95 L 765.75 909.88 L 767.22 909.87 L 768.69 909.90 L 770.17 909.97 L 771.64 909.95 L 773.11 909.86 L 774.58 909.88 L 776.06 909.90 L 777.53 909.96 L 779.00 909.84 L 780.47 909.90 L 781.94 909.90 L 783.42 909.86 L 784.89 909.90 L 786.36 909.90 L 787.83 909.87 L 789.31 909.90 L 790.78 909.92 L 792.25 909.86 L 793.72 909.78 L 795.19 909.92 L 796.67 909.93 L 798.14 909.88 L 799.61 909.00 L 801.08 904.65 L 802.56 902.61 L 804.03 905.48 L 805.50 903.59 L 806.97 901.44 L 808.44 900.98 L 809.92 903.65 L 811.39 902.35 L 812.86 905.09 L 814.33 904.41 L 815.81 900.68 L 817.28 895.61 L 818.75 903.13 L 820.22 901.21 L 821.69 901.15 L 823.17 899.28 L 824.64 901.73 L 826.11 890.12 L 827.58 891.74 L 829.06 895.27 L 830.53 889.68 L 832.00 887.49 L 833.47 894.61 L 834.94 891.53 L 836.42 888.78 L 837.89 881.27 L 839.36 873.69 L 840.83 872.79 L 842.31 876.87 L 843.78 873.15 L 845.25 884.42 L 846.72 871.37 L 848.19 886.55 L 849.67 894.27 L 851.14 882.33 L 852.61 882.13 L 854.08 882.56 L 855.56 876.81 L 857.03 877.08 L 858.50 880.90 L 859.97 873.83 L 861.44 873.87 L 862.92 876.44 L 864.39 876.44 L 865.86 879.97 L 867.33 879.15 L 868.81 877.62 L 870.28 868.52 L 871.75 865.78 L 873.22 870.92 L 874.69 878.58 L 876.17 886.73 L 877.64 893.20 L 879.11 909.21 L 880.58 905.50 L 882.06 901.84 L 883.53 899.50 L 885.00 904.67 L 886.47 905.71 L 887.94 904.01 L 889.42 905.15 L 890.89 902.51 L 892.36 903.57 L 893.83 905.47 L 895.31 907.87 L 896.78 902.66 L 898.25 903.78 L 899.72 904.79 L 901.19 904.79 L 902.67 906.25 L 904.14 907.11 L 905.61 905.90 L 907.08 904.87 L 908.56 899.30 L 910.03 899.25 L 911.50 898.02 L 912.97 899.75 L 914.44 903.25 L 915.92 905.15 L 917.39 907.70 L 918.86 909.27 L 920.33 909.76 L 921.81 909.74 L 923.28 909.93 L 924.75 909.86 L 926.22 909.88 L 927.69 909.82 L 929.17 909.90 L 930.64 909.89 L 932.11 909.95 L 933.58 909.92 L 935.06 909.96 L 936.53 909.94 L 938.00 909.93 L 939.47 909.90 L 940.94 909.89 L 942.42 909.86 L 943.89 909.88 L 945.36 909.93 L 946.83 909.88 L 948.31 909.87 L 949.78 909.86 L 951.25 909.92 L 952.72 909.93 L 954.19 909.94 L 955.67 909.91 L 957.14 909.94 L 958.61 909.97 L 960.08 909.98 L 961.56 909.96 L 963.03 909.98 L 964.50 909.93 L 965.97 909.92 L 967.44 909.95 L 968.92 909.89 L 970.39 909.95 L 971.86 909.93 L 973.33 909.93 L 974.81 906.57 L 976.28 909.32 L 977.75 909.61 L 979.22 909.82 L 980.69 909.78 L 982.17 909.92 L 983.64 909.88 L 985.11 909.44 L 986.58 909.19 L 988.06 905.90 L 989.53 906.18 L 991.00 896.21 L 992.47 891.06 L 993.94 889.95 L 995.42 884.87 L 996.89 865.76 L 998.36 883.53 L 999.83 886.53 L 1001.31 905.13 L 1002.78 905.20 L 1004.25 900.23 L 1005.72 903.82 L 1007.19 904.96 L 1008.67 904.36 L 1010.14 908.19 L 1011.61 907.92 L 1013.08 909.15 L 1014.56 909.91 L 1016.03 909.25 L 1017.50 909.90 L 1018.97 909.82 L 1020.44 909.96 L 1021.92 909.95 L 1023.39 909.96 L 1024.86 909.97 L 1026.33 909.96 L 1027.81 909.95 L 1029.28 909.96 L 1030.75 909.91 L 1032.22 909.94 L 1033.69 909.96 L 1035.17 909.89 L 1036.64 909.96 L 1038.11 909.96 L 1039.58 909.97 L 1041.06 909.97 L 1042.53 909.97 L 1044.00 909.94 L 1045.47 907.54 L 1046.94 909.16 L 1048.42 908.87 L 1049.89 909.90 L 1051.36 909.94 L 1052.83 909.42 L 1054.31 909.16 L 1055.78 909.19 L 1057.25 909.19 L 1058.72 909.14 L 1060.19 909.17 L 1061.67 909.07 L 1063.14 909.89 L 1064.61 909.93 L 1066.08 909.93 L 1067.56 909.90" stroke="#E53935" />
<text x="620.00" y="952" font-size="15" text-anchor="middle">minutos (relativo ao início do evento)</text>
<text class="small" x="90.00" y="936" text-anchor="middle">-4.00</text>
<text class="small" x="266.67" y="936" text-anchor="middle">-2.00</text>
<text class="small" x="443.33" y="936" text-anchor="middle">0.00</text>
<text class="small" x="620.00" y="936" text-anchor="middle">2.00</text>
<text class="small" x="796.67" y="936" text-anchor="middle">4.00</text>
<text class="small" x="973.33" y="936" text-anchor="middle">6.00</text>
<text class="small" x="1150.00" y="936" text-anchor="middle">8.00</text>
</svg>