<?xml version="1.0" encoding="UTF-8"?>
<svg xmlns="http://www.w3.org/2000/svg" width="1180" height="980" viewBox="0 0 1180 980">
<style>
text { font-family: -apple-system, BlinkMacSystemFont, 'Segoe UI', Roboto, Helvetica, Arial, sans-serif; fill: #111; }
.small { font-size: 12px; fill: #222; }
.title { font-size: 18px; font-weight: 700; }
.axis { stroke: #111; stroke-width: 1.4; }
.grid { stroke: #E6E6E6; stroke-width: 1; }
.event { fill: #FFEB3B; fill-opacity: 0.18; }
.eventline { stroke: #F9A825; stroke-width: 1.2; stroke-dasharray: 4 3; }
.series { fill: none; stroke-width: 1.8; }
</style>
<text class="title" x="90" y="34">ciclo 20 — espera_carregamento — 2025-12-13T05:33:33-03:00 → 2025-12-13T05:35:08-03:00 (span 95s, dur 96s)</text>
<text class="small" x="90" y="54">GPS: -11.699122,-47.157170  hotspot: -11.699,-47.157</text>
<text class="small" x="90" y="70">Janela: -3.00 → 4.58 min (relativo ao início do evento)</text>
<text x="90" y="79.00" font-size="14" font-weight="700">Velocidade (km/h)</text>
<rect class="event" x="443.33" y="85.00" width="139.86" height="192.75" />
<line class="eventline" x1="443.33" y1="85.00" x2="443.33" y2="277.75" />
<line class="eventline" x1="583.19" y1="85.00" x2="583.19" y2="277.75" />
<line class="grid" x1="90" y1="277.75" x2="1150" y2="277.75" />
<text class="small" x="80" y="281.75" text-anchor="end">0.00</text>
<line class="grid" x1="90" y1="239.20" x2="1150" y2="239.20" />
<text class="small" x="80" y="243.20" text-anchor="end">10.0</text>
<line class="grid" x1="90" y1="200.65" x2="1150" y2="200.65" />
<text class="small" x="80" y="204.65" text-anchor="end">20.0</text>
<line class="grid" x1="90" y1="162.10" x2="1150" y2="162.10" />
<text class="small" x="80" y="166.10" text-anchor="end">30.0</text>
<line class="grid" x1="90" y1="123.55" x2="1150" y2="123.55" />
<text class="small" x="80" y="127.55" text-anchor="end">40.0</text>
<line class="grid" x1="90" y1="85.00" x2="1150" y2="85.00" />
<text class="small" x="80" y="89.00" text-anchor="end">50.0</text>
<line class="grid" x1="90.00" y1="85.00" x2="90.00" y2="277.75" />
<line class="grid" x1="266.67" y1="85.00" x2="266.67" y2="277.75" />
<line class="grid" x1="443.33" y1="85.00" x2="443.33" y2="277.75" />
<line class="grid" x1="620.00" y1="85.00" x2="620.00" y2="277.75" />
<line class="grid" x1="796.67" y1="85.00" x2="796.67" y2="277.75" />
<line class="grid" x1="973.33" y1="85.00" x2="973.33" y2="277.75" />
<line class="grid" x1="1150.00" y1="85.00" x2="1150.00" y2="277.75" />
<line class="axis" x1="90" y1="85.00" x2="90" y2="277.75" />
<line class="axis" x1="90" y1="277.75" x2="1150" y2="277.75" />
<path class="series" d="M 178.33 158.54 L 179.81 160.34 L 181.28 164.09 L 182.75 164.23 L 184.22 165.20 L 185.69 159.65 L 187.17 157.84 L 188.64 155.21 L 190.11 156.60 L 191.58 154.24 L 193.06 151.04 L 194.53 151.46 L 196.00 152.15 L 197.47 152.29 L 198.94 152.43 L 200.42 155.62 L 201.89 156.73 L 203.36 157.15 L 204.83 157.71 L 206.31 157.57 L 207.78 158.40 L 209.25 158.40 L 210.72 158.40 L 212.19 157.15 L 213.67 154.51 L 215.14 153.54 L 216.61 152.99 L 218.08 153.26 L 219.56 162.29 L 221.03 154.79 L 222.50 153.26 L 223.97 156.04 L 225.44 156.87 L 226.92 152.85 L 228.39 154.65 L 229.86 155.35 L 231.33 157.71 L 232.81 155.62 L 234.28 156.60 L 235.75 157.29 L 237.22 158.54 L 238.69 159.09 L 240.17 157.57 L 241.64 159.93 L 243.11 161.17 L 244.58 161.31 L 246.06 160.90 L 247.53 167.98 L 249.00 165.48 L 250.47 167.14 L 251.94 171.17 L 253.42 169.09 L 254.89 161.45 L 256.36 168.81 L 257.83 167.70 L 259.31 169.92 L 260.78 173.11 L 262.25 172.55 L 263.72 173.25 L 265.19 173.80 L 266.67 168.53 L 268.14 167.98 L 269.61 162.98 L 271.08 162.70 L 272.56 160.20 L 274.03 156.04 L 275.50 158.68 L 276.97 166.73 L 278.44 174.36 L 279.92 177.27 L 281.39 180.19 L 282.86 186.43 L 284.33 188.38 L 285.81 189.49 L 287.28 190.04 L 288.75 188.24 L 290.22 184.63 L 291.69 182.69 L 293.17 178.52 L 294.64 180.60 L 296.11 186.57 L 297.58 189.35 L 299.06 186.16 L 300.53 192.26 L 302.00 193.79 L 303.47 196.84 L 304.94 197.26 L 306.42 192.40 L 307.89 186.57 L 309.36 170.20 L 310.83 165.89 L 312.31 176.86 L 313.78 176.02 L 315.25 186.71 L 316.72 183.24 L 318.19 185.18 L 319.67 184.21 L 321.14 181.30 L 322.61 181.44 L 324.08 178.80 L 325.56 170.75 L 327.03 178.94 L 328.50 178.38 L 329.97 181.02 L 331.44 179.22 L 332.92 183.93 L 334.39 181.99 L 335.86 192.26 L 337.33 191.98 L 338.81 193.65 L 340.28 193.93 L 341.75 196.56 L 343.22 198.78 L 344.69 200.03 L 346.17 195.18 L 347.64 200.87 L 349.11 198.51 L 350.58 201.84 L 352.06 202.11 L 353.53 200.03 L 355.00 212.11 L 356.47 208.64 L 357.94 208.92 L 359.42 215.58 L 360.89 216.13 L 362.36 216.27 L 363.83 215.85 L 365.31 217.38 L 366.78 218.77 L 368.25 218.77 L 369.72 221.82 L 371.19 219.05 L 372.67 224.60 L 374.14 220.02 L 375.61 225.29 L 377.08 234.31 L 378.56 236.39 L 380.03 243.33 L 381.50 242.64 L 382.97 247.08 L 384.44 249.72 L 385.92 250.69 L 387.39 250.97 L 388.86 251.24 L 390.33 250.69 L 391.81 250.69 L 393.28 251.38 L 394.75 251.52 L 396.22 253.46 L 397.69 256.10 L 399.17 256.10 L 400.64 252.77 L 402.11 254.43 L 403.58 252.35 L 405.06 257.49 L 406.53 254.43 L 408.00 256.38 L 409.47 252.77 L 410.94 255.13 L 412.42 256.52 L 413.89 254.57 L 415.36 256.24 L 416.83 255.27 L 418.31 256.52 L 419.78 259.71 L 421.25 254.99 L 422.72 255.41 L 424.19 255.27 L 425.67 253.32 L 427.14 252.08 L 428.61 253.74 L 430.08 252.63 L 431.56 252.21 L 433.03 254.85 L 434.50 254.99 L 435.97 257.63 L 437.44 264.98 L 438.92 267.76 L 440.39 269.15 L 441.86 271.92 L 443.33 277.75 L 444.81 277.75 L 446.28 277.75 L 447.75 277.75 L 449.22 277.75 L 450.69 277.75 L 452.17 277.75 L 453.64 277.75 L 455.11 277.75 L 456.58 277.75 L 458.06 277.75 L 459.53 277.75 L 461.00 277.75 L 462.47 277.75 L 463.94 277.75 L 465.42 277.75 L 466.89 277.75 L 468.36 277.75 L 469.83 277.75 L 471.31 277.75 L 472.78 277.75 L 474.25 277.75 L 475.72 277.75 L 477.19 277.75 L 478.67 277.75 L 480.14 277.75 L 481.61 277.75 L 483.08 277.75 L 484.56 277.75 L 486.03 277.75 L 487.50 277.75 L 488.97 277.75 L 490.44 277.75 L 491.92 277.75 L 493.39 277.75 L 494.86 277.75 L 496.33 277.75 L 497.81 277.75 L 499.28 277.75 L 500.75 277.75 L 502.22 277.75 L 503.69 277.75 L 505.17 277.75 L 506.64 277.75 L 508.11 277.75 L 509.58 277.75 L 511.06 277.75 L 512.53 277.75 L 514.00 277.75 L 515.47 277.75 L 516.94 277.75 L 518.42 277.75 L 519.89 277.75 L 521.36 277.75 L 522.83 277.75 L 524.31 277.75 L 525.78 277.75 L 527.25 277.75 L 528.72 277.75 L 530.19 277.75 L 531.67 277.75 L 533.14 277.75 L 534.61 277.75 L 536.08 277.75 L 537.56 277.75 L 539.03 277.75 L 540.50 277.75 L 541.97 277.75 L 543.44 277.75 L 544.92 277.75 L 546.39 277.75 L 547.86 277.75 L 549.33 277.75 L 550.81 277.75 L 552.28 277.75 L 553.75 277.75 L 555.22 277.75 L 556.69 277.75 L 558.17 277.75 L 559.64 277.75 L 561.11 277.75 L 562.58 277.75 L 564.06 277.75 L 565.53 277.75 L 567.00 277.75 L 568.47 277.75 L 569.94 277.75 L 571.42 277.75 L 572.89 277.75 L 574.36 277.75 L 575.83 277.75 L 577.31 277.75 L 578.78 277.75 L 580.25 277.75 L 581.72 277.75 L 583.19 277.75 L 584.67 266.65 L 586.14 265.95 L 587.61 265.68 L 589.08 262.76 L 590.56 261.65 L 592.03 264.57 L 593.50 261.51 L 594.97 262.48 L 596.44 261.79 L 597.92 263.59 L 599.39 264.43 L 600.86 264.43 L 602.33 264.57 L 603.81 264.84 L 605.28 266.79 L 606.75 267.20 L 608.22 268.04 L 609.69 269.28 L 611.17 270.95 L 612.64 270.26 L 614.11 268.87 L 615.58 271.23 L 617.06 277.75 L 618.53 277.75 L 620.00 277.75 L 621.47 277.75 L 622.94 277.75 L 624.42 277.75 L 625.89 277.75 L 627.36 277.75 L 628.83 277.75 L 630.31 277.75 L 631.78 277.75 L 633.25 277.75 L 634.72 277.75 L 636.19 277.75 L 637.67 277.75 L 639.14 277.75 L 640.61 277.75 L 642.08 277.75 L 643.56 277.75 L 645.03 277.75 L 646.50 277.75 L 647.97 277.75 L 649.44 277.75 L 650.92 277.75 L 652.39 277.75 L 653.86 277.75 L 655.33 277.75 L 656.81 277.75 L 658.28 277.75 L 659.75 277.75 L 661.22 277.75 L 662.69 277.75 L 664.17 277.75 L 665.64 277.75 L 667.11 277.75 L 668.58 277.75 L 670.06 277.75 L 671.53 277.75 L 673.00 277.75 L 674.47 277.75 L 675.94 277.75 L 677.42 277.75 L 678.89 277.75 L 680.36 277.75 L 681.83 277.75 L 683.31 277.75 L 684.78 277.75 L 686.25 277.75 L 687.72 277.75 L 689.19 277.75 L 690.67 277.75 L 692.14 277.75 L 693.61 277.75 L 695.08 277.75 L 696.56 277.75 L 698.03 277.75 L 699.50 277.75 L 700.97 277.75 L 702.44 277.75 L 703.92 277.75 L 705.39 277.75 L 706.86 277.75 L 708.33 277.75 L 709.81 277.75 L 711.28 277.75 L 712.75 277.75 L 714.22 277.75 L 715.69 277.75 L 717.17 277.75 L 718.64 277.75 L 720.11 277.75 L 721.58 277.75 L 723.06 277.75 L 724.53 277.75 L 726.00 277.75 L 727.47 277.75 L 728.94 277.75 L 730.42 277.75 L 731.89 277.75 L 733.36 277.75 L 734.83 277.75 L 736.31 277.75 L 737.78 277.75 L 739.25 277.75 L 740.72 277.75 L 742.19 277.75 L 743.67 277.75 L 745.14 277.75 L 746.61 277.75 L 748.08 277.75 L 749.56 277.75 L 751.03 277.75 L 752.50 277.75 L 753.97 277.75 L 755.44 277.75 L 756.92 277.75 L 758.39 277.75 L 759.86 277.75 L 761.33 277.75 L 762.81 277.75 L 764.28 277.75 L 765.75 277.75 L 767.22 277.75 L 768.69 277.75 L 770.17 277.75 L 771.64 277.75 L 773.11 277.75 L 774.58 277.75 L 776.06 277.75 L 777.53 277.75 L 779.00 277.75 L 780.47 277.75 L 781.94 277.75 L 783.42 277.75 L 784.89 277.75 L 786.36 277.75 L 787.83 277.75 L 789.31 277.75 L 790.78 277.75 L 792.25 277.75 L 793.72 277.75 L 795.19 277.75 L 796.67 277.75 L 798.14 277.75 L 799.61 277.75 L 801.08 277.75 L 802.56 277.75 L 804.03 277.75 L 805.50 277.75 L 806.97 277.75 L 808.44 277.75 L 809.92 277.75 L 811.39 277.75 L 812.86 277.75 L 814.33 277.75 L 815.81 277.75 L 817.28 277.75 L 818.75 277.75 L 820.22 277.75 L 821.69 277.75 L 823.17 277.75 L 824.64 277.75 L 826.11 277.75 L 827.58 277.75 L 829.06 277.75 L 830.53 277.75 L 832.00 277.75 L 833.47 277.75 L 834.94 277.75 L 836.42 277.75 L 837.89 277.75 L 839.36 277.75 L 840.83 277.75 L 842.31 277.75 L 843.78 277.75 L 845.25 261.93 L 846.72 262.62 L 848.19 254.43" stroke="#1976D2" />
<text x="90" y="289.75" font-size="14" font-weight="700">Inclinação (graus)</text>
<rect class="event" x="443.33" y="295.75" width="139.86" height="192.75" />
<line class="eventline" x1="443.33" y1="295.75" x2="443.33" y2="488.50" />
<line class="eventline" x1="583.19" y1="295.75" x2="583.19" y2="488.50" />
<line class="grid" x1="90" y1="488.50" x2="1150" y2="488.50" />
<text class="small" x="80" y="492.50" text-anchor="end">-10.0</text>
<line class="grid" x1="90" y1="449.95" x2="1150" y2="449.95" />
<text class="small" x="80" y="453.95" text-anchor="end">0.00</text>
<line class="grid" x1="90" y1="411.40" x2="1150" y2="411.40" />
<text class="small" x="80" y="415.40" text-anchor="end">10.0</text>
<line class="grid" x1="90" y1="372.85" x2="1150" y2="372.85" />
<text class="small" x="80" y="376.85" text-anchor="end">20.0</text>
<line class="grid" x1="90" y1="334.30" x2="1150" y2="334.30" />
<text class="small" x="80" y="338.30" text-anchor="end">30.0</text>
<line class="grid" x1="90" y1="295.75" x2="1150" y2="295.75" />
<text class="small" x="80" y="299.75" text-anchor="end">40.0</text>
<line class="grid" x1="90.00" y1="295.75" x2="90.00" y2="488.50" />
<line class="grid" x1="266.67" y1="295.75" x2="266.67" y2="488.50" />
<line class="grid" x1="443.33" y1="295.75" x2="443.33" y2="488.50" />
<line class="grid" x1="620.00" y1="295.75" x2="620.00" y2="488.50" />
<line class="grid" x1="796.67" y1="295.75" x2="796.67" y2="488.50" />
<line class="grid" x1="973.33" y1="295.75" x2="973.33" y2="488.50" />
<line class="grid" x1="1150.00" y1="295.75" x2="1150.00" y2="488.50" />
<line class="axis" x1="90" y1="295.75" x2="90" y2="488.50" />
<line class="axis" x1="90" y1="488.50" x2="1150" y2="488.50" />
<path class="series" d="M 178.33 401.61 L 179.81 398.17 L 181.28 397.32 L 182.75 400.03 L 184.22 404.70 L 185.69 399.08 L 187.17 400.60 L 188.64 397.64 L 190.11 395.63 L 191.58 398.29 L 193.06 397.86 L 194.53 397.39 L 196.00 397.39 L 197.47 397.16 L 198.94 398.64 L 200.42 398.18 L 201.89 399.33 L 203.36 399.02 L 204.83 401.81 L 206.31 402.54 L 207.78 399.99 L 209.25 405.10 L 210.72 405.00 L 212.19 408.09 L 213.67 404.84 L 215.14 404.34 L 216.61 405.60 L 218.08 405.29 L 219.56 397.24 L 221.03 405.92 L 222.50 404.71 L 223.97 402.68 L 225.44 401.92 L 226.92 404.24 L 228.39 403.01 L 229.86 409.12 L 231.33 404.89 L 232.81 404.72 L 234.28 403.79 L 235.75 406.19 L 237.22 407.76 L 238.69 410.99 L 240.17 407.87 L 241.64 408.33 L 243.11 406.95 L 244.58 404.99 L 246.06 403.17 L 247.53 404.69 L 249.00 404.19 L 250.47 404.68 L 251.94 401.34 L 253.42 398.91 L 254.89 399.75 L 256.36 400.60 L 257.83 400.76 L 259.31 400.11 L 260.78 393.60 L 262.25 392.48 L 263.72 386.95 L 265.19 380.36 L 266.67 382.31 L 268.14 382.95 L 269.61 381.25 L 271.08 381.31 L 272.56 379.57 L 274.03 378.58 L 275.50 369.54 L 276.97 371.83 L 278.44 369.48 L 279.92 375.16 L 281.39 383.50 L 282.86 381.31 L 284.33 385.47 L 285.81 383.94 L 287.28 389.96 L 288.75 391.77 L 290.22 396.74 L 291.69 385.45 L 293.17 394.90 L 294.64 392.49 L 296.11 392.50 L 297.58 396.58 L 299.06 390.06 L 300.53 399.27 L 302.00 399.81 L 303.47 405.61 L 304.94 394.98 L 306.42 389.92 L 307.89 389.61 L 309.36 389.01 L 310.83 400.98 L 312.31 393.89 L 313.78 394.43 L 315.25 403.52 L 316.72 408.11 L 318.19 407.49 L 319.67 414.01 L 321.14 418.85 L 322.61 401.59 L 324.08 406.83 L 325.56 399.21 L 327.03 400.26 L 328.50 414.15 L 329.97 413.00 L 331.44 403.03 L 332.92 400.25 L 334.39 403.50 L 335.86 400.94 L 337.33 405.50 L 338.81 396.57 L 340.28 397.30 L 341.75 396.05 L 343.22 398.92 L 344.69 404.91 L 346.17 406.30 L 347.64 400.23 L 349.11 396.55 L 350.58 393.58 L 352.06 400.82 L 353.53 395.88 L 355.00 388.46 L 356.47 399.88 L 357.94 401.12 L 359.42 394.65 L 360.89 401.22 L 362.36 410.69 L 363.83 415.64 L 365.31 411.39 L 366.78 418.03 L 368.25 422.77 L 369.72 414.90 L 371.19 410.74 L 372.67 404.87 L 374.14 400.36 L 375.61 397.41 L 377.08 391.57 L 378.56 395.22 L 380.03 400.19 L 381.50 401.07 L 382.97 416.24 L 384.44 416.58 L 385.92 417.62 L 387.39 419.33 L 388.86 417.79 L 390.33 412.22 L 391.81 402.43 L 393.28 402.53 L 394.75 385.46 L 396.22 395.18 L 397.69 393.35 L 399.17 395.79 L 400.64 394.45 L 402.11 399.00 L 403.58 390.71 L 405.06 392.32 L 406.53 391.02 L 408.00 400.07 L 409.47 400.30 L 410.94 413.11 L 412.42 421.70 L 413.89 414.39 L 415.36 402.58 L 416.83 388.39 L 418.31 387.62 L 419.78 383.31 L 421.25 374.88 L 422.72 385.54 L 424.19 392.10 L 425.67 393.14 L 427.14 401.41 L 428.61 402.73 L 430.08 404.34 L 431.56 399.78 L 433.03 395.99 L 434.50 389.60 L 435.97 387.45 L 437.44 390.99 L 438.92 393.95 L 440.39 390.23 L 441.86 387.40 L 443.33 391.27 L 444.81 393.89 L 446.28 393.91 L 447.75 393.93 L 449.22 393.98 L 450.69 393.89 L 452.17 393.97 L 453.64 393.94 L 455.11 393.93 L 456.58 393.97 L 458.06 393.97 L 459.53 393.94 L 461.00 393.95 L 462.47 393.96 L 463.94 393.97 L 465.42 393.92 L 466.89 393.91 L 468.36 393.96 L 469.83 393.94 L 471.31 393.95 L 472.78 393.88 L 474.25 393.97 L 475.72 393.89 L 477.19 393.87 L 478.67 393.92 L 480.14 393.94 L 481.61 393.92 L 483.08 393.89 L 484.56 393.86 L 486.03 393.86 L 487.50 393.88 L 488.97 393.91 L 490.44 393.93 L 491.92 393.96 L 493.39 393.89 L 494.86 393.95 L 496.33 393.91 L 497.81 393.92 L 499.28 393.89 L 500.75 393.93 L 502.22 393.92 L 503.69 393.91 L 505.17 393.85 L 506.64 393.86 L 508.11 393.88 L 509.58 393.95 L 511.06 393.93 L 512.53 393.94 L 514.00 393.95 L 515.47 393.85 L 516.94 393.79 L 518.42 393.91 L 519.89 393.88 L 521.36 393.84 L 522.83 393.83 L 524.31 393.81 L 525.78 393.85 L 527.25 393.88 L 528.72 393.88 L 530.19 393.81 L 531.67 393.86 L 533.14 393.87 L 534.61 393.86 L 536.08 393.90 L 537.56 393.92 L 539.03 393.88 L 540.50 393.87 L 541.97 393.83 L 543.44 393.88 L 544.92 393.90 L 546.39 393.84 L 547.86 393.89 L 549.33 393.85 L 550.81 393.83 L 552.28 393.81 L 553.75 393.83 L 555.22 393.86 L 556.69 393.87 L 558.17 393.82 L 559.64 393.87 L 561.11 393.85 L 562.58 393.97 L 564.06 393.96 L 565.53 393.95 L 567.00 394.05 L 568.47 394.12 L 569.94 394.04 L 571.42 394.04 L 572.89 394.10 L 574.36 394.11 L 575.83 393.99 L 577.31 393.92 L 578.78 391.24 L 580.25 387.13 L 581.72 393.21 L 583.19 392.66 L 584.67 388.35 L 586.14 398.56 L 587.61 389.48 L 589.08 398.07 L 590.56 406.41 L 592.03 404.84 L 593.50 409.51 L 594.97 407.52 L 596.44 411.56 L 597.92 410.52 L 599.39 411.33 L 600.86 411.95 L 602.33 411.42 L 603.81 410.28 L 605.28 410.19 L 606.75 410.63 L 608.22 409.74 L 609.69 412.20 L 611.17 408.42 L 612.64 404.99 L 614.11 405.68 L 615.58 404.91 L 617.06 402.91 L 618.53 402.55 L 620.00 401.13 L 621.47 400.43 L 622.94 403.72 L 624.42 402.88 L 625.89 402.12 L 627.36 397.48 L 628.83 397.78 L 630.31 396.86 L 631.78 397.01 L 633.25 396.94 L 634.72 397.02 L 636.19 397.05 L 637.67 396.83 L 639.14 396.96 L 640.61 397.00 L 642.08 396.93 L 643.56 396.92 L 645.03 396.96 L 646.50 396.92 L 647.97 396.97 L 649.44 396.93 L 650.92 396.93 L 652.39 396.92 L 653.86 397.00 L 655.33 396.91 L 656.81 396.92 L 658.28 396.93 L 659.75 397.65 L 661.22 396.28 L 662.69 397.06 L 664.17 396.02 L 665.64 396.62 L 667.11 396.37 L 668.58 396.47 L 670.06 396.50 L 671.53 396.45 L 673.00 396.45 L 674.47 396.39 L 675.94 396.39 L 677.42 396.37 L 678.89 396.36 L 680.36 396.36 L 681.83 396.39 L 683.31 396.36 L 684.78 396.39 L 686.25 396.34 L 687.72 396.31 L 689.19 396.34 L 690.67 395.71 L 692.14 396.27 L 693.61 395.87 L 695.08 396.19 L 696.56 395.93 L 698.03 396.00 L 699.50 395.99 L 700.97 396.00 L 702.44 396.01 L 703.92 395.97 L 705.39 395.93 L 706.86 395.91 L 708.33 395.96 L 709.81 395.90 L 711.28 395.91 L 712.75 395.88 L 714.22 396.87 L 715.69 394.84 L 717.17 395.28 L 718.64 395.04 L 720.11 395.75 L 721.58 395.27 L 723.06 395.57 L 724.53 395.38 L 726.00 395.51 L 727.47 395.40 L 728.94 395.48 L 730.42 395.41 L 731.89 395.41 L 733.36 395.44 L 734.83 395.41 L 736.31 395.38 L 737.78 395.38 L 739.25 395.36 L 740.72 395.33 L 742.19 395.40 L 743.67 395.73 L 745.14 394.42 L 746.61 395.82 L 748.08 394.53 L 749.56 395.21 L 751.03 395.32 L 752.50 395.09 L 753.97 395.21 L 755.44 395.16 L 756.92 395.10 L 758.39 395.19 L 759.86 395.15 L 761.33 395.17 L 762.81 395.12 L 764.28 395.13 L 765.75 395.06 L 767.22 395.14 L 768.69 395.09 L 770.17 395.14 L 771.64 395.10 L 773.11 395.12 L 774.58 395.14 L 776.06 394.99 L 777.53 395.15 L 779.00 396.45 L 780.47 396.12 L 781.94 396.39 L 783.42 396.24 L 784.89 396.13 L 786.36 396.14 L 787.83 396.28 L 789.31 396.13 L 790.78 396.12 L 792.25 396.12 L 793.72 396.19 L 795.19 396.23 L 796.67 396.18 L 798.14 396.19 L 799.61 396.17 L 801.08 396.19 L 802.56 396.17 L 804.03 396.20 L 805.50 396.23 L 806.97 396.04 L 808.44 396.84 L 809.92 397.39 L 811.39 397.24 L 812.86 397.31 L 814.33 397.31 L 815.81 397.22 L 817.28 397.22 L 818.75 397.23 L 820.22 397.31 L 821.69 397.26 L 823.17 397.23 L 824.64 397.26 L 826.11 397.28 L 827.58 397.29 L 829.06 397.19 L 830.53 397.29 L 832.00 397.57 L 833.47 396.91 L 834.94 397.48 L 836.42 397.62 L 837.89 397.50 L 839.36 397.35 L 840.83 398.65 L 842.31 411.57 L 843.78 408.93 L 845.25 407.73 L 846.72 412.89 L 848.19 415.41" stroke="#2E7D32" />
<path class="series" d="M 178.33 442.32 L 179.81 440.49 L 181.28 437.99 L 182.75 438.00 L 184.22 441.05 L 185.69 441.05 L 187.17 445.16 L 188.64 442.37 L 190.11 440.81 L 191.58 439.81 L 193.06 444.11 L 194.53 441.35 L 196.00 441.35 L 197.47 442.63 L 198.94 442.72 L 200.42 444.43 L 201.89 446.68 L 203.36 449.87 L 204.83 449.57 L 206.31 451.50 L 207.78 450.89 L 209.25 449.18 L 210.72 441.11 L 212.19 444.12 L 213.67 441.76 L 215.14 447.47 L 216.61 448.59 L 218.08 445.95 L 219.56 445.47 L 221.03 443.26 L 222.50 437.85 L 223.97 434.97 L 225.44 434.01 L 226.92 437.65 L 228.39 430.33 L 229.86 426.57 L 231.33 429.33 L 232.81 420.84 L 234.28 417.09 L 235.75 425.28 L 237.22 441.05 L 238.69 434.37 L 240.17 435.04 L 241.64 430.13 L 243.11 421.28 L 244.58 429.80 L 246.06 425.40 L 247.53 430.55 L 249.00 430.27 L 250.47 448.05 L 251.94 421.37 L 253.42 406.42 L 254.89 399.50 L 256.36 414.88 L 257.83 448.86 L 259.31 432.18 L 260.78 433.03 L 262.25 434.83 L 263.72 438.44 L 265.19 436.75 L 266.67 435.65 L 268.14 432.80 L 269.61 436.08 L 271.08 431.63 L 272.56 428.93 L 274.03 435.60 L 275.50 439.84 L 276.97 432.64 L 278.44 430.55 L 279.92 439.15 L 281.39 443.06 L 282.86 450.28 L 284.33 446.11 L 285.81 444.52 L 287.28 447.59 L 288.75 442.07 L 290.22 440.39 L 291.69 439.33 L 293.17 423.93 L 294.64 401.31 L 296.11 411.03 L 297.58 437.15 L 299.06 437.09 L 300.53 409.48 L 302.00 415.91 L 303.47 404.74 L 304.94 411.17 L 306.42 435.59 L 307.89 440.84 L 309.36 442.88 L 310.83 456.36 L 312.31 450.79 L 313.78 449.18 L 315.25 451.71 L 316.72 450.13 L 318.19 433.98 L 319.67 426.07 L 321.14 439.09 L 322.61 440.78 L 324.08 438.78 L 325.56 455.76 L 327.03 454.88 L 328.50 448.10 L 329.97 459.02 L 331.44 461.62 L 332.92 448.75 L 334.39 444.54 L 335.86 446.04 L 337.33 439.87 L 338.81 441.34 L 340.28 445.57 L 341.75 439.66 L 343.22 436.19 L 344.69 427.22 L 346.17 423.40 L 347.64 421.85 L 349.11 436.76 L 350.58 445.67 L 352.06 462.50 L 353.53 453.02 L 355.00 448.65 L 356.47 434.96 L 357.94 433.46 L 359.42 448.20 L 360.89 447.40 L 362.36 442.52 L 363.83 447.43 L 365.31 458.25 L 366.78 460.44 L 368.25 459.74 L 369.72 455.06 L 371.19 455.39 L 372.67 452.54 L 374.14 441.76 L 375.61 446.93 L 377.08 447.76 L 378.56 452.47 L 380.03 446.20 L 381.50 450.33 L 382.97 450.72 L 384.44 450.74 L 385.92 455.56 L 387.39 442.35 L 388.86 444.02 L 390.33 455.25 L 391.81 453.71 L 393.28 453.28 L 394.75 462.67 L 396.22 452.44 L 397.69 449.80 L 399.17 447.35 L 400.64 449.06 L 402.11 453.69 L 403.58 439.44 L 405.06 428.54 L 406.53 444.82 L 408.00 438.09 L 409.47 439.63 L 410.94 439.70 L 412.42 447.27 L 413.89 456.43 L 415.36 446.39 L 416.83 465.10 L 418.31 456.83 L 419.78 463.65 L 421.25 463.19 L 422.72 460.18 L 424.19 463.50 L 425.67 463.19 L 427.14 453.42 L 428.61 459.47 L 430.08 469.40 L 431.56 474.61 L 433.03 464.98 L 434.50 457.94 L 435.97 457.66 L 437.44 456.17 L 438.92 461.58 L 440.39 458.53 L 441.86 460.96 L 443.33 463.30 L 444.81 463.28 L 446.28 462.96 L 447.75 463.20 L 449.22 463.08 L 450.69 463.27 L 452.17 463.18 L 453.64 463.19 L 455.11 463.29 L 456.58 463.15 L 458.06 463.16 L 459.53 463.21 L 461.00 463.25 L 462.47 463.19 L 463.94 463.15 L 465.42 463.21 L 466.89 463.22 L 468.36 463.19 L 469.83 463.22 L 471.31 463.22 L 472.78 463.21 L 474.25 463.19 L 475.72 463.19 L 477.19 463.18 L 478.67 463.16 L 480.14 463.13 L 481.61 463.11 L 483.08 463.17 L 484.56 463.16 L 486.03 463.16 L 487.50 463.17 L 488.97 463.16 L 490.44 463.20 L 491.92 463.16 L 493.39 463.21 L 494.86 463.20 L 496.33 463.17 L 497.81 463.14 L 499.28 463.19 L 500.75 463.22 L 502.22 463.19 L 503.69 463.15 L 505.17 463.18 L 506.64 463.17 L 508.11 463.14 L 509.58 463.13 L 511.06 463.25 L 512.53 463.19 L 514.00 463.12 L 515.47 463.16 L 516.94 463.17 L 518.42 463.15 L 519.89 463.15 L 521.36 463.12 L 522.83 463.18 L 524.31 463.14 L 525.78 463.16 L 527.25 463.13 L 528.72 463.11 L 530.19 463.13 L 531.67 463.17 L 533.14 463.11 L 534.61 463.19 L 536.08 463.16 L 537.56 463.10 L 539.03 463.13 L 540.50 463.17 L 541.97 463.20 L 543.44 463.08 L 544.92 463.16 L 546.39 463.19 L 547.86 463.11 L 549.33 463.13 L 550.81 463.12 L 552.28 463.17 L 553.75 463.17 L 555.22 463.13 L 556.69 463.11 L 558.17 463.15 L 559.64 463.13 L 561.11 463.18 L 562.58 463.11 L 564.06 463.13 L 565.53 462.99 L 567.00 463.42 L 568.47 463.23 L 569.94 463.35 L 571.42 463.27 L 572.89 463.24 L 574.36 463.27 L 575.83 463.28 L 577.31 463.18 L 578.78 462.95 L 580.25 461.09 L 581.72 459.33 L 583.19 463.39 L 584.67 457.56 L 586.14 461.41 L 587.61 457.31 L 589.08 464.81 L 590.56 467.39 L 592.03 459.16 L 593.50 456.88 L 594.97 462.89 L 596.44 455.44 L 597.92 458.23 L 599.39 453.73 L 600.86 446.70 L 602.33 452.23 L 603.81 452.21 L 605.28 453.87 L 606.75 453.17 L 608.22 454.62 L 609.69 451.82 L 611.17 451.69 L 612.64 457.06 L 614.11 459.82 L 615.58 459.38 L 617.06 460.42 L 618.53 465.30 L 620.00 460.64 L 621.47 458.91 L 622.94 462.00 L 624.42 456.04 L 625.89 453.56 L 627.36 457.11 L 628.83 454.87 L 630.31 455.31 L 631.78 456.17 L 633.25 455.27 L 634.72 455.71 L 636.19 455.64 L 637.67 455.42 L 639.14 455.88 L 640.61 455.69 L 642.08 455.76 L 643.56 455.69 L 645.03 455.77 L 646.50 455.72 L 647.97 455.75 L 649.44 455.66 L 650.92 455.79 L 652.39 455.77 L 653.86 455.77 L 655.33 455.70 L 656.81 455.81 L 658.28 455.79 L 659.75 456.31 L 661.22 456.55 L 662.69 455.80 L 664.17 456.68 L 665.64 456.69 L 667.11 456.16 L 668.58 456.68 L 670.06 456.75 L 671.53 456.42 L 673.00 456.57 L 674.47 456.71 L 675.94 456.55 L 677.42 456.56 L 678.89 456.61 L 680.36 456.61 L 681.83 456.64 L 683.31 456.55 L 684.78 456.60 L 686.25 456.62 L 687.72 456.72 L 689.19 456.45 L 690.67 455.30 L 692.14 456.50 L 693.61 456.20 L 695.08 455.97 L 696.56 455.69 L 698.03 455.80 L 699.50 456.08 L 700.97 456.06 L 702.44 455.91 L 703.92 455.79 L 705.39 455.98 L 706.86 455.91 L 708.33 455.96 L 709.81 455.92 L 711.28 455.93 L 712.75 455.87 L 714.22 456.51 L 715.69 454.38 L 717.17 455.76 L 718.64 455.79 L 720.11 455.51 L 721.58 455.50 L 723.06 455.46 L 724.53 455.47 L 726.00 455.52 L 727.47 455.55 L 728.94 455.55 L 730.42 455.49 L 731.89 455.55 L 733.36 455.57 L 734.83 455.56 L 736.31 455.50 L 737.78 455.56 L 739.25 455.49 L 740.72 455.51 L 742.19 455.57 L 743.67 455.70 L 745.14 454.01 L 746.61 456.74 L 748.08 455.49 L 749.56 455.56 L 751.03 455.57 L 752.50 455.51 L 753.97 455.50 L 755.44 455.59 L 756.92 455.52 L 758.39 455.54 L 759.86 455.59 L 761.33 455.56 L 762.81 455.51 L 764.28 455.56 L 765.75 455.57 L 767.22 455.57 L 768.69 455.52 L 770.17 455.50 L 771.64 455.58 L 773.11 455.56 L 774.58 455.59 L 776.06 455.55 L 777.53 455.96 L 779.00 455.62 L 780.47 455.54 L 781.94 455.46 L 783.42 455.46 L 784.89 455.68 L 786.36 455.53 L 787.83 455.65 L 789.31 455.62 L 790.78 455.64 L 792.25 455.64 L 793.72 455.65 L 795.19 455.64 L 796.67 455.65 L 798.14 455.63 L 799.61 455.64 L 801.08 455.58 L 802.56 455.66 L 804.03 455.52 L 805.50 455.65 L 806.97 455.71 L 808.44 455.73 L 809.92 456.69 L 811.39 456.37 L 812.86 456.23 L 814.33 456.31 L 815.81 456.35 L 817.28 456.41 L 818.75 456.35 L 820.22 456.43 L 821.69 456.45 L 823.17 456.44 L 824.64 456.35 L 826.11 456.36 L 827.58 456.41 L 829.06 456.43 L 830.53 456.39 L 832.00 456.73 L 833.47 456.32 L 834.94 456.21 L 836.42 456.64 L 837.89 456.41 L 839.36 456.63 L 840.83 456.21 L 842.31 457.90 L 843.78 461.82 L 845.25 458.61 L 846.72 458.88 L 848.19 463.59" stroke="#6A1B9A" />
<line x1="900.00" y1="307.75" x2="918.00" y2="307.75" stroke="#2E7D32" stroke-width="3" />
<text class="small" x="924.00" y="311.75">pitch</text>
<line x1="900.00" y1="323.75" x2="918.00" y2="323.75" stroke="#6A1B9A" stroke-width="3" />
<text class="small" x="924.00" y="327.75">roll</text>
<text x="90" y="500.50" font-size="14" font-weight="700">Aceleração (magnitude) (u.a.)</text>
<rect class="event" x="443.33" y="506.50" width="139.86" height="192.75" />
<line class="eventline" x1="443.33" y1="506.50" x2="443.33" y2="699.25" />
<line class="eventline" x1="583.19" y1="506.50" x2="583.19" y2="699.25" />
<line class="grid" x1="90" y1="699.25" x2="1150" y2="699.25" />
<text class="small" x="80" y="703.25" text-anchor="end">0.00</text>
<line class="grid" x1="90" y1="660.70" x2="1150" y2="660.70" />
<text class="small" x="80" y="664.70" text-anchor="end">0.50</text>
<line class="grid" x1="90" y1="622.15" x2="1150" y2="622.15" />
<text class="small" x="80" y="626.15" text-anchor="end">1.00</text>
<line class="grid" x1="90" y1="583.60" x2="1150" y2="583.60" />
<text class="small" x="80" y="587.60" text-anchor="end">1.50</text>
<line class="grid" x1="90" y1="545.05" x2="1150" y2="545.05" />
<text class="small" x="80" y="549.05" text-anchor="end">2.00</text>
<line class="grid" x1="90" y1="506.50" x2="1150" y2="506.50" />
<text class="small" x="80" y="510.50" text-anchor="end">2.50</text>
<line class="grid" x1="90.00" y1="506.50" x2="90.00" y2="699.25" />
<line class="grid" x1="266.67" y1="506.50" x2="266.67" y2="699.25" />
<line class="grid" x1="443.33" y1="506.50" x2="443.33" y2="699.25" />
<line class="grid" x1="620.00" y1="506.50" x2="620.00" y2="699.25" />
<line class="grid" x1="796.67" y1="506.50" x2="796.67" y2="699.25" />
<line class="grid" x1="973.33" y1="506.50" x2="973.33" y2="699.25" />
<line class="grid" x1="1150.00" y1="506.50" x2="1150.00" y2="699.25" />
<line class="axis" x1="90" y1="506.50" x2="90" y2="699.25" />
<line class="axis" x1="90" y1="699.25" x2="1150" y2="699.25" />
<path class="series" d="M 178.33 674.46 L 179.81 680.71 L 181.28 682.55 L 182.75 683.64 L 184.22 678.64 L 185.69 687.37 L 187.17 680.99 L 188.64 683.32 L 190.11 681.16 L 191.58 680.77 L 193.06 698.63 L 194.53 692.96 L 196.00 693.37 L 197.47 690.49 L 198.94 692.52 L 200.42 692.42 L 201.89 696.94 L 203.36 689.61 L 204.83 694.67 L 206.31 694.46 L 207.78 691.34 L 209.25 675.36 L 210.72 674.47 L 212.19 681.37 L 213.67 690.96 L 215.14 690.88 L 216.61 693.49 L 218.08 683.40 L 219.56 679.36 L 221.03 675.31 L 222.50 674.82 L 223.97 686.50 L 225.44 684.18 L 226.92 666.65 L 228.39 665.33 L 229.86 664.51 L 231.33 646.48 L 232.81 664.02 L 234.28 682.32 L 235.75 682.32 L 237.22 663.43 L 238.69 673.63 L 240.17 686.60 L 241.64 686.56 L 243.11 681.14 L 244.58 692.68 L 246.06 679.60 L 247.53 686.65 L 249.00 689.53 L 250.47 648.17 L 251.94 659.52 L 253.42 627.99 L 254.89 616.92 L 256.36 669.54 L 257.83 620.86 L 259.31 657.51 L 260.78 672.88 L 262.25 679.50 L 263.72 675.93 L 265.19 690.64 L 266.67 670.84 L 268.14 685.85 L 269.61 694.39 L 271.08 691.72 L 272.56 686.61 L 274.03 691.22 L 275.50 660.78 L 276.97 663.96 L 278.44 670.32 L 279.92 679.98 L 281.39 675.97 L 282.86 677.41 L 284.33 681.60 L 285.81 687.55 L 287.28 672.86 L 288.75 678.10 L 290.22 654.72 L 291.69 646.10 L 293.17 657.33 L 294.64 610.09 L 296.11 664.84 L 297.58 636.49 L 299.06 646.48 L 300.53 662.22 L 302.00 671.93 L 303.47 645.03 L 304.94 640.89 L 306.42 648.83 L 307.89 633.39 L 309.36 594.15 L 310.83 636.62 L 312.31 630.18 L 313.78 655.72 L 315.25 649.05 L 316.72 680.35 L 318.19 674.88 L 319.67 649.94 L 321.14 652.24 L 322.61 664.04 L 324.08 675.26 L 325.56 664.74 L 327.03 667.18 L 328.50 674.87 L 329.97 678.56 L 331.44 686.85 L 332.92 677.91 L 334.39 683.72 L 335.86 682.61 L 337.33 673.74 L 338.81 678.34 L 340.28 688.11 L 341.75 686.50 L 343.22 681.75 L 344.69 655.01 L 346.17 627.80 L 347.64 668.18 L 349.11 687.29 L 350.58 670.75 L 352.06 623.15 L 353.53 651.91 L 355.00 642.18 L 356.47 639.32 L 357.94 668.93 L 359.42 666.96 L 360.89 668.43 L 362.36 675.00 L 363.83 678.94 L 365.31 684.20 L 366.78 674.73 L 368.25 677.37 L 369.72 685.33 L 371.19 683.22 L 372.67 675.37 L 374.14 662.43 L 375.61 675.49 L 377.08 673.93 L 378.56 683.26 L 380.03 681.07 L 381.50 684.26 L 382.97 671.97 L 384.44 667.68 L 385.92 657.39 L 387.39 667.61 L 388.86 679.83 L 390.33 680.61 L 391.81 684.50 L 393.28 685.72 L 394.75 673.73 L 396.22 681.94 L 397.69 688.99 L 399.17 664.12 L 400.64 664.12 L 402.11 676.37 L 403.58 673.95 L 405.06 690.73 L 406.53 662.53 L 408.00 667.89 L 409.47 672.20 L 410.94 680.96 L 412.42 666.76 L 413.89 694.53 L 415.36 678.20 L 416.83 675.00 L 418.31 667.02 L 419.78 678.13 L 421.25 672.40 L 422.72 666.43 L 424.19 687.90 L 425.67 677.77 L 427.14 684.83 L 428.61 662.20 L 430.08 692.60 L 431.56 689.45 L 433.03 667.93 L 434.50 670.98 L 435.97 633.30 L 437.44 674.78 L 438.92 691.53 L 440.39 693.83 L 441.86 696.53 L 443.33 697.52 L 444.81 688.59 L 446.28 694.99 L 447.75 697.58 L 449.22 697.59 L 450.69 698.68 L 452.17 698.67 L 453.64 698.31 L 455.11 698.61 L 456.58 698.59 L 458.06 698.60 L 459.53 698.65 L 461.00 698.90 L 462.47 699.13 L 463.94 699.15 L 465.42 698.94 L 466.89 699.09 L 468.36 699.19 L 469.83 699.00 L 471.31 698.92 L 472.78 699.08 L 474.25 699.11 L 475.72 699.08 L 477.19 699.03 L 478.67 698.98 L 480.14 699.06 L 481.61 699.01 L 483.08 699.02 L 484.56 699.08 L 486.03 699.06 L 487.50 699.09 L 488.97 699.03 L 490.44 699.04 L 491.92 698.99 L 493.39 699.04 L 494.86 699.11 L 496.33 699.07 L 497.81 699.14 L 499.28 699.15 L 500.75 699.19 L 502.22 699.21 L 503.69 699.11 L 505.17 699.15 L 506.64 699.13 L 508.11 698.93 L 509.58 699.05 L 511.06 698.99 L 512.53 699.19 L 514.00 698.94 L 515.47 698.95 L 516.94 698.72 L 518.42 699.07 L 519.89 698.96 L 521.36 698.89 L 522.83 698.98 L 524.31 698.99 L 525.78 698.75 L 527.25 698.87 L 528.72 699.14 L 530.19 699.18 L 531.67 699.06 L 533.14 699.00 L 534.61 699.11 L 536.08 699.16 L 537.56 699.06 L 539.03 698.90 L 540.50 699.19 L 541.97 699.00 L 543.44 699.20 L 544.92 699.05 L 546.39 699.07 L 547.86 699.12 L 549.33 699.12 L 550.81 699.15 L 552.28 699.15 L 553.75 699.22 L 555.22 699.10 L 556.69 699.14 L 558.17 699.19 L 559.64 698.65 L 561.11 698.65 L 562.58 699.07 L 564.06 695.74 L 565.53 695.74 L 567.00 697.90 L 568.47 698.67 L 569.94 698.90 L 571.42 699.12 L 572.89 699.15 L 574.36 698.94 L 575.83 699.21 L 577.31 698.74 L 578.78 692.07 L 580.25 692.44 L 581.72 690.07 L 583.19 686.59 L 584.67 671.19 L 586.14 680.87 L 587.61 682.65 L 589.08 673.29 L 590.56 687.67 L 592.03 686.18 L 593.50 687.79 L 594.97 677.04 L 596.44 682.21 L 597.92 674.09 L 599.39 697.03 L 600.86 678.27 L 602.33 694.24 L 603.81 692.14 L 605.28 693.36 L 606.75 686.46 L 608.22 678.69 L 609.69 684.67 L 611.17 696.96 L 612.64 686.75 L 614.11 688.37 L 615.58 697.55 L 617.06 697.06 L 618.53 691.49 L 620.00 694.55 L 621.47 694.06 L 622.94 688.79 L 624.42 689.85 L 625.89 687.10 L 627.36 687.27 L 628.83 694.37 L 630.31 692.02 L 631.78 697.05 L 633.25 698.79 L 634.72 698.93 L 636.19 698.66 L 637.67 697.71 L 639.14 698.20 L 640.61 698.94 L 642.08 698.99 L 643.56 699.16 L 645.03 698.92 L 646.50 699.01 L 647.97 698.96 L 649.44 699.09 L 650.92 699.06 L 652.39 699.10 L 653.86 699.06 L 655.33 699.10 L 656.81 698.97 L 658.28 698.98 L 659.75 696.04 L 661.22 693.97 L 662.69 695.25 L 664.17 697.31 L 665.64 698.56 L 667.11 698.01 L 668.58 698.66 L 670.06 698.76 L 671.53 698.60 L 673.00 699.13 L 674.47 698.84 L 675.94 699.10 L 677.42 699.15 L 678.89 699.14 L 680.36 699.10 L 681.83 699.07 L 683.31 699.05 L 684.78 699.10 L 686.25 699.13 L 687.72 699.04 L 689.19 696.42 L 690.67 695.09 L 692.14 698.14 L 693.61 698.08 L 695.08 698.11 L 696.56 698.51 L 698.03 699.10 L 699.50 698.54 L 700.97 699.02 L 702.44 698.98 L 703.92 698.82 L 705.39 698.86 L 706.86 699.04 L 708.33 699.13 L 709.81 698.91 L 711.28 699.00 L 712.75 699.22 L 714.22 697.54 L 715.69 692.83 L 717.17 692.07 L 718.64 697.37 L 720.11 698.76 L 721.58 698.70 L 723.06 698.73 L 724.53 698.84 L 726.00 699.13 L 727.47 699.19 L 728.94 699.09 L 730.42 699.01 L 731.89 699.03 L 733.36 699.03 L 734.83 699.09 L 736.31 699.10 L 737.78 699.01 L 739.25 699.06 L 740.72 699.06 L 742.19 699.00 L 743.67 698.60 L 745.14 690.81 L 746.61 695.82 L 748.08 696.11 L 749.56 698.02 L 751.03 697.66 L 752.50 698.50 L 753.97 699.01 L 755.44 698.78 L 756.92 698.86 L 758.39 699.16 L 759.86 699.06 L 761.33 699.04 L 762.81 699.08 L 764.28 698.85 L 765.75 699.17 L 767.22 699.15 L 768.69 699.04 L 770.17 698.98 L 771.64 699.11 L 773.11 699.12 L 774.58 699.15 L 776.06 698.70 L 777.53 697.29 L 779.00 697.54 L 780.47 695.16 L 781.94 698.12 L 783.42 698.94 L 784.89 698.56 L 786.36 698.85 L 787.83 698.87 L 789.31 698.91 L 790.78 699.02 L 792.25 699.01 L 793.72 699.08 L 795.19 699.07 L 796.67 699.04 L 798.14 699.23 L 799.61 699.20 L 801.08 699.13 L 802.56 699.18 L 804.03 699.08 L 805.50 698.34 L 806.97 698.49 L 808.44 696.71 L 809.92 697.18 L 811.39 698.89 L 812.86 698.80 L 814.33 698.65 L 815.81 699.12 L 817.28 698.85 L 818.75 699.01 L 820.22 699.07 L 821.69 699.19 L 823.17 699.17 L 824.64 699.02 L 826.11 699.05 L 827.58 699.13 L 829.06 699.10 L 830.53 699.14 L 832.00 695.39 L 833.47 696.71 L 834.94 698.01 L 836.42 698.51 L 837.89 698.87 L 839.36 698.77 L 840.83 682.14 L 842.31 681.45 L 843.78 691.87 L 845.25 662.88 L 846.72 673.49 L 848.19 686.00" stroke="#FB8C00" />
<text x="90" y="711.25" font-size="14" font-weight="700">Giroscópio (magnitude) (u.a.)</text>
<rect class="event" x="443.33" y="717.25" width="139.86" height="192.75" />
<line class="eventline" x1="443.33" y1="717.25" x2="443.33" y2="910.00" />
<line class="eventline" x1="583.19" y1="717.25" x2="583.19" y2="910.00" />
<line class="grid" x1="90" y1="910.00" x2="1150" y2="910.00" />
<text class="small" x="80" y="914.00" text-anchor="end">0.00</text>
<line class="grid" x1="90" y1="871.45" x2="1150" y2="871.45" />
<text class="small" x="80" y="875.45" text-anchor="end">0.05</text>
<line class="grid" x1="90" y1="832.90" x2="1150" y2="832.90" />
<text class="small" x="80" y="836.90" text-anchor="end">0.10</text>
<line class="grid" x1="90" y1="794.35" x2="1150" y2="794.35" />
<text class="small" x="80" y="798.35" text-anchor="end">0.15</text>
<line class="grid" x1="90" y1="755.80" x2="1150" y2="755.80" />
<text class="small" x="80" y="759.80" text-anchor="end">0.20</text>
<line class="grid" x1="90" y1="717.25" x2="1150" y2="717.25" />
<text class="small" x="80" y="721.25" text-anchor="end">0.25</text>
<line class="grid" x1="90.00" y1="717.25" x2="90.00" y2="910.00" />
<line class="grid" x1="266.67" y1="717.25" x2="266.67" y2="910.00" />
<line class="grid" x1="443.33" y1="717.25" x2="443.33" y2="910.00" />
<line class="grid" x1="620.00" y1="717.25" x2="620.00" y2="910.00" />
<line class="grid" x1="796.67" y1="717.25" x2="796.67" y2="910.00" />
<line class="grid" x1="973.33" y1="717.25" x2="973.33" y2="910.00" />
<line class="grid" x1="1150.00" y1="717.25" x2="1150.00" y2="910.00" />
<line class="axis" x1="90" y1="717.25" x2="90" y2="910.00" />
<line class="axis" x1="90" y1="910.00" x2="1150" y2="910.00" />
<path class="series" d="M 178.33 902.36 L 179.81 901.70 L 181.28 885.49 L 182.75 899.76 L 184.22 902.47 L 185.69 891.87 L 187.17 898.42 L 188.64 899.02 L 190.11 898.44 L 191.58 898.74 L 193.06 901.07 L 194.53 906.57 L 196.00 908.03 L 197.47 901.86 L 198.94 903.13 L 200.42 897.52 L 201.89 902.38 L 203.36 903.75 L 204.83 908.00 L 206.31 900.00 L 207.78 901.37 L 209.25 902.49 L 210.72 894.41 L 212.19 902.30 L 213.67 898.30 L 215.14 903.42 L 216.61 902.99 L 218.08 898.98 L 219.56 901.70 L 221.03 890.06 L 222.50 882.97 L 223.97 880.06 L 225.44 885.68 L 226.92 870.91 L 228.39 863.48 L 229.86 854.68 L 231.33 823.72 L 232.81 822.86 L 234.28 827.52 L 235.75 827.52 L 237.22 857.46 L 238.69 883.32 L 240.17 879.50 L 241.64 881.47 L 243.11 875.18 L 244.58 880.40 L 246.06 882.03 L 247.53 885.28 L 249.00 887.64 L 250.47 898.65 L 251.94 899.05 L 253.42 828.31 L 254.89 773.45 L 256.36 774.61 L 257.83 852.73 L 259.31 895.14 L 260.78 873.01 L 262.25 888.60 L 263.72 867.01 L 265.19 882.38 L 266.67 881.85 L 268.14 880.50 L 269.61 881.52 L 271.08 879.33 L 272.56 877.27 L 274.03 872.87 L 275.50 878.21 L 276.97 871.21 L 278.44 878.36 L 279.92 879.40 L 281.39 882.35 L 282.86 894.78 L 284.33 897.48 L 285.81 906.84 L 287.28 902.63 L 288.75 896.62 L 290.22 901.09 L 291.69 890.17 L 293.17 869.92 L 294.64 814.93 L 296.11 793.67 L 297.58 841.66 L 299.06 873.54 L 300.53 859.72 L 302.00 856.11 L 303.47 786.65 L 304.94 774.43 L 306.42 840.31 L 307.89 880.14 L 309.36 814.23 L 310.83 900.73 L 312.31 872.18 L 313.78 873.76 L 315.25 849.57 L 316.72 849.28 L 318.19 867.15 L 319.67 874.44 L 321.14 863.10 L 322.61 865.60 L 324.08 881.06 L 325.56 897.73 L 327.03 854.79 L 328.50 892.30 L 329.97 865.17 L 331.44 878.19 L 332.92 875.29 L 334.39 880.63 L 335.86 899.81 L 337.33 867.57 L 338.81 891.55 L 340.28 890.16 L 341.75 888.81 L 343.22 893.57 L 344.69 885.62 L 346.17 839.75 L 347.64 803.87 L 349.11 817.74 L 350.58 855.22 L 352.06 899.67 L 353.53 852.92 L 355.00 865.87 L 356.47 888.25 L 357.94 849.95 L 359.42 881.97 L 360.89 897.55 L 362.36 870.12 L 363.83 892.24 L 365.31 873.50 L 366.78 858.92 L 368.25 859.23 L 369.72 859.91 L 371.19 863.06 L 372.67 874.60 L 374.14 905.70 L 375.61 889.75 L 377.08 894.69 L 378.56 894.90 L 380.03 890.39 L 381.50 896.52 L 382.97 897.53 L 384.44 885.99 L 385.92 896.87 L 387.39 885.24 L 388.86 868.70 L 390.33 852.45 L 391.81 850.55 L 393.28 848.66 L 394.75 845.85 L 396.22 843.24 L 397.69 835.42 L 399.17 834.62 L 400.64 834.62 L 402.11 841.06 L 403.58 831.52 L 405.06 847.98 L 406.53 858.37 L 408.00 886.68 L 409.47 893.21 L 410.94 858.39 L 412.42 883.88 L 413.89 883.17 L 415.36 866.89 L 416.83 860.34 L 418.31 861.23 L 419.78 846.42 L 421.25 803.34 L 422.72 774.62 L 424.19 794.82 L 425.67 773.20 L 427.14 789.27 L 428.61 818.32 L 430.08 838.66 L 431.56 843.32 L 433.03 795.30 L 434.50 795.11 L 435.97 834.28 L 437.44 878.96 L 438.92 888.58 L 440.39 890.98 L 441.86 897.66 L 443.33 902.82 L 444.81 908.23 L 446.28 907.81 L 447.75 908.00 L 449.22 908.04 L 450.69 907.95 L 452.17 907.84 L 453.64 907.89 L 455.11 907.99 L 456.58 907.91 L 458.06 907.84 L 459.53 908.18 L 461.00 909.74 L 462.47 909.83 L 463.94 909.71 L 465.42 909.65 L 466.89 909.73 L 468.36 909.77 L 469.83 909.80 L 471.31 909.57 L 472.78 909.77 L 474.25 909.78 L 475.72 909.75 L 477.19 909.71 L 478.67 909.69 L 480.14 909.85 L 481.61 909.54 L 483.08 909.66 L 484.56 909.71 L 486.03 909.58 L 487.50 909.67 L 488.97 909.60 L 490.44 909.69 L 491.92 909.60 L 493.39 909.59 L 494.86 909.48 L 496.33 909.80 L 497.81 909.64 L 499.28 909.64 L 500.75 909.75 L 502.22 909.94 L 503.69 909.90 L 505.17 909.82 L 506.64 909.92 L 508.11 909.83 L 509.58 909.85 L 511.06 909.90 L 512.53 909.90 L 514.00 909.83 L 515.47 909.95 L 516.94 909.55 L 518.42 909.89 L 519.89 909.81 L 521.36 909.72 L 522.83 909.71 L 524.31 909.32 L 525.78 909.58 L 527.25 909.66 L 528.72 909.57 L 530.19 909.77 L 531.67 909.70 L 533.14 909.66 L 534.61 909.56 L 536.08 909.68 L 537.56 909.67 L 539.03 909.81 L 540.50 909.73 L 541.97 909.75 L 543.44 909.91 L 544.92 909.75 L 546.39 909.86 L 547.86 909.89 L 549.33 909.86 L 550.81 909.86 L 552.28 909.96 L 553.75 909.88 L 555.22 909.90 L 556.69 909.76 L 558.17 909.83 L 559.64 909.24 L 561.11 909.71 L 562.58 909.77 L 564.06 908.59 L 565.53 908.59 L 567.00 909.88 L 568.47 909.75 L 569.94 909.90 L 571.42 909.83 L 572.89 909.82 L 574.36 909.94 L 575.83 909.73 L 577.31 909.90 L 578.78 909.28 L 580.25 904.12 L 581.72 897.47 L 583.19 895.71 L 584.67 892.55 L 586.14 888.16 L 587.61 897.85 L 589.08 893.37 L 590.56 888.00 L 592.03 865.77 L 593.50 858.76 L 594.97 865.24 L 596.44 854.98 L 597.92 854.75 L 599.39 854.65 L 600.86 862.92 L 602.33 876.35 L 603.81 885.25 L 605.28 889.08 L 606.75 894.82 L 608.22 896.35 L 609.69 898.11 L 611.17 900.51 L 612.64 904.25 L 614.11 897.31 L 615.58 904.48 L 617.06 904.47 L 618.53 895.86 L 620.00 889.57 L 621.47 902.92 L 622.94 903.67 L 624.42 900.21 L 625.89 903.80 L 627.36 909.13 L 628.83 908.94 L 630.31 908.26 L 631.78 909.21 L 633.25 909.59 L 634.72 909.72 L 636.19 909.84 L 637.67 909.14 L 639.14 909.96 L 640.61 909.87 L 642.08 909.73 L 643.56 909.89 L 645.03 909.84 L 646.50 909.85 L 647.97 909.77 L 649.44 909.88 L 650.92 909.87 L 652.39 909.93 L 653.86 909.87 L 655.33 909.88 L 656.81 909.92 L 658.28 909.93 L 659.75 908.24 L 661.22 907.41 L 662.69 908.14 L 664.17 909.74 L 665.64 909.68 L 667.11 909.96 L 668.58 909.84 L 670.06 909.87 L 671.53 909.95 L 673.00 909.90 L 674.47 909.85 L 675.94 909.88 L 677.42 909.97 L 678.89 909.85 L 680.36 909.91 L 681.83 909.83 L 683.31 909.85 L 684.78 909.90 L 686.25 909.87 L 687.72 909.74 L 689.19 908.63 L 690.67 908.46 L 692.14 909.24 L 693.61 909.59 L 695.08 909.69 L 696.56 909.85 L 698.03 909.81 L 699.50 909.87 L 700.97 909.89 L 702.44 909.75 L 703.92 909.70 L 705.39 909.78 L 706.86 909.88 L 708.33 909.84 L 709.81 909.79 L 711.28 909.85 L 712.75 909.90 L 714.22 906.88 L 715.69 908.26 L 717.17 908.98 L 718.64 909.54 L 720.11 909.71 L 721.58 909.88 L 723.06 909.85 L 724.53 909.83 L 726.00 909.78 L 727.47 909.78 L 728.94 909.94 L 730.42 909.75 L 731.89 909.76 L 733.36 909.88 L 734.83 909.97 L 736.31 909.95 L 737.78 909.93 L 739.25 909.95 L 740.72 909.95 L 742.19 909.98 L 743.67 909.77 L 745.14 908.71 L 746.61 908.33 L 748.08 908.58 L 749.56 909.23 L 751.03 909.86 L 752.50 909.70 L 753.97 909.68 L 755.44 909.79 L 756.92 909.83 L 758.39 909.92 L 759.86 909.81 L 761.33 909.91 L 762.81 909.88 L 764.28 909.87 L 765.75 909.90 L 767.22 909.87 L 768.69 909.77 L 770.17 909.89 L 771.64 909.88 L 773.11 909.91 L 774.58 909.77 L 776.06 909.75 L 777.53 908.39 L 779.00 907.10 L 780.47 908.83 L 781.94 909.61 L 783.42 909.75 L 784.89 909.62 L 786.36 909.91 L 787.83 909.89 L 789.31 909.75 L 790.78 909.83 L 792.25 909.89 L 793.72 909.79 L 795.19 909.89 L 796.67 909.94 L 798.14 909.91 L 799.61 909.83 L 801.08 909.86 L 802.56 909.91 L 804.03 909.89 L 805.50 909.72 L 806.97 908.38 L 808.44 906.45 L 809.92 909.21 L 811.39 909.83 L 812.86 909.81 L 814.33 909.79 L 815.81 909.83 L 817.28 909.84 L 818.75 909.76 L 820.22 909.93 L 821.69 909.85 L 823.17 909.95 L 824.64 909.89 L 826.11 909.83 L 827.58 909.80 L 829.06 909.94 L 830.53 909.81 L 832.00 909.04 L 833.47 909.70 L 834.94 909.76 L 836.42 909.91 L 837.89 909.97 L 839.36 909.92 L 840.83 899.04 L 842.31 893.38 L 843.78 907.05 L 845.25 903.02 L 846.72 891.47 L 848.19 887.75" stroke="#E53935" />
<text x="620.00" y="952" font-size="15" text-anchor="middle">minutos (relativo ao início do evento)</text>
<text class="small" x="90.00" y="936" text-anchor="middle">-4.00</text>
<text class="small" x="266.67" y="936" text-anchor="middle">-2.00</text>
<text class="small" x="443.33" y="936" text-anchor="middle">0.00</text>
<text class="small" x="620.00" y="936" text-anchor="middle">2.00</text>
<text class="small" x="796.67" y="936" text-anchor="middle">4.00</text>
<text class="small" x="973.33" y="936" text-anchor="middle">6.00</text>
<text class="small" x="1150.00" y="936" text-anchor="middle">8.00</text>
</svg>