<?xml version="1.0" encoding="UTF-8"?>
<svg xmlns="http://www.w3.org/2000/svg" width="1180" height="980" viewBox="0 0 1180 980">
<style>
text { font-family: -apple-system, BlinkMacSystemFont, 'Segoe UI', Roboto, Helvetica, Arial, sans-serif; fill: #111; }
.small { font-size: 12px; fill: #222; }
.title { font-size: 18px; font-weight: 700; }
.axis { stroke: #111; stroke-width: 1.4; }
.grid { stroke: #E6E6E6; stroke-width: 1; }
.event { fill: #FFEB3B; fill-opacity: 0.18; }
.eventline { stroke: #F9A825; stroke-width: 1.2; stroke-dasharray: 4 3; }
.series { fill: none; stroke-width: 1.8; }
</style>
<text class="title" x="90" y="34">ciclo 20 — espera_basculamento — 2025-12-13T05:47:28-03:00 → 2025-12-13T05:48:11-03:00 (span 43s, dur 44s)</text>
<text class="small" x="90" y="54">GPS: -11.692847,-47.165942  hotspot: -11.693,-47.166</text>
<text class="small" x="90" y="70">Janela: -3.00 → 3.72 min (relativo ao início do evento)</text>
<text x="90" y="79.00" font-size="14" font-weight="700">Velocidade (km/h)</text>
<rect class="event" x="443.33" y="85.00" width="63.31" height="192.75" />
<line class="eventline" x1="443.33" y1="85.00" x2="443.33" y2="277.75" />
<line class="eventline" x1="506.64" y1="85.00" x2="506.64" y2="277.75" />
<line class="grid" x1="90" y1="277.75" x2="1150" y2="277.75" />
<text class="small" x="80" y="281.75" text-anchor="end">0.00</text>
<line class="grid" x1="90" y1="239.20" x2="1150" y2="239.20" />
<text class="small" x="80" y="243.20" text-anchor="end">10.0</text>
<line class="grid" x1="90" y1="200.65" x2="1150" y2="200.65" />
<text class="small" x="80" y="204.65" text-anchor="end">20.0</text>
<line class="grid" x1="90" y1="162.10" x2="1150" y2="162.10" />
<text class="small" x="80" y="166.10" text-anchor="end">30.0</text>
<line class="grid" x1="90" y1="123.55" x2="1150" y2="123.55" />
<text class="small" x="80" y="127.55" text-anchor="end">40.0</text>
<line class="grid" x1="90" y1="85.00" x2="1150" y2="85.00" />
<text class="small" x="80" y="89.00" text-anchor="end">50.0</text>
<line class="grid" x1="90.00" y1="85.00" x2="90.00" y2="277.75" />
<line class="grid" x1="266.67" y1="85.00" x2="266.67" y2="277.75" />
<line class="grid" x1="443.33" y1="85.00" x2="443.33" y2="277.75" />
<line class="grid" x1="620.00" y1="85.00" x2="620.00" y2="277.75" />
<line class="grid" x1="796.67" y1="85.00" x2="796.67" y2="277.75" />
<line class="grid" x1="973.33" y1="85.00" x2="973.33" y2="277.75" />
<line class="grid" x1="1150.00" y1="85.00" x2="1150.00" y2="277.75" />
<line class="axis" x1="90" y1="85.00" x2="90" y2="277.75" />
<line class="axis" x1="90" y1="277.75" x2="1150" y2="277.75" />
<path class="series" d="M 178.33 244.58 L 179.81 246.94 L 181.28 245.83 L 182.75 247.77 L 184.22 249.86 L 185.69 249.02 L 187.17 246.80 L 188.64 247.08 L 190.11 247.22 L 191.58 247.08 L 193.06 248.47 L 194.53 248.05 L 196.00 246.94 L 197.47 247.63 L 198.94 247.63 L 200.42 248.47 L 201.89 248.05 L 203.36 249.30 L 204.83 247.50 L 206.31 247.50 L 207.78 248.33 L 209.25 247.22 L 210.72 247.77 L 212.19 247.08 L 213.67 248.19 L 215.14 248.33 L 216.61 247.50 L 218.08 248.33 L 219.56 247.22 L 221.03 245.69 L 222.50 246.39 L 223.97 246.39 L 225.44 245.69 L 226.92 245.55 L 228.39 244.86 L 229.86 245.41 L 231.33 244.44 L 232.81 242.92 L 234.28 244.03 L 235.75 243.19 L 237.22 245.41 L 238.69 244.72 L 240.17 244.30 L 241.64 245.00 L 243.11 245.14 L 244.58 242.78 L 246.06 245.41 L 247.53 246.52 L 249.00 246.80 L 250.47 248.61 L 251.94 248.74 L 253.42 249.02 L 254.89 248.47 L 256.36 247.63 L 257.83 247.22 L 259.31 246.66 L 260.78 246.66 L 262.25 245.00 L 263.72 245.00 L 265.19 243.61 L 266.67 244.17 L 268.14 244.72 L 269.61 245.00 L 271.08 245.00 L 272.56 244.30 L 274.03 245.00 L 275.50 245.14 L 276.97 245.83 L 278.44 246.52 L 279.92 246.94 L 281.39 247.36 L 282.86 248.19 L 284.33 247.91 L 285.81 247.77 L 287.28 247.91 L 288.75 248.05 L 290.22 248.74 L 291.69 247.36 L 293.17 246.94 L 294.64 246.66 L 296.11 244.30 L 297.58 244.30 L 299.06 243.89 L 300.53 242.78 L 302.00 241.94 L 303.47 240.00 L 304.94 235.70 L 306.42 229.18 L 307.89 227.37 L 309.36 218.21 L 310.83 209.89 L 312.31 204.47 L 313.78 200.31 L 315.25 202.11 L 316.72 201.42 L 318.19 204.06 L 319.67 202.95 L 321.14 203.36 L 322.61 201.28 L 324.08 199.89 L 325.56 198.51 L 327.03 201.28 L 328.50 195.87 L 329.97 195.59 L 331.44 195.31 L 332.92 201.56 L 334.39 207.67 L 335.86 212.94 L 337.33 216.83 L 338.81 221.13 L 340.28 221.96 L 341.75 227.65 L 343.22 229.87 L 344.69 236.25 L 346.17 238.20 L 347.64 239.03 L 349.11 239.17 L 350.58 236.53 L 352.06 235.56 L 353.53 234.45 L 355.00 237.37 L 356.47 237.23 L 357.94 239.17 L 359.42 235.98 L 360.89 236.67 L 362.36 237.37 L 363.83 243.19 L 365.31 245.83 L 366.78 249.72 L 368.25 251.38 L 369.72 250.69 L 371.19 251.10 L 372.67 249.99 L 374.14 250.27 L 375.61 247.91 L 377.08 251.24 L 378.56 250.55 L 380.03 249.30 L 381.50 249.58 L 382.97 249.30 L 384.44 249.16 L 385.92 253.05 L 387.39 257.35 L 388.86 258.74 L 390.33 262.07 L 391.81 269.28 L 393.28 277.75 L 394.75 277.75 L 396.22 268.87 L 397.69 264.15 L 399.17 264.15 L 400.64 260.82 L 402.11 262.62 L 403.58 261.37 L 405.06 262.21 L 406.53 260.26 L 408.00 261.24 L 409.47 261.93 L 410.94 260.68 L 412.42 263.59 L 413.89 262.90 L 415.36 264.01 L 416.83 264.15 L 418.31 264.15 L 419.78 264.15 L 421.25 263.87 L 422.72 263.73 L 424.19 262.90 L 425.67 263.87 L 427.14 263.46 L 428.61 263.18 L 430.08 277.75 L 431.56 277.75 L 433.03 277.75 L 434.50 262.76 L 435.97 269.70 L 437.44 273.73 L 438.92 271.09 L 440.39 271.92 L 441.86 271.09 L 443.33 277.75 L 444.81 277.75 L 446.28 277.75 L 447.75 277.75 L 449.22 277.75 L 450.69 277.75 L 452.17 277.75 L 453.64 277.75 L 455.11 277.75 L 456.58 277.75 L 458.06 277.75 L 459.53 277.75 L 461.00 277.75 L 462.47 277.75 L 463.94 277.75 L 465.42 277.75 L 466.89 277.75 L 468.36 277.75 L 469.83 277.75 L 471.31 277.75 L 472.78 277.75 L 474.25 277.75 L 475.72 277.75 L 477.19 277.75 L 478.67 277.75 L 480.14 277.75 L 481.61 277.75 L 483.08 277.75 L 484.56 277.75 L 486.03 277.75 L 487.50 277.75 L 488.97 277.75 L 490.44 277.75 L 491.92 277.75 L 493.39 277.75 L 494.86 277.75 L 496.33 277.75 L 497.81 277.75 L 499.28 277.75 L 500.75 277.75 L 502.22 277.75 L 503.69 277.75 L 505.17 277.75 L 506.64 277.75 L 508.11 265.81 L 509.58 255.55 L 511.06 268.31 L 512.53 277.75 L 514.00 277.75 L 515.47 277.75 L 516.94 277.75 L 518.42 267.06 L 519.89 259.01 L 521.36 258.88 L 522.83 262.76 L 524.31 277.75 L 525.78 277.75 L 527.25 277.75 L 528.72 277.75 L 530.19 277.75 L 531.67 277.75 L 533.14 277.75 L 534.61 277.75 L 536.08 277.75 L 537.56 277.75 L 539.03 277.75 L 540.50 277.75 L 541.97 277.75 L 543.44 267.34 L 544.92 257.21 L 546.39 247.50 L 547.86 243.47 L 549.33 238.06 L 550.81 223.07 L 552.28 220.71 L 553.75 220.30 L 555.22 223.21 L 556.69 221.41 L 558.17 217.80 L 559.64 215.99 L 561.11 212.80 L 562.58 211.41 L 564.06 209.61 L 565.53 208.64 L 567.00 210.30 L 568.47 206.28 L 569.94 202.95 L 571.42 197.54 L 572.89 191.43 L 574.36 189.21 L 575.83 184.63 L 577.31 182.41 L 578.78 180.60 L 580.25 183.52 L 581.72 177.55 L 583.19 175.61 L 584.67 172.69 L 586.14 167.70 L 587.61 165.75 L 589.08 166.73 L 590.56 162.01 L 592.03 161.04 L 593.50 161.73 L 594.97 165.48 L 596.44 164.23 L 597.92 165.20 L 599.39 165.34 L 600.86 164.92 L 602.33 165.48 L 603.81 164.09 L 605.28 167.70 L 606.75 158.95 L 608.22 165.06 L 609.69 168.25 L 611.17 164.92 L 612.64 166.86 L 614.11 166.86 L 615.58 163.67 L 617.06 166.45 L 618.53 170.06 L 620.00 172.42 L 621.47 174.91 L 622.94 172.42 L 624.42 173.11 L 625.89 174.36 L 627.36 172.55 L 628.83 175.89 L 630.31 175.61 L 631.78 177.00 L 633.25 175.89 L 634.72 175.75 L 636.19 176.44 L 637.67 177.69 L 639.14 177.27 L 640.61 176.86 L 642.08 176.44 L 643.56 174.36 L 645.03 175.33 L 646.50 173.66 L 647.97 173.53 L 649.44 173.11 L 650.92 172.14 L 652.39 171.72 L 653.86 171.86 L 655.33 175.75 L 656.81 176.44 L 658.28 169.92 L 659.75 176.30 L 661.22 177.69 L 662.69 176.58 L 664.17 177.27 L 665.64 173.66 L 667.11 173.11 L 668.58 172.14 L 670.06 172.28 L 671.53 172.69 L 673.00 174.22 L 674.47 175.19 L 675.94 177.41 L 677.42 179.49 L 678.89 178.80 L 680.36 181.02 L 681.83 180.60 L 683.31 182.82 L 684.78 179.22 L 686.25 181.85 L 687.72 179.91 L 689.19 177.55 L 690.67 176.30 L 692.14 173.53 L 693.61 173.25 L 695.08 170.33 L 696.56 169.22 L 698.03 168.39 L 699.50 168.81 L 700.97 165.48 L 702.44 166.17 L 703.92 165.62 L 705.39 167.00 L 706.86 169.36 L 708.33 173.66 L 709.81 183.24 L 711.28 191.29 L 712.75 205.17 L 714.22 213.63 L 715.69 223.90 L 717.17 222.79 L 718.64 219.32 L 720.11 211.97 L 721.58 204.75 L 723.06 194.90 L 724.53 194.90 L 726.00 194.76 L 727.47 194.48 L 728.94 184.91 L 730.42 179.91 L 731.89 174.36 L 733.36 168.39 L 734.83 163.26 L 736.31 161.04 L 737.78 157.98 L 739.25 155.35 L 740.72 155.07 L 742.19 153.96 L 743.67 153.26 L 745.14 152.43 L 746.61 153.54 L 748.08 153.54 L 749.56 154.93 L 751.03 153.82 L 752.50 155.21 L 753.97 153.13 L 755.44 153.40 L 756.92 152.99 L 758.39 152.71 L 759.86 150.49 L 761.33 148.27 L 762.81 148.55 L 764.28 149.24 L 765.75 149.38 L 767.22 151.60 L 768.69 151.88 L 770.17 152.85 L 771.64 151.18" stroke="#1976D2" />
<text x="90" y="289.75" font-size="14" font-weight="700">Inclinação (graus)</text>
<rect class="event" x="443.33" y="295.75" width="63.31" height="192.75" />
<line class="eventline" x1="443.33" y1="295.75" x2="443.33" y2="488.50" />
<line class="eventline" x1="506.64" y1="295.75" x2="506.64" y2="488.50" />
<line class="grid" x1="90" y1="488.50" x2="1150" y2="488.50" />
<text class="small" x="80" y="492.50" text-anchor="end">-20.0</text>
<line class="grid" x1="90" y1="449.95" x2="1150" y2="449.95" />
<text class="small" x="80" y="453.95" text-anchor="end">-10.0</text>
<line class="grid" x1="90" y1="411.40" x2="1150" y2="411.40" />
<text class="small" x="80" y="415.40" text-anchor="end">0.00</text>
<line class="grid" x1="90" y1="372.85" x2="1150" y2="372.85" />
<text class="small" x="80" y="376.85" text-anchor="end">10.0</text>
<line class="grid" x1="90" y1="334.30" x2="1150" y2="334.30" />
<text class="small" x="80" y="338.30" text-anchor="end">20.0</text>
<line class="grid" x1="90" y1="295.75" x2="1150" y2="295.75" />
<text class="small" x="80" y="299.75" text-anchor="end">30.0</text>
<line class="grid" x1="90.00" y1="295.75" x2="90.00" y2="488.50" />
<line class="grid" x1="266.67" y1="295.75" x2="266.67" y2="488.50" />
<line class="grid" x1="443.33" y1="295.75" x2="443.33" y2="488.50" />
<line class="grid" x1="620.00" y1="295.75" x2="620.00" y2="488.50" />
<line class="grid" x1="796.67" y1="295.75" x2="796.67" y2="488.50" />
<line class="grid" x1="973.33" y1="295.75" x2="973.33" y2="488.50" />
<line class="grid" x1="1150.00" y1="295.75" x2="1150.00" y2="488.50" />
<line class="axis" x1="90" y1="295.75" x2="90" y2="488.50" />
<line class="axis" x1="90" y1="488.50" x2="1150" y2="488.50" />
<path class="series" d="M 178.33 389.49 L 179.81 384.84 L 181.28 392.75 L 182.75 394.80 L 184.22 392.96 L 185.69 391.84 L 187.17 392.82 L 188.64 392.49 L 190.11 393.20 L 191.58 392.02 L 193.06 391.71 L 194.53 391.55 L 196.00 390.83 L 197.47 391.39 L 198.94 390.13 L 200.42 389.86 L 201.89 391.37 L 203.36 391.15 L 204.83 391.96 L 206.31 391.25 L 207.78 388.98 L 209.25 389.35 L 210.72 390.88 L 212.19 389.00 L 213.67 389.36 L 215.14 390.42 L 216.61 393.29 L 218.08 391.23 L 219.56 392.03 L 221.03 391.51 L 222.50 392.33 L 223.97 391.32 L 225.44 390.41 L 226.92 389.49 L 228.39 389.44 L 229.86 388.87 L 231.33 387.42 L 232.81 386.41 L 234.28 383.62 L 235.75 384.22 L 237.22 385.14 L 238.69 387.26 L 240.17 385.92 L 241.64 386.17 L 243.11 391.07 L 244.58 389.16 L 246.06 390.32 L 247.53 391.48 L 249.00 394.54 L 250.47 394.99 L 251.94 395.91 L 253.42 395.38 L 254.89 394.46 L 256.36 393.79 L 257.83 392.83 L 259.31 392.15 L 260.78 392.24 L 262.25 390.82 L 263.72 389.90 L 265.19 390.23 L 266.67 389.97 L 268.14 388.39 L 269.61 387.34 L 271.08 386.64 L 272.56 387.02 L 274.03 387.80 L 275.50 388.55 L 276.97 389.39 L 278.44 389.85 L 279.92 392.69 L 281.39 391.35 L 282.86 392.17 L 284.33 392.01 L 285.81 391.61 L 287.28 391.27 L 288.75 391.48 L 290.22 393.89 L 291.69 392.44 L 293.17 389.48 L 294.64 383.64 L 296.11 385.29 L 297.58 391.45 L 299.06 387.33 L 300.53 384.69 L 302.00 380.12 L 303.47 384.37 L 304.94 385.33 L 306.42 377.59 L 307.89 370.88 L 309.36 377.31 L 310.83 376.93 L 312.31 369.14 L 313.78 366.62 L 315.25 365.23 L 316.72 364.67 L 318.19 372.07 L 319.67 371.57 L 321.14 375.13 L 322.61 372.40 L 324.08 377.68 L 325.56 373.05 L 327.03 369.72 L 328.50 372.41 L 329.97 371.64 L 331.44 375.96 L 332.92 373.86 L 334.39 371.74 L 335.86 380.98 L 337.33 378.47 L 338.81 376.75 L 340.28 379.14 L 341.75 377.41 L 343.22 380.53 L 344.69 381.36 L 346.17 386.28 L 347.64 386.19 L 349.11 388.01 L 350.58 385.43 L 352.06 379.36 L 353.53 371.02 L 355.00 369.55 L 356.47 369.89 L 357.94 372.28 L 359.42 368.27 L 360.89 380.50 L 362.36 379.18 L 363.83 381.15 L 365.31 385.28 L 366.78 382.96 L 368.25 387.77 L 369.72 389.23 L 371.19 388.86 L 372.67 383.59 L 374.14 380.06 L 375.61 374.32 L 377.08 367.34 L 378.56 368.76 L 380.03 365.73 L 381.50 364.00 L 382.97 360.08 L 384.44 357.61 L 385.92 358.35 L 387.39 361.32 L 388.86 358.53 L 390.33 355.95 L 391.81 347.85 L 393.28 363.42 L 394.75 358.07 L 396.22 359.11 L 397.69 360.87 L 399.17 363.28 L 400.64 362.36 L 402.11 365.95 L 403.58 362.57 L 405.06 361.07 L 406.53 360.87 L 408.00 361.48 L 409.47 360.46 L 410.94 360.33 L 412.42 357.42 L 413.89 359.16 L 415.36 357.00 L 416.83 357.30 L 418.31 353.16 L 419.78 352.28 L 421.25 352.53 L 422.72 353.27 L 424.19 354.28 L 425.67 354.19 L 427.14 354.26 L 428.61 355.92 L 430.08 355.01 L 431.56 356.62 L 433.03 359.99 L 434.50 370.57 L 435.97 364.97 L 437.44 355.05 L 438.92 359.81 L 440.39 361.94 L 441.86 361.94 L 443.33 366.00 L 444.81 367.51 L 446.28 369.34 L 447.75 361.19 L 449.22 362.56 L 450.69 362.70 L 452.17 362.66 L 453.64 362.23 L 455.11 362.22 L 456.58 362.44 L 458.06 362.40 L 459.53 362.62 L 461.00 362.69 L 462.47 362.78 L 463.94 362.81 L 465.42 362.95 L 466.89 362.97 L 468.36 362.97 L 469.83 362.81 L 471.31 362.85 L 472.78 362.95 L 474.25 362.92 L 475.72 363.00 L 477.19 363.44 L 478.67 363.26 L 480.14 362.95 L 481.61 363.21 L 483.08 363.18 L 484.56 363.20 L 486.03 363.11 L 487.50 363.05 L 488.97 363.27 L 490.44 363.86 L 491.92 363.82 L 493.39 364.03 L 494.86 364.07 L 496.33 364.15 L 497.81 364.84 L 499.28 365.05 L 500.75 365.22 L 502.22 365.96 L 503.69 365.52 L 505.17 366.65 L 506.64 377.57 L 508.11 386.89 L 509.58 375.72 L 511.06 333.67 L 512.53 360.78 L 514.00 363.32 L 515.47 364.50 L 516.94 368.22 L 518.42 379.93 L 519.89 373.45 L 521.36 358.63 L 522.83 342.51 L 524.31 346.69 L 525.78 354.23 L 527.25 354.27 L 528.72 354.32 L 530.19 354.98 L 531.67 355.36 L 533.14 355.34 L 534.61 354.93 L 536.08 355.15 L 537.56 354.95 L 539.03 354.95 L 540.50 355.01 L 541.97 369.85 L 543.44 370.14 L 544.92 366.86 L 546.39 358.92 L 547.86 375.67 L 549.33 374.30 L 550.81 370.53 L 552.28 366.72 L 553.75 352.31 L 555.22 349.75 L 556.69 353.73 L 558.17 343.73 L 559.64 353.25 L 561.11 366.99 L 562.58 376.14 L 564.06 352.37 L 565.53 355.85 L 567.00 357.08 L 568.47 354.06 L 569.94 356.45 L 571.42 352.42 L 572.89 358.47 L 574.36 354.31 L 575.83 354.65 L 577.31 356.68 L 578.78 351.24 L 580.25 364.11 L 581.72 368.23 L 583.19 366.91 L 584.67 370.55 L 586.14 365.10 L 587.61 363.28 L 589.08 365.80 L 590.56 357.79 L 592.03 377.38 L 593.50 364.30 L 594.97 370.21 L 596.44 357.55 L 597.92 357.89 L 599.39 357.52 L 600.86 345.20 L 602.33 347.63 L 603.81 345.64 L 605.28 345.19 L 606.75 343.91 L 608.22 346.20 L 609.69 340.80 L 611.17 344.47 L 612.64 340.16 L 614.11 344.34 L 615.58 344.41 L 617.06 344.37 L 618.53 344.24 L 620.00 344.43 L 621.47 343.27 L 622.94 343.10 L 624.42 343.77 L 625.89 344.02 L 627.36 343.96 L 628.83 343.86 L 630.31 342.86 L 631.78 345.22 L 633.25 342.35 L 634.72 345.96 L 636.19 338.77 L 637.67 347.40 L 639.14 341.77 L 640.61 344.31 L 642.08 344.87 L 643.56 342.63 L 645.03 344.67 L 646.50 343.60 L 647.97 344.49 L 649.44 344.36 L 650.92 344.05 L 652.39 344.61 L 653.86 343.61 L 655.33 344.15 L 656.81 343.52 L 658.28 345.21 L 659.75 346.04 L 661.22 345.11 L 662.69 343.92 L 664.17 343.10 L 665.64 343.61 L 667.11 343.66 L 668.58 345.01 L 670.06 343.52 L 671.53 344.41 L 673.00 343.30 L 674.47 346.13 L 675.94 343.11 L 677.42 346.21 L 678.89 343.97 L 680.36 344.65 L 681.83 344.52 L 683.31 346.14 L 684.78 344.65 L 686.25 344.59 L 687.72 343.82 L 689.19 345.23 L 690.67 344.07 L 692.14 344.02 L 693.61 342.92 L 695.08 343.11 L 696.56 342.76 L 698.03 343.65 L 699.50 343.28 L 700.97 342.67 L 702.44 342.95 L 703.92 342.29 L 705.39 346.18 L 706.86 344.46 L 708.33 345.26 L 709.81 330.39 L 711.28 329.84 L 712.75 332.96 L 714.22 338.05 L 715.69 356.38 L 717.17 364.61 L 718.64 370.66 L 720.11 378.22 L 721.58 370.12 L 723.06 362.77 L 724.53 354.06 L 726.00 360.51 L 727.47 376.97 L 728.94 382.30 L 730.42 382.36 L 731.89 379.18 L 733.36 380.37 L 734.83 380.37 L 736.31 378.65 L 737.78 376.91 L 739.25 373.39 L 740.72 372.51 L 742.19 368.06 L 743.67 367.68 L 745.14 366.66 L 746.61 365.26 L 748.08 367.61 L 749.56 361.53 L 751.03 358.67 L 752.50 360.79 L 753.97 359.44 L 755.44 358.82 L 756.92 359.60 L 758.39 357.46 L 759.86 358.23 L 761.33 359.08 L 762.81 359.22 L 764.28 359.49 L 765.75 359.43 L 767.22 359.71 L 768.69 362.20 L 770.17 362.19 L 771.64 367.23" stroke="#2E7D32" />
<path class="series" d="M 178.33 414.82 L 179.81 408.16 L 181.28 419.36 L 182.75 405.75 L 184.22 407.19 L 185.69 408.65 L 187.17 410.91 L 188.64 409.28 L 190.11 405.12 L 191.58 407.79 L 193.06 406.62 L 194.53 406.75 L 196.00 402.74 L 197.47 404.29 L 198.94 405.95 L 200.42 404.33 L 201.89 404.99 L 203.36 408.80 L 204.83 408.06 L 206.31 408.87 L 207.78 417.14 L 209.25 413.46 L 210.72 415.85 L 212.19 406.10 L 213.67 397.54 L 215.14 398.14 L 216.61 403.54 L 218.08 404.92 L 219.56 412.18 L 221.03 412.15 L 222.50 408.95 L 223.97 407.79 L 225.44 402.60 L 226.92 401.18 L 228.39 405.56 L 229.86 404.74 L 231.33 404.24 L 232.81 404.36 L 234.28 403.10 L 235.75 403.90 L 237.22 403.28 L 238.69 396.81 L 240.17 404.44 L 241.64 403.03 L 243.11 409.33 L 244.58 402.61 L 246.06 405.12 L 247.53 402.97 L 249.00 407.61 L 250.47 407.08 L 251.94 407.89 L 253.42 404.45 L 254.89 405.36 L 256.36 403.14 L 257.83 401.03 L 259.31 401.68 L 260.78 410.19 L 262.25 405.98 L 263.72 403.38 L 265.19 404.85 L 266.67 400.61 L 268.14 403.01 L 269.61 403.18 L 271.08 405.95 L 272.56 404.09 L 274.03 403.89 L 275.50 404.67 L 276.97 404.80 L 278.44 402.28 L 279.92 407.35 L 281.39 403.99 L 282.86 409.39 L 284.33 405.70 L 285.81 408.68 L 287.28 405.93 L 288.75 411.93 L 290.22 414.75 L 291.69 415.21 L 293.17 423.76 L 294.64 415.24 L 296.11 420.93 L 297.58 419.04 L 299.06 416.84 L 300.53 413.56 L 302.00 414.85 L 303.47 411.47 L 304.94 413.56 L 306.42 407.67 L 307.89 399.36 L 309.36 404.40 L 310.83 409.19 L 312.31 409.00 L 313.78 419.54 L 315.25 411.34 L 316.72 418.38 L 318.19 407.45 L 319.67 409.76 L 321.14 405.85 L 322.61 420.57 L 324.08 424.04 L 325.56 428.79 L 327.03 428.84 L 328.50 438.07 L 329.97 428.84 L 331.44 441.83 L 332.92 425.37 L 334.39 411.55 L 335.86 413.40 L 337.33 410.74 L 338.81 401.53 L 340.28 394.70 L 341.75 403.86 L 343.22 407.60 L 344.69 414.12 L 346.17 413.51 L 347.64 421.95 L 349.11 420.12 L 350.58 418.52 L 352.06 422.48 L 353.53 417.24 L 355.00 432.95 L 356.47 414.13 L 357.94 413.49 L 359.42 407.14 L 360.89 407.45 L 362.36 423.94 L 363.83 403.67 L 365.31 416.21 L 366.78 404.80 L 368.25 404.10 L 369.72 411.75 L 371.19 422.53 L 372.67 422.75 L 374.14 418.76 L 375.61 425.69 L 377.08 421.83 L 378.56 424.94 L 380.03 421.27 L 381.50 418.29 L 382.97 419.30 L 384.44 409.11 L 385.92 408.56 L 387.39 409.77 L 388.86 402.19 L 390.33 405.33 L 391.81 414.43 L 393.28 409.71 L 394.75 411.54 L 396.22 416.89 L 397.69 415.47 L 399.17 409.19 L 400.64 402.56 L 402.11 414.64 L 403.58 409.03 L 405.06 408.01 L 406.53 409.54 L 408.00 403.29 L 409.47 407.64 L 410.94 397.47 L 412.42 407.71 L 413.89 400.78 L 415.36 404.04 L 416.83 403.26 L 418.31 405.98 L 419.78 405.48 L 421.25 405.77 L 422.72 406.43 L 424.19 405.51 L 425.67 408.97 L 427.14 407.12 L 428.61 404.20 L 430.08 406.78 L 431.56 407.46 L 433.03 407.29 L 434.50 403.72 L 435.97 406.73 L 437.44 411.73 L 438.92 406.46 L 440.39 409.92 L 441.86 409.92 L 443.33 409.44 L 444.81 407.26 L 446.28 409.45 L 447.75 407.75 L 449.22 407.44 L 450.69 408.80 L 452.17 408.80 L 453.64 407.42 L 455.11 408.02 L 456.58 408.76 L 458.06 407.89 L 459.53 408.48 L 461.00 408.20 L 462.47 408.29 L 463.94 408.46 L 465.42 408.28 L 466.89 408.44 L 468.36 408.33 L 469.83 408.47 L 471.31 408.27 L 472.78 408.46 L 474.25 408.37 L 475.72 408.41 L 477.19 408.39 L 478.67 408.72 L 480.14 408.41 L 481.61 408.29 L 483.08 408.53 L 484.56 408.38 L 486.03 408.43 L 487.50 408.34 L 488.97 408.38 L 490.44 408.95 L 491.92 408.17 L 493.39 408.78 L 494.86 408.64 L 496.33 408.71 L 497.81 408.81 L 499.28 408.82 L 500.75 409.04 L 502.22 408.90 L 503.69 409.08 L 505.17 408.66 L 506.64 407.49 L 508.11 411.21 L 509.58 407.79 L 511.06 411.95 L 512.53 408.98 L 514.00 409.14 L 515.47 409.84 L 516.94 407.84 L 518.42 408.13 L 519.89 409.22 L 521.36 412.63 L 522.83 411.22 L 524.31 409.38 L 525.78 407.21 L 527.25 408.24 L 528.72 407.97 L 530.19 408.40 L 531.67 408.81 L 533.14 408.30 L 534.61 408.51 L 536.08 408.53 L 537.56 408.41 L 539.03 408.50 L 540.50 408.47 L 541.97 408.02 L 543.44 407.80 L 544.92 406.70 L 546.39 413.16 L 547.86 409.40 L 549.33 408.97 L 550.81 414.20 L 552.28 417.00 L 553.75 413.05 L 555.22 418.98 L 556.69 422.26 L 558.17 421.93 L 559.64 417.01 L 561.11 411.16 L 562.58 404.00 L 564.06 406.99 L 565.53 406.90 L 567.00 408.85 L 568.47 409.32 L 569.94 409.92 L 571.42 403.04 L 572.89 399.97 L 574.36 403.85 L 575.83 402.66 L 577.31 413.18 L 578.78 405.11 L 580.25 402.77 L 581.72 399.81 L 583.19 406.76 L 584.67 395.05 L 586.14 403.18 L 587.61 403.95 L 589.08 401.26 L 590.56 408.18 L 592.03 393.09 L 593.50 392.74 L 594.97 409.44 L 596.44 404.29 L 597.92 400.25 L 599.39 392.43 L 600.86 405.88 L 602.33 411.57 L 603.81 403.91 L 605.28 407.52 L 606.75 413.41 L 608.22 410.37 L 609.69 414.92 L 611.17 408.47 L 612.64 415.99 L 614.11 416.14 L 615.58 415.27 L 617.06 411.96 L 618.53 417.71 L 620.00 408.99 L 621.47 414.48 L 622.94 411.90 L 624.42 407.16 L 625.89 412.23 L 627.36 417.43 L 628.83 414.54 L 630.31 407.37 L 631.78 417.03 L 633.25 414.99 L 634.72 431.70 L 636.19 421.06 L 637.67 418.98 L 639.14 396.30 L 640.61 417.45 L 642.08 408.48 L 643.56 408.40 L 645.03 412.17 L 646.50 411.26 L 647.97 406.69 L 649.44 408.49 L 650.92 406.30 L 652.39 406.86 L 653.86 410.08 L 655.33 411.70 L 656.81 414.25 L 658.28 421.63 L 659.75 420.25 L 661.22 419.90 L 662.69 416.77 L 664.17 418.90 L 665.64 413.64 L 667.11 405.86 L 668.58 407.32 L 670.06 414.84 L 671.53 412.02 L 673.00 410.59 L 674.47 413.17 L 675.94 407.93 L 677.42 410.99 L 678.89 401.88 L 680.36 404.67 L 681.83 399.73 L 683.31 411.26 L 684.78 404.06 L 686.25 406.63 L 687.72 403.89 L 689.19 407.25 L 690.67 410.88 L 692.14 408.85 L 693.61 402.87 L 695.08 406.10 L 696.56 403.31 L 698.03 406.33 L 699.50 418.25 L 700.97 418.18 L 702.44 420.58 L 703.92 430.12 L 705.39 438.46 L 706.86 448.04 L 708.33 437.50 L 709.81 439.32 L 711.28 430.77 L 712.75 423.67 L 714.22 421.47 L 715.69 421.00 L 717.17 402.76 L 718.64 391.90 L 720.11 378.98 L 721.58 375.90 L 723.06 371.77 L 724.53 374.16 L 726.00 377.23 L 727.47 389.10 L 728.94 416.68 L 730.42 430.46 L 731.89 420.86 L 733.36 428.46 L 734.83 428.46 L 736.31 436.35 L 737.78 441.49 L 739.25 427.03 L 740.72 416.58 L 742.19 409.33 L 743.67 402.90 L 745.14 411.02 L 746.61 403.27 L 748.08 400.47 L 749.56 403.31 L 751.03 399.94 L 752.50 400.28 L 753.97 401.63 L 755.44 401.04 L 756.92 398.59 L 758.39 402.34 L 759.86 401.09 L 761.33 402.14 L 762.81 404.31 L 764.28 403.70 L 765.75 406.40 L 767.22 407.83 L 768.69 408.67 L 770.17 406.30 L 771.64 410.20" stroke="#6A1B9A" />
<line x1="900.00" y1="307.75" x2="918.00" y2="307.75" stroke="#2E7D32" stroke-width="3" />
<text class="small" x="924.00" y="311.75">pitch</text>
<line x1="900.00" y1="323.75" x2="918.00" y2="323.75" stroke="#6A1B9A" stroke-width="3" />
<text class="small" x="924.00" y="327.75">roll</text>
<text x="90" y="500.50" font-size="14" font-weight="700">Aceleração (magnitude) (u.a.)</text>
<rect class="event" x="443.33" y="506.50" width="63.31" height="192.75" />
<line class="eventline" x1="443.33" y1="506.50" x2="443.33" y2="699.25" />
<line class="eventline" x1="506.64" y1="506.50" x2="506.64" y2="699.25" />
<line class="grid" x1="90" y1="699.25" x2="1150" y2="699.25" />
<text class="small" x="80" y="703.25" text-anchor="end">0.00</text>
<line class="grid" x1="90" y1="660.70" x2="1150" y2="660.70" />
<text class="small" x="80" y="664.70" text-anchor="end">0.50</text>
<line class="grid" x1="90" y1="622.15" x2="1150" y2="622.15" />
<text class="small" x="80" y="626.15" text-anchor="end">1.00</text>
<line class="grid" x1="90" y1="583.60" x2="1150" y2="583.60" />
<text class="small" x="80" y="587.60" text-anchor="end">1.50</text>
<line class="grid" x1="90" y1="545.05" x2="1150" y2="545.05" />
<text class="small" x="80" y="549.05" text-anchor="end">2.00</text>
<line class="grid" x1="90" y1="506.50" x2="1150" y2="506.50" />
<text class="small" x="80" y="510.50" text-anchor="end">2.50</text>
<line class="grid" x1="90.00" y1="506.50" x2="90.00" y2="699.25" />
<line class="grid" x1="266.67" y1="506.50" x2="266.67" y2="699.25" />
<line class="grid" x1="443.33" y1="506.50" x2="443.33" y2="699.25" />
<line class="grid" x1="620.00" y1="506.50" x2="620.00" y2="699.25" />
<line class="grid" x1="796.67" y1="506.50" x2="796.67" y2="699.25" />
<line class="grid" x1="973.33" y1="506.50" x2="973.33" y2="699.25" />
<line class="grid" x1="1150.00" y1="506.50" x2="1150.00" y2="699.25" />
<line class="axis" x1="90" y1="506.50" x2="90" y2="699.25" />
<line class="axis" x1="90" y1="699.25" x2="1150" y2="699.25" />
<path class="series" d="M 178.33 665.91 L 179.81 676.87 L 181.28 691.23 L 182.75 694.09 L 184.22 693.13 L 185.69 688.23 L 187.17 688.23 L 188.64 694.68 L 190.11 691.72 L 191.58 698.71 L 193.06 696.28 L 194.53 694.85 L 196.00 692.62 L 197.47 692.95 L 198.94 695.49 L 200.42 696.59 L 201.89 694.33 L 203.36 695.21 L 204.83 691.17 L 206.31 694.78 L 207.78 686.73 L 209.25 691.71 L 210.72 690.44 L 212.19 695.07 L 213.67 685.48 L 215.14 683.35 L 216.61 689.25 L 218.08 683.57 L 219.56 690.52 L 221.03 693.62 L 222.50 693.43 L 223.97 695.75 L 225.44 691.48 L 226.92 684.33 L 228.39 695.73 L 229.86 696.60 L 231.33 697.44 L 232.81 695.63 L 234.28 687.72 L 235.75 694.93 L 237.22 690.51 L 238.69 691.34 L 240.17 687.47 L 241.64 696.57 L 243.11 681.43 L 244.58 693.26 L 246.06 694.36 L 247.53 691.41 L 249.00 694.04 L 250.47 695.30 L 251.94 697.50 L 253.42 695.71 L 254.89 694.26 L 256.36 694.81 L 257.83 691.45 L 259.31 696.85 L 260.78 680.97 L 262.25 696.00 L 263.72 692.75 L 265.19 691.92 L 266.67 695.18 L 268.14 692.07 L 269.61 694.80 L 271.08 689.33 L 272.56 693.91 L 274.03 696.71 L 275.50 696.42 L 276.97 694.05 L 278.44 686.19 L 279.92 688.41 L 281.39 689.39 L 282.86 684.78 L 284.33 688.83 L 285.81 692.52 L 287.28 686.65 L 288.75 689.70 L 290.22 657.32 L 291.69 680.09 L 293.17 673.03 L 294.64 692.59 L 296.11 679.58 L 297.58 689.30 L 299.06 682.42 L 300.53 689.96 L 302.00 684.54 L 303.47 681.44 L 304.94 655.81 L 306.42 678.68 L 307.89 660.25 L 309.36 662.45 L 310.83 656.50 L 312.31 612.33 L 313.78 648.88 L 315.25 664.22 L 316.72 665.35 L 318.19 682.47 L 319.67 689.01 L 321.14 671.36 L 322.61 623.41 L 324.08 627.59 L 325.56 669.21 L 327.03 652.99 L 328.50 675.17 L 329.97 616.00 L 331.44 619.76 L 332.92 654.50 L 334.39 662.92 L 335.86 662.86 L 337.33 655.90 L 338.81 639.38 L 340.28 672.91 L 341.75 673.15 L 343.22 666.57 L 344.69 682.67 L 346.17 683.71 L 347.64 671.03 L 349.11 667.20 L 350.58 687.83 L 352.06 654.42 L 353.53 681.87 L 355.00 674.72 L 356.47 690.29 L 357.94 667.42 L 359.42 667.42 L 360.89 679.25 L 362.36 683.06 L 363.83 661.58 L 365.31 664.75 L 366.78 665.71 L 368.25 682.04 L 369.72 673.10 L 371.19 665.35 L 372.67 676.52 L 374.14 690.87 L 375.61 670.93 L 377.08 687.34 L 378.56 685.56 L 380.03 690.20 L 381.50 689.92 L 382.97 680.71 L 384.44 686.34 L 385.92 650.82 L 387.39 651.87 L 388.86 686.14 L 390.33 688.46 L 391.81 656.72 L 393.28 668.47 L 394.75 661.19 L 396.22 681.12 L 397.69 688.99 L 399.17 665.94 L 400.64 669.18 L 402.11 692.88 L 403.58 696.96 L 405.06 683.24 L 406.53 694.87 L 408.00 687.96 L 409.47 683.04 L 410.94 688.67 L 412.42 675.87 L 413.89 693.76 L 415.36 690.45 L 416.83 695.32 L 418.31 688.75 L 419.78 684.18 L 421.25 694.61 L 422.72 694.57 L 424.19 692.90 L 425.67 693.70 L 427.14 683.42 L 428.61 689.28 L 430.08 694.59 L 431.56 684.52 L 433.03 683.65 L 434.50 684.02 L 435.97 676.16 L 437.44 680.15 L 438.92 693.11 L 440.39 691.81 L 441.86 686.42 L 443.33 677.64 L 444.81 694.99 L 446.28 682.33 L 447.75 691.93 L 449.22 698.02 L 450.69 695.86 L 452.17 696.16 L 453.64 694.90 L 455.11 696.54 L 456.58 697.37 L 458.06 698.51 L 459.53 697.69 L 461.00 698.30 L 462.47 698.64 L 463.94 698.88 L 465.42 698.83 L 466.89 699.22 L 468.36 698.29 L 469.83 696.49 L 471.31 698.61 L 472.78 699.03 L 474.25 698.72 L 475.72 692.56 L 477.19 693.17 L 478.67 695.76 L 480.14 698.36 L 481.61 698.58 L 483.08 698.44 L 484.56 698.71 L 486.03 698.98 L 487.50 698.66 L 488.97 698.07 L 490.44 698.11 L 491.92 692.30 L 493.39 691.49 L 494.86 698.37 L 496.33 698.49 L 497.81 698.41 L 499.28 698.64 L 500.75 698.85 L 502.22 698.54 L 503.69 696.43 L 505.17 686.91 L 506.64 678.24 L 508.11 685.11 L 509.58 589.30 L 511.06 657.12 L 512.53 687.97 L 514.00 693.21 L 515.47 676.44 L 516.94 686.18 L 518.42 687.80 L 519.89 661.53 L 521.36 641.53 L 522.83 646.63 L 524.31 690.47 L 525.78 698.12 L 527.25 695.95 L 528.72 697.35 L 530.19 697.35 L 531.67 697.70 L 533.14 697.95 L 534.61 698.32 L 536.08 698.64 L 537.56 698.84 L 539.03 698.79 L 540.50 698.35 L 541.97 666.42 L 543.44 673.93 L 544.92 668.66 L 546.39 680.69 L 547.86 669.35 L 549.33 671.34 L 550.81 687.98 L 552.28 659.38 L 553.75 655.67 L 555.22 663.26 L 556.69 665.80 L 558.17 669.94 L 559.64 663.39 L 561.11 674.26 L 562.58 686.43 L 564.06 651.94 L 565.53 640.62 L 567.00 647.64 L 568.47 690.81 L 569.94 671.81 L 571.42 668.36 L 572.89 648.95 L 574.36 678.42 L 575.83 673.87 L 577.31 687.18 L 578.78 633.39 L 580.25 667.89 L 581.72 683.26 L 583.19 684.25 L 584.67 658.11 L 586.14 675.90 L 587.61 659.69 L 589.08 667.63 L 590.56 668.07 L 592.03 655.57 L 593.50 663.47 L 594.97 650.38 L 596.44 666.79 L 597.92 671.42 L 599.39 662.00 L 600.86 677.87 L 602.33 690.33 L 603.81 677.58 L 605.28 690.27 L 606.75 682.20 L 608.22 675.32 L 609.69 685.96 L 611.17 697.79 L 612.64 670.97 L 614.11 679.56 L 615.58 684.34 L 617.06 678.27 L 618.53 669.23 L 620.00 681.32 L 621.47 681.75 L 622.94 688.80 L 624.42 686.90 L 625.89 689.61 L 627.36 683.14 L 628.83 685.74 L 630.31 674.22 L 631.78 664.33 L 633.25 691.77 L 634.72 658.51 L 636.19 679.23 L 637.67 691.22 L 639.14 625.91 L 640.61 686.94 L 642.08 688.08 L 643.56 675.01 L 645.03 686.62 L 646.50 688.15 L 647.97 693.73 L 649.44 687.13 L 650.92 685.27 L 652.39 694.85 L 653.86 689.24 L 655.33 669.15 L 656.81 684.88 L 658.28 678.23 L 659.75 688.37 L 661.22 689.78 L 662.69 684.46 L 664.17 685.24 L 665.64 675.62 L 667.11 676.00 L 668.58 674.31 L 670.06 670.51 L 671.53 683.47 L 673.00 676.39 L 674.47 671.83 L 675.94 673.32 L 677.42 685.98 L 678.89 668.03 L 680.36 686.55 L 681.83 692.98 L 683.31 675.27 L 684.78 691.06 L 686.25 687.39 L 687.72 690.17 L 689.19 687.07 L 690.67 684.09 L 692.14 689.99 L 693.61 689.99 L 695.08 692.62 L 696.56 691.53 L 698.03 690.64 L 699.50 688.00 L 700.97 663.06 L 702.44 684.16 L 703.92 652.46 L 705.39 629.01 L 706.86 640.74 L 708.33 624.86 L 709.81 635.78 L 711.28 605.19 L 712.75 636.24 L 714.22 629.13 L 715.69 640.17 L 717.17 662.64 L 718.64 630.60 L 720.11 611.64 L 721.58 600.96 L 723.06 597.71 L 724.53 586.58 L 726.00 606.14 L 727.47 666.69 L 728.94 683.06 L 730.42 580.65 L 731.89 603.29 L 733.36 628.91 L 734.83 629.35 L 736.31 637.10 L 737.78 644.00 L 739.25 668.38 L 740.72 677.43 L 742.19 654.92 L 743.67 668.40 L 745.14 682.31 L 746.61 680.61 L 748.08 679.93 L 749.56 679.31 L 751.03 671.09 L 752.50 693.57 L 753.97 689.90 L 755.44 691.07 L 756.92 685.11 L 758.39 684.78 L 759.86 687.09 L 761.33 693.20 L 762.81 693.59 L 764.28 691.27 L 765.75 685.40 L 767.22 695.41 L 768.69 691.55 L 770.17 683.03 L 771.64 686.70" stroke="#FB8C00" />
<text x="90" y="711.25" font-size="14" font-weight="700">Giroscópio (magnitude) (u.a.)</text>
<rect class="event" x="443.33" y="717.25" width="63.31" height="192.75" />
<line class="eventline" x1="443.33" y1="717.25" x2="443.33" y2="910.00" />
<line class="eventline" x1="506.64" y1="717.25" x2="506.64" y2="910.00" />
<line class="grid" x1="90" y1="910.00" x2="1150" y2="910.00" />
<text class="small" x="80" y="914.00" text-anchor="end">0.00</text>
<line class="grid" x1="90" y1="871.45" x2="1150" y2="871.45" />
<text class="small" x="80" y="875.45" text-anchor="end">0.10</text>
<line class="grid" x1="90" y1="832.90" x2="1150" y2="832.90" />
<text class="small" x="80" y="836.90" text-anchor="end">0.20</text>
<line class="grid" x1="90" y1="794.35" x2="1150" y2="794.35" />
<text class="small" x="80" y="798.35" text-anchor="end">0.30</text>
<line class="grid" x1="90" y1="755.80" x2="1150" y2="755.80" />
<text class="small" x="80" y="759.80" text-anchor="end">0.40</text>
<line class="grid" x1="90" y1="717.25" x2="1150" y2="717.25" />
<text class="small" x="80" y="721.25" text-anchor="end">0.50</text>
<line class="grid" x1="90.00" y1="717.25" x2="90.00" y2="910.00" />
<line class="grid" x1="266.67" y1="717.25" x2="266.67" y2="910.00" />
<line class="grid" x1="443.33" y1="717.25" x2="443.33" y2="910.00" />
<line class="grid" x1="620.00" y1="717.25" x2="620.00" y2="910.00" />
<line class="grid" x1="796.67" y1="717.25" x2="796.67" y2="910.00" />
<line class="grid" x1="973.33" y1="717.25" x2="973.33" y2="910.00" />
<line class="grid" x1="1150.00" y1="717.25" x2="1150.00" y2="910.00" />
<line class="axis" x1="90" y1="717.25" x2="90" y2="910.00" />
<line class="axis" x1="90" y1="910.00" x2="1150" y2="910.00" />
<path class="series" d="M 178.33 906.31 L 179.81 901.73 L 181.28 900.00 L 182.75 902.90 L 184.22 905.22 L 185.69 905.68 L 187.17 905.68 L 188.64 908.37 L 190.11 908.10 L 191.58 908.74 L 193.06 908.08 L 194.53 909.22 L 196.00 908.86 L 197.47 907.77 L 198.94 908.42 L 200.42 908.82 L 201.89 905.55 L 203.36 907.45 L 204.83 904.55 L 206.31 903.63 L 207.78 905.97 L 209.25 905.70 L 210.72 902.97 L 212.19 895.59 L 213.67 901.59 L 215.14 907.77 L 216.61 901.69 L 218.08 899.01 L 219.56 905.38 L 221.03 905.16 L 222.50 905.86 L 223.97 907.38 L 225.44 908.13 L 226.92 908.05 L 228.39 906.24 L 229.86 903.82 L 231.33 903.86 L 232.81 903.22 L 234.28 903.98 L 235.75 904.64 L 237.22 904.95 L 238.69 904.82 L 240.17 902.43 L 241.64 902.52 L 243.11 903.11 L 244.58 904.60 L 246.06 905.01 L 247.53 904.63 L 249.00 907.32 L 250.47 907.29 L 251.94 907.57 L 253.42 906.61 L 254.89 905.87 L 256.36 906.88 L 257.83 907.85 L 259.31 906.24 L 260.78 908.29 L 262.25 907.25 L 263.72 906.20 L 265.19 906.31 L 266.67 906.49 L 268.14 904.31 L 269.61 904.99 L 271.08 905.54 L 272.56 905.39 L 274.03 905.94 L 275.50 906.24 L 276.97 906.53 L 278.44 904.81 L 279.92 906.01 L 281.39 906.04 L 282.86 906.02 L 284.33 907.69 L 285.81 907.83 L 287.28 906.69 L 288.75 902.83 L 290.22 903.09 L 291.69 898.05 L 293.17 895.97 L 294.64 896.14 L 296.11 887.75 L 297.58 894.65 L 299.06 895.66 L 300.53 897.71 L 302.00 902.93 L 303.47 902.49 L 304.94 895.26 L 306.42 898.99 L 307.89 899.94 L 309.36 898.50 L 310.83 893.15 L 312.31 894.33 L 313.78 903.97 L 315.25 898.90 L 316.72 898.63 L 318.19 897.10 L 319.67 907.53 L 321.14 899.45 L 322.61 878.24 L 324.08 879.63 L 325.56 864.82 L 327.03 862.71 L 328.50 853.73 L 329.97 851.43 L 331.44 863.85 L 332.92 877.64 L 334.39 884.34 L 335.86 889.32 L 337.33 892.38 L 338.81 892.24 L 340.28 875.07 L 341.75 872.58 L 343.22 876.70 L 344.69 888.56 L 346.17 891.05 L 347.64 896.50 L 349.11 900.30 L 350.58 902.26 L 352.06 899.89 L 353.53 891.41 L 355.00 886.06 L 356.47 885.77 L 357.94 889.84 L 359.42 889.84 L 360.89 897.46 L 362.36 884.95 L 363.83 902.30 L 365.31 904.71 L 366.78 902.40 L 368.25 902.03 L 369.72 906.36 L 371.19 905.08 L 372.67 888.27 L 374.14 876.18 L 375.61 871.08 L 377.08 858.32 L 378.56 858.54 L 380.03 855.21 L 381.50 857.32 L 382.97 856.18 L 384.44 854.66 L 385.92 863.09 L 387.39 884.81 L 388.86 901.95 L 390.33 904.84 L 391.81 905.28 L 393.28 905.87 L 394.75 905.67 L 396.22 890.53 L 397.69 875.89 L 399.17 870.26 L 400.64 869.73 L 402.11 870.89 L 403.58 871.45 L 405.06 872.20 L 406.53 870.60 L 408.00 869.19 L 409.47 871.66 L 410.94 871.04 L 412.42 878.47 L 413.89 886.38 L 415.36 894.89 L 416.83 901.50 L 418.31 905.82 L 419.78 905.61 L 421.25 905.98 L 422.72 906.86 L 424.19 903.86 L 425.67 897.97 L 427.14 887.29 L 428.61 882.17 L 430.08 883.47 L 431.56 891.35 L 433.03 891.88 L 434.50 893.83 L 435.97 902.19 L 437.44 906.52 L 438.92 905.27 L 440.39 906.52 L 441.86 905.84 L 443.33 907.29 L 444.81 909.15 L 446.28 907.78 L 447.75 909.31 L 449.22 909.29 L 450.69 909.79 L 452.17 909.61 L 453.64 909.77 L 455.11 909.78 L 456.58 909.86 L 458.06 909.84 L 459.53 909.94 L 461.00 909.83 L 462.47 909.83 L 463.94 909.89 L 465.42 909.82 L 466.89 909.96 L 468.36 909.79 L 469.83 909.96 L 471.31 909.92 L 472.78 909.87 L 474.25 909.87 L 475.72 909.67 L 477.19 909.80 L 478.67 909.85 L 480.14 909.73 L 481.61 909.90 L 483.08 909.91 L 484.56 909.85 L 486.03 909.89 L 487.50 909.68 L 488.97 909.22 L 490.44 909.69 L 491.92 909.51 L 493.39 909.64 L 494.86 909.54 L 496.33 909.34 L 497.81 909.56 L 499.28 909.29 L 500.75 909.05 L 502.22 909.84 L 503.69 909.46 L 505.17 907.12 L 506.64 904.28 L 508.11 905.23 L 509.58 899.33 L 511.06 907.39 L 512.53 909.50 L 514.00 909.66 L 515.47 907.59 L 516.94 907.34 L 518.42 905.06 L 519.89 906.11 L 521.36 905.41 L 522.83 904.94 L 524.31 908.65 L 525.78 909.77 L 527.25 909.57 L 528.72 909.75 L 530.19 909.75 L 531.67 909.93 L 533.14 909.79 L 534.61 909.54 L 536.08 909.93 L 537.56 909.88 L 539.03 909.79 L 540.50 909.85 L 541.97 906.29 L 543.44 908.01 L 544.92 906.62 L 546.39 903.40 L 547.86 905.36 L 549.33 900.89 L 550.81 902.20 L 552.28 896.04 L 553.75 886.55 L 555.22 881.63 L 556.69 880.84 L 558.17 887.42 L 559.64 887.56 L 561.11 875.72 L 562.58 900.53 L 564.06 889.62 L 565.53 897.24 L 567.00 899.10 L 568.47 902.01 L 569.94 907.19 L 571.42 905.16 L 572.89 888.58 L 574.36 883.28 L 575.83 887.16 L 577.31 896.01 L 578.78 898.48 L 580.25 883.07 L 581.72 896.22 L 583.19 886.31 L 584.67 885.00 L 586.14 881.06 L 587.61 878.37 L 589.08 880.30 L 590.56 880.15 L 592.03 873.28 L 593.50 877.28 L 594.97 880.02 L 596.44 890.86 L 597.92 895.75 L 599.39 892.99 L 600.86 888.25 L 602.33 896.62 L 603.81 894.01 L 605.28 897.78 L 606.75 903.07 L 608.22 902.78 L 609.69 897.93 L 611.17 898.57 L 612.64 896.45 L 614.11 892.26 L 615.58 899.11 L 617.06 898.74 L 618.53 896.20 L 620.00 896.32 L 621.47 900.46 L 622.94 899.11 L 624.42 906.91 L 625.89 902.72 L 627.36 904.72 L 628.83 904.20 L 630.31 906.62 L 631.78 903.20 L 633.25 900.35 L 634.72 890.95 L 636.19 892.61 L 637.67 894.18 L 639.14 901.19 L 640.61 894.28 L 642.08 891.51 L 643.56 898.88 L 645.03 906.20 L 646.50 903.38 L 647.97 906.36 L 649.44 906.22 L 650.92 906.70 L 652.39 908.17 L 653.86 904.48 L 655.33 901.46 L 656.81 905.65 L 658.28 896.91 L 659.75 899.52 L 661.22 901.94 L 662.69 902.70 L 664.17 905.40 L 665.64 899.02 L 667.11 894.65 L 668.58 901.87 L 670.06 892.16 L 671.53 891.61 L 673.00 898.66 L 674.47 903.18 L 675.94 900.88 L 677.42 900.19 L 678.89 892.71 L 680.36 890.25 L 681.83 889.95 L 683.31 904.10 L 684.78 905.31 L 686.25 908.09 L 687.72 908.40 L 689.19 904.77 L 690.67 905.62 L 692.14 902.05 L 693.61 902.05 L 695.08 904.57 L 696.56 905.81 L 698.03 905.12 L 699.50 906.74 L 700.97 898.34 L 702.44 894.42 L 703.92 885.23 L 705.39 865.36 L 706.86 854.33 L 708.33 848.28 L 709.81 844.85 L 711.28 820.69 L 712.75 832.09 L 714.22 847.27 L 715.69 866.33 L 717.17 877.28 L 718.64 892.02 L 720.11 896.11 L 721.58 862.80 L 723.06 831.82 L 724.53 812.51 L 726.00 797.47 L 727.47 804.98 L 728.94 847.69 L 730.42 898.75 L 731.89 862.68 L 733.36 857.62 L 734.83 854.11 L 736.31 857.86 L 737.78 858.74 L 739.25 876.99 L 740.72 896.45 L 742.19 904.06 L 743.67 904.16 L 745.14 901.72 L 746.61 906.44 L 748.08 902.99 L 749.56 900.65 L 751.03 907.26 L 752.50 906.72 L 753.97 903.84 L 755.44 906.61 L 756.92 906.62 L 758.39 905.01 L 759.86 903.12 L 761.33 904.87 L 762.81 907.27 L 764.28 909.15 L 765.75 903.87 L 767.22 903.58 L 768.69 902.93 L 770.17 904.95 L 771.64 906.68" stroke="#E53935" />
<text x="620.00" y="952" font-size="15" text-anchor="middle">minutos (relativo ao início do evento)</text>
<text class="small" x="90.00" y="936" text-anchor="middle">-4.00</text>
<text class="small" x="266.67" y="936" text-anchor="middle">-2.00</text>
<text class="small" x="443.33" y="936" text-anchor="middle">0.00</text>
<text class="small" x="620.00" y="936" text-anchor="middle">2.00</text>
<text class="small" x="796.67" y="936" text-anchor="middle">4.00</text>
<text class="small" x="973.33" y="936" text-anchor="middle">6.00</text>
<text class="small" x="1150.00" y="936" text-anchor="middle">8.00</text>
</svg>