<?xml version="1.0" encoding="UTF-8"?>
<svg xmlns="http://www.w3.org/2000/svg" width="1180" height="980" viewBox="0 0 1180 980">
<style>
text { font-family: -apple-system, BlinkMacSystemFont, 'Segoe UI', Roboto, Helvetica, Arial, sans-serif; fill: #111; }
.small { font-size: 12px; fill: #222; }
.title { font-size: 18px; font-weight: 700; }
.axis { stroke: #111; stroke-width: 1.4; }
.grid { stroke: #E6E6E6; stroke-width: 1; }
.event { fill: #FFEB3B; fill-opacity: 0.18; }
.eventline { stroke: #F9A825; stroke-width: 1.2; stroke-dasharray: 4 3; }
.series { fill: none; stroke-width: 1.8; }
</style>
<text class="title" x="90" y="34">ciclo 20 — basculamento — 2025-12-13T06:06:47-03:00 → 2025-12-13T06:06:59-03:00 (span 12s, dur 13s)</text>
<text class="small" x="90" y="54">GPS: -11.692951,-47.165591  hotspot: -11.693,-47.166</text>
<text class="small" x="90" y="70">Janela: -3.00 → 3.20 min (relativo ao início do evento)</text>
<text x="90" y="79.00" font-size="14" font-weight="700">Velocidade (km/h)</text>
<rect class="event" x="443.33" y="85.00" width="17.67" height="192.75" />
<line class="eventline" x1="443.33" y1="85.00" x2="443.33" y2="277.75" />
<line class="eventline" x1="461.00" y1="85.00" x2="461.00" y2="277.75" />
<line class="grid" x1="90" y1="277.75" x2="1150" y2="277.75" />
<text class="small" x="80" y="281.75" text-anchor="end">0.00</text>
<line class="grid" x1="90" y1="239.20" x2="1150" y2="239.20" />
<text class="small" x="80" y="243.20" text-anchor="end">10.0</text>
<line class="grid" x1="90" y1="200.65" x2="1150" y2="200.65" />
<text class="small" x="80" y="204.65" text-anchor="end">20.0</text>
<line class="grid" x1="90" y1="162.10" x2="1150" y2="162.10" />
<text class="small" x="80" y="166.10" text-anchor="end">30.0</text>
<line class="grid" x1="90" y1="123.55" x2="1150" y2="123.55" />
<text class="small" x="80" y="127.55" text-anchor="end">40.0</text>
<line class="grid" x1="90" y1="85.00" x2="1150" y2="85.00" />
<text class="small" x="80" y="89.00" text-anchor="end">50.0</text>
<line class="grid" x1="90.00" y1="85.00" x2="90.00" y2="277.75" />
<line class="grid" x1="266.67" y1="85.00" x2="266.67" y2="277.75" />
<line class="grid" x1="443.33" y1="85.00" x2="443.33" y2="277.75" />
<line class="grid" x1="620.00" y1="85.00" x2="620.00" y2="277.75" />
<line class="grid" x1="796.67" y1="85.00" x2="796.67" y2="277.75" />
<line class="grid" x1="973.33" y1="85.00" x2="973.33" y2="277.75" />
<line class="grid" x1="1150.00" y1="85.00" x2="1150.00" y2="277.75" />
<line class="axis" x1="90" y1="85.00" x2="90" y2="277.75" />
<line class="axis" x1="90" y1="277.75" x2="1150" y2="277.75" />
<path class="series" d="M 178.33 246.11 L 179.81 246.39 L 181.28 246.25 L 182.75 247.08 L 184.22 249.02 L 185.69 249.16 L 187.17 250.41 L 188.64 250.27 L 190.11 251.52 L 191.58 252.91 L 193.06 251.80 L 194.53 251.38 L 196.00 249.16 L 197.47 248.33 L 198.94 247.50 L 200.42 248.19 L 201.89 246.39 L 203.36 248.47 L 204.83 247.77 L 206.31 246.52 L 207.78 245.83 L 209.25 247.36 L 210.72 245.83 L 212.19 245.69 L 213.67 245.28 L 215.14 246.11 L 216.61 245.55 L 218.08 246.11 L 219.56 246.66 L 221.03 246.39 L 222.50 246.52 L 223.97 246.52 L 225.44 248.74 L 226.92 246.80 L 228.39 247.22 L 229.86 248.74 L 231.33 246.52 L 232.81 245.00 L 234.28 244.17 L 235.75 245.41 L 237.22 243.89 L 238.69 243.33 L 240.17 242.22 L 241.64 241.81 L 243.11 237.78 L 244.58 231.81 L 246.06 227.23 L 247.53 223.35 L 249.00 217.94 L 250.47 211.27 L 251.94 209.47 L 253.42 207.11 L 254.89 203.50 L 256.36 201.14 L 257.83 198.51 L 259.31 197.26 L 260.78 199.76 L 262.25 199.06 L 263.72 196.84 L 265.19 197.26 L 266.67 200.59 L 268.14 195.59 L 269.61 197.95 L 271.08 199.06 L 272.56 206.14 L 274.03 211.55 L 275.50 216.55 L 276.97 220.57 L 278.44 224.18 L 279.92 226.68 L 281.39 231.26 L 282.86 235.98 L 284.33 238.20 L 285.81 240.28 L 287.28 239.45 L 288.75 235.01 L 290.22 236.53 L 291.69 236.39 L 293.17 235.98 L 294.64 235.56 L 296.11 232.37 L 297.58 231.12 L 299.06 230.01 L 300.53 226.82 L 302.00 226.96 L 303.47 231.95 L 304.94 233.48 L 306.42 238.48 L 307.89 239.31 L 309.36 239.31 L 310.83 236.81 L 312.31 234.87 L 313.78 233.34 L 315.25 232.37 L 316.72 229.87 L 318.19 234.87 L 319.67 230.56 L 321.14 226.96 L 322.61 231.54 L 324.08 228.07 L 325.56 227.79 L 327.03 229.59 L 328.50 231.54 L 329.97 226.96 L 331.44 239.45 L 332.92 248.74 L 334.39 259.85 L 335.86 269.84 L 337.33 277.75 L 338.81 277.75 L 340.28 277.75 L 341.75 268.73 L 343.22 266.79 L 344.69 264.01 L 346.17 264.29 L 347.64 262.76 L 349.11 264.01 L 350.58 258.46 L 352.06 261.10 L 353.53 261.93 L 355.00 263.18 L 356.47 259.29 L 357.94 263.04 L 359.42 262.48 L 360.89 262.21 L 362.36 264.15 L 363.83 266.79 L 365.31 270.39 L 366.78 273.59 L 368.25 277.75 L 369.72 277.75 L 371.19 277.75 L 372.67 277.75 L 374.14 277.75 L 375.61 277.75 L 377.08 277.75 L 378.56 277.75 L 380.03 277.75 L 381.50 277.75 L 382.97 277.75 L 384.44 277.75 L 385.92 277.75 L 387.39 277.75 L 388.86 277.75 L 390.33 277.75 L 391.81 277.75 L 393.28 277.75 L 394.75 277.75 L 396.22 277.75 L 397.69 277.75 L 399.17 277.75 L 400.64 277.75 L 402.11 277.75 L 403.58 277.75 L 405.06 277.75 L 406.53 277.75 L 408.00 277.75 L 409.47 277.75 L 410.94 277.75 L 412.42 277.75 L 413.89 277.75 L 415.36 277.75 L 416.83 277.75 L 418.31 277.75 L 419.78 277.75 L 421.25 277.75 L 422.72 277.75 L 424.19 277.75 L 425.67 277.75 L 427.14 277.75 L 428.61 277.75 L 430.08 277.75 L 431.56 277.75 L 433.03 259.57 L 434.50 261.93 L 435.97 263.87 L 437.44 259.99 L 438.92 267.90 L 440.39 264.70 L 441.86 266.09 L 443.33 277.75 L 444.81 277.75 L 446.28 277.75 L 447.75 277.75 L 449.22 277.75 L 450.69 277.75 L 452.17 277.75 L 453.64 277.75 L 455.11 277.75 L 456.58 277.75 L 458.06 277.75 L 459.53 277.75 L 461.00 277.75 L 462.47 269.98 L 463.94 269.70 L 465.42 269.15 L 466.89 262.35 L 468.36 258.46 L 469.83 252.21 L 471.31 252.77 L 472.78 251.52 L 474.25 246.11 L 475.72 250.55 L 477.19 241.25 L 478.67 230.70 L 480.14 223.35 L 481.61 216.27 L 483.08 206.28 L 484.56 204.61 L 486.03 202.25 L 487.50 205.86 L 488.97 207.80 L 490.44 205.17 L 491.92 204.61 L 493.39 208.08 L 494.86 205.58 L 496.33 204.89 L 497.81 204.61 L 499.28 209.75 L 500.75 198.92 L 502.22 193.65 L 503.69 191.57 L 505.17 187.27 L 506.64 183.66 L 508.11 176.30 L 509.58 178.52 L 511.06 171.86 L 512.53 172.42 L 514.00 171.03 L 515.47 173.25 L 516.94 167.56 L 518.42 165.06 L 519.89 158.26 L 521.36 163.53 L 522.83 167.28 L 524.31 174.36 L 525.78 177.13 L 527.25 179.77 L 528.72 184.07 L 530.19 177.83 L 531.67 169.64 L 533.14 168.39 L 534.61 160.90 L 536.08 156.60 L 537.56 156.04 L 539.03 157.84 L 540.50 155.76 L 541.97 159.09 L 543.44 159.23 L 544.92 159.23 L 546.39 156.32 L 547.86 159.93 L 549.33 159.93 L 550.81 155.07 L 552.28 154.24 L 553.75 150.63 L 555.22 150.91 L 556.69 155.21 L 558.17 156.32 L 559.64 158.12 L 561.11 154.65 L 562.58 156.46 L 564.06 159.65 L 565.53 163.40 L 567.00 162.01 L 568.47 157.84 L 569.94 153.54 L 571.42 147.71 L 572.89 148.82 L 574.36 145.91 L 575.83 142.16 L 577.31 140.50 L 578.78 141.75 L 580.25 145.63 L 581.72 145.22 L 583.19 147.71 L 584.67 158.26 L 586.14 161.04 L 587.61 162.42 L 589.08 161.73 L 590.56 165.75 L 592.03 164.78 L 593.50 167.00 L 594.97 176.86 L 596.44 175.47 L 597.92 177.27 L 599.39 178.66 L 600.86 182.55 L 602.33 181.85 L 603.81 186.29 L 605.28 186.85 L 606.75 182.96 L 608.22 183.10 L 609.69 181.16 L 611.17 181.58 L 612.64 180.47 L 614.11 179.49 L 615.58 178.11 L 617.06 175.89 L 618.53 167.14 L 620.00 157.15 L 621.47 153.26 L 622.94 142.86 L 624.42 144.66 L 625.89 143.41 L 627.36 150.21 L 628.83 151.46 L 630.31 162.84 L 631.78 166.45 L 633.25 174.36 L 634.72 186.29 L 636.19 205.31 L 637.67 221.41 L 639.14 226.40 L 640.61 223.21 L 642.08 215.85 L 643.56 206.56 L 645.03 199.62 L 646.50 187.13 L 647.97 179.35 L 649.44 172.69 L 650.92 164.92 L 652.39 160.48 L 653.86 159.37 L 655.33 156.87 L 656.81 157.15 L 658.28 154.51 L 659.75 154.65 L 661.22 152.85 L 662.69 154.10 L 664.17 154.10 L 665.64 155.07 L 667.11 156.87 L 668.58 156.32 L 670.06 153.13 L 671.53 149.38 L 673.00 147.30 L 674.47 148.27 L 675.94 144.80 L 677.42 142.58 L 678.89 139.66 L 680.36 134.67 L 681.83 132.17 L 683.31 134.53 L 684.78 136.89 L 686.25 144.66 L 687.72 145.91 L 689.19 140.64 L 690.67 146.88 L 692.14 147.30 L 693.61 149.24 L 695.08 153.26 L 696.56 148.96 L 698.03 150.77 L 699.50 150.07 L 700.97 149.66 L 702.44 149.24 L 703.92 147.16 L 705.39 153.26 L 706.86 152.99 L 708.33 153.96 L 709.81 155.35 L 711.28 155.07 L 712.75 157.01 L 714.22 155.90 L 715.69 157.57 L 717.17 157.01 L 718.64 154.10 L 720.11 154.93 L 721.58 159.23 L 723.06 162.42 L 724.53 166.17 L 726.00 164.37" stroke="#1976D2" />
<text x="90" y="289.75" font-size="14" font-weight="700">Inclinação (graus)</text>
<rect class="event" x="443.33" y="295.75" width="17.67" height="192.75" />
<line class="eventline" x1="443.33" y1="295.75" x2="443.33" y2="488.50" />
<line class="eventline" x1="461.00" y1="295.75" x2="461.00" y2="488.50" />
<line class="grid" x1="90" y1="488.50" x2="1150" y2="488.50" />
<text class="small" x="80" y="492.50" text-anchor="end">-20.0</text>
<line class="grid" x1="90" y1="449.95" x2="1150" y2="449.95" />
<text class="small" x="80" y="453.95" text-anchor="end">-10.0</text>
<line class="grid" x1="90" y1="411.40" x2="1150" y2="411.40" />
<text class="small" x="80" y="415.40" text-anchor="end">0.00</text>
<line class="grid" x1="90" y1="372.85" x2="1150" y2="372.85" />
<text class="small" x="80" y="376.85" text-anchor="end">10.0</text>
<line class="grid" x1="90" y1="334.30" x2="1150" y2="334.30" />
<text class="small" x="80" y="338.30" text-anchor="end">20.0</text>
<line class="grid" x1="90" y1="295.75" x2="1150" y2="295.75" />
<text class="small" x="80" y="299.75" text-anchor="end">30.0</text>
<line class="grid" x1="90.00" y1="295.75" x2="90.00" y2="488.50" />
<line class="grid" x1="266.67" y1="295.75" x2="266.67" y2="488.50" />
<line class="grid" x1="443.33" y1="295.75" x2="443.33" y2="488.50" />
<line class="grid" x1="620.00" y1="295.75" x2="620.00" y2="488.50" />
<line class="grid" x1="796.67" y1="295.75" x2="796.67" y2="488.50" />
<line class="grid" x1="973.33" y1="295.75" x2="973.33" y2="488.50" />
<line class="grid" x1="1150.00" y1="295.75" x2="1150.00" y2="488.50" />
<line class="axis" x1="90" y1="295.75" x2="90" y2="488.50" />
<line class="axis" x1="90" y1="488.50" x2="1150" y2="488.50" />
<path class="series" d="M 178.33 388.02 L 179.81 388.89 L 181.28 389.60 L 182.75 389.91 L 184.22 393.14 L 185.69 394.76 L 187.17 396.79 L 188.64 398.69 L 190.11 395.75 L 191.58 395.75 L 193.06 395.78 L 194.53 395.07 L 196.00 396.84 L 197.47 395.10 L 198.94 393.33 L 200.42 393.27 L 201.89 389.92 L 203.36 387.90 L 204.83 393.05 L 206.31 391.39 L 207.78 391.52 L 209.25 390.19 L 210.72 389.09 L 212.19 388.34 L 213.67 388.15 L 215.14 389.68 L 216.61 391.17 L 218.08 391.37 L 219.56 393.55 L 221.03 393.61 L 222.50 394.36 L 223.97 393.86 L 225.44 392.89 L 226.92 394.51 L 228.39 394.70 L 229.86 393.96 L 231.33 391.99 L 232.81 390.39 L 234.28 386.95 L 235.75 387.62 L 237.22 389.62 L 238.69 387.55 L 240.17 385.13 L 241.64 381.53 L 243.11 383.08 L 244.58 383.14 L 246.06 372.77 L 247.53 374.94 L 249.00 379.65 L 250.47 371.80 L 251.94 359.95 L 253.42 372.70 L 254.89 374.98 L 256.36 374.95 L 257.83 373.86 L 259.31 374.06 L 260.78 375.57 L 262.25 375.13 L 263.72 372.12 L 265.19 374.50 L 266.67 368.79 L 268.14 368.85 L 269.61 372.88 L 271.08 379.64 L 272.56 370.78 L 274.03 376.80 L 275.50 380.23 L 276.97 378.47 L 278.44 380.65 L 279.92 383.31 L 281.39 382.61 L 282.86 380.20 L 284.33 387.88 L 285.81 385.79 L 287.28 385.90 L 288.75 385.68 L 290.22 383.68 L 291.69 377.79 L 293.17 375.47 L 294.64 374.39 L 296.11 375.58 L 297.58 369.81 L 299.06 380.35 L 300.53 381.24 L 302.00 378.94 L 303.47 383.86 L 304.94 380.22 L 306.42 379.15 L 307.89 385.11 L 309.36 384.55 L 310.83 382.39 L 312.31 378.00 L 313.78 373.52 L 315.25 372.62 L 316.72 374.33 L 318.19 369.37 L 319.67 369.45 L 321.14 365.60 L 322.61 368.47 L 324.08 360.49 L 325.56 356.79 L 327.03 346.58 L 328.50 345.25 L 329.97 341.81 L 331.44 340.76 L 332.92 333.89 L 334.39 339.02 L 335.86 333.72 L 337.33 354.20 L 338.81 347.34 L 340.28 342.74 L 341.75 350.73 L 343.22 349.47 L 344.69 350.24 L 346.17 354.52 L 347.64 352.64 L 349.11 352.57 L 350.58 350.04 L 352.06 346.96 L 353.53 349.18 L 355.00 346.66 L 356.47 350.73 L 357.94 349.60 L 359.42 352.90 L 360.89 354.95 L 362.36 358.65 L 363.83 363.08 L 365.31 361.31 L 366.78 363.59 L 368.25 360.97 L 369.72 359.05 L 371.19 358.85 L 372.67 359.20 L 374.14 358.04 L 375.61 358.38 L 377.08 358.30 L 378.56 358.40 L 380.03 358.46 L 381.50 358.52 L 382.97 358.58 L 384.44 358.66 L 385.92 358.75 L 387.39 358.97 L 388.86 359.01 L 390.33 358.54 L 391.81 359.07 L 393.28 358.69 L 394.75 357.74 L 396.22 359.47 L 397.69 359.52 L 399.17 358.98 L 400.64 358.89 L 402.11 359.32 L 403.58 359.11 L 405.06 359.10 L 406.53 358.97 L 408.00 358.99 L 409.47 359.20 L 410.94 358.23 L 412.42 360.55 L 413.89 359.29 L 415.36 359.56 L 416.83 359.63 L 418.31 359.98 L 419.78 360.29 L 421.25 360.05 L 422.72 360.19 L 424.19 361.64 L 425.67 361.21 L 427.14 360.76 L 428.61 362.78 L 430.08 373.65 L 431.56 384.66 L 433.03 361.54 L 434.50 359.48 L 435.97 365.63 L 437.44 346.29 L 438.92 361.48 L 440.39 350.77 L 441.86 331.39 L 443.33 360.31 L 444.81 355.27 L 446.28 353.71 L 447.75 354.14 L 449.22 354.50 L 450.69 353.15 L 452.17 353.65 L 453.64 353.75 L 455.11 353.25 L 456.58 353.58 L 458.06 359.22 L 459.53 353.85 L 461.00 358.24 L 462.47 351.37 L 463.94 352.50 L 465.42 359.90 L 466.89 354.21 L 468.36 360.27 L 469.83 360.27 L 471.31 359.07 L 472.78 361.73 L 474.25 348.86 L 475.72 357.36 L 477.19 359.57 L 478.67 364.42 L 480.14 359.17 L 481.61 375.27 L 483.08 374.33 L 484.56 367.64 L 486.03 360.14 L 487.50 364.11 L 488.97 372.76 L 490.44 359.63 L 491.92 362.82 L 493.39 351.51 L 494.86 338.25 L 496.33 343.96 L 497.81 343.96 L 499.28 350.84 L 500.75 355.23 L 502.22 356.46 L 503.69 356.24 L 505.17 352.66 L 506.64 357.26 L 508.11 354.99 L 509.58 354.15 L 511.06 373.86 L 512.53 368.94 L 514.00 362.79 L 515.47 362.27 L 516.94 364.54 L 518.42 369.91 L 519.89 372.95 L 521.36 356.06 L 522.83 358.19 L 524.31 358.53 L 525.78 359.93 L 527.25 358.00 L 528.72 358.69 L 530.19 358.43 L 531.67 357.05 L 533.14 356.97 L 534.61 356.98 L 536.08 351.44 L 537.56 342.21 L 539.03 347.13 L 540.50 342.55 L 541.97 344.44 L 543.44 338.46 L 544.92 346.34 L 546.39 343.55 L 547.86 351.87 L 549.33 346.54 L 550.81 347.70 L 552.28 346.02 L 553.75 349.94 L 555.22 341.86 L 556.69 341.84 L 558.17 343.11 L 559.64 341.50 L 561.11 337.85 L 562.58 346.22 L 564.06 340.99 L 565.53 343.35 L 567.00 348.54 L 568.47 348.78 L 569.94 346.62 L 571.42 348.42 L 572.89 348.86 L 574.36 348.48 L 575.83 346.93 L 577.31 346.91 L 578.78 347.00 L 580.25 339.81 L 581.72 342.14 L 583.19 338.74 L 584.67 330.19 L 586.14 334.27 L 587.61 340.16 L 589.08 341.60 L 590.56 340.83 L 592.03 341.10 L 593.50 342.45 L 594.97 342.54 L 596.44 341.63 L 597.92 342.77 L 599.39 342.52 L 600.86 345.09 L 602.33 342.80 L 603.81 344.58 L 605.28 344.34 L 606.75 342.94 L 608.22 343.80 L 609.69 343.75 L 611.17 342.92 L 612.64 344.26 L 614.11 343.24 L 615.58 341.76 L 617.06 347.48 L 618.53 356.59 L 620.00 356.78 L 621.47 351.15 L 622.94 348.87 L 624.42 347.81 L 625.89 349.26 L 627.36 346.75 L 628.83 335.65 L 630.31 339.60 L 631.78 333.92 L 633.25 339.31 L 634.72 334.33 L 636.19 328.78 L 637.67 353.67 L 639.14 358.41 L 640.61 365.65 L 642.08 384.17 L 643.56 379.56 L 645.03 384.30 L 646.50 377.99 L 647.97 385.86 L 649.44 383.68 L 650.92 381.73 L 652.39 373.71 L 653.86 376.52 L 655.33 374.41 L 656.81 375.13 L 658.28 366.16 L 659.75 368.73 L 661.22 364.40 L 662.69 369.30 L 664.17 362.02 L 665.64 361.68 L 667.11 358.00 L 668.58 365.05 L 670.06 367.39 L 671.53 364.65 L 673.00 359.31 L 674.47 359.63 L 675.94 357.27 L 677.42 363.90 L 678.89 368.87 L 680.36 359.43 L 681.83 359.94 L 683.31 359.65 L 684.78 352.36 L 686.25 358.44 L 687.72 363.65 L 689.19 362.38 L 690.67 363.74 L 692.14 359.30 L 693.61 365.51 L 695.08 366.70 L 696.56 366.33 L 698.03 366.50 L 699.50 363.42 L 700.97 364.26 L 702.44 364.07 L 703.92 361.27 L 705.39 365.97 L 706.86 361.58 L 708.33 362.67 L 709.81 365.60 L 711.28 368.08 L 712.75 367.91 L 714.22 367.09 L 715.69 369.57 L 717.17 371.25 L 718.64 371.02 L 720.11 365.23 L 721.58 361.97 L 723.06 363.51 L 724.53 372.95 L 726.00 368.52" stroke="#2E7D32" />
<path class="series" d="M 178.33 396.92 L 179.81 398.51 L 181.28 402.23 L 182.75 402.37 L 184.22 403.16 L 185.69 400.14 L 187.17 403.99 L 188.64 406.90 L 190.11 402.98 L 191.58 402.98 L 193.06 402.28 L 194.53 403.22 L 196.00 401.40 L 197.47 398.36 L 198.94 400.87 L 200.42 407.11 L 201.89 404.09 L 203.36 403.50 L 204.83 402.79 L 206.31 397.07 L 207.78 400.29 L 209.25 402.26 L 210.72 402.29 L 212.19 403.92 L 213.67 402.15 L 215.14 402.39 L 216.61 403.86 L 218.08 401.97 L 219.56 405.44 L 221.03 405.98 L 222.50 404.90 L 223.97 407.69 L 225.44 406.22 L 226.92 411.61 L 228.39 410.41 L 229.86 410.51 L 231.33 412.58 L 232.81 409.54 L 234.28 414.58 L 235.75 416.21 L 237.22 410.69 L 238.69 411.10 L 240.17 413.93 L 241.64 410.26 L 243.11 410.88 L 244.58 409.33 L 246.06 401.75 L 247.53 410.78 L 249.00 404.99 L 250.47 417.42 L 251.94 413.02 L 253.42 415.31 L 254.89 408.30 L 256.36 412.21 L 257.83 410.27 L 259.31 414.96 L 260.78 407.80 L 262.25 423.88 L 263.72 417.38 L 265.19 428.11 L 266.67 431.18 L 268.14 429.06 L 269.61 431.27 L 271.08 443.01 L 272.56 417.75 L 274.03 416.43 L 275.50 406.74 L 276.97 415.83 L 278.44 410.06 L 279.92 402.70 L 281.39 408.25 L 282.86 408.04 L 284.33 408.47 L 285.81 405.91 L 287.28 413.87 L 288.75 411.02 L 290.22 408.51 L 291.69 412.25 L 293.17 403.43 L 294.64 412.01 L 296.11 415.56 L 297.58 414.34 L 299.06 412.06 L 300.53 406.41 L 302.00 400.51 L 303.47 393.20 L 304.94 396.51 L 306.42 393.96 L 307.89 396.81 L 309.36 396.62 L 310.83 394.39 L 312.31 400.61 L 313.78 415.40 L 315.25 423.98 L 316.72 426.41 L 318.19 415.88 L 319.67 417.85 L 321.14 412.31 L 322.61 415.38 L 324.08 418.09 L 325.56 418.83 L 327.03 419.18 L 328.50 412.02 L 329.97 410.98 L 331.44 403.49 L 332.92 396.19 L 334.39 394.19 L 335.86 404.26 L 337.33 406.10 L 338.81 401.33 L 340.28 405.06 L 341.75 402.83 L 343.22 401.42 L 344.69 400.92 L 346.17 406.19 L 347.64 406.87 L 349.11 410.71 L 350.58 411.12 L 352.06 404.50 L 353.53 410.68 L 355.00 409.18 L 356.47 408.80 L 357.94 416.66 L 359.42 410.99 L 360.89 408.62 L 362.36 415.72 L 363.83 412.53 L 365.31 412.42 L 366.78 412.59 L 368.25 415.59 L 369.72 415.61 L 371.19 416.26 L 372.67 416.00 L 374.14 416.45 L 375.61 416.47 L 377.08 416.38 L 378.56 416.76 L 380.03 416.57 L 381.50 416.54 L 382.97 416.55 L 384.44 416.60 L 385.92 416.56 L 387.39 416.71 L 388.86 416.47 L 390.33 416.84 L 391.81 416.91 L 393.28 416.62 L 394.75 416.63 L 396.22 416.66 L 397.69 417.44 L 399.17 416.94 L 400.64 416.65 L 402.11 417.00 L 403.58 416.49 L 405.06 417.16 L 406.53 416.77 L 408.00 416.92 L 409.47 416.61 L 410.94 416.92 L 412.42 416.41 L 413.89 417.03 L 415.36 416.82 L 416.83 417.37 L 418.31 416.21 L 419.78 416.90 L 421.25 417.09 L 422.72 417.17 L 424.19 417.11 L 425.67 416.77 L 427.14 417.54 L 428.61 417.65 L 430.08 413.68 L 431.56 419.20 L 433.03 425.70 L 434.50 410.86 L 435.97 411.01 L 437.44 427.36 L 438.92 417.56 L 440.39 421.59 L 441.86 419.94 L 443.33 418.79 L 444.81 421.27 L 446.28 418.54 L 447.75 418.30 L 449.22 419.70 L 450.69 418.41 L 452.17 419.13 L 453.64 418.79 L 455.11 419.60 L 456.58 419.02 L 458.06 414.95 L 459.53 421.01 L 461.00 411.50 L 462.47 420.08 L 463.94 412.55 L 465.42 409.38 L 466.89 408.66 L 468.36 416.78 L 469.83 419.81 L 471.31 422.64 L 472.78 427.94 L 474.25 422.47 L 475.72 427.09 L 477.19 431.73 L 478.67 427.21 L 480.14 450.49 L 481.61 440.75 L 483.08 443.59 L 484.56 426.85 L 486.03 437.83 L 487.50 418.75 L 488.97 426.19 L 490.44 395.60 L 491.92 387.81 L 493.39 364.78 L 494.86 381.36 L 496.33 385.31 L 497.81 385.31 L 499.28 399.56 L 500.75 410.12 L 502.22 404.71 L 503.69 413.33 L 505.17 412.50 L 506.64 409.28 L 508.11 393.91 L 509.58 418.08 L 511.06 396.16 L 512.53 402.98 L 514.00 398.71 L 515.47 400.93 L 516.94 401.25 L 518.42 395.18 L 519.89 399.39 L 521.36 406.05 L 522.83 397.01 L 524.31 420.37 L 525.78 393.00 L 527.25 404.73 L 528.72 400.66 L 530.19 395.88 L 531.67 408.36 L 533.14 411.24 L 534.61 407.36 L 536.08 411.35 L 537.56 404.65 L 539.03 404.19 L 540.50 409.25 L 541.97 416.12 L 543.44 418.23 L 544.92 421.41 L 546.39 412.11 L 547.86 416.27 L 549.33 411.26 L 550.81 405.84 L 552.28 407.57 L 553.75 408.15 L 555.22 413.80 L 556.69 412.64 L 558.17 413.31 L 559.64 415.91 L 561.11 416.24 L 562.58 432.34 L 564.06 421.78 L 565.53 410.33 L 567.00 417.00 L 568.47 409.89 L 569.94 405.45 L 571.42 412.66 L 572.89 404.88 L 574.36 407.62 L 575.83 406.02 L 577.31 405.94 L 578.78 412.98 L 580.25 417.01 L 581.72 424.60 L 583.19 421.71 L 584.67 414.52 L 586.14 417.60 L 587.61 415.87 L 589.08 404.43 L 590.56 408.71 L 592.03 417.95 L 593.50 416.60 L 594.97 405.47 L 596.44 404.90 L 597.92 403.73 L 599.39 405.45 L 600.86 409.39 L 602.33 408.76 L 603.81 409.65 L 605.28 407.39 L 606.75 406.83 L 608.22 406.21 L 609.69 403.14 L 611.17 407.42 L 612.64 404.16 L 614.11 408.11 L 615.58 405.44 L 617.06 413.97 L 618.53 417.72 L 620.00 420.35 L 621.47 421.49 L 622.94 429.27 L 624.42 431.22 L 625.89 446.11 L 627.36 468.29 L 628.83 442.74 L 630.31 462.67 L 631.78 458.80 L 633.25 423.14 L 634.72 396.88 L 636.19 384.32 L 637.67 384.50 L 639.14 383.27 L 640.61 399.34 L 642.08 392.24 L 643.56 390.81 L 645.03 396.24 L 646.50 384.29 L 647.97 421.64 L 649.44 416.02 L 650.92 434.68 L 652.39 445.51 L 653.86 434.76 L 655.33 427.14 L 656.81 423.81 L 658.28 413.15 L 659.75 407.10 L 661.22 407.42 L 662.69 402.17 L 664.17 401.81 L 665.64 406.51 L 667.11 401.07 L 668.58 402.69 L 670.06 402.76 L 671.53 398.09 L 673.00 394.39 L 674.47 400.90 L 675.94 400.38 L 677.42 397.16 L 678.89 406.97 L 680.36 403.19 L 681.83 403.58 L 683.31 405.61 L 684.78 407.55 L 686.25 404.93 L 687.72 405.19 L 689.19 413.75 L 690.67 408.52 L 692.14 405.29 L 693.61 402.83 L 695.08 403.73 L 696.56 403.19 L 698.03 407.64 L 699.50 402.58 L 700.97 403.61 L 702.44 403.26 L 703.92 400.61 L 705.39 397.87 L 706.86 394.58 L 708.33 390.24 L 709.81 389.54 L 711.28 391.23 L 712.75 393.39 L 714.22 385.53 L 715.69 390.68 L 717.17 391.54 L 718.64 398.88 L 720.11 398.51 L 721.58 396.42 L 723.06 389.60 L 724.53 380.87 L 726.00 391.72" stroke="#6A1B9A" />
<line x1="900.00" y1="307.75" x2="918.00" y2="307.75" stroke="#2E7D32" stroke-width="3" />
<text class="small" x="924.00" y="311.75">pitch</text>
<line x1="900.00" y1="323.75" x2="918.00" y2="323.75" stroke="#6A1B9A" stroke-width="3" />
<text class="small" x="924.00" y="327.75">roll</text>
<text x="90" y="500.50" font-size="14" font-weight="700">Aceleração (magnitude) (u.a.)</text>
<rect class="event" x="443.33" y="506.50" width="17.67" height="192.75" />
<line class="eventline" x1="443.33" y1="506.50" x2="443.33" y2="699.25" />
<line class="eventline" x1="461.00" y1="506.50" x2="461.00" y2="699.25" />
<line class="grid" x1="90" y1="699.25" x2="1150" y2="699.25" />
<text class="small" x="80" y="703.25" text-anchor="end">0.00</text>
<line class="grid" x1="90" y1="660.70" x2="1150" y2="660.70" />
<text class="small" x="80" y="664.70" text-anchor="end">0.50</text>
<line class="grid" x1="90" y1="622.15" x2="1150" y2="622.15" />
<text class="small" x="80" y="626.15" text-anchor="end">1.00</text>
<line class="grid" x1="90" y1="583.60" x2="1150" y2="583.60" />
<text class="small" x="80" y="587.60" text-anchor="end">1.50</text>
<line class="grid" x1="90" y1="545.05" x2="1150" y2="545.05" />
<text class="small" x="80" y="549.05" text-anchor="end">2.00</text>
<line class="grid" x1="90" y1="506.50" x2="1150" y2="506.50" />
<text class="small" x="80" y="510.50" text-anchor="end">2.50</text>
<line class="grid" x1="90.00" y1="506.50" x2="90.00" y2="699.25" />
<line class="grid" x1="266.67" y1="506.50" x2="266.67" y2="699.25" />
<line class="grid" x1="443.33" y1="506.50" x2="443.33" y2="699.25" />
<line class="grid" x1="620.00" y1="506.50" x2="620.00" y2="699.25" />
<line class="grid" x1="796.67" y1="506.50" x2="796.67" y2="699.25" />
<line class="grid" x1="973.33" y1="506.50" x2="973.33" y2="699.25" />
<line class="grid" x1="1150.00" y1="506.50" x2="1150.00" y2="699.25" />
<line class="axis" x1="90" y1="506.50" x2="90" y2="699.25" />
<line class="axis" x1="90" y1="699.25" x2="1150" y2="699.25" />
<path class="series" d="M 178.33 695.05 L 179.81 687.36 L 181.28 694.62 L 182.75 696.21 L 184.22 688.71 L 185.69 694.42 L 187.17 694.96 L 188.64 688.34 L 190.11 679.05 L 191.58 687.78 L 193.06 693.77 L 194.53 688.49 L 196.00 693.52 L 197.47 693.62 L 198.94 695.58 L 200.42 692.53 L 201.89 693.27 L 203.36 690.70 L 204.83 692.85 L 206.31 695.08 L 207.78 694.43 L 209.25 690.81 L 210.72 694.21 L 212.19 694.32 L 213.67 695.88 L 215.14 693.85 L 216.61 696.16 L 218.08 693.82 L 219.56 692.72 L 221.03 692.62 L 222.50 694.04 L 223.97 687.95 L 225.44 692.08 L 226.92 697.49 L 228.39 691.02 L 229.86 682.92 L 231.33 692.84 L 232.81 681.04 L 234.28 677.64 L 235.75 679.30 L 237.22 692.41 L 238.69 685.65 L 240.17 691.28 L 241.64 681.22 L 243.11 647.77 L 244.58 664.52 L 246.06 654.24 L 247.53 678.72 L 249.00 677.24 L 250.47 674.56 L 251.94 656.69 L 253.42 666.30 L 254.89 666.82 L 256.36 672.83 L 257.83 664.41 L 259.31 659.68 L 260.78 672.99 L 262.25 665.89 L 263.72 663.34 L 265.19 663.15 L 266.67 664.75 L 268.14 678.45 L 269.61 659.82 L 271.08 645.40 L 272.56 657.62 L 274.03 678.70 L 275.50 666.79 L 276.97 653.87 L 278.44 676.51 L 279.92 665.32 L 281.39 669.27 L 282.86 675.59 L 284.33 686.29 L 285.81 680.74 L 287.28 682.29 L 288.75 680.52 L 290.22 684.47 L 291.69 689.42 L 293.17 683.65 L 294.64 664.15 L 296.11 685.90 L 297.58 664.12 L 299.06 670.71 L 300.53 676.48 L 302.00 687.72 L 303.47 683.52 L 304.94 668.81 L 306.42 664.49 L 307.89 683.54 L 309.36 687.83 L 310.83 686.40 L 312.31 673.89 L 313.78 666.00 L 315.25 656.62 L 316.72 661.91 L 318.19 659.05 L 319.67 668.34 L 321.14 673.54 L 322.61 660.40 L 324.08 649.81 L 325.56 649.81 L 327.03 634.31 L 328.50 641.74 L 329.97 647.14 L 331.44 640.20 L 332.92 621.28 L 334.39 642.36 L 335.86 668.03 L 337.33 675.12 L 338.81 678.80 L 340.28 680.06 L 341.75 687.61 L 343.22 669.28 L 344.69 688.02 L 346.17 684.80 L 347.64 681.45 L 349.11 667.53 L 350.58 689.72 L 352.06 673.99 L 353.53 687.91 L 355.00 680.43 L 356.47 696.14 L 357.94 693.25 L 359.42 688.27 L 360.89 689.90 L 362.36 689.91 L 363.83 683.75 L 365.31 683.26 L 366.78 697.04 L 368.25 695.09 L 369.72 692.77 L 371.19 698.11 L 372.67 697.52 L 374.14 696.77 L 375.61 696.80 L 377.08 698.36 L 378.56 698.72 L 380.03 698.58 L 381.50 699.09 L 382.97 699.00 L 384.44 697.95 L 385.92 698.94 L 387.39 699.02 L 388.86 699.03 L 390.33 698.38 L 391.81 697.85 L 393.28 697.80 L 394.75 698.57 L 396.22 695.81 L 397.69 698.01 L 399.17 698.07 L 400.64 697.96 L 402.11 697.86 L 403.58 697.04 L 405.06 698.40 L 406.53 698.63 L 408.00 698.86 L 409.47 698.84 L 410.94 692.69 L 412.42 691.37 L 413.89 697.99 L 415.36 698.89 L 416.83 698.20 L 418.31 698.66 L 419.78 696.80 L 421.25 698.16 L 422.72 683.96 L 424.19 688.24 L 425.67 698.23 L 427.14 694.10 L 428.61 693.61 L 430.08 669.09 L 431.56 662.97 L 433.03 660.76 L 434.50 649.88 L 435.97 682.91 L 437.44 644.60 L 438.92 689.66 L 440.39 678.55 L 441.86 629.81 L 443.33 676.88 L 444.81 692.72 L 446.28 695.67 L 447.75 698.22 L 449.22 692.39 L 450.69 694.79 L 452.17 696.69 L 453.64 697.47 L 455.11 692.18 L 456.58 698.52 L 458.06 684.09 L 459.53 676.77 L 461.00 689.49 L 462.47 668.07 L 463.94 686.38 L 465.42 690.39 L 466.89 686.54 L 468.36 671.75 L 469.83 664.34 L 471.31 672.10 L 472.78 659.65 L 474.25 666.99 L 475.72 667.22 L 477.19 668.19 L 478.67 656.60 L 480.14 620.42 L 481.61 653.80 L 483.08 631.67 L 484.56 643.60 L 486.03 625.52 L 487.50 684.18 L 488.97 686.83 L 490.44 599.27 L 491.92 609.81 L 493.39 560.83 L 494.86 560.83 L 496.33 626.44 L 497.81 623.96 L 499.28 662.79 L 500.75 654.42 L 502.22 661.18 L 503.69 669.17 L 505.17 661.15 L 506.64 672.82 L 508.11 637.91 L 509.58 616.25 L 511.06 658.09 L 512.53 656.56 L 514.00 668.38 L 515.47 662.51 L 516.94 673.86 L 518.42 679.10 L 519.89 666.77 L 521.36 651.99 L 522.83 636.24 L 524.31 646.46 L 525.78 655.33 L 527.25 669.85 L 528.72 675.34 L 530.19 683.27 L 531.67 683.31 L 533.14 665.99 L 534.61 672.61 L 536.08 693.83 L 537.56 669.25 L 539.03 676.13 L 540.50 655.54 L 541.97 663.26 L 543.44 656.20 L 544.92 676.89 L 546.39 671.01 L 547.86 657.28 L 549.33 684.42 L 550.81 668.00 L 552.28 676.06 L 553.75 683.94 L 555.22 675.62 L 556.69 675.46 L 558.17 678.84 L 559.64 693.63 L 561.11 631.77 L 562.58 642.10 L 564.06 685.55 L 565.53 671.85 L 567.00 678.92 L 568.47 669.26 L 569.94 678.02 L 571.42 688.76 L 572.89 678.20 L 574.36 691.49 L 575.83 693.25 L 577.31 686.04 L 578.78 674.17 L 580.25 665.64 L 581.72 678.64 L 583.19 665.87 L 584.67 683.51 L 586.14 686.05 L 587.61 683.85 L 589.08 687.66 L 590.56 679.19 L 592.03 669.41 L 593.50 678.94 L 594.97 647.99 L 596.44 670.07 L 597.92 672.06 L 599.39 691.64 L 600.86 694.36 L 602.33 687.88 L 603.81 688.61 L 605.28 685.30 L 606.75 690.96 L 608.22 686.42 L 609.69 692.62 L 611.17 687.31 L 612.64 695.05 L 614.11 693.85 L 615.58 689.65 L 617.06 656.21 L 618.53 665.87 L 620.00 664.16 L 621.47 662.14 L 622.94 654.09 L 624.42 634.67 L 625.89 563.25 L 627.36 585.85 L 628.83 586.07 L 630.31 595.47 L 631.78 608.19 L 633.25 569.36 L 634.72 521.69 L 636.19 578.80 L 637.67 597.65 L 639.14 652.35 L 640.61 638.82 L 642.08 649.91 L 643.56 657.66 L 645.03 658.20 L 646.50 658.97 L 647.97 628.73 L 649.44 606.10 L 650.92 610.60 L 652.39 609.54 L 653.86 609.54 L 655.33 677.39 L 656.81 673.69 L 658.28 683.61 L 659.75 638.55 L 661.22 670.10 L 662.69 672.44 L 664.17 668.26 L 665.64 687.70 L 667.11 680.08 L 668.58 677.77 L 670.06 688.66 L 671.53 679.03 L 673.00 680.20 L 674.47 654.98 L 675.94 681.89 L 677.42 678.35 L 678.89 677.51 L 680.36 696.23 L 681.83 682.14 L 683.31 685.09 L 684.78 685.92 L 686.25 665.26 L 687.72 679.34 L 689.19 684.98 L 690.67 690.43 L 692.14 697.20 L 693.61 686.97 L 695.08 681.29 L 696.56 688.65 L 698.03 680.38 L 699.50 679.95 L 700.97 682.42 L 702.44 681.94 L 703.92 680.40 L 705.39 677.48 L 706.86 687.15 L 708.33 657.56 L 709.81 675.80 L 711.28 663.51 L 712.75 688.24 L 714.22 664.91 L 715.69 677.39 L 717.17 686.07 L 718.64 689.75 L 720.11 682.04 L 721.58 656.91 L 723.06 676.78 L 724.53 690.47 L 726.00 676.80" stroke="#FB8C00" />
<text x="90" y="711.25" font-size="14" font-weight="700">Giroscópio (magnitude) (u.a.)</text>
<rect class="event" x="443.33" y="717.25" width="17.67" height="192.75" />
<line class="eventline" x1="443.33" y1="717.25" x2="443.33" y2="910.00" />
<line class="eventline" x1="461.00" y1="717.25" x2="461.00" y2="910.00" />
<line class="grid" x1="90" y1="910.00" x2="1150" y2="910.00" />
<text class="small" x="80" y="914.00" text-anchor="end">0.00</text>
<line class="grid" x1="90" y1="871.45" x2="1150" y2="871.45" />
<text class="small" x="80" y="875.45" text-anchor="end">0.10</text>
<line class="grid" x1="90" y1="832.90" x2="1150" y2="832.90" />
<text class="small" x="80" y="836.90" text-anchor="end">0.20</text>
<line class="grid" x1="90" y1="794.35" x2="1150" y2="794.35" />
<text class="small" x="80" y="798.35" text-anchor="end">0.30</text>
<line class="grid" x1="90" y1="755.80" x2="1150" y2="755.80" />
<text class="small" x="80" y="759.80" text-anchor="end">0.40</text>
<line class="grid" x1="90" y1="717.25" x2="1150" y2="717.25" />
<text class="small" x="80" y="721.25" text-anchor="end">0.50</text>
<line class="grid" x1="90.00" y1="717.25" x2="90.00" y2="910.00" />
<line class="grid" x1="266.67" y1="717.25" x2="266.67" y2="910.00" />
<line class="grid" x1="443.33" y1="717.25" x2="443.33" y2="910.00" />
<line class="grid" x1="620.00" y1="717.25" x2="620.00" y2="910.00" />
<line class="grid" x1="796.67" y1="717.25" x2="796.67" y2="910.00" />
<line class="grid" x1="973.33" y1="717.25" x2="973.33" y2="910.00" />
<line class="grid" x1="1150.00" y1="717.25" x2="1150.00" y2="910.00" />
<line class="axis" x1="90" y1="717.25" x2="90" y2="910.00" />
<line class="axis" x1="90" y1="910.00" x2="1150" y2="910.00" />
<path class="series" d="M 178.33 907.36 L 179.81 906.20 L 181.28 906.97 L 182.75 906.61 L 184.22 904.13 L 185.69 907.39 L 187.17 904.47 L 188.64 908.43 L 190.11 905.09 L 191.58 906.72 L 193.06 907.79 L 194.53 906.19 L 196.00 906.42 L 197.47 907.23 L 198.94 903.71 L 200.42 905.41 L 201.89 907.29 L 203.36 905.61 L 204.83 904.26 L 206.31 908.57 L 207.78 904.35 L 209.25 905.48 L 210.72 905.46 L 212.19 907.03 L 213.67 904.41 L 215.14 903.92 L 216.61 902.75 L 218.08 903.51 L 219.56 903.55 L 221.03 903.86 L 222.50 904.10 L 223.97 901.54 L 225.44 900.69 L 226.92 900.38 L 228.39 900.78 L 229.86 907.05 L 231.33 902.20 L 232.81 898.44 L 234.28 900.94 L 235.75 898.24 L 237.22 902.35 L 238.69 897.59 L 240.17 901.44 L 241.64 901.69 L 243.11 903.29 L 244.58 893.69 L 246.06 898.68 L 247.53 900.62 L 249.00 893.64 L 250.47 896.29 L 251.94 890.29 L 253.42 896.00 L 254.89 899.56 L 256.36 902.25 L 257.83 895.82 L 259.31 900.58 L 260.78 894.66 L 262.25 883.77 L 263.72 885.49 L 265.19 866.79 L 266.67 859.24 L 268.14 868.26 L 269.61 850.49 L 271.08 869.65 L 272.56 883.47 L 274.03 886.22 L 275.50 882.96 L 276.97 893.03 L 278.44 901.04 L 279.92 897.57 L 281.39 898.85 L 282.86 903.19 L 284.33 902.74 L 285.81 901.92 L 287.28 904.02 L 288.75 905.37 L 290.22 903.62 L 291.69 892.83 L 293.17 903.15 L 294.64 900.69 L 296.11 897.12 L 297.58 891.99 L 299.06 885.67 L 300.53 895.20 L 302.00 897.64 L 303.47 898.77 L 304.94 904.44 L 306.42 904.33 L 307.89 903.90 L 309.36 901.59 L 310.83 898.97 L 312.31 895.00 L 313.78 880.05 L 315.25 865.40 L 316.72 846.53 L 318.19 842.29 L 319.67 830.45 L 321.14 835.41 L 322.61 829.21 L 324.08 824.68 L 325.56 824.68 L 327.03 812.79 L 328.50 815.48 L 329.97 817.04 L 331.44 832.71 L 332.92 861.60 L 334.39 889.50 L 335.86 902.36 L 337.33 906.85 L 338.81 907.85 L 340.28 909.53 L 341.75 901.26 L 343.22 904.91 L 344.69 907.22 L 346.17 904.34 L 347.64 905.67 L 349.11 899.06 L 350.58 884.08 L 352.06 877.61 L 353.53 870.76 L 355.00 873.83 L 356.47 873.19 L 357.94 873.34 L 359.42 872.63 L 360.89 873.13 L 362.36 879.65 L 363.83 882.34 L 365.31 895.15 L 366.78 903.07 L 368.25 908.79 L 369.72 909.66 L 371.19 909.83 L 372.67 909.65 L 374.14 908.24 L 375.61 909.92 L 377.08 909.63 L 378.56 909.76 L 380.03 909.74 L 381.50 909.70 L 382.97 909.74 L 384.44 909.75 L 385.92 909.67 L 387.39 909.70 L 388.86 909.66 L 390.33 909.68 L 391.81 909.57 L 393.28 909.75 L 394.75 909.82 L 396.22 909.61 L 397.69 909.79 L 399.17 909.75 L 400.64 909.70 L 402.11 909.69 L 403.58 909.67 L 405.06 909.87 L 406.53 909.81 L 408.00 909.85 L 409.47 909.88 L 410.94 909.92 L 412.42 909.45 L 413.89 909.77 L 415.36 909.59 L 416.83 909.64 L 418.31 909.30 L 419.78 909.54 L 421.25 909.68 L 422.72 909.60 L 424.19 908.92 L 425.67 909.34 L 427.14 908.70 L 428.61 908.61 L 430.08 905.07 L 431.56 905.88 L 433.03 902.49 L 434.50 905.67 L 435.97 892.15 L 437.44 895.60 L 438.92 903.63 L 440.39 902.17 L 441.86 903.74 L 443.33 904.17 L 444.81 909.43 L 446.28 909.17 L 447.75 909.34 L 449.22 909.41 L 450.69 909.03 L 452.17 909.83 L 453.64 909.45 L 455.11 909.86 L 456.58 908.39 L 458.06 907.72 L 459.53 902.71 L 461.00 896.55 L 462.47 885.02 L 463.94 892.09 L 465.42 877.45 L 466.89 861.79 L 468.36 862.57 L 469.83 885.85 L 471.31 903.38 L 472.78 890.97 L 474.25 881.18 L 475.72 876.69 L 477.19 871.28 L 478.67 878.34 L 480.14 888.63 L 481.61 873.10 L 483.08 865.02 L 484.56 860.33 L 486.03 842.34 L 487.50 855.94 L 488.97 851.98 L 490.44 893.01 L 491.92 865.88 L 493.39 815.60 L 494.86 815.60 L 496.33 791.58 L 497.81 818.62 L 499.28 833.76 L 500.75 884.50 L 502.22 897.75 L 503.69 898.14 L 505.17 899.49 L 506.64 899.25 L 508.11 889.09 L 509.58 877.32 L 511.06 884.73 L 512.53 884.79 L 514.00 883.15 L 515.47 878.63 L 516.94 876.41 L 518.42 877.18 L 519.89 877.94 L 521.36 874.52 L 522.83 879.70 L 524.31 890.10 L 525.78 883.61 L 527.25 892.37 L 528.72 895.14 L 530.19 894.36 L 531.67 890.37 L 533.14 902.83 L 534.61 902.31 L 536.08 901.57 L 537.56 896.22 L 539.03 892.96 L 540.50 904.24 L 541.97 902.24 L 543.44 892.87 L 544.92 893.65 L 546.39 899.09 L 547.86 901.56 L 549.33 896.17 L 550.81 894.16 L 552.28 894.74 L 553.75 904.57 L 555.22 904.29 L 556.69 903.34 L 558.17 904.75 L 559.64 901.92 L 561.11 900.80 L 562.58 889.37 L 564.06 892.86 L 565.53 904.02 L 567.00 905.46 L 568.47 895.73 L 569.94 901.17 L 571.42 905.47 L 572.89 901.47 L 574.36 904.56 L 575.83 903.44 L 577.31 902.87 L 578.78 900.26 L 580.25 895.81 L 581.72 902.64 L 583.19 902.03 L 584.67 902.30 L 586.14 907.49 L 587.61 897.09 L 589.08 900.12 L 590.56 904.28 L 592.03 890.22 L 593.50 886.39 L 594.97 905.25 L 596.44 891.53 L 597.92 888.95 L 599.39 896.40 L 600.86 902.70 L 602.33 903.15 L 603.81 903.60 L 605.28 903.31 L 606.75 902.82 L 608.22 902.30 L 609.69 904.93 L 611.17 906.83 L 612.64 907.83 L 614.11 902.36 L 615.58 907.17 L 617.06 898.04 L 618.53 896.73 L 620.00 891.55 L 621.47 886.00 L 622.94 876.96 L 624.42 869.80 L 625.89 838.77 L 627.36 832.69 L 628.83 827.15 L 630.31 806.38 L 631.78 814.23 L 633.25 865.71 L 634.72 907.33 L 636.19 870.33 L 637.67 850.33 L 639.14 829.40 L 640.61 837.93 L 642.08 838.72 L 643.56 841.19 L 645.03 859.68 L 646.50 867.72 L 647.97 894.94 L 649.44 866.49 L 650.92 846.76 L 652.39 841.80 L 653.86 841.80 L 655.33 866.87 L 656.81 884.09 L 658.28 883.62 L 659.75 901.16 L 661.22 907.54 L 662.69 900.90 L 664.17 906.14 L 665.64 905.82 L 667.11 902.79 L 668.58 906.36 L 670.06 903.87 L 671.53 901.40 L 673.00 906.41 L 674.47 898.31 L 675.94 903.47 L 677.42 902.90 L 678.89 902.14 L 680.36 905.91 L 681.83 906.77 L 683.31 905.46 L 684.78 905.29 L 686.25 902.81 L 687.72 904.45 L 689.19 903.74 L 690.67 904.08 L 692.14 904.21 L 693.61 904.48 L 695.08 900.11 L 696.56 905.72 L 698.03 903.27 L 699.50 905.64 L 700.97 905.25 L 702.44 904.19 L 703.92 903.42 L 705.39 898.35 L 706.86 899.58 L 708.33 890.81 L 709.81 886.63 L 711.28 881.39 L 712.75 885.92 L 714.22 874.32 L 715.69 876.10 L 717.17 877.35 L 718.64 881.28 L 720.11 891.23 L 721.58 897.77 L 723.06 894.11 L 724.53 888.40 L 726.00 891.80" stroke="#E53935" />
<text x="620.00" y="952" font-size="15" text-anchor="middle">minutos (relativo ao início do evento)</text>
<text class="small" x="90.00" y="936" text-anchor="middle">-4.00</text>
<text class="small" x="266.67" y="936" text-anchor="middle">-2.00</text>
<text class="small" x="443.33" y="936" text-anchor="middle">0.00</text>
<text class="small" x="620.00" y="936" text-anchor="middle">2.00</text>
<text class="small" x="796.67" y="936" text-anchor="middle">4.00</text>
<text class="small" x="973.33" y="936" text-anchor="middle">6.00</text>
<text class="small" x="1150.00" y="936" text-anchor="middle">8.00</text>
</svg>