<?xml version="1.0" encoding="UTF-8"?>
<svg xmlns="http://www.w3.org/2000/svg" width="1180" height="980" viewBox="0 0 1180 980">
<style>
text { font-family: -apple-system, BlinkMacSystemFont, 'Segoe UI', Roboto, Helvetica, Arial, sans-serif; fill: #111; }
.small { font-size: 12px; fill: #222; }
.title { font-size: 18px; font-weight: 700; }
.axis { stroke: #111; stroke-width: 1.4; }
.grid { stroke: #E6E6E6; stroke-width: 1; }
.event { fill: #FFEB3B; fill-opacity: 0.18; }
.eventline { stroke: #F9A825; stroke-width: 1.2; stroke-dasharray: 4 3; }
.series { fill: none; stroke-width: 1.8; }
</style>
<text class="title" x="90" y="34">ciclo 22 — espera_carregamento — 2025-12-13T07:24:55-03:00 → 2025-12-13T07:27:06-03:00 (span 131s, dur 132s)</text>
<text class="small" x="90" y="54">GPS: -11.698886,-47.157097  hotspot: -11.699,-47.157</text>
<text class="small" x="90" y="70">Janela: -3.00 → 5.18 min (relativo ao início do evento)</text>
<text x="90" y="79.00" font-size="14" font-weight="700">Velocidade (km/h)</text>
<rect class="event" x="443.33" y="85.00" width="192.86" height="192.75" />
<line class="eventline" x1="443.33" y1="85.00" x2="443.33" y2="277.75" />
<line class="eventline" x1="636.19" y1="85.00" x2="636.19" y2="277.75" />
<line class="grid" x1="90" y1="277.75" x2="1150" y2="277.75" />
<text class="small" x="80" y="281.75" text-anchor="end">0.00</text>
<line class="grid" x1="90" y1="239.20" x2="1150" y2="239.20" />
<text class="small" x="80" y="243.20" text-anchor="end">10.0</text>
<line class="grid" x1="90" y1="200.65" x2="1150" y2="200.65" />
<text class="small" x="80" y="204.65" text-anchor="end">20.0</text>
<line class="grid" x1="90" y1="162.10" x2="1150" y2="162.10" />
<text class="small" x="80" y="166.10" text-anchor="end">30.0</text>
<line class="grid" x1="90" y1="123.55" x2="1150" y2="123.55" />
<text class="small" x="80" y="127.55" text-anchor="end">40.0</text>
<line class="grid" x1="90" y1="85.00" x2="1150" y2="85.00" />
<text class="small" x="80" y="89.00" text-anchor="end">50.0</text>
<line class="grid" x1="90.00" y1="85.00" x2="90.00" y2="277.75" />
<line class="grid" x1="266.67" y1="85.00" x2="266.67" y2="277.75" />
<line class="grid" x1="443.33" y1="85.00" x2="443.33" y2="277.75" />
<line class="grid" x1="620.00" y1="85.00" x2="620.00" y2="277.75" />
<line class="grid" x1="796.67" y1="85.00" x2="796.67" y2="277.75" />
<line class="grid" x1="973.33" y1="85.00" x2="973.33" y2="277.75" />
<line class="grid" x1="1150.00" y1="85.00" x2="1150.00" y2="277.75" />
<line class="axis" x1="90" y1="85.00" x2="90" y2="277.75" />
<line class="axis" x1="90" y1="277.75" x2="1150" y2="277.75" />
<path class="series" d="M 178.33 172.83 L 179.81 174.36 L 181.28 176.44 L 182.75 173.66 L 184.22 173.11 L 185.69 176.30 L 187.17 180.33 L 188.64 185.60 L 190.11 187.13 L 191.58 193.51 L 193.06 196.29 L 194.53 195.45 L 196.00 192.12 L 197.47 194.62 L 198.94 197.81 L 200.42 199.06 L 201.89 199.34 L 203.36 203.50 L 204.83 204.20 L 206.31 205.31 L 207.78 205.17 L 209.25 206.00 L 210.72 203.36 L 212.19 201.84 L 213.67 205.03 L 215.14 206.56 L 216.61 205.31 L 218.08 204.20 L 219.56 193.09 L 221.03 182.41 L 222.50 181.44 L 223.97 183.10 L 225.44 177.00 L 226.92 181.71 L 228.39 184.49 L 229.86 182.82 L 231.33 180.33 L 232.81 178.80 L 234.28 180.74 L 235.75 181.30 L 237.22 183.10 L 238.69 183.66 L 240.17 186.71 L 241.64 185.74 L 243.11 182.41 L 244.58 182.82 L 246.06 180.33 L 247.53 184.21 L 249.00 183.93 L 250.47 184.91 L 251.94 189.21 L 253.42 201.98 L 254.89 205.86 L 256.36 196.29 L 257.83 193.09 L 259.31 184.21 L 260.78 168.53 L 262.25 166.17 L 263.72 170.75 L 265.19 175.47 L 266.67 175.47 L 268.14 173.39 L 269.61 171.31 L 271.08 169.36 L 272.56 167.84 L 274.03 169.50 L 275.50 172.28 L 276.97 175.05 L 278.44 175.05 L 279.92 177.00 L 281.39 174.36 L 282.86 173.80 L 284.33 171.72 L 285.81 171.31 L 287.28 166.03 L 288.75 169.78 L 290.22 172.97 L 291.69 170.47 L 293.17 169.09 L 294.64 173.66 L 296.11 165.89 L 297.58 173.11 L 299.06 171.86 L 300.53 174.36 L 302.00 172.00 L 303.47 169.50 L 304.94 173.53 L 306.42 179.08 L 307.89 184.91 L 309.36 189.62 L 310.83 190.04 L 312.31 201.28 L 313.78 211.41 L 315.25 220.43 L 316.72 224.87 L 318.19 228.62 L 319.67 234.03 L 321.14 230.70 L 322.61 215.30 L 324.08 219.46 L 325.56 221.68 L 327.03 222.79 L 328.50 225.99 L 329.97 224.74 L 331.44 223.07 L 332.92 225.57 L 334.39 235.84 L 335.86 242.08 L 337.33 240.28 L 338.81 244.17 L 340.28 253.74 L 341.75 271.37 L 343.22 267.06 L 344.69 258.32 L 346.17 254.57 L 347.64 255.41 L 349.11 258.60 L 350.58 260.54 L 352.06 261.37 L 353.53 259.01 L 355.00 255.96 L 356.47 238.75 L 357.94 238.89 L 359.42 239.31 L 360.89 241.39 L 362.36 246.39 L 363.83 249.44 L 365.31 248.74 L 366.78 248.88 L 368.25 247.91 L 369.72 248.05 L 371.19 250.13 L 372.67 257.49 L 374.14 258.46 L 375.61 271.64 L 377.08 277.75 L 378.56 277.75 L 380.03 277.75 L 381.50 270.67 L 382.97 264.57 L 384.44 260.82 L 385.92 257.07 L 387.39 255.68 L 388.86 255.41 L 390.33 256.52 L 391.81 257.63 L 393.28 258.04 L 394.75 257.63 L 396.22 257.35 L 397.69 257.35 L 399.17 256.66 L 400.64 261.37 L 402.11 259.29 L 403.58 258.60 L 405.06 260.82 L 406.53 260.26 L 408.00 259.15 L 409.47 258.60 L 410.94 259.29 L 412.42 261.10 L 413.89 263.87 L 415.36 267.62 L 416.83 264.98 L 418.31 266.65 L 419.78 262.48 L 421.25 269.84 L 422.72 269.15 L 424.19 267.76 L 425.67 269.42 L 427.14 271.64 L 428.61 266.23 L 430.08 267.34 L 431.56 271.23 L 433.03 271.78 L 434.50 272.06 L 435.97 269.70 L 437.44 271.50 L 438.92 269.01 L 440.39 271.92 L 441.86 272.89 L 443.33 277.75 L 444.81 277.75 L 446.28 277.75 L 447.75 277.75 L 449.22 277.75 L 450.69 277.75 L 452.17 277.75 L 453.64 277.75 L 455.11 277.75 L 456.58 277.75 L 458.06 277.75 L 459.53 277.75 L 461.00 277.75 L 462.47 277.75 L 463.94 277.75 L 465.42 277.75 L 466.89 277.75 L 468.36 277.75 L 469.83 277.75 L 471.31 277.75 L 472.78 277.75 L 474.25 277.75 L 475.72 277.75 L 477.19 277.75 L 478.67 277.75 L 480.14 277.75 L 481.61 277.75 L 483.08 277.75 L 484.56 277.75 L 486.03 277.75 L 487.50 277.75 L 488.97 277.75 L 490.44 277.75 L 491.92 277.75 L 493.39 277.75 L 494.86 277.75 L 496.33 277.75 L 497.81 277.75 L 499.28 277.75 L 500.75 277.75 L 502.22 277.75 L 503.69 277.75 L 505.17 277.75 L 506.64 277.75 L 508.11 277.75 L 509.58 277.75 L 511.06 277.75 L 512.53 277.75 L 514.00 277.75 L 515.47 277.75 L 516.94 277.75 L 518.42 277.75 L 519.89 277.75 L 521.36 277.75 L 522.83 277.75 L 524.31 277.75 L 525.78 277.75 L 527.25 277.75 L 528.72 277.75 L 530.19 277.75 L 531.67 277.75 L 533.14 277.75 L 534.61 277.75 L 536.08 277.75 L 537.56 277.75 L 539.03 277.75 L 540.50 277.75 L 541.97 277.75 L 543.44 277.75 L 544.92 277.75 L 546.39 277.75 L 547.86 277.75 L 549.33 277.75 L 550.81 277.75 L 552.28 277.75 L 553.75 277.75 L 555.22 277.75 L 556.69 277.75 L 558.17 277.75 L 559.64 277.75 L 561.11 277.75 L 562.58 277.75 L 564.06 277.75 L 565.53 277.75 L 567.00 277.75 L 568.47 277.75 L 569.94 277.75 L 571.42 277.75 L 572.89 277.75 L 574.36 277.75 L 575.83 277.75 L 577.31 277.75 L 578.78 277.75 L 580.25 277.75 L 581.72 277.75 L 583.19 277.75 L 584.67 277.75 L 586.14 277.75 L 587.61 277.75 L 589.08 277.75 L 590.56 277.75 L 592.03 277.75 L 593.50 277.75 L 594.97 277.75 L 596.44 277.75 L 597.92 277.75 L 599.39 277.75 L 600.86 277.75 L 602.33 277.75 L 603.81 277.75 L 605.28 277.75 L 606.75 277.75 L 608.22 277.75 L 609.69 277.75 L 611.17 277.75 L 612.64 277.75 L 614.11 277.75 L 615.58 277.75 L 617.06 277.75 L 618.53 277.75 L 620.00 277.75 L 621.47 277.75 L 622.94 277.75 L 624.42 277.75 L 625.89 277.75 L 627.36 277.75 L 628.83 277.75 L 630.31 277.75 L 631.78 277.75 L 633.25 277.75 L 634.72 277.75 L 636.19 277.75 L 637.67 269.70 L 639.14 266.23 L 640.61 266.37 L 642.08 266.09 L 643.56 267.20 L 645.03 266.65 L 646.50 265.95 L 647.97 260.54 L 649.44 255.96 L 650.92 257.90 L 652.39 262.21 L 653.86 263.18 L 655.33 258.88 L 656.81 255.27 L 658.28 251.80 L 659.75 249.16 L 661.22 246.66 L 662.69 245.00 L 664.17 249.58 L 665.64 249.44 L 667.11 248.19 L 668.58 247.22 L 670.06 246.11 L 671.53 246.94 L 673.00 249.58 L 674.47 242.92 L 675.94 240.00 L 677.42 238.61 L 678.89 235.84 L 680.36 236.95 L 681.83 231.40 L 683.31 231.81 L 684.78 227.51 L 686.25 232.65 L 687.72 237.37 L 689.19 235.70 L 690.67 235.42 L 692.14 232.23 L 693.61 233.34 L 695.08 241.25 L 696.56 243.19 L 698.03 254.30 L 699.50 242.22 L 700.97 235.98 L 702.44 233.76 L 703.92 229.04 L 705.39 229.45 L 706.86 227.51 L 708.33 225.29 L 709.81 229.18 L 711.28 226.40 L 712.75 222.52 L 714.22 222.52 L 715.69 223.49 L 717.17 222.65 L 718.64 221.13 L 720.11 219.32 L 721.58 218.91 L 723.06 217.24 L 724.53 216.55 L 726.00 212.66 L 727.47 210.58 L 728.94 211.27 L 730.42 209.75 L 731.89 209.61 L 733.36 210.44 L 734.83 211.00 L 736.31 211.55 L 737.78 212.38 L 739.25 211.41 L 740.72 208.92 L 742.19 209.75 L 743.67 212.11 L 745.14 212.52 L 746.61 213.77 L 748.08 214.47 L 749.56 216.13 L 751.03 215.02 L 752.50 215.44 L 753.97 216.69 L 755.44 217.10 L 756.92 216.41 L 758.39 215.99 L 759.86 216.13 L 761.33 216.55 L 762.81 218.77 L 764.28 222.79 L 765.75 226.82 L 767.22 230.15 L 768.69 229.04 L 770.17 227.93 L 771.64 227.79 L 773.11 228.34 L 774.58 230.56 L 776.06 231.68 L 777.53 230.84 L 779.00 230.15 L 780.47 228.34 L 781.94 228.76 L 783.42 222.79 L 784.89 223.07 L 786.36 227.51 L 787.83 235.42 L 789.31 245.14 L 790.78 253.74 L 792.25 255.82 L 793.72 258.88 L 795.19 257.35 L 796.67 255.68 L 798.14 252.35 L 799.61 252.21 L 801.08 251.94 L 802.56 247.91 L 804.03 247.22 L 805.50 247.63 L 806.97 248.47 L 808.44 250.13 L 809.92 245.69 L 811.39 242.22 L 812.86 237.64 L 814.33 236.12 L 815.81 231.95 L 817.28 227.93 L 818.75 224.46 L 820.22 221.82 L 821.69 219.60 L 823.17 218.49 L 824.64 217.38 L 826.11 219.05 L 827.58 221.68 L 829.06 224.46 L 830.53 226.26 L 832.00 227.23 L 833.47 228.21 L 834.94 228.90 L 836.42 230.56 L 837.89 232.65 L 839.36 235.01 L 840.83 236.25 L 842.31 234.87 L 843.78 233.62 L 845.25 233.34 L 846.72 232.79 L 848.19 232.92 L 849.67 232.92 L 851.14 233.20 L 852.61 235.42 L 854.08 236.81 L 855.56 238.61 L 857.03 240.14 L 858.50 242.50 L 859.97 244.86 L 861.44 245.97 L 862.92 249.58 L 864.39 255.55 L 865.86 255.55 L 867.33 253.74 L 868.81 250.27 L 870.28 254.30 L 871.75 255.82 L 873.22 257.07 L 874.69 258.88 L 876.17 256.10 L 877.64 255.68 L 879.11 253.19 L 880.58 253.19 L 882.06 253.05 L 883.53 253.19 L 885.00 254.30 L 886.47 253.88 L 887.94 253.19 L 889.42 250.69 L 890.89 249.72 L 892.36 248.88 L 893.83 246.66 L 895.31 247.36 L 896.78 245.97 L 898.25 246.80 L 899.72 247.22 L 901.19 246.39" stroke="#1976D2" />
<text x="90" y="289.75" font-size="14" font-weight="700">Inclinação (graus)</text>
<rect class="event" x="443.33" y="295.75" width="192.86" height="192.75" />
<line class="eventline" x1="443.33" y1="295.75" x2="443.33" y2="488.50" />
<line class="eventline" x1="636.19" y1="295.75" x2="636.19" y2="488.50" />
<line class="grid" x1="90" y1="488.50" x2="1150" y2="488.50" />
<text class="small" x="80" y="492.50" text-anchor="end">-10.0</text>
<line class="grid" x1="90" y1="449.95" x2="1150" y2="449.95" />
<text class="small" x="80" y="453.95" text-anchor="end">0.00</text>
<line class="grid" x1="90" y1="411.40" x2="1150" y2="411.40" />
<text class="small" x="80" y="415.40" text-anchor="end">10.0</text>
<line class="grid" x1="90" y1="372.85" x2="1150" y2="372.85" />
<text class="small" x="80" y="376.85" text-anchor="end">20.0</text>
<line class="grid" x1="90" y1="334.30" x2="1150" y2="334.30" />
<text class="small" x="80" y="338.30" text-anchor="end">30.0</text>
<line class="grid" x1="90" y1="295.75" x2="1150" y2="295.75" />
<text class="small" x="80" y="299.75" text-anchor="end">40.0</text>
<line class="grid" x1="90.00" y1="295.75" x2="90.00" y2="488.50" />
<line class="grid" x1="266.67" y1="295.75" x2="266.67" y2="488.50" />
<line class="grid" x1="443.33" y1="295.75" x2="443.33" y2="488.50" />
<line class="grid" x1="620.00" y1="295.75" x2="620.00" y2="488.50" />
<line class="grid" x1="796.67" y1="295.75" x2="796.67" y2="488.50" />
<line class="grid" x1="973.33" y1="295.75" x2="973.33" y2="488.50" />
<line class="grid" x1="1150.00" y1="295.75" x2="1150.00" y2="488.50" />
<line class="axis" x1="90" y1="295.75" x2="90" y2="488.50" />
<line class="axis" x1="90" y1="488.50" x2="1150" y2="488.50" />
<path class="series" d="M 178.33 404.47 L 179.81 408.14 L 181.28 413.13 L 182.75 410.98 L 184.22 407.28 L 185.69 401.69 L 187.17 399.24 L 188.64 399.46 L 190.11 401.67 L 191.58 399.83 L 193.06 404.09 L 194.53 406.64 L 196.00 402.39 L 197.47 399.95 L 198.94 398.76 L 200.42 402.44 L 201.89 399.72 L 203.36 397.89 L 204.83 401.48 L 206.31 398.12 L 207.78 395.62 L 209.25 394.80 L 210.72 390.60 L 212.19 379.81 L 213.67 380.17 L 215.14 377.79 L 216.61 388.23 L 218.08 392.70 L 219.56 394.36 L 221.03 382.23 L 222.50 374.39 L 223.97 382.52 L 225.44 371.34 L 226.92 370.62 L 228.39 382.45 L 229.86 383.95 L 231.33 384.83 L 232.81 385.74 L 234.28 385.64 L 235.75 385.35 L 237.22 384.58 L 238.69 385.89 L 240.17 386.23 L 241.64 386.51 L 243.11 389.85 L 244.58 396.11 L 246.06 402.43 L 247.53 396.08 L 249.00 392.66 L 250.47 392.36 L 251.94 370.81 L 253.42 404.65 L 254.89 412.83 L 256.36 396.04 L 257.83 387.87 L 259.31 386.55 L 260.78 395.27 L 262.25 396.85 L 263.72 398.27 L 265.19 409.76 L 266.67 410.23 L 268.14 417.07 L 269.61 414.25 L 271.08 407.39 L 272.56 401.04 L 274.03 395.60 L 275.50 394.73 L 276.97 404.11 L 278.44 410.53 L 279.92 416.48 L 281.39 411.01 L 282.86 407.77 L 284.33 412.02 L 285.81 411.66 L 287.28 392.18 L 288.75 395.90 L 290.22 407.00 L 291.69 406.11 L 293.17 399.68 L 294.64 408.86 L 296.11 394.60 L 297.58 398.49 L 299.06 397.46 L 300.53 411.53 L 302.00 404.55 L 303.47 397.65 L 304.94 396.92 L 306.42 400.20 L 307.89 393.44 L 309.36 401.06 L 310.83 388.13 L 312.31 387.06 L 313.78 400.26 L 315.25 401.83 L 316.72 402.93 L 318.19 397.00 L 319.67 415.62 L 321.14 425.95 L 322.61 392.33 L 324.08 401.72 L 325.56 401.73 L 327.03 395.26 L 328.50 406.72 L 329.97 387.25 L 331.44 385.22 L 332.92 390.59 L 334.39 375.90 L 335.86 401.55 L 337.33 408.38 L 338.81 404.85 L 340.28 415.21 L 341.75 439.85 L 343.22 440.54 L 344.69 423.34 L 346.17 423.34 L 347.64 416.92 L 349.11 391.56 L 350.58 417.47 L 352.06 416.02 L 353.53 383.70 L 355.00 406.45 L 356.47 394.80 L 357.94 385.33 L 359.42 390.87 L 360.89 382.06 L 362.36 386.86 L 363.83 395.40 L 365.31 393.02 L 366.78 387.26 L 368.25 388.30 L 369.72 393.43 L 371.19 389.83 L 372.67 396.37 L 374.14 384.55 L 375.61 381.62 L 377.08 406.99 L 378.56 399.96 L 380.03 403.22 L 381.50 390.14 L 382.97 397.07 L 384.44 392.12 L 385.92 402.12 L 387.39 399.54 L 388.86 403.89 L 390.33 400.34 L 391.81 405.17 L 393.28 403.54 L 394.75 404.00 L 396.22 407.88 L 397.69 410.99 L 399.17 411.90 L 400.64 406.44 L 402.11 406.15 L 403.58 395.50 L 405.06 409.34 L 406.53 404.96 L 408.00 407.42 L 409.47 407.56 L 410.94 411.21 L 412.42 413.44 L 413.89 416.99 L 415.36 408.93 L 416.83 411.32 L 418.31 407.63 L 419.78 422.11 L 421.25 408.67 L 422.72 400.74 L 424.19 402.18 L 425.67 407.27 L 427.14 384.31 L 428.61 391.02 L 430.08 396.03 L 431.56 392.86 L 433.03 391.69 L 434.50 399.28 L 435.97 394.72 L 437.44 400.38 L 438.92 405.29 L 440.39 405.13 L 441.86 413.19 L 443.33 397.48 L 444.81 401.07 L 446.28 401.16 L 447.75 401.43 L 449.22 400.04 L 450.69 401.15 L 452.17 400.78 L 453.64 400.88 L 455.11 400.87 L 456.58 400.86 L 458.06 400.89 L 459.53 400.85 L 461.00 400.83 L 462.47 400.80 L 463.94 400.75 L 465.42 400.81 L 466.89 400.80 L 468.36 400.85 L 469.83 400.76 L 471.31 400.79 L 472.78 400.81 L 474.25 400.82 L 475.72 400.80 L 477.19 400.78 L 478.67 400.61 L 480.14 400.47 L 481.61 398.53 L 483.08 400.15 L 484.56 399.22 L 486.03 399.53 L 487.50 399.38 L 488.97 399.42 L 490.44 399.47 L 491.92 399.41 L 493.39 399.41 L 494.86 399.39 L 496.33 399.40 L 497.81 399.38 L 499.28 399.36 L 500.75 399.39 L 502.22 399.33 L 503.69 399.31 L 505.17 399.29 L 506.64 399.32 L 508.11 399.30 L 509.58 399.34 L 511.06 399.29 L 512.53 399.29 L 514.00 399.29 L 515.47 399.33 L 516.94 399.26 L 518.42 399.72 L 519.89 398.72 L 521.36 397.25 L 522.83 399.39 L 524.31 398.14 L 525.78 398.17 L 527.25 398.38 L 528.72 398.19 L 530.19 398.37 L 531.67 398.27 L 533.14 398.27 L 534.61 398.26 L 536.08 398.29 L 537.56 398.27 L 539.03 398.28 L 540.50 398.25 L 541.97 398.23 L 543.44 398.21 L 544.92 398.25 L 546.39 398.22 L 547.86 398.26 L 549.33 398.27 L 550.81 398.23 L 552.28 398.44 L 553.75 398.98 L 555.22 398.86 L 556.69 398.68 L 558.17 398.78 L 559.64 398.84 L 561.11 398.76 L 562.58 398.90 L 564.06 398.81 L 565.53 398.81 L 567.00 398.74 L 568.47 398.76 L 569.94 398.77 L 571.42 398.77 L 572.89 398.79 L 574.36 398.78 L 575.83 398.79 L 577.31 398.77 L 578.78 398.77 L 580.25 398.79 L 581.72 398.74 L 583.19 398.79 L 584.67 398.82 L 586.14 398.67 L 587.61 398.56 L 589.08 399.27 L 590.56 400.74 L 592.03 400.03 L 593.50 400.26 L 594.97 400.05 L 596.44 399.95 L 597.92 400.04 L 599.39 400.12 L 600.86 400.06 L 602.33 400.08 L 603.81 400.03 L 605.28 400.10 L 606.75 400.07 L 608.22 400.07 L 609.69 400.06 L 611.17 400.10 L 612.64 400.12 L 614.11 400.12 L 615.58 400.19 L 617.06 400.12 L 618.53 400.12 L 620.00 400.14 L 621.47 400.16 L 622.94 400.14 L 624.42 400.48 L 625.89 401.48 L 627.36 400.99 L 628.83 401.10 L 630.31 401.03 L 631.78 401.12 L 633.25 401.18 L 634.72 407.04 L 636.19 414.96 L 637.67 406.07 L 639.14 398.09 L 640.61 392.93 L 642.08 393.54 L 643.56 384.04 L 645.03 402.03 L 646.50 408.13 L 647.97 406.83 L 649.44 407.65 L 650.92 407.09 L 652.39 413.99 L 653.86 413.99 L 655.33 421.79 L 656.81 409.55 L 658.28 414.96 L 659.75 408.33 L 661.22 412.12 L 662.69 408.57 L 664.17 403.18 L 665.64 414.48 L 667.11 411.76 L 668.58 408.61 L 670.06 403.54 L 671.53 396.45 L 673.00 406.67 L 674.47 408.28 L 675.94 406.78 L 677.42 412.52 L 678.89 404.21 L 680.36 401.50 L 681.83 400.17 L 683.31 397.45 L 684.78 401.11 L 686.25 397.42 L 687.72 402.31 L 689.19 401.93 L 690.67 412.98 L 692.14 411.13 L 693.61 406.53 L 695.08 392.98 L 696.56 400.24 L 698.03 401.21 L 699.50 407.22 L 700.97 412.71 L 702.44 413.95 L 703.92 407.35 L 705.39 407.63 L 706.86 407.40 L 708.33 410.21 L 709.81 405.57 L 711.28 409.85 L 712.75 405.14 L 714.22 408.52 L 715.69 415.26 L 717.17 412.80 L 718.64 413.84 L 720.11 413.94 L 721.58 413.14 L 723.06 415.74 L 724.53 412.96 L 726.00 413.43 L 727.47 407.07 L 728.94 410.15 L 730.42 407.37 L 731.89 409.28 L 733.36 408.18 L 734.83 408.86 L 736.31 409.05 L 737.78 408.03 L 739.25 409.77 L 740.72 403.63 L 742.19 399.23 L 743.67 399.06 L 745.14 399.41 L 746.61 402.63 L 748.08 401.19 L 749.56 399.25 L 751.03 403.14 L 752.50 402.64 L 753.97 406.35 L 755.44 409.88 L 756.92 408.64 L 758.39 408.60 L 759.86 406.48 L 761.33 400.72 L 762.81 400.70 L 764.28 402.84 L 765.75 392.65 L 767.22 398.17 L 768.69 400.16 L 770.17 400.57 L 771.64 397.85 L 773.11 399.10 L 774.58 396.13 L 776.06 404.19 L 777.53 405.38 L 779.00 404.07 L 780.47 409.03 L 781.94 410.99 L 783.42 412.28 L 784.89 420.99 L 786.36 424.33 L 787.83 423.57 L 789.31 428.55 L 790.78 439.38 L 792.25 430.82 L 793.72 445.74 L 795.19 436.69 L 796.67 439.14 L 798.14 432.08 L 799.61 427.46 L 801.08 424.26 L 802.56 412.72 L 804.03 405.39 L 805.50 402.26 L 806.97 400.74 L 808.44 411.57 L 809.92 421.42 L 811.39 419.98 L 812.86 416.45 L 814.33 419.04 L 815.81 420.46 L 817.28 415.68 L 818.75 412.53 L 820.22 415.08 L 821.69 412.61 L 823.17 416.60 L 824.64 413.43 L 826.11 418.49 L 827.58 419.88 L 829.06 419.59 L 830.53 418.73 L 832.00 419.84 L 833.47 421.68 L 834.94 421.00 L 836.42 420.43 L 837.89 420.22 L 839.36 422.19 L 840.83 424.27 L 842.31 425.90 L 843.78 425.66 L 845.25 425.64 L 846.72 424.66 L 848.19 425.03 L 849.67 426.23 L 851.14 426.07 L 852.61 426.45 L 854.08 427.75 L 855.56 428.21 L 857.03 428.36 L 858.50 427.71 L 859.97 428.14 L 861.44 427.46 L 862.92 419.56 L 864.39 438.72 L 865.86 437.70 L 867.33 438.41 L 868.81 438.88 L 870.28 438.73 L 871.75 437.73 L 873.22 433.26 L 874.69 443.94 L 876.17 439.49 L 877.64 441.67 L 879.11 436.60 L 880.58 436.12 L 882.06 435.55 L 883.53 435.33 L 885.00 434.42 L 886.47 437.70 L 887.94 437.84 L 889.42 436.60 L 890.89 435.24 L 892.36 434.75 L 893.83 435.31 L 895.31 434.80 L 896.78 434.39 L 898.25 434.14 L 899.72 434.59 L 901.19 434.16" stroke="#2E7D32" />
<path class="series" d="M 178.33 439.10 L 179.81 434.67 L 181.28 439.76 L 182.75 443.24 L 184.22 438.16 L 185.69 436.92 L 187.17 434.57 L 188.64 438.09 L 190.11 439.17 L 191.58 434.91 L 193.06 425.64 L 194.53 425.36 L 196.00 428.28 L 197.47 429.79 L 198.94 432.85 L 200.42 434.11 L 201.89 432.86 L 203.36 430.48 L 204.83 425.93 L 206.31 435.58 L 207.78 432.98 L 209.25 432.32 L 210.72 432.14 L 212.19 441.49 L 213.67 433.70 L 215.14 435.14 L 216.61 436.04 L 218.08 433.57 L 219.56 433.13 L 221.03 437.99 L 222.50 433.77 L 223.97 440.15 L 225.44 445.03 L 226.92 452.04 L 228.39 444.62 L 229.86 452.54 L 231.33 454.51 L 232.81 448.64 L 234.28 447.80 L 235.75 447.47 L 237.22 450.65 L 238.69 449.67 L 240.17 437.41 L 241.64 423.92 L 243.11 426.02 L 244.58 425.27 L 246.06 433.11 L 247.53 441.33 L 249.00 438.18 L 250.47 425.65 L 251.94 419.24 L 253.42 435.09 L 254.89 443.04 L 256.36 445.29 L 257.83 437.52 L 259.31 437.65 L 260.78 416.34 L 262.25 463.88 L 263.72 462.96 L 265.19 449.49 L 266.67 444.19 L 268.14 452.76 L 269.61 431.79 L 271.08 450.87 L 272.56 453.06 L 274.03 440.36 L 275.50 444.89 L 276.97 441.49 L 278.44 439.71 L 279.92 451.24 L 281.39 454.62 L 282.86 443.42 L 284.33 455.24 L 285.81 442.83 L 287.28 443.20 L 288.75 435.74 L 290.22 424.97 L 291.69 432.04 L 293.17 442.06 L 294.64 446.65 L 296.11 454.33 L 297.58 446.30 L 299.06 451.98 L 300.53 446.34 L 302.00 446.84 L 303.47 452.20 L 304.94 444.26 L 306.42 458.47 L 307.89 463.47 L 309.36 461.45 L 310.83 467.01 L 312.31 461.62 L 313.78 463.31 L 315.25 469.53 L 316.72 451.96 L 318.19 424.77 L 319.67 443.40 L 321.14 430.40 L 322.61 430.31 L 324.08 428.57 L 325.56 421.35 L 327.03 420.14 L 328.50 426.08 L 329.97 420.06 L 331.44 425.33 L 332.92 411.64 L 334.39 433.80 L 335.86 436.81 L 337.33 431.89 L 338.81 447.94 L 340.28 453.67 L 341.75 425.63 L 343.22 431.57 L 344.69 444.92 L 346.17 444.92 L 347.64 455.57 L 349.11 460.84 L 350.58 444.35 L 352.06 439.12 L 353.53 453.12 L 355.00 427.72 L 356.47 413.80 L 357.94 437.11 L 359.42 430.11 L 360.89 461.43 L 362.36 454.62 L 363.83 457.54 L 365.31 457.89 L 366.78 465.59 L 368.25 459.62 L 369.72 462.21 L 371.19 462.96 L 372.67 462.73 L 374.14 454.66 L 375.61 444.72 L 377.08 457.91 L 378.56 459.95 L 380.03 455.38 L 381.50 462.53 L 382.97 458.92 L 384.44 472.10 L 385.92 463.63 L 387.39 455.07 L 388.86 459.22 L 390.33 455.50 L 391.81 455.43 L 393.28 453.87 L 394.75 465.65 L 396.22 459.32 L 397.69 463.96 L 399.17 459.00 L 400.64 455.50 L 402.11 464.76 L 403.58 467.12 L 405.06 452.83 L 406.53 459.14 L 408.00 454.76 L 409.47 448.22 L 410.94 442.12 L 412.42 445.88 L 413.89 446.58 L 415.36 453.53 L 416.83 446.29 L 418.31 444.18 L 419.78 452.94 L 421.25 464.40 L 422.72 465.34 L 424.19 460.12 L 425.67 460.91 L 427.14 459.04 L 428.61 462.41 L 430.08 455.85 L 431.56 451.59 L 433.03 459.59 L 434.50 453.90 L 435.97 457.61 L 437.44 456.14 L 438.92 454.39 L 440.39 462.15 L 441.86 466.33 L 443.33 461.01 L 444.81 464.30 L 446.28 464.67 L 447.75 463.95 L 449.22 464.00 L 450.69 463.89 L 452.17 464.30 L 453.64 463.93 L 455.11 464.24 L 456.58 464.00 L 458.06 464.17 L 459.53 464.15 L 461.00 464.02 L 462.47 464.12 L 463.94 464.15 L 465.42 464.11 L 466.89 464.07 L 468.36 464.18 L 469.83 464.11 L 471.31 464.17 L 472.78 464.14 L 474.25 464.14 L 475.72 464.18 L 477.19 464.17 L 478.67 464.07 L 480.14 462.81 L 481.61 463.89 L 483.08 463.71 L 484.56 464.20 L 486.03 463.63 L 487.50 463.36 L 488.97 463.75 L 490.44 463.85 L 491.92 463.62 L 493.39 463.58 L 494.86 463.70 L 496.33 463.76 L 497.81 463.62 L 499.28 463.62 L 500.75 463.71 L 502.22 463.72 L 503.69 463.62 L 505.17 463.66 L 506.64 463.70 L 508.11 463.69 L 509.58 463.63 L 511.06 463.64 L 512.53 463.72 L 514.00 463.63 L 515.47 463.59 L 516.94 463.66 L 518.42 463.64 L 519.89 463.47 L 521.36 463.84 L 522.83 463.50 L 524.31 463.34 L 525.78 463.49 L 527.25 463.47 L 528.72 463.54 L 530.19 463.57 L 531.67 463.67 L 533.14 463.65 L 534.61 463.57 L 536.08 463.54 L 537.56 463.61 L 539.03 463.53 L 540.50 463.51 L 541.97 463.50 L 543.44 463.58 L 544.92 463.62 L 546.39 463.51 L 547.86 463.53 L 549.33 463.58 L 550.81 463.58 L 552.28 464.85 L 553.75 462.02 L 555.22 464.23 L 556.69 463.35 L 558.17 463.49 L 559.64 463.51 L 561.11 463.55 L 562.58 463.53 L 564.06 463.53 L 565.53 463.57 L 567.00 463.61 L 568.47 463.59 L 569.94 463.66 L 571.42 463.53 L 572.89 463.55 L 574.36 463.58 L 575.83 463.60 L 577.31 463.50 L 578.78 463.59 L 580.25 463.62 L 581.72 463.63 L 583.19 463.54 L 584.67 463.68 L 586.14 463.76 L 587.61 463.14 L 589.08 464.08 L 590.56 464.74 L 592.03 464.16 L 593.50 464.11 L 594.97 464.04 L 596.44 464.19 L 597.92 464.22 L 599.39 464.18 L 600.86 464.23 L 602.33 464.24 L 603.81 464.26 L 605.28 464.23 L 606.75 464.27 L 608.22 464.20 L 609.69 464.23 L 611.17 464.25 L 612.64 464.22 L 614.11 464.28 L 615.58 464.25 L 617.06 464.27 L 618.53 464.29 L 620.00 464.28 L 621.47 464.21 L 622.94 464.35 L 624.42 464.41 L 625.89 465.18 L 627.36 464.57 L 628.83 465.67 L 630.31 465.32 L 631.78 465.23 L 633.25 465.15 L 634.72 464.22 L 636.19 466.65 L 637.67 453.22 L 639.14 460.15 L 640.61 458.01 L 642.08 453.52 L 643.56 455.29 L 645.03 459.39 L 646.50 473.30 L 647.97 448.23 L 649.44 463.74 L 650.92 446.30 L 652.39 456.99 L 653.86 456.99 L 655.33 452.64 L 656.81 448.96 L 658.28 461.23 L 659.75 456.69 L 661.22 456.17 L 662.69 454.03 L 664.17 444.90 L 665.64 445.34 L 667.11 448.06 L 668.58 454.97 L 670.06 454.24 L 671.53 455.54 L 673.00 446.50 L 674.47 446.16 L 675.94 444.64 L 677.42 457.24 L 678.89 462.59 L 680.36 460.88 L 681.83 424.27 L 683.31 455.56 L 684.78 437.59 L 686.25 440.26 L 687.72 445.33 L 689.19 437.39 L 690.67 442.60 L 692.14 434.75 L 693.61 439.69 L 695.08 444.55 L 696.56 440.18 L 698.03 441.44 L 699.50 439.27 L 700.97 436.60 L 702.44 447.48 L 703.92 447.24 L 705.39 446.44 L 706.86 447.81 L 708.33 447.70 L 709.81 449.17 L 711.28 454.91 L 712.75 455.37 L 714.22 456.44 L 715.69 459.99 L 717.17 453.13 L 718.64 444.89 L 720.11 445.44 L 721.58 447.55 L 723.06 443.53 L 724.53 446.26 L 726.00 452.23 L 727.47 442.97 L 728.94 439.55 L 730.42 448.64 L 731.89 448.65 L 733.36 451.54 L 734.83 448.59 L 736.31 445.12 L 737.78 439.79 L 739.25 445.29 L 740.72 447.11 L 742.19 456.69 L 743.67 464.05 L 745.14 461.56 L 746.61 455.16 L 748.08 458.11 L 749.56 462.06 L 751.03 464.66 L 752.50 463.34 L 753.97 466.21 L 755.44 458.24 L 756.92 444.52 L 758.39 450.04 L 759.86 451.27 L 761.33 454.53 L 762.81 453.87 L 764.28 454.06 L 765.75 449.98 L 767.22 459.82 L 768.69 452.81 L 770.17 461.46 L 771.64 457.57 L 773.11 456.04 L 774.58 450.18 L 776.06 447.33 L 777.53 449.02 L 779.00 444.07 L 780.47 458.48 L 781.94 455.75 L 783.42 449.35 L 784.89 456.70 L 786.36 463.44 L 787.83 464.17 L 789.31 460.73 L 790.78 459.72 L 792.25 457.98 L 793.72 458.39 L 795.19 459.01 L 796.67 458.59 L 798.14 455.11 L 799.61 455.45 L 801.08 452.42 L 802.56 452.49 L 804.03 451.97 L 805.50 454.57 L 806.97 459.17 L 808.44 461.64 L 809.92 470.53 L 811.39 463.13 L 812.86 474.38 L 814.33 461.12 L 815.81 454.47 L 817.28 453.52 L 818.75 450.66 L 820.22 450.57 L 821.69 453.01 L 823.17 463.70 L 824.64 466.35 L 826.11 470.08 L 827.58 464.25 L 829.06 457.72 L 830.53 462.18 L 832.00 456.88 L 833.47 453.32 L 834.94 449.87 L 836.42 448.84 L 837.89 450.50 L 839.36 451.10 L 840.83 452.10 L 842.31 457.50 L 843.78 454.00 L 845.25 453.73 L 846.72 455.23 L 848.19 451.95 L 849.67 451.71 L 851.14 449.49 L 852.61 446.03 L 854.08 447.64 L 855.56 447.21 L 857.03 446.92 L 858.50 446.00 L 859.97 444.51 L 861.44 444.81 L 862.92 444.96 L 864.39 445.92 L 865.86 444.78 L 867.33 446.33 L 868.81 448.51 L 870.28 449.96 L 871.75 451.46 L 873.22 452.27 L 874.69 454.48 L 876.17 454.98 L 877.64 455.90 L 879.11 456.30 L 880.58 456.90 L 882.06 457.28 L 883.53 455.94 L 885.00 455.58 L 886.47 454.84 L 887.94 454.51 L 889.42 454.65 L 890.89 452.58 L 892.36 453.39 L 893.83 452.66 L 895.31 452.70 L 896.78 451.10 L 898.25 452.48 L 899.72 455.78 L 901.19 453.88" stroke="#6A1B9A" />
<line x1="900.00" y1="307.75" x2="918.00" y2="307.75" stroke="#2E7D32" stroke-width="3" />
<text class="small" x="924.00" y="311.75">pitch</text>
<line x1="900.00" y1="323.75" x2="918.00" y2="323.75" stroke="#6A1B9A" stroke-width="3" />
<text class="small" x="924.00" y="327.75">roll</text>
<text x="90" y="500.50" font-size="14" font-weight="700">Aceleração (magnitude) (u.a.)</text>
<rect class="event" x="443.33" y="506.50" width="192.86" height="192.75" />
<line class="eventline" x1="443.33" y1="506.50" x2="443.33" y2="699.25" />
<line class="eventline" x1="636.19" y1="506.50" x2="636.19" y2="699.25" />
<line class="grid" x1="90" y1="699.25" x2="1150" y2="699.25" />
<text class="small" x="80" y="703.25" text-anchor="end">0.00</text>
<line class="grid" x1="90" y1="660.70" x2="1150" y2="660.70" />
<text class="small" x="80" y="664.70" text-anchor="end">0.50</text>
<line class="grid" x1="90" y1="622.15" x2="1150" y2="622.15" />
<text class="small" x="80" y="626.15" text-anchor="end">1.00</text>
<line class="grid" x1="90" y1="583.60" x2="1150" y2="583.60" />
<text class="small" x="80" y="587.60" text-anchor="end">1.50</text>
<line class="grid" x1="90" y1="545.05" x2="1150" y2="545.05" />
<text class="small" x="80" y="549.05" text-anchor="end">2.00</text>
<line class="grid" x1="90" y1="506.50" x2="1150" y2="506.50" />
<text class="small" x="80" y="510.50" text-anchor="end">2.50</text>
<line class="grid" x1="90.00" y1="506.50" x2="90.00" y2="699.25" />
<line class="grid" x1="266.67" y1="506.50" x2="266.67" y2="699.25" />
<line class="grid" x1="443.33" y1="506.50" x2="443.33" y2="699.25" />
<line class="grid" x1="620.00" y1="506.50" x2="620.00" y2="699.25" />
<line class="grid" x1="796.67" y1="506.50" x2="796.67" y2="699.25" />
<line class="grid" x1="973.33" y1="506.50" x2="973.33" y2="699.25" />
<line class="grid" x1="1150.00" y1="506.50" x2="1150.00" y2="699.25" />
<line class="axis" x1="90" y1="506.50" x2="90" y2="699.25" />
<line class="axis" x1="90" y1="699.25" x2="1150" y2="699.25" />
<path class="series" d="M 178.33 676.00 L 179.81 689.85 L 181.28 689.59 L 182.75 667.87 L 184.22 668.76 L 185.69 679.44 L 187.17 675.03 L 188.64 681.78 L 190.11 683.28 L 191.58 680.12 L 193.06 655.76 L 194.53 682.75 L 196.00 685.24 L 197.47 674.24 L 198.94 673.70 L 200.42 689.06 L 201.89 660.64 L 203.36 692.41 L 204.83 682.96 L 206.31 683.94 L 207.78 688.37 L 209.25 674.07 L 210.72 692.78 L 212.19 675.32 L 213.67 690.00 L 215.14 694.84 L 216.61 665.99 L 218.08 662.39 L 219.56 671.29 L 221.03 668.27 L 222.50 690.56 L 223.97 685.35 L 225.44 641.29 L 226.92 685.39 L 228.39 690.40 L 229.86 678.61 L 231.33 677.98 L 232.81 684.70 L 234.28 686.49 L 235.75 683.37 L 237.22 686.20 L 238.69 681.53 L 240.17 650.63 L 241.64 655.42 L 243.11 665.62 L 244.58 693.52 L 246.06 682.70 L 247.53 675.11 L 249.00 675.11 L 250.47 677.91 L 251.94 640.61 L 253.42 654.48 L 254.89 667.93 L 256.36 622.52 L 257.83 680.59 L 259.31 655.70 L 260.78 627.47 L 262.25 663.44 L 263.72 604.04 L 265.19 626.79 L 266.67 662.87 L 268.14 665.30 L 269.61 684.73 L 271.08 657.79 L 272.56 681.63 L 274.03 673.37 L 275.50 668.54 L 276.97 619.39 L 278.44 659.26 L 279.92 680.48 L 281.39 669.55 L 282.86 642.96 L 284.33 660.85 L 285.81 681.83 L 287.28 687.15 L 288.75 675.94 L 290.22 641.51 L 291.69 666.70 L 293.17 675.92 L 294.64 690.07 L 296.11 683.97 L 297.58 659.44 L 299.06 666.97 L 300.53 674.14 L 302.00 681.77 L 303.47 693.11 L 304.94 662.23 L 306.42 677.19 L 307.89 656.67 L 309.36 667.47 L 310.83 667.05 L 312.31 663.23 L 313.78 656.38 L 315.25 678.87 L 316.72 672.58 L 318.19 623.35 L 319.67 630.66 L 321.14 629.98 L 322.61 641.09 L 324.08 658.60 L 325.56 662.84 L 327.03 632.46 L 328.50 685.91 L 329.97 657.19 L 331.44 614.70 L 332.92 636.79 L 334.39 593.22 L 335.86 585.28 L 337.33 670.50 L 338.81 612.63 L 340.28 605.06 L 341.75 656.97 L 343.22 662.15 L 344.69 675.81 L 346.17 678.80 L 347.64 653.96 L 349.11 668.07 L 350.58 669.04 L 352.06 679.12 L 353.53 674.56 L 355.00 637.37 L 356.47 603.18 L 357.94 649.48 L 359.42 635.57 L 360.89 656.05 L 362.36 657.90 L 363.83 655.14 L 365.31 666.94 L 366.78 659.57 L 368.25 660.84 L 369.72 651.52 L 371.19 672.47 L 372.67 657.87 L 374.14 637.52 L 375.61 670.20 L 377.08 662.76 L 378.56 678.54 L 380.03 680.36 L 381.50 678.07 L 382.97 672.86 L 384.44 690.71 L 385.92 670.80 L 387.39 672.14 L 388.86 663.72 L 390.33 688.77 L 391.81 685.50 L 393.28 689.84 L 394.75 683.74 L 396.22 679.48 L 397.69 679.77 L 399.17 667.87 L 400.64 680.13 L 402.11 643.27 L 403.58 660.92 L 405.06 676.71 L 406.53 685.54 L 408.00 683.58 L 409.47 686.10 L 410.94 684.14 L 412.42 672.59 L 413.89 667.23 L 415.36 667.23 L 416.83 685.45 L 418.31 678.19 L 419.78 688.95 L 421.25 686.50 L 422.72 676.09 L 424.19 694.45 L 425.67 683.38 L 427.14 669.59 L 428.61 669.72 L 430.08 665.52 L 431.56 682.35 L 433.03 675.34 L 434.50 675.76 L 435.97 682.29 L 437.44 684.65 L 438.92 680.65 L 440.39 680.32 L 441.86 665.31 L 443.33 688.96 L 444.81 687.34 L 446.28 698.31 L 447.75 692.77 L 449.22 696.27 L 450.69 697.78 L 452.17 698.50 L 453.64 698.71 L 455.11 699.05 L 456.58 698.95 L 458.06 698.90 L 459.53 699.06 L 461.00 699.01 L 462.47 699.16 L 463.94 699.16 L 465.42 699.02 L 466.89 699.15 L 468.36 698.97 L 469.83 699.09 L 471.31 699.11 L 472.78 699.15 L 474.25 699.22 L 475.72 699.17 L 477.19 699.13 L 478.67 691.33 L 480.14 696.97 L 481.61 695.63 L 483.08 696.01 L 484.56 696.64 L 486.03 698.86 L 487.50 698.16 L 488.97 699.06 L 490.44 698.48 L 491.92 699.05 L 493.39 698.87 L 494.86 699.10 L 496.33 698.77 L 497.81 699.12 L 499.28 698.95 L 500.75 698.73 L 502.22 698.59 L 503.69 698.86 L 505.17 699.16 L 506.64 699.14 L 508.11 699.20 L 509.58 699.11 L 511.06 699.10 L 512.53 699.11 L 514.00 699.03 L 515.47 699.04 L 516.94 699.11 L 518.42 697.58 L 519.89 696.02 L 521.36 685.42 L 522.83 692.50 L 524.31 698.20 L 525.78 698.70 L 527.25 698.86 L 528.72 698.91 L 530.19 699.05 L 531.67 698.99 L 533.14 698.93 L 534.61 699.06 L 536.08 699.20 L 537.56 699.00 L 539.03 699.05 L 540.50 699.16 L 541.97 699.11 L 543.44 699.00 L 544.92 699.09 L 546.39 699.09 L 547.86 699.12 L 549.33 699.16 L 550.81 699.13 L 552.28 695.83 L 553.75 683.41 L 555.22 698.17 L 556.69 698.37 L 558.17 698.71 L 559.64 698.85 L 561.11 699.02 L 562.58 699.09 L 564.06 698.95 L 565.53 699.00 L 567.00 698.91 L 568.47 699.12 L 569.94 699.01 L 571.42 698.99 L 572.89 699.09 L 574.36 699.13 L 575.83 699.14 L 577.31 699.00 L 578.78 699.04 L 580.25 699.05 L 581.72 699.12 L 583.19 698.97 L 584.67 698.34 L 586.14 697.37 L 587.61 695.76 L 589.08 695.71 L 590.56 695.71 L 592.03 694.60 L 593.50 696.91 L 594.97 698.73 L 596.44 698.67 L 597.92 698.97 L 599.39 699.05 L 600.86 699.12 L 602.33 698.98 L 603.81 699.08 L 605.28 699.01 L 606.75 699.15 L 608.22 699.13 L 609.69 699.22 L 611.17 699.15 L 612.64 699.22 L 614.11 699.04 L 615.58 699.00 L 617.06 699.14 L 618.53 699.13 L 620.00 699.08 L 621.47 699.00 L 622.94 698.62 L 624.42 698.03 L 625.89 697.16 L 627.36 697.28 L 628.83 697.82 L 630.31 698.07 L 631.78 698.71 L 633.25 698.50 L 634.72 698.60 L 636.19 675.77 L 637.67 691.79 L 639.14 676.87 L 640.61 686.53 L 642.08 675.54 L 643.56 685.51 L 645.03 671.10 L 646.50 674.46 L 647.97 668.50 L 649.44 676.56 L 650.92 658.51 L 652.39 675.35 L 653.86 677.89 L 655.33 678.91 L 656.81 674.42 L 658.28 680.63 L 659.75 692.51 L 661.22 671.20 L 662.69 659.78 L 664.17 686.89 L 665.64 685.13 L 667.11 665.22 L 668.58 667.71 L 670.06 677.30 L 671.53 670.03 L 673.00 673.15 L 674.47 670.47 L 675.94 687.67 L 677.42 646.72 L 678.89 654.19 L 680.36 661.31 L 681.83 642.96 L 683.31 690.55 L 684.78 672.99 L 686.25 664.33 L 687.72 661.63 L 689.19 670.38 L 690.67 676.23 L 692.14 675.97 L 693.61 665.02 L 695.08 673.92 L 696.56 674.97 L 698.03 645.50 L 699.50 653.37 L 700.97 669.85 L 702.44 679.62 L 703.92 681.87 L 705.39 658.73 L 706.86 657.28 L 708.33 675.50 L 709.81 674.65 L 711.28 654.31 L 712.75 665.57 L 714.22 680.27 L 715.69 671.99 L 717.17 691.15 L 718.64 673.32 L 720.11 663.76 L 721.58 692.10 L 723.06 688.47 L 724.53 676.10 L 726.00 684.22 L 727.47 672.91 L 728.94 680.32 L 730.42 677.86 L 731.89 662.77 L 733.36 693.64 L 734.83 664.21 L 736.31 684.85 L 737.78 682.58 L 739.25 675.52 L 740.72 654.10 L 742.19 669.44 L 743.67 672.34 L 745.14 679.91 L 746.61 669.92 L 748.08 661.02 L 749.56 683.59 L 751.03 680.57 L 752.50 684.75 L 753.97 679.30 L 755.44 647.52 L 756.92 645.39 L 758.39 675.34 L 759.86 645.88 L 761.33 678.00 L 762.81 646.14 L 764.28 667.55 L 765.75 682.05 L 767.22 668.67 L 768.69 683.70 L 770.17 683.70 L 771.64 690.39 L 773.11 689.00 L 774.58 674.69 L 776.06 688.13 L 777.53 683.20 L 779.00 684.48 L 780.47 670.19 L 781.94 663.84 L 783.42 686.16 L 784.89 674.00 L 786.36 658.60 L 787.83 636.99 L 789.31 681.65 L 790.78 679.77 L 792.25 694.61 L 793.72 673.87 L 795.19 676.67 L 796.67 683.91 L 798.14 688.98 L 799.61 692.69 L 801.08 693.15 L 802.56 694.13 L 804.03 683.60 L 805.50 690.76 L 806.97 695.75 L 808.44 679.27 L 809.92 680.08 L 811.39 675.49 L 812.86 665.73 L 814.33 689.76 L 815.81 658.83 L 817.28 676.04 L 818.75 684.74 L 820.22 690.97 L 821.69 690.37 L 823.17 692.21 L 824.64 680.09 L 826.11 666.32 L 827.58 675.81 L 829.06 685.65 L 830.53 672.95 L 832.00 693.00 L 833.47 677.27 L 834.94 687.42 L 836.42 682.20 L 837.89 690.41 L 839.36 691.21 L 840.83 679.01 L 842.31 674.90 L 843.78 693.04 L 845.25 695.77 L 846.72 688.91 L 848.19 688.88 L 849.67 697.52 L 851.14 695.27 L 852.61 690.10 L 854.08 694.55 L 855.56 693.55 L 857.03 695.52 L 858.50 692.91 L 859.97 690.69 L 861.44 691.33 L 862.92 669.58 L 864.39 686.01 L 865.86 678.80 L 867.33 685.53 L 868.81 696.74 L 870.28 689.13 L 871.75 695.63 L 873.22 682.76 L 874.69 676.76 L 876.17 694.33 L 877.64 694.05 L 879.11 693.08 L 880.58 697.53 L 882.06 695.91 L 883.53 696.77 L 885.00 695.67 L 886.47 687.89 L 887.94 692.87 L 889.42 695.17 L 890.89 692.40 L 892.36 692.96 L 893.83 692.93 L 895.31 691.68 L 896.78 694.92 L 898.25 695.48 L 899.72 695.28 L 901.19 694.68" stroke="#FB8C00" />
<text x="90" y="711.25" font-size="14" font-weight="700">Giroscópio (magnitude) (u.a.)</text>
<rect class="event" x="443.33" y="717.25" width="192.86" height="192.75" />
<line class="eventline" x1="443.33" y1="717.25" x2="443.33" y2="910.00" />
<line class="eventline" x1="636.19" y1="717.25" x2="636.19" y2="910.00" />
<line class="grid" x1="90" y1="910.00" x2="1150" y2="910.00" />
<text class="small" x="80" y="914.00" text-anchor="end">0.00</text>
<line class="grid" x1="90" y1="871.45" x2="1150" y2="871.45" />
<text class="small" x="80" y="875.45" text-anchor="end">0.10</text>
<line class="grid" x1="90" y1="832.90" x2="1150" y2="832.90" />
<text class="small" x="80" y="836.90" text-anchor="end">0.20</text>
<line class="grid" x1="90" y1="794.35" x2="1150" y2="794.35" />
<text class="small" x="80" y="798.35" text-anchor="end">0.30</text>
<line class="grid" x1="90" y1="755.80" x2="1150" y2="755.80" />
<text class="small" x="80" y="759.80" text-anchor="end">0.40</text>
<line class="grid" x1="90" y1="717.25" x2="1150" y2="717.25" />
<text class="small" x="80" y="721.25" text-anchor="end">0.50</text>
<line class="grid" x1="90.00" y1="717.25" x2="90.00" y2="910.00" />
<line class="grid" x1="266.67" y1="717.25" x2="266.67" y2="910.00" />
<line class="grid" x1="443.33" y1="717.25" x2="443.33" y2="910.00" />
<line class="grid" x1="620.00" y1="717.25" x2="620.00" y2="910.00" />
<line class="grid" x1="796.67" y1="717.25" x2="796.67" y2="910.00" />
<line class="grid" x1="973.33" y1="717.25" x2="973.33" y2="910.00" />
<line class="grid" x1="1150.00" y1="717.25" x2="1150.00" y2="910.00" />
<line class="axis" x1="90" y1="717.25" x2="90" y2="910.00" />
<line class="axis" x1="90" y1="910.00" x2="1150" y2="910.00" />
<path class="series" d="M 178.33 889.35 L 179.81 892.42 L 181.28 894.62 L 182.75 901.60 L 184.22 899.05 L 185.69 901.64 L 187.17 906.10 L 188.64 904.40 L 190.11 907.50 L 191.58 902.50 L 193.06 888.33 L 194.53 878.24 L 196.00 877.11 L 197.47 877.35 L 198.94 882.17 L 200.42 877.76 L 201.89 891.73 L 203.36 896.06 L 204.83 897.58 L 206.31 899.28 L 207.78 890.05 L 209.25 896.84 L 210.72 894.14 L 212.19 892.83 L 213.67 895.91 L 215.14 897.38 L 216.61 897.33 L 218.08 896.94 L 219.56 894.52 L 221.03 896.46 L 222.50 897.30 L 223.97 893.67 L 225.44 890.95 L 226.92 897.51 L 228.39 893.93 L 229.86 902.81 L 231.33 902.54 L 232.81 905.50 L 234.28 906.94 L 235.75 904.53 L 237.22 905.72 L 238.69 904.26 L 240.17 889.68 L 241.64 872.76 L 243.11 871.55 L 244.58 881.55 L 246.06 889.61 L 247.53 890.10 L 249.00 890.10 L 250.47 884.99 L 251.94 872.83 L 253.42 877.86 L 254.89 883.40 L 256.36 872.74 L 257.83 867.98 L 259.31 869.12 L 260.78 877.13 L 262.25 853.58 L 263.72 891.64 L 265.19 886.86 L 266.67 884.85 L 268.14 884.84 L 269.61 882.79 L 271.08 878.07 L 272.56 871.20 L 274.03 887.23 L 275.50 908.14 L 276.97 898.27 L 278.44 891.56 L 279.92 899.55 L 281.39 897.73 L 282.86 896.36 L 284.33 906.26 L 285.81 898.74 L 287.28 889.76 L 288.75 905.08 L 290.22 896.45 L 291.69 894.65 L 293.17 890.64 L 294.64 900.59 L 296.11 887.11 L 297.58 900.71 L 299.06 901.35 L 300.53 890.62 L 302.00 898.09 L 303.47 893.93 L 304.94 899.29 L 306.42 897.89 L 307.89 895.09 L 309.36 902.48 L 310.83 890.43 L 312.31 897.19 L 313.78 894.06 L 315.25 889.27 L 316.72 880.76 L 318.19 883.51 L 319.67 897.79 L 321.14 884.23 L 322.61 890.81 L 324.08 875.91 L 325.56 873.43 L 327.03 862.89 L 328.50 848.98 L 329.97 851.90 L 331.44 812.09 L 332.92 784.54 L 334.39 779.12 L 335.86 806.70 L 337.33 821.40 L 338.81 830.87 L 340.28 868.74 L 341.75 895.31 L 343.22 870.23 L 344.69 848.83 L 346.17 844.77 L 347.64 856.93 L 349.11 880.29 L 350.58 864.69 L 352.06 834.55 L 353.53 841.26 L 355.00 818.12 L 356.47 791.24 L 357.94 814.99 L 359.42 826.96 L 360.89 859.97 L 362.36 891.17 L 363.83 896.72 L 365.31 865.74 L 366.78 843.67 L 368.25 834.03 L 369.72 837.95 L 371.19 854.28 L 372.67 856.90 L 374.14 882.81 L 375.61 908.38 L 377.08 908.25 L 378.56 909.19 L 380.03 902.09 L 381.50 903.34 L 382.97 902.87 L 384.44 876.01 L 385.92 856.51 L 387.39 859.02 L 388.86 869.04 L 390.33 880.79 L 391.81 895.57 L 393.28 903.00 L 394.75 905.89 L 396.22 904.16 L 397.69 898.35 L 399.17 893.80 L 400.64 875.49 L 402.11 875.70 L 403.58 890.14 L 405.06 908.13 L 406.53 898.57 L 408.00 888.71 L 409.47 893.43 L 410.94 887.47 L 412.42 899.11 L 413.89 905.52 L 415.36 905.52 L 416.83 899.76 L 418.31 898.84 L 419.78 892.13 L 421.25 888.45 L 422.72 891.99 L 424.19 896.43 L 425.67 894.29 L 427.14 897.13 L 428.61 902.52 L 430.08 907.06 L 431.56 903.59 L 433.03 903.81 L 434.50 907.12 L 435.97 902.84 L 437.44 904.71 L 438.92 907.49 L 440.39 901.33 L 441.86 905.54 L 443.33 905.99 L 444.81 909.48 L 446.28 909.39 L 447.75 909.86 L 449.22 909.54 L 450.69 909.90 L 452.17 909.81 L 453.64 909.84 L 455.11 909.78 L 456.58 909.84 L 458.06 909.85 L 459.53 909.85 L 461.00 909.75 L 462.47 909.87 L 463.94 909.92 L 465.42 909.96 L 466.89 909.92 L 468.36 909.94 L 469.83 909.91 L 471.31 909.95 L 472.78 909.95 L 474.25 909.96 L 475.72 909.93 L 477.19 909.94 L 478.67 908.93 L 480.14 908.44 L 481.61 909.16 L 483.08 909.85 L 484.56 909.85 L 486.03 909.87 L 487.50 909.90 L 488.97 909.92 L 490.44 909.96 L 491.92 909.88 L 493.39 909.92 L 494.86 909.98 L 496.33 909.97 L 497.81 909.84 L 499.28 909.92 L 500.75 909.78 L 502.22 909.90 L 503.69 909.94 L 505.17 909.89 L 506.64 909.92 L 508.11 909.93 L 509.58 909.91 L 511.06 909.98 L 512.53 909.95 L 514.00 909.89 L 515.47 909.93 L 516.94 909.91 L 518.42 909.68 L 519.89 908.57 L 521.36 909.38 L 522.83 909.40 L 524.31 909.78 L 525.78 909.83 L 527.25 909.88 L 528.72 909.89 L 530.19 909.91 L 531.67 909.94 L 533.14 909.93 L 534.61 909.97 L 536.08 909.97 L 537.56 909.96 L 539.03 910.00 L 540.50 909.93 L 541.97 909.98 L 543.44 909.91 L 544.92 909.96 L 546.39 909.88 L 547.86 909.95 L 549.33 909.92 L 550.81 909.91 L 552.28 908.66 L 553.75 909.68 L 555.22 909.23 L 556.69 909.77 L 558.17 909.80 L 559.64 909.93 L 561.11 909.87 L 562.58 909.91 L 564.06 909.66 L 565.53 909.76 L 567.00 909.92 L 568.47 909.91 L 569.94 909.92 L 571.42 909.94 L 572.89 909.92 L 574.36 909.93 L 575.83 909.90 L 577.31 909.88 L 578.78 909.94 L 580.25 909.95 L 581.72 909.94 L 583.19 909.96 L 584.67 909.86 L 586.14 909.65 L 587.61 908.86 L 589.08 908.49 L 590.56 908.49 L 592.03 909.48 L 593.50 909.80 L 594.97 909.85 L 596.44 909.90 L 597.92 909.90 L 599.39 909.93 L 600.86 909.93 L 602.33 909.96 L 603.81 909.91 L 605.28 909.94 L 606.75 909.95 L 608.22 909.95 L 609.69 909.90 L 611.17 909.92 L 612.64 909.94 L 614.11 909.92 L 615.58 909.91 L 617.06 909.90 L 618.53 909.95 L 620.00 909.93 L 621.47 909.94 L 622.94 909.75 L 624.42 909.56 L 625.89 908.85 L 627.36 909.08 L 628.83 909.86 L 630.31 909.85 L 631.78 909.83 L 633.25 909.95 L 634.72 909.89 L 636.19 904.57 L 637.67 896.69 L 639.14 901.66 L 640.61 902.90 L 642.08 899.02 L 643.56 902.94 L 645.03 903.97 L 646.50 895.68 L 647.97 888.15 L 649.44 878.51 L 650.92 887.71 L 652.39 894.44 L 653.86 891.32 L 655.33 889.62 L 656.81 882.42 L 658.28 881.47 L 659.75 879.23 L 661.22 879.41 L 662.69 896.22 L 664.17 905.51 L 665.64 901.99 L 667.11 894.67 L 668.58 888.69 L 670.06 886.23 L 671.53 884.20 L 673.00 869.07 L 674.47 870.68 L 675.94 878.34 L 677.42 890.92 L 678.89 892.92 L 680.36 875.09 L 681.83 882.51 L 683.31 886.41 L 684.78 887.81 L 686.25 895.74 L 687.72 898.67 L 689.19 907.27 L 690.67 901.32 L 692.14 902.94 L 693.61 902.40 L 695.08 901.51 L 696.56 899.95 L 698.03 905.81 L 699.50 905.94 L 700.97 897.90 L 702.44 907.11 L 703.92 903.31 L 705.39 898.30 L 706.86 905.60 L 708.33 901.01 L 709.81 894.86 L 711.28 900.91 L 712.75 903.90 L 714.22 901.49 L 715.69 904.62 L 717.17 901.19 L 718.64 901.51 L 720.11 899.78 L 721.58 904.78 L 723.06 894.32 L 724.53 906.34 L 726.00 899.63 L 727.47 900.20 L 728.94 895.75 L 730.42 898.51 L 731.89 899.32 L 733.36 904.82 L 734.83 896.57 L 736.31 901.70 L 737.78 901.43 L 739.25 902.23 L 740.72 896.19 L 742.19 896.66 L 743.67 901.43 L 745.14 899.85 L 746.61 902.96 L 748.08 902.84 L 749.56 903.72 L 751.03 900.92 L 752.50 904.27 L 753.97 889.90 L 755.44 899.24 L 756.92 905.32 L 758.39 892.80 L 759.86 903.96 L 761.33 900.40 L 762.81 903.29 L 764.28 894.56 L 765.75 896.03 L 767.22 904.30 L 768.69 908.24 L 770.17 908.24 L 771.64 903.70 L 773.11 904.15 L 774.58 898.26 L 776.06 892.19 L 777.53 893.84 L 779.00 889.66 L 780.47 889.48 L 781.94 890.93 L 783.42 881.36 L 784.89 880.43 L 786.36 891.24 L 787.83 903.07 L 789.31 906.93 L 790.78 908.05 L 792.25 902.45 L 793.72 907.42 L 795.19 903.83 L 796.67 897.49 L 798.14 888.72 L 799.61 886.57 L 801.08 882.91 L 802.56 878.21 L 804.03 877.33 L 805.50 879.55 L 806.97 881.61 L 808.44 884.14 L 809.92 887.75 L 811.39 893.94 L 812.86 896.34 L 814.33 895.04 L 815.81 895.01 L 817.28 899.97 L 818.75 898.06 L 820.22 901.04 L 821.69 898.83 L 823.17 893.06 L 824.64 897.94 L 826.11 883.33 L 827.58 894.61 L 829.06 894.99 L 830.53 895.13 L 832.00 896.63 L 833.47 898.61 L 834.94 902.04 L 836.42 905.59 L 837.89 906.56 L 839.36 906.55 L 840.83 906.77 L 842.31 906.43 L 843.78 905.83 L 845.25 905.78 L 846.72 906.34 L 848.19 905.19 L 849.67 904.49 L 851.14 905.05 L 852.61 905.94 L 854.08 907.85 L 855.56 908.56 L 857.03 908.57 L 858.50 908.37 L 859.97 907.27 L 861.44 907.02 L 862.92 908.08 L 864.39 898.11 L 865.86 902.31 L 867.33 905.89 L 868.81 909.56 L 870.28 903.53 L 871.75 904.58 L 873.22 902.73 L 874.69 904.12 L 876.17 903.92 L 877.64 901.82 L 879.11 898.77 L 880.58 898.69 L 882.06 900.36 L 883.53 901.13 L 885.00 900.27 L 886.47 902.12 L 887.94 901.19 L 889.42 901.48 L 890.89 904.04 L 892.36 904.90 L 893.83 905.07 L 895.31 906.25 L 896.78 905.12 L 898.25 905.90 L 899.72 905.86 L 901.19 905.34" stroke="#E53935" />
<text x="620.00" y="952" font-size="15" text-anchor="middle">minutos (relativo ao início do evento)</text>
<text class="small" x="90.00" y="936" text-anchor="middle">-4.00</text>
<text class="small" x="266.67" y="936" text-anchor="middle">-2.00</text>
<text class="small" x="443.33" y="936" text-anchor="middle">0.00</text>
<text class="small" x="620.00" y="936" text-anchor="middle">2.00</text>
<text class="small" x="796.67" y="936" text-anchor="middle">4.00</text>
<text class="small" x="973.33" y="936" text-anchor="middle">6.00</text>
<text class="small" x="1150.00" y="936" text-anchor="middle">8.00</text>
</svg>