<?xml version="1.0" encoding="UTF-8"?>
<svg xmlns="http://www.w3.org/2000/svg" width="1180" height="980" viewBox="0 0 1180 980">
<style>
text { font-family: -apple-system, BlinkMacSystemFont, 'Segoe UI', Roboto, Helvetica, Arial, sans-serif; fill: #111; }
.small { font-size: 12px; fill: #222; }
.title { font-size: 18px; font-weight: 700; }
.axis { stroke: #111; stroke-width: 1.4; }
.grid { stroke: #E6E6E6; stroke-width: 1; }
.event { fill: #FFEB3B; fill-opacity: 0.18; }
.eventline { stroke: #F9A825; stroke-width: 1.2; stroke-dasharray: 4 3; }
.series { fill: none; stroke-width: 1.8; }
</style>
<text class="title" x="90" y="34">ciclo 22 — carregamento — 2025-12-13T07:45:11-03:00 → 2025-12-13T07:48:41-03:00 (span 210s, dur 211s)</text>
<text class="small" x="90" y="54">GPS: -11.698858,-47.157194  hotspot: -11.699,-47.157</text>
<text class="small" x="90" y="70">Janela: -3.00 → 6.50 min (relativo ao início do evento)</text>
<text x="90" y="79.00" font-size="14" font-weight="700">Velocidade (km/h)</text>
<rect class="event" x="443.33" y="85.00" width="309.17" height="192.75" />
<line class="eventline" x1="443.33" y1="85.00" x2="443.33" y2="277.75" />
<line class="eventline" x1="752.50" y1="85.00" x2="752.50" y2="277.75" />
<line class="grid" x1="90" y1="277.75" x2="1150" y2="277.75" />
<text class="small" x="80" y="281.75" text-anchor="end">0.00</text>
<line class="grid" x1="90" y1="239.20" x2="1150" y2="239.20" />
<text class="small" x="80" y="243.20" text-anchor="end">10.0</text>
<line class="grid" x1="90" y1="200.65" x2="1150" y2="200.65" />
<text class="small" x="80" y="204.65" text-anchor="end">20.0</text>
<line class="grid" x1="90" y1="162.10" x2="1150" y2="162.10" />
<text class="small" x="80" y="166.10" text-anchor="end">30.0</text>
<line class="grid" x1="90" y1="123.55" x2="1150" y2="123.55" />
<text class="small" x="80" y="127.55" text-anchor="end">40.0</text>
<line class="grid" x1="90" y1="85.00" x2="1150" y2="85.00" />
<text class="small" x="80" y="89.00" text-anchor="end">50.0</text>
<line class="grid" x1="90.00" y1="85.00" x2="90.00" y2="277.75" />
<line class="grid" x1="266.67" y1="85.00" x2="266.67" y2="277.75" />
<line class="grid" x1="443.33" y1="85.00" x2="443.33" y2="277.75" />
<line class="grid" x1="620.00" y1="85.00" x2="620.00" y2="277.75" />
<line class="grid" x1="796.67" y1="85.00" x2="796.67" y2="277.75" />
<line class="grid" x1="973.33" y1="85.00" x2="973.33" y2="277.75" />
<line class="grid" x1="1150.00" y1="85.00" x2="1150.00" y2="277.75" />
<line class="axis" x1="90" y1="85.00" x2="90" y2="277.75" />
<line class="axis" x1="90" y1="277.75" x2="1150" y2="277.75" />
<path class="series" d="M 178.33 203.36 L 179.81 195.18 L 181.28 191.01 L 182.75 182.82 L 184.22 178.11 L 185.69 170.20 L 187.17 171.03 L 188.64 167.84 L 190.11 164.51 L 191.58 161.59 L 193.06 160.90 L 194.53 160.62 L 196.00 158.54 L 197.47 151.74 L 198.94 149.52 L 200.42 146.60 L 201.89 145.22 L 203.36 143.13 L 204.83 146.74 L 206.31 150.63 L 207.78 150.07 L 209.25 150.21 L 210.72 153.96 L 212.19 156.87 L 213.67 158.40 L 215.14 159.23 L 216.61 158.95 L 218.08 155.90 L 219.56 156.87 L 221.03 154.10 L 222.50 149.10 L 223.97 146.05 L 225.44 148.27 L 226.92 148.68 L 228.39 152.85 L 229.86 154.65 L 231.33 157.29 L 232.81 162.15 L 234.28 164.37 L 235.75 158.95 L 237.22 160.06 L 238.69 153.68 L 240.17 157.71 L 241.64 157.43 L 243.11 145.91 L 244.58 151.32 L 246.06 154.37 L 247.53 158.12 L 249.00 162.70 L 250.47 166.31 L 251.94 171.86 L 253.42 174.50 L 254.89 174.78 L 256.36 176.02 L 257.83 179.91 L 259.31 178.66 L 260.78 181.44 L 262.25 181.99 L 263.72 182.55 L 265.19 184.63 L 266.67 184.77 L 268.14 187.54 L 269.61 190.73 L 271.08 196.56 L 272.56 201.28 L 274.03 201.84 L 275.50 198.51 L 276.97 197.12 L 278.44 202.67 L 279.92 205.17 L 281.39 202.95 L 282.86 194.48 L 284.33 184.77 L 285.81 183.80 L 287.28 180.05 L 288.75 184.35 L 290.22 184.49 L 291.69 180.60 L 293.17 187.54 L 294.64 182.41 L 296.11 179.91 L 297.58 184.07 L 299.06 184.49 L 300.53 181.30 L 302.00 179.08 L 303.47 175.89 L 304.94 172.97 L 306.42 175.61 L 307.89 177.69 L 309.36 181.71 L 310.83 185.74 L 312.31 186.16 L 313.78 188.51 L 315.25 188.93 L 316.72 184.91 L 318.19 192.82 L 319.67 196.01 L 321.14 203.50 L 322.61 202.95 L 324.08 198.51 L 325.56 192.82 L 327.03 199.76 L 328.50 195.87 L 329.97 195.31 L 331.44 193.37 L 332.92 193.79 L 334.39 187.82 L 335.86 186.29 L 337.33 173.94 L 338.81 169.64 L 340.28 163.26 L 341.75 166.17 L 343.22 167.70 L 344.69 166.31 L 346.17 168.11 L 347.64 172.55 L 349.11 172.00 L 350.58 172.69 L 352.06 171.72 L 353.53 173.25 L 355.00 168.25 L 356.47 164.37 L 357.94 162.70 L 359.42 164.64 L 360.89 165.62 L 362.36 164.78 L 363.83 166.45 L 365.31 169.36 L 366.78 175.75 L 368.25 177.41 L 369.72 183.10 L 371.19 186.43 L 372.67 187.68 L 374.14 186.99 L 375.61 185.60 L 377.08 190.32 L 378.56 193.51 L 380.03 201.84 L 381.50 206.97 L 382.97 211.55 L 384.44 205.03 L 385.92 238.48 L 387.39 235.70 L 388.86 229.59 L 390.33 221.82 L 391.81 214.19 L 393.28 216.41 L 394.75 233.06 L 396.22 226.12 L 397.69 235.01 L 399.17 237.50 L 400.64 242.50 L 402.11 221.27 L 403.58 237.64 L 405.06 243.47 L 406.53 255.68 L 408.00 255.55 L 409.47 256.10 L 410.94 269.42 L 412.42 277.75 L 413.89 277.75 L 415.36 277.75 L 416.83 269.15 L 418.31 263.04 L 419.78 265.54 L 421.25 262.21 L 422.72 258.04 L 424.19 260.96 L 425.67 260.82 L 427.14 264.70 L 428.61 262.90 L 430.08 258.88 L 431.56 263.04 L 433.03 257.35 L 434.50 259.85 L 435.97 258.18 L 437.44 261.37 L 438.92 261.24 L 440.39 266.23 L 441.86 265.95 L 443.33 277.75 L 444.81 277.75 L 446.28 277.75 L 447.75 277.75 L 449.22 277.75 L 450.69 277.75 L 452.17 277.75 L 453.64 277.75 L 455.11 277.75 L 456.58 277.75 L 458.06 277.75 L 459.53 277.75 L 461.00 277.75 L 462.47 277.75 L 463.94 277.75 L 465.42 277.75 L 466.89 277.75 L 468.36 277.75 L 469.83 277.75 L 471.31 277.75 L 472.78 277.75 L 474.25 277.75 L 475.72 277.75 L 477.19 277.75 L 478.67 277.75 L 480.14 277.75 L 481.61 277.75 L 483.08 277.75 L 484.56 277.75 L 486.03 277.75 L 487.50 277.75 L 488.97 277.75 L 490.44 277.75 L 491.92 277.75 L 493.39 277.75 L 494.86 277.75 L 496.33 277.75 L 497.81 277.75 L 499.28 277.75 L 500.75 277.75 L 502.22 277.75 L 503.69 277.75 L 505.17 277.75 L 506.64 277.75 L 508.11 277.75 L 509.58 277.75 L 511.06 277.75 L 512.53 277.75 L 514.00 277.75 L 515.47 277.75 L 516.94 277.75 L 518.42 277.75 L 519.89 277.75 L 521.36 277.75 L 522.83 277.75 L 524.31 277.75 L 525.78 277.75 L 527.25 277.75 L 528.72 277.75 L 530.19 277.75 L 531.67 277.75 L 533.14 277.75 L 534.61 277.75 L 536.08 277.75 L 537.56 277.75 L 539.03 277.75 L 540.50 277.75 L 541.97 277.75 L 543.44 277.75 L 544.92 277.75 L 546.39 277.75 L 547.86 277.75 L 549.33 277.75 L 550.81 277.75 L 552.28 277.75 L 553.75 277.75 L 555.22 277.75 L 556.69 277.75 L 558.17 277.75 L 559.64 277.75 L 561.11 277.75 L 562.58 277.75 L 564.06 277.75 L 565.53 277.75 L 567.00 277.75 L 568.47 277.75 L 569.94 277.75 L 571.42 277.75 L 572.89 277.75 L 574.36 277.75 L 575.83 277.75 L 577.31 277.75 L 578.78 277.75 L 580.25 277.75 L 581.72 277.75 L 583.19 277.75 L 584.67 277.75 L 586.14 277.75 L 587.61 277.75 L 589.08 277.75 L 590.56 277.75 L 592.03 277.75 L 593.50 277.75 L 594.97 277.75 L 596.44 277.75 L 597.92 277.75 L 599.39 277.75 L 600.86 277.75 L 602.33 277.75 L 603.81 277.75 L 605.28 277.75 L 606.75 277.75 L 608.22 277.75 L 609.69 277.75 L 611.17 277.75 L 612.64 277.75 L 614.11 277.75 L 615.58 277.75 L 617.06 277.75 L 618.53 277.75 L 620.00 277.75 L 621.47 277.75 L 622.94 277.75 L 624.42 277.75 L 625.89 277.75 L 627.36 277.75 L 628.83 277.75 L 630.31 277.75 L 631.78 277.75 L 633.25 277.75 L 634.72 277.75 L 636.19 277.75 L 637.67 277.75 L 639.14 277.75 L 640.61 277.75 L 642.08 277.75 L 643.56 277.75 L 645.03 277.75 L 646.50 277.75 L 647.97 277.75 L 649.44 277.75 L 650.92 277.75 L 652.39 277.75 L 653.86 277.75 L 655.33 277.75 L 656.81 277.75 L 658.28 277.75 L 659.75 277.75 L 661.22 277.75 L 662.69 277.75 L 664.17 277.75 L 665.64 277.75 L 667.11 277.75 L 668.58 277.75 L 670.06 277.75 L 671.53 277.75 L 673.00 277.75 L 674.47 277.75 L 675.94 277.75 L 677.42 277.75 L 678.89 277.75 L 680.36 277.75 L 681.83 277.75 L 683.31 277.75 L 684.78 277.75 L 686.25 277.75 L 687.72 277.75 L 689.19 277.75 L 690.67 277.75 L 692.14 277.75 L 693.61 277.75 L 695.08 277.75 L 696.56 277.75 L 698.03 277.75 L 699.50 277.75 L 700.97 277.75 L 702.44 277.75 L 703.92 277.75 L 705.39 277.75 L 706.86 277.75 L 708.33 277.75 L 709.81 277.75 L 711.28 277.75 L 712.75 277.75 L 714.22 277.75 L 715.69 277.75 L 717.17 277.75 L 718.64 277.75 L 720.11 277.75 L 721.58 277.75 L 723.06 277.75 L 724.53 277.75 L 726.00 277.75 L 727.47 277.75 L 728.94 277.75 L 730.42 277.75 L 731.89 277.75 L 733.36 277.75 L 734.83 277.75 L 736.31 277.75 L 737.78 277.75 L 739.25 277.75 L 740.72 277.75 L 742.19 277.75 L 743.67 277.75 L 745.14 277.75 L 746.61 277.75 L 748.08 277.75 L 749.56 277.75 L 751.03 277.75 L 752.50 277.75 L 753.97 264.70 L 755.44 266.09 L 756.92 263.18 L 758.39 263.18 L 759.86 260.26 L 761.33 254.30 L 762.81 258.32 L 764.28 256.79 L 765.75 251.66 L 767.22 247.50 L 768.69 243.61 L 770.17 250.27 L 771.64 251.52 L 773.11 249.99 L 774.58 248.61 L 776.06 247.77 L 777.53 247.22 L 779.00 252.63 L 780.47 251.52 L 781.94 249.99 L 783.42 250.55 L 784.89 251.24 L 786.36 249.86 L 787.83 247.50 L 789.31 245.97 L 790.78 242.92 L 792.25 248.19 L 793.72 247.08 L 795.19 240.83 L 796.67 242.08 L 798.14 240.70 L 799.61 246.94 L 801.08 246.66 L 802.56 248.19 L 804.03 246.52 L 805.50 245.28 L 806.97 239.59 L 808.44 238.89 L 809.92 238.34 L 811.39 235.70 L 812.86 230.56 L 814.33 228.90 L 815.81 228.76 L 817.28 227.79 L 818.75 227.10 L 820.22 227.93 L 821.69 231.81 L 823.17 231.12 L 824.64 229.45 L 826.11 226.12 L 827.58 221.68 L 829.06 223.63 L 830.53 225.43 L 832.00 228.62 L 833.47 227.65 L 834.94 227.93 L 836.42 220.85 L 837.89 221.27 L 839.36 218.49 L 840.83 215.44 L 842.31 206.28 L 843.78 209.89 L 845.25 209.05 L 846.72 208.36 L 848.19 204.20 L 849.67 203.50 L 851.14 205.31 L 852.61 200.87 L 854.08 205.17 L 855.56 209.19 L 857.03 215.72 L 858.50 212.38 L 859.97 212.52 L 861.44 213.08 L 862.92 207.53 L 864.39 206.56 L 865.86 207.67 L 867.33 204.75 L 868.81 213.08 L 870.28 212.11 L 871.75 215.44 L 873.22 216.13 L 874.69 214.33 L 876.17 218.77 L 877.64 221.68 L 879.11 217.52 L 880.58 216.83 L 882.06 218.77 L 883.53 216.96 L 885.00 215.58 L 886.47 217.10 L 887.94 221.13 L 889.42 221.82 L 890.89 223.76 L 892.36 219.46 L 893.83 218.63 L 895.31 217.38 L 896.78 223.21 L 898.25 235.28 L 899.72 245.28 L 901.19 253.60 L 902.67 257.49 L 904.14 257.49 L 905.61 259.01 L 907.08 254.99 L 908.56 253.88 L 910.03 251.10 L 911.50 248.74 L 912.97 246.94 L 914.44 238.75 L 915.92 232.65 L 917.39 224.60 L 918.86 223.07 L 920.33 226.40 L 921.81 225.43 L 923.28 225.01 L 924.75 224.74 L 926.22 223.07 L 927.69 218.49 L 929.17 217.38 L 930.64 215.85 L 932.11 219.32 L 933.58 221.68 L 935.06 226.26 L 936.53 230.29 L 938.00 230.15 L 939.47 230.01 L 940.94 228.90 L 942.42 229.32 L 943.89 230.15 L 945.36 231.12 L 946.83 230.98 L 948.31 231.26 L 949.78 231.54 L 951.25 235.28 L 952.72 233.76 L 954.19 232.79 L 955.67 232.37 L 957.14 234.45 L 958.61 235.42 L 960.08 237.23 L 961.56 239.86 L 963.03 242.36 L 964.50 245.83 L 965.97 247.22 L 967.44 251.24 L 968.92 253.60 L 970.39 252.63 L 971.86 252.21 L 973.33 252.77 L 974.81 254.85 L 976.28 256.66 L 977.75 258.18 L 979.22 257.90 L 980.69 256.52 L 982.17 255.68 L 983.64 254.57 L 985.11 253.88 L 986.58 253.74 L 988.06 254.02 L 989.53 253.60 L 991.00 253.46 L 992.47 253.60 L 993.94 253.74 L 995.42 253.05 L 996.89 254.71 L 998.36 252.63 L 999.83 252.21 L 1001.31 250.41 L 1002.78 249.58 L 1004.25 248.61 L 1005.72 247.77 L 1007.19 248.33 L 1008.67 248.05 L 1010.14 248.05 L 1011.61 248.74 L 1013.08 248.47 L 1014.56 246.66 L 1016.03 246.39 L 1017.50 245.83" stroke="#1976D2" />
<text x="90" y="289.75" font-size="14" font-weight="700">Inclinação (graus)</text>
<rect class="event" x="443.33" y="295.75" width="309.17" height="192.75" />
<line class="eventline" x1="443.33" y1="295.75" x2="443.33" y2="488.50" />
<line class="eventline" x1="752.50" y1="295.75" x2="752.50" y2="488.50" />
<line class="grid" x1="90" y1="488.50" x2="1150" y2="488.50" />
<text class="small" x="80" y="492.50" text-anchor="end">-10.0</text>
<line class="grid" x1="90" y1="449.95" x2="1150" y2="449.95" />
<text class="small" x="80" y="453.95" text-anchor="end">0.00</text>
<line class="grid" x1="90" y1="411.40" x2="1150" y2="411.40" />
<text class="small" x="80" y="415.40" text-anchor="end">10.0</text>
<line class="grid" x1="90" y1="372.85" x2="1150" y2="372.85" />
<text class="small" x="80" y="376.85" text-anchor="end">20.0</text>
<line class="grid" x1="90" y1="334.30" x2="1150" y2="334.30" />
<text class="small" x="80" y="338.30" text-anchor="end">30.0</text>
<line class="grid" x1="90" y1="295.75" x2="1150" y2="295.75" />
<text class="small" x="80" y="299.75" text-anchor="end">40.0</text>
<line class="grid" x1="90.00" y1="295.75" x2="90.00" y2="488.50" />
<line class="grid" x1="266.67" y1="295.75" x2="266.67" y2="488.50" />
<line class="grid" x1="443.33" y1="295.75" x2="443.33" y2="488.50" />
<line class="grid" x1="620.00" y1="295.75" x2="620.00" y2="488.50" />
<line class="grid" x1="796.67" y1="295.75" x2="796.67" y2="488.50" />
<line class="grid" x1="973.33" y1="295.75" x2="973.33" y2="488.50" />
<line class="grid" x1="1150.00" y1="295.75" x2="1150.00" y2="488.50" />
<line class="axis" x1="90" y1="295.75" x2="90" y2="488.50" />
<line class="axis" x1="90" y1="488.50" x2="1150" y2="488.50" />
<path class="series" d="M 178.33 425.43 L 179.81 422.74 L 181.28 416.58 L 182.75 413.60 L 184.22 415.59 L 185.69 416.66 L 187.17 403.60 L 188.64 410.81 L 190.11 407.84 L 191.58 407.52 L 193.06 395.83 L 194.53 399.23 L 196.00 406.35 L 197.47 404.65 L 198.94 403.97 L 200.42 395.60 L 201.89 397.13 L 203.36 396.44 L 204.83 391.44 L 206.31 394.33 L 207.78 398.11 L 209.25 397.72 L 210.72 397.72 L 212.19 398.15 L 213.67 398.82 L 215.14 402.86 L 216.61 405.29 L 218.08 405.96 L 219.56 406.35 L 221.03 411.41 L 222.50 406.26 L 223.97 405.13 L 225.44 404.84 L 226.92 400.46 L 228.39 396.54 L 229.86 398.13 L 231.33 397.85 L 232.81 399.50 L 234.28 403.31 L 235.75 405.12 L 237.22 408.38 L 238.69 408.32 L 240.17 413.17 L 241.64 409.61 L 243.11 404.88 L 244.58 408.30 L 246.06 404.40 L 247.53 401.31 L 249.00 403.50 L 250.47 401.53 L 251.94 400.60 L 253.42 408.68 L 254.89 401.58 L 256.36 403.45 L 257.83 407.07 L 259.31 406.94 L 260.78 402.97 L 262.25 398.49 L 263.72 399.17 L 265.19 402.77 L 266.67 397.77 L 268.14 397.40 L 269.61 392.52 L 271.08 391.19 L 272.56 390.46 L 274.03 393.30 L 275.50 393.33 L 276.97 379.02 L 278.44 374.64 L 279.92 380.60 L 281.39 389.95 L 282.86 393.10 L 284.33 384.20 L 285.81 381.29 L 287.28 374.93 L 288.75 368.92 L 290.22 378.05 L 291.69 379.23 L 293.17 384.57 L 294.64 381.64 L 296.11 381.37 L 297.58 385.37 L 299.06 391.61 L 300.53 389.90 L 302.00 388.64 L 303.47 388.93 L 304.94 386.58 L 306.42 382.92 L 307.89 385.43 L 309.36 390.44 L 310.83 401.86 L 312.31 401.52 L 313.78 397.96 L 315.25 393.19 L 316.72 388.56 L 318.19 403.59 L 319.67 377.54 L 321.14 383.99 L 322.61 376.86 L 324.08 370.72 L 325.56 382.64 L 327.03 407.60 L 328.50 410.24 L 329.97 399.56 L 331.44 417.61 L 332.92 418.72 L 334.39 413.91 L 335.86 419.32 L 337.33 420.86 L 338.81 414.18 L 340.28 400.51 L 341.75 398.34 L 343.22 406.28 L 344.69 407.81 L 346.17 403.32 L 347.64 410.26 L 349.11 410.59 L 350.58 406.05 L 352.06 407.37 L 353.53 406.51 L 355.00 406.38 L 356.47 402.64 L 357.94 404.66 L 359.42 400.93 L 360.89 394.81 L 362.36 398.85 L 363.83 392.11 L 365.31 393.23 L 366.78 405.35 L 368.25 392.79 L 369.72 400.74 L 371.19 403.01 L 372.67 409.73 L 374.14 407.11 L 375.61 397.32 L 377.08 396.01 L 378.56 393.09 L 380.03 402.82 L 381.50 409.84 L 382.97 400.90 L 384.44 353.75 L 385.92 415.98 L 387.39 418.87 L 388.86 421.37 L 390.33 415.43 L 391.81 390.26 L 393.28 386.26 L 394.75 384.84 L 396.22 384.55 L 397.69 386.55 L 399.17 408.54 L 400.64 411.09 L 402.11 399.98 L 403.58 397.69 L 405.06 413.38 L 406.53 416.36 L 408.00 414.76 L 409.47 397.47 L 410.94 397.47 L 412.42 404.70 L 413.89 416.17 L 415.36 400.24 L 416.83 417.76 L 418.31 414.08 L 419.78 429.80 L 421.25 416.95 L 422.72 421.09 L 424.19 429.30 L 425.67 422.78 L 427.14 430.87 L 428.61 414.66 L 430.08 406.84 L 431.56 407.96 L 433.03 408.31 L 434.50 397.42 L 435.97 406.71 L 437.44 396.53 L 438.92 401.19 L 440.39 395.70 L 441.86 405.77 L 443.33 402.50 L 444.81 402.99 L 446.28 402.29 L 447.75 407.58 L 449.22 405.37 L 450.69 405.61 L 452.17 400.14 L 453.64 399.11 L 455.11 399.05 L 456.58 400.33 L 458.06 399.58 L 459.53 401.14 L 461.00 398.75 L 462.47 399.12 L 463.94 399.21 L 465.42 399.48 L 466.89 399.55 L 468.36 399.39 L 469.83 399.44 L 471.31 399.38 L 472.78 399.41 L 474.25 399.32 L 475.72 399.40 L 477.19 399.45 L 478.67 399.40 L 480.14 399.41 L 481.61 399.38 L 483.08 399.46 L 484.56 399.39 L 486.03 399.40 L 487.50 399.36 L 488.97 399.41 L 490.44 399.36 L 491.92 399.39 L 493.39 399.39 L 494.86 399.34 L 496.33 399.33 L 497.81 399.32 L 499.28 399.35 L 500.75 399.34 L 502.22 398.23 L 503.69 401.13 L 505.17 399.44 L 506.64 400.24 L 508.11 399.49 L 509.58 399.73 L 511.06 399.61 L 512.53 399.68 L 514.00 399.62 L 515.47 399.68 L 516.94 399.64 L 518.42 399.68 L 519.89 399.66 L 521.36 399.67 L 522.83 399.65 L 524.31 399.64 L 525.78 399.64 L 527.25 399.69 L 528.72 399.67 L 530.19 399.61 L 531.67 399.64 L 533.14 399.66 L 534.61 399.64 L 536.08 399.67 L 537.56 399.64 L 539.03 399.70 L 540.50 399.62 L 541.97 399.64 L 543.44 399.60 L 544.92 399.64 L 546.39 399.63 L 547.86 399.59 L 549.33 399.60 L 550.81 399.63 L 552.28 399.59 L 553.75 399.63 L 555.22 399.97 L 556.69 401.75 L 558.17 399.02 L 559.64 400.73 L 561.11 401.27 L 562.58 401.12 L 564.06 400.64 L 565.53 400.75 L 567.00 400.85 L 568.47 400.71 L 569.94 400.79 L 571.42 400.76 L 572.89 400.77 L 574.36 400.79 L 575.83 400.74 L 577.31 400.77 L 578.78 400.79 L 580.25 400.83 L 581.72 400.79 L 583.19 400.79 L 584.67 400.80 L 586.14 400.80 L 587.61 400.83 L 589.08 400.79 L 590.56 400.79 L 592.03 400.92 L 593.50 400.88 L 594.97 400.87 L 596.44 400.91 L 597.92 400.90 L 599.39 400.92 L 600.86 400.88 L 602.33 400.91 L 603.81 400.94 L 605.28 400.91 L 606.75 400.87 L 608.22 400.87 L 609.69 400.89 L 611.17 400.90 L 612.64 400.91 L 614.11 400.87 L 615.58 400.90 L 617.06 400.77 L 618.53 399.48 L 620.00 400.90 L 621.47 401.19 L 622.94 400.00 L 624.42 400.28 L 625.89 400.03 L 627.36 400.08 L 628.83 400.24 L 630.31 400.10 L 631.78 400.18 L 633.25 400.23 L 634.72 400.14 L 636.19 400.21 L 637.67 400.17 L 639.14 400.22 L 640.61 400.12 L 642.08 400.16 L 643.56 400.17 L 645.03 400.17 L 646.50 400.18 L 647.97 400.12 L 649.44 400.15 L 650.92 400.18 L 652.39 400.17 L 653.86 400.13 L 655.33 400.14 L 656.81 400.17 L 658.28 400.08 L 659.75 400.18 L 661.22 399.85 L 662.69 400.38 L 664.17 399.84 L 665.64 400.59 L 667.11 399.64 L 668.58 399.47 L 670.06 399.41 L 671.53 399.56 L 673.00 399.29 L 674.47 399.47 L 675.94 399.56 L 677.42 399.49 L 678.89 399.45 L 680.36 399.47 L 681.83 399.47 L 683.31 399.46 L 684.78 399.42 L 686.25 399.38 L 687.72 399.40 L 689.19 399.45 L 690.67 399.44 L 692.14 399.44 L 693.61 399.44 L 695.08 399.44 L 696.56 399.45 L 698.03 399.41 L 699.50 399.41 L 700.97 399.44 L 702.44 399.43 L 703.92 399.42 L 705.39 399.41 L 706.86 399.44 L 708.33 399.44 L 709.81 399.44 L 711.28 399.37 L 712.75 399.41 L 714.22 399.41 L 715.69 399.42 L 717.17 399.42 L 718.64 399.42 L 720.11 399.42 L 721.58 399.36 L 723.06 399.39 L 724.53 399.32 L 726.00 399.37 L 727.47 399.39 L 728.94 399.31 L 730.42 399.39 L 731.89 399.33 L 733.36 399.61 L 734.83 399.64 L 736.31 401.26 L 737.78 399.35 L 739.25 400.47 L 740.72 400.23 L 742.19 400.28 L 743.67 400.27 L 745.14 400.48 L 746.61 400.42 L 748.08 400.37 L 749.56 410.45 L 751.03 406.23 L 752.50 401.27 L 753.97 409.84 L 755.44 403.24 L 756.92 395.40 L 758.39 407.95 L 759.86 393.62 L 761.33 412.72 L 762.81 398.41 L 764.28 396.78 L 765.75 407.36 L 767.22 410.37 L 768.69 406.02 L 770.17 409.42 L 771.64 411.56 L 773.11 415.34 L 774.58 417.12 L 776.06 419.63 L 777.53 403.89 L 779.00 402.26 L 780.47 391.20 L 781.94 404.56 L 783.42 405.62 L 784.89 401.79 L 786.36 397.87 L 787.83 408.50 L 789.31 399.91 L 790.78 405.27 L 792.25 404.29 L 793.72 401.34 L 795.19 394.92 L 796.67 394.64 L 798.14 397.04 L 799.61 402.09 L 801.08 406.98 L 802.56 406.02 L 804.03 407.08 L 805.50 412.56 L 806.97 411.48 L 808.44 415.27 L 809.92 416.57 L 811.39 414.17 L 812.86 411.07 L 814.33 402.91 L 815.81 414.15 L 817.28 399.95 L 818.75 397.58 L 820.22 408.30 L 821.69 412.43 L 823.17 414.53 L 824.64 406.30 L 826.11 404.18 L 827.58 407.81 L 829.06 408.02 L 830.53 407.88 L 832.00 410.05 L 833.47 415.13 L 834.94 414.88 L 836.42 419.90 L 837.89 417.63 L 839.36 415.84 L 840.83 416.47 L 842.31 409.67 L 843.78 408.55 L 845.25 412.04 L 846.72 410.38 L 848.19 413.15 L 849.67 412.45 L 851.14 410.78 L 852.61 400.12 L 854.08 400.07 L 855.56 401.25 L 857.03 397.67 L 858.50 400.77 L 859.97 406.87 L 861.44 411.44 L 862.92 404.45 L 864.39 401.77 L 865.86 404.23 L 867.33 400.23 L 868.81 403.42 L 870.28 412.25 L 871.75 406.79 L 873.22 402.47 L 874.69 404.80 L 876.17 406.81 L 877.64 406.68 L 879.11 399.43 L 880.58 398.31 L 882.06 397.12 L 883.53 398.22 L 885.00 396.36 L 886.47 397.21 L 887.94 402.18 L 889.42 400.71 L 890.89 411.02 L 892.36 412.26 L 893.83 416.46 L 895.31 425.16 L 896.78 425.98 L 898.25 424.07 L 899.72 427.17 L 901.19 436.57 L 902.67 436.20 L 904.14 434.33 L 905.61 441.51 L 907.08 432.97 L 908.56 433.07 L 910.03 420.14 L 911.50 418.27 L 912.97 418.89 L 914.44 413.70 L 915.92 414.77 L 917.39 416.79 L 918.86 412.42 L 920.33 417.23 L 921.81 416.36 L 923.28 412.10 L 924.75 412.80 L 926.22 418.44 L 927.69 415.11 L 929.17 415.31 L 930.64 414.02 L 932.11 419.38 L 933.58 418.58 L 935.06 417.16 L 936.53 420.21 L 938.00 423.16 L 939.47 423.45 L 940.94 424.02 L 942.42 424.20 L 943.89 423.96 L 945.36 423.25 L 946.83 424.24 L 948.31 424.57 L 949.78 423.97 L 951.25 424.40 L 952.72 424.27 L 954.19 424.87 L 955.67 425.75 L 957.14 425.86 L 958.61 426.50 L 960.08 428.48 L 961.56 427.56 L 963.03 427.57 L 964.50 427.91 L 965.97 426.66 L 967.44 426.91 L 968.92 431.88 L 970.39 435.37 L 971.86 438.07 L 973.33 441.26 L 974.81 434.48 L 976.28 436.64 L 977.75 442.69 L 979.22 440.73 L 980.69 442.47 L 982.17 440.40 L 983.64 440.93 L 985.11 438.95 L 986.58 437.28 L 988.06 437.47 L 989.53 436.07 L 991.00 436.26 L 992.47 436.78 L 993.94 435.44 L 995.42 433.49 L 996.89 437.62 L 998.36 436.04 L 999.83 435.91 L 1001.31 436.05 L 1002.78 436.14 L 1004.25 435.09 L 1005.72 436.01 L 1007.19 434.58 L 1008.67 434.44 L 1010.14 434.09 L 1011.61 434.66 L 1013.08 434.66 L 1014.56 432.32 L 1016.03 432.23 L 1017.50 429.27" stroke="#2E7D32" />
<path class="series" d="M 178.33 453.50 L 179.81 448.10 L 181.28 449.96 L 182.75 444.97 L 184.22 447.00 L 185.69 444.17 L 187.17 443.66 L 188.64 438.30 L 190.11 439.08 L 191.58 438.64 L 193.06 436.73 L 194.53 438.04 L 196.00 441.20 L 197.47 446.22 L 198.94 448.89 L 200.42 449.31 L 201.89 447.01 L 203.36 444.86 L 204.83 441.23 L 206.31 442.78 L 207.78 441.54 L 209.25 443.63 L 210.72 445.23 L 212.19 448.19 L 213.67 450.53 L 215.14 449.83 L 216.61 448.88 L 218.08 447.99 L 219.56 447.98 L 221.03 454.81 L 222.50 445.80 L 223.97 447.48 L 225.44 447.58 L 226.92 444.83 L 228.39 445.14 L 229.86 443.26 L 231.33 440.74 L 232.81 440.83 L 234.28 439.62 L 235.75 438.41 L 237.22 428.87 L 238.69 422.29 L 240.17 430.66 L 241.64 424.03 L 243.11 429.71 L 244.58 429.94 L 246.06 435.83 L 247.53 443.30 L 249.00 440.57 L 250.47 439.52 L 251.94 434.68 L 253.42 428.57 L 254.89 423.50 L 256.36 425.30 L 257.83 428.98 L 259.31 425.19 L 260.78 428.12 L 262.25 420.61 L 263.72 423.40 L 265.19 429.87 L 266.67 432.94 L 268.14 428.13 L 269.61 428.30 L 271.08 433.10 L 272.56 439.93 L 274.03 432.54 L 275.50 433.30 L 276.97 438.55 L 278.44 438.37 L 279.92 441.06 L 281.39 438.45 L 282.86 440.47 L 284.33 442.25 L 285.81 440.97 L 287.28 437.43 L 288.75 439.53 L 290.22 441.38 L 291.69 448.18 L 293.17 442.08 L 294.64 440.96 L 296.11 438.93 L 297.58 445.14 L 299.06 445.04 L 300.53 431.82 L 302.00 431.78 L 303.47 434.51 L 304.94 432.64 L 306.42 437.77 L 307.89 428.95 L 309.36 435.94 L 310.83 437.86 L 312.31 437.47 L 313.78 430.06 L 315.25 418.98 L 316.72 422.79 L 318.19 443.22 L 319.67 454.52 L 321.14 449.31 L 322.61 443.28 L 324.08 433.73 L 325.56 439.65 L 327.03 446.21 L 328.50 464.15 L 329.97 452.41 L 331.44 447.63 L 332.92 450.03 L 334.39 443.82 L 335.86 425.01 L 337.33 421.54 L 338.81 437.51 L 340.28 437.31 L 341.75 445.53 L 343.22 444.83 L 344.69 444.30 L 346.17 450.58 L 347.64 453.65 L 349.11 447.31 L 350.58 449.96 L 352.06 461.96 L 353.53 455.30 L 355.00 450.87 L 356.47 449.75 L 357.94 450.79 L 359.42 443.12 L 360.89 447.42 L 362.36 434.35 L 363.83 440.10 L 365.31 447.01 L 366.78 461.41 L 368.25 451.00 L 369.72 462.12 L 371.19 451.02 L 372.67 452.68 L 374.14 461.54 L 375.61 452.26 L 377.08 458.42 L 378.56 445.14 L 380.03 463.03 L 381.50 462.98 L 382.97 438.01 L 384.44 436.94 L 385.92 437.25 L 387.39 437.69 L 388.86 431.56 L 390.33 421.83 L 391.81 420.09 L 393.28 416.14 L 394.75 434.46 L 396.22 439.36 L 397.69 429.57 L 399.17 425.81 L 400.64 422.05 L 402.11 425.66 L 403.58 427.22 L 405.06 449.01 L 406.53 433.48 L 408.00 453.25 L 409.47 459.62 L 410.94 459.62 L 412.42 459.91 L 413.89 444.24 L 415.36 453.11 L 416.83 447.55 L 418.31 453.17 L 419.78 453.10 L 421.25 438.73 L 422.72 459.50 L 424.19 457.32 L 425.67 453.47 L 427.14 455.20 L 428.61 456.12 L 430.08 451.17 L 431.56 447.45 L 433.03 448.17 L 434.50 458.01 L 435.97 457.89 L 437.44 458.73 L 438.92 465.07 L 440.39 459.90 L 441.86 452.07 L 443.33 461.90 L 444.81 458.07 L 446.28 451.32 L 447.75 454.07 L 449.22 456.95 L 450.69 451.38 L 452.17 456.49 L 453.64 453.34 L 455.11 454.66 L 456.58 454.18 L 458.06 454.22 L 459.53 454.44 L 461.00 455.79 L 462.47 454.44 L 463.94 455.57 L 465.42 455.76 L 466.89 454.84 L 468.36 454.99 L 469.83 455.47 L 471.31 455.10 L 472.78 455.08 L 474.25 455.30 L 475.72 455.17 L 477.19 455.05 L 478.67 455.28 L 480.14 455.18 L 481.61 455.16 L 483.08 455.15 L 484.56 455.20 L 486.03 455.19 L 487.50 455.17 L 488.97 455.17 L 490.44 455.17 L 491.92 455.20 L 493.39 455.20 L 494.86 455.12 L 496.33 455.19 L 497.81 455.23 L 499.28 455.17 L 500.75 455.06 L 502.22 456.28 L 503.69 454.51 L 505.17 454.24 L 506.64 454.08 L 508.11 454.57 L 509.58 455.03 L 511.06 454.78 L 512.53 454.38 L 514.00 454.38 L 515.47 454.57 L 516.94 454.69 L 518.42 454.67 L 519.89 454.43 L 521.36 454.59 L 522.83 454.58 L 524.31 454.60 L 525.78 454.55 L 527.25 454.51 L 528.72 454.65 L 530.19 454.57 L 531.67 454.52 L 533.14 454.55 L 534.61 454.56 L 536.08 454.60 L 537.56 454.49 L 539.03 454.57 L 540.50 454.57 L 541.97 454.53 L 543.44 454.46 L 544.92 454.48 L 546.39 454.48 L 547.86 454.46 L 549.33 454.46 L 550.81 454.46 L 552.28 454.48 L 553.75 454.53 L 555.22 453.47 L 556.69 456.17 L 558.17 455.34 L 559.64 454.31 L 561.11 454.96 L 562.58 454.94 L 564.06 454.34 L 565.53 454.55 L 567.00 454.60 L 568.47 454.54 L 569.94 454.69 L 571.42 454.78 L 572.89 454.70 L 574.36 454.63 L 575.83 454.59 L 577.31 454.69 L 578.78 454.71 L 580.25 454.61 L 581.72 454.73 L 583.19 454.76 L 584.67 454.73 L 586.14 454.65 L 587.61 454.71 L 589.08 454.73 L 590.56 454.70 L 592.03 454.67 L 593.50 454.66 L 594.97 454.77 L 596.44 454.77 L 597.92 454.70 L 599.39 454.73 L 600.86 454.71 L 602.33 454.80 L 603.81 454.66 L 605.28 454.77 L 606.75 454.83 L 608.22 454.77 L 609.69 454.78 L 611.17 454.71 L 612.64 454.82 L 614.11 454.80 L 615.58 454.80 L 617.06 454.83 L 618.53 454.24 L 620.00 455.10 L 621.47 454.64 L 622.94 454.74 L 624.42 455.41 L 625.89 454.62 L 627.36 454.88 L 628.83 454.98 L 630.31 454.78 L 631.78 454.85 L 633.25 455.00 L 634.72 454.83 L 636.19 454.85 L 637.67 454.93 L 639.14 454.93 L 640.61 454.82 L 642.08 454.83 L 643.56 454.94 L 645.03 454.89 L 646.50 454.85 L 647.97 454.87 L 649.44 454.91 L 650.92 454.88 L 652.39 454.88 L 653.86 454.85 L 655.33 454.88 L 656.81 454.93 L 658.28 454.83 L 659.75 454.86 L 661.22 454.72 L 662.69 454.96 L 664.17 455.05 L 665.64 455.01 L 667.11 454.47 L 668.58 454.96 L 670.06 454.04 L 671.53 454.93 L 673.00 453.57 L 674.47 454.37 L 675.94 454.39 L 677.42 454.18 L 678.89 454.37 L 680.36 454.32 L 681.83 454.31 L 683.31 454.31 L 684.78 454.36 L 686.25 454.37 L 687.72 454.39 L 689.19 454.37 L 690.67 454.35 L 692.14 454.42 L 693.61 454.41 L 695.08 454.39 L 696.56 454.37 L 698.03 454.43 L 699.50 454.46 L 700.97 454.43 L 702.44 454.40 L 703.92 454.45 L 705.39 454.47 L 706.86 454.45 L 708.33 454.43 L 709.81 454.47 L 711.28 454.43 L 712.75 454.44 L 714.22 454.39 L 715.69 454.45 L 717.17 454.47 L 718.64 454.47 L 720.11 454.39 L 721.58 454.41 L 723.06 454.42 L 724.53 454.40 L 726.00 454.44 L 727.47 454.42 L 728.94 454.39 L 730.42 454.46 L 731.89 454.49 L 733.36 454.59 L 734.83 454.99 L 736.31 454.18 L 737.78 453.27 L 739.25 454.88 L 740.72 453.82 L 742.19 454.33 L 743.67 453.90 L 745.14 454.23 L 746.61 453.98 L 748.08 454.13 L 749.56 453.86 L 751.03 457.67 L 752.50 456.78 L 753.97 451.52 L 755.44 462.87 L 756.92 442.68 L 758.39 460.47 L 759.86 460.69 L 761.33 430.87 L 762.81 448.54 L 764.28 461.75 L 765.75 452.11 L 767.22 443.98 L 768.69 452.34 L 770.17 464.47 L 771.64 461.08 L 773.11 459.68 L 774.58 457.38 L 776.06 460.51 L 777.53 463.35 L 779.00 461.48 L 780.47 462.79 L 781.94 461.58 L 783.42 458.27 L 784.89 457.04 L 786.36 456.74 L 787.83 462.26 L 789.31 461.16 L 790.78 462.50 L 792.25 451.71 L 793.72 443.61 L 795.19 441.79 L 796.67 440.63 L 798.14 450.15 L 799.61 448.27 L 801.08 452.94 L 802.56 449.48 L 804.03 453.97 L 805.50 449.83 L 806.97 452.78 L 808.44 445.06 L 809.92 446.79 L 811.39 448.08 L 812.86 446.88 L 814.33 444.79 L 815.81 446.70 L 817.28 455.94 L 818.75 449.44 L 820.22 446.57 L 821.69 442.24 L 823.17 440.10 L 824.64 449.00 L 826.11 450.02 L 827.58 444.82 L 829.06 455.68 L 830.53 451.96 L 832.00 436.52 L 833.47 459.32 L 834.94 438.17 L 836.42 448.79 L 837.89 450.39 L 839.36 454.07 L 840.83 454.94 L 842.31 456.54 L 843.78 454.68 L 845.25 458.96 L 846.72 458.05 L 848.19 451.70 L 849.67 449.00 L 851.14 439.61 L 852.61 437.85 L 854.08 447.96 L 855.56 448.26 L 857.03 462.99 L 858.50 467.79 L 859.97 460.91 L 861.44 460.11 L 862.92 465.21 L 864.39 462.27 L 865.86 450.71 L 867.33 462.43 L 868.81 461.20 L 870.28 449.11 L 871.75 462.08 L 873.22 455.40 L 874.69 456.98 L 876.17 452.52 L 877.64 442.15 L 879.11 444.04 L 880.58 450.60 L 882.06 447.86 L 883.53 451.38 L 885.00 448.83 L 886.47 459.19 L 887.94 453.02 L 889.42 454.45 L 890.89 463.88 L 892.36 455.12 L 893.83 451.04 L 895.31 457.02 L 896.78 467.96 L 898.25 459.95 L 899.72 462.32 L 901.19 460.74 L 902.67 460.26 L 904.14 462.45 L 905.61 463.55 L 907.08 460.46 L 908.56 456.56 L 910.03 457.90 L 911.50 455.30 L 912.97 464.29 L 914.44 461.95 L 915.92 468.63 L 917.39 471.87 L 918.86 470.72 L 920.33 478.42 L 921.81 455.24 L 923.28 466.53 L 924.75 459.77 L 926.22 458.43 L 927.69 462.76 L 929.17 467.89 L 930.64 462.96 L 932.11 471.74 L 933.58 462.37 L 935.06 457.84 L 936.53 459.03 L 938.00 453.33 L 939.47 452.39 L 940.94 453.83 L 942.42 455.56 L 943.89 454.72 L 945.36 455.46 L 946.83 451.89 L 948.31 455.62 L 949.78 452.18 L 951.25 451.79 L 952.72 454.62 L 954.19 451.57 L 955.67 448.07 L 957.14 448.54 L 958.61 447.49 L 960.08 447.06 L 961.56 448.93 L 963.03 450.27 L 964.50 448.48 L 965.97 444.48 L 967.44 446.94 L 968.92 445.55 L 970.39 449.46 L 971.86 444.91 L 973.33 453.48 L 974.81 449.53 L 976.28 449.95 L 977.75 450.65 L 979.22 450.41 L 980.69 453.57 L 982.17 456.11 L 983.64 456.48 L 985.11 453.97 L 986.58 454.53 L 988.06 455.40 L 989.53 453.67 L 991.00 450.16 L 992.47 452.57 L 993.94 449.17 L 995.42 445.16 L 996.89 449.78 L 998.36 452.47 L 999.83 450.66 L 1001.31 453.20 L 1002.78 452.47 L 1004.25 456.59 L 1005.72 460.15 L 1007.19 459.60 L 1008.67 457.71 L 1010.14 462.17 L 1011.61 458.11 L 1013.08 458.11 L 1014.56 457.77 L 1016.03 457.02 L 1017.50 457.84" stroke="#6A1B9A" />
<line x1="900.00" y1="307.75" x2="918.00" y2="307.75" stroke="#2E7D32" stroke-width="3" />
<text class="small" x="924.00" y="311.75">pitch</text>
<line x1="900.00" y1="323.75" x2="918.00" y2="323.75" stroke="#6A1B9A" stroke-width="3" />
<text class="small" x="924.00" y="327.75">roll</text>
<text x="90" y="500.50" font-size="14" font-weight="700">Aceleração (magnitude) (u.a.)</text>
<rect class="event" x="443.33" y="506.50" width="309.17" height="192.75" />
<line class="eventline" x1="443.33" y1="506.50" x2="443.33" y2="699.25" />
<line class="eventline" x1="752.50" y1="506.50" x2="752.50" y2="699.25" />
<line class="grid" x1="90" y1="699.25" x2="1150" y2="699.25" />
<text class="small" x="80" y="703.25" text-anchor="end">0.00</text>
<line class="grid" x1="90" y1="660.70" x2="1150" y2="660.70" />
<text class="small" x="80" y="664.70" text-anchor="end">0.50</text>
<line class="grid" x1="90" y1="622.15" x2="1150" y2="622.15" />
<text class="small" x="80" y="626.15" text-anchor="end">1.00</text>
<line class="grid" x1="90" y1="583.60" x2="1150" y2="583.60" />
<text class="small" x="80" y="587.60" text-anchor="end">1.50</text>
<line class="grid" x1="90" y1="545.05" x2="1150" y2="545.05" />
<text class="small" x="80" y="549.05" text-anchor="end">2.00</text>
<line class="grid" x1="90" y1="506.50" x2="1150" y2="506.50" />
<text class="small" x="80" y="510.50" text-anchor="end">2.50</text>
<line class="grid" x1="90.00" y1="506.50" x2="90.00" y2="699.25" />
<line class="grid" x1="266.67" y1="506.50" x2="266.67" y2="699.25" />
<line class="grid" x1="443.33" y1="506.50" x2="443.33" y2="699.25" />
<line class="grid" x1="620.00" y1="506.50" x2="620.00" y2="699.25" />
<line class="grid" x1="796.67" y1="506.50" x2="796.67" y2="699.25" />
<line class="grid" x1="973.33" y1="506.50" x2="973.33" y2="699.25" />
<line class="grid" x1="1150.00" y1="506.50" x2="1150.00" y2="699.25" />
<line class="axis" x1="90" y1="506.50" x2="90" y2="699.25" />
<line class="axis" x1="90" y1="699.25" x2="1150" y2="699.25" />
<path class="series" d="M 178.33 679.72 L 179.81 678.20 L 181.28 682.81 L 182.75 686.87 L 184.22 693.91 L 185.69 666.45 L 187.17 675.69 L 188.64 686.79 L 190.11 685.70 L 191.58 683.68 L 193.06 683.41 L 194.53 683.31 L 196.00 678.65 L 197.47 687.82 L 198.94 683.05 L 200.42 682.34 L 201.89 684.69 L 203.36 676.15 L 204.83 670.65 L 206.31 692.41 L 207.78 690.30 L 209.25 692.64 L 210.72 691.58 L 212.19 695.21 L 213.67 694.41 L 215.14 683.64 L 216.61 688.78 L 218.08 690.54 L 219.56 684.67 L 221.03 686.86 L 222.50 689.27 L 223.97 685.97 L 225.44 679.95 L 226.92 676.54 L 228.39 681.47 L 229.86 686.87 L 231.33 687.10 L 232.81 688.85 L 234.28 671.59 L 235.75 670.26 L 237.22 655.36 L 238.69 677.32 L 240.17 668.62 L 241.64 668.62 L 243.11 668.12 L 244.58 678.39 L 246.06 675.11 L 247.53 655.37 L 249.00 660.58 L 250.47 675.07 L 251.94 671.58 L 253.42 679.86 L 254.89 676.21 L 256.36 682.12 L 257.83 688.00 L 259.31 689.25 L 260.78 687.54 L 262.25 673.60 L 263.72 676.03 L 265.19 685.42 L 266.67 680.69 L 268.14 666.41 L 269.61 675.22 L 271.08 664.07 L 272.56 677.93 L 274.03 658.73 L 275.50 663.85 L 276.97 679.43 L 278.44 676.47 L 279.92 677.80 L 281.39 666.76 L 282.86 655.57 L 284.33 683.85 L 285.81 695.84 L 287.28 689.90 L 288.75 657.09 L 290.22 683.49 L 291.69 693.54 L 293.17 686.63 L 294.64 687.49 L 296.11 679.15 L 297.58 683.85 L 299.06 678.78 L 300.53 674.01 L 302.00 677.52 L 303.47 691.84 L 304.94 678.06 L 306.42 673.04 L 307.89 661.39 L 309.36 679.77 L 310.83 662.88 L 312.31 683.95 L 313.78 680.01 L 315.25 643.87 L 316.72 646.91 L 318.19 674.04 L 319.67 650.00 L 321.14 682.82 L 322.61 658.36 L 324.08 651.53 L 325.56 621.59 L 327.03 630.74 L 328.50 647.62 L 329.97 637.03 L 331.44 664.48 L 332.92 662.07 L 334.39 687.29 L 335.86 669.84 L 337.33 666.25 L 338.81 649.99 L 340.28 655.77 L 341.75 677.61 L 343.22 634.94 L 344.69 667.53 L 346.17 655.45 L 347.64 668.04 L 349.11 670.51 L 350.58 679.82 L 352.06 667.22 L 353.53 666.98 L 355.00 680.47 L 356.47 680.50 L 357.94 687.88 L 359.42 667.80 L 360.89 648.13 L 362.36 665.47 L 363.83 648.98 L 365.31 644.86 L 366.78 642.95 L 368.25 669.70 L 369.72 676.99 L 371.19 689.55 L 372.67 672.64 L 374.14 676.54 L 375.61 664.99 L 377.08 672.18 L 378.56 634.15 L 380.03 647.32 L 381.50 613.35 L 382.97 568.14 L 384.44 543.02 L 385.92 623.53 L 387.39 633.43 L 388.86 633.85 L 390.33 633.76 L 391.81 641.02 L 393.28 629.40 L 394.75 639.59 L 396.22 604.86 L 397.69 640.05 L 399.17 677.84 L 400.64 664.34 L 402.11 627.25 L 403.58 586.83 L 405.06 595.73 L 406.53 671.99 L 408.00 671.99 L 409.47 650.90 L 410.94 619.17 L 412.42 653.79 L 413.89 673.35 L 415.36 658.04 L 416.83 686.81 L 418.31 677.42 L 419.78 669.59 L 421.25 662.36 L 422.72 667.42 L 424.19 670.82 L 425.67 669.74 L 427.14 651.82 L 428.61 680.38 L 430.08 692.22 L 431.56 672.51 L 433.03 666.78 L 434.50 675.66 L 435.97 671.07 L 437.44 676.58 L 438.92 662.61 L 440.39 683.25 L 441.86 670.18 L 443.33 685.54 L 444.81 685.35 L 446.28 684.00 L 447.75 681.40 L 449.22 688.30 L 450.69 680.50 L 452.17 684.95 L 453.64 689.83 L 455.11 696.64 L 456.58 696.61 L 458.06 698.43 L 459.53 692.33 L 461.00 686.41 L 462.47 692.55 L 463.94 695.69 L 465.42 698.27 L 466.89 697.86 L 468.36 698.62 L 469.83 698.53 L 471.31 698.44 L 472.78 699.07 L 474.25 698.76 L 475.72 698.68 L 477.19 699.00 L 478.67 698.75 L 480.14 699.10 L 481.61 698.65 L 483.08 698.96 L 484.56 699.04 L 486.03 698.87 L 487.50 699.10 L 488.97 699.21 L 490.44 699.21 L 491.92 699.10 L 493.39 698.95 L 494.86 699.02 L 496.33 699.05 L 497.81 698.99 L 499.28 698.66 L 500.75 691.99 L 502.22 690.71 L 503.69 693.70 L 505.17 697.45 L 506.64 698.07 L 508.11 698.75 L 509.58 698.47 L 511.06 697.96 L 512.53 698.87 L 514.00 698.58 L 515.47 698.95 L 516.94 699.15 L 518.42 698.84 L 519.89 699.20 L 521.36 698.93 L 522.83 699.02 L 524.31 699.03 L 525.78 699.05 L 527.25 699.15 L 528.72 698.89 L 530.19 698.99 L 531.67 699.07 L 533.14 699.15 L 534.61 699.14 L 536.08 699.06 L 537.56 699.02 L 539.03 699.02 L 540.50 699.04 L 541.97 698.82 L 543.44 699.17 L 544.92 699.08 L 546.39 699.03 L 547.86 699.09 L 549.33 699.10 L 550.81 699.14 L 552.28 699.07 L 553.75 692.32 L 555.22 686.91 L 556.69 685.23 L 558.17 687.27 L 559.64 696.19 L 561.11 697.47 L 562.58 697.36 L 564.06 698.29 L 565.53 698.72 L 567.00 699.00 L 568.47 699.00 L 569.94 698.95 L 571.42 698.95 L 572.89 699.10 L 574.36 699.12 L 575.83 699.19 L 577.31 699.12 L 578.78 699.11 L 580.25 699.08 L 581.72 699.08 L 583.19 699.07 L 584.67 699.01 L 586.14 699.02 L 587.61 698.95 L 589.08 698.99 L 590.56 698.85 L 592.03 699.06 L 593.50 699.06 L 594.97 698.93 L 596.44 699.06 L 597.92 699.17 L 599.39 699.16 L 600.86 699.03 L 602.33 699.04 L 603.81 699.08 L 605.28 699.12 L 606.75 699.18 L 608.22 699.18 L 609.69 699.04 L 611.17 699.07 L 612.64 699.11 L 614.11 699.10 L 615.58 699.00 L 617.06 697.61 L 618.53 691.62 L 620.00 693.91 L 621.47 693.95 L 622.94 690.98 L 624.42 696.95 L 625.89 697.82 L 627.36 697.52 L 628.83 698.32 L 630.31 698.72 L 631.78 698.75 L 633.25 698.96 L 634.72 698.98 L 636.19 699.01 L 637.67 699.12 L 639.14 699.07 L 640.61 698.99 L 642.08 699.08 L 643.56 699.11 L 645.03 699.10 L 646.50 699.03 L 647.97 699.11 L 649.44 699.13 L 650.92 698.91 L 652.39 699.16 L 653.86 699.18 L 655.33 699.09 L 656.81 699.11 L 658.28 699.04 L 659.75 699.19 L 661.22 697.85 L 662.69 697.13 L 664.17 698.06 L 665.64 697.44 L 667.11 696.08 L 668.58 692.96 L 670.06 697.90 L 671.53 698.29 L 673.00 698.56 L 674.47 698.45 L 675.94 698.81 L 677.42 699.09 L 678.89 698.97 L 680.36 699.02 L 681.83 698.99 L 683.31 699.07 L 684.78 699.02 L 686.25 698.99 L 687.72 699.07 L 689.19 699.04 L 690.67 698.84 L 692.14 699.09 L 693.61 699.09 L 695.08 699.11 L 696.56 699.11 L 698.03 699.13 L 699.50 699.04 L 700.97 699.14 L 702.44 699.19 L 703.92 699.14 L 705.39 698.98 L 706.86 698.99 L 708.33 699.14 L 709.81 699.15 L 711.28 699.11 L 712.75 699.11 L 714.22 698.99 L 715.69 699.14 L 717.17 699.16 L 718.64 699.15 L 720.11 699.12 L 721.58 699.11 L 723.06 699.21 L 724.53 699.22 L 726.00 699.17 L 727.47 698.84 L 728.94 698.94 L 730.42 699.12 L 731.89 698.85 L 733.36 696.13 L 734.83 689.70 L 736.31 694.84 L 737.78 695.67 L 739.25 696.54 L 740.72 697.12 L 742.19 697.74 L 743.67 698.78 L 745.14 698.22 L 746.61 699.02 L 748.08 684.96 L 749.56 685.56 L 751.03 650.03 L 752.50 669.70 L 753.97 658.68 L 755.44 659.50 L 756.92 677.67 L 758.39 655.71 L 759.86 648.45 L 761.33 660.28 L 762.81 668.01 L 764.28 668.01 L 765.75 681.15 L 767.22 668.50 L 768.69 687.24 L 770.17 643.17 L 771.64 679.97 L 773.11 676.95 L 774.58 682.99 L 776.06 681.54 L 777.53 654.34 L 779.00 674.12 L 780.47 675.91 L 781.94 664.45 L 783.42 675.04 L 784.89 669.87 L 786.36 674.12 L 787.83 675.52 L 789.31 654.33 L 790.78 682.97 L 792.25 679.54 L 793.72 652.46 L 795.19 672.89 L 796.67 647.91 L 798.14 673.19 L 799.61 662.67 L 801.08 663.40 L 802.56 680.93 L 804.03 683.87 L 805.50 683.90 L 806.97 687.01 L 808.44 681.74 L 809.92 676.75 L 811.39 690.56 L 812.86 683.58 L 814.33 666.89 L 815.81 680.80 L 817.28 663.22 L 818.75 655.58 L 820.22 689.74 L 821.69 676.95 L 823.17 678.42 L 824.64 676.40 L 826.11 689.36 L 827.58 660.60 L 829.06 669.43 L 830.53 679.35 L 832.00 654.11 L 833.47 663.90 L 834.94 678.19 L 836.42 666.69 L 837.89 674.65 L 839.36 680.82 L 840.83 683.14 L 842.31 670.20 L 843.78 672.63 L 845.25 660.68 L 846.72 683.78 L 848.19 680.41 L 849.67 684.09 L 851.14 672.92 L 852.61 674.49 L 854.08 652.59 L 855.56 667.93 L 857.03 675.43 L 858.50 666.51 L 859.97 675.01 L 861.44 641.98 L 862.92 673.83 L 864.39 637.99 L 865.86 628.65 L 867.33 668.25 L 868.81 647.70 L 870.28 653.48 L 871.75 670.52 L 873.22 678.11 L 874.69 675.13 L 876.17 661.10 L 877.64 653.33 L 879.11 668.76 L 880.58 680.31 L 882.06 682.16 L 883.53 682.34 L 885.00 671.17 L 886.47 676.05 L 887.94 660.34 L 889.42 685.91 L 890.89 671.43 L 892.36 678.77 L 893.83 684.18 L 895.31 663.58 L 896.78 640.96 L 898.25 653.77 L 899.72 674.18 L 901.19 682.41 L 902.67 677.87 L 904.14 684.59 L 905.61 677.97 L 907.08 696.40 L 908.56 685.49 L 910.03 685.79 L 911.50 662.75 L 912.97 678.28 L 914.44 675.46 L 915.92 687.18 L 917.39 672.42 L 918.86 673.77 L 920.33 675.32 L 921.81 675.10 L 923.28 680.05 L 924.75 687.01 L 926.22 689.51 L 927.69 666.41 L 929.17 666.80 L 930.64 664.87 L 932.11 674.00 L 933.58 677.57 L 935.06 677.23 L 936.53 677.23 L 938.00 677.00 L 939.47 684.69 L 940.94 690.83 L 942.42 694.88 L 943.89 683.58 L 945.36 694.32 L 946.83 697.21 L 948.31 687.74 L 949.78 695.46 L 951.25 688.06 L 952.72 692.03 L 954.19 689.39 L 955.67 695.06 L 957.14 693.27 L 958.61 692.06 L 960.08 690.29 L 961.56 689.91 L 963.03 690.55 L 964.50 688.11 L 965.97 693.94 L 967.44 680.56 L 968.92 676.31 L 970.39 684.54 L 971.86 690.03 L 973.33 682.75 L 974.81 684.40 L 976.28 686.94 L 977.75 681.35 L 979.22 677.76 L 980.69 691.20 L 982.17 688.44 L 983.64 682.15 L 985.11 689.74 L 986.58 695.47 L 988.06 697.20 L 989.53 695.54 L 991.00 691.32 L 992.47 688.49 L 993.94 691.96 L 995.42 695.94 L 996.89 694.94 L 998.36 692.57 L 999.83 694.08 L 1001.31 696.86 L 1002.78 695.17 L 1004.25 688.58 L 1005.72 690.95 L 1007.19 695.85 L 1008.67 693.98 L 1010.14 691.25 L 1011.61 691.78 L 1013.08 695.05 L 1014.56 690.09 L 1016.03 691.30 L 1017.50 692.10" stroke="#FB8C00" />
<text x="90" y="711.25" font-size="14" font-weight="700">Giroscópio (magnitude) (u.a.)</text>
<rect class="event" x="443.33" y="717.25" width="309.17" height="192.75" />
<line class="eventline" x1="443.33" y1="717.25" x2="443.33" y2="910.00" />
<line class="eventline" x1="752.50" y1="717.25" x2="752.50" y2="910.00" />
<line class="grid" x1="90" y1="910.00" x2="1150" y2="910.00" />
<text class="small" x="80" y="914.00" text-anchor="end">0.00</text>
<line class="grid" x1="90" y1="871.45" x2="1150" y2="871.45" />
<text class="small" x="80" y="875.45" text-anchor="end">0.10</text>
<line class="grid" x1="90" y1="832.90" x2="1150" y2="832.90" />
<text class="small" x="80" y="836.90" text-anchor="end">0.20</text>
<line class="grid" x1="90" y1="794.35" x2="1150" y2="794.35" />
<text class="small" x="80" y="798.35" text-anchor="end">0.30</text>
<line class="grid" x1="90" y1="755.80" x2="1150" y2="755.80" />
<text class="small" x="80" y="759.80" text-anchor="end">0.40</text>
<line class="grid" x1="90" y1="717.25" x2="1150" y2="717.25" />
<text class="small" x="80" y="721.25" text-anchor="end">0.50</text>
<line class="grid" x1="90.00" y1="717.25" x2="90.00" y2="910.00" />
<line class="grid" x1="266.67" y1="717.25" x2="266.67" y2="910.00" />
<line class="grid" x1="443.33" y1="717.25" x2="443.33" y2="910.00" />
<line class="grid" x1="620.00" y1="717.25" x2="620.00" y2="910.00" />
<line class="grid" x1="796.67" y1="717.25" x2="796.67" y2="910.00" />
<line class="grid" x1="973.33" y1="717.25" x2="973.33" y2="910.00" />
<line class="grid" x1="1150.00" y1="717.25" x2="1150.00" y2="910.00" />
<line class="axis" x1="90" y1="717.25" x2="90" y2="910.00" />
<line class="axis" x1="90" y1="910.00" x2="1150" y2="910.00" />
<path class="series" d="M 178.33 890.50 L 179.81 898.19 L 181.28 901.08 L 182.75 906.83 L 184.22 907.78 L 185.69 903.07 L 187.17 906.40 L 188.64 905.56 L 190.11 906.47 L 191.58 897.36 L 193.06 905.55 L 194.53 904.34 L 196.00 902.25 L 197.47 901.37 L 198.94 900.74 L 200.42 904.37 L 201.89 902.40 L 203.36 905.00 L 204.83 907.60 L 206.31 908.45 L 207.78 906.66 L 209.25 905.98 L 210.72 906.24 L 212.19 906.21 L 213.67 907.30 L 215.14 906.88 L 216.61 908.42 L 218.08 908.37 L 219.56 905.43 L 221.03 898.24 L 222.50 903.51 L 223.97 903.44 L 225.44 906.39 L 226.92 901.02 L 228.39 900.64 L 229.86 901.58 L 231.33 902.48 L 232.81 902.10 L 234.28 897.42 L 235.75 889.43 L 237.22 880.76 L 238.69 874.93 L 240.17 871.07 L 241.64 871.07 L 243.11 871.72 L 244.58 870.80 L 246.06 881.85 L 247.53 891.76 L 249.00 902.60 L 250.47 900.68 L 251.94 896.03 L 253.42 896.72 L 254.89 896.77 L 256.36 890.45 L 257.83 893.14 L 259.31 891.44 L 260.78 888.16 L 262.25 885.65 L 263.72 870.58 L 265.19 875.21 L 266.67 873.50 L 268.14 890.72 L 269.61 896.41 L 271.08 898.42 L 272.56 890.12 L 274.03 898.28 L 275.50 893.31 L 276.97 897.98 L 278.44 897.71 L 279.92 902.78 L 281.39 905.59 L 282.86 904.75 L 284.33 904.12 L 285.81 904.79 L 287.28 899.75 L 288.75 897.09 L 290.22 891.49 L 291.69 888.99 L 293.17 901.01 L 294.64 901.60 L 296.11 892.66 L 297.58 891.91 L 299.06 895.76 L 300.53 884.72 L 302.00 884.24 L 303.47 886.91 L 304.94 889.68 L 306.42 897.47 L 307.89 894.22 L 309.36 897.26 L 310.83 900.97 L 312.31 898.72 L 313.78 882.44 L 315.25 868.46 L 316.72 874.24 L 318.19 877.32 L 319.67 872.21 L 321.14 882.74 L 322.61 876.42 L 324.08 880.50 L 325.56 862.32 L 327.03 895.15 L 328.50 896.39 L 329.97 887.56 L 331.44 880.25 L 332.92 875.36 L 334.39 883.01 L 335.86 895.19 L 337.33 889.06 L 338.81 885.86 L 340.28 879.91 L 341.75 897.91 L 343.22 882.70 L 344.69 899.68 L 346.17 893.16 L 347.64 904.36 L 349.11 900.32 L 350.58 893.40 L 352.06 888.53 L 353.53 889.74 L 355.00 896.44 L 356.47 897.38 L 357.94 889.01 L 359.42 902.32 L 360.89 889.58 L 362.36 890.97 L 363.83 883.35 L 365.31 891.38 L 366.78 895.62 L 368.25 886.73 L 369.72 893.10 L 371.19 898.66 L 372.67 898.46 L 374.14 896.94 L 375.61 904.17 L 377.08 902.30 L 378.56 889.12 L 380.03 895.75 L 381.50 882.26 L 382.97 869.89 L 384.44 893.64 L 385.92 893.71 L 387.39 900.61 L 388.86 898.51 L 390.33 874.40 L 391.81 865.14 L 393.28 834.55 L 394.75 834.21 L 396.22 838.05 L 397.69 828.37 L 399.17 830.17 L 400.64 816.60 L 402.11 792.67 L 403.58 812.78 L 405.06 838.38 L 406.53 847.04 L 408.00 847.04 L 409.47 848.24 L 410.94 876.60 L 412.42 905.21 L 413.89 907.13 L 415.36 900.84 L 416.83 896.05 L 418.31 897.35 L 419.78 904.90 L 421.25 902.67 L 422.72 895.98 L 424.19 898.59 L 425.67 902.34 L 427.14 901.88 L 428.61 897.69 L 430.08 902.34 L 431.56 895.88 L 433.03 888.66 L 434.50 889.75 L 435.97 877.29 L 437.44 885.78 L 438.92 884.67 L 440.39 902.07 L 441.86 905.47 L 443.33 900.59 L 444.81 901.32 L 446.28 908.38 L 447.75 906.72 L 449.22 907.65 L 450.69 907.32 L 452.17 905.76 L 453.64 908.92 L 455.11 908.90 L 456.58 909.59 L 458.06 909.72 L 459.53 909.41 L 461.00 908.91 L 462.47 909.48 L 463.94 909.81 L 465.42 909.64 L 466.89 909.79 L 468.36 909.61 L 469.83 909.71 L 471.31 909.76 L 472.78 909.70 L 474.25 909.71 L 475.72 909.87 L 477.19 909.76 L 478.67 909.74 L 480.14 909.71 L 481.61 909.75 L 483.08 909.69 L 484.56 909.61 L 486.03 909.82 L 487.50 909.91 L 488.97 909.94 L 490.44 909.98 L 491.92 909.97 L 493.39 909.92 L 494.86 909.90 L 496.33 909.97 L 497.81 909.97 L 499.28 909.96 L 500.75 908.47 L 502.22 909.14 L 503.69 909.26 L 505.17 909.65 L 506.64 909.63 L 508.11 909.87 L 509.58 909.89 L 511.06 909.95 L 512.53 909.88 L 514.00 909.91 L 515.47 909.92 L 516.94 909.88 L 518.42 909.85 L 519.89 909.96 L 521.36 909.99 L 522.83 909.97 L 524.31 909.90 L 525.78 909.95 L 527.25 909.92 L 528.72 909.94 L 530.19 909.94 L 531.67 909.98 L 533.14 909.94 L 534.61 909.93 L 536.08 909.94 L 537.56 909.93 L 539.03 909.92 L 540.50 909.88 L 541.97 909.95 L 543.44 909.98 L 544.92 909.98 L 546.39 909.96 L 547.86 909.91 L 549.33 909.92 L 550.81 909.93 L 552.28 909.92 L 553.75 909.55 L 555.22 908.38 L 556.69 908.80 L 558.17 909.13 L 559.64 909.38 L 561.11 909.35 L 562.58 909.66 L 564.06 909.90 L 565.53 909.89 L 567.00 909.97 L 568.47 909.87 L 569.94 909.93 L 571.42 909.91 L 572.89 909.96 L 574.36 909.97 L 575.83 909.91 L 577.31 909.91 L 578.78 909.90 L 580.25 909.95 L 581.72 909.89 L 583.19 909.94 L 584.67 909.90 L 586.14 909.91 L 587.61 909.89 L 589.08 909.90 L 590.56 909.89 L 592.03 909.94 L 593.50 909.94 L 594.97 909.93 L 596.44 909.92 L 597.92 909.91 L 599.39 909.92 L 600.86 909.97 L 602.33 909.94 L 603.81 909.93 L 605.28 909.88 L 606.75 909.90 L 608.22 909.91 L 609.69 909.95 L 611.17 909.93 L 612.64 909.91 L 614.11 909.92 L 615.58 909.90 L 617.06 909.55 L 618.53 909.60 L 620.00 908.22 L 621.47 908.39 L 622.94 909.58 L 624.42 909.83 L 625.89 909.84 L 627.36 909.84 L 628.83 909.85 L 630.31 909.86 L 631.78 909.82 L 633.25 909.89 L 634.72 909.91 L 636.19 909.92 L 637.67 909.91 L 639.14 909.95 L 640.61 909.91 L 642.08 909.92 L 643.56 909.93 L 645.03 909.92 L 646.50 909.94 L 647.97 909.94 L 649.44 909.94 L 650.92 909.96 L 652.39 909.94 L 653.86 909.91 L 655.33 909.89 L 656.81 909.90 L 658.28 909.92 L 659.75 909.87 L 661.22 909.62 L 662.69 909.84 L 664.17 909.63 L 665.64 909.86 L 667.11 908.99 L 668.58 909.29 L 670.06 909.85 L 671.53 909.54 L 673.00 909.05 L 674.47 909.94 L 675.94 909.88 L 677.42 909.93 L 678.89 909.97 L 680.36 909.95 L 681.83 909.95 L 683.31 909.89 L 684.78 909.97 L 686.25 909.92 L 687.72 909.93 L 689.19 909.91 L 690.67 909.94 L 692.14 909.94 L 693.61 909.91 L 695.08 909.95 L 696.56 909.92 L 698.03 909.94 L 699.50 909.91 L 700.97 909.86 L 702.44 909.95 L 703.92 909.94 L 705.39 909.98 L 706.86 909.90 L 708.33 909.96 L 709.81 909.94 L 711.28 909.94 L 712.75 909.93 L 714.22 909.94 L 715.69 909.91 L 717.17 909.91 L 718.64 909.92 L 720.11 909.94 L 721.58 909.97 L 723.06 909.87 L 724.53 909.87 L 726.00 909.92 L 727.47 909.96 L 728.94 909.87 L 730.42 909.86 L 731.89 909.81 L 733.36 908.76 L 734.83 909.51 L 736.31 909.63 L 737.78 909.61 L 739.25 909.88 L 740.72 909.87 L 742.19 909.79 L 743.67 909.83 L 745.14 909.95 L 746.61 909.86 L 748.08 905.29 L 749.56 907.00 L 751.03 908.16 L 752.50 904.94 L 753.97 903.82 L 755.44 904.25 L 756.92 890.97 L 758.39 890.66 L 759.86 886.27 L 761.33 878.05 L 762.81 881.33 L 764.28 881.33 L 765.75 881.56 L 767.22 879.18 L 768.69 886.73 L 770.17 900.32 L 771.64 903.34 L 773.11 905.74 L 774.58 900.55 L 776.06 901.32 L 777.53 893.31 L 779.00 894.64 L 780.47 893.71 L 781.94 893.73 L 783.42 882.53 L 784.89 892.35 L 786.36 891.17 L 787.83 890.51 L 789.31 891.01 L 790.78 893.89 L 792.25 896.21 L 793.72 888.75 L 795.19 906.46 L 796.67 899.74 L 798.14 895.74 L 799.61 893.78 L 801.08 895.70 L 802.56 898.03 L 804.03 898.54 L 805.50 900.75 L 806.97 898.18 L 808.44 895.71 L 809.92 898.34 L 811.39 901.67 L 812.86 891.04 L 814.33 894.41 L 815.81 887.18 L 817.28 894.47 L 818.75 897.32 L 820.22 894.38 L 821.69 905.05 L 823.17 902.40 L 824.64 896.14 L 826.11 899.78 L 827.58 894.73 L 829.06 905.60 L 830.53 894.36 L 832.00 907.38 L 833.47 906.00 L 834.94 902.89 L 836.42 899.64 L 837.89 893.20 L 839.36 899.36 L 840.83 901.67 L 842.31 899.97 L 843.78 898.33 L 845.25 896.29 L 846.72 897.81 L 848.19 900.52 L 849.67 899.92 L 851.14 884.99 L 852.61 891.52 L 854.08 896.52 L 855.56 897.23 L 857.03 895.34 L 858.50 904.72 L 859.97 900.72 L 861.44 900.20 L 862.92 894.48 L 864.39 893.45 L 865.86 898.80 L 867.33 891.32 L 868.81 888.22 L 870.28 899.94 L 871.75 895.96 L 873.22 902.45 L 874.69 901.75 L 876.17 902.41 L 877.64 891.81 L 879.11 884.05 L 880.58 890.56 L 882.06 889.27 L 883.53 889.07 L 885.00 895.36 L 886.47 899.08 L 887.94 900.77 L 889.42 898.02 L 890.89 902.53 L 892.36 887.97 L 893.83 885.93 L 895.31 873.19 L 896.78 902.05 L 898.25 906.89 L 899.72 900.84 L 901.19 903.35 L 902.67 906.88 L 904.14 904.30 L 905.61 896.52 L 907.08 889.04 L 908.56 886.73 L 910.03 880.12 L 911.50 882.28 L 912.97 872.56 L 914.44 873.40 L 915.92 871.85 L 917.39 883.32 L 918.86 886.68 L 920.33 882.44 L 921.81 901.23 L 923.28 895.39 L 924.75 893.67 L 926.22 893.77 L 927.69 883.32 L 929.17 894.91 L 930.64 890.89 L 932.11 894.47 L 933.58 896.22 L 935.06 897.10 L 936.53 897.10 L 938.00 902.05 L 939.47 906.61 L 940.94 907.80 L 942.42 907.90 L 943.89 904.03 L 945.36 897.65 L 946.83 898.73 L 948.31 905.45 L 949.78 907.37 L 951.25 904.63 L 952.72 906.16 L 954.19 905.23 L 955.67 902.81 L 957.14 904.07 L 958.61 904.29 L 960.08 905.06 L 961.56 907.62 L 963.03 908.92 L 964.50 905.47 L 965.97 906.08 L 967.44 904.52 L 968.92 905.25 L 970.39 903.30 L 971.86 898.33 L 973.33 898.34 L 974.81 900.06 L 976.28 904.23 L 977.75 902.75 L 979.22 904.14 L 980.69 901.86 L 982.17 901.18 L 983.64 897.19 L 985.11 895.72 L 986.58 896.33 L 988.06 895.08 L 989.53 898.64 L 991.00 900.59 L 992.47 904.80 L 993.94 904.66 L 995.42 907.14 L 996.89 904.59 L 998.36 904.32 L 999.83 904.14 L 1001.31 903.84 L 1002.78 903.70 L 1004.25 904.72 L 1005.72 907.05 L 1007.19 903.51 L 1008.67 904.16 L 1010.14 902.59 L 1011.61 902.21 L 1013.08 902.98 L 1014.56 902.99 L 1016.03 901.96 L 1017.50 904.57" stroke="#E53935" />
<text x="620.00" y="952" font-size="15" text-anchor="middle">minutos (relativo ao início do evento)</text>
<text class="small" x="90.00" y="936" text-anchor="middle">-4.00</text>
<text class="small" x="266.67" y="936" text-anchor="middle">-2.00</text>
<text class="small" x="443.33" y="936" text-anchor="middle">0.00</text>
<text class="small" x="620.00" y="936" text-anchor="middle">2.00</text>
<text class="small" x="796.67" y="936" text-anchor="middle">4.00</text>
<text class="small" x="973.33" y="936" text-anchor="middle">6.00</text>
<text class="small" x="1150.00" y="936" text-anchor="middle">8.00</text>
</svg>