<?xml version="1.0" encoding="UTF-8"?>
<svg xmlns="http://www.w3.org/2000/svg" width="1180" height="980" viewBox="0 0 1180 980">
<style>
text { font-family: -apple-system, BlinkMacSystemFont, 'Segoe UI', Roboto, Helvetica, Arial, sans-serif; fill: #111; }
.small { font-size: 12px; fill: #222; }
.title { font-size: 18px; font-weight: 700; }
.axis { stroke: #111; stroke-width: 1.4; }
.grid { stroke: #E6E6E6; stroke-width: 1; }
.event { fill: #FFEB3B; fill-opacity: 0.18; }
.eventline { stroke: #F9A825; stroke-width: 1.2; stroke-dasharray: 4 3; }
.series { fill: none; stroke-width: 1.8; }
</style>
<text class="title" x="90" y="34">ciclo 22 — espera_carregamento — 2025-12-13T08:06:29-03:00 → 2025-12-13T08:07:04-03:00 (span 35s, dur 36s)</text>
<text class="small" x="90" y="54">GPS: -11.699291,-47.157272  hotspot: -11.699,-47.157</text>
<text class="small" x="90" y="70">Janela: -3.00 → 3.58 min (relativo ao início do evento)</text>
<text x="90" y="79.00" font-size="14" font-weight="700">Velocidade (km/h)</text>
<rect class="event" x="443.33" y="85.00" width="51.53" height="192.75" />
<line class="eventline" x1="443.33" y1="85.00" x2="443.33" y2="277.75" />
<line class="eventline" x1="494.86" y1="85.00" x2="494.86" y2="277.75" />
<line class="grid" x1="90" y1="277.75" x2="1150" y2="277.75" />
<text class="small" x="80" y="281.75" text-anchor="end">0.00</text>
<line class="grid" x1="90" y1="239.20" x2="1150" y2="239.20" />
<text class="small" x="80" y="243.20" text-anchor="end">10.0</text>
<line class="grid" x1="90" y1="200.65" x2="1150" y2="200.65" />
<text class="small" x="80" y="204.65" text-anchor="end">20.0</text>
<line class="grid" x1="90" y1="162.10" x2="1150" y2="162.10" />
<text class="small" x="80" y="166.10" text-anchor="end">30.0</text>
<line class="grid" x1="90" y1="123.55" x2="1150" y2="123.55" />
<text class="small" x="80" y="127.55" text-anchor="end">40.0</text>
<line class="grid" x1="90" y1="85.00" x2="1150" y2="85.00" />
<text class="small" x="80" y="89.00" text-anchor="end">50.0</text>
<line class="grid" x1="90.00" y1="85.00" x2="90.00" y2="277.75" />
<line class="grid" x1="266.67" y1="85.00" x2="266.67" y2="277.75" />
<line class="grid" x1="443.33" y1="85.00" x2="443.33" y2="277.75" />
<line class="grid" x1="620.00" y1="85.00" x2="620.00" y2="277.75" />
<line class="grid" x1="796.67" y1="85.00" x2="796.67" y2="277.75" />
<line class="grid" x1="973.33" y1="85.00" x2="973.33" y2="277.75" />
<line class="grid" x1="1150.00" y1="85.00" x2="1150.00" y2="277.75" />
<line class="axis" x1="90" y1="85.00" x2="90" y2="277.75" />
<line class="axis" x1="90" y1="277.75" x2="1150" y2="277.75" />
<path class="series" d="M 178.33 187.68 L 179.81 181.99 L 181.28 179.49 L 182.75 175.61 L 184.22 175.05 L 185.69 174.36 L 187.17 173.94 L 188.64 176.02 L 190.11 175.33 L 191.58 174.50 L 193.06 169.64 L 194.53 169.92 L 196.00 169.22 L 197.47 168.81 L 198.94 167.42 L 200.42 163.67 L 201.89 163.12 L 203.36 162.84 L 204.83 166.73 L 206.31 172.69 L 207.78 175.33 L 209.25 182.41 L 210.72 192.96 L 212.19 195.59 L 213.67 196.98 L 215.14 196.70 L 216.61 197.12 L 218.08 194.76 L 219.56 196.42 L 221.03 199.76 L 222.50 199.62 L 223.97 196.56 L 225.44 194.20 L 226.92 192.68 L 228.39 190.46 L 229.86 186.99 L 231.33 182.82 L 232.81 184.91 L 234.28 179.49 L 235.75 176.30 L 237.22 180.60 L 238.69 169.78 L 240.17 182.41 L 241.64 180.33 L 243.11 179.08 L 244.58 179.49 L 246.06 179.77 L 247.53 182.41 L 249.00 180.05 L 250.47 175.89 L 251.94 169.36 L 253.42 167.28 L 254.89 165.75 L 256.36 167.14 L 257.83 172.69 L 259.31 167.00 L 260.78 170.33 L 262.25 175.33 L 263.72 180.19 L 265.19 185.04 L 266.67 187.68 L 268.14 189.49 L 269.61 195.31 L 271.08 196.84 L 272.56 198.78 L 274.03 199.62 L 275.50 197.54 L 276.97 198.23 L 278.44 198.92 L 279.92 197.12 L 281.39 199.48 L 282.86 202.39 L 284.33 209.05 L 285.81 219.18 L 287.28 230.29 L 288.75 230.43 L 290.22 225.15 L 291.69 226.12 L 293.17 230.84 L 294.64 227.37 L 296.11 225.01 L 297.58 220.85 L 299.06 220.30 L 300.53 220.02 L 302.00 222.24 L 303.47 215.44 L 304.94 215.02 L 306.42 210.44 L 307.89 205.86 L 309.36 204.47 L 310.83 214.19 L 312.31 211.69 L 313.78 207.67 L 315.25 203.23 L 316.72 198.78 L 318.19 195.18 L 319.67 194.90 L 321.14 196.15 L 322.61 197.12 L 324.08 190.32 L 325.56 184.63 L 327.03 181.44 L 328.50 178.38 L 329.97 174.50 L 331.44 180.05 L 332.92 184.35 L 334.39 196.84 L 335.86 200.03 L 337.33 196.42 L 338.81 189.07 L 340.28 196.01 L 341.75 204.06 L 343.22 205.45 L 344.69 199.48 L 346.17 189.90 L 347.64 180.47 L 349.11 167.56 L 350.58 167.14 L 352.06 175.75 L 353.53 180.19 L 355.00 181.30 L 356.47 182.96 L 357.94 181.71 L 359.42 177.13 L 360.89 183.52 L 362.36 183.52 L 363.83 182.55 L 365.31 185.46 L 366.78 185.46 L 368.25 195.45 L 369.72 192.96 L 371.19 185.32 L 372.67 182.27 L 374.14 179.35 L 375.61 178.94 L 377.08 182.13 L 378.56 182.55 L 380.03 186.57 L 381.50 182.27 L 382.97 180.74 L 384.44 180.33 L 385.92 181.58 L 387.39 185.18 L 388.86 186.02 L 390.33 192.26 L 391.81 201.00 L 393.28 205.31 L 394.75 213.08 L 396.22 217.52 L 397.69 215.85 L 399.17 215.44 L 400.64 220.71 L 402.11 223.76 L 403.58 227.51 L 405.06 230.01 L 406.53 228.34 L 408.00 229.32 L 409.47 227.79 L 410.94 232.09 L 412.42 235.14 L 413.89 239.03 L 415.36 240.42 L 416.83 243.61 L 418.31 247.77 L 419.78 254.16 L 421.25 262.48 L 422.72 265.12 L 424.19 265.26 L 425.67 265.95 L 427.14 265.95 L 428.61 265.40 L 430.08 262.90 L 431.56 263.04 L 433.03 264.43 L 434.50 265.40 L 435.97 267.62 L 437.44 268.45 L 438.92 268.17 L 440.39 268.87 L 441.86 270.95 L 443.33 277.75 L 444.81 277.75 L 446.28 277.75 L 447.75 277.75 L 449.22 277.75 L 450.69 277.75 L 452.17 277.75 L 453.64 277.75 L 455.11 277.75 L 456.58 277.75 L 458.06 277.75 L 459.53 277.75 L 461.00 277.75 L 462.47 277.75 L 463.94 277.75 L 465.42 277.75 L 466.89 277.75 L 468.36 277.75 L 469.83 277.75 L 471.31 277.75 L 472.78 277.75 L 474.25 277.75 L 475.72 277.75 L 477.19 277.75 L 478.67 277.75 L 480.14 277.75 L 481.61 277.75 L 483.08 277.75 L 484.56 277.75 L 486.03 277.75 L 487.50 277.75 L 488.97 277.75 L 490.44 277.75 L 491.92 277.75 L 493.39 277.75 L 494.86 277.75 L 496.33 270.39 L 497.81 261.51 L 499.28 265.81 L 500.75 264.70 L 502.22 262.76 L 503.69 259.43 L 505.17 260.96 L 506.64 257.63 L 508.11 266.23 L 509.58 266.37 L 511.06 268.59 L 512.53 267.48 L 514.00 267.76 L 515.47 268.45 L 516.94 268.31 L 518.42 268.59 L 519.89 277.75 L 521.36 277.75 L 522.83 277.75 L 524.31 269.84 L 525.78 267.90 L 527.25 266.23 L 528.72 268.04 L 530.19 267.76 L 531.67 266.65 L 533.14 265.95 L 534.61 256.93 L 536.08 254.43 L 537.56 262.07 L 539.03 250.13 L 540.50 256.10 L 541.97 259.85 L 543.44 265.81 L 544.92 268.45 L 546.39 268.31 L 547.86 266.37 L 549.33 269.98 L 550.81 277.75 L 552.28 277.75 L 553.75 277.75 L 555.22 277.75 L 556.69 277.75 L 558.17 277.75 L 559.64 277.75 L 561.11 277.75 L 562.58 277.75 L 564.06 267.76 L 565.53 277.75 L 567.00 270.26 L 568.47 269.98 L 569.94 269.70 L 571.42 269.56 L 572.89 269.70 L 574.36 270.26 L 575.83 269.01 L 577.31 269.98 L 578.78 269.84 L 580.25 269.84 L 581.72 270.53 L 583.19 270.67 L 584.67 268.04 L 586.14 269.42 L 587.61 271.64 L 589.08 270.12 L 590.56 268.45 L 592.03 268.73 L 593.50 270.12 L 594.97 277.75 L 596.44 277.75 L 597.92 277.75 L 599.39 277.75 L 600.86 277.75 L 602.33 277.75 L 603.81 277.75 L 605.28 277.75 L 606.75 277.75 L 608.22 277.75 L 609.69 277.75 L 611.17 277.75 L 612.64 277.75 L 614.11 273.03 L 615.58 269.15 L 617.06 274.28 L 618.53 269.84 L 620.00 269.42 L 621.47 277.75 L 622.94 277.75 L 624.42 277.75 L 625.89 277.75 L 627.36 277.75 L 628.83 277.75 L 630.31 277.75 L 631.78 277.75 L 633.25 277.75 L 634.72 277.75 L 636.19 277.75 L 637.67 277.75 L 639.14 277.75 L 640.61 277.75 L 642.08 277.75 L 643.56 277.75 L 645.03 277.75 L 646.50 277.75 L 647.97 277.75 L 649.44 277.75 L 650.92 277.75 L 652.39 277.75 L 653.86 277.75 L 655.33 277.75 L 656.81 277.75 L 658.28 277.75 L 659.75 277.75 L 661.22 277.75 L 662.69 277.75 L 664.17 277.75 L 665.64 277.75 L 667.11 277.75 L 668.58 277.75 L 670.06 277.75 L 671.53 277.75 L 673.00 277.75 L 674.47 277.75 L 675.94 277.75 L 677.42 277.75 L 678.89 277.75 L 680.36 277.75 L 681.83 277.75 L 683.31 277.75 L 684.78 277.75 L 686.25 277.75 L 687.72 277.75 L 689.19 277.75 L 690.67 277.75 L 692.14 277.75 L 693.61 277.75 L 695.08 277.75 L 696.56 277.75 L 698.03 277.75 L 699.50 277.75 L 700.97 277.75 L 702.44 277.75 L 703.92 277.75 L 705.39 277.75 L 706.86 277.75 L 708.33 277.75 L 709.81 277.75 L 711.28 277.75 L 712.75 277.75 L 714.22 277.75 L 715.69 277.75 L 717.17 277.75 L 718.64 277.75 L 720.11 277.75 L 721.58 277.75 L 723.06 277.75 L 724.53 277.75 L 726.00 277.75 L 727.47 277.75 L 728.94 277.75 L 730.42 277.75 L 731.89 277.75 L 733.36 277.75 L 734.83 277.75 L 736.31 277.75 L 737.78 277.75 L 739.25 277.75 L 740.72 277.75 L 742.19 277.75 L 743.67 277.75 L 745.14 277.75 L 746.61 277.75 L 748.08 277.75 L 749.56 277.75 L 751.03 277.75 L 752.50 277.75 L 753.97 277.75 L 755.44 277.75 L 756.92 277.75 L 758.39 277.75 L 759.86 277.75" stroke="#1976D2" />
<text x="90" y="289.75" font-size="14" font-weight="700">Inclinação (graus)</text>
<rect class="event" x="443.33" y="295.75" width="51.53" height="192.75" />
<line class="eventline" x1="443.33" y1="295.75" x2="443.33" y2="488.50" />
<line class="eventline" x1="494.86" y1="295.75" x2="494.86" y2="488.50" />
<line class="grid" x1="90" y1="488.50" x2="1150" y2="488.50" />
<text class="small" x="80" y="492.50" text-anchor="end">-10.0</text>
<line class="grid" x1="90" y1="449.95" x2="1150" y2="449.95" />
<text class="small" x="80" y="453.95" text-anchor="end">0.00</text>
<line class="grid" x1="90" y1="411.40" x2="1150" y2="411.40" />
<text class="small" x="80" y="415.40" text-anchor="end">10.0</text>
<line class="grid" x1="90" y1="372.85" x2="1150" y2="372.85" />
<text class="small" x="80" y="376.85" text-anchor="end">20.0</text>
<line class="grid" x1="90" y1="334.30" x2="1150" y2="334.30" />
<text class="small" x="80" y="338.30" text-anchor="end">30.0</text>
<line class="grid" x1="90" y1="295.75" x2="1150" y2="295.75" />
<text class="small" x="80" y="299.75" text-anchor="end">40.0</text>
<line class="grid" x1="90.00" y1="295.75" x2="90.00" y2="488.50" />
<line class="grid" x1="266.67" y1="295.75" x2="266.67" y2="488.50" />
<line class="grid" x1="443.33" y1="295.75" x2="443.33" y2="488.50" />
<line class="grid" x1="620.00" y1="295.75" x2="620.00" y2="488.50" />
<line class="grid" x1="796.67" y1="295.75" x2="796.67" y2="488.50" />
<line class="grid" x1="973.33" y1="295.75" x2="973.33" y2="488.50" />
<line class="grid" x1="1150.00" y1="295.75" x2="1150.00" y2="488.50" />
<line class="axis" x1="90" y1="295.75" x2="90" y2="488.50" />
<line class="axis" x1="90" y1="488.50" x2="1150" y2="488.50" />
<path class="series" d="M 178.33 413.98 L 179.81 410.19 L 181.28 410.97 L 182.75 409.24 L 184.22 405.20 L 185.69 404.13 L 187.17 399.55 L 188.64 398.22 L 190.11 404.18 L 191.58 403.26 L 193.06 398.32 L 194.53 397.54 L 196.00 396.07 L 197.47 395.35 L 198.94 401.20 L 200.42 397.99 L 201.89 398.62 L 203.36 396.94 L 204.83 385.36 L 206.31 399.18 L 207.78 390.74 L 209.25 384.17 L 210.72 393.32 L 212.19 400.76 L 213.67 399.53 L 215.14 403.20 L 216.61 407.16 L 218.08 400.63 L 219.56 400.32 L 221.03 402.35 L 222.50 405.63 L 223.97 411.43 L 225.44 402.46 L 226.92 408.63 L 228.39 411.26 L 229.86 413.11 L 231.33 408.61 L 232.81 409.72 L 234.28 405.86 L 235.75 401.10 L 237.22 403.96 L 238.69 403.92 L 240.17 401.31 L 241.64 404.27 L 243.11 403.60 L 244.58 402.98 L 246.06 404.50 L 247.53 408.83 L 249.00 413.46 L 250.47 412.67 L 251.94 414.63 L 253.42 415.85 L 254.89 409.39 L 256.36 415.45 L 257.83 407.11 L 259.31 407.87 L 260.78 400.32 L 262.25 400.32 L 263.72 399.16 L 265.19 402.68 L 266.67 404.36 L 268.14 406.42 L 269.61 402.71 L 271.08 399.41 L 272.56 404.47 L 274.03 403.84 L 275.50 402.69 L 276.97 399.48 L 278.44 410.25 L 279.92 397.40 L 281.39 399.81 L 282.86 389.84 L 284.33 379.63 L 285.81 372.95 L 287.28 387.77 L 288.75 400.69 L 290.22 379.50 L 291.69 379.13 L 293.17 385.89 L 294.64 385.58 L 296.11 384.18 L 297.58 379.41 L 299.06 378.47 L 300.53 379.59 L 302.00 388.64 L 303.47 378.16 L 304.94 385.74 L 306.42 378.25 L 307.89 376.18 L 309.36 375.92 L 310.83 374.97 L 312.31 384.14 L 313.78 389.29 L 315.25 389.12 L 316.72 389.95 L 318.19 385.85 L 319.67 380.87 L 321.14 388.46 L 322.61 399.91 L 324.08 394.96 L 325.56 395.06 L 327.03 395.71 L 328.50 395.99 L 329.97 377.76 L 331.44 381.45 L 332.92 382.00 L 334.39 394.27 L 335.86 401.91 L 337.33 401.91 L 338.81 415.19 L 340.28 386.52 L 341.75 383.87 L 343.22 407.35 L 344.69 413.32 L 346.17 392.41 L 347.64 388.18 L 349.11 385.25 L 350.58 400.21 L 352.06 392.41 L 353.53 396.74 L 355.00 412.92 L 356.47 411.79 L 357.94 413.16 L 359.42 408.02 L 360.89 401.08 L 362.36 409.09 L 363.83 395.04 L 365.31 399.59 L 366.78 401.93 L 368.25 402.00 L 369.72 415.79 L 371.19 415.26 L 372.67 418.92 L 374.14 414.99 L 375.61 407.24 L 377.08 402.05 L 378.56 398.36 L 380.03 400.04 L 381.50 400.80 L 382.97 410.93 L 384.44 404.40 L 385.92 400.75 L 387.39 402.76 L 388.86 386.63 L 390.33 392.62 L 391.81 368.85 L 393.28 395.05 L 394.75 403.21 L 396.22 397.36 L 397.69 416.35 L 399.17 398.54 L 400.64 395.83 L 402.11 396.21 L 403.58 400.96 L 405.06 409.78 L 406.53 408.34 L 408.00 409.11 L 409.47 403.58 L 410.94 397.16 L 412.42 396.95 L 413.89 400.82 L 415.36 401.81 L 416.83 397.79 L 418.31 394.54 L 419.78 397.10 L 421.25 394.37 L 422.72 405.36 L 424.19 410.25 L 425.67 413.72 L 427.14 416.45 L 428.61 420.17 L 430.08 422.31 L 431.56 416.87 L 433.03 413.75 L 434.50 413.22 L 435.97 411.40 L 437.44 420.97 L 438.92 410.31 L 440.39 409.56 L 441.86 397.94 L 443.33 404.91 L 444.81 406.40 L 446.28 407.63 L 447.75 407.31 L 449.22 407.34 L 450.69 407.40 L 452.17 407.30 L 453.64 407.37 L 455.11 407.38 L 456.58 407.34 L 458.06 406.52 L 459.53 408.37 L 461.00 407.34 L 462.47 406.34 L 463.94 409.31 L 465.42 407.85 L 466.89 408.01 L 468.36 408.04 L 469.83 408.00 L 471.31 408.06 L 472.78 408.07 L 474.25 408.06 L 475.72 408.05 L 477.19 408.11 L 478.67 408.05 L 480.14 408.08 L 481.61 408.04 L 483.08 408.07 L 484.56 408.05 L 486.03 408.04 L 487.50 408.09 L 488.97 408.14 L 490.44 408.04 L 491.92 408.61 L 493.39 412.15 L 494.86 414.31 L 496.33 419.42 L 497.81 396.24 L 499.28 406.31 L 500.75 399.35 L 502.22 409.60 L 503.69 402.56 L 505.17 406.07 L 506.64 393.89 L 508.11 403.62 L 509.58 399.19 L 511.06 403.45 L 512.53 401.00 L 514.00 401.97 L 515.47 400.04 L 516.94 402.65 L 518.42 401.45 L 519.89 398.78 L 521.36 409.61 L 522.83 412.01 L 524.31 408.94 L 525.78 409.66 L 527.25 408.69 L 528.72 410.23 L 530.19 407.94 L 531.67 409.27 L 533.14 420.20 L 534.61 419.15 L 536.08 406.56 L 537.56 423.00 L 539.03 413.99 L 540.50 410.36 L 541.97 408.15 L 543.44 408.88 L 544.92 419.77 L 546.39 418.78 L 547.86 409.87 L 549.33 405.21 L 550.81 409.62 L 552.28 410.91 L 553.75 410.13 L 555.22 411.54 L 556.69 420.61 L 558.17 412.46 L 559.64 408.48 L 561.11 407.18 L 562.58 412.94 L 564.06 415.96 L 565.53 409.25 L 567.00 408.36 L 568.47 408.99 L 569.94 410.58 L 571.42 411.36 L 572.89 408.63 L 574.36 408.54 L 575.83 409.67 L 577.31 407.42 L 578.78 410.47 L 580.25 407.78 L 581.72 408.89 L 583.19 404.69 L 584.67 411.19 L 586.14 411.01 L 587.61 407.17 L 589.08 408.07 L 590.56 408.24 L 592.03 410.31 L 593.50 416.70 L 594.97 399.49 L 596.44 410.89 L 597.92 420.03 L 599.39 407.90 L 600.86 411.24 L 602.33 414.19 L 603.81 410.41 L 605.28 407.85 L 606.75 407.79 L 608.22 405.33 L 609.69 400.81 L 611.17 399.35 L 612.64 402.38 L 614.11 402.41 L 615.58 403.62 L 617.06 402.78 L 618.53 401.80 L 620.00 394.59 L 621.47 400.69 L 622.94 402.73 L 624.42 404.83 L 625.89 404.62 L 627.36 403.74 L 628.83 403.74 L 630.31 404.36 L 631.78 404.33 L 633.25 404.34 L 634.72 404.28 L 636.19 404.30 L 637.67 404.24 L 639.14 404.25 L 640.61 404.30 L 642.08 404.27 L 643.56 404.29 L 645.03 404.23 L 646.50 404.30 L 647.97 404.28 L 649.44 404.24 L 650.92 404.32 L 652.39 404.30 L 653.86 404.33 L 655.33 404.27 L 656.81 404.28 L 658.28 404.29 L 659.75 404.27 L 661.22 404.31 L 662.69 404.28 L 664.17 404.23 L 665.64 404.28 L 667.11 404.32 L 668.58 404.30 L 670.06 404.30 L 671.53 404.30 L 673.00 404.26 L 674.47 404.28 L 675.94 404.23 L 677.42 404.32 L 678.89 404.26 L 680.36 404.25 L 681.83 404.26 L 683.31 404.23 L 684.78 404.26 L 686.25 404.29 L 687.72 404.30 L 689.19 404.31 L 690.67 404.27 L 692.14 404.31 L 693.61 404.30 L 695.08 404.33 L 696.56 404.32 L 698.03 404.35 L 699.50 404.33 L 700.97 404.32 L 702.44 404.39 L 703.92 404.33 L 705.39 404.32 L 706.86 404.31 L 708.33 404.31 L 709.81 404.34 L 711.28 404.27 L 712.75 404.30 L 714.22 404.36 L 715.69 404.31 L 717.17 404.33 L 718.64 404.36 L 720.11 404.35 L 721.58 404.34 L 723.06 404.35 L 724.53 404.28 L 726.00 404.39 L 727.47 404.33 L 728.94 404.30 L 730.42 404.33 L 731.89 404.33 L 733.36 404.36 L 734.83 404.35 L 736.31 404.39 L 737.78 404.31 L 739.25 404.31 L 740.72 404.40 L 742.19 404.30 L 743.67 404.36 L 745.14 404.32 L 746.61 404.35 L 748.08 404.36 L 749.56 404.30 L 751.03 404.36 L 752.50 404.33 L 753.97 404.36 L 755.44 404.34 L 756.92 404.36 L 758.39 404.31 L 759.86 404.35" stroke="#2E7D32" />
<path class="series" d="M 178.33 442.80 L 179.81 445.52 L 181.28 439.92 L 182.75 436.98 L 184.22 447.24 L 185.69 448.54 L 187.17 447.60 L 188.64 442.49 L 190.11 442.39 L 191.58 443.14 L 193.06 446.80 L 194.53 450.58 L 196.00 447.82 L 197.47 446.58 L 198.94 446.96 L 200.42 446.27 L 201.89 444.52 L 203.36 444.98 L 204.83 447.23 L 206.31 446.30 L 207.78 448.76 L 209.25 447.04 L 210.72 447.76 L 212.19 449.14 L 213.67 450.95 L 215.14 451.12 L 216.61 450.09 L 218.08 444.62 L 219.56 442.47 L 221.03 441.27 L 222.50 443.09 L 223.97 442.23 L 225.44 440.54 L 226.92 439.91 L 228.39 439.53 L 229.86 441.92 L 231.33 441.73 L 232.81 447.74 L 234.28 450.65 L 235.75 446.82 L 237.22 448.71 L 238.69 446.75 L 240.17 441.65 L 241.64 445.33 L 243.11 440.67 L 244.58 436.08 L 246.06 438.97 L 247.53 435.48 L 249.00 434.83 L 250.47 437.02 L 251.94 442.64 L 253.42 441.49 L 254.89 447.19 L 256.36 441.73 L 257.83 441.39 L 259.31 439.51 L 260.78 435.95 L 262.25 438.29 L 263.72 436.52 L 265.19 437.31 L 266.67 436.42 L 268.14 438.70 L 269.61 441.04 L 271.08 435.39 L 272.56 436.96 L 274.03 439.82 L 275.50 437.36 L 276.97 442.63 L 278.44 447.66 L 279.92 448.15 L 281.39 441.02 L 282.86 442.06 L 284.33 450.37 L 285.81 445.09 L 287.28 442.31 L 288.75 439.81 L 290.22 439.86 L 291.69 446.01 L 293.17 441.12 L 294.64 443.03 L 296.11 444.39 L 297.58 440.24 L 299.06 442.06 L 300.53 440.34 L 302.00 437.61 L 303.47 436.46 L 304.94 435.54 L 306.42 431.06 L 307.89 432.54 L 309.36 436.80 L 310.83 438.30 L 312.31 438.84 L 313.78 438.61 L 315.25 447.98 L 316.72 449.85 L 318.19 453.03 L 319.67 451.31 L 321.14 448.49 L 322.61 444.71 L 324.08 447.79 L 325.56 445.53 L 327.03 447.24 L 328.50 430.94 L 329.97 431.94 L 331.44 425.12 L 332.92 436.74 L 334.39 437.74 L 335.86 434.65 L 337.33 434.65 L 338.81 429.54 L 340.28 421.80 L 341.75 414.73 L 343.22 438.30 L 344.69 449.86 L 346.17 448.23 L 347.64 438.23 L 349.11 428.32 L 350.58 445.08 L 352.06 444.01 L 353.53 451.03 L 355.00 453.71 L 356.47 447.39 L 357.94 452.15 L 359.42 430.72 L 360.89 434.10 L 362.36 439.81 L 363.83 445.04 L 365.31 445.84 L 366.78 455.54 L 368.25 439.01 L 369.72 447.94 L 371.19 448.98 L 372.67 449.74 L 374.14 433.45 L 375.61 436.29 L 377.08 439.73 L 378.56 453.55 L 380.03 440.57 L 381.50 454.39 L 382.97 443.43 L 384.44 449.16 L 385.92 458.91 L 387.39 445.11 L 388.86 450.56 L 390.33 438.51 L 391.81 448.96 L 393.28 439.47 L 394.75 448.07 L 396.22 446.93 L 397.69 445.20 L 399.17 456.81 L 400.64 460.05 L 402.11 459.98 L 403.58 460.55 L 405.06 447.62 L 406.53 453.35 L 408.00 451.02 L 409.47 446.97 L 410.94 452.40 L 412.42 451.44 L 413.89 455.51 L 415.36 460.10 L 416.83 456.44 L 418.31 457.71 L 419.78 451.88 L 421.25 452.64 L 422.72 455.44 L 424.19 456.20 L 425.67 455.98 L 427.14 460.08 L 428.61 458.68 L 430.08 463.26 L 431.56 464.21 L 433.03 464.30 L 434.50 462.01 L 435.97 465.05 L 437.44 463.63 L 438.92 462.06 L 440.39 458.95 L 441.86 462.80 L 443.33 463.37 L 444.81 459.77 L 446.28 461.60 L 447.75 460.85 L 449.22 460.84 L 450.69 461.20 L 452.17 460.87 L 453.64 460.97 L 455.11 461.07 L 456.58 460.95 L 458.06 460.24 L 459.53 462.06 L 461.00 460.77 L 462.47 461.74 L 463.94 460.82 L 465.42 460.59 L 466.89 461.16 L 468.36 461.11 L 469.83 460.82 L 471.31 461.16 L 472.78 461.02 L 474.25 461.00 L 475.72 461.09 L 477.19 461.01 L 478.67 461.01 L 480.14 461.12 L 481.61 461.01 L 483.08 461.03 L 484.56 461.08 L 486.03 461.07 L 487.50 461.08 L 488.97 461.03 L 490.44 461.03 L 491.92 461.50 L 493.39 458.79 L 494.86 459.32 L 496.33 462.79 L 497.81 468.56 L 499.28 470.33 L 500.75 463.75 L 502.22 463.21 L 503.69 461.16 L 505.17 455.27 L 506.64 459.09 L 508.11 460.16 L 509.58 461.71 L 511.06 463.23 L 512.53 458.20 L 514.00 453.45 L 515.47 460.89 L 516.94 450.79 L 518.42 449.83 L 519.89 455.60 L 521.36 447.94 L 522.83 444.50 L 524.31 446.28 L 525.78 440.62 L 527.25 440.13 L 528.72 437.29 L 530.19 438.52 L 531.67 438.75 L 533.14 429.71 L 534.61 432.54 L 536.08 446.17 L 537.56 440.37 L 539.03 447.42 L 540.50 456.16 L 541.97 462.38 L 543.44 466.84 L 544.92 458.93 L 546.39 464.02 L 547.86 474.14 L 549.33 474.30 L 550.81 472.09 L 552.28 472.94 L 553.75 472.55 L 555.22 469.90 L 556.69 468.19 L 558.17 468.54 L 559.64 466.21 L 561.11 466.28 L 562.58 462.49 L 564.06 466.40 L 565.53 463.45 L 567.00 463.41 L 568.47 464.10 L 569.94 463.20 L 571.42 463.98 L 572.89 465.35 L 574.36 462.60 L 575.83 465.36 L 577.31 460.87 L 578.78 463.04 L 580.25 463.20 L 581.72 461.25 L 583.19 458.80 L 584.67 462.48 L 586.14 460.85 L 587.61 461.79 L 589.08 461.02 L 590.56 461.69 L 592.03 462.68 L 593.50 469.20 L 594.97 455.83 L 596.44 465.36 L 597.92 467.20 L 599.39 464.48 L 600.86 460.01 L 602.33 464.01 L 603.81 461.03 L 605.28 459.39 L 606.75 459.35 L 608.22 458.91 L 609.69 456.53 L 611.17 463.89 L 612.64 461.98 L 614.11 460.69 L 615.58 464.13 L 617.06 463.68 L 618.53 462.47 L 620.00 462.46 L 621.47 460.04 L 622.94 459.23 L 624.42 461.67 L 625.89 460.59 L 627.36 460.72 L 628.83 460.72 L 630.31 460.23 L 631.78 460.86 L 633.25 460.72 L 634.72 460.41 L 636.19 460.77 L 637.67 460.49 L 639.14 460.74 L 640.61 460.51 L 642.08 460.60 L 643.56 460.65 L 645.03 460.58 L 646.50 460.63 L 647.97 460.54 L 649.44 460.61 L 650.92 460.61 L 652.39 460.56 L 653.86 460.65 L 655.33 460.62 L 656.81 460.63 L 658.28 460.61 L 659.75 460.64 L 661.22 460.62 L 662.69 460.59 L 664.17 460.65 L 665.64 460.62 L 667.11 460.60 L 668.58 460.59 L 670.06 460.63 L 671.53 460.57 L 673.00 460.60 L 674.47 460.54 L 675.94 460.62 L 677.42 460.58 L 678.89 460.53 L 680.36 460.58 L 681.83 460.57 L 683.31 460.57 L 684.78 460.60 L 686.25 460.57 L 687.72 460.59 L 689.19 460.57 L 690.67 460.60 L 692.14 460.62 L 693.61 460.61 L 695.08 460.60 L 696.56 460.61 L 698.03 460.57 L 699.50 460.66 L 700.97 460.57 L 702.44 460.59 L 703.92 460.59 L 705.39 460.67 L 706.86 460.56 L 708.33 460.60 L 709.81 460.61 L 711.28 460.63 L 712.75 460.59 L 714.22 460.60 L 715.69 460.64 L 717.17 460.59 L 718.64 460.63 L 720.11 460.59 L 721.58 460.60 L 723.06 460.67 L 724.53 460.64 L 726.00 460.56 L 727.47 460.58 L 728.94 460.61 L 730.42 460.61 L 731.89 460.61 L 733.36 460.60 L 734.83 460.60 L 736.31 460.67 L 737.78 460.61 L 739.25 460.59 L 740.72 460.61 L 742.19 460.61 L 743.67 460.61 L 745.14 460.60 L 746.61 460.55 L 748.08 460.59 L 749.56 460.62 L 751.03 460.53 L 752.50 460.64 L 753.97 460.60 L 755.44 460.67 L 756.92 460.56 L 758.39 460.62 L 759.86 460.62" stroke="#6A1B9A" />
<line x1="900.00" y1="307.75" x2="918.00" y2="307.75" stroke="#2E7D32" stroke-width="3" />
<text class="small" x="924.00" y="311.75">pitch</text>
<line x1="900.00" y1="323.75" x2="918.00" y2="323.75" stroke="#6A1B9A" stroke-width="3" />
<text class="small" x="924.00" y="327.75">roll</text>
<text x="90" y="500.50" font-size="14" font-weight="700">Aceleração (magnitude) (u.a.)</text>
<rect class="event" x="443.33" y="506.50" width="51.53" height="192.75" />
<line class="eventline" x1="443.33" y1="506.50" x2="443.33" y2="699.25" />
<line class="eventline" x1="494.86" y1="506.50" x2="494.86" y2="699.25" />
<line class="grid" x1="90" y1="699.25" x2="1150" y2="699.25" />
<text class="small" x="80" y="703.25" text-anchor="end">0.00</text>
<line class="grid" x1="90" y1="660.70" x2="1150" y2="660.70" />
<text class="small" x="80" y="664.70" text-anchor="end">0.50</text>
<line class="grid" x1="90" y1="622.15" x2="1150" y2="622.15" />
<text class="small" x="80" y="626.15" text-anchor="end">1.00</text>
<line class="grid" x1="90" y1="583.60" x2="1150" y2="583.60" />
<text class="small" x="80" y="587.60" text-anchor="end">1.50</text>
<line class="grid" x1="90" y1="545.05" x2="1150" y2="545.05" />
<text class="small" x="80" y="549.05" text-anchor="end">2.00</text>
<line class="grid" x1="90" y1="506.50" x2="1150" y2="506.50" />
<text class="small" x="80" y="510.50" text-anchor="end">2.50</text>
<line class="grid" x1="90.00" y1="506.50" x2="90.00" y2="699.25" />
<line class="grid" x1="266.67" y1="506.50" x2="266.67" y2="699.25" />
<line class="grid" x1="443.33" y1="506.50" x2="443.33" y2="699.25" />
<line class="grid" x1="620.00" y1="506.50" x2="620.00" y2="699.25" />
<line class="grid" x1="796.67" y1="506.50" x2="796.67" y2="699.25" />
<line class="grid" x1="973.33" y1="506.50" x2="973.33" y2="699.25" />
<line class="grid" x1="1150.00" y1="506.50" x2="1150.00" y2="699.25" />
<line class="axis" x1="90" y1="506.50" x2="90" y2="699.25" />
<line class="axis" x1="90" y1="699.25" x2="1150" y2="699.25" />
<path class="series" d="M 178.33 685.22 L 179.81 688.54 L 181.28 685.11 L 182.75 680.81 L 184.22 671.97 L 185.69 678.72 L 187.17 682.14 L 188.64 687.05 L 190.11 692.06 L 191.58 686.00 L 193.06 686.30 L 194.53 690.11 L 196.00 686.67 L 197.47 684.62 L 198.94 685.44 L 200.42 687.71 L 201.89 692.15 L 203.36 683.48 L 204.83 653.74 L 206.31 689.44 L 207.78 671.71 L 209.25 662.19 L 210.72 691.93 L 212.19 682.82 L 213.67 686.17 L 215.14 679.63 L 216.61 681.52 L 218.08 686.78 L 219.56 696.76 L 221.03 690.39 L 222.50 684.57 L 223.97 674.52 L 225.44 693.96 L 226.92 680.90 L 228.39 678.10 L 229.86 685.57 L 231.33 693.27 L 232.81 683.03 L 234.28 692.84 L 235.75 681.28 L 237.22 690.33 L 238.69 688.66 L 240.17 679.13 L 241.64 686.27 L 243.11 679.90 L 244.58 679.13 L 246.06 673.15 L 247.53 669.27 L 249.00 675.62 L 250.47 679.23 L 251.94 685.23 L 253.42 690.45 L 254.89 672.99 L 256.36 678.46 L 257.83 674.13 L 259.31 669.04 L 260.78 666.85 L 262.25 674.27 L 263.72 678.21 L 265.19 688.57 L 266.67 689.54 L 268.14 679.98 L 269.61 682.27 L 271.08 690.48 L 272.56 689.79 L 274.03 689.79 L 275.50 681.77 L 276.97 684.65 L 278.44 686.26 L 279.92 660.96 L 281.39 688.71 L 282.86 676.57 L 284.33 646.32 L 285.81 640.58 L 287.28 677.61 L 288.75 671.71 L 290.22 644.78 L 291.69 661.61 L 293.17 676.42 L 294.64 673.56 L 296.11 678.36 L 297.58 685.14 L 299.06 681.06 L 300.53 684.95 L 302.00 685.91 L 303.47 680.53 L 304.94 687.85 L 306.42 673.46 L 307.89 683.72 L 309.36 676.08 L 310.83 677.19 L 312.31 678.33 L 313.78 672.73 L 315.25 678.30 L 316.72 683.13 L 318.19 692.41 L 319.67 676.88 L 321.14 668.92 L 322.61 672.98 L 324.08 683.62 L 325.56 687.39 L 327.03 688.52 L 328.50 686.81 L 329.97 660.46 L 331.44 629.88 L 332.92 657.18 L 334.39 646.19 L 335.86 687.99 L 337.33 653.52 L 338.81 654.09 L 340.28 655.61 L 341.75 645.32 L 343.22 642.69 L 344.69 642.64 L 346.17 670.61 L 347.64 658.86 L 349.11 599.66 L 350.58 636.56 L 352.06 647.97 L 353.53 613.88 L 355.00 664.26 L 356.47 667.13 L 357.94 676.15 L 359.42 670.58 L 360.89 656.22 L 362.36 656.77 L 363.83 660.92 L 365.31 664.11 L 366.78 672.62 L 368.25 666.18 L 369.72 650.86 L 371.19 665.08 L 372.67 682.34 L 374.14 649.68 L 375.61 667.61 L 377.08 675.96 L 378.56 688.19 L 380.03 681.34 L 381.50 678.64 L 382.97 680.42 L 384.44 676.47 L 385.92 680.14 L 387.39 678.74 L 388.86 657.60 L 390.33 637.59 L 391.81 652.89 L 393.28 637.15 L 394.75 648.75 L 396.22 665.08 L 397.69 669.18 L 399.17 637.99 L 400.64 682.08 L 402.11 673.16 L 403.58 692.42 L 405.06 672.09 L 406.53 678.17 L 408.00 680.41 L 409.47 677.08 L 410.94 685.56 L 412.42 694.99 L 413.89 692.64 L 415.36 681.13 L 416.83 665.54 L 418.31 683.38 L 419.78 670.76 L 421.25 687.57 L 422.72 674.43 L 424.19 692.78 L 425.67 695.73 L 427.14 695.21 L 428.61 688.64 L 430.08 681.03 L 431.56 690.00 L 433.03 691.12 L 434.50 687.81 L 435.97 678.31 L 437.44 687.52 L 438.92 693.95 L 440.39 689.65 L 441.86 685.30 L 443.33 673.27 L 444.81 695.46 L 446.28 697.10 L 447.75 698.58 L 449.22 699.00 L 450.69 698.64 L 452.17 698.84 L 453.64 698.93 L 455.11 698.93 L 456.58 699.03 L 458.06 698.41 L 459.53 697.60 L 461.00 698.58 L 462.47 698.47 L 463.94 696.64 L 465.42 696.67 L 466.89 697.31 L 468.36 698.75 L 469.83 698.83 L 471.31 698.80 L 472.78 698.84 L 474.25 699.13 L 475.72 699.04 L 477.19 698.96 L 478.67 699.07 L 480.14 699.05 L 481.61 699.16 L 483.08 699.12 L 484.56 699.13 L 486.03 699.17 L 487.50 699.05 L 488.97 699.13 L 490.44 698.81 L 491.92 698.98 L 493.39 695.01 L 494.86 676.06 L 496.33 680.90 L 497.81 661.21 L 499.28 692.30 L 500.75 678.33 L 502.22 680.94 L 503.69 677.78 L 505.17 696.60 L 506.64 667.57 L 508.11 683.26 L 509.58 680.94 L 511.06 683.84 L 512.53 691.53 L 514.00 696.03 L 515.47 683.99 L 516.94 685.42 L 518.42 691.29 L 519.89 683.24 L 521.36 679.23 L 522.83 682.71 L 524.31 695.16 L 525.78 694.92 L 527.25 696.43 L 528.72 696.09 L 530.19 691.36 L 531.67 697.63 L 533.14 675.54 L 534.61 692.12 L 536.08 644.21 L 537.56 634.73 L 539.03 631.43 L 540.50 674.77 L 541.97 659.98 L 543.44 678.46 L 544.92 664.67 L 546.39 692.22 L 547.86 687.14 L 549.33 689.92 L 550.81 689.33 L 552.28 685.26 L 553.75 684.20 L 555.22 695.75 L 556.69 681.41 L 558.17 687.56 L 559.64 689.21 L 561.11 690.68 L 562.58 689.39 L 564.06 684.37 L 565.53 688.24 L 567.00 694.47 L 568.47 694.08 L 569.94 697.04 L 571.42 695.68 L 572.89 694.81 L 574.36 693.87 L 575.83 692.74 L 577.31 692.74 L 578.78 694.22 L 580.25 687.65 L 581.72 694.53 L 583.19 688.97 L 584.67 689.14 L 586.14 697.84 L 587.61 691.32 L 589.08 694.93 L 590.56 694.41 L 592.03 694.90 L 593.50 680.50 L 594.97 642.86 L 596.44 694.34 L 597.92 678.08 L 599.39 677.70 L 600.86 676.44 L 602.33 683.13 L 603.81 687.50 L 605.28 692.05 L 606.75 696.72 L 608.22 694.73 L 609.69 692.52 L 611.17 693.87 L 612.64 693.70 L 614.11 695.72 L 615.58 694.18 L 617.06 696.46 L 618.53 692.55 L 620.00 675.23 L 621.47 690.28 L 622.94 695.12 L 624.42 694.72 L 625.89 694.72 L 627.36 694.91 L 628.83 694.42 L 630.31 698.39 L 631.78 699.17 L 633.25 698.62 L 634.72 698.45 L 636.19 698.85 L 637.67 698.61 L 639.14 698.96 L 640.61 699.15 L 642.08 698.89 L 643.56 699.11 L 645.03 699.12 L 646.50 699.03 L 647.97 699.09 L 649.44 699.10 L 650.92 699.00 L 652.39 699.20 L 653.86 699.15 L 655.33 699.06 L 656.81 699.04 L 658.28 699.10 L 659.75 698.96 L 661.22 698.97 L 662.69 699.00 L 664.17 699.07 L 665.64 698.92 L 667.11 698.91 L 668.58 699.19 L 670.06 698.97 L 671.53 698.82 L 673.00 699.17 L 674.47 698.92 L 675.94 699.15 L 677.42 699.07 L 678.89 699.17 L 680.36 699.07 L 681.83 698.87 L 683.31 698.91 L 684.78 698.95 L 686.25 698.72 L 687.72 698.99 L 689.19 699.14 L 690.67 699.10 L 692.14 699.01 L 693.61 699.14 L 695.08 699.20 L 696.56 699.12 L 698.03 699.14 L 699.50 699.02 L 700.97 699.19 L 702.44 699.00 L 703.92 698.99 L 705.39 699.11 L 706.86 699.06 L 708.33 699.16 L 709.81 698.97 L 711.28 699.09 L 712.75 699.11 L 714.22 699.06 L 715.69 699.07 L 717.17 699.14 L 718.64 699.02 L 720.11 699.13 L 721.58 699.08 L 723.06 699.13 L 724.53 699.15 L 726.00 699.00 L 727.47 699.11 L 728.94 699.10 L 730.42 699.05 L 731.89 699.10 L 733.36 699.13 L 734.83 698.97 L 736.31 699.20 L 737.78 699.19 L 739.25 699.16 L 740.72 699.11 L 742.19 699.07 L 743.67 699.11 L 745.14 699.19 L 746.61 699.10 L 748.08 699.03 L 749.56 699.07 L 751.03 699.18 L 752.50 699.16 L 753.97 699.07 L 755.44 699.20 L 756.92 699.02 L 758.39 699.11 L 759.86 699.17" stroke="#FB8C00" />
<text x="90" y="711.25" font-size="14" font-weight="700">Giroscópio (magnitude) (u.a.)</text>
<rect class="event" x="443.33" y="717.25" width="51.53" height="192.75" />
<line class="eventline" x1="443.33" y1="717.25" x2="443.33" y2="910.00" />
<line class="eventline" x1="494.86" y1="717.25" x2="494.86" y2="910.00" />
<line class="grid" x1="90" y1="910.00" x2="1150" y2="910.00" />
<text class="small" x="80" y="914.00" text-anchor="end">0.00</text>
<line class="grid" x1="90" y1="871.45" x2="1150" y2="871.45" />
<text class="small" x="80" y="875.45" text-anchor="end">0.05</text>
<line class="grid" x1="90" y1="832.90" x2="1150" y2="832.90" />
<text class="small" x="80" y="836.90" text-anchor="end">0.10</text>
<line class="grid" x1="90" y1="794.35" x2="1150" y2="794.35" />
<text class="small" x="80" y="798.35" text-anchor="end">0.15</text>
<line class="grid" x1="90" y1="755.80" x2="1150" y2="755.80" />
<text class="small" x="80" y="759.80" text-anchor="end">0.20</text>
<line class="grid" x1="90" y1="717.25" x2="1150" y2="717.25" />
<text class="small" x="80" y="721.25" text-anchor="end">0.25</text>
<line class="grid" x1="90.00" y1="717.25" x2="90.00" y2="910.00" />
<line class="grid" x1="266.67" y1="717.25" x2="266.67" y2="910.00" />
<line class="grid" x1="443.33" y1="717.25" x2="443.33" y2="910.00" />
<line class="grid" x1="620.00" y1="717.25" x2="620.00" y2="910.00" />
<line class="grid" x1="796.67" y1="717.25" x2="796.67" y2="910.00" />
<line class="grid" x1="973.33" y1="717.25" x2="973.33" y2="910.00" />
<line class="grid" x1="1150.00" y1="717.25" x2="1150.00" y2="910.00" />
<line class="axis" x1="90" y1="717.25" x2="90" y2="910.00" />
<line class="axis" x1="90" y1="910.00" x2="1150" y2="910.00" />
<path class="series" d="M 178.33 900.27 L 179.81 896.49 L 181.28 892.84 L 182.75 897.16 L 184.22 900.60 L 185.69 889.25 L 187.17 883.98 L 188.64 894.25 L 190.11 901.70 L 191.58 890.61 L 193.06 898.96 L 194.53 901.82 L 196.00 895.50 L 197.47 907.91 L 198.94 898.30 L 200.42 902.63 L 201.89 901.22 L 203.36 901.97 L 204.83 895.61 L 206.31 899.88 L 207.78 897.15 L 209.25 898.10 L 210.72 902.05 L 212.19 902.52 L 213.67 903.75 L 215.14 903.36 L 216.61 902.05 L 218.08 901.67 L 219.56 894.62 L 221.03 897.78 L 222.50 899.03 L 223.97 901.67 L 225.44 894.97 L 226.92 899.54 L 228.39 898.41 L 229.86 895.83 L 231.33 894.31 L 232.81 897.90 L 234.28 901.70 L 235.75 901.57 L 237.22 907.70 L 238.69 908.73 L 240.17 899.27 L 241.64 889.60 L 243.11 880.26 L 244.58 872.23 L 246.06 866.10 L 247.53 852.85 L 249.00 841.28 L 250.47 840.13 L 251.94 841.46 L 253.42 841.44 L 254.89 886.05 L 256.36 888.33 L 257.83 890.14 L 259.31 885.66 L 260.78 871.72 L 262.25 870.56 L 263.72 878.20 L 265.19 887.59 L 266.67 892.87 L 268.14 893.82 L 269.61 887.55 L 271.08 873.21 L 272.56 861.48 L 274.03 861.48 L 275.50 860.62 L 276.97 858.18 L 278.44 856.75 L 279.92 870.78 L 281.39 876.71 L 282.86 892.39 L 284.33 889.70 L 285.81 892.56 L 287.28 880.53 L 288.75 887.66 L 290.22 893.10 L 291.69 881.81 L 293.17 891.99 L 294.64 899.16 L 296.11 900.28 L 297.58 899.06 L 299.06 897.67 L 300.53 894.25 L 302.00 890.15 L 303.47 879.97 L 304.94 870.09 L 306.42 870.69 L 307.89 865.86 L 309.36 867.68 L 310.83 867.31 L 312.31 875.72 L 313.78 877.95 L 315.25 880.72 L 316.72 892.00 L 318.19 904.50 L 319.67 902.25 L 321.14 901.65 L 322.61 901.30 L 324.08 905.50 L 325.56 902.01 L 327.03 903.80 L 328.50 899.82 L 329.97 875.47 L 331.44 859.30 L 332.92 859.73 L 334.39 870.46 L 335.86 873.87 L 337.33 854.00 L 338.81 846.00 L 340.28 818.98 L 341.75 836.26 L 343.22 851.43 L 344.69 837.93 L 346.17 837.10 L 347.64 837.78 L 349.11 801.67 L 350.58 874.90 L 352.06 869.72 L 353.53 872.67 L 355.00 864.66 L 356.47 857.08 L 357.94 858.54 L 359.42 858.75 L 360.89 872.90 L 362.36 877.12 L 363.83 878.44 L 365.31 892.92 L 366.78 872.68 L 368.25 859.33 L 369.72 868.86 L 371.19 862.47 L 372.67 872.13 L 374.14 899.22 L 375.61 883.08 L 377.08 880.52 L 378.56 881.04 L 380.03 901.85 L 381.50 883.50 L 382.97 888.50 L 384.44 861.79 L 385.92 889.39 L 387.39 875.39 L 388.86 892.59 L 390.33 860.51 L 391.81 871.97 L 393.28 874.08 L 394.75 885.41 L 396.22 903.62 L 397.69 880.60 L 399.17 867.72 L 400.64 879.30 L 402.11 882.58 L 403.58 881.80 L 405.06 888.38 L 406.53 889.52 L 408.00 895.07 L 409.47 881.42 L 410.94 889.47 L 412.42 896.21 L 413.89 898.23 L 415.36 900.98 L 416.83 884.41 L 418.31 876.98 L 419.78 879.15 L 421.25 885.71 L 422.72 894.92 L 424.19 890.09 L 425.67 892.71 L 427.14 891.71 L 428.61 888.27 L 430.08 882.03 L 431.56 890.06 L 433.03 897.16 L 434.50 902.50 L 435.97 899.30 L 437.44 896.52 L 438.92 898.53 L 440.39 896.41 L 441.86 906.38 L 443.33 908.90 L 444.81 909.46 L 446.28 909.79 L 447.75 909.60 L 449.22 909.63 L 450.69 909.74 L 452.17 909.66 L 453.64 909.82 L 455.11 909.82 L 456.58 909.69 L 458.06 909.51 L 459.53 907.87 L 461.00 909.40 L 462.47 909.52 L 463.94 907.14 L 465.42 908.60 L 466.89 909.60 L 468.36 909.71 L 469.83 909.63 L 471.31 909.66 L 472.78 909.66 L 474.25 909.59 L 475.72 909.62 L 477.19 909.54 L 478.67 909.87 L 480.14 909.78 L 481.61 909.96 L 483.08 909.88 L 484.56 909.89 L 486.03 909.94 L 487.50 909.91 L 488.97 909.70 L 490.44 909.65 L 491.92 909.98 L 493.39 909.13 L 494.86 902.35 L 496.33 890.67 L 497.81 890.85 L 499.28 887.97 L 500.75 893.24 L 502.22 893.19 L 503.69 900.95 L 505.17 898.76 L 506.64 892.51 L 508.11 887.37 L 509.58 885.10 L 511.06 870.84 L 512.53 865.42 L 514.00 853.04 L 515.47 858.14 L 516.94 857.30 L 518.42 861.29 L 519.89 889.30 L 521.36 901.93 L 522.83 887.62 L 524.31 857.01 L 525.78 847.55 L 527.25 848.61 L 528.72 844.78 L 530.19 849.55 L 531.67 857.63 L 533.14 852.99 L 534.61 815.63 L 536.08 788.91 L 537.56 822.95 L 539.03 778.71 L 540.50 799.65 L 541.97 816.27 L 543.44 854.51 L 544.92 863.33 L 546.39 850.82 L 547.86 856.11 L 549.33 886.95 L 550.81 904.01 L 552.28 901.70 L 553.75 905.23 L 555.22 902.46 L 556.69 904.74 L 558.17 906.68 L 559.64 901.77 L 561.11 884.26 L 562.58 873.78 L 564.06 874.22 L 565.53 884.27 L 567.00 874.26 L 568.47 868.44 L 569.94 867.94 L 571.42 869.58 L 572.89 873.13 L 574.36 868.34 L 575.83 867.75 L 577.31 868.54 L 578.78 867.91 L 580.25 870.87 L 581.72 874.64 L 583.19 869.70 L 584.67 871.61 L 586.14 873.29 L 587.61 876.84 L 589.08 869.55 L 590.56 866.03 L 592.03 872.02 L 593.50 884.23 L 594.97 893.44 L 596.44 871.55 L 597.92 899.42 L 599.39 904.22 L 600.86 907.47 L 602.33 899.90 L 603.81 902.30 L 605.28 903.13 L 606.75 890.66 L 608.22 868.32 L 609.69 868.67 L 611.17 874.11 L 612.64 873.70 L 614.11 882.04 L 615.58 890.69 L 617.06 898.79 L 618.53 903.25 L 620.00 906.77 L 621.47 908.67 L 622.94 908.84 L 624.42 909.17 L 625.89 909.17 L 627.36 908.10 L 628.83 909.06 L 630.31 909.52 L 631.78 909.87 L 633.25 909.61 L 634.72 909.92 L 636.19 909.74 L 637.67 909.75 L 639.14 909.63 L 640.61 909.60 L 642.08 909.64 L 643.56 909.75 L 645.03 909.86 L 646.50 909.83 L 647.97 909.92 L 649.44 909.70 L 650.92 909.67 L 652.39 909.80 L 653.86 909.81 L 655.33 909.65 L 656.81 909.60 L 658.28 909.63 L 659.75 909.77 L 661.22 909.60 L 662.69 909.55 L 664.17 909.67 L 665.64 909.73 L 667.11 909.76 L 668.58 909.70 L 670.06 909.82 L 671.53 909.86 L 673.00 909.87 L 674.47 909.87 L 675.94 909.85 L 677.42 909.62 L 678.89 909.77 L 680.36 909.78 L 681.83 909.68 L 683.31 909.77 L 684.78 909.79 L 686.25 909.77 L 687.72 909.78 L 689.19 909.72 L 690.67 909.73 L 692.14 909.66 L 693.61 909.73 L 695.08 909.80 L 696.56 909.78 L 698.03 909.82 L 699.50 909.79 L 700.97 909.80 L 702.44 909.83 L 703.92 909.76 L 705.39 909.72 L 706.86 909.79 L 708.33 909.65 L 709.81 909.77 L 711.28 909.70 L 712.75 909.79 L 714.22 909.65 L 715.69 909.77 L 717.17 909.67 L 718.64 909.75 L 720.11 909.66 L 721.58 909.61 L 723.06 909.71 L 724.53 909.70 L 726.00 909.74 L 727.47 909.86 L 728.94 909.73 L 730.42 909.84 L 731.89 909.69 L 733.36 909.79 L 734.83 909.81 L 736.31 909.82 L 737.78 909.89 L 739.25 909.87 L 740.72 909.86 L 742.19 909.77 L 743.67 909.86 L 745.14 909.83 L 746.61 909.93 L 748.08 909.90 L 749.56 909.81 L 751.03 909.81 L 752.50 909.80 L 753.97 909.84 L 755.44 909.79 L 756.92 909.76 L 758.39 909.88 L 759.86 909.88" stroke="#E53935" />
<text x="620.00" y="952" font-size="15" text-anchor="middle">minutos (relativo ao início do evento)</text>
<text class="small" x="90.00" y="936" text-anchor="middle">-4.00</text>
<text class="small" x="266.67" y="936" text-anchor="middle">-2.00</text>
<text class="small" x="443.33" y="936" text-anchor="middle">0.00</text>
<text class="small" x="620.00" y="936" text-anchor="middle">2.00</text>
<text class="small" x="796.67" y="936" text-anchor="middle">4.00</text>
<text class="small" x="973.33" y="936" text-anchor="middle">6.00</text>
<text class="small" x="1150.00" y="936" text-anchor="middle">8.00</text>
</svg>