<?xml version="1.0" encoding="UTF-8"?>
<svg xmlns="http://www.w3.org/2000/svg" width="1180" height="980" viewBox="0 0 1180 980">
<style>
text { font-family: -apple-system, BlinkMacSystemFont, 'Segoe UI', Roboto, Helvetica, Arial, sans-serif; fill: #111; }
.small { font-size: 12px; fill: #222; }
.title { font-size: 18px; font-weight: 700; }
.axis { stroke: #111; stroke-width: 1.4; }
.grid { stroke: #E6E6E6; stroke-width: 1; }
.event { fill: #FFEB3B; fill-opacity: 0.18; }
.eventline { stroke: #F9A825; stroke-width: 1.2; stroke-dasharray: 4 3; }
.series { fill: none; stroke-width: 1.8; }
</style>
<text class="title" x="90" y="34">ciclo 22 — espera_carregamento — 2025-12-13T08:08:30-03:00 → 2025-12-13T08:24:35-03:00 (span 965s, dur 966s)</text>
<text class="small" x="90" y="54">GPS: -11.699157,-47.157217  hotspot: -11.699,-47.157</text>
<text class="small" x="90" y="70">Janela: -3.00 → 19.1 min (relativo ao início do evento)</text>
<text x="90" y="79.00" font-size="14" font-weight="700">Velocidade (km/h)</text>
<rect class="event" x="266.67" y="85.00" width="568.28" height="192.75" />
<line class="eventline" x1="266.67" y1="85.00" x2="266.67" y2="277.75" />
<line class="eventline" x1="834.94" y1="85.00" x2="834.94" y2="277.75" />
<line class="grid" x1="90" y1="277.75" x2="1150" y2="277.75" />
<text class="small" x="80" y="281.75" text-anchor="end">0.00</text>
<line class="grid" x1="90" y1="239.20" x2="1150" y2="239.20" />
<text class="small" x="80" y="243.20" text-anchor="end">10.0</text>
<line class="grid" x1="90" y1="200.65" x2="1150" y2="200.65" />
<text class="small" x="80" y="204.65" text-anchor="end">20.0</text>
<line class="grid" x1="90" y1="162.10" x2="1150" y2="162.10" />
<text class="small" x="80" y="166.10" text-anchor="end">30.0</text>
<line class="grid" x1="90" y1="123.55" x2="1150" y2="123.55" />
<text class="small" x="80" y="127.55" text-anchor="end">40.0</text>
<line class="grid" x1="90" y1="85.00" x2="1150" y2="85.00" />
<text class="small" x="80" y="89.00" text-anchor="end">50.0</text>
<line class="grid" x1="90.00" y1="85.00" x2="90.00" y2="277.75" />
<line class="grid" x1="266.67" y1="85.00" x2="266.67" y2="277.75" />
<line class="grid" x1="443.33" y1="85.00" x2="443.33" y2="277.75" />
<line class="grid" x1="620.00" y1="85.00" x2="620.00" y2="277.75" />
<line class="grid" x1="796.67" y1="85.00" x2="796.67" y2="277.75" />
<line class="grid" x1="973.33" y1="85.00" x2="973.33" y2="277.75" />
<line class="grid" x1="1150.00" y1="85.00" x2="1150.00" y2="277.75" />
<line class="axis" x1="90" y1="85.00" x2="90" y2="277.75" />
<line class="axis" x1="90" y1="277.75" x2="1150" y2="277.75" />
<path class="series" d="M 160.67 182.96 L 161.84 177.13 L 163.02 183.52 L 164.20 185.46 L 165.38 195.45 L 166.56 185.32 L 167.73 179.35 L 168.91 182.13 L 170.09 186.57 L 171.27 180.74 L 172.44 181.58 L 173.62 186.02 L 174.80 201.00 L 175.98 213.08 L 177.16 215.85 L 178.33 220.71 L 179.51 227.51 L 180.69 228.34 L 181.87 227.79 L 183.04 235.14 L 184.22 240.42 L 185.40 247.77 L 186.58 262.48 L 187.76 265.26 L 188.93 265.95 L 190.11 262.90 L 191.29 264.43 L 192.47 267.62 L 193.64 268.17 L 194.82 270.95 L 196.00 277.75 L 197.18 277.75 L 198.36 277.75 L 199.53 277.75 L 200.71 277.75 L 201.89 277.75 L 203.07 277.75 L 204.24 277.75 L 205.42 277.75 L 206.60 277.75 L 207.78 277.75 L 208.96 277.75 L 210.13 277.75 L 211.31 277.75 L 212.49 277.75 L 213.67 277.75 L 214.84 277.75 L 216.02 277.75 L 217.20 261.51 L 218.38 264.70 L 219.56 259.43 L 220.73 257.63 L 221.91 266.37 L 223.09 267.48 L 224.27 268.45 L 225.44 268.59 L 226.62 277.75 L 227.80 269.84 L 228.98 266.23 L 230.16 267.76 L 231.33 265.95 L 232.51 254.43 L 233.69 250.13 L 234.87 259.85 L 236.04 268.45 L 237.22 266.37 L 238.40 277.75 L 239.58 277.75 L 240.76 277.75 L 241.93 277.75 L 243.11 277.75 L 244.29 277.75 L 245.47 269.98 L 246.64 269.56 L 247.82 270.26 L 249.00 269.98 L 250.18 269.84 L 251.36 270.67 L 252.53 269.42 L 253.71 270.12 L 254.89 268.73 L 256.07 277.75 L 257.24 277.75 L 258.42 277.75 L 259.60 277.75 L 260.78 277.75 L 261.96 277.75 L 263.13 277.75 L 264.31 269.15 L 265.49 269.84 L 266.67 277.75 L 267.84 277.75 L 269.02 277.75 L 270.20 277.75 L 271.38 277.75 L 272.56 277.75 L 273.73 277.75 L 274.91 277.75 L 276.09 277.75 L 277.27 277.75 L 278.44 277.75 L 279.62 277.75 L 280.80 277.75 L 281.98 277.75 L 283.16 277.75 L 284.33 277.75 L 285.51 277.75 L 286.69 277.75 L 287.87 277.75 L 289.04 277.75 L 290.22 277.75 L 291.40 277.75 L 292.58 277.75 L 293.76 277.75 L 294.93 277.75 L 296.11 277.75 L 297.29 277.75 L 298.47 277.75 L 299.64 277.75 L 300.82 277.75 L 302.00 277.75 L 303.18 277.75 L 304.36 277.75 L 305.53 277.75 L 306.71 277.75 L 307.89 277.75 L 309.07 277.75 L 310.24 277.75 L 311.42 277.75 L 312.60 277.75 L 313.78 277.75 L 314.96 277.75 L 316.13 277.75 L 317.31 277.75 L 318.49 277.75 L 319.67 277.75 L 320.84 277.75 L 322.02 277.75 L 323.20 277.75 L 324.38 277.75 L 325.56 277.75 L 326.73 277.75 L 327.91 277.75 L 329.09 277.75 L 330.27 277.75 L 331.44 277.75 L 332.62 277.75 L 333.80 277.75 L 334.98 277.75 L 336.16 277.75 L 337.33 277.75 L 338.51 277.75 L 339.69 277.75 L 340.87 277.75 L 342.04 277.75 L 343.22 277.75 L 344.40 277.75 L 345.58 277.75 L 346.76 277.75 L 347.93 277.75 L 349.11 277.75 L 350.29 277.75 L 351.47 277.75 L 352.64 277.75 L 353.82 277.75 L 355.00 277.75 L 356.18 277.75 L 357.36 277.75 L 358.53 277.75 L 359.71 277.75 L 360.89 277.75 L 362.07 277.75 L 363.24 277.75 L 364.42 277.75 L 365.60 277.75 L 366.78 277.75 L 367.96 277.75 L 369.13 277.75 L 370.31 277.75 L 371.49 277.75 L 372.67 277.75 L 373.84 277.75 L 375.02 277.75 L 376.20 277.75 L 377.38 277.75 L 378.56 277.75 L 379.73 277.75 L 380.91 277.75 L 382.09 277.75 L 383.27 277.75 L 384.44 277.75 L 385.62 277.75 L 386.80 277.75 L 387.98 277.75 L 389.16 277.75 L 390.33 277.75 L 391.51 277.75 L 392.69 277.75 L 393.87 277.75 L 395.04 277.75 L 396.22 277.75 L 397.40 277.75 L 398.58 277.75 L 399.76 277.75 L 400.93 277.75 L 402.11 277.75 L 403.29 277.75 L 404.47 277.75 L 405.64 277.75 L 406.82 277.75 L 408.00 277.75 L 409.18 277.75 L 410.36 277.75 L 411.53 277.75 L 412.71 277.75 L 413.89 277.75 L 415.07 277.75 L 416.24 277.75 L 417.42 277.75 L 418.60 277.75 L 419.78 277.75 L 420.96 277.75 L 422.13 277.75 L 423.31 277.75 L 424.49 277.75 L 425.67 277.75 L 426.84 277.75 L 428.02 277.75 L 429.20 277.75 L 430.38 277.75 L 431.56 277.75 L 432.73 277.75 L 433.91 277.75 L 435.09 277.75 L 436.27 277.75 L 437.44 277.75 L 438.62 277.75 L 439.80 277.75 L 440.98 277.75 L 442.16 277.75 L 443.33 277.75 L 444.51 277.75 L 445.69 277.75 L 446.87 277.75 L 448.04 277.75 L 449.22 277.75 L 450.40 277.75 L 451.58 277.75 L 452.76 277.75 L 453.93 277.75 L 455.11 277.75 L 456.29 277.75 L 457.47 277.75 L 458.64 277.75 L 459.82 277.75 L 461.00 277.75 L 462.18 277.75 L 463.36 277.75 L 464.53 277.75 L 465.71 277.75 L 466.89 277.75 L 468.07 277.75 L 469.24 277.75 L 470.42 277.75 L 471.60 277.75 L 472.78 277.75 L 473.96 277.75 L 475.13 277.75 L 476.31 277.75 L 477.49 277.75 L 478.67 277.75 L 479.84 277.75 L 481.02 277.75 L 482.20 277.75 L 483.38 277.75 L 484.56 277.75 L 485.73 277.75 L 486.91 277.75 L 488.09 277.75 L 489.27 277.75 L 490.44 277.75 L 491.62 277.75 L 492.80 277.75 L 493.98 277.75 L 495.16 277.75 L 496.33 277.75 L 497.51 277.75 L 498.69 277.75 L 499.87 277.75 L 501.04 277.75 L 502.22 277.75 L 503.40 277.75 L 504.58 277.75 L 505.76 277.75 L 506.93 277.75 L 508.11 277.75 L 509.29 277.75 L 510.47 277.75 L 511.64 277.75 L 512.82 277.75 L 514.00 277.75 L 515.18 277.75 L 516.36 277.75 L 517.53 277.75 L 518.71 277.75 L 519.89 277.75 L 521.07 277.75 L 522.24 277.75 L 523.42 277.75 L 524.60 277.75 L 525.78 277.75 L 526.96 277.75 L 528.13 277.75 L 529.31 277.75 L 530.49 277.75 L 531.67 277.75 L 532.84 277.75 L 534.02 277.75 L 535.20 277.75 L 536.38 277.75 L 537.56 277.75 L 538.73 277.75 L 539.91 277.75 L 541.09 277.75 L 542.27 277.75 L 543.44 277.75 L 544.62 277.75 L 545.80 277.75 L 546.98 277.75 L 548.16 277.75 L 549.33 277.75 L 550.51 277.75 L 551.69 277.75 L 552.87 277.75 L 554.04 277.75 L 555.22 277.75 L 556.40 277.75 L 557.58 277.75 L 558.76 277.75 L 559.93 277.75 L 561.11 277.75 L 562.29 277.75 L 563.47 277.75 L 564.64 277.75 L 565.82 277.75 L 567.00 277.75 L 568.18 277.75 L 569.36 277.75 L 570.53 277.75 L 571.71 277.75 L 572.89 277.75 L 574.07 277.75 L 575.24 277.75 L 576.42 277.75 L 577.60 277.75 L 578.78 277.75 L 579.96 277.75 L 581.13 277.75 L 582.31 277.75 L 583.49 277.75 L 584.67 277.75 L 585.84 277.75 L 587.02 277.75 L 588.20 277.75 L 589.38 277.75 L 590.56 277.75 L 591.73 277.75 L 592.91 277.75 L 594.09 277.75 L 595.27 277.75 L 596.44 277.75 L 597.62 277.75 L 598.80 277.75 L 599.98 277.75 L 601.16 277.75 L 602.33 277.75 L 603.51 277.75 L 604.69 277.75 L 605.87 277.75 L 607.04 277.75 L 608.22 277.75 L 609.40 277.75 L 610.58 277.75 L 611.76 277.75 L 612.93 277.75 L 614.11 277.75 L 615.29 277.75 L 616.47 277.75 L 617.64 277.75 L 618.82 277.75 L 620.00 277.75 L 621.18 277.75 L 622.36 277.75 L 623.53 277.75 L 624.71 277.75 L 625.89 277.75 L 627.07 277.75 L 628.24 277.75 L 629.42 277.75 L 630.60 277.75 L 631.78 277.75 L 632.96 277.75 L 634.13 277.75 L 635.31 277.75 L 636.49 277.75 L 637.67 277.75 L 638.84 277.75 L 640.02 277.75 L 641.20 277.75 L 642.38 277.75 L 643.56 277.75 L 644.73 277.75 L 645.91 277.75 L 647.09 277.75 L 648.27 277.75 L 649.44 277.75 L 650.62 277.75 L 651.80 277.75 L 652.98 277.75 L 654.16 277.75 L 655.33 277.75 L 656.51 277.75 L 657.69 277.75 L 658.87 277.75 L 660.04 277.75 L 661.22 277.75 L 662.40 277.75 L 663.58 277.75 L 664.76 277.75 L 665.93 277.75 L 667.11 277.75 L 668.29 277.75 L 669.47 277.75 L 670.64 277.75 L 671.82 277.75 L 673.00 277.75 L 674.18 277.75 L 675.36 277.75 L 676.53 277.75 L 677.71 277.75 L 678.89 277.75 L 680.07 277.75 L 681.24 277.75 L 682.42 277.75 L 683.60 277.75 L 684.78 277.75 L 685.96 277.75 L 687.13 277.75 L 688.31 277.75 L 689.49 277.75 L 690.67 277.75 L 691.84 277.75 L 693.02 277.75 L 694.20 277.75 L 695.38 277.75 L 696.56 277.75 L 697.73 277.75 L 698.91 277.75 L 700.09 277.75 L 701.27 277.75 L 702.44 277.75 L 703.62 277.75 L 704.80 277.75 L 705.98 277.75 L 707.16 277.75 L 708.33 277.75 L 709.51 277.75 L 710.69 277.75 L 711.87 277.75 L 713.04 277.75 L 714.22 277.75 L 715.40 277.75 L 716.58 277.75 L 717.76 277.75 L 718.93 277.75 L 720.11 277.75 L 721.29 277.75 L 722.47 277.75 L 723.64 277.75 L 724.82 277.75 L 726.00 277.75 L 727.18 277.75 L 728.36 277.75 L 729.53 277.75 L 730.71 277.75 L 731.89 277.75 L 733.07 277.75 L 734.24 277.75 L 735.42 277.75 L 736.60 277.75 L 737.78 277.75 L 738.96 277.75 L 740.13 277.75 L 741.31 277.75 L 742.49 277.75 L 743.67 277.75 L 744.84 277.75 L 746.02 277.75 L 747.20 277.75 L 748.38 277.75 L 749.56 277.75 L 750.73 277.75 L 751.91 277.75 L 753.09 277.75 L 754.27 277.75 L 755.44 277.75 L 756.62 277.75 L 757.80 277.75 L 758.98 277.75 L 760.16 277.75 L 761.33 277.75 L 762.51 277.75 L 763.69 277.75 L 764.87 277.75 L 766.04 277.75 L 767.22 277.75 L 768.40 277.75 L 769.58 277.75 L 770.76 277.75 L 771.93 277.75 L 773.11 277.75 L 774.29 277.75 L 775.47 277.75 L 776.64 277.75 L 777.82 277.75 L 779.00 277.75 L 780.18 277.75 L 781.36 277.75 L 782.53 277.75 L 783.71 277.75 L 784.89 277.75 L 786.07 277.75 L 787.24 277.75 L 788.42 277.75 L 789.60 277.75 L 790.78 277.75 L 791.96 277.75 L 793.13 277.75 L 794.31 277.75 L 795.49 277.75 L 796.67 277.75 L 797.84 277.75 L 799.02 277.75 L 800.20 277.75 L 801.38 277.75 L 802.56 277.75 L 803.73 277.75 L 804.91 277.75 L 806.09 277.75 L 807.27 277.75 L 808.44 277.75 L 809.62 277.75 L 810.80 277.75 L 811.98 277.75 L 813.16 277.75 L 814.33 277.75 L 815.51 277.75 L 816.69 277.75 L 817.87 277.75 L 819.04 277.75 L 820.22 277.75 L 821.40 277.75 L 822.58 277.75 L 823.76 277.75 L 824.93 277.75 L 826.11 277.75 L 827.29 277.75 L 828.47 277.75 L 829.64 277.75 L 830.82 277.75 L 832.00 277.75 L 833.18 277.75 L 834.36 277.75 L 835.53 252.49 L 836.71 277.75 L 837.89 264.43 L 839.07 262.62 L 840.24 268.59 L 841.42 277.75 L 842.60 277.75 L 843.78 277.75 L 844.96 277.75 L 846.13 277.75 L 847.31 277.75 L 848.49 277.75 L 849.67 277.75 L 850.84 277.75 L 852.02 277.75 L 853.20 277.75 L 854.38 277.75 L 855.56 277.75 L 856.73 277.75 L 857.91 277.75 L 859.09 277.75 L 860.27 277.75 L 861.44 277.75 L 862.62 277.75 L 863.80 277.75 L 864.98 277.75 L 866.16 277.75 L 867.33 277.75 L 868.51 277.75 L 869.69 277.75 L 870.87 277.75 L 872.04 277.75 L 873.22 277.75 L 874.40 277.75 L 875.58 277.75 L 876.76 277.75 L 877.93 277.75 L 879.11 277.75 L 880.29 277.75 L 881.47 277.75 L 882.64 277.75 L 883.82 277.75 L 885.00 277.75 L 886.18 277.75 L 887.36 277.75 L 888.53 277.75 L 889.71 277.75 L 890.89 277.75 L 892.07 277.75 L 893.24 277.75 L 894.42 277.75 L 895.60 277.75 L 896.78 277.75 L 897.96 277.75 L 899.13 277.75 L 900.31 277.75 L 901.49 277.75 L 902.67 277.75 L 903.84 277.75 L 905.02 277.75 L 906.20 277.75 L 907.38 277.75 L 908.56 277.75 L 909.73 277.75 L 910.91 277.75 L 912.09 277.75 L 913.27 277.75 L 914.44 277.75 L 915.62 277.75 L 916.80 277.75 L 917.98 277.75 L 919.16 277.75 L 920.33 277.75 L 921.51 277.75 L 922.69 277.75 L 923.87 277.75 L 925.04 277.75 L 926.22 277.75 L 927.40 277.75 L 928.58 277.75 L 929.76 277.75 L 930.93 277.75 L 932.11 277.75 L 933.29 277.75 L 934.47 277.75 L 935.64 277.75 L 936.82 277.75 L 938.00 264.29 L 939.18 269.01 L 940.36 256.38" stroke="#1976D2" />
<text x="90" y="289.75" font-size="14" font-weight="700">Inclinação (graus)</text>
<rect class="event" x="266.67" y="295.75" width="568.28" height="192.75" />
<line class="eventline" x1="266.67" y1="295.75" x2="266.67" y2="488.50" />
<line class="eventline" x1="834.94" y1="295.75" x2="834.94" y2="488.50" />
<line class="grid" x1="90" y1="488.50" x2="1150" y2="488.50" />
<text class="small" x="80" y="492.50" text-anchor="end">-10.0</text>
<line class="grid" x1="90" y1="449.95" x2="1150" y2="449.95" />
<text class="small" x="80" y="453.95" text-anchor="end">0.00</text>
<line class="grid" x1="90" y1="411.40" x2="1150" y2="411.40" />
<text class="small" x="80" y="415.40" text-anchor="end">10.0</text>
<line class="grid" x1="90" y1="372.85" x2="1150" y2="372.85" />
<text class="small" x="80" y="376.85" text-anchor="end">20.0</text>
<line class="grid" x1="90" y1="334.30" x2="1150" y2="334.30" />
<text class="small" x="80" y="338.30" text-anchor="end">30.0</text>
<line class="grid" x1="90" y1="295.75" x2="1150" y2="295.75" />
<text class="small" x="80" y="299.75" text-anchor="end">40.0</text>
<line class="grid" x1="90.00" y1="295.75" x2="90.00" y2="488.50" />
<line class="grid" x1="266.67" y1="295.75" x2="266.67" y2="488.50" />
<line class="grid" x1="443.33" y1="295.75" x2="443.33" y2="488.50" />
<line class="grid" x1="620.00" y1="295.75" x2="620.00" y2="488.50" />
<line class="grid" x1="796.67" y1="295.75" x2="796.67" y2="488.50" />
<line class="grid" x1="973.33" y1="295.75" x2="973.33" y2="488.50" />
<line class="grid" x1="1150.00" y1="295.75" x2="1150.00" y2="488.50" />
<line class="axis" x1="90" y1="295.75" x2="90" y2="488.50" />
<line class="axis" x1="90" y1="488.50" x2="1150" y2="488.50" />
<path class="series" d="M 160.67 411.79 L 161.84 408.02 L 163.02 409.09 L 164.20 399.59 L 165.38 402.00 L 166.56 415.26 L 167.73 414.99 L 168.91 402.05 L 170.09 400.04 L 171.27 410.93 L 172.44 400.75 L 173.62 386.63 L 174.80 368.85 L 175.98 403.21 L 177.16 416.35 L 178.33 395.83 L 179.51 400.96 L 180.69 408.34 L 181.87 403.58 L 183.04 396.95 L 184.22 401.81 L 185.40 394.54 L 186.58 394.37 L 187.76 410.25 L 188.93 416.45 L 190.11 422.31 L 191.29 413.75 L 192.47 411.40 L 193.64 410.31 L 194.82 397.94 L 196.00 406.40 L 197.18 407.31 L 198.36 407.40 L 199.53 407.37 L 200.71 407.34 L 201.89 408.37 L 203.07 406.34 L 204.24 407.85 L 205.42 408.04 L 206.60 408.06 L 207.78 408.06 L 208.96 408.11 L 210.13 408.08 L 211.31 408.07 L 212.49 408.04 L 213.67 408.14 L 214.84 408.61 L 216.02 414.31 L 217.20 396.24 L 218.38 399.35 L 219.56 402.56 L 220.73 393.89 L 221.91 399.19 L 223.09 401.00 L 224.27 400.04 L 225.44 401.45 L 226.62 409.61 L 227.80 408.94 L 228.98 408.69 L 230.16 407.94 L 231.33 420.20 L 232.51 406.56 L 233.69 413.99 L 234.87 408.15 L 236.04 419.77 L 237.22 409.87 L 238.40 409.62 L 239.58 410.13 L 240.76 420.61 L 241.93 408.48 L 243.11 412.94 L 244.29 409.25 L 245.47 408.99 L 246.64 411.36 L 247.82 408.54 L 249.00 407.42 L 250.18 407.78 L 251.36 404.69 L 252.53 411.01 L 253.71 408.07 L 254.89 410.31 L 256.07 399.49 L 257.24 420.03 L 258.42 411.24 L 259.60 410.41 L 260.78 407.79 L 261.96 400.81 L 263.13 402.38 L 264.31 403.62 L 265.49 401.80 L 266.67 400.69 L 267.84 404.83 L 269.02 403.74 L 270.20 404.36 L 271.38 404.34 L 272.56 404.30 L 273.73 404.25 L 274.91 404.27 L 276.09 404.23 L 277.27 404.28 L 278.44 404.32 L 279.62 404.33 L 280.80 404.28 L 281.98 404.27 L 283.16 404.28 L 284.33 404.28 L 285.51 404.30 L 286.69 404.30 L 287.87 404.28 L 289.04 404.32 L 290.22 404.25 L 291.40 404.23 L 292.58 404.29 L 293.76 404.31 L 294.93 404.31 L 296.11 404.33 L 297.29 404.35 L 298.47 404.32 L 299.64 404.33 L 300.82 404.31 L 302.00 404.34 L 303.18 404.30 L 304.36 404.31 L 305.53 404.36 L 306.71 404.34 L 307.89 404.28 L 309.07 404.33 L 310.24 404.33 L 311.42 404.36 L 312.60 404.39 L 313.78 404.31 L 314.96 404.30 L 316.13 404.32 L 317.31 404.36 L 318.49 404.36 L 319.67 404.36 L 320.84 404.36 L 322.02 404.35 L 323.20 404.31 L 324.38 404.33 L 325.56 404.33 L 326.73 404.36 L 327.91 404.25 L 329.09 404.37 L 330.27 404.29 L 331.44 404.30 L 332.62 404.33 L 333.80 404.34 L 334.98 404.31 L 336.16 404.27 L 337.33 404.28 L 338.51 404.39 L 339.69 404.32 L 340.87 404.37 L 342.04 404.31 L 343.22 404.35 L 344.40 404.27 L 345.58 404.32 L 346.76 404.28 L 347.93 404.36 L 349.11 404.29 L 350.29 404.34 L 351.47 404.27 L 352.64 404.30 L 353.82 404.28 L 355.00 404.28 L 356.18 404.29 L 357.36 404.29 L 358.53 404.26 L 359.71 404.36 L 360.89 404.37 L 362.07 404.28 L 363.24 404.28 L 364.42 404.23 L 365.60 404.27 L 366.78 404.26 L 367.96 404.26 L 369.13 404.26 L 370.31 404.30 L 371.49 404.25 L 372.67 404.27 L 373.84 404.29 L 375.02 404.34 L 376.20 404.22 L 377.38 404.32 L 378.56 404.29 L 379.73 404.33 L 380.91 404.30 L 382.09 404.37 L 383.27 404.32 L 384.44 404.34 L 385.62 404.33 L 386.80 404.35 L 387.98 404.27 L 389.16 404.33 L 390.33 404.30 L 391.51 404.29 L 392.69 404.33 L 393.87 404.32 L 395.04 404.33 L 396.22 404.34 L 397.40 404.33 L 398.58 404.34 L 399.76 404.30 L 400.93 404.28 L 402.11 404.30 L 403.29 404.27 L 404.47 404.30 L 405.64 404.24 L 406.82 404.28 L 408.00 404.32 L 409.18 404.34 L 410.36 404.35 L 411.53 404.33 L 412.71 404.25 L 413.89 404.25 L 415.07 404.26 L 416.24 404.28 L 417.42 404.32 L 418.60 404.29 L 419.78 404.30 L 420.96 404.36 L 422.13 404.30 L 423.31 404.33 L 424.49 404.23 L 425.67 404.30 L 426.84 404.29 L 428.02 404.26 L 429.20 404.30 L 430.38 404.35 L 431.56 404.35 L 432.73 404.34 L 433.91 404.32 L 435.09 404.32 L 436.27 404.28 L 437.44 404.31 L 438.62 404.24 L 439.80 404.33 L 440.98 404.25 L 442.16 404.33 L 443.33 404.26 L 444.51 404.37 L 445.69 404.28 L 446.87 404.22 L 448.04 404.25 L 449.22 404.33 L 450.40 404.28 L 451.58 404.23 L 452.76 404.22 L 453.93 404.31 L 455.11 404.21 L 456.29 404.69 L 457.47 403.72 L 458.64 401.15 L 459.82 402.32 L 461.00 400.41 L 462.18 403.19 L 463.36 402.63 L 464.53 403.80 L 465.71 405.00 L 466.89 407.65 L 468.07 413.53 L 469.24 409.61 L 470.42 409.19 L 471.60 408.97 L 472.78 407.88 L 473.96 409.07 L 475.13 409.08 L 476.31 409.14 L 477.49 409.07 L 478.67 409.09 L 479.84 409.13 L 481.02 409.14 L 482.20 409.10 L 483.38 409.13 L 484.56 409.13 L 485.73 409.12 L 486.91 409.09 L 488.09 409.12 L 489.27 409.15 L 490.44 409.14 L 491.62 409.14 L 492.80 409.13 L 493.98 409.14 L 495.16 409.13 L 496.33 409.15 L 497.51 409.17 L 498.69 409.14 L 499.87 409.15 L 501.04 409.16 L 502.22 409.12 L 503.40 409.09 L 504.58 409.12 L 505.76 409.09 L 506.93 409.08 L 508.11 409.08 L 509.29 409.13 L 510.47 409.09 L 511.64 409.07 L 512.82 409.09 L 514.00 409.09 L 515.18 409.09 L 516.36 409.10 L 517.53 409.13 L 518.71 409.12 L 519.89 409.17 L 521.07 409.09 L 522.24 409.08 L 523.42 409.12 L 524.60 409.18 L 525.78 409.10 L 526.96 409.15 L 528.13 409.18 L 529.31 409.12 L 530.49 409.16 L 531.67 409.12 L 532.84 409.11 L 534.02 409.13 L 535.20 409.08 L 536.38 409.11 L 537.56 408.79 L 538.73 409.32 L 539.91 401.38 L 541.09 408.07 L 542.27 410.39 L 543.44 409.18 L 544.62 407.28 L 545.80 409.08 L 546.98 405.14 L 548.16 407.42 L 549.33 407.61 L 550.51 413.84 L 551.69 408.15 L 552.87 409.88 L 554.04 406.71 L 555.22 407.15 L 556.40 407.16 L 557.58 407.14 L 558.76 407.14 L 559.93 407.14 L 561.11 407.15 L 562.29 407.15 L 563.47 407.16 L 564.64 407.16 L 565.82 407.16 L 567.00 407.16 L 568.18 407.16 L 569.36 407.16 L 570.53 407.10 L 571.71 407.15 L 572.89 407.13 L 574.07 407.15 L 575.24 407.14 L 576.42 407.21 L 577.60 407.14 L 578.78 407.12 L 579.96 407.12 L 581.13 407.14 L 582.31 407.12 L 583.49 407.11 L 584.67 407.10 L 585.84 407.12 L 587.02 407.10 L 588.20 407.17 L 589.38 407.17 L 590.56 407.13 L 591.73 407.11 L 592.91 407.14 L 594.09 407.12 L 595.27 407.13 L 596.44 407.08 L 597.62 407.12 L 598.80 407.10 L 599.98 407.08 L 601.16 407.16 L 602.33 407.18 L 603.51 407.17 L 604.69 407.11 L 605.87 407.18 L 607.04 407.17 L 608.22 407.12 L 609.40 407.15 L 610.58 407.18 L 611.76 407.14 L 612.93 407.19 L 614.11 407.16 L 615.29 407.19 L 616.47 407.17 L 617.64 407.21 L 618.82 407.22 L 620.00 407.22 L 621.18 407.18 L 622.36 407.18 L 623.53 407.15 L 624.71 407.16 L 625.89 407.11 L 627.07 407.15 L 628.24 407.16 L 629.42 407.15 L 630.60 407.24 L 631.78 407.20 L 632.96 407.18 L 634.13 407.22 L 635.31 407.21 L 636.49 407.19 L 637.67 407.23 L 638.84 407.20 L 640.02 407.17 L 641.20 407.15 L 642.38 407.19 L 643.56 407.15 L 644.73 407.18 L 645.91 407.17 L 647.09 407.22 L 648.27 407.25 L 649.44 407.18 L 650.62 407.17 L 651.80 407.23 L 652.98 407.20 L 654.16 407.17 L 655.33 407.20 L 656.51 407.16 L 657.69 407.19 L 658.87 407.15 L 660.04 407.20 L 661.22 407.20 L 662.40 407.20 L 663.58 407.22 L 664.76 407.23 L 665.93 407.24 L 667.11 407.19 L 668.29 407.18 L 669.47 407.19 L 670.64 407.21 L 671.82 407.24 L 673.00 407.23 L 674.18 407.22 L 675.36 407.21 L 676.53 407.24 L 677.71 407.32 L 678.89 407.27 L 680.07 407.29 L 681.24 407.34 L 682.42 407.34 L 683.60 407.25 L 684.78 407.35 L 685.96 407.36 L 687.13 407.30 L 688.31 407.29 L 689.49 407.38 L 690.67 407.37 L 691.84 407.35 L 693.02 407.30 L 694.20 407.40 L 695.38 407.33 L 696.56 407.41 L 697.73 407.35 L 698.91 407.36 L 700.09 407.24 L 701.27 407.26 L 702.44 407.15 L 703.62 407.10 L 704.80 406.96 L 705.98 406.87 L 707.16 406.89 L 708.33 406.88 L 709.51 406.87 L 710.69 406.85 L 711.87 406.90 L 713.04 406.86 L 714.22 406.90 L 715.40 406.92 L 716.58 406.93 L 717.76 406.88 L 718.93 406.87 L 720.11 406.89 L 721.29 406.86 L 722.47 406.82 L 723.64 406.83 L 724.82 406.79 L 726.00 406.83 L 727.18 406.84 L 728.36 406.84 L 729.53 406.90 L 730.71 406.86 L 731.89 406.82 L 733.07 406.87 L 734.24 406.77 L 735.42 406.83 L 736.60 406.86 L 737.78 406.90 L 738.96 406.88 L 740.13 406.85 L 741.31 406.89 L 742.49 406.90 L 743.67 406.87 L 744.84 406.88 L 746.02 406.89 L 747.20 406.88 L 748.38 406.82 L 749.56 406.85 L 750.73 406.85 L 751.91 406.87 L 753.09 406.87 L 754.27 406.92 L 755.44 406.86 L 756.62 406.83 L 757.80 406.88 L 758.98 406.82 L 760.16 406.84 L 761.33 406.86 L 762.51 406.87 L 763.69 406.84 L 764.87 406.93 L 766.04 406.91 L 767.22 406.88 L 768.40 406.90 L 769.58 406.85 L 770.76 406.88 L 771.93 406.86 L 773.11 406.87 L 774.29 406.90 L 775.47 406.89 L 776.64 406.79 L 777.82 406.93 L 779.00 406.91 L 780.18 406.93 L 781.36 406.87 L 782.53 406.94 L 783.71 406.85 L 784.89 406.86 L 786.07 406.85 L 787.24 406.93 L 788.42 406.86 L 789.60 406.88 L 790.78 406.88 L 791.96 406.94 L 793.13 406.87 L 794.31 406.97 L 795.49 406.91 L 796.67 406.87 L 797.84 406.83 L 799.02 406.86 L 800.20 406.90 L 801.38 406.89 L 802.56 406.85 L 803.73 406.91 L 804.91 406.92 L 806.09 406.88 L 807.27 406.92 L 808.44 406.96 L 809.62 406.92 L 810.80 406.84 L 811.98 406.89 L 813.16 406.86 L 814.33 406.83 L 815.51 406.83 L 816.69 406.82 L 817.87 406.87 L 819.04 406.89 L 820.22 406.91 L 821.40 406.96 L 822.58 407.05 L 823.76 407.14 L 824.93 407.18 L 826.11 407.14 L 827.29 407.18 L 828.47 407.75 L 829.64 407.47 L 830.82 407.40 L 832.00 407.41 L 833.18 407.43 L 834.36 388.71 L 835.53 411.97 L 836.71 405.86 L 837.89 415.86 L 839.07 420.50 L 840.24 394.83 L 841.42 390.87 L 842.60 397.53 L 843.78 424.32 L 844.96 406.26 L 846.13 406.90 L 847.31 404.78 L 848.49 405.17 L 849.67 405.27 L 850.84 405.21 L 852.02 405.17 L 853.20 405.16 L 854.38 405.21 L 855.56 405.15 L 856.73 405.94 L 857.91 404.77 L 859.09 404.18 L 860.27 404.33 L 861.44 404.17 L 862.62 404.24 L 863.80 404.16 L 864.98 404.16 L 866.16 404.16 L 867.33 404.17 L 868.51 404.19 L 869.69 403.38 L 870.87 403.26 L 872.04 403.10 L 873.22 403.06 L 874.40 403.08 L 875.58 403.09 L 876.76 403.09 L 877.93 403.12 L 879.11 403.08 L 880.29 403.01 L 881.47 403.02 L 882.64 403.00 L 883.82 403.47 L 885.00 403.03 L 886.18 402.92 L 887.36 403.19 L 888.53 402.24 L 889.71 402.34 L 890.89 402.29 L 892.07 402.44 L 893.24 402.34 L 894.42 402.30 L 895.60 402.26 L 896.78 402.26 L 897.96 402.33 L 899.13 402.27 L 900.31 402.31 L 901.49 402.24 L 902.67 402.50 L 903.84 402.63 L 905.02 402.93 L 906.20 402.98 L 907.38 402.95 L 908.56 402.92 L 909.73 402.89 L 910.91 402.90 L 912.09 402.89 L 913.27 402.90 L 914.44 402.91 L 915.62 402.93 L 916.80 402.93 L 917.98 403.10 L 919.16 403.81 L 920.33 404.05 L 921.51 404.16 L 922.69 404.16 L 923.87 404.08 L 925.04 404.12 L 926.22 404.15 L 927.40 404.14 L 928.58 404.11 L 929.76 404.16 L 930.93 404.22 L 932.11 404.51 L 933.29 405.03 L 934.47 405.09 L 935.64 406.34 L 936.82 402.43 L 938.00 389.34 L 939.18 399.90 L 940.36 413.86" stroke="#2E7D32" />
<path class="series" d="M 160.67 447.39 L 161.84 430.72 L 163.02 439.81 L 164.20 445.84 L 165.38 439.01 L 166.56 448.98 L 167.73 433.45 L 168.91 439.73 L 170.09 440.57 L 171.27 443.43 L 172.44 458.91 L 173.62 450.56 L 174.80 448.96 L 175.98 448.07 L 177.16 445.20 L 178.33 460.05 L 179.51 460.55 L 180.69 453.35 L 181.87 446.97 L 183.04 451.44 L 184.22 460.10 L 185.40 457.71 L 186.58 452.64 L 187.76 456.20 L 188.93 460.08 L 190.11 463.26 L 191.29 464.30 L 192.47 465.05 L 193.64 462.06 L 194.82 462.80 L 196.00 459.77 L 197.18 460.85 L 198.36 461.20 L 199.53 460.97 L 200.71 460.95 L 201.89 462.06 L 203.07 461.74 L 204.24 460.59 L 205.42 461.11 L 206.60 461.16 L 207.78 461.00 L 208.96 461.01 L 210.13 461.12 L 211.31 461.03 L 212.49 461.07 L 213.67 461.03 L 214.84 461.50 L 216.02 459.32 L 217.20 468.56 L 218.38 463.75 L 219.56 461.16 L 220.73 459.09 L 221.91 461.71 L 223.09 458.20 L 224.27 460.89 L 225.44 449.83 L 226.62 447.94 L 227.80 446.28 L 228.98 440.13 L 230.16 438.52 L 231.33 429.71 L 232.51 446.17 L 233.69 447.42 L 234.87 462.38 L 236.04 458.93 L 237.22 474.14 L 238.40 472.09 L 239.58 472.55 L 240.76 468.19 L 241.93 466.21 L 243.11 462.49 L 244.29 463.45 L 245.47 464.10 L 246.64 463.98 L 247.82 462.60 L 249.00 460.87 L 250.18 463.20 L 251.36 458.80 L 252.53 460.85 L 253.71 461.02 L 254.89 462.68 L 256.07 455.83 L 257.24 467.20 L 258.42 460.01 L 259.60 461.03 L 260.78 459.35 L 261.96 456.53 L 263.13 461.98 L 264.31 464.13 L 265.49 462.47 L 266.67 460.04 L 267.84 461.67 L 269.02 460.72 L 270.20 460.23 L 271.38 460.72 L 272.56 460.77 L 273.73 460.74 L 274.91 460.60 L 276.09 460.58 L 277.27 460.54 L 278.44 460.61 L 279.62 460.65 L 280.80 460.63 L 281.98 460.64 L 283.16 460.59 L 284.33 460.62 L 285.51 460.59 L 286.69 460.57 L 287.87 460.54 L 289.04 460.58 L 290.22 460.58 L 291.40 460.57 L 292.58 460.57 L 293.76 460.57 L 294.93 460.62 L 296.11 460.60 L 297.29 460.57 L 298.47 460.57 L 299.64 460.59 L 300.82 460.56 L 302.00 460.61 L 303.18 460.59 L 304.36 460.64 L 305.53 460.63 L 306.71 460.60 L 307.89 460.64 L 309.07 460.58 L 310.24 460.61 L 311.42 460.60 L 312.60 460.67 L 313.78 460.59 L 314.96 460.61 L 316.13 460.60 L 317.31 460.59 L 318.49 460.53 L 319.67 460.60 L 320.84 460.56 L 322.02 460.62 L 323.20 460.62 L 324.38 460.62 L 325.56 460.60 L 326.73 460.56 L 327.91 460.59 L 329.09 460.56 L 330.27 460.61 L 331.44 460.58 L 332.62 460.63 L 333.80 460.58 L 334.98 460.62 L 336.16 460.62 L 337.33 460.62 L 338.51 460.57 L 339.69 460.62 L 340.87 460.61 L 342.04 460.66 L 343.22 460.60 L 344.40 460.67 L 345.58 460.59 L 346.76 460.64 L 347.93 460.59 L 349.11 460.63 L 350.29 460.56 L 351.47 460.59 L 352.64 460.58 L 353.82 460.59 L 355.00 460.55 L 356.18 460.58 L 357.36 460.56 L 358.53 460.53 L 359.71 460.57 L 360.89 460.62 L 362.07 460.62 L 363.24 460.57 L 364.42 460.59 L 365.60 460.57 L 366.78 460.58 L 367.96 460.49 L 369.13 460.58 L 370.31 460.58 L 371.49 460.58 L 372.67 460.56 L 373.84 460.62 L 375.02 460.56 L 376.20 460.58 L 377.38 460.52 L 378.56 460.61 L 379.73 460.59 L 380.91 460.61 L 382.09 460.58 L 383.27 460.68 L 384.44 460.58 L 385.62 460.62 L 386.80 460.58 L 387.98 460.64 L 389.16 460.62 L 390.33 460.62 L 391.51 460.60 L 392.69 460.56 L 393.87 460.57 L 395.04 460.56 L 396.22 460.59 L 397.40 460.52 L 398.58 460.63 L 399.76 460.54 L 400.93 460.61 L 402.11 460.49 L 403.29 460.57 L 404.47 460.52 L 405.64 460.55 L 406.82 460.55 L 408.00 460.56 L 409.18 460.58 L 410.36 460.59 L 411.53 460.54 L 412.71 460.58 L 413.89 460.52 L 415.07 460.54 L 416.24 460.45 L 417.42 460.54 L 418.60 460.57 L 419.78 460.56 L 420.96 460.54 L 422.13 460.60 L 423.31 460.55 L 424.49 460.59 L 425.67 460.52 L 426.84 460.59 L 428.02 460.50 L 429.20 460.57 L 430.38 460.54 L 431.56 460.61 L 432.73 460.55 L 433.91 460.61 L 435.09 460.54 L 436.27 460.62 L 437.44 460.53 L 438.62 460.56 L 439.80 460.50 L 440.98 460.59 L 442.16 460.51 L 443.33 460.58 L 444.51 460.53 L 445.69 460.61 L 446.87 460.51 L 448.04 460.57 L 449.22 460.47 L 450.40 460.55 L 451.58 460.44 L 452.76 460.54 L 453.93 460.51 L 455.11 460.50 L 456.29 460.75 L 457.47 460.60 L 458.64 460.09 L 459.82 463.10 L 461.00 461.69 L 462.18 462.21 L 463.36 458.53 L 464.53 461.18 L 465.71 459.30 L 466.89 461.71 L 468.07 456.54 L 469.24 460.08 L 470.42 459.45 L 471.60 459.64 L 472.78 458.02 L 473.96 459.33 L 475.13 459.64 L 476.31 459.59 L 477.49 459.58 L 478.67 459.52 L 479.84 459.63 L 481.02 459.51 L 482.20 459.61 L 483.38 459.59 L 484.56 459.62 L 485.73 459.53 L 486.91 459.59 L 488.09 459.54 L 489.27 459.57 L 490.44 459.52 L 491.62 459.54 L 492.80 459.54 L 493.98 459.55 L 495.16 459.52 L 496.33 459.58 L 497.51 459.49 L 498.69 459.58 L 499.87 459.52 L 501.04 459.56 L 502.22 459.53 L 503.40 459.53 L 504.58 459.50 L 505.76 459.55 L 506.93 459.55 L 508.11 459.58 L 509.29 459.52 L 510.47 459.58 L 511.64 459.50 L 512.82 459.55 L 514.00 459.52 L 515.18 459.55 L 516.36 459.54 L 517.53 459.52 L 518.71 459.54 L 519.89 459.54 L 521.07 459.55 L 522.24 459.57 L 523.42 459.56 L 524.60 459.53 L 525.78 459.55 L 526.96 459.51 L 528.13 459.56 L 529.31 459.55 L 530.49 459.54 L 531.67 459.55 L 532.84 459.55 L 534.02 459.53 L 535.20 459.55 L 536.38 459.54 L 537.56 460.27 L 538.73 460.46 L 539.91 463.42 L 541.09 455.73 L 542.27 457.63 L 543.44 457.80 L 544.62 456.64 L 545.80 455.24 L 546.98 455.98 L 548.16 453.22 L 549.33 451.63 L 550.51 450.60 L 551.69 450.29 L 552.87 450.07 L 554.04 450.21 L 555.22 450.45 L 556.40 450.46 L 557.58 450.61 L 558.76 450.65 L 559.93 450.62 L 561.11 450.55 L 562.29 450.66 L 563.47 450.60 L 564.64 450.60 L 565.82 450.60 L 567.00 450.61 L 568.18 450.67 L 569.36 450.58 L 570.53 450.64 L 571.71 450.55 L 572.89 450.63 L 574.07 450.59 L 575.24 450.62 L 576.42 450.55 L 577.60 450.64 L 578.78 450.56 L 579.96 450.67 L 581.13 450.57 L 582.31 450.63 L 583.49 450.57 L 584.67 450.61 L 585.84 450.57 L 587.02 450.59 L 588.20 450.62 L 589.38 450.61 L 590.56 450.61 L 591.73 450.56 L 592.91 450.61 L 594.09 450.58 L 595.27 450.58 L 596.44 450.61 L 597.62 450.59 L 598.80 450.57 L 599.98 450.60 L 601.16 450.55 L 602.33 450.66 L 603.51 450.59 L 604.69 450.65 L 605.87 450.61 L 607.04 450.68 L 608.22 450.56 L 609.40 450.65 L 610.58 450.55 L 611.76 450.60 L 612.93 450.52 L 614.11 450.55 L 615.29 450.52 L 616.47 450.64 L 617.64 450.60 L 618.82 450.64 L 620.00 450.63 L 621.18 450.58 L 622.36 450.55 L 623.53 450.59 L 624.71 450.57 L 625.89 450.65 L 627.07 450.54 L 628.24 450.58 L 629.42 450.56 L 630.60 450.61 L 631.78 450.62 L 632.96 450.60 L 634.13 450.59 L 635.31 450.59 L 636.49 450.57 L 637.67 450.61 L 638.84 450.64 L 640.02 450.63 L 641.20 450.59 L 642.38 450.60 L 643.56 450.62 L 644.73 450.60 L 645.91 450.60 L 647.09 450.58 L 648.27 450.59 L 649.44 450.60 L 650.62 450.59 L 651.80 450.66 L 652.98 450.65 L 654.16 450.64 L 655.33 450.63 L 656.51 450.66 L 657.69 450.61 L 658.87 450.61 L 660.04 450.55 L 661.22 450.60 L 662.40 450.59 L 663.58 450.62 L 664.76 450.59 L 665.93 450.68 L 667.11 450.60 L 668.29 450.65 L 669.47 450.58 L 670.64 450.68 L 671.82 450.63 L 673.00 450.70 L 674.18 450.63 L 675.36 450.65 L 676.53 450.63 L 677.71 450.55 L 678.89 450.63 L 680.07 450.56 L 681.24 450.62 L 682.42 450.62 L 683.60 450.60 L 684.78 450.56 L 685.96 450.55 L 687.13 450.57 L 688.31 450.56 L 689.49 450.56 L 690.67 450.59 L 691.84 450.58 L 693.02 450.63 L 694.20 450.60 L 695.38 450.68 L 696.56 450.59 L 697.73 450.65 L 698.91 450.54 L 700.09 450.82 L 701.27 450.63 L 702.44 450.52 L 703.62 450.55 L 704.80 450.53 L 705.98 450.65 L 707.16 450.59 L 708.33 450.52 L 709.51 450.54 L 710.69 450.54 L 711.87 450.48 L 713.04 450.48 L 714.22 450.53 L 715.40 450.57 L 716.58 450.51 L 717.76 450.58 L 718.93 450.58 L 720.11 450.61 L 721.29 450.54 L 722.47 450.54 L 723.64 450.48 L 724.82 450.54 L 726.00 450.47 L 727.18 450.52 L 728.36 450.53 L 729.53 450.55 L 730.71 450.48 L 731.89 450.52 L 733.07 450.48 L 734.24 450.56 L 735.42 450.48 L 736.60 450.57 L 737.78 450.48 L 738.96 450.53 L 740.13 450.43 L 741.31 450.51 L 742.49 450.47 L 743.67 450.54 L 744.84 450.50 L 746.02 450.53 L 747.20 450.52 L 748.38 450.49 L 749.56 450.47 L 750.73 450.55 L 751.91 450.52 L 753.09 450.51 L 754.27 450.55 L 755.44 450.49 L 756.62 450.51 L 757.80 450.53 L 758.98 450.55 L 760.16 450.47 L 761.33 450.55 L 762.51 450.48 L 763.69 450.50 L 764.87 450.53 L 766.04 450.50 L 767.22 450.51 L 768.40 450.48 L 769.58 450.54 L 770.76 450.53 L 771.93 450.50 L 773.11 450.49 L 774.29 450.54 L 775.47 450.48 L 776.64 450.47 L 777.82 450.44 L 779.00 450.48 L 780.18 450.46 L 781.36 450.52 L 782.53 450.49 L 783.71 450.55 L 784.89 450.48 L 786.07 450.52 L 787.24 450.49 L 788.42 450.53 L 789.60 450.46 L 790.78 450.50 L 791.96 450.46 L 793.13 450.52 L 794.31 450.43 L 795.49 450.53 L 796.67 450.53 L 797.84 450.49 L 799.02 450.47 L 800.20 450.50 L 801.38 450.52 L 802.56 450.57 L 803.73 450.48 L 804.91 450.53 L 806.09 450.46 L 807.27 450.51 L 808.44 450.53 L 809.62 450.54 L 810.80 450.54 L 811.98 450.51 L 813.16 450.49 L 814.33 450.51 L 815.51 450.48 L 816.69 450.58 L 817.87 450.54 L 819.04 450.52 L 820.22 450.58 L 821.40 450.67 L 822.58 450.78 L 823.76 450.57 L 824.93 450.48 L 826.11 450.66 L 827.29 450.70 L 828.47 450.33 L 829.64 450.47 L 830.82 450.60 L 832.00 450.57 L 833.18 450.41 L 834.36 451.29 L 835.53 449.60 L 836.71 442.00 L 837.89 445.87 L 839.07 446.73 L 840.24 464.38 L 841.42 466.02 L 842.60 453.55 L 843.78 454.38 L 844.96 455.12 L 846.13 456.51 L 847.31 456.57 L 848.49 456.83 L 849.67 456.59 L 850.84 456.59 L 852.02 456.48 L 853.20 456.53 L 854.38 456.46 L 855.56 456.48 L 856.73 456.94 L 857.91 457.79 L 859.09 456.41 L 860.27 457.09 L 861.44 456.70 L 862.62 456.87 L 863.80 456.91 L 864.98 457.05 L 866.16 456.94 L 867.33 456.99 L 868.51 456.95 L 869.69 456.19 L 870.87 457.45 L 872.04 457.17 L 873.22 457.13 L 874.40 457.24 L 875.58 457.38 L 876.76 457.26 L 877.93 457.26 L 879.11 457.27 L 880.29 457.30 L 881.47 457.18 L 882.64 457.20 L 883.82 457.45 L 885.00 456.88 L 886.18 457.17 L 887.36 456.88 L 888.53 457.99 L 889.71 458.04 L 890.89 458.00 L 892.07 458.10 L 893.24 458.05 L 894.42 458.08 L 895.60 458.01 L 896.78 458.07 L 897.96 458.11 L 899.13 458.09 L 900.31 458.02 L 901.49 458.14 L 902.67 459.82 L 903.84 456.42 L 905.02 456.53 L 906.20 456.72 L 907.38 456.84 L 908.56 456.74 L 909.73 456.82 L 910.91 456.80 L 912.09 456.80 L 913.27 456.80 L 914.44 456.82 L 915.62 456.82 L 916.80 456.78 L 917.98 457.17 L 919.16 457.16 L 920.33 458.16 L 921.51 457.82 L 922.69 457.69 L 923.87 457.55 L 925.04 457.52 L 926.22 457.59 L 927.40 457.61 L 928.58 457.62 L 929.76 457.61 L 930.93 457.60 L 932.11 457.03 L 933.29 458.17 L 934.47 458.26 L 935.64 458.17 L 936.82 457.95 L 938.00 455.86 L 939.18 457.51 L 940.36 462.09" stroke="#6A1B9A" />
<line x1="900.00" y1="307.75" x2="918.00" y2="307.75" stroke="#2E7D32" stroke-width="3" />
<text class="small" x="924.00" y="311.75">pitch</text>
<line x1="900.00" y1="323.75" x2="918.00" y2="323.75" stroke="#6A1B9A" stroke-width="3" />
<text class="small" x="924.00" y="327.75">roll</text>
<text x="90" y="500.50" font-size="14" font-weight="700">Aceleração (magnitude) (u.a.)</text>
<rect class="event" x="266.67" y="506.50" width="568.28" height="192.75" />
<line class="eventline" x1="266.67" y1="506.50" x2="266.67" y2="699.25" />
<line class="eventline" x1="834.94" y1="506.50" x2="834.94" y2="699.25" />
<line class="grid" x1="90" y1="699.25" x2="1150" y2="699.25" />
<text class="small" x="80" y="703.25" text-anchor="end">0.00</text>
<line class="grid" x1="90" y1="660.70" x2="1150" y2="660.70" />
<text class="small" x="80" y="664.70" text-anchor="end">0.20</text>
<line class="grid" x1="90" y1="622.15" x2="1150" y2="622.15" />
<text class="small" x="80" y="626.15" text-anchor="end">0.40</text>
<line class="grid" x1="90" y1="583.60" x2="1150" y2="583.60" />
<text class="small" x="80" y="587.60" text-anchor="end">0.60</text>
<line class="grid" x1="90" y1="545.05" x2="1150" y2="545.05" />
<text class="small" x="80" y="549.05" text-anchor="end">0.80</text>
<line class="grid" x1="90" y1="506.50" x2="1150" y2="506.50" />
<text class="small" x="80" y="510.50" text-anchor="end">1.00</text>
<line class="grid" x1="90.00" y1="506.50" x2="90.00" y2="699.25" />
<line class="grid" x1="266.67" y1="506.50" x2="266.67" y2="699.25" />
<line class="grid" x1="443.33" y1="506.50" x2="443.33" y2="699.25" />
<line class="grid" x1="620.00" y1="506.50" x2="620.00" y2="699.25" />
<line class="grid" x1="796.67" y1="506.50" x2="796.67" y2="699.25" />
<line class="grid" x1="973.33" y1="506.50" x2="973.33" y2="699.25" />
<line class="grid" x1="1150.00" y1="506.50" x2="1150.00" y2="699.25" />
<line class="axis" x1="90" y1="506.50" x2="90" y2="699.25" />
<line class="axis" x1="90" y1="699.25" x2="1150" y2="699.25" />
<path class="series" d="M 160.67 618.96 L 161.84 627.57 L 163.02 593.04 L 164.20 611.40 L 165.38 616.58 L 166.56 613.82 L 167.73 575.32 L 168.91 641.03 L 170.09 654.47 L 171.27 652.19 L 172.44 651.48 L 173.62 595.12 L 174.80 583.36 L 175.98 572.99 L 177.16 624.09 L 178.33 656.33 L 179.51 682.18 L 180.69 646.55 L 181.87 643.82 L 183.04 688.61 L 184.22 653.94 L 185.40 659.57 L 186.58 670.06 L 187.76 683.08 L 188.93 689.15 L 190.11 653.71 L 191.29 678.92 L 192.47 646.91 L 193.64 685.99 L 194.82 664.37 L 196.00 689.77 L 197.18 697.57 L 198.36 697.73 L 199.53 698.45 L 200.71 698.69 L 201.89 695.12 L 203.07 697.31 L 204.24 692.80 L 205.42 697.99 L 206.60 698.12 L 207.78 698.96 L 208.96 698.53 L 210.13 698.76 L 211.31 698.92 L 212.49 699.04 L 213.67 698.96 L 214.84 698.59 L 216.02 641.27 L 217.20 604.15 L 218.38 646.95 L 219.56 645.58 L 220.73 620.04 L 221.91 653.47 L 223.09 679.95 L 224.27 661.10 L 225.44 679.34 L 226.62 649.19 L 227.80 689.03 L 228.98 692.20 L 230.16 679.52 L 231.33 639.97 L 232.51 561.65 L 233.69 529.70 L 234.87 601.09 L 236.04 612.79 L 237.22 668.98 L 238.40 674.45 L 239.58 661.63 L 240.76 654.66 L 241.93 674.15 L 243.11 674.60 L 244.29 671.74 L 245.47 686.33 L 246.64 690.32 L 247.82 685.79 L 249.00 682.97 L 250.18 670.24 L 251.36 673.55 L 252.53 695.72 L 253.71 688.46 L 254.89 688.37 L 256.07 558.27 L 257.24 646.33 L 258.42 642.23 L 259.60 669.87 L 260.78 692.92 L 261.96 682.44 L 263.13 685.38 L 264.31 686.57 L 265.49 682.49 L 266.67 676.82 L 267.84 687.93 L 269.02 688.40 L 270.20 697.09 L 271.38 697.67 L 272.56 698.24 L 273.73 698.54 L 274.91 698.36 L 276.09 698.92 L 277.27 698.84 L 278.44 698.62 L 279.62 698.99 L 280.80 698.73 L 281.98 698.52 L 283.16 698.63 L 284.33 698.41 L 285.51 699.09 L 286.69 698.19 L 287.87 698.43 L 289.04 698.81 L 290.22 698.81 L 291.40 698.40 L 292.58 697.93 L 293.76 698.97 L 294.93 698.64 L 296.11 699.13 L 297.29 698.97 L 298.47 699.10 L 299.64 698.59 L 300.82 698.78 L 302.00 698.54 L 303.18 698.91 L 304.36 698.80 L 305.53 698.68 L 306.71 698.82 L 307.89 699.00 L 309.07 698.90 L 310.24 698.75 L 311.42 698.95 L 312.60 699.11 L 313.78 699.03 L 314.96 698.79 L 316.13 699.10 L 317.31 698.69 L 318.49 699.08 L 319.67 698.81 L 320.84 698.67 L 322.02 699.06 L 323.20 698.55 L 324.38 698.80 L 325.56 699.08 L 326.73 698.93 L 327.91 698.88 L 329.09 698.66 L 330.27 698.92 L 331.44 698.88 L 332.62 699.00 L 333.80 698.92 L 334.98 698.25 L 336.16 698.74 L 337.33 698.67 L 338.51 699.08 L 339.69 699.06 L 340.87 698.99 L 342.04 698.42 L 343.22 699.02 L 344.40 699.09 L 345.58 698.96 L 346.76 699.07 L 347.93 698.80 L 349.11 698.94 L 350.29 698.92 L 351.47 698.81 L 352.64 699.06 L 353.82 698.54 L 355.00 698.90 L 356.18 698.74 L 357.36 698.90 L 358.53 698.82 L 359.71 698.65 L 360.89 698.58 L 362.07 699.09 L 363.24 698.91 L 364.42 698.91 L 365.60 698.87 L 366.78 698.61 L 367.96 698.93 L 369.13 698.80 L 370.31 698.65 L 371.49 698.68 L 372.67 698.77 L 373.84 699.04 L 375.02 698.51 L 376.20 698.95 L 377.38 698.84 L 378.56 699.01 L 379.73 699.07 L 380.91 698.90 L 382.09 698.89 L 383.27 698.68 L 384.44 698.75 L 385.62 699.08 L 386.80 698.71 L 387.98 698.86 L 389.16 698.81 L 390.33 698.78 L 391.51 699.01 L 392.69 698.97 L 393.87 699.04 L 395.04 698.48 L 396.22 698.79 L 397.40 698.52 L 398.58 698.78 L 399.76 698.92 L 400.93 698.84 L 402.11 698.75 L 403.29 698.98 L 404.47 698.92 L 405.64 698.86 L 406.82 698.47 L 408.00 698.73 L 409.18 698.60 L 410.36 698.63 L 411.53 698.76 L 412.71 698.78 L 413.89 698.84 L 415.07 698.76 L 416.24 698.48 L 417.42 698.68 L 418.60 698.58 L 419.78 698.80 L 420.96 698.35 L 422.13 698.25 L 423.31 698.79 L 424.49 698.68 L 425.67 698.68 L 426.84 698.86 L 428.02 698.58 L 429.20 698.63 L 430.38 698.81 L 431.56 698.74 L 432.73 698.88 L 433.91 698.80 L 435.09 698.96 L 436.27 698.93 L 437.44 698.99 L 438.62 698.86 L 439.80 698.44 L 440.98 699.07 L 442.16 698.98 L 443.33 698.99 L 444.51 698.95 L 445.69 698.66 L 446.87 698.76 L 448.04 699.01 L 449.22 698.81 L 450.40 698.78 L 451.58 698.48 L 452.76 698.93 L 453.93 699.13 L 455.11 698.97 L 456.29 692.31 L 457.47 695.35 L 458.64 692.64 L 459.82 687.64 L 461.00 694.34 L 462.18 694.40 L 463.36 687.86 L 464.53 690.27 L 465.71 694.73 L 466.89 687.64 L 468.07 689.09 L 469.24 678.16 L 470.42 696.70 L 471.60 698.20 L 472.78 671.57 L 473.96 698.81 L 475.13 698.86 L 476.31 698.90 L 477.49 699.01 L 478.67 698.56 L 479.84 698.84 L 481.02 698.73 L 482.20 698.86 L 483.38 698.92 L 484.56 698.74 L 485.73 698.70 L 486.91 699.11 L 488.09 698.83 L 489.27 698.99 L 490.44 698.85 L 491.62 698.75 L 492.80 698.82 L 493.98 698.42 L 495.16 699.08 L 496.33 698.85 L 497.51 698.63 L 498.69 699.00 L 499.87 698.89 L 501.04 698.74 L 502.22 698.89 L 503.40 699.07 L 504.58 699.03 L 505.76 698.54 L 506.93 698.55 L 508.11 698.77 L 509.29 699.12 L 510.47 699.07 L 511.64 698.63 L 512.82 699.11 L 514.00 698.91 L 515.18 698.93 L 516.36 698.49 L 517.53 698.74 L 518.71 698.98 L 519.89 698.78 L 521.07 698.83 L 522.24 699.12 L 523.42 698.83 L 524.60 698.79 L 525.78 699.02 L 526.96 698.77 L 528.13 698.85 L 529.31 698.93 L 530.49 698.94 L 531.67 698.94 L 532.84 698.92 L 534.02 698.70 L 535.20 698.85 L 536.38 698.53 L 537.56 696.89 L 538.73 698.08 L 539.91 672.27 L 541.09 682.04 L 542.27 691.05 L 543.44 689.25 L 544.62 686.79 L 545.80 690.76 L 546.98 688.12 L 548.16 688.74 L 549.33 688.45 L 550.51 672.62 L 551.69 689.25 L 552.87 679.87 L 554.04 681.22 L 555.22 697.81 L 556.40 698.40 L 557.58 698.84 L 558.76 698.19 L 559.93 698.84 L 561.11 698.22 L 562.29 698.67 L 563.47 698.81 L 564.64 698.79 L 565.82 698.68 L 567.00 698.78 L 568.18 698.83 L 569.36 699.00 L 570.53 698.70 L 571.71 699.01 L 572.89 699.10 L 574.07 699.00 L 575.24 698.97 L 576.42 699.06 L 577.60 699.04 L 578.78 699.05 L 579.96 699.00 L 581.13 698.65 L 582.31 698.67 L 583.49 698.93 L 584.67 699.01 L 585.84 698.58 L 587.02 699.15 L 588.20 699.01 L 589.38 699.02 L 590.56 698.72 L 591.73 698.89 L 592.91 698.67 L 594.09 699.13 L 595.27 699.02 L 596.44 698.90 L 597.62 699.03 L 598.80 698.87 L 599.98 698.95 L 601.16 698.84 L 602.33 698.78 L 603.51 698.80 L 604.69 698.81 L 605.87 698.81 L 607.04 698.98 L 608.22 698.88 L 609.40 699.22 L 610.58 698.05 L 611.76 698.96 L 612.93 698.91 L 614.11 698.84 L 615.29 698.83 L 616.47 698.71 L 617.64 698.54 L 618.82 698.80 L 620.00 698.86 L 621.18 698.84 L 622.36 698.90 L 623.53 698.60 L 624.71 698.76 L 625.89 698.99 L 627.07 698.94 L 628.24 698.89 L 629.42 698.97 L 630.60 699.02 L 631.78 699.10 L 632.96 698.91 L 634.13 698.95 L 635.31 699.02 L 636.49 698.69 L 637.67 698.74 L 638.84 698.85 L 640.02 698.90 L 641.20 698.71 L 642.38 698.79 L 643.56 698.86 L 644.73 698.70 L 645.91 698.93 L 647.09 699.04 L 648.27 698.96 L 649.44 698.83 L 650.62 698.77 L 651.80 698.84 L 652.98 698.93 L 654.16 699.00 L 655.33 698.90 L 656.51 698.51 L 657.69 698.67 L 658.87 698.89 L 660.04 699.01 L 661.22 699.14 L 662.40 698.85 L 663.58 699.01 L 664.76 699.07 L 665.93 699.02 L 667.11 698.96 L 668.29 699.03 L 669.47 699.11 L 670.64 698.74 L 671.82 698.59 L 673.00 698.97 L 674.18 699.12 L 675.36 698.81 L 676.53 698.94 L 677.71 698.95 L 678.89 698.61 L 680.07 698.83 L 681.24 698.75 L 682.42 698.73 L 683.60 699.05 L 684.78 699.07 L 685.96 699.14 L 687.13 698.76 L 688.31 698.33 L 689.49 699.12 L 690.67 698.72 L 691.84 698.76 L 693.02 698.84 L 694.20 698.79 L 695.38 698.72 L 696.56 698.93 L 697.73 698.33 L 698.91 698.70 L 700.09 698.39 L 701.27 698.68 L 702.44 698.60 L 703.62 698.46 L 704.80 696.64 L 705.98 698.78 L 707.16 698.73 L 708.33 698.99 L 709.51 699.00 L 710.69 698.94 L 711.87 698.74 L 713.04 698.52 L 714.22 698.98 L 715.40 698.67 L 716.58 699.02 L 717.76 698.61 L 718.93 698.85 L 720.11 699.06 L 721.29 698.93 L 722.47 698.73 L 723.64 698.73 L 724.82 698.96 L 726.00 698.69 L 727.18 698.79 L 728.36 698.88 L 729.53 698.67 L 730.71 699.10 L 731.89 699.06 L 733.07 698.89 L 734.24 698.92 L 735.42 698.99 L 736.60 698.56 L 737.78 698.71 L 738.96 699.08 L 740.13 698.96 L 741.31 698.60 L 742.49 698.83 L 743.67 698.99 L 744.84 698.61 L 746.02 699.22 L 747.20 698.96 L 748.38 698.95 L 749.56 698.64 L 750.73 698.20 L 751.91 698.49 L 753.09 698.15 L 754.27 697.95 L 755.44 698.69 L 756.62 698.85 L 757.80 698.73 L 758.98 698.92 L 760.16 698.82 L 761.33 698.54 L 762.51 698.92 L 763.69 698.61 L 764.87 699.03 L 766.04 698.84 L 767.22 698.95 L 768.40 698.95 L 769.58 698.76 L 770.76 699.11 L 771.93 698.94 L 773.11 698.88 L 774.29 698.66 L 775.47 698.57 L 776.64 698.76 L 777.82 698.82 L 779.00 698.74 L 780.18 698.86 L 781.36 698.86 L 782.53 698.74 L 783.71 698.96 L 784.89 698.91 L 786.07 699.01 L 787.24 699.02 L 788.42 698.64 L 789.60 699.04 L 790.78 698.99 L 791.96 698.64 L 793.13 698.67 L 794.31 698.50 L 795.49 698.85 L 796.67 698.90 L 797.84 698.92 L 799.02 698.69 L 800.20 698.87 L 801.38 698.95 L 802.56 698.81 L 803.73 699.00 L 804.91 698.50 L 806.09 698.99 L 807.27 698.85 L 808.44 698.61 L 809.62 699.14 L 810.80 698.79 L 811.98 698.80 L 813.16 698.41 L 814.33 698.69 L 815.51 698.77 L 816.69 698.74 L 817.87 698.73 L 819.04 698.11 L 820.22 698.05 L 821.40 698.29 L 822.58 698.70 L 823.76 696.19 L 824.93 698.66 L 826.11 697.98 L 827.29 698.53 L 828.47 697.15 L 829.64 697.77 L 830.82 698.30 L 832.00 698.66 L 833.18 698.73 L 834.36 607.58 L 835.53 610.16 L 836.71 627.37 L 837.89 622.24 L 839.07 630.80 L 840.24 674.23 L 841.42 607.32 L 842.60 622.55 L 843.78 617.42 L 844.96 652.76 L 846.13 692.10 L 847.31 689.11 L 848.49 696.84 L 849.67 698.21 L 850.84 698.71 L 852.02 698.68 L 853.20 698.92 L 854.38 699.03 L 855.56 698.99 L 856.73 690.17 L 857.91 672.40 L 859.09 694.80 L 860.27 698.82 L 861.44 698.51 L 862.62 698.17 L 863.80 698.48 L 864.98 698.74 L 866.16 698.79 L 867.33 698.92 L 868.51 698.78 L 869.69 686.46 L 870.87 693.16 L 872.04 697.52 L 873.22 698.82 L 874.40 698.14 L 875.58 698.76 L 876.76 698.86 L 877.93 698.91 L 879.11 698.88 L 880.29 698.86 L 881.47 698.88 L 882.64 698.97 L 883.82 696.03 L 885.00 697.99 L 886.18 698.63 L 887.36 695.33 L 888.53 693.93 L 889.71 697.30 L 890.89 698.17 L 892.07 698.92 L 893.24 698.81 L 894.42 698.84 L 895.60 698.78 L 896.78 698.81 L 897.96 698.93 L 899.13 699.04 L 900.31 698.85 L 901.49 699.03 L 902.67 684.37 L 903.84 697.83 L 905.02 695.68 L 906.20 697.99 L 907.38 698.41 L 908.56 698.42 L 909.73 698.56 L 910.91 698.71 L 912.09 698.76 L 913.27 698.88 L 914.44 698.94 L 915.62 698.74 L 916.80 699.08 L 917.98 694.62 L 919.16 687.06 L 920.33 695.01 L 921.51 697.16 L 922.69 698.41 L 923.87 698.90 L 925.04 698.33 L 926.22 698.73 L 927.40 698.73 L 928.58 698.78 L 929.76 698.86 L 930.93 695.36 L 932.11 695.77 L 933.29 691.15 L 934.47 698.12 L 935.64 678.73 L 936.82 649.36 L 938.00 641.40 L 939.18 643.00 L 940.36 660.95" stroke="#FB8C00" />
<text x="90" y="711.25" font-size="14" font-weight="700">Giroscópio (magnitude) (u.a.)</text>
<rect class="event" x="266.67" y="717.25" width="568.28" height="192.75" />
<line class="eventline" x1="266.67" y1="717.25" x2="266.67" y2="910.00" />
<line class="eventline" x1="834.94" y1="717.25" x2="834.94" y2="910.00" />
<line class="grid" x1="90" y1="910.00" x2="1150" y2="910.00" />
<text class="small" x="80" y="914.00" text-anchor="end">0.00</text>
<line class="grid" x1="90" y1="871.45" x2="1150" y2="871.45" />
<text class="small" x="80" y="875.45" text-anchor="end">0.05</text>
<line class="grid" x1="90" y1="832.90" x2="1150" y2="832.90" />
<text class="small" x="80" y="836.90" text-anchor="end">0.10</text>
<line class="grid" x1="90" y1="794.35" x2="1150" y2="794.35" />
<text class="small" x="80" y="798.35" text-anchor="end">0.15</text>
<line class="grid" x1="90" y1="755.80" x2="1150" y2="755.80" />
<text class="small" x="80" y="759.80" text-anchor="end">0.20</text>
<line class="grid" x1="90" y1="717.25" x2="1150" y2="717.25" />
<text class="small" x="80" y="721.25" text-anchor="end">0.25</text>
<line class="grid" x1="90.00" y1="717.25" x2="90.00" y2="910.00" />
<line class="grid" x1="266.67" y1="717.25" x2="266.67" y2="910.00" />
<line class="grid" x1="443.33" y1="717.25" x2="443.33" y2="910.00" />
<line class="grid" x1="620.00" y1="717.25" x2="620.00" y2="910.00" />
<line class="grid" x1="796.67" y1="717.25" x2="796.67" y2="910.00" />
<line class="grid" x1="973.33" y1="717.25" x2="973.33" y2="910.00" />
<line class="grid" x1="1150.00" y1="717.25" x2="1150.00" y2="910.00" />
<line class="axis" x1="90" y1="717.25" x2="90" y2="910.00" />
<line class="axis" x1="90" y1="910.00" x2="1150" y2="910.00" />
<path class="series" d="M 160.67 857.08 L 161.84 858.75 L 163.02 877.12 L 164.20 892.92 L 165.38 859.33 L 166.56 862.47 L 167.73 899.22 L 168.91 880.52 L 170.09 901.85 L 171.27 888.50 L 172.44 889.39 L 173.62 892.59 L 174.80 871.97 L 175.98 885.41 L 177.16 880.60 L 178.33 879.30 L 179.51 881.80 L 180.69 889.52 L 181.87 881.42 L 183.04 896.21 L 184.22 900.98 L 185.40 876.98 L 186.58 885.71 L 187.76 890.09 L 188.93 891.71 L 190.11 882.03 L 191.29 897.16 L 192.47 899.30 L 193.64 898.53 L 194.82 906.38 L 196.00 909.46 L 197.18 909.60 L 198.36 909.74 L 199.53 909.82 L 200.71 909.69 L 201.89 907.87 L 203.07 909.52 L 204.24 908.60 L 205.42 909.71 L 206.60 909.66 L 207.78 909.59 L 208.96 909.54 L 210.13 909.78 L 211.31 909.88 L 212.49 909.94 L 213.67 909.70 L 214.84 909.98 L 216.02 902.35 L 217.20 890.85 L 218.38 893.24 L 219.56 900.95 L 220.73 892.51 L 221.91 885.10 L 223.09 865.42 L 224.27 858.14 L 225.44 861.29 L 226.62 901.93 L 227.80 857.01 L 228.98 848.61 L 230.16 849.55 L 231.33 852.99 L 232.51 788.91 L 233.69 778.71 L 234.87 816.27 L 236.04 863.33 L 237.22 856.11 L 238.40 904.01 L 239.58 905.23 L 240.76 904.74 L 241.93 901.77 L 243.11 873.78 L 244.29 884.27 L 245.47 868.44 L 246.64 869.58 L 247.82 868.34 L 249.00 868.54 L 250.18 870.87 L 251.36 869.70 L 252.53 873.29 L 253.71 869.55 L 254.89 872.02 L 256.07 893.44 L 257.24 899.42 L 258.42 907.47 L 259.60 902.30 L 260.78 890.66 L 261.96 868.67 L 263.13 873.70 L 264.31 890.69 L 265.49 903.25 L 266.67 908.67 L 267.84 909.17 L 269.02 908.10 L 270.20 909.52 L 271.38 909.61 L 272.56 909.74 L 273.73 909.63 L 274.91 909.64 L 276.09 909.86 L 277.27 909.92 L 278.44 909.67 L 279.62 909.81 L 280.80 909.60 L 281.98 909.77 L 283.16 909.55 L 284.33 909.73 L 285.51 909.70 L 286.69 909.86 L 287.87 909.87 L 289.04 909.62 L 290.22 909.78 L 291.40 909.77 L 292.58 909.77 L 293.76 909.72 L 294.93 909.66 L 296.11 909.80 L 297.29 909.82 L 298.47 909.80 L 299.64 909.76 L 300.82 909.79 L 302.00 909.77 L 303.18 909.79 L 304.36 909.77 L 305.53 909.75 L 306.71 909.61 L 307.89 909.70 L 309.07 909.86 L 310.24 909.84 L 311.42 909.79 L 312.60 909.82 L 313.78 909.87 L 314.96 909.77 L 316.13 909.83 L 317.31 909.90 L 318.49 909.81 L 319.67 909.84 L 320.84 909.76 L 322.02 909.88 L 323.20 909.89 L 324.38 909.98 L 325.56 909.88 L 326.73 909.82 L 327.91 909.93 L 329.09 909.84 L 330.27 909.94 L 331.44 909.95 L 332.62 909.89 L 333.80 909.90 L 334.98 909.93 L 336.16 909.91 L 337.33 909.94 L 338.51 909.83 L 339.69 909.85 L 340.87 909.89 L 342.04 909.86 L 343.22 909.90 L 344.40 909.88 L 345.58 909.81 L 346.76 909.88 L 347.93 909.88 L 349.11 909.75 L 350.29 909.88 L 351.47 909.96 L 352.64 909.93 L 353.82 909.82 L 355.00 909.86 L 356.18 909.80 L 357.36 909.88 L 358.53 909.93 L 359.71 909.91 L 360.89 909.85 L 362.07 909.91 L 363.24 909.84 L 364.42 909.88 L 365.60 909.86 L 366.78 909.94 L 367.96 909.88 L 369.13 909.83 L 370.31 909.81 L 371.49 909.86 L 372.67 909.75 L 373.84 909.89 L 375.02 909.82 L 376.20 909.88 L 377.38 909.87 L 378.56 909.89 L 379.73 909.81 L 380.91 909.89 L 382.09 909.82 L 383.27 909.87 L 384.44 909.90 L 385.62 909.92 L 386.80 909.85 L 387.98 909.95 L 389.16 909.88 L 390.33 909.85 L 391.51 909.85 L 392.69 909.80 L 393.87 909.71 L 395.04 909.82 L 396.22 909.80 L 397.40 909.77 L 398.58 909.75 L 399.76 909.66 L 400.93 909.70 L 402.11 909.78 L 403.29 909.58 L 404.47 909.64 L 405.64 909.64 L 406.82 909.76 L 408.00 909.71 L 409.18 909.69 L 410.36 909.63 L 411.53 909.71 L 412.71 909.81 L 413.89 909.73 L 415.07 909.69 L 416.24 909.74 L 417.42 909.65 L 418.60 909.68 L 419.78 909.67 L 420.96 909.59 L 422.13 909.54 L 423.31 909.65 L 424.49 909.55 L 425.67 909.70 L 426.84 909.70 L 428.02 909.97 L 429.20 909.78 L 430.38 909.89 L 431.56 909.86 L 432.73 909.89 L 433.91 909.94 L 435.09 909.96 L 436.27 909.92 L 437.44 909.79 L 438.62 909.81 L 439.80 909.81 L 440.98 909.85 L 442.16 909.85 L 443.33 909.77 L 444.51 909.80 L 445.69 909.86 L 446.87 909.74 L 448.04 909.88 L 449.22 909.90 L 450.40 909.83 L 451.58 909.90 L 452.76 909.76 L 453.93 909.93 L 455.11 909.82 L 456.29 909.02 L 457.47 909.11 L 458.64 903.26 L 459.82 906.20 L 461.00 905.95 L 462.18 895.04 L 463.36 889.71 L 464.53 885.28 L 465.71 886.96 L 466.89 886.92 L 468.07 899.22 L 469.24 909.19 L 470.42 909.55 L 471.60 908.69 L 472.78 909.34 L 473.96 909.82 L 475.13 909.90 L 476.31 909.86 L 477.49 909.95 L 478.67 909.86 L 479.84 909.95 L 481.02 909.98 L 482.20 909.80 L 483.38 909.86 L 484.56 909.89 L 485.73 909.88 L 486.91 909.82 L 488.09 909.82 L 489.27 909.93 L 490.44 909.87 L 491.62 909.87 L 492.80 909.90 L 493.98 909.83 L 495.16 909.79 L 496.33 909.94 L 497.51 909.85 L 498.69 909.80 L 499.87 909.80 L 501.04 909.83 L 502.22 909.86 L 503.40 909.80 L 504.58 909.85 L 505.76 909.85 L 506.93 909.92 L 508.11 909.87 L 509.29 909.60 L 510.47 909.74 L 511.64 909.72 L 512.82 909.83 L 514.00 909.76 L 515.18 909.94 L 516.36 909.81 L 517.53 909.73 L 518.71 909.76 L 519.89 909.82 L 521.07 909.81 L 522.24 909.86 L 523.42 909.76 L 524.60 909.81 L 525.78 909.81 L 526.96 909.73 L 528.13 909.73 L 529.31 909.77 L 530.49 909.88 L 531.67 909.80 L 532.84 909.84 L 534.02 909.75 L 535.20 909.92 L 536.38 908.49 L 537.56 909.36 L 538.73 909.76 L 539.91 894.07 L 541.09 902.85 L 542.27 901.75 L 543.44 896.59 L 544.62 894.33 L 545.80 896.06 L 546.98 899.84 L 548.16 903.58 L 549.33 908.25 L 550.51 908.99 L 551.69 909.47 L 552.87 906.99 L 554.04 909.45 L 555.22 909.86 L 556.40 909.80 L 557.58 909.92 L 558.76 909.93 L 559.93 909.79 L 561.11 909.82 L 562.29 909.90 L 563.47 909.88 L 564.64 909.86 L 565.82 909.76 L 567.00 909.85 L 568.18 909.93 L 569.36 909.91 L 570.53 909.93 L 571.71 909.90 L 572.89 909.90 L 574.07 909.86 L 575.24 909.86 L 576.42 909.85 L 577.60 909.90 L 578.78 909.93 L 579.96 909.95 L 581.13 909.92 L 582.31 909.89 L 583.49 909.89 L 584.67 909.93 L 585.84 909.95 L 587.02 909.94 L 588.20 909.87 L 589.38 909.86 L 590.56 909.90 L 591.73 909.89 L 592.91 909.89 L 594.09 909.87 L 595.27 909.82 L 596.44 909.83 L 597.62 909.96 L 598.80 909.91 L 599.98 909.84 L 601.16 909.94 L 602.33 909.83 L 603.51 909.89 L 604.69 909.92 L 605.87 909.89 L 607.04 909.96 L 608.22 909.76 L 609.40 909.88 L 610.58 909.82 L 611.76 909.80 L 612.93 909.90 L 614.11 909.78 L 615.29 909.92 L 616.47 909.87 L 617.64 909.90 L 618.82 909.86 L 620.00 909.86 L 621.18 909.81 L 622.36 909.97 L 623.53 909.94 L 624.71 909.87 L 625.89 909.97 L 627.07 909.98 L 628.24 909.87 L 629.42 909.88 L 630.60 909.78 L 631.78 909.80 L 632.96 909.89 L 634.13 909.85 L 635.31 909.85 L 636.49 909.92 L 637.67 909.85 L 638.84 909.87 L 640.02 909.85 L 641.20 909.86 L 642.38 909.97 L 643.56 909.95 L 644.73 909.80 L 645.91 909.78 L 647.09 909.91 L 648.27 909.90 L 649.44 909.83 L 650.62 909.85 L 651.80 909.90 L 652.98 909.83 L 654.16 909.86 L 655.33 909.89 L 656.51 909.85 L 657.69 909.87 L 658.87 909.90 L 660.04 909.84 L 661.22 909.92 L 662.40 909.70 L 663.58 909.82 L 664.76 909.83 L 665.93 909.88 L 667.11 909.82 L 668.29 909.86 L 669.47 909.78 L 670.64 909.67 L 671.82 909.58 L 673.00 909.58 L 674.18 909.83 L 675.36 909.93 L 676.53 909.83 L 677.71 909.90 L 678.89 909.85 L 680.07 909.94 L 681.24 909.81 L 682.42 909.92 L 683.60 909.99 L 684.78 909.89 L 685.96 909.87 L 687.13 909.87 L 688.31 909.89 L 689.49 909.93 L 690.67 909.85 L 691.84 909.86 L 693.02 909.90 L 694.20 909.82 L 695.38 909.96 L 696.56 909.66 L 697.73 909.60 L 698.91 909.64 L 700.09 909.56 L 701.27 909.74 L 702.44 909.42 L 703.62 909.67 L 704.80 909.72 L 705.98 909.94 L 707.16 909.82 L 708.33 909.79 L 709.51 909.83 L 710.69 909.79 L 711.87 909.83 L 713.04 909.90 L 714.22 909.81 L 715.40 909.88 L 716.58 909.78 L 717.76 909.80 L 718.93 909.85 L 720.11 909.85 L 721.29 909.83 L 722.47 909.75 L 723.64 909.86 L 724.82 909.91 L 726.00 909.96 L 727.18 909.77 L 728.36 909.84 L 729.53 909.79 L 730.71 909.88 L 731.89 909.85 L 733.07 909.94 L 734.24 909.75 L 735.42 909.82 L 736.60 909.69 L 737.78 909.92 L 738.96 909.90 L 740.13 909.81 L 741.31 909.87 L 742.49 909.78 L 743.67 909.80 L 744.84 909.91 L 746.02 909.88 L 747.20 909.80 L 748.38 909.92 L 749.56 909.78 L 750.73 909.85 L 751.91 909.78 L 753.09 909.84 L 754.27 909.69 L 755.44 909.78 L 756.62 909.90 L 757.80 909.76 L 758.98 909.85 L 760.16 909.89 L 761.33 909.95 L 762.51 909.91 L 763.69 909.83 L 764.87 909.89 L 766.04 909.84 L 767.22 909.85 L 768.40 909.91 L 769.58 909.94 L 770.76 909.92 L 771.93 909.87 L 773.11 909.87 L 774.29 909.90 L 775.47 909.86 L 776.64 909.83 L 777.82 909.86 L 779.00 909.88 L 780.18 909.92 L 781.36 909.92 L 782.53 909.81 L 783.71 909.88 L 784.89 909.89 L 786.07 909.93 L 787.24 909.88 L 788.42 909.85 L 789.60 909.86 L 790.78 909.89 L 791.96 909.90 L 793.13 909.87 L 794.31 909.78 L 795.49 909.97 L 796.67 909.83 L 797.84 909.97 L 799.02 909.87 L 800.20 909.85 L 801.38 909.94 L 802.56 909.91 L 803.73 909.91 L 804.91 909.92 L 806.09 909.84 L 807.27 909.94 L 808.44 909.92 L 809.62 909.91 L 810.80 909.86 L 811.98 909.96 L 813.16 909.96 L 814.33 909.87 L 815.51 909.92 L 816.69 909.88 L 817.87 909.78 L 819.04 909.81 L 820.22 909.80 L 821.40 909.48 L 822.58 909.72 L 823.76 909.73 L 824.93 909.89 L 826.11 909.76 L 827.29 909.68 L 828.47 909.12 L 829.64 909.81 L 830.82 909.86 L 832.00 909.85 L 833.18 909.91 L 834.36 901.91 L 835.53 897.06 L 836.71 862.16 L 837.89 886.93 L 839.07 891.96 L 840.24 873.69 L 841.42 861.15 L 842.60 885.62 L 843.78 891.90 L 844.96 906.33 L 846.13 909.44 L 847.31 908.87 L 848.49 909.74 L 849.67 909.82 L 850.84 909.81 L 852.02 909.90 L 853.20 909.82 L 854.38 909.95 L 855.56 909.94 L 856.73 909.18 L 857.91 905.30 L 859.09 908.90 L 860.27 909.45 L 861.44 909.61 L 862.62 909.74 L 863.80 909.87 L 864.98 909.36 L 866.16 909.90 L 867.33 909.85 L 868.51 909.86 L 869.69 907.76 L 870.87 909.74 L 872.04 909.88 L 873.22 909.79 L 874.40 909.83 L 875.58 909.88 L 876.76 909.86 L 877.93 909.80 L 879.11 909.91 L 880.29 909.91 L 881.47 909.89 L 882.64 909.96 L 883.82 909.53 L 885.00 909.88 L 886.18 909.81 L 887.36 908.28 L 888.53 909.26 L 889.71 909.79 L 890.89 909.82 L 892.07 909.94 L 893.24 909.84 L 894.42 909.80 L 895.60 909.67 L 896.78 909.65 L 897.96 909.91 L 899.13 909.98 L 900.31 909.95 L 901.49 909.88 L 902.67 904.29 L 903.84 909.63 L 905.02 909.63 L 906.20 909.86 L 907.38 909.84 L 908.56 909.80 L 909.73 909.94 L 910.91 909.92 L 912.09 909.93 L 913.27 909.86 L 914.44 909.89 L 915.62 909.90 L 916.80 909.82 L 917.98 908.61 L 919.16 907.69 L 920.33 909.71 L 921.51 909.83 L 922.69 909.93 L 923.87 909.87 L 925.04 909.92 L 926.22 909.87 L 927.40 909.87 L 928.58 909.89 L 929.76 909.88 L 930.93 909.77 L 932.11 906.63 L 933.29 907.64 L 934.47 909.76 L 935.64 906.96 L 936.82 890.07 L 938.00 891.21 L 939.18 904.35 L 940.36 879.04" stroke="#E53935" />
<text x="620.00" y="952" font-size="15" text-anchor="middle">minutos (relativo ao início do evento)</text>
<text class="small" x="90.00" y="936" text-anchor="middle">-5.00</text>
<text class="small" x="266.67" y="936" text-anchor="middle">0.00</text>
<text class="small" x="443.33" y="936" text-anchor="middle">5.00</text>
<text class="small" x="620.00" y="936" text-anchor="middle">10.0</text>
<text class="small" x="796.67" y="936" text-anchor="middle">15.0</text>
<text class="small" x="973.33" y="936" text-anchor="middle">20.0</text>
<text class="small" x="1150.00" y="936" text-anchor="middle">25.0</text>
</svg>