<?xml version="1.0" encoding="UTF-8"?>
<svg xmlns="http://www.w3.org/2000/svg" width="1180" height="980" viewBox="0 0 1180 980">
<style>
text { font-family: -apple-system, BlinkMacSystemFont, 'Segoe UI', Roboto, Helvetica, Arial, sans-serif; fill: #111; }
.small { font-size: 12px; fill: #222; }
.title { font-size: 18px; font-weight: 700; }
.axis { stroke: #111; stroke-width: 1.4; }
.grid { stroke: #E6E6E6; stroke-width: 1; }
.event { fill: #FFEB3B; fill-opacity: 0.18; }
.eventline { stroke: #F9A825; stroke-width: 1.2; stroke-dasharray: 4 3; }
.series { fill: none; stroke-width: 1.8; }
</style>
<text class="title" x="90" y="34">ciclo 22 — espera_basculamento — 2025-12-13T09:05:19-03:00 → 2025-12-13T09:09:20-03:00 (span 241s, dur 242s)</text>
<text class="small" x="90" y="54">GPS: -11.694224,-47.165052  hotspot: -11.694,-47.165</text>
<text class="small" x="90" y="70">Janela: -3.00 → 7.02 min (relativo ao início do evento)</text>
<text x="90" y="79.00" font-size="14" font-weight="700">Velocidade (km/h)</text>
<rect class="event" x="443.33" y="85.00" width="354.81" height="192.75" />
<line class="eventline" x1="443.33" y1="85.00" x2="443.33" y2="277.75" />
<line class="eventline" x1="798.14" y1="85.00" x2="798.14" y2="277.75" />
<line class="grid" x1="90" y1="277.75" x2="1150" y2="277.75" />
<text class="small" x="80" y="281.75" text-anchor="end">0.00</text>
<line class="grid" x1="90" y1="239.20" x2="1150" y2="239.20" />
<text class="small" x="80" y="243.20" text-anchor="end">10.0</text>
<line class="grid" x1="90" y1="200.65" x2="1150" y2="200.65" />
<text class="small" x="80" y="204.65" text-anchor="end">20.0</text>
<line class="grid" x1="90" y1="162.10" x2="1150" y2="162.10" />
<text class="small" x="80" y="166.10" text-anchor="end">30.0</text>
<line class="grid" x1="90" y1="123.55" x2="1150" y2="123.55" />
<text class="small" x="80" y="127.55" text-anchor="end">40.0</text>
<line class="grid" x1="90" y1="85.00" x2="1150" y2="85.00" />
<text class="small" x="80" y="89.00" text-anchor="end">50.0</text>
<line class="grid" x1="90.00" y1="85.00" x2="90.00" y2="277.75" />
<line class="grid" x1="266.67" y1="85.00" x2="266.67" y2="277.75" />
<line class="grid" x1="443.33" y1="85.00" x2="443.33" y2="277.75" />
<line class="grid" x1="620.00" y1="85.00" x2="620.00" y2="277.75" />
<line class="grid" x1="796.67" y1="85.00" x2="796.67" y2="277.75" />
<line class="grid" x1="973.33" y1="85.00" x2="973.33" y2="277.75" />
<line class="grid" x1="1150.00" y1="85.00" x2="1150.00" y2="277.75" />
<line class="axis" x1="90" y1="85.00" x2="90" y2="277.75" />
<line class="axis" x1="90" y1="277.75" x2="1150" y2="277.75" />
<path class="series" d="M 178.33 241.81 L 179.81 249.30 L 181.28 248.33 L 182.75 244.58 L 184.22 237.37 L 185.69 241.11 L 187.17 243.33 L 188.64 241.94 L 190.11 243.75 L 191.58 241.67 L 193.06 242.92 L 194.53 243.19 L 196.00 230.29 L 197.47 228.21 L 198.94 238.06 L 200.42 242.78 L 201.89 246.94 L 203.36 251.94 L 204.83 252.91 L 206.31 250.13 L 207.78 246.80 L 209.25 243.47 L 210.72 240.70 L 212.19 241.53 L 213.67 252.21 L 215.14 249.86 L 216.61 249.30 L 218.08 255.13 L 219.56 255.96 L 221.03 262.48 L 222.50 269.56 L 223.97 277.75 L 225.44 277.75 L 226.92 277.75 L 228.39 277.75 L 229.86 277.75 L 231.33 277.75 L 232.81 266.23 L 234.28 265.81 L 235.75 266.93 L 237.22 267.06 L 238.69 271.64 L 240.17 270.81 L 241.64 277.75 L 243.11 277.75 L 244.58 277.75 L 246.06 268.17 L 247.53 268.04 L 249.00 271.92 L 250.47 270.53 L 251.94 270.95 L 253.42 270.53 L 254.89 270.95 L 256.36 277.75 L 257.83 277.75 L 259.31 277.75 L 260.78 277.75 L 262.25 277.75 L 263.72 269.98 L 265.19 270.81 L 266.67 269.98 L 268.14 270.53 L 269.61 270.67 L 271.08 277.75 L 272.56 277.75 L 274.03 277.75 L 275.50 277.75 L 276.97 277.75 L 278.44 277.75 L 279.92 277.75 L 281.39 277.75 L 282.86 268.45 L 284.33 277.75 L 285.81 277.75 L 287.28 277.75 L 288.75 277.75 L 290.22 277.75 L 291.69 277.75 L 293.17 277.75 L 294.64 277.75 L 296.11 277.75 L 297.58 277.75 L 299.06 269.70 L 300.53 268.45 L 302.00 265.12 L 303.47 263.59 L 304.94 265.81 L 306.42 267.06 L 307.89 270.12 L 309.36 270.81 L 310.83 271.23 L 312.31 277.75 L 313.78 277.75 L 315.25 277.75 L 316.72 277.75 L 318.19 277.75 L 319.67 277.75 L 321.14 277.75 L 322.61 277.75 L 324.08 277.75 L 325.56 277.75 L 327.03 277.75 L 328.50 277.75 L 329.97 277.75 L 331.44 277.75 L 332.92 277.75 L 334.39 277.75 L 335.86 277.75 L 337.33 277.75 L 338.81 277.75 L 340.28 277.75 L 341.75 277.75 L 343.22 277.75 L 344.69 277.75 L 346.17 277.75 L 347.64 277.75 L 349.11 277.75 L 350.58 277.75 L 352.06 277.75 L 353.53 277.75 L 355.00 277.75 L 356.47 277.75 L 357.94 277.75 L 359.42 277.75 L 360.89 277.75 L 362.36 277.75 L 363.83 277.75 L 365.31 277.75 L 366.78 277.75 L 368.25 277.75 L 369.72 277.75 L 371.19 277.75 L 372.67 277.75 L 374.14 277.75 L 375.61 277.75 L 377.08 277.75 L 378.56 277.75 L 380.03 277.75 L 381.50 277.75 L 382.97 277.75 L 384.44 277.75 L 385.92 277.75 L 387.39 277.75 L 388.86 277.75 L 390.33 277.75 L 391.81 277.75 L 393.28 277.75 L 394.75 277.75 L 396.22 277.75 L 397.69 277.75 L 399.17 277.75 L 400.64 277.75 L 402.11 277.75 L 403.58 277.75 L 405.06 277.75 L 406.53 277.75 L 408.00 277.75 L 409.47 277.75 L 410.94 277.75 L 412.42 270.67 L 413.89 271.50 L 415.36 271.09 L 416.83 271.50 L 418.31 269.42 L 419.78 270.26 L 421.25 269.70 L 422.72 270.26 L 424.19 270.12 L 425.67 269.42 L 427.14 269.98 L 428.61 272.20 L 430.08 267.62 L 431.56 267.20 L 433.03 270.53 L 434.50 266.79 L 435.97 267.20 L 437.44 265.26 L 438.92 266.65 L 440.39 268.87 L 441.86 270.67 L 443.33 277.75 L 444.81 277.75 L 446.28 277.75 L 447.75 277.75 L 449.22 277.75 L 450.69 277.75 L 452.17 277.75 L 453.64 277.75 L 455.11 277.75 L 456.58 277.75 L 458.06 277.75 L 459.53 277.75 L 461.00 277.75 L 462.47 277.75 L 463.94 277.75 L 465.42 277.75 L 466.89 277.75 L 468.36 277.75 L 469.83 277.75 L 471.31 277.75 L 472.78 277.75 L 474.25 277.75 L 475.72 277.75 L 477.19 277.75 L 478.67 277.75 L 480.14 277.75 L 481.61 277.75 L 483.08 277.75 L 484.56 277.75 L 486.03 277.75 L 487.50 277.75 L 488.97 277.75 L 490.44 277.75 L 491.92 277.75 L 493.39 277.75 L 494.86 277.75 L 496.33 277.75 L 497.81 277.75 L 499.28 277.75 L 500.75 277.75 L 502.22 277.75 L 503.69 277.75 L 505.17 277.75 L 506.64 277.75 L 508.11 277.75 L 509.58 277.75 L 511.06 277.75 L 512.53 277.75 L 514.00 277.75 L 515.47 277.75 L 516.94 277.75 L 518.42 277.75 L 519.89 277.75 L 521.36 277.75 L 522.83 277.75 L 524.31 277.75 L 525.78 277.75 L 527.25 277.75 L 528.72 277.75 L 530.19 277.75 L 531.67 277.75 L 533.14 277.75 L 534.61 277.75 L 536.08 277.75 L 537.56 277.75 L 539.03 277.75 L 540.50 277.75 L 541.97 277.75 L 543.44 277.75 L 544.92 277.75 L 546.39 277.75 L 547.86 277.75 L 549.33 277.75 L 550.81 277.75 L 552.28 277.75 L 553.75 277.75 L 555.22 277.75 L 556.69 277.75 L 558.17 277.75 L 559.64 277.75 L 561.11 277.75 L 562.58 277.75 L 564.06 277.75 L 565.53 277.75 L 567.00 277.75 L 568.47 277.75 L 569.94 277.75 L 571.42 277.75 L 572.89 277.75 L 574.36 277.75 L 575.83 277.75 L 577.31 277.75 L 578.78 277.75 L 580.25 277.75 L 581.72 277.75 L 583.19 277.75 L 584.67 277.75 L 586.14 277.75 L 587.61 277.75 L 589.08 277.75 L 590.56 277.75 L 592.03 277.75 L 593.50 277.75 L 594.97 277.75 L 596.44 277.75 L 597.92 277.75 L 599.39 277.75 L 600.86 277.75 L 602.33 277.75 L 603.81 277.75 L 605.28 277.75 L 606.75 277.75 L 608.22 277.75 L 609.69 277.75 L 611.17 277.75 L 612.64 277.75 L 614.11 277.75 L 615.58 277.75 L 617.06 277.75 L 618.53 277.75 L 620.00 277.75 L 621.47 277.75 L 622.94 277.75 L 624.42 277.75 L 625.89 277.75 L 627.36 277.75 L 628.83 277.75 L 630.31 277.75 L 631.78 277.75 L 633.25 277.75 L 634.72 277.75 L 636.19 277.75 L 637.67 277.75 L 639.14 277.75 L 640.61 277.75 L 642.08 277.75 L 643.56 277.75 L 645.03 277.75 L 646.50 277.75 L 647.97 277.75 L 649.44 277.75 L 650.92 277.75 L 652.39 277.75 L 653.86 277.75 L 655.33 277.75 L 656.81 277.75 L 658.28 277.75 L 659.75 277.75 L 661.22 277.75 L 662.69 277.75 L 664.17 277.75 L 665.64 277.75 L 667.11 277.75 L 668.58 277.75 L 670.06 277.75 L 671.53 277.75 L 673.00 277.75 L 674.47 277.75 L 675.94 277.75 L 677.42 277.75 L 678.89 277.75 L 680.36 277.75 L 681.83 277.75 L 683.31 277.75 L 684.78 277.75 L 686.25 277.75 L 687.72 277.75 L 689.19 277.75 L 690.67 277.75 L 692.14 277.75 L 693.61 277.75 L 695.08 277.75 L 696.56 277.75 L 698.03 277.75 L 699.50 277.75 L 700.97 277.75 L 702.44 277.75 L 703.92 277.75 L 705.39 277.75 L 706.86 277.75 L 708.33 277.75 L 709.81 277.75 L 711.28 277.75 L 712.75 277.75 L 714.22 277.75 L 715.69 277.75 L 717.17 277.75 L 718.64 277.75 L 720.11 277.75 L 721.58 277.75 L 723.06 277.75 L 724.53 277.75 L 726.00 277.75 L 727.47 277.75 L 728.94 277.75 L 730.42 277.75 L 731.89 277.75 L 733.36 277.75 L 734.83 277.75 L 736.31 277.75 L 737.78 277.75 L 739.25 277.75 L 740.72 277.75 L 742.19 277.75 L 743.67 277.75 L 745.14 277.75 L 746.61 277.75 L 748.08 277.75 L 749.56 277.75 L 751.03 277.75 L 752.50 277.75 L 753.97 277.75 L 755.44 277.75 L 756.92 277.75 L 758.39 277.75 L 759.86 277.75 L 761.33 277.75 L 762.81 277.75 L 764.28 277.75 L 765.75 277.75 L 767.22 277.75 L 768.69 277.75 L 770.17 277.75 L 771.64 277.75 L 773.11 277.75 L 774.58 277.75 L 776.06 277.75 L 777.53 277.75 L 779.00 277.75 L 780.47 277.75 L 781.94 277.75 L 783.42 277.75 L 784.89 277.75 L 786.36 277.75 L 787.83 277.75 L 789.31 277.75 L 790.78 277.75 L 792.25 277.75 L 793.72 277.75 L 795.19 277.75 L 796.67 277.75 L 798.14 277.75 L 799.61 261.79 L 801.08 250.97 L 802.56 254.85 L 804.03 246.80 L 805.50 241.25 L 806.97 241.53 L 808.44 245.28 L 809.92 238.89 L 811.39 237.50 L 812.86 229.04 L 814.33 235.14 L 815.81 236.25 L 817.28 239.03 L 818.75 245.97 L 820.22 246.25 L 821.69 247.50 L 823.17 247.63 L 824.64 244.86 L 826.11 251.10 L 827.58 256.66 L 829.06 259.99 L 830.53 268.17 L 832.00 277.75 L 833.47 269.84 L 834.94 261.93 L 836.42 259.01 L 837.89 250.55 L 839.36 249.99 L 840.83 251.38 L 842.31 255.55 L 843.78 255.68 L 845.25 253.46 L 846.72 254.71 L 848.19 247.91 L 849.67 241.11 L 851.14 237.50 L 852.61 231.54 L 854.08 231.68 L 855.56 227.65 L 857.03 225.71 L 858.50 228.48 L 859.97 228.90 L 861.44 230.56 L 862.92 235.14 L 864.39 229.45 L 865.86 225.29 L 867.33 225.15 L 868.81 227.23 L 870.28 230.01 L 871.75 218.21 L 873.22 219.88 L 874.69 213.77 L 876.17 210.86 L 877.64 204.20 L 879.11 196.29 L 880.58 190.46 L 882.06 192.82 L 883.53 193.79 L 885.00 191.01 L 886.47 190.87 L 887.94 186.99 L 889.42 185.74 L 890.89 182.13 L 892.36 180.05 L 893.83 182.96 L 895.31 185.18 L 896.78 183.93 L 898.25 183.66 L 899.72 179.49 L 901.19 180.60 L 902.67 177.83 L 904.14 180.05 L 905.61 180.05 L 907.08 179.91 L 908.56 184.35 L 910.03 184.21 L 911.50 188.24 L 912.97 191.71 L 914.44 189.35 L 915.92 198.23 L 917.39 202.53 L 918.86 201.56 L 920.33 196.42 L 921.81 188.79 L 923.28 184.77 L 924.75 191.71 L 926.22 190.46 L 927.69 193.65 L 929.17 192.68 L 930.64 195.73 L 932.11 196.01 L 933.58 191.98 L 935.06 194.20 L 936.53 195.73 L 938.00 196.70 L 939.47 199.20 L 940.94 200.87 L 942.42 198.23 L 943.89 194.90 L 945.36 191.71 L 946.83 197.67 L 948.31 198.65 L 949.78 203.78 L 951.25 205.72 L 952.72 206.00 L 954.19 215.16 L 955.67 224.60 L 957.14 221.27 L 958.61 217.52 L 960.08 222.24 L 961.56 220.85 L 963.03 226.12 L 964.50 225.15 L 965.97 222.65 L 967.44 222.79 L 968.92 225.29 L 970.39 226.12 L 971.86 222.65 L 973.33 222.79 L 974.81 217.66 L 976.28 216.13 L 977.75 219.05 L 979.22 222.24 L 980.69 221.41 L 982.17 215.99 L 983.64 230.15 L 985.11 227.37 L 986.58 230.98 L 988.06 230.43 L 989.53 232.92 L 991.00 235.14 L 992.47 236.81 L 993.94 232.92 L 995.42 222.93 L 996.89 213.91 L 998.36 206.00 L 999.83 208.22 L 1001.31 208.08 L 1002.78 204.20 L 1004.25 204.20 L 1005.72 201.42 L 1007.19 204.61 L 1008.67 204.75 L 1010.14 201.28 L 1011.61 201.98 L 1013.08 206.83 L 1014.56 206.28 L 1016.03 205.45 L 1017.50 201.98 L 1018.97 201.42 L 1020.44 197.26 L 1021.92 197.81 L 1023.39 195.31 L 1024.86 200.03 L 1026.33 189.35 L 1027.81 186.71 L 1029.28 186.16 L 1030.75 188.93 L 1032.22 192.40 L 1033.69 195.45 L 1035.17 196.15 L 1036.64 190.60 L 1038.11 184.35 L 1039.58 185.74 L 1041.06 183.24 L 1042.53 185.74 L 1044.00 181.44 L 1045.47 188.79 L 1046.94 190.32 L 1048.42 189.62 L 1049.89 186.02 L 1051.36 187.54 L 1052.83 187.13 L 1054.31 183.80 L 1055.78 182.13 L 1057.25 180.60 L 1058.72 186.02 L 1060.19 190.60 L 1061.67 181.58 L 1063.14 185.18" stroke="#1976D2" />
<text x="90" y="289.75" font-size="14" font-weight="700">Inclinação (graus)</text>
<rect class="event" x="443.33" y="295.75" width="354.81" height="192.75" />
<line class="eventline" x1="443.33" y1="295.75" x2="443.33" y2="488.50" />
<line class="eventline" x1="798.14" y1="295.75" x2="798.14" y2="488.50" />
<line class="grid" x1="90" y1="488.50" x2="1150" y2="488.50" />
<text class="small" x="80" y="492.50" text-anchor="end">-20.0</text>
<line class="grid" x1="90" y1="449.95" x2="1150" y2="449.95" />
<text class="small" x="80" y="453.95" text-anchor="end">-10.0</text>
<line class="grid" x1="90" y1="411.40" x2="1150" y2="411.40" />
<text class="small" x="80" y="415.40" text-anchor="end">0.00</text>
<line class="grid" x1="90" y1="372.85" x2="1150" y2="372.85" />
<text class="small" x="80" y="376.85" text-anchor="end">10.0</text>
<line class="grid" x1="90" y1="334.30" x2="1150" y2="334.30" />
<text class="small" x="80" y="338.30" text-anchor="end">20.0</text>
<line class="grid" x1="90" y1="295.75" x2="1150" y2="295.75" />
<text class="small" x="80" y="299.75" text-anchor="end">30.0</text>
<line class="grid" x1="90.00" y1="295.75" x2="90.00" y2="488.50" />
<line class="grid" x1="266.67" y1="295.75" x2="266.67" y2="488.50" />
<line class="grid" x1="443.33" y1="295.75" x2="443.33" y2="488.50" />
<line class="grid" x1="620.00" y1="295.75" x2="620.00" y2="488.50" />
<line class="grid" x1="796.67" y1="295.75" x2="796.67" y2="488.50" />
<line class="grid" x1="973.33" y1="295.75" x2="973.33" y2="488.50" />
<line class="grid" x1="1150.00" y1="295.75" x2="1150.00" y2="488.50" />
<line class="axis" x1="90" y1="295.75" x2="90" y2="488.50" />
<line class="axis" x1="90" y1="488.50" x2="1150" y2="488.50" />
<path class="series" d="M 178.33 385.81 L 179.81 386.37 L 181.28 379.52 L 182.75 377.05 L 184.22 377.05 L 185.69 357.37 L 187.17 366.95 L 188.64 365.06 L 190.11 368.03 L 191.58 368.85 L 193.06 366.29 L 194.53 370.99 L 196.00 378.40 L 197.47 371.40 L 198.94 360.93 L 200.42 362.27 L 201.89 366.45 L 203.36 364.28 L 204.83 377.43 L 206.31 375.57 L 207.78 377.54 L 209.25 372.31 L 210.72 367.93 L 212.19 365.82 L 213.67 363.18 L 215.14 360.28 L 216.61 366.05 L 218.08 365.67 L 219.56 371.36 L 221.03 355.88 L 222.50 361.21 L 223.97 365.29 L 225.44 377.87 L 226.92 370.01 L 228.39 367.32 L 229.86 373.93 L 231.33 363.65 L 232.81 376.24 L 234.28 377.06 L 235.75 376.13 L 237.22 376.02 L 238.69 381.16 L 240.17 373.82 L 241.64 375.05 L 243.11 376.35 L 244.58 374.71 L 246.06 367.62 L 247.53 374.16 L 249.00 375.24 L 250.47 367.15 L 251.94 374.01 L 253.42 370.29 L 254.89 370.88 L 256.36 371.40 L 257.83 369.29 L 259.31 372.12 L 260.78 371.68 L 262.25 370.67 L 263.72 373.24 L 265.19 372.10 L 266.67 372.11 L 268.14 373.87 L 269.61 373.95 L 271.08 374.29 L 272.56 369.84 L 274.03 372.96 L 275.50 377.57 L 276.97 373.11 L 278.44 371.48 L 279.92 373.32 L 281.39 366.57 L 282.86 368.19 L 284.33 372.37 L 285.81 373.60 L 287.28 367.02 L 288.75 367.47 L 290.22 369.78 L 291.69 369.94 L 293.17 370.33 L 294.64 370.22 L 296.11 370.22 L 297.58 370.60 L 299.06 374.15 L 300.53 373.26 L 302.00 374.72 L 303.47 378.63 L 304.94 378.11 L 306.42 378.42 L 307.89 378.19 L 309.36 378.72 L 310.83 387.44 L 312.31 376.17 L 313.78 378.46 L 315.25 379.94 L 316.72 373.94 L 318.19 377.80 L 319.67 374.98 L 321.14 379.86 L 322.61 375.63 L 324.08 374.24 L 325.56 372.79 L 327.03 375.05 L 328.50 373.68 L 329.97 374.46 L 331.44 372.87 L 332.92 372.75 L 334.39 373.29 L 335.86 372.99 L 337.33 372.26 L 338.81 372.70 L 340.28 372.51 L 341.75 372.33 L 343.22 372.21 L 344.69 372.44 L 346.17 372.49 L 347.64 372.51 L 349.11 372.56 L 350.58 372.80 L 352.06 372.64 L 353.53 372.26 L 355.00 372.40 L 356.47 372.27 L 357.94 372.30 L 359.42 372.45 L 360.89 372.03 L 362.36 372.22 L 363.83 372.24 L 365.31 373.23 L 366.78 370.76 L 368.25 372.27 L 369.72 372.66 L 371.19 372.08 L 372.67 372.33 L 374.14 372.40 L 375.61 372.47 L 377.08 372.85 L 378.56 372.72 L 380.03 372.89 L 381.50 372.66 L 382.97 372.80 L 384.44 372.82 L 385.92 373.49 L 387.39 372.36 L 388.86 373.14 L 390.33 373.21 L 391.81 373.05 L 393.28 373.72 L 394.75 373.85 L 396.22 374.08 L 397.69 374.97 L 399.17 383.96 L 400.64 380.89 L 402.11 382.22 L 403.58 382.39 L 405.06 383.22 L 406.53 385.27 L 408.00 383.63 L 409.47 383.31 L 410.94 379.97 L 412.42 376.86 L 413.89 379.59 L 415.36 378.49 L 416.83 382.10 L 418.31 373.68 L 419.78 374.47 L 421.25 374.70 L 422.72 372.32 L 424.19 370.88 L 425.67 372.21 L 427.14 371.45 L 428.61 367.25 L 430.08 367.89 L 431.56 371.82 L 433.03 368.96 L 434.50 369.53 L 435.97 368.90 L 437.44 369.05 L 438.92 362.61 L 440.39 370.62 L 441.86 365.21 L 443.33 368.31 L 444.81 371.72 L 446.28 372.93 L 447.75 372.35 L 449.22 374.15 L 450.69 373.02 L 452.17 373.41 L 453.64 373.30 L 455.11 373.30 L 456.58 373.34 L 458.06 373.31 L 459.53 373.33 L 461.00 373.27 L 462.47 373.25 L 463.94 373.33 L 465.42 373.26 L 466.89 373.34 L 468.36 373.29 L 469.83 373.30 L 471.31 373.27 L 472.78 373.34 L 474.25 373.30 L 475.72 373.30 L 477.19 373.30 L 478.67 373.28 L 480.14 373.33 L 481.61 373.26 L 483.08 373.27 L 484.56 373.31 L 486.03 373.30 L 487.50 373.26 L 488.97 373.27 L 490.44 373.31 L 491.92 373.29 L 493.39 373.32 L 494.86 373.24 L 496.33 373.32 L 497.81 373.32 L 499.28 373.29 L 500.75 373.27 L 502.22 373.31 L 503.69 373.29 L 505.17 373.30 L 506.64 373.29 L 508.11 373.31 L 509.58 373.34 L 511.06 373.33 L 512.53 373.29 L 514.00 373.30 L 515.47 373.26 L 516.94 373.32 L 518.42 373.25 L 519.89 373.31 L 521.36 373.32 L 522.83 373.32 L 524.31 373.31 L 525.78 373.32 L 527.25 373.31 L 528.72 373.29 L 530.19 373.25 L 531.67 373.27 L 533.14 373.30 L 534.61 373.25 L 536.08 373.23 L 537.56 373.25 L 539.03 373.28 L 540.50 373.27 L 541.97 373.30 L 543.44 373.24 L 544.92 373.26 L 546.39 373.26 L 547.86 373.26 L 549.33 373.32 L 550.81 373.32 L 552.28 373.28 L 553.75 373.31 L 555.22 373.33 L 556.69 373.29 L 558.17 373.32 L 559.64 373.31 L 561.11 373.28 L 562.58 373.28 L 564.06 373.33 L 565.53 373.32 L 567.00 373.30 L 568.47 373.22 L 569.94 373.24 L 571.42 373.28 L 572.89 373.22 L 574.36 373.23 L 575.83 373.24 L 577.31 373.30 L 578.78 373.27 L 580.25 373.29 L 581.72 373.23 L 583.19 373.24 L 584.67 373.24 L 586.14 373.31 L 587.61 373.31 L 589.08 373.29 L 590.56 373.31 L 592.03 373.21 L 593.50 373.25 L 594.97 373.24 L 596.44 373.30 L 597.92 373.25 L 599.39 373.28 L 600.86 373.28 L 602.33 373.27 L 603.81 373.23 L 605.28 373.23 L 606.75 373.29 L 608.22 373.26 L 609.69 373.21 L 611.17 373.25 L 612.64 373.25 L 614.11 373.23 L 615.58 373.27 L 617.06 373.18 L 618.53 373.29 L 620.00 373.31 L 621.47 373.30 L 622.94 373.31 L 624.42 373.25 L 625.89 373.33 L 627.36 373.27 L 628.83 373.31 L 630.31 373.27 L 631.78 373.30 L 633.25 373.28 L 634.72 373.31 L 636.19 373.30 L 637.67 373.27 L 639.14 373.31 L 640.61 373.30 L 642.08 373.30 L 643.56 373.27 L 645.03 373.32 L 646.50 373.28 L 647.97 373.33 L 649.44 373.25 L 650.92 373.27 L 652.39 373.23 L 653.86 373.29 L 655.33 373.24 L 656.81 373.28 L 658.28 373.22 L 659.75 373.30 L 661.22 373.25 L 662.69 373.25 L 664.17 373.23 L 665.64 373.30 L 667.11 373.22 L 668.58 373.26 L 670.06 373.27 L 671.53 373.24 L 673.00 373.25 L 674.47 373.27 L 675.94 373.18 L 677.42 373.28 L 678.89 373.23 L 680.36 373.22 L 681.83 373.24 L 683.31 373.25 L 684.78 373.28 L 686.25 373.22 L 687.72 373.25 L 689.19 373.26 L 690.67 373.31 L 692.14 373.23 L 693.61 373.28 L 695.08 373.26 L 696.56 373.26 L 698.03 373.27 L 699.50 373.26 L 700.97 373.28 L 702.44 373.28 L 703.92 373.29 L 705.39 373.29 L 706.86 373.31 L 708.33 373.20 L 709.81 373.28 L 711.28 373.23 L 712.75 373.21 L 714.22 373.24 L 715.69 373.21 L 717.17 373.27 L 718.64 373.27 L 720.11 373.22 L 721.58 373.26 L 723.06 373.24 L 724.53 373.23 L 726.00 373.26 L 727.47 373.23 L 728.94 373.22 L 730.42 373.24 L 731.89 373.22 L 733.36 373.24 L 734.83 373.24 L 736.31 373.24 L 737.78 373.30 L 739.25 373.28 L 740.72 373.29 L 742.19 373.32 L 743.67 373.28 L 745.14 373.24 L 746.61 373.33 L 748.08 373.25 L 749.56 373.29 L 751.03 373.29 L 752.50 373.29 L 753.97 373.32 L 755.44 373.28 L 756.92 373.22 L 758.39 373.25 L 759.86 373.28 L 761.33 373.28 L 762.81 373.21 L 764.28 373.26 L 765.75 373.25 L 767.22 373.22 L 768.69 373.24 L 770.17 373.22 L 771.64 373.27 L 773.11 373.24 L 774.58 373.27 L 776.06 373.21 L 777.53 373.23 L 779.00 373.23 L 780.47 373.23 L 781.94 373.25 L 783.42 373.26 L 784.89 373.28 L 786.36 372.88 L 787.83 374.32 L 789.31 372.57 L 790.78 372.43 L 792.25 374.47 L 793.72 372.07 L 795.19 383.92 L 796.67 381.41 L 798.14 380.20 L 799.61 385.40 L 801.08 361.50 L 802.56 387.73 L 804.03 374.93 L 805.50 366.17 L 806.97 372.31 L 808.44 363.75 L 809.92 371.40 L 811.39 381.30 L 812.86 361.77 L 814.33 364.33 L 815.81 360.03 L 817.28 363.97 L 818.75 371.03 L 820.22 353.81 L 821.69 360.50 L 823.17 367.12 L 824.64 361.59 L 826.11 357.50 L 827.58 360.63 L 829.06 350.85 L 830.53 360.36 L 832.00 367.76 L 833.47 377.36 L 834.94 371.14 L 836.42 382.03 L 837.89 366.90 L 839.36 354.69 L 840.83 342.67 L 842.31 353.16 L 843.78 346.69 L 845.25 341.79 L 846.72 346.92 L 848.19 355.76 L 849.67 352.81 L 851.14 355.29 L 852.61 347.57 L 854.08 348.05 L 855.56 347.27 L 857.03 348.91 L 858.50 359.77 L 859.97 356.26 L 861.44 361.24 L 862.92 371.94 L 864.39 361.74 L 865.86 356.01 L 867.33 349.17 L 868.81 349.14 L 870.28 357.72 L 871.75 348.26 L 873.22 347.87 L 874.69 352.77 L 876.17 354.09 L 877.64 355.35 L 879.11 350.94 L 880.58 351.29 L 882.06 347.58 L 883.53 346.62 L 885.00 347.39 L 886.47 347.76 L 887.94 341.85 L 889.42 348.38 L 890.89 347.14 L 892.36 346.79 L 893.83 349.46 L 895.31 347.08 L 896.78 348.51 L 898.25 346.44 L 899.72 346.26 L 901.19 344.18 L 902.67 347.02 L 904.14 345.23 L 905.61 345.61 L 907.08 334.60 L 908.56 346.71 L 910.03 335.33 L 911.50 341.35 L 912.97 342.73 L 914.44 330.71 L 915.92 339.52 L 917.39 347.80 L 918.86 355.95 L 920.33 358.16 L 921.81 358.16 L 923.28 346.64 L 924.75 335.71 L 926.22 340.28 L 927.69 338.25 L 929.17 347.80 L 930.64 335.30 L 932.11 347.69 L 933.58 346.01 L 935.06 343.34 L 936.53 343.49 L 938.00 343.54 L 939.47 342.00 L 940.94 339.40 L 942.42 353.32 L 943.89 351.45 L 945.36 352.15 L 946.83 335.76 L 948.31 341.52 L 949.78 332.31 L 951.25 336.11 L 952.72 333.83 L 954.19 326.37 L 955.67 333.69 L 957.14 349.86 L 958.61 349.73 L 960.08 339.09 L 961.56 348.73 L 963.03 335.78 L 964.50 346.98 L 965.97 344.72 L 967.44 340.71 L 968.92 342.06 L 970.39 362.33 L 971.86 362.80 L 973.33 373.32 L 974.81 373.65 L 976.28 368.80 L 977.75 353.38 L 979.22 366.32 L 980.69 371.08 L 982.17 364.04 L 983.64 376.95 L 985.11 363.58 L 986.58 358.16 L 988.06 353.81 L 989.53 360.06 L 991.00 360.17 L 992.47 358.07 L 993.94 375.75 L 995.42 378.59 L 996.89 370.44 L 998.36 357.99 L 999.83 363.61 L 1001.31 371.17 L 1002.78 362.15 L 1004.25 373.38 L 1005.72 367.22 L 1007.19 362.18 L 1008.67 370.59 L 1010.14 372.89 L 1011.61 367.67 L 1013.08 372.94 L 1014.56 368.45 L 1016.03 375.19 L 1017.50 376.11 L 1018.97 369.74 L 1020.44 357.31 L 1021.92 358.36 L 1023.39 359.31 L 1024.86 355.30 L 1026.33 352.12 L 1027.81 358.57 L 1029.28 361.37 L 1030.75 367.79 L 1032.22 362.20 L 1033.69 368.15 L 1035.17 371.17 L 1036.64 375.15 L 1038.11 367.20 L 1039.58 368.77 L 1041.06 359.36 L 1042.53 363.65 L 1044.00 361.47 L 1045.47 363.18 L 1046.94 370.41 L 1048.42 372.98 L 1049.89 373.19 L 1051.36 373.61 L 1052.83 375.72 L 1054.31 383.16 L 1055.78 370.22 L 1057.25 372.23 L 1058.72 364.54 L 1060.19 370.46 L 1061.67 376.13 L 1063.14 363.90" stroke="#2E7D32" />
<path class="series" d="M 178.33 412.73 L 179.81 411.76 L 181.28 407.89 L 182.75 413.53 L 184.22 413.53 L 185.69 401.53 L 187.17 407.26 L 188.64 405.61 L 190.11 405.27 L 191.58 408.74 L 193.06 399.97 L 194.53 396.06 L 196.00 397.63 L 197.47 396.06 L 198.94 414.64 L 200.42 409.96 L 201.89 398.51 L 203.36 401.35 L 204.83 396.76 L 206.31 395.64 L 207.78 392.78 L 209.25 386.97 L 210.72 392.22 L 212.19 391.05 L 213.67 399.54 L 215.14 398.64 L 216.61 401.27 L 218.08 410.93 L 219.56 400.94 L 221.03 409.90 L 222.50 415.24 L 223.97 418.33 L 225.44 412.52 L 226.92 415.19 L 228.39 409.30 L 229.86 408.90 L 231.33 409.59 L 232.81 407.80 L 234.28 415.32 L 235.75 409.63 L 237.22 413.53 L 238.69 412.48 L 240.17 407.43 L 241.64 407.30 L 243.11 415.10 L 244.58 412.44 L 246.06 407.11 L 247.53 415.81 L 249.00 414.37 L 250.47 409.90 L 251.94 414.74 L 253.42 412.88 L 254.89 410.22 L 256.36 413.84 L 257.83 414.97 L 259.31 409.80 L 260.78 414.81 L 262.25 411.87 L 263.72 418.77 L 265.19 419.60 L 266.67 415.15 L 268.14 418.03 L 269.61 419.24 L 271.08 419.81 L 272.56 419.02 L 274.03 420.34 L 275.50 426.42 L 276.97 423.00 L 278.44 420.48 L 279.92 422.33 L 281.39 420.66 L 282.86 421.95 L 284.33 422.09 L 285.81 424.41 L 287.28 423.42 L 288.75 423.00 L 290.22 419.70 L 291.69 421.63 L 293.17 422.69 L 294.64 417.60 L 296.11 417.60 L 297.58 424.66 L 299.06 425.17 L 300.53 423.77 L 302.00 430.32 L 303.47 426.63 L 304.94 425.04 L 306.42 429.62 L 307.89 425.89 L 309.36 426.03 L 310.83 426.37 L 312.31 425.91 L 313.78 424.38 L 315.25 425.12 L 316.72 425.13 L 318.19 424.14 L 319.67 423.39 L 321.14 422.95 L 322.61 423.91 L 324.08 424.83 L 325.56 424.97 L 327.03 423.78 L 328.50 422.64 L 329.97 422.28 L 331.44 423.34 L 332.92 423.35 L 334.39 424.40 L 335.86 422.28 L 337.33 423.93 L 338.81 423.49 L 340.28 423.21 L 341.75 423.65 L 343.22 423.75 L 344.69 423.69 L 346.17 423.93 L 347.64 423.78 L 349.11 423.71 L 350.58 423.92 L 352.06 423.91 L 353.53 423.62 L 355.00 424.06 L 356.47 423.34 L 357.94 423.94 L 359.42 423.54 L 360.89 423.81 L 362.36 423.60 L 363.83 423.92 L 365.31 424.55 L 366.78 423.22 L 368.25 423.47 L 369.72 424.13 L 371.19 423.66 L 372.67 423.75 L 374.14 423.79 L 375.61 423.91 L 377.08 423.90 L 378.56 424.02 L 380.03 424.19 L 381.50 424.34 L 382.97 424.12 L 384.44 424.36 L 385.92 424.28 L 387.39 424.36 L 388.86 424.50 L 390.33 424.22 L 391.81 424.27 L 393.28 424.35 L 394.75 424.61 L 396.22 424.87 L 397.69 423.51 L 399.17 420.04 L 400.64 422.55 L 402.11 427.59 L 403.58 425.70 L 405.06 421.87 L 406.53 425.68 L 408.00 424.55 L 409.47 423.48 L 410.94 426.54 L 412.42 424.70 L 413.89 424.15 L 415.36 428.09 L 416.83 425.20 L 418.31 426.20 L 419.78 424.99 L 421.25 426.63 L 422.72 421.35 L 424.19 420.55 L 425.67 427.34 L 427.14 421.53 L 428.61 425.34 L 430.08 425.19 L 431.56 420.37 L 433.03 425.97 L 434.50 419.82 L 435.97 418.85 L 437.44 425.74 L 438.92 420.32 L 440.39 427.82 L 441.86 423.22 L 443.33 423.55 L 444.81 424.56 L 446.28 425.32 L 447.75 423.15 L 449.22 426.25 L 450.69 424.17 L 452.17 425.43 L 453.64 424.67 L 455.11 424.67 L 456.58 424.91 L 458.06 425.03 L 459.53 424.74 L 461.00 424.86 L 462.47 424.85 L 463.94 424.83 L 465.42 424.92 L 466.89 424.78 L 468.36 424.86 L 469.83 424.90 L 471.31 424.86 L 472.78 424.85 L 474.25 424.82 L 475.72 424.91 L 477.19 424.84 L 478.67 424.89 L 480.14 424.86 L 481.61 424.91 L 483.08 424.89 L 484.56 424.84 L 486.03 424.87 L 487.50 424.83 L 488.97 424.89 L 490.44 424.82 L 491.92 424.87 L 493.39 424.87 L 494.86 424.90 L 496.33 424.86 L 497.81 424.82 L 499.28 424.86 L 500.75 424.86 L 502.22 424.87 L 503.69 424.82 L 505.17 424.87 L 506.64 424.87 L 508.11 424.90 L 509.58 424.77 L 511.06 424.88 L 512.53 424.90 L 514.00 424.84 L 515.47 424.85 L 516.94 424.86 L 518.42 424.90 L 519.89 424.84 L 521.36 424.82 L 522.83 424.84 L 524.31 424.91 L 525.78 424.81 L 527.25 424.84 L 528.72 424.82 L 530.19 424.83 L 531.67 424.86 L 533.14 424.80 L 534.61 424.79 L 536.08 424.84 L 537.56 424.86 L 539.03 424.78 L 540.50 424.85 L 541.97 424.81 L 543.44 424.86 L 544.92 424.80 L 546.39 424.79 L 547.86 424.85 L 549.33 424.86 L 550.81 424.87 L 552.28 424.81 L 553.75 424.84 L 555.22 424.88 L 556.69 424.89 L 558.17 424.85 L 559.64 424.79 L 561.11 424.90 L 562.58 424.87 L 564.06 424.81 L 565.53 424.85 L 567.00 424.81 L 568.47 424.86 L 569.94 424.82 L 571.42 424.76 L 572.89 424.83 L 574.36 424.88 L 575.83 424.85 L 577.31 424.79 L 578.78 424.78 L 580.25 424.89 L 581.72 424.83 L 583.19 424.82 L 584.67 424.83 L 586.14 424.88 L 587.61 424.82 L 589.08 424.79 L 590.56 424.79 L 592.03 424.83 L 593.50 424.84 L 594.97 424.80 L 596.44 424.77 L 597.92 424.84 L 599.39 424.85 L 600.86 424.77 L 602.33 424.84 L 603.81 424.80 L 605.28 424.84 L 606.75 424.76 L 608.22 424.81 L 609.69 424.86 L 611.17 424.84 L 612.64 424.80 L 614.11 424.79 L 615.58 424.83 L 617.06 424.83 L 618.53 424.81 L 620.00 424.82 L 621.47 424.90 L 622.94 424.85 L 624.42 424.82 L 625.89 424.82 L 627.36 424.86 L 628.83 424.86 L 630.31 424.87 L 631.78 424.87 L 633.25 424.79 L 634.72 424.93 L 636.19 424.81 L 637.67 424.82 L 639.14 424.83 L 640.61 424.88 L 642.08 424.82 L 643.56 424.85 L 645.03 424.81 L 646.50 424.89 L 647.97 424.87 L 649.44 424.83 L 650.92 424.80 L 652.39 424.85 L 653.86 424.88 L 655.33 424.79 L 656.81 424.85 L 658.28 424.87 L 659.75 424.80 L 661.22 424.84 L 662.69 424.86 L 664.17 424.90 L 665.64 424.77 L 667.11 424.79 L 668.58 424.93 L 670.06 424.79 L 671.53 424.82 L 673.00 424.77 L 674.47 424.82 L 675.94 424.87 L 677.42 424.80 L 678.89 424.80 L 680.36 424.88 L 681.83 424.85 L 683.31 424.78 L 684.78 424.79 L 686.25 424.82 L 687.72 424.86 L 689.19 424.76 L 690.67 424.86 L 692.14 424.83 L 693.61 424.91 L 695.08 424.79 L 696.56 424.79 L 698.03 424.82 L 699.50 424.79 L 700.97 424.89 L 702.44 424.83 L 703.92 424.79 L 705.39 424.86 L 706.86 424.81 L 708.33 424.86 L 709.81 424.78 L 711.28 424.78 L 712.75 424.83 L 714.22 424.86 L 715.69 424.79 L 717.17 424.79 L 718.64 424.84 L 720.11 424.87 L 721.58 424.81 L 723.06 424.78 L 724.53 424.89 L 726.00 424.84 L 727.47 424.80 L 728.94 424.80 L 730.42 424.83 L 731.89 424.83 L 733.36 424.80 L 734.83 424.76 L 736.31 424.87 L 737.78 424.85 L 739.25 424.80 L 740.72 424.82 L 742.19 424.82 L 743.67 424.86 L 745.14 424.85 L 746.61 424.84 L 748.08 424.86 L 749.56 424.88 L 751.03 424.83 L 752.50 424.84 L 753.97 424.83 L 755.44 424.91 L 756.92 424.77 L 758.39 424.90 L 759.86 424.78 L 761.33 424.86 L 762.81 424.82 L 764.28 424.82 L 765.75 424.83 L 767.22 424.75 L 768.69 424.87 L 770.17 424.79 L 771.64 424.80 L 773.11 424.82 L 774.58 424.83 L 776.06 424.88 L 777.53 424.80 L 779.00 424.79 L 780.47 424.85 L 781.94 424.89 L 783.42 424.87 L 784.89 424.83 L 786.36 424.59 L 787.83 425.49 L 789.31 425.14 L 790.78 424.26 L 792.25 425.09 L 793.72 424.98 L 795.19 428.93 L 796.67 425.05 L 798.14 424.04 L 799.61 420.41 L 801.08 420.18 L 802.56 421.09 L 804.03 409.10 L 805.50 414.18 L 806.97 415.80 L 808.44 409.73 L 809.92 410.89 L 811.39 415.54 L 812.86 412.65 L 814.33 417.95 L 815.81 416.39 L 817.28 422.55 L 818.75 417.05 L 820.22 421.08 L 821.69 419.96 L 823.17 422.61 L 824.64 409.53 L 826.11 421.94 L 827.58 418.96 L 829.06 412.22 L 830.53 414.41 L 832.00 411.71 L 833.47 408.13 L 834.94 412.59 L 836.42 416.96 L 837.89 414.26 L 839.36 406.48 L 840.83 412.67 L 842.31 417.82 L 843.78 414.62 L 845.25 414.36 L 846.72 409.57 L 848.19 411.05 L 849.67 406.87 L 851.14 408.34 L 852.61 408.93 L 854.08 397.04 L 855.56 400.08 L 857.03 406.46 L 858.50 404.79 L 859.97 399.99 L 861.44 404.45 L 862.92 402.24 L 864.39 403.66 L 865.86 409.26 L 867.33 418.08 L 868.81 404.89 L 870.28 403.11 L 871.75 410.87 L 873.22 410.82 L 874.69 403.76 L 876.17 407.92 L 877.64 408.07 L 879.11 414.67 L 880.58 409.66 L 882.06 411.24 L 883.53 415.89 L 885.00 410.47 L 886.47 407.09 L 887.94 414.52 L 889.42 408.92 L 890.89 410.81 L 892.36 412.58 L 893.83 422.70 L 895.31 416.55 L 896.78 416.08 L 898.25 417.36 L 899.72 408.43 L 901.19 401.67 L 902.67 414.47 L 904.14 406.10 L 905.61 412.70 L 907.08 412.30 L 908.56 416.56 L 910.03 415.42 L 911.50 419.26 L 912.97 416.05 L 914.44 410.46 L 915.92 419.76 L 917.39 419.66 L 918.86 419.94 L 920.33 419.91 L 921.81 419.91 L 923.28 411.04 L 924.75 404.08 L 926.22 403.57 L 927.69 407.46 L 929.17 406.75 L 930.64 406.80 L 932.11 405.34 L 933.58 406.72 L 935.06 405.70 L 936.53 406.30 L 938.00 412.67 L 939.47 412.97 L 940.94 415.69 L 942.42 419.67 L 943.89 421.36 L 945.36 424.29 L 946.83 417.02 L 948.31 415.15 L 949.78 414.12 L 951.25 413.88 L 952.72 413.15 L 954.19 408.16 L 955.67 399.55 L 957.14 405.38 L 958.61 400.43 L 960.08 399.75 L 961.56 389.41 L 963.03 384.77 L 964.50 385.17 L 965.97 372.17 L 967.44 369.88 L 968.92 371.98 L 970.39 382.14 L 971.86 382.19 L 973.33 397.24 L 974.81 397.46 L 976.28 412.24 L 977.75 390.32 L 979.22 390.65 L 980.69 391.27 L 982.17 405.51 L 983.64 395.29 L 985.11 401.84 L 986.58 401.70 L 988.06 400.21 L 989.53 400.46 L 991.00 409.04 L 992.47 393.95 L 993.94 407.21 L 995.42 398.05 L 996.89 400.55 L 998.36 398.33 L 999.83 399.94 L 1001.31 389.74 L 1002.78 388.72 L 1004.25 389.20 L 1005.72 392.91 L 1007.19 381.30 L 1008.67 388.73 L 1010.14 396.45 L 1011.61 395.29 L 1013.08 409.66 L 1014.56 401.30 L 1016.03 407.68 L 1017.50 411.52 L 1018.97 408.21 L 1020.44 407.37 L 1021.92 415.77 L 1023.39 417.54 L 1024.86 429.12 L 1026.33 440.81 L 1027.81 430.12 L 1029.28 420.94 L 1030.75 421.31 L 1032.22 411.85 L 1033.69 407.36 L 1035.17 391.28 L 1036.64 392.06 L 1038.11 397.53 L 1039.58 411.44 L 1041.06 404.35 L 1042.53 402.70 L 1044.00 402.31 L 1045.47 404.20 L 1046.94 409.76 L 1048.42 408.36 L 1049.89 409.88 L 1051.36 413.47 L 1052.83 416.74 L 1054.31 406.99 L 1055.78 415.60 L 1057.25 410.11 L 1058.72 415.08 L 1060.19 410.67 L 1061.67 399.43 L 1063.14 403.63" stroke="#6A1B9A" />
<line x1="900.00" y1="307.75" x2="918.00" y2="307.75" stroke="#2E7D32" stroke-width="3" />
<text class="small" x="924.00" y="311.75">pitch</text>
<line x1="900.00" y1="323.75" x2="918.00" y2="323.75" stroke="#6A1B9A" stroke-width="3" />
<text class="small" x="924.00" y="327.75">roll</text>
<text x="90" y="500.50" font-size="14" font-weight="700">Aceleração (magnitude) (u.a.)</text>
<rect class="event" x="443.33" y="506.50" width="354.81" height="192.75" />
<line class="eventline" x1="443.33" y1="506.50" x2="443.33" y2="699.25" />
<line class="eventline" x1="798.14" y1="506.50" x2="798.14" y2="699.25" />
<line class="grid" x1="90" y1="699.25" x2="1150" y2="699.25" />
<text class="small" x="80" y="703.25" text-anchor="end">0.00</text>
<line class="grid" x1="90" y1="660.70" x2="1150" y2="660.70" />
<text class="small" x="80" y="664.70" text-anchor="end">0.50</text>
<line class="grid" x1="90" y1="622.15" x2="1150" y2="622.15" />
<text class="small" x="80" y="626.15" text-anchor="end">1.00</text>
<line class="grid" x1="90" y1="583.60" x2="1150" y2="583.60" />
<text class="small" x="80" y="587.60" text-anchor="end">1.50</text>
<line class="grid" x1="90" y1="545.05" x2="1150" y2="545.05" />
<text class="small" x="80" y="549.05" text-anchor="end">2.00</text>
<line class="grid" x1="90" y1="506.50" x2="1150" y2="506.50" />
<text class="small" x="80" y="510.50" text-anchor="end">2.50</text>
<line class="grid" x1="90.00" y1="506.50" x2="90.00" y2="699.25" />
<line class="grid" x1="266.67" y1="506.50" x2="266.67" y2="699.25" />
<line class="grid" x1="443.33" y1="506.50" x2="443.33" y2="699.25" />
<line class="grid" x1="620.00" y1="506.50" x2="620.00" y2="699.25" />
<line class="grid" x1="796.67" y1="506.50" x2="796.67" y2="699.25" />
<line class="grid" x1="973.33" y1="506.50" x2="973.33" y2="699.25" />
<line class="grid" x1="1150.00" y1="506.50" x2="1150.00" y2="699.25" />
<line class="axis" x1="90" y1="506.50" x2="90" y2="699.25" />
<line class="axis" x1="90" y1="699.25" x2="1150" y2="699.25" />
<path class="series" d="M 178.33 675.23 L 179.81 683.56 L 181.28 680.30 L 182.75 686.74 L 184.22 663.06 L 185.69 659.30 L 187.17 679.57 L 188.64 660.58 L 190.11 669.14 L 191.58 681.33 L 193.06 688.04 L 194.53 651.20 L 196.00 690.84 L 197.47 638.41 L 198.94 634.16 L 200.42 668.85 L 201.89 676.39 L 203.36 663.72 L 204.83 666.79 L 206.31 653.37 L 207.78 663.55 L 209.25 677.82 L 210.72 660.43 L 212.19 674.26 L 213.67 658.44 L 215.14 686.29 L 216.61 664.68 L 218.08 690.95 L 219.56 656.00 L 221.03 671.89 L 222.50 687.77 L 223.97 665.44 L 225.44 671.33 L 226.92 679.14 L 228.39 684.67 L 229.86 684.49 L 231.33 668.55 L 232.81 689.02 L 234.28 689.02 L 235.75 682.65 L 237.22 686.30 L 238.69 686.25 L 240.17 685.74 L 241.64 696.03 L 243.11 687.57 L 244.58 697.23 L 246.06 687.72 L 247.53 686.75 L 249.00 692.27 L 250.47 683.68 L 251.94 686.92 L 253.42 695.76 L 254.89 691.77 L 256.36 695.05 L 257.83 693.73 L 259.31 687.67 L 260.78 693.74 L 262.25 685.42 L 263.72 691.89 L 265.19 690.14 L 266.67 693.45 L 268.14 696.14 L 269.61 695.09 L 271.08 694.11 L 272.56 694.88 L 274.03 695.74 L 275.50 685.87 L 276.97 691.15 L 278.44 695.09 L 279.92 696.94 L 281.39 685.59 L 282.86 696.83 L 284.33 690.94 L 285.81 694.81 L 287.28 689.84 L 288.75 698.42 L 290.22 692.33 L 291.69 693.33 L 293.17 697.08 L 294.64 683.55 L 296.11 683.55 L 297.58 694.20 L 299.06 694.48 L 300.53 692.64 L 302.00 691.21 L 303.47 689.58 L 304.94 696.25 L 306.42 696.93 L 307.89 695.35 L 309.36 697.84 L 310.83 682.63 L 312.31 691.16 L 313.78 691.51 L 315.25 678.02 L 316.72 695.33 L 318.19 690.13 L 319.67 695.21 L 321.14 690.40 L 322.61 697.61 L 324.08 696.48 L 325.56 697.51 L 327.03 694.90 L 328.50 691.89 L 329.97 684.83 L 331.44 694.09 L 332.92 698.08 L 334.39 697.09 L 335.86 696.96 L 337.33 694.91 L 338.81 698.31 L 340.28 698.23 L 341.75 697.27 L 343.22 696.31 L 344.69 696.18 L 346.17 695.04 L 347.64 694.63 L 349.11 694.46 L 350.58 693.77 L 352.06 693.85 L 353.53 693.43 L 355.00 693.78 L 356.47 694.06 L 357.94 692.40 L 359.42 693.90 L 360.89 693.28 L 362.36 693.67 L 363.83 692.46 L 365.31 690.66 L 366.78 690.42 L 368.25 692.74 L 369.72 692.17 L 371.19 693.12 L 372.67 693.69 L 374.14 696.27 L 375.61 697.98 L 377.08 697.49 L 378.56 698.68 L 380.03 698.49 L 381.50 698.31 L 382.97 697.01 L 384.44 697.81 L 385.92 695.00 L 387.39 693.39 L 388.86 695.95 L 390.33 695.10 L 391.81 695.46 L 393.28 694.53 L 394.75 696.06 L 396.22 697.54 L 397.69 696.51 L 399.17 678.38 L 400.64 694.25 L 402.11 683.53 L 403.58 673.30 L 405.06 678.45 L 406.53 695.29 L 408.00 691.91 L 409.47 697.16 L 410.94 696.21 L 412.42 689.66 L 413.89 695.31 L 415.36 694.00 L 416.83 683.17 L 418.31 681.74 L 419.78 691.67 L 421.25 689.48 L 422.72 692.85 L 424.19 692.47 L 425.67 683.17 L 427.14 690.53 L 428.61 694.15 L 430.08 686.05 L 431.56 683.52 L 433.03 692.27 L 434.50 692.67 L 435.97 687.44 L 437.44 685.10 L 438.92 670.33 L 440.39 693.47 L 441.86 682.03 L 443.33 672.74 L 444.81 682.53 L 446.28 690.78 L 447.75 690.78 L 449.22 691.91 L 450.69 690.03 L 452.17 694.69 L 453.64 697.96 L 455.11 698.46 L 456.58 698.03 L 458.06 698.46 L 459.53 697.94 L 461.00 698.52 L 462.47 698.56 L 463.94 698.25 L 465.42 698.48 L 466.89 698.61 L 468.36 699.17 L 469.83 699.07 L 471.31 699.02 L 472.78 699.04 L 474.25 699.18 L 475.72 699.13 L 477.19 699.04 L 478.67 699.01 L 480.14 699.20 L 481.61 699.01 L 483.08 699.01 L 484.56 699.14 L 486.03 699.14 L 487.50 698.96 L 488.97 699.05 L 490.44 699.12 L 491.92 699.18 L 493.39 699.13 L 494.86 699.12 L 496.33 699.06 L 497.81 699.13 L 499.28 698.95 L 500.75 699.16 L 502.22 699.05 L 503.69 699.18 L 505.17 699.20 L 506.64 699.03 L 508.11 699.02 L 509.58 699.00 L 511.06 699.17 L 512.53 699.08 L 514.00 699.05 L 515.47 699.08 L 516.94 699.08 L 518.42 699.06 L 519.89 698.92 L 521.36 699.10 L 522.83 698.99 L 524.31 699.12 L 525.78 699.07 L 527.25 699.10 L 528.72 698.92 L 530.19 699.17 L 531.67 699.14 L 533.14 699.16 L 534.61 699.11 L 536.08 698.93 L 537.56 698.78 L 539.03 698.98 L 540.50 699.09 L 541.97 699.11 L 543.44 699.08 L 544.92 699.07 L 546.39 699.18 L 547.86 699.11 L 549.33 699.08 L 550.81 699.06 L 552.28 698.90 L 553.75 699.16 L 555.22 699.14 L 556.69 699.18 L 558.17 699.06 L 559.64 698.91 L 561.11 698.98 L 562.58 699.05 L 564.06 699.16 L 565.53 699.11 L 567.00 699.01 L 568.47 699.00 L 569.94 699.06 L 571.42 699.05 L 572.89 699.09 L 574.36 699.06 L 575.83 699.09 L 577.31 699.00 L 578.78 699.08 L 580.25 699.17 L 581.72 699.05 L 583.19 699.09 L 584.67 699.12 L 586.14 699.04 L 587.61 699.13 L 589.08 699.05 L 590.56 699.07 L 592.03 699.09 L 593.50 699.05 L 594.97 699.18 L 596.44 699.00 L 597.92 699.06 L 599.39 699.12 L 600.86 699.03 L 602.33 699.13 L 603.81 699.05 L 605.28 699.08 L 606.75 699.01 L 608.22 698.94 L 609.69 699.13 L 611.17 699.09 L 612.64 699.04 L 614.11 699.01 L 615.58 699.07 L 617.06 699.16 L 618.53 699.16 L 620.00 699.08 L 621.47 699.10 L 622.94 699.00 L 624.42 698.87 L 625.89 699.09 L 627.36 698.99 L 628.83 699.03 L 630.31 699.07 L 631.78 699.08 L 633.25 698.98 L 634.72 699.05 L 636.19 699.07 L 637.67 699.12 L 639.14 699.13 L 640.61 699.06 L 642.08 699.09 L 643.56 699.21 L 645.03 699.10 L 646.50 699.09 L 647.97 699.01 L 649.44 699.12 L 650.92 699.16 L 652.39 699.10 L 653.86 699.12 L 655.33 699.22 L 656.81 699.17 L 658.28 699.09 L 659.75 699.14 L 661.22 699.02 L 662.69 699.07 L 664.17 699.05 L 665.64 699.07 L 667.11 699.13 L 668.58 699.01 L 670.06 699.15 L 671.53 699.16 L 673.00 699.04 L 674.47 699.20 L 675.94 699.03 L 677.42 699.11 L 678.89 699.14 L 680.36 699.08 L 681.83 699.13 L 683.31 699.12 L 684.78 699.13 L 686.25 699.07 L 687.72 699.01 L 689.19 699.11 L 690.67 698.94 L 692.14 698.98 L 693.61 699.10 L 695.08 699.11 L 696.56 699.00 L 698.03 699.03 L 699.50 698.97 L 700.97 699.11 L 702.44 699.05 L 703.92 699.15 L 705.39 699.18 L 706.86 699.05 L 708.33 698.92 L 709.81 699.05 L 711.28 699.16 L 712.75 699.11 L 714.22 698.93 L 715.69 698.90 L 717.17 699.09 L 718.64 699.05 L 720.11 699.05 L 721.58 699.12 L 723.06 699.07 L 724.53 699.14 L 726.00 699.16 L 727.47 698.93 L 728.94 699.10 L 730.42 699.14 L 731.89 699.12 L 733.36 699.08 L 734.83 699.06 L 736.31 699.05 L 737.78 699.06 L 739.25 699.08 L 740.72 699.15 L 742.19 699.10 L 743.67 699.07 L 745.14 699.14 L 746.61 699.14 L 748.08 698.99 L 749.56 699.13 L 751.03 698.98 L 752.50 699.09 L 753.97 699.13 L 755.44 698.99 L 756.92 699.01 L 758.39 698.99 L 759.86 699.14 L 761.33 699.17 L 762.81 699.05 L 764.28 699.14 L 765.75 699.09 L 767.22 699.02 L 768.69 699.19 L 770.17 699.04 L 771.64 699.00 L 773.11 699.05 L 774.58 699.12 L 776.06 699.18 L 777.53 698.99 L 779.00 699.07 L 780.47 699.14 L 781.94 699.03 L 783.42 699.13 L 784.89 699.11 L 786.36 698.26 L 787.83 693.29 L 789.31 694.59 L 790.78 694.92 L 792.25 694.91 L 793.72 697.88 L 795.19 682.51 L 796.67 692.39 L 798.14 688.74 L 799.61 676.62 L 801.08 641.63 L 802.56 660.55 L 804.03 667.18 L 805.50 657.14 L 806.97 650.99 L 808.44 665.42 L 809.92 669.13 L 811.39 668.52 L 812.86 654.49 L 814.33 673.33 L 815.81 666.30 L 817.28 679.48 L 818.75 689.83 L 820.22 658.64 L 821.69 692.94 L 823.17 674.35 L 824.64 671.85 L 826.11 657.45 L 827.58 668.96 L 829.06 669.07 L 830.53 689.63 L 832.00 690.82 L 833.47 672.65 L 834.94 684.69 L 836.42 672.92 L 837.89 672.71 L 839.36 659.38 L 840.83 649.20 L 842.31 682.57 L 843.78 688.19 L 845.25 666.21 L 846.72 675.00 L 848.19 658.12 L 849.67 683.41 L 851.14 678.73 L 852.61 665.36 L 854.08 668.48 L 855.56 666.60 L 857.03 667.09 L 858.50 666.05 L 859.97 685.25 L 861.44 682.45 L 862.92 667.08 L 864.39 671.43 L 865.86 667.75 L 867.33 666.80 L 868.81 671.73 L 870.28 664.69 L 871.75 651.37 L 873.22 677.22 L 874.69 674.18 L 876.17 669.05 L 877.64 669.05 L 879.11 679.69 L 880.58 672.71 L 882.06 675.13 L 883.53 683.54 L 885.00 671.86 L 886.47 678.86 L 887.94 677.36 L 889.42 659.57 L 890.89 692.69 L 892.36 683.54 L 893.83 666.68 L 895.31 659.70 L 896.78 682.03 L 898.25 692.19 L 899.72 687.46 L 901.19 683.08 L 902.67 639.04 L 904.14 628.49 L 905.61 684.96 L 907.08 690.35 L 908.56 678.79 L 910.03 676.27 L 911.50 633.84 L 912.97 642.82 L 914.44 664.44 L 915.92 681.31 L 917.39 684.17 L 918.86 659.44 L 920.33 654.95 L 921.81 665.43 L 923.28 673.14 L 924.75 663.39 L 926.22 679.28 L 927.69 692.43 L 929.17 690.62 L 930.64 682.76 L 932.11 673.06 L 933.58 686.61 L 935.06 673.42 L 936.53 667.66 L 938.00 667.07 L 939.47 678.51 L 940.94 678.97 L 942.42 674.67 L 943.89 684.92 L 945.36 688.51 L 946.83 660.75 L 948.31 671.57 L 949.78 664.48 L 951.25 685.24 L 952.72 667.00 L 954.19 658.00 L 955.67 678.14 L 957.14 656.46 L 958.61 681.12 L 960.08 680.42 L 961.56 655.81 L 963.03 678.50 L 964.50 642.70 L 965.97 655.88 L 967.44 638.88 L 968.92 656.44 L 970.39 682.52 L 971.86 655.99 L 973.33 675.18 L 974.81 644.39 L 976.28 662.26 L 977.75 664.57 L 979.22 662.31 L 980.69 680.36 L 982.17 623.08 L 983.64 657.20 L 985.11 665.99 L 986.58 685.70 L 988.06 682.35 L 989.53 683.70 L 991.00 688.74 L 992.47 664.90 L 993.94 647.33 L 995.42 651.90 L 996.89 670.98 L 998.36 669.58 L 999.83 676.25 L 1001.31 658.61 L 1002.78 671.95 L 1004.25 676.12 L 1005.72 658.95 L 1007.19 688.15 L 1008.67 686.83 L 1010.14 686.51 L 1011.61 657.19 L 1013.08 671.64 L 1014.56 672.46 L 1016.03 675.30 L 1017.50 678.50 L 1018.97 675.08 L 1020.44 680.71 L 1021.92 684.48 L 1023.39 658.32 L 1024.86 629.89 L 1026.33 648.76 L 1027.81 651.12 L 1029.28 683.61 L 1030.75 673.44 L 1032.22 653.58 L 1033.69 621.99 L 1035.17 654.84 L 1036.64 667.71 L 1038.11 675.90 L 1039.58 691.59 L 1041.06 671.83 L 1042.53 661.25 L 1044.00 649.34 L 1045.47 649.34 L 1046.94 675.09 L 1048.42 690.60 L 1049.89 675.40 L 1051.36 663.49 L 1052.83 663.46 L 1054.31 667.69 L 1055.78 672.29 L 1057.25 680.75 L 1058.72 683.93 L 1060.19 675.52 L 1061.67 661.31 L 1063.14 656.06" stroke="#FB8C00" />
<text x="90" y="711.25" font-size="14" font-weight="700">Giroscópio (magnitude) (u.a.)</text>
<rect class="event" x="443.33" y="717.25" width="354.81" height="192.75" />
<line class="eventline" x1="443.33" y1="717.25" x2="443.33" y2="910.00" />
<line class="eventline" x1="798.14" y1="717.25" x2="798.14" y2="910.00" />
<line class="grid" x1="90" y1="910.00" x2="1150" y2="910.00" />
<text class="small" x="80" y="914.00" text-anchor="end">0.00</text>
<line class="grid" x1="90" y1="871.45" x2="1150" y2="871.45" />
<text class="small" x="80" y="875.45" text-anchor="end">0.10</text>
<line class="grid" x1="90" y1="832.90" x2="1150" y2="832.90" />
<text class="small" x="80" y="836.90" text-anchor="end">0.20</text>
<line class="grid" x1="90" y1="794.35" x2="1150" y2="794.35" />
<text class="small" x="80" y="798.35" text-anchor="end">0.30</text>
<line class="grid" x1="90" y1="755.80" x2="1150" y2="755.80" />
<text class="small" x="80" y="759.80" text-anchor="end">0.40</text>
<line class="grid" x1="90" y1="717.25" x2="1150" y2="717.25" />
<text class="small" x="80" y="721.25" text-anchor="end">0.50</text>
<line class="grid" x1="90.00" y1="717.25" x2="90.00" y2="910.00" />
<line class="grid" x1="266.67" y1="717.25" x2="266.67" y2="910.00" />
<line class="grid" x1="443.33" y1="717.25" x2="443.33" y2="910.00" />
<line class="grid" x1="620.00" y1="717.25" x2="620.00" y2="910.00" />
<line class="grid" x1="796.67" y1="717.25" x2="796.67" y2="910.00" />
<line class="grid" x1="973.33" y1="717.25" x2="973.33" y2="910.00" />
<line class="grid" x1="1150.00" y1="717.25" x2="1150.00" y2="910.00" />
<line class="axis" x1="90" y1="717.25" x2="90" y2="910.00" />
<line class="axis" x1="90" y1="910.00" x2="1150" y2="910.00" />
<path class="series" d="M 178.33 866.41 L 179.81 863.20 L 181.28 859.51 L 182.75 851.35 L 184.22 857.60 L 185.69 883.05 L 187.17 897.55 L 188.64 901.15 L 190.11 899.34 L 191.58 896.90 L 193.06 891.72 L 194.53 893.18 L 196.00 888.80 L 197.47 894.25 L 198.94 877.66 L 200.42 879.39 L 201.89 890.40 L 203.36 901.95 L 204.83 904.72 L 206.31 889.53 L 207.78 872.43 L 209.25 854.01 L 210.72 841.28 L 212.19 837.89 L 213.67 839.66 L 215.14 844.19 L 216.61 854.24 L 218.08 862.04 L 219.56 867.31 L 221.03 884.10 L 222.50 903.20 L 223.97 906.78 L 225.44 905.84 L 226.92 901.09 L 228.39 905.38 L 229.86 905.47 L 231.33 905.35 L 232.81 900.64 L 234.28 900.64 L 235.75 899.43 L 237.22 900.58 L 238.69 900.37 L 240.17 902.74 L 241.64 897.39 L 243.11 892.95 L 244.58 894.19 L 246.06 890.28 L 247.53 889.44 L 249.00 897.79 L 250.47 896.29 L 251.94 891.65 L 253.42 897.03 L 254.89 896.66 L 256.36 897.64 L 257.83 893.17 L 259.31 895.48 L 260.78 895.11 L 262.25 897.72 L 263.72 893.52 L 265.19 893.23 L 266.67 892.51 L 268.14 895.62 L 269.61 896.23 L 271.08 896.08 L 272.56 892.28 L 274.03 892.53 L 275.50 894.61 L 276.97 899.05 L 278.44 898.03 L 279.92 900.84 L 281.39 900.07 L 282.86 897.90 L 284.33 901.69 L 285.81 906.05 L 287.28 908.42 L 288.75 906.62 L 290.22 905.35 L 291.69 905.29 L 293.17 903.56 L 294.64 904.44 L 296.11 904.44 L 297.58 904.77 L 299.06 906.87 L 300.53 908.13 L 302.00 904.02 L 303.47 906.42 L 304.94 905.93 L 306.42 906.66 L 307.89 904.32 L 309.36 905.24 L 310.83 905.87 L 312.31 905.48 L 313.78 907.09 L 315.25 906.07 L 316.72 904.25 L 318.19 904.42 L 319.67 901.77 L 321.14 901.85 L 322.61 903.97 L 324.08 905.37 L 325.56 904.94 L 327.03 904.88 L 328.50 906.24 L 329.97 906.26 L 331.44 908.87 L 332.92 909.06 L 334.39 909.11 L 335.86 908.40 L 337.33 909.52 L 338.81 909.02 L 340.28 908.55 L 341.75 908.62 L 343.22 909.15 L 344.69 909.07 L 346.17 909.00 L 347.64 909.12 L 349.11 909.11 L 350.58 909.07 L 352.06 908.95 L 353.53 909.08 L 355.00 909.12 L 356.47 909.00 L 357.94 909.03 L 359.42 908.98 L 360.89 908.86 L 362.36 908.98 L 363.83 909.10 L 365.31 908.92 L 366.78 909.00 L 368.25 909.07 L 369.72 909.14 L 371.19 909.15 L 372.67 909.05 L 374.14 909.12 L 375.61 909.09 L 377.08 909.21 L 378.56 908.87 L 380.03 909.04 L 381.50 908.98 L 382.97 909.09 L 384.44 909.07 L 385.92 908.89 L 387.39 909.18 L 388.86 909.14 L 390.33 909.19 L 391.81 909.14 L 393.28 909.06 L 394.75 909.34 L 396.22 909.24 L 397.69 908.99 L 399.17 903.76 L 400.64 901.00 L 402.11 894.42 L 403.58 903.18 L 405.06 905.91 L 406.53 904.07 L 408.00 903.81 L 409.47 901.90 L 410.94 900.98 L 412.42 901.75 L 413.89 900.84 L 415.36 903.28 L 416.83 904.89 L 418.31 902.24 L 419.78 903.38 L 421.25 902.85 L 422.72 902.18 L 424.19 903.38 L 425.67 904.24 L 427.14 902.62 L 428.61 903.72 L 430.08 907.01 L 431.56 905.79 L 433.03 904.45 L 434.50 900.91 L 435.97 899.22 L 437.44 895.94 L 438.92 896.95 L 440.39 898.82 L 441.86 899.92 L 443.33 909.11 L 444.81 909.31 L 446.28 908.97 L 447.75 908.97 L 449.22 908.45 L 450.69 908.26 L 452.17 908.82 L 453.64 909.10 L 455.11 909.00 L 456.58 909.02 L 458.06 908.98 L 459.53 909.06 L 461.00 909.01 L 462.47 909.03 L 463.94 908.96 L 465.42 908.90 L 466.89 909.78 L 468.36 909.88 L 469.83 909.92 L 471.31 909.94 L 472.78 909.97 L 474.25 909.89 L 475.72 909.99 L 477.19 909.94 L 478.67 909.92 L 480.14 909.96 L 481.61 909.94 L 483.08 909.89 L 484.56 909.87 L 486.03 909.90 L 487.50 909.85 L 488.97 909.90 L 490.44 909.88 L 491.92 909.83 L 493.39 909.86 L 494.86 909.85 L 496.33 909.88 L 497.81 909.82 L 499.28 909.82 L 500.75 909.79 L 502.22 909.81 L 503.69 909.88 L 505.17 909.87 L 506.64 909.83 L 508.11 909.84 L 509.58 909.80 L 511.06 909.76 L 512.53 909.84 L 514.00 909.89 L 515.47 909.79 L 516.94 909.76 L 518.42 909.78 L 519.89 909.81 L 521.36 909.76 L 522.83 909.82 L 524.31 909.80 L 525.78 909.92 L 527.25 909.92 L 528.72 909.95 L 530.19 909.89 L 531.67 909.83 L 533.14 909.89 L 534.61 909.91 L 536.08 909.96 L 537.56 909.93 L 539.03 909.95 L 540.50 909.97 L 541.97 909.96 L 543.44 909.94 L 544.92 909.94 L 546.39 909.80 L 547.86 909.79 L 549.33 909.84 L 550.81 909.79 L 552.28 909.82 L 553.75 909.81 L 555.22 909.81 L 556.69 909.85 L 558.17 909.83 L 559.64 909.79 L 561.11 909.78 L 562.58 909.79 L 564.06 909.77 L 565.53 909.85 L 567.00 909.78 L 568.47 909.82 L 569.94 909.84 L 571.42 909.82 L 572.89 909.80 L 574.36 909.79 L 575.83 909.80 L 577.31 909.84 L 578.78 909.86 L 580.25 909.85 L 581.72 909.82 L 583.19 909.79 L 584.67 909.74 L 586.14 909.84 L 587.61 909.86 L 589.08 909.82 L 590.56 909.80 L 592.03 909.78 L 593.50 909.80 L 594.97 909.81 L 596.44 909.77 L 597.92 909.74 L 599.39 909.84 L 600.86 909.79 L 602.33 909.84 L 603.81 909.75 L 605.28 909.82 L 606.75 909.84 L 608.22 909.76 L 609.69 909.74 L 611.17 909.80 L 612.64 909.76 L 614.11 909.76 L 615.58 909.77 L 617.06 909.71 L 618.53 909.71 L 620.00 909.72 L 621.47 909.75 L 622.94 909.79 L 624.42 909.78 L 625.89 909.77 L 627.36 909.81 L 628.83 909.77 L 630.31 909.86 L 631.78 909.94 L 633.25 909.94 L 634.72 909.94 L 636.19 909.96 L 637.67 909.98 L 639.14 909.98 L 640.61 909.94 L 642.08 909.94 L 643.56 909.95 L 645.03 909.98 L 646.50 909.95 L 647.97 909.91 L 649.44 909.93 L 650.92 909.90 L 652.39 909.96 L 653.86 909.93 L 655.33 909.93 L 656.81 909.97 L 658.28 909.90 L 659.75 909.91 L 661.22 909.92 L 662.69 909.95 L 664.17 909.95 L 665.64 909.87 L 667.11 909.93 L 668.58 909.92 L 670.06 909.93 L 671.53 909.93 L 673.00 909.92 L 674.47 909.90 L 675.94 909.97 L 677.42 909.95 L 678.89 909.88 L 680.36 909.93 L 681.83 909.93 L 683.31 909.87 L 684.78 909.94 L 686.25 909.98 L 687.72 909.89 L 689.19 909.91 L 690.67 909.93 L 692.14 909.89 L 693.61 909.90 L 695.08 909.92 L 696.56 909.89 L 698.03 909.86 L 699.50 909.90 L 700.97 909.90 L 702.44 909.93 L 703.92 909.90 L 705.39 909.97 L 706.86 909.89 L 708.33 909.96 L 709.81 909.88 L 711.28 909.97 L 712.75 909.93 L 714.22 909.94 L 715.69 909.90 L 717.17 909.97 L 718.64 909.94 L 720.11 909.94 L 721.58 909.96 L 723.06 909.96 L 724.53 909.94 L 726.00 909.91 L 727.47 909.92 L 728.94 909.94 L 730.42 909.94 L 731.89 909.96 L 733.36 909.96 L 734.83 909.92 L 736.31 909.94 L 737.78 909.95 L 739.25 909.93 L 740.72 909.95 L 742.19 909.94 L 743.67 909.94 L 745.14 909.93 L 746.61 909.93 L 748.08 909.88 L 749.56 909.92 L 751.03 909.91 L 752.50 909.92 L 753.97 909.93 L 755.44 909.97 L 756.92 909.94 L 758.39 909.92 L 759.86 909.90 L 761.33 909.92 L 762.81 909.96 L 764.28 909.91 L 765.75 909.86 L 767.22 909.92 L 768.69 909.96 L 770.17 909.90 L 771.64 909.89 L 773.11 909.86 L 774.58 909.85 L 776.06 909.88 L 777.53 909.93 L 779.00 909.88 L 780.47 909.89 L 781.94 909.87 L 783.42 909.90 L 784.89 909.90 L 786.36 909.79 L 787.83 907.95 L 789.31 908.96 L 790.78 909.82 L 792.25 908.61 L 793.72 909.73 L 795.19 904.25 L 796.67 898.82 L 798.14 892.59 L 799.61 896.27 L 801.08 893.93 L 802.56 903.87 L 804.03 906.31 L 805.50 898.82 L 806.97 879.66 L 808.44 883.60 L 809.92 883.25 L 811.39 877.57 L 812.86 877.06 L 814.33 878.09 L 815.81 880.39 L 817.28 882.75 L 818.75 881.73 L 820.22 890.61 L 821.69 891.81 L 823.17 891.63 L 824.64 891.18 L 826.11 884.18 L 827.58 893.54 L 829.06 899.01 L 830.53 902.18 L 832.00 905.03 L 833.47 903.02 L 834.94 899.01 L 836.42 896.18 L 837.89 892.90 L 839.36 892.52 L 840.83 892.60 L 842.31 897.35 L 843.78 893.99 L 845.25 896.52 L 846.72 891.30 L 848.19 883.49 L 849.67 869.77 L 851.14 871.42 L 852.61 863.83 L 854.08 859.43 L 855.56 862.27 L 857.03 867.56 L 858.50 882.01 L 859.97 888.69 L 861.44 891.81 L 862.92 888.80 L 864.39 888.94 L 865.86 888.47 L 867.33 886.88 L 868.81 884.92 L 870.28 883.47 L 871.75 885.03 L 873.22 884.28 L 874.69 882.94 L 876.17 880.60 L 877.64 880.60 L 879.11 883.19 L 880.58 894.19 L 882.06 900.03 L 883.53 897.20 L 885.00 905.24 L 886.47 897.38 L 887.94 899.78 L 889.42 903.91 L 890.89 901.07 L 892.36 906.80 L 893.83 900.12 L 895.31 896.25 L 896.78 905.13 L 898.25 906.39 L 899.72 905.24 L 901.19 898.33 L 902.67 900.11 L 904.14 900.16 L 905.61 902.01 L 907.08 904.16 L 908.56 906.44 L 910.03 902.17 L 911.50 897.32 L 912.97 898.10 L 914.44 895.38 L 915.92 903.29 L 917.39 900.28 L 918.86 901.45 L 920.33 901.36 L 921.81 902.78 L 923.28 898.34 L 924.75 902.09 L 926.22 905.47 L 927.69 904.48 L 929.17 905.18 L 930.64 906.68 L 932.11 903.57 L 933.58 905.50 L 935.06 904.61 L 936.53 902.93 L 938.00 900.44 L 939.47 904.84 L 940.94 903.53 L 942.42 897.85 L 943.89 898.20 L 945.36 895.94 L 946.83 905.88 L 948.31 898.98 L 949.78 899.67 L 951.25 897.20 L 952.72 896.74 L 954.19 897.33 L 955.67 890.10 L 957.14 907.66 L 958.61 907.77 L 960.08 907.07 L 961.56 887.55 L 963.03 868.78 L 964.50 850.80 L 965.97 825.73 L 967.44 814.45 L 968.92 815.34 L 970.39 829.43 L 971.86 845.10 L 973.33 863.26 L 974.81 883.69 L 976.28 903.75 L 977.75 875.51 L 979.22 876.85 L 980.69 876.93 L 982.17 899.93 L 983.64 893.66 L 985.11 887.54 L 986.58 888.75 L 988.06 884.94 L 989.53 884.59 L 991.00 888.55 L 992.47 900.89 L 993.94 902.87 L 995.42 890.65 L 996.89 870.38 L 998.36 889.54 L 999.83 900.84 L 1001.31 882.01 L 1002.78 877.45 L 1004.25 900.23 L 1005.72 891.74 L 1007.19 894.26 L 1008.67 896.08 L 1010.14 898.05 L 1011.61 897.97 L 1013.08 901.51 L 1014.56 895.34 L 1016.03 891.40 L 1017.50 884.83 L 1018.97 890.16 L 1020.44 894.74 L 1021.92 897.88 L 1023.39 890.14 L 1024.86 867.50 L 1026.33 840.19 L 1027.81 853.50 L 1029.28 873.24 L 1030.75 875.82 L 1032.22 895.55 L 1033.69 901.58 L 1035.17 881.90 L 1036.64 884.85 L 1038.11 893.36 L 1039.58 898.84 L 1041.06 901.87 L 1042.53 900.92 L 1044.00 893.24 L 1045.47 893.24 L 1046.94 904.03 L 1048.42 901.11 L 1049.89 908.51 L 1051.36 901.25 L 1052.83 890.91 L 1054.31 894.20 L 1055.78 884.33 L 1057.25 890.29 L 1058.72 885.20 L 1060.19 886.93 L 1061.67 893.91 L 1063.14 897.27" stroke="#E53935" />
<text x="620.00" y="952" font-size="15" text-anchor="middle">minutos (relativo ao início do evento)</text>
<text class="small" x="90.00" y="936" text-anchor="middle">-4.00</text>
<text class="small" x="266.67" y="936" text-anchor="middle">-2.00</text>
<text class="small" x="443.33" y="936" text-anchor="middle">0.00</text>
<text class="small" x="620.00" y="936" text-anchor="middle">2.00</text>
<text class="small" x="796.67" y="936" text-anchor="middle">4.00</text>
<text class="small" x="973.33" y="936" text-anchor="middle">6.00</text>
<text class="small" x="1150.00" y="936" text-anchor="middle">8.00</text>
</svg>