<?xml version="1.0" encoding="UTF-8"?>
<svg xmlns="http://www.w3.org/2000/svg" width="1180" height="980" viewBox="0 0 1180 980">
<style>
text { font-family: -apple-system, BlinkMacSystemFont, 'Segoe UI', Roboto, Helvetica, Arial, sans-serif; fill: #111; }
.small { font-size: 12px; fill: #222; }
.title { font-size: 18px; font-weight: 700; }
.axis { stroke: #111; stroke-width: 1.4; }
.grid { stroke: #E6E6E6; stroke-width: 1; }
.event { fill: #FFEB3B; fill-opacity: 0.18; }
.eventline { stroke: #F9A825; stroke-width: 1.2; stroke-dasharray: 4 3; }
.series { fill: none; stroke-width: 1.8; }
</style>
<text class="title" x="90" y="34">ciclo 23 — espera_carregamento — 2025-12-13T09:45:18-03:00 → 2025-12-13T09:45:33-03:00 (span 15s, dur 17s)</text>
<text class="small" x="90" y="54">GPS: -11.698401,-47.155379  hotspot: -11.698,-47.155</text>
<text class="small" x="90" y="70">Janela: -3.00 → 3.25 min (relativo ao início do evento)</text>
<text x="90" y="79.00" font-size="14" font-weight="700">Velocidade (km/h)</text>
<rect class="event" x="443.33" y="85.00" width="22.08" height="192.75" />
<line class="eventline" x1="443.33" y1="85.00" x2="443.33" y2="277.75" />
<line class="eventline" x1="465.42" y1="85.00" x2="465.42" y2="277.75" />
<line class="grid" x1="90" y1="277.75" x2="1150" y2="277.75" />
<text class="small" x="80" y="281.75" text-anchor="end">0.00</text>
<line class="grid" x1="90" y1="239.20" x2="1150" y2="239.20" />
<text class="small" x="80" y="243.20" text-anchor="end">5.00</text>
<line class="grid" x1="90" y1="200.65" x2="1150" y2="200.65" />
<text class="small" x="80" y="204.65" text-anchor="end">10.0</text>
<line class="grid" x1="90" y1="162.10" x2="1150" y2="162.10" />
<text class="small" x="80" y="166.10" text-anchor="end">15.0</text>
<line class="grid" x1="90" y1="123.55" x2="1150" y2="123.55" />
<text class="small" x="80" y="127.55" text-anchor="end">20.0</text>
<line class="grid" x1="90" y1="85.00" x2="1150" y2="85.00" />
<text class="small" x="80" y="89.00" text-anchor="end">25.0</text>
<line class="grid" x1="90.00" y1="85.00" x2="90.00" y2="277.75" />
<line class="grid" x1="266.67" y1="85.00" x2="266.67" y2="277.75" />
<line class="grid" x1="443.33" y1="85.00" x2="443.33" y2="277.75" />
<line class="grid" x1="620.00" y1="85.00" x2="620.00" y2="277.75" />
<line class="grid" x1="796.67" y1="85.00" x2="796.67" y2="277.75" />
<line class="grid" x1="973.33" y1="85.00" x2="973.33" y2="277.75" />
<line class="grid" x1="1150.00" y1="85.00" x2="1150.00" y2="277.75" />
<line class="axis" x1="90" y1="85.00" x2="90" y2="277.75" />
<line class="axis" x1="90" y1="277.75" x2="1150" y2="277.75" />
<path class="series" d="M 178.33 180.60 L 179.81 189.76 L 181.28 221.13 L 182.75 218.91 L 184.22 238.89 L 185.69 231.68 L 187.17 243.33 L 188.64 244.72 L 190.11 256.93 L 191.58 249.44 L 193.06 259.99 L 194.53 273.03 L 196.00 277.75 L 197.47 277.75 L 198.94 271.37 L 200.42 264.43 L 201.89 264.70 L 203.36 264.43 L 204.83 263.87 L 206.31 262.76 L 207.78 261.37 L 209.25 255.27 L 210.72 257.21 L 212.19 259.99 L 213.67 258.04 L 215.14 260.26 L 216.61 258.32 L 218.08 258.32 L 219.56 253.05 L 221.03 258.32 L 222.50 256.66 L 223.97 255.27 L 225.44 259.15 L 226.92 261.37 L 228.39 260.54 L 229.86 258.60 L 231.33 258.60 L 232.81 253.60 L 234.28 256.38 L 235.75 254.99 L 237.22 255.55 L 238.69 256.66 L 240.17 257.49 L 241.64 259.43 L 243.11 258.32 L 244.58 253.88 L 246.06 252.49 L 247.53 253.32 L 249.00 256.93 L 250.47 254.71 L 251.94 251.38 L 253.42 251.66 L 254.89 254.16 L 256.36 252.21 L 257.83 251.10 L 259.31 251.94 L 260.78 251.10 L 262.25 254.16 L 263.72 252.49 L 265.19 253.60 L 266.67 254.16 L 268.14 254.71 L 269.61 254.99 L 271.08 254.99 L 272.56 277.75 L 274.03 254.99 L 275.50 253.05 L 276.97 252.49 L 278.44 248.88 L 279.92 248.61 L 281.39 248.33 L 282.86 251.66 L 284.33 250.83 L 285.81 248.88 L 287.28 252.49 L 288.75 251.10 L 290.22 256.93 L 291.69 250.83 L 293.17 256.66 L 294.64 253.05 L 296.11 255.55 L 297.58 258.88 L 299.06 253.60 L 300.53 254.43 L 302.00 260.54 L 303.47 261.37 L 304.94 256.66 L 306.42 262.76 L 307.89 256.66 L 309.36 255.27 L 313.78 255.27 L 313.78 255.27 L 315.25 255.27 L 316.72 269.70 L 318.19 267.20 L 319.67 266.93 L 324.08 266.93 L 324.08 266.93 L 325.56 277.75 L 327.03 277.75 L 328.50 277.75 L 329.97 277.75 L 334.39 277.75 L 334.39 277.75 L 335.86 277.75 L 337.33 277.75 L 338.81 277.75 L 340.28 277.75 L 344.69 277.75 L 344.69 277.75 L 346.17 277.75 L 347.64 277.75 L 349.11 277.75 L 350.58 277.75 L 355.00 277.75 L 355.00 277.75 L 356.47 277.75 L 357.94 277.75 L 359.42 277.75 L 360.89 277.75 L 362.36 277.75 L 363.83 277.75 L 365.31 277.75 L 366.78 277.75 L 368.25 277.75 L 369.72 277.75 L 371.19 277.75 L 372.67 277.75 L 374.14 277.75 L 375.61 277.75 L 380.03 277.75 L 380.03 277.75 L 381.50 277.75 L 382.97 277.75 L 384.44 277.75 L 385.92 277.75 L 390.33 277.75 L 390.33 277.75 L 391.81 277.75 L 393.28 277.75 L 394.75 277.75 L 396.22 277.75 L 397.69 277.75 L 399.17 277.75 L 400.64 277.75 L 402.11 277.75 L 403.58 277.75 L 405.06 277.75 L 406.53 277.75 L 408.00 277.75 L 409.47 277.75 L 410.94 277.75 L 413.89 277.75 L 413.89 277.75 L 415.36 277.75 L 416.83 277.75 L 418.31 277.75 L 419.78 277.75 L 421.25 277.75 L 422.72 277.75 L 424.19 277.75 L 425.67 277.75 L 427.14 277.75 L 428.61 277.75 L 433.03 277.75 L 433.03 277.75 L 434.50 277.75 L 435.97 277.75 L 437.44 277.75 L 438.92 277.75 L 443.33 277.75 L 443.33 277.75 L 444.81 277.75 L 446.28 277.75 L 447.75 277.75 L 449.22 277.75 L 452.17 277.75 L 452.17 277.75 L 453.64 277.75 L 455.11 277.75 L 456.58 277.75 L 458.06 277.75 L 459.53 277.75 L 462.47 277.75 L 462.47 277.75 L 463.94 277.75 L 465.42 277.75 L 469.83 277.75 L 469.83 277.75 L 471.31 277.75 L 472.78 277.75 L 474.25 277.75 L 475.72 277.75 L 477.19 277.75 L 478.67 277.75 L 480.14 277.75 L 481.61 277.75 L 483.08 277.75 L 484.56 277.75 L 486.03 277.75 L 487.50 277.75 L 488.97 277.75 L 490.44 277.75 L 491.92 277.75 L 493.39 277.75 L 494.86 277.75 L 496.33 277.75 L 497.81 277.75 L 499.28 277.75 L 500.75 277.75 L 502.22 277.75 L 503.69 277.75 L 505.17 277.75 L 506.64 277.75 L 508.11 277.75 L 509.58 277.75 L 514.00 277.75 L 514.00 277.75 L 515.47 277.75 L 516.94 277.75 L 518.42 277.75 L 519.89 277.75 L 524.31 277.75 L 524.31 277.75 L 525.78 277.75 L 527.25 277.75 L 528.72 277.75 L 530.19 277.75 L 534.61 277.75 L 534.61 277.75 L 536.08 277.75 L 537.56 277.75 L 539.03 277.75 L 540.50 277.75 L 544.92 277.75 L 544.92 277.75 L 546.39 277.75 L 547.86 277.75 L 549.33 277.75 L 550.81 277.75 L 555.22 277.75 L 555.22 277.75 L 556.69 277.75 L 558.17 277.75 L 559.64 277.75 L 561.11 277.75 L 565.53 277.75 L 565.53 277.75 L 567.00 277.75 L 568.47 277.75 L 569.94 277.75 L 571.42 277.75 L 572.89 277.75 L 574.36 277.75 L 575.83 277.75 L 577.31 277.75 L 578.78 277.75 L 580.25 277.75 L 581.72 277.75 L 583.19 277.75 L 584.67 277.75 L 586.14 277.75 L 587.61 277.75 L 589.08 277.75 L 592.03 277.75 L 592.03 277.75 L 593.50 277.75 L 594.97 277.75 L 596.44 277.75 L 597.92 277.75 L 599.39 277.75 L 603.81 277.75 L 603.81 277.75 L 605.28 277.75 L 606.75 277.75 L 608.22 277.75 L 609.69 277.75 L 614.11 277.75 L 614.11 277.75 L 615.58 277.75 L 617.06 277.75 L 618.53 277.75 L 620.00 277.75 L 621.47 277.75 L 622.94 277.75 L 624.42 277.75 L 625.89 277.75 L 627.36 277.75 L 628.83 277.75 L 630.31 277.75 L 631.78 277.75 L 633.25 277.75 L 634.72 277.75 L 636.19 277.75 L 637.67 277.75 L 639.14 277.75 L 640.61 277.75 L 642.08 277.75 L 643.56 277.75 L 645.03 277.75 L 646.50 277.75 L 647.97 277.75 L 649.44 277.75 L 650.92 277.75 L 652.39 277.75 L 653.86 277.75 L 655.33 277.75 L 656.81 277.75 L 658.28 277.75 L 659.75 277.75 L 661.22 277.75 L 665.64 277.75 L 665.64 277.75 L 667.11 277.75 L 668.58 277.75 L 670.06 277.75 L 671.53 277.75 L 674.47 277.75 L 674.47 277.75 L 675.94 277.75 L 677.42 277.75 L 678.89 277.75 L 680.36 277.75 L 681.83 277.75 L 686.25 277.75 L 686.25 277.75 L 687.72 277.75 L 689.19 277.75 L 690.67 277.75 L 692.14 277.75 L 693.61 277.75 L 695.08 277.75 L 696.56 277.75 L 698.03 277.75 L 699.50 277.75 L 700.97 277.75 L 702.44 277.75 L 703.92 277.75 L 705.39 277.75 L 706.86 277.75 L 708.33 277.75 L 709.81 277.75 L 711.28 277.75 L 712.75 277.75 L 714.22 277.75 L 715.69 277.75 L 717.17 277.75 L 718.64 277.75 L 720.11 277.75 L 721.58 277.75 L 723.06 277.75 L 724.53 277.75 L 726.00 277.75 L 727.47 277.75 L 728.94 277.75 L 730.42 277.75" stroke="#1976D2" />
<text x="90" y="289.75" font-size="14" font-weight="700">Inclinação (graus)</text>
<rect class="event" x="443.33" y="295.75" width="22.08" height="192.75" />
<line class="eventline" x1="443.33" y1="295.75" x2="443.33" y2="488.50" />
<line class="eventline" x1="465.42" y1="295.75" x2="465.42" y2="488.50" />
<line class="grid" x1="90" y1="488.50" x2="1150" y2="488.50" />
<text class="small" x="80" y="492.50" text-anchor="end">-10.0</text>
<line class="grid" x1="90" y1="449.95" x2="1150" y2="449.95" />
<text class="small" x="80" y="453.95" text-anchor="end">0.00</text>
<line class="grid" x1="90" y1="411.40" x2="1150" y2="411.40" />
<text class="small" x="80" y="415.40" text-anchor="end">10.0</text>
<line class="grid" x1="90" y1="372.85" x2="1150" y2="372.85" />
<text class="small" x="80" y="376.85" text-anchor="end">20.0</text>
<line class="grid" x1="90" y1="334.30" x2="1150" y2="334.30" />
<text class="small" x="80" y="338.30" text-anchor="end">30.0</text>
<line class="grid" x1="90" y1="295.75" x2="1150" y2="295.75" />
<text class="small" x="80" y="299.75" text-anchor="end">40.0</text>
<line class="grid" x1="90.00" y1="295.75" x2="90.00" y2="488.50" />
<line class="grid" x1="266.67" y1="295.75" x2="266.67" y2="488.50" />
<line class="grid" x1="443.33" y1="295.75" x2="443.33" y2="488.50" />
<line class="grid" x1="620.00" y1="295.75" x2="620.00" y2="488.50" />
<line class="grid" x1="796.67" y1="295.75" x2="796.67" y2="488.50" />
<line class="grid" x1="973.33" y1="295.75" x2="973.33" y2="488.50" />
<line class="grid" x1="1150.00" y1="295.75" x2="1150.00" y2="488.50" />
<line class="axis" x1="90" y1="295.75" x2="90" y2="488.50" />
<line class="axis" x1="90" y1="488.50" x2="1150" y2="488.50" />
<path class="series" d="M 178.33 384.65 L 179.81 375.94 L 181.28 402.67 L 182.75 399.27 L 184.22 398.69 L 185.69 404.32 L 187.17 397.36 L 188.64 392.43 L 190.11 394.67 L 191.58 389.69 L 193.06 386.88 L 194.53 388.30 L 196.00 400.13 L 197.47 399.67 L 198.94 388.19 L 200.42 399.80 L 201.89 399.73 L 203.36 395.81 L 204.83 400.80 L 206.31 398.50 L 207.78 394.75 L 209.25 397.76 L 210.72 404.84 L 212.19 399.62 L 213.67 411.71 L 215.14 401.15 L 216.61 404.56 L 218.08 402.90 L 219.56 416.41 L 221.03 411.31 L 222.50 413.10 L 223.97 414.30 L 225.44 415.30 L 226.92 420.57 L 228.39 418.71 L 229.86 424.85 L 231.33 418.79 L 232.81 432.68 L 234.28 422.43 L 235.75 422.43 L 237.22 428.22 L 238.69 421.71 L 240.17 428.52 L 241.64 424.72 L 243.11 423.59 L 244.58 425.07 L 246.06 425.72 L 247.53 430.24 L 249.00 434.80 L 250.47 430.90 L 251.94 434.10 L 253.42 435.20 L 254.89 436.68 L 256.36 428.68 L 257.83 436.97 L 259.31 433.43 L 260.78 433.67 L 262.25 436.39 L 263.72 435.69 L 265.19 433.55 L 266.67 431.36 L 268.14 427.64 L 269.61 427.82 L 271.08 426.61 L 272.56 421.72 L 274.03 424.27 L 275.50 422.58 L 276.97 422.67 L 278.44 420.73 L 279.92 430.05 L 281.39 422.29 L 282.86 424.89 L 284.33 434.77 L 285.81 430.13 L 287.28 445.09 L 288.75 432.10 L 290.22 447.80 L 291.69 436.04 L 293.17 447.48 L 294.64 437.75 L 296.11 440.22 L 297.58 445.08 L 299.06 436.47 L 300.53 436.73 L 302.00 442.53 L 303.47 437.27 L 304.94 431.70 L 306.42 443.58 L 307.89 429.98 L 309.36 432.25 L 313.78 447.02 L 313.78 447.02 L 315.25 447.02 L 316.72 437.47 L 318.19 434.36 L 319.67 433.63 L 324.08 433.23 L 324.08 433.23 L 325.56 433.23 L 327.03 433.54 L 328.50 430.48 L 329.97 429.03 L 334.39 431.77 L 334.39 431.77 L 335.86 433.09 L 337.33 430.55 L 338.81 430.54 L 340.28 430.53 L 344.69 430.50 L 344.69 430.50 L 346.17 430.50 L 347.64 430.49 L 349.11 430.43 L 350.58 430.44 L 355.00 430.43 L 355.00 430.43 L 356.47 430.42 L 357.94 430.44 L 359.42 430.39 L 360.89 430.47 L 362.36 430.42 L 363.83 430.44 L 365.31 430.42 L 366.78 430.41 L 368.25 430.41 L 369.72 430.37 L 371.19 430.56 L 372.67 430.03 L 374.14 430.24 L 375.61 430.21 L 380.03 430.33 L 380.03 430.33 L 381.50 430.24 L 382.97 430.28 L 384.44 430.29 L 385.92 430.30 L 390.33 430.29 L 390.33 430.29 L 391.81 430.29 L 393.28 430.28 L 394.75 430.27 L 396.22 430.27 L 397.69 430.27 L 399.17 430.27 L 400.64 430.27 L 402.11 430.26 L 403.58 430.28 L 405.06 430.25 L 406.53 430.29 L 408.00 430.30 L 409.47 430.26 L 410.94 430.26 L 413.89 430.28 L 413.89 430.28 L 415.36 430.28 L 416.83 430.28 L 418.31 430.25 L 419.78 430.26 L 421.25 430.39 L 422.72 430.36 L 424.19 429.80 L 425.67 429.27 L 427.14 430.08 L 428.61 429.74 L 433.03 429.87 L 433.03 429.87 L 434.50 429.65 L 435.97 429.87 L 437.44 429.88 L 438.92 429.89 L 443.33 429.84 L 443.33 429.84 L 444.81 429.84 L 446.28 429.86 L 447.75 429.88 L 449.22 429.87 L 452.17 429.83 L 452.17 429.83 L 453.64 429.83 L 455.11 429.85 L 456.58 429.86 L 458.06 429.86 L 459.53 429.91 L 462.47 429.83 L 462.47 429.83 L 463.94 429.82 L 465.42 429.84 L 469.83 429.80 L 469.83 429.80 L 471.31 429.80 L 472.78 429.80 L 474.25 429.82 L 475.72 429.80 L 477.19 429.78 L 478.67 429.75 L 480.14 429.81 L 481.61 429.78 L 483.08 429.77 L 484.56 429.78 L 486.03 429.55 L 487.50 429.37 L 488.97 429.38 L 490.44 429.50 L 491.92 429.46 L 493.39 429.41 L 494.86 429.40 L 496.33 429.40 L 497.81 429.41 L 499.28 429.41 L 500.75 429.37 L 502.22 429.31 L 503.69 429.31 L 505.17 429.41 L 506.64 429.40 L 508.11 429.39 L 509.58 429.40 L 514.00 429.40 L 514.00 429.40 L 515.47 429.41 L 516.94 429.42 L 518.42 429.37 L 519.89 429.40 L 524.31 429.43 L 524.31 429.43 L 525.78 429.43 L 527.25 429.42 L 528.72 429.45 L 530.19 429.31 L 534.61 429.79 L 534.61 429.79 L 536.08 429.18 L 537.56 429.37 L 539.03 429.33 L 540.50 429.40 L 544.92 429.31 L 544.92 429.31 L 546.39 430.08 L 547.86 429.32 L 549.33 429.32 L 550.81 429.34 L 555.22 429.35 L 555.22 429.35 L 556.69 429.32 L 558.17 429.33 L 559.64 429.30 L 561.11 429.29 L 565.53 429.30 L 565.53 429.30 L 567.00 429.28 L 568.47 429.31 L 569.94 429.31 L 571.42 429.33 L 572.89 429.29 L 574.36 429.37 L 575.83 429.73 L 577.31 427.83 L 578.78 429.35 L 580.25 429.01 L 581.72 428.53 L 583.19 428.53 L 584.67 428.99 L 586.14 428.96 L 587.61 429.00 L 589.08 429.02 L 592.03 428.98 L 592.03 428.98 L 593.50 429.39 L 594.97 429.39 L 596.44 428.99 L 597.92 429.00 L 599.39 429.00 L 603.81 428.96 L 603.81 428.96 L 605.28 429.00 L 606.75 428.98 L 608.22 428.99 L 609.69 428.98 L 614.11 429.01 L 614.11 429.01 L 615.58 428.18 L 617.06 429.01 L 618.53 428.97 L 620.00 429.03 L 621.47 429.14 L 622.94 430.03 L 624.42 428.44 L 625.89 430.41 L 627.36 429.54 L 628.83 429.54 L 630.31 430.02 L 631.78 429.70 L 633.25 429.94 L 634.72 429.87 L 636.19 429.90 L 637.67 429.86 L 639.14 429.87 L 640.61 429.82 L 642.08 429.89 L 643.56 429.89 L 645.03 429.90 L 646.50 429.84 L 647.97 429.87 L 649.44 429.86 L 650.92 429.86 L 652.39 429.87 L 653.86 429.85 L 655.33 429.84 L 656.81 429.86 L 658.28 429.83 L 659.75 429.83 L 661.22 429.86 L 665.64 429.83 L 665.64 429.83 L 667.11 429.83 L 668.58 429.81 L 670.06 429.83 L 671.53 429.81 L 674.47 429.82 L 674.47 429.82 L 675.94 429.78 L 677.42 429.78 L 678.89 430.34 L 680.36 430.56 L 681.83 430.53 L 686.25 430.42 L 686.25 430.42 L 687.72 430.42 L 689.19 430.51 L 690.67 430.54 L 692.14 430.52 L 693.61 430.50 L 695.08 430.50 L 696.56 430.50 L 698.03 430.52 L 699.50 430.54 L 700.97 430.62 L 702.44 430.54 L 703.92 430.57 L 705.39 430.53 L 706.86 430.54 L 708.33 430.57 L 709.81 430.57 L 711.28 430.54 L 712.75 430.53 L 714.22 430.57 L 715.69 430.84 L 717.17 431.21 L 718.64 431.68 L 720.11 431.42 L 721.58 431.62 L 723.06 431.53 L 724.53 431.58 L 726.00 431.54 L 727.47 431.55 L 728.94 431.60 L 730.42 431.56" stroke="#2E7D32" />
<path class="series" d="M 178.33 458.59 L 179.81 456.78 L 181.28 463.23 L 182.75 461.97 L 184.22 460.42 L 185.69 457.59 L 187.17 461.92 L 188.64 463.43 L 190.11 471.80 L 191.58 465.91 L 193.06 463.69 L 194.53 464.93 L 196.00 468.72 L 197.47 469.95 L 198.94 466.45 L 200.42 471.93 L 201.89 471.11 L 203.36 465.82 L 204.83 466.62 L 206.31 461.86 L 207.78 464.52 L 209.25 456.26 L 210.72 460.78 L 212.19 454.71 L 213.67 451.78 L 215.14 455.64 L 216.61 448.48 L 218.08 448.49 L 219.56 453.54 L 221.03 461.83 L 222.50 463.40 L 223.97 454.27 L 225.44 457.93 L 226.92 454.82 L 228.39 464.80 L 229.86 465.13 L 231.33 470.05 L 232.81 470.00 L 234.28 468.69 L 235.75 468.69 L 237.22 473.48 L 238.69 464.97 L 240.17 476.11 L 241.64 469.24 L 243.11 468.25 L 244.58 471.71 L 246.06 468.25 L 247.53 469.42 L 249.00 469.72 L 250.47 472.30 L 251.94 465.14 L 253.42 470.41 L 254.89 469.03 L 256.36 460.47 L 257.83 469.34 L 259.31 457.52 L 260.78 460.35 L 262.25 457.87 L 263.72 459.46 L 265.19 457.04 L 266.67 461.97 L 268.14 455.78 L 269.61 460.39 L 271.08 460.19 L 272.56 448.68 L 274.03 464.11 L 275.50 460.55 L 276.97 456.54 L 278.44 455.36 L 279.92 448.56 L 281.39 453.06 L 282.86 447.21 L 284.33 446.17 L 285.81 444.73 L 287.28 449.33 L 288.75 438.50 L 290.22 442.85 L 291.69 439.46 L 293.17 439.76 L 294.64 445.18 L 296.11 439.18 L 297.58 441.98 L 299.06 436.75 L 300.53 448.74 L 302.00 452.44 L 303.47 449.05 L 304.94 450.64 L 306.42 458.76 L 307.89 452.12 L 309.36 452.45 L 313.78 456.72 L 313.78 456.72 L 315.25 456.72 L 316.72 450.86 L 318.19 451.71 L 319.67 451.23 L 324.08 448.62 L 324.08 448.62 L 325.56 448.62 L 327.03 457.11 L 328.50 458.20 L 329.97 455.23 L 334.39 458.37 L 334.39 458.37 L 335.86 460.11 L 337.33 457.06 L 338.81 456.91 L 340.28 457.11 L 344.69 456.88 L 344.69 456.88 L 346.17 456.88 L 347.64 456.97 L 349.11 456.95 L 350.58 456.89 L 355.00 456.86 L 355.00 456.86 L 356.47 456.90 L 357.94 456.92 L 359.42 456.89 L 360.89 456.90 L 362.36 456.88 L 363.83 456.93 L 365.31 456.89 L 366.78 456.88 L 368.25 456.86 L 369.72 456.90 L 371.19 456.43 L 372.67 455.96 L 374.14 456.46 L 375.61 455.82 L 380.03 456.50 L 380.03 456.50 L 381.50 455.66 L 382.97 456.20 L 384.44 456.25 L 385.92 456.06 L 390.33 456.28 L 390.33 456.28 L 391.81 456.28 L 393.28 456.13 L 394.75 456.14 L 396.22 456.10 L 397.69 456.15 L 399.17 456.09 L 400.64 456.11 L 402.11 456.14 L 403.58 456.14 L 405.06 456.07 L 406.53 456.09 L 408.00 456.08 L 409.47 456.13 L 410.94 456.06 L 413.89 456.06 L 413.89 456.06 L 415.36 456.06 L 416.83 456.06 L 418.31 456.04 L 419.78 456.11 L 421.25 456.07 L 422.72 456.58 L 424.19 453.92 L 425.67 455.36 L 427.14 455.83 L 428.61 454.68 L 433.03 455.36 L 433.03 455.36 L 434.50 454.80 L 435.97 455.29 L 437.44 455.17 L 438.92 455.34 L 443.33 455.27 L 443.33 455.27 L 444.81 455.27 L 446.28 455.25 L 447.75 455.19 L 449.22 455.27 L 452.17 455.19 L 452.17 455.19 L 453.64 455.22 L 455.11 455.24 L 456.58 455.23 L 458.06 455.23 L 459.53 455.22 L 462.47 455.26 L 462.47 455.19 L 463.94 455.24 L 465.42 455.24 L 469.83 455.17 L 469.83 455.17 L 471.31 455.17 L 472.78 455.17 L 474.25 455.23 L 475.72 455.21 L 477.19 455.24 L 478.67 455.16 L 480.14 455.18 L 481.61 455.19 L 483.08 455.17 L 484.56 455.46 L 486.03 454.62 L 487.50 455.34 L 488.97 455.33 L 490.44 455.51 L 491.92 455.30 L 493.39 455.26 L 494.86 455.42 L 496.33 455.37 L 497.81 455.25 L 499.28 455.33 L 500.75 455.40 L 502.22 455.16 L 503.69 455.16 L 505.17 455.32 L 506.64 455.36 L 508.11 455.33 L 509.58 455.32 L 514.00 455.32 L 514.00 455.32 L 515.47 455.31 L 516.94 455.31 L 518.42 455.33 L 519.89 455.32 L 524.31 455.29 L 524.31 455.29 L 525.78 455.29 L 527.25 455.35 L 528.72 455.23 L 530.19 455.30 L 534.61 455.59 L 534.61 455.59 L 536.08 456.22 L 537.56 456.29 L 539.03 456.25 L 540.50 456.33 L 544.92 456.19 L 544.92 456.19 L 546.39 456.49 L 547.86 456.21 L 549.33 456.23 L 550.81 456.20 L 555.22 456.23 L 555.22 456.23 L 556.69 456.31 L 558.17 456.22 L 559.64 456.22 L 561.11 456.20 L 565.53 456.25 L 565.53 456.25 L 567.00 456.21 L 568.47 456.20 L 569.94 456.23 L 571.42 456.24 L 572.89 456.21 L 574.36 456.21 L 575.83 456.04 L 577.31 456.34 L 578.78 456.40 L 580.25 456.04 L 581.72 454.14 L 583.19 454.14 L 584.67 456.17 L 586.14 456.01 L 587.61 456.05 L 589.08 456.12 L 592.03 456.13 L 592.03 456.13 L 593.50 456.53 L 594.97 456.53 L 596.44 456.07 L 597.92 456.05 L 599.39 456.08 L 603.81 456.12 L 603.81 456.12 L 605.28 456.07 L 606.75 456.09 L 608.22 456.09 L 609.69 456.14 L 614.11 456.13 L 614.11 456.13 L 615.58 455.76 L 617.06 456.13 L 618.53 456.09 L 620.00 456.15 L 621.47 455.91 L 622.94 458.29 L 624.42 456.00 L 625.89 455.94 L 627.36 456.64 L 628.83 456.64 L 630.31 456.63 L 631.78 456.57 L 633.25 456.67 L 634.72 456.64 L 636.19 456.68 L 637.67 456.62 L 639.14 456.63 L 640.61 456.62 L 642.08 456.63 L 643.56 456.63 L 645.03 456.71 L 646.50 456.62 L 647.97 456.63 L 649.44 456.67 L 650.92 456.69 L 652.39 456.63 L 653.86 456.66 L 655.33 456.64 L 656.81 456.71 L 658.28 456.59 L 659.75 456.61 L 661.22 456.62 L 665.64 456.64 L 665.64 456.64 L 667.11 456.60 L 668.58 456.63 L 670.06 456.60 L 671.53 456.62 L 674.47 456.45 L 674.47 456.45 L 675.94 457.28 L 677.42 457.28 L 678.89 456.60 L 680.36 456.56 L 681.83 456.79 L 686.25 456.63 L 686.25 456.63 L 687.72 456.63 L 689.19 456.72 L 690.67 456.74 L 692.14 456.70 L 693.61 456.68 L 695.08 456.71 L 696.56 456.71 L 698.03 456.70 L 699.50 456.69 L 700.97 456.68 L 702.44 456.70 L 703.92 456.71 L 705.39 456.73 L 706.86 456.73 L 708.33 456.73 L 709.81 456.73 L 711.28 456.73 L 712.75 456.76 L 714.22 456.72 L 715.69 456.77 L 717.17 457.30 L 718.64 457.84 L 720.11 457.44 L 721.58 457.86 L 723.06 457.73 L 724.53 457.66 L 726.00 457.68 L 727.47 457.70 L 728.94 457.65 L 730.42 457.71" stroke="#6A1B9A" />
<line x1="900.00" y1="307.75" x2="918.00" y2="307.75" stroke="#2E7D32" stroke-width="3" />
<text class="small" x="924.00" y="311.75">pitch</text>
<line x1="900.00" y1="323.75" x2="918.00" y2="323.75" stroke="#6A1B9A" stroke-width="3" />
<text class="small" x="924.00" y="327.75">roll</text>
<text x="90" y="500.50" font-size="14" font-weight="700">Aceleração (magnitude) (u.a.)</text>
<rect class="event" x="443.33" y="506.50" width="22.08" height="192.75" />
<line class="eventline" x1="443.33" y1="506.50" x2="443.33" y2="699.25" />
<line class="eventline" x1="465.42" y1="506.50" x2="465.42" y2="699.25" />
<line class="grid" x1="90" y1="699.25" x2="1150" y2="699.25" />
<text class="small" x="80" y="703.25" text-anchor="end">0.00</text>
<line class="grid" x1="90" y1="660.70" x2="1150" y2="660.70" />
<text class="small" x="80" y="664.70" text-anchor="end">0.20</text>
<line class="grid" x1="90" y1="622.15" x2="1150" y2="622.15" />
<text class="small" x="80" y="626.15" text-anchor="end">0.40</text>
<line class="grid" x1="90" y1="583.60" x2="1150" y2="583.60" />
<text class="small" x="80" y="587.60" text-anchor="end">0.60</text>
<line class="grid" x1="90" y1="545.05" x2="1150" y2="545.05" />
<text class="small" x="80" y="549.05" text-anchor="end">0.80</text>
<line class="grid" x1="90" y1="506.50" x2="1150" y2="506.50" />
<text class="small" x="80" y="510.50" text-anchor="end">1.00</text>
<line class="grid" x1="90.00" y1="506.50" x2="90.00" y2="699.25" />
<line class="grid" x1="266.67" y1="506.50" x2="266.67" y2="699.25" />
<line class="grid" x1="443.33" y1="506.50" x2="443.33" y2="699.25" />
<line class="grid" x1="620.00" y1="506.50" x2="620.00" y2="699.25" />
<line class="grid" x1="796.67" y1="506.50" x2="796.67" y2="699.25" />
<line class="grid" x1="973.33" y1="506.50" x2="973.33" y2="699.25" />
<line class="grid" x1="1150.00" y1="506.50" x2="1150.00" y2="699.25" />
<line class="axis" x1="90" y1="506.50" x2="90" y2="699.25" />
<line class="axis" x1="90" y1="699.25" x2="1150" y2="699.25" />
<path class="series" d="M 178.33 601.16 L 179.81 554.66 L 181.28 590.61 L 182.75 625.92 L 184.22 633.72 L 185.69 668.62 L 187.17 666.72 L 188.64 667.77 L 190.11 663.15 L 191.58 620.96 L 193.06 615.84 L 194.53 632.55 L 196.00 643.87 L 197.47 685.28 L 198.94 626.64 L 200.42 647.97 L 201.89 684.57 L 203.36 675.77 L 204.83 681.25 L 206.31 678.62 L 207.78 641.00 L 209.25 677.48 L 210.72 682.60 L 212.19 684.30 L 213.67 658.45 L 215.14 631.97 L 216.61 669.99 L 218.08 673.89 L 219.56 643.99 L 221.03 670.22 L 222.50 670.22 L 223.97 652.99 L 225.44 617.82 L 226.92 665.89 L 228.39 678.46 L 229.86 645.52 L 231.33 673.27 L 232.81 670.87 L 234.28 612.92 L 235.75 655.60 L 237.22 662.06 L 238.69 677.95 L 240.17 685.08 L 241.64 683.99 L 243.11 663.21 L 244.58 677.12 L 246.06 688.49 L 247.53 684.39 L 249.00 687.45 L 250.47 690.74 L 251.94 672.43 L 253.42 682.42 L 254.89 672.64 L 256.36 646.45 L 257.83 656.09 L 259.31 645.32 L 260.78 659.19 L 262.25 667.56 L 263.72 651.86 L 265.19 662.05 L 266.67 671.84 L 268.14 679.06 L 269.61 667.99 L 271.08 646.14 L 272.56 673.96 L 274.03 633.76 L 275.50 654.06 L 276.97 678.70 L 278.44 686.00 L 279.92 657.31 L 281.39 647.08 L 282.86 678.48 L 284.33 679.33 L 285.81 665.97 L 287.28 658.36 L 288.75 645.82 L 290.22 640.59 L 291.69 659.94 L 293.17 590.43 L 294.64 666.08 L 296.11 658.44 L 297.58 687.19 L 299.06 661.44 L 300.53 646.04 L 302.00 682.83 L 303.47 667.87 L 304.94 662.36 L 306.42 648.58 L 307.89 672.96 L 309.36 681.15 L 313.78 657.35 L 313.78 657.35 L 315.25 674.29 L 316.72 685.93 L 318.19 671.25 L 319.67 682.72 L 324.08 665.96 L 324.08 665.96 L 325.56 674.29 L 327.03 692.58 L 328.50 687.69 L 329.97 690.44 L 334.39 686.96 L 334.39 686.96 L 335.86 698.01 L 337.33 698.55 L 338.81 697.82 L 340.28 698.98 L 344.69 698.69 L 344.69 698.69 L 346.17 698.99 L 347.64 698.59 L 349.11 698.86 L 350.58 699.04 L 355.00 698.93 L 355.00 698.93 L 356.47 699.04 L 357.94 699.11 L 359.42 698.85 L 360.89 699.06 L 362.36 698.93 L 363.83 698.76 L 365.31 698.37 L 366.78 698.91 L 368.25 698.82 L 369.72 696.87 L 371.19 694.23 L 372.67 694.58 L 374.14 693.81 L 375.61 695.33 L 380.03 696.85 L 380.03 696.85 L 381.50 698.86 L 382.97 697.92 L 384.44 698.29 L 385.92 698.36 L 390.33 698.98 L 390.33 698.98 L 391.81 698.92 L 393.28 699.08 L 394.75 698.67 L 396.22 698.81 L 397.69 698.74 L 399.17 699.00 L 400.64 698.92 L 402.11 698.49 L 403.58 698.73 L 405.06 698.81 L 406.53 698.92 L 408.00 698.95 L 409.47 698.95 L 410.94 699.09 L 413.89 698.87 L 413.89 698.87 L 415.36 699.10 L 416.83 699.10 L 418.31 698.72 L 419.78 698.77 L 421.25 695.76 L 422.72 684.22 L 424.19 689.26 L 425.67 691.09 L 427.14 693.04 L 428.61 695.02 L 433.03 696.86 L 433.03 696.86 L 434.50 699.16 L 435.97 698.60 L 437.44 698.06 L 438.92 698.42 L 443.33 698.77 L 443.33 698.77 L 444.81 698.98 L 446.28 698.76 L 447.75 698.71 L 449.22 698.89 L 452.17 698.77 L 452.17 698.77 L 453.64 699.11 L 455.11 698.69 L 456.58 698.63 L 458.06 698.84 L 459.53 698.95 L 462.47 698.85 L 462.47 698.84 L 463.94 699.08 L 465.42 699.06 L 469.83 698.89 L 469.83 698.89 L 471.31 698.89 L 472.78 699.01 L 474.25 698.63 L 475.72 698.56 L 477.19 698.72 L 478.67 698.95 L 480.14 698.95 L 481.61 698.90 L 483.08 698.83 L 484.56 696.81 L 486.03 693.47 L 487.50 689.06 L 488.97 694.80 L 490.44 698.26 L 491.92 697.79 L 493.39 698.45 L 494.86 698.42 L 496.33 698.80 L 497.81 698.70 L 499.28 699.01 L 500.75 698.76 L 502.22 698.62 L 503.69 698.62 L 505.17 698.97 L 506.64 698.99 L 508.11 699.11 L 509.58 698.79 L 514.00 698.70 L 514.00 698.70 L 515.47 698.87 L 516.94 698.98 L 518.42 698.40 L 519.89 698.99 L 524.31 698.96 L 524.31 698.96 L 525.78 698.86 L 527.25 698.92 L 528.72 698.58 L 530.19 695.74 L 534.61 694.75 L 534.61 696.50 L 536.08 696.50 L 537.56 697.95 L 539.03 698.63 L 540.50 698.19 L 544.92 698.81 L 544.92 698.81 L 546.39 698.81 L 547.86 699.06 L 549.33 699.10 L 550.81 698.62 L 555.22 699.15 L 555.22 699.15 L 556.69 699.11 L 558.17 699.10 L 559.64 698.91 L 561.11 698.66 L 565.53 698.84 L 565.53 698.84 L 567.00 699.07 L 568.47 699.13 L 569.94 698.84 L 571.42 699.11 L 572.89 698.94 L 574.36 698.74 L 575.83 695.86 L 577.31 687.34 L 578.78 687.83 L 580.25 696.64 L 581.72 696.68 L 583.19 696.68 L 584.67 698.41 L 586.14 698.28 L 587.61 698.79 L 589.08 698.77 L 592.03 699.06 L 592.03 699.06 L 593.50 699.05 L 594.97 698.91 L 596.44 698.84 L 597.92 698.93 L 599.39 699.07 L 603.81 699.07 L 603.81 699.07 L 605.28 699.13 L 606.75 698.98 L 608.22 698.83 L 609.69 698.91 L 614.11 699.03 L 614.11 699.03 L 615.58 698.96 L 617.06 699.11 L 618.53 698.87 L 620.00 698.65 L 621.47 694.18 L 622.94 688.21 L 624.42 675.42 L 625.89 692.36 L 627.36 694.55 L 628.83 694.55 L 630.31 696.77 L 631.78 698.08 L 633.25 698.74 L 634.72 698.48 L 636.19 698.83 L 637.67 698.80 L 639.14 698.89 L 640.61 698.58 L 642.08 699.05 L 643.56 698.80 L 645.03 698.62 L 646.50 699.06 L 647.97 698.99 L 649.44 699.15 L 650.92 698.76 L 652.39 698.89 L 653.86 698.99 L 655.33 698.99 L 656.81 698.96 L 658.28 698.65 L 659.75 698.64 L 661.22 699.04 L 665.64 698.67 L 665.64 698.67 L 667.11 698.88 L 668.58 699.11 L 670.06 699.04 L 671.53 698.98 L 674.47 698.13 L 674.47 698.13 L 675.94 696.58 L 677.42 692.66 L 678.89 697.81 L 680.36 697.81 L 681.83 698.02 L 686.25 698.01 L 686.25 698.01 L 687.72 698.01 L 689.19 698.97 L 690.67 698.83 L 692.14 698.33 L 693.61 698.82 L 695.08 698.74 L 696.56 698.82 L 698.03 698.78 L 699.50 698.75 L 700.97 698.75 L 702.44 698.99 L 703.92 698.82 L 705.39 699.02 L 706.86 698.69 L 708.33 698.91 L 709.81 698.93 L 711.28 698.50 L 712.75 698.82 L 714.22 695.58 L 715.69 695.58 L 717.17 691.68 L 718.64 695.70 L 720.11 696.05 L 721.58 697.99 L 723.06 698.66 L 724.53 698.99 L 726.00 698.63 L 727.47 698.61 L 728.94 698.68 L 730.42 699.10" stroke="#FB8C00" />
<text x="90" y="711.25" font-size="14" font-weight="700">Giroscópio (magnitude) (u.a.)</text>
<rect class="event" x="443.33" y="717.25" width="22.08" height="192.75" />
<line class="eventline" x1="443.33" y1="717.25" x2="443.33" y2="910.00" />
<line class="eventline" x1="465.42" y1="717.25" x2="465.42" y2="910.00" />
<line class="grid" x1="90" y1="910.00" x2="1150" y2="910.00" />
<text class="small" x="80" y="914.00" text-anchor="end">0.00</text>
<line class="grid" x1="90" y1="871.45" x2="1150" y2="871.45" />
<text class="small" x="80" y="875.45" text-anchor="end">0.05</text>
<line class="grid" x1="90" y1="832.90" x2="1150" y2="832.90" />
<text class="small" x="80" y="836.90" text-anchor="end">0.10</text>
<line class="grid" x1="90" y1="794.35" x2="1150" y2="794.35" />
<text class="small" x="80" y="798.35" text-anchor="end">0.15</text>
<line class="grid" x1="90" y1="755.80" x2="1150" y2="755.80" />
<text class="small" x="80" y="759.80" text-anchor="end">0.20</text>
<line class="grid" x1="90" y1="717.25" x2="1150" y2="717.25" />
<text class="small" x="80" y="721.25" text-anchor="end">0.25</text>
<line class="grid" x1="90.00" y1="717.25" x2="90.00" y2="910.00" />
<line class="grid" x1="266.67" y1="717.25" x2="266.67" y2="910.00" />
<line class="grid" x1="443.33" y1="717.25" x2="443.33" y2="910.00" />
<line class="grid" x1="620.00" y1="717.25" x2="620.00" y2="910.00" />
<line class="grid" x1="796.67" y1="717.25" x2="796.67" y2="910.00" />
<line class="grid" x1="973.33" y1="717.25" x2="973.33" y2="910.00" />
<line class="grid" x1="1150.00" y1="717.25" x2="1150.00" y2="910.00" />
<line class="axis" x1="90" y1="717.25" x2="90" y2="910.00" />
<line class="axis" x1="90" y1="910.00" x2="1150" y2="910.00" />
<path class="series" d="M 178.33 889.12 L 179.81 896.15 L 181.28 880.74 L 182.75 865.01 L 184.22 847.39 L 185.69 826.18 L 187.17 822.90 L 188.64 819.76 L 190.11 795.84 L 191.58 832.51 L 193.06 856.70 L 194.53 892.79 L 196.00 906.91 L 197.47 909.36 L 198.94 900.75 L 200.42 895.69 L 201.89 908.16 L 203.36 903.75 L 204.83 901.38 L 206.31 898.30 L 207.78 888.42 L 209.25 873.16 L 210.72 881.10 L 212.19 871.48 L 213.67 895.04 L 215.14 900.93 L 216.61 903.70 L 218.08 896.35 L 219.56 893.06 L 221.03 883.99 L 222.50 883.99 L 223.97 858.40 L 225.44 879.00 L 226.92 885.47 L 228.39 892.21 L 229.86 898.86 L 231.33 898.12 L 232.81 895.21 L 234.28 895.64 L 235.75 875.50 L 237.22 871.91 L 238.69 870.91 L 240.17 872.84 L 241.64 886.15 L 243.11 885.40 L 244.58 886.37 L 246.06 886.03 L 247.53 889.65 L 249.00 895.80 L 250.47 903.56 L 251.94 898.62 L 253.42 901.36 L 254.89 890.83 L 256.36 889.07 L 257.83 881.44 L 259.31 891.31 L 260.78 889.51 L 262.25 899.09 L 263.72 900.10 L 265.19 885.27 L 266.67 898.17 L 268.14 896.56 L 269.61 897.55 L 271.08 897.12 L 272.56 870.19 L 274.03 870.63 L 275.50 896.10 L 276.97 906.34 L 278.44 900.56 L 279.92 903.34 L 281.39 892.98 L 282.86 888.84 L 284.33 901.23 L 285.81 894.60 L 287.28 901.56 L 288.75 898.84 L 290.22 903.33 L 291.69 901.57 L 293.17 904.43 L 294.64 903.58 L 296.11 899.59 L 297.58 894.48 L 299.06 882.67 L 300.53 884.89 L 302.00 886.55 L 303.47 873.72 L 304.94 871.86 L 306.42 893.42 L 307.89 899.95 L 309.36 900.58 L 313.78 906.34 L 313.78 906.34 L 315.25 906.21 L 316.72 900.37 L 318.19 901.92 L 319.67 901.64 L 324.08 892.78 L 324.08 892.78 L 325.56 905.27 L 327.03 909.73 L 328.50 908.04 L 329.97 908.04 L 334.39 909.63 L 334.39 909.63 L 335.86 909.70 L 337.33 909.91 L 338.81 909.82 L 340.28 909.77 L 344.69 909.83 L 344.69 909.83 L 346.17 909.93 L 347.64 909.90 L 349.11 909.92 L 350.58 909.85 L 355.00 909.90 L 355.00 909.90 L 356.47 909.91 L 357.94 909.81 L 359.42 909.89 L 360.89 909.87 L 362.36 909.91 L 363.83 909.86 L 365.31 909.82 L 366.78 909.86 L 368.25 909.81 L 369.72 909.43 L 371.19 907.68 L 372.67 909.60 L 374.14 909.40 L 375.61 909.77 L 380.03 909.80 L 380.03 909.80 L 381.50 909.92 L 382.97 909.87 L 384.44 909.79 L 385.92 909.83 L 390.33 909.90 L 390.33 909.90 L 391.81 909.94 L 393.28 909.83 L 394.75 909.89 L 396.22 909.94 L 397.69 909.88 L 399.17 909.95 L 400.64 909.88 L 402.11 909.88 L 403.58 909.75 L 405.06 909.90 L 406.53 909.70 L 408.00 909.82 L 409.47 909.88 L 410.94 909.73 L 413.89 909.58 L 413.89 909.58 L 415.36 909.90 L 416.83 909.90 L 418.31 909.72 L 419.78 909.71 L 421.25 908.99 L 422.72 906.60 L 424.19 908.30 L 425.67 909.28 L 427.14 909.76 L 428.61 909.49 L 433.03 909.54 L 433.03 909.54 L 434.50 909.73 L 435.97 909.71 L 437.44 909.84 L 438.92 909.78 L 443.33 909.83 L 443.33 909.83 L 444.81 909.83 L 446.28 909.78 L 447.75 909.66 L 449.22 909.91 L 452.17 909.85 L 452.17 909.85 L 453.64 909.74 L 455.11 909.77 L 456.58 909.66 L 458.06 909.76 L 459.53 909.58 L 462.47 909.72 L 462.47 909.70 L 463.94 909.65 L 465.42 909.57 L 469.83 909.60 L 469.83 909.60 L 471.31 909.60 L 472.78 909.76 L 474.25 909.63 L 475.72 909.49 L 477.19 909.63 L 478.67 909.57 L 480.14 909.57 L 481.61 909.55 L 483.08 909.43 L 484.56 909.51 L 486.03 909.50 L 487.50 908.48 L 488.97 909.49 L 490.44 909.68 L 491.92 909.68 L 493.39 909.50 L 494.86 909.62 L 496.33 909.65 L 497.81 909.69 L 499.28 909.63 L 500.75 909.59 L 502.22 909.89 L 503.69 909.89 L 505.17 909.96 L 506.64 909.91 L 508.11 909.89 L 509.58 909.90 L 514.00 909.91 L 514.00 909.91 L 515.47 909.88 L 516.94 909.95 L 518.42 909.96 L 519.89 909.86 L 524.31 909.76 L 524.31 909.76 L 525.78 909.80 L 527.25 909.83 L 528.72 909.90 L 530.19 909.84 L 534.61 907.75 L 534.61 908.84 L 536.08 908.84 L 537.56 909.86 L 539.03 909.79 L 540.50 909.88 L 544.92 909.85 L 544.92 909.85 L 546.39 909.85 L 547.86 909.96 L 549.33 909.97 L 550.81 909.87 L 555.22 909.91 L 555.22 909.91 L 556.69 909.88 L 558.17 909.64 L 559.64 909.71 L 561.11 909.81 L 565.53 909.74 L 565.53 909.74 L 567.00 909.92 L 568.47 909.92 L 569.94 909.92 L 571.42 909.87 L 572.89 909.92 L 574.36 909.85 L 575.83 909.12 L 577.31 909.32 L 578.78 909.44 L 580.25 909.78 L 581.72 909.65 L 583.19 909.65 L 584.67 909.82 L 586.14 909.87 L 587.61 909.89 L 589.08 909.95 L 592.03 909.96 L 592.03 909.96 L 593.50 909.82 L 594.97 909.90 L 596.44 909.88 L 597.92 909.88 L 599.39 909.84 L 603.81 909.84 L 603.81 909.84 L 605.28 909.84 L 606.75 909.87 L 608.22 909.92 L 609.69 909.81 L 614.11 909.87 L 614.11 909.87 L 615.58 909.80 L 617.06 909.84 L 618.53 909.82 L 620.00 909.83 L 621.47 909.83 L 622.94 903.75 L 624.42 907.46 L 625.89 908.65 L 627.36 909.58 L 628.83 909.58 L 630.31 909.79 L 631.78 909.84 L 633.25 909.80 L 634.72 909.89 L 636.19 909.97 L 637.67 909.95 L 639.14 909.84 L 640.61 909.92 L 642.08 909.74 L 643.56 909.68 L 645.03 909.68 L 646.50 909.72 L 647.97 909.81 L 649.44 909.77 L 650.92 909.61 L 652.39 909.80 L 653.86 909.76 L 655.33 909.76 L 656.81 909.74 L 658.28 909.79 L 659.75 909.80 L 661.22 909.70 L 665.64 909.85 L 665.64 909.85 L 667.11 909.95 L 668.58 909.88 L 670.06 909.88 L 671.53 909.93 L 674.47 909.73 L 674.47 909.73 L 675.94 909.18 L 677.42 909.52 L 678.89 909.78 L 680.36 909.78 L 681.83 909.87 L 686.25 909.93 L 686.25 909.93 L 687.72 909.93 L 689.19 909.88 L 690.67 909.97 L 692.14 909.91 L 693.61 909.92 L 695.08 909.90 L 696.56 909.97 L 698.03 909.87 L 699.50 909.94 L 700.97 909.94 L 702.44 909.89 L 703.92 909.89 L 705.39 909.85 L 706.86 909.97 L 708.33 909.93 L 709.81 909.79 L 711.28 909.65 L 712.75 909.76 L 714.22 909.37 L 715.69 909.37 L 717.17 906.90 L 718.64 909.48 L 720.11 909.69 L 721.58 909.88 L 723.06 909.78 L 724.53 909.82 L 726.00 909.83 L 727.47 909.89 L 728.94 909.86 L 730.42 909.87" stroke="#E53935" />
<text x="620.00" y="952" font-size="15" text-anchor="middle">minutos (relativo ao início do evento)</text>
<text class="small" x="90.00" y="936" text-anchor="middle">-4.00</text>
<text class="small" x="266.67" y="936" text-anchor="middle">-2.00</text>
<text class="small" x="443.33" y="936" text-anchor="middle">0.00</text>
<text class="small" x="620.00" y="936" text-anchor="middle">2.00</text>
<text class="small" x="796.67" y="936" text-anchor="middle">4.00</text>
<text class="small" x="973.33" y="936" text-anchor="middle">6.00</text>
<text class="small" x="1150.00" y="936" text-anchor="middle">8.00</text>
</svg>