<?xml version="1.0" encoding="UTF-8"?>
<svg xmlns="http://www.w3.org/2000/svg" width="1180" height="980" viewBox="0 0 1180 980">
<style>
text { font-family: -apple-system, BlinkMacSystemFont, 'Segoe UI', Roboto, Helvetica, Arial, sans-serif; fill: #111; }
.small { font-size: 12px; fill: #222; }
.title { font-size: 18px; font-weight: 700; }
.axis { stroke: #111; stroke-width: 1.4; }
.grid { stroke: #E6E6E6; stroke-width: 1; }
.event { fill: #FFEB3B; fill-opacity: 0.18; }
.eventline { stroke: #F9A825; stroke-width: 1.2; stroke-dasharray: 4 3; }
.series { fill: none; stroke-width: 1.8; }
</style>
<text class="title" x="90" y="34">ciclo 23 — espera_carregamento — 2025-12-13T09:48:03-03:00 → 2025-12-13T09:48:53-03:00 (span 50s, dur 52s)</text>
<text class="small" x="90" y="54">GPS: -11.698401,-47.155378  hotspot: -11.698,-47.155</text>
<text class="small" x="90" y="70">Janela: -3.00 → 3.83 min (relativo ao início do evento)</text>
<text x="90" y="79.00" font-size="14" font-weight="700">Velocidade (km/h)</text>
<rect class="event" x="443.33" y="85.00" width="73.61" height="192.75" />
<line class="eventline" x1="443.33" y1="85.00" x2="443.33" y2="277.75" />
<line class="eventline" x1="516.94" y1="85.00" x2="516.94" y2="277.75" />
<line class="grid" x1="90" y1="277.75" x2="1150" y2="277.75" />
<text class="small" x="80" y="281.75" text-anchor="end">0.00</text>
<line class="grid" x1="90" y1="239.20" x2="1150" y2="239.20" />
<text class="small" x="80" y="243.20" text-anchor="end">2.00</text>
<line class="grid" x1="90" y1="200.65" x2="1150" y2="200.65" />
<text class="small" x="80" y="204.65" text-anchor="end">4.00</text>
<line class="grid" x1="90" y1="162.10" x2="1150" y2="162.10" />
<text class="small" x="80" y="166.10" text-anchor="end">6.00</text>
<line class="grid" x1="90" y1="123.55" x2="1150" y2="123.55" />
<text class="small" x="80" y="127.55" text-anchor="end">8.00</text>
<line class="grid" x1="90" y1="85.00" x2="1150" y2="85.00" />
<text class="small" x="80" y="89.00" text-anchor="end">10.0</text>
<line class="grid" x1="90.00" y1="85.00" x2="90.00" y2="277.75" />
<line class="grid" x1="266.67" y1="85.00" x2="266.67" y2="277.75" />
<line class="grid" x1="443.33" y1="85.00" x2="443.33" y2="277.75" />
<line class="grid" x1="620.00" y1="85.00" x2="620.00" y2="277.75" />
<line class="grid" x1="796.67" y1="85.00" x2="796.67" y2="277.75" />
<line class="grid" x1="973.33" y1="85.00" x2="973.33" y2="277.75" />
<line class="grid" x1="1150.00" y1="85.00" x2="1150.00" y2="277.75" />
<line class="axis" x1="90" y1="85.00" x2="90" y2="277.75" />
<line class="axis" x1="90" y1="277.75" x2="1150" y2="277.75" />
<path class="series" d="M 178.33 277.75 L 179.81 277.75 L 181.28 277.75 L 182.75 277.75 L 184.22 277.75 L 185.69 277.75 L 190.11 277.75 L 190.11 277.75 L 191.58 277.75 L 193.06 277.75 L 194.53 277.75 L 196.00 277.75 L 200.42 277.75 L 200.42 277.75 L 201.89 277.75 L 203.36 277.75 L 204.83 277.75 L 206.31 277.75 L 209.25 277.75 L 209.25 277.75 L 210.72 277.75 L 212.19 277.75 L 213.67 277.75 L 215.14 277.75 L 216.61 277.75 L 219.56 277.75 L 219.56 277.75 L 221.03 277.75 L 222.50 277.75 L 226.92 277.75 L 226.92 277.75 L 228.39 277.75 L 229.86 277.75 L 231.33 277.75 L 232.81 277.75 L 234.28 277.75 L 235.75 277.75 L 237.22 277.75 L 238.69 277.75 L 240.17 277.75 L 241.64 277.75 L 243.11 277.75 L 244.58 277.75 L 246.06 277.75 L 247.53 277.75 L 249.00 277.75 L 250.47 277.75 L 251.94 277.75 L 253.42 277.75 L 254.89 277.75 L 256.36 277.75 L 257.83 277.75 L 259.31 277.75 L 260.78 277.75 L 262.25 277.75 L 263.72 277.75 L 265.19 277.75 L 266.67 277.75 L 271.08 277.75 L 271.08 277.75 L 272.56 277.75 L 274.03 277.75 L 275.50 277.75 L 276.97 277.75 L 281.39 277.75 L 281.39 277.75 L 282.86 277.75 L 284.33 277.75 L 285.81 277.75 L 287.28 277.75 L 291.69 277.75 L 291.69 277.75 L 293.17 277.75 L 294.64 277.75 L 296.11 277.75 L 297.58 277.75 L 302.00 277.75 L 302.00 277.75 L 303.47 277.75 L 304.94 277.75 L 306.42 277.75 L 307.89 277.75 L 312.31 277.75 L 312.31 277.75 L 313.78 277.75 L 315.25 277.75 L 316.72 277.75 L 318.19 277.75 L 322.61 277.75 L 322.61 277.75 L 324.08 277.75 L 325.56 277.75 L 327.03 277.75 L 328.50 277.75 L 329.97 277.75 L 331.44 277.75 L 332.92 277.75 L 334.39 277.75 L 335.86 277.75 L 337.33 277.75 L 338.81 277.75 L 340.28 277.75 L 341.75 277.75 L 343.22 277.75 L 344.69 277.75 L 346.17 277.75 L 349.11 277.75 L 349.11 277.75 L 350.58 277.75 L 352.06 277.75 L 353.53 277.75 L 355.00 277.75 L 356.47 277.75 L 360.89 277.75 L 360.89 277.75 L 362.36 277.75 L 363.83 277.75 L 365.31 277.75 L 366.78 277.75 L 371.19 277.75 L 371.19 277.75 L 372.67 277.75 L 374.14 277.75 L 375.61 277.75 L 377.08 277.75 L 378.56 277.75 L 380.03 277.75 L 381.50 277.75 L 382.97 277.75 L 384.44 277.75 L 385.92 277.75 L 387.39 277.75 L 388.86 277.75 L 390.33 277.75 L 391.81 277.75 L 393.28 277.75 L 394.75 277.75 L 396.22 277.75 L 397.69 277.75 L 399.17 277.75 L 400.64 277.75 L 402.11 277.75 L 403.58 277.75 L 405.06 277.75 L 406.53 277.75 L 408.00 277.75 L 409.47 277.75 L 410.94 277.75 L 412.42 277.75 L 413.89 277.75 L 415.36 277.75 L 416.83 277.75 L 418.31 277.75 L 422.72 277.75 L 422.72 277.75 L 424.19 277.75 L 425.67 277.75 L 427.14 277.75 L 428.61 277.75 L 431.56 277.75 L 431.56 277.75 L 433.03 277.75 L 434.50 277.75 L 435.97 277.75 L 437.44 277.75 L 438.92 277.75 L 443.33 277.75 L 443.33 277.75 L 444.81 277.75 L 446.28 277.75 L 447.75 277.75 L 449.22 277.75 L 450.69 277.75 L 452.17 277.75 L 453.64 277.75 L 455.11 277.75 L 456.58 277.75 L 458.06 277.75 L 459.53 277.75 L 461.00 277.75 L 462.47 277.75 L 463.94 277.75 L 465.42 277.75 L 466.89 277.75 L 468.36 277.75 L 469.83 277.75 L 471.31 277.75 L 472.78 277.75 L 474.25 277.75 L 475.72 277.75 L 477.19 277.75 L 478.67 277.75 L 480.14 277.75 L 481.61 277.75 L 483.08 277.75 L 484.56 277.75 L 486.03 277.75 L 487.50 277.75 L 488.97 277.75 L 490.44 277.75 L 491.92 277.75 L 493.39 277.75 L 494.86 277.75 L 496.33 277.75 L 497.81 277.75 L 499.28 277.75 L 500.75 277.75 L 502.22 277.75 L 503.69 277.75 L 505.17 277.75 L 506.64 277.75 L 509.58 277.75 L 509.58 277.75 L 511.06 277.75 L 512.53 277.75 L 514.00 277.75 L 515.47 277.75 L 516.94 277.75 L 521.36 277.75 L 521.36 277.75 L 522.83 277.75 L 524.31 277.75 L 525.78 277.75 L 527.25 277.75 L 531.67 277.75 L 531.67 277.75 L 533.14 277.75 L 534.61 277.75 L 536.08 277.75 L 537.56 277.75 L 541.97 277.75 L 541.97 277.75 L 543.44 277.75 L 544.92 277.75 L 546.39 277.75 L 547.86 277.75 L 552.28 277.75 L 552.28 277.75 L 553.75 277.75 L 555.22 277.75 L 556.69 277.75 L 558.17 277.75 L 561.11 277.75 L 561.11 277.75 L 562.58 277.75 L 564.06 277.75 L 565.53 277.75 L 567.00 277.75 L 571.42 277.75 L 571.42 277.75 L 572.89 277.75 L 574.36 277.75 L 575.83 277.75 L 577.31 277.75 L 581.72 277.75 L 581.72 277.75 L 583.19 277.75 L 584.67 277.75 L 586.14 277.75 L 587.61 277.75 L 592.03 277.75 L 592.03 277.75 L 593.50 277.75 L 594.97 277.75 L 596.44 277.75 L 597.92 277.75 L 602.33 277.75 L 602.33 277.75 L 603.81 277.75 L 605.28 277.75 L 606.75 277.75 L 608.22 277.75 L 612.64 277.75 L 612.64 277.75 L 614.11 227.79 L 615.58 237.50 L 617.06 229.18 L 618.53 224.32 L 620.00 223.63 L 621.47 223.63 L 622.94 200.73 L 624.42 206.97 L 625.89 191.71 L 627.36 198.65 L 631.78 206.28 L 631.78 206.28 L 633.25 192.40 L 634.72 191.01 L 636.19 175.75 L 637.67 191.01 L 640.61 173.66 L 640.61 173.66 L 642.08 198.65 L 643.56 194.48 L 645.03 210.44 L 646.50 202.11 L 647.97 209.75 L 649.44 203.50 L 650.92 210.44 L 652.39 200.03 L 653.86 188.93 L 655.33 201.42 L 656.81 207.67 L 661.22 207.67 L 661.22 207.67 L 662.69 203.50 L 664.17 207.67 L 665.64 201.42 L 667.11 186.85 L 670.06 206.97 L 670.06 206.97 L 671.53 202.81 L 673.00 202.81 L 674.47 198.65 L 675.94 184.77 L 677.42 189.62 L 680.36 200.03 L 680.36 200.03 L 681.83 196.56 L 683.31 196.56 L 684.78 207.67 L 686.25 180.60 L 687.72 210.44 L 689.19 209.75 L 690.67 190.32 L 692.14 179.91 L 693.61 211.14 L 695.08 220.16 L 696.56 222.24 L 698.03 227.10 L 699.50 227.79 L 700.97 239.59 L 702.44 277.75 L 703.92 277.75 L 705.39 277.75 L 706.86 277.75 L 708.33 277.75 L 709.81 277.75 L 711.28 277.75 L 712.75 277.75 L 714.22 277.75 L 715.69 277.75 L 717.17 277.75 L 718.64 277.75 L 720.11 277.75 L 721.58 277.75 L 723.06 277.75 L 724.53 277.75 L 726.00 277.75 L 727.47 277.75 L 728.94 277.75 L 730.42 277.75 L 731.89 277.75 L 733.36 277.75 L 734.83 277.75 L 736.31 277.75 L 737.78 277.75 L 739.25 277.75 L 740.72 277.75 L 742.19 277.75 L 743.67 277.75 L 745.14 277.75 L 746.61 277.75 L 748.08 277.75 L 749.56 277.75 L 751.03 277.75 L 752.50 187.54 L 753.97 202.81 L 755.44 182.69 L 756.92 182.69 L 758.39 185.46 L 759.86 185.46 L 761.33 202.11 L 762.81 246.52 L 764.28 230.56 L 765.75 230.56 L 767.22 189.62 L 768.69 189.62 L 770.17 208.36 L 771.64 176.44 L 774.58 141.75 L 774.58 141.75 L 776.06 141.75 L 777.53 141.75 L 779.00 101.50 L 780.47 167.42 L 781.94 134.81" stroke="#1976D2" />
<text x="90" y="289.75" font-size="14" font-weight="700">Inclinação (graus)</text>
<rect class="event" x="443.33" y="295.75" width="73.61" height="192.75" />
<line class="eventline" x1="443.33" y1="295.75" x2="443.33" y2="488.50" />
<line class="eventline" x1="516.94" y1="295.75" x2="516.94" y2="488.50" />
<line class="grid" x1="90" y1="488.50" x2="1150" y2="488.50" />
<text class="small" x="80" y="492.50" text-anchor="end">-10.0</text>
<line class="grid" x1="90" y1="449.95" x2="1150" y2="449.95" />
<text class="small" x="80" y="453.95" text-anchor="end">-5.00</text>
<line class="grid" x1="90" y1="411.40" x2="1150" y2="411.40" />
<text class="small" x="80" y="415.40" text-anchor="end">0.00</text>
<line class="grid" x1="90" y1="372.85" x2="1150" y2="372.85" />
<text class="small" x="80" y="376.85" text-anchor="end">5.00</text>
<line class="grid" x1="90" y1="334.30" x2="1150" y2="334.30" />
<text class="small" x="80" y="338.30" text-anchor="end">10.0</text>
<line class="grid" x1="90" y1="295.75" x2="1150" y2="295.75" />
<text class="small" x="80" y="299.75" text-anchor="end">15.0</text>
<line class="grid" x1="90.00" y1="295.75" x2="90.00" y2="488.50" />
<line class="grid" x1="266.67" y1="295.75" x2="266.67" y2="488.50" />
<line class="grid" x1="443.33" y1="295.75" x2="443.33" y2="488.50" />
<line class="grid" x1="620.00" y1="295.75" x2="620.00" y2="488.50" />
<line class="grid" x1="796.67" y1="295.75" x2="796.67" y2="488.50" />
<line class="grid" x1="973.33" y1="295.75" x2="973.33" y2="488.50" />
<line class="grid" x1="1150.00" y1="295.75" x2="1150.00" y2="488.50" />
<line class="axis" x1="90" y1="295.75" x2="90" y2="488.50" />
<line class="axis" x1="90" y1="488.50" x2="1150" y2="488.50" />
<path class="series" d="M 178.33 372.28 L 179.81 372.23 L 181.28 371.10 L 182.75 370.03 L 184.22 371.65 L 185.69 370.97 L 190.11 371.25 L 190.11 371.25 L 191.58 370.79 L 193.06 371.23 L 194.53 371.26 L 196.00 371.28 L 200.42 371.18 L 200.42 371.18 L 201.89 371.18 L 203.36 371.22 L 204.83 371.25 L 206.31 371.23 L 209.25 371.17 L 209.25 371.17 L 210.72 371.15 L 212.19 371.20 L 213.67 371.22 L 215.14 371.22 L 216.61 371.32 L 219.56 371.16 L 219.56 371.16 L 221.03 371.15 L 222.50 371.17 L 226.92 371.10 L 226.92 371.10 L 228.39 371.10 L 229.86 371.10 L 231.33 371.15 L 232.81 371.09 L 234.28 371.07 L 235.75 371.00 L 237.22 371.13 L 238.69 371.06 L 240.17 371.05 L 241.64 371.06 L 243.11 370.60 L 244.58 370.24 L 246.06 370.26 L 247.53 370.50 L 249.00 370.42 L 250.47 370.32 L 251.94 370.30 L 253.42 370.29 L 254.89 370.32 L 256.36 370.32 L 257.83 370.23 L 259.31 370.13 L 260.78 370.13 L 262.25 370.33 L 263.72 370.29 L 265.19 370.28 L 266.67 370.30 L 271.08 370.30 L 271.08 370.30 L 272.56 370.31 L 274.03 370.35 L 275.50 370.25 L 276.97 370.29 L 281.39 370.36 L 281.39 370.36 L 282.86 370.36 L 284.33 370.33 L 285.81 370.41 L 287.28 370.12 L 291.69 371.08 L 291.69 371.08 L 293.17 369.85 L 294.64 370.25 L 296.11 370.15 L 297.58 370.30 L 302.00 370.11 L 302.00 370.11 L 303.47 371.67 L 304.94 370.15 L 306.42 370.14 L 307.89 370.18 L 312.31 370.21 L 312.31 370.21 L 313.78 370.15 L 315.25 370.15 L 316.72 370.11 L 318.19 370.07 L 322.61 370.09 L 322.61 370.09 L 324.08 370.06 L 325.56 370.12 L 327.03 370.11 L 328.50 370.15 L 329.97 370.09 L 331.44 370.24 L 332.92 370.97 L 334.39 367.17 L 335.86 370.20 L 337.33 369.52 L 338.81 368.57 L 340.28 368.57 L 341.75 369.49 L 343.22 369.43 L 344.69 369.49 L 346.17 369.54 L 349.11 369.45 L 349.11 369.45 L 350.58 370.27 L 352.06 370.27 L 353.53 369.49 L 355.00 369.49 L 356.47 369.51 L 360.89 369.43 L 360.89 369.43 L 362.36 369.50 L 363.83 369.46 L 365.31 369.49 L 366.78 369.47 L 371.19 369.51 L 371.19 369.51 L 372.67 367.86 L 374.14 369.52 L 375.61 369.45 L 377.08 369.57 L 378.56 369.77 L 380.03 371.57 L 381.50 368.37 L 382.97 372.31 L 384.44 370.57 L 385.92 370.57 L 387.39 371.54 L 388.86 370.89 L 390.33 371.38 L 391.81 371.24 L 393.28 371.31 L 394.75 371.22 L 396.22 371.25 L 397.69 371.14 L 399.17 371.29 L 400.64 371.29 L 402.11 371.30 L 403.58 371.18 L 405.06 371.24 L 406.53 371.22 L 408.00 371.22 L 409.47 371.24 L 410.94 371.20 L 412.42 371.17 L 413.89 371.23 L 415.36 371.16 L 416.83 371.16 L 418.31 371.22 L 422.72 371.17 L 422.72 371.17 L 424.19 371.16 L 425.67 371.12 L 427.14 371.17 L 428.61 371.12 L 431.56 371.14 L 431.56 371.14 L 433.03 371.06 L 434.50 371.06 L 435.97 372.18 L 437.44 372.63 L 438.92 372.56 L 443.33 372.35 L 443.33 372.35 L 444.81 372.35 L 446.28 372.52 L 447.75 372.58 L 449.22 372.53 L 450.69 372.50 L 452.17 372.50 L 453.64 372.50 L 455.11 372.55 L 456.58 372.57 L 458.06 372.74 L 459.53 372.57 L 461.00 372.64 L 462.47 372.56 L 463.94 372.57 L 465.42 372.64 L 466.89 372.64 L 468.36 372.59 L 469.83 372.57 L 471.31 372.64 L 472.78 373.19 L 474.25 373.91 L 475.72 374.87 L 477.19 374.35 L 478.67 374.74 L 480.14 374.55 L 481.61 374.66 L 483.08 374.59 L 484.56 374.61 L 486.03 374.71 L 487.50 374.62 L 488.97 374.60 L 490.44 374.61 L 491.92 374.61 L 493.39 374.58 L 494.86 374.63 L 496.33 374.66 L 497.81 374.61 L 499.28 374.66 L 500.75 374.69 L 502.22 374.59 L 503.69 374.59 L 505.17 374.56 L 506.64 374.65 L 509.58 374.57 L 509.58 374.57 L 511.06 374.58 L 512.53 374.58 L 514.00 374.57 L 515.47 374.57 L 516.94 374.64 L 521.36 375.73 L 521.36 375.73 L 522.83 375.73 L 524.31 373.83 L 525.78 373.97 L 527.25 373.86 L 531.67 373.92 L 531.67 373.92 L 533.14 373.81 L 534.61 374.12 L 536.08 374.11 L 537.56 374.11 L 541.97 374.14 L 541.97 374.14 L 543.44 374.13 L 544.92 374.05 L 546.39 374.06 L 547.86 374.15 L 552.28 374.09 L 552.28 374.09 L 553.75 374.07 L 555.22 374.15 L 556.69 374.05 L 558.17 374.08 L 561.11 374.12 L 561.11 374.12 L 562.58 374.00 L 564.06 374.27 L 565.53 376.48 L 567.00 375.92 L 571.42 374.26 L 571.42 374.26 L 572.89 378.64 L 574.36 375.10 L 575.83 375.30 L 577.31 375.27 L 581.72 375.42 L 581.72 375.42 L 583.19 375.42 L 584.67 375.38 L 586.14 375.36 L 587.61 375.16 L 592.03 375.41 L 592.03 375.41 L 593.50 375.41 L 594.97 375.43 L 596.44 375.19 L 597.92 375.18 L 602.33 375.55 L 602.33 375.55 L 603.81 375.20 L 605.28 375.68 L 606.75 381.96 L 608.22 381.46 L 612.64 393.73 L 612.64 393.73 L 614.11 391.92 L 615.58 390.80 L 617.06 396.30 L 618.53 386.26 L 620.00 391.97 L 621.47 391.97 L 622.94 398.07 L 624.42 403.16 L 625.89 390.41 L 627.36 402.61 L 631.78 407.07 L 631.78 407.07 L 633.25 400.36 L 634.72 400.36 L 636.19 380.62 L 637.67 395.10 L 640.61 366.60 L 640.61 366.60 L 642.08 372.68 L 643.56 356.96 L 645.03 358.81 L 646.50 369.76 L 647.97 364.96 L 649.44 379.47 L 650.92 376.84 L 652.39 374.78 L 653.86 369.82 L 655.33 380.28 L 656.81 369.57 L 661.22 374.48 L 661.22 374.48 L 662.69 385.63 L 664.17 383.62 L 665.64 389.05 L 667.11 387.40 L 670.06 376.19 L 670.06 376.19 L 671.53 376.19 L 673.00 376.19 L 674.47 378.15 L 675.94 381.19 L 677.42 375.25 L 680.36 376.45 L 680.36 376.45 L 681.83 356.25 L 683.31 356.25 L 684.78 349.89 L 686.25 335.28 L 687.72 336.52 L 689.19 347.31 L 690.67 325.84 L 692.14 325.16 L 693.61 335.09 L 695.08 342.03 L 696.56 337.13 L 698.03 342.24 L 699.50 345.12 L 700.97 342.39 L 702.44 339.19 L 703.92 363.97 L 705.39 363.97 L 706.86 354.45 L 708.33 357.72 L 709.81 367.35 L 711.28 353.67 L 712.75 351.01 L 714.22 359.59 L 715.69 357.70 L 717.17 357.70 L 718.64 356.56 L 720.11 351.87 L 721.58 359.65 L 723.06 353.13 L 724.53 352.11 L 726.00 346.38 L 727.47 349.26 L 728.94 343.37 L 730.42 337.82 L 731.89 340.39 L 733.36 340.39 L 734.83 337.45 L 736.31 338.05 L 737.78 332.19 L 739.25 328.40 L 740.72 336.78 L 742.19 351.85 L 743.67 330.58 L 745.14 332.38 L 746.61 338.86 L 748.08 338.86 L 749.56 341.86 L 751.03 349.10 L 752.50 348.77 L 753.97 350.78 L 755.44 362.32 L 756.92 362.32 L 758.39 380.02 L 759.86 396.76 L 761.33 383.80 L 762.81 420.32 L 764.28 425.69 L 765.75 425.69 L 767.22 425.69 L 768.69 400.48 L 770.17 355.77 L 771.64 350.81 L 774.58 365.03 L 774.58 365.03 L 776.06 337.00 L 777.53 337.00 L 779.00 337.00 L 780.47 334.32 L 781.94 348.02" stroke="#2E7D32" />
<path class="series" d="M 178.33 423.64 L 179.81 424.66 L 181.28 419.33 L 182.75 422.23 L 184.22 423.16 L 185.69 420.86 L 190.11 422.23 L 190.11 422.23 L 191.58 421.10 L 193.06 422.08 L 194.53 421.83 L 196.00 422.17 L 200.42 422.04 L 200.42 422.04 L 201.89 422.04 L 203.36 422.00 L 204.83 421.89 L 206.31 422.04 L 209.25 421.88 L 209.25 421.88 L 210.72 421.94 L 212.19 421.99 L 213.67 421.96 L 215.14 421.96 L 216.61 421.94 L 219.56 422.02 L 219.56 421.87 L 221.03 421.98 L 222.50 421.99 L 226.92 421.84 L 226.92 421.84 L 228.39 421.84 L 229.86 421.84 L 231.33 421.96 L 232.81 421.92 L 234.28 421.98 L 235.75 421.82 L 237.22 421.86 L 238.69 421.87 L 240.17 421.83 L 241.64 422.41 L 243.11 420.74 L 244.58 422.19 L 246.06 422.16 L 247.53 422.52 L 249.00 422.09 L 250.47 422.02 L 251.94 422.34 L 253.42 422.24 L 254.89 422.01 L 256.36 422.15 L 257.83 422.29 L 259.31 421.82 L 260.78 421.82 L 262.25 422.13 L 263.72 422.23 L 265.19 422.16 L 266.67 422.15 L 271.08 422.14 L 271.08 422.14 L 272.56 422.13 L 274.03 422.11 L 275.50 422.16 L 276.97 422.13 L 281.39 422.08 L 281.39 422.08 L 282.86 422.08 L 284.33 422.19 L 285.81 421.96 L 287.28 422.10 L 291.69 422.68 L 291.69 422.68 L 293.17 423.95 L 294.64 424.07 L 296.11 424.00 L 297.58 424.17 L 302.00 423.88 L 302.00 423.88 L 303.47 424.49 L 304.94 423.92 L 306.42 423.96 L 307.89 423.90 L 312.31 423.96 L 312.31 423.96 L 313.78 424.11 L 315.25 423.93 L 316.72 423.95 L 318.19 423.91 L 322.61 424.00 L 322.61 424.00 L 324.08 423.93 L 325.56 423.89 L 327.03 423.96 L 328.50 423.98 L 329.97 423.92 L 331.44 423.92 L 332.92 423.57 L 334.39 424.19 L 335.86 424.30 L 337.33 423.57 L 338.81 419.78 L 340.28 419.78 L 341.75 423.84 L 343.22 423.53 L 344.69 423.60 L 346.17 423.74 L 349.11 423.77 L 349.11 423.77 L 350.58 424.56 L 352.06 424.56 L 353.53 423.63 L 355.00 423.59 L 356.47 423.65 L 360.89 423.74 L 360.89 423.74 L 362.36 423.64 L 363.83 423.67 L 365.31 423.68 L 366.78 423.79 L 371.19 423.75 L 371.19 423.75 L 372.67 423.02 L 374.14 423.76 L 375.61 423.67 L 377.08 423.80 L 378.56 423.32 L 380.03 428.08 L 381.50 423.51 L 382.97 423.38 L 384.44 424.79 L 385.92 424.79 L 387.39 424.76 L 388.86 424.63 L 390.33 424.83 L 391.81 424.79 L 393.28 424.86 L 394.75 424.74 L 396.22 424.76 L 397.69 424.74 L 399.17 424.76 L 400.64 424.76 L 402.11 424.92 L 403.58 424.74 L 405.06 424.76 L 406.53 424.83 L 408.00 424.87 L 409.47 424.75 L 410.94 424.83 L 412.42 424.78 L 413.89 424.92 L 415.36 424.68 L 416.83 424.73 L 418.31 424.74 L 422.72 424.77 L 422.72 424.77 L 424.19 424.70 L 425.67 424.76 L 427.14 424.71 L 428.61 424.74 L 431.56 424.39 L 431.56 424.39 L 433.03 426.06 L 434.50 426.06 L 435.97 424.69 L 437.44 424.61 L 438.92 425.09 L 443.33 424.75 L 443.33 424.75 L 444.81 424.75 L 446.28 424.94 L 447.75 424.97 L 449.22 424.90 L 450.69 424.86 L 452.17 424.92 L 453.64 424.92 L 455.11 424.90 L 456.58 424.88 L 458.06 424.86 L 459.53 424.89 L 461.00 424.91 L 462.47 424.95 L 463.94 424.96 L 465.42 424.95 L 466.89 424.95 L 468.36 424.96 L 469.83 425.02 L 471.31 424.94 L 472.78 425.03 L 474.25 426.10 L 475.72 427.18 L 477.19 426.38 L 478.67 427.21 L 480.14 426.96 L 481.61 426.83 L 483.08 426.86 L 484.56 426.89 L 486.03 426.79 L 487.50 426.92 L 488.97 426.73 L 490.44 426.81 L 491.92 426.81 L 493.39 426.78 L 494.86 426.81 L 496.33 426.89 L 497.81 426.81 L 499.28 426.93 L 500.75 426.84 L 502.22 426.74 L 503.69 426.74 L 505.17 426.86 L 506.64 426.90 L 509.58 426.83 L 509.58 426.83 L 511.06 426.57 L 512.53 426.57 L 514.00 426.83 L 515.47 426.77 L 516.94 426.89 L 521.36 426.07 L 521.36 426.07 L 522.83 426.07 L 524.31 427.35 L 525.78 426.48 L 527.25 427.05 L 531.67 426.55 L 531.67 426.55 L 533.14 418.64 L 534.61 427.18 L 536.08 427.20 L 537.56 427.11 L 541.97 427.12 L 541.97 427.12 L 543.44 427.34 L 544.92 427.10 L 546.39 427.12 L 547.86 427.09 L 552.28 427.17 L 552.28 427.17 L 553.75 427.27 L 555.22 427.19 L 556.69 427.23 L 558.17 427.12 L 561.11 427.13 L 561.11 427.13 L 562.58 425.63 L 564.06 430.71 L 565.53 427.80 L 567.00 428.27 L 571.42 425.15 L 571.42 425.15 L 572.89 429.11 L 574.36 427.10 L 575.83 427.08 L 577.31 427.15 L 581.72 426.95 L 581.72 426.95 L 583.19 426.95 L 584.67 427.22 L 586.14 427.28 L 587.61 427.24 L 592.03 427.23 L 592.03 427.23 L 593.50 427.23 L 594.97 427.12 L 596.44 427.50 L 597.92 426.60 L 602.33 427.47 L 602.33 427.47 L 603.81 427.22 L 605.28 426.96 L 606.75 427.28 L 608.22 420.61 L 612.64 419.02 L 612.64 419.02 L 614.11 408.03 L 615.58 413.86 L 617.06 420.28 L 618.53 414.52 L 620.00 408.72 L 621.47 408.72 L 622.94 417.59 L 624.42 416.83 L 625.89 415.03 L 627.36 413.63 L 631.78 403.96 L 631.78 403.96 L 633.25 408.42 L 634.72 408.42 L 636.19 401.76 L 637.67 401.36 L 640.61 403.32 L 640.61 403.32 L 642.08 440.96 L 643.56 414.71 L 645.03 429.18 L 646.50 443.68 L 647.97 435.91 L 649.44 439.66 L 650.92 440.04 L 652.39 436.08 L 653.86 431.74 L 655.33 439.50 L 656.81 447.87 L 661.22 450.49 L 661.22 450.49 L 662.69 444.19 L 664.17 451.41 L 665.64 441.36 L 667.11 441.05 L 670.06 455.76 L 670.06 455.76 L 671.53 455.76 L 673.00 455.76 L 674.47 428.68 L 675.94 432.08 L 677.42 433.67 L 680.36 422.83 L 680.36 422.83 L 681.83 472.75 L 683.31 472.75 L 684.78 433.52 L 686.25 427.78 L 687.72 428.60 L 689.19 429.35 L 690.67 432.53 L 692.14 424.06 L 693.61 416.50 L 695.08 410.45 L 696.56 430.19 L 698.03 413.81 L 699.50 426.93 L 700.97 419.39 L 702.44 418.76 L 703.92 427.06 L 705.39 427.06 L 706.86 419.41 L 708.33 421.00 L 709.81 428.49 L 711.28 421.46 L 712.75 425.56 L 714.22 424.99 L 715.69 417.27 L 717.17 417.27 L 718.64 427.11 L 720.11 415.88 L 721.58 415.76 L 723.06 408.69 L 724.53 412.34 L 726.00 408.69 L 727.47 407.42 L 728.94 401.20 L 730.42 402.88 L 731.89 389.08 L 733.36 389.08 L 734.83 397.33 L 736.31 389.91 L 737.78 394.04 L 739.25 388.58 L 740.72 382.05 L 742.19 378.35 L 743.67 390.33 L 745.14 386.19 L 746.61 389.94 L 748.08 389.94 L 749.56 384.69 L 751.03 396.23 L 752.50 406.42 L 753.97 401.37 L 755.44 424.45 L 756.92 424.45 L 758.39 412.39 L 759.86 401.60 L 761.33 402.67 L 762.81 418.99 L 764.28 400.26 L 765.75 400.26 L 767.22 400.26 L 768.69 431.81 L 770.17 434.50 L 771.64 426.47 L 774.58 459.91 L 774.58 459.91 L 776.06 421.52 L 777.53 421.52 L 779.00 421.52 L 780.47 423.51 L 781.94 423.92" stroke="#6A1B9A" />
<line x1="900.00" y1="307.75" x2="918.00" y2="307.75" stroke="#2E7D32" stroke-width="3" />
<text class="small" x="924.00" y="311.75">pitch</text>
<line x1="900.00" y1="323.75" x2="918.00" y2="323.75" stroke="#6A1B9A" stroke-width="3" />
<text class="small" x="924.00" y="327.75">roll</text>
<text x="90" y="500.50" font-size="14" font-weight="700">Aceleração (magnitude) (u.a.)</text>
<rect class="event" x="443.33" y="506.50" width="73.61" height="192.75" />
<line class="eventline" x1="443.33" y1="506.50" x2="443.33" y2="699.25" />
<line class="eventline" x1="516.94" y1="506.50" x2="516.94" y2="699.25" />
<line class="grid" x1="90" y1="699.25" x2="1150" y2="699.25" />
<text class="small" x="80" y="703.25" text-anchor="end">0.00</text>
<line class="grid" x1="90" y1="660.70" x2="1150" y2="660.70" />
<text class="small" x="80" y="664.70" text-anchor="end">0.20</text>
<line class="grid" x1="90" y1="622.15" x2="1150" y2="622.15" />
<text class="small" x="80" y="626.15" text-anchor="end">0.40</text>
<line class="grid" x1="90" y1="583.60" x2="1150" y2="583.60" />
<text class="small" x="80" y="587.60" text-anchor="end">0.60</text>
<line class="grid" x1="90" y1="545.05" x2="1150" y2="545.05" />
<text class="small" x="80" y="549.05" text-anchor="end">0.80</text>
<line class="grid" x1="90" y1="506.50" x2="1150" y2="506.50" />
<text class="small" x="80" y="510.50" text-anchor="end">1.00</text>
<line class="grid" x1="90.00" y1="506.50" x2="90.00" y2="699.25" />
<line class="grid" x1="266.67" y1="506.50" x2="266.67" y2="699.25" />
<line class="grid" x1="443.33" y1="506.50" x2="443.33" y2="699.25" />
<line class="grid" x1="620.00" y1="506.50" x2="620.00" y2="699.25" />
<line class="grid" x1="796.67" y1="506.50" x2="796.67" y2="699.25" />
<line class="grid" x1="973.33" y1="506.50" x2="973.33" y2="699.25" />
<line class="grid" x1="1150.00" y1="506.50" x2="1150.00" y2="699.25" />
<line class="axis" x1="90" y1="506.50" x2="90" y2="699.25" />
<line class="axis" x1="90" y1="699.25" x2="1150" y2="699.25" />
<path class="series" d="M 178.33 695.76 L 179.81 684.22 L 181.28 689.26 L 182.75 691.09 L 184.22 693.04 L 185.69 695.02 L 190.11 696.86 L 190.11 696.86 L 191.58 699.16 L 193.06 698.60 L 194.53 698.06 L 196.00 698.42 L 200.42 698.77 L 200.42 698.77 L 201.89 698.98 L 203.36 698.76 L 204.83 698.71 L 206.31 698.89 L 209.25 698.77 L 209.25 698.77 L 210.72 699.11 L 212.19 698.69 L 213.67 698.63 L 215.14 698.84 L 216.61 698.95 L 219.56 698.85 L 219.56 698.84 L 221.03 699.08 L 222.50 699.06 L 226.92 698.89 L 226.92 698.89 L 228.39 698.89 L 229.86 699.01 L 231.33 698.63 L 232.81 698.56 L 234.28 698.72 L 235.75 698.95 L 237.22 698.95 L 238.69 698.90 L 240.17 698.83 L 241.64 696.81 L 243.11 693.47 L 244.58 689.06 L 246.06 694.80 L 247.53 698.26 L 249.00 697.79 L 250.47 698.45 L 251.94 698.42 L 253.42 698.80 L 254.89 698.70 L 256.36 699.01 L 257.83 698.76 L 259.31 698.62 L 260.78 698.62 L 262.25 698.97 L 263.72 698.99 L 265.19 699.11 L 266.67 698.79 L 271.08 698.70 L 271.08 698.70 L 272.56 698.87 L 274.03 698.98 L 275.50 698.40 L 276.97 698.99 L 281.39 698.96 L 281.39 698.96 L 282.86 698.86 L 284.33 698.92 L 285.81 698.58 L 287.28 695.74 L 291.69 694.75 L 291.69 696.50 L 293.17 696.50 L 294.64 697.95 L 296.11 698.63 L 297.58 698.19 L 302.00 698.81 L 302.00 698.81 L 303.47 698.81 L 304.94 699.06 L 306.42 699.10 L 307.89 698.62 L 312.31 699.15 L 312.31 699.15 L 313.78 699.11 L 315.25 699.10 L 316.72 698.91 L 318.19 698.66 L 322.61 698.84 L 322.61 698.84 L 324.08 699.07 L 325.56 699.13 L 327.03 698.84 L 328.50 699.11 L 329.97 698.94 L 331.44 698.74 L 332.92 695.86 L 334.39 687.34 L 335.86 687.83 L 337.33 696.64 L 338.81 696.68 L 340.28 696.68 L 341.75 698.41 L 343.22 698.28 L 344.69 698.79 L 346.17 698.77 L 349.11 699.06 L 349.11 699.06 L 350.58 699.05 L 352.06 698.91 L 353.53 698.84 L 355.00 698.93 L 356.47 699.07 L 360.89 699.07 L 360.89 699.07 L 362.36 699.13 L 363.83 698.98 L 365.31 698.83 L 366.78 698.91 L 371.19 699.03 L 371.19 699.03 L 372.67 698.96 L 374.14 699.11 L 375.61 698.87 L 377.08 698.65 L 378.56 694.18 L 380.03 688.21 L 381.50 675.42 L 382.97 692.36 L 384.44 694.55 L 385.92 694.55 L 387.39 696.77 L 388.86 698.08 L 390.33 698.74 L 391.81 698.48 L 393.28 698.83 L 394.75 698.80 L 396.22 698.89 L 397.69 698.58 L 399.17 699.05 L 400.64 698.80 L 402.11 698.62 L 403.58 699.06 L 405.06 698.99 L 406.53 699.15 L 408.00 698.76 L 409.47 698.89 L 410.94 698.99 L 412.42 698.99 L 413.89 698.96 L 415.36 698.65 L 416.83 698.64 L 418.31 699.04 L 422.72 698.67 L 422.72 698.67 L 424.19 698.88 L 425.67 699.11 L 427.14 699.04 L 428.61 698.98 L 431.56 698.13 L 431.56 698.13 L 433.03 696.58 L 434.50 692.66 L 435.97 697.81 L 437.44 697.81 L 438.92 698.02 L 443.33 698.01 L 443.33 698.01 L 444.81 698.01 L 446.28 698.97 L 447.75 698.83 L 449.22 698.33 L 450.69 698.82 L 452.17 698.74 L 453.64 698.82 L 455.11 698.78 L 456.58 698.75 L 458.06 698.75 L 459.53 698.99 L 461.00 698.82 L 462.47 699.02 L 463.94 698.69 L 465.42 698.91 L 466.89 698.93 L 468.36 698.50 L 469.83 698.82 L 471.31 695.58 L 472.78 695.58 L 474.25 691.68 L 475.72 695.70 L 477.19 696.05 L 478.67 697.99 L 480.14 698.66 L 481.61 698.99 L 483.08 698.63 L 484.56 698.61 L 486.03 698.68 L 487.50 699.10 L 488.97 699.14 L 490.44 698.65 L 491.92 698.65 L 493.39 698.91 L 494.86 699.01 L 496.33 698.73 L 497.81 698.97 L 499.28 698.77 L 500.75 699.02 L 502.22 698.73 L 503.69 698.73 L 505.17 699.02 L 506.64 698.93 L 509.58 698.92 L 509.58 698.92 L 511.06 699.14 L 512.53 699.14 L 514.00 698.96 L 515.47 698.83 L 516.94 698.70 L 521.36 698.59 L 521.36 698.59 L 522.83 692.60 L 524.31 697.16 L 525.78 698.19 L 527.25 697.35 L 531.67 698.60 L 531.67 698.60 L 533.14 698.44 L 534.61 698.82 L 536.08 698.79 L 537.56 698.55 L 541.97 698.95 L 541.97 698.95 L 543.44 699.15 L 544.92 699.08 L 546.39 698.69 L 547.86 698.54 L 552.28 698.71 L 552.28 698.71 L 553.75 699.01 L 555.22 699.09 L 556.69 698.85 L 558.17 698.99 L 561.11 698.66 L 561.11 698.66 L 562.58 691.48 L 564.06 682.70 L 565.53 690.76 L 567.00 691.02 L 571.42 697.78 L 571.42 697.78 L 572.89 694.23 L 574.36 697.67 L 575.83 698.80 L 577.31 698.47 L 581.72 698.29 L 581.72 698.29 L 583.19 698.80 L 584.67 699.04 L 586.14 699.04 L 587.61 698.37 L 592.03 698.62 L 592.03 698.62 L 593.50 699.08 L 594.97 698.04 L 596.44 696.95 L 597.92 697.65 L 602.33 697.50 L 602.33 697.50 L 603.81 698.99 L 605.28 699.05 L 606.75 687.81 L 608.22 672.64 L 612.64 667.28 L 612.64 667.28 L 614.11 682.42 L 615.58 682.06 L 617.06 671.21 L 618.53 679.62 L 620.00 660.33 L 621.47 677.89 L 622.94 649.54 L 624.42 648.86 L 625.89 652.88 L 627.36 675.82 L 631.78 658.35 L 631.78 658.35 L 633.25 671.76 L 634.72 667.40 L 636.19 680.84 L 637.67 674.98 L 640.61 680.59 L 640.61 680.59 L 642.08 673.12 L 643.56 673.12 L 645.03 673.33 L 646.50 658.10 L 647.97 670.72 L 649.44 661.91 L 650.92 691.35 L 652.39 680.16 L 653.86 691.49 L 655.33 661.73 L 656.81 683.23 L 661.22 668.84 L 661.22 668.84 L 662.69 648.85 L 664.17 689.97 L 665.64 673.74 L 667.11 677.37 L 670.06 636.40 L 670.06 636.40 L 671.53 657.43 L 673.00 657.43 L 674.47 685.77 L 675.94 662.36 L 677.42 659.40 L 680.36 658.53 L 680.36 658.53 L 681.83 568.62 L 683.31 669.93 L 684.78 664.34 L 686.25 635.82 L 687.72 675.35 L 689.19 673.23 L 690.67 673.23 L 692.14 675.79 L 693.61 657.68 L 695.08 620.26 L 696.56 639.94 L 698.03 688.90 L 699.50 673.46 L 700.97 672.12 L 702.44 635.27 L 703.92 662.20 L 705.39 677.88 L 706.86 674.95 L 708.33 647.34 L 709.81 685.42 L 711.28 674.40 L 712.75 693.83 L 714.22 693.83 L 715.69 673.27 L 717.17 673.51 L 718.64 673.30 L 720.11 669.52 L 721.58 693.31 L 723.06 683.46 L 724.53 679.62 L 726.00 685.71 L 727.47 686.90 L 728.94 688.28 L 730.42 688.28 L 731.89 673.02 L 733.36 681.74 L 734.83 681.74 L 736.31 683.77 L 737.78 692.32 L 739.25 684.83 L 740.72 688.02 L 742.19 657.58 L 743.67 673.98 L 745.14 681.27 L 746.61 690.87 L 748.08 672.09 L 749.56 665.97 L 751.03 665.97 L 752.50 675.42 L 753.97 654.61 L 755.44 636.11 L 756.92 636.11 L 758.39 654.34 L 759.86 617.00 L 761.33 612.52 L 762.81 640.20 L 764.28 561.60 L 765.75 561.60 L 767.22 661.94 L 768.69 650.39 L 770.17 638.35 L 771.64 669.60 L 774.58 639.69 L 774.58 639.69 L 776.06 666.59 L 777.53 666.59 L 779.00 694.56 L 780.47 658.61 L 781.94 676.63" stroke="#FB8C00" />
<text x="90" y="711.25" font-size="14" font-weight="700">Giroscópio (magnitude) (u.a.)</text>
<rect class="event" x="443.33" y="717.25" width="73.61" height="192.75" />
<line class="eventline" x1="443.33" y1="717.25" x2="443.33" y2="910.00" />
<line class="eventline" x1="516.94" y1="717.25" x2="516.94" y2="910.00" />
<line class="grid" x1="90" y1="910.00" x2="1150" y2="910.00" />
<text class="small" x="80" y="914.00" text-anchor="end">0.00</text>
<line class="grid" x1="90" y1="871.45" x2="1150" y2="871.45" />
<text class="small" x="80" y="875.45" text-anchor="end">0.02</text>
<line class="grid" x1="90" y1="832.90" x2="1150" y2="832.90" />
<text class="small" x="80" y="836.90" text-anchor="end">0.04</text>
<line class="grid" x1="90" y1="794.35" x2="1150" y2="794.35" />
<text class="small" x="80" y="798.35" text-anchor="end">0.06</text>
<line class="grid" x1="90" y1="755.80" x2="1150" y2="755.80" />
<text class="small" x="80" y="759.80" text-anchor="end">0.08</text>
<line class="grid" x1="90" y1="717.25" x2="1150" y2="717.25" />
<text class="small" x="80" y="721.25" text-anchor="end">0.10</text>
<line class="grid" x1="90.00" y1="717.25" x2="90.00" y2="910.00" />
<line class="grid" x1="266.67" y1="717.25" x2="266.67" y2="910.00" />
<line class="grid" x1="443.33" y1="717.25" x2="443.33" y2="910.00" />
<line class="grid" x1="620.00" y1="717.25" x2="620.00" y2="910.00" />
<line class="grid" x1="796.67" y1="717.25" x2="796.67" y2="910.00" />
<line class="grid" x1="973.33" y1="717.25" x2="973.33" y2="910.00" />
<line class="grid" x1="1150.00" y1="717.25" x2="1150.00" y2="910.00" />
<line class="axis" x1="90" y1="717.25" x2="90" y2="910.00" />
<line class="axis" x1="90" y1="910.00" x2="1150" y2="910.00" />
<path class="series" d="M 178.33 907.48 L 179.81 901.49 L 181.28 905.75 L 182.75 908.21 L 184.22 909.41 L 185.69 908.73 L 190.11 908.84 L 190.11 908.84 L 191.58 909.33 L 193.06 909.27 L 194.53 909.60 L 196.00 909.46 L 200.42 909.59 L 200.42 909.59 L 201.89 909.57 L 203.36 909.46 L 204.83 909.15 L 206.31 909.78 L 209.25 909.63 L 209.25 909.63 L 210.72 909.34 L 212.19 909.42 L 213.67 909.15 L 215.14 909.41 L 216.61 908.96 L 219.56 909.31 L 219.56 909.24 L 221.03 909.11 L 222.50 908.93 L 226.92 908.99 L 226.92 908.99 L 228.39 908.99 L 229.86 909.39 L 231.33 909.08 L 232.81 908.74 L 234.28 909.08 L 235.75 908.92 L 237.22 908.92 L 238.69 908.87 L 240.17 908.57 L 241.64 908.78 L 243.11 908.75 L 244.58 906.20 L 246.06 908.73 L 247.53 909.19 L 249.00 909.19 L 250.47 908.76 L 251.94 909.04 L 253.42 909.11 L 254.89 909.23 L 256.36 909.08 L 257.83 908.99 L 259.31 909.74 L 260.78 909.74 L 262.25 909.91 L 263.72 909.78 L 265.19 909.73 L 266.67 909.76 L 271.08 909.79 L 271.08 909.79 L 272.56 909.71 L 274.03 909.88 L 275.50 909.90 L 276.97 909.65 L 281.39 909.40 L 281.39 909.40 L 282.86 909.50 L 284.33 909.59 L 285.81 909.75 L 287.28 909.59 L 291.69 904.37 L 291.69 907.10 L 293.17 907.10 L 294.64 909.66 L 296.11 909.47 L 297.58 909.70 L 302.00 909.62 L 302.00 909.62 L 303.47 909.62 L 304.94 909.90 L 306.42 909.92 L 307.89 909.69 L 312.31 909.77 L 312.31 909.77 L 313.78 909.69 L 315.25 909.11 L 316.72 909.26 L 318.19 909.53 L 322.61 909.34 L 322.61 909.34 L 324.08 909.80 L 325.56 909.80 L 327.03 909.80 L 328.50 909.68 L 329.97 909.80 L 331.44 909.62 L 332.92 907.81 L 334.39 908.29 L 335.86 908.59 L 337.33 909.46 L 338.81 909.13 L 340.28 909.13 L 341.75 909.55 L 343.22 909.68 L 344.69 909.72 L 346.17 909.88 L 349.11 909.91 L 349.11 909.91 L 350.58 909.55 L 352.06 909.75 L 353.53 909.71 L 355.00 909.70 L 356.47 909.60 L 360.89 909.60 L 360.89 909.60 L 362.36 909.59 L 363.83 909.67 L 365.31 909.81 L 366.78 909.53 L 371.19 909.67 L 371.19 909.67 L 372.67 909.50 L 374.14 909.61 L 375.61 909.55 L 377.08 909.58 L 378.56 909.57 L 380.03 894.39 L 381.50 903.66 L 382.97 906.62 L 384.44 908.95 L 385.92 908.95 L 387.39 909.47 L 388.86 909.60 L 390.33 909.51 L 391.81 909.72 L 393.28 909.91 L 394.75 909.88 L 396.22 909.61 L 397.69 909.79 L 399.17 909.34 L 400.64 909.21 L 402.11 909.21 L 403.58 909.31 L 405.06 909.52 L 406.53 909.43 L 408.00 909.03 L 409.47 909.50 L 410.94 909.40 L 412.42 909.40 L 413.89 909.36 L 415.36 909.47 L 416.83 909.50 L 418.31 909.26 L 422.72 909.63 L 422.72 909.63 L 424.19 909.88 L 425.67 909.71 L 427.14 909.71 L 428.61 909.83 L 431.56 909.34 L 431.56 909.34 L 433.03 907.94 L 434.50 908.81 L 435.97 909.44 L 437.44 909.44 L 438.92 909.68 L 443.33 909.82 L 443.33 909.82 L 444.81 909.82 L 446.28 909.70 L 447.75 909.93 L 449.22 909.78 L 450.69 909.80 L 452.17 909.75 L 453.64 909.91 L 455.11 909.67 L 456.58 909.86 L 458.06 909.86 L 459.53 909.72 L 461.00 909.71 L 462.47 909.62 L 463.94 909.93 L 465.42 909.83 L 466.89 909.47 L 468.36 909.12 L 469.83 909.39 L 471.31 908.42 L 472.78 908.42 L 474.25 902.26 L 475.72 908.71 L 477.19 909.23 L 478.67 909.71 L 480.14 909.46 L 481.61 909.55 L 483.08 909.59 L 484.56 909.74 L 486.03 909.66 L 487.50 909.68 L 488.97 909.85 L 490.44 909.85 L 491.92 909.85 L 493.39 909.76 L 494.86 909.64 L 496.33 909.52 L 497.81 909.62 L 499.28 909.78 L 500.75 909.31 L 502.22 909.52 L 503.69 909.52 L 505.17 909.80 L 506.64 909.77 L 509.58 909.68 L 509.58 909.68 L 511.06 909.69 L 512.53 909.69 L 514.00 909.54 L 515.47 909.67 L 516.94 909.47 L 521.36 909.81 L 521.36 909.81 L 522.83 904.18 L 524.31 907.83 L 525.78 909.45 L 527.25 909.30 L 531.67 909.36 L 531.67 909.36 L 533.14 909.17 L 534.61 909.52 L 536.08 909.48 L 537.56 909.31 L 541.97 909.03 L 541.97 909.03 L 543.44 909.19 L 544.92 909.55 L 546.39 909.37 L 547.86 909.20 L 552.28 909.35 L 552.28 909.35 L 553.75 909.46 L 555.22 909.69 L 556.69 909.44 L 558.17 909.52 L 561.11 909.69 L 561.11 909.69 L 562.58 908.45 L 564.06 906.52 L 565.53 904.30 L 567.00 907.41 L 571.42 906.76 L 571.42 906.76 L 572.89 908.73 L 574.36 909.30 L 575.83 909.27 L 577.31 909.21 L 581.72 909.51 L 581.72 909.51 L 583.19 909.64 L 584.67 909.76 L 586.14 909.74 L 587.61 909.74 L 592.03 909.36 L 592.03 909.36 L 593.50 909.22 L 594.97 909.15 L 596.44 909.50 L 597.92 909.50 L 602.33 909.54 L 602.33 909.54 L 603.81 909.70 L 605.28 909.51 L 606.75 899.16 L 608.22 887.90 L 612.64 888.48 L 612.64 888.48 L 614.11 898.05 L 615.58 894.05 L 617.06 894.65 L 618.53 884.69 L 620.00 886.23 L 621.47 901.84 L 622.94 883.32 L 624.42 885.89 L 625.89 854.01 L 627.36 858.06 L 631.78 858.04 L 631.78 858.04 L 633.25 868.74 L 634.72 868.44 L 636.19 877.77 L 637.67 833.32 L 640.61 883.65 L 640.61 883.65 L 642.08 872.32 L 643.56 872.32 L 645.03 860.18 L 646.50 867.07 L 647.97 902.42 L 649.44 874.93 L 650.92 862.09 L 652.39 867.66 L 653.86 860.34 L 655.33 850.15 L 656.81 838.62 L 661.22 802.04 L 661.22 802.04 L 662.69 805.17 L 664.17 853.18 L 665.64 852.65 L 667.11 852.98 L 670.06 815.73 L 670.06 815.73 L 671.53 776.36 L 673.00 776.36 L 674.47 822.58 L 675.94 774.38 L 677.42 786.59 L 680.36 839.59 L 680.36 839.59 L 681.83 802.89 L 683.31 765.88 L 684.78 747.81 L 686.25 798.17 L 687.72 836.04 L 689.19 819.52 L 690.67 819.52 L 692.14 757.17 L 693.61 809.40 L 695.08 757.18 L 696.56 761.63 L 698.03 749.98 L 699.50 788.97 L 700.97 818.06 L 702.44 871.70 L 703.92 895.30 L 705.39 903.61 L 706.86 893.88 L 708.33 889.57 L 709.81 898.95 L 711.28 903.09 L 712.75 900.81 L 714.22 900.81 L 715.69 883.19 L 717.17 865.85 L 718.64 837.55 L 720.11 873.95 L 721.58 859.19 L 723.06 863.96 L 724.53 850.73 L 726.00 858.28 L 727.47 852.24 L 728.94 857.09 L 730.42 857.09 L 731.89 848.22 L 733.36 862.09 L 734.83 862.09 L 736.31 862.05 L 737.78 869.06 L 739.25 847.67 L 740.72 851.06 L 742.19 890.81 L 743.67 883.57 L 745.14 902.74 L 746.61 907.47 L 748.08 901.77 L 749.56 883.49 L 751.03 883.49 L 752.50 823.82 L 753.97 769.95 L 755.44 770.97 L 756.92 770.97 L 758.39 768.99 L 759.86 828.74 L 761.33 884.54 L 762.81 877.51 L 764.28 852.62 L 765.75 852.62 L 767.22 873.67 L 768.69 830.70 L 770.17 802.60 L 771.64 819.03 L 774.58 838.77 L 774.58 838.77 L 776.06 839.51 L 777.53 839.51 L 779.00 836.73 L 780.47 860.54 L 781.94 868.65" stroke="#E53935" />
<text x="620.00" y="952" font-size="15" text-anchor="middle">minutos (relativo ao início do evento)</text>
<text class="small" x="90.00" y="936" text-anchor="middle">-4.00</text>
<text class="small" x="266.67" y="936" text-anchor="middle">-2.00</text>
<text class="small" x="443.33" y="936" text-anchor="middle">0.00</text>
<text class="small" x="620.00" y="936" text-anchor="middle">2.00</text>
<text class="small" x="796.67" y="936" text-anchor="middle">4.00</text>
<text class="small" x="973.33" y="936" text-anchor="middle">6.00</text>
<text class="small" x="1150.00" y="936" text-anchor="middle">8.00</text>
</svg>