<?xml version="1.0" encoding="UTF-8"?>
<svg xmlns="http://www.w3.org/2000/svg" width="1180" height="980" viewBox="0 0 1180 980">
<style>
text { font-family: -apple-system, BlinkMacSystemFont, 'Segoe UI', Roboto, Helvetica, Arial, sans-serif; fill: #111; }
.small { font-size: 12px; fill: #222; }
.title { font-size: 18px; font-weight: 700; }
.axis { stroke: #111; stroke-width: 1.4; }
.grid { stroke: #E6E6E6; stroke-width: 1; }
.event { fill: #FFEB3B; fill-opacity: 0.18; }
.eventline { stroke: #F9A825; stroke-width: 1.2; stroke-dasharray: 4 3; }
.series { fill: none; stroke-width: 1.8; }
</style>
<text class="title" x="90" y="34">ciclo 23 — espera_carregamento — 2025-12-13T09:52:23-03:00 → 2025-12-13T09:53:01-03:00 (span 38s, dur 39s)</text>
<text class="small" x="90" y="54">GPS: -11.698832,-47.155275  hotspot: -11.699,-47.155</text>
<text class="small" x="90" y="70">Janela: -3.00 → 3.63 min (relativo ao início do evento)</text>
<text x="90" y="79.00" font-size="14" font-weight="700">Velocidade (km/h)</text>
<rect class="event" x="443.33" y="85.00" width="55.94" height="192.75" />
<line class="eventline" x1="443.33" y1="85.00" x2="443.33" y2="277.75" />
<line class="eventline" x1="499.28" y1="85.00" x2="499.28" y2="277.75" />
<line class="grid" x1="90" y1="277.75" x2="1150" y2="277.75" />
<text class="small" x="80" y="281.75" text-anchor="end">0.00</text>
<line class="grid" x1="90" y1="239.20" x2="1150" y2="239.20" />
<text class="small" x="80" y="243.20" text-anchor="end">2.00</text>
<line class="grid" x1="90" y1="200.65" x2="1150" y2="200.65" />
<text class="small" x="80" y="204.65" text-anchor="end">4.00</text>
<line class="grid" x1="90" y1="162.10" x2="1150" y2="162.10" />
<text class="small" x="80" y="166.10" text-anchor="end">6.00</text>
<line class="grid" x1="90" y1="123.55" x2="1150" y2="123.55" />
<text class="small" x="80" y="127.55" text-anchor="end">8.00</text>
<line class="grid" x1="90" y1="85.00" x2="1150" y2="85.00" />
<text class="small" x="80" y="89.00" text-anchor="end">10.0</text>
<line class="grid" x1="90.00" y1="85.00" x2="90.00" y2="277.75" />
<line class="grid" x1="266.67" y1="85.00" x2="266.67" y2="277.75" />
<line class="grid" x1="443.33" y1="85.00" x2="443.33" y2="277.75" />
<line class="grid" x1="620.00" y1="85.00" x2="620.00" y2="277.75" />
<line class="grid" x1="796.67" y1="85.00" x2="796.67" y2="277.75" />
<line class="grid" x1="973.33" y1="85.00" x2="973.33" y2="277.75" />
<line class="grid" x1="1150.00" y1="85.00" x2="1150.00" y2="277.75" />
<line class="axis" x1="90" y1="85.00" x2="90" y2="277.75" />
<line class="axis" x1="90" y1="277.75" x2="1150" y2="277.75" />
<path class="series" d="M 178.33 277.75 L 178.33 277.75 L 179.81 277.75 L 181.28 277.75 L 182.75 277.75 L 184.22 277.75 L 188.64 277.75 L 188.64 277.75 L 190.11 277.75 L 191.58 277.75 L 193.06 277.75 L 194.53 277.75 L 198.94 277.75 L 198.94 277.75 L 200.42 277.75 L 201.89 277.75 L 203.36 277.75 L 204.83 277.75 L 209.25 277.75 L 209.25 277.75 L 210.72 277.75 L 212.19 277.75 L 213.67 277.75 L 215.14 277.75 L 219.56 277.75 L 219.56 277.75 L 221.03 277.75 L 222.50 277.75 L 223.97 277.75 L 225.44 277.75 L 229.86 277.75 L 229.86 277.75 L 231.33 227.79 L 232.81 237.50 L 234.28 229.18 L 235.75 224.32 L 237.22 223.63 L 238.69 223.63 L 240.17 200.73 L 241.64 206.97 L 243.11 191.71 L 244.58 198.65 L 249.00 206.28 L 249.00 206.28 L 250.47 192.40 L 251.94 191.01 L 253.42 175.75 L 254.89 191.01 L 257.83 173.66 L 257.83 173.66 L 259.31 198.65 L 260.78 194.48 L 262.25 210.44 L 263.72 202.11 L 265.19 209.75 L 266.67 203.50 L 268.14 210.44 L 269.61 200.03 L 271.08 188.93 L 272.56 201.42 L 274.03 207.67 L 278.44 207.67 L 278.44 207.67 L 279.92 203.50 L 281.39 207.67 L 282.86 201.42 L 284.33 186.85 L 287.28 206.97 L 287.28 206.97 L 288.75 202.81 L 290.22 202.81 L 291.69 198.65 L 293.17 184.77 L 294.64 189.62 L 297.58 200.03 L 297.58 200.03 L 299.06 196.56 L 300.53 196.56 L 302.00 207.67 L 303.47 180.60 L 304.94 210.44 L 306.42 209.75 L 307.89 190.32 L 309.36 179.91 L 310.83 211.14 L 312.31 220.16 L 313.78 222.24 L 315.25 227.10 L 316.72 227.79 L 318.19 239.59 L 319.67 277.75 L 321.14 277.75 L 322.61 277.75 L 324.08 277.75 L 325.56 277.75 L 327.03 277.75 L 328.50 277.75 L 329.97 277.75 L 331.44 277.75 L 332.92 277.75 L 334.39 277.75 L 335.86 277.75 L 337.33 277.75 L 338.81 277.75 L 340.28 277.75 L 341.75 277.75 L 343.22 277.75 L 344.69 277.75 L 346.17 277.75 L 347.64 277.75 L 349.11 277.75 L 350.58 277.75 L 352.06 277.75 L 353.53 277.75 L 355.00 277.75 L 356.47 277.75 L 357.94 277.75 L 359.42 277.75 L 360.89 277.75 L 362.36 277.75 L 363.83 277.75 L 365.31 277.75 L 366.78 277.75 L 368.25 277.75 L 369.72 187.54 L 371.19 202.81 L 372.67 182.69 L 374.14 182.69 L 375.61 185.46 L 377.08 185.46 L 378.56 202.11 L 380.03 246.52 L 381.50 230.56 L 382.97 230.56 L 384.44 189.62 L 385.92 189.62 L 387.39 208.36 L 388.86 176.44 L 391.81 141.75 L 391.81 141.75 L 393.28 141.75 L 394.75 141.75 L 396.22 101.50 L 397.69 167.42 L 399.17 134.81 L 400.64 134.81 L 402.11 113.30 L 403.58 113.30 L 405.06 145.22 L 406.53 158.40 L 408.00 133.42 L 409.47 144.52 L 410.94 134.11 L 412.42 156.32 L 413.89 156.32 L 415.36 170.20 L 416.83 168.81 L 418.31 162.56 L 419.78 162.56 L 421.25 161.17 L 422.72 190.32 L 424.19 192.40 L 425.67 168.81 L 427.14 177.83 L 428.61 166.73 L 430.08 150.77 L 431.56 170.89 L 433.03 209.75 L 434.50 209.75 L 435.97 231.26 L 437.44 231.95 L 438.92 231.95 L 440.39 237.50 L 441.86 252.77 L 443.33 277.75 L 444.81 277.75 L 446.28 277.75 L 447.75 277.75 L 449.22 277.75 L 450.69 277.75 L 452.17 277.75 L 453.64 277.75 L 455.11 277.75 L 456.58 277.75 L 458.06 277.75 L 459.53 277.75 L 461.00 277.75 L 462.47 277.75 L 463.94 277.75 L 465.42 277.75 L 466.89 277.75 L 468.36 277.75 L 469.83 277.75 L 471.31 277.75 L 472.78 277.75 L 474.25 277.75 L 475.72 277.75 L 477.19 277.75 L 478.67 277.75 L 480.14 277.75 L 481.61 277.75 L 483.08 277.75 L 484.56 277.75 L 486.03 277.75 L 487.50 277.75 L 488.97 277.75 L 490.44 277.75 L 491.92 277.75 L 493.39 277.75 L 494.86 277.75 L 496.33 277.75 L 497.81 277.75 L 499.28 277.75 L 500.75 240.97 L 502.22 231.26 L 503.69 242.36 L 505.17 209.05 L 506.64 194.48 L 508.11 195.18 L 509.58 205.58 L 511.06 188.24 L 512.53 184.77 L 514.00 193.79 L 515.47 197.26 L 516.94 168.11 L 518.42 193.09 L 519.89 190.32 L 521.36 167.42 L 522.83 277.75 L 524.31 277.75 L 525.78 140.36 L 527.25 176.44 L 528.72 176.44 L 530.19 174.36 L 531.67 174.36 L 533.14 181.99 L 534.61 197.95 L 536.08 192.40 L 537.56 201.42 L 539.03 200.73 L 540.50 210.44 L 541.97 224.32 L 543.44 211.14 L 544.92 195.18 L 546.39 184.07 L 547.86 193.79 L 549.33 200.73 L 550.81 254.16 L 552.28 224.32 L 553.75 230.56 L 555.22 229.87 L 556.69 213.91 L 558.17 219.46 L 559.64 204.89 L 561.11 218.77 L 562.58 187.54 L 564.06 195.87 L 565.53 214.61 L 567.00 238.20 L 568.47 229.18 L 569.94 277.75 L 571.42 277.75 L 572.89 238.20 L 574.36 244.44 L 575.83 253.46 L 577.31 247.22 L 578.78 234.03 L 580.25 228.48 L 581.72 199.34 L 583.19 197.95 L 584.67 218.07 L 586.14 222.93 L 587.61 213.91 L 589.08 222.93 L 590.56 223.63 L 592.03 245.14 L 593.50 245.14 L 594.97 240.28 L 596.44 199.34 L 597.92 207.67 L 599.39 163.26 L 600.86 167.42 L 602.33 159.79 L 603.81 174.36 L 605.28 174.36 L 606.75 176.44 L 608.22 175.05 L 609.69 183.38 L 611.17 177.13 L 612.64 170.89 L 614.11 170.89 L 615.58 170.89 L 617.06 173.66 L 618.53 173.66 L 620.00 170.89 L 621.47 174.36 L 622.94 149.38 L 624.42 149.38 L 625.89 149.38 L 627.36 149.38 L 628.83 149.38 L 630.31 180.60 L 631.78 160.48 L 633.25 160.48 L 634.72 178.52 L 636.19 145.91 L 637.67 166.73 L 639.14 163.95 L 640.61 171.58 L 642.08 163.26 L 643.56 163.26 L 645.03 163.26 L 646.50 163.26 L 647.97 163.26 L 649.44 164.64 L 650.92 171.58 L 652.39 170.89 L 653.86 167.42 L 655.33 150.07 L 656.81 150.77 L 658.28 154.24 L 659.75 163.95 L 661.22 170.20 L 662.69 158.40 L 664.17 170.89 L 665.64 165.34 L 667.11 179.22 L 668.58 159.79 L 670.06 144.52 L 671.53 174.36 L 673.00 143.83 L 674.47 143.83 L 675.94 175.05 L 677.42 148.68 L 678.89 164.64 L 680.36 132.03 L 681.83 160.48 L 683.31 156.32 L 684.78 163.26 L 686.25 160.48 L 687.72 163.95 L 689.19 160.48 L 690.67 161.17 L 692.14 161.17 L 693.61 161.17 L 695.08 149.38 L 696.56 175.05 L 698.03 166.73 L 699.50 161.17 L 700.97 183.38 L 702.44 148.68 L 703.92 148.68 L 705.39 148.68 L 706.86 152.15 L 708.33 162.56 L 709.81 161.17 L 711.28 168.11 L 712.75 162.56 L 714.22 162.56 L 715.69 162.56 L 717.17 149.38 L 718.64 174.36 L 720.11 166.03 L 721.58 166.03 L 723.06 166.03 L 724.53 169.50 L 726.00 167.42 L 727.47 215.99 L 728.94 210.44 L 730.42 200.03 L 731.89 219.46 L 733.36 219.46 L 734.83 225.71 L 736.31 166.73 L 737.78 203.50 L 739.25 212.52 L 740.72 220.16 L 742.19 211.14 L 743.67 213.22 L 745.14 216.69 L 746.61 240.28 L 748.08 240.28 L 749.56 240.28 L 751.03 225.01 L 752.50 240.97 L 753.97 175.05 L 755.44 177.83 L 756.92 177.83 L 758.39 177.83 L 759.86 177.83 L 761.33 277.75 L 762.81 229.18 L 764.28 277.75" stroke="#1976D2" />
<text x="90" y="289.75" font-size="14" font-weight="700">Inclinação (graus)</text>
<rect class="event" x="443.33" y="295.75" width="55.94" height="192.75" />
<line class="eventline" x1="443.33" y1="295.75" x2="443.33" y2="488.50" />
<line class="eventline" x1="499.28" y1="295.75" x2="499.28" y2="488.50" />
<line class="grid" x1="90" y1="488.50" x2="1150" y2="488.50" />
<text class="small" x="80" y="492.50" text-anchor="end">-10.0</text>
<line class="grid" x1="90" y1="449.95" x2="1150" y2="449.95" />
<text class="small" x="80" y="453.95" text-anchor="end">0.00</text>
<line class="grid" x1="90" y1="411.40" x2="1150" y2="411.40" />
<text class="small" x="80" y="415.40" text-anchor="end">10.0</text>
<line class="grid" x1="90" y1="372.85" x2="1150" y2="372.85" />
<text class="small" x="80" y="376.85" text-anchor="end">20.0</text>
<line class="grid" x1="90" y1="334.30" x2="1150" y2="334.30" />
<text class="small" x="80" y="338.30" text-anchor="end">30.0</text>
<line class="grid" x1="90" y1="295.75" x2="1150" y2="295.75" />
<text class="small" x="80" y="299.75" text-anchor="end">40.0</text>
<line class="grid" x1="90.00" y1="295.75" x2="90.00" y2="488.50" />
<line class="grid" x1="266.67" y1="295.75" x2="266.67" y2="488.50" />
<line class="grid" x1="443.33" y1="295.75" x2="443.33" y2="488.50" />
<line class="grid" x1="620.00" y1="295.75" x2="620.00" y2="488.50" />
<line class="grid" x1="796.67" y1="295.75" x2="796.67" y2="488.50" />
<line class="grid" x1="973.33" y1="295.75" x2="973.33" y2="488.50" />
<line class="grid" x1="1150.00" y1="295.75" x2="1150.00" y2="488.50" />
<line class="axis" x1="90" y1="295.75" x2="90" y2="488.50" />
<line class="axis" x1="90" y1="488.50" x2="1150" y2="488.50" />
<path class="series" d="M 178.33 431.31 L 178.33 431.31 L 179.81 431.25 L 181.28 431.38 L 182.75 432.49 L 184.22 432.21 L 188.64 431.38 L 188.64 431.38 L 190.11 433.57 L 191.58 431.80 L 193.06 431.90 L 194.53 431.88 L 198.94 431.96 L 198.94 431.96 L 200.42 431.96 L 201.89 431.94 L 203.36 431.93 L 204.83 431.83 L 209.25 431.96 L 209.25 431.96 L 210.72 431.96 L 212.19 431.97 L 213.67 431.84 L 215.14 431.84 L 219.56 432.02 L 219.56 432.02 L 221.03 431.85 L 222.50 432.09 L 223.97 435.23 L 225.44 434.98 L 229.86 441.11 L 229.86 441.11 L 231.33 440.21 L 232.81 439.65 L 234.28 442.40 L 235.75 437.38 L 237.22 440.23 L 238.69 440.23 L 240.17 443.29 L 241.64 445.83 L 243.11 439.46 L 244.58 445.55 L 249.00 447.78 L 249.00 447.78 L 250.47 444.43 L 251.94 444.43 L 253.42 434.56 L 254.89 441.80 L 257.83 427.55 L 257.83 427.55 L 259.31 430.59 L 260.78 422.73 L 262.25 423.65 L 263.72 429.13 L 265.19 426.73 L 266.67 433.99 L 268.14 432.67 L 269.61 431.64 L 271.08 429.16 L 272.56 434.39 L 274.03 429.03 L 278.44 431.49 L 278.44 431.49 L 279.92 437.07 L 281.39 436.06 L 282.86 438.77 L 284.33 437.95 L 287.28 432.34 L 287.28 432.34 L 288.75 432.34 L 290.22 432.34 L 291.69 433.32 L 293.17 434.85 L 294.64 431.87 L 297.58 432.48 L 297.58 432.48 L 299.06 422.38 L 300.53 422.38 L 302.00 419.20 L 303.47 411.89 L 304.94 412.51 L 306.42 417.90 L 307.89 407.17 L 309.36 406.83 L 310.83 411.80 L 312.31 415.27 L 313.78 412.81 L 315.25 415.37 L 316.72 416.81 L 318.19 415.44 L 319.67 413.85 L 321.14 426.23 L 322.61 426.23 L 324.08 421.47 L 325.56 423.11 L 327.03 427.92 L 328.50 421.08 L 329.97 419.76 L 331.44 424.04 L 332.92 423.10 L 334.39 423.10 L 335.86 422.53 L 337.33 420.19 L 338.81 424.08 L 340.28 420.82 L 341.75 420.31 L 343.22 417.44 L 344.69 418.88 L 346.17 415.94 L 347.64 413.16 L 349.11 414.45 L 350.58 414.45 L 352.06 412.97 L 353.53 413.28 L 355.00 410.35 L 356.47 408.45 L 357.94 412.64 L 359.42 420.17 L 360.89 409.54 L 362.36 410.44 L 363.83 413.68 L 365.31 413.68 L 366.78 415.18 L 368.25 418.80 L 369.72 418.64 L 371.19 419.64 L 372.67 425.41 L 374.14 425.41 L 375.61 434.26 L 377.08 442.63 L 378.56 436.15 L 380.03 454.41 L 381.50 457.09 L 382.97 457.09 L 384.44 457.09 L 385.92 444.49 L 387.39 422.14 L 388.86 419.65 L 391.81 426.77 L 391.81 426.77 L 393.28 412.75 L 394.75 412.75 L 396.22 412.75 L 397.69 411.41 L 399.17 418.26 L 400.64 418.26 L 402.11 407.65 L 403.58 400.76 L 405.06 398.13 L 406.53 399.22 L 408.00 399.86 L 409.47 396.70 L 410.94 398.71 L 412.42 398.35 L 413.89 399.59 L 415.36 405.15 L 416.83 421.65 L 418.31 430.43 L 419.78 430.43 L 421.25 430.43 L 422.72 409.52 L 424.19 406.82 L 425.67 388.31 L 427.14 392.12 L 428.61 392.36 L 430.08 393.61 L 431.56 391.91 L 433.03 391.78 L 434.50 391.78 L 435.97 401.60 L 437.44 404.71 L 438.92 404.71 L 440.39 402.68 L 441.86 403.93 L 443.33 404.14 L 444.81 403.74 L 446.28 406.86 L 447.75 406.97 L 449.22 406.85 L 450.69 407.59 L 452.17 407.59 L 453.64 407.59 L 455.11 407.59 L 456.58 404.96 L 458.06 408.85 L 459.53 407.29 L 461.00 405.98 L 462.47 406.26 L 463.94 406.26 L 465.42 406.26 L 466.89 406.26 L 468.36 405.62 L 469.83 405.07 L 471.31 404.97 L 472.78 404.84 L 474.25 399.99 L 475.72 407.75 L 477.19 407.75 L 478.67 405.12 L 480.14 404.75 L 481.61 404.94 L 483.08 406.10 L 484.56 403.36 L 486.03 403.86 L 487.50 404.13 L 488.97 405.09 L 490.44 411.97 L 491.92 396.76 L 493.39 405.32 L 494.86 404.37 L 496.33 410.23 L 497.81 406.99 L 499.28 410.04 L 500.75 411.66 L 502.22 405.61 L 503.69 412.77 L 505.17 411.99 L 506.64 408.79 L 508.11 406.23 L 509.58 408.79 L 511.06 402.85 L 512.53 403.97 L 514.00 408.61 L 515.47 413.75 L 516.94 403.80 L 518.42 414.34 L 519.89 411.03 L 521.36 412.56 L 522.83 416.09 L 524.31 417.31 L 525.78 417.11 L 527.25 421.31 L 528.72 420.65 L 530.19 420.14 L 531.67 423.99 L 533.14 421.51 L 534.61 423.47 L 536.08 419.55 L 537.56 427.09 L 539.03 428.48 L 540.50 426.62 L 541.97 434.81 L 543.44 444.78 L 544.92 446.50 L 546.39 438.02 L 547.86 441.38 L 549.33 431.23 L 550.81 444.64 L 552.28 435.48 L 553.75 433.27 L 555.22 432.51 L 556.69 432.29 L 558.17 437.29 L 559.64 437.80 L 561.11 446.28 L 562.58 440.41 L 564.06 444.88 L 565.53 433.79 L 567.00 448.51 L 568.47 438.98 L 569.94 448.16 L 571.42 442.52 L 572.89 441.62 L 574.36 445.89 L 575.83 444.04 L 577.31 448.34 L 578.78 446.66 L 580.25 445.43 L 581.72 441.16 L 583.19 427.79 L 584.67 438.09 L 586.14 433.58 L 587.61 430.89 L 589.08 423.85 L 590.56 417.27 L 592.03 422.34 L 593.50 429.57 L 594.97 429.11 L 596.44 430.79 L 597.92 425.35 L 599.39 430.52 L 600.86 431.63 L 602.33 432.65 L 603.81 434.35 L 605.28 431.62 L 606.75 436.77 L 608.22 436.77 L 609.69 431.69 L 611.17 431.87 L 612.64 433.22 L 614.11 431.33 L 615.58 431.33 L 617.06 435.63 L 618.53 439.57 L 620.00 438.71 L 621.47 439.27 L 622.94 439.43 L 624.42 439.43 L 625.89 446.39 L 627.36 446.39 L 628.83 446.39 L 630.31 442.76 L 631.78 443.55 L 633.25 445.64 L 634.72 445.63 L 636.19 442.50 L 637.67 438.70 L 639.14 433.99 L 640.61 433.73 L 642.08 429.44 L 643.56 429.44 L 645.03 429.44 L 646.50 429.44 L 647.97 439.44 L 649.44 430.44 L 650.92 433.48 L 652.39 430.23 L 653.86 435.51 L 655.33 433.60 L 656.81 433.44 L 658.28 433.44 L 659.75 431.38 L 661.22 431.53 L 662.69 435.39 L 664.17 434.04 L 665.64 437.33 L 667.11 438.44 L 668.58 440.33 L 670.06 439.52 L 671.53 438.36 L 673.00 437.39 L 674.47 435.47 L 675.94 435.47 L 677.42 435.84 L 678.89 438.18 L 680.36 442.13 L 681.83 446.71 L 683.31 444.66 L 684.78 444.05 L 686.25 435.49 L 687.72 438.71 L 689.19 431.37 L 690.67 435.78 L 692.14 435.15 L 693.61 435.15 L 695.08 437.67 L 696.56 434.72 L 698.03 431.05 L 699.50 430.74 L 700.97 430.27 L 702.44 432.83 L 703.92 432.83 L 705.39 432.83 L 706.86 432.83 L 708.33 434.94 L 709.81 430.45 L 711.28 438.93 L 712.75 428.33 L 714.22 417.79 L 715.69 417.79 L 717.17 424.20 L 718.64 423.29 L 720.11 416.15 L 721.58 416.15 L 723.06 416.15 L 724.53 415.48 L 726.00 407.17 L 727.47 407.07 L 728.94 413.24 L 730.42 410.88 L 731.89 415.09 L 733.36 408.44 L 734.83 418.31 L 736.31 414.98 L 737.78 414.98 L 739.25 413.30 L 740.72 418.64 L 742.19 422.10 L 743.67 416.15 L 745.14 413.89 L 746.61 418.77 L 748.08 428.98 L 749.56 428.98 L 751.03 428.98 L 752.50 427.23 L 753.97 431.26 L 755.44 424.15 L 756.92 432.40 L 758.39 432.40 L 759.86 432.40 L 761.33 432.40 L 762.81 424.62 L 764.28 427.25" stroke="#2E7D32" />
<path class="series" d="M 178.33 457.81 L 178.33 457.81 L 179.81 457.06 L 181.28 459.60 L 182.75 458.15 L 184.22 458.39 L 188.64 456.83 L 188.64 456.83 L 190.11 458.80 L 191.58 457.80 L 193.06 457.79 L 194.53 457.83 L 198.94 457.72 L 198.94 457.72 L 200.42 457.72 L 201.89 457.86 L 203.36 457.89 L 204.83 457.87 L 209.25 457.87 L 209.25 457.87 L 210.72 457.87 L 212.19 457.81 L 213.67 458.00 L 215.14 457.55 L 219.56 457.99 L 219.56 457.99 L 221.03 457.86 L 222.50 457.73 L 223.97 457.89 L 225.44 454.55 L 229.86 453.76 L 229.86 453.76 L 231.33 448.26 L 232.81 451.18 L 234.28 454.39 L 235.75 451.51 L 237.22 448.61 L 238.69 448.61 L 240.17 453.04 L 241.64 452.67 L 243.11 451.76 L 244.58 451.06 L 249.00 446.23 L 249.00 446.23 L 250.47 448.46 L 251.94 448.46 L 253.42 445.13 L 254.89 444.93 L 257.83 445.91 L 257.83 445.91 L 259.31 464.73 L 260.78 451.61 L 262.25 458.84 L 263.72 466.09 L 265.19 462.20 L 266.67 464.08 L 268.14 464.27 L 269.61 462.29 L 271.08 460.12 L 272.56 464.00 L 274.03 468.19 L 278.44 469.50 L 278.44 469.50 L 279.92 466.34 L 281.39 469.95 L 282.86 464.93 L 284.33 464.78 L 287.28 472.13 L 287.28 472.13 L 288.75 472.13 L 290.22 472.13 L 291.69 458.59 L 293.17 460.29 L 294.64 461.09 L 297.58 455.67 L 297.58 455.67 L 299.06 480.63 L 300.53 480.63 L 302.00 461.01 L 303.47 458.14 L 304.94 458.55 L 306.42 458.93 L 307.89 460.51 L 309.36 456.28 L 310.83 452.50 L 312.31 449.48 L 313.78 459.35 L 315.25 451.16 L 316.72 457.71 L 318.19 453.95 L 319.67 453.63 L 321.14 457.78 L 322.61 457.78 L 324.08 453.96 L 325.56 454.75 L 327.03 458.50 L 328.50 454.98 L 329.97 457.03 L 331.44 456.74 L 332.92 452.89 L 334.39 452.89 L 335.86 457.80 L 337.33 452.19 L 338.81 452.13 L 340.28 448.59 L 341.75 450.42 L 343.22 448.59 L 344.69 447.96 L 346.17 444.85 L 347.64 445.69 L 349.11 438.79 L 350.58 438.79 L 352.06 442.92 L 353.53 439.20 L 355.00 441.27 L 356.47 438.54 L 357.94 435.28 L 359.42 433.42 L 360.89 439.42 L 362.36 437.34 L 363.83 439.22 L 365.31 439.22 L 366.78 436.59 L 368.25 442.36 L 369.72 447.46 L 371.19 444.93 L 372.67 456.47 L 374.14 456.47 L 375.61 450.44 L 377.08 445.05 L 378.56 445.59 L 380.03 453.74 L 381.50 444.38 L 382.97 444.38 L 384.44 444.38 L 385.92 460.16 L 387.39 461.50 L 388.86 457.49 L 391.81 474.20 L 391.81 474.20 L 393.28 455.01 L 394.75 455.01 L 396.22 455.01 L 397.69 456.00 L 399.17 456.21 L 400.64 456.21 L 402.11 455.96 L 403.58 454.07 L 405.06 447.09 L 406.53 445.07 L 408.00 441.55 L 409.47 442.71 L 410.94 444.20 L 412.42 438.28 L 413.89 442.02 L 415.36 453.34 L 416.83 444.96 L 418.31 439.73 L 419.78 439.73 L 421.25 439.73 L 422.72 443.52 L 424.19 447.68 L 425.67 445.75 L 427.14 443.82 L 428.61 442.51 L 430.08 441.41 L 431.56 445.22 L 433.03 437.91 L 434.50 437.91 L 435.97 446.54 L 437.44 445.18 L 438.92 445.18 L 440.39 445.56 L 441.86 445.05 L 443.33 445.04 L 444.81 444.31 L 446.28 444.40 L 447.75 444.84 L 449.22 444.70 L 450.69 444.66 L 452.17 444.66 L 453.64 444.66 L 455.11 444.66 L 456.58 444.58 L 458.06 445.04 L 459.53 446.35 L 461.00 446.11 L 462.47 449.42 L 463.94 449.42 L 465.42 449.42 L 466.89 449.42 L 468.36 445.79 L 469.83 445.71 L 471.31 446.63 L 472.78 446.18 L 474.25 447.10 L 475.72 444.60 L 477.19 444.60 L 478.67 446.68 L 480.14 446.59 L 481.61 446.47 L 483.08 446.65 L 484.56 446.91 L 486.03 445.69 L 487.50 446.59 L 488.97 443.63 L 490.44 445.15 L 491.92 450.39 L 493.39 443.73 L 494.86 444.69 L 496.33 444.89 L 497.81 444.80 L 499.28 444.38 L 500.75 445.25 L 502.22 444.93 L 503.69 446.39 L 505.17 445.92 L 506.64 447.34 L 508.11 440.80 L 509.58 440.46 L 511.06 441.14 L 512.53 437.90 L 514.00 441.05 L 515.47 444.24 L 516.94 440.58 L 518.42 436.67 L 519.89 442.57 L 521.36 444.17 L 522.83 441.56 L 524.31 446.88 L 525.78 437.64 L 527.25 444.07 L 528.72 446.70 L 530.19 432.77 L 531.67 452.30 L 533.14 434.76 L 534.61 434.71 L 536.08 438.96 L 537.56 435.41 L 539.03 436.68 L 540.50 429.76 L 541.97 436.29 L 543.44 438.96 L 544.92 431.84 L 546.39 444.10 L 547.86 455.85 L 549.33 455.29 L 550.81 451.66 L 552.28 439.50 L 553.75 451.99 L 555.22 449.84 L 556.69 454.21 L 558.17 449.90 L 559.64 448.44 L 561.11 445.48 L 562.58 451.27 L 564.06 457.94 L 565.53 446.83 L 567.00 459.58 L 568.47 458.71 L 569.94 448.52 L 571.42 455.49 L 572.89 455.24 L 574.36 454.57 L 575.83 455.48 L 577.31 452.59 L 578.78 454.01 L 580.25 448.22 L 581.72 454.96 L 583.19 451.87 L 584.67 461.03 L 586.14 450.28 L 587.61 453.06 L 589.08 455.87 L 590.56 442.60 L 592.03 448.35 L 593.50 446.41 L 594.97 443.70 L 596.44 434.53 L 597.92 446.28 L 599.39 443.52 L 600.86 453.90 L 602.33 455.17 L 603.81 453.59 L 605.28 456.00 L 606.75 461.59 L 608.22 461.59 L 609.69 464.67 L 611.17 457.78 L 612.64 455.54 L 614.11 469.27 L 615.58 469.27 L 617.06 454.25 L 618.53 450.62 L 620.00 449.41 L 621.47 446.19 L 622.94 449.28 L 624.42 449.28 L 625.89 437.09 L 627.36 437.09 L 628.83 437.09 L 630.31 448.97 L 631.78 447.35 L 633.25 445.16 L 634.72 445.12 L 636.19 448.01 L 637.67 444.37 L 639.14 447.65 L 640.61 446.39 L 642.08 436.63 L 643.56 436.63 L 645.03 436.63 L 646.50 436.63 L 647.97 435.48 L 649.44 428.27 L 650.92 432.24 L 652.39 434.57 L 653.86 436.48 L 655.33 438.11 L 656.81 441.20 L 658.28 441.20 L 659.75 444.87 L 661.22 447.34 L 662.69 450.42 L 664.17 453.19 L 665.64 452.65 L 667.11 456.30 L 668.58 456.48 L 670.06 459.43 L 671.53 460.08 L 673.00 457.50 L 674.47 462.33 L 675.94 462.33 L 677.42 460.73 L 678.89 460.22 L 680.36 458.56 L 681.83 455.18 L 683.31 457.19 L 684.78 451.26 L 686.25 448.15 L 687.72 452.65 L 689.19 455.52 L 690.67 459.23 L 692.14 465.69 L 693.61 465.69 L 695.08 467.99 L 696.56 471.95 L 698.03 471.97 L 699.50 467.31 L 700.97 466.15 L 702.44 468.71 L 703.92 468.71 L 705.39 468.71 L 706.86 468.71 L 708.33 465.67 L 709.81 469.04 L 711.28 464.82 L 712.75 468.52 L 714.22 469.86 L 715.69 469.86 L 717.17 460.99 L 718.64 462.00 L 720.11 471.81 L 721.58 471.81 L 723.06 471.81 L 724.53 461.75 L 726.00 461.40 L 727.47 454.34 L 728.94 444.68 L 730.42 456.25 L 731.89 463.96 L 733.36 463.45 L 734.83 462.81 L 736.31 452.05 L 737.78 452.05 L 739.25 456.89 L 740.72 446.71 L 742.19 449.39 L 743.67 447.55 L 745.14 460.59 L 746.61 445.72 L 748.08 457.10 L 749.56 457.10 L 751.03 457.10 L 752.50 461.68 L 753.97 461.27 L 755.44 452.33 L 756.92 455.94 L 758.39 455.94 L 759.86 455.94 L 761.33 455.94 L 762.81 444.41 L 764.28 439.26" stroke="#6A1B9A" />
<line x1="900.00" y1="307.75" x2="918.00" y2="307.75" stroke="#2E7D32" stroke-width="3" />
<text class="small" x="924.00" y="311.75">pitch</text>
<line x1="900.00" y1="323.75" x2="918.00" y2="323.75" stroke="#6A1B9A" stroke-width="3" />
<text class="small" x="924.00" y="327.75">roll</text>
<text x="90" y="500.50" font-size="14" font-weight="700">Aceleração (magnitude) (u.a.)</text>
<rect class="event" x="443.33" y="506.50" width="55.94" height="192.75" />
<line class="eventline" x1="443.33" y1="506.50" x2="443.33" y2="699.25" />
<line class="eventline" x1="499.28" y1="506.50" x2="499.28" y2="699.25" />
<line class="grid" x1="90" y1="699.25" x2="1150" y2="699.25" />
<text class="small" x="80" y="703.25" text-anchor="end">0.00</text>
<line class="grid" x1="90" y1="660.70" x2="1150" y2="660.70" />
<text class="small" x="80" y="664.70" text-anchor="end">0.20</text>
<line class="grid" x1="90" y1="622.15" x2="1150" y2="622.15" />
<text class="small" x="80" y="626.15" text-anchor="end">0.40</text>
<line class="grid" x1="90" y1="583.60" x2="1150" y2="583.60" />
<text class="small" x="80" y="587.60" text-anchor="end">0.60</text>
<line class="grid" x1="90" y1="545.05" x2="1150" y2="545.05" />
<text class="small" x="80" y="549.05" text-anchor="end">0.80</text>
<line class="grid" x1="90" y1="506.50" x2="1150" y2="506.50" />
<text class="small" x="80" y="510.50" text-anchor="end">1.00</text>
<line class="grid" x1="90.00" y1="506.50" x2="90.00" y2="699.25" />
<line class="grid" x1="266.67" y1="506.50" x2="266.67" y2="699.25" />
<line class="grid" x1="443.33" y1="506.50" x2="443.33" y2="699.25" />
<line class="grid" x1="620.00" y1="506.50" x2="620.00" y2="699.25" />
<line class="grid" x1="796.67" y1="506.50" x2="796.67" y2="699.25" />
<line class="grid" x1="973.33" y1="506.50" x2="973.33" y2="699.25" />
<line class="grid" x1="1150.00" y1="506.50" x2="1150.00" y2="699.25" />
<line class="axis" x1="90" y1="506.50" x2="90" y2="699.25" />
<line class="axis" x1="90" y1="699.25" x2="1150" y2="699.25" />
<path class="series" d="M 178.33 698.66 L 178.33 698.66 L 179.81 691.48 L 181.28 682.70 L 182.75 690.76 L 184.22 691.02 L 188.64 697.78 L 188.64 697.78 L 190.11 694.23 L 191.58 697.67 L 193.06 698.80 L 194.53 698.47 L 198.94 698.29 L 198.94 698.29 L 200.42 698.80 L 201.89 699.04 L 203.36 699.04 L 204.83 698.37 L 209.25 698.62 L 209.25 698.62 L 210.72 699.08 L 212.19 698.04 L 213.67 696.95 L 215.14 697.65 L 219.56 697.50 L 219.56 697.50 L 221.03 698.99 L 222.50 699.05 L 223.97 687.81 L 225.44 672.64 L 229.86 667.28 L 229.86 667.28 L 231.33 682.42 L 232.81 682.06 L 234.28 671.21 L 235.75 679.62 L 237.22 660.33 L 238.69 677.89 L 240.17 649.54 L 241.64 648.86 L 243.11 652.88 L 244.58 675.82 L 249.00 658.35 L 249.00 658.35 L 250.47 671.76 L 251.94 667.40 L 253.42 680.84 L 254.89 674.98 L 257.83 680.59 L 257.83 680.59 L 259.31 673.12 L 260.78 673.12 L 262.25 673.33 L 263.72 658.10 L 265.19 670.72 L 266.67 661.91 L 268.14 691.35 L 269.61 680.16 L 271.08 691.49 L 272.56 661.73 L 274.03 683.23 L 278.44 668.84 L 278.44 668.84 L 279.92 648.85 L 281.39 689.97 L 282.86 673.74 L 284.33 677.37 L 287.28 636.40 L 287.28 636.40 L 288.75 657.43 L 290.22 657.43 L 291.69 685.77 L 293.17 662.36 L 294.64 659.40 L 297.58 658.53 L 297.58 658.53 L 299.06 568.62 L 300.53 669.93 L 302.00 664.34 L 303.47 635.82 L 304.94 675.35 L 306.42 673.23 L 307.89 673.23 L 309.36 675.79 L 310.83 657.68 L 312.31 620.26 L 313.78 639.94 L 315.25 688.90 L 316.72 673.46 L 318.19 672.12 L 319.67 635.27 L 321.14 662.20 L 322.61 677.88 L 324.08 674.95 L 325.56 647.34 L 327.03 685.42 L 328.50 674.40 L 329.97 693.83 L 331.44 693.83 L 332.92 673.27 L 334.39 673.51 L 335.86 673.30 L 337.33 669.52 L 338.81 693.31 L 340.28 683.46 L 341.75 679.62 L 343.22 685.71 L 344.69 686.90 L 346.17 688.28 L 347.64 688.28 L 349.11 673.02 L 350.58 681.74 L 352.06 681.74 L 353.53 683.77 L 355.00 692.32 L 356.47 684.83 L 357.94 688.02 L 359.42 657.58 L 360.89 673.98 L 362.36 681.27 L 363.83 690.87 L 365.31 672.09 L 366.78 665.97 L 368.25 665.97 L 369.72 675.42 L 371.19 654.61 L 372.67 636.11 L 374.14 636.11 L 375.61 654.34 L 377.08 617.00 L 378.56 612.52 L 380.03 640.20 L 381.50 561.60 L 382.97 561.60 L 384.44 661.94 L 385.92 650.39 L 387.39 638.35 L 388.86 669.60 L 391.81 639.69 L 391.81 639.69 L 393.28 666.59 L 394.75 666.59 L 396.22 694.56 L 397.69 658.61 L 399.17 676.63 L 400.64 683.94 L 402.11 694.04 L 403.58 694.04 L 405.06 677.67 L 406.53 693.28 L 408.00 679.52 L 409.47 656.99 L 410.94 667.66 L 412.42 683.25 L 413.89 680.76 L 415.36 657.97 L 416.83 644.00 L 418.31 649.40 L 419.78 649.40 L 421.25 625.01 L 422.72 652.57 L 424.19 615.02 L 425.67 639.76 L 427.14 654.30 L 428.61 666.55 L 430.08 646.29 L 431.56 666.76 L 433.03 672.89 L 434.50 655.50 L 435.97 673.85 L 437.44 685.04 L 438.92 688.95 L 440.39 690.97 L 441.86 694.45 L 443.33 687.88 L 444.81 681.73 L 446.28 693.50 L 447.75 695.43 L 449.22 691.86 L 450.69 691.86 L 452.17 668.87 L 453.64 676.27 L 455.11 684.81 L 456.58 670.28 L 458.06 688.35 L 459.53 693.85 L 461.00 693.93 L 462.47 693.93 L 463.94 695.04 L 465.42 670.13 L 466.89 682.36 L 468.36 682.36 L 469.83 693.93 L 471.31 695.91 L 472.78 694.78 L 474.25 682.67 L 475.72 668.18 L 477.19 692.08 L 478.67 696.81 L 480.14 696.75 L 481.61 691.03 L 483.08 686.30 L 484.56 673.49 L 486.03 689.05 L 487.50 696.50 L 488.97 663.95 L 490.44 661.44 L 491.92 628.87 L 493.39 660.54 L 494.86 653.26 L 496.33 674.33 L 497.81 684.59 L 499.28 674.26 L 500.75 683.67 L 502.22 667.68 L 503.69 648.85 L 505.17 651.61 L 506.64 670.20 L 508.11 678.27 L 509.58 674.27 L 511.06 646.18 L 512.53 683.31 L 514.00 676.72 L 515.47 606.73 L 516.94 626.35 L 518.42 633.72 L 519.89 665.86 L 521.36 670.54 L 522.83 669.02 L 524.31 675.92 L 525.78 669.72 L 527.25 688.11 L 528.72 688.36 L 530.19 670.95 L 531.67 685.10 L 533.14 661.97 L 534.61 655.97 L 536.08 613.66 L 537.56 679.50 L 539.03 645.59 L 540.50 645.59 L 541.97 687.25 L 543.44 646.30 L 544.92 647.48 L 546.39 577.62 L 547.86 628.02 L 549.33 569.76 L 550.81 631.69 L 552.28 599.61 L 553.75 600.44 L 555.22 669.84 L 556.69 666.03 L 558.17 661.49 L 559.64 685.19 L 561.11 651.29 L 562.58 651.08 L 564.06 638.71 L 565.53 640.13 L 567.00 593.66 L 568.47 605.42 L 569.94 567.93 L 571.42 615.53 L 572.89 681.84 L 574.36 678.44 L 575.83 659.38 L 577.31 677.55 L 578.78 624.55 L 580.25 652.29 L 581.72 679.29 L 583.19 674.64 L 584.67 590.35 L 586.14 639.72 L 587.61 678.46 L 589.08 682.69 L 590.56 640.06 L 592.03 660.93 L 593.50 644.98 L 594.97 608.67 L 596.44 649.05 L 597.92 679.12 L 599.39 621.36 L 600.86 665.25 L 602.33 677.43 L 603.81 653.50 L 605.28 633.80 L 606.75 679.24 L 608.22 654.24 L 609.69 668.11 L 611.17 656.96 L 612.64 670.76 L 614.11 663.97 L 615.58 675.95 L 617.06 687.32 L 618.53 678.22 L 620.00 688.62 L 621.47 650.14 L 622.94 661.50 L 624.42 661.50 L 625.89 677.68 L 627.36 679.89 L 628.83 679.89 L 630.31 675.69 L 631.78 678.82 L 633.25 685.94 L 634.72 676.76 L 636.19 630.54 L 637.67 682.18 L 639.14 677.66 L 640.61 674.85 L 642.08 669.63 L 643.56 675.40 L 645.03 675.40 L 646.50 682.74 L 647.97 694.53 L 649.44 676.94 L 650.92 689.87 L 652.39 684.51 L 653.86 663.10 L 655.33 683.16 L 656.81 683.25 L 658.28 675.12 L 659.75 689.53 L 661.22 680.28 L 662.69 663.96 L 664.17 661.69 L 665.64 679.56 L 667.11 683.05 L 668.58 692.05 L 670.06 692.77 L 671.53 673.21 L 673.00 673.95 L 674.47 686.51 L 675.94 679.05 L 677.42 672.88 L 678.89 681.80 L 680.36 665.29 L 681.83 683.32 L 683.31 679.27 L 684.78 672.06 L 686.25 676.81 L 687.72 678.12 L 689.19 676.08 L 690.67 666.00 L 692.14 666.00 L 693.61 682.61 L 695.08 690.36 L 696.56 668.60 L 698.03 672.70 L 699.50 668.39 L 700.97 671.48 L 702.44 669.64 L 703.92 669.64 L 705.39 689.29 L 706.86 682.09 L 708.33 682.39 L 709.81 664.15 L 711.28 620.31 L 712.75 676.63 L 714.22 599.20 L 715.69 599.20 L 717.17 687.06 L 718.64 660.27 L 720.11 610.13 L 721.58 673.88 L 723.06 639.49 L 724.53 660.00 L 726.00 653.39 L 727.47 645.28 L 728.94 603.31 L 730.42 663.64 L 731.89 649.83 L 733.36 640.36 L 734.83 683.92 L 736.31 621.35 L 737.78 621.35 L 739.25 649.94 L 740.72 641.02 L 742.19 653.83 L 743.67 619.56 L 745.14 608.05 L 746.61 606.60 L 748.08 649.57 L 749.56 666.16 L 751.03 666.16 L 752.50 680.97 L 753.97 670.44 L 755.44 624.35 L 756.92 608.11 L 758.39 645.87 L 759.86 645.87 L 761.33 666.34 L 762.81 665.83 L 764.28 662.50" stroke="#FB8C00" />
<text x="90" y="711.25" font-size="14" font-weight="700">Giroscópio (magnitude) (u.a.)</text>
<rect class="event" x="443.33" y="717.25" width="55.94" height="192.75" />
<line class="eventline" x1="443.33" y1="717.25" x2="443.33" y2="910.00" />
<line class="eventline" x1="499.28" y1="717.25" x2="499.28" y2="910.00" />
<line class="grid" x1="90" y1="910.00" x2="1150" y2="910.00" />
<text class="small" x="80" y="914.00" text-anchor="end">0.00</text>
<line class="grid" x1="90" y1="871.45" x2="1150" y2="871.45" />
<text class="small" x="80" y="875.45" text-anchor="end">0.05</text>
<line class="grid" x1="90" y1="832.90" x2="1150" y2="832.90" />
<text class="small" x="80" y="836.90" text-anchor="end">0.10</text>
<line class="grid" x1="90" y1="794.35" x2="1150" y2="794.35" />
<text class="small" x="80" y="798.35" text-anchor="end">0.15</text>
<line class="grid" x1="90" y1="755.80" x2="1150" y2="755.80" />
<text class="small" x="80" y="759.80" text-anchor="end">0.20</text>
<line class="grid" x1="90" y1="717.25" x2="1150" y2="717.25" />
<text class="small" x="80" y="721.25" text-anchor="end">0.25</text>
<line class="grid" x1="90.00" y1="717.25" x2="90.00" y2="910.00" />
<line class="grid" x1="266.67" y1="717.25" x2="266.67" y2="910.00" />
<line class="grid" x1="443.33" y1="717.25" x2="443.33" y2="910.00" />
<line class="grid" x1="620.00" y1="717.25" x2="620.00" y2="910.00" />
<line class="grid" x1="796.67" y1="717.25" x2="796.67" y2="910.00" />
<line class="grid" x1="973.33" y1="717.25" x2="973.33" y2="910.00" />
<line class="grid" x1="1150.00" y1="717.25" x2="1150.00" y2="910.00" />
<line class="axis" x1="90" y1="717.25" x2="90" y2="910.00" />
<line class="axis" x1="90" y1="910.00" x2="1150" y2="910.00" />
<path class="series" d="M 178.33 909.87 L 178.33 909.87 L 179.81 909.38 L 181.28 908.61 L 182.75 907.72 L 184.22 908.97 L 188.64 908.71 L 188.64 908.71 L 190.11 909.49 L 191.58 909.72 L 193.06 909.71 L 194.53 909.68 L 198.94 909.80 L 198.94 909.80 L 200.42 909.86 L 201.89 909.90 L 203.36 909.90 L 204.83 909.90 L 209.25 909.75 L 209.25 909.75 L 210.72 909.69 L 212.19 909.66 L 213.67 909.80 L 215.14 909.80 L 219.56 909.82 L 219.56 909.82 L 221.03 909.88 L 222.50 909.81 L 223.97 905.67 L 225.44 901.16 L 229.86 901.39 L 229.86 901.39 L 231.33 905.22 L 232.81 903.62 L 234.28 903.86 L 235.75 899.88 L 237.22 900.49 L 238.69 906.74 L 240.17 899.33 L 241.64 900.36 L 243.11 887.60 L 244.58 889.22 L 249.00 889.22 L 249.00 889.22 L 250.47 893.49 L 251.94 893.38 L 253.42 897.11 L 254.89 879.33 L 257.83 899.46 L 257.83 899.46 L 259.31 894.93 L 260.78 894.93 L 262.25 890.07 L 263.72 892.83 L 265.19 906.97 L 266.67 895.97 L 268.14 890.83 L 269.61 893.07 L 271.08 890.13 L 272.56 886.06 L 274.03 881.45 L 278.44 866.82 L 278.44 866.82 L 279.92 868.07 L 281.39 887.27 L 282.86 887.06 L 284.33 887.19 L 287.28 872.29 L 287.28 872.29 L 288.75 856.54 L 290.22 856.54 L 291.69 875.03 L 293.17 855.75 L 294.64 860.64 L 297.58 881.84 L 297.58 881.84 L 299.06 867.16 L 300.53 852.35 L 302.00 845.12 L 303.47 865.27 L 304.94 880.42 L 306.42 873.81 L 307.89 873.81 L 309.36 848.87 L 310.83 869.76 L 312.31 848.87 L 313.78 850.65 L 315.25 845.99 L 316.72 861.59 L 318.19 873.22 L 319.67 894.68 L 321.14 904.12 L 322.61 907.44 L 324.08 903.55 L 325.56 901.83 L 327.03 905.58 L 328.50 907.24 L 329.97 906.32 L 331.44 906.32 L 332.92 899.28 L 334.39 892.34 L 335.86 881.02 L 337.33 895.58 L 338.81 889.67 L 340.28 891.58 L 341.75 886.29 L 343.22 889.31 L 344.69 886.90 L 346.17 888.83 L 347.64 888.83 L 349.11 885.29 L 350.58 890.84 L 352.06 890.84 L 353.53 890.82 L 355.00 893.62 L 356.47 885.07 L 357.94 886.42 L 359.42 902.33 L 360.89 899.43 L 362.36 907.10 L 363.83 908.99 L 365.31 906.71 L 366.78 899.40 L 368.25 899.40 L 369.72 875.53 L 371.19 853.98 L 372.67 854.39 L 374.14 854.39 L 375.61 853.59 L 377.08 877.49 L 378.56 899.81 L 380.03 897.00 L 381.50 887.05 L 382.97 887.05 L 384.44 895.47 L 385.92 878.28 L 387.39 867.04 L 388.86 873.61 L 391.81 881.51 L 391.81 881.51 L 393.28 881.80 L 394.75 881.80 L 396.22 880.69 L 397.69 890.22 L 399.17 893.46 L 400.64 884.46 L 402.11 886.52 L 403.58 886.52 L 405.06 897.95 L 406.53 896.54 L 408.00 900.90 L 409.47 898.71 L 410.94 903.83 L 412.42 899.32 L 413.89 901.43 L 415.36 879.66 L 416.83 865.29 L 418.31 870.81 L 419.78 870.81 L 421.25 883.90 L 422.72 869.75 L 424.19 884.97 L 425.67 873.56 L 427.14 873.29 L 428.61 865.53 L 430.08 871.84 L 431.56 894.95 L 433.03 898.28 L 434.50 895.03 L 435.97 905.67 L 437.44 903.43 L 438.92 906.87 L 440.39 908.20 L 441.86 907.37 L 443.33 907.22 L 444.81 908.07 L 446.28 907.94 L 447.75 908.02 L 449.22 908.22 L 450.69 908.22 L 452.17 904.42 L 453.64 909.67 L 455.11 901.58 L 456.58 899.57 L 458.06 901.99 L 459.53 902.44 L 461.00 901.08 L 462.47 901.08 L 463.94 898.52 L 465.42 904.33 L 466.89 907.47 L 468.36 907.47 L 469.83 908.07 L 471.31 907.94 L 472.78 907.88 L 474.25 903.26 L 475.72 903.84 L 477.19 906.49 L 478.67 907.57 L 480.14 907.71 L 481.61 906.22 L 483.08 906.59 L 484.56 907.98 L 486.03 908.43 L 487.50 907.94 L 488.97 907.28 L 490.44 896.03 L 491.92 901.15 L 493.39 907.21 L 494.86 906.96 L 496.33 898.36 L 497.81 894.41 L 499.28 898.20 L 500.75 907.27 L 502.22 905.29 L 503.69 905.13 L 505.17 894.96 L 506.64 895.29 L 508.11 894.39 L 509.58 895.08 L 511.06 895.85 L 512.53 890.32 L 514.00 887.46 L 515.47 891.88 L 516.94 890.70 L 518.42 901.99 L 519.89 899.46 L 521.36 898.70 L 522.83 887.86 L 524.31 893.93 L 525.78 885.25 L 527.25 880.05 L 528.72 874.48 L 530.19 853.25 L 531.67 828.99 L 533.14 830.21 L 534.61 822.11 L 536.08 841.39 L 537.56 846.53 L 539.03 851.67 L 540.50 851.67 L 541.97 847.60 L 543.44 844.18 L 544.92 847.23 L 546.39 854.50 L 547.86 833.51 L 549.33 875.64 L 550.81 884.83 L 552.28 895.63 L 553.75 869.76 L 555.22 861.03 L 556.69 848.93 L 558.17 853.52 L 559.64 848.47 L 561.11 847.04 L 562.58 837.56 L 564.06 839.48 L 565.53 887.15 L 567.00 880.59 L 568.47 891.42 L 569.94 904.69 L 571.42 883.72 L 572.89 878.65 L 574.36 884.91 L 575.83 885.10 L 577.31 881.64 L 578.78 873.80 L 580.25 865.41 L 581.72 850.14 L 583.19 859.89 L 584.67 874.96 L 586.14 876.51 L 587.61 866.39 L 589.08 866.10 L 590.56 886.79 L 592.03 871.04 L 593.50 869.66 L 594.97 867.47 L 596.44 854.71 L 597.92 822.29 L 599.39 849.16 L 600.86 866.45 L 602.33 880.68 L 603.81 889.02 L 605.28 895.47 L 606.75 895.97 L 608.22 896.51 L 609.69 900.69 L 611.17 902.17 L 612.64 903.05 L 614.11 898.73 L 615.58 898.81 L 617.06 898.18 L 618.53 897.41 L 620.00 901.05 L 621.47 904.24 L 622.94 901.77 L 624.42 901.77 L 625.89 901.26 L 627.36 897.06 L 628.83 897.06 L 630.31 905.07 L 631.78 908.15 L 633.25 903.62 L 634.72 906.43 L 636.19 898.99 L 637.67 894.02 L 639.14 892.82 L 640.61 900.77 L 642.08 891.84 L 643.56 889.28 L 645.03 889.28 L 646.50 896.83 L 647.97 887.75 L 649.44 890.05 L 650.92 894.39 L 652.39 898.51 L 653.86 901.14 L 655.33 901.28 L 656.81 897.84 L 658.28 894.30 L 659.75 893.60 L 661.22 894.56 L 662.69 899.46 L 664.17 894.26 L 665.64 885.10 L 667.11 892.40 L 668.58 896.91 L 670.06 896.90 L 671.53 902.56 L 673.00 898.15 L 674.47 899.91 L 675.94 900.69 L 677.42 898.12 L 678.89 894.52 L 680.36 895.85 L 681.83 886.47 L 683.31 877.63 L 684.78 880.52 L 686.25 891.11 L 687.72 886.16 L 689.19 891.30 L 690.67 888.97 L 692.14 888.97 L 693.61 895.20 L 695.08 902.68 L 696.56 894.93 L 698.03 896.66 L 699.50 904.48 L 700.97 901.92 L 702.44 895.90 L 703.92 895.90 L 705.39 895.50 L 706.86 897.43 L 708.33 902.63 L 709.81 904.14 L 711.28 903.05 L 712.75 888.49 L 714.22 884.58 L 715.69 884.58 L 717.17 876.51 L 718.64 863.05 L 720.11 849.26 L 721.58 828.12 L 723.06 832.62 L 724.53 834.62 L 726.00 818.06 L 727.47 850.43 L 728.94 863.94 L 730.42 847.27 L 731.89 837.67 L 733.36 829.54 L 734.83 843.79 L 736.31 837.54 L 737.78 837.54 L 739.25 853.79 L 740.72 848.29 L 742.19 841.53 L 743.67 845.63 L 745.14 864.59 L 746.61 886.56 L 748.08 873.20 L 749.56 857.74 L 751.03 857.74 L 752.50 836.90 L 753.97 833.72 L 755.44 833.40 L 756.92 848.43 L 758.39 860.56 L 759.86 860.56 L 761.33 881.30 L 762.81 873.48 L 764.28 869.33" stroke="#E53935" />
<text x="620.00" y="952" font-size="15" text-anchor="middle">minutos (relativo ao início do evento)</text>
<text class="small" x="90.00" y="936" text-anchor="middle">-4.00</text>
<text class="small" x="266.67" y="936" text-anchor="middle">-2.00</text>
<text class="small" x="443.33" y="936" text-anchor="middle">0.00</text>
<text class="small" x="620.00" y="936" text-anchor="middle">2.00</text>
<text class="small" x="796.67" y="936" text-anchor="middle">4.00</text>
<text class="small" x="973.33" y="936" text-anchor="middle">6.00</text>
<text class="small" x="1150.00" y="936" text-anchor="middle">8.00</text>
</svg>