<?xml version="1.0" encoding="UTF-8"?>
<svg xmlns="http://www.w3.org/2000/svg" width="1180" height="980" viewBox="0 0 1180 980">
<style>
text { font-family: -apple-system, BlinkMacSystemFont, 'Segoe UI', Roboto, Helvetica, Arial, sans-serif; fill: #111; }
.small { font-size: 12px; fill: #222; }
.title { font-size: 18px; font-weight: 700; }
.axis { stroke: #111; stroke-width: 1.4; }
.grid { stroke: #E6E6E6; stroke-width: 1; }
.event { fill: #FFEB3B; fill-opacity: 0.18; }
.eventline { stroke: #F9A825; stroke-width: 1.2; stroke-dasharray: 4 3; }
.series { fill: none; stroke-width: 1.8; }
</style>
<text class="title" x="90" y="34">ciclo 23 — espera_carregamento — 2025-12-13T11:11:52-03:00 → 2025-12-13T11:12:33-03:00 (span 41s, dur 42s)</text>
<text class="small" x="90" y="54">GPS: -11.698387,-47.155440  hotspot: -11.698,-47.155</text>
<text class="small" x="90" y="70">Janela: -3.00 → 3.68 min (relativo ao início do evento)</text>
<text x="90" y="79.00" font-size="14" font-weight="700">Velocidade (km/h)</text>
<rect class="event" x="443.33" y="85.00" width="60.36" height="192.75" />
<line class="eventline" x1="443.33" y1="85.00" x2="443.33" y2="277.75" />
<line class="eventline" x1="503.69" y1="85.00" x2="503.69" y2="277.75" />
<line class="grid" x1="90" y1="277.75" x2="1150" y2="277.75" />
<text class="small" x="80" y="281.75" text-anchor="end">0.00</text>
<line class="grid" x1="90" y1="239.20" x2="1150" y2="239.20" />
<text class="small" x="80" y="243.20" text-anchor="end">5.00</text>
<line class="grid" x1="90" y1="200.65" x2="1150" y2="200.65" />
<text class="small" x="80" y="204.65" text-anchor="end">10.0</text>
<line class="grid" x1="90" y1="162.10" x2="1150" y2="162.10" />
<text class="small" x="80" y="166.10" text-anchor="end">15.0</text>
<line class="grid" x1="90" y1="123.55" x2="1150" y2="123.55" />
<text class="small" x="80" y="127.55" text-anchor="end">20.0</text>
<line class="grid" x1="90" y1="85.00" x2="1150" y2="85.00" />
<text class="small" x="80" y="89.00" text-anchor="end">25.0</text>
<line class="grid" x1="90.00" y1="85.00" x2="90.00" y2="277.75" />
<line class="grid" x1="266.67" y1="85.00" x2="266.67" y2="277.75" />
<line class="grid" x1="443.33" y1="85.00" x2="443.33" y2="277.75" />
<line class="grid" x1="620.00" y1="85.00" x2="620.00" y2="277.75" />
<line class="grid" x1="796.67" y1="85.00" x2="796.67" y2="277.75" />
<line class="grid" x1="973.33" y1="85.00" x2="973.33" y2="277.75" />
<line class="grid" x1="1150.00" y1="85.00" x2="1150.00" y2="277.75" />
<line class="axis" x1="90" y1="85.00" x2="90" y2="277.75" />
<line class="axis" x1="90" y1="277.75" x2="1150" y2="277.75" />
<path class="series" d="M 178.33 269.42 L 179.81 265.26 L 181.28 272.48 L 182.75 266.37 L 184.22 266.37 L 185.69 263.59 L 187.17 263.04 L 188.64 253.88 L 190.11 247.77 L 191.58 245.00 L 193.06 239.72 L 194.53 215.58 L 196.00 206.42 L 197.47 206.97 L 198.94 166.17 L 200.42 165.34 L 201.89 165.62 L 203.36 174.50 L 204.83 180.88 L 206.31 184.21 L 207.78 184.49 L 209.25 194.20 L 210.72 194.20 L 212.19 223.07 L 213.67 240.83 L 215.14 240.83 L 216.61 226.12 L 218.08 217.52 L 219.56 217.52 L 221.03 225.29 L 222.50 230.84 L 223.97 225.01 L 225.44 214.47 L 226.92 230.84 L 228.39 226.12 L 229.86 206.14 L 231.33 208.64 L 232.81 227.23 L 234.28 248.61 L 235.75 251.94 L 237.22 242.22 L 238.69 239.72 L 240.17 277.75 L 241.64 277.75 L 243.11 277.75 L 244.58 277.75 L 246.06 277.75 L 247.53 277.75 L 249.00 277.75 L 250.47 277.75 L 251.94 277.75 L 253.42 277.75 L 254.89 277.75 L 256.36 277.75 L 257.83 277.75 L 259.31 277.75 L 260.78 255.27 L 262.25 258.32 L 263.72 258.04 L 265.19 256.10 L 266.67 256.10 L 268.14 259.99 L 269.61 252.49 L 271.08 253.32 L 272.56 256.10 L 274.03 258.32 L 275.50 258.32 L 276.97 260.26 L 278.44 262.21 L 279.92 261.37 L 281.39 259.15 L 282.86 257.49 L 284.33 259.99 L 285.81 259.43 L 287.28 267.20 L 288.75 268.31 L 290.22 267.20 L 291.69 266.65 L 293.17 270.53 L 294.64 271.64 L 296.11 277.75 L 297.58 277.75 L 299.06 277.75 L 300.53 277.75 L 302.00 277.75 L 303.47 277.75 L 304.94 277.75 L 306.42 277.75 L 307.89 277.75 L 309.36 277.75 L 312.31 277.75 L 313.78 277.75 L 315.25 277.75 L 315.25 277.75 L 316.72 277.75 L 318.19 277.75 L 319.67 277.75 L 321.14 277.75 L 322.61 268.31 L 327.03 268.31 L 327.03 268.31 L 328.50 255.27 L 329.97 252.21 L 331.44 257.21 L 332.92 244.17 L 334.39 265.81 L 335.86 253.88 L 338.81 259.15 L 338.81 259.15 L 340.28 267.76 L 341.75 267.20 L 343.22 268.87 L 344.69 260.82 L 347.64 265.54 L 349.11 265.54 L 350.58 265.54 L 350.58 265.54 L 352.06 277.75 L 353.53 277.75 L 355.00 277.75 L 356.47 277.75 L 357.94 277.75 L 362.36 277.75 L 362.36 277.75 L 363.83 254.99 L 365.31 255.27 L 366.78 255.27 L 368.25 255.55 L 371.19 255.55 L 371.19 255.55 L 374.14 255.55 L 374.14 255.55 L 375.61 254.43 L 377.08 255.27 L 378.56 271.37 L 381.50 261.10 L 381.50 261.10 L 382.97 264.70 L 384.44 261.10 L 385.92 269.42 L 387.39 269.98 L 388.86 271.92 L 390.33 271.92 L 393.28 277.75 L 394.75 277.75 L 396.22 277.75 L 396.22 277.75 L 397.69 277.75 L 399.17 277.75 L 400.64 277.75 L 402.11 277.75 L 406.53 277.75 L 406.53 277.75 L 408.00 277.75 L 409.47 277.75 L 410.94 277.75 L 412.42 277.75 L 413.89 277.75 L 415.36 277.75 L 416.83 277.75 L 418.31 277.75 L 419.78 277.75 L 421.25 277.75 L 422.72 277.75 L 424.19 277.75 L 425.67 277.75 L 427.14 277.75 L 428.61 277.75 L 430.08 277.75 L 431.56 277.75 L 433.03 277.75 L 434.50 277.75 L 435.97 277.75 L 437.44 277.75 L 438.92 277.75 L 443.33 277.75 L 443.33 277.75 L 444.81 277.75 L 446.28 277.75 L 447.75 277.75 L 449.22 277.75 L 450.69 277.75 L 452.17 277.75 L 453.64 277.75 L 455.11 277.75 L 456.58 277.75 L 458.06 277.75 L 459.53 277.75 L 461.00 277.75 L 462.47 277.75 L 463.94 277.75 L 465.42 277.75 L 466.89 277.75 L 468.36 277.75 L 469.83 277.75 L 471.31 277.75 L 472.78 277.75 L 474.25 277.75 L 475.72 277.75 L 477.19 277.75 L 478.67 277.75 L 480.14 277.75 L 481.61 277.75 L 483.08 277.75 L 484.56 277.75 L 486.03 277.75 L 487.50 277.75 L 488.97 277.75 L 490.44 277.75 L 491.92 277.75 L 493.39 277.75 L 494.86 277.75 L 496.33 277.75 L 497.81 277.75 L 499.28 277.75 L 500.75 277.75 L 502.22 277.75 L 503.69 277.75 L 505.17 277.75 L 506.64 277.75 L 508.11 277.75 L 509.58 277.75 L 511.06 277.75 L 512.53 277.75 L 514.00 277.75 L 515.47 277.75 L 516.94 277.75 L 518.42 277.75 L 519.89 277.75 L 521.36 277.75 L 522.83 277.75 L 524.31 277.75 L 525.78 277.75 L 527.25 277.75 L 528.72 277.75 L 530.19 277.75 L 531.67 277.75 L 533.14 277.75 L 534.61 277.75 L 536.08 277.75 L 537.56 277.75 L 539.03 277.75 L 540.50 277.75 L 541.97 277.75 L 543.44 277.75 L 544.92 277.75 L 546.39 277.75 L 547.86 277.75 L 549.33 277.75 L 550.81 277.75 L 552.28 277.75 L 553.75 277.75 L 555.22 277.75 L 556.69 277.75 L 558.17 277.75 L 559.64 277.75 L 561.11 277.75 L 562.58 277.75 L 564.06 277.75 L 565.53 277.75 L 567.00 277.75 L 568.47 277.75 L 569.94 277.75 L 571.42 277.75 L 572.89 277.75 L 574.36 277.75 L 575.83 277.75 L 577.31 277.75 L 580.25 277.75 L 580.25 277.75 L 581.72 277.75 L 583.19 277.75 L 584.67 277.75 L 586.14 277.75 L 587.61 277.75 L 589.08 277.75 L 590.56 277.75 L 592.03 277.75 L 593.50 277.75 L 594.97 277.75 L 596.44 277.75 L 597.92 277.75 L 599.39 277.75 L 600.86 277.75 L 602.33 277.75 L 603.81 277.75 L 605.28 277.75 L 606.75 277.75 L 608.22 277.75 L 609.69 277.75 L 611.17 277.75 L 612.64 277.75 L 614.11 277.75 L 615.58 277.75 L 617.06 277.75 L 618.53 277.75 L 620.00 277.75 L 621.47 277.75 L 622.94 277.75 L 624.42 277.75 L 625.89 277.75 L 627.36 277.75 L 628.83 277.75 L 630.31 277.75 L 631.78 277.75 L 633.25 277.75 L 634.72 277.75 L 636.19 277.75 L 637.67 277.75 L 639.14 277.75 L 640.61 277.75 L 642.08 277.75 L 643.56 277.75 L 645.03 277.75 L 646.50 277.75 L 647.97 277.75 L 649.44 277.75 L 650.92 277.75 L 652.39 277.75 L 653.86 277.75 L 655.33 277.75 L 656.81 277.75 L 658.28 277.75 L 659.75 277.75 L 661.22 277.75 L 662.69 277.75 L 664.17 277.75 L 665.64 277.75 L 667.11 277.75 L 668.58 277.75 L 670.06 277.75 L 671.53 277.75 L 673.00 277.75 L 674.47 277.75 L 675.94 277.75 L 677.42 277.75 L 678.89 277.75 L 680.36 277.75 L 681.83 277.75 L 683.31 277.75 L 684.78 277.75 L 686.25 277.75 L 687.72 277.75 L 689.19 277.75 L 690.67 277.75 L 692.14 277.75 L 693.61 277.75 L 695.08 277.75 L 696.56 277.75 L 698.03 277.75 L 699.50 277.75 L 700.97 277.75 L 702.44 277.75 L 703.92 277.75 L 705.39 277.75 L 706.86 277.75 L 708.33 277.75 L 709.81 277.75 L 711.28 277.75 L 712.75 277.75 L 714.22 277.75 L 715.69 277.75 L 717.17 277.75 L 718.64 277.75 L 720.11 277.75 L 721.58 277.75 L 723.06 277.75 L 724.53 277.75 L 726.00 277.75 L 727.47 277.75 L 728.94 277.75 L 730.42 277.75 L 731.89 277.75 L 733.36 277.75 L 734.83 277.75 L 736.31 277.75 L 737.78 277.75 L 739.25 277.75 L 740.72 277.75 L 742.19 277.75 L 743.67 277.75 L 745.14 277.75 L 746.61 277.75 L 748.08 277.75 L 749.56 277.75 L 751.03 277.75 L 752.50 277.75 L 753.97 277.75 L 755.44 277.75 L 756.92 277.75 L 758.39 277.75 L 759.86 277.75 L 761.33 277.75 L 762.81 277.75 L 764.28 277.75 L 765.75 277.75 L 767.22 277.75 L 768.69 277.75" stroke="#1976D2" />
<text x="90" y="289.75" font-size="14" font-weight="700">Inclinação (graus)</text>
<rect class="event" x="443.33" y="295.75" width="60.36" height="192.75" />
<line class="eventline" x1="443.33" y1="295.75" x2="443.33" y2="488.50" />
<line class="eventline" x1="503.69" y1="295.75" x2="503.69" y2="488.50" />
<line class="grid" x1="90" y1="488.50" x2="1150" y2="488.50" />
<text class="small" x="80" y="492.50" text-anchor="end">-20.0</text>
<line class="grid" x1="90" y1="449.95" x2="1150" y2="449.95" />
<text class="small" x="80" y="453.95" text-anchor="end">-10.0</text>
<line class="grid" x1="90" y1="411.40" x2="1150" y2="411.40" />
<text class="small" x="80" y="415.40" text-anchor="end">0.00</text>
<line class="grid" x1="90" y1="372.85" x2="1150" y2="372.85" />
<text class="small" x="80" y="376.85" text-anchor="end">10.0</text>
<line class="grid" x1="90" y1="334.30" x2="1150" y2="334.30" />
<text class="small" x="80" y="338.30" text-anchor="end">20.0</text>
<line class="grid" x1="90" y1="295.75" x2="1150" y2="295.75" />
<text class="small" x="80" y="299.75" text-anchor="end">30.0</text>
<line class="grid" x1="90.00" y1="295.75" x2="90.00" y2="488.50" />
<line class="grid" x1="266.67" y1="295.75" x2="266.67" y2="488.50" />
<line class="grid" x1="443.33" y1="295.75" x2="443.33" y2="488.50" />
<line class="grid" x1="620.00" y1="295.75" x2="620.00" y2="488.50" />
<line class="grid" x1="796.67" y1="295.75" x2="796.67" y2="488.50" />
<line class="grid" x1="973.33" y1="295.75" x2="973.33" y2="488.50" />
<line class="grid" x1="1150.00" y1="295.75" x2="1150.00" y2="488.50" />
<line class="axis" x1="90" y1="295.75" x2="90" y2="488.50" />
<line class="axis" x1="90" y1="488.50" x2="1150" y2="488.50" />
<path class="series" d="M 178.33 387.71 L 179.81 391.45 L 181.28 387.83 L 182.75 386.76 L 184.22 390.48 L 185.69 387.25 L 187.17 391.60 L 188.64 386.39 L 190.11 380.78 L 191.58 368.26 L 193.06 362.55 L 194.53 360.31 L 196.00 368.79 L 197.47 385.24 L 198.94 386.38 L 200.42 369.91 L 201.89 375.47 L 203.36 367.31 L 204.83 365.92 L 206.31 354.57 L 207.78 360.03 L 209.25 355.21 L 210.72 359.21 L 212.19 345.79 L 213.67 359.27 L 215.14 340.13 L 216.61 342.45 L 218.08 335.02 L 219.56 332.73 L 221.03 329.79 L 222.50 339.82 L 223.97 353.07 L 225.44 353.35 L 226.92 348.46 L 228.39 372.51 L 229.86 363.29 L 231.33 374.52 L 232.81 360.77 L 234.28 364.85 L 235.75 367.75 L 237.22 354.72 L 238.69 347.89 L 240.17 360.17 L 241.64 366.52 L 243.11 356.23 L 244.58 367.98 L 246.06 362.86 L 247.53 372.49 L 249.00 368.07 L 250.47 366.46 L 251.94 371.24 L 253.42 377.51 L 254.89 377.63 L 256.36 382.44 L 257.83 387.22 L 259.31 390.08 L 260.78 391.70 L 262.25 392.97 L 263.72 390.33 L 265.19 389.82 L 266.67 390.24 L 268.14 391.48 L 269.61 390.44 L 271.08 386.36 L 272.56 390.15 L 274.03 388.61 L 275.50 388.40 L 276.97 388.90 L 278.44 393.82 L 279.92 393.03 L 281.39 394.78 L 282.86 398.01 L 284.33 391.04 L 285.81 400.26 L 287.28 397.10 L 288.75 395.54 L 290.22 394.40 L 291.69 399.05 L 293.17 396.42 L 294.64 402.11 L 296.11 402.11 L 297.58 394.13 L 299.06 396.31 L 300.53 395.43 L 302.00 395.64 L 303.47 395.47 L 304.94 395.50 L 306.42 395.56 L 307.89 395.61 L 309.36 395.59 L 312.31 395.57 L 313.78 395.62 L 315.25 395.62 L 315.25 395.62 L 316.72 395.57 L 318.19 395.28 L 319.67 396.16 L 321.14 395.37 L 322.61 386.08 L 327.03 387.75 L 327.03 387.75 L 328.50 387.75 L 329.97 393.09 L 331.44 389.71 L 332.92 387.67 L 334.39 393.58 L 335.86 393.58 L 338.81 388.78 L 338.81 382.62 L 340.28 388.31 L 341.75 389.70 L 343.22 389.53 L 344.69 392.91 L 347.64 387.16 L 349.11 387.16 L 350.58 387.16 L 350.58 386.61 L 352.06 386.99 L 353.53 386.88 L 355.00 386.87 L 356.47 386.82 L 357.94 385.22 L 362.36 383.81 L 362.36 383.81 L 363.83 381.25 L 365.31 387.88 L 366.78 391.94 L 368.25 397.52 L 371.19 397.52 L 371.19 394.43 L 374.14 394.43 L 374.14 394.43 L 375.61 400.25 L 377.08 411.15 L 378.56 405.30 L 381.50 408.63 L 381.50 408.63 L 382.97 407.21 L 384.44 404.85 L 385.92 404.41 L 387.39 409.85 L 388.86 405.47 L 390.33 404.17 L 393.28 404.28 L 394.75 404.28 L 396.22 401.64 L 396.22 401.64 L 397.69 403.72 L 399.17 403.75 L 400.64 403.76 L 402.11 403.71 L 406.53 403.73 L 406.53 403.73 L 408.00 403.64 L 409.47 403.64 L 410.94 403.74 L 412.42 403.79 L 413.89 403.81 L 415.36 403.75 L 416.83 403.81 L 418.31 403.78 L 419.78 403.81 L 421.25 403.81 L 422.72 403.72 L 424.19 403.81 L 425.67 403.73 L 427.14 403.75 L 428.61 403.75 L 430.08 403.74 L 431.56 403.78 L 433.03 403.78 L 434.50 403.80 L 435.97 403.74 L 437.44 403.74 L 438.92 403.79 L 443.33 403.80 L 443.33 403.80 L 444.81 403.68 L 446.28 403.80 L 447.75 403.79 L 449.22 403.78 L 450.69 403.79 L 452.17 403.77 L 453.64 403.79 L 455.11 403.73 L 456.58 403.78 L 458.06 403.75 L 459.53 403.76 L 461.00 403.75 L 462.47 403.74 L 463.94 403.73 L 465.42 403.79 L 466.89 403.79 L 468.36 403.76 L 469.83 403.73 L 471.31 403.77 L 472.78 403.76 L 474.25 403.76 L 475.72 403.78 L 477.19 403.78 L 478.67 403.76 L 480.14 403.76 L 481.61 403.77 L 483.08 403.77 L 484.56 403.73 L 486.03 403.85 L 487.50 403.78 L 488.97 403.78 L 490.44 403.78 L 491.92 403.78 L 493.39 403.77 L 494.86 403.80 L 496.33 403.78 L 497.81 403.79 L 499.28 403.79 L 500.75 403.76 L 502.22 403.78 L 503.69 403.92 L 505.17 403.57 L 506.64 403.98 L 508.11 405.59 L 509.58 404.09 L 511.06 404.68 L 512.53 404.54 L 514.00 404.59 L 515.47 404.61 L 516.94 404.56 L 518.42 404.59 L 519.89 404.65 L 521.36 404.59 L 522.83 404.56 L 524.31 404.56 L 525.78 404.57 L 527.25 404.56 L 528.72 404.54 L 530.19 404.51 L 531.67 404.57 L 533.14 404.54 L 534.61 404.55 L 536.08 404.53 L 537.56 404.59 L 539.03 404.60 L 540.50 404.61 L 541.97 404.50 L 543.44 404.63 L 544.92 404.51 L 546.39 404.61 L 547.86 404.57 L 549.33 404.63 L 550.81 404.90 L 552.28 404.04 L 553.75 404.56 L 555.22 404.62 L 556.69 404.43 L 558.17 404.43 L 559.64 404.44 L 561.11 404.46 L 562.58 404.42 L 564.06 404.44 L 565.53 404.41 L 567.00 404.40 L 568.47 404.40 L 569.94 404.41 L 571.42 404.42 L 572.89 404.37 L 574.36 404.42 L 575.83 404.37 L 577.31 404.40 L 580.25 404.42 L 580.25 404.42 L 581.72 404.38 L 583.19 404.42 L 584.67 404.38 L 586.14 404.47 L 587.61 404.43 L 589.08 404.47 L 590.56 404.43 L 592.03 404.47 L 593.50 404.46 L 594.97 404.49 L 596.44 404.42 L 597.92 404.45 L 599.39 404.51 L 600.86 404.35 L 602.33 404.27 L 603.81 404.27 L 605.28 403.81 L 606.75 404.14 L 608.22 404.15 L 609.69 404.13 L 611.17 404.04 L 612.64 404.22 L 614.11 404.22 L 615.58 404.09 L 617.06 404.09 L 618.53 404.08 L 620.00 404.10 L 621.47 404.11 L 622.94 404.08 L 624.42 404.16 L 625.89 404.07 L 627.36 404.12 L 628.83 404.11 L 630.31 404.10 L 631.78 404.09 L 633.25 404.13 L 634.72 404.15 L 636.19 404.10 L 637.67 404.10 L 639.14 404.08 L 640.61 404.07 L 642.08 404.15 L 643.56 403.99 L 645.03 404.41 L 646.50 403.37 L 647.97 403.92 L 649.44 403.85 L 650.92 403.80 L 652.39 403.80 L 653.86 403.80 L 655.33 403.83 L 656.81 403.78 L 658.28 403.79 L 659.75 403.85 L 661.22 403.84 L 662.69 403.77 L 664.17 403.84 L 665.64 403.81 L 667.11 403.84 L 668.58 403.82 L 670.06 403.84 L 671.53 403.81 L 673.00 403.81 L 674.47 403.84 L 675.94 403.79 L 677.42 403.82 L 678.89 403.80 L 680.36 403.77 L 681.83 403.77 L 683.31 403.78 L 684.78 403.79 L 686.25 403.77 L 687.72 404.10 L 689.19 400.61 L 690.67 405.06 L 692.14 402.85 L 693.61 403.26 L 695.08 403.26 L 696.56 402.60 L 698.03 405.98 L 699.50 402.15 L 700.97 403.25 L 702.44 403.52 L 703.92 403.73 L 705.39 403.67 L 706.86 403.62 L 708.33 403.66 L 709.81 403.61 L 711.28 403.69 L 712.75 403.63 L 714.22 403.67 L 715.69 403.63 L 717.17 403.68 L 718.64 403.68 L 720.11 403.64 L 721.58 403.63 L 723.06 403.73 L 724.53 403.66 L 726.00 403.65 L 727.47 403.65 L 728.94 403.65 L 730.42 403.67 L 731.89 403.66 L 733.36 403.68 L 734.83 403.66 L 736.31 403.68 L 737.78 403.63 L 739.25 403.69 L 740.72 403.64 L 742.19 403.64 L 743.67 403.61 L 745.14 403.64 L 746.61 403.62 L 748.08 403.67 L 749.56 403.56 L 751.03 403.67 L 752.50 403.65 L 753.97 403.65 L 755.44 403.63 L 756.92 403.62 L 758.39 403.62 L 759.86 403.63 L 761.33 403.67 L 762.81 403.55 L 764.28 403.61 L 765.75 403.60 L 767.22 403.67 L 768.69 403.59" stroke="#2E7D32" />
<path class="series" d="M 178.33 415.30 L 179.81 412.76 L 181.28 412.39 L 182.75 415.48 L 184.22 416.69 L 185.69 417.69 L 187.17 419.98 L 188.64 420.49 L 190.11 423.43 L 191.58 423.55 L 193.06 418.69 L 194.53 417.87 L 196.00 415.69 L 197.47 398.02 L 198.94 409.55 L 200.42 416.66 L 201.89 414.39 L 203.36 413.67 L 204.83 409.72 L 206.31 404.29 L 207.78 405.40 L 209.25 401.78 L 210.72 411.81 L 212.19 430.32 L 213.67 416.88 L 215.14 435.07 L 216.61 417.32 L 218.08 408.18 L 219.56 412.47 L 221.03 414.69 L 222.50 414.15 L 223.97 432.15 L 225.44 440.86 L 226.92 442.55 L 228.39 437.48 L 229.86 443.25 L 231.33 436.49 L 232.81 425.71 L 234.28 418.22 L 235.75 419.13 L 237.22 410.99 L 238.69 408.42 L 240.17 415.02 L 241.64 416.65 L 243.11 415.75 L 244.58 413.78 L 246.06 410.75 L 247.53 414.30 L 249.00 410.81 L 250.47 411.90 L 251.94 413.55 L 253.42 421.03 L 254.89 418.09 L 256.36 417.51 L 257.83 414.08 L 259.31 419.58 L 260.78 424.92 L 262.25 427.30 L 263.72 424.54 L 265.19 426.76 L 266.67 422.77 L 268.14 424.80 L 269.61 424.22 L 271.08 429.49 L 272.56 431.33 L 274.03 427.40 L 275.50 428.21 L 276.97 430.20 L 278.44 431.00 L 279.92 431.23 L 281.39 425.24 L 282.86 429.24 L 284.33 427.40 L 285.81 429.72 L 287.28 430.47 L 288.75 424.86 L 290.22 423.58 L 291.69 426.02 L 293.17 425.26 L 294.64 422.66 L 296.11 422.66 L 297.58 423.43 L 299.06 424.10 L 300.53 424.53 L 302.00 424.50 L 303.47 424.43 L 304.94 424.18 L 306.42 424.30 L 307.89 424.26 L 309.36 424.24 L 312.31 424.23 L 313.78 424.23 L 315.25 424.23 L 315.25 424.23 L 316.72 424.20 L 318.19 423.96 L 319.67 424.72 L 321.14 424.45 L 322.61 421.17 L 327.03 421.09 L 327.03 421.09 L 328.50 421.09 L 329.97 418.61 L 331.44 415.68 L 332.92 415.02 L 334.39 419.60 L 335.86 419.60 L 338.81 422.44 L 338.81 419.93 L 340.28 415.62 L 341.75 414.32 L 343.22 414.36 L 344.69 414.11 L 347.64 416.52 L 349.11 416.52 L 350.58 416.52 L 350.58 415.87 L 352.06 415.11 L 353.53 415.27 L 355.00 415.08 L 356.47 415.31 L 357.94 415.10 L 362.36 417.48 L 362.36 417.48 L 363.83 411.55 L 365.31 410.16 L 366.78 413.80 L 368.25 409.46 L 371.19 409.46 L 371.19 409.31 L 374.14 409.31 L 374.14 409.31 L 375.61 411.16 L 377.08 419.65 L 378.56 409.09 L 381.50 419.10 L 381.50 419.10 L 382.97 415.01 L 384.44 414.84 L 385.92 417.03 L 387.39 419.63 L 388.86 419.04 L 390.33 416.73 L 393.28 416.07 L 394.75 416.07 L 396.22 416.94 L 396.22 416.94 L 397.69 416.72 L 399.17 416.53 L 400.64 416.80 L 402.11 416.65 L 406.53 416.67 L 406.53 416.67 L 408.00 417.00 L 409.47 417.00 L 410.94 416.70 L 412.42 416.76 L 413.89 416.83 L 415.36 416.78 L 416.83 416.83 L 418.31 416.75 L 419.78 416.80 L 421.25 416.84 L 422.72 416.78 L 424.19 416.78 L 425.67 416.82 L 427.14 416.79 L 428.61 416.79 L 430.08 416.81 L 431.56 416.96 L 433.03 416.80 L 434.50 416.92 L 435.97 416.80 L 437.44 416.80 L 438.92 416.87 L 443.33 416.88 L 443.33 416.88 L 444.81 417.27 L 446.28 416.88 L 447.75 416.92 L 449.22 416.92 L 450.69 416.83 L 452.17 416.84 L 453.64 416.94 L 455.11 416.91 L 456.58 416.90 L 458.06 416.85 L 459.53 416.90 L 461.00 416.90 L 462.47 416.85 L 463.94 416.89 L 465.42 416.90 L 466.89 416.90 L 468.36 416.96 L 469.83 416.87 L 471.31 416.95 L 472.78 416.89 L 474.25 416.98 L 475.72 416.93 L 477.19 416.90 L 478.67 416.97 L 480.14 416.97 L 481.61 416.91 L 483.08 416.90 L 484.56 416.88 L 486.03 416.98 L 487.50 416.89 L 488.97 416.98 L 490.44 416.98 L 491.92 416.95 L 493.39 416.93 L 494.86 416.89 L 496.33 416.98 L 497.81 416.99 L 499.28 416.92 L 500.75 416.93 L 502.22 416.95 L 503.69 416.79 L 505.17 417.39 L 506.64 417.33 L 508.11 415.97 L 509.58 416.66 L 511.06 417.70 L 512.53 416.61 L 514.00 416.63 L 515.47 417.21 L 516.94 416.77 L 518.42 416.92 L 519.89 416.98 L 521.36 416.76 L 522.83 417.08 L 524.31 416.91 L 525.78 416.85 L 527.25 416.97 L 528.72 416.83 L 530.19 416.91 L 531.67 416.89 L 533.14 416.84 L 534.61 416.99 L 536.08 416.89 L 537.56 416.91 L 539.03 416.91 L 540.50 416.93 L 541.97 416.92 L 543.44 416.90 L 544.92 416.87 L 546.39 417.00 L 547.86 416.94 L 549.33 416.94 L 550.81 416.70 L 552.28 418.17 L 553.75 416.76 L 555.22 417.34 L 556.69 417.54 L 558.17 417.45 L 559.64 417.42 L 561.11 417.45 L 562.58 417.34 L 564.06 417.41 L 565.53 417.46 L 567.00 417.41 L 568.47 417.41 L 569.94 417.38 L 571.42 417.35 L 572.89 417.38 L 574.36 417.47 L 575.83 417.41 L 577.31 417.39 L 580.25 417.42 L 580.25 417.42 L 581.72 417.40 L 583.19 417.40 L 584.67 417.42 L 586.14 417.39 L 587.61 417.44 L 589.08 417.43 L 590.56 417.46 L 592.03 417.41 L 593.50 417.39 L 594.97 417.47 L 596.44 417.45 L 597.92 417.44 L 599.39 417.48 L 600.86 417.81 L 602.33 417.39 L 603.81 417.39 L 605.28 417.59 L 606.75 417.35 L 608.22 417.74 L 609.69 417.66 L 611.17 417.51 L 612.64 417.74 L 614.11 417.74 L 615.58 417.55 L 617.06 417.55 L 618.53 417.58 L 620.00 417.69 L 621.47 417.66 L 622.94 417.56 L 624.42 417.63 L 625.89 417.59 L 627.36 417.61 L 628.83 417.63 L 630.31 417.63 L 631.78 417.60 L 633.25 417.62 L 634.72 417.66 L 636.19 417.61 L 637.67 417.61 L 639.14 417.65 L 640.61 417.65 L 642.08 417.63 L 643.56 417.61 L 645.03 417.62 L 646.50 417.27 L 647.97 417.67 L 649.44 417.44 L 650.92 417.01 L 652.39 417.01 L 653.86 417.53 L 655.33 417.58 L 656.81 417.50 L 658.28 417.33 L 659.75 417.40 L 661.22 417.48 L 662.69 417.47 L 664.17 417.36 L 665.64 417.41 L 667.11 417.49 L 668.58 417.41 L 670.06 417.40 L 671.53 417.37 L 673.00 417.37 L 674.47 417.49 L 675.94 417.44 L 677.42 417.36 L 678.89 417.48 L 680.36 417.39 L 681.83 417.39 L 683.31 417.36 L 684.78 417.40 L 686.25 417.40 L 687.72 417.63 L 689.19 417.70 L 690.67 417.13 L 692.14 417.28 L 693.61 417.53 L 695.08 417.03 L 696.56 416.99 L 698.03 418.15 L 699.50 417.55 L 700.97 417.83 L 702.44 417.66 L 703.92 417.68 L 705.39 417.66 L 706.86 417.52 L 708.33 417.83 L 709.81 417.68 L 711.28 417.70 L 712.75 417.62 L 714.22 417.73 L 715.69 417.68 L 717.17 417.76 L 718.64 417.76 L 720.11 417.71 L 721.58 417.70 L 723.06 417.71 L 724.53 417.70 L 726.00 417.72 L 727.47 417.69 L 728.94 417.74 L 730.42 417.67 L 731.89 417.79 L 733.36 417.73 L 734.83 417.69 L 736.31 417.74 L 737.78 417.70 L 739.25 417.71 L 740.72 417.71 L 742.19 417.73 L 743.67 417.71 L 745.14 417.68 L 746.61 417.67 L 748.08 417.72 L 749.56 417.70 L 751.03 417.68 L 752.50 417.67 L 753.97 417.79 L 755.44 417.69 L 756.92 417.68 L 758.39 417.68 L 759.86 417.66 L 761.33 417.69 L 762.81 417.69 L 764.28 417.70 L 765.75 417.66 L 767.22 417.68 L 768.69 417.70" stroke="#6A1B9A" />
<line x1="900.00" y1="307.75" x2="918.00" y2="307.75" stroke="#2E7D32" stroke-width="3" />
<text class="small" x="924.00" y="311.75">pitch</text>
<line x1="900.00" y1="323.75" x2="918.00" y2="323.75" stroke="#6A1B9A" stroke-width="3" />
<text class="small" x="924.00" y="327.75">roll</text>
<text x="90" y="500.50" font-size="14" font-weight="700">Aceleração (magnitude) (u.a.)</text>
<rect class="event" x="443.33" y="506.50" width="60.36" height="192.75" />
<line class="eventline" x1="443.33" y1="506.50" x2="443.33" y2="699.25" />
<line class="eventline" x1="503.69" y1="506.50" x2="503.69" y2="699.25" />
<line class="grid" x1="90" y1="699.25" x2="1150" y2="699.25" />
<text class="small" x="80" y="703.25" text-anchor="end">0.00</text>
<line class="grid" x1="90" y1="660.70" x2="1150" y2="660.70" />
<text class="small" x="80" y="664.70" text-anchor="end">0.50</text>
<line class="grid" x1="90" y1="622.15" x2="1150" y2="622.15" />
<text class="small" x="80" y="626.15" text-anchor="end">1.00</text>
<line class="grid" x1="90" y1="583.60" x2="1150" y2="583.60" />
<text class="small" x="80" y="587.60" text-anchor="end">1.50</text>
<line class="grid" x1="90" y1="545.05" x2="1150" y2="545.05" />
<text class="small" x="80" y="549.05" text-anchor="end">2.00</text>
<line class="grid" x1="90" y1="506.50" x2="1150" y2="506.50" />
<text class="small" x="80" y="510.50" text-anchor="end">2.50</text>
<line class="grid" x1="90.00" y1="506.50" x2="90.00" y2="699.25" />
<line class="grid" x1="266.67" y1="506.50" x2="266.67" y2="699.25" />
<line class="grid" x1="443.33" y1="506.50" x2="443.33" y2="699.25" />
<line class="grid" x1="620.00" y1="506.50" x2="620.00" y2="699.25" />
<line class="grid" x1="796.67" y1="506.50" x2="796.67" y2="699.25" />
<line class="grid" x1="973.33" y1="506.50" x2="973.33" y2="699.25" />
<line class="grid" x1="1150.00" y1="506.50" x2="1150.00" y2="699.25" />
<line class="axis" x1="90" y1="506.50" x2="90" y2="699.25" />
<line class="axis" x1="90" y1="699.25" x2="1150" y2="699.25" />
<path class="series" d="M 178.33 689.87 L 179.81 694.98 L 181.28 688.63 L 182.75 688.63 L 184.22 689.77 L 185.69 690.18 L 187.17 694.85 L 188.64 674.61 L 190.11 696.90 L 191.58 696.07 L 193.06 671.48 L 194.53 650.97 L 196.00 659.39 L 197.47 687.00 L 198.94 662.65 L 200.42 669.01 L 201.89 675.48 L 203.36 653.79 L 204.83 658.29 L 206.31 675.72 L 207.78 677.99 L 209.25 676.65 L 210.72 654.28 L 212.19 670.10 L 213.67 654.72 L 215.14 671.09 L 216.61 662.27 L 218.08 680.91 L 219.56 673.33 L 221.03 687.79 L 222.50 673.92 L 223.97 665.14 L 225.44 664.32 L 226.92 652.83 L 228.39 668.15 L 229.86 653.44 L 231.33 674.56 L 232.81 665.33 L 234.28 630.89 L 235.75 675.43 L 237.22 670.45 L 238.69 619.30 L 240.17 653.17 L 241.64 660.62 L 243.11 676.32 L 244.58 659.91 L 246.06 691.15 L 247.53 677.74 L 249.00 687.76 L 250.47 688.10 L 251.94 682.60 L 253.42 686.20 L 254.89 691.42 L 256.36 693.77 L 257.83 694.59 L 259.31 694.77 L 260.78 694.76 L 262.25 692.18 L 263.72 690.38 L 265.19 692.41 L 266.67 695.68 L 268.14 691.54 L 269.61 690.55 L 271.08 691.01 L 272.56 685.14 L 274.03 691.86 L 275.50 686.19 L 276.97 693.04 L 278.44 694.21 L 279.92 697.21 L 281.39 696.43 L 282.86 685.72 L 284.33 688.17 L 285.81 688.57 L 287.28 695.43 L 288.75 690.89 L 290.22 694.79 L 291.69 693.11 L 293.17 691.79 L 294.64 688.83 L 296.11 694.61 L 297.58 695.61 L 299.06 698.02 L 300.53 698.77 L 302.00 698.25 L 303.47 699.02 L 304.94 698.85 L 306.42 699.12 L 307.89 699.17 L 309.36 699.15 L 312.31 699.10 L 313.78 699.10 L 315.25 699.10 L 315.25 699.10 L 316.72 699.23 L 318.19 699.14 L 319.67 697.87 L 321.14 698.67 L 322.61 668.39 L 327.03 683.31 L 327.03 683.31 L 328.50 690.78 L 329.97 690.60 L 331.44 690.98 L 332.92 682.93 L 334.39 682.36 L 335.86 693.75 L 338.81 692.76 L 338.81 692.76 L 340.28 686.55 L 341.75 693.07 L 343.22 690.57 L 344.69 693.88 L 347.64 697.11 L 349.11 697.11 L 350.58 695.01 L 350.58 695.01 L 352.06 698.68 L 353.53 698.83 L 355.00 698.89 L 356.47 698.66 L 357.94 697.48 L 362.36 667.78 L 362.36 667.78 L 363.83 695.07 L 365.31 693.50 L 366.78 677.71 L 368.25 693.06 L 371.19 672.38 L 371.19 672.38 L 374.14 686.93 L 374.14 686.93 L 375.61 696.98 L 377.08 675.75 L 378.56 685.56 L 381.50 684.95 L 381.50 684.95 L 382.97 696.64 L 384.44 697.61 L 385.92 690.61 L 387.39 680.98 L 388.86 692.57 L 390.33 695.85 L 393.28 697.04 L 394.75 697.04 L 396.22 698.70 L 396.22 698.70 L 397.69 698.97 L 399.17 698.76 L 400.64 698.73 L 402.11 699.06 L 406.53 699.02 L 406.53 699.02 L 408.00 699.10 L 409.47 699.10 L 410.94 699.10 L 412.42 699.14 L 413.89 699.08 L 415.36 699.15 L 416.83 698.90 L 418.31 699.13 L 419.78 699.14 L 421.25 699.01 L 422.72 699.15 L 424.19 699.15 L 425.67 699.11 L 427.14 699.04 L 428.61 699.04 L 430.08 699.12 L 431.56 698.97 L 433.03 698.93 L 434.50 698.93 L 435.97 699.05 L 437.44 699.19 L 438.92 699.13 L 443.33 699.05 L 443.33 699.05 L 444.81 699.10 L 446.28 699.09 L 447.75 699.16 L 449.22 698.97 L 450.69 699.11 L 452.17 698.86 L 453.64 699.10 L 455.11 699.18 L 456.58 698.99 L 458.06 699.15 L 459.53 699.04 L 461.00 699.13 L 462.47 699.09 L 463.94 699.12 L 465.42 699.22 L 466.89 699.22 L 468.36 699.13 L 469.83 699.07 L 471.31 699.13 L 472.78 699.03 L 474.25 699.02 L 475.72 699.14 L 477.19 699.15 L 478.67 699.08 L 480.14 699.08 L 481.61 699.05 L 483.08 699.16 L 484.56 698.88 L 486.03 699.01 L 487.50 699.12 L 488.97 699.12 L 490.44 699.19 L 491.92 699.20 L 493.39 699.09 L 494.86 699.10 L 496.33 699.17 L 497.81 698.98 L 499.28 698.97 L 500.75 699.09 L 502.22 699.19 L 503.69 698.56 L 505.17 693.67 L 506.64 694.07 L 508.11 693.44 L 509.58 695.64 L 511.06 697.49 L 512.53 698.97 L 514.00 698.06 L 515.47 698.28 L 516.94 698.69 L 518.42 699.10 L 519.89 698.73 L 521.36 698.65 L 522.83 699.15 L 524.31 699.14 L 525.78 699.10 L 527.25 698.99 L 528.72 698.88 L 530.19 699.11 L 531.67 699.03 L 533.14 699.15 L 534.61 699.04 L 536.08 698.88 L 537.56 698.99 L 539.03 699.13 L 540.50 699.07 L 541.97 699.07 L 543.44 699.04 L 544.92 698.95 L 546.39 699.12 L 547.86 699.06 L 549.33 698.85 L 550.81 697.68 L 552.28 694.98 L 553.75 696.30 L 555.22 698.87 L 556.69 698.95 L 558.17 698.67 L 559.64 698.88 L 561.11 698.88 L 562.58 698.92 L 564.06 699.06 L 565.53 699.09 L 567.00 699.09 L 568.47 698.85 L 569.94 698.85 L 571.42 699.17 L 572.89 699.06 L 574.36 699.08 L 575.83 699.13 L 577.31 698.93 L 580.25 699.08 L 580.25 699.08 L 581.72 699.05 L 583.19 698.99 L 584.67 699.06 L 586.14 699.05 L 587.61 699.05 L 589.08 698.99 L 590.56 699.09 L 592.03 699.17 L 593.50 699.18 L 594.97 699.05 L 596.44 699.07 L 597.92 699.02 L 599.39 698.77 L 600.86 698.31 L 602.33 698.28 L 603.81 698.87 L 605.28 699.01 L 606.75 698.79 L 608.22 698.88 L 609.69 699.08 L 611.17 699.00 L 612.64 699.00 L 614.11 699.05 L 615.58 699.15 L 617.06 699.15 L 618.53 699.16 L 620.00 698.96 L 621.47 699.12 L 622.94 699.16 L 624.42 698.82 L 625.89 699.11 L 627.36 699.18 L 628.83 699.14 L 630.31 698.96 L 631.78 699.01 L 633.25 699.07 L 634.72 699.13 L 636.19 699.02 L 637.67 699.02 L 639.14 699.18 L 640.61 699.12 L 642.08 698.64 L 643.56 697.98 L 645.03 698.19 L 646.50 693.35 L 647.97 698.17 L 649.44 698.17 L 650.92 698.59 L 652.39 697.83 L 653.86 698.71 L 655.33 698.78 L 656.81 699.11 L 658.28 698.93 L 659.75 699.11 L 661.22 699.07 L 662.69 699.15 L 664.17 698.97 L 665.64 699.07 L 667.11 699.08 L 668.58 699.15 L 670.06 699.19 L 671.53 699.06 L 673.00 699.06 L 674.47 699.01 L 675.94 699.16 L 677.42 699.11 L 678.89 698.99 L 680.36 699.15 L 681.83 699.12 L 683.31 698.99 L 684.78 699.03 L 686.25 699.08 L 687.72 696.82 L 689.19 688.54 L 690.67 691.16 L 692.14 694.07 L 693.61 697.53 L 695.08 697.74 L 696.56 696.22 L 698.03 688.14 L 699.50 692.88 L 700.97 697.55 L 702.44 699.04 L 703.92 698.26 L 705.39 698.96 L 706.86 698.70 L 708.33 698.84 L 709.81 698.84 L 711.28 699.14 L 712.75 699.01 L 714.22 699.11 L 715.69 699.04 L 717.17 699.06 L 718.64 699.15 L 720.11 699.08 L 721.58 699.08 L 723.06 699.08 L 724.53 699.09 L 726.00 698.99 L 727.47 699.12 L 728.94 699.02 L 730.42 699.20 L 731.89 699.18 L 733.36 699.09 L 734.83 699.15 L 736.31 699.07 L 737.78 699.16 L 739.25 699.10 L 740.72 699.03 L 742.19 699.06 L 743.67 699.17 L 745.14 699.11 L 746.61 699.04 L 748.08 699.13 L 749.56 699.08 L 751.03 699.15 L 752.50 699.16 L 753.97 699.15 L 755.44 699.15 L 756.92 699.16 L 758.39 699.06 L 759.86 699.06 L 761.33 699.13 L 762.81 699.19 L 764.28 699.04 L 765.75 699.07 L 767.22 699.19 L 768.69 699.04" stroke="#FB8C00" />
<text x="90" y="711.25" font-size="14" font-weight="700">Giroscópio (magnitude) (u.a.)</text>
<rect class="event" x="443.33" y="717.25" width="60.36" height="192.75" />
<line class="eventline" x1="443.33" y1="717.25" x2="443.33" y2="910.00" />
<line class="eventline" x1="503.69" y1="717.25" x2="503.69" y2="910.00" />
<line class="grid" x1="90" y1="910.00" x2="1150" y2="910.00" />
<text class="small" x="80" y="914.00" text-anchor="end">0.00</text>
<line class="grid" x1="90" y1="871.45" x2="1150" y2="871.45" />
<text class="small" x="80" y="875.45" text-anchor="end">0.05</text>
<line class="grid" x1="90" y1="832.90" x2="1150" y2="832.90" />
<text class="small" x="80" y="836.90" text-anchor="end">0.10</text>
<line class="grid" x1="90" y1="794.35" x2="1150" y2="794.35" />
<text class="small" x="80" y="798.35" text-anchor="end">0.15</text>
<line class="grid" x1="90" y1="755.80" x2="1150" y2="755.80" />
<text class="small" x="80" y="759.80" text-anchor="end">0.20</text>
<line class="grid" x1="90" y1="717.25" x2="1150" y2="717.25" />
<text class="small" x="80" y="721.25" text-anchor="end">0.25</text>
<line class="grid" x1="90.00" y1="717.25" x2="90.00" y2="910.00" />
<line class="grid" x1="266.67" y1="717.25" x2="266.67" y2="910.00" />
<line class="grid" x1="443.33" y1="717.25" x2="443.33" y2="910.00" />
<line class="grid" x1="620.00" y1="717.25" x2="620.00" y2="910.00" />
<line class="grid" x1="796.67" y1="717.25" x2="796.67" y2="910.00" />
<line class="grid" x1="973.33" y1="717.25" x2="973.33" y2="910.00" />
<line class="grid" x1="1150.00" y1="717.25" x2="1150.00" y2="910.00" />
<line class="axis" x1="90" y1="717.25" x2="90" y2="910.00" />
<line class="axis" x1="90" y1="910.00" x2="1150" y2="910.00" />
<path class="series" d="M 178.33 880.70 L 179.81 856.80 L 181.28 870.33 L 182.75 870.33 L 184.22 882.05 L 185.69 891.74 L 187.17 896.54 L 188.64 895.16 L 190.11 883.07 L 191.58 877.44 L 193.06 875.61 L 194.53 870.53 L 196.00 869.98 L 197.47 826.66 L 198.94 879.77 L 200.42 871.47 L 201.89 874.53 L 203.36 874.20 L 204.83 862.52 L 206.31 870.27 L 207.78 887.59 L 209.25 872.63 L 210.72 839.80 L 212.19 835.88 L 213.67 858.29 L 215.14 843.19 L 216.61 855.86 L 218.08 864.48 L 219.56 874.31 L 221.03 858.04 L 222.50 862.57 L 223.97 865.33 L 225.44 893.65 L 226.92 871.62 L 228.39 850.85 L 229.86 841.55 L 231.33 812.36 L 232.81 785.95 L 234.28 794.16 L 235.75 818.21 L 237.22 790.78 L 238.69 814.27 L 240.17 894.61 L 241.64 903.92 L 243.11 897.34 L 244.58 886.71 L 246.06 884.35 L 247.53 890.90 L 249.00 904.34 L 250.47 895.50 L 251.94 889.02 L 253.42 882.64 L 254.89 882.75 L 256.36 876.87 L 257.83 880.67 L 259.31 876.42 L 260.78 893.58 L 262.25 899.35 L 263.72 898.01 L 265.19 901.34 L 266.67 909.29 L 268.14 905.10 L 269.61 901.91 L 271.08 896.23 L 272.56 903.52 L 274.03 900.90 L 275.50 899.78 L 276.97 903.35 L 278.44 904.41 L 279.92 905.70 L 281.39 900.02 L 282.86 906.21 L 284.33 908.30 L 285.81 905.12 L 287.28 907.56 L 288.75 899.06 L 290.22 903.84 L 291.69 907.92 L 293.17 907.27 L 294.64 907.80 L 296.11 908.80 L 297.58 907.70 L 299.06 909.47 L 300.53 909.46 L 302.00 909.83 L 303.47 909.82 L 304.94 909.82 L 306.42 909.80 L 307.89 909.81 L 309.36 909.69 L 312.31 909.78 L 313.78 909.78 L 315.25 909.78 L 315.25 909.78 L 316.72 909.94 L 318.19 909.89 L 319.67 909.25 L 321.14 909.77 L 322.61 900.38 L 327.03 896.11 L 327.03 896.11 L 328.50 907.10 L 329.97 904.00 L 331.44 901.62 L 332.92 889.69 L 334.39 885.15 L 335.86 887.69 L 338.81 903.33 L 338.81 903.33 L 340.28 903.92 L 341.75 906.93 L 343.22 907.51 L 344.69 909.16 L 347.64 908.76 L 349.11 908.76 L 350.58 909.54 L 350.58 909.54 L 352.06 909.79 L 353.53 909.80 L 355.00 909.77 L 356.47 909.86 L 357.94 909.47 L 362.36 903.41 L 362.36 903.41 L 363.83 906.02 L 365.31 894.24 L 366.78 892.79 L 368.25 890.37 L 371.19 898.41 L 371.19 898.41 L 374.14 894.94 L 374.14 894.94 L 375.61 895.09 L 377.08 895.57 L 378.56 895.68 L 381.50 883.95 L 381.50 883.95 L 382.97 890.84 L 384.44 894.75 L 385.92 896.68 L 387.39 905.69 L 388.86 906.91 L 390.33 907.65 L 393.28 908.90 L 394.75 908.90 L 396.22 909.18 L 396.22 909.18 L 397.69 909.58 L 399.17 909.64 L 400.64 909.60 L 402.11 909.49 L 406.53 909.48 L 406.53 909.48 L 408.00 909.59 L 409.47 909.59 L 410.94 909.82 L 412.42 909.90 L 413.89 909.97 L 415.36 909.90 L 416.83 909.93 L 418.31 909.87 L 419.78 909.75 L 421.25 909.67 L 422.72 909.71 L 424.19 909.75 L 425.67 909.74 L 427.14 909.79 L 428.61 909.79 L 430.08 909.62 L 431.56 909.60 L 433.03 909.67 L 434.50 909.67 L 435.97 909.78 L 437.44 909.65 L 438.92 909.69 L 443.33 909.70 L 443.33 909.70 L 444.81 909.76 L 446.28 909.74 L 447.75 909.58 L 449.22 909.59 L 450.69 909.56 L 452.17 909.43 L 453.64 909.52 L 455.11 909.71 L 456.58 909.53 L 458.06 909.56 L 459.53 909.51 L 461.00 909.55 L 462.47 909.54 L 463.94 909.42 L 465.42 909.81 L 466.89 909.81 L 468.36 909.91 L 469.83 909.94 L 471.31 909.83 L 472.78 909.89 L 474.25 909.96 L 475.72 909.92 L 477.19 909.91 L 478.67 909.91 L 480.14 909.91 L 481.61 909.90 L 483.08 909.90 L 484.56 909.86 L 486.03 909.92 L 487.50 909.95 L 488.97 909.95 L 490.44 909.92 L 491.92 909.90 L 493.39 909.81 L 494.86 909.62 L 496.33 909.70 L 497.81 909.57 L 499.28 909.53 L 500.75 909.51 L 502.22 909.57 L 503.69 909.14 L 505.17 908.63 L 506.64 909.29 L 508.11 907.99 L 509.58 909.24 L 511.06 909.29 L 512.53 909.54 L 514.00 909.79 L 515.47 909.77 L 516.94 909.70 L 518.42 909.62 L 519.89 909.69 L 521.36 909.66 L 522.83 909.61 L 524.31 909.69 L 525.78 909.87 L 527.25 909.77 L 528.72 909.80 L 530.19 909.82 L 531.67 909.87 L 533.14 909.96 L 534.61 909.88 L 536.08 909.83 L 537.56 909.97 L 539.03 909.91 L 540.50 909.88 L 541.97 909.85 L 543.44 909.85 L 544.92 909.68 L 546.39 909.61 L 547.86 909.74 L 549.33 909.40 L 550.81 908.51 L 552.28 909.32 L 553.75 909.56 L 555.22 909.72 L 556.69 909.67 L 558.17 909.70 L 559.64 909.93 L 561.11 909.73 L 562.58 909.74 L 564.06 909.66 L 565.53 909.78 L 567.00 909.78 L 568.47 909.93 L 569.94 909.93 L 571.42 909.96 L 572.89 909.92 L 574.36 909.97 L 575.83 909.97 L 577.31 909.90 L 580.25 909.91 L 580.25 909.91 L 581.72 909.93 L 583.19 909.91 L 584.67 909.88 L 586.14 909.84 L 587.61 909.88 L 589.08 909.83 L 590.56 909.90 L 592.03 909.89 L 593.50 909.93 L 594.97 909.84 L 596.44 909.95 L 597.92 909.93 L 599.39 909.87 L 600.86 909.06 L 602.33 909.44 L 603.81 909.65 L 605.28 909.84 L 606.75 909.80 L 608.22 909.85 L 609.69 909.88 L 611.17 909.86 L 612.64 909.86 L 614.11 909.98 L 615.58 909.83 L 617.06 909.83 L 618.53 909.96 L 620.00 909.81 L 621.47 909.93 L 622.94 909.74 L 624.42 909.88 L 625.89 909.81 L 627.36 909.91 L 628.83 909.88 L 630.31 909.86 L 631.78 909.94 L 633.25 909.83 L 634.72 909.82 L 636.19 909.79 L 637.67 909.79 L 639.14 909.90 L 640.61 909.86 L 642.08 909.92 L 643.56 909.63 L 645.03 908.73 L 646.50 908.95 L 647.97 909.47 L 649.44 909.47 L 650.92 909.72 L 652.39 909.79 L 653.86 909.73 L 655.33 909.86 L 656.81 909.73 L 658.28 909.80 L 659.75 909.78 L 661.22 909.84 L 662.69 909.86 L 664.17 909.86 L 665.64 909.89 L 667.11 909.86 L 668.58 909.90 L 670.06 909.85 L 671.53 909.89 L 673.00 909.89 L 674.47 909.84 L 675.94 909.95 L 677.42 909.87 L 678.89 909.90 L 680.36 909.81 L 681.83 909.80 L 683.31 909.87 L 684.78 909.78 L 686.25 909.86 L 687.72 908.96 L 689.19 905.78 L 690.67 908.38 L 692.14 909.57 L 693.61 909.58 L 695.08 909.33 L 696.56 907.94 L 698.03 906.94 L 699.50 906.97 L 700.97 909.77 L 702.44 909.87 L 703.92 909.78 L 705.39 909.84 L 706.86 909.80 L 708.33 909.82 L 709.81 909.82 L 711.28 909.80 L 712.75 909.87 L 714.22 909.80 L 715.69 909.87 L 717.17 909.90 L 718.64 909.98 L 720.11 909.89 L 721.58 909.89 L 723.06 909.91 L 724.53 909.86 L 726.00 909.91 L 727.47 909.90 L 728.94 909.78 L 730.42 909.95 L 731.89 909.90 L 733.36 909.91 L 734.83 909.89 L 736.31 909.78 L 737.78 909.89 L 739.25 909.80 L 740.72 909.89 L 742.19 909.88 L 743.67 909.91 L 745.14 909.87 L 746.61 909.87 L 748.08 909.81 L 749.56 909.90 L 751.03 909.87 L 752.50 909.79 L 753.97 909.78 L 755.44 909.86 L 756.92 909.81 L 758.39 909.85 L 759.86 909.81 L 761.33 909.81 L 762.81 909.93 L 764.28 909.90 L 765.75 909.83 L 767.22 909.82 L 768.69 909.83" stroke="#E53935" />
<text x="620.00" y="952" font-size="15" text-anchor="middle">minutos (relativo ao início do evento)</text>
<text class="small" x="90.00" y="936" text-anchor="middle">-4.00</text>
<text class="small" x="266.67" y="936" text-anchor="middle">-2.00</text>
<text class="small" x="443.33" y="936" text-anchor="middle">0.00</text>
<text class="small" x="620.00" y="936" text-anchor="middle">2.00</text>
<text class="small" x="796.67" y="936" text-anchor="middle">4.00</text>
<text class="small" x="973.33" y="936" text-anchor="middle">6.00</text>
<text class="small" x="1150.00" y="936" text-anchor="middle">8.00</text>
</svg>