<?xml version="1.0" encoding="UTF-8"?>
<svg xmlns="http://www.w3.org/2000/svg" width="1180" height="980" viewBox="0 0 1180 980">
<style>
text { font-family: -apple-system, BlinkMacSystemFont, 'Segoe UI', Roboto, Helvetica, Arial, sans-serif; fill: #111; }
.small { font-size: 12px; fill: #222; }
.title { font-size: 18px; font-weight: 700; }
.axis { stroke: #111; stroke-width: 1.4; }
.grid { stroke: #E6E6E6; stroke-width: 1; }
.event { fill: #FFEB3B; fill-opacity: 0.18; }
.eventline { stroke: #F9A825; stroke-width: 1.2; stroke-dasharray: 4 3; }
.series { fill: none; stroke-width: 1.8; }
</style>
<text class="title" x="90" y="34">ciclo 23 — carregamento — 2025-12-13T11:12:34-03:00 → 2025-12-13T11:18:03-03:00 (span 329s, dur 330s)</text>
<text class="small" x="90" y="54">GPS: -11.698387,-47.155440  hotspot: -11.698,-47.155</text>
<text class="small" x="90" y="70">Janela: -3.00 → 8.48 min (relativo ao início do evento)</text>
<text x="90" y="79.00" font-size="14" font-weight="700">Velocidade (km/h)</text>
<rect class="event" x="392.86" y="85.00" width="415.17" height="192.75" />
<line class="eventline" x1="392.86" y1="85.00" x2="392.86" y2="277.75" />
<line class="eventline" x1="808.02" y1="85.00" x2="808.02" y2="277.75" />
<line class="grid" x1="90" y1="277.75" x2="1150" y2="277.75" />
<text class="small" x="80" y="281.75" text-anchor="end">0.00</text>
<line class="grid" x1="90" y1="239.20" x2="1150" y2="239.20" />
<text class="small" x="80" y="243.20" text-anchor="end">5.00</text>
<line class="grid" x1="90" y1="200.65" x2="1150" y2="200.65" />
<text class="small" x="80" y="204.65" text-anchor="end">10.0</text>
<line class="grid" x1="90" y1="162.10" x2="1150" y2="162.10" />
<text class="small" x="80" y="166.10" text-anchor="end">15.0</text>
<line class="grid" x1="90" y1="123.55" x2="1150" y2="123.55" />
<text class="small" x="80" y="127.55" text-anchor="end">20.0</text>
<line class="grid" x1="90" y1="85.00" x2="1150" y2="85.00" />
<text class="small" x="80" y="89.00" text-anchor="end">25.0</text>
<line class="grid" x1="90.00" y1="85.00" x2="90.00" y2="277.75" />
<line class="grid" x1="241.43" y1="85.00" x2="241.43" y2="277.75" />
<line class="grid" x1="392.86" y1="85.00" x2="392.86" y2="277.75" />
<line class="grid" x1="544.29" y1="85.00" x2="544.29" y2="277.75" />
<line class="grid" x1="695.71" y1="85.00" x2="695.71" y2="277.75" />
<line class="grid" x1="847.14" y1="85.00" x2="847.14" y2="277.75" />
<line class="grid" x1="998.57" y1="85.00" x2="998.57" y2="277.75" />
<line class="grid" x1="1150.00" y1="85.00" x2="1150.00" y2="277.75" />
<line class="axis" x1="90" y1="85.00" x2="90" y2="277.75" />
<line class="axis" x1="90" y1="277.75" x2="1150" y2="277.75" />
<path class="series" d="M 165.71 277.75 L 166.98 277.75 L 168.24 277.75 L 169.50 277.75 L 170.76 277.75 L 172.02 277.75 L 173.29 277.75 L 174.55 277.75 L 175.81 277.75 L 177.07 277.75 L 178.33 277.75 L 179.60 277.75 L 180.86 277.75 L 182.12 277.75 L 183.38 255.27 L 184.64 258.32 L 185.90 258.04 L 187.17 256.10 L 188.43 256.10 L 189.69 259.99 L 190.95 252.49 L 192.21 253.32 L 193.48 256.10 L 194.74 258.32 L 196.00 258.32 L 197.26 260.26 L 198.52 262.21 L 199.79 261.37 L 201.05 259.15 L 202.31 257.49 L 203.57 259.99 L 204.83 259.43 L 206.10 267.20 L 207.36 268.31 L 208.62 267.20 L 209.88 266.65 L 211.14 270.53 L 212.40 271.64 L 213.67 277.75 L 214.93 277.75 L 216.19 277.75 L 217.45 277.75 L 218.71 277.75 L 219.98 277.75 L 221.24 277.75 L 222.50 277.75 L 223.76 277.75 L 225.02 277.75 L 227.55 277.75 L 228.81 277.75 L 230.07 277.75 L 230.07 277.75 L 231.33 277.75 L 232.60 277.75 L 233.86 277.75 L 235.12 277.75 L 236.38 268.31 L 240.17 268.31 L 240.17 268.31 L 241.43 255.27 L 242.69 252.21 L 243.95 257.21 L 245.21 244.17 L 246.48 265.81 L 247.74 253.88 L 250.26 259.15 L 250.26 259.15 L 251.52 267.76 L 252.79 267.20 L 254.05 268.87 L 255.31 260.82 L 257.83 265.54 L 259.10 265.54 L 260.36 265.54 L 260.36 265.54 L 261.62 277.75 L 262.88 277.75 L 264.14 277.75 L 265.40 277.75 L 266.67 277.75 L 270.45 277.75 L 270.45 277.75 L 271.71 254.99 L 272.98 255.27 L 274.24 255.27 L 275.50 255.55 L 278.02 255.55 L 278.02 255.55 L 280.55 255.55 L 280.55 255.55 L 281.81 254.43 L 283.07 255.27 L 284.33 271.37 L 286.86 261.10 L 286.86 261.10 L 288.12 264.70 L 289.38 261.10 L 290.64 269.42 L 291.90 269.98 L 293.17 271.92 L 294.43 271.92 L 296.95 277.75 L 298.21 277.75 L 299.48 277.75 L 299.48 277.75 L 300.74 277.75 L 302.00 277.75 L 303.26 277.75 L 304.52 277.75 L 308.31 277.75 L 308.31 277.75 L 309.57 277.75 L 310.83 277.75 L 312.10 277.75 L 313.36 277.75 L 314.62 277.75 L 315.88 277.75 L 317.14 277.75 L 318.40 277.75 L 319.67 277.75 L 320.93 277.75 L 322.19 277.75 L 323.45 277.75 L 324.71 277.75 L 325.98 277.75 L 327.24 277.75 L 328.50 277.75 L 329.76 277.75 L 331.02 277.75 L 332.29 277.75 L 333.55 277.75 L 334.81 277.75 L 336.07 277.75 L 339.86 277.75 L 339.86 277.75 L 341.12 277.75 L 342.38 277.75 L 343.64 277.75 L 344.90 277.75 L 346.17 277.75 L 347.43 277.75 L 348.69 277.75 L 349.95 277.75 L 351.21 277.75 L 352.48 277.75 L 353.74 277.75 L 355.00 277.75 L 356.26 277.75 L 357.52 277.75 L 358.79 277.75 L 360.05 277.75 L 361.31 277.75 L 362.57 277.75 L 363.83 277.75 L 365.10 277.75 L 366.36 277.75 L 367.62 277.75 L 368.88 277.75 L 370.14 277.75 L 371.40 277.75 L 372.67 277.75 L 373.93 277.75 L 375.19 277.75 L 376.45 277.75 L 377.71 277.75 L 378.98 277.75 L 380.24 277.75 L 381.50 277.75 L 382.76 277.75 L 384.02 277.75 L 385.29 277.75 L 386.55 277.75 L 387.81 277.75 L 389.07 277.75 L 390.33 277.75 L 391.60 277.75 L 392.86 277.75 L 394.12 277.75 L 395.38 277.75 L 396.64 277.75 L 397.90 277.75 L 399.17 277.75 L 400.43 277.75 L 401.69 277.75 L 402.95 277.75 L 404.21 277.75 L 405.48 277.75 L 406.74 277.75 L 408.00 277.75 L 409.26 277.75 L 410.52 277.75 L 411.79 277.75 L 413.05 277.75 L 414.31 277.75 L 415.57 277.75 L 416.83 277.75 L 418.10 277.75 L 419.36 277.75 L 420.62 277.75 L 421.88 277.75 L 423.14 277.75 L 424.40 277.75 L 425.67 277.75 L 426.93 277.75 L 428.19 277.75 L 429.45 277.75 L 430.71 277.75 L 431.98 277.75 L 433.24 277.75 L 434.50 277.75 L 435.76 277.75 L 437.02 277.75 L 438.29 277.75 L 439.55 277.75 L 440.81 277.75 L 442.07 277.75 L 443.33 277.75 L 444.60 277.75 L 445.86 277.75 L 447.12 277.75 L 448.38 277.75 L 449.64 277.75 L 450.90 277.75 L 452.17 277.75 L 453.43 277.75 L 454.69 277.75 L 457.21 277.75 L 457.21 277.75 L 458.48 277.75 L 459.74 277.75 L 461.00 277.75 L 462.26 277.75 L 463.52 277.75 L 464.79 277.75 L 466.05 277.75 L 467.31 277.75 L 468.57 277.75 L 469.83 277.75 L 471.10 277.75 L 472.36 277.75 L 473.62 277.75 L 474.88 277.75 L 476.14 277.75 L 477.40 277.75 L 478.67 277.75 L 479.93 277.75 L 481.19 277.75 L 482.45 277.75 L 483.71 277.75 L 484.98 277.75 L 486.24 277.75 L 487.50 277.75 L 488.76 277.75 L 490.02 277.75 L 491.29 277.75 L 492.55 277.75 L 493.81 277.75 L 495.07 277.75 L 496.33 277.75 L 497.60 277.75 L 498.86 277.75 L 500.12 277.75 L 501.38 277.75 L 502.64 277.75 L 503.90 277.75 L 505.17 277.75 L 506.43 277.75 L 507.69 277.75 L 508.95 277.75 L 510.21 277.75 L 511.48 277.75 L 512.74 277.75 L 514.00 277.75 L 515.26 277.75 L 516.52 277.75 L 517.79 277.75 L 519.05 277.75 L 520.31 277.75 L 521.57 277.75 L 522.83 277.75 L 524.10 277.75 L 525.36 277.75 L 526.62 277.75 L 527.88 277.75 L 529.14 277.75 L 530.40 277.75 L 531.67 277.75 L 532.93 277.75 L 534.19 277.75 L 535.45 277.75 L 536.71 277.75 L 537.98 277.75 L 539.24 277.75 L 540.50 277.75 L 541.76 277.75 L 543.02 277.75 L 544.29 277.75 L 545.55 277.75 L 546.81 277.75 L 548.07 277.75 L 549.33 277.75 L 550.60 277.75 L 551.86 277.75 L 553.12 277.75 L 554.38 277.75 L 555.64 277.75 L 556.90 277.75 L 558.17 277.75 L 559.43 277.75 L 560.69 277.75 L 561.95 277.75 L 563.21 277.75 L 564.48 277.75 L 565.74 277.75 L 567.00 277.75 L 568.26 277.75 L 569.52 277.75 L 570.79 277.75 L 572.05 277.75 L 573.31 277.75 L 574.57 277.75 L 575.83 277.75 L 577.10 277.75 L 578.36 277.75 L 579.62 277.75 L 580.88 277.75 L 582.14 277.75 L 583.40 277.75 L 584.67 277.75 L 585.93 277.75 L 587.19 277.75 L 588.45 277.75 L 589.71 277.75 L 590.98 277.75 L 592.24 277.75 L 593.50 277.75 L 594.76 277.75 L 596.02 277.75 L 597.29 277.75 L 598.55 277.75 L 599.81 277.75 L 601.07 277.75 L 602.33 277.75 L 603.60 277.75 L 604.86 277.75 L 606.12 277.75 L 607.38 277.75 L 608.64 277.75 L 609.90 277.75 L 611.17 277.75 L 612.43 277.75 L 613.69 277.75 L 614.95 277.75 L 616.21 277.75 L 617.48 277.75 L 618.74 277.75 L 620.00 277.75 L 621.26 277.75 L 622.52 277.75 L 623.79 277.75 L 625.05 277.75 L 626.31 277.75 L 627.57 277.75 L 628.83 277.75 L 630.10 277.75 L 631.36 277.75 L 632.62 277.75 L 633.88 277.75 L 635.14 277.75 L 636.40 277.75 L 637.67 277.75 L 638.93 277.75 L 640.19 277.75 L 641.45 277.75 L 642.71 277.75 L 643.98 277.75 L 645.24 277.75 L 646.50 277.75 L 647.76 277.75 L 649.02 277.75 L 650.29 277.75 L 651.55 277.75 L 652.81 277.75 L 654.07 277.75 L 655.33 277.75 L 656.60 277.75 L 657.86 277.75 L 659.12 277.75 L 660.38 277.75 L 661.64 277.75 L 662.90 277.75 L 664.17 277.75 L 665.43 277.75 L 666.69 277.75 L 667.95 277.75 L 669.21 277.75 L 670.48 277.75 L 671.74 277.75 L 673.00 277.75 L 674.26 277.75 L 675.52 277.75 L 676.79 277.75 L 678.05 277.75 L 679.31 277.75 L 680.57 277.75 L 681.83 277.75 L 683.10 277.75 L 684.36 277.75 L 685.62 277.75 L 686.88 277.75 L 688.14 277.75 L 689.40 277.75 L 690.67 277.75 L 691.93 277.75 L 693.19 277.75 L 694.45 277.75 L 695.71 277.75 L 696.98 277.75 L 698.24 277.75 L 699.50 277.75 L 700.76 277.75 L 702.02 277.75 L 703.29 277.75 L 704.55 277.75 L 705.81 277.75 L 707.07 277.75 L 708.33 277.75 L 709.60 277.75 L 710.86 277.75 L 712.12 277.75 L 713.38 277.75 L 714.64 277.75 L 715.90 277.75 L 717.17 277.75 L 718.43 277.75 L 719.69 277.75 L 720.95 277.75 L 722.21 277.75 L 723.48 277.75 L 724.74 277.75 L 726.00 277.75 L 727.26 277.75 L 728.52 277.75 L 729.79 277.75 L 731.05 277.75 L 732.31 277.75 L 733.57 277.75 L 734.83 277.75 L 736.10 277.75 L 737.36 277.75 L 738.62 277.75 L 739.88 277.75 L 741.14 277.75 L 742.40 277.75 L 743.67 277.75 L 744.93 277.75 L 746.19 277.75 L 747.45 277.75 L 748.71 277.75 L 749.98 277.75 L 751.24 277.75 L 752.50 277.75 L 753.76 277.75 L 755.02 277.75 L 756.29 277.75 L 757.55 277.75 L 758.81 277.75 L 760.07 277.75 L 761.33 277.75 L 762.60 277.75 L 763.86 277.75 L 765.12 277.75 L 766.38 277.75 L 767.64 277.75 L 768.90 277.75 L 770.17 277.75 L 771.43 277.75 L 772.69 277.75 L 773.95 277.75 L 775.21 277.75 L 776.48 277.75 L 777.74 277.75 L 779.00 277.75 L 780.26 277.75 L 781.52 277.75 L 782.79 277.75 L 784.05 277.75 L 785.31 277.75 L 786.57 277.75 L 787.83 277.75 L 789.10 277.75 L 790.36 277.75 L 791.62 277.75 L 792.88 277.75 L 794.14 277.75 L 795.40 277.75 L 796.67 277.75 L 797.93 277.75 L 799.19 277.75 L 801.71 277.75 L 801.71 277.75 L 802.98 277.75 L 804.24 277.75 L 805.50 277.75 L 806.76 277.75 L 808.02 277.75 L 809.29 277.75 L 813.07 277.75 L 813.07 277.75 L 814.33 277.75 L 815.60 277.75 L 816.86 277.75 L 818.12 277.75 L 819.38 277.75 L 820.64 277.75 L 821.90 277.75 L 823.17 277.75 L 824.43 277.75 L 825.69 277.75 L 826.95 277.75 L 828.21 277.75 L 829.48 277.75 L 833.26 277.75 L 833.26 277.75 L 834.52 277.75 L 835.79 277.75 L 837.05 277.75 L 838.31 277.75 L 839.57 277.75 L 842.10 277.75 L 842.10 277.75 L 843.36 277.75 L 844.62 277.75 L 845.88 277.75 L 847.14 277.75 L 848.40 277.75 L 850.93 277.75 L 850.93 277.75 L 852.19 277.75 L 853.45 277.75 L 854.71 277.75 L 855.98 277.75 L 857.24 217.80 L 858.50 224.74 L 859.76 237.50 L 861.02 229.18 L 863.55 229.18 L 863.55 229.18 L 864.81 250.55 L 866.07 250.83 L 867.33 265.54 L 868.60 254.43 L 872.38 254.43 L 872.38 254.43 L 873.64 258.32 L 874.90 242.22 L 876.17 253.60 L 877.43 262.48 L 878.69 265.54 L 882.48 258.32 L 882.48 258.32 L 883.74 277.75 L 885.00 277.75 L 886.26 277.75 L 887.52 277.75 L 888.79 277.75 L 890.05 277.75 L 891.31 277.75 L 892.57 277.75 L 893.83 277.75 L 895.10 266.09 L 896.36 271.92 L 897.62 271.37 L 898.88 268.59 L 902.67 268.59 L 902.67 268.59 L 903.93 270.53 L 905.19 272.48 L 906.45 277.75 L 907.71 277.75 L 908.98 277.75 L 910.24 277.75 L 911.50 277.75 L 912.76 277.75 L 914.02 264.43 L 915.29 252.21 L 916.55 251.66 L 917.81 253.32 L 919.07 254.99 L 920.33 256.38 L 922.86 252.49 L 922.86 252.49 L 924.12 260.26 L 925.38 264.43 L 926.64 277.75 L 929.17 277.75 L 929.17 277.75 L 930.43 271.64 L 932.95 272.20 L 932.95 272.20 L 934.21 266.37 L 935.48 267.76 L 936.74 270.53 L 938.00 269.42 L 941.79 268.04 L 941.79 268.04 L 943.05 269.70 L 944.31 261.37 L 945.57 268.59 L 946.83 277.75 L 948.10 277.75 L 949.36 277.75 L 950.62 277.75 L 951.88 277.75 L 953.14 277.75 L 954.40 277.75 L 955.67 277.75 L 956.93 277.75 L 958.19 277.75 L 959.45 277.75 L 960.71 277.75 L 961.98 277.75 L 963.24 277.75 L 964.50 277.75 L 965.76 277.75 L 967.02 277.75 L 968.29 259.43 L 969.55 266.09 L 970.81 266.09 L 972.07 277.75 L 973.33 277.75 L 974.60 265.26 L 975.86 266.93 L 977.12 264.98 L 978.38 269.15 L 979.64 269.15 L 980.90 277.75 L 982.17 277.75 L 983.43 277.75 L 984.69 277.75 L 985.95 239.72 L 987.21 243.06 L 988.48 234.45 L 989.74 234.45 L 991.00 242.50 L 992.26 242.50 L 993.52 241.11 L 994.79 241.11 L 996.05 225.01 L 997.31 226.12 L 998.57 230.56 L 999.83 224.18 L 1001.10 224.18 L 1002.36 218.35 L 1003.62 218.35 L 1004.88 211.69 L 1006.14 200.31 L 1007.40 204.20 L 1008.67 204.20 L 1009.93 209.47 L 1011.19 209.47 L 1012.45 209.47 L 1013.71 218.63 L 1014.98 221.41 L 1016.24 218.63 L 1017.50 220.02 L 1018.76 200.03 L 1020.02 207.53 L 1021.29 212.25 L 1022.55 201.70 L 1023.81 201.70 L 1025.07 200.03 L 1026.33 196.15 L 1027.60 202.25 L 1028.86 201.42 L 1030.12 217.52 L 1031.38 236.67 L 1032.64 228.62 L 1033.90 219.18 L 1035.17 221.41" stroke="#1976D2" />
<text x="90" y="289.75" font-size="14" font-weight="700">Inclinação (graus)</text>
<rect class="event" x="392.86" y="295.75" width="415.17" height="192.75" />
<line class="eventline" x1="392.86" y1="295.75" x2="392.86" y2="488.50" />
<line class="eventline" x1="808.02" y1="295.75" x2="808.02" y2="488.50" />
<line class="grid" x1="90" y1="488.50" x2="1150" y2="488.50" />
<text class="small" x="80" y="492.50" text-anchor="end">-10.0</text>
<line class="grid" x1="90" y1="456.38" x2="1150" y2="456.38" />
<text class="small" x="80" y="460.38" text-anchor="end">-5.00</text>
<line class="grid" x1="90" y1="424.25" x2="1150" y2="424.25" />
<text class="small" x="80" y="428.25" text-anchor="end">0.00</text>
<line class="grid" x1="90" y1="392.12" x2="1150" y2="392.12" />
<text class="small" x="80" y="396.12" text-anchor="end">5.00</text>
<line class="grid" x1="90" y1="360.00" x2="1150" y2="360.00" />
<text class="small" x="80" y="364.00" text-anchor="end">10.0</text>
<line class="grid" x1="90" y1="327.88" x2="1150" y2="327.88" />
<text class="small" x="80" y="331.88" text-anchor="end">15.0</text>
<line class="grid" x1="90" y1="295.75" x2="1150" y2="295.75" />
<text class="small" x="80" y="299.75" text-anchor="end">20.0</text>
<line class="grid" x1="90.00" y1="295.75" x2="90.00" y2="488.50" />
<line class="grid" x1="241.43" y1="295.75" x2="241.43" y2="488.50" />
<line class="grid" x1="392.86" y1="295.75" x2="392.86" y2="488.50" />
<line class="grid" x1="544.29" y1="295.75" x2="544.29" y2="488.50" />
<line class="grid" x1="695.71" y1="295.75" x2="695.71" y2="488.50" />
<line class="grid" x1="847.14" y1="295.75" x2="847.14" y2="488.50" />
<line class="grid" x1="998.57" y1="295.75" x2="998.57" y2="488.50" />
<line class="grid" x1="1150.00" y1="295.75" x2="1150.00" y2="488.50" />
<line class="axis" x1="90" y1="295.75" x2="90" y2="488.50" />
<line class="axis" x1="90" y1="488.50" x2="1150" y2="488.50" />
<path class="series" d="M 165.71 338.87 L 166.98 349.45 L 168.24 332.29 L 169.50 351.89 L 170.76 343.34 L 172.02 359.40 L 173.29 352.04 L 174.55 349.35 L 175.81 357.31 L 177.07 367.77 L 178.33 367.97 L 179.60 375.98 L 180.86 383.94 L 182.12 388.72 L 183.38 391.42 L 184.64 393.54 L 185.90 389.14 L 187.17 388.28 L 188.43 388.99 L 189.69 391.05 L 190.95 389.31 L 192.21 382.51 L 193.48 388.83 L 194.74 386.27 L 196.00 385.92 L 197.26 386.76 L 198.52 394.94 L 199.79 393.63 L 201.05 396.55 L 202.31 401.94 L 203.57 390.31 L 204.83 405.68 L 206.10 400.42 L 207.36 397.82 L 208.62 395.92 L 209.88 403.66 L 211.14 399.29 L 212.40 408.77 L 213.67 408.77 L 214.93 395.46 L 216.19 399.11 L 217.45 397.63 L 218.71 397.99 L 219.98 397.71 L 221.24 397.76 L 222.50 397.85 L 223.76 397.93 L 225.02 397.89 L 227.55 397.87 L 228.81 397.96 L 230.07 397.96 L 230.07 397.96 L 231.33 397.87 L 232.60 397.39 L 233.86 398.85 L 235.12 397.54 L 236.38 382.05 L 240.17 384.83 L 240.17 384.83 L 241.43 384.83 L 242.69 393.74 L 243.95 388.10 L 245.21 384.69 L 246.48 394.55 L 247.74 394.55 L 250.26 386.55 L 250.26 376.29 L 251.52 385.76 L 252.79 388.09 L 254.05 387.80 L 255.31 393.43 L 257.83 383.85 L 259.10 383.85 L 260.36 383.85 L 260.36 382.94 L 261.62 383.56 L 262.88 383.38 L 264.14 383.37 L 265.40 383.28 L 266.67 380.61 L 270.45 378.27 L 270.45 378.27 L 271.71 373.99 L 272.98 385.05 L 274.24 391.82 L 275.50 401.11 L 278.02 401.11 L 278.02 395.96 L 280.55 395.96 L 280.55 395.96 L 281.81 405.67 L 283.07 423.84 L 284.33 414.09 L 286.86 419.64 L 286.86 419.64 L 288.12 417.26 L 289.38 413.34 L 290.64 412.60 L 291.90 421.67 L 293.17 414.37 L 294.43 412.21 L 296.95 412.38 L 298.21 412.38 L 299.48 407.98 L 299.48 407.98 L 300.74 411.44 L 302.00 411.50 L 303.26 411.52 L 304.52 411.43 L 308.31 411.46 L 308.31 411.46 L 309.57 411.32 L 310.83 411.32 L 312.10 411.48 L 313.36 411.56 L 314.62 411.61 L 315.88 411.50 L 317.14 411.60 L 318.40 411.55 L 319.67 411.59 L 320.93 411.59 L 322.19 411.45 L 323.45 411.60 L 324.71 411.47 L 325.98 411.50 L 327.24 411.50 L 328.50 411.48 L 329.76 411.54 L 331.02 411.55 L 332.29 411.58 L 333.55 411.48 L 334.81 411.48 L 336.07 411.57 L 339.86 411.59 L 339.86 411.59 L 341.12 411.39 L 342.38 411.58 L 343.64 411.57 L 344.90 411.55 L 346.17 411.56 L 347.43 411.53 L 348.69 411.56 L 349.95 411.46 L 351.21 411.55 L 352.48 411.50 L 353.74 411.52 L 355.00 411.50 L 356.26 411.49 L 357.52 411.46 L 358.79 411.57 L 360.05 411.57 L 361.31 411.52 L 362.57 411.46 L 363.83 411.53 L 365.10 411.52 L 366.36 411.52 L 367.62 411.54 L 368.88 411.54 L 370.14 411.52 L 371.40 411.52 L 372.67 411.53 L 373.93 411.54 L 375.19 411.46 L 376.45 411.67 L 377.71 411.55 L 378.98 411.56 L 380.24 411.56 L 381.50 411.54 L 382.76 411.53 L 384.02 411.58 L 385.29 411.55 L 386.55 411.56 L 387.81 411.56 L 389.07 411.51 L 390.33 411.56 L 391.60 411.78 L 392.86 411.20 L 394.12 411.88 L 395.38 414.56 L 396.64 412.06 L 397.90 413.05 L 399.17 412.82 L 400.43 412.89 L 401.69 412.94 L 402.95 412.85 L 404.21 412.90 L 405.48 413.00 L 406.74 412.90 L 408.00 412.86 L 409.26 412.85 L 410.52 412.86 L 411.79 412.85 L 413.05 412.82 L 414.31 412.76 L 415.57 412.86 L 416.83 412.81 L 418.10 412.84 L 419.36 412.81 L 420.62 412.91 L 421.88 412.92 L 423.14 412.94 L 424.40 412.75 L 425.67 412.96 L 426.93 412.77 L 428.19 412.94 L 429.45 412.87 L 430.71 412.97 L 431.98 413.42 L 433.24 411.98 L 434.50 412.85 L 435.76 412.96 L 437.02 412.63 L 438.29 412.63 L 439.55 412.65 L 440.81 412.68 L 442.07 412.62 L 443.33 412.66 L 444.60 412.60 L 445.86 412.58 L 447.12 412.58 L 448.38 412.60 L 449.64 412.62 L 450.90 412.54 L 452.17 412.61 L 453.43 412.53 L 454.69 412.58 L 457.21 412.61 L 457.21 412.61 L 458.48 412.55 L 459.74 412.62 L 461.00 412.55 L 462.26 412.71 L 463.52 412.63 L 464.79 412.70 L 466.05 412.63 L 467.31 412.69 L 468.57 412.68 L 469.83 412.73 L 471.10 412.61 L 472.36 412.66 L 473.62 412.77 L 474.88 412.50 L 476.14 412.37 L 477.40 412.37 L 478.67 411.60 L 479.93 412.16 L 481.19 412.17 L 482.45 412.13 L 483.71 411.98 L 484.98 412.28 L 486.24 412.28 L 487.50 412.06 L 488.76 412.06 L 490.02 412.04 L 491.29 412.08 L 492.55 412.10 L 493.81 412.05 L 495.07 412.19 L 496.33 412.03 L 497.60 412.11 L 498.86 412.10 L 500.12 412.08 L 501.38 412.06 L 502.64 412.13 L 503.90 412.16 L 505.17 412.08 L 506.43 412.08 L 507.69 412.05 L 508.95 412.04 L 510.21 412.16 L 511.48 411.90 L 512.74 412.60 L 514.00 410.86 L 515.26 411.78 L 516.52 411.67 L 517.79 411.58 L 519.05 411.58 L 520.31 411.58 L 521.57 411.64 L 522.83 411.55 L 524.10 411.57 L 525.36 411.67 L 526.62 411.65 L 527.88 411.54 L 529.14 411.66 L 530.40 411.60 L 531.67 411.65 L 532.93 411.62 L 534.19 411.65 L 535.45 411.60 L 536.71 411.60 L 537.98 411.65 L 539.24 411.57 L 540.50 411.62 L 541.76 411.58 L 543.02 411.53 L 544.29 411.53 L 545.55 411.54 L 546.81 411.57 L 548.07 411.53 L 549.33 412.08 L 550.60 406.27 L 551.86 413.68 L 553.12 410.00 L 554.38 410.69 L 555.64 410.68 L 556.90 409.58 L 558.17 415.21 L 559.43 408.83 L 560.69 410.66 L 561.95 411.11 L 563.21 411.46 L 564.48 411.37 L 565.74 411.29 L 567.00 411.35 L 568.26 411.27 L 569.52 411.40 L 570.79 411.29 L 572.05 411.36 L 573.31 411.30 L 574.57 411.39 L 575.83 411.39 L 577.10 411.31 L 578.36 411.30 L 579.62 411.47 L 580.88 411.35 L 582.14 411.33 L 583.40 411.34 L 584.67 411.34 L 585.93 411.36 L 587.19 411.34 L 588.45 411.38 L 589.71 411.35 L 590.98 411.39 L 592.24 411.30 L 593.50 411.39 L 594.76 411.32 L 596.02 411.32 L 597.29 411.26 L 598.55 411.32 L 599.81 411.29 L 601.07 411.37 L 602.33 411.19 L 603.60 411.37 L 604.86 411.34 L 606.12 411.34 L 607.38 411.30 L 608.64 411.29 L 609.90 411.29 L 611.17 411.30 L 612.43 411.36 L 613.69 411.17 L 614.95 411.27 L 616.21 411.26 L 617.48 411.37 L 618.74 411.24 L 620.00 411.36 L 621.26 411.32 L 622.52 411.36 L 623.79 411.35 L 625.05 411.19 L 626.31 411.57 L 627.57 411.57 L 628.83 411.55 L 630.10 411.52 L 631.36 411.42 L 632.62 411.51 L 633.88 411.47 L 635.14 411.48 L 636.40 411.43 L 637.67 411.50 L 638.93 411.43 L 640.19 411.46 L 641.45 411.42 L 642.71 411.49 L 643.98 411.45 L 645.24 411.53 L 646.50 411.53 L 647.76 411.51 L 649.02 411.50 L 650.29 411.56 L 651.55 411.54 L 652.81 411.54 L 654.07 411.48 L 655.33 411.54 L 656.60 411.41 L 657.86 411.51 L 659.12 411.51 L 660.38 411.55 L 661.64 411.50 L 662.90 411.52 L 664.17 411.53 L 665.43 411.56 L 666.69 411.58 L 667.95 411.47 L 669.21 411.61 L 670.48 411.54 L 671.74 411.52 L 673.00 411.52 L 674.26 411.56 L 675.52 411.55 L 676.79 411.60 L 678.05 411.50 L 679.31 409.85 L 680.57 415.52 L 681.83 413.28 L 683.10 413.79 L 684.36 413.39 L 685.62 413.40 L 686.88 413.48 L 688.14 413.35 L 689.40 413.41 L 690.67 413.41 L 691.93 413.50 L 693.19 413.37 L 694.45 413.44 L 695.71 413.48 L 696.98 413.49 L 698.24 413.46 L 699.50 413.46 L 700.76 413.50 L 702.02 413.53 L 703.29 413.41 L 704.55 413.45 L 705.81 413.45 L 707.07 413.46 L 708.33 413.37 L 709.60 413.48 L 710.86 413.45 L 712.12 413.43 L 713.38 413.46 L 714.64 408.74 L 715.90 418.59 L 717.17 411.79 L 718.43 413.09 L 719.69 413.20 L 720.95 413.24 L 722.21 413.33 L 723.48 413.25 L 724.74 413.23 L 726.00 413.17 L 727.26 413.24 L 728.52 413.25 L 729.79 413.28 L 731.05 413.15 L 732.31 413.18 L 733.57 413.23 L 734.83 413.17 L 736.10 413.22 L 737.36 413.23 L 738.62 413.24 L 739.88 413.21 L 741.14 413.24 L 742.40 413.17 L 743.67 413.32 L 744.93 413.30 L 746.19 413.21 L 747.45 413.25 L 748.71 413.26 L 749.98 413.20 L 751.24 413.27 L 752.50 413.26 L 753.76 413.29 L 755.02 413.29 L 756.29 411.77 L 757.55 418.00 L 758.81 418.33 L 760.07 413.93 L 761.33 415.94 L 762.60 415.80 L 763.86 415.87 L 765.12 415.82 L 766.38 415.90 L 767.64 415.81 L 768.90 415.89 L 770.17 415.84 L 771.43 415.88 L 772.69 415.77 L 773.95 415.78 L 775.21 415.75 L 776.48 415.88 L 777.74 415.76 L 779.00 415.85 L 780.26 415.79 L 781.52 415.84 L 782.79 415.82 L 784.05 415.83 L 785.31 415.77 L 786.57 415.86 L 787.83 415.83 L 789.10 414.92 L 790.36 418.11 L 791.62 418.14 L 792.88 417.65 L 794.14 418.47 L 795.40 420.42 L 796.67 408.50 L 797.93 423.01 L 799.19 419.49 L 801.71 416.22 L 801.71 416.22 L 802.98 416.22 L 804.24 416.22 L 805.50 417.55 L 806.76 414.45 L 808.02 417.77 L 809.29 418.88 L 813.07 418.81 L 813.07 418.81 L 814.33 418.81 L 815.60 419.65 L 816.86 427.79 L 818.12 424.50 L 819.38 418.93 L 820.64 421.68 L 821.90 429.24 L 823.17 427.62 L 824.43 427.62 L 825.69 430.85 L 826.95 433.75 L 828.21 419.52 L 829.48 400.48 L 833.26 395.41 L 833.26 395.41 L 834.52 370.65 L 835.79 384.06 L 837.05 372.47 L 838.31 401.65 L 839.57 403.15 L 842.10 398.12 L 842.10 398.12 L 843.36 399.76 L 844.62 403.22 L 845.88 395.07 L 847.14 402.24 L 848.40 413.99 L 850.93 399.92 L 850.93 399.92 L 852.19 399.92 L 853.45 399.92 L 854.71 402.11 L 855.98 391.83 L 857.24 401.73 L 858.50 389.46 L 859.76 386.76 L 861.02 367.83 L 863.55 356.85 L 863.55 356.85 L 864.81 356.85 L 866.07 356.85 L 867.33 359.13 L 868.60 367.16 L 872.38 357.19 L 872.38 357.19 L 873.64 355.59 L 874.90 373.73 L 876.17 370.86 L 877.43 384.70 L 878.69 393.35 L 882.48 384.78 L 882.48 384.78 L 883.74 384.78 L 885.00 385.70 L 886.26 398.94 L 887.52 395.23 L 888.79 381.56 L 890.05 396.89 L 891.31 387.42 L 892.57 395.32 L 893.83 395.32 L 895.10 388.77 L 896.36 397.93 L 897.62 398.72 L 898.88 379.34 L 902.67 394.24 L 902.67 394.24 L 903.93 387.56 L 905.19 388.67 L 906.45 383.01 L 907.71 384.17 L 908.98 381.99 L 910.24 380.95 L 911.50 392.48 L 912.76 392.48 L 914.02 394.52 L 915.29 402.66 L 916.55 394.89 L 917.81 398.88 L 919.07 401.03 L 920.33 414.88 L 922.86 418.22 L 922.86 418.22 L 924.12 409.75 L 925.38 394.15 L 926.64 370.65 L 929.17 397.08 L 929.17 390.79 L 930.43 392.36 L 932.95 394.87 L 932.95 394.87 L 934.21 394.69 L 935.48 408.35 L 936.74 404.47 L 938.00 402.34 L 941.79 407.91 L 941.79 407.91 L 943.05 409.78 L 944.31 406.03 L 945.57 414.06 L 946.83 411.14 L 948.10 409.14 L 949.36 401.06 L 950.62 408.70 L 951.88 407.46 L 953.14 412.40 L 954.40 403.77 L 955.67 419.67 L 956.93 406.53 L 958.19 395.40 L 959.45 403.45 L 960.71 406.30 L 961.98 405.62 L 963.24 402.72 L 964.50 393.88 L 965.76 400.23 L 967.02 385.85 L 968.29 394.78 L 969.55 374.53 L 970.81 387.32 L 972.07 387.32 L 973.33 369.92 L 974.60 371.69 L 975.86 365.82 L 977.12 362.73 L 978.38 362.23 L 979.64 374.01 L 980.90 355.50 L 982.17 375.39 L 983.43 374.70 L 984.69 374.70 L 985.95 384.27 L 987.21 396.82 L 988.48 407.59 L 989.74 416.43 L 991.00 429.49 L 992.26 409.90 L 993.52 408.66 L 994.79 408.66 L 996.05 398.85 L 997.31 378.40 L 998.57 363.16 L 999.83 373.30 L 1001.10 363.28 L 1002.36 367.04 L 1003.62 367.04 L 1004.88 372.03 L 1006.14 354.18 L 1007.40 362.89 L 1008.67 362.89 L 1009.93 346.23 L 1011.19 338.34 L 1012.45 332.97 L 1013.71 332.54 L 1014.98 344.95 L 1016.24 346.28 L 1017.50 382.80 L 1018.76 390.80 L 1020.02 362.05 L 1021.29 344.41 L 1022.55 359.11 L 1023.81 337.18 L 1025.07 335.79 L 1026.33 355.07 L 1027.60 347.15 L 1028.86 345.82 L 1030.12 335.24 L 1031.38 349.03 L 1032.64 358.37 L 1033.90 359.01 L 1035.17 351.12" stroke="#2E7D32" />
<path class="series" d="M 165.71 430.28 L 166.98 433.00 L 168.24 431.50 L 169.50 428.22 L 170.76 423.17 L 172.02 429.09 L 173.29 423.27 L 174.55 425.08 L 175.81 427.84 L 177.07 440.29 L 178.33 435.40 L 179.60 434.44 L 180.86 428.72 L 182.12 437.89 L 183.38 446.78 L 184.64 450.76 L 185.90 446.16 L 187.17 449.85 L 188.43 443.21 L 189.69 446.58 L 190.95 445.61 L 192.21 454.39 L 193.48 457.47 L 194.74 450.91 L 196.00 452.27 L 197.26 455.58 L 198.52 456.91 L 199.79 457.29 L 201.05 447.32 L 202.31 453.99 L 203.57 450.92 L 204.83 454.78 L 206.10 456.03 L 207.36 446.68 L 208.62 444.56 L 209.88 448.62 L 211.14 447.35 L 212.40 443.02 L 213.67 443.02 L 214.93 444.30 L 216.19 445.41 L 217.45 446.14 L 218.71 446.09 L 219.98 445.96 L 221.24 445.54 L 222.50 445.75 L 223.76 445.68 L 225.02 445.65 L 227.55 445.63 L 228.81 445.63 L 230.07 445.63 L 230.07 445.63 L 231.33 445.58 L 232.60 445.19 L 233.86 446.44 L 235.12 445.99 L 236.38 440.53 L 240.17 440.40 L 240.17 440.40 L 241.43 440.40 L 242.69 436.27 L 243.95 431.38 L 245.21 430.28 L 246.48 437.92 L 247.74 437.92 L 250.26 442.64 L 250.26 438.47 L 251.52 431.29 L 252.79 429.12 L 254.05 429.18 L 255.31 428.77 L 257.83 432.78 L 259.10 432.78 L 260.36 432.78 L 260.36 431.70 L 261.62 430.43 L 262.88 430.70 L 264.14 430.38 L 265.40 430.76 L 266.67 430.41 L 270.45 434.39 L 270.45 434.39 L 271.71 424.49 L 272.98 422.18 L 274.24 428.24 L 275.50 421.02 L 278.02 421.02 L 278.02 420.76 L 280.55 420.76 L 280.55 420.76 L 281.81 423.84 L 283.07 438.00 L 284.33 420.40 L 286.86 437.09 L 286.86 437.09 L 288.12 430.27 L 289.38 429.99 L 290.64 433.64 L 291.90 437.97 L 293.17 436.99 L 294.43 433.13 L 296.95 432.03 L 298.21 432.03 L 299.48 433.48 L 299.48 433.48 L 300.74 433.11 L 302.00 432.80 L 303.26 433.25 L 304.52 433.01 L 308.31 433.04 L 308.31 433.04 L 309.57 433.59 L 310.83 433.59 L 312.10 433.09 L 313.36 433.18 L 314.62 433.30 L 315.88 433.22 L 317.14 433.30 L 318.40 433.16 L 319.67 433.24 L 320.93 433.31 L 322.19 433.22 L 323.45 433.21 L 324.71 433.28 L 325.98 433.24 L 327.24 433.24 L 328.50 433.26 L 329.76 433.52 L 331.02 433.25 L 332.29 433.45 L 333.55 433.24 L 334.81 433.24 L 336.07 433.36 L 339.86 433.38 L 339.86 433.38 L 341.12 434.04 L 342.38 433.38 L 343.64 433.45 L 344.90 433.45 L 346.17 433.31 L 347.43 433.32 L 348.69 433.48 L 349.95 433.43 L 351.21 433.41 L 352.48 433.34 L 353.74 433.41 L 355.00 433.42 L 356.26 433.34 L 357.52 433.40 L 358.79 433.42 L 360.05 433.42 L 361.31 433.52 L 362.57 433.36 L 363.83 433.49 L 365.10 433.40 L 366.36 433.55 L 367.62 433.47 L 368.88 433.42 L 370.14 433.54 L 371.40 433.54 L 372.67 433.43 L 373.93 433.41 L 375.19 433.38 L 376.45 433.55 L 377.71 433.40 L 378.98 433.55 L 380.24 433.55 L 381.50 433.49 L 382.76 433.47 L 384.02 433.41 L 385.29 433.54 L 386.55 433.57 L 387.81 433.45 L 389.07 433.46 L 390.33 433.50 L 391.60 433.24 L 392.86 434.23 L 394.12 434.13 L 395.38 431.86 L 396.64 433.02 L 397.90 434.75 L 399.17 432.93 L 400.43 432.96 L 401.69 433.94 L 402.95 433.19 L 404.21 433.45 L 405.48 433.55 L 406.74 433.19 L 408.00 433.72 L 409.26 433.43 L 410.52 433.33 L 411.79 433.54 L 413.05 433.31 L 414.31 433.43 L 415.57 433.41 L 416.83 433.32 L 418.10 433.56 L 419.36 433.39 L 420.62 433.44 L 421.88 433.43 L 423.14 433.47 L 424.40 433.45 L 425.67 433.42 L 426.93 433.37 L 428.19 433.58 L 429.45 433.48 L 430.71 433.49 L 431.98 433.09 L 433.24 435.54 L 434.50 433.19 L 435.76 434.15 L 437.02 434.48 L 438.29 434.33 L 439.55 434.28 L 440.81 434.34 L 442.07 434.15 L 443.33 434.26 L 444.60 434.34 L 445.86 434.27 L 447.12 434.27 L 448.38 434.22 L 449.64 434.17 L 450.90 434.22 L 452.17 434.37 L 453.43 434.27 L 454.69 434.24 L 457.21 434.28 L 457.21 434.28 L 458.48 434.25 L 459.74 434.24 L 461.00 434.29 L 462.26 434.24 L 463.52 434.31 L 464.79 434.30 L 466.05 434.35 L 467.31 434.27 L 468.57 434.23 L 469.83 434.36 L 471.10 434.33 L 472.36 434.32 L 473.62 434.38 L 474.88 434.93 L 476.14 434.24 L 477.40 434.24 L 478.67 434.57 L 479.93 434.17 L 481.19 434.82 L 482.45 434.68 L 483.71 434.43 L 484.98 434.82 L 486.24 434.82 L 487.50 434.50 L 488.76 434.50 L 490.02 434.56 L 491.29 434.74 L 492.55 434.69 L 493.81 434.52 L 495.07 434.63 L 496.33 434.57 L 497.60 434.61 L 498.86 434.63 L 500.12 434.63 L 501.38 434.58 L 502.64 434.62 L 503.90 434.69 L 505.17 434.60 L 506.43 434.60 L 507.69 434.66 L 508.95 434.67 L 510.21 434.64 L 511.48 434.60 L 512.74 434.61 L 514.00 434.03 L 515.26 434.70 L 516.52 434.32 L 517.79 433.61 L 519.05 433.61 L 520.31 434.47 L 521.57 434.55 L 522.83 434.42 L 524.10 434.13 L 525.36 434.26 L 526.62 434.38 L 527.88 434.36 L 529.14 434.18 L 530.40 434.27 L 531.67 434.41 L 532.93 434.27 L 534.19 434.24 L 535.45 434.20 L 536.71 434.20 L 537.98 434.40 L 539.24 434.31 L 540.50 434.19 L 541.76 434.38 L 543.02 434.24 L 544.29 434.23 L 545.55 434.18 L 546.81 434.26 L 548.07 434.25 L 549.33 434.63 L 550.60 434.75 L 551.86 433.80 L 553.12 434.05 L 554.38 434.47 L 555.64 433.64 L 556.90 433.56 L 558.17 435.50 L 559.43 434.51 L 560.69 434.97 L 561.95 434.69 L 563.21 434.71 L 564.48 434.68 L 565.74 434.46 L 567.00 434.96 L 568.26 434.72 L 569.52 434.74 L 570.79 434.62 L 572.05 434.80 L 573.31 434.72 L 574.57 434.85 L 575.83 434.85 L 577.10 434.77 L 578.36 434.75 L 579.62 434.77 L 580.88 434.75 L 582.14 434.78 L 583.40 434.74 L 584.67 434.82 L 585.93 434.69 L 587.19 434.89 L 588.45 434.81 L 589.71 434.73 L 590.98 434.82 L 592.24 434.75 L 593.50 434.77 L 594.76 434.76 L 596.02 434.80 L 597.29 434.77 L 598.55 434.71 L 599.81 434.69 L 601.07 434.79 L 602.33 434.76 L 603.60 434.72 L 604.86 434.71 L 606.12 434.90 L 607.38 434.74 L 608.64 434.71 L 609.90 434.71 L 611.17 434.68 L 612.43 434.73 L 613.69 434.73 L 614.95 434.74 L 616.21 434.69 L 617.48 434.72 L 618.74 434.75 L 620.00 434.80 L 621.26 434.67 L 622.52 434.76 L 623.79 434.71 L 625.05 434.21 L 626.31 435.67 L 627.57 435.23 L 628.83 435.10 L 630.10 435.19 L 631.36 435.07 L 632.62 435.15 L 633.88 435.11 L 635.14 435.12 L 636.40 435.12 L 637.67 435.10 L 638.93 435.09 L 640.19 435.10 L 641.45 435.10 L 642.71 434.99 L 643.98 435.07 L 645.24 435.15 L 646.50 435.13 L 647.76 435.15 L 649.02 435.07 L 650.29 435.15 L 651.55 435.26 L 652.81 435.12 L 654.07 435.10 L 655.33 435.17 L 656.60 435.11 L 657.86 435.15 L 659.12 435.14 L 660.38 435.09 L 661.64 435.12 L 662.90 435.14 L 664.17 435.06 L 665.43 435.23 L 666.69 435.20 L 667.95 435.17 L 669.21 435.14 L 670.48 435.07 L 671.74 435.21 L 673.00 435.16 L 674.26 435.10 L 675.52 435.15 L 676.79 435.20 L 678.05 435.25 L 679.31 436.32 L 680.57 434.92 L 681.83 435.93 L 683.10 436.09 L 684.36 435.55 L 685.62 435.44 L 686.88 435.77 L 688.14 435.72 L 689.40 435.56 L 690.67 435.58 L 691.93 435.60 L 693.19 435.71 L 694.45 435.75 L 695.71 435.73 L 696.98 435.67 L 698.24 435.73 L 699.50 435.75 L 700.76 435.71 L 702.02 435.72 L 703.29 435.62 L 704.55 435.73 L 705.81 435.63 L 707.07 435.63 L 708.33 435.66 L 709.60 435.74 L 710.86 435.67 L 712.12 435.70 L 713.38 435.70 L 714.64 433.86 L 715.90 437.97 L 717.17 435.02 L 718.43 436.03 L 719.69 436.17 L 720.95 435.89 L 722.21 435.95 L 723.48 435.91 L 724.74 435.95 L 726.00 435.91 L 727.26 435.88 L 728.52 435.88 L 729.79 435.96 L 731.05 435.94 L 732.31 435.92 L 733.57 435.90 L 734.83 435.89 L 736.10 436.02 L 737.36 435.90 L 738.62 435.84 L 739.88 435.92 L 741.14 435.97 L 742.40 435.93 L 743.67 435.94 L 744.93 435.90 L 746.19 435.98 L 747.45 435.93 L 748.71 435.88 L 749.98 435.82 L 751.24 436.01 L 752.50 435.96 L 753.76 435.96 L 755.02 435.81 L 756.29 439.97 L 757.55 433.38 L 758.81 435.30 L 760.07 434.00 L 761.33 436.09 L 762.60 435.71 L 763.86 436.00 L 765.12 435.74 L 766.38 435.67 L 767.64 435.73 L 768.90 435.67 L 770.17 435.47 L 771.43 435.61 L 772.69 435.59 L 773.95 435.60 L 775.21 435.57 L 776.48 435.56 L 777.74 435.50 L 779.00 435.58 L 780.26 435.55 L 781.52 435.47 L 782.79 435.58 L 784.05 435.63 L 785.31 435.55 L 786.57 435.56 L 787.83 435.56 L 789.10 435.71 L 790.36 432.88 L 791.62 438.50 L 792.88 434.76 L 794.14 437.25 L 795.40 435.94 L 796.67 432.32 L 797.93 439.20 L 799.19 435.51 L 801.71 434.49 L 801.71 434.49 L 802.98 434.49 L 804.24 434.49 L 805.50 436.59 L 806.76 434.45 L 808.02 435.16 L 809.29 436.98 L 813.07 436.04 L 813.07 436.04 L 814.33 436.04 L 815.60 436.08 L 816.86 436.96 L 818.12 433.62 L 819.38 437.55 L 820.64 435.22 L 821.90 433.38 L 823.17 438.73 L 824.43 438.73 L 825.69 438.29 L 826.95 439.62 L 828.21 426.72 L 829.48 451.59 L 833.26 450.24 L 833.26 450.24 L 834.52 459.89 L 835.79 436.54 L 837.05 433.18 L 838.31 447.91 L 839.57 445.44 L 842.10 444.28 L 842.10 444.28 L 843.36 453.77 L 844.62 450.50 L 845.88 463.12 L 847.14 430.25 L 848.40 448.85 L 850.93 462.44 L 850.93 462.44 L 852.19 462.44 L 853.45 462.44 L 854.71 441.86 L 855.98 435.84 L 857.24 426.98 L 858.50 447.57 L 859.76 444.12 L 861.02 445.60 L 863.55 436.59 L 863.55 436.59 L 864.81 436.59 L 866.07 436.59 L 867.33 440.99 L 868.60 442.64 L 872.38 440.36 L 872.38 440.36 L 873.64 426.94 L 874.90 444.87 L 876.17 435.16 L 877.43 434.22 L 878.69 442.39 L 882.48 445.97 L 882.48 445.97 L 883.74 445.97 L 885.00 439.74 L 886.26 446.32 L 887.52 442.41 L 888.79 441.03 L 890.05 445.35 L 891.31 456.77 L 892.57 427.98 L 893.83 427.98 L 895.10 447.09 L 896.36 411.53 L 897.62 451.57 L 898.88 431.53 L 902.67 439.22 L 902.67 439.22 L 903.93 432.12 L 905.19 427.99 L 906.45 429.39 L 907.71 430.46 L 908.98 431.44 L 910.24 431.62 L 911.50 431.24 L 912.76 431.24 L 914.02 438.49 L 915.29 448.14 L 916.55 429.74 L 917.81 430.88 L 919.07 432.89 L 920.33 440.11 L 922.86 435.24 L 922.86 435.24 L 924.12 464.42 L 925.38 450.39 L 926.64 444.58 L 929.17 457.67 L 929.17 453.29 L 930.43 452.39 L 932.95 452.71 L 932.95 452.71 L 934.21 449.30 L 935.48 447.70 L 936.74 446.40 L 938.00 446.65 L 941.79 446.56 L 941.79 446.56 L 943.05 420.39 L 944.31 444.45 L 945.57 450.04 L 946.83 445.24 L 948.10 436.05 L 949.36 441.53 L 950.62 440.78 L 951.88 423.48 L 953.14 452.04 L 954.40 430.02 L 955.67 434.55 L 956.93 429.32 L 958.19 437.29 L 959.45 423.42 L 960.71 426.11 L 961.98 423.71 L 963.24 426.27 L 964.50 427.57 L 965.76 430.72 L 967.02 427.82 L 968.29 427.30 L 969.55 428.72 L 970.81 416.24 L 972.07 416.24 L 973.33 423.94 L 974.60 420.12 L 975.86 412.52 L 977.12 410.94 L 978.38 411.44 L 979.64 410.81 L 980.90 412.66 L 982.17 417.49 L 983.43 421.13 L 984.69 421.13 L 985.95 416.32 L 987.21 411.48 L 988.48 424.11 L 989.74 416.22 L 991.00 417.26 L 992.26 433.43 L 993.52 441.98 L 994.79 441.98 L 996.05 424.80 L 997.31 452.39 L 998.57 447.61 L 999.83 431.56 L 1001.10 431.96 L 1002.36 439.68 L 1003.62 439.68 L 1004.88 435.96 L 1006.14 433.85 L 1007.40 437.50 L 1008.67 437.50 L 1009.93 431.61 L 1011.19 424.52 L 1012.45 415.49 L 1013.71 431.36 L 1014.98 418.70 L 1016.24 426.70 L 1017.50 424.48 L 1018.76 412.54 L 1020.02 415.62 L 1021.29 417.25 L 1022.55 420.31 L 1023.81 423.54 L 1025.07 427.21 L 1026.33 421.77 L 1027.60 423.05 L 1028.86 418.68 L 1030.12 414.03 L 1031.38 408.86 L 1032.64 409.01 L 1033.90 413.18 L 1035.17 415.93" stroke="#6A1B9A" />
<line x1="900.00" y1="307.75" x2="918.00" y2="307.75" stroke="#2E7D32" stroke-width="3" />
<text class="small" x="924.00" y="311.75">pitch</text>
<line x1="900.00" y1="323.75" x2="918.00" y2="323.75" stroke="#6A1B9A" stroke-width="3" />
<text class="small" x="924.00" y="327.75">roll</text>
<text x="90" y="500.50" font-size="14" font-weight="700">Aceleração (magnitude) (u.a.)</text>
<rect class="event" x="392.86" y="506.50" width="415.17" height="192.75" />
<line class="eventline" x1="392.86" y1="506.50" x2="392.86" y2="699.25" />
<line class="eventline" x1="808.02" y1="506.50" x2="808.02" y2="699.25" />
<line class="grid" x1="90" y1="699.25" x2="1150" y2="699.25" />
<text class="small" x="80" y="703.25" text-anchor="end">0.00</text>
<line class="grid" x1="90" y1="660.70" x2="1150" y2="660.70" />
<text class="small" x="80" y="664.70" text-anchor="end">0.20</text>
<line class="grid" x1="90" y1="622.15" x2="1150" y2="622.15" />
<text class="small" x="80" y="626.15" text-anchor="end">0.40</text>
<line class="grid" x1="90" y1="583.60" x2="1150" y2="583.60" />
<text class="small" x="80" y="587.60" text-anchor="end">0.60</text>
<line class="grid" x1="90" y1="545.05" x2="1150" y2="545.05" />
<text class="small" x="80" y="549.05" text-anchor="end">0.80</text>
<line class="grid" x1="90" y1="506.50" x2="1150" y2="506.50" />
<text class="small" x="80" y="510.50" text-anchor="end">1.00</text>
<line class="grid" x1="90.00" y1="506.50" x2="90.00" y2="699.25" />
<line class="grid" x1="241.43" y1="506.50" x2="241.43" y2="699.25" />
<line class="grid" x1="392.86" y1="506.50" x2="392.86" y2="699.25" />
<line class="grid" x1="544.29" y1="506.50" x2="544.29" y2="699.25" />
<line class="grid" x1="695.71" y1="506.50" x2="695.71" y2="699.25" />
<line class="grid" x1="847.14" y1="506.50" x2="847.14" y2="699.25" />
<line class="grid" x1="998.57" y1="506.50" x2="998.57" y2="699.25" />
<line class="grid" x1="1150.00" y1="506.50" x2="1150.00" y2="699.25" />
<line class="axis" x1="90" y1="506.50" x2="90" y2="699.25" />
<line class="axis" x1="90" y1="699.25" x2="1150" y2="699.25" />
<path class="series" d="M 165.71 584.05 L 166.98 602.68 L 168.24 641.91 L 169.50 600.89 L 170.76 679.00 L 172.02 645.48 L 173.29 670.53 L 174.55 671.37 L 175.81 657.61 L 177.07 666.63 L 178.33 679.68 L 179.60 685.55 L 180.86 687.60 L 182.12 688.05 L 183.38 688.03 L 184.64 681.57 L 185.90 677.07 L 187.17 682.16 L 188.43 690.34 L 189.69 679.98 L 190.95 677.49 L 192.21 678.64 L 193.48 663.97 L 194.74 680.78 L 196.00 666.61 L 197.26 683.72 L 198.52 686.65 L 199.79 694.16 L 201.05 692.19 L 202.31 665.42 L 203.57 671.56 L 204.83 672.55 L 206.10 689.69 L 207.36 678.34 L 208.62 688.09 L 209.88 683.90 L 211.14 680.60 L 212.40 673.20 L 213.67 687.66 L 214.93 690.16 L 216.19 696.16 L 217.45 698.04 L 218.71 696.76 L 219.98 698.67 L 221.24 698.24 L 222.50 698.91 L 223.76 699.06 L 225.02 699.01 L 227.55 698.88 L 228.81 698.88 L 230.07 698.88 L 230.07 698.88 L 231.33 699.19 L 232.60 698.96 L 233.86 695.81 L 235.12 697.79 L 236.38 622.10 L 240.17 659.39 L 240.17 659.39 L 241.43 678.08 L 242.69 677.63 L 243.95 678.56 L 245.21 658.45 L 246.48 657.03 L 247.74 685.50 L 250.26 683.02 L 250.26 683.02 L 251.52 667.51 L 252.79 683.80 L 254.05 677.55 L 255.31 685.82 L 257.83 693.91 L 259.10 693.91 L 260.36 688.66 L 260.36 688.66 L 261.62 697.84 L 262.88 698.19 L 264.14 698.36 L 265.40 697.78 L 266.67 694.82 L 270.45 620.57 L 270.45 620.57 L 271.71 688.79 L 272.98 684.87 L 274.24 645.41 L 275.50 683.79 L 278.02 632.07 L 278.02 632.07 L 280.55 668.46 L 280.55 668.46 L 281.81 693.57 L 283.07 640.49 L 284.33 665.03 L 286.86 663.50 L 286.86 663.50 L 288.12 692.72 L 289.38 695.16 L 290.64 677.65 L 291.90 653.58 L 293.17 682.54 L 294.43 690.74 L 296.95 693.73 L 298.21 693.73 L 299.48 697.87 L 299.48 697.87 L 300.74 698.55 L 302.00 698.02 L 303.26 697.95 L 304.52 698.77 L 308.31 698.67 L 308.31 698.67 L 309.57 698.89 L 310.83 698.89 L 312.10 698.88 L 313.36 698.98 L 314.62 698.83 L 315.88 699.00 L 317.14 698.38 L 318.40 698.95 L 319.67 698.97 L 320.93 698.66 L 322.19 698.99 L 323.45 699.00 L 324.71 698.91 L 325.98 698.72 L 327.24 698.72 L 328.50 698.92 L 329.76 698.55 L 331.02 698.46 L 332.29 698.46 L 333.55 698.75 L 334.81 699.10 L 336.07 698.94 L 339.86 698.74 L 339.86 698.74 L 341.12 698.87 L 342.38 698.86 L 343.64 699.02 L 344.90 698.56 L 346.17 698.90 L 347.43 698.28 L 348.69 698.88 L 349.95 699.07 L 351.21 698.60 L 352.48 698.99 L 353.74 698.71 L 355.00 698.95 L 356.26 698.86 L 357.52 698.94 L 358.79 699.18 L 360.05 699.18 L 361.31 698.96 L 362.57 698.81 L 363.83 698.95 L 365.10 698.70 L 366.36 698.68 L 367.62 698.97 L 368.88 698.99 L 370.14 698.82 L 371.40 698.82 L 372.67 698.74 L 373.93 699.02 L 375.19 698.32 L 376.45 698.64 L 377.71 698.91 L 378.98 698.91 L 380.24 699.09 L 381.50 699.12 L 382.76 698.85 L 384.02 698.87 L 385.29 699.05 L 386.55 698.57 L 387.81 698.55 L 389.07 698.85 L 390.33 699.09 L 391.60 697.52 L 392.86 685.29 L 394.12 686.31 L 395.38 684.72 L 396.64 690.23 L 397.90 694.85 L 399.17 698.55 L 400.43 696.27 L 401.69 696.83 L 402.95 697.86 L 404.21 698.89 L 405.48 697.95 L 406.74 697.75 L 408.00 699.00 L 409.26 698.97 L 410.52 698.87 L 411.79 698.61 L 413.05 698.33 L 414.31 698.91 L 415.57 698.70 L 416.83 699.01 L 418.10 698.74 L 419.36 698.33 L 420.62 698.61 L 421.88 698.95 L 423.14 698.80 L 424.40 698.80 L 425.67 698.72 L 426.93 698.51 L 428.19 698.92 L 429.45 698.79 L 430.71 698.25 L 431.98 695.32 L 433.24 688.58 L 434.50 691.87 L 435.76 698.30 L 437.02 698.49 L 438.29 697.81 L 439.55 698.33 L 440.81 698.33 L 442.07 698.42 L 443.33 698.78 L 444.60 698.85 L 445.86 698.85 L 447.12 698.25 L 448.38 698.25 L 449.64 699.05 L 450.90 698.78 L 452.17 698.83 L 453.43 698.94 L 454.69 698.44 L 457.21 698.82 L 457.21 698.82 L 458.48 698.74 L 459.74 698.60 L 461.00 698.78 L 462.26 698.76 L 463.52 698.75 L 464.79 698.59 L 466.05 698.85 L 467.31 699.04 L 468.57 699.08 L 469.83 698.74 L 471.10 698.81 L 472.36 698.69 L 473.62 698.05 L 474.88 696.90 L 476.14 696.82 L 477.40 698.29 L 478.67 698.65 L 479.93 698.11 L 481.19 698.32 L 482.45 698.83 L 483.71 698.62 L 484.98 698.62 L 486.24 698.75 L 487.50 699.01 L 488.76 699.01 L 490.02 699.02 L 491.29 698.53 L 492.55 698.93 L 493.81 699.01 L 495.07 698.18 L 496.33 698.91 L 497.60 699.07 L 498.86 698.97 L 500.12 698.53 L 501.38 698.66 L 502.64 698.81 L 503.90 698.96 L 505.17 698.66 L 506.43 698.66 L 507.69 699.08 L 508.95 698.92 L 510.21 697.73 L 511.48 696.08 L 512.74 696.59 L 514.00 684.50 L 515.26 696.55 L 516.52 696.55 L 517.79 697.61 L 519.05 695.70 L 520.31 697.90 L 521.57 698.09 L 522.83 698.90 L 524.10 698.45 L 525.36 698.91 L 526.62 698.81 L 527.88 698.99 L 529.14 698.55 L 530.40 698.81 L 531.67 698.83 L 532.93 699.00 L 534.19 699.10 L 535.45 698.78 L 536.71 698.78 L 537.98 698.65 L 539.24 699.03 L 540.50 698.90 L 541.76 698.59 L 543.02 699.00 L 544.29 698.92 L 545.55 698.61 L 546.81 698.69 L 548.07 698.83 L 549.33 693.17 L 550.60 672.46 L 551.86 679.02 L 553.12 686.31 L 554.38 694.95 L 555.64 695.49 L 556.90 691.67 L 558.17 671.49 L 559.43 683.32 L 560.69 695.00 L 561.95 698.72 L 563.21 696.78 L 564.48 698.52 L 565.74 697.87 L 567.00 698.23 L 568.26 698.23 L 569.52 698.98 L 570.79 698.66 L 572.05 698.91 L 573.31 698.72 L 574.57 698.78 L 575.83 698.99 L 577.10 698.83 L 578.36 698.83 L 579.62 698.83 L 580.88 698.85 L 582.14 698.59 L 583.40 698.93 L 584.67 698.69 L 585.93 699.12 L 587.19 699.08 L 588.45 698.86 L 589.71 699.00 L 590.98 698.80 L 592.24 699.02 L 593.50 698.88 L 594.76 698.69 L 596.02 698.77 L 597.29 699.04 L 598.55 698.91 L 599.81 698.72 L 601.07 698.94 L 602.33 698.83 L 603.60 699.00 L 604.86 699.01 L 606.12 699.01 L 607.38 699.01 L 608.64 699.01 L 609.90 698.77 L 611.17 698.79 L 612.43 698.96 L 613.69 699.09 L 614.95 698.72 L 616.21 698.80 L 617.48 699.11 L 618.74 698.71 L 620.00 698.57 L 621.26 699.11 L 622.52 698.77 L 623.79 697.38 L 625.05 693.69 L 626.31 688.59 L 627.57 694.18 L 628.83 697.71 L 630.10 697.89 L 631.36 698.73 L 632.62 698.14 L 633.88 698.70 L 635.14 698.90 L 636.40 698.99 L 637.67 699.12 L 638.93 698.49 L 640.19 698.93 L 641.45 698.57 L 642.71 698.93 L 643.98 698.54 L 645.24 698.76 L 646.50 699.03 L 647.76 698.58 L 649.02 699.00 L 650.29 698.84 L 651.55 699.02 L 652.81 698.88 L 654.07 698.67 L 655.33 699.01 L 656.60 699.02 L 657.86 698.54 L 659.12 699.20 L 660.38 698.77 L 661.64 698.98 L 662.90 698.81 L 664.17 699.08 L 665.43 698.87 L 666.69 698.84 L 667.95 698.49 L 669.21 699.07 L 670.48 698.74 L 671.74 699.01 L 673.00 698.82 L 674.26 698.77 L 675.52 698.62 L 676.79 698.76 L 678.05 688.12 L 679.31 679.62 L 680.57 691.47 L 681.83 694.29 L 683.10 697.49 L 684.36 698.99 L 685.62 698.81 L 686.88 698.79 L 688.14 698.94 L 689.40 698.94 L 690.67 698.98 L 691.93 699.03 L 693.19 698.52 L 694.45 698.50 L 695.71 698.40 L 696.98 698.71 L 698.24 698.55 L 699.50 698.96 L 700.76 698.97 L 702.02 698.48 L 703.29 698.47 L 704.55 698.83 L 705.81 698.80 L 707.07 698.98 L 708.33 698.99 L 709.60 698.88 L 710.86 698.79 L 712.12 698.68 L 713.38 697.28 L 714.64 695.67 L 715.90 681.83 L 717.17 682.43 L 718.43 686.80 L 719.69 697.38 L 720.95 698.09 L 722.21 698.77 L 723.48 698.91 L 724.74 698.77 L 726.00 698.87 L 727.26 698.82 L 728.52 698.70 L 729.79 698.78 L 731.05 699.05 L 732.31 699.08 L 733.57 698.95 L 734.83 698.70 L 736.10 698.87 L 737.36 699.04 L 738.62 698.85 L 739.88 698.91 L 741.14 698.75 L 742.40 698.58 L 743.67 698.80 L 744.93 698.64 L 746.19 698.83 L 747.45 698.93 L 748.71 698.78 L 749.98 698.91 L 751.24 698.86 L 752.50 698.43 L 753.76 699.01 L 755.02 698.63 L 756.29 674.64 L 757.55 680.17 L 758.81 676.90 L 760.07 686.47 L 761.33 694.58 L 762.60 698.98 L 763.86 697.19 L 765.12 698.81 L 766.38 698.79 L 767.64 698.79 L 768.90 699.06 L 770.17 698.99 L 771.43 698.90 L 772.69 698.87 L 773.95 698.85 L 775.21 698.74 L 776.48 699.12 L 777.74 698.44 L 779.00 699.05 L 780.26 698.84 L 781.52 698.89 L 782.79 698.74 L 784.05 699.12 L 785.31 698.91 L 786.57 698.89 L 787.83 698.69 L 789.10 694.31 L 790.36 680.08 L 791.62 679.67 L 792.88 689.50 L 794.14 690.05 L 795.40 689.28 L 796.67 641.78 L 797.93 658.23 L 799.19 672.43 L 801.71 672.43 L 801.71 692.21 L 802.98 677.65 L 804.24 677.65 L 805.50 648.30 L 806.76 685.41 L 808.02 688.78 L 809.29 693.68 L 813.07 697.28 L 813.07 697.28 L 814.33 696.74 L 815.60 665.56 L 816.86 688.06 L 818.12 669.95 L 819.38 653.67 L 820.64 693.21 L 821.90 689.46 L 823.17 673.17 L 824.43 673.17 L 825.69 647.36 L 826.95 681.15 L 828.21 661.59 L 829.48 674.30 L 833.26 635.23 L 833.26 635.23 L 834.52 676.10 L 835.79 621.08 L 837.05 664.82 L 838.31 676.44 L 839.57 666.75 L 842.10 657.51 L 842.10 657.51 L 843.36 689.08 L 844.62 689.08 L 845.88 672.03 L 847.14 640.24 L 848.40 643.31 L 850.93 631.76 L 850.93 631.76 L 852.19 691.82 L 853.45 691.82 L 854.71 678.70 L 855.98 643.80 L 857.24 662.56 L 858.50 624.68 L 859.76 630.48 L 861.02 650.05 L 863.55 671.60 L 863.55 671.60 L 864.81 683.34 L 866.07 668.43 L 867.33 659.87 L 868.60 679.94 L 872.38 662.56 L 872.38 662.56 L 873.64 671.34 L 874.90 677.79 L 876.17 687.92 L 877.43 663.49 L 878.69 670.39 L 882.48 610.32 L 882.48 610.32 L 883.74 666.08 L 885.00 680.75 L 886.26 662.61 L 887.52 672.01 L 888.79 677.02 L 890.05 677.02 L 891.31 678.44 L 892.57 636.92 L 893.83 659.98 L 895.10 642.09 L 896.36 630.32 L 897.62 655.68 L 898.88 675.03 L 902.67 673.90 L 902.67 673.90 L 903.93 695.30 L 905.19 632.87 L 906.45 690.03 L 907.71 690.91 L 908.98 689.44 L 910.24 668.84 L 911.50 668.84 L 912.76 639.09 L 914.02 648.43 L 915.29 638.61 L 916.55 654.02 L 917.81 641.39 L 919.07 674.02 L 920.33 676.51 L 922.86 629.00 L 922.86 629.00 L 924.12 650.89 L 925.38 549.63 L 926.64 632.68 L 929.17 676.34 L 929.17 676.34 L 930.43 687.62 L 932.95 683.77 L 932.95 672.59 L 934.21 684.43 L 935.48 658.28 L 936.74 683.33 L 938.00 685.34 L 941.79 646.84 L 941.79 646.84 L 943.05 662.21 L 944.31 673.13 L 945.57 659.31 L 946.83 666.21 L 948.10 660.84 L 949.36 642.49 L 950.62 659.01 L 951.88 666.30 L 953.14 666.30 L 954.40 638.93 L 955.67 584.95 L 956.93 659.87 L 958.19 674.47 L 959.45 636.75 L 960.71 684.13 L 961.98 677.19 L 963.24 675.66 L 964.50 671.90 L 965.76 679.47 L 967.02 683.47 L 968.29 668.11 L 969.55 658.02 L 970.81 649.06 L 972.07 671.26 L 973.33 692.01 L 974.60 692.01 L 975.86 673.29 L 977.12 694.27 L 978.38 688.43 L 979.64 665.03 L 980.90 675.83 L 982.17 591.11 L 983.43 659.34 L 984.69 629.24 L 985.95 674.17 L 987.21 673.36 L 988.48 673.92 L 989.74 550.01 L 991.00 550.01 L 992.26 602.16 L 993.52 650.30 L 994.79 663.70 L 996.05 663.70 L 997.31 670.73 L 998.57 673.41 L 999.83 663.74 L 1001.10 663.74 L 1002.36 675.97 L 1003.62 675.97 L 1004.88 669.30 L 1006.14 650.54 L 1007.40 675.62 L 1008.67 675.62 L 1009.93 673.48 L 1011.19 669.85 L 1012.45 640.59 L 1013.71 637.70 L 1014.98 645.52 L 1016.24 653.93 L 1017.50 608.21 L 1018.76 615.53 L 1020.02 586.42 L 1021.29 627.11 L 1022.55 571.89 L 1023.81 656.99 L 1025.07 658.10 L 1026.33 673.77 L 1027.60 653.77 L 1028.86 658.08 L 1030.12 584.61 L 1031.38 648.05 L 1032.64 646.02 L 1033.90 665.38 L 1035.17 653.55" stroke="#FB8C00" />
<text x="90" y="711.25" font-size="14" font-weight="700">Giroscópio (magnitude) (u.a.)</text>
<rect class="event" x="392.86" y="717.25" width="415.17" height="192.75" />
<line class="eventline" x1="392.86" y1="717.25" x2="392.86" y2="910.00" />
<line class="eventline" x1="808.02" y1="717.25" x2="808.02" y2="910.00" />
<line class="grid" x1="90" y1="910.00" x2="1150" y2="910.00" />
<text class="small" x="80" y="914.00" text-anchor="end">0.00</text>
<line class="grid" x1="90" y1="871.45" x2="1150" y2="871.45" />
<text class="small" x="80" y="875.45" text-anchor="end">0.05</text>
<line class="grid" x1="90" y1="832.90" x2="1150" y2="832.90" />
<text class="small" x="80" y="836.90" text-anchor="end">0.10</text>
<line class="grid" x1="90" y1="794.35" x2="1150" y2="794.35" />
<text class="small" x="80" y="798.35" text-anchor="end">0.15</text>
<line class="grid" x1="90" y1="755.80" x2="1150" y2="755.80" />
<text class="small" x="80" y="759.80" text-anchor="end">0.20</text>
<line class="grid" x1="90" y1="717.25" x2="1150" y2="717.25" />
<text class="small" x="80" y="721.25" text-anchor="end">0.25</text>
<line class="grid" x1="90.00" y1="717.25" x2="90.00" y2="910.00" />
<line class="grid" x1="241.43" y1="717.25" x2="241.43" y2="910.00" />
<line class="grid" x1="392.86" y1="717.25" x2="392.86" y2="910.00" />
<line class="grid" x1="544.29" y1="717.25" x2="544.29" y2="910.00" />
<line class="grid" x1="695.71" y1="717.25" x2="695.71" y2="910.00" />
<line class="grid" x1="847.14" y1="717.25" x2="847.14" y2="910.00" />
<line class="grid" x1="998.57" y1="717.25" x2="998.57" y2="910.00" />
<line class="grid" x1="1150.00" y1="717.25" x2="1150.00" y2="910.00" />
<line class="axis" x1="90" y1="717.25" x2="90" y2="910.00" />
<line class="axis" x1="90" y1="910.00" x2="1150" y2="910.00" />
<path class="series" d="M 165.71 894.61 L 166.98 903.92 L 168.24 897.34 L 169.50 886.71 L 170.76 884.35 L 172.02 890.90 L 173.29 904.34 L 174.55 895.50 L 175.81 889.02 L 177.07 882.64 L 178.33 882.75 L 179.60 876.87 L 180.86 880.67 L 182.12 876.42 L 183.38 893.58 L 184.64 899.35 L 185.90 898.01 L 187.17 901.34 L 188.43 909.29 L 189.69 905.10 L 190.95 901.91 L 192.21 896.23 L 193.48 903.52 L 194.74 900.90 L 196.00 899.78 L 197.26 903.35 L 198.52 904.41 L 199.79 905.70 L 201.05 900.02 L 202.31 906.21 L 203.57 908.30 L 204.83 905.12 L 206.10 907.56 L 207.36 899.06 L 208.62 903.84 L 209.88 907.92 L 211.14 907.27 L 212.40 907.80 L 213.67 908.80 L 214.93 907.70 L 216.19 909.47 L 217.45 909.46 L 218.71 909.83 L 219.98 909.82 L 221.24 909.82 L 222.50 909.80 L 223.76 909.81 L 225.02 909.69 L 227.55 909.78 L 228.81 909.78 L 230.07 909.78 L 230.07 909.78 L 231.33 909.94 L 232.60 909.89 L 233.86 909.25 L 235.12 909.77 L 236.38 900.38 L 240.17 896.11 L 240.17 896.11 L 241.43 907.10 L 242.69 904.00 L 243.95 901.62 L 245.21 889.69 L 246.48 885.15 L 247.74 887.69 L 250.26 903.33 L 250.26 903.33 L 251.52 903.92 L 252.79 906.93 L 254.05 907.51 L 255.31 909.16 L 257.83 908.76 L 259.10 908.76 L 260.36 909.54 L 260.36 909.54 L 261.62 909.79 L 262.88 909.80 L 264.14 909.77 L 265.40 909.86 L 266.67 909.47 L 270.45 903.41 L 270.45 903.41 L 271.71 906.02 L 272.98 894.24 L 274.24 892.79 L 275.50 890.37 L 278.02 898.41 L 278.02 898.41 L 280.55 894.94 L 280.55 894.94 L 281.81 895.09 L 283.07 895.57 L 284.33 895.68 L 286.86 883.95 L 286.86 883.95 L 288.12 890.84 L 289.38 894.75 L 290.64 896.68 L 291.90 905.69 L 293.17 906.91 L 294.43 907.65 L 296.95 908.90 L 298.21 908.90 L 299.48 909.18 L 299.48 909.18 L 300.74 909.58 L 302.00 909.64 L 303.26 909.60 L 304.52 909.49 L 308.31 909.48 L 308.31 909.48 L 309.57 909.59 L 310.83 909.59 L 312.10 909.82 L 313.36 909.90 L 314.62 909.97 L 315.88 909.90 L 317.14 909.93 L 318.40 909.87 L 319.67 909.75 L 320.93 909.67 L 322.19 909.71 L 323.45 909.75 L 324.71 909.74 L 325.98 909.79 L 327.24 909.79 L 328.50 909.62 L 329.76 909.60 L 331.02 909.67 L 332.29 909.67 L 333.55 909.78 L 334.81 909.65 L 336.07 909.69 L 339.86 909.70 L 339.86 909.70 L 341.12 909.76 L 342.38 909.74 L 343.64 909.58 L 344.90 909.59 L 346.17 909.56 L 347.43 909.43 L 348.69 909.52 L 349.95 909.71 L 351.21 909.53 L 352.48 909.56 L 353.74 909.51 L 355.00 909.55 L 356.26 909.54 L 357.52 909.42 L 358.79 909.81 L 360.05 909.81 L 361.31 909.91 L 362.57 909.94 L 363.83 909.83 L 365.10 909.89 L 366.36 909.96 L 367.62 909.92 L 368.88 909.91 L 370.14 909.91 L 371.40 909.91 L 372.67 909.90 L 373.93 909.90 L 375.19 909.86 L 376.45 909.92 L 377.71 909.95 L 378.98 909.95 L 380.24 909.92 L 381.50 909.90 L 382.76 909.81 L 384.02 909.62 L 385.29 909.70 L 386.55 909.57 L 387.81 909.53 L 389.07 909.51 L 390.33 909.57 L 391.60 909.14 L 392.86 908.63 L 394.12 909.29 L 395.38 907.99 L 396.64 909.24 L 397.90 909.29 L 399.17 909.54 L 400.43 909.79 L 401.69 909.77 L 402.95 909.70 L 404.21 909.62 L 405.48 909.69 L 406.74 909.66 L 408.00 909.61 L 409.26 909.69 L 410.52 909.87 L 411.79 909.77 L 413.05 909.80 L 414.31 909.82 L 415.57 909.87 L 416.83 909.96 L 418.10 909.88 L 419.36 909.83 L 420.62 909.97 L 421.88 909.91 L 423.14 909.88 L 424.40 909.85 L 425.67 909.85 L 426.93 909.68 L 428.19 909.61 L 429.45 909.74 L 430.71 909.40 L 431.98 908.51 L 433.24 909.32 L 434.50 909.56 L 435.76 909.72 L 437.02 909.67 L 438.29 909.70 L 439.55 909.93 L 440.81 909.73 L 442.07 909.74 L 443.33 909.66 L 444.60 909.78 L 445.86 909.78 L 447.12 909.93 L 448.38 909.93 L 449.64 909.96 L 450.90 909.92 L 452.17 909.97 L 453.43 909.97 L 454.69 909.90 L 457.21 909.91 L 457.21 909.91 L 458.48 909.93 L 459.74 909.91 L 461.00 909.88 L 462.26 909.84 L 463.52 909.88 L 464.79 909.83 L 466.05 909.90 L 467.31 909.89 L 468.57 909.93 L 469.83 909.84 L 471.10 909.95 L 472.36 909.93 L 473.62 909.87 L 474.88 909.06 L 476.14 909.44 L 477.40 909.65 L 478.67 909.84 L 479.93 909.80 L 481.19 909.85 L 482.45 909.88 L 483.71 909.86 L 484.98 909.86 L 486.24 909.98 L 487.50 909.83 L 488.76 909.83 L 490.02 909.96 L 491.29 909.81 L 492.55 909.93 L 493.81 909.74 L 495.07 909.88 L 496.33 909.81 L 497.60 909.91 L 498.86 909.88 L 500.12 909.86 L 501.38 909.94 L 502.64 909.83 L 503.90 909.82 L 505.17 909.79 L 506.43 909.79 L 507.69 909.90 L 508.95 909.86 L 510.21 909.92 L 511.48 909.63 L 512.74 908.73 L 514.00 908.95 L 515.26 909.47 L 516.52 909.47 L 517.79 909.72 L 519.05 909.79 L 520.31 909.73 L 521.57 909.86 L 522.83 909.73 L 524.10 909.80 L 525.36 909.78 L 526.62 909.84 L 527.88 909.86 L 529.14 909.86 L 530.40 909.89 L 531.67 909.86 L 532.93 909.90 L 534.19 909.85 L 535.45 909.89 L 536.71 909.89 L 537.98 909.84 L 539.24 909.95 L 540.50 909.87 L 541.76 909.90 L 543.02 909.81 L 544.29 909.80 L 545.55 909.87 L 546.81 909.78 L 548.07 909.86 L 549.33 908.96 L 550.60 905.78 L 551.86 908.38 L 553.12 909.57 L 554.38 909.58 L 555.64 909.33 L 556.90 907.94 L 558.17 906.94 L 559.43 906.97 L 560.69 909.77 L 561.95 909.87 L 563.21 909.78 L 564.48 909.84 L 565.74 909.80 L 567.00 909.82 L 568.26 909.82 L 569.52 909.80 L 570.79 909.87 L 572.05 909.80 L 573.31 909.87 L 574.57 909.90 L 575.83 909.98 L 577.10 909.89 L 578.36 909.89 L 579.62 909.91 L 580.88 909.86 L 582.14 909.91 L 583.40 909.90 L 584.67 909.78 L 585.93 909.95 L 587.19 909.90 L 588.45 909.91 L 589.71 909.89 L 590.98 909.78 L 592.24 909.89 L 593.50 909.80 L 594.76 909.89 L 596.02 909.88 L 597.29 909.91 L 598.55 909.87 L 599.81 909.87 L 601.07 909.81 L 602.33 909.90 L 603.60 909.87 L 604.86 909.79 L 606.12 909.78 L 607.38 909.86 L 608.64 909.81 L 609.90 909.85 L 611.17 909.81 L 612.43 909.81 L 613.69 909.93 L 614.95 909.90 L 616.21 909.83 L 617.48 909.82 L 618.74 909.83 L 620.00 909.92 L 621.26 909.81 L 622.52 909.79 L 623.79 909.42 L 625.05 908.42 L 626.31 908.80 L 627.57 909.61 L 628.83 909.83 L 630.10 909.94 L 631.36 909.78 L 632.62 909.88 L 633.88 909.77 L 635.14 909.86 L 636.40 909.83 L 637.67 909.90 L 638.93 909.85 L 640.19 909.86 L 641.45 909.95 L 642.71 909.89 L 643.98 909.99 L 645.24 909.92 L 646.50 909.82 L 647.76 909.83 L 649.02 909.86 L 650.29 909.95 L 651.55 909.88 L 652.81 909.90 L 654.07 909.92 L 655.33 909.88 L 656.60 909.88 L 657.86 909.90 L 659.12 909.87 L 660.38 909.83 L 661.64 909.93 L 662.90 909.92 L 664.17 909.87 L 665.43 909.90 L 666.69 909.93 L 667.95 909.90 L 669.21 909.91 L 670.48 909.89 L 671.74 909.92 L 673.00 909.96 L 674.26 909.82 L 675.52 909.87 L 676.79 909.89 L 678.05 907.65 L 679.31 906.96 L 680.57 909.41 L 681.83 909.70 L 683.10 909.82 L 684.36 909.93 L 685.62 909.87 L 686.88 909.90 L 688.14 909.85 L 689.40 909.85 L 690.67 909.89 L 691.93 909.85 L 693.19 909.91 L 694.45 909.84 L 695.71 909.83 L 696.98 909.97 L 698.24 909.89 L 699.50 909.77 L 700.76 909.84 L 702.02 909.86 L 703.29 909.82 L 704.55 909.80 L 705.81 909.81 L 707.07 909.94 L 708.33 909.88 L 709.60 909.89 L 710.86 909.83 L 712.12 909.86 L 713.38 909.94 L 714.64 904.31 L 715.90 902.49 L 717.17 908.07 L 718.43 909.56 L 719.69 909.75 L 720.95 909.92 L 722.21 909.79 L 723.48 909.83 L 724.74 909.85 L 726.00 909.81 L 727.26 909.72 L 728.52 909.73 L 729.79 909.90 L 731.05 909.88 L 732.31 909.90 L 733.57 909.89 L 734.83 909.94 L 736.10 909.81 L 737.36 909.77 L 738.62 909.69 L 739.88 909.79 L 741.14 909.81 L 742.40 909.77 L 743.67 909.85 L 744.93 909.68 L 746.19 909.96 L 747.45 909.94 L 748.71 909.88 L 749.98 909.93 L 751.24 909.89 L 752.50 909.91 L 753.76 909.91 L 755.02 909.82 L 756.29 905.96 L 757.55 907.86 L 758.81 907.89 L 760.07 908.54 L 761.33 909.33 L 762.60 909.86 L 763.86 909.94 L 765.12 909.88 L 766.38 909.83 L 767.64 909.76 L 768.90 909.88 L 770.17 909.88 L 771.43 909.82 L 772.69 909.80 L 773.95 909.86 L 775.21 909.92 L 776.48 909.87 L 777.74 909.90 L 779.00 909.82 L 780.26 909.84 L 781.52 909.83 L 782.79 909.88 L 784.05 909.89 L 785.31 909.87 L 786.57 909.78 L 787.83 909.86 L 789.10 909.06 L 790.36 906.24 L 791.62 908.45 L 792.88 908.62 L 794.14 909.73 L 795.40 907.21 L 796.67 909.20 L 797.93 908.53 L 799.19 909.29 L 801.71 909.29 L 801.71 909.26 L 802.98 907.51 L 804.24 907.51 L 805.50 907.91 L 806.76 905.73 L 808.02 909.22 L 809.29 909.44 L 813.07 908.73 L 813.07 908.73 L 814.33 908.86 L 815.60 908.03 L 816.86 903.21 L 818.12 895.91 L 819.38 902.54 L 820.64 902.70 L 821.90 897.34 L 823.17 906.36 L 824.43 906.36 L 825.69 903.87 L 826.95 887.17 L 828.21 887.57 L 829.48 869.04 L 833.26 854.45 L 833.26 854.45 L 834.52 879.06 L 835.79 879.03 L 837.05 883.15 L 838.31 884.49 L 839.57 895.77 L 842.10 889.45 L 842.10 889.45 L 843.36 861.88 L 844.62 861.88 L 845.88 889.47 L 847.14 866.44 L 848.40 896.58 L 850.93 879.11 L 850.93 879.11 L 852.19 847.07 L 853.45 847.07 L 854.71 867.55 L 855.98 838.02 L 857.24 870.79 L 858.50 882.21 L 859.76 872.84 L 861.02 851.84 L 863.55 849.36 L 863.55 849.36 L 864.81 859.10 L 866.07 855.23 L 867.33 874.84 L 868.60 857.46 L 872.38 869.99 L 872.38 869.99 L 873.64 865.94 L 874.90 850.56 L 876.17 871.45 L 877.43 881.43 L 878.69 879.91 L 882.48 889.15 L 882.48 889.15 L 883.74 905.10 L 885.00 902.43 L 886.26 904.17 L 887.52 904.59 L 888.79 904.21 L 890.05 904.21 L 891.31 907.16 L 892.57 880.63 L 893.83 907.14 L 895.10 880.27 L 896.36 893.84 L 897.62 886.84 L 898.88 897.97 L 902.67 892.89 L 902.67 892.89 L 903.93 902.50 L 905.19 907.04 L 906.45 906.54 L 907.71 907.12 L 908.98 908.10 L 910.24 905.55 L 911.50 905.55 L 912.76 901.02 L 914.02 876.24 L 915.29 861.46 L 916.55 862.96 L 917.81 874.35 L 919.07 899.76 L 920.33 888.80 L 922.86 900.48 L 922.86 900.48 L 924.12 888.25 L 925.38 888.73 L 926.64 903.22 L 929.17 905.54 L 929.17 905.54 L 930.43 898.72 L 932.95 904.01 L 932.95 902.43 L 934.21 901.15 L 935.48 903.43 L 936.74 906.03 L 938.00 902.36 L 941.79 903.12 L 941.79 903.12 L 943.05 901.94 L 944.31 908.34 L 945.57 902.71 L 946.83 905.79 L 948.10 902.67 L 949.36 906.11 L 950.62 899.56 L 951.88 898.12 L 953.14 898.12 L 954.40 892.14 L 955.67 897.10 L 956.93 904.77 L 958.19 902.13 L 959.45 898.06 L 960.71 901.98 L 961.98 903.73 L 963.24 905.67 L 964.50 900.64 L 965.76 902.38 L 967.02 892.14 L 968.29 897.18 L 969.55 889.73 L 970.81 889.26 L 972.07 896.58 L 973.33 897.07 L 974.60 897.07 L 975.86 897.26 L 977.12 899.48 L 978.38 902.34 L 979.64 902.54 L 980.90 902.74 L 982.17 905.41 L 983.43 867.55 L 984.69 864.30 L 985.95 860.61 L 987.21 879.25 L 988.48 878.32 L 989.74 888.38 L 991.00 888.38 L 992.26 884.91 L 993.52 888.27 L 994.79 882.43 L 996.05 882.43 L 997.31 878.67 L 998.57 881.51 L 999.83 891.30 L 1001.10 891.30 L 1002.36 886.04 L 1003.62 886.04 L 1004.88 885.84 L 1006.14 881.45 L 1007.40 891.06 L 1008.67 891.06 L 1009.93 888.24 L 1011.19 882.90 L 1012.45 879.08 L 1013.71 882.57 L 1014.98 882.23 L 1016.24 879.82 L 1017.50 851.00 L 1018.76 868.00 L 1020.02 856.12 L 1021.29 857.07 L 1022.55 869.60 L 1023.81 882.89 L 1025.07 863.66 L 1026.33 869.97 L 1027.60 880.87 L 1028.86 886.12 L 1030.12 887.86 L 1031.38 893.43 L 1032.64 890.45 L 1033.90 886.33 L 1035.17 886.22" stroke="#E53935" />
<text x="620.00" y="952" font-size="15" text-anchor="middle">minutos (relativo ao início do evento)</text>
<text class="small" x="90.00" y="936" text-anchor="middle">-4.00</text>
<text class="small" x="241.43" y="936" text-anchor="middle">-2.00</text>
<text class="small" x="392.86" y="936" text-anchor="middle">0.00</text>
<text class="small" x="544.29" y="936" text-anchor="middle">2.00</text>
<text class="small" x="695.71" y="936" text-anchor="middle">4.00</text>
<text class="small" x="847.14" y="936" text-anchor="middle">6.00</text>
<text class="small" x="998.57" y="936" text-anchor="middle">8.00</text>
<text class="small" x="1150.00" y="936" text-anchor="middle">10.0</text>
</svg>