<?xml version="1.0" encoding="UTF-8"?>
<svg xmlns="http://www.w3.org/2000/svg" width="980" height="520" viewBox="0 0 980 520">
<style>
text { font-family: -apple-system, BlinkMacSystemFont, 'Segoe UI', Roboto, Helvetica, Arial, sans-serif; fill: #111; }
.small { font-size: 12px; fill: #222; }
.axis { stroke: #111; stroke-width: 1.5; }
.grid { stroke: #E6E6E6; stroke-width: 1; }
.bar { fill-opacity: 0.55; }
.curve { fill: none; stroke: #E53935; stroke-width: 2.5; }
</style>
<text x="80" y="35" font-size="20" font-weight="700">Carregamento — distribuição de duração</text>
<line class="grid" x1="80" y1="430.00" x2="950" y2="430.00" />
<text class="small" x="70" y="434.00" text-anchor="end">0</text>
<line class="grid" x1="80" y1="356.00" x2="950" y2="356.00" />
<text class="small" x="70" y="360.00" text-anchor="end">5</text>
<line class="grid" x1="80" y1="282.00" x2="950" y2="282.00" />
<text class="small" x="70" y="286.00" text-anchor="end">10</text>
<line class="grid" x1="80" y1="208.00" x2="950" y2="208.00" />
<text class="small" x="70" y="212.00" text-anchor="end">15</text>
<line class="grid" x1="80" y1="134.00" x2="950" y2="134.00" />
<text class="small" x="70" y="138.00" text-anchor="end">20</text>
<line class="grid" x1="80" y1="60.00" x2="950" y2="60.00" />
<text class="small" x="70" y="64.00" text-anchor="end">25</text>
<line class="grid" x1="80.00" y1="60" x2="80.00" y2="430" />
<text class="small" x="80.00" y="452" text-anchor="middle">2.10</text>
<line class="grid" x1="254.00" y1="60" x2="254.00" y2="430" />
<text class="small" x="254.00" y="452" text-anchor="middle">2.78</text>
<line class="grid" x1="428.00" y1="60" x2="428.00" y2="430" />
<text class="small" x="428.00" y="452" text-anchor="middle">3.46</text>
<line class="grid" x1="602.00" y1="60" x2="602.00" y2="430" />
<text class="small" x="602.00" y="452" text-anchor="middle">4.14</text>
<line class="grid" x1="776.00" y1="60" x2="776.00" y2="430" />
<text class="small" x="776.00" y="452" text-anchor="middle">4.82</text>
<line class="grid" x1="950.00" y1="60" x2="950.00" y2="430" />
<text class="small" x="950.00" y="452" text-anchor="middle">5.50</text>
<line class="axis" x1="80" y1="60" x2="80" y2="430" />
<line class="axis" x1="80" y1="430" x2="950" y2="430" />
<text x="515.00" y="485" font-size="16" text-anchor="middle">duração (min)</text>
<text x="25" y="245.00" font-size="16" text-anchor="middle" transform="rotate(-90 25 245.00)">contagem</text>
<rect class="bar" x="80.00" y="296.80" width="123.29" height="133.20" fill="#1976D2" />
<rect class="bar" x="204.29" y="356.00" width="123.29" height="74.00" fill="#1976D2" />
<rect class="bar" x="328.57" y="356.00" width="123.29" height="74.00" fill="#1976D2" />
<rect class="bar" x="452.86" y="415.20" width="123.29" height="14.80" fill="#1976D2" />
<rect class="bar" x="577.14" y="415.20" width="123.29" height="14.80" fill="#1976D2" />
<rect class="bar" x="701.43" y="415.20" width="123.29" height="14.80" fill="#1976D2" />
<rect class="bar" x="825.71" y="415.20" width="123.29" height="14.80" fill="#1976D2" />
<path class="curve" d="M 80.00 389.61 L 83.64 388.82 L 87.28 388.02 L 90.92 387.21 L 94.56 386.40 L 98.20 385.59 L 101.84 384.78 L 105.48 383.97 L 109.12 383.15 L 112.76 382.34 L 116.40 381.52 L 120.04 380.71 L 123.68 379.89 L 127.32 379.08 L 130.96 378.27 L 134.60 377.46 L 138.24 376.66 L 141.88 375.85 L 145.52 375.05 L 149.16 374.26 L 152.80 373.47 L 156.44 372.69 L 160.08 371.91 L 163.72 371.14 L 167.36 370.37 L 171.00 369.62 L 174.64 368.87 L 178.28 368.13 L 181.92 367.40 L 185.56 366.68 L 189.21 365.97 L 192.85 365.27 L 196.49 364.58 L 200.13 363.90 L 203.77 363.24 L 207.41 362.58 L 211.05 361.95 L 214.69 361.32 L 218.33 360.71 L 221.97 360.12 L 225.61 359.54 L 229.25 358.97 L 232.89 358.43 L 236.53 357.89 L 240.17 357.38 L 243.81 356.88 L 247.45 356.41 L 251.09 355.94 L 254.73 355.50 L 258.37 355.08 L 262.01 354.68 L 265.65 354.30 L 269.29 353.93 L 272.93 353.59 L 276.57 353.27 L 280.21 352.97 L 283.85 352.69 L 287.49 352.43 L 291.13 352.19 L 294.77 351.98 L 298.41 351.79 L 302.05 351.61 L 305.69 351.47 L 309.33 351.34 L 312.97 351.24 L 316.61 351.16 L 320.25 351.10 L 323.89 351.07 L 327.53 351.06 L 331.17 351.07 L 334.81 351.10 L 338.45 351.16 L 342.09 351.24 L 345.73 351.34 L 349.37 351.47 L 353.01 351.61 L 356.65 351.78 L 360.29 351.98 L 363.93 352.19 L 367.57 352.43 L 371.21 352.69 L 374.85 352.97 L 378.49 353.27 L 382.13 353.59 L 385.77 353.93 L 389.41 354.29 L 393.05 354.68 L 396.69 355.08 L 400.33 355.50 L 403.97 355.94 L 407.62 356.40 L 411.26 356.88 L 414.90 357.38 L 418.54 357.89 L 422.18 358.42 L 425.82 358.97 L 429.46 359.53 L 433.10 360.11 L 436.74 360.71 L 440.38 361.32 L 444.02 361.94 L 447.66 362.58 L 451.30 363.23 L 454.94 363.90 L 458.58 364.57 L 462.22 365.26 L 465.86 365.96 L 469.50 366.67 L 473.14 367.39 L 476.78 368.13 L 480.42 368.87 L 484.06 369.61 L 487.70 370.37 L 491.34 371.13 L 494.98 371.91 L 498.62 372.68 L 502.26 373.47 L 505.90 374.26 L 509.54 375.05 L 513.18 375.85 L 516.82 376.65 L 520.46 377.46 L 524.10 378.27 L 527.74 379.08 L 531.38 379.89 L 535.02 380.70 L 538.66 381.52 L 542.30 382.33 L 545.94 383.15 L 549.58 383.96 L 553.22 384.78 L 556.86 385.59 L 560.50 386.40 L 564.14 387.21 L 567.78 388.01 L 571.42 388.81 L 575.06 389.61 L 578.70 390.41 L 582.34 391.20 L 585.98 391.98 L 589.62 392.76 L 593.26 393.53 L 596.90 394.30 L 600.54 395.07 L 604.18 395.82 L 607.82 396.57 L 611.46 397.31 L 615.10 398.05 L 618.74 398.78 L 622.38 399.50 L 626.03 400.21 L 629.67 400.91 L 633.31 401.61 L 636.95 402.30 L 640.59 402.98 L 644.23 403.64 L 647.87 404.30 L 651.51 404.96 L 655.15 405.60 L 658.79 406.23 L 662.43 406.85 L 666.07 407.46 L 669.71 408.07 L 673.35 408.66 L 676.99 409.24 L 680.63 409.81 L 684.27 410.38 L 687.91 410.93 L 691.55 411.47 L 695.19 412.00 L 698.83 412.53 L 702.47 413.04 L 706.11 413.54 L 709.75 414.03 L 713.39 414.51 L 717.03 414.98 L 720.67 415.44 L 724.31 415.89 L 727.95 416.33 L 731.59 416.76 L 735.23 417.19 L 738.87 417.60 L 742.51 418.00 L 746.15 418.39 L 749.79 418.77 L 753.43 419.15 L 757.07 419.51 L 760.71 419.86 L 764.35 420.21 L 767.99 420.54 L 771.63 420.87 L 775.27 421.19 L 778.91 421.50 L 782.55 421.80 L 786.19 422.09 L 789.83 422.38 L 793.47 422.66 L 797.11 422.92 L 800.75 423.18 L 804.39 423.44 L 808.03 423.68 L 811.67 423.92 L 815.31 424.15 L 818.95 424.38 L 822.59 424.59 L 826.23 424.80 L 829.87 425.01 L 833.51 425.20 L 837.15 425.39 L 840.79 425.58 L 844.44 425.75 L 848.08 425.93 L 851.72 426.09 L 855.36 426.25 L 859.00 426.41 L 862.64 426.56 L 866.28 426.70 L 869.92 426.84 L 873.56 426.97 L 877.20 427.10 L 880.84 427.23 L 884.48 427.35 L 888.12 427.46 L 891.76 427.57 L 895.40 427.68 L 899.04 427.78 L 902.68 427.88 L 906.32 427.98 L 909.96 428.07 L 913.60 428.16 L 917.24 428.24 L 920.88 428.32 L 924.52 428.40 L 928.16 428.47 L 931.80 428.55 L 935.44 428.61 L 939.08 428.68 L 942.72 428.74 L 946.36 428.80 L 950.00 428.86" />
<text class="small" x="945" y="78" text-anchor="end">curva normal (μ, σ)</text>
<text class="small" x="80" y="500">n=23  min=2.10  p50=2.93  p90=4.02  max=5.50  μ=3.07  σ=0.84</text>
</svg>