<?xml version="1.0" encoding="UTF-8"?>
<svg xmlns="http://www.w3.org/2000/svg" width="980" height="520" viewBox="0 0 980 520">
<style>
text { font-family: -apple-system, BlinkMacSystemFont, 'Segoe UI', Roboto, Helvetica, Arial, sans-serif; fill: #111; }
.small { font-size: 12px; fill: #222; }
.axis { stroke: #111; stroke-width: 1.5; }
.grid { stroke: #E6E6E6; stroke-width: 1; }
.bar { fill-opacity: 0.55; }
.curve { fill: none; stroke: #E53935; stroke-width: 2.5; }
</style>
<text x="80" y="35" font-size="20" font-weight="700">Basculamento — distribuição de duração</text>
<line class="grid" x1="80" y1="430.00" x2="950" y2="430.00" />
<text class="small" x="70" y="434.00" text-anchor="end">0</text>
<line class="grid" x1="80" y1="356.00" x2="950" y2="356.00" />
<text class="small" x="70" y="360.00" text-anchor="end">2</text>
<line class="grid" x1="80" y1="282.00" x2="950" y2="282.00" />
<text class="small" x="70" y="286.00" text-anchor="end">4</text>
<line class="grid" x1="80" y1="208.00" x2="950" y2="208.00" />
<text class="small" x="70" y="212.00" text-anchor="end">6</text>
<line class="grid" x1="80" y1="134.00" x2="950" y2="134.00" />
<text class="small" x="70" y="138.00" text-anchor="end">8</text>
<line class="grid" x1="80" y1="60.00" x2="950" y2="60.00" />
<text class="small" x="70" y="64.00" text-anchor="end">10</text>
<line class="grid" x1="80.00" y1="60" x2="80.00" y2="430" />
<text class="small" x="80.00" y="452" text-anchor="middle">0.17</text>
<line class="grid" x1="254.00" y1="60" x2="254.00" y2="430" />
<text class="small" x="254.00" y="452" text-anchor="middle">0.35</text>
<line class="grid" x1="428.00" y1="60" x2="428.00" y2="430" />
<text class="small" x="428.00" y="452" text-anchor="middle">0.53</text>
<line class="grid" x1="602.00" y1="60" x2="602.00" y2="430" />
<text class="small" x="602.00" y="452" text-anchor="middle">0.71</text>
<line class="grid" x1="776.00" y1="60" x2="776.00" y2="430" />
<text class="small" x="776.00" y="452" text-anchor="middle">0.89</text>
<line class="grid" x1="950.00" y1="60" x2="950.00" y2="430" />
<text class="small" x="950.00" y="452" text-anchor="middle">1.07</text>
<line class="axis" x1="80" y1="60" x2="80" y2="430" />
<line class="axis" x1="80" y1="430" x2="950" y2="430" />
<text x="515.00" y="485" font-size="16" text-anchor="middle">duração (min)</text>
<text x="25" y="245.00" font-size="16" text-anchor="middle" transform="rotate(-90 25 245.00)">contagem</text>
<rect class="bar" x="80.00" y="171.00" width="173.00" height="259.00" fill="#2E7D32" />
<rect class="bar" x="254.00" y="393.00" width="173.00" height="37.00" fill="#2E7D32" />
<rect class="bar" x="428.00" y="171.00" width="173.00" height="259.00" fill="#2E7D32" />
<rect class="bar" x="602.00" y="171.00" width="173.00" height="259.00" fill="#2E7D32" />
<rect class="bar" x="776.00" y="393.00" width="173.00" height="37.00" fill="#2E7D32" />
<path class="curve" d="M 80.00 374.10 L 83.64 372.55 L 87.28 370.98 L 90.92 369.38 L 94.56 367.75 L 98.20 366.09 L 101.84 364.40 L 105.48 362.69 L 109.12 360.95 L 112.76 359.18 L 116.40 357.39 L 120.04 355.56 L 123.68 353.71 L 127.32 351.84 L 130.96 349.93 L 134.60 348.00 L 138.24 346.05 L 141.88 344.07 L 145.52 342.06 L 149.16 340.03 L 152.80 337.98 L 156.44 335.90 L 160.08 333.80 L 163.72 331.68 L 167.36 329.53 L 171.00 327.36 L 174.64 325.18 L 178.28 322.97 L 181.92 320.74 L 185.56 318.50 L 189.21 316.23 L 192.85 313.95 L 196.49 311.65 L 200.13 309.34 L 203.77 307.01 L 207.41 304.67 L 211.05 302.31 L 214.69 299.94 L 218.33 297.57 L 221.97 295.18 L 225.61 292.78 L 229.25 290.37 L 232.89 287.96 L 236.53 285.54 L 240.17 283.11 L 243.81 280.69 L 247.45 278.26 L 251.09 275.82 L 254.73 273.39 L 258.37 270.96 L 262.01 268.53 L 265.65 266.10 L 269.29 263.68 L 272.93 261.27 L 276.57 258.86 L 280.21 256.46 L 283.85 254.07 L 287.49 251.69 L 291.13 249.33 L 294.77 246.97 L 298.41 244.64 L 302.05 242.32 L 305.69 240.01 L 309.33 237.73 L 312.97 235.47 L 316.61 233.23 L 320.25 231.01 L 323.89 228.82 L 327.53 226.65 L 331.17 224.51 L 334.81 222.40 L 338.45 220.32 L 342.09 218.27 L 345.73 216.26 L 349.37 214.27 L 353.01 212.33 L 356.65 210.42 L 360.29 208.55 L 363.93 206.72 L 367.57 204.92 L 371.21 203.17 L 374.85 201.47 L 378.49 199.80 L 382.13 198.19 L 385.77 196.61 L 389.41 195.09 L 393.05 193.61 L 396.69 192.19 L 400.33 190.81 L 403.97 189.49 L 407.62 188.22 L 411.26 187.00 L 414.90 185.83 L 418.54 184.72 L 422.18 183.67 L 425.82 182.67 L 429.46 181.73 L 433.10 180.85 L 436.74 180.03 L 440.38 179.27 L 444.02 178.56 L 447.66 177.92 L 451.30 177.34 L 454.94 176.82 L 458.58 176.36 L 462.22 175.96 L 465.86 175.62 L 469.50 175.35 L 473.14 175.14 L 476.78 174.99 L 480.42 174.91 L 484.06 174.89 L 487.70 174.93 L 491.34 175.03 L 494.98 175.20 L 498.62 175.43 L 502.26 175.72 L 505.90 176.08 L 509.54 176.50 L 513.18 176.97 L 516.82 177.52 L 520.46 178.12 L 524.10 178.78 L 527.74 179.50 L 531.38 180.29 L 535.02 181.13 L 538.66 182.03 L 542.30 182.98 L 545.94 184.00 L 549.58 185.07 L 553.22 186.20 L 556.86 187.38 L 560.50 188.62 L 564.14 189.90 L 567.78 191.24 L 571.42 192.64 L 575.06 194.08 L 578.70 195.57 L 582.34 197.11 L 585.98 198.70 L 589.62 200.33 L 593.26 202.01 L 596.90 203.73 L 600.54 205.49 L 604.18 207.30 L 607.82 209.14 L 611.46 211.02 L 615.10 212.95 L 618.74 214.90 L 622.38 216.90 L 626.03 218.92 L 629.67 220.98 L 633.31 223.07 L 636.95 225.19 L 640.59 227.34 L 644.23 229.51 L 647.87 231.71 L 651.51 233.94 L 655.15 236.19 L 658.79 238.46 L 662.43 240.75 L 666.07 243.05 L 669.71 245.38 L 673.35 247.72 L 676.99 250.08 L 680.63 252.45 L 684.27 254.83 L 687.91 257.22 L 691.55 259.63 L 695.19 262.04 L 698.83 264.45 L 702.47 266.88 L 706.11 269.30 L 709.75 271.73 L 713.39 274.17 L 717.03 276.60 L 720.67 279.03 L 724.31 281.46 L 727.95 283.89 L 731.59 286.31 L 735.23 288.73 L 738.87 291.14 L 742.51 293.54 L 746.15 295.94 L 749.79 298.32 L 753.43 300.70 L 757.07 303.06 L 760.71 305.42 L 764.35 307.75 L 767.99 310.08 L 771.63 312.39 L 775.27 314.68 L 778.91 316.95 L 782.55 319.21 L 786.19 321.45 L 789.83 323.67 L 793.47 325.88 L 797.11 328.06 L 800.75 330.22 L 804.39 332.36 L 808.03 334.47 L 811.67 336.57 L 815.31 338.64 L 818.95 340.68 L 822.59 342.70 L 826.23 344.70 L 829.87 346.67 L 833.51 348.62 L 837.15 350.54 L 840.79 352.44 L 844.44 354.30 L 848.08 356.15 L 851.72 357.96 L 855.36 359.75 L 859.00 361.51 L 862.64 363.24 L 866.28 364.95 L 869.92 366.62 L 873.56 368.27 L 877.20 369.89 L 880.84 371.48 L 884.48 373.05 L 888.12 374.59 L 891.76 376.09 L 895.40 377.57 L 899.04 379.03 L 902.68 380.45 L 906.32 381.85 L 909.96 383.21 L 913.60 384.56 L 917.24 385.87 L 920.88 387.15 L 924.52 388.41 L 928.16 389.65 L 931.80 390.85 L 935.44 392.03 L 939.08 393.18 L 942.72 394.31 L 946.36 395.41 L 950.00 396.48" />
<text class="small" x="945" y="78" text-anchor="end">curva normal (μ, σ)</text>
<text class="small" x="80" y="500">n=23  min=0.17  p50=0.62  p90=0.83  max=1.07  μ=0.58  σ=0.24</text>
</svg>